<svg xmlns="http://www.w3.org/2000/svg"><defs><font id="PPFormula-ExtendedMedium" horiz-adv-x="1634"><font-face font-family="PP Formula Extended Medium" font-weight="500" font-stretch="expanded" units-per-em="2048" ascent="1638" descent="-410" x-height="1331" cap-height="1720" bbox="-588 -492 3207 2144" underline-thickness="81" underline-position="-285" unicode-range="U+0020-FB02"/><glyph glyph-name="fi" unicode="fi" horiz-adv-x="1800" d="M25 1331h440v92q0 50 4.5 86.5t17 75.5 37.5 65 64.5 48 100 32.5T829 1741q182 0 363-21v-161q-70 12-262 12-88 0-141-9t-78.5-31-33-47.5-7.5-70.5v-123q42 29 140.5 35t381.5 6v-180H670V0H465v1151H25v180zm1337 287q0 55 36.5 89t102.5 34 103.5-34 37.5-89q0-51-38-85t-103-34-102 33.5-37 85.5zM1401 0v1331h205V0h-205z"/><glyph glyph-name="fl" unicode="fl" horiz-adv-x="1800" d="M25 1331h440v92q0 50 4.5 86.5t17 75.5 37.5 65 64.5 48 100 32.5T829 1741q182 0 363-21v-161q-70 12-262 12-88 0-141-9t-78.5-31-33-47.5-7.5-70.5v-123q42 29 140.5 35t381.5 6v-180H670V0H465v1151H25v180zM1401 0v1720h205V0h-205z"/><glyph glyph-name=".notdef" horiz-adv-x="1105" d="M907 1720V-492H205v2212h702zM369-338h368v72H510l156 104h71v74H369v-74h155L369-266v-72zm0 299h368v250H369V-39zm0 383h368v250H516V471h74v51h74V418H442v176h-73V344zm0 299h368v221h-73V719H369v-76zm0 127h221v154h147v73H369v-73h147v-82H369v-72zm0 287h368v76H590v153H369v-229zm0 286h368v74H590v82h147v74H371v-74h145v-82H369v-74zM442 35v104h222V35H442zm0 1098v79h74v-79h-74z"/><glyph glyph-name=".null" horiz-adv-x="0"/><glyph glyph-name="nonmarkingreturn" horiz-adv-x="682"/><glyph glyph-name="space" horiz-adv-x="698"/><glyph glyph-name="exclam" unicode="!" horiz-adv-x="626" d="M211 1720h205L403 512H221zM170 121q0 65 40.5 105T311 266q62 0 104-40t42-105q0-62-42.5-101.5T311-20q-60 0-100.5 39.5T170 121z"/><glyph glyph-name="quotedbl" unicode="&quot;" horiz-adv-x="714" d="M162 1720h129v-512H162v512zm264-512v512h129v-512H426z"/><glyph glyph-name="numbersign" unicode="#" horiz-adv-x="2246" d="M334 1128h594l448 592h117l-449-592h560l448 592h117l-449-592h447v-86h-512l-338-446h590v-86h-656L864 0H748l387 510H575L188 0H72l387 510H74v86h450l338 446H334v86zm307-532h559l338 446H979z"/><glyph glyph-name="dollar" unicode="$" horiz-adv-x="1583" d="M754-143v125Q441 1 271.5 159.5T102 598v20h222v-20q0-193 111-298t319-124v627l-107 33q-87 25-148 48.5t-128.5 62-109 84.5-68.5 114.5-27 152.5q0 209 160.5 323.5T754 1741v123h110v-127q262-21 414-163t152-378v-20h-222v20q0 150-90 238.5T864 1544V983l121-37q64-20 106-35t97-39 90.5-48 73.5-60 60-77 36-96.5 14-121.5q0-234-156-358.5T864-20v-123H754zM387 1298q0-36 11-67t26-53.5 44.5-43.5 52-34 65-29 66.5-23.5 71-21.5l31-10v532q-169-5-268-68.5T387 1298zM864 172q175 3 276 78.5T1241 471q0 69-20.5 115.5t-77 79.5-96.5 47.5T910 756q-9 3-13 4l-33 10V172z"/><glyph glyph-name="percent" unicode="%" horiz-adv-x="1978" d="M262 0l1305 1720h143L406 0H262zM68 1358q0 152 108 267.5T455 1741q115 0 206-56t137-142.5 46-184.5q0-99-46-185.5t-136.5-142T455 975q-115 0-205 55.5t-136 142T68 1358zm174 0q0-96 61-158.5t152-62.5q93 0 154 62.5t61 158.5-61 158.5-154 62.5q-91 0-152-62.5T242 1358zm895-996q0 99 46 185.5t136 142 205 55.5q116 0 206.5-55.5t136.5-142 46-185.5q0-73-27.5-141.5t-76.5-122-123.5-86T1524-20q-171 0-279 115t-108 267zm174 0q0-96 61-158.5t152-62.5q93 0 154 62.5t61 158.5-61 159-154 63q-91 0-152-63t-61-159z"/><glyph glyph-name="ampersand" unicode="&amp;" horiz-adv-x="1769" d="M827-20q-336 0-508 128T147 469q0 144 78.5 255.5T451 877q-139 40-217 147.5T156 1270q0 221 173 346t502 125q334 0 498-133t164-389h-209q0 175-106 260.5T829 1565q-462 0-462-303 0-156 110-230t350-74h457v129h209V958h176V791h-176V475q0-239-165-367T827-20zM356 475q0-156 112.5-238.5T825 154q241 0 350 82.5T1284 479v312H823q-240 0-353.5-79T356 475z"/><glyph glyph-name="quotesingle" unicode="'" horiz-adv-x="452" d="M162 1720h129v-512H162v512z"/><glyph glyph-name="parenleft" unicode="(" horiz-adv-x="667" d="M537-315Q321-47 219 202.5T117 741q0 290 101.5 536T537 1792h114q-227-288-329.5-527.5T219 741q0-286 101.5-524.5T651-315H537z"/><glyph glyph-name="parenright" unicode=")" horiz-adv-x="667" d="M131 1796q216-268 318-517.5T551 739 449.5 203.5 131-311H16Q167-119 258 39t141 332.5T449 739q0 195-49 369t-140 333-244 355h115z"/><glyph glyph-name="asterisk" unicode="*" horiz-adv-x="862" d="M389 1720h82v-239l191 100 40-70-186-98 186-98-40-70-191 101v-240h-82v240l-190-101-41 70 186 98-186 98 41 70 190-100v239z"/><glyph glyph-name="plus" unicode="+" horiz-adv-x="1964" d="M143 815v92h789v625h102V907h789v-92h-789V188H932v627H143z"/><glyph glyph-name="comma" unicode="," horiz-adv-x="544" d="M162-121q59 16 112 57t72 95q-38-51-98-51-49 0-83 36.5T131 119q0 65 38.5 103T274 260q67 0 105.5-47T418 90q0-104-70.5-190T162-246v125z"/><glyph glyph-name="hyphen" unicode="-" horiz-adv-x="1923" d="M121 721h1679v-90H121v90z"/><glyph glyph-name="period" unicode="." horiz-adv-x="550" d="M274-20q-60 0-100.5 39.5T133 121q0 65 40.5 105T274 266q62 0 104-40t42-105q0-62-42.5-101.5T274-20z"/><glyph glyph-name="slash" unicode="/" horiz-adv-x="1492" d="M1456 1720L152 0H35l1304 1720h117z"/><glyph glyph-name="zero" unicode="0" horiz-adv-x="1853" d="M932-20q-383 0-588 233.5T139 864q0 411 205.5 644T932 1741q375 0 578.5-233.5T1714 862q0-415-203-648.5T932-20zM356 862q0-293 107-461l833 1029q-136 118-364 118-286 0-431-176.5T356 862zm203-571q140-119 373-119 280 0 422.5 176.5T1497 864q0 287-104 455z"/><glyph glyph-name="one" unicode="1" horiz-adv-x="1380" d="M137 190h508v1309q-93-91-231-138.5T131 1313v198q157 0 281.5 46.5T645 1720h211V190h508V0H137v190z"/><glyph glyph-name="two" unicode="2" horiz-adv-x="1808" d="M145 199q0 77 6.5 140T176 466.5 224 583t78 101 113 85.5T570 835t202 46l250 37q86 13 145.5 27t117 38 92 56 55 81 20.5 113v2q0 162-127.5 237.5T948 1548q-292 0-428.5-107.5T383 1100v-13H166v13q0 641 778 641 349 0 537-126.5t188-383.5q0-94-26.5-169t-73-128.5-117-93-151.5-64-183-39.5l-262-39q-96-15-169.5-35.5t-126-44.5-89-58.5T413 490t-33.5-85.5T364 306t-4-116h1309V0H145v199z"/><glyph glyph-name="three" unicode="3" horiz-adv-x="1783" d="M883-20q-389 0-573.5 139T119 553h217q4-206 135-293.5T883 172q280 0 408 76t128 235q0 70-24 121.5t-66 84.5-108.5 53-143 28-176.5 8H623v191h278q245 0 368.5 62t123.5 214q0 161-131 232t-375 71q-91 0-163-9.5t-138-34-110-64-70.5-103.5-28.5-149H160q6 284 186.5 418.5T889 1741q721 0 721-494 3-144-75-245.5T1307 872q165-36 246-139.5t81-259.5q0-249-187-371T883-20z"/><glyph glyph-name="four" unicode="4" horiz-adv-x="1742" d="M1393 1720V547h258V356h-258V0h-211v356H70v193l1110 1171h213zM305 547h877v911z"/><glyph glyph-name="five" unicode="5" horiz-adv-x="1783" d="M981 1153q199 0 351-63t241.5-193 89.5-313q0-302-192.5-453T918-20q-231 0-401 57.5t-267.5 179T152 514v21h217v-21q0-95 46.5-164.5t127-107 171.5-54T911 172q119 0 213.5 21.5t168.5 68 113.5 126T1446 575q0 198-129 296t-369 98q-383 0-571-252H168l68 1003h1347v-190H428l-47-590q210 213 600 213z"/><glyph glyph-name="six" unicode="6" horiz-adv-x="1812" d="M915-20q-388 0-571.5 163.5T160 641v311q0 375 196.5 582T942 1741q165 0 294-37.5t210.5-105.5 124.5-157.5 47-197.5v-20h-215l-2 20q-7 149-126 227t-327 78q-268 0-420.5-128.5T375 1034V922q174 243 600 243 328 0 514-151.5T1675 582q0-295-189-448.5T915-20zM375 592q0-218 132-319t408-101q274 0 408.5 98.5T1458 571q0 215-130.5 308.5T938 973q-129 0-230-21.5T531 885 415 766t-40-174z"/><glyph glyph-name="seven" unicode="7" horiz-adv-x="1529" d="M25 1530v190h1445v-190q-145-79-262-176t-198-197.5T869 938t-95.5-228T717 472t-28-236-7-234V0H469v2q0 121 6 224.5T500 459t50.5 239T638 929t130.5 223 184 201 245.5 177H25z"/><glyph glyph-name="eight" unicode="8" horiz-adv-x="1794" d="M897-20q-378 0-568 129.5T139 481q0 167 98 279t267 153q-139 37-226.5 136T190 1286q0 217 184 336t527 119 523-119 180-336q0-138-87.5-237T1292 913q170-41 267.5-153.5T1657 479q0-240-190.5-369.5T897-20zM354 494q0-332 543-332 276 0 409.5 83T1440 496q0 171-137.5 245T897 815q-267 0-405-74.5T354 494zm54 780q0-96 63.5-158.5t170-89.5T897 999q150 0 256 26.5t169.5 89.5 63.5 161q0 283-489 283t-489-285z"/><glyph glyph-name="nine" unicode="9" horiz-adv-x="1812" d="M897 1741q388 0 572-164t184-498V768q0-375-196.5-581.5T870-20q-165 0-293.5 37.5t-210 105-124.5 157T195 477v21h215l2-21q7-149 125.5-227T864 172q268 0 421 129t153 385v113q-175-244-600-244-328 0-514.5 152T137 1139q0 295 189 448.5T897 1741zm-543-592q0-215 130-308t390-93q129 0 230.5 21.5t177 66 116 118.5 40.5 174q0 218-132.5 319T897 1548q-274 0-408.5-98.5T354 1149z"/><glyph glyph-name="colon" unicode=":" horiz-adv-x="628" d="M313 854q-60 0-100.5 39.5T172 995q0 65 40.5 105.5T313 1141q61 0 103.5-40.5T459 995q0-62-42.5-101.5T313 854zM172 121q0 65 40.5 105T313 266q62 0 104-40t42-105q0-62-42.5-101.5T313-20q-60 0-100.5 39.5T172 121z"/><glyph glyph-name="semicolon" unicode=";" horiz-adv-x="620" d="M311 856q-60 0-100.5 39.5T170 997q0 65 40.5 105.5T311 1143q61 0 103.5-40.5T457 997q0-62-42.5-101.5T311 856zM166 119q0 65 38.5 103T309 260q67 0 105.5-47T453 90q0-104-70.5-190T197-246v125q59 16 112 57t72 95q-38-51-98-51-49 0-83 36.5T166 119z"/><glyph glyph-name="less" unicode="&lt;" horiz-adv-x="1759" d="M113 903l1454 326v-99L291 862l1276-268v-98L113 821v82z"/><glyph glyph-name="equal" unicode="=" horiz-adv-x="1968" d="M143 1071h1680v-90H143v90zm0-418v90h1680v-90H143z"/><glyph glyph-name="greater" unicode="&gt;" horiz-adv-x="1759" d="M1647 821L193 496v98l1275 268-1275 268v99l1454-326v-82z"/><glyph glyph-name="question" unicode="?" horiz-adv-x="1390" d="M698 1741q117 0 213.5-18.5t163-52.5 115.5-78 77-99 41-111 13-118q0-97-32.5-174T1204 964t-114.5-91-125-81T850 709t-84.5-110T733 449v-21H539v21q0 112 31.5 199T652 789t110 97 120.5 79 110.5 75 81.5 95.5T1106 1266q0 136-100 216.5T700 1563q-100 0-176-22t-123-59-76-91-40-111.5-11-128.5v-21H61v21q0 94 18 176t63.5 159.5T259 1619t183 88.5 256 33.5zM494 121q0 65 40.5 105T635 266q61 0 103-40t42-105q0-62-42-101.5T635-20q-60 0-100.5 39.5T494 121z"/><glyph glyph-name="at" unicode="@" horiz-adv-x="2031" d="M1051-223q-274 0-485.5 107t-329 305T119 647q0 205 63.5 373T361 1302.5t279 177 361 62.5q421 0 659-223t238-627q0-255-87.5-393.5T1563 160q-94 0-163 50.5T1313 358q-55-99-148-150.5T950 156q-211 0-343 137T475 664t132 370.5T948 1171q119 0 211.5-49.5T1307 977v172h147V424q0-176 127-176 104 0 159.5 120t55.5 326q0 362-209 557t-586 195q-357 0-568.5-214.5T221 645q0-231 103.5-407T614-32.5t428-94.5q152 0 315.5 25.5T1608-39v-98q-92-37-248-61.5T1051-223zM621 664q0-179 94.5-277T977 289q160 0 245 95.5t85 279.5q0 183-87 278.5T975 1038q-166 0-260-98t-94-276z"/><glyph glyph-name="A" unicode="A" horiz-adv-x="1775" d="M29 0l725 1720h268L1747 0h-231l-140 336H399L260 0H29zm448 528h819l-393 955-16 41-17-41z"/><glyph glyph-name="B" unicode="B" horiz-adv-x="1904" d="M223 0v1720h975q118 0 208-23.5t157.5-73.5 103-134.5T1702 1288q0-301-221-383 128-34 209.5-145t81.5-277q0-242-142.5-362.5T1229 0H223zm215 193h772q166 0 253 73t87 234q0 82-24 139.5t-71.5 89.5-108.5 45.5-144 13.5H438V193zm0 790h717q50 0 91 5.5t86 24 76 49 51 84 20 126.5q0 66-16.5 113.5t-43 75-69.5 43-85 20-100 4.5H438V983z"/><glyph glyph-name="C" unicode="C" horiz-adv-x="1976" d="M1010-20q-212 0-382.5 69.5t-279 190-166 279.5T125 862q0 145 36 276t109 241.5 177.5 191 249 125.5 315.5 45q151 0 283-36t230-100.5 171-152 113-191 49-217.5l2-38h-226l-2 38q-8 104-52.5 193.5t-120.5 158-191 107.5-254 39q-167 0-296.5-53T508 1342.5 387 1127t-41-265q0-147 41-270t121-216 209-145.5 295-52.5q143 0 258.5 39.5t191.5 109 119 160 51 195.5l2 37h226l-2-37q-11-144-72.5-270.5t-166.5-223T1357 36t-347-56z"/><glyph glyph-name="D" unicode="D" horiz-adv-x="1951" d="M223 0v1720h801q183 0 327-50t249.5-152.5 162-269T1819 860q0-221-56.5-387T1600 204 1350 50.5 1024 0H223zm215 193h584q297 0 435 163.5T1595 860t-138 504-435 164H438V193z"/><glyph glyph-name="E" unicode="E" horiz-adv-x="1689" d="M223 0v1720h1323v-192H438V956h1049V764H438V193h1108V0H223z"/><glyph glyph-name="F" unicode="F" horiz-adv-x="1660" d="M223 0v1720h1350v-192H438V889h1065V694H438V0H223z"/><glyph glyph-name="G" unicode="G" horiz-adv-x="2019" d="M983-20q-204 0-368.5 69.5t-270 190T183 519t-56 343q0 145 35 275.5t107.5 241 175.5 191 247.5 126T1008 1741q146 0 275.5-35t227.5-97 172-146 116-183.5 52-208.5l2-22h-225l-2 22q-19 214-184 342.5T1014 1542q-171 0-301-53t-208.5-147T387 1127t-39-265q0-149 39.5-272.5t116.5-216 200-144T985 178q272 0 445 138t194 384H838v181h1015V0h-153l-25 354q-93-172-268-273T983-20z"/><glyph glyph-name="H" unicode="H" horiz-adv-x="1966" d="M1528 0v764H438V0H223v1720h215V956h1090v764h215V0h-215z"/><glyph glyph-name="I" unicode="I" horiz-adv-x="1495" d="M104 0v193h537v1335H104v192h1289v-192H856V193h537V0H104z"/><glyph glyph-name="J" unicode="J" horiz-adv-x="1705" d="M784-20q-377 0-546.5 178.5T68 709h219q0-283 115-409t382-126q260 0 381 122t121 390v1034h215V686q0-355-172-530.5T784-20z"/><glyph glyph-name="K" unicode="K" horiz-adv-x="1777" d="M1466 0L594 762H438V0H223v1720h215V958h156l872 762h297L762 860 1763 0h-297z"/><glyph glyph-name="L" unicode="L" horiz-adv-x="1574" d="M223 0v1720h215V193h1096V0H223z"/><glyph glyph-name="M" unicode="M" horiz-adv-x="2318" d="M223 0v1720h236l700-1415 701 1415h235V0h-209v1346L1219 0h-119L432 1346V0H223z"/><glyph glyph-name="N" unicode="N" horiz-adv-x="2007" d="M223 0v1720h215L1573 291v1429h211V0h-213L436 1430V0H223z"/><glyph glyph-name="O" unicode="O" horiz-adv-x="2015" d="M1008-20q-169 0-312.5 45.5T448 152.5t-177.5 192-109.5 242T125 862q0 180 58.5 338T351 1479t278.5 191.5T1008 1741q210 0 379.5-70.5t278-191.5 166.5-279 58-338q0-144-36-275.5t-109.5-242-177.5-192-247-127T1008-20zM346 862q0-145 41.5-268T509 377.5 717 231t291-53q164 0 292 53t207.5 146.5T1628 594t41 268q0 142-41 264t-120.5 215.5-207.5 147-292 53.5q-163 0-291-53.5t-208-147T387.5 1126 346 862z"/><glyph glyph-name="P" unicode="P" horiz-adv-x="1863" d="M223 0v1720h936q299 0 459-147.5t160-427.5q0-283-158.5-431.5T1159 565H438V0H223zm215 758h703q214 0 313.5 94t99.5 293q0 197-99.5 290t-313.5 93H438V758z"/><glyph glyph-name="Q" unicode="Q" horiz-adv-x="2015" d="M1008 178q164 0 292 53t207.5 146.5T1628 594t41 268q0 142-41 264t-120.5 215.5-207.5 147-292 53.5q-163 0-291-53.5t-208-147T387.5 1126 346 862q0-145 41.5-268T509 377.5 717 231t291-53zM125 862q0 180 58.5 338T351 1479t278.5 191.5T1008 1741q210 0 379.5-70.5t278-191.5 166.5-279 58-338q0-168-50-317t-143.5-267-240-195.5T1128-14q284-28 541-131v-181q-250 95-438 131.5T788-150V0h5Q581 43 428 169.5t-228 304T125 862z"/><glyph glyph-name="R" unicode="R" horiz-adv-x="1929" d="M1554 0q-24 28-24 154v231q0 89-30 150.5t-86 93.5-120.5 45.5T1145 688H438V0H223v1720h928q295 0 446.5-128t151.5-382q0-177-77-284t-218-140q138-32 214.5-134t76.5-255V154q0-126 24-154h-215zM438 881h709q48 0 83.5 2t77.5 10 71.5 21.5 59 38 47.5 59 29 84.5 11 114q0 91-26.5 154t-81 98.5T1292 1513t-172 15H438V881z"/><glyph glyph-name="S" unicode="S" horiz-adv-x="1779" d="M930-20q-413 0-618.5 157.5T106 598v20h222v-20q0-219 147.5-322.5T936 172q257 0 379.5 72.5T1438 471q0 60-18 105t-47.5 74.5-83 52-107.5 36-138 27.5l-387 72q-83 15-150 36t-130.5 56-106 80.5T202 1123t-26 149q0 228 183 348.5T874 1741q360 0 549-142t189-403v-20h-221v20q0 175-125 263.5T877 1548q-234 0-357-68.5T397 1278q0-62 28.5-108.5t83-76.5 114.5-48 143-33l399-72q72-12 130.5-28t117-40.5 101.5-60 76.5-81.5 51-109 17.5-140q0-259-178-380T930-20z"/><glyph glyph-name="T" unicode="T" horiz-adv-x="1646" d="M715 0v1528H43v192h1561v-192H930V0H715z"/><glyph glyph-name="U" unicode="U" horiz-adv-x="1951" d="M977-20q-281 0-449.5 73.5T282 282t-77 412v1026h215V694q0-155 34.5-258T563 276t171.5-79.5T977 174q113 0 196 13.5t153.5 48.5 113.5 93.5 66.5 149T1530 694v1026h215V694q0-196-43-331t-137.5-221T1327 18 977-20z"/><glyph glyph-name="V" unicode="V" horiz-adv-x="1775" d="M756 0L29 1720h231L874 238l17-39 14 39 613 1482h229L1024 0H756z"/><glyph glyph-name="W" unicode="W" horiz-adv-x="2713" d="M610 0L53 1720h223L745 242l476 1478h270l477-1470 4-10 2 8 463 1472h223L2105 0h-266l-477 1473-4 14-4-14L874 0H610z"/><glyph glyph-name="X" unicode="X" horiz-adv-x="1759" d="M29 0l727 860-713 860h270l570-723 565 723h274l-716-860L1726 0h-272L877 723 301 0H29z"/><glyph glyph-name="Y" unicode="Y" horiz-adv-x="1773" d="M780 0v602L14 1720h254l619-925 618 925h254L993 602V0H780z"/><glyph glyph-name="Z" unicode="Z" horiz-adv-x="1667" d="M104 0v195l1180 1333H104v192h1459v-194L383 193h1180V0H104z"/><glyph glyph-name="bracketleft" unicode="[" horiz-adv-x="727" d="M682 1796v-90H309V-225h373v-90H207v2111h475z"/><glyph glyph-name="backslash" unicode="\" horiz-adv-x="1492" d="M35 1720h117L1456 0h-117z"/><glyph glyph-name="bracketright" unicode="]" horiz-adv-x="727" d="M45-315v90h373v1931H45v90h475V-315H45z"/><glyph glyph-name="asciicircum" unicode="^" horiz-adv-x="1202" d="M979 1106l-377 559-377-559H115l413 614h148l414-614H979z"/><glyph glyph-name="underscore" unicode="_" horiz-adv-x="1781" d="M0-160h1782v-86H0v86z"/><glyph glyph-name="grave" unicode="`" horiz-adv-x="1525" d="M1321 1532l-21-80-1095 152 20 79z"/><glyph glyph-name="a" unicode="a" horiz-adv-x="1581" d="M1202 0v262q-87-141-250.5-211.5T588-20Q486-20 403.5-.5T256 60 155 172t-36 168q0 71 24.5 129t66.5 99 105 72.5 132 51T602 725l203 35 78 13.5 70.5 13.5 68.5 16.5 57 19 50.5 24.5 35.5 30 25.5 38 7.5 46q0 88-91 150.5T821 1174q-222 0-333-83.5T377 852v-29H168v29q0 109 38.5 198.5t115.5 158 202.5 106T815 1352q161 0 277.5-32.5t183-92.5 97-135 30.5-170V0h-201zM326 352q0-109 75.5-157T631 147q141 0 262.5 45T1100 332.5t98 226.5v201q-32-62-124.5-95T821 604l-176-31q-164-27-241.5-75T326 352z"/><glyph glyph-name="b" unicode="b" horiz-adv-x="1671" d="M195 0v1720h204v-614q25 43 65 82.5t100.5 78 148 62T901 1352q151 0 275.5-51.5t208.5-142 130-216 46-272.5v-8q0-306-178.5-494T905-20Q804-20 717 3T569 65t-101 77-69 81V0H195zm206 657q0-227 125-361t351-134q229 0 351 138.5T1350 662v8q0 220-123.5 359.5T874 1169q-223 0-348-134T401 674v-17z"/><glyph glyph-name="c" unicode="c" horiz-adv-x="1572" d="M1253 817q-13 152-128 252t-318 100q-243 0-363-132T324 666v-4q0-236 120-368t361-132q108 0 192 28.5t136.5 78.5 82 111.5T1253 514l7 57h208l-6-57q-12-111-58.5-206t-126-169T1076 22.5 803-20q-335 0-512.5 182T113 664v6q0 317 177.5 499.5T803 1352q150 0 272-42t203.5-115 129-169.5T1464 817l4-59h-208z"/><glyph glyph-name="d" unicode="d" horiz-adv-x="1671" d="M1272 1720h205V0h-205v223q-25-43-65.5-82.5T1106 63 959 2.5 772-20q-201 0-351.5 88.5T191.5 311 113 662v8q0 202 79.5 356.5t228.5 240 347 85.5q100 0 186.5-23t147-61.5T1202 1191t70-81v610zM324 662q0-143 51.5-254.5T536 229t263-67q223 0 348 134t125 361v17q0 227-124.5 361T797 1169q-154 0-262.5-66T375 926t-51-256v-8z"/><glyph glyph-name="e" unicode="e" horiz-adv-x="1583" d="M113 664v8q0 316 178.5 498T809 1352q308 0 484.5-169T1470 690v-63H326q9-220 130-342.5T809 162q184 0 289 74.5T1223 424l4 14h225l-2-14q-31-196-197-320T807-20q-338 0-516 182T113 664zm221 118h921l-2 4q-13 190-131 286.5T803 1169q-208 0-325-100.5T334 782z"/><glyph glyph-name="f" unicode="f" horiz-adv-x="1214" d="M25 1331h440v92q0 50 4.5 86.5t17 75.5 37.5 65 64.5 48 100 32.5T829 1741q182 0 363-21v-161q-70 12-262 12-88 0-141-9t-78.5-31-33-47.5-7.5-70.5v-123q42 29 140.5 35t381.5 6v-180H670V0H465v1151H25v180z"/><glyph glyph-name="g" unicode="g" horiz-adv-x="1669" d="M1272 63v160q-25-43-65.5-82.5T1106 63 959 2.5 772-20q-201 0-351.5 88.5T191.5 311 113 662v8q0 202 79.5 356.5t228.5 240 347 85.5q100 0 186.5-23t147-61.5T1202 1191t70-81v221h205V35q0-137-24-232.5t-79.5-163-148-99.5T999-492H186v181h793q89 0 145.5 19t89.5 65.5 45.5 114T1272 63zM324 662q0-143 51.5-254.5T536 229t263-67q223 0 348 134t125 361v17q0 227-124.5 361T797 1169q-154 0-262.5-66T375 926t-51-256v-8z"/><glyph glyph-name="h" unicode="h" d="M399 1720v-643q34 57 80 104.5t108 87 144.5 61.5 177.5 22q254 0 401.5-152T1458 778V0h-207v754q0 206-102 311.5T854 1171q-110 0-194.5-33T527 1057t-78.5-111.5-40-115T399 731V0H195v1720h204z"/><glyph glyph-name="i" unicode="i" horiz-adv-x="593" d="M195 1331h204V0H195v1331zm-39 287q0 55 36.5 89t102.5 34 103.5-34 37.5-89q0-51-38-85t-103-34-102 33.5-37 85.5z"/><glyph glyph-name="j" unicode="j" horiz-adv-x="593" d="M195-12v1343h204V-47q0-132-24-219t-77.5-136.5T170-472t-184-20h-244v181h199q83 0 129.5 10.5t76 45 39 89.5T195-12zm-39 1630q0 55 36.5 89t102.5 34 103.5-34 37.5-89q0-51-38-85t-103-34-102 33.5-37 85.5z"/><glyph glyph-name="k" unicode="k" horiz-adv-x="1488" d="M195 1720h204V756h109l694 575h279L659 666 1481 0h-279L506 578H399V0H195v1720z"/><glyph glyph-name="l" unicode="l" horiz-adv-x="593" d="M195 1720h204V0H195v1720z"/><glyph glyph-name="m" unicode="m" horiz-adv-x="2443" d="M2062 776q0 395-342 395-95 0-167.5-30.5t-112.5-74-65.5-101.5-33.5-104.5-8-90.5V0h-205v776q0 395-344 395-93 0-165.5-30.5t-112.5-74T440.5 965 407 861t-8-89V0H195v1331h204v-198q130 219 428 219 180 0 291.5-73.5T1280 1083q150 269 475 269 135 0 237-44t160.5-120.5 86.5-168 28-198.5V0h-205v776z"/><glyph glyph-name="n" unicode="n" d="M399 1331v-254q34 57 80 104.5t108 87 144.5 61.5 177.5 22q254 0 401.5-152T1458 778V0h-207v754q0 206-102 311.5T854 1171q-110 0-194.5-33T527 1057t-78.5-111.5-40-115T399 731V0H195v1331h204z"/><glyph glyph-name="o" unicode="o" horiz-adv-x="1589" d="M795-20q-331 0-506.5 182.5T113 666q0 320 175.5 503T795 1352q332 0 507-183t175-503q0-321-175-503.5T795-20zM324 666q0-240 116-372t355-132 355 132 116 372-116 371.5T795 1169t-355-131.5T324 666z"/><glyph glyph-name="p" unicode="p" horiz-adv-x="1671" d="M399 1331v-225q25 43 65 82.5t100.5 78 148 62T901 1352q151 0 275.5-51.5t208.5-142 130-216 46-272.5v-8q0-306-178.5-494T905-20Q804-20 717 3T569 65t-101 77-69 81v-715H195v1823h204zm2-674q0-227 125-361t351-134q229 0 351 138.5T1350 662v8q0 220-123.5 359.5T874 1169q-223 0-348-134T401 674v-17z"/><glyph glyph-name="q" unicode="q" horiz-adv-x="1669" d="M1272-492v715q-25-43-65.5-82.5T1106 63 959 2.5 772-20q-201 0-351.5 88.5T191.5 311 113 662v8q0 202 79.5 356.5t228.5 240 347 85.5q100 0 186.5-23t147-61.5T1202 1191t70-81v221h205V-492h-205zM324 662q0-143 51.5-254.5T536 229t263-67q223 0 348 134t125 361v17q0 227-124.5 361T797 1169q-154 0-262.5-66T375 926t-51-256v-8z"/><glyph glyph-name="r" unicode="r" horiz-adv-x="1368" d="M401 1331v-264q50 115 172 200t289 85q212 0 327.5-123T1305 866V752h-211v110q0 307-283 307-88 0-160-29t-117.5-74T457 963.5 413.5 853 401 752V0H195v1331h206z"/><glyph glyph-name="s" unicode="s" horiz-adv-x="1505" d="M995 750q115-20 195.5-55t125-83 64-103 19.5-124q0-94-32-166.5t-102-127-188-83T795-20Q639-20 519 3T319.5 67.5 189.5 171t-72 136.5T96 475v19h211v-19q0-170 116.5-243.5T791 158q397 0 397 213 0 82-66 134t-215 79l-358 59q-112 17-191 49t-123 77-63.5 96T152 979q0 168 141.5 270.5T723 1352q176 0 302.5-34.5t198-98 104-142.5 32.5-178v-18h-211v18q0 147-106 211t-318 64q-102 0-182-19t-130.5-62T362 989q0-65 54-104.5T602 819z"/><glyph glyph-name="t" unicode="t" horiz-adv-x="1159" d="M1061 1331v-180H602V451q0-57 2-93.5t9-70 19-51.5 33-32 49.5-19 69.5-5h277V0H741q-86 0-147 18t-99 49.5-59.5 85-29 114T399 414v737H23v180h143q151 0 212.5 95.5T438 1720h203q0-163-42-265.5T485 1331h576z"/><glyph glyph-name="u" unicode="u" d="M1233 0v254q-72-121-199.5-197.5T723-20q-254 0-401.5 152T174 553v778h207V578q0-206 102-312t295-106q110 0 194.5 33t132.5 81 78.5 111.5 40 115 9.5 99.5v731h205V0h-205z"/><glyph glyph-name="v" unicode="v" horiz-adv-x="1470" d="M27 1331h217L735 154l492 1177h215L877 0H594z"/><glyph glyph-name="w" unicode="w" horiz-adv-x="2236" d="M51 1331h209L608 178l357 1153h307l358-1153 346 1153h209L1767 0h-272l-377 1178L741 0H469z"/><glyph glyph-name="x" unicode="x" horiz-adv-x="1466" d="M2 0l604 680-555 651h268l420-508 420 508h256L858 678 1464 0h-268L729 537 258 0H2z"/><glyph glyph-name="y" unicode="y" horiz-adv-x="1632" d="M1233 33v221q-72-121-199.5-197.5T723-20q-254 0-401.5 152T174 553v778h207V578q0-206 102-312t295-106q110 0 194.5 33t132.5 81 78.5 111.5 40 115 9.5 99.5v731h207V23q0-264-111-389.5T991-492H201v181h770q144 0 203 75.5T1233 33z"/><glyph glyph-name="z" unicode="z" horiz-adv-x="1433" d="M102 1331h1229v-178L352 178h994V0H86v178l981 975H102v178z"/><glyph glyph-name="braceleft" unicode="{" horiz-adv-x="675" d="M121 854q80 0 80 186v390q0 188 80.5 277t226.5 89h121v-96H510q-99 0-153-69t-54-193v-391q0-114-18.5-167.5T213 791v-97q53-35 71.5-88.5T303 438V47q0-124 54-193t153-69h119v-96H508q-146 0-226.5 89T201 55v389q0 187-80 187v223z"/><glyph glyph-name="bar" unicode="|" horiz-adv-x="555" d="M225-20v1740h103V-20H225z"/><glyph glyph-name="braceright" unicode="}" horiz-adv-x="675" d="M555 631q-80 0-80-187V55q0-188-80.5-277T168-311H47v96h119q99 0 153 69t54 193v391q0 114 18.5 167.5T463 694v97q-53 35-71.5 88.5T373 1047v391q0 124-54 193t-153 69H47v96h121q146 0 226.5-89t80.5-277v-390q0-186 80-186V631z"/><glyph glyph-name="asciitilde" unicode="~" horiz-adv-x="2035" d="M162 696q0 95 37 165t100.5 108.5T435 1026t155 18q102 0 198-27.5T960.5 950t151.5-78 164.5-66.5T1458 778q144 0 231 63.5t87 182.5h106q0-95-37-165t-100.5-108.5T1609 694t-155-18q-102 0-198 27.5T1083.5 770 932 848t-164.5 66.5T586 942q-144 0-231-63.5T268 696H162z"/><glyph glyph-name="uni00A0" horiz-adv-x="698"/><glyph glyph-name="exclamdown" unicode="¡" horiz-adv-x="595" d="M399-389H195l12 1208h182zM156 1210q0 62 42 102t103 40q59 0 100-40t41-102q0-65-40.5-105T301 1065q-61 0-103 40t-42 105z"/><glyph glyph-name="cent" unicode="¢" horiz-adv-x="1640" d="M766-143v319q-304 18-464.5 198.5T141 858v6q0 300 160.5 481T766 1544v320h111v-318q140-7 254-51t189.5-116 119.5-165.5 53-201.5l6-60h-211l-6 60q-16 146-118.5 243.5T877 1362V358q189 10 289.5 108T1282 709l6 57h211l-6-57q-11-107-54.5-199.5T1320 344t-188.5-118T877 174v-317H766zM354 856q0-218 102.5-348T766 358v1002q-207-18-309.5-148.5T354 860v-4z"/><glyph glyph-name="sterling" unicode="£" horiz-adv-x="1681" d="M139 152q217 178 217 417 0 41-6 82H139v105h183q-6 17-49 119.5t-60.5 178T195 1223q0 241 175 379.5T874 1741q338 0 509-156t171-442v-31h-213v31q0 212-113 317t-360 105q-458 0-458-361 0-82 22-156t59-157.5T543 756h725V651H565q6-38 6-80 0-218-182-397h1165V0H139v152z"/><glyph glyph-name="currency" unicode="¤" horiz-adv-x="1280" d="M639 418q-161 0-268 61L225 322l-71 59 141 158q-98 106-98 280 0 180 100 283l-143 155 71 60 146-158q109 62 268 62t268-62l146 158 71-60-141-157q98-106 98-281 0-174-98-280l141-158-71-59-146 157q-107-61-268-61zM299 819q0-313 340-313t340 313q0 314-340 314T299 819z"/><glyph glyph-name="yen" unicode="¥" horiz-adv-x="1820" d="M244 571v82h526L39 1720h254l618-925 619 925h254L1053 653h526v-82h-561V469h561v-82h-561V0H805v387H244v82h561v102H244z"/><glyph glyph-name="brokenbar" unicode="¦" horiz-adv-x="555" d="M225 1042v678h103v-678H225zm0-1062v677h103V-20H225z"/><glyph glyph-name="section" unicode="§" horiz-adv-x="1603" d="M836-23Q680-23 567-2.5t-183 55T270.5 144t-62 117.5T182 408h103q7-74 23-124.5t52-96.5 94.5-72 152-41T831 59q510 0 510 230 0 62-35 109t-100 57L348 592q-207 34-207 221 0 78 38 129t112 68q-129 65-129 217 0 156 146.5 235.5T764 1542q158 0 271.5-20t184.5-54 114.5-90.5 62-117T1423 1114h-102q-7 74-23.5 124.5T1245 1334t-96 71-155 40.5-228 14.5q-140 0-239.5-16.5t-156-47.5-81.5-70.5-25-90.5q0-62 33-109.5t102-58.5l858-139q207-35 207-217 0-164-149-201 129-63 129-215 0-151-147-234.5T836-23zM248 821q0-63 31.5-99T383 674l725-115q40-6 74-6.5t58 3.5 43.5 13 31.5 18.5 21 23 13 23.5 6 23.5 2.5 19 .5 13.5q0 68-30 106.5T1223 846L498 961q-250 39-250-140z"/><glyph glyph-name="dieresis" unicode="¨" horiz-adv-x="1173" d="M856 1462q-52 0-87.5 32t-35.5 85q0 57 35 89t88 32q50 0 86.5-32.5T979 1579q0-52-36.5-84.5T856 1462zm-659 117q0 57 34.5 89t87.5 32q50 0 86.5-32.5T442 1579q0-52-36.5-84.5T319 1462q-52 0-87 32t-35 85z"/><glyph glyph-name="copyright" unicode="©" horiz-adv-x="2015" d="M1008-20q-168 0-309 45.5t-242 127T285.5 345 181 586.5 147 862q0 143 34 273t105 241 172 192 242 127 308 46 308-46 242-127 171.5-192 104.5-241 34-273q0-145-34-275.5T1729.5 345t-171-192.5-241.5-127T1008-20zM262 862q0-171 48.5-312.5t141-245 235-161T1008 86t321 57.5 234.5 161 141 245T1753 862q0 167-48.5 308T1564 1414.5 1329.5 1576t-321.5 58-321.5-58-235-161.5-141-244.5T262 862zm219 0q0 121 34 225t99.5 184.5T786 1398t240 46q122 0 217.5-38.5t155-106 92.5-152 39-182.5h-154q-22 340-346 340-105 0-182.5-33.5t-123-94.5-67.5-139.5T635 862q0-98 22-177t67-140.5 122-95 180-33.5q325 0 348 340h154q-5-75-25-143t-59.5-130.5T1348 375t-138.5-72-183.5-27q-108 0-198 30t-153.5 83T567 515.5t-65 161T481 862z"/><glyph glyph-name="ordfeminine" unicode="ª" horiz-adv-x="1081" d="M774 930v151q-55-82-151-122.5T410 918q-131 0-207 52.5T127 1135q0 101 77 154t216 77l121 20q136 24 176 44 52 27 53 73 0 48-52.5 82.5T555 1620q-256 0-256-180v-19H158v19q0 138 99.5 219.5T551 1741q358 0 358-264V930H774zm-506 213q0-60 42-86.5t130-26.5q123 0 219.5 65T770 1274v100q-20-35-73-55t-146-35l-105-20q-93-14-135.5-40.5T268 1143z"/><glyph glyph-name="guillemotleft" unicode="«" horiz-adv-x="1282" d="M670 276L119 635v82l551 358V926L268 676l402-250V276zM543 635v82l551 358V926L692 676l402-250V276z"/><glyph glyph-name="logicalnot" unicode="¬" horiz-adv-x="2060" d="M1769 670v284H180v93h1692V670h-103z"/><glyph glyph-name="registered" unicode="®" horiz-adv-x="1271" d="M637 815q-80 0-146.5 24T379 903t-76 93.5-45 111-14 117.5q0 76 23.5 146.5t69 130.5 123.5 96 177 36 177-36 123.5-96 69-130.5T1030 1225q0-60-14-117.5t-45-111-76-93.5-111.5-64T637 815zm-508 410q0-73 19-145t59.5-139.5 99-118.5 144-82T637 709t186.5 31 144 82 99 118.5T1126 1080t19 145-19 145-59.5 139.5-99 118.5-144 82-186.5 31-186.5-31-144-82-99-118.5T148 1370t-19-145zm287-279v563h225q114 0 169.5-33.5T866 1350q0-112-110-148 57-15 82.5-49t25.5-96v-51q0-50 8-60H743q-10 13-10 60v51q0 50-20.5 68t-81.5 18h-84V946H416zm131 316h94q58 0 76 14t18 51q0 38-19.5 50t-74.5 12h-94v-127z"/><glyph glyph-name="macron" unicode="¯" horiz-adv-x="1525" d="M205 1528v82h1116v-82H205z"/><glyph glyph-name="degree" unicode="°" horiz-adv-x="901" d="M451 1219q-103 0-156 59t-53 156 53 156 156 59 155.5-59 52.5-156-52.5-156-155.5-59zm-312 215q0-60 18.5-114t55.5-98 98.5-70 139.5-26 139.5 26 98 70 55 98 18.5 114q0 82-31.5 149.5T627 1696t-176 45q-78 0-139.5-25.5T213 1646t-55.5-98-18.5-114z"/><glyph glyph-name="plusminus" unicode="±" horiz-adv-x="1964" d="M1034 1282V907h789v-90h-789V528h789v-90H143v90h789v289H143v90h789v375h102z"/><glyph glyph-name="uni00B2" unicode="²" horiz-adv-x="954" d="M84 854q0 62 12.5 110t44 93 92 74 148.5 40l143 19q105 14 153 43t48 92v2q0 66-56.5 97.5T494 1456q-137 0-194.5-45T242 1268v-2H94v2q0 157 95 238t300 81q189 0 286-66.5t97-197.5q0-113-70.5-173.5T598 1069l-152-20q-75-11-119.5-27T261 978t-26.5-55.5T229 846h643V717H84v137z"/><glyph glyph-name="uni00B3" unicode="³" horiz-adv-x="935" d="M463 707q-204 0-298.5 69T66 999h147q4-92 63-128.5T461 834q134 0 190 32.5T707 967q0 72-58 99.5T469 1094H336v120h133q114 0 169.5 28t55.5 93q0 125-231 125-114 0-170.5-34.5T233 1305H86q7 148 101.5 215t279.5 67q373 0 373-241 2-70-38-124.5T690 1153q78-15 121-67.5T854 958q0-127-96-189t-295-62z"/><glyph glyph-name="acute" unicode="´" horiz-adv-x="1400" d="M223 1493l-18 80 973 151 18-79z"/><glyph glyph-name="paragraph" unicode="¶" horiz-adv-x="1150" d="M823 1720h103V0H823v1720zM59 1346q0 211 110 292.5t368 81.5h102V0H537v973q-258 0-368 82T59 1346z"/><glyph glyph-name="periodcentered" unicode="·" horiz-adv-x="606" d="M301 551q-60 0-100.5 39.5T160 692q0 65 40.5 105.5T301 838q61 0 103-40.5T446 692q0-62-42-101.5T301 551z"/><glyph glyph-name="cedilla" unicode="¸" horiz-adv-x="784" d="M207-336q142 0 200 14.5t58 61.5q0 49-57 58.5T244-209L293 0h96l-33-129q224 27 224-127 0-42-19.5-73T509-378t-82.5-28.5-101.5-14-120-3.5z"/><glyph glyph-name="uni00B9" unicode="¹" horiz-adv-x="743" d="M82 846h248v579q-106-71-250-71v135q78 0 141.5 18t116.5 70h135V846h248V717H82v129z"/><glyph glyph-name="ordmasculine" unicode="º" horiz-adv-x="1060" d="M530 918q-201 0-307 110t-106 301 106 301.5T530 1741t307.5-110.5T944 1329q0-190-106.5-300.5T530 918zm-270 411q0-137 65.5-213t204.5-76q138 0 204.5 76.5T801 1329t-66.5 212.5T530 1618q-139 0-204.5-76T260 1329z"/><glyph glyph-name="guillemotright" unicode="»" horiz-adv-x="1271" d="M602 276v150l404 250-404 250v149l551-358v-82zm-414 0v150l404 250-404 250v149l551-358v-82z"/><glyph glyph-name="onequarter" unicode="¼" horiz-adv-x="2232" d="M113 989h247v580q-107-72-249-72v135q79 0 142 18t116 70h135V989h248V860H113v129zM375 0l1304 1720h117L492 0H375zm987 162v131l543 567h145V293h125V162h-125V0h-145v162h-543zm156 131h387v395z"/><glyph glyph-name="onehalf" unicode="½" horiz-adv-x="2336" d="M113 989h247v580q-107-72-249-72v135q79 0 142 18t116 70h135V989h248V860H113v129zM375 0l1304 1720h117L492 0H375zm1087 0v137q0 62 12.5 110.5t44 93 92 74T1759 455l144 18q105 14 152.5 43t47.5 92v2q0 66-56.5 97.5T1872 739q-137 0-194.5-45T1620 551v-2h-147v2q0 157 95 238t300 81q188 0 285.5-66.5T2251 606q0-214-275-254l-151-20q-75-11-119.5-27t-65.5-44-26.5-55.5-5.5-76.5h643V0h-789z"/><glyph glyph-name="threequarters" unicode="¾" horiz-adv-x="2392" d="M477 850q-203 0-298 69t-99 224h147q4-92 63-129t185-37q134 0 190 32.5t56 100.5q0 72-58 99.5T483 1237H350v121h133q114 0 170 28t56 93q0 125-232 125-114 0-170-35t-59-121H100q7 148 101.5 215.5T481 1731q373 0 373-242 2-71-37.5-125T705 1296q78-15 120.5-67t42.5-127q0-127-96-189.5T477 850zM530 0l1305 1720h117L647 0H530zm988 162v131l542 567h146V293h125V162h-125V0h-146v162h-542zm155 131h387v395z"/><glyph glyph-name="questiondown" unicode="¿" horiz-adv-x="1374" d="M684-410q-140 0-249.5 27T256-311 142-203 79-73.5 61 68q0 97 32.5 174T178 368t114.5 91 125 81T532 623t84.5 110T649 883v20h195v-20q0-112-31.5-199T731 543t-110.5-97-121-79T389 292t-81.5-95.5T276 66q0-136 100-216.5T682-231q124 0 210.5 32t132 91.5 64.5 129 19 158.5v21h213v-21q0-94-18-176t-63.5-159.5T1123-288t-183-88.5T684-410zm-82 1620q0 62 42.5 102t103.5 40q59 0 100-40t41-102q0-65-40.5-105T748 1065q-62 0-104 40t-42 105z"/><glyph glyph-name="Agrave" unicode="À" horiz-adv-x="1775" d="M29 0l725 1720h268L1747 0h-231l-140 336H399L260 0H29zm301 1993l20 80 1096-152-21-80zM477 528h819l-393 955-16 41-17-41z"/><glyph glyph-name="Aacute" unicode="Á" horiz-adv-x="1775" d="M29 0l725 1720h268L1747 0h-231l-140 336H399L260 0H29zm362 1962l973 152 18-80-972-152zm86-1434h819l-393 955-16 41-17-41z"/><glyph glyph-name="Acircumflex" unicode="Â" horiz-adv-x="1775" d="M29 0l725 1720h268L1747 0h-231l-140 336H399L260 0H29zm448 528h819l-393 955-16 41-17-41zm12 1336l330 270h144l323-270h-166l-229 196-236-196H489z"/><glyph glyph-name="Atilde" unicode="Ã" horiz-adv-x="1775" d="M29 0l725 1720h268L1747 0h-231l-140 336H399L260 0H29zm372 1847q0 102 69 169t200 67q61 0 110-16.5t82-39.5 64.5-46 75-39.5 96.5-16.5q85 0 129.5 39t44.5 104h102q0-106-71-170.5t-207-64.5q-66 0-118 16.5t-85.5 39.5-64.5 46-70.5 39.5T670 1991q-81 0-123.5-42T504 1847H401zm76-1319h819l-393 955-16 41-17-41z"/><glyph glyph-name="Adieresis" unicode="Ä" horiz-adv-x="1775" d="M29 0l725 1720h268L1747 0h-231l-140 336H399L260 0H29zm448 528h819l-393 955-16 41-17-41zm21 1440q0 57 35 89t88 32q50 0 86-32.5t36-88.5q0-52-36.5-84.5T621 1851q-52 0-87.5 32t-35.5 85zm536 0q0 57 35 89t88 32q50 0 86.5-32.5t36.5-88.5q0-52-36.5-84.5T1157 1851q-52 0-87.5 32t-35.5 85z"/><glyph glyph-name="Aring" unicode="Å" horiz-adv-x="1775" d="M29 0l725 1720h268L1747 0h-231l-140 336H399L260 0H29zm448 528h819l-393 955-16 41-17-41zm246 1450q0 71 49.5 118.5T889 2144t116.5-47.5T1055 1978t-49.5-118.5T889 1812t-116.5 47.5T723 1978zm86 0q0-37 21-58.5t59-21.5 59 21.5 21 58.5-21 58.5-59 21.5-59-21.5-21-58.5z"/><glyph glyph-name="AE" unicode="Æ" horiz-adv-x="2404" d="M-2 0l876 1720h1381v-192h-891V956h850V764h-850V193h891V0H1151v354H403L225 0H-2zm504 547h649v981H997z"/><glyph glyph-name="Ccedilla" unicode="Ç" horiz-adv-x="1976" d="M866-336q142 0 200 14.5t58 61.5q0 49-57 58.5T903-209l45 191Q750-8 592 65T333 257.5 178.5 531 125 862q0 145 36 276t109 241.5 177.5 191 249 125.5 315.5 45q151 0 283-36t230-100.5 171-152 113-191 49-217.5l2-38h-226l-2 38q-8 104-52.5 193.5t-120.5 158-191 107.5-254 39q-167 0-296.5-53T508 1342.5 387 1127t-41-265q0-147 41-270t121-216 209-145.5 295-52.5q143 0 258.5 39.5t191.5 109 119 160 51 195.5l2 37h226l-2-37q-11-141-70-265t-160-220-251.5-154T1044-20l-28-109q223 27 223-127 0-42-19.5-73t-51.5-49-82.5-28.5-101.5-14-120-3.5z"/><glyph glyph-name="Egrave" unicode="È" horiz-adv-x="1689" d="M223 0v1720h1323v-192H438V956h1049V764H438V193h1108V0H223zm103 1993l20 80 1096-152-21-80z"/><glyph glyph-name="Eacute" unicode="É" horiz-adv-x="1689" d="M223 0v1720h1323v-192H438V956h1049V764H438V193h1108V0H223zm164 1962l973 152 18-80-972-152z"/><glyph glyph-name="Ecircumflex" unicode="Ê" horiz-adv-x="1689" d="M223 0v1720h1323v-192H438V956h1049V764H438V193h1108V0H223zm262 1864l330 270h143l324-270h-166l-229 196-236-196H485z"/><glyph glyph-name="Edieresis" unicode="Ë" horiz-adv-x="1689" d="M223 0v1720h1323v-192H438V956h1049V764H438V193h1108V0H223zm271 1968q0 57 34.5 89t87.5 32q50 0 86.5-32.5T739 1968q0-52-36.5-84.5T616 1851q-52 0-87 32t-35 85zm536 0q0 57 35 89t88 32q50 0 86.5-32.5t36.5-88.5q0-52-36.5-84.5T1153 1851q-52 0-87.5 32t-35.5 85z"/><glyph glyph-name="Igrave" unicode="Ì" horiz-adv-x="1495" d="M104 0v193h537v1335H104v192h1289v-192H856V193h537V0H104zm84 1993l21 80 1096-152-21-80z"/><glyph glyph-name="Iacute" unicode="Í" horiz-adv-x="1495" d="M104 0v193h537v1335H104v192h1289v-192H856V193h537V0H104zm146 1962l973 152 18-80-973-152z"/><glyph glyph-name="Icircumflex" unicode="Î" horiz-adv-x="1495" d="M104 0v193h537v1335H104v192h1289v-192H856V193h537V0H104zm244 1864l330 270h143l324-270H979l-229 196-236-196H348z"/><glyph glyph-name="Idieresis" unicode="Ï" horiz-adv-x="1495" d="M104 0v193h537v1335H104v192h1289v-192H856V193h537V0H104zm252 1968q0 57 35 89t88 32q50 0 86.5-32.5T602 1968q0-52-36.5-84.5T479 1851q-52 0-87.5 32t-35.5 85zm537 0q0 57 35 89t88 32q50 0 86.5-32.5t36.5-88.5q0-52-36.5-84.5T1016 1851q-52 0-87.5 32t-35.5 85z"/><glyph glyph-name="Eth" unicode="Ð" horiz-adv-x="2084" d="M354 0v803H37v117h317v800h801q183 0 327-50t249.5-152.5 162-269T1950 860q0-221-56.5-387T1731 204 1481 50.5 1155 0H354zm215 193h584q297 0 435 163.5T1726 860t-138 504-435 164H569V920h723V803H569V193z"/><glyph glyph-name="Ntilde" unicode="Ñ" horiz-adv-x="2007" d="M223 0v1720h215L1573 291v1429h211V0h-213L436 1430V0H223zm295 1847q0 102 68.5 169t199.5 67q61 0 110-16.5t82-39.5 64.5-46 75-39.5 96.5-16.5q85 0 130 39t45 104h102q0-106-71.5-170.5T1212 1833q-66 0-118 16.5t-85.5 39.5-64.5 46-70.5 39.5T786 1991q-81 0-123-41.5T621 1847H518z"/><glyph glyph-name="Ograve" unicode="Ò" horiz-adv-x="2015" d="M1008-20q-169 0-312.5 45.5T448 152.5t-177.5 192-109.5 242T125 862q0 180 58.5 338T351 1479t278.5 191.5T1008 1741q210 0 379.5-70.5t278-191.5 166.5-279 58-338q0-144-36-275.5t-109.5-242-177.5-192-247-127T1008-20zM346 862q0-145 41.5-268T509 377.5 717 231t291-53q164 0 292 53t207.5 146.5T1628 594t41 268q0 142-41 264t-120.5 215.5-207.5 147-292 53.5q-163 0-291-53.5t-208-147T387.5 1126 346 862zm103 1131l20 80 1096-152-21-80z"/><glyph glyph-name="Oacute" unicode="Ó" horiz-adv-x="2015" d="M1008-20q-169 0-312.5 45.5T448 152.5t-177.5 192-109.5 242T125 862q0 180 58.5 338T351 1479t278.5 191.5T1008 1741q210 0 379.5-70.5t278-191.5 166.5-279 58-338q0-144-36-275.5t-109.5-242-177.5-192-247-127T1008-20zM346 862q0-145 41.5-268T509 377.5 717 231t291-53q164 0 292 53t207.5 146.5T1628 594t41 268q0 142-41 264t-120.5 215.5-207.5 147-292 53.5q-163 0-291-53.5t-208-147T387.5 1126 346 862zm164 1100l973 152 18-80-973-152z"/><glyph glyph-name="Ocircumflex" unicode="Ô" horiz-adv-x="2015" d="M1008-20q-169 0-312.5 45.5T448 152.5t-177.5 192-109.5 242T125 862q0 180 58.5 338T351 1479t278.5 191.5T1008 1741q210 0 379.5-70.5t278-191.5 166.5-279 58-338q0-144-36-275.5t-109.5-242-177.5-192-247-127T1008-20zM346 862q0-145 41.5-268T509 377.5 717 231t291-53q164 0 292 53t207.5 146.5T1628 594t41 268q0 142-41 264t-120.5 215.5-207.5 147-292 53.5q-163 0-291-53.5t-208-147T387.5 1126 346 862zm262 1002l330 270h143l324-270h-166l-229 196-236-196H608z"/><glyph glyph-name="Otilde" unicode="Õ" horiz-adv-x="2015" d="M1008-20q-169 0-312.5 45.5T448 152.5t-177.5 192-109.5 242T125 862q0 180 58.5 338T351 1479t278.5 191.5T1008 1741q210 0 379.5-70.5t278-191.5 166.5-279 58-338q0-144-36-275.5t-109.5-242-177.5-192-247-127T1008-20zM346 862q0-145 41.5-268T509 377.5 717 231t291-53q164 0 292 53t207.5 146.5T1628 594t41 268q0 142-41 264t-120.5 215.5-207.5 147-292 53.5q-163 0-291-53.5t-208-147T387.5 1126 346 862zm174 985q0 102 68.5 169t199.5 67q61 0 110-16.5t82-39.5 65-46 75.5-39.5 96.5-16.5q85 0 129.5 39t44.5 104h102q0-106-71.5-170.5T1214 1833q-66 0-118 16.5t-85.5 39.5-64.5 46-70.5 39.5T788 1991q-81 0-123-41.5T623 1847H520z"/><glyph glyph-name="Odieresis" unicode="Ö" horiz-adv-x="2015" d="M1008-20q-169 0-312.5 45.5T448 152.5t-177.5 192-109.5 242T125 862q0 180 58.5 338T351 1479t278.5 191.5T1008 1741q210 0 379.5-70.5t278-191.5 166.5-279 58-338q0-144-36-275.5t-109.5-242-177.5-192-247-127T1008-20zM346 862q0-145 41.5-268T509 377.5 717 231t291-53q164 0 292 53t207.5 146.5T1628 594t41 268q0 142-41 264t-120.5 215.5-207.5 147-292 53.5q-163 0-291-53.5t-208-147T387.5 1126 346 862zm270 1106q0 57 35 89t88 32q50 0 86.5-32.5T862 1968q0-52-36.5-84.5T739 1851q-52 0-87.5 32t-35.5 85zm537 0q0 57 35 89t88 32q50 0 86.5-32.5t36.5-88.5q0-52-36.5-84.5T1276 1851q-52 0-87.5 32t-35.5 85z"/><glyph glyph-name="multiply" unicode="×" horiz-adv-x="1460" d="M168 1483l561-561 563 565 64-64-563-563 563-563-64-64-563 562-559-559-64 63 560 559-562 561z"/><glyph glyph-name="Oslash" unicode="Ø" horiz-adv-x="2015" d="M1008-20q-299 0-512 139l-82-99H217l160 195Q254 335 189.5 502.5T125 862q0 180 58.5 338T351 1479t278.5 191.5T1008 1741q299 0 512-139l79 98h197l-158-193q123-120 187.5-287t64.5-358q0-144-36-275.5t-109.5-242-177.5-192-247-127T1008-20zM346 862q0-303 164-485l879 1067q-161 98-381 98-163 0-291-53.5t-208-147T387.5 1126 346 862zm281-583q157-101 381-101 164 0 292 53t207.5 146.5T1628 594t41 268q0 300-166 484z"/><glyph glyph-name="Ugrave" unicode="Ù" horiz-adv-x="1951" d="M977-20q-281 0-449.5 73.5T282 282t-77 412v1026h215V694q0-155 34.5-258T563 276t171.5-79.5T977 174q113 0 196 13.5t153.5 48.5 113.5 93.5 66.5 149T1530 694v1026h215V694q0-196-43-331t-137.5-221T1327 18 977-20zM418 1993l20 80 1096-152-21-80z"/><glyph glyph-name="Uacute" unicode="Ú" horiz-adv-x="1951" d="M977-20q-281 0-449.5 73.5T282 282t-77 412v1026h215V694q0-155 34.5-258T563 276t171.5-79.5T977 174q113 0 196 13.5t153.5 48.5 113.5 93.5 66.5 149T1530 694v1026h215V694q0-196-43-331t-137.5-221T1327 18 977-20zM479 1962l973 152 18-80-972-152z"/><glyph glyph-name="Ucircumflex" unicode="Û" horiz-adv-x="1951" d="M977-20q-281 0-449.5 73.5T282 282t-77 412v1026h215V694q0-155 34.5-258T563 276t171.5-79.5T977 174q113 0 196 13.5t153.5 48.5 113.5 93.5 66.5 149T1530 694v1026h215V694q0-196-43-331t-137.5-221T1327 18 977-20zM578 1864l329 270h144l323-270h-166l-229 196-236-196H578z"/><glyph glyph-name="Udieresis" unicode="Ü" horiz-adv-x="1951" d="M977-20q-281 0-449.5 73.5T282 282t-77 412v1026h215V694q0-155 34.5-258T563 276t171.5-79.5T977 174q113 0 196 13.5t153.5 48.5 113.5 93.5 66.5 149T1530 694v1026h215V694q0-196-43-331t-137.5-221T1327 18 977-20zM584 1968q0 57 35 89t88 32q50 0 86-32.5t36-88.5q0-52-36.5-84.5T707 1851q-52 0-87.5 32t-35.5 85zm536 0q0 57 35 89t88 32q50 0 86.5-32.5t36.5-88.5q0-52-36.5-84.5T1243 1851q-52 0-87.5 32t-35.5 85z"/><glyph glyph-name="Yacute" unicode="Ý" horiz-adv-x="1773" d="M780 0v602L14 1720h254l619-925 618 925h254L993 602V0H780zM389 1962l973 152 18-80-972-152z"/><glyph glyph-name="Thorn" unicode="Þ" horiz-adv-x="1902" d="M223 0v1720h209v-282h729q299 0 461-148.5T1784 860t-159.5-429T1161 283H432V0H223zm209 475h711q215 0 317.5 94.5T1563 862q0 196-102.5 289.5T1143 1245H432V475z"/><glyph glyph-name="germandbls" unicode="ß" horiz-adv-x="1679" d="M195 0v1235q0 254 163 380t500 126q328 0 495-116t167-337q0-148-73-249.5T1225 903q336-64 336-426v-2Q1561 0 969 0H559v178h324q258 0 364.5 67T1354 492v2q0 56-11.5 99.5t-43 84.5-83.5 68-138 43-201 16H559v178h297q134 0 225 19.5t141 60 70.5 92T1313 1280q0 283-453 283-243 0-352-80t-109-248V0H195z"/><glyph glyph-name="agrave" unicode="à" horiz-adv-x="1581" d="M1202 0v262q-87-141-250.5-211.5T588-20Q486-20 403.5-.5T256 60 155 172t-36 168q0 71 24.5 129t66.5 99 105 72.5 132 51T602 725l203 35 78 13.5 70.5 13.5 68.5 16.5 57 19 50.5 24.5 35.5 30 25.5 38 7.5 46q0 88-91 150.5T821 1174q-222 0-333-83.5T377 852v-29H168v29q0 109 38.5 198.5t115.5 158 202.5 106T815 1352q161 0 277.5-32.5t183-92.5 97-135 30.5-170V0h-201zM236 1604l20 79 1096-151-21-80zm90-1252q0-109 75.5-157T631 147q141 0 262.5 45T1100 332.5t98 226.5v201q-32-62-124.5-95T821 604l-176-31q-164-27-241.5-75T326 352z"/><glyph glyph-name="aacute" unicode="á" horiz-adv-x="1581" d="M1202 0v262q-87-141-250.5-211.5T588-20Q486-20 403.5-.5T256 60 155 172t-36 168q0 71 24.5 129t66.5 99 105 72.5 132 51T602 725l203 35 78 13.5 70.5 13.5 68.5 16.5 57 19 50.5 24.5 35.5 30 25.5 38 7.5 46q0 88-91 150.5T821 1174q-222 0-333-83.5T377 852v-29H168v29q0 109 38.5 198.5t115.5 158 202.5 106T815 1352q161 0 277.5-32.5t183-92.5 97-135 30.5-170V0h-201zM297 1573l973 151 18-79-973-152zm29-1221q0-109 75.5-157T631 147q141 0 262.5 45T1100 332.5t98 226.5v201q-32-62-124.5-95T821 604l-176-31q-164-27-241.5-75T326 352z"/><glyph glyph-name="acircumflex" unicode="â" horiz-adv-x="1581" d="M1202 0v262q-87-141-250.5-211.5T588-20Q486-20 403.5-.5T256 60 155 172t-36 168q0 71 24.5 129t66.5 99 105 72.5 132 51T602 725l203 35 78 13.5 70.5 13.5 68.5 16.5 57 19 50.5 24.5 35.5 30 25.5 38 7.5 46q0 88-91 150.5T821 1174q-222 0-333-83.5T377 852v-29H168v29q0 109 38.5 198.5t115.5 158 202.5 106T815 1352q161 0 277.5-32.5t183-92.5 97-135 30.5-170V0h-201zM326 352q0-109 75.5-157T631 147q141 0 262.5 45T1100 332.5t98 226.5v201q-32-62-124.5-95T821 604l-176-31q-164-27-241.5-75T326 352zm69 1123l330 270h143l324-270h-166l-229 196-236-196H395z"/><glyph glyph-name="atilde" unicode="ã" horiz-adv-x="1581" d="M1202 0v262q-87-141-250.5-211.5T588-20Q486-20 403.5-.5T256 60 155 172t-36 168q0 71 24.5 129t66.5 99 105 72.5 132 51T602 725l203 35 78 13.5 70.5 13.5 68.5 16.5 57 19 50.5 24.5 35.5 30 25.5 38 7.5 46q0 88-91 150.5T821 1174q-222 0-333-83.5T377 852v-29H168v29q0 109 38.5 198.5t115.5 158 202.5 106T815 1352q161 0 277.5-32.5t183-92.5 97-135 30.5-170V0h-201zM307 1458q0 102 68.5 169t199.5 67q61 0 110-16.5t82-39.5 65-46 75.5-39.5 96.5-16.5q85 0 129.5 39t44.5 104h102q0-106-71.5-170.5T1001 1444q-66 0-118 16.5t-85.5 39.5-64.5 46-70.5 39.5T575 1602q-81 0-123-41.5T410 1458H307zm19-1106q0-109 75.5-157T631 147q141 0 262.5 45T1100 332.5t98 226.5v201q-32-62-124.5-95T821 604l-176-31q-164-27-241.5-75T326 352z"/><glyph glyph-name="adieresis" unicode="ä" horiz-adv-x="1581" d="M1202 0v262q-87-141-250.5-211.5T588-20Q486-20 403.5-.5T256 60 155 172t-36 168q0 71 24.5 129t66.5 99 105 72.5 132 51T602 725l203 35 78 13.5 70.5 13.5 68.5 16.5 57 19 50.5 24.5 35.5 30 25.5 38 7.5 46q0 88-91 150.5T821 1174q-222 0-333-83.5T377 852v-29H168v29q0 109 38.5 198.5t115.5 158 202.5 106T815 1352q161 0 277.5-32.5t183-92.5 97-135 30.5-170V0h-201zM326 352q0-109 75.5-157T631 147q141 0 262.5 45T1100 332.5t98 226.5v201q-32-62-124.5-95T821 604l-176-31q-164-27-241.5-75T326 352zm77 1227q0 57 35 89t88 32q50 0 86.5-32.5T649 1579q0-52-36.5-84.5T526 1462q-52 0-87.5 32t-35.5 85zm537 0q0 57 35 89t88 32q50 0 86.5-32.5t36.5-88.5q0-52-36.5-84.5T1063 1462q-52 0-87.5 32t-35.5 85z"/><glyph glyph-name="aring" unicode="å" horiz-adv-x="1581" d="M1202 0v262q-87-141-250.5-211.5T588-20Q486-20 403.5-.5T256 60 155 172t-36 168q0 71 24.5 129t66.5 99 105 72.5 132 51T602 725l203 35 78 13.5 70.5 13.5 68.5 16.5 57 19 50.5 24.5 35.5 30 25.5 38 7.5 46q0 88-91 150.5T821 1174q-222 0-333-83.5T377 852v-29H168v29q0 109 38.5 198.5t115.5 158 202.5 106T815 1352q161 0 277.5-32.5t183-92.5 97-135 30.5-170V0h-201zM326 352q0-109 75.5-157T631 147q141 0 262.5 45T1100 332.5t98 226.5v201q-32-62-124.5-95T821 604l-176-31q-164-27-241.5-75T326 352zm303 1237q0 71 49.5 118.5T795 1755t116.5-47.5T961 1589t-49.5-118.5T795 1423t-116.5 47.5T629 1589zm86 0q0-37 21-58.5t59-21.5 58.5 21.5T874 1589t-20.5 58.5T795 1669t-59-21.5-21-58.5z"/><glyph glyph-name="ae" unicode="æ" horiz-adv-x="2508" d="M608-20Q503-20 415.5-1.5t-161 59-115 112.5T98 340q0 145 107 232.5T514 690l260 35q45 6 68 9t62 9.5 59.5 13.5 49.5 18 44 24.5 30.5 32 22 43 6.5 53.5q0 108-92.5 178T758 1176q-193 0-298.5-90T354 821H147q0 245 155 388t452 143q373 0 497-254 165 254 514 254 291 0 462-169.5T2398 690v-63H1311q9-212 128-337.5T1759 164q162 0 263.5 73.5T2157 424h223q-43-193-207.5-317.5T1755-18q-381 0-545 309-72-155-232.5-233T608-20zM305 342q0-104 86.5-153.5T627 139q207 0 339 90.5T1116 498v207q-41-47-133-81t-192-49l-256-36q-119-19-174.5-66.5T305 342zm1014 442h864v2q-12 188-125 285.5t-299 97.5q-190 0-302-103t-138-282z"/><glyph glyph-name="ccedilla" unicode="ç" horiz-adv-x="1574" d="M1253 817q-13 152-128 252t-318 100q-243 0-363-132T324 666v-4q0-236 120-368t361-132q108 0 192 28.5t136.5 78.5 82 111.5T1253 514l7 57h208l-6-57q-11-107-54.5-199t-118-165.5-188-118T848-20l-29-109q223 27 223-127 0-42-19.5-73t-51-49-82-28.5-101.5-14-120-3.5l2 88q142 0 200 14.5t58 61.5q0 49-57 58.5T707-209l45 191Q441-5 277 176T113 664v6q0 317 177.5 499.5T803 1352q150 0 272-42t203.5-115 129-169.5T1464 817l4-59h-208z"/><glyph glyph-name="egrave" unicode="è" horiz-adv-x="1583" d="M1352 1532l-21-80-1095 152 20 79zM113 664v8q0 316 178.5 498T809 1352q308 0 484.5-169T1470 690v-63H326q9-220 130-342.5T809 162q184 0 289 74.5T1223 424l4 14h225l-2-14q-31-196-197-320T807-20q-338 0-516 182T113 664zm221 118h921l-2 4q-13 190-131 286.5T803 1169q-208 0-325-100.5T334 782z"/><glyph glyph-name="eacute" unicode="é" horiz-adv-x="1583" d="M315 1493l-18 80 973 151 18-79zM113 664v8q0 316 178.5 498T809 1352q308 0 484.5-169T1470 690v-63H326q9-220 130-342.5T809 162q184 0 289 74.5T1223 424l4 14h225l-2-14q-31-196-197-320T807-20q-338 0-516 182T113 664zm221 118h921l-2 4q-13 190-131 286.5T803 1169q-208 0-325-100.5T334 782z"/><glyph glyph-name="ecircumflex" unicode="ê" horiz-adv-x="1583" d="M395 1475l330 270h143l324-270h-166l-229 196-236-196H395zM113 664v8q0 316 178.5 498T809 1352q308 0 484.5-169T1470 690v-63H326q9-220 130-342.5T809 162q184 0 289 74.5T1223 424l4 14h225l-2-14q-31-196-197-320T807-20q-338 0-516 182T113 664zm221 118h921l-2 4q-13 190-131 286.5T803 1169q-208 0-325-100.5T334 782z"/><glyph glyph-name="edieresis" unicode="ë" horiz-adv-x="1583" d="M1063 1462q-52 0-87.5 32t-35.5 85q0 57 35 89t88 32q50 0 86.5-32.5t36.5-88.5q0-52-36.5-84.5T1063 1462zM113 664v8q0 316 178.5 498T809 1352q308 0 484.5-169T1470 690v-63H326q9-220 130-342.5T809 162q184 0 289 74.5T1223 424l4 14h225l-2-14q-31-196-197-320T807-20q-338 0-516 182T113 664zm221 118h921l-2 4q-13 190-131 286.5T803 1169q-208 0-325-100.5T334 782zm69 797q0 57 35 89t88 32q50 0 86.5-32.5T649 1579q0-52-36.5-84.5T526 1462q-52 0-87.5 32t-35.5 85z"/><glyph glyph-name="igrave" unicode="ì" horiz-adv-x="593" d="M195 1331h204V0H195v1331zm-252 273l20 79 686-151-20-80z"/><glyph glyph-name="iacute" unicode="í" horiz-adv-x="593" d="M195 1331h204V0H195v1331zm-252 201l686 151 20-79-686-152z"/><glyph glyph-name="icircumflex" unicode="î" horiz-adv-x="593" d="M195 1331h204V0H195v1331zm-244 123l280 229h131l279-229H512l-215 172-217-172H-49z"/><glyph glyph-name="idieresis" unicode="ï" horiz-adv-x="593" d="M195 1331h204V0H195v1331zm-218 223q0 48 30 76.5t73 28.5q42 0 72-28.5t30-76.5q0-43-30.5-71.5T80 1454q-42 0-72.5 28.5T-23 1554zm449 0q0 48 30 76.5t74 28.5q42 0 72.5-29t30.5-76q0-43-31-71.5t-72-28.5q-44 0-74 28t-30 72z"/><glyph glyph-name="eth" unicode="ð" horiz-adv-x="1550" d="M780-20q-334 0-505 146.5T104 528v9q0 108 38 202.5t113 170T454 1029t283 44q320 0 463-162-79 288-416 467l-581-200v125l428 149q-169 69-424 133l53 156q357-81 602-209l514 178v-127l-381-131q230-155 334.5-364T1434 614v-4q0-315-156.5-472.5T780-20zM311 526q0-174 114-271t345-97q237 0 347 98t110 270v4q0 186-118 275.5T776 895q-236 0-350.5-96T311 535v-9z"/><glyph glyph-name="ntilde" unicode="ñ" d="M399 1331v-254q34 57 80 104.5t108 87 144.5 61.5 177.5 22q254 0 401.5-152T1458 778V0h-207v754q0 206-102 311.5T854 1171q-110 0-194.5-33T527 1057t-78.5-111.5-40-115T399 731V0H195v1331h204zm-41 127q0 102 69 169t200 67q61 0 110-16.5t82-39.5 64.5-46 75-39.5 96.5-16.5q85 0 129.5 39t44.5 104h102q0-106-71-170.5t-207-64.5q-66 0-118 16.5t-85.5 39.5-64.5 46-70.5 39.5T627 1602q-81 0-123.5-42T461 1458H358z"/><glyph glyph-name="ograve" unicode="ò" horiz-adv-x="1589" d="M795-20q-331 0-506.5 182.5T113 666q0 320 175.5 503T795 1352q332 0 507-183t175-503q0-321-175-503.5T795-20zM236 1604l20 79 1096-151-21-80zm88-938q0-240 116-372t355-132 355 132 116 372-116 371.5T795 1169t-355-131.5T324 666z"/><glyph glyph-name="oacute" unicode="ó" horiz-adv-x="1589" d="M795-20q-331 0-506.5 182.5T113 666q0 320 175.5 503T795 1352q332 0 507-183t175-503q0-321-175-503.5T795-20zM297 1573l973 151 18-79-973-152zm27-907q0-240 116-372t355-132 355 132 116 372-116 371.5T795 1169t-355-131.5T324 666z"/><glyph glyph-name="ocircumflex" unicode="ô" horiz-adv-x="1589" d="M795-20q-331 0-506.5 182.5T113 666q0 320 175.5 503T795 1352q332 0 507-183t175-503q0-321-175-503.5T795-20zM324 666q0-240 116-372t355-132 355 132 116 372-116 371.5T795 1169t-355-131.5T324 666zm71 809l330 270h143l324-270h-166l-229 196-236-196H395z"/><glyph glyph-name="otilde" unicode="õ" horiz-adv-x="1589" d="M795-20q-331 0-506.5 182.5T113 666q0 320 175.5 503T795 1352q332 0 507-183t175-503q0-321-175-503.5T795-20zM307 1458q0 102 68.5 169t199.5 67q61 0 110-16.5t82-39.5 65-46 75.5-39.5 96.5-16.5q85 0 129.5 39t44.5 104h102q0-106-71.5-170.5T1001 1444q-66 0-118 16.5t-85.5 39.5-64.5 46-70.5 39.5T575 1602q-81 0-123-41.5T410 1458H307zm17-792q0-240 116-372t355-132 355 132 116 372-116 371.5T795 1169t-355-131.5T324 666z"/><glyph glyph-name="odieresis" unicode="ö" horiz-adv-x="1589" d="M795-20q-331 0-506.5 182.5T113 666q0 320 175.5 503T795 1352q332 0 507-183t175-503q0-321-175-503.5T795-20zM324 666q0-240 116-372t355-132 355 132 116 372-116 371.5T795 1169t-355-131.5T324 666zm79 913q0 57 35 89t88 32q50 0 86.5-32.5T649 1579q0-52-36.5-84.5T526 1462q-52 0-87.5 32t-35.5 85zm537 0q0 57 35 89t88 32q50 0 86.5-32.5t36.5-88.5q0-52-36.5-84.5T1063 1462q-52 0-87.5 32t-35.5 85z"/><glyph glyph-name="divide" unicode="÷" horiz-adv-x="1964" d="M983 1096q-26 0-43.5 17.5T922 1157q0 25 17.5 43.5T983 1219q25 0 43-18.5t18-43.5q0-26-18-43.5t-43-17.5zM141 815v90h1680v-90H141zm781-252q0 25 17.5 43.5T983 625q25 0 43-18.5t18-43.5q0-26-18-43.5T983 502q-26 0-43.5 17.5T922 563z"/><glyph glyph-name="oslash" unicode="ø" horiz-adv-x="1589" d="M795-20q-206 0-351 71L289-174H129l205 295Q113 302 113 666q0 320 175.5 503T795 1352q203 0 350-72l155 225h160l-205-295q222-180 222-544 0-321-175-503.5T795-20zM324 666q0-253 125-381l585 837q-100 47-239 47-239 0-355-131.5T324 666zm231-457q100-47 240-47 239 0 355 132t116 372q0 253-125 381z"/><glyph glyph-name="ugrave" unicode="ù" d="M1233 0v254q-72-121-199.5-197.5T723-20q-254 0-401.5 152T174 553v778h207V578q0-206 102-312t295-106q110 0 194.5 33t132.5 81 78.5 111.5 40 115 9.5 99.5v731h205V0h-205zM225 1604l21 79 1095-151-20-80z"/><glyph glyph-name="uacute" unicode="ú" d="M1233 0v254q-72-121-199.5-197.5T723-20q-254 0-401.5 152T174 553v778h207V578q0-206 102-312t295-106q110 0 194.5 33t132.5 81 78.5 111.5 40 115 9.5 99.5v731h205V0h-205zM287 1573l973 151 18-79-973-152z"/><glyph glyph-name="ucircumflex" unicode="û" d="M1233 0v254q-72-121-199.5-197.5T723-20q-254 0-401.5 152T174 553v778h207V578q0-206 102-312t295-106q110 0 194.5 33t132.5 81 78.5 111.5 40 115 9.5 99.5v731h205V0h-205zM385 1475l330 270h143l324-270h-166l-230 196-235-196H385z"/><glyph glyph-name="udieresis" unicode="ü" d="M1233 0v254q-72-121-199.5-197.5T723-20q-254 0-401.5 152T174 553v778h207V578q0-206 102-312t295-106q110 0 194.5 33t132.5 81 78.5 111.5 40 115 9.5 99.5v731h205V0h-205zM393 1579q0 57 35 89t88 32q50 0 86.5-32.5T639 1579q0-52-36.5-84.5T516 1462q-52 0-87.5 32t-35.5 85zm537 0q0 57 35 89t88 32q50 0 86.5-32.5t36.5-88.5q0-52-36.5-84.5T1053 1462q-52 0-87.5 32t-35.5 85z"/><glyph glyph-name="yacute" unicode="ý" horiz-adv-x="1632" d="M1233 33v221q-72-121-199.5-197.5T723-20q-254 0-401.5 152T174 553v778h207V578q0-206 102-312t295-106q110 0 194.5 33t132.5 81 78.5 111.5 40 115 9.5 99.5v731h207V23q0-264-111-389.5T991-492H201v181h770q144 0 203 75.5T1233 33zM315 1573l973 151 19-79-973-152z"/><glyph glyph-name="thorn" unicode="þ" horiz-adv-x="1677" d="M399-492H195v2212h204v-624q24 43 63.5 84t100 81 150 64.5T905 1350q151 0 275.5-51.5t208.5-142 130-216 46-272.5v-9q0-306-178.5-494T909-23Q806-23 717.5 1T568 65.5 467.5 145 399 227v-719zm7 1147q0-227 124.5-361T881 160q154 0 262.5 66T1303 403t51 256v9q0 143-51.5 254T1142 1100t-263 67q-223 0-348-134T406 672v-17z"/><glyph glyph-name="ydieresis" unicode="ÿ" horiz-adv-x="1632" d="M1233 33v221q-72-121-199.5-197.5T723-20q-254 0-401.5 152T174 553v778h207V578q0-206 102-312t295-106q110 0 194.5 33t132.5 81 78.5 111.5 40 115 9.5 99.5v731h207V23q0-264-111-389.5T991-492H201v181h770q144 0 203 75.5T1233 33zM422 1579q0 57 35 89t88 32q50 0 86.5-32.5T668 1579q0-52-36.5-84.5T545 1462q-52 0-87.5 32t-35.5 85zm536 0q0 57 35 89t88 32q50 0 86.5-32.5t36.5-88.5q0-52-36.5-84.5T1081 1462q-52 0-87.5 32t-35.5 85z"/><glyph glyph-name="Amacron" unicode="Ā" horiz-adv-x="1775" d="M29 0l725 1720h268L1747 0h-231l-140 336H399L260 0H29zm301 1917v82h1116v-82H330zM477 528h819l-393 955-16 41-17-41z"/><glyph glyph-name="amacron" unicode="ā" horiz-adv-x="1581" d="M1202 0v262q-87-141-250.5-211.5T588-20Q486-20 403.5-.5T256 60 155 172t-36 168q0 71 24.5 129t66.5 99 105 72.5 132 51T602 725l203 35 78 13.5 70.5 13.5 68.5 16.5 57 19 50.5 24.5 35.5 30 25.5 38 7.5 46q0 88-91 150.5T821 1174q-222 0-333-83.5T377 852v-29H168v29q0 109 38.5 198.5t115.5 158 202.5 106T815 1352q161 0 277.5-32.5t183-92.5 97-135 30.5-170V0h-201zM236 1528v82h1116v-82H236zm90-1176q0-109 75.5-157T631 147q141 0 262.5 45T1100 332.5t98 226.5v201q-32-62-124.5-95T821 604l-176-31q-164-27-241.5-75T326 352z"/><glyph glyph-name="Abreve" unicode="Ă" horiz-adv-x="1775" d="M29 0l725 1720h268L1747 0h-231l-140 336H399L260 0H29zm362 2083h103q0-44 27.5-73.5t82-46T727 1940t164-7q195 0 293 33t98 117h102q0-69-33-116.5t-99.5-74-153-38T891 1843t-208.5 11.5-155.5 38-102 74-34 116.5zm86-1555h819l-393 955-16 41-17-41z"/><glyph glyph-name="abreve" unicode="ă" horiz-adv-x="1581" d="M1202 0v262q-87-141-250.5-211.5T588-20Q486-20 403.5-.5T256 60 155 172t-36 168q0 71 24.5 129t66.5 99 105 72.5 132 51T602 725l203 35 78 13.5 70.5 13.5 68.5 16.5 57 19 50.5 24.5 35.5 30 25.5 38 7.5 46q0 88-91 150.5T821 1174q-222 0-333-83.5T377 852v-29H168v29q0 109 38.5 198.5t115.5 158 202.5 106T815 1352q161 0 277.5-32.5t183-92.5 97-135 30.5-170V0h-201zM297 1694h102q0-44 27.5-73.5t82.5-46 124-23.5 164-7q195 0 293 33t98 117h102q0-69-33-116.5t-99.5-74-153-38T797 1454t-208.5 11.5-155.5 38-102 74-34 116.5zm29-1342q0-109 75.5-157T631 147q141 0 262.5 45T1100 332.5t98 226.5v201q-32-62-124.5-95T821 604l-176-31q-164-27-241.5-75T326 352z"/><glyph glyph-name="Aogonek" unicode="Ą" horiz-adv-x="1775" d="M29 0l725 1720h268L1747 0h2q-117-36-173-82t-56-111q0-63 56-90.5t189-27.5h15l-82-99h-12q-128 0-204.5 45.5T1405-231q0 48 20.5 87.5t58 66.5 78 44.5T1653 0h-137l-140 336H399L260 0H29zm448 528h819l-393 955-16 41-17-41z"/><glyph glyph-name="aogonek" unicode="ą" horiz-adv-x="1581" d="M1202 0v262q-87-141-250.5-211.5T588-20Q486-20 403.5-.5T256 60 155 172t-36 168q0 71 24.5 129t66.5 99 105 72.5 132 51T602 725l203 35 78 13.5 70.5 13.5 68.5 16.5 57 19 50.5 24.5 35.5 30 25.5 38 7.5 46q0 88-91 150.5T821 1174q-222 0-333-83.5T377 852v-29H168v29q0 109 38.5 198.5t115.5 158 202.5 106T815 1352q161 0 277.5-32.5t183-92.5 97-135 30.5-170V0q-117-36-173-82t-56-111q0-63 56-90.5t189-27.5h15l-82-99h-13q-128 0-204 45.5T1059-231q0 48 20.5 87.5t58 66.5 78 44.5T1307 0h-105zM326 352q0-109 75.5-157T631 147q141 0 262.5 45T1100 332.5t98 226.5v201q-32-62-124.5-95T821 604l-176-31q-164-27-241.5-75T326 352z"/><glyph glyph-name="Cacute" unicode="Ć" horiz-adv-x="1976" d="M1010-20q-212 0-382.5 69.5t-279 190-166 279.5T125 862q0 145 36 276t109 241.5 177.5 191 249 125.5 315.5 45q151 0 283-36t230-100.5 171-152 113-191 49-217.5l2-38h-226l-2 38q-8 104-52.5 193.5t-120.5 158-191 107.5-254 39q-167 0-296.5-53T508 1342.5 387 1127t-41-265q0-147 41-270t121-216 209-145.5 295-52.5q143 0 258.5 39.5t191.5 109 119 160 51 195.5l2 37h226l-2-37q-11-144-72.5-270.5t-166.5-223T1357 36t-347-56zM496 1962l972 152 19-80-973-152z"/><glyph glyph-name="cacute" unicode="ć" horiz-adv-x="1572" d="M1253 817q-13 152-128 252t-318 100q-243 0-363-132T324 666v-4q0-236 120-368t361-132q108 0 192 28.5t136.5 78.5 82 111.5T1253 514l7 57h208l-6-57q-12-111-58.5-206t-126-169T1076 22.5 803-20q-335 0-512.5 182T113 664v6q0 317 177.5 499.5T803 1352q150 0 272-42t203.5-115 129-169.5T1464 817l4-59h-208zm-946 756l973 151 18-79-972-152z"/><glyph glyph-name="Ccircumflex" unicode="Ĉ" horiz-adv-x="1976" d="M1010-20q-212 0-382.5 69.5t-279 190-166 279.5T125 862q0 145 36 276t109 241.5 177.5 191 249 125.5 315.5 45q151 0 283-36t230-100.5 171-152 113-191 49-217.5l2-38h-226l-2 38q-8 104-52.5 193.5t-120.5 158-191 107.5-254 39q-167 0-296.5-53T508 1342.5 387 1127t-41-265q0-147 41-270t121-216 209-145.5 295-52.5q143 0 258.5 39.5t191.5 109 119 160 51 195.5l2 37h226l-2-37q-11-144-72.5-270.5t-166.5-223T1357 36t-347-56zM594 1864l330 270h143l324-270h-166l-230 196-235-196H594z"/><glyph glyph-name="ccircumflex" unicode="ĉ" horiz-adv-x="1572" d="M1253 817q-13 152-128 252t-318 100q-243 0-363-132T324 666v-4q0-236 120-368t361-132q108 0 192 28.5t136.5 78.5 82 111.5T1253 514l7 57h208l-6-57q-12-111-58.5-206t-126-169T1076 22.5 803-20q-335 0-512.5 182T113 664v6q0 317 177.5 499.5T803 1352q150 0 272-42t203.5-115 129-169.5T1464 817l4-59h-208zm-847 658l329 270h144l323-270h-166l-229 196-236-196H406z"/><glyph glyph-name="Cdotaccent" unicode="Ċ" horiz-adv-x="1976" d="M1010-20q-212 0-382.5 69.5t-279 190-166 279.5T125 862q0 145 36 276t109 241.5 177.5 191 249 125.5 315.5 45q151 0 283-36t230-100.5 171-152 113-191 49-217.5l2-38h-226l-2 38q-8 104-52.5 193.5t-120.5 158-191 107.5-254 39q-167 0-296.5-53T508 1342.5 387 1127t-41-265q0-147 41-270t121-216 209-145.5 295-52.5q143 0 258.5 39.5t191.5 109 119 160 51 195.5l2 37h226l-2-37q-11-144-72.5-270.5t-166.5-223T1357 36t-347-56zM866 1954q0 50 34 83.5t93 33.5 93-33.5 34-83.5q0-48-34-80.5t-93-32.5-93 32.5-34 80.5z"/><glyph glyph-name="cdotaccent" unicode="ċ" horiz-adv-x="1572" d="M1253 817q-13 152-128 252t-318 100q-243 0-363-132T324 666v-4q0-236 120-368t361-132q108 0 192 28.5t136.5 78.5 82 111.5T1253 514l7 57h208l-6-57q-12-111-58.5-206t-126-169T1076 22.5 803-20q-335 0-512.5 182T113 664v6q0 317 177.5 499.5T803 1352q150 0 272-42t203.5-115 129-169.5T1464 817l4-59h-208zm-589 801q0 55 36.5 89t102.5 34 103.5-34 37.5-89q0-51-38-85t-103-34-102 33.5-37 85.5z"/><glyph glyph-name="Ccaron" unicode="Č" horiz-adv-x="1976" d="M1010-20q-212 0-382.5 69.5t-279 190-166 279.5T125 862q0 145 36 276t109 241.5 177.5 191 249 125.5 315.5 45q151 0 283-36t230-100.5 171-152 113-191 49-217.5l2-38h-226l-2 38q-8 104-52.5 193.5t-120.5 158-191 107.5-254 39q-167 0-296.5-53T508 1342.5 387 1127t-41-265q0-147 41-270t121-216 209-145.5 295-52.5q143 0 258.5 39.5t191.5 109 119 160 51 195.5l2 37h226l-2-37q-11-144-72.5-270.5t-166.5-223T1357 36t-347-56zM512 2114h186l297-203 291 203h187l-406-271H924z"/><glyph glyph-name="ccaron" unicode="č" horiz-adv-x="1572" d="M1253 817q-13 152-128 252t-318 100q-243 0-363-132T324 666v-4q0-236 120-368t361-132q108 0 192 28.5t136.5 78.5 82 111.5T1253 514l7 57h208l-6-57q-12-111-58.5-206t-126-169T1076 22.5 803-20q-335 0-512.5 182T113 664v6q0 317 177.5 499.5T803 1352q150 0 272-42t203.5-115 129-169.5T1464 817l4-59h-208zm-929 907h186l297-202 291 202h186l-405-270H735z"/><glyph glyph-name="Dcaron" unicode="Ď" horiz-adv-x="1951" d="M223 0v1720h801q183 0 327-50t249.5-152.5 162-269T1819 860q0-221-56.5-387T1600 204 1350 50.5 1024 0H223zm215 193h584q297 0 435 163.5T1595 860t-138 504-435 164H438V193zm39 1921h187l297-203 290 203h187l-406-271H889z"/><glyph glyph-name="dcaron" unicode="ď" horiz-adv-x="1742" d="M1272 1720h205V0h-205v223q-25-43-65.5-82.5T1106 63 959 2.5 772-20q-201 0-351.5 88.5T191.5 311 113 662v8q0 202 79.5 356.5t228.5 240 347 85.5q100 0 186.5-23t147-61.5T1202 1191t70-81v610zM324 662q0-143 51.5-254.5T536 229t263-67q223 0 348 134t125 361v17q0 227-124.5 361T797 1169q-154 0-262.5-66T375 926t-51-256v-8zm1216 546l96 512h156l-143-512h-109z"/><glyph glyph-name="Dcroat" unicode="Đ" horiz-adv-x="2084" d="M354 0v803H37v117h317v800h801q183 0 327-50t249.5-152.5 162-269T1950 860q0-221-56.5-387T1731 204 1481 50.5 1155 0H354zm215 193h584q297 0 435 163.5T1726 860t-138 504-435 164H569V920h723V803H569V193z"/><glyph glyph-name="dcroat" unicode="đ" horiz-adv-x="1671" d="M1272 1720h205v-149h252v-115h-252V0h-205v223q-25-43-65.5-82.5T1106 63 959 2.5 772-20q-201 0-351.5 88.5T191.5 311 113 662v8q0 202 79.5 356.5t228.5 240 347 85.5q100 0 186.5-23t147-61.5T1202 1191t70-81v346H627v115h645v149zM324 662q0-143 51.5-254.5T536 229t263-67q223 0 348 134t125 361v17q0 227-124.5 361T797 1169q-154 0-262.5-66T375 926t-51-256v-8z"/><glyph glyph-name="Emacron" unicode="Ē" horiz-adv-x="1689" d="M223 0v1720h1323v-192H438V956h1049V764H438V193h1108V0H223zm103 1917v82h1116v-82H326z"/><glyph glyph-name="emacron" unicode="ē" horiz-adv-x="1583" d="M236 1528v82h1116v-82H236zM113 664v8q0 316 178.5 498T809 1352q308 0 484.5-169T1470 690v-63H326q9-220 130-342.5T809 162q184 0 289 74.5T1223 424l4 14h225l-2-14q-31-196-197-320T807-20q-338 0-516 182T113 664zm221 118h921l-2 4q-13 190-131 286.5T803 1169q-208 0-325-100.5T334 782z"/><glyph glyph-name="Edotaccent" unicode="Ė" horiz-adv-x="1689" d="M223 0v1720h1323v-192H438V956h1049V764H438V193h1108V0H223zm535 1954q0 50 34 83.5t93 33.5 93-33.5 34-83.5q0-48-34-80.5t-93-32.5-93 32.5-34 80.5z"/><glyph glyph-name="edotaccent" unicode="ė" horiz-adv-x="1583" d="M793 1499q-65 0-102.5 34t-37.5 85q0 55 37 89t103 34 103.5-34 37.5-89q0-51-38-85t-103-34zM113 664v8q0 316 178.5 498T809 1352q308 0 484.5-169T1470 690v-63H326q9-220 130-342.5T809 162q184 0 289 74.5T1223 424l4 14h225l-2-14q-31-196-197-320T807-20q-338 0-516 182T113 664zm221 118h921l-2 4q-13 190-131 286.5T803 1169q-208 0-325-100.5T334 782z"/><glyph glyph-name="Eogonek" unicode="Ę" horiz-adv-x="1689" d="M223 0v1720h1323v-192H438V956h1049V764H438V193h1108V0q-117-36-173-82t-56-111q0-63 56.5-90.5T1563-311h14l-82-99h-12q-128 0-204.5 45.5T1202-231q0 48 20.5 87.5t58 66.5 78 44.5T1450 0H223z"/><glyph glyph-name="eogonek" unicode="ę" horiz-adv-x="1583" d="M940-410q-128 0-204.5 45.5T659-231q0 142 187 211h-39q-338 0-516 182T113 664v8q0 316 178.5 498T809 1352q308 0 484.5-169T1470 690v-63H326q9-220 130-342.5T809 162q184 0 289 74.5T1223 424l4 14h225l-2-14q-26-160-144-275.5T991-4Q880-40 827-85t-53-108 56.5-90.5T1020-311h14l-82-99h-12zM334 782h921l-2 4q-13 190-131 286.5T803 1169q-208 0-325-100.5T334 782z"/><glyph glyph-name="Ecaron" unicode="Ě" horiz-adv-x="1689" d="M223 0v1720h1323v-192H438V956h1049V764H438V193h1108V0H223zm180 2114h187l297-203 291 203h186l-406-271H815z"/><glyph glyph-name="ecaron" unicode="ě" horiz-adv-x="1583" d="M725 1454l-412 270h187l297-202 290 202h187l-406-270H725zM113 664v8q0 316 178.5 498T809 1352q308 0 484.5-169T1470 690v-63H326q9-220 130-342.5T809 162q184 0 289 74.5T1223 424l4 14h225l-2-14q-31-196-197-320T807-20q-338 0-516 182T113 664zm221 118h921l-2 4q-13 190-131 286.5T803 1169q-208 0-325-100.5T334 782z"/><glyph glyph-name="Gcircumflex" unicode="Ĝ" horiz-adv-x="2019" d="M983-20q-204 0-368.5 69.5t-270 190T183 519t-56 343q0 145 35 275.5t107.5 241 175.5 191 247.5 126T1008 1741q146 0 275.5-35t227.5-97 172-146 116-183.5 52-208.5l2-22h-225l-2 22q-19 214-184 342.5T1014 1542q-171 0-301-53t-208.5-147T387 1127t-39-265q0-149 39.5-272.5t116.5-216 200-144T985 178q272 0 445 138t194 384H838v181h1015V0h-153l-25 354q-93-172-268-273T983-20zM610 1864l330 270h143l324-270h-166l-229 196-236-196H610z"/><glyph glyph-name="gcircumflex" unicode="ĝ" horiz-adv-x="1669" d="M1272 63v160q-25-43-65.5-82.5T1106 63 959 2.5 772-20q-201 0-351.5 88.5T191.5 311 113 662v8q0 202 79.5 356.5t228.5 240 347 85.5q100 0 186.5-23t147-61.5T1202 1191t70-81v221h205V35q0-137-24-232.5t-79.5-163-148-99.5T999-492H186v181h793q89 0 145.5 19t89.5 65.5 45.5 114T1272 63zM324 662q0-143 51.5-254.5T536 229t263-67q223 0 348 134t125 361v17q0 227-124.5 361T797 1169q-154 0-262.5-66T375 926t-51-256v-8zm59 813l330 270h143l324-270h-166l-230 196-235-196H383z"/><glyph glyph-name="Gbreve" unicode="Ğ" horiz-adv-x="2019" d="M983-20q-204 0-368.5 69.5t-270 190T183 519t-56 343q0 145 35 275.5t107.5 241 175.5 191 247.5 126T1008 1741q146 0 275.5-35t227.5-97 172-146 116-183.5 52-208.5l2-22h-225l-2 22q-19 214-184 342.5T1014 1542q-171 0-301-53t-208.5-147T387 1127t-39-265q0-149 39.5-272.5t116.5-216 200-144T985 178q272 0 445 138t194 384H838v181h1015V0h-153l-25 354q-93-172-268-273T983-20zM512 2083h102q0-44 27.5-73.5t82.5-46 124-23.5 164-7q195 0 293 33t98 117h102q0-69-33-116.5t-99.5-74-153-38T1012 1843t-208.5 11.5-155.5 38-102 74-34 116.5z"/><glyph glyph-name="gbreve" unicode="ğ" horiz-adv-x="1669" d="M1272 63v160q-25-43-65.5-82.5T1106 63 959 2.5 772-20q-201 0-351.5 88.5T191.5 311 113 662v8q0 202 79.5 356.5t228.5 240 347 85.5q100 0 186.5-23t147-61.5T1202 1191t70-81v221h205V35q0-137-24-232.5t-79.5-163-148-99.5T999-492H186v181h793q89 0 145.5 19t89.5 65.5 45.5 114T1272 63zM285 1694h102q0-44 27.5-73.5t82-46T620 1551t164-7q195 0 293.5 33t98.5 117h102q0-69-33-116.5t-99.5-74-153.5-38-208-11.5-208.5 11.5-155 38-101.5 74-34 116.5zm39-1032q0-143 51.5-254.5T536 229t263-67q223 0 348 134t125 361v17q0 227-124.5 361T797 1169q-154 0-262.5-66T375 926t-51-256v-8z"/><glyph glyph-name="Gdotaccent" unicode="Ġ" horiz-adv-x="2019" d="M983-20q-204 0-368.5 69.5t-270 190T183 519t-56 343q0 145 35 275.5t107.5 241 175.5 191 247.5 126T1008 1741q146 0 275.5-35t227.5-97 172-146 116-183.5 52-208.5l2-22h-225l-2 22q-19 214-184 342.5T1014 1542q-171 0-301-53t-208.5-147T387 1127t-39-265q0-149 39.5-272.5t116.5-216 200-144T985 178q272 0 445 138t194 384H838v181h1015V0h-153l-25 354q-93-172-268-273T983-20zM883 1954q0 50 34 83.5t93 33.5 93-33.5 34-83.5q0-48-34-80.5t-93-32.5-93 32.5-34 80.5z"/><glyph glyph-name="gdotaccent" unicode="ġ" horiz-adv-x="1669" d="M1272 63v160q-25-43-65.5-82.5T1106 63 959 2.5 772-20q-201 0-351.5 88.5T191.5 311 113 662v8q0 202 79.5 356.5t228.5 240 347 85.5q100 0 186.5-23t147-61.5T1202 1191t70-81v221h205V35q0-137-24-232.5t-79.5-163-148-99.5T999-492H186v181h793q89 0 145.5 19t89.5 65.5 45.5 114T1272 63zM324 662q0-143 51.5-254.5T536 229t263-67q223 0 348 134t125 361v17q0 227-124.5 361T797 1169q-154 0-262.5-66T375 926t-51-256v-8zm317 956q0 55 36.5 89t102.5 34 104-34 38-89q0-51-38-85t-104-34q-65 0-102 33.5t-37 85.5z"/><glyph glyph-name="uni0122" unicode="Ģ" horiz-adv-x="2019" d="M983-20q-204 0-368.5 69.5t-270 190T183 519t-56 343q0 145 35 275.5t107.5 241 175.5 191 247.5 126T1008 1741q146 0 275.5-35t227.5-97 172-146 116-183.5 52-208.5l2-22h-225l-2 22q-19 214-184 342.5T1014 1542q-171 0-301-53t-208.5-147T387 1127t-39-265q0-149 39.5-272.5t116.5-216 200-144T985 178q272 0 445 138t194 384H838v181h1015V0h-153l-25 354q-93-172-268-273T983-20zm-94-152q0 42 28.5 71T991-72q47 0 75-30.5t28-90.5q0-71-45.5-134.5T915-434v84q102 39 125 119-26-33-65-33-35 0-60.5 25.5T889-172z"/><glyph glyph-name="uni0123" unicode="ģ" horiz-adv-x="1669" d="M1272 63v160q-25-43-65.5-82.5T1106 63 959 2.5 772-20q-201 0-351.5 88.5T191.5 311 113 662v8q0 202 79.5 356.5t228.5 240 347 85.5q100 0 186.5-23t147-61.5T1202 1191t70-81v221h205V35q0-137-24-232.5t-79.5-163-148-99.5T999-492H186v181h793q89 0 145.5 19t89.5 65.5 45.5 114T1272 63zM324 662q0-143 51.5-254.5T536 229t263-67q223 0 348 134t125 361v17q0 227-124.5 361T797 1169q-154 0-262.5-66T375 926t-51-256v-8zm354 892q0 72 44.5 135.5T854 1794v-84q-102-40-123-119 27 35 66 35 35 0 60.5-25.5T883 1534q0-44-29.5-73t-75.5-29-73 31-27 91z"/><glyph glyph-name="Hcircumflex" unicode="Ĥ" horiz-adv-x="1966" d="M1528 0v764H438V0H223v1720h215V956h1090v764h215V0h-215zM582 1864l329 270h144l323-270h-166l-229 196-235-196H582z"/><glyph glyph-name="hcircumflex" unicode="ĥ" d="M399 1720v-643q34 57 80 104.5t108 87 144.5 61.5 177.5 22q254 0 401.5-152T1458 778V0h-207v754q0 206-102 311.5T854 1171q-110 0-194.5-33T527 1057t-78.5-111.5-40-115T399 731V0H195v1720h204zm-503 144l329 270h144l323-270H526l-229 196-236-196h-165z"/><glyph glyph-name="Hbar" unicode="Ħ" horiz-adv-x="2095" d="M1593 0v764H504V0H289v1268H51v123h238v329h215v-329h1089v329h215v-329h238v-123h-238V0h-215zM504 956h1089v312H504V956z"/><glyph glyph-name="hbar" unicode="ħ" d="M399 1720v-149h572v-115H399v-379q34 57 80 104.5t108 87 144.5 61.5 177.5 22q254 0 401.5-152T1458 778V0h-207v754q0 206-102 311.5T854 1171q-110 0-194.5-33T527 1057t-78.5-111.5-40-115T399 731V0H195v1456h-326v115h326v149h204z"/><glyph glyph-name="Itilde" unicode="Ĩ" horiz-adv-x="1495" d="M104 0v193h537v1335H104v192h1289v-192H856V193h537V0H104zm156 1847q0 102 68.5 169t199.5 67q61 0 110-16.5t82-39.5 64.5-46 75-39.5T956 1925q85 0 129.5 39t44.5 104h103q0-106-71.5-170.5T954 1833q-66 0-118 16.5t-85.5 39.5-64.5 46-70.5 39.5T528 1991q-81 0-123.5-42T362 1847H260z"/><glyph glyph-name="itilde" unicode="ĩ" horiz-adv-x="593" d="M195 1331h204V0H195v1331zm-385 127q0 102 68.5 169T78 1694q61 0 110-16.5t82-39.5 64.5-46 75-39.5T506 1536q85 0 129.5 39t44.5 104h102q0-106-71-170.5T504 1444q-66 0-118 16.5t-85.5 39.5-64.5 46-70.5 39.5T78 1602q-81 0-123.5-42T-88 1458h-102z"/><glyph glyph-name="Imacron" unicode="Ī" horiz-adv-x="1495" d="M104 0v193h537v1335H104v192h1289v-192H856V193h537V0H104zm84 1917v82h1117v-82H188z"/><glyph glyph-name="imacron" unicode="ī" horiz-adv-x="593" d="M195 1331h204V0H195v1331zm-252 197v82h706v-82H-57z"/><glyph glyph-name="Iogonek" unicode="Į" horiz-adv-x="1495" d="M104 0v193h537v1335H104v192h1289v-192H856V193h537V0q-118-36-174-82t-56-111q0-63 56.5-90.5T1409-311h14l-82-99h-12q-128 0-204 45.5T1049-231q0 48 20.5 87.5t58 66.5 77.5 44.5T1296 0H104z"/><glyph glyph-name="iogonek" unicode="į" horiz-adv-x="593" d="M195 1331h204V0h2Q284-36 228-82t-56-111q0-63 56.5-90.5T418-311h14l-82-99h-12q-128 0-204.5 45.5T57-231q0 48 20.5 87.5t58 66.5 78 44.5T305 0H195v1331zm-39 287q0 55 36.5 89t102.5 34 103.5-34 37.5-89q0-51-38-85t-103-34-102 33.5-37 85.5z"/><glyph glyph-name="Idotaccent" unicode="İ" horiz-adv-x="1495" d="M104 0v193h537v1335H104v192h1289v-192H856V193h537V0H104zm517 1954q0 50 34 83.5t93 33.5 92.5-33.5T874 1954q0-48-33.5-80.5T748 1841t-93 32.5-34 80.5z"/><glyph glyph-name="dotlessi" unicode="ı" horiz-adv-x="593" d="M195 1331h204V0H195v1331z"/><glyph glyph-name="IJ" unicode="Ĳ" horiz-adv-x="3158" d="M104 0v193h537v1335H104v192h1289v-192H856V193h537V0H104zm1416 709h219q0-283 115-409t382-126q260 0 381 122t121 390v1034h215V686q0-355-172-530.5T2236-20q-377 0-546.5 178.5T1520 709z"/><glyph glyph-name="ij" unicode="ĳ" horiz-adv-x="1056" d="M195 1331h204V0H195v1331zm-39 287q0 55 36.5 89t102.5 34 103.5-34 37.5-89q0-51-38-85t-103-34-102 33.5-37 85.5zm49-2110v181h198q83 0 129.5 10.5t76 45 39 89.5T657-12v1343h205V-47q0-132-24-219t-77.5-136.5T633-472t-184-20H205zm413 2110q0 55 37 89t103 34 103.5-34 37.5-89q0-51-38-85t-103-34-102.5 34-37.5 85z"/><glyph glyph-name="Jcircumflex" unicode="Ĵ" horiz-adv-x="1705" d="M784-20q-377 0-546.5 178.5T68 709h219q0-283 115-409t382-126q260 0 381 122t121 390v1034h215V686q0-355-172-530.5T784-20zm207 1884l330 270h143l324-270h-166l-229 196-236-196H991z"/><glyph glyph-name="jcircumflex" unicode="ĵ" horiz-adv-x="593" d="M195-12v1343h204V-47q0-132-24-219t-77.5-136.5T170-472t-184-20h-244v181h199q83 0 129.5 10.5t76 45 39 89.5T195-12zm-297 1487l329 270h144l323-270H528l-229 196-236-196h-165z"/><glyph glyph-name="uni0136" unicode="Ķ" horiz-adv-x="1777" d="M1466 0L594 762H438V0H223v1720h215V958h156l872 762h297L762 860 1763 0h-297zM813-172q0 42 28.5 71T915-72q47 0 75-30.5t28-90.5q0-71-45-134.5T840-434v84q102 39 125 119-26-33-66-33-35 0-60.5 25.5T813-172z"/><glyph glyph-name="uni0137" unicode="ķ" horiz-adv-x="1488" d="M195 1720h204V756h109l694 575h279L659 666 1481 0h-279L506 578H399V0H195v1720zM678-172q0 42 28.5 71T780-72q47 0 75-30.5t28-90.5q0-71-45-134.5T705-434v84q101 38 124 119-26-33-65-33-35 0-60.5 25.5T678-172z"/><glyph glyph-name="Lacute" unicode="Ĺ" horiz-adv-x="1574" d="M223 0v1720h215V193h1096V0H223zm92 1962l973 152 19-80-973-152z"/><glyph glyph-name="lacute" unicode="ĺ" horiz-adv-x="593" d="M195 1720h204V0H195v1720zm-396 242l973 152 19-80-973-152z"/><glyph glyph-name="uni013B" unicode="Ļ" horiz-adv-x="1574" d="M223 0v1720h215V193h1096V0H223zm553-172q0 42 29 71t74 29q47 0 74.5-30.5T981-193q0-71-45-134.5T803-434v84q102 39 125 119-26-33-66-33-35 0-60.5 25.5T776-172z"/><glyph glyph-name="uni013C" unicode="ļ" horiz-adv-x="593" d="M195 1720h204V0H195v1720zm0-1892q0 42 28.5 71T297-72q47 0 74.5-30.5T399-193q0-71-45-134.5T221-434v84q102 39 125 119-26-33-65-33-35 0-60.5 25.5T195-172z"/><glyph glyph-name="Lcaron" unicode="Ľ" horiz-adv-x="1576" d="M223 0v1720h215V193h1096V0H223zm543 1208l96 512h156l-144-512H766z"/><glyph glyph-name="lcaron" unicode="ľ" horiz-adv-x="667" d="M195 1720h204V0H195v1720zm290-512l97 512h155l-143-512H485z"/><glyph glyph-name="Lslash" unicode="Ł" horiz-adv-x="1716" d="M362 0v688L66 596v133l296 92v899h216V889l577 180V936L578 756V193h1095V0H362z"/><glyph glyph-name="lslash" unicode="ł" horiz-adv-x="1034" d="M424 1720h205V946l362 137V952L629 815V0H424v737L59 598v131l365 139v852z"/><glyph glyph-name="Nacute" unicode="Ń" horiz-adv-x="2007" d="M223 0v1720h215L1573 291v1429h211V0h-213L436 1430V0H223zm285 1962l973 152 18-80-973-152z"/><glyph glyph-name="nacute" unicode="ń" d="M399 1331v-254q34 57 80 104.5t108 87 144.5 61.5 177.5 22q254 0 401.5-152T1458 778V0h-207v754q0 206-102 311.5T854 1171q-110 0-194.5-33T527 1057t-78.5-111.5-40-115T399 731V0H195v1331h204zm-51 242l973 151 18-79-972-152z"/><glyph glyph-name="uni0145" unicode="Ņ" horiz-adv-x="2007" d="M223 0v1720h215L1573 291v1429h211V0h-213L436 1430V0H223zm680-172q0 42 29 71t74 29q47 0 74.5-30.5T1108-193q0-71-45-134.5T930-434v84q102 39 125 119-26-33-66-33-35 0-60.5 25.5T903-172z"/><glyph glyph-name="uni0146" unicode="ņ" d="M399 1331v-254q34 57 80 104.5t108 87 144.5 61.5 177.5 22q254 0 401.5-152T1458 778V0h-207v754q0 206-102 311.5T854 1171q-110 0-194.5-33T527 1057t-78.5-111.5-40-115T399 731V0H195v1331h204zM737-172q0 42 29 71t74 29q47 0 74.5-30.5T942-193q0-71-45-134.5T764-434v84q102 39 125 119-26-33-66-33-35 0-60.5 25.5T737-172z"/><glyph glyph-name="Ncaron" unicode="Ň" horiz-adv-x="2007" d="M223 0v1720h215L1573 291v1429h211V0h-213L436 1430V0H223zm301 2114h187l297-203 290 203h187l-406-271H936z"/><glyph glyph-name="ncaron" unicode="ň" d="M399 1331v-254q34 57 80 104.5t108 87 144.5 61.5 177.5 22q254 0 401.5-152T1458 778V0h-207v754q0 206-102 311.5T854 1171q-110 0-194.5-33T527 1057t-78.5-111.5-40-115T399 731V0H195v1331h204zm-34 393h186l297-202 291 202h186l-405-270H776z"/><glyph glyph-name="Eng" unicode="Ŋ" horiz-adv-x="2007" d="M223 0v1720h215L1573 291v1429h211V0q-2-116-19-190t-61.5-125.5-119.5-73-193-21.5h-215v189h256q94 0 122.5 49.5T1571 0L436 1430V0H223z"/><glyph glyph-name="eng" unicode="ŋ" d="M399 1331v-254q34 57 80 104.5t108 87 144.5 61.5 177.5 22q254 0 401.5-152T1458 778V0q0-113-15-185.5T1387.5-311t-112-76-183.5-23H932v174h119q110 0 154 52.5T1249 0h2v754q0 206-102 311.5T854 1171q-110 0-194.5-33T527 1057t-78.5-111.5-40-115T399 731V0H195v1331h204z"/><glyph glyph-name="Omacron" unicode="Ō" horiz-adv-x="2015" d="M1008-20q-169 0-312.5 45.5T448 152.5t-177.5 192-109.5 242T125 862q0 180 58.5 338T351 1479t278.5 191.5T1008 1741q210 0 379.5-70.5t278-191.5 166.5-279 58-338q0-144-36-275.5t-109.5-242-177.5-192-247-127T1008-20zM346 862q0-145 41.5-268T509 377.5 717 231t291-53q164 0 292 53t207.5 146.5T1628 594t41 268q0 142-41 264t-120.5 215.5-207.5 147-292 53.5q-163 0-291-53.5t-208-147T387.5 1126 346 862zm103 1055v82h1116v-82H449z"/><glyph glyph-name="omacron" unicode="ō" horiz-adv-x="1589" d="M795-20q-331 0-506.5 182.5T113 666q0 320 175.5 503T795 1352q332 0 507-183t175-503q0-321-175-503.5T795-20zM236 1528v82h1116v-82H236zm88-862q0-240 116-372t355-132 355 132 116 372-116 371.5T795 1169t-355-131.5T324 666z"/><glyph glyph-name="Ohungarumlaut" unicode="Ő" horiz-adv-x="2015" d="M1008-20q-169 0-312.5 45.5T448 152.5t-177.5 192-109.5 242T125 862q0 180 58.5 338T351 1479t278.5 191.5T1008 1741q210 0 379.5-70.5t278-191.5 166.5-279 58-338q0-144-36-275.5t-109.5-242-177.5-192-247-127T1008-20zM346 862q0-145 41.5-268T509 377.5 717 231t291-53q164 0 292 53t207.5 146.5T1628 594t41 268q0 142-41 264t-120.5 215.5-207.5 147-292 53.5q-163 0-291-53.5t-208-147T387.5 1126 346 862zm455 981l258 230h131l-238-230H801zm270 0l258 230h131l-237-230h-152z"/><glyph glyph-name="ohungarumlaut" unicode="ő" horiz-adv-x="1589" d="M795-20q-331 0-506.5 182.5T113 666q0 320 175.5 503T795 1352q332 0 507-183t175-503q0-321-175-503.5T795-20zM324 666q0-240 116-372t355-132 355 132 116 372-116 371.5T795 1169t-355-131.5T324 666zm264 788l258 229h131l-238-229H588zm270 0l258 229h131l-237-229H858z"/><glyph glyph-name="OE" unicode="Œ" horiz-adv-x="2658" d="M862-20q-167 0-305.5 67.5T325.5 233 182 512.5 131 862v2q0 187 51.5 348T327 1490t230 184 301 67q174 0 315-80t228-227v286h1104v-192h-901V956h872V764h-872V190h901V0H1401v283q-86-146-226-224.5T862-20zM352 860q0-202 60-356t179-242 283-88q165 0 283.5 90t177 243.5T1393 862v2q0 199-57.5 351.5t-175 241.5-281.5 89q-165 0-285.5-89t-181-242.5T352 862v-2z"/><glyph glyph-name="oe" unicode="œ" horiz-adv-x="2613" d="M770-20q-205 0-354.5 86t-226 239.5T113 662v8q0 203 76.5 356.5t226 239.5 354.5 86q194 0 336-81.5t223-232.5q162 314 545 314 287 0 458-170t171-492v-63H1417q9-216 128-340.5T1864 162q160 0 259.5 74T2257 424h223q-43-194-206-319T1858-20q-375 0-535 307-80-149-221-228T770-20zM324 662q0-229 115-364.5T770 162q218 0 333.5 134.5T1219 662v8q0 231-115.5 365T770 1169q-216 0-331-135.5T324 670v-8zm1106 122h858q-13 190-126 287.5t-296 97.5q-186 0-299.5-99.5T1430 784z"/><glyph glyph-name="Racute" unicode="Ŕ" horiz-adv-x="1929" d="M1554 0q-24 28-24 154v231q0 89-30 150.5t-86 93.5-120.5 45.5T1145 688H438V0H223v1720h928q295 0 446.5-128t151.5-382q0-177-77-284t-218-140q138-32 214.5-134t76.5-255V154q0-126 24-154h-215zM420 1962l973 152 18-80-973-152zm18-1081h709q48 0 83.5 2t77.5 10 71.5 21.5 59 38 47.5 59 29 84.5 11 114q0 91-26.5 154t-81 98.5T1292 1513t-172 15H438V881z"/><glyph glyph-name="racute" unicode="ŕ" horiz-adv-x="1368" d="M401 1331v-264q50 115 172 200t289 85q212 0 327.5-123T1305 866V752h-211v110q0 307-283 307-88 0-160-29t-117.5-74T457 963.5 413.5 853 401 752V0H195v1331h206zm-131 242l973 151 19-79-973-152z"/><glyph glyph-name="uni0156" unicode="Ŗ" horiz-adv-x="1929" d="M1554 0q-24 28-24 154v231q0 89-30 150.5t-86 93.5-120.5 45.5T1145 688H438V0H223v1720h928q295 0 446.5-128t151.5-382q0-177-77-284t-218-140q138-32 214.5-134t76.5-255V154q0-126 24-154h-215zM438 881h709q48 0 83.5 2t77.5 10 71.5 21.5 59 38 47.5 59 29 84.5 11 114q0 91-26.5 154t-81 98.5T1292 1513t-172 15H438V881zM874-172q0 42 29 71t74 29q47 0 74.5-30.5T1079-193q0-71-45-134.5T901-434v84q102 39 125 119-26-33-65-33-35 0-61 25.5T874-172z"/><glyph glyph-name="uni0157" unicode="ŗ" horiz-adv-x="1368" d="M401 1331v-264q50 115 172 200t289 85q212 0 327.5-123T1305 866V752h-211v110q0 307-283 307-88 0-160-29t-117.5-74T457 963.5 413.5 853 401 752V0H195v1331h206zM195-172q0 42 28.5 71T297-72q47 0 74.5-30.5T399-193q0-71-45-134.5T221-434v84q102 39 125 119-26-33-65-33-35 0-60.5 25.5T195-172z"/><glyph glyph-name="Rcaron" unicode="Ř" horiz-adv-x="1929" d="M1554 0q-24 28-24 154v231q0 89-30 150.5t-86 93.5-120.5 45.5T1145 688H438V0H223v1720h928q295 0 446.5-128t151.5-382q0-177-77-284t-218-140q138-32 214.5-134t76.5-255V154q0-126 24-154h-215zM436 2114h187l297-203 290 203h187l-406-271H848zm2-1233h709q48 0 83.5 2t77.5 10 71.5 21.5 59 38 47.5 59 29 84.5 11 114q0 91-26.5 154t-81 98.5T1292 1513t-172 15H438V881z"/><glyph glyph-name="rcaron" unicode="ř" horiz-adv-x="1368" d="M401 1331v-264q50 115 172 200t289 85q212 0 327.5-123T1305 866V752h-211v110q0 307-283 307-88 0-160-29t-117.5-74T457 963.5 413.5 853 401 752V0H195v1331h206zm-114 393h186l297-202 291 202h186l-405-270H698z"/><glyph glyph-name="Sacute" unicode="Ś" horiz-adv-x="1779" d="M930-20q-413 0-618.5 157.5T106 598v20h222v-20q0-219 147.5-322.5T936 172q257 0 379.5 72.5T1438 471q0 60-18 105t-47.5 74.5-83 52-107.5 36-138 27.5l-387 72q-83 15-150 36t-130.5 56-106 80.5T202 1123t-26 149q0 228 183 348.5T874 1741q360 0 549-142t189-403v-20h-221v20q0 175-125 263.5T877 1548q-234 0-357-68.5T397 1278q0-62 28.5-108.5t83-76.5 114.5-48 143-33l399-72q72-12 130.5-28t117-40.5 101.5-60 76.5-81.5 51-109 17.5-140q0-259-178-380T930-20zM379 1962l973 152 18-80-973-152z"/><glyph glyph-name="sacute" unicode="ś" horiz-adv-x="1505" d="M995 750q115-20 195.5-55t125-83 64-103 19.5-124q0-94-32-166.5t-102-127-188-83T795-20Q639-20 519 3T319.5 67.5 189.5 171t-72 136.5T96 475v19h211v-19q0-170 116.5-243.5T791 158q397 0 397 213 0 82-66 134t-215 79l-358 59q-112 17-191 49t-123 77-63.5 96T152 979q0 168 141.5 270.5T723 1352q176 0 302.5-34.5t198-98 104-142.5 32.5-178v-18h-211v18q0 147-106 211t-318 64q-102 0-182-19t-130.5-62T362 989q0-65 54-104.5T602 819zm-755 823l972 151 19-79-973-152z"/><glyph glyph-name="Scircumflex" unicode="Ŝ" horiz-adv-x="1779" d="M930-20q-413 0-618.5 157.5T106 598v20h222v-20q0-219 147.5-322.5T936 172q257 0 379.5 72.5T1438 471q0 60-18 105t-47.5 74.5-83 52-107.5 36-138 27.5l-387 72q-83 15-150 36t-130.5 56-106 80.5T202 1123t-26 149q0 228 183 348.5T874 1741q360 0 549-142t189-403v-20h-221v20q0 175-125 263.5T877 1548q-234 0-357-68.5T397 1278q0-62 28.5-108.5t83-76.5 114.5-48 143-33l399-72q72-12 130.5-28t117-40.5 101.5-60 76.5-81.5 51-109 17.5-140q0-259-178-380T930-20zM477 1864l330 270h143l324-270h-166l-229 196-236-196H477z"/><glyph glyph-name="scircumflex" unicode="ŝ" horiz-adv-x="1505" d="M995 750q115-20 195.5-55t125-83 64-103 19.5-124q0-94-32-166.5t-102-127-188-83T795-20Q639-20 519 3T319.5 67.5 189.5 171t-72 136.5T96 475v19h211v-19q0-170 116.5-243.5T791 158q397 0 397 213 0 82-66 134t-215 79l-358 59q-112 17-191 49t-123 77-63.5 96T152 979q0 168 141.5 270.5T723 1352q176 0 302.5-34.5t198-98 104-142.5 32.5-178v-18h-211v18q0 147-106 211t-318 64q-102 0-182-19t-130.5-62T362 989q0-65 54-104.5T602 819zm-657 725l330 270h143l324-270H969l-230 196-235-196H338z"/><glyph glyph-name="Scedilla" unicode="Ş" horiz-adv-x="1779" d="M799-336q142 0 200 14.5t58 61.5q0 49-57 58.5T836-209l45 189Q492-10 299 147.5T106 598v20h222v-20q0-219 147.5-322.5T936 172q257 0 379.5 72.5T1438 471q0 60-18 105t-47.5 74.5-83 52-107.5 36-138 27.5l-387 72q-83 15-150 36t-130.5 56-106 80.5T202 1123t-26 149q0 228 183 348.5T874 1741q360 0 549-142t189-403v-20h-221v20q0 175-125 263.5T877 1548q-234 0-357-68.5T397 1278q0-62 28.5-108.5t83-76.5 114.5-48 143-33l399-72q72-12 130.5-28t117-40.5 101.5-60 76.5-81.5 51-109 17.5-140q0-251-166.5-372T977-20l-29-109q223 27 223-127 0-42-19.5-73t-51-49-82-28.5-101.5-14-120-3.5z"/><glyph glyph-name="scedilla" unicode="ş" horiz-adv-x="1505" d="M995 750q115-20 195.5-55t125-83 64-103 19.5-124q0-92-30.5-163t-97-125.5-178.5-84T825-20l-26-109q223 27 223-127 0-42-19.5-73T951-378t-82.5-28.5-101.5-14-120-3.5l2 88q142 0 200 14.5t58 61.5q0 49-57 58.5T686-209l45 189q-177 6-301.5 43t-197 103T128 277 96 475v19h211v-19q0-170 116.5-243.5T791 158q397 0 397 213 0 82-66 134t-215 79l-358 59q-112 17-191 49t-123 77-63.5 96T152 979q0 168 141.5 270.5T723 1352q176 0 302.5-34.5t198-98 104-142.5 32.5-178v-18h-211v18q0 147-106 211t-318 64q-102 0-182-19t-130.5-62T362 989q0-65 54-104.5T602 819z"/><glyph glyph-name="Scaron" unicode="Š" horiz-adv-x="1779" d="M930-20q-413 0-618.5 157.5T106 598v20h222v-20q0-219 147.5-322.5T936 172q257 0 379.5 72.5T1438 471q0 60-18 105t-47.5 74.5-83 52-107.5 36-138 27.5l-387 72q-83 15-150 36t-130.5 56-106 80.5T202 1123t-26 149q0 228 183 348.5T874 1741q360 0 549-142t189-403v-20h-221v20q0 175-125 263.5T877 1548q-234 0-357-68.5T397 1278q0-62 28.5-108.5t83-76.5 114.5-48 143-33l399-72q72-12 130.5-28t117-40.5 101.5-60 76.5-81.5 51-109 17.5-140q0-259-178-380T930-20zM395 2114h187l297-203 290 203h187l-406-271H807z"/><glyph glyph-name="scaron" unicode="š" horiz-adv-x="1505" d="M995 750q115-20 195.5-55t125-83 64-103 19.5-124q0-94-32-166.5t-102-127-188-83T795-20Q639-20 519 3T319.5 67.5 189.5 171t-72 136.5T96 475v19h211v-19q0-170 116.5-243.5T791 158q397 0 397 213 0 82-66 134t-215 79l-358 59q-112 17-191 49t-123 77-63.5 96T152 979q0 168 141.5 270.5T723 1352q176 0 302.5-34.5t198-98 104-142.5 32.5-178v-18h-211v18q0 147-106 211t-318 64q-102 0-182-19t-130.5-62T362 989q0-65 54-104.5T602 819zm-739 974h186l297-202 291 202h187l-406-270H668z"/><glyph glyph-name="uni0162" unicode="Ţ" horiz-adv-x="1646" d="M715 0v1528H43v192h1561v-192H930V0h-60l-32-129q223 27 223-127 0-42-19.5-73T990-378t-82.5-28.5-101.5-14-120-3.5l2 88q142 0 200 14.5t58 61.5q0 49-57 58.5T725-209L774 0h-59z"/><glyph glyph-name="uni0163" unicode="ţ" horiz-adv-x="1159" d="M1061 1331v-180H602V451q0-57 2-93.5t9-70 19-51.5 33-32 49.5-19 69.5-5h277V0H807l-27-109q224 27 224-127 0-52-27.5-86.5t-83-51.5-116-23-148.5-6l2 88q142 0 200 14t58 61q0 49-57 59t-164-7L713 0q-79 3-135 22.5t-90.5 52-54.5 85T406 271t-7 143v737H23v180h143q151 0 212.5 95.5T438 1720h203q0-163-42-265.5T485 1331h576z"/><glyph glyph-name="Tcaron" unicode="Ť" horiz-adv-x="1646" d="M715 0v1528H43v192h1561v-192H930V0H715zM342 2114h186l297-203 291 203h187l-406-271H754z"/><glyph glyph-name="tcaron" unicode="ť" horiz-adv-x="1159" d="M1061 1331v-180H602V451q0-57 2-93.5t9-70 19-51.5 33-32 49.5-19 69.5-5h277V0H741q-86 0-147 18t-99 49.5-59.5 85-29 114T399 414v737H23v180h143q151 0 212.5 95.5T438 1720h203q0-163-42-265.5T485 1331h576zm-299 137l127 453h155l-176-453H762z"/><glyph glyph-name="Tbar" unicode="Ŧ" horiz-adv-x="1714" d="M750 0v725H229v117h521v686H78v192h1560v-192H965V842h520V725H965V0H750z"/><glyph glyph-name="tbar" unicode="ŧ" horiz-adv-x="1193" d="M1094 1331v-180H635V786h448V668H635V451q0-57 2-93.5t9-70 19-51.5 33-32 49.5-19 69.5-5h277V0H774q-86 0-147 18t-99 49.5-59.5 85-29 114T432 414v254H59v118h373v365H55v180h144q151 0 212.5 95.5T471 1720h203q0-163-42-265.5T518 1331h576z"/><glyph glyph-name="Utilde" unicode="Ũ" horiz-adv-x="1951" d="M977-20q-281 0-449.5 73.5T282 282t-77 412v1026h215V694q0-155 34.5-258T563 276t171.5-79.5T977 174q113 0 196 13.5t153.5 48.5 113.5 93.5 66.5 149T1530 694v1026h215V694q0-196-43-331t-137.5-221T1327 18 977-20zM489 1847q0 102 69 169t200 67q61 0 110-16.5t82-39.5 64.5-46 75-39.5 96.5-16.5q85 0 129.5 39t44.5 104h102q0-106-71-170.5t-207-64.5q-66 0-118 16.5t-85.5 39.5-64.5 46-70.5 39.5T758 1991q-81 0-123.5-42T592 1847H489z"/><glyph glyph-name="utilde" unicode="ũ" d="M1233 0v254q-72-121-199.5-197.5T723-20q-254 0-401.5 152T174 553v778h207V578q0-206 102-312t295-106q110 0 194.5 33t132.5 81 78.5 111.5 40 115 9.5 99.5v731h205V0h-205zM297 1458q0 102 68.5 169t199.5 67q61 0 110-16.5t82-39.5 64.5-46 75-39.5T993 1536q85 0 129.5 39t44.5 104h103q0-106-71.5-170.5T991 1444q-66 0-118 16.5t-85.5 39.5-64.5 46-70.5 39.5T565 1602q-81 0-123.5-42T399 1458H297z"/><glyph glyph-name="Umacron" unicode="Ū" horiz-adv-x="1951" d="M977-20q-281 0-449.5 73.5T282 282t-77 412v1026h215V694q0-155 34.5-258T563 276t171.5-79.5T977 174q113 0 196 13.5t153.5 48.5 113.5 93.5 66.5 149T1530 694v1026h215V694q0-196-43-331t-137.5-221T1327 18 977-20zM418 1917v82h1116v-82H418z"/><glyph glyph-name="umacron" unicode="ū" d="M1233 0v254q-72-121-199.5-197.5T723-20q-254 0-401.5 152T174 553v778h207V578q0-206 102-312t295-106q110 0 194.5 33t132.5 81 78.5 111.5 40 115 9.5 99.5v731h205V0h-205zM225 1528v82h1116v-82H225z"/><glyph glyph-name="Ubreve" unicode="Ŭ" horiz-adv-x="1951" d="M977-20q-281 0-449.5 73.5T282 282t-77 412v1026h215V694q0-155 34.5-258T563 276t171.5-79.5T977 174q113 0 196 13.5t153.5 48.5 113.5 93.5 66.5 149T1530 694v1026h215V694q0-196-43-331t-137.5-221T1327 18 977-20zM479 2083h103q0-44 27.5-73.5t82-46T815 1940t164-7q195 0 293 33t98 117h103q0-69-33-116.5t-99.5-74-153.5-38-208-11.5-208.5 11.5-155.5 38-102 74-34 116.5z"/><glyph glyph-name="ubreve" unicode="ŭ" d="M1233 0v254q-72-121-199.5-197.5T723-20q-254 0-401.5 152T174 553v778h207V578q0-206 102-312t295-106q110 0 194.5 33t132.5 81 78.5 111.5 40 115 9.5 99.5v731h205V0h-205zM287 1694h102q0-44 27.5-73.5t82-46T622 1551t164-7q195 0 293.5 33t98.5 117h102q0-69-33-116.5t-99.5-74-153.5-38-208-11.5-208.5 11.5-155 38-101.5 74-34 116.5z"/><glyph glyph-name="Uring" unicode="Ů" horiz-adv-x="1951" d="M977-20q-281 0-449.5 73.5T282 282t-77 412v1026h215V694q0-155 34.5-258T563 276t171.5-79.5T977 174q113 0 196 13.5t153.5 48.5 113.5 93.5 66.5 149T1530 694v1026h215V694q0-196-43-331t-137.5-221T1327 18 977-20zM811 1978q0 71 49.5 118.5T977 2144t116.5-47.5T1143 1978t-49.5-118.5T977 1812t-116.5 47.5T811 1978zm86 0q0-37 21-58.5t59-21.5 59 21.5 21 58.5-21 58.5-59 21.5-59-21.5-21-58.5z"/><glyph glyph-name="uring" unicode="ů" d="M1233 0v254q-72-121-199.5-197.5T723-20q-254 0-401.5 152T174 553v778h207V578q0-206 102-312t295-106q110 0 194.5 33t132.5 81 78.5 111.5 40 115 9.5 99.5v731h205V0h-205zM618 1589q0 71 49.5 118.5T784 1755t116.5-47.5T950 1589t-49.5-118.5T784 1423t-116.5 47.5T618 1589zm87 0q0-37 20.5-58.5T784 1509t59 21.5 21 58.5-21 58.5-59 21.5-58.5-21.5T705 1589z"/><glyph glyph-name="Uhungarumlaut" unicode="Ű" horiz-adv-x="1951" d="M977-20q-281 0-449.5 73.5T282 282t-77 412v1026h215V694q0-155 34.5-258T563 276t171.5-79.5T977 174q113 0 196 13.5t153.5 48.5 113.5 93.5 66.5 149T1530 694v1026h215V694q0-196-43-331t-137.5-221T1327 18 977-20zM770 1843l258 230h131l-237-230H770zm270 0l258 230h132l-238-230h-152z"/><glyph glyph-name="uhungarumlaut" unicode="ű" d="M1233 0v254q-72-121-199.5-197.5T723-20q-254 0-401.5 152T174 553v778h207V578q0-206 102-312t295-106q110 0 194.5 33t132.5 81 78.5 111.5 40 115 9.5 99.5v731h205V0h-205zM578 1454l258 229h131l-238-229H578zm270 0l258 229h131l-238-229H848z"/><glyph glyph-name="Uogonek" unicode="Ų" horiz-adv-x="1951" d="M977-20q-281 0-449.5 73.5T282 282t-77 412v1026h215V694q0-155 34.5-258T563 276t171.5-79.5T977 174q113 0 196 13.5t153.5 48.5 113.5 93.5 66.5 149T1530 694v1026h215V694q0-320-119.5-485T1241 0q-116-36-171.5-82T1014-193q0-63 56.5-90.5T1260-311h14l-82-99h-12q-128 0-204.5 45.5T899-231q0 142 195 215-74-4-117-4z"/><glyph glyph-name="uogonek" unicode="ų" d="M1233 0v254q-72-121-199.5-197.5T723-20q-254 0-401.5 152T174 553v778h207V578q0-206 102-312t295-106q110 0 194.5 33t132.5 81 78.5 111.5 40 115 9.5 99.5v731h205V0h2q-118-36-174-82t-56-111q0-63 56.5-90.5T1456-311h14l-81-99h-13q-128 0-204 45.5T1096-231q0 48 20.5 87.5t58 66.5 77.5 44.5T1343 0h-110z"/><glyph glyph-name="Wcircumflex" unicode="Ŵ" horiz-adv-x="2713" d="M610 0L53 1720h223L745 242l476 1478h270l477-1470 4-10 2 8 463 1472h223L2105 0h-266l-477 1473-4 14-4-14L874 0H610zm348 1864l330 270h144l323-270h-166l-229 196-236-196H958z"/><glyph glyph-name="wcircumflex" unicode="ŵ" horiz-adv-x="2236" d="M719 1475l330 270h143l324-270h-166l-230 196-235-196H719zM51 1331h209L608 178l357 1153h307l358-1153 346 1153h209L1767 0h-272l-377 1178L741 0H469z"/><glyph glyph-name="Ycircumflex" unicode="Ŷ" horiz-adv-x="1773" d="M780 0v602L14 1720h254l619-925 618 925h254L993 602V0H780zM487 1864l330 270h144l323-270h-166l-229 196-236-196H487z"/><glyph glyph-name="ycircumflex" unicode="ŷ" horiz-adv-x="1632" d="M1233 33v221q-72-121-199.5-197.5T723-20q-254 0-401.5 152T174 553v778h207V578q0-206 102-312t295-106q110 0 194.5 33t132.5 81 78.5 111.5 40 115 9.5 99.5v731h207V23q0-264-111-389.5T991-492H201v181h770q144 0 203 75.5T1233 33zM414 1475l329 270h144l323-270h-166l-229 196-235-196H414z"/><glyph glyph-name="Ydieresis" unicode="Ÿ" horiz-adv-x="1773" d="M780 0v602L14 1720h254l619-925 618 925h254L993 602V0H780zM496 1968q0 57 34.5 89t87.5 32q50 0 86.5-32.5T741 1968q0-52-36.5-84.5T618 1851q-52 0-87 32t-35 85zm536 0q0 57 35 89t88 32q50 0 86.5-32.5t36.5-88.5q0-52-36.5-84.5T1155 1851q-52 0-87.5 32t-35.5 85z"/><glyph glyph-name="Zacute" unicode="Ź" horiz-adv-x="1667" d="M104 0v195l1180 1333H104v192h1459v-194L383 193h1180V0H104zm232 1962l973 152 18-80-973-152z"/><glyph glyph-name="zacute" unicode="ź" horiz-adv-x="1433" d="M102 1331h1229v-178L352 178h994V0H86v178l981 975H102v178zm115 242l973 151 18-79-972-152z"/><glyph glyph-name="Zdotaccent" unicode="Ż" horiz-adv-x="1667" d="M104 0v195l1180 1333H104v192h1459v-194L383 193h1180V0H104zm603 1954q0 50 34 83.5t93 33.5 93-33.5 34-83.5q0-48-34-80.5t-93-32.5-93 32.5-34 80.5z"/><glyph glyph-name="zdotaccent" unicode="ż" horiz-adv-x="1433" d="M102 1331h1229v-178L352 178h994V0H86v178l981 975H102v178zm473 287q0 55 37 89t103 34 103.5-34 37.5-89q0-51-38-85t-103-34-102.5 34-37.5 85z"/><glyph glyph-name="Zcaron" unicode="Ž" horiz-adv-x="1667" d="M104 0v195l1180 1333H104v192h1459v-194L383 193h1180V0H104zm248 2114h187l297-203 290 203h187l-406-271H764z"/><glyph glyph-name="zcaron" unicode="ž" horiz-adv-x="1433" d="M102 1331h1229v-178L352 178h994V0H86v178l981 975H102v178zm131 393h187l297-202 291 202h186l-406-270H645z"/><glyph glyph-name="uni0218" unicode="Ș" horiz-adv-x="1779" d="M930-20q-413 0-618.5 157.5T106 598v20h222v-20q0-219 147.5-322.5T936 172q257 0 379.5 72.5T1438 471q0 60-18 105t-47.5 74.5-83 52-107.5 36-138 27.5l-387 72q-83 15-150 36t-130.5 56-106 80.5T202 1123t-26 149q0 228 183 348.5T874 1741q360 0 549-142t189-403v-20h-221v20q0 175-125 263.5T877 1548q-234 0-357-68.5T397 1278q0-62 28.5-108.5t83-76.5 114.5-48 143-33l399-72q72-12 130.5-28t117-40.5 101.5-60 76.5-81.5 51-109 17.5-140q0-259-178-380T930-20zM829-172q0 42 29 71t74 29q47 0 74.5-30.5T1034-193q0-71-45-134.5T856-434v84q102 39 125 119-26-33-66-33-35 0-60.5 25.5T829-172z"/><glyph glyph-name="uni0219" unicode="ș" horiz-adv-x="1505" d="M995 750q115-20 195.5-55t125-83 64-103 19.5-124q0-94-32-166.5t-102-127-188-83T795-20Q639-20 519 3T319.5 67.5 189.5 171t-72 136.5T96 475v19h211v-19q0-170 116.5-243.5T791 158q397 0 397 213 0 82-66 134t-215 79l-358 59q-112 17-191 49t-123 77-63.5 96T152 979q0 168 141.5 270.5T723 1352q176 0 302.5-34.5t198-98 104-142.5 32.5-178v-18h-211v18q0 147-106 211t-318 64q-102 0-182-19t-130.5-62T362 989q0-65 54-104.5T602 819zM680-172q0 42 28.5 71T782-72q47 0 75-30.5t28-90.5q0-71-45-134.5T707-434v84q101 38 124 119-26-33-65-33-35 0-60.5 25.5T680-172z"/><glyph glyph-name="uni021A" unicode="Ț" horiz-adv-x="1646" d="M715 0v1528H43v192h1561v-192H930V0H715zm4-172q0 42 28.5 71T821-72q47 0 75-30.5t28-90.5q0-71-45.5-134.5T745-434v84q102 39 125 119-26-33-65-33-35 0-60.5 25.5T719-172z"/><glyph glyph-name="uni021B" unicode="ț" horiz-adv-x="1159" d="M1061 1331v-180H602V451q0-57 2-93.5t9-70 19-51.5 33-32 49.5-19 69.5-5h277V0H741q-86 0-147 18t-99 49.5-59.5 85-29 114T399 414v737H23v180h143q151 0 212.5 95.5T438 1720h203q0-163-42-265.5T485 1331h576zM662-152q0 42 28.5 71.5T764-51q47 0 74.5-30.5T866-172q0-72-45-135.5T688-414v84q102 39 125 119-26-33-65-33-35 0-60.5 25.5T662-152z"/><glyph glyph-name="uni0237" unicode="ȷ" horiz-adv-x="593" d="M195-12v1343h204V-47q0-132-24-219t-77.5-136.5T170-472t-184-20h-244v181h199q83 0 129.5 10.5t76 45 39 89.5T195-12z"/><glyph glyph-name="circumflex" unicode="ˆ" horiz-adv-x="1206" d="M205 1475l330 270h143l323-270H836l-230 196-235-196H205z"/><glyph glyph-name="caron" unicode="ˇ" horiz-adv-x="1370" d="M616 1454l-411 270h186l297-202 291 202h186l-405-270H616z"/><glyph glyph-name="breve" unicode="˘" horiz-adv-x="1402" d="M705 1454q-121 0-208.5 11.5t-155.5 38-102 74-34 116.5h102q0-44 27.5-73.5t82.5-46 124-23.5 164-7q195 0 293 33t98 117h102q0-69-33-116.5t-99.5-74-153-38T705 1454z"/><glyph glyph-name="dotaccent" unicode="˙" horiz-adv-x="690" d="M344 1499q-65 0-102 33.5t-37 85.5q0 55 36.5 89t102.5 34 103.5-34 37.5-89q0-51-38-85t-103-34z"/><glyph glyph-name="ring" unicode="˚" horiz-adv-x="741" d="M371 1423q-67 0-116.5 47.5T205 1589t49.5 118.5T371 1755t116.5-47.5T537 1589t-49.5-118.5T371 1423zm-80 166q0-37 21-58.5t59-21.5 59 21.5 21 58.5-21 58.5-59 21.5-59-21.5-21-58.5z"/><glyph glyph-name="ogonek" unicode="˛" horiz-adv-x="776" d="M477-410q-128 0-204 45.5T197-231q0 48 20.5 87.5t58 66.5T353-32.5 444 0h97Q423-36 367-82t-56-111q0-63 56.5-90.5T557-311h14l-82-99h-12z"/><glyph glyph-name="tilde" unicode="˜" horiz-adv-x="1382" d="M205 1458q0 102 68.5 169t199.5 67q61 0 110-16.5t82-39.5 64.5-46 75-39.5T901 1536q85 0 129.5 39t44.5 104h103q0-106-71.5-170.5T899 1444q-66 0-118 16.5t-85.5 39.5-64.5 46-70.5 39.5T473 1602q-81 0-123.5-42T307 1458H205z"/><glyph glyph-name="hungarumlaut" unicode="˝" horiz-adv-x="1069" d="M627 1454H475l258 229h131zm-422 0l258 229h131l-238-229H205z"/><glyph glyph-name="uni1E20" unicode="Ḡ" horiz-adv-x="2019" d="M983-20q-204 0-368.5 69.5t-270 190T183 519t-56 343q0 145 35 275.5t107.5 241 175.5 191 247.5 126T1008 1741q146 0 275.5-35t227.5-97 172-146 116-183.5 52-208.5l2-22h-225l-2 22q-19 214-184 342.5T1014 1542q-171 0-301-53t-208.5-147T387 1127t-39-265q0-149 39.5-272.5t116.5-216 200-144T985 178q272 0 445 138t194 384H838v181h1015V0h-153l-25 354q-93-172-268-273T983-20zM451 1917v82h1116v-82H451z"/><glyph glyph-name="uni1E21" unicode="ḡ" horiz-adv-x="1669" d="M1272 63v160q-25-43-65.5-82.5T1106 63 959 2.5 772-20q-201 0-351.5 88.5T191.5 311 113 662v8q0 202 79.5 356.5t228.5 240 347 85.5q100 0 186.5-23t147-61.5T1202 1191t70-81v221h205V35q0-137-24-232.5t-79.5-163-148-99.5T999-492H186v181h793q89 0 145.5 19t89.5 65.5 45.5 114T1272 63zM223 1528v82h1116v-82H223zm101-866q0-143 51.5-254.5T536 229t263-67q223 0 348 134t125 361v17q0 227-124.5 361T797 1169q-154 0-262.5-66T375 926t-51-256v-8z"/><glyph glyph-name="Wgrave" unicode="Ẁ" horiz-adv-x="2713" d="M610 0L53 1720h223L745 242l476 1478h270l477-1470 4-10 2 8 463 1472h223L2105 0h-266l-477 1473-4 14-4-14L874 0H610zm189 1993l20 80 1096-152-21-80z"/><glyph glyph-name="wgrave" unicode="ẁ" horiz-adv-x="2236" d="M1675 1532l-20-80-1096 152 21 79zM51 1331h209L608 178l357 1153h307l358-1153 346 1153h209L1767 0h-272l-377 1178L741 0H469z"/><glyph glyph-name="Wacute" unicode="Ẃ" horiz-adv-x="2713" d="M610 0L53 1720h223L745 242l476 1478h270l477-1470 4-10 2 8 463 1472h223L2105 0h-266l-477 1473-4 14-4-14L874 0H610zm250 1962l973 152 18-80-972-152z"/><glyph glyph-name="wacute" unicode="ẃ" horiz-adv-x="2236" d="M639 1493l-18 80 972 151 19-79zM51 1331h209L608 178l357 1153h307l358-1153 346 1153h209L1767 0h-272l-377 1178L741 0H469z"/><glyph glyph-name="Wdieresis" unicode="Ẅ" horiz-adv-x="2713" d="M610 0L53 1720h223L745 242l476 1478h270l477-1470 4-10 2 8 463 1472h223L2105 0h-266l-477 1473-4 14-4-14L874 0H610zm357 1968q0 57 35 89t88 32q50 0 86-32.5t36-88.5q0-52-36.5-84.5T1090 1851q-52 0-87.5 32t-35.5 85zm536 0q0 57 35 89t88 32q50 0 86.5-32.5t36.5-88.5q0-52-36.5-84.5T1626 1851q-52 0-87.5 32t-35.5 85z"/><glyph glyph-name="wdieresis" unicode="ẅ" horiz-adv-x="2236" d="M1386 1462q-52 0-87 32t-35 85q0 57 34.5 89t87.5 32q50 0 86.5-32.5t36.5-88.5q0-52-36.5-84.5T1386 1462zM51 1331h209L608 178l357 1153h307l358-1153 346 1153h209L1767 0h-272l-377 1178L741 0H469zm676 248q0 57 35 89t88 32q50 0 86.5-32.5T973 1579q0-52-36.5-84.5T850 1462q-52 0-87.5 32t-35.5 85z"/><glyph glyph-name="uni1E9E" unicode="ẞ" horiz-adv-x="1724" d="M211 1235q0 251 161 368t502 117h695q-23-160-45.5-268.5t-51-195.5-66-139.5-85-85T1208 983q183-30 275-148.5t92-310.5v-2q0-144-41-246t-120-162-184-87T985 0H575v178h324q131 0 214.5 15t143.5 55.5 85.5 110.5 25.5 180v2q0 67-11.5 116t-43 94-85 73-140.5 44.5T881 885H575v178h285q89 0 151.5 8t112.5 32 82 55.5 60 90.5 46.5 124.5T1354 1542H874q-245 0-351.5-71T416 1235V0H211v1235z"/><glyph glyph-name="uni1EBC" unicode="Ẽ" horiz-adv-x="1689" d="M223 0v1720h1323v-192H438V956h1049V764H438V193h1108V0H223zm174 1847q0 102 69 169t200 67q61 0 110-16.5t82-39.5 64.5-46 75-39.5 96.5-16.5q85 0 129.5 39t44.5 104h102q0-106-71-170.5t-207-64.5q-66 0-118 16.5t-85.5 39.5-64.5 46-70.5 39.5T666 1991q-81 0-123.5-42T500 1847H397z"/><glyph glyph-name="uni1EBD" unicode="ẽ" horiz-adv-x="1583" d="M307 1458q0 102 68.5 169t199.5 67q61 0 110-16.5t82-39.5 65-46 75.5-39.5 96.5-16.5q85 0 129.5 39t44.5 104h102q0-106-71.5-170.5T1001 1444q-66 0-118 16.5t-85.5 39.5-64.5 46-70.5 39.5T575 1602q-81 0-123-41.5T410 1458H307zM113 664v8q0 316 178.5 498T809 1352q308 0 484.5-169T1470 690v-63H326q9-220 130-342.5T809 162q184 0 289 74.5T1223 424l4 14h225l-2-14q-31-196-197-320T807-20q-338 0-516 182T113 664zm221 118h921l-2 4q-13 190-131 286.5T803 1169q-208 0-325-100.5T334 782z"/><glyph glyph-name="Ygrave" unicode="Ỳ" horiz-adv-x="1773" d="M780 0v602L14 1720h254l619-925 618 925h254L993 602V0H780zM328 1993l20 80 1096-152-21-80z"/><glyph glyph-name="ygrave" unicode="ỳ" horiz-adv-x="1632" d="M1233 33v221q-72-121-199.5-197.5T723-20q-254 0-401.5 152T174 553v778h207V578q0-206 102-312t295-106q110 0 194.5 33t132.5 81 78.5 111.5 40 115 9.5 99.5v731h207V23q0-264-111-389.5T991-492H201v181h770q144 0 203 75.5T1233 33zM254 1604l20 79 1096-151-20-80z"/><glyph glyph-name="uni1EF8" unicode="Ỹ" horiz-adv-x="1773" d="M780 0v602L14 1720h254l619-925 618 925h254L993 602V0H780zM399 1847q0 102 69 169t200 67q61 0 110-16.5t82-39.5 64.5-46 75-39.5 96.5-16.5q85 0 129.5 39t44.5 104h102q0-106-71-170.5t-207-64.5q-66 0-118 16.5t-85.5 39.5-64.5 46-70.5 39.5T668 1991q-81 0-123.5-42T502 1847H399z"/><glyph glyph-name="uni1EF9" unicode="ỹ" horiz-adv-x="1632" d="M1233 33v221q-72-121-199.5-197.5T723-20q-254 0-401.5 152T174 553v778h207V578q0-206 102-312t295-106q110 0 194.5 33t132.5 81 78.5 111.5 40 115 9.5 99.5v731h207V23q0-264-111-389.5T991-492H201v181h770q144 0 203 75.5T1233 33zM326 1458q0 102 68.5 169t199.5 67q61 0 110-16.5t82-39.5 64.5-46 75-39.5 96.5-16.5q85 0 129.5 39t44.5 104h102q0-106-71-170.5t-207-64.5q-66 0-118 16.5t-85.5 39.5-64.5 46-70.5 39.5T594 1602q-81 0-123.5-42T428 1458H326z"/><glyph glyph-name="uni2000" horiz-adv-x="1024"/><glyph glyph-name="uni2001" horiz-adv-x="2048"/><glyph glyph-name="uni2002" horiz-adv-x="1024"/><glyph glyph-name="uni2003" horiz-adv-x="2048"/><glyph glyph-name="uni2004" horiz-adv-x="681"/><glyph glyph-name="uni2005" horiz-adv-x="512"/><glyph glyph-name="uni2006" horiz-adv-x="342"/><glyph glyph-name="uni2007" horiz-adv-x="1953"/><glyph glyph-name="uni2008" horiz-adv-x="550"/><glyph glyph-name="uni2009" horiz-adv-x="256"/><glyph glyph-name="uni200A" horiz-adv-x="86"/><glyph glyph-name="uni200B" unicode="​" horiz-adv-x="0"/><glyph glyph-name="endash" unicode="–" horiz-adv-x="2025" d="M121 721h1782v-86H121v86z"/><glyph glyph-name="emdash" unicode="—" horiz-adv-x="3315" d="M121 721h3072v-88H121v88z"/><glyph glyph-name="quoteleft" unicode="‘" horiz-adv-x="466" d="M248 1229H119l143 512h109z"/><glyph glyph-name="quoteright" unicode="’" horiz-adv-x="460" d="M246 1741h129l-144-512H123z"/><glyph glyph-name="quotesinglbase" unicode="‚" horiz-adv-x="471" d="M195 268h129L180-244H72z"/><glyph glyph-name="quotedblleft" unicode="“" horiz-adv-x="712" d="M494 1229H365l143 512h108zm-375 0l143 512h109l-123-512H119z"/><glyph glyph-name="quotedblright" unicode="”" horiz-adv-x="706" d="M246 1741h129l-144-512H123zm123-512l123 512h129l-144-512H369z"/><glyph glyph-name="quotedblbase" unicode="„" horiz-adv-x="716" d="M195 268h129L180-244H72zm122-512l123 512h129L426-244H317z"/><glyph glyph-name="dagger" unicode="†" horiz-adv-x="653" d="M274 668v632H158v99h116v321h103v-321h117v-99H377V668H274z"/><glyph glyph-name="daggerdbl" unicode="‡" horiz-adv-x="688" d="M293 668v299H176v98h117v235H176v97h117v323h102v-323h117v-97H395v-235h117v-98H395V668H293z"/><glyph glyph-name="bullet" unicode="•" horiz-adv-x="923" d="M459 467q-102 0-172 68t-70 174q0 110 70 178.5T459 956q105 0 177.5-68.5T709 709q0-105-72.5-173.5T459 467z"/><glyph glyph-name="ellipsis" unicode="…" horiz-adv-x="1398" d="M274-20q-60 0-100.5 39.5T133 121q0 65 40.5 105T274 266q62 0 104-40t42-105q0-62-42.5-101.5T274-20zm289 141q0 65 41 105t101 40q61 0 103-40t42-105q0-62-42-101.5T705-20q-60 0-101 39.5T563 121zm420 0q0 65 40.5 105t100.5 40q62 0 104-40t42-105q0-62-42.5-101.5T1124-20q-60 0-100.5 39.5T983 121z"/><glyph glyph-name="uni202F" horiz-adv-x="522"/><glyph glyph-name="perthousand" unicode="‰" horiz-adv-x="2854" d="M2419-20q-171 0-279 115t-108 267q0 99 46 185.5t136 142 205 55.5 205-55.5 136-142 46-185.5q0-152-108-267T2419-20zM68 1358q0 152 108 267.5T455 1741q115 0 206-56t137-142.5 46-184.5q0-99-46-185.5t-136.5-142T455 975q-115 0-205 55.5t-136 142T68 1358zm174 0q0-96 61-158.5t152-62.5q93 0 154 62.5t61 158.5-61 158.5-154 62.5q-91 0-152-62.5T242 1358zM262 0l1305 1720h143L406 0H262zm875 362q0 99 46 185.5t136 142 205 55.5q116 0 206.5-55.5t136.5-142 46-185.5q0-73-27.5-141.5t-76.5-122-123.5-86T1524-20q-171 0-279 115t-108 267zm174 0q0-96 61-158.5t152-62.5q93 0 154 62.5t61 158.5-61 159-154 63q-91 0-152-63t-61-159zm893 0q0-96 61.5-158.5T2419 141t153.5 62.5T2634 362t-62 159-153 63-153-63-62-159z"/><glyph glyph-name="second" unicode="″" horiz-adv-x="714" d="M162 1720h129v-512H162v512zm264-512v512h129v-512H426z"/><glyph glyph-name="guilsinglleft" unicode="‹" horiz-adv-x="858" d="M670 276L119 635v82l551 358V926L268 676l402-250V276z"/><glyph glyph-name="guilsinglright" unicode="›" horiz-adv-x="858" d="M188 276v150l404 250-404 250v149l551-358v-82z"/><glyph glyph-name="fraction" unicode="⁄" horiz-adv-x="245" d="M834 1720L-471 0h-117L717 1720h117z"/><glyph glyph-name="uni205F" horiz-adv-x="454"/><glyph glyph-name="uni2070" unicode="⁰" horiz-adv-x="976" d="M489 707q-196 0-303.5 118T78 1149q0 203 108 320.5T489 1587q193 0 301.5-117.5T899 1149q0-206-107.5-324T489 707zm-264 442q0-107 35-182l389 442q-62 47-160 47-131 0-197.5-80.5T225 1149zm105-266q64-45 159-45 130 0 196.5 80.5T752 1149q0 103-35 178z"/><glyph glyph-name="uni2074" unicode="⁴" horiz-adv-x="917" d="M733 1577v-567h125V879H733V717H588v162H45v131l543 567h145zm-532-567h387v395z"/><glyph glyph-name="uni2075" unicode="⁵" horiz-adv-x="940" d="M518 1294q163 0 256.5-75.5T868 997q-1-143-102-216.5T477 707q-190 0-292.5 71.5T82 991h147q0-153 250-153 119 0 179.5 39.5T719 1004q0 167-238 167-169 0-252-100H90l37 506h702v-129H256l-23-250q117 96 285 96z"/><glyph glyph-name="uni2076" unicode="⁶" horiz-adv-x="954" d="M483 707q-204 0-299.5 84.5T88 1053v135q0 204 98 301.5t308 97.5q175 0 264.5-66t89.5-190H700q0 125-202 125-130 0-196-51.5T236 1243v-33q89 95 270 95 173 0 272-79.5t99-219.5q0-299-394-299zm-247 303q0-90 59-131t186-41q126 0 187 40.5t61 127.5q0 89-58 128.5T489 1174q-253 0-253-164z"/><glyph glyph-name="uni2077" unicode="⁷" horiz-adv-x="819" d="M29 1448v129h749v-129q-76-43-136.5-94t-101-100-70-107-46-108T399 928.5t-11.5-106T385 719v-2H238v2q0 67 4 121t15 127 36 135 63.5 126T457 1348.5t143 99.5H29z"/><glyph glyph-name="uni2078" unicode="⁸" horiz-adv-x="948" d="M475 707q-200 0-298.5 66.5T78 963q0 86 42.5 143t117.5 76q-62 18-99 64.5T102 1362q0 108 96 166.5t279 58.5 276-58 95-169q-1-69-38-114.5t-99-63.5q76-19 118-75.5T872 963q-2-123-100-189.5T475 707zM225 975q0-78 57.5-113T475 827q133 0 190.5 35T725 975q-1 76-59 108.5T475 1116t-191.5-32.5T225 975zm25 377q0-58 55-84.5t170-26.5q114 0 169 27t56 86q-2 58-55 85t-170 27q-118 0-171.5-27t-53.5-87z"/><glyph glyph-name="uni2079" unicode="⁹" horiz-adv-x="952" d="M471 1587q202 0 298.5-84.5T866 1241v-133q0-205-97.5-303T461 707q-177 0-267 66t-90 190h148q0-125 205-125 262 0 262 213v32q-88-94-273-94-172 0-271 79.5T76 1288q0 299 395 299zm-248-299q1-89 59.5-128.5T465 1120q254 0 254 164 0 90-59.5 131T473 1456t-188.5-40.5T223 1288z"/><glyph glyph-name="uni2080" unicode="₀" horiz-adv-x="976" d="M487-266q-196 0-303.5 118T76 176q0 203 108 320.5T487 614q193 0 301.5-117.5T897 176q0-206-107.5-324T487-266zM223 176q0-107 35-182l389 442q-62 47-160 47-131 0-197.5-80.5T223 176zM328-90q64-45 159-45 130 0 196.5 80.5T750 176q0 103-35 178z"/><glyph glyph-name="uni2081" unicode="₁" horiz-adv-x="745" d="M82-127h248v580q-107-72-250-72v135q78 0 141.5 18T338 604h135v-731h248v-129H82v129z"/><glyph glyph-name="uni2082" unicode="₂" horiz-adv-x="954" d="M84-119Q84-57 96.5-8.5t44 93 92 74T381 199l143 18q105 14 153 43t48 92v2q0 66-56.5 97.5T494 483q-137 0-194.5-45T242 295v-2H94v2q0 157 95 238t300 81q189 0 286-66.5T872 350q0-113-70.5-173.5T598 96L446 76q-75-11-119.5-27T261 5t-26.5-55.5T229-127h643v-129H84v137z"/><glyph glyph-name="uni2083" unicode="₃" horiz-adv-x="935" d="M463-266q-203 0-298 69T66 27h147q4-92 63-129t185-37q134 0 190 32.5T707-6q0 72-58 99.5T469 121H336v121h133q115 0 170 27.5t55 92.5q0 125-231 125-114 0-170.5-34.5T233 332H86q7 148 101.5 215T467 614q373 0 373-241 2-70-38-124.5T690 180q78-15 121-67t43-127q0-127-96-189.5T463-266z"/><glyph glyph-name="uni2084" unicode="₄" horiz-adv-x="919" d="M735 604V37h125V-94H735v-162H590v162H47V37l543 567h145zM203 37h387v395z"/><glyph glyph-name="uni2085" unicode="₅" horiz-adv-x="940" d="M518 322q163 0 256.5-75.5T868 25q-1-143-102-217t-289-74q-190 0-292.5 71.5T82 18h147q0-153 250-153 119 0 179.5 39.5T719 31q0 168-238 168-168 0-252-101H90l37 506h702V475H256l-23-250q118 97 285 97z"/><glyph glyph-name="uni2086" unicode="₆" horiz-adv-x="954" d="M483-266q-204 0-299.5 84.5T88 80v135q0 204 98 301.5T494 614q175 0 264.5-66T848 358H700q0 125-202 125-130 0-196-51.5T236 270v-32q88 94 270 94 173 0 272-79.5T877 33q0-299-394-299zM236 37q0-90 59-131t186-41q126 0 187 40.5T729 33q0 89-58 128.5T489 201q-253 0-253-164z"/><glyph glyph-name="uni2087" unicode="₇" horiz-adv-x="815" d="M25 475v129h749V475q-76-43-136.5-94t-101-100-70-107-46-108T395-44.5t-11.5-106T381-254v-2H233v2q0 56 2.5 102t11 108.5T270 71t42.5 111.5 64.5 109 93 98T596 475H25z"/><glyph glyph-name="uni2088" unicode="₈" horiz-adv-x="948" d="M475-266q-200 0-298.5 66.5T78-10q0 86 42.5 143T238 209q-62 18-99 64.5T102 389q0 108 96 166.5T477 614t276-58 95-169q-1-69-38-114.5T711 209q76-19 118-75.5T872-10q-2-123-100-189.5T475-266zM225 2q0-77 57.5-112T475-145q133 0 190.5 35T725 2q-1 76-59 108.5T475 143t-191.5-32.5T225 2zm25 377q0-58 55-84.5T475 268q114 0 169 27t56 86q-2 58-55 85.5T475 494q-118 0-171.5-27.5T250 379z"/><glyph glyph-name="uni2089" unicode="₉" horiz-adv-x="954" d="M471 614q202 0 298.5-84.5T866 268V135q0-205-97.5-303T461-266q-177 0-267 66T104-10h148q0-125 205-125 262 0 262 213v33q-89-95-273-95-172 0-271 79.5T76 315q0 299 395 299zM223 315q1-89 59.5-128.5T465 147q254 0 254 164 0 90-59.5 131T473 483t-188.5-40.5T223 315z"/><glyph glyph-name="Euro" unicode="€" horiz-adv-x="2021" d="M139 717v86h176q-2 20-2 59l2 56H139v86h183q14 126 53.5 236.5t107 202.5 158 158T853 1704t265 37q173 0 314.5-55.5t234.5-152 147.5-221T1880 1044l4-38h-225l-4 38q-7 104-44.5 193.5t-102.5 158-165 107.5-223 39q-132 0-236.5-40.5t-173.5-114T599.5 1218 543 1004h727v-86H537q-2-18-2-56l2-59h733v-86H543q16-120 57-216.5t110-170 172.5-113T1118 178q127 0 228 39.5T1511.5 327 1612 486.5t43 195.5l4 37h225l-4-37q-9-115-44.5-219t-100-192.5-152.5-153-207.5-101T1116-20q-177 0-321 56T554.5 192.5t-155 233T322 717H139z"/><glyph glyph-name="trademark" unicode="™" horiz-adv-x="1814" d="M782 903v817h162l260-614 262 614h158V903h-135v567l-242-567h-86l-243 563V903H782zM72 1583v137h657v-137H469V903H332v680H72z"/><glyph glyph-name="oneeighth" unicode="⅛" horiz-adv-x="2324" d="M113 989h247v580q-107-72-249-72v135q79 0 142 18t116 70h135V989h248V860H113v129zM375 0l1304 1720h117L492 0H375zm1079 246q0 86 42.5 143t117.5 76q-62 18-98.5 64.5T1479 645q0 108 95.5 166.5T1853 870t276-58 95-169q-1-69-38-114.5t-99-63.5q76-19 118.5-75.5T2249 246q-2-123-100.5-189.5T1851-10q-200 0-298.5 66.5T1454 246zm148 12q0-78 57-112.5t192-34.5q133 0 190.5 35t59.5 112q-1 76-59 108.5T1851 399t-191-32.5-58-108.5zm24 377q0-58 55-84.5t170-26.5q114 0 169.5 27t56.5 86q-2 58-55.5 85.5T1851 750q-118 0-171.5-27.5T1626 635z"/><glyph glyph-name="threeeighths" unicode="⅜" horiz-adv-x="2484" d="M477 850q-203 0-298 69t-99 224h147q4-92 63-129t185-37q134 0 190 32.5t56 100.5q0 72-58 99.5T483 1237H350v121h133q114 0 170 28t56 93q0 125-232 125-114 0-170-35t-59-121H100q7 148 101.5 215.5T481 1731q373 0 373-242 2-71-37.5-125T705 1296q78-15 120.5-67t42.5-127q0-127-96-189.5T477 850zM530 0l1305 1720h117L647 0H530zm1080 246q0 86 42 143t117 76q-62 18-98.5 64.5T1634 645q0 108 96 166.5t279 58.5 276-58 95-169q-1-69-38-114.5t-99-63.5q76-19 118-75.5t43-143.5q-2-123-100-189.5T2007-10q-200 0-298.5 66.5T1610 246zm147 12q0-77 57.5-112t192.5-35q133 0 190.5 35t59.5 112q-1 76-59 108.5T2007 399t-191.5-32.5T1757 258zm25 377q0-58 55-84.5t170-26.5q114 0 169 27t56 86q-2 58-55 85.5T2007 750q-118 0-171.5-27.5T1782 635z"/><glyph glyph-name="fiveeighths" unicode="⅝" horiz-adv-x="2469" d="M518 1438q163 0 256.5-75.5T868 1141q-1-143-102-217t-289-74q-190 0-292.5 72T82 1135h147q0-154 250-154 119 0 179.5 39.5T719 1147q0 168-238 168-168 0-252-101H90l37 506h702v-129H256l-23-250q118 97 285 97zM520 0l1305 1720h117L637 0H520zm1079 246q0 86 42.5 143t117.5 76q-62 18-98.5 64.5T1624 645q0 108 96 166.5t279 58.5 276-58 95-169q-1-68-38.5-114t-99.5-64q76-19 118.5-75.5T2394 246q-2-123-100-189.5T1997-10q-200 0-299 66.5T1599 246zm148 12q0-77 57.5-112t192.5-35q133 0 190.5 35t59.5 112q-1 76-59 108.5T1997 399t-191.5-32.5T1747 258zm25 377q0-58 55-84.5t170-26.5q114 0 169 27t56 86q-2 58-55 85.5T1997 750q-118 0-171.5-27.5T1772 635z"/><glyph glyph-name="seveneighths" unicode="⅞" horiz-adv-x="2369" d="M41 1591v129h750v-129q-76-43-136.5-94T553 1397t-70.5-107-45.5-108-25.5-110.5-12-106T397 862v-2H250v2q0 67 4 121t15 127 36 135 63.5 126T469 1491.5t143 99.5H41zM412 0l1304 1720h117L528 0H412zm1081 246q0 86 42.5 143t117.5 76q-62 18-98.5 64.5T1518 645q0 108 95.5 166.5T1892 870t276-58 95-169q-1-69-38-114.5t-99-63.5q76-19 118.5-75.5T2288 246q-2-123-100.5-189.5T1890-10q-200 0-298.5 66.5T1493 246zm147 12q0-77 57.5-112t192.5-35q133 0 190.5 35t59.5 112q-1 76-59 108.5T1890 399t-191.5-32.5T1640 258zm25 377q0-58 55-84.5t170-26.5q114 0 169.5 27t56.5 86q-2 58-55.5 85.5T1890 750q-118 0-171.5-27.5T1665 635z"/><glyph glyph-name="arrowleft" unicode="←" horiz-adv-x="1507" d="M315 631q129-42 221.5-147.5T666 236H551q-15 88-84 171.5T307 548t-186 83v90q95 26 186 83t160 140.5 84 171.5h115q-37-142-129.5-247.5T315 721h1065v-90H315z"/><glyph glyph-name="arrowup" unicode="↑" horiz-adv-x="1087" d="M588 18h-90v1065q-42-128-148-220.5T102 733v115q88 15 172 84t141 160 83 186h90q26-95 83-186t140.5-160T983 848V733q-142 37-247.5 129T588 1083V18z"/><glyph glyph-name="arrowright" unicode="→" horiz-adv-x="1507" d="M127 631v90h1065q-129 42-221 147.5T842 1116h114q15-88 84-171.5T1200 804t186-83v-90q-95-26-186-83t-160-140.5T956 236H842q37 142 129 247.5T1192 631H127z"/><glyph glyph-name="arrowdown" unicode="↓" horiz-adv-x="1093" d="M502 1335h90V270q42 129 147.5 221.5T987 621V506q-88-15-171.5-84T675 262 592 76h-90q-26 95-83 186T278 422t-172 84v115q142-37 248-129.5T502 270v1065z"/><glyph glyph-name="arrowboth" unicode="↔" horiz-adv-x="1945" d="M119 721q95 26 186 83t160 140.5 84 171.5h115q-37-142-129.5-247.5T313 721h1321q-129 42-221 147.5T1284 1116h115q15-88 84-171.5T1643 804t186-83v-90q-95-26-186-83t-160-140.5-84-171.5h-115q37 142 129 247.5T1634 631H313q129-42 221.5-147.5T664 236H549q-15 88-84 171.5T305 548t-186 83v90z"/><glyph glyph-name="arrowupdn" unicode="↕" horiz-adv-x="1105" d="M598 1479q26-95 83-186t140.5-160 171.5-84V934q-142 37-247.5 129T598 1284V-37q42 129 147.5 221T993 313V199q-88-15-171.5-84T681-45t-83-186h-90q-26 95-83 186T284.5 115 113 199v114q142-37 247.5-129T508-37v1321q-42-129-147.5-221T113 934v115q88 15 171.5 84T425 1293t83 186h90z"/><glyph glyph-name="uni2196" unicode="↖" horiz-adv-x="1183" d="M1090 285l-64-64-754 754q62-125 52.5-263T242 446l-82 82q52 73 62.5 180.5t-14.5 212-73 191.5l64 64q87-49 191-73.5t211.5-14T782 1151l82-82q-129-74-265.5-83T336 1038z"/><glyph glyph-name="uni2197" unicode="↗" horiz-adv-x="1185" d="M160 221l-64 64 754 753q-125-61-262.5-51T322 1071l81 80q73-52 180.5-62.5t212 14.5 191.5 73l64-64q-48-86-73-190.5T963.5 709t62.5-181l-82-82q-74 129-83 266t52 263z"/><glyph glyph-name="uni2198" unicode="↘" horiz-adv-x="1181" d="M92 1112l64 64 753-754q-61 125-51 262.5T942 948l80-80q-52-73-62.5-181T974 475t73-190l-64-64q-86 48-190.5 73T580 308.5 399 246l-82 80q127 74 266 83.5T846 358z"/><glyph glyph-name="uni2199" unicode="↙" horiz-adv-x="1181" d="M1026 1176l64-64-754-754q125 62 262 52.5T862 328l-80-82q-73 52-181 62.5T389 294t-190-73l-64 64q49 87 73.5 191t14 211.5T160 868l80 82q74-127 83.5-265.5T272 422z"/><glyph glyph-name="uni21E7" unicode="⇧" horiz-adv-x="1798" d="M530-14v604H104l795 883 795-883h-426V-14H530zM334 692h299V88h532v604h299l-565 629z"/><glyph glyph-name="partialdiff" unicode="∂" horiz-adv-x="1718" d="M842-279q-211 0-361.5 38t-238 111.5T115.5 41 76 266q0 59 7.5 109.5t29 106.5T169 582t93.5 85.5 136.5 69 190 44T838 797q478 0 635-205-30 144-105.5 258T1154 1063.5t-355 175T283 1366l32 88q285-48 500.5-121t364.5-168.5 242.5-221 135-270T1599 350q0-125-22-220.5T1502.5-45t-139-129-216.5-77.5T842-279zM178 266q0-112 33-192.5T319.5-66 525-154.5 842-184q155 0 270 22.5t188 62 117.5 102 62 133.5 17.5 165q0 214-162.5 307.5T842 702q-165 0-285.5-23T364 618.5t-114.5-96-57-118.5T178 266z"/><glyph glyph-name="emptyset" unicode="∅" horiz-adv-x="2000" d="M997 297q-187 0-342 29L408 0H291l264 350Q139 468 139 852q0 77 18 144t57.5 130.5 107 113 160 86.5 223.5 57 292 20q177 0 336-27l262 344h117l-278-366q426-120 426-502 0-94-25.5-173.5T1747 527t-158.5-122-247-79T997 297zM246 852q0-56 10.5-105t36.5-98 67.5-88T468 488.5 621 434l647 854q-133 17-271 17-178 0-313-25.5T467 1213t-133-101.5T264.5 989 246 852zm475-438q127-19 276-19 180 0 315.5 25t218 66.5 134 102.5 70 123.5T1753 852q0 71-17.5 130t-59 116-119 100.5T1370 1268z"/><glyph glyph-name="product" unicode="∏" horiz-adv-x="1746" d="M1229-225v1552H516V-225H414v1552H35v90h1679v-90h-383V-225h-102z"/><glyph glyph-name="summation" unicode="∑" horiz-adv-x="1607" d="M76-236v91l739 737-739 741v90h1454v-90H205l741-739-741-739h1325v-91H76z"/><glyph glyph-name="minus" unicode="−" horiz-adv-x="1964" d="M141 903h1680v-90H141v90z"/><glyph glyph-name="radical" unicode="√" horiz-adv-x="1765" d="M602-225L106 508h115l426-637 664 1542h389v-90h-320L713-225H602z"/><glyph glyph-name="infinity" unicode="∞" horiz-adv-x="1959" d="M1454 389q-81 0-150 17.5T1175 460t-100 68-96 84q-56-52-96-84t-100-68-129-53.5T504 389q-156 0-255 71.5T150 676q0 62 20 112t53.5 82 80 53.5 96 30.5 104.5 9q81 0 150-17.5t129-54 100-69 96-85.5q56 53 95.5 85.5t99.5 69 128.5 54T1452 963q56 0 105.5-9t96.5-30.5 80.5-53.5 53.5-82 20-112q0-144-99-215.5T1454 389zM252 678q0-100 66-147.5T498 483q68 0 128 14.5T737.5 542t89.5 59.5 86 74.5q-49 45-87 74.5t-90 59-111 44T498 868q-123 0-184.5-50.5T252 678zm792-2q49-45 87-74.5t90.5-59.5 111.5-44.5 127-14.5q115 0 180.5 48.5T1706 678q0 88-62.5 139T1458 868q-89 0-168-29t-129.5-65.5T1044 676z"/><glyph glyph-name="integral" unicode="∫" horiz-adv-x="1054" d="M39-279v89h78q209 0 284.5 75.5T477 168v833q0 246 102.5 349.5T920 1454h98v-88h-78q-209 0-284.5-75.5T580 1006V172q0-245-102-348T137-279H39z"/><glyph glyph-name="approxequal" unicode="≈" horiz-adv-x="2062" d="M178 909q0 95 37 165t100.5 108.5T451 1239t155 18q102 0 198-27.5t172.5-66.5 151.5-78 165-66.5 182-27.5q144 0 230.5 63t86.5 183h106q0-95-37-165t-100.5-108.5T1625 907t-155-18q-102 0-198 27.5T1099.5 983 948 1061t-164.5 66.5T602 1155q-144 0-230.5-63T285 909H178zm0-430q0 95 37 165t100.5 108.5T451 809t155 18q102 0 198-27.5T976.5 733t151.5-78 165-66.5 182-27.5q144 0 230.5 63t86.5 183h106q0-95-37-165t-100.5-108.5T1625 477t-155-18q-102 0-198 27.5T1099.5 553 948 631t-164.5 66.5T602 725q-144 0-230.5-63T285 479H178z"/><glyph glyph-name="notequal" unicode="≠" horiz-adv-x="1968" d="M606 344l213 309H143v90h740l164 238H143v90h965l211 305h111l-211-305h604v-90h-666L993 743h830v-90H930L717 344H606z"/><glyph glyph-name="lessequal" unicode="≤" horiz-adv-x="2041" d="M178 932l1680 325v-102L424 891l1434-264V467H178v90h1510L178 850v82z"/><glyph glyph-name="greaterequal" unicode="≥" horiz-adv-x="2041" d="M184 627l1434 264-1434 264v102l1680-325v-82L354 557h1510v-90H184v160z"/><glyph glyph-name="uni2317" unicode="⌗" horiz-adv-x="1540" d="M104 887v102h394v393h102V989h340v393h102V989h394V887h-394V547h394V444h-394V51H940v393H600V51H498v393H104v103h394v340H104zm496-340h340v340H600V547z"/><glyph glyph-name="uni2318" unicode="⌘" horiz-adv-x="1658" d="M399 14q-124 0-198 74t-74 199q0 134 91.5 208T489 569h91v295h-91q-178 0-270 74.5T127 1147q0 125 73.5 198.5T399 1419q134 0 208.5-92t74.5-270v-90h295v90q0 178 74.5 270t208.5 92q124 0 198-73.5t74-198.5q0-134-92-208.5T1169 864h-90V569h90q179 0 271-74t92-208q0-125-74-199t-198-74q-134 0-208.5 92T977 377v90H682v-90q0-179-74.5-271T399 14zM229 287q0-88 41-129t129-41q96 0 138.5 59T580 377v90h-91q-142 0-201-42.5T229 287zm0 860q0-95 59-137.5T489 967h91v90q0 142-42.5 201T399 1317q-88 0-129-41t-41-129zm453-578h295v295H682V569zm397-192q0-142 42.5-201t138.5-59q88 0 129 41t41 129q0 95-59 137.5T1169 467h-90v-90zm0 590h90q143 0 202 42.5t59 137.5q0 88-41 129t-129 41q-96 0-138.5-59t-42.5-201v-90z"/><glyph glyph-name="uni2325" unicode="⌥" horiz-adv-x="1624" d="M862 115L373 1217H39v102h399L930 217h540V115H862zm-88 1102v102h696v-102H774z"/><glyph glyph-name="filledbox" unicode="■" horiz-adv-x="1542" d="M211 158v1118h1118V158H211z"/><glyph glyph-name="uni25A1" unicode="□" horiz-adv-x="1542" d="M211 158v1118h1118V158H211zm102 102h914v914H313V260z"/><glyph glyph-name="triagup" unicode="▲" horiz-adv-x="1454" d="M47 31l682 1179L1409 31H47z"/><glyph glyph-name="uni25B3" unicode="△" horiz-adv-x="1513" d="M47 31l711 1231L1468 31H47zm176 102h1067l-532 924z"/><glyph glyph-name="uni25B6" unicode="▶" horiz-adv-x="1521" d="M231 1393l1180-680L231 31v1362z"/><glyph glyph-name="uni25B7" unicode="▷" horiz-adv-x="1574" d="M231-6v1421l1231-710zm103 176l923 535-923 532V170z"/><glyph glyph-name="triagdn" unicode="▼" horiz-adv-x="1488" d="M1425 1210L743 31 63 1210h1362z"/><glyph glyph-name="uni25BD" unicode="▽" horiz-adv-x="1546" d="M772-20L61 1210h1422zM240 1108l532-924 535 924H240z"/><glyph glyph-name="uni25C0" unicode="◀" horiz-adv-x="1521" d="M1290 31L111 713l1179 680V31z"/><glyph glyph-name="uni25C1" unicode="◁" horiz-adv-x="1574" d="M1343-6L113 705l1230 710V-6zM317 705l924-535v1067z"/><glyph glyph-name="uni25C6" unicode="◆" horiz-adv-x="1572" d="M786 51L119 717l667 667 666-667z"/><glyph glyph-name="uni25C7" unicode="◇" horiz-adv-x="1613" d="M805 29L119 717l688 688 686-688zM262 717l545-543 543 543-545 543z"/><glyph glyph-name="lozenge" unicode="◊" horiz-adv-x="1224" d="M539 1280h147l414-614L686 51H539L125 666zM236 666l376-560 377 560-377 559z"/><glyph glyph-name="circle" unicode="○" horiz-adv-x="1521" d="M762 92q-170 0-314 84T220.5 404 137 717q0 127 49.5 242.5t133 199 199.5 133 243 49.5 242-49.5 198.5-133 132.5-199 49-242.5q0-169-83-313t-226.5-228T762 92zM240 717q0-221 150.5-370.5T762 197q144 0 263.5 68t188 187.5T1282 717t-68.5 264.5-188 187.5-263.5 68q-221 0-371.5-149.5T240 717z"/><glyph glyph-name="uni25CF" unicode="●" horiz-adv-x="1523" d="M764 94q-170 0-314 83.5t-227.5 227T139 717q0 127 49.5 242.5t133 199 199.5 133 243 49.5 242-49.5 198.5-133 132.5-199 49-242.5q0-169-83-312.5t-226.5-227T764 94z"/><glyph glyph-name="uni2B1B" unicode="⬛" horiz-adv-x="2197" d="M240-143v1720h1720V-143H240z"/><glyph glyph-name="uni2B1C" unicode="⬜" horiz-adv-x="2197" d="M240-143v1720h1720V-143H240zM342-41h1516v1516H342V-41z"/><glyph glyph-name="uni2B98" unicode="⮘" horiz-adv-x="1511" d="M1395-39L106 705l1289 743-322-743zM311 705h650l217 499z"/><glyph glyph-name="uni2B99" unicode="⮙" horiz-adv-x="1546" d="M29-27l743 1289L1516-27 772 295zm743 435l500-218-500 867V408z"/><glyph glyph-name="uni2B9A" unicode="⮚" horiz-adv-x="1511" d="M117-39l321 744-321 743 1288-743zm217 1243l217-499h649z"/><glyph glyph-name="uni2B9B" unicode="⮛" horiz-adv-x="1546" d="M772-20L29 1268l743-322 744 322zM272 1051l500-867v650z"/><glyph glyph-name="uni2B9C" unicode="⮜" horiz-adv-x="1409" d="M1284 31L104 713l1180 680-295-680z"/><glyph glyph-name="uni2B9D" unicode="⮝" horiz-adv-x="1431" d="M35 31l682 1179L1397 31 717 326z"/><glyph glyph-name="uni2B9E" unicode="⮞" horiz-adv-x="1409" d="M125 31l295 682-295 680 1180-680z"/><glyph glyph-name="uni2B9F" unicode="⮟" horiz-adv-x="1433" d="M715 31L35 1210l680-295 682 295z"/><glyph glyph-name="uni3000" horiz-adv-x="2048"/><glyph glyph-name="uni004A0301" horiz-adv-x="1705" d="M784-20q-377 0-546.5 178.5T68 709h219q0-283 115-409t382-126q260 0 381 122t121 390v1034h215V686q0-355-172-530.5T784-20zm109 1982l973 152 18-80-973-152z"/><glyph glyph-name="I.bracket" horiz-adv-x="661" d="M223 0v1720h215V0H223z"/><glyph glyph-name="A.ss01" horiz-adv-x="909" d="M66 0l239 1720h299L844 0H629l-37 332H319L283 0H66zm274 510h231l-114 997-2 17-2-17z"/><glyph glyph-name="Aacute.ss01" horiz-adv-x="909" d="M66 0l239 1720h299L844 0H629l-37 332H319L283 0H66zm98 1921l563 152 21-80-564-150zM340 510h231l-114 997-2 17-2-17z"/><glyph glyph-name="Abreve.ss01" horiz-adv-x="909" d="M66 0l239 1720h299L844 0H629l-37 332H319L283 0H66zm98 2073h102q0-41 19-72t49.5-46.5T396 1932t63-7 62 7 59 22.5 47 46 18 72.5h103q0-64-24.5-110.5t-67-71.5-91.5-36.5-106-11.5-107 11.5-93.5 36.5-69 71.5T164 2073zM340 510h231l-114 997-2 17-2-17z"/><glyph glyph-name="Acircumflex.ss01" horiz-adv-x="909" d="M66 0l239 1720h299L844 0H629l-37 332H319L283 0H66zm98 1843l223 230h143l218-230H614l-155 168-162-168H164zM340 510h231l-114 997-2 17-2-17z"/><glyph glyph-name="Adieresis.ss01" horiz-adv-x="909" d="M66 0l239 1720h299L844 0H629l-37 332H319L283 0H66zm145 1954q0 43 27 68.5t65 25.5q39 0 66.5-25.5T397 1954q0-40-28-66t-66-26-65 26-27 66zM340 510h231l-114 997-2 17-2-17zm176 1444q0 43 27 68.5t67 25.5q37 0 64.5-26t27.5-68q0-40-27.5-66t-64.5-26q-39 0-66.5 26t-27.5 66z"/><glyph glyph-name="Agrave.ss01" horiz-adv-x="909" d="M66 0l239 1720h299L844 0H629l-37 332H319L283 0H66zm98 1993l20 80 564-152-21-78zM340 510h231l-114 997-2 17-2-17z"/><glyph glyph-name="Amacron.ss01" horiz-adv-x="909" d="M66 0l239 1720h299L844 0H629l-37 332H319L283 0H66zm98 1917v82h584v-82H164zM340 510h231l-114 997-2 17-2-17z"/><glyph glyph-name="Aogonek.ss01" horiz-adv-x="909" d="M66 0l239 1720h299L844 0h2Q728-36 672-82t-56-111q0-63 56.5-90.5T862-311h15l-82-99h-13q-128 0-204 45.5T502-231q0 48 20.5 87.5t58 66.5 78 44.5T750 0H629l-37 332H319L283 0H66zm274 510h231l-114 997-2 17-2-17z"/><glyph glyph-name="Aring.ss01" horiz-adv-x="909" d="M66 0l239 1720h299L844 0H629l-37 332H319L283 0H66zm225 1978q0 71 49.5 118.5T457 2144t116.5-47.5T623 1978t-49.5-118.5T457 1812t-116.5 47.5T291 1978zm49-1468h231l-114 997-2 17-2-17zm37 1468q0-37 21-58.5t59-21.5 59 21.5 21 58.5-21 58.5-59 21.5-59-21.5-21-58.5z"/><glyph glyph-name="Atilde.ss01" horiz-adv-x="909" d="M66 0l239 1720h299L844 0H629l-37 332H319L283 0H66zm98 1868q0 205 164 205 44 0 77.5-15t53.5-37 37-44 37.5-37 44.5-15q67 0 67 123h103q0-205-164-205-44 0-77.5 15t-53.5 37-37 44-37.5 37-44.5 15q-68 0-68-123H164zM340 510h231l-114 997-2 17-2-17z"/><glyph glyph-name="B.ss01" horiz-adv-x="970" d="M129 0v1720h334q209 0 300-93t91-296v-92q0-242-195-321 222-81 222-377v-97q0-240-91-342T469 0H129zm213 178h100q73 0 114.5 9.5T623 225t33 69.5 8 115.5v161q0 130-51 188t-171 58H342V178zm0 817h98q98 0 147.5 44t49.5 163v141q0 66-10 105.5t-36.5 60-59.5 27-91 6.5h-98V995z"/><glyph glyph-name="C.ss01" horiz-adv-x="972" d="M494-20q-379 0-379 456v850q0 455 379 455 376 0 376-455v-270H653v325q0 128-40 178t-119 50q-81 0-121.5-50T332 1341V379q0-128 40.5-177.5T494 152q79 0 119 49.5T653 379v326h217V436q0-456-376-456z"/><glyph glyph-name="Cacute.ss01" horiz-adv-x="972" d="M494-20q-379 0-379 456v850q0 455 379 455 376 0 376-455v-270H653v325q0 128-40 178t-119 50q-81 0-121.5-50T332 1341V379q0-128 40.5-177.5T494 152q79 0 119 49.5T653 379v326h217V436q0-456-376-456zM201 1921l563 152 20-80-563-150z"/><glyph glyph-name="Ccaron.ss01" horiz-adv-x="972" d="M494-20q-379 0-379 456v850q0 455 379 455 376 0 376-455v-270H653v325q0 128-40 178t-119 50q-81 0-121.5-50T332 1341V379q0-128 40.5-177.5T494 152q79 0 119 49.5T653 379v326h217V436q0-456-376-456zM201 2073h133l162-168 155 168h133l-217-230H424z"/><glyph glyph-name="Ccedilla.ss01" horiz-adv-x="972" d="M358-336q142 0 200 14.5t58 61.5q0 49-57 58.5T395-209l45 191Q115 15 115 436v850q0 455 379 455 376 0 376-455v-270H653v325q0 128-40 178t-119 50q-81 0-121.5-50T332 1341V379q0-128 40.5-177.5T494 152q79 0 119 49.5T653 379v326h217V436Q870 5 537-18l-29-111q223 27 223-127 0-42-19.5-73T660-378t-82.5-28.5-101.5-14-120-3.5z"/><glyph glyph-name="Cdotaccent.ss01" horiz-adv-x="972" d="M494-20q-379 0-379 456v850q0 455 379 455 376 0 376-455v-270H653v325q0 128-40 178t-119 50q-81 0-121.5-50T332 1341V379q0-128 40.5-177.5T494 152q79 0 119 49.5T653 379v326h217V436q0-456-376-456zM371 1937q0 48 32.5 80.5T492 2050q58 0 90-32.5t32-80.5q0-45-32.5-76.5T492 1829q-56 0-88.5 31.5T371 1937z"/><glyph glyph-name="D.ss01" horiz-adv-x="999" d="M129 0v1720h315q120 0 197.5-18t134.5-67 82-136 25-223V444q0-135-25-222T776 86 641.5 18.5 444 0H129zm213 164h104q66 0 104.5 8.5t66.5 35 38.5 74T666 408v905q0 79-10.5 126t-39 73.5-67 35T444 1556H342V164z"/><glyph glyph-name="Eth.ss01" horiz-adv-x="1056" d="M186 0v772H59v119h127v829h316q79 0 138-7.5t110-26.5 85-51 58.5-81.5 35.5-118 11-159.5V444q0-135-25-222T833.5 86t-134-67.5T502 0H186zm213 164h105q66 0 104 8.5t66 35 38.5 74T723 408v905q0 105-22 157t-66 69-133 17H399V891h172V772H399V164z"/><glyph glyph-name="Dcaron.ss01" horiz-adv-x="999" d="M129 0v1720h315q120 0 197.5-18t134.5-67 82-136 25-223V444q0-135-25-222T776 86 641.5 18.5 444 0H129zm80 2073h133l162-168 155 168h134l-218-230H432zM342 164h104q66 0 104.5 8.5t66.5 35 38.5 74T666 408v905q0 79-10.5 126t-39 73.5-67 35T444 1556H342V164z"/><glyph glyph-name="Dcroat.ss01" horiz-adv-x="1056" d="M186 0v772H59v119h127v829h316q79 0 138-7.5t110-26.5 85-51 58.5-81.5 35.5-118 11-159.5V444q0-135-25-222T833.5 86t-134-67.5T502 0H186zm213 164h105q66 0 104 8.5t66 35 38.5 74T723 408v905q0 105-22 157t-66 69-133 17H399V891h172V772H399V164z"/><glyph glyph-name="E.ss01" horiz-adv-x="825" d="M129 0v1720h604v-176H342V948h373V772H342V176h391V0H129z"/><glyph glyph-name="Eacute.ss01" horiz-adv-x="825" d="M129 0v1720h604v-176H342V948h373V772H342V176h391V0H129zm-2 1921l563 152 21-80-564-150z"/><glyph glyph-name="Ecaron.ss01" horiz-adv-x="825" d="M129 0v1720h604v-176H342V948h373V772H342V176h391V0H129zm-2 2073h133l162-168 156 168h133l-217-230H350z"/><glyph glyph-name="Ecircumflex.ss01" horiz-adv-x="825" d="M129 0v1720h604v-176H342V948h373V772H342V176h391V0H129zm-2 1843l223 230h144l217-230H578l-156 168-162-168H127z"/><glyph glyph-name="Edieresis.ss01" horiz-adv-x="825" d="M129 0v1720h604v-176H342V948h373V772H342V176h391V0H129zm45 1954q0 43 27 68.5t65 25.5q39 0 66.5-25.5T360 1954q0-40-28-66t-66-26-65 26-27 66zm305 0q0 43 27 68.5t67 25.5q37 0 65-26t28-68q0-40-28-66t-65-26q-39 0-66.5 26t-27.5 66z"/><glyph glyph-name="Edotaccent.ss01" horiz-adv-x="825" d="M129 0v1720h604v-176H342V948h373V772H342V176h391V0H129zm170 1937q0 48 32.5 80.5T420 2050q58 0 90.5-32.5T543 1937q0-45-33-76.5t-90-31.5q-56 0-88.5 31.5T299 1937z"/><glyph glyph-name="Egrave.ss01" horiz-adv-x="825" d="M129 0v1720h604v-176H342V948h373V772H342V176h391V0H129zm-2 1993l20 80 564-152-21-78z"/><glyph glyph-name="Emacron.ss01" horiz-adv-x="825" d="M129 0v1720h604v-176H342V948h373V772H342V176h391V0H129zm-2 1917v82h584v-82H127z"/><glyph glyph-name="Eogonek.ss01" horiz-adv-x="825" d="M129 0v1720h604v-176H342V948h373V772H342V176h391V0Q616-36 560-82t-56-111q0-63 56.5-90.5T750-311h14l-82-99h-12q-128 0-204.5 45.5T389-231q0 48 20.5 87.5t58 66.5 78 44.5T637 0H129z"/><glyph glyph-name="F.ss01" horiz-adv-x="802" d="M129 0v1720h604v-176H342V866h379V690H342V0H129z"/><glyph glyph-name="G.ss01" horiz-adv-x="985" d="M463-20Q294-20 204.5 96.5T115 426v860q0 455 379 455 376 0 376-455v-196H653v251q0 128-40 178t-119 50q-81 0-121.5-50T332 1341V379q0-125 38-176t126-51q89 0 123 54t34 183v320H494v168h376V0H762l-25 123Q640-20 463-20z"/><glyph glyph-name="Gbreve.ss01" horiz-adv-x="985" d="M463-20Q294-20 204.5 96.5T115 426v860q0 455 379 455 376 0 376-455v-196H653v251q0 128-40 178t-119 50q-81 0-121.5-50T332 1341V379q0-125 38-176t126-51q89 0 123 54t34 183v320H494v168h376V0H762l-25 123Q640-20 463-20zM201 2073h102q0-41 19-72t49.5-46.5T433 1932t63-7 62 7 59 22.5 47 46 18 72.5h102q0-64-24.5-110.5T693 1891t-91-36.5-106-11.5-107 11.5-93.5 36.5-69 71.5T201 2073z"/><glyph glyph-name="uni0122.ss01" horiz-adv-x="985" d="M463-20Q294-20 204.5 96.5T115 426v860q0 455 379 455 376 0 376-455v-196H653v251q0 128-40 178t-119 50q-81 0-121.5-50T332 1341V379q0-125 38-176t126-51q89 0 123 54t34 183v320H494v168h376V0H762l-25 123Q640-20 463-20zm-72-152q0 42 29 71t74 29q47 0 74.5-30.5T596-193q0-71-45-134.5T418-434v84q102 39 125 119-26-33-66-33-35 0-60.5 25.5T391-172z"/><glyph glyph-name="Gdotaccent.ss01" horiz-adv-x="985" d="M463-20Q294-20 204.5 96.5T115 426v860q0 455 379 455 376 0 376-455v-196H653v251q0 128-40 178t-119 50q-81 0-121.5-50T332 1341V379q0-125 38-176t126-51q89 0 123 54t34 183v320H494v168h376V0H762l-25 123Q640-20 463-20zm-90 1957q0 48 32.5 80.5T494 2050q58 0 90-32.5t32-80.5q0-45-32.5-76.5T494 1829q-56 0-88.5 31.5T373 1937z"/><glyph glyph-name="H.ss01" horiz-adv-x="1003" d="M662 0v772H342V0H129v1720h213V948h320v772h212V0H662z"/><glyph glyph-name="Hbar.ss01" horiz-adv-x="1120" d="M721 0v772H401V0H188v1210H63v117h125v393h213v-393h320v393h213v-393h123v-117H934V0H721zM401 948h320v262H401V948z"/><glyph glyph-name="I.ss01" horiz-adv-x="468" d="M129 0v1720h213V0H129z"/><glyph glyph-name="Iacute.ss01" horiz-adv-x="468" d="M129 0v1720h213V0H129zM-57 1921l563 152 20-80-563-150z"/><glyph glyph-name="Icircumflex.ss01" horiz-adv-x="468" d="M129 0v1720h213V0H129zM-57 1843l223 230h143l217-230H393l-155 168-162-168H-57z"/><glyph glyph-name="Idieresis.ss01" horiz-adv-x="468" d="M129 0v1720h213V0H129zM-10 1954q0 43 27 68.5t65 25.5q39 0 66.5-25.5T176 1954q0-40-28-66t-66-26-65 26-27 66zm305 0q0 43 27 68.5t67 25.5q37 0 64.5-26t27.5-68q0-40-27.5-66t-64.5-26q-39 0-66.5 26t-27.5 66z"/><glyph glyph-name="Idotaccent.ss01" horiz-adv-x="468" d="M129 0v1720h213V0H129zm-14 1937q0 48 32.5 80.5T236 2050q58 0 90-32.5t32-80.5q0-45-32.5-76.5T236 1829q-56 0-88.5 31.5T115 1937z"/><glyph glyph-name="Igrave.ss01" horiz-adv-x="468" d="M129 0v1720h213V0H129zM-57 1993l20 80 563-152-20-78z"/><glyph glyph-name="Imacron.ss01" horiz-adv-x="468" d="M129 0v1720h213V0H129zM-57 1917v82h583v-82H-57z"/><glyph glyph-name="Iogonek.ss01" horiz-adv-x="468" d="M129 0v1720h213V0Q225-36 169-82t-56-111q0-63 56-90.5T358-311h15l-82-99h-12q-128 0-204.5 45.5T-2-231q0 48 20.5 87.5t58 66.5 78 44.5T246 0H129z"/><glyph glyph-name="J.ss01" horiz-adv-x="937" d="M449-20Q82-20 82 436v170h217V379q0-127 39-177t111-50q71 0 109 50t38 177v1341h217V436q0-456-364-456z"/><glyph glyph-name="K.ss01" horiz-adv-x="935" d="M664 0L379 764h-37V0H129v1720h213V956h37l285 764h225L551 860 889 0H664z"/><glyph glyph-name="uni0136.ss01" horiz-adv-x="935" d="M664 0L379 764h-37V0H129v1720h213V956h37l285 764h225L551 860 889 0H664zM391-172q0 42 29 71t74 29q47 0 74.5-30.5T596-193q0-71-45-134.5T418-434v84q102 39 125 119-26-33-66-33-35 0-60.5 25.5T391-172z"/><glyph glyph-name="L.ss01" horiz-adv-x="800" d="M129 0v1720h213V176h395V0H129z"/><glyph glyph-name="Lacute.ss01" horiz-adv-x="800" d="M129 0v1720h213V176h395V0H129zm12 1921l564 152 20-80-563-150z"/><glyph glyph-name="Lcaron.ss01" horiz-adv-x="845" d="M129 0v1720h213V176h395V0H129zm420 1208l96 512h156l-144-512H549z"/><glyph glyph-name="uni013B.ss01" horiz-adv-x="800" d="M129 0v1720h213V176h395V0H129zm188-172q0 42 29 71t74 29q47 0 74.5-30.5T522-193q0-71-45-134.5T344-434v84q102 39 125 119-26-33-66-33-35 0-60.5 25.5T317-172z"/><glyph glyph-name="Lslash.ss01" horiz-adv-x="886" d="M213 0v666L66 559v139l147 107v915h213V958l174 127V944L426 819V176h395V0H213z"/><glyph glyph-name="M.ss01" horiz-adv-x="1171" d="M129 0v1720h262L586 471l194 1249h262V0H850v1217L651 0H520L322 1217V0H129z"/><glyph glyph-name="N.ss01" horiz-adv-x="1011" d="M129 0v1720h195L690 524v1196h195V0H688L322 1198V0H129z"/><glyph glyph-name="Nacute.ss01" horiz-adv-x="1011" d="M129 0v1720h195L690 524v1196h195V0H688L322 1198V0H129zm86 1921l563 152 21-80-563-150z"/><glyph glyph-name="Ncaron.ss01" horiz-adv-x="1011" d="M129 0v1720h195L690 524v1196h195V0H688L322 1198V0H129zm86 2073h133l162-168 156 168h133l-217-230H438z"/><glyph glyph-name="uni0145.ss01" horiz-adv-x="1011" d="M129 0v1720h195L690 524v1196h195V0H688L322 1198V0H129zm274-172q0 42 29 71t74 29q47 0 74.5-30.5T608-193q0-71-45-134.5T430-434v84q102 39 125 119-26-33-66-33-35 0-60.5 25.5T403-172z"/><glyph glyph-name="Ntilde.ss01" horiz-adv-x="1011" d="M129 0v1720h195L690 524v1196h195V0H688L322 1198V0H129zm86 1868q0 205 164 205 44 0 77.5-15t53.5-37 37-44 37.5-37 44.5-15q67 0 67 123h103q0-205-164-205-44 0-77.5 15t-53.5 37-37 44-37.5 37-44.5 15q-68 0-68-123H215z"/><glyph glyph-name="O.ss01" horiz-adv-x="985" d="M494-20q-379 0-379 454v852q0 455 379 455 376 0 376-455V434q0-454-376-454zM332 379q0-124 41-173.5T494 156t119.5 49.5T653 379v960q0 126-39.5 176T494 1565t-121-50.5-41-175.5V379z"/><glyph glyph-name="Oacute.ss01" horiz-adv-x="985" d="M494-20q-379 0-379 454v852q0 455 379 455 376 0 376-455V434q0-454-376-454zM201 1921l563 152 20-80-563-150zM332 379q0-124 41-173.5T494 156t119.5 49.5T653 379v960q0 126-39.5 176T494 1565t-121-50.5-41-175.5V379z"/><glyph glyph-name="Ocircumflex.ss01" horiz-adv-x="985" d="M494-20q-379 0-379 454v852q0 455 379 455 376 0 376-455V434q0-454-376-454zM201 1843l223 230h143l217-230H651l-155 168-162-168H201zM332 379q0-124 41-173.5T494 156t119.5 49.5T653 379v960q0 126-39.5 176T494 1565t-121-50.5-41-175.5V379z"/><glyph glyph-name="Odieresis.ss01" horiz-adv-x="985" d="M494-20q-379 0-379 454v852q0 455 379 455 376 0 376-455V434q0-454-376-454zM248 1954q0 43 27 68.5t65 25.5q39 0 66.5-25.5T434 1954q0-40-28-66t-66-26-65 26-27 66zm84-1575q0-124 41-173.5T494 156t119.5 49.5T653 379v960q0 126-39.5 176T494 1565t-121-50.5-41-175.5V379zm221 1575q0 43 27 68.5t67 25.5q37 0 64.5-26t27.5-68q0-40-27.5-66t-64.5-26q-39 0-66.5 26t-27.5 66z"/><glyph glyph-name="Ograve.ss01" horiz-adv-x="985" d="M494-20q-379 0-379 454v852q0 455 379 455 376 0 376-455V434q0-454-376-454zM201 1993l20 80 563-152-20-78zM332 379q0-124 41-173.5T494 156t119.5 49.5T653 379v960q0 126-39.5 176T494 1565t-121-50.5-41-175.5V379z"/><glyph glyph-name="Ohungarumlaut.ss01" horiz-adv-x="985" d="M494-20q-379 0-379 454v852q0 455 379 455 376 0 376-455V434q0-454-376-454zM287 1843l258 230h131l-238-230H287zm45-1464q0-124 41-173.5T494 156t119.5 49.5T653 379v960q0 126-39.5 176T494 1565t-121-50.5-41-175.5V379zm225 1464l258 230h131l-237-230H557z"/><glyph glyph-name="Omacron.ss01" horiz-adv-x="985" d="M494-20q-379 0-379 454v852q0 455 379 455 376 0 376-455V434q0-454-376-454zM201 1917v82h583v-82H201zM332 379q0-124 41-173.5T494 156t119.5 49.5T653 379v960q0 126-39.5 176T494 1565t-121-50.5-41-175.5V379z"/><glyph glyph-name="Oslash.ss01" horiz-adv-x="985" d="M143-20l47 139q-75 112-75 315v852q0 455 379 455 141 0 227-62l22 64h99l-47-139q75-115 75-318V434q0-454-376-454-142 0-230 61l-20-61H143zm189 552l311 916q-14 63-51.5 90t-97.5 27q-80 0-121-50.5T332 1339V532zm10-260q17-63 54.5-89.5T494 156q80 0 119.5 49.5T653 379v809z"/><glyph glyph-name="Otilde.ss01" horiz-adv-x="985" d="M494-20q-379 0-379 454v852q0 455 379 455 376 0 376-455V434q0-454-376-454zM201 1868q0 205 164 205 44 0 77.5-15t53.5-37 36.5-44 37-37 44.5-15q68 0 68 123h102q0-205-163-205-44 0-77.5 15t-53.5 37-37 44-37.5 37-44.5 15q-68 0-68-123H201zM332 379q0-124 41-173.5T494 156t119.5 49.5T653 379v960q0 126-39.5 176T494 1565t-121-50.5-41-175.5V379z"/><glyph glyph-name="P.ss01" horiz-adv-x="966" d="M129 0v1720h317q245 0 342-112t97-387v-93q0-276-98-394T446 616H342V0H129zm213 780h129q108 0 152.5 63.5T668 1057v235q0 148-44 206t-153 58H342V780z"/><glyph glyph-name="Q.ss01" horiz-adv-x="985" d="M762-287q-106 78-201.5 113.5T346-137V2Q115 79 115 434v852q0 455 379 455 376 0 376-455V434q0-414-313-450 115-25 205-95v-176zM332 379q0-124 41-173.5T494 156t119.5 49.5T653 379v960q0 126-39.5 176T494 1565t-121-50.5-41-175.5V379z"/><glyph glyph-name="R.ss01" horiz-adv-x="978" d="M678 0q-23 27-23 147v375q0 226-206 226H342V0H129v1720h320q122 0 200-18.5t130-67 73.5-128.5 21.5-206v-59q0-171-47-263T657 838q114-38 164.5-123.5T872 496V147q0-109 23-147H678zM342 911h107q65 0 108 18t64 53 28.5 74 7.5 95v178q0 75-9.5 119.5t-36 68.5-62.5 31.5-100 7.5H342V911z"/><glyph glyph-name="Racute.ss01" horiz-adv-x="978" d="M678 0q-23 27-23 147v375q0 226-206 226H342V0H129v1720h320q122 0 200-18.5t130-67 73.5-128.5 21.5-206v-59q0-171-47-263T657 838q114-38 164.5-123.5T872 496V147q0-109 23-147H678zM209 1921l563 152 21-80-564-150zM342 911h107q65 0 108 18t64 53 28.5 74 7.5 95v178q0 75-9.5 119.5t-36 68.5-62.5 31.5-100 7.5H342V911z"/><glyph glyph-name="Rcaron.ss01" horiz-adv-x="978" d="M678 0q-23 27-23 147v375q0 226-206 226H342V0H129v1720h320q122 0 200-18.5t130-67 73.5-128.5 21.5-206v-59q0-171-47-263T657 838q114-38 164.5-123.5T872 496V147q0-109 23-147H678zM209 2073h133l162-168 155 168h134l-218-230H432zM342 911h107q65 0 108 18t64 53 28.5 74 7.5 95v178q0 75-9.5 119.5t-36 68.5-62.5 31.5-100 7.5H342V911z"/><glyph glyph-name="uni0156.ss01" horiz-adv-x="978" d="M678 0q-23 27-23 147v375q0 226-206 226H342V0H129v1720h320q122 0 200-18.5t130-67 73.5-128.5 21.5-206v-59q0-171-47-263T657 838q114-38 164.5-123.5T872 496V147q0-109 23-147H678zM342 911h107q65 0 108 18t64 53 28.5 74 7.5 95v178q0 75-9.5 119.5t-36 68.5-62.5 31.5-100 7.5H342V911zm55-1083q0 42 29 71t74 29q47 0 74.5-30.5T602-193q0-71-45-134.5T424-434v84q102 39 125 119-26-33-66-33-35 0-60.5 25.5T397-172z"/><glyph glyph-name="S.ss01" horiz-adv-x="937" d="M471-20Q279-20 184.5 92.5T90 436v160h217V379q0-129 39.5-178T473 152q85 0 120.5 47T629 362v56q0 126-31.5 197T494 743L317 885q-107 88-162 197t-55 257q0 190 91.5 296T471 1741q183 0 277-104t94-312v-133H627v151q0 131-39.5 178.5T469 1569t-115.5-42.5T317 1378v-37q0-192 125-290l176-142q57-46 94.5-88t70-100 48-134.5T846 412q0-213-90-322.5T471-20z"/><glyph glyph-name="Sacute.ss01" horiz-adv-x="937" d="M471-20Q279-20 184.5 92.5T90 436v160h217V379q0-129 39.5-178T473 152q85 0 120.5 47T629 362v56q0 126-31.5 197T494 743L317 885q-107 88-162 197t-55 257q0 190 91.5 296T471 1741q183 0 277-104t94-312v-133H627v151q0 131-39.5 178.5T469 1569t-115.5-42.5T317 1378v-37q0-192 125-290l176-142q57-46 94.5-88t70-100 48-134.5T846 412q0-213-90-322.5T471-20zM176 1921l563 152 21-80-563-150z"/><glyph glyph-name="Scaron.ss01" horiz-adv-x="937" d="M471-20Q279-20 184.5 92.5T90 436v160h217V379q0-129 39.5-178T473 152q85 0 120.5 47T629 362v56q0 126-31.5 197T494 743L317 885q-107 88-162 197t-55 257q0 190 91.5 296T471 1741q183 0 277-104t94-312v-133H627v151q0 131-39.5 178.5T469 1569t-115.5-42.5T317 1378v-37q0-192 125-290l176-142q57-46 94.5-88t70-100 48-134.5T846 412q0-213-90-322.5T471-20zM176 2073h133l162-168 156 168h133l-217-230H399z"/><glyph glyph-name="Scedilla.ss01" horiz-adv-x="937" d="M334-336q142 0 200 14.5t58 61.5q0 49-57 58.5T371-209l45 191Q251-3 170.5 109T90 436v160h217V379q0-129 39.5-178T473 152q85 0 120.5 47T629 362v56q0 126-31.5 197T494 743L317 885q-107 88-162 197t-55 257q0 190 91.5 296T471 1741q183 0 277-104t94-312v-133H627v151q0 131-39.5 178.5T469 1569t-115.5-42.5T317 1378v-37q0-192 125-290l176-142q57-46 94.5-88t70-100 48-134.5T846 412q0-202-80.5-311T512-18l-29-111q224 27 224-127 0-42-19.5-73T636-378t-82.5-28.5-101.5-14-120-3.5z"/><glyph glyph-name="uni0218.ss01" horiz-adv-x="937" d="M471-20Q279-20 184.5 92.5T90 436v160h217V379q0-129 39.5-178T473 152q85 0 120.5 47T629 362v56q0 126-31.5 197T494 743L317 885q-107 88-162 197t-55 257q0 190 91.5 296T471 1741q183 0 277-104t94-312v-133H627v151q0 131-39.5 178.5T469 1569t-115.5-42.5T317 1378v-37q0-192 125-290l176-142q57-46 94.5-88t70-100 48-134.5T846 412q0-213-90-322.5T471-20zM367-172q0 42 28.5 71T469-72q47 0 74.5-30.5T571-193q0-71-45-134.5T393-434v84q102 39 125 119-26-33-65-33-35 0-60.5 25.5T367-172z"/><glyph glyph-name="uni1E9E.ss01" horiz-adv-x="964" d="M125 1401q0 166 77.5 242.5T453 1720h409q-47-351-89.5-484.5T647 1063q110-35 163.5-133.5T864 645V416Q864 0 518 0H397v170h97q85 2 123 57t38 185v276q0 91-14.5 149t-56 93.5T473 967l-76 2v170h70q29 0 49 8t36.5 27 27.5 46 22 72 21 97.5 23 130.5q3 20 5 30H453q-63 0-92-32.5T332 1407V0H125v1401z"/><glyph glyph-name="T.ss01" horiz-adv-x="854" d="M322 0v1544H72v176h712v-176H535V0H322z"/><glyph glyph-name="Tbar.ss01" horiz-adv-x="862" d="M324 0v801H160v119h164v624H74v176h712v-176H537V920h157V801H537V0H324z"/><glyph glyph-name="Tcaron.ss01" horiz-adv-x="854" d="M322 0v1544H72v176h712v-176H535V0H322zM135 2073h133l162-168 156 168h133l-217-230H358z"/><glyph glyph-name="uni0162.ss01" horiz-adv-x="854" d="M322 0v1544H72v176h712v-176H535V0h-60l-33-129q224 27 224-127 0-42-19.5-73T595-378t-82.5-28.5-101.5-14-120-3.5l2 88q142 0 200 14.5t58 61.5q0 49-57 58.5T330-209L379 0h-57z"/><glyph glyph-name="uni021A.ss01" horiz-adv-x="854" d="M322 0v1544H72v176h712v-176H535V0H322zm2-172q0 42 28.5 71T426-72q47 0 74.5-30.5T528-193q0-71-45-134.5T350-434v84q102 39 125 119-26-33-65-33-35 0-60.5 25.5T324-172z"/><glyph glyph-name="U.ss01" horiz-adv-x="1001" d="M502-20Q307-20 215 93t-92 335v1292h217V379q0-127 40.5-177T502 152q80 0 120 50t40 177v1341h217V428q0-223-91.5-335.5T502-20z"/><glyph glyph-name="Uacute.ss01" horiz-adv-x="1001" d="M502-20Q307-20 215 93t-92 335v1292h217V379q0-127 40.5-177T502 152q80 0 120 50t40 177v1341h217V428q0-223-91.5-335.5T502-20zM209 1921l563 152 21-80-564-150z"/><glyph glyph-name="Ucircumflex.ss01" horiz-adv-x="1001" d="M502-20Q307-20 215 93t-92 335v1292h217V379q0-127 40.5-177T502 152q80 0 120 50t40 177v1341h217V428q0-223-91.5-335.5T502-20zM209 1843l223 230h143l218-230H659l-155 168-162-168H209z"/><glyph glyph-name="Udieresis.ss01" horiz-adv-x="1001" d="M502-20Q307-20 215 93t-92 335v1292h217V379q0-127 40.5-177T502 152q80 0 120 50t40 177v1341h217V428q0-223-91.5-335.5T502-20zM256 1954q0 43 27 68.5t65 25.5q39 0 66.5-25.5T442 1954q0-40-28-66t-66-26-65 26-27 66zm305 0q0 43 27 68.5t67 25.5q37 0 65-26t28-68q0-40-28-66t-65-26q-39 0-66.5 26t-27.5 66z"/><glyph glyph-name="Ugrave.ss01" horiz-adv-x="1001" d="M502-20Q307-20 215 93t-92 335v1292h217V379q0-127 40.5-177T502 152q80 0 120 50t40 177v1341h217V428q0-223-91.5-335.5T502-20zM209 1993l20 80 564-152-21-78z"/><glyph glyph-name="Uhungarumlaut.ss01" horiz-adv-x="1001" d="M502-20Q307-20 215 93t-92 335v1292h217V379q0-127 40.5-177T502 152q80 0 120 50t40 177v1341h217V428q0-223-91.5-335.5T502-20zM295 1843l258 230h131l-238-230H295zm270 0l258 230h131l-237-230H565z"/><glyph glyph-name="Umacron.ss01" horiz-adv-x="1001" d="M502-20Q307-20 215 93t-92 335v1292h217V379q0-127 40.5-177T502 152q80 0 120 50t40 177v1341h217V428q0-223-91.5-335.5T502-20zM209 1917v82h584v-82H209z"/><glyph glyph-name="Uogonek.ss01" horiz-adv-x="1001" d="M584-412q-128 0-204.5 45.5T303-233q0 144 191 213-191 3-281 115.5T123 428v1292h217V379q0-127 40.5-177T502 152q80 0 120 50t40 177v1341h217V428Q879 68 641-2h6Q530-38 474-84t-56-111q0-63 56.5-90.5T664-313h14l-82-99h-12z"/><glyph glyph-name="Uring.ss01" horiz-adv-x="1001" d="M502-20Q307-20 215 93t-92 335v1292h217V379q0-127 40.5-177T502 152q80 0 120 50t40 177v1341h217V428q0-223-91.5-335.5T502-20zM336 1978q0 71 49.5 118.5T502 2144t116.5-47.5T668 1978t-49.5-118.5T502 1812t-116.5 47.5T336 1978zm86 0q0-37 21-58.5t59-21.5 59 21.5 21 58.5-21 58.5-59 21.5-59-21.5-21-58.5z"/><glyph glyph-name="V.ss01" horiz-adv-x="909" d="M305 0L66 1720h217L455 225l2-12v10l172 1497h215L604 0H305z"/><glyph glyph-name="W.ss01" horiz-adv-x="1550" d="M303 0L66 1720h213L449 279l2-19 2 19 186 1441h272l187-1441 4-23 2 23 166 1441h213L1245 0H954L780 1395l-4 37-6-37L598 0H303z"/><glyph glyph-name="Wacute.ss01" horiz-adv-x="1550" d="M303 0L66 1720h213L449 279l2-19 2 19 186 1441h272l187-1441 4-23 2 23 166 1441h213L1245 0H954L780 1395l-4 37-6-37L598 0H303zm180 1921l564 152 20-80-563-150z"/><glyph glyph-name="Wcircumflex.ss01" horiz-adv-x="1550" d="M303 0L66 1720h213L449 279l2-19 2 19 186 1441h272l187-1441 4-23 2 23 166 1441h213L1245 0H954L780 1395l-4 37-6-37L598 0H303zm180 1843l224 230h143l217-230H934l-156 168-162-168H483z"/><glyph glyph-name="Wdieresis.ss01" horiz-adv-x="1550" d="M303 0L66 1720h213L449 279l2-19 2 19 186 1441h272l187-1441 4-23 2 23 166 1441h213L1245 0H954L780 1395l-4 37-6-37L598 0H303zm227 1954q0 43 27.5 68.5T623 2048q39 0 66.5-25.5T717 1954q0-40-28-66t-66-26-65.5 26-27.5 66zm306 0q0 43 27 68.5t67 25.5q37 0 64.5-26t27.5-68q0-40-27.5-66t-64.5-26q-39 0-66.5 26t-27.5 66z"/><glyph glyph-name="Wgrave.ss01" horiz-adv-x="1550" d="M303 0L66 1720h213L449 279l2-19 2 19 186 1441h272l187-1441 4-23 2 23 166 1441h213L1245 0H954L780 1395l-4 37-6-37L598 0H303zm180 1993l21 80 563-152-20-78z"/><glyph glyph-name="X.ss01" horiz-adv-x="917" d="M49 0l291 885-277 835h211l189-630 188 630h205L578 885 866 0H655L455 680 256 0H49z"/><glyph glyph-name="Y.ss01" horiz-adv-x="890" d="M338 0v586L47 1720h219l178-854 2-6v6l179 854h219L553 586V0H338z"/><glyph glyph-name="Yacute.ss01" horiz-adv-x="890" d="M338 0v586L47 1720h219l178-854 2-6v6l179 854h219L553 586V0H338zM154 1921l563 152 20-80-563-150z"/><glyph glyph-name="Ycircumflex.ss01" horiz-adv-x="890" d="M338 0v586L47 1720h219l178-854 2-6v6l179 854h219L553 586V0H338zM154 1843l223 230h143l217-230H604l-155 168-162-168H154z"/><glyph glyph-name="Ydieresis.ss01" horiz-adv-x="890" d="M338 0v586L47 1720h219l178-854 2-6v6l179 854h219L553 586V0H338zM201 1954q0 43 27 68.5t65 25.5q39 0 66.5-25.5T387 1954q0-40-28-66t-66-26-65 26-27 66zm305 0q0 43 27 68.5t67 25.5q37 0 64.5-26t27.5-68q0-40-27.5-66t-64.5-26q-39 0-66.5 26t-27.5 66z"/><glyph glyph-name="Ygrave.ss01" horiz-adv-x="890" d="M338 0v586L47 1720h219l178-854 2-6v6l179 854h219L553 586V0H338zM154 1993l20 80 563-152-20-78z"/><glyph glyph-name="Z.ss01" horiz-adv-x="825" d="M78 0v178l452 1364H78v178h670v-178L295 178h453V0H78z"/><glyph glyph-name="Zacute.ss01" horiz-adv-x="825" d="M78 0v178l452 1364H78v178h670v-178L295 178h453V0H78zm43 1921l563 152 21-80-564-150z"/><glyph glyph-name="Zcaron.ss01" horiz-adv-x="825" d="M78 0v178l452 1364H78v178h670v-178L295 178h453V0H78zm43 2073h133l162-168 155 168h134l-218-230H344z"/><glyph glyph-name="Zdotaccent.ss01" horiz-adv-x="825" d="M78 0v178l452 1364H78v178h670v-178L295 178h453V0H78zm215 1937q0 48 32.5 80.5T414 2050q58 0 90.5-32.5T537 1937q0-45-33-76.5t-90-31.5q-56 0-88.5 31.5T293 1937z"/><glyph glyph-name="W.ss02" horiz-adv-x="1607" d="M129 0v1720h195V301l362 1419h309V301l363 1419h201L1110 0H801v1450L440 0H129z"/><glyph glyph-name="W.ss03" horiz-adv-x="3160" d="M524 0H223v1720h207V229l1131 1491h276V229l1112 1491h258L1931 0h-299v1458z"/><glyph glyph-name="i.loclTRK" horiz-adv-x="593" d="M195 1331h204V0H195v1331zm-39 287q0 55 36.5 89t102.5 34 103.5-34 37.5-89q0-51-38-85t-103-34-102 33.5-37 85.5z"/><glyph glyph-name="uni006A0301" horiz-adv-x="593" d="M195-12v1343h204V-47q0-132-24-219t-77.5-136.5T170-472t-184-20h-244v181h199q83 0 129.5 10.5t76 45 39 89.5T195-12zM-57 1532l686 151 20-79-686-152z"/><glyph glyph-name="w.ss02" horiz-adv-x="2195" d="M195 0v1331h204V174l652 1157h319V176l602 1155h226L1483 0h-318v1159L512 0H195z"/><glyph glyph-name="zero.ss01" horiz-adv-x="993" d="M498-18q-379 0-379 464v830q0 465 379 465 376 0 376-465V446q0-228-91-346T498-18zM336 594l321 776q-6 111-45.5 155T498 1569q-81 0-121.5-53T336 1329V594zm4-283q11-88 50.5-123.5T498 152q80 0 119.5 52.5T657 389v690z"/><glyph glyph-name="one.ss01" horiz-adv-x="808" d="M84 176h229v1274q-34-55-87-84t-144-29v189q178 0 252 194h190V176h228V0H84v176z"/><glyph glyph-name="two.ss01" horiz-adv-x="937" d="M94 193q0 198 55 327t197 271l131 139q80 78 117 165t37 216v32q0 128-39.5 177T477 1569q-76 0-115.5-49.5T322 1339v-141H104v113q0 209 93.5 319.5T477 1741q183 0 277-113t94-330q0-93-20-175t-56.5-146-70-107-78.5-88L475 627q-69-71-102-125.5T325.5 373 311 176h533V0H94v193z"/><glyph glyph-name="three.ss01" horiz-adv-x="954" d="M473-20Q283-20 188.5 86T94 412v110h215V385q0-71 11.5-118.5t34-71.5 49.5-33.5 65-9.5q82 0 123 54.5T633 389v164q0 76-16.5 129t-43 76.5-50.5 33-50 9.5H332v178h139q25 0 49.5 8.5t51 30 43 67T631 1194v141q0 131-44 182.5T469 1569q-78 0-119-49t-41-181v-120H94v94q0 428 377 428 88 0 155.5-26.5t108-68 66-99T835 1436t9-113v-72q0-132-52-223.5T647 899q96-39 147.5-138T846 510v-82q0-448-373-448z"/><glyph glyph-name="four.ss01" horiz-adv-x="903" d="M725 1720V518h104V342H725V0H514v342H66v197l458 1181h201zM215 518h299v805z"/><glyph glyph-name="five.ss01" horiz-adv-x="948" d="M551 1153q303 0 303-453V469q0-243-96-366T473-20q-184 0-279.5 120T98 449v73h217V406q0-138 42.5-196T477 152q80 0 120 57.5T637 395v328q0 248-150 248-139 0-161-234H113l43 983h628v-176H348l-24-514q78 123 227 123z"/><glyph glyph-name="six.ss01" horiz-adv-x="972" d="M492-20q-188 0-281.5 121.5T117 481v754q0 251 86 378.5T485 1741q100 0 172.5-33.5t113-94 59-134T848 1315v-41H633v39q0 122-33.5 176.5T485 1544q-83 0-117-53.5T334 1313v-289q83 127 225 127 148 0 230.5-124T872 666V469q0-489-380-489zM334 393q0-135 42-188t120-53q83 0 121 56t38 187v334q0 240-153 240-80 0-124-65.5T334 731V393z"/><glyph glyph-name="seven.ss01" horiz-adv-x="837" d="M57 1544v176h707v-176q-192-341-263-682.5T430 51V0H219v51q0 456 81 802t284 691H57z"/><glyph glyph-name="eight.ss01" horiz-adv-x="968" d="M483-20Q291-20 198.5 81.5T106 395v129q0 326 216 383-203 63-203 336v115q0 179 91.5 281T483 1741t273-102 92-281v-115q0-274-201-336 213-56 213-383V395q0-212-92.5-313.5T483-20zM324 375q0-70 11-116t34-68.5 49-30.5 65-8q40 0 66 8t49 31 34 69 11 117v209q0 127-40.5 176T483 811q-77 0-118-49t-41-176V375zm12 815q0-107 36.5-154T483 989q150 0 150 203v174q0 107-38 155t-112 48q-73 0-110-47t-37-154v-178z"/><glyph glyph-name="nine.ss01" horiz-adv-x="972" d="M487-20q-100 0-172.5 33.5t-112.5 94-58.5 134T125 406v40h215v-38q0-124 32.5-178T487 176q83 0 117.5 53.5T639 408v288q-85-129-225-129-148 0-231 124.5T100 1055v196q0 244 96.5 367T481 1741t281.5-122.5T856 1239V483q0-251-86.5-377T487-20zM317 991q0-241 154-241 80 0 124 65.5T639 989v338q0 135-42 188.5T477 1569q-83 0-121.5-57T317 1325V991z"/><glyph glyph-name="zero.tf" horiz-adv-x="1953" d="M981-20q-383 0-588 233.5T188 864q0 411 205.5 644T981 1741q375 0 578.5-233.5T1763 862q0-415-203-648.5T981-20zM406 862q0-295 106-461l834 1029q-136 118-365 118-286 0-430.5-176T406 862zm202-571q140-119 373-119 280 0 422.5 176.5T1546 864q0 287-104 455z"/><glyph glyph-name="one.tf" horiz-adv-x="1953" d="M424 190h508v1309q-93-91-231-138.5T418 1313v198q157 0 281.5 46.5T932 1720h211V190h508V0H424v190z"/><glyph glyph-name="two.tf" horiz-adv-x="1953" d="M219 199q0 77 6.5 140T250 466.5 298 583t78 101 113 85.5T644 835t202 46l250 37q86 13 145.5 27t117 38 92 56 55 81 20.5 113v2q0 162-127.5 237.5T1022 1548q-292 0-428.5-107.5T457 1100v-13H240v13q0 641 778 641 349 0 537-126.5t188-383.5q0-94-26.5-169t-73-128.5-117-93-151.5-64-183-39.5l-262-39q-96-15-169.5-35.5t-126-44.5-89-58.5T487 490t-33.5-85.5T438 306t-4-116h1309V0H219v199z"/><glyph glyph-name="three.tf" horiz-adv-x="1953" d="M969-20q-389 0-573.5 139T205 553h217q4-206 135-293.5T969 172q280 0 408 76t128 235q0 70-24 121.5t-66 84.5-108.5 53-143 28-176.5 8H709v191h278q245 0 368.5 62t123.5 214q0 161-131 232t-375 71q-91 0-163-9.5t-138-34-110-64-70.5-103.5-28.5-149H246q6 284 186.5 418.5T975 1741q721 0 721-494 3-144-75-245.5T1393 872q165-36 246-139.5t81-259.5q0-249-187-371T969-20z"/><glyph glyph-name="four.tf" horiz-adv-x="1953" d="M1497 1720V547h258V356h-258V0h-211v356H174v193l1110 1171h213zM410 547h876v911z"/><glyph glyph-name="five.tf" horiz-adv-x="1953" d="M1065 1153q199 0 351-63t241.5-193 89.5-313q0-301-192.5-452.5T1001-20q-231 0-400.5 57.5t-267 179T236 514v21h217v-21q0-95 46.5-164.5t127-107 171.5-54T995 172q119 0 213.5 21.5t168.5 68 113.5 126T1530 575q0 198-129 296t-369 98q-383 0-571-252H252l67 1003h1348v-190H512l-47-590q210 213 600 213z"/><glyph glyph-name="six.tf" horiz-adv-x="1953" d="M987-20q-388 0-572 163.5T231 641v311q0 375 197 582t586 207q165 0 294-37.5t210.5-105.5 124.5-157.5 47-197.5v-20h-215l-2 20q-7 149-126 227t-327 78q-268 0-421-129t-153-385V922q174 243 601 243 328 0 514-151.5T1747 582q0-295-189-448.5T987-20zM446 592q0-218 132.5-319T987 172q274 0 408.5 98.5T1530 571q0 215-130.5 308.5T1010 973q-129 0-230.5-21.5t-177-66.5-116-119T446 592z"/><glyph glyph-name="seven.tf" horiz-adv-x="1953" d="M238 1530v190h1445v-190q-145-79-262-176t-198-197.5T1082 938t-95.5-228T930 472t-28-236-7-234V0H682v2q0 121 6 224.5T713 459t50.5 239T851 929t130.5 223 184 201 245.5 177H238z"/><glyph glyph-name="eight.tf" horiz-adv-x="1953" d="M977-20q-378 0-568 129.5T219 481q0 167 98 279t267 153q-139 37-226.5 136T270 1286q0 217 184 336t527 119q342 0 522-119t180-336q0-138-87-237t-224-136q170-41 267.5-153.5T1737 479q0-240-190.5-369.5T977-20zM434 494q0-332 543-332 276 0 409.5 83T1520 496q0 171-137.5 245T977 815q-267 0-405-74.5T434 494zm53 780q0-96 63.5-158.5t170-89.5T977 999t256 26.5 169.5 89.5 63.5 161q0 283-489 283-490 0-490-285z"/><glyph glyph-name="nine.tf" horiz-adv-x="1953" d="M967 1741q388 0 571.5-164t183.5-498V768q0-375-196.5-581.5T940-20q-165 0-294 37.5t-210.5 105-124.5 157T264 477v21h215l2-21q7-149 126-227t327-78q268 0 420.5 128.5T1507 686v113q-175-244-600-244-328 0-514 152t-186 432q0 295 189 448.5T967 1741zm-543-592q0-215 130-308t390-93q129 0 230 21.5t177 66T1467 954t40 174q0 218-132 319t-408 101q-274 0-408.5-98.5T424 1149z"/><glyph glyph-name="zero.dnom" horiz-adv-x="976" d="M489-10q-196 0-303.5 118T78 432q0 203 108 320.5T489 870q193 0 301.5-117.5T899 432q0-206-107.5-324T489-10zM225 432q0-107 35-182l389 442q-62 47-160 47-131 0-197.5-80.5T225 432zm105-266q64-45 159-45 130 0 196.5 80.5T752 432q0 103-35 178z"/><glyph glyph-name="one.dnom" horiz-adv-x="743" d="M82 129h248v580q-107-72-250-72v135q78 0 141.5 18T338 860h135V129h248V0H82v129z"/><glyph glyph-name="two.dnom" horiz-adv-x="954" d="M84 137q0 62 12.5 110.5t44 93 92 74T381 455l143 18q105 14 153 43t48 92v2q0 66-56.5 97.5T494 739q-137 0-194.5-45T242 551v-2H94v2q0 157 95 238t300 81q189 0 286-66.5T872 606q0-113-70.5-173.5T598 352l-152-20q-75-11-119.5-27T261 261t-26.5-55.5T229 129h643V0H84v137z"/><glyph glyph-name="three.dnom" horiz-adv-x="935" d="M463-10q-203 0-298 69T66 283h147q4-92 63-129t185-37q134 0 190 32.5T707 250q0 72-58 99.5T469 377H336v121h133q115 0 170 27.5t55 92.5q0 125-231 125-114 0-170.5-34.5T233 588H86q7 148 101.5 215T467 870q373 0 373-241 2-70-38-124.5T690 436q78-15 121-67t43-127q0-127-96-189.5T463-10z"/><glyph glyph-name="four.dnom" horiz-adv-x="917" d="M733 860V293h125V162H733V0H588v162H45v131l543 567h145zM201 293h387v395z"/><glyph glyph-name="five.dnom" horiz-adv-x="940" d="M518 578q163 0 256.5-75.5T868 281q-1-143-102-217T477-10q-190 0-292.5 71.5T82 274h147q0-153 250-153 119 0 179.5 39.5T719 287q0 168-238 168-168 0-252-101H90l37 506h702V731H256l-23-250q118 97 285 97z"/><glyph glyph-name="six.dnom" horiz-adv-x="954" d="M483-10q-204 0-299.5 84.5T88 336v135q0 204 98 301.5T494 870q175 0 264.5-66T848 614H700q0 125-202 125-130 0-196-51.5T236 526v-32q88 94 270 94 173 0 272-79.5T877 289q0-299-394-299zM236 293q0-90 59-131t186-41q126 0 187 40.5T729 289q0 89-58 128.5T489 457q-253 0-253-164z"/><glyph glyph-name="seven.dnom" horiz-adv-x="819" d="M29 731v129h749V731q-76-43-136.5-94t-101-100-70-107-46-108T399 211.5t-11.5-106T385 2V0H238v2q0 67 4 121t15 127 36 135 63.5 126T457 631.5 600 731H29z"/><glyph glyph-name="eight.dnom" horiz-adv-x="948" d="M475-10q-200 0-298.5 66.5T78 246q0 86 42.5 143T238 465q-62 18-99 64.5T102 645q0 108 96 166.5T477 870t276-58 95-169q-1-69-38-114.5T711 465q76-19 118-75.5T872 246q-2-123-100-189.5T475-10zM225 258q0-77 57.5-112T475 111q133 0 190.5 35T725 258q-1 76-59 108.5T475 399t-191.5-32.5T225 258zm25 377q0-58 55-84.5T475 524q114 0 169 27t56 86q-2 58-55 85.5T475 750q-118 0-171.5-27.5T250 635z"/><glyph glyph-name="nine.dnom" horiz-adv-x="952" d="M471 870q202 0 298.5-84.5T866 524V391q0-205-97.5-303T461-10q-177 0-267 66t-90 190h148q0-125 205-125 262 0 262 213v33q-89-95-273-95-172 0-271 79.5T76 571q0 299 395 299zM223 571q1-89 59.5-128.5T465 403q254 0 254 164 0 90-59.5 131T473 739t-188.5-40.5T223 571z"/><glyph glyph-name="zero.numr" horiz-adv-x="976" d="M489 850q-196 0-303.5 118T78 1292q0 203 108 321t303 118q193 0 301.5-118T899 1292q0-206-107.5-324T489 850zm-264 442q0-107 35-182l389 442q-62 47-160 47-131 0-197.5-80.5T225 1292zm105-266q64-45 159-45 130 0 196.5 80.5T752 1292q0 103-35 178z"/><glyph glyph-name="one.numr" horiz-adv-x="743" d="M82 989h248v580q-107-72-250-72v135q78 0 141.5 18t116.5 70h135V989h248V860H82v129z"/><glyph glyph-name="two.numr" horiz-adv-x="954" d="M84 997q0 62 12.5 110.5t44 93 92 74T381 1315l143 18q105 14 153 43t48 92v2q0 66-56.5 97.5T494 1599q-137 0-194.5-45T242 1411v-2H94v2q0 157 95 238.5t300 81.5q188 0 285.5-67t97.5-198q0-113-70.5-173.5T598 1212l-152-20q-75-11-119.5-27t-65.5-44-26.5-55.5T229 989h643V860H84v137z"/><glyph glyph-name="three.numr" horiz-adv-x="935" d="M463 850q-203 0-298 69t-99 224h147q4-92 63-129t185-37q134 0 190 32.5t56 100.5q0 72-58 99.5T469 1237H336v121h133q114 0 169.5 28t55.5 93q0 125-231 125-114 0-170.5-35T233 1448H86q7 148 101.5 215.5T467 1731q373 0 373-242 2-70-38-124.5T690 1296q78-15 121-67t43-127q0-127-96-189.5T463 850z"/><glyph glyph-name="four.numr" horiz-adv-x="917" d="M733 1720v-567h125v-131H733V860H588v162H45v131l543 567h145zm-532-567h387v395z"/><glyph glyph-name="five.numr" horiz-adv-x="940" d="M518 1438q163 0 256.5-75.5T868 1141q-1-143-102-217t-289-74q-190 0-292.5 72T82 1135h147q0-154 250-154 119 0 179.5 39.5T719 1147q0 168-238 168-168 0-252-101H90l37 506h702v-129H256l-23-250q118 97 285 97z"/><glyph glyph-name="six.numr" horiz-adv-x="954" d="M483 850q-204 0-299.5 84.5T88 1196v135q0 204 98.5 302t307.5 98q175 0 264.5-66t89.5-190H700q0 124-202 124-130 0-196-51.5T236 1386v-32q88 94 270 94 173 0 272-79.5t99-219.5q0-299-394-299zm-247 303q0-90 59-131t186-41q126 0 187 40.5t61 127.5q0 89-58 128.5T489 1317q-253 0-253-164z"/><glyph glyph-name="seven.numr" horiz-adv-x="819" d="M29 1591v129h749v-129q-76-43-136.5-94t-101-100-70-107-46-108-25.5-110.5-11.5-106T385 862v-2H238v2q0 67 4 121t15 127 36 135 63.5 126T457 1491.5t143 99.5H29z"/><glyph glyph-name="eight.numr" horiz-adv-x="948" d="M475 850q-200 0-298.5 66.5T78 1106q0 86 42.5 143t117.5 76q-62 18-99 64.5T102 1505q0 108 96 167t279 59 276-58.5 95-169.5q-1-69-38-114.5t-99-63.5q76-19 118-75.5t43-143.5q-2-123-100-189.5T475 850zm-250 268q0-77 57.5-112T475 971q133 0 190.5 35t59.5 112q-1 76-59.5 109T475 1260q-133 0-191.5-33T225 1118zm25 377q0-58 55-84.5t170-26.5q114 0 169 27t56 86q-2 58-55 85.5T475 1610q-118 0-171.5-27.5T250 1495z"/><glyph glyph-name="nine.numr" horiz-adv-x="952" d="M471 1731q202 0 298.5-85t96.5-262v-133q0-205-97.5-303T461 850q-177 0-267 66t-90 190h148q0-125 205-125 262 0 262 213v33q-88-94-273-94-172 0-271 79.5T76 1432q0 299 395 299zm-248-299q1-89 59.5-128.5T465 1264q254 0 254 163 0 90-59.5 131T473 1599t-188.5-40-61.5-127z"/><glyph glyph-name="exclamdown.case" horiz-adv-x="624" d="M414 0H209l12 1208h182zM168 1599q0 62 42 102t103 40q60 0 101-40t41-102q0-65-41-105t-101-40q-61 0-103 40t-42 105z"/><glyph glyph-name="questiondown.case" horiz-adv-x="1388" d="M692-20Q575-20 479-1.5T316 51t-116 78-76.5 99T83 339 70 457q0 97 32.5 174t84 126T301 848t125.5 81 114 83 84 110 32.5 150v20h195v-20q0-112-31.5-199T739 932t-110-97-120.5-79T398 681t-81.5-95.5T285 455q0-136 99.5-216.5T690 158q124 0 210.5 32t132 91.5 64.5 129 19 158.5v21h213v-21q0-66-9-126.5t-30.5-120-54.5-110-84-94-115.5-74T883.5-3 692-20zm-84 1619q0 62 42.5 102t103.5 40q59 0 100-40t41-102q0-65-40.5-105T754 1454q-62 0-104 40t-42 105z"/><glyph glyph-name="hyphen.case" horiz-adv-x="1925" d="M123 844h1679v-90H123v90z"/><glyph glyph-name="endash.case" horiz-adv-x="2027" d="M123 844h1782v-86H123v86z"/><glyph glyph-name="emdash.case" horiz-adv-x="3317" d="M123 844h3072v-88H123v88z"/><glyph glyph-name="parenleft.case" horiz-adv-x="667" d="M537-193Q321 75 219 324.5T117 864t101.5 536T537 1915h114q-227-288-329.5-527.5T219 864q0-286 101.5-525T651-193H537z"/><glyph glyph-name="parenright.case" horiz-adv-x="667" d="M131 1917q216-268 318-517.5T551 860 449.5 324.5 131-190H16Q167 2 258 160t141 332.5T449 860q0 195-49 369t-140 333-244 355h115z"/><glyph glyph-name="braceleft.case" horiz-adv-x="675" d="M121 977q80 0 80 186v389q0 188 80.5 277.5T508 1919h121v-96H510q-99 0-153-69t-54-193v-392q0-114-18.5-167.5T213 913v-96q53-35 71.5-88.5T303 561V170q0-124 54-193t153-69h119v-96H508q-146 0-226.5 89T201 178v389q0 187-80 187v223z"/><glyph glyph-name="braceright.case" horiz-adv-x="675" d="M555 752q-80 0-80-187V176q0-188-80.5-277T168-190H47v96h119q99 0 153 69t54 193v391q0 114 18.5 167.5T463 815v96q-53 35-71.5 88.5T373 1167v392q0 124-54 193t-153 69H47v96h121q146 0 226.5-89.5T475 1550v-389q0-186 80-186V752z"/><glyph glyph-name="bracketleft.case" horiz-adv-x="727" d="M682 1919v-90H309V-102h373v-91H207v2112h475z"/><glyph glyph-name="bracketright.case" horiz-adv-x="722" d="M41-195v91h373v1931H41v90h475V-195H41z"/><glyph glyph-name="at.case" horiz-adv-x="2015" d="M1051-25Q777-25 565.5 82.5T236.5 388 119 846q0 205 63.5 373T361 1501.5t279 177 361 62.5q421 0 659-223t238-627q0-255-87.5-394T1563 358q-94 0-163 51t-87 148q-55-99-148-151t-215-52q-211 0-343 137T475 862t132 371 341 137q119 0 211.5-49.5T1307 1176v172h147V623q0-177 127-177 104 0 159.5 120.5T1796 893q0 362-209 557t-586 195q-357 0-568.5-214.5T221 844q0-231 103.5-407T614 166.5 1042 72q152 0 315.5 25.5T1608 160V61q-92-37-248-61.5T1051-25zM621 862q0-179 94.5-277T977 487q160 0 245 95.5t85 279.5q0 183-87 279t-245 96q-166 0-260-98t-94-277z"/><glyph glyph-name="ampersand.ss01" horiz-adv-x="1024" d="M475-20q-369 0-369 454v76q0 144 52.5 239T307 885q-90 36-140 129t-50 237v64q0 36 2.5 69t12 77.5 25 81.5 43.5 75 65 64 93 42.5 125 16.5q177 0 266-108.5t89-317.5v-96H631v94q0 145-39 200.5T483 1569q-77 0-116-58.5T328 1311v-99q0-79 15.5-133t42.5-78.5 53.5-33.5 58.5-9h133v129h207V958h96V791h-96V418q0-438-363-438zM317 426q0-150 40-212t122-62q74 0 113 59.5T631 422v369H492q-31 0-58.5-10T378 745t-44.5-81T317 530V426z"/><glyph glyph-name="cent.tf" horiz-adv-x="1953" d="M922-143v319q-303 18-463 198.5T299 858v6q0 300 160.5 481T922 1544v320h110v-318q140-7 254-51t190-116 121-165.5 54-201.5l4-60h-211l-6 60q-16 146-119 243.5T1032 1362V358q189 10 290 108t116 243l6 57h211l-6-57q-11-107-55-199.5T1475.5 344 1287 226t-255-52v-317H922zM510 856q0-218 103-348t309-148v1000q-207-20-309.5-149.5T510 860v-4z"/><glyph glyph-name="dollar.tf" horiz-adv-x="1953" d="M938-143v125Q624 2 456.5 160T289 598v20h221v-20q0-193 110-298t318-124v627l-107 33q-71 21-123 40t-111.5 47.5-100 62.5-75 78.5-52 103.5-17.5 130q0 139 76 239t206 150 304 54v123h113v-127q260-21 411.5-163t151.5-378v-20h-221v20q0 150-89.5 238.5T1051 1544V983l120-37q64-20 106-35t97-39 91-48 74-60 60-77 36-96.5 14-121.5q0-234-156-358.5T1051-20v-123H938zM573 1298q0-36 11-67t26-53.5 44.5-43.5 52-34 65-29 66.5-23.5 71-21.5l29-8v530q-168-5-266.5-68.5T573 1298zm478-1126q174 3 275 78.5T1427 471q0 35-6 64.5t-20 53-28.5 41.5-40.5 34.5-47 27.5-57 23.5-61.5 20T1097 756q-4 1-7.5 2t-6.5 2l-32 10V172z"/><glyph glyph-name="Euro.tf" horiz-adv-x="1953" d="M115 717v86h157q-2 20-2 59l2 56H115v86h164q14 126 53.5 236.5t107 202.5 158 158T810 1704t265 37q173 0 314.5-55.5t234.5-152 147.5-221T1837 1044l4-38h-225l-2 38q-8 105-45.5 194T1466 1395.5 1301 1503t-224 39q-132 0-236.5-40.5t-173.5-114T556.5 1218 500 1004h727v-86H494q-2-18-2-56l2-59h733v-86H500q16-120 57-216.5t110-170 172.5-113T1075 178q127 0 228 39.5T1468.5 327t101 159.5T1614 682l2 37h225l-4-37q-9-116-44.5-219.5t-99.5-192-152-153-208-101T1073-20q-177 0-321 56T511.5 192.5t-155 233T279 717H115z"/><glyph glyph-name="sterling.tf" horiz-adv-x="1953" d="M276 152q218 182 218 417 0 35-7 82H276v105h183q-6 17-49 119.5t-60.5 178T332 1223q0 241 175 379.5t503 138.5q339 0 510.5-156t171.5-442v-31h-215v31q0 212-112.5 317T1004 1565q-459 0-459-361 0-82 22-156t59-157.5T678 756h725V651H700q7-44 7-80 0-217-183-397h1168V0H276v152z"/><glyph glyph-name="yen.tf" horiz-adv-x="1953" d="M309 571v82h527L104 1720h254l619-925 618 925h254L1118 653h527v-82h-562V469h562v-82h-562V0H870v387H309v82h561v102H309z"/><glyph glyph-name="bouclecomb" horiz-adv-x="1538" d="M776-20Q673-20 584.5 4T435 68t-101 79-68 82h-20v869h20q24 43 63.5 84t100 81 150 64.5T772 1352q151 0 275.5-51.5t208.5-142 130-216 46-272.5v-8q0-306-178.5-494T776-20zM272 657q0-227 125-361t351-134q229 0 351 138.5T1221 662v8q0 220-123.5 359.5T745 1169q-223 0-348-134T272 674v-17z"/><glyph glyph-name="slashcomb" horiz-adv-x="2107" d="M262 20l1383 1680h196L459 20H262z"/></font>
</defs>
</svg>
