<svg xmlns="http://www.w3.org/2000/svg"><defs><font id="PPFormula-SemiExtendedBold" horiz-adv-x="1490"><font-face font-family="PP Formula Semi Extended Bold" font-weight="700" font-stretch="semi-expanded" units-per-em="2048" ascent="1638" descent="-410" x-height="1331" cap-height="1704" bbox="-522 -475 3215 2128" underline-thickness="81" underline-position="-285" unicode-range="U+0020-FB02"/><glyph glyph-name="fi" unicode="fi" horiz-adv-x="1728" d="M27 1331h372v68q0 63 7.5 108.5t29 88.5 58.5 69.5 99 42.5 148 16q159 0 389-20v-209q-47 6-241 6-130 0-171.5-25.5T676 1380v-108q37 41 121 50t333 9v-241H676V0H399v1090H27v241zm1241 254q0 65 44 102t128 37q86 0 130-37t44-102q0-60-45-97.5t-129-37.5q-83 0-127.5 37.5T1268 1585zM1303 0v1331h276V0h-276z"/><glyph glyph-name="fl" unicode="fl" horiz-adv-x="1730" d="M27 1331h372v68q0 63 7.5 108.5t29 88.5 58.5 69.5 99 42.5 148 16q159 0 389-20v-209q-47 6-241 6-130 0-171.5-25.5T676 1380v-108q37 41 121 50t333 9v-241H676V0H399v1090H27v241zM1305 0v1704h276V0h-276z"/><glyph glyph-name=".notdef" horiz-adv-x="1085" d="M891 1700V-471H203v2171h688zM362-322h361v72H502l151 103h70v71H362v-71h152L362-250v-72zm0 295h361v246H362V-27zm0 377h361v244H506V473h74v49h71V422H434v172h-72V350zm0 293h361v217h-72V717H362v-74zm0 123h218v152h143v71H362v-71h144v-80H362v-72zm0 283h361v73H580v152H362v-225zm0 282h361v72H580v80h143v71H365v-71h141v-80H362v-72zM434 45v102h217V45H434zm0 1077v78h72v-78h-72z"/><glyph glyph-name=".null" horiz-adv-x="0"/><glyph glyph-name="nonmarkingreturn" horiz-adv-x="682"/><glyph glyph-name="space" horiz-adv-x="591"/><glyph glyph-name="exclam" unicode="!" horiz-adv-x="604" d="M164 1704h276L422 512H180zM135 141q0 75 47.5 121.5T301 309q69 0 116.5-46.5T465 141q0-72-47.5-116.5T301-20q-71 0-118.5 44.5T135 141z"/><glyph glyph-name="quotedbl" unicode="&quot;" horiz-adv-x="669" d="M131 1704h145v-512H131v512zm262-512v512h146v-512H393z"/><glyph glyph-name="numbersign" unicode="#" horiz-adv-x="2084" d="M297 1130h561l391 574h113l-391-574h518l391 574h113l-391-574h417v-90h-481l-301-442h543v-90h-604L827 0H715l348 508H545L197 0H84l348 508H57v90h437l301 442H297v90zm309-532h518l301 442H907z"/><glyph glyph-name="dollar" unicode="$" horiz-adv-x="1470" d="M680-143v125Q385 1 234.5 146T84 555v49h289v-49q0-150 76.5-228T680 231v533l-121 45q-82 28-141.5 55.5t-116.5 68-92 88-56.5 114.5-21.5 149q0 203 145.5 317T680 1724v123h123v-125q252-19 394-147.5t142-351.5v-49h-286v40q0 227-250 259v-467l137-50q86-31 144.5-58.5T1201 829t91.5-89 54.5-117 21-156q0-472-565-487v-123H680zM420 1276q0-39 15-70.5t33.5-51 60-41 68-32T680 1051v424q-124-6-192-53.5T420 1286v-10zM803 227q131 6 204.5 64t73.5 170v12q0 32-7 58t-16 45-30 37-37 29-50.5 25.5-56.5 23-69 24.5l-12 4V227z"/><glyph glyph-name="percent" unicode="%" horiz-adv-x="1914" d="M301 0l1159 1704h150L451 0H301zM51 1327q0 75 26.5 146t74.5 127 122.5 90 163.5 34q119 0 209.5-58.5t135-147.5 44.5-191-44.5-190.5-135-146.5T438 932q-118 0-208 58T95.5 1136.5 51 1327zm215 0q0-87 48-138.5t124-51.5q77 0 125.5 51.5T612 1327q0 88-48.5 140.5T438 1520q-76 0-124-52.5T266 1327zm821-950q0 102 45 190.5T1268 714t209 58 208.5-58T1821 567.5t45-190.5-45-191-135.5-147.5T1477-20t-209 58.5T1132 186t-45 191zm218 0q0-88 48-140.5t124-52.5 124 52.5 48 140.5q0 87-48 138.5T1477 567t-124-51.5-48-138.5z"/><glyph glyph-name="ampersand" unicode="&amp;" horiz-adv-x="1634" d="M760-20q-315 0-479 128T117 465v10q0 147 73 251.5T399 870q-129 42-198.5 140.5T131 1245v12q0 96 39 179t115 148 199.5 102.5T766 1724q305 0 462.5-131.5T1386 1217v-17h-280v25q0 132-82.5 199T764 1491q-175 0-259.5-62.5T420 1253v-39q0-237 340-237h346v115h280V977h162V756h-162V473q0-240-157-366.5T760-20zM406 465q0-254 352-254 348 0 348 256v289H754q-174 0-261-64t-87-184v-43z"/><glyph glyph-name="quotesingle" unicode="'" horiz-adv-x="407" d="M131 1704h145v-512H131v512z"/><glyph glyph-name="parenleft" unicode="(" horiz-adv-x="616" d="M500-313Q290-48 192 199.5T94 735q0 289 98 533t308 508h112q-219-282-317-519.5T197 735q0-286 96.5-522T612-313H500z"/><glyph glyph-name="parenright" unicode=")" horiz-adv-x="616" d="M117 1780q210-265 307.5-513T522 731q0-289-97.5-532.5T117-309H4Q223-27 321.5 210T420 731q0 286-97 522.5T4 1780h113z"/><glyph glyph-name="asterisk" unicode="*" horiz-adv-x="792" d="M354 1708h82v-240l191 101 41-70-187-98 187-98-41-70-191 100v-239h-82v239l-190-100-41 70 186 98-186 98 41 70 190-101v240z"/><glyph glyph-name="plus" unicode="+" horiz-adv-x="1746" d="M117 805v92h706v573h101V897h704v-92H924V227H823v578H117z"/><glyph glyph-name="comma" unicode="," horiz-adv-x="536" d="M143-125q72 19 129.5 61.5T352 41Q328 9 303.5-5.5T240-20q-59 0-98.5 41.5T102 141q0 74 46.5 120T268 307q80 0 123-53.5T434 109q0-111-78.5-210T143-268v143z"/><glyph glyph-name="hyphen" unicode="-" horiz-adv-x="1705" d="M96 721h1512v-90H96v90z"/><glyph glyph-name="period" unicode="." horiz-adv-x="530" d="M266-20q-71 0-118.5 44.5T100 141q0 75 47.5 121.5T266 309q69 0 116.5-46.5T430 141q0-72-47.5-116.5T266-20z"/><glyph glyph-name="slash" unicode="/" horiz-adv-x="1341" d="M1311 1704L145 0H31l1165 1704h115z"/><glyph glyph-name="zero" unicode="0" horiz-adv-x="1710" d="M856-20q-354 0-546.5 212T117 782v146q0 374 193 585t546 211q350 0 541.5-211.5T1589 926V780q0-376-191-588T856-20zM410 760q0-169 45-279l708 877q-109 112-307 112-222 0-334-136T410 944V760zm137-420q113-107 309-107 219 0 329.5 136.5T1296 764v182q0 155-43 268z"/><glyph glyph-name="one" unicode="1" horiz-adv-x="1314" d="M125 254h438v1141q-181-131-444-131v264q142 0 257 38t206 138h268V254h440V0H125v254z"/><glyph glyph-name="two" unicode="2" horiz-adv-x="1667" d="M125 272q0 95 14.5 172T190 593t95 126 151 96.5T651 883l252 55q72 15 122 30t96 37.5 73 51 43 69.5 16 95v12q0 122-95.5 179.5T864 1470q-228 0-328-80.5T436 1135v-45H141v36q0 291 176.5 444.5T860 1724q336 0 511-129.5t175-384.5q0-409-483-501l-268-62q-74-15-130.5-33T568 576.5 500.5 530t-44-53-25-64-11-72.5T418 254h1128V0H125v272z"/><glyph glyph-name="three" unicode="3" horiz-adv-x="1642" d="M813-20q-365 0-536.5 131T98 532v21h291v-31q7-163 107-226t315-63q227 0 321.5 57t94.5 183v41q0 127-90.5 176T823 739H580v254h243q205 0 293 49.5t88 165.5v37q0 117-95.5 171T813 1470q-92 0-158.5-12t-120-41.5-81.5-84-31-134.5v-27H131v19q7 278 175.5 406T811 1724q182 0 315.5-35t213-100.5T1457 1437t38-194v-12q5-139-57-235.5T1249 868q136-33 202.5-132.5T1518 485v-12q0-248-173-370.5T813-20z"/><glyph glyph-name="four" unicode="4" horiz-adv-x="1613" d="M1309 1704V573h219V319h-219V0h-287v319H66v265l958 1120h285zM352 573h670v760z"/><glyph glyph-name="five" unicode="5" horiz-adv-x="1642" d="M924 1143q131 0 241.5-33.5t195-98.5 132-169.5T1540 604v-39q0-585-694-585-343 0-533 136T123 510v31h295v-45q0-91 55.5-151t147-86T838 233q200 0 303.5 71T1245 528v64q0 303-385 303-299 0-442-188H141l66 997h1257v-254H465l-39-479q180 172 498 172z"/><glyph glyph-name="six" unicode="6" horiz-adv-x="1671" d="M844-20q-364 0-537.5 159.5T133 631v346q0 368 183 557.5T868 1724q306 0 470-130t167-353l2-20h-293v20q-3 107-92 164t-252 57q-214 0-329-92.5T426 1094V961q158 198 506 198 286 0 455-146.5T1556 610v-47q0-289-179-436T844-20zM426 541q0-160 101-234t315-74 318 74 104 228v67q0 159-99 230t-307 71q-432 0-432-295v-67z"/><glyph glyph-name="seven" unicode="7" horiz-adv-x="1429" d="M33 1450v254h1339v-254q-103-69-190-145t-152-151-116.5-159.5-87-161.5T765 667t-40.5-164.5-23-166-11-161T688 18V0H397v18q0 111 4.5 203.5t20.5 212 43 220 75.5 215 115 211.5 165 194 221.5 176H33z"/><glyph glyph-name="eight" unicode="8" horiz-adv-x="1662" d="M831-20q-360 0-536 125T119 467v18q0 166 87.5 275.5T438 907q-124 33-202 126.5T158 1268v14q0 210 174.5 326T838 1724q328 0 497.5-116t169.5-328v-14q0-141-78-233.5T1225 907q145-37 232-145.5t87-276.5v-20q0-235-176.5-360T831-20zM412 477q0-135 99.5-196.5T831 219q219 0 319.5 62T1251 479v47q0 132-101.5 190T831 774q-216 0-317.5-58T412 526v-49zm39 756q0-111 95.5-161t284.5-50 285 50.5 96 162.5v35q0 113-93 164t-288 51q-193 0-286.5-51.5T451 1270v-37z"/><glyph glyph-name="nine" unicode="9" horiz-adv-x="1671" d="M827 1724q364 0 537.5-159.5T1538 1073V727q0-368-183-557.5T803-20q-306 0-470 130T166 463l-2 20h293v-20q3-107 92-164t252-57q214 0 329 92.5T1245 610v133q-158-198-506-198-286 0-455 146.5T115 1094v47q0 289 179 436t533 147zm-419-622q0-159 99-230t306-71q432 0 432 295v67q0 160-101 233.5T829 1470t-317.5-73.5T408 1169v-67z"/><glyph glyph-name="colon" unicode=":" horiz-adv-x="610" d="M305 838q-71 0-118.5 44.5T139 999q0 75 47.5 121.5T305 1167q69 0 116.5-46.5T469 999q0-72-47.5-116.5T305 838zM139 141q0 75 47.5 121.5T305 309q69 0 116.5-46.5T469 141q0-72-47.5-116.5T305-20q-71 0-118.5 44.5T139 141z"/><glyph glyph-name="semicolon" unicode=";" horiz-adv-x="608" d="M305 838q-71 0-118.5 44.5T139 999q0 75 47.5 121.5T305 1167q69 0 116.5-46.5T469 999q0-72-47.5-116.5T305 838zM137 141q0 74 46.5 120T303 307q80 0 123-53.5T469 109q0-111-78.5-210T178-268v143q72 19 129.5 61.5T387 41q-23-31-48.5-46T274-20q-59 0-98 41.5T137 141z"/><glyph glyph-name="less" unicode="&lt;" horiz-adv-x="1583" d="M92 893l1331 326v-99L264 852l1159-268v-99L92 811v82z"/><glyph glyph-name="equal" unicode="=" horiz-adv-x="1755" d="M121 1049h1511v-91H121v91zm0-394v90h1511v-90H121z"/><glyph glyph-name="greater" unicode="&gt;" horiz-adv-x="1583" d="M1491 811L160 485v99l1159 268-1159 268v99l1331-326v-82z"/><glyph glyph-name="question" unicode="?" horiz-adv-x="1308" d="M653 1724q135 0 240-25t172-67.5 111-102.5 61.5-125 17.5-140q0-92-29-166t-75-123.5-101.5-92-111-81.5T837 720.5 762 620t-29-131v-22H479v25q0 83 16.5 152.5t44.5 118 64.5 89.5 76.5 71.5 80 58.5 76.5 56.5T902 1098t44.5 72.5T963 1262q0 225-308 225-168 0-242.5-78T338 1184v-43H45v28q0 125 35.5 225t108 174.5 190.5 115 274 40.5zM440 141q0 75 47.5 121.5T606 309q69 0 116.5-46.5T770 141q0-72-47.5-116.5T606-20q-71 0-118.5 44.5T440 141z"/><glyph glyph-name="at" unicode="@" horiz-adv-x="1853" d="M975-193q-261 0-459.5 101.5t-309 295T96 657q0 203 60.5 367t170 274 262 169 335.5 59q387 0 604-213.5T1745 692q0-255-79-389.5T1434 168q-91 0-160.5 48.5T1182 356q-100-192-328-192-194 0-317 136T414 668t122.5 366.5T852 1169q106 0 188.5-45.5T1174 991v158h176V436q0-96 26-138t82-42q91 0 137.5 113.5T1642 692q0 368-186.5 554T924 1432q-161 0-294.5-52t-229-149.5T252 986t-53-331q0-233 97-404.5t270.5-261T969-100q138 0 286 24t230 60v-97q-88-35-229-57.5T975-193zM592 668q0-165 78-255.5T893 322q281 0 281 346 0 168-71 256t-210 88q-146 0-223.5-89.5T592 668z"/><glyph glyph-name="A" unicode="A" horiz-adv-x="1634" d="M14 0l609 1704h387L1622 0h-307l-103 299H422L319 0H14zm494 553h616l-293 850-16 43-16-43z"/><glyph glyph-name="B" unicode="B" horiz-adv-x="1722" d="M176 0v1704h891q240 0 368-109.5t128-322.5v-10q0-285-203-367 114-40 185-145t71-254v-11q0-485-524-485H176zm289 256h602q129 0 190.5 54.5T1319 489v33q0 121-63.5 174.5T1065 750H465V256zm0 752h569q52 0 91.5 9.5t72.5 32 50.5 66T1266 1221v28q0 114-57 156.5t-171 42.5H465v-440z"/><glyph glyph-name="C" unicode="C" horiz-adv-x="1779" d="M911-20q-194 0-349 61.5T307 212 154.5 466.5 102 782v146q0 168 53 312t153 252.5 255.5 170T913 1724q173 0 316-51t238-140.5 150.5-207.5 65.5-254l3-74h-300l-2 93q-5 77-38.5 145t-91 120-146 82.5T913 1468q-130 0-230-41.5t-161-114-92-166T399 944V760q0-111 31-204.5T522 390t161-113 230-41q109 0 197.5 30.5T1256 350t90 121 38 145l2 95h300l-3-74q-10-138-65.5-256.5T1467 172 1229 31 911-20z"/><glyph glyph-name="D" unicode="D" horiz-adv-x="1759" d="M176 0v1704h735q360 0 549-190.5T1649 928V776q0-392-190-584T911 0H176zm289 252h448q227 0 334 124.5T1354 764v176q0 263-107.5 387.5T911 1452H465V252z"/><glyph glyph-name="E" unicode="E" horiz-adv-x="1505" d="M176 0v1704h1210v-256H465V979h862V725H465V256h921V0H176z"/><glyph glyph-name="F" unicode="F" horiz-adv-x="1497" d="M176 0v1704h1247v-256H465V918h899V664H465V0H176z"/><glyph glyph-name="G" unicode="G" horiz-adv-x="1812" d="M879-20q-185 0-333.5 62T301 212 154.5 464.5 104 778v148q0 135 32 254.5t97.5 219 159.5 172T618 1684t287 40q165 0 305.5-48.5t238-132.5 156.5-198 70-245v-58h-299l-2 76q-13 164-140 257t-325 93q-108 0-195-27.5T569 1366t-97-114-56-143-17-163V762q0-89 17.5-167t56-144.5 94.5-114 137-74T885 236q209 0 333.5 99T1368 614v43H772v238h903V0h-182l-39 262Q1273-20 879-20z"/><glyph glyph-name="H" unicode="H" horiz-adv-x="1763" d="M1298 0v725H465V0H176v1704h289V979h833v725h289V0h-289z"/><glyph glyph-name="I" unicode="I" horiz-adv-x="1337" d="M102 0v260h422v1184H102v260h1133v-260H813V260h422V0H102z"/><glyph glyph-name="J" unicode="J" horiz-adv-x="1554" d="M725-20q-353 0-514.5 165.5T49 657v23h297v-43q0-81 10.5-142T393 383t68.5-83T570 250.5 725 233q108 0 182.5 25t117 76.5 61 120.5 18.5 166v1083h291V639q0-333-161.5-496T725-20z"/><glyph glyph-name="K" unicode="K" horiz-adv-x="1601" d="M1225 0L553 721h-88V0H176v1704h289V983h88l672 721h372L780 852 1597 0h-372z"/><glyph glyph-name="L" unicode="L" horiz-adv-x="1419" d="M176 0v1704h289V256h919V0H176z"/><glyph glyph-name="M" unicode="M" horiz-adv-x="2064" d="M176 0v1704h326l530-1223 533 1223h323V0h-276v1176L1100 0H965L453 1176V0H176z"/><glyph glyph-name="N" unicode="N" horiz-adv-x="1783" d="M176 0v1704h283l866-1251v1251h283V0h-283L457 1251V0H176z"/><glyph glyph-name="O" unicode="O" horiz-adv-x="1804" d="M903-20q-189 0-342 62T308.5 213t-153 254T102 780v146q0 167 53.5 312t153 253.5T561 1662t342 62q188 0 340.5-62t251.5-170.5 152-253.5 53-312V780q0-168-53.5-313.5t-152.5-254T1242.5 42 903-20zM399 762q0-110 30-203.5T519 392t158.5-114.5T903 236t225 41.5T1285.5 392t89.5 166.5 30 203.5v182q0 86-18.5 163t-58.5 143.5-98 114.5-141.5 75.5T903 1468q-127 0-225.5-41.5T519 1312t-90-165.5T399 946V762z"/><glyph glyph-name="P" unicode="P" horiz-adv-x="1683" d="M176 0v1704h836q606 0 606-563v-13q0-286-149.5-425.5T1012 563H465V0H176zm289 813h541q167 0 241 70t74 223v61q0 150-73.5 217.5T1006 1452H465V813z"/><glyph glyph-name="Q" unicode="Q" horiz-adv-x="1804" d="M903 236q127 0 225 41.5T1285.5 392t89.5 166.5 30 203.5v182q0 86-18.5 163t-58.5 143.5-98 114.5-141.5 75.5T903 1468q-127 0-225.5-41.5T519 1312t-90-165.5T399 946V762q0-110 30-203.5T519 392t158.5-114.5T903 236zM102 780v146q0 167 53.5 312t153 253.5T561 1662t342 62q188 0 340.5-62t251.5-170.5 152-253.5 53-312V780q0-154-45-289.5t-128.5-241-211.5-174T1028-12q246-27 483-113v-227q-226 83-403.5 118T696-188V0h2Q509 40 373 153T169.5 426.5 102 780z"/><glyph glyph-name="R" unicode="R" horiz-adv-x="1724" d="M1317 0q-25 29-25 152v256q0 131-74.5 186T1004 649H465V0H176v1704h834q573 0 573-508v-6q0-340-264-412 128-33 196-130.5t68-241.5V152q0-121 25-152h-291zM465 899h539q143 0 212.5 56.5T1286 1161v45q0 134-71.5 190T991 1452H465V899z"/><glyph glyph-name="S" unicode="S" horiz-adv-x="1626" d="M838-20q-382 0-566 148T88 569v39h295v-57q0-172 109-248t352-76q202 0 295.5 55t93.5 175v18q-1 115-72.5 166T903 729l-338 78q-428 97-428 446 0 230 170 350.5T801 1724q338 0 511-131.5t173-382.5v-41h-293v50q0 136-91.5 197T803 1477q-187 0-278-50t-91-153v-12q0-95 75.5-147.5T735 1032l342-76q110-23 189.5-57.5T1407 810t91-134 30-187q0-267-164-388T838-20z"/><glyph glyph-name="T" unicode="T" horiz-adv-x="1511" d="M610 0v1448H37v256h1436v-256H899V0H610z"/><glyph glyph-name="U" unicode="U" horiz-adv-x="1751" d="M877-20q-380 0-547.5 157T162 647v1057h289V631q0-220 101.5-309T877 233q222 0 322.5 89T1300 631v1073h289V647q0-355-167.5-511T877-20z"/><glyph glyph-name="V" unicode="V" horiz-adv-x="1634" d="M625 0L14 1704h305L803 301l16-43 17 43 481 1403h305L1012 0H625z"/><glyph glyph-name="W" unicode="W" horiz-adv-x="2539" d="M508 0L33 1704h299L700 319l383 1385h373l385-1382 2-5 365 1387h299L2034 0h-381l-377 1366-4 18-6-18L889 0H508z"/><glyph glyph-name="X" unicode="X" horiz-adv-x="1597" d="M16 0l615 854-598 850h348l420-649 420 649h348L967 854 1579 0h-348L797 653 365 0H16z"/><glyph glyph-name="Y" unicode="Y" horiz-adv-x="1587" d="M651 0v596L-4 1704h332l467-821 467 821h329L938 596V0H651z"/><glyph glyph-name="Z" unicode="Z" horiz-adv-x="1521" d="M96 0v258l965 1190H96v256h1329v-258L459 256h966V0H96z"/><glyph glyph-name="bracketleft" unicode="[" horiz-adv-x="649" d="M618 1780v-90H270V-223h348v-90H168v2093h450z"/><glyph glyph-name="backslash" unicode="\" horiz-adv-x="1341" d="M31 1704h114L1311 0h-115z"/><glyph glyph-name="bracketright" unicode="]" horiz-adv-x="649" d="M31-313v90h348v1913H31v90h450V-313H31z"/><glyph glyph-name="asciicircum" unicode="^" horiz-adv-x="1077" d="M883 1090l-344 555-344-555H84l381 614h147l381-614H883z"/><glyph glyph-name="underscore" unicode="_" horiz-adv-x="1662" d="M0-156h1663v-90H0v90z"/><glyph glyph-name="grave" unicode="`" horiz-adv-x="1419" d="M1214 1532l-20-80-989 152 20 79z"/><glyph glyph-name="a" unicode="a" horiz-adv-x="1454" d="M1047 0v223Q966 99 827 39.5T518-20q-203 0-316.5 88T88 334q0 74 26 134t67 101 102.5 74T405 695.5 539 731l170 37q54 12 80.5 18t69 17.5 63 20.5 47.5 23 39 28.5 21 34.5 9 44v4q0 69-68.5 113.5T752 1116q-338 0-338-242v-49H135v37q0 233 156 361.5T748 1352q156 0 268.5-32.5T1193 1226t93-139 29-180V0h-268zM367 358q0-79 55-115t172-36q175 0 298 90t146 246v172q-13-29-38.5-51.5t-66-38.5-79-27-96.5-26q-9-2-13-3l-153-34q-118-28-171.5-67T367 358z"/><glyph glyph-name="b" unicode="b" horiz-adv-x="1531" d="M152 0v1704h274v-553q56 84 162.5 142.5T850 1352q271 0 430.5-171.5T1440 735V590q0-269-160-439.5T854-20q-155 0-261 56.5T426 176V0H152zm274 600q0-167 94-274t273-107q92 0 162.5 30t113.5 83.5 64.5 121.5 21.5 148v127q0 79-22 147t-65 121.5-114 84-163 30.5q-177 0-271-107.5T426 729V600z"/><glyph glyph-name="c" unicode="c" horiz-adv-x="1460" d="M1090 840q-5 53-27 100.5t-62.5 86.5-106.5 62-149 23q-190 0-279-102.5T377 723V602q0-181 89-282t279-101q89 0 156.5 23t106 63 58.5 86 24 101l6 75h282l-6-63q-9-108-51.5-200.5t-117.5-166T1009.5 22 741-20q-320 0-485.5 171T90 621v94q0 297 166 467t485 170q149 0 268-42t195.5-115.5 119-166.5 50.5-201l4-65h-282z"/><glyph glyph-name="d" unicode="d" horiz-adv-x="1529" d="M1104 1704h276V0h-276v180q-56-83-162.5-141.5T680-20q-271 0-430.5 171T90 596v145q0 269 160 440t426 171q155 0 261-57t167-140v549zM375 602q0-79 22-147t65-121.5 114-84T739 219q177 0 271 107.5t94 275.5v129q0 167-94 274t-273 107q-92 0-162.5-30T461 998.5 396.5 877 375 729V602z"/><glyph glyph-name="e" unicode="e" horiz-adv-x="1472" d="M90 621v94q0 297 168 467t494 170q299 0 462.5-165T1378 713V602H379q0-180 91.5-281.5T754 219q142 0 217 55.5t90 141.5l2 30h305l-2-16q-24-204-180.5-327T752-20q-327 0-494.5 170.5T90 621zm293 182h707v37q-19 133-108.5 202.5T741 1112q-162 0-250-81T383 803z"/><glyph glyph-name="f" unicode="f" horiz-adv-x="1155" d="M27 1331h372v68q0 63 7.5 108.5t29 88.5 58.5 69.5 99 42.5 148 16q159 0 389-20v-209q-47 6-241 6-130 0-171.5-25.5T676 1380v-108q37 41 121 50t333 9v-241H676V0H399v1090H27v241z"/><glyph glyph-name="g" unicode="g" horiz-adv-x="1529" d="M1104 33v147q-56-83-162.5-141.5T680-20q-271 0-430.5 171T90 596v145q0 269 160 440t426 171q155 0 261-57t167-140v176h276V6q0-122-22-208t-73.5-149-140-93.5T926-475H166v239h717q130 0 175.5 60T1104 33zM375 602q0-79 22-147t65-121.5 114-84T739 219q177 0 271 107.5t94 275.5v129q0 167-94 274t-273 107q-92 0-162.5-30T461 998.5 396.5 877 375 729V602z"/><glyph glyph-name="h" unicode="h" horiz-adv-x="1492" d="M428 1704v-592q154 240 444 240 225 0 354.5-145.5T1356 809V0h-277v778q0 336-309 336-69 0-124.5-17t-92-46-62-64-39-76.5-19-77T428 762V0H152v1704h276z"/><glyph glyph-name="i" unicode="i" horiz-adv-x="577" d="M152 1331h276V0H152v1331zm-35 254q0 65 44 102t128 37q86 0 130-37t44-102q0-60-45-97.5T289 1450q-83 0-127.5 37.5T117 1585z"/><glyph glyph-name="j" unicode="j" horiz-adv-x="577" d="M152 0v1331h274V-39q0-121-27.5-207T317-381.5 191.5-453 23-475h-267v239h191q114 0 159.5 51T152 0zm-37 1585q0 65 44 102t128 37q86 0 130-37t44-102q0-60-45-97.5T287 1450q-83 0-127.5 37.5T115 1585z"/><glyph glyph-name="k" unicode="k" horiz-adv-x="1421" d="M152 1704h276V791h121l520 540h352L758 668 1421 0h-352L539 551H428V0H152v1704z"/><glyph glyph-name="l" unicode="l" horiz-adv-x="577" d="M152 1704h276V0H152v1704z"/><glyph glyph-name="m" unicode="m" horiz-adv-x="2240" d="M1827 797q0 317-266 317-72 0-127.5-23t-86.5-57.5-50-80.5-25-83.5-6-76.5V0H989v797q0 317-266 317-72 0-127-23t-86-57.5-50.5-80-25.5-84-6-76.5V0H152v1331h276v-166q122 187 371 187 293 0 407-234 139 234 424 234 229 0 351-139.5T2103 848V0h-276v797z"/><glyph glyph-name="n" unicode="n" d="M428 1331v-219q154 240 444 240 225 0 354.5-145.5T1356 809V0h-277v778q0 336-309 336-69 0-124.5-17t-92-46-62-64-39-76.5-19-77T428 762V0H152v1331h276z"/><glyph glyph-name="o" unicode="o" horiz-adv-x="1460" d="M731-20q-314 0-476.5 171T92 621v90q0 299 162.5 470T731 1352q210 0 354.5-80t213.5-222 69-339v-90q0-197-69-339T1085.5 60 731-20zM377 606q0-387 354-387t354 387v119q0 387-354 387T377 725V606z"/><glyph glyph-name="p" unicode="p" horiz-adv-x="1531" d="M428 1331v-178q58 85 163 142t259 57q271 0 430.5-171.5T1440 735V590q0-269-160-439.5T854-20q-152 0-258.5 56T428 172v-647H152v1806h276zm0-778q13-149 106-241.5T793 219q92 0 162.5 30t113.5 83.5 64.5 121.5 21.5 148v127q0 79-22 147t-65 121.5-114 84-163 30.5q-164 0-257-93T428 776V553z"/><glyph glyph-name="q" unicode="q" horiz-adv-x="1529" d="M1104-475v655q-56-83-162.5-141.5T680-20q-271 0-430.5 171T90 596v145q0 269 160 440t426 171q155 0 261-57t167-140v176h276V-475h-276zM375 602q0-79 22-147t65-121.5 114-84T739 219q177 0 271 107.5t94 275.5v129q0 167-94 274t-273 107q-92 0-162.5-30T461 998.5 396.5 877 375 729V602z"/><glyph glyph-name="r" unicode="r" horiz-adv-x="1312" d="M428 1331v-221q46 104 157 173t253 69q193 0 307.5-116T1260 877V723H977v131q0 130-54.5 195T745 1114q-69 0-125-20t-91-52-58.5-74-33-84-9.5-85V0H152v1331h276z"/><glyph glyph-name="s" unicode="s" horiz-adv-x="1415" d="M971 760q105-22 176.5-57.5T1258 618t55-102.5 16-122.5q0-74-17-134t-59.5-113-110-89T970 .5 727-20q-180 0-307 31.5T218.5 106 111 254 78 455v34h287v-32q0-134 86-188t274-54q174 0 246.5 40.5T1044 377q0 66-51.5 106T825 551l-311 63q-113 19-191.5 53.5T201 749t-61.5 99.5T121 967q0 82 29 149t92.5 121.5T419 1322t269 30q137 0 242-22t173-60.5 111.5-94.5 61.5-119.5 18-140.5v-30h-286v28q0 113-77.5 158T688 1116q-81 0-141.5-12.5T447 1060t-39-79q0-54 45.5-87T606 838z"/><glyph glyph-name="t" unicode="t" horiz-adv-x="1150" d="M1065 1331v-239H641V451q0-124 28-167.5T780 240h285V0H719Q615 0 545 25t-108.5 78-54 123T367 397v695H20v239h156q127 4 176.5 94t46.5 279h275q0-154-33.5-254T537 1331h528z"/><glyph glyph-name="u" unicode="u" d="M1065 0v223Q913-20 618-20q-225 0-354 145T135 522v809h277V553q0-336 309-336 69 0 124.5 17t92 46 62 64 39 76.5 19 77 5.5 71.5l2-34v796h276V0h-276z"/><glyph glyph-name="v" unicode="v" horiz-adv-x="1376" d="M14 1331h287L688 207l385 1124h289L883 0H494z"/><glyph glyph-name="w" unicode="w" horiz-adv-x="2109" d="M37 1331h278L582 215l280 1116h387l281-1116 266 1116h279L1720 0h-366l-299 1133L756 0H391z"/><glyph glyph-name="x" unicode="x" horiz-adv-x="1384" d="M-6 0l530 684-489 647h346l319-442 320 442h330L862 682 1389 0h-347L684 477 326 0H-6z"/><glyph glyph-name="y" unicode="y" d="M1063-8v227Q909-20 618-20q-225 0-354 145T135 522v809h277V553q0-336 309-336 69 0 124.5 17t92 46 62 64 39 76.5 19 77 5.5 71.5v762h278V-10q0-465-415-465H170v239h715q92 0 135 51.5T1063-8z"/><glyph glyph-name="z" unicode="z" horiz-adv-x="1349" d="M90 1331h1170v-239L432 240h838V0H80v240l829 852H90v239z"/><glyph glyph-name="braceleft" unicode="{" horiz-adv-x="616" d="M96 846q80 0 80 184v387q0 363 295 363h113v-97H473q-95 0-144.5-67.5T279 1425v-389q0-112-19-165.5T188 782v-94q53-35 72-88.5T279 434V47q0-124 49.5-192T473-213h111v-96H471q-295 0-295 364v385q0 92-21 138.5T96 625v221z"/><glyph glyph-name="bar" unicode="|" horiz-adv-x="462" d="M180-20v1728h103V-20H180z"/><glyph glyph-name="braceright" unicode="}" horiz-adv-x="616" d="M520 625q-38 0-59-46.5T440 440V53q0-362-295-362H33v96h110q96 0 145.5 67.5T338 45v389q0 112 18.5 165.5T428 688v94q-53 35-71.5 88.5T338 1036v387q0 123-50 191.5T143 1683H33v97h112q295 0 295-365v-385q0-184 80-184V625z"/><glyph glyph-name="asciitilde" unicode="~" horiz-adv-x="1804" d="M133 702q0 72 22.5 129t59.5 93 88 59.5 103 33 110 9.5q93 0 180-26t156.5-62.5 136.5-73 146.5-62.5 160.5-26q125 0 200 57t75 164h106q0-72-22.5-129t-59.5-93-88-59-103-32.5-110-9.5q-93 0-180 26t-156.5 62.5-136.5 73T674.5 898 514 924q-125 0-199.5-57.5T240 702H133z"/><glyph glyph-name="uni00A0" horiz-adv-x="591"/><glyph glyph-name="exclamdown" unicode="¡" horiz-adv-x="581" d="M428-373H152l18 1192h242zM127 1190q0 72 47.5 117t116.5 45q71 0 118.5-45t47.5-117q0-75-47.5-121.5T291 1022q-69 0-116.5 46.5T127 1190z"/><glyph glyph-name="cent" unicode="¢" horiz-adv-x="1536" d="M709-143v311q-289 18-439.5 187T119 807v94q0 280 150 448.5T709 1536v311h122v-311q137-7 246.5-52t180-116.5 110-161T1415 1014l4-66h-276l-6 76q-10 106-87 182.5T831 1296V408q78 6 136.5 30.5t93 63.5 53 83 23.5 95l6 74h276l-6-64q-9-103-48-191.5t-108.5-161T1078 220t-247-52v-311H709zM399 793q0-165 75.5-265T709 410v884q-159-20-234.5-120.5T399 907V793z"/><glyph glyph-name="sterling" unicode="£" horiz-adv-x="1554" d="M115 193q103 80 156 175t53 216q0 9-1 27t-1 26H115v119h178q-7 21-47.5 121.5t-58 178T170 1229q0 224 167.5 359.5T807 1724q312 0 476.5-156t164.5-435v-60h-293v66q0 176-85 264t-269 88q-173 0-255.5-76T463 1202q0-81 22.5-155t59-155.5T596 756h547V637H614q2-12 2-37 0-203-167-367h999V0H115v193z"/><glyph glyph-name="currency" unicode="¤" horiz-adv-x="1150" d="M575 418q-138 0-241 61L195 319l-72 62 137 162q-94 105-94 276 0 172 96 279l-139 159 72 62 139-160q105 62 241 62 145 0 240-62l141 160 72-62-137-161q94-105 94-277 0-170-94-278l137-160-72-62-141 160q-94-61-240-61zM268 819q0-150 79.5-230.5T575 508t228 80.5T883 819t-80 230.5-228 80.5-227.5-80.5T268 819z"/><glyph glyph-name="yen" unicode="¥" horiz-adv-x="1662" d="M225 569v82h432L35 1704h332l467-821 466 821h330L1010 651h430v-82H977v-98h463v-82H977V0H690v389H225v82h465v98H225z"/><glyph glyph-name="brokenbar" unicode="¦" horiz-adv-x="462" d="M180 1034v674h103v-674H180zm0-1054v673h103V-20H180z"/><glyph glyph-name="section" unicode="§" horiz-adv-x="1429" d="M745-23Q606-23 504-3T337.5 50.5t-104.5 89-57.5 116T152 399h104q5-71 19.5-121.5t47.5-94 86-69.5 136-40.5T743 59q451 0 451 226 0 62-33 109.5t-96 58.5L315 584q-202 38-202 219 0 158 145 196-127 66-127 215 0 312 549 312 141 0 243.5-19.5t167.5-53 105-88 57-115 23-144.5h-102q-5 71-19.5 121t-47.5 93.5-87.5 69-138 40T682 1444q-449 0-449-221 0-63 33.5-110t98.5-58l749-133q201-40 201-217 0-161-144-199 125-65 125-215 0-314-551-314zM219 811q0-61 31-96.5T350 666l627-109q41-7 75-7t57 6 41 15 28.5 23 17.5 25.5 9.5 26 3.5 23 1 17.5q0 66-30 103.5T1079 840L453 946q-118 22-176-15.5T219 811z"/><glyph glyph-name="dieresis" unicode="¨" horiz-adv-x="1132" d="M811 1444q-60 0-101.5 35.5T668 1577q0 63 41.5 98t101.5 35q59 0 100-35t41-98q0-62-41-97.5T811 1444zm-631 133q0 63 41 98t101 35q59 0 101-35t42-98q0-62-42-97.5T322 1444q-60 0-101 35.5t-41 97.5z"/><glyph glyph-name="copyright" unicode="©" horiz-adv-x="1902" d="M950-20q-165 0-302.5 45.5T414 151.5t-162 191-97.5 239T123 854q0 142 31.5 270t98 238T415 1552.5t233 126 302 45.5 302.5-45.5 234-126T1650 1362t98.5-238 31.5-270q0-181-51-336.5t-150.5-277-261-191T950-20zM236 854q0-168 44-307t130.5-242.5 224-161T950 86q177 0 315 57.5t225 161T1622 547t45 307q0 165-45 303t-132 241.5-225 161.5-315 58q-176 0-313.5-58T412 1398.5 280.5 1157 236 854zm192 0q0 98 19.5 185t62.5 162 105.5 129 153 85 200.5 31q126 0 222.5-41t154.5-112 88.5-157.5T1470 948h-180q-4 59-14 105.5t-32.5 91.5-56.5 75-88.5 48-125.5 18q-365 0-365-432 0-436 361-436 72 0 127 19t89 49 56.5 75.5T1274 653t14 103h180q-4-77-21.5-146.5t-56-135T1297 362t-139.5-75.5T969 258q-137 0-242.5 46.5t-170 129T460 622t-32 232z"/><glyph glyph-name="ordfeminine" unicode="ª" horiz-adv-x="985" d="M672 913v129q-97-141-314-141-122 0-190 54t-68 159q0 55 22 97t62.5 69 85 44 103.5 30l100 22q39 9 56.5 13t46 12.5 40.5 15 26.5 16.5 20 22.5 5.5 27.5v4q0 39-40.5 63.5T502 1575q-195 0-195-137v-31H129v23q0 141 95 217.5t276 76.5q184 0 265-71t81-201V913H672zm-393 217q0-44 31-63.5t98-19.5q107 0 183.5 64.5T668 1286v51q-14-33-54.5-51.5T496 1249l-90-20q-67-16-97-37.5t-30-61.5z"/><glyph glyph-name="guillemotleft" unicode="«" horiz-adv-x="1148" d="M598 268L96 633v86l502 364V922L246 676l352-246V268zM489 633v86l502 364V922L639 676l352-246V268z"/><glyph glyph-name="logicalnot" unicode="¬" horiz-adv-x="1818" d="M1559 664v284H145v92h1516V664h-102z"/><glyph glyph-name="registered" unicode="®" horiz-adv-x="1198" d="M598 799q-79 0-144 25t-107 65.5-70.5 94.5-41 110-12.5 114 12.5 114 41 110.5 70.5 95 107 65.5 144 25q80 0 145-25t107.5-65.5 71-95 41-110.5 12.5-114q0-74-21-143t-63.5-130.5-118-98.5T598 799zm-489 409q0-72 17-143t55.5-139T275 806.5t138.5-83T598 692t185 31.5 140 83 94.5 119.5 55.5 139 17 143-17 143-55.5 139-94.5 119.5-140 83-185 31.5-184.5-31.5-138.5-83-93.5-119.5-55.5-139-17-143zm270-278v563h221q114 0 171.5-33t57.5-121q0-112-118-153 61-15 88.5-49.5T827 1040v-51q0-48 9-59H688q-10 12-10 59v51q0 45-19 62.5t-71 17.5h-60V930H379zm149 323h72q48 0 64 12t16 44q0 31-17.5 42t-62.5 11h-72v-109z"/><glyph glyph-name="macron" unicode="¯" horiz-adv-x="1419" d="M205 1528v82h1009v-82H205z"/><glyph glyph-name="degree" unicode="°" horiz-adv-x="823" d="M412 1202q-98 0-147.5 59T215 1417t49.5 156 147.5 59 147-59 49-156-49-156-147-59zm-299 215q0-60 17.5-114t52.5-98 94-69.5 135-25.5 135 25.5 94 69.5 52.5 98 17.5 114-17.5 114-52.5 98-94 69.5-135 25.5-135-25.5-94-69.5-52.5-98-17.5-114z"/><glyph glyph-name="plusminus" unicode="±" horiz-adv-x="1746" d="M924 1272V897h704v-90H924V518h704v-90H117v90h704v289H117v90h704v375h103z"/><glyph glyph-name="uni00B2" unicode="²" horiz-adv-x="878" d="M72 879q0 240 254 288l137 23q90 18 127 43.5t37 77.5v6q0 96-174 96-103 0-146-34t-43-103v-16H82v12q0 142 89.5 220.5T451 1571q178 0 268-67.5t90-198.5q0-214-242-258l-153-31q-57-11-89.5-24T277 958.5 259 920t-3-54h553V709H72v170z"/><glyph glyph-name="uni00B3" unicode="³" horiz-adv-x="862" d="M426 698q-191 0-279 66T55 981v10h183v-16q4-72 48-98.5T424 850q107 0 146.5 24.5T610 952v21q0 56-40 76t-140 20H313v145h117q89 0 128.5 22.5T598 1309v18q0 92-174 92-85 0-125.5-26.5T254 1303v-15H72v10q9 146 97 209.5t261 63.5q181 0 265.5-63.5T780 1339v-6q0-68-34.5-120t-98.5-70q69-13 107.5-64.5T793 956v-6q0-127-88.5-189.5T426 698z"/><glyph glyph-name="acute" unicode="´" horiz-adv-x="1318" d="M223 1485l-18 80 891 151 18-80z"/><glyph glyph-name="paragraph" unicode="¶" horiz-adv-x="1036" d="M754 1704h102V0H754v1704zM47 1333q0 109 24.5 180.5t80 114 134 59.5 197.5 17h103V0H483v963q-119 0-197.5 17t-134 59.5-80 114T47 1333z"/><glyph glyph-name="periodcentered" unicode="·" horiz-adv-x="571" d="M287 522q-71 0-118.5 45T121 684q0 75 47.5 121.5T287 852q69 0 116.5-46.5T451 684q0-72-47.5-117T287 522z"/><glyph glyph-name="cedilla" unicode="¸" horiz-adv-x="788" d="M205-332q140 0 197 13.5t57 58.5q0 25-13.5 39t-44 18-66.5 1.5-95-9.5L291 0h102l-31-123q222 21 222-131 0-95-88.5-132.5T205-424v92z"/><glyph glyph-name="uni00B9" unicode="¹" horiz-adv-x="706" d="M74 866h213v502q-98-45-215-45v166q74 0 130.5 14t100.5 58h164V866h213V709H74v157z"/><glyph glyph-name="ordmasculine" unicode="º" horiz-adv-x="958" d="M479 901q-190 0-288.5 103.5T92 1286v53q0 178 98.5 281.5T479 1724t288.5-103.5T866 1339v-53q0-178-98.5-281.5T479 901zm-205 377q0-223 205-223t205 223v70q0 223-205 223t-205-223v-70z"/><glyph glyph-name="guillemotright" unicode="»" horiz-adv-x="1136" d="M537 268v162l352 246-352 246v161l501-364v-86zm-379 0v162l352 246-352 246v161l501-364v-86z"/><glyph glyph-name="onequarter" unicode="¼" horiz-adv-x="1998" d="M92 1010h213v501q-98-45-215-45v166q74 0 131 14t101 58h163v-694h213V852H92v158zM334 0l1151 1704h114L446 0H334zm864 145v164l469 543h178V305h105V145h-105V0h-180v145h-467zm178 160h289v322z"/><glyph glyph-name="onehalf" unicode="½" horiz-adv-x="2078" d="M92 1010h213v501q-98-45-215-45v166q74 0 131 14t101 58h163v-694h213V852H92v158zM334 0l1151 1704h114L446 0H334zm938 0v170q0 241 254 289l137 22q90 18 127 43.5t37 77.5v6q0 97-174 97-103 0-146-34.5T1464 567v-16h-182v12q0 142 89.5 220.5T1651 862q178 0 268-67.5t90-198.5q0-214-242-258l-153-31q-57-11-89.5-24t-47.5-33.5-18-38-3-53.5h553V0h-737z"/><glyph glyph-name="threequarters" unicode="¾" horiz-adv-x="2140" d="M438 842q-191 0-278.5 65.5T68 1124v11h182v-17q4-72 48-98.5T436 993q107 0 147 25t40 78v20q0 56-40.5 76T442 1212H326v146h116q89 0 128.5 22t39.5 72v18q0 93-174 93-85 0-125.5-27t-44.5-90v-14H84v10q9 146 96.5 209t261.5 63q182 0 266.5-63t84.5-168v-6q0-68-35-120.5t-99-70.5q69-13 107.5-64t38.5-122v-6q0-127-88.5-189.5T438 842zM469 0l1153 1704h113L582 0H469zm864 145v164l469 543h178V305h105V145h-105V0h-180v145h-467zm178 160h289v322z"/><glyph glyph-name="questiondown" unicode="¿" horiz-adv-x="1300" d="M651-393q-135 0-240 25t-172 67.5-111 103T66.5-72 49 68q0 92 29 166t75 123.5 101.5 92 111 81 101.5 80T542 711t29 131v22h254v-24q0-83-16.5-152.5t-44.5-118-64-89.5-76.5-71.5T543 350t-76-56.5-64-59.5-44.5-72.5T342 70q0-226 307-226 168 0 243 78t75 225v43h293v-28q0-256-151-405.5T651-393zM535 1190q0 72 47 117t116 45q71 0 118.5-45t47.5-117q0-75-47.5-121.5T698 1022q-69 0-116 46.5T535 1190z"/><glyph glyph-name="Agrave" unicode="À" horiz-adv-x="1634" d="M14 0l609 1704h387L1622 0h-307l-103 299H422L319 0H14zm297 1976l21 80 989-151-21-80zM508 553h616l-293 850-16 43-16-43z"/><glyph glyph-name="Aacute" unicode="Á" horiz-adv-x="1634" d="M14 0l609 1704h387L1622 0h-307l-103 299H422L319 0H14zm346 1937l891 152 19-80-891-151zM508 553h616l-293 850-16 43-16-43z"/><glyph glyph-name="Acircumflex" unicode="Â" horiz-adv-x="1634" d="M14 0l609 1704h387L1622 0h-307l-103 299H422L319 0H14zm426 1843l310 262h143l301-262h-160l-213 193-221-193H440zm68-1290h616l-293 850-16 43-16-43z"/><glyph glyph-name="Atilde" unicode="Ã" horiz-adv-x="1634" d="M14 0l609 1704h387L1622 0h-307l-103 299H422L319 0H14zm355 1835q0 105 64 167t183 62q58 0 103.5-16t76-39 59.5-45.5 67.5-38.5 85.5-16q76 0 114.5 37t38.5 102h103q0-108-66.5-168.5T1008 1819q-61 0-109.5 16t-79.5 38.5-59.5 45.5-64.5 39-79 16q-71 0-108-39t-37-100H369zM508 553h616l-293 850-16 43-16-43z"/><glyph glyph-name="Adieresis" unicode="Ä" horiz-adv-x="1634" d="M14 0l609 1704h387L1622 0h-307l-103 299H422L319 0H14zm416 1950q0 63 40.5 98t100.5 35q59 0 101.5-35t42.5-98q0-62-42.5-97.5T571 1817q-60 0-100.5 35.5T430 1950zm78-1397h616l-293 850-16 43-16-43zm410 1397q0 63 41.5 98t101.5 35q59 0 100-35t41-98q0-62-41-97.5t-100-35.5q-60 0-101.5 35.5T918 1950z"/><glyph glyph-name="Aring" unicode="Å" horiz-adv-x="1634" d="M14 0l609 1704h387L1622 0h-307l-103 299H422L319 0H14zm494 553h616l-293 850-16 43-16-43zm143 1409q0 71 49.5 118.5T817 2128t116.5-47.5T983 1962t-49.5-118.5T817 1796t-116.5 47.5T651 1962zm92 0q0-33 20.5-53.5T817 1888t53.5 20.5T891 1962t-20.5 53.5T817 2036t-53.5-20.5T743 1962z"/><glyph glyph-name="AE" unicode="Æ" horiz-adv-x="2185" d="M-16 0l768 1704h1308v-256h-741V979h704V725h-704V256h741V0H1032v319H428L285 0H-16zm557 573h491v875H932z"/><glyph glyph-name="Ccedilla" unicode="Ç" horiz-adv-x="1779" d="M768-332q140 0 197 13.5t57 58.5q0 25-13.5 39t-44 18-66.5 1.5-95-9.5l47 193Q670-8 526.5 57.5T291 230.5t-140.5 248T102 782v146q0 168 53 312t153 252.5 255.5 170T913 1724q173 0 316-51t238-140.5 150.5-207.5 65.5-254l3-74h-300l-2 93q-5 77-38.5 145t-91 120-146 82.5T913 1468q-130 0-230-41.5t-161-114-92-166T399 944V760q0-111 31-204.5T522 390t161-113 230-41q109 0 197.5 30.5T1256 350t90 121 38 145l2 95h300l-3-74q-10-134-62.5-250T1478 182 1253 39.5 952-20l-26-103q105 10 163-19t58-112q0-95-88.5-132.5T768-424v92z"/><glyph glyph-name="Egrave" unicode="È" horiz-adv-x="1505" d="M176 0v1704h1210v-256H465V979h862V725H465V256h921V0H176zm100 1976l21 80 989-151-20-80z"/><glyph glyph-name="Eacute" unicode="É" horiz-adv-x="1505" d="M176 0v1704h1210v-256H465V979h862V725H465V256h921V0H176zm150 1937l891 152 18-80-891-151z"/><glyph glyph-name="Ecircumflex" unicode="Ê" horiz-adv-x="1505" d="M176 0v1704h1210v-256H465V979h862V725H465V256h921V0H176zm227 1843l310 262h143l301-262H997l-213 193-221-193H403z"/><glyph glyph-name="Edieresis" unicode="Ë" horiz-adv-x="1505" d="M176 0v1704h1210v-256H465V979h862V725H465V256h921V0H176zm219 1950q0 63 41 98t101 35q59 0 101-35t42-98q0-62-42-97.5T537 1817q-60 0-101 35.5t-41 97.5zm488 0q0 63 41.5 98t101.5 35q59 0 100-35t41-98q0-62-41-97.5t-100-35.5q-60 0-101.5 35.5T883 1950z"/><glyph glyph-name="Igrave" unicode="Ì" horiz-adv-x="1337" d="M102 0v260h422v1184H102v260h1133v-260H813V260h422V0H102zm62 1976l20 80 990-151-21-80z"/><glyph glyph-name="Iacute" unicode="Í" horiz-adv-x="1337" d="M102 0v260h422v1184H102v260h1133v-260H813V260h422V0H102zm111 1937l891 152 18-80-891-151z"/><glyph glyph-name="Icircumflex" unicode="Î" horiz-adv-x="1337" d="M102 0v260h422v1184H102v260h1133v-260H813V260h422V0H102zm189 1843l309 262h143l301-262H885l-213 193-221-193H291z"/><glyph glyph-name="Idieresis" unicode="Ï" horiz-adv-x="1337" d="M102 0v260h422v1184H102v260h1133v-260H813V260h422V0H102zm181 1950q0 63 40.5 98t100.5 35q59 0 101-35t42-98q0-62-42-97.5T424 1817q-60 0-100.5 35.5T283 1950zm487 0q0 63 41.5 98t101.5 35q59 0 100.5-35t41.5-98q0-62-41.5-97.5T913 1817q-60 0-101.5 35.5T770 1950z"/><glyph glyph-name="Eth" unicode="Ð" horiz-adv-x="1871" d="M289 0v782H39v142h250v780h735q737 0 737-776V776q0-392-189.5-584T1024 0H289zm289 252h448q227 0 333.5 124.5T1466 764v176q0 263-107 387.5T1024 1452H578V924h573V782H578V252z"/><glyph glyph-name="Ntilde" unicode="Ñ" horiz-adv-x="1783" d="M176 0v1704h283l866-1251v1251h283V0h-283L457 1251V0H176zm268 1835q0 105 64.5 167t183.5 62q58 0 103.5-16t76-39 59-45.5 67-38.5 85.5-16q76 0 115 37t39 102h102q0-108-66.5-168.5T1083 1819q-61 0-109.5 16t-79.5 38.5-59 45.5-64 39-79 16q-71 0-108-39t-37-100H444z"/><glyph glyph-name="Ograve" unicode="Ò" horiz-adv-x="1804" d="M903-20q-189 0-342 62T308.5 213t-153 254T102 780v146q0 167 53.5 312t153 253.5T561 1662t342 62q188 0 340.5-62t251.5-170.5 152-253.5 53-312V780q0-168-53.5-313.5t-152.5-254T1242.5 42 903-20zM397 1976l21 80 989-151-21-80zm2-1214q0-110 30-203.5T519 392t158.5-114.5T903 236t225 41.5T1285.5 392t89.5 166.5 30 203.5v182q0 86-18.5 163t-58.5 143.5-98 114.5-141.5 75.5T903 1468q-127 0-225.5-41.5T519 1312t-90-165.5T399 946V762z"/><glyph glyph-name="Oacute" unicode="Ó" horiz-adv-x="1804" d="M903-20q-189 0-342 62T308.5 213t-153 254T102 780v146q0 167 53.5 312t153 253.5T561 1662t342 62q188 0 340.5-62t251.5-170.5 152-253.5 53-312V780q0-168-53.5-313.5t-152.5-254T1242.5 42 903-20zM399 762q0-110 30-203.5T519 392t158.5-114.5T903 236t225 41.5T1285.5 392t89.5 166.5 30 203.5v182q0 86-18.5 163t-58.5 143.5-98 114.5-141.5 75.5T903 1468q-127 0-225.5-41.5T519 1312t-90-165.5T399 946V762zm47 1175l891 152 19-80-891-151z"/><glyph glyph-name="Ocircumflex" unicode="Ô" horiz-adv-x="1804" d="M903-20q-189 0-342 62T308.5 213t-153 254T102 780v146q0 167 53.5 312t153 253.5T561 1662t342 62q188 0 340.5-62t251.5-170.5 152-253.5 53-312V780q0-168-53.5-313.5t-152.5-254T1242.5 42 903-20zM399 762q0-110 30-203.5T519 392t158.5-114.5T903 236t225 41.5T1285.5 392t89.5 166.5 30 203.5v182q0 86-18.5 163t-58.5 143.5-98 114.5-141.5 75.5T903 1468q-127 0-225.5-41.5T519 1312t-90-165.5T399 946V762zm125 1081l310 262h143l301-262h-160l-213 193-221-193H524z"/><glyph glyph-name="Otilde" unicode="Õ" horiz-adv-x="1804" d="M903-20q-189 0-342 62T308.5 213t-153 254T102 780v146q0 167 53.5 312t153 253.5T561 1662t342 62q188 0 340.5-62t251.5-170.5 152-253.5 53-312V780q0-168-53.5-313.5t-152.5-254T1242.5 42 903-20zM399 762q0-110 30-203.5T519 392t158.5-114.5T903 236t225 41.5T1285.5 392t89.5 166.5 30 203.5v182q0 86-18.5 163t-58.5 143.5-98 114.5-141.5 75.5T903 1468q-127 0-225.5-41.5T519 1312t-90-165.5T399 946V762zm56 1073q0 105 64 167t183 62q58 0 103.5-16t76-39 59.5-45.5 67.5-38.5 85.5-16q76 0 114.5 37t38.5 102h103q0-108-66.5-168.5T1094 1819q-61 0-109.5 16t-79.5 38.5-59.5 45.5-64.5 39-79 16q-71 0-108-39t-37-100H455z"/><glyph glyph-name="Odieresis" unicode="Ö" horiz-adv-x="1804" d="M903-20q-189 0-342 62T308.5 213t-153 254T102 780v146q0 167 53.5 312t153 253.5T561 1662t342 62q188 0 340.5-62t251.5-170.5 152-253.5 53-312V780q0-168-53.5-313.5t-152.5-254T1242.5 42 903-20zM399 762q0-110 30-203.5T519 392t158.5-114.5T903 236t225 41.5T1285.5 392t89.5 166.5 30 203.5v182q0 86-18.5 163t-58.5 143.5-98 114.5-141.5 75.5T903 1468q-127 0-225.5-41.5T519 1312t-90-165.5T399 946V762zm117 1188q0 63 40.5 98t100.5 35q59 0 101.5-35t42.5-98q0-62-42.5-97.5T657 1817q-60 0-100.5 35.5T516 1950zm488 0q0 63 41.5 98t101.5 35q59 0 100-35t41-98q0-62-41-97.5t-100-35.5q-60 0-101.5 35.5T1004 1950z"/><glyph glyph-name="multiply" unicode="×" horiz-adv-x="1296" d="M145 1415l504-502 504 504 61-63-501-504 501-502-61-63-504 501-502-501-63 63 502 502-502 502z"/><glyph glyph-name="Oslash" unicode="Ø" horiz-adv-x="1804" d="M903-20Q641-20 455 94l-60-82H178l139 191Q212 311 157 460t-55 320v146q0 167 53.5 312t153 253.5T561 1662t342 62q255 0 443-112l57 80h217l-137-189q107-108 162-256t55-321V780q0-168-53.5-313.5t-152.5-254T1242.5 42 903-20zM399 762q0-192 88-326l701 961q-120 71-285 71-127 0-225.5-41.5T519 1312t-90-165.5T399 946V762zm213-451q116-75 291-75 127 0 225 41.5T1285.5 392t89.5 166.5 30 203.5v182q0 194-90 330z"/><glyph glyph-name="Ugrave" unicode="Ù" horiz-adv-x="1751" d="M877-20q-380 0-547.5 157T162 647v1057h289V631q0-220 101.5-309T877 233q222 0 322.5 89T1300 631v1073h289V647q0-355-167.5-511T877-20zM371 1976l20 80 989-151-20-80z"/><glyph glyph-name="Uacute" unicode="Ú" horiz-adv-x="1751" d="M877-20q-380 0-547.5 157T162 647v1057h289V631q0-220 101.5-309T877 233q222 0 322.5 89T1300 631v1073h289V647q0-355-167.5-511T877-20zM420 1937l891 152 18-80-891-151z"/><glyph glyph-name="Ucircumflex" unicode="Û" horiz-adv-x="1751" d="M877-20q-380 0-547.5 157T162 647v1057h289V631q0-220 101.5-309T877 233q222 0 322.5 89T1300 631v1073h289V647q0-355-167.5-511T877-20zM498 1843l309 262h143l301-262h-159l-213 193-222-193H498z"/><glyph glyph-name="Udieresis" unicode="Ü" horiz-adv-x="1751" d="M877-20q-380 0-547.5 157T162 647v1057h289V631q0-220 101.5-309T877 233q222 0 322.5 89T1300 631v1073h289V647q0-355-167.5-511T877-20zM489 1950q0 63 41 98t101 35q59 0 101-35t42-98q0-62-42-97.5T631 1817q-60 0-101 35.5t-41 97.5zm488 0q0 63 41.5 98t101.5 35q59 0 100.5-35t41.5-98q0-62-41.5-97.5T1120 1817q-60 0-101.5 35.5T977 1950z"/><glyph glyph-name="Yacute" unicode="Ý" horiz-adv-x="1587" d="M651 0v596L-4 1704h332l467-821 467 821h329L938 596V0H651zM336 1937l891 152 18-80-891-151z"/><glyph glyph-name="Thorn" unicode="Þ" horiz-adv-x="1712" d="M176 0v1704h281v-285h557q612 0 612-563v-12q0-285-151.5-425T1014 279H457V0H176zm281 535h551q170 0 245.5 69t75.5 223v52q0 151-75.5 218.5T1008 1165H457V535z"/><glyph glyph-name="germandbls" unicode="ß" horiz-adv-x="1525" d="M152 0v1231q0 241 154 367t466 126q306 0 463.5-117.5T1393 1278v-16q0-138-60.5-232.5T1147 899q152-37 218.5-143t66.5-275v-18q0-118-38.5-208T1285 110t-162-82.5T918 0H559v236h244q194 0 271 55t77 194v35q0 124-79 186.5T799 770H559v234h211q100 0 167.5 14t107 44.5 55.5 72 16 102.5v31q0 223-342 223-179 0-262.5-62.5T428 1233V0H152z"/><glyph glyph-name="agrave" unicode="à" horiz-adv-x="1454" d="M1047 0v223Q966 99 827 39.5T518-20q-203 0-316.5 88T88 334q0 74 26 134t67 101 102.5 74T405 695.5 539 731l170 37q54 12 80.5 18t69 17.5 63 20.5 47.5 23 39 28.5 21 34.5 9 44v4q0 69-68.5 113.5T752 1116q-338 0-338-242v-49H135v37q0 233 156 361.5T748 1352q156 0 268.5-32.5T1193 1226t93-139 29-180V0h-268zM229 1604l21 79 989-151-20-80zM367 358q0-79 55-115t172-36q175 0 298 90t146 246v172q-13-29-38.5-51.5t-66-38.5-79-27-96.5-26q-9-2-13-3l-153-34q-118-28-171.5-67T367 358z"/><glyph glyph-name="aacute" unicode="á" horiz-adv-x="1454" d="M1047 0v223Q966 99 827 39.5T518-20q-203 0-316.5 88T88 334q0 74 26 134t67 101 102.5 74T405 695.5 539 731l170 37q54 12 80.5 18t69 17.5 63 20.5 47.5 23 39 28.5 21 34.5 9 44v4q0 69-68.5 113.5T752 1116q-338 0-338-242v-49H135v37q0 233 156 361.5T748 1352q156 0 268.5-32.5T1193 1226t93-139 29-180V0h-268zM279 1565l890 151 19-80-891-151zm88-1207q0-79 55-115t172-36q175 0 298 90t146 246v172q-13-29-38.5-51.5t-66-38.5-79-27-96.5-26q-9-2-13-3l-153-34q-118-28-171.5-67T367 358z"/><glyph glyph-name="acircumflex" unicode="â" horiz-adv-x="1454" d="M1047 0v223Q966 99 827 39.5T518-20q-203 0-316.5 88T88 334q0 74 26 134t67 101 102.5 74T405 695.5 539 731l170 37q54 12 80.5 18t69 17.5 63 20.5 47.5 23 39 28.5 21 34.5 9 44v4q0 69-68.5 113.5T752 1116q-338 0-338-242v-49H135v37q0 233 156 361.5T748 1352q156 0 268.5-32.5T1193 1226t93-139 29-180V0h-268zM356 1470l310 263h143l301-263H950l-213 193-221-193H356zm11-1112q0-79 55-115t172-36q175 0 298 90t146 246v172q-13-29-38.5-51.5t-66-38.5-79-27-96.5-26q-9-2-13-3l-153-34q-118-28-171.5-67T367 358z"/><glyph glyph-name="atilde" unicode="ã" horiz-adv-x="1454" d="M1047 0v223Q966 99 827 39.5T518-20q-203 0-316.5 88T88 334q0 74 26 134t67 101 102.5 74T405 695.5 539 731l170 37q54 12 80.5 18t69 17.5 63 20.5 47.5 23 39 28.5 21 34.5 9 44v4q0 69-68.5 113.5T752 1116q-338 0-338-242v-49H135v37q0 233 156 361.5T748 1352q156 0 268.5-32.5T1193 1226t93-139 29-180V0h-268zM287 1462q0 105 64.5 167.5T535 1692q58 0 103.5-16t76-39 59-46 67-39 85.5-16q76 0 114.5 37t38.5 102h103q0-108-66.5-168.5T926 1446q-61 0-109.5 16t-79.5 39-59 46-64 39-79 16q-71 0-108.5-39.5T389 1462H287zm80-1104q0-79 55-115t172-36q175 0 298 90t146 246v172q-13-29-38.5-51.5t-66-38.5-79-27-96.5-26q-9-2-13-3l-153-34q-118-28-171.5-67T367 358z"/><glyph glyph-name="adieresis" unicode="ä" horiz-adv-x="1454" d="M1047 0v223Q966 99 827 39.5T518-20q-203 0-316.5 88T88 334q0 74 26 134t67 101 102.5 74T405 695.5 539 731l170 37q54 12 80.5 18t69 17.5 63 20.5 47.5 23 39 28.5 21 34.5 9 44v4q0 69-68.5 113.5T752 1116q-338 0-338-242v-49H135v37q0 233 156 361.5T748 1352q156 0 268.5-32.5T1193 1226t93-139 29-180V0h-268zM348 1577q0 63 40.5 98t100.5 35q59 0 101.5-35t42.5-98q0-62-42.5-97.5T489 1444q-60 0-100.5 35.5T348 1577zm19-1219q0-79 55-115t172-36q175 0 298 90t146 246v172q-13-29-38.5-51.5t-66-38.5-79-27-96.5-26q-9-2-13-3l-153-34q-118-28-171.5-67T367 358zm469 1219q0 63 41.5 98t101.5 35q59 0 100-35t41-98q0-62-41-97.5T979 1444q-60 0-101.5 35.5T836 1577z"/><glyph glyph-name="aring" unicode="å" horiz-adv-x="1454" d="M1047 0v223Q966 99 827 39.5T518-20q-203 0-316.5 88T88 334q0 74 26 134t67 101 102.5 74T405 695.5 539 731l170 37q54 12 80.5 18t69 17.5 63 20.5 47.5 23 39 28.5 21 34.5 9 44v4q0 69-68.5 113.5T752 1116q-338 0-338-242v-49H135v37q0 233 156 361.5T748 1352q156 0 268.5-32.5T1193 1226t93-139 29-180V0h-268zM367 358q0-79 55-115t172-36q175 0 298 90t146 246v172q-13-29-38.5-51.5t-66-38.5-79-27-96.5-26q-9-2-13-3l-153-34q-118-28-171.5-67T367 358zm202 1231q0 71 49.5 118.5T735 1755t116.5-47.5T901 1589t-49.5-118.5T735 1423t-116.5 47.5T569 1589zm93 0q0-33 20-53t53-20 53.5 20 20.5 53-20.5 53.5T735 1663t-53-20.5-20-53.5z"/><glyph glyph-name="ae" unicode="æ" horiz-adv-x="2314" d="M573-20q-232 0-363.5 90.5T78 348q0 74 23.5 133.5T162 579t93 68 108.5 46.5T485 725l211 29q60 9 98 17t78 22 62 32 36.5 46 14.5 65q0 85-68.5 133.5T713 1118q-310 0-310-272v-12H125v8q0 111 35.5 203T266 1206t183 107.5 260 38.5q332 0 452-203 152 203 457 203 285 0 444.5-165T2222 717V602h-969q3-171 97-277t260-106q237 0 297 207v10h301v-10q-40-200-195.5-323T1606-20q-179 0-298.5 65T1110 238q-73-134-213-196T573-20zM356 354q0-81 64.5-123.5T606 188q158 0 255.5 62.5T985 440v228q-62-75-266-111l-199-35q-164-35-164-168zm904 453h673v22q-19 137-104 210t-225 73q-148 0-235.5-82.5T1260 807z"/><glyph glyph-name="ccedilla" unicode="ç" horiz-adv-x="1462" d="M1090 840q-5 53-27 100.5t-62.5 86.5-106.5 62-149 23q-190 0-279-102.5T377 723V602q0-181 89-282t279-101q89 0 156.5 23t106 63 58.5 86 24 101l6 75h282l-6-63q-7-82-32.5-155.5t-73-138.5T1153 96.5t-158.5-79T791-18l-27-105q105 10 163-19t58-112q0-95-88.5-132.5T606-424v92q140 0 197 13.5t57 58.5q0 25-13.5 39t-44 18-66.5 1.5-95-9.5l47 193Q394-5 242 164.5T90 621v94q0 297 166 467t485 170q149 0 268-42t195.5-115.5 119-166.5 50.5-201l4-65h-282z"/><glyph glyph-name="egrave" unicode="è" horiz-adv-x="1472" d="M1241 1532l-20-80-990 152 21 79zM90 621v94q0 297 168 467t494 170q299 0 462.5-165T1378 713V602H379q0-180 91.5-281.5T754 219q142 0 217 55.5t90 141.5l2 30h305l-2-16q-24-204-180.5-327T752-20q-327 0-494.5 170.5T90 621zm293 182h707v37q-19 133-108.5 202.5T741 1112q-162 0-250-81T383 803z"/><glyph glyph-name="eacute" unicode="é" horiz-adv-x="1472" d="M299 1485l-18 80 890 151 19-80zM90 621v94q0 297 168 467t494 170q299 0 462.5-165T1378 713V602H379q0-180 91.5-281.5T754 219q142 0 217 55.5t90 141.5l2 30h305l-2-16q-24-204-180.5-327T752-20q-327 0-494.5 170.5T90 621zm293 182h707v37q-19 133-108.5 202.5T741 1112q-162 0-250-81T383 803z"/><glyph glyph-name="ecircumflex" unicode="ê" horiz-adv-x="1472" d="M358 1470l310 263h143l301-263H952l-213 193-221-193H358zM90 621v94q0 297 168 467t494 170q299 0 462.5-165T1378 713V602H379q0-180 91.5-281.5T754 219q142 0 217 55.5t90 141.5l2 30h305l-2-16q-24-204-180.5-327T752-20q-327 0-494.5 170.5T90 621zm293 182h707v37q-19 133-108.5 202.5T741 1112q-162 0-250-81T383 803z"/><glyph glyph-name="edieresis" unicode="ë" horiz-adv-x="1472" d="M981 1444q-60 0-101.5 35.5T838 1577q0 63 41.5 98t101.5 35q59 0 100-35t41-98q0-62-41-97.5T981 1444zM90 621v94q0 297 168 467t494 170q299 0 462.5-165T1378 713V602H379q0-180 91.5-281.5T754 219q142 0 217 55.5t90 141.5l2 30h305l-2-16q-24-204-180.5-327T752-20q-327 0-494.5 170.5T90 621zm260 956q0 63 41 98t101 35q59 0 101-35t42-98q0-62-42-97.5T492 1444q-60 0-101 35.5t-41 97.5zm33-774h707v37q-19 133-108.5 202.5T741 1112q-162 0-250-81T383 803z"/><glyph glyph-name="igrave" unicode="ì" horiz-adv-x="577" d="M152 1331h276V0H152v1331zm-199 273l22 79 650-151-21-80z"/><glyph glyph-name="iacute" unicode="í" horiz-adv-x="577" d="M152 1331h276V0H152v1331zm-199 201l649 151 23-79-652-152z"/><glyph glyph-name="icircumflex" unicode="î" horiz-adv-x="577" d="M152 1331h276V0H152v1331zm-189 123l262 229h131l260-229H483l-192 166-197-166H-37z"/><glyph glyph-name="idieresis" unicode="ï" horiz-adv-x="577" d="M152 1331h276V0H152v1331zm-183 213q0 50 32 80.5t77 30.5q44 0 76-30.5t32-80.5q0-46-32.5-76T78 1438q-44 0-76.5 30t-32.5 76zm432 0q0 51 31.5 81t77.5 30q43 0 74.5-30.5T616 1544q0-46-31.5-76t-74.5-30q-45 0-77 30t-32 76z"/><glyph glyph-name="eth" unicode="ð" horiz-adv-x="1423" d="M715-20q-308 0-469.5 138T84 506v47q0 224 150 367t417 143q254 0 379-131-63 221-330 381l-499-193v148l334 129q-132 61-332 125l73 202q323-86 547-217l449 174v-147l-309-119q366-283 366-774v-43q0-315-149.5-466.5T715-20zM365 500q0-285 342-285 344 0 344 287v47q0 278-344 278-342 0-342-278v-49z"/><glyph glyph-name="ntilde" unicode="ñ" d="M428 1331v-219q154 240 444 240 225 0 354.5-145.5T1356 809V0h-277v778q0 336-309 336-69 0-124.5-17t-92-46-62-64-39-76.5-19-77T428 762V0H152v1331h276zm-115 131q0 105 64.5 167.5T561 1692q58 0 103.5-16t76-39 59-46 67-39 85.5-16q76 0 115 37t39 102h102q0-108-66.5-168.5T952 1446q-61 0-109.5 16t-79.5 39-59 46-64 39-79 16q-71 0-108-39.5T416 1462H313z"/><glyph glyph-name="ograve" unicode="ò" horiz-adv-x="1460" d="M731-20q-314 0-476.5 171T92 621v90q0 299 162.5 470T731 1352q210 0 354.5-80t213.5-222 69-339v-90q0-197-69-339T1085.5 60 731-20zM225 1604l21 79 989-151-21-80zm152-998q0-387 354-387t354 387v119q0 387-354 387T377 725V606z"/><glyph glyph-name="oacute" unicode="ó" horiz-adv-x="1460" d="M731-20q-314 0-476.5 171T92 621v90q0 299 162.5 470T731 1352q210 0 354.5-80t213.5-222 69-339v-90q0-197-69-339T1085.5 60 731-20zM274 1565l891 151 19-80-891-151zm103-959q0-387 354-387t354 387v119q0 387-354 387T377 725V606z"/><glyph glyph-name="ocircumflex" unicode="ô" horiz-adv-x="1460" d="M731-20q-314 0-476.5 171T92 621v90q0 299 162.5 470T731 1352q210 0 354.5-80t213.5-222 69-339v-90q0-197-69-339T1085.5 60 731-20zM352 1470l310 263h143l301-263H946l-213 193-221-193H352zm25-864q0-387 354-387t354 387v119q0 387-354 387T377 725V606z"/><glyph glyph-name="otilde" unicode="õ" horiz-adv-x="1460" d="M731-20q-314 0-476.5 171T92 621v90q0 299 162.5 470T731 1352q210 0 354.5-80t213.5-222 69-339v-90q0-197-69-339T1085.5 60 731-20zM283 1462q0 105 64 167.5t183 62.5q58 0 103.5-16t76-39 59.5-46 67.5-39 85.5-16q76 0 114.5 37t38.5 102h103q0-108-66.5-168.5T922 1446q-61 0-109.5 16t-79.5 39-59.5 46-64.5 39-79 16q-71 0-108-39.5T385 1462H283zm94-856q0-387 354-387t354 387v119q0 387-354 387T377 725V606z"/><glyph glyph-name="odieresis" unicode="ö" horiz-adv-x="1460" d="M731-20q-314 0-476.5 171T92 621v90q0 299 162.5 470T731 1352q210 0 354.5-80t213.5-222 69-339v-90q0-197-69-339T1085.5 60 731-20zM344 1577q0 63 40.5 98t100.5 35q59 0 101.5-35t42.5-98q0-62-42.5-97.5T485 1444q-60 0-100.5 35.5T344 1577zm33-971q0-387 354-387t354 387v119q0 387-354 387T377 725V606zm454 971q0 63 41.5 98t102.5 35q59 0 100-35t41-98q0-62-41-97.5T975 1444q-60 0-102 35.5t-42 97.5z"/><glyph glyph-name="divide" unicode="÷" horiz-adv-x="1746" d="M872 1073q-26 0-43.5 18t-17.5 44q0 25 17.5 43t43.5 18q25 0 43.5-18t18.5-43q0-26-18.5-44t-43.5-18zM117 805v90h1511v-90H117zm694-240q0 25 17.5 43.5T872 627q25 0 43.5-18.5T934 565q0-26-18.5-43.5T872 504q-26 0-43.5 17.5T811 565z"/><glyph glyph-name="oslash" unicode="ø" horiz-adv-x="1460" d="M731-20q-177 0-305 55L297-174H115l180 289Q92 282 92 621v90q0 299 162.5 470T731 1352q171 0 301-54l129 207h182l-178-286q203-167 203-508v-90q0-197-69-339T1085.5 60 731-20zM377 606q0-166 63-258l459 735q-76 29-168 29-354 0-354-387V606zm184-356q70-31 170-31 354 0 354 387v119q0 165-65 260z"/><glyph glyph-name="ugrave" unicode="ù" d="M1065 0v223Q913-20 618-20q-225 0-354 145T135 522v809h277V553q0-336 309-336 69 0 124.5 17t92 46 62 64 39 76.5 19 77 5.5 71.5l2-34v796h276V0h-276zM213 1604l20 79 990-151-21-80z"/><glyph glyph-name="uacute" unicode="ú" d="M1065 0v223Q913-20 618-20q-225 0-354 145T135 522v809h277V553q0-336 309-336 69 0 124.5 17t92 46 62 64 39 76.5 19 77 5.5 71.5l2-34v796h276V0h-276zM262 1565l891 151 18-80-890-151z"/><glyph glyph-name="ucircumflex" unicode="û" d="M1065 0v223Q913-20 618-20q-225 0-354 145T135 522v809h277V553q0-336 309-336 69 0 124.5 17t92 46 62 64 39 76.5 19 77 5.5 71.5l2-34v796h276V0h-276zM342 1470l309 263h144l301-263H936l-213 193-221-193H342z"/><glyph glyph-name="udieresis" unicode="ü" d="M1065 0v223Q913-20 618-20q-225 0-354 145T135 522v809h277V553q0-336 309-336 69 0 124.5 17t92 46 62 64 39 76.5 19 77 5.5 71.5l2-34v796h276V0h-276zM332 1577q0 63 40.5 98t100.5 35q59 0 101-35t42-98q0-62-42-97.5T473 1444q-60 0-100.5 35.5T332 1577zm487 0q0 63 41.5 98t102.5 35q59 0 100-35t41-98q0-62-41-97.5T963 1444q-60 0-102 35.5t-42 97.5z"/><glyph glyph-name="yacute" unicode="ý" d="M1063-8v227Q909-20 618-20q-225 0-354 145T135 522v809h277V553q0-336 309-336 69 0 124.5 17t92 46 62 64 39 76.5 19 77 5.5 71.5v762h278V-10q0-465-415-465H170v239h715q92 0 135 51.5T1063-8zM289 1565l891 151 18-80-891-151z"/><glyph glyph-name="thorn" unicode="þ" horiz-adv-x="1538" d="M428-475H152v2179h276v-563q55 88 162 149.5t268 61.5q271 0 430.5-171.5T1448 735V590q0-269-160-439.5T862-20q-159 0-266.5 59.5T428 184v-659zm6 1075q0-167 94-274t273-107q92 0 162.5 30t113.5 83.5 64.5 121.5 21.5 148v127q0 79-22 147t-65 121.5-114 84-163 30.5q-177 0-271-107.5T434 729V600z"/><glyph glyph-name="ydieresis" unicode="ÿ" d="M1063-8v227Q909-20 618-20q-225 0-354 145T135 522v809h277V553q0-336 309-336 69 0 124.5 17t92 46 62 64 39 76.5 19 77 5.5 71.5v762h278V-10q0-465-415-465H170v239h715q92 0 135 51.5T1063-8zM358 1577q0 63 41 98t101 35q59 0 101-35t42-98q0-62-42-97.5T500 1444q-60 0-101 35.5t-41 97.5zm488 0q0 63 41.5 98t101.5 35q59 0 100-35t41-98q0-62-41-97.5T989 1444q-60 0-101.5 35.5T846 1577z"/><glyph glyph-name="Amacron" unicode="Ā" horiz-adv-x="1634" d="M14 0l609 1704h387L1622 0h-307l-103 299H422L319 0H14zm297 1901v81h1010v-81H311zM508 553h616l-293 850-16 43-16-43z"/><glyph glyph-name="amacron" unicode="ā" horiz-adv-x="1454" d="M1047 0v223Q966 99 827 39.5T518-20q-203 0-316.5 88T88 334q0 74 26 134t67 101 102.5 74T405 695.5 539 731l170 37q54 12 80.5 18t69 17.5 63 20.5 47.5 23 39 28.5 21 34.5 9 44v4q0 69-68.5 113.5T752 1116q-338 0-338-242v-49H135v37q0 233 156 361.5T748 1352q156 0 268.5-32.5T1193 1226t93-139 29-180V0h-268zM229 1528v82h1010v-82H229zM367 358q0-79 55-115t172-36q175 0 298 90t146 246v172q-13-29-38.5-51.5t-66-38.5-79-27-96.5-26q-9-2-13-3l-153-34q-118-28-171.5-67T367 358z"/><glyph glyph-name="Abreve" unicode="Ă" horiz-adv-x="1634" d="M14 0l609 1704h387L1622 0h-307l-103 299H422L319 0H14zm346 2064h103q0-43 25.5-73t75.5-46 111-23 144-7q82 0 142.5 6.5t109 23 73.5 46.5 25 73h103q0-68-31.5-115t-93.5-73.5-141-37.5-187-11-188 11-143 37.5-95.5 73.5-32.5 115zM508 553h616l-293 850-16 43-16-43z"/><glyph glyph-name="abreve" unicode="ă" horiz-adv-x="1454" d="M1047 0v223Q966 99 827 39.5T518-20q-203 0-316.5 88T88 334q0 74 26 134t67 101 102.5 74T405 695.5 539 731l170 37q54 12 80.5 18t69 17.5 63 20.5 47.5 23 39 28.5 21 34.5 9 44v4q0 69-68.5 113.5T752 1116q-338 0-338-242v-49H135v37q0 233 156 361.5T748 1352q156 0 268.5-32.5T1193 1226t93-139 29-180V0h-268zM279 1692h102q0-43 25.5-73t75.5-46.5 111.5-23.5 143.5-7 142.5 7 109 23.5 73.5 46.5 25 73h103q0-68-31.5-115.5t-93-73.5-141-37.5T737 1454t-188 11.5-143 37.5-95 73.5-32 115.5zm88-1334q0-79 55-115t172-36q175 0 298 90t146 246v172q-13-29-38.5-51.5t-66-38.5-79-27-96.5-26q-9-2-13-3l-153-34q-118-28-171.5-67T367 358z"/><glyph glyph-name="Aogonek" unicode="Ą" horiz-adv-x="1634" d="M14 0l609 1704h387L1622 0h-2q-227-66-227-186 0-62 54.5-88.5T1634-301h15l-82-109h-13q-130 0-208 47t-78 134q0 160 250 229h-203l-103 299H422L319 0H14zm494 553h616l-293 850-16 43-16-43z"/><glyph glyph-name="aogonek" unicode="ą" horiz-adv-x="1454" d="M1047 0v223Q966 99 827 39.5T518-20q-203 0-316.5 88T88 334q0 74 26 134t67 101 102.5 74T405 695.5 539 731l170 37q54 12 80.5 18t69 17.5 63 20.5 47.5 23 39 28.5 21 34.5 9 44v4q0 69-68.5 113.5T752 1116q-338 0-338-242v-49H135v37q0 233 156 361.5T748 1352q156 0 268.5-32.5T1193 1226t93-139 29-180V0q-116-34-172-79.5T1087-186q0-62 55-88.5t187-26.5h14l-81-109h-13q-130 0-208 47t-78 134q0 160 249 229h-165zM367 358q0-79 55-115t172-36q175 0 298 90t146 246v172q-13-29-38.5-51.5t-66-38.5-79-27-96.5-26q-9-2-13-3l-153-34q-118-28-171.5-67T367 358z"/><glyph glyph-name="Cacute" unicode="Ć" horiz-adv-x="1779" d="M911-20q-194 0-349 61.5T307 212 154.5 466.5 102 782v146q0 168 53 312t153 252.5 255.5 170T913 1724q173 0 316-51t238-140.5 150.5-207.5 65.5-254l3-74h-300l-2 93q-5 77-38.5 145t-91 120-146 82.5T913 1468q-130 0-230-41.5t-161-114-92-166T399 944V760q0-111 31-204.5T522 390t161-113 230-41q109 0 197.5 30.5T1256 350t90 121 38 145l2 95h300l-3-74q-10-138-65.5-256.5T1467 172 1229 31 911-20zM438 1937l891 152 19-80-891-151z"/><glyph glyph-name="cacute" unicode="ć" horiz-adv-x="1460" d="M1090 840q-5 53-27 100.5t-62.5 86.5-106.5 62-149 23q-190 0-279-102.5T377 723V602q0-181 89-282t279-101q89 0 156.5 23t106 63 58.5 86 24 101l6 75h282l-6-63q-9-108-51.5-200.5t-117.5-166T1009.5 22 741-20q-320 0-485.5 171T90 621v94q0 297 166 467t485 170q149 0 268-42t195.5-115.5 119-166.5 50.5-201l4-65h-282zm-805 725l891 151 18-80-891-151z"/><glyph glyph-name="Ccircumflex" unicode="Ĉ" horiz-adv-x="1779" d="M911-20q-194 0-349 61.5T307 212 154.5 466.5 102 782v146q0 168 53 312t153 252.5 255.5 170T913 1724q173 0 316-51t238-140.5 150.5-207.5 65.5-254l3-74h-300l-2 93q-5 77-38.5 145t-91 120-146 82.5T913 1468q-130 0-230-41.5t-161-114-92-166T399 944V760q0-111 31-204.5T522 390t161-113 230-41q109 0 197.5 30.5T1256 350t90 121 38 145l2 95h300l-3-74q-10-138-65.5-256.5T1467 172 1229 31 911-20zM518 1843l309 262h144l301-262h-160l-213 193-221-193H518z"/><glyph glyph-name="ccircumflex" unicode="ĉ" horiz-adv-x="1460" d="M1090 840q-5 53-27 100.5t-62.5 86.5-106.5 62-149 23q-190 0-279-102.5T377 723V602q0-181 89-282t279-101q89 0 156.5 23t106 63 58.5 86 24 101l6 75h282l-6-63q-9-108-51.5-200.5t-117.5-166T1009.5 22 741-20q-320 0-485.5 171T90 621v94q0 297 166 467t485 170q149 0 268-42t195.5-115.5 119-166.5 50.5-201l4-65h-282zm-725 630l309 263h143l301-263H958l-213 193-221-193H365z"/><glyph glyph-name="Cdotaccent" unicode="Ċ" horiz-adv-x="1779" d="M911-20q-194 0-349 61.5T307 212 154.5 466.5 102 782v146q0 168 53 312t153 252.5 255.5 170T913 1724q173 0 316-51t238-140.5 150.5-207.5 65.5-254l3-74h-300l-2 93q-5 77-38.5 145t-91 120-146 82.5T913 1468q-130 0-230-41.5t-161-114-92-166T399 944V760q0-111 31-204.5T522 390t161-113 230-41q109 0 197.5 30.5T1256 350t90 121 38 145l2 95h300l-3-74q-10-138-65.5-256.5T1467 172 1229 31 911-20zM745 1942q0 58 39 94.5t111 36.5 110.5-36.5 38.5-94.5q0-54-38.5-89.5T895 1817t-111 35.5-39 89.5z"/><glyph glyph-name="cdotaccent" unicode="ċ" horiz-adv-x="1460" d="M1090 840q-5 53-27 100.5t-62.5 86.5-106.5 62-149 23q-190 0-279-102.5T377 723V602q0-181 89-282t279-101q89 0 156.5 23t106 63 58.5 86 24 101l6 75h282l-6-63q-9-108-51.5-200.5t-117.5-166T1009.5 22 741-20q-320 0-485.5 171T90 621v94q0 297 166 467t485 170q149 0 268-42t195.5-115.5 119-166.5 50.5-201l4-65h-282zm-521 745q0 65 44 102t128 37q86 0 130-37t44-102q0-60-45-97.5T741 1450q-83 0-127.5 37.5T569 1585z"/><glyph glyph-name="Ccaron" unicode="Č" horiz-adv-x="1779" d="M911-20q-194 0-349 61.5T307 212 154.5 466.5 102 782v146q0 168 53 312t153 252.5 255.5 170T913 1724q173 0 316-51t238-140.5 150.5-207.5 65.5-254l3-74h-300l-2 93q-5 77-38.5 145t-91 120-146 82.5T913 1468q-130 0-230-41.5t-161-114-92-166T399 944V760q0-111 31-204.5T522 390t161-113 230-41q109 0 197.5 30.5T1256 350t90 121 38 145l2 95h300l-3-74q-10-138-65.5-256.5T1467 172 1229 31 911-20zM453 2087h176l270-195 262 195h176l-366-262H827z"/><glyph glyph-name="ccaron" unicode="č" horiz-adv-x="1460" d="M1090 840q-5 53-27 100.5t-62.5 86.5-106.5 62-149 23q-190 0-279-102.5T377 723V602q0-181 89-282t279-101q89 0 156.5 23t106 63 58.5 86 24 101l6 75h282l-6-63q-9-108-51.5-200.5t-117.5-166T1009.5 22 741-20q-320 0-485.5 171T90 621v94q0 297 166 467t485 170q149 0 268-42t195.5-115.5 119-166.5 50.5-201l4-65h-282zm-791 874h176l270-194 263 194h176l-367-262H674z"/><glyph glyph-name="Dcaron" unicode="Ď" horiz-adv-x="1759" d="M176 0v1704h735q360 0 549-190.5T1649 928V776q0-392-190-584T911 0H176zm232 2087h176l270-195 262 195h176l-366-262H782zm57-1835h448q227 0 334 124.5T1354 764v176q0 263-107.5 387.5T911 1452H465V252z"/><glyph glyph-name="dcaron" unicode="ď" horiz-adv-x="1626" d="M1104 1704h276V0h-276v180q-56-83-162.5-141.5T680-20q-271 0-430.5 171T90 596v145q0 269 160 440t426 171q155 0 261-57t167-140v549zM375 602q0-79 22-147t65-121.5 114-84T739 219q177 0 271 107.5t94 275.5v129q0 167-94 274t-273 107q-92 0-162.5-30T461 998.5 396.5 877 375 729V602zm1059 600l71 502h183l-134-502h-120z"/><glyph glyph-name="Dcroat" unicode="Đ" horiz-adv-x="1871" d="M289 0v782H39v142h250v780h735q737 0 737-776V776q0-392-189.5-584T1024 0H289zm289 252h448q227 0 333.5 124.5T1466 764v176q0 263-107 387.5T1024 1452H578V924h573V782H578V252z"/><glyph glyph-name="dcroat" unicode="đ" horiz-adv-x="1529" d="M1104 1704h276v-121h219v-139h-219V0h-276v180q-56-83-162.5-141.5T680-20q-271 0-430.5 171T90 596v145q0 269 160 440t426 171q155 0 261-57t167-140v289H580v139h524v121zM375 602q0-79 22-147t65-121.5 114-84T739 219q177 0 271 107.5t94 275.5v129q0 167-94 274t-273 107q-92 0-162.5-30T461 998.5 396.5 877 375 729V602z"/><glyph glyph-name="Emacron" unicode="Ē" horiz-adv-x="1505" d="M176 0v1704h1210v-256H465V979h862V725H465V256h921V0H176zm100 1901v81h1010v-81H276z"/><glyph glyph-name="emacron" unicode="ē" horiz-adv-x="1472" d="M231 1528v82h1010v-82H231zM90 621v94q0 297 168 467t494 170q299 0 462.5-165T1378 713V602H379q0-180 91.5-281.5T754 219q142 0 217 55.5t90 141.5l2 30h305l-2-16q-24-204-180.5-327T752-20q-327 0-494.5 170.5T90 621zm293 182h707v37q-19 133-108.5 202.5T741 1112q-162 0-250-81T383 803z"/><glyph glyph-name="Edotaccent" unicode="Ė" horiz-adv-x="1505" d="M176 0v1704h1210v-256H465V979h862V725H465V256h921V0H176zm457 1942q0 58 38.5 94.5T782 2073t111-36.5 39-94.5q0-54-39-89.5T782 1817t-110.5 35.5T633 1942z"/><glyph glyph-name="edotaccent" unicode="ė" horiz-adv-x="1472" d="M735 1450q-83 0-127.5 37.5T563 1585q0 65 44 102t128 37q86 0 130-37t44-102q0-60-45-97.5T735 1450zM90 621v94q0 297 168 467t494 170q299 0 462.5-165T1378 713V602H379q0-180 91.5-281.5T754 219q142 0 217 55.5t90 141.5l2 30h305l-2-16q-24-204-180.5-327T752-20q-327 0-494.5 170.5T90 621zm293 182h707v37q-19 133-108.5 202.5T741 1112q-162 0-250-81T383 803z"/><glyph glyph-name="Eogonek" unicode="Ę" horiz-adv-x="1505" d="M176 0v1704h1210v-256H465V979h862V725H465V256h921V0q-227-66-227-186 0-62 55-88.5t187-26.5h14l-82-109h-12q-130 0-208.5 47T1034-229q0 160 250 229H176z"/><glyph glyph-name="eogonek" unicode="ę" horiz-adv-x="1472" d="M874-410q-130 0-208 47t-78 134q0 139 186 209h-22q-327 0-494.5 170.5T90 621v94q0 297 168 467t494 170q299 0 462.5-165T1378 713V602H379q0-180 91.5-281.5T754 219q142 0 217 55.5t90 141.5l2 30h305l-2-16q-21-170-135.5-286T915-8Q713-71 713-186q0-62 54.5-88.5T954-301h15l-82-109h-13zM383 803h707v37q-19 133-108.5 202.5T741 1112q-162 0-250-81T383 803z"/><glyph glyph-name="Ecaron" unicode="Ě" horiz-adv-x="1505" d="M176 0v1704h1210v-256H465V979h862V725H465V256h921V0H176zm162 2087h176l270-195 263 195h176l-367-262H713z"/><glyph glyph-name="ecaron" unicode="ě" horiz-adv-x="1472" d="M668 1452l-375 262h176l270-194 262 194h177l-367-262H668zM90 621v94q0 297 168 467t494 170q299 0 462.5-165T1378 713V602H379q0-180 91.5-281.5T754 219q142 0 217 55.5t90 141.5l2 30h305l-2-16q-24-204-180.5-327T752-20q-327 0-494.5 170.5T90 621zm293 182h707v37q-19 133-108.5 202.5T741 1112q-162 0-250-81T383 803z"/><glyph glyph-name="Gcircumflex" unicode="Ĝ" horiz-adv-x="1812" d="M879-20q-185 0-333.5 62T301 212 154.5 464.5 104 778v148q0 135 32 254.5t97.5 219 159.5 172T618 1684t287 40q165 0 305.5-48.5t238-132.5 156.5-198 70-245v-58h-299l-2 76q-13 164-140 257t-325 93q-108 0-195-27.5T569 1366t-97-114-56-143-17-163V762q0-89 17.5-167t56-144.5 94.5-114 137-74T885 236q209 0 333.5 99T1368 614v43H772v238h903V0h-182l-39 262Q1273-20 879-20zM528 1843l310 262h143l301-262h-160l-213 193-221-193H528z"/><glyph glyph-name="gcircumflex" unicode="ĝ" horiz-adv-x="1529" d="M1104 33v147q-56-83-162.5-141.5T680-20q-271 0-430.5 171T90 596v145q0 269 160 440t426 171q155 0 261-57t167-140v176h276V6q0-122-22-208t-73.5-149-140-93.5T926-475H166v239h717q130 0 175.5 60T1104 33zM336 1470l309 263h143l302-263H930l-213 193-221-193H336zm39-868q0-79 22-147t65-121.5 114-84T739 219q177 0 271 107.5t94 275.5v129q0 167-94 274t-273 107q-92 0-162.5-30T461 998.5 396.5 877 375 729V602z"/><glyph glyph-name="Gbreve" unicode="Ğ" horiz-adv-x="1812" d="M879-20q-185 0-333.5 62T301 212 154.5 464.5 104 778v148q0 135 32 254.5t97.5 219 159.5 172T618 1684t287 40q165 0 305.5-48.5t238-132.5 156.5-198 70-245v-58h-299l-2 76q-13 164-140 257t-325 93q-108 0-195-27.5T569 1366t-97-114-56-143-17-163V762q0-89 17.5-167t56-144.5 94.5-114 137-74T885 236q209 0 333.5 99T1368 614v43H772v238h903V0h-182l-39 262Q1273-20 879-20zM449 2064h102q0-43 25.5-73t75.5-46 111-23 144-7q82 0 142.5 6.5t109 23 73.5 46.5 25 73h103q0-68-31.5-115t-93.5-73.5-141-37.5-187-11-188 11-143 37.5-95 73.5-32 115z"/><glyph glyph-name="gbreve" unicode="ğ" horiz-adv-x="1529" d="M1104 33v147q-56-83-162.5-141.5T680-20q-271 0-430.5 171T90 596v145q0 269 160 440t426 171q155 0 261-57t167-140v176h276V6q0-122-22-208t-73.5-149-140-93.5T926-475H166v239h717q130 0 175.5 60T1104 33zM256 1692h102q0-43 26-73.5t76-46.5 111.5-23 143.5-7 142.5 7 109 23.5 73.5 46.5 25 73h102q0-55-21-96t-58.5-68-95-43.5T868 1461t-153-7q-108 0-188 11.5T384 1503t-95.5 73.5T256 1692zM375 602q0-79 22-147t65-121.5 114-84T739 219q177 0 271 107.5t94 275.5v129q0 167-94 274t-273 107q-92 0-162.5-30T461 998.5 396.5 877 375 729V602z"/><glyph glyph-name="Gdotaccent" unicode="Ġ" horiz-adv-x="1812" d="M879-20q-185 0-333.5 62T301 212 154.5 464.5 104 778v148q0 135 32 254.5t97.5 219 159.5 172T618 1684t287 40q165 0 305.5-48.5t238-132.5 156.5-198 70-245v-58h-299l-2 76q-13 164-140 257t-325 93q-108 0-195-27.5T569 1366t-97-114-56-143-17-163V762q0-89 17.5-167t56-144.5 94.5-114 137-74T885 236q209 0 333.5 99T1368 614v43H772v238h903V0h-182l-39 262Q1273-20 879-20zM756 1942q0 58 38.5 94.5T905 2073t111-36.5 39-94.5q0-54-39-89.5T905 1817t-110.5 35.5T756 1942z"/><glyph glyph-name="gdotaccent" unicode="ġ" horiz-adv-x="1529" d="M1104 33v147q-56-83-162.5-141.5T680-20q-271 0-430.5 171T90 596v145q0 269 160 440t426 171q155 0 261-57t167-140v176h276V6q0-122-22-208t-73.5-149-140-93.5T926-475H166v239h717q130 0 175.5 60T1104 33zM375 602q0-79 22-147t65-121.5 114-84T739 219q177 0 271 107.5t94 275.5v129q0 167-94 274t-273 107q-92 0-162.5-30T461 998.5 396.5 877 375 729V602zm166 983q0 65 44 102t128 37q86 0 130-37t44-102q0-60-45-97.5T713 1450q-83 0-127.5 37.5T541 1585z"/><glyph glyph-name="uni0122" unicode="Ģ" horiz-adv-x="1812" d="M879-20q-185 0-333.5 62T301 212 154.5 464.5 104 778v148q0 135 32 254.5t97.5 219 159.5 172T618 1684t287 40q165 0 305.5-48.5t238-132.5 156.5-198 70-245v-58h-299l-2 76q-13 164-140 257t-325 93q-108 0-195-27.5T569 1366t-97-114-56-143-17-163V762q0-89 17.5-167t56-144.5 94.5-114 137-74T885 236q209 0 333.5 99T1368 614v43H772v238h903V0h-182l-39 262Q1273-20 879-20zm-95-156q0 47 30.5 76.5T893-70q51 0 78.5-33.5T999-197q0-71-48.5-136.5T813-442v92q105 27 131 110-26-36-72-36-37 0-62.5 26.5T784-176z"/><glyph glyph-name="uni0123" unicode="ģ" horiz-adv-x="1529" d="M1104 33v147q-56-83-162.5-141.5T680-20q-271 0-430.5 171T90 596v145q0 269 160 440t426 171q155 0 261-57t167-140v176h276V6q0-122-22-208t-73.5-149-140-93.5T926-475H166v239h717q130 0 175.5 60T1104 33zM375 602q0-79 22-147t65-121.5 114-84T739 219q177 0 271 107.5t94 275.5v129q0 167-94 274t-273 107q-92 0-162.5-30T461 998.5 396.5 877 375 729V602zm229 946q0 71 48.5 136T791 1792v-90q-106-30-134-111 29 37 72 37 37 0 63.5-27.5T819 1528q0-47-30.5-78t-77.5-31q-51 0-79 34t-28 95z"/><glyph glyph-name="Hcircumflex" unicode="Ĥ" horiz-adv-x="1763" d="M1298 0v725H465V0H176v1704h289V979h833v725h289V0h-289zM500 1843l309 262h143l301-262h-159l-213 193-222-193H500z"/><glyph glyph-name="hcircumflex" unicode="ĥ" horiz-adv-x="1492" d="M428 1704v-592q154 240 444 240 225 0 354.5-145.5T1356 809V0h-277v778q0 336-309 336-69 0-124.5-17t-92-46-62-64-39-76.5-19-77T428 762V0H152v1704h276zm-518 139l309 262h143l302-262H504l-213 193-221-193H-90z"/><glyph glyph-name="Hbar" unicode="Ħ" horiz-adv-x="1918" d="M1378 0v725H545V0H256v1257H47v144h209v303h289v-303h833v303h289v-303h207v-144h-207V0h-289zM545 979h833v278H545V979z"/><glyph glyph-name="hbar" unicode="ħ" horiz-adv-x="1492" d="M428 1704v-125h469v-139H428v-328q154 240 444 240 225 0 354.5-145.5T1356 809V0h-277v778q0 336-309 336-69 0-124.5-17t-92-46-62-64-39-76.5-19-77T428 762V0H152v1440h-275v139h275v125h276z"/><glyph glyph-name="Itilde" unicode="Ĩ" horiz-adv-x="1337" d="M102 0v260h422v1184H102v260h1133v-260H813V260h422V0H102zm119 1835q0 105 64.5 167t183.5 62q58 0 103.5-16t76-39 59-45.5 67-38.5 85.5-16q76 0 115 37t39 102h102q0-108-66.5-168.5T860 1819q-61 0-109.5 16t-79.5 38.5-59 45.5-64 39-79 16q-71 0-108-39t-37-100H221z"/><glyph glyph-name="itilde" unicode="ĩ" horiz-adv-x="577" d="M152 1331h276V0H152v1331zm-310 131q0 105 64.5 167.5T90 1692q58 0 103.5-16t76-39 59-46 67-39 85.5-16q76 0 115 37t39 102h102q0-108-66.5-168.5T481 1446q-61 0-109.5 16t-79.5 39-59 46-64 39-79 16q-71 0-108-39.5T-55 1462h-103z"/><glyph glyph-name="Imacron" unicode="Ī" horiz-adv-x="1337" d="M102 0v260h422v1184H102v260h1133v-260H813V260h422V0H102zm62 1901v81h1010v-81H164z"/><glyph glyph-name="imacron" unicode="ī" horiz-adv-x="577" d="M152 1331h276V0H152v1331zm-199 197v82h672v-82H-47z"/><glyph glyph-name="Iogonek" unicode="Į" horiz-adv-x="1337" d="M102 0v260h422v1184H102v260h1133v-260H813V260h422V0q-227-66-227-186 0-62 54.5-88.5T1249-301h15l-82-109h-13q-130 0-208 47t-78 134q0 160 250 229H102z"/><glyph glyph-name="iogonek" unicode="į" horiz-adv-x="577" d="M152 1331h276V0h-2Q199-66 199-186q0-62 54.5-88.5T440-301h15l-82-109h-13q-130 0-208 47T74-229Q74-69 324 0H152v1331zm-35 254q0 65 44 102t128 37q86 0 130-37t44-102q0-60-45-97.5T289 1450q-83 0-127.5 37.5T117 1585z"/><glyph glyph-name="Idotaccent" unicode="İ" horiz-adv-x="1337" d="M102 0v260h422v1184H102v260h1133v-260H813V260h422V0H102zm418 1942q0 58 39 94.5t111 36.5 110.5-36.5T819 1942q0-54-38.5-89.5T670 1817t-111 35.5-39 89.5z"/><glyph glyph-name="dotlessi" unicode="ı" horiz-adv-x="577" d="M152 1331h276V0H152v1331z"/><glyph glyph-name="IJ" unicode="Ĳ" horiz-adv-x="2865" d="M102 0v260h422v1184H102v260h1133v-260H813V260h422V0H102zm1256 657v23h297v-43q0-81 10.5-142t36.5-112 68.5-83 108.5-49.5 155-17.5q108 0 182.5 25t117 76.5 61 120.5 18.5 166v1083h290V639q0-333-161-496T2034-20q-353 0-514.5 165.5T1358 657z"/><glyph glyph-name="ij" unicode="ĳ" horiz-adv-x="1054" d="M152 1331h276V0H152v1331zm-35 254q0 65 44 102t128 37q86 0 130-37t44-102q0-60-45-97.5T289 1450q-83 0-127.5 37.5T117 1585zM233-475v239h191q114 0 159.5 51T629 0v1331h274V-39q0-121-27.5-207T794-381.5 668.5-453 500-475H233zm361 2060q0 65 44 102t128 37q86 0 130-37t44-102q0-60-45-97.5T766 1450q-83 0-127.5 37.5T594 1585z"/><glyph glyph-name="Jcircumflex" unicode="Ĵ" horiz-adv-x="1554" d="M725-20q-353 0-514.5 165.5T49 657v23h297v-43q0-81 10.5-142T393 383t68.5-83T570 250.5 725 233q108 0 182.5 25t117 76.5 61 120.5 18.5 166v1083h291V639q0-333-161.5-496T725-20zm137 1863l309 262h144l301-262h-160l-213 193-221-193H862z"/><glyph glyph-name="jcircumflex" unicode="ĵ" horiz-adv-x="577" d="M152 0v1331h274V-39q0-121-27.5-207T317-381.5 191.5-453 23-475h-267v239h191q114 0 159.5 51T152 0zM-90 1470l309 263h143l302-263H504l-213 193-221-193H-90z"/><glyph glyph-name="uni0136" unicode="Ķ" horiz-adv-x="1601" d="M1225 0L553 721h-88V0H176v1704h289V983h88l672 721h372L780 852 1597 0h-372zM713-178q0 47 30.5 76.5T821-72q51 0 79-33.5t28-93.5q0-70-49-136T741-444v92q105 27 131 110-27-37-71-37-37 0-62.5 27T713-178z"/><glyph glyph-name="uni0137" unicode="ķ" horiz-adv-x="1421" d="M152 1704h276V791h121l520 540h352L758 668 1421 0h-352L539 551H428V0H152v1704zM621-178q0 47 30.5 76.5T729-72q51 0 79-33.5t28-93.5q0-70-49-136T649-444v92q105 27 131 110-27-37-71-37-37 0-62.5 27T621-178z"/><glyph glyph-name="Lacute" unicode="Ĺ" horiz-adv-x="1419" d="M176 0v1704h289V256h919V0H176zm68 1937l891 152 18-80-891-151z"/><glyph glyph-name="lacute" unicode="ĺ" horiz-adv-x="577" d="M152 1704h276V0H152v1704zm-318 233l891 152 18-80-890-151z"/><glyph glyph-name="uni013B" unicode="Ļ" horiz-adv-x="1419" d="M176 0v1704h289V256h919V0H176zm490-178q0 47 30.5 76.5T774-72q51 0 79-33.5t28-93.5q0-70-49-136T694-444v92q105 27 131 110-27-37-71-37-37 0-62.5 27T666-178z"/><glyph glyph-name="uni013C" unicode="ļ" horiz-adv-x="577" d="M152 1704h276V0H152v1704zm30-1882q0 47 30.5 76.5T291-72q51 0 78.5-33.5T397-199q0-71-48.5-136.5T211-444v92q105 27 131 110-27-37-72-37-37 0-62.5 27T182-178z"/><glyph glyph-name="Lcaron" unicode="Ľ" horiz-adv-x="1421" d="M176 0v1704h289V256h919V0H176zm539 1202l71 502h183l-133-502H715z"/><glyph glyph-name="lcaron" unicode="ľ" horiz-adv-x="675" d="M152 1704h276V0H152v1704zm337-502l72 502h182l-133-502H489z"/><glyph glyph-name="Lslash" unicode="Ł" horiz-adv-x="1558" d="M313 0v668L51 573v160l262 94v877h289V930l496 178V946L602 770V256h920V0H313z"/><glyph glyph-name="lslash" unicode="ł" horiz-adv-x="987" d="M360 1704h277V981l317 129V952L637 825V0H360v715L41 586v155l319 129v834z"/><glyph glyph-name="Nacute" unicode="Ń" horiz-adv-x="1783" d="M176 0v1704h283l866-1251v1251h283V0h-283L457 1251V0H176zm260 1937l891 152 19-80-891-151z"/><glyph glyph-name="nacute" unicode="ń" d="M428 1331v-219q154 240 444 240 225 0 354.5-145.5T1356 809V0h-277v778q0 336-309 336-69 0-124.5-17t-92-46-62-64-39-76.5-19-77T428 762V0H152v1331h276zm-123 234l891 151 18-80-890-151z"/><glyph glyph-name="uni0145" unicode="Ņ" horiz-adv-x="1783" d="M176 0v1704h283l866-1251v1251h283V0h-283L457 1251V0H176zm610-178q0 47 30.5 76.5T895-72q51 0 78.5-33.5T1001-199q0-71-48.5-136.5T815-444v92q105 27 131 110-27-37-72-37-37 0-62.5 27T786-178z"/><glyph glyph-name="uni0146" unicode="ņ" d="M428 1331v-219q154 240 444 240 225 0 354.5-145.5T1356 809V0h-277v778q0 336-309 336-69 0-124.5-17t-92-46-62-64-39-76.5-19-77T428 762V0H152v1331h276zM659-178q0 47 30.5 76.5T768-72q51 0 78.5-33.5T874-199q0-71-48.5-136.5T688-444v92q105 27 131 110-27-37-71-37-37 0-63 27t-26 74z"/><glyph glyph-name="Ncaron" unicode="Ň" horiz-adv-x="1783" d="M176 0v1704h283l866-1251v1251h283V0h-283L457 1251V0H176zm275 2087h176l270-195 262 195h176l-366-262H825z"/><glyph glyph-name="ncaron" unicode="ň" d="M428 1331v-219q154 240 444 240 225 0 354.5-145.5T1356 809V0h-277v778q0 336-309 336-69 0-124.5-17t-92-46-62-64-39-76.5-19-77T428 762V0H152v1331h276zm-109 383h177l270-194 262 194h176l-366-262H694z"/><glyph glyph-name="Eng" unicode="Ŋ" horiz-adv-x="1783" d="M176 0v1704h283l866-1251v1251h283V0q-1-118-18.5-192t-64-125-124.5-72-201-21h-190v258h229q65 0 86 36.5T1327 0h-2L457 1251V0H176z"/><glyph glyph-name="eng" unicode="ŋ" d="M428 1331v-219q154 240 444 240 225 0 354.5-145.5T1356 809V0q0-116-14-188t-54-125-113-75-190-22H805v238h110q87 0 125.5 36T1079 0v778q0 336-309 336-69 0-124.5-17t-92-46-62-64-39-76.5-19-77T428 762V0H152v1331h276z"/><glyph glyph-name="Omacron" unicode="Ō" horiz-adv-x="1804" d="M903-20q-189 0-342 62T308.5 213t-153 254T102 780v146q0 167 53.5 312t153 253.5T561 1662t342 62q188 0 340.5-62t251.5-170.5 152-253.5 53-312V780q0-168-53.5-313.5t-152.5-254T1242.5 42 903-20zM397 1901v81h1010v-81H397zm2-1139q0-110 30-203.5T519 392t158.5-114.5T903 236t225 41.5T1285.5 392t89.5 166.5 30 203.5v182q0 86-18.5 163t-58.5 143.5-98 114.5-141.5 75.5T903 1468q-127 0-225.5-41.5T519 1312t-90-165.5T399 946V762z"/><glyph glyph-name="omacron" unicode="ō" horiz-adv-x="1460" d="M731-20q-314 0-476.5 171T92 621v90q0 299 162.5 470T731 1352q210 0 354.5-80t213.5-222 69-339v-90q0-197-69-339T1085.5 60 731-20zM225 1528v82h1010v-82H225zm152-922q0-387 354-387t354 387v119q0 387-354 387T377 725V606z"/><glyph glyph-name="Ohungarumlaut" unicode="Ő" horiz-adv-x="1804" d="M903-20q-189 0-342 62T308.5 213t-153 254T102 780v146q0 167 53.5 312t153 253.5T561 1662t342 62q188 0 340.5-62t251.5-170.5 152-253.5 53-312V780q0-168-53.5-313.5t-152.5-254T1242.5 42 903-20zM399 762q0-110 30-203.5T519 392t158.5-114.5T903 236t225 41.5T1285.5 392t89.5 166.5 30 203.5v182q0 86-18.5 163t-58.5 143.5-98 114.5-141.5 75.5T903 1468q-127 0-225.5-41.5T519 1312t-90-165.5T399 946V762zm287 1065l266 229h138l-246-229H686zm283 0l268 229h135l-246-229H969z"/><glyph glyph-name="ohungarumlaut" unicode="ő" horiz-adv-x="1460" d="M731-20q-314 0-476.5 171T92 621v90q0 299 162.5 470T731 1352q210 0 354.5-80t213.5-222 69-339v-90q0-197-69-339T1085.5 60 731-20zM377 606q0-387 354-387t354 387v119q0 387-354 387T377 725V606zm137 848l266 229h138l-246-229H514zm283 0l268 229h135l-246-229H797z"/><glyph glyph-name="OE" unicode="Œ" horiz-adv-x="2394" d="M786-20Q577-20 422 83T188 363.5 109 770v170q0 169 46.5 313.5t132 248.5T500 1665t282 59q150 0 271-61t200-172v213h1016v-256h-756V979h713V725h-713V254h756V0H1253v211q-77-112-196-171.5T786-20zM403 758q0-241 106-384t306-143q134 0 228.5 68.5t139 185T1227 756v198q0 154-44 269t-138 182.5-228 67.5q-201 0-307.5-143T403 948V758z"/><glyph glyph-name="oe" unicode="œ" horiz-adv-x="2390" d="M715-20q-195 0-337.5 81t-215 223.5T90 614v103q0 286 166 460.5T715 1352q339 0 499-242 152 242 484 242 283 0 441.5-164.5T2298 717V602h-963l-2-27q9-162 102-259t251-97q235 0 296 197v20h302v-12q-40-200-195-322T1683-20q-325 0-475 233Q1043-20 715-20zM375 606q0-174 87.5-280.5T721 219q170 0 257 106t87 281v119q0 174-87 280.5T721 1112q-171 0-258.5-107T375 725V606zm968 201h666v33q-17 132-103 202t-225 70q-145 0-231.5-78.5T1343 811v-4z"/><glyph glyph-name="Racute" unicode="Ŕ" horiz-adv-x="1724" d="M1317 0q-25 29-25 152v256q0 131-74.5 186T1004 649H465V0H176v1704h834q573 0 573-508v-6q0-340-264-412 128-33 196-130.5t68-241.5V152q0-121 25-152h-291zM367 1937l890 152 19-80-891-151zm98-1038h539q143 0 212.5 56.5T1286 1161v45q0 134-71.5 190T991 1452H465V899z"/><glyph glyph-name="racute" unicode="ŕ" horiz-adv-x="1312" d="M428 1331v-221q46 104 157 173t253 69q193 0 307.5-116T1260 877V723H977v131q0 130-54.5 195T745 1114q-69 0-125-20t-91-52-58.5-74-33-84-9.5-85V0H152v1331h276zm-168 234l891 151 18-80-890-151z"/><glyph glyph-name="uni0156" unicode="Ŗ" horiz-adv-x="1724" d="M1317 0q-25 29-25 152v256q0 131-74.5 186T1004 649H465V0H176v1704h834q573 0 573-508v-6q0-340-264-412 128-33 196-130.5t68-241.5V152q0-121 25-152h-291zM465 899h539q143 0 212.5 56.5T1286 1161v45q0 134-71.5 190T991 1452H465V899zM770-178q0 47 30.5 76.5T879-72q51 0 78.5-33.5T985-199q0-71-48.5-136.5T799-444v92q105 27 131 110-27-37-72-37-37 0-62.5 27T770-178z"/><glyph glyph-name="uni0157" unicode="ŗ" horiz-adv-x="1312" d="M428 1331v-221q46 104 157 173t253 69q193 0 307.5-116T1260 877V723H977v131q0 130-54.5 195T745 1114q-69 0-125-20t-91-52-58.5-74-33-84-9.5-85V0H152v1331h276zM180-178q0 47 30.5 76.5T289-72q51 0 78.5-33.5T395-199q0-71-48.5-136.5T209-444v92q105 27 131 110-27-37-72-37-37 0-62.5 27T180-178z"/><glyph glyph-name="Rcaron" unicode="Ř" horiz-adv-x="1724" d="M1317 0q-25 29-25 152v256q0 131-74.5 186T1004 649H465V0H176v1704h834q573 0 573-508v-6q0-340-264-412 128-33 196-130.5t68-241.5V152q0-121 25-152h-291zM379 2087h176l270-195 262 195h177l-367-262H754zm86-1188h539q143 0 212.5 56.5T1286 1161v45q0 134-71.5 190T991 1452H465V899z"/><glyph glyph-name="rcaron" unicode="ř" horiz-adv-x="1312" d="M428 1331v-221q46 104 157 173t253 69q193 0 307.5-116T1260 877V723H977v131q0 130-54.5 195T745 1114q-69 0-125-20t-91-52-58.5-74-33-84-9.5-85V0H152v1331h276zm-156 383h177l270-194 262 194h176l-366-262H647z"/><glyph glyph-name="Sacute" unicode="Ś" horiz-adv-x="1626" d="M838-20q-382 0-566 148T88 569v39h295v-57q0-172 109-248t352-76q202 0 295.5 55t93.5 175v18q-1 115-72.5 166T903 729l-338 78q-428 97-428 446 0 230 170 350.5T801 1724q338 0 511-131.5t173-382.5v-41h-293v50q0 136-91.5 197T803 1477q-187 0-278-50t-91-153v-12q0-95 75.5-147.5T735 1032l342-76q110-23 189.5-57.5T1407 810t91-134 30-187q0-267-164-388T838-20zM344 1937l891 152 18-80-891-151z"/><glyph glyph-name="sacute" unicode="ś" horiz-adv-x="1415" d="M971 760q105-22 176.5-57.5T1258 618t55-102.5 16-122.5q0-74-17-134t-59.5-113-110-89T970 .5 727-20q-180 0-307 31.5T218.5 106 111 254 78 455v34h287v-32q0-134 86-188t274-54q174 0 246.5 40.5T1044 377q0 66-51.5 106T825 551l-311 63q-113 19-191.5 53.5T201 749t-61.5 99.5T121 967q0 82 29 149t92.5 121.5T419 1322t269 30q137 0 242-22t173-60.5 111.5-94.5 61.5-119.5 18-140.5v-30h-286v28q0 113-77.5 158T688 1116q-81 0-141.5-12.5T447 1060t-39-79q0-54 45.5-87T606 838zm-733 805l890 151 19-80-891-151z"/><glyph glyph-name="Scircumflex" unicode="Ŝ" horiz-adv-x="1626" d="M838-20q-382 0-566 148T88 569v39h295v-57q0-172 109-248t352-76q202 0 295.5 55t93.5 175v18q-1 115-72.5 166T903 729l-338 78q-428 97-428 446 0 230 170 350.5T801 1724q338 0 511-131.5t173-382.5v-41h-293v50q0 136-91.5 197T803 1477q-187 0-278-50t-91-153v-12q0-95 75.5-147.5T735 1032l342-76q110-23 189.5-57.5T1407 810t91-134 30-187q0-267-164-388T838-20zM424 1843l309 262h144l301-262h-160l-213 193-221-193H424z"/><glyph glyph-name="scircumflex" unicode="ŝ" horiz-adv-x="1415" d="M971 760q105-22 176.5-57.5T1258 618t55-102.5 16-122.5q0-74-17-134t-59.5-113-110-89T970 .5 727-20q-180 0-307 31.5T218.5 106 111 254 78 455v34h287v-32q0-134 86-188t274-54q174 0 246.5 40.5T1044 377q0 66-51.5 106T825 551l-311 63q-113 19-191.5 53.5T201 749t-61.5 99.5T121 967q0 82 29 149t92.5 121.5T419 1322t269 30q137 0 242-22t173-60.5 111.5-94.5 61.5-119.5 18-140.5v-30h-286v28q0 113-77.5 158T688 1116q-81 0-141.5-12.5T447 1060t-39-79q0-54 45.5-87T606 838zm-654 710l310 263h143l301-263H911l-213 193-221-193H317z"/><glyph glyph-name="Scedilla" unicode="Ş" horiz-adv-x="1626" d="M702-332q140 0 197 13.5t57 58.5q0 25-13.5 39t-44 18-66.5 1.5-95-9.5l47 191Q429-10 258.5 138.5T88 569v39h295v-57q0-172 109-248t352-76q202 0 295.5 55t93.5 175v18q-1 115-72.5 166T903 729l-338 78q-428 97-428 446 0 230 170 350.5T801 1724q338 0 511-131.5t173-382.5v-41h-293v50q0 136-91.5 197T803 1477q-187 0-278-50t-91-153v-12q0-95 75.5-147.5T735 1032l342-76q110-23 189.5-57.5T1407 810t91-134 30-187q0-258-152.5-380T887-20l-27-103q105 10 163-19t58-112q0-95-88.5-132.5T702-424v92z"/><glyph glyph-name="scedilla" unicode="ş" horiz-adv-x="1415" d="M971 760q105-22 176.5-57.5T1258 618t55-102.5 16-122.5q0-72-16-130.5t-55.5-111T1155 63 994 5 768-20l-27-103q222 21 222-131 0-95-88.5-132.5T584-424v92q140 0 197 13.5t57 58.5q0 48-57 57t-163-8l48 191q-163 6-278 40t-182.5 96.5-97.5 145T78 455v34h287v-32q0-134 86-188t274-54q174 0 246.5 40.5T1044 377q0 66-51.5 106T825 551l-311 63q-113 19-191.5 53.5T201 749t-61.5 99.5T121 967q0 82 29 149t92.5 121.5T419 1322t269 30q137 0 242-22t173-60.5 111.5-94.5 61.5-119.5 18-140.5v-30h-286v28q0 113-77.5 158T688 1116q-81 0-141.5-12.5T447 1060t-39-79q0-54 45.5-87T606 838z"/><glyph glyph-name="Scaron" unicode="Š" horiz-adv-x="1626" d="M838-20q-382 0-566 148T88 569v39h295v-57q0-172 109-248t352-76q202 0 295.5 55t93.5 175v18q-1 115-72.5 166T903 729l-338 78q-428 97-428 446 0 230 170 350.5T801 1724q338 0 511-131.5t173-382.5v-41h-293v50q0 136-91.5 197T803 1477q-187 0-278-50t-91-153v-12q0-95 75.5-147.5T735 1032l342-76q110-23 189.5-57.5T1407 810t91-134 30-187q0-267-164-388T838-20zM358 2087h177l270-195 262 195h176l-366-262H733z"/><glyph glyph-name="scaron" unicode="š" horiz-adv-x="1415" d="M971 760q105-22 176.5-57.5T1258 618t55-102.5 16-122.5q0-74-17-134t-59.5-113-110-89T970 .5 727-20q-180 0-307 31.5T218.5 106 111 254 78 455v34h287v-32q0-134 86-188t274-54q174 0 246.5 40.5T1044 377q0 66-51.5 106T825 551l-311 63q-113 19-191.5 53.5T201 749t-61.5 99.5T121 967q0 82 29 149t92.5 121.5T419 1322t269 30q137 0 242-22t173-60.5 111.5-94.5 61.5-119.5 18-140.5v-30h-286v28q0 113-77.5 158T688 1116q-81 0-141.5-12.5T447 1060t-39-79q0-54 45.5-87T606 838zm-719 954h176l270-194 263 194h176l-367-262H627z"/><glyph glyph-name="uni0162" unicode="Ţ" horiz-adv-x="1511" d="M610 0v1448H37v256h1436v-256H899V0h-94l-31-123q105 10 163-19t58-112q0-95-88.5-132.5T616-424v92q140 0 197 13.5t57 58.5q0 25-13.5 39t-44 18-66.5 1.5-95-9.5L702 0h-92z"/><glyph glyph-name="uni0163" unicode="ţ" horiz-adv-x="1150" d="M1065 1331v-239H641V451q0-124 28-167.5T780 240h285V0H791l-27-102q105 10 163-19t58-112q0-95-88.5-132.5T606-403v92q141 0 197.5 13.5T860-240q0 25-13.5 39t-44 18-67 2-94.5-9L688 0q-95 4-158.5 31t-99 80T381 232t-14 165v695H20v239h156q127 4 176.5 94t46.5 279h275q0-154-33.5-254T537 1331h528z"/><glyph glyph-name="Tcaron" unicode="Ť" horiz-adv-x="1511" d="M610 0v1448H37v256h1436v-256H899V0H610zM311 2087h176l271-195 262 195h176l-367-262H686z"/><glyph glyph-name="tcaron" unicode="ť" horiz-adv-x="1150" d="M1065 1331v-239H641V451q0-124 28-167.5T780 240h285V0H719Q615 0 545 25t-108.5 78-54 123T367 397v695H20v239h156q127 4 176.5 94t46.5 279h275q0-154-33.5-254T537 1331h528zm-281 117l97 465h182l-158-465H784z"/><glyph glyph-name="Tbar" unicode="Ŧ" horiz-adv-x="1558" d="M633 0v688H213v141h420v619H59v256h1436v-256H922V829h426V688H922V0H633z"/><glyph glyph-name="tbar" unicode="ŧ" horiz-adv-x="1179" d="M1087 1331v-239H664V803h421V662H664V451q0-124 28-167.5T803 240h284V0H741Q637 0 567 25t-108.5 78-54 123T389 397v265H47v141h342v289H43v239h156q127 4 176.5 94t46.5 279h274q0-154-33.5-254T559 1331h528z"/><glyph glyph-name="Utilde" unicode="Ũ" horiz-adv-x="1751" d="M877-20q-380 0-547.5 157T162 647v1057h289V631q0-220 101.5-309T877 233q222 0 322.5 89T1300 631v1073h289V647q0-355-167.5-511T877-20zM428 1835q0 105 64.5 167t183.5 62q58 0 103.5-16t76-39 59-45.5 67-38.5 85.5-16q76 0 115 37t39 102h102q0-108-66.5-168.5T1067 1819q-61 0-109.5 16t-79.5 38.5-59 45.5-64 39-79 16q-72 0-109-39t-37-100H428z"/><glyph glyph-name="utilde" unicode="ũ" d="M1065 0v223Q913-20 618-20q-225 0-354 145T135 522v809h277V553q0-336 309-336 69 0 124.5 17t92 46 62 64 39 76.5 19 77 5.5 71.5l2-34v796h276V0h-276zM270 1462q0 105 64.5 167.5T518 1692q58 0 103.5-16t76-39 59-46 67-39 85.5-16q76 0 115 37t39 102h102q0-108-66.5-168.5T909 1446q-61 0-109.5 16t-79.5 39-59 46-64 39-79 16q-71 0-108-39.5T373 1462H270z"/><glyph glyph-name="Umacron" unicode="Ū" horiz-adv-x="1751" d="M877-20q-380 0-547.5 157T162 647v1057h289V631q0-220 101.5-309T877 233q222 0 322.5 89T1300 631v1073h289V647q0-355-167.5-511T877-20zM371 1901v81h1009v-81H371z"/><glyph glyph-name="umacron" unicode="ū" d="M1065 0v223Q913-20 618-20q-225 0-354 145T135 522v809h277V553q0-336 309-336 69 0 124.5 17t92 46 62 64 39 76.5 19 77 5.5 71.5l2-34v796h276V0h-276zM213 1528v82h1010v-82H213z"/><glyph glyph-name="Ubreve" unicode="Ŭ" horiz-adv-x="1751" d="M877-20q-380 0-547.5 157T162 647v1057h289V631q0-220 101.5-309T877 233q222 0 322.5 89T1300 631v1073h289V647q0-355-167.5-511T877-20zM420 2064h102q0-43 26-73t76-46 111-23 144-7q82 0 142.5 6.5t109 23 73.5 46.5 25 73h102q0-68-31-115t-93-73.5-141-37.5-187-11-188 11-143 37.5-95.5 73.5-32.5 115z"/><glyph glyph-name="ubreve" unicode="ŭ" d="M1065 0v223Q913-20 618-20q-225 0-354 145T135 522v809h277V553q0-336 309-336 69 0 124.5 17t92 46 62 64 39 76.5 19 77 5.5 71.5l2-34v796h276V0h-276zM262 1692h103q0-43 25.5-73t75.5-46.5 111.5-23.5 143.5-7 142.5 7 109 23.5 73.5 46.5 25 73h103q0-68-31.5-115.5t-93-73.5-141-37.5T721 1454t-188 11.5-143 37.5-95.5 73.5T262 1692z"/><glyph glyph-name="Uring" unicode="Ů" horiz-adv-x="1751" d="M877-20q-380 0-547.5 157T162 647v1057h289V631q0-220 101.5-309T877 233q222 0 322.5 89T1300 631v1073h289V647q0-355-167.5-511T877-20zM711 1962q0 71 49.5 118.5T877 2128t116-47.5 49-118.5-49-118.5-116-47.5-116.5 47.5T711 1962zm92 0q0-33 20.5-53.5T877 1888t53 20.5 20 53.5-20 53.5-53 20.5-53.5-20.5T803 1962z"/><glyph glyph-name="uring" unicode="ů" d="M1065 0v223Q913-20 618-20q-225 0-354 145T135 522v809h277V553q0-336 309-336 69 0 124.5 17t92 46 62 64 39 76.5 19 77 5.5 71.5l2-34v796h276V0h-276zM553 1589q0 71 49.5 118.5T719 1755t116.5-47.5T885 1589t-49.5-118.5T719 1423t-116.5 47.5T553 1589zm92 0q0-33 20.5-53t53.5-20 53.5 20 20.5 53-20.5 53.5T719 1663t-53.5-20.5T645 1589z"/><glyph glyph-name="Uhungarumlaut" unicode="Ű" horiz-adv-x="1751" d="M877-20q-380 0-547.5 157T162 647v1057h289V631q0-220 101.5-309T877 233q222 0 322.5 89T1300 631v1073h289V647q0-355-167.5-511T877-20zM659 1827l267 229h137l-246-229H659zm283 0l268 229h136l-246-229H942z"/><glyph glyph-name="uhungarumlaut" unicode="ű" d="M1065 0v223Q913-20 618-20q-225 0-354 145T135 522v809h277V553q0-336 309-336 69 0 124.5 17t92 46 62 64 39 76.5 19 77 5.5 71.5l2-34v796h276V0h-276zM502 1454l266 229h137l-246-229H502zm282 0l269 229h135l-246-229H784z"/><glyph glyph-name="Uogonek" unicode="Ų" horiz-adv-x="1751" d="M877-20q-380 0-547.5 157T162 647v1057h289V631q0-220 101.5-309T877 233q222 0 322.5 89T1300 631v1073h289V647q0-294-113-449.5T1116-2Q895-68 895-186q0-62 55-88.5t187-26.5h14l-82-109h-12q-130 0-208.5 47T770-229q0 139 191 211-27-2-84-2z"/><glyph glyph-name="uogonek" unicode="ų" d="M1065 0v223Q913-20 618-20q-225 0-354 145T135 522v809h277V553q0-336 309-336 69 0 124.5 17t92 46 62 64 39 76.5 19 77 5.5 71.5l2-34v796h276V0q-227-66-227-186 0-62 55-88.5t187-26.5h14l-82-109h-12q-130 0-208.5 47T989-229q0 160 250 229h-174z"/><glyph glyph-name="Wcircumflex" unicode="Ŵ" horiz-adv-x="2539" d="M508 0L33 1704h299L700 319l383 1385h373l385-1382 2-5 365 1387h299L2034 0h-381l-377 1366-4 18-6-18L889 0H508zm385 1843l309 262h144l301-262h-160l-213 193-221-193H893z"/><glyph glyph-name="wcircumflex" unicode="ŵ" horiz-adv-x="2109" d="M678 1470l309 263h143l302-263h-160l-213 193-221-193H678zM37 1331h278L582 215l280 1116h387l281-1116 266 1116h279L1720 0h-366l-299 1133L756 0H391z"/><glyph glyph-name="Ycircumflex" unicode="Ŷ" horiz-adv-x="1587" d="M651 0v596L-4 1704h332l467-821 467 821h329L938 596V0H651zM416 1843l309 262h143l301-262h-159l-213 193-222-193H416z"/><glyph glyph-name="ycircumflex" unicode="ŷ" d="M1063-8v227Q909-20 618-20q-225 0-354 145T135 522v809h277V553q0-336 309-336 69 0 124.5 17t92 46 62 64 39 76.5 19 77 5.5 71.5v762h278V-10q0-465-415-465H170v239h715q92 0 135 51.5T1063-8zM367 1470l309 263h143l301-263H961l-213 193-222-193H367z"/><glyph glyph-name="Ydieresis" unicode="Ÿ" horiz-adv-x="1587" d="M651 0v596L-4 1704h332l467-821 467 821h329L938 596V0H651zM408 1950q0 63 40.5 98t100.5 35q59 0 101-35t42-98q0-62-42-97.5T549 1817q-60 0-100.5 35.5T408 1950zm487 0q0 63 41.5 98t101.5 35q59 0 100.5-35t41.5-98q0-62-41.5-97.5T1038 1817q-60 0-101.5 35.5T895 1950z"/><glyph glyph-name="Zacute" unicode="Ź" horiz-adv-x="1521" d="M96 0v258l965 1190H96v256h1329v-258L459 256h966V0H96zm209 1937l891 152 18-80-890-151z"/><glyph glyph-name="zacute" unicode="ź" horiz-adv-x="1349" d="M90 1331h1170v-239L432 240h838V0H80v240l829 852H90v239zm127 234l891 151 18-80-890-151z"/><glyph glyph-name="Zdotaccent" unicode="Ż" horiz-adv-x="1521" d="M96 0v258l965 1190H96v256h1329v-258L459 256h966V0H96zm514 1942q0 58 39 94.5t111 36.5 110.5-36.5T909 1942q0-54-38.5-89.5T760 1817t-111 35.5-39 89.5z"/><glyph glyph-name="zdotaccent" unicode="ż" horiz-adv-x="1349" d="M90 1331h1170v-239L432 240h838V0H80v240l829 852H90v239zm412 254q0 65 44 102t128 37q86 0 130-37t44-102q0-60-45-97.5T674 1450q-83 0-127.5 37.5T502 1585z"/><glyph glyph-name="Zcaron" unicode="Ž" horiz-adv-x="1521" d="M96 0v258l965 1190H96v256h1329v-258L459 256h966V0H96zm221 2087h177l270-195 262 195h176l-366-262H692z"/><glyph glyph-name="zcaron" unicode="ž" horiz-adv-x="1349" d="M90 1331h1170v-239L432 240h838V0H80v240l829 852H90v239zm141 383h177l270-194 262 194h176l-366-262H606z"/><glyph glyph-name="uni0218" unicode="Ș" horiz-adv-x="1626" d="M838-20q-382 0-566 148T88 569v39h295v-57q0-172 109-248t352-76q202 0 295.5 55t93.5 175v18q-1 115-72.5 166T903 729l-338 78q-428 97-428 446 0 230 170 350.5T801 1724q338 0 511-131.5t173-382.5v-41h-293v50q0 136-91.5 197T803 1477q-187 0-278-50t-91-153v-12q0-95 75.5-147.5T735 1032l342-76q110-23 189.5-57.5T1407 810t91-134 30-187q0-267-164-388T838-20zM731-178q0 47 30.5 76.5T840-72q51 0 78.5-33.5T946-199q0-71-48.5-136.5T760-444v92q105 27 131 110-27-37-72-37-37 0-62.5 27T731-178z"/><glyph glyph-name="uni0219" unicode="ș" horiz-adv-x="1415" d="M971 760q105-22 176.5-57.5T1258 618t55-102.5 16-122.5q0-74-17-134t-59.5-113-110-89T970 .5 727-20q-180 0-307 31.5T218.5 106 111 254 78 455v34h287v-32q0-134 86-188t274-54q174 0 246.5 40.5T1044 377q0 66-51.5 106T825 551l-311 63q-113 19-191.5 53.5T201 749t-61.5 99.5T121 967q0 82 29 149t92.5 121.5T419 1322t269 30q137 0 242-22t173-60.5 111.5-94.5 61.5-119.5 18-140.5v-30h-286v28q0 113-77.5 158T688 1116q-81 0-141.5-12.5T447 1060t-39-79q0-54 45.5-87T606 838zM614-178q0 47 30.5 76.5T723-72q51 0 78.5-33.5T829-199q0-71-48.5-136.5T643-444v92q105 27 131 110-27-37-72-37-37 0-62.5 27T614-178z"/><glyph glyph-name="uni021A" unicode="Ț" horiz-adv-x="1511" d="M610 0v1448H37v256h1436v-256H899V0H610zm37-178q0 47 30.5 76.5T756-72q51 0 78.5-33.5T862-199q0-71-48.5-136.5T676-444v92q105 27 131 110-27-37-72-37-37 0-62.5 27T647-178z"/><glyph glyph-name="uni021B" unicode="ț" horiz-adv-x="1150" d="M1065 1331v-239H641V451q0-124 28-167.5T780 240h285V0H719Q615 0 545 25t-108.5 78-54 123T367 397v695H20v239h156q127 4 176.5 94t46.5 279h275q0-154-33.5-254T537 1331h528zM637-158q0 47 30.5 77T745-51q51 0 79-33.5t28-93.5q0-71-48.5-137T666-424v92q104 26 131 111-27-37-72-37-37 0-62.5 26.5T637-158z"/><glyph glyph-name="uni0237" unicode="ȷ" horiz-adv-x="577" d="M152 0v1331h274V-39q0-121-27.5-207T317-381.5 191.5-453 23-475h-267v239h191q114 0 159.5 51T152 0z"/><glyph glyph-name="circumflex" unicode="ˆ" horiz-adv-x="1163" d="M205 1470l309 263h143l301-263H799l-213 193-221-193H205z"/><glyph glyph-name="caron" unicode="ˇ" horiz-adv-x="1294" d="M580 1452l-375 262h176l270-194 262 194h177l-367-262H580z"/><glyph glyph-name="breve" unicode="˘" horiz-adv-x="1320" d="M664 1454q-108 0-188 11.5T333 1503t-95.5 73.5T205 1692h102q0-43 26-73.5t76-46.5 111.5-23 143.5-7 142.5 7 109 23.5T989 1619t25 73h102q0-55-21-96t-58.5-68-95-43.5T817 1461t-153-7z"/><glyph glyph-name="dotaccent" unicode="˙" horiz-adv-x="755" d="M377 1450q-83 0-127.5 37.5T205 1585q0 65 44 102t128 37q86 0 130-37t44-102q0-60-45-97.5T377 1450z"/><glyph glyph-name="ring" unicode="˚" horiz-adv-x="741" d="M371 1423q-67 0-116.5 47.5T205 1589t49.5 118.5T371 1755t116.5-47.5T537 1589t-49.5-118.5T371 1423zm-74 166q0-33 20.5-53t53.5-20 53 20 20 53-20 53.5-53 20.5-53.5-20.5T297 1589z"/><glyph glyph-name="ogonek" unicode="˛" horiz-adv-x="778" d="M481-410q-130 0-208 47t-78 134Q195-69 444 0h103Q431-34 375-79.5T319-186q0-62 55-88.5T561-301h14l-81-109h-13z"/><glyph glyph-name="tilde" unicode="˜" horiz-adv-x="1304" d="M205 1462q0 105 64.5 167.5T453 1692q58 0 103.5-16t76-39 59-46 67-39 85.5-16q76 0 114.5 37t38.5 102h103q0-108-66.5-168.5T844 1446q-61 0-109.5 16t-79.5 39-59 46-64 39-79 16q-71 0-108.5-39.5T307 1462H205z"/><glyph glyph-name="hungarumlaut" unicode="˝" horiz-adv-x="1095" d="M645 1454H487l269 229h135zm-440 0l266 229h137l-246-229H205z"/><glyph glyph-name="uni1E20" unicode="Ḡ" horiz-adv-x="1812" d="M879-20q-185 0-333.5 62T301 212 154.5 464.5 104 778v148q0 135 32 254.5t97.5 219 159.5 172T618 1684t287 40q165 0 305.5-48.5t238-132.5 156.5-198 70-245v-58h-299l-2 76q-13 164-140 257t-325 93q-108 0-195-27.5T569 1366t-97-114-56-143-17-163V762q0-89 17.5-167t56-144.5 94.5-114 137-74T885 236q209 0 333.5 99T1368 614v43H772v238h903V0h-182l-39 262Q1273-20 879-20zM399 1901v81h1010v-81H399z"/><glyph glyph-name="uni1E21" unicode="ḡ" horiz-adv-x="1529" d="M1104 33v147q-56-83-162.5-141.5T680-20q-271 0-430.5 171T90 596v145q0 269 160 440t426 171q155 0 261-57t167-140v176h276V6q0-122-22-208t-73.5-149-140-93.5T926-475H166v239h717q130 0 175.5 60T1104 33zM207 1528v82h1010v-82H207zm168-926q0-79 22-147t65-121.5 114-84T739 219q177 0 271 107.5t94 275.5v129q0 167-94 274t-273 107q-92 0-162.5-30T461 998.5 396.5 877 375 729V602z"/><glyph glyph-name="Wgrave" unicode="Ẁ" horiz-adv-x="2539" d="M508 0L33 1704h299L700 319l383 1385h373l385-1382 2-5 365 1387h299L2034 0h-381l-377 1366-4 18-6-18L889 0H508zm256 1976l20 80 990-151-21-80z"/><glyph glyph-name="wgrave" unicode="ẁ" horiz-adv-x="2109" d="M1559 1532l-21-80-989 152 20 79zM37 1331h278L582 215l280 1116h387l281-1116 266 1116h279L1720 0h-366l-299 1133L756 0H391z"/><glyph glyph-name="Wacute" unicode="Ẃ" horiz-adv-x="2539" d="M508 0L33 1704h299L700 319l383 1385h373l385-1382 2-5 365 1387h299L2034 0h-381l-377 1366-4 18-6-18L889 0H508zm305 1937l891 152 18-80-891-151z"/><glyph glyph-name="wacute" unicode="ẃ" horiz-adv-x="2109" d="M616 1485l-18 80 891 151 18-80zM37 1331h278L582 215l280 1116h387l281-1116 266 1116h279L1720 0h-366l-299 1133L756 0H391z"/><glyph glyph-name="Wdieresis" unicode="Ẅ" horiz-adv-x="2539" d="M508 0L33 1704h299L700 319l383 1385h373l385-1382 2-5 365 1387h299L2034 0h-381l-377 1366-4 18-6-18L889 0H508zm375 1950q0 63 40.5 98t100.5 35q59 0 101-35t42-98q0-62-42-97.5t-101-35.5q-60 0-100.5 35.5T883 1950zm487 0q0 63 41.5 98t101.5 35q59 0 100.5-35t41.5-98q0-62-41.5-97.5T1513 1817q-60 0-101.5 35.5T1370 1950z"/><glyph glyph-name="wdieresis" unicode="ẅ" horiz-adv-x="2109" d="M1298 1444q-60 0-101.5 35.5T1155 1577q0 63 41.5 98t101.5 35q59 0 100.5-35t41.5-98q0-62-41.5-97.5T1298 1444zM37 1331h278L582 215l280 1116h387l281-1116 266 1116h279L1720 0h-366l-299 1133L756 0H391zm631 246q0 63 40.5 98t100.5 35q59 0 101-35t42-98q0-62-42-97.5T809 1444q-60 0-100.5 35.5T668 1577z"/><glyph glyph-name="uni1E9E" unicode="ẞ" horiz-adv-x="1560" d="M166 1237q0 237 152 352t466 115h643q-23-197-46.5-322.5t-58-217.5-80-139-112.5-69q158-34 237-146t79-282v-30q0-130-38-227.5T1300 115t-161-86.5T934 0H575v236h244q195 0 271.5 60.5T1167 520v47q0 130-79.5 193.5T809 825H575v234h207q93 0 147.5 15t95.5 63.5 64.5 122.5 49.5 210H786q-180 0-262-54t-82-179V0H166v1237z"/><glyph glyph-name="uni1EBC" unicode="Ẽ" horiz-adv-x="1505" d="M176 0v1704h1210v-256H465V979h862V725H465V256h921V0H176zm158 1835q0 105 64.5 167t183.5 62q58 0 103.5-16t76-39 59-45.5 67-38.5 85.5-16q76 0 114.5 37t38.5 102h103q0-108-66.5-168.5T973 1819q-61 0-109.5 16t-79.5 38.5-59 45.5-64 39-79 16q-72 0-109-39t-37-100H334z"/><glyph glyph-name="uni1EBD" unicode="ẽ" horiz-adv-x="1472" d="M289 1462q0 105 64.5 167.5T537 1692q58 0 103.5-16t76-39 59-46 67-39 85.5-16q76 0 114.5 37t38.5 102h103q0-108-66.5-168.5T928 1446q-61 0-109.5 16t-79.5 39-59 46-64 39-79 16q-71 0-108.5-39.5T391 1462H289zM90 621v94q0 297 168 467t494 170q299 0 462.5-165T1378 713V602H379q0-180 91.5-281.5T754 219q142 0 217 55.5t90 141.5l2 30h305l-2-16q-24-204-180.5-327T752-20q-327 0-494.5 170.5T90 621zm293 182h707v37q-19 133-108.5 202.5T741 1112q-162 0-250-81T383 803z"/><glyph glyph-name="Ygrave" unicode="Ỳ" horiz-adv-x="1587" d="M651 0v596L-4 1704h332l467-821 467 821h329L938 596V0H651zM287 1976l20 80 989-151-20-80z"/><glyph glyph-name="ygrave" unicode="ỳ" d="M1063-8v227Q909-20 618-20q-225 0-354 145T135 522v809h277V553q0-336 309-336 69 0 124.5 17t92 46 62 64 39 76.5 19 77 5.5 71.5v762h278V-10q0-465-415-465H170v239h715q92 0 135 51.5T1063-8zM240 1604l20 79 989-151-20-80z"/><glyph glyph-name="uni1EF8" unicode="Ỹ" horiz-adv-x="1587" d="M651 0v596L-4 1704h332l467-821 467 821h329L938 596V0H651zM344 1835q0 105 64.5 167t183.5 62q58 0 103.5-16t76-39 59-45.5 67-38.5 85.5-16q76 0 115 37t39 102h102q0-108-66.5-168.5T983 1819q-61 0-109.5 16t-79.5 38.5-59 45.5-64 39-79 16q-72 0-109-39t-37-100H344z"/><glyph glyph-name="uni1EF9" unicode="ỹ" d="M1063-8v227Q909-20 618-20q-225 0-354 145T135 522v809h277V553q0-336 309-336 69 0 124.5 17t92 46 62 64 39 76.5 19 77 5.5 71.5v762h278V-10q0-465-415-465H170v239h715q92 0 135 51.5T1063-8zM297 1462q0 105 64.5 167.5T545 1692q58 0 103.5-16t76-39 59-46 67-39 85.5-16q76 0 115 37t39 102h102q0-108-66.5-168.5T936 1446q-61 0-109.5 16t-79.5 39-59 46-64 39-79 16q-71 0-108.5-39.5T399 1462H297z"/><glyph glyph-name="uni2000" horiz-adv-x="1024"/><glyph glyph-name="uni2001" horiz-adv-x="2048"/><glyph glyph-name="uni2002" horiz-adv-x="1024"/><glyph glyph-name="uni2003" horiz-adv-x="2048"/><glyph glyph-name="uni2004" horiz-adv-x="681"/><glyph glyph-name="uni2005" horiz-adv-x="512"/><glyph glyph-name="uni2006" horiz-adv-x="342"/><glyph glyph-name="uni2007" horiz-adv-x="1746"/><glyph glyph-name="uni2008" horiz-adv-x="530"/><glyph glyph-name="uni2009" horiz-adv-x="256"/><glyph glyph-name="uni200A" horiz-adv-x="86"/><glyph glyph-name="uni200B" unicode="​" horiz-adv-x="0"/><glyph glyph-name="endash" unicode="–" horiz-adv-x="1857" d="M96 723h1663v-90H96v90z"/><glyph glyph-name="emdash" unicode="—" horiz-adv-x="3061" d="M96 723h2867v-92H96v92z"/><glyph glyph-name="quoteleft" unicode="‘" horiz-adv-x="419" d="M236 1212H88l131 512h127z"/><glyph glyph-name="quoteright" unicode="’" horiz-adv-x="415" d="M205 1724h147l-131-512H94z"/><glyph glyph-name="quotesinglbase" unicode="‚" horiz-adv-x="415" d="M158 268h147L174-244H47z"/><glyph glyph-name="quotedblleft" unicode="“" horiz-adv-x="657" d="M475 1212H328l131 512h127zm-387 0l131 512h127l-110-512H88z"/><glyph glyph-name="quotedblright" unicode="”" horiz-adv-x="653" d="M205 1724h147l-131-512H94zm127-512l110 512h148l-131-512H332z"/><glyph glyph-name="quotedblbase" unicode="„" horiz-adv-x="655" d="M158 268h147L174-244H47zm129-512l110 512h148L414-244H287z"/><glyph glyph-name="dagger" unicode="†" horiz-adv-x="591" d="M246 659v629H129v96h117v320h102v-320h117v-96H348V659H246z"/><glyph glyph-name="daggerdbl" unicode="‡" horiz-adv-x="624" d="M262 659v299H145v97h117v233H145v96h117v320h103v-320h116v-96H365v-233h116v-97H365V659H262z"/><glyph glyph-name="bullet" unicode="•" horiz-adv-x="917" d="M459 416q-121 0-202 76t-81 200q0 129 81 208t202 79q120 0 200-79t80-208q0-124-80-200t-200-76z"/><glyph glyph-name="ellipsis" unicode="…" horiz-adv-x="1404" d="M266-20q-71 0-118.5 44.5T100 141q0 75 47.5 121.5T266 309q69 0 116.5-46.5T430 141q0-72-47.5-116.5T266-20zm279 161q0 75 47.5 121.5T711 309q69 0 116-46.5T874 141q0-72-47-116.5T711-20q-71 0-118.5 44.5T545 141zm430 0q0 75 47.5 121.5T1141 309q69 0 116.5-46.5T1305 141q0-72-47.5-116.5T1141-20q-71 0-118.5 44.5T975 141z"/><glyph glyph-name="uni202F" horiz-adv-x="444"/><glyph glyph-name="perthousand" unicode="‰" horiz-adv-x="2791" d="M2359-20q-89 0-163.5 34T2073 104t-74.5 127-26.5 146q0 102 44.5 190.5T2151 714t208 58q119 0 209.5-58t135-146.5T2748 377t-44.5-191-135-147.5T2359-20zM51 1327q0 75 26.5 146t74.5 127 122.5 90 163.5 34q119 0 209.5-58.5t135-147.5 44.5-191-44.5-190.5-135-146.5T438 932q-118 0-208 58T95.5 1136.5 51 1327zm215 0q0-87 48-138.5t124-51.5q77 0 125.5 51.5T612 1327q0 88-48.5 140.5T438 1520q-76 0-124-52.5T266 1327zM301 0l1159 1704h150L451 0H301zm786 377q0 102 45 190.5T1268 714t209 58 208.5-58T1821 567.5t45-190.5-45-191-135.5-147.5T1477-20t-209 58.5T1132 186t-45 191zm218 0q0-88 48-140.5t124-52.5 124 52.5 48 140.5q0 87-48 138.5T1477 567t-124-51.5-48-138.5zm882 0q0-88 48-140.5t124-52.5q77 0 125.5 52.5T2533 377q0 87-48.5 138.5T2359 567q-76 0-124-51.5T2187 377z"/><glyph glyph-name="second" unicode="″" horiz-adv-x="669" d="M131 1704h145v-512H131v512zm262-512v512h146v-512H393z"/><glyph glyph-name="guilsinglleft" unicode="‹" horiz-adv-x="757" d="M598 268L96 633v86l502 364V922L246 676l352-246V268z"/><glyph glyph-name="guilsinglright" unicode="›" horiz-adv-x="757" d="M158 268v162l352 246-352 246v161l501-364v-86z"/><glyph glyph-name="fraction" unicode="⁄" horiz-adv-x="229" d="M745 1704L-408 0h-114L631 1704h114z"/><glyph glyph-name="uni205F" horiz-adv-x="454"/><glyph glyph-name="uni2070" unicode="⁰" horiz-adv-x="901" d="M451 698q-180 0-281.5 107.5T68 1100v71q0 187 101 293.5T451 1571q182 0 283.5-106.5T836 1171v-71q0-188-102-295T451 698zm-201 392q0-51 8-84l324 364q-46 43-131 43-100 0-150.5-61.5T250 1182v-92zm72-193q50-41 129-41 100 0 150 61.5t50 172.5v92q0 45-8 78z"/><glyph glyph-name="uni2074" unicode="⁴" horiz-adv-x="849" d="M688 1561v-547h105V854H688V709H508v145H41v164l469 543h178zm-469-547h289v321z"/><glyph glyph-name="uni2075" unicode="⁵" horiz-adv-x="868" d="M496 1280q145 0 227-69.5t82-209.5v-18q-3-285-367-285-183 0-276.5 72T68 979v6h184v-14q0-115 188-115 95 0 138 29t43 90v33q0 122-183 122-119 0-190-71H78l35 502h653v-158H274l-20-205q97 82 242 82z"/><glyph glyph-name="uni2076" unicode="⁶" horiz-adv-x="880" d="M442 698q-188 0-278 83t-90 257v156q0 194 93.5 285.5T455 1571q165 0 250.5-62.5T791 1325v-4H608v4q0 39-38 60.5T459 1407q-201 0-201-141v-49q75 75 221 75 155 0 245.5-76t90.5-206v-23q0-143-94.5-216T442 698zM258 977q0-62 44.5-91.5T442 856q189 0 189 121v35q0 63-43 92t-139 29q-99 0-145-30.5t-46-92.5v-33z"/><glyph glyph-name="uni2077" unicode="⁷" horiz-adv-x="763" d="M31 1403v158h694v-158q-61-41-110.5-85.5t-84-90.5-60-87.5-41-91T404 963t-14-86.5-5.5-80T383 719v-10H201v10q0 62 2.5 108t12 114.5 31 125T302 1185t90 117.5T522 1403H31z"/><glyph glyph-name="uni2078" unicode="⁸" horiz-adv-x="878" d="M438 698Q68 698 68 948v10q0 85 36.5 140t98.5 73q-55 18-87 61.5T84 1343v9q0 106 91.5 162.5T444 1571q351 0 351-221v-7q0-66-31.5-110t-85.5-62q62-19 97.5-73.5T811 956v-8q0-250-373-250zM252 958q0-62 40-87t146-25q108 0 149.5 25t41.5 87v25q0 58-41 82.5T438 1090q-107 0-146.5-24T252 983v-25zm16 365q0-42 38-61t132-19q96 0 134 19t38 63v18q0 43-39 61.5T438 1423q-93 0-131.5-18.5T268 1341v-18z"/><glyph glyph-name="uni2079" unicode="⁹" horiz-adv-x="878" d="M436 1571q189 0 279-82.5t90-257.5v-156q0-193-93-285t-288-92q-164 0-249 62.5T90 944v4h182v-4q0-39 38.5-60.5T422 862q201 0 201 142v49q-76-76-224-76-155 0-245.5 76T63 1260v22q0 142 95 215.5t278 73.5zm-188-314q0-62 43.5-91t140.5-29q191 0 191 123v32q0 62-45 91.5T438 1413q-98 0-144-29.5t-46-91.5v-35z"/><glyph glyph-name="uni2080" unicode="₀" horiz-adv-x="901" d="M451-266q-181 0-282 107T68 135v72q0 187 101 293t282 106q182 0 283.5-106T836 207v-72q0-188-102-294.5T451-266zM250 125q0-51 8-84l324 365q-46 43-131 43-100 0-150.5-62T250 217v-92zm72-193q50-41 129-41 100 0 150 61.5T651 125v92q0 45-8 78z"/><glyph glyph-name="uni2081" unicode="₁" horiz-adv-x="706" d="M72-98h213v501q-98-45-215-45v166q74 0 130.5 14T301 596h164V-98h213v-158H72v158z"/><glyph glyph-name="uni2082" unicode="₂" horiz-adv-x="880" d="M72-86q0 241 254 289l137 22q90 18 127 43.5t37 77.5v6q0 97-174 97-103 0-146-34.5T264 311v-16H82v12q0 142 89.5 220.5T451 606q178 0 268-67.5T809 340q0-214-242-258L414 51q-57-11-89.5-24T277-6.5t-18-38-3-53.5h553v-158H72v170z"/><glyph glyph-name="uni2083" unicode="₃" horiz-adv-x="860" d="M424-266q-191 0-279 65.5T53 16v11h183V10q4-72 48-98.5T422-115q107 0 146.5 25T608-12V8q0 56-40 76t-140 20H311v146h117q89 0 128.5 22t39.5 72v18q0 93-174 93-85 0-125.5-27T252 338v-14H70v10q9 146 96.5 209T428 606q182 0 266-63t84-168v-6q0-68-34.5-120.5T645 178q69-13 107.5-64T791-8v-6q0-127-88.5-189.5T424-266z"/><glyph glyph-name="uni2084" unicode="₄" horiz-adv-x="847" d="M688 596V49h105v-160H688v-145H508v145H41V53l469 543h178zM219 49h289v322z"/><glyph glyph-name="uni2085" unicode="₅" horiz-adv-x="868" d="M496 315q145 0 227-69t82-209V18q-3-284-367-284-183 0-276.5 71.5T68 14v6h184V6q0-115 188-115 95 0 138 29t43 90v33q0 123-183 123-118 0-190-72H78l35 502h653V438H274l-20-205q97 82 242 82z"/><glyph glyph-name="uni2086" unicode="₆" horiz-adv-x="880" d="M442-266q-188 0-278 83T74 74v155q0 194 93.5 285.5T455 606q165 0 250.5-62.5T791 360v-4H608v4q0 39-38 60.5T459 442q-201 0-201-141v-49q76 76 221 76 155 0 245.5-76T815 45V23q0-143-94.5-216T442-266zM258 12q0-62 44.5-91.5T442-109q189 0 189 121v35q0 63-43 92t-139 29q-99 0-145-30.5T258 45V12z"/><glyph glyph-name="uni2087" unicode="₇" horiz-adv-x="759" d="M27 438v158h694V438q-61-41-110.5-85.5t-84-90.5-60-87.5-41-91T400-2t-14-86.5-5.5-80T379-246v-10H197v10q0 62 2.5 108t12 114.5 31 125T298 220t90 117.5T518 438H27z"/><glyph glyph-name="uni2088" unicode="₈" horiz-adv-x="878" d="M438-266Q68-266 68-16v10q0 85 36.5 140t98.5 73q-55 18-87 61.5T84 379v8q0 106 91.5 162.5T444 606q351 0 351-221v-6q0-66-31.5-110T678 207q62-19 97.5-73.5T811-8v-8q0-250-373-250zM252-6q0-62 40-87.5T438-119q107 0 149 25.5T629-6v24q0 58-41 82.5T438 125q-107 0-146.5-24T252 18V-6zm16 364q0-42 37.5-60.5T438 279q96 0 134 18.5t38 62.5v19q0 43-39 61.5T438 459q-93 0-131.5-18.5T268 377v-19z"/><glyph glyph-name="uni2089" unicode="₉" horiz-adv-x="880" d="M438 606q189 0 279-82.5T807 266V111q0-193-93-285t-288-92q-164 0-249 62.5T92-20v4h182v-4q0-39 38.5-60.5T424-102q201 0 201 141v49q-76-76-224-76-155 0-245 76T66 295v22q0 142 94.5 215.5T438 606zM250 293q0-62 43.5-91.5T434 172q191 0 191 123v33q0 62-45 91.5T440 449q-98 0-144-29.5T250 328v-35z"/><glyph glyph-name="Euro" unicode="€" horiz-adv-x="1847" d="M117 721v86h164v90H117v86h166q7 159 57 292.5T480.5 1510t230 157.5T1024 1724q130 0 241-33.5t192-93 140.5-141.5 91.5-179 40-206l4-74h-299l-2 93q-13 163-117 270.5T1026 1468q-112 0-198-38t-138-105.5-79.5-153T578 983h565v-86H578v-90h565v-86H578q5-105 32.5-190.5T690 378t137-104.5 197-37.5q97 0 174 30.5t125 84 75.5 120.5 33.5 145l2 95h299l-4-74q-10-139-59.5-257T1534 172 1316.5 31 1022-20q-173 0-311.5 56.5T482 193.5t-140.5 234T283 721H117z"/><glyph glyph-name="trademark" unicode="™" horiz-adv-x="1705" d="M739 874v830h183l221-590 225 590h180V874h-159v512l-193-512h-104l-193 508V874H739zM59 1542v162h625v-162H453V874H291v668H59z"/><glyph glyph-name="oneeighth" unicode="⅛" horiz-adv-x="2072" d="M92 1010h213v501q-98-45-215-45v166q74 0 131 14t101 58h163v-694h213V852H92v158zM334 0l1151 1704h114L446 0H334zm932 240v10q0 85 36.5 140t98.5 73q-55 18-87 61.5T1282 635v8q0 106 91.5 162.5T1642 862q351 0 351-221v-6q0-66-31.5-110t-85.5-62q62-19 97.5-73.5T2009 248v-8q0-250-373-250-370 0-370 250zm184 10q0-62 40-87.5t146-25.5q107 0 149 25.5t42 87.5v24q0 58-41 82.5T1636 381q-107 0-146.5-24t-39.5-83v-24zm16 364q0-42 37.5-60.5T1636 535q96 0 134 18.5t38 62.5v19q0 43-39 61.5T1636 715q-93 0-131.5-18.5T1466 633v-19z"/><glyph glyph-name="threeeighths" unicode="⅜" horiz-adv-x="2213" d="M438 842q-191 0-278.5 65.5T68 1124v11h182v-17q4-72 48-98.5T436 993q107 0 147 25t40 78v20q0 56-40.5 76T442 1212H326v146h116q89 0 128.5 22t39.5 72v18q0 93-174 93-85 0-125.5-27t-44.5-90v-14H84v10q9 146 96.5 209t261.5 63q182 0 266.5-63t84.5-168v-6q0-68-35-120.5t-99-70.5q69-13 107.5-64t38.5-122v-6q0-127-88.5-189.5T438 842zM469 0l1153 1704h113L582 0H469zm934 240v10q0 85 36.5 140t98.5 73q-55 18-87 61.5T1419 635v8q0 106 92 162.5t269 56.5q350 0 350-221v-6q0-66-31.5-110t-85.5-62q62-19 97.5-73.5T2146 248v-8q0-250-372-250-371 0-371 250zm184 10q0-62 40.5-87.5T1774 137q107 0 148.5 25.5T1964 250v24q0 58-40.5 82.5T1774 381q-108 0-147.5-24t-39.5-83v-24zm17 364q0-42 37.5-60.5T1774 535q96 0 134 18.5t38 62.5v19q0 43-39 61.5T1774 715q-93 0-131.5-18.5T1604 633v-19z"/><glyph glyph-name="fiveeighths" unicode="⅝" horiz-adv-x="2197" d="M492 1423q145 0 227-69t82-209v-19q-3-284-367-284-184 0-277.5 71.5T63 1122v6h185v-14q0-115 188-115 95 0 137.5 29t42.5 90v33q0 123-182 123-118 0-190-72H74l35 502h653v-158H270l-20-205q97 82 242 82zM457 0l1153 1704h112L569 0H457zm934 240v10q0 85 36.5 140t98.5 73q-55 18-87 61.5T1407 635v8q0 106 91.5 162.5T1767 862q351 0 351-221v-6q0-66-31.5-110t-85.5-62q62-19 97.5-73.5T2134 248v-8q0-250-373-250-370 0-370 250zm184 10q0-62 40-87.5t146-25.5q107 0 149 25.5t42 87.5v24q0 58-41 82.5T1761 381q-107 0-146.5-24t-39.5-83v-24zm16 364q0-42 37.5-60.5T1761 535q96 0 134 18.5t38 62.5v19q0 43-39 61.5T1761 715q-93 0-131.5-18.5T1591 633v-19z"/><glyph glyph-name="seveneighths" unicode="⅞" horiz-adv-x="2109" d="M37 1546v158h694v-158q-61-41-110.5-85.5t-84-90.5-60-87.5-41-91T410 1106t-14-86.5-5.5-80T389 862v-10H207v10q0 62 2.5 108t12 114.5 31 125T308 1328t90 117.5T528 1546H37zM365 0l1153 1704h112L477 0H365zm931 240v10q0 85 37 140t99 73q-55 18-87 61.5T1313 635v8q0 106 91.5 162.5T1673 862q350 0 350-221v-6q0-66-31.5-110t-84.5-62q62-19 97.5-73.5T2040 248v-8q0-250-373-250-371 0-371 250zm185 10q0-62 40-87.5t146-25.5q107 0 149 25.5t42 87.5v24q0 58-41 82.5T1667 381q-107 0-146.5-24t-39.5-83v-24zm16 364q0-42 37.5-60.5T1667 535q96 0 134 18.5t38 62.5v19q0 43-39 61.5T1667 715q-93 0-131.5-18.5T1497 633v-19z"/><glyph glyph-name="arrowleft" unicode="←" horiz-adv-x="1378" d="M285 631q121-42 208-144t119-243H502q-10 66-50.5 130T354 487.5 231.5 574 100 631v90q66 20 131.5 57T354 864.5 451.5 978t50.5 130h110q-32-141-119-243T285 721h991v-90H285z"/><glyph glyph-name="arrowup" unicode="↑" horiz-adv-x="1032" d="M561 29h-90v991q-42-121-144-208.5T84 692v111q88 14 170 78.5t136.5 149T471 1204h90q26-89 80.5-173.5t136.5-149T948 803V692q-141 32-243 119.5T561 1020V29z"/><glyph glyph-name="arrowright" unicode="→" horiz-adv-x="1378" d="M102 631v90h992q-121 42-208.5 144T766 1108h111q14-88 78.5-170t149-136.5T1278 721v-90q-89-26-173.5-80.5T955.5 414 877 244H766q32 141 119.5 243T1094 631H102z"/><glyph glyph-name="arrowdown" unicode="↓" horiz-adv-x="1030" d="M469 1325h90V334q42 121 144 208.5T946 662V551q-88-14-170-78.5t-136.5-149T559 150h-90q-26 89-80.5 173.5T252 472.5 82 551v111q141-32 243-119.5T469 334v991z"/><glyph glyph-name="arrowboth" unicode="↔" horiz-adv-x="1781" d="M98 725q140 40 260.5 147.5T500 1110h112q-32-141-120-243T283 725h1216q-121 40-209.5 142T1169 1110h113q21-130 141-237.5T1683 725v-94q-140-40-260-147.5T1282 246h-113q32 141 120.5 243T1499 631H283q121-40 209-142t120-243H500q-21 130-141.5 237.5T98 631v94z"/><glyph glyph-name="arrowupdn" unicode="↕" horiz-adv-x="1046" d="M571 1450q40-140 147.5-260T956 1049V936q-141 32-243 120.5T571 1266V49q40 121 142 209.5T956 379V266q-130-21-237.5-141T571-135h-94Q437 5 329.5 125T92 266v113q141-32 243-120.5T477 49v1217q-40-121-142-209.5T92 936v113q130 21 237.5 141T477 1450h94z"/><glyph glyph-name="uni2196" unicode="↖" horiz-adv-x="1081" d="M1010 324l-64-64-700 701q56-113 45.5-247.5T205 455l-80 80q53 71 65.5 174.5t-9 202T115 1092l65 63q82-45 180-66.5t201.5-9T737 1145l78-78q-124-77-258.5-88T309 1024z"/><glyph glyph-name="uni2197" unicode="↗" horiz-adv-x="1081" d="M135 260l-63 64 700 700q-113-56-247.5-45T268 1067l78 78q71-53 174.5-65.5t202 9T903 1155l64-63q-45-82-66.5-180T891 710t65-175l-77-80q-77 124-88 258.5T836 961z"/><glyph glyph-name="uni2198" unicode="↘" horiz-adv-x="1079" d="M68 1110l63 64 703-703q-56 114-46.5 249.5T874 977l78-78q-52-72-63.5-176t9.5-201.5T963 342l-64-63q-82 44-180 65t-201.5 9T342 289l-78 78q122 77 257 87t249-46z"/><glyph glyph-name="uni2199" unicode="↙" horiz-adv-x="1079" d="M946 1174l64-64-701-700q113 56 247.5 45T815 367l-78-78q-72 53-176 65.5t-202-9T178 279l-63 63q45 82 66.5 180.5t9 202T125 899l78 80q77-124 88-258.5T246 473z"/><glyph glyph-name="uni21E7" unicode="⇧" horiz-adv-x="1763" d="M512-14v604H86l795 883 794-883h-426V-14H512zM315 692h299V88h533v604h299l-565 629z"/><glyph glyph-name="partialdiff" unicode="∂" horiz-adv-x="1554" d="M760-268Q57-268 57 272q0 57 7.5 107.5t27.5 105 52.5 98.5 86.5 85 125.5 68.5 173 44T754 797q424 0 575-199-30 141-100.5 253.5T1033 1061t-317 170.5T262 1356l35 90q315-61 536.5-157t360-234.5T1395 742t63-400q0-150-35.5-259.5t-115-190-216-120.5T760-268zM160 272q0-109 32-189.5t102-139 186.5-88T760-174q171 0 289.5 33T1234-43t94 148.5 28 197.5q0 109-40.5 186.5t-120 124T1008 681t-252 21q-145 0-252.5-22.5t-172-60-104-94.5T174 408t-14-136z"/><glyph glyph-name="emptyset" unicode="∅" horiz-adv-x="1830" d="M913 291q-164 0-307 26L389 0H274l236 344q-105 32-182.5 84t-123 118.5T138 687t-21 159q0 92 25 171.5t83.5 150.5T374 1289t227 79 312 29q170 0 299-27l228 334h114l-243-356q211-63 307-194t96-308q0-94-25-174t-84-151.5T1455.5 399 1227 320t-314-29zM223 846q0-325 342-420l588 858q-112 16-240 16-690 0-690-454zm443-440q114-19 247-19 695 0 695 459 0 325-355 418z"/><glyph glyph-name="product" unicode="∏" horiz-adv-x="1570" d="M1102-225v1552H469V-225H367v1552H31v90h1511v-90h-338V-225h-102z"/><glyph glyph-name="summation" unicode="∑" horiz-adv-x="1458" d="M63-236v89l680 739-680 743v88h1332v-88H190l680-741-680-741h1205v-89H63z"/><glyph glyph-name="minus" unicode="−" horiz-adv-x="1746" d="M117 895h1511v-90H117v90z"/><glyph glyph-name="radical" unicode="√" horiz-adv-x="1626" d="M543-225L88 508h113l391-635 596 1540h383v-88h-311L659-225H543z"/><glyph glyph-name="infinity" unicode="∞" horiz-adv-x="1783" d="M1335 393q-73 0-136.5 17T1079 461.5t-95.5 67T891 612q-42-41-72-67t-75-58-86-50.5-95.5-31T449 393q-67 0-125 16.5T219 459t-73.5 88.5T119 676q0 76 28 132.5t76.5 88 105 46.5T449 958q73 0 136.5-17t119-51.5 95.5-67 91-83.5q42 41 72 67t75 58 86 50.5 95.5 31T1333 958q65 0 121.5-15t104.5-46.5 76-88 28-132.5q0-73-26.5-128.5T1564 459t-104-49.5-125-16.5zM221 678q0-96 59.5-142.5T444 489q114 0 200.5 48T825 676q-95 90-181.5 138T444 862q-111 0-167-48.5T221 678zm737-2q96-91 181.5-139t199.5-48q104 0 163 47.5t59 141.5q0 86-56 135t-168 49q-60 0-113-14t-101-43-83.5-57.5T958 676z"/><glyph glyph-name="integral" unicode="∫" horiz-adv-x="966" d="M33-268v88h69q194 0 263 72t69 264v860q0 229 95.5 329.5T852 1446h86v-88h-70q-100 0-162.5-16.5t-101-57.5-53-103-14.5-161V160q0-228-95-328T119-268H33z"/><glyph glyph-name="approxequal" unicode="≈" horiz-adv-x="1820" d="M145 905q0 72 22.5 129t59.5 93 88 59.5 103 33 110 9.5q93 0 180.5-25.5T865 1141t136.5-74 147-62.5T1309 979q125 0 199.5 57t74.5 164h107q0-72-22.5-129t-59.5-93-88-59-103-32.5-110-9.5q-93 0-180.5 25.5t-156.5 62-136.5 73.5-147 62.5T526 1126q-125 0-199.5-57T252 905H145zm0-409q0 72 22.5 129t59.5 93 88 59 103 32.5 110 9.5q93 0 180.5-25.5T865 731t136.5-74 147-62.5T1309 569q125 0 199.5 57.5T1583 791h107q0-72-22.5-129t-59.5-93-88-59.5-103-33-110-9.5q-93 0-180.5 25.5T970 555t-136.5 74-147 62.5T526 717q-125 0-199.5-57T252 496H145z"/><glyph glyph-name="notequal" unicode="≠" horiz-adv-x="1755" d="M528 334l201 321H121v90h665l134 213H121v91h856l199 317h108l-199-317h547v-91h-604L895 745h737v-90H838L637 334H528z"/><glyph glyph-name="lessequal" unicode="≤" horiz-adv-x="1804" d="M143 922l1512 325v-102L373 881l1282-265V457H143v90h1360L143 840v82z"/><glyph glyph-name="greaterequal" unicode="≥" horiz-adv-x="1804" d="M152 616l1280 265-1280 264v102l1511-325v-82L303 547h1360v-90H152v159z"/><glyph glyph-name="uni2317" unicode="⌗" horiz-adv-x="1529" d="M100 887v102h394v393h102V989h340v393h102V989h394V887h-394V547h394V444h-394V51H936v393H596V51H494v393H100v103h394v340H100zm496-340h340v340H596V547z"/><glyph glyph-name="uni2318" unicode="⌘" horiz-adv-x="1642" d="M391 14q-124 0-198 74t-74 199q0 134 91.5 208T481 569h90v295h-90q-178 0-270 74.5T119 1147q0 125 73.5 198.5T391 1419q134 0 208.5-92t74.5-270v-90h295v90q0 179 74 270.5t208 91.5q125 0 199-74t74-198q0-134-92-208.5T1161 864h-90V569h90q179 0 271-74t92-208q0-125-74-199t-199-74q-134 0-208 92t-74 271v90H674v-90q0-179-74.5-271T391 14zM221 287q0-88 41-129t129-41q95 0 137.5 59T571 377v90h-90q-142 0-201-42.5T221 287zm0 860q0-95 59-137.5T481 967h90v90q0 142-42.5 201T391 1317q-88 0-129-41t-41-129zm453-578h295v295H674V569zm397-192q0-142 42.5-201t137.5-59q88 0 129 41t41 129q0 95-59 137.5T1161 467h-90v-90zm0 590h90q142 0 201 42.5t59 137.5q0 88-41 129t-129 41q-95 0-137.5-59t-42.5-201v-90z"/><glyph glyph-name="uni2325" unicode="⌥" horiz-adv-x="1611" d="M860 115L371 1217H37v102h399L928 217h540V115H860zm-88 1102v102h696v-102H772z"/><glyph glyph-name="filledbox" unicode="■" horiz-adv-x="1454" d="M168 158v1118h1118V158H168z"/><glyph glyph-name="uni25A1" unicode="□" horiz-adv-x="1454" d="M168 158v1118h1118V158H168zm102 102h914v914H270V260z"/><glyph glyph-name="triagup" unicode="▲" horiz-adv-x="1437" d="M37 31l682 1179L1399 31H37z"/><glyph glyph-name="uni25B3" unicode="△" horiz-adv-x="1495" d="M37 31l711 1231L1458 31H37zm176 102h1067l-532 924z"/><glyph glyph-name="uni25B6" unicode="▶" horiz-adv-x="1456" d="M186 1393l1180-680L186 31v1362z"/><glyph glyph-name="uni25B7" unicode="▷" horiz-adv-x="1509" d="M186-6v1421l1231-710zm103 176l923 535-923 532V170z"/><glyph glyph-name="triagdn" unicode="▼" horiz-adv-x="1460" d="M1411 1210L729 31 49 1210h1362z"/><glyph glyph-name="uni25BD" unicode="▽" horiz-adv-x="1517" d="M760-20L49 1210h1421zM227 1108l533-924 534 924H227z"/><glyph glyph-name="uni25C0" unicode="◀" horiz-adv-x="1456" d="M1270 31L90 713l1180 680V31z"/><glyph glyph-name="uni25C1" unicode="◁" horiz-adv-x="1509" d="M1323-6L92 705l1231 710V-6zM297 705l924-535v1067z"/><glyph glyph-name="uni25C6" unicode="◆" horiz-adv-x="1531" d="M766 51L98 717l668 667 666-667z"/><glyph glyph-name="uni25C7" unicode="◇" horiz-adv-x="1572" d="M784 29L98 717l688 688 687-688zM242 717l544-543 543 543-545 543z"/><glyph glyph-name="lozenge" unicode="◊" horiz-adv-x="1114" d="M483 1280h148l381-614L631 51H483L102 666zM213 666l344-555 344 555-344 555z"/><glyph glyph-name="circle" unicode="○" horiz-adv-x="1478" d="M739 92q-127 0-243 49.5T296.5 275 164 474.5 115 717t49 242.5 132.5 199 199.5 133 243 49.5q169 0 312.5-83.5t227-227.5 83.5-313-83.5-313-227-228T739 92zM217 717q0-221 150.5-370.5T739 197q145 0 264.5 68t188 187.5T1260 717t-68.5 264.5-188 187.5-264.5 68q-221 0-371.5-149.5T217 717z"/><glyph glyph-name="uni25CF" unicode="●" horiz-adv-x="1480" d="M741 94q-127 0-243 49.5t-199.5 133T166 475t-49 242 49 242.5 132.5 199 199.5 133 243 49.5q169 0 312.5-83.5t227-227.5 83.5-313-83.5-312.5-227-227T741 94z"/><glyph glyph-name="uni2B1B" unicode="⬛" horiz-adv-x="2177" d="M229-143v1720h1721V-143H229z"/><glyph glyph-name="uni2B1C" unicode="⬜" horiz-adv-x="2177" d="M229-143v1720h1721V-143H229zM332-41h1515v1516H332V-41z"/><glyph glyph-name="uni2B98" unicode="⮘" horiz-adv-x="1497" d="M1389-39L100 705l1289 743-322-743zM305 705h649l217 499z"/><glyph glyph-name="uni2B99" unicode="⮙" horiz-adv-x="1542" d="M27-27l743 1289L1513-27 770 295zm743 435l500-218-500 867V408z"/><glyph glyph-name="uni2B9A" unicode="⮚" horiz-adv-x="1497" d="M109-39l321 744-321 743 1288-743zm217 1243l217-499h649z"/><glyph glyph-name="uni2B9B" unicode="⮛" horiz-adv-x="1542" d="M772-20L29 1268l743-322 744 322zM272 1051l500-867v650z"/><glyph glyph-name="uni2B9C" unicode="⮜" horiz-adv-x="1396" d="M1278 31L98 713l1180 680-295-680z"/><glyph glyph-name="uni2B9D" unicode="⮝" horiz-adv-x="1427" d="M33 31l682 1179L1395 31 715 326z"/><glyph glyph-name="uni2B9E" unicode="⮞" horiz-adv-x="1396" d="M119 31l295 682-295 680 1179-680z"/><glyph glyph-name="uni2B9F" unicode="⮟" horiz-adv-x="1429" d="M713 31L33 1210l680-295 682 295z"/><glyph glyph-name="uni3000" horiz-adv-x="2048"/><glyph glyph-name="uni004A0301" horiz-adv-x="1554" d="M725-20q-353 0-514.5 165.5T49 657v23h297v-43q0-81 10.5-142T393 383t68.5-83T570 250.5 725 233q108 0 182.5 25t117 76.5 61 120.5 18.5 166v1083h291V639q0-333-161.5-496T725-20zm57 1957l891 152 19-80-891-151z"/><glyph glyph-name="I.bracket" horiz-adv-x="667" d="M190 0v1704h289V0H190z"/><glyph glyph-name="A.ss01" horiz-adv-x="1112" d="M41 0l315 1704h398L1071 0H774l-45 297H383L338 0H41zm379 543h272l-129 858-8 33-8-33z"/><glyph glyph-name="Aacute.ss01" horiz-adv-x="1112" d="M41 0l315 1704h398L1071 0H774l-45 297H383L338 0H41zm170 1905l670 151 20-80-670-149zM420 543h272l-129 858-8 33-8-33z"/><glyph glyph-name="Abreve.ss01" horiz-adv-x="1112" d="M41 0l315 1704h398L1071 0H774l-45 297H383L338 0H41zm182 2058h103q0-55 37-89.5t86-46 110-11.5q44 0 82 7t72 22.5 53.5 45.5 19.5 72h103q0-231-330-231-70 0-127.5 11t-106 36.5-75.5 72-27 111.5zM420 543h272l-129 858-8 33-8-33z"/><glyph glyph-name="Acircumflex.ss01" horiz-adv-x="1112" d="M41 0l315 1704h398L1071 0H774l-45 297H383L338 0H41zm184 1819l260 237h144l256-237H741l-184 174-188-174H225zM420 543h272l-129 858-8 33-8-33z"/><glyph glyph-name="Adieresis.ss01" horiz-adv-x="1112" d="M41 0l315 1704h398L1071 0H774l-45 297H383L338 0H41zm223 1923q0 48 30 76.5t73 28.5q42 0 72-28.5t30-76.5q0-43-30.5-71.5T367 1823q-42 0-72.5 28.5T264 1923zM420 543h272l-129 858-8 33-8-33zm225 1380q0 48 30 76.5t73 28.5q42 0 72-28.5t30-76.5q0-43-30.5-71.5T748 1823q-42 0-72.5 28.5T645 1923z"/><glyph glyph-name="Agrave.ss01" horiz-adv-x="1112" d="M41 0l315 1704h398L1071 0H774l-45 297H383L338 0H41zm170 1976l20 80 670-151-20-78zM420 543h272l-129 858-8 33-8-33z"/><glyph glyph-name="Amacron.ss01" horiz-adv-x="1112" d="M41 0l315 1704h398L1071 0H774l-45 297H383L338 0H41zm170 1901v81h690v-81H211zM420 543h272l-129 858-8 33-8-33z"/><glyph glyph-name="Aogonek.ss01" horiz-adv-x="1112" d="M41 0l315 1704h398L1071 0h-2Q842-66 842-186q0-62 54.5-88.5T1083-301h15l-82-109h-12q-130 0-208.5 47T717-229Q717-69 967 0H774l-45 297H383L338 0H41zm379 543h272l-129 858-8 33-8-33z"/><glyph glyph-name="Aring.ss01" horiz-adv-x="1112" d="M41 0l315 1704h398L1071 0H774l-45 297H383L338 0H41zm350 1962q0 71 49.5 118.5T557 2128t116.5-47.5T723 1962t-49.5-118.5T557 1796t-116.5 47.5T391 1962zm29-1419h272l-129 858-8 33-8-33zm63 1419q0-33 20.5-53.5T557 1888t53.5 20.5T631 1962t-20.5 53.5T557 2036t-53.5-20.5T483 1962z"/><glyph glyph-name="Atilde.ss01" horiz-adv-x="1112" d="M41 0l315 1704h398L1071 0H774l-45 297H383L338 0H41zm184 1847q0 113 52 162t133 49q47 0 83.5-15.5t59.5-37 43-43.5 45-37.5 55-15.5q88 0 88 127h103q0-114-53-162.5T700 1825q-48 0-85.5 15.5t-60 37.5-42 43.5-43.5 37-53 15.5q-88 0-88-127H225zM420 543h272l-129 858-8 33-8-33z"/><glyph glyph-name="B.ss01" horiz-adv-x="1148" d="M117 0v1704h506q424 0 424-418v-53q0-255-201-332 225-88 225-375v-55q0-241-101.5-356T635 0H117zm286 246h197q102 0 139 38.5T776 428v145q0 101-41 144t-135 43H403V246zm0 760h189q83 0 121.5 36.5T752 1174v122q0 97-36 129.5T592 1458H403v-452z"/><glyph glyph-name="C.ss01" horiz-adv-x="1167" d="M594-20q-247 0-374.5 147T92 541v624q0 267 127.5 413T594 1724q237 0 361.5-136t129.5-388l2-194H791v272q-4 107-52.5 157T594 1485q-105 0-156-59.5T387 1241V463q0-125 51-184.5T594 219q95 0 144 50t53 157v272h296l-2-194q-5-250-129-387T594-20z"/><glyph glyph-name="Cacute.ss01" horiz-adv-x="1167" d="M594-20q-247 0-374.5 147T92 541v624q0 267 127.5 413T594 1724q237 0 361.5-136t129.5-388l2-194H791v272q-4 107-52.5 157T594 1485q-105 0-156-59.5T387 1241V463q0-125 51-184.5T594 219q95 0 144 50t53 157v272h296l-2-194q-5-250-129-387T594-20zM244 1905l669 151 21-80-670-149z"/><glyph glyph-name="Ccaron.ss01" horiz-adv-x="1167" d="M594-20q-247 0-374.5 147T92 541v624q0 267 127.5 413T594 1724q237 0 361.5-136t129.5-388l2-194H791v272q-4 107-52.5 157T594 1485q-105 0-156-59.5T387 1241V463q0-125 51-184.5T594 219q95 0 144 50t53 157v272h296l-2-194q-5-250-129-387T594-20zM260 2064h143l189-176 184 176h144l-256-237H520z"/><glyph glyph-name="Ccedilla.ss01" horiz-adv-x="1167" d="M453-332q140 0 197 13.5t57 58.5q0 48-57 57t-163-8l48 193Q317 0 204.5 145.5T92 541v624q0 267 127.5 413T594 1724q237 0 361.5-136t129.5-388l2-194H791v272q-4 107-52.5 157T594 1485q-105 0-156-59.5T387 1241V463q0-125 51-184.5T594 219q95 0 144 50t53 157v272h296l-2-194q-5-238-118-374T637-18l-27-105q105 10 163-19t58-112q0-95-88-132.5T453-424v92z"/><glyph glyph-name="Cdotaccent.ss01" horiz-adv-x="1167" d="M594-20q-247 0-374.5 147T92 541v624q0 267 127.5 413T594 1724q237 0 361.5-136t129.5-388l2-194H791v272q-4 107-52.5 157T594 1485q-105 0-156-59.5T387 1241V463q0-125 51-184.5T594 219q95 0 144 50t53 157v272h296l-2-194q-5-250-129-387T594-20zM444 1931q0 55 38.5 91t107.5 36q70 0 107.5-36t37.5-91q0-54-37.5-88.5T590 1808q-69 0-107.5 35t-38.5 88z"/><glyph glyph-name="D.ss01" horiz-adv-x="1173" d="M117 0v1704h444q278 0 398-118.5t120-409.5V528q0-288-121.5-408T561 0H117zm286 227h160q121 0 171 56.5T784 481v742q0 143-50.5 198.5T561 1477H403V227z"/><glyph glyph-name="Eth.ss01" horiz-adv-x="1251" d="M193 0v762H45v141h148v801h444q278 0 398-118.5t120-409.5V528q0-288-121.5-408T637 0H193zm286 227h160q121 0 171 56.5T860 481v742q0 143-50.5 198.5T637 1477H479V903h232V762H479V227z"/><glyph glyph-name="Dcaron.ss01" horiz-adv-x="1173" d="M117 0v1704h444q278 0 398-118.5t120-409.5V528q0-288-121.5-408T561 0H117zm141 2064h143l189-176 184 176h144l-256-237H518zM403 227h160q121 0 171 56.5T784 481v742q0 143-50.5 198.5T561 1477H403V227z"/><glyph glyph-name="Dcroat.ss01" horiz-adv-x="1251" d="M193 0v762H45v141h148v801h444q278 0 398-118.5t120-409.5V528q0-288-121.5-408T637 0H193zm286 227h160q121 0 171 56.5T860 481v742q0 143-50.5 198.5T637 1477H479V903h232V762H479V227z"/><glyph glyph-name="E.ss01" horiz-adv-x="974" d="M117 0v1704h776v-244H403V973h459V731H403V244h490V0H117z"/><glyph glyph-name="Eacute.ss01" horiz-adv-x="974" d="M117 0v1704h776v-244H403V973h459V731H403V244h490V0H117zm28 1905l670 151 21-80-670-149z"/><glyph glyph-name="Ecaron.ss01" horiz-adv-x="974" d="M117 0v1704h776v-244H403V973h459V731H403V244h490V0H117zm45 2064h143l189-176 184 176h143l-256-237H422z"/><glyph glyph-name="Ecircumflex.ss01" horiz-adv-x="974" d="M117 0v1704h776v-244H403V973h459V731H403V244h490V0H117zm45 1819l260 237h143l256-237H678l-184 174-189-174H162z"/><glyph glyph-name="Edieresis.ss01" horiz-adv-x="974" d="M117 0v1704h776v-244H403V973h459V731H403V244h490V0H117zm82 1923q0 48 29.5 76.5T301 2028q42 0 72-28.5t30-76.5q0-43-30.5-71.5T301 1823q-42 0-72 28.5t-30 71.5zm381 0q0 48 29.5 76.5T682 2028q42 0 72-28.5t30-76.5q0-43-30.5-71.5T682 1823q-42 0-72 28.5t-30 71.5z"/><glyph glyph-name="Edotaccent.ss01" horiz-adv-x="974" d="M117 0v1704h776v-244H403V973h459V731H403V244h490V0H117zm229 1931q0 55 38.5 91t107.5 36q70 0 107.5-36t37.5-91q0-54-37.5-88.5T492 1808q-69 0-107.5 35t-38.5 88z"/><glyph glyph-name="Egrave.ss01" horiz-adv-x="974" d="M117 0v1704h776v-244H403V973h459V731H403V244h490V0H117zm28 1976l21 80 670-151-21-78z"/><glyph glyph-name="Emacron.ss01" horiz-adv-x="974" d="M117 0v1704h776v-244H403V973h459V731H403V244h490V0H117zm28 1901v81h691v-81H145z"/><glyph glyph-name="Eogonek.ss01" horiz-adv-x="974" d="M117 0v1704h776v-244H403V973h459V731H403V244h490V0h-2Q664-66 664-186q0-62 54.5-88.5T905-301h15l-82-109h-13q-130 0-208 47t-78 134Q539-69 788 0H117z"/><glyph glyph-name="F.ss01" horiz-adv-x="964" d="M117 0v1704h784v-244H403V897h480V653H403V0H117z"/><glyph glyph-name="G.ss01" horiz-adv-x="1185" d="M555-20q-217 0-340 146T92 526v639q0 267 126.5 413T592 1724q234 0 360-135t131-383v-166H788v244q-8 201-194 201-106 0-156.5-60.5T387 1241V463q0-244 201-244 96 0 144 52t54 159v225H559v228h524V0H942l-37 147Q783-20 555-20z"/><glyph glyph-name="Gbreve.ss01" horiz-adv-x="1185" d="M555-20q-217 0-340 146T92 526v639q0 267 126.5 413T592 1724q234 0 360-135t131-383v-166H788v244q-8 201-194 201-106 0-156.5-60.5T387 1241V463q0-244 201-244 96 0 144 52t54 159v225H559v228h524V0H942l-37 147Q783-20 555-20zM260 2058h102q0-42 20.5-72t56-45.5 74-22.5 83.5-7q44 0 82 7t72 22.5 53.5 45.5 19.5 72h103q0-231-330-231-70 0-127.5 11t-106 36.5-75.5 72-27 111.5z"/><glyph glyph-name="uni0122.ss01" horiz-adv-x="1185" d="M555-20q-217 0-340 146T92 526v639q0 267 126.5 413T592 1724q234 0 360-135t131-383v-166H788v244q-8 201-194 201-106 0-156.5-60.5T387 1241V463q0-244 201-244 96 0 144 52t54 159v225H559v228h524V0H942l-37 147Q783-20 555-20zm-70-158q0 47 30.5 76.5T594-72q51 0 78.5-33.5T700-199q0-71-48.5-136.5T514-444v92q105 27 131 110-27-37-72-37-37 0-62.5 27T485-178z"/><glyph glyph-name="Gdotaccent.ss01" horiz-adv-x="1185" d="M555-20q-217 0-340 146T92 526v639q0 267 126.5 413T592 1724q234 0 360-135t131-383v-166H788v244q-8 201-194 201-106 0-156.5-60.5T387 1241V463q0-244 201-244 96 0 144 52t54 159v225H559v228h524V0H942l-37 147Q783-20 555-20zM449 1931q0 55 38 91t107 36q70 0 107.5-36t37.5-91q0-54-37.5-88.5T594 1808q-69 0-107 34.5t-38 88.5z"/><glyph glyph-name="H.ss01" horiz-adv-x="1173" d="M768 0v731H403V0H117v1704h286V973h365v731h289V0H768z"/><glyph glyph-name="Hbar.ss01" horiz-adv-x="1310" d="M838 0v731H473V0H186v1190H53v143h133v371h287v-371h365v371h288v-371h131v-143h-131V0H838zM473 973h365v217H473V973z"/><glyph glyph-name="I.ss01" horiz-adv-x="702" d="M102 0v258h105v1188H102v258h500v-258H496V258h106V0H102z"/><glyph glyph-name="Iacute.ss01" horiz-adv-x="702" d="M102 0v258h105v1188H102v258h500v-258H496V258h106V0H102zM6 1905l670 151 20-80-669-149z"/><glyph glyph-name="Icircumflex.ss01" horiz-adv-x="702" d="M102 0v258h105v1188H102v258h500v-258H496V258h106V0H102zM20 1819l261 237h143l256-237H537l-185 174-188-174H20z"/><glyph glyph-name="Idieresis.ss01" horiz-adv-x="702" d="M102 0v258h105v1188H102v258h500v-258H496V258h106V0H102zM57 1923q0 48 30 76.5t73 28.5q42 0 72-28.5t30-76.5q0-43-30.5-71.5T160 1823q-42 0-72.5 28.5T57 1923zm381 0q0 48 30 76.5t73 28.5q42 0 72-28.5t30-76.5q0-43-30.5-71.5T541 1823q-42 0-72.5 28.5T438 1923z"/><glyph glyph-name="Idotaccent.ss01" horiz-adv-x="702" d="M102 0v258h105v1188H102v258h500v-258H496V258h106V0H102zm105 1931q0 55 38 91t107 36q70 0 108-36t38-91q0-54-37.5-88.5T352 1808q-69 0-107 34.5t-38 88.5z"/><glyph glyph-name="Igrave.ss01" horiz-adv-x="702" d="M102 0v258h105v1188H102v258h500v-258H496V258h106V0H102zM6 1976l21 80 669-151-20-78z"/><glyph glyph-name="Imacron.ss01" horiz-adv-x="702" d="M102 0v258h105v1188H102v258h500v-258H496V258h106V0H102zM6 1901v81h690v-81H6z"/><glyph glyph-name="Iogonek.ss01" horiz-adv-x="702" d="M102 0v258h105v1188H102v258h500v-258H496V258h106V0h-2Q373-66 373-186q0-62 54.5-88.5T614-301h15l-82-109h-12q-130 0-208.5 47T248-229Q248-69 498 0H102z"/><glyph glyph-name="J.ss01" horiz-adv-x="1093" d="M522-20q-235 0-349 132.5T59 512v106h295V434q0-117 38.5-166T522 219t130.5 48.5T692 430v1274h293V508q0-264-114-396T522-20z"/><glyph glyph-name="K.ss01" horiz-adv-x="1112" d="M766 0L453 721h-50V0H117v1704h286V983h50l313 721h317L690 852 1083 0H766z"/><glyph glyph-name="uni0136.ss01" horiz-adv-x="1112" d="M766 0L453 721h-50V0H117v1704h286V983h50l313 721h317L690 852 1083 0H766zM473-178q0 47 30.5 76.5T582-72q51 0 78.5-33.5T688-199q0-71-48.5-136.5T502-444v92q105 27 131 110-27-37-72-37-37 0-62.5 27T473-178z"/><glyph glyph-name="L.ss01" horiz-adv-x="948" d="M117 0v1704h286V244h492V0H117z"/><glyph glyph-name="Lacute.ss01" horiz-adv-x="948" d="M117 0v1704h286V244h492V0H117zm18 1905l670 151 20-80-669-149z"/><glyph glyph-name="Lcaron.ss01" horiz-adv-x="976" d="M117 0v1704h286V244h492V0H117zm461 1202l71 502h182l-133-502H578z"/><glyph glyph-name="uni013B.ss01" horiz-adv-x="948" d="M117 0v1704h286V244h492V0H117zm264-178q0 47 30.5 76.5T489-72q51 0 79-33.5t28-93.5q0-71-48.5-136.5T410-444v92q105 27 131 110-27-37-72-37-37 0-62.5 27T381-178z"/><glyph glyph-name="Lslash.ss01" horiz-adv-x="1044" d="M211 0v643L53 549v160l158 96v899h287V977l243 147V963L498 815V244h491V0H211z"/><glyph glyph-name="M.ss01" horiz-adv-x="1398" d="M117 0v1704h329L698 621l254 1083h330V0h-262v1053L766 0H633L379 1053V0H117z"/><glyph glyph-name="N.ss01" horiz-adv-x="1187" d="M117 0v1704h264L807 639v1065h264V0H807L379 1065V0H117z"/><glyph glyph-name="Nacute.ss01" horiz-adv-x="1187" d="M117 0v1704h264L807 639v1065h264V0H807L379 1065V0H117zm131 1905l670 151 20-80-670-149z"/><glyph glyph-name="Ncaron.ss01" horiz-adv-x="1187" d="M117 0v1704h264L807 639v1065h264V0H807L379 1065V0H117zm147 2064h144l188-176 184 176h144l-256-237H524z"/><glyph glyph-name="uni0145.ss01" horiz-adv-x="1187" d="M117 0v1704h264L807 639v1065h264V0H807L379 1065V0H117zm368-178q0 47 30.5 76.5T594-72q51 0 78.5-33.5T700-199q0-71-48.5-136.5T514-444v92q105 27 131 110-27-37-72-37-37 0-62.5 27T485-178z"/><glyph glyph-name="Ntilde.ss01" horiz-adv-x="1187" d="M117 0v1704h264L807 639v1065h264V0H807L379 1065V0H117zm145 1847q0 59 15 101.5t42 65.5 58 33.5 69 10.5q47 0 83.5-15.5t59.5-37 43-43.5 45.5-37.5T733 1909q88 0 88 127h103q0-114-53-162.5T737 1825q-48 0-85.5 15.5t-60 37.5-42 43.5-43.5 37-53 15.5q-88 0-88-127H262z"/><glyph glyph-name="O.ss01" horiz-adv-x="1183" d="M592-20q-244 0-372 146.5T92 539v626q0 266 128 412.5T592 1724t371-146.5 127-412.5V539q0-266-127-412.5T592-20zM387 463q0-244 205-244 203 0 203 244v776q0 246-203 246-205 0-205-244V463z"/><glyph glyph-name="Oacute.ss01" horiz-adv-x="1183" d="M592-20q-244 0-372 146.5T92 539v626q0 266 128 412.5T592 1724t371-146.5 127-412.5V539q0-266-127-412.5T592-20zM246 1905l669 151 21-80-670-149zM387 463q0-244 205-244 203 0 203 244v776q0 246-203 246-205 0-205-244V463z"/><glyph glyph-name="Ocircumflex.ss01" horiz-adv-x="1183" d="M592-20q-244 0-372 146.5T92 539v626q0 266 128 412.5T592 1724t371-146.5 127-412.5V539q0-266-127-412.5T592-20zM260 1819l260 237h144l256-237H776l-184 174-189-174H260zM387 463q0-244 205-244 203 0 203 244v776q0 246-203 246-205 0-205-244V463z"/><glyph glyph-name="Odieresis.ss01" horiz-adv-x="1183" d="M592-20q-244 0-372 146.5T92 539v626q0 266 128 412.5T592 1724t371-146.5 127-412.5V539q0-266-127-412.5T592-20zM299 1923q0 48 29.5 76.5T401 2028q42 0 72.5-29t30.5-76q0-43-31-71.5t-72-28.5q-42 0-72 28.5t-30 71.5zm88-1460q0-244 205-244 203 0 203 244v776q0 246-203 246-205 0-205-244V463zm293 1460q0 48 29.5 76.5T782 2028q42 0 72.5-29t30.5-76q0-43-31-71.5t-72-28.5q-42 0-72 28.5t-30 71.5z"/><glyph glyph-name="Ograve.ss01" horiz-adv-x="1183" d="M592-20q-244 0-372 146.5T92 539v626q0 266 128 412.5T592 1724t371-146.5 127-412.5V539q0-266-127-412.5T592-20zM246 1976l20 80 670-151-21-78zM387 463q0-244 205-244 203 0 203 244v776q0 246-203 246-205 0-205-244V463z"/><glyph glyph-name="Ohungarumlaut.ss01" horiz-adv-x="1183" d="M592-20q-244 0-372 146.5T92 539v626q0 266 128 412.5T592 1724t371-146.5 127-412.5V539q0-266-127-412.5T592-20zM375 1827l266 229h137l-246-229H375zm12-1364q0-244 205-244 203 0 203 244v776q0 246-203 246-205 0-205-244V463zm270 1364l269 229h135l-246-229H657z"/><glyph glyph-name="Omacron.ss01" horiz-adv-x="1183" d="M592-20q-244 0-372 146.5T92 539v626q0 266 128 412.5T592 1724t371-146.5 127-412.5V539q0-266-127-412.5T592-20zM246 1901v81h690v-81H246zM387 463q0-244 205-244 203 0 203 244v776q0 246-203 246-205 0-205-244V463z"/><glyph glyph-name="Oslash.ss01" horiz-adv-x="1183" d="M147-12l66 147Q92 280 92 539v626q0 266 128 412.5T592 1724q174 0 287-73l28 65h129l-65-147q119-143 119-404V539q0-266-127-412.5T592-20q-174 0-287 73l-29-65H147zm240 544l377 859q-48 94-172 94-205 0-205-244V532zm31-223q52-90 174-90 203 0 203 244v704z"/><glyph glyph-name="Otilde.ss01" horiz-adv-x="1183" d="M592-20q-244 0-372 146.5T92 539v626q0 266 128 412.5T592 1724t371-146.5 127-412.5V539q0-266-127-412.5T592-20zM260 1847q0 59 15 101.5t42 65.5 58 33.5 69 10.5q47 0 83.5-15.5t59.5-37 43-43.5 45.5-37.5T731 1909q88 0 88 127h103q0-114-53-162.5T735 1825q-48 0-85.5 15.5t-60 37.5-42 43.5-43.5 37-53 15.5q-89 0-89-127H260zM387 463q0-244 205-244 203 0 203 244v776q0 246-203 246-205 0-205-244V463z"/><glyph glyph-name="P.ss01" horiz-adv-x="1138" d="M117 0v1704h461q269 0 382-120.5t113-407.5v-66q0-287-113-411T578 575H403V0H117zm286 803h203q94 0 133 50t39 161v256q0 110-39 158.5T606 1477H403V803z"/><glyph glyph-name="Q.ss01" horiz-adv-x="1183" d="M969-334q-153 79-272 113.5T426-182l2 182Q262 45 177 183.5T92 539v626q0 266 128 412.5T592 1724t371-146.5 127-412.5V539q0-240-104-383.5T682-14q151-23 287-97v-223zM387 463q0-244 205-244 203 0 203 244v776q0 246-203 246-205 0-205-244V463z"/><glyph glyph-name="R.ss01" horiz-adv-x="1153" d="M788 0q-11 13-16 41.5T766.5 89t-.5 61v352q0 180-168 180H403V0H117v1704h483q250 0 355.5-99.5T1061 1255v-32q0-189-50-281T838 805q221-74 221-340V150q0-111 24-150H788zM403 909h195q94 0 131 49.5t37 143.5v192q0 104-38 143.5T596 1477H403V909z"/><glyph glyph-name="Racute.ss01" horiz-adv-x="1153" d="M788 0q-11 13-16 41.5T766.5 89t-.5 61v352q0 180-168 180H403V0H117v1704h483q250 0 355.5-99.5T1061 1255v-32q0-189-50-281T838 805q221-74 221-340V150q0-111 24-150H788zM242 1905l669 151 21-80-670-149zm161-996h195q94 0 131 49.5t37 143.5v192q0 104-38 143.5T596 1477H403V909z"/><glyph glyph-name="Rcaron.ss01" horiz-adv-x="1153" d="M788 0q-11 13-16 41.5T766.5 89t-.5 61v352q0 180-168 180H403V0H117v1704h483q250 0 355.5-99.5T1061 1255v-32q0-189-50-281T838 805q221-74 221-340V150q0-111 24-150H788zM256 2064h143l189-176 184 176h143l-256-237H516zM403 909h195q94 0 131 49.5t37 143.5v192q0 104-38 143.5T596 1477H403V909z"/><glyph glyph-name="uni0156.ss01" horiz-adv-x="1153" d="M788 0q-11 13-16 41.5T766.5 89t-.5 61v352q0 180-168 180H403V0H117v1704h483q250 0 355.5-99.5T1061 1255v-32q0-189-50-281T838 805q221-74 221-340V150q0-111 24-150H788zM403 909h195q94 0 131 49.5t37 143.5v192q0 104-38 143.5T596 1477H403V909zm76-1087q0 47 30.5 76.5T588-72q51 0 78.5-33.5T694-199q0-71-48.5-136.5T508-444v92q105 27 131 110-27-37-72-37-37 0-62.5 27T479-178z"/><glyph glyph-name="S.ss01" horiz-adv-x="1105" d="M559-20q-247 0-367 127.5T72 489v109h295V414q0-108 46.5-152.5T563 217q93 0 133.5 38.5T737 385v74q-1 99-39 152.5T573 707L365 831q-88 53-146.5 113T124 1091t-36 195q0 209 118 323.5T551 1724q226 0 345.5-113.5T1016 1282v-115H723v142q0 99-41.5 138.5T549 1487q-88 0-128-35.5T381 1333v-49q0-83 38-136.5t113-92.5l211-121q71-41 118.5-80.5T950 758t60.5-132.5T1030 449q0-236-114.5-352.5T559-20z"/><glyph glyph-name="Sacute.ss01" horiz-adv-x="1105" d="M559-20q-247 0-367 127.5T72 489v109h295V414q0-108 46.5-152.5T563 217q93 0 133.5 38.5T737 385v74q-1 99-39 152.5T573 707L365 831q-88 53-146.5 113T124 1091t-36 195q0 209 118 323.5T551 1724q226 0 345.5-113.5T1016 1282v-115H723v142q0 99-41.5 138.5T549 1487q-88 0-128-35.5T381 1333v-49q0-83 38-136.5t113-92.5l211-121q71-41 118.5-80.5T950 758t60.5-132.5T1030 449q0-236-114.5-352.5T559-20zM207 1905l670 151 20-80-670-149z"/><glyph glyph-name="Scaron.ss01" horiz-adv-x="1105" d="M559-20q-247 0-367 127.5T72 489v109h295V414q0-108 46.5-152.5T563 217q93 0 133.5 38.5T737 385v74q-1 99-39 152.5T573 707L365 831q-88 53-146.5 113T124 1091t-36 195q0 209 118 323.5T551 1724q226 0 345.5-113.5T1016 1282v-115H723v142q0 99-41.5 138.5T549 1487q-88 0-128-35.5T381 1333v-49q0-83 38-136.5t113-92.5l211-121q71-41 118.5-80.5T950 758t60.5-132.5T1030 449q0-236-114.5-352.5T559-20zM223 2064h144l188-176 184 176h144l-256-237H483z"/><glyph glyph-name="Scedilla.ss01" horiz-adv-x="1105" d="M416-332q140 0 197 13.5t57 58.5q0 25-13.5 39t-44 18-66.5 1.5-95-9.5l47 193Q72 11 72 489v109h295V414q0-108 46.5-152.5T563 217q93 0 133.5 38.5T737 385v74q-1 99-39 152.5T573 707L365 831q-88 53-146.5 113T124 1091t-36 195q0 209 118 323.5T551 1724q226 0 345.5-113.5T1016 1282v-115H723v142q0 99-41.5 138.5T549 1487q-88 0-128-35.5T381 1333v-49q0-83 38-136.5t113-92.5l211-121q71-41 118.5-80.5T950 758t60.5-132.5T1030 449q0-226-104.5-342.5T600-20l-27-103q222 21 222-131 0-95-88.5-132.5T416-424v92z"/><glyph glyph-name="uni0218.ss01" horiz-adv-x="1105" d="M559-20q-247 0-367 127.5T72 489v109h295V414q0-108 46.5-152.5T563 217q93 0 133.5 38.5T737 385v74q-1 99-39 152.5T573 707L365 831q-88 53-146.5 113T124 1091t-36 195q0 209 118 323.5T551 1724q226 0 345.5-113.5T1016 1282v-115H723v142q0 99-41.5 138.5T549 1487q-88 0-128-35.5T381 1333v-49q0-83 38-136.5t113-92.5l211-121q71-41 118.5-80.5T950 758t60.5-132.5T1030 449q0-236-114.5-352.5T559-20zM444-178q0 47 30.5 76.5T553-72q51 0 78.5-33.5T659-199q0-71-48.5-136.5T473-444v92q105 27 131 110-27-37-72-37-37 0-62.5 27T444-178z"/><glyph glyph-name="uni1E9E.ss01" horiz-adv-x="1099" d="M111 1327q0 193 102.5 285t325.5 92h467q-22-242-49.5-381.5t-67.5-210-103-98.5q226-56 226-393V426q0-224-103.5-325T627 0H461v231l104 2q91 2 127.5 44T729 426v256q0 100-37 149t-133 50l-98 2v231h84q31 1 51 6.5t38 22 29 38.5 22.5 66 19.5 94 20 132H539q-80 0-115-33.5T389 1325V0H111v1327z"/><glyph glyph-name="T.ss01" horiz-adv-x="1040" d="M377 0v1460H57v244h928v-244H666V0H377z"/><glyph glyph-name="Tbar.ss01" horiz-adv-x="1048" d="M379 0v782H174v142h205v536H59v244h928v-244H668V924h211V782H668V0H379z"/><glyph glyph-name="Tcaron.ss01" horiz-adv-x="1040" d="M377 0v1460H57v244h928v-244H666V0H377zM190 2064h144l188-176 185 176h143l-256-237H451z"/><glyph glyph-name="uni0162.ss01" horiz-adv-x="1040" d="M377 0v1460H57v244h928v-244H666V0h-95l-30-123q105 10 163-19t58-112q0-95-88.5-132.5T383-424v92q140 0 197 13.5t57 58.5q0 25-13.5 39t-44 18-66.5 1.5-95-9.5L469 0h-92z"/><glyph glyph-name="uni021A.ss01" horiz-adv-x="1040" d="M377 0v1460H57v244h928v-244H666V0H377zm37-178q0 47 30.5 76.5T522-72q51 0 79-33.5t28-93.5q0-70-49-136T442-444v92q105 27 131 110-27-37-71-37-37 0-62.5 27T414-178z"/><glyph glyph-name="U.ss01" horiz-adv-x="1171" d="M586-20q-246 0-361.5 125.5T109 498v1206h292V432q0-117 44-165t141-48q96 0 140 48t44 165v1272h293V498q0-268-115.5-393T586-20z"/><glyph glyph-name="Uacute.ss01" horiz-adv-x="1171" d="M586-20q-246 0-361.5 125.5T109 498v1206h292V432q0-117 44-165t141-48q96 0 140 48t44 165v1272h293V498q0-268-115.5-393T586-20zM240 1905l669 151 21-80-670-149z"/><glyph glyph-name="Ucircumflex.ss01" horiz-adv-x="1171" d="M586-20q-246 0-361.5 125.5T109 498v1206h292V432q0-117 44-165t141-48q96 0 140 48t44 165v1272h293V498q0-268-115.5-393T586-20zM256 1819l260 237h143l256-237H772l-184 174-189-174H256z"/><glyph glyph-name="Udieresis.ss01" horiz-adv-x="1171" d="M586-20q-246 0-361.5 125.5T109 498v1206h292V432q0-117 44-165t141-48q96 0 140 48t44 165v1272h293V498q0-268-115.5-393T586-20zM293 1923q0 48 29.5 76.5T395 2028q42 0 72.5-29t30.5-76q0-43-31-71.5t-72-28.5q-42 0-72 28.5t-30 71.5zm381 0q0 48 29.5 76.5T776 2028q42 0 72.5-29t30.5-76q0-43-31-71.5t-72-28.5q-42 0-72 28.5t-30 71.5z"/><glyph glyph-name="Ugrave.ss01" horiz-adv-x="1171" d="M586-20q-246 0-361.5 125.5T109 498v1206h292V432q0-117 44-165t141-48q96 0 140 48t44 165v1272h293V498q0-268-115.5-393T586-20zM240 1976l20 80 670-151-21-78z"/><glyph glyph-name="Uhungarumlaut.ss01" horiz-adv-x="1171" d="M586-20q-246 0-361.5 125.5T109 498v1206h292V432q0-117 44-165t141-48q96 0 140 48t44 165v1272h293V498q0-268-115.5-393T586-20zM369 1827l266 229h137l-246-229H369zm282 0l269 229h135l-246-229H651z"/><glyph glyph-name="Umacron.ss01" horiz-adv-x="1171" d="M586-20q-246 0-361.5 125.5T109 498v1206h292V432q0-117 44-165t141-48q96 0 140 48t44 165v1272h293V498q0-268-115.5-393T586-20zM240 1901v81h690v-81H240z"/><glyph glyph-name="Uogonek.ss01" horiz-adv-x="1171" d="M586-20q-246 0-361.5 125.5T109 498v1206h292V432q0-117 44-165t141-48q96 0 140 48t44 165v1272h293V498q0-220-77-342.5T748-4Q640-38 587.5-82.5T535-186q0-62 54.5-88.5T776-301h15l-82-109h-13q-130 0-208 47t-78 134q0 139 186 209h-10z"/><glyph glyph-name="Uring.ss01" horiz-adv-x="1171" d="M586-20q-246 0-361.5 125.5T109 498v1206h292V432q0-117 44-165t141-48q96 0 140 48t44 165v1272h293V498q0-268-115.5-393T586-20zM420 1962q0 71 49.5 118.5T586 2128t116.5-47.5T752 1962t-49.5-118.5T586 1796t-116.5 47.5T420 1962zm92 0q0-33 20.5-53.5T586 1888t53 20.5 20 53.5-20 53.5-53 20.5-53.5-20.5T512 1962z"/><glyph glyph-name="V.ss01" horiz-adv-x="1116" d="M360 0L43 1704h297L551 305l8-33 8 33 209 1399h297L758 0H360z"/><glyph glyph-name="W.ss01" horiz-adv-x="1804" d="M324 0L47 1704h289L514 369l4-23 4 25 203 1333h356l201-1333 6-27 4 27 176 1333h289L1481 0h-387L909 1278l-6 35-6-35L713 0H324z"/><glyph glyph-name="Wacute.ss01" horiz-adv-x="1804" d="M324 0L47 1704h289L514 369l4-23 4 25 203 1333h356l201-1333 6-27 4 27 176 1333h289L1481 0h-387L909 1278l-6 35-6-35L713 0H324zm233 1905l670 151 20-80-669-149z"/><glyph glyph-name="Wcircumflex.ss01" horiz-adv-x="1804" d="M324 0L47 1704h289L514 369l4-23 4 25 203 1333h356l201-1333 6-27 4 27 176 1333h289L1481 0h-387L909 1278l-6 35-6-35L713 0H324zm249 1819l261 237h143l256-237h-143l-185 174-188-174H573z"/><glyph glyph-name="Wdieresis.ss01" horiz-adv-x="1804" d="M324 0L47 1704h289L514 369l4-23 4 25 203 1333h356l201-1333 6-27 4 27 176 1333h289L1481 0h-387L909 1278l-6 35-6-35L713 0H324zm286 1923q0 48 30 76.5t73 28.5q42 0 72-28.5t30-76.5q0-43-30.5-71.5T713 1823q-42 0-72.5 28.5T610 1923zm381 0q0 48 30 76.5t73 28.5q42 0 72-28.5t30-76.5q0-43-30.5-71.5T1094 1823q-42 0-72.5 28.5T991 1923z"/><glyph glyph-name="Wgrave.ss01" horiz-adv-x="1804" d="M324 0L47 1704h289L514 369l4-23 4 25 203 1333h356l201-1333 6-27 4 27 176 1333h289L1481 0h-387L909 1278l-6 35-6-35L713 0H324zm233 1976l21 80 669-151-20-78z"/><glyph glyph-name="X.ss01" horiz-adv-x="1097" d="M29 0l354 864-342 840h299l213-596 215 596h293L715 864 1067 0H766L543 621 322 0H29z"/><glyph glyph-name="Y.ss01" horiz-adv-x="1091" d="M401 0v590L25 1704h303l217-758 2-6 2 6 215 758h305L690 590V0H401z"/><glyph glyph-name="Yacute.ss01" horiz-adv-x="1091" d="M401 0v590L25 1704h303l217-758 2-6 2 6 215 758h305L690 590V0H401zM201 1905l669 151 21-80-670-149z"/><glyph glyph-name="Ycircumflex.ss01" horiz-adv-x="1091" d="M401 0v590L25 1704h303l217-758 2-6 2 6 215 758h305L690 590V0H401zM215 1819l260 237h143l256-237H731l-184 174-189-174H215z"/><glyph glyph-name="Ydieresis.ss01" horiz-adv-x="1091" d="M401 0v590L25 1704h303l217-758 2-6 2 6 215 758h305L690 590V0H401zM254 1923q0 48 29.5 76.5T356 2028q42 0 72.5-29t30.5-76q0-43-31-71.5t-72-28.5q-42 0-72 28.5t-30 71.5zm381 0q0 48 29.5 76.5T737 2028q42 0 72.5-29t30.5-76q0-43-31-71.5t-72-28.5q-42 0-72 28.5t-30 71.5z"/><glyph glyph-name="Ygrave.ss01" horiz-adv-x="1091" d="M401 0v590L25 1704h303l217-758 2-6 2 6 215 758h305L690 590V0H401zM201 1976l20 80 670-151-21-78z"/><glyph glyph-name="Z.ss01" horiz-adv-x="997" d="M70 0v244l546 1216H70v244h858v-244L381 244h547V0H70z"/><glyph glyph-name="Zacute.ss01" horiz-adv-x="997" d="M70 0v244l546 1216H70v244h858v-244L381 244h547V0H70zm84 1905l669 151 21-80-670-149z"/><glyph glyph-name="Zcaron.ss01" horiz-adv-x="997" d="M70 0v244l546 1216H70v244h858v-244L381 244h547V0H70zm98 2064h143l189-176 184 176h143l-256-237H428z"/><glyph glyph-name="Zdotaccent.ss01" horiz-adv-x="997" d="M70 0v244l546 1216H70v244h858v-244L381 244h547V0H70zm284 1931q0 55 38.5 91t107.5 36q70 0 107.5-36t37.5-91q0-54-37.5-88.5T500 1808q-69 0-107.5 35t-38.5 88z"/><glyph glyph-name="W.ss02" horiz-adv-x="1605" d="M102 0v1704h258V303l246 1401h451V291l246 1413h266L1249 0H799v1427L559 0H102z"/><glyph glyph-name="W.ss03" horiz-adv-x="3168" d="M606 0H190v1704h277V297l1016 1407h377V297l1009 1407h346L1999 0h-416v1350z"/><glyph glyph-name="i.loclTRK" horiz-adv-x="577" d="M152 1331h276V0H152v1331zm-35 254q0 65 44 102t128 37q86 0 130-37t44-102q0-60-45-97.5T289 1450q-83 0-127.5 37.5T117 1585z"/><glyph glyph-name="uni006A0301" horiz-adv-x="577" d="M152 0v1331h274V-39q0-121-27.5-207T317-381.5 191.5-453 23-475h-267v239h191q114 0 159.5 51T152 0zM-47 1532l649 151 23-79-652-152z"/><glyph glyph-name="w.ss02" horiz-adv-x="2166" d="M152 0v1331h272V190l522 1141h467V197l455 1134h299L1602 0h-463v1163L614 0H152z"/><glyph glyph-name="zero.ss01" horiz-adv-x="1167" d="M584-20q-242 0-363 143.5T100 545v616q0 278 121 420.5T584 1724q240 0 361.5-142.5T1067 1161V543q0-277-121.5-420T584-20zM393 657l373 664q-13 86-57.5 126T584 1487q-99 0-145-59.5T393 1237V657zm8-295q17-75 61.5-110T584 217q97 0 142.5 59.5T772 467v555z"/><glyph glyph-name="one.ss01" horiz-adv-x="942" d="M84 242h264v1128q-45-50-106.5-76T74 1268v258q212 0 307 178h256V242h266V0H84v242z"/><glyph glyph-name="two.ss01" horiz-adv-x="1120" d="M88 270q0 219 80 357.5T420 860l133 78q102 55 147 127.5t45 202.5v41q0 96-42 137t-132 41q-96 0-139-46t-43-155v-135H94v98q0 230 121 352.5T571 1724q227 0 348-121t121-354q0-102-24.5-188t-68-148.5-95-106.5T739 729L580 627q-53-29-89-59t-58-60.5-33.5-73-15-85T381 242h653V0H88v270z"/><glyph glyph-name="three.ss01" horiz-adv-x="1116" d="M555-20Q313-20 195 92T76 446v86h289V410q1-109 45.5-151T549 217q99 0 141.5 42.5T733 399v166q0 103-44.5 144T555 750H381v243h172q84 0 128 38t44 130v148q0 97-43 137.5T549 1487q-87 0-131-41.5T373 1300v-108H84v74q3 458 465 458 112 0 198-30.5t135-76 80-107 41.5-114T1014 1290v-51q3-276-205-356 213-81 213-381v-53q0-469-467-469z"/><glyph glyph-name="four.ss01" horiz-adv-x="1093" d="M905 1704V555h119V313H905V0H616v313H55v273l576 1118h274zM264 555h352v690z"/><glyph glyph-name="five.ss01" horiz-adv-x="1118" d="M659 1143q86 0 151.5-23.5T929 1042t81-151.5 28-235.5V516q0-272-120-404T561-20q-233 0-354 124T86 473v55h295V414q0-104 47-150.5T565 217q91 0 134.5 48T743 414v272q0 105-41 155t-133 50q-79 0-121-45.5T385 719H100l47 985h822v-242H408l-27-448q97 129 278 129z"/><glyph glyph-name="six.ss01" horiz-adv-x="1138" d="M573-20q-241 0-357 137.5T100 557v559q0 316 115.5 462T580 1724q227 0 337.5-116.5T1028 1278v-35H739v33q0 91-38 134.5T580 1454q-97 0-141-51.5T395 1243v-225q98 127 267 127 182 0 287.5-134.5T1055 610v-92q0-272-120.5-405T573-20zM395 416q0-106 44.5-152.5T580 217t139 47.5T762 416v280q0 100-41 148.5T584 893q-95 0-142-50t-47-143V416z"/><glyph glyph-name="seven.ss01" horiz-adv-x="976" d="M43 1460v244h875v-244q-103-137-177-284.5t-114.5-277T563 614t-29-275-6-280V0H242v59q0 153 8 279.5T284 617t69.5 284.5T473 1180t180 280H43z"/><glyph glyph-name="eight.ss01" horiz-adv-x="1138" d="M569-20Q328-20 210 89.5T92 420v82q0 181 68.5 279T338 905q-103 24-167.5 109.5T106 1251v68q0 194 118.5 299.5T571 1724q226 0 343.5-105.5T1032 1319v-68q0-153-64-237.5T801 905q109-26 177.5-124t68.5-279v-82q0-440-478-440zM387 397q0-103 42-143.5T569 213t140.5 40.5T752 397v195q0 99-43.5 140.5T569 774t-139-40.5T387 594V397zm12 781q0-84 41.5-122t128.5-38q86 0 127 39t41 123v149q0 85-39.5 123.5T569 1491q-88 0-129-38t-41-124v-151z"/><glyph glyph-name="nine.ss01" horiz-adv-x="1138" d="M559-20Q332-20 221.5 96.5T111 426v37h290v-35q0-91 37-133.5T559 252q98 0 141 50t43 159v225q-95-127-264-127-184 0-289.5 134T84 1094v92q0 538 483 538 240 0 355.5-137.5T1038 1149V588q0-316-115-462T559-20zM379 1008q0-100 41-149.5T555 809q188 0 188 195v284q0 107-43.5 153T559 1487q-96 0-138-47.5T379 1288v-280z"/><glyph glyph-name="zero.tf" horiz-adv-x="1746" d="M874-20q-354 0-546.5 212T135 782v146q0 374 193 585t546 211q351 0 542.5-211.5T1608 926V780q0-376-191.5-588T874-20zM428 760q0-169 45-279l709 877q-109 112-308 112-222 0-334-136T428 944V760zm137-420q113-107 309-107 219 0 330 136.5T1315 764v182q0 155-43 268z"/><glyph glyph-name="one.tf" horiz-adv-x="1746" d="M342 254h438v1141q-181-131-444-131v264q142 0 257 38t206 138h268V254h440V0H342v254z"/><glyph glyph-name="two.tf" horiz-adv-x="1746" d="M164 272q0 95 14.5 172T229 593t95 126 151 96.5T690 883l252 55q72 15 122 30t96 37.5 73 51 43 69.5 16 95v12q0 122-95.5 179.5T903 1470q-228 0-328-80.5T475 1135v-45H180v36q0 291 176.5 444.5T899 1724q336 0 511-129.5t175-384.5q0-409-483-501l-268-62q-74-15-130.5-33T607 576.5 539.5 530t-44-53-25-64-11-72.5T457 254h1128V0H164v272z"/><glyph glyph-name="three.tf" horiz-adv-x="1746" d="M866-20q-365 0-536 130.5T152 532v21h290v-31q7-163 107-226t315-63q227 0 321.5 57t94.5 183v41q0 127-90 176t-313 49H633v254h244q205 0 292.5 49.5T1257 1208v37q0 117-95.5 171T866 1470q-92 0-158.5-12t-120-41.5-81.5-84-31-134.5v-27H184v19q7 278 175.5 406T864 1724q182 0 315.5-35t213-100.5T1510 1437t38-194v-12q5-140-56.5-236T1303 868q136-33 202-132.5t66-250.5v-12q0-248-173-370.5T866-20z"/><glyph glyph-name="four.tf" horiz-adv-x="1746" d="M1374 1704V573h219V319h-219V0h-287v319H131v265l959 1120h284zM418 573h669v760z"/><glyph glyph-name="five.tf" horiz-adv-x="1746" d="M975 1143q131 0 241.5-33.5t195-98.5 132-169.5T1591 604v-39q0-585-694-585-343 0-533 136T174 510v31h295v-45q0-91 55.5-151t147-86T889 233q200 0 303.5 71T1296 528v64q0 303-385 303-299 0-442-188H193l65 997h1258v-254H516l-39-479q180 172 498 172z"/><glyph glyph-name="six.tf" horiz-adv-x="1746" d="M883-20q-364 0-537.5 159.5T172 631v346q0 368 183 557.5T907 1724q306 0 470-130t167-353l2-20h-293v20q-3 107-92 164t-252 57q-214 0-329-92.5T465 1094V961q158 198 506 198 286 0 455-146.5T1595 610v-47q0-289-179-436T883-20zM465 541q0-160 101-234t315-74 318 74 104 228v67q0 159-99.5 230T897 903q-432 0-432-295v-67z"/><glyph glyph-name="seven.tf" horiz-adv-x="1746" d="M193 1450v254h1339v-254q-103-69-190-145t-152-151-116.5-159.5-87-161.5T925 667t-40.5-164.5-23-166-11-161T848 18V0H557v18q0 111 4.5 203.5t20.5 212 43 220 75.5 215 115 211.5 165 194 221.5 176H193z"/><glyph glyph-name="eight.tf" horiz-adv-x="1746" d="M874-20q-360 0-536 125T162 467v18q0 166 87.5 275.5T481 907q-124 33-202 126.5T201 1268v14q0 210 174.5 326T881 1724q328 0 497.5-116t169.5-328v-14q0-141-78-233.5T1268 907q145-37 232-145.5t87-276.5v-20q0-235-176.5-360T874-20zM455 477q0-135 99.5-196.5T874 219q219 0 319.5 62T1294 479v47q0 132-101.5 190T874 774q-216 0-317.5-58T455 526v-49zm39 756q0-111 95.5-161t284.5-50 285 50.5 96 162.5v35q0 113-93 164t-288 51q-193 0-286.5-51.5T494 1270v-37z"/><glyph glyph-name="nine.tf" horiz-adv-x="1746" d="M866 1724q364 0 537.5-159.5T1577 1073V727q0-368-183-557.5T842-20q-306 0-470 130T205 463l-2 20h293v-20q3-107 92-164t252-57q214 0 329 92.5T1284 610v133q-158-198-506-198-286 0-455 146.5T154 1094v47q0 289 179 436t533 147zm-420-622q0-159 99-230t307-71q432 0 432 295v67q0 160-101 233.5T868 1470t-318-74-104-227v-67z"/><glyph glyph-name="zero.dnom" horiz-adv-x="901" d="M451-10Q270-10 169 97T68 391v72q0 187 101 293t282 106q182 0 283.5-106T836 463v-72q0-188-102-294.5T451-10zM250 381q0-51 8-84l324 365q-46 43-131 43-100 0-150.5-62T250 473v-92zm72-193q50-41 129-41 100 0 150 61.5T651 381v92q0 45-8 78z"/><glyph glyph-name="one.dnom" horiz-adv-x="706" d="M74 158h213v501q-98-45-215-45v166q74 0 130.5 14T303 852h164V158h213V0H74v158z"/><glyph glyph-name="two.dnom" horiz-adv-x="878" d="M72 170q0 241 254 289l137 22q90 18 127 43.5t37 77.5v6q0 97-174 97-103 0-146-34.5T264 567v-16H82v12q0 142 89.5 220.5T451 862q178 0 268-67.5T809 596q0-214-242-258l-153-31q-57-11-89.5-24T277 249.5t-18-38-3-53.5h553V0H72v170z"/><glyph glyph-name="three.dnom" horiz-adv-x="862" d="M426-10q-191 0-279 65.5T55 272v11h183v-17q4-72 48-98.5T424 141q107 0 146.5 25t39.5 78v20q0 56-40 76t-140 20H313v146h117q89 0 128.5 22t39.5 72v18q0 93-174 93-85 0-125.5-27T254 594v-14H72v10q9 146 96.5 209T430 862q182 0 266-63t84-168v-6q0-68-34.5-120.5T647 434q69-13 107.5-64T793 248v-6q0-127-88.5-189.5T426-10z"/><glyph glyph-name="four.dnom" horiz-adv-x="849" d="M688 852V305h105V145H688V0H508v145H41v164l469 543h178zM219 305h289v322z"/><glyph glyph-name="five.dnom" horiz-adv-x="868" d="M496 571q145 0 227-69t82-209v-19Q802-10 438-10q-183 0-276.5 71.5T68 270v6h184v-14q0-115 188-115 95 0 138 29t43 90v33q0 123-183 123-118 0-190-72H78l35 502h653V694H274l-20-205q97 82 242 82z"/><glyph glyph-name="six.dnom" horiz-adv-x="880" d="M442-10q-188 0-278 83T74 330v155q0 194 93.5 285.5T455 862q165 0 250.5-62.5T791 616v-4H608v4q0 39-38 60.5T459 698q-201 0-201-141v-49q76 76 221 76 155 0 245.5-76T815 301v-22q0-143-94.5-216T442-10zM258 268q0-62 44.5-91.5T442 147q189 0 189 121v35q0 63-43 92t-139 29q-99 0-145-30.5T258 301v-33z"/><glyph glyph-name="seven.dnom" horiz-adv-x="763" d="M31 694v158h694V694q-61-41-110.5-85.5t-84-90.5-60-87.5-41-91T404 254t-14-86.5-5.5-80T383 10V0H201v10q0 62 2.5 108t12 114.5 31 125T302 476t90 117.5T522 694H31z"/><glyph glyph-name="eight.dnom" horiz-adv-x="878" d="M438-10Q68-10 68 240v10q0 85 36.5 140t98.5 73q-55 18-87 61.5T84 635v8q0 106 91.5 162.5T444 862q351 0 351-221v-6q0-66-31.5-110T678 463q62-19 97.5-73.5T811 248v-8q0-250-373-250zM252 250q0-62 40-87.5T438 137q107 0 149 25.5t42 87.5v24q0 58-41 82.5T438 381q-107 0-146.5-24T252 274v-24zm16 364q0-42 37.5-60.5T438 535q96 0 134 18.5t38 62.5v19q0 43-39 61.5T438 715q-93 0-131.5-18.5T268 633v-19z"/><glyph glyph-name="nine.dnom" horiz-adv-x="878" d="M436 862q189 0 279-82.5T805 522V367q0-193-93-285T424-10q-164 0-249 62.5T90 236v4h182v-4q0-39 38.5-60.5T422 154q201 0 201 141v49q-76-76-224-76-155 0-245.5 76T63 551v22q0 142 95 215.5T436 862zM248 549q0-62 43.5-91.5T432 428q191 0 191 123v33q0 62-45 91.5T438 705q-98 0-144-29.5T248 584v-35z"/><glyph glyph-name="zero.numr" horiz-adv-x="901" d="M451 842q-181 0-282 107T68 1243v72q0 187 101 293t282 106q182 0 283.5-106T836 1315v-72q0-188-102-294.5T451 842zm-201 391q0-51 8-84l324 364q-46 43-131 43-100 0-150.5-61.5T250 1325v-92zm72-193q50-41 129-41 100 0 150 61.5t50 172.5v92q0 45-8 78z"/><glyph glyph-name="one.numr" horiz-adv-x="706" d="M74 1010h213v501q-98-45-215-45v166q74 0 130.5 14t100.5 58h164v-694h213V852H74v158z"/><glyph glyph-name="two.numr" horiz-adv-x="878" d="M72 1022q0 241 254 289l137 22q90 18 127 43.5t37 77.5v6q0 96-174 96-103 0-146-34t-43-103v-16H82v12q0 142 89.5 220.5T451 1714q178 0 268-67.5t90-198.5q0-214-242-258l-153-31q-57-11-89.5-24t-47.5-33.5-18-38-3-53.5h553V852H72v170z"/><glyph glyph-name="three.numr" horiz-adv-x="862" d="M426 842q-191 0-279 65.5T55 1124v11h183v-17q4-72 48-98.5T424 993q107 0 146.5 25t39.5 78v20q0 56-40 76t-140 20H313v146h117q89 0 128.5 22t39.5 72v18q0 93-174 93-85 0-125.5-27t-44.5-90v-14H72v10q9 146 96.5 209t261.5 63q182 0 266-63t84-168v-6q0-68-34.5-120.5T647 1286q69-13 107.5-64t38.5-122v-6q0-127-88.5-189.5T426 842z"/><glyph glyph-name="four.numr" horiz-adv-x="849" d="M688 1704v-547h105V997H688V852H508v145H41v164l469 543h178zm-469-547h289v322z"/><glyph glyph-name="five.numr" horiz-adv-x="868" d="M496 1423q145 0 227-69t82-209v-19q-3-284-367-284-183 0-276.5 71.5T68 1122v6h184v-14q0-115 188-115 95 0 138 29t43 90v33q0 123-183 123-118 0-190-72H78l35 502h653v-158H274l-20-205q97 82 242 82z"/><glyph glyph-name="six.numr" horiz-adv-x="880" d="M442 842q-188 0-278 83t-90 257v155q0 194 93.5 285.5T455 1714q165 0 250.5-62.5T791 1468v-4H608v4q0 39-38 60.5T459 1550q-201 0-201-141v-49q76 76 221 76 155 0 245.5-76t90.5-207v-23q0-142-94-215t-279-73zm-184 278q0-62 44.5-91.5T442 999q189 0 189 121v35q0 63-43 92t-139 29q-99 0-145-30.5t-46-92.5v-33z"/><glyph glyph-name="seven.numr" horiz-adv-x="763" d="M31 1546v158h694v-158q-61-41-110.5-85.5t-84-90.5-60-87.5-41-91T404 1106t-14-86.5-5.5-80T383 862v-10H201v10q0 62 2.5 108t12 114.5 31 125T302 1328t90 117.5T522 1546H31z"/><glyph glyph-name="eight.numr" horiz-adv-x="878" d="M438 842q-370 0-370 250v10q0 85 36.5 140t98.5 73q-55 18-87 61.5T84 1487v8q0 106 91.5 162.5T444 1714q351 0 351-221v-6q0-66-31.5-110t-85.5-62q62-19 97.5-73.5T811 1100v-8q0-250-373-250zm-186 260q0-62 40-87.5T438 989q107 0 149 25.5t42 87.5v24q0 58-41 82.5T438 1233q-107 0-146.5-24t-39.5-83v-24zm16 364q0-42 38-61t132-19q96 0 134 19t38 63v19q0 43-39 61.5T438 1567q-93 0-131.5-18.5T268 1485v-19z"/><glyph glyph-name="nine.numr" horiz-adv-x="878" d="M436 1714q189 0 279-82.5t90-257.5v-155q0-193-93-285t-288-92q-165 0-249.5 62T90 1087v5h182v-5q0-39 38.5-60t111.5-21q201 0 201 141v49q-76-76-224-76-155 0-245.5 76T63 1403v22q0 142 95 215.5t278 73.5zm-188-313q0-62 43.5-91.5T432 1280q191 0 191 123v33q0 62-45 91t-140 29q-98 0-144-29t-46-91v-35z"/><glyph glyph-name="exclamdown.case" horiz-adv-x="602" d="M438 0H162l18 1192h242zM137 1563q0 72 47.5 116.5T301 1724q71 0 118.5-44.5T467 1563q0-75-47.5-121.5T301 1395q-69 0-116.5 46.5T137 1563z"/><glyph glyph-name="questiondown.case" horiz-adv-x="1308" d="M655-20Q520-20 415 5T243 72.5 132 175 70.5 300 53 440q0 92 29 166t75 123.5 101.5 92 111 81 101.5 80 75 100.5 29 131v23h254v-25q0-83-16.5-152.5t-44.5-118-64-89.5-76.5-71.5T547 722t-76-56.5-64-59.5-44.5-72.5T346 442q0-225 307-225 168 0 243 78t75 225v43h293v-28q0-256-151-405.5T655-20zM539 1563q0 72 47 116.5t116 44.5q71 0 118.5-44.5T868 1563q0-75-47.5-121.5T702 1395q-69 0-116 46.5T539 1563z"/><glyph glyph-name="hyphen.case" horiz-adv-x="1708" d="M98 844h1512v-90H98v90z"/><glyph glyph-name="endash.case" horiz-adv-x="1859" d="M98 846h1663v-90H98v90z"/><glyph glyph-name="emdash.case" horiz-adv-x="3063" d="M98 846h2868v-92H98v92z"/><glyph glyph-name="parenleft.case" horiz-adv-x="616" d="M500-190Q290 75 192 322.5T94 858q0 289 98 532.5T500 1898h112q-219-282-317-519t-98-521q0-286 96.5-522T612-190H500z"/><glyph glyph-name="parenright.case" horiz-adv-x="616" d="M117 1901q210-265 307.5-513T522 852q0-289-97.5-532.5T117-188H4Q223 94 321.5 331T420 852q0 286-97 522.5T4 1901h113z"/><glyph glyph-name="braceleft.case" horiz-adv-x="616" d="M96 969q80 0 80 184v387q0 363 295 363h113v-97H473q-95 0-144.5-67.5T279 1548v-389q0-112-19-165.5T188 905v-94q53-35 72-88.5T279 557V170q0-124 49.5-192T473-90h111v-96H471q-295 0-295 364v385q0 92-21 138.5T96 748v221z"/><glyph glyph-name="braceright.case" horiz-adv-x="616" d="M520 745q-80 0-80-184V174q0-362-295-362H33v96h110q96 0 145.5 67.5T338 166v389q0 112 18.5 165.5T428 809v94q-53 35-71.5 88.5T338 1157v387q0 123-50 191.5T143 1804H33v97h112q295 0 295-365v-385q0-184 80-184V745z"/><glyph glyph-name="bracketleft.case" horiz-adv-x="649" d="M618 1903v-91H270V-100h348v-90H168v2093h450z"/><glyph glyph-name="bracketright.case" horiz-adv-x="645" d="M27-193v91h348v1912H27v91h450V-193H27z"/><glyph glyph-name="at.case" horiz-adv-x="1841" d="M975-2Q714-2 515.5 99.5t-309 295T96 848q0 203 60.5 367t170 273.5 262 168.5 335.5 59q388 0 604.5-213T1745 883q0-255-79-390t-232-135q-91 0-160 49t-92 140q-49-95-133-144t-195-49q-194 0-317 136T414 858t122.5 367T852 1360q106 0 188.5-45.5T1174 1182v157h176V627q0-96 26-138.5t82-42.5q91 0 137.5 114t46.5 323q0 368-186 553.5T924 1622q-161 0-294.5-51.5t-229-149T252 1177t-53-331q0-233 97-405t270.5-261.5T969 90q138 0 286 24t230 60V78q-88-35-229-57.5T975-2zM592 858q0-165 78-255.5T893 512q281 0 281 346 0 168-71 256t-210 88q-146 0-223.5-89.5T592 858z"/><glyph glyph-name="ampersand.ss01" horiz-adv-x="1179" d="M543-20q-229 0-341 121.5T90 451v51q0 289 223 379-204 85-204 366v49q0 49 10 100t39.5 112 76 107 128.5 77.5 188 31.5q215 0 327.5-111.5T991 1282v-82H709v78q0 119-39 166t-117 47q-79 0-118.5-46T395 1284v-96q0-118 43-163.5T567 979h142v115h282V979h113V756H991V436q0-456-448-456zM377 442q0-126 40.5-177.5T545 213q86 0 125 51.5T709 440v316H559q-182 0-182-224v-90z"/><glyph glyph-name="cent.tf" horiz-adv-x="1746" d="M813-143v311q-289 18-439.5 187T223 807v94q0 280 150 448.5T813 1536v311h123v-311q137-7 246.5-52t180-116.5 110-161T1520 1014l4-66h-277l-6 76q-10 106-86.5 182.5T936 1296V408q149 11 222 87t83 185l6 74h277l-6-64q-9-103-48-191.5t-108.5-161T1183 220t-247-52v-311H813zM504 793q0-165 75-265t234-118v884q-309-38-309-387V793z"/><glyph glyph-name="dollar.tf" horiz-adv-x="1746" d="M819-143v125Q524 1 373.5 146T223 555v49h289v-49q0-150 76.5-228T819 231v533l-121 45q-82 28-141.5 55.5t-116.5 68-92 88-56.5 114.5-21.5 149q0 203 145.5 317T819 1724v123h123v-125q252-19 394.5-147.5T1479 1223v-49h-287v40q0 227-250 259v-467l137-50q86-31 144.5-58.5T1340 829t91.5-89 54.5-117 21-156q0-472-565-487v-123H819zM559 1276q0-39 15-70.5t33.5-51 60-41 68-32T819 1051v424q-124-6-192-53.5T559 1286v-10zM942 227q131 6 205 64t74 170v12q0 32-7 58t-16 45-30.5 37-37 29-50.5 26-57 23-69 24l-12 4V227z"/><glyph glyph-name="Euro.tf" horiz-adv-x="1746" d="M80 721v86h135v90H80v86h137q7 159 57 292.5T414.5 1510t230 157.5T958 1724q162 0 293-51t217.5-141 136.5-207 60-254l2-74h-299l-2 93q-6 78-33.5 145t-76 120-124.5 83-171 30q-112 0-198-38t-138.5-105.5-80-153T512 983h567v-86H512v-90h567v-86H512q5-105 32.5-190.5T624 378t137-104.5T958 236q97 0 174 30.5t125 84 75.5 120.5 33.5 145l2 95h299l-2-74q-10-139-60-257t-136.5-208T1251 31 958-20q-174 0-312.5 56.5t-229 157-141 234T217 721H80z"/><glyph glyph-name="sterling.tf" horiz-adv-x="1746" d="M211 193q103 80 156 175t53 216q0 9-1 27t-1 26H211v119h178q-7 21-47.5 121.5t-58 178T266 1229q0 224 167.5 359.5T903 1724q311 0 476-156t165-435v-60h-293v66q0 176-85 264t-269 88q-173 0-255.5-76T559 1202q0-81 22.5-155t59-155.5T692 756h547V637H711q2-12 2-37 0-202-168-367h999V0H211v193z"/><glyph glyph-name="yen.tf" horiz-adv-x="1746" d="M266 569v82h432L76 1704h332l466-821 467 821h330L1051 651h430v-82h-463v-98h463v-82h-463V0H731v389H266v82h465v98H266z"/><glyph glyph-name="bouclecomb" horiz-adv-x="1341" d="M743-20q-159 0-266.5 59.5T309 184h-20v957h20q55 88 162 149.5t268 61.5q271 0 430.5-171.5T1329 735V590q0-269-160-439.5T743-20zM315 600q0-167 94-274t273-107q92 0 162.5 30T958 332.5t64.5 121.5 21.5 148v127q0 79-22 147t-65 121.5-114 84-163 30.5q-177 0-271-107.5T315 729V600z"/><glyph glyph-name="slashcomb" horiz-adv-x="1863" d="M207 12l1225 1680h217L424 12H207z"/></font>
</defs>
</svg>
