<svg xmlns="http://www.w3.org/2000/svg"><defs><font id="PPFormula-CondensedExtralight" horiz-adv-x="864"><font-face font-family="PP Formula Condensed Extralight" font-weight="200" font-stretch="extra-condensed" units-per-em="2048" ascent="1638" descent="-410" x-height="1331" cap-height="1638" bbox="-207 -424 3103 2062" underline-thickness="81" underline-position="-285" unicode-range="U+0020-FB02"/><glyph glyph-name="fi" unicode="fi" horiz-adv-x="917" d="M27 1331h161v62q0 43 3.5 76.5T208 1540t34.5 61.5 60.5 41 92 16.5q72 0 154-21v-94q-66 19-121 19-34 0-57-9t-35.5-22-19-38-8-46-1.5-57v-84q49 24 242 24v-96H307V0H188v1235H27v96zm624 232q0 40 28.5 68t72.5 28q43 0 70.5-27.5T850 1563q0-38-27.5-66.5T752 1468t-72 28.5-29 66.5zM692 0v1331h119V0H692z"/><glyph glyph-name="fl" unicode="fl" horiz-adv-x="935" d="M27 1331h161v62q0 43 3.5 76.5T208 1540t34.5 61.5 60.5 41 92 16.5q72 0 154-21v-94q-66 19-121 19-34 0-57-9t-35.5-22-19-38-8-46-1.5-57v-84q49 24 242 24v-96H307V0H188v1235H27v96zM711 0v1638h118V0H711z"/><glyph glyph-name=".notdef" horiz-adv-x="1024" d="M840 1638V-410H190v2048h650zM342-268h340v67H473l143 97h66v67H342v-67h143l-143-97v-67zm0 278h340v232H342V10zm0 355h340v231H477V481h70v47h67v-96H410v164h-68V365zm0 276h340v205h-68V711H342v-70zm0 117h205v143h135v68H342v-68h135v-76H342v-67zm0 266h340v70H547v143H342v-213zm0 266h340v68H547v76h135v67H344v-67h133v-76H342v-68zM410 78v96h204V78H410zm0 1016v73h67v-73h-67z"/><glyph glyph-name=".null" horiz-adv-x="0"/><glyph glyph-name="nonmarkingreturn" horiz-adv-x="682"/><glyph glyph-name="space" horiz-adv-x="395"/><glyph glyph-name="exclam" unicode="!" horiz-adv-x="368" d="M125 1638h121l-4-1126H125v1126zM72 92q0 50 32 81.5t80 31.5q46 0 79.5-32T297 92t-33.5-80.5T184-20q-48 0-80 31T72 92z"/><glyph glyph-name="quotedbl" unicode="&quot;" horiz-adv-x="430" d="M78 1638h106v-512H78v512zm168-512v512h106v-512H246z"/><glyph glyph-name="numbersign" unicode="#" horiz-adv-x="1544" d="M211 1128h395l189 510h104l-188-510h346l188 510h105l-189-510h328v-86h-361L963 596h368v-86H930L741 0H637l188 510H479L291 0H186l189 510H53v86h355l165 446H211v86zm301-532h346l166 446H678z"/><glyph glyph-name="dollar" unicode="$" horiz-adv-x="833" d="M375-143v125Q217-6 140 93T63 391v158h121V389q0-157 46.5-226.5T375 82v739l-99 70q-104 75-153 168.5T74 1296q0 342 301 361v125h84v-125q152-11 227.5-107.5T762 1260v-93H641v88q0 161-47 227t-135 74V905l88-63q77-55 123.5-111.5t74-145T772 377q0-188-71.5-287.5T459-20v-123h-84zM195 1305q0-119 37-191t116-131l27-18v591q-92-8-136-64t-44-181v-6zM459 82q104 7 147 71t43 212v6q0 148-39 228T479 745l-20 15V82z"/><glyph glyph-name="percent" unicode="%" horiz-adv-x="1169" d="M291 0l493 1638h95L383 0h-92zM35 1348q0 62 13.5 115.5T91 1562t80 71 120 26q68 0 118.5-26t79.5-71 42.5-98.5T545 1348t-13.5-116-42.5-99-79.5-71-118.5-26q-69 0-120 26t-80 71-42.5 99T35 1348zm112 0q0-100 33-155.5t111-55.5q77 0 109 55.5t32 155.5q0 211-141 211-144 0-144-211zM627 291q0 62 13.5 115.5t42 98.5 79 71T881 602q68 0 118.5-26t79.5-71 42.5-98.5T1135 291q0-61-13.5-114.5t-42.5-99T999.5 6 881-20 762 6t-79.5 71.5-42 98.5T627 291zm110 0q0-211 144-211 143 0 143 211T881 502q-78 0-111-55.5T737 291z"/><glyph glyph-name="ampersand" unicode="&amp;" horiz-adv-x="915" d="M424-20q-98 0-168 35.5T149.5 113t-52 132T82 399v82q0 135 52 229.5T279 834q-90 24-143.5 118.5T82 1190v65q0 59 7.5 110.5t31 107.5 60.5 95.5 101 65 148 25.5q330 0 330-406v-84H641v91q0 91-15.5 152.5t-46 93.5-66.5 44.5-85 12.5q-112 0-168.5-71.5T203 1257v-77q0-77 16.5-134.5T260 957t58-49.5 61-23.5 57-5h205v141h119V879h94v-95h-94V389q0-409-336-409zM203 391q0-170 56.5-242.5T428 76q49 0 84.5 13t66 45.5 46.5 96T641 387v397H436q-30 0-57-5t-61-23-58-48-40.5-85.5T203 492V391z"/><glyph glyph-name="quotesingle" unicode="'" horiz-adv-x="260" d="M78 1638h106v-512H78v512z"/><glyph glyph-name="parenleft" unicode="(" horiz-adv-x="534" d="M408-301Q228-54 148 185.5T68 707q0 284 80 519.5T408 1710h112q-189-267-269.5-493T170 707q0-285 79.5-510.5T520-301H408z"/><glyph glyph-name="parenright" unicode=")" horiz-adv-x="534" d="M127 1714q180-247 260-486t80-521q0-284-80-520T127-297H14Q204-29 284.5 197T365 707q0 285-79.5 510T14 1714h113z"/><glyph glyph-name="asterisk" unicode="*" horiz-adv-x="638" d="M279 1659h81v-240l191 101 41-70-186-98 186-99-41-69-191 100v-240h-81v240L88 1184l-41 69 186 99-186 98 41 70 191-101v240z"/><glyph glyph-name="plus" unicode="+" horiz-adv-x="948" d="M53 766v92h377v373h88V858h375v-92H518V391h-88v375H53z"/><glyph glyph-name="comma" unicode="," horiz-adv-x="333" d="M72-117q44 15 91.5 55T223 20q-24-40-78-40-41 0-68.5 29T49 92q0 51 31 82t88 31q52 0 83.5-37.5T283 70q0-171-211-291v104z"/><glyph glyph-name="hyphen" unicode="-" horiz-adv-x="952" d="M57 719h840v-86H57v86z"/><glyph glyph-name="period" unicode="." horiz-adv-x="331" d="M166-20q-48 0-80.5 31T53 92t32.5 81.5T166 205q46 0 79.5-32T279 92t-33.5-80.5T166-20z"/><glyph glyph-name="slash" unicode="/" horiz-adv-x="776" d="M745 1638L137 0H33l608 1638h104z"/><glyph glyph-name="zero" unicode="0" horiz-adv-x="897" d="M449-18Q96-18 96 393v854q0 412 353 412 354 0 354-412V393q0-411-354-411zM221 385q0-43 2-63l428 1114q-25 70-75.5 98.5T449 1563q-54 0-93-13.5t-71-47-48-95-16-152.5V385zm39-211q51-96 189-96 55 0 94.5 13.5t71 46.5 47.5 94.5T678 385v881z"/><glyph glyph-name="one" unicode="1" horiz-adv-x="698" d="M55 96h248v1366q-37-61-101.5-94T53 1335v103q94 0 153.5 51t98.5 149h119V96h248V0H55v96z"/><glyph glyph-name="two" unicode="2" horiz-adv-x="829" d="M66 100q0 95 6 152.5t28 129 69 141T295 678l178 192q83 88 126.5 179.5T643 1266v8q0 88-16 147t-47.5 89-67.5 41.5-86 11.5q-51 0-87-11.5t-68-41.5-48-90-16-150v-103H82v97q0 195 83 295t261 100q176 0 259-99.5t83-293.5q0-81-18-154t-52.5-133.5-65-102T559 788L383 598q-53-58-76-85.5t-52-73-39.5-87.5-18-105T190 96h576V0H66v100z"/><glyph glyph-name="three" unicode="3" d="M422-20q-177 0-262.5 99.5T74 379v110h123V377q0-92 17-154t50-93 70-42.5T422 76q114 0 172.5 70T653 383v106q0 83-17.5 145T594 728.5 536.5 781 479 806t-49 5H299v98h131q24 0 49 5t57.5 22 57 45 42 80 17.5 121v86q0 72-13 126t-34 86-52 51-61 25.5-67 6.5q-53 0-91-11.5t-71-41.5-50-90-17-150v-101H74v95q0 197 84.5 296t267.5 99q178 0 265-104.5t87-290.5v-74q0-120-55-211T573 862q98-31 151.5-130.5T778 481v-92q0-66-9.5-122.5T734 156t-64-92T567.5 3 422-20z"/><glyph glyph-name="four" unicode="4" horiz-adv-x="792" d="M627 1638V453h127v-97H627V0H506v356H35v101l475 1181h117zM143 453h363v913z"/><glyph glyph-name="five" unicode="5" horiz-adv-x="849" d="M461 1098q155 0 237-108.5T780 688V401q0-203-90.5-312T422-20Q249-20 161.5 92T74 414v75h125v-83q0-181 61-255.5T428 76q112 0 169.5 73.5T655 389v299q0 150-53.5 230.5T444 999q-56 0-97.5-21.5t-67.5-63-41.5-90T213 711H90l43 927h574v-96H246l-29-590q73 146 244 146z"/><glyph glyph-name="six" unicode="6" horiz-adv-x="878" d="M449-20Q96-20 96 397v852q0 410 344 410 82 0 142.5-22.5T678 1579t56-89.5 27.5-107T768 1262v-33H643v33q0 161-44.5 229T442 1559q-117 0-169-68t-52-229V946q88 152 262 152 155 0 236.5-109T801 688V397q0-201-87-309T449-20zM221 393q0-93 17.5-157t50.5-98 71.5-48T449 76q115 0 171 75t56 244v295q0 309-215 309-111 0-175.5-85T221 692V393z"/><glyph glyph-name="seven" unicode="7" horiz-adv-x="765" d="M29 1542v96h692v-96q-210-335-298.5-674T334 27V0H213v25q0 500 91.5 840.5T612 1542H29z"/><glyph glyph-name="eight" unicode="8" horiz-adv-x="866" d="M432-20q-182 0-266 93.5T82 365v147q0 156 50 239.5T276 864q-176 63-176 303v142q0 162 82 256t250 94q170 0 251-94t81-256v-142q0-241-174-303 94-31 144-114.5T784 512V365q0-197-85-291T432-20zM207 362q0-75 12-128t30.5-83.5 49-47.5T359 81t73-5 73.5 5 61.5 22 49.5 47.5T647 234t12 128v162q0 86-16.5 144.5t-49 88-70.5 41-91 11.5q-52 0-89.5-11.5t-70-41-49-88T207 524V362zm18 797q0-135 52.5-193.5T432 907q209 0 209 252v152q0 135-53.5 193.5T432 1563q-101 0-154-58.5T225 1311v-152z"/><glyph glyph-name="nine" unicode="9" horiz-adv-x="878" d="M430 1659q352 0 352-418V389q0-409-344-409-82 0-142.5 22.5t-95 57.5-55.5 89.5-27.5 107T111 377v33h125v-33q0-161 44-229t156-68q117 0 169 68t52 229v315q-87-151-262-151-155 0-236 108.5T78 950v291q0 201 87 309.5T430 1659zM203 948q0-309 215-309 111 0 175 85t64 222v299q0 93-17.5 157.5t-50.5 98-71 48-88 14.5q-115 0-171-75t-56-245V948z"/><glyph glyph-name="colon" unicode=":" horiz-adv-x="391" d="M197 895q-48 0-80.5 31.5T84 1008t32.5 81 80.5 31q46 0 79-31.5t33-80.5q0-50-33-81.5T197 895zM84 92q0 50 32.5 81.5T197 205q46 0 79-31.5T309 92q0-49-33-80.5T197-20q-48 0-80.5 31T84 92z"/><glyph glyph-name="semicolon" unicode=";" horiz-adv-x="389" d="M201 895q-48 0-80.5 31.5T88 1008t32.5 81 80.5 31q46 0 79-31.5t33-80.5q0-50-33-81.5T201 895zM74 92q0 51 31 82t88 31q52 0 83-37t31-98q0-171-211-291v104q44 16 92 55.5T248 20q-24-40-78-40-41 0-68.5 29T74 92z"/><glyph glyph-name="less" unicode="&lt;" horiz-adv-x="970" d="M51 852l840 326v-103L195 811l696-264V444L51 770v82z"/><glyph glyph-name="equal" unicode="=" horiz-adv-x="999" d="M80 956h840v-86H80v86zm0-290v86h840v-86H80z"/><glyph glyph-name="greater" unicode="&gt;" horiz-adv-x="970" d="M920 770L80 444v103l696 264-696 264v103l840-326v-82z"/><glyph glyph-name="question" unicode="?" horiz-adv-x="745" d="M379 1659q162 0 242.5-93t80.5-245q0-89-28-166.5T606.5 1017t-79-123T460 742.5 432 549v-37H317v39q0 106 27.5 197.5t66.5 157 77.5 127.5 66 137.5T582 1329q0 122-55 178t-152 56q-213 0-213-289v-105H41v97q0 83 18 151.5t56.5 124T221 1628t158 31zM262 92q0 50 32.5 81.5T375 205q46 0 79-31.5T487 92q0-49-33-80.5T375-20q-48 0-80.5 31T262 92z"/><glyph glyph-name="at" unicode="@" horiz-adv-x="1263" d="M729-74q-316 0-487.5 190.5T70 698q0 157 32 285.5t87.5 216T322 1347t164 87.5 184 27.5q99 0 177.5-24t144.5-79.5 110-143.5 68-220.5 24-306.5q0-119-9.5-203.5t-33-150T1085 237t-106-32q-129 0-166 127-67-146-203-146-128 0-203 128.5T332 670t74.5 355T610 1153q119 0 185-111v109h108V481q0-192 88-192 101 0 101 399 0 160-18.5 279.5T1021 1165t-87 126-115.5 67.5T674 1378q-80 0-152-23.5T385.5 1279 274 1149.5 199.5 956 172 698q0-181 39.5-314.5T326 169 501.5 49 731 10q174 0 326 64v-84Q901-74 729-74zM440 670q0-192 49.5-286.5T629 289q88 0 127 91t39 290q0 198-39.5 290.5T629 1053q-90 0-139.5-95.5T440 670z"/><glyph glyph-name="A" unicode="A" horiz-adv-x="788" d="M39 0l266 1638h178L750 0H625l-58 375H221L164 0H39zm197 475h315L393 1501z"/><glyph glyph-name="B" unicode="B" horiz-adv-x="870" d="M106 0v1638h283q102 0 170-16t117-56.5 71.5-109.5 22.5-174v-80q0-239-186-317 105-36 165-124.5T809 500v-88q0-234-90.5-323T389 0H106zm125 100h146q69 0 116 5t82.5 20 55.5 35.5 32.5 58T680 299t4 109v98q0 169-71 247t-236 78H231V100zm0 832h146q63 0 108 10.5t83 38 57.5 81.5 19.5 134v88q0 85-14 136t-50 77-80.5 33.5T377 1538H231V932z"/><glyph glyph-name="C" unicode="C" horiz-adv-x="876" d="M444-20Q90-20 90 395v852q0 412 354 412 353 0 353-412V971H672v284q0 89-16 150t-48 94-71 46.5-93 13.5q-113 0-171-66t-58-238V387q0-91 16-152.5t47.5-94.5 71-46.5T444 80q54 0 93 13.5t71 46.5 48 95 16 152v281h125V395q0-415-353-415z"/><glyph glyph-name="D" unicode="D" horiz-adv-x="907" d="M106 0v1638h279q73 0 126-6t105-22 86-46 61-77 39.5-116 12.5-161V428q0-92-12.5-161T763 151t-61-77-86-46T511 6 385 0H106zm125 98h154q74 0 120.5 7t85 25.5T649 186t30.5 93.5T690 422v795q0 72-6.5 122.5t-22.5 87-37.5 58-58 34.5-77.5 17-103 4H231V98z"/><glyph glyph-name="E" unicode="E" horiz-adv-x="741" d="M106 0v1638h574v-100H231V870h433V768H231V100h449V0H106z"/><glyph glyph-name="F" unicode="F" horiz-adv-x="716" d="M106 0v1638h574v-100H231V788h431V686H231V0H106z"/><glyph glyph-name="G" unicode="G" horiz-adv-x="884" d="M426-20Q254-20 172 89.5T90 393v854q0 412 354 412 353 0 353-412v-192H672v200q0 89-16 150t-48 94-71 46.5-93 13.5q-113 0-171-66t-58-238V387q0-170 54-238.5T446 80q128 0 177 73.5T672 403v320H444v98h353V0h-88l-11 133Q614-20 426-20z"/><glyph glyph-name="H" unicode="H" horiz-adv-x="913" d="M684 0v768H231V0H106v1638h125V870h453v768h123V0H684z"/><glyph glyph-name="I" unicode="I" horiz-adv-x="337" d="M106 0v1638h125V0H106z"/><glyph glyph-name="J" unicode="J" horiz-adv-x="825" d="M389-20Q53-20 53 395v176h125V387q0-90 16-152t46-95 66-46.5T389 80q99 0 154 67t55 240v1251h125V395q0-415-334-415z"/><glyph glyph-name="K" unicode="K" horiz-adv-x="817" d="M664 0L260 764h-29V0H106v1638h125V874h29l404 764h135L358 819 799 0H664z"/><glyph glyph-name="L" unicode="L" horiz-adv-x="712" d="M106 0v1638h125V100h449V0H106z"/><glyph glyph-name="M" unicode="M" horiz-adv-x="1044" d="M106 0v1638h179L522 236l238 1402h178V0H821v1360L584 0H461L223 1360V0H106z"/><glyph glyph-name="N" unicode="N" horiz-adv-x="921" d="M106 0v1638h121L696 311v1327h119V0H692L223 1329V0H106z"/><glyph glyph-name="O" unicode="O" horiz-adv-x="886" d="M444-20Q90-20 90 391v856q0 412 354 412 353 0 353-412V391q0-411-353-411zM215 387q0-89 16-150t47.5-93.5 71-46T444 84q54 0 93 13.5t71 46 48 93.5 16 150v864q0 89-16 150t-48 93.5-71 46-93 13.5q-55 0-94.5-13.5t-71-46T231 1401t-16-150V387z"/><glyph glyph-name="P" unicode="P" horiz-adv-x="866" d="M106 0v1638h295q229 0 322.5-108t93.5-359v-71q0-253-95-369.5T401 614H231V0H106zm125 713h175q158 0 222 82.5t64 291.5v97q0 141-29 218t-89 107.5-168 30.5H231V713z"/><glyph glyph-name="Q" unicode="Q" horiz-adv-x="886" d="M444 84q54 0 93 13.5t71 46 48 93.5 16 150v864q0 89-16 150t-48 93.5-71 46-93 13.5q-55 0-94.5-13.5t-71-46T231 1401t-16-150V387q0-89 16-150t47.5-93.5 71-46T444 84zM90 391v856q0 412 354 412 353 0 353-412V391Q797 7 487-18q115-31 191-101v-123q-88 79-177 117.5T303-86V0Q90 71 90 391z"/><glyph glyph-name="R" unicode="R" horiz-adv-x="878" d="M692 0q-22 28-22 145v320q0 59-11.5 105.5t-28.5 77-44 53-51.5 34-57 18-55 8T371 762H231V0H106v1638h263q127 0 205.5-17t131-63.5 73-123T799 1235v-41q0-92-16.5-159t-68-127T575 815q110-38 165-123.5T795 461V145q0-115 22-145H692zM231 860h140q76 0 131.5 17t88.5 44 52 70 25 86.5 6 102.5v59q0 54-3.5 94.5t-12.5 72-19.5 53-31 37-40.5 24-53.5 13-64 6-78.5 1.5H231V860z"/><glyph glyph-name="S" unicode="S" horiz-adv-x="835" d="M420-20Q238-20 149.5 80.5T61 397v154h125V387q0-175 56-241t180-66q121 0 171 62.5T643 362v11q0 99-19.5 168t-54 113-96.5 91L285 889q-105 82-155 174t-50 231q0 365 340 365 175 0 260.5-97.5T766 1255v-88H641v90q0 76-11 130.5t-29.5 87.5-47.5 52-60 25.5-73 6.5q-112 0-163.5-55T205 1313v-8q0-117 36.5-187.5T356 985l189-143q116-89 169.5-190T768 379q0-197-80.5-298T420-20z"/><glyph glyph-name="T" unicode="T" horiz-adv-x="737" d="M305 0v1538H39v100h657v-100H430V0H305z"/><glyph glyph-name="U" unicode="U" horiz-adv-x="911" d="M455-20q-353 0-353 415v1243h125V387q0-90 16-152t48-95 71-46.5T455 80q55 0 94.5 13.5t71 46.5 47.5 94.5T684 387v1251h125V395q0-199-83.5-307T455-20z"/><glyph glyph-name="V" unicode="V" horiz-adv-x="788" d="M305 0L39 1638h125L395 143l230 1495h125L483 0H305z"/><glyph glyph-name="W" unicode="W" horiz-adv-x="1441" d="M305 0L37 1638h123L393 150l238 1488h182l236-1488 2-7v7l231 1488h123L1137 0H961L723 1468l-2 13-2-13L481 0H305z"/><glyph glyph-name="X" unicode="X" horiz-adv-x="804" d="M23 0l315 854-301 784h127l239-643 240 643h125L467 854 782 0H657L401 713 147 0H23z"/><glyph glyph-name="Y" unicode="Y" horiz-adv-x="776" d="M326 0v573L27 1638h129l231-895 231 895h130L451 573V0H326z"/><glyph glyph-name="Z" unicode="Z" horiz-adv-x="727" d="M47 0v100l508 1438H47v100h633v-100L172 100h508V0H47z"/><glyph glyph-name="bracketleft" unicode="[" horiz-adv-x="509" d="M475 1714v-86H211V-215h264v-86H109v2015h366z"/><glyph glyph-name="backslash" unicode="\" horiz-adv-x="776" d="M33 1638h104L745 0H641z"/><glyph glyph-name="bracketright" unicode="]" horiz-adv-x="509" d="M35-301v86h264v1843H35v86h366V-301H35z"/><glyph glyph-name="asciicircum" unicode="^" horiz-adv-x="718" d="M571 1024l-213 524-213-524H35l250 614h147l250-614H571z"/><glyph glyph-name="underscore" unicode="_" horiz-adv-x="1187" d="M0-160h1188v-86H0v86z"/><glyph glyph-name="grave" unicode="`" horiz-adv-x="993" d="M788 1532l-20-78-563 150 20 79z"/><glyph glyph-name="a" unicode="a" horiz-adv-x="835" d="M616 0v190Q544-20 340-20q-132 0-208.5 81T55 297q0 71 20 132.5t56 109 73.5 82T291 688l74 49q110 75 145 106 103 93 104 197v21q0 194-186 194-104 0-165.5-66T201 987v-84H80v80q0 55 10 105.5t35 99.5 63 84.5 99 57.5 139 22q309 0 309-322V0H616zM176 301q0-100 46.5-161.5T365 78q119 0 184 121t65 327v316q-4-14-11.5-28.5t-15-25.5-22.5-25.5-23-22.5-28.5-23-27.5-20-30.5-21-27.5-19l-80-55Q176 477 176 301z"/><glyph glyph-name="b" unicode="b" horiz-adv-x="849" d="M106 0v1638h119v-456q31 70 93 120t161 50q137 0 211-97t74-284V358q0-186-76-282T477-20q-96 0-157.5 48.5T225 145V0H106zm119 373q0-53 13-103t39-94.5 71.5-72T453 76q104 0 147 74.5T643 365v602q0 139-43 213.5T453 1255q-59 0-104.5-27.5t-71.5-72-39-94.5-13-103V373z"/><glyph glyph-name="c" unicode="c" horiz-adv-x="813" d="M621 948q0 91-14 152.5t-42 94.5-63 46.5-84 13.5-86-13.5-67-46.5-46-95-16-152V383q0-90 16-152t46-95 67-46.5T418 76t84 13.5 63 46.5 42 94.5T621 383v139h120V391q0-199-75-305T418-20Q82-20 82 391v551q0 410 334 410 90 0 153.5-28.5t100.5-84 54-128.5 17-169V809H621v139z"/><glyph glyph-name="d" unicode="d" horiz-adv-x="849" d="M623 1638h120V0H623v150q-31-70-93-120T369-20q-137 0-211 96.5T84 360v613q0 187 76 283t211 96q171 0 252-166v452zM205 365q0-140 43-214.5T395 76q59 0 104.5 27.5t71.5 72 39 94.5 13 103v585q0 53-13 103t-39 94.5-71.5 72T395 1255q-104 0-147-74.5T205 967V365z"/><glyph glyph-name="e" unicode="e" horiz-adv-x="819" d="M82 391v551q0 410 334 410 90 0 153.5-28.5t100.5-84 54-128.5 17-169V657H203V383q0-90 16-152t46-95 67-46.5T418 76t84 13.5 63 46.5 42 94.5T621 383v41h120v-33q0-199-75-305T418-20Q82-20 82 391zm121 361h418v196q0 91-14 152.5t-42 94.5-63 46.5-84 13.5-86-13.5-67-46.5-46-95-16-152V752z"/><glyph glyph-name="f" unicode="f" horiz-adv-x="575" d="M27 1331h161v62q0 43 3.5 76.5T208 1540t34.5 61.5 60.5 41 92 16.5q72 0 154-21v-94q-66 19-121 19-34 0-57-9t-35.5-22-19-38-8-46-1.5-57v-84q49 24 242 24v-96H307V0H188v1235H27v96z"/><glyph glyph-name="g" unicode="g" horiz-adv-x="847" d="M623-2v152q-31-70-93-120T369-20q-137 0-211 96.5T84 360v613q0 187 76 283t211 96q171 0 252-166v145h120V-20q0-100-16-169.5t-54.5-121-106-75.5T399-410H127v97h264q137 0 184.5 70.5T623-2zM205 365q0-140 43-214.5T395 76q59 0 104.5 27.5t71.5 72 39 94.5 13 103v585q0 53-13 103t-39 94.5-71.5 72T395 1255q-104 0-147-74.5T205 967V365z"/><glyph glyph-name="h" unicode="h" d="M225 1638v-450q77 164 267 164 136 0 204-90t68-277V0H643v983q0 136-41.5 204T459 1255q-62 0-109-27.5t-73-72.5-39-96-13-105V0H106v1638h119z"/><glyph glyph-name="i" unicode="i" horiz-adv-x="331" d="M106 1331h119V0H106v1331zm-40 232q0 40 28 68t72 28q43 0 70.5-27.5T264 1563q0-38-27.5-66.5T166 1468t-71.5 28.5T66 1563z"/><glyph glyph-name="j" unicode="j" horiz-adv-x="331" d="M106-20v1351h119V-41q0-92-15.5-157.5T157-313 56-386t-158-24h-93v97h86q125 0 170 68.5T106-20zM66 1563q0 40 28 68t72 28q43 0 70.5-27.5T264 1563q0-38-27.5-66.5T166 1468t-71.5 28.5T66 1563z"/><glyph glyph-name="k" unicode="k" horiz-adv-x="819" d="M106 1638h119V715h33l410 616h139L354 666 807 0H668L256 618h-31V0H106v1638z"/><glyph glyph-name="l" unicode="l" horiz-adv-x="331" d="M106 1638h119V0H106v1638z"/><glyph glyph-name="m" unicode="m" horiz-adv-x="1288" d="M1067 995q0 62-6 105.5t-21.5 80.5-46 55.5T918 1255q-70 0-119.5-45T728 1102t-21-135V0H588v995q0 127-32.5 193.5T436 1255q-70 0-119.5-45T246 1102t-21-135V0H106v1331h119v-151q57 172 248 172 193 0 219-181 41 88 102 134.5t158 46.5q128 0 182-86t54-269V0h-121v995z"/><glyph glyph-name="n" unicode="n" d="M225 1331v-143q77 164 267 164 136 0 204-90t68-277V0H643v983q0 136-41.5 204T459 1255q-62 0-109-27.5t-73-72.5-39-96-13-105V0H106v1331h119z"/><glyph glyph-name="o" unicode="o" horiz-adv-x="823" d="M412-20Q82-20 82 391v551q0 410 330 410 329 0 329-410V391q0-411-329-411zM203 383q0-173 55-240t154-67 154 67 55 240v565q0 173-55 240t-154 67-154-67-55-240V383z"/><glyph glyph-name="p" unicode="p" horiz-adv-x="849" d="M225 1331v-149q31 70 93 120t161 50q137 0 211-97t74-284V358q0-186-76-282T477-20q-96 0-157.5 48.5T225 145v-555H106v1741h119zm0-958q0-53 13-103t39-94.5 71.5-72T453 76q104 0 147 74.5T643 365v602q0 139-43 213.5T453 1255q-59 0-104.5-27.5t-71.5-72-39-94.5-13-103V373z"/><glyph glyph-name="q" unicode="q" horiz-adv-x="847" d="M623-410v560q-31-70-93-120T369-20q-137 0-211 96.5T84 360v613q0 187 76 283t211 96q171 0 252-166v145h120V-410H623zM205 365q0-140 43-214.5T395 76q59 0 104.5 27.5t71.5 72 39 94.5 13 103v585q0 53-13 103t-39 94.5-71.5 72T395 1255q-104 0-147-74.5T205 967V365z"/><glyph glyph-name="r" unicode="r" horiz-adv-x="757" d="M225 1331v-139q80 160 252 160 131 0 189.5-85t58.5-245V901H606v100q0 133-38 193.5T442 1255q-51 0-91-23.5t-63-58-38-79.5-20-83-5-73V0H106v1331h119z"/><glyph glyph-name="s" unicode="s" horiz-adv-x="784" d="M528 662q68-56 106.5-101T695 455t22-140q0-50-7.5-93t-29-89-56-78.5T530 1 391-20Q59-20 59 338v92h119v-92q0-138 50.5-200T389 76q111 0 160 55.5T598 305q0 92-30.5 146T455 573L262 733q-45 36-71 61.5t-55.5 65-43.5 87T78 1053q0 44 7.5 82.5t29 79.5 55 70.5 91 48T393 1352q173 0 248.5-94.5T717 989v-65H598v65q0 148-50.5 207T395 1255q-97 0-146.5-48T199 1057q0-78 31-125.5T336 821z"/><glyph glyph-name="t" unicode="t" horiz-adv-x="589" d="M549 1331v-96H307V317q0-138 19-178.5T418 98h131V0H393q-55 0-93 14.5T240 52t-34.5 63.5-16 81T186 297v938H27v96q90 26 146 112t54 195h119q0-111-51-198t-111-109h365z"/><glyph glyph-name="u" unicode="u" d="M639 0v147Q560-20 371-20q-137 0-205 89.5T98 346v985h121V348q0-136 41.5-204T403 76q62 0 109 27.5t73 72.5 39 96 13 105l2-53v1007h119V0H639z"/><glyph glyph-name="v" unicode="v" horiz-adv-x="741" d="M35 1331h121L371 164l215 1167h121L446 0H297z"/><glyph glyph-name="w" unicode="w" horiz-adv-x="1335" d="M37 1331h119L371 158l215 1173h164L965 162l215 1169h118L1040 0H895L668 1200 438 0H295z"/><glyph glyph-name="x" unicode="x" horiz-adv-x="796" d="M12 0l320 690-295 641h127l239-522 238 522h123L465 688 784 0H655L395 571 135 0H12z"/><glyph glyph-name="y" unicode="y" horiz-adv-x="860" d="M637-2v149Q558-20 369-20q-137 0-205 89.5T96 346v985h121V348q0-136 41.5-204T401 76q62 0 109 27.5t73 72.5 39 96 13 105l2-53v1007h119V-2q0-102-16-173t-54.5-126T576-383t-177-27H139v97h246q79 0 128.5 17.5T590-237t37 95T637-2z"/><glyph glyph-name="z" unicode="z" horiz-adv-x="692" d="M45 1331h602v-96L168 98h473V0H51v98l477 1137H45v96z"/><glyph glyph-name="braceleft" unicode="{" horiz-adv-x="503" d="M66 815q79 0 79 178v371q0 184 60 267t186 83h80v-92h-78q-81 0-113-62.5T248 1372V999q0-108-18.5-160T158 754v-90q53-33 71.5-85.5T248 418V45q0-125 32-187.5T393-205h78v-92h-80q-126 0-186 83T145 53v371q0 178-79 178v213z"/><glyph glyph-name="bar" unicode="|" horiz-adv-x="317" d="M106-20v1679h103V-20H106z"/><glyph glyph-name="braceright" unicode="}" horiz-adv-x="503" d="M438 602q-80 0-80-178V53q0-184-59.5-267T113-297H33v92h78q81 0 113 62.5T256 45v373q0 108 18.5 160.5T346 664v90q-53 33-71.5 85T256 999v373q0 125-32 187.5T111 1622H33v92h80q126 0 185.5-83t59.5-267V993q0-178 80-178V602z"/><glyph glyph-name="asciitilde" unicode="~" horiz-adv-x="962" d="M61 727q0 69 19.5 116.5t53 69.5 65 30.5T266 952q67 0 131.5-29t107-63 94.5-63 97-29q47 0 75 31.5t28 91.5h102q0-69-19.5-116.5t-53-69.5-65-30.5T696 666q-67 0-131.5 29t-107 63-94.5 63-97 29q-47 0-74.5-31.5T164 727H61z"/><glyph glyph-name="uni00A0" horiz-adv-x="395"/><glyph glyph-name="exclamdown" unicode="¡" horiz-adv-x="358" d="M238-307H117l4 1126h117V-307zM66 1239q0 50 33 81.5t79 31.5q48 0 80.5-31.5T291 1239t-32.5-81.5T178 1126q-46 0-79 31.5T66 1239z"/><glyph glyph-name="cent" unicode="¢" horiz-adv-x="817" d="M371-143v278Q80 163 80 545v551q0 382 291 407v279h84v-279q154-11 222-116.5t68-290.5V963H627v137q0 109-21.5 176.5t-58 96T455 1407V231q42 5 72 22t53.5 52 35 93T627 539v137h118V545q0-189-68-294.5T455 135v-278h-84zM197 539q0-282 174-306v1172q-174-24-174-305V539z"/><glyph glyph-name="sterling" unicode="£" horiz-adv-x="868" d="M57 92q91 75 133.5 166T233 477q0 77-12 150H57v86h148q-7 31-29 116.5t-32 133-20.5 127.5-10.5 155q0 110 29.5 192.5t81 129.5 113.5 69.5 134 22.5q151 0 244.5-95.5T809 1278v-135H688v139q0 142-56.5 211.5T473 1563q-49 0-90.5-16.5t-76-51.5-54-98-19.5-148q0-100 13-185.5t44-206T326 713h372v-86H342q12-67 12-142 0-127-41-219.5T186 96h623V0H57v92z"/><glyph glyph-name="currency" unicode="¤" horiz-adv-x="765" d="M383 418q-82 0-141 47L133 313l-72 72 113 154q-70 112-70 280 0 169 70 281L61 1253l72 72 109-151q59 47 141 47 80 0 141-45l109 149 72-72-113-155q70-112 70-279 0-168-70-280l113-154-72-72-109 152q-59-47-141-47zM207 819q0-139 44-224t132-85 132 85 44 224-44 224-132 85-132-85-44-224z"/><glyph glyph-name="yen" unicode="¥" horiz-adv-x="800" d="M76 553v82h246L39 1638h129l231-895 232 895h129L479 635h244v-82H463v-82h260v-82H463V0H338v389H76v82h262v82H76z"/><glyph glyph-name="brokenbar" unicode="¦" horiz-adv-x="317" d="M106 1004v655h103v-655H106zm0-1024v655h103V-20H106z"/><glyph glyph-name="section" unicode="§" horiz-adv-x="849" d="M453-20Q274-20 184 81T96 365h105q-3-148 63.5-226T455 61q99 0 158 51t59 158q0 134-111 172L250 549q-106 37-145 90.5T66 764q0 148 124 190-114 72-114 213 0 149 92 221t240 72q349 0 346-385H649q6 303-243 303-100 0-164-52t-64-155q0-131 111-170l313-106q95-32 138.5-85T784 676q0-147-118-189 108-72 108-213 0-152-87.5-223T453-20zM168 768q0-54 27-86t84-51l237-78q41-15 70-11t47.5 15.5 29.5 33 15 41 4 40.5q0 104-111 141l-239 80q-49 13-81 7.5T200.5 870 175 820t-7-52z"/><glyph glyph-name="dieresis" unicode="¨" horiz-adv-x="892" d="M606 1481q-36 0-61 23.5t-25 60.5q0 40 24.5 63t61.5 23 62.5-23 25.5-63q0-37-26-60.5t-62-23.5zm-407 84q0 40 24.5 63t61.5 23 62.5-23 25.5-63q0-37-26-60.5t-62-23.5-61 23.5-25 60.5z"/><glyph glyph-name="copyright" unicode="©" horiz-adv-x="1540" d="M770-20q-156 0-278 45.5t-200 122T163 333 91 561 70 819t21 258 72 228 129 186 200 122.5 278 45.5 278-45.5 200-122.5 129-186 72-228 21-258-21-258-72-228-129-185.5-200-122T770-20zM172 819q0-105 11-193.5t36.5-174 71-151 110-115.5T559 108.5 770 82q135 0 239 39t171 105 110 161.5 60.5 201T1368 819t-17.5 230.5-60.5 201-110 161.5-171 105-239 39-239-39-171-105-110-161.5-60.5-201T172 819zm170 2q0 97 13 178.5t45 154.5 81.5 123 126 79.5T782 1386q87 0 154.5-23.5t111.5-63 74-98.5 45-121.5 21-139.5h-113q-5 45-10 75t-14.5 69-22.5 64.5-34.5 52.5-49.5 43-68 26-90 10q-80 0-139.5-24t-95.5-64-58-100.5T463 967t-8-146q0-83 8-148t29.5-126T550 446t94.5-64T782 358q51 0 91.5 10.5T942 395t50 44 34.5 53 22.5 64.5 14.5 68.5 9.5 73h113q-7-75-20-135t-42.5-120-72.5-100.5T939.5 277 782 252q-440 0-440 569z"/><glyph glyph-name="ordfeminine" unicode="ª" horiz-adv-x="565" d="M389 848v110q-44-122-162-122-76 0-121 49t-45 143q0 135 144 238l43 30q5 3 27 18.5t29 21 24.5 20 24.5 24 17 24 13.5 30 3.5 32.5v13q0 102-96 102-56 0-88.5-34.5T170 1442v-53H76v43q0 98 50.5 162.5T289 1659q194 0 194-205V848h-94zm-233 190q0-55 25-87.5t75-32.5q64 0 97.5 65t33.5 178v162q-4-11-10.5-21t-20.5-22-19-16.5-25-18-21-14.5l-43-31q-92-62-92-162z"/><glyph glyph-name="guillemotleft" unicode="«" horiz-adv-x="704" d="M358 307L53 635v82l305 327V920L131 676l227-244V307zm-36 328v82l305 327V920L399 676l228-244V307z"/><glyph glyph-name="logicalnot" unicode="¬" horiz-adv-x="985" d="M795 625v284H57v92h840V625H795z"/><glyph glyph-name="registered" unicode="®" horiz-adv-x="950" d="M475 733q-62 0-111 19t-80 53.5-52 74-31.5 89-14.5 90-4 84.5q0 54 5.5 102.5t24 107T260 1453t85.5 70.5T475 1552t129.5-28.5T690 1453t48.5-100.5 24-107T768 1143q0-44-4-84.5t-14.5-90-31.5-89-52-74-80-53.5-111-19zM68 1143q0-71 10-137.5T116 868t72-122.5 118-85T475 627t169.5 33.5 118 85 72 122.5 38.5 137.5 10 137.5-10 137.5-38.5 137.5-72 122.5-118 85T475 1659t-169-33.5-118-85-72-122.5-38-137.5T68 1143zm249-273v564h146q188 0 188-166 0-43-24.5-82.5T549 1126q100-34 100-145v-51q0-50 8-60H541q-11 14-11 60v51q0 52-15 71t-52 19h-27V870H317zm119 312h27q40 0 54.5 16.5T532 1255q0 42-17.5 56t-51.5 14h-27v-143z"/><glyph glyph-name="macron" unicode="¯" horiz-adv-x="993" d="M205 1528v82h583v-82H205z"/><glyph glyph-name="degree" unicode="°" horiz-adv-x="616" d="M307 1137q-147 0-147 215t147 215q148 0 148-215t-148-215zM57 1352q0-61 13.5-114t41.5-98 78-70.5 117-25.5 117 25.5 78 70.5 41.5 98 13.5 114-13.5 114-41.5 97.5-78 70-117 25.5-117-25.5-78-70-41.5-97.5T57 1352z"/><glyph glyph-name="plusminus" unicode="±" horiz-adv-x="948" d="M524 1231V860h369v-92H524V481h369v-92H53v92h369v287H53v92h369v371h102z"/><glyph glyph-name="uni00B2" unicode="²" horiz-adv-x="454" d="M43 793q0 88 25.5 150t97.5 136l74 74q42 42 60.5 85t18.5 101v13q0 68-23 92t-67 24q-42 0-64-24.5t-22-93.5v-62H49v51q0 203 180 203 183 0 183-207 0-58-19.5-109t-39-76.5T301 1090l-78-78q-53-53-69.5-93.5T137 786h273v-73H43v80z"/><glyph glyph-name="uni00B3" unicode="³" horiz-adv-x="464" d="M229 702Q45 702 45 907v54h92v-62q0-72 23-97.5t67-25.5q48 0 71.5 28.5T322 901v70q0 40-9.5 68.5t-25 41-29 17-27.5 4.5h-67v74h67q34 0 62.5 24.5T322 1288v60q0 70-25.5 95t-67.5 25q-45 0-68.5-24.5T137 1350v-56H45v47q0 201 184 201 97 0 141-58.5t44-140.5v-34q0-62-27-106.5t-76-59.5q103-39 103-189v-41q0-96-43.5-153.5T229 702z"/><glyph glyph-name="acute" unicode="´" horiz-adv-x="993" d="M225 1454l-20 78 563 151 20-79z"/><glyph glyph-name="paragraph" unicode="¶" horiz-adv-x="733" d="M522 1638h103V0H522v1638zM45 1282q0 113 16 184t52.5 108.5 83 50.5 120.5 13h103V0H317v926q-74 0-120.5 13t-83 50.5T61 1098t-16 184z"/><glyph glyph-name="periodcentered" unicode="·" horiz-adv-x="344" d="M172 586q-48 0-80.5 31T59 698t32.5 81.5T172 811q46 0 79.5-32t33.5-81-33.5-80.5T172 586z"/><glyph glyph-name="cedilla" unicode="¸" horiz-adv-x="780" d="M207-342q147 0 205.5 15.5T471-260q0 52-56.5 62T248-207L297 0h88l-35-135q225 32 225-125 0-57-33-91.5T426.5-405 205-424z"/><glyph glyph-name="uni00B9" unicode="¹" horiz-adv-x="391" d="M41 786h117v629q-37-57-121-57v80q88 0 127 94h82V786h119v-73H41v73z"/><glyph glyph-name="ordmasculine" unicode="º" horiz-adv-x="557" d="M279 836q-205 0-205 251v320q0 252 205 252 206 0 206-252v-320q0-251-206-251zm-111 241q0-93 29-128.5t82-35.5q52 0 80 36t28 128v340q0 92-28 128t-80 36q-53 0-82-35.5T168 1417v-340z"/><glyph glyph-name="guillemotright" unicode="»" horiz-adv-x="706" d="M348 307v125l227 244-227 244v124l305-327v-82zm-270 0v125l227 244L78 920v124l305-327v-82z"/><glyph glyph-name="onequarter" unicode="¼" horiz-adv-x="1214" d="M51 893h117v629q-38-58-121-58v80q88 0 127 94h82V893h119v-74H51v74zM317 0l496 1638h86L403 0h-86zm484 168v80l233 571h86V242h56v-74h-56V0h-90v168H801zm69 74h160v405z"/><glyph glyph-name="onehalf" unicode="½" horiz-adv-x="1286" d="M51 893h117v629q-38-58-121-58v80q88 0 127 94h82V893h119v-74H51v74zM317 0l496 1638h86L403 0h-86zm537 0v80q0 89 25.5 151T977 367l74 73q79 79 79 187v12q0 68-23.5 92.5T1040 756q-42 0-64-25t-22-94v-62h-94v52q0 202 180 202 183 0 183-206 0-58-19.5-109t-39.5-77-52-60l-78-78q-53-53-69.5-93T948 74h273V0H854z"/><glyph glyph-name="threequarters" unicode="¾" horiz-adv-x="1288" d="M244 809q-185 0-185 205v53h93v-61q0-72 23-97.5t67-25.5q48 0 71 28.5t23 96.5v69q0 40-9.5 68.5t-24.5 41-28.5 17-27.5 4.5h-68v74h68q33 0 61.5 25t28.5 88v59q0 70-25 95.5t-67 25.5q-45 0-68.5-25t-23.5-94v-55H59v47q0 201 185 201 97 0 140.5-58.5T428 1450v-35q0-63-26.5-107t-75.5-59q102-38 102-188v-41q0-211-184-211zM391 0l496 1638h84L475 0h-84zm483 168v80l234 571h86V242h55v-74h-55V0h-90v168H874zm70 74h160v405z"/><glyph glyph-name="questiondown" unicode="¿" horiz-adv-x="747" d="M367-328q-162 0-243 93T43 10q0 89 28 166.5T138.5 314t79 123T285 588.5 313 782v37h115v-39q0-90-19.5-170t-49-135.5-63.5-114T232.5 253t-49-115T164 2q0-233 207-233 105 0 159 69.5T584 57v105h121V66q0-83-18-152t-56.5-124.5T525-297t-158-31zM256 1239q0 49 33.5 81t79.5 32q48 0 80-31.5t32-81.5-32-81.5-80-31.5q-46 0-79.5 32t-33.5 81z"/><glyph glyph-name="Agrave" unicode="À" horiz-adv-x="788" d="M39 0l266 1638h178L750 0H625l-58 375H221L164 0H39zm63 1911l21 80 563-152-20-78zM236 475h315L393 1501z"/><glyph glyph-name="Aacute" unicode="Á" horiz-adv-x="788" d="M39 0l266 1638h178L750 0H625l-58 375H221L164 0H39zm63 1839l564 152 20-80-563-150zM236 475h315L393 1501z"/><glyph glyph-name="Acircumflex" unicode="Â" horiz-adv-x="788" d="M39 0l266 1638h178L750 0H625l-58 375H221L164 0H39zm63 1761l224 230h143l217-230H553l-156 168-161-168H102zM236 475h315L393 1501z"/><glyph glyph-name="Atilde" unicode="Ã" horiz-adv-x="788" d="M39 0l266 1638h178L750 0H625l-58 375H221L164 0H39zm63 1786q0 205 164 205 44 0 77.5-15t53.5-37 37-44 37.5-37 44.5-15q68 0 68 123h102q0-205-164-205-44 0-77.5 15t-53.5 37-37 44-37.5 37-44.5 15q-67 0-67-123H102zM236 475h315L393 1501z"/><glyph glyph-name="Adieresis" unicode="Ä" horiz-adv-x="788" d="M39 0l266 1638h178L750 0H625l-58 375H221L164 0H39zm108 1872q0 40 24.5 63t61.5 23 63-23 26-63q0-37-26-60.5t-63-23.5q-36 0-61 23.5t-25 60.5zm89-1397h315L393 1501zm233 1397q0 40 24.5 63t61.5 23 62.5-23 25.5-63q0-37-26-60.5t-62-23.5-61 23.5-25 60.5z"/><glyph glyph-name="Aring" unicode="Å" horiz-adv-x="788" d="M39 0l266 1638h178L750 0H625l-58 375H221L164 0H39zm190 1896q0 71 49.5 118.5T395 2062t116.5-47.5T561 1896t-49-118-117-47-117 47-49 118zm7-1421h315L393 1501zm69 1421q0-40 24.5-65t65.5-25 65.5 25 24.5 65-24.5 65.5T395 1987t-65.5-25.5T305 1896z"/><glyph glyph-name="AE" unicode="Æ" horiz-adv-x="1001" d="M31 0l305 1638h604v-100H606V870h314V768H606V100h334V0H483v381H225L156 0H31zm213 483h239v1055h-49z"/><glyph glyph-name="Ccedilla" unicode="Ç" horiz-adv-x="876" d="M309-342q147 0 205.5 15.5T573-260q0 52-56.5 62T350-207l45 189Q90 9 90 395v852q0 412 354 412 353 0 353-412V971H672v284q0 89-16 150t-48 94-71 46.5-93 13.5q-113 0-171-66t-58-238V387q0-91 16-152.5t47.5-94.5 71-46.5T444 80q54 0 93 13.5t71 46.5 48 95 16 152v281h125V395Q797 1 483-18l-30-117q225 32 225-125 0-85-83-124.5T307-424z"/><glyph glyph-name="Egrave" unicode="È" horiz-adv-x="741" d="M106 0v1638h574v-100H231V870h433V768H231V100h449V0H106zm-4 1911l21 80 563-152-20-78z"/><glyph glyph-name="Eacute" unicode="É" horiz-adv-x="741" d="M106 0v1638h574v-100H231V870h433V768H231V100h449V0H106zm-4 1839l564 152 20-80-563-150z"/><glyph glyph-name="Ecircumflex" unicode="Ê" horiz-adv-x="741" d="M106 0v1638h574v-100H231V870h433V768H231V100h449V0H106zm-4 1761l224 230h143l217-230H553l-156 168-161-168H102z"/><glyph glyph-name="Edieresis" unicode="Ë" horiz-adv-x="741" d="M106 0v1638h574v-100H231V870h433V768H231V100h449V0H106zm41 1872q0 40 24.5 63t61.5 23 63-23 26-63q0-37-26-60.5t-63-23.5q-36 0-61 23.5t-25 60.5zm322 0q0 40 24.5 63t61.5 23 62.5-23 25.5-63q0-37-26-60.5t-62-23.5-61 23.5-25 60.5z"/><glyph glyph-name="Igrave" unicode="Ì" horiz-adv-x="337" d="M106 0v1638h125V0H106zm-231 1911l21 80 563-152-21-78z"/><glyph glyph-name="Iacute" unicode="Í" horiz-adv-x="337" d="M106 0v1638h125V0H106zm-231 1839l563 152 21-80-563-150z"/><glyph glyph-name="Icircumflex" unicode="Î" horiz-adv-x="337" d="M106 0v1638h125V0H106zm-231 1761l223 230h144l217-230H326l-156 168L8 1761h-133z"/><glyph glyph-name="Idieresis" unicode="Ï" horiz-adv-x="337" d="M106 0v1638h125V0H106zM-80 1872q0 40 24.5 63T6 1958t62.5-23 25.5-63q0-37-26-60.5T6 1788t-61 23.5-25 60.5zm322 0q0 40 24.5 63t61.5 23 62.5-23 25.5-63q0-37-26-60.5t-62-23.5-61 23.5-25 60.5z"/><glyph glyph-name="Eth" unicode="Ð" horiz-adv-x="962" d="M164 0v795H33v86h131v757h278q73 0 126-6t105-22 86-46 61-77 39.5-116 12.5-161V428q0-92-12.5-161T820 151t-61-77-86-46T568 6 442 0H164zm125 98h153q61 0 102.5 4.5t78.5 17 58.5 34.5 37.5 58.5 22.5 87T748 422v795q0 72-6.5 122.5t-22.5 87-37.5 58.5-58.5 34.5-78 16.5-103 4H289V881h225v-86H289V98z"/><glyph glyph-name="Ntilde" unicode="Ñ" horiz-adv-x="921" d="M106 0v1638h121L696 311v1327h119V0H692L223 1329V0H106zm62 1786q0 205 164 205 44 0 77.5-15t53.5-37 37-44 37.5-37 44.5-15q67 0 67 123h103q0-205-164-205-44 0-77.5 15t-53.5 37-37 44-37.5 37-44.5 15q-68 0-68-123H168z"/><glyph glyph-name="Ograve" unicode="Ò" horiz-adv-x="886" d="M444-20Q90-20 90 391v856q0 412 354 412 353 0 353-412V391q0-411-353-411zM152 1911l20 80 563-152-20-78zm63-1524q0-89 16-150t47.5-93.5 71-46T444 84q54 0 93 13.5t71 46 48 93.5 16 150v864q0 89-16 150t-48 93.5-71 46-93 13.5q-55 0-94.5-13.5t-71-46T231 1401t-16-150V387z"/><glyph glyph-name="Oacute" unicode="Ó" horiz-adv-x="886" d="M444-20Q90-20 90 391v856q0 412 354 412 353 0 353-412V391q0-411-353-411zM152 1839l563 152 20-80-563-150zm63-1452q0-89 16-150t47.5-93.5 71-46T444 84q54 0 93 13.5t71 46 48 93.5 16 150v864q0 89-16 150t-48 93.5-71 46-93 13.5q-55 0-94.5-13.5t-71-46T231 1401t-16-150V387z"/><glyph glyph-name="Ocircumflex" unicode="Ô" horiz-adv-x="886" d="M444-20Q90-20 90 391v856q0 412 354 412 353 0 353-412V391q0-411-353-411zM152 1761l223 230h143l217-230H602l-156 168-161-168H152zm63-1374q0-89 16-150t47.5-93.5 71-46T444 84q54 0 93 13.5t71 46 48 93.5 16 150v864q0 89-16 150t-48 93.5-71 46-93 13.5q-55 0-94.5-13.5t-71-46T231 1401t-16-150V387z"/><glyph glyph-name="Otilde" unicode="Õ" horiz-adv-x="886" d="M444-20Q90-20 90 391v856q0 412 354 412 353 0 353-412V391q0-411-353-411zM152 1786q0 205 163 205 44 0 77.5-15t53.5-37 37-44 37.5-37 44.5-15q68 0 68 123h102q0-205-164-205-44 0-77.5 15t-53.5 37-36.5 44-37 37-44.5 15q-68 0-68-123H152zm63-1399q0-89 16-150t47.5-93.5 71-46T444 84q54 0 93 13.5t71 46 48 93.5 16 150v864q0 89-16 150t-48 93.5-71 46-93 13.5q-55 0-94.5-13.5t-71-46T231 1401t-16-150V387z"/><glyph glyph-name="Odieresis" unicode="Ö" horiz-adv-x="886" d="M444-20Q90-20 90 391v856q0 412 354 412 353 0 353-412V391q0-411-353-411zM195 1872q0 40 24.5 63t61.5 23 62.5-23 25.5-63q0-37-26-60.5t-62-23.5-61 23.5-25 60.5zm20-1485q0-89 16-150t47.5-93.5 71-46T444 84q54 0 93 13.5t71 46 48 93.5 16 150v864q0 89-16 150t-48 93.5-71 46-93 13.5q-55 0-94.5-13.5t-71-46T231 1401t-16-150V387zm301 1485q0 40 24.5 63t61.5 23 62.5-23 25.5-63q0-37-26-60.5t-62-23.5-61 23.5-25 60.5z"/><glyph glyph-name="multiply" unicode="×" horiz-adv-x="782" d="M125 1139l264-265 266 267 62-62-266-266 268-268-62-62-268 269-266-267-62 62 267 266-265 264z"/><glyph glyph-name="Oslash" unicode="Ø" horiz-adv-x="886" d="M444-20q-144 0-227 65l-22-65h-91l50 137Q90 219 90 391v856q0 412 354 412 141 0 226-66l24 68h90l-49-141q62-101 62-273V391q0-411-353-411zM215 387q0-34 4-80l408 1161q-51 86-183 86-55 0-94.5-13.5t-71-46T231 1401t-16-150V387zm45-219q55-84 184-84 54 0 93 13.5t71 46 48 93.5 16 150v864q0 32-4 78z"/><glyph glyph-name="Ugrave" unicode="Ù" horiz-adv-x="911" d="M455-20q-353 0-353 415v1243h125V387q0-90 16-152t48-95 71-46.5T455 80q55 0 94.5 13.5t71 46.5 47.5 94.5T684 387v1251h125V395q0-199-83.5-307T455-20zM162 1911l20 80 563-152-20-78z"/><glyph glyph-name="Uacute" unicode="Ú" horiz-adv-x="911" d="M455-20q-353 0-353 415v1243h125V387q0-90 16-152t48-95 71-46.5T455 80q55 0 94.5 13.5t71 46.5 47.5 94.5T684 387v1251h125V395q0-199-83.5-307T455-20zM162 1839l563 152 20-80-563-150z"/><glyph glyph-name="Ucircumflex" unicode="Û" horiz-adv-x="911" d="M455-20q-353 0-353 415v1243h125V387q0-90 16-152t48-95 71-46.5T455 80q55 0 94.5 13.5t71 46.5 47.5 94.5T684 387v1251h125V395q0-199-83.5-307T455-20zM162 1761l223 230h143l217-230H612l-155 168-162-168H162z"/><glyph glyph-name="Udieresis" unicode="Ü" horiz-adv-x="911" d="M455-20q-353 0-353 415v1243h125V387q0-90 16-152t48-95 71-46.5T455 80q55 0 94.5 13.5t71 46.5 47.5 94.5T684 387v1251h125V395q0-199-83.5-307T455-20zM207 1872q0 40 24.5 63t61.5 23 62.5-23 25.5-63q0-37-26-60.5t-62-23.5-61 23.5-25 60.5zm321 0q0 40 24.5 63t61.5 23 62.5-23 25.5-63q0-37-26-60.5t-62-23.5-61 23.5-25 60.5z"/><glyph glyph-name="Yacute" unicode="Ý" horiz-adv-x="776" d="M326 0v573L27 1638h129l231-895 231 895h130L451 573V0H326zM94 1839l565 152 21-80-565-150z"/><glyph glyph-name="Thorn" unicode="Þ" horiz-adv-x="880" d="M106 0v1638h121v-303h170q229 0 322.5-109T813 866v-69q0-254-94.5-371T397 309H227V0H106zm121 412h174q158 0 222.5 82.5T688 786v91q0 142-29 219t-89 107-169 30H227V412z"/><glyph glyph-name="germandbls" unicode="ß" d="M106 0v1257q0 197 77 299.5T434 1659q171 0 249.5-97.5T762 1294v-102q0-239-180-336 108-47 164.5-136.5T803 479v-53Q803 0 453 0H309v96h140q120 0 176.5 76T682 426v61q0 63-12.5 115.5t-41 99.5-83.5 74-133 27H309v98h101q123 0 179 68t56 215v110q0 80-15.5 134.5t-46 83-66 40T434 1563q-38 0-67-6.5t-57-25.5-45.5-52-28.5-88-11-131V0H106z"/><glyph glyph-name="agrave" unicode="à" horiz-adv-x="835" d="M616 0v190Q544-20 340-20q-132 0-208.5 81T55 297q0 71 20 132.5t56 109 73.5 82T291 688l74 49q110 75 145 106 103 93 104 197v21q0 194-186 194-104 0-165.5-66T201 987v-84H80v80q0 55 10 105.5t35 99.5 63 84.5 99 57.5 139 22q309 0 309-322V0H616zM125 1604l20 79 564-151-21-78zm51-1303q0-100 46.5-161.5T365 78q119 0 184 121t65 327v316q-4-14-11.5-28.5t-15-25.5-22.5-25.5-23-22.5-28.5-23-27.5-20-30.5-21-27.5-19l-80-55Q176 477 176 301z"/><glyph glyph-name="aacute" unicode="á" horiz-adv-x="835" d="M616 0v190Q544-20 340-20q-132 0-208.5 81T55 297q0 71 20 132.5t56 109 73.5 82T291 688l74 49q110 75 145 106 103 93 104 197v21q0 194-186 194-104 0-165.5-66T201 987v-84H80v80q0 55 10 105.5t35 99.5 63 84.5 99 57.5 139 22q309 0 309-322V0H616zM125 1532l563 151 21-79-564-150zm51-1231q0-100 46.5-161.5T365 78q119 0 184 121t65 327v316q-4-14-11.5-28.5t-15-25.5-22.5-25.5-23-22.5-28.5-23-27.5-20-30.5-21-27.5-19l-80-55Q176 477 176 301z"/><glyph glyph-name="acircumflex" unicode="â" horiz-adv-x="835" d="M616 0v190Q544-20 340-20q-132 0-208.5 81T55 297q0 71 20 132.5t56 109 73.5 82T291 688l74 49q110 75 145 106 103 93 104 197v21q0 194-186 194-104 0-165.5-66T201 987v-84H80v80q0 55 10 105.5t35 99.5 63 84.5 99 57.5 139 22q309 0 309-322V0H616zM125 1454l223 229h144l217-229H575l-155 168-162-168H125zm51-1153q0-100 46.5-161.5T365 78q119 0 184 121t65 327v316q-4-14-11.5-28.5t-15-25.5-22.5-25.5-23-22.5-28.5-23-27.5-20-30.5-21-27.5-19l-80-55Q176 477 176 301z"/><glyph glyph-name="atilde" unicode="ã" horiz-adv-x="835" d="M616 0v190Q544-20 340-20q-132 0-208.5 81T55 297q0 71 20 132.5t56 109 73.5 82T291 688l74 49q110 75 145 106 103 93 104 197v21q0 194-186 194-104 0-165.5-66T201 987v-84H80v80q0 55 10 105.5t35 99.5 63 84.5 99 57.5 139 22q309 0 309-322V0H616zM125 1479q0 204 164 204 44 0 77.5-15t53.5-36.5 37-43.5 37.5-37 44.5-15q67 0 67 123h103q0-205-164-205-44 0-77.5 15t-53.5 37-37 44-37.5 37-44.5 15q-68 0-68-123H125zm51-1178q0-100 46.5-161.5T365 78q119 0 184 121t65 327v316q-4-14-11.5-28.5t-15-25.5-22.5-25.5-23-22.5-28.5-23-27.5-20-30.5-21-27.5-19l-80-55Q176 477 176 301z"/><glyph glyph-name="adieresis" unicode="ä" horiz-adv-x="835" d="M616 0v190Q544-20 340-20q-132 0-208.5 81T55 297q0 71 20 132.5t56 109 73.5 82T291 688l74 49q110 75 145 106 103 93 104 197v21q0 194-186 194-104 0-165.5-66T201 987v-84H80v80q0 55 10 105.5t35 99.5 63 84.5 99 57.5 139 22q309 0 309-322V0H616zM168 1565q0 40 24.5 63t61.5 23 62.5-23 25.5-63q0-37-26-60.5t-62-23.5-61 23.5-25 60.5zm8-1264q0-100 46.5-161.5T365 78q119 0 184 121t65 327v316q-4-14-11.5-28.5t-15-25.5-22.5-25.5-23-22.5-28.5-23-27.5-20-30.5-21-27.5-19l-80-55Q176 477 176 301zm313 1264q0 40 24.5 63t61.5 23 63-23 26-63q0-37-26-60.5t-63-23.5q-36 0-61 23.5t-25 60.5z"/><glyph glyph-name="aring" unicode="å" horiz-adv-x="835" d="M616 0v190Q544-20 340-20q-132 0-208.5 81T55 297q0 71 20 132.5t56 109 73.5 82T291 688l74 49q110 75 145 106 103 93 104 197v21q0 194-186 194-104 0-165.5-66T201 987v-84H80v80q0 55 10 105.5t35 99.5 63 84.5 99 57.5 139 22q309 0 309-322V0H616zM176 301q0-100 46.5-161.5T365 78q119 0 184 121t65 327v316q-4-14-11.5-28.5t-15-25.5-22.5-25.5-23-22.5-28.5-23-27.5-20-30.5-21-27.5-19l-80-55Q176 477 176 301zm76 1288q0 71 49.5 118.5T418 1755t116.5-47.5T584 1589t-49.5-118.5T418 1423t-116.5 47.5T252 1589zm76 0q0-40 24.5-65t65.5-25 65.5 25 24.5 65-24.5 65-65.5 25-65.5-25-24.5-65z"/><glyph glyph-name="ae" unicode="æ" horiz-adv-x="1302" d="M350-20q-141 0-219 84T53 307q0 56 10.5 104.5T97 501t47.5 72.5 66 65.5 74.5 57.5 86 57.5l51 30q81 52 124.5 113t43.5 154-48.5 148.5T406 1255q-191 0-191-272v-61H96v61q0 49 7.5 95.5T133 1176t56 89 91.5 62.5T412 1352q174 0 243-138 77 138 256 138 314 0 314-410V657H705V389q0-92 15.5-155.5t44.5-97 63.5-47T909 76t79.5 14 60.5 47.5 41 96.5 14 155v35h121v-35q0-196-74-302.5T911-20q-189 0-268 159-48-82-125.5-120.5T350-20zM172 305q0-46 10.5-85.5T215 147t60.5-52T365 76q102 0 163.5 67T590 307v508q-7-21-31.5-45T518 734.5 453 690l-82-55q-58-40-98.5-81T202 447t-30-142zm533 447h399v190q0 92-14 155t-41 96.5-60.5 47.5-79.5 14-80.5-13.5-63.5-47-44.5-97T705 942V752z"/><glyph glyph-name="ccedilla" unicode="ç" horiz-adv-x="813" d="M621 948q0 91-14 152.5t-42 94.5-63 46.5-84 13.5-86-13.5-67-46.5-46-95-16-152V383q0-90 16-152t46-95 67-46.5T418 76t84 13.5 63 46.5 42 94.5T621 383v139h120V391q0-185-65-290.5T463-18l-31-117q225 32 225-125 0-57-33-91.5T508.5-405 287-424l2 82q147 0 205.5 15.5T553-260q0 52-56.5 62T330-207l45 189Q82 7 82 391v551q0 410 334 410 90 0 153.5-28.5t100.5-84 54-128.5 17-169V809H621v139z"/><glyph glyph-name="egrave" unicode="è" horiz-adv-x="819" d="M707 1532l-21-78-563 150 20 79zM82 391v551q0 410 334 410 90 0 153.5-28.5t100.5-84 54-128.5 17-169V657H203V383q0-90 16-152t46-95 67-46.5T418 76t84 13.5 63 46.5 42 94.5T621 383v41h120v-33q0-199-75-305T418-20Q82-20 82 391zm121 361h418v196q0 91-14 152.5t-42 94.5-63 46.5-84 13.5-86-13.5-67-46.5-46-95-16-152V752z"/><glyph glyph-name="eacute" unicode="é" horiz-adv-x="819" d="M143 1454l-20 78 563 151 21-79zM82 391v551q0 410 334 410 90 0 153.5-28.5t100.5-84 54-128.5 17-169V657H203V383q0-90 16-152t46-95 67-46.5T418 76t84 13.5 63 46.5 42 94.5T621 383v41h120v-33q0-199-75-305T418-20Q82-20 82 391zm121 361h418v196q0 91-14 152.5t-42 94.5-63 46.5-84 13.5-86-13.5-67-46.5-46-95-16-152V752z"/><glyph glyph-name="ecircumflex" unicode="ê" horiz-adv-x="819" d="M123 1454l223 229h143l218-229H573l-155 168-162-168H123zM82 391v551q0 410 334 410 90 0 153.5-28.5t100.5-84 54-128.5 17-169V657H203V383q0-90 16-152t46-95 67-46.5T418 76t84 13.5 63 46.5 42 94.5T621 383v41h120v-33q0-199-75-305T418-20Q82-20 82 391zm121 361h418v196q0 91-14 152.5t-42 94.5-63 46.5-84 13.5-86-13.5-67-46.5-46-95-16-152V752z"/><glyph glyph-name="edieresis" unicode="ë" horiz-adv-x="819" d="M575 1481q-36 0-61 23.5t-25 60.5q0 40 24.5 63t61.5 23 63-23 26-63q0-37-26-60.5t-63-23.5zM82 391v551q0 410 334 410 90 0 153.5-28.5t100.5-84 54-128.5 17-169V657H203V383q0-90 16-152t46-95 67-46.5T418 76t84 13.5 63 46.5 42 94.5T621 383v41h120v-33q0-199-75-305T418-20Q82-20 82 391zm86 1174q0 40 24.5 63t61.5 23 62.5-23 25.5-63q0-37-26-60.5t-62-23.5-61 23.5-25 60.5zm35-813h418v196q0 91-14 152.5t-42 94.5-63 46.5-84 13.5-86-13.5-67-46.5-46-95-16-152V752z"/><glyph glyph-name="igrave" unicode="ì" horiz-adv-x="331" d="M106 1331h119V0H106v1331zm-137 279l33 73 360-157-34-72z"/><glyph glyph-name="iacute" unicode="í" horiz-adv-x="331" d="M106 1331h119V0H106v1331zm-139 195l361 157 32-73L2 1454z"/><glyph glyph-name="icircumflex" unicode="î" horiz-adv-x="331" d="M106 1331h119V0H106v1331zM-6 1454l106 229h131l105-229H227l-61 154-66-154H-6z"/><glyph glyph-name="idieresis" unicode="ï" horiz-adv-x="331" d="M106 1331h119V0H106v1331zm-147 234q0 40 24.5 63t59.5 23q34 0 59-23.5t25-62.5q0-34-25.5-58T43 1483q-34 0-59 23.5t-25 58.5zm262 0q0 40 24.5 63t59.5 23 59.5-23 24.5-63q0-35-25-58.5t-59-23.5-59 23.5-25 58.5z"/><glyph glyph-name="eth" unicode="ð" horiz-adv-x="811" d="M408-20Q68-20 68 408v202q0 184 79.5 298T387 1022q140 0 205-109-50 255-189 428l-288-186v105l229 145q-90 90-215 160l41 94q154-80 270-193l260 166v-102l-200-129q235-283 235-801V420q0-232-82-336T408-20zM188 406q0-185 53.5-257.5T406 76q117 0 162.5 74.5T614 410v182q0 89-14 154t-33.5 98.5-49 53-51.5 24-50 4.5q-114 0-171-72t-57-244V406z"/><glyph glyph-name="ntilde" unicode="ñ" d="M225 1331v-143q77 164 267 164 136 0 204-90t68-277V0H643v983q0 136-41.5 204T459 1255q-62 0-109-27.5t-73-72.5-39-96-13-105V0H106v1331h119zm-84 148q0 204 164 204 44 0 77.5-15t53.5-36.5 37-43.5 37.5-37 44.5-15q68 0 68 123h102q0-205-164-205-44 0-77.5 15t-53.5 37-37 44-37.5 37-44.5 15q-67 0-67-123H141z"/><glyph glyph-name="ograve" unicode="ò" horiz-adv-x="823" d="M412-20Q82-20 82 391v551q0 410 330 410 329 0 329-410V391q0-411-329-411zM119 1604l20 79 563-151-20-78zm84-1221q0-173 55-240t154-67 154 67 55 240v565q0 173-55 240t-154 67-154-67-55-240V383z"/><glyph glyph-name="oacute" unicode="ó" horiz-adv-x="823" d="M412-20Q82-20 82 391v551q0 410 330 410 329 0 329-410V391q0-411-329-411zM119 1532l563 151 20-79-563-150zm84-1149q0-173 55-240t154-67 154 67 55 240v565q0 173-55 240t-154 67-154-67-55-240V383z"/><glyph glyph-name="ocircumflex" unicode="ô" horiz-adv-x="823" d="M412-20Q82-20 82 391v551q0 410 330 410 329 0 329-410V391q0-411-329-411zM119 1454l223 229h143l217-229H569l-155 168-162-168H119zm84-1071q0-173 55-240t154-67 154 67 55 240v565q0 173-55 240t-154 67-154-67-55-240V383z"/><glyph glyph-name="otilde" unicode="õ" horiz-adv-x="823" d="M412-20Q82-20 82 391v551q0 410 330 410 329 0 329-410V391q0-411-329-411zM119 1479q0 204 164 204 37 0 67-11t48-27 35-35.5 29.5-35.5 30.5-27 39-11q68 0 68 123h102q0-205-163-205-44 0-77.5 15t-53.5 37-37 44-37.5 37-44.5 15q-68 0-68-123H119zm84-1096q0-173 55-240t154-67 154 67 55 240v565q0 173-55 240t-154 67-154-67-55-240V383z"/><glyph glyph-name="odieresis" unicode="ö" horiz-adv-x="823" d="M412-20Q82-20 82 391v551q0 410 330 410 329 0 329-410V391q0-411-329-411zM164 1565q0 40 24.5 63t61.5 23 62.5-23 25.5-63q0-37-26-60.5t-62-23.5-61 23.5-25 60.5zm39-1182q0-173 55-240t154-67 154 67 55 240v565q0 173-55 240t-154 67-154-67-55-240V383zm282 1182q0 40 24.5 63t61.5 23 62.5-23 25.5-63q0-37-26-60.5t-62-23.5-61 23.5-25 60.5z"/><glyph glyph-name="divide" unicode="÷" horiz-adv-x="948" d="M473 987q-26 0-43.5 18t-17.5 44q0 25 17.5 43t43.5 18q25 0 43.5-18t18.5-43q0-26-18.5-44T473 987zM55 770v86h840v-86H55zm357-192q0 25 17.5 43t43.5 18q25 0 43.5-18t18.5-43q0-26-18.5-44T473 516q-26 0-43.5 18T412 578z"/><glyph glyph-name="oslash" unicode="ø" horiz-adv-x="823" d="M412-20q-111 0-181 43l-67-197H80l88 254Q82 185 82 391v551q0 410 330 410 107 0 180-45l70 198h83l-88-254q84-103 84-309V391q0-411-329-411zM203 383q0-88 16-154l336 971q-50 55-143 55-99 0-154-67t-55-240V383zm65-254q53-53 144-53 99 0 154 67t55 240v565q0 82-17 152z"/><glyph glyph-name="ugrave" unicode="ù" d="M639 0v147Q560-20 371-20q-137 0-205 89.5T98 346v985h121V348q0-136 41.5-204T403 76q62 0 109 27.5t73 72.5 39 96 13 105l2-53v1007h119V0H639zM133 1604l21 79 563-151-21-78z"/><glyph glyph-name="uacute" unicode="ú" d="M639 0v147Q560-20 371-20q-137 0-205 89.5T98 346v985h121V348q0-136 41.5-204T403 76q62 0 109 27.5t73 72.5 39 96 13 105l2-53v1007h119V0H639zM133 1532l563 151 21-79-563-150z"/><glyph glyph-name="ucircumflex" unicode="û" d="M639 0v147Q560-20 371-20q-137 0-205 89.5T98 346v985h121V348q0-136 41.5-204T403 76q62 0 109 27.5t73 72.5 39 96 13 105l2-53v1007h119V0H639zM133 1454l223 229h144l217-229H584l-156 168-162-168H133z"/><glyph glyph-name="udieresis" unicode="ü" d="M639 0v147Q560-20 371-20q-137 0-205 89.5T98 346v985h121V348q0-136 41.5-204T403 76q62 0 109 27.5t73 72.5 39 96 13 105l2-53v1007h119V0H639zM178 1565q0 40 24.5 63t61.5 23 62.5-23 25.5-63q0-37-26-60.5t-62-23.5-61 23.5-25 60.5zm322 0q0 40 24.5 63t61.5 23 62.5-23 25.5-63q0-37-26-60.5t-62-23.5-61 23.5-25 60.5z"/><glyph glyph-name="yacute" unicode="ý" horiz-adv-x="860" d="M637-2v149Q558-20 369-20q-137 0-205 89.5T96 346v985h121V348q0-136 41.5-204T401 76q62 0 109 27.5t73 72.5 39 96 13 105l2-53v1007h119V-2q0-102-16-173t-54.5-126T576-383t-177-27H139v97h246q79 0 128.5 17.5T590-237t37 95T637-2zM127 1532l563 151 21-79-564-150z"/><glyph glyph-name="thorn" unicode="þ" horiz-adv-x="849" d="M225-410H106v2048h119v-458q31 70 93 120t161 50q137 0 211-97t74-284V356q0-187-76-283T477-23q-171 0-252 166v-553zm0 781q0-53 13-103t39-94.5 71.5-72T453 74q104 0 147 74.5T643 362v603q0 139-43 213.5T453 1253q-59 0-104.5-27.5t-71.5-72-39-94.5-13-103V371z"/><glyph glyph-name="ydieresis" unicode="ÿ" horiz-adv-x="860" d="M637-2v149Q558-20 369-20q-137 0-205 89.5T96 346v985h121V348q0-136 41.5-204T401 76q62 0 109 27.5t73 72.5 39 96 13 105l2-53v1007h119V-2q0-102-16-173t-54.5-126T576-383t-177-27H139v97h246q79 0 128.5 17.5T590-237t37 95T637-2zM170 1565q0 40 24.5 63t61.5 23 62.5-23 25.5-63q0-37-26-60.5t-62-23.5-61 23.5-25 60.5zm322 0q0 40 24.5 63t61.5 23 62.5-23 25.5-63q0-37-26-60.5t-62-23.5-61 23.5-25 60.5z"/><glyph glyph-name="Amacron" unicode="Ā" horiz-adv-x="788" d="M39 0l266 1638h178L750 0H625l-58 375H221L164 0H39zm63 1835v82h584v-82H102zM236 475h315L393 1501z"/><glyph glyph-name="amacron" unicode="ā" horiz-adv-x="835" d="M616 0v190Q544-20 340-20q-132 0-208.5 81T55 297q0 71 20 132.5t56 109 73.5 82T291 688l74 49q110 75 145 106 103 93 104 197v21q0 194-186 194-104 0-165.5-66T201 987v-84H80v80q0 55 10 105.5t35 99.5 63 84.5 99 57.5 139 22q309 0 309-322V0H616zM125 1528v82h584v-82H125zm51-1227q0-100 46.5-161.5T365 78q119 0 184 121t65 327v316q-4-14-11.5-28.5t-15-25.5-22.5-25.5-23-22.5-28.5-23-27.5-20-30.5-21-27.5-19l-80-55Q176 477 176 301z"/><glyph glyph-name="Abreve" unicode="Ă" horiz-adv-x="788" d="M39 0l266 1638h178L750 0H625l-58 375H221L164 0H39zm63 1991h103q0-41 19-72t49-46.5 61-22.5 63-7 62 7 59.5 22.5 47.5 46 18 72.5h102q0-64-24.5-110.5t-67-71.5-91.5-36.5-106-11.5-107 11.5-93.5 36.5-69 71.5T102 1991zM236 475h315L393 1501z"/><glyph glyph-name="abreve" unicode="ă" horiz-adv-x="835" d="M616 0v190Q544-20 340-20q-132 0-208.5 81T55 297q0 71 20 132.5t56 109 73.5 82T291 688l74 49q110 75 145 106 103 93 104 197v21q0 194-186 194-104 0-165.5-66T201 987v-84H80v80q0 55 10 105.5t35 99.5 63 84.5 99 57.5 139 22q309 0 309-322V0H616zM125 1683h102q0-41 19-71.5t49.5-46T357 1543t63-7 62 7 59 22.5 47 45.5 18 72h103q0-64-24.5-110.5t-67-71.5-91.5-36-106-11q-58 0-107.5 11t-93 36-69 71.5T125 1683zm51-1382q0-100 46.5-161.5T365 78q119 0 184 121t65 327v316q-4-14-11.5-28.5t-15-25.5-22.5-25.5-23-22.5-28.5-23-27.5-20-30.5-21-27.5-19l-80-55Q176 477 176 301z"/><glyph glyph-name="Aogonek" unicode="Ą" horiz-adv-x="788" d="M39 0l266 1638h178L750 0Q646-36 595.5-83.5T545-199q0-66 59.5-96.5T795-326h30l-82-84h-28q-126 0-199.5 47.5T442-219q0 46 18.5 82t54 62 72 42.5T672 0h-47l-58 375H221L164 0H39zm197 475h315L393 1501z"/><glyph glyph-name="aogonek" unicode="ą" horiz-adv-x="835" d="M616 0v190Q544-20 340-20q-132 0-208.5 81T55 297q0 71 20 132.5t56 109 73.5 82T291 688l74 49q110 75 145 106 103 93 104 197v21q0 194-186 194-104 0-165.5-66T201 987v-84H80v80q0 55 10 105.5t35 99.5 63 84.5 99 57.5 139 22q309 0 309-322V0Q631-36 580.5-83.5T530-199q0-66 59.5-96.5T780-326h31l-82-84h-29q-126 0-199 47.5T428-219q0 46 18.5 82t54 62T572-32.5 657 0h-41zM176 301q0-100 46.5-161.5T365 78q119 0 184 121t65 327v316q-4-14-11.5-28.5t-15-25.5-22.5-25.5-23-22.5-28.5-23-27.5-20-30.5-21-27.5-19l-80-55Q176 477 176 301z"/><glyph glyph-name="Cacute" unicode="Ć" horiz-adv-x="876" d="M444-20Q90-20 90 395v852q0 412 354 412 353 0 353-412V971H672v284q0 89-16 150t-48 94-71 46.5-93 13.5q-113 0-171-66t-58-238V387q0-91 16-152.5t47.5-94.5 71-46.5T444 80q54 0 93 13.5t71 46.5 48 95 16 152v281h125V395q0-415-353-415zM152 1839l563 152 20-80-563-150z"/><glyph glyph-name="cacute" unicode="ć" horiz-adv-x="813" d="M621 948q0 91-14 152.5t-42 94.5-63 46.5-84 13.5-86-13.5-67-46.5-46-95-16-152V383q0-90 16-152t46-95 67-46.5T418 76t84 13.5 63 46.5 42 94.5T621 383v139h120V391q0-199-75-305T418-20Q82-20 82 391v551q0 410 334 410 90 0 153.5-28.5t100.5-84 54-128.5 17-169V809H621v139zm-494 584l563 151 21-79-564-150z"/><glyph glyph-name="Ccircumflex" unicode="Ĉ" horiz-adv-x="876" d="M444-20Q90-20 90 395v852q0 412 354 412 353 0 353-412V971H672v284q0 89-16 150t-48 94-71 46.5-93 13.5q-113 0-171-66t-58-238V387q0-91 16-152.5t47.5-94.5 71-46.5T444 80q54 0 93 13.5t71 46.5 48 95 16 152v281h125V395q0-415-353-415zM152 1761l223 230h143l217-230H602l-156 168-161-168H152z"/><glyph glyph-name="ccircumflex" unicode="ĉ" horiz-adv-x="813" d="M621 948q0 91-14 152.5t-42 94.5-63 46.5-84 13.5-86-13.5-67-46.5-46-95-16-152V383q0-90 16-152t46-95 67-46.5T418 76t84 13.5 63 46.5 42 94.5T621 383v139h120V391q0-199-75-305T418-20Q82-20 82 391v551q0 410 334 410 90 0 153.5-28.5t100.5-84 54-128.5 17-169V809H621v139zm-494 506l223 229h144l217-229H578l-156 168-162-168H127z"/><glyph glyph-name="Cdotaccent" unicode="Ċ" horiz-adv-x="876" d="M444-20Q90-20 90 395v852q0 412 354 412 353 0 353-412V971H672v284q0 89-16 150t-48 94-71 46.5-93 13.5q-113 0-171-66t-58-238V387q0-91 16-152.5t47.5-94.5 71-46.5T444 80q54 0 93 13.5t71 46.5 48 95 16 152v281h125V395q0-415-353-415zm-98 1886q0 39 28 67.5t70 28.5 69.5-28.5T541 1866q0-38-27.5-66t-69.5-28-70 28-28 66z"/><glyph glyph-name="cdotaccent" unicode="ċ" horiz-adv-x="813" d="M621 948q0 91-14 152.5t-42 94.5-63 46.5-84 13.5-86-13.5-67-46.5-46-95-16-152V383q0-90 16-152t46-95 67-46.5T418 76t84 13.5 63 46.5 42 94.5T621 383v139h120V391q0-199-75-305T418-20Q82-20 82 391v551q0 410 334 410 90 0 153.5-28.5t100.5-84 54-128.5 17-169V809H621v139zm-302 615q0 40 28.5 68t72.5 28q43 0 70.5-27.5T518 1563q0-38-27.5-66.5T420 1468t-72 28.5-29 66.5z"/><glyph glyph-name="Ccaron" unicode="Č" horiz-adv-x="876" d="M444-20Q90-20 90 395v852q0 412 354 412 353 0 353-412V971H672v284q0 89-16 150t-48 94-71 46.5-93 13.5q-113 0-171-66t-58-238V387q0-91 16-152.5t47.5-94.5 71-46.5T444 80q54 0 93 13.5t71 46.5 48 95 16 152v281h125V395q0-415-353-415zM152 1991h133l161-168 156 168h133l-217-230H375z"/><glyph glyph-name="ccaron" unicode="č" horiz-adv-x="813" d="M621 948q0 91-14 152.5t-42 94.5-63 46.5-84 13.5-86-13.5-67-46.5-46-95-16-152V383q0-90 16-152t46-95 67-46.5T418 76t84 13.5 63 46.5 42 94.5T621 383v139h120V391q0-199-75-305T418-20Q82-20 82 391v551q0 410 334 410 90 0 153.5-28.5t100.5-84 54-128.5 17-169V809H621v139zm-494 735h133l162-167 156 167h133l-217-229H350z"/><glyph glyph-name="Dcaron" unicode="Ď" horiz-adv-x="907" d="M106 0v1638h279q73 0 126-6t105-22 86-46 61-77 39.5-116 12.5-161V428q0-92-12.5-161T763 151t-61-77-86-46T511 6 385 0H106zm39 1991h134l161-168 156 168h133l-217-230H369zM231 98h154q74 0 120.5 7t85 25.5T649 186t30.5 93.5T690 422v795q0 72-6.5 122.5t-22.5 87-37.5 58-58 34.5-77.5 17-103 4H231V98z"/><glyph glyph-name="dcaron" unicode="ď" horiz-adv-x="929" d="M623 1638h120V0H623v150q-31-70-93-120T369-20q-137 0-211 96.5T84 360v613q0 187 76 283t211 96q171 0 252-166v452zM205 365q0-140 43-214.5T395 76q59 0 104.5 27.5t71.5 72 39 94.5 13 103v585q0 53-13 103t-39 94.5-71.5 72T395 1255q-104 0-147-74.5T205 967V365zm600 804l41 469h100l-63-469h-78z"/><glyph glyph-name="Dcroat" unicode="Đ" horiz-adv-x="962" d="M164 0v795H33v86h131v757h278q73 0 126-6t105-22 86-46 61-77 39.5-116 12.5-161V428q0-92-12.5-161T820 151t-61-77-86-46T568 6 442 0H164zm125 98h153q61 0 102.5 4.5t78.5 17 58.5 34.5 37.5 58.5 22.5 87T748 422v795q0 72-6.5 122.5t-22.5 87-37.5 58.5-58.5 34.5-78 16.5-103 4H289V881h225v-86H289V98z"/><glyph glyph-name="dcroat" unicode="đ" horiz-adv-x="849" d="M623 1638h120v-112h160v-84H743V0H623v150q-31-70-93-120T369-20q-137 0-211 96.5T84 360v613q0 187 76 283t211 96q171 0 252-166v256H322v84h301v112zM205 365q0-140 43-214.5T395 76q59 0 104.5 27.5t71.5 72 39 94.5 13 103v585q0 53-13 103t-39 94.5-71.5 72T395 1255q-104 0-147-74.5T205 967V365z"/><glyph glyph-name="Emacron" unicode="Ē" horiz-adv-x="741" d="M106 0v1638h574v-100H231V870h433V768H231V100h449V0H106zm-4 1835v82h584v-82H102z"/><glyph glyph-name="emacron" unicode="ē" horiz-adv-x="819" d="M123 1528v82h584v-82H123zM82 391v551q0 410 334 410 90 0 153.5-28.5t100.5-84 54-128.5 17-169V657H203V383q0-90 16-152t46-95 67-46.5T418 76t84 13.5 63 46.5 42 94.5T621 383v41h120v-33q0-199-75-305T418-20Q82-20 82 391zm121 361h418v196q0 91-14 152.5t-42 94.5-63 46.5-84 13.5-86-13.5-67-46.5-46-95-16-152V752z"/><glyph glyph-name="Edotaccent" unicode="Ė" horiz-adv-x="741" d="M106 0v1638h574v-100H231V870h433V768H231V100h449V0H106zm193 1866q0 39 28 67.5t70 28.5 69.5-28.5T494 1866q0-38-27.5-66t-69.5-28-70 28-28 66z"/><glyph glyph-name="edotaccent" unicode="ė" horiz-adv-x="819" d="M416 1468q-43 0-72 28.5t-29 66.5q0 40 28.5 68t72.5 28q43 0 70.5-27.5T514 1563q0-38-27.5-66.5T416 1468zM82 391v551q0 410 334 410 90 0 153.5-28.5t100.5-84 54-128.5 17-169V657H203V383q0-90 16-152t46-95 67-46.5T418 76t84 13.5 63 46.5 42 94.5T621 383v41h120v-33q0-199-75-305T418-20Q82-20 82 391zm121 361h418v196q0 91-14 152.5t-42 94.5-63 46.5-84 13.5-86-13.5-67-46.5-46-95-16-152V752z"/><glyph glyph-name="Eogonek" unicode="Ę" horiz-adv-x="741" d="M106 0v1638h574v-100H231V870h433V768H231V100h449V0Q576-36 525.5-83.5T475-199q0-66 59.5-96.5T725-326h31l-82-84h-29q-126 0-199 47.5T373-219q0 46 18.5 82t54 62T517-32.5 602 0H106z"/><glyph glyph-name="eogonek" unicode="ę" horiz-adv-x="819" d="M514-410q-126 0-199 47.5T242-219q0 130 172 199Q82-17 82 391v551q0 410 334 410 90 0 153.5-28.5t100.5-84 54-128.5 17-169V657H203V383q0-90 16-152t46-95 67-46.5T418 76t84 13.5 63 46.5 42 94.5T621 383v41h120v-33Q741 65 543-2 442-38 393-85.5T344-199t59.5-96.5T594-326h31l-82-84h-29zM203 752h418v196q0 91-14 152.5t-42 94.5-63 46.5-84 13.5-86-13.5-67-46.5-46-95-16-152V752z"/><glyph glyph-name="Ecaron" unicode="Ě" horiz-adv-x="741" d="M106 0v1638h574v-100H231V870h433V768H231V100h449V0H106zm-4 1991h134l161-168 156 168h133l-217-230H326z"/><glyph glyph-name="ecaron" unicode="ě" horiz-adv-x="819" d="M346 1454l-223 229h133l162-167 155 167h134l-218-229H346zM82 391v551q0 410 334 410 90 0 153.5-28.5t100.5-84 54-128.5 17-169V657H203V383q0-90 16-152t46-95 67-46.5T418 76t84 13.5 63 46.5 42 94.5T621 383v41h120v-33q0-199-75-305T418-20Q82-20 82 391zm121 361h418v196q0 91-14 152.5t-42 94.5-63 46.5-84 13.5-86-13.5-67-46.5-46-95-16-152V752z"/><glyph glyph-name="Gcircumflex" unicode="Ĝ" horiz-adv-x="884" d="M426-20Q254-20 172 89.5T90 393v854q0 412 354 412 353 0 353-412v-192H672v200q0 89-16 150t-48 94-71 46.5-93 13.5q-113 0-171-66t-58-238V387q0-170 54-238.5T446 80q128 0 177 73.5T672 403v320H444v98h353V0h-88l-11 133Q614-20 426-20zM152 1761l223 230h143l217-230H602l-156 168-161-168H152z"/><glyph glyph-name="gcircumflex" unicode="ĝ" horiz-adv-x="847" d="M623-2v152q-31-70-93-120T369-20q-137 0-211 96.5T84 360v613q0 187 76 283t211 96q171 0 252-166v145h120V-20q0-100-16-169.5t-54.5-121-106-75.5T399-410H127v97h264q137 0 184.5 70.5T623-2zM113 1454l223 229h143l217-229H563l-155 168-162-168H113zm92-1089q0-140 43-214.5T395 76q59 0 104.5 27.5t71.5 72 39 94.5 13 103v585q0 53-13 103t-39 94.5-71.5 72T395 1255q-104 0-147-74.5T205 967V365z"/><glyph glyph-name="Gbreve" unicode="Ğ" horiz-adv-x="884" d="M426-20Q254-20 172 89.5T90 393v854q0 412 354 412 353 0 353-412v-192H672v200q0 89-16 150t-48 94-71 46.5-93 13.5q-113 0-171-66t-58-238V387q0-170 54-238.5T446 80q128 0 177 73.5T672 403v320H444v98h353V0h-88l-11 133Q614-20 426-20zM152 1991h102q0-41 19-72t49-46.5 61-22.5 63-7 62 7 59.5 22.5 47.5 46 18 72.5h102q0-64-24.5-110.5t-67-71.5-91.5-36.5-106-11.5-106.5 11.5T246 1809t-69 71.5-25 110.5z"/><glyph glyph-name="gbreve" unicode="ğ" horiz-adv-x="847" d="M623-2v152q-31-70-93-120T369-20q-137 0-211 96.5T84 360v613q0 187 76 283t211 96q171 0 252-166v145h120V-20q0-100-16-169.5t-54.5-121-106-75.5T399-410H127v97h264q137 0 184.5 70.5T623-2zM113 1683h102q0-41 19-71.5t49.5-46T345 1543t63-7 62 7 59 22.5 47 45.5 18 72h102q0-64-24.5-110.5T605 1501t-91-36-106-11q-58 0-107.5 11t-93 36-69 71.5T113 1683zm92-1318q0-140 43-214.5T395 76q59 0 104.5 27.5t71.5 72 39 94.5 13 103v585q0 53-13 103t-39 94.5-71.5 72T395 1255q-104 0-147-74.5T205 967V365z"/><glyph glyph-name="Gdotaccent" unicode="Ġ" horiz-adv-x="884" d="M426-20Q254-20 172 89.5T90 393v854q0 412 354 412 353 0 353-412v-192H672v200q0 89-16 150t-48 94-71 46.5-93 13.5q-113 0-171-66t-58-238V387q0-170 54-238.5T446 80q128 0 177 73.5T672 403v320H444v98h353V0h-88l-11 133Q614-20 426-20zm-80 1886q0 39 28 67.5t70 28.5 69.5-28.5T541 1866q0-38-27.5-66t-69.5-28-70 28-28 66z"/><glyph glyph-name="gdotaccent" unicode="ġ" horiz-adv-x="847" d="M623-2v152q-31-70-93-120T369-20q-137 0-211 96.5T84 360v613q0 187 76 283t211 96q171 0 252-166v145h120V-20q0-100-16-169.5t-54.5-121-106-75.5T399-410H127v97h264q137 0 184.5 70.5T623-2zM205 365q0-140 43-214.5T395 76q59 0 104.5 27.5t71.5 72 39 94.5 13 103v585q0 53-13 103t-39 94.5-71.5 72T395 1255q-104 0-147-74.5T205 967V365zm102 1198q0 40 28.5 68t72.5 28q43 0 70.5-27.5T506 1563q0-38-27.5-66.5T408 1468t-72 28.5-29 66.5z"/><glyph glyph-name="uni0122" unicode="Ģ" horiz-adv-x="884" d="M426-20Q254-20 172 89.5T90 393v854q0 412 354 412 353 0 353-412v-192H672v200q0 89-16 150t-48 94-71 46.5-93 13.5q-113 0-171-66t-58-238V387q0-170 54-238.5T446 80q128 0 177 73.5T672 403v320H444v98h353V0h-88l-11 133Q614-20 426-20zm-80-146q0 38 27 66t71 28q41 0 68-27.5t27-86.5q0-156-166-236v78q51 23 78 53t36 74q-28-31-61-31-32 0-56 23t-24 59z"/><glyph glyph-name="uni0123" unicode="ģ" horiz-adv-x="847" d="M623-2v152q-31-70-93-120T369-20q-137 0-211 96.5T84 360v613q0 187 76 283t211 96q171 0 252-166v145h120V-20q0-100-16-169.5t-54.5-121-106-75.5T399-410H127v97h264q137 0 184.5 70.5T623-2zM205 365q0-140 43-214.5T395 76q59 0 104.5 27.5t71.5 72 39 94.5 13 103v585q0 53-13 103t-39 94.5-71.5 72T395 1255q-104 0-147-74.5T205 967V365zm104 1196q0 157 166 237v-78q-51-23-77.5-53t-37.5-74q26 29 62 29 32 0 56-23t24-59q0-37-26.5-64.5T406 1448q-42 0-69.5 27t-27.5 86z"/><glyph glyph-name="Hcircumflex" unicode="Ĥ" horiz-adv-x="913" d="M684 0v768H231V0H106v1638h125V870h453v768h123V0H684zM164 1761l223 230h143l218-230H614l-155 168-162-168H164z"/><glyph glyph-name="hcircumflex" unicode="ĥ" d="M225 1638v-450q77 164 267 164 136 0 204-90t68-277V0H643v983q0 136-41.5 204T459 1255q-62 0-109-27.5t-73-72.5-39-96-13-105V0H106v1638h119zm-356 123l223 230h144l217-230H319l-155 168L2 1761h-133z"/><glyph glyph-name="Hbar" unicode="Ħ" horiz-adv-x="1054" d="M756 0v768H303V0H178v1288H31v88h147v262h125v-262h453v262h123v-262h145v-88H879V0H756zM303 870h453v418H303V870z"/><glyph glyph-name="hbar" unicode="ħ" d="M225 1638v-133h310v-84H225v-233q77 164 267 164 136 0 204-90t68-277V0H643v983q0 136-41.5 204T459 1255q-62 0-109-27.5t-73-72.5-39-96-13-105V0H106v1421H-47v84h153v133h119z"/><glyph glyph-name="Itilde" unicode="Ĩ" horiz-adv-x="337" d="M106 0v1638h125V0H106zm-231 1786q0 205 164 205 44 0 77.5-15t53.5-37 37-44 37.5-37 44.5-15q67 0 67 123h103q0-205-164-205-44 0-77.5 15t-53.5 37-37 44-37.5 37-44.5 15q-68 0-68-123h-102z"/><glyph glyph-name="itilde" unicode="ĩ" horiz-adv-x="331" d="M106 1331h119V0H106v1331zm-233 148q0 204 164 204 44 0 77.5-15t53.5-36.5 37-43.5 37.5-37 44.5-15q67 0 67 123h103q0-205-164-205-44 0-77.5 15t-53.5 37-37 44-37.5 37-44.5 15q-68 0-68-123h-102z"/><glyph glyph-name="Imacron" unicode="Ī" horiz-adv-x="337" d="M106 0v1638h125V0H106zm-231 1835v82h584v-82h-584z"/><glyph glyph-name="imacron" unicode="ī" horiz-adv-x="331" d="M106 1331h119V0H106v1331zm-139 197v82h393v-82H-33z"/><glyph glyph-name="Iogonek" unicode="Į" horiz-adv-x="337" d="M106 0v1638h125V0Q127-36 77-83.5T27-199q0-66 59-96.5T276-326h31l-82-84h-28Q71-410-2.5-362.5T-76-219q0 46 18.5 82t54 62 72 42.5T154 0h-48z"/><glyph glyph-name="iogonek" unicode="į" horiz-adv-x="331" d="M106 1331h119V0Q121-36 70.5-83.5T20-199q0-66 59.5-96.5T270-326h31l-82-84h-29Q64-410-9-362.5T-82-219q0 46 18.5 82t54 62T62-32.5 147 0h-41v1331zm-40 232q0 40 28 68t72 28q43 0 70.5-27.5T264 1563q0-38-27.5-66.5T166 1468t-71.5 28.5T66 1563z"/><glyph glyph-name="Idotaccent" unicode="İ" horiz-adv-x="337" d="M106 0v1638h125V0H106zM70 1866q0 39 28 67.5t70 28.5 69-28.5 27-67.5q0-38-27-66t-69-28-70 28-28 66z"/><glyph glyph-name="dotlessi" unicode="ı" horiz-adv-x="331" d="M106 1331h119V0H106v1331z"/><glyph glyph-name="IJ" unicode="Ĳ" horiz-adv-x="1169" d="M106 0v1638h125V0H106zm291 395v176h125V387q0-90 16-152t46-95 66-46.5T733 80q99 0 154 67t55 240v1251h125V395q0-415-334-415-336 0-336 415z"/><glyph glyph-name="ij" unicode="ĳ" horiz-adv-x="630" d="M106 1331h119V0H106v1331zm-40 232q0 40 28 68t72 28q43 0 70.5-27.5T264 1563q0-38-27.5-66.5T166 1468t-71.5 28.5T66 1563zm38-1973v97h86q125 0 170.5 68.5T406-20v1351h118V-41q0-92-15.5-157.5T456-313t-101-73-158-24h-93zm261 1973q0 40 28 68t72 28q43 0 70.5-27.5T563 1563q0-38-27.5-66.5T465 1468t-71.5 28.5T365 1563z"/><glyph glyph-name="Jcircumflex" unicode="Ĵ" horiz-adv-x="825" d="M389-20Q53-20 53 395v176h125V387q0-90 16-152t46-95 66-46.5T389 80q99 0 154 67t55 240v1251h125V395q0-415-334-415zm-22 1781l223 230h143l217-230H817l-155 168-162-168H367z"/><glyph glyph-name="jcircumflex" unicode="ĵ" horiz-adv-x="331" d="M106-20v1351h119V-41q0-92-15.5-157.5T157-313 56-386t-158-24h-93v97h86q125 0 170 68.5T106-20zm-233 1474l223 229h144l217-229H324l-156 168L6 1454h-133z"/><glyph glyph-name="uni0136" unicode="Ķ" horiz-adv-x="817" d="M664 0L260 764h-29V0H106v1638h125V874h29l404 764h135L358 819 799 0H664zM330-166q0 38 27 66t71 28q41 0 67.5-27.5T522-186q0-156-166-236v78q51 23 78.5 53t36.5 74q-28-31-61-31-32 0-56 23t-24 59z"/><glyph glyph-name="uni0137" unicode="ķ" horiz-adv-x="819" d="M106 1638h119V715h33l410 616h139L354 666 807 0H668L256 618h-31V0H106v1638zM362-166q0 38 27.5 66T461-72q41 0 67.5-27.5T555-186q0-156-166-236v78q51 23 78.5 53t36.5 74q-28-31-62-31-32 0-56 23t-24 59z"/><glyph glyph-name="Lacute" unicode="Ĺ" horiz-adv-x="712" d="M106 0v1638h125V100h449V0H106zm7 1839l563 152 20-80-563-150z"/><glyph glyph-name="lacute" unicode="ĺ" horiz-adv-x="331" d="M106 1638h119V0H106v1638zm-233 201l563 152 21-80-563-150z"/><glyph glyph-name="uni013B" unicode="Ļ" horiz-adv-x="712" d="M106 0v1638h125V100h449V0H106zm146-166q0 38 27 66t71 28q41 0 67.5-27.5T444-186q0-157-165-236v78q51 23 78 53t36 74q-28-31-61-31-32 0-56 23t-24 59z"/><glyph glyph-name="uni013C" unicode="ļ" horiz-adv-x="331" d="M106 1638h119V0H106v1638zM70-166q0 38 27 66t71 28q41 0 67.5-27.5T262-186q0-156-166-236v78q51 23 78.5 53t36.5 74q-28-31-61-31-32 0-56 23t-24 59z"/><glyph glyph-name="Lcaron" unicode="Ľ" horiz-adv-x="716" d="M106 0v1638h125V100h449V0H106zm408 1169l41 469h100l-63-469h-78z"/><glyph glyph-name="lcaron" unicode="ľ" horiz-adv-x="411" d="M106 1638h119V0H106v1638zm181-469l41 469h100l-63-469h-78z"/><glyph glyph-name="Lslash" unicode="Ł" horiz-adv-x="796" d="M190 0v705L33 602v105l157 102v829h125V889l211 137V922L315 784V100h449V0H190z"/><glyph glyph-name="lslash" unicode="ł" horiz-adv-x="598" d="M252 1638h119V918l198 139V944L371 807V0H252v723L51 584v110l201 142v802z"/><glyph glyph-name="Nacute" unicode="Ń" horiz-adv-x="921" d="M106 0v1638h121L696 311v1327h119V0H692L223 1329V0H106zm62 1839l563 152 21-80-564-150z"/><glyph glyph-name="nacute" unicode="ń" d="M225 1331v-143q77 164 267 164 136 0 204-90t68-277V0H643v983q0 136-41.5 204T459 1255q-62 0-109-27.5t-73-72.5-39-96-13-105V0H106v1331h119zm-84 201l564 151 20-79-563-150z"/><glyph glyph-name="uni0145" unicode="Ņ" horiz-adv-x="921" d="M106 0v1638h121L696 311v1327h119V0H692L223 1329V0H106zm261-166q0 38 27 66t71 28q41 0 67.5-27.5T559-186q0-156-166-236v78q51 23 78.5 53t36.5 74q-28-31-62-31-32 0-55.5 23T367-166z"/><glyph glyph-name="uni0146" unicode="ņ" d="M225 1331v-143q77 164 267 164 136 0 204-90t68-277V0H643v983q0 136-41.5 204T459 1255q-62 0-109-27.5t-73-72.5-39-96-13-105V0H106v1331h119zM340-166q0 38 27 66t71 28q41 0 67.5-27.5T532-186q0-157-165-236v78q51 23 78 53t36 74q-28-31-61-31-32 0-56 23t-24 59z"/><glyph glyph-name="Ncaron" unicode="Ň" horiz-adv-x="921" d="M106 0v1638h121L696 311v1327h119V0H692L223 1329V0H106zm62 1991h133l162-168 155 168h134l-217-230H391z"/><glyph glyph-name="ncaron" unicode="ň" d="M225 1331v-143q77 164 267 164 136 0 204-90t68-277V0H643v983q0 136-41.5 204T459 1255q-62 0-109-27.5t-73-72.5-39-96-13-105V0H106v1331h119zm-84 352h133l162-167 156 167h133l-217-229H365z"/><glyph glyph-name="Eng" unicode="Ŋ" horiz-adv-x="921" d="M106 0v1638h121L696 311v1327h119V0q-1-95-8-157.5T781-272t-52.5-80-85.5-43-127-15h-35v117h43q44 0 73.5 10.5T646-252t29 57.5 14 81.5 5 113h-2L223 1329V0H106z"/><glyph glyph-name="eng" unicode="ŋ" d="M225 1331v-143q77 164 267 164 136 0 204-90t68-277V0q0-215-71.5-312.5T438-410h-92v97h86q123 0 167 71.5T643 0v983q0 136-41.5 204T459 1255q-62 0-109-27.5t-73-72.5-39-96-13-105V0H106v1331h119z"/><glyph glyph-name="Omacron" unicode="Ō" horiz-adv-x="886" d="M444-20Q90-20 90 391v856q0 412 354 412 353 0 353-412V391q0-411-353-411zM152 1835v82h583v-82H152zm63-1448q0-89 16-150t47.5-93.5 71-46T444 84q54 0 93 13.5t71 46 48 93.5 16 150v864q0 89-16 150t-48 93.5-71 46-93 13.5q-55 0-94.5-13.5t-71-46T231 1401t-16-150V387z"/><glyph glyph-name="omacron" unicode="ō" horiz-adv-x="823" d="M412-20Q82-20 82 391v551q0 410 330 410 329 0 329-410V391q0-411-329-411zM119 1528v82h583v-82H119zm84-1145q0-173 55-240t154-67 154 67 55 240v565q0 173-55 240t-154 67-154-67-55-240V383z"/><glyph glyph-name="Ohungarumlaut" unicode="Ő" horiz-adv-x="886" d="M444-20Q90-20 90 391v856q0 412 354 412 353 0 353-412V391q0-411-353-411zM215 387q0-89 16-150t47.5-93.5 71-46T444 84q54 0 93 13.5t71 46 48 93.5 16 150v864q0 89-16 150t-48 93.5-71 46-93 13.5q-55 0-94.5-13.5t-71-46T231 1401t-16-150V387zm57 1374l236 230h110l-215-230H272zm240 0l236 230h108l-215-230H512z"/><glyph glyph-name="ohungarumlaut" unicode="ő" horiz-adv-x="823" d="M412-20Q82-20 82 391v551q0 410 330 410 329 0 329-410V391q0-411-329-411zM203 383q0-173 55-240t154-67 154 67 55 240v565q0 173-55 240t-154 67-154-67-55-240V383zm37 1071l235 229h111l-215-229H240zm239 0l236 229h108l-215-229H479z"/><glyph glyph-name="OE" unicode="Œ" horiz-adv-x="1148" d="M391-20q-155 0-226 98.5T94 410v821q0 232 71 330t226 98q158 0 227-107v86h469v-100H735V870h336V768H735V100h352V0H618v86Q550-20 391-20zM215 385q0-166 42.5-235.5T403 80t155 58.5T610 305v1028q0 107-52.5 166.5T403 1559q-103 0-145.5-70T215 1253V385z"/><glyph glyph-name="oe" unicode="œ" horiz-adv-x="1314" d="M397-20Q237-20 159.5 86.5T82 387v557q0 193 77.5 300.5T397 1352q192 0 262-185 67 185 267 185 311 0 311-408V657H717V383q0-90 15.5-152t45-95 64-46.5T922 76t79.5 13.5T1062 136t40.5 94.5T1116 383v43h121v-39q0-407-307-407-101 0-168 44.5T659 164Q591-20 397-20zM203 383q0-90 15.5-152t44.5-95 62-46.5T401 76q44 0 78 13.5t63 46.5 44.5 95T602 383v565q0 90-15.5 152t-44.5 95-63 46.5-78 13.5q-43 0-76-13.5t-62-46.5-44.5-95T203 948V383zm514 369h399v196q0 91-13.5 152.5T1062 1195t-60.5 46.5T922 1255t-80.5-13.5-64-46.5-45-95T717 948V752z"/><glyph glyph-name="Racute" unicode="Ŕ" horiz-adv-x="878" d="M692 0q-22 28-22 145v320q0 59-11.5 105.5t-28.5 77-44 53-51.5 34-57 18-55 8T371 762H231V0H106v1638h263q127 0 205.5-17t131-63.5 73-123T799 1235v-41q0-92-16.5-159t-68-127T575 815q110-38 165-123.5T795 461V145q0-115 22-145H692zM111 1839l563 152 20-80-563-150zm120-979h140q76 0 131.5 17t88.5 44 52 70 25 86.5 6 102.5v59q0 54-3.5 94.5t-12.5 72-19.5 53-31 37-40.5 24-53.5 13-64 6-78.5 1.5H231V860z"/><glyph glyph-name="racute" unicode="ŕ" horiz-adv-x="757" d="M225 1331v-139q80 160 252 160 131 0 189.5-85t58.5-245V901H606v100q0 133-38 193.5T442 1255q-51 0-91-23.5t-63-58-38-79.5-20-83-5-73V0H106v1331h119zm-84 201l564 151 20-79-563-150z"/><glyph glyph-name="uni0156" unicode="Ŗ" horiz-adv-x="878" d="M692 0q-22 28-22 145v320q0 59-11.5 105.5t-28.5 77-44 53-51.5 34-57 18-55 8T371 762H231V0H106v1638h263q127 0 205.5-17t131-63.5 73-123T799 1235v-41q0-92-16.5-159t-68-127T575 815q110-38 165-123.5T795 461V145q0-115 22-145H692zM231 860h140q76 0 131.5 17t88.5 44 52 70 25 86.5 6 102.5v59q0 54-3.5 94.5t-12.5 72-19.5 53-31 37-40.5 24-53.5 13-64 6-78.5 1.5H231V860zM354-166q0 38 27.5 66T453-72q41 0 67.5-27.5T547-186q0-156-166-236v78q51 23 78.5 53t36.5 74q-28-31-62-31-32 0-56 23t-24 59z"/><glyph glyph-name="uni0157" unicode="ŗ" horiz-adv-x="757" d="M225 1331v-139q80 160 252 160 131 0 189.5-85t58.5-245V901H606v100q0 133-38 193.5T442 1255q-51 0-91-23.5t-63-58-38-79.5-20-83-5-73V0H106v1331h119zM72-166q0 38 27 66t71 28q41 0 67.5-27.5T264-186q0-156-166-236v78q51 23 78.5 53t36.5 74q-28-31-61-31-32 0-56 23t-24 59z"/><glyph glyph-name="Rcaron" unicode="Ř" horiz-adv-x="878" d="M692 0q-22 28-22 145v320q0 59-11.5 105.5t-28.5 77-44 53-51.5 34-57 18-55 8T371 762H231V0H106v1638h263q127 0 205.5-17t131-63.5 73-123T799 1235v-41q0-92-16.5-159t-68-127T575 815q110-38 165-123.5T795 461V145q0-115 22-145H692zM111 1991h133l162-168 155 168h133l-217-230H334zM231 860h140q76 0 131.5 17t88.5 44 52 70 25 86.5 6 102.5v59q0 54-3.5 94.5t-12.5 72-19.5 53-31 37-40.5 24-53.5 13-64 6-78.5 1.5H231V860z"/><glyph glyph-name="rcaron" unicode="ř" horiz-adv-x="757" d="M225 1331v-139q80 160 252 160 131 0 189.5-85t58.5-245V901H606v100q0 133-38 193.5T442 1255q-51 0-91-23.5t-63-58-38-79.5-20-83-5-73V0H106v1331h119zm-84 352h133l162-167 156 167h133l-217-229H365z"/><glyph glyph-name="Sacute" unicode="Ś" horiz-adv-x="835" d="M420-20Q238-20 149.5 80.5T61 397v154h125V387q0-175 56-241t180-66q121 0 171 62.5T643 362v11q0 99-19.5 168t-54 113-96.5 91L285 889q-105 82-155 174t-50 231q0 365 340 365 175 0 260.5-97.5T766 1255v-88H641v90q0 76-11 130.5t-29.5 87.5-47.5 52-60 25.5-73 6.5q-112 0-163.5-55T205 1313v-8q0-117 36.5-187.5T356 985l189-143q116-89 169.5-190T768 379q0-197-80.5-298T420-20zM121 1839l563 152 21-80-564-150z"/><glyph glyph-name="sacute" unicode="ś" horiz-adv-x="784" d="M528 662q68-56 106.5-101T695 455t22-140q0-50-7.5-93t-29-89-56-78.5T530 1 391-20Q59-20 59 338v92h119v-92q0-138 50.5-200T389 76q111 0 160 55.5T598 305q0 92-30.5 146T455 573L262 733q-45 36-71 61.5t-55.5 65-43.5 87T78 1053q0 44 7.5 82.5t29 79.5 55 70.5 91 48T393 1352q173 0 248.5-94.5T717 989v-65H598v65q0 148-50.5 207T395 1255q-97 0-146.5-48T199 1057q0-78 31-125.5T336 821zm-426 870l564 151 20-79-563-150z"/><glyph glyph-name="Scircumflex" unicode="Ŝ" horiz-adv-x="835" d="M420-20Q238-20 149.5 80.5T61 397v154h125V387q0-175 56-241t180-66q121 0 171 62.5T643 362v11q0 99-19.5 168t-54 113-96.5 91L285 889q-105 82-155 174t-50 231q0 365 340 365 175 0 260.5-97.5T766 1255v-88H641v90q0 76-11 130.5t-29.5 87.5-47.5 52-60 25.5-73 6.5q-112 0-163.5-55T205 1313v-8q0-117 36.5-187.5T356 985l189-143q116-89 169.5-190T768 379q0-197-80.5-298T420-20zM121 1761l223 230h143l218-230H571l-155 168-162-168H121z"/><glyph glyph-name="scircumflex" unicode="ŝ" horiz-adv-x="784" d="M528 662q68-56 106.5-101T695 455t22-140q0-50-7.5-93t-29-89-56-78.5T530 1 391-20Q59-20 59 338v92h119v-92q0-138 50.5-200T389 76q111 0 160 55.5T598 305q0 92-30.5 146T455 573L262 733q-45 36-71 61.5t-55.5 65-43.5 87T78 1053q0 44 7.5 82.5t29 79.5 55 70.5 91 48T393 1352q173 0 248.5-94.5T717 989v-65H598v65q0 148-50.5 207T395 1255q-97 0-146.5-48T199 1057q0-78 31-125.5T336 821zm-426 792l224 229h143l217-229H553l-156 168-161-168H102z"/><glyph glyph-name="Scedilla" unicode="Ş" horiz-adv-x="835" d="M283-342q147 0 205.5 15.5T547-260q0 52-56.5 62T324-207l45 189Q214-4 137.5 97T61 397v154h125V387q0-175 56-241t180-66q121 0 171 62.5T643 362v11q0 99-19.5 168t-54 113-96.5 91L285 889q-105 82-155 174t-50 231q0 365 340 365 175 0 260.5-97.5T766 1255v-88H641v90q0 76-11 130.5t-29.5 87.5-47.5 52-60 25.5-73 6.5q-112 0-163.5-55T205 1313v-8q0-117 36.5-187.5T356 985l189-143q116-89 169.5-190T768 379q0-187-72-288T457-20l-31-115q225 32 225-125 0-57-33-91.5T502.5-405 281-424z"/><glyph glyph-name="scedilla" unicode="ş" horiz-adv-x="784" d="M528 662q68-56 106.5-101T695 455t22-140q0-47-6.5-88T685 142t-50-76.5T551.5 10 430-18l-31-117q226 33 226-125 0-85-83-124.5T254-424l2 82q147 0 205.5 15.5T520-260q0 52-56.5 62T297-207l45 189Q59 9 59 338v92h119v-92q0-138 50.5-200T389 76q111 0 160 55.5T598 305q0 92-30.5 146T455 573L262 733q-45 36-71 61.5t-55.5 65-43.5 87T78 1053q0 44 7.5 82.5t29 79.5 55 70.5 91 48T393 1352q173 0 248.5-94.5T717 989v-65H598v65q0 148-50.5 207T395 1255q-97 0-146.5-48T199 1057q0-78 31-125.5T336 821z"/><glyph glyph-name="Scaron" unicode="Š" horiz-adv-x="835" d="M420-20Q238-20 149.5 80.5T61 397v154h125V387q0-175 56-241t180-66q121 0 171 62.5T643 362v11q0 99-19.5 168t-54 113-96.5 91L285 889q-105 82-155 174t-50 231q0 365 340 365 175 0 260.5-97.5T766 1255v-88H641v90q0 76-11 130.5t-29.5 87.5-47.5 52-60 25.5-73 6.5q-112 0-163.5-55T205 1313v-8q0-117 36.5-187.5T356 985l189-143q116-89 169.5-190T768 379q0-197-80.5-298T420-20zM121 1991h133l162-168 155 168h134l-218-230H344z"/><glyph glyph-name="scaron" unicode="š" horiz-adv-x="784" d="M528 662q68-56 106.5-101T695 455t22-140q0-50-7.5-93t-29-89-56-78.5T530 1 391-20Q59-20 59 338v92h119v-92q0-138 50.5-200T389 76q111 0 160 55.5T598 305q0 92-30.5 146T455 573L262 733q-45 36-71 61.5t-55.5 65-43.5 87T78 1053q0 44 7.5 82.5t29 79.5 55 70.5 91 48T393 1352q173 0 248.5-94.5T717 989v-65H598v65q0 148-50.5 207T395 1255q-97 0-146.5-48T199 1057q0-78 31-125.5T336 821zM102 1683h134l161-167 156 167h133l-217-229H326z"/><glyph glyph-name="uni0162" unicode="Ţ" horiz-adv-x="737" d="M305 0v1538H39v100h657v-100H430V0h-14l-35-135q225 32 225-125 0-57-33-91.5T457.5-405 236-424l2 82q147 0 205.5 15.5T502-260q0 52-56.5 62T279-207L328 0h-23z"/><glyph glyph-name="uni0163" unicode="ţ" horiz-adv-x="589" d="M549 1331v-96H307V317q0-138 19-178.5T418 98h131V0H430l-29-115q226 33 226-125 0-85-82.5-124T256-403l2 81q147 0 205.5 15.5T522-240q0 27-13.5 42.5t-44 20-67.5 2-98-10.5L344 4q-51 7-83.5 29T212 97t-21 86.5-5 113.5v938H27v96q90 26 146 112t54 195h119q0-111-51-198t-111-109h365z"/><glyph glyph-name="Tcaron" unicode="Ť" horiz-adv-x="737" d="M305 0v1538H39v100h657v-100H430V0H305zM76 1991h133l162-168 155 168h133l-217-230H299z"/><glyph glyph-name="tcaron" unicode="ť" horiz-adv-x="589" d="M549 1331v-96H307V317q0-138 19-178.5T418 98h131V0H393q-55 0-93 14.5T240 52t-34.5 63.5-16 81T186 297v938H27v96q90 26 146 112t54 195h119q0-111-51-198t-111-109h365zm-121 123l80 352h100l-102-352h-78z"/><glyph glyph-name="Tbar" unicode="Ŧ" horiz-adv-x="745" d="M309 0v770H125v86h184v682H43v100h657v-100H434V856h184v-86H434V0H309z"/><glyph glyph-name="tbar" unicode="ŧ" horiz-adv-x="600" d="M557 1331v-96H315V772h234v-84H315V317q0-138 19-178.5T426 98h131V0H401q-55 0-93 14.5T248 52t-34 63.5-15.5 80.5-3.5 101v391H43v84h152v463H35v96q90 26 146.5 112t54.5 195h118q0-111-50.5-198T193 1331h364z"/><glyph glyph-name="Utilde" unicode="Ũ" horiz-adv-x="911" d="M455-20q-353 0-353 415v1243h125V387q0-90 16-152t48-95 71-46.5T455 80q55 0 94.5 13.5t71 46.5 47.5 94.5T684 387v1251h125V395q0-199-83.5-307T455-20zM162 1786q0 205 164 205 44 0 77.5-15t53.5-37 36.5-44 37-37 44.5-15q68 0 68 123h102q0-205-163-205-44 0-77.5 15t-53.5 37-37 44-37.5 37-44.5 15q-68 0-68-123H162z"/><glyph glyph-name="utilde" unicode="ũ" d="M639 0v147Q560-20 371-20q-137 0-205 89.5T98 346v985h121V348q0-136 41.5-204T403 76q62 0 109 27.5t73 72.5 39 96 13 105l2-53v1007h119V0H639zM133 1479q0 204 164 204 44 0 77.5-15t53.5-36.5 37-43.5 37.5-37 44.5-15q67 0 67 123h103q0-205-164-205-44 0-77.5 15t-53.5 37-37 44-37.5 37-44.5 15q-67 0-67-123H133z"/><glyph glyph-name="Umacron" unicode="Ū" horiz-adv-x="911" d="M455-20q-353 0-353 415v1243h125V387q0-90 16-152t48-95 71-46.5T455 80q55 0 94.5 13.5t71 46.5 47.5 94.5T684 387v1251h125V395q0-199-83.5-307T455-20zM162 1835v82h583v-82H162z"/><glyph glyph-name="umacron" unicode="ū" d="M639 0v147Q560-20 371-20q-137 0-205 89.5T98 346v985h121V348q0-136 41.5-204T403 76q62 0 109 27.5t73 72.5 39 96 13 105l2-53v1007h119V0H639zM133 1528v82h584v-82H133z"/><glyph glyph-name="Ubreve" unicode="Ŭ" horiz-adv-x="911" d="M455-20q-353 0-353 415v1243h125V387q0-90 16-152t48-95 71-46.5T455 80q55 0 94.5 13.5t71 46.5 47.5 94.5T684 387v1251h125V395q0-199-83.5-307T455-20zM162 1991h102q0-41 19-72t49.5-46.5T394 1850t63-7 62 7 59 22.5 47 46 18 72.5h102q0-64-24.5-110.5T654 1809t-91-36.5-106-11.5-107 11.5-93.5 36.5-69 71.5T162 1991z"/><glyph glyph-name="ubreve" unicode="ŭ" d="M639 0v147Q560-20 371-20q-137 0-205 89.5T98 346v985h121V348q0-136 41.5-204T403 76q62 0 109 27.5t73 72.5 39 96 13 105l2-53v1007h119V0H639zM133 1683h103q0-41 19-71.5t49.5-46 61-22.5 62.5-7 62 7 59 22.5 47 45.5 18 72h103q0-64-24.5-110.5t-67-71.5-91.5-36-106-11q-58 0-107.5 11t-93 36-69 71.5T133 1683z"/><glyph glyph-name="Uring" unicode="Ů" horiz-adv-x="911" d="M455-20q-353 0-353 415v1243h125V387q0-90 16-152t48-95 71-46.5T455 80q55 0 94.5 13.5t71 46.5 47.5 94.5T684 387v1251h125V395q0-199-83.5-307T455-20zM289 1896q0 71 49.5 118.5T455 2062t116.5-47.5T621 1896t-49-118-117-47-117 47-49 118zm76 0q0-40 24.5-65t65.5-25 65.5 25 24.5 65-24.5 65.5T455 1987t-65.5-25.5T365 1896z"/><glyph glyph-name="uring" unicode="ů" d="M639 0v147Q560-20 371-20q-137 0-205 89.5T98 346v985h121V348q0-136 41.5-204T403 76q62 0 109 27.5t73 72.5 39 96 13 105l2-53v1007h119V0H639zM260 1589q0 71 49.5 118.5T426 1755t116.5-47.5T592 1589t-49.5-118.5T426 1423t-116.5 47.5T260 1589zm76 0q0-40 24.5-65t65.5-25 65.5 25 24.5 65-24.5 65-65.5 25-65.5-25-24.5-65z"/><glyph glyph-name="Uhungarumlaut" unicode="Ű" horiz-adv-x="911" d="M455-20q-353 0-353 415v1243h125V387q0-90 16-152t48-95 71-46.5T455 80q55 0 94.5 13.5t71 46.5 47.5 94.5T684 387v1251h125V395q0-199-83.5-307T455-20zM285 1761l235 230h111l-215-230H285zm239 0l236 230h108l-215-230H524z"/><glyph glyph-name="uhungarumlaut" unicode="ű" d="M639 0v147Q560-20 371-20q-137 0-205 89.5T98 346v985h121V348q0-136 41.5-204T403 76q62 0 109 27.5t73 72.5 39 96 13 105l2-53v1007h119V0H639zM256 1454l236 229h110l-215-229H256zm240 0l235 229h109l-215-229H496z"/><glyph glyph-name="Uogonek" unicode="Ų" horiz-adv-x="911" d="M455-20q-353 0-353 415v1243h125V387q0-90 16-152t48-95 71-46.5T455 80q55 0 94.5 13.5t71 46.5 47.5 94.5T684 387v1251h125V395Q809 66 590-2 486-38 435.5-85.5T385-201q0-66 59.5-96.5T635-328h31l-82-84h-29q-126 0-199 47.5T283-221q0 75 47 122t129 79h-4z"/><glyph glyph-name="uogonek" unicode="ų" d="M639 0v147Q560-20 371-20q-137 0-205 89.5T98 346v985h121V348q0-136 41.5-204T403 76q62 0 109 27.5t73 72.5 39 96 13 105l2-53v1007h119V0Q654-36 603.5-83.5T553-199q0-66 59.5-96.5T803-326h31l-82-84h-29q-126 0-199 47.5T451-219q0 46 18.5 82t54 62T595-32.5 680 0h-41z"/><glyph glyph-name="Wcircumflex" unicode="Ŵ" horiz-adv-x="1441" d="M305 0L37 1638h123L393 150l238 1488h182l236-1488 2-7v7l231 1488h123L1137 0H961L723 1468l-2 13-2-13L481 0H305zm123 1761l223 230h144l217-230H879l-156 168-162-168H428z"/><glyph glyph-name="wcircumflex" unicode="ŵ" horiz-adv-x="1335" d="M375 1454l223 229h143l217-229H825l-155 168-162-168H375zM37 1331h119L371 158l215 1173h164L965 162l215 1169h118L1040 0H895L668 1200 438 0H295z"/><glyph glyph-name="Ycircumflex" unicode="Ŷ" horiz-adv-x="776" d="M326 0v573L27 1638h129l231-895 231 895h130L451 573V0H326zM94 1761l225 230h144l217-230H547l-156 168-162-168H94z"/><glyph glyph-name="ycircumflex" unicode="ŷ" horiz-adv-x="860" d="M637-2v149Q558-20 369-20q-137 0-205 89.5T96 346v985h121V348q0-136 41.5-204T401 76q62 0 109 27.5t73 72.5 39 96 13 105l2-53v1007h119V-2q0-102-16-173t-54.5-126T576-383t-177-27H139v97h246q79 0 128.5 17.5T590-237t37 95T637-2zM127 1454l223 229h144l217-229H578l-156 168-162-168H127z"/><glyph glyph-name="Ydieresis" unicode="Ÿ" horiz-adv-x="776" d="M326 0v573L27 1638h129l231-895 231 895h130L451 573V0H326zM139 1872q0 40 24.5 63t61.5 23 62.5-23 25.5-63q0-37-26-60.5t-62-23.5-61 23.5-25 60.5zm322 0q0 40 24.5 63t61.5 23 62.5-23 25.5-63q0-37-26-60.5t-62-23.5-61 23.5-25 60.5z"/><glyph glyph-name="Zacute" unicode="Ź" horiz-adv-x="727" d="M47 0v100l508 1438H47v100h633v-100L172 100h508V0H47zm25 1839l563 152 20-80-563-150z"/><glyph glyph-name="zacute" unicode="ź" horiz-adv-x="692" d="M45 1331h602v-96L168 98h473V0H51v98l477 1137H45v96zm12 201l564 151 20-79-563-150z"/><glyph glyph-name="Zdotaccent" unicode="Ż" horiz-adv-x="727" d="M47 0v100l508 1438H47v100h633v-100L172 100h508V0H47zm219 1866q0 39 28.5 67.5T365 1962t69-28.5 27-67.5q0-38-27-66t-69-28-70.5 28-28.5 66z"/><glyph glyph-name="zdotaccent" unicode="ż" horiz-adv-x="692" d="M45 1331h602v-96L168 98h473V0H51v98l477 1137H45v96zm205 232q0 40 28 68t72 28 71.5-27.5T449 1563q0-38-28-66.5t-71-28.5-71.5 28.5T250 1563z"/><glyph glyph-name="Zcaron" unicode="Ž" horiz-adv-x="727" d="M47 0v100l508 1438H47v100h633v-100L172 100h508V0H47zm25 1991h133l162-168 155 168h133l-217-230H295z"/><glyph glyph-name="zcaron" unicode="ž" horiz-adv-x="692" d="M45 1331h602v-96L168 98h473V0H51v98l477 1137H45v96zm12 352h133l162-167 156 167h133l-217-229H281z"/><glyph glyph-name="uni0218" unicode="Ș" horiz-adv-x="835" d="M420-20Q238-20 149.5 80.5T61 397v154h125V387q0-175 56-241t180-66q121 0 171 62.5T643 362v11q0 99-19.5 168t-54 113-96.5 91L285 889q-105 82-155 174t-50 231q0 365 340 365 175 0 260.5-97.5T766 1255v-88H641v90q0 76-11 130.5t-29.5 87.5-47.5 52-60 25.5-73 6.5q-112 0-163.5-55T205 1313v-8q0-117 36.5-187.5T356 985l189-143q116-89 169.5-190T768 379q0-197-80.5-298T420-20zM319-166q0 38 27.5 66T418-72q41 0 67.5-27.5T512-186q0-156-166-236v78q51 23 78.5 53t36.5 74q-28-31-62-31-32 0-56 23t-24 59z"/><glyph glyph-name="uni0219" unicode="ș" horiz-adv-x="784" d="M528 662q68-56 106.5-101T695 455t22-140q0-50-7.5-93t-29-89-56-78.5T530 1 391-20Q59-20 59 338v92h119v-92q0-138 50.5-200T389 76q111 0 160 55.5T598 305q0 92-30.5 146T455 573L262 733q-45 36-71 61.5t-55.5 65-43.5 87T78 1053q0 44 7.5 82.5t29 79.5 55 70.5 91 48T393 1352q173 0 248.5-94.5T717 989v-65H598v65q0 148-50.5 207T395 1255q-97 0-146.5-48T199 1057q0-78 31-125.5T336 821zM295-166q0 38 27 66t71 28q41 0 67.5-27.5T487-186q0-157-165-236v78q51 23 78 53t36 74q-28-31-61-31-32 0-56 23t-24 59z"/><glyph glyph-name="uni021A" unicode="Ț" horiz-adv-x="737" d="M305 0v1538H39v100h657v-100H430V0H305zm-31-166q0 38 27.5 66T373-72q41 0 67.5-27.5T467-186q0-156-166-236v78q51 23 78.5 53t36.5 74q-28-31-62-31-32 0-56 23t-24 59z"/><glyph glyph-name="uni021B" unicode="ț" horiz-adv-x="589" d="M549 1331v-96H307V317q0-138 19-178.5T418 98h131V0H393q-55 0-93 14.5T240 52t-34.5 63.5-16 81T186 297v938H27v96q90 26 146 112t54 195h119q0-111-51-198t-111-109h365zM295-145q0 38 27 66t71 28q41 0 67.5-28t26.5-87q0-156-165-235v77q51 23 78 53t36 74q-27-30-61-30-32 0-56 23t-24 59z"/><glyph glyph-name="uni0237" unicode="ȷ" horiz-adv-x="331" d="M106-20v1351h119V-41q0-92-15.5-157.5T157-313 56-386t-158-24h-93v97h86q125 0 170 68.5T106-20z"/><glyph glyph-name="circumflex" unicode="ˆ" horiz-adv-x="993" d="M205 1454l223 229h143l217-229H655l-155 168-162-168H205z"/><glyph glyph-name="caron" unicode="ˇ" horiz-adv-x="993" d="M428 1454l-223 229h133l162-167 155 167h133l-217-229H428z"/><glyph glyph-name="breve" unicode="˘" horiz-adv-x="993" d="M500 1454q-58 0-107.5 11t-93 36-69 71.5T205 1683h102q0-41 19-71.5t49.5-46T437 1543t63-7 62 7 59 22.5 47 45.5 18 72h102q0-64-24.5-110.5T697 1501t-91-36-106-11z"/><glyph glyph-name="dotaccent" unicode="˙" horiz-adv-x="608" d="M305 1468q-43 0-71.5 28.5T205 1563q0 40 28 68t72 28q43 0 70.5-27.5T403 1563q0-38-27.5-66.5T305 1468z"/><glyph glyph-name="ring" unicode="˚" horiz-adv-x="741" d="M371 1423q-67 0-116.5 47.5T205 1589t49.5 118.5T371 1755t116.5-47.5T537 1589t-49.5-118.5T371 1423zm-90 166q0-40 24.5-65t65.5-25 65.5 25 24.5 65-24.5 65-65.5 25-65.5-25-24.5-65z"/><glyph glyph-name="ogonek" unicode="˛" horiz-adv-x="774" d="M496-410q-126 0-199.5 47.5T223-219q0 46 18.5 82t54 62 72 42.5T453 0h77Q426-36 376-83.5T326-199q0-66 59-96.5T575-326h31l-82-84h-28z"/><glyph glyph-name="tilde" unicode="˜" horiz-adv-x="993" d="M205 1479q0 204 164 204 37 0 67-11t48-27 35-35.5 29.5-35.5 30.5-27 39-11q68 0 68 123h102q0-205-163-205-44 0-77.5 15t-53.5 37-37 44-37.5 37-44.5 15q-68 0-68-123H205z"/><glyph glyph-name="hungarumlaut" unicode="˝" horiz-adv-x="993" d="M573 1454H444l236 229h108zm-368 0l235 229h111l-215-229H205z"/><glyph glyph-name="uni1E20" unicode="Ḡ" horiz-adv-x="884" d="M426-20Q254-20 172 89.5T90 393v854q0 412 354 412 353 0 353-412v-192H672v200q0 89-16 150t-48 94-71 46.5-93 13.5q-113 0-171-66t-58-238V387q0-170 54-238.5T446 80q128 0 177 73.5T672 403v320H444v98h353V0h-88l-11 133Q614-20 426-20zM152 1835v82h583v-82H152z"/><glyph glyph-name="uni1E21" unicode="ḡ" horiz-adv-x="847" d="M623-2v152q-31-70-93-120T369-20q-137 0-211 96.5T84 360v613q0 187 76 283t211 96q171 0 252-166v145h120V-20q0-100-16-169.5t-54.5-121-106-75.5T399-410H127v97h264q137 0 184.5 70.5T623-2zM113 1528v82h583v-82H113zm92-1163q0-140 43-214.5T395 76q59 0 104.5 27.5t71.5 72 39 94.5 13 103v585q0 53-13 103t-39 94.5-71.5 72T395 1255q-104 0-147-74.5T205 967V365z"/><glyph glyph-name="Wgrave" unicode="Ẁ" horiz-adv-x="1441" d="M305 0L37 1638h123L393 150l238 1488h182l236-1488 2-7v7l231 1488h123L1137 0H961L723 1468l-2 13-2-13L481 0H305zm123 1911l21 80 563-152-21-78z"/><glyph glyph-name="wgrave" unicode="ẁ" horiz-adv-x="1335" d="M958 1532l-20-78-563 150 20 79zM37 1331h119L371 158l215 1173h164L965 162l215 1169h118L1040 0H895L668 1200 438 0H295z"/><glyph glyph-name="Wacute" unicode="Ẃ" horiz-adv-x="1441" d="M305 0L37 1638h123L393 150l238 1488h182l236-1488 2-7v7l231 1488h123L1137 0H961L723 1468l-2 13-2-13L481 0H305zm123 1839l563 152 21-80-563-150z"/><glyph glyph-name="wacute" unicode="ẃ" horiz-adv-x="1335" d="M395 1454l-20 78 563 151 20-79zM37 1331h119L371 158l215 1173h164L965 162l215 1169h118L1040 0H895L668 1200 438 0H295z"/><glyph glyph-name="Wdieresis" unicode="Ẅ" horiz-adv-x="1441" d="M305 0L37 1638h123L393 150l238 1488h182l236-1488 2-7v7l231 1488h123L1137 0H961L723 1468l-2 13-2-13L481 0H305zm168 1872q0 40 24.5 63t61.5 23 62.5-23 25.5-63q0-37-26-60.5t-62-23.5-61 23.5-25 60.5zm322 0q0 40 24.5 63t61.5 23 62.5-23 25.5-63q0-37-26-60.5t-62-23.5-61 23.5-25 60.5z"/><glyph glyph-name="wdieresis" unicode="ẅ" horiz-adv-x="1335" d="M825 1481q-36 0-61 23.5t-25 60.5q0 40 24.5 63t61.5 23 62.5-23 25.5-63q0-37-26-60.5t-62-23.5zM37 1331h119L371 158l215 1173h164L965 162l215 1169h118L1040 0H895L668 1200 438 0H295zm381 234q0 40 24.5 63t61.5 23 62.5-23 25.5-63q0-37-26-60.5t-62-23.5-61 23.5-25 60.5z"/><glyph glyph-name="uni1E9E" unicode="ẞ" horiz-adv-x="870" d="M104 1356q0 149 67 215.5t218 66.5h412q-28-149-49-244t-42-169.5-42.5-117.5-45.5-70-57-44q121-47 178.5-148.5T801 541V426Q801 0 451 0H309v96h137q120 0 177 76.5T680 426v123q0 73-7 129.5t-25.5 107T599 869t-77.5 52T410 940l-101 2v96h101q111 0 151 76.5T671 1492q7 30 11 46H389q-84 0-125-37.5T223 1370V0H104v1356z"/><glyph glyph-name="uni1EBC" unicode="Ẽ" horiz-adv-x="741" d="M106 0v1638h574v-100H231V870h433V768H231V100h449V0H106zm-4 1786q0 205 164 205 44 0 77.5-15t53.5-37 37-44 37.5-37 44.5-15q68 0 68 123h102q0-205-164-205-44 0-77.5 15t-53.5 37-37 44-37.5 37-44.5 15q-67 0-67-123H102z"/><glyph glyph-name="uni1EBD" unicode="ẽ" horiz-adv-x="819" d="M123 1479q0 204 164 204 44 0 77.5-15t53.5-36.5 37-43.5 37.5-37 44.5-15q67 0 67 123h103q0-205-164-205-44 0-77.5 15t-53.5 37-37 44-37.5 37-44.5 15q-68 0-68-123H123zM82 391v551q0 410 334 410 90 0 153.5-28.5t100.5-84 54-128.5 17-169V657H203V383q0-90 16-152t46-95 67-46.5T418 76t84 13.5 63 46.5 42 94.5T621 383v41h120v-33q0-199-75-305T418-20Q82-20 82 391zm121 361h418v196q0 91-14 152.5t-42 94.5-63 46.5-84 13.5-86-13.5-67-46.5-46-95-16-152V752z"/><glyph glyph-name="Ygrave" unicode="Ỳ" horiz-adv-x="776" d="M326 0v573L27 1638h129l231-895 231 895h130L451 573V0H326zM94 1911l21 80 565-152-21-78z"/><glyph glyph-name="ygrave" unicode="ỳ" horiz-adv-x="860" d="M637-2v149Q558-20 369-20q-137 0-205 89.5T96 346v985h121V348q0-136 41.5-204T401 76q62 0 109 27.5t73 72.5 39 96 13 105l2-53v1007h119V-2q0-102-16-173t-54.5-126T576-383t-177-27H139v97h246q79 0 128.5 17.5T590-237t37 95T637-2zM127 1604l20 79 564-151-21-78z"/><glyph glyph-name="uni1EF8" unicode="Ỹ" horiz-adv-x="776" d="M326 0v573L27 1638h129l231-895 231 895h130L451 573V0H326zM94 1786q0 205 166 205 44 0 77.5-15t53.5-37 37-44 37.5-37 44.5-15q68 0 68 123h102q0-205-164-205-44 0-77.5 15t-53.5 37-37 44-37.5 37-44.5 15q-67 0-67-123H94z"/><glyph glyph-name="uni1EF9" unicode="ỹ" horiz-adv-x="860" d="M637-2v149Q558-20 369-20q-137 0-205 89.5T96 346v985h121V348q0-136 41.5-204T401 76q62 0 109 27.5t73 72.5 39 96 13 105l2-53v1007h119V-2q0-102-16-173t-54.5-126T576-383t-177-27H139v97h246q79 0 128.5 17.5T590-237t37 95T637-2zM127 1479q0 204 164 204 44 0 77.5-15t53.5-36.5 37-43.5 37.5-37 44.5-15q67 0 67 123h103q0-205-164-205-44 0-77.5 15t-53.5 37-37 44-37.5 37-44.5 15q-68 0-68-123H127z"/><glyph glyph-name="uni2000" horiz-adv-x="1024"/><glyph glyph-name="uni2001" horiz-adv-x="2048"/><glyph glyph-name="uni2002" horiz-adv-x="1024"/><glyph glyph-name="uni2003" horiz-adv-x="2048"/><glyph glyph-name="uni2004" horiz-adv-x="681"/><glyph glyph-name="uni2005" horiz-adv-x="512"/><glyph glyph-name="uni2006" horiz-adv-x="342"/><glyph glyph-name="uni2007" horiz-adv-x="921"/><glyph glyph-name="uni2008" horiz-adv-x="331"/><glyph glyph-name="uni2009" horiz-adv-x="256"/><glyph glyph-name="uni200A" horiz-adv-x="86"/><glyph glyph-name="uni200B" unicode="​" horiz-adv-x="0"/><glyph glyph-name="endash" unicode="–" horiz-adv-x="1300" d="M57 721h1188v-86H57v86z"/><glyph glyph-name="emdash" unicode="—" horiz-adv-x="2160" d="M57 721h2048v-88H57v88z"/><glyph glyph-name="quoteleft" unicode="‘" horiz-adv-x="266" d="M154 1147H47l82 512h86z"/><glyph glyph-name="quoteright" unicode="’" horiz-adv-x="266" d="M117 1659h106l-82-512H55z"/><glyph glyph-name="quotesinglbase" unicode="‚" horiz-adv-x="249" d="M90 268h107l-82-512H29z"/><glyph glyph-name="quotedblleft" unicode="“" horiz-adv-x="436" d="M324 1147H217l82 512h86zm-277 0l82 512h86l-61-512H47z"/><glyph glyph-name="quotedblright" unicode="”" horiz-adv-x="434" d="M117 1659h106l-82-512H55zm106-512l62 512h106l-82-512h-86z"/><glyph glyph-name="quotedblbase" unicode="„" horiz-adv-x="419" d="M90 268h107l-82-512H29zm107-512l61 512h107l-82-512h-86z"/><glyph glyph-name="dagger" unicode="†" horiz-adv-x="423" d="M162 635v604H45v92h117v307h102v-307h117v-92H264V635H162z"/><glyph glyph-name="daggerdbl" unicode="‡" horiz-adv-x="471" d="M184 635v287H68v92h116v225H68v92h116v307h103v-307h116v-92H287v-225h116v-92H287V635H184z"/><glyph glyph-name="bullet" unicode="•" horiz-adv-x="589" d="M295 526q-83 0-138 54t-55 139 55 138.5T295 911q79 0 135.5-54T487 719t-56.5-138.5T295 526z"/><glyph glyph-name="ellipsis" unicode="…" horiz-adv-x="925" d="M166-20q-48 0-80.5 31T53 92t32.5 81.5T166 205q46 0 79.5-32T279 92t-33.5-80.5T166-20zM352 92q0 50 32.5 81.5T465 205q46 0 79.5-32T578 92t-33.5-80.5T465-20q-48 0-80.5 31T352 92zm295 0q0 50 32.5 81.5T760 205q46 0 79-31.5T872 92q0-49-33-80.5T760-20q-48 0-80.5 31T647 92z"/><glyph glyph-name="uni202F" horiz-adv-x="294"/><glyph glyph-name="perthousand" unicode="‰" horiz-adv-x="1753" d="M1464-20q-68 0-119.5 26T1264 77.5t-42.5 98.5-13.5 115 13.5 115.5T1264 505t80 71 120 26q68 0 118.5-26t79.5-71 42.5-98.5T1718 291q0-61-13.5-114.5t-42.5-99T1582.5 6 1464-20zM35 1348q0 62 13.5 115.5T91 1562t80 71 120 26q68 0 118.5-26t79.5-71 42.5-98.5T545 1348t-13.5-116-42.5-99-79.5-71-118.5-26q-69 0-120 26t-80 71-42.5 99T35 1348zm112 0q0-100 33-155.5t111-55.5q77 0 109 55.5t32 155.5q0 211-141 211-144 0-144-211zM291 0l493 1638h95L383 0h-92zm336 291q0 62 13.5 115.5t42 98.5 79 71T881 602q68 0 118.5-26t79.5-71 42.5-98.5T1135 291q0-61-13.5-114.5t-42.5-99T999.5 6 881-20 762 6t-79.5 71.5-42 98.5T627 291zm110 0q0-211 144-211 143 0 143 211T881 502q-78 0-111-55.5T737 291zm584 0q0-211 143-211 142 0 142 211t-142 211q-78 0-110.5-55T1321 291z"/><glyph glyph-name="second" unicode="″" horiz-adv-x="430" d="M78 1638h106v-512H78v512zm168-512v512h106v-512H246z"/><glyph glyph-name="guilsinglleft" unicode="‹" horiz-adv-x="436" d="M358 307L53 635v82l305 327V920L131 676l227-244V307z"/><glyph glyph-name="guilsinglright" unicode="›" horiz-adv-x="436" d="M78 307v125l227 244L78 920v124l305-327v-82z"/><glyph glyph-name="fraction" unicode="⁄" horiz-adv-x="163" d="M373 1638L-123 0h-84l494 1638h86z"/><glyph glyph-name="uni205F" horiz-adv-x="454"/><glyph glyph-name="uni2070" unicode="⁰" horiz-adv-x="489" d="M244 702Q59 702 59 920v405q0 217 185 217 186 0 186-217V920q0-218-186-218zm-92 254l182 433q-7 45-29.5 62t-60.5 17q-45 0-68.5-26.5T152 1346V956zm8-120q15-60 84-60 46 0 69 27t23 98v359z"/><glyph glyph-name="uni2074" unicode="⁴" horiz-adv-x="436" d="M348 1532V954h55v-73h-55V713h-90v168H29v80l233 571h86zM98 954h160v406z"/><glyph glyph-name="uni2075" unicode="⁵" horiz-adv-x="458" d="M262 1262q72 0 113-51.5t41-151.5V930q0-228-189-228-89 0-135.5 57.5T45 926v35h94v-54q0-131 92-131 93 0 93 127v154q0 129-86 129-80 0-95-121H53l21 467h305v-74H158l-13-268q37 72 117 72z"/><glyph glyph-name="uni2076" unicode="⁶" horiz-adv-x="479" d="M244 702Q59 702 59 926v385q0 112 42 171.5t137 59.5q96 0 137-56t41-145v-20h-92v18q0 64-19.5 93.5T240 1462q-46 0-67-29t-21-94v-143q45 66 122 66 76 0 116-54t40-153V920q0-104-47.5-161T244 702zm-92 201q0-72 24.5-99.5T246 776t67.5 30 22.5 97v156q0 61-22 94t-64 33q-46 0-72-35t-26-92V903z"/><glyph glyph-name="uni2077" unicode="⁷" horiz-adv-x="411" d="M27 1458v74h352v-74q-101-165-138.5-333T203 735v-22h-90v20q0 220 41 389t145 336H27z"/><glyph glyph-name="uni2078" unicode="⁸" horiz-adv-x="466" d="M233 702q-94 0-139 48.5T49 899v64q0 153 105 182-97 28-97 158v57q0 85 44 133.5t132 48.5q89 0 133-48.5t44-133.5v-57q0-130-97-158 105-26 105-182v-64q0-100-45-148.5T233 702zm-90 191q0-71 22.5-94t67.5-23q46 0 69.5 23.5T326 893v94q0 67-24.5 93t-68.5 26-67-26-23-93v-94zm7 391q0-56 20.5-80t62.5-24q84 0 84 104v82q0 55-21 78.5t-63 23.5-62.5-23.5T150 1366v-82z"/><glyph glyph-name="uni2079" unicode="⁹" horiz-adv-x="479" d="M236 1542q184 0 184-221V934q0-112-41.5-172T242 702q-97 0-138 56.5T63 903v21h93v-19q0-64 19.5-93.5T240 782q46 0 67 29.5t21 93.5v144q-46-66-123-66-76 0-116 54.5T49 1190v135q0 105 47.5 161t139.5 56zm-93-356q0-127 86-127 46 0 72.5 35.5T328 1186v157q0 71-25.5 98t-69.5 27q-46 0-68-29t-22-96v-157z"/><glyph glyph-name="uni2080" unicode="₀" horiz-adv-x="489" d="M244-266Q59-266 59-49v405q0 217 185 217 186 0 186-217V-49q0-217-186-217zM152-12l182 432q-7 45-29.5 62.5T244 500q-45 0-68.5-27T152 377V-12zm8-121q15-60 84-60 46 0 69 27t23 98v359z"/><glyph glyph-name="uni2081" unicode="₁" horiz-adv-x="391" d="M41-182h117v628q-37-57-121-57v80q88 0 127 94h82v-745h119v-74H41v74z"/><glyph glyph-name="uni2082" unicode="₂" horiz-adv-x="454" d="M43-176q0 89 25.5 151T166 111l74 73q79 79 79 187v12q0 68-23.5 92.5T229 500q-42 0-64-25t-22-94v-62H49v52q0 202 180 202 183 0 183-206 0-58-19.5-109T353 181t-52-60l-78-78q-53-53-69.5-93T137-182h273v-74H43v80z"/><glyph glyph-name="uni2083" unicode="₃" horiz-adv-x="464" d="M229-266Q45-266 45-61v53h92v-62q0-72 23-97.5t67-25.5q48 0 71.5 28.5T322-68V2q0 40-9.5 68.5t-25 41-29 17T231 133h-67v74h67q34 0 62.5 24.5T322 319v60q0 70-25.5 95.5T229 500q-45 0-68.5-25T137 381v-55H45v47q0 200 184 200 97 0 141-58t44-140v-35q0-62-27-106.5T311 174q103-39 103-188v-41q0-96-43.5-153.5T229-266z"/><glyph glyph-name="uni2084" unicode="₄" horiz-adv-x="436" d="M348 563V-14h55v-74h-55v-168h-90v168H29v80l233 571h86zM98-14h160v405z"/><glyph glyph-name="uni2085" unicode="₅" horiz-adv-x="458" d="M262 293q72 0 113-51.5T416 90V-39q0-227-189-227-89 0-135.5 57T45-43v35h94v-53q0-132 92-132 93 0 93 127V88q0 129-86 129-80 0-95-121H53l21 467h305v-74H158l-13-268q37 72 117 72z"/><glyph glyph-name="uni2086" unicode="₆" horiz-adv-x="479" d="M244-266Q59-266 59-43v385q0 112 42 171.5T238 573q178 0 178-200v-21h-92v19q0 64-19.5 93.5T240 494q-46 0-67-29t-21-94V227q45 66 122 66 76 0 116-54t40-153V-49q0-104-47.5-160.5T244-266zM152-66q0-72 24.5-99.5T246-193t67.5 30T336-66V90q0 61-22 94t-64 33q-46 0-72-35t-26-92V-66z"/><glyph glyph-name="uni2087" unicode="₇" horiz-adv-x="411" d="M27 489v74h352v-74Q278 324 240.5 156.5T203-233v-23h-90v20q0 220 41 389t145 336H27z"/><glyph glyph-name="uni2088" unicode="₈" horiz-adv-x="466" d="M233-266q-94 0-139 48T49-70v64q0 153 105 182-97 28-97 158v57q0 85 44 133.5T233 573q89 0 133-48.5T410 391v-57q0-130-97-158Q418 150 418-6v-64q0-100-45-148t-140-48zM143-76q0-71 22.5-94t67.5-23q46 0 69.5 23.5T326-76v94q0 67-24.5 93T233 137t-67-26-23-93v-94zm7 391q0-56 20.5-80t62.5-24q84 0 84 104v82q0 103-84 103-41 0-62-24t-21-79v-82z"/><glyph glyph-name="uni2089" unicode="₉" horiz-adv-x="479" d="M236 573q184 0 184-221V-35q0-112-41.5-171.5T242-266q-97 0-138 56T63-66v21h93v-18q0-64 19.5-93.5T240-186q46 0 67 29.5T328-63V80q-46-66-123-66-76 0-116 54.5T49 221v135q0 105 47.5 161T236 573zm-93-356q0-127 86-127 46 0 72.5 35.5T328 217v158q0 71-25.5 98T233 500q-46 0-68-29t-22-96V217z"/><glyph glyph-name="Euro" unicode="€" horiz-adv-x="993" d="M68 698v82h139v78H68v82h139v307q0 412 352 412t352-412V971H786v284q0 89-16 150t-47.5 94-70.5 46.5-93 13.5-93-13.5-70.5-46.5-47.5-94-16-150V940h299v-82H332v-78h299v-82H332V387q0-91 16-152.5t47.5-94.5T466 93.5 559 80t93 13.5 70.5 46.5 47.5 94.5T786 387v281h125V395q0-199-83-307T559-20q-352 0-352 415v303H68z"/><glyph glyph-name="trademark" unicode="™" horiz-adv-x="1042" d="M426 838v800h139l125-620 127 620h135V838H846v514L743 838H637l-105 516V838H426zM41 1530v108h342v-108H266V838H158v692H41z"/><glyph glyph-name="oneeighth" unicode="⅛" horiz-adv-x="1282" d="M51 893h117v629q-38-58-121-58v80q88 0 127 94h82V893h119v-74H51v74zM317 0l496 1638h86L403 0h-86zm541 186v64q0 153 105 182-97 28-97 158v57q0 85 44 133.5t132 48.5q89 0 133-48.5t44-133.5v-57q0-130-97-158 105-26 105-182v-64q0-100-45-148t-140-48q-94 0-139 48t-45 148zm94-6q0-71 22.5-94t67.5-23q46 0 69.5 23.5T1135 180v94q0 67-24.5 93t-68.5 26-67-26-23-93v-94zm6 391q0-56 21-80t63-24q84 0 84 104v82q0 103-84 103t-84-103v-82z"/><glyph glyph-name="threeeighths" unicode="⅜" horiz-adv-x="1355" d="M244 809q-185 0-185 205v53h93v-61q0-72 23-97.5t67-25.5q48 0 71 28.5t23 96.5v69q0 40-9.5 68.5t-24.5 41-28.5 17-27.5 4.5h-68v74h68q33 0 61.5 25t28.5 88v59q0 70-25 95.5t-67 25.5q-45 0-68.5-25t-23.5-94v-55H59v47q0 201 185 201 97 0 140.5-58.5T428 1450v-35q0-63-26.5-107t-75.5-59q102-38 102-188v-41q0-211-184-211zM391 0l496 1638h84L475 0h-84zm541 186v64q0 154 104 182-96 28-96 158v57q0 85 44 133.5t132 48.5q89 0 132.5-48.5T1292 647v-57q0-130-96-158 104-26 104-182v-64q0-100-44.5-148T1116-10q-94 0-139 48t-45 148zm94-6q0-71 22.5-94t67.5-23q46 0 69 23.5t23 93.5v94q0 67-24 93t-68 26-67-26-23-93v-94zm6 391q0-56 21-80t63-24q84 0 84 104v82q0 103-84 103t-84-103v-82z"/><glyph glyph-name="fiveeighths" unicode="⅝" horiz-adv-x="1343" d="M268 1368q72 0 113-51.5t41-151.5v-129q0-227-189-227-89 0-135.5 57T51 1032v35h94v-53q0-131 93-131 92 0 92 127v153q0 129-86 129-79 0-94-121H59l21 467h305v-73H164l-12-269q37 72 116 72zM379 0l495 1638h87L465 0h-86zm541 186v64q0 154 104 182-96 28-96 158v57q0 85 44 133.5t132 48.5q89 0 132.5-48.5T1280 647v-57q0-130-96-158 104-26 104-182v-64q0-100-44.5-148T1104-10q-94 0-139 48t-45 148zm94-6q0-71 22.5-94t67.5-23q46 0 69 23.5t23 93.5v94q0 67-24 93t-68 26-67-26-23-93v-94zm6 391q0-56 21-80t63-24q84 0 84 104v82q0 103-84 103t-84-103v-82z"/><glyph glyph-name="seveneighths" unicode="⅞" horiz-adv-x="1288" d="M27 1565v73h352v-73q-101-165-138.5-333T203 842v-23h-90v21q0 220 41 389t145 336H27zM324 0l495 1638h86L410 0h-86zm540 186v64q0 153 105 182-97 28-97 158v57q0 85 44.5 133.5T1049 829q89 0 132.5-48.5T1225 647v-57q0-130-97-158 105-26 105-182v-64q0-100-44.5-148T1049-10q-94 0-139.5 48T864 186zm94-6q0-71 22.5-94t68.5-23 69 23.5 23 93.5v94q0 67-24 93t-68 26-67.5-26-23.5-93v-94zm7 391q0-56 21-80t63-24q84 0 84 104v82q0 103-84 103t-84-103v-82z"/><glyph glyph-name="arrowleft" unicode="←" horiz-adv-x="944" d="M197 635q94-47 162.5-133.5T442 276H340q-14 127-98 221T53 635v82q106 44 189.5 137.5T340 1075h102q-24-248-245-358h696v-82H197z"/><glyph glyph-name="arrowup" unicode="↑" horiz-adv-x="903" d="M492 250h-82v696Q299 724 51 700v103q127 14 221 98t138 189h82q44-106 137.5-189.5T850 803V700q-247 24-358 246V250z"/><glyph glyph-name="arrowright" unicode="→" horiz-adv-x="944" d="M51 635v82h697q-222 111-246 358h102q14-127 97.5-220.5T891 717v-82q-105-44-189-138t-98-221H502q24 248 246 359H51z"/><glyph glyph-name="arrowdown" unicode="↓" horiz-adv-x="903" d="M410 1104h82V408q110 221 358 245V551q-127-14-220.5-97.5T492 264h-82q-44 105-138 189T51 551v102q139-14 225.5-82.5T410 408v696z"/><glyph glyph-name="arrowboth" unicode="↔" horiz-adv-x="1193" d="M53 737q104 35 188.5 127.5T340 1085h102q-14-140-84-225.5T197 737h798q-91 37-161 122.5T750 1085h102q14-128 98.5-220.5T1139 737V635q-104-35-188.5-127.5T852 287H750q14 140 84 225.5T995 635H197q91-37 161-122.5T442 287H340q-14 128-98.5 220.5T53 635v102z"/><glyph glyph-name="arrowupdn" unicode="↕" horiz-adv-x="927" d="M516 1227q35-104 127.5-188.5T864 940V838q-140 14-225.5 84T516 1083V285q37 91 122.5 161T864 530V428q-128-14-220.5-98.5T516 141H414q-35 104-127.5 188.5T66 428v102q140-14 225.5-84T414 285v798q-37-91-122.5-161T66 838v102q128 14 220.5 98.5T414 1227h102z"/><glyph glyph-name="uni2196" unicode="↖" horiz-adv-x="790" d="M750 385l-58-57-493 491q79-234-80-426l-72 72q55 68 75 155.5t11.5 161T98 922l58 57q67-28 140.5-36.5t160.5 12 155 75.5l72-74q-191-154-426-79z"/><glyph glyph-name="uni2197" unicode="↗" horiz-adv-x="790" d="M98 328l-57 59 491 492q-235-80-426 79l72 72q68-54 155-74t161.5-11.5T635 981l57-59q-28-67-36.5-141t12-160T743 467l-73-74q-157 195-78 428z"/><glyph glyph-name="uni2198" unicode="↘" horiz-adv-x="790" d="M41 977l57 57 492-491q-75 234 80 426l73-72q-55-68-75.5-155t-12-161T692 440l-59-57q-67 28-141 36.5t-160-12T178 332l-74 71q195 159 428 80z"/><glyph glyph-name="uni2199" unicode="↙" horiz-adv-x="792" d="M692 1034l60-57-494-492q236 76 428-79l-74-74q-68 55-154 75.5t-159.5 12T158 383l-60 57q28 68 36.5 142T123 742 49 897l72 74q159-195 80-428z"/><glyph glyph-name="uni21E7" unicode="⇧" horiz-adv-x="1689" d="M475-14v604H49l795 883 794-883h-426V-14H475zM279 692h299V88h532v604h299l-565 629z"/><glyph glyph-name="partialdiff" unicode="∂" horiz-adv-x="1015" d="M498-225q-95 0-178.5 37.5T175-83 78.5 83 43 299q0 70 13.5 136.5t46 132.5 81 115 124 79.5T477 793q113 0 201.5-48T823 614q-50 258-193 428.5T242 1319l41 94q120-52 217-117.5T683 1135t144-211 91.5-271.5T952 313q0-244-124-391T498-225zM145 299q0-195 102-314.5T498-135q165 0 258.5 125.5T850 313q0 86-23.5 154.5T765 579t-88 71.5-99.5 40T477 702q-81 0-145.5-32T227 582t-61-128-21-155z"/><glyph glyph-name="emptyset" unicode="∅" horiz-adv-x="1236" d="M621 266q-71 0-148 17L369 0H264l117 311q-151 65-233 201.5T66 821q0 112 37.5 211.5t106 175.5 175 120 236.5 44q75 0 147-16l104 282h105l-117-313q148-63 229.5-199t81.5-305q0-153-63-277.5t-190-201T621 266zM168 821q0-142 62-255.5T412 397l323 873q-53 12-114 12-113 0-201.5-37.5T277 1142t-81.5-146.5T168 821zm338-454q64-11 115-11 111 0 198.5 37.5t141 103 81 148T1069 821q0 140-61 252.5T829 1241z"/><glyph glyph-name="product" unicode="∏" horiz-adv-x="894" d="M600-225v1554H295V-225H193v1554H29v86h839v-86H702V-225H600z"/><glyph glyph-name="summation" unicode="∑" horiz-adv-x="923" d="M41-236v82l440 746-440 749v82h840v-82H156l440-747-440-748h725v-82H41z"/><glyph glyph-name="minus" unicode="−" horiz-adv-x="948" d="M55 858h840v-86H55v86z"/><glyph glyph-name="radical" unicode="√" horiz-adv-x="1134" d="M340-225L49 508h109l245-631 326 1536h361v-82H811L477-225H340z"/><glyph glyph-name="infinity" unicode="∞" horiz-adv-x="1212" d="M924 410q-80 0-155.5 52T606 606q-87-92-162-144t-155-52q-40 0-78.5 14.5T138 469t-54.5 83.5T63 676t20.5 123.5T138 883t72.5 44.5T289 942q80 0 155-52t162-145q87 93 162.5 145T924 942q40 0 78.5-14.5t72-44.5 54-83.5T1149 676t-20.5-123.5-54-83.5-72-44.5T924 410zM166 676q0-164 133-164 54 0 109 41.5T541 676q-78 81-133 122.5T299 840q-133 0-133-164zm506 0q77-81 133-122.5T915 512q66 0 99 43t33 121-33 121-99 43q-54 0-110-41.5T672 676z"/><glyph glyph-name="integral" unicode="∫" horiz-adv-x="657" d="M25-225v84h36q71 0 115.5 15.5t66.5 50 29 75 7 106.5v971q0 61 7 107t27.5 91 54.5 74 92.5 46.5T598 1413h37v-84h-37q-71 0-115-15.5t-66-50.5-29-75.5-7-106.5V111q0-61-7-107t-27.5-91-55-74-93-46.5T61-225H25z"/><glyph glyph-name="approxequal" unicode="≈" horiz-adv-x="991" d="M76 891q0 69 19.5 116.5t53 69.5 65 30.5 67.5 8.5q67 0 131.5-29t107-63 94.5-63 97-29q47 0 74.5 31.5T813 1055h102q0-56-13.5-98t-34-66-49.5-38.5-54-19-53-4.5q-67 0-131.5 29t-107 63.5T378 985t-97 29q-47 0-75-31.5T178 891H76zm0-328q0 69 19.5 116.5t53 69.5 65 30.5T281 788q67 0 131.5-29t107-63 94.5-63 97-29q47 0 74.5 31.5T813 727h102q0-69-19.5-116.5T843 541t-64.5-30.5T711 502q-67 0-131.5 29t-107 63-94.5 63-97 29q-47 0-75-31.5T178 563H76z"/><glyph glyph-name="notequal" unicode="≠" horiz-adv-x="999" d="M266 295l140 371H80v86h356l45 118H80v86h432l139 371h103L614 956h306v-86H584l-45-118h381v-86H508L369 295H266z"/><glyph glyph-name="lessequal" unicode="≤" horiz-adv-x="991" d="M72 881l839 325v-102L215 840l696-265V418H72v86h759L72 799v82z"/><glyph glyph-name="greaterequal" unicode="≥" horiz-adv-x="991" d="M80 575l696 265-696 264v102l840-325v-82L160 504h760v-86H80v157z"/><glyph glyph-name="uni2317" unicode="⌗" horiz-adv-x="1474" d="M72 887v102h393v393h102V989h340v393h103V989h393V887h-393V547h393V444h-393V51H907v393H567V51H465v393H72v103h393v340H72zm495-340h340v340H567V547z"/><glyph glyph-name="uni2318" unicode="⌘" horiz-adv-x="1550" d="M344 14q-124 0-198 74T72 287q0 134 91.5 208T434 569h90v295h-90q-178 0-270 74.5T72 1147q0 125 74 198.5t198 73.5q134 0 208.5-92t74.5-270v-90h295v90q0 179 74 270.5t208 91.5q125 0 199-74t74-198q0-134-92-208.5T1114 864h-90V569h90q179 0 271-74t92-208q0-125-74.5-199T1204 14q-134 0-208 92t-74 271v90H627v-90q0-179-74.5-271T344 14zM174 287q0-88 41-129t129-41q95 0 137.5 59T524 377v90h-90q-142 0-201-42.5T174 287zm0 860q0-95 59-137.5T434 967h90v90q0 142-42.5 201T344 1317q-88 0-129-41t-41-129zm453-578h295v295H627V569zm397-192q0-142 42.5-201t137.5-59q88 0 129 41t41 129q0 95-59 137.5T1114 467h-90v-90zm0 590h90q142 0 201 42.5t59 137.5q0 88-41 129t-129 41q-95 0-137.5-59t-42.5-201v-90z"/><glyph glyph-name="uni2325" unicode="⌥" horiz-adv-x="1546" d="M846 115L356 1217H23v102h399L913 217h541V115H846zm-88 1102v102h696v-102H758z"/><glyph glyph-name="filledbox" unicode="■" horiz-adv-x="1325" d="M102 158v1118h1119V158H102z"/><glyph glyph-name="uni25A1" unicode="□" horiz-adv-x="1325" d="M102 158v1118h1119V158H102zm103 102h913v914H205V260z"/><glyph glyph-name="triagup" unicode="▲" horiz-adv-x="1429" d="M33 31l682 1179L1395 31H33z"/><glyph glyph-name="uni25B3" unicode="△" horiz-adv-x="1499" d="M39 31l711 1231L1460 31H39zm176 102h1067l-532 924z"/><glyph glyph-name="uni25B6" unicode="▶" horiz-adv-x="1331" d="M104 1393l1180-680L104 31v1362z"/><glyph glyph-name="uni25B7" unicode="▷" horiz-adv-x="1386" d="M104-6v1421l1231-710zm103 176l923 535-923 532V170z"/><glyph glyph-name="triagdn" unicode="▼" horiz-adv-x="1447" d="M1405 1210L723 31 43 1210h1362z"/><glyph glyph-name="uni25BD" unicode="▽" horiz-adv-x="1507" d="M754-20L43 1210h1421zM221 1108l533-924 534 924H221z"/><glyph glyph-name="uni25C0" unicode="◀" horiz-adv-x="1331" d="M1227 31L47 713l1180 680V31z"/><glyph glyph-name="uni25C1" unicode="◁" horiz-adv-x="1386" d="M1282-6L51 705l1231 710V-6zM256 705l924-535v1067z"/><glyph glyph-name="uni25C6" unicode="◆" horiz-adv-x="1445" d="M723 51L55 717l668 667 666-667z"/><glyph glyph-name="uni25C7" unicode="◇" horiz-adv-x="1486" d="M741 29L55 717l688 688 687-688zM199 717l544-543 543 543-545 543z"/><glyph glyph-name="lozenge" unicode="◊" horiz-adv-x="763" d="M307 1280h148l250-614L455 51H307L57 666zM168 666l213-525 213 525-213 524z"/><glyph glyph-name="circle" unicode="○" horiz-adv-x="1382" d="M692 92q-127 0-243 49.5T249.5 275 117 474.5 68 717t49 242.5 132.5 199 199.5 133 243 49.5q169 0 312.5-83.5t227-227.5 83.5-313-83.5-313-227-228T692 92zM170 717q0-221 150.5-370.5T692 197q144 0 263.5 68t188 187.5T1212 717t-68.5 264.5-188 187.5-263.5 68q-221 0-371.5-149.5T170 717z"/><glyph glyph-name="uni25CF" unicode="●" horiz-adv-x="1382" d="M692 94q-127 0-243 49.5t-199.5 133T117 475 68 717t49 242.5 132.5 199 199.5 133 243 49.5q169 0 312.5-83.5t227-227.5 83.5-313-83.5-312.5-227-227T692 94z"/><glyph glyph-name="uni2B1B" unicode="⬛" horiz-adv-x="2054" d="M168-143v1720h1720V-143H168z"/><glyph glyph-name="uni2B1C" unicode="⬜" horiz-adv-x="2054" d="M168-143v1720h1720V-143H168zM270-41h1516v1516H270V-41z"/><glyph glyph-name="uni2B98" unicode="⮘" horiz-adv-x="1413" d="M1354-39L66 705l1288 743-322-743zM270 705h650l217 499z"/><glyph glyph-name="uni2B99" unicode="⮙" horiz-adv-x="1515" d="M14-27l744 1289L1501-27 758 295zm744 435l499-218-499 867V408z"/><glyph glyph-name="uni2B9A" unicode="⮚" horiz-adv-x="1413" d="M59-39l322 744-322 743 1289-743zm217 1243l218-499h649z"/><glyph glyph-name="uni2B9B" unicode="⮛" horiz-adv-x="1519" d="M760-20L16 1268l744-322 743 322zM260 1051l500-867v650z"/><glyph glyph-name="uni2B9C" unicode="⮜" horiz-adv-x="1312" d="M1243 31L63 713l1180 680-295-680z"/><glyph glyph-name="uni2B9D" unicode="⮝" horiz-adv-x="1402" d="M20 31l682 1179L1382 31 702 326z"/><glyph glyph-name="uni2B9E" unicode="⮞" horiz-adv-x="1312" d="M68 31l294 682-294 680 1179-680z"/><glyph glyph-name="uni2B9F" unicode="⮟" horiz-adv-x="1402" d="M700 31L20 1210l680-295 682 295z"/><glyph glyph-name="uni3000" horiz-adv-x="2048"/><glyph glyph-name="uni004A0301" horiz-adv-x="825" d="M389-20Q53-20 53 395v176h125V387q0-90 16-152t46-95 66-46.5T389 80q99 0 154 67t55 240v1251h125V395q0-415-334-415zm-22 1859l563 152 20-80-563-150z"/><glyph glyph-name="I.bracket" horiz-adv-x="468" d="M172 0v1638h125V0H172z"/><glyph glyph-name="A.ss01" horiz-adv-x="1671" d="M27 0l741 1638h133L1645 0h-138l-168 373H332L164 0H27zm356 487h905l-442 986-12 28-11-28z"/><glyph glyph-name="Aacute.ss01" horiz-adv-x="1671" d="M27 0l741 1638h133L1645 0h-138l-168 373H332L164 0H27zm249 1839l1096 152 21-80-1096-152zM383 487h905l-442 986-12 28-11-28z"/><glyph glyph-name="Abreve.ss01" horiz-adv-x="1671" d="M27 0l741 1638h133L1645 0h-138l-168 373H332L164 0H27zm311 2001h102q0-44 27.5-73.5t82.5-46 124-23.5 164-7q195 0 293 33t98 117h102q0-69-33-116.5t-99.5-74-153-38T838 1761t-208.5 11.5-155.5 38-102 74-34 116.5zm45-1514h905l-442 986-12 28-11-28z"/><glyph glyph-name="Acircumflex.ss01" horiz-adv-x="1671" d="M27 0l741 1638h133L1645 0h-138l-168 373H332L164 0H27zm327 1720l412 271h143l406-271h-187l-290 203-297-203H354zm29-1233h905l-442 986-12 28-11-28z"/><glyph glyph-name="Adieresis.ss01" horiz-adv-x="1671" d="M27 0l741 1638h133L1645 0h-138l-168 373H332L164 0H27zm356 487h905l-442 986-12 28-11-28zm10 1385q0 40 24.5 63t59.5 23 59.5-23 24.5-63q0-36-24.5-59t-59.5-23-59.5 23-24.5 59zm715 0q0 40 24.5 63t61.5 23q34 0 59-23.5t25-62.5q0-36-25-59t-59-23q-36 0-61 23t-25 59z"/><glyph glyph-name="Agrave.ss01" horiz-adv-x="1671" d="M27 0l741 1638h133L1645 0h-138l-168 373H332L164 0H27zm249 1911l21 80 1096-152-21-80zM383 487h905l-442 986-12 28-11-28z"/><glyph glyph-name="Amacron.ss01" horiz-adv-x="1671" d="M27 0l741 1638h133L1645 0h-138l-168 373H332L164 0H27zm249 1835v82h1117v-82H276zM383 487h905l-442 986-12 28-11-28z"/><glyph glyph-name="Aogonek.ss01" horiz-adv-x="1671" d="M27 0l741 1638h133L1645 0h-5q-104-36-154-83.5T1436-199q0-66 59.5-96.5T1686-326h30l-82-84h-28q-126 0-199.5 47.5T1333-219q0 46 18.5 82t54 62 72 42.5T1563 0h-56l-168 373H332L164 0H27zm356 487h905l-442 986-12 28-11-28z"/><glyph glyph-name="Aring.ss01" horiz-adv-x="1671" d="M27 0l741 1638h133L1645 0h-138l-168 373H332L164 0H27zm356 487h905l-442 986-12 28-11-28zm287 1409q0 71 49.5 118.5T836 2062t116-47.5 49-118.5-49-118-116-47q-68 0-117 47t-49 118zm75 0q0-40 25-65t66-25 65.5 25 24.5 65-24.5 65.5T836 1987t-66-25.5-25-65.5z"/><glyph glyph-name="Atilde.ss01" horiz-adv-x="1671" d="M27 0l741 1638h133L1645 0h-138l-168 373H332L164 0H27zm321 1765q0 102 68.5 169t199.5 67q61 0 110-16.5t82-39.5 64.5-46 75-39.5 96.5-16.5q85 0 130 39.5t45 104.5h102q0-106-71.5-171t-207.5-65q-66 0-118 16.5t-85.5 39.5-64.5 46-70.5 39.5T616 1909q-81 0-123-41.5T451 1765H348zm35-1278h905l-442 986-12 28-11-28z"/><glyph glyph-name="B.ss01" horiz-adv-x="1748" d="M172 0v1638h922q90 0 160.5-11.5t133-41 103-77.5 63.5-122.5 23-173.5q0-148-59.5-226T1341 864q138-25 227-129.5t89-281.5q0-220-145.5-336.5T1124 0H172zm125 115h817q194 0 303 85t109 263q0 79-21 137t-57 94-92.5 57.5-117.5 29-142 7.5H297V115zm0 788h739q408 0 408 316 0 62-11.5 110t-29 80-49 54.5-59.5 34-74 18-79 7.5-87 1H297V903z"/><glyph glyph-name="C.ss01" horiz-adv-x="1859" d="M948-20q-206 0-371.5 68t-270 184.5-159.5 267T92 821q0 134 34.5 257.5T232 1308t171.5 184 241 122.5T950 1659q147 0 275.5-33t225-92.5 167.5-141 109.5-179.5 44.5-207l2-35h-136l-4 35q-14 242-194 387t-486 145q-145 0-265-36.5t-205-102T340 1244t-87-196.5T225 821q0-155 45.5-285t133-228T631 155t319-55q157 0 284.5 40t212 111.5 132.5 169 55 214.5l4 35h136l-2-35q-8-134-67.5-252.5T1542 174 1285.5 32 948-20z"/><glyph glyph-name="Cacute.ss01" horiz-adv-x="1859" d="M948-20q-206 0-371.5 68t-270 184.5-159.5 267T92 821q0 134 34.5 257.5T232 1308t171.5 184 241 122.5T950 1659q147 0 275.5-33t225-92.5 167.5-141 109.5-179.5 44.5-207l2-35h-136l-4 35q-14 242-194 387t-486 145q-145 0-265-36.5t-205-102T340 1244t-87-196.5T225 821q0-155 45.5-285t133-228T631 155t319-55q157 0 284.5 40t212 111.5 132.5 169 55 214.5l4 35h136l-2-35q-8-134-67.5-252.5T1542 174 1285.5 32 948-20zM375 1839l1095 152 21-80-1096-152z"/><glyph glyph-name="Ccaron.ss01" horiz-adv-x="1859" d="M948-20q-206 0-371.5 68t-270 184.5-159.5 267T92 821q0 134 34.5 257.5T232 1308t171.5 184 241 122.5T950 1659q147 0 275.5-33t225-92.5 167.5-141 109.5-179.5 44.5-207l2-35h-136l-4 35q-14 242-194 387t-486 145q-145 0-265-36.5t-205-102T340 1244t-87-196.5T225 821q0-155 45.5-285t133-228T631 155t319-55q157 0 284.5 40t212 111.5 132.5 169 55 214.5l4 35h136l-2-35q-8-134-67.5-252.5T1542 174 1285.5 32 948-20zM453 2032h186l297-203 291 203h186l-405-271H864z"/><glyph glyph-name="Ccedilla.ss01" horiz-adv-x="1861" d="M801-342q147 0 205.5 15.5T1065-260q0 52-56.5 62T842-207l45 189q-154 8-284 56T379.5 164.5 220.5 347t-97 223.5T92 821q0 134 34.5 257.5T232 1308t171.5 184 241 122.5T950 1659q147 0 275.5-33t225-92.5 167.5-141 109.5-179.5 44.5-207l2-35h-136l-4 35q-14 242-194 387t-486 145q-145 0-265-36.5t-205-102T340 1244t-87-196.5T225 821q0-155 45.5-285t133-228T631 155t319-55q157 0 284.5 40t212 111.5 132.5 169 55 214.5l4 35h136l-2-35q-8-132-65.5-248.5t-157.5-206-248.5-143T973-20l-29-115q225 32 225-125 0-57-33-91.5T1020.5-405 799-424z"/><glyph glyph-name="Cdotaccent.ss01" horiz-adv-x="1859" d="M948-20q-206 0-371.5 68t-270 184.5-159.5 267T92 821q0 134 34.5 257.5T232 1308t171.5 184 241 122.5T950 1659q147 0 275.5-33t225-92.5 167.5-141 109.5-179.5 44.5-207l2-35h-136l-4 35q-14 242-194 387t-486 145q-145 0-265-36.5t-205-102T340 1244t-87-196.5T225 821q0-155 45.5-285t133-228T631 155t319-55q157 0 284.5 40t212 111.5 132.5 169 55 214.5l4 35h136l-2-35q-8-134-67.5-252.5T1542 174 1285.5 32 948-20zM836 1845q0 41 28 70t70 29 70-29 28-70q0-38-28-66t-70-28-70 28-28 66z"/><glyph glyph-name="D.ss01" horiz-adv-x="1808" d="M172 0v1638h764q173 0 311-46.5t242.5-142.5 161.5-255.5 57-374.5q0-213-57-372.5t-161.5-256-243-143.5T936 0H172zm125 115h631q338 0 492.5 175T1575 819t-154.5 529.5T928 1524H297V115z"/><glyph glyph-name="Eth.ss01" horiz-adv-x="1978" d="M342 0v817H14v88h328v733h764q173 0 311-46.5t242.5-142.5 161.5-255.5 57-374.5q0-213-57-372.5t-161.5-256-243-143.5T1106 0H342zm125 115h631q338 0 492.5 175T1745 819t-154.5 529.5T1098 1524H467V905h745v-88H467V115z"/><glyph glyph-name="Dcaron.ss01" horiz-adv-x="1808" d="M172 0v1638h764q173 0 311-46.5t242.5-142.5 161.5-255.5 57-374.5q0-213-57-372.5t-161.5-256-243-143.5T936 0H172zm125 115h631q338 0 492.5 175T1575 819t-154.5 529.5T928 1524H297V115zm129 1917h186l297-203 291 203h186l-405-271H838z"/><glyph glyph-name="Dcroat.ss01" horiz-adv-x="1978" d="M342 0v817H14v88h328v733h764q173 0 311-46.5t242.5-142.5 161.5-255.5 57-374.5q0-213-57-372.5t-161.5-256-243-143.5T1106 0H342zm125 115h631q338 0 492.5 175T1745 819t-154.5 529.5T1098 1524H467V905h745v-88H467V115z"/><glyph glyph-name="E.ss01" horiz-adv-x="1542" d="M172 0v1638h1282v-114H297V877h1114V762H297V115h1157V0H172z"/><glyph glyph-name="Eacute.ss01" horiz-adv-x="1542" d="M172 0v1638h1282v-114H297V877h1114V762H297V115h1157V0H172zm43 1839l1096 152 20-80-1095-152z"/><glyph glyph-name="Ecaron.ss01" horiz-adv-x="1542" d="M172 0v1638h1282v-114H297V877h1114V762H297V115h1157V0H172zm121 2032h186l297-203 291 203h186l-405-271H705z"/><glyph glyph-name="Ecircumflex.ss01" horiz-adv-x="1542" d="M172 0v1638h1282v-114H297V877h1114V762H297V115h1157V0H172zm121 1720l412 271h143l405-271h-186l-291 203-297-203H293z"/><glyph glyph-name="Edieresis.ss01" horiz-adv-x="1542" d="M172 0v1638h1282v-114H297V877h1114V762H297V115h1157V0H172zm158 1872q0 40 24.5 63t59.5 23 59.5-23 24.5-63q0-36-24.5-59t-59.5-23-59.5 23-24.5 59zm714 0q0 40 24.5 63t61.5 23q34 0 59-23.5t25-62.5q0-36-25-59t-59-23q-36 0-61 23t-25 59z"/><glyph glyph-name="Edotaccent.ss01" horiz-adv-x="1542" d="M172 0v1638h1282v-114H297V877h1114V762H297V115h1157V0H172zm504 1845q0 41 28 70t70 29 70-29 28-70q0-38-28-66t-70-28-70 28-28 66z"/><glyph glyph-name="Egrave.ss01" horiz-adv-x="1542" d="M172 0v1638h1282v-114H297V877h1114V762H297V115h1157V0H172zm43 1911l21 80 1095-152-20-80z"/><glyph glyph-name="Emacron.ss01" horiz-adv-x="1542" d="M172 0v1638h1282v-114H297V877h1114V762H297V115h1157V0H172zm43 1835v82h1116v-82H215z"/><glyph glyph-name="Eogonek.ss01" horiz-adv-x="1542" d="M172 0v1638h1282v-114H297V877h1114V762H297V115h1157V0q-104-36-154.5-83.5T1249-199q0-66 59.5-96.5T1499-326h31l-82-84h-29q-126 0-199 47.5T1147-219q0 46 18.5 82t54 62 71.5 42.5T1376 0H172z"/><glyph glyph-name="F.ss01" horiz-adv-x="1495" d="M172 0v1638h1286v-114H297V793h1100V680H297V0H172z"/><glyph glyph-name="G.ss01" horiz-adv-x="1902" d="M926-20q-158 0-293 44.5T400 147 232.5 331t-104 230.5T94 821q0 134 34.5 257T234 1307t171 184.5 240 123 305 44.5q181 0 334.5-53.5t256-143 163-203T1774 1022l2-23h-136l-2 23q-9 107-60 200t-136.5 164-211.5 111.5-276 40.5q-145 0-265-37t-204.5-102.5-143-156T255 1046t-28-225q0-156 46-287.5t134-228 223-151T934 100q148 0 277 42t224 117.5 150.5 189T1642 698v2H774v109h1002V0h-101l-8 414q-93-196-282-315T926-20z"/><glyph glyph-name="Gbreve.ss01" horiz-adv-x="1902" d="M926-20q-158 0-293 44.5T400 147 232.5 331t-104 230.5T94 821q0 134 34.5 257T234 1307t171 184.5 240 123 305 44.5q181 0 334.5-53.5t256-143 163-203T1774 1022l2-23h-136l-2 23q-9 107-60 200t-136.5 164-211.5 111.5-276 40.5q-145 0-265-37t-204.5-102.5-143-156T255 1046t-28-225q0-156 46-287.5t134-228 223-151T934 100q148 0 277 42t224 117.5 150.5 189T1642 698v2H774v109h1002V0h-101l-8 414q-93-196-282-315T926-20zM453 2001h102q0-44 27.5-73.5t82-46T788 1858t164-7q195 0 293 33t98 117h103q0-69-33-116.5t-99.5-74-153.5-38-208-11.5-208.5 11.5-155 38-101.5 74-34 116.5z"/><glyph glyph-name="uni0122.ss01" horiz-adv-x="1902" d="M926-20q-158 0-293 44.5T400 147 232.5 331t-104 230.5T94 821q0 134 34.5 257T234 1307t171 184.5 240 123 305 44.5q181 0 334.5-53.5t256-143 163-203T1774 1022l2-23h-136l-2 23q-9 107-60 200t-136.5 164-211.5 111.5-276 40.5q-145 0-265-37t-204.5-102.5-143-156T255 1046t-28-225q0-156 46-287.5t134-228 223-151T934 100q148 0 277 42t224 117.5 150.5 189T1642 698v2H774v109h1002V0h-101l-8 414q-93-196-282-315T926-20zm-70-146q0 38 27 66t71 28q41 0 68-27.5t27-86.5q0-156-166-236v78q51 23 78 53t36 74q-28-31-61-31-32 0-56 23t-24 59z"/><glyph glyph-name="Gdotaccent.ss01" horiz-adv-x="1902" d="M926-20q-158 0-293 44.5T400 147 232.5 331t-104 230.5T94 821q0 134 34.5 257T234 1307t171 184.5 240 123 305 44.5q181 0 334.5-53.5t256-143 163-203T1774 1022l2-23h-136l-2 23q-9 107-60 200t-136.5 164-211.5 111.5-276 40.5q-145 0-265-37t-204.5-102.5-143-156T255 1046t-28-225q0-156 46-287.5t134-228 223-151T934 100q148 0 277 42t224 117.5 150.5 189T1642 698v2H774v109h1002V0h-101l-8 414q-93-196-282-315T926-20zm-74 1865q0 41 28 70t70 29 70.5-29.5 28.5-69.5q0-38-28.5-66t-70.5-28-70 28-28 66z"/><glyph glyph-name="H.ss01" horiz-adv-x="1804" d="M1507 0v762H297V0H172v1638h125V877h1210v761h125V0h-125z"/><glyph glyph-name="Hbar.ss01" horiz-adv-x="2025" d="M1618 0v762H408V0H283v1180H55v96h228v362h125v-362h1210v362h125v-362h227v-96h-227V0h-125zM408 877h1210v303H408V877z"/><glyph glyph-name="I.ss01" horiz-adv-x="1318" d="M49 0v115h549v1409H49v114h1221v-114H723V115h547V0H49z"/><glyph glyph-name="Iacute.ss01" horiz-adv-x="1318" d="M49 0v115h549v1409H49v114h1221v-114H723V115h547V0H49zm51 1839l1096 152 21-80-1096-152z"/><glyph glyph-name="Icircumflex.ss01" horiz-adv-x="1318" d="M49 0v115h549v1409H49v114h1221v-114H723V115h547V0H49zm129 1720l412 271h143l406-271H952l-290 203-297-203H178z"/><glyph glyph-name="Idieresis.ss01" horiz-adv-x="1318" d="M49 0v115h549v1409H49v114h1221v-114H723V115h547V0H49zm168 1872q0 40 24.5 63t59.5 23 59.5-23 24.5-63q0-36-24.5-59t-59.5-23-59.5 23-24.5 59zm715 0q0 40 24.5 63t61.5 23q34 0 59-23.5t25-62.5q0-36-25-59t-59-23q-36 0-61 23t-25 59z"/><glyph glyph-name="Idotaccent.ss01" horiz-adv-x="1318" d="M49 0v115h549v1409H49v114h1221v-114H723V115h547V0H49zm512 1845q0 41 28 70t70 29 70.5-29.5T758 1845q0-38-28.5-66t-70.5-28-70 28-28 66z"/><glyph glyph-name="Igrave.ss01" horiz-adv-x="1318" d="M49 0v115h549v1409H49v114h1221v-114H723V115h547V0H49zm51 1911l21 80 1096-152-21-80z"/><glyph glyph-name="Imacron.ss01" horiz-adv-x="1318" d="M49 0v115h549v1409H49v114h1221v-114H723V115h547V0H49zm51 1835v82h1117v-82H100z"/><glyph glyph-name="Iogonek.ss01" horiz-adv-x="1318" d="M49 0v115h549v1409H49v114h1221v-114H723V115h547V0h2q-104-36-154.5-83.5T1067-199q0-66 59.5-96.5T1317-326h31l-82-84h-29q-126 0-199 47.5T965-219q0 46 18.5 82t54 62 71.5 42.5T1194 0H49z"/><glyph glyph-name="J.ss01" horiz-adv-x="1581" d="M733-20q-360 0-523 180.5T47 707h129q0-171 35.5-290T320 228.5t173-100T733 98q105 0 188 17t154.5 58.5T1194 281t73.5 167.5T1294 684v954h129V684q0-350-165.5-527T733-20z"/><glyph glyph-name="K.ss01" horiz-adv-x="1662" d="M1487 0L516 762H297V0H172v1638h125V877h219l971 761h184L616 819 1671 0h-184z"/><glyph glyph-name="uni0136.ss01" horiz-adv-x="1662" d="M1487 0L516 762H297V0H172v1638h125V877h219l971 761h184L616 819 1671 0h-184zM776-166q0 38 27 66t71 28q41 0 68-27.5t27-86.5q0-156-166-236v78q51 23 78.5 53t36.5 74q-28-31-62-31-32 0-56 23t-24 59z"/><glyph glyph-name="L.ss01" horiz-adv-x="1456" d="M172 0v1638h125V115h1139V0H172z"/><glyph glyph-name="Lacute.ss01" horiz-adv-x="1456" d="M172 0v1638h125V115h1139V0H172zm45 1839l1096 152 20-80-1095-152z"/><glyph glyph-name="Lcaron.ss01" horiz-adv-x="1456" d="M172 0v1638h125V115h1139V0H172zm522 1169l41 469h101l-64-469h-78z"/><glyph glyph-name="uni013B.ss01" horiz-adv-x="1456" d="M172 0v1638h125V115h1139V0H172zm490-166q0 38 27 66t71 28q41 0 67.5-27.5T854-186q0-156-166-236v78q51 23 78.5 53t36.5 74q-28-31-62-31-32 0-55.5 23T662-166z"/><glyph glyph-name="Lslash.ss01" horiz-adv-x="1591" d="M307 0v707L43 627v98l264 80v833h125V842l608 182v-98L432 743V115h1139V0H307z"/><glyph glyph-name="M.ss01" horiz-adv-x="2185" d="M172 0v1638h129l793-1488 792 1488h127V0h-121v1401L1143 0h-101L293 1401V0H172z"/><glyph glyph-name="N.ss01" horiz-adv-x="1867" d="M172 0v1638h125L1575 172v1466h121V0h-125L293 1466V0H172z"/><glyph glyph-name="Nacute.ss01" horiz-adv-x="1867" d="M172 0v1638h125L1575 172v1466h121V0h-125L293 1466V0H172zm203 1839l1095 152 21-80-1096-152z"/><glyph glyph-name="Ncaron.ss01" horiz-adv-x="1867" d="M172 0v1638h125L1575 172v1466h121V0h-125L293 1466V0H172zm281 2032h186l297-203 291 203h186l-405-271H864z"/><glyph glyph-name="uni0145.ss01" horiz-adv-x="1867" d="M172 0v1638h125L1575 172v1466h121V0h-125L293 1466V0H172zm666-166q0 38 27 66t71 28q41 0 67.5-27.5T1030-186q0-156-166-236v78q51 23 78.5 53t36.5 74q-28-31-61-31-32 0-56 23t-24 59z"/><glyph glyph-name="Ntilde.ss01" horiz-adv-x="1867" d="M172 0v1638h125L1575 172v1466h121V0h-125L293 1466V0H172zm274 1765q0 102 69 169t200 67q61 0 110-16.5t82-39.5 64.5-46 75-39.5 96.5-16.5q85 0 129.5 39.5T1317 1987h102q0-106-71-171t-207-65q-66 0-118 16.5t-85.5 39.5-64.5 46-70.5 39.5T715 1909q-81 0-123.5-42T549 1765H446z"/><glyph glyph-name="O.ss01" horiz-adv-x="1912" d="M956-20q-167 0-309 45T404 149 232 335 126.5 565 92 821q0 131 34.5 253.5t106 229T405 1489t242.5 124.5T956 1659t309-45.5 243-124.5 172.5-185.5 106-229T1821 821q0-133-34.5-256.5t-105.5-230T1508.5 149 1265 25 956-20zM225 821q0-152 47.5-282t137-228.5 230-154.5T956 100t316.5 56T1503 310.5 1640.5 539t47.5 282q0 149-47.5 278T1503 1326.5t-230.5 155T956 1538t-316.5-56.5-230-155-137-227.5T225 821z"/><glyph glyph-name="Oacute.ss01" horiz-adv-x="1912" d="M956-20q-167 0-309 45T404 149 232 335 126.5 565 92 821q0 131 34.5 253.5t106 229T405 1489t242.5 124.5T956 1659t309-45.5 243-124.5 172.5-185.5 106-229T1821 821q0-133-34.5-256.5t-105.5-230T1508.5 149 1265 25 956-20zM225 821q0-152 47.5-282t137-228.5 230-154.5T956 100t316.5 56T1503 310.5 1640.5 539t47.5 282q0 149-47.5 278T1503 1326.5t-230.5 155T956 1538t-316.5-56.5-230-155-137-227.5T225 821zm172 1018l1096 152 20-80-1095-152z"/><glyph glyph-name="Ocircumflex.ss01" horiz-adv-x="1912" d="M956-20q-167 0-309 45T404 149 232 335 126.5 565 92 821q0 131 34.5 253.5t106 229T405 1489t242.5 124.5T956 1659t309-45.5 243-124.5 172.5-185.5 106-229T1821 821q0-133-34.5-256.5t-105.5-230T1508.5 149 1265 25 956-20zM225 821q0-152 47.5-282t137-228.5 230-154.5T956 100t316.5 56T1503 310.5 1640.5 539t47.5 282q0 149-47.5 278T1503 1326.5t-230.5 155T956 1538t-316.5-56.5-230-155-137-227.5T225 821zm250 899l412 271h143l406-271h-187l-291 203-296-203H475z"/><glyph glyph-name="Odieresis.ss01" horiz-adv-x="1912" d="M956-20q-167 0-309 45T404 149 232 335 126.5 565 92 821q0 131 34.5 253.5t106 229T405 1489t242.5 124.5T956 1659t309-45.5 243-124.5 172.5-185.5 106-229T1821 821q0-133-34.5-256.5t-105.5-230T1508.5 149 1265 25 956-20zM225 821q0-152 47.5-282t137-228.5 230-154.5T956 100t316.5 56T1503 310.5 1640.5 539t47.5 282q0 149-47.5 278T1503 1326.5t-230.5 155T956 1538t-316.5-56.5-230-155-137-227.5T225 821zm289 1051q0 40 24.5 63t59.5 23 59.5-23 24.5-63q0-36-24.5-59t-59.5-23-59.5 23-24.5 59zm715 0q0 40 24.5 63t61.5 23q34 0 59-23.5t25-62.5q0-36-25-59t-59-23q-36 0-61 23t-25 59z"/><glyph glyph-name="Ograve.ss01" horiz-adv-x="1912" d="M956-20q-167 0-309 45T404 149 232 335 126.5 565 92 821q0 131 34.5 253.5t106 229T405 1489t242.5 124.5T956 1659t309-45.5 243-124.5 172.5-185.5 106-229T1821 821q0-133-34.5-256.5t-105.5-230T1508.5 149 1265 25 956-20zM225 821q0-152 47.5-282t137-228.5 230-154.5T956 100t316.5 56T1503 310.5 1640.5 539t47.5 282q0 149-47.5 278T1503 1326.5t-230.5 155T956 1538t-316.5-56.5-230-155-137-227.5T225 821zm172 1090l21 80 1095-152-20-80z"/><glyph glyph-name="Ohungarumlaut.ss01" horiz-adv-x="1912" d="M956-20q-167 0-309 45T404 149 232 335 126.5 565 92 821q0 131 34.5 253.5t106 229T405 1489t242.5 124.5T956 1659t309-45.5 243-124.5 172.5-185.5 106-229T1821 821q0-133-34.5-256.5t-105.5-230T1508.5 149 1265 25 956-20zM225 821q0-152 47.5-282t137-228.5 230-154.5T956 100t316.5 56T1503 310.5 1640.5 539t47.5 282q0 149-47.5 278T1503 1326.5t-230.5 155T956 1538t-316.5-56.5-230-155-137-227.5T225 821zm559 940l236 230h110l-215-230H784zm240 0l236 230h108l-215-230h-129z"/><glyph glyph-name="Omacron.ss01" horiz-adv-x="1912" d="M956-20q-167 0-309 45T404 149 232 335 126.5 565 92 821q0 131 34.5 253.5t106 229T405 1489t242.5 124.5T956 1659t309-45.5 243-124.5 172.5-185.5 106-229T1821 821q0-133-34.5-256.5t-105.5-230T1508.5 149 1265 25 956-20zM225 821q0-152 47.5-282t137-228.5 230-154.5T956 100t316.5 56T1503 310.5 1640.5 539t47.5 282q0 149-47.5 278T1503 1326.5t-230.5 155T956 1538t-316.5-56.5-230-155-137-227.5T225 821zm172 1014v82h1116v-82H397z"/><glyph glyph-name="Oslash.ss01" horiz-adv-x="1912" d="M197 20l151 177Q222 314 157 476T92 821q0 131 34.5 253.5t106 229T405 1489t242.5 124.5T956 1659q309 0 527-152l98 113h135l-153-178q127-116 192.5-278t65.5-343q0-133-34.5-256.5t-105.5-230T1508.5 149 1265 25 956-20q-311 0-528 151L332 20H197zm28 801q0-160 52.5-296.5T430 291l973 1122q-184 125-447 125-176 0-316.5-56.5t-230-155-137-227.5T225 821zm285-596q180-125 446-125 176 0 316.5 56T1503 310.5 1640.5 539t47.5 282q0 157-52.5 293.5T1481 1348z"/><glyph glyph-name="Otilde.ss01" horiz-adv-x="1912" d="M956-20q-167 0-309 45T404 149 232 335 126.5 565 92 821q0 131 34.5 253.5t106 229T405 1489t242.5 124.5T956 1659t309-45.5 243-124.5 172.5-185.5 106-229T1821 821q0-133-34.5-256.5t-105.5-230T1508.5 149 1265 25 956-20zM225 821q0-152 47.5-282t137-228.5 230-154.5T956 100t316.5 56T1503 310.5 1640.5 539t47.5 282q0 149-47.5 278T1503 1326.5t-230.5 155T956 1538t-316.5-56.5-230-155-137-227.5T225 821zm244 944q0 102 68.5 169t199.5 67q61 0 110-16.5t82-39.5 64.5-46 75-39.5 96.5-16.5q85 0 129.5 39.5T1339 1987h103q0-106-71.5-171t-207.5-65q-66 0-118 16.5t-85.5 39.5-64.5 46-70.5 39.5T737 1909q-81 0-123.5-42T571 1765H469z"/><glyph glyph-name="P.ss01" horiz-adv-x="1728" d="M172 0v1638h907q282 0 435-145.5t153-409.5-153.5-410.5T1079 526H297V0H172zm125 639h762q475 0 475 444 0 441-475 441H297V639z"/><glyph glyph-name="Q.ss01" horiz-adv-x="1912" d="M1585-287q-247 108-425 146.5T735-100V0h8Q585 32 459.5 111.5T254.5 301t-121 242.5T92 821q0 131 34.5 253.5t106 229T405 1489t242.5 124.5T956 1659t309-45.5 243-124.5 172.5-185.5 106-229T1821 821q0-125-30-241t-92-218.5T1548 180 1335 49.5 1063-16q286-33 522-144v-127zM225 821q0-152 47.5-282t137-228.5 230-154.5T956 100t316.5 56T1503 310.5 1640.5 539t47.5 282q0 149-47.5 278T1503 1326.5t-230.5 155T956 1538t-316.5-56.5-230-155-137-227.5T225 821z"/><glyph glyph-name="R.ss01" horiz-adv-x="1775" d="M1542 0q-12 13-17.5 43.5t-6 50-.5 60.5v196q0 86-27 150.5T1422.5 602 1319 661.5 1199 691t-130 7H297V0H172v1638h901q580 0 580-467 0-182-78.5-281T1346 756q145-35 223-137t78-254V154q0-126 24-154h-129zM297 813h774q236 0 342.5 87.5T1520 1171q0 104-33.5 175T1386 1455t-150.5 53.5T1034 1524H297V813z"/><glyph glyph-name="Racute.ss01" horiz-adv-x="1775" d="M1542 0q-12 13-17.5 43.5t-6 50-.5 60.5v196q0 86-27 150.5T1422.5 602 1319 661.5 1199 691t-130 7H297V0H172v1638h901q580 0 580-467 0-182-78.5-281T1346 756q145-35 223-137t78-254V154q0-126 24-154h-129zM297 813h774q236 0 342.5 87.5T1520 1171q0 104-33.5 175T1386 1455t-150.5 53.5T1034 1524H297V813zm39 1026l1096 152 20-80-1096-152z"/><glyph glyph-name="Rcaron.ss01" horiz-adv-x="1775" d="M1542 0q-12 13-17.5 43.5t-6 50-.5 60.5v196q0 86-27 150.5T1422.5 602 1319 661.5 1199 691t-130 7H297V0H172v1638h901q580 0 580-467 0-182-78.5-281T1346 756q145-35 223-137t78-254V154q0-126 24-154h-129zM297 813h774q236 0 342.5 87.5T1520 1171q0 104-33.5 175T1386 1455t-150.5 53.5T1034 1524H297V813zm117 1219h186l297-203 291 203h186l-405-271H825z"/><glyph glyph-name="uni0156.ss01" horiz-adv-x="1775" d="M1542 0q-12 13-17.5 43.5t-6 50-.5 60.5v196q0 86-27 150.5T1422.5 602 1319 661.5 1199 691t-130 7H297V0H172v1638h901q580 0 580-467 0-182-78.5-281T1346 756q145-35 223-137t78-254V154q0-126 24-154h-129zM297 813h774q236 0 342.5 87.5T1520 1171q0 104-33.5 175T1386 1455t-150.5 53.5T1034 1524H297V813zm504-979q0 38 27 66t71 28q41 0 67.5-27.5T993-186q0-156-166-236v78q51 23 78.5 53t36.5 74q-28-31-61-31-32 0-56 23t-24 59z"/><glyph glyph-name="S.ss01" horiz-adv-x="1638" d="M866-20q-394 0-598.5 159.5T63 596v20h132v-20q0-496 679-496 279 0 415 87.5T1425 457q0 60-22.5 106t-55.5 74.5-90.5 52-107 35.5-125.5 27l-399 82q-47 10-77 16.5T473 869t-74.5 23.5T331 922t-62.5 37-50.5 46.5-41 58-24.5 70-9.5 85.5q0 209 180 324.5T809 1659q339 0 523-145t184-406v-21h-134v21q0 207-144.5 318.5T805 1538q-251 0-391-85.5T274 1210q0-38 13-70.5t32-55.5 52.5-43.5T434 1007t75-26 76-20 79-17l413-84q43-9 73.5-15.5T1224 826t73.5-24.5T1365 770t62.5-40.5 51.5-51 41.5-64 25.5-79 10-95.5q0-226-175.5-343T866-20z"/><glyph glyph-name="Sacute.ss01" horiz-adv-x="1638" d="M866-20q-394 0-598.5 159.5T63 596v20h132v-20q0-496 679-496 279 0 415 87.5T1425 457q0 60-22.5 106t-55.5 74.5-90.5 52-107 35.5-125.5 27l-399 82q-47 10-77 16.5T473 869t-74.5 23.5T331 922t-62.5 37-50.5 46.5-41 58-24.5 70-9.5 85.5q0 209 180 324.5T809 1659q339 0 523-145t184-406v-21h-134v21q0 207-144.5 318.5T805 1538q-251 0-391-85.5T274 1210q0-38 13-70.5t32-55.5 52.5-43.5T434 1007t75-26 76-20 79-17l413-84q43-9 73.5-15.5T1224 826t73.5-24.5T1365 770t62.5-40.5 51.5-51 41.5-64 25.5-79 10-95.5q0-226-175.5-343T866-20zM256 1839l1096 152 20-80-1096-152z"/><glyph glyph-name="Scaron.ss01" horiz-adv-x="1638" d="M866-20q-394 0-598.5 159.5T63 596v20h132v-20q0-496 679-496 279 0 415 87.5T1425 457q0 60-22.5 106t-55.5 74.5-90.5 52-107 35.5-125.5 27l-399 82q-47 10-77 16.5T473 869t-74.5 23.5T331 922t-62.5 37-50.5 46.5-41 58-24.5 70-9.5 85.5q0 209 180 324.5T809 1659q339 0 523-145t184-406v-21h-134v21q0 207-144.5 318.5T805 1538q-251 0-391-85.5T274 1210q0-38 13-70.5t32-55.5 52.5-43.5T434 1007t75-26 76-20 79-17l413-84q43-9 73.5-15.5T1224 826t73.5-24.5T1365 770t62.5-40.5 51.5-51 41.5-64 25.5-79 10-95.5q0-226-175.5-343T866-20zM334 2032h186l297-203 291 203h186l-405-271H745z"/><glyph glyph-name="Scedilla.ss01" horiz-adv-x="1638" d="M866-20h-12l-29-115q226 33 226-125 0-85-83-124.5T680-424l2 82q147 0 205.5 15.5T946-260q0 52-56.5 62T723-207l45 189Q421 2 242 160T63 596v20h132v-20q0-496 679-496 279 0 415 87.5T1425 457q0 60-22.5 106t-55.5 74.5-90.5 52-107 35.5-125.5 27l-399 82q-47 10-77 16.5T473 869t-74.5 23.5T331 922t-62.5 37-50.5 46.5-41 58-24.5 70-9.5 85.5q0 209 180 324.5T809 1659q339 0 523-145t184-406v-21h-134v21q0 207-144.5 318.5T805 1538q-251 0-391-85.5T274 1210q0-38 13-70.5t32-55.5 52.5-43.5T434 1007t75-26 76-20 79-17l413-84q43-9 73.5-15.5T1224 826t73.5-24.5T1365 770t62.5-40.5 51.5-51 41.5-64 25.5-79 10-95.5q0-226-175.5-343T866-20z"/><glyph glyph-name="uni0218.ss01" horiz-adv-x="1638" d="M866-20q-394 0-598.5 159.5T63 596v20h132v-20q0-496 679-496 279 0 415 87.5T1425 457q0 60-22.5 106t-55.5 74.5-90.5 52-107 35.5-125.5 27l-399 82q-47 10-77 16.5T473 869t-74.5 23.5T331 922t-62.5 37-50.5 46.5-41 58-24.5 70-9.5 85.5q0 209 180 324.5T809 1659q339 0 523-145t184-406v-21h-134v21q0 207-144.5 318.5T805 1538q-251 0-391-85.5T274 1210q0-38 13-70.5t32-55.5 52.5-43.5T434 1007t75-26 76-20 79-17l413-84q43-9 73.5-15.5T1224 826t73.5-24.5T1365 770t62.5-40.5 51.5-51 41.5-64 25.5-79 10-95.5q0-226-175.5-343T866-20zM721-166q0 38 27 66t71 28q41 0 67.5-27.5T913-186q0-157-165-236v78q51 23 78 53t36 74q-28-31-61-31-32 0-56 23t-24 59z"/><glyph glyph-name="uni1E9E.ss01" horiz-adv-x="1595" d="M164 1184q0 242 152.5 348T805 1638h688q-27-150-53-250.5t-57-179.5-70.5-126.5-88.5-77.5-118-46q190-28 282.5-136t92.5-314v-6q0-118-27.5-205T1376 153t-130-91-175.5-48T848 0H453v109l364-3q117-1 198 8t150 33.5 109 68 62 111.5 22 165v4q0 51-3.5 88.5t-17 82.5-37 76-66 62.5-102 50.5T985 887t-199 12H453v107h329q110 0 187 9.5t136.5 38.5 96.5 62 69 101 51.5 132.5T1370 1528H805q-284 0-403-78.5T283 1184V0H164v1184z"/><glyph glyph-name="T.ss01" horiz-adv-x="1552" d="M715 0v1524H20v114h1512v-114H838V0H715z"/><glyph glyph-name="Tbar.ss01" horiz-adv-x="1581" d="M731 0v776H193v88h538v660H37v114h1511v-114H854V864h537v-88H854V0H731z"/><glyph glyph-name="Tcaron.ss01" horiz-adv-x="1552" d="M715 0v1524H20v114h1512v-114H838V0H715zM295 2032h186l297-203 291 203h186l-405-271H707z"/><glyph glyph-name="uni0162.ss01" horiz-adv-x="1552" d="M715 0v1524H20v114h1512v-114H838V0h-17l-35-135q226 33 226-125 0-85-83-124.5T641-424l2 82q147 0 205.5 15.5T907-260q0 52-56.5 62T684-207L733 0h-18z"/><glyph glyph-name="uni021A.ss01" horiz-adv-x="1552" d="M715 0v1524H20v114h1512v-114H838V0H715zm-35-166q0 38 27 66t71 28q41 0 67.5-27.5T872-186q0-157-165-236v78q51 23 78 53t36 74q-28-31-61-31-32 0-56 23t-24 59z"/><glyph glyph-name="U.ss01" horiz-adv-x="1802" d="M901-20q-276 0-438 72T229.5 276 158 684v954h129V684q0-106 14-190t39.5-145 67-105.5 89-72.5 114-44.5T745 104t156-6 156 6 134 22.5 114 44.5 89.5 72.5 67 105.5 40 145 14.5 190v954h126V684q0-196-41-329.5T1469 137 1240.5 16.5 901-20z"/><glyph glyph-name="Uacute.ss01" horiz-adv-x="1802" d="M901-20q-276 0-438 72T229.5 276 158 684v954h129V684q0-106 14-190t39.5-145 67-105.5 89-72.5 114-44.5T745 104t156-6 156 6 134 22.5 114 44.5 89.5 72.5 67 105.5 40 145 14.5 190v954h126V684q0-196-41-329.5T1469 137 1240.5 16.5 901-20zM342 1839l1096 152 20-80-1096-152z"/><glyph glyph-name="Ucircumflex.ss01" horiz-adv-x="1802" d="M901-20q-276 0-438 72T229.5 276 158 684v954h129V684q0-106 14-190t39.5-145 67-105.5 89-72.5 114-44.5T745 104t156-6 156 6 134 22.5 114 44.5 89.5 72.5 67 105.5 40 145 14.5 190v954h126V684q0-196-41-329.5T1469 137 1240.5 16.5 901-20zM420 1720l411 271h144l405-271h-186l-291 203-297-203H420z"/><glyph glyph-name="Udieresis.ss01" horiz-adv-x="1802" d="M901-20q-276 0-438 72T229.5 276 158 684v954h129V684q0-106 14-190t39.5-145 67-105.5 89-72.5 114-44.5T745 104t156-6 156 6 134 22.5 114 44.5 89.5 72.5 67 105.5 40 145 14.5 190v954h126V684q0-196-41-329.5T1469 137 1240.5 16.5 901-20zM457 1872q0 40 24.5 63t59.5 23 59.5-23 24.5-63q0-36-24.5-59t-59.5-23-59.5 23-24.5 59zm714 0q0 40 24.5 63t61.5 23q34 0 59-23.5t25-62.5q0-36-25-59t-59-23q-36 0-61 23t-25 59z"/><glyph glyph-name="Ugrave.ss01" horiz-adv-x="1802" d="M901-20q-276 0-438 72T229.5 276 158 684v954h129V684q0-106 14-190t39.5-145 67-105.5 89-72.5 114-44.5T745 104t156-6 156 6 134 22.5 114 44.5 89.5 72.5 67 105.5 40 145 14.5 190v954h126V684q0-196-41-329.5T1469 137 1240.5 16.5 901-20zM342 1911l20 80 1096-152-20-80z"/><glyph glyph-name="Uhungarumlaut.ss01" horiz-adv-x="1802" d="M901-20q-276 0-438 72T229.5 276 158 684v954h129V684q0-106 14-190t39.5-145 67-105.5 89-72.5 114-44.5T745 104t156-6 156 6 134 22.5 114 44.5 89.5 72.5 67 105.5 40 145 14.5 190v954h126V684q0-196-41-329.5T1469 137 1240.5 16.5 901-20zM729 1761l236 230h110l-215-230H729zm240 0l235 230h109l-215-230H969z"/><glyph glyph-name="Umacron.ss01" horiz-adv-x="1802" d="M901-20q-276 0-438 72T229.5 276 158 684v954h129V684q0-106 14-190t39.5-145 67-105.5 89-72.5 114-44.5T745 104t156-6 156 6 134 22.5 114 44.5 89.5 72.5 67 105.5 40 145 14.5 190v954h126V684q0-196-41-329.5T1469 137 1240.5 16.5 901-20zM342 1835v82h1116v-82H342z"/><glyph glyph-name="Uogonek.ss01" horiz-adv-x="1802" d="M901-20q-276 0-438 72T229.5 276 158 684v954h129V684q0-106 14-190t39.5-145 67-105.5 89-72.5 114-44.5T745 104t156-6 156 6 134 22.5 114 44.5 89.5 72.5 67 105.5 40 145 14.5 190v954h126V684q0-318-113-479.5T1161 0q-102-36-152.5-84T958-199q0-66 59.5-96.5T1208-326h31l-82-84h-29q-126 0-199 47.5T856-219q0 76 49.5 123.5T1040-16q-86-4-139-4z"/><glyph glyph-name="Uring.ss01" horiz-adv-x="1802" d="M901-20q-276 0-438 72T229.5 276 158 684v954h129V684q0-106 14-190t39.5-145 67-105.5 89-72.5 114-44.5T745 104t156-6 156 6 134 22.5 114 44.5 89.5 72.5 67 105.5 40 145 14.5 190v954h126V684q0-196-41-329.5T1469 137 1240.5 16.5 901-20zM735 1896q0 71 49.5 118.5T901 2062t116.5-47.5T1067 1896t-49-118-117-47-117 47-49 118zm76 0q0-40 24.5-65t65.5-25 65.5 25 24.5 65-24.5 65.5T901 1987t-65.5-25.5T811 1896z"/><glyph glyph-name="V.ss01" horiz-adv-x="1673" d="M770 0L27 1638h137L825 166l13-29 10 29 661 1472h138L903 0H770z"/><glyph glyph-name="W.ss01" horiz-adv-x="2545" d="M618 0L39 1638h131L684 164l518 1474h141l515-1458 4-16 6 16 508 1458h131L1929 0h-131l-522 1464-4 13-4-13L748 0H618z"/><glyph glyph-name="Wacute.ss01" horiz-adv-x="2545" d="M618 0L39 1638h131L684 164l518 1474h141l515-1458 4-16 6 16 508 1458h131L1929 0h-131l-522 1464-4 13-4-13L748 0H618zm97 1839l1095 152 21-80-1096-152z"/><glyph glyph-name="Wcircumflex.ss01" horiz-adv-x="2545" d="M618 0L39 1638h131L684 164l518 1474h141l515-1458 4-16 6 16 508 1458h131L1929 0h-131l-522 1464-4 13-4-13L748 0H618zm175 1720l411 271h144l405-271h-186l-291 203-297-203H793z"/><glyph glyph-name="Wdieresis.ss01" horiz-adv-x="2545" d="M618 0L39 1638h131L684 164l518 1474h141l515-1458 4-16 6 16 508 1458h131L1929 0h-131l-522 1464-4 13-4-13L748 0H618zm211 1872q0 40 24.5 63t59.5 23 59.5-23 24.5-63q0-36-24.5-59t-59.5-23-59.5 23-24.5 59zm715 0q0 40 24.5 63t61.5 23q34 0 59-23.5t25-62.5q0-36-25-59t-59-23q-36 0-61 23t-25 59z"/><glyph glyph-name="Wgrave.ss01" horiz-adv-x="2545" d="M618 0L39 1638h131L684 164l518 1474h141l515-1458 4-16 6 16 508 1458h131L1929 0h-131l-522 1464-4 13-4-13L748 0H618zm97 1911l20 80 1096-152-21-80z"/><glyph glyph-name="X.ss01" horiz-adv-x="1654" d="M0 0l756 819L8 1638h160l663-739 660 739h162L901 819 1647 0h-160L823 739 160 0H0z"/><glyph glyph-name="Y.ss01" horiz-adv-x="1765" d="M821 0v600L33 1638h149l701-929 700 929h150L944 600V0H821z"/><glyph glyph-name="Yacute.ss01" horiz-adv-x="1765" d="M821 0v600L33 1638h149l701-929 700 929h150L944 600V0H821zM324 1839l1095 152 21-80-1096-152z"/><glyph glyph-name="Ycircumflex.ss01" horiz-adv-x="1765" d="M821 0v600L33 1638h149l701-929 700 929h150L944 600V0H821zM401 1720l412 271h143l406-271h-186l-291 203-297-203H401z"/><glyph glyph-name="Ydieresis.ss01" horiz-adv-x="1765" d="M821 0v600L33 1638h149l701-929 700 929h150L944 600V0H821zM440 1872q0 40 24.5 63t59.5 23 59.5-23 24.5-63q0-36-24.5-59t-59.5-23-59.5 23-24.5 59zm715 0q0 40 24.5 63t61.5 23q34 0 59-23.5t25-62.5q0-36-25-59t-59-23q-36 0-61 23t-25 59z"/><glyph glyph-name="Ygrave.ss01" horiz-adv-x="1765" d="M821 0v600L33 1638h149l701-929 700 929h150L944 600V0H821zM324 1911l20 80 1096-152-21-80z"/><glyph glyph-name="Z.ss01" horiz-adv-x="1521" d="M51 0v111l1264 1417H51v110h1419v-110L207 111h1263V0H51z"/><glyph glyph-name="Zacute.ss01" horiz-adv-x="1521" d="M51 0v111l1264 1417H51v110h1419v-110L207 111h1263V0H51zm152 1839l1095 152 21-80-1096-152z"/><glyph glyph-name="Zcaron.ss01" horiz-adv-x="1521" d="M51 0v111l1264 1417H51v110h1419v-110L207 111h1263V0H51zm230 2032h186l297-203 291 203h186l-405-271H692z"/><glyph glyph-name="Zdotaccent.ss01" horiz-adv-x="1521" d="M51 0v111l1264 1417H51v110h1419v-110L207 111h1263V0H51zm613 1845q0 41 28 70t70 29 70-29 28-70q0-38-28-66t-70-28-70 28-28 66z"/><glyph glyph-name="W.ss02" horiz-adv-x="1507" d="M106 0v1638h117V266l504 1372h139V266l506 1372h121L889 0H750v1372L248 0H106z"/><glyph glyph-name="W.ss03" horiz-adv-x="3061" d="M334 0H172v1638h121V137l1266 1501h157V139l1233 1499h154L1757 0h-160v1497z"/><glyph glyph-name="i.loclTRK" horiz-adv-x="331" d="M106 1331h119V0H106v1331zm-40 232q0 40 28 68t72 28q43 0 70.5-27.5T264 1563q0-38-27.5-66.5T166 1468t-71.5 28.5T66 1563z"/><glyph glyph-name="uni006A0301" horiz-adv-x="331" d="M106-20v1351h119V-41q0-92-15.5-157.5T157-313 56-386t-158-24h-93v97h86q125 0 170 68.5T106-20zM-33 1526l361 157 32-73L2 1454z"/><glyph glyph-name="w.ss02" horiz-adv-x="1503" d="M106 0v1331h117V219l504 1112h139V219l504 1112h123L889 0H750v1120L248 0H106z"/><glyph glyph-name="zero.ss01" horiz-adv-x="1695" d="M858-20q-375 0-566.5 220.5T100 823q0 396 192.5 616T858 1659q359 0 548-221t189-615q0-400-188.5-621.5T858-20zM225 823q0-343 142-526l886 1128q-147 123-395 123-315 0-474-183.5T225 823zm221-608Q596 92 858 92q302 0 457 183.5T1470 823q0 334-139 520z"/><glyph glyph-name="one.ss01" horiz-adv-x="1222" d="M74 109h520v1409q-85-113-228.5-171.5T63 1288v115q162 0 283.5 55.5T578 1638h137V109h520V0H74v109z"/><glyph glyph-name="two.ss01" horiz-adv-x="1638" d="M92 111q0 81 6 145.5T121.5 391t47 123.5 80 106 119 89.5 166 65T754 817l211 23q84 10 146.5 24t124.5 40 101 63 63.5 95 24.5 134q0 352-573 352-325 0-469.5-116.5T238 1049H113q0 314 179 462t558 148q163 0 289.5-26.5t219.5-82 142-145 49-211.5q0-92-29-165t-78-121.5-121.5-84.5-151-56T995 735l-209-24q-107-13-190.5-35.5t-143.5-51T349 555t-69.5-84.5-41-104-20-119.5-5.5-138h1337V0H92v111z"/><glyph glyph-name="three.ss01" horiz-adv-x="1609" d="M795-20q-368 0-546.5 133T68 512h125q0-216 146.5-318T795 92q587 0 587 350 0 336-565 336H526v107h291q90 0 164.5 7.5t147 29 122.5 55 80.5 89.5 30.5 130q0 80-30 141.5t-80.5 101T1128 1503t-151.5 35-171.5 10q-97 0-177-10.5t-155.5-38T346 1428t-82-115.5-31-165.5H109q3 512 698 512 340 0 510-118.5t170-344.5q0-137-90-234t-246-128q356-90 356-394 0-231-182-345.5T795-20z"/><glyph glyph-name="four.ss01" horiz-adv-x="1564" d="M1274 1638V479h268V373h-268V0h-121v373H10v106l1143 1159h121zM158 479h995v1010z"/><glyph glyph-name="five.ss01" horiz-adv-x="1615" d="M860 1098q322 0 503-141.5T1544 541q0-272-190-416.5T823-20Q669-20 541.5 9.5t-227 90-155 161T104 494h125q0-70 20.5-128.5t55-99 83.5-72T489 144t112.5-31T715 96.5 823 92q97 0 181.5 14t162 47 132.5 83.5 87.5 128.5 32.5 176q0 446-565 446-232 0-369.5-73.5T250 690H119l61 948h1282v-108H293l-49-692q199 260 616 260z"/><glyph glyph-name="six.ss01" horiz-adv-x="1646" d="M844-20q-376 0-552.5 150T115 580v315q0 193 40 333t127.5 237.5 228 145.5 337.5 48q332 0 490.5-129.5T1497 1167h-125q0 103-36 177.5T1230.5 1463t-163 64.5T852 1548q-148 0-256.5-30T405 1419.5t-123.5-188T240 942v-84q88 118 248 180t378 62q333 0 510.5-139.5T1554 541q0-281-172.5-421T844-20zM240 569q0-249 148-363T846 92q296 0 440 106t144 343q0 124-39 211.5t-115.5 138T1098 964t-236 23-244.5-23-196-71-134-130.5T240 569z"/><glyph glyph-name="seven.ss01" horiz-adv-x="1402" d="M-14 1530v108h1388v-108q-138-68-251.5-157T928 1186.5t-143-213-100.5-230T622 499t-33-248.5T580 0H459q0 121 7.5 230t28 236T549 705t90.5 231 132 220.5 184 199T1196 1530H-14z"/><glyph glyph-name="eight.ss01" horiz-adv-x="1626" d="M813-20q-353 0-537 123T92 453q0 158 95.5 264.5T463 870q-141 39-225 135.5T154 1231q0 206 171.5 317T813 1659q317 0 488.5-110.5T1473 1231q0-129-84.5-225.5T1163 870q180-46 275.5-152.5T1534 453q0-227-184-350T813-20zM217 455q0-179 151.5-272T813 90t444.5 93T1409 455q0 79-29 140.5T1300 697t-127 66-164 37-196 11q-107 0-195-11t-164-37-127.5-66T246 595.5 217 455zm59 774q0-82 42.5-143T436 989.5 605.5 937 813 920t206.5 17 169.5 52 118.5 96.5T1350 1229q0 155-138 238t-399 83q-260 0-398.5-82.5T276 1229z"/><glyph glyph-name="nine.ss01" horiz-adv-x="1646" d="M799-20q-332 0-490.5 130T150 473h124q0-104 36.5-178.5T417 176t163-64 215-20q149 0 258 30t191 98.5 123.5 188T1409 698v86q-86-119-246.5-181T782 541q-335 0-512.5 139T92 1098q0 280 173.5 420.5T803 1659q377 0 554-149.5t177-448.5V743q0-386-173-574.5T799-20zM217 1098q0-123 39-210.5T371 749t177-74.5T784 651t245 23 197 71 135 130.5 48 193.5q0 250-148 364.5T801 1548q-296 0-440-106t-144-344z"/><glyph glyph-name="zero.tf" horiz-adv-x="921" d="M461-18q-352 0-352 411v854q0 412 352 412 354 0 354-412V393q0-411-354-411zM233 385q0-33 3-63l428 1114q-45 127-203 127-54 0-93-13.5t-71-47-48-95-16-152.5V385zm39-211q51-96 189-96 55 0 94.5 13.5t71 46.5 47.5 94.5T690 385v881z"/><glyph glyph-name="one.tf" horiz-adv-x="921" d="M166 96h248v1366q-37-61-101.5-94T164 1335v103q94 0 153.5 51t98.5 149h119V96h247V0H166v96z"/><glyph glyph-name="two.tf" horiz-adv-x="921" d="M111 100q0 95 6 152.5t28 129 69 141T340 678l178 192q83 88 126.5 179.5T688 1266v8q0 88-16 147t-47.5 89-67.5 41.5-86 11.5q-51 0-87-11.5t-68-41.5-48-90-16-150v-103H127v97q0 195 83 295t261 100q176 0 259-99.5t83-293.5q0-81-18-154t-52.5-133.5-65-102T604 788L428 598q-44-49-64.5-72.5t-48-61.5-38-67-22.5-75-15.5-99.5T236 96h575V0H111v100z"/><glyph glyph-name="three.tf" horiz-adv-x="921" d="M451-20q-177 0-263 99.5T102 379v110h123V377q0-92 17-154t50.5-93T363 87.5 451 76q114 0 172.5 70T682 383v106q0 83-17.5 145T623 728.5 565.5 781 508 806t-49 5H328v98h131q24 0 49 5t57.5 22 57 45 42 80 17.5 121v86q0 72-13 126t-34 86-52 51-61 25.5-67 6.5q-53 0-91-11.5t-71.5-41.5-50.5-90-17-150v-101H102v95q0 197 84.5 296t268.5 99q178 0 265-104.5t87-290.5v-74q0-120-55-211T602 862q98-31 151.5-130.5T807 481v-92q0-66-9.5-122.5T763 156t-64-92T596.5 3 451-20z"/><glyph glyph-name="four.tf" horiz-adv-x="921" d="M692 1638V453h127v-97H692V0H571v356H100v101l475 1181h117zM209 453h362v913z"/><glyph glyph-name="five.tf" horiz-adv-x="921" d="M498 1098q155 0 237-108.5T817 688V401q0-203-90.5-312T459-20Q286-20 198.5 92T111 414v75h125v-83q0-181 61-255.5T465 76q112 0 169.5 73.5T692 389v299q0 150-53.5 230.5T481 999q-56 0-97.5-21.5t-67.5-63-41.5-90T250 711H127l43 927h573v-96H283l-29-590q73 146 244 146z"/><glyph glyph-name="six.tf" horiz-adv-x="921" d="M469-20q-352 0-352 417v852q0 410 344 410 82 0 142.5-22.5t95-57.5 55.5-89.5 27.5-107T788 1262v-33H664v33q0 161-44.5 229T463 1559q-117 0-169-68t-52-229V946q88 152 262 152 155 0 236-109t81-301V397q0-201-87-309T469-20zM242 393q0-93 17.5-157t50.5-98 71-48 88-14q115 0 171 75t56 244v295q0 309-215 309-111 0-175-85t-64-222V393z"/><glyph glyph-name="seven.tf" horiz-adv-x="921" d="M106 1542v96h693v-96q-210-335-298.5-674T412 27V0H291v25q0 500 91.5 840.5T690 1542H106z"/><glyph glyph-name="eight.tf" horiz-adv-x="921" d="M461-20q-182 0-266 93.5T111 365v147q0 156 50 239.5T305 864q-176 63-176 303v142q0 162 82 256t250 94q170 0 251-94t81-256v-142q0-240-175-303 95-31 145-114.5T813 512V365q0-197-85-291T461-20zM236 362q0-75 12-128t30.5-83.5 49-47.5T388 81t73-5 73.5 5 61.5 22 49.5 47.5T676 234t12 128v162q0 86-16.5 144.5t-49 88-70.5 41-91 11.5q-52 0-89.5-11.5t-70-41-49-88T236 524V362zm18 797q0-135 52.5-193.5T461 907q209 0 209 252v152q0 135-53.5 193.5T461 1563q-101 0-154-58.5T254 1311v-152z"/><glyph glyph-name="nine.tf" horiz-adv-x="921" d="M453 1659q352 0 352-418V389q0-409-344-409-82 0-142.5 22.5T223 60t-56 89.5-27.5 107T133 377v33h125v-33q0-161 44.5-229T459 80q117 0 169 68t52 229v315q-87-151-262-151-155 0-236.5 109T100 950v291q0 201 87.5 309.5T453 1659zM225 948q0-309 215-309 111 0 175.5 85T680 946v299q0 93-17.5 157.5t-50.5 98-71 48-88 14.5q-115 0-171.5-75.5T225 1243V948z"/><glyph glyph-name="zero.dnom" horiz-adv-x="489" d="M244-10Q59-10 59 207v405q0 217 185 217 186 0 186-217V207q0-217-186-217zm-92 254l182 432q-7 45-29.5 62.5T244 756q-45 0-68.5-27T152 633V244zm8-121q15-60 84-60 46 0 69 27t23 98v359z"/><glyph glyph-name="one.dnom" horiz-adv-x="391" d="M41 74h117v628q-37-57-121-57v80q88 0 127 94h82V74h119V0H41v74z"/><glyph glyph-name="two.dnom" horiz-adv-x="454" d="M43 80q0 89 25.5 151T166 367l74 73q79 79 79 187v12q0 68-23.5 92.5T229 756q-42 0-64-25t-22-94v-62H49v52q0 202 180 202 183 0 183-206 0-58-19.5-109T353 437t-52-60l-78-78q-53-53-69.5-93T137 74h273V0H43v80z"/><glyph glyph-name="three.dnom" horiz-adv-x="464" d="M229-10Q45-10 45 195v53h92v-62q0-72 23-97.5T227 63q48 0 71.5 28.5T322 188v70q0 40-9.5 68.5t-25 41-29 17T231 389h-67v74h67q34 0 62.5 24.5T322 575v60q0 70-25.5 95.5T229 756q-45 0-68.5-25T137 637v-55H45v47q0 200 184 200 97 0 141-58t44-140v-35q0-62-27-106.5T311 430q103-39 103-188v-41q0-96-43.5-153.5T229-10z"/><glyph glyph-name="four.dnom" horiz-adv-x="436" d="M348 819V242h55v-74h-55V0h-90v168H29v80l233 571h86zM98 242h160v405z"/><glyph glyph-name="five.dnom" horiz-adv-x="458" d="M262 549q72 0 113-51.5T416 346V217q0-227-189-227-89 0-135.5 57T45 213v35h94v-53q0-132 92-132 93 0 93 127v154q0 129-86 129-80 0-95-121H53l21 467h305v-74H158l-13-268q37 72 117 72z"/><glyph glyph-name="six.dnom" horiz-adv-x="479" d="M244-10Q59-10 59 213v385q0 112 42 171.5T238 829q178 0 178-200v-21h-92v19q0 64-19.5 93.5T240 750q-46 0-67-29t-21-94V483q45 66 122 66 76 0 116-54t40-153V207q0-104-47.5-160.5T244-10zm-92 200q0-72 24.5-99.5T246 63t67.5 30 22.5 97v156q0 61-22 94t-64 33q-46 0-72-35t-26-92V190z"/><glyph glyph-name="seven.dnom" horiz-adv-x="411" d="M27 745v74h352v-74Q278 580 240.5 412.5T203 23V0h-90v20q0 220 41 389t145 336H27z"/><glyph glyph-name="eight.dnom" horiz-adv-x="466" d="M233-10q-94 0-139 48T49 186v64q0 153 105 182-97 28-97 158v57q0 85 44 133.5T233 829q89 0 133-48.5T410 647v-57q0-130-97-158 105-26 105-182v-64q0-100-45-148T233-10zm-90 190q0-71 22.5-94T233 63q46 0 69.5 23.5T326 180v94q0 67-24.5 93T233 393t-67-26-23-93v-94zm7 391q0-56 20.5-80t62.5-24q84 0 84 104v82q0 103-84 103-41 0-62-24t-21-79v-82z"/><glyph glyph-name="nine.dnom" horiz-adv-x="479" d="M236 829q184 0 184-221V221q0-112-41.5-171.5T242-10q-97 0-138 56T63 190v21h93v-18q0-64 19.5-93.5T240 70q46 0 67 29.5t21 93.5v143q-46-66-123-66-76 0-116 54.5T49 477v135q0 105 47.5 161T236 829zm-93-356q0-127 86-127 46 0 72.5 35.5T328 473v158q0 71-25.5 98T233 756q-46 0-68-29t-22-96V473z"/><glyph glyph-name="zero.numr" horiz-adv-x="489" d="M244 809q-185 0-185 217v406q0 217 185 217 186 0 186-217v-406q0-217-186-217zm-92 254l182 432q-7 45-29.5 62.5T244 1575q-45 0-68.5-27t-23.5-96v-389zm8-121q15-59 84-59 46 0 69 27t23 98v358z"/><glyph glyph-name="one.numr" horiz-adv-x="391" d="M41 893h117v629q-38-58-121-58v80q88 0 127 94h82V893h119v-74H41v74z"/><glyph glyph-name="two.numr" horiz-adv-x="454" d="M43 899q0 89 25.5 151t97.5 136l74 74q42 42 60.5 85t18.5 101v12q0 68-23.5 92.5T229 1575q-42 0-64-25t-22-94v-61H49v51q0 203 180 203 183 0 183-207 0-58-19.5-109t-39.5-77-52-60l-78-78q-53-53-69.5-93T137 893h273v-74H43v80z"/><glyph glyph-name="three.numr" horiz-adv-x="464" d="M229 809q-184 0-184 205v53h92v-61q0-72 23-97.5t67-25.5q48 0 71.5 28.5T322 1008v69q0 40-9.5 68.5t-25 41-29 17-27.5 4.5h-67v74h67q33 0 62 25t29 88v59q0 70-25.5 95.5T229 1575q-45 0-68.5-25t-23.5-94v-55H45v47q0 201 184 201 97 0 141-58.5t44-140.5v-35q0-62-27-106.5t-76-59.5q103-39 103-188v-41q0-96-43.5-153.5T229 809z"/><glyph glyph-name="four.numr" horiz-adv-x="436" d="M348 1638v-577h55v-74h-55V819h-90v168H29v80l233 571h86zM98 1061h160v405z"/><glyph glyph-name="five.numr" horiz-adv-x="458" d="M262 1368q72 0 113-51.5t41-151.5v-129q0-227-189-227-89 0-135.5 57T45 1032v35h94v-53q0-131 92-131 93 0 93 127v153q0 129-86 129-80 0-95-121H53l21 467h305v-73H158l-13-269q37 72 117 72z"/><glyph glyph-name="six.numr" horiz-adv-x="479" d="M244 809q-185 0-185 223v385q0 112 42 172t137 60q96 0 137-56t41-145v-21h-92v19q0 64-19.5 93.5T240 1569q-46 0-67-29t-21-94v-143q45 65 122 65 76 0 116-54t40-153v-135q0-104-47.5-160.5T244 809zm-92 201q0-72 24.5-99.5T246 883t67.5 30 22.5 97v155q0 61-22 94t-64 33q-46 0-72-35t-26-92v-155z"/><glyph glyph-name="seven.numr" horiz-adv-x="411" d="M27 1565v73h352v-73q-101-165-138.5-333T203 842v-23h-90v21q0 220 41 389t145 336H27z"/><glyph glyph-name="eight.numr" horiz-adv-x="466" d="M233 809q-94 0-139 48.5T49 1006v63q0 153 105 182-97 28-97 158v57q0 85 44 134t132 49q89 0 133-49t44-134v-57q0-130-97-158 105-26 105-182v-63q0-100-45-148.5T233 809zm-90 190q0-71 22-93.5t68-22.5 69.5 23 23.5 93v95q0 67-24 92.5t-69 25.5q-44 0-67-25.5t-23-92.5v-95zm7 392q0-56 21-80.5t62-24.5q84 0 84 105v82q0 55-21 78.5t-63 23.5-62.5-23.5T150 1473v-82z"/><glyph glyph-name="nine.numr" horiz-adv-x="479" d="M236 1649q184 0 184-222v-387q0-112-41.5-171.5T242 809q-97 0-138 56.5T63 1010v20h93v-18q0-64 19.5-93.5T240 889q46 0 67 29.5t21 93.5v143q-46-65-123-65-76 0-116 54t-40 152v136q0 105 47.5 161t139.5 56zm-93-357q0-127 86-127 46 0 72.5 35.5T328 1292v158q0 71-25.5 98t-69.5 27q-46 0-68-29t-22-96v-158z"/><glyph glyph-name="exclamdown.case" horiz-adv-x="368" d="M244 0H123l4 1126h117V0zM72 1546q0 50 33 81.5t79 31.5q48 0 80.5-31.5T297 1546t-32.5-81-80.5-31q-46 0-79 31.5T72 1546z"/><glyph glyph-name="questiondown.case" horiz-adv-x="747" d="M367-20q-163 0-243.5 93T43 317q0 89 28 166.5t67.5 138 79 123.5T285 896.5t28 193.5v36h115v-39q0-90-19.5-170t-49-135.5-63.5-114T232.5 560t-49-115T164 309q0-233 207-233 213 0 213 289v104h121v-96q0-83-18-151.5t-56.5-124T525 11 367-20zM256 1546q0 49 33.5 81t79.5 32q48 0 80-31.5t32-81.5-32-81-80-31q-46 0-79.5 31.5T256 1546z"/><glyph glyph-name="hyphen.case" horiz-adv-x="952" d="M57 842h840v-86H57v86z"/><glyph glyph-name="endash.case" horiz-adv-x="1300" d="M57 844h1188v-86H57v86z"/><glyph glyph-name="emdash.case" horiz-adv-x="2160" d="M57 844h2048v-88H57v88z"/><glyph glyph-name="parenleft.case" horiz-adv-x="534" d="M408-178Q228 69 148 308T68 829q0 284 80 520t260 484h112q-189-267-269.5-493.5T170 829q0-285 79.5-510T520-178H408z"/><glyph glyph-name="parenright.case" horiz-adv-x="536" d="M129 1827q180-247 260-486.5T469 819q0-284-80-519.5T129-184H16Q206 84 286.5 309.5T367 819q0 285-79.5 510.5T16 1827h113z"/><glyph glyph-name="braceleft.case" horiz-adv-x="503" d="M66 938q79 0 79 178v371q0 184 60 267t186 83h80v-92h-78q-81 0-113-62.5T248 1495v-373q0-108-18.5-160T158 877v-91q53-33 71.5-85T248 541V168q0-125 32-187.5T393-82h78v-92h-80q-126 0-186 83t-60 267v371q0 178-79 178v213z"/><glyph glyph-name="braceright.case" horiz-adv-x="505" d="M440 715q-80 0-80-178V166q0-184-59.5-267T115-184H35v92h78q81 0 113 62.5T258 158v372q0 108 18.5 160.5T348 776v90q-53 33-71.5 85.5T258 1112v373q0 125-32 187.5T113 1735H35v92h80q126 0 185.5-83t59.5-267v-371q0-178 80-178V715z"/><glyph glyph-name="bracketleft.case" horiz-adv-x="509" d="M475 1837v-86H211V-92h264v-86H109v2015h366z"/><glyph glyph-name="bracketright.case" horiz-adv-x="509" d="M35-188v86h264v1843H35v86h366V-188H35z"/><glyph glyph-name="at.case" horiz-adv-x="1267" d="M731 82q-316 0-487.5 190.5T72 854q0 157 32 285.5t87.5 216T324 1503t164 87.5 184 27.5q99 0 177.5-24t144.5-79.5 110-143.5 68-220.5 24-306.5q0-95-6-166.5T1169.5 544 1131 443t-61.5-61-88.5-22q-129 0-166 127-66-145-203-145-129 0-203.5 128T334 825t75 355.5T612 1309q119 0 185-111v109h108V637q0-193 88-193 101 0 101 400 0 160-18.5 279.5T1023 1321t-87 126-115.5 67.5T676 1534q-80 0-152-23.5T387.5 1435 276 1305.5 201.5 1112 174 854q0-181 39.5-314.5T328 325t175.5-120T733 166q176 0 326 63v-84Q905 82 731 82zM442 825q0-192 49.5-286.5T631 444q88 0 127 91t39 290q0 198-39.5 290.5T631 1208q-90 0-139.5-95.5T442 825z"/><glyph glyph-name="ampersand.ss01" horiz-adv-x="1648" d="M764-20Q438-20 275.5 98T113 442q0 134 76.5 243.5T408 831q-89 23-156.5 83t-103 141-35.5 170q0 212 163 323t490 111q335 0 487-120t152-370h-121q0 204-117 294.5T766 1554q-279 0-406-85t-127-252q0-179 126.5-257.5T768 881h516v139h121V881h176v-99h-176V440q0-460-641-460zM231 440q0-177 126.5-266.5T764 84q276 0 398 88t122 270v340H766q-278 0-406.5-82.5T231 440z"/><glyph glyph-name="cent.tf" horiz-adv-x="921" d="M422-143v278q-289 28-289 410v551q0 380 289 407v279h86v-279q154-11 221.5-116.5T797 1096V963H680v137q0 109-22 176.5t-58.5 96T508 1407V231q41 5 71 22t53.5 51.5T668 398t12 141v137h117V545q0-189-67.5-294.5T508 135v-278h-86zM250 539q0-154 44.5-224.5T422 233v1172q-83-11-127.5-81T250 1100V539z"/><glyph glyph-name="dollar.tf" horiz-adv-x="921" d="M420-143v125Q263-6 186 93t-77 298v158h120V389q0-156 46.5-226T420 82v739l-96 70q-105 75-155 168.5T119 1296q0 342 301 361v125h86v-125q152-12 226.5-108.5T807 1260v-93H686v88q0 83-13 141t-38 91-56 48.5-73 20.5V905l88-63q76-55 122-111.5t73.5-145T817 377q0-188-71.5-287T506-18v-125h-86zM240 1305q0-119 37-191t118-131l25-18v591q-92-8-136-64t-44-181v-6zM506 82q103 8 146.5 72T696 365v6q0 147-39.5 227T524 745l-18 15V82z"/><glyph glyph-name="Euro.tf" horiz-adv-x="921" d="M37 698v82h135v78H37v82h135v307q0 412 354 412 353 0 353-412V971H754v284q0 89-16 150t-48 94-71 46.5-93 13.5q-113 0-171-66t-58-238V940h301v-82H297v-78h301v-82H297V387q0-91 16-152.5t47.5-94.5 71-46.5T526 80q54 0 93 13.5t71 46.5 48 95 16 152v281h125V395q0-415-353-415-354 0-354 415v303H37z"/><glyph glyph-name="sterling.tf" horiz-adv-x="921" d="M84 92q91 75 133.5 166T260 477q0 77-12 150H84v86h147q-7 31-29 116.5t-32 133-20.5 127.5-10.5 155q0 110 29.5 192.5T249 1567t113 69.5 134 22.5q151 0 244.5-95.5T834 1278v-135H713v139q0 142-56.5 211.5T500 1563q-106 0-173-74.5T260 1249q0-100 12.5-184.5t44-208T352 713h371v-86H369q12-67 12-142 0-128-41.5-220T211 96h623V0H84v92z"/><glyph glyph-name="yen.tf" horiz-adv-x="921" d="M137 553v82h246L100 1638h129l232-895 231 895h129L541 635h243v-82H524v-82h260v-82H524V0H399v389H137v82h262v82H137z"/><glyph glyph-name="bouclecomb" horiz-adv-x="829" d="M467-20q-96 0-157.5 48.5T215 145h-20v1037h20q31 70 93 120t161 50q137 0 211-97t74-284V358q0-186-76-282T467-20zM215 373q0-53 13-103t38.5-94.5 71-72T442 76q104 0 147.5 75T633 365v602q0 139-43.5 213.5T442 1255q-59 0-104.5-27.5t-71-72T228 1061t-13-103V373z"/><glyph glyph-name="slashcomb" horiz-adv-x="978" d="M143-20l590 1681h90L233-20h-90z"/></font>
</defs>
</svg>
