<svg xmlns="http://www.w3.org/2000/svg"><defs><font id="PPFormula-CondensedBlack" horiz-adv-x="921"><font-face font-family="PP Formula Compressed" font-weight="900" font-stretch="extra-condensed" units-per-em="2048" ascent="1638" descent="-410" x-height="1331" cap-height="1638" bbox="-274 -453 3187 2062" underline-thickness="81" underline-position="-285" unicode-range="U+0020-FB02"/><glyph glyph-name="fi" unicode="fi" horiz-adv-x="1122" d="M4 1331h117q1 77 16 132.5t52 102 107 70 173 23.5q96 0 195-21v-249q-24-3-56-3-78 0-110.5-17.5T465 1296v-57q18 33 40.5 53t52 28 49.5 9.5 57 1.5v-297H465V0H121v1034H4v297zm705 193q0 135 194 135 195 0 195-135 0-131-195-131-194 0-194 131zM731 0v1331h344V0H731z"/><glyph glyph-name="fl" unicode="fl" horiz-adv-x="1122" d="M4 1331h117q1 77 16 132.5t52 102 107 70 173 23.5q96 0 195-21v-249q-24-3-56-3-78 0-110.5-17.5T465 1296v-57q18 33 40.5 53t52 28 49.5 9.5 57 1.5v-297H465V0H121v1034H4v297zM731 0v1638h344V0H731z"/><glyph glyph-name=".notdef" horiz-adv-x="1024" d="M840 1638V-410H190v2048h650zM342-268h340v67H473l143 97h66v67H342v-67h143l-143-97v-67zm0 278h340v232H342V10zm0 355h340v231H477V481h70v47h67v-96H410v164h-68V365zm0 276h340v205h-68V711H342v-70zm0 117h205v143h135v68H342v-68h135v-76H342v-67zm0 266h340v70H547v143H342v-213zm0 266h340v68H547v76h135v67H344v-67h133v-76H342v-68zM410 78v96h204V78H410zm0 1016v73h67v-73h-67z"/><glyph glyph-name=".null" horiz-adv-x="0"/><glyph glyph-name="nonmarkingreturn" horiz-adv-x="682"/><glyph glyph-name="space" horiz-adv-x="409"/><glyph glyph-name="exclam" unicode="!" horiz-adv-x="454" d="M55 1638h342L373 512H80zM43 162q0 84 53.5 135T229 348t131-51 52-135q0-82-52.5-132T229-20q-79 0-132.5 50.5T43 162z"/><glyph glyph-name="quotedbl" unicode="&quot;" horiz-adv-x="471" d="M41 1638h164v-512H41v512zm225-512v512h164v-512H266z"/><glyph glyph-name="numbersign" unicode="#" horiz-adv-x="1505" d="M186 1139h389l187 499h104l-186-499h346l186 499h105l-187-499h334v-107h-372L934 606h373V500H895L709 0H604l187 500H444L258 0H154l186 500H29v106h350l158 426H186v107zm297-533h346l158 426H641z"/><glyph glyph-name="dollar" unicode="$" horiz-adv-x="925" d="M401-143v125Q213-6 124 93.5T35 385v164h311V381q0-82 55-105v410l-141 86q-81 49-129 106.5T58 1024t-25 217q0 201 92.5 301.5T401 1657v125h123v-125q172-12 266.5-97.5T885 1325v-199H575v136q0 78-51 98V981l115-72q55-34 90-61t69-67 52.5-87T880 579t11-157q0-224-86.5-326T524-18v-125H401zm-59 1339q0-51 13.5-80t45.5-55v305q-59-19-59-104v-66zm182-922q56 17 56 107v82q0 54-13 86.5T524 606V274z"/><glyph glyph-name="percent" unicode="%" horiz-adv-x="1363" d="M322 0l608 1638h108L430 0H322zM18 1290q0 69 16.5 131.5T86 1539t97.5 87.5T330 1659t146.5-32.5 97-87.5 51-117.5T641 1290t-16.5-131.5-51-117-97-87T330 922t-146.5 32.5-97.5 87-51.5 117T18 1290zm226 0q0-86 17.5-119.5T330 1137t68.5 33.5T416 1290t-17.5 120-68.5 34-68.5-34-17.5-120zm479-942q0 69 16.5 131.5t51 117.5 97 87.5T1034 717t146.5-32.5T1278 597t51.5-117.5T1346 348t-16.5-131.5-51.5-117-97.5-87T1034-20 887.5 12.5t-97 87-51 117T723 348zm225 0q0-86 17.5-119.5T1034 195t68.5 33.5T1120 348t-17.5 120-68.5 34-68.5-34T948 348z"/><glyph glyph-name="ampersand" unicode="&amp;" horiz-adv-x="1001" d="M459-20Q245-20 145 92T45 440v49q0 153 52.5 241.5T238 846Q49 911 49 1194v55q0 22 1 42t9.5 64.5T83 1436t47 79.5 75 73 112.5 50T473 1659q193 0 296-107t103-323v-82H520v139q0 44-11 65t-42 21-42-20-11-64v-233q0-44 11.5-64t43.5-20h51v96h352v-96h97V698h-97V416q0-227-104-331.5T459-20zm-49 370q0-44 11.5-64t43.5-20 43.5 21 11.5 65v346h-55q-32 0-43.5-20T410 614V350z"/><glyph glyph-name="quotesingle" unicode="'" horiz-adv-x="245" d="M41 1638h164v-512H41v512z"/><glyph glyph-name="parenleft" unicode="(" horiz-adv-x="464" d="M373-301Q193-54 113 185.5T33 707q0 284 80 519.5T373 1710h112q-189-267-269.5-493T135 707q0-285 79.5-510.5T485-301H373z"/><glyph glyph-name="parenright" unicode=")" horiz-adv-x="464" d="M92 1714q180-247 260-486t80-521q0-284-80-520T92-297H-20Q169-30 249.5 196.5T330 707q0 285-79.5 510T-20 1714H92z"/><glyph glyph-name="asterisk" unicode="*" horiz-adv-x="598" d="M258 1659h82v-240l190 101 41-70-186-98 186-99-41-69-190 100v-240h-82v240L68 1184l-41 69 186 99-186 98 41 70 190-101v240z"/><glyph glyph-name="plus" unicode="+" horiz-adv-x="913" d="M37 768v92h369v373h102V860h369v-92H508V393H406v375H37z"/><glyph glyph-name="comma" unicode="," horiz-adv-x="415" d="M68-127q83 18 145 62t88 114q-27-35-55.5-52T174-20q-65 0-109.5 47.5T20 162q0 85 53 135.5T207 348q90 0 138-60.5T393 125q0-117-86.5-227.5T68-287v160z"/><glyph glyph-name="hyphen" unicode="-" horiz-adv-x="876" d="M18 719h840v-86H18v86z"/><glyph glyph-name="period" unicode="." horiz-adv-x="405" d="M205-20q-79 0-133 50.5T18 162q0 84 54 135t133 51q78 0 130-51t52-135q0-82-52-132T205-20z"/><glyph glyph-name="slash" unicode="/" horiz-adv-x="749" d="M731 1638L123 0H18l609 1638h104z"/><glyph glyph-name="zero" unicode="0" horiz-adv-x="950" d="M475-20q-207 0-312.5 122.5T57 481v676q0 502 418 502t418-502V481q0-256-105.5-378.5T475-20zm-53 368q0-43 11-62.5t42-19.5 42 19.5 11 62.5v443L422 612V348zm0 498l106 178v262q0 44-11 65t-42 21-42-20-11-64V846z"/><glyph glyph-name="one" unicode="1" horiz-adv-x="804" d="M45 295h197v940q-14-20-21-27.5t-29.5-21.5-60-19.5T37 1161v320q191 0 254 157h307V295h197V0H45v295z"/><glyph glyph-name="two" unicode="2" horiz-adv-x="919" d="M47 336q0 67 9.5 126.5t21.5 101 37 84 40.5 65 48.5 54 44.5 40.5 44.5 35l96 76q47 38 72 69.5t41 88 16 141.5v69q0 44-11 65t-42 21-42-20-11-64v-188H47v125q0 208 110 321t308 113q196 0 307-120.5T883 1188q0-302-232-500l-108-92q-74-62-102.5-129T412 295h462V0H47v336z"/><glyph glyph-name="three" unicode="3" horiz-adv-x="909" d="M459-20Q249-20 143 84.5T37 416v96h356V350q0-44 12-64t44-20 43.5 21 11.5 65v242q0 44-11 65t-42 21H293v297h153q31 0 42.5 21t11.5 65v223q0 44-11.5 65t-42.5 21-42-20-11-64v-141H37v82q0 430 412 430 83 0 149.5-20.5t108-51 72-74 44.5-80 22.5-80.5 9.5-64 1-40v-55q0-140-47-221T670 850q190-83 190-361v-49q0-235-98-347.5T459-20z"/><glyph glyph-name="four" unicode="4" horiz-adv-x="913" d="M803 1638V567h69V272h-69V0H446v272H33v344l436 1022h334zM250 567h196v512z"/><glyph glyph-name="five" unicode="5" d="M606 1098q44 0 80.5-9.5t73.5-36 62-70T863 866t16-170V530q0-289-105-419.5T457-20Q254-20 148.5 97.5T43 453v59h365V350q0-44 11-64t42-20 42 21 11 65v336q0 53-10.5 76.5T465 788q-57 0-57-100H53l41 950h719v-295H416l-23-364q70 119 213 119z"/><glyph glyph-name="six" unicode="6" horiz-adv-x="937" d="M479-20q-215 0-319.5 127T55 502v547q0 224 49.5 359.5t143.5 193 246 57.5q188 0 285.5-106.5T877 1233v-47H520v43q0 44-10 65t-39 21q-30 0-40.5-20t-10.5-64v-227q73 94 196 94 275 0 275-422V469q0-243-109.5-366T479-20zm-59 370q0-44 11-64t44-20q30 0 40.5 21t10.5 65v350q0 44-10.5 65T473 788t-42.5-19.5T420 705V350z"/><glyph glyph-name="seven" unicode="7" horiz-adv-x="768" d="M14 1341v297h729v-297q-52-99-93-204.5T583.5 946 540 752t-26.5-175T501 400.5 496.5 245 496 94V0H141v94q0 146 10.5 274.5t40.5 292 95 337T449 1341H14z"/><glyph glyph-name="eight" unicode="8" horiz-adv-x="933" d="M467-20Q49-20 49 397v74q0 100 21.5 176.5t58 121T205 837t86 31q-47 6-87.5 27.5t-76 60.5-56 105.5T51 1214v50q0 192 107 293.5T467 1659t309-101.5T883 1264v-50q0-86-20.5-152.5t-56-105.5-76-60.5T643 868q46-7 86-31t76.5-68.5 58-121T885 471v-74q0-417-418-417zm-53 370q0-44 11-64t42-20 42 20.5 11 65.5v269q0 44-11 65t-42 21-42-20-11-64V350zm0 744q0-44 11-64t42-20 42 21 11 65v190q0 44-11 65t-42 21-42-20-11-64v-194z"/><glyph glyph-name="nine" unicode="9" horiz-adv-x="937" d="M459 1659q215 0 319.5-127T883 1137V590q0-224-49.5-359.5T690 37.5 444-20Q256-20 158.5 86.5T61 406v47h357v-43q0-44 10-65t39-21q30 0 40.5 20t10.5 64v227q-73-94-196-94-275 0-275 422v206q0 243 109.5 366.5T459 1659zm-47-723q0-44 10.5-65t42.5-21 42.5 20 10.5 64v354q0 44-11 64t-44 20q-30 0-40.5-21t-10.5-65V936z"/><glyph glyph-name="colon" unicode=":" horiz-adv-x="450" d="M227 788q-78 0-132 51T41 971q0 84 53.5 135t132.5 51 131-51 52-135q0-82-52.5-132.5T227 788zM41 162q0 84 53.5 135T227 348t131-51 52-135q0-82-52.5-132T227-20q-79 0-132.5 50.5T41 162z"/><glyph glyph-name="semicolon" unicode=";" horiz-adv-x="454" d="M227 788q-78 0-132 51T41 971q0 84 53.5 135t132.5 51 131-51 52-135q0-82-52.5-132.5T227 788zM43 162q0 85 52.5 135.5T229 348q90 0 138.5-60.5T416 125q0-116-86.5-227T90-287v160q84 18 146 62t88 114q-27-35-55.5-52T197-20q-65 0-109.5 47.5T43 162z"/><glyph glyph-name="less" unicode="&lt;" horiz-adv-x="927" d="M35 852l839 326v-103L178 811l696-264V444L35 770v82z"/><glyph glyph-name="equal" unicode="=" horiz-adv-x="942" d="M51 956h840v-86H51v86zm0-290v86h840v-86H51z"/><glyph glyph-name="greater" unicode="&gt;" horiz-adv-x="927" d="M893 770L53 444v103l697 264-697 264v103l840-326v-82z"/><glyph glyph-name="question" unicode="?" horiz-adv-x="870" d="M434 1659q194 0 305-109t111-293q0-77-20.5-142.5t-51.5-109-67.5-94.5-67.5-98.5-51.5-121T571 530v-18H276v39q0 100 15.5 182t39 132.5 51 100.5 51 88 39 93 15.5 119q0 62-10.5 84t-42.5 22q-31 0-42-20t-11-64v-141H18v49q0 230 107.5 346.5T434 1659zM238 162q0 84 53.5 135T424 348q78 0 130-51t52-135q0-82-52-132T424-20q-79 0-132.5 50.5T238 162z"/><glyph glyph-name="at" unicode="@" horiz-adv-x="1191" d="M692-74q-316 0-487.5 190.5T33 698q0 157 32 285.5t87.5 216T285 1347t164 87.5 184 27.5q99 0 177.5-24t144.5-79.5 110-143.5 68-220.5 24-306.5q0-120-10-203.5T1113 335t-68.5-98T934 205q-68 0-119 36.5T737 342q-61-137-200-137-130 0-209.5 129T248 688t79.5 354T537 1171q113 0 174-102v82h204V481q0-110 8.5-151t39.5-41q92 0 92 399 0 160-18.5 279.5T984 1165t-87 126-115.5 67.5T637 1378q-80 0-152-23.5T348.5 1279 237 1149.5 162.5 956 135 698q0-181 39.5-314.5T289 169 464.5 49 694 10q174 0 326 64v-84Q864-74 692-74zM453 688q0-154 28.5-228.5T592 385q18 0 32.5 3t25.5 11 20 15.5 15.5 24 11 28 7 35 4 38.5 2.5 45.5 1 48V688q0 58-.5 88.5t-4 72-11 62-20.5 42-33.5 30T592 991q-82 0-110.5-74.5T453 688z"/><glyph glyph-name="A" unicode="A" horiz-adv-x="886" d="M0 0l197 1638h493L887 0H524l-14 244H377L362 0H0zm393 541h99l-41 714-5 52h-8l-4-52z"/><glyph glyph-name="B" unicode="B" horiz-adv-x="909" d="M51 0v1638h418q92 0 164-23t117.5-61.5 75-94 41.5-116 12-131.5v-38q0-130-51.5-204.5T676 858q207-84 207-346v-35q0-239-91-358T481 0H51zm357 297h26q48 0 66 20t18 78v195q0 58-18 78t-66 20h-26V297zm0 688h22q48 0 66 20t18 78v160q0 57-17.5 77.5T432 1341h-24V985z"/><glyph glyph-name="C" unicode="C" horiz-adv-x="905" d="M459-20Q41-20 41 481v676q0 502 418 502t418-502V973H512v315q0 47-12 65.5t-41 18.5-41-18.5-12-65.5V348q0-46 12-64t41-18 41 18 12 64v318h365V481q0-501-418-501z"/><glyph glyph-name="D" unicode="D" d="M51 0v1638h377q134 0 220-22.5t138-77.5 72.5-136.5T879 1192V446q0-126-20.5-207.5t-72.5-137T648 23 428 0H51zm357 266h26q46 0 63 21t17 78v909q0 58-18 78t-66 20h-22V266z"/><glyph glyph-name="E" unicode="E" horiz-adv-x="741" d="M51 0v1638h656v-297H408V967h278V672H408V297h299V0H51z"/><glyph glyph-name="F" unicode="F" horiz-adv-x="731" d="M51 0v1638h656v-297H408V885h299V590H408V0H51z"/><glyph glyph-name="G" unicode="G" d="M410-20q-167 0-268 121.5T41 457v700q0 502 418 502t418-502V958H512v330q0 47-12 65.5t-41 18.5-41-18.5-12-65.5V348q0-45 12-63.5t41-18.5 41 18.5 12 61.5v238h-53v272h418V0H733l-49 100Q573-20 410-20z"/><glyph glyph-name="H" unicode="H" d="M514 0v672H408V0H51v1638h357V967h106v671h356V0H514z"/><glyph glyph-name="I" unicode="I" horiz-adv-x="458" d="M51 0v1638h357V0H51z"/><glyph glyph-name="J" unicode="J" horiz-adv-x="894" d="M430-20Q12-20 12 481v88h365V348q0-46 12-64t41-18 41 18 12 64v1290h365V481q0-501-418-501z"/><glyph glyph-name="K" unicode="K" horiz-adv-x="913" d="M551 0L436 659h-28V0H51v1638h357V979h28l115 659h367L743 819 918 0H551z"/><glyph glyph-name="L" unicode="L" horiz-adv-x="731" d="M51 0v1638h357V297h307V0H51z"/><glyph glyph-name="M" unicode="M" horiz-adv-x="1150" d="M51 0v1638h398l126-796 127 796h398V0H784v780L645 0H506L367 780V0H51z"/><glyph glyph-name="N" unicode="N" horiz-adv-x="935" d="M51 0v1638h316l202-782v782h316V0H569L367 784V0H51z"/><glyph glyph-name="O" unicode="O" horiz-adv-x="917" d="M459-20q-207 0-312.5 122.5T41 481v676q0 502 418 502t418-502V481q0-256-105.5-378.5T459-20zm-53 368q0-43 11-62.5t42-19.5 42 19.5 11 62.5v938q0 44-11 65t-42 21-42-20-11-64V348z"/><glyph glyph-name="P" unicode="P" horiz-adv-x="901" d="M51 0v1638h357q182 0 283-48t146.5-161 45.5-317v-61q0-152-23.5-250.5T779 639t-146-89-225-26V0H51zm357 791h55q55 0 55 94v393q0 94-55 94h-55V791z"/><glyph glyph-name="Q" unicode="Q" horiz-adv-x="917" d="M459 266q31 0 42 19.5t11 62.5v938q0 44-11 65t-42 21-42-20-11-64V348q0-43 11-62.5t42-19.5zM41 481v676q0 502 418 502t418-502V481q0-441-324-495 118-16 233-84v-260q-138 75-241.5 106T303-217V0h2Q41 81 41 481z"/><glyph glyph-name="R" unicode="R" horiz-adv-x="917" d="M541 0q-23 29-23 145v381q0 95-55 95h-55V0H51v1638h410q118 0 195-20t129.5-69.5 75-130.5 22.5-206v-22q0-141-20.5-225T801 837.5 686 766q58-22 98-55.5t61-74.5 29.5-83 8.5-92V145q0-95 22-145H541zM408 887h55q55 0 55 94v297q0 94-55 94h-55V887z"/><glyph glyph-name="S" unicode="S" horiz-adv-x="880" d="M440-20Q25-20 25 479v94h364V348q0-46 12-64t41-18 41.5 18.5T496 348v125q0 59-19 94.5T416 637L256 768Q139 865 81 966.5T23 1219q0 209 108 324.5T442 1659q194 0 302-109t108-305v-137H489v182q0 46-12 64t-41 18q-28 0-39.5-18.5T385 1290v-84q0-59 19-94.5t61-69.5l158-129q49-40 77.5-66.5t63-69.5 53-86 31-105T860 449q0-234-106-351.5T440-20z"/><glyph glyph-name="T" unicode="T" horiz-adv-x="831" d="M238 0v1341H16v297h799v-297H594V0H238z"/><glyph glyph-name="U" unicode="U" horiz-adv-x="929" d="M465-20Q256-20 151.5 94.5T47 461v1177h365V348q0-43 11-62.5t42-19.5 42 19.5 11 62.5v1290h365V461q0-252-104.5-366.5T465-20z"/><glyph glyph-name="V" unicode="V" horiz-adv-x="886" d="M197 0L0 1638h362l74-1255 4-51h9l4 51 71 1255h363L690 0H197z"/><glyph glyph-name="W" unicode="W" horiz-adv-x="1497" d="M190 0L2 1638h354l66-1155 4-51h8l4 51 103 1155h417l103-1155 4-51h8l4 51 64 1155h354L1307 0H829l-71 1069-4 51h-9l-4-51L670 0H190z"/><glyph glyph-name="X" unicode="X" horiz-adv-x="880" d="M-14 0l247 825-239 813h348l107-510 106 510h336L647 823 891 0H543L432 522 322 0H-14z"/><glyph glyph-name="Y" unicode="Y" horiz-adv-x="856" d="M250 0v573L-31 1638h365l86-591 4-52h8l4 52 86 591h365L606 573V0H250z"/><glyph glyph-name="Z" unicode="Z" horiz-adv-x="772" d="M23 0v297l364 1044H23v297h727v-297L385 297h365V0H23z"/><glyph glyph-name="bracketleft" unicode="[" horiz-adv-x="425" d="M430 1714v-86H166V-215h264v-86H63v2015h367z"/><glyph glyph-name="backslash" unicode="\" horiz-adv-x="749" d="M18 1638h105L731 0H627z"/><glyph glyph-name="bracketright" unicode="]" horiz-adv-x="425" d="M-4-301v86h264v1843H-4v86h366V-301H-4z"/><glyph glyph-name="asciicircum" unicode="^" horiz-adv-x="684" d="M555 1024l-213 524-213-524H18l250 614h148l250-614H555z"/><glyph glyph-name="underscore" unicode="_" horiz-adv-x="1187" d="M0-139h1188v-107H0v107z"/><glyph glyph-name="grave" unicode="`" horiz-adv-x="993" d="M788 1532l-20-78-563 150 20 79z"/><glyph glyph-name="a" unicode="a" horiz-adv-x="872" d="M498 0v168Q427-20 260-20 145-20 77.5 64T10 319q0 70 18.5 133.5t45 107.5 66.5 85 70.5 64 68.5 47l59 37q41 25 59.5 38.5t44 36T477 914t10 53v26q0 36-11.5 54t-43.5 18-43.5-18-11.5-54V879H33v36q0 229 97.5 333T434 1352t301.5-104.5T831 915V0H498zM360 391q0-90 60-90 40 0 53.5 45.5T487 500v110q-5-18-45-63l-30-33q-52-55-52-123z"/><glyph glyph-name="b" unicode="b" horiz-adv-x="888" d="M47 0v1638h344v-458q37 78 92.5 125t147.5 47q219 0 219-328V270q0-290-221-290-79 0-129 30t-109 94V0H47zm344 352q0-44 11-64t42-20 42.5 21 11.5 65v621q0 44-11.5 65t-42.5 21-42-20-11-64V352z"/><glyph glyph-name="c" unicode="c" horiz-adv-x="862" d="M492 963q0 58-10.5 80t-43.5 22q-34 0-43.5-21.5T385 963V369q0-59 9.5-81t43.5-22q33 0 43.5 22.5T492 369v153h352v-65q0-251-103-364T438-20Q237-20 135 93T33 457v417q0 251 102 364.5T438 1352q200 0 303-113.5T844 874v-65H492v154z"/><glyph glyph-name="d" unicode="d" horiz-adv-x="888" d="M498 1638h344V0H498v152q-37-78-92.5-125T258-20Q39-20 39 307v754q0 291 221 291 79 0 129-30.5t109-94.5v411zM391 356q0-44 11-65t42-21 42.5 20 11.5 64v625q0 44-11.5 64t-42.5 20-42-21-11-65V356z"/><glyph glyph-name="e" unicode="e" horiz-adv-x="876" d="M33 457v417q0 251 102 364.5T438 1352q200 0 303-113.5T844 874V571H385V369q0-59 9.5-81t43.5-22q33 0 43.5 22.5T492 369v120h352v-32q0-251-103-364T438-20Q237-20 135 93T33 457zm352 362h107v144q0 58-10.5 80t-43.5 22q-34 0-43.5-21.5T385 963V819z"/><glyph glyph-name="f" unicode="f" horiz-adv-x="671" d="M4 1331h117q1 77 16 132.5t52 102 107 70 173 23.5q96 0 195-21v-249q-24-3-56-3-78 0-110.5-17.5T465 1296v-57q18 33 40.5 53t52 28 49.5 9.5 57 1.5v-297H465V0H121v1034H4v297z"/><glyph glyph-name="g" unicode="g" horiz-adv-x="886" d="M498 20v132q-37-78-92.5-125T258-20Q39-20 39 307v754q0 291 221 291 79 0 129-30.5t109-94.5v104h344V23q0-102-8-168.5t-29-121-60.5-84-100-44.5T494-410H113v297h286q26 0 40.5 3t30 15.5 22 40.5 6.5 74zM391 356q0-44 11-65t42-21 42.5 20 11.5 64v625q0 44-11.5 64t-42.5 20-42-21-11-65V356z"/><glyph glyph-name="h" unicode="h" horiz-adv-x="882" d="M391 1638v-456q29 68 88 119t146 51q55 0 95-19.5t63-50.5 36-81 17-98.5 4-115.5V0H498v963q0 58-10.5 80t-43.5 22q-32 0-42.5-22T391 963V0H47v1638h344z"/><glyph glyph-name="i" unicode="i" horiz-adv-x="438" d="M47 1331h344V0H47v1331zm-22 193q0 135 194 135 195 0 195-135 0-131-195-131-194 0-194 131z"/><glyph glyph-name="j" unicode="j" horiz-adv-x="438" d="M47 23v1308h344V27q0-86-5-145.5T366.5-230 328-313.5 264.5-368 171-400.5 41-410h-182v297h86q27 0 42.5 3.5t31 16 22 41T47 23zM25 1524q0 135 194 135 195 0 195-135 0-131-195-131-194 0-194 131z"/><glyph glyph-name="k" unicode="k" horiz-adv-x="870" d="M47 1638h344V823h29l94 508h358L713 668 872 0H514l-98 528h-25V0H47v1638z"/><glyph glyph-name="l" unicode="l" horiz-adv-x="438" d="M47 1638h344V0H47v1638z"/><glyph glyph-name="m" unicode="m" horiz-adv-x="1331" d="M946 963q0 57-10.5 79.5T893 1065q-33 0-43-22t-10-80V0H498v963q0 57-11 79.5t-43 22.5q-33 0-43-22t-10-80V0H47v1331h344v-149q29 68 88 119t146 51q163 0 202-172 95 172 246 172 55 0 95-19.5t63-50.5 36-81 17-98.5 4-115.5V0H946v963z"/><glyph glyph-name="n" unicode="n" horiz-adv-x="880" d="M389 1331v-149q29 68 88 119t146 51q55 0 95-19.5t63-50.5 36-81 17-98.5 4-115.5V0H496v963q0 58-10.5 80t-43.5 22q-32 0-42.5-22T389 963V0H47v1331h342z"/><glyph glyph-name="o" unicode="o" horiz-adv-x="876" d="M438-20Q237-20 135 93T33 457v417q0 251 102 364.5T438 1352t303.5-113.5T844 874V457q0-251-102.5-364T438-20zm-53 389q0-58 10.5-80.5T438 266q33 0 43.5 22.5T492 369v594q0 58-10.5 80t-43.5 22q-32 0-42.5-22T385 963V369z"/><glyph glyph-name="p" unicode="p" horiz-adv-x="888" d="M391 1331v-151q37 78 92.5 125t147.5 47q219 0 219-328V270q0-290-221-290-79 0-129 30t-109 94v-514H47v1741h344zm0-979q0-44 11-64t42-20 42.5 21 11.5 65v621q0 44-11.5 65t-42.5 21-42-20-11-64V352z"/><glyph glyph-name="q" unicode="q" horiz-adv-x="886" d="M498-410v562q-37-78-92.5-125T258-20Q39-20 39 307v754q0 291 221 291 79 0 129-30.5t109-94.5v104h344V-410H498zM391 356q0-44 11-65t42-21 42.5 20 11.5 64v625q0 44-11.5 64t-42.5 20-42-21-11-65V356z"/><glyph glyph-name="r" unicode="r" horiz-adv-x="849" d="M391 1331v-145q34 79 92.5 122.5T616 1352q226 0 226-332V838H498v86q0 87-10.5 115t-43.5 28q-32 0-42.5-22T391 965V0H47v1331h344z"/><glyph glyph-name="s" unicode="s" horiz-adv-x="851" d="M631 741q71-49 112-93t66-109.5T834 385q0-188-101-296.5T422-20Q337-20 267.5-.5T141 61 52 178.5 20 358v115h355V367q0-56 9.5-78.5T426 266q33 0 44 23t11 78q0 46-20 78t-101 87l-137 95Q121 696 69.5 772T18 971q0 169 102.5 275T430 1352q186 0 292.5-89.5T829 995v-94H477v86q0 38-11 58t-42 20-42-20-11-58q0-35 13-59.5t54-53.5z"/><glyph glyph-name="t" unicode="t" horiz-adv-x="684" d="M662 1331v-297H463V436q0-87 27.5-113t87.5-26h84V0H422q-90 0-149 20.5T180 87t-47.5 109.5T119 356v678H2v297q43 12 71.5 44t41.5 78 17 88.5 3 96.5h346q0-274-141-307h322z"/><glyph glyph-name="u" unicode="u" horiz-adv-x="880" d="M492 0v150q-29-68-88-119T258-20q-55 0-95 19.5T100 50t-36 81-17 98-4 115v987h342V369q0-58 10.5-80.5T438 266q33 0 43.5 22.5T492 369v962h344V0H492z"/><glyph glyph-name="v" unicode="v" horiz-adv-x="821" d="M-6 1331h352l66-930 63 930h352L645 0H176z"/><glyph glyph-name="w" unicode="w" horiz-adv-x="1267" d="M-4 1331h342l63-950 78 950h309l80-952 64 952h340L1106 0H698l-65 946L549 0H162z"/><glyph glyph-name="x" unicode="x" horiz-adv-x="808" d="M-20 0l219 692-201 639h354l64-344 63 344h332L610 692 829 0H475l-82 397L311 0H-20z"/><glyph glyph-name="y" unicode="y" horiz-adv-x="878" d="M489 20v130q-29-68-87.5-119T256-20q-55 0-95 19.5T98 50t-36 81-17 98-4 115v987h342V369q0-58 10.5-80.5T436 266t42.5 22.5T489 369v962h345V20q0-90-5.5-151.5t-20-112.5-38-80.5-63.5-50-92-28-126-7.5H86v297h309q24 0 37.5 3T461-94.5 482.5-54t6.5 74z"/><glyph glyph-name="z" unicode="z" horiz-adv-x="782" d="M23 1331h737v-297L391 297h363V0H29v297l364 737H23v297z"/><glyph glyph-name="braceleft" unicode="{" horiz-adv-x="432" d="M29 815q80 0 80 178v371q0 184 59.5 267t185.5 83h80v-92h-78q-81 0-113-62.5T211 1372V999q0-108-18.5-160T121 754v-90q53-33 71.5-85.5T211 418V45q0-125 32-187.5T356-205h78v-92h-80q-126 0-185.5 83T109 53v371q0 178-80 178v213z"/><glyph glyph-name="bar" unicode="|" horiz-adv-x="233" d="M66-20v1679h102V-20H66z"/><glyph glyph-name="braceright" unicode="}" horiz-adv-x="432" d="M403 602q-79 0-79-178V53q0-184-60-267T78-297H-2v92h78q81 0 113 62.5T221 45v373q0 108 18.5 160.5T311 664v90q-53 33-71.5 85T221 999v373q0 125-32 187.5T76 1622H-2v92h80q126 0 186-83t60-267V993q0-178 79-178V602z"/><glyph glyph-name="asciitilde" unicode="~" d="M43 727q0 69 19.5 116.5t53 69.5 65 30.5T248 952q67 0 131.5-29t107-63 94.5-63 97-29q47 0 74.5 31.5T780 891h103q0-69-19.5-116.5t-53-69.5-65-30.5T678 666q-67 0-131.5 29t-107 63-94.5 63-97 29q-47 0-75-31.5T145 727H43z"/><glyph glyph-name="uni00A0" horiz-adv-x="409"/><glyph glyph-name="exclamdown" unicode="¡" horiz-adv-x="450" d="M397-307H55L80 819h293zM41 1169q0 82 52 132.5t130 50.5q79 0 133-51t54-132q0-84-54-135t-133-51q-78 0-130 51t-52 135z"/><glyph glyph-name="cent" unicode="¢" horiz-adv-x="991" d="M438-143v278q-189 14-287 128.5T53 610v418q0 232 98 346.5T438 1503v279h123v-279q385-29 385-475v-65H635v133q0 94-74 116V426q74 22 74 117v133h311v-66q0-446-385-475v-278H438zm-73 686q0-51 17.5-78.5T438 426v786q-38-11-55.5-38t-17.5-78V543z"/><glyph glyph-name="sterling" unicode="£" horiz-adv-x="946" d="M29 227q94 63 135 133t41 175q0 23-4 73H29v123h147q-6 21-23 81t-26 95-20.5 91-17 112.5T84 1227q0 215 103 323.5T487 1659q205 0 313.5-118T909 1184v-156H545v197q0 44-1 64t-5 43.5-13.5 31.5-25.5 8q-13 0-21.5-3t-14.5-13-9-18-4.5-28.5-1.5-34V1231q0-103 18.5-193.5t50-182.5T557 731h234V608H569q-6-97-43-172.5T416 287h493V0H29v227z"/><glyph glyph-name="currency" unicode="¤" horiz-adv-x="704" d="M352 418q-82 0-141 47L102 313l-71 72 112 154Q74 649 74 819q0 171 69 281L31 1253l71 72 109-151q59 47 141 47 81 0 142-45l108 149 72-72-113-155q70-112 70-279 0-168-70-280l113-154-72-72-108 152q-59-47-142-47zM176 819q0-139 44-224t132-85 132 85 44 224-44 224-132 85-132-85-44-224z"/><glyph glyph-name="yen" unicode="¥" horiz-adv-x="954" d="M96 571v82h183L18 1638h365l86-591 4-52h8l4 52 86 591h365L676 653h182v-82H655v-82h203v-81H655V0H299v408H96v81h203v82H96z"/><glyph glyph-name="brokenbar" unicode="¦" horiz-adv-x="233" d="M66 1004v655h102v-655H66zM66-20v655h102V-20H66z"/><glyph glyph-name="section" unicode="§" horiz-adv-x="784" d="M420-20Q241-20 151 81T63 365h105q-3-148 63.5-226T422 61q99 0 158 51t59 158q0 134-111 172L217 549q-106 37-145 90.5T33 764q0 148 125 190-115 73-115 213 0 149 92 221t240 72q349 0 346-385H616q6 303-243 303-100 0-164-52t-64-155q0-131 111-170l313-106q96-32 139.5-85T752 676q0-147-119-189 108-72 108-213 0-152-87.5-223T420-20zM135 768q0-54 27-86t84-51l237-78q41-15 70-11t47.5 15.5 29.5 33 15 41 4 40.5q0 55-27 88.5T539 813l-240 80q-49 13-81 7.5T167.5 870 142 820t-7-52z"/><glyph glyph-name="dieresis" unicode="¨" horiz-adv-x="913" d="M645 1395q-66 0-109.5 33.5T492 1526q0 67 43 100t110 33q64 0 109-33.5t45-99.5q0-64-45-97.5T645 1395zm-530 131q0 67 43 100t110 33q64 0 109-33.5t45-99.5q0-64-45-97.5T268 1395q-66 0-109.5 33.5T115 1526z"/><glyph glyph-name="copyright" unicode="©" horiz-adv-x="1499" d="M750-20q-156 0-278 45.5t-200.5 122T142 333 70 561.5 49 819t21 257.5 72 228.5 129.5 186T472 1613.5t278 45.5 278-45.5 200-122.5 129-186 72-228 21-258-21-258-72-228-129-185.5-200-122T750-20zM152 819q0-105 11-193.5t36.5-174 71-151 110-115.5T539 108.5 750 82q135 0 239 39t171 105 110 161.5 60.5 201T1348 819t-17.5 230.5-60.5 201-110 161.5-171 105-239 39-239-39-171-105-110-161.5-60.5-201T152 819zm122 2q0 101 14.5 187t50 164 90 132.5T568 1391t194 32q101 0 179.5-29t127-76 81-114 46.5-135 18-147h-202q-18 140-36 188-36 100-131 124-35 9-79 9-70 0-121.5-20.5t-83-55.5-50.5-90-25.5-115.5T479 821q0-82 6.5-142.5t25-116.5 49.5-91 82-55.5T762 395q59 0 102 17t66.5 41.5 39.5 68 22.5 78.5 14.5 93l3 24h202q-5-78-17-142t-43.5-133.5-78.5-117T946 246t-184-31q-109 0-193.5 32T429 333.5t-90.5 133-50 165T274 821z"/><glyph glyph-name="ordfeminine" unicode="ª" horiz-adv-x="573" d="M317 848v100q-43-112-141-112-69 0-109 51t-40 153q0 160 161 263l35 22q33 21 48.5 32.5t27.5 29 12 38.5v17q0 39-30 39-27 0-27-37v-70H41v21q0 139 58.5 201.5T283 1659q124 0 182.5-63t58.5-203V848H317zm-73 237q0-49 32-49 21 0 28 25t7 86v61q-2-6-10.5-16t-13.5-18l-17-21q-26-33-26-68z"/><glyph glyph-name="guillemotleft" unicode="«" horiz-adv-x="675" d="M346 268L41 625v102l305 356V920L139 676l207-244V268zm-37 357v102l305 356V920L408 676l206-244V268z"/><glyph glyph-name="logicalnot" unicode="¬" horiz-adv-x="937" d="M774 625v284H37v92h840V625H774z"/><glyph glyph-name="registered" unicode="®" horiz-adv-x="942" d="M471 733q-79 0-138 28.5T242 832t-51.5 101-25 107.5T160 1143q0 37 2.5 71.5t11 77 22 77.5 37.5 70 55.5 59 78.5 39 104 15 104-15 78.5-39 55.5-59 37.5-70 22-77.5 11-77 2.5-71.5q0-54-5.5-102.5t-25-107.5T700 832t-91-70.5T471 733zM45 1143q0-71 10.5-137.5T95 868t74.5-122.5 123-85T471 627t178.5 33.5 123 85T847 868t39.5 137.5T897 1143t-10.5 137.5T847 1418t-74.5 122.5-123 85T471 1659t-178.5-33.5-123-85T95 1418t-39.5-137.5T45 1143zm221-277v564h191q233 0 233-150 0-108-108-158 56-15 81-49.5t25-95.5v-51q0-50 8-60H535q-11 14-11 60v51q0 40-16 57t-51 17h-27V866H266zm164 328h27q69 0 69 47 0 45-69 45h-27v-92z"/><glyph glyph-name="macron" unicode="¯" horiz-adv-x="993" d="M205 1528v82h583v-82H205z"/><glyph glyph-name="degree" unicode="°" horiz-adv-x="577" d="M289 1137q-148 0-148 215t148 215q147 0 147-215t-147-215zM39 1352q0-61 13.5-114t41.5-98 78-70.5 117-25.5 117 25.5 78 70.5 41.5 98 13.5 114-13.5 114-41.5 97.5-78 70-117 25.5-117-25.5-78-70-41.5-97.5T39 1352z"/><glyph glyph-name="plusminus" unicode="±" horiz-adv-x="913" d="M508 1231V858h369v-92H508V481h369v-92H37v92h369v285H37v92h369v373h102z"/><glyph glyph-name="uni00B2" unicode="²" horiz-adv-x="468" d="M29 834q0 199 141 274l31 16q35 19 49 52t14 98v35q0 24-5 33.5t-21 9.5q-27 0-27-41v-94H29v61q0 104 55 160.5t154 56.5 153.5-59.5T446 1260q0-178-124-261l-54-34q-37-24-47-57t-10-95h231V666H29v168z"/><glyph glyph-name="uni00B3" unicode="³" horiz-adv-x="462" d="M233 655q-105 0-157.5 52T23 874v48h178v-80q0-23 6-33t22-10q27 0 27 43v121q0 23-5.5 33t-21.5 10h-77v149h75q27 0 27 43v111q0 23-5.5 33t-21.5 10q-26 0-26-41v-72H23v41q0 215 206 215 57 0 98-19.5t60.5-44T418 1373t12.5-50.5 1.5-32.5v-26q0-70-23.5-110.5T338 1092q96-46 96-181v-24q0-119-49-175.5T233 655z"/><glyph glyph-name="acute" unicode="´" horiz-adv-x="993" d="M225 1454l-20 78 563 151 20-79z"/><glyph glyph-name="paragraph" unicode="¶" horiz-adv-x="669" d="M498 1638h102V0H498v1638zM20 1282q0 113 16 184t53 108.5 83.5 50.5 120.5 13h102V0H293v926q-74 0-120.5 13T89 989.5 36 1098t-16 184z"/><glyph glyph-name="periodcentered" unicode="·" horiz-adv-x="409" d="M207 496q-79 0-133 50.5T20 678q0 84 54 135t133 51q78 0 130-51t52-135q0-82-52-132t-130-50z"/><glyph glyph-name="cedilla" unicode="¸" horiz-adv-x="790" d="M205-328q136 0 192 13t56 55q0 46-56 55t-159-8L289 0h108l-28-119q217 18 217-133 0-62-33-98t-117-55-231-19v96z"/><glyph glyph-name="uni00B9" unicode="¹" horiz-adv-x="411" d="M27 813h98v471q-8-13-14-18.5t-28.5-12T23 1247v160q95 0 127 78h153V813h98V666H27v147z"/><glyph glyph-name="ordmasculine" unicode="º" horiz-adv-x="561" d="M281 836q-123 0-184.5 68T35 1124v246q0 152 62 220.5t184 68.5 183.5-68 61.5-221v-246q0-153-61.5-220.5T281 836zm-27 233q0-22 1-31t7-16.5 19-7.5 19 8 6.5 16.5.5 30.5v356q0 22-.5 30.5t-6.5 17-19 8.5-19-8-7-17-1-31v-356z"/><glyph glyph-name="guillemotright" unicode="»" horiz-adv-x="675" d="M330 268v164l207 244-207 244v163l305-356V625zm-269 0v164l207 244L61 920v163l306-356V625z"/><glyph glyph-name="onequarter" unicode="¼" horiz-adv-x="1050" d="M33 967h98v471q-8-13-14-18.5t-28.5-12T29 1401v160q95 0 127 77h153V967h99V819H33v148zM162 0l608 1638h104L266 0H162zm446 137v172l219 510h166V285h35V137h-35V0H815v137H608zm109 148h98v256z"/><glyph glyph-name="onehalf" unicode="½" horiz-adv-x="1081" d="M35 967h98v471q-8-13-14-18.5t-28.5-12T31 1401v160q95 0 127 77h153V967h99V819H35v148zM164 0l608 1638h105L268 0H164zm471 0v168q0 199 141 274l31 17q35 19 49 51.5t14 97.5v35q0 24-5 33.5t-21 9.5q-27 0-27-41v-94H635v61q0 104 55 160.5T844 829t154-59.5 55-175.5q0-176-125-260l-54-35q-37-24-47-57t-10-95h232V0H635z"/><glyph glyph-name="threequarters" unicode="¾" horiz-adv-x="1087" d="M240 809q-105 0-158 52.5T29 1028v47h178v-80q0-23 6-33t23-10q16 0 21 10.5t5 32.5v121q0 24-5 33.5t-21 9.5h-78v150h75q27 0 27 43v110q0 23-5.5 33t-21.5 10q-26 0-26-41v-71H29v41q0 215 207 215 48 0 84.5-12.5t57.5-35 34.5-44 18-49 6-39.5 1.5-25v-27q0-70-23.5-110.5T344 1245q96-46 96-180v-25q0-119-48.5-175T240 809zM197 0l608 1638h104L301 0H197zm446 137v172l219 510h166V285h35V137h-35V0H850v137H643zm109 148h98v256z"/><glyph glyph-name="questiondown" unicode="¿" horiz-adv-x="870" d="M436-328q-194 0-305 109T20 74q0 77 20.5 142.5t51.5 109 67.5 94.5 67.5 98.5 51.5 121T299 801v18h295v-39q0-118-21.5-210t-53-149T457 314t-52.5-111.5T383 66q0-63 10.5-85T436-41q31 0 42 20t11 64v141h363v-49q0-230-107.5-346.5T436-328zM264 1169q0 82 52 132.5t130 50.5q79 0 133-51t54-132q0-84-54-135t-133-51q-78 0-130 51t-52 135z"/><glyph glyph-name="Agrave" unicode="À" horiz-adv-x="886" d="M0 0l197 1638h493L887 0H524l-14 244H377L362 0H0zm152 1911l20 80 563-152-20-78zM393 541h99l-41 714-5 52h-8l-4-52z"/><glyph glyph-name="Aacute" unicode="Á" horiz-adv-x="886" d="M0 0l197 1638h493L887 0H524l-14 244H377L362 0H0zm152 1839l563 152 20-80-563-150zM393 541h99l-41 714-5 52h-8l-4-52z"/><glyph glyph-name="Acircumflex" unicode="Â" horiz-adv-x="886" d="M0 0l197 1638h493L887 0H524l-14 244H377L362 0H0zm152 1761l223 230h143l217-230H602l-156 168-161-168H152zM393 541h99l-41 714-5 52h-8l-4-52z"/><glyph glyph-name="Atilde" unicode="Ã" horiz-adv-x="886" d="M0 0l197 1638h493L887 0H524l-14 244H377L362 0H0zm152 1786q0 205 163 205 44 0 77.5-15t53.5-37 37-44 37.5-37 44.5-15q68 0 68 123h102q0-205-164-205-44 0-77.5 15t-53.5 37-36.5 44-37 37-44.5 15q-68 0-68-123H152zM393 541h99l-41 714-5 52h-8l-4-52z"/><glyph glyph-name="Adieresis" unicode="Ä" horiz-adv-x="886" d="M0 0l197 1638h493L887 0H524l-14 244H377L362 0H0zm102 1833q0 67 43.5 100t110.5 33q64 0 109-33.5t45-99.5q0-64-45-97.5T256 1702q-66 0-110 33.5t-44 97.5zM393 541h99l-41 714-5 52h-8l-4-52zm86 1292q0 67 43.5 100t110.5 33q64 0 108.5-33.5T786 1833q0-64-44.5-97.5T633 1702q-66 0-110 33.5t-44 97.5z"/><glyph glyph-name="Aring" unicode="Å" horiz-adv-x="886" d="M0 0l197 1638h493L887 0H524l-14 244H377L362 0H0zm279 1896q0 71 49 118.5t116 47.5 116.5-47.5T610 1896t-49-118-117-47q-67 0-116 47t-49 118zm100 0q0-30 17.5-47.5T444 1831t48 17.5 18 47.5-18 48-48 18-47.5-18-17.5-48zm14-1355h99l-41 714-5 52h-8l-4-52z"/><glyph glyph-name="AE" unicode="Æ" horiz-adv-x="1230" d="M-16 0l260 1638h954v-297H932V967h242V672H932V297h266V0H575v285H381L338 0H-16zm440 580h151v761h-38z"/><glyph glyph-name="Ccedilla" unicode="Ç" horiz-adv-x="905" d="M319-328q136 0 192 13t56 55q0 46-56 55t-159-8l47 195Q41 17 41 481v676q0 502 418 502t418-502V973H512v315q0 47-12 65.5t-41 18.5-41-18.5-12-65.5V348q0-46 12-64t41-18 41 18 12 64v318h365V481q0-471-369-499l-25-101q217 18 217-133 0-62-33-98t-117-55-231-19v96z"/><glyph glyph-name="Egrave" unicode="È" horiz-adv-x="741" d="M51 0v1638h656v-297H408V967h278V672H408V297h299V0H51zm35 1911l20 80 564-152-21-78z"/><glyph glyph-name="Eacute" unicode="É" horiz-adv-x="741" d="M51 0v1638h656v-297H408V967h278V672H408V297h299V0H51zm35 1839l563 152 21-80-564-150z"/><glyph glyph-name="Ecircumflex" unicode="Ê" horiz-adv-x="741" d="M51 0v1638h656v-297H408V967h278V672H408V297h299V0H51zm35 1761l223 230h144l217-230H537l-156 168-162-168H86z"/><glyph glyph-name="Edieresis" unicode="Ë" horiz-adv-x="741" d="M51 0v1638h656v-297H408V967h278V672H408V297h299V0H51zM37 1833q0 67 43 100t110 33q64 0 109-33.5t45-99.5q0-64-45-97.5T190 1702q-66 0-109.5 33.5T37 1833zm377 0q0 67 43 100t110 33q64 0 109-33.5t45-99.5q0-64-45-97.5T567 1702q-66 0-109.5 33.5T414 1833z"/><glyph glyph-name="Igrave" unicode="Ì" horiz-adv-x="458" d="M51 0v1638h357V0H51zM-63 1911l20 80 563-152-20-78z"/><glyph glyph-name="Iacute" unicode="Í" horiz-adv-x="458" d="M51 0v1638h357V0H51zM-63 1839l563 152 20-80-563-150z"/><glyph glyph-name="Icircumflex" unicode="Î" horiz-adv-x="458" d="M51 0v1638h357V0H51zM-63 1761l223 230h143l217-230H387l-156 168-161-168H-63z"/><glyph glyph-name="Idieresis" unicode="Ï" horiz-adv-x="458" d="M51 0v1638h357V0H51zm-164 1833q0 67 43.5 100T41 1966q64 0 109-33.5t45-99.5q0-64-45-97.5T41 1702q-66 0-110 33.5t-44 97.5zm377 0q0 67 43.5 100t110.5 33q64 0 108.5-33.5T571 1833q0-64-44.5-97.5T418 1702q-66 0-110 33.5t-44 97.5z"/><glyph glyph-name="Eth" unicode="Ð" horiz-adv-x="937" d="M68 0v737H8v164h60v737h376q134 0 220-22.5t138-77.5 72.5-136.5T895 1192V446q0-126-20.5-207.5t-72.5-137T664 23 444 0H68zm356 266h27q46 0 62.5 21t16.5 78v909q0 58-18 78t-66 20h-22V901h74V737h-74V266z"/><glyph glyph-name="Ntilde" unicode="Ñ" horiz-adv-x="935" d="M51 0v1638h316l202-782v782h316V0H569L367 784V0H51zm125 1786q0 205 164 205 44 0 77.5-15t53.5-37 37-44 37.5-37 44.5-15q67 0 67 123h103q0-205-164-205-44 0-77.5 15t-53.5 37-37 44-37.5 37-44.5 15q-67 0-67-123H176z"/><glyph glyph-name="Ograve" unicode="Ò" horiz-adv-x="917" d="M459-20q-207 0-312.5 122.5T41 481v676q0 502 418 502t418-502V481q0-256-105.5-378.5T459-20zM166 1911l20 80 564-152-21-78zM406 348q0-43 11-62.5t42-19.5 42 19.5 11 62.5v938q0 44-11 65t-42 21-42-20-11-64V348z"/><glyph glyph-name="Oacute" unicode="Ó" horiz-adv-x="917" d="M459-20q-207 0-312.5 122.5T41 481v676q0 502 418 502t418-502V481q0-256-105.5-378.5T459-20zM166 1839l563 152 21-80-564-150zM406 348q0-43 11-62.5t42-19.5 42 19.5 11 62.5v938q0 44-11 65t-42 21-42-20-11-64V348z"/><glyph glyph-name="Ocircumflex" unicode="Ô" horiz-adv-x="917" d="M459-20q-207 0-312.5 122.5T41 481v676q0 502 418 502t418-502V481q0-256-105.5-378.5T459-20zM166 1761l223 230h143l218-230H616l-155 168-162-168H166zM406 348q0-43 11-62.5t42-19.5 42 19.5 11 62.5v938q0 44-11 65t-42 21-42-20-11-64V348z"/><glyph glyph-name="Otilde" unicode="Õ" horiz-adv-x="917" d="M459-20q-207 0-312.5 122.5T41 481v676q0 502 418 502t418-502V481q0-256-105.5-378.5T459-20zM166 1786q0 205 164 205 44 0 77.5-15t53.5-37 37-44 37.5-37 44.5-15q67 0 67 123h103q0-205-164-205-44 0-77.5 15t-53.5 37-37 44-37.5 37-44.5 15q-68 0-68-123H166zM406 348q0-43 11-62.5t42-19.5 42 19.5 11 62.5v938q0 44-11 65t-42 21-42-20-11-64V348z"/><glyph glyph-name="Odieresis" unicode="Ö" horiz-adv-x="917" d="M459-20q-207 0-312.5 122.5T41 481v676q0 502 418 502t418-502V481q0-256-105.5-378.5T459-20zM117 1833q0 67 43 100t110 33q64 0 109-33.5t45-99.5q0-64-45-97.5T270 1702q-66 0-109.5 33.5T117 1833zM406 348q0-43 11-62.5t42-19.5 42 19.5 11 62.5v938q0 44-11 65t-42 21-42-20-11-64V348zm88 1485q0 67 43 100t110 33q64 0 109-33.5t45-99.5q0-64-45-97.5T647 1702q-66 0-109.5 33.5T494 1833z"/><glyph glyph-name="multiply" unicode="×" horiz-adv-x="724" d="M96 1139l266-267 269 269 61-62-268-268 266-266-61-62-267 267L98 485l-61 62 264 264-266 266z"/><glyph glyph-name="Oslash" unicode="Ø" horiz-adv-x="917" d="M459-20q-138 0-230 53l-20-53H96l47 126Q41 229 41 481v676q0 502 418 502 137 0 229-53l21 53h112l-47-127q103-124 103-375V481q0-256-105.5-378.5T459-20zm-53 368q0-43 11-62.5t42-19.5 42 19.5 11 62.5v463L406 518V348zm0 479l106 293v166q0 44-11 65t-42 21-42-20-11-64V827z"/><glyph glyph-name="Ugrave" unicode="Ù" horiz-adv-x="929" d="M465-20Q256-20 151.5 94.5T47 461v1177h365V348q0-43 11-62.5t42-19.5 42 19.5 11 62.5v1290h365V461q0-252-104.5-366.5T465-20zM172 1911l21 80 563-152-21-78z"/><glyph glyph-name="Uacute" unicode="Ú" horiz-adv-x="929" d="M465-20Q256-20 151.5 94.5T47 461v1177h365V348q0-43 11-62.5t42-19.5 42 19.5 11 62.5v1290h365V461q0-252-104.5-366.5T465-20zM172 1839l563 152 21-80-563-150z"/><glyph glyph-name="Ucircumflex" unicode="Û" horiz-adv-x="929" d="M465-20Q256-20 151.5 94.5T47 461v1177h365V348q0-43 11-62.5t42-19.5 42 19.5 11 62.5v1290h365V461q0-252-104.5-366.5T465-20zM172 1761l223 230h144l217-230H623l-156 168-162-168H172z"/><glyph glyph-name="Udieresis" unicode="Ü" horiz-adv-x="929" d="M465-20Q256-20 151.5 94.5T47 461v1177h365V348q0-43 11-62.5t42-19.5 42 19.5 11 62.5v1290h365V461q0-252-104.5-366.5T465-20zM123 1833q0 67 43 100t110 33q64 0 109-33.5t45-99.5q0-64-45-97.5T276 1702q-66 0-109.5 33.5T123 1833zm377 0q0 67 43 100t110 33q64 0 109-33.5t45-99.5q0-64-45-97.5T653 1702q-66 0-109.5 33.5T500 1833z"/><glyph glyph-name="Yacute" unicode="Ý" horiz-adv-x="856" d="M250 0v573L-31 1638h365l86-591 4-52h8l4 52 86 591h365L606 573V0H250zM135 1839l563 152 21-80-563-150z"/><glyph glyph-name="Thorn" unicode="Þ" horiz-adv-x="907" d="M51 0v1638h357v-262q182 0 283-48t146.5-160.5T883 852v-64q0-152-23.5-250.5t-80.5-161T633 288t-225-26V0H51zm357 559h53q57 0 57 96v332q0 92-57 92h-53V559z"/><glyph glyph-name="germandbls" unicode="ß" horiz-adv-x="880" d="M47 0v1264q0 194 94 294.5T442 1659q199 0 292-95t93-286v-74q0-145-37.5-225T674 868q93-32 136.5-119T854 508V399Q854 0 514 0h-86v287l27 2q30 3 39.5 23t9.5 77v217q0 56-8.5 76T461 705l-33 4v286l21 2q30 3 39.5 23.5t9.5 77.5v176q0 59-10 80.5t-44 21.5q-32 0-42.5-22t-10.5-80V0H47z"/><glyph glyph-name="agrave" unicode="à" horiz-adv-x="872" d="M498 0v168Q427-20 260-20 145-20 77.5 64T10 319q0 70 18.5 133.5t45 107.5 66.5 85 70.5 64 68.5 47l59 37q41 25 59.5 38.5t44 36T477 914t10 53v26q0 36-11.5 54t-43.5 18-43.5-18-11.5-54V879H33v36q0 229 97.5 333T434 1352t301.5-104.5T831 915V0H498zM141 1604l21 79 563-151-20-78zM360 391q0-90 60-90 40 0 53.5 45.5T487 500v110q-5-18-45-63l-30-33q-52-55-52-123z"/><glyph glyph-name="aacute" unicode="á" horiz-adv-x="872" d="M498 0v168Q427-20 260-20 145-20 77.5 64T10 319q0 70 18.5 133.5t45 107.5 66.5 85 70.5 64 68.5 47l59 37q41 25 59.5 38.5t44 36T477 914t10 53v26q0 36-11.5 54t-43.5 18-43.5-18-11.5-54V879H33v36q0 229 97.5 333T434 1352t301.5-104.5T831 915V0H498zM141 1532l564 151 20-79-563-150zM360 391q0-90 60-90 40 0 53.5 45.5T487 500v110q-5-18-45-63l-30-33q-52-55-52-123z"/><glyph glyph-name="acircumflex" unicode="â" horiz-adv-x="872" d="M498 0v168Q427-20 260-20 145-20 77.5 64T10 319q0 70 18.5 133.5t45 107.5 66.5 85 70.5 64 68.5 47l59 37q41 25 59.5 38.5t44 36T477 914t10 53v26q0 36-11.5 54t-43.5 18-43.5-18-11.5-54V879H33v36q0 229 97.5 333T434 1352t301.5-104.5T831 915V0H498zM141 1454l224 229h143l217-229H592l-156 168-162-168H141zM360 391q0-90 60-90 40 0 53.5 45.5T487 500v110q-5-18-45-63l-30-33q-52-55-52-123z"/><glyph glyph-name="atilde" unicode="ã" horiz-adv-x="872" d="M498 0v168Q427-20 260-20 145-20 77.5 64T10 319q0 70 18.5 133.5t45 107.5 66.5 85 70.5 64 68.5 47l59 37q41 25 59.5 38.5t44 36T477 914t10 53v26q0 36-11.5 54t-43.5 18-43.5-18-11.5-54V879H33v36q0 229 97.5 333T434 1352t301.5-104.5T831 915V0H498zM141 1479q0 204 164 204 44 0 77.5-15t53.5-36.5 37-43.5 37.5-37 44.5-15q68 0 68 123h102q0-205-164-205-44 0-77.5 15t-53.5 37-37 44-37.5 37-44.5 15q-67 0-67-123H141zM360 391q0-90 60-90 40 0 53.5 45.5T487 500v110q-5-18-45-63l-30-33q-52-55-52-123z"/><glyph glyph-name="adieresis" unicode="ä" horiz-adv-x="872" d="M498 0v168Q427-20 260-20 145-20 77.5 64T10 319q0 70 18.5 133.5t45 107.5 66.5 85 70.5 64 68.5 47l59 37q41 25 59.5 38.5t44 36T477 914t10 53v26q0 36-11.5 54t-43.5 18-43.5-18-11.5-54V879H33v36q0 229 97.5 333T434 1352t301.5-104.5T831 915V0H498zM92 1526q0 67 43.5 100t110.5 33q64 0 108.5-33.5T399 1526q0-64-44.5-97.5T246 1395q-66 0-110 33.5T92 1526zM360 391q0-90 60-90 40 0 53.5 45.5T487 500v110q-5-18-45-63l-30-33q-52-55-52-123zm109 1135q0 67 43.5 100t110.5 33q64 0 108.5-33.5T776 1526q0-64-44.5-97.5T623 1395q-66 0-110 33.5t-44 97.5z"/><glyph glyph-name="aring" unicode="å" horiz-adv-x="872" d="M498 0v168Q427-20 260-20 145-20 77.5 64T10 319q0 70 18.5 133.5t45 107.5 66.5 85 70.5 64 68.5 47l59 37q41 25 59.5 38.5t44 36T477 914t10 53v26q0 36-11.5 54t-43.5 18-43.5-18-11.5-54V879H33v36q0 229 97.5 333T434 1352t301.5-104.5T831 915V0H498zM268 1589q0 71 49.5 118.5T434 1755t116.5-47.5T600 1589t-49.5-118.5T434 1423t-116.5 47.5T268 1589zm92-1198q0-90 60-90 40 0 53.5 45.5T487 500v110q-5-18-45-63l-30-33q-52-55-52-123zm9 1198q0-30 17.5-47.5T434 1524t48 18 18 47q0 30-18 48t-48 18-47.5-18-17.5-48z"/><glyph glyph-name="ae" unicode="æ" horiz-adv-x="1277" d="M319-20Q12-20 12 346q0 50 5 91.5t18 77 26 63T99.5 632t44.5 45 55.5 42.5 60.5 39 70 40.5l39 22q48 28 72 68.5T465 995q0 38-10 55t-33 17q-26 0-36.5-26.5T375 936v-57H31v36q0 335 214 414 61 23 138 23 156 0 246-99 89 99 245 99 167 0 268-111.5T1243 899V571H784V432q0-57 1-81.5t5.5-48.5 15-31 28.5-7q14 0 24 4t16 16 9.5 22.5 5 34.5 2 40 .5 51v53h352v-53q0-231-100-341.5T870-20q-192 0-278 139-51-71-117-105T319-20zm39 382q0-98 58-98 24 0 49 29v309l-41-57-21-27q-45-57-45-156zm426 457h107v80q0 35-.5 51t-2 40-5 34.5-9.5 22.5-16 16-24 4q-34 0-42-32t-8-136v-80z"/><glyph glyph-name="ccedilla" unicode="ç" horiz-adv-x="862" d="M492 963q0 58-10.5 80t-43.5 22q-34 0-43.5-21.5T385 963V369q0-59 9.5-81t43.5-22q33 0 43.5 22.5T492 369v153h352v-65q0-237-91-350.5T485-18l-24-101q217 18 217-133 0-62-33-98t-117-55-231-19v96q136 0 192 13t56 55q0 46-56 55t-159-8l47 195Q207-3 120 111.5T33 457v417q0 251 102 364.5T438 1352q200 0 303-113.5T844 874v-65H492v154z"/><glyph glyph-name="egrave" unicode="è" horiz-adv-x="876" d="M729 1532l-20-78-564 150 21 79zM33 457v417q0 251 102 364.5T438 1352q200 0 303-113.5T844 874V571H385V369q0-59 9.5-81t43.5-22q33 0 43.5 22.5T492 369v120h352v-32q0-251-103-364T438-20Q237-20 135 93T33 457zm352 362h107v144q0 58-10.5 80t-43.5 22q-34 0-43.5-21.5T385 963V819z"/><glyph glyph-name="eacute" unicode="é" horiz-adv-x="876" d="M166 1454l-21 78 564 151 20-79zM33 457v417q0 251 102 364.5T438 1352q200 0 303-113.5T844 874V571H385V369q0-59 9.5-81t43.5-22q33 0 43.5 22.5T492 369v120h352v-32q0-251-103-364T438-20Q237-20 135 93T33 457zm352 362h107v144q0 58-10.5 80t-43.5 22q-34 0-43.5-21.5T385 963V819z"/><glyph glyph-name="ecircumflex" unicode="ê" horiz-adv-x="876" d="M145 1454l224 229h143l217-229H596l-156 168-161-168H145zM33 457v417q0 251 102 364.5T438 1352q200 0 303-113.5T844 874V571H385V369q0-59 9.5-81t43.5-22q33 0 43.5 22.5T492 369v120h352v-32q0-251-103-364T438-20Q237-20 135 93T33 457zm352 362h107v144q0 58-10.5 80t-43.5 22q-34 0-43.5-21.5T385 963V819z"/><glyph glyph-name="edieresis" unicode="ë" horiz-adv-x="876" d="M627 1395q-66 0-110 33.5t-44 97.5q0 67 43.5 100t110.5 33q64 0 108.5-33.5T780 1526q0-64-44.5-97.5T627 1395zM33 457v417q0 251 102 364.5T438 1352q200 0 303-113.5T844 874V571H385V369q0-59 9.5-81t43.5-22q33 0 43.5 22.5T492 369v120h352v-32q0-251-103-364T438-20Q237-20 135 93T33 457zm63 1069q0 67 43.5 100t110.5 33q64 0 108.5-33.5T403 1526q0-64-44.5-97.5T250 1395q-66 0-110 33.5T96 1526zm289-707h107v144q0 58-10.5 80t-43.5 22q-34 0-43.5-21.5T385 963V819z"/><glyph glyph-name="igrave" unicode="ì" horiz-adv-x="438" d="M47 1331h344V0H47v1331zm-121 273l21 79 563-151-21-78z"/><glyph glyph-name="iacute" unicode="í" horiz-adv-x="438" d="M47 1331h344V0H47v1331zm-121 201l563 151 21-79-563-150z"/><glyph glyph-name="icircumflex" unicode="î" horiz-adv-x="438" d="M47 1331h344V0H47v1331zm8 123l99 229h135l94-229H268l-47 139-53-139H55z"/><glyph glyph-name="idieresis" unicode="ï" horiz-adv-x="438" d="M47 1331h344V0H47v1331zm-110 211q0 49 31.5 79t76.5 30q44 0 76.5-30t32.5-79q0-46-33-76t-76-30q-44 0-76 30t-32 76zm348 0q0 49 31.5 79t76.5 30q44 0 76.5-30t32.5-79q0-46-33-76t-76-30q-44 0-76 30t-32 76z"/><glyph glyph-name="eth" unicode="ð" horiz-adv-x="860" d="M426-20Q27-20 27 410v229q0 184 75.5 283.5T307 1022q66 0 119.5-35t87.5-98q-8 98-31.5 169.5T408 1194l-289-174v174l180 109q-71 56-182 118l112 244q206-79 336-203l230 140v-175l-129-77q165-230 165-617V520q0-133-23-232t-60-157-92-93T547.5-8.5 426-20zm-47 403q0-67 11.5-92t35.5-25q53 0 53 119v242q0 59-11.5 82.5T426 733q-23 0-35-22t-12-88V383z"/><glyph glyph-name="ntilde" unicode="ñ" horiz-adv-x="880" d="M389 1331v-149q29 68 88 119t146 51q55 0 95-19.5t63-50.5 36-81 17-98.5 4-115.5V0H496v963q0 58-10.5 80t-43.5 22q-32 0-42.5-22T389 963V0H47v1331h342zm-239 148q0 204 163 204 44 0 77.5-15t53.5-36.5 37-43.5 37.5-37 44.5-15q68 0 68 123h102q0-205-164-205-44 0-77.5 15t-53.5 37-37 44-37.5 37-44.5 15q-67 0-67-123H150z"/><glyph glyph-name="ograve" unicode="ò" horiz-adv-x="876" d="M438-20Q237-20 135 93T33 457v417q0 251 102 364.5T438 1352t303.5-113.5T844 874V457q0-251-102.5-364T438-20zM145 1604l21 79 563-151-20-78zM385 369q0-58 10.5-80.5T438 266q33 0 43.5 22.5T492 369v594q0 58-10.5 80t-43.5 22q-32 0-42.5-22T385 963V369z"/><glyph glyph-name="oacute" unicode="ó" horiz-adv-x="876" d="M438-20Q237-20 135 93T33 457v417q0 251 102 364.5T438 1352t303.5-113.5T844 874V457q0-251-102.5-364T438-20zM145 1532l564 151 20-79-563-150zM385 369q0-58 10.5-80.5T438 266q33 0 43.5 22.5T492 369v594q0 58-10.5 80t-43.5 22q-32 0-42.5-22T385 963V369z"/><glyph glyph-name="ocircumflex" unicode="ô" horiz-adv-x="876" d="M438-20Q237-20 135 93T33 457v417q0 251 102 364.5T438 1352t303.5-113.5T844 874V457q0-251-102.5-364T438-20zM145 1454l224 229h143l217-229H596l-156 168-161-168H145zM385 369q0-58 10.5-80.5T438 266q33 0 43.5 22.5T492 369v594q0 58-10.5 80t-43.5 22q-32 0-42.5-22T385 963V369z"/><glyph glyph-name="otilde" unicode="õ" horiz-adv-x="876" d="M438-20Q237-20 135 93T33 457v417q0 251 102 364.5T438 1352t303.5-113.5T844 874V457q0-251-102.5-364T438-20zM145 1479q0 204 164 204 44 0 77.5-15t53.5-36.5 37-43.5 37.5-37 44.5-15q68 0 68 123h102q0-205-164-205-44 0-77.5 15t-53.5 37-37 44-37.5 37-44.5 15q-67 0-67-123H145zM385 369q0-58 10.5-80.5T438 266q33 0 43.5 22.5T492 369v594q0 58-10.5 80t-43.5 22q-32 0-42.5-22T385 963V369z"/><glyph glyph-name="odieresis" unicode="ö" horiz-adv-x="876" d="M438-20Q237-20 135 93T33 457v417q0 251 102 364.5T438 1352t303.5-113.5T844 874V457q0-251-102.5-364T438-20zM96 1526q0 67 43.5 100t110.5 33q64 0 108.5-33.5T403 1526q0-64-44.5-97.5T250 1395q-66 0-110 33.5T96 1526zM385 369q0-58 10.5-80.5T438 266q33 0 43.5 22.5T492 369v594q0 58-10.5 80t-43.5 22q-32 0-42.5-22T385 963V369zm88 1157q0 67 43.5 100t110.5 33q64 0 108.5-33.5T780 1526q0-64-44.5-97.5T627 1395q-66 0-110 33.5t-44 97.5z"/><glyph glyph-name="divide" unicode="÷" horiz-adv-x="913" d="M457 987q-26 0-44 18t-18 44q0 25 18 43t44 18q25 0 43-18t18-43q0-26-18-44t-43-18zM37 770v86h840v-86H37zm358-192q0 25 18 43t44 18q25 0 43-18t18-43q0-26-18-44t-43-18q-26 0-44 18t-18 44z"/><glyph glyph-name="oslash" unicode="ø" horiz-adv-x="876" d="M438-20q-106 0-182 30l-68-184H76l88 237Q33 179 33 457v417q0 251 102 364.5T438 1352q103 0 185-31l67 184h113l-88-239q129-114 129-392V457q0-251-102.5-364T438-20zm-53 382q0-54 11-75t42-21q33 0 43.5 22.5T492 369v286zm0 310l107 291q0 58-10.5 80t-43.5 22q-32 0-42.5-22T385 963V672z"/><glyph glyph-name="ugrave" unicode="ù" horiz-adv-x="880" d="M492 0v150q-29-68-88-119T258-20q-55 0-95 19.5T100 50t-36 81-17 98-4 115v987h342V369q0-58 10.5-80.5T438 266q33 0 43.5 22.5T492 369v962h344V0H492zM143 1604l21 79 563-151-20-78z"/><glyph glyph-name="uacute" unicode="ú" horiz-adv-x="880" d="M492 0v150q-29-68-88-119T258-20q-55 0-95 19.5T100 50t-36 81-17 98-4 115v987h342V369q0-58 10.5-80.5T438 266q33 0 43.5 22.5T492 369v962h344V0H492zM143 1532l564 151 20-79-563-150z"/><glyph glyph-name="ucircumflex" unicode="û" horiz-adv-x="880" d="M492 0v150q-29-68-88-119T258-20q-55 0-95 19.5T100 50t-36 81-17 98-4 115v987h342V369q0-58 10.5-80.5T438 266q33 0 43.5 22.5T492 369v962h344V0H492zM143 1454l224 229h143l217-229H594l-156 168-162-168H143z"/><glyph glyph-name="udieresis" unicode="ü" horiz-adv-x="880" d="M492 0v150q-29-68-88-119T258-20q-55 0-95 19.5T100 50t-36 81-17 98-4 115v987h342V369q0-58 10.5-80.5T438 266q33 0 43.5 22.5T492 369v962h344V0H492zM94 1526q0 67 43.5 100t110.5 33q64 0 108.5-33.5T401 1526q0-64-44.5-97.5T248 1395q-66 0-110 33.5T94 1526zm377 0q0 67 43.5 100t110.5 33q64 0 108.5-33.5T778 1526q0-64-44.5-97.5T625 1395q-66 0-110 33.5t-44 97.5z"/><glyph glyph-name="yacute" unicode="ý" horiz-adv-x="878" d="M489 20v130q-29-68-87.5-119T256-20q-55 0-95 19.5T98 50t-36 81-17 98-4 115v987h342V369q0-58 10.5-80.5T436 266t42.5 22.5T489 369v962h345V20q0-90-5.5-151.5t-20-112.5-38-80.5-63.5-50-92-28-126-7.5H86v297h309q24 0 37.5 3T461-94.5 482.5-54t6.5 74zM145 1532l564 151 20-79-563-150z"/><glyph glyph-name="thorn" unicode="þ" horiz-adv-x="888" d="M391-410H47v2048h344v-458q37 78 92.5 125t147.5 47q219 0 219-328V270q0-290-221-290-79 0-129 30t-109 94v-514zm0 762q0-44 11-64t42-20 42.5 21 11.5 65v621q0 44-11.5 65t-42.5 21-42-20-11-64V352z"/><glyph glyph-name="ydieresis" unicode="ÿ" horiz-adv-x="878" d="M489 20v130q-29-68-87.5-119T256-20q-55 0-95 19.5T98 50t-36 81-17 98-4 115v987h342V369q0-58 10.5-80.5T436 266t42.5 22.5T489 369v962h345V20q0-90-5.5-151.5t-20-112.5-38-80.5-63.5-50-92-28-126-7.5H86v297h309q24 0 37.5 3T461-94.5 482.5-54t6.5 74zM96 1526q0 67 43.5 100t110.5 33q64 0 108.5-33.5T403 1526q0-64-44.5-97.5T250 1395q-66 0-110 33.5T96 1526zm377 0q0 67 43.5 100t110.5 33q64 0 108.5-33.5T780 1526q0-64-44.5-97.5T627 1395q-66 0-110 33.5t-44 97.5z"/><glyph glyph-name="Amacron" unicode="Ā" horiz-adv-x="886" d="M0 0l197 1638h493L887 0H524l-14 244H377L362 0H0zm152 1835v82h583v-82H152zM393 541h99l-41 714-5 52h-8l-4-52z"/><glyph glyph-name="amacron" unicode="ā" horiz-adv-x="872" d="M498 0v168Q427-20 260-20 145-20 77.5 64T10 319q0 70 18.5 133.5t45 107.5 66.5 85 70.5 64 68.5 47l59 37q41 25 59.5 38.5t44 36T477 914t10 53v26q0 36-11.5 54t-43.5 18-43.5-18-11.5-54V879H33v36q0 229 97.5 333T434 1352t301.5-104.5T831 915V0H498zM141 1528v82h584v-82H141zM360 391q0-90 60-90 40 0 53.5 45.5T487 500v110q-5-18-45-63l-30-33q-52-55-52-123z"/><glyph glyph-name="Abreve" unicode="Ă" horiz-adv-x="886" d="M0 0l197 1638h493L887 0H524l-14 244H377L362 0H0zm152 1991h102q0-41 19-72t49-46.5 61-22.5 63-7 62 7 59.5 22.5 47.5 46 18 72.5h102q0-64-24.5-110.5t-67-71.5-91.5-36.5-106-11.5-106.5 11.5T246 1809t-69 71.5-25 110.5zM393 541h99l-41 714-5 52h-8l-4-52z"/><glyph glyph-name="abreve" unicode="ă" horiz-adv-x="872" d="M498 0v168Q427-20 260-20 145-20 77.5 64T10 319q0 70 18.5 133.5t45 107.5 66.5 85 70.5 64 68.5 47l59 37q41 25 59.5 38.5t44 36T477 914t10 53v26q0 36-11.5 54t-43.5 18-43.5-18-11.5-54V879H33v36q0 229 97.5 333T434 1352t301.5-104.5T831 915V0H498zM141 1683h103q0-41 19-71.5t49.5-46 61-22.5 62.5-7 62 7 59.5 22.5T605 1611t18 72h102q0-64-24.5-110.5t-67-71.5-91.5-36-106-11q-58 0-107.5 11t-93 36-69 71.5T141 1683zM360 391q0-90 60-90 40 0 53.5 45.5T487 500v110q-5-18-45-63l-30-33q-52-55-52-123z"/><glyph glyph-name="Aogonek" unicode="Ą" horiz-adv-x="886" d="M0 0l197 1638h493L887 0Q776-34 723-78t-53-104q0-59 49.5-84T893-291h14l-82-119h-12q-126 0-201 48t-75 135Q537-67 774 0H524l-14 244H377L362 0H0zm393 541h99l-41 714-5 52h-8l-4-52z"/><glyph glyph-name="aogonek" unicode="ą" horiz-adv-x="872" d="M498 0v168Q427-20 260-20 145-20 77.5 64T10 319q0 70 18.5 133.5t45 107.5 66.5 85 70.5 64 68.5 47l59 37q41 25 59.5 38.5t44 36T477 914t10 53v26q0 36-11.5 54t-43.5 18-43.5-18-11.5-54V879H33v36q0 229 97.5 333T434 1352t301.5-104.5T831 915V0Q720-34 667-78t-53-104q0-59 50-84t174-25h14l-82-119h-12q-126 0-201.5 48T481-227Q481-68 719 0H498zM360 391q0-90 60-90 40 0 53.5 45.5T487 500v110q-5-18-45-63l-30-33q-52-55-52-123z"/><glyph glyph-name="Cacute" unicode="Ć" horiz-adv-x="905" d="M459-20Q41-20 41 481v676q0 502 418 502t418-502V973H512v315q0 47-12 65.5t-41 18.5-41-18.5-12-65.5V348q0-46 12-64t41-18 41 18 12 64v318h365V481q0-501-418-501zM166 1839l563 152 21-80-564-150z"/><glyph glyph-name="cacute" unicode="ć" horiz-adv-x="862" d="M492 963q0 58-10.5 80t-43.5 22q-34 0-43.5-21.5T385 963V369q0-59 9.5-81t43.5-22q33 0 43.5 22.5T492 369v153h352v-65q0-251-103-364T438-20Q237-20 135 93T33 457v417q0 251 102 364.5T438 1352q200 0 303-113.5T844 874v-65H492v154zm-347 569l564 151 20-79-563-150z"/><glyph glyph-name="Ccircumflex" unicode="Ĉ" horiz-adv-x="905" d="M459-20Q41-20 41 481v676q0 502 418 502t418-502V973H512v315q0 47-12 65.5t-41 18.5-41-18.5-12-65.5V348q0-46 12-64t41-18 41 18 12 64v318h365V481q0-501-418-501zM166 1761l223 230h143l218-230H616l-155 168-162-168H166z"/><glyph glyph-name="ccircumflex" unicode="ĉ" horiz-adv-x="862" d="M492 963q0 58-10.5 80t-43.5 22q-34 0-43.5-21.5T385 963V369q0-59 9.5-81t43.5-22q33 0 43.5 22.5T492 369v153h352v-65q0-251-103-364T438-20Q237-20 135 93T33 457v417q0 251 102 364.5T438 1352q200 0 303-113.5T844 874v-65H492v154zm-347 491l224 229h143l217-229H596l-156 168-161-168H145z"/><glyph glyph-name="Cdotaccent" unicode="Ċ" horiz-adv-x="905" d="M459-20Q41-20 41 481v676q0 502 418 502t418-502V973H512v315q0 47-12 65.5t-41 18.5-41-18.5-12-65.5V348q0-46 12-64t41-18 41 18 12 64v318h365V481q0-501-418-501zM297 1878q0 61 40.5 99t121.5 38 121.5-38 40.5-99q0-58-41-95.5T459 1745t-121 37.5-41 95.5z"/><glyph glyph-name="cdotaccent" unicode="ċ" horiz-adv-x="862" d="M492 963q0 58-10.5 80t-43.5 22q-34 0-43.5-21.5T385 963V369q0-59 9.5-81t43.5-22q33 0 43.5 22.5T492 369v153h352v-65q0-251-103-364T438-20Q237-20 135 93T33 457v417q0 251 102 364.5T438 1352q200 0 303-113.5T844 874v-65H492v154zm-248 561q0 135 194 135 195 0 195-135 0-131-195-131-194 0-194 131z"/><glyph glyph-name="Ccaron" unicode="Č" horiz-adv-x="905" d="M459-20Q41-20 41 481v676q0 502 418 502t418-502V973H512v315q0 47-12 65.5t-41 18.5-41-18.5-12-65.5V348q0-46 12-64t41-18 41 18 12 64v318h365V481q0-501-418-501zM166 1991h133l162-168 155 168h134l-218-230H389z"/><glyph glyph-name="ccaron" unicode="č" horiz-adv-x="862" d="M492 963q0 58-10.5 80t-43.5 22q-34 0-43.5-21.5T385 963V369q0-59 9.5-81t43.5-22q33 0 43.5 22.5T492 369v153h352v-65q0-251-103-364T438-20Q237-20 135 93T33 457v417q0 251 102 364.5T438 1352q200 0 303-113.5T844 874v-65H492v154zm-347 720h134l161-167 156 167h133l-217-229H369z"/><glyph glyph-name="Dcaron" unicode="Ď" d="M51 0v1638h377q134 0 220-22.5t138-77.5 72.5-136.5T879 1192V446q0-126-20.5-207.5t-72.5-137T648 23 428 0H51zm64 1991h133l162-168 155 168h133l-217-230H338zM408 266h26q46 0 63 21t17 78v909q0 58-18 78t-66 20h-22V266z"/><glyph glyph-name="dcaron" unicode="ď" horiz-adv-x="1021" d="M498 1638h344V0H498v152q-37-78-92.5-125T258-20Q39-20 39 307v754q0 291 221 291 79 0 129-30.5t109-94.5v411zM391 356q0-44 11-65t42-21 42.5 20 11.5 64v625q0 44-11.5 64t-42.5 20-42-21-11-65V356zm510 832l41 450h164l-102-450H901z"/><glyph glyph-name="Dcroat" unicode="Đ" horiz-adv-x="937" d="M68 0v737H8v164h60v737h376q134 0 220-22.5t138-77.5 72.5-136.5T895 1192V446q0-126-20.5-207.5t-72.5-137T664 23 444 0H68zm356 266h27q46 0 62.5 21t16.5 78v909q0 58-18 78t-66 20h-22V901h74V737h-74V266z"/><glyph glyph-name="dcroat" unicode="đ" horiz-adv-x="888" d="M498 1638h344v-71h78v-156h-78V0H498v152q-37-78-92.5-125T258-20Q39-20 39 307v754q0 291 221 291 79 0 129-30.5t109-94.5v184H356v156h142v71zM391 356q0-44 11-65t42-21 42.5 20 11.5 64v625q0 44-11.5 64t-42.5 20-42-21-11-65V356z"/><glyph glyph-name="Emacron" unicode="Ē" horiz-adv-x="741" d="M51 0v1638h656v-297H408V967h278V672H408V297h299V0H51zm35 1835v82h584v-82H86z"/><glyph glyph-name="emacron" unicode="ē" horiz-adv-x="876" d="M145 1528v82h584v-82H145zM33 457v417q0 251 102 364.5T438 1352q200 0 303-113.5T844 874V571H385V369q0-59 9.5-81t43.5-22q33 0 43.5 22.5T492 369v120h352v-32q0-251-103-364T438-20Q237-20 135 93T33 457zm352 362h107v144q0 58-10.5 80t-43.5 22q-34 0-43.5-21.5T385 963V819z"/><glyph glyph-name="Edotaccent" unicode="Ė" horiz-adv-x="741" d="M51 0v1638h656v-297H408V967h278V672H408V297h299V0H51zm166 1878q0 61 40.5 99t121.5 38 121.5-38 40.5-99q0-58-41-95.5T379 1745t-121 37.5-41 95.5z"/><glyph glyph-name="edotaccent" unicode="ė" horiz-adv-x="876" d="M438 1393q-194 0-194 131 0 135 194 135 195 0 195-135 0-131-195-131zM33 457v417q0 251 102 364.5T438 1352q200 0 303-113.5T844 874V571H385V369q0-59 9.5-81t43.5-22q33 0 43.5 22.5T492 369v120h352v-32q0-251-103-364T438-20Q237-20 135 93T33 457zm352 362h107v144q0 58-10.5 80t-43.5 22q-34 0-43.5-21.5T385 963V819z"/><glyph glyph-name="Eogonek" unicode="Ę" horiz-adv-x="741" d="M51 0v1638h656v-297H408V967h278V672H408V297h299V0Q596-34 542.5-78T489-182q0-59 49.5-84T713-291h14l-82-119h-12q-126 0-201.5 48T356-227Q356-68 594 0H51z"/><glyph glyph-name="eogonek" unicode="ę" horiz-adv-x="876" d="M518-410q-126 0-201 48t-75 135q0 139 176 207-192 5-288.5 118T33 457v417q0 251 102 364.5T438 1352q200 0 303-113.5T844 874V571H385V369q0-59 9.5-81t43.5-22q33 0 43.5 22.5T492 369v120h352v-32q0-203-66.5-314.5T580-4Q475-38 425-81t-50-101q0-59 49.5-84T598-291h14l-82-119h-12zM385 819h107v144q0 58-10.5 80t-43.5 22q-34 0-43.5-21.5T385 963V819z"/><glyph glyph-name="Ecaron" unicode="Ě" horiz-adv-x="741" d="M51 0v1638h656v-297H408V967h278V672H408V297h299V0H51zm35 1991h133l162-168 156 168h133l-217-230H309z"/><glyph glyph-name="ecaron" unicode="ě" horiz-adv-x="876" d="M369 1454l-224 229h134l161-167 156 167h133l-217-229H369zM33 457v417q0 251 102 364.5T438 1352q200 0 303-113.5T844 874V571H385V369q0-59 9.5-81t43.5-22q33 0 43.5 22.5T492 369v120h352v-32q0-251-103-364T438-20Q237-20 135 93T33 457zm352 362h107v144q0 58-10.5 80t-43.5 22q-34 0-43.5-21.5T385 963V819z"/><glyph glyph-name="Gcircumflex" unicode="Ĝ" d="M410-20q-167 0-268 121.5T41 457v700q0 502 418 502t418-502V958H512v330q0 47-12 65.5t-41 18.5-41-18.5-12-65.5V348q0-45 12-63.5t41-18.5 41 18.5 12 61.5v238h-53v272h418V0H733l-49 100Q573-20 410-20zM166 1761l223 230h143l218-230H616l-155 168-162-168H166z"/><glyph glyph-name="gcircumflex" unicode="ĝ" horiz-adv-x="886" d="M498 20v132q-37-78-92.5-125T258-20Q39-20 39 307v754q0 291 221 291 79 0 129-30.5t109-94.5v104h344V23q0-102-8-168.5t-29-121-60.5-84-100-44.5T494-410H113v297h286q26 0 40.5 3t30 15.5 22 40.5 6.5 74zM152 1454l223 229h143l217-229H602l-156 168-161-168H152zM391 356q0-44 11-65t42-21 42.5 20 11.5 64v625q0 44-11.5 64t-42.5 20-42-21-11-65V356z"/><glyph glyph-name="Gbreve" unicode="Ğ" d="M410-20q-167 0-268 121.5T41 457v700q0 502 418 502t418-502V958H512v330q0 47-12 65.5t-41 18.5-41-18.5-12-65.5V348q0-45 12-63.5t41-18.5 41 18.5 12 61.5v238h-53v272h418V0H733l-49 100Q573-20 410-20zM166 1991h102q0-41 19-72t49.5-46.5T398 1850t63-7 62 7 59 22.5 47 46 18 72.5h103q0-64-24.5-110.5t-67-71.5-91.5-36.5-106-11.5-107 11.5-93.5 36.5-69 71.5T166 1991z"/><glyph glyph-name="gbreve" unicode="ğ" horiz-adv-x="886" d="M498 20v132q-37-78-92.5-125T258-20Q39-20 39 307v754q0 291 221 291 79 0 129-30.5t109-94.5v104h344V23q0-102-8-168.5t-29-121-60.5-84-100-44.5T494-410H113v297h286q26 0 40.5 3t30 15.5 22 40.5 6.5 74zM152 1683h102q0-41 19-71.5t49.5-46 61-22.5 62.5-7 62 7 59.5 22.5T615 1611t18 72h102q0-64-24.5-110.5t-67-71.5-91.5-36-106-11q-45 0-85.5 6.5t-79.5 23-67 42-45 65.5-17 92zM391 356q0-44 11-65t42-21 42.5 20 11.5 64v625q0 44-11.5 64t-42.5 20-42-21-11-65V356z"/><glyph glyph-name="Gdotaccent" unicode="Ġ" d="M410-20q-167 0-268 121.5T41 457v700q0 502 418 502t418-502V958H512v330q0 47-12 65.5t-41 18.5-41-18.5-12-65.5V348q0-45 12-63.5t41-18.5 41 18.5 12 61.5v238h-53v272h418V0H733l-49 100Q573-20 410-20zM297 1878q0 61 40.5 99t121.5 38 121.5-38 40.5-99q0-58-41-95.5T459 1745t-121 37.5-41 95.5z"/><glyph glyph-name="gdotaccent" unicode="ġ" horiz-adv-x="886" d="M498 20v132q-37-78-92.5-125T258-20Q39-20 39 307v754q0 291 221 291 79 0 129-30.5t109-94.5v104h344V23q0-102-8-168.5t-29-121-60.5-84-100-44.5T494-410H113v297h286q26 0 40.5 3t30 15.5 22 40.5 6.5 74zM250 1524q0 135 194 135 195 0 195-135 0-131-195-131-194 0-194 131zM391 356q0-44 11-65t42-21 42.5 20 11.5 64v625q0 44-11.5 64t-42.5 20-42-21-11-65V356z"/><glyph glyph-name="uni0122" unicode="Ģ" d="M410-20q-167 0-268 121.5T41 457v700q0 502 418 502t418-502V958H512v330q0 47-12 65.5t-41 18.5-41-18.5-12-65.5V348q0-45 12-63.5t41-18.5 41 18.5 12 61.5v238h-53v272h418V0H733l-49 100Q573-20 410-20zm-64-164q0 52 31.5 82T459-72q54 0 82-35.5t28-97.5q0-70-51.5-137T375-453v97q105 21 139 104-30-41-76-41-39 0-65.5 28.5T346-184z"/><glyph glyph-name="uni0123" unicode="ģ" horiz-adv-x="886" d="M498 20v132q-37-78-92.5-125T258-20Q39-20 39 307v754q0 291 221 291 79 0 129-30.5t109-94.5v104h344V23q0-102-8-168.5t-29-121-60.5-84-100-44.5T494-410H113v297h286q26 0 40.5 3t30 15.5 22 40.5 6.5 74zM332 1542q0 70 51.5 137T526 1790v-96q-48-9-85-36.5t-54-68.5q30 41 76 41 39 0 65.5-28t26.5-80-31.5-82.5T442 1409q-54 0-82 35.5t-28 97.5zm59-1186q0-44 11-65t42-21 42.5 20 11.5 64v625q0 44-11.5 64t-42.5 20-42-21-11-65V356z"/><glyph glyph-name="Hcircumflex" unicode="Ĥ" d="M514 0v672H408V0H51v1638h357V967h106v671h356V0H514zM168 1761l223 230h144l217-230H618l-155 168-162-168H168z"/><glyph glyph-name="hcircumflex" unicode="ĥ" horiz-adv-x="882" d="M391 1638v-456q29 68 88 119t146 51q55 0 95-19.5t63-50.5 36-81 17-98.5 4-115.5V0H498v963q0 58-10.5 80t-43.5 22q-32 0-42.5-22T391 963V0H47v1638h344zm-467 123l223 230h144l217-230H375l-156 168-162-168H-76z"/><glyph glyph-name="Hbar" unicode="Ħ" horiz-adv-x="1001" d="M555 0v672H449V0H92v1249H4v164h88v225h357v-225h106v225h356v-225h86v-164h-86V0H555zM449 967h106v282H449V967z"/><glyph glyph-name="hbar" unicode="ħ" horiz-adv-x="882" d="M391 1638v-92h148v-155H391v-209q29 68 88 119t146 51q55 0 95-19.5t63-50.5 36-81 17-98.5 4-115.5V0H498v963q0 58-10.5 80t-43.5 22q-32 0-42.5-22T391 963V0H47v1391h-72v155h72v92h344z"/><glyph glyph-name="Itilde" unicode="Ĩ" horiz-adv-x="458" d="M51 0v1638h357V0H51zM-63 1786q0 205 163 205 44 0 77.5-15t53.5-37 37-44 37.5-37 44.5-15q68 0 68 123h102q0-205-164-205-44 0-77.5 15t-53.5 37-37 44-37.5 37-44.5 15q-67 0-67-123H-63z"/><glyph glyph-name="itilde" unicode="ĩ" horiz-adv-x="438" d="M47 1331h344V0H47v1331zm-121 148q0 204 164 204 44 0 77.5-15t53.5-36.5 37-43.5 37.5-37 44.5-15q68 0 68 123h102q0-205-164-205-44 0-77.5 15t-53.5 37-37 44-37.5 37-44.5 15q-67 0-67-123H-74z"/><glyph glyph-name="Imacron" unicode="Ī" horiz-adv-x="458" d="M51 0v1638h357V0H51zM-63 1835v82h583v-82H-63z"/><glyph glyph-name="imacron" unicode="ī" horiz-adv-x="438" d="M47 1331h344V0H47v1331zm-121 197v82h584v-82H-74z"/><glyph glyph-name="Iogonek" unicode="Į" horiz-adv-x="458" d="M51 0v1638h357V0Q297-34 243.5-78T190-182q0-59 50-84t174-25h14l-82-119h-12q-126 0-201.5 48T57-227Q57-68 295 0H51z"/><glyph glyph-name="iogonek" unicode="į" horiz-adv-x="438" d="M47 1331h344V0Q280-34 227-78t-53-104q0-59 49.5-84T397-291h15l-82-119h-13q-126 0-201 48T41-227Q41-68 279 0H47v1331zm-22 193q0 135 194 135 195 0 195-135 0-131-195-131-194 0-194 131z"/><glyph glyph-name="Idotaccent" unicode="İ" horiz-adv-x="458" d="M51 0v1638h357V0H51zm17 1878q0 61 40 99t121 38 121.5-38 40.5-99q0-58-41-95.5T229 1745t-120.5 37.5T68 1878z"/><glyph glyph-name="dotlessi" unicode="ı" horiz-adv-x="438" d="M47 1331h344V0H47v1331z"/><glyph glyph-name="IJ" unicode="Ĳ" horiz-adv-x="1376" d="M51 0v1638h357V0H51zm443 481v88h364V348q0-46 12-64t41-18 41.5 18.5T965 348v1290h364V481q0-501-418-501-417 0-417 501z"/><glyph glyph-name="ij" unicode="ĳ" horiz-adv-x="860" d="M47 1331h344V0H47v1331zm-22 193q0 135 194 135 195 0 195-135 0-131-195-131-194 0-194 131zM281-410v297h86q27 0 42.5 3.5t31 16 22 41T469 23v1308h344V27q0-86-5-145.5T788.5-230 750-313.5 686.5-368 593-400.5 463-410H281zm165 1934q0 135 195 135t195-135q0-131-195-131t-195 131z"/><glyph glyph-name="Jcircumflex" unicode="Ĵ" horiz-adv-x="894" d="M430-20Q12-20 12 481v88h365V348q0-46 12-64t41-18 41 18 12 64v1290h365V481q0-501-418-501zm-65 1781l223 230h143l217-230H815l-156 168-161-168H365z"/><glyph glyph-name="jcircumflex" unicode="ĵ" horiz-adv-x="438" d="M47 23v1308h344V27q0-86-5-145.5T366.5-230 328-313.5 264.5-368 171-400.5 41-410h-182v297h86q27 0 42.5 3.5t31 16 22 41T47 23zM-74 1454l224 229h143l217-229H377l-156 168-162-168H-74z"/><glyph glyph-name="uni0136" unicode="Ķ" horiz-adv-x="913" d="M551 0L436 659h-28V0H51v1638h357V979h28l115 659h367L743 819 918 0H551zM371-184q0 52 31 82t81 30q54 0 82.5-35.5T594-205q0-70-52-137T399-453v97q106 21 140 104-30-41-76-41-39 0-65.5 28.5T371-184z"/><glyph glyph-name="uni0137" unicode="ķ" horiz-adv-x="870" d="M47 1638h344V823h29l94 508h358L713 668 872 0H514l-98 528h-25V0H47v1638zM354-184q0 52 31.5 82T467-72q54 0 82.5-35.5T578-205q0-70-52-137T383-453v97q105 21 139 104-30-41-76-41-39 0-65.5 28.5T354-184z"/><glyph glyph-name="Lacute" unicode="Ĺ" horiz-adv-x="731" d="M51 0v1638h357V297h307V0H51zm25 1839l563 152 20-80-563-150z"/><glyph glyph-name="lacute" unicode="ĺ" horiz-adv-x="438" d="M47 1638h344V0H47v1638zm-121 201l563 152 21-80-563-150z"/><glyph glyph-name="uni013B" unicode="Ļ" horiz-adv-x="731" d="M51 0v1638h357V297h307V0H51zm197-184q0 52 31 82t81 30q54 0 82.5-35.5T471-205q0-70-52-137T276-453v97q106 21 140 104-30-41-76-41-39 0-65.5 28.5T248-184z"/><glyph glyph-name="uni013C" unicode="ļ" horiz-adv-x="438" d="M47 1638h344V0H47v1638zm59-1822q0 52 31.5 82T219-72q54 0 82.5-35.5T330-205q0-70-52-137T135-453v97q105 21 139 104-30-41-75-41-39 0-66 28.5T106-184z"/><glyph glyph-name="Lcaron" unicode="Ľ" horiz-adv-x="735" d="M51 0v1638h357V297h307V0H51zm465 1188l41 450h164l-103-450H516z"/><glyph glyph-name="lcaron" unicode="ľ" horiz-adv-x="573" d="M47 1638h344V0H47v1638zm406-450l41 450h163l-102-450H453z"/><glyph glyph-name="Lslash" unicode="Ł" horiz-adv-x="792" d="M113 0v592L12 516v182l101 76v864h356v-591l143 110V973L469 864V297h307V0H113z"/><glyph glyph-name="lslash" unicode="ł" horiz-adv-x="731" d="M186 1638h344V995l197 121V942L530 823V0H186v614L-12 494v172l198 120v852z"/><glyph glyph-name="Nacute" unicode="Ń" horiz-adv-x="935" d="M51 0v1638h316l202-782v782h316V0H569L367 784V0H51zm125 1839l563 152 21-80-563-150z"/><glyph glyph-name="nacute" unicode="ń" horiz-adv-x="880" d="M389 1331v-149q29 68 88 119t146 51q55 0 95-19.5t63-50.5 36-81 17-98.5 4-115.5V0H496v963q0 58-10.5 80t-43.5 22q-32 0-42.5-22T389 963V0H47v1331h342zm-239 201l563 151 20-79-563-150z"/><glyph glyph-name="uni0145" unicode="Ņ" horiz-adv-x="935" d="M51 0v1638h316l202-782v782h316V0H569L367 784V0H51zm305-184q0 52 31.5 82T469-72q54 0 82.5-35.5T580-205q0-70-52-137T385-453v97q105 21 139 104-30-41-75-41-39 0-66 28.5T356-184z"/><glyph glyph-name="uni0146" unicode="ņ" horiz-adv-x="880" d="M389 1331v-149q29 68 88 119t146 51q55 0 95-19.5t63-50.5 36-81 17-98.5 4-115.5V0H496v963q0 58-10.5 80t-43.5 22q-32 0-42.5-22T389 963V0H47v1331h342zM330-184q0 52 31 82t81 30q54 0 82.5-35.5T553-205q0-70-52-137T358-453v97q106 21 140 104-30-41-76-41-39 0-65.5 28.5T330-184z"/><glyph glyph-name="Ncaron" unicode="Ň" horiz-adv-x="935" d="M51 0v1638h316l202-782v782h316V0H569L367 784V0H51zm125 1991h133l162-168 156 168h133l-217-230H399z"/><glyph glyph-name="ncaron" unicode="ň" horiz-adv-x="880" d="M389 1331v-149q29 68 88 119t146 51q55 0 95-19.5t63-50.5 36-81 17-98.5 4-115.5V0H496v963q0 58-10.5 80t-43.5 22q-32 0-42.5-22T389 963V0H47v1331h342zm-239 352h133l161-167 156 167h133l-217-229H373z"/><glyph glyph-name="Eng" unicode="Ŋ" horiz-adv-x="935" d="M51 0v1638h316l202-782v782h316V0q-1-80-5.5-134t-17-103.5-35-79.5-59-52.5T681-401t-122-9h-94v318h22q55 0 73.5 17T569 2L367 784V0H51z"/><glyph glyph-name="eng" unicode="ŋ" horiz-adv-x="880" d="M389 1331v-149q29 68 88 119t146 51q55 0 95-19.5t63-50.5 36-81 17-98.5 4-115.5V0q0-79-5-134t-19.5-104-38.5-79-63.5-52-93.5-31.5-129-9.5H309v297h86q26 0 41.5 3T467-96.5 489-62t7 62v963q0 58-10.5 80t-43.5 22q-32 0-42.5-22T389 963V0H47v1331h342z"/><glyph glyph-name="Omacron" unicode="Ō" horiz-adv-x="917" d="M459-20q-207 0-312.5 122.5T41 481v676q0 502 418 502t418-502V481q0-256-105.5-378.5T459-20zM166 1835v82h584v-82H166zM406 348q0-43 11-62.5t42-19.5 42 19.5 11 62.5v938q0 44-11 65t-42 21-42-20-11-64V348z"/><glyph glyph-name="omacron" unicode="ō" horiz-adv-x="876" d="M438-20Q237-20 135 93T33 457v417q0 251 102 364.5T438 1352t303.5-113.5T844 874V457q0-251-102.5-364T438-20zM145 1528v82h584v-82H145zM385 369q0-58 10.5-80.5T438 266q33 0 43.5 22.5T492 369v594q0 58-10.5 80t-43.5 22q-32 0-42.5-22T385 963V369z"/><glyph glyph-name="Ohungarumlaut" unicode="Ő" horiz-adv-x="917" d="M459-20q-207 0-312.5 122.5T41 481v676q0 502 418 502t418-502V481q0-256-105.5-378.5T459-20zM268 1761l236 230h123l-215-230H268zM406 348q0-43 11-62.5t42-19.5 42 19.5 11 62.5v938q0 44-11 65t-42 21-42-20-11-64V348zm88 1413l235 230h123l-215-230H494z"/><glyph glyph-name="ohungarumlaut" unicode="ő" horiz-adv-x="876" d="M438-20Q237-20 135 93T33 457v417q0 251 102 364.5T438 1352t303.5-113.5T844 874V457q0-251-102.5-364T438-20zM248 1454l235 229h123l-215-229H248zM385 369q0-58 10.5-80.5T438 266q33 0 43.5 22.5T492 369v594q0 58-10.5 80t-43.5 22q-32 0-42.5-22T385 963V369zm88 1085l236 229h122l-215-229H473z"/><glyph glyph-name="OE" unicode="Œ" horiz-adv-x="1165" d="M377-20q-78 0-138 25.5T142.5 71 83 167 51.5 278 43 395v848q0 62 8.5 117T83 1471t59.5 96.5 96.5 66 138 25.5q157 0 231-115v94h522v-297H868V967h242V672H868V297h262V0H608v94Q534-20 377-20zm31 348q0-29 12.5-45.5T453 266q43 0 43 62v983q0 61-43 61-21 0-33-16t-12-45V328z"/><glyph glyph-name="oe" unicode="œ" horiz-adv-x="1308" d="M410-20q-78 0-143 23T148.5 76 65 214.5 35 424v483q0 121 30 210t83.5 138.5 118.5 73 143 23.5q160 0 245-101 82 101 252 101 369 0 369-445V571H817V369q0-59 9.5-81t43.5-22q33 0 43.5 22.5T924 369v123h352v-68q0-444-371-444-169 0-250 102Q572-20 410-20zm-23 389q0-59 9.5-81t43.5-22q33 0 43.5 22.5T494 369v594q0 58-10.5 80t-43.5 22q-34 0-43.5-21.5T387 963V369zm430 450h107v144q0 58-10.5 80t-43.5 22q-34 0-43.5-21.5T817 963V819z"/><glyph glyph-name="Racute" unicode="Ŕ" horiz-adv-x="917" d="M541 0q-23 29-23 145v381q0 95-55 95h-55V0H51v1638h410q118 0 195-20t129.5-69.5 75-130.5 22.5-206v-22q0-141-20.5-225T801 837.5 686 766q58-22 98-55.5t61-74.5 29.5-83 8.5-92V145q0-95 22-145H541zM158 1839l563 152 20-80-563-150zm250-952h55q55 0 55 94v297q0 94-55 94h-55V887z"/><glyph glyph-name="racute" unicode="ŕ" horiz-adv-x="849" d="M391 1331v-145q34 79 92.5 122.5T616 1352q226 0 226-332V838H498v86q0 87-10.5 115t-43.5 28q-32 0-42.5-22T391 965V0H47v1331h344zm-239 201l563 151 20-79-563-150z"/><glyph glyph-name="uni0156" unicode="Ŗ" horiz-adv-x="917" d="M541 0q-23 29-23 145v381q0 95-55 95h-55V0H51v1638h410q118 0 195-20t129.5-69.5 75-130.5 22.5-206v-22q0-141-20.5-225T801 837.5 686 766q58-22 98-55.5t61-74.5 29.5-83 8.5-92V145q0-95 22-145H541zM367-184q0 52 31 82t81 30q54 0 82.5-35.5T590-205q0-70-52-137T395-453v97q106 21 140 104-30-41-76-41-39 0-65.5 28.5T367-184zm41 1071h55q55 0 55 94v297q0 94-55 94h-55V887z"/><glyph glyph-name="uni0157" unicode="ŗ" horiz-adv-x="849" d="M391 1331v-145q34 79 92.5 122.5T616 1352q226 0 226-332V838H498v86q0 87-10.5 115t-43.5 28q-32 0-42.5-22T391 965V0H47v1331h344zM111-184q0 52 31 82t81 30q54 0 82.5-35.5T334-205q0-70-52-137T139-453v97q106 21 140 104-30-41-76-41-39 0-65.5 28.5T111-184z"/><glyph glyph-name="Rcaron" unicode="Ř" horiz-adv-x="917" d="M541 0q-23 29-23 145v381q0 95-55 95h-55V0H51v1638h410q118 0 195-20t129.5-69.5 75-130.5 22.5-206v-22q0-141-20.5-225T801 837.5 686 766q58-22 98-55.5t61-74.5 29.5-83 8.5-92V145q0-95 22-145H541zM158 1991h133l162-168 155 168h133l-217-230H381zM408 887h55q55 0 55 94v297q0 94-55 94h-55V887z"/><glyph glyph-name="rcaron" unicode="ř" horiz-adv-x="849" d="M391 1331v-145q34 79 92.5 122.5T616 1352q226 0 226-332V838H498v86q0 87-10.5 115t-43.5 28q-32 0-42.5-22T391 965V0H47v1331h344zm-239 352h133l161-167 156 167h133l-217-229H375z"/><glyph glyph-name="Sacute" unicode="Ś" horiz-adv-x="880" d="M440-20Q25-20 25 479v94h364V348q0-46 12-64t41-18 41.5 18.5T496 348v125q0 59-19 94.5T416 637L256 768Q139 865 81 966.5T23 1219q0 209 108 324.5T442 1659q194 0 302-109t108-305v-137H489v182q0 46-12 64t-41 18q-28 0-39.5-18.5T385 1290v-84q0-59 19-94.5t61-69.5l158-129q49-40 77.5-66.5t63-69.5 53-86 31-105T860 449q0-234-106-351.5T440-20zM150 1839l563 152 20-80-563-150z"/><glyph glyph-name="sacute" unicode="ś" horiz-adv-x="851" d="M631 741q71-49 112-93t66-109.5T834 385q0-188-101-296.5T422-20Q337-20 267.5-.5T141 61 52 178.5 20 358v115h355V367q0-56 9.5-78.5T426 266q33 0 44 23t11 78q0 46-20 78t-101 87l-137 95Q121 696 69.5 772T18 971q0 169 102.5 275T430 1352q186 0 292.5-89.5T829 995v-94H477v86q0 38-11 58t-42 20-42-20-11-58q0-35 13-59.5t54-53.5zm-496 791l563 151 21-79-563-150z"/><glyph glyph-name="Scircumflex" unicode="Ŝ" horiz-adv-x="880" d="M440-20Q25-20 25 479v94h364V348q0-46 12-64t41-18 41.5 18.5T496 348v125q0 59-19 94.5T416 637L256 768Q139 865 81 966.5T23 1219q0 209 108 324.5T442 1659q194 0 302-109t108-305v-137H489v182q0 46-12 64t-41 18q-28 0-39.5-18.5T385 1290v-84q0-59 19-94.5t61-69.5l158-129q49-40 77.5-66.5t63-69.5 53-86 31-105T860 449q0-234-106-351.5T440-20zM150 1761l223 230h143l217-230H600l-156 168-161-168H150z"/><glyph glyph-name="scircumflex" unicode="ŝ" horiz-adv-x="851" d="M631 741q71-49 112-93t66-109.5T834 385q0-188-101-296.5T422-20Q337-20 267.5-.5T141 61 52 178.5 20 358v115h355V367q0-56 9.5-78.5T426 266q33 0 44 23t11 78q0 46-20 78t-101 87l-137 95Q121 696 69.5 772T18 971q0 169 102.5 275T430 1352q186 0 292.5-89.5T829 995v-94H477v86q0 38-11 58t-42 20-42-20-11-58q0-35 13-59.5t54-53.5zm-496 713l223 229h144l217-229H586l-156 168-162-168H135z"/><glyph glyph-name="Scedilla" unicode="Ş" horiz-adv-x="880" d="M303-328q136 0 192 13t56 55q0 46-56 55t-159-8l47 195Q25 16 25 479v94h364V348q0-46 12-64t41-18 41.5 18.5T496 348v125q0 59-19 94.5T416 637L256 768Q139 865 81 966.5T23 1219q0 209 108 324.5T442 1659q194 0 302-109t108-305v-137H489v182q0 46-12 64t-41 18q-28 0-39.5-18.5T385 1290v-84q0-59 19-94.5t61-69.5l158-129q49-40 77.5-66.5t63-69.5 53-86 31-105T860 449Q860 9 492-18l-25-101q217 18 217-133 0-62-33-98t-117-55-231-19v96z"/><glyph glyph-name="scedilla" unicode="ş" horiz-adv-x="851" d="M631 741q71-49 112-93t66-109.5T834 385q0-176-89-283T471-18l-25-101q218 18 218-133 0-62-33-98t-117-55-231-19v96q136 0 191.5 13t55.5 55q0 46-56 55t-159-8l47 195q-74 6-133.5 29.5T121 78 46.5 192.5 20 358v115h355V367q0-56 9.5-78.5T426 266q33 0 44 23t11 78q0 46-20 78t-101 87l-137 95Q121 696 69.5 772T18 971q0 169 102.5 275T430 1352q186 0 292.5-89.5T829 995v-94H477v86q0 38-11 58t-42 20-42-20-11-58q0-35 13-59.5t54-53.5z"/><glyph glyph-name="Scaron" unicode="Š" horiz-adv-x="880" d="M440-20Q25-20 25 479v94h364V348q0-46 12-64t41-18 41.5 18.5T496 348v125q0 59-19 94.5T416 637L256 768Q139 865 81 966.5T23 1219q0 209 108 324.5T442 1659q194 0 302-109t108-305v-137H489v182q0 46-12 64t-41 18q-28 0-39.5-18.5T385 1290v-84q0-59 19-94.5t61-69.5l158-129q49-40 77.5-66.5t63-69.5 53-86 31-105T860 449q0-234-106-351.5T440-20zM150 1991h133l161-168 156 168h133l-217-230H373z"/><glyph glyph-name="scaron" unicode="š" horiz-adv-x="851" d="M631 741q71-49 112-93t66-109.5T834 385q0-188-101-296.5T422-20Q337-20 267.5-.5T141 61 52 178.5 20 358v115h355V367q0-56 9.5-78.5T426 266q33 0 44 23t11 78q0 46-20 78t-101 87l-137 95Q121 696 69.5 772T18 971q0 169 102.5 275T430 1352q186 0 292.5-89.5T829 995v-94H477v86q0 38-11 58t-42 20-42-20-11-58q0-35 13-59.5t54-53.5zm-496 942h133l162-167 156 167h133l-217-229H358z"/><glyph glyph-name="uni0162" unicode="Ţ" horiz-adv-x="831" d="M238 0v1341H16v297h799v-297H594V0H469l-29-119q217 18 217-133 0-62-33-98t-117-55-231-19v96q136 0 192 13t56 55q0 46-56 55t-159-8L360 0H238z"/><glyph glyph-name="uni0163" unicode="ţ" horiz-adv-x="684" d="M662 1331v-297H463V436q0-87 27.5-113t87.5-26h84V0H442l-24-100q217 18 217-133 0-62-33-98.5T485-387t-231-19v97q137 0 192.5 12.5T502-242q0 46-56 55t-159-8L336 6Q213 26 166 108t-47 248v678H2v297q43 12 71.5 44t41.5 78 17 88.5 3 96.5h346q0-274-141-307h322z"/><glyph glyph-name="Tcaron" unicode="Ť" horiz-adv-x="831" d="M238 0v1341H16v297h799v-297H594V0H238zM123 1991h133l162-168 155 168h134l-218-230H346z"/><glyph glyph-name="tcaron" unicode="ť" horiz-adv-x="684" d="M662 1331v-297H463V436q0-87 27.5-113t87.5-26h84V0H422q-90 0-149 20.5T180 87t-47.5 109.5T119 356v678H2v297q43 12 71.5 44t41.5 78 17 88.5 3 96.5h346q0-274-141-307h322zm-123 103l61 409h164l-123-409H539z"/><glyph glyph-name="Tbar" unicode="Ŧ" horiz-adv-x="839" d="M242 0v655H94v164h148v522H20v297h799v-297H598V819h150V655H598V0H242z"/><glyph glyph-name="tbar" unicode="ŧ" horiz-adv-x="692" d="M668 1331v-297H469V831h199V668H469V436q0-87 27.5-113t87.5-26h84V0H428q-90 0-149 20.5T186 87t-47.5 109.5T125 356v312H10v163h115v203H8v297q43 12 71.5 44t41.5 78 17 88.5 3 96.5h346q0-274-141-307h322z"/><glyph glyph-name="Utilde" unicode="Ũ" horiz-adv-x="929" d="M465-20Q256-20 151.5 94.5T47 461v1177h365V348q0-43 11-62.5t42-19.5 42 19.5 11 62.5v1290h365V461q0-252-104.5-366.5T465-20zM172 1786q0 205 164 205 44 0 77.5-15t53.5-37 37-44 37.5-37 44.5-15q67 0 67 123h103q0-205-164-205-44 0-77.5 15t-53.5 37-37 44-37.5 37-44.5 15q-68 0-68-123H172z"/><glyph glyph-name="utilde" unicode="ũ" horiz-adv-x="880" d="M492 0v150q-29-68-88-119T258-20q-55 0-95 19.5T100 50t-36 81-17 98-4 115v987h342V369q0-58 10.5-80.5T438 266q33 0 43.5 22.5T492 369v962h344V0H492zM143 1479q0 204 164 204 44 0 77.5-15t53.5-36.5 37-43.5 37.5-37 44.5-15q68 0 68 123h102q0-205-164-205-44 0-77.5 15t-53.5 37-37 44-37.5 37-44.5 15q-67 0-67-123H143z"/><glyph glyph-name="Umacron" unicode="Ū" horiz-adv-x="929" d="M465-20Q256-20 151.5 94.5T47 461v1177h365V348q0-43 11-62.5t42-19.5 42 19.5 11 62.5v1290h365V461q0-252-104.5-366.5T465-20zM172 1835v82h584v-82H172z"/><glyph glyph-name="umacron" unicode="ū" horiz-adv-x="880" d="M492 0v150q-29-68-88-119T258-20q-55 0-95 19.5T100 50t-36 81-17 98-4 115v987h342V369q0-58 10.5-80.5T438 266q33 0 43.5 22.5T492 369v962h344V0H492zM143 1528v82h584v-82H143z"/><glyph glyph-name="Ubreve" unicode="Ŭ" horiz-adv-x="929" d="M465-20Q256-20 151.5 94.5T47 461v1177h365V348q0-43 11-62.5t42-19.5 42 19.5 11 62.5v1290h365V461q0-252-104.5-366.5T465-20zM172 1991h102q0-41 19-72t49.5-46.5T404 1850t63-7 62 7 59 22.5 47 46 18 72.5h103q0-64-24.5-110.5t-67-71.5-91.5-36.5-106-11.5-107 11.5-93.5 36.5-69 71.5T172 1991z"/><glyph glyph-name="ubreve" unicode="ŭ" horiz-adv-x="880" d="M492 0v150q-29-68-88-119T258-20q-55 0-95 19.5T100 50t-36 81-17 98-4 115v987h342V369q0-58 10.5-80.5T438 266q33 0 43.5 22.5T492 369v962h344V0H492zM143 1683h103q0-41 19-71.5t49.5-46 61-22.5 62.5-7 62 7 59.5 22.5T607 1611t18 72h102q0-64-24.5-110.5t-67-71.5-91.5-36-106-11q-58 0-107.5 11t-93 36-69 71.5T143 1683z"/><glyph glyph-name="Uring" unicode="Ů" horiz-adv-x="929" d="M465-20Q256-20 151.5 94.5T47 461v1177h365V348q0-43 11-62.5t42-19.5 42 19.5 11 62.5v1290h365V461q0-252-104.5-366.5T465-20zM299 1896q0 71 49.5 118.5T465 2062t116.5-47.5T631 1896t-49-118-117-47-117 47-49 118zm100 0q0-30 17.5-47.5T465 1831q30 0 47.5 17.5T530 1896t-17.5 48-47.5 18-48-18-18-48z"/><glyph glyph-name="uring" unicode="ů" horiz-adv-x="880" d="M492 0v150q-29-68-88-119T258-20q-55 0-95 19.5T100 50t-36 81-17 98-4 115v987h342V369q0-58 10.5-80.5T438 266q33 0 43.5 22.5T492 369v962h344V0H492zM270 1589q0 71 49.5 118.5T436 1755t116.5-47.5T602 1589t-49.5-118.5T436 1423t-116.5 47.5T270 1589zm101 0q0-30 17.5-47.5T436 1524t48 18 18 47q0 30-18 48t-48 18-47.5-18-17.5-48z"/><glyph glyph-name="Uhungarumlaut" unicode="Ű" horiz-adv-x="929" d="M465-20Q256-20 151.5 94.5T47 461v1177h365V348q0-43 11-62.5t42-19.5 42 19.5 11 62.5v1290h365V461q0-252-104.5-366.5T465-20zM274 1761l236 230h123l-215-230H274zm226 0l235 230h123l-215-230H500z"/><glyph glyph-name="uhungarumlaut" unicode="ű" horiz-adv-x="880" d="M492 0v150q-29-68-88-119T258-20q-55 0-95 19.5T100 50t-36 81-17 98-4 115v987h342V369q0-58 10.5-80.5T438 266q33 0 43.5 22.5T492 369v962h344V0H492zM246 1454l235 229h123l-215-229H246zm225 0l236 229h122l-215-229H471z"/><glyph glyph-name="Uogonek" unicode="Ų" horiz-adv-x="929" d="M551-410q-126 0-201.5 48T274-227q0 138 177 207-201 3-302.5 118T47 461v1177h365V348q0-43 11-62.5t42-19.5 42 19.5 11 62.5v1290h365V461Q883 70 616-2 408-68 408-182q0-59 49.5-84T631-291h14l-82-119h-12z"/><glyph glyph-name="uogonek" unicode="ų" horiz-adv-x="880" d="M492 0v150q-29-68-88-119T258-20q-55 0-95 19.5T100 50t-36 81-17 98-4 115v987h342V369q0-58 10.5-80.5T438 266q33 0 43.5 22.5T492 369v962h344V0Q725-34 671.5-78T618-182q0-59 50-84t174-25h14l-82-119h-12q-126 0-201.5 48T485-227Q485-68 723 0H492z"/><glyph glyph-name="Wcircumflex" unicode="Ŵ" horiz-adv-x="1497" d="M190 0L2 1638h354l66-1155 4-51h8l4 51 103 1155h417l103-1155 4-51h8l4 51 64 1155h354L1307 0H829l-71 1069-4 51h-9l-4-51L670 0H190zm267 1761l223 230h143l217-230H907l-155 168-162-168H457z"/><glyph glyph-name="wcircumflex" unicode="ŵ" horiz-adv-x="1267" d="M342 1454l223 229h144l217-229H793l-156 168-162-168H342zM-4 1331h342l63-950 78 950h309l80-952 64 952h340L1106 0H698l-65 946L549 0H162z"/><glyph glyph-name="Ycircumflex" unicode="Ŷ" horiz-adv-x="856" d="M250 0v573L-31 1638h365l86-591 4-52h8l4 52 86 591h365L606 573V0H250zM135 1761l223 230h144l217-230H586l-156 168-162-168H135z"/><glyph glyph-name="ycircumflex" unicode="ŷ" horiz-adv-x="878" d="M489 20v130q-29-68-87.5-119T256-20q-55 0-95 19.5T98 50t-36 81-17 98-4 115v987h342V369q0-58 10.5-80.5T436 266t42.5 22.5T489 369v962h345V20q0-90-5.5-151.5t-20-112.5-38-80.5-63.5-50-92-28-126-7.5H86v297h309q24 0 37.5 3T461-94.5 482.5-54t6.5 74zM145 1454l224 229h143l217-229H596l-156 168-161-168H145z"/><glyph glyph-name="Ydieresis" unicode="Ÿ" horiz-adv-x="856" d="M250 0v573L-31 1638h365l86-591 4-52h8l4 52 86 591h365L606 573V0H250zM86 1833q0 67 43.5 100t110.5 33q64 0 108.5-33.5T393 1833q0-64-44.5-97.5T240 1702q-66 0-110 33.5T86 1833zm377 0q0 67 43 100t110 33q64 0 109-33.5t45-99.5q0-64-45-97.5T616 1702q-66 0-109.5 33.5T463 1833z"/><glyph glyph-name="Zacute" unicode="Ź" horiz-adv-x="772" d="M23 0v297l364 1044H23v297h727v-297L385 297h365V0H23zm71 1839l563 152 21-80-563-150z"/><glyph glyph-name="zacute" unicode="ź" horiz-adv-x="782" d="M23 1331h737v-297L391 297h363V0H29v297l364 737H23v297zm79 201l564 151 20-79-563-150z"/><glyph glyph-name="Zdotaccent" unicode="Ż" horiz-adv-x="772" d="M23 0v297l364 1044H23v297h727v-297L385 297h365V0H23zm202 1878q0 61 40.5 99t121.5 38 121.5-38 40.5-99q0-58-41-95.5T387 1745t-121 37.5-41 95.5z"/><glyph glyph-name="zdotaccent" unicode="ż" horiz-adv-x="782" d="M23 1331h737v-297L391 297h363V0H29v297l364 737H23v297zm178 193q0 135 194 135 195 0 195-135 0-131-195-131-194 0-194 131z"/><glyph glyph-name="Zcaron" unicode="Ž" horiz-adv-x="772" d="M23 0v297l364 1044H23v297h727v-297L385 297h365V0H23zm71 1991h133l162-168 156 168h133l-217-230H317z"/><glyph glyph-name="zcaron" unicode="ž" horiz-adv-x="782" d="M23 1331h737v-297L391 297h363V0H29v297l364 737H23v297zm79 352h134l161-167 156 167h133l-217-229H326z"/><glyph glyph-name="uni0218" unicode="Ș" horiz-adv-x="880" d="M440-20Q25-20 25 479v94h364V348q0-46 12-64t41-18 41.5 18.5T496 348v125q0 59-19 94.5T416 637L256 768Q139 865 81 966.5T23 1219q0 209 108 324.5T442 1659q194 0 302-109t108-305v-137H489v182q0 46-12 64t-41 18q-28 0-39.5-18.5T385 1290v-84q0-59 19-94.5t61-69.5l158-129q49-40 77.5-66.5t63-69.5 53-86 31-105T860 449q0-234-106-351.5T440-20zM330-184q0 52 31 82t81 30q54 0 82.5-35.5T553-205q0-70-52-137T358-453v97q106 21 140 104-30-41-76-41-39 0-65.5 28.5T330-184z"/><glyph glyph-name="uni0219" unicode="ș" horiz-adv-x="851" d="M631 741q71-49 112-93t66-109.5T834 385q0-188-101-296.5T422-20Q337-20 267.5-.5T141 61 52 178.5 20 358v115h355V367q0-56 9.5-78.5T426 266q33 0 44 23t11 78q0 46-20 78t-101 87l-137 95Q121 696 69.5 772T18 971q0 169 102.5 275T430 1352q186 0 292.5-89.5T829 995v-94H477v86q0 38-11 58t-42 20-42-20-11-58q0-35 13-59.5t54-53.5zM309-184q0 52 31.5 82T422-72q54 0 82-35.5t28-97.5q0-70-51.5-137T338-453v97q105 21 139 104-30-41-76-41-39 0-65.5 28.5T309-184z"/><glyph glyph-name="uni021A" unicode="Ț" horiz-adv-x="831" d="M238 0v1341H16v297h799v-297H594V0H238zm65-184q0 52 31.5 82T416-72q54 0 82-35.5t28-97.5q0-70-51.5-137T332-453v97q105 21 139 104-30-41-76-41-39 0-65.5 28.5T303-184z"/><glyph glyph-name="uni021B" unicode="ț" horiz-adv-x="684" d="M662 1331v-297H463V436q0-87 27.5-113t87.5-26h84V0H422q-90 0-149 20.5T180 87t-47.5 109.5T119 356v678H2v297q43 12 71.5 44t41.5 78 17 88.5 3 96.5h346q0-274-141-307h322zM281-166q0 52 31 82.5T393-53q54 0 82.5-35.5T504-186q0-70-52-137T309-434v96q48 9 85.5 36.5T449-233q-30-41-76-41-39 0-65.5 28T281-166z"/><glyph glyph-name="uni0237" unicode="ȷ" horiz-adv-x="438" d="M47 23v1308h344V27q0-86-5-145.5T366.5-230 328-313.5 264.5-368 171-400.5 41-410h-182v297h86q27 0 42.5 3.5t31 16 22 41T47 23z"/><glyph glyph-name="circumflex" unicode="ˆ" horiz-adv-x="993" d="M205 1454l223 229h143l217-229H655l-155 168-162-168H205z"/><glyph glyph-name="caron" unicode="ˇ" horiz-adv-x="993" d="M428 1454l-223 229h133l162-167 155 167h133l-217-229H428z"/><glyph glyph-name="breve" unicode="˘" horiz-adv-x="993" d="M500 1454q-58 0-107.5 11t-93 36-69 71.5T205 1683h102q0-41 19-71.5t49.5-46T437 1543t63-7 62 7 59 22.5 47 45.5 18 72h102q0-64-24.5-110.5T697 1501t-91-36-106-11z"/><glyph glyph-name="dotaccent" unicode="˙" horiz-adv-x="798" d="M399 1393q-194 0-194 131 0 135 194 135 195 0 195-135 0-131-195-131z"/><glyph glyph-name="ring" unicode="˚" horiz-adv-x="741" d="M371 1423q-67 0-116.5 47.5T205 1589t49.5 118.5T371 1755t116.5-47.5T537 1589t-49.5-118.5T371 1423zm-66 166q0-29 17.5-47t48.5-18q30 0 47.5 17.5T436 1589t-17.5 48-47.5 18-48-18-18-48z"/><glyph glyph-name="ogonek" unicode="˛" horiz-adv-x="780" d="M481-410q-126 0-201 48t-75 135Q205-67 442 0h113Q444-34 391-78t-53-104q0-59 49.5-84T561-291h14l-81-119h-13z"/><glyph glyph-name="tilde" unicode="˜" horiz-adv-x="993" d="M205 1479q0 204 164 204 37 0 67-11t48-27 35-35.5 29.5-35.5 30.5-27 39-11q68 0 68 123h102q0-205-163-205-44 0-77.5 15t-53.5 37-37 44-37.5 37-44.5 15q-68 0-68-123H205z"/><glyph glyph-name="hungarumlaut" unicode="˝" horiz-adv-x="993" d="M573 1454H430l236 229h122zm-368 0l235 229h123l-215-229H205z"/><glyph glyph-name="uni1E20" unicode="Ḡ" d="M410-20q-167 0-268 121.5T41 457v700q0 502 418 502t418-502V958H512v330q0 47-12 65.5t-41 18.5-41-18.5-12-65.5V348q0-45 12-63.5t41-18.5 41 18.5 12 61.5v238h-53v272h418V0H733l-49 100Q573-20 410-20zM166 1835v82h584v-82H166z"/><glyph glyph-name="uni1E21" unicode="ḡ" horiz-adv-x="886" d="M498 20v132q-37-78-92.5-125T258-20Q39-20 39 307v754q0 291 221 291 79 0 129-30.5t109-94.5v104h344V23q0-102-8-168.5t-29-121-60.5-84-100-44.5T494-410H113v297h286q26 0 40.5 3t30 15.5 22 40.5 6.5 74zM152 1528v82h583v-82H152zM391 356q0-44 11-65t42-21 42.5 20 11.5 64v625q0 44-11.5 64t-42.5 20-42-21-11-65V356z"/><glyph glyph-name="Wgrave" unicode="Ẁ" horiz-adv-x="1497" d="M190 0L2 1638h354l66-1155 4-51h8l4 51 103 1155h417l103-1155 4-51h8l4 51 64 1155h354L1307 0H829l-71 1069-4 51h-9l-4-51L670 0H190zm267 1911l20 80 563-152-20-78z"/><glyph glyph-name="wgrave" unicode="ẁ" horiz-adv-x="1267" d="M926 1532l-21-78-563 150 20 79zM-4 1331h342l63-950 78 950h309l80-952 64 952h340L1106 0H698l-65 946L549 0H162z"/><glyph glyph-name="Wacute" unicode="Ẃ" horiz-adv-x="1497" d="M190 0L2 1638h354l66-1155 4-51h8l4 51 103 1155h417l103-1155 4-51h8l4 51 64 1155h354L1307 0H829l-71 1069-4 51h-9l-4-51L670 0H190zm267 1839l563 152 20-80-563-150z"/><glyph glyph-name="wacute" unicode="ẃ" horiz-adv-x="1267" d="M362 1454l-20 78 563 151 21-79zM-4 1331h342l63-950 78 950h309l80-952 64 952h340L1106 0H698l-65 946L549 0H162z"/><glyph glyph-name="Wdieresis" unicode="Ẅ" horiz-adv-x="1497" d="M190 0L2 1638h354l66-1155 4-51h8l4 51 103 1155h417l103-1155 4-51h8l4 51 64 1155h354L1307 0H829l-71 1069-4 51h-9l-4-51L670 0H190zm218 1833q0 67 43 100t110 33q64 0 109-33.5t45-99.5q0-64-45-97.5T561 1702q-66 0-109.5 33.5T408 1833zm376 0q0 67 43.5 100t110.5 33q64 0 109-33.5t45-99.5q0-64-45-97.5T938 1702q-66 0-110 33.5t-44 97.5z"/><glyph glyph-name="wdieresis" unicode="ẅ" horiz-adv-x="1267" d="M823 1395q-66 0-109.5 33.5T670 1526q0 67 43 100t110 33q64 0 109-33.5t45-99.5q0-64-45-97.5T823 1395zm-827-64h342l63-950 78 950h309l80-952 64 952h340L1106 0H698l-65 946L549 0H162zm297 195q0 67 43 100t110 33q64 0 109-33.5t45-99.5q0-64-45-97.5T446 1395q-66 0-109.5 33.5T293 1526z"/><glyph glyph-name="uni1E9E" unicode="ẞ" horiz-adv-x="890" d="M49 1264q0 191 92.5 282.5T444 1638h408q-9-251-32-400t-57.5-215-90.5-91q95-32 139.5-119.5T856 569V399Q856 0 516 0h-86v287l27 2q30 3 39.5 23t9.5 77v279q0 56-8.5 75.5T463 766l-33 4v287l21 2q19 2 26.5 6.5T493 1101t12.5 85.5T516 1356h-70q-32 0-42.5-22.5T393 1253V0H49v1264z"/><glyph glyph-name="uni1EBC" unicode="Ẽ" horiz-adv-x="741" d="M51 0v1638h656v-297H408V967h278V672H408V297h299V0H51zm35 1786q0 205 164 205 44 0 77.5-15t53.5-37 37-44 37.5-37 44.5-15q67 0 67 123h103q0-205-164-205-44 0-77.5 15t-53.5 37-37 44-37.5 37-44.5 15q-68 0-68-123H86z"/><glyph glyph-name="uni1EBD" unicode="ẽ" horiz-adv-x="876" d="M145 1479q0 204 164 204 44 0 77.5-15t53.5-36.5 37-43.5 37.5-37 44.5-15q68 0 68 123h102q0-205-164-205-44 0-77.5 15t-53.5 37-37 44-37.5 37-44.5 15q-67 0-67-123H145zM33 457v417q0 251 102 364.5T438 1352q200 0 303-113.5T844 874V571H385V369q0-59 9.5-81t43.5-22q33 0 43.5 22.5T492 369v120h352v-32q0-251-103-364T438-20Q237-20 135 93T33 457zm352 362h107v144q0 58-10.5 80t-43.5 22q-34 0-43.5-21.5T385 963V819z"/><glyph glyph-name="Ygrave" unicode="Ỳ" horiz-adv-x="856" d="M250 0v573L-31 1638h365l86-591 4-52h8l4 52 86 591h365L606 573V0H250zM135 1911l21 80 563-152-21-78z"/><glyph glyph-name="ygrave" unicode="ỳ" horiz-adv-x="878" d="M489 20v130q-29-68-87.5-119T256-20q-55 0-95 19.5T98 50t-36 81-17 98-4 115v987h342V369q0-58 10.5-80.5T436 266t42.5 22.5T489 369v962h345V20q0-90-5.5-151.5t-20-112.5-38-80.5-63.5-50-92-28-126-7.5H86v297h309q24 0 37.5 3T461-94.5 482.5-54t6.5 74zM145 1604l21 79 563-151-20-78z"/><glyph glyph-name="uni1EF8" unicode="Ỹ" horiz-adv-x="856" d="M250 0v573L-31 1638h365l86-591 4-52h8l4 52 86 591h365L606 573V0H250zM135 1786q0 205 164 205 44 0 77.5-15t53.5-37 37-44 37.5-37 44.5-15q67 0 67 123h103q0-205-164-205-44 0-77.5 15t-53.5 37-37 44-37.5 37-44.5 15q-67 0-67-123H135z"/><glyph glyph-name="uni1EF9" unicode="ỹ" horiz-adv-x="878" d="M489 20v130q-29-68-87.5-119T256-20q-55 0-95 19.5T98 50t-36 81-17 98-4 115v987h342V369q0-58 10.5-80.5T436 266t42.5 22.5T489 369v962h345V20q0-90-5.5-151.5t-20-112.5-38-80.5-63.5-50-92-28-126-7.5H86v297h309q24 0 37.5 3T461-94.5 482.5-54t6.5 74zM145 1479q0 204 164 204 44 0 77.5-15t53.5-36.5 37-43.5 37.5-37 44.5-15q68 0 68 123h102q0-205-164-205-44 0-77.5 15t-53.5 37-37 44-37.5 37-44.5 15q-67 0-67-123H145z"/><glyph glyph-name="uni2000" horiz-adv-x="1024"/><glyph glyph-name="uni2001" horiz-adv-x="2048"/><glyph glyph-name="uni2002" horiz-adv-x="1024"/><glyph glyph-name="uni2003" horiz-adv-x="2048"/><glyph glyph-name="uni2004" horiz-adv-x="681"/><glyph glyph-name="uni2005" horiz-adv-x="512"/><glyph glyph-name="uni2006" horiz-adv-x="342"/><glyph glyph-name="uni2007"/><glyph glyph-name="uni2008" horiz-adv-x="405"/><glyph glyph-name="uni2009" horiz-adv-x="256"/><glyph glyph-name="uni200A" horiz-adv-x="86"/><glyph glyph-name="uni200B" unicode="​" horiz-adv-x="0"/><glyph glyph-name="endash" unicode="–" horiz-adv-x="1224" d="M18 729h1188V623H18v106z"/><glyph glyph-name="emdash" unicode="—" horiz-adv-x="2084" d="M18 729h2048V623H18v106z"/><glyph glyph-name="quoteleft" unicode="‘" horiz-adv-x="251" d="M176 1147H12l82 512h144z"/><glyph glyph-name="quoteright" unicode="’" horiz-adv-x="251" d="M80 1659h164l-82-512H18z"/><glyph glyph-name="quotesinglbase" unicode="‚" horiz-adv-x="235" d="M53 266h164l-82-512H-8z"/><glyph glyph-name="quotedblleft" unicode="“" horiz-adv-x="477" d="M401 1147H238l81 512h144zm-389 2l82 512h144l-62-512H12z"/><glyph glyph-name="quotedblright" unicode="”" horiz-adv-x="477" d="M80 1659h164l-82-512H18zm164-514l61 512h164l-82-512H244z"/><glyph glyph-name="quotedblbase" unicode="„" horiz-adv-x="460" d="M53 266h164l-82-512H-8zm164-514l62 512h163l-82-512H217z"/><glyph glyph-name="dagger" unicode="†" horiz-adv-x="397" d="M147 635v604H31v92h116v307h103v-307h117v-92H250V635H147z"/><glyph glyph-name="daggerdbl" unicode="‡" horiz-adv-x="417" d="M158 635v287H41v92h117v225H41v92h117v307h102v-307h117v-92H260v-225h117v-92H260V635H158z"/><glyph glyph-name="bullet" unicode="•" horiz-adv-x="794" d="M401 371q-135 0-227 86.5T82 682q0 144 91.5 231.5T401 1001q134 0 223-87.5T713 682q0-138-89.5-224.5T401 371z"/><glyph glyph-name="ellipsis" unicode="…" horiz-adv-x="1251" d="M205-20q-79 0-133 50.5T18 162q0 84 54 135t133 51q78 0 130-51t52-135q0-82-52-132T205-20zm237 182q0 84 54 135t133 51q78 0 130-51t52-135q0-82-52-132T629-20q-79 0-133 50.5T442 162zm422 0q0 84 54 135t133 51q78 0 130-51t52-135q0-82-52-132t-130-50q-79 0-133 50.5T864 162z"/><glyph glyph-name="uni202F" horiz-adv-x="307"/><glyph glyph-name="perthousand" unicode="‰" horiz-adv-x="2048" d="M1718-20q-84 0-146.5 32.5t-97 87-51 117T1407 348t16.5 131.5 51 117.5 97 87.5T1718 717t146.5-32.5T1962 597t51.5-117.5T2030 348t-16.5-131.5-51.5-117-97.5-87T1718-20zM18 1290q0 69 16.5 131.5T86 1539t97.5 87.5T330 1659t146.5-32.5 97-87.5 51-117.5T641 1290t-16.5-131.5-51-117-97-87T330 922t-146.5 32.5-97.5 87-51.5 117T18 1290zm226 0q0-86 17.5-119.5T330 1137t68.5 33.5T416 1290t-17.5 120-68.5 34-68.5-34-17.5-120zM322 0l608 1638h108L430 0H322zm401 348q0 69 16.5 131.5t51 117.5 97 87.5T1034 717t146.5-32.5T1278 597t51.5-117.5T1346 348t-16.5-131.5-51.5-117-97.5-87T1034-20 887.5 12.5t-97 87-51 117T723 348zm225 0q0-86 17.5-119.5T1034 195t68.5 33.5T1120 348t-17.5 120-68.5 34-68.5-34T948 348zm684 0q0-86 17.5-119.5T1718 195t68.5 33.5T1804 348t-17.5 120-68.5 34-68.5-34-17.5-120z"/><glyph glyph-name="second" unicode="″" horiz-adv-x="471" d="M41 1638h164v-512H41v512zm225-512v512h164v-512H266z"/><glyph glyph-name="guilsinglleft" unicode="‹" horiz-adv-x="407" d="M346 268L41 625v102l305 356V920L139 676l207-244V268z"/><glyph glyph-name="guilsinglright" unicode="›" horiz-adv-x="407" d="M61 268v164l207 244L61 920v163l306-356V625z"/><glyph glyph-name="fraction" unicode="⁄" horiz-adv-x="163" d="M438 1638L-170 0h-104l608 1638h104z"/><glyph glyph-name="uni205F" horiz-adv-x="454"/><glyph glyph-name="uni2070" unicode="⁰" horiz-adv-x="483" d="M242 655Q33 655 33 907v338q0 250 209 250t209-250V907q0-252-209-252zm-27 185q0-41 27-41 16 0 21 9.5t5 31.5v198l-53-88V840zm0 268l53 88v113q0 24-5 33.5t-21 9.5q-27 0-27-41v-203z"/><glyph glyph-name="uni2074" unicode="⁴" horiz-adv-x="458" d="M399 1485V950h35V803h-35V666H221v137H14v172l219 510h166zM123 950h98v256z"/><glyph glyph-name="uni2075" unicode="⁵" horiz-adv-x="468" d="M309 1214q135 0 135-200v-82q0-144-52.5-210.5T233 655Q27 655 27 893v29h182v-80q0-43 27-43 16 0 21 10t5 33v168q0 28-5 39.5t-19 11.5q-29 0-29-51H33l20 475h359v-148H213l-10-182q33 59 106 59z"/><glyph glyph-name="uni2076" unicode="⁶" horiz-adv-x="479" d="M238 655Q33 655 33 918v272q0 165 51.5 235t159.5 70q200 0 200-213v-22H266v20q0 43-24 43-16 0-21.5-10t-5.5-31v-115q36 47 98 47 138 0 138-210V901q0-122-55.5-184T238 655zm-23 187q0-22 5.5-32.5T244 799q24 0 24 43v176q0 22-5 32.5t-21 10.5-21.5-10.5-5.5-32.5V842z"/><glyph glyph-name="uni2077" unicode="⁷" horiz-adv-x="391" d="M10 1337v148h365v-148q-31-58-53.5-116.5t-35-120T266 996t-10.5-108-3-89-.5-86v-47H74v47q0 98 8 180t44 206.5T227 1337H10z"/><glyph glyph-name="uni2078" unicode="⁸" horiz-adv-x="475" d="M238 655Q29 655 29 864v37q0 94 34 142t84 57q-49 9-82.5 50.5T31 1274v24q0 96 53 146.5t154 50.5 154.5-51 53.5-146v-24q0-82-33.5-123.5T330 1100q48-9 82-57t34-142v-37q0-209-208-209zm-27 187q0-43 27-43 16 0 21 9.5t5 33.5v135q0 22-5 32.5t-21 10.5q-27 0-27-43V842zm0 370q0-41 27-41 26 0 26 43v95q0 24-5 33.5t-21 9.5q-27 0-27-41v-99z"/><glyph glyph-name="uni2079" unicode="⁹" horiz-adv-x="479" d="M244 1495q202 0 202-260V961q0-164-50.5-235T238 655Q37 655 37 868v25h178v-23q0-43 25-43 24 0 24 43v113q-38-47-98-47-137 0-137 211v104q0 122 56.5 183t158.5 61zm-33-360q0-22 5.5-32.5T238 1092t21 9.5 5 31.5v178q0 21-5 31t-21 10-21.5-10.5-5.5-32.5v-174z"/><glyph glyph-name="uni2080" unicode="₀" horiz-adv-x="483" d="M242-266Q33-266 33-14v338q0 249 209 249t209-249V-14q0-252-209-252zM215-82q0-41 27-41 16 0 21 9.5t5 31.5v199l-53-88V-82zm0 268l53 88v113q0 24-5 33.5t-21 9.5q-27 0-27-41V186z"/><glyph glyph-name="uni2081" unicode="₁" horiz-adv-x="411" d="M27-109h98v471q-8-12-14-18t-28.5-12-59.5-6v159q95 0 127 78h153v-672h98v-147H27v147z"/><glyph glyph-name="uni2082" unicode="₂" horiz-adv-x="468" d="M29-88q0 199 141 274l31 17q35 19 49 51.5t14 97.5v35q0 24-5 33.5t-21 9.5q-27 0-27-41v-94H29v61q0 104 55 160.5T238 573t153.5-59.5T446 338q0-177-124-260l-54-35q-37-24-47-57t-10-95h231v-147H29v168z"/><glyph glyph-name="uni2083" unicode="₃" horiz-adv-x="462" d="M233-266q-105 0-157.5 52T23-47V0h178v-80q0-23 6-33t22-10q27 0 27 43V41q0 23-5.5 33T229 84h-77v149h75q27 0 27 43v111q0 23-5.5 33T227 430q-26 0-26-41v-72H23v41q0 215 206 215 57 0 98-19.5t60.5-43.5 30.5-58 12.5-50.5T432 369v-27q0-70-23.5-110.5T338 170q96-46 96-180v-25q0-118-49-174.5T233-266z"/><glyph glyph-name="uni2084" unicode="₄" horiz-adv-x="458" d="M399 563V29h35v-148h-35v-137H221v137H14V53l219 510h166zM123 29h98v256z"/><glyph glyph-name="uni2085" unicode="₅" horiz-adv-x="468" d="M309 293q135 0 135-201V10q0-144-52.5-210T233-266Q27-266 27-29V0h182v-80q0-43 27-43 16 0 21 10t5 33V88q0 28-5 39.5T238 139q-29 0-29-51H33l20 475h359V416H213l-10-183q34 60 106 60z"/><glyph glyph-name="uni2086" unicode="₆" horiz-adv-x="479" d="M238-266Q33-266 33-4v272q0 165 51.5 235T244 573q200 0 200-213v-22H266v20q0 43-24 43-16 0-21.5-10t-5.5-31V246q36 47 98 47 138 0 138-211V-20q0-122-55.5-184T238-266zM215-80q0-22 5.5-32.5T244-123q24 0 24 43V96q0 22-5 32.5T242 139t-21.5-10.5T215 96V-80z"/><glyph glyph-name="uni2087" unicode="₇" horiz-adv-x="391" d="M10 416v147h365V416q-31-58-53.5-116.5t-35-120-20.5-105T255.5-34t-3-89-.5-86v-47H74v47q0 98 8 180.5t44 207T227 416H10z"/><glyph glyph-name="uni2088" unicode="₈" horiz-adv-x="475" d="M238-266Q29-266 29-57v37q0 94 34 141.5t84 56.5q-49 9-82.5 50.5T31 352v25q0 95 53 145.5T238 573t154.5-50.5T446 377v-25q0-82-33.5-123.5T330 178q48-9 82-56.5T446-20v-37q0-209-208-209zM211-80q0-43 27-43 16 0 21 9.5t5 33.5V55q0 22-5 32.5T238 98q-27 0-27-43V-80zm0 371q0-41 27-41 26 0 26 43v94q0 24-5 33.5t-21 9.5q-27 0-27-41v-98z"/><glyph glyph-name="uni2089" unicode="₉" horiz-adv-x="479" d="M244 573q202 0 202-260V39q0-164-50.5-234.5T238-266Q37-266 37-53v24h178v-22q0-43 25-43 24 0 24 43V61q-38-47-98-47Q29 14 29 225v105q0 122 56.5 182.5T244 573zm-33-360q0-22 5.5-32.5T238 170t21 9.5 5 31.5v178q0 21-5 31t-21 10-21.5-10.5T211 387V213z"/><glyph glyph-name="Euro" unicode="€" horiz-adv-x="1026" d="M47 717v82h94v41H47v82h94v235q0 502 418 502t418-502V973H612v315q0 47-12 65.5t-41 18.5-41-18.5-12-65.5V922h180v-82H506v-41h180v-82H506V348q0-46 12-64t41-18 41 18 12 64v318h365V481q0-501-418-501T141 481v236H47z"/><glyph glyph-name="trademark" unicode="™" horiz-adv-x="1142" d="M481 799v839h207l94-508 99 508h202V799H901v413l-55-413H723l-59 426V799H481zM20 1454v184h418v-184H322V799H137v655H20z"/><glyph glyph-name="oneeighth" unicode="⅛" horiz-adv-x="1075" d="M33 967h98v471q-8-13-14-18.5t-28.5-12T29 1401v160q95 0 127 77h153V967h99V819H33v148zM162 0l608 1638h104L266 0H162zm469 199v37q0 94 34.5 141.5T750 434q-50 9-83.5 50.5T633 608v25q0 95 53 145.5T840 829t155-50.5 54-145.5v-25q0-82-33.5-123.5T932 434q49-9 83-56.5t34-141.5v-37q0-209-209-209T631 199zm182-23q0-43 27-43 16 0 21 9.5t5 33.5v135q0 22-5 32.5T840 354q-27 0-27-43V176zm0 371q0-41 27-41 26 0 26 43v94q0 24-5 33.5t-21 9.5q-27 0-27-41v-98z"/><glyph glyph-name="threeeighths" unicode="⅜" horiz-adv-x="1112" d="M240 809q-105 0-158 52.5T29 1028v47h178v-80q0-23 6-33t23-10q16 0 21 10.5t5 32.5v121q0 24-5 33.5t-21 9.5h-78v150h75q27 0 27 43v110q0 23-5.5 33t-21.5 10q-26 0-26-41v-71H29v41q0 215 207 215 48 0 84.5-12.5t57.5-35 34.5-44 18-49 6-39.5 1.5-25v-27q0-70-23.5-110.5T344 1245q96-46 96-180v-25q0-119-48.5-175T240 809zM197 0l608 1638h104L301 0H197zm469 199v37q0 94 34 141.5t84 56.5q-49 9-82.5 50.5T668 608v25q0 96 52.5 146T874 829t155-50.5 54-145.5v-25q0-82-33.5-123.5T967 434q48-9 82-56.5t34-141.5v-37q0-209-209-209-208 0-208 209zm182-23q0-43 26-43 16 0 21.5 10t5.5 33v135q0 43-27 43-26 0-26-43V176zm0 371q0-41 26-41 27 0 27 43v94q0 23-5.5 33T874 686q-26 0-26-41v-98z"/><glyph glyph-name="fiveeighths" unicode="⅝" horiz-adv-x="1110" d="M305 1368q135 0 135-201v-82q0-144-52.5-210T229 809q-206 0-206 238v28h182v-80q0-43 26-43 16 0 21.5 10.5T258 995v168q0 27-5.5 39t-19.5 12q-28 0-28-51H29l20 475h359v-147H209l-10-182q33 59 106 59zM197 0l608 1638h104L301 0H197zm469 199v37q0 94 34 141.5t84 56.5q-49 9-82.5 50.5T668 608v25q0 96 52.5 146T874 829t155-50.5 54-145.5v-25q0-82-33.5-123.5T967 434q48-9 82-56.5t34-141.5v-37q0-209-209-209-208 0-208 209zm182-23q0-43 26-43 16 0 21.5 10t5.5 33v135q0 43-27 43-26 0-26-43V176zm0 371q0-41 26-41 27 0 27 43v94q0 23-5.5 33T874 686q-26 0-26-41v-98z"/><glyph glyph-name="seveneighths" unicode="⅞" horiz-adv-x="1056" d="M20 1491v147h365v-147q-31-58-53.5-116.5t-35-120-20.5-105-10.5-108.5-3-89-.5-86v-47H84v47q0 71 5 133t19.5 144.5T156 1315t82 176H20zM139 0l609 1638h104L244 0H139zm469 199v37q0 94 34.5 141.5T727 434q-50 9-83.5 50.5T610 608v25q0 95 53 145.5T817 829t155-50.5 54-145.5v-25q0-82-33.5-123.5T909 434q49-9 83-56.5t34-141.5v-37q0-209-209-209T608 199zm183-23q0-43 26-43 16 0 21.5 10t5.5 33v135q0 43-27 43-26 0-26-43V176zm0 371q0-41 26-41 27 0 27 43v94q0 23-5.5 33T817 686q-26 0-26-41v-98z"/><glyph glyph-name="arrowleft" unicode="←" horiz-adv-x="909" d="M178 635q222-111 246-359H322q-14 127-98 221T35 635v82q106 44 189.5 137.5T322 1075h102q-24-247-246-358h696v-82H178z"/><glyph glyph-name="arrowup" unicode="↑" horiz-adv-x="864" d="M473 152h-82v696Q280 626 33 602v103q127 14 220.5 97.5T391 991h82q44-105 137.5-188.5T831 705V602q-247 24-358 246V152z"/><glyph glyph-name="arrowright" unicode="→" horiz-adv-x="909" d="M35 635v82h696q-222 111-246 358h103q14-127 97.5-220.5T874 717v-82q-105-44-188.5-138T588 276H485q24 248 246 359H35z"/><glyph glyph-name="arrowdown" unicode="↓" horiz-adv-x="864" d="M391 1202h82V506q111 222 358 246V649q-127-14-220.5-97.5T473 362h-82q-44 106-137.5 189.5T33 649v103q247-24 358-246v696z"/><glyph glyph-name="arrowboth" unicode="↔" horiz-adv-x="1155" d="M35 737q104 35 188.5 127.5T322 1085h102q-7-73-32-134t-61-102-73.5-68-79.5-44h799q-42 17-79.5 44T824 849t-61 102-32 134h103q14-128 98.5-221T1120 737V635q-103-34-187.5-127T834 287H731q7 73 32 134t61 102 73.5 68 79.5 44H178q42-17 79.5-44t73.5-68 61-102 32-134H322q-14 128-98.5 220.5T35 635v102z"/><glyph glyph-name="arrowupdn" unicode="↕" horiz-adv-x="860" d="M481 1231q35-104 127.5-188.5T829 944V842q-140 14-225.5 84T481 1087V289q17 42 44 79.5t68 73.5 102 61 134 32V432q-128-14-220.5-98.5T481 145H379q-35 104-127.5 188.5T31 432v103q73-7 134-32t102-61 68-73.5 44-79.5v798q-37-91-122.5-161T31 842v102q128 14 220.5 98.5T379 1231h102z"/><glyph glyph-name="uni2196" unicode="↖" horiz-adv-x="749" d="M727 416l-57-58-492 492q75-234-80-426l-73 72q55 68 75.5 155t12 160.5T76 952l57 58q67-27 140.5-35.5t161 11.5 155.5 75l72-72q-192-159-426-80z"/><glyph glyph-name="uni2197" unicode="↗" horiz-adv-x="749" d="M80 358l-57 58 491 491q-234-75-426 80l72 74q68-55 155-75.5t160.5-12T616 1010l58-58q-27-67-35.5-140.5T650 651t75-155l-72-72q-159 192-80 426z"/><glyph glyph-name="uni2198" unicode="↘" horiz-adv-x="751" d="M23 1047l57 57 491-492q-75 234 80 426l74-71q-55-68-75.5-155t-12-161T674 510l-58-57q-67 27-140.5 35.5t-160.5-12T160 401l-72 72q192 159 426 80z"/><glyph glyph-name="uni2199" unicode="↙" horiz-adv-x="753" d="M672 1104l57-57-491-492q234 75 426-80l-72-74q-68 55-155 76t-161.5 12.5T135 453l-57 57q27 67 35.5 140.5t-11.5 161T27 967l71 71q159-192 80-426z"/><glyph glyph-name="uni21E7" unicode="⇧" horiz-adv-x="1654" d="M459-14v604H33l794 883 795-883h-426V-14H459zM262 692h299V88h533v604h299l-566 629z"/><glyph glyph-name="partialdiff" unicode="∂" horiz-adv-x="944" d="M461-225q-95 0-178.5 37.5T138-83 41.5 83 6 299q0 70 13.5 136.5t46 132.5 81 115 124 79.5T440 793q116 0 204.5-49T788 610q-50 259-193.5 431T205 1319l41 94q120-52 217-117.5T646 1135t144-211 91.5-271.5T915 313q0-244-124-391T461-225zM109 299q0-195 101.5-314.5T461-135q165 0 258.5 125.5T813 313q0 86-23.5 154.5T728 579t-88 71.5-99.5 40T440 702q-81 0-145.5-32t-104-88T130 454t-21-155z"/><glyph glyph-name="emptyset" unicode="∅" horiz-adv-x="1196" d="M600 266q-69 0-149 17L346 0H242l116 313q-149 63-231 200T45 821q0 112 37.5 211.5t106 175.5 175 120 236.5 44q73 0 145-16l105 282h104l-116-311q149-63 231-199.5t82-306.5q0-114-37-214t-105.5-176T834 310.5 600 266zM147 821q0-141 61.5-255T389 397l324 875q-58 10-113 10-113 0-201.5-37.5T256 1142t-81.5-146.5T147 821zm336-452q57-13 117-13 90 0 164.5 25T891 449t88 102 53 127 17 143q0 91-25.5 171.5t-81 146.5T807 1241z"/><glyph glyph-name="product" unicode="∏" horiz-adv-x="872" d="M590-225v1554H285V-225H182v1554H16v86h840v-86H692V-225H590z"/><glyph glyph-name="summation" unicode="∑" horiz-adv-x="890" d="M27-236v82l440 746-440 749v82h839v-82H141l441-747-441-748h725v-82H27z"/><glyph glyph-name="minus" unicode="−" horiz-adv-x="913" d="M37 858h840v-86H37v86z"/><glyph glyph-name="radical" unicode="√" horiz-adv-x="1095" d="M324-225L33 508h108l246-631 326 1536h360v-82H795L461-225H324z"/><glyph glyph-name="infinity" unicode="∞" horiz-adv-x="1163" d="M899 410q-80 0-155 52T582 606q-87-92-162.5-144T264 410q-40 0-78.5 14.5t-72 44.5-54 83.5T39 676t20.5 123.5 54 83.5 72 44.5T264 942q80 0 155.5-52T582 745q87 93 162 145t155 52q40 0 78.5-14.5t72-44.5 54-83.5T1124 676t-20.5-123.5-54-83.5-72-44.5T899 410zM141 676q0-164 133-164 54 0 109 41.5T516 676q-78 81-133 122.5T274 840q-133 0-133-164zm506 0q77-80 133.5-122T891 512q131 0 131 164T891 840q-54 0-110.5-42T647 676z"/><glyph glyph-name="integral" unicode="∫" horiz-adv-x="643" d="M16-225v84h37q71 0 115 15.5t66 50 29 75 7 106.5v971q0 61 7 107t27.5 91 55 74 93 46.5T590 1413h37v-84h-37q-71 0-115-15.5t-66-50.5-29-75.5-7-106.5V111q0-61-7-107t-27.5-91-55-74-93-46.5T53-225H16z"/><glyph glyph-name="approxequal" unicode="≈" horiz-adv-x="927" d="M45 891q0 69 19.5 116.5t53 69.5 65 30.5 67.5 8.5q67 0 131.5-29t107-63 94.5-63 97-29q47 0 74.5 31.5T782 1055h103q0-56-14-98t-34.5-66-49.5-38.5-54-19-53-4.5q-67 0-131.5 29t-107 63.5T347 985t-97 29q-47 0-75-31.5T147 891H45zm0-328q0 69 19.5 116.5t53 69.5 65 30.5T250 788q67 0 131.5-29t107-63 94.5-63 97-29q47 0 74.5 31.5T782 727h103q0-69-19.5-116.5t-53-69.5-65-30.5T680 502q-67 0-131.5 29t-107 63-94.5 63-97 29q-47 0-75-31.5T147 563H45z"/><glyph glyph-name="notequal" unicode="≠" horiz-adv-x="942" d="M231 295l140 371H51v86h350l45 118H51v86h426l139 371h103L580 956h311v-86H549l-45-118h387v-86H473L334 295H231z"/><glyph glyph-name="lessequal" unicode="≤" horiz-adv-x="923" d="M39 881l840 325v-102L182 840l697-265V418H39v86h760L39 799v82z"/><glyph glyph-name="greaterequal" unicode="≥" horiz-adv-x="923" d="M45 575l696 265-696 264v102l840-325v-82L125 504h760v-86H45v157z"/><glyph glyph-name="uni2317" unicode="⌗" horiz-adv-x="1486" d="M78 887v102h393v393h102V989h340v393h103V989h393V887h-393V547h393V444h-393V51H913v393H573V51H471v393H78v103h393v340H78zm495-340h340v340H573V547z"/><glyph glyph-name="uni2318" unicode="⌘" horiz-adv-x="1572" d="M356 14q-124 0-198 74T84 287q0 134 91.5 208T446 569h91v295h-91q-178 0-270 74.5T84 1147q0 125 74 198.5t198 73.5q134 0 208.5-92t74.5-270v-90h295v90q0 178 74.5 270t208.5 92q125 0 198.5-73.5T1489 1147q0-134-92-208.5T1126 864h-90V569h90q179 0 271-74t92-208q0-125-74-199t-198-74q-134 0-208.5 92T934 377v90H639v-90q0-179-74.5-271T356 14zM186 287q0-88 41-129t129-41q96 0 138.5 59T537 377v90h-91q-142 0-201-42.5T186 287zm0 860q0-95 59-137.5T446 967h91v90q0 142-42.5 201T356 1317q-88 0-129-41t-41-129zm453-578h295v295H639V569zm397-192q0-142 42.5-201t138.5-59q88 0 128.5 41t40.5 129q0 95-59 137.5T1126 467h-90v-90zm0 590h90q142 0 201 42.5t59 137.5q0 88-40.5 129t-128.5 41q-96 0-138.5-59t-42.5-201v-90z"/><glyph glyph-name="uni2325" unicode="⌥" horiz-adv-x="1560" d="M848 115L358 1217H25v102h399L915 217h541V115H848zm-88 1102v102h696v-102H760z"/><glyph glyph-name="filledbox" unicode="■" horiz-adv-x="1241" d="M61 158v1118h1119V158H61z"/><glyph glyph-name="uni25A1" unicode="□" horiz-adv-x="1241" d="M61 158v1118h1119V158H61zm103 102h913v914H164V260z"/><glyph glyph-name="triagup" unicode="▲" horiz-adv-x="1398" d="M18 31l682 1179L1380 31H18z"/><glyph glyph-name="uni25B3" unicode="△" horiz-adv-x="1454" d="M16 31l711 1231L1438 31H16zm177 102h1067l-533 924z"/><glyph glyph-name="uni25B6" unicode="▶" horiz-adv-x="1282" d="M72 1393l1179-680L72 31v1362z"/><glyph glyph-name="uni25B7" unicode="▷" horiz-adv-x="1335" d="M70-6v1421l1230-710zm102 176l924 535-924 532V170z"/><glyph glyph-name="triagdn" unicode="▼" horiz-adv-x="1398" d="M1380 1210L698 31 18 1210h1362z"/><glyph glyph-name="uni25BD" unicode="▽" horiz-adv-x="1454" d="M727-20L16 1210h1422zM195 1108l532-924 535 924H195z"/><glyph glyph-name="uni25C0" unicode="◀" horiz-adv-x="1282" d="M1210 31L31 713l1179 680V31z"/><glyph glyph-name="uni25C1" unicode="◁" horiz-adv-x="1335" d="M1266-6L35 705l1231 710V-6zM240 705l923-535v1067z"/><glyph glyph-name="uni25C6" unicode="◆" horiz-adv-x="1411" d="M707 51L39 717l668 667 665-667z"/><glyph glyph-name="uni25C7" unicode="◇" horiz-adv-x="1452" d="M725 29L39 717l688 688 686-688zM182 717l545-543 543 543-545 543z"/><glyph glyph-name="lozenge" unicode="◊" horiz-adv-x="724" d="M289 1280h147l250-614L436 51H289L39 666zM150 666l212-525 213 525-213 524z"/><glyph glyph-name="circle" unicode="○" horiz-adv-x="1337" d="M670 92q-170 0-314 84T128.5 404 45 717q0 127 49.5 242.5t133 199 199.5 133 243 49.5 242-49.5 198.5-133 132.5-199 49-242.5q0-169-83-313T982.5 176 670 92zM147 717q0-145 69-264.5T405 265t265-68q144 0 263.5 68t188 187.5T1190 717t-68.5 264.5-188 187.5-263.5 68q-145 0-265-68T216 981.5 147 717z"/><glyph glyph-name="uni25CF" unicode="●" horiz-adv-x="1337" d="M670 94q-170 0-314 83.5t-227.5 227T45 717q0 127 49.5 242.5t133 199 199.5 133 243 49.5 242-49.5 198.5-133 132.5-199 49-242.5q0-169-83-312.5t-226.5-227T670 94z"/><glyph glyph-name="uni2B1B" unicode="⬛" horiz-adv-x="2084" d="M182-143v1720h1721V-143H182z"/><glyph glyph-name="uni2B1C" unicode="⬜" horiz-adv-x="2084" d="M182-143v1720h1721V-143H182zM285-41h1515v1516H285V-41z"/><glyph glyph-name="uni2B98" unicode="⮘" horiz-adv-x="1435" d="M1362-39L74 705l1288 743-322-743zM279 705h649l217 499z"/><glyph glyph-name="uni2B99" unicode="⮙" horiz-adv-x="1523" d="M18-27l744 1289L1505-27 762 295zm744 435l500-218-500 867V408z"/><glyph glyph-name="uni2B9A" unicode="⮚" horiz-adv-x="1435" d="M74-39l321 744-321 743 1288-743zm217 1243l217-499h649z"/><glyph glyph-name="uni2B9B" unicode="⮛" horiz-adv-x="1527" d="M764-20L20 1268l744-322 743 322zM264 1051l500-867v650z"/><glyph glyph-name="uni2B9C" unicode="⮜" horiz-adv-x="1331" d="M1251 31L72 713l1179 680-295-680z"/><glyph glyph-name="uni2B9D" unicode="⮝" horiz-adv-x="1406" d="M23 31l682 1179L1384 31 705 326z"/><glyph glyph-name="uni2B9E" unicode="⮞" horiz-adv-x="1331" d="M80 31l295 682-295 680 1180-680z"/><glyph glyph-name="uni2B9F" unicode="⮟" horiz-adv-x="1411" d="M705 31L25 1210l680-295 681 295z"/><glyph glyph-name="uni3000" horiz-adv-x="2048"/><glyph glyph-name="uni004A0301" horiz-adv-x="894" d="M430-20Q12-20 12 481v88h365V348q0-46 12-64t41-18 41 18 12 64v1290h365V481q0-501-418-501zm-65 1859l563 152 20-80-563-150z"/><glyph glyph-name="I.bracket" horiz-adv-x="602" d="M123 0v1638h356V0H123z"/><glyph glyph-name="A.ss01" horiz-adv-x="1847" d="M-14 0l694 1638h485L1862 0h-381l-115 274H479L365 0H-14zm624 592h623l-289 692-22 57-23-57z"/><glyph glyph-name="Aacute.ss01" horiz-adv-x="1847" d="M-14 0l694 1638h485L1862 0h-381l-115 274H479L365 0H-14zm379 1839l1095 152 21-80-1096-152zM610 592h623l-289 692-22 57-23-57z"/><glyph glyph-name="Abreve.ss01" horiz-adv-x="1847" d="M-14 0l694 1638h485L1862 0h-381l-115 274H479L365 0H-14zm440 2001h102q0-44 27.5-73.5t82.5-46 124-23.5 164-7q195 0 293 33t98 117h102q0-69-33-116.5t-99.5-74-153-38T926 1761t-208.5 11.5-155.5 38-102 74-34 116.5zM610 592h623l-289 692-22 57-23-57z"/><glyph glyph-name="Acircumflex.ss01" horiz-adv-x="1847" d="M-14 0l694 1638h485L1862 0h-381l-115 274H479L365 0H-14zm456 1720l412 271h143l406-271h-186l-291 203-297-203H442zM610 592h623l-289 692-22 57-23-57z"/><glyph glyph-name="Adieresis.ss01" horiz-adv-x="1847" d="M-14 0l694 1638h485L1862 0h-381l-115 274H479L365 0H-14zm458 1841q0 53 34.5 85t82.5 32q47 0 82-32t35-85q0-50-35.5-82.5T561 1726q-48 0-82.5 32t-34.5 83zM610 592h623l-289 692-22 57-23-57zm557 1249q0 53 34.5 85t82.5 32q47 0 82-32t35-85q0-50-35.5-82.5T1284 1726q-48 0-82.5 32t-34.5 83z"/><glyph glyph-name="Agrave.ss01" horiz-adv-x="1847" d="M-14 0l694 1638h485L1862 0h-381l-115 274H479L365 0H-14zm379 1911l20 80 1096-152-21-80zM610 592h623l-289 692-22 57-23-57z"/><glyph glyph-name="Amacron.ss01" horiz-adv-x="1847" d="M-14 0l694 1638h485L1862 0h-381l-115 274H479L365 0H-14zm379 1835v82h1116v-82H365zM610 592h623l-289 692-22 57-23-57z"/><glyph glyph-name="Aogonek.ss01" horiz-adv-x="1847" d="M-14 0l694 1638h485L1862 0q-111-34-164-78t-53-104q0-59 49.5-84t173.5-25h14l-82-119h-12q-126 0-201.5 48T1511-227q0 159 238 227h-268l-115 274H479L365 0H-14zm624 592h623l-289 692-22 57-23-57z"/><glyph glyph-name="Aring.ss01" horiz-adv-x="1847" d="M-14 0l694 1638h485L1862 0h-381l-115 274H479L365 0H-14zm624 592h623l-289 692-22 57-23-57zm148 1304q0 71 49.5 118.5T924 2062t116.5-47.5T1090 1896t-49-118-117-47-117 47-49 118zm100 0q0-30 18-47.5t48-17.5 47.5 17.5T989 1896t-17.5 48-47.5 18-48-18-18-48z"/><glyph glyph-name="Atilde.ss01" horiz-adv-x="1847" d="M-14 0l694 1638h485L1862 0h-381l-115 274H479L365 0H-14zm450 1765q0 102 69 169t200 67q61 0 110-16.5t82-39.5 64.5-46 75-39.5 96.5-16.5q85 0 129.5 39.5T1307 1987h102q0-106-71.5-171t-207.5-65q-66 0-118 16.5t-85.5 39.5-64 46-70 39.5T705 1909q-81 0-123.5-42T539 1765H436zM610 592h623l-289 692-22 57-23-57z"/><glyph glyph-name="B.ss01" horiz-adv-x="1841" d="M123 0v1638h1059q250 0 392-113t142-308q0-286-186-361 107-45 174.5-148.5T1772 479q0-233-143-356T1210 0H123zm356 319h705q223 0 223 183 0 86-56 134t-163 48H479V319zm0 687h682q101 0 145 33.5t44 125.5q0 74-49.5 114t-143.5 40H479v-313z"/><glyph glyph-name="C.ss01" horiz-adv-x="1939" d="M997-20q-221 0-400 67T303.5 229.5 127.5 497 66 823q0 137 38 261.5T219.5 1314 407 1496t262 120 330 43q157 0 294-35.5t238-97.5 177-146 118.5-181.5T1880 995l4-39h-366l-7 39q-11 72-45 132t-93 110-154.5 78-219.5 28q-288 0-428.5-141.5T430 819q0-117 33-210.5t100.5-164 178-109T999 297q236 0 361.5 94.5T1511 647l7 41h366l-4-41q-11-105-52.5-202T1711 263t-176.5-148T1295 16 997-20z"/><glyph glyph-name="Cacute.ss01" horiz-adv-x="1939" d="M997-20q-221 0-400 67T303.5 229.5 127.5 497 66 823q0 137 38 261.5T219.5 1314 407 1496t262 120 330 43q157 0 294-35.5t238-97.5 177-146 118.5-181.5T1880 995l4-39h-366l-7 39q-11 72-45 132t-93 110-154.5 78-219.5 28q-288 0-428.5-141.5T430 819q0-117 33-210.5t100.5-164 178-109T999 297q236 0 361.5 94.5T1511 647l7 41h366l-4-41q-11-105-52.5-202T1711 263t-176.5-148T1295 16 997-20zM416 1839l1095 152 21-80-1096-152z"/><glyph glyph-name="Ccaron.ss01" horiz-adv-x="1939" d="M997-20q-221 0-400 67T303.5 229.5 127.5 497 66 823q0 137 38 261.5T219.5 1314 407 1496t262 120 330 43q157 0 294-35.5t238-97.5 177-146 118.5-181.5T1880 995l4-39h-366l-7 39q-11 72-45 132t-93 110-154.5 78-219.5 28q-288 0-428.5-141.5T430 819q0-117 33-210.5t100.5-164 178-109T999 297q236 0 361.5 94.5T1511 647l7 41h366l-4-41q-11-105-52.5-202T1711 263t-176.5-148T1295 16 997-20zM494 2030h186l297-203 291 203h186l-405-271H905z"/><glyph glyph-name="Ccedilla.ss01" horiz-adv-x="1939" d="M836-328q136 0 191.5 13t55.5 55q0 46-56 55t-159-8l47 195Q713-6 550 65.5T282.5 251 122 511 66 823q0 137 38 261.5T219.5 1314 407 1496t262 120 330 43q157 0 294-35.5t238-97.5 177-146 118.5-181.5T1880 995l4-39h-366l-7 39q-11 72-45 132t-93 110-154.5 78-219.5 28q-288 0-428.5-141.5T430 819q0-117 33-210.5t100.5-164 178-109T999 297q236 0 361.5 94.5T1511 647l7 41h366l-4-41q-11-103-51-199t-113-180-171-147-232-100.5T1024-20l-25-99q218 18 218-133 0-62-33-98t-117-55-231-19v96z"/><glyph glyph-name="Cdotaccent.ss01" horiz-adv-x="1939" d="M997-20q-221 0-400 67T303.5 229.5 127.5 497 66 823q0 137 38 261.5T219.5 1314 407 1496t262 120 330 43q157 0 294-35.5t238-97.5 177-146 118.5-181.5T1880 995l4-39h-366l-7 39q-11 72-45 132t-93 110-154.5 78-219.5 28q-288 0-428.5-141.5T430 819q0-117 33-210.5t100.5-164 178-109T999 297q236 0 361.5 94.5T1511 647l7 41h366l-4-41q-11-105-52.5-202T1711 263t-176.5-148T1295 16 997-20zM801 1878q0 65 44 105t130 40 130-40 44-105q0-62-44.5-101.5T975 1737t-129.5 39.5T801 1878z"/><glyph glyph-name="D.ss01" horiz-adv-x="1882" d="M123 0v1638h860q396 0 611.5-212T1810 819q0-392-217-605.5T983 0H123zm356 319h508q229 0 344 128t115 372-115 372-344 128H479V319z"/><glyph glyph-name="Eth.ss01" horiz-adv-x="2033" d="M274 0v778H47v164h227v696h861q396 0 611.5-212T1962 819q0-392-217-605.5T1135 0H274zm357 319h508q229 0 343.5 128T1597 819t-114.5 372-343.5 128H631V942h612V778H631V319z"/><glyph glyph-name="Dcaron.ss01" horiz-adv-x="1882" d="M123 0v1638h860q396 0 611.5-212T1810 819q0-392-217-605.5T983 0H123zm328 2030h186l297-203 291 203h186l-405-271H862zm28-1711h508q229 0 344 128t115 372-115 372-344 128H479V319z"/><glyph glyph-name="Dcroat.ss01" horiz-adv-x="2033" d="M274 0v778H47v164h227v696h861q396 0 611.5-212T1962 819q0-392-217-605.5T1135 0H274zm357 319h508q229 0 343.5 128T1597 819t-114.5 372-343.5 128H631V942h612V778H631V319z"/><glyph glyph-name="E.ss01" horiz-adv-x="1597" d="M123 0v1638h1386v-319H479V979h948V659H479V319h1030V0H123z"/><glyph glyph-name="Eacute.ss01" horiz-adv-x="1597" d="M123 0v1638h1386v-319H479V979h948V659H479V319h1030V0H123zm106 1839l1096 152 21-80-1096-152z"/><glyph glyph-name="Ecaron.ss01" horiz-adv-x="1597" d="M123 0v1638h1386v-319H479V979h948V659H479V319h1030V0H123zm184 2030h187l297-203 290 203h187l-406-271H719z"/><glyph glyph-name="Ecircumflex.ss01" horiz-adv-x="1597" d="M123 0v1638h1386v-319H479V979h948V659H479V319h1030V0H123zm184 1720l412 271h143l406-271h-187l-290 203-297-203H307z"/><glyph glyph-name="Edieresis.ss01" horiz-adv-x="1597" d="M123 0v1638h1386v-319H479V979h948V659H479V319h1030V0H123zm186 1841q0 53 34.5 85t82.5 32q47 0 82-32t35-85q0-50-35.5-82.5T426 1726q-48 0-82.5 32t-34.5 83zm723 0q0 53 34.5 85t82.5 32q47 0 82-32t35-85q0-50-35.5-82.5T1149 1726q-48 0-82.5 32t-34.5 83z"/><glyph glyph-name="Edotaccent.ss01" horiz-adv-x="1597" d="M123 0v1638h1386v-319H479V979h948V659H479V319h1030V0H123zm491 1878q0 65 44 105t130 40 130.5-40 44.5-105q0-62-45-101.5T788 1737t-129.5 39.5T614 1878z"/><glyph glyph-name="Egrave.ss01" horiz-adv-x="1597" d="M123 0v1638h1386v-319H479V979h948V659H479V319h1030V0H123zm106 1911l21 80 1096-152-21-80z"/><glyph glyph-name="Emacron.ss01" horiz-adv-x="1597" d="M123 0v1638h1386v-319H479V979h948V659H479V319h1030V0H123zm106 1835v82h1117v-82H229z"/><glyph glyph-name="Eogonek.ss01" horiz-adv-x="1597" d="M123 0v1638h1386v-319H479V979h948V659H479V319h1030V0q-111-34-164-78t-53-104q0-59 50-84t174-25h14l-82-119h-12q-126 0-201.5 48T1159-227q0 159 238 227H123z"/><glyph glyph-name="F.ss01" horiz-adv-x="1619" d="M123 0v1638h1448v-319H479V934h1014V614H479V0H123z"/><glyph glyph-name="G.ss01" horiz-adv-x="1968" d="M965-20q-174 0-321 43.5t-252 121-179 183T103.5 558 68 821t36 262 111 229.5T397.5 1495 656 1615.5t331 43.5q183 0 342.5-50.5t271.5-137 181-200 82-239.5l2-18h-369l-2 18q-17 148-156 229.5T993 1343q-124 0-222.5-29.5t-161-78.5-104-117.5T447 976t-17-155q0-83 17.5-157.5T505 521t99.5-117T754 326t202-29q213 0 341 79.5T1475 598H825v293h1041V0h-238l-49 231Q1387-20 965-20z"/><glyph glyph-name="Gbreve.ss01" horiz-adv-x="1968" d="M965-20q-174 0-321 43.5t-252 121-179 183T103.5 558 68 821t36 262 111 229.5T397.5 1495 656 1615.5t331 43.5q183 0 342.5-50.5t271.5-137 181-200 82-239.5l2-18h-369l-2 18q-17 148-156 229.5T993 1343q-124 0-222.5-29.5t-161-78.5-104-117.5T447 976t-17-155q0-83 17.5-157.5T505 521t99.5-117T754 326t202-29q213 0 341 79.5T1475 598H825v293h1041V0h-238l-49 231Q1387-20 965-20zM487 2001h103q0-44 27.5-73.5t82-46T823 1858t164-7q195 0 293 33t98 117h103q0-69-33-116.5t-99.5-74-153.5-38-208-11.5-208.5 11.5-155.5 38-102 74-34 116.5z"/><glyph glyph-name="uni0122.ss01" horiz-adv-x="1968" d="M965-20q-174 0-321 43.5t-252 121-179 183T103.5 558 68 821t36 262 111 229.5T397.5 1495 656 1615.5t331 43.5q183 0 342.5-50.5t271.5-137 181-200 82-239.5l2-18h-369l-2 18q-17 148-156 229.5T993 1343q-124 0-222.5-29.5t-161-78.5-104-117.5T447 976t-17-155q0-83 17.5-157.5T505 521t99.5-117T754 326t202-29q213 0 341 79.5T1475 598H825v293h1041V0h-238l-49 231Q1387-20 965-20zm-93-164q0 52 31.5 82T985-72q54 0 82.5-35.5T1096-205q0-70-52-137T901-453v97q105 21 139 104-30-41-75-41-39 0-66 28.5T872-184z"/><glyph glyph-name="Gdotaccent.ss01" horiz-adv-x="1968" d="M965-20q-174 0-321 43.5t-252 121-179 183T103.5 558 68 821t36 262 111 229.5T397.5 1495 656 1615.5t331 43.5q183 0 342.5-50.5t271.5-137 181-200 82-239.5l2-18h-369l-2 18q-17 148-156 229.5T993 1343q-124 0-222.5-29.5t-161-78.5-104-117.5T447 976t-17-155q0-83 17.5-157.5T505 521t99.5-117T754 326t202-29q213 0 341 79.5T1475 598H825v293h1041V0h-238l-49 231Q1387-20 965-20zM811 1878q0 65 44 105t130 40 130-40 44-105q0-62-44.5-101.5T985 1737t-129.5 39.5T811 1878z"/><glyph glyph-name="H.ss01" horiz-adv-x="1857" d="M1378 0v659H479V0H123v1638h356V979h899v659h357V0h-357z"/><glyph glyph-name="Hbar.ss01" horiz-adv-x="2181" d="M1540 0v659H641V0H285v1143H35v164h250v331h356v-331h899v331h356v-331h250v-164h-250V0h-356zM641 979h899v164H641V979z"/><glyph glyph-name="I.ss01" horiz-adv-x="1542" d="M74 0v319h520v1000H74v319h1394v-319H950V319h518V0H74z"/><glyph glyph-name="Iacute.ss01" horiz-adv-x="1542" d="M74 0v319h520v1000H74v319h1394v-319H950V319h518V0H74zm139 1839l1096 152 20-80-1096-152z"/><glyph glyph-name="Icircumflex.ss01" horiz-adv-x="1542" d="M74 0v319h520v1000H74v319h1394v-319H950V319h518V0H74zm217 1720l411 271h144l405-271h-186l-291 203-297-203H291z"/><glyph glyph-name="Idieresis.ss01" horiz-adv-x="1542" d="M74 0v319h520v1000H74v319h1394v-319H950V319h518V0H74zm219 1841q0 53 34.5 85t82.5 32q47 0 81.5-32t34.5-85q0-51-35-83t-81-32q-48 0-82.5 32t-34.5 83zm723 0q0 53 34.5 85t82.5 32q47 0 81.5-32t34.5-85q0-51-35-83t-81-32q-48 0-82.5 32t-34.5 83z"/><glyph glyph-name="Idotaccent.ss01" horiz-adv-x="1542" d="M74 0v319h520v1000H74v319h1394v-319H950V319h518V0H74zm524 1878q0 65 44 105t130 40 130-40 44-105q0-62-44.5-101.5T772 1737t-129.5 39.5T598 1878z"/><glyph glyph-name="Igrave.ss01" horiz-adv-x="1542" d="M74 0v319h520v1000H74v319h1394v-319H950V319h518V0H74zm139 1911l20 80 1096-152-20-80z"/><glyph glyph-name="Imacron.ss01" horiz-adv-x="1542" d="M74 0v319h520v1000H74v319h1394v-319H950V319h518V0H74zm139 1835v82h1116v-82H213z"/><glyph glyph-name="Iogonek.ss01" horiz-adv-x="1542" d="M74 0v319h520v1000H74v319h1394v-319H950V319h518V0q-111-34-164-78t-53-104q0-59 49.5-84t174.5-25h14l-82-119h-12q-126 0-201.5 48T1118-227q0 159 238 227H74z"/><glyph glyph-name="J.ss01" horiz-adv-x="1656" d="M791-18q-405 0-586.5 165.5T23 672h364q0-69 7.5-118.5t32-101T494 369t118-52 179-20 179 20 117.5 51 67.5 80 32 94.5 7 106.5v989h356V649q0-342-181-504.5T791-18z"/><glyph glyph-name="K.ss01" horiz-adv-x="1705" d="M1249 0L532 659h-53V0H123v1638h356V979h53l717 659h477L809 819 1726 0h-477z"/><glyph glyph-name="uni0136.ss01" horiz-adv-x="1705" d="M1249 0L532 659h-53V0H123v1638h356V979h53l717 659h477L809 819 1726 0h-477zM762-184q0 52 31 82t81 30q54 0 82.5-35.5T985-205q0-70-51.5-137T791-453v97q105 21 139 104-30-41-76-41-39 0-65.5 28.5T762-184z"/><glyph glyph-name="L.ss01" horiz-adv-x="1536" d="M123 0v1638h356V319h1030V0H123z"/><glyph glyph-name="Lacute.ss01" horiz-adv-x="1536" d="M123 0v1638h356V319h1030V0H123zm6 1839l1096 152 20-80-1095-152z"/><glyph glyph-name="Lcaron.ss01" horiz-adv-x="1536" d="M123 0v1638h356V319h1030V0H123zm598 1188l41 450h164l-103-450H721z"/><glyph glyph-name="uni013B.ss01" horiz-adv-x="1536" d="M123 0v1638h356V319h1030V0H123zm539-184q0 52 31 82t81 30q54 0 82.5-35.5T885-205q0-70-52-137T690-453v97q105 21 139 104-30-41-75-41-39 0-65.5 28.5T662-184z"/><glyph glyph-name="Lslash.ss01" horiz-adv-x="1724" d="M311 0v670L25 584v184l286 86v784h357V961l592 178V954L668 776V319h1030V0H311z"/><glyph glyph-name="M.ss01" horiz-adv-x="2162" d="M123 0v1638h403l555-1087 555 1087h404V0h-348v1055L1155 0h-147L471 1055V0H123z"/><glyph glyph-name="N.ss01" horiz-adv-x="1863" d="M123 0v1638h356l905-1159v1159h357V0h-357L479 1159V0H123z"/><glyph glyph-name="Nacute.ss01" horiz-adv-x="1863" d="M123 0v1638h356l905-1159v1159h357V0h-357L479 1159V0H123zm250 1839l1095 152 21-80-1096-152z"/><glyph glyph-name="Ncaron.ss01" horiz-adv-x="1863" d="M123 0v1638h356l905-1159v1159h357V0h-357L479 1159V0H123zm328 2030h186l297-203 291 203h186l-405-271H862z"/><glyph glyph-name="uni0145.ss01" horiz-adv-x="1863" d="M123 0v1638h356l905-1159v1159h357V0h-357L479 1159V0H123zm696-184q0 52 31.5 82T932-72q54 0 82-35.5t28-97.5q0-70-51.5-137T848-453v97q105 21 139 104-30-41-76-41-39 0-65.5 28.5T819-184z"/><glyph glyph-name="Ntilde.ss01" horiz-adv-x="1863" d="M123 0v1638h356l905-1159v1159h357V0h-357L479 1159V0H123zm321 1765q0 102 69 169t200 67q61 0 110-16.5t82-39.5 64.5-46 75-39.5 96.5-16.5q85 0 129.5 39.5T1315 1987h102q0-106-71-171t-207-65q-66 0-118 16.5t-85.5 39.5-64.5 46-70.5 39.5T713 1909q-81 0-123.5-42T547 1765H444z"/><glyph glyph-name="O.ss01" horiz-adv-x="1955" d="M979-20q-211 0-385.5 67T305 229 128.5 496.5 66 821t62.5 324T305 1411.5t288.5 181T979 1659t385-66.5 288-181 176-266.5 62-324q0-137-39-262.5t-116.5-231-186-183-254.5-121T979-20zM428 821q0-102 31.5-193t95-166.5 173-120T979 297q114 0 207.5 29.5t156 79.5 105 117.5 61.5 142 19 155.5q0 80-19 153.5t-61.5 141.5-105 118-156 79.5T979 1343q-115 0-208.5-29.5T614 1234t-105.5-118T447 974.5 428 821z"/><glyph glyph-name="Oacute.ss01" horiz-adv-x="1955" d="M979-20q-211 0-385.5 67T305 229 128.5 496.5 66 821t62.5 324T305 1411.5t288.5 181T979 1659t385-66.5 288-181 176-266.5 62-324q0-137-39-262.5t-116.5-231-186-183-254.5-121T979-20zM420 1839l1096 152 20-80-1096-152zm8-1018q0-102 31.5-193t95-166.5 173-120T979 297q114 0 207.5 29.5t156 79.5 105 117.5 61.5 142 19 155.5q0 80-19 153.5t-61.5 141.5-105 118-156 79.5T979 1343q-115 0-208.5-29.5T614 1234t-105.5-118T447 974.5 428 821z"/><glyph glyph-name="Ocircumflex.ss01" horiz-adv-x="1955" d="M979-20q-211 0-385.5 67T305 229 128.5 496.5 66 821t62.5 324T305 1411.5t288.5 181T979 1659t385-66.5 288-181 176-266.5 62-324q0-137-39-262.5t-116.5-231-186-183-254.5-121T979-20zM428 821q0-102 31.5-193t95-166.5 173-120T979 297q114 0 207.5 29.5t156 79.5 105 117.5 61.5 142 19 155.5q0 80-19 153.5t-61.5 141.5-105 118-156 79.5T979 1343q-115 0-208.5-29.5T614 1234t-105.5-118T447 974.5 428 821zm70 899l411 271h144l405-271h-186l-291 203-297-203H498z"/><glyph glyph-name="Odieresis.ss01" horiz-adv-x="1955" d="M979-20q-211 0-385.5 67T305 229 128.5 496.5 66 821t62.5 324T305 1411.5t288.5 181T979 1659t385-66.5 288-181 176-266.5 62-324q0-137-39-262.5t-116.5-231-186-183-254.5-121T979-20zM428 821q0-102 31.5-193t95-166.5 173-120T979 297q114 0 207.5 29.5t156 79.5 105 117.5 61.5 142 19 155.5q0 80-19 153.5t-61.5 141.5-105 118-156 79.5T979 1343q-115 0-208.5-29.5T614 1234t-105.5-118T447 974.5 428 821zm72 1020q0 53 34 85t82 32q47 0 82-32t35-85q0-50-35.5-82.5T616 1726q-47 0-81.5 32t-34.5 83zm723 0q0 53 34 85t82 32q47 0 82-32t35-85q0-50-35.5-82.5T1339 1726q-47 0-81.5 32t-34.5 83z"/><glyph glyph-name="Ograve.ss01" horiz-adv-x="1955" d="M979-20q-211 0-385.5 67T305 229 128.5 496.5 66 821t62.5 324T305 1411.5t288.5 181T979 1659t385-66.5 288-181 176-266.5 62-324q0-137-39-262.5t-116.5-231-186-183-254.5-121T979-20zM420 1911l20 80 1096-152-20-80zm8-1090q0-102 31.5-193t95-166.5 173-120T979 297q114 0 207.5 29.5t156 79.5 105 117.5 61.5 142 19 155.5q0 80-19 153.5t-61.5 141.5-105 118-156 79.5T979 1343q-115 0-208.5-29.5T614 1234t-105.5-118T447 974.5 428 821z"/><glyph glyph-name="Ohungarumlaut.ss01" horiz-adv-x="1955" d="M979-20q-211 0-385.5 67T305 229 128.5 496.5 66 821t62.5 324T305 1411.5t288.5 181T979 1659t385-66.5 288-181 176-266.5 62-324q0-137-39-262.5t-116.5-231-186-183-254.5-121T979-20zM428 821q0-102 31.5-193t95-166.5 173-120T979 297q114 0 207.5 29.5t156 79.5 105 117.5 61.5 142 19 155.5q0 80-19 153.5t-61.5 141.5-105 118-156 79.5T979 1343q-115 0-208.5-29.5T614 1234t-105.5-118T447 974.5 428 821zm360 940l236 230h123l-215-230H788zm226 0l235 230h123l-215-230h-143z"/><glyph glyph-name="Omacron.ss01" horiz-adv-x="1955" d="M979-20q-211 0-385.5 67T305 229 128.5 496.5 66 821t62.5 324T305 1411.5t288.5 181T979 1659t385-66.5 288-181 176-266.5 62-324q0-137-39-262.5t-116.5-231-186-183-254.5-121T979-20zM420 1835v82h1116v-82H420zm8-1014q0-102 31.5-193t95-166.5 173-120T979 297q114 0 207.5 29.5t156 79.5 105 117.5 61.5 142 19 155.5q0 80-19 153.5t-61.5 141.5-105 118-156 79.5T979 1343q-115 0-208.5-29.5T614 1234t-105.5-118T447 974.5 428 821z"/><glyph glyph-name="Oslash.ss01" horiz-adv-x="1955" d="M160 20l164 191Q198 328 132 485T66 821q0 172 62.5 324T305 1411.5t288.5 181T979 1659q281 0 494-117l67 78h258l-166-193q125-113 191.5-270t66.5-336q0-137-39-262.5t-116.5-231-186-183-254.5-121T979-20Q697-20 485 96l-65-76H160zm268 801q0-210 119-352l706 819q-116 55-274 55-115 0-208.5-29.5T614 1234t-105.5-118T447 974.5 428 821zm277-469q116-55 274-55 114 0 207.5 29.5t156 79.5 105 117.5 61.5 142 19 155.5q0 206-119 348z"/><glyph glyph-name="Otilde.ss01" horiz-adv-x="1955" d="M979-20q-211 0-385.5 67T305 229 128.5 496.5 66 821t62.5 324T305 1411.5t288.5 181T979 1659t385-66.5 288-181 176-266.5 62-324q0-137-39-262.5t-116.5-231-186-183-254.5-121T979-20zM428 821q0-102 31.5-193t95-166.5 173-120T979 297q114 0 207.5 29.5t156 79.5 105 117.5 61.5 142 19 155.5q0 80-19 153.5t-61.5 141.5-105 118-156 79.5T979 1343q-115 0-208.5-29.5T614 1234t-105.5-118T447 974.5 428 821zm64 944q0 102 68.5 169t199.5 67q61 0 110-16.5t82-39.5 64.5-46 75-39.5 96.5-16.5q85 0 129.5 39.5T1362 1987h102q0-106-71-171t-207-65q-66 0-118 16.5t-85.5 39.5-64.5 46-70.5 39.5T760 1909q-81 0-123.5-42T594 1765H492z"/><glyph glyph-name="P.ss01" horiz-adv-x="1806" d="M123 0v1638h981q325 0 495-137.5t170-410.5q0-276-164.5-413.5T1104 539H479V0H123zm356 856h608q176 0 247 53.5t71 184.5q0 125-71 177t-247 52H479V856z"/><glyph glyph-name="Q.ss01" horiz-adv-x="1955" d="M1690-408q-267 77-471.5 115T760-236V0Q598 31 466 108T247 294 113 538 66 821q0 172 62.5 324T305 1411.5t288.5 181T979 1659t385-66.5 288-181 176-266.5 62-324q0-157-52-298.5T1689.5 270t-242-185.5T1124-12q277-23 566-107v-289zM428 821q0-102 31.5-193t95-166.5 173-120T979 297q114 0 207.5 29.5t156 79.5 105 117.5 61.5 142 19 155.5q0 80-19 153.5t-61.5 141.5-105 118-156 79.5T979 1343q-115 0-208.5-29.5T614 1234t-105.5-118T447 974.5 428 821z"/><glyph glyph-name="R.ss01" horiz-adv-x="1818" d="M1389 0q-25 27-25 145v220q0 103-68.5 153.5T1083 569H479V0H123v1638h971q301 0 462.5-136t161.5-388q0-146-67.5-247T1462 731q120-29 189-126t69-238V145q0-118 25-145h-356zM479 887h602q147 0 210 52.5t63 176.5q0 105-67.5 156t-211.5 51H479V887z"/><glyph glyph-name="Racute.ss01" horiz-adv-x="1818" d="M1389 0q-25 27-25 145v220q0 103-68.5 153.5T1083 569H479V0H123v1638h971q301 0 462.5-136t161.5-388q0-146-67.5-247T1462 731q120-29 189-126t69-238V145q0-118 25-145h-356zM348 1839l1096 152 20-80-1095-152zm131-952h602q147 0 210 52.5t63 176.5q0 105-67.5 156t-211.5 51H479V887z"/><glyph glyph-name="Rcaron.ss01" horiz-adv-x="1818" d="M1389 0q-25 27-25 145v220q0 103-68.5 153.5T1083 569H479V0H123v1638h971q301 0 462.5-136t161.5-388q0-146-67.5-247T1462 731q120-29 189-126t69-238V145q0-118 25-145h-356zM426 2030h186l297-203 291 203h186l-405-271H838zm53-1143h602q147 0 210 52.5t63 176.5q0 105-67.5 156t-211.5 51H479V887z"/><glyph glyph-name="uni0156.ss01" horiz-adv-x="1818" d="M1389 0q-25 27-25 145v220q0 103-68.5 153.5T1083 569H479V0H123v1638h971q301 0 462.5-136t161.5-388q0-146-67.5-247T1462 731q120-29 189-126t69-238V145q0-118 25-145h-356zM479 887h602q147 0 210 52.5t63 176.5q0 105-67.5 156t-211.5 51H479V887zM795-184q0 52 31 82t81 30q54 0 82.5-35.5T1018-205q0-70-52-137T823-453v97q106 21 140 104-30-41-76-41-39 0-65.5 28.5T795-184z"/><glyph glyph-name="S.ss01" horiz-adv-x="1757" d="M901-20q-440 0-645 146.5T51 567v21h363v-21q0-154 113.5-218T909 285q221 0 322.5 44.5T1333 471q-1 65-35 103.5T1184.5 638 952 684l-370 51q-227 31-352.5 144.5T104 1182q0 477 756 477 389 0 584.5-128t195.5-376v-20h-362v20q0 110-92.5 155.5T866 1356q-209 0-303-37t-94-119q0-147 336-190l375-47q268-34 392-145t124-314q0-283-183.5-403.5T901-20z"/><glyph glyph-name="Sacute.ss01" horiz-adv-x="1757" d="M901-20q-440 0-645 146.5T51 567v21h363v-21q0-154 113.5-218T909 285q221 0 322.5 44.5T1333 471q-1 65-35 103.5T1184.5 638 952 684l-370 51q-227 31-352.5 144.5T104 1182q0 477 756 477 389 0 584.5-128t195.5-376v-20h-362v20q0 110-92.5 155.5T866 1356q-209 0-303-37t-94-119q0-147 336-190l375-47q268-34 392-145t124-314q0-283-183.5-403.5T901-20zM317 1839l1096 152 21-80-1096-152z"/><glyph glyph-name="Scaron.ss01" horiz-adv-x="1757" d="M901-20q-440 0-645 146.5T51 567v21h363v-21q0-154 113.5-218T909 285q221 0 322.5 44.5T1333 471q-1 65-35 103.5T1184.5 638 952 684l-370 51q-227 31-352.5 144.5T104 1182q0 477 756 477 389 0 584.5-128t195.5-376v-20h-362v20q0 110-92.5 155.5T866 1356q-209 0-303-37t-94-119q0-147 336-190l375-47q268-34 392-145t124-314q0-283-183.5-403.5T901-20zM395 2030h187l297-203 290 203h187l-406-271H807z"/><glyph glyph-name="Scedilla.ss01" horiz-adv-x="1757" d="M737-328q136 0 192 13t56 55q0 46-56 55t-159-8l47 195Q421-5 236 141T51 567v21h363v-21q0-154 113.5-218T909 285q221 0 322.5 44.5T1333 471q-1 65-35 103.5T1184.5 638 952 684l-370 51q-227 31-352.5 144.5T104 1182q0 477 756 477 389 0 584.5-128t195.5-376v-20h-362v20q0 110-92.5 155.5T866 1356q-209 0-303-37t-94-119q0-147 336-190l375-47q268-34 392-145t124-314q0-279-178-400T926-20l-25-99q217 18 217-133 0-62-33-98t-117-55-231-19v96z"/><glyph glyph-name="uni0218.ss01" horiz-adv-x="1757" d="M901-20q-440 0-645 146.5T51 567v21h363v-21q0-154 113.5-218T909 285q221 0 322.5 44.5T1333 471q-1 65-35 103.5T1184.5 638 952 684l-370 51q-227 31-352.5 144.5T104 1182q0 477 756 477 389 0 584.5-128t195.5-376v-20h-362v20q0 110-92.5 155.5T866 1356q-209 0-303-37t-94-119q0-147 336-190l375-47q268-34 392-145t124-314q0-283-183.5-403.5T901-20zM764-184q0 52 31.5 82T877-72q54 0 82-35.5t28-97.5q0-70-51.5-137T793-453v97q105 21 139 104-30-41-76-41-39 0-65.5 28.5T764-184z"/><glyph glyph-name="uni1E9E.ss01" horiz-adv-x="1626" d="M111 1130q0 251 175.5 379.5T811 1638h705q-20-185-42-305.5t-56.5-212.5-82-143-116.5-78q93-16 160.5-55.5T1484 749t53.5-114.5T1554 508v-10q0-119-42-215t-114-157-166.5-93.5T1030 0H598v287h258q203 0 279.5 56.5T1212 541v8q0 184-356 184H598v285h213q110 0 171.5 27.5T1083 1143t70 209H813q-185 0-272.5-52T453 1130V0H111v1130z"/><glyph glyph-name="T.ss01" horiz-adv-x="1710" d="M676 0v1319H33v319h1644v-319h-645V0H676z"/><glyph glyph-name="Tbar.ss01" horiz-adv-x="1718" d="M680 0v737H262v164h418v418H37v319h1644v-319h-645V901h422V737h-422V0H680z"/><glyph glyph-name="Tcaron.ss01" horiz-adv-x="1710" d="M676 0v1319H33v319h1644v-319h-645V0H676zM375 2030h186l297-203 291 203h186l-405-271H786z"/><glyph glyph-name="uni0162.ss01" horiz-adv-x="1710" d="M676 0v1319H33v319h1644v-319h-645V0H909l-28-119q217 18 217-133 0-62-33-98t-117-55-231-19v96q136 0 192 13t56 55q0 46-56 55t-159-8L801 0H676z"/><glyph glyph-name="uni021A.ss01" horiz-adv-x="1710" d="M676 0v1319H33v319h1644v-319h-645V0H676zm67-184q0 52 31.5 82T856-72q54 0 82.5-35.5T967-205q0-70-52-137T772-453v97q105 21 139 104-30-41-75-41-39 0-66 28.5T743-184z"/><glyph glyph-name="U.ss01" horiz-adv-x="1841" d="M922-18q-430 0-623 163T106 670v968h355V670q0-195 109-284t352-89q242 0 350 89t108 284v968h355V670q0-363-192-525.5T922-18z"/><glyph glyph-name="Uacute.ss01" horiz-adv-x="1841" d="M922-18q-430 0-623 163T106 670v968h355V670q0-195 109-284t352-89q242 0 350 89t108 284v968h355V670q0-363-192-525.5T922-18zM362 1839l1096 152 21-80-1096-152z"/><glyph glyph-name="Ucircumflex.ss01" horiz-adv-x="1841" d="M922-18q-430 0-623 163T106 670v968h355V670q0-195 109-284t352-89q242 0 350 89t108 284v968h355V670q0-363-192-525.5T922-18zM440 1720l412 271h143l406-271h-187l-290 203-297-203H440z"/><glyph glyph-name="Udieresis.ss01" horiz-adv-x="1841" d="M922-18q-430 0-623 163T106 670v968h355V670q0-195 109-284t352-89q242 0 350 89t108 284v968h355V670q0-363-192-525.5T922-18zM442 1841q0 53 34.5 85t82.5 32q47 0 82-32t35-85q0-50-35.5-82.5T559 1726q-48 0-82.5 32t-34.5 83zm723 0q0 53 34.5 85t82.5 32q47 0 82-32t35-85q0-50-35.5-82.5T1282 1726q-48 0-82.5 32t-34.5 83z"/><glyph glyph-name="Ugrave.ss01" horiz-adv-x="1841" d="M922-18q-430 0-623 163T106 670v968h355V670q0-195 109-284t352-89q242 0 350 89t108 284v968h355V670q0-363-192-525.5T922-18zM362 1911l21 80 1096-152-21-80z"/><glyph glyph-name="Uhungarumlaut.ss01" horiz-adv-x="1841" d="M922-18q-430 0-623 163T106 670v968h355V670q0-195 109-284t352-89q242 0 350 89t108 284v968h355V670q0-363-192-525.5T922-18zM731 1761l236 230h123l-216-230H731zm225 0l236 230h123l-215-230H956z"/><glyph glyph-name="Umacron.ss01" horiz-adv-x="1841" d="M922-18q-430 0-623 163T106 670v968h355V670q0-195 109-284t352-89q242 0 350 89t108 284v968h355V670q0-363-192-525.5T922-18zM362 1835v82h1117v-82H362z"/><glyph glyph-name="Uogonek.ss01" horiz-adv-x="1841" d="M922-18q-430 0-623 163T106 670v968h355V670q0-195 109-284t352-89q242 0 350 89t108 284v968h355V670q0-302-131-464T1188 0h6q-111-34-164-78t-53-104q0-59 49.5-84t173.5-25h14l-81-119h-13q-126 0-201 48t-75 135q0 141 188 211-35-2-110-2z"/><glyph glyph-name="Uring.ss01" horiz-adv-x="1841" d="M922-18q-430 0-623 163T106 670v968h355V670q0-195 109-284t352-89q242 0 350 89t108 284v968h355V670q0-363-192-525.5T922-18zM756 1896q0 71 49.5 118.5T922 2062t116-47.5 49-118.5-49-118-116-47q-68 0-117 47t-49 118zm100 0q0-30 18-47.5t48-17.5 47.5 17.5T987 1896t-17.5 48-47.5 18-48-18-18-48z"/><glyph glyph-name="V.ss01" horiz-adv-x="1875" d="M696 0L0 1638h381L918 348l22-57 23 57 534 1290h379L1182 0H696z"/><glyph glyph-name="W.ss01" horiz-adv-x="2854" d="M535 0L10 1638h371L776 356l414 1282h475l416-1280 393 1280h371L2322 0h-481l-407 1278-4 14-5-14L1014 0H535z"/><glyph glyph-name="Wacute.ss01" horiz-adv-x="2854" d="M535 0L10 1638h371L776 356l414 1282h475l416-1280 393 1280h371L2322 0h-481l-407 1278-4 14-5-14L1014 0H535zm333 1839l1096 152 21-80-1096-152z"/><glyph glyph-name="Wcircumflex.ss01" horiz-adv-x="2854" d="M535 0L10 1638h371L776 356l414 1282h475l416-1280 393 1280h371L2322 0h-481l-407 1278-4 14-5-14L1014 0H535zm411 1720l412 271h143l406-271h-187l-290 203-297-203H946z"/><glyph glyph-name="Wdieresis.ss01" horiz-adv-x="2854" d="M535 0L10 1638h371L776 356l414 1282h475l416-1280 393 1280h371L2322 0h-481l-407 1278-4 14-5-14L1014 0H535zm413 1841q0 53 34.5 85t82.5 32q47 0 82-32t35-85q0-50-35.5-82.5T1065 1726q-48 0-82.5 32t-34.5 83zm723 0q0 53 34.5 85t82.5 32q47 0 82-32t35-85q0-50-35.5-82.5T1788 1726q-48 0-82.5 32t-34.5 83z"/><glyph glyph-name="Wgrave.ss01" horiz-adv-x="2854" d="M535 0L10 1638h371L776 356l414 1282h475l416-1280 393 1280h371L2322 0h-481l-407 1278-4 14-5-14L1014 0H535zm333 1911l21 80 1096-152-21-80z"/><glyph glyph-name="X.ss01" horiz-adv-x="1748" d="M-12 0l678 819L8 1638h449l417-589 416 589h451l-660-819L1761 0h-450L874 590 436 0H-12z"/><glyph glyph-name="Y.ss01" horiz-adv-x="1814" d="M731 0v571L0 1638h420l489-741 488 741h418L1085 571V0H731z"/><glyph glyph-name="Yacute.ss01" horiz-adv-x="1814" d="M731 0v571L0 1638h420l489-741 488 741h418L1085 571V0H731zM348 1839l1096 152 20-80-1095-152z"/><glyph glyph-name="Ycircumflex.ss01" horiz-adv-x="1814" d="M731 0v571L0 1638h420l489-741 488 741h418L1085 571V0H731zM426 1720l412 271h143l405-271h-186l-291 203-297-203H426z"/><glyph glyph-name="Ydieresis.ss01" horiz-adv-x="1814" d="M731 0v571L0 1638h420l489-741 488 741h418L1085 571V0H731zM428 1841q0 53 34.5 85t82.5 32q47 0 82-32t35-85q0-50-35.5-82.5T545 1726q-48 0-82.5 32t-34.5 83zm723 0q0 53 34.5 85t82.5 32q47 0 81.5-32t34.5-85q0-51-35-83t-81-32q-48 0-82.5 32t-34.5 83z"/><glyph glyph-name="Ygrave.ss01" horiz-adv-x="1814" d="M731 0v571L0 1638h420l489-741 488 741h418L1085 571V0H731zM348 1911l21 80 1095-152-20-80z"/><glyph glyph-name="Z.ss01" horiz-adv-x="1662" d="M74 0v319l1040 1004H74v315h1515v-319L549 315h1040V0H74z"/><glyph glyph-name="Zacute.ss01" horiz-adv-x="1662" d="M74 0v319l1040 1004H74v315h1515v-319L549 315h1040V0H74zm198 1839l1096 152 21-80-1096-152z"/><glyph glyph-name="Zcaron.ss01" horiz-adv-x="1662" d="M74 0v319l1040 1004H74v315h1515v-319L549 315h1040V0H74zm276 2030h187l297-203 290 203h187l-406-271H762z"/><glyph glyph-name="Zdotaccent.ss01" horiz-adv-x="1662" d="M74 0v319l1040 1004H74v315h1515v-319L549 315h1040V0H74zm583 1878q0 65 44 105t130 40 130.5-40 44.5-105q0-62-45-101.5T831 1737t-129.5 39.5T657 1878z"/><glyph glyph-name="W.ss02" horiz-adv-x="1550" d="M51 0v1638h318V279l139 1359h579V279l140 1359h325L1350 0H770v1294L639 0H51z"/><glyph glyph-name="W.ss03" horiz-adv-x="3149" d="M643 0H123v1638h342V348l911 1290h467V346l920 1292h424L2023 0h-520v1219z"/><glyph glyph-name="i.loclTRK" horiz-adv-x="438" d="M47 1331h344V0H47v1331zm-22 193q0 135 194 135 195 0 195-135 0-131-195-131-194 0-194 131z"/><glyph glyph-name="uni006A0301" horiz-adv-x="438" d="M47 23v1308h344V27q0-86-5-145.5T366.5-230 328-313.5 264.5-368 171-400.5 41-410h-182v297h86q27 0 42.5 3.5t31 16 22 41T47 23zM-74 1532l563 151 21-79-563-150z"/><glyph glyph-name="w.ss02" horiz-adv-x="1542" d="M47 0v1331h318V240l139 1091h579V240l140 1091h325L1346 0H766v1075L635 0H47z"/><glyph glyph-name="zero.ss01" horiz-adv-x="1845" d="M924-20q-415 0-633.5 219T72 823q0 402 218.5 619T924 1659t632.5-217.5T1774 819q0-402-218.5-620.5T924-20zM434 819q0-155 39-262l744 721q-112 65-293 65-259 0-374.5-131.5T434 819zm201-459q108-63 289-63 257 0 372 131t115 395q0 145-37 252z"/><glyph glyph-name="one.ss01" horiz-adv-x="1390" d="M98 317h465v951q-219-88-487-88v323q112 0 187.5 7t166.5 38.5 160 89.5h330V317h469V0H98v317z"/><glyph glyph-name="two.ss01" horiz-adv-x="1785" d="M82 338q0 82 15.5 152t55 137.5 103 118.5T419 835.5 651 891l316 41q80 11 136.5 22t105 27.5 77 38.5 44.5 53 16 72q0 99-100 148.5T926 1343q-171 0-274-36t-144-99-41-161H102q0 142 46 252.5t142 192T545 1616t375 43q393 0 591.5-133.5T1710 1135q0-417-547-494l-344-49q-78-11-136-24.5T585 541t-66.5-33.5-41-37-21.5-45-8.5-49.5-1.5-59h1264V0H82v338z"/><glyph glyph-name="three.ss01" horiz-adv-x="1746" d="M858-20q-423 0-615 131.5T39 551h360q5-65 27-110.5t57-73.5 93-43.5 122-21 158-5.5q177 0 277.5 22t139 64 38.5 113q0 51-15.5 81.5t-62 54.5-134 34T870 676H612v315h258q128 0 212 12t126 37 57 54 15 73q0 176-424 176-207 0-306.5-49T440 1108H80q12 297 201 424t573 127q409 0 597.5-121.5T1640 1176q6-129-47-222.5T1419 831q129-26 190.5-122.5T1671 473q0-250-197-371.5T858-20z"/><glyph glyph-name="four.ss01" horiz-adv-x="1775" d="M1473 1638V594h243V279h-243V0h-357v279H49v319l1065 1040h359zM438 594h678v637z"/><glyph glyph-name="five.ss01" horiz-adv-x="1761" d="M940 1098q228 0 395.5-60.5t264-189T1696 535q0-555-805-555Q70-20 70 537h364q0-120 110.5-181T895 295q236 0 336 59t100 183q0 87-40 138.5t-137.5 78T889 780q-178 0-282-26t-181-86H92l76 970h1452v-317H485l-36-330q102 51 215 79t276 28z"/><glyph glyph-name="six.ss01" horiz-adv-x="1792" d="M903-20q-425 0-621 163.5T86 670v225q0 403 205 583.5T932 1659q368 0 550.5-119t182.5-366h-362q0 169-365 169-489 0-489-311v-59q163 157 514 157 357 0 559-152.5T1724 555q0-137-45.5-241T1536 134.5t-256-115T903-20zM449 551q0-130 102-192t348-62q247 0 354 63t107 195q0 65-20 110.5t-69.5 80-137 51T915 813q-172 0-276-30.5T492 696t-43-145z"/><glyph glyph-name="seven.ss01" horiz-adv-x="1593" d="M14 1321v317h1542v-317q-162-90-288.5-193.5t-207.5-195T922 727t-85-194-42.5-194.5T778 166 776 6V0H414v6q0 82 1 128t7 139 18 155.5T477 585t60 163.5T627 904t125 154 167 137.5 214 125.5H14z"/><glyph glyph-name="eight.ss01" horiz-adv-x="1785" d="M893-20q-419 0-620 128.5T72 479q0 160 75 269.5T352 897q-109 35-174 120.5T113 1227q0 212 200 322t590 110q768 0 768-434 0-124-64-208.5T1434 897q132-39 206-148t74-272q0-497-821-497zM434 510q0-88 41.5-138.5t141-75T893 272q176 0 275.5 24.5T1310 372t42 140q0 81-41 128t-141.5 71T893 735t-276.5-24T475 639.5 434 510zm41 690q0-86 95.5-124t322.5-38 321.5 38.5T1309 1202q0 92-94 129t-322 37q-229 0-323.5-37.5T475 1200z"/><glyph glyph-name="nine.ss01" horiz-adv-x="1792" d="M860-20Q492-20 309.5 99T127 467h362q0-170 365-170 489 0 489 311v60q-164-158-514-158-356 0-558.5 152.5T68 1083q0 137 45.5 241t142 180 256 115.5T889 1659q425 0 621-162.5T1706 971V743q0-403-204.5-583T860-20zM432 1083q0-65 20-110.5t69.5-80 137-51T877 825q253 0 359.5 64t106.5 198q0 86-40.5 140.5t-141 85T893 1343q-247 0-354-63t-107-197z"/><glyph glyph-name="zero.tf" d="M461-20q-207 0-312.5 122.5T43 481v676q0 502 418 502t418-502V481q0-256-105.5-378.5T461-20zm-53 368q0-43 11-62.5t42-19.5 42 19.5 11 62.5v443L408 612V348zm0 498l106 178v262q0 44-11 65t-42 21-42-20-11-64V846z"/><glyph glyph-name="one.tf" d="M102 295h197v940q-14-20-21-27.5t-29.5-21.5-60-19.5T94 1161v320q191 0 254 157h307V295h197V0H102v295z"/><glyph glyph-name="two.tf" d="M47 336q0 67 9.5 126.5t21.5 101 37 84 40.5 65 48.5 54 44.5 40.5 44.5 35l96 76q47 38 72 69.5t41 88 16 141.5v69q0 44-11 65t-42 21-42-20-11-64v-188H47v125q0 208 110 321t308 113q196 0 307-120.5T883 1188q0-302-232-500l-108-92q-74-62-102.5-129T412 295h462V0H47v336z"/><glyph glyph-name="three.tf" d="M465-20Q255-20 149 84.5T43 416v96h356V350q0-44 12-64t44-20 43.5 21 11.5 65v242q0 44-11 65t-42 21H299v297h154q31 0 42 21t11 65v223q0 44-11 65t-42 21-42.5-20-11.5-64v-141H43v82q0 430 412 430 83 0 149.5-20.5t108-51 72-74 44.5-80 22.5-80.5 9.5-64 1-40v-55q0-140-47-221T676 850q190-83 190-361v-49q0-235-98-347.5T465-20z"/><glyph glyph-name="four.tf" d="M807 1638V567h70V272h-70V0H451v272H37v344l436 1022h334zM254 567h197v512z"/><glyph glyph-name="five.tf" d="M606 1098q44 0 80.5-9.5t73.5-36 62-70T863 866t16-170V530q0-289-105-419.5T457-20Q254-20 148.5 97.5T43 453v59h365V350q0-44 11-64t42-20 42 21 11 65v336q0 53-10.5 76.5T465 788q-57 0-57-100H53l41 950h719v-295H416l-23-364q70 119 213 119z"/><glyph glyph-name="six.tf" d="M471-20q-215 0-319.5 127T47 502v547q0 224 49 359.5t143 193 246 57.5q188 0 285.5-106.5T868 1233v-47H512v43q0 44-10 65t-39 21q-30 0-40.5-20t-10.5-64v-227q73 94 196 94 275 0 275-422V469q0-243-109.5-366T471-20zm-59 370q0-44 11-64t44-20q30 0 40.5 21t10.5 65v350q0 44-10.5 65T465 788t-42.5-19.5T412 705V350z"/><glyph glyph-name="seven.tf" d="M92 1341v297h729v-297q-52-99-93-204.5t-66.5-191T618 752t-26.5-175.5-13-176-5-155.5-.5-151V0H219v94q0 115 5.5 214.5t24.5 232 51 254 90 265.5 136 281H92z"/><glyph glyph-name="eight.tf" d="M461-20Q43-20 43 397v74q0 100 21.5 176.5t58 121T199 837t86 31q-47 6-87.5 27.5t-76 60.5-56 105.5T45 1214v50q0 192 107 293.5T461 1659t309-101.5T877 1264v-50q0-86-20.5-152.5t-56-105.5-76-60.5T637 868q46-7 86-31t76.5-68.5 58-121T879 471v-74q0-417-418-417zm-53 370q0-44 11-64t42-20 42 20.5 11 65.5v269q0 44-11 65t-42 21-42-20-11-64V350zm0 744q0-44 11-64t42-20 42 21 11 65v190q0 44-11 65t-42 21-42-20-11-64v-194z"/><glyph glyph-name="nine.tf" d="M451 1659q215 0 319-127t104-395V590q0-224-49-359.5t-143-193T436-20Q248-20 150.5 86.5T53 406v47h357v-43q0-44 10-65t39-21q30 0 40.5 20t10.5 64v227q-73-94-197-94-274 0-274 422v206q0 243 109.5 366.5T451 1659zm-48-723q0-44 11-65t43-21 42.5 20 10.5 64v354q0 44-11 64t-44 20q-30 0-41-21t-11-65V936z"/><glyph glyph-name="zero.dnom" horiz-adv-x="483" d="M242-10Q33-10 33 242v338q0 249 209 249t209-249V242q0-252-209-252zm-27 184q0-41 27-41 16 0 21 9.5t5 31.5v199l-53-88V174zm0 268l53 88v113q0 24-5 33.5t-21 9.5q-27 0-27-41V442z"/><glyph glyph-name="one.dnom" horiz-adv-x="411" d="M27 147h98v471q-8-12-14-18t-28.5-12-59.5-6v159q95 0 127 78h153V147h98V0H27v147z"/><glyph glyph-name="two.dnom" horiz-adv-x="468" d="M29 168q0 199 141 274l31 17q35 19 49 51.5t14 97.5v35q0 24-5 33.5t-21 9.5q-27 0-27-41v-94H29v61q0 104 55 160.5T238 829t153.5-59.5T446 594q0-177-124-260l-54-35q-37-24-47-57t-10-95h231V0H29v168z"/><glyph glyph-name="three.dnom" horiz-adv-x="462" d="M233-10Q128-10 75.5 42T23 209v47h178v-80q0-23 6-33t22-10q27 0 27 43v121q0 23-5.5 33T229 340h-77v149h75q27 0 27 43v111q0 23-5.5 33T227 686q-26 0-26-41v-72H23v41q0 215 206 215 57 0 98-19.5t60.5-43.5 30.5-58 12.5-50.5T432 625v-27q0-70-23.5-110.5T338 426q96-46 96-180v-25q0-118-49-174.5T233-10z"/><glyph glyph-name="four.dnom" horiz-adv-x="458" d="M399 819V285h35V137h-35V0H221v137H14v172l219 510h166zM123 285h98v256z"/><glyph glyph-name="five.dnom" horiz-adv-x="468" d="M309 549q135 0 135-201v-82q0-144-52.5-210T233-10Q27-10 27 227v29h182v-80q0-43 27-43 16 0 21 10t5 33v168q0 28-5 39.5T238 395q-29 0-29-51H33l20 475h359V672H213l-10-183q34 60 106 60z"/><glyph glyph-name="six.dnom" horiz-adv-x="479" d="M238-10Q33-10 33 252v272q0 165 51.5 235T244 829q200 0 200-213v-22H266v20q0 43-24 43-16 0-21.5-10t-5.5-31V502q36 47 98 47 138 0 138-211V236q0-122-55.5-184T238-10zm-23 186q0-22 5.5-32.5T244 133q24 0 24 43v176q0 22-5 32.5T242 395t-21.5-10.5T215 352V176z"/><glyph glyph-name="seven.dnom" horiz-adv-x="391" d="M10 672v147h365V672q-31-58-53.5-116.5t-35-120-20.5-105T255.5 222t-3-89-.5-86V0H74v47q0 98 8 180.5t44 207T227 672H10z"/><glyph glyph-name="eight.dnom" horiz-adv-x="475" d="M238-10Q29-10 29 199v37q0 94 34 141.5t84 56.5q-49 9-82.5 50.5T31 608v25q0 95 53 145.5T238 829t154.5-50.5T446 633v-25q0-82-33.5-123.5T330 434q48-9 82-56.5T446 236v-37q0-209-208-209zm-27 186q0-43 27-43 16 0 21 9.5t5 33.5v135q0 22-5 32.5T238 354q-27 0-27-43V176zm0 371q0-41 27-41 26 0 26 43v94q0 24-5 33.5t-21 9.5q-27 0-27-41v-98z"/><glyph glyph-name="nine.dnom" horiz-adv-x="479" d="M244 829q202 0 202-260V295q0-164-50.5-234.5T238-10Q37-10 37 203v24h178v-22q0-43 25-43 24 0 24 43v112q-38-47-98-47-137 0-137 211v105q0 122 56.5 182.5T244 829zm-33-360q0-22 5.5-32.5T238 426t21 9.5 5 31.5v178q0 21-5 31t-21 10-21.5-10.5T211 643V469z"/><glyph glyph-name="zero.numr" horiz-adv-x="483" d="M242 809q-209 0-209 252v338q0 250 209 250t209-250v-338q0-252-209-252zm-27 184q0-41 27-41 16 0 21 9.5t5 31.5v199l-53-88V993zm0 269l53 88v112q0 24-5 33.5t-21 9.5q-27 0-27-41v-202z"/><glyph glyph-name="one.numr" horiz-adv-x="411" d="M27 967h98v471q-8-13-14-18.5t-28.5-12T23 1401v160q95 0 127 77h153V967h98V819H27v148z"/><glyph glyph-name="two.numr" horiz-adv-x="468" d="M29 987q0 200 141 275l31 16q35 19 49 51.5t14 97.5v35q0 24-5 33.5t-21 9.5q-27 0-27-41v-94H29v62q0 104 55 160.5t154 56.5 153.5-60 54.5-176q0-177-124-260l-54-35q-37-24-47-56.5T211 967h231V819H29v168z"/><glyph glyph-name="three.numr" horiz-adv-x="462" d="M233 809q-105 0-157.5 52T23 1028v47h178v-80q0-23 6-33t22-10q27 0 27 43v121q0 23-5.5 33t-21.5 10h-77v150h75q27 0 27 43v110q0 23-5.5 33t-21.5 10q-26 0-26-41v-71H23v41q0 215 206 215 57 0 98-19.5t60.5-44T418 1527t12.5-50.5 1.5-32.5v-27q0-70-23.5-110.5T338 1245q96-46 96-180v-25q0-118-49-174.5T233 809z"/><glyph glyph-name="four.numr" horiz-adv-x="458" d="M399 1638v-534h35V956h-35V819H221v137H14v172l219 510h166zm-276-534h98v256z"/><glyph glyph-name="five.numr" horiz-adv-x="468" d="M309 1368q135 0 135-201v-82q0-144-52.5-210T233 809q-206 0-206 238v28h182v-80q0-43 27-43 16 0 21 10t5 33v168q0 28-5 39.5t-19 11.5q-29 0-29-51H33l20 475h359v-147H213l-10-182q33 59 106 59z"/><glyph glyph-name="six.numr" horiz-adv-x="479" d="M238 809q-205 0-205 262v272q0 166 51.5 236t159.5 70q200 0 200-213v-23H266v21q0 43-24 43-16 0-21.5-10t-5.5-31v-115q36 47 98 47 138 0 138-211v-102q0-122-55.5-184T238 809zm-23 186q0-22 5.5-32.5T244 952q24 0 24 43v176q0 22-5 32.5t-21 10.5-21.5-10.5-5.5-32.5V995z"/><glyph glyph-name="seven.numr" horiz-adv-x="391" d="M10 1491v147h365v-147q-31-58-53.5-116.5t-35-120-20.5-105-10.5-108.5-3-89-.5-86v-47H74v47q0 98 8 180.5t44 207T227 1491H10z"/><glyph glyph-name="eight.numr" horiz-adv-x="475" d="M238 809q-209 0-209 209v37q0 94 34 141.5t84 56.5q-49 9-82.5 50.5T31 1427v25q0 96 53 146.5t154 50.5 154.5-51 53.5-146v-25q0-82-33.5-123.5T330 1253q48-9 82-56.5t34-141.5v-37q0-209-208-209zm-27 186q0-43 27-43 16 0 21 9.5t5 33.5v135q0 44-26 44-27 0-27-44V995zm0 371q0-41 27-41 26 0 26 43v94q0 24-5 33.5t-21 9.5q-27 0-27-41v-98z"/><glyph glyph-name="nine.numr" horiz-adv-x="479" d="M244 1649q202 0 202-260v-275q0-164-50.5-234.5T238 809q-201 0-201 213v25h178v-23q0-43 25-43 24 0 24 43v113q-38-47-98-47-137 0-137 210v105q0 122 56.5 183t158.5 61zm-33-361q0-22 5.5-32.5T238 1245t21 9.5 5 31.5v178q0 21-5 31t-21 10-21.5-10.5-5.5-32.5v-174z"/><glyph glyph-name="exclamdown.case" horiz-adv-x="454" d="M399 0H57l25 1126h293zM43 1477q0 82 52 132t130 50q79 0 133-50.5t54-131.5q0-84-54-135.5T225 1290q-78 0-130 51.5T43 1477z"/><glyph glyph-name="questiondown.case" horiz-adv-x="870" d="M436-20Q242-20 131 88.5T20 381q0 77 20.5 142.5t51.5 109 67.5 94.5 67.5 98.5 51.5 121T299 1108v18h295v-39q0-118-21.5-210t-53-149T457 621t-52.5-111.5T383 373q0-63 10.5-85t42.5-22q31 0 42 20t11 64v142h363v-50q0-230-107.5-346T436-20zM264 1477q0 82 52 132t130 50q79 0 133-50.5t54-131.5q0-84-54-135.5T446 1290q-78 0-130 51.5T264 1477z"/><glyph glyph-name="hyphen.case" horiz-adv-x="876" d="M18 842h840v-86H18v86z"/><glyph glyph-name="endash.case" horiz-adv-x="1224" d="M18 852h1188V745H18v107z"/><glyph glyph-name="emdash.case" horiz-adv-x="2084" d="M18 852h2048V745H18v107z"/><glyph glyph-name="parenleft.case" horiz-adv-x="464" d="M373-178Q193 69 113 308T33 829q0 284 80 520t260 484h112q-189-267-269.5-493.5T135 829q0-285 79.5-510T485-178H373z"/><glyph glyph-name="parenright.case" horiz-adv-x="464" d="M92 1827q180-247 260-486.5T432 819q0-284-80-519.5T92-184H-20Q169 83 249.5 309T330 819q0 285-79.5 510.5T-20 1827H92z"/><glyph glyph-name="braceleft.case" horiz-adv-x="432" d="M29 938q80 0 80 178v371q0 184 59.5 267t185.5 83h80v-92h-78q-81 0-113-62.5T211 1495v-373q0-108-18.5-160T121 877v-91q53-33 71.5-85T211 541V168q0-125 32-187.5T356-82h78v-92h-80q-126 0-185.5 83T109 176v371q0 178-80 178v213z"/><glyph glyph-name="braceright.case" horiz-adv-x="432" d="M403 715q-79 0-79-178V166q0-184-60-267T78-184H-2v92h78q81 0 113 62.5T221 158v372q0 108 18.5 160.5T311 776v90q-53 33-71.5 85.5T221 1112v373q0 125-32 187.5T76 1735H-2v92h80q126 0 186-83t60-267v-371q0-178 79-178V715z"/><glyph glyph-name="bracketleft.case" horiz-adv-x="425" d="M430 1837v-86H166V-92h264v-86H63v2015h367z"/><glyph glyph-name="bracketright.case" horiz-adv-x="425" d="M-4-188v86h264v1843H-4v86h366V-188H-4z"/><glyph glyph-name="at.case" horiz-adv-x="1196" d="M694 82q-316 0-487.5 190.5T35 854q0 157 32 285.5t87.5 216T287 1503t164 87.5 184 27.5q99 0 177.5-24t144.5-79.5 110-143.5 68-220.5 24-306.5q0-95-6-166.5T1132 544t-40-101-64-61-92-22q-68 0-119 37t-78 101q-61-138-200-138-130 0-209.5 129.5T250 844t79.5 354T539 1327q113 0 174-102v82h205V637q0-111 8-152t39-41q92 0 92 400 0 160-18.5 279.5T986 1321t-87 126-115.5 67.5T639 1534q-80 0-152-23.5T350.5 1435 239 1305.5 164.5 1112 137 854q0-181 39.5-314.5T291 325t175.5-120T696 166q176 0 326 63v-84Q868 82 694 82zM455 844q0-154 28.5-228.5T594 541q18 0 32.5 3t25.5 11 20 15.5 15.5 24 11 28 7 35 4 38.5 2.5 45.5 1 48V844q0 58-.5 88.5t-4 72-11 62-20.5 42-33.5 30-49.5 8.5q-82 0-110.5-74.5T455 844z"/><glyph glyph-name="ampersand.ss01" horiz-adv-x="1744" d="M801-20q-225 0-385 51T166 191.5 76 465q0 147 73 243t207 136Q98 935 98 1225q0 114 55.5 200T307 1561t220.5 74 269.5 24q340 0 525-127.5t185-382.5h-348q0 122-91 174.5T805 1376q-168 0-259-46t-91-154v-2q0-108 90.5-155.5T807 971h352v98h348v-98h179V700h-179V481q0-501-706-501zM430 481q0-120 91.5-169.5T797 262q178 0 270 50.5t92 172.5v215H803q-172 0-272.5-53.5T430 483v-2z"/><glyph glyph-name="cent.tf" d="M401-143v278q-189 14-287 128.5T16 610v418q0 232 98 346.5T401 1503v279h123v-279q385-29 385-475v-65H598v133q0 94-74 116V426q74 22 74 117v133h311v-66q0-446-385-475v-278H401zm-73 686q0-51 17.5-78.5T401 426v786q-38-11-55.5-38t-17.5-78V543z"/><glyph glyph-name="dollar.tf" d="M399-143v125Q211-6 122 93.5T33 385v164h311V381q0-82 55-105v410l-141 86q-81 49-129 106.5T56 1024t-25 217q0 201 92.5 301.5T399 1657v125h123v-125q172-12 266.5-97.5T883 1325v-199H573v136q0 78-51 98V981l115-72q55-34 90-61t69-67 52.5-87T878 579t11-157q0-224-86.5-326T522-18v-125H399zm-59 1339q0-51 13.5-80t45.5-55v305q-59-19-59-104v-66zm182-922q56 17 56 107v82q0 54-13 86.5T522 606V274z"/><glyph glyph-name="Euro.tf" d="M16 717v82h54v41H16v82h54v235q0 256 105 379t312 123q418 0 418-502V973H541v315q0 47-12 65.5t-42 18.5q-29 0-41-18.5t-12-65.5V922h180v-82H434v-41h180v-82H434V348q0-46 12-64t41-18 41.5 18.5T541 348v318h364V481q0-501-418-501Q70-20 70 481v236H16z"/><glyph glyph-name="sterling.tf" d="M16 227q94 63 135.5 133T193 535q0 11-5 73H16v123h148q-6 21-23 81t-26 95-20.5 91-17 112.5T72 1227q0 215 103 323.5T475 1659q205 0 313.5-118T897 1184v-156H532v197q0 44-1 64t-5 43.5-13.5 31.5-25.5 8q-13 0-21.5-3t-14.5-13-9-18-4.5-28.5-1.5-34V1231q0-103 19-193.5t50.5-182T545 731h233V608H557q-6-97-43.5-172.5T403 287h494V0H16v227z"/><glyph glyph-name="yen.tf" d="M80 571v82h182L2 1638h365l86-591 4-52h8l4 52 86 591h365L659 653h183v-82H639v-82h203v-81H639V0H283v408H80v81h203v82H80z"/><glyph glyph-name="bouclecomb" horiz-adv-x="806" d="M586-20q-79 0-129 30t-109 94h-20v1076h20q37 78 92.5 125t147.5 47q219 0 219-328V270q0-290-221-290zM348 352q0-44 11-64t42-20 42.5 21 11.5 65v621q0 44-11.5 65t-42.5 21-42-20-11-64V352z"/><glyph glyph-name="slashcomb" d="M98-20l613 1679h112L211-20H98z"/></font>
</defs>
</svg>
