<svg xmlns="http://www.w3.org/2000/svg"><defs><font id="PPFormula-SemiCondensedExtralight" horiz-adv-x="1165"><font-face font-family="PP Formula Semi Cond Exlight" font-weight="200" font-stretch="semi-condensed" units-per-em="2048" ascent="1638" descent="-410" x-height="1331" cap-height="1671" bbox="-360 -451 3133 2095" underline-thickness="81" underline-position="-285" unicode-range="U+0020-FB02"/><glyph glyph-name="fi" unicode="fi" horiz-adv-x="1224" d="M23 1331h276v80q0 48 4 82.5t20 74.5 44.5 65 81.5 42 126 17q101 0 201-21v-98q-85 18-166 18-54 0-90.5-9.5T463 1559t-30.5-39.5-12.5-49-2-61.5v-102q28 12 88.5 17.5t107.5 6 162 .5v-102H418V0H299v1229H23v102zm890 262q0 42 28.5 70.5t72.5 28.5q43 0 70.5-28.5t27.5-70.5q0-38-27.5-66t-70.5-28-72 28-29 66zM952 0v1331h121V0H952z"/><glyph glyph-name="fl" unicode="fl" horiz-adv-x="1236" d="M23 1331h276v80q0 48 4 82.5t20 74.5 44.5 65 81.5 42 126 17q101 0 201-21v-98q-85 18-166 18-54 0-90.5-9.5T463 1559t-30.5-39.5-12.5-49-2-61.5v-102q28 12 88.5 17.5t107.5 6 162 .5v-102H418V0H299v1229H23v102zM965 0v1671h120V0H965z"/><glyph glyph-name=".notdef" horiz-adv-x="1054" d="M864 1659V-451H197v2110h667zM352-305h350v69H487l148 99h67v69H352v-69h148l-148-99v-69zm0 287h350v239H352V-18zm0 364h350v240H492V467h71v49h70V416H422v170h-70V346zm0 285h350v211h-69V702H352v-71zm0 121h211v147h139v70H352v-70h140v-78H352v-69zm0 274h350v72H563v147H352v-219zm0 274h350v70H563v78h139v70H354v-70h138v-78H352v-70zM422 51v101h211V51H422zm0 1047v76h70v-76h-70z"/><glyph glyph-name=".null" horiz-adv-x="0"/><glyph glyph-name="nonmarkingreturn" horiz-adv-x="682"/><glyph glyph-name="space" horiz-adv-x="544"/><glyph glyph-name="exclam" unicode="!" horiz-adv-x="462" d="M172 1671h119l-2-1159H172v1159zM115 92q0 53 32.5 85t81.5 32q48 0 82.5-32.5T346 92q0-49-34.5-80.5T229-20t-81 31-33 81z"/><glyph glyph-name="quotedbl" unicode="&quot;" horiz-adv-x="540" d="M117 1671h106v-512H117v512zm200-512v512h107v-512H317z"/><glyph glyph-name="numbersign" unicode="#" horiz-adv-x="1832" d="M264 1128h477l289 543h111l-289-543h430l289 543h110l-288-543h370v-86h-415l-238-446h455v-86h-500L795 0H684l270 510H524L254 0H143l271 510H66v86h393l237 446H264v86zm305-532h430l238 446H807z"/><glyph glyph-name="dollar" unicode="$" horiz-adv-x="1118" d="M526-143v125Q311-4 197.5 120T84 473v105h125V473q0-187 80-278T526 90v741l-94 50q-57 28-98.5 53t-85 62-70.5 78.5-44 99-17 126.5q0 180 107 282t302 110v123h90v-125q191-18 293.5-133.5T1012 1231v-64H887v62q0 320-271 350V918l91-48q61-31 99.5-54.5t86-64T967 667t46-111 19-148q0-201-104-310T616-20v-123h-90zM242 1307q0-66 19-118t56.5-90 75.5-63 94-51l39-20v618q-284-13-284-272v-4zM616 88q146 6 217.5 80.5T905 401v5q0 65-13 116t-33 85.5-56.5 65-69.5 50-86 45.5l-31 16V88z"/><glyph glyph-name="percent" unicode="%" horiz-adv-x="1452" d="M264 0l817 1671h105L367 0H264zM53 1364q0 64 18.5 121.5T125 1590t93.5 74.5T350 1692t130.5-27.5T573 1590t53.5-104.5T645 1364t-18.5-122-53.5-105-92.5-75-130.5-28-131.5 28-93.5 75-53.5 105T53 1364zm113 0q0-102 47.5-164.5T350 1137q88 0 135 62.5t47 164.5q0 101-47 163t-135 62q-89 0-136.5-62T166 1364zM807 307q0 64 18.5 122T879 534t93.5 75 131.5 28 130.5-28 92.5-75 53.5-105 18.5-122q0-135-76.5-231T1104-20q-97 0-166 48T838 148t-31 159zm113 0q0-101 47.5-163T1104 82q88 0 135 62t47 163q0 102-47 165t-135 63q-89 0-136.5-63T920 307z"/><glyph glyph-name="ampersand" unicode="&amp;" horiz-adv-x="1243" d="M582-20q-125 0-217 34t-145.5 95.5-79 140T115 424v51q0 137 62 240.5T352 850q-108 28-172.5 131T115 1227v39q0 88 24.5 161.5t77 134.5 146.5 95.5 223 34.5q234 0 343-113t109-336v-51H918v55q0 190-79.5 267T584 1591q-180 0-264-78t-84-247v-47q0-77 18-134t48.5-92.5T379 935t96.5-30 114.5-8h328v141h120V897h127v-98h-127V418q0-216-111-327T582-20zM236 420q0-178 83-259t265-81q172 0 253 76.5T918 416v383H588q-63 0-113.5-8.5t-96-30.5-76-57.5-48.5-92T236 479v-59z"/><glyph glyph-name="quotesingle" unicode="'" horiz-adv-x="339" d="M117 1671h106v-512H117v512z"/><glyph glyph-name="parenleft" unicode="(" horiz-adv-x="595" d="M463-307Q268-52 179 192T90 721q0 286 89 526t284 496h112q-204-275-293-507t-89-515q0-285 88-516t294-512H463z"/><glyph glyph-name="parenright" unicode=")" horiz-adv-x="595" d="M133 1747q195-255 284-499t89-529q0-286-89-526T133-303H20Q224-28 313.5 204T403 719q0 285-88.5 516T20 1747h113z"/><glyph glyph-name="asterisk" unicode="*" horiz-adv-x="741" d="M330 1683h82v-239l190 100 41-69-186-99 186-98-41-70-190 101v-240h-82v240l-191-101-41 70 187 98-187 99 41 69 191-100v239z"/><glyph glyph-name="plus" unicode="+" horiz-adv-x="1359" d="M92 786v93h541v473h94V879h541v-93H727V309h-94v477H92z"/><glyph glyph-name="comma" unicode="," horiz-adv-x="405" d="M109-117q44 15 91.5 55T260 20q-24-40-78-40-41 0-68.5 29T86 92q0 51 31 82t88 31q52 0 83-37t31-98q0-171-210-291v104z"/><glyph glyph-name="hyphen" unicode="-" horiz-adv-x="1347" d="M86 719h1176v-86H86v86z"/><glyph glyph-name="period" unicode="." horiz-adv-x="411" d="M205-20q-48 0-81.5 31T90 92q0 53 33 85t82 32q48 0 82.5-32.5T322 92q0-49-34.5-80.5T205-20z"/><glyph glyph-name="slash" unicode="/" horiz-adv-x="1064" d="M1030 1671L143 0H35l887 1671h108z"/><glyph glyph-name="zero" unicode="0" horiz-adv-x="1255" d="M633-18q-261 0-387.5 157T119 582v512q0 139 30.5 248t92 187.5T402 1650t231 42q255 0 380.5-157.5T1139 1094V582q0-286-125.5-443T633-18zM244 575q0-182 49-292l625 1185q-96 119-285 119-193 0-291-116t-98-371V575zm108-387Q447 84 633 84q188 0 284.5 117t96.5 374v525q0 164-41 270z"/><glyph glyph-name="one" unicode="1" horiz-adv-x="937" d="M86 102h356v1414q-56-85-151.5-130T82 1341v111q118 0 202.5 53.5T438 1671h125V102h359V0H86v102z"/><glyph glyph-name="two" unicode="2" horiz-adv-x="1196" d="M98 104q0 77 5 133t19 118 41.5 110.5T235 564t110 95.5T500 748l192 126q69 33 116 65t88.5 77 62 106 20.5 138v8q0 92-25 155.5t-74 98.5-110.5 50-144.5 15q-93 0-161-18.5T344.5 1507t-77-119-25.5-186v-65H117v61q0 494 508 494 233 0 356-108t123-322q0-98-28.5-177T994 949.5 885.5 855 756 782L567 655q-89-39-147.5-76t-99-80T259 397.5 229.5 271 221 102h881V0H98v104z"/><glyph glyph-name="three" unicode="3" horiz-adv-x="1208" d="M596-20Q342-20 219 95T96 442v66h123v-68q1-197 94-276.5T596 84q187 0 281 78.5T971 416v63q0 334-361 334H414v102h194q51 0 96 6t94.5 25.5 84 50.5 57.5 86 23 127v52q0 78-20 136.5t-53 94-81 57-97.5 29.5-109.5 8q-64 0-114.5-8t-99-31-80.5-60.5-51.5-99.5-20.5-145v-59H113v55q0 225 120 339t369 114q242 0 362.5-112t120.5-318v-45q0-130-68.5-226T827 866q131-37 200-138.5t69-254.5v-55q0-201-123.5-319.5T596-20z"/><glyph glyph-name="four" unicode="4" horiz-adv-x="1144" d="M905 1671V473h185V371H905V0H786v371H47v104l741 1196h117zM172 473h614v971z"/><glyph glyph-name="five" unicode="5" horiz-adv-x="1202" d="M653 1120q215 0 336-124t121-349V473q0-239-130.5-366T606-20Q376-20 242.5 99T109 446v54h124v-58q0-84 23-148.5T315.5 190t88-63.5 101-33.5T610 84q82 0 147.5 20t118 63.5 81 119.5T985 467v178q0 184-90.5 277.5T641 1016q-284 0-389-299H125l49 954h858v-102H289l-39-647q131 198 403 198z"/><glyph glyph-name="six" unicode="6" horiz-adv-x="1230" d="M625-20q-253 0-376.5 125T125 481v652q0 125 28 224.5t87 176T398 1651t233 41q101 0 179-24t127.5-63.5 82-97 46-118.5 15.5-134l2-30H958v30q-6 169-86 249.5T633 1585q-383 0-383-426V920q121 200 409 200 225 0 345-124.5T1124 639V465q0-234-123.5-359.5T625-20zM250 475q0-211 95.5-301T625 84q190 0 282 91.5T999 465v176q0 375-356 375-176 0-284.5-94.5T250 653V475z"/><glyph glyph-name="seven" unicode="7" horiz-adv-x="1040" d="M23 1569v102h968v-102q-158-147-266-317T555.5 885.5t-87.5-405T442 16V0H322v14q0 248 24.5 451.5T430 867t165 373 261 329H23z"/><glyph glyph-name="eight" unicode="8" horiz-adv-x="1210" d="M606-20q-500 0-500 430v88q0 309 267 385-109 35-170.5 119T141 1217v86q0 182 119 285.5T606 1692t345-103 118-286v-86q0-131-60.5-215T840 883q264-78 264-385v-88q0-430-498-430zM231 408q0-181 94-253.5T606 82t280 72.5T979 408v98q0 75-18.5 131.5T910 729t-80.5 57-102 30.5T606 825q-86 0-150-14.5T339 762t-80.5-98.5T231 506v-98zm35 802q0-147 91.5-213.5T606 930q73 0 132 15t106.5 46.5 73.5 87 26 131.5v93q0 148-85.5 217T606 1589q-340 0-340-286v-93z"/><glyph glyph-name="nine" unicode="9" horiz-adv-x="1230" d="M606 1692q253 0 376.5-125.5T1106 1190V539q0-125-28-224.5t-87-176T833 21 600-20Q499-20 421 4T293.5 67.5t-82 96.5-46 118T150 416l-3 30h125v-30q6-169 86.5-249.5T598 86q383 0 383 426v240Q859 551 571 551q-225 0-345 124.5T106 1032v174q0 234 124 360t376 126zm-375-662q0-375 357-375 176 0 284.5 94.5T981 1018v178q0 211-95.5 301T606 1587q-190 0-282.5-91.5T231 1206v-176z"/><glyph glyph-name="colon" unicode=":" horiz-adv-x="475" d="M236 885q-48 0-81.5 31T121 997q0 53 33 85t82 32q48 0 82-32.5t34-84.5q0-49-34.5-80.5T236 885zM121 92q0 53 33 85t82 32q48 0 82-32.5T352 92q0-49-34.5-80.5T236-20q-48 0-81.5 31T121 92z"/><glyph glyph-name="semicolon" unicode=";" horiz-adv-x="466" d="M238 885q-48 0-81.5 31T123 997q0 53 33 85t82 32q48 0 82-32.5t34-84.5q0-49-34.5-80.5T238 885zM113 92q0 51 30.5 82t87.5 31q52 0 83.5-37.5T346 70q0-171-211-291v104q44 16 92 55.5T287 20q-24-40-78-40-41 0-68.5 29T113 92z"/><glyph glyph-name="less" unicode="&lt;" horiz-adv-x="1294" d="M80 872l1085 326v-100L238 831l927-266V465L80 791v81z"/><glyph glyph-name="equal" unicode="=" horiz-adv-x="1392" d="M109 1001h1175v-86H109v86zm0-339v86h1175v-86H109z"/><glyph glyph-name="greater" unicode="&gt;" horiz-adv-x="1294" d="M1214 791L129 465v100l928 266-928 267v100l1085-326v-81z"/><glyph glyph-name="question" unicode="?" horiz-adv-x="985" d="M500 1692q114 0 199-31.5t133.5-87.5 72-124.5T928 1298q0-77-22-142t-57.5-111-78-89-85-87.5-78-94.5T550 653t-22-157v-31H412v31q0 93 22 170t56.5 130.5 77 100.5 84.5 89.5 76.5 87 56.5 104 22 129.5q0 136-76.5 210T498 1591q-92 0-156.5-26.5T241 1487t-51.5-115.5T174 1221v-70H53v68q0 60 8 113.5T88 1441t53 99 82 79 118.5 54 158.5 19zM356 92q0 53 33 85t82 32q48 0 82.5-32.5T588 92q0-49-34.5-80.5T471-20t-81.5 31T356 92z"/><glyph glyph-name="at" unicode="@" horiz-adv-x="1579" d="M862-133q-176 0-317.5 52.5T302 73 146.5 328 92 678q0 199 55 356t152 257 226 152 282 52q158 0 280-46.5t210.5-142 135-251T1479 690q0-504-262-504-153 0-193 158-84-170-266-170-163 0-260 131.5T401 668q0 229 96.5 360T756 1159q169 0 256-149v141h108V459q0-93 29-140t78-47q149 0 149 418 0 376-144.5 545.5T809 1405q-132 0-242.5-45t-194-132.5-130.5-228T195 678q0-178 48-316t136-227T588.5.5 860-45q113 0 228.5 21T1280 29v-90q-183-72-418-72zM510 668q0-193 69-292.5T772 276q240 0 240 392 0 391-242 391-123 0-191.5-99T510 668z"/><glyph glyph-name="A" unicode="A" horiz-adv-x="1159" d="M41 0l459 1671h159L1116 0H987L887 375H270L172 0H41zm258 481h561L582 1530l-4 12-3-10z"/><glyph glyph-name="B" unicode="B" horiz-adv-x="1271" d="M164 0v1671h538q107 0 181-17.5t130.5-60T1097 1475t27-189v-47q0-257-209-346 119-32 192-129.5t73-274.5v-53q0-235-112-335.5T715 0H164zm125 106h413q197 0 273 70.5t76 261.5v60q0 179-87 255t-270 76H289V106zm0 830h383q53 0 94.5 5.5t86 24.5 74 50.5 49 88T995 1237v53q0 54-7.5 95.5t-20 71T932 1506t-46 31.5-59.5 17.5-68.5 8-80 2H289V936z"/><glyph glyph-name="C" unicode="C" horiz-adv-x="1306" d="M664-20q-140 0-247.5 45t-174 126.5-100 190T109 582v512q0 130 33.5 237.5T243 1520t174.5 126.5T664 1692q130 0 232.5-40t168.5-111 101-166.5 38-209.5l2-178h-131v184q-6 206-113 309t-296 103q-210 0-319-123t-109-362V578q0-244 108.5-367T664 88q194 0 299.5 103.5T1075 504v184h131l-2-178q-3-116-38-212t-101-167.5-168.5-111T664-20z"/><glyph glyph-name="D" unicode="D" horiz-adv-x="1316" d="M164 0v1671h471q107 0 191-17t156.5-58.5 120-109 74.5-172 27-243.5V600q0-139-27-243t-74.5-171.5T982.5 76 826 17 635 0H164zm125 104h344q163 0 257.5 46T1030 303.5t45 294.5v475q0 187-45 294.5T890.5 1521 633 1567H289V104z"/><glyph glyph-name="E" unicode="E" horiz-adv-x="1118" d="M164 0v1671h856v-106H289V889h704V782H289V106h731V0H164z"/><glyph glyph-name="F" unicode="F" horiz-adv-x="1079" d="M164 0v1671h858v-106H289V807h696V700H289V0H164z"/><glyph glyph-name="G" unicode="G" horiz-adv-x="1329" d="M643-20q-130 0-232.5 45.5T243 152.5 144.5 343 111 582v512q0 103 20.5 192.5T196 1451t108.5 128.5 156 83T664 1692q130 0 232.5-39t168-109.5 101-164T1206 1174v-125h-129l-2 131q-7 201-113.5 302T666 1583q-210 0-319-123t-109-362V578q0-241 106-365.5T659 88q201 0 309.5 113T1077 537v192H594v105h612V0h-92l-10 246q-63-124-178.5-195T643-20z"/><glyph glyph-name="H" unicode="H" horiz-adv-x="1331" d="M1044 0v782H289V0H164v1671h125V889h755v782h123V0h-123z"/><glyph glyph-name="I" unicode="I" horiz-adv-x="768" d="M102 0v113h220v1446H102v112h564v-112H446V113h220V0H102z"/><glyph glyph-name="J" unicode="J" horiz-adv-x="1167" d="M539-20q-248 0-362 137.5T63 520v107h127V516q0-123 24-208.5t71.5-133 108.5-68T539 86q81 0 141.5 19.5T790 171t74 130 25 205v1165h127V512q0-259-114.5-395.5T539-20z"/><glyph glyph-name="K" unicode="K" horiz-adv-x="1198" d="M1024 0L391 780H289V0H164v1671h125V891h102l633 780h156L494 836 1180 0h-156z"/><glyph glyph-name="L" unicode="L" horiz-adv-x="1048" d="M164 0v1671h125V106h725V0H164z"/><glyph glyph-name="M" unicode="M" horiz-adv-x="1562" d="M164 0v1671h158L780 201l461 1470h158V0h-119v1409L840 0H723L283 1409V0H164z"/><glyph glyph-name="N" unicode="N" horiz-adv-x="1359" d="M164 0v1671h123l792-1417v1417h119V0h-123L283 1417V0H164z"/><glyph glyph-name="O" unicode="O" horiz-adv-x="1333" d="M666-20q-141 0-249 45.5T242.5 153t-100 189.5T109 580v514q0 128 34 235.5t100.5 189T418 1646t248 46q141 0 249.5-46t175-127.5 100.5-189 34-235.5V580q0-130-34-237.5T1090.5 153t-175-127.5T666-20zM238 578q0-240 111-364T666 90q208 0 319 123.5T1096 578v518q0 237-111.5 361T666 1581q-206 0-317-124t-111-361V578z"/><glyph glyph-name="P" unicode="P" horiz-adv-x="1257" d="M164 0v1671h538q252 0 369-125t117-385v-43q0-263-118.5-393.5T702 594H289V0H164zm125 698h409q190 0 275.5 96.5T1059 1110v57q0 217-85 308.5T698 1567H289V698z"/><glyph glyph-name="Q" unicode="Q" horiz-adv-x="1333" d="M666 90q208 0 319 123.5T1096 578v518q0 237-111.5 361T666 1581q-206 0-317-124t-111-361V578q0-240 111-364T666 90zM109 580v514q0 128 34 235.5t100.5 189T418 1646t248 46q141 0 249.5-46t175-127.5 100.5-189 34-235.5V580q0-121-29.5-223T1108 175 956.5 45 741-16q184-36 318-119v-123q-153 91-278 129T494-90V0Q365 33 277.5 117.5T149.5 318 109 580z"/><glyph glyph-name="R" unicode="R" horiz-adv-x="1298" d="M1063 0q-23 27-23 150v284q0 70-15.5 124.5t-44.5 88-62 55.5-77.5 32.5-80.5 14-80 3.5H289V0H164v1671h518q265 0 377-96.5t112-339.5v-27q0-157-60.5-256.5T915 809q250-76 250-371V150q0-121 25-150h-127zM289 858h393q186 0 273 76.5t87 265.5v37q0 72-9.5 125.5t-32 89.5-51 59-74 35-93 16.5T666 1567H289V858z"/><glyph glyph-name="S" unicode="S" horiz-adv-x="1196" d="M618-20Q82-20 82 477v101h127V471q0-204 101.5-293.5T623 88q185 0 268.5 72.5T975 399v7q0 65-13 116t-33.5 85.5T872 672t-70 49-87 43L440 885q-58 27-99 51t-84.5 60-70.5 75.5-44 96-17 124.5q0 189 120.5 294.5T594 1692q242 0 366.5-116.5T1085 1229v-62H958v62q0 191-91 272.5T594 1583q-168 0-254-67t-86-211v-7q0-65 19-116t56.5-87.5 75.5-60 95-49.5l278-121q61-29 100.5-52t86.5-62.5 74.5-83 46-109.5 18.5-147q0-213-118.5-321.5T618-20z"/><glyph glyph-name="T" unicode="T" horiz-adv-x="1079" d="M477 0v1565H41v106h997v-106H602V0H477z"/><glyph glyph-name="U" unicode="U" horiz-adv-x="1323" d="M662-20q-274 0-391 129.5T154 512v1159h125V506q0-127 25.5-211.5T383 165t118.5-62T662 86q76 0 131.5 10t105 37.5 80 74 48 121T1044 506v1165h127V512q0-275-118.5-403.5T662-20z"/><glyph glyph-name="V" unicode="V" horiz-adv-x="1159" d="M500 0L41 1671h131L578 141l4-10 2 8 403 1532h129L659 0H500z"/><glyph glyph-name="W" unicode="W" horiz-adv-x="1906" d="M442 0L49 1671h127L522 158l348 1513h166l348-1509 2-8 3 8 342 1509h127L1466 0h-159L956 1499l-2 12-4-12L600 0H442z"/><glyph glyph-name="X" unicode="X" horiz-adv-x="1175" d="M29 0l491 856-479 815h139l410-698 407 698h140L655 856 1143 0h-139L586 739 168 0H29z"/><glyph glyph-name="Y" unicode="Y" horiz-adv-x="1173" d="M524 0v586L31 1671h135l420-940 420 940h137L649 586V0H524z"/><glyph glyph-name="Z" unicode="Z" horiz-adv-x="1081" d="M68 0v106l809 1459H68v106h946v-106L205 106h809V0H68z"/><glyph glyph-name="bracketleft" unicode="[" horiz-adv-x="610" d="M567 1747v-88H258V-219h309v-88H156v2054h411z"/><glyph glyph-name="backslash" unicode="\" horiz-adv-x="1064" d="M35 1671h108L1030 0H922z"/><glyph glyph-name="bracketright" unicode="]" horiz-adv-x="610" d="M43-307v88h309v1878H43v88h412V-307H43z"/><glyph glyph-name="asciicircum" unicode="^" horiz-adv-x="925" d="M741 1057l-278 542-279-542H74l315 614h148l315-614H741z"/><glyph glyph-name="underscore" unicode="_" horiz-adv-x="1425" d="M0-160h1425v-86H0v86z"/><glyph glyph-name="grave" unicode="`" horiz-adv-x="1206" d="M1001 1532l-20-78-776 150 20 79z"/><glyph glyph-name="a" unicode="a" horiz-adv-x="1124" d="M862 0v225Q812 103 700 41.5T444-20q-76 0-139 18.5t-112.5 57-77 104T88 313q0 277 326 387l129 43q146 58 199 92 119 76 120 181v12q0 98-66.5 159.5T580 1249q-160 0-249-78.5T242 938v-59H121v55q0 64 14 122t47.5 113 84.5 95 131 64 180 24q114 0 196-29.5t126-81.5 63.5-112T983 997V0H862zM209 319q0-116 65-176.5T467 82q80 0 151 31t125.5 88.5 86.5 147T862 547v289q-20-57-91-99t-185-84l-117-43q-127-48-193.5-116T209 319z"/><glyph glyph-name="b" unicode="b" horiz-adv-x="1167" d="M152 0v1671h120v-538q17 36 44.5 71t71.5 70 109.5 56.5T641 1352q200 0 313-133.5T1067 852V479q0-237-113-368T641-20Q564-20 499.5.5T391 56t-71.5 68.5T272 195V0H152zm120 485q0-176 92.5-289.5T623 82q162 0 242.5 106.5T946 481v367q0 186-81.5 293.5T621 1249q-164 0-256.5-113.5T272 846V485z"/><glyph glyph-name="c" unicode="c" horiz-adv-x="1097" d="M885 899q-11 350-320 350-168 0-256-99t-88-314V496q0-414 342-414 308 0 322 350l2 107h121l-2-103q-9-214-119-335T563-20q-232 0-348.5 136T98 500v331q0 247 116.5 384T561 1352q214 0 326.5-121T1006 895l2-102H887z"/><glyph glyph-name="d" unicode="d" horiz-adv-x="1167" d="M895 1671h119V0H895v199q-17-36-44.5-71T779 58 669.5 1.5 526-20q-200 0-313 133T100 479v373q0 238 113.5 369T526 1352q77 0 141.5-20.5T776 1276t71.5-68.5T895 1137v534zM221 483q0-185 82-293T547 82q164 0 256 113.5T895 485v361q0 176-92 289.5T545 1249q-162 0-243-107t-81-292V483z"/><glyph glyph-name="e" unicode="e" horiz-adv-x="1103" d="M98 498v336q0 245 117 381.5T563 1352q219 0 332-127.5T1008 850V655H221V494q0-412 340-412 299 0 316 317v29h122v-27Q986 204 878.5 92T561-20q-230 0-346.5 135.5T98 498zm123 254h666v118q-1 105-24 180t-67 117.5-101 62-132 19.5q-168 0-255-97.5T221 838v-86z"/><glyph glyph-name="f" unicode="f" horiz-adv-x="798" d="M23 1331h276v80q0 48 4 82.5t20 74.5 44.5 65 81.5 42 126 17q101 0 201-21v-98q-85 18-166 18-54 0-90.5-9.5T463 1559t-30.5-39.5-12.5-49-2-61.5v-102q28 12 88.5 17.5t107.5 6 162 .5v-102H418V0H299v1229H23v102z"/><glyph glyph-name="g" unicode="g" d="M895 35v164q-17-36-44.5-71T779 58 669.5 1.5 526-20q-200 0-313 133T100 479v373q0 238 113.5 369T526 1352q77 0 141.5-20.5T776 1276t71.5-68.5T895 1137v194h119V16q0-121-19-204t-64-141.5T810-415t-189-27H156v102h458q165 0 223 82.5T895 35zM221 483q0-185 82-293T547 82q164 0 256 113.5T895 485v361q0 176-92 289.5T545 1249q-162 0-243-107t-81-292V483z"/><glyph glyph-name="h" unicode="h" d="M272 1671v-536q19 40 47 74.5t71.5 68.5 108.5 54 144 20q186 0 284.5-112t98.5-331V0H905v903q0 348-287 348-80 0-143-26.5T375 1158t-61-92.5-33-99.5-9-92V0H152v1671h120z"/><glyph glyph-name="i" unicode="i" horiz-adv-x="423" d="M152 1331h120V0H152v1331zm-39 262q0 42 28 70.5t72 28.5q43 0 70.5-28.5T311 1593q0-38-27.5-66t-70.5-28-71.5 28-28.5 66z"/><glyph glyph-name="j" unicode="j" horiz-adv-x="423" d="M152-23v1354h120V-43q0-113-16-185.5T199-351 89-421.5-88-442h-127v102h121q54 0 91.5 6t66 21.5 45 37.5 26.5 60 13.5 82T152-23zm-39 1616q0 42 28 70.5t72 28.5q43 0 70.5-28.5T311 1593q0-38-27.5-66t-70.5-28-71.5 28-28.5 66z"/><glyph glyph-name="k" unicode="k" horiz-adv-x="1052" d="M152 1671h120V715h45l568 616h153L414 666 1038 0H885L319 614h-47V0H152v1671z"/><glyph glyph-name="l" unicode="l" horiz-adv-x="423" d="M152 1671h120V0H152v1671z"/><glyph glyph-name="m" unicode="m" horiz-adv-x="1736" d="M1477 920q0 36-1.5 64t-7 64-15.5 63-28 54.5-43 45.5-62 29-83 11q-69 0-123.5-24t-87-61.5-54.5-86-30-93.5-8-89V0H815v920q0 49-3.5 87.5t-18 87-39 80.5-71 54-110.5 22q-68 0-122-24t-86.5-61-54-85.5-30-93.5-8.5-88V0H152v1331h120v-180q33 85 113.5 143t216.5 58q137 0 212-61t99-163q33 67 73 113t111.5 78.5T1264 1352q96 0 162.5-31.5T1529 1229t51-132 15-167V0h-118v920z"/><glyph glyph-name="n" unicode="n" d="M272 1331v-196q19 40 47 74.5t71.5 68.5 108.5 54 144 20q186 0 284.5-112t98.5-331V0H905v903q0 348-287 348-80 0-143-26.5T375 1158t-61-92.5-33-99.5-9-92V0H152v1331h120z"/><glyph glyph-name="o" unicode="o" horiz-adv-x="1120" d="M559-20q-229 0-345 136T98 500v331q0 247 116 384t345 137q230 0 346.5-137T1022 831V500q0-248-116.5-384T559-20zM221 496q0-414 338-414 340 0 340 414v340q0 413-340 413-338 0-338-413V496z"/><glyph glyph-name="p" unicode="p" horiz-adv-x="1167" d="M272 1331v-198q17 36 44.5 71t71.5 70 109.5 56.5T641 1352q200 0 313-133.5T1067 852V479q0-237-113-368T641-20Q564-20 499.5.5T391 56t-71.5 68.5T272 195v-637H152v1773h120zm0-846q0-176 92.5-289.5T623 82q162 0 242.5 106.5T946 481v367q0 186-81.5 293.5T621 1249q-164 0-256.5-113.5T272 846V485z"/><glyph glyph-name="q" unicode="q" d="M895-442v641q-17-36-44.5-71T779 58 669.5 1.5 526-20q-200 0-313 133T100 479v373q0 238 113.5 369T526 1352q77 0 141.5-20.5T776 1276t71.5-68.5T895 1137v194h119V-442H895zM221 483q0-185 82-293T547 82q164 0 256 113.5T895 485v361q0 176-92 289.5T545 1249q-162 0-243-107t-81-292V483z"/><glyph glyph-name="r" unicode="r" horiz-adv-x="968" d="M272 1331v-201q18 41 46 77.5t69 70.5 99 54 126 20q312 0 312-379V870H803v91q0 140-48.5 214T586 1249q-70 0-126.5-29t-90.5-72.5-57-98T280.5 948t-8.5-88V0H152v1331h120z"/><glyph glyph-name="s" unicode="s" horiz-adv-x="1046" d="M682 688q151-67 215-146.5T961 334q0-73-22-134.5t-68.5-112-129-79T547-20Q299-20 187.5 89T76 389v64h121v-62q0-163 83.5-236T545 82q295 0 295 244 0 93-47.5 153T623 592L360 717q-124 52-186.5 126T111 1032q0 64 22.5 119.5T202 1253t125 72.5 183 26.5q117 0 202.5-29t135.5-83 74-124.5T946 956v-49H825v47q0 158-78.5 226.5T512 1249q-127 0-203-54t-76-157q0-79 41.5-128T418 815z"/><glyph glyph-name="t" unicode="t" horiz-adv-x="761" d="M700 1331v-102H381V365q0-59 1.5-93.5t7-68 15-50 27.5-30 43-17.5 62-4h163V0H508q-56 0-96.5 9.5T344 41t-43.5 48-25 69-11 84-2.5 102v885H25v102h32q121 15 183.5 107.5T301 1671h119q0-133-52-225.5T250 1331h450z"/><glyph glyph-name="u" unicode="u" d="M893 0v197q-19-40-47-74.5T774.5 54 666 0 522-20Q336-20 237.5 91.5T139 422v909h121V428q0-348 287-348 80 0 143 26.5T790 173t61 92.5 33 99.5 9 92v874h121V0H893z"/><glyph glyph-name="v" unicode="v" horiz-adv-x="1009" d="M37 1331h125L506 131l340 1200h125L580 0H430z"/><glyph glyph-name="w" unicode="w" horiz-adv-x="1656" d="M45 1331h123L455 145l288 1186h170l291-1186 285 1186h123L1278 0h-148L827 1212 524 0H379z"/><glyph glyph-name="x" unicode="x" horiz-adv-x="1034" d="M10 0l439 686-402 645h139l334-543 336 543h133L586 684 1024 0H885L514 582 143 0H10z"/><glyph glyph-name="y" unicode="y" horiz-adv-x="1163" d="M893 33v164q-19-40-47-74.5T774.5 54 666 0 522-20Q336-20 237.5 91.5T139 422v909h121V428q0-348 287-348 80 0 143 26.5T790 173t61 92.5 33 99.5 9 92v874h119V27q0-122-19-206t-64.5-145-123-89.5T614-442H170v102h434q87 0 142.5 19.5t88.5 66 45.5 114T893 33z"/><glyph glyph-name="z" unicode="z" horiz-adv-x="958" d="M66 1331h825v-100L193 100h702V0H63v100l699 1131H66v100z"/><glyph glyph-name="braceleft" unicode="{" horiz-adv-x="581" d="M92 831q80 0 80 181v379q0 185 68 270.5t202 85.5h97v-94h-95q-170 0-170-254v-381q0-109-18.5-162T184 768v-92q53-33 71.5-86T274 426V45q0-254 170-254h95v-94h-97q-134 0-202 85.5T172 53v379q0 90-21 136t-59 46v217z"/><glyph glyph-name="bar" unicode="|" horiz-adv-x="430" d="M164-20v1703h102V-20H164z"/><glyph glyph-name="braceright" unicode="}" horiz-adv-x="581" d="M489 612q-79 0-79-180V53q0-185-68.5-270.5T139-303H43v94h94q170 0 170 254v381q0 109 18.5 162t71.5 88v92q-53 33-71.5 86T307 1018v381q0 254-170 254H43v94h96q134 0 202.5-85.5T410 1391v-379q0-183 79-183V612z"/><glyph glyph-name="asciitilde" unicode="~" horiz-adv-x="1398" d="M104 715q0 79 27 136t72.5 85.5 93 40.5T399 989q73 0 143-22.5T666.5 912t107-63.5 113-54T1006 772q86 0 137 44t51 128h102q0-80-26.5-136.5t-71.5-85-92.5-40.5-101.5-12q-73 0-143 22.5t-124.5 54-107 63.5-113 54.5T397 887q-86 0-137-44t-51-128H104z"/><glyph glyph-name="uni00A0" horiz-adv-x="544"/><glyph glyph-name="exclamdown" unicode="¡" horiz-adv-x="440" d="M279-340H160l2 1159h117V-340zM104 1239q0 49 35 81t82 32q48 0 81.5-31.5T336 1239q0-53-33-85t-82-32q-48 0-82.5 32.5T104 1239z"/><glyph glyph-name="cent" unicode="¢" horiz-adv-x="1124" d="M520-143v295q-206 17-308.5 151T109 670v331q0 233 103 368.5T520 1520v295h90v-293q196-12 299-132t111-325l2-102H901l-2 106q-14 332-289 348V254q275 16 289 348l2 107h121l-4-103q-9-206-110.5-326T610 150v-293h-90zM229 666q0-380 291-412v1163q-291-32-291-413V666z"/><glyph glyph-name="sterling" unicode="£" horiz-adv-x="1179" d="M94 96q193 161 193 404 0 57-15 141H94v84h160q-9 33-32.5 111t-36 124.5-24 123T150 1235q0 231 126 344t349 113q226 0 346.5-114t120.5-339v-90H969v92q0 179-83.5 264.5T627 1591q-174 0-265.5-85T270 1237q0-74 12-150.5t25.5-125 36.5-124T377 725h563v-84H395q13-70 13-135 0-125-45-223T227 100h865V0H94v96z"/><glyph glyph-name="currency" unicode="¤" horiz-adv-x="980" d="M492 418q-116 0-193 53L176 317l-72 66 123 156q-80 106-80 280 0 175 82 283l-125 153 72 66 123-154q79 54 193 54 111 0 190-54l125 154 72-66-123-157q80-110 80-279 0-172-82-280l125-156-72-66-125 154q-77-53-190-53zM250 819q0-149 60-230t182-81q120 0 180.5 81.5T733 819t-60.5 229.5T492 1130q-122 0-182-81t-60-230z"/><glyph glyph-name="yen" unicode="¥" horiz-adv-x="1193" d="M135 559v82h375L41 1671h135l420-940 420 940h137L684 641h375v-82H659v-90h400v-82H659V0H535v387H135v82h400v90H135z"/><glyph glyph-name="brokenbar" unicode="¦" horiz-adv-x="430" d="M164 1020v663h102v-663H164zm0-1040v663h102V-20H164z"/><glyph glyph-name="section" unicode="§" horiz-adv-x="1159" d="M610-20Q479-20 386.5 7.5T240.5 89t-78 124.5T135 381h103q5-165 88-242.5T608 61q336 0 336 218 0 61-31 107t-90 60L293 565q-109 30-151 86.5T100 784q0 155 133 193-118 70-118 215 0 152 113 226.5t325 74.5q108 0 188.5-18.5t133-51T960 1340t48-110.5 18-137.5H922q-3 111-35.5 178T773 1374t-220 37q-336 0-336-215 0-64 30-109t89-59l532-121q193-49 193-217 0-152-131-194 117-68 117-213 0-303-437-303zM203 788q0-57 29-90.5t92-50.5l432-92q46-8 78.5-9t54.5 11.5 35.5 25.5 20.5 33 9 34.5 2 29.5q0 60-28.5 95T836 825l-435 95q-101 25-149.5-17T203 788z"/><glyph glyph-name="dieresis" unicode="¨" horiz-adv-x="997" d="M707 1479q-37 0-64 25t-27 63q0 43 26.5 67.5T707 1659q37 0 64.5-25t27.5-67q0-37-28-62.5t-64-25.5zm-506 88q0 43 26 67.5t64 24.5q39 0 65.5-24.5T383 1567q0-38-27-63t-65-25q-37 0-63.5 25t-26.5 63z"/><glyph glyph-name="copyright" unicode="©" horiz-adv-x="1736" d="M868-20q-160 0-289.5 45.5t-217 124-146 188-85 233.5T104 836q0 140 26.5 264t85 233.5 146 188.5 217 124.5T868 1692t289.5-45.5 217-124.5 146-188.5 85-233.5 26.5-264q0-141-26-265t-84.5-233.5-146-188-217-124T868-20zM211 836q0-130 21.5-240t71-206T428 227t187-105 253-38q138 0 249 38t186.5 105.5 126 162.5 73.5 206 23 240q0 128-23 238.5t-73.5 206-126 163T1117 1549t-249 38-249-38-186.5-105.5-126-163-73-206T211 836zm197 2q0 121 26.5 220.5t81.5 179T664.5 1361t218.5 44q110 0 193.5-35.5t133-99 76.5-141 35-173.5h-117q-6 59-16 103.5t-32 91-55 76-87.5 48.5-126.5 19q-103 0-175.5-34.5t-112.5-99-57.5-143T524 838q0-102 17.5-181.5t57-144.5T710 412t173-35q73 0 128 19.5t88 49.5 55.5 77 32 90.5T1202 715h117q-8-92-33-167.5T1212.5 406 1080 303t-197-37q-125 0-218.5 44T516 433.5 434.5 614 408 838z"/><glyph glyph-name="ordfeminine" unicode="ª" horiz-adv-x="770" d="M553 881v133q-31-73-97-109.5T305 868q-96 0-154.5 50T92 1071q0 162 201 234l76 26q101 41 133 66 48 38 49 88v8q0 52-37.5 85.5T395 1612q-90 0-138-42.5T209 1444v-39h-96v31q0 112 67 184t211 72q254 0 254-224V881h-92zm-365 198q0-129 142-129 94 0 157.5 70t63.5 190v154q-19-58-154-102l-67-25q-70-26-106-63.5t-36-94.5z"/><glyph glyph-name="guillemotleft" unicode="«" horiz-adv-x="944" d="M487 299L84 635v82l403 336V924L184 676l303-248V299zm-73 336v82l403 336V924L514 676l303-248V299z"/><glyph glyph-name="logicalnot" unicode="¬" horiz-adv-x="1427" d="M1194 641v285H111v92h1185V641h-102z"/><glyph glyph-name="registered" unicode="®" horiz-adv-x="1085" d="M543 766q-76 0-136.5 26.5T310 861t-59.5 98-32.5 109-9 108 9 108 32.5 109 59.5 97.5 96.5 68T543 1585t135.5-26.5 95.5-68 59.5-97.5 32-109 8.5-108-8.5-108-32-109-59.5-98-95.5-68.5T543 766zM94 1176q0-71 13.5-140.5t47-138.5 83-121T366 691.5 543 659q97 0 175.5 32.5t128 84.5T929 897t46.5 138.5T989 1176t-13.5 140-46.5 138.5-82.5 121-128 84T543 1692q-98 0-177-32.5t-128.5-84-83-121-47-138.5T94 1176zm268-275v563h175q44 0 77.5-7t62.5-24.5 44.5-51T737 1298q0-44-23-82.5t-75-58.5q96-34 96-145v-51q0-50 8-60H629q-11 14-11 60v51q0 53-17 71.5t-64 18.5h-58V901H362zm117 309h58q50 0 67 17.5t17 58.5q0 43-19.5 56.5T537 1356h-58v-146z"/><glyph glyph-name="macron" unicode="¯" horiz-adv-x="1206" d="M205 1528v82h796v-82H205z"/><glyph glyph-name="degree" unicode="°" horiz-adv-x="739" d="M371 1169q-89 0-130.5 58T199 1384t41.5 157 130.5 58 130.5-58 41.5-157-41.5-157-130.5-58zM96 1384q0-61 15.5-114t47-97.5 86-70T371 1077t126.5 25.5 85.5 70 46.5 97.5 15.5 114-15.5 114.5T583 1596t-85.5 70-126.5 26-126.5-26-86-70-47-97.5T96 1384z"/><glyph glyph-name="plusminus" unicode="±" horiz-adv-x="1359" d="M731 1251V879h537v-91H731V500h537v-90H92v90h537v288H92v91h537v372h102z"/><glyph glyph-name="uni00B2" unicode="²" horiz-adv-x="638" d="M59 799q0 55 8 95.5t28.5 81T157 1049t103 61l92 51q70 31 102.5 71t32.5 107v7q0 75-40 106t-119 31q-86 0-126-37.5T162 1317v-37H68v31q0 250 260 250 125 0 189.5-57t64.5-169q0-169-176-245l-97-54q-96-37-125.5-86.5T154 793h428v-78H59v84z"/><glyph glyph-name="uni00B3" unicode="³" horiz-adv-x="641" d="M317 705q-132 0-196 58T55 940v33h95v-37q1-86 41.5-120T315 782q86 0 126 34t40 108v43q0 43-13.5 72t-37.5 42.5-49.5 19-58.5 5.5h-97v78h97q153 0 153 127v35q0 76-42 106.5T317 1483q-78 0-118-32.5T158 1335v-32H63v26q3 232 254 232 129 0 190.5-60.5T569 1343v-20q2-65-29.5-112t-90.5-64q126-39 126-193v-24q0-107-63.5-166T317 705z"/><glyph glyph-name="acute" unicode="´" horiz-adv-x="1157" d="M225 1470l-20 78 727 152 20-80z"/><glyph glyph-name="paragraph" unicode="¶" horiz-adv-x="913" d="M647 1671h103V0H647v1671zM55 1307q0 111 20.5 182.5T142 1601t108.5 55 159.5 15h102V0H410v944q-97 0-159.5 15T142 1014t-66.5 111T55 1307z"/><glyph glyph-name="periodcentered" unicode="·" horiz-adv-x="442" d="M221 586q-48 0-81.5 31T106 698q0 53 33 85t82 32q48 0 82.5-32.5T338 698q0-49-34.5-80.5T221 586z"/><glyph glyph-name="cedilla" unicode="¸" horiz-adv-x="780" d="M207-342q147 0 205.5 15.5T471-260q0 52-56.5 62T248-207L297 0h88l-35-135q225 32 225-125 0-92-92-128t-278-36z"/><glyph glyph-name="uni00B9" unicode="¹" horiz-adv-x="514" d="M55 793h172v647q-61-74-174-74v84q115 0 178 100h86V793h177v-78H55v78z"/><glyph glyph-name="ordmasculine" unicode="º" horiz-adv-x="759" d="M381 868q-142 0-213.5 82.5T96 1184v192q0 150 71.5 233t213.5 83q140 0 211.5-82.5T664 1376v-192q0-151-71.5-233.5T381 868zm-188 310q0-230 188-230 184 0 184 230v204q0 230-184 230-188 0-188-230v-204z"/><glyph glyph-name="guillemotright" unicode="»" horiz-adv-x="944" d="M459 299v129l303 248-303 248v129l403-336v-82zm-332 0v129l303 248-303 248v129l403-336v-82z"/><glyph glyph-name="onequarter" unicode="¼" horiz-adv-x="1626" d="M78 913h172v648q-61-74-174-74v84q116 0 178 100h86V913h176v-77H78v77zM346 0l789 1671h96L442 0h-96zm694 174v82l363 580h90V252h86v-78h-86V0h-92v174h-361zm82 78h279v432z"/><glyph glyph-name="onehalf" unicode="½" horiz-adv-x="1718" d="M78 913h172v648q-61-74-174-74v84q116 0 178 100h86V913h176v-77H78v77zM346 0l789 1671h96L442 0h-96zm774 0v84q0 55 8 95.5t28.5 81T1218 334t103 61l92 51q70 31 102.5 71.5T1548 625v6q0 75-40 106t-119 31q-86 0-126-37.5T1223 602v-37h-95v31q0 250 261 250 253 0 253-225 0-170-176-246l-96-53q-96-37-126-87t-30-157h428V0h-522z"/><glyph glyph-name="threequarters" unicode="¾" horiz-adv-x="1730" d="M332 825q-132 0-196 58.5T70 1061v33h94v-37q1-86 41.5-120T330 903q86 0 126 33.5t40 107.5v43q0 43-13.5 72t-38 43-50 19.5-58.5 5.5h-96v78h96q153 0 153 127v34q0 76-42 107t-115 31q-78 0-118.5-32.5T172 1456v-33H78v27q3 231 254 231 129 0 190.5-60t61.5-157v-20q2-65-30-112t-91-64q127-40 127-193v-24q0-107-63.5-166.5T332 825zM451 0l788 1671h96L547 0h-96zm694 174v82l362 580h90V252h86v-78h-86V0h-92v174h-360zm82 78h278v432z"/><glyph glyph-name="questiondown" unicode="¿" horiz-adv-x="978" d="M481-360q-114 0-199 31.5t-134 87-72 124T53 33q0 77 22 142t57.5 111.5 78 89.5 85 87.5 78 94.5T431 679t22 157v30h116v-30q0-93-22-170t-56.5-130.5T414 435t-84.5-89.5-77-87-56.5-104T174 25q0-136 76.5-210.5T483-260q92 0 156.5 26.5t100.5 78 51.5 116T807 111v69h121v-67q0-60-8-113.5T893-109t-53-99-82-79-118.5-54T481-360zm-88 1599q0 49 35 81t82 32q48 0 81.5-31.5T625 1239q0-53-33-85t-82-32q-48 0-82.5 32.5T393 1239z"/><glyph glyph-name="Agrave" unicode="À" horiz-adv-x="1159" d="M41 0l459 1671h159L1116 0H987L887 375H270L172 0H41zm139 1944l21 79 776-151-21-78zM299 481h561L582 1530l-4 12-3-10z"/><glyph glyph-name="Aacute" unicode="Á" horiz-adv-x="1159" d="M41 0l459 1671h159L1116 0H987L887 375H270L172 0H41zm164 1888l727 152 20-80-727-150zm94-1407h561L582 1530l-4 12-3-10z"/><glyph glyph-name="Acircumflex" unicode="Â" horiz-adv-x="1159" d="M41 0l459 1671h159L1116 0H987L887 375H270L172 0H41zm205 1802l266 246h143l260-246H768l-184 178-193-178H246zm53-1321h561L582 1530l-4 12-3-10z"/><glyph glyph-name="Atilde" unicode="Ã" horiz-adv-x="1159" d="M41 0l459 1671h159L1116 0H987L887 375H270L172 0H41zm168 1810q0 111 55.5 164.5T414 2028q51 0 90.5-15.5t65-38 48-45 52-38T735 1876q111 0 111 131h102q0-112-57-164.5T739 1790q-53 0-93.5 15.5t-66 38-48 45-51 38T418 1942q-54 0-80.5-35.5T311 1810H209zm90-1329h561L582 1530l-4 12-3-10z"/><glyph glyph-name="Adieresis" unicode="Ä" horiz-adv-x="1159" d="M41 0l459 1671h159L1116 0H987L887 375H270L172 0H41zm240 1907q0 43 26 67.5t64 24.5q39 0 65.5-24.5T463 1907q0-38-27-63t-65-25q-37 0-63.5 25t-26.5 63zm18-1426h561L582 1530l-4 12-3-10zm397 1426q0 43 26 67.5t64 24.5 65.5-25 27.5-67q0-37-28.5-62.5T786 1819q-37 0-63.5 25t-26.5 63z"/><glyph glyph-name="Aring" unicode="Å" horiz-adv-x="1159" d="M41 0l459 1671h159L1116 0H987L887 375H270L172 0H41zm258 481h561L582 1530l-4 12-3-10zm115 1448q0 71 49.5 118.5T580 2095t116-47.5 49-118.5-49-118.5-116-47.5-116.5 47.5T414 1929zm75 0q0-40 25-65t66-25 65.5 25 24.5 65-24.5 65-65.5 25-66-25-25-65z"/><glyph glyph-name="AE" unicode="Æ" horiz-adv-x="1544" d="M27 0l526 1671h895v-106H874V889h545V782H874V106h574V0H750v387H276L156 0H27zm282 494h441v1071H641z"/><glyph glyph-name="Ccedilla" unicode="Ç" horiz-adv-x="1306" d="M524-342q147 0 205.5 15.5T788-260q0 52-56.5 62T565-207l45 189Q360-1 234.5 161T109 582v512q0 130 33.5 237.5T243 1520t174.5 126.5T664 1692q130 0 232.5-40t168.5-111 101-166.5 38-209.5l2-178h-131v184q-6 206-113 309t-296 103q-210 0-319-123t-109-362V578q0-244 108.5-367T664 88q194 0 299.5 103.5T1075 504v184h131l-2-178q-4-150-60-265.5T974 58 698-20l-30-115q225 32 225-125 0-92-92.5-128T522-424z"/><glyph glyph-name="Egrave" unicode="È" horiz-adv-x="1118" d="M164 0v1671h856v-106H289V889h704V782H289V106h731V0H164zm31 1944l20 79 776-151-20-78z"/><glyph glyph-name="Eacute" unicode="É" horiz-adv-x="1118" d="M164 0v1671h856v-106H289V889h704V782H289V106h731V0H164zm55 1888l727 152 21-80-727-150z"/><glyph glyph-name="Ecircumflex" unicode="Ê" horiz-adv-x="1118" d="M164 0v1671h856v-106H289V889h704V782H289V106h731V0H164zm94 1802l266 246h144l260-246H780l-184 178-193-178H258z"/><glyph glyph-name="Edieresis" unicode="Ë" horiz-adv-x="1118" d="M164 0v1671h856v-106H289V889h704V782H289V106h731V0H164zm131 1907q0 43 26 67.5t64 24.5q39 0 65.5-24.5T477 1907q0-38-27-63t-65-25q-37 0-63.5 25t-26.5 63zm416 0q0 43 26 67.5t64 24.5q37 0 64.5-25t27.5-67q0-37-28-62.5t-64-25.5q-37 0-63.5 25t-26.5 63z"/><glyph glyph-name="Igrave" unicode="Ì" horiz-adv-x="768" d="M102 0v113h220v1446H102v112h564v-112H446V113h220V0H102zM-16 1944l20 79 776-151-20-78z"/><glyph glyph-name="Iacute" unicode="Í" horiz-adv-x="768" d="M102 0v113h220v1446H102v112h564v-112H446V113h220V0H102zM8 1888l727 152 21-80-727-150z"/><glyph glyph-name="Icircumflex" unicode="Î" horiz-adv-x="768" d="M102 0v113h220v1446H102v112h564v-112H446V113h220V0H102zM49 1802l266 246h144l260-246H571l-184 178-192-178H49z"/><glyph glyph-name="Idieresis" unicode="Ï" horiz-adv-x="768" d="M102 0v113h220v1446H102v112h564v-112H446V113h220V0H102zM84 1907q0 43 26 67.5t64 24.5q39 0 65.5-24.5T266 1907q0-38-27-63t-65-25q-37 0-63.5 25T84 1907zm416 0q0 43 26 67.5t64 24.5q37 0 64.5-25t27.5-67q0-37-28-62.5t-64-25.5q-37 0-63.5 25t-26.5 63z"/><glyph glyph-name="Eth" unicode="Ð" horiz-adv-x="1402" d="M250 0v805H33v86h217v780h471q107 0 191-17t156.5-58.5 120-109 74.5-172 27-243.5V600q0-139-27-243t-74.5-171.5-120-109.5T912 17 721 0H250zm125 104h344q163 0 257.5 46T1116 303.5t45 294.5v475q0 187-45 294.5T976.5 1521 719 1567H375V891h444v-86H375V104z"/><glyph glyph-name="Ntilde" unicode="Ñ" horiz-adv-x="1359" d="M164 0v1671h123l792-1417v1417h119V0h-123L283 1417V0H164zm147 1810q0 111 55.5 164.5T516 2028q51 0 91-15.5t65-38 48-45 52.5-38T838 1876q110 0 110 131h103q0-112-57-164.5T842 1790q-53 0-94 15.5t-66.5 38-48 45-51 38T520 1942q-53 0-79.5-35.5T414 1810H311z"/><glyph glyph-name="Ograve" unicode="Ò" horiz-adv-x="1333" d="M666-20q-141 0-249 45.5T242.5 153t-100 189.5T109 580v514q0 128 34 235.5t100.5 189T418 1646t248 46q141 0 249.5-46t175-127.5 100.5-189 34-235.5V580q0-130-34-237.5T1090.5 153t-175-127.5T666-20zM238 578q0-240 111-364T666 90q208 0 319 123.5T1096 578v518q0 237-111.5 361T666 1581q-206 0-317-124t-111-361V578zm28 1366l21 79 776-151-21-78z"/><glyph glyph-name="Oacute" unicode="Ó" horiz-adv-x="1333" d="M666-20q-141 0-249 45.5T242.5 153t-100 189.5T109 580v514q0 128 34 235.5t100.5 189T418 1646t248 46q141 0 249.5-46t175-127.5 100.5-189 34-235.5V580q0-130-34-237.5T1090.5 153t-175-127.5T666-20zM238 578q0-240 111-364T666 90q208 0 319 123.5T1096 578v518q0 237-111.5 361T666 1581q-206 0-317-124t-111-361V578zm53 1310l727 152 20-80-727-150z"/><glyph glyph-name="Ocircumflex" unicode="Ô" horiz-adv-x="1333" d="M666-20q-141 0-249 45.5T242.5 153t-100 189.5T109 580v514q0 128 34 235.5t100.5 189T418 1646t248 46q141 0 249.5-46t175-127.5 100.5-189 34-235.5V580q0-130-34-237.5T1090.5 153t-175-127.5T666-20zM238 578q0-240 111-364T666 90q208 0 319 123.5T1096 578v518q0 237-111.5 361T666 1581q-206 0-317-124t-111-361V578zm94 1224l266 246h143l260-246H854l-184 178-193-178H332z"/><glyph glyph-name="Otilde" unicode="Õ" horiz-adv-x="1333" d="M666-20q-141 0-249 45.5T242.5 153t-100 189.5T109 580v514q0 128 34 235.5t100.5 189T418 1646t248 46q141 0 249.5-46t175-127.5 100.5-189 34-235.5V580q0-130-34-237.5T1090.5 153t-175-127.5T666-20zM238 578q0-240 111-364T666 90q208 0 319 123.5T1096 578v518q0 237-111.5 361T666 1581q-206 0-317-124t-111-361V578zm57 1232q0 111 55.5 164.5T500 2028q51 0 90.5-15.5t65-38 48-45 52-38T821 1876q111 0 111 131h102q0-112-57-164.5T825 1790q-53 0-93.5 15.5t-66 38-48 45-51 38T504 1942q-54 0-80.5-35.5T397 1810H295z"/><glyph glyph-name="Odieresis" unicode="Ö" horiz-adv-x="1333" d="M666-20q-141 0-249 45.5T242.5 153t-100 189.5T109 580v514q0 128 34 235.5t100.5 189T418 1646t248 46q141 0 249.5-46t175-127.5 100.5-189 34-235.5V580q0-130-34-237.5T1090.5 153t-175-127.5T666-20zM238 578q0-240 111-364T666 90q208 0 319 123.5T1096 578v518q0 237-111.5 361T666 1581q-206 0-317-124t-111-361V578zm129 1329q0 43 26 67.5t64 24.5q39 0 65.5-24.5T549 1907q0-38-27-63t-65-25q-37 0-63.5 25t-26.5 63zm415 0q0 43 26 67.5t64 24.5 65.5-25 27.5-67q0-37-28.5-62.5T872 1819q-37 0-63.5 25t-26.5 63z"/><glyph glyph-name="multiply" unicode="×" horiz-adv-x="1064" d="M147 1276l383-383 385 387 64-61-387-388 387-387-61-61-388 387-383-383-61 62 383 382-383 383z"/><glyph glyph-name="Oslash" unicode="Ø" horiz-adv-x="1333" d="M666-20Q454-20 315 84L268-4H160l84 156Q109 308 109 580v514q0 128 34 235.5t100.5 189T418 1646t248 46q212 0 352-105l49 90h109l-86-159q135-156 135-424V580q0-130-34-237.5T1090.5 153t-175-127.5T666-20zM238 578q0-188 69-308l654 1211q-106 100-295 100-206 0-317-124t-111-361V578zm135-390q107-98 293-98 208 0 319 123.5T1096 578v518q0 184-70 305z"/><glyph glyph-name="Ugrave" unicode="Ù" horiz-adv-x="1323" d="M662-20q-274 0-391 129.5T154 512v1159h125V506q0-127 25.5-211.5T383 165t118.5-62T662 86q76 0 131.5 10t105 37.5 80 74 48 121T1044 506v1165h127V512q0-275-118.5-403.5T662-20zM262 1944l21 79 776-151-21-78z"/><glyph glyph-name="Uacute" unicode="Ú" horiz-adv-x="1323" d="M662-20q-274 0-391 129.5T154 512v1159h125V506q0-127 25.5-211.5T383 165t118.5-62T662 86q76 0 131.5 10t105 37.5 80 74 48 121T1044 506v1165h127V512q0-275-118.5-403.5T662-20zM287 1888l727 152 20-80-727-150z"/><glyph glyph-name="Ucircumflex" unicode="Û" horiz-adv-x="1323" d="M662-20q-274 0-391 129.5T154 512v1159h125V506q0-127 25.5-211.5T383 165t118.5-62T662 86q76 0 131.5 10t105 37.5 80 74 48 121T1044 506v1165h127V512q0-275-118.5-403.5T662-20zM326 1802l266 246h143l260-246H848l-184 178-193-178H326z"/><glyph glyph-name="Udieresis" unicode="Ü" horiz-adv-x="1323" d="M662-20q-274 0-391 129.5T154 512v1159h125V506q0-127 25.5-211.5T383 165t118.5-62T662 86q76 0 131.5 10t105 37.5 80 74 48 121T1044 506v1165h127V512q0-275-118.5-403.5T662-20zM362 1907q0 43 26.5 67.5T453 1999q39 0 65.5-24.5T545 1907q0-38-27-63t-65-25q-37 0-64 25t-27 63zm416 0q0 43 26 67.5t64 24.5 65.5-25 27.5-67q0-37-28.5-62.5T868 1819q-37 0-63.5 25t-26.5 63z"/><glyph glyph-name="Yacute" unicode="Ý" horiz-adv-x="1173" d="M524 0v586L31 1671h135l420-940 420 940h137L649 586V0H524zM213 1888l727 152 21-80-728-150z"/><glyph glyph-name="Thorn" unicode="Þ" horiz-adv-x="1284" d="M164 0v1671h121v-295h415q252 0 369-124.5T1186 866v-43q0-262-118.5-392T700 301H285V0H164zm121 406h411q190 0 275.5 96t85.5 315v55q0 217-85 308.5T696 1272H285V406z"/><glyph glyph-name="germandbls" unicode="ß" horiz-adv-x="1185" d="M152 0v1255q0 219 108.5 328T606 1692q229 0 340-101.5t111-292.5v-63q0-277-238-363 279-81 279-393v-33q0-236-115.5-341T635 0H389v102h229q188 0 272.5 75.5T975 444v39q0 45-6 82t-20.5 77-42.5 70-69 54.5T734 804t-142 13H389v103h201q192 0 269 76.5t77 234.5v65q0 160-81.5 226.5T606 1589q-175 0-254.5-73T272 1255V0H152z"/><glyph glyph-name="agrave" unicode="à" horiz-adv-x="1124" d="M862 0v225Q812 103 700 41.5T444-20q-76 0-139 18.5t-112.5 57-77 104T88 313q0 277 326 387l129 43q146 58 199 92 119 76 120 181v12q0 98-66.5 159.5T580 1249q-160 0-249-78.5T242 938v-59H121v55q0 64 14 122t47.5 113 84.5 95 131 64 180 24q114 0 196-29.5t126-81.5 63.5-112T983 997V0H862zM160 1604l20 79 776-151-20-78zm49-1285q0-116 65-176.5T467 82q80 0 151 31t125.5 88.5 86.5 147T862 547v289q-20-57-91-99t-185-84l-117-43q-127-48-193.5-116T209 319z"/><glyph glyph-name="aacute" unicode="á" horiz-adv-x="1124" d="M862 0v225Q812 103 700 41.5T444-20q-76 0-139 18.5t-112.5 57-77 104T88 313q0 277 326 387l129 43q146 58 199 92 119 76 120 181v12q0 98-66.5 159.5T580 1249q-160 0-249-78.5T242 938v-59H121v55q0 64 14 122t47.5 113 84.5 95 131 64 180 24q114 0 196-29.5t126-81.5 63.5-112T983 997V0H862zM184 1548l727 152 21-80-727-150zm25-1229q0-116 65-176.5T467 82q80 0 151 31t125.5 88.5 86.5 147T862 547v289q-20-57-91-99t-185-84l-117-43q-127-48-193.5-116T209 319z"/><glyph glyph-name="acircumflex" unicode="â" horiz-adv-x="1124" d="M862 0v225Q812 103 700 41.5T444-20q-76 0-139 18.5t-112.5 57-77 104T88 313q0 277 326 387l129 43q146 58 199 92 119 76 120 181v12q0 98-66.5 159.5T580 1249q-160 0-249-78.5T242 938v-59H121v55q0 64 14 122t47.5 113 84.5 95 131 64 180 24q114 0 196-29.5t126-81.5 63.5-112T983 997V0H862zM209 319q0-116 65-176.5T467 82q80 0 151 31t125.5 88.5 86.5 147T862 547v289q-20-57-91-99t-185-84l-117-43q-127-48-193.5-116T209 319zm16 1143l267 246h143l260-246H748l-185 178-192-178H225z"/><glyph glyph-name="atilde" unicode="ã" horiz-adv-x="1124" d="M862 0v225Q812 103 700 41.5T444-20q-76 0-139 18.5t-112.5 57-77 104T88 313q0 277 326 387l129 43q146 58 199 92 119 76 120 181v12q0 98-66.5 159.5T580 1249q-160 0-249-78.5T242 938v-59H121v55q0 64 14 122t47.5 113 84.5 95 131 64 180 24q114 0 196-29.5t126-81.5 63.5-112T983 997V0H862zM188 1470q0 111 55.5 164.5T393 1688q51 0 91-15.5t65-38 48-45 52.5-38T715 1536q110 0 110 131h103q0-112-57-164.5T719 1450q-53 0-94 15.5t-66.5 38-48 45-51 38T397 1602q-53 0-79.5-35.5T291 1470H188zm21-1151q0-116 65-176.5T467 82q80 0 151 31t125.5 88.5 86.5 147T862 547v289q-20-57-91-99t-185-84l-117-43q-127-48-193.5-116T209 319z"/><glyph glyph-name="adieresis" unicode="ä" horiz-adv-x="1124" d="M862 0v225Q812 103 700 41.5T444-20q-76 0-139 18.5t-112.5 57-77 104T88 313q0 277 326 387l129 43q146 58 199 92 119 76 120 181v12q0 98-66.5 159.5T580 1249q-160 0-249-78.5T242 938v-59H121v55q0 64 14 122t47.5 113 84.5 95 131 64 180 24q114 0 196-29.5t126-81.5 63.5-112T983 997V0H862zM209 319q0-116 65-176.5T467 82q80 0 151 31t125.5 88.5 86.5 147T862 547v289q-20-57-91-99t-185-84l-117-43q-127-48-193.5-116T209 319zm51 1248q0 43 26 67.5t64 24.5q39 0 65.5-24.5T442 1567q0-38-27-63t-65-25q-37 0-63.5 25t-26.5 63zm416 0q0 43 26 67.5t64 24.5q37 0 64.5-25t27.5-67q0-37-28-62.5t-64-25.5q-37 0-63.5 25t-26.5 63z"/><glyph glyph-name="aring" unicode="å" horiz-adv-x="1124" d="M862 0v225Q812 103 700 41.5T444-20q-76 0-139 18.5t-112.5 57-77 104T88 313q0 277 326 387l129 43q146 58 199 92 119 76 120 181v12q0 98-66.5 159.5T580 1249q-160 0-249-78.5T242 938v-59H121v55q0 64 14 122t47.5 113 84.5 95 131 64 180 24q114 0 196-29.5t126-81.5 63.5-112T983 997V0H862zM209 319q0-116 65-176.5T467 82q80 0 151 31t125.5 88.5 86.5 147T862 547v289q-20-57-91-99t-185-84l-117-43q-127-48-193.5-116T209 319zm184 1270q0 71 49.5 118.5T559 1755t116.5-47.5T725 1589t-49.5-118.5T559 1423t-116.5 47.5T393 1589zm76 0q0-40 24.5-65t65.5-25 65.5 25 24.5 65-24.5 65-65.5 25-65.5-25-24.5-65z"/><glyph glyph-name="ae" unicode="æ" horiz-adv-x="1757" d="M440-20q-75 0-139 19T185 56t-81.5 104T74 313q0 144 85 241t267 165l137 35q39 15 61.5 24.5t55 26.5 51.5 34.5 38 42 27.5 55.5 8.5 69q0 108-72 176.5T532 1251q-143 0-217.5-87.5T240 920v-37H119v35q0 82 21.5 155.5t67.5 138T337 1314t195 38q257 0 342-199 106 199 361 199 205 0 315.5-128T1661 852V655H915V498q0-213 84.5-313.5T1231 84q133 0 211 77.5t88 239.5v23h123v-23q-14-194-120.5-307.5T1233-20q-265 0-375 235Q800 99 688.5 39.5T440-20zM195 313q0-105 69.5-169T455 80q152 0 250.5 84.5T805 393v395q-39-61-217-131l-160-51q-233-89-233-293zm720 439h623v116q0 381-303 381-320 0-320-407v-90z"/><glyph glyph-name="ccedilla" unicode="ç" horiz-adv-x="1097" d="M885 899q-11 350-320 350-168 0-256-99t-88-314V496q0-414 342-414 308 0 322 350l2 107h121l-2-103q-9-203-107.5-322.5T608-18l-30-117q225 32 225-125 0-92-92.5-128T432-424l2 82q147 0 205.5 15.5T698-260q0 52-56.5 62T475-207l45 189Q309-6 203.5 128.5T98 500v331q0 247 116.5 384T561 1352q214 0 326.5-121T1006 895l2-102H887z"/><glyph glyph-name="egrave" unicode="è" horiz-adv-x="1103" d="M956 1532l-20-78-776 150 20 79zM98 498v336q0 245 117 381.5T563 1352q219 0 332-127.5T1008 850V655H221V494q0-412 340-412 299 0 316 317v29h122v-27Q986 204 878.5 92T561-20q-230 0-346.5 135.5T98 498zm123 254h666v118q-1 105-24 180t-67 117.5-101 62-132 19.5q-168 0-255-97.5T221 838v-86z"/><glyph glyph-name="eacute" unicode="é" horiz-adv-x="1103" d="M205 1470l-21 78 727 152 21-80zM98 498v336q0 245 117 381.5T563 1352q219 0 332-127.5T1008 850V655H221V494q0-412 340-412 299 0 316 317v29h122v-27Q986 204 878.5 92T561-20q-230 0-346.5 135.5T98 498zm123 254h666v118q-1 105-24 180t-67 117.5-101 62-132 19.5q-168 0-255-97.5T221 838v-86z"/><glyph glyph-name="ecircumflex" unicode="ê" horiz-adv-x="1103" d="M223 1462l266 246h144l260-246H745l-184 178-192-178H223zM98 498v336q0 245 117 381.5T563 1352q219 0 332-127.5T1008 850V655H221V494q0-412 340-412 299 0 316 317v29h122v-27Q986 204 878.5 92T561-20q-230 0-346.5 135.5T98 498zm123 254h666v118q-1 105-24 180t-67 117.5-101 62-132 19.5q-168 0-255-97.5T221 838v-86z"/><glyph glyph-name="edieresis" unicode="ë" horiz-adv-x="1103" d="M764 1479q-37 0-63.5 25t-26.5 63q0 43 26 67.5t64 24.5q37 0 64.5-25t27.5-67q0-37-28-62.5t-64-25.5zM98 498v336q0 245 117 381.5T563 1352q219 0 332-127.5T1008 850V655H221V494q0-412 340-412 299 0 316 317v29h122v-27Q986 204 878.5 92T561-20q-230 0-346.5 135.5T98 498zm123 254h666v118q-1 105-24 180t-67 117.5-101 62-132 19.5q-168 0-255-97.5T221 838v-86zm37 815q0 43 26 67.5t64 24.5q39 0 65.5-24.5T440 1567q0-38-27-63t-65-25q-37 0-63.5 25t-26.5 63z"/><glyph glyph-name="igrave" unicode="ì" horiz-adv-x="423" d="M152 1331h120V0H152v1331zm-199 277l29 75 489-155-29-74z"/><glyph glyph-name="iacute" unicode="í" horiz-adv-x="423" d="M152 1331h120V0H152v1331zm-201 197l489 155 29-75-489-154z"/><glyph glyph-name="icircumflex" unicode="î" horiz-adv-x="423" d="M152 1331h120V0H152v1331zm-170 123l165 229h132l163-229H330l-117 162-119-162H-18z"/><glyph glyph-name="idieresis" unicode="ï" horiz-adv-x="423" d="M152 1331h120V0H152v1331zm-185 236q0 40 25 65t63 25q36 0 62-25t26-65q0-37-26-61.5T55 1481q-37 0-62.5 24t-25.5 62zm334 0q0 40 25 65t61 25 62-25 26-65q0-37-26-61.5t-62-24.5-61 24-25 62z"/><glyph glyph-name="eth" unicode="ð" horiz-adv-x="1097" d="M553-20q-232 0-349.5 120T86 455v127q0 94 24.5 174.5t75.5 146T325 1005t205 37q230 0 326-145-61 300-291 485l-424-198v102l338 158q-140 89-327 151l38 97q251-81 406-195l365 170v-100l-283-131q174-151 248.5-358.5T1001 600V487q0-261-109-384T553-20zM209 455q0-194 83-283.5T547 82q181 0 257.5 91.5T881 455v112q0 91-18.5 159t-48 108-73 64.5-86.5 33-96 8.5q-179 0-264.5-88T209 582V455z"/><glyph glyph-name="ntilde" unicode="ñ" d="M272 1331v-196q19 40 47 74.5t71.5 68.5 108.5 54 144 20q186 0 284.5-112t98.5-331V0H905v903q0 348-287 348-80 0-143-26.5T375 1158t-61-92.5-33-99.5-9-92V0H152v1331h120zm-43 139q0 111 55.5 164.5T434 1688q51 0 91-15.5t65-38 48-45 52.5-38T756 1536q110 0 110 131h103q0-112-57-164.5T760 1450q-53 0-94 15.5t-66.5 38-48 45-51 38T438 1602q-53 0-79.5-35.5T332 1470H229z"/><glyph glyph-name="ograve" unicode="ò" horiz-adv-x="1120" d="M559-20q-229 0-345 136T98 500v331q0 247 116 384t345 137q230 0 346.5-137T1022 831V500q0-248-116.5-384T559-20zM160 1604l20 79 776-151-20-78zm61-1108q0-414 338-414 340 0 340 414v340q0 413-340 413-338 0-338-413V496z"/><glyph glyph-name="oacute" unicode="ó" horiz-adv-x="1120" d="M559-20q-229 0-345 136T98 500v331q0 247 116 384t345 137q230 0 346.5-137T1022 831V500q0-248-116.5-384T559-20zM184 1548l727 152 21-80-727-150zm37-1052q0-414 338-414 340 0 340 414v340q0 413-340 413-338 0-338-413V496z"/><glyph glyph-name="ocircumflex" unicode="ô" horiz-adv-x="1120" d="M559-20q-229 0-345 136T98 500v331q0 247 116 384t345 137q230 0 346.5-137T1022 831V500q0-248-116.5-384T559-20zM221 496q0-414 338-414 340 0 340 414v340q0 413-340 413-338 0-338-413V496zm4 966l267 246h143l260-246H748l-185 178-192-178H225z"/><glyph glyph-name="otilde" unicode="õ" horiz-adv-x="1120" d="M559-20q-229 0-345 136T98 500v331q0 247 116 384t345 137q230 0 346.5-137T1022 831V500q0-248-116.5-384T559-20zM188 1470q0 111 55.5 164.5T393 1688q51 0 91-15.5t65-38 48-45 52.5-38T715 1536q110 0 110 131h103q0-112-57-164.5T719 1450q-53 0-94 15.5t-66.5 38-48 45-51 38T397 1602q-53 0-79.5-35.5T291 1470H188zm33-974q0-414 338-414 340 0 340 414v340q0 413-340 413-338 0-338-413V496z"/><glyph glyph-name="odieresis" unicode="ö" horiz-adv-x="1120" d="M559-20q-229 0-345 136T98 500v331q0 247 116 384t345 137q230 0 346.5-137T1022 831V500q0-248-116.5-384T559-20zM221 496q0-414 338-414 340 0 340 414v340q0 413-340 413-338 0-338-413V496zm39 1071q0 43 26 67.5t64 24.5q39 0 65.5-24.5T442 1567q0-38-27-63t-65-25q-37 0-63.5 25t-26.5 63zm416 0q0 43 26 67.5t64 24.5q37 0 64.5-25t27.5-67q0-37-28-62.5t-64-25.5q-37 0-63.5 25t-26.5 63z"/><glyph glyph-name="divide" unicode="÷" horiz-adv-x="1359" d="M680 1030q-26 0-44 18t-18 44q0 25 18 43t44 18q25 0 43-18t18-43q0-26-18-44t-43-18zM92 788v86h1176v-86H92zm526-217q0 25 18 43.5t44 18.5q25 0 43-18.5t18-43.5q0-26-18-43.5T680 510q-26 0-44 17.5T618 571z"/><glyph glyph-name="oslash" unicode="ø" horiz-adv-x="1120" d="M559-20q-150 0-256 61L197-174h-97L233 96Q98 228 98 500v331q0 247 116 384t345 137q151 0 260-64l107 217h94l-133-270q135-135 135-404V500q0-248-116.5-384T559-20zM221 496q0-187 68-287l481 981q-79 59-211 59-338 0-338-413V496zm129-355q79-59 209-59 340 0 340 414v340q0 186-68 286z"/><glyph glyph-name="ugrave" unicode="ù" d="M893 0v197q-19-40-47-74.5T774.5 54 666 0 522-20Q336-20 237.5 91.5T139 422v909h121V428q0-348 287-348 80 0 143 26.5T790 173t61 92.5 33 99.5 9 92v874h121V0H893zM168 1604l20 79 777-151-21-78z"/><glyph glyph-name="uacute" unicode="ú" d="M893 0v197q-19-40-47-74.5T774.5 54 666 0 522-20Q336-20 237.5 91.5T139 422v909h121V428q0-348 287-348 80 0 143 26.5T790 173t61 92.5 33 99.5 9 92v874h121V0H893zM193 1548l727 152 20-80-727-150z"/><glyph glyph-name="ucircumflex" unicode="û" d="M893 0v197q-19-40-47-74.5T774.5 54 666 0 522-20Q336-20 237.5 91.5T139 422v909h121V428q0-348 287-348 80 0 143 26.5T790 173t61 92.5 33 99.5 9 92v874h121V0H893zM231 1462l267 246h143l260-246H754l-185 178-192-178H231z"/><glyph glyph-name="udieresis" unicode="ü" d="M893 0v197q-19-40-47-74.5T774.5 54 666 0 522-20Q336-20 237.5 91.5T139 422v909h121V428q0-348 287-348 80 0 143 26.5T790 173t61 92.5 33 99.5 9 92v874h121V0H893zM268 1567q0 43 26 67.5t64 24.5q39 0 66-25t27-67q0-37-27.5-62.5T358 1479q-37 0-63.5 25t-26.5 63zm416 0q0 43 26 67.5t64 24.5q37 0 64.5-25t27.5-67q0-37-28-62.5t-64-25.5q-37 0-63.5 25t-26.5 63z"/><glyph glyph-name="yacute" unicode="ý" horiz-adv-x="1163" d="M893 33v164q-19-40-47-74.5T774.5 54 666 0 522-20Q336-20 237.5 91.5T139 422v909h121V428q0-348 287-348 80 0 143 26.5T790 173t61 92.5 33 99.5 9 92v874h119V27q0-122-19-206t-64.5-145-123-89.5T614-442H170v102h434q87 0 142.5 19.5t88.5 66 45.5 114T893 33zM197 1548l727 152 20-80-727-150z"/><glyph glyph-name="thorn" unicode="þ" horiz-adv-x="1167" d="M272-442H152v2113h120v-541q17 36 44.5 71t71.5 70.5 109.5 57T641 1350q200 0 313-133.5T1067 850V477q0-238-113.5-369T641-23q-62 0-117 14.5T430.5 28 359 80t-52.5 57-34.5 56v-635zm0 925q0-176 92.5-289.5T623 80q162 0 242.5 106.5T946 479v367q0 186-81.5 293.5T621 1247q-164 0-256.5-113.5T272 844V483z"/><glyph glyph-name="ydieresis" unicode="ÿ" horiz-adv-x="1163" d="M893 33v164q-19-40-47-74.5T774.5 54 666 0 522-20Q336-20 237.5 91.5T139 422v909h121V428q0-348 287-348 80 0 143 26.5T790 173t61 92.5 33 99.5 9 92v874h119V27q0-122-19-206t-64.5-145-123-89.5T614-442H170v102h434q87 0 142.5 19.5t88.5 66 45.5 114T893 33zM272 1567q0 43 26 67.5t64 24.5q39 0 66-25t27-67q0-37-27.5-62.5T362 1479q-37 0-63.5 25t-26.5 63zm416 0q0 43 26 67.5t64 24.5q37 0 64.5-25t27.5-67q0-37-28-62.5t-64-25.5q-37 0-63.5 25t-26.5 63z"/><glyph glyph-name="Amacron" unicode="Ā" horiz-adv-x="1159" d="M41 0l459 1671h159L1116 0H987L887 375H270L172 0H41zm139 1868v82h797v-82H180zM299 481h561L582 1530l-4 12-3-10z"/><glyph glyph-name="amacron" unicode="ā" horiz-adv-x="1124" d="M862 0v225Q812 103 700 41.5T444-20q-76 0-139 18.5t-112.5 57-77 104T88 313q0 277 326 387l129 43q146 58 199 92 119 76 120 181v12q0 98-66.5 159.5T580 1249q-160 0-249-78.5T242 938v-59H121v55q0 64 14 122t47.5 113 84.5 95 131 64 180 24q114 0 196-29.5t126-81.5 63.5-112T983 997V0H862zM160 1528v82h796v-82H160zm49-1209q0-116 65-176.5T467 82q80 0 151 31t125.5 88.5 86.5 147T862 547v289q-20-57-91-99t-185-84l-117-43q-127-48-193.5-116T209 319z"/><glyph glyph-name="Abreve" unicode="Ă" horiz-adv-x="1159" d="M41 0l459 1671h159L1116 0H987L887 375H270L172 0H41zm164 2028h102q0-148 275-148 268 0 268 148h102q0-66-27.5-113t-79.5-72.5-116-37-147-11.5q-377 0-377 234zm94-1547h561L582 1530l-4 12-3-10z"/><glyph glyph-name="abreve" unicode="ă" horiz-adv-x="1124" d="M862 0v225Q812 103 700 41.5T444-20q-76 0-139 18.5t-112.5 57-77 104T88 313q0 277 326 387l129 43q146 58 199 92 119 76 120 181v12q0 98-66.5 159.5T580 1249q-160 0-249-78.5T242 938v-59H121v55q0 64 14 122t47.5 113 84.5 95 131 64 180 24q114 0 196-29.5t126-81.5 63.5-112T983 997V0H862zM184 1688h103q0-148 274-148 268 0 268 148h103q0-66-28-113t-80-72.5-116-37-147-11.5q-377 0-377 234zm25-1369q0-116 65-176.5T467 82q80 0 151 31t125.5 88.5 86.5 147T862 547v289q-20-57-91-99t-185-84l-117-43q-127-48-193.5-116T209 319z"/><glyph glyph-name="Aogonek" unicode="Ą" horiz-adv-x="1159" d="M41 0l459 1671h159L1116 0q-107-36-160-84t-53-115q0-66 59.5-96.5T1153-326h25l-82-84h-23q-126 0-199 46t-73 139q0 89 63.5 140.5T1036 0h-49L887 375H270L172 0H41zm258 481h561L582 1530l-4 12-3-10z"/><glyph glyph-name="aogonek" unicode="ą" horiz-adv-x="1124" d="M862 0v225Q812 103 700 41.5T444-20q-76 0-139 18.5t-112.5 57-77 104T88 313q0 277 326 387l129 43q146 58 199 92 119 76 120 181v12q0 98-66.5 159.5T580 1249q-160 0-249-78.5T242 938v-59H121v55q0 64 14 122t47.5 113 84.5 95 131 64 180 24q114 0 196-29.5t126-81.5 63.5-112T983 997V0Q876-36 823-84t-53-115q0-66 59.5-96.5T1020-326h24l-81-84h-23q-126 0-199 46t-73 139q0 89 63.5 140.5T903 0h-41zM209 319q0-116 65-176.5T467 82q80 0 151 31t125.5 88.5 86.5 147T862 547v289q-20-57-91-99t-185-84l-117-43q-127-48-193.5-116T209 319z"/><glyph glyph-name="Cacute" unicode="Ć" horiz-adv-x="1306" d="M664-20q-140 0-247.5 45t-174 126.5-100 190T109 582v512q0 130 33.5 237.5T243 1520t174.5 126.5T664 1692q130 0 232.5-40t168.5-111 101-166.5 38-209.5l2-178h-131v184q-6 206-113 309t-296 103q-210 0-319-123t-109-362V578q0-244 108.5-367T664 88q194 0 299.5 103.5T1075 504v184h131l-2-178q-3-116-38-212t-101-167.5-168.5-111T664-20zM283 1888l727 152 20-80-727-150z"/><glyph glyph-name="cacute" unicode="ć" horiz-adv-x="1097" d="M885 899q-11 350-320 350-168 0-256-99t-88-314V496q0-414 342-414 308 0 322 350l2 107h121l-2-103q-9-214-119-335T563-20q-232 0-348.5 136T98 500v331q0 247 116.5 384T561 1352q214 0 326.5-121T1006 895l2-102H887zm-695 649l728 152 20-80-727-150z"/><glyph glyph-name="Ccircumflex" unicode="Ĉ" horiz-adv-x="1306" d="M664-20q-140 0-247.5 45t-174 126.5-100 190T109 582v512q0 130 33.5 237.5T243 1520t174.5 126.5T664 1692q130 0 232.5-40t168.5-111 101-166.5 38-209.5l2-178h-131v184q-6 206-113 309t-296 103q-210 0-319-123t-109-362V578q0-244 108.5-367T664 88q194 0 299.5 103.5T1075 504v184h131l-2-178q-3-116-38-212t-101-167.5-168.5-111T664-20zM322 1802l266 246h143l260-246H844l-185 178-192-178H322z"/><glyph glyph-name="ccircumflex" unicode="ĉ" horiz-adv-x="1097" d="M885 899q-11 350-320 350-168 0-256-99t-88-314V496q0-414 342-414 308 0 322 350l2 107h121l-2-103q-9-214-119-335T563-20q-232 0-348.5 136T98 500v331q0 247 116.5 384T561 1352q214 0 326.5-121T1006 895l2-102H887zm-654 563l267 246h143l260-246H754l-185 178-192-178H231z"/><glyph glyph-name="Cdotaccent" unicode="Ċ" horiz-adv-x="1306" d="M664-20q-140 0-247.5 45t-174 126.5-100 190T109 582v512q0 130 33.5 237.5T243 1520t174.5 126.5T664 1692q130 0 232.5-40t168.5-111 101-166.5 38-209.5l2-178h-131v184q-6 206-113 309t-296 103q-210 0-319-123t-109-362V578q0-244 108.5-367T664 88q194 0 299.5 103.5T1075 504v184h131l-2-178q-3-116-38-212t-101-167.5-168.5-111T664-20zM559 1898q0 40 28 68.5t70 28.5 69.5-28.5T754 1898q0-38-27.5-66t-69.5-28-70 28-28 66z"/><glyph glyph-name="cdotaccent" unicode="ċ" horiz-adv-x="1097" d="M885 899q-11 350-320 350-168 0-256-99t-88-314V496q0-414 342-414 308 0 322 350l2 107h121l-2-103q-9-214-119-335T563-20q-232 0-348.5 136T98 500v331q0 247 116.5 384T561 1352q214 0 326.5-121T1006 895l2-102H887zm-418 694q0 42 28 70.5t72 28.5 71.5-28.5T666 1593q0-38-28-66t-71-28-71.5 28-28.5 66z"/><glyph glyph-name="Ccaron" unicode="Č" horiz-adv-x="1306" d="M664-20q-140 0-247.5 45t-174 126.5-100 190T109 582v512q0 130 33.5 237.5T243 1520t174.5 126.5T664 1692q130 0 232.5-40t168.5-111 101-166.5 38-209.5l2-178h-131v184q-6 206-113 309t-296 103q-210 0-319-123t-109-362V578q0-244 108.5-367T664 88q194 0 299.5 103.5T1075 504v184h131l-2-178q-3-116-38-212t-101-167.5-168.5-111T664-20zM289 2040h153l217-182 209 182h156l-293-246H588z"/><glyph glyph-name="ccaron" unicode="č" horiz-adv-x="1097" d="M885 899q-11 350-320 350-168 0-256-99t-88-314V496q0-414 342-414 308 0 322 350l2 107h121l-2-103q-9-214-119-335T563-20q-232 0-348.5 136T98 500v331q0 247 116.5 384T561 1352q214 0 326.5-121T1006 895l2-102H887zm-686 801h153l217-182 209 182h156l-293-246H498z"/><glyph glyph-name="Dcaron" unicode="Ď" horiz-adv-x="1316" d="M164 0v1671h471q107 0 191-17t156.5-58.5 120-109 74.5-172 27-243.5V600q0-139-27-243t-74.5-171.5T982.5 76 826 17 635 0H164zm115 2040h153l217-182 209 182h156l-293-246H578zm10-1936h344q163 0 257.5 46T1030 303.5t45 294.5v475q0 187-45 294.5T890.5 1521 633 1567H289V104z"/><glyph glyph-name="dcaron" unicode="ď" horiz-adv-x="1234" d="M895 1671h119V0H895v199q-17-36-44.5-71T779 58 669.5 1.5 526-20q-200 0-313 133T100 479v373q0 238 113.5 369T526 1352q77 0 141.5-20.5T776 1276t71.5-68.5T895 1137v534zM221 483q0-185 82-293T547 82q164 0 256 113.5T895 485v361q0 176-92 289.5T545 1249q-162 0-243-107t-81-292V483zm862 701l72 487h105l-95-487h-82z"/><glyph glyph-name="Dcroat" unicode="Đ" horiz-adv-x="1402" d="M250 0v805H33v86h217v780h471q107 0 191-17t156.5-58.5 120-109 74.5-172 27-243.5V600q0-139-27-243t-74.5-171.5-120-109.5T912 17 721 0H250zm125 104h344q163 0 257.5 46T1116 303.5t45 294.5v475q0 187-45 294.5T976.5 1521 719 1567H375V891h444v-86H375V104z"/><glyph glyph-name="dcroat" unicode="đ" horiz-adv-x="1167" d="M895 1671h119v-135h200v-84h-200V0H895v199q-17-36-44.5-71T779 58 669.5 1.5 526-20q-200 0-313 133T100 479v373q0 238 113.5 369T526 1352q77 0 141.5-20.5T776 1276t71.5-68.5T895 1137v315H438v84h457v135zM221 483q0-185 82-293T547 82q164 0 256 113.5T895 485v361q0 176-92 289.5T545 1249q-162 0-243-107t-81-292V483z"/><glyph glyph-name="Emacron" unicode="Ē" horiz-adv-x="1118" d="M164 0v1671h856v-106H289V889h704V782H289V106h731V0H164zm31 1868v82h796v-82H195z"/><glyph glyph-name="emacron" unicode="ē" horiz-adv-x="1103" d="M160 1528v82h796v-82H160zM98 498v336q0 245 117 381.5T563 1352q219 0 332-127.5T1008 850V655H221V494q0-412 340-412 299 0 316 317v29h122v-27Q986 204 878.5 92T561-20q-230 0-346.5 135.5T98 498zm123 254h666v118q-1 105-24 180t-67 117.5-101 62-132 19.5q-168 0-255-97.5T221 838v-86z"/><glyph glyph-name="Edotaccent" unicode="Ė" horiz-adv-x="1118" d="M164 0v1671h856v-106H289V889h704V782H289V106h731V0H164zm332 1898q0 40 28 68.5t70 28.5 69-28 27-69q0-38-27-66t-69-28-70 28-28 66z"/><glyph glyph-name="edotaccent" unicode="ė" horiz-adv-x="1103" d="M559 1499q-43 0-71.5 28t-28.5 66q0 42 28 70.5t72 28.5q43 0 70.5-28.5T657 1593q0-38-27.5-66t-70.5-28zM98 498v336q0 245 117 381.5T563 1352q219 0 332-127.5T1008 850V655H221V494q0-412 340-412 299 0 316 317v29h122v-27Q986 204 878.5 92T561-20q-230 0-346.5 135.5T98 498zm123 254h666v118q-1 105-24 180t-67 117.5-101 62-132 19.5q-168 0-255-97.5T221 838v-86z"/><glyph glyph-name="Eogonek" unicode="Ę" horiz-adv-x="1118" d="M164 0v1671h856v-106H289V889h704V782H289V106h731V0Q913-36 860-84t-53-115q0-66 59.5-96.5T1057-326h24l-82-84h-22q-126 0-199 46t-73 139q0 89 63.5 140.5T940 0H164z"/><glyph glyph-name="eogonek" unicode="ę" horiz-adv-x="1103" d="M674-410q-126 0-199.5 46T401-225q0 137 177 205h-17q-230 0-346.5 135.5T98 498v336q0 245 117 381.5T563 1352q219 0 332-127.5T1008 850V655H221V494q0-412 340-412 299 0 316 317v29h122v-27q-9-158-81-262.5T709-2Q606-38 555-85.5T504-199t59.5-96.5T754-326h24l-82-84h-22zM221 752h666v118q-1 105-24 180t-67 117.5-101 62-132 19.5q-168 0-255-97.5T221 838v-86z"/><glyph glyph-name="Ecaron" unicode="Ě" horiz-adv-x="1118" d="M164 0v1671h856v-106H289V889h704V782H289V106h731V0H164zm61 2040h154l217-182 209 182h156l-293-246H524z"/><glyph glyph-name="ecaron" unicode="ě" horiz-adv-x="1103" d="M489 1454l-299 246h154l217-182 209 182h156l-293-246H489zM98 498v336q0 245 117 381.5T563 1352q219 0 332-127.5T1008 850V655H221V494q0-412 340-412 299 0 316 317v29h122v-27Q986 204 878.5 92T561-20q-230 0-346.5 135.5T98 498zm123 254h666v118q-1 105-24 180t-67 117.5-101 62-132 19.5q-168 0-255-97.5T221 838v-86z"/><glyph glyph-name="Gcircumflex" unicode="Ĝ" horiz-adv-x="1329" d="M643-20q-130 0-232.5 45.5T243 152.5 144.5 343 111 582v512q0 103 20.5 192.5T196 1451t108.5 128.5 156 83T664 1692q130 0 232.5-39t168-109.5 101-164T1206 1174v-125h-129l-2 131q-7 201-113.5 302T666 1583q-210 0-319-123t-109-362V578q0-241 106-365.5T659 88q201 0 309.5 113T1077 537v192H594v105h612V0h-92l-10 246q-63-124-178.5-195T643-20zM330 1802l266 246h143l260-246H852l-184 178-193-178H330z"/><glyph glyph-name="gcircumflex" unicode="ĝ" d="M895 35v164q-17-36-44.5-71T779 58 669.5 1.5 526-20q-200 0-313 133T100 479v373q0 238 113.5 369T526 1352q77 0 141.5-20.5T776 1276t71.5-68.5T895 1137v194h119V16q0-121-19-204t-64-141.5T810-415t-189-27H156v102h458q165 0 223 82.5T895 35zM221 483q0-185 82-293T547 82q164 0 256 113.5T895 485v361q0 176-92 289.5T545 1249q-162 0-243-107t-81-292V483zm0 979l266 246h144l260-246H743l-184 178-192-178H221z"/><glyph glyph-name="Gbreve" unicode="Ğ" horiz-adv-x="1329" d="M643-20q-130 0-232.5 45.5T243 152.5 144.5 343 111 582v512q0 103 20.5 192.5T196 1451t108.5 128.5 156 83T664 1692q130 0 232.5-39t168-109.5 101-164T1206 1174v-125h-129l-2 131q-7 201-113.5 302T666 1583q-210 0-319-123t-109-362V578q0-241 106-365.5T659 88q201 0 309.5 113T1077 537v192H594v105h612V0h-92l-10 246q-63-124-178.5-195T643-20zM291 2028h102q0-148 275-148 268 0 268 148h102q0-66-27.5-113t-79.5-72.5-116-37-147-11.5q-377 0-377 234z"/><glyph glyph-name="gbreve" unicode="ğ" d="M895 35v164q-17-36-44.5-71T779 58 669.5 1.5 526-20q-200 0-313 133T100 479v373q0 238 113.5 369T526 1352q77 0 141.5-20.5T776 1276t71.5-68.5T895 1137v194h119V16q0-121-19-204t-64-141.5T810-415t-189-27H156v102h458q165 0 223 82.5T895 35zM182 1688h103q0-148 274-148 268 0 268 148h103q0-66-28-113t-80-72.5-116-37-147-11.5q-377 0-377 234zm39-1205q0-185 82-293T547 82q164 0 256 113.5T895 485v361q0 176-92 289.5T545 1249q-162 0-243-107t-81-292V483z"/><glyph glyph-name="Gdotaccent" unicode="Ġ" horiz-adv-x="1329" d="M643-20q-130 0-232.5 45.5T243 152.5 144.5 343 111 582v512q0 103 20.5 192.5T196 1451t108.5 128.5 156 83T664 1692q130 0 232.5-39t168-109.5 101-164T1206 1174v-125h-129l-2 131q-7 201-113.5 302T666 1583q-210 0-319-123t-109-362V578q0-241 106-365.5T659 88q201 0 309.5 113T1077 537v192H594v105h612V0h-92l-10 246q-63-124-178.5-195T643-20zm-76 1918q0 40 28.5 68.5T666 1995t69-28 27-69q0-38-27-66t-69-28-70.5 28-28.5 66z"/><glyph glyph-name="gdotaccent" unicode="ġ" d="M895 35v164q-17-36-44.5-71T779 58 669.5 1.5 526-20q-200 0-313 133T100 479v373q0 238 113.5 369T526 1352q77 0 141.5-20.5T776 1276t71.5-68.5T895 1137v194h119V16q0-121-19-204t-64-141.5T810-415t-189-27H156v102h458q165 0 223 82.5T895 35zM221 483q0-185 82-293T547 82q164 0 256 113.5T895 485v361q0 176-92 289.5T545 1249q-162 0-243-107t-81-292V483zm236 1110q0 42 28 70.5t72 28.5q43 0 70.5-28.5T655 1593q0-38-27.5-66t-70.5-28-71.5 28-28.5 66z"/><glyph glyph-name="uni0122" unicode="Ģ" horiz-adv-x="1329" d="M643-20q-130 0-232.5 45.5T243 152.5 144.5 343 111 582v512q0 103 20.5 192.5T196 1451t108.5 128.5 156 83T664 1692q130 0 232.5-39t168-109.5 101-164T1206 1174v-125h-129l-2 131q-7 201-113.5 302T666 1583q-210 0-319-123t-109-362V578q0-241 106-365.5T659 88q201 0 309.5 113T1077 537v192H594v105h612V0h-92l-10 246q-63-124-178.5-195T643-20zm-82-146q0 38 27 66t71 28q41 0 68-27.5t27-86.5q0-156-166-236v78q51 23 78 53t36 74q-28-31-61-31-32 0-56 23t-24 59z"/><glyph glyph-name="uni0123" unicode="ģ" d="M895 35v164q-17-36-44.5-71T779 58 669.5 1.5 526-20q-200 0-313 133T100 479v373q0 238 113.5 369T526 1352q77 0 141.5-20.5T776 1276t71.5-68.5T895 1137v194h119V16q0-121-19-204t-64-141.5T810-415t-189-27H156v102h458q165 0 223 82.5T895 35zM221 483q0-185 82-293T547 82q164 0 256 113.5T895 485v361q0 176-92 289.5T545 1249q-162 0-243-107t-81-292V483zm238 1078q0 157 166 237v-78q-51-23-77.5-53t-37.5-74q26 29 61 29 32 0 56-23t24-59q0-37-26.5-64.5T555 1448q-42 0-69 27t-27 86z"/><glyph glyph-name="Hcircumflex" unicode="Ĥ" horiz-adv-x="1331" d="M1044 0v782H289V0H164v1671h125V889h755v782h123V0h-123zM330 1802l266 246h143l260-246H852l-184 178-193-178H330z"/><glyph glyph-name="hcircumflex" unicode="ĥ" d="M272 1671v-536q19 40 47 74.5t71.5 68.5 108.5 54 144 20q186 0 284.5-112t98.5-331V0H905v903q0 348-287 348-80 0-143-26.5T375 1158t-61-92.5-33-99.5-9-92V0H152v1671h120zm-399 131l266 246h144l260-246H395l-184 178-193-178h-145z"/><glyph glyph-name="Hbar" unicode="Ħ" horiz-adv-x="1445" d="M1102 0v782H346V0H221v1286H37v90h184v295h125v-295h756v295h123v-295h186v-90h-186V0h-123zM346 889h756v397H346V889z"/><glyph glyph-name="hbar" unicode="ħ" d="M272 1671v-147h430v-84H272v-305q19 40 47 74.5t71.5 68.5 108.5 54 144 20q186 0 284.5-112t98.5-331V0H905v903q0 348-287 348-80 0-143-26.5T375 1158t-61-92.5-33-99.5-9-92V0H152v1440H-74v84h226v147h120z"/><glyph glyph-name="Itilde" unicode="Ĩ" horiz-adv-x="768" d="M102 0v113h220v1446H102v112h564v-112H446V113h220V0H102zM12 1810q0 111 55.5 164.5T217 2028q51 0 91-15.5t65-38 48-45 52.5-38T539 1876q110 0 110 131h103q0-112-57-164.5T543 1790q-53 0-94 15.5t-66.5 38-48 45-51 38T221 1942q-53 0-79.5-35.5T115 1810H12z"/><glyph glyph-name="itilde" unicode="ĩ" horiz-adv-x="423" d="M152 1331h120V0H152v1331zm-310 139q0 111 55.5 164.5T47 1688q51 0 91-15.5t65-38 48-45 52.5-38T369 1536q110 0 110 131h103q0-112-57-164.5T373 1450q-53 0-94 15.5t-66.5 38-48 45-51 38T51 1602q-53 0-79.5-35.5T-55 1470h-103z"/><glyph glyph-name="Imacron" unicode="Ī" horiz-adv-x="768" d="M102 0v113h220v1446H102v112h564v-112H446V113h220V0H102zM-16 1868v82h796v-82H-16z"/><glyph glyph-name="imacron" unicode="ī" horiz-adv-x="423" d="M152 1331h120V0H152v1331zm-201 197v82h518v-82H-49z"/><glyph glyph-name="Iogonek" unicode="Į" horiz-adv-x="768" d="M102 0v113h220v1446H102v112h564v-112H446V113h220V0Q559-36 506-84t-53-115q0-66 59-96.5T702-326h25l-82-84h-22q-126 0-199.5 46T350-225q0 47 19 84.5t54.5 64T497-33t89 33H102z"/><glyph glyph-name="iogonek" unicode="į" horiz-adv-x="423" d="M152 1331h120V0Q165-36 112-84T59-199q0-66 59.5-96.5T309-326h25l-82-84h-23q-126 0-199 46t-73 139q0 47 19 84.5t54.5 64T104-33t89 33h-41v1331zm-39 262q0 42 28 70.5t72 28.5q43 0 70.5-28.5T311 1593q0-38-27.5-66t-70.5-28-71.5 28-28.5 66z"/><glyph glyph-name="Idotaccent" unicode="İ" horiz-adv-x="768" d="M102 0v113h220v1446H102v112h564v-112H446V113h220V0H102zm185 1898q0 40 28 68.5t70 28.5 69-28 27-69q0-38-27-66t-69-28-70 28-28 66z"/><glyph glyph-name="dotlessi" unicode="ı" horiz-adv-x="423" d="M152 1331h120V0H152v1331z"/><glyph glyph-name="IJ" unicode="Ĳ" horiz-adv-x="1921" d="M102 0v113h220v1446H102v112h564v-112H446V113h220V0H102zm713 520v107h127V516q0-123 24-208.5t71-133 108-68T1290 86q81 0 141.5 19.5T1541 171t74 130 25 205v1165h127V512q0-259-114.5-395.5T1290-20 928.5 117.5 815 520z"/><glyph glyph-name="ij" unicode="ĳ" horiz-adv-x="770" d="M152 1331h120V0H152v1331zm-39 262q0 42 28 70.5t72 28.5q43 0 70.5-28.5T311 1593q0-38-27.5-66t-70.5-28-71.5 28-28.5 66zm18-2035v102h121q54 0 91.5 6t66 21.5 45 37.5 26.5 60 13.5 82T498-23v1354h120V-43q0-113-16-185.5T545-351t-110-70.5T258-442H131zm328 2035q0 42 28 70.5t72 28.5q43 0 70.5-28.5T657 1593q0-38-27.5-66t-70.5-28-71.5 28-28.5 66z"/><glyph glyph-name="Jcircumflex" unicode="Ĵ" horiz-adv-x="1167" d="M539-20q-248 0-362 137.5T63 520v107h127V516q0-123 24-208.5t71.5-133 108.5-68T539 86q81 0 141.5 19.5T790 171t74 130 25 205v1165h127V512q0-259-114.5-395.5T539-20zm79 1822l267 246h143l260-246h-147l-185 178-192-178H618z"/><glyph glyph-name="jcircumflex" unicode="ĵ" horiz-adv-x="423" d="M152-23v1354h120V-43q0-113-16-185.5T199-351 89-421.5-88-442h-127v102h121q54 0 91.5 6t66 21.5 45 37.5 26.5 60 13.5 82T152-23zm-275 1485l266 246h144l260-246H399l-184 178-192-178h-146z"/><glyph glyph-name="uni0136" unicode="Ķ" horiz-adv-x="1198" d="M1024 0L391 780H289V0H164v1671h125V891h102l633 780h156L494 836 1180 0h-156zM528-166q0 38 27.5 66T627-72q41 0 67.5-27.5T721-186q0-156-166-236v78q51 23 78.5 53t36.5 74q-28-31-62-31-32 0-56 23t-24 59z"/><glyph glyph-name="uni0137" unicode="ķ" horiz-adv-x="1052" d="M152 1671h120V715h45l568 616h153L414 666 1038 0H885L319 614h-47V0H152v1671zM485-166q0 38 27.5 66T584-72q41 0 67.5-27.5T678-186q0-156-166-236v78q51 23 78.5 53t36.5 74q-28-31-62-31-32 0-56 23t-24 59z"/><glyph glyph-name="Lacute" unicode="Ĺ" horiz-adv-x="1048" d="M164 0v1671h125V106h725V0H164zm45 1888l727 152 20-80-727-150z"/><glyph glyph-name="lacute" unicode="ĺ" horiz-adv-x="423" d="M152 1671h120V0H152v1671zm-314 217l727 152 21-80-727-150z"/><glyph glyph-name="uni013B" unicode="Ļ" horiz-adv-x="1048" d="M164 0v1671h125V106h725V0H164zm301-166q0 38 27 66t71 28q41 0 67.5-27.5T657-186q0-157-165-236v78q51 23 78 53t36 74q-28-31-61-31-32 0-56 23t-24 59z"/><glyph glyph-name="uni013C" unicode="ļ" horiz-adv-x="423" d="M152 1671h120V0H152v1671zM117-166q0 38 27 66t71 28q41 0 67.5-27.5T309-186q0-156-166-236v78q51 23 78.5 53t36.5 74q-28-31-61-31-32 0-56 23t-24 59z"/><glyph glyph-name="Lcaron" unicode="Ľ" horiz-adv-x="1050" d="M164 0v1671h125V106h725V0H164zm452 1184l72 487h105l-95-487h-82z"/><glyph glyph-name="lcaron" unicode="ľ" horiz-adv-x="491" d="M152 1671h120V0H152v1671zm202-487l72 487h104l-94-487h-82z"/><glyph glyph-name="Lslash" unicode="Ł" horiz-adv-x="1148" d="M262 0v705L47 606v105l215 98v862h125V864l354 162V924L387 762V106h725V0H262z"/><glyph glyph-name="lslash" unicode="ł" horiz-adv-x="759" d="M332 1671h121V909l270 146V948L453 803V0H332v737L59 590v106l273 148v827z"/><glyph glyph-name="Nacute" unicode="Ń" horiz-adv-x="1359" d="M164 0v1671h123l792-1417v1417h119V0h-123L283 1417V0H164zm143 1888l727 152 21-80-727-150z"/><glyph glyph-name="nacute" unicode="ń" d="M272 1331v-196q19 40 47 74.5t71.5 68.5 108.5 54 144 20q186 0 284.5-112t98.5-331V0H905v903q0 348-287 348-80 0-143-26.5T375 1158t-61-92.5-33-99.5-9-92V0H152v1331h120zm-47 217l727 152 21-80-727-150z"/><glyph glyph-name="uni0145" unicode="Ņ" horiz-adv-x="1359" d="M164 0v1671h123l792-1417v1417h119V0h-123L283 1417V0H164zm422-166q0 38 27 66t71 28q41 0 67.5-27.5T778-186q0-156-166-236v78q51 23 78.5 53t36.5 74q-28-31-61-31-32 0-56 23t-24 59z"/><glyph glyph-name="uni0146" unicode="ņ" d="M272 1331v-196q19 40 47 74.5t71.5 68.5 108.5 54 144 20q186 0 284.5-112t98.5-331V0H905v903q0 348-287 348-80 0-143-26.5T375 1158t-61-92.5-33-99.5-9-92V0H152v1331h120zM496-166q0 38 27 66t71 28q41 0 67.5-27.5T688-186q0-156-166-236v78q51 23 78.5 53t36.5 74q-28-31-62-31-32 0-55.5 23T496-166z"/><glyph glyph-name="Ncaron" unicode="Ň" horiz-adv-x="1359" d="M164 0v1671h123l792-1417v1417h119V0h-123L283 1417V0H164zm149 2040h154l217-182 209 182h156l-293-246H612z"/><glyph glyph-name="ncaron" unicode="ň" d="M272 1331v-196q19 40 47 74.5t71.5 68.5 108.5 54 144 20q186 0 284.5-112t98.5-331V0H905v903q0 348-287 348-80 0-143-26.5T375 1158t-61-92.5-33-99.5-9-92V0H152v1331h120zm-41 369h154l217-182 209 182h156l-293-246H530z"/><glyph glyph-name="Eng" unicode="Ŋ" horiz-adv-x="1359" d="M164 0v1671h123l792-1417v1417h119V0q-2-118-14.5-190T1136-314.5t-96.5-74T879-410H774v113h119q48 0 80.5 11t53 30.5 31 58 14 82.5T1075 0L283 1417V0H164z"/><glyph glyph-name="eng" unicode="ŋ" d="M272 1331v-196q19 40 47 74.5t71.5 68.5 108.5 54 144 20q186 0 284.5-112t98.5-331V0q0-108-15.5-181.5T957-308t-103-77.5T692-410H586v97h98q130 0 175.5 71T905 0v903q0 348-287 348-80 0-143-26.5T375 1158t-61-92.5-33-99.5-9-92V0H152v1331h120z"/><glyph glyph-name="Omacron" unicode="Ō" horiz-adv-x="1333" d="M666-20q-141 0-249 45.5T242.5 153t-100 189.5T109 580v514q0 128 34 235.5t100.5 189T418 1646t248 46q141 0 249.5-46t175-127.5 100.5-189 34-235.5V580q0-130-34-237.5T1090.5 153t-175-127.5T666-20zM238 578q0-240 111-364T666 90q208 0 319 123.5T1096 578v518q0 237-111.5 361T666 1581q-206 0-317-124t-111-361V578zm28 1290v82h797v-82H266z"/><glyph glyph-name="omacron" unicode="ō" horiz-adv-x="1120" d="M559-20q-229 0-345 136T98 500v331q0 247 116 384t345 137q230 0 346.5-137T1022 831V500q0-248-116.5-384T559-20zM160 1528v82h796v-82H160zm61-1032q0-414 338-414 340 0 340 414v340q0 413-340 413-338 0-338-413V496z"/><glyph glyph-name="Ohungarumlaut" unicode="Ő" horiz-adv-x="1333" d="M666-20q-141 0-249 45.5T242.5 153t-100 189.5T109 580v514q0 128 34 235.5t100.5 189T418 1646t248 46q141 0 249.5-46t175-127.5 100.5-189 34-235.5V580q0-130-34-237.5T1090.5 153t-175-127.5T666-20zM238 578q0-240 111-364T666 90q208 0 319 123.5T1096 578v518q0 237-111.5 361T666 1581q-206 0-317-124t-111-361V578zm251 1216l238 229h113l-217-229H489zm238 0l238 229h112l-215-229H727z"/><glyph glyph-name="ohungarumlaut" unicode="ő" horiz-adv-x="1120" d="M559-20q-229 0-345 136T98 500v331q0 247 116 384t345 137q230 0 346.5-137T1022 831V500q0-248-116.5-384T559-20zM221 496q0-414 338-414 340 0 340 414v340q0 413-340 413-338 0-338-413V496zm162 958l238 229h112l-217-229H383zm238 0l237 229h113l-215-229H621z"/><glyph glyph-name="OE" unicode="Œ" horiz-adv-x="1732" d="M567-20q-220 0-337 159.5T113 590v493q0 290 117.5 449.5T565 1692q122 0 213.5-53.5T924 1481v190h704v-106h-584V889h572V782h-572V106h584V0H924v190Q817-20 567-20zM240 575q0-234 85.5-360.5T575 88q163 0 254 119.5T920 526v619q0 198-90 318t-252 120q-165 0-251.5-126.5T240 1098V575z"/><glyph glyph-name="oe" unicode="œ" horiz-adv-x="1812" d="M537-20q-212 0-325.5 137T98 498v338q0 242 113.5 379T537 1352q274 0 378-262 101 262 381 262 201 0 310.5-128T1716 852V655H971V494q1-213 85.5-312.5T1288 82q131 0 208 77.5t87 239.5v25h123v-23q-14-194-119-307.5T1292-20q-276 0-379 262Q815-20 537-20zM221 494q0-211 84-311.5T539 82t234.5 100T858 494v344q0 212-84.5 311.5T539 1249t-234-100-84-311V494zm752 258h620v118q0 379-301 379-319 0-319-397V752z"/><glyph glyph-name="Racute" unicode="Ŕ" horiz-adv-x="1298" d="M1063 0q-23 27-23 150v284q0 70-15.5 124.5t-44.5 88-62 55.5-77.5 32.5-80.5 14-80 3.5H289V0H164v1671h518q265 0 377-96.5t112-339.5v-27q0-157-60.5-256.5T915 809q250-76 250-371V150q0-121 25-150h-127zM233 1888l728 152 20-80-727-150zm56-1030h393q186 0 273 76.5t87 265.5v37q0 72-9.5 125.5t-32 89.5-51 59-74 35-93 16.5T666 1567H289V858z"/><glyph glyph-name="racute" unicode="ŕ" horiz-adv-x="968" d="M272 1331v-201q18 41 46 77.5t69 70.5 99 54 126 20q312 0 312-379V870H803v91q0 140-48.5 214T586 1249q-70 0-126.5-29t-90.5-72.5-57-98T280.5 948t-8.5-88V0H152v1331h120zm-88 217l727 152 21-80-727-150z"/><glyph glyph-name="uni0156" unicode="Ŗ" horiz-adv-x="1298" d="M1063 0q-23 27-23 150v284q0 70-15.5 124.5t-44.5 88-62 55.5-77.5 32.5-80.5 14-80 3.5H289V0H164v1671h518q265 0 377-96.5t112-339.5v-27q0-157-60.5-256.5T915 809q250-76 250-371V150q0-121 25-150h-127zM289 858h393q186 0 273 76.5t87 265.5v37q0 72-9.5 125.5t-32 89.5-51 59-74 35-93 16.5T666 1567H289V858zM565-166q0 38 27.5 66T664-72q41 0 67.5-27.5T758-186q0-156-166-236v78q51 23 78.5 53t36.5 74q-28-31-62-31-32 0-56 23t-24 59z"/><glyph glyph-name="uni0157" unicode="ŗ" horiz-adv-x="968" d="M272 1331v-201q18 41 46 77.5t69 70.5 99 54 126 20q312 0 312-379V870H803v91q0 140-48.5 214T586 1249q-70 0-126.5-29t-90.5-72.5-57-98T280.5 948t-8.5-88V0H152v1331h120zM119-166q0 38 27 66t71 28q41 0 67.5-27.5T311-186q0-156-166-236v78q51 23 78.5 53t36.5 74q-28-31-61-31-32 0-56 23t-24 59z"/><glyph glyph-name="Rcaron" unicode="Ř" horiz-adv-x="1298" d="M1063 0q-23 27-23 150v284q0 70-15.5 124.5t-44.5 88-62 55.5-77.5 32.5-80.5 14-80 3.5H289V0H164v1671h518q265 0 377-96.5t112-339.5v-27q0-157-60.5-256.5T915 809q250-76 250-371V150q0-121 25-150h-127zM240 2040h153l217-182 209 182h156l-293-246H539zm49-1182h393q186 0 273 76.5t87 265.5v37q0 72-9.5 125.5t-32 89.5-51 59-74 35-93 16.5T666 1567H289V858z"/><glyph glyph-name="rcaron" unicode="ř" horiz-adv-x="968" d="M272 1331v-201q18 41 46 77.5t69 70.5 99 54 126 20q312 0 312-379V870H803v91q0 140-48.5 214T586 1249q-70 0-126.5-29t-90.5-72.5-57-98T280.5 948t-8.5-88V0H152v1331h120zm-79 369h153l217-182 209 182h156l-293-246H492z"/><glyph glyph-name="Sacute" unicode="Ś" horiz-adv-x="1196" d="M618-20Q82-20 82 477v101h127V471q0-204 101.5-293.5T623 88q185 0 268.5 72.5T975 399v7q0 65-13 116t-33.5 85.5T872 672t-70 49-87 43L440 885q-58 27-99 51t-84.5 60-70.5 75.5-44 96-17 124.5q0 189 120.5 294.5T594 1692q242 0 366.5-116.5T1085 1229v-62H958v62q0 191-91 272.5T594 1583q-168 0-254-67t-86-211v-7q0-65 19-116t56.5-87.5 75.5-60 95-49.5l278-121q61-29 100.5-52t86.5-62.5 74.5-83 46-109.5 18.5-147q0-213-118.5-321.5T618-20zM217 1888l727 152 21-80-727-150z"/><glyph glyph-name="sacute" unicode="ś" horiz-adv-x="1046" d="M682 688q151-67 215-146.5T961 334q0-73-22-134.5t-68.5-112-129-79T547-20Q299-20 187.5 89T76 389v64h121v-62q0-163 83.5-236T545 82q295 0 295 244 0 93-47.5 153T623 592L360 717q-124 52-186.5 126T111 1032q0 64 22.5 119.5T202 1253t125 72.5 183 26.5q117 0 202.5-29t135.5-83 74-124.5T946 956v-49H825v47q0 158-78.5 226.5T512 1249q-127 0-203-54t-76-157q0-79 41.5-128T418 815zm-537 860l727 152 21-80-727-150z"/><glyph glyph-name="Scircumflex" unicode="Ŝ" horiz-adv-x="1196" d="M618-20Q82-20 82 477v101h127V471q0-204 101.5-293.5T623 88q185 0 268.5 72.5T975 399v7q0 65-13 116t-33.5 85.5T872 672t-70 49-87 43L440 885q-58 27-99 51t-84.5 60-70.5 75.5-44 96-17 124.5q0 189 120.5 294.5T594 1692q242 0 366.5-116.5T1085 1229v-62H958v62q0 191-91 272.5T594 1583q-168 0-254-67t-86-211v-7q0-65 19-116t56.5-87.5 75.5-60 95-49.5l278-121q61-29 100.5-52t86.5-62.5 74.5-83 46-109.5 18.5-147q0-213-118.5-321.5T618-20zM256 1802l266 246h144l260-246H778l-184 178-193-178H256z"/><glyph glyph-name="scircumflex" unicode="ŝ" horiz-adv-x="1046" d="M682 688q151-67 215-146.5T961 334q0-73-22-134.5t-68.5-112-129-79T547-20Q299-20 187.5 89T76 389v64h121v-62q0-163 83.5-236T545 82q295 0 295 244 0 93-47.5 153T623 592L360 717q-124 52-186.5 126T111 1032q0 64 22.5 119.5T202 1253t125 72.5 183 26.5q117 0 202.5-29t135.5-83 74-124.5T946 956v-49H825v47q0 158-78.5 226.5T512 1249q-127 0-203-54t-76-157q0-79 41.5-128T418 815zm-498 774l267 246h143l260-246H707l-185 178-192-178H184z"/><glyph glyph-name="Scedilla" unicode="Ş" horiz-adv-x="1196" d="M485-342q147 0 206 15.5t59 66.5q0 52-57 62t-167-9l45 189Q82 3 82 477v101h127V471q0-204 101.5-293.5T623 88q185 0 268.5 72.5T975 399v7q0 65-13 116t-33.5 85.5T872 672t-70 49-87 43L440 885q-58 27-99 51t-84.5 60-70.5 75.5-44 96-17 124.5q0 189 120.5 294.5T594 1692q242 0 366.5-116.5T1085 1229v-62H958v62q0 191-91 272.5T594 1583q-168 0-254-67t-86-211v-7q0-65 19-116t56.5-87.5 75.5-60 95-49.5l278-121q61-29 100.5-52t86.5-62.5 74.5-83 46-109.5 18.5-147q0-205-108.5-313T659-20l-30-115q225 32 225-125 0-92-92.5-128T483-424z"/><glyph glyph-name="scedilla" unicode="ş" horiz-adv-x="1046" d="M682 688q151-67 215-146.5T961 334q0-71-20-130.5t-63-109-119-80T580-20l-31-115q225 32 225-125 0-92-92.5-128T403-424l3 82q147 0 205.5 15.5T670-260q0 52-57 62t-167-9l46 189q-112 6-193.5 38.5T169 108 98.5 232.5 76 389v64h121v-62q0-163 83.5-236T545 82q295 0 295 244 0 93-47.5 153T623 592L360 717q-124 52-186.5 126T111 1032q0 64 22.5 119.5T202 1253t125 72.5 183 26.5q117 0 202.5-29t135.5-83 74-124.5T946 956v-49H825v47q0 158-78.5 226.5T512 1249q-127 0-203-54t-76-157q0-79 41.5-128T418 815z"/><glyph glyph-name="Scaron" unicode="Š" horiz-adv-x="1196" d="M618-20Q82-20 82 477v101h127V471q0-204 101.5-293.5T623 88q185 0 268.5 72.5T975 399v7q0 65-13 116t-33.5 85.5T872 672t-70 49-87 43L440 885q-58 27-99 51t-84.5 60-70.5 75.5-44 96-17 124.5q0 189 120.5 294.5T594 1692q242 0 366.5-116.5T1085 1229v-62H958v62q0 191-91 272.5T594 1583q-168 0-254-67t-86-211v-7q0-65 19-116t56.5-87.5 75.5-60 95-49.5l278-121q61-29 100.5-52t86.5-62.5 74.5-83 46-109.5 18.5-147q0-213-118.5-321.5T618-20zM223 2040h154l217-182 209 182h155l-292-246H522z"/><glyph glyph-name="scaron" unicode="š" horiz-adv-x="1046" d="M682 688q151-67 215-146.5T961 334q0-73-22-134.5t-68.5-112-129-79T547-20Q299-20 187.5 89T76 389v64h121v-62q0-163 83.5-236T545 82q295 0 295 244 0 93-47.5 153T623 592L360 717q-124 52-186.5 126T111 1032q0 64 22.5 119.5T202 1253t125 72.5 183 26.5q117 0 202.5-29t135.5-83 74-124.5T946 956v-49H825v47q0 158-78.5 226.5T512 1249q-127 0-203-54t-76-157q0-79 41.5-128T418 815zM152 1700h153l217-182 209 182h156l-293-246H451z"/><glyph glyph-name="uni0162" unicode="Ţ" horiz-adv-x="1079" d="M477 0v1565H41v106h997v-106H602V0h-16l-35-135q225 32 225-125 0-92-92-128t-278-36l2 82q147 0 205.5 15.5T672-260q0 52-56.5 62T449-207L498 0h-21z"/><glyph glyph-name="uni0163" unicode="ţ" horiz-adv-x="761" d="M700 1331v-102H381V365q0-59 1.5-93.5t7-68 15-50 27.5-30 43-17.5 62-4h163V0H547l-29-115q225 32 225-125 0-47-24.5-79.5T644-370t-115-25.5-156-7.5l2 81q147 0 205.5 15.5T639-240q0 27-13.5 42.5t-44 20-67.5 2-98-10.5L461 2q-53 5-90 23.5T313 70t-32.5 71.5-15 90T262 344v885H25v102h32q121 15 183.5 107.5T301 1671h119q0-133-52-225.5T250 1331h450z"/><glyph glyph-name="Tcaron" unicode="Ť" horiz-adv-x="1079" d="M477 0v1565H41v106h997v-106H602V0H477zM172 2040h154l217-182 209 182h155l-293-246H471z"/><glyph glyph-name="tcaron" unicode="ť" horiz-adv-x="761" d="M700 1331v-102H381V365q0-59 1.5-93.5t7-68 15-50 27.5-30 43-17.5 62-4h163V0H508q-56 0-96.5 9.5T344 41t-43.5 48-25 69-11 84-2.5 102v885H25v102h32q121 15 183.5 107.5T301 1671h119q0-133-52-225.5T250 1331h450zm-182 137l111 379h104l-135-379h-80z"/><glyph glyph-name="Tbar" unicode="Ŧ" horiz-adv-x="1118" d="M496 0v770H162v86h334v709H59v106h998v-106H621V856h333v-86H621V0H496z"/><glyph glyph-name="tbar" unicode="ŧ" horiz-adv-x="782" d="M721 1331v-102H401V772h306v-84H401V365q0-59 1.5-93.5t7-68 15-50 27.5-30 43-17.5 62-4h164V0H528q-48 0-84.5 8T381 29.5 337 67t-28.5 49-16.5 64-7.5 75.5T283 344v344H51v84h232v457H45v102h33q121 15 183.5 107.5T322 1671h118q0-133-52-225.5T270 1331h451z"/><glyph glyph-name="Utilde" unicode="Ũ" horiz-adv-x="1323" d="M662-20q-274 0-391 129.5T154 512v1159h125V506q0-127 25.5-211.5T383 165t118.5-62T662 86q76 0 131.5 10t105 37.5 80 74 48 121T1044 506v1165h127V512q0-275-118.5-403.5T662-20zM291 1810q0 111 55.5 164.5T496 2028q51 0 90.5-15.5t65-38 48-45 52-38T817 1876q111 0 111 131h102q0-112-57-164.5T821 1790q-53 0-93.5 15.5t-66 38-48 45-51 38T500 1942q-54 0-80.5-35.5T393 1810H291z"/><glyph glyph-name="utilde" unicode="ũ" d="M893 0v197q-19-40-47-74.5T774.5 54 666 0 522-20Q336-20 237.5 91.5T139 422v909h121V428q0-348 287-348 80 0 143 26.5T790 173t61 92.5 33 99.5 9 92v874h121V0H893zM197 1470q0 112 55.5 165t148.5 53q51 0 91-15.5t65-38 48-45 52.5-38T723 1536q111 0 111 131h102q0-112-57-164.5T727 1450q-53 0-93.5 15.5t-66 38-48 45-51 38T406 1602q-54 0-80.5-35.5T299 1470H197z"/><glyph glyph-name="Umacron" unicode="Ū" horiz-adv-x="1323" d="M662-20q-274 0-391 129.5T154 512v1159h125V506q0-127 25.5-211.5T383 165t118.5-62T662 86q76 0 131.5 10t105 37.5 80 74 48 121T1044 506v1165h127V512q0-275-118.5-403.5T662-20zM262 1868v82h797v-82H262z"/><glyph glyph-name="umacron" unicode="ū" d="M893 0v197q-19-40-47-74.5T774.5 54 666 0 522-20Q336-20 237.5 91.5T139 422v909h121V428q0-348 287-348 80 0 143 26.5T790 173t61 92.5 33 99.5 9 92v874h121V0H893zM168 1528v82h797v-82H168z"/><glyph glyph-name="Ubreve" unicode="Ŭ" horiz-adv-x="1323" d="M662-20q-274 0-391 129.5T154 512v1159h125V506q0-127 25.5-211.5T383 165t118.5-62T662 86q76 0 131.5 10t105 37.5 80 74 48 121T1044 506v1165h127V512q0-275-118.5-403.5T662-20zM287 2028h102q0-148 275-148 268 0 268 148h102q0-66-27.5-113t-79.5-72.5-116-37-147-11.5q-377 0-377 234z"/><glyph glyph-name="ubreve" unicode="ŭ" d="M893 0v197q-19-40-47-74.5T774.5 54 666 0 522-20Q336-20 237.5 91.5T139 422v909h121V428q0-348 287-348 80 0 143 26.5T790 173t61 92.5 33 99.5 9 92v874h121V0H893zM193 1688h102q0-148 274-148 269 0 269 148h102q0-66-28-113t-80-72.5-116-37-147-11.5q-376 0-376 234z"/><glyph glyph-name="Uring" unicode="Ů" horiz-adv-x="1323" d="M662-20q-274 0-391 129.5T154 512v1159h125V506q0-127 25.5-211.5T383 165t118.5-62T662 86q76 0 131.5 10t105 37.5 80 74 48 121T1044 506v1165h127V512q0-275-118.5-403.5T662-20zM496 1929q0 71 49.5 118.5T662 2095t116-47.5 49-118.5-49-118.5-116-47.5-116.5 47.5T496 1929zm75 0q0-40 25-65t66-25 65.5 25 24.5 65-24.5 65-65.5 25-66-25-25-65z"/><glyph glyph-name="uring" unicode="ů" d="M893 0v197q-19-40-47-74.5T774.5 54 666 0 522-20Q336-20 237.5 91.5T139 422v909h121V428q0-348 287-348 80 0 143 26.5T790 173t61 92.5 33 99.5 9 92v874h121V0H893zM401 1589q0 71 49.5 118.5T567 1755t116.5-47.5T733 1589t-49.5-118.5T567 1423t-116.5 47.5T401 1589zm76 0q0-40 24.5-65t65.5-25 65.5 25 24.5 65-24.5 65-65.5 25-65.5-25-24.5-65z"/><glyph glyph-name="Uhungarumlaut" unicode="Ű" horiz-adv-x="1323" d="M662-20q-274 0-391 129.5T154 512v1159h125V506q0-127 25.5-211.5T383 165t118.5-62T662 86q76 0 131.5 10t105 37.5 80 74 48 121T1044 506v1165h127V512q0-275-118.5-403.5T662-20zM485 1794l238 229h113l-218-229H485zm238 0l238 229h112l-215-229H723z"/><glyph glyph-name="uhungarumlaut" unicode="ű" d="M893 0v197q-19-40-47-74.5T774.5 54 666 0 522-20Q336-20 237.5 91.5T139 422v909h121V428q0-348 287-348 80 0 143 26.5T790 173t61 92.5 33 99.5 9 92v874h121V0H893zM391 1454l238 229h112l-217-229H391zm238 0l237 229h113l-215-229H629z"/><glyph glyph-name="Uogonek" unicode="Ų" horiz-adv-x="1323" d="M662-20q-274 0-391 129.5T154 512v1159h125V506q0-127 25.5-211.5T383 165t118.5-62T662 86q76 0 131.5 10t105 37.5 80 74 48 121T1044 506v1165h127V512q0-224-76.5-349.5T846-2h2Q741-38 688-86t-53-115q0-66 59.5-96.5T885-328h24l-82-84h-22q-126 0-199.5 46T532-227q0 78 49.5 126.5T717-18q-18-2-55-2z"/><glyph glyph-name="uogonek" unicode="ų" d="M893 0v197q-19-40-47-74.5T774.5 54 666 0 522-20Q336-20 237.5 91.5T139 422v909h121V428q0-348 287-348 80 0 143 26.5T790 173t61 92.5 33 99.5 9 92v874h121V0Q907-36 854-84t-53-115q0-66 59.5-96.5T1051-326h24l-82-84h-22q-126 0-199.5 46T698-225q0 47 19 84.5t54.5 64T845-33t89 33h-41z"/><glyph glyph-name="Wcircumflex" unicode="Ŵ" horiz-adv-x="1906" d="M442 0L49 1671h127L522 158l348 1513h166l348-1509 2-8 3 8 342 1509h127L1466 0h-159L956 1499l-2 12-4-12L600 0H442zm176 1802l267 246h143l260-246h-147l-185 178-192-178H618z"/><glyph glyph-name="wcircumflex" unicode="ŵ" horiz-adv-x="1656" d="M494 1462l266 246h143l260-246h-147l-185 178-192-178H494zM45 1331h123L455 145l288 1186h170l291-1186 285 1186h123L1278 0h-148L827 1212 524 0H379z"/><glyph glyph-name="Ycircumflex" unicode="Ŷ" horiz-adv-x="1173" d="M524 0v586L31 1671h135l420-940 420 940h137L649 586V0H524zM252 1802l266 246h144l260-246H774l-184 178-193-178H252z"/><glyph glyph-name="ycircumflex" unicode="ŷ" horiz-adv-x="1163" d="M893 33v164q-19-40-47-74.5T774.5 54 666 0 522-20Q336-20 237.5 91.5T139 422v909h121V428q0-348 287-348 80 0 143 26.5T790 173t61 92.5 33 99.5 9 92v874h119V27q0-122-19-206t-64.5-145-123-89.5T614-442H170v102h434q87 0 142.5 19.5t88.5 66 45.5 114T893 33zM236 1462l266 246h143l260-246H758l-185 178-192-178H236z"/><glyph glyph-name="Ydieresis" unicode="Ÿ" horiz-adv-x="1173" d="M524 0v586L31 1671h135l420-940 420 940h137L649 586V0H524zM287 1907q0 43 26 67.5t64 24.5q39 0 65.5-24.5T469 1907q0-38-27-63t-65-25q-37 0-63.5 25t-26.5 63zm415 0q0 43 26.5 67.5T793 1999q37 0 64.5-25t27.5-67q0-37-28-62.5t-64-25.5q-37 0-64 25t-27 63z"/><glyph glyph-name="Zacute" unicode="Ź" horiz-adv-x="1081" d="M68 0v106l809 1459H68v106h946v-106L205 106h809V0H68zm98 1888l727 152 20-80-727-150z"/><glyph glyph-name="zacute" unicode="ź" horiz-adv-x="958" d="M66 1331h825v-100L193 100h702V0H63v100l699 1131H66v100zm40 217l728 152 20-80-727-150z"/><glyph glyph-name="Zdotaccent" unicode="Ż" horiz-adv-x="1081" d="M68 0v106l809 1459H68v106h946v-106L205 106h809V0H68zm374 1898q0 40 28.5 68.5T541 1995t69-28 27-69q0-38-27-66t-69-28-70.5 28-28.5 66z"/><glyph glyph-name="zdotaccent" unicode="ż" horiz-adv-x="958" d="M66 1331h825v-100L193 100h702V0H63v100l699 1131H66v100zm315 262q0 42 28 70.5t72 28.5 71.5-28.5T580 1593q0-38-28-66t-71-28-71.5 28-28.5 66z"/><glyph glyph-name="Zcaron" unicode="Ž" horiz-adv-x="1081" d="M68 0v106l809 1459H68v106h946v-106L205 106h809V0H68zm104 2040h154l217-182 209 182h155l-293-246H471z"/><glyph glyph-name="zcaron" unicode="ž" horiz-adv-x="958" d="M66 1331h825v-100L193 100h702V0H63v100l699 1131H66v100zm47 369h153l217-182 209 182h156l-293-246H412z"/><glyph glyph-name="uni0218" unicode="Ș" horiz-adv-x="1196" d="M618-20Q82-20 82 477v101h127V471q0-204 101.5-293.5T623 88q185 0 268.5 72.5T975 399v7q0 65-13 116t-33.5 85.5T872 672t-70 49-87 43L440 885q-58 27-99 51t-84.5 60-70.5 75.5-44 96-17 124.5q0 189 120.5 294.5T594 1692q242 0 366.5-116.5T1085 1229v-62H958v62q0 191-91 272.5T594 1583q-168 0-254-67t-86-211v-7q0-65 19-116t56.5-87.5 75.5-60 95-49.5l278-121q61-29 100.5-52t86.5-62.5 74.5-83 46-109.5 18.5-147q0-213-118.5-321.5T618-20zm-96-146q0 38 27.5 66T621-72q41 0 67.5-27.5T715-186q0-156-166-236v78q51 23 78.5 53t36.5 74q-28-31-62-31-32 0-56 23t-24 59z"/><glyph glyph-name="uni0219" unicode="ș" horiz-adv-x="1046" d="M682 688q151-67 215-146.5T961 334q0-73-22-134.5t-68.5-112-129-79T547-20Q299-20 187.5 89T76 389v64h121v-62q0-163 83.5-236T545 82q295 0 295 244 0 93-47.5 153T623 592L360 717q-124 52-186.5 126T111 1032q0 64 22.5 119.5T202 1253t125 72.5 183 26.5q117 0 202.5-29t135.5-83 74-124.5T946 956v-49H825v47q0 158-78.5 226.5T512 1249q-127 0-203-54t-76-157q0-79 41.5-128T418 815zM442-166q0 38 27.5 66T541-72q41 0 67.5-27.5T635-186q0-156-166-236v78q51 23 78.5 53t36.5 74q-28-31-62-31-32 0-56 23t-24 59z"/><glyph glyph-name="uni021A" unicode="Ț" horiz-adv-x="1079" d="M477 0v1565H41v106h997v-106H602V0H477zm-33-166q0 38 27.5 66T543-72q41 0 67.5-27.5T637-186q0-156-166-236v78q51 23 78.5 53t36.5 74q-28-31-62-31-32 0-56 23t-24 59z"/><glyph glyph-name="uni021B" unicode="ț" horiz-adv-x="761" d="M700 1331v-102H381V365q0-59 1.5-93.5t7-68 15-50 27.5-30 43-17.5 62-4h163V0H508q-56 0-96.5 9.5T344 41t-43.5 48-25 69-11 84-2.5 102v885H25v102h32q121 15 183.5 107.5T301 1671h119q0-133-52-225.5T250 1331h450zM412-145q0 38 27 66t71 28q41 0 67.5-28t26.5-87q0-155-166-235v77q51 23 78.5 53t36.5 74q-27-30-61-30-32 0-56 23t-24 59z"/><glyph glyph-name="uni0237" unicode="ȷ" horiz-adv-x="423" d="M152-23v1354h120V-43q0-113-16-185.5T199-351 89-421.5-88-442h-127v102h121q54 0 91.5 6t66 21.5 45 37.5 26.5 60 13.5 82T152-23z"/><glyph glyph-name="circumflex" unicode="ˆ" horiz-adv-x="1079" d="M205 1462l266 246h143l260-246H727l-184 178-193-178H205z"/><glyph glyph-name="caron" unicode="ˇ" horiz-adv-x="1144" d="M504 1454l-299 246h153l217-182 209 182h156l-293-246H504z"/><glyph glyph-name="breve" unicode="˘" horiz-adv-x="1157" d="M582 1454q-377 0-377 234h102q0-148 275-148 268 0 268 148h102q0-66-27.5-113t-79.5-72.5-116-37-147-11.5z"/><glyph glyph-name="dotaccent" unicode="˙" horiz-adv-x="608" d="M305 1499q-43 0-71.5 28t-28.5 66q0 42 28 70.5t72 28.5q43 0 70.5-28.5T403 1593q0-38-27.5-66t-70.5-28z"/><glyph glyph-name="ring" unicode="˚" horiz-adv-x="741" d="M371 1423q-67 0-116.5 47.5T205 1589t49.5 118.5T371 1755t116.5-47.5T537 1589t-49.5-118.5T371 1423zm-90 166q0-40 24.5-65t65.5-25 65.5 25 24.5 65-24.5 65-65.5 25-65.5-25-24.5-65z"/><glyph glyph-name="ogonek" unicode="˛" horiz-adv-x="774" d="M487-410q-126 0-199 46t-73 139q0 47 19 84.5t54.5 64T362-33t89 33h79Q423-36 370-84t-53-115q0-66 59.5-96.5T567-326h25l-82-84h-23z"/><glyph glyph-name="tilde" unicode="˜" horiz-adv-x="1148" d="M205 1470q0 111 55.5 164.5T410 1688q51 0 90.5-15.5t65-38 48-45 52-38T731 1536q111 0 111 131h102q0-112-57-164.5T735 1450q-53 0-93.5 15.5t-66 38-48 45-51 38T414 1602q-54 0-80.5-35.5T307 1470H205z"/><glyph glyph-name="hungarumlaut" unicode="˝" horiz-adv-x="997" d="M578 1454H442l238 229h113zm-373 0l237 229h113l-217-229H205z"/><glyph glyph-name="uni1E20" unicode="Ḡ" horiz-adv-x="1329" d="M643-20q-130 0-232.5 45.5T243 152.5 144.5 343 111 582v512q0 103 20.5 192.5T196 1451t108.5 128.5 156 83T664 1692q130 0 232.5-39t168-109.5 101-164T1206 1174v-125h-129l-2 131q-7 201-113.5 302T666 1583q-210 0-319-123t-109-362V578q0-241 106-365.5T659 88q201 0 309.5 113T1077 537v192H594v105h612V0h-92l-10 246q-63-124-178.5-195T643-20zM266 1868v82h797v-82H266z"/><glyph glyph-name="uni1E21" unicode="ḡ" d="M895 35v164q-17-36-44.5-71T779 58 669.5 1.5 526-20q-200 0-313 133T100 479v373q0 238 113.5 369T526 1352q77 0 141.5-20.5T776 1276t71.5-68.5T895 1137v194h119V16q0-121-19-204t-64-141.5T810-415t-189-27H156v102h458q165 0 223 82.5T895 35zM158 1528v82h796v-82H158zm63-1045q0-185 82-293T547 82q164 0 256 113.5T895 485v361q0 176-92 289.5T545 1249q-162 0-243-107t-81-292V483z"/><glyph glyph-name="Wgrave" unicode="Ẁ" horiz-adv-x="1906" d="M442 0L49 1671h127L522 158l348 1513h166l348-1509 2-8 3 8 342 1509h127L1466 0h-159L956 1499l-2 12-4-12L600 0H442zm113 1944l20 79 777-151-21-78z"/><glyph glyph-name="wgrave" unicode="ẁ" horiz-adv-x="1656" d="M1227 1532l-21-78-776 150 21 79zM45 1331h123L455 145l288 1186h170l291-1186 285 1186h123L1278 0h-148L827 1212 524 0H379z"/><glyph glyph-name="Wacute" unicode="Ẃ" horiz-adv-x="1906" d="M442 0L49 1671h127L522 158l348 1513h166l348-1509 2-8 3 8 342 1509h127L1466 0h-159L956 1499l-2 12-4-12L600 0H442zm138 1888l727 152 20-80-727-150z"/><glyph glyph-name="wacute" unicode="ẃ" horiz-adv-x="1656" d="M475 1470l-20 78 727 152 20-80zM45 1331h123L455 145l288 1186h170l291-1186 285 1186h123L1278 0h-148L827 1212 524 0H379z"/><glyph glyph-name="Wdieresis" unicode="Ẅ" horiz-adv-x="1906" d="M442 0L49 1671h127L522 158l348 1513h166l348-1509 2-8 3 8 342 1509h127L1466 0h-159L956 1499l-2 12-4-12L600 0H442zm213 1907q0 43 26 67.5t64 24.5q39 0 66-25t27-67q0-37-27.5-62.5T745 1819q-37 0-63.5 25t-26.5 63zm416 0q0 43 26 67.5t64 24.5q37 0 64.5-25t27.5-67q0-37-28-62.5t-64-25.5q-37 0-63.5 25t-26.5 63z"/><glyph glyph-name="wdieresis" unicode="ẅ" horiz-adv-x="1656" d="M1034 1479q-37 0-63.5 25t-26.5 63q0 43 26 67.5t64 24.5q37 0 64.5-25t27.5-67q0-37-28-62.5t-64-25.5zM45 1331h123L455 145l288 1186h170l291-1186 285 1186h123L1278 0h-148L827 1212 524 0H379zm483 236q0 43 26 67.5t64 24.5q39 0 66-25t27-67q0-37-27.5-62.5T618 1479q-37 0-63.5 25t-26.5 63z"/><glyph glyph-name="uni1E9E" unicode="ẞ" horiz-adv-x="1208" d="M156 1313q0 190 101.5 274t326.5 84h522q-28-153-51-252t-48-177-54-123-64-73.5-84-44.5q100-26 163-78.5t97.5-148T1100 537v-72q0-248-115-356.5T637 0H393v102h230q94 0 157.5 17T890 177t67.5 112T979 465v76q0 64-6 112.5t-21 97-43.5 82T838 893t-105 40-145 13H393v103h193q59 0 102.5 8.5t77 20T826 1123t45.5 64 39 97 35 122 39.5 161H584q-165 0-237.5-55.5T274 1321V0H156v1313z"/><glyph glyph-name="uni1EBC" unicode="Ẽ" horiz-adv-x="1118" d="M164 0v1671h856v-106H289V889h704V782H289V106h731V0H164zm59 1810q0 111 55.5 164.5T428 2028q51 0 91-15.5t65-38 48-45 52.5-38T750 1876q110 0 110 131h103q0-112-57-164.5T754 1790q-53 0-94 15.5t-66.5 38-48 45-51 38T432 1942q-53 0-79.5-35.5T326 1810H223z"/><glyph glyph-name="uni1EBD" unicode="ẽ" horiz-adv-x="1103" d="M188 1470q0 111 55.5 164.5T393 1688q51 0 91-15.5t65-38 48-45 52.5-38T715 1536q110 0 110 131h103q0-112-57-164.5T719 1450q-53 0-94 15.5t-66.5 38-48 45-51 38T397 1602q-53 0-79.5-35.5T291 1470H188zM98 498v336q0 245 117 381.5T563 1352q219 0 332-127.5T1008 850V655H221V494q0-412 340-412 299 0 316 317v29h122v-27Q986 204 878.5 92T561-20q-230 0-346.5 135.5T98 498zm123 254h666v118q-1 105-24 180t-67 117.5-101 62-132 19.5q-168 0-255-97.5T221 838v-86z"/><glyph glyph-name="Ygrave" unicode="Ỳ" horiz-adv-x="1173" d="M524 0v586L31 1671h135l420-940 420 940h137L649 586V0H524zM188 1944l21 79 776-151-20-78z"/><glyph glyph-name="ygrave" unicode="ỳ" horiz-adv-x="1163" d="M893 33v164q-19-40-47-74.5T774.5 54 666 0 522-20Q336-20 237.5 91.5T139 422v909h121V428q0-348 287-348 80 0 143 26.5T790 173t61 92.5 33 99.5 9 92v874h119V27q0-122-19-206t-64.5-145-123-89.5T614-442H170v102h434q87 0 142.5 19.5t88.5 66 45.5 114T893 33zM172 1604l21 79 776-151-21-78z"/><glyph glyph-name="uni1EF8" unicode="Ỹ" horiz-adv-x="1173" d="M524 0v586L31 1671h135l420-940 420 940h137L649 586V0H524zM217 1810q0 111 55.5 164.5T422 2028q51 0 90.5-15.5t65-38 48-45 52-38T743 1876q111 0 111 131h102q0-112-56.5-164.5T748 1790q-53 0-94 15.5t-66.5 38-48 45-51 38T426 1942q-54 0-80.5-35.5T319 1810H217z"/><glyph glyph-name="uni1EF9" unicode="ỹ" horiz-adv-x="1163" d="M893 33v164q-19-40-47-74.5T774.5 54 666 0 522-20Q336-20 237.5 91.5T139 422v909h121V428q0-348 287-348 80 0 143 26.5T790 173t61 92.5 33 99.5 9 92v874h119V27q0-122-19-206t-64.5-145-123-89.5T614-442H170v102h434q87 0 142.5 19.5t88.5 66 45.5 114T893 33zM201 1470q0 111 55.5 164.5T406 1688q51 0 90.5-15.5t65-38 48-45 52-38T727 1536q111 0 111 131h102q0-112-57-164.5T731 1450q-53 0-93.5 15.5t-66 38-48 45-51 38T410 1602q-54 0-80.5-35.5T303 1470H201z"/><glyph glyph-name="uni2000" horiz-adv-x="1024"/><glyph glyph-name="uni2001" horiz-adv-x="2048"/><glyph glyph-name="uni2002" horiz-adv-x="1024"/><glyph glyph-name="uni2003" horiz-adv-x="2048"/><glyph glyph-name="uni2004" horiz-adv-x="681"/><glyph glyph-name="uni2005" horiz-adv-x="512"/><glyph glyph-name="uni2006" horiz-adv-x="342"/><glyph glyph-name="uni2007" horiz-adv-x="1335"/><glyph glyph-name="uni2008" horiz-adv-x="411"/><glyph glyph-name="uni2009" horiz-adv-x="256"/><glyph glyph-name="uni200A" horiz-adv-x="86"/><glyph glyph-name="uni200B" unicode="​" horiz-adv-x="0"/><glyph glyph-name="endash" unicode="–" horiz-adv-x="1597" d="M86 721h1425v-86H86v86z"/><glyph glyph-name="emdash" unicode="—" horiz-adv-x="2629" d="M86 721h2458v-88H86v88z"/><glyph glyph-name="quoteleft" unicode="‘" horiz-adv-x="350" d="M190 1180H84l106 512h86z"/><glyph glyph-name="quoteright" unicode="’" horiz-adv-x="346" d="M174 1692h107l-107-512H88z"/><glyph glyph-name="quotesinglbase" unicode="‚" horiz-adv-x="342" d="M137 268h107L137-244H51z"/><glyph glyph-name="quotedblleft" unicode="“" horiz-adv-x="548" d="M389 1180H283l106 512h86zm-305 0l106 512h86l-86-512H84z"/><glyph glyph-name="quotedblright" unicode="”" horiz-adv-x="544" d="M174 1692h107l-107-512H88zm113-512l86 512h106l-106-512h-86z"/><glyph glyph-name="quotedblbase" unicode="„" horiz-adv-x="542" d="M137 268h107L137-244H51zm113-512l86 512h106L336-244h-86z"/><glyph glyph-name="dagger" unicode="†" horiz-adv-x="522" d="M209 647v617H92v94h117v313h102v-313h117v-94H311V647H209z"/><glyph glyph-name="daggerdbl" unicode="‡" horiz-adv-x="565" d="M231 647v293H115v94h116v230H115v94h116v313h103v-313h117v-94H334v-230h117v-94H334V647H231z"/><glyph glyph-name="bullet" unicode="•" horiz-adv-x="704" d="M350 526q-83 0-139.5 54T154 719q0 90 56 145.5T350 920q81 0 141-56t60-145q0-84-60-138.5T350 526z"/><glyph glyph-name="ellipsis" unicode="…" horiz-adv-x="1083" d="M205-20q-48 0-81.5 31T90 92q0 53 33 85t82 32q48 0 82.5-32.5T322 92q0-49-34.5-80.5T205-20zM426 92q0 53 33 85t82 32q48 0 82-32.5T657 92q0-49-34.5-80.5T541-20q-48 0-81.5 31T426 92zm336 0q0 53 33 85t82 32q48 0 82-32.5T993 92q0-49-34.5-80.5T877-20q-48 0-81.5 31T762 92z"/><glyph glyph-name="uni202F" horiz-adv-x="407"/><glyph glyph-name="perthousand" unicode="‰" horiz-adv-x="2125" d="M1788-20q-97 0-165.5 48t-99 120-30.5 159q0 64 18 122t53 105 93 75 131 28 131.5-28 93.5-75 53.5-105 18.5-122q0-87-31-159T1954 28t-166-48zM53 1364q0 64 18.5 121.5T125 1590t93.5 74.5T350 1692t130.5-27.5T573 1590t53.5-104.5T645 1364t-18.5-122-53.5-105-92.5-75-130.5-28-131.5 28-93.5 75-53.5 105T53 1364zm113 0q0-102 47.5-164.5T350 1137q88 0 135 62.5t47 164.5q0 101-47 163t-135 62q-89 0-136.5-62T166 1364zM264 0l817 1671h105L367 0H264zm543 307q0 64 18.5 122T879 534t93.5 75 131.5 28 130.5-28 92.5-75 53.5-105 18.5-122q0-135-76.5-231T1104-20q-97 0-166 48T838 148t-31 159zm113 0q0-101 47.5-163T1104 82q88 0 135 62t47 163q0 102-47 165t-135 63q-89 0-136.5-63T920 307zm686 0q0-101 47-163t135-62q89 0 136.5 62t47.5 163q0 102-47.5 165T1788 535q-88 0-135-63t-47-165z"/><glyph glyph-name="second" unicode="″" horiz-adv-x="540" d="M117 1671h106v-512H117v512zm200-512v512h107v-512H317z"/><glyph glyph-name="guilsinglleft" unicode="‹" horiz-adv-x="612" d="M487 299L84 635v82l403 336V924L184 676l303-248V299z"/><glyph glyph-name="guilsinglright" unicode="›" horiz-adv-x="612" d="M127 299v129l303 248-303 248v129l403-336v-82z"/><glyph glyph-name="fraction" unicode="⁄" horiz-adv-x="196" d="M524 1671L-264 0h-96l788 1671h96z"/><glyph glyph-name="uni205F" horiz-adv-x="454"/><glyph glyph-name="uni2070" unicode="⁰" horiz-adv-x="669" d="M336 705q-132 0-199 80.5T70 1012v243q0 145 67 225.5t199 80.5q131 0 198.5-81t67.5-225v-243q0-146-67-226.5T336 705zM164 999q0-51 10-96l297 518q-47 62-135 62-172 0-172-217V999zm43-165q43-52 129-52 172 0 172 217v267q0 53-8 86z"/><glyph glyph-name="uni2074" unicode="⁴" horiz-adv-x="614" d="M487 1550V967h86v-78h-86V715h-92v174H35v82l362 579h90zM117 967h278v432z"/><glyph glyph-name="uni2075" unicode="⁵" horiz-adv-x="638" d="M350 1276q109 0 171.5-61.5T584 1036v-78q-1-125-68-189t-194-64q-123 0-192 61.5T61 948v21h95v-31q3-156 168-156 163 0 163 160v92q0 160-155 160-66 0-105.5-31.5T162 1069H70l26 481h449v-77H180l-18-293q61 96 188 96z"/><glyph glyph-name="uni2076" unicode="⁶" horiz-adv-x="655" d="M334 705q-133 0-196.5 65.5T74 969v293q0 149 61.5 224t198.5 75q123 0 181-61.5t58-162.5v-12h-92v10q0 142-145 142-86 0-127-42t-41-141v-102q63 84 190 84 114 0 175-62.5t61-179.5v-82q0-247-260-247zM168 946q0-89 42-126.5T336 782q83 0 123.5 37.5T500 942v94q0 160-158 160-81 0-127.5-40.5T168 1040v-94z"/><glyph glyph-name="uni2077" unicode="⁷" horiz-adv-x="557" d="M25 1473v77h497v-77q-81-78-134.5-166T307 1121t-37.5-188T258 729v-14h-92v12q0 233 55 415t205 331H25z"/><glyph glyph-name="uni2078" unicode="⁸" horiz-adv-x="645" d="M324 705Q61 705 61 924v37q0 162 136 198-55 14-87 56.5T78 1327v35q0 94 62.5 146.5T324 1561q119 0 181-52.5t62-146.5v-35q0-134-118-168 132-32 135-198v-37q-3-219-260-219zM156 922q0-79 41-110.5T324 780q83 0 123.5 31.5T489 922v57q-1 76-43 106.5T324 1116q-82 0-125-31t-43-106v-57zm16 393q0-121 152-121 149 0 149 121v49q0 121-149 121-152 0-152-121v-49z"/><glyph glyph-name="uni2079" unicode="⁹" horiz-adv-x="655" d="M322 1561q262 0 262-265v-292q0-149-61.5-224T324 705q-126 0-184 61T82 928v12h94v-10q0-142 146-142 84 0 125.5 43T489 973v100q-61-84-192-84-113 0-174.5 62.5T61 1231v82q0 248 261 248zm-166-332q3-160 159-160 80 0 127 40.5t47 115.5v94q0 89-42 126.5T322 1483q-84 0-125-38t-41-122v-94z"/><glyph glyph-name="uni2080" unicode="₀" horiz-adv-x="669" d="M336-266q-132 0-199 80.5T70 41v244q0 144 67 224.5T336 590q131 0 198.5-80.5T602 285V41q0-146-67-226.5T336-266zM164 29q0-52 10-97l297 519q-46 61-135 61-172 0-172-217V29zm43-166q42-51 129-51 172 0 172 217v266q0 53-8 86z"/><glyph glyph-name="uni2081" unicode="₁" horiz-adv-x="516" d="M55-178h172v647q-61-74-174-74v84q115 0 178 101h86v-758h177v-78H55v78z"/><glyph glyph-name="uni2082" unicode="₂" horiz-adv-x="641" d="M59-172q0 55 8 95.5t28.5 81T157 78t103 61l92 51q70 31 102.5 71.5T487 369v6q0 75-40 106t-119 31q-86 0-126-37.5T162 346v-37H68v31q0 250 260 250 254 0 254-225 0-170-176-246l-97-53q-96-37-125.5-87T154-178h428v-78H59v84z"/><glyph glyph-name="uni2083" unicode="₃" horiz-adv-x="641" d="M317-266q-132 0-196 58T55-31V2h95v-37q1-86 41-119.5T315-188q86 0 126 33.5T481-47v43q0 43-13.5 72T430 110.5t-49.5 19T322 135h-97v78h97q153 0 153 127v35q0 76-42 106.5T317 512q-78 0-118-32t-41-115v-33H63v26q3 232 254 232 129 0 190.5-60T569 373v-21q2-65-29.5-112T449 176q126-39 126-192v-25q0-107-63.5-166T317-266z"/><glyph glyph-name="uni2084" unicode="₄" horiz-adv-x="616" d="M489 580V-4h86v-78h-86v-174h-92v174H37V0l362 580h90zM119-4h278v432z"/><glyph glyph-name="uni2085" unicode="₅" horiz-adv-x="638" d="M350 305q109 0 171.5-61T584 66v-78q-1-125-68-189.5T322-266q-123 0-192 61.5T61-23v21h95v-31q3-155 168-155 163 0 163 159v92q0 160-155 160-66 0-105.5-31.5T162 98H70l26 482h449v-78H180l-18-293q61 96 188 96z"/><glyph glyph-name="uni2086" unicode="₆" horiz-adv-x="655" d="M334-266q-133 0-196.5 65.5T74-2v293q0 149 61.5 224T334 590q124 0 181.5-61T573 367v-13h-92v11q0 73-36.5 107T336 506q-86 0-127-42t-41-140V221q63 84 190 84 114 0 175-62.5T594 63v-81q0-248-260-248zM168-25q0-89 42-126t126-37 124 37 40 122v95q0 159-158 159-81 0-127.5-40T168 70v-95z"/><glyph glyph-name="uni2087" unicode="₇" horiz-adv-x="555" d="M23 502v78h497v-78q-81-78-134.5-166T305 150 267.5-38 256-242v-14h-92v12q0 233 55 415t205 331H23z"/><glyph glyph-name="uni2088" unicode="₈" horiz-adv-x="645" d="M324-266Q61-266 61-47v37q0 162 136 198-55 14-87 56.5T78 356v35q0 94 62.5 146.5T324 590q119 0 181-52.5T567 391v-35q0-134-118-168 132-32 135-198v-37q-3-219-260-219zM156-49q0-79 41-110t127-31q83 0 123.5 31T489-49V8q-1 76-43 106.5T324 145q-82 0-125-31T156 8v-57zm16 393q0-121 152-121 149 0 149 121v49q0 121-149 121-152 0-152-121v-49z"/><glyph glyph-name="uni2089" unicode="₉" horiz-adv-x="655" d="M322 590q262 0 262-264V33q0-149-61.5-224T324-266q-126 0-184 61T82-43v12h94v-10q0-141 146-141 84 0 125.5 43T489 2v100q-61-84-192-84-113 0-174.5 62.5T61 260v82q0 248 261 248zM156 258q3-160 159-160 80 0 127 40.5T489 254v94q0 89-42 126.5T322 512q-84 0-125-38t-41-122v-94z"/><glyph glyph-name="Euro" unicode="€" horiz-adv-x="1388" d="M100 702v84h150v99H100v84h150v125q0 130 31 237t92.5 189T537 1647t235 45q124 0 220.5-39.5T1150 1541t93.5-166.5T1280 1165V987h-129v184q-6 207-103.5 309.5T774 1583q-196 0-296.5-123T377 1098V969h514v-84H377v-99h514v-84H377V578q0-490 395-490 180 0 276.5 103.5T1151 504v184h129V510q-4-117-36.5-212T1150 131 992 19.5 770-20q-134 0-235 45T372.5 152t-92 189.5T250 582v120H100z"/><glyph glyph-name="trademark" unicode="™" horiz-adv-x="1333" d="M557 870v801h137l183-631 186 631h133V870h-104v570L924 870h-90l-172 572V870H557zM55 1563v108h457v-108H338V870H229v693H55z"/><glyph glyph-name="oneeighth" unicode="⅛" horiz-adv-x="1708" d="M78 913h172v648q-61-74-174-74v84q116 0 178 100h86V913h176v-77H78v77zM346 0l789 1671h96L442 0h-96zm772 209v37q0 162 135 198-55 14-86.5 56.5T1135 612v35q0 94 62 146.5t183 52.5q119 0 181.5-52.5T1624 647v-35q0-134-119-168 132-32 135-198v-37q-3-219-260-219-262 0-262 219zm94-2q0-79 41-110t127-31q84 0 124.5 31t41.5 110v57q-1 76-43.5 106.5T1380 401q-82 0-125-31t-43-106v-57zm17 393q0-121 151-121 150 0 150 121v49q0 121-150 121-151 0-151-121v-49z"/><glyph glyph-name="threeeighths" unicode="⅜" horiz-adv-x="1812" d="M332 825q-132 0-196 58.5T70 1061v33h94v-37q1-86 41.5-120T330 903q86 0 126 33.5t40 107.5v43q0 43-13.5 72t-38 43-50 19.5-58.5 5.5h-96v78h96q153 0 153 127v34q0 76-42 107t-115 31q-78 0-118.5-32.5T172 1456v-33H78v27q3 231 254 231 129 0 190.5-60t61.5-157v-20q2-65-30-112t-91-64q127-40 127-193v-24q0-107-63.5-166.5T332 825zM451 0l788 1671h96L547 0h-96zm772 209v37q0 162 135 198-55 14-87 56.5T1239 612v35q0 94 62.5 146.5T1485 846q119 0 181.5-52.5T1729 647v-35q0-134-119-168 132-32 135-198v-37q-3-219-260-219-262 0-262 219zm94-2q0-79 41-110t127-31q84 0 124.5 31t41.5 110v57q-1 76-43.5 106.5T1485 401q-82 0-125-31t-43-106v-57zm16 393q0-121 152-121 149 0 149 121v49q0 121-149 121-152 0-152-121v-49z"/><glyph glyph-name="fiveeighths" unicode="⅝" horiz-adv-x="1802" d="M356 1397q109 0 171.5-61.5T590 1157v-78q-1-125-68-189.5T328 825q-123 0-191.5 61.5T68 1069v21h94v-31q3-156 168-156 164 0 164 160v92q0 160-156 160-66 0-105.5-31.5T168 1190H76l26 481h449v-78H186l-18-293q62 97 188 97zM442 0l787 1671h96L539 0h-97zm772 209v37q0 162 136 198-55 14-87 56.5T1231 612v35q0 94 62.5 146.5T1477 846q119 0 181-52.5t62-146.5v-35q0-134-118-168 132-32 135-198v-37q-3-219-260-219-263 0-263 219zm95-2q0-79 41-110t127-31q83 0 123.5 31t41.5 110v57q-1 76-43 106.5T1477 401q-82 0-125-31t-43-106v-57zm16 393q0-121 152-121 149 0 149 121v49q0 121-149 121-152 0-152-121v-49z"/><glyph glyph-name="seveneighths" unicode="⅞" horiz-adv-x="1728" d="M33 1593v78h497v-78q-81-78-134.5-166T315 1241.5 277.5 1054 266 850v-14h-92v12q0 233 55 414.5T434 1593H33zM362 0l789 1671h96L459 0h-97zm773 209v37q0 162 135 198-55 14-87 56.5T1151 612v35q0 94 62.5 146.5T1397 846q119 0 181-52.5t62-146.5v-35q0-134-118-168 132-32 135-198v-37q-3-219-260-219-262 0-262 219zm94-2q0-79 41-110t127-31q84 0 124.5 31t41.5 110v57q-1 76-43.5 106.5T1397 401q-82 0-125-31t-43-106v-57zm16 393q0-121 152-121 149 0 149 121v49q0 121-149 121-152 0-152-121v-49z"/><glyph glyph-name="arrowleft" unicode="←" horiz-adv-x="1175" d="M246 633q107-43 186.5-138.5T535 260H426q-9 66-43.5 128T299 497t-104.5 81.5T82 633v86q57 20 112.5 54.5T299 855t83.5 109 43.5 128h109q-23-139-102.5-234.5T246 719h844v-86H246z"/><glyph glyph-name="arrowup" unicode="↑" horiz-adv-x="983" d="M535 170h-86v844q-43-107-138.5-186.5T76 725v109q66 9 128 43.5T313 961t81.5 104.5T449 1178h86q27-78 77-149t129-127 166-68V725q-139 23-234 102.5T535 1014V170z"/><glyph glyph-name="arrowright" unicode="→" horiz-adv-x="1175" d="M86 633v86h844q-107 43-186.5 138.5T641 1092h109q9-66 43.5-128T877 855t104.5-81.5T1094 719v-86q-57-20-112.5-54.5T877 497t-83.5-109T750 260H641q23 139 102.5 234.5T930 633H86z"/><glyph glyph-name="arrowdown" unicode="↓" horiz-adv-x="991" d="M453 1184h86V340q43 107 138 186.5T911 629V520q-87-12-166-68T616 325t-77-149h-86q-20 57-54.5 112.5T317 393t-109 83.5T80 520v109q139-23 234.5-102.5T453 340v844z"/><glyph glyph-name="arrowboth" unicode="↔" horiz-adv-x="1499" d="M82 731q122 37 224 137.5T426 1098h106q-22-140-101-234.5T246 731h1007q-106 38-185 132.5T967 1098h106q18-129 120-229.5T1417 731v-98q-122-37-224-137.5T1073 266H967q22 140 101 234.5T1253 633H246q106-38 185-132.5T532 266H426q-18 129-120 229.5T82 633v98z"/><glyph glyph-name="arrowupdn" unicode="↕" horiz-adv-x="1007" d="M553 1315q37-122 137.5-224T920 971V864q-140 22-234.5 101.5T553 1151V143q38 106 132.5 185.5T920 430V324q-129-18-229.5-120T553-20h-98q-37 122-137.5 224T88 324v106q140-22 234.5-101.5T455 143v1008q-38-106-132.5-185.5T88 864v107q129 18 229.5 120T455 1315h98z"/><glyph glyph-name="uni2196" unicode="↖" horiz-adv-x="958" d="M891 338l-62-62-596 596q29-68 36-142t-16-160-79-164l-78 75q55 70 71.5 165t1.5 182-52 161l61 60q75-36 160.5-51t181 1 166.5 70l76-76q-78-56-164.5-79T437 898t-142 36z"/><glyph glyph-name="uni2197" unicode="↗" horiz-adv-x="960" d="M129 279l-59 59 596 598q-69-29-143-36t-160 16-164 79l75 76q70-54 165-70t181.5-1 159.5 51l62-62q-36-73-51-159.5t1-181.5 70-165l-76-77q-56 79-79 165t-16 160 36 143z"/><glyph glyph-name="uni2198" unicode="↘" horiz-adv-x="956" d="M68 1020l61 61 596-596q-29 68-36 142t16 160.5T784 952l76-75q-54-70-70-165t-1-181.5T840 369l-60-60q-75 36-161.5 51T437 359t-165-70l-75 76q78 56 164.5 79T522 460t142-36z"/><glyph glyph-name="uni2199" unicode="↙" horiz-adv-x="958" d="M831 1081l60-59-596-598q69 29 143 36t160-16 164-79l-76-76q-70 54-165 70t-181.5 1T178 309l-59 62q36 73 50.5 159.5T168 712 98 877l76 75q56-78 79-164t16-160-36-143z"/><glyph glyph-name="uni21E7" unicode="⇧" horiz-adv-x="1738" d="M500-14v604H74l794 883 795-883h-426V-14H500zM303 692h299V88h533v604h299l-566 629z"/><glyph glyph-name="partialdiff" unicode="∂" horiz-adv-x="1304" d="M639-246q-282 0-431 142.5T59 287q0 62 10.5 119T104 522t67 107 103.5 86 150 59T625 795q330 0 465-195-55 275-251 454t-577 283l37 93q467-125 691-388t224-714q0-276-141-425T639-246zM162 287q0-209 121.5-326T639-156q247 0 360 124t113 341q0 107-37.5 185t-106 122.5-153 65T627 702q-465 0-465-415z"/><glyph glyph-name="emptyset" unicode="∅" horiz-adv-x="1548" d="M774 279q-120 0-227 22L387 0H279l174 328q-120 43-201.5 121.5T134 624 98 834q0 91 24 171.5t77 150.5 130.5 120 191.5 79 253 29q120 0 227-22l164 309h109l-178-336q178-64 266-196.5t88-304.5q0-92-24-173.5t-77-152-130.5-121-191-79.5T774 279zM203 834q0-70 16-132t50-118 92-100.5T498 412l456 864q-93 14-180 14-126 0-225-25t-163-67-106-101-59.5-124T203 834zm391-447q93-14 180-14 126 0 225 25t163.5 67.5 106.5 102 59.5 125T1346 834q0 69-16 130t-49.5 116.5-92 99.5-137.5 71z"/><glyph glyph-name="product" unicode="∏" horiz-adv-x="1239" d="M852-225v1554H383V-225H281v1554H31v86h1175v-86H954V-225H852z"/><glyph glyph-name="summation" unicode="∑" horiz-adv-x="1200" d="M57-236v86l559 742-559 745v86h1086v-86H178l561-743-561-744h965v-86H57z"/><glyph glyph-name="minus" unicode="−" horiz-adv-x="1359" d="M92 874h1176v-86H92v86z"/><glyph glyph-name="radical" unicode="√" horiz-adv-x="1392" d="M449-225L76 508h110l318-633 461 1538h372v-86h-295L575-225H449z"/><glyph glyph-name="infinity" unicode="∞" horiz-adv-x="1523" d="M1143 401q-58 0-111 16t-102 49-84.5 63.5T762 608q-99-99-186-153t-195-54q-54 0-102 15.5t-88 47-63.5 86T104 676q0 73 24.5 128t65.5 85.5 88 45.5 99 15q108 0 195-54t186-153q46 47 82.5 78.5T929 885t101.5 48.5T1141 950q53 0 100-15t88-45.5 65.5-85.5 24.5-128q0-72-23.5-126.5t-63.5-86-87.5-47T1143 401zM207 676q0-87 46-131.5T385 500q84 0 154.5 45T696 676q-86 86-156.5 131T385 852q-90 0-134-46t-44-130zm620 0q85-85 156.5-130.5T1139 500q86 0 132 45t46 131q0 82-44.5 129T1139 852q-84 0-155.5-45.5T827 676z"/><glyph glyph-name="integral" unicode="∫" horiz-adv-x="821" d="M33-246v84h53q84 0 137.5 16t84 54T349-2t11 133v916q0 96 17 163.5t58 118.5 114 76 180 25h62v-87h-54q-85 0-138.5-16t-83.5-53.5-41-89-11-133.5V135q0-96-17.5-163.5t-58.5-118-113.5-75T94-246H33z"/><glyph glyph-name="approxequal" unicode="≈" horiz-adv-x="1429" d="M121 899q0 64 18.5 114t47.5 79.5 69 48.5 78.5 26 81.5 7q73 0 142.5-22.5T683 1097t107.5-64T903 978.5t119-22.5q86 0 137 44t51 128h103q0-64-18-113.5t-47-79.5-68.5-48.5-78-25.5-81.5-7q-73 0-142.5 22.5t-124.5 54T645.5 994 533 1048.5 414 1071q-86 0-137.5-44T225 899H121zm0-369q0 64 18.5 114t47.5 79.5 69 48.5 78.5 26 81.5 7q73 0 142.5-22.5T683 728t107.5-63.5 112.5-54 119-22.5q86 0 137 44t51 128h103q0-64-18-114t-47-79.5-68.5-48.5-78-26-81.5-7q-73 0-142.5 22.5T753 562t-107.5 63.5-112.5 54T414 702q-86 0-137.5-44T225 530H121z"/><glyph glyph-name="notequal" unicode="≠" horiz-adv-x="1392" d="M406 315l174 347H109v86h514l84 167H109v86h641l172 347h104l-172-347h430v-86H811l-84-167h557v-86H684L510 315H406z"/><glyph glyph-name="lessequal" unicode="≤" horiz-adv-x="1421" d="M119 901l1175 326v-103L305 860l989-264V438H119v86h1065L119 819v82z"/><glyph glyph-name="greaterequal" unicode="≥" horiz-adv-x="1421" d="M127 596l989 264-989 264v103l1176-326v-82L238 524h1065v-86H127v158z"/><glyph glyph-name="uni2317" unicode="⌗" horiz-adv-x="1499" d="M84 887v102h393v393h103V989h340v393h102V989h393V887h-393V547h393V444h-393V51H920v393H580V51H477v393H84v103h393v340H84zm496-340h340v340H580V547z"/><glyph glyph-name="uni2318" unicode="⌘" horiz-adv-x="1591" d="M367 14q-125 0-199 74T94 287q0 134 92 208t271 74h90v295h-90q-179 0-271 74.5T94 1147q0 124 74 198t199 74q134 0 208-91.5t74-270.5v-90h295v90q0 178 74.5 270t208.5 92q125 0 198.5-73.5T1499 1147q0-134-92-208.5T1137 864h-90V569h90q179 0 270.5-74t91.5-208q0-125-74-199t-198-74q-134 0-208.5 92T944 377v90H649v-90q0-179-74-271T367 14zM197 287q0-88 41-129t129-41q95 0 137.5 59T547 377v90h-90q-142 0-201-42.5T197 287zm0 860q0-95 59-137.5T457 967h90v90q0 142-42.5 201T367 1317q-88 0-129-41t-41-129zm452-578h295v295H649V569zm398-192q0-142 42.5-201t137.5-59q88 0 129 41t41 129q0 95-59 137.5T1137 467h-90v-90zm0 590h90q142 0 201 42.5t59 137.5q0 88-41 129t-129 41q-95 0-137.5-59t-42.5-201v-90z"/><glyph glyph-name="uni2325" unicode="⌥" horiz-adv-x="1574" d="M852 115L362 1217H29v102h399L920 217h540V115H852zm-88 1102v102h696v-102H764z"/><glyph glyph-name="filledbox" unicode="■" horiz-adv-x="1429" d="M156 158v1118h1118V158H156z"/><glyph glyph-name="uni25A1" unicode="□" horiz-adv-x="1429" d="M156 158v1118h1118V158H156zm102 102h913v914H258V260z"/><glyph glyph-name="triagup" unicode="▲" horiz-adv-x="1443" d="M41 31l682 1179L1403 31H41z"/><glyph glyph-name="uni25B3" unicode="△" horiz-adv-x="1511" d="M45 31l711 1231L1466 31H45zm176 102h1067l-532 924z"/><glyph glyph-name="uni25B6" unicode="▶" horiz-adv-x="1419" d="M164 1393l1179-680L164 31v1362z"/><glyph glyph-name="uni25B7" unicode="▷" horiz-adv-x="1474" d="M164-6v1421l1231-710zm102 176l924 535-924 532V170z"/><glyph glyph-name="triagdn" unicode="▼" horiz-adv-x="1472" d="M1417 1210L735 31 55 1210h1362z"/><glyph glyph-name="uni25BD" unicode="▽" horiz-adv-x="1529" d="M766-20L55 1210h1422zM233 1108l533-924 534 924H233z"/><glyph glyph-name="uni25C0" unicode="◀" horiz-adv-x="1419" d="M1255 31L76 713l1179 680V31z"/><glyph glyph-name="uni25C1" unicode="◁" horiz-adv-x="1474" d="M1311-6L80 705l1231 710V-6zM285 705l923-535v1067z"/><glyph glyph-name="uni25C6" unicode="◆" horiz-adv-x="1503" d="M752 51L84 717l668 667 665-667z"/><glyph glyph-name="uni25C7" unicode="◇" horiz-adv-x="1544" d="M770 29L84 717l688 688 686-688zM227 717l545-543 543 543-545 543z"/><glyph glyph-name="lozenge" unicode="◊" horiz-adv-x="954" d="M403 1280h148l315-614L551 51H403L88 666zM199 666l278-543 279 543-279 542z"/><glyph glyph-name="circle" unicode="○" horiz-adv-x="1443" d="M723 92q-170 0-314 84T181.5 404 98 717q0 127 49.5 242.5t133 199 199.5 133 243 49.5q169 0 312.5-83.5t227-227.5 83.5-313-83.5-313-227-228T723 92zM201 717q0-221 150.5-370.5T723 197q144 0 263.5 68t188 187.5T1243 717t-68.5 264.5-188 187.5-263.5 68q-221 0-371.5-149.5T201 717z"/><glyph glyph-name="uni25CF" unicode="●" horiz-adv-x="1443" d="M723 94q-170 0-314 83.5t-227.5 227T98 717q0 127 49.5 242.5t133 199 199.5 133 243 49.5q169 0 312.5-83.5t227-227.5 83.5-313-83.5-312.5-227-227T723 94z"/><glyph glyph-name="uni2B1B" unicode="⬛" horiz-adv-x="2109" d="M195-143v1720h1720V-143H195z"/><glyph glyph-name="uni2B1C" unicode="⬜" horiz-adv-x="2109" d="M195-143v1720h1720V-143H195zM297-41h1515v1516H297V-41z"/><glyph glyph-name="uni2B98" unicode="⮘" horiz-adv-x="1449" d="M1370-39L82 705l1288 743-321-743zM287 705h649l217 499z"/><glyph glyph-name="uni2B99" unicode="⮙" horiz-adv-x="1527" d="M20-27l744 1289L1507-27 764 295zm744 435l500-218-500 867V408z"/><glyph glyph-name="uni2B9A" unicode="⮚" horiz-adv-x="1449" d="M80-39l321 744-321 743 1288-743zm217 1243l217-499h649z"/><glyph glyph-name="uni2B9B" unicode="⮛" horiz-adv-x="1529" d="M766-20L23 1268l743-322 743 322zM266 1051l500-867v650z"/><glyph glyph-name="uni2B9C" unicode="⮜" horiz-adv-x="1349" d="M1260 31L80 713l1180 680-295-680z"/><glyph glyph-name="uni2B9D" unicode="⮝" horiz-adv-x="1413" d="M27 31l680 1179L1389 31 707 326z"/><glyph glyph-name="uni2B9E" unicode="⮞" horiz-adv-x="1349" d="M90 31l295 682-295 680 1180-680z"/><glyph glyph-name="uni2B9F" unicode="⮟" horiz-adv-x="1415" d="M707 31L27 1210l680-295 682 295z"/><glyph glyph-name="uni3000" horiz-adv-x="2048"/><glyph glyph-name="uni004A0301" horiz-adv-x="1167" d="M539-20q-248 0-362 137.5T63 520v107h127V516q0-123 24-208.5t71.5-133 108.5-68T539 86q81 0 141.5 19.5T790 171t74 130 25 205v1165h127V512q0-259-114.5-395.5T539-20zm41 1908l727 152 20-80-727-150z"/><glyph glyph-name="I.bracket" horiz-adv-x="530" d="M203 0v1671h125V0H203z"/><glyph glyph-name="A.ss01" horiz-adv-x="1351" d="M47 0l553 1671h152L1305 0h-134l-120 375H301L180 0H47zm289 483h680L680 1530l-6 14-4-14z"/><glyph glyph-name="Aacute.ss01" horiz-adv-x="1351" d="M47 0l553 1671h152L1305 0h-134l-120 375H301L180 0H47zm176 1872l883 151 20-79-882-152zM336 483h680L680 1530l-6 14-4-14z"/><glyph glyph-name="Abreve.ss01" horiz-adv-x="1351" d="M47 0l553 1671h152L1305 0h-134l-120 375H301L180 0H47zm213 2030h102q0-150 316-150 145 0 227 33.5t82 116.5h103q0-67-29.5-114t-86.5-73-128.5-37.5T678 1794t-168.5 11.5T379 1843t-88.5 73-30.5 114zm76-1547h680L680 1530l-6 14-4-14z"/><glyph glyph-name="Acircumflex.ss01" horiz-adv-x="1351" d="M47 0l553 1671h152L1305 0h-134l-120 375H301L180 0H47zm223 1769l336 254h144l329-254H915l-237 189-242-189H270zm66-1286h680L680 1530l-6 14-4-14z"/><glyph glyph-name="Adieresis.ss01" horiz-adv-x="1351" d="M47 0l553 1671h152L1305 0h-134l-120 375H301L180 0H47zm266 1911q0 39 24 62.5t60 23.5q34 0 59-24t25-62q0-36-25.5-60t-58.5-24q-36 0-60 24t-24 60zm23-1428h680L680 1530l-6 14-4-14zm532 1428q0 39 24.5 62.5T952 1997t60.5-24 25.5-62q0-36-25.5-60t-60.5-24q-34 0-59 24t-25 60z"/><glyph glyph-name="Agrave.ss01" horiz-adv-x="1351" d="M47 0l553 1671h152L1305 0h-134l-120 375H301L180 0H47zm176 1944l21 79 882-151-20-80zM336 483h680L680 1530l-6 14-4-14z"/><glyph glyph-name="Amacron.ss01" horiz-adv-x="1351" d="M47 0l553 1671h152L1305 0h-134l-120 375H301L180 0H47zm176 1868v82h903v-82H223zM336 483h680L680 1530l-6 14-4-14z"/><glyph glyph-name="Aogonek.ss01" horiz-adv-x="1351" d="M47 0l553 1671h152L1305 0h-2q-107-36-160-84t-53-115q0-66 59-96.5t190-30.5h25l-82-84h-22q-126 0-199.5 46T987-225q0 47 19 84.5t54.5 64T1134-33t89 33h-52l-120 375H301L180 0H47zm289 483h680L680 1530l-6 14-4-14z"/><glyph glyph-name="Aring.ss01" horiz-adv-x="1351" d="M47 0l553 1671h152L1305 0h-134l-120 375H301L180 0H47zm289 483h680L680 1530l-6 14-4-14zm174 1446q0 71 49.5 118.5T676 2095t116.5-47.5T842 1929t-49.5-118.5T676 1763t-116.5 47.5T510 1929zm76 0q0-40 24.5-65t65.5-25 65.5 25 24.5 65-24.5 65-65.5 25-65.5-25-24.5-65z"/><glyph glyph-name="Atilde.ss01" horiz-adv-x="1351" d="M47 0l553 1671h152L1305 0h-134l-120 375H301L180 0H47zm219 1806q0 107 61 165.5t167 58.5q54 0 96.5-16t70-38.5 53.5-45 60-38.5 76-16q65 0 98 35.5t33 99.5h102q0-111-61.5-167T850 1788q-57 0-101.5 16t-72.5 38.5-53.5 45-57 38.5-69.5 16q-63 0-95-37t-32-99H266zm70-1323h680L680 1530l-6 14-4-14z"/><glyph glyph-name="B.ss01" horiz-adv-x="1433" d="M164 0v1671h665q109 0 186.5-18t137.5-62 89.5-122.5T1272 1274v-49q0-141-57.5-219T1055 891q125-32 202.5-131t77.5-273v-51q0-226-122.5-331T848 0H164zm123 109h549q196 0 283 75t87 258v54q0 180-94.5 252.5T825 821H287V109zm0 823h501q176 0 265.5 69t89.5 226v51q0 56-9 100t-23.5 74-40 51-51 32.5-64.5 18-72 8-82 1.5H287V932z"/><glyph glyph-name="C.ss01" horiz-adv-x="1501" d="M764-20q-161 0-288 52.5T270 177 150 389.5 109 651v373q0 111 25.5 210t79 183 130 145 184.5 95.5 238 34.5q148 0 267-42.5t197-117.5 121-176 48-221l2-148h-131l-2 150q-9 215-140 328.5T768 1579q-257 0-392.5-147.5T240 1028V647q0-262 134.5-408.5T766 92q233 0 363 114.5T1268 535l2 149h131l-2-145q-5-119-48-220t-120.5-177T1033 23 764-20z"/><glyph glyph-name="Cacute.ss01" horiz-adv-x="1501" d="M764-20q-161 0-288 52.5T270 177 150 389.5 109 651v373q0 111 25.5 210t79 183 130 145 184.5 95.5 238 34.5q148 0 267-42.5t197-117.5 121-176 48-221l2-148h-131l-2 150q-9 215-140 328.5T768 1579q-257 0-392.5-147.5T240 1028V647q0-262 134.5-408.5T766 92q233 0 363 114.5T1268 535l2 149h131l-2-145q-5-119-48-220t-120.5-177T1033 23 764-20zM303 1872l883 151 20-79-882-152z"/><glyph glyph-name="Ccaron.ss01" horiz-adv-x="1501" d="M764-20q-161 0-288 52.5T270 177 150 389.5 109 651v373q0 111 25.5 210t79 183 130 145 184.5 95.5 238 34.5q148 0 267-42.5t197-117.5 121-176 48-221l2-148h-131l-2 150q-9 215-140 328.5T768 1579q-257 0-392.5-147.5T240 1028V647q0-262 134.5-408.5T766 92q233 0 363 114.5T1268 535l2 149h131l-2-145q-5-119-48-220t-120.5-177T1033 23 764-20zM350 2048h166l242-188 237 188h164l-330-254H686z"/><glyph glyph-name="Ccedilla.ss01" horiz-adv-x="1503" d="M623-342q147 0 205.5 15.5T887-260q0 52-56.5 62T664-207l45 189Q561-9 445 47T256.5 193.5 146.5 400 109 651v373q0 111 25.5 210t79 183 130 145 184.5 95.5 238 34.5q148 0 267-42.5t197-117.5 121-176 48-221l2-148h-131l-2 150q-9 215-140 328.5T768 1579q-257 0-392.5-147.5T240 1028V647q0-262 134.5-408.5T766 92q233 0 363 114.5T1268 535l2 149h131l-2-145q-5-116-46-215t-115-174.5T1050.5 29 795-20l-29-115q225 32 225-125 0-92-92-128t-278-36z"/><glyph glyph-name="Cdotaccent.ss01" horiz-adv-x="1501" d="M764-20q-161 0-288 52.5T270 177 150 389.5 109 651v373q0 111 25.5 210t79 183 130 145 184.5 95.5 238 34.5q148 0 267-42.5t197-117.5 121-176 48-221l2-148h-131l-2 150q-9 215-140 328.5T768 1579q-257 0-392.5-147.5T240 1028V647q0-262 134.5-408.5T766 92q233 0 363 114.5T1268 535l2 149h131l-2-145q-5-119-48-220t-120.5-177T1033 23 764-20zM657 1878q0 40 28.5 69t70.5 29 70-29 28-69q0-38-28-66t-70-28-70.5 28-28.5 66z"/><glyph glyph-name="D.ss01" horiz-adv-x="1482" d="M164 0v1671h569q117 0 211.5-20.5T1119 1582t134-123.5 84.5-189T1368 1008V664q0-182-45.5-313T1191 144.5t-198.5-110T733 0H164zm123 109h440q274 0 393 129.5T1239 662v348q0 294-119 423.5T727 1563H287V109z"/><glyph glyph-name="Eth.ss01" horiz-adv-x="1607" d="M291 0v809H39v86h252v776h569q117 0 211.5-20.5T1246 1582t134-123.5 84.5-189T1495 1008V664q0-182-45.5-313T1318 144.5t-198.5-110T860 0H291zm123 109h440q274 0 393 129.5T1366 662v348q0 294-119 423.5T854 1563H414V895h538v-86H414V109z"/><glyph glyph-name="Dcaron.ss01" horiz-adv-x="1482" d="M164 0v1671h569q117 0 211.5-20.5T1119 1582t134-123.5 84.5-189T1368 1008V664q0-182-45.5-313T1191 144.5t-198.5-110T733 0H164zm123 109h440q274 0 393 129.5T1239 662v348q0 294-119 423.5T727 1563H287V109zm51 1939h166l241-188 238 188h164l-330-254H674z"/><glyph glyph-name="Dcroat.ss01" horiz-adv-x="1607" d="M291 0v809H39v86h252v776h569q117 0 211.5-20.5T1246 1582t134-123.5 84.5-189T1495 1008V664q0-182-45.5-313T1318 144.5t-198.5-110T860 0H291zm123 109h440q274 0 393 129.5T1366 662v348q0 294-119 423.5T854 1563H414V895h538v-86H414V109z"/><glyph glyph-name="E.ss01" horiz-adv-x="1255" d="M164 0v1671h997v-108H287V891h841V780H287V109h874V0H164z"/><glyph glyph-name="Eacute.ss01" horiz-adv-x="1255" d="M164 0v1671h997v-108H287V891h841V780H287V109h874V0H164zm16 1872l883 151 20-79-882-152z"/><glyph glyph-name="Ecaron.ss01" horiz-adv-x="1255" d="M164 0v1671h997v-108H287V891h841V780H287V109h874V0H164zm63 2048h166l242-188 237 188h164l-329-254H563z"/><glyph glyph-name="Ecircumflex.ss01" horiz-adv-x="1255" d="M164 0v1671h997v-108H287V891h841V780H287V109h874V0H164zm63 1769l336 254h144l329-254H872l-237 189-242-189H227z"/><glyph glyph-name="Edieresis.ss01" horiz-adv-x="1255" d="M164 0v1671h997v-108H287V891h841V780H287V109h874V0H164zm106 1911q0 39 24 62.5t60 23.5q34 0 59-24t25-62q0-36-25.5-60t-58.5-24q-36 0-60 24t-24 60zm555 0q0 39 24.5 62.5T909 1997t60.5-24 25.5-62q0-36-25.5-60t-60.5-24q-34 0-59 24t-25 60z"/><glyph glyph-name="Edotaccent.ss01" horiz-adv-x="1255" d="M164 0v1671h997v-108H287V891h841V780H287V109h874V0H164zm371 1878q0 40 28 69t70 29 70-29 28-69q0-38-28-66t-70-28-70 28-28 66z"/><glyph glyph-name="Egrave.ss01" horiz-adv-x="1255" d="M164 0v1671h997v-108H287V891h841V780H287V109h874V0H164zm16 1944l21 79 882-151-20-80z"/><glyph glyph-name="Emacron.ss01" horiz-adv-x="1255" d="M164 0v1671h997v-108H287V891h841V780H287V109h874V0H164zm16 1868v82h903v-82H180z"/><glyph glyph-name="Eogonek.ss01" horiz-adv-x="1255" d="M164 0v1671h997v-108H287V891h841V780H287V109h874V0q-107-36-160-84t-53-115q0-66 59.5-96.5T1198-326h25l-82-84h-23q-126 0-199 46t-73 139q0 89 63.5 140.5T1081 0H164z"/><glyph glyph-name="F.ss01" horiz-adv-x="1214" d="M164 0v1671h1001v-108H287V807h831V698H287V0H164z"/><glyph glyph-name="G.ss01" horiz-adv-x="1529" d="M743-20q-123 0-226 34.5T339.5 110 213 255.5 136 440t-25 211v373q0 139 41 258.5t120 212 206 145 288 52.5q147 0 266.5-44t197-120 121.5-173.5 50-209.5l2-92h-133v96q-11 200-144 315t-358 115q-257 0-392.5-148T240 1028V647q0-260 133-407.5T758 92q234 0 373.5 128.5T1272 582v143H659v106h744V0h-96l-9 301q-73-147-213.5-234T743-20z"/><glyph glyph-name="Gbreve.ss01" horiz-adv-x="1529" d="M743-20q-123 0-226 34.5T339.5 110 213 255.5 136 440t-25 211v373q0 139 41 258.5t120 212 206 145 288 52.5q147 0 266.5-44t197-120 121.5-173.5 50-209.5l2-92h-133v96q-11 200-144 315t-358 115q-257 0-392.5-148T240 1028V647q0-260 133-407.5T758 92q234 0 373.5 128.5T1272 582v143H659v106h744V0h-96l-9 301q-73-147-213.5-234T743-20zM350 2030h103q0-150 315-150 145 0 227 33.5t82 116.5h103q0-67-29.5-114t-86.5-73-128.5-37.5T768 1794t-168.5 11.5T469 1843t-88.5 73-30.5 114z"/><glyph glyph-name="uni0122.ss01" horiz-adv-x="1529" d="M743-20q-123 0-226 34.5T339.5 110 213 255.5 136 440t-25 211v373q0 139 41 258.5t120 212 206 145 288 52.5q147 0 266.5-44t197-120 121.5-173.5 50-209.5l2-92h-133v96q-11 200-144 315t-358 115q-257 0-392.5-148T240 1028V647q0-260 133-407.5T758 92q234 0 373.5 128.5T1272 582v143H659v106h744V0h-96l-9 301q-73-147-213.5-234T743-20zm-73-146q0 38 27 66t71 28q41 0 67.5-27.5T862-186q0-156-166-236v78q51 23 78.5 53t36.5 74q-28-31-61-31-32 0-56 23t-24 59z"/><glyph glyph-name="Gdotaccent.ss01" horiz-adv-x="1529" d="M743-20q-123 0-226 34.5T339.5 110 213 255.5 136 440t-25 211v373q0 139 41 258.5t120 212 206 145 288 52.5q147 0 266.5-44t197-120 121.5-173.5 50-209.5l2-92h-133v96q-11 200-144 315t-358 115q-257 0-392.5-148T240 1028V647q0-260 133-407.5T758 92q234 0 373.5 128.5T1272 582v143H659v106h744V0h-96l-9 301q-73-147-213.5-234T743-20zm-75 1898q0 40 28 69t70 29 70-29 28-69q0-38-28-66t-70-28-70 28-28 66z"/><glyph glyph-name="H.ss01" horiz-adv-x="1482" d="M1196 0v780H287V0H164v1671h123V891h909v780h123V0h-123z"/><glyph glyph-name="Hbar.ss01" horiz-adv-x="1671" d="M1290 0v780H381V0H258v1200H63v92h195v379h123v-379h909v379h123v-379h197v-92h-197V0h-123zM381 891h909v309H381V891z"/><glyph glyph-name="I.ss01" horiz-adv-x="960" d="M90 0v113h328v1446H90v112h782v-112H543V113h329V0H90z"/><glyph glyph-name="Iacute.ss01" horiz-adv-x="960" d="M90 0v113h328v1446H90v112h782v-112H543V113h329V0H90zM29 1872l882 151 21-79-883-152z"/><glyph glyph-name="Icircumflex.ss01" horiz-adv-x="960" d="M90 0v113h328v1446H90v112h782v-112H543V113h329V0H90zM74 1769l336 254h143l330-254H719l-238 189-241-189H74z"/><glyph glyph-name="Idieresis.ss01" horiz-adv-x="960" d="M90 0v113h328v1446H90v112h782v-112H543V113h329V0H90zm29 1911q0 39 24 62.5t60 23.5q34 0 59-24t25-62q0-36-25.5-60t-58.5-24q-36 0-60 24t-24 60zm555 0q0 39 24.5 62.5T758 1997t60.5-24 25.5-62q0-36-25.5-60t-60.5-24q-34 0-59 24t-25 60z"/><glyph glyph-name="Idotaccent.ss01" horiz-adv-x="960" d="M90 0v113h328v1446H90v112h782v-112H543V113h329V0H90zm293 1878q0 40 28 69t70 29 70.5-29 28.5-69q0-38-28.5-66t-70.5-28-70 28-28 66z"/><glyph glyph-name="Igrave.ss01" horiz-adv-x="960" d="M90 0v113h328v1446H90v112h782v-112H543V113h329V0H90zM29 1944l20 79 883-151-21-80z"/><glyph glyph-name="Imacron.ss01" horiz-adv-x="960" d="M90 0v113h328v1446H90v112h782v-112H543V113h329V0H90zM29 1868v82h903v-82H29z"/><glyph glyph-name="Iogonek.ss01" horiz-adv-x="960" d="M90 0v113h328v1446H90v112h782v-112H543V113h329V0Q765-36 712-84t-53-115q0-66 59.5-96.5T909-326h25l-82-84h-23q-126 0-199 46t-73 139q0 47 19 84.5t54.5 64T704-33t89 33H90z"/><glyph glyph-name="J.ss01" horiz-adv-x="1312" d="M612-20q-285 0-414.5 151.5T68 582v86h127v-88q0-139 27.5-235T306 193.5 436 114t176-24q99 0 172.5 22.5T916 187t88 147 30 231v1106h127V569q0-289-132-439T612-20z"/><glyph glyph-name="K.ss01" horiz-adv-x="1355" d="M1176 0L430 778H287V0H164v1671h123V893h143l746 778h163L530 836 1339 0h-163z"/><glyph glyph-name="uni0136.ss01" horiz-adv-x="1355" d="M1176 0L430 778H287V0H164v1671h123V893h143l746 778h163L530 836 1339 0h-163zM618-166q0 38 27.5 66T717-72q41 0 67.5-27.5T811-186q0-156-166-236v78q51 23 78.5 53t36.5 74q-28-31-62-31-32 0-56 23t-24 59z"/><glyph glyph-name="L.ss01" horiz-adv-x="1191" d="M164 0v1671h123V109h864V0H164z"/><glyph glyph-name="Lacute.ss01" horiz-adv-x="1191" d="M164 0v1671h123V109h864V0H164zm29 1872l882 151 21-79-883-152z"/><glyph glyph-name="Lcaron.ss01" horiz-adv-x="1212" d="M164 0v1671h123V109h864V0H164zm475 1184l72 487h104l-94-487h-82z"/><glyph glyph-name="uni013B.ss01" horiz-adv-x="1191" d="M164 0v1671h123V109h864V0H164zm362-166q0 38 27.5 66T625-72q41 0 67.5-27.5T719-186q0-156-166-236v78q51 23 78.5 53t36.5 74q-28-31-62-31-32 0-56 23t-24 59z"/><glyph glyph-name="Lslash.ss01" horiz-adv-x="1310" d="M283 0v698L55 610v105l228 88v868h123V852l446 174V922L406 748V109h864V0H283z"/><glyph glyph-name="M.ss01" horiz-adv-x="1763" d="M164 0v1671h147L883 184l569 1487h147V0h-118v1417L938 0H827L283 1417V0H164z"/><glyph glyph-name="N.ss01" horiz-adv-x="1523" d="M164 0v1671h123l954-1444v1444h119V0h-123L283 1444V0H164z"/><glyph glyph-name="Nacute.ss01" horiz-adv-x="1523" d="M164 0v1671h123l954-1444v1444h119V0h-123L283 1444V0H164zm145 1872l883 151 20-79-882-152z"/><glyph glyph-name="Ncaron.ss01" horiz-adv-x="1523" d="M164 0v1671h123l954-1444v1444h119V0h-123L283 1444V0H164zm192 2048h166l242-188 237 188h164l-329-254H692z"/><glyph glyph-name="uni0145.ss01" horiz-adv-x="1523" d="M164 0v1671h123l954-1444v1444h119V0h-123L283 1444V0H164zm502-166q0 38 27 66t71 28q41 0 67.5-27.5T858-186q0-156-166-236v78q51 23 78.5 53t36.5 74q-28-31-62-31-32 0-55.5 23T666-166z"/><glyph glyph-name="Ntilde.ss01" horiz-adv-x="1523" d="M164 0v1671h123l954-1444v1444h119V0h-123L283 1444V0H164zm188 1806q0 107 61 165.5t167 58.5q54 0 96.5-16t70-38.5 53.5-45 60-38.5 76-16q65 0 98 35.5t33 99.5h102q0-111-61.5-167T936 1788q-57 0-101.5 16t-72.5 38.5-53.5 45-57 38.5-69.5 16q-63 0-95-37t-32-99H352z"/><glyph glyph-name="O.ss01" horiz-adv-x="1538" d="M768-20q-131 0-239.5 35T343 111.5t-130 146-78.5 183T109 649v375q0 137 41 256t120.5 212T478 1638.5t290 53.5q131 0 240.5-35t186.5-97 130.5-146.5 79-182.5 25.5-207V649q0-110-25.5-208.5t-79-183-130.5-146T1008.5 15 768-20zM240 647q0-257 137.5-405T768 94q254 0 392 148t138 405v379q0 255-138 403t-392 148q-253 0-390.5-148T240 1026V647z"/><glyph glyph-name="Oacute.ss01" horiz-adv-x="1538" d="M768-20q-131 0-239.5 35T343 111.5t-130 146-78.5 183T109 649v375q0 137 41 256t120.5 212T478 1638.5t290 53.5q131 0 240.5-35t186.5-97 130.5-146.5 79-182.5 25.5-207V649q0-110-25.5-208.5t-79-183-130.5-146T1008.5 15 768-20zM240 647q0-257 137.5-405T768 94q254 0 392 148t138 405v379q0 255-138 403t-392 148q-253 0-390.5-148T240 1026V647zm75 1225l883 151 21-79-883-152z"/><glyph glyph-name="Ocircumflex.ss01" horiz-adv-x="1538" d="M768-20q-131 0-239.5 35T343 111.5t-130 146-78.5 183T109 649v375q0 137 41 256t120.5 212T478 1638.5t290 53.5q131 0 240.5-35t186.5-97 130.5-146.5 79-182.5 25.5-207V649q0-110-25.5-208.5t-79-183-130.5-146T1008.5 15 768-20zM240 647q0-257 137.5-405T768 94q254 0 392 148t138 405v379q0 255-138 403t-392 148q-253 0-390.5-148T240 1026V647zm122 1122l336 254h144l329-254h-163l-238 189-242-189H362z"/><glyph glyph-name="Odieresis.ss01" horiz-adv-x="1538" d="M768-20q-131 0-239.5 35T343 111.5t-130 146-78.5 183T109 649v375q0 137 41 256t120.5 212T478 1638.5t290 53.5q131 0 240.5-35t186.5-97 130.5-146.5 79-182.5 25.5-207V649q0-110-25.5-208.5t-79-183-130.5-146T1008.5 15 768-20zM240 647q0-257 137.5-405T768 94q254 0 392 148t138 405v379q0 255-138 403t-392 148q-253 0-390.5-148T240 1026V647zm166 1264q0 39 23.5 62.5T489 1997q34 0 59-24t25-62q0-36-25.5-60t-58.5-24q-35 0-59 23.5t-24 60.5zm555 0q0 39 24 62.5t59 23.5 60.5-24 25.5-62q0-36-25.5-60t-60.5-24q-34 0-58.5 24t-24.5 60z"/><glyph glyph-name="Ograve.ss01" horiz-adv-x="1538" d="M768-20q-131 0-239.5 35T343 111.5t-130 146-78.5 183T109 649v375q0 137 41 256t120.5 212T478 1638.5t290 53.5q131 0 240.5-35t186.5-97 130.5-146.5 79-182.5 25.5-207V649q0-110-25.5-208.5t-79-183-130.5-146T1008.5 15 768-20zM240 647q0-257 137.5-405T768 94q254 0 392 148t138 405v379q0 255-138 403t-392 148q-253 0-390.5-148T240 1026V647zm75 1297l21 79 883-151-21-80z"/><glyph glyph-name="Ohungarumlaut.ss01" horiz-adv-x="1538" d="M768-20q-131 0-239.5 35T343 111.5t-130 146-78.5 183T109 649v375q0 137 41 256t120.5 212T478 1638.5t290 53.5q131 0 240.5-35t186.5-97 130.5-146.5 79-182.5 25.5-207V649q0-110-25.5-208.5t-79-183-130.5-146T1008.5 15 768-20zM240 647q0-257 137.5-405T768 94q254 0 392 148t138 405v379q0 255-138 403t-392 148q-253 0-390.5-148T240 1026V647zm352 1147l237 229h113l-217-229H592zm237 0l238 229h113l-215-229H829z"/><glyph glyph-name="Omacron.ss01" horiz-adv-x="1538" d="M768-20q-131 0-239.5 35T343 111.5t-130 146-78.5 183T109 649v375q0 137 41 256t120.5 212T478 1638.5t290 53.5q131 0 240.5-35t186.5-97 130.5-146.5 79-182.5 25.5-207V649q0-110-25.5-208.5t-79-183-130.5-146T1008.5 15 768-20zM240 647q0-257 137.5-405T768 94q254 0 392 148t138 405v379q0 255-138 403t-392 148q-253 0-390.5-148T240 1026V647zm75 1221v82h904v-82H315z"/><glyph glyph-name="Oslash.ss01" horiz-adv-x="1538" d="M176 4l105 164q-85 91-128.5 215T109 649v375q0 137 41 256t120.5 212T478 1638.5t290 53.5q250 0 412-121l63 98h119l-107-166q86-91 130.5-215t44.5-264V649q0-110-25.5-208.5t-79-183-130.5-146T1008.5 15 768-20q-248 0-412 120L295 4H176zm64 643q0-233 110-373l766 1196q-138 107-348 107-253 0-390.5-148T240 1026V647zm182-446Q557 94 768 94q254 0 392 148t138 405v379q0 231-110 371z"/><glyph glyph-name="Otilde.ss01" horiz-adv-x="1538" d="M768-20q-131 0-239.5 35T343 111.5t-130 146-78.5 183T109 649v375q0 137 41 256t120.5 212T478 1638.5t290 53.5q131 0 240.5-35t186.5-97 130.5-146.5 79-182.5 25.5-207V649q0-110-25.5-208.5t-79-183-130.5-146T1008.5 15 768-20zM240 647q0-257 137.5-405T768 94q254 0 392 148t138 405v379q0 255-138 403t-392 148q-253 0-390.5-148T240 1026V647zm118 1159q0 107 61 165.5t167 58.5q54 0 96.5-16t70-38.5 53.5-45 60-38.5 76-16q65 0 98 35.5t33 99.5h103q0-111-62-167t-172-56q-57 0-101.5 16t-72.5 38.5-53.5 45-57 38.5-69.5 16q-63 0-95-37t-32-99H358z"/><glyph glyph-name="P.ss01" horiz-adv-x="1419" d="M164 0v1671h661q518 0 518-520v-43q0-261-129-395.5T825 578H287V0H164zm123 684h528q205 0 302 101.5t97 316.5v53q0 214-96 311t-303 97H287V684z"/><glyph glyph-name="Q.ss01" horiz-adv-x="1538" d="M1239-268q-185 96-327.5 134.5T580-94V0Q351 54 230 231T109 649v375q0 137 41 256t120.5 212T478 1638.5t290 53.5q131 0 240.5-35t186.5-97 130.5-146.5 79-182.5 25.5-207V649q0-130-36-243t-106-203.5-182.5-148T850-16q216-31 389-127v-125zM240 647q0-257 137.5-405T768 94q254 0 392 148t138 405v379q0 255-138 403t-392 148q-253 0-390.5-148T240 1026V647z"/><glyph glyph-name="R.ss01" horiz-adv-x="1449" d="M1221 0q-25 27-25 150v262q0 84-25 146t-61.5 96-92 54-103 25.5T807 739H287V0H164v1671h645q272 0 395-103t123-339v-31q0-165-64.5-261.5T1059 797q129-39 196.5-134t67.5-243V150q0-123 25-150h-127zM287 848h522q109 0 185 23t120.5 69 64 107 19.5 145v39q0 84-18 143t-49.5 96-85.5 57.5-114.5 28T784 1563H287V848z"/><glyph glyph-name="Racute.ss01" horiz-adv-x="1449" d="M1221 0q-25 27-25 150v262q0 84-25 146t-61.5 96-92 54-103 25.5T807 739H287V0H164v1671h645q272 0 395-103t123-339v-31q0-165-64.5-261.5T1059 797q129-39 196.5-134t67.5-243V150q0-123 25-150h-127zM283 1872l882 151 21-79-883-152zm4-1024h522q109 0 185 23t120.5 69 64 107 19.5 145v39q0 84-18 143t-49.5 96-85.5 57.5-114.5 28T784 1563H287V848z"/><glyph glyph-name="Rcaron.ss01" horiz-adv-x="1449" d="M1221 0q-25 27-25 150v262q0 84-25 146t-61.5 96-92 54-103 25.5T807 739H287V0H164v1671h645q272 0 395-103t123-339v-31q0-165-64.5-261.5T1059 797q129-39 196.5-134t67.5-243V150q0-123 25-150h-127zM287 848h522q109 0 185 23t120.5 69 64 107 19.5 145v39q0 84-18 143t-49.5 96-85.5 57.5-114.5 28T784 1563H287V848zm43 1200h166l241-188 238 188h164l-330-254H666z"/><glyph glyph-name="uni0156.ss01" horiz-adv-x="1449" d="M1221 0q-25 27-25 150v262q0 84-25 146t-61.5 96-92 54-103 25.5T807 739H287V0H164v1671h645q272 0 395-103t123-339v-31q0-165-64.5-261.5T1059 797q129-39 196.5-134t67.5-243V150q0-123 25-150h-127zM287 848h522q109 0 185 23t120.5 69 64 107 19.5 145v39q0 84-18 143t-49.5 96-85.5 57.5-114.5 28T784 1563H287V848zM639-166q0 38 27 66t71 28q41 0 67.5-27.5T831-186q0-157-165-236v78q51 23 78 53t36 74q-28-31-61-31-32 0-56 23t-24 59z"/><glyph glyph-name="S.ss01" horiz-adv-x="1351" d="M707-20q-311 0-469 135.5T80 516v90h129v-94q0-218 124-319T711 92q216 0 316.5 77.5T1128 418v4q0 63-16 112.5t-40.5 83.5-67 62.5-83 46.5T821 766L508 872q-65 24-112.5 46t-100 57.5-85 76-54 99T135 1280q0 194 141 303t396 109q274 0 417.5-126.5T1233 1198v-61h-129v63q0 196-108 287.5T670 1579q-406 0-406-295v-4q0-63 24-113t70-85.5 91.5-58.5T559 977l324-109q47-18 79.5-31.5t75.5-37 71.5-46.5 59.5-57.5 49-73.5 30-91.5 12-114.5q0-214-137.5-325T707-20z"/><glyph glyph-name="Sacute.ss01" horiz-adv-x="1351" d="M707-20q-311 0-469 135.5T80 516v90h129v-94q0-218 124-319T711 92q216 0 316.5 77.5T1128 418v4q0 63-16 112.5t-40.5 83.5-67 62.5-83 46.5T821 766L508 872q-65 24-112.5 46t-100 57.5-85 76-54 99T135 1280q0 194 141 303t396 109q274 0 417.5-126.5T1233 1198v-61h-129v63q0 196-108 287.5T670 1579q-406 0-406-295v-4q0-63 24-113t70-85.5 91.5-58.5T559 977l324-109q47-18 79.5-31.5t75.5-37 71.5-46.5 59.5-57.5 49-73.5 30-91.5 12-114.5q0-214-137.5-325T707-20zM221 1872l883 151 20-79-882-152z"/><glyph glyph-name="Scaron.ss01" horiz-adv-x="1351" d="M707-20q-311 0-469 135.5T80 516v90h129v-94q0-218 124-319T711 92q216 0 316.5 77.5T1128 418v4q0 63-16 112.5t-40.5 83.5-67 62.5-83 46.5T821 766L508 872q-65 24-112.5 46t-100 57.5-85 76-54 99T135 1280q0 194 141 303t396 109q274 0 417.5-126.5T1233 1198v-61h-129v63q0 196-108 287.5T670 1579q-406 0-406-295v-4q0-63 24-113t70-85.5 91.5-58.5T559 977l324-109q47-18 79.5-31.5t75.5-37 71.5-46.5 59.5-57.5 49-73.5 30-91.5 12-114.5q0-214-137.5-325T707-20zM268 2048h166l242-188 237 188h164l-329-254H604z"/><glyph glyph-name="Scedilla.ss01" horiz-adv-x="1351" d="M541-342q147 0 205.5 15.5T805-260q0 52-56.5 62T582-207l45 189Q356-1 218 133.5T80 516v90h129v-94q0-218 124-319T711 92q216 0 316.5 77.5T1128 418v4q0 63-16 112.5t-40.5 83.5-67 62.5-83 46.5T821 766L508 872q-65 24-112.5 46t-100 57.5-85 76-54 99T135 1280q0 194 141 303t396 109q274 0 417.5-126.5T1233 1198v-61h-129v63q0 196-108 287.5T670 1579q-406 0-406-295v-4q0-63 24-113t70-85.5 91.5-58.5T559 977l324-109q47-18 79.5-31.5t75.5-37 71.5-46.5 59.5-57.5 49-73.5 30-91.5 12-114.5q0-212-136-323.5T713-20l-29-115q225 32 225-125 0-92-92-128t-278-36z"/><glyph glyph-name="uni0218.ss01" horiz-adv-x="1351" d="M707-20q-311 0-469 135.5T80 516v90h129v-94q0-218 124-319T711 92q216 0 316.5 77.5T1128 418v4q0 63-16 112.5t-40.5 83.5-67 62.5-83 46.5T821 766L508 872q-65 24-112.5 46t-100 57.5-85 76-54 99T135 1280q0 194 141 303t396 109q274 0 417.5-126.5T1233 1198v-61h-129v63q0 196-108 287.5T670 1579q-406 0-406-295v-4q0-63 24-113t70-85.5 91.5-58.5T559 977l324-109q47-18 79.5-31.5t75.5-37 71.5-46.5 59.5-57.5 49-73.5 30-91.5 12-114.5q0-214-137.5-325T707-20zM578-166q0 38 27 66t71 28q41 0 67.5-27.5T770-186q0-156-166-236v78q51 23 78.5 53t36.5 74q-28-31-62-31-32 0-55.5 23T578-166z"/><glyph glyph-name="uni1E9E.ss01" horiz-adv-x="1341" d="M158 1284q0 206 118 296.5t379 90.5h578q-29-146-51.5-239.5t-49.5-172-58.5-124-71.5-76-95-47.5q162-35 240-140.5t78-310.5v-90q0-257-127.5-364T707 0H412v102h274q111-1 185.5 15t129 56.5 79 112T1104 465v92q0 52-3.5 91t-15 82.5-31 75T1001 867t-81 48.5T805.5 945 653 956H412v103h237q70 0 123.5 10t93.5 24 71.5 49 53 66 43 95 35.5 115.5 37 146.5H655q-204 0-291.5-62.5T276 1290V0H158v1284z"/><glyph glyph-name="T.ss01" horiz-adv-x="1259" d="M567 0v1563H45v108h1169v-108H692V0H567z"/><glyph glyph-name="Tbar.ss01" horiz-adv-x="1280" d="M578 0v793H180v86h398v684H55v108h1170v-108H702V879h396v-86H702V0H578z"/><glyph glyph-name="Tcaron.ss01" horiz-adv-x="1259" d="M567 0v1563H45v108h1169v-108H692V0H567zM223 2048h166l242-188 237 188h164l-330-254H559z"/><glyph glyph-name="uni0162.ss01" horiz-adv-x="1259" d="M567 0v1563H45v108h1169v-108H692V0h-18l-35-135q225 32 225-125 0-92-92-128t-278-36l2 82q147 0 205.5 15.5T760-260q0 52-56.5 62T537-207L586 0h-19z"/><glyph glyph-name="uni021A.ss01" horiz-adv-x="1259" d="M567 0v1563H45v108h1169v-108H692V0H567zm-35-166q0 38 27.5 66T631-72q41 0 67.5-27.5T725-186q0-156-166-236v78q51 23 78.5 53t36.5 74q-28-31-62-31-32 0-56 23t-24 59z"/><glyph glyph-name="U.ss01" horiz-adv-x="1478" d="M739-20q-318 0-451.5 140T154 569v1102h125V565q0-117 21-201.5t57.5-137 96-83.5T580 101t159-11 159 11 126.5 42 96.5 83.5 58 137 21 201.5v1106h127V569q0-312-136.5-450.5T739-20z"/><glyph glyph-name="Uacute.ss01" horiz-adv-x="1478" d="M739-20q-318 0-451.5 140T154 569v1102h125V565q0-117 21-201.5t57.5-137 96-83.5T580 101t159-11 159 11 126.5 42 96.5 83.5 58 137 21 201.5v1106h127V569q0-312-136.5-450.5T739-20zM287 1872l882 151 21-79-883-152z"/><glyph glyph-name="Ucircumflex.ss01" horiz-adv-x="1478" d="M739-20q-318 0-451.5 140T154 569v1102h125V565q0-117 21-201.5t57.5-137 96-83.5T580 101t159-11 159 11 126.5 42 96.5 83.5 58 137 21 201.5v1106h127V569q0-312-136.5-450.5T739-20zM334 1769l336 254h143l330-254H979l-238 189-241-189H334z"/><glyph glyph-name="Udieresis.ss01" horiz-adv-x="1478" d="M739-20q-318 0-451.5 140T154 569v1102h125V565q0-117 21-201.5t57.5-137 96-83.5T580 101t159-11 159 11 126.5 42 96.5 83.5 58 137 21 201.5v1106h127V569q0-312-136.5-450.5T739-20zM377 1911q0 39 24 62.5t60 23.5q34 0 59-24t25-62q0-36-25.5-60t-58.5-24q-36 0-60 24t-24 60zm555 0q0 39 24.5 62.5t59.5 23.5 60.5-24 25.5-62q0-36-25.5-60t-60.5-24q-34 0-59 24t-25 60z"/><glyph glyph-name="Ugrave.ss01" horiz-adv-x="1478" d="M739-20q-318 0-451.5 140T154 569v1102h125V565q0-117 21-201.5t57.5-137 96-83.5T580 101t159-11 159 11 126.5 42 96.5 83.5 58 137 21 201.5v1106h127V569q0-312-136.5-450.5T739-20zM287 1944l20 79 883-151-21-80z"/><glyph glyph-name="Uhungarumlaut.ss01" horiz-adv-x="1478" d="M739-20q-318 0-451.5 140T154 569v1102h125V565q0-117 21-201.5t57.5-137 96-83.5T580 101t159-11 159 11 126.5 42 96.5 83.5 58 137 21 201.5v1106h127V569q0-312-136.5-450.5T739-20zM563 1794l238 229h112l-217-229H563zm238 0l237 229h113l-215-229H801z"/><glyph glyph-name="Umacron.ss01" horiz-adv-x="1478" d="M739-20q-318 0-451.5 140T154 569v1102h125V565q0-117 21-201.5t57.5-137 96-83.5T580 101t159-11 159 11 126.5 42 96.5 83.5 58 137 21 201.5v1106h127V569q0-312-136.5-450.5T739-20zM287 1868v82h903v-82H287z"/><glyph glyph-name="Uogonek.ss01" horiz-adv-x="1478" d="M739-20q-318 0-451.5 140T154 569v1102h125V565q0-117 21-201.5t57.5-137 96-83.5T580 101t159-11 159 11 126.5 42 96.5 83.5 58 137 21 201.5v1106h127V569q0-256-90.5-394T944-2Q841-38 790-85.5T739-199t59.5-96.5T989-326h25l-82-84h-23q-126 0-199 46t-73 139q0 140 182 207-27-2-80-2z"/><glyph glyph-name="Uring.ss01" horiz-adv-x="1478" d="M739-20q-318 0-451.5 140T154 569v1102h125V565q0-117 21-201.5t57.5-137 96-83.5T580 101t159-11 159 11 126.5 42 96.5 83.5 58 137 21 201.5v1106h127V569q0-312-136.5-450.5T739-20zM573 1929q0 71 49.5 118.5T739 2095t116.5-47.5T905 1929t-49.5-118.5T739 1763t-116.5 47.5T573 1929zm76 0q0-40 24.5-65t65.5-25 65.5 25 24.5 65-24.5 65-65.5 25-65.5-25-24.5-65z"/><glyph glyph-name="V.ss01" horiz-adv-x="1353" d="M602 0L49 1671h131L672 150l6-17 4 14 489 1524h134L754 0H602z"/><glyph glyph-name="W.ss01" horiz-adv-x="2140" d="M510 0L55 1671h129L586 162l405 1509h158l403-1503 4-10 3 10 397 1503h129L1630 0h-149l-408 1499-4 17-4-17L659 0H510z"/><glyph glyph-name="Wacute.ss01" horiz-adv-x="2140" d="M510 0L55 1671h129L586 162l405 1509h158l403-1503 4-10 3 10 397 1503h129L1630 0h-149l-408 1499-4 17-4-17L659 0H510zm108 1872l883 151 21-79-883-152z"/><glyph glyph-name="Wcircumflex.ss01" horiz-adv-x="2140" d="M510 0L55 1671h129L586 162l405 1509h158l403-1503 4-10 3 10 397 1503h129L1630 0h-149l-408 1499-4 17-4-17L659 0H510zm154 1769l335 254h144l330-254h-164l-238 189-242-189H664z"/><glyph glyph-name="Wdieresis.ss01" horiz-adv-x="2140" d="M510 0L55 1671h129L586 162l405 1509h158l403-1503 4-10 3 10 397 1503h129L1630 0h-149l-408 1499-4 17-4-17L659 0H510zm199 1911q0 39 24 62.5t60 23.5q34 0 59-24t25-62q0-36-25.5-60t-58.5-24q-36 0-60 24t-24 60zm555 0q0 39 24.5 62.5t59.5 23.5 60.5-24 25.5-62q0-36-25.5-60t-60.5-24q-34 0-59 24t-25 60z"/><glyph glyph-name="Wgrave.ss01" horiz-adv-x="2140" d="M510 0L55 1671h129L586 162l405 1509h158l403-1503 4-10 3 10 397 1503h129L1630 0h-149l-408 1499-4 17-4-17L659 0H510zm108 1944l21 79 883-151-21-80z"/><glyph glyph-name="X.ss01" horiz-adv-x="1347" d="M25 0l581 850-569 821h145l494-717 493 717h148L743 850 1319 0h-148L672 745 172 0H25z"/><glyph glyph-name="Y.ss01" horiz-adv-x="1402" d="M639 0v590L47 1671h141l514-946 512 946h142L764 590V0H639z"/><glyph glyph-name="Yacute.ss01" horiz-adv-x="1402" d="M639 0v590L47 1671h141l514-946 512 946h142L764 590V0H639zM250 1872l883 151 20-79-883-152z"/><glyph glyph-name="Ycircumflex.ss01" horiz-adv-x="1402" d="M639 0v590L47 1671h141l514-946 512 946h142L764 590V0H639zM297 1769l336 254h143l330-254H942l-237 189-242-189H297z"/><glyph glyph-name="Ydieresis.ss01" horiz-adv-x="1402" d="M639 0v590L47 1671h141l514-946 512 946h142L764 590V0H639zM340 1911q0 39 24 62.5t60 23.5q34 0 59-24t25-62q0-36-25.5-60t-58.5-24q-36 0-60 24t-24 60zm555 0q0 39 24.5 62.5T979 1997t60.5-24 25.5-62q0-36-25.5-60t-60.5-24q-34 0-59 24t-25 60z"/><glyph glyph-name="Ygrave.ss01" horiz-adv-x="1402" d="M639 0v590L47 1671h141l514-946 512 946h142L764 590V0H639zM250 1944l20 79 883-151-20-80z"/><glyph glyph-name="Z.ss01" horiz-adv-x="1236" d="M66 0v106l962 1459H66v106h1105v-106L209 106h962V0H66z"/><glyph glyph-name="Zacute.ss01" horiz-adv-x="1236" d="M66 0v106l962 1459H66v106h1105v-106L209 106h962V0H66zm100 1872l883 151 20-79-883-152z"/><glyph glyph-name="Zcaron.ss01" horiz-adv-x="1236" d="M66 0v106l962 1459H66v106h1105v-106L209 106h962V0H66zm147 2048h166l242-188 237 188h164l-330-254H549z"/><glyph glyph-name="Zdotaccent.ss01" horiz-adv-x="1236" d="M66 0v106l962 1459H66v106h1105v-106L209 106h962V0H66zm454 1878q0 40 28 69t70 29 70.5-29 28.5-69q0-38-28.5-66t-70.5-28-70 28-28 66z"/><glyph glyph-name="W.ss02" horiz-adv-x="1540" d="M123 0v1671h119V272l501 1399h142V279l504 1392h122L907 0H766v1399L264 0H123z"/><glyph glyph-name="W.ss03" horiz-adv-x="3092" d="M365 0H203v1671h119V139l1267 1532h158V141l1233 1530h153L1788 0h-162v1526z"/><glyph glyph-name="i.loclTRK" horiz-adv-x="423" d="M152 1331h120V0H152v1331zm-39 262q0 42 28 70.5t72 28.5q43 0 70.5-28.5T311 1593q0-38-27.5-66t-70.5-28-71.5 28-28.5 66z"/><glyph glyph-name="uni006A0301" horiz-adv-x="423" d="M152-23v1354h120V-43q0-113-16-185.5T199-351 89-421.5-88-442h-127v102h121q54 0 91.5 6t66 21.5 45 37.5 26.5 60 13.5 82T152-23zM-49 1528l489 155 29-75-489-154z"/><glyph glyph-name="w.ss02" horiz-adv-x="1718" d="M152 0v1331h118V197l590 1134h141V197l590 1134h123L1024 0H883v1139L293 0H152z"/><glyph glyph-name="zero.ss01" horiz-adv-x="1409" d="M711-20q-300 0-448 177.5T115 659v359q0 320 149 497t447 177q194 0 326-83t194.5-232 62.5-359V659q0-323-146.5-501T711-20zM240 655q0-236 77-372l717 1185q-113 119-323 119-234 0-352.5-139T240 1020V655zm147-460Q502 86 711 86q458 0 458 569v365q0 221-69 356z"/><glyph glyph-name="one.ss01" horiz-adv-x="1042" d="M80 104h412v1422q-67-93-178.5-142T74 1335v111q133 0 229.5 54.5T481 1671h131V104h412V0H80v104z"/><glyph glyph-name="two.ss01" horiz-adv-x="1345" d="M96 106q0 70 4 124t16.5 114T151 451t58.5 95.5 87.5 87 124 75T586 774l196 96q65 22 112.5 43t93.5 53 74.5 70.5 46 92.5 17.5 120v4q0 180-110.5 257T696 1587q-238 0-347-97t-109-329v-43H115v41q0 270 141 401.5T694 1692q269 0 413-111t144-334q0-83-22.5-152.5T1169 976t-92-89.5T964.5 820 836 772l-197-96q-90-26-155.5-55T371 554t-76.5-79.5T248 374t-23-121-6-149h1032V0H96v106z"/><glyph glyph-name="three.ss01" horiz-adv-x="1341" d="M662-20q-293 0-434.5 121T84 467v47h125v-49q0-205 111.5-292T662 86q222 0 333 82t111 258v45q0 338-430 338H451v102h225q418 0 418 303v35q0 338-426 338-76 0-136.5-9t-118-34-96-65-61.5-105.5-23-152.5v-43H109v41q3 473 561 473 274 0 411.5-115t137.5-328v-30q0-132-77-230T932 862q148-39 223.5-141t75.5-254v-39q0-211-143-329.5T662-20z"/><glyph glyph-name="four.ss01" horiz-adv-x="1284" d="M1028 1671V477h213V373h-213V0H907v373H35v106l874 1192h119zM168 477h739v987z"/><glyph glyph-name="five.ss01" horiz-adv-x="1339" d="M717 1120q254 0 395-131t141-377V492q0-247-150-379.5T678-20q-171 0-297 51.5t-200.5 163T106 469v33h125v-35q0-89 28.5-158.5T333 198t106.5-67T559 95.5 680 86q76 0 140.5 13t122 42.5 98 75 64 114.5 23.5 156v127q0 201-109 300.5T707 1014q-182 0-286-76.5T250 713H123l53 958h1000v-104H291l-43-662q151 215 469 215z"/><glyph glyph-name="six.ss01" horiz-adv-x="1370" d="M700-20q-296 0-436.5 133.5T123 516v545q0 153 30.5 266.5t97 197T428 1650t268 42q141 0 245-35.5t164-100 88-145.5 28-180v-14h-123v14q0 186-101.5 270T700 1585q-112 0-193-25t-140.5-81-89-151.5T248 1096V915q142 205 479 205 261 0 402-131t141-381V492q0-512-570-512zM248 504q0-225 112.5-321.5T702 86q225 0 334 94t109 307v127q0 400-428 400-210 0-339.5-97.5T248 633V504z"/><glyph glyph-name="seven.ss01" horiz-adv-x="1177" d="M16 1567v104h1110v-104q-148-111-259.5-247.5T685 1039 572 722.5t-59.5-342T496 10V0H375v10q0 159 10.5 296.5t35.5 282 70 273T601 1114t160 238.5T977 1567H16z"/><glyph glyph-name="eight.ss01" horiz-adv-x="1353" d="M676-20Q392-20 248 93T104 424v63q0 315 299 398-121 36-188.5 124.5T147 1229v59q0 191 136.5 297.5T678 1692q256 0 392-106.5t136-297.5v-59q0-131-68-219.5T950 885q299-83 299-398v-63q0-218-144-331T676-20zM229 424q0-181 111.5-259.5T676 86t336 78.5T1124 426v66q0 96-32.5 162.5T997 758t-139.5 53T676 827q-102 0-179.5-16t-140-53-95-104T229 492v-68zm43 799q0-78 31-135t87-90.5T517.5 948 676 932q86 0 157 15.5t128 49 88.5 91T1081 1223v65q0 299-405 299-404 0-404-299v-65z"/><glyph glyph-name="nine.ss01" horiz-adv-x="1370" d="M674-20q-141 0-245 35.5t-163.5 100T178 261t-28 181v13h124v-13q0-187 100.5-270.5T670 88q112 0 193.5 24.5t141.5 81 89.5 152T1124 578v178Q981 551 643 551q-261 0-401 130.5T102 1061v119q0 253 139 382.5T670 1692q296 0 437.5-134t141.5-401V608q0-152-30.5-265.5t-97.5-196T942.5 22 674-20zM227 1057q0-400 426-400 211 0 341 97.5t130 283.5v129q0 225-113 322.5T668 1587q-224 0-332.5-94.5T227 1184v-127z"/><glyph glyph-name="zero.tf" horiz-adv-x="1335" d="M672-18q-261 0-387.5 157T158 582v512q0 139 30.5 248t92 187.5T441 1650t231 42q255 0 380.5-157.5T1178 1094V582q0-286-125.5-443T672-18zM283 575q0-182 49-292l624 1185q-96 119-284 119-193 0-291-116t-98-371V575zm108-387Q486 84 672 84q188 0 284.5 117t96.5 374v525q0 164-41 270z"/><glyph glyph-name="one.tf" horiz-adv-x="1335" d="M283 102h356v1414q-56-85-151.5-130T279 1341v111q118 0 202.5 53.5T635 1671h125V102h358V0H283v102z"/><glyph glyph-name="two.tf" horiz-adv-x="1335" d="M168 104q0 77 4.5 133T191 355t41.5 110.5T304 564t110 95.5T569 748l193 126q69 33 116 65t88.5 77 62 106 20.5 138v8q0 92-25.5 155.5T949 1522t-110.5 50-144.5 15q-93 0-161-18.5T413.5 1507t-77-119-25.5-186v-65H186v61q0 494 508 494 233 0 356.5-108t123.5-322q0-79-20-146.5t-52-116-79.5-91.5-93.5-71-104-55L637 655q-89-39-147.5-76t-99-80T329 397.5 299.5 271 291 102h880V0H168v104z"/><glyph glyph-name="three.tf" horiz-adv-x="1335" d="M659-20Q406-20 283 95T160 442v66h123v-68q1-197 93.5-276.5T659 84q187 0 281 78.5t94 253.5v63q0 334-360 334H477v102h195q51 0 95.5 6t94 25.5 84 50.5 57.5 86 23 127v52q0 78-20 136.5t-52.5 94-81 57T775 1579t-109 8q-64 0-115-8t-99.5-31-80.5-60.5-51.5-99.5-20.5-145v-59H176v55q0 225 120.5 339T666 1692q242 0 362.5-112t120.5-318v-45q0-130-68.5-226T891 866q131-36 199.5-138t68.5-255v-55q0-201-123.5-319.5T659-20z"/><glyph glyph-name="four.tf" horiz-adv-x="1335" d="M999 1671V473h185V371H999V0H881v371H141v104l742 1196h116zM266 473h615v971z"/><glyph glyph-name="five.tf" horiz-adv-x="1335" d="M719 1120q215 0 336-124t121-349V473q0-239-130.5-366T672-20Q441-20 307.5 99T174 446v54h125v-58q0-84 23-148.5T381.5 190t88-63.5 101-33.5T676 84q82 0 147.5 20t118 63.5 81 119.5 28.5 180v178q0 184-90.5 277.5T707 1016q-285 0-390-299H190l50 954h858v-102H354l-39-647q131 198 404 198z"/><glyph glyph-name="six.tf" horiz-adv-x="1335" d="M676-20q-253 0-376.5 125T176 481v652q0 125 28 224.5t87 176T449 1651t233 41q101 0 179-24t127.5-63.5 82.5-97 46.5-118.5 15.5-134l2-30h-125v30q-6 169-86.5 249.5T684 1585q-383 0-383-426V920q121 200 410 200 225 0 345-124.5T1176 639V465q0-234-123.5-359.5T676-20zM301 475q0-211 95.5-301T676 84q190 0 282.5 91.5T1051 465v176q0 375-357 375-176 0-284.5-94.5T301 653V475z"/><glyph glyph-name="seven.tf" horiz-adv-x="1335" d="M170 1569v102h969v-102q-158-147-266-317T703.5 885.5t-87.5-405T590 16V0H469v14q0 248 25 452t84 401.5T743 1240t261 329H170z"/><glyph glyph-name="eight.tf" horiz-adv-x="1335" d="M668-20q-500 0-500 430v88q0 310 266 385-108 35-169.5 119T203 1217v86q0 182 119 285.5T668 1692t344.5-103 117.5-286v-86q0-131-60.5-215T901 883q264-78 264-385v-88q0-430-497-430zM293 408q0-181 94-253.5T668 82q91 0 157 15.5t116 52 74.5 101T1040 408v98q0 93-27 157.5T933.5 762t-116 48.5T668 825t-150-14.5T401 762t-80.5-98.5T293 506v-98zm35 802q0-147 91.5-213.5T668 930q73 0 132 15t106.5 46.5 73.5 87 26 131.5v93q0 148-85.5 217T668 1589q-340 0-340-286v-93z"/><glyph glyph-name="nine.tf" horiz-adv-x="1335" d="M657 1692q253 0 376.5-125.5T1157 1190V539q0-125-28-224.5t-87-176T884 21 651-20Q550-20 472 4T344.5 67.5t-82 96.5-46 118T201 416l-2 30h125v-30q6-169 86-249.5T649 86q383 0 383 426v240Q910 551 623 551q-225 0-345 124.5T158 1032v174q0 234 123.5 360T657 1692zm-374-662q0-375 356-375 176 0 284.5 94.5T1032 1018v178q0 211-95.5 301T657 1587q-190 0-282-91.5T283 1206v-176z"/><glyph glyph-name="zero.dnom" horiz-adv-x="669" d="M336-10q-132 0-199 80.5T70 297v244q0 144 67 224.5T336 846q131 0 198.5-80.5T602 541V297q0-146-67-226.5T336-10zM164 285q0-52 10-97l297 519q-46 61-135 61-172 0-172-217V285zm43-166q42-51 129-51 172 0 172 217v266q0 53-8 86z"/><glyph glyph-name="one.dnom" horiz-adv-x="514" d="M55 78h172v647q-61-74-174-74v84q115 0 178 101h86V78h177V0H55v78z"/><glyph glyph-name="two.dnom" horiz-adv-x="638" d="M59 84q0 55 8 95.5t28.5 81T157 334t103 61l92 51q70 31 102.5 71.5T487 625v6q0 75-40 106t-119 31q-86 0-126-37.5T162 602v-37H68v31q0 250 260 250 254 0 254-225 0-170-176-246l-97-53q-96-37-125.5-87T154 78h428V0H59v84z"/><glyph glyph-name="three.dnom" horiz-adv-x="641" d="M317-10q-132 0-196 58T55 225v33h95v-37q1-86 41-119.5T315 68q86 0 126 33.5T481 209v43q0 43-13.5 72T430 366.5t-49.5 19T322 391h-97v78h97q153 0 153 127v35q0 76-42 106.5T317 768q-78 0-118-32t-41-115v-33H63v26q3 232 254 232 129 0 190.5-60T569 629v-21q2-65-29.5-112T449 432q126-39 126-192v-25q0-107-63.5-166T317-10z"/><glyph glyph-name="four.dnom" horiz-adv-x="614" d="M487 836V252h86v-78h-86V0h-92v174H35v82l362 580h90zM117 252h278v432z"/><glyph glyph-name="five.dnom" horiz-adv-x="638" d="M350 561q109 0 171.5-61T584 322v-78q-1-125-68-189.5T322-10q-123 0-192 61.5T61 233v21h95v-31q3-155 168-155 163 0 163 159v92q0 160-155 160-66 0-105.5-31.5T162 354H70l26 482h449v-78H180l-18-293q61 96 188 96z"/><glyph glyph-name="six.dnom" horiz-adv-x="655" d="M334-10q-133 0-196.5 65.5T74 254v293q0 149 61.5 224T334 846q124 0 181.5-61T573 623v-13h-92v11q0 73-36.5 107T336 762q-86 0-127-42t-41-140V477q63 84 190 84 114 0 175-62.5T594 319v-81q0-248-260-248zM168 231q0-89 42-126t126-37 124 37 40 122v95q0 159-158 159-81 0-127.5-40T168 326v-95z"/><glyph glyph-name="seven.dnom" horiz-adv-x="557" d="M25 758v78h497v-78q-81-78-134.5-166T307 406t-37.5-188T258 14V0h-92v12q0 233 55 415t205 331H25z"/><glyph glyph-name="eight.dnom" horiz-adv-x="645" d="M324-10Q61-10 61 209v37q0 162 136 198-55 14-87 56.5T78 612v35q0 94 62.5 146.5T324 846q119 0 181-52.5T567 647v-35q0-134-118-168 132-32 135-198v-37Q581-10 324-10zM156 207q0-79 41-110t127-31q83 0 123.5 31T489 207v57q-1 76-43 106.5T324 401q-82 0-125-31t-43-106v-57zm16 393q0-121 152-121 149 0 149 121v49q0 121-149 121-152 0-152-121v-49z"/><glyph glyph-name="nine.dnom" horiz-adv-x="655" d="M322 846q262 0 262-264V289q0-149-61.5-224T324-10q-126 0-184 61T82 213v12h94v-10q0-141 146-141 84 0 125.5 43T489 258v100q-61-84-192-84-113 0-174.5 62.5T61 516v82q0 248 261 248zM156 514q3-160 159-160 80 0 127 40.5T489 510v94q0 89-42 126.5T322 768q-84 0-125-38t-41-122v-94z"/><glyph glyph-name="zero.numr" horiz-adv-x="669" d="M336 825q-132 0-199 81t-67 227v243q0 144 67 224.5t199 80.5q131 0 198.5-80.5T602 1376v-243q0-146-67-227t-199-81zm-172 295q0-51 10-96l297 518q-47 62-135 62-172 0-172-218v-266zm43-166q42-51 129-51 172 0 172 217v266q0 54-8 87z"/><glyph glyph-name="one.numr" horiz-adv-x="514" d="M55 913h172v648q-61-74-174-74v84q115 0 178 100h86V913h177v-77H55v77z"/><glyph glyph-name="two.numr" horiz-adv-x="638" d="M59 920q0 55 8 95.5t28.5 81T157 1170t103 61l92 51q70 31 102.5 71t32.5 107v6q0 75-40 106.5T328 1604q-86 0-126-37.5T162 1438v-37H68v31q0 249 260 249 254 0 254-225 0-170-176-246l-97-53q-96-37-125.5-87T154 913h428v-77H59v84z"/><glyph glyph-name="three.numr" horiz-adv-x="641" d="M317 825q-132 0-196 58.5T55 1061v33h95v-37q1-86 41.5-120T315 903q86 0 126 33.5t40 107.5v43q0 43-13.5 72t-37.5 43-49.5 19.5-58.5 5.5h-97v78h97q153 0 153 127v34q0 138-158 138-78 0-118-32.5T158 1456v-33H63v27q3 231 254 231 129 0 190.5-60t61.5-157v-20q2-65-29.5-112t-90.5-64q126-39 126-193v-24q0-107-63.5-166.5T317 825z"/><glyph glyph-name="four.numr" horiz-adv-x="614" d="M487 1671v-584h86v-77h-86V836h-92v174H35v82l362 579h90zm-370-584h278v433z"/><glyph glyph-name="five.numr" horiz-adv-x="638" d="M350 1397q109 0 171.5-61.5T584 1157v-78q-1-125-68-189.5T322 825q-123 0-192 62t-69 182v21h95v-31q3-156 168-156 163 0 163 160v92q0 160-155 160-66 0-105.5-31.5T162 1190H70l26 481h449v-78H180l-18-293q62 97 188 97z"/><glyph glyph-name="six.numr" horiz-adv-x="655" d="M334 825q-133 0-196.5 66T74 1090v292q0 149 61.5 224t198.5 75q124 0 181.5-61t57.5-162v-12h-92v10q0 73-36.5 107T336 1597q-86 0-127-42t-41-140v-102q63 84 190 84 114 0 175-62.5t61-179.5v-82q0-248-260-248zm-166 242q0-89 42-126.5T336 903q83 0 123.5 37.5T500 1063v94q0 160-158 160-81 0-127.5-40.5T168 1161v-94z"/><glyph glyph-name="seven.numr" horiz-adv-x="557" d="M25 1593v78h497v-78q-81-78-134.5-166T307 1241.5 269.5 1054 258 850v-14h-92v12q0 233 55 414.5T426 1593H25z"/><glyph glyph-name="eight.numr" horiz-adv-x="645" d="M324 825q-263 0-263 219v37q0 81 35.5 131t100.5 68q-55 14-87 56.5T78 1448v35q0 94 62.5 146t183.5 52q119 0 181-52t62-146v-35q0-134-118-168 132-32 135-199v-37q-3-219-260-219zm-168 217q0-79 41-110t127-31q83 0 123.5 31t41.5 110v58q-1 76-43 106.5T324 1237q-82 0-125-31t-43-106v-58zm16 394q0-121 152-121 149 0 149 121v49q0 121-149 121-152 0-152-121v-49z"/><glyph glyph-name="nine.numr" horiz-adv-x="655" d="M322 1681q262 0 262-264v-293q0-149-61.5-224T324 825q-126 0-184 61t-58 163v12h94v-10q0-142 146-142 84 0 125.5 43t41.5 142v100q-61-84-192-84-113 0-174.5 62.5T61 1352v82q0 247 261 247zm-166-331q3-160 159-160 80 0 127 40.5t47 115.5v94q0 89-42 126.5T322 1604q-84 0-125-38t-41-122v-94z"/><glyph glyph-name="exclamdown.case" horiz-adv-x="460" d="M289 0H170l2 1159h117V0zM115 1579q0 50 34.5 81.5T231 1692q48 0 81.5-31.5T346 1579q0-53-33-85t-82-32q-48 0-82 32.5t-34 84.5z"/><glyph glyph-name="questiondown.case" horiz-adv-x="985" d="M485-20q-114 0-199 31.5t-134 87-72 124T57 373q0 77 22 142t57.5 111.5 78 89.5 85 87.5 78 94.5 57.5 121 22 157v30h116v-30q0-93-22-170t-56.5-130.5T418 775t-84.5-89.5-77-87-56.5-104T178 365q0-136 76.5-210.5T487 80q92 0 156.5 26.5t100.5 78 51.5 116T811 451v69h121v-67q0-60-8-113.5T897 231t-53-99-82-79T643.5-1 485-20zm-88 1599q0 49 35 81t82 32q48 0 81.5-31.5T629 1579q0-53-33-85t-82-32q-48 0-82.5 32.5T397 1579z"/><glyph glyph-name="hyphen.case" horiz-adv-x="1347" d="M86 842h1176v-86H86v86z"/><glyph glyph-name="endash.case" horiz-adv-x="1597" d="M86 844h1425v-86H86v86z"/><glyph glyph-name="emdash.case" horiz-adv-x="2629" d="M86 844h2458v-88H86v88z"/><glyph glyph-name="parenleft.case" horiz-adv-x="595" d="M463-184Q268 71 179 315T90 844q0 286 89 526t284 496h112q-204-275-293-507t-89-515q0-285 88-516t294-512H463z"/><glyph glyph-name="parenright.case" horiz-adv-x="598" d="M135 1864q195-255 284-499t89-529q0-286-89-526T135-186H23Q227 89 316.5 321T406 836q0 285-88.5 516T23 1864h112z"/><glyph glyph-name="braceleft.case" horiz-adv-x="581" d="M92 954q80 0 80 181v378q0 185 68 271t202 86h97v-94h-95q-170 0-170-254v-381q0-109-18.5-162T184 891v-92q53-33 71.5-86T274 549V168q0-254 170-254h95v-94h-97q-134 0-202 85.5T172 176v379q0 90-21 136t-59 46v217z"/><glyph glyph-name="braceright.case" horiz-adv-x="583" d="M492 729q-80 0-80-180V170q0-185-68.5-270.5T141-186H45v94h94q170 0 170 254v381q0 109 18.5 162t71.5 88v92q-53 33-71.5 86T309 1135v381q0 253-170 253H45v95h96q134 0 202.5-86t68.5-271v-379q0-90 21-136t59-46V729z"/><glyph glyph-name="bracketleft.case" horiz-adv-x="610" d="M567 1870v-88H258V-96h309v-88H156v2054h411z"/><glyph glyph-name="bracketright.case" horiz-adv-x="610" d="M43-190v88h309v1878H43v88h412V-190H43z"/><glyph glyph-name="at.case" horiz-adv-x="1574" d="M864 39q-176 0-317.5 52.5T304 245 148.5 500 94 850q0 199 55 356t152 257 226 152 282 52q158 0 280-46.5t210.5-142 135-251T1481 862q0-504-262-504-153 0-193 158-84-170-266-170-163 0-260 131.5T403 840q0 229 96.5 360T758 1331q169 0 256-149v141h108V631q0-93 29-140t78-47q149 0 149 418 0 376-144.5 545.5T811 1577q-132 0-242.5-45t-194-132.5-130.5-228T197 850q0-178 48-316t136-227 209.5-134.5T862 127q113 0 228.5 21t191.5 53v-90q-183-72-418-72zM512 840q0-193 69-292t193-99q240 0 240 391t-242 391q-123 0-191.5-99T512 840z"/><glyph glyph-name="ampersand.ss01" horiz-adv-x="1388" d="M645-20q-269 0-398.5 121.5T117 432v35q0 137 67 243t189 140q-117 30-185.5 136.5T119 1235v27q0 94 29.5 170t91 135.5 165.5 92 244 32.5q267 0 390.5-115.5T1163 1229v-37h-119v37q0 197-92.5 278.5T649 1589q-213 0-311-81t-98-251v-30q0-96 27.5-161.5t83.5-102T479.5 912 653 897h391v141h119V897h144v-98h-144V426q0-446-518-446zM238 430q0-180 97-264t312-84q207 0 302 80.5t95 265.5v371H651q-100 0-172.5-16T350 730t-84-102.5T238 467v-37z"/><glyph glyph-name="cent.tf" horiz-adv-x="1335" d="M625-143v295q-205 17-308.5 151.5T213 670v331q0 233 103.5 368.5T625 1520v295h90v-293q196-12 298.5-132t110.5-325l2-102h-120l-2 106q-14 332-289 348V254q275 16 289 348l2 107h120l-2-103q-11-206-112-326T715 150v-293h-90zM334 666q0-380 291-412v1163q-291-32-291-413V666z"/><glyph glyph-name="dollar.tf" horiz-adv-x="1335" d="M635-143v125Q419-4 306 119.5T193 473v105h124V473q0-187 80.5-278T635 90v741l-94 50q-73 35-123 68t-97.5 82.5T249 1148t-24 152q0 180 107.5 282T635 1692v123h90v-125q191-18 293-133t102-326v-64H995v62q0 170-70 253t-200 97V918l90-48q61-31 99.5-54.5t86.5-64 75-84.5 46-111 19-148q0-202-104.5-311.5T725-20v-123h-90zM350 1307q0-66 19-118t57-90 76-63 94-51l39-20v618q-285-13-285-272v-4zM725 88q146 6 217.5 80.5T1014 401v5q0 65-13 116t-33 85.5-56.5 65-69.5 50-86 45.5l-31 16V88z"/><glyph glyph-name="Euro.tf" horiz-adv-x="1335" d="M78 702v84h145v99H78v84h145v125q0 130 31 237t92.5 189T510 1647t235 45q124 0 221-39.5t158-111.5 93.5-166.5T1253 1165l2-178h-131v184q-6 207-102.5 309.5T748 1583q-196 0-296-122.5T352 1098V969h512v-84H352v-99h512v-84H352V578q0-490 393-490 367 0 379 416v184h131l-2-178q-3-116-35.5-211.5T1124 131 966.5 19.5 745-20q-134 0-235.5 45T346 152t-92.5 189.5T223 582v120H78z"/><glyph glyph-name="sterling.tf" horiz-adv-x="1335" d="M170 96q192 160 192 404 0 62-14 141H170v84h160q-9 34-32.5 111T261 960t-24.5 123.5T225 1235q0 231 127 344t350 113q224 0 344.5-114.5T1167 1239v-90h-120v92q0 178-85 264t-260 86q-356 0-356-354 0-74 12-150.5t25.5-125 36.5-124T453 725h565v-84H471q12-65 12-135 0-125-44.5-223T303 100h864V0H170v96z"/><glyph glyph-name="yen.tf" horiz-adv-x="1335" d="M207 559v82h375L113 1671h135l420-940 419 940h138L756 641h372v-82H731v-90h397v-82H731V0H606v387H207v82h399v90H207z"/><glyph glyph-name="bouclecomb" horiz-adv-x="1142" d="M584-20Q507-20 442.5.5T334 56t-71.5 68.5T215 195h-20v938h20q17 36 44.5 71t71.5 70 109.5 56.5T584 1352q200 0 313-133.5T1010 852V479q0-237-113-368T584-20zM215 485q0-176 92-289.5T565 82q162 0 243 107t81 292v367q0 185-82 293t-244 108q-164 0-256-113.5T215 846V485z"/><glyph glyph-name="slashcomb" horiz-adv-x="1435" d="M207-4l907 1681h109L315-4H207z"/></font>
</defs>
</svg>
