<svg xmlns="http://www.w3.org/2000/svg"><defs><font id="PPFormula-NarrowRegular" horiz-adv-x="1021"><font-face font-family="PP Formula Narrow" font-weight="400" font-stretch="condensed" units-per-em="2048" ascent="1638" descent="-410" x-height="1331" cap-height="1655" bbox="-301 -432 3144 2079" underline-thickness="81" underline-position="-285" unicode-range="U+0020-FB02"/><glyph glyph-name="fi" unicode="fi" horiz-adv-x="1140" d="M20 1331h207v51q0 51 5.5 89.5T255 1550t46 66 79.5 42.5T500 1675q104 0 202-20v-144q-67 13-131 13-50 0-81.5-9.5t-47.5-31-21-46-5-63.5v-88q25 21 74 31.5t90 12 122 1.5v-160H416V0H227v1171H20v160zm787 234q0 49 34 79.5t95 30.5 95-30.5 34-79.5q0-46-34-76.5t-95-30.5-95 30.5-34 76.5zM842 0v1331h188V0H842z"/><glyph glyph-name="fl" unicode="fl" horiz-adv-x="1150" d="M20 1331h207v51q0 51 5.5 89.5T255 1550t46 66 79.5 42.5T500 1675q104 0 202-20v-144q-67 13-131 13-50 0-81.5-9.5t-47.5-31-21-46-5-63.5v-88q25 21 74 31.5t90 12 122 1.5v-160H416V0H227v1171H20v160zM852 0v1655h188V0H852z"/><glyph glyph-name=".notdef" horiz-adv-x="1044" d="M856 1659V-430H195v2089h661zM348-287h348v70H483l146 98h67v70H348v-70h148l-148-98v-70zm0 285h348v235H348V-2zm0 362h348v236H487V479h70v47h70v-98H418v168h-70V360zm0 281h348v209h-69V713H348v-72zm0 119h209v147h139v68H348v-68h139v-78H348v-69zm0 272h348v72H557v145H348v-217zm0 273h348v67H557v78h139v70H350v-70h137v-78H348v-67zM418 68v98h209V68H418zm0 1036v74h69v-74h-69z"/><glyph glyph-name=".null" horiz-adv-x="0"/><glyph glyph-name="nonmarkingreturn" horiz-adv-x="682"/><glyph glyph-name="space" horiz-adv-x="460"/><glyph glyph-name="exclam" unicode="!" horiz-adv-x="440" d="M127 1655h188L305 512H133zM86 113q0 62 38.5 99.5T221 250q57 0 96-38t39-99q0-59-39-96t-96-37q-58 0-96.5 37T86 113z"/><glyph glyph-name="quotedbl" unicode="&quot;" horiz-adv-x="495" d="M86 1655h125v-512H86v512zm201-512v512h125v-512H287z"/><glyph glyph-name="numbersign" unicode="#" horiz-adv-x="1675" d="M229 1130h437l237 525h107l-238-525h389l238 525h106l-237-525h350v-90h-391l-199-442h412v-90H987L758 0H651l230 508H492L262 0H156l229 508H51v90h375l199 442H229v90zm303-532h390l198 442H731z"/><glyph glyph-name="dollar" unicode="$" horiz-adv-x="1003" d="M457-143v125Q66 9 66 430v133h184V428q0-136 52.5-203.5T457 145v641l-109 66q-87 49-142 101t-89.5 135.5T82 1284q0 180 94.5 280T457 1673v125h98v-125q179-14 274-116.5t95-292.5v-105H739v86q0 130-47 191.5T555 1509V936l100-59q71-40 116.5-76.5t86.5-91 60.5-129T938 406q0-204-92.5-310T555-20v-123h-98zM266 1276q0-55 12.5-97.5t39-75T374 1048t77-49l6-4v516q-94-6-142.5-57T266 1296v-20zM555 143q103 8 151 65t48 181v25q0 65-12 113t-39 83.5-58.5 60T563 723l-8 4V143z"/><glyph glyph-name="percent" unicode="%" horiz-adv-x="1376" d="M291 0l684 1655h106L397 0H291zM39 1337q0 65 17 124t50.5 107.5 92 77.5 133.5 29 133.5-29 93-77.5T610 1461t17-124-17-124-51.5-108.5-93-78.5T332 997t-133.5 29-92 78.5-50.5 108T39 1337zm149 0q0-200 144-200 145 0 145 200 0 199-145 199-144 0-144-199zM750 317q0 66 17 124.5t50.5 108 92 78.5 134.5 29q75 0 133.5-29t92-78.5 50.5-108 17-124.5q0-65-17-123.5T1269.5 86t-92-77.5T1044-20q-76 0-134.5 28.5t-92 77.5T767 193t-17 124zm149 0q0-198 145-198 144 0 144 198 0 201-144 201-145 0-145-201z"/><glyph glyph-name="ampersand" unicode="&amp;" horiz-adv-x="1105" d="M512-20q-114 0-198 33t-133 94-72 139-23 176v59q0 141 58 237.5T305 844q-99 29-158 123.5T88 1208v49q0 56 10.5 109t40 111 76 100.5 125 70T520 1675q414 0 414-434v-67H741v83q0 145-54.5 204T518 1520q-120 0-176.5-61T285 1266v-101q0-74 19-125t53.5-77.5 74-37T522 915h219v129h193V915h110V766H934V412q0-432-422-432zM281 397q0-138 57-200t178-62q114 0 169.5 58.5T741 395v371H520q-51 0-91-11t-75-37-54-77-19-123V397z"/><glyph glyph-name="quotesingle" unicode="'" horiz-adv-x="294" d="M86 1655h125v-512H86v512z"/><glyph glyph-name="parenleft" unicode="(" horiz-adv-x="544" d="M424-303Q238-53 154 188.5T70 713q0 285 84 522.5T424 1726h115q-197-272-282-500.5T172 713q0-285 84-513t283-503H424z"/><glyph glyph-name="parenright" unicode=")" horiz-adv-x="544" d="M121 1731q186-250 270-491.5T475 715q0-285-84-523T121-299H6Q203-27 288 202t85 513q0 285-84 513T6 1731h115z"/><glyph glyph-name="asterisk" unicode="*" horiz-adv-x="675" d="M297 1671h82v-239l190 100 41-70-186-98 186-98-41-70-190 100v-239h-82v239l-191-100-40 70 186 98-186 98 40 70 191-100v239z"/><glyph glyph-name="plus" unicode="+" horiz-adv-x="1142" d="M68 776v92h456v424h94V868h457v-92H618V350h-94v426H68z"/><glyph glyph-name="comma" unicode="," horiz-adv-x="395" d="M88-121q56 16 108 57.5T266 29q-36-49-94-49-47 0-80 35t-33 98q0 62 38 99.5T199 250q63 0 100-45.5T336 86q0-102-69-185T88-242v121z"/><glyph glyph-name="hyphen" unicode="-" horiz-adv-x="1128" d="M61 719h1008v-86H61v86z"/><glyph glyph-name="period" unicode="." horiz-adv-x="393" d="M197-20q-58 0-97 37t-39 96q0 62 39 99.5t97 37.5q57 0 96-38t39-99q0-59-39-96t-96-37z"/><glyph glyph-name="slash" unicode="/" horiz-adv-x="913" d="M885 1655L137 0H29l747 1655h109z"/><glyph glyph-name="zero" unicode="0" horiz-adv-x="1099" d="M551-18q-230 0-342.5 136.5T96 510v639q0 254 112.5 390T551 1675q229 0 342-137t113-391V510q0-254-113-391T551-18zM295 471l2-51 479 956q-56 140-225 140-127 0-191.5-77.5T295 1186V471zm39-213q58-119 217-119 126 0 191 78t65 254v733z"/><glyph glyph-name="one" unicode="1" horiz-adv-x="858" d="M70 162h286v1255q-95-129-290-129v172q201 0 305 195h178V162h289V0H70v162z"/><glyph glyph-name="two" unicode="2" horiz-adv-x="1044" d="M78 174q0 209 65 337t248 247l170 133q109 69 162 147t53 209v23q0 138-60 192t-177 54q-126 0-188-60.5T289 1241v-106H90v86q0 223 112 338.5T539 1675q214 0 325-109.5T975 1241q0-310-285-485L516 618q-102-63-151.5-118t-70-131T274 162h697V0H78v174z"/><glyph glyph-name="three" unicode="3" horiz-adv-x="1056" d="M522-20Q295-20 185 88T74 422v84h196V406q0-151 62-209t188-58q128 0 189 59.5T770 395v119q0 260-242 260H360v162h166q240 0 240 229v103q0 73-18.5 123t-53.5 76.5-76 37.5-96 11q-56 0-97-11t-76-38.5-52.5-80T279 1257v-88H82v72q2 218 110 326t330 108q96 0 172.5-23.5t125.5-63 81.5-94.5 46-113 13.5-124v-55q1-128-56-217.5T743 860q109-35 166.5-132.5T967 481v-63q0-205-107-321.5T522-20z"/><glyph glyph-name="four" unicode="4" horiz-adv-x="1009" d="M819 1655V498h142V338H819V0H627v338H41v174l594 1143h184zM199 498h428v819z"/><glyph glyph-name="five" unicode="5" horiz-adv-x="1052" d="M600 1108q176 0 277.5-110.5T979 670V469q0-243-115-366T528-20Q314-20 198 97.5T82 442v62h199v-90q0-275 251-275 248 0 248 279v248q0 137-58.5 207.5T549 944q-108 0-168.5-62.5T291 707H96l47 948h762v-162H322l-31-553q97 168 309 168z"/><glyph glyph-name="six" unicode="6" horiz-adv-x="1077" d="M549-20q-229 0-340 121T98 471v670q0 260 109 397t346 137q406 0 410-424v-34H766v32q-2 130-53 190t-164 60q-127 0-189.5-69.5T297 1206V954q103 156 315 156 185 0 284-115.5T995 664V451q0-229-112.5-350T549-20zM297 424q0-155 63.5-220T547 139q127 0 188.5 67.5T797 420v250q0 274-238 274-122 0-192-71.5T297 674V424z"/><glyph glyph-name="seven" unicode="7" horiz-adv-x="915" d="M25 1493v162h849v-162q-104-128-181-264.5T568 958t-77-288-40-302.5T440 39V0H248v37q0 222 20 405.5t68.5 367T473 1163t217 330H25z"/><glyph glyph-name="eight" unicode="8" horiz-adv-x="1064" d="M532-20Q305-20 195.5 82.5T86 395v101q0 313 238 378-100 30-159 110.5T106 1202v92q0 179 108.5 280T535 1675q210 0 316.5-100.5T958 1294v-92q0-137-58-217.5T743 874q238-64 238-378V395q0-210-110.5-312.5T532-20zM285 385q0-143 60.5-195.5T532 137q127 0 188.5 53T782 385v156q0 138-63 191.5T532 786q-122 0-184.5-53.5T285 541V385zm20 780q0-114 58-164.5T532 950q228 0 228 217v131q0 116-57 168t-171 52q-113 0-170-52t-57-168v-133z"/><glyph glyph-name="nine" unicode="9" horiz-adv-x="1077" d="M528 1675q229 0 340-121t111-370V514q0-260-109-397T524-20q-405 0-409 423v35h196v-32q2-130 53-190t164-60q127 0 189.5 69.5T780 449v251Q678 545 465 545q-185 0-284 115.5T82 991v213q0 229 112.5 350T528 1675zM281 985q0-274 237-274 122 0 192 71.5T780 981v250q0 155-63.5 220T530 1516q-127 0-188-67.5T281 1235V985z"/><glyph glyph-name="colon" unicode=":" horiz-adv-x="452" d="M227 860q-58 0-96.5 37T92 993q0 62 38.5 99.5T227 1130q57 0 96-38t39-99q0-59-39-96t-96-37zM92 113q0 62 38.5 99.5T227 250q57 0 96-38t39-99q0-59-39-96t-96-37q-58 0-96.5 37T92 113z"/><glyph glyph-name="semicolon" unicode=";" horiz-adv-x="450" d="M227 862q-58 0-96.5 37T92 995q0 62 38.5 100t96.5 38q57 0 96-38t39-100q0-59-39-96t-96-37zM86 113q0 62 37.5 99.5T225 250q63 0 100-45.5T362 86q0-102-68.5-185T115-242v121q56 16 108 57.5T293 29q-36-49-94-49-47 0-80 35t-33 98z"/><glyph glyph-name="less" unicode="&lt;" horiz-adv-x="1118" d="M61 862l963 326v-103L213 821l811-264V455L61 780v82z"/><glyph glyph-name="equal" unicode="=" horiz-adv-x="1179" d="M86 979h1008v-86H86v86zm0-315v86h1008v-86H86z"/><glyph glyph-name="greater" unicode="&gt;" horiz-adv-x="1118" d="M1057 780L94 455v102l811 264-811 264v103l963-326v-82z"/><glyph glyph-name="question" unicode="?" horiz-adv-x="903" d="M457 1675q203 0 303-105t100-276q0-72-18.5-133.5t-48-107.5-65.5-88.5-72-87-65.5-93-48-116T524 522v-28H352v34q0 87 17 161t44.5 126.5 61 99 67 88 61 84 44.5 97 17 116.5q0 218-209 218-117 0-168-66.5T236 1251v-96H41v72q0 97 22.5 176t70.5 141 130 96.5 193 34.5zM303 113q0 62 38.5 99.5T438 250q57 0 96-38t39-99q0-59-39-96t-96-37q-58 0-96.5 37T303 113z"/><glyph glyph-name="at" unicode="@" horiz-adv-x="1400" d="M784-104q-336 0-525 200.5T70 688q0 158 34 289.5t93.5 223.5T340 1356t180.5 93 206.5 30q142 0 249-42.5t187-134.5 121-246 41-368q0-119-12-207t-39.5-153-74.5-98-114-33q-145 0-192 145-73-158-231-158-146 0-234 130t-88 358q0 229 87.5 359T662 1161q139 0 215-127v117h139V469q0-188 86-188 121 0 121 409 0 195-33 332t-98 218-153 117-208 36q-116 0-215.5-42t-177-125-122-221T172 688t43.5-315 125-220.5T533 26t251-42q215 0 373 67v-86q-167-69-373-69zM479 672q0-361 211-361 101 0 144 87.5T877 672t-44 275-145 89q-209 0-209-364z"/><glyph glyph-name="A" unicode="A" horiz-adv-x="1007" d="M27 0l342 1655h268L979 0H778l-63 336H291L227 0H27zm295 500h362l-178 946-4 14-2-10z"/><glyph glyph-name="B" unicode="B" horiz-adv-x="1085" d="M117 0v1655h452q214 0 313-92t99-297v-54q0-248-199-329 236-79 236-383v-58q0-236-101-339T580 0H117zm196 164h244q155 0 208.5 53T819 422v102q0 140-63 202t-201 62H313V164zm0 790h232q53 0 92 9t74 32.5 53 71 18 117.5v90q0 71-13.5 115t-46 66-71 29-104.5 7H313V954z"/><glyph glyph-name="C" unicode="C" horiz-adv-x="1101" d="M559-20q-238 0-355.5 140T86 510v637q0 248 118 388t357 140q228 0 345-130.5t120-360.5l2-205H827l-2 242q-3 292-264 292-276 0-276-327V471q0-170 70-250t206-80q261 0 264 295l2 242h201l-2-205q-3-232-120-362.5T559-20z"/><glyph glyph-name="D" unicode="D" horiz-adv-x="1118" d="M117 0v1655h405q130 0 220.5-24t157.5-82 98.5-159.5T1030 1137V518q0-150-32-251.5t-98.5-160-157-82.5T522 0H117zm196 156h211q116 0 180 29t95.5 103T831 496v663q0 197-68 268.5T522 1499H313V156z"/><glyph glyph-name="E" unicode="E" horiz-adv-x="929" d="M117 0v1655h741v-164H313V909h521V745H313V164h545V0H117z"/><glyph glyph-name="F" unicode="F" horiz-adv-x="907" d="M117 0v1655h747v-164H313V829h527V666H313V0H117z"/><glyph glyph-name="G" unicode="G" horiz-adv-x="1120" d="M532-20q-216 0-331 141.5T86 504v643q0 248 118 388t355 140q227 0 344.5-129t122.5-356v-160H825v197q-5 286-264 286-137 0-206.5-79.5T285 1186V471q0-167 66.5-248.5T557 141q135 0 200 75.5T825 451v235H524v156h502V0H913l-20 172Q775-20 532-20z"/><glyph glyph-name="H" unicode="H" horiz-adv-x="1126" d="M813 0v745H313V0H117v1655h196V909h500v746h197V0H813z"/><glyph glyph-name="I" unicode="I" horiz-adv-x="595" d="M92 0v176h109v1303H92v176h412v-176H395V176h109V0H92z"/><glyph glyph-name="J" unicode="J" horiz-adv-x="1017" d="M477-20q-221 0-325.5 126T47 479v119h199V440q0-164 58-231.5T477 141q114 0 173 66.5T709 436v1219h198V475q0-495-430-495z"/><glyph glyph-name="K" unicode="K" horiz-adv-x="1032" d="M801 0L377 739h-64V0H117v1655h196V915h64l424 740h219L532 827 1020 0H801z"/><glyph glyph-name="L" unicode="L" horiz-adv-x="888" d="M117 0v1655h196V164h545V0H117z"/><glyph glyph-name="M" unicode="M" horiz-adv-x="1327" d="M117 0v1655h239L664 391l307 1264h237V0h-180v1221L727 0H600L299 1221V0H117z"/><glyph glyph-name="N" unicode="N" horiz-adv-x="1142" d="M117 0v1655h184L844 436v1219h182V0H842L299 1219V0H117z"/><glyph glyph-name="O" unicode="O" horiz-adv-x="1120" d="M559-20q-237 0-355 140.5T86 508v639q0 246 118.5 387T559 1675q237 0 356-141t119-387V508q0-246-119-387T559-20zM285 471q0-328 274-328 275 0 275 328v711q0 329-275 329-274 0-274-327V471z"/><glyph glyph-name="P" unicode="P" horiz-adv-x="1073" d="M117 0v1655h438q252 0 360.5-118t108.5-386v-53q0-270-109-393T555 582H313V0H117zm196 737h254q138 0 197 72.5t59 241.5v147q0 166-58.5 233.5T567 1499H313V737z"/><glyph glyph-name="Q" unicode="Q" horiz-adv-x="1120" d="M559 143q275 0 275 328v711q0 329-275 329-274 0-274-327V471q0-328 274-328zM86 508v639q0 246 118.5 387T559 1675q237 0 356-141t119-387V508q0-225-99.5-363T637-16q144-25 264-103v-166q-135 82-247.5 118.5T399-127V0Q242 43 164 175T86 508z"/><glyph glyph-name="R" unicode="R" horiz-adv-x="1097" d="M829 0q-22 28-22 147v318q0 63-16.5 110T749 648t-61.5 42-69 20.5T547 715H313V0H117v1655h432q128 0 212.5-20.5t141.5-71 82-132 25-206.5v-29q0-166-53-259.5T776 797q230-70 230-348V147q0-113 22-147H829zM313 870h236q143 0 201.5 65.5T809 1137v108q0 82-14 132t-49 77-80.5 36-122.5 9H313V870z"/><glyph glyph-name="S" unicode="S" horiz-adv-x="1034" d="M526-20Q292-20 176.5 98.5T61 457v112h199V420q0-153 64.5-216T528 141q127 0 182.5 54.5T766 379v37q0 65-12 112t-38.5 82.5-58 60T575 723L352 850q-64 38-109 76t-82.5 88-56 114.5T86 1272q0 191 107.5 297T516 1675q216 0 327-109t111-325v-88H756v100q0 147-59.5 203.5T514 1513q-118 0-173.5-49T285 1300v-24q0-102 44.5-162T463 1004l223-127q69-40 114.5-76.5T887 710t60.5-126.5T967 416q0-218-106.5-327T526-20z"/><glyph glyph-name="T" unicode="T" horiz-adv-x="940" d="M373 0v1491H35v164h870v-164H567V0H373z"/><glyph glyph-name="U" unicode="U" horiz-adv-x="1122" d="M561-20q-237 0-343.5 121T111 471v1184h198V438q0-88 16.5-146.5t50-91.5 78-46T561 141t107.5 13 79 45.5 51 91.5T815 438v1217h199V471q0-249-108.5-370T561-20z"/><glyph glyph-name="V" unicode="V" horiz-adv-x="1007" d="M371 0L27 1655h202L500 209l4-19 4 17 270 1448h201L639 0H371z"/><glyph glyph-name="W" unicode="W" horiz-adv-x="1705" d="M340 0L31 1655h198L469 246l2-10 2 10 254 1409h252l254-1407 2-15 4 15 238 1407h196L1366 0h-262L858 1374l-4 23-6-23L602 0H340z"/><glyph glyph-name="X" unicode="X" horiz-adv-x="1013" d="M14 0l383 848-368 807h204l277-629 276 629h201L616 848 995 0H791L504 670 217 0H14z"/><glyph glyph-name="Y" unicode="Y" horiz-adv-x="995" d="M399 0v580L10 1655h209l279-834 278 834h207L596 580V0H399z"/><glyph glyph-name="Z" unicode="Z" horiz-adv-x="923" d="M53 0v164l609 1327H53v164h817v-164L262 164h608V0H53z"/><glyph glyph-name="bracketleft" unicode="[" horiz-adv-x="534" d="M506 1731v-86H221V-217h285v-86H119v2034h387z"/><glyph glyph-name="backslash" unicode="\" horiz-adv-x="913" d="M29 1655h108L885 0H776z"/><glyph glyph-name="bracketright" unicode="]" horiz-adv-x="534" d="M29-303v86h284v1862H29v86h387V-303H29z"/><glyph glyph-name="asciicircum" unicode="^" horiz-adv-x="808" d="M649 1040l-246 535-245-535H47l283 615h147l283-615H649z"/><glyph glyph-name="underscore" unicode="_" horiz-adv-x="1306" d="M0-154h1307v-92H0v92z"/><glyph glyph-name="grave" unicode="`" horiz-adv-x="1099" d="M895 1532l-21-78-669 150 20 79z"/><glyph glyph-name="a" unicode="a" horiz-adv-x="993" d="M705 0v195Q660 85 572.5 32.5T371-20q-143 0-228.5 83T57 311q0 263 293 400l96 45q37 18 53 26t49.5 26.5 50 31 40 33.5 35 39.5 20 43.5 8.5 52v18q0 77-46 122.5T508 1194q-111 0-171.5-57.5T276 963v-80H86v57q0 88 23 160.5t71.5 130 131 89.5 194.5 32q108 0 185-28t119.5-80 61.5-116 19-147V0H705zM248 334q0-91 46-140t138-49q122 0 196 103.5T702 532v246q-4-13-11.5-25.5T676 731t-22-21-23-18.5-28.5-19-28-16.5-33-18-31.5-17l-86-46q-85-44-130.5-101.5T248 334z"/><glyph glyph-name="b" unicode="b" d="M111 0v1655h188v-492q16 35 39.5 65t59.5 59.5 88.5 47T602 1352q163 0 252.5-112T944 924V397q0-196-89.5-306.5T600-20q-192 0-301 174V0H111zm188 424q0-122 61-204.5T537 137q215 0 215 285v487q0 283-215 283-79 0-134-41t-79.5-104T299 905V424z"/><glyph glyph-name="c" unicode="c" horiz-adv-x="974" d="M717 926q-3 143-57 205.5T500 1194q-115 0-173.5-70T268 895V436q0-159 58.5-229T500 137q107 0 160.5 63T717 406v126h192l-2-102Q897-20 498-20q-212 0-317 123.5T76 461v409q0 234 104.5 358T498 1352q204 0 305-116.5T909 901V799H717v127z"/><glyph glyph-name="d" unicode="d" d="M723 1655h188V0H723v164q-16-34-39.5-64T624 41.5t-88-45T422-20Q259-20 169.5 92T80 408v526q0 197 90 307.5T424 1352q189 0 299-170v473zM272 422q0-283 215-283 105 0 165.5 69T723 383v567q-10 105-70.5 174.5T487 1194q-215 0-215-285V422z"/><glyph glyph-name="e" unicode="e" horiz-adv-x="985" d="M76 461v409q0 234 105 358t319 124q409 0 409-478V631H268V436q0-159 58.5-229T500 137q103 0 155.5 58T711 387v55h194v-28Q892-20 500-20q-213 0-318.5 123.5T76 461zm192 311h449v146q-1 151-56.5 213.5T498 1194q-114 0-172-69.5T268 895V772z"/><glyph glyph-name="f" unicode="f" horiz-adv-x="722" d="M20 1331h207v51q0 51 5.5 89.5T255 1550t46 66 79.5 42.5T500 1675q104 0 202-20v-144q-67 13-131 13-50 0-81.5-9.5t-47.5-31-21-46-5-63.5v-88q25 21 74 31.5t90 12 122 1.5v-160H416V0H227v1171H20v160z"/><glyph glyph-name="g" unicode="g" horiz-adv-x="1019" d="M723 18v146q-16-34-39.5-64T624 41.5t-88-45T422-20Q259-20 169.5 92T80 408v526q0 197 90 307.5T424 1352q189 0 299-170v149h188V2q0-115-16.5-191.5t-58-131.5T723-401t-182-25H137v160h373q124 0 168.5 62T723 18zM272 422q0-283 215-283 105 0 165.5 69T723 383v567q-10 105-70.5 174.5T487 1194q-215 0-215-285V422z"/><glyph glyph-name="h" unicode="h" d="M299 1655v-494q38 80 112.5 135.5T606 1352q314 0 314-408V0H731v934q0 131-46.5 195.5T535 1194q-53 0-95-18t-68-46-43-66-23.5-75-6.5-76V0H111v1655h188z"/><glyph glyph-name="i" unicode="i" horiz-adv-x="409" d="M111 1331h188V0H111v1331zm-35 234q0 49 34 79.5t95 30.5 95-30.5 34-79.5q0-46-34-76.5t-95-30.5-95 30.5-34 76.5z"/><glyph glyph-name="j" unicode="j" horiz-adv-x="409" d="M111-8v1339h188V-25q0-110-16.5-183T226-331t-107.5-72.5T-51-426h-144v160h109q116 0 156.5 55T111-8zM76 1565q0 49 34 79.5t95 30.5 95-30.5 34-79.5q0-46-34-76.5t-95-30.5-95 30.5-34 76.5z"/><glyph glyph-name="k" unicode="k" horiz-adv-x="962" d="M111 1655h188V748h53l385 583h217L498 666 954 0H737L348 590h-49V0H111v1655z"/><glyph glyph-name="l" unicode="l" horiz-adv-x="409" d="M111 1655h188V0H111v1655z"/><glyph glyph-name="m" unicode="m" horiz-adv-x="1527" d="M1237 944q0 56-6 95.5t-22.5 77.5-51 57.5-86.5 19.5q-58 0-100.5-24.5t-65-65.5-33-84.5T862 928V0H674v944q0 55-6 94.5t-22.5 77.5-51 58-86.5 20q-57 0-99.5-24.5t-65.5-65-33.5-85T299 928V0H111v1331h188v-160q34 81 103 131t178 50q213 0 262-193 100 193 299 193 81 0 137.5-27.5t88-81.5 45-122 13.5-160V0h-188v944z"/><glyph glyph-name="n" unicode="n" d="M299 1331v-166q38 77 112.5 132t192.5 55q314 0 314-408V0H729v934q0 131-47 195.5T532 1194q-59 0-104-21t-71-56.5-40-76-18-86.5V0H111v1331h188z"/><glyph glyph-name="o" unicode="o" horiz-adv-x="989" d="M494-20q-209 0-313.5 123.5T76 461v409q0 233 104 357.5T494 1352q211 0 314-124t103-358V461q0-234-103.5-357.5T494-20zM268 436q0-158 57.5-228.5T494 137q112 0 169.5 70T721 436v459q0 159-57.5 229T494 1194q-111 0-168.5-70.5T268 895V436z"/><glyph glyph-name="p" unicode="p" d="M299 1331v-168q16 35 39.5 65t59.5 59.5 88.5 47T602 1352q163 0 252.5-112T944 924V397q0-196-89.5-306.5T600-20q-192 0-301 174v-580H111v1757h188zm0-907q0-122 61-204.5T537 137q215 0 215 285v487q0 283-215 283-79 0-134-41t-79.5-104T299 905V424z"/><glyph glyph-name="q" unicode="q" horiz-adv-x="1019" d="M723-426v590q-16-34-39.5-64T624 41.5t-88-45T422-20Q259-20 169.5 92T80 408v526q0 197 90 307.5T424 1352q189 0 299-170v149h188V-426H723zM272 422q0-283 215-283 105 0 165.5 69T723 383v567q-10 105-70.5 174.5T487 1194q-215 0-215-285V422z"/><glyph glyph-name="r" unicode="r" horiz-adv-x="899" d="M299 1331v-166q38 81 110.5 134t178.5 53q278 0 278-361V858H678v98q0 123-36.5 180.5T516 1194q-61 0-106.5-29.5t-68-76-32.5-92-10-89.5V0H111v1331h188z"/><glyph glyph-name="s" unicode="s" horiz-adv-x="942" d="M643 698q128-71 182-149t54-203q0-60-11.5-111.5T827 135t-73.5-81.5T639 0 479-20Q264-20 160.5 81T57 371v82h193v-80q0-126 53.5-181T479 137q109 0 159 48.5T688 334q0 78-35 126.5T522 565L307 690q-114 61-171.5 136T78 1018q0 67 20.5 124t63.5 105.5 121 76.5 184 28q403 0 403-379v-64H678v62q0 122-52 172.5T467 1194q-93 0-145-41.5T270 1028q0-65 32-107.5T412 834z"/><glyph glyph-name="t" unicode="t" horiz-adv-x="720" d="M674 1331v-160H399V373q0-131 25-172t104-41h146V0H467q-65 0-111 15t-74 41-44 69.5-21.5 92T211 336v835H20v160h27q99 21 150 109.5t49 214.5h188q0-122-45.5-212.5T276 1331h398z"/><glyph glyph-name="u" unicode="u" d="M723 0v170q-17-36-41-66.5t-60.5-60T532-3 416-20q-314 0-314 407v944h189V397q0-131 46.5-195.5T487 137q53 0 95 18t68 46 43 66 23.5 75 6.5 76v913h188V0H723z"/><glyph glyph-name="v" unicode="v" horiz-adv-x="905" d="M25 1331h192L453 188l233 1143h195L578 0H328z"/><glyph glyph-name="w" unicode="w" horiz-adv-x="1495" d="M29 1331h190L424 190l213 1141h221l215-1141 205 1141h186L1196 0H967L745 1163 522 0H299z"/><glyph glyph-name="x" unicode="x" horiz-adv-x="931" d="M2 0l352 688-323 643h207l233-479 234 479h196L575 688 928 0H721L461 524 199 0H2z"/><glyph glyph-name="y" unicode="y" horiz-adv-x="1017" d="M721 12v158q-17-36-41-66.5t-60.5-60T530-3 414-20q-314 0-314 407v944h189V397q0-131 46.5-195.5T485 137q53 0 95 18t68 46 43 66 23.5 75 6.5 76v913h188V10q0-117-17-195t-59-134-113.5-81.5T539-426H139v160h365q126 0 171.5 60.5T721 12z"/><glyph glyph-name="z" unicode="z" horiz-adv-x="860" d="M51 1331h758v-160L256 160h551V0H53v160l551 1011H51v160z"/><glyph glyph-name="braceleft" unicode="{" horiz-adv-x="522" d="M68 823q79 0 79 181v372q0 185 64.5 270t194.5 85h88v-93h-86q-84 0-121-65t-37-189v-374q0-109-18.5-162T160 762v-92q53-33 71.5-86T250 422V45q0-124 37-188t121-64h86v-92h-88q-130 0-194.5 84T147 53v375q0 180-79 180v215z"/><glyph glyph-name="bar" unicode="|" horiz-adv-x="346" d="M121-20v1691h102V-20H121z"/><glyph glyph-name="braceright" unicode="}" horiz-adv-x="522" d="M455 608q-80 0-80-180V55q0-186-64-270t-194-84H29v92h86q84 0 120.5 64.5T272 47v375q0 109 18.5 162t71.5 86v92q-53 33-71.5 86T272 1010v376q0 124-36.5 188T115 1638H29v93h88q130 0 194-84.5t64-268.5v-374q0-181 80-181V608z"/><glyph glyph-name="asciitilde" unicode="~" horiz-adv-x="1167" d="M78 721q0 74 23 126.5t62 77.5 79 35.5 86 10.5q64 0 124.5-20.5T560 900t91.5-59.5 94.5-50 98-20.5q67 0 106 38t39 110h105q0-74-23.5-126.5t-63-77.5-79-35.5T844 668q-64 0-125 20.5t-108 50-91.5 59-94.5 50-99 20.5q-67 0-106.5-38T180 721H78z"/><glyph glyph-name="uni00A0" horiz-adv-x="460"/><glyph glyph-name="exclamdown" unicode="¡" horiz-adv-x="425" d="M307-324H119l10 1143h172zM78 1219q0 59 39 96t96 37q58 0 96.5-37t38.5-96q0-62-38.5-100t-96.5-38q-57 0-96 38t-39 100z"/><glyph glyph-name="cent" unicode="¢" d="M465-143v286q-190 15-284.5 138T86 623v409q0 218 95 341t284 138v287h98v-287q369-23 379-448V961H762v120q-4 133-54 197.5T563 1354V301q96 11 146 75.5T762 573v121h180V592q-5-205-99-321T563 143v-286h-98zM266 602q0-143 50.5-214T465 303v1049q-97-14-148-86t-51-215V602z"/><glyph glyph-name="sterling" unicode="£" horiz-adv-x="1048" d="M68 135q95 75 139.5 163T252 508q0 54-10 119H68v98h153q-7 28-30.5 109.5T156 961t-22 123-11 153q0 220 116 329t316 109q201 0 313.5-112.5T981 1229v-119H784v131q0 141-56 210t-171 69q-240 0-240-283 0-98 14.5-180.5t49.5-196T422 725h414v-98H440q6-43 6-88 0-121-40.5-212.5T279 156h702V0H68v135z"/><glyph glyph-name="currency" unicode="¤" horiz-adv-x="854" d="M428 418q-95 0-168 51L145 315l-71 70 119 156q-76 109-76 278t76 281L74 1253l71 70 117-154q71 52 166 52t166-52l117 154 71-70-118-155q75-107 75-279 0-170-75-280l118-154-71-70-117 154q-70-51-166-51zM219 819q0-142 52.5-225.5T428 510q103 0 156 84t53 225-53 225-156 84q-104 0-156.5-83.5T219 819z"/><glyph glyph-name="yen" unicode="¥" horiz-adv-x="1040" d="M113 561v82h286L33 1655h209l278-834 279 834h207L641 643h285v-82H618v-86h308v-82H618V0H422v393H113v82h309v86H113z"/><glyph glyph-name="brokenbar" unicode="¦" horiz-adv-x="346" d="M121 1012v659h102v-659H121zm0-1032v659h102V-20H121z"/><glyph glyph-name="section" unicode="§" horiz-adv-x="985" d="M520-20Q303-20 205 81T104 373h105q2-157 77-234.5T522 61q275 0 275 213 0 134-115 170L262 557q-109 34-149.5 88.5T72 774q0 152 131 191-119 74-119 215 0 150 103 223.5t284 73.5q113 0 192.5-27t126-80 67.5-123 22-164H776q-2 159-72.5 235.5T469 1395q-135 0-209-53t-74-158q0-132 117-170l422-113q99-28 142.5-82.5T911 682q0-149-125-190 113-69 113-213 0-152-99-225.5T520-20zM176 778q0-56 27.5-88.5T291 639l336-84q48-16 80.5-10t52.5 17.5 31 34.5 14.5 41 3.5 38q0 57-27.5 91.5T694 819l-338 88q-52 12-86.5 6.5t-55.5-29-29.5-50T176 778z"/><glyph glyph-name="dieresis" unicode="¨" horiz-adv-x="952" d="M666 1456q-46 0-77.5 27t-31.5 73q0 50 31 77.5t78 27.5q46 0 78-27.5t32-77.5q0-45-32.5-72.5T666 1456zm-488 100q0 50 31 77.5t78 27.5q46 0 78-27.5t32-77.5q0-45-32.5-72.5T287 1456q-46 0-77.5 27t-31.5 73z"/><glyph glyph-name="copyright" unicode="©" horiz-adv-x="1626" d="M813-20q-158 0-284 45.5t-209 123-138 187-78.5 231T80 827t23.5 261 78.5 231 138 187 209 123.5 284 45.5 284-45.5 209-123.5 138-187 78.5-231 23.5-261-23.5-260.5-78.5-231-138-187-209-123T813-20zM186 827q0-745 627-745 137 0 244.5 38.5T1236 226t117.5 162.5T1420 592t20 235-20 235.5-66.5 204T1236 1429t-178.5 105.5T813 1573t-244.5-38.5T390 1429t-117.5-162.5-66.5-204T186 827zm168 2q0 98 15 181.5t50.5 157.5 89 126.5T643 1377t184 30q92 0 164.5-25.5T1112 1314t80.5-103 48.5-126.5 21-142.5h-142q-7 62-15.5 103.5t-28 89-49 75.5-79 47-117.5 19q-98 0-165.5-33.5t-103.5-97-51-139.5-15-177q0-81 8.5-145.5t31.5-123 59.5-97.5 95-61.5T827 379q50 0 90 10t68 26 50 43 35 52.5 23 63.5 15 67.5 10 71.5h142q-32-465-433-465-103 0-184 30t-134.5 81.5-89 126-50.5 159T354 829z"/><glyph glyph-name="ordfeminine" unicode="ª" horiz-adv-x="669" d="M451 864v119q-54-131-199-131-85 0-135.5 51T66 1053q0 154 178 241l57 27q83 44 106 64 38 35 39 79v11q0 92-106 92-60 0-92.5-32t-32.5-93v-51H84v32q0 117 62 184.5t194 67.5q238 0 238-231V864H451zm-252 207q0-102 98-102 68 0 108.5 57.5T446 1186v129q-4-17-20.5-33t-29.5-23.5-43-23.5q-3-2-4-2.5l-3-1.5-4-2-49-27q-94-48-94-131z"/><glyph glyph-name="guillemotleft" unicode="«" horiz-adv-x="813" d="M418 291L63 633v86l355 342V922L160 676l258-246V291zm-56 342v86l355 342V922L459 676l258-246V291z"/><glyph glyph-name="logicalnot" unicode="¬" horiz-adv-x="1189" d="M985 633v285H78v92h1009V633H985z"/><glyph glyph-name="registered" unicode="®" horiz-adv-x="1013" d="M506 750q-76 0-134.5 27.5t-92.5 69-55.5 99T195 1054t-7 105 7 105 28.5 108.5T279 1472t92.5 69.5T506 1569t134.5-27.5 92-69.5 55-99.5T816 1264t7-105-7-105-28.5-108.5-55-99-92-69T506 750zM74 1159q0-71 12-139t42.5-138 78-121.5T331 676t175-33 175 33 124.5 84.5 78 121.5 42.5 138 12 139-12 139-42.5 138-78 121.5T681 1642t-175 33-175-33-124.5-84.5-78-121.5T86 1298t-12-139zm252-274v563h172q94 0 149-35t55-125q0-105-102-147 100-32 100-146v-51q0-48 9-59H580q-11 14-11 59v51q0 49-16.5 67.5T496 1081h-39V885H326zm131 315h41q42 0 57.5 16t15.5 52-18 48.5-55 12.5h-41v-129z"/><glyph glyph-name="macron" unicode="¯" horiz-adv-x="1099" d="M205 1528v82h690v-82H205z"/><glyph glyph-name="degree" unicode="°" horiz-adv-x="663" d="M332 1153q-160 0-160 215t160 215 160-215-160-215zM70 1368q0-61 14.5-114t44-97.5 81.5-70 122-25.5 122 25.5 81.5 70 44 97.5 14.5 114-14.5 114-44 97.5-81.5 70-122 25.5-122-25.5-81.5-70-44-97.5T70 1368z"/><glyph glyph-name="plusminus" unicode="±" horiz-adv-x="1142" d="M623 1241V868h452v-90H623V492h452v-93H68v93h452v286H68v90h452v373h103z"/><glyph glyph-name="uni00B2" unicode="²" horiz-adv-x="557" d="M47 813q0 101 36 169.5T211 1104l76 49q53 30 76.5 68.5T387 1321v16q0 58-25 80.5t-77 22.5q-56 0-82.5-25.5T176 1325v-59H53v45q0 111 58 170t172 59q112 0 170.5-57.5T512 1315q0-169-147-250l-86-55q-67-37-87-78t-20-129h338V702H47v111z"/><glyph glyph-name="uni00B3" unicode="³" horiz-adv-x="557" d="M276 692q-118 0-175 55T43 918v40h123v-53q1-64 27.5-89t80.5-25q57 0 83 25.5t26 82.5v70q0 63-29 85.5t-75 22.5h-84v101h81q103 0 103 98v61q0 57-27 81t-78 24q-50 0-76.5-24.5T170 1333v-49H47v35q1 112 58 166.5t171 54.5q63 0 109.5-19.5t70.5-52 35-66.5 11-71v-24q0-135-109-174 113-39 113-189v-29q0-223-230-223z"/><glyph glyph-name="acute" unicode="´" horiz-adv-x="1075" d="M225 1462l-20 78 645 152 20-80z"/><glyph glyph-name="paragraph" unicode="¶" horiz-adv-x="802" d="M578 1655h102V0H578v1655zM43 1294q0 112 18 183.5t59.5 110.5 96 53 139.5 14h103V0H356v936q-85 0-139.5 14t-96 52T61 1111t-18 183z"/><glyph glyph-name="periodcentered" unicode="·" horiz-adv-x="411" d="M207 557q-58 0-96.5 37T72 690q0 62 38.5 99.5T207 827q57 0 96-38t39-99q0-59-39-96t-96-37z"/><glyph glyph-name="cedilla" unicode="¸" horiz-adv-x="784" d="M207-338q143 0 200.5 15t57.5 63q0 51-56 60t-165-9L295 0h94l-33-131q224 30 224-127 0-89-87-127.5T205-424z"/><glyph glyph-name="uni00B9" unicode="¹" horiz-adv-x="464" d="M45 803h139v583q-48-55-141-55v109q104 0 152 90h108V803h141V702H45v101z"/><glyph glyph-name="ordmasculine" unicode="º" horiz-adv-x="659" d="M330 852q-256 0-256 293v237q0 142 64 217.5t192 75.5 192-75 64-218v-237q0-143-64-218t-192-75zm-123 272q0-85 30.5-123t92.5-38q61 0 91 38t30 123v279q0 85-30 123.5t-91 38.5q-62 0-92.5-38T207 1403v-279z"/><glyph glyph-name="guillemotright" unicode="»" horiz-adv-x="813" d="M395 291v139l258 246-258 246v139l355-342v-86zm-299 0v139l258 246L96 922v139l355-342v-86z"/><glyph glyph-name="onequarter" unicode="¼" horiz-adv-x="1378" d="M59 928h140v583q-48-55-142-55v109q104 0 152 90h108V928h142V827H59v101zM291 0l670 1655h98L389 0h-98zm577 160v110l293 557h115V260h65V160h-65V0h-121v160H868zm93 100h194v369z"/><glyph glyph-name="onehalf" unicode="½" horiz-adv-x="1447" d="M59 928h140v583q-48-55-142-55v109q104 0 152 90h108V928h142V827H59v101zM291 0l672 1655h96L389 0h-98zm633 0v111q0 101 35.5 169T1087 401l76 50q53 30 77 68.5t24 98.5v17q0 57-25 79.5t-78 22.5q-56 0-82-25t-26-89v-60H930v45q0 112 57.5 171t171.5 59q112 0 171-58t59-168q0-168-148-250l-86-55q-67-37-86.5-78T1049 100h337V0H924z"/><glyph glyph-name="threequarters" unicode="¾" horiz-adv-x="1458" d="M289 817q-118 0-175.5 54.5T55 1042v41h123v-53q1-64 28-89.5t81-25.5q57 0 82.5 26t25.5 83v70q0 63-29 85.5t-75 22.5h-84v101h82q102 0 102 98v61q0 57-26.5 81t-77.5 24q-50 0-77-24.5t-28-84.5v-49H59v35q3 221 230 221 63 0 109.5-19.5t70.5-52 34.5-66.5 10.5-71v-24q0-136-108-175 112-39 112-188v-29q0-223-229-223zM371 0l669 1655h99L469 0h-98zm577 160v110l293 557h115V260h65V160h-65V0h-121v160H948zm92 100h195v369z"/><glyph glyph-name="questiondown" unicode="¿" horiz-adv-x="901" d="M444-344q-203 0-303 105T41 37q0 72 18.5 133.5t48 107.5 65.5 88.5 72 87 65.5 93 48 116T377 809v29h172v-35q0-87-17-161t-44.5-126.5-60.5-99-66.5-88-61-84-44.5-97T238 31q0-111 52-164t156-53q117 0 168.5 66.5T666 80v96h194v-72q0-97-22.5-176T767-213t-130-96.5T444-344zM328 1219q0 59 39 96t96 37q58 0 96.5-37t38.5-96q0-62-38.5-100t-96.5-38q-57 0-96 38t-39 100z"/><glyph glyph-name="Agrave" unicode="À" horiz-adv-x="1007" d="M27 0l342 1655h268L979 0H778l-63 336H291L227 0H27zm131 1927l20 80 670-152-21-77zM322 500h362l-178 946-4 14-2-10z"/><glyph glyph-name="Aacute" unicode="Á" horiz-adv-x="1007" d="M27 0l342 1655h268L979 0H778l-63 336H291L227 0H27zm143 1864l645 151 21-80-646-149zM322 500h362l-178 946-4 14-2-10z"/><glyph glyph-name="Acircumflex" unicode="Â" horiz-adv-x="1007" d="M27 0l342 1655h268L979 0H778l-63 336H291L227 0H27zm163 1782l244 237h144l239-237H678l-172 174-176-174H190zM322 500h362l-178 946-4 14-2-10z"/><glyph glyph-name="Atilde" unicode="Ã" horiz-adv-x="1007" d="M27 0l342 1655h268L979 0H778l-63 336H291L227 0H27zm145 1798q0 59 15 101.5t42 65.5 58 33.5 69 10.5q47 0 83.5-15.5T499 1956t43-43.5 45.5-37T643 1860q88 0 88 127h103q0-114-53-162.5T647 1776q-48 0-85.5 15.5t-60.5 37-42.5 43.5-43.5 37.5-53 15.5q-88 0-88-127H172zM322 500h362l-178 946-4 14-2-10z"/><glyph glyph-name="Adieresis" unicode="Ä" horiz-adv-x="1007" d="M27 0l342 1655h268L979 0H778l-63 336H291L227 0H27zm178 1880q0 50 30.5 77.5T313 1985q46 0 78.5-27.5T424 1880q0-45-33-72.5t-78-27.5q-46 0-77 27t-31 73zM322 500h362l-178 946-4 14-2-10zm262 1380q0 50 30.5 77.5T692 1985q46 0 78.5-27.5T803 1880q0-45-33-72.5t-78-27.5q-46 0-77 27t-31 73z"/><glyph glyph-name="Aring" unicode="Å" horiz-adv-x="1007" d="M27 0l342 1655h268L979 0H778l-63 336H291L227 0H27zm295 500h362l-178 946-4 14-2-10zm16 1413q0 71 49.5 118.5T504 2079t116.5-47.5T670 1913t-49.5-118.5T504 1747t-116.5 47.5T338 1913zm84 0q0-37 22-59.5t60-22.5 60 22.5 22 59.5-22 59.5-60 22.5-60-22.5-22-59.5z"/><glyph glyph-name="AE" unicode="Æ" horiz-adv-x="1335" d="M14 0l406 1655h844v-164H836V909h403V745H836V164h428V0H639v354H297L211 0H14zm322 518h303v973h-70z"/><glyph glyph-name="Ccedilla" unicode="Ç" horiz-adv-x="1101" d="M424-338q143 0 200.5 15t57.5 63q0 51-56 60t-165-9l47 191Q296-3 191 136T86 510v637q0 248 118 388t357 140q228 0 345-130.5t120-360.5l2-205H827l-2 242q-3 292-264 292-276 0-276-327V471q0-170 70-250t206-80q261 0 264 295l2 242h201l-2-205q-3-220-109.5-349.5T602-18l-29-113q224 30 224-127 0-89-87-127.5T422-424z"/><glyph glyph-name="Egrave" unicode="È" horiz-adv-x="929" d="M117 0v1655h741v-164H313V909h521V745H313V164h545V0H117zm26 1927l21 80 670-152-21-77z"/><glyph glyph-name="Eacute" unicode="É" horiz-adv-x="929" d="M117 0v1655h741v-164H313V909h521V745H313V164h545V0H117zm39 1864l645 151 20-80-645-149z"/><glyph glyph-name="Ecircumflex" unicode="Ê" horiz-adv-x="929" d="M117 0v1655h741v-164H313V909h521V745H313V164h545V0H117zm59 1782l244 237h143l240-237H664l-172 174-177-174H176z"/><glyph glyph-name="Edieresis" unicode="Ë" horiz-adv-x="929" d="M117 0v1655h741v-164H313V909h521V745H313V164h545V0H117zm73 1880q0 50 31 77.5t78 27.5q46 0 78.5-27.5T410 1880q0-45-33-72.5t-78-27.5q-46 0-77.5 27t-31.5 73zm379 0q0 50 31 77.5t78 27.5q46 0 78-27.5t32-77.5q0-45-32.5-72.5T678 1780q-46 0-77.5 27t-31.5 73z"/><glyph glyph-name="Igrave" unicode="Ì" horiz-adv-x="595" d="M92 0v176h109v1303H92v176h412v-176H395V176h109V0H92zM-49 1927l20 80 670-152-20-77z"/><glyph glyph-name="Iacute" unicode="Í" horiz-adv-x="595" d="M92 0v176h109v1303H92v176h412v-176H395V176h109V0H92zM-37 1864l645 151 21-80-645-149z"/><glyph glyph-name="Icircumflex" unicode="Î" horiz-adv-x="595" d="M92 0v176h109v1303H92v176h412v-176H395V176h109V0H92zM-16 1782l243 237h144l239-237H471l-172 174-176-174H-16z"/><glyph glyph-name="Idieresis" unicode="Ï" horiz-adv-x="595" d="M92 0v176h109v1303H92v176h412v-176H395V176h109V0H92zM-2 1880q0 50 30.5 77.5T106 1985q46 0 78.5-27.5T217 1880q0-45-33-72.5t-78-27.5q-46 0-77 27t-31 73zm379 0q0 50 30.5 77.5T485 1985q46 0 78.5-27.5T596 1880q0-45-33-72.5t-78-27.5q-46 0-77 27t-31 73z"/><glyph glyph-name="Eth" unicode="Ð" horiz-adv-x="1179" d="M178 0v782H27v111h151v762h406q130 0 220.5-24t157.5-82 98.5-159.5T1092 1137V518q0-150-32-251.5t-98.5-160-157-82.5T584 0H178zm197 156h211q116 0 180 29t95.5 103T893 496v663q0 197-68 268.5T584 1499H375V893h291V782H375V156z"/><glyph glyph-name="Ntilde" unicode="Ñ" horiz-adv-x="1142" d="M117 0v1655h184L844 436v1219h182V0H842L299 1219V0H117zm123 1798q0 59 15 101.5t42 65.5 58 33.5 69 10.5q47 0 83.5-15.5T567 1956t43-43.5 45.5-37T711 1860q88 0 88 127h102q0-115-52.5-163T715 1776q-48 0-85.5 15.5t-60.5 37-42.5 43.5-43.5 37.5-53 15.5q-88 0-88-127H240z"/><glyph glyph-name="Ograve" unicode="Ò" horiz-adv-x="1120" d="M559-20q-237 0-355 140.5T86 508v639q0 246 118.5 387T559 1675q237 0 356-141t119-387V508q0-246-119-387T559-20zM213 1927l20 80 670-152-20-77zm72-1456q0-328 274-328 275 0 275 328v711q0 329-275 329-274 0-274-327V471z"/><glyph glyph-name="Oacute" unicode="Ó" horiz-adv-x="1120" d="M559-20q-237 0-355 140.5T86 508v639q0 246 118.5 387T559 1675q237 0 356-141t119-387V508q0-246-119-387T559-20zM225 1864l645 151 21-80-645-149zm60-1393q0-328 274-328 275 0 275 328v711q0 329-275 329-274 0-274-327V471z"/><glyph glyph-name="Ocircumflex" unicode="Ô" horiz-adv-x="1120" d="M559-20q-237 0-355 140.5T86 508v639q0 246 118.5 387T559 1675q237 0 356-141t119-387V508q0-246-119-387T559-20zM246 1782l243 237h144l239-237H733l-172 174-176-174H246zm39-1311q0-328 274-328 275 0 275 328v711q0 329-275 329-274 0-274-327V471z"/><glyph glyph-name="Otilde" unicode="Õ" horiz-adv-x="1120" d="M559-20q-237 0-355 140.5T86 508v639q0 246 118.5 387T559 1675q237 0 356-141t119-387V508q0-246-119-387T559-20zM227 1798q0 113 52 162t133 49q47 0 83.5-15.5T555 1956t43-43.5 45-37 55-15.5q88 0 88 127h103q0-114-53-162.5T702 1776q-48 0-85.5 15.5t-60 37-42 43.5-43.5 37.5-53 15.5q-88 0-88-127H227zm58-1327q0-328 274-328 275 0 275 328v711q0 329-275 329-274 0-274-327V471z"/><glyph glyph-name="Odieresis" unicode="Ö" horiz-adv-x="1120" d="M559-20q-237 0-355 140.5T86 508v639q0 246 118.5 387T559 1675q237 0 356-141t119-387V508q0-246-119-387T559-20zM260 1880q0 50 31 77.5t78 27.5q46 0 78-27.5t32-77.5q0-45-32.5-72.5T369 1780q-46 0-77.5 27t-31.5 73zm25-1409q0-328 274-328 275 0 275 328v711q0 329-275 329-274 0-274-327V471zm354 1409q0 50 31 77.5t78 27.5q46 0 78-27.5t32-77.5q0-45-32.5-72.5T748 1780q-46 0-77.5 27t-31.5 73z"/><glyph glyph-name="multiply" unicode="×" horiz-adv-x="905" d="M127 1208l326-323 325 325 62-61-326-328 326-325-62-62-327 326-324-324-61 62 323 323-323 324z"/><glyph glyph-name="Oslash" unicode="Ø" horiz-adv-x="1120" d="M559-20q-171 0-287 77l-30-69H127l66 147Q86 269 86 508v639q0 246 118.5 387T559 1675q173 0 289-80l33 74h114l-67-149q106-135 106-373V508q0-246-119-387T559-20zM285 471q0-56 10-111l475 1063q-70 88-211 88-274 0-274-327V471zm65-242q71-86 209-86 275 0 275 328v711q0 60-9 106z"/><glyph glyph-name="Ugrave" unicode="Ù" horiz-adv-x="1122" d="M561-20q-237 0-343.5 121T111 471v1184h198V438q0-88 16.5-146.5t50-91.5 78-46T561 141t107.5 13 79 45.5 51 91.5T815 438v1217h199V471q0-249-108.5-370T561-20zM215 1927l21 80 669-152-20-77z"/><glyph glyph-name="Uacute" unicode="Ú" horiz-adv-x="1122" d="M561-20q-237 0-343.5 121T111 471v1184h198V438q0-88 16.5-146.5t50-91.5 78-46T561 141t107.5 13 79 45.5 51 91.5T815 438v1217h199V471q0-249-108.5-370T561-20zM227 1864l645 151 21-80-645-149z"/><glyph glyph-name="Ucircumflex" unicode="Û" horiz-adv-x="1122" d="M561-20q-237 0-343.5 121T111 471v1184h198V438q0-88 16.5-146.5t50-91.5 78-46T561 141t107.5 13 79 45.5 51 91.5T815 438v1217h199V471q0-249-108.5-370T561-20zM248 1782l244 237h143l239-237H735l-172 174-176-174H248z"/><glyph glyph-name="Udieresis" unicode="Ü" horiz-adv-x="1122" d="M561-20q-237 0-343.5 121T111 471v1184h198V438q0-88 16.5-146.5t50-91.5 78-46T561 141t107.5 13 79 45.5 51 91.5T815 438v1217h199V471q0-249-108.5-370T561-20zM262 1880q0 50 31 77.5t78 27.5q46 0 78-27.5t32-77.5q0-45-32.5-72.5T371 1780q-46 0-77.5 27t-31.5 73zm379 0q0 50 31 77.5t78 27.5q46 0 78-27.5t32-77.5q0-45-32.5-72.5T750 1780q-46 0-77.5 27t-31.5 73z"/><glyph glyph-name="Yacute" unicode="Ý" horiz-adv-x="995" d="M399 0v580L10 1655h209l279-834 278 834h207L596 580V0H399zM164 1864l645 151 20-80-645-149z"/><glyph glyph-name="Thorn" unicode="Þ" horiz-adv-x="1091" d="M117 0v1655h192v-289h244q252 0 360.5-118T1022 862v-55q0-269-109-391.5T553 293H309V0H117zm192 457h256q138 0 198 73t60 240v131q0 165-59 232t-199 67H309V457z"/><glyph glyph-name="germandbls" unicode="ß" horiz-adv-x="1030" d="M111 0v1255q0 208 98 314t313 106q209 0 308.5-100t99.5-285v-76q0-269-201-346 118-39 178-132t60-251v-55Q967 0 569 0H387v158h150q126 2 181.5 61.5T774 428v88q0 57-11 101t-38 82.5-80 59.5-129 21l-129 2v156l123 2q127 0 180 58.5t53 183.5v106q0 128-54.5 180T522 1520q-56 0-95.5-12t-69-41-44-81-14.5-129V0H111z"/><glyph glyph-name="agrave" unicode="à" horiz-adv-x="993" d="M705 0v195Q660 85 572.5 32.5T371-20q-143 0-228.5 83T57 311q0 263 293 400l96 45q37 18 53 26t49.5 26.5 50 31 40 33.5 35 39.5 20 43.5 8.5 52v18q0 77-46 122.5T508 1194q-111 0-171.5-57.5T276 963v-80H86v57q0 88 23 160.5t71.5 130 131 89.5 194.5 32q108 0 185-28t119.5-80 61.5-116 19-147V0H705zM150 1604l20 79 670-151-21-78zm98-1270q0-91 46-140t138-49q122 0 196 103.5T702 532v246q-4-13-11.5-25.5T676 731t-22-21-23-18.5-28.5-19-28-16.5-33-18-31.5-17l-86-46q-85-44-130.5-101.5T248 334z"/><glyph glyph-name="aacute" unicode="á" horiz-adv-x="993" d="M705 0v195Q660 85 572.5 32.5T371-20q-143 0-228.5 83T57 311q0 263 293 400l96 45q37 18 53 26t49.5 26.5 50 31 40 33.5 35 39.5 20 43.5 8.5 52v18q0 77-46 122.5T508 1194q-111 0-171.5-57.5T276 963v-80H86v57q0 88 23 160.5t71.5 130 131 89.5 194.5 32q108 0 185-28t119.5-80 61.5-116 19-147V0H705zM162 1540l645 152 20-80-645-150zm86-1206q0-91 46-140t138-49q122 0 196 103.5T702 532v246q-4-13-11.5-25.5T676 731t-22-21-23-18.5-28.5-19-28-16.5-33-18-31.5-17l-86-46q-85-44-130.5-101.5T248 334z"/><glyph glyph-name="acircumflex" unicode="â" horiz-adv-x="993" d="M705 0v195Q660 85 572.5 32.5T371-20q-143 0-228.5 83T57 311q0 263 293 400l96 45q37 18 53 26t49.5 26.5 50 31 40 33.5 35 39.5 20 43.5 8.5 52v18q0 77-46 122.5T508 1194q-111 0-171.5-57.5T276 963v-80H86v57q0 88 23 160.5t71.5 130 131 89.5 194.5 32q108 0 185-28t119.5-80 61.5-116 19-147V0H705zM182 1458l244 238h143l240-238H670l-172 174-176-174H182zm66-1124q0-91 46-140t138-49q122 0 196 103.5T702 532v246q-4-13-11.5-25.5T676 731t-22-21-23-18.5-28.5-19-28-16.5-33-18-31.5-17l-86-46q-85-44-130.5-101.5T248 334z"/><glyph glyph-name="atilde" unicode="ã" horiz-adv-x="993" d="M705 0v195Q660 85 572.5 32.5T371-20q-143 0-228.5 83T57 311q0 263 293 400l96 45q37 18 53 26t49.5 26.5 50 31 40 33.5 35 39.5 20 43.5 8.5 52v18q0 77-46 122.5T508 1194q-111 0-171.5-57.5T276 963v-80H86v57q0 88 23 160.5t71.5 130 131 89.5 194.5 32q108 0 185-28t119.5-80 61.5-116 19-147V0H705zM164 1475q0 59 15 101.5t42 65.5 58 33.5 69 10.5q47 0 83.5-15.5T491 1633t43-44 45.5-37.5T635 1536q88 0 88 127h102q0-115-52.5-163T639 1452q-48 0-85.5 15.5T493 1505t-42.5 44-43.5 37.5-53 15.5q-88 0-88-127H164zm84-1141q0-91 46-140t138-49q122 0 196 103.5T702 532v246q-4-13-11.5-25.5T676 731t-22-21-23-18.5-28.5-19-28-16.5-33-18-31.5-17l-86-46q-85-44-130.5-101.5T248 334z"/><glyph glyph-name="adieresis" unicode="ä" horiz-adv-x="993" d="M705 0v195Q660 85 572.5 32.5T371-20q-143 0-228.5 83T57 311q0 263 293 400l96 45q37 18 53 26t49.5 26.5 50 31 40 33.5 35 39.5 20 43.5 8.5 52v18q0 77-46 122.5T508 1194q-111 0-171.5-57.5T276 963v-80H86v57q0 88 23 160.5t71.5 130 131 89.5 194.5 32q108 0 185-28t119.5-80 61.5-116 19-147V0H705zM197 1556q0 50 30.5 77.5T305 1661q46 0 78.5-27.5T416 1556q0-45-33-72.5t-78-27.5q-46 0-77 27t-31 73zm51-1222q0-91 46-140t138-49q122 0 196 103.5T702 532v246q-4-13-11.5-25.5T676 731t-22-21-23-18.5-28.5-19-28-16.5-33-18-31.5-17l-86-46q-85-44-130.5-101.5T248 334zm327 1222q0 50 31 77.5t78 27.5q46 0 78.5-27.5T795 1556q0-45-33-72.5t-78-27.5q-46 0-77.5 27t-31.5 73z"/><glyph glyph-name="aring" unicode="å" horiz-adv-x="993" d="M705 0v195Q660 85 572.5 32.5T371-20q-143 0-228.5 83T57 311q0 263 293 400l96 45q37 18 53 26t49.5 26.5 50 31 40 33.5 35 39.5 20 43.5 8.5 52v18q0 77-46 122.5T508 1194q-111 0-171.5-57.5T276 963v-80H86v57q0 88 23 160.5t71.5 130 131 89.5 194.5 32q108 0 185-28t119.5-80 61.5-116 19-147V0H705zM248 334q0-91 46-140t138-49q122 0 196 103.5T702 532v246q-4-13-11.5-25.5T676 731t-22-21-23-18.5-28.5-19-28-16.5-33-18-31.5-17l-86-46q-85-44-130.5-101.5T248 334zm82 1255q0 71 49.5 118.5T496 1755t116.5-47.5T662 1589t-49.5-118.5T496 1423t-116.5 47.5T330 1589zm84 0q0-37 22-59.5t60-22.5 60 22.5 22 59.5-22 59.5-60 22.5-60-22.5-22-59.5z"/><glyph glyph-name="ae" unicode="æ" horiz-adv-x="1536" d="M393-20q-159 0-250.5 87T51 322q0 84 23 149.5t71.5 116T249 674t140 78l90 28q45 21 74 39.5t57.5 46 42 63.5 13.5 83q0 85-48.5 134.5T477 1196q-198 0-198-256v-49H90v43q0 53 9.5 105.5T135 1150t67 101.5 110.5 72T471 1352q209 0 295-150 101 150 305 150 190 0 289.5-120t99.5-349V631H842V453q0-316 217-316 97 0 148 63.5t55 205.5v34h194v-34q-8-202-105.5-314T1069-20q-227 0-326 186Q631-20 393-20zM242 326q0-83 47-138t139-55q101 0 165.5 57T666 342v401q-12-21-41.5-43.5T578 668t-66-35l-100-45q-170-92-170-262zm600 448h426v125q-1 159-54.5 227t-154.5 68q-106 0-161.5-74T842 879V774z"/><glyph glyph-name="ccedilla" unicode="ç" horiz-adv-x="974" d="M717 926q-3 143-57 205.5T500 1194q-115 0-173.5-70T268 895V436q0-159 58.5-229T500 137q107 0 160.5 63T717 406v126h192l-2-102Q897 8 545-18l-29-113q223 30 223-127 0-89-86.5-127.5T365-424l2 86q143 0 200.5 15t57.5 63q0 51-56.5 60T403-209l48 191Q263-5 169.5 118T76 461v409q0 234 104.5 358T498 1352q204 0 305-116.5T909 901V799H717v127z"/><glyph glyph-name="egrave" unicode="è" horiz-adv-x="985" d="M840 1532l-21-78-669 150 20 79zM76 461v409q0 234 105 358t319 124q409 0 409-478V631H268V436q0-159 58.5-229T500 137q103 0 155.5 58T711 387v55h194v-28Q892-20 500-20q-213 0-318.5 123.5T76 461zm192 311h449v146q-1 151-56.5 213.5T498 1194q-114 0-172-69.5T268 895V772z"/><glyph glyph-name="eacute" unicode="é" horiz-adv-x="985" d="M182 1462l-20 78 645 152 20-80zM76 461v409q0 234 105 358t319 124q409 0 409-478V631H268V436q0-159 58.5-229T500 137q103 0 155.5 58T711 387v55h194v-28Q892-20 500-20q-213 0-318.5 123.5T76 461zm192 311h449v146q-1 151-56.5 213.5T498 1194q-114 0-172-69.5T268 895V772z"/><glyph glyph-name="ecircumflex" unicode="ê" horiz-adv-x="985" d="M182 1458l244 238h143l240-238H670l-172 174-176-174H182zM76 461v409q0 234 105 358t319 124q409 0 409-478V631H268V436q0-159 58.5-229T500 137q103 0 155.5 58T711 387v55h194v-28Q892-20 500-20q-213 0-318.5 123.5T76 461zm192 311h449v146q-1 151-56.5 213.5T498 1194q-114 0-172-69.5T268 895V772z"/><glyph glyph-name="edieresis" unicode="ë" horiz-adv-x="985" d="M684 1456q-46 0-77.5 27t-31.5 73q0 50 31 77.5t78 27.5q46 0 78.5-27.5T795 1556q0-45-33-72.5t-78-27.5zM76 461v409q0 234 105 358t319 124q409 0 409-478V631H268V436q0-159 58.5-229T500 137q103 0 155.5 58T711 387v55h194v-28Q892-20 500-20q-213 0-318.5 123.5T76 461zm121 1095q0 50 30.5 77.5T305 1661q46 0 78.5-27.5T416 1556q0-45-33-72.5t-78-27.5q-46 0-77 27t-31 73zm71-784h449v146q-1 151-56.5 213.5T498 1194q-114 0-172-69.5T268 895V772z"/><glyph glyph-name="igrave" unicode="ì" horiz-adv-x="409" d="M111 1331h188V0H111v1331zm-160 277l29 75 475-155-29-74z"/><glyph glyph-name="iacute" unicode="í" horiz-adv-x="409" d="M111 1331h188V0H111v1331zm-158 197l475 155 29-75-475-154z"/><glyph glyph-name="icircumflex" unicode="î" horiz-adv-x="409" d="M111 1331h188V0H111v1331zM2 1454l137 229h133l136-229H295l-88 154-92-154H2z"/><glyph glyph-name="idieresis" unicode="ï" horiz-adv-x="409" d="M111 1331h188V0H111v1331zm-154 228q0 43 27 68.5t67 25.5q37 0 64.5-26t27.5-68q0-40-27.5-66.5T51 1466q-39 0-66.5 26.5T-43 1559zm322 0q0 43 26.5 68.5T371 1653t66.5-25.5T465 1559q0-40-28-66.5t-66-26.5q-39 0-65.5 26t-26.5 67z"/><glyph glyph-name="eth" unicode="ð" horiz-adv-x="970" d="M485-20Q66-20 66 432v170q0 193 94 311.5T438 1032q176 0 256-129-44 253-211 414l-350-189v125l260 140q-106 77-252 143l60 141q212-83 354-198l303 161v-122l-219-117q133-141 195.5-329.5T897 635V481q0-267-104-384T485-20zM258 424q0-156 54.5-221.5T483 137q121 0 172.5 68T707 426v162q0 71-12.5 124t-32 83.5-49 48.5-58 24-63.5 6q-120 0-177-64t-57-212V424z"/><glyph glyph-name="ntilde" unicode="ñ" d="M299 1331v-166q38 77 112.5 132t192.5 55q314 0 314-408V0H729v934q0 131-47 195.5T532 1194q-59 0-104-21t-71-56.5-40-76-18-86.5V0H111v1331h188zm-113 144q0 113 52 162t133 49q47 0 83.5-15.5T514 1633t43-44 45-37.5 55-15.5q88 0 88 127h103q0-115-52.5-163T662 1452q-48 0-85.5 15.5T516 1505t-42.5 44-43.5 37.5-53 15.5q-88 0-88-127H186z"/><glyph glyph-name="ograve" unicode="ò" horiz-adv-x="989" d="M494-20q-209 0-313.5 123.5T76 461v409q0 233 104 357.5T494 1352q211 0 314-124t103-358V461q0-234-103.5-357.5T494-20zM147 1604l21 79 670-151-21-78zM268 436q0-158 57.5-228.5T494 137q112 0 169.5 70T721 436v459q0 159-57.5 229T494 1194q-111 0-168.5-70.5T268 895V436z"/><glyph glyph-name="oacute" unicode="ó" horiz-adv-x="989" d="M494-20q-209 0-313.5 123.5T76 461v409q0 233 104 357.5T494 1352q211 0 314-124t103-358V461q0-234-103.5-357.5T494-20zM160 1540l645 152 20-80-645-150zM268 436q0-158 57.5-228.5T494 137q112 0 169.5 70T721 436v459q0 159-57.5 229T494 1194q-111 0-168.5-70.5T268 895V436z"/><glyph glyph-name="ocircumflex" unicode="ô" horiz-adv-x="989" d="M494-20q-209 0-313.5 123.5T76 461v409q0 233 104 357.5T494 1352q211 0 314-124t103-358V461q0-234-103.5-357.5T494-20zM180 1458l244 238h143l240-238H668l-172 174-177-174H180zm88-1022q0-158 57.5-228.5T494 137q112 0 169.5 70T721 436v459q0 159-57.5 229T494 1194q-111 0-168.5-70.5T268 895V436z"/><glyph glyph-name="otilde" unicode="õ" horiz-adv-x="989" d="M494-20q-209 0-313.5 123.5T76 461v409q0 233 104 357.5T494 1352q211 0 314-124t103-358V461q0-234-103.5-357.5T494-20zM162 1475q0 59 15 101.5t42 65.5 58 33.5 69 10.5q47 0 83.5-15.5T489 1633t43-44 45.5-37.5T633 1536q88 0 88 127h102q0-115-52.5-163T637 1452q-48 0-85.5 15.5T491 1505t-42.5 44-43.5 37.5-53 15.5q-88 0-88-127H162zM268 436q0-158 57.5-228.5T494 137q112 0 169.5 70T721 436v459q0 159-57.5 229T494 1194q-111 0-168.5-70.5T268 895V436z"/><glyph glyph-name="odieresis" unicode="ö" horiz-adv-x="989" d="M494-20q-209 0-313.5 123.5T76 461v409q0 233 104 357.5T494 1352q211 0 314-124t103-358V461q0-234-103.5-357.5T494-20zM195 1556q0 50 30.5 77.5T303 1661q46 0 78.5-27.5T414 1556q0-45-33-72.5t-78-27.5q-46 0-77 27t-31 73zm73-1120q0-158 57.5-228.5T494 137q112 0 169.5 70T721 436v459q0 159-57.5 229T494 1194q-111 0-168.5-70.5T268 895V436zm305 1120q0 50 31 77.5t78 27.5q46 0 78.5-27.5T793 1556q0-45-33-72.5t-78-27.5q-46 0-77.5 27t-31.5 73z"/><glyph glyph-name="divide" unicode="÷" horiz-adv-x="1142" d="M571 1010q-26 0-43.5 17.5T510 1071q0 25 17.5 43.5T571 1133q25 0 43.5-18.5T633 1071q0-26-18.5-43.5T571 1010zM70 780v86h1007v-86H70zm440-205q0 25 17.5 43.5T571 637q25 0 43.5-18.5T633 575q0-26-18.5-43.5T571 514q-26 0-43.5 17.5T510 575z"/><glyph glyph-name="oslash" unicode="ø" horiz-adv-x="989" d="M494-20q-129 0-218 47l-83-201H88L197 84Q76 205 76 461v409q0 233 104 357.5T494 1352q130 0 219-47l84 200h104l-108-260q118-121 118-375V461q0-234-103.5-357.5T494-20zM268 436q0-77 17-143l360 852q-55 49-151 49-111 0-168.5-70.5T268 895V436zm76-250q55-49 150-49 112 0 169.5 70T721 436v459q0 81-16 143z"/><glyph glyph-name="ugrave" unicode="ù" d="M723 0v170q-17-36-41-66.5t-60.5-60T532-3 416-20q-314 0-314 407v944h189V397q0-131 46.5-195.5T487 137q53 0 95 18t68 46 43 66 23.5 75 6.5 76v913h188V0H723zM154 1604l20 79 670-151-21-78z"/><glyph glyph-name="uacute" unicode="ú" d="M723 0v170q-17-36-41-66.5t-60.5-60T532-3 416-20q-314 0-314 407v944h189V397q0-131 46.5-195.5T487 137q53 0 95 18t68 46 43 66 23.5 75 6.5 76v913h188V0H723zM166 1540l645 152 20-80-645-150z"/><glyph glyph-name="ucircumflex" unicode="û" d="M723 0v170q-17-36-41-66.5t-60.5-60T532-3 416-20q-314 0-314 407v944h189V397q0-131 46.5-195.5T487 137q53 0 95 18t68 46 43 66 23.5 75 6.5 76v913h188V0H723zM186 1458l244 238h143l240-238H674l-172 174-176-174H186z"/><glyph glyph-name="udieresis" unicode="ü" d="M723 0v170q-17-36-41-66.5t-60.5-60T532-3 416-20q-314 0-314 407v944h189V397q0-131 46.5-195.5T487 137q53 0 95 18t68 46 43 66 23.5 75 6.5 76v913h188V0H723zM201 1556q0 50 30.5 77.5T309 1661q46 0 78.5-27.5T420 1556q0-45-33-72.5t-78-27.5q-46 0-77 27t-31 73zm379 0q0 50 30.5 77.5T688 1661q46 0 78.5-27.5T799 1556q0-45-33-72.5t-78-27.5q-46 0-77 27t-31 73z"/><glyph glyph-name="yacute" unicode="ý" horiz-adv-x="1017" d="M721 12v158q-17-36-41-66.5t-60.5-60T530-3 414-20q-314 0-314 407v944h189V397q0-131 46.5-195.5T485 137q53 0 95 18t68 46 43 66 23.5 75 6.5 76v913h188V10q0-117-17-195t-59-134-113.5-81.5T539-426H139v160h365q126 0 171.5 60.5T721 12zM168 1540l645 152 21-80-646-150z"/><glyph glyph-name="thorn" unicode="þ" horiz-adv-x="1024" d="M299-426H111v2081h188v-494q16 35 39.5 65t59.5 59.5 88.5 47T602 1350q163 0 252.5-112T944 922V395q0-197-90-307.5T600-23q-191 0-301 175v-578zm0 848q0-122 61-204.5T537 135q215 0 215 285v487q0 283-215 283-79 0-134-41t-79.5-104T299 903V422z"/><glyph glyph-name="ydieresis" unicode="ÿ" horiz-adv-x="1017" d="M721 12v158q-17-36-41-66.5t-60.5-60T530-3 414-20q-314 0-314 407v944h189V397q0-131 46.5-195.5T485 137q53 0 95 18t68 46 43 66 23.5 75 6.5 76v913h188V10q0-117-17-195t-59-134-113.5-81.5T539-426H139v160h365q126 0 171.5 60.5T721 12zM203 1556q0 50 30.5 77.5T311 1661q46 0 78.5-27.5T422 1556q0-45-33-72.5t-78-27.5q-46 0-77 27t-31 73zm379 0q0 50 30.5 77.5T690 1661q46 0 78.5-27.5T801 1556q0-45-33-72.5t-78-27.5q-46 0-77 27t-31 73z"/><glyph glyph-name="Amacron" unicode="Ā" horiz-adv-x="1007" d="M27 0l342 1655h268L979 0H778l-63 336H291L227 0H27zm131 1851v82h690v-82H158zM322 500h362l-178 946-4 14-2-10z"/><glyph glyph-name="amacron" unicode="ā" horiz-adv-x="993" d="M705 0v195Q660 85 572.5 32.5T371-20q-143 0-228.5 83T57 311q0 263 293 400l96 45q37 18 53 26t49.5 26.5 50 31 40 33.5 35 39.5 20 43.5 8.5 52v18q0 77-46 122.5T508 1194q-111 0-171.5-57.5T276 963v-80H86v57q0 88 23 160.5t71.5 130 131 89.5 194.5 32q108 0 185-28t119.5-80 61.5-116 19-147V0H705zM150 1528v82h690v-82H150zm98-1194q0-91 46-140t138-49q122 0 196 103.5T702 532v246q-4-13-11.5-25.5T676 731t-22-21-23-18.5-28.5-19-28-16.5-33-18-31.5-17l-86-46q-85-44-130.5-101.5T248 334z"/><glyph glyph-name="Abreve" unicode="Ă" horiz-adv-x="1007" d="M27 0l342 1655h268L979 0H778l-63 336H291L227 0H27zm143 2009h102q0-42 20.5-72t56-45.5 74-22.5 83.5-7q44 0 82 7t72 22.5 53.5 45.5 19.5 72h103q0-231-330-231-70 0-127.5 11t-106 36.5-75.5 72-27 111.5zM322 500h362l-178 946-4 14-2-10z"/><glyph glyph-name="abreve" unicode="ă" horiz-adv-x="993" d="M705 0v195Q660 85 572.5 32.5T371-20q-143 0-228.5 83T57 311q0 263 293 400l96 45q37 18 53 26t49.5 26.5 50 31 40 33.5 35 39.5 20 43.5 8.5 52v18q0 77-46 122.5T508 1194q-111 0-171.5-57.5T276 963v-80H86v57q0 88 23 160.5t71.5 130 131 89.5 194.5 32q108 0 185-28t119.5-80 61.5-116 19-147V0H705zM162 1686h102q0-55 37.5-90t86.5-46.5 110-11.5q44 0 82 7t72 23 53.5 46 19.5 72h102q0-232-329-232-55 0-102.5 6.5T304 1484t-74.5 42.5-49 66.5-18.5 93zm86-1352q0-91 46-140t138-49q122 0 196 103.5T702 532v246q-4-13-11.5-25.5T676 731t-22-21-23-18.5-28.5-19-28-16.5-33-18-31.5-17l-86-46q-85-44-130.5-101.5T248 334z"/><glyph glyph-name="Aogonek" unicode="Ą" horiz-adv-x="1007" d="M27 0l342 1655h268L979 0h2Q873-36 820.5-82.5T768-195q0-63 56-91.5t186-28.5h24l-82-95h-22q-125 0-199 47.5T657-223q0 47 19.5 84.5T732-75t73 43 86 32H778l-63 336H291L227 0H27zm295 500h362l-178 946-4 14-2-10z"/><glyph glyph-name="aogonek" unicode="ą" horiz-adv-x="993" d="M705 0v195Q660 85 572.5 32.5T371-20q-143 0-228.5 83T57 311q0 263 293 400l96 45q37 18 53 26t49.5 26.5 50 31 40 33.5 35 39.5 20 43.5 8.5 52v18q0 77-46 122.5T508 1194q-111 0-171.5-57.5T276 963v-80H86v57q0 88 23 160.5t71.5 130 131 89.5 194.5 32q108 0 185-28t119.5-80 61.5-116 19-147V0Q783-36 730.5-82.5T678-195q0-63 56-91.5T920-315h24l-82-95h-22q-125 0-199 47.5T567-223q0 47 19.5 84.5T642-75t73 43 86 32h-96zM248 334q0-91 46-140t138-49q122 0 196 103.5T702 532v246q-4-13-11.5-25.5T676 731t-22-21-23-18.5-28.5-19-28-16.5-33-18-31.5-17l-86-46q-85-44-130.5-101.5T248 334z"/><glyph glyph-name="Cacute" unicode="Ć" horiz-adv-x="1101" d="M559-20q-238 0-355.5 140T86 510v637q0 248 118 388t357 140q228 0 345-130.5t120-360.5l2-205H827l-2 242q-3 292-264 292-276 0-276-327V471q0-170 70-250t206-80q261 0 264 295l2 242h201l-2-205q-3-232-120-362.5T559-20zM223 1864l645 151 21-80-645-149z"/><glyph glyph-name="cacute" unicode="ć" horiz-adv-x="974" d="M717 926q-3 143-57 205.5T500 1194q-115 0-173.5-70T268 895V436q0-159 58.5-229T500 137q107 0 160.5 63T717 406v126h192l-2-102Q897-20 498-20q-212 0-317 123.5T76 461v409q0 234 104.5 358T498 1352q204 0 305-116.5T909 901V799H717v127zm-551 614l645 152 20-80-645-150z"/><glyph glyph-name="Ccircumflex" unicode="Ĉ" horiz-adv-x="1101" d="M559-20q-238 0-355.5 140T86 510v637q0 248 118 388t357 140q228 0 345-130.5t120-360.5l2-205H827l-2 242q-3 292-264 292-276 0-276-327V471q0-170 70-250t206-80q261 0 264 295l2 242h201l-2-205q-3-232-120-362.5T559-20zM242 1782l243 237h144l239-237H729l-172 174-176-174H242z"/><glyph glyph-name="ccircumflex" unicode="ĉ" horiz-adv-x="974" d="M717 926q-3 143-57 205.5T500 1194q-115 0-173.5-70T268 895V436q0-159 58.5-229T500 137q107 0 160.5 63T717 406v126h192l-2-102Q897-20 498-20q-212 0-317 123.5T76 461v409q0 234 104.5 358T498 1352q204 0 305-116.5T909 901V799H717v127zm-531 532l244 238h143l240-238H674l-172 174-176-174H186z"/><glyph glyph-name="Cdotaccent" unicode="Ċ" horiz-adv-x="1101" d="M559-20q-238 0-355.5 140T86 510v637q0 248 118 388t357 140q228 0 345-130.5t120-360.5l2-205H827l-2 242q-3 292-264 292-276 0-276-327V471q0-170 70-250t206-80q261 0 264 295l2 242h201l-2-205q-3-232-120-362.5T559-20zM440 1886q0 46 31.5 77.5T557 1995q55 0 87-31.5t32-77.5q0-45-32-75.5t-87-30.5q-54 0-85.5 30.5T440 1886z"/><glyph glyph-name="cdotaccent" unicode="ċ" horiz-adv-x="974" d="M717 926q-3 143-57 205.5T500 1194q-115 0-173.5-70T268 895V436q0-159 58.5-229T500 137q107 0 160.5 63T717 406v126h192l-2-102Q897-20 498-20q-212 0-317 123.5T76 461v409q0 234 104.5 358T498 1352q204 0 305-116.5T909 901V799H717v127zm-346 639q0 49 34 79.5t95 30.5 95-30.5 34-79.5q0-46-34-76.5t-95-30.5-95 30.5-34 76.5z"/><glyph glyph-name="Ccaron" unicode="Č" horiz-adv-x="1101" d="M559-20q-238 0-355.5 140T86 510v637q0 248 118 388t357 140q228 0 345-130.5t120-360.5l2-205H827l-2 242q-3 292-264 292-276 0-276-327V471q0-170 70-250t206-80q261 0 264 295l2 242h201l-2-205q-3-232-120-362.5T559-20zM225 2015h144l188-174 184 174h144l-256-237H485z"/><glyph glyph-name="ccaron" unicode="č" horiz-adv-x="974" d="M717 926q-3 143-57 205.5T500 1194q-115 0-173.5-70T268 895V436q0-159 58.5-229T500 137q107 0 160.5 63T717 406v126h192l-2-102Q897-20 498-20q-212 0-317 123.5T76 461v409q0 234 104.5 358T498 1352q204 0 305-116.5T909 901V799H717v127zm-547 766h143l189-174 184 174h143l-256-238H430z"/><glyph glyph-name="Dcaron" unicode="Ď" horiz-adv-x="1118" d="M117 0v1655h405q130 0 220.5-24t157.5-82 98.5-159.5T1030 1137V518q0-150-32-251.5t-98.5-160-157-82.5T522 0H117zm88 2015h143l189-174 184 174h143l-256-237H465zM313 156h211q116 0 180 29t95.5 103T831 496v663q0 197-68 268.5T522 1499H313V156z"/><glyph glyph-name="dcaron" unicode="ď" horiz-adv-x="1112" d="M723 1655h188V0H723v164q-16-34-39.5-64T624 41.5t-88-45T422-20Q259-20 169.5 92T80 408v526q0 197 90 307.5T424 1352q189 0 299-170v473zM272 422q0-283 215-283 105 0 165.5 69T723 383v567q-10 105-70.5 174.5T487 1194q-215 0-215-285V422zm701 760l53 473h125l-90-473h-88z"/><glyph glyph-name="Dcroat" unicode="Đ" horiz-adv-x="1179" d="M178 0v782H27v111h151v762h406q130 0 220.5-24t157.5-82 98.5-159.5T1092 1137V518q0-150-32-251.5t-98.5-160-157-82.5T584 0H178zm197 156h211q116 0 180 29t95.5 103T893 496v663q0 197-68 268.5T584 1499H375V893h291V782H375V156z"/><glyph glyph-name="dcroat" unicode="đ" d="M723 1655h188v-109h160v-106H911V0H723v164q-16-34-39.5-64T624 41.5t-88-45T422-20Q259-20 169.5 92T80 408v526q0 197 90 307.5T424 1352q189 0 299-170v258H391v106h332v109zM272 422q0-283 215-283 105 0 165.5 69T723 383v567q-10 105-70.5 174.5T487 1194q-215 0-215-285V422z"/><glyph glyph-name="Emacron" unicode="Ē" horiz-adv-x="929" d="M117 0v1655h741v-164H313V909h521V745H313V164h545V0H117zm26 1851v82h691v-82H143z"/><glyph glyph-name="emacron" unicode="ē" horiz-adv-x="985" d="M150 1528v82h690v-82H150zM76 461v409q0 234 105 358t319 124q409 0 409-478V631H268V436q0-159 58.5-229T500 137q103 0 155.5 58T711 387v55h194v-28Q892-20 500-20q-213 0-318.5 123.5T76 461zm192 311h449v146q-1 151-56.5 213.5T498 1194q-114 0-172-69.5T268 895V772z"/><glyph glyph-name="Edotaccent" unicode="Ė" horiz-adv-x="929" d="M117 0v1655h741v-164H313V909h521V745H313V164h545V0H117zm256 1886q0 46 31 77.5t85 31.5q55 0 87-31.5t32-77.5q0-45-32-75.5t-87-30.5q-54 0-85 30.5t-31 75.5z"/><glyph glyph-name="edotaccent" unicode="ė" horiz-adv-x="985" d="M496 1458q-61 0-95 30.5t-34 76.5q0 49 34 79.5t95 30.5 95-30.5 34-79.5q0-46-34-76.5t-95-30.5zM76 461v409q0 234 105 358t319 124q409 0 409-478V631H268V436q0-159 58.5-229T500 137q103 0 155.5 58T711 387v55h194v-28Q892-20 500-20q-213 0-318.5 123.5T76 461zm192 311h449v146q-1 151-56.5 213.5T498 1194q-114 0-172-69.5T268 895V772z"/><glyph glyph-name="Eogonek" unicode="Ę" horiz-adv-x="929" d="M117 0v1655h741v-164H313V909h521V745H313V164h545V0h2Q752-36 699.5-82.5T647-195q0-63 56-91.5T889-315h24l-82-95h-22q-125 0-198.5 47.5T537-223q0 47 19.5 84.5t55 63.5T684-32t86 32H117z"/><glyph glyph-name="eogonek" unicode="ę" horiz-adv-x="985" d="M598-410q-125 0-198.5 47.5T326-223q0 133 174 203-213 0-318.5 123.5T76 461v409q0 234 105 358t319 124q409 0 409-478V631H268V436q0-159 58.5-229T500 137q103 0 155.5 58T711 387v55h194v-28Q896 64 637-4 534-40 485-85.5T436-195q0-63 56-91.5T678-315h24l-81-95h-23zM268 772h449v146q-1 151-56.5 213.5T498 1194q-114 0-172-69.5T268 895V772z"/><glyph glyph-name="Ecaron" unicode="Ě" horiz-adv-x="929" d="M117 0v1655h741v-164H313V909h521V745H313V164h545V0H117zm43 2015h143l189-174 184 174h143l-256-237H420z"/><glyph glyph-name="ecaron" unicode="ě" horiz-adv-x="985" d="M426 1454l-260 238h143l189-174 184 174h143l-256-238H426zM76 461v409q0 234 105 358t319 124q409 0 409-478V631H268V436q0-159 58.5-229T500 137q103 0 155.5 58T711 387v55h194v-28Q892-20 500-20q-213 0-318.5 123.5T76 461zm192 311h449v146q-1 151-56.5 213.5T498 1194q-114 0-172-69.5T268 895V772z"/><glyph glyph-name="Gcircumflex" unicode="Ĝ" horiz-adv-x="1120" d="M532-20q-216 0-331 141.5T86 504v643q0 248 118 388t355 140q227 0 344.5-129t122.5-356v-160H825v197q-5 286-264 286-137 0-206.5-79.5T285 1186V471q0-167 66.5-248.5T557 141q135 0 200 75.5T825 451v235H524v156h502V0H913l-20 172Q775-20 532-20zM246 1782l243 237h144l239-237H733l-172 174-176-174H246z"/><glyph glyph-name="gcircumflex" unicode="ĝ" horiz-adv-x="1019" d="M723 18v146q-16-34-39.5-64T624 41.5t-88-45T422-20Q259-20 169.5 92T80 408v526q0 197 90 307.5T424 1352q189 0 299-170v149h188V2q0-115-16.5-191.5t-58-131.5T723-401t-182-25H137v160h373q124 0 168.5 62T723 18zM176 1458l244 238h143l240-238H664l-172 174-177-174H176zm96-1036q0-283 215-283 105 0 165.5 69T723 383v567q-10 105-70.5 174.5T487 1194q-215 0-215-285V422z"/><glyph glyph-name="Gbreve" unicode="Ğ" horiz-adv-x="1120" d="M532-20q-216 0-331 141.5T86 504v643q0 248 118 388t355 140q227 0 344.5-129t122.5-356v-160H825v197q-5 286-264 286-137 0-206.5-79.5T285 1186V471q0-167 66.5-248.5T557 141q135 0 200 75.5T825 451v235H524v156h502V0H913l-20 172Q775-20 532-20zM225 2009h103q0-55 37-89.5t86-46 110-11.5q44 0 82 7t72 22.5 53.5 45.5 19.5 72h103q0-231-330-231-70 0-127.5 11t-106 36.5-75.5 72-27 111.5z"/><glyph glyph-name="gbreve" unicode="ğ" horiz-adv-x="1019" d="M723 18v146q-16-34-39.5-64T624 41.5t-88-45T422-20Q259-20 169.5 92T80 408v526q0 197 90 307.5T424 1352q189 0 299-170v149h188V2q0-115-16.5-191.5t-58-131.5T723-401t-182-25H137v160h373q124 0 168.5 62T723 18zM158 1686h102q0-55 37.5-90t86.5-46.5 110-11.5q44 0 82 7t72 23 53.5 46 19.5 72h102q0-232-329-232-55 0-102.5 6.5T300 1484t-74.5 42.5-49 66.5-18.5 93zM272 422q0-283 215-283 105 0 165.5 69T723 383v567q-10 105-70.5 174.5T487 1194q-215 0-215-285V422z"/><glyph glyph-name="Gdotaccent" unicode="Ġ" horiz-adv-x="1120" d="M532-20q-216 0-331 141.5T86 504v643q0 248 118 388t355 140q227 0 344.5-129t122.5-356v-160H825v197q-5 286-264 286-137 0-206.5-79.5T285 1186V471q0-167 66.5-248.5T557 141q135 0 200 75.5T825 451v235H524v156h502V0H913l-20 172Q775-20 532-20zm-90 1906q0 46 31.5 77.5T559 1995q55 0 87-31.5t32-77.5q0-45-32-75.5t-87-30.5q-54 0-85.5 30.5T442 1886z"/><glyph glyph-name="gdotaccent" unicode="ġ" horiz-adv-x="1019" d="M723 18v146q-16-34-39.5-64T624 41.5t-88-45T422-20Q259-20 169.5 92T80 408v526q0 197 90 307.5T424 1352q189 0 299-170v149h188V2q0-115-16.5-191.5t-58-131.5T723-401t-182-25H137v160h373q124 0 168.5 62T723 18zM272 422q0-283 215-283 105 0 165.5 69T723 383v567q-10 105-70.5 174.5T487 1194q-215 0-215-285V422zm90 1143q0 49 34.5 79.5T492 1675t95-30.5 34-79.5q0-46-34-76.5t-95-30.5-95.5 30.5T362 1565z"/><glyph glyph-name="uni0122" unicode="Ģ" horiz-adv-x="1120" d="M532-20q-216 0-331 141.5T86 504v643q0 248 118 388t355 140q227 0 344.5-129t122.5-356v-160H825v197q-5 286-264 286-137 0-206.5-79.5T285 1186V471q0-167 66.5-248.5T557 141q135 0 200 75.5T825 451v235H524v156h502V0H913l-20 172Q775-20 532-20zm-77-152q0 42 28.5 71T557-72t72.5-30.5T657-193q0-72-44-134T481-432v84q101 38 123 121-27-35-65-35-34 0-59 25t-25 65z"/><glyph glyph-name="uni0123" unicode="ģ" horiz-adv-x="1019" d="M723 18v146q-16-34-39.5-64T624 41.5t-88-45T422-20Q259-20 169.5 92T80 408v526q0 197 90 307.5T424 1352q189 0 299-170v149h188V2q0-115-16.5-191.5t-58-131.5T723-401t-182-25H137v160h373q124 0 168.5 62T723 18zM272 422q0-283 215-283 105 0 165.5 69T723 383v567q-10 105-70.5 174.5T487 1194q-215 0-215-285V422zm117 1132q0 72 44 135.5T563 1796v-84q-98-37-121-121 26 33 66 33 34 0 59-24.5t25-65.5-29-69.5-74-28.5-72.5 29.5T389 1554z"/><glyph glyph-name="Hcircumflex" unicode="Ĥ" horiz-adv-x="1126" d="M813 0v745H313V0H117v1655h196V909h500v746h197V0H813zM248 1782l244 237h143l239-237H735l-172 174-176-174H248z"/><glyph glyph-name="hcircumflex" unicode="ĥ" d="M299 1655v-494q38 80 112.5 135.5T606 1352q314 0 314-408V0H731v934q0 131-46.5 195.5T535 1194q-53 0-95-18t-68-46-43-66-23.5-75-6.5-76V0H111v1655h188zm-412 127l244 237h143l240-237H375l-172 174-176-174h-140z"/><glyph glyph-name="Hbar" unicode="Ħ" horiz-adv-x="1247" d="M874 0v745H375V0H178v1276H27v113h151v266h197v-266h499v266h197v-266h148v-113h-148V0H874zM375 909h499v367H375V909z"/><glyph glyph-name="hbar" unicode="ħ" d="M299 1655v-127h324v-107H299v-260q38 80 112.5 135.5T606 1352q314 0 314-408V0H731v934q0 131-46.5 195.5T535 1194q-53 0-95-18t-68-46-43-66-23.5-75-6.5-76V0H111v1421H-57v107h168v127h188z"/><glyph glyph-name="Itilde" unicode="Ĩ" horiz-adv-x="595" d="M92 0v176h109v1303H92v176h412v-176H395V176h109V0H92zM-35 1798q0 113 52 162t133 49q47 0 83.5-15.5T293 1956t43-43.5 45-37 55-15.5q88 0 88 127h103q0-114-53-162.5T440 1776q-48 0-85.5 15.5t-60 37-42 43.5-43.5 37.5-53 15.5q-88 0-88-127H-35z"/><glyph glyph-name="itilde" unicode="ĩ" horiz-adv-x="409" d="M111 1331h188V0H111v1331zm-238 144q0 59 15 101.5t42 65.5 58 33.5 69 10.5q47 0 83.5-15.5T200 1633t43-44 45.5-37.5T344 1536q88 0 88 127h103q0-114-53-162.5T348 1452q-48 0-85.5 15.5T202 1505t-42.5 44-43.5 37.5-53 15.5q-88 0-88-127h-102z"/><glyph glyph-name="Imacron" unicode="Ī" horiz-adv-x="595" d="M92 0v176h109v1303H92v176h412v-176H395V176h109V0H92zM-49 1851v82h690v-82H-49z"/><glyph glyph-name="imacron" unicode="ī" horiz-adv-x="409" d="M111 1331h188V0H111v1331zm-158 197v82h504v-82H-47z"/><glyph glyph-name="Iogonek" unicode="Į" horiz-adv-x="595" d="M92 0v176h109v1303H92v176h412v-176H395V176h109V0Q396-36 343.5-82.5T291-195q0-64 56-92t185-28h25l-82-95h-22q-125 0-199 47.5T180-223q0 47 19.5 84.5T255-75t73 43 86 32H92z"/><glyph glyph-name="iogonek" unicode="į" horiz-adv-x="409" d="M111 1331h188V0Q191-36 138.5-82.5T86-195q0-63 56-91.5T328-315h24l-82-95h-22q-125 0-199 47.5T-25-223q0 47 19.5 84.5T50-75t73 43 86 32h-98v1331zm-35 234q0 49 34 79.5t95 30.5 95-30.5 34-79.5q0-46-34-76.5t-95-30.5-95 30.5-34 76.5z"/><glyph glyph-name="Idotaccent" unicode="İ" horiz-adv-x="595" d="M92 0v176h109v1303H92v176h412v-176H395V176h109V0H92zm88 1886q0 46 31.5 77.5T297 1995q55 0 87-31.5t32-77.5q0-45-32-75.5t-87-30.5q-54 0-85.5 30.5T180 1886z"/><glyph glyph-name="dotlessi" unicode="ı" horiz-adv-x="409" d="M111 1331h188V0H111v1331z"/><glyph glyph-name="IJ" unicode="Ĳ" horiz-adv-x="1613" d="M92 0v176h109v1303H92v176h412v-176H395V176h109V0H92zm551 479v119h199V440q0-164 58-231.5t173-67.5q114 0 173 66.5t59 228.5v1219h198V475q0-495-430-495-221 0-325.5 126T643 479z"/><glyph glyph-name="ij" unicode="ĳ" horiz-adv-x="770" d="M111 1331h188V0H111v1331zm-35 234q0 49 34 79.5t95 30.5 95-30.5 34-79.5q0-46-34-76.5t-95-30.5-95 30.5-34 76.5zm90-1991v160h108q116 0 156.5 55T471-8v1339h188V-25q0-110-16.5-183T586-331t-107.5-72.5T309-426H166zm270 1991q0 49 34 79.5t95 30.5 95-30.5 34-79.5q0-46-34-76.5t-95-30.5-95 30.5-34 76.5z"/><glyph glyph-name="Jcircumflex" unicode="Ĵ" horiz-adv-x="1017" d="M477-20q-221 0-325.5 126T47 479v119h199V440q0-164 58-231.5T477 141q114 0 173 66.5T709 436v1219h198V475q0-495-430-495zm15 1802l243 237h144l239-237H979l-172 174-176-174H492z"/><glyph glyph-name="jcircumflex" unicode="ĵ" horiz-adv-x="409" d="M111-8v1339h188V-25q0-110-16.5-183T226-331t-107.5-72.5T-51-426h-144v160h109q116 0 156.5 55T111-8zm-220 1466l244 238h144l239-238H379l-172 174-176-174h-140z"/><glyph glyph-name="uni0136" unicode="Ķ" horiz-adv-x="1032" d="M801 0L377 739h-64V0H117v1655h196V915h64l424 740h219L532 827 1020 0H801zM436-172q0 42 29 71t74 29 72.5-30.5T639-193q0-72-44-134T463-432v84q101 38 123 121-27-35-66-35-34 0-59 25t-25 65z"/><glyph glyph-name="uni0137" unicode="ķ" horiz-adv-x="962" d="M111 1655h188V748h53l385 583h217L498 666 954 0H737L348 590h-49V0H111v1655zM424-172q0 42 28.5 71T526-72t73-30.5 28-90.5q0-72-44-134T451-432v84q99 38 122 121-27-35-65-35-34 0-59 25t-25 65z"/><glyph glyph-name="Lacute" unicode="Ĺ" horiz-adv-x="888" d="M117 0v1655h196V164h545V0H117zm28 1864l646 151 20-80-645-149z"/><glyph glyph-name="lacute" unicode="ĺ" horiz-adv-x="409" d="M111 1655h188V0H111v1655zm-240 209l645 151 21-80-646-149z"/><glyph glyph-name="uni013B" unicode="Ļ" horiz-adv-x="888" d="M117 0v1655h196V164h545V0H117zm239-172q0 42 29 71t74 29 72.5-30.5T559-193q0-72-44-134T383-432v84q101 38 123 121-27-35-66-35-34 0-59 25t-25 65z"/><glyph glyph-name="uni013C" unicode="ļ" horiz-adv-x="409" d="M111 1655h188V0H111v1655zm-7-1827q0 42 29 71t74 29 72.5-30.5T307-193q0-72-44-134T131-432v84q101 38 123 121-27-35-66-35-34 0-59 25t-25 65z"/><glyph glyph-name="Lcaron" unicode="Ľ" horiz-adv-x="892" d="M117 0v1655h196V164h545V0H117zm448 1182l53 473h125l-90-473h-88z"/><glyph glyph-name="lcaron" unicode="ľ" horiz-adv-x="499" d="M111 1655h188V0H111v1655zm256-473l53 473h125l-90-473h-88z"/><glyph glyph-name="Lslash" unicode="Ł" horiz-adv-x="976" d="M205 0v676L35 582v127l170 96v850h196V913l269 152V936L401 786V164h545V0H205z"/><glyph glyph-name="lslash" unicode="ł" horiz-adv-x="716" d="M270 1655h189V940l231 135V946L459 811V0H270v700L37 565v127l233 137v826z"/><glyph glyph-name="Nacute" unicode="Ń" horiz-adv-x="1142" d="M117 0v1655h184L844 436v1219h182V0H842L299 1219V0H117zm121 1864l645 151 20-80-645-149z"/><glyph glyph-name="nacute" unicode="ń" d="M299 1331v-166q38 77 112.5 132t192.5 55q314 0 314-408V0H729v934q0 131-47 195.5T532 1194q-59 0-104-21t-71-56.5-40-76-18-86.5V0H111v1331h188zm-115 209l645 152 21-80-645-150z"/><glyph glyph-name="uni0145" unicode="Ņ" horiz-adv-x="1142" d="M117 0v1655h184L844 436v1219h182V0H842L299 1219V0H117zm354-172q0 42 28.5 71T573-72t73-30.5 28-90.5q0-72-44-134T498-432v84q101 38 123 121-27-35-66-35-34 0-59 25t-25 65z"/><glyph glyph-name="uni0146" unicode="ņ" d="M299 1331v-166q38 77 112.5 132t192.5 55q314 0 314-408V0H729v934q0 131-47 195.5T532 1194q-59 0-104-21t-71-56.5-40-76-18-86.5V0H111v1331h188zM416-172q0 42 28.5 71T518-72t72.5-30.5T618-193q0-72-44-134T442-432v84q101 38 123 121-27-35-65-35-34 0-59 25t-25 65z"/><glyph glyph-name="Ncaron" unicode="Ň" horiz-adv-x="1142" d="M117 0v1655h184L844 436v1219h182V0H842L299 1219V0H117zm125 2015h143l188-174 185 174h143l-256-237H502z"/><glyph glyph-name="ncaron" unicode="ň" d="M299 1331v-166q38 77 112.5 132t192.5 55q314 0 314-408V0H729v934q0 131-47 195.5T532 1194q-59 0-104-21t-71-56.5-40-76-18-86.5V0H111v1331h188zm-111 361h144l188-174 185 174h143l-256-238H449z"/><glyph glyph-name="Eng" unicode="Ŋ" horiz-adv-x="1142" d="M117 0v1655h184L844 436v1219h182V0q-1-118-13.5-190t-48-124.5-98.5-74T702-410h-84v179h80q91 0 119.5 49.5T840 2L299 1219V0H117z"/><glyph glyph-name="eng" unicode="ŋ" d="M299 1331v-166q38 77 112.5 132t192.5 55q314 0 314-408V0h2q0-111-15-184.5t-53-126-103.5-76T582-410H455v158h92q104 0 144 56.5T731 0h-2v934q0 131-47 195.5T532 1194q-59 0-104-21t-71-56.5-40-76-18-86.5V0H111v1331h188z"/><glyph glyph-name="Omacron" unicode="Ō" horiz-adv-x="1120" d="M559-20q-237 0-355 140.5T86 508v639q0 246 118.5 387T559 1675q237 0 356-141t119-387V508q0-246-119-387T559-20zM213 1851v82h690v-82H213zm72-1380q0-328 274-328 275 0 275 328v711q0 329-275 329-274 0-274-327V471z"/><glyph glyph-name="omacron" unicode="ō" horiz-adv-x="989" d="M494-20q-209 0-313.5 123.5T76 461v409q0 233 104 357.5T494 1352q211 0 314-124t103-358V461q0-234-103.5-357.5T494-20zM147 1528v82h691v-82H147zM268 436q0-158 57.5-228.5T494 137q112 0 169.5 70T721 436v459q0 159-57.5 229T494 1194q-111 0-168.5-70.5T268 895V436z"/><glyph glyph-name="Ohungarumlaut" unicode="Ő" horiz-adv-x="1120" d="M559-20q-237 0-355 140.5T86 508v639q0 246 118.5 387T559 1675q237 0 356-141t119-387V508q0-246-119-387T559-20zM285 471q0-328 274-328 275 0 275 328v711q0 329-275 329-274 0-274-327V471zm92 1307l239 229h117l-219-229H377zm239 0l240 229h117l-219-229H616z"/><glyph glyph-name="ohungarumlaut" unicode="ő" horiz-adv-x="989" d="M494-20q-209 0-313.5 123.5T76 461v409q0 233 104 357.5T494 1352q211 0 314-124t103-358V461q0-234-103.5-357.5T494-20zM268 436q0-158 57.5-228.5T494 137q112 0 169.5 70T721 436v459q0 159-57.5 229T494 1194q-111 0-168.5-70.5T268 895V436zm43 1018l240 229h117l-219-229H311zm240 0l240 229h116l-219-229H551z"/><glyph glyph-name="OE" unicode="Œ" horiz-adv-x="1452" d="M479-20q-196 0-292.5 134T90 496v663q0 247 97 381.5T479 1675q201 0 293-159v139h606v-164H938V909h422V745H938V164h440V0H772v139Q680-20 479-20zM287 465q0-324 221-324 112 0 170.5 75T737 422v813q0 128-59 203t-170 75q-221 0-221-323V465z"/><glyph glyph-name="oe" unicode="œ" horiz-adv-x="1570" d="M473-20q-189 0-292 122.5T78 451v430q0 226 103 348.5T473 1352q224 0 318-187 49 96 127.5 141.5T1110 1352q189 0 288-118.5t99-348.5V631H879V432q3-295 217-295 95 0 145.5 58.5T1298 387v53h195v-37q-9-203-105.5-313T1108-20q-224 0-317 184Q697-20 473-20zM268 436q0-299 215-299 217 0 217 299v459q0 299-217 299-215 0-215-299V436zm613 338h424v144q-3 150-56.5 213t-150.5 63q-103 0-159.5-66T881 909V774z"/><glyph glyph-name="Racute" unicode="Ŕ" horiz-adv-x="1097" d="M829 0q-22 28-22 147v318q0 63-16.5 110T749 648t-61.5 42-69 20.5T547 715H313V0H117v1655h432q128 0 212.5-20.5t141.5-71 82-132 25-206.5v-29q0-166-53-259.5T776 797q230-70 230-348V147q0-113 22-147H829zM184 1864l645 151 21-80-645-149zm129-994h236q143 0 201.5 65.5T809 1137v108q0 82-14 132t-49 77-80.5 36-122.5 9H313V870z"/><glyph glyph-name="racute" unicode="ŕ" horiz-adv-x="899" d="M299 1331v-166q38 81 110.5 134t178.5 53q278 0 278-361V858H678v98q0 123-36.5 180.5T516 1194q-61 0-106.5-29.5t-68-76-32.5-92-10-89.5V0H111v1331h188zm-129 209l645 152 21-80-646-150z"/><glyph glyph-name="uni0156" unicode="Ŗ" horiz-adv-x="1097" d="M829 0q-22 28-22 147v318q0 63-16.5 110T749 648t-61.5 42-69 20.5T547 715H313V0H117v1655h432q128 0 212.5-20.5t141.5-71 82-132 25-206.5v-29q0-166-53-259.5T776 797q230-70 230-348V147q0-113 22-147H829zM313 870h236q143 0 201.5 65.5T809 1137v108q0 82-14 132t-49 77-80.5 36-122.5 9H313V870zM463-172q0 42 28.5 71T565-72t73-30.5 28-90.5q0-71-44.5-133.5T489-432v84q101 38 123 121-27-35-65-35-34 0-59 25t-25 65z"/><glyph glyph-name="uni0157" unicode="ŗ" horiz-adv-x="899" d="M299 1331v-166q38 81 110.5 134t178.5 53q278 0 278-361V858H678v98q0 123-36.5 180.5T516 1194q-61 0-106.5-29.5t-68-76-32.5-92-10-89.5V0H111v1331h188zM106-172q0 42 29 71t74 29 72.5-30.5T309-193q0-72-44-134T133-432v84q101 38 123 121-27-35-66-35-34 0-59 25t-25 65z"/><glyph glyph-name="Rcaron" unicode="Ř" horiz-adv-x="1097" d="M829 0q-22 28-22 147v318q0 63-16.5 110T749 648t-61.5 42-69 20.5T547 715H313V0H117v1655h432q128 0 212.5-20.5t141.5-71 82-132 25-206.5v-29q0-166-53-259.5T776 797q230-70 230-348V147q0-113 22-147H829zM186 2015h144l188-174 184 174h144l-256-237H446zM313 870h236q143 0 201.5 65.5T809 1137v108q0 82-14 132t-49 77-80.5 36-122.5 9H313V870z"/><glyph glyph-name="rcaron" unicode="ř" horiz-adv-x="899" d="M299 1331v-166q38 81 110.5 134t178.5 53q278 0 278-361V858H678v98q0 123-36.5 180.5T516 1194q-61 0-106.5-29.5t-68-76-32.5-92-10-89.5V0H111v1331h188zm-127 361h143l189-174 184 174h143l-256-238H432z"/><glyph glyph-name="Sacute" unicode="Ś" horiz-adv-x="1034" d="M526-20Q292-20 176.5 98.5T61 457v112h199V420q0-153 64.5-216T528 141q127 0 182.5 54.5T766 379v37q0 65-12 112t-38.5 82.5-58 60T575 723L352 850q-64 38-109 76t-82.5 88-56 114.5T86 1272q0 191 107.5 297T516 1675q216 0 327-109t111-325v-88H756v100q0 147-59.5 203.5T514 1513q-118 0-173.5-49T285 1300v-24q0-102 44.5-162T463 1004l223-127q69-40 114.5-76.5T887 710t60.5-126.5T967 416q0-218-106.5-327T526-20zM178 1864l645 151 21-80-645-149z"/><glyph glyph-name="sacute" unicode="ś" horiz-adv-x="942" d="M643 698q128-71 182-149t54-203q0-60-11.5-111.5T827 135t-73.5-81.5T639 0 479-20Q264-20 160.5 81T57 371v82h193v-80q0-126 53.5-181T479 137q109 0 159 48.5T688 334q0 78-35 126.5T522 565L307 690q-114 61-171.5 136T78 1018q0 67 20.5 124t63.5 105.5 121 76.5 184 28q403 0 403-379v-64H678v62q0 122-52 172.5T467 1194q-93 0-145-41.5T270 1028q0-65 32-107.5T412 834zm-506 842l645 152 21-80-645-150z"/><glyph glyph-name="Scircumflex" unicode="Ŝ" horiz-adv-x="1034" d="M526-20Q292-20 176.5 98.5T61 457v112h199V420q0-153 64.5-216T528 141q127 0 182.5 54.5T766 379v37q0 65-12 112t-38.5 82.5-58 60T575 723L352 850q-64 38-109 76t-82.5 88-56 114.5T86 1272q0 191 107.5 297T516 1675q216 0 327-109t111-325v-88H756v100q0 147-59.5 203.5T514 1513q-118 0-173.5-49T285 1300v-24q0-102 44.5-162T463 1004l223-127q69-40 114.5-76.5T887 710t60.5-126.5T967 416q0-218-106.5-327T526-20zM199 1782l243 237h144l239-237H686l-172 174-176-174H199z"/><glyph glyph-name="scircumflex" unicode="ŝ" horiz-adv-x="942" d="M643 698q128-71 182-149t54-203q0-60-11.5-111.5T827 135t-73.5-81.5T639 0 479-20Q264-20 160.5 81T57 371v82h193v-80q0-126 53.5-181T479 137q109 0 159 48.5T688 334q0 78-35 126.5T522 565L307 690q-114 61-171.5 136T78 1018q0 67 20.5 124t63.5 105.5 121 76.5 184 28q403 0 403-379v-64H678v62q0 122-52 172.5T467 1194q-93 0-145-41.5T270 1028q0-65 32-107.5T412 834zm-487 760l243 238h144l239-238H643l-172 174-176-174H156z"/><glyph glyph-name="Scedilla" unicode="Ş" horiz-adv-x="1034" d="M391-338q143 0 200.5 15t57.5 63q0 51-56 60t-165-9l47 191Q61 6 61 457v112h199V420q0-153 64.5-216T528 141q127 0 182.5 54.5T766 379v37q0 65-12 112t-38.5 82.5-58 60T575 723L352 850q-64 38-109 76t-82.5 88-56 114.5T86 1272q0 191 107.5 297T516 1675q216 0 327-109t111-325v-88H756v100q0 147-59.5 203.5T514 1513q-118 0-173.5-49T285 1300v-24q0-102 44.5-162T463 1004l223-127q69-40 114.5-76.5T887 710t60.5-126.5T967 416q0-207-96.5-316.5T569-20l-28-111q223 30 223-127 0-89-87-127.5T389-424z"/><glyph glyph-name="scedilla" unicode="ş" horiz-adv-x="942" d="M643 698q128-71 182-149t54-203q0-72-18-132.5t-57.5-113-112-84T518-20l-29-111q224 30 224-127 0-89-87-127.5T338-424l2 86q143 0 200.5 15t57.5 63q0 51-56 60t-165-9l47 191Q57 8 57 371v82h193v-80q0-126 53.5-181T479 137q109 0 159 48.5T688 334q0 78-35 126.5T522 565L307 690q-114 61-171.5 136T78 1018q0 67 20.5 124t63.5 105.5 121 76.5 184 28q403 0 403-379v-64H678v62q0 122-52 172.5T467 1194q-93 0-145-41.5T270 1028q0-65 32-107.5T412 834z"/><glyph glyph-name="Scaron" unicode="Š" horiz-adv-x="1034" d="M526-20Q292-20 176.5 98.5T61 457v112h199V420q0-153 64.5-216T528 141q127 0 182.5 54.5T766 379v37q0 65-12 112t-38.5 82.5-58 60T575 723L352 850q-64 38-109 76t-82.5 88-56 114.5T86 1272q0 191 107.5 297T516 1675q216 0 327-109t111-325v-88H756v100q0 147-59.5 203.5T514 1513q-118 0-173.5-49T285 1300v-24q0-102 44.5-162T463 1004l223-127q69-40 114.5-76.5T887 710t60.5-126.5T967 416q0-218-106.5-327T526-20zM182 2015h144l188-174 184 174h144l-256-237H442z"/><glyph glyph-name="scaron" unicode="š" horiz-adv-x="942" d="M643 698q128-71 182-149t54-203q0-60-11.5-111.5T827 135t-73.5-81.5T639 0 479-20Q264-20 160.5 81T57 371v82h193v-80q0-126 53.5-181T479 137q109 0 159 48.5T688 334q0 78-35 126.5T522 565L307 690q-114 61-171.5 136T78 1018q0 67 20.5 124t63.5 105.5 121 76.5 184 28q403 0 403-379v-64H678v62q0 122-52 172.5T467 1194q-93 0-145-41.5T270 1028q0-65 32-107.5T412 834zm-504 994h144l188-174 184 174h144l-256-238H399z"/><glyph glyph-name="uni0162" unicode="Ţ" horiz-adv-x="940" d="M373 0v1491H35v164h870v-164H567V0h-49l-33-131q224 30 224-127 0-89-87-127.5T334-424l2 86q143 0 200.5 15t57.5 63q0 51-56 60t-165-9L424 0h-51z"/><glyph glyph-name="uni0163" unicode="ţ" horiz-adv-x="720" d="M674 1331v-160H399V373q0-131 25-172t104-41h146V0H508l-29-111q223 30 223-127 0-89-86.5-127T328-403l2 86q144 0 201 14.5t57 62.5q0 51-56 60.5T367-188L414 2q-51 6-87 24t-58.5 45-35.5 68.5-17.5 87.5-4.5 109v835H20v160h27q99 21 150 109.5t49 214.5h188q0-122-45.5-212.5T276 1331h398z"/><glyph glyph-name="Tcaron" unicode="Ť" horiz-adv-x="940" d="M373 0v1491H35v164h870v-164H567V0H373zM139 2015h144l188-174 184 174h144l-256-237H399z"/><glyph glyph-name="tcaron" unicode="ť" horiz-adv-x="720" d="M674 1331v-160H399V373q0-131 25-172t104-41h146V0H467q-65 0-111 15t-74 41-44 69.5-21.5 92T211 336v835H20v160h27q99 21 150 109.5t49 214.5h188q0-122-45.5-212.5T276 1331h398zm-156 123l86 385h125l-123-385h-88z"/><glyph glyph-name="Tbar" unicode="Ŧ" horiz-adv-x="960" d="M383 0v735H137v111h246v645H45v164h870v-164H578V846h245V735H578V0H383z"/><glyph glyph-name="tbar" unicode="ŧ" horiz-adv-x="735" d="M686 1331v-160H412V788h268V680H412V373q0-131 25-172t104-41h145V0H479q-65 0-111 15t-74 41-44 69.5-21.5 92T223 336v344H39v108h184v383H33v160h26q99 21 150 109.5t49 214.5h188q0-123-45-213t-112-111h397z"/><glyph glyph-name="Utilde" unicode="Ũ" horiz-adv-x="1122" d="M561-20q-237 0-343.5 121T111 471v1184h198V438q0-88 16.5-146.5t50-91.5 78-46T561 141t107.5 13 79 45.5 51 91.5T815 438v1217h199V471q0-249-108.5-370T561-20zM229 1798q0 113 52 162t133 49q47 0 83.5-15.5T557 1956t43-43.5 45-37 55-15.5q88 0 88 127h103q0-115-52.5-163T705 1776q-48 0-85.5 15.5t-60.5 37-42.5 43.5-43.5 37.5-53 15.5q-88 0-88-127H229z"/><glyph glyph-name="utilde" unicode="ũ" d="M723 0v170q-17-36-41-66.5t-60.5-60T532-3 416-20q-314 0-314 407v944h189V397q0-131 46.5-195.5T487 137q53 0 95 18t68 46 43 66 23.5 75 6.5 76v913h188V0H723zM168 1475q0 59 15 101.5t42 65.5 58 33.5 69 10.5q47 0 83.5-15.5T495 1633t43-44 45.5-37.5T639 1536q88 0 88 127h102q0-115-52.5-163T643 1452q-48 0-85.5 15.5T497 1505t-42.5 44-43.5 37.5-53 15.5q-88 0-88-127H168z"/><glyph glyph-name="Umacron" unicode="Ū" horiz-adv-x="1122" d="M561-20q-237 0-343.5 121T111 471v1184h198V438q0-88 16.5-146.5t50-91.5 78-46T561 141t107.5 13 79 45.5 51 91.5T815 438v1217h199V471q0-249-108.5-370T561-20zM215 1851v82h690v-82H215z"/><glyph glyph-name="umacron" unicode="ū" d="M723 0v170q-17-36-41-66.5t-60.5-60T532-3 416-20q-314 0-314 407v944h189V397q0-131 46.5-195.5T487 137q53 0 95 18t68 46 43 66 23.5 75 6.5 76v913h188V0H723zM154 1528v82h690v-82H154z"/><glyph glyph-name="Ubreve" unicode="Ŭ" horiz-adv-x="1122" d="M561-20q-237 0-343.5 121T111 471v1184h198V438q0-88 16.5-146.5t50-91.5 78-46T561 141t107.5 13 79 45.5 51 91.5T815 438v1217h199V471q0-249-108.5-370T561-20zM227 2009h103q0-55 37-89.5t86-46 110-11.5q44 0 82 7t72.5 22.5 54 45.5 19.5 72h102q0-231-330-231-70 0-127.5 11t-106 36.5-75.5 72-27 111.5z"/><glyph glyph-name="ubreve" unicode="ŭ" d="M723 0v170q-17-36-41-66.5t-60.5-60T532-3 416-20q-314 0-314 407v944h189V397q0-131 46.5-195.5T487 137q53 0 95 18t68 46 43 66 23.5 75 6.5 76v913h188V0H723zM166 1686h102q0-55 37.5-90t86.5-46.5 110-11.5q44 0 82 7t72 23 53.5 46 19.5 72h102q0-232-329-232-55 0-102.5 6.5T308 1484t-74.5 42.5-49 66.5-18.5 93z"/><glyph glyph-name="Uring" unicode="Ů" horiz-adv-x="1122" d="M561-20q-237 0-343.5 121T111 471v1184h198V438q0-88 16.5-146.5t50-91.5 78-46T561 141t107.5 13 79 45.5 51 91.5T815 438v1217h199V471q0-249-108.5-370T561-20zM395 1913q0 71 49.5 118.5T561 2079t116.5-47.5T727 1913t-49.5-118.5T561 1747t-116.5 47.5T395 1913zm84 0q0-37 22-59.5t60-22.5 60 22.5 22 59.5-22 59.5-60 22.5-60-22.5-22-59.5z"/><glyph glyph-name="uring" unicode="ů" d="M723 0v170q-17-36-41-66.5t-60.5-60T532-3 416-20q-314 0-314 407v944h189V397q0-131 46.5-195.5T487 137q53 0 95 18t68 46 43 66 23.5 75 6.5 76v913h188V0H723zM334 1589q0 71 49.5 118.5T500 1755t116.5-47.5T666 1589t-49.5-118.5T500 1423t-116.5 47.5T334 1589zm84 0q0-37 22-59.5t60-22.5 60 22.5 22 59.5-22 59.5-60 22.5-60-22.5-22-59.5z"/><glyph glyph-name="Uhungarumlaut" unicode="Ű" horiz-adv-x="1122" d="M561-20q-237 0-343.5 121T111 471v1184h198V438q0-88 16.5-146.5t50-91.5 78-46T561 141t107.5 13 79 45.5 51 91.5T815 438v1217h199V471q0-249-108.5-370T561-20zM379 1778l239 229h117l-219-229H379zm239 0l240 229h117l-219-229H618z"/><glyph glyph-name="uhungarumlaut" unicode="ű" d="M723 0v170q-17-36-41-66.5t-60.5-60T532-3 416-20q-314 0-314 407v944h189V397q0-131 46.5-195.5T487 137q53 0 95 18t68 46 43 66 23.5 75 6.5 76v913h188V0H723zM317 1454l240 229h117l-219-229H317zm240 0l240 229h116l-219-229H557z"/><glyph glyph-name="Uogonek" unicode="Ų" horiz-adv-x="1122" d="M561-20q-237 0-343.5 121T111 471v1184h198V438q0-88 16.5-146.5t50-91.5 78-46T561 141t107.5 13 79 45.5 51 91.5T815 438v1217h199V471q0-201-69-318T727-2h2Q621-38 568.5-84.5T516-197q0-63 56-91.5T758-317h24l-82-95h-22q-125 0-198.5 47.5T406-225q0 136 180 205h-25z"/><glyph glyph-name="uogonek" unicode="ų" d="M723 0v170q-17-36-41-66.5t-60.5-60T532-3 416-20q-314 0-314 407v944h189V397q0-131 46.5-195.5T487 137q53 0 95 18t68 46 43 66 23.5 75 6.5 76v913h188V0Q803-36 750.5-82.5T698-195q0-63 56-91.5T940-315h25l-82-95h-23q-125 0-198.5 47.5T588-223q0 47 19.5 84.5t55 63.5T735-32t86 32h-98z"/><glyph glyph-name="Wcircumflex" unicode="Ŵ" horiz-adv-x="1705" d="M340 0L31 1655h198L469 246l2-10 2 10 254 1409h252l254-1407 2-15 4 15 238 1407h196L1366 0h-262L858 1374l-4 23-6-23L602 0H340zm199 1782l243 237h144l239-237h-139l-172 174-176-174H539z"/><glyph glyph-name="wcircumflex" unicode="ŵ" horiz-adv-x="1495" d="M434 1458l244 238h143l240-238H922l-172 174-177-174H434zM29 1331h190L424 190l213 1141h221l215-1141 205 1141h186L1196 0H967L745 1163 522 0H299z"/><glyph glyph-name="Ycircumflex" unicode="Ŷ" horiz-adv-x="995" d="M399 0v580L10 1655h209l279-834 278 834h207L596 580V0H399zM184 1782l244 237h143l240-237H672l-172 174-176-174H184z"/><glyph glyph-name="ycircumflex" unicode="ŷ" horiz-adv-x="1017" d="M721 12v158q-17-36-41-66.5t-60.5-60T530-3 414-20q-314 0-314 407v944h189V397q0-131 46.5-195.5T485 137q53 0 95 18t68 46 43 66 23.5 75 6.5 76v913h188V10q0-117-17-195t-59-134-113.5-81.5T539-426H139v160h365q126 0 171.5 60.5T721 12zM188 1458l244 238h143l240-238H676l-172 174-176-174H188z"/><glyph glyph-name="Ydieresis" unicode="Ÿ" horiz-adv-x="995" d="M399 0v580L10 1655h209l279-834 278 834h207L596 580V0H399zM199 1880q0 50 30.5 77.5T307 1985q46 0 78.5-27.5T418 1880q0-45-33-72.5t-78-27.5q-46 0-77 27t-31 73zm379 0q0 50 30.5 77.5T686 1985q46 0 78.5-27.5T797 1880q0-45-33-72.5t-78-27.5q-46 0-77 27t-31 73z"/><glyph glyph-name="Zacute" unicode="Ź" horiz-adv-x="923" d="M53 0v164l609 1327H53v164h817v-164L262 164h608V0H53zm76 1864l645 151 21-80-645-149z"/><glyph glyph-name="zacute" unicode="ź" horiz-adv-x="860" d="M51 1331h758v-160L256 160h551V0H53v160l551 1011H51v160zm47 209l645 152 21-80-645-150z"/><glyph glyph-name="Zdotaccent" unicode="Ż" horiz-adv-x="923" d="M53 0v164l609 1327H53v164h817v-164L262 164h608V0H53zm293 1886q0 46 31.5 77.5T463 1995q55 0 87-31.5t32-77.5q0-45-32-75.5t-87-30.5q-54 0-85.5 30.5T346 1886z"/><glyph glyph-name="zdotaccent" unicode="ż" horiz-adv-x="860" d="M51 1331h758v-160L256 160h551V0H53v160l551 1011H51v160zm252 234q0 49 34 79.5t95 30.5 95-30.5 34-79.5q0-46-34-76.5t-95-30.5-95 30.5-34 76.5z"/><glyph glyph-name="Zcaron" unicode="Ž" horiz-adv-x="923" d="M53 0v164l609 1327H53v164h817v-164L262 164h608V0H53zm78 2015h143l189-174 184 174h144l-256-237H391z"/><glyph glyph-name="zcaron" unicode="ž" horiz-adv-x="860" d="M51 1331h758v-160L256 160h551V0H53v160l551 1011H51v160zm51 361h144l188-174 184 174h144l-256-238H362z"/><glyph glyph-name="uni0218" unicode="Ș" horiz-adv-x="1034" d="M526-20Q292-20 176.5 98.5T61 457v112h199V420q0-153 64.5-216T528 141q127 0 182.5 54.5T766 379v37q0 65-12 112t-38.5 82.5-58 60T575 723L352 850q-64 38-109 76t-82.5 88-56 114.5T86 1272q0 191 107.5 297T516 1675q216 0 327-109t111-325v-88H756v100q0 147-59.5 203.5T514 1513q-118 0-173.5-49T285 1300v-24q0-102 44.5-162T463 1004l223-127q69-40 114.5-76.5T887 710t60.5-126.5T967 416q0-218-106.5-327T526-20zM424-172q0 42 28.5 71T526-72t73-30.5 28-90.5q0-72-44-134T451-432v84q99 38 122 121-27-35-65-35-34 0-59 25t-25 65z"/><glyph glyph-name="uni0219" unicode="ș" horiz-adv-x="942" d="M643 698q128-71 182-149t54-203q0-60-11.5-111.5T827 135t-73.5-81.5T639 0 479-20Q264-20 160.5 81T57 371v82h193v-80q0-126 53.5-181T479 137q109 0 159 48.5T688 334q0 78-35 126.5T522 565L307 690q-114 61-171.5 136T78 1018q0 67 20.5 124t63.5 105.5 121 76.5 184 28q403 0 403-379v-64H678v62q0 122-52 172.5T467 1194q-93 0-145-41.5T270 1028q0-65 32-107.5T412 834zM375-172q0 42 28.5 71T477-72t73-30.5 28-90.5q0-71-44.5-133.5T401-432v84q101 38 123 121-27-35-65-35-34 0-59 25t-25 65z"/><glyph glyph-name="uni021A" unicode="Ț" horiz-adv-x="940" d="M373 0v1491H35v164h870v-164H567V0H373zm-2-172q0 42 28.5 71T473-72t72.5-30.5T573-193q0-72-44-134T397-432v84q101 38 123 121-27-35-65-35-34 0-59 25t-25 65z"/><glyph glyph-name="uni021B" unicode="ț" horiz-adv-x="720" d="M674 1331v-160H399V373q0-131 25-172t104-41h146V0H467q-65 0-111 15t-74 41-44 69.5-21.5 92T211 336v835H20v160h27q99 21 150 109.5t49 214.5h188q0-122-45.5-212.5T276 1331h398zM362-152q0 42 29 71.5T465-51t72.5-30.5T565-172q0-72-44-134.5T389-412v84q101 38 123 121-27-35-66-35-34 0-59 25t-25 65z"/><glyph glyph-name="uni0237" unicode="ȷ" horiz-adv-x="409" d="M111-8v1339h188V-25q0-110-16.5-183T226-331t-107.5-72.5T-51-426h-144v160h109q116 0 156.5 55T111-8z"/><glyph glyph-name="circumflex" unicode="ˆ" horiz-adv-x="1036" d="M205 1458l244 238h143l239-238H692l-172 174-176-174H205z"/><glyph glyph-name="caron" unicode="ˇ" horiz-adv-x="1069" d="M465 1454l-260 238h143l189-174 184 174h143l-256-238H465z"/><glyph glyph-name="breve" unicode="˘" horiz-adv-x="1075" d="M541 1454q-55 0-102.5 6.5T347 1484t-74.5 42.5-49 66.5-18.5 93h102q0-55 37.5-90t86.5-46.5 110-11.5q44 0 82 7t72 23 53.5 46 19.5 72h102q0-232-329-232z"/><glyph glyph-name="dotaccent" unicode="˙" horiz-adv-x="667" d="M334 1458q-61 0-95 30.5t-34 76.5q0 49 34 79.5t95 30.5 95-30.5 34-79.5q0-46-34-76.5t-95-30.5z"/><glyph glyph-name="ring" unicode="˚" horiz-adv-x="741" d="M371 1423q-67 0-116.5 47.5T205 1589t49.5 118.5T371 1755t116.5-47.5T537 1589t-49.5-118.5T371 1423zm-82 166q0-37 22-59.5t60-22.5 60 22.5 22 59.5-22 59.5-60 22.5-60-22.5-22-59.5z"/><glyph glyph-name="ogonek" unicode="˛" horiz-adv-x="776" d="M487-410q-125 0-198.5 47.5T215-223q0 47 19.5 84.5T290-75t73 43 86 32h90Q431-36 378.5-82.5T326-195q0-64 56-92t185-28h25l-82-95h-23z"/><glyph glyph-name="tilde" unicode="˜" horiz-adv-x="1071" d="M205 1475q0 59 15 101.5t42 65.5 58 33.5 69 10.5q47 0 83.5-15.5T532 1633t43-44 45.5-37.5T676 1536q88 0 88 127h102q0-115-52.5-163T680 1452q-48 0-85.5 15.5T534 1505t-42.5 44-43.5 37.5-53 15.5q-88 0-88-127H205z"/><glyph glyph-name="hungarumlaut" unicode="˝" horiz-adv-x="1005" d="M582 1454H444l240 229h117zm-377 0l239 229h117l-219-229H205z"/><glyph glyph-name="uni1E20" unicode="Ḡ" horiz-adv-x="1120" d="M532-20q-216 0-331 141.5T86 504v643q0 248 118 388t355 140q227 0 344.5-129t122.5-356v-160H825v197q-5 286-264 286-137 0-206.5-79.5T285 1186V471q0-167 66.5-248.5T557 141q135 0 200 75.5T825 451v235H524v156h502V0H913l-20 172Q775-20 532-20zM213 1851v82h690v-82H213z"/><glyph glyph-name="uni1E21" unicode="ḡ" horiz-adv-x="1019" d="M723 18v146q-16-34-39.5-64T624 41.5t-88-45T422-20Q259-20 169.5 92T80 408v526q0 197 90 307.5T424 1352q189 0 299-170v149h188V2q0-115-16.5-191.5t-58-131.5T723-401t-182-25H137v160h373q124 0 168.5 62T723 18zM145 1528v82h691v-82H145zM272 422q0-283 215-283 105 0 165.5 69T723 383v567q-10 105-70.5 174.5T487 1194q-215 0-215-285V422z"/><glyph glyph-name="Wgrave" unicode="Ẁ" horiz-adv-x="1705" d="M340 0L31 1655h198L469 246l2-10 2 10 254 1409h252l254-1407 2-15 4 15 238 1407h196L1366 0h-262L858 1374l-4 23-6-23L602 0H340zm168 1927l20 80 670-152-20-77z"/><glyph glyph-name="wgrave" unicode="ẁ" horiz-adv-x="1495" d="M1092 1532l-21-78-670 150 21 79zM29 1331h190L424 190l213 1141h221l215-1141 205 1141h186L1196 0H967L745 1163 522 0H299z"/><glyph glyph-name="Wacute" unicode="Ẃ" horiz-adv-x="1705" d="M340 0L31 1655h198L469 246l2-10 2 10 254 1409h252l254-1407 2-15 4 15 238 1407h196L1366 0h-262L858 1374l-4 23-6-23L602 0H340zm180 1864l645 151 21-80-645-149z"/><glyph glyph-name="wacute" unicode="ẃ" horiz-adv-x="1495" d="M434 1462l-20 78 645 152 20-80zM29 1331h190L424 190l213 1141h221l215-1141 205 1141h186L1196 0H967L745 1163 522 0H299z"/><glyph glyph-name="Wdieresis" unicode="Ẅ" horiz-adv-x="1705" d="M340 0L31 1655h198L469 246l2-10 2 10 254 1409h252l254-1407 2-15 4 15 238 1407h196L1366 0h-262L858 1374l-4 23-6-23L602 0H340zm213 1880q0 50 31 77.5t78 27.5q46 0 78-27.5t32-77.5q0-45-32.5-72.5T662 1780q-46 0-77.5 27t-31.5 73zm379 0q0 50 30.5 77.5t77.5 27.5q46 0 78.5-27.5t32.5-77.5q0-45-33-72.5t-78-27.5q-46 0-77 27t-31 73z"/><glyph glyph-name="wdieresis" unicode="ẅ" horiz-adv-x="1495" d="M936 1456q-46 0-77.5 27t-31.5 73q0 50 31 77.5t78 27.5q46 0 78.5-27.5t32.5-77.5q0-45-33-72.5t-78-27.5zM29 1331h190L424 190l213 1141h221l215-1141 205 1141h186L1196 0H967L745 1163 522 0H299zm420 225q0 50 30.5 77.5T557 1661q46 0 78.5-27.5T668 1556q0-45-33-72.5t-78-27.5q-46 0-77 27t-31 73z"/><glyph glyph-name="uni1E9E" unicode="ẞ" horiz-adv-x="1046" d="M113 1309q0 181 92 263.5t295 82.5h467q-36-252-68.5-386t-74-200T717 977q128-38 190-140t62-292V438Q969 0 571 0H389v158h150q127 2 183 63.5T778 438v137q0 76-11 129.5t-39 97-80.5 65.5T516 889l-127 2v156l121 2q27 0 47.5 2t39.5 8.5 33 14 27.5 24.5 23 32.5T701 1176t19 56.5 18.5 72.5 18.5 87 21 105H500q-105 0-152-41.5T301 1315V0H113v1309z"/><glyph glyph-name="uni1EBC" unicode="Ẽ" horiz-adv-x="929" d="M117 0v1655h741v-164H313V909h521V745H313V164h545V0H117zm41 1798q0 59 15 101.5t42 65.5 58 33.5 69 10.5q47 0 83.5-15.5T485 1956t43-43.5 45.5-37T629 1860q88 0 88 127h102q0-115-52.5-163T633 1776q-48 0-85.5 15.5t-60.5 37-42.5 43.5-43.5 37.5-53 15.5q-88 0-88-127H158z"/><glyph glyph-name="uni1EBD" unicode="ẽ" horiz-adv-x="985" d="M164 1475q0 59 15 101.5t42 65.5 58 33.5 69 10.5q47 0 83.5-15.5T491 1633t43-44 45.5-37.5T635 1536q88 0 88 127h102q0-115-52.5-163T639 1452q-48 0-85.5 15.5T493 1505t-42.5 44-43.5 37.5-53 15.5q-88 0-88-127H164zM76 461v409q0 234 105 358t319 124q409 0 409-478V631H268V436q0-159 58.5-229T500 137q103 0 155.5 58T711 387v55h194v-28Q892-20 500-20q-213 0-318.5 123.5T76 461zm192 311h449v146q-1 151-56.5 213.5T498 1194q-114 0-172-69.5T268 895V772z"/><glyph glyph-name="Ygrave" unicode="Ỳ" horiz-adv-x="995" d="M399 0v580L10 1655h209l279-834 278 834h207L596 580V0H399zM152 1927l20 80 670-152-21-77z"/><glyph glyph-name="ygrave" unicode="ỳ" horiz-adv-x="1017" d="M721 12v158q-17-36-41-66.5t-60.5-60T530-3 414-20q-314 0-314 407v944h189V397q0-131 46.5-195.5T485 137q53 0 95 18t68 46 43 66 23.5 75 6.5 76v913h188V10q0-117-17-195t-59-134-113.5-81.5T539-426H139v160h365q126 0 171.5 60.5T721 12zM156 1604l20 79 670-151-21-78z"/><glyph glyph-name="uni1EF8" unicode="Ỹ" horiz-adv-x="995" d="M399 0v580L10 1655h209l279-834 278 834h207L596 580V0H399zM166 1798q0 59 15 101.5t42 65.5 58 33.5 69 10.5q47 0 83.5-15.5T493 1956t43-43.5 45.5-37T637 1860q88 0 88 127h102q0-115-52.5-163T641 1776q-48 0-85.5 15.5t-60.5 37-42.5 43.5-43.5 37.5-53 15.5q-88 0-88-127H166z"/><glyph glyph-name="uni1EF9" unicode="ỹ" horiz-adv-x="1017" d="M721 12v158q-17-36-41-66.5t-60.5-60T530-3 414-20q-314 0-314 407v944h189V397q0-131 46.5-195.5T485 137q53 0 95 18t68 46 43 66 23.5 75 6.5 76v913h188V10q0-117-17-195t-59-134-113.5-81.5T539-426H139v160h365q126 0 171.5 60.5T721 12zM170 1475q0 59 15 101.5t42 65.5 58 33.5 69 10.5q47 0 83.5-15.5T497 1633t43-44 45.5-37.5T641 1536q88 0 88 127h102q0-115-52.5-163T645 1452q-48 0-85.5 15.5T499 1505t-42.5 44-43.5 37.5-53 15.5q-88 0-88-127H170z"/><glyph glyph-name="uni2000" horiz-adv-x="1024"/><glyph glyph-name="uni2001" horiz-adv-x="2048"/><glyph glyph-name="uni2002" horiz-adv-x="1024"/><glyph glyph-name="uni2003" horiz-adv-x="2048"/><glyph glyph-name="uni2004" horiz-adv-x="681"/><glyph glyph-name="uni2005" horiz-adv-x="512"/><glyph glyph-name="uni2006" horiz-adv-x="342"/><glyph glyph-name="uni2007" horiz-adv-x="1128"/><glyph glyph-name="uni2008" horiz-adv-x="393"/><glyph glyph-name="uni2009" horiz-adv-x="256"/><glyph glyph-name="uni200A" horiz-adv-x="86"/><glyph glyph-name="uni200B" unicode="​" horiz-adv-x="0"/><glyph glyph-name="endash" unicode="–" horiz-adv-x="1427" d="M61 723h1307v-92H61v92z"/><glyph glyph-name="emdash" unicode="—" horiz-adv-x="2373" d="M61 723h2253v-92H61v92z"/><glyph glyph-name="quoteleft" unicode="‘" horiz-adv-x="303" d="M178 1163H53l94 512h105z"/><glyph glyph-name="quoteright" unicode="’" horiz-adv-x="301" d="M133 1675h125l-94-512H59z"/><glyph glyph-name="quotesinglbase" unicode="‚" horiz-adv-x="290" d="M102 268h125l-94-512H29z"/><glyph glyph-name="quotedblleft" unicode="“" horiz-adv-x="501" d="M377 1163H252l94 512h105zm-324 0l94 512h105l-74-512H53z"/><glyph glyph-name="quotedblright" unicode="”" horiz-adv-x="499" d="M133 1675h125l-94-512H59zm125-512l74 512h125l-95-512H258z"/><glyph glyph-name="quotedblbase" unicode="„" horiz-adv-x="489" d="M102 268h125l-94-512H29zm123-514l74 512h125l-94-512H225z"/><glyph glyph-name="dagger" unicode="†" horiz-adv-x="462" d="M180 641v610H63v95h117v309h103v-309h116v-95H283V641H180z"/><glyph glyph-name="daggerdbl" unicode="‡" horiz-adv-x="501" d="M201 641v289H84v94h117v227H84v92h117v312h102v-312h117v-92H303v-227h117v-94H303V641H201z"/><glyph glyph-name="bullet" unicode="•" horiz-adv-x="704" d="M352 479q-99 0-165 63.5T121 707q0 105 66 169t165 64q98 0 165-64t67-169q0-101-67.5-164.5T352 479z"/><glyph glyph-name="ellipsis" unicode="…" horiz-adv-x="1097" d="M197-20q-58 0-97 37t-39 96q0 62 39 99.5t97 37.5q57 0 96-38t39-99q0-59-39-96t-96-37zm219 133q0 62 38.5 99.5T551 250q57 0 96-38t39-99q0-59-39-96t-96-37q-58 0-96.5 37T416 113zm350 0q0 62 38.5 99.5T901 250q57 0 96-38t39-99q0-59-39-96t-96-37q-58 0-96.5 37T766 113z"/><glyph glyph-name="uni202F" horiz-adv-x="346"/><glyph glyph-name="perthousand" unicode="‰" horiz-adv-x="2039" d="M1712-20q-76 0-134.5 28.5T1485 86t-51 107-17 124 17 124.5 51 108 92.5 78.5 134.5 29q75 0 133.5-29t92-78.5 50.5-108 17-124.5q0-65-17-123.5T1937.5 86t-92-77.5T1712-20zM39 1337q0 65 17 124t50.5 107.5 92 77.5 133.5 29 133.5-29 93-77.5T610 1461t17-124-17-124-51.5-108.5-93-78.5T332 997t-133.5 29-92 78.5-50.5 108T39 1337zm149 0q0-200 144-200 145 0 145 200 0 199-145 199-144 0-144-199zM291 0l684 1655h106L397 0H291zm459 317q0 66 17 124.5t50.5 108 92 78.5 134.5 29q75 0 133.5-29t92-78.5 50.5-108 17-124.5q0-65-17-123.5T1269.5 86t-92-77.5T1044-20q-76 0-134.5 28.5t-92 77.5T767 193t-17 124zm149 0q0-198 145-198 144 0 144 198 0 201-144 201-145 0-145-201zm668 0q0-198 145-198 143 0 143 198 0 201-143 201-145 0-145-201z"/><glyph glyph-name="second" unicode="″" horiz-adv-x="495" d="M86 1655h125v-512H86v512zm201-512v512h125v-512H287z"/><glyph glyph-name="guilsinglleft" unicode="‹" horiz-adv-x="514" d="M418 291L63 633v86l355 342V922L160 676l258-246V291z"/><glyph glyph-name="guilsinglright" unicode="›" horiz-adv-x="514" d="M96 291v139l258 246L96 922v139l355-342v-86z"/><glyph glyph-name="fraction" unicode="⁄" horiz-adv-x="180" d="M467 1655L-203 0h-98l672 1655h96z"/><glyph glyph-name="uni205F" horiz-adv-x="454"/><glyph glyph-name="uni2070" unicode="⁰" horiz-adv-x="583" d="M291 692q-116 0-175 70T57 963v307q0 130 59 200t175 70q117 0 176-69.5t59-200.5V963q0-131-58.5-201T291 692zM180 971l213 399q-20 70-102 70-111 0-111-142V971zm13-119q26-59 98-59 57 0 84.5 34T403 936v311z"/><glyph glyph-name="uni2074" unicode="⁴" horiz-adv-x="536" d="M436 1530V963h66V862h-66V702H315v160H29v111l293 557h114zM121 963h194v368z"/><glyph glyph-name="uni2075" unicode="⁵" horiz-adv-x="557" d="M324 1257q87 0 137.5-54.5T512 1036v-92q0-252-233-252-111 0-170.5 60.5T49 930v26h123v-49q0-114 109-114 106 0 106 114v127q0 121-100 121-86 0-111-102H55l25 477h395v-100H190l-16-256q50 83 150 83z"/><glyph glyph-name="uni2076" unicode="⁶" horiz-adv-x="573" d="M289 692q-116 0-173 63T59 948v309q0 144 55 213.5t177 69.5q112 0 164.5-57t52.5-158v-16H385v14q0 55-22.5 81t-71.5 26q-56 0-82.5-30t-26.5-95v-115q52 70 148 70 92 0 142-59t50-169V932q0-117-59-178.5T289 692zM182 909q0-64 27.5-90t83.5-26q54 0 80 27t26 87v131q0 117-104 117-55 0-84-30t-29-85V909z"/><glyph glyph-name="uni2077" unicode="⁷" horiz-adv-x="487" d="M23 1430v100h434v-100q-66-83-109-170.5T284.5 1080 257 908.5 250 727v-25H129v23q0 209 44.5 379.5T342 1430H23z"/><glyph glyph-name="uni2078" unicode="⁸" horiz-adv-x="563" d="M283 692Q51 692 51 903v45q0 165 117 195-109 29-109 164v39q0 92 56.5 143t167.5 51q110 0 165.5-50.5T506 1346v-39q-3-136-111-164 119-32 119-195v-45q0-211-231-211zM174 897q0-62 26-84t83-22 82 22 26 84v86q-1 58-27 81t-81 23-82-23-27-81v-86zm8 383q0-48 25-69t76-21q98 0 98 92v68q0 49-24 70.5t-74 21.5q-52 0-76.5-21.5T182 1350v-70z"/><glyph glyph-name="uni2079" unicode="⁹" horiz-adv-x="573" d="M285 1540q229 0 229-256V975q0-143-54.5-213T285 692q-114 0-166.5 57.5T66 907v17h122v-15q0-54 23-80t72-26q56 0 82 29.5t26 95.5v114q-52-69-149-69-92 0-142.5 59T49 1200v100q0 118 60 179t176 61zm-111-346q0-117 105-117 53 0 82.5 31t29.5 84v131q0 63-27 90t-81 27q-56 0-82.5-27t-26.5-88v-131z"/><glyph glyph-name="uni2080" unicode="₀" horiz-adv-x="583" d="M291-266q-116 0-175 70T57 4v307q0 131 59 201t175 70q117 0 176-70t59-201V4q0-131-58.5-200.5T291-266zM180 12l213 400q-20 69-102 69-111 0-111-141V12zm13-118q26-60 98-60 57 0 84.5 34T403-23v312z"/><glyph glyph-name="uni2081" unicode="₁" horiz-adv-x="464" d="M45-156h139v584q-48-55-141-55v108q104 0 152 90h108v-727h141v-100H45v100z"/><glyph glyph-name="uni2082" unicode="₂" horiz-adv-x="557" d="M47-145Q47-44 83 23.5T211 145l76 50q53 30 76.5 68t23.5 99v17q0 57-25 79.5T285 481q-56 0-82.5-25T176 367v-60H53v45q0 112 58 171t172 59q112 0 170.5-58T512 356q0-169-147-250l-86-55q-67-37-87-78t-20-129h338v-100H47v111z"/><glyph glyph-name="uni2083" unicode="₃" horiz-adv-x="557" d="M276-266q-118 0-175 54.5T43-41V0h123v-53q1-65 27.5-90t80.5-25q57 0 83 26t26 83v69q0 109-104 109h-84v100h81q103 0 103 98v62q0 57-27 80.5T274 483q-50 0-76.5-24T170 375v-49H47v34q3 222 229 222 63 0 109.5-19.5t70.5-52 35-66.5 11-71v-25q0-135-109-174 113-39 113-188v-29q0-223-230-223z"/><glyph glyph-name="uni2084" unicode="₄" horiz-adv-x="536" d="M436 571V4h66V-96h-66v-160H315v160H29V14l293 557h114zM121 4h194v369z"/><glyph glyph-name="uni2085" unicode="₅" horiz-adv-x="557" d="M324 299q87 0 137.5-54.5T512 78v-92q0-252-233-252-111 0-170.5 60T49-29v27h123v-49q0-115 109-115 106 0 106 115V76q0 121-100 121-86 0-111-103H55l25 477h395V471H190l-16-256q50 84 150 84z"/><glyph glyph-name="uni2086" unicode="₆" horiz-adv-x="573" d="M289-266q-116 0-173 63T59-10v309q0 144 55 213.5T291 582q112 0 164.5-57T508 367v-17H385v15q0 54-22.5 80T291 471q-56 0-82.5-30T182 346V231q52 70 148 70 92 0 142-58.5T522 74V-27q0-117-59-178t-174-61zM182-49q0-64 27.5-90.5T293-166q54 0 80 27.5T399-51V80q0 117-104 117-55 0-84-30t-29-85V-49z"/><glyph glyph-name="uni2087" unicode="₇" horiz-adv-x="485" d="M23 471v100h434V471q-66-83-109-170t-63.5-179T257-49.5 250-231v-25H129v23q0 209 44.5 379T342 471H23z"/><glyph glyph-name="uni2088" unicode="₈" horiz-adv-x="563" d="M283-266Q51-266 51-55v45q0 164 117 194Q59 213 59 348v39q0 93 56.5 144T283 582q110 0 165.5-51T506 387v-39q-3-136-111-164 119-32 119-194v-45q0-211-231-211zM174-61q0-62 26-84.5t83-22.5 82 22.5T391-61v86q-1 58-27 81t-81 23-82-23-27-81v-86zm8 383q0-48 25-69.5t76-21.5q98 0 98 93v67q0 49-24 70.5T283 483q-52 0-76.5-21.5T182 391v-69z"/><glyph glyph-name="uni2089" unicode="₉" horiz-adv-x="573" d="M285 582q229 0 229-256V16q0-143-54-212.5T285-266q-114 0-166.5 57.5T66-51v16h122v-14q0-107 95-107 56 0 82 29.5T391-31V84q-53-70-149-70-92 0-142.5 59.5T49 242v100q0 118 60 179t176 61zM174 236q0-117 105-117 53 0 82.5 30.5T391 233v132q0 63-27 89.5T283 481q-56 0-82.5-26.5T174 367V236z"/><glyph glyph-name="Euro" unicode="€" horiz-adv-x="1206" d="M78 707v81h133v78H78v82h133v199q0 248 114 388t345 140q222 0 333.5-130t116.5-361V979H920v242q-3 152-66.5 222T670 1513q-258 0-258-327V948h360v-82H412v-78h360v-81H412V471q0-170 65-250t193-80q121 0 184 70.5T920 436v242h200V473q-5-232-116.5-362.5T670-20q-231 0-345 140T211 510v197H78z"/><glyph glyph-name="trademark" unicode="™" horiz-adv-x="1220" d="M510 842v813h158l145-598 148 598h155V842H987v518L866 842H762l-123 520V842H510zM43 1524v131h422v-131H319V842H188v682H43z"/><glyph glyph-name="oneeighth" unicode="⅛" horiz-adv-x="1439" d="M59 928h140v583q-48-55-142-55v109q104 0 152 90h108V928h142V827H59v101zM291 0l670 1655h98L389 0h-98zm635 201v45q0 164 116 194-108 28-108 164v39q0 93 56.5 144t166.5 51 165.5-51 57.5-144v-39q-3-136-110-164 119-32 119-194v-45q0-211-232-211-231 0-231 211zm123-6q0-62 25.5-84.5T1157 88t82.5 22.5T1266 195v86q-1 58-27.5 81t-81.5 23-81.5-23-26.5-81v-86zm8 383q0-48 24.5-69.5T1157 487q98 0 98 93v67q0 49-24 70.5t-74 21.5q-52 0-76-21.5t-24-70.5v-69z"/><glyph glyph-name="threeeighths" unicode="⅜" horiz-adv-x="1521" d="M289 817q-118 0-175.5 54.5T55 1042v41h123v-53q1-64 28-89.5t81-25.5q57 0 82.5 26t25.5 83v70q0 63-29 85.5t-75 22.5h-84v101h82q102 0 102 98v61q0 57-26.5 81t-77.5 24q-50 0-77-24.5t-28-84.5v-49H59v35q3 221 230 221 63 0 109.5-19.5t70.5-52 34.5-66.5 10.5-71v-24q0-136-108-175 112-39 112-188v-29q0-223-229-223zM371 0l669 1655h99L469 0h-98zm635 201v45q0 164 116 194-108 28-108 164v39q0 93 56.5 144t166.5 51 165.5-51 57.5-144v-39q-3-136-110-164 118-32 118-194v-45q0-211-231-211t-231 211zm122-6q0-62 26-84.5t83-22.5 82.5 22.5T1346 195v86q-1 58-27.5 81t-81.5 23-82-23-27-81v-86zm9 383q0-48 24.5-69.5T1237 487q98 0 98 93v67q0 49-24 70.5t-74 21.5q-52 0-76-21.5t-24-70.5v-69z"/><glyph glyph-name="fiveeighths" unicode="⅝" horiz-adv-x="1513" d="M326 1382q87 0 137.5-54.5T514 1161v-92q0-252-233-252-111 0-170.5 60.5T51 1055v26h123v-49q0-114 109-114 106 0 106 114v127q0 121-100 121-86 0-111-102H57l25 477h395v-101H193l-17-256q50 84 150 84zM362 0l670 1655h98L461 0h-99zm635 201v45q0 164 117 194-108 28-108 164v39q0 93 56.5 144t166.5 51 165.5-51 57.5-144v-39q-3-136-111-164 119-32 119-194v-45q0-211-231-211-232 0-232 211zm123-6q0-62 26-84.5t83-22.5 82 22.5 26 84.5v86q-1 58-27 81t-81 23-82-23-27-81v-86zm8 383q0-48 25-69.5t76-21.5q98 0 98 93v67q0 49-24 70.5t-74 21.5q-52 0-76.5-21.5T1128 647v-69z"/><glyph glyph-name="seveneighths" unicode="⅞" horiz-adv-x="1447" d="M29 1554v101h434v-101q-66-83-109-170t-63.5-179-27.5-171.5-7-181.5v-25H135v23q0 209 44.5 379T348 1554H29zM295 0l672 1655h96L393 0h-98zm635 201v45q0 164 117 194-109 29-109 164v39q0 93 56.5 144t166.5 51 165.5-51 57.5-144v-39q-3-136-110-164 119-32 119-194v-45q0-211-232-211-231 0-231 211zm123-6q0-62 25.5-84.5T1161 88t82.5 22.5T1270 195v86q-1 58-27.5 81t-81.5 23-81.5-23-26.5-81v-86zm8 383q0-48 24.5-69.5T1161 487q99 0 99 93v67q0 49-24.5 70.5T1161 739q-52 0-76-21.5t-24-70.5v-69z"/><glyph glyph-name="arrowleft" unicode="←" horiz-adv-x="1048" d="M215 635q100-46 174.5-137T481 268H377q-16 128-109 226T61 635v82q114 43 207 140.5T377 1083h104q-17-139-91-229.5T215 717h770v-82H215z"/><glyph glyph-name="arrowup" unicode="↑" horiz-adv-x="929" d="M506 182h-82v770q-46-100-137-174.5T57 686v105q128 16 226 108.5T424 1106h82q43-114 140.5-206.5T872 791V686q-139 17-229.5 91T506 952V182z"/><glyph glyph-name="arrowright" unicode="→" horiz-adv-x="1048" d="M63 635v82h771q-101 46-175.5 136.5T567 1083h105q16-128 108.5-225.5T987 717v-82q-114-43-206.5-141T672 268H567q17 139 91.5 230T834 635H63z"/><glyph glyph-name="arrowdown" unicode="↓" horiz-adv-x="931" d="M426 1171h82V401q46 101 136.5 175.5T874 668V563q-128-16-225.5-108.5T508 248h-82q-43 114-141 206.5T59 563v105q139-17 230-91.5T426 401v770z"/><glyph glyph-name="arrowboth" unicode="↔" horiz-adv-x="1335" d="M61 733q112 36 206 133t110 226h106q-19-140-94-230.5T215 733h903q-98 38-172.5 128.5T852 1092h104q16-129 110-226t206-133v-98q-112-36-206-133T956 276H852q19 140 93.5 230.5T1118 635H215q99-38 174-128.5T483 276H377q-16 129-110 226T61 635v98z"/><glyph glyph-name="arrowupdn" unicode="↕" horiz-adv-x="948" d="M522 1276q36-112 133-205.5T881 961V854q-140 19-230.5 94T522 1122V219q38 98 128.5 172.5T881 485V381q-129-16-226-109.5T522 66h-98q-36 112-132.5 205.5T66 381v104q140-19 230-93t128-173v903q-38-99-128-174T66 854v107q129 16 225.5 109.5T424 1276h98z"/><glyph glyph-name="uni2196" unicode="↖" horiz-adv-x="860" d="M811 373l-57-60-545 545q25-66 30-134.5T220 571t-83-159l-74 73q54 69 73 160t7 171.5T100 967l58 57q71-32 151-43.5t171 7.5 161 73l74-74q-76-59-161-83t-153-18.5T266 915z"/><glyph glyph-name="uni2197" unicode="↗" horiz-adv-x="860" d="M106 315l-57 58 545 545q-66-25-134.5-30.5t-153.5 18T145 987l74 74q70-53 161-71.5t171.5-6.5 150.5 43l58-57q-32-71-43.5-152t7.5-172 73-160l-74-73q-59 76-83 160.5T621 725t30 133z"/><glyph glyph-name="uni2198" unicode="↘" horiz-adv-x="860" d="M47 1020l59 57 545-545q-25 66-30.5 134.5t18 153.5T721 981l74-74q-54-70-72-161t-6.5-171T760 424l-60-57q-70 31-150 43t-171-7-160-73l-74 73q76 59 160.5 83t153 19T592 475z"/><glyph glyph-name="uni2199" unicode="↙" horiz-adv-x="862" d="M754 1077l59-57-545-545q66 25 134.5 30.5t153-18T715 406l-74-74q-69 53-159.5 71.5t-171 6.5T160 367l-58 59q32 70 43.5 150t-7 171T66 907l73 74q59-76 83-160.5t18.5-152T211 535z"/><glyph glyph-name="uni21E7" unicode="⇧" horiz-adv-x="1703" d="M483-14v604H57l795 883 795-883h-426V-14H483zM287 692h299V88h532v604h299l-565 629z"/><glyph glyph-name="partialdiff" unicode="∂" horiz-adv-x="1140" d="M557-236q-237 0-376.5 143.5T41 293q0 73 14 140t50 134 90.5 116T339 762.5 541 793q281 0 405-189-53 268-222.5 444T242 1329l39 92q153-50 274-117.5t219.5-162 163.5-213 100-271 35-335.5q0-261-133-409.5T557-236zM143 293q0-202 111.5-320T557-145q105 0 185.5 34T872-15t74 144 25 182q0 106-36.5 184.5t-99.5 122-136 64T541 702q-106 0-184.5-32.5t-124-90-67.5-129T143 293z"/><glyph glyph-name="emptyset" unicode="∅" horiz-adv-x="1380" d="M692 272q-104 0-190 21L371 0H262l146 322q-162 64-247 199T76 827q0 113 38 211.5t112 175T420 1334t272 44q102 0 185-18l133 295h108l-147-324q164-64 249-199t85-305q0-115-38.5-214t-112-176T962 316t-270-44zM178 827q0-143 66-255t202-166l392 868q-67 12-146 12-135 0-237-37.5T294 1146t-87.5-145T178 827zm363-448q66-14 151-14 134 0 234.5 37.5t159.5 103 87.5 146T1202 827q0 142-66 253.5T934 1245z"/><glyph glyph-name="product" unicode="∏" horiz-adv-x="1060" d="M723-225v1554H336V-225H233v1554H27v86h1007v-86H825V-225H723z"/><glyph glyph-name="summation" unicode="∑" horiz-adv-x="1052" d="M45-236v84l500 744-500 747v84h963v-84H162l502-745-502-746h846v-84H45z"/><glyph glyph-name="minus" unicode="−" horiz-adv-x="1142" d="M70 866h1007v-86H70v86z"/><glyph glyph-name="radical" unicode="√" horiz-adv-x="1251" d="M389-225L57 508h111l281-633 393 1538h366v-84H922L520-225H389z"/><glyph glyph-name="infinity" unicode="∞" horiz-adv-x="1351" d="M1024 406q-94 0-175 53T676 608q-95-97-175.5-149.5T326 406q-47 0-89.5 15T157 466.5 98 551 76 676t22 125.5 59.5 85 80 45T326 946q94 0 174.5-53T676 743q60 62 105.5 101T893 914.5t131 31.5q46 0 89-15t80.5-45 60-84.5T1276 676t-22-125-59-84.5-80-45.5-91-15zM178 676q0-82 40-126t116-44q68 0 130 43t146 127q-84 84-146 127t-130 43q-156 0-156-170zm563 0q84-84 147-127t132-43q75 0 114.5 44t39.5 126q0 80-39 125t-117 45q-68 0-132-43.5T741 676z"/><glyph glyph-name="integral" unicode="∫" horiz-adv-x="733" d="M25-236v84h45q78 0 127 16t74.5 52.5T306-1t9 120v944q0 86 14.5 147.5t51.5 111 106 74.5 172 25h50v-84h-45q-77 0-126.5-16t-75.5-52.5-35-82.5-9-119V123q0-87-14.5-148t-51-111-106-75T74-236H25z"/><glyph glyph-name="approxequal" unicode="≈" horiz-adv-x="1189" d="M90 895q0 74 23 126.5t62 77.5 79 35.5 86 10.5q64 0 124.5-20.5T572 1074t91.5-59.5 94.5-50 98-20.5q67 0 106 38t39 110h105q0-74-23.5-126.5t-63-77.5-79-35.5T856 842q-64 0-125 20.5t-108 50-91.5 59-94.5 50-99 20.5q-66 0-105.5-37.5T193 895H90zm0-348q0 74 23 126.5t62 77.5 79 35.5 86 10.5q64 0 124.5-20.5T572 726t91.5-59.5 94.5-50 98-20.5q68 0 106.5 37.5T1001 743h105q0-60-16-106t-41-72.5-59.5-43-66.5-22-67-5.5q-64 0-125 20.5t-108 50-91.5 59-94.5 50-99 20.5q-66 0-105.5-37.5T193 547H90z"/><glyph glyph-name="notequal" unicode="≠" horiz-adv-x="1179" d="M326 305l155 359H86v86h434l62 143H86v86h535l155 358h105L725 979h369v-86H686l-61-143h469v-86H586L430 305H326z"/><glyph glyph-name="lessequal" unicode="≤" horiz-adv-x="1185" d="M86 891l1008 326v-103L250 850l844-264V428H86v86h913L86 809v82z"/><glyph glyph-name="greaterequal" unicode="≥" horiz-adv-x="1185" d="M92 586l842 264-842 264v103l1008-326v-82L186 514h914v-86H92v158z"/><glyph glyph-name="uni2317" unicode="⌗" horiz-adv-x="1490" d="M80 887v102h393v393h102V989h340v393h103V989h393V887h-393V547h393V444h-393V51H915v393H575V51H473v393H80v103h393v340H80zm495-340h340v340H575V547z"/><glyph glyph-name="uni2318" unicode="⌘" horiz-adv-x="1576" d="M358 14q-124 0-198 74T86 287q0 134 92 208t271 74h90v295h-90q-179 0-271 74.5T86 1147q0 125 74 198.5t198 73.5q134 0 208.5-92t74.5-270v-90h295v90q0 178 74.5 270t208.5 92q125 0 198.5-73.5T1491 1147q0-134-92-208.5T1128 864h-90V569h90q179 0 271-74t92-208q0-125-74-199t-198-74q-134 0-208.5 92T936 377v90H641v-90q0-179-74.5-271T358 14zM188 287q0-88 41-129t129-41q96 0 138.5 59T539 377v90h-90q-143 0-202-42.5T188 287zm0 860q0-95 59-137.5T449 967h90v90q0 142-42.5 201T358 1317q-88 0-129-41t-41-129zm453-578h295v295H641V569zm397-192q0-142 42.5-201t138.5-59q88 0 129 41t41 129q0 95-59.5 137.5T1128 467h-90v-90zm0 590h90q142 0 201.5 42.5T1389 1147q0 88-41 129t-129 41q-96 0-138.5-59t-42.5-201v-90z"/><glyph glyph-name="uni2325" unicode="⌥" horiz-adv-x="1564" d="M850 115L360 1217H27v102h399L918 217h540V115H850zm-88 1102v102h696v-102H762z"/><glyph glyph-name="filledbox" unicode="■" horiz-adv-x="1349" d="M115 158v1118h1118V158H115z"/><glyph glyph-name="uni25A1" unicode="□" horiz-adv-x="1349" d="M115 158v1118h1118V158H115zm102 102h913v914H217V260z"/><glyph glyph-name="triagup" unicode="▲" horiz-adv-x="1427" d="M33 31l682 1179L1395 31H33z"/><glyph glyph-name="uni25B3" unicode="△" horiz-adv-x="1492" d="M35 31l710 1231L1456 31H35zm176 102h1067l-533 924z"/><glyph glyph-name="uni25B6" unicode="▶" horiz-adv-x="1357" d="M123 1393l1180-680L123 31v1362z"/><glyph glyph-name="uni25B7" unicode="▷" horiz-adv-x="1413" d="M121-6v1421l1231-710zm102 176l924 535-924 532V170z"/><glyph glyph-name="triagdn" unicode="▼" horiz-adv-x="1445" d="M1403 1210L721 31 41 1210h1362z"/><glyph glyph-name="uni25BD" unicode="▽" horiz-adv-x="1503" d="M752-20L41 1210h1421zM219 1108l533-924 534 924H219z"/><glyph glyph-name="uni25C0" unicode="◀" horiz-adv-x="1357" d="M1237 31L57 713l1180 680V31z"/><glyph glyph-name="uni25C1" unicode="◁" horiz-adv-x="1413" d="M1290-6L59 705l1231 710V-6zM264 705l924-535v1067z"/><glyph glyph-name="uni25C6" unicode="◆" horiz-adv-x="1462" d="M733 51L66 717l667 667 666-667z"/><glyph glyph-name="uni25C7" unicode="◇" horiz-adv-x="1503" d="M752 29L66 717l688 688 686-688zM209 717l545-543 542 543-544 543z"/><glyph glyph-name="lozenge" unicode="◊" horiz-adv-x="845" d="M350 1280h148l282-614L498 51H350L68 666zM178 666l246-535 246 535-246 534z"/><glyph glyph-name="circle" unicode="○" horiz-adv-x="1400" d="M700 92q-127 0-243 49.5T257.5 275 125 474.5 76 717t49 242.5 132.5 199 199.5 133 243 49.5q169 0 312.5-83.5t227-227.5 83.5-313-83.5-313-227-228T700 92zM178 717q0-221 150.5-370.5T700 197q145 0 264.5 68t188 187.5T1221 717t-68.5 264.5-188 187.5-264.5 68q-221 0-371.5-149.5T178 717z"/><glyph glyph-name="uni25CF" unicode="●" horiz-adv-x="1400" d="M700 94q-127 0-243 49.5t-199.5 133T125 475 76 717t49 242.5 132.5 199 199.5 133 243 49.5q169 0 312.5-83.5t227-227.5 83.5-313-83.5-312.5-227-227T700 94z"/><glyph glyph-name="uni2B1B" unicode="⬛" horiz-adv-x="2091" d="M184-143v1720h1721V-143H184z"/><glyph glyph-name="uni2B1C" unicode="⬜" horiz-adv-x="2091" d="M184-143v1720h1721V-143H184zM287-41h1515v1516H287V-41z"/><glyph glyph-name="uni2B98" unicode="⮘" horiz-adv-x="1437" d="M1364-39L76 705l1288 743-322-743zM281 705h649l217 499z"/><glyph glyph-name="uni2B99" unicode="⮙" horiz-adv-x="1523" d="M18-27l744 1289L1505-27 762 295zm744 435l500-218-500 867V408z"/><glyph glyph-name="uni2B9A" unicode="⮚" horiz-adv-x="1437" d="M74-39l321 744-321 743 1288-743zm217 1243l217-499h649z"/><glyph glyph-name="uni2B9B" unicode="⮛" horiz-adv-x="1527" d="M764-20L20 1268l744-322 743 322zM264 1051l500-867v650z"/><glyph glyph-name="uni2B9C" unicode="⮜" horiz-adv-x="1335" d="M1253 31L74 713l1179 680-295-680z"/><glyph glyph-name="uni2B9D" unicode="⮝" horiz-adv-x="1409" d="M25 31l682 1179L1386 31 707 326z"/><glyph glyph-name="uni2B9E" unicode="⮞" horiz-adv-x="1335" d="M82 31l295 682-295 680 1180-680z"/><glyph glyph-name="uni2B9F" unicode="⮟" horiz-adv-x="1411" d="M705 31L25 1210l680-295 681 295z"/><glyph glyph-name="uni3000" horiz-adv-x="2048"/><glyph glyph-name="uni004A0301" horiz-adv-x="1017" d="M477-20q-221 0-325.5 126T47 479v119h199V440q0-164 58-231.5T477 141q114 0 173 66.5T709 436v1219h198V475q0-495-430-495zm-6 1884l645 151 21-80-645-149z"/><glyph glyph-name="I.bracket" horiz-adv-x="538" d="M172 0v1655h195V0H172z"/><glyph glyph-name="A.ss01" horiz-adv-x="1560" d="M25 0l630 1655h248L1536 0h-209l-127 342H360L233 0H25zm401 516h709l-344 922-13 30-10-30z"/><glyph glyph-name="Aacute.ss01" horiz-adv-x="1560" d="M25 0l630 1655h248L1536 0h-209l-127 342H360L233 0H25zm249 1855l990 152 20-80-989-151zM426 516h709l-344 922-13 30-10-30z"/><glyph glyph-name="Abreve.ss01" horiz-adv-x="1560" d="M25 0l630 1655h248L1536 0h-209l-127 342H360L233 0H25zm299 2015h102q0-43 25.5-73t75.5-46 111-23 144-7q82 0 142.5 6.5t109.5 23 74 46.5 25 73h102q0-68-31.5-115t-93.5-73.5-141-37.5-187-11-188 11-143 37.5-95 73.5-32 115zM426 516h709l-344 922-13 30-10-30z"/><glyph glyph-name="Acircumflex.ss01" horiz-adv-x="1560" d="M25 0l630 1655h248L1536 0h-209l-127 342H360L233 0H25zm313 1745l375 262h143l367-262h-176l-263 197-270-197H338zm88-1229h709l-344 922-13 30-10-30z"/><glyph glyph-name="Adieresis.ss01" horiz-adv-x="1560" d="M25 0l630 1655h248L1536 0h-209l-127 342H360L233 0H25zm344 1880q0 44 27 70t65 26q39 0 66.5-26t27.5-70q0-39-28-64.5t-66-25.5-65 25.5-27 64.5zm57-1364h709l-344 922-13 30-10-30zm578 1364q0 44 27 70t67 26q39 0 66.5-26t27.5-70q0-39-28-64.5t-66-25.5q-39 0-66.5 25.5T1004 1880z"/><glyph glyph-name="Agrave.ss01" horiz-adv-x="1560" d="M25 0l630 1655h248L1536 0h-209l-127 342H360L233 0H25zm249 1927l21 80 989-152-20-79zM426 516h709l-344 922-13 30-10-30z"/><glyph glyph-name="Amacron.ss01" horiz-adv-x="1560" d="M25 0l630 1655h248L1536 0h-209l-127 342H360L233 0H25zm249 1851v82h1010v-82H274zM426 516h709l-344 922-13 30-10-30z"/><glyph glyph-name="Aogonek.ss01" horiz-adv-x="1560" d="M25 0l630 1655h248L1536 0h-2q-108-36-160.5-82.5T1321-195q0-63 56-91.5t186-28.5h24l-82-95h-22q-125 0-199 47.5T1210-223q0 47 19.5 84.5T1285-75t73 43 86 32h-117l-127 342H360L233 0H25zm401 516h709l-344 922-13 30-10-30z"/><glyph glyph-name="Aring.ss01" horiz-adv-x="1560" d="M25 0l630 1655h248L1536 0h-209l-127 342H360L233 0H25zm401 516h709l-344 922-13 30-10-30zm188 1397q0 71 49.5 118.5T780 2079t116.5-47.5T946 1913t-49.5-118.5T780 1747t-116.5 47.5T614 1913zm84 0q0-37 22-59.5t60-22.5 60 22.5 22 59.5-22 59.5-60 22.5-60-22.5-22-59.5z"/><glyph glyph-name="Atilde.ss01" horiz-adv-x="1560" d="M25 0l630 1655h248L1536 0h-209l-127 342H360L233 0H25zm307 1786q0 105 64.5 167t183.5 62q58 0 103.5-16t76-38.5 59-45.5 67-39 85.5-16q76 0 114.5 37t38.5 102h103q0-108-66.5-169T971 1769q-61 0-109.5 16t-79.5 39-59 46-64 39-79 16q-72 0-109-39t-37-100H332zm94-1270h709l-344 922-13 30-10-30z"/><glyph glyph-name="B.ss01" horiz-adv-x="1615" d="M152 0v1655h837q233 0 355-98.5t122-317.5v-20q0-268-215-345 124-34 201.5-135.5T1530 477v-20q0-227-134-342T1014 0H152zm196 174h647q167 0 248.5 68.5T1325 463v31q0 152-85 214t-253 62H348V174zm0 772h598q160 0 238 60.5t78 197.5v27q0 66-16 112.5t-41 73-67 41-82.5 19-99.5 4.5H348V946z"/><glyph glyph-name="C.ss01" horiz-adv-x="1701" d="M868-20q-151 0-278 39T371.5 128 216 294t-95 209.5T90 743v172q0 157 50.5 293.5t146 241.5 246 165 337.5 60q169 0 308-47.5t231.5-131 146-194.5 62.5-241l2-86h-207l-2 94q-14 199-153 314.5T872 1499q-144 0-255.5-42.5t-182-120-106-181.5T293 924V733q0-264 146.5-419.5T870 158q249 0 388 114.5T1411 586l2 96h207l-2-86q-8-128-61-239t-145.5-195.5-232.5-133T868-20z"/><glyph glyph-name="Cacute.ss01" horiz-adv-x="1701" d="M868-20q-151 0-278 39T371.5 128 216 294t-95 209.5T90 743v172q0 157 50.5 293.5t146 241.5 246 165 337.5 60q169 0 308-47.5t231.5-131 146-194.5 62.5-241l2-86h-207l-2 94q-14 199-153 314.5T872 1499q-144 0-255.5-42.5t-182-120-106-181.5T293 924V733q0-264 146.5-419.5T870 158q249 0 388 114.5T1411 586l2 96h207l-2-86q-8-128-61-239t-145.5-195.5-232.5-133T868-20zM350 1855l989 152 21-80-989-151z"/><glyph glyph-name="Ccaron.ss01" horiz-adv-x="1701" d="M868-20q-151 0-278 39T371.5 128 216 294t-95 209.5T90 743v172q0 157 50.5 293.5t146 241.5 246 165 337.5 60q169 0 308-47.5t231.5-131 146-194.5 62.5-241l2-86h-207l-2 94q-14 199-153 314.5T872 1499q-144 0-255.5-42.5t-182-120-106-181.5T293 924V733q0-264 146.5-419.5T870 158q249 0 388 114.5T1411 586l2 96h207l-2-86q-8-128-61-239t-145.5-195.5-232.5-133T868-20zM412 2040h176l270-197 262 197h176l-366-262H786z"/><glyph glyph-name="Ccedilla.ss01" horiz-adv-x="1701" d="M721-338q143 0 200.5 15t57.5 63q0 51-56 60t-165-9l47 191Q632-8 494.5 56t-225 167.5-133.5 236T90 743v172q0 157 50.5 293.5t146 241.5 246 165 337.5 60q169 0 308-47.5t231.5-131 146-194.5 62.5-241l2-86h-207l-2 94q-14 199-153 314.5T872 1499q-144 0-255.5-42.5t-182-120-106-181.5T293 924V733q0-264 146.5-419.5T870 158q249 0 388 114.5T1411 586l2 96h207l-2-86q-8-125-59-234t-140-193-223-134.5T899-20l-29-111q224 30 224-127 0-89-87-127.5T719-424z"/><glyph glyph-name="Cdotaccent.ss01" horiz-adv-x="1701" d="M868-20q-151 0-278 39T371.5 128 216 294t-95 209.5T90 743v172q0 157 50.5 293.5t146 241.5 246 165 337.5 60q169 0 308-47.5t231.5-131 146-194.5 62.5-241l2-86h-207l-2 94q-14 199-153 314.5T872 1499q-144 0-255.5-42.5t-182-120-106-181.5T293 924V733q0-264 146.5-419.5T870 158q249 0 388 114.5T1411 586l2 96h207l-2-86q-8-128-61-239t-145.5-195.5-232.5-133T868-20zM733 1872q0 48 33 80.5t88 32.5q56 0 88.5-32.5T975 1872q0-45-32.5-77t-88.5-32q-55 0-88 32t-33 77z"/><glyph glyph-name="D.ss01" horiz-adv-x="1665" d="M152 0v1655h696q167 0 297.5-43t226-131.5 145.5-232 50-337.5V743q0-193-50.5-336.5t-146-232T1145 43 848 0H152zm196 172h498q270 0 394 138.5T1364 737v181q0 288-124 426.5T846 1483H348V172z"/><glyph glyph-name="Eth.ss01" horiz-adv-x="1808" d="M295 0v799H33v110h262v746h696q167 0 297.5-43t226-131.5 145.5-232 50-337.5V743q0-193-50.5-336.5t-146-232T1288 43 991 0H295zm197 172h497q270 0 394 138.5T1507 737v181q0 288-124 426.5T989 1483H492V909h600V799H492V172z"/><glyph glyph-name="Dcaron.ss01" horiz-adv-x="1665" d="M152 0v1655h696q167 0 297.5-43t226-131.5 145.5-232 50-337.5V743q0-193-50.5-336.5t-146-232T1145 43 848 0H152zm196 172h498q270 0 394 138.5T1364 737v181q0 288-124 426.5T846 1483H348V172zm41 1868h176l271-197 262 197h176l-367-262H764z"/><glyph glyph-name="Dcroat.ss01" horiz-adv-x="1808" d="M295 0v799H33v110h262v746h696q167 0 297.5-43t226-131.5 145.5-232 50-337.5V743q0-193-50.5-336.5t-146-232T1288 43 991 0H295zm197 172h497q270 0 394 138.5T1507 737v181q0 288-124 426.5T989 1483H492V909h600V799H492V172z"/><glyph glyph-name="E.ss01" horiz-adv-x="1413" d="M152 0v1655h1171v-174H348V913h928V741H348V174h975V0H152z"/><glyph glyph-name="Eacute.ss01" horiz-adv-x="1413" d="M152 0v1655h1171v-174H348V913h928V741H348V174h975V0H152zm49 1855l989 152 20-80-989-151z"/><glyph glyph-name="Ecaron.ss01" horiz-adv-x="1413" d="M152 0v1655h1171v-174H348V913h928V741H348V174h975V0H152zm110 2040h176l271-197 262 197h176l-367-262H637z"/><glyph glyph-name="Ecircumflex.ss01" horiz-adv-x="1413" d="M152 0v1655h1171v-174H348V913h928V741H348V174h975V0H152zm110 1745l375 262h143l367-262H971l-262 197-271-197H262z"/><glyph glyph-name="Edieresis.ss01" horiz-adv-x="1413" d="M152 0v1655h1171v-174H348V913h928V741H348V174h975V0H152zm143 1880q0 44 27 70t65 26q39 0 66.5-26t27.5-70q0-39-28-64.5t-66-25.5-65 25.5-27 64.5zm635 0q0 44 27 70t67 26q39 0 66.5-26t27.5-70q0-39-28-64.5t-66-25.5q-39 0-66.5 25.5T930 1880z"/><glyph glyph-name="Edotaccent.ss01" horiz-adv-x="1413" d="M152 0v1655h1171v-174H348V913h928V741H348V174h975V0H152zm434 1872q0 48 33 80.5t88 32.5q56 0 88-32.5t32-80.5q0-45-32-77t-88-32q-55 0-88 32t-33 77z"/><glyph glyph-name="Egrave.ss01" horiz-adv-x="1413" d="M152 0v1655h1171v-174H348V913h928V741H348V174h975V0H152zm49 1927l20 80 989-152-20-79z"/><glyph glyph-name="Emacron.ss01" horiz-adv-x="1413" d="M152 0v1655h1171v-174H348V913h928V741H348V174h975V0H152zm49 1851v82h1009v-82H201z"/><glyph glyph-name="Eogonek.ss01" horiz-adv-x="1413" d="M152 0v1655h1171v-174H348V913h928V741H348V174h975V0q-108-36-160.5-82.5T1110-195q0-63 56-91.5t186-28.5h24l-82-95h-22q-125 0-199 47.5T999-223q0 47 19.5 84.5T1074-75t73 43 86 32H152z"/><glyph glyph-name="F.ss01" horiz-adv-x="1386" d="M152 0v1655h1189v-174H348V842h936V668H348V0H152z"/><glyph glyph-name="G.ss01" horiz-adv-x="1734" d="M842-20q-143 0-265 39T366.5 128t-151 165.5-93 209T92 741v174q0 125 30.5 238t94.5 208.5 154.5 165 218 109T868 1675q165 0 303.5-48t231.5-130.5 147.5-189.5 63.5-228l2-57h-207v68q-15 185-160 297t-377 112q-146 0-258.5-44t-181-123-103-181.5T295 926V733q0-126 35-230t102.5-181.5T607 201t245-43q244 0 393.5 122T1407 618v62H731v162h885V0h-135l-21 311q-84-153-240-242T842-20z"/><glyph glyph-name="Gbreve.ss01" horiz-adv-x="1734" d="M842-20q-143 0-265 39T366.5 128t-151 165.5-93 209T92 741v174q0 125 30.5 238t94.5 208.5 154.5 165 218 109T868 1675q165 0 303.5-48t231.5-130.5 147.5-189.5 63.5-228l2-57h-207v68q-15 185-160 297t-377 112q-146 0-258.5-44t-181-123-103-181.5T295 926V733q0-126 35-230t102.5-181.5T607 201t245-43q244 0 393.5 122T1407 618v62H731v162h885V0h-135l-21 311q-84-153-240-242T842-20zM412 2015h102q0-43 25.5-73t75.5-46 111-23 144-7q82 0 142.5 6.5t109.5 23 74 46.5 25 73h102q0-68-31.5-115t-93.5-73.5-141-37.5-187-11-188 11-143 37.5-95 73.5-32 115z"/><glyph glyph-name="uni0122.ss01" horiz-adv-x="1734" d="M842-20q-143 0-265 39T366.5 128t-151 165.5-93 209T92 741v174q0 125 30.5 238t94.5 208.5 154.5 165 218 109T868 1675q165 0 303.5-48t231.5-130.5 147.5-189.5 63.5-228l2-57h-207v68q-15 185-160 297t-377 112q-146 0-258.5-44t-181-123-103-181.5T295 926V733q0-126 35-230t102.5-181.5T607 201t245-43q244 0 393.5 122T1407 618v62H731v162h885V0h-135l-21 311q-84-153-240-242T842-20zm-76-152q0 42 28.5 71T868-72t73-30.5 28-90.5q0-72-44-134T793-432v84q99 38 122 121-27-35-65-35-34 0-59 25t-25 65z"/><glyph glyph-name="Gdotaccent.ss01" horiz-adv-x="1734" d="M842-20q-143 0-265 39T366.5 128t-151 165.5-93 209T92 741v174q0 125 30.5 238t94.5 208.5 154.5 165 218 109T868 1675q165 0 303.5-48t231.5-130.5 147.5-189.5 63.5-228l2-57h-207v68q-15 185-160 297t-377 112q-146 0-258.5-44t-181-123-103-181.5T295 926V733q0-126 35-230t102.5-181.5T607 201t245-43q244 0 393.5 122T1407 618v62H731v162h885V0h-135l-21 311q-84-153-240-242T842-20zm-97 1892q0 48 33 80.5t88 32.5q56 0 88.5-32.5T987 1872q0-45-32.5-77t-88.5-32q-55 0-88 32t-33 77z"/><glyph glyph-name="H.ss01" horiz-adv-x="1656" d="M1309 0v741H348V0H152v1655h196V913h961v742h196V0h-196z"/><glyph glyph-name="Hbar.ss01" horiz-adv-x="1884" d="M1421 0v741H461V0H264v1180H53v114h211v361h197v-361h960v361h197v-361h213v-114h-213V0h-197zM461 913h960v267H461V913z"/><glyph glyph-name="I.ss01" horiz-adv-x="1202" d="M72 0v176h432v1303H72v176h1058v-176H700V176h430V0H72z"/><glyph glyph-name="Iacute.ss01" horiz-adv-x="1202" d="M72 0v176h432v1303H72v176h1058v-176H700V176h430V0H72zm24 1855l989 152 21-80-989-151z"/><glyph glyph-name="Icircumflex.ss01" horiz-adv-x="1202" d="M72 0v176h432v1303H72v176h1058v-176H700V176h430V0H72zm86 1745l374 262h144l366-262H866l-262 197-270-197H158z"/><glyph glyph-name="Idieresis.ss01" horiz-adv-x="1202" d="M72 0v176h432v1303H72v176h1058v-176H700V176h430V0H72zm118 1880q0 44 27 70t66 26 66.5-26 27.5-70q0-39-28-64.5t-66-25.5-65.5 25.5T190 1880zm635 0q0 44 27.5 70t67.5 26q39 0 66.5-26t27.5-70q0-39-28-64.5t-66-25.5q-39 0-67 25.5t-28 64.5z"/><glyph glyph-name="Idotaccent.ss01" horiz-adv-x="1202" d="M72 0v176h432v1303H72v176h1058v-176H700V176h430V0H72zm407 1872q0 48 33 80.5t88 32.5q56 0 88.5-32.5T721 1872q0-45-32.5-77t-88.5-32q-55 0-88 32t-33 77z"/><glyph glyph-name="Igrave.ss01" horiz-adv-x="1202" d="M72 0v176h432v1303H72v176h1058v-176H700V176h430V0H72zm24 1927l21 80 989-152-21-79z"/><glyph glyph-name="Imacron.ss01" horiz-adv-x="1202" d="M72 0v176h432v1303H72v176h1058v-176H700V176h430V0H72zm24 1851v82h1010v-82H96z"/><glyph glyph-name="Iogonek.ss01" horiz-adv-x="1202" d="M72 0v176h432v1303H72v176h1058v-176H700V176h430V0h3q-108-36-160.5-82.5T920-195q0-64 56-92t185-28h25l-82-95h-23q-125 0-198.5 47.5T809-223q0 47 19.5 84.5t55 63.5T956-32t86 32H72z"/><glyph glyph-name="J.ss01" horiz-adv-x="1470" d="M690-20q-335 0-488 164T49 643v35h201v-45q0-257 104-368t336-111q225 0 334 107.5T1133 614v1041h198V625q0-322-154-483.5T690-20z"/><glyph glyph-name="K.ss01" horiz-adv-x="1525" d="M1266 0L492 739H348V0H152v1655h196V915h144l774 740h260L645 827 1526 0h-260z"/><glyph glyph-name="uni0136.ss01" horiz-adv-x="1525" d="M1266 0L492 739H348V0H152v1655h196V915h144l774 740h260L645 827 1526 0h-260zM696-172q0 42 29 71t74 29 72.5-30.5T899-193q0-72-44-134T723-432v84q101 38 123 121-27-35-66-35-34 0-59 25t-25 65z"/><glyph glyph-name="L.ss01" horiz-adv-x="1345" d="M152 0v1655h196V174h965V0H152z"/><glyph glyph-name="Lacute.ss01" horiz-adv-x="1345" d="M152 0v1655h196V174h965V0H152zm28 1855l989 152 21-80-989-151z"/><glyph glyph-name="Lcaron.ss01" horiz-adv-x="1353" d="M152 0v1655h196V174h965V0H152zm520 1182l53 473h125l-90-473h-88z"/><glyph glyph-name="uni013B.ss01" horiz-adv-x="1345" d="M152 0v1655h196V174h965V0H152zm440-172q0 42 28.5 71T694-72t73-30.5 28-90.5q0-71-44.5-133.5T618-432v84q101 38 123 121-27-35-65-35-34 0-59 25t-25 65z"/><glyph glyph-name="Lslash.ss01" horiz-adv-x="1482" d="M291 0v690L43 604v127l248 86v838h196V885l519 178V936L487 758V174h965V0H291z"/><glyph glyph-name="M.ss01" horiz-adv-x="1976" d="M152 0v1655h219L987 303l617 1352h219V0h-187v1288L1047 0H928L340 1288V0H152z"/><glyph glyph-name="N.ss01" horiz-adv-x="1695" d="M152 0v1655h192L1354 309v1346h190V0h-194L342 1346V0H152z"/><glyph glyph-name="Nacute.ss01" horiz-adv-x="1695" d="M152 0v1655h192L1354 309v1346h190V0h-194L342 1346V0H152zm190 1855l989 152 21-80-990-151z"/><glyph glyph-name="Ncaron.ss01" horiz-adv-x="1695" d="M152 0v1655h192L1354 309v1346h190V0h-194L342 1346V0H152zm251 2040h177l270-197 262 197h176l-366-262H778z"/><glyph glyph-name="uni0145.ss01" horiz-adv-x="1695" d="M152 0v1655h192L1354 309v1346h190V0h-194L342 1346V0H152zm596-172q0 42 28.5 71T850-72t72.5-30.5T950-193q0-72-44-134T774-432v84q101 38 123 121-27-35-66-35-34 0-58.5 25T748-172z"/><glyph glyph-name="Ntilde.ss01" horiz-adv-x="1695" d="M152 0v1655h192L1354 309v1346h190V0h-194L342 1346V0H152zm247 1786q0 105 64.5 167t183.5 62q58 0 103.5-16t76-38.5 59-45.5 67-39 85.5-16q76 0 115 37t39 102h102q0-108-66.5-169t-189.5-61q-61 0-109.5 16t-79.5 39-59 46-64 39-79 16q-71 0-108-39t-37-100H399z"/><glyph glyph-name="O.ss01" horiz-adv-x="1736" d="M868-20q-150 0-277 39.5T372.5 129 217 295t-95.5 209T90 741v174q0 156 50.5 292T286 1448t245 166 337 61 337-61 245.5-166 146-241 50.5-292V741q0-124-31.5-237t-96-209-156-166T1145 19.5 868-20zM293 733q0-123 36.5-227t106-182T616 202t252-44q187 0 319 77t194.5 205 62.5 293v191q0 121-36.5 224.5T1301 1331t-181 123.5-252 44.5q-113 0-207.5-29T499 1389t-114-124-69.5-157.5T293 926V733z"/><glyph glyph-name="Oacute.ss01" horiz-adv-x="1736" d="M868-20q-150 0-277 39.5T372.5 129 217 295t-95.5 209T90 741v174q0 156 50.5 292T286 1448t245 166 337 61 337-61 245.5-166 146-241 50.5-292V741q0-124-31.5-237t-96-209-156-166T1145 19.5 868-20zM293 733q0-123 36.5-227t106-182T616 202t252-44q187 0 319 77t194.5 205 62.5 293v191q0 121-36.5 224.5T1301 1331t-181 123.5-252 44.5q-113 0-207.5-29T499 1389t-114-124-69.5-157.5T293 926V733zm69 1122l990 152 20-80-989-151z"/><glyph glyph-name="Ocircumflex.ss01" horiz-adv-x="1736" d="M868-20q-150 0-277 39.5T372.5 129 217 295t-95.5 209T90 741v174q0 156 50.5 292T286 1448t245 166 337 61 337-61 245.5-166 146-241 50.5-292V741q0-124-31.5-237t-96-209-156-166T1145 19.5 868-20zM293 733q0-123 36.5-227t106-182T616 202t252-44q187 0 319 77t194.5 205 62.5 293v191q0 121-36.5 224.5T1301 1331t-181 123.5-252 44.5q-113 0-207.5-29T499 1389t-114-124-69.5-157.5T293 926V733zm133 1012l375 262h143l367-262h-176l-263 197-270-197H426z"/><glyph glyph-name="Odieresis.ss01" horiz-adv-x="1736" d="M868-20q-150 0-277 39.5T372.5 129 217 295t-95.5 209T90 741v174q0 156 50.5 292T286 1448t245 166 337 61 337-61 245.5-166 146-241 50.5-292V741q0-124-31.5-237t-96-209-156-166T1145 19.5 868-20zM293 733q0-123 36.5-227t106-182T616 202t252-44q187 0 319 77t194.5 205 62.5 293v191q0 121-36.5 224.5T1301 1331t-181 123.5-252 44.5q-113 0-207.5-29T499 1389t-114-124-69.5-157.5T293 926V733zm164 1147q0 44 27 70t65 26q39 0 66.5-26t27.5-70q0-39-28-64.5t-66-25.5-65 25.5-27 64.5zm635 0q0 44 27 70t67 26q39 0 66.5-26t27.5-70q0-39-28-64.5t-66-25.5q-39 0-66.5 25.5T1092 1880z"/><glyph glyph-name="Ograve.ss01" horiz-adv-x="1736" d="M868-20q-150 0-277 39.5T372.5 129 217 295t-95.5 209T90 741v174q0 156 50.5 292T286 1448t245 166 337 61 337-61 245.5-166 146-241 50.5-292V741q0-124-31.5-237t-96-209-156-166T1145 19.5 868-20zM293 733q0-123 36.5-227t106-182T616 202t252-44q187 0 319 77t194.5 205 62.5 293v191q0 121-36.5 224.5T1301 1331t-181 123.5-252 44.5q-113 0-207.5-29T499 1389t-114-124-69.5-157.5T293 926V733zm69 1194l21 80 989-152-20-79z"/><glyph glyph-name="Ohungarumlaut.ss01" horiz-adv-x="1736" d="M868-20q-150 0-277 39.5T372.5 129 217 295t-95.5 209T90 741v174q0 156 50.5 292T286 1448t245 166 337 61 337-61 245.5-166 146-241 50.5-292V741q0-124-31.5-237t-96-209-156-166T1145 19.5 868-20zM293 733q0-123 36.5-227t106-182T616 202t252-44q187 0 319 77t194.5 205 62.5 293v191q0 121-36.5 224.5T1301 1331t-181 123.5-252 44.5q-113 0-207.5-29T499 1389t-114-124-69.5-157.5T293 926V733zm393 1045l240 229h116l-219-229H686zm240 0l239 229h117l-219-229H926z"/><glyph glyph-name="Omacron.ss01" horiz-adv-x="1736" d="M868-20q-150 0-277 39.5T372.5 129 217 295t-95.5 209T90 741v174q0 156 50.5 292T286 1448t245 166 337 61 337-61 245.5-166 146-241 50.5-292V741q0-124-31.5-237t-96-209-156-166T1145 19.5 868-20zM293 733q0-123 36.5-227t106-182T616 202t252-44q187 0 319 77t194.5 205 62.5 293v191q0 121-36.5 224.5T1301 1331t-181 123.5-252 44.5q-113 0-207.5-29T499 1389t-114-124-69.5-157.5T293 926V733zm69 1118v82h1010v-82H362z"/><glyph glyph-name="Oslash.ss01" horiz-adv-x="1736" d="M176 12l131 174Q201 289 145.5 433.5T90 741v174q0 156 50.5 292T286 1448t245 166 337 61q271 0 463-127l72 97h158l-131-175q106-105 161.5-248.5T1647 915V741q0-124-31.5-237t-96-209-156-166T1145 19.5 868-20q-271 0-462 126l-70-94H176zm117 721q0-240 129-393l799 1061q-145 98-353 98-113 0-207.5-29T499 1389t-114-124-69.5-157.5T293 926V733zm225-479q142-96 350-96 187 0 319 77t194.5 205 62.5 293v191q0 237-129 393z"/><glyph glyph-name="Otilde.ss01" horiz-adv-x="1736" d="M868-20q-150 0-277 39.5T372.5 129 217 295t-95.5 209T90 741v174q0 156 50.5 292T286 1448t245 166 337 61 337-61 245.5-166 146-241 50.5-292V741q0-124-31.5-237t-96-209-156-166T1145 19.5 868-20zM293 733q0-123 36.5-227t106-182T616 202t252-44q187 0 319 77t194.5 205 62.5 293v191q0 121-36.5 224.5T1301 1331t-181 123.5-252 44.5q-113 0-207.5-29T499 1389t-114-124-69.5-157.5T293 926V733zm127 1053q0 105 64.5 167t183.5 62q58 0 103.5-16t76-38.5 59-45.5 67-39 85.5-16q76 0 114.5 37t38.5 102h103q0-108-66.5-169t-189.5-61q-61 0-109.5 16t-79.5 39-59 46-64 39-79 16q-72 0-109-39t-37-100H420z"/><glyph glyph-name="P.ss01" horiz-adv-x="1595" d="M152 0v1655h806q284 0 430-137.5t146-403.5v-18q0-268-145-407.5T958 549H348V0H152zm196 719h600q199 0 291 88.5t92 275.5v43q0 185-92 272t-291 87H348V719z"/><glyph glyph-name="Q.ss01" horiz-adv-x="1736" d="M1444-313q-224 94-391.5 132T664-139l2 139Q527 29 416.5 99.5T235 268.5t-108 219T90 741v174q0 156 50.5 292T286 1448t245 166 337 61 337-61 245.5-166 146-241 50.5-292V741q0-144-43.5-272.5t-126-230.5-211-169T977-14q250-31 467-127v-172zM293 733q0-123 36.5-227t106-182T616 202t252-44q187 0 319 77t194.5 205 62.5 293v191q0 121-36.5 224.5T1301 1331t-181 123.5-252 44.5q-113 0-207.5-29T499 1389t-114-124-69.5-157.5T293 926V733z"/><glyph glyph-name="R.ss01" horiz-adv-x="1626" d="M1333 0q-22 26-22 150v237q0 71-21 124t-54 84-82.5 50.5-98.5 26-109 6.5H348V0H152v1655h800q283 0 421-115.5t138-355.5v-13q0-170-69.5-269T1233 766q133-34 203.5-131t70.5-244V150q0-118 25-150h-199zM348 850h600q193 0 277 75.5t84 231.5v33q0 86-25 144t-76 91-118.5 46.5T926 1485H348V850z"/><glyph glyph-name="Racute.ss01" horiz-adv-x="1626" d="M1333 0q-22 26-22 150v237q0 71-21 124t-54 84-82.5 50.5-98.5 26-109 6.5H348V0H152v1655h800q283 0 421-115.5t138-355.5v-13q0-170-69.5-269T1233 766q133-34 203.5-131t70.5-244V150q0-118 25-150h-199zM313 1855l990 152 20-80-989-151zm35-1005h600q193 0 277 75.5t84 231.5v33q0 86-25 144t-76 91-118.5 46.5T926 1485H348V850z"/><glyph glyph-name="Rcaron.ss01" horiz-adv-x="1626" d="M1333 0q-22 26-22 150v237q0 71-21 124t-54 84-82.5 50.5-98.5 26-109 6.5H348V0H152v1655h800q283 0 421-115.5t138-355.5v-13q0-170-69.5-269T1233 766q133-34 203.5-131t70.5-244V150q0-118 25-150h-199zM348 850h600q193 0 277 75.5t84 231.5v33q0 86-25 144t-76 91-118.5 46.5T926 1485H348V850zm29 1190h176l270-197 262 197h177l-367-262H752z"/><glyph glyph-name="uni0156.ss01" horiz-adv-x="1626" d="M1333 0q-22 26-22 150v237q0 71-21 124t-54 84-82.5 50.5-98.5 26-109 6.5H348V0H152v1655h800q283 0 421-115.5t138-355.5v-13q0-170-69.5-269T1233 766q133-34 203.5-131t70.5-244V150q0-118 25-150h-199zM348 850h600q193 0 277 75.5t84 231.5v33q0 86-25 144t-76 91-118.5 46.5T926 1485H348V850zM719-172q0 42 28.5 71T821-72t73-30.5 28-90.5q0-71-44.5-133.5T745-432v84q101 38 123 121-27-35-65-35-34 0-59 25t-25 65z"/><glyph glyph-name="S.ss01" horiz-adv-x="1525" d="M797-20q-366 0-548.5 146.5T66 555v49h202v-57q0-203 130-298t405-95q227 0 334.5 69T1245 440v11q0 54-16 95t-43 69.5-73 51-93.5 37.5T901 735l-348 86q-74 19-132 40.5t-115.5 56-95.5 77-61.5 104T125 1235q0 211 165 325.5T754 1675q320 0 488.5-132.5T1411 1163v-43h-203v47q0 170-111 253t-343 83q-207 0-316.5-66.5T328 1241v-6q0-55 25-98t73.5-72 101-48T653 981l357-86q78-19 137-40t118.5-56.5T1363 717t61.5-114 23.5-154q0-236-160.5-352.5T797-20z"/><glyph glyph-name="Sacute.ss01" horiz-adv-x="1525" d="M797-20q-366 0-548.5 146.5T66 555v49h202v-57q0-203 130-298t405-95q227 0 334.5 69T1245 440v11q0 54-16 95t-43 69.5-73 51-93.5 37.5T901 735l-348 86q-74 19-132 40.5t-115.5 56-95.5 77-61.5 104T125 1235q0 211 165 325.5T754 1675q320 0 488.5-132.5T1411 1163v-43h-203v47q0 170-111 253t-343 83q-207 0-316.5-66.5T328 1241v-6q0-55 25-98t73.5-72 101-48T653 981l357-86q78-19 137-40t118.5-56.5T1363 717t61.5-114 23.5-154q0-236-160.5-352.5T797-20zM256 1855l989 152 21-80-990-151z"/><glyph glyph-name="Scaron.ss01" horiz-adv-x="1525" d="M797-20q-366 0-548.5 146.5T66 555v49h202v-57q0-203 130-298t405-95q227 0 334.5 69T1245 440v11q0 54-16 95t-43 69.5-73 51-93.5 37.5T901 735l-348 86q-74 19-132 40.5t-115.5 56-95.5 77-61.5 104T125 1235q0 211 165 325.5T754 1675q320 0 488.5-132.5T1411 1163v-43h-203v47q0 170-111 253t-343 83q-207 0-316.5-66.5T328 1241v-6q0-55 25-98t73.5-72 101-48T653 981l357-86q78-19 137-40t118.5-56.5T1363 717t61.5-114 23.5-154q0-236-160.5-352.5T797-20zM317 2040h177l270-197 262 197h176l-366-262H692z"/><glyph glyph-name="Scedilla.ss01" horiz-adv-x="1525" d="M627-338q143 0 200.5 15t57.5 63q0 51-56 60t-165-9l47 191Q388-1 227 144.5T66 555v49h202v-57q0-203 130-298t405-95q227 0 334.5 69T1245 440v11q0 54-16 95t-43 69.5-73 51-93.5 37.5T901 735l-348 86q-74 19-132 40.5t-115.5 56-95.5 77-61.5 104T125 1235q0 211 165 325.5T754 1675q320 0 488.5-132.5T1411 1163v-43h-203v47q0 170-111 253t-343 83q-207 0-316.5-66.5T328 1241v-6q0-55 25-98t73.5-72 101-48T653 981l357-86q78-19 137-40t118.5-56.5T1363 717t61.5-114 23.5-154q0-234-158.5-351T805-20l-29-111q223 30 223-127 0-89-86.5-127.5T625-424z"/><glyph glyph-name="uni0218.ss01" horiz-adv-x="1525" d="M797-20q-366 0-548.5 146.5T66 555v49h202v-57q0-203 130-298t405-95q227 0 334.5 69T1245 440v11q0 54-16 95t-43 69.5-73 51-93.5 37.5T901 735l-348 86q-74 19-132 40.5t-115.5 56-95.5 77-61.5 104T125 1235q0 211 165 325.5T754 1675q320 0 488.5-132.5T1411 1163v-43h-203v47q0 170-111 253t-343 83q-207 0-316.5-66.5T328 1241v-6q0-55 25-98t73.5-72 101-48T653 981l357-86q78-19 137-40t118.5-56.5T1363 717t61.5-114 23.5-154q0-236-160.5-352.5T797-20zM659-172q0 42 29 71t74 29 72.5-30.5T862-193q0-72-44-134T686-432v84q101 38 123 121-27-35-66-35-34 0-59 25t-25 65z"/><glyph glyph-name="uni1E9E.ss01" horiz-adv-x="1476" d="M143 1217q0 228 143 333t449 105h637q-30-185-57-299t-65-198.5-87-127-121-63.5q170-32 251-139.5t81-292.5v-52q0-132-37.5-226.5t-111-150-171.5-81T825 0H475v162l287-2q116 0 191.5 14.5t129.5 51 77.5 100T1184 487v58q0 60-9 104.5t-36.5 89T1063 811t-129.5 45.5T739 874H475v162h250q70 0 121.5 7.5T939 1064t72 41 53.5 58.5 42.5 84.5 34.5 107.5T1176 1493H735q-217 0-310-63t-93-213V0H143v1217z"/><glyph glyph-name="T.ss01" horiz-adv-x="1449" d="M627 0v1481H35v174h1380v-174H823V0H627z"/><glyph glyph-name="Tbar.ss01" horiz-adv-x="1470" d="M637 0v772H203v111h434v598H45v174h1380v-174H834V883h436V772H834V0H637z"/><glyph glyph-name="Tcaron.ss01" horiz-adv-x="1449" d="M627 0v1481H35v174h1380v-174H823V0H627zM283 2040h176l270-197 262 197h176l-366-262H657z"/><glyph glyph-name="uni0162.ss01" horiz-adv-x="1449" d="M627 0v1481H35v174h1380v-174H823V0h-51l-33-131q224 30 224-127 0-89-87-127.5T588-424l2 86q143 0 200.5 15t57.5 63q0 51-56 60t-165-9L678 0h-51z"/><glyph glyph-name="uni021A.ss01" horiz-adv-x="1449" d="M627 0v1481H35v174h1380v-174H823V0H627zm-2-172q0 42 28.5 71T727-72t72.5-30.5T827-193q0-72-44-134T651-432v84q101 38 123 121-27-35-65-35-34 0-59 25t-25 65z"/><glyph glyph-name="U.ss01" horiz-adv-x="1650" d="M825-20q-250 0-400 68.5t-218 209T139 629v1026h199V621q0-94 14-166t43-123.5 68-86 96-54.5 120.5-28.5T825 154q99 0 172.5 12t135.5 43 100.5 83.5 60 134.5 21.5 194v1034h196V629q0-348-160-498.5T825-20z"/><glyph glyph-name="Uacute.ss01" horiz-adv-x="1650" d="M825-20q-250 0-400 68.5t-218 209T139 629v1026h199V621q0-94 14-166t43-123.5 68-86 96-54.5 120.5-28.5T825 154q99 0 172.5 12t135.5 43 100.5 83.5 60 134.5 21.5 194v1034h196V629q0-348-160-498.5T825-20zM319 1855l990 152 20-80-989-151z"/><glyph glyph-name="Ucircumflex.ss01" horiz-adv-x="1650" d="M825-20q-250 0-400 68.5t-218 209T139 629v1026h199V621q0-94 14-166t43-123.5 68-86 96-54.5 120.5-28.5T825 154q99 0 172.5 12t135.5 43 100.5 83.5 60 134.5 21.5 194v1034h196V629q0-348-160-498.5T825-20zM383 1745l375 262h143l367-262h-176l-263 197-270-197H383z"/><glyph glyph-name="Udieresis.ss01" horiz-adv-x="1650" d="M825-20q-250 0-400 68.5t-218 209T139 629v1026h199V621q0-94 14-166t43-123.5 68-86 96-54.5 120.5-28.5T825 154q99 0 172.5 12t135.5 43 100.5 83.5 60 134.5 21.5 194v1034h196V629q0-348-160-498.5T825-20zM414 1880q0 44 27 70t65 26q39 0 66.5-26t27.5-70q0-39-28-64.5t-66-25.5-65 25.5-27 64.5zm635 0q0 44 27 70t67 26q39 0 66.5-26t27.5-70q0-39-28-64.5t-66-25.5q-39 0-66.5 25.5T1049 1880z"/><glyph glyph-name="Ugrave.ss01" horiz-adv-x="1650" d="M825-20q-250 0-400 68.5t-218 209T139 629v1026h199V621q0-94 14-166t43-123.5 68-86 96-54.5 120.5-28.5T825 154q99 0 172.5 12t135.5 43 100.5 83.5 60 134.5 21.5 194v1034h196V629q0-348-160-498.5T825-20zM319 1927l21 80 989-152-20-79z"/><glyph glyph-name="Uhungarumlaut.ss01" horiz-adv-x="1650" d="M825-20q-250 0-400 68.5t-218 209T139 629v1026h199V621q0-94 14-166t43-123.5 68-86 96-54.5 120.5-28.5T825 154q99 0 172.5 12t135.5 43 100.5 83.5 60 134.5 21.5 194v1034h196V629q0-348-160-498.5T825-20zM643 1778l240 229h116l-219-229H643zm240 0l239 229h117l-219-229H883z"/><glyph glyph-name="Umacron.ss01" horiz-adv-x="1650" d="M825-20q-250 0-400 68.5t-218 209T139 629v1026h199V621q0-94 14-166t43-123.5 68-86 96-54.5 120.5-28.5T825 154q99 0 172.5 12t135.5 43 100.5 83.5 60 134.5 21.5 194v1034h196V629q0-348-160-498.5T825-20zM319 1851v82h1010v-82H319z"/><glyph glyph-name="Uogonek.ss01" horiz-adv-x="1650" d="M825-20q-250 0-400 68.5t-218 209T139 629v1026h199V621q0-94 14-166t43-123.5 68-86 96-54.5 120.5-28.5T825 154q99 0 172.5 12t135.5 43 100.5 83.5 60 134.5 21.5 194v1034h196V629q0-287-106.5-437.5T1061-2Q956-38 905-84t-51-111q0-63 56-91.5t186-28.5h24l-82-95h-22q-125 0-199 47.5T743-223q0 138 181 205-31-2-99-2z"/><glyph glyph-name="Uring.ss01" horiz-adv-x="1650" d="M825-20q-250 0-400 68.5t-218 209T139 629v1026h199V621q0-94 14-166t43-123.5 68-86 96-54.5 120.5-28.5T825 154q99 0 172.5 12t135.5 43 100.5 83.5 60 134.5 21.5 194v1034h196V629q0-348-160-498.5T825-20zM659 1913q0 71 49.5 118.5T825 2079t116.5-47.5T991 1913t-49.5-118.5T825 1747t-116.5 47.5T659 1913zm84 0q0-37 22-59.5t60-22.5 60 22.5 22 59.5-22 59.5-60 22.5-60-22.5-22-59.5z"/><glyph glyph-name="V.ss01" horiz-adv-x="1568" d="M662 0L29 1655h209L774 219l12-31 11 29 534 1438h209L909 0H662z"/><glyph glyph-name="W.ss01" horiz-adv-x="2420" d="M537 0L37 1655h205L662 229l425 1426h246l426-1417 4-13 4 13 414 1417h203L1886 0h-244l-428 1411-4 14-4-14L780 0H537z"/><glyph glyph-name="Wacute.ss01" horiz-adv-x="2420" d="M537 0L37 1655h205L662 229l425 1426h246l426-1417 4-13 4 13 414 1417h203L1886 0h-244l-428 1411-4 14-4-14L780 0H537zm168 1855l989 152 20-80-989-151z"/><glyph glyph-name="Wcircumflex.ss01" horiz-adv-x="2420" d="M537 0L37 1655h205L662 229l425 1426h246l426-1417 4-13 4 13 414 1417h203L1886 0h-244l-428 1411-4 14-4-14L780 0H537zm231 1745l375 262h143l367-262h-176l-263 197-270-197H768z"/><glyph glyph-name="Wdieresis.ss01" horiz-adv-x="2420" d="M537 0L37 1655h205L662 229l425 1426h246l426-1417 4-13 4 13 414 1417h203L1886 0h-244l-428 1411-4 14-4-14L780 0H537zm262 1880q0 44 27 70t65 26q39 0 66.5-26t27.5-70q0-39-28-64.5t-66-25.5-65 25.5-27 64.5zm635 0q0 44 27 70t67 26q39 0 66.5-26t27.5-70q0-39-28-64.5t-66-25.5q-39 0-66.5 25.5T1434 1880z"/><glyph glyph-name="Wgrave.ss01" horiz-adv-x="2420" d="M537 0L37 1655h205L662 229l425 1426h246l426-1417 4-13 4 13 414 1417h203L1886 0h-244l-428 1411-4 14-4-14L780 0H537zm168 1927l20 80 989-152-20-79z"/><glyph glyph-name="X.ss01" horiz-adv-x="1529" d="M6 0l645 834-631 821h238l510-684 508 684h237L879 834 1518 0h-238L762 694 246 0H6z"/><glyph glyph-name="Y.ss01" horiz-adv-x="1601" d="M702 0v590L29 1655h225l547-873 547 873h225L899 590V0H702z"/><glyph glyph-name="Yacute.ss01" horiz-adv-x="1601" d="M702 0v590L29 1655h225l547-873 547 873h225L899 590V0H702zM295 1855l989 152 21-80-990-151z"/><glyph glyph-name="Ycircumflex.ss01" horiz-adv-x="1601" d="M702 0v590L29 1655h225l547-873 547 873h225L899 590V0H702zM356 1745l375 262h143l367-262h-176l-262 197-271-197H356z"/><glyph glyph-name="Ydieresis.ss01" horiz-adv-x="1601" d="M702 0v590L29 1655h225l547-873 547 873h225L899 590V0H702zM389 1880q0 44 27 70t65 26q39 0 66.5-26t27.5-70q0-39-28-64.5t-66-25.5-65 25.5-27 64.5zm635 0q0 44 27 70t67 26q39 0 66.5-26t27.5-70q0-39-28-64.5t-66-25.5q-39 0-66.5 25.5T1024 1880z"/><glyph glyph-name="Ygrave.ss01" horiz-adv-x="1601" d="M702 0v590L29 1655h225l547-873 547 873h225L899 590V0H702zM295 1927l20 80 990-152-21-79z"/><glyph glyph-name="Z.ss01" horiz-adv-x="1417" d="M63 0v172l1049 1313H63v170h1291v-172L305 170h1049V0H63z"/><glyph glyph-name="Zacute.ss01" horiz-adv-x="1417" d="M63 0v172l1049 1313H63v170h1291v-172L305 170h1049V0H63zm140 1855l989 152 20-80-989-151z"/><glyph glyph-name="Zcaron.ss01" horiz-adv-x="1417" d="M63 0v172l1049 1313H63v170h1291v-172L305 170h1049V0H63zm201 2040h176l271-197 262 197h176l-367-262H639z"/><glyph glyph-name="Zdotaccent.ss01" horiz-adv-x="1417" d="M63 0v172l1049 1313H63v170h1291v-172L305 170h1049V0H63zm525 1872q0 48 33 80.5t88 32.5q56 0 88-32.5t32-80.5q0-45-32-77t-88-32q-55 0-88 32t-33 77z"/><glyph glyph-name="W.ss02" horiz-adv-x="1536" d="M98 0v1655h178V281l392 1374h276V287l391 1368h185L1040 0H764v1395L377 0H98z"/><glyph glyph-name="W.ss03" horiz-adv-x="3102" d="M442 0H172v1655h188V205l1158 1450h251V205l1137 1450h238L1853 0h-270v1425z"/><glyph glyph-name="i.loclTRK" horiz-adv-x="409" d="M111 1331h188V0H111v1331zm-35 234q0 49 34 79.5t95 30.5 95-30.5 34-79.5q0-46-34-76.5t-95-30.5-95 30.5-34 76.5z"/><glyph glyph-name="uni006A0301" horiz-adv-x="409" d="M111-8v1339h188V-25q0-110-16.5-183T226-331t-107.5-72.5T-51-426h-144v160h109q116 0 156.5 55T111-8zM-47 1528l475 155 29-75-475-154z"/><glyph glyph-name="w.ss02" horiz-adv-x="1644" d="M111 0v1331h180V219l446 1112h277V221l438 1110h190L1110 0H834v1143L389 0H111z"/><glyph glyph-name="zero.ss01" horiz-adv-x="1591" d="M801-20q-348 0-525.5 199T98 745v170q0 362 178.5 561T801 1675q340 0 516-199.5T1493 913V745q0-366-175.5-565.5T801-20zM295 735q0-225 74-364l766 1026q-120 108-334 108-506 0-506-581V735zm168-481q123-102 338-102 249 0 372 145t123 440v187q0 219-69 354z"/><glyph glyph-name="one.ss01" horiz-adv-x="1179" d="M82 170h448v1276q-81-84-202.5-128T70 1274v178q146 0 256.5 47.5T532 1655h193V170h449V0H82v170z"/><glyph glyph-name="two.ss01" horiz-adv-x="1531" d="M90 178q0 101 12 178.5t48 156 96.5 136T408 753t239 74l221 54q92 19 155 40.5t117.5 58 81.5 93 27 133.5v6q0 154-114.5 223.5T795 1505q-260 0-374-93.5T307 1106v-27H109v23q0 287 166 430t516 143q319 0 488-117.5t169-355.5q0-107-35.5-190T1310 872.5t-152.5-92T961 723l-232-59q-98-19-169.5-43t-120-58-79-70.5T314 403t-21.5-105.5T287 170h1159V0H90v178z"/><glyph glyph-name="three.ss01" horiz-adv-x="1511" d="M745-20q-345 0-509.5 127T66 502v22h198v-26q3-187 119-266.5T743 152q246 0 360 70.5T1217 444v31q0 84-33.5 141.5t-98 88-141.5 43T762 760H510v170h252q80 0 143 7t119 25 93.5 47 59 74.5T1198 1190v27q0 80-32.5 137t-94 89.5-140 47T750 1505q-80 0-144-8.5t-123-31-98-58.5-63-94.5-25-136.5v-25H98v20q4 256 166.5 380T752 1675q327 0 485-120t158-338v-15q2-136-73-231.5T1108 846q153-35 230-134t77-249v-19q0-229-167.5-346.5T745-20z"/><glyph glyph-name="four.ss01" horiz-adv-x="1482" d="M1210 1655V514h230V344h-230V0h-194v344H31v174l987 1137h192zM238 514h778v879z"/><glyph glyph-name="five.ss01" horiz-adv-x="1517" d="M815 1108q294 0 460.5-135T1442 571v-49q0-266-174.5-404T768-20q-207 0-356 54.5T178.5 206 94 494v16h199v-23q0-96 41-164.5t112.5-104 151-51T772 152q106 0 189.5 19.5t148 61 99 111.5 34.5 166v65q0 187-114 274t-341 87q-127 0-221-30.5t-153-81T305 694H113l59 961h1192v-170H348l-43-572q179 195 510 195z"/><glyph glyph-name="six.ss01" horiz-adv-x="1548" d="M788-20q-351 0-515 147T109 580v387q0 360 163 534t523 174q312 0 462-125t150-352v-6h-197v6q0 158-104.5 230.5T799 1501q-248 0-370-107.5T307 1038V920q157 198 520 198 301 0 466-140t165-407v-43q0-272-163-410T788-20zM307 530q0-199 115.5-288.5T788 152q244 0 358 86t114 278v66q0 191-112.5 276.5T803 944q-235 0-365.5-85.5T307 598v-68z"/><glyph glyph-name="seven.ss01" horiz-adv-x="1337" d="M8 1485v170h1288v-170q-128-80-231-175t-175-191.5T764.5 910 679 693t-51-227-25.5-227.5T596 10V0H401v10q0 118 5.5 219t23 223 47 227 80 220 118 213 166 195.5T1061 1485H8z"/><glyph glyph-name="eight.ss01" horiz-adv-x="1531" d="M766-20Q429-20 259.5 99.5T90 446v27q0 165 84.5 270T412 885q-126 33-200.5 123.5T137 1231v24q0 202 162.5 311T770 1675q305 0 465-109t160-311v-24q0-132-74-222.5T1122 885q152-37 236-142.5t84-269.5v-27q0-227-169-346.5T766-20zM289 453q0-160 116.5-235T766 143t360.5 75T1243 453v41q0 163-119.5 232T766 795q-236 0-356.5-69T289 494v-41zm47 761q0-131 114-192t316-61q432 0 432 256v32q0 133-107 197.5T766 1511q-216 0-323-64.5T336 1249v-35z"/><glyph glyph-name="nine.ss01" horiz-adv-x="1548" d="M752-20q-312 0-462.5 125T139 457v8h199v-6q0-159 104-231t306-72q248 0 370.5 106.5T1241 616v121q-157-198-520-198-303 0-468 139T88 1083v43q0 272 163 410.5T760 1675q350 0 514-146t164-452V688q0-361-162.5-534.5T752-20zM287 1073q0-190 112-276t344-86q235 0 366.5 85t131.5 261v67q0 200-116 290.5T760 1505q-243 0-358-86.5T287 1139v-66z"/><glyph glyph-name="zero.tf" horiz-adv-x="1128" d="M565-18q-230 0-342 136.5T111 510v639q0 254 112 390t342 136q229 0 342-137t113-391V510q0-254-113-391T565-18zM309 471l2-51 480 956q-56 140-226 140-127 0-191.5-77.5T309 1186V471zm39-213q58-119 217-119 126 0 191 78t65 254v733z"/><glyph glyph-name="one.tf" horiz-adv-x="1128" d="M205 162h287v1255q-95-129-291-129v172q201 0 305 195h178V162h289V0H205v162z"/><glyph glyph-name="two.tf" horiz-adv-x="1128" d="M119 174q0 209 65 337t248 247l170 133q109 69 162 147t53 209v23q0 138-60 192t-177 54q-126 0-188-60.5T330 1241v-106H131v86q0 223 112 338.5T580 1675q214 0 325-109.5t111-324.5q0-310-285-485L557 618q-102-63-151.5-118t-70-131T315 162h697V0H119v174z"/><glyph glyph-name="three.tf" horiz-adv-x="1128" d="M557-20Q330-20 220 88T109 422v84h196V406q0-151 62-209t188-58q128 0 189 59.5T805 395v119q0 260-242 260H395v162h166q240 0 240 229v103q0 73-18.5 123t-53.5 76.5-76 37.5-96 11q-56 0-97.5-11t-76-38.5-52.5-80-18-129.5v-88H117v72q2 218 110 326t330 108q96 0 172.5-23.5t125.5-63 81-94.5 45.5-113 13.5-124v-55q1-128-55.5-217.5T778 860q109-35 166-132.5t57-246.5v-63q0-205-106.5-321.5T557-20z"/><glyph glyph-name="four.tf" horiz-adv-x="1128" d="M879 1655V498h141V338H879V0H686v338H100v174l594 1143h185zM258 498h428v819z"/><glyph glyph-name="five.tf" horiz-adv-x="1128" d="M639 1108q176 0 277.5-110.5T1018 670V469q0-243-115-366T567-20Q353-20 237 97.5T121 442v62h198v-90q0-275 252-275 248 0 248 279v248q0 137-58.5 207.5T588 944q-108 0-168.5-62.5T330 707H135l47 948h762v-162H360l-30-553q97 168 309 168z"/><glyph glyph-name="six.tf" horiz-adv-x="1128" d="M573-20q-229 0-339.5 121T123 471v670q0 260 109 397t346 137q405 0 409-424v-34H791v32q-2 130-53.5 190T573 1499q-127 0-189-69.5T322 1206V954q103 156 315 156 185 0 284-115.5t99-330.5V451q0-229-113-350T573-20zM322 424q0-155 63-220t186-65q127 0 188.5 67.5T821 420v250q0 274-237 274-122 0-192-71.5T322 674V424z"/><glyph glyph-name="seven.tf" horiz-adv-x="1128" d="M131 1493v162h850v-162q-104-128-181-264.5T675 958t-77-288-40-302.5T547 39V0H354v37q0 222 20 405.5t69 367T580 1163t217 330H131z"/><glyph glyph-name="eight.tf" horiz-adv-x="1128" d="M563-20Q336-20 226.5 82.5T117 395v101q0 313 237 378-99 30-158 110.5T137 1202v92q0 179 108 280t320 101q210 0 317-101t107-280v-92q0-137-58-217.5T774 874q238-64 238-378V395q0-210-110.5-312.5T563-20zM315 385q0-143 61-195.5T563 137q127 0 188.5 53T813 385v156q0 138-63 191.5T563 786q-122 0-185-53.5T315 541V385zm21 780q0-114 58-164.5T563 950q228 0 228 217v131q0 116-57 168t-171 52q-113 0-170-52t-57-168v-133z"/><glyph glyph-name="nine.tf" horiz-adv-x="1128" d="M555 1675q229 0 340-121t111-370V514q0-260-109-397T551-20q-406 0-410 423v35h197v-32q2-130 53-190t164-60q127 0 189.5 69.5T807 449v251Q705 545 492 545q-185 0-284 115.5T109 991v213q0 229 112.5 350T555 1675zM307 985q0-274 238-274 122 0 192 71.5T807 981v250q0 155-63.5 220T557 1516q-127 0-188.5-67.5T307 1235V985z"/><glyph glyph-name="zero.dnom" horiz-adv-x="583" d="M291-10q-116 0-175 70T57 260v307q0 131 59 201t175 70q117 0 176-70t59-201V260q0-131-58.5-200.5T291-10zM180 268l213 400q-20 69-102 69-111 0-111-141V268zm13-118q26-60 98-60 57 0 84.5 34T403 233v312z"/><glyph glyph-name="one.dnom" horiz-adv-x="464" d="M45 100h139v584q-48-55-141-55v108q104 0 152 90h108V100h141V0H45v100z"/><glyph glyph-name="two.dnom" horiz-adv-x="557" d="M47 111q0 101 36 168.5T211 401l76 50q53 30 76.5 68t23.5 99v17q0 57-25 79.5T285 737q-56 0-82.5-25T176 623v-60H53v45q0 112 58 171t172 59q112 0 170.5-58T512 612q0-169-147-250l-86-55q-67-37-87-78t-20-129h338V0H47v111z"/><glyph glyph-name="three.dnom" horiz-adv-x="557" d="M276-10q-118 0-175 54.5T43 215v41h123v-53q1-65 27.5-90T274 88q57 0 83 26t26 83v69q0 109-104 109h-84v100h81q103 0 103 98v62q0 57-27 80.5T274 739q-50 0-76.5-24T170 631v-49H47v34q3 222 229 222 63 0 109.5-19.5t70.5-52 35-66.5 11-71v-25q0-135-109-174 113-39 113-188v-29q0-223-230-223z"/><glyph glyph-name="four.dnom" horiz-adv-x="536" d="M436 827V260h66V160h-66V0H315v160H29v110l293 557h114zM121 260h194v369z"/><glyph glyph-name="five.dnom" horiz-adv-x="557" d="M324 555q87 0 137.5-54.5T512 334v-92q0-252-233-252-111 0-170.5 60T49 227v27h123v-49q0-115 109-115 106 0 106 115v127q0 121-100 121-86 0-111-103H55l25 477h395V727H190l-16-256q50 84 150 84z"/><glyph glyph-name="six.dnom" horiz-adv-x="573" d="M289-10q-116 0-173 63T59 246v309q0 144 55 213.5T291 838q112 0 164.5-57T508 623v-17H385v15q0 54-22.5 80T291 727q-56 0-82.5-30T182 602V487q52 70 148 70 92 0 142-58.5T522 330V229q0-117-59-178T289-10zM182 207q0-64 27.5-90.5T293 90q54 0 80 27.5t26 87.5v131q0 117-104 117-55 0-84-30t-29-85V207z"/><glyph glyph-name="seven.dnom" horiz-adv-x="487" d="M23 727v100h434V727q-66-83-109-170t-63.5-179T257 206.5 250 25V0H129v23q0 209 44.5 379T342 727H23z"/><glyph glyph-name="eight.dnom" horiz-adv-x="563" d="M283-10Q51-10 51 201v45q0 164 117 194Q59 469 59 604v39q0 93 56.5 144T283 838q110 0 165.5-51T506 643v-39q-3-136-111-164 119-32 119-194v-45q0-211-231-211zM174 195q0-62 26-84.5T283 88t82 22.5 26 84.5v86q-1 58-27 81t-81 23-82-23-27-81v-86zm8 383q0-48 25-69.5t76-21.5q98 0 98 93v67q0 49-24 70.5T283 739q-52 0-76.5-21.5T182 647v-69z"/><glyph glyph-name="nine.dnom" horiz-adv-x="573" d="M285 838q229 0 229-256V272q0-143-54-212.5T285-10q-114 0-166.5 57.5T66 205v16h122v-14q0-107 95-107 56 0 82 29.5t26 95.5v115q-53-70-149-70-92 0-142.5 59.5T49 498v100q0 118 60 179t176 61zM174 492q0-117 105-117 53 0 82.5 30.5T391 489v132q0 63-27 89.5T283 737q-56 0-82.5-26.5T174 623V492z"/><glyph glyph-name="zero.numr" horiz-adv-x="583" d="M291 817q-116 0-175 69.5T57 1087v308q0 131 59 200.5t175 69.5q117 0 176-69.5t59-200.5v-308q0-131-58.5-200.5T291 817zm-111 279l213 399q-20 70-102 70-111 0-111-142v-327zm13-119q26-59 98-59 57 0 84.5 34t27.5 109v311z"/><glyph glyph-name="one.numr" horiz-adv-x="464" d="M45 928h139v583q-48-55-141-55v109q104 0 152 90h108V928h141V827H45v101z"/><glyph glyph-name="two.numr" horiz-adv-x="557" d="M47 938q0 101 36 169.5T211 1229l76 49q53 30 76.5 68.5T387 1446v16q0 58-25 80.5t-77 22.5q-56 0-82.5-25.5T176 1450v-59H53v45q0 111 58 170t172 59q112 0 170.5-57.5T512 1440q0-169-147-250l-86-55q-67-37-87-78t-20-129h338V827H47v111z"/><glyph glyph-name="three.numr" horiz-adv-x="557" d="M276 817q-118 0-175 54.5T43 1042v41h123v-53q1-65 27.5-90t80.5-25q57 0 83 26t26 83v70q0 63-29 85.5t-75 22.5h-84v101h81q103 0 103 98v61q0 57-27 81t-78 24q-50 0-76.5-24.5T170 1458v-49H47v35q1 112 58 166.5t171 54.5q63 0 109.5-19.5t70.5-52 35-66.5 11-71v-24q0-136-109-175 113-39 113-188v-29q0-223-230-223z"/><glyph glyph-name="four.numr" horiz-adv-x="536" d="M436 1655v-568h66V987h-66V827H315v160H29v111l293 557h114zm-315-568h194v369z"/><glyph glyph-name="five.numr" horiz-adv-x="557" d="M324 1382q87 0 137.5-54.5T512 1161v-92q0-252-233-252-111 0-170.5 60.5T49 1055v26h123v-49q0-114 109-114 106 0 106 114v127q0 121-100 121-86 0-111-102H55l25 477h395v-101H190l-16-256q50 84 150 84z"/><glyph glyph-name="six.numr" horiz-adv-x="573" d="M289 817q-116 0-173 63t-57 193v309q0 144 55 213.5t177 69.5q112 0 164.5-57t52.5-158v-16H385v14q0 54-22.5 80t-71.5 26q-56 0-82.5-29.5T182 1430v-115q51 69 148 69 92 0 142-58.5t50-168.5v-100q0-117-59-178.5T289 817zm-107 217q0-64 27.5-90t83.5-26q54 0 80 27t26 87v131q0 117-104 117-55 0-84-30t-29-85v-131z"/><glyph glyph-name="seven.numr" horiz-adv-x="487" d="M23 1554v101h434v-101q-66-83-109-170t-63.5-179-27.5-171.5-7-181.5v-25H129v23q0 209 44.5 379T342 1554H23z"/><glyph glyph-name="eight.numr" horiz-adv-x="563" d="M283 817q-232 0-232 211v45q0 165 117 195-109 29-109 164v38q0 93 56.5 144t167.5 51q110 0 165.5-51t57.5-144v-38q-3-136-111-164 119-32 119-195v-45q0-211-231-211zm-109 205q0-62 26-84.5t83-22.5 82 22.5 26 84.5v86q-1 58-27 81t-81 23-82-23-27-81v-86zm8 383q0-48 25-69t76-21q98 0 98 92v68q0 49-24 70.5t-74 21.5q-52 0-76.5-21.5T182 1475v-70z"/><glyph glyph-name="nine.numr" horiz-adv-x="573" d="M285 1665q229 0 229-256v-309q0-143-54.5-213T285 817q-114 0-166.5 57.5T66 1032v17h122v-15q0-54 23-80t72-26q56 0 82 29.5t26 95.5v114q-52-69-149-69-92 0-142.5 59T49 1325v100q0 118 60 179t176 61zm-111-346q0-117 105-117 53 0 82.5 31t29.5 84v131q0 63-27 90t-81 27q-56 0-82.5-27t-26.5-88v-131z"/><glyph glyph-name="exclamdown.case" horiz-adv-x="440" d="M313 0H125l10 1143h172zM84 1542q0 59 39 96t96 37q58 0 96.5-37t38.5-96q0-62-38.5-99.5T219 1405q-57 0-96 38t-39 99z"/><glyph glyph-name="questiondown.case" horiz-adv-x="903" d="M446-20Q243-20 143 84.5T43 360q0 72 18.5 133.5t48 107.5 65.5 89 72 87.5 65.5 93 48 116T379 1133v28h172v-35q0-87-17-161t-44.5-126.5-60.5-99-66.5-88-61-84-44.5-97T240 354q0-217 209-217 117 0 168 66.5T668 403v97h194v-72q0-97-22.5-176T769 111 639 14.5 446-20zM330 1542q0 59 39 96t96 37q58 0 96.5-37t38.5-96q0-62-38.5-99.5T465 1405q-57 0-96 38t-39 99z"/><glyph glyph-name="hyphen.case" horiz-adv-x="1128" d="M61 842h1008v-86H61v86z"/><glyph glyph-name="endash.case" horiz-adv-x="1427" d="M61 846h1307v-92H61v92z"/><glyph glyph-name="emdash.case" horiz-adv-x="2373" d="M61 846h2253v-92H61v92z"/><glyph glyph-name="parenleft.case" horiz-adv-x="544" d="M424-180Q238 70 154 311.5T70 836q0 285 84 522.5T424 1849h115q-197-272-282-500.5T172 836q0-285 84-513t283-503H424z"/><glyph glyph-name="parenright.case" horiz-adv-x="546" d="M123 1843q186-250 270-491.5T477 827q0-285-84-522.5T123-186H8Q205 86 290 314.5T375 827q0 285-84 513T8 1843h115z"/><glyph glyph-name="braceleft.case" horiz-adv-x="522" d="M68 946q79 0 79 180v373q0 185 64.5 269.5T406 1853h88v-92h-86q-84 0-121-65t-37-189v-374q0-109-18.5-162T160 885v-92q53-33 71.5-86T250 545V168q0-124 37-188t121-64h86v-92h-88q-130 0-194.5 84T147 176v375q0 180-79 180v215z"/><glyph glyph-name="braceright.case" horiz-adv-x="522" d="M455 721q-80 0-80-180V168q0-186-64-270t-194-84H29v92h86q84 0 120.5 64.5T272 160v375q0 109 18.5 161.5T362 782v92q-53 33-71.5 86T272 1122v377q0 124-36.5 188T115 1751H29v92h88q130 0 194-84t64-268v-375q0-180 80-180V721z"/><glyph glyph-name="bracketleft.case" horiz-adv-x="534" d="M506 1853v-86H221V-94h285v-86H119v2033h387z"/><glyph glyph-name="bracketright.case" horiz-adv-x="532" d="M27-190v86h284v1861H27v86h387V-190H27z"/><glyph glyph-name="at.case" horiz-adv-x="1400" d="M786 59q-336 0-525 201T72 852q0 158 34 289t93.5 223T342 1519t180.5 93 206.5 30q142 0 249-42.5t187-134.5 121-245.5 41-367.5q0-119-12-207t-39.5-153.5T1201 393t-114-33q-145 0-192 146-73-158-231-158-146 0-234 130t-88 358q0 229 87.5 359T664 1325q139 0 215-127v117h139V633q0-189 86-189 121 0 121 410 0 195-33 332t-98 217.5T941 1520t-208 36q-93 0-175-25.5t-153-81T283 1313t-80-199-29-262q0-179 43.5-315t125-221T535 189t251-42q213 0 373 68v-86Q990 59 786 59zM481 836q0-361 211-361 101 0 144 87.5T879 836t-44 275-145 89q-209 0-209-364z"/><glyph glyph-name="ampersand.ss01" horiz-adv-x="1546" d="M715-20q-303 0-458 120.5T102 446v15q0 140 72.5 243T379 846q-126 37-197 139.5T111 1231v12q0 201 155 316.5T717 1675q303 0 450.5-119.5T1315 1194v-18h-191v18q0 173-95.5 248.5T719 1518q-213 0-314.5-71.5T303 1227v-21q0-157 103-222.5T723 918h401v126h191V918h162V766h-162V444q0-464-600-464zM295 446q0-159 100.5-234T715 137q213 0 311 74.5t98 237.5v317H721q-212 0-319-70.5T295 467v-21z"/><glyph glyph-name="cent.tf" horiz-adv-x="1128" d="M518-143v286q-190 15-284.5 137.5T139 623v409q0 219 94 341.5T518 1511v287h98v-287q187-12 280.5-127.5T993 1063l2-102H815l-2 120q-3 132-53 197t-144 76V301q95 11 144.5 76T813 573l2 121h180l-2-102q-10-426-377-449v-286h-98zM319 602q0-143 50-214t149-85v1049q-99-14-149-85t-50-216V602z"/><glyph glyph-name="dollar.tf" horiz-adv-x="1128" d="M520-143v125Q127 9 127 430v133h184V428q0-138 52.5-205T520 145v641l-110 66q-87 48-142 101t-89 136-34 195q0 180 94.5 280T520 1673v125h98v-125q179-14 273-116.5t94-292.5v-105H803v86q0 130-48 191.5T618 1509V936l101-59q70-40 115.5-76.5t86-91 59.5-129T999 406q0-204-91.5-310T618-20v-123h-98zM328 1276q0-55 12.5-97.5t39.5-75 57-55 77-49.5l6-4v516q-94-6-143-57t-49-158v-20zM618 143q103 8 150 65t47 181v25q0 86-23.5 145t-61 92.5T625 723l-7 4V143z"/><glyph glyph-name="Euro.tf" horiz-adv-x="1128" d="M49 707v81h119v78H49v82h119v199q0 248 113.5 388T627 1675q222 0 333.5-130t114.5-361l2-205H877v242q-3 152-66.5 222T627 1513q-130 0-195-79.5T367 1186V948h362v-82H367v-78h362v-81H367V471q0-170 65-250t195-80q121 0 184 70.5T877 436v242h200l-2-205q-3-232-114.5-362.5T627-20q-232 0-345.5 140T168 510v197H49z"/><glyph glyph-name="sterling.tf" horiz-adv-x="1128" d="M106 135q95 76 140 163.5T291 508q0 54-10 119H106v98h154q-7 28-30.5 109.5T195 961t-22 123-11 153q0 220 116 329t316 109q201 0 313.5-112.5T1020 1229v-119H823v131q0 141-55.5 210T598 1520q-240 0-240-283 0-98 14.5-180.5t49.5-196T463 725h411v-98H481q6-43 6-88 0-120-41.5-211.5T317 156h703V0H106v135z"/><glyph glyph-name="yen.tf" horiz-adv-x="1128" d="M158 561v82h286L78 1655h209l278-834 279 834h207L686 643h285v-82H664v-86h307v-82H664V0H467v393H158v82h309v86H158z"/><glyph glyph-name="bouclecomb" horiz-adv-x="968" d="M557-20q-192 0-301 174h-20v1009h20q16 35 39.5 65t59.5 59.5 88.5 47T559 1352q163 0 252.5-112T901 924V397q0-196-89.5-306.5T557-20zM256 424q0-122 61-204.5T494 137q215 0 215 285v487q0 283-215 283-79 0-134-41t-79.5-104T256 905V424z"/><glyph glyph-name="slashcomb" horiz-adv-x="1191" d="M158-12l753 1681h115L272-12H158z"/></font>
</defs>
</svg>
