<svg xmlns="http://www.w3.org/2000/svg"><defs><font id="SharpSansDisplayNo1TRIAL-Bold" horiz-adv-x="1204"><font-face font-family="Sharp Sans Display No1 TRIAL" font-weight="700" units-per-em="2048" ascent="1536" descent="-512" x-height="1024" cap-height="1495" bbox="-121 -494 2060 1516" underline-thickness="102" underline-position="-307" unicode-range="U+0020-007A"/><glyph glyph-name=".notdef" horiz-adv-x="1896" d="M205 0v1495h1487V0H205zm160 1341V154h1167v1187H365zm294-993l-94 94 293 306-297 311 94 94 295-309 295 309 94-94-297-311 289-302-94-94-287 299z"/><glyph glyph-name=".null" horiz-adv-x="0"/><glyph glyph-name="nonmarkingreturn" horiz-adv-x="682"/><glyph glyph-name="space" horiz-adv-x="382"/><glyph glyph-name="period" unicode="." horiz-adv-x="423" d="M43 139q0 75 46.5 122.5T211 309t122.5-47.5T381 139 333.5 17.5 211-29 89.5 17.5 43 139z"/><glyph glyph-name="zero" unicode="0" d="M600 262q106 0 166.5 61.5T827 479v527q0 104-59.5 166.5T604 1235q-106 0-166.5-64.5T377 1006V481q0-97 58.5-158T600 262zm2-282q-242 0-376 133.5T92 467v549q0 214 143 357t367 143q151 0 268.5-67.5T1050 1268t62-250V467q0-222-136.5-354.5T602-20z"/><glyph glyph-name="one" unicode="1" d="M92 0v272h373v801q-35-53-104-88t-138-35h-22v299h10q70 0 123.5 23t83 60.5T461 1411t14 84h275V272h362V0H92z"/><glyph glyph-name="two" unicode="2" d="M92 0v268q0 74 27 143t65 119.5 102 105 113.5 88T524 803q155 97 196 128 110 87 111 167 0 74-60.5 123T602 1270q-201 0-297-211L59 1182q76 158 213.5 246t327.5 88q240 0 380-119t140-301q0-50-13.5-96.5t-32.5-83-54-75.5-64-65.5-78.5-61-81-54T711 608q-161-98-214-142-119-96-120-194h735V0H92z"/><glyph glyph-name="three" unicode="3" d="M612-20q-194 0-326.5 65T45 256l248 178q113-194 321-194 107 0 175.5 54.5T858 444q0 87-55.5 137T635 631H438v262h193q112 0 165.5 57.5T850 1094q0 70-62 122t-170 52q-119 0-185.5-43T317 1083L70 1206q162 310 546 310 222 0 366-114.5t144-295.5q0-222-174-338 191-106 191-332 0-198-143.5-327T612-20z"/><glyph glyph-name="four" unicode="4" d="M688 0v303H82v260l571 932h312V563h157V303H965V0H688zM377 563h311v506z"/><glyph glyph-name="five" unicode="5" d="M600-20q-203 0-342 79T51 270l277 160q31-87 103-137.5T604 242t176.5 75T856 504q0 116-71 193t-189 77q-167 0-264-147L78 758l106 737h895v-266H408l-39-264q114 69 270 69 83 0 157-20.5t138-64T1044 844t72.5-149.5T1143 502q0-224-154-373T600-20z"/><glyph glyph-name="six" unicode="6" d="M604-20q-154 0-279 69T130.5 236.5 61 498q0 205 115 376l383 621h336l-315-489q40 12 82 12 99 0 187.5-38.5t153-106T1105 709t38-209q0-227-153.5-373.5T604-20zm-6 258q108 0 186 79t78 189q0 107-78.5 186.5T598 772t-182.5-79.5T340 504t75.5-187.5T598 238z"/><glyph glyph-name="seven" unicode="7" d="M221 0l592 1223H92v272h1020v-248L524 0H221z"/><glyph glyph-name="eight" unicode="8" d="M600-20q-252 0-392 125.5T68 449q0 225 182 348-131 112-131 290 0 195 134.5 312T610 1516q219 0 353.5-117.5T1098 1087q0-178-140-292 179-124 179-346 0-218-143-343.5T600-20zm0 251q126 0 195 61.5T864 449t-68 156-190 61q-123 0-193.5-62T342 449q0-96 66-157t192-61zm4 672q111 0 172.5 52t61.5 132q0 79-61 133t-165 54q-107 0-170-54t-63-133q0-82 57.5-133T604 903z"/><glyph glyph-name="nine" unicode="9" d="M645 0H309l312 483q-36-8-78-8-132 0-242 65.5T126 726 61 995q0 227 153.5 374T600 1516q154 0 279-69t194.5-188 69.5-262q0-205-115-376zm-39 723q107 0 182.5 79.5T864 991t-75.5 187.5T606 1257q-108 0-186-79t-78-189q0-107 78.5-186.5T606 723z"/><glyph glyph-name="A" unicode="A" horiz-adv-x="1404" d="M29 0l530 1495h287L1376 0h-297l-90 260H416L326 0H29zm673 1090L510 532h385z"/><glyph glyph-name="B" unicode="B" horiz-adv-x="1167" d="M82 0v1495h467q250 0 387-108.5t137-311.5q0-193-162-289 215-99 215-342 0-219-142-331.5T588 0H82zm491 635H367V262h221q124 0 188 49t64 140q0 95-58 139.5T573 635zm-22 598H367V901h182q237 0 237 174 0 83-55 120.5T551 1233z"/><glyph glyph-name="C" unicode="C" horiz-adv-x="1505" d="M809-20q-170 0-315 60T250.5 204t-154 244.5T41 748q0 164 59.5 307.5t162 244T507 1458t302 58q207 0 381-100.5t274-270.5l-250-160q-135 250-405 250-208 0-346.5-140T324 748q0-133 62-243.5T558.5 329 803 264q147 0 255.5 76T1227 543l260-137q-100-195-279.5-310.5T809-20z"/><glyph glyph-name="D" unicode="D" horiz-adv-x="1320" d="M82 0v1495h407q186 0 336.5-57t249.5-157.5 152-237 53-295.5q0-211-98.5-381.5T905 98 502 0H82zm375 1231h-90V264h102q238 0 382 137t144 347q0 221-136 352t-402 131z"/><glyph glyph-name="E" unicode="E" horiz-adv-x="1034" d="M82 0v1495h887v-272H367V887h602V614H367V272h602V0H82z"/><glyph glyph-name="F" unicode="F" horiz-adv-x="999" d="M82 0v1495h846v-272H367V887h561V614H367V0H82z"/><glyph glyph-name="G" unicode="G" horiz-adv-x="1589" d="M817-20q-171 0-317.5 62t-246 166.5T97.5 453 41 748q0 211 98 386.5T412.5 1413 805 1516q226 0 403.5-104t276.5-279l-250-152q-140 258-428 258-133 0-244.5-66.5T387.5 993 324 748q0-208 140-350t353-142q160 0 272 84t152 229H772v273h776V727q0-150-52.5-286t-146-238-232-162.5T817-20z"/><glyph glyph-name="H" unicode="H" horiz-adv-x="1296" d="M930 0v612H367V0H82v1495h285V885h563v610h284V0H930z"/><glyph glyph-name="I" unicode="I" horiz-adv-x="468" d="M92 0v1495h285V0H92z"/><glyph glyph-name="J" unicode="J" horiz-adv-x="1030" d="M510-20q-182 0-309 92.5T37 324l282 90q14-73 65-120.5T506 246q79 0 118.5 52.5T664 432v1063h284V459q0-227-114.5-353T510-20z"/><glyph glyph-name="K" unicode="K" horiz-adv-x="1261" d="M913 0L522 715 367 520V0H82v1495h285V893l483 602h346L725 913 1237 0H913z"/><glyph glyph-name="L" unicode="L" horiz-adv-x="978" d="M82 0v1495h285V272h540V0H82z"/><glyph glyph-name="M" unicode="M" horiz-adv-x="1628" d="M82 0v1495h283l448-623 465 623h268V0h-284v1036L811 428l-444 602V0H82z"/><glyph glyph-name="N" unicode="N" horiz-adv-x="1406" d="M82 0v1495h324l634-1006v1006h285V0h-303L367 1038V0H82z"/><glyph glyph-name="O" unicode="O" horiz-adv-x="1611" d="M805-20Q596-20 420.5 82.5T143 361.5 41 748q0 209 102 385.5T421 1413t384 103q209 0 385.5-103t278.5-279.5T1571 748q0-157-60-299.5t-162.5-245-244.5-163T805-20zm0 280q132 0 243 65.5t175.5 178T1288 748t-64.5 244-175.5 177.5-243 65.5-242.5-65.5T388 992t-64-244 64-244.5 174.5-178T805 260z"/><glyph glyph-name="P" unicode="P" horiz-adv-x="1185" d="M82 0v1495h514q114 0 214.5-42T982 1339.5t112-170 41-208.5-41-208.5T981.5 582 809 468t-215-42H367V0H82zm493 1231H367V690h208q120 0 196.5 78.5T848 961t-76.5 192-196.5 78z"/><glyph glyph-name="Q" unicode="Q" horiz-adv-x="1611" d="M805-20Q596-20 420.5 82.5T143 361.5 41 748q0 209 102 385.5T421 1413t384 103q209 0 385.5-103t278.5-279.5T1571 748q0-131-46.5-254.5T1395 270L1604 0h-349l-69 90Q1005-20 805-20zm0 280q119 0 215 47L692 739h340l189-245q67 115 67 254 0 132-64.5 244T1048 1169.5 805 1235t-242.5-65.5T388 992t-64-244 64-244.5 174.5-178T805 260z"/><glyph glyph-name="R" unicode="R" horiz-adv-x="1193" d="M82 0v1495h479q265 0 414-143t149-381q0-137-64-253T877 537L1171 0H848L616 451H367V0H82zm455 1229H367V713h170q303 0 303 270 0 117-74 181.5T537 1229z"/><glyph glyph-name="S" unicode="S" horiz-adv-x="1153" d="M590-20Q239-20 4 248l260 205q56-96 140.5-148.5T588 252q104 0 163.5 58T811 449q0 34-16 61.5T755.5 557t-64 37-75.5 29.5-87 27.5q-18 5-27 8-53 16-87.5 28T331 720t-81 42-67.5 54-56.5 70-34.5 88T78 1085q0 182 141 306.5T575 1516q170 0 286-56t218-162l-235-178q-94 142-266 142-97 0-151-46.5T373 1096q0-31 15-57.5t37.5-44.5 61.5-36 73-30 85-29q21-7 31-10 52-17 88.5-30.5t85-36T932 777t69.5-57 57-72.5 35.5-90 14-111.5q0-90-35-173.5t-99.5-149T809.5 19 590-20z"/><glyph glyph-name="T" unicode="T" horiz-adv-x="1181" d="M449 0v1223H51v272h1079v-272H733V0H449z"/><glyph glyph-name="U" unicode="U" horiz-adv-x="1243" d="M621-20q-118 0-216 34.5T235 115 122.5 284 82 518v977h285V500q0-108 72-182t179-74q108 0 183.5 74.5T877 500v995h284V518q0-173-71-296.5T899 39 621-20z"/><glyph glyph-name="V" unicode="V" horiz-adv-x="1343" d="M528 0L29 1495h295L672 434l348 1061h295L815 0H528z"/><glyph glyph-name="W" unicode="W" horiz-adv-x="2088" d="M451 0L27 1495h297L602 461l307 1034h281l307-1030 275 1030h288L1638 0h-280l-309 1044L741 0H451z"/><glyph glyph-name="X" unicode="X" horiz-adv-x="1288" d="M948 0L643 506 340 0H20l455 756-446 739h319l295-491 297 491h320L811 756 1268 0H948z"/><glyph glyph-name="Y" unicode="Y" horiz-adv-x="1288" d="M500 0v709L25 1495h313l305-514 307 514h314L784 702V0H500z"/><glyph glyph-name="Z" unicode="Z" horiz-adv-x="1132" d="M72 0v262l651 961H94v272h967v-260L408 272h653V0H72z"/><glyph glyph-name="a" unicode="a" horiz-adv-x="1196" d="M535-20Q468-20 400 .5t-132.5 64-115 104.5-81 150T41 512q0 105 29.5 194t79 150T264 960.5t134.5 63.5 140.5 20q192 0 305-120v100h280V0H844v115q-53-62-132.5-98.5T535-20zm55 258q113 0 187.5 80.5T852 514t-74.5 194.5T590 788q-117 0-196-78t-79-196 79-197 196-79z"/><glyph glyph-name="b" unicode="b" horiz-adv-x="1187" d="M664-20q-99 0-180 35t-132 96V0H72v1495h280V911q110 133 307 133 71 0 140.5-20t134-63.5T1047 856t78.5-150 29.5-194q0-104-30.5-193t-80-150-114-104.5-132-64T664-20zm-58 258q117 0 196 79t79 197-79 196-196 78q-113 0-187.5-79.5T344 514t74.5-195.5T606 238z"/><glyph glyph-name="c" unicode="c" horiz-adv-x="1095" d="M571-20q-145 0-267 71T111.5 244.5 41 512t70.5 267.5T304 973t267 71q171 0 301.5-88.5T1065 721L815 614q-30 73-95.5 118.5T573 778q-110 0-186-77.5T311 512t76-188.5T573 246q81 0 146.5 45.5T815 410l250-107q-62-146-192.5-234.5T571-20z"/><glyph glyph-name="d" unicode="d" horiz-adv-x="1196" d="M535-20Q468-20 400 .5t-132.5 64-115 104.5-81 150T41 512q0 105 29.5 194t79 150T264 960.5t134.5 63.5 140.5 20q192 0 305-120v571h280V0H844v115q-53-62-132.5-98.5T535-20zm55 258q113 0 187.5 80.5T852 514t-74.5 194.5T590 788q-117 0-196-78t-79-196 79-197 196-79z"/><glyph glyph-name="e" unicode="e" horiz-adv-x="1144" d="M582-20q-156 0-280.5 71.5T109 244 41 512q0 145 71 267.5T305.5 973t267.5 71q153 0 275-71t188-191.5 66-267.5V412H311q25-87 95-137t178-50q84 0 151 43t101 117l223-133Q990 127 868 53.5T582-20zm-7 819q-87 0-152.5-44T324 637h495q-28 79-91 120.5T575 799z"/><glyph glyph-name="f" unicode="f" horiz-adv-x="749" d="M51 772v252h174v27q0 251 97.5 347.5T676 1495h22v-262q-46 0-74.5-2t-51.5-10.5-34.5-19.5-19.5-33.5-10-49-2-69.5v-25h192V772H506V0H225v772H51z"/><glyph glyph-name="g" unicode="g" horiz-adv-x="1196" d="M535-20Q468-20 400 .5t-132.5 64-115 104.5-81 150T41 512q0 105 29.5 194t79 150T264 960.5t134.5 63.5 140.5 20q188 0 305-131v111h280V29q0-109-34.5-203.5t-99.5-166T823.5-453 596-494q-186 0-327 83.5T63-199L311-59q87-174 285-174 110 0 179 73.5T844 18v97q-53-62-132.5-98.5T535-20zm55 258q113 0 187.5 80.5T852 514t-74.5 194.5T590 788q-117 0-196-78t-79-196 79-197 196-79z"/><glyph glyph-name="h" unicode="h" horiz-adv-x="1091" d="M72 0v1495h278V911q110 133 283 133 182 0 284.5-110.5T1020 625V0H735v586q0 105-47.5 162T547 805q-85 0-140-62t-55-184V0H72z"/><glyph glyph-name="i" unicode="i" horiz-adv-x="423" d="M72 0v1024h280V0H72zM43 1294q0 75 46.5 122.5T211 1464t122.5-47.5T381 1294t-47.5-121.5T211 1126t-121.5 46.5T43 1294z"/><glyph glyph-name="j" unicode="j" horiz-adv-x="423" d="M-121-471v262q55 0 86.5 4.5t55 14T54-158t14 52 4 81v1049h280V-27q0-251-94-347.5T-80-471h-41zM43 1294q0 75 46.5 122.5T211 1464t122.5-47.5T381 1294t-47.5-121.5T211 1126t-121.5 46.5T43 1294z"/><glyph glyph-name="k" unicode="k" horiz-adv-x="1110" d="M768 0L489 410 352 248V0H72v1495h280V571l377 453h326L682 582 1075 0H768z"/><glyph glyph-name="l" unicode="l" horiz-adv-x="423" d="M72 1495h280V0H72v1495z"/><glyph glyph-name="m" unicode="m" horiz-adv-x="1718" d="M72 0v1024h278V915q102 129 273 129 221 0 315-161 53 75 137 118t182 43q192 0 291-109t99-310V0h-285v588q0 217-178 217-84 0-134.5-61T999 559V0H715v588q0 217-178 217-84 0-134.5-61T352 559V0H72z"/><glyph glyph-name="n" unicode="n" horiz-adv-x="1091" d="M72 0v1024h278V909q50 64 123.5 99.5T633 1044q182 0 284.5-110.5T1020 625V0H735v588q0 104-47.5 160.5T547 805q-85 0-140-62t-55-184V0H72z"/><glyph glyph-name="o" unicode="o" horiz-adv-x="1142" d="M571-20q-145 0-267 71T111.5 244.5 41 512t70.5 267.5T304 973t267 71 267.5-71 193-193.5T1102 512t-70.5-267.5T838.5 51 571-20zm0 266q107 0 182.5 78.5T829 512t-75.5 187.5T571 778q-108 0-182-78t-74-188 74-188 182-78z"/><glyph glyph-name="p" unicode="p" horiz-adv-x="1187" d="M664-20q-101 0-181.5 31.5T352 100v-571H72v1495h280V907q113 137 307 137 71 0 140.5-20t134-63.5T1047 856t78.5-150 29.5-194q0-104-30.5-193t-80-150-114-104.5-132-64T664-20zm-58 258q117 0 196 79t79 197-79 196-196 78q-113 0-187.5-79.5T344 514t74.5-195.5T606 238z"/><glyph glyph-name="q" unicode="q" horiz-adv-x="1196" d="M535-20Q468-20 400 .5t-132.5 64-115 104.5-81 150T41 512q0 105 29.5 194t79 150T264 960.5t134.5 63.5 140.5 20q188 0 305-131v111h280V-471H844v573Q735-20 535-20zm55 258q113 0 187.5 80.5T852 514t-74.5 194.5T590 788q-117 0-196-78t-79-196 79-197 196-79z"/><glyph glyph-name="r" unicode="r" horiz-adv-x="790" d="M72 0v1024h278V856q81 168 283 168h102V752H567q-113 0-164-63.5T352 483V0H72z"/><glyph glyph-name="s" unicode="s" horiz-adv-x="956" d="M481-20Q123-20 10 256l269 104q55-139 215-139 66 0 103.5 26.5T635 313q0 42-91 68-32 8-128 27-62 11-109.5 24.5t-99 38T123 527t-54.5 82.5T47 723q0 134 117.5 229t302.5 92q311 0 434-237L653 702q-21 52-70.5 82.5T465 815q-65 0-99-24t-34-60q0-32 44-49.5T545 639q61-12 106-25t98-38 86.5-57 56.5-82.5T915 322q0-58-27-117.5t-78.5-111-137.5-83T481-20z"/><glyph glyph-name="t" unicode="t" horiz-adv-x="759" d="M51 772v252h174v240l281 153v-393h192V772H506V446q0-43 2-69.5t10-49 19.5-33.5 34.5-19.5 51.5-10.5 74.5-2V0h-41Q413 0 319 96.5T225 444v328H51z"/><glyph glyph-name="u" unicode="u" horiz-adv-x="1091" d="M459-20Q277-20 174.5 90.5T72 399v625h284V436q0-104 48-160.5T545 219q85 0 139.5 61.5T739 465v559h281V0H741v113Q631-20 459-20z"/><glyph glyph-name="v" unicode="v" horiz-adv-x="1116" d="M420 0L33 1024h289l239-666 234 666h284L702 0H420z"/><glyph glyph-name="w" unicode="w" horiz-adv-x="1810" d="M395 0L51 1024h281l209-653 233 653h279l219-653 221 653h279L1407 0h-270L907 651 668 0H395z"/><glyph glyph-name="x" unicode="x" horiz-adv-x="1150" d="M31 0l377 520-363 504h342l199-287 194 287h330L756 518 1139 0H797L582 299 373 0H31z"/><glyph glyph-name="y" unicode="y" horiz-adv-x="1128" d="M223-473L432 45 25 1024h294l252-631 236 631h291L504-473H223z"/><glyph glyph-name="z" unicode="z" horiz-adv-x="1048" d="M61 0v250l539 526H70v248h907V772L438 248h549V0H61z"/><glyph glyph-name="idotaccent" horiz-adv-x="423" d="M72 0v1024h280V0H72zM43 1294q0 75 46.5 122.5T211 1464t122.5-47.5T381 1294t-47.5-121.5T211 1126t-121.5 46.5T43 1294z"/></font>
</defs>
</svg>
