<svg xmlns="http://www.w3.org/2000/svg"><defs><font id="Simpler-Regular" horiz-adv-x="1228"><font-face font-family="Simpler" font-weight="400" units-per-em="2048" panose-1="0 0 5 0 0 0 0 0 0 0" ascent="1638" descent="-410" x-height="1036" cap-height="1421" bbox="-86 -657 2281 2034" underline-thickness="102" underline-position="-307" unicode-range="U+0020-FB4B"/><glyph glyph-name="fi" unicode="fi" horiz-adv-x="1294" d="M532 1571q93 0 175-31v-149q-78 30-158 30-148 0-148-155v-230h707V0H934v891H401V0H231v891H102v145h129v240q0 80 33.5 150.5T367 1534q67 37 165 37zm582-150v-172H926v172h188z"/><glyph glyph-name="fl" unicode="fl" horiz-adv-x="1314" d="M532 1571q93 0 175-31v-149q-78 30-158 30-148 0-148-155v-230h557v508h172V0H958v891H401V0H231v891H102v145h129v240q0 80 33.5 150.5T367 1534q67 37 165 37z"/><glyph glyph-name="f_f" unicode="ff" horiz-adv-x="1454" d="M1219 1571q92 0 174-31v-149q-78 30-158 30-148 0-148-155v-230h285V891h-285V0H918v891H401V0H231v891H102v145h129v240q0 80 33.5 150.5T367 1534q67 37 165 37 93 0 175-31v-149q-78 30-158 30-148 0-148-155v-230h517v240q0 81 33 151t102 107q67 37 166 37z"/><glyph glyph-name="f_f_i" unicode="ffi" horiz-adv-x="1978" d="M1217 1571q92 0 174-31v-149q-78 30-158 30-148 0-148-155v-230h707V0h-174v891h-533V0H915v891H401V0H231v891H102v145h129v240q0 80 33.5 150.5T367 1534q67 37 165 37 93 0 175-31v-149q-78 30-158 30-148 0-148-155v-230h514v240q0 80 33.5 150.5T1051 1534q67 37 166 37zm581-150v-172h-188v172h188z"/><glyph glyph-name="f_f_l" unicode="ffl" horiz-adv-x="1998" d="M1217 1571q92 0 174-31v-149q-78 30-158 30-148 0-148-155v-230h557v508h173V0h-173v891h-557V0H915v891H401V0H231v891H102v145h129v240q0 80 33.5 150.5T367 1534q67 37 165 37 93 0 175-31v-149q-78 30-158 30-148 0-148-155v-230h514v240q0 80 33.5 150.5T1051 1534q67 37 166 37z"/><glyph glyph-name=".notdef" horiz-adv-x="1024" d="M0 0v1434h1024V0H0zm512 809l348 522H164zm61-92l349-522v1044zM164 102h696L512 625zm-62 1137V195l349 522z"/><glyph glyph-name=".null" horiz-adv-x="0"/><glyph glyph-name="nonmarkingreturn" horiz-adv-x="682"/><glyph glyph-name="space" horiz-adv-x="471"/><glyph glyph-name="exclam" unicode="!" horiz-adv-x="679" d="M428 1421V977l-45-531h-98l-45 533v442h188zM342 229q54 0 91.5-37.5T471 102q0-55-37.5-92T342-27t-91.5 37-37.5 92q0 52 37.5 89.5T342 229z"/><glyph glyph-name="quotedbl" unicode="&quot;" horiz-adv-x="1017" d="M905 1421L580 983h-99l178 438h246zm-368 0L211 983h-98l178 438h246z"/><glyph glyph-name="numbersign" unicode="#" horiz-adv-x="1519" d="M1042 1282v-274h273V887h-273V567h273V444h-273V172H913v272H606V172H479v272H205v123h274v320H205v121h274v274h127v-274h307v274h129zM913 887H606V567h307v320z"/><glyph glyph-name="dollar" unicode="$" horiz-adv-x="1155" d="M797 1618l-29-203q101-34 174-86v-180q-101 73-197 108l-69-489q58-23 100.5-44.5t87-56 72.5-75 46-99.5 19-131q-3-174-129.5-279T561-25l-22-161H401l25 174Q280 16 162 96v193q129-110 287-142l71 496q-56 21-95 38.5t-85 44-76 57.5-57 72.5-40 95.5-13 120q0 90 36 163t97 118 136.5 68.5T582 1444q35 0 53-2l24 176h138zM649 592l-63-453q104 8 171 66t68 155q-1 90-42.5 141T649 592zm-37 694l-30 2q-107 0-179.5-57T330 1071q0-101 49.5-154.5T545 817z"/><glyph glyph-name="percent" unicode="%" horiz-adv-x="1679" d="M1403 1421L432-2H270l975 1423h158zm-205-958q-71 0-119.5-51T1030 285q0-71 50-125t118-54q71 0 120.5 52.5T1368 285t-50 126-120 52zm0 139q132 0 225-92t93-225q0-129-93-222.5T1198-31q-130 0-222.5 93.5T883 285q0 133 92 225t223 92zm-725 848q132 0 225-91.5t93-223.5q0-131-93-224.5T473 817q-130 0-222.5 93.5T158 1135q0 132 92 223.5t223 91.5zm0-137q-71 0-119.5-51T305 1135q0-72 49.5-125.5T473 956q72 0 121 52t49 127q0 72-50 125t-120 53z"/><glyph glyph-name="ampersand" unicode="&amp;" horiz-adv-x="1597" d="M707 1452q161 0 265.5-89t104.5-222q0-117-61-196.5T829 795l-104-60 358-379 351 289V442l-238-200L1419 0h-219l-129 137Q957 45 866 7T664-31q-86 0-167 27T350.5 72.5 245 201t-40 174q0 136 64 229t194 168q-93 118-120.5 185.5T315 1106q0 149 110.5 247.5T707 1452zM963 254L573 657q-98-55-148-117.5T375 389q0-78 45.5-138.5t111-90T668 131q82 0 144 25.5T963 254zM698 1303q-89 0-152-58t-63-133q0-66 25.5-119T614 848q178 93 238.5 147t60.5 127-60 127-155 54z"/><glyph glyph-name="quotesingle" unicode="'" horiz-adv-x="649" d="M537 1421L211 983h-98l184 438h240z"/><glyph glyph-name="parenleft" unicode="(" horiz-adv-x="792" d="M592 1540h108q-187-209-266.5-429T354 643t79.5-468T700-254H592Q396-117 280 132T164 643t116 511 312 386z"/><glyph glyph-name="parenright" unicode=")" horiz-adv-x="792" d="M92 1540h109q196-137 312-386t116-511-116-511-312-386H92Q279-45 358.5 175T438 643t-79.5 468T92 1540z"/><glyph glyph-name="asterisk" unicode="*" horiz-adv-x="1056" d="M600 1421l-20-311 278 115 45-142-285-73 189-240-117-86-160 266-163-268-117 86 192 242-288 75 45 142 278-113-22 307h145z"/><glyph glyph-name="plus" unicode="+" horiz-adv-x="1585" d="M870 1313V803h510V647H870V135l-155 2v510H205v156h510v510h155z"/><glyph glyph-name="comma" unicode="," horiz-adv-x="632" d="M489 201L193-182H92l141 383h256z"/><glyph glyph-name="hyphen" unicode="-" horiz-adv-x="1071" d="M907 707V563H164v144h743z"/><glyph glyph-name="period" unicode="." horiz-adv-x="638" d="M319 229q54 0 92-38t38-89q0-55-38-92t-92-37-91.5 37-37.5 92q0 52 38 89.5t91 37.5z"/><glyph glyph-name="slash" unicode="/" horiz-adv-x="1071" d="M1030 1544L207 0H41l823 1544h166z"/><glyph glyph-name="zero" unicode="0" horiz-adv-x="1253" d="M627 1450q234 0 372-187t138-552q0-364-138.5-551T627-27 255.5 160 117 711q0 365 138 552t372 187zm0-164q-332 0-332-575 0-287 85-430.5T627 137t246.5 143.5T958 711q0 575-331 575z"/><glyph glyph-name="one" unicode="1" horiz-adv-x="788" d="M543 1421V0H362v1063H123v135q103 0 182 63t101 160h137z"/><glyph glyph-name="two" unicode="2" horiz-adv-x="1114" d="M561 1450q196 0 313-107t117-294q0-46-12-91t-28-80.5-52-85.5-64.5-85T750 606L379 166h586V0H150v158l542 641q71 84 98 135.5t27 114.5q0 98-66.5 168.5T563 1288q-67 0-118-20.5t-81-56-46-77.5-21-92H131q6 189 120.5 298.5T561 1450z"/><glyph glyph-name="three" unicode="3" horiz-adv-x="1062" d="M856 1419l-2-143-313-365q170-9 288.5-132T948 487q0-126-46-225.5T777 100 595.5 5.5 375-27q-123 0-242 37v176q120-45 238-45 178 0 290.5 88.5T774 489q0 108-78.5 184.5T508 750q-106 0-197-60v172l326 398H131v159h725z"/><glyph glyph-name="four" unicode="4" horiz-adv-x="1234" d="M848 1427L309 463h486v276h170V463h168V305H965V2L795 0v305H102v146l547 976h199z"/><glyph glyph-name="five" unicode="5" horiz-adv-x="1060" d="M895 1421v-159H379l-31-383q85 32 170 32 178 0 304-124t126-300q0-126-46-225.5T777 100 595.5 5.5 375-27q-136 0-260 43l12 172q120-47 244-47 178 0 290.5 88.5T774 489q0 108-78.5 184.5T508 750q-110 0-191-62l-147 57 51 676h674z"/><glyph glyph-name="six" unicode="6" horiz-adv-x="1159" d="M825 1421L393 797q96 57 209 57 84 0 163-28.5t142.5-81T1009 608t38-186q0-193-136-321T569-27q-198 0-327 128.5T113 428q0 145 55 268 55 124 186 324l262 401h209zM575 698q-129 0-208.5-81.5T287 412q0-118 80-198.5T575 133q132 0 212.5 80T868 412q0 124-80 205t-213 81z"/><glyph glyph-name="seven" unicode="7" horiz-adv-x="1079" d="M977 1421v-157Q699 954 588 684 471 396 471 0H291q0 433 129 739 119 281 332 516H115v166h862z"/><glyph glyph-name="eight" unicode="8" horiz-adv-x="1159" d="M580 1448q188 0 308-110.5t120-284.5q0-98-50-180.5T819 739q228-109 228-344 0-186-131.5-304T580-27 244.5 91 113 395q0 235 227 344-89 51-138.5 133.5T152 1053q0 174 120 284.5T580 1448zm0-786q-117 0-199-78.5T299 395q0-116 81.5-192T580 127t199 76 81 192q0 111-81.5 189T580 662zm0 630q-108 0-178-64.5T332 1049q0-99 72-169.5T580 809t175.5 70.5T827 1049q0 114-69.5 178.5T580 1292z"/><glyph glyph-name="nine" unicode="9" horiz-adv-x="1159" d="M590 1448q198 0 327.5-128.5T1047 993q0-143-56-268-55-124-186-324L543 0H334l432 625q-98-58-209-58-84 0-162.5 28.5t-142 81T151 813t-38 186q0 193 135.5 321T590 1448zm-6-160q-132 0-212.5-79.5T291 1010q0-124 80.5-205.5T584 723q129 0 208.5 81.5T872 1010q0 118-80 198t-208 80z"/><glyph glyph-name="colon" unicode=":" horiz-adv-x="593" d="M410 1036V809H184v227h226zm0-811V0H184v225h226z"/><glyph glyph-name="semicolon" unicode=";" horiz-adv-x="673" d="M489 201L193-182H92l141 383h256zm-6 835V809H258v227h225z"/><glyph glyph-name="less" unicode="&lt;" horiz-adv-x="1097" d="M807 1360l113-113-523-518 521-520-111-109-629 631z"/><glyph glyph-name="equal" unicode="=" horiz-adv-x="1544" d="M1319 1010V854H225v156h1094zm0-414V440H225v156h1094z"/><glyph glyph-name="greater" unicode="&gt;" horiz-adv-x="1097" d="M291 1360l629-629-629-631-111 109 520 520-522 518z"/><glyph glyph-name="question" unicode="?" horiz-adv-x="1015" d="M498 1450q163 0 263.5-90T862 1118q0-101-44-175.5T664 758L496 592V446H326v207l272 271q59 59 80.5 100.5T700 1118q0 79-52 132t-148 53q-108 0-159-57.5T285 1098H133q0 161 99 256.5t266 95.5zM412 229q54 0 91.5-37.5T541 102q0-55-37.5-92T412-27t-91.5 37-37.5 92q0 52 37.5 89.5T412 229z"/><glyph glyph-name="at" unicode="@" horiz-adv-x="1951" d="M975 1389q156 0 298.5-61.5t246-164.5T1684 917t61-299q0-222-121-411h-151q145 179 145 411 0 132-50.5 251.5t-136.5 206-205 137.5-251 51-251-51-205-137.5-136.5-206T332 618q0-176 85.5-324.5T651 59t324-86q170 0 319 84V-82q-152-70-319-70-209 0-386 103.5T308.5 232 205 618q0 156 61 299t164.5 246 246 164.5T975 1389zm188-836v55q-105-19-223-39-97-14-142.5-45.5T752 428q0-62 46.5-96.5T922 297q112 0 176.5 72t64.5 184zm-178 485q159 0 234-79.5t75-213.5V207h-90l-47 98q-35-55-102.5-87T907 186q-129 0-207.5 66.5T621 432q0 81 56 141.5T854 659l195 39q55 9 79.5 32.5T1153 803q0 59-47 92t-121 33q-92 0-143-38.5T791 782H657q3 122 93 189t235 67z"/><glyph glyph-name="A" unicode="A" horiz-adv-x="1409" d="M821 1421L1368 0h-201l-157 422H399L242 0H41l547 1421h233zm-116-184L459 582h491z"/><glyph glyph-name="B" unicode="B" horiz-adv-x="1257" d="M205 1421h457q108 0 197.5-43t146.5-131 57-207q0-181-131-276 109-47 171-139.5t62-221.5q0-187-122.5-295T741 0H205v1421zm520-764l-346-2V160h346q110 0 185 66t75 184q0 116-75 181.5T725 657zm-74 609H379V809h272q102 0 171 60t69 169q0 108-69 168t-171 60z"/><glyph glyph-name="C" unicode="C" horiz-adv-x="1392" d="M872 1450q214 0 377-98v-178q-159 114-368 114-121 0-227.5-38.5t-187-110-127-181.5T293 713q0-133 46.5-243t127-182.5 187-111.5T881 137q207 0 368 115V74q-165-99-377-99-154 0-291.5 50.5T339 168 174 401.5 113 713t61 311 165 233 241.5 142.5T872 1450z"/><glyph glyph-name="D" unicode="D" horiz-adv-x="1507" d="M205 1421h479q108 0 211-29.5t194-89 159-143 107.5-199T1395 711q0-166-60.5-303.5t-161-225-227-135T684 0H205v1421zm475-166H385V166h295q79 0 155 22t144.5 67.5 120 109 82 153T1212 711t-30.5 193.5-82 153-120 108.5-144.5 67-155 22z"/><glyph glyph-name="E" unicode="E" horiz-adv-x="1075" d="M952 1421v-166H385V829h512V664H385V166h567V0H205v1421h747z"/><glyph glyph-name="F" unicode="F" horiz-adv-x="1024" d="M952 1421v-166H385V829h512V664H385V0H205v1421h747z"/><glyph glyph-name="G" unicode="G" horiz-adv-x="1558" d="M872 1450q273 0 474-129v-193q-93 77-215 118.5T881 1288q-121 0-227.5-38.5t-187-110-127-181.5T293 713q0-133 45.5-242.5T463 289t183-111 224-41q95 2 193 30t174 79v334H954v155h455V160l-23-19q-101-81-238.5-124.5T872-27q-154 0-291.5 50.5T339 167 174 401.5 113 713t61 311 165 233 241.5 142.5T872 1450z"/><glyph glyph-name="H" unicode="H" horiz-adv-x="1593" d="M1389 1421V0h-183v664H387V0H205v1421h182V829h819v592h183z"/><glyph glyph-name="I" unicode="I" horiz-adv-x="593" d="M389 1421V0H205v1421h184z"/><glyph glyph-name="J" unicode="J" horiz-adv-x="688" d="M504 1421V274q0-139-83-220T207-27Q126-27 61-4v160q82-19 119-19 65 0 102 38t37 112v1134h185z"/><glyph glyph-name="K" unicode="K" horiz-adv-x="1263" d="M1223 1421L596 711 1223 0H989L393 688h-6V0H205v1421h182V733h6l596 688h234z"/><glyph glyph-name="L" unicode="L" horiz-adv-x="993" d="M385 1421V166h567V0H205v1421h180z"/><glyph glyph-name="M" unicode="M" horiz-adv-x="2140" d="M1831 1421L1982 2h-180l-129 1219L1159-29H981L467 1225 338 2H158l151 1419h262l500-1218 498 1218h262z"/><glyph glyph-name="N" unicode="N" horiz-adv-x="1675" d="M377 1434l915-1174v1161h178V-12h-180L383 1151V0H205v1434h172z"/><glyph glyph-name="O" unicode="O" horiz-adv-x="1703" d="M852 1450q113 0 220-30.5t201-92.5 165-149 112-207.5 41-259.5q0-138-41-258.5t-112-207-165-149-201-93T852-27 632 3.5t-201 93-165 149-112 207T113 711q0 139 41 259.5T266 1178t165 149 201 92.5 220 30.5zm0-164q-83 0-163-23t-152-70.5T411 1078t-86-162-32-205 32-204 86-161 126-115 152-71 163-23 163 23 152 71 126 115 86 161 32 204-32 205-86 162-126 114.5-152 70.5-163 23z"/><glyph glyph-name="P" unicode="P" horiz-adv-x="1120" d="M205 1421h436q114 0 208.5-45t154-138 59.5-218q0-94-34.5-171t-93-127T801 645t-160-27H383V0H205v1421zm426-164H383V782h248q105 0 177.5 63t72.5 175-72 174.5-178 62.5z"/><glyph glyph-name="Q" unicode="Q" horiz-adv-x="1703" d="M852 1450q113 0 220-30.5t201-92.5 165-148.5 112-207 41-258.5q0-287-166-484L1663 0h-236l-129 115Q1099-27 852-27 739-27 632 3.5t-201 93T266 246 154 453.5 113 713q0 138 41 258.5t112 207T431 1327t201 92.5 220 30.5zm0-164q-105 0-203.5-37.5t-178.5-107-128.5-181T293 713q0-137 48.5-249T470 282t178.5-107.5T852 137q104 0 202 37.5T1232 282t128.5 182 48.5 249q0 136-48.5 247.5t-128.5 181-178 107-202 37.5z"/><glyph glyph-name="R" unicode="R" horiz-adv-x="1191" d="M205 1421h436q114 0 208.5-45t154-138 59.5-218q0-94-34.5-171t-93-127T801 645t-160-27L1161 0H936L430 618h-47V0H205v1421zm426-164H383V782h248q105 0 177.5 63t72.5 175-72 174.5-178 62.5z"/><glyph glyph-name="S" unicode="S" horiz-adv-x="1081" d="M545 1444q193 0 360-115v-180q-188 139-360 139-107 0-179.5-57T293 1071q0-49 12.5-86.5T338 921t61-50.5 80-41T586 788q58-21 96.5-38t87-43.5 79.5-57 59.5-71.5 42.5-95.5T965 362q-3-177-133.5-282T514-25Q413-25 311 6.5T125 96v193q83-71 187-111.5T514 137q117 0 195 59.5T788 360q0 40-8 71.5t-26 57-38.5 44.5-58 38-71.5 33-90 35q-49 18-83.5 32t-77 36.5-71.5 45-59 55-48 69.5-29 86.5-11 107.5q0 90 36 163t97 118 136.5 68.5T545 1444z"/><glyph glyph-name="T" unicode="T" horiz-adv-x="1011" d="M971 1421v-166H598V0H414v1255H41v166h930z"/><glyph glyph-name="U" unicode="U" horiz-adv-x="1499" d="M1305 1421V526q0-160-74.5-288t-201-197.5T750-29 470.5 40.5 269.5 238 195 526v895h182V514q0-167 107-270t266-103 265.5 103T1122 514l2 907h181z"/><glyph glyph-name="V" unicode="V" horiz-adv-x="1409" d="M1366 1421L813-12H596L43 1421h201L705 182l460 1239h201z"/><glyph glyph-name="W" unicode="W" horiz-adv-x="2301" d="M2255 1421L1788 0h-238l-399 1171L752 0H514L47 1421h203L633 184l434 1237h168l434-1237 383 1237h203z"/><glyph glyph-name="X" unicode="X" horiz-adv-x="1327" d="M1225 1421L776 756 1286 0h-225L666 602 264 0H41l510 756-447 665h224l338-514 335 514h224z"/><glyph glyph-name="Y" unicode="Y" horiz-adv-x="1249" d="M1225 1421L715 637V0H530v637L20 1421h218l385-594 385 594h217z"/><glyph glyph-name="Z" unicode="Z" horiz-adv-x="1167" d="M1053 1421v-147L332 166h723V0H113v147l718 1108H113v166h940z"/><glyph glyph-name="bracketleft" unicode="[" horiz-adv-x="700" d="M618 1544v-149H324V-104h294v-150H164v1798h454z"/><glyph glyph-name="backslash" unicode="\" horiz-adv-x="1009" d="M176 1544L999 0H834L10 1544h166z"/><glyph glyph-name="bracketright" unicode="]" horiz-adv-x="700" d="M537 1544V-254H82v150h295v1499H82v149h455z"/><glyph glyph-name="asciicircum" unicode="^" horiz-adv-x="1400" d="M803 1421l393-753h-172l-324 618-323-618H205l393 753h205z"/><glyph glyph-name="underscore" unicode="_" horiz-adv-x="1132" d="M1071 0v-152H61V0h1010z"/><glyph glyph-name="grave" unicode="`" d="M514 1513l152-294H555l-276 294h235z"/><glyph glyph-name="a" unicode="a" horiz-adv-x="1124" d="M565 1063q102 0 179-28.5T868 955t70-118 23-149V0H854l-70 125Q738 55 653.5 14T467-27q-164 0-264.5 85T102 287q0 106 71 183t224 108l250 49q70 13 101.5 42.5T780 762q0 75-60 117.5T565 922q-117 0-181.5-49T319 735H150q3 155 117.5 241.5T565 1063zm228-623v72q-23-4-285-49-124-20-181-59t-57-121q0-80 58-124t157-44q142 0 225 92t83 233z"/><glyph glyph-name="b" unicode="b" horiz-adv-x="1251" d="M356 1544V922h6q43 65 129.5 103t176.5 38q215 0 343-151.5T1139 516q0-245-128.5-394T668-27q-92 0-176.5 39T358 119L293 0H184v1544h172zm301-635q-148 0-227.5-111.5T350 518q0-110 32.5-197T486 179.5 657 125q98 0 168 54.5t103 142T961 518q0 108-33 195T825 854.5 657 909z"/><glyph glyph-name="c" unicode="c" horiz-adv-x="1034" d="M627 1063q169 0 301-80V809Q801 909 645 909q-163 0-259.5-111.5T289 518t96.5-279.5T645 127q156 0 283 100V53Q796-27 627-27q-226 0-369 153.5T115 518t143 391.5T627 1063z"/><glyph glyph-name="d" unicode="d" horiz-adv-x="1251" d="M1067 1544V0H958l-65 119Q844 51 760 12T584-27q-214 0-342.5 149T113 516q0 244 128 395.5T584 1063q90 0 176-38t129-103h6v622h172zM594 909q-145 0-224-111.5T291 518q0-109 32.5-196.5t102.5-142T594 125q100 0 171 54.5T868.5 321 901 518q0 168-79.5 279.5T594 909z"/><glyph glyph-name="e" unicode="e" horiz-adv-x="1181" d="M596 1063q223 0 353-152t130-393q0-35-2-51H285q5-75 23.5-135.5t54-110 94.5-77T594 117q219 0 285 198h174q-45-163-163-252.5T596-27q-226 0-354.5 146T113 518q0 241 130 393t353 152zm-2-145q-70 0-125.5-25t-91-69-57-96.5T289 612h614q-19 135-94 220.5T594 918z"/><glyph glyph-name="f" unicode="f" horiz-adv-x="747" d="M532 1571q93 0 175-31v-149q-78 30-158 30-148 0-148-155v-230h285V891H401V0H231v891H102v145h129v240q0 80 33.5 150.5T367 1534q67 37 165 37z"/><glyph glyph-name="g" unicode="g" horiz-adv-x="1161" d="M530 1063q53 0 160-13.5t170-13.5h230V889H893q63-94 63-219 0-174-117.5-284T530 276q-96 0-178 31-27-18-44-45.5T291 205q0-24 9.5-42t21-28.5 35-19.5 36.5-12 41-9q18-4 179-31T834 6q149-74 149-242 0-146-117.5-222.5T555-535q-232 0-426 93v161q216-110 426-110 115 0 186.5 38T813-236q0 64-38.5 93T662-98q-41 10-156 27.5T334-37Q152 15 152 166q0 54 26 105.5t76 88.5q-71 53-109.5 133T106 670q0 174 116.5 283.5T530 1063zm0-141q-113 0-186.5-70T270 670t73.5-182T530 418t187 70 74 182-74 182-187 70z"/><glyph glyph-name="h" unicode="h" horiz-adv-x="1212" d="M358 1544V895q49 82 133 125t177 43q178 0 279.5-101T1049 682V0H874v657q0 252-217 252-148 0-227.5-111.5T350 518V0H184v1544h174z"/><glyph glyph-name="i" unicode="i" horiz-adv-x="546" d="M360 1036V0H186v1036h174zm7 385v-172H180v172h187z"/><glyph glyph-name="j" unicode="j" horiz-adv-x="575" d="M397 1036V-248q0-131-78-207.5T117-532q-62 0-117 16v147q50-12 92-12 131 0 131 139v1278h174zm4 385v-172H213v172h188z"/><glyph glyph-name="k" unicode="k" horiz-adv-x="1093" d="M358 1544V537l453 499h221L567 524 1053 0H819L358 500V0H184v1544h174z"/><glyph glyph-name="l" unicode="l" horiz-adv-x="542" d="M358 1544V0H184v1544h174z"/><glyph glyph-name="m" unicode="m" horiz-adv-x="1914" d="M1360 1063q179 0 280-104t101-297V0h-174v637q0 124-54 198t-163 74q-148 0-228-111.5T1042 518l2-518H870v637q0 124-54 198t-163 74q-148 0-227.5-111.5T346 518V0H174v1036h125l72-131q50 80 128.5 119t164.5 39q126 0 214.5-52.5T1010 858q29 57 71.5 99t90.5 64 94 32 94 10z"/><glyph glyph-name="n" unicode="n" horiz-adv-x="1218" d="M664 1063q179 0 279.5-104T1044 662V0H870v637q0 124-54 198t-163 74q-100 0-170.5-54.5T380 713.5 348 518V0H174v1036h125l72-131q50 80 128.5 119t164.5 39z"/><glyph glyph-name="o" unicode="o" horiz-adv-x="1245" d="M623 1063q226 0 370-154t144-391-144-391T623-27 253 127 109 518t144 391 370 154zm0-154q-107 0-185.5-56T322 709.5 285 516t37-193 115.5-142.5T623 125q108 0 186.5 55.5t115 142.5T961 516q0 107-36.5 194t-115 143T623 909z"/><glyph glyph-name="p" unicode="p" horiz-adv-x="1251" d="M668 1063q214 0 342.5-149T1139 520q0-244-128-395.5T668-27q-90 0-176.5 38.5T362 115h-6v-623H184v1544h109l65-118q49 68 133 106.5t177 38.5zm-11-152q-100 0-171-54.5T382.5 715 350 518q0-168 79.5-279.5T657 127q98 0 168 54.5T928 323t33 195q0 109-33 196.5t-103 142T657 911z"/><glyph glyph-name="q" unicode="q" horiz-adv-x="1251" d="M586 1061q93 0 175.5-37.5T893 918l65 118h109V-502H895v619h-6Q848 52 762 14.5T586-23q-213 0-341 150.5T117 522t128 391.5T586 1061zm10-150q-145 0-223-111.5T295 520t78-279.5T596 129q100 0 170.5 54.5t102.5 141T901 520t-32 195.5-102.5 141T596 911z"/><glyph glyph-name="r" unicode="r" horiz-adv-x="755" d="M641 1059q40 0 74-10V868q-55 19-111 19-109 0-178.5-88.5T356 522V0H184v1042h107l82-149q31 60 77.5 98.5t93 53T641 1059z"/><glyph glyph-name="s" unicode="s" horiz-adv-x="913" d="M451 1063q164 0 307-86V819q-84 51-155.5 76T451 920q-84 0-131.5-39T272 774q0-29 5.5-51t20.5-40 28.5-29.5T370 629t50.5-20 62.5-21q129-42 181-71 143-81 143-234 0-138-101.5-223T442-25q-181 0-323 88v162q70-45 157.5-74.5T442 121q82 0 140.5 43T641 279q0 25-6.5 45t-23 36-31 27-43.5 22-47 17.5-55.5 17.5-55.5 17q-49 16-80.5 29t-72 39-64 57-40 81T106 780q0 131 99 207t246 76z"/><glyph glyph-name="t" unicode="t" horiz-adv-x="745" d="M379 1288v-252h274V891H379V281q0-156 147-156 77 0 158 31V4q-82-31-174-31-97 0-164 37-69 37-102 107t-33 151v623H51v143h74q40 0 68 28t28 68v158h158z"/><glyph glyph-name="u" unicode="u" horiz-adv-x="1173" d="M1010 1036l-2-641q0-182-122.5-302T586-27 286.5 93 164 395v641h172V383q0-108 72.5-180T586 131t178.5 72T838 383v653h172z"/><glyph glyph-name="v" unicode="v" horiz-adv-x="1118" d="M1077 1036L623-25H496L41 1036h186l332-790 332 790h186z"/><glyph glyph-name="w" unicode="w" horiz-adv-x="1904" d="M1864 1036L1434-25h-119L952 831 590-25H471L41 1036h180l311-784 332 784h176l332-784 311 784h181z"/><glyph glyph-name="x" unicode="x" horiz-adv-x="1093" d="M991 1036L647 567 1063 0H862L547 430 231 0H31l415 567-344 469h201l244-331 244 331h200z"/><glyph glyph-name="y" unicode="y" horiz-adv-x="1071" d="M1051 1036L395-508H219L453 43 31 1036h176l334-786 333 786h177z"/><glyph glyph-name="z" unicode="z" horiz-adv-x="991" d="M879 1036V903L319 145h555V0H113v133l559 758H117v145h762z"/><glyph glyph-name="braceleft" unicode="{" horiz-adv-x="835" d="M713 1554v-147h-70q-95 0-122-56.5T494 1118q0-150-14.5-229t-54-132T301 651q85-54 124.5-107.5t54-132.5T494 182q0-176 27-232t122-56h70v-148h-66q-176 0-244.5 82T334 90v162q0 159-54 229.5T113 563v174q113 11 167 82t54 230v161q0 180 68.5 262t244.5 82h66z"/><glyph glyph-name="bar" unicode="|" horiz-adv-x="989" d="M580 1536V-242H410v1778h170z"/><glyph glyph-name="braceright" unicode="}" horiz-adv-x="835" d="M123 1554h65q176 0 245-82t69-262v-161q0-159 54-230t167-82V563q-113-11-167-81.5T502 252V90q0-180-69-262t-245-82h-65v148h70q95 0 122 56t27 232q0 150 14.5 229t54 132.5T535 651q-85 53-124.5 106t-54 132-14.5 229q0 176-27 232.5T193 1407h-70v147z"/><glyph glyph-name="asciitilde" unicode="~" horiz-adv-x="1519" d="M514 918q97 0 266-78 88-41 144.5-59.5T1030 762q64 0 128.5 34T1315 911V735q-143-143-295-143-115 0-279 76-166 80-249 80-62 0-125-35T205 594v180q92 76 164 110t145 34z"/><glyph glyph-name="exclamdown" unicode="¡" horiz-adv-x="679" d="M383 590l45-531v-444H240V57l45 533h98zm-43 473q54 0 91.5-37.5T469 936q0-55-37.5-92T340 807t-91.5 37-37.5 92q0 52 37.5 89.5T340 1063z"/><glyph glyph-name="cent" unicode="¢" horiz-adv-x="1230" d="M858 1421l-27-182q92-18 175-68V997q-92 73-199 93L690 317l33-2q155 0 283 101V242q-132-80-301-80l-37 2L643 2H516l29 182q-162 51-257 191.5T193 707q0 237 143 390.5T705 1251l26 170h127zM569 348l113 748q-146-15-230.5-124T367 707q0-123 53-219t149-140z"/><glyph glyph-name="sterling" unicode="£" horiz-adv-x="1198" d="M711 1450q149 0 270-74v-168q-130 84-262 84-96 0-156.5-52.5T502 1083V801h370V645H504V154h561V0H334v645H143v156h191v305q0 84 31 151.5t84.5 108.5 120 62.5T711 1450z"/><glyph glyph-name="currency" unicode="¤" horiz-adv-x="1447" d="M315 1239l113-113q135 99 301 99 167 0 299-99l105 105 110-111-104-102q98-131 98-299 0-167-98-301l104-107-108-110-107 106q-131-98-299-98-167 0-301 98L324 201 215 313l102 105q-96 137-96 301 0 165 96 299l-112 112zm412-160q-151 0-256.5-105.5T365 717t105.5-257T727 354t257 106 106 257-106 256.5T727 1079z"/><glyph glyph-name="yen" unicode="¥" horiz-adv-x="1429" d="M1317 1421L862 721h336V575H807V406h391V260H807V0H623v260H233v146h390v169H233v146h334l-454 700h217l385-594 385 594h217z"/><glyph glyph-name="brokenbar" unicode="¦" horiz-adv-x="989" d="M580 1536V877H410v659h170zm0-1118v-660H410v660h170z"/><glyph glyph-name="section" unicode="§" horiz-adv-x="1069" d="M535 1448q175 0 325-86v-162q-171 103-325 103-97 0-152-45.5T328 1133q0-37 15-68t36.5-52 59.5-40 70.5-31 82.5-27q50-16 87-30.5t84-43 77-63 51.5-88T915 571q-3-173-147-260 142-90 147-268-3-103-57.5-177t-141-109.5T522-279q-87 0-179 26t-163 71v168q79-51 169.5-84T516-131q98 0 162 45.5T745 43q-1 36-16.5 66t-37 49.5-60 38.5-69 30-81.5 27-88.5 30.5-85 44T230 393t-51 91-21 124q0 167 143 252-143 95-143 277 0 144 107.5 227.5T535 1448zm-25-674q-87-6-134.5-51T328 604q0-80 58-125.5T553 399q83 8 136 53t56 119q-1 42-19 74.5t-53.5 56-71.5 39-91 33.5z"/><glyph glyph-name="dieresis" unicode="¨" d="M813 1456q51 0 86-35t35-86q0-50-35-84t-86-34q-50 0-85.5 34.5T692 1335q0 51 35.5 86t85.5 35zm-395 0q50 0 85.5-35t35.5-86q0-49-35.5-83.5T418 1217q-51 0-86 34t-35 84q0 51 35 86t86 35z"/><glyph glyph-name="copyright" unicode="©" horiz-adv-x="1951" d="M975 1389q156 0 298.5-61.5t246-164.5T1684 917t61-299q0-209-103.5-386T1361-48.5 975-152 589-48.5 308.5 232 205 618q0 156 61 299t164.5 246 246 164.5T975 1389zm31-363q125 0 208-55V846l-6-4q-87 69-198 69-130 0-214.5-77.5T711 618t84.5-215 214.5-77q111 0 198 69l6-4V266q-83-55-208-55-179 0-293 108-125 112-125 299 0 188 125 300 114 108 293 108zm-31 238q-132 0-251-51t-205-137.5-136.5-206T332 618q0-176 85.5-324.5T651 59t324-86 324 86 233.5 234.5T1618 618q0 132-50.5 251.5t-136.5 206-205 137.5-251 51z"/><glyph glyph-name="guillemotleft" unicode="«" horiz-adv-x="1331" d="M1167 924L858 492l309-433H956L643 492l313 432h211zm-479 0L379 492 688 59H477L164 492l313 432h211z"/><glyph glyph-name="logicalnot" unicode="¬" horiz-adv-x="1585" d="M1380 1036V369l-155 2v510H205v155h1175z"/><glyph glyph-name="registered" unicode="®" horiz-adv-x="1951" d="M975 1389q156 0 298.5-61.5t246-164.5T1684 917t61-299q0-209-103.5-386T1361-48.5 975-152 589-48.5 308.5 232 205 618q0 156 61 299t164.5 246 246 164.5T975 1389zm0-125q-132 0-251-51t-205-137.5-136.5-206T332 618q0-176 85.5-324.5T651 59t324-86 324 86 233.5 234.5T1618 618q0 132-50.5 251.5t-136.5 206-205 137.5-251 51zm-238-250h264q102 0 173-62t71-170q0-99-62.5-159T1026 557l4 6 260-327h-155L889 557h-31V233H737v781zm258-109H858V664h137q54 0 90.5 31.5T1122 784t-36.5 89-90.5 32z"/><glyph glyph-name="macron" unicode="¯" d="M965 1391v-142H264v142h701z"/><glyph glyph-name="degree" unicode="°" horiz-adv-x="837" d="M418 1751q132 0 224.5-91.5T735 1436q0-131-92.5-224.5T418 1118q-130 0-223 93.5T102 1436q0 132 92.5 223.5T418 1751zm0-137q-71 0-119.5-51T250 1436q0-72 49.5-125.5T418 1257q72 0 121 52t49 127q0 72-50 125t-120 53z"/><glyph glyph-name="plusminus" unicode="±" horiz-adv-x="1380" d="M768 1313V967h408V811H768V463l-156 2v346H205v156h407v346h156zm408-994V164H205v155h971z"/><glyph glyph-name="acute" unicode="´" d="M954 1513l-276-294H567l152 294h235z"/><glyph glyph-name="paragraph" unicode="¶" horiz-adv-x="1257" d="M1135 1421v-166h-127V-96H854v1351H629V-96H479v803q-146-1-251 103.5T123 1063q0 149 102.5 253.5T473 1421h662z"/><glyph glyph-name="periodcentered" unicode="·" horiz-adv-x="638" d="M319 725q54 0 92-38t38-89q0-55-38-92t-92-37-91.5 37-37.5 92q0 52 38 89.5t91 37.5z"/><glyph glyph-name="cedilla" unicode="¸" d="M657 6l-59-74q4 0 11.5 1t11.5 1q55 0 94-31.5t39-84.5q0-67-56.5-107.5T563-330q-84 0-151 37l34 68q8-3 22-8t20.5-7 17.5-5 21-4 22-1q72 0 72 57 0 46-56 46-21 0-65-11l-35 39L559 6h98z"/><glyph glyph-name="guillemotright" unicode="»" horiz-adv-x="1282" d="M821 924l297-412-297-412H621l292 412-292 412h200zm-456 0l297-412-297-412H164l293 412-293 412h201z"/><glyph glyph-name="questiondown" unicode="¿" horiz-adv-x="964" d="M684 590V383L412 113q-59-59-81-101t-22-94q0-78 52.5-131T510-266q108 0 159 57.5T725-61h152q0-161-99-257t-266-96q-163 0-264 90T147-82q0 101 44.5 176T346 279l168 165v146h170zm-86 473q54 0 91.5-37.5T727 936q0-55-37.5-92T598 807t-91.5 37-37.5 92q0 52 37.5 89.5T598 1063z"/><glyph glyph-name="Agrave" unicode="À" horiz-adv-x="1409" d="M821 1421L1368 0h-201l-157 422H399L242 0H41l547 1421h233zm-116-184L459 582h491zm-105 674l152-295H641l-276 295h235z"/><glyph glyph-name="Aacute" unicode="Á" horiz-adv-x="1409" d="M821 1421L1368 0h-201l-157 422H399L242 0H41l547 1421h233zm-116-184L459 582h491zm333 674l-276-295H651l152 295h235z"/><glyph glyph-name="Acircumflex" unicode="Â" horiz-adv-x="1409" d="M821 1421L1368 0h-201l-157 422H399L242 0H41l547 1421h233zm-116-184L459 582h491zm83 674l265-295H858l-153 180-162-180H348l273 295h167z"/><glyph glyph-name="Atilde" unicode="Ã" horiz-adv-x="1409" d="M821 1421L1368 0h-201l-157 422H399L242 0H41l547 1421h233zm-116-184L459 582h491zm251 616h88q-10-119-61.5-180T844 1612q-51 0-156.5 50T541 1712q-36 0-65-27t-36-69h-84q12 116 64.5 176.5T559 1853q51 0 151.5-51t145.5-51q36 0 62 26.5t38 75.5z"/><glyph glyph-name="Adieresis" unicode="Ä" horiz-adv-x="1409" d="M821 1421L1368 0h-201l-157 422H399L242 0H41l547 1421h233zm-116-184L459 582h491zm194 616q51 0 86-34.5t35-85.5q0-50-35-84.5t-86-34.5q-50 0-85.5 35t-35.5 84q0 51 35.5 85.5T899 1853zm-395 0q50 0 85.5-34.5T625 1733q0-49-35.5-84t-85.5-35q-51 0-86 34.5t-35 84.5q0 51 35 85.5t86 34.5z"/><glyph glyph-name="Aring" unicode="Å" horiz-adv-x="1409" d="M821 1421L1368 0h-201l-157 422H399L242 0H41l547 1421h233zm-116-184L459 582h491zm-5 743q86 0 147.5-61.5T909 1772t-61.5-147-147.5-62q-85 0-146.5 62T492 1772t61.5 146.5T700 1980zm0-106q-43 0-72.5-29.5T598 1772t29.5-73 72.5-30 73 30 30 73-30 72.5-73 29.5z"/><glyph glyph-name="AE" unicode="Æ" horiz-adv-x="1886" d="M1763 1421v-166h-567V829h512V664h-512V166h567V0h-747v422H518L221 0H0l999 1421h764zm-747-291L631 582h385v548z"/><glyph glyph-name="Ccedilla" unicode="Ç" horiz-adv-x="1392" d="M872 1450q214 0 377-98v-178q-159 114-368 114-121 0-227.5-38.5t-187-110-127-181.5T293 713q0-133 46.5-243t127-182.5 187-111.5T881 137q207 0 368 115V74q-165-99-377-99-154 0-291.5 50.5T339 168 174 401.5 113 713t61 311 165 233 241.5 142.5T872 1450zM944 6l-59-74q4 0 11 1t11 1q55 0 94-31.5t39-84.5q0-67-56-107.5T850-330q-85 0-152 37l35 68q8-3 22-8t20.5-7 17.5-5 21-4 22-1q71 0 71 57 0 46-55 46-22 0-66-11l-34 39L846 6h98z"/><glyph glyph-name="Egrave" unicode="È" horiz-adv-x="1075" d="M952 1421v-166H385V829h512V664H385V166h567V0H205v1421h747zm-456 490l151-295H537l-277 295h236z"/><glyph glyph-name="Eacute" unicode="É" horiz-adv-x="1075" d="M952 1421v-166H385V829h512V664H385V166h567V0H205v1421h747zm-18 490l-277-295H547l151 295h236z"/><glyph glyph-name="Ecircumflex" unicode="Ê" horiz-adv-x="1075" d="M952 1421v-166H385V829h512V664H385V166h567V0H205v1421h747zm-268 490l264-295H754l-154 180-162-180H244l272 295h168z"/><glyph glyph-name="Edieresis" unicode="Ë" horiz-adv-x="1075" d="M952 1421v-166H385V829h512V664H385V166h567V0H205v1421h747zm-157 432q51 0 85.5-34.5T915 1733q0-50-34.5-84.5T795 1614q-50 0-85.5 35t-35.5 84q0 51 35.5 85.5T795 1853zm-396 0q50 0 85.5-34.5T520 1733q0-49-35.5-84t-85.5-35q-51 0-85.5 34.5T279 1733q0 51 34.5 85.5T399 1853z"/><glyph glyph-name="Igrave" unicode="Ì" horiz-adv-x="593" d="M389 1421V0H205v1421h184zm-188 490l151-295H242l-277 295h236z"/><glyph glyph-name="Iacute" unicode="Í" horiz-adv-x="593" d="M389 1421V0H205v1421h184zm250 490l-277-295H252l151 295h236z"/><glyph glyph-name="Icircumflex" unicode="Î" horiz-adv-x="593" d="M389 1421V0H205v1421h184zm0 490l264-295H459l-154 180-162-180H-51l272 295h168z"/><glyph glyph-name="Idieresis" unicode="Ï" horiz-adv-x="593" d="M389 1421V0H205v1421h184zm111 432q51 0 86-34.5t35-85.5q0-50-35-84.5t-86-34.5q-50 0-85.5 35t-35.5 84q0 51 35.5 85.5T500 1853zm-396 0q50 0 85.5-34.5T225 1733q0-49-35.5-84t-85.5-35q-51 0-85.5 34.5T-16 1733q0 51 34.5 85.5T104 1853z"/><glyph glyph-name="Eth" unicode="Ð" horiz-adv-x="1519" d="M217 1421h479q108 0 211-29.5t194-89 159-143 107.5-199T1407 711q0-166-60.5-303.5t-161-225-227-135T696 0H217v633H61v158h156v630zm475-166H397V791h383V633H397V166h295q99 0 193 35.5t170.5 102 123 172.5 46.5 235-46.5 235-123 172T885 1219.5 692 1255z"/><glyph glyph-name="Ntilde" unicode="Ñ" horiz-adv-x="1675" d="M377 1434l915-1174v1161h178V-12h-180L383 1151V0H205v1434h172zm729 419h88q-10-119-62-180t-139-61q-51 0-156 50t-147 50q-36 0-64.5-27t-35.5-69h-84q12 116 64.5 176.5T709 1853q51 0 151.5-51t145.5-51q36 0 62 26.5t38 75.5z"/><glyph glyph-name="Ograve" unicode="Ò" horiz-adv-x="1703" d="M852 1450q113 0 220-30.5t201-92.5 165-149 112-207.5 41-259.5q0-138-41-258.5t-112-207-165-149-201-93T852-27 632 3.5t-201 93-165 149-112 207T113 711q0 139 41 259.5T266 1178t165 149 201 92.5 220 30.5zm0-164q-83 0-163-23t-152-70.5T411 1078t-86-162-32-205 32-204 86-161 126-115 152-71 163-23 163 23 152 71 126 115 86 161 32 204-32 205-86 162-126 114.5-152 70.5-163 23zm-100 625l151-295H793l-277 295h236z"/><glyph glyph-name="Oacute" unicode="Ó" horiz-adv-x="1703" d="M852 1450q113 0 220-30.5t201-92.5 165-149 112-207.5 41-259.5q0-138-41-258.5t-112-207-165-149-201-93T852-27 632 3.5t-201 93-165 149-112 207T113 711q0 139 41 259.5T266 1178t165 149 201 92.5 220 30.5zm0-164q-83 0-163-23t-152-70.5T411 1078t-86-162-32-205 32-204 86-161 126-115 152-71 163-23 163 23 152 71 126 115 86 161 32 204-32 205-86 162-126 114.5-152 70.5-163 23zm338 625l-277-295H803l151 295h236z"/><glyph glyph-name="Ocircumflex" unicode="Ô" horiz-adv-x="1703" d="M852 1450q113 0 220-30.5t201-92.5 165-149 112-207.5 41-259.5q0-138-41-258.5t-112-207-165-149-201-93T852-27 632 3.5t-201 93-165 149-112 207T113 711q0 139 41 259.5T266 1178t165 149 201 92.5 220 30.5zm0-164q-83 0-163-23t-152-70.5T411 1078t-86-162-32-205 32-204 86-161 126-115 152-71 163-23 163 23 152 71 126 115 86 161 32 204-32 205-86 162-126 114.5-152 70.5-163 23zm88 625l264-295h-194l-154 180-162-180H500l272 295h168z"/><glyph glyph-name="Otilde" unicode="Õ" horiz-adv-x="1703" d="M852 1450q113 0 220-30.5t201-92.5 165-149 112-207.5 41-259.5q0-138-41-258.5t-112-207-165-149-201-93T852-27 632 3.5t-201 93-165 149-112 207T113 711q0 139 41 259.5T266 1178t165 149 201 92.5 220 30.5zm0-164q-83 0-163-23t-152-70.5T411 1078t-86-162-32-205 32-204 86-161 126-115 152-71 163-23 163 23 152 71 126 115 86 161 32 204-32 205-86 162-126 114.5-152 70.5-163 23zm256 567h88q-10-119-62-180t-139-61q-51 0-156 50t-147 50q-36 0-64.5-27t-35.5-69h-84q12 116 64.5 176.5T711 1853q51 0 151.5-51t145.5-51q36 0 62 26.5t38 75.5z"/><glyph glyph-name="Odieresis" unicode="Ö" horiz-adv-x="1703" d="M852 1450q113 0 220-30.5t201-92.5 165-149 112-207.5 41-259.5q0-138-41-258.5t-112-207-165-149-201-93T852-27 632 3.5t-201 93-165 149-112 207T113 711q0 139 41 259.5T266 1178t165 149 201 92.5 220 30.5zm0-164q-83 0-163-23t-152-70.5T411 1078t-86-162-32-205 32-204 86-161 126-115 152-71 163-23 163 23 152 71 126 115 86 161 32 204-32 205-86 162-126 114.5-152 70.5-163 23zm199 567q51 0 85.5-34.5t34.5-85.5q0-50-34.5-84.5T1051 1614q-50 0-85.5 35t-35.5 84q0 51 35.5 85.5t85.5 34.5zm-396 0q50 0 85.5-34.5T776 1733q0-49-35.5-84t-85.5-35q-51 0-85.5 34.5T535 1733q0 51 34.5 85.5T655 1853z"/><glyph glyph-name="multiply" unicode="×" horiz-adv-x="1431" d="M1075 1196l111-111-361-360 361-360-111-111-360 360-361-362-108 113 360 360-360 360 108 111 361-360z"/><glyph glyph-name="Oslash" unicode="Ø" horiz-adv-x="1703" d="M1561 1456l-177-217q207-207 207-526 0-139-41-259.5T1438 246 1273 96.5t-201-93T852-27Q631-27 446 86L350-31H143l176 217Q113 389 113 713q0 138 41 258.5t112 207T431 1327t201 92.5 220 30.5q220 0 405-113l97 119h207zm-709-170q-105 0-203.5-37.5t-178.5-107-128.5-181T293 713q0-234 137-391l719 882q-139 82-297 82zm420-184L555 219q139-82 297-82 104 0 202 37.5T1232 282t128.5 182 48.5 249q0 236-137 389z"/><glyph glyph-name="Ugrave" unicode="Ù" horiz-adv-x="1499" d="M1305 1421V526q0-160-74.5-288t-201-197.5T750-29 470.5 40.5 269.5 238 195 526v895h182V514q0-167 107-270t266-103 265.5 103T1122 514l2 907h181zm-660 490l152-295H686l-276 295h235z"/><glyph glyph-name="Uacute" unicode="Ú" horiz-adv-x="1499" d="M1305 1421V526q0-160-74.5-288t-201-197.5T750-29 470.5 40.5 269.5 238 195 526v895h182V514q0-167 107-270t266-103 265.5 103T1122 514l2 907h181zm-222 490l-276-295H696l152 295h235z"/><glyph glyph-name="Ucircumflex" unicode="Û" horiz-adv-x="1499" d="M1305 1421V526q0-160-74.5-288t-201-197.5T750-29 470.5 40.5 269.5 238 195 526v895h182V514q0-167 107-270t266-103 265.5 103T1122 514l2 907h181zm-471 490l264-295H903l-153 180-162-180H393l273 295h168z"/><glyph glyph-name="Udieresis" unicode="Ü" horiz-adv-x="1499" d="M1305 1421V526q0-160-74.5-288t-201-197.5T750-29 470.5 40.5 269.5 238 195 526v895h182V514q0-167 107-270t266-103 265.5 103T1122 514l2 907h181zm-361 432q51 0 86-34.5t35-85.5q0-50-35-84.5t-86-34.5q-50 0-85.5 35t-35.5 84q0 51 35.5 85.5T944 1853zm-395 0q50 0 85.5-34.5T670 1733q0-49-35.5-84t-85.5-35q-51 0-86 34.5t-35 84.5q0 51 35 85.5t86 34.5z"/><glyph glyph-name="Yacute" unicode="Ý" horiz-adv-x="1249" d="M1225 1421L715 637V0H530v637L20 1421h218l385-594 385 594h217zm-264 490l-277-295H573l152 295h236z"/><glyph glyph-name="Thorn" unicode="Þ" horiz-adv-x="1120" d="M381 1421v-274h258q84 0 160-26.5t134.5-76.5 93-127 34.5-172q0-124-59.5-217t-154-138.5T639 344H381V0H205v1421h176zm248-438H381V508h248q106 0 178 62.5T879 745t-72.5 175T629 983z"/><glyph glyph-name="germandbls" unicode="ß" horiz-adv-x="1165" d="M559 1571q168 0 281-98 52-46 79-112.5t27-139.5q0-110-63-201-31-45-78.5-86T720 869.5 656 819t-27-51q0-17 9-30.5t31.5-26T709 691t55-22 57-22q42-17 75-34.5t70-47.5 61-65.5 40-89 16-117.5q0-140-102.5-234T719-35Q595-35 494 4v158q118-51 225-51 79 0 139 52t60 126q0 48-14 84t-42.5 61-56.5 40.5-70 31.5q-9 4-36 14.5t-37.5 15T627 551t-35 18-30 20-28 25-22 29-18.5 35-10 41-4.5 49q0 23 7.5 45t16.5 38 28.5 35.5 32.5 31 38.5 33T641 983q125 113 125 238 0 89-64 139.5T549 1411q-86 0-139.5-58T356 1192L354 0H184v1214q0 166 108 261.5t267 95.5z"/><glyph glyph-name="agrave" unicode="à" horiz-adv-x="1124" d="M565 1063q102 0 179-28.5T868 955t70-118 23-149V0H854l-70 125Q738 55 653.5 14T467-27q-164 0-264.5 85T102 287q0 106 71 183t224 108l250 49q70 13 101.5 42.5T780 762q0 75-60 117.5T565 922q-117 0-181.5-49T319 735H150q3 155 117.5 241.5T565 1063zm228-623v72q-23-4-285-49-124-20-181-59t-57-121q0-80 58-124t157-44q142 0 225 92t83 233zM453 1544l151-295H494l-277 295h236z"/><glyph glyph-name="aacute" unicode="á" horiz-adv-x="1124" d="M565 1063q102 0 179-28.5T868 955t70-118 23-149V0H854l-70 125Q738 55 653.5 14T467-27q-164 0-264.5 85T102 287q0 106 71 183t224 108l250 49q70 13 101.5 42.5T780 762q0 75-60 117.5T565 922q-117 0-181.5-49T319 735H150q3 155 117.5 241.5T565 1063zm228-623v72q-23-4-285-49-124-20-181-59t-57-121q0-80 58-124t157-44q142 0 225 92t83 233zm98 1104l-277-295H504l151 295h236z"/><glyph glyph-name="acircumflex" unicode="â" horiz-adv-x="1124" d="M565 1063q102 0 179-28.5T868 955t70-118 23-149V0H854l-70 125Q738 55 653.5 14T467-27q-164 0-264.5 85T102 287q0 106 71 183t224 108l250 49q70 13 101.5 42.5T780 762q0 75-60 117.5T565 922q-117 0-181.5-49T319 735H150q3 155 117.5 241.5T565 1063zm228-623v72q-23-4-285-49-124-20-181-59t-57-121q0-80 58-124t157-44q142 0 225 92t83 233zM641 1544l264-295H711l-154 181-162-181H201l272 295h168z"/><glyph glyph-name="atilde" unicode="ã" horiz-adv-x="1124" d="M565 1063q102 0 179-28.5T868 955t70-118 23-149V0H854l-70 125Q738 55 653.5 14T467-27q-164 0-264.5 85T102 287q0 106 71 183t224 108l250 49q70 13 101.5 42.5T780 762q0 75-60 117.5T565 922q-117 0-181.5-49T319 735H150q3 155 117.5 241.5T565 1063zm228-623v72q-23-4-285-49-124-20-181-59t-57-121q0-80 58-124t157-44q142 0 225 92t83 233zm16 1047h88q-10-119-62-180.5T696 1245q-50 0-156 50.5T393 1346q-36 0-64.5-27.5T293 1249h-84q12 116 64.5 177t138.5 61q51 0 151.5-51.5T709 1384q35 0 61.5 27t38.5 76z"/><glyph glyph-name="adieresis" unicode="ä" horiz-adv-x="1124" d="M565 1063q102 0 179-28.5T868 955t70-118 23-149V0H854l-70 125Q738 55 653.5 14T467-27q-164 0-264.5 85T102 287q0 106 71 183t224 108l250 49q70 13 101.5 42.5T780 762q0 75-60 117.5T565 922q-117 0-181.5-49T319 735H150q3 155 117.5 241.5T565 1063zm228-623v72q-23-4-285-49-124-20-181-59t-57-121q0-80 58-124t157-44q142 0 225 92t83 233zm-41 1047q51 0 85.5-35t34.5-86q0-50-34.5-84.5T752 1247q-50 0-85.5 35t-35.5 84q0 51 35.5 86t85.5 35zm-396 0q50 0 85.5-35t35.5-86q0-49-35.5-84t-85.5-35q-51 0-85.5 34.5T236 1366q0 51 34.5 86t85.5 35z"/><glyph glyph-name="aring" unicode="å" horiz-adv-x="1124" d="M565 1063q102 0 179-28.5T868 955t70-118 23-149V0H854l-70 125Q738 55 653.5 14T467-27q-164 0-264.5 85T102 287q0 106 71 183t224 108l250 49q70 13 101.5 42.5T780 762q0 75-60 117.5T565 922q-117 0-181.5-49T319 735H150q3 155 117.5 241.5T565 1063zm228-623v72q-23-4-285-49-124-20-181-59t-57-121q0-80 58-124t157-44q142 0 225 92t83 233zM553 1614q86 0 147.5-62t61.5-147-61.5-147-147.5-62q-85 0-147 62t-62 147 62 147 147 62zm0-107q-43 0-72.5-29.5T451 1405t29.5-72.5T553 1303t72.5 29.5T655 1405t-29.5 72.5T553 1507z"/><glyph glyph-name="ae" unicode="æ" horiz-adv-x="1841" d="M1255 1063q223 0 353.5-152T1739 518q0-35-2-51H944q5-75 23.5-135.5t54-110 94.5-77 137-27.5q221 0 287 202h174q-45-164-163.5-255T1255-27q-268 0-397 203Q795 69 690.5 21T467-27q-164 0-264.5 85T102 287q0 106 70.5 183.5T397 578l250 49q70 13 101.5 42.5T780 762q0 75-60 117.5T565 922q-117 0-181.5-49T319 735H150q3 155 117.5 241.5T565 1063q237 0 338-152 133 152 352 152zM793 440v72q-23-4-285-49-124-20-181-59t-57-121q0-80 58-124t157-44q142 0 225 92t83 233zm460 478q-70 0-125.5-25t-91-69-57-96.5T948 612h615q-9 64-30.5 116.5T1475 825t-92.5 68.5T1253 918z"/><glyph glyph-name="ccedilla" unicode="ç" horiz-adv-x="1034" d="M627 1063q169 0 301-80V809Q801 909 645 909q-163 0-259.5-111.5T289 518t96.5-279.5T645 127q156 0 283 100V53Q796-27 627-27q-226 0-369 153.5T115 518t143 391.5T627 1063zM692 6l-59-74q4 0 11 1t11 1q55 0 94-31.5t39-84.5q0-67-56-107.5T598-330q-85 0-152 37l35 68q8-3 22-8t20.5-7 17.5-5 21-4 22-1q71 0 71 57 0 46-55 46-21 0-65-11l-35 39L594 6h98z"/><glyph glyph-name="egrave" unicode="è" horiz-adv-x="1181" d="M596 1063q223 0 353-152t130-393q0-35-2-51H285q5-75 23.5-135.5t54-110 94.5-77T594 117q219 0 285 198h174q-45-163-163-252.5T596-27q-226 0-354.5 146T113 518q0 241 130 393t353 152zm-2-145q-70 0-125.5-25t-91-69-57-96.5T289 612h614q-19 135-94 220.5T594 918zm-119 626l152-295H516l-276 295h235z"/><glyph glyph-name="eacute" unicode="é" horiz-adv-x="1181" d="M596 1063q223 0 353-152t130-393q0-35-2-51H285q5-75 23.5-135.5t54-110 94.5-77T594 117q219 0 285 198h174q-45-163-163-252.5T596-27q-226 0-354.5 146T113 518q0 241 130 393t353 152zm-2-145q-70 0-125.5-25t-91-69-57-96.5T289 612h614q-19 135-94 220.5T594 918zm319 626l-276-295H526l152 295h235z"/><glyph glyph-name="ecircumflex" unicode="ê" horiz-adv-x="1181" d="M596 1063q223 0 353-152t130-393q0-35-2-51H285q5-75 23.5-135.5t54-110 94.5-77T594 117q219 0 285 198h174q-45-163-163-252.5T596-27q-226 0-354.5 146T113 518q0 241 130 393t353 152zm-2-145q-70 0-125.5-25t-91-69-57-96.5T289 612h614q-19 135-94 220.5T594 918zm70 626l264-295H733l-153 181-162-181H223l273 295h168z"/><glyph glyph-name="edieresis" unicode="ë" horiz-adv-x="1181" d="M596 1063q223 0 353-152t130-393q0-35-2-51H285q5-75 23.5-135.5t54-110 94.5-77T594 117q219 0 285 198h174q-45-163-163-252.5T596-27q-226 0-354.5 146T113 518q0 241 130 393t353 152zm-2-145q-70 0-125.5-25t-91-69-57-96.5T289 612h614q-19 135-94 220.5T594 918zm180 569q51 0 86-35t35-86q0-50-35-84.5t-86-34.5q-50 0-85.5 35t-35.5 84q0 51 35.5 86t85.5 35zm-395 0q50 0 85.5-35t35.5-86q0-49-35.5-84t-85.5-35q-51 0-86 34.5t-35 84.5q0 51 35 86t86 35z"/><glyph glyph-name="igrave" unicode="ì" horiz-adv-x="534" d="M354 1036V0H180v1036h174zm-188 508l151-295H207l-277 295h236z"/><glyph glyph-name="iacute" unicode="í" horiz-adv-x="534" d="M354 1036V0H180v1036h174zm250 508l-276-295H217l152 295h235z"/><glyph glyph-name="icircumflex" unicode="î" horiz-adv-x="534" d="M354 1036V0H180v1036h174zm0 508l264-295H424l-154 181-161-181H-86l272 295h168z"/><glyph glyph-name="idieresis" unicode="ï" horiz-adv-x="534" d="M354 1036V0H180v1036h174zm111 451q51 0 86-35t35-86q0-50-35-84.5t-86-34.5q-50 0-85.5 35t-35.5 84q0 51 35.5 86t85.5 35zm-395 0q50 0 85-35t35-86q0-49-35-84t-85-35q-51 0-86 34.5t-35 84.5q0 51 35 86t86 35z"/><glyph glyph-name="eth" unicode="ð" horiz-adv-x="1187" d="M565 1544l111-168 301 82v-135l-225-61q130-197 186-295 72-122 104.5-225.5T1075 516q0-246-130-394.5T594-27 243 121.5 113 516q0 245 130 396t351 151q51 0 106-10l-112 168-287-78v133l213 57-145 211h196zm29-635q-145 0-224-111.5T291 518q0-109 32.5-196.5t102.5-142T594 125t168 54.5 102.5 142T897 518q0 168-79 279.5T594 909z"/><glyph glyph-name="ntilde" unicode="ñ" horiz-adv-x="1218" d="M664 1063q179 0 279.5-104T1044 662V0H870v637q0 124-54 198t-163 74q-100 0-170.5-54.5T380 713.5 348 518V0H174v1036h125l72-131q50 80 128.5 119t164.5 39zm245 424h88q-10-119-61.5-180.5T797 1245q-51 0-156 50.5T494 1346q-36 0-65-27.5t-36-69.5h-84q12 116 64.5 177t138.5 61q51 0 151.5-51.5T809 1384q35 0 61.5 27t38.5 76z"/><glyph glyph-name="ograve" unicode="ò" horiz-adv-x="1245" d="M623 1063q226 0 370-154t144-391-144-391T623-27 253 127 109 518t144 391 370 154zm0-154q-107 0-185.5-56T322 709.5 285 516t37-193 115.5-142.5T623 125q108 0 186.5 55.5t115 142.5T961 516q0 107-36.5 194t-115 143T623 909zm-101 635l152-295H563l-276 295h235z"/><glyph glyph-name="oacute" unicode="ó" horiz-adv-x="1245" d="M623 1063q226 0 370-154t144-391-144-391T623-27 253 127 109 518t144 391 370 154zm0-154q-107 0-185.5-56T322 709.5 285 516t37-193 115.5-142.5T623 125q108 0 186.5 55.5t115 142.5T961 516q0 107-36.5 194t-115 143T623 909zm338 635l-277-295H573l152 295h236z"/><glyph glyph-name="ocircumflex" unicode="ô" horiz-adv-x="1245" d="M623 1063q226 0 370-154t144-391-144-391T623-27 253 127 109 518t144 391 370 154zm0-154q-107 0-185.5-56T322 709.5 285 516t37-193 115.5-142.5T623 125q108 0 186.5 55.5t115 142.5T961 516q0 107-36.5 194t-115 143T623 909zm88 635l264-295H780l-153 181-162-181H270l273 295h168z"/><glyph glyph-name="otilde" unicode="õ" horiz-adv-x="1245" d="M623 1063q226 0 370-154t144-391-144-391T623-27 253 127 109 518t144 391 370 154zm0-154q-107 0-185.5-56T322 709.5 285 516t37-193 115.5-142.5T623 125q108 0 186.5 55.5t115 142.5T961 516q0 107-36.5 194t-115 143T623 909zm256 578h88q-10-119-62-180.5T766 1245q-50 0-156 50.5T463 1346q-36 0-65-27.5t-36-69.5h-83q12 116 64.5 177t137.5 61q51 0 151.5-51.5T778 1384q36 0 62.5 27t38.5 76z"/><glyph glyph-name="odieresis" unicode="ö" horiz-adv-x="1245" d="M623 1063q226 0 370-154t144-391-144-391T623-27 253 127 109 518t144 391 370 154zm0-154q-107 0-185.5-56T322 709.5 285 516t37-193 115.5-142.5T623 125q108 0 186.5 55.5t115 142.5T961 516q0 107-36.5 194t-115 143T623 909zm198 578q51 0 86-35t35-86q0-50-35-84.5t-86-34.5q-50 0-85.5 35t-35.5 84q0 51 35.5 86t85.5 35zm-395 0q50 0 85.5-35t35.5-86q0-49-35.5-84t-85.5-35q-51 0-86 34.5t-35 84.5q0 51 35 86t86 35z"/><glyph glyph-name="divide" unicode="÷" horiz-adv-x="1585" d="M1380 803V647H205v156h1175zM786 387q55 0 94.5-39.5T920 254q0-57-39-96t-95-39-94.5 39-38.5 96q0 54 39 93.5t94 39.5zm0 944q56 0 95-39t39-94q0-56-39.5-95.5T786 1063t-94 39.5-39 95.5 38.5 94.5T786 1331z"/><glyph glyph-name="oslash" unicode="ø" horiz-adv-x="1253" d="M627 1063q170 0 301-94l57 67h166l-131-153q121-146 121-365 0-237-144-391T627-27q-169 0-301 95L268 0H102l131 154Q113 299 113 518q0 237 144 391t370 154zm280-313L428 188q82-63 197-63 85 0 152 34t107 90.5 60.5 125T965 518q0 131-58 232zM625 909q-67 0-123.5-22.5t-95-60.5-65.5-88.5-39.5-106T289 518q0-132 57-231l477 559q-82 63-198 63z"/><glyph glyph-name="ugrave" unicode="ù" horiz-adv-x="1173" d="M1010 1036l-2-641q0-182-122.5-302T586-27 286.5 93 164 395v641h172V383q0-108 72.5-180T586 131t178.5 72T838 383v653h172zm-518 508l151-295H532l-276 295h236z"/><glyph glyph-name="uacute" unicode="ú" horiz-adv-x="1173" d="M1010 1036l-2-641q0-182-122.5-302T586-27 286.5 93 164 395v641h172V383q0-108 72.5-180T586 131t178.5 72T838 383v653h172zm-80 508l-277-295H543l151 295h236z"/><glyph glyph-name="ucircumflex" unicode="û" horiz-adv-x="1173" d="M1010 1036l-2-641q0-182-122.5-302T586-27 286.5 93 164 395v641h172V383q0-108 72.5-180T586 131t178.5 72T838 383v653h172zm-330 508l264-295H750l-154 181-162-181H240l272 295h168z"/><glyph glyph-name="udieresis" unicode="ü" horiz-adv-x="1173" d="M1010 1036l-2-641q0-182-122.5-302T586-27 286.5 93 164 395v641h172V383q0-108 72.5-180T586 131t178.5 72T838 383v653h172zm-219 451q51 0 85.5-35t34.5-86q0-50-34.5-84.5T791 1247q-50 0-85.5 35t-35.5 84q0 51 35.5 86t85.5 35zm-396 0q50 0 85.5-35t35.5-86q0-49-35.5-84t-85.5-35q-51 0-86 34.5t-35 84.5q0 51 35 86t86 35z"/><glyph glyph-name="yacute" unicode="ý" horiz-adv-x="1071" d="M1051 1036L395-508H219L453 43 31 1036h176l334-786 333 786h177zm-177 508l-276-295H487l152 295h235z"/><glyph glyph-name="thorn" unicode="þ" horiz-adv-x="1251" d="M358 1544V924l2-4q48 67 132 105t176 38q214 0 342.5-149T1139 520q0-244-128-395.5T668-27q-90 0-176.5 38.5T362 115h-4v-623H184v2052h174zm299-633q-100 0-171-54.5T382.5 715 350 518q0-168 79.5-279.5T657 127q98 0 168 54.5T928 323t33 195q0 109-33 196.5t-103 142T657 911z"/><glyph glyph-name="ydieresis" unicode="ÿ" horiz-adv-x="1071" d="M1051 1036L395-508H219L453 43 31 1036h176l334-786 333 786h177zm-316 451q51 0 86-35t35-86q0-50-35-84.5t-86-34.5q-50 0-85.5 35t-35.5 84q0 51 35.5 86t85.5 35zm-395 0q50 0 85.5-35t35.5-86q0-49-35.5-84t-85.5-35q-51 0-86 34.5t-35 84.5q0 51 35 86t86 35z"/><glyph glyph-name="Amacron" unicode="Ā" horiz-adv-x="1409" d="M821 1421L1368 0h-201l-157 422H399L242 0H41l547 1421h233zm-116-184L459 582h491zm346 551v-141H350v141h701z"/><glyph glyph-name="amacron" unicode="ā" horiz-adv-x="1124" d="M565 1063q102 0 179-28.5T868 955t70-118 23-149V0H854l-70 125Q738 55 653.5 14T467-27q-164 0-264.5 85T102 287q0 106 71 183t224 108l250 49q70 13 101.5 42.5T780 762q0 75-60 117.5T565 922q-117 0-181.5-49T319 735H150q3 155 117.5 241.5T565 1063zm228-623v72q-23-4-285-49-124-20-181-59t-57-121q0-80 58-124t157-44q142 0 225 92t83 233zm110 981v-141H203v141h700z"/><glyph glyph-name="Abreve" unicode="Ă" horiz-adv-x="1409" d="M821 1421L1368 0h-201l-157 422H399L242 0H41l547 1421h233zm-116-184L459 582h491zm215 649h120q-16-129-100.5-200.5T700 1614t-239.5 71.5T360 1886h121q20-71 79.5-103t139.5-32 140 32 80 103z"/><glyph glyph-name="abreve" unicode="ă" horiz-adv-x="1124" d="M565 1063q102 0 179-28.5T868 955t70-118 23-149V0H854l-70 125Q738 55 653.5 14T467-27q-164 0-264.5 85T102 287q0 106 71 183t224 108l250 49q70 13 101.5 42.5T780 762q0 75-60 117.5T565 922q-117 0-181.5-49T319 735H150q3 155 117.5 241.5T565 1063zm228-623v72q-23-4-285-49-124-20-181-59t-57-121q0-80 58-124t157-44q142 0 225 92t83 233zm-21 1080h121q-16-129-100.5-201T553 1247t-239.5 72T213 1520h121q20-71 79.5-103.5T553 1384t139.5 32.5T772 1520z"/><glyph glyph-name="Aogonek" unicode="Ą" horiz-adv-x="1409" d="M821 1421L1368 0h-201l-157 422H399L242 0H41l547 1421h233zm-116-184L459 582h491zM1223 18h61q-10-42-10-71 0-71 35-106.5t96-35.5q20 0 55 7v-99q-55-20-106-20-81 0-132 43t-51 129 52 153z"/><glyph glyph-name="aogonek" unicode="ą" horiz-adv-x="1124" d="M565 1063q102 0 179-28.5T868 955t70-118 23-149V0H854l-70 125Q738 55 653.5 14T467-27q-164 0-264.5 85T102 287q0 106 71 183t224 108l250 49q70 13 101.5 42.5T780 762q0 75-60 117.5T565 922q-117 0-181.5-49T319 735H150q3 155 117.5 241.5T565 1063zm228-623v72q-23-4-285-49-124-20-181-59t-57-121q0-80 58-124t157-44q142 0 225 92t83 233zm69-422h62q-11-46-11-71 0-71 35-106.5t96-35.5q21 0 56 7v-99q-55-20-107-20-80 0-131 43t-51 129q0 87 51 153z"/><glyph glyph-name="Cacute" unicode="Ć" horiz-adv-x="1392" d="M872 1450q214 0 377-98v-178q-159 114-368 114-121 0-227.5-38.5t-187-110-127-181.5T293 713q0-133 46.5-243t127-182.5 187-111.5T881 137q207 0 368 115V74q-165-99-377-99-154 0-291.5 50.5T339 168 174 401.5 113 713t61 311 165 233 241.5 142.5T872 1450zm314 461l-277-295H799l151 295h236z"/><glyph glyph-name="cacute" unicode="ć" horiz-adv-x="1034" d="M627 1063q169 0 301-80V809Q801 909 645 909q-163 0-259.5-111.5T289 518t96.5-279.5T645 127q156 0 283 100V53Q796-27 627-27q-226 0-369 153.5T115 518t143 391.5T627 1063zm329 481l-276-295H569l152 295h235z"/><glyph glyph-name="Cdotaccent" unicode="Ċ" horiz-adv-x="1392" d="M872 1450q214 0 377-98v-178q-159 114-368 114-121 0-227.5-38.5t-187-110-127-181.5T293 713q0-133 46.5-243t127-182.5 187-111.5T881 137q207 0 368 115V74q-165-99-377-99-154 0-291.5 50.5T339 168 174 401.5 113 713t61 311 165 233 241.5 142.5T872 1450zm-22 389q51 0 86-35t35-86q0-50-35-84.5t-86-34.5q-50 0-85.5 35t-35.5 84q0 51 35.5 86t85.5 35z"/><glyph glyph-name="cdotaccent" unicode="ċ" horiz-adv-x="1034" d="M627 1063q169 0 301-80V809Q801 909 645 909q-163 0-259.5-111.5T289 518t96.5-279.5T645 127q156 0 283 100V53Q796-27 627-27q-226 0-369 153.5T115 518t143 391.5T627 1063zm-6 410q51 0 85.5-35t34.5-86q0-50-34.5-84.5T621 1233q-50 0-85.5 35t-35.5 84q0 51 35.5 86t85.5 35z"/><glyph glyph-name="Ccaron" unicode="Č" horiz-adv-x="1392" d="M872 1450q214 0 377-98v-178q-159 114-368 114-121 0-227.5-38.5t-187-110-127-181.5T293 713q0-133 46.5-243t127-182.5 187-111.5T881 137q207 0 368 115V74q-165-99-377-99-154 0-291.5 50.5T339 168 174 401.5 113 713t61 311 165 233 241.5 142.5T872 1450zm328 461l-264-295H768l-272 295h194l162-180 154 180h194z"/><glyph glyph-name="ccaron" unicode="č" horiz-adv-x="1034" d="M627 1063q169 0 301-80V809Q801 909 645 909q-163 0-259.5-111.5T289 518t96.5-279.5T645 127q156 0 283 100V53Q796-27 627-27q-226 0-369 153.5T115 518t143 391.5T627 1063zm344 481l-264-295H539l-273 295h195l162-180 153 180h195z"/><glyph glyph-name="Dcaron" unicode="Ď" horiz-adv-x="1507" d="M205 1421h479q108 0 211-29.5t194-89 159-143 107.5-199T1395 711q0-166-60.5-303.5t-161-225-227-135T684 0H205v1421zm475-166H385V166h295q79 0 155 22t144.5 67.5 120 109 82 153T1212 711t-30.5 193.5-82 153-120 108.5-144.5 67-155 22zm356 656l-264-295H604l-272 295h194l162-180 154 180h194z"/><glyph glyph-name="dcaron" unicode="ď" horiz-adv-x="1452" d="M1067 1544V0H958l-65 119Q844 51 760 12T584-27q-214 0-342.5 149T113 516q0 244 128 395.5T584 1063q90 0 176-38t129-103h6v622h172zM594 909q-145 0-224-111.5T291 518q0-109 32.5-196.5t102.5-142T594 125q100 0 171 54.5T868.5 321 901 518q0 168-79.5 279.5T594 909zm981 635l-277-295h-110l151 295h236z"/><glyph glyph-name="Dcroat" unicode="Đ" horiz-adv-x="1519" d="M217 1421h479q108 0 211-29.5t194-89 159-143 107.5-199T1407 711q0-166-60.5-303.5t-161-225-227-135T696 0H217v633H61v158h156v630zm475-166H397V791h383V633H397V166h295q99 0 193 35.5t170.5 102 123 172.5 46.5 235-46.5 235-123 172T885 1219.5 692 1255z"/><glyph glyph-name="dcroat" unicode="đ" horiz-adv-x="1230" d="M1067 1544v-151h264v-142h-264V0H958l-65 119Q844 51 760 12T584-27q-214 0-342.5 149T113 516q0 244 128 395.5T584 1063q90 0 176-38t129-103h6v329H631v142h264v151h172zM594 909q-145 0-224-111.5T291 518q0-109 32.5-196.5t102.5-142T594 125q100 0 171 54.5T868.5 321 901 518q0 168-79.5 279.5T594 909z"/><glyph glyph-name="Emacron" unicode="Ē" horiz-adv-x="1075" d="M952 1421v-166H385V829h512V664H385V166h567V0H205v1421h747zm-6 367v-141H246v141h700z"/><glyph glyph-name="emacron" unicode="ē" horiz-adv-x="1181" d="M596 1063q223 0 353-152t130-393q0-35-2-51H285q5-75 23.5-135.5t54-110 94.5-77T594 117q219 0 285 198h174q-45-163-163-252.5T596-27q-226 0-354.5 146T113 518q0 241 130 393t353 152zm-2-145q-70 0-125.5-25t-91-69-57-96.5T289 612h614q-19 135-94 220.5T594 918zm332 503v-141H225v141h701z"/><glyph glyph-name="Edotaccent" unicode="Ė" horiz-adv-x="1075" d="M952 1421v-166H385V829h512V664H385V166h567V0H205v1421h747zm-354 418q51 0 86-35t35-86q0-50-35-84.5t-86-34.5q-50 0-85.5 35t-35.5 84q0 51 35.5 86t85.5 35z"/><glyph glyph-name="edotaccent" unicode="ė" horiz-adv-x="1181" d="M596 1063q223 0 353-152t130-393q0-35-2-51H285q5-75 23.5-135.5t54-110 94.5-77T594 117q219 0 285 198h174q-45-163-163-252.5T596-27q-226 0-354.5 146T113 518q0 241 130 393t353 152zm-2-145q-70 0-125.5-25t-91-69-57-96.5T289 612h614q-19 135-94 220.5T594 918zm-16 555q51 0 85.5-35t34.5-86q0-50-34.5-84.5T578 1233q-50 0-85.5 35t-35.5 84q0 51 35.5 86t85.5 35z"/><glyph glyph-name="Eogonek" unicode="Ę" horiz-adv-x="1075" d="M952 1421v-166H385V829h512V664H385V166h567V0H205v1421h747zM723 18h61q-10-42-10-71 0-71 35-106.5t96-35.5q21 0 56 7v-99q-55-20-107-20-80 0-131 43t-51 129q0 87 51 153z"/><glyph glyph-name="eogonek" unicode="ę" horiz-adv-x="1181" d="M596 1063q223 0 353-152t130-393q0-35-2-51H285q5-75 23.5-135.5t54-110 94.5-77T594 117q219 0 285 198h174q-45-163-163-252.5T596-27q-226 0-354.5 146T113 518q0 241 130 393t353 152zm-2-145q-70 0-125.5-25t-91-69-57-96.5T289 612h614q-19 135-94 220.5T594 918zM555 18h61q-10-42-10-71 0-71 35-106.5t96-35.5q21 0 56 7v-99q-55-20-107-20-80 0-131 43t-51 129q0 87 51 153z"/><glyph glyph-name="Ecaron" unicode="Ě" horiz-adv-x="1075" d="M952 1421v-166H385V829h512V664H385V166h567V0H205v1421h747zm-4 490l-264-295H516l-272 295h194l162-180 154 180h194z"/><glyph glyph-name="ecaron" unicode="ě" horiz-adv-x="1181" d="M596 1063q223 0 353-152t130-393q0-35-2-51H285q5-75 23.5-135.5t54-110 94.5-77T594 117q219 0 285 198h174q-45-163-163-252.5T596-27q-226 0-354.5 146T113 518q0 241 130 393t353 152zm-2-145q-70 0-125.5-25t-91-69-57-96.5T289 612h614q-19 135-94 220.5T594 918zm334 626l-264-295H496l-273 295h195l162-180 153 180h195z"/><glyph glyph-name="Gbreve" unicode="Ğ" horiz-adv-x="1558" d="M872 1450q273 0 474-129v-193q-93 77-215 118.5T881 1288q-121 0-227.5-38.5t-187-110-127-181.5T293 713q0-133 45.5-242.5T463 289t183-111 224-41q95 2 193 30t174 79v334H954v155h455V160l-23-19q-101-81-238.5-124.5T872-27q-154 0-291.5 50.5T339 167 174 401.5 113 713t61 311 165 233 241.5 142.5T872 1450zm220 436h120q-16-129-100.5-200.5T872 1614t-239.5 71.5T532 1886h121q20-71 79.5-103t139.5-32 140 32 80 103z"/><glyph glyph-name="gbreve" unicode="ğ" horiz-adv-x="1161" d="M530 1063q53 0 160-13.5t170-13.5h230V889H893q63-94 63-219 0-174-117.5-284T530 276q-96 0-178 31-27-18-44-45.5T291 205q0-24 9.5-42t21-28.5 35-19.5 36.5-12 41-9q18-4 179-31T834 6q149-74 149-242 0-146-117.5-222.5T555-535q-232 0-426 93v161q216-110 426-110 115 0 186.5 38T813-236q0 64-38.5 93T662-98q-41 10-156 27.5T334-37Q152 15 152 166q0 54 26 105.5t76 88.5q-71 53-109.5 133T106 670q0 174 116.5 283.5T530 1063zm0-141q-113 0-186.5-70T270 670t73.5-182T530 418t187 70 74 182-74 182-187 70zm215 598h121q-16-129-100.5-201T526 1247t-239.5 72T186 1520h121q20-71 79.5-103.5T526 1384t139.5 32.5T745 1520z"/><glyph glyph-name="Gdotaccent" unicode="Ġ" horiz-adv-x="1558" d="M872 1450q273 0 474-129v-193q-93 77-215 118.5T881 1288q-121 0-227.5-38.5t-187-110-127-181.5T293 713q0-133 45.5-242.5T463 289t183-111 224-41q95 2 193 30t174 79v334H954v155h455V160l-23-19q-101-81-238.5-124.5T872-27q-154 0-291.5 50.5T339 167 174 401.5 113 713t61 311 165 233 241.5 142.5T872 1450zm2 389q51 0 86-35t35-86q0-50-35-84.5t-86-34.5q-50 0-85 35t-35 84q0 51 35 86t85 35z"/><glyph glyph-name="gdotaccent" unicode="ġ" horiz-adv-x="1161" d="M530 1063q53 0 160-13.5t170-13.5h230V889H893q63-94 63-219 0-174-117.5-284T530 276q-96 0-178 31-27-18-44-45.5T291 205q0-24 9.5-42t21-28.5 35-19.5 36.5-12 41-9q18-4 179-31T834 6q149-74 149-242 0-146-117.5-222.5T555-535q-232 0-426 93v161q216-110 426-110 115 0 186.5 38T813-236q0 64-38.5 93T662-98q-41 10-156 27.5T334-37Q152 15 152 166q0 54 26 105.5t76 88.5q-71 53-109.5 133T106 670q0 174 116.5 283.5T530 1063zm0-141q-113 0-186.5-70T270 670t73.5-182T530 418t187 70 74 182-74 182-187 70zm-2 551q51 0 86-35t35-86q0-50-35-84.5t-86-34.5q-50 0-85 35t-35 84q0 51 35 86t85 35z"/><glyph glyph-name="Gcommaaccent" unicode="Ģ" horiz-adv-x="1558" d="M872 1450q273 0 474-129v-193q-93 77-215 118.5T881 1288q-121 0-227.5-38.5t-187-110-127-181.5T293 713q0-133 45.5-242.5T463 289t183-111 224-41q95 2 193 30t174 79v334H954v155h455V160l-23-19q-101-81-238.5-124.5T872-27q-154 0-291.5 50.5T339 167 174 401.5 113 713t61 311 165 233 241.5 142.5T872 1450zm132-1663L727-508H616l152 295h236z"/><glyph glyph-name="gcommaaccent" unicode="ģ" horiz-adv-x="1128" d="M530 1063q53 0 160-13.5t170-13.5h230V889H893q63-94 63-219 0-174-117.5-284T530 276q-96 0-178 31-27-18-44-45.5T291 205q0-24 9.5-42t21-28.5 35-19.5 36.5-12 41-9q18-4 179-31T834 6q149-74 149-242 0-146-117.5-222.5T555-535q-232 0-426 93v161q216-110 426-110 115 0 186.5 38T813-236q0 64-38.5 93T662-98q-41 10-156 27.5T334-37Q152 15 152 166q0 54 26 105.5t76 88.5q-71 53-109.5 133T106 670q0 174 116.5 283.5T530 1063zm0-141q-113 0-186.5-70T270 670t73.5-182T530 418t187 70 74 182-74 182-187 70zm320 622l-152-295H463l276 295h111z"/><glyph glyph-name="Hbar" unicode="Ħ" horiz-adv-x="1593" d="M1389 1421v-180h198v-151h-198V0h-183v664H387V0H205v1090H0v151h205v180h182v-180h819v180h183zm-183-331H387V829h819v261z"/><glyph glyph-name="hbar" unicode="ħ" horiz-adv-x="1210" d="M356 1544v-153h324v-142H356V895q49 82 133 125t177 43q178 0 279.5-101T1047 682V0H872v657q0 252-217 252-148 0-227.5-111.5T348 518V0H182v1249H-20v142h202v153h174z"/><glyph glyph-name="Imacron" unicode="Ī" horiz-adv-x="593" d="M389 1421V0H205v1421h184zm262 367v-141H-49v141h700z"/><glyph glyph-name="imacron" unicode="ī" horiz-adv-x="534" d="M354 1036V0H180v1036h174zm262 385v-141H-84v141h700z"/><glyph glyph-name="Iogonek" unicode="Į" horiz-adv-x="593" d="M389 1421V0H205v1421h184zM268 18h62q-11-46-11-71 0-71 35.5-106.5T451-195q20 0 55 7v-99q-55-20-107-20-80 0-131 43t-51 129q0 87 51 153z"/><glyph glyph-name="iogonek" unicode="į" horiz-adv-x="534" d="M354 1036V0H180v1036h174zm-86 437q51 0 86-35t35-86q0-50-35-84.5t-86-34.5q-50 0-85.5 35t-35.5 84q0 51 35.5 86t85.5 35zM227 18h62q-10-42-10-71 0-71 35-106.5t96-35.5q20 0 55 7v-99q-55-20-107-20-80 0-131 43t-51 129q0 87 51 153z"/><glyph glyph-name="Idotaccent" unicode="İ" horiz-adv-x="593" d="M389 1421V0H205v1421h184zm-86 418q51 0 86-35t35-86q0-50-35-84.5t-86-34.5q-50 0-85.5 35t-35.5 84q0 51 35.5 86t85.5 35z"/><glyph glyph-name="dotlessi" unicode="ı" horiz-adv-x="534" d="M354 1036V0H180v1036h174z"/><glyph glyph-name="IJ" unicode="Ĳ" horiz-adv-x="1282" d="M389 1421V0H205v1421h184zm709 0V274q0-139-83-220T801-27q-81 0-146 23v160q82-19 119-19 65 0 102 38t37 112v1134h185z"/><glyph glyph-name="ij" unicode="ĳ" horiz-adv-x="1122" d="M360 1036V0H186v1036h174zm7 385v-172H180v172h187zm577-385V-248q0-131-78-207.5T664-532q-62 0-117 16v147q49-12 92-12 131 0 131 139v1278h174zm4 385v-172H760v172h188z"/><glyph glyph-name="Kcommaaccent" unicode="Ķ" horiz-adv-x="1263" d="M1223 1421L596 711 1223 0H989L393 688h-6V0H205v1421h182V733h6l596 688h234zM805-213L528-508H418l151 295h236z"/><glyph glyph-name="kcommaaccent" unicode="ķ" horiz-adv-x="1093" d="M358 1544V537l453 499h221L567 524 1053 0H819L358 500V0H184v1544h174zM692-213L416-508H305l152 295h235z"/><glyph glyph-name="Lacute" unicode="Ĺ" horiz-adv-x="993" d="M385 1421V166h567V0H205v1421h180zm250 490l-277-295H248l151 295h236z"/><glyph glyph-name="lacute" unicode="ĺ" horiz-adv-x="542" d="M358 1544V0H184v1544h174zm250 490l-276-295H221l152 295h235z"/><glyph glyph-name="Lcommaaccent" unicode="Ļ" horiz-adv-x="993" d="M385 1421V166h567V0H205v1421h180zM719-213L442-508H332l151 295h236z"/><glyph glyph-name="lcommaaccent" unicode="ļ" horiz-adv-x="542" d="M358 1544V0H184v1544h174zm41-1757L123-508H12l152 295h235z"/><glyph glyph-name="Lcaron" unicode="Ľ" horiz-adv-x="1050" d="M385 1421V166h567V0H205v1421h180zm625 123l-277-295H623l151 295h236z"/><glyph glyph-name="lcaron" unicode="ľ" horiz-adv-x="860" d="M358 1544V0H184v1544h174zm543 0l-276-295H514l152 295h235z"/><glyph glyph-name="Ldot" unicode="Ŀ" horiz-adv-x="993" d="M778 891q50 0 85.5-35t35.5-86q0-49-35.5-84T778 651q-51 0-86 34.5T657 770q0 51 35 86t86 35zm-393 530V166h567V0H205v1421h180z"/><glyph glyph-name="ldot" unicode="ŀ" horiz-adv-x="733" d="M365 1544V0H190v1544h175zm268-633q51 0 86-34.5t35-85.5q0-50-35-84.5T633 672q-50 0-85.5 35T512 791q0 51 35.5 85.5T633 911z"/><glyph glyph-name="Lslash" unicode="Ł" horiz-adv-x="991" d="M383 1421V868l262 197V879L383 682V166h567V0H203v545L41 424v186l162 121v690h180z"/><glyph glyph-name="lslash" unicode="ł" horiz-adv-x="657" d="M416 1544V913l180 144V881L416 737V0H242v598L61 455v176l181 143v770h174z"/><glyph glyph-name="Nacute" unicode="Ń" horiz-adv-x="1675" d="M377 1434l915-1174v1161h178V-12h-180L383 1151V0H205v1434h172zm811 477l-277-295H801l151 295h236z"/><glyph glyph-name="nacute" unicode="ń" horiz-adv-x="1218" d="M664 1063q179 0 279.5-104T1044 662V0H870v637q0 124-54 198t-163 74q-100 0-170.5-54.5T380 713.5 348 518V0H174v1036h125l72-131q50 80 128.5 119t164.5 39zm327 481l-276-295H604l152 295h235z"/><glyph glyph-name="Ncommaaccent" unicode="Ņ" horiz-adv-x="1675" d="M377 1434l915-1174v1161h178V-12h-180L383 1151V0H205v1434h172zM936-213L659-508H549l151 295h236z"/><glyph glyph-name="ncommaaccent" unicode="ņ" horiz-adv-x="1218" d="M664 1063q179 0 279.5-104T1044 662V0H870v637q0 124-54 198t-163 74q-100 0-170.5-54.5T380 713.5 348 518V0H174v1036h125l72-131q50 80 128.5 119t164.5 39zm63-1276L451-508H340l152 295h235z"/><glyph glyph-name="Ncaron" unicode="Ň" horiz-adv-x="1675" d="M377 1434l915-1174v1161h178V-12h-180L383 1151V0H205v1434h172zm825 477l-264-295H770l-272 295h194l162-180 154 180h194z"/><glyph glyph-name="ncaron" unicode="ň" horiz-adv-x="1218" d="M664 1063q179 0 279.5-104T1044 662V0H870v637q0 124-54 198t-163 74q-100 0-170.5-54.5T380 713.5 348 518V0H174v1036h125l72-131q50 80 128.5 119t164.5 39zm342 481l-265-295H573l-272 295h195l161-180 154 180h195z"/><glyph glyph-name="Eng" unicode="Ŋ" horiz-adv-x="1675" d="M377 1434l915-1174v1161h178V-240q0-136-80-214t-208-78q-80 0-142 22v154q91-17 117-17 62 0 98.5 36.5T1292-227v213L383 1151V0H205v1434h172z"/><glyph glyph-name="eng" unicode="ŋ" d="M674 1063q179 0 280-104t101-297v-908q0-131-78.5-207.5T774-530q-62 0-117 16v147q49-12 93-12 131 0 131 143v873q0 124-54 198t-163 74q-148 0-227-111.5T358 518V0H184v1036h133l64-131q50 80 128.5 119t164.5 39z"/><glyph glyph-name="Omacron" unicode="Ō" horiz-adv-x="1703" d="M852 1450q113 0 220-30.5t201-92.5 165-149 112-207.5 41-259.5q0-138-41-258.5t-112-207-165-149-201-93T852-27 632 3.5t-201 93-165 149-112 207T113 711q0 139 41 259.5T266 1178t165 149 201 92.5 220 30.5zm0-164q-83 0-163-23t-152-70.5T411 1078t-86-162-32-205 32-204 86-161 126-115 152-71 163-23 163 23 152 71 126 115 86 161 32 204-32 205-86 162-126 114.5-152 70.5-163 23zm350 502v-141H502v141h700z"/><glyph glyph-name="omacron" unicode="ō" horiz-adv-x="1245" d="M623 1063q226 0 370-154t144-391-144-391T623-27 253 127 109 518t144 391 370 154zm0-154q-107 0-185.5-56T322 709.5 285 516t37-193 115.5-142.5T623 125q108 0 186.5 55.5t115 142.5T961 516q0 107-36.5 194t-115 143T623 909zm350 512v-141H272v141h701z"/><glyph glyph-name="Ohungarumlaut" unicode="Ő" horiz-adv-x="1703" d="M852 1450q113 0 220-30.5t201-92.5 165-149 112-207.5 41-259.5q0-138-41-258.5t-112-207-165-149-201-93T852-27 632 3.5t-201 93-165 149-112 207T113 711q0 139 41 259.5T266 1178t165 149 201 92.5 220 30.5zm0-164q-83 0-163-23t-152-70.5T411 1078t-86-162-32-205 32-204 86-161 126-115 152-71 163-23 163 23 152 71 126 115 86 161 32 204-32 205-86 162-126 114.5-152 70.5-163 23zm512 625l-277-295H977l151 295h236zm-340 0l-276-295H637l151 295h236z"/><glyph glyph-name="ohungarumlaut" unicode="ő" horiz-adv-x="1245" d="M623 1063q226 0 370-154t144-391-144-391T623-27 253 127 109 518t144 391 370 154zm0-154q-107 0-185.5-56T322 709.5 285 516t37-193 115.5-142.5T623 125q108 0 186.5 55.5t115 142.5T961 516q0 107-36.5 194t-115 143T623 909zm512 635l-277-295H748l151 295h236zm-340 0l-277-295H408l151 295h236z"/><glyph glyph-name="OE" unicode="Œ" horiz-adv-x="1867" d="M852 1450q101 0 211-29h682v-166h-567V829h512V664h-512V166h567V0h-686Q957-27 852-27 739-27 632 3.5t-201 93T266 246 154 453.5 113 713q0 138 41 258.5t112 207T431 1327t201 92.5 220 30.5zm0-164q-105 0-203.5-37.5t-178.5-107-128.5-181T293 713q0-137 48.5-249T470 282t178.5-107.5T852 137q71 0 145 19v1112q-70 18-145 18z"/><glyph glyph-name="oe" unicode="œ" horiz-adv-x="2037" d="M1452 1063q223 0 353-152t130-393q0-35-2-51h-792q5-75 23.5-135.5t54-110 94.5-77 137-27.5q221 0 287 202h174q-45-164-163.5-255T1452-27q-138 0-241 56t-164 161Q978 87 870 30T627-27q-226 0-370 154T113 518t144 391 370 154q136 0 245.5-58.5T1049 842q63 105 165.5 163t237.5 58zM625 909q-67 0-123.5-22.5t-95-60.5-65.5-88.5-39.5-106T289 518q0-75 20.5-143.5t60.5-125T476 159t149-34q85 0 152 34t107 90.5 60.5 125T965 518q0 74-20.5 142T884 784.5 777 875t-152 34zm825 9q-70 0-125.5-25t-91-69-57-96.5T1145 612h614q-19 135-94 220.5T1450 918z"/><glyph glyph-name="Racute" unicode="Ŕ" horiz-adv-x="1191" d="M205 1421h436q114 0 208.5-45t154-138 59.5-218q0-94-34.5-171t-93-127T801 645t-160-27L1161 0H936L430 618h-47V0H205v1421zm426-164H383V782h248q105 0 177.5 63t72.5 175-72 174.5-178 62.5zm276 654l-276-295H520l152 295h235z"/><glyph glyph-name="racute" unicode="ŕ" horiz-adv-x="755" d="M641 1059q40 0 74-10V868q-55 19-111 19-109 0-178.5-88.5T356 522V0H184v1042h107l82-149q31 60 77.5 98.5t93 53T641 1059zm111 485l-277-295H365l151 295h236z"/><glyph glyph-name="Rcommaaccent" unicode="Ŗ" horiz-adv-x="1191" d="M205 1421h436q114 0 208.5-45t154-138 59.5-218q0-94-34.5-171t-93-127T801 645t-160-27L1161 0H936L430 618h-47V0H205v1421zm426-164H383V782h248q105 0 177.5 63t72.5 175-72 174.5-178 62.5zM754-213L477-508H367l151 295h236z"/><glyph glyph-name="rcommaaccent" unicode="ŗ" horiz-adv-x="755" d="M641 1059q40 0 74-10V868q-55 19-111 19-109 0-178.5-88.5T356 522V0H184v1042h107l82-149q31 60 77.5 98.5t93 53T641 1059zM391-213L115-508H4l152 295h235z"/><glyph glyph-name="Rcaron" unicode="Ř" horiz-adv-x="1191" d="M205 1421h436q114 0 208.5-45t154-138 59.5-218q0-94-34.5-171t-93-127T801 645t-160-27L1161 0H936L430 618h-47V0H205v1421zm426-164H383V782h248q105 0 177.5 63t72.5 175-72 174.5-178 62.5zm291 654l-265-295H489l-272 295h195l161-180 154 180h195z"/><glyph glyph-name="rcaron" unicode="ř" horiz-adv-x="755" d="M641 1059q40 0 74-10V868q-55 19-111 19-109 0-178.5-88.5T356 522V0H184v1042h107l82-149q31 60 77.5 98.5t93 53T641 1059zm125 485l-264-295H334L61 1544h195l162-180 153 180h195z"/><glyph glyph-name="Sacute" unicode="Ś" horiz-adv-x="1081" d="M545 1444q193 0 360-115v-180q-188 139-360 139-107 0-179.5-57T293 1071q0-49 12.5-86.5T338 921t61-50.5 80-41T586 788q58-21 96.5-38t87-43.5 79.5-57 59.5-71.5 42.5-95.5T965 362q-3-177-133.5-282T514-25Q413-25 311 6.5T125 96v193q83-71 187-111.5T514 137q117 0 195 59.5T788 360q0 40-8 71.5t-26 57-38.5 44.5-58 38-71.5 33-90 35q-49 18-83.5 32t-77 36.5-71.5 45-59 55-48 69.5-29 86.5-11 107.5q0 90 36 163t97 118 136.5 68.5T545 1444zm338 461l-277-295H496l151 295h236z"/><glyph glyph-name="sacute" unicode="ś" horiz-adv-x="913" d="M451 1063q164 0 307-86V819q-84 51-155.5 76T451 920q-84 0-131.5-39T272 774q0-29 5.5-51t20.5-40 28.5-29.5T370 629t50.5-20 62.5-21q129-42 181-71 143-81 143-234 0-138-101.5-223T442-25q-181 0-323 88v162q70-45 157.5-74.5T442 121q82 0 140.5 43T641 279q0 25-6.5 45t-23 36-31 27-43.5 22-47 17.5-55.5 17.5-55.5 17q-49 16-80.5 29t-72 39-64 57-40 81T106 780q0 131 99 207t246 76zm331 481l-276-295H395l152 295h235z"/><glyph glyph-name="Scedilla" unicode="Ş" horiz-adv-x="1081" d="M545 1444q193 0 360-115v-180q-188 139-360 139-107 0-179.5-57T293 1071q0-49 12.5-86.5T338 921t61-50.5 80-41T586 788q58-21 96.5-38t87-43.5 79.5-57 59.5-71.5 42.5-95.5T965 362q-3-177-133.5-282T514-25Q413-25 311 6.5T125 96v193q83-71 187-111.5T514 137q117 0 195 59.5T788 360q0 40-8 71.5t-26 57-38.5 44.5-58 38-71.5 33-90 35q-49 18-83.5 32t-77 36.5-71.5 45-59 55-48 69.5-29 86.5-11 107.5q0 90 36 163t97 118 136.5 68.5T545 1444zM590 12l-60-73q4 0 11.5 1t11.5 1q55 0 94-32t39-85q0-67-56-107.5T496-324q-85 0-152 37l35 68q8-3 22-8t20.5-7 17-5 20.5-4 22-1q72 0 72 58 0 45-55 45-22 0-66-11l-35 39 95 125h98z"/><glyph glyph-name="scedilla" unicode="ş" horiz-adv-x="913" d="M451 1063q164 0 307-86V819q-84 51-155.5 76T451 920q-84 0-131.5-39T272 774q0-29 5.5-51t20.5-40 28.5-29.5T370 629t50.5-20 62.5-21q129-42 181-71 143-81 143-234 0-138-101.5-223T442-25q-181 0-323 88v162q70-45 157.5-74.5T442 121q82 0 140.5 43T641 279q0 25-6.5 45t-23 36-31 27-43.5 22-47 17.5-55.5 17.5-55.5 17q-49 16-80.5 29t-72 39-64 57-40 81T106 780q0 131 99 207t246 76zM504 6l-60-74q4 0 11.5 1t11.5 1q55 0 94-31.5t39-84.5q0-67-56-107.5T410-330q-85 0-152 37l35 68q8-3 22-8t20.5-7 17-5 20.5-4 22-1q72 0 72 57 0 46-55 46-22 0-66-11l-35 39L406 6h98z"/><glyph glyph-name="Scaron" unicode="Š" horiz-adv-x="1081" d="M545 1444q193 0 360-115v-180q-188 139-360 139-107 0-179.5-57T293 1071q0-49 12.5-86.5T338 921t61-50.5 80-41T586 788q58-21 96.5-38t87-43.5 79.5-57 59.5-71.5 42.5-95.5T965 362q-3-177-133.5-282T514-25Q413-25 311 6.5T125 96v193q83-71 187-111.5T514 137q117 0 195 59.5T788 360q0 40-8 71.5t-26 57-38.5 44.5-58 38-71.5 33-90 35q-49 18-83.5 32t-77 36.5-71.5 45-59 55-48 69.5-29 86.5-11 107.5q0 90 36 163t97 118 136.5 68.5T545 1444zm352 461l-264-295H465l-272 295h194l162-181 153 181h195z"/><glyph glyph-name="scaron" unicode="š" horiz-adv-x="913" d="M451 1063q164 0 307-86V819q-84 51-155.5 76T451 920q-84 0-131.5-39T272 774q0-29 5.5-51t20.5-40 28.5-29.5T370 629t50.5-20 62.5-21q129-42 181-71 143-81 143-234 0-138-101.5-223T442-25q-181 0-323 88v162q70-45 157.5-74.5T442 121q82 0 140.5 43T641 279q0 25-6.5 45t-23 36-31 27-43.5 22-47 17.5-55.5 17.5-55.5 17q-49 16-80.5 29t-72 39-64 57-40 81T106 780q0 131 99 207t246 76zm346 481l-265-295H365L92 1544h195l162-180 153 180h195z"/><glyph glyph-name="Tcedilla" unicode="Ţ" horiz-adv-x="1011" d="M971 1421v-166H598V0H414v1255H41v166h930zM561 6l-59-74q4 0 11 1t11 1q55 0 94-31.5t39-84.5q0-67-56-107.5T467-330q-85 0-152 37l35 68q8-3 22-8t20.5-7 17.5-5 21-4 22-1q71 0 71 57 0 46-55 46-22 0-66-11l-34 39L463 6h98z"/><glyph glyph-name="tcedilla" unicode="ţ" horiz-adv-x="745" d="M379 1288v-252h274V891H379V281q0-156 147-156 77 0 158 31V4q-82-31-174-31-97 0-164 37-69 37-102 107t-33 151v623H51v143h74q40 0 68 28t28 68v158h158zM516 6l-59-74q4 0 11 1t11 1q55 0 94-31.5t39-84.5q0-67-56-107.5T422-330q-85 0-152 37l35 68q8-3 22-8t20.5-7 17.5-5 21-4 22-1q71 0 71 57 0 46-55 46-22 0-66-11l-34 39L418 6h98z"/><glyph glyph-name="Tcaron" unicode="Ť" horiz-adv-x="1011" d="M971 1421v-166H598V0H414v1255H41v166h930zm-117 490l-264-295H422l-272 295h194l162-180 153 180h195z"/><glyph glyph-name="tcaron" unicode="ť" horiz-adv-x="741" d="M375 1288v-252h274V887H375V303q0-156 151-156 37 0 75.5 5.5T660 163l20 5V18q-84-30-182-30-80 0-140 26t-93 70-48.5 94T201 283v604H41v149h74q40 0 68 28.5t28 68.5v155h164zm608 256l-276-295H596l152 295h235z"/><glyph glyph-name="Tbar" unicode="Ŧ" horiz-adv-x="1011" d="M971 1421v-166H598V788h266V633H598V0H414v633H145v155h269v467H41v166h930z"/><glyph glyph-name="tbar" unicode="ŧ" horiz-adv-x="761" d="M379 1288v-252h274V891H379V670h274V530H379V281q0-156 147-156 77 0 158 31V4q-82-31-174-31-97 0-164 37-69 37-102 107t-33 151v262H51v140h160v221H51v143h74q40 0 68 28t28 68v158h158z"/><glyph glyph-name="Umacron" unicode="Ū" horiz-adv-x="1499" d="M1305 1421V526q0-160-74.5-288t-201-197.5T750-29 470.5 40.5 269.5 238 195 526v895h182V514q0-167 107-270t266-103 265.5 103T1122 514l2 907h181zm-209 367v-141H395v141h701z"/><glyph glyph-name="umacron" unicode="ū" horiz-adv-x="1173" d="M1010 1036l-2-641q0-182-122.5-302T586-27 286.5 93 164 395v641h172V383q0-108 72.5-180T586 131t178.5 72T838 383v653h172zm-68 385v-141H242v141h700z"/><glyph glyph-name="Uring" unicode="Ů" horiz-adv-x="1499" d="M1305 1421V526q0-160-74.5-288t-201-197.5T750-29 470.5 40.5 269.5 238 195 526v895h182V514q0-167 107-270t266-103 265.5 103T1122 514l2 907h181zm-560 559q86 0 147.5-61.5T954 1772t-61.5-147-147.5-62q-85 0-146.5 62T537 1772t61.5 146.5T745 1980zm0-106q-43 0-72.5-29.5T643 1772t29.5-73 72.5-30 73 30 30 73-30 72.5-73 29.5z"/><glyph glyph-name="uring" unicode="ů" horiz-adv-x="1173" d="M1010 1036l-2-641q0-182-122.5-302T586-27 286.5 93 164 395v641h172V383q0-108 72.5-180T586 131t178.5 72T838 383v653h172zm-418 578q86 0 147.5-62t61.5-147-61.5-147-147.5-62q-85 0-147 62t-62 147 62 147 147 62zm0-107q-43 0-73-29.5t-30-72.5 30-72.5 73-29.5 72.5 29.5T694 1405t-29.5 72.5T592 1507z"/><glyph glyph-name="Uhungarumlaut" unicode="Ű" horiz-adv-x="1499" d="M1305 1421V526q0-160-74.5-288t-201-197.5T750-29 470.5 40.5 269.5 238 195 526v895h182V514q0-167 107-270t266-103 265.5 103T1122 514l2 907h181zm-48 490l-276-295H870l152 295h235zm-339 0l-277-295H530l152 295h236z"/><glyph glyph-name="uhungarumlaut" unicode="ű" horiz-adv-x="1173" d="M1010 1036l-2-641q0-182-122.5-302T586-27 286.5 93 164 395v641h172V383q0-108 72.5-180T586 131t178.5 72T838 383v653h172zm94 508l-277-295H717l151 295h236zm-340 0l-277-295H377l151 295h236z"/><glyph glyph-name="Uogonek" unicode="Ų" horiz-adv-x="1499" d="M1305 1421V526q0-160-74.5-288t-201-197.5T750-29 470.5 40.5 269.5 238 195 526v895h182V514q0-167 107-270t266-103 265.5 103T1122 514l2 907h181zM737 18h62q-11-46-11-71 0-71 35.5-106.5T920-195q20 0 55 7v-99q-55-20-107-20-80 0-131 43t-51 129q0 87 51 153z"/><glyph glyph-name="uogonek" unicode="ų" horiz-adv-x="1173" d="M1010 1036l-2-641q0-182-122.5-302T586-27 286.5 93 164 395v641h172V383q0-108 72.5-180T586 131t178.5 72T838 383v653h172zM553 18h61q-10-42-10-71 0-71 35-106.5t96-35.5q21 0 56 7v-99q-55-20-107-20-80 0-131 43t-51 129q0 87 51 153z"/><glyph glyph-name="Wcircumflex" unicode="Ŵ" horiz-adv-x="2301" d="M2255 1421L1788 0h-238l-399 1171L752 0H514L47 1421h203L633 184l434 1237h168l434-1237 383 1237h203zm-1018 490l264-295h-194l-154 180-162-180H797l272 295h168z"/><glyph glyph-name="wcircumflex" unicode="ŵ" horiz-adv-x="1904" d="M1864 1036L1434-25h-119L952 831 590-25H471L41 1036h180l311-784 332 784h176l332-784 311 784h181zm-824 508l265-295h-195l-154 181-161-181H600l272 295h168z"/><glyph glyph-name="Ycircumflex" unicode="Ŷ" horiz-adv-x="1249" d="M1225 1421L715 637V0H530v637L20 1421h218l385-594 385 594h217zm-514 490l264-295H780l-153 180-162-180H270l273 295h168z"/><glyph glyph-name="ycircumflex" unicode="ŷ" horiz-adv-x="1071" d="M1051 1036L395-508H219L453 43 31 1036h176l334-786 333 786h177zm-426 508l264-295H694l-153 181-162-181H184l273 295h168z"/><glyph glyph-name="Ydieresis" unicode="Ÿ" horiz-adv-x="1249" d="M1225 1421L715 637V0H530v637L20 1421h218l385-594 385 594h217zm-404 432q51 0 86-34.5t35-85.5q0-50-35-84.5t-86-34.5q-50 0-85.5 35t-35.5 84q0 51 35.5 85.5T821 1853zm-395 0q50 0 85.5-34.5T547 1733q0-49-35.5-84t-85.5-35q-51 0-86 34.5t-35 84.5q0 51 35 85.5t86 34.5z"/><glyph glyph-name="Zacute" unicode="Ź" horiz-adv-x="1167" d="M1053 1421v-147L332 166h723V0H113v147l718 1108H113v166h940zm-148 490l-276-295H518l152 295h235z"/><glyph glyph-name="zacute" unicode="ź" horiz-adv-x="991" d="M879 1036V903L319 145h555V0H113v133l559 758H117v145h762zm-56 508l-276-295H436l152 295h235z"/><glyph glyph-name="Zdotaccent" unicode="Ż" horiz-adv-x="1167" d="M1053 1421v-147L332 166h723V0H113v147l718 1108H113v166h940zm-484 418q51 0 86-35t35-86q0-50-35-84.5t-86-34.5q-50 0-85 35t-35 84q0 51 35 86t85 35z"/><glyph glyph-name="zdotaccent" unicode="ż" horiz-adv-x="991" d="M879 1036V903L319 145h555V0H113v133l559 758H117v145h762zm-392 437q51 0 86-35t35-86q0-50-35-84.5t-86-34.5q-50 0-85 35t-35 84q0 51 35 86t85 35z"/><glyph glyph-name="Zcaron" unicode="Ž" horiz-adv-x="1167" d="M1053 1421v-147L332 166h723V0H113v147l718 1108H113v166h940zm-133 490l-265-295H487l-272 295h195l161-180 154 180h195z"/><glyph glyph-name="zcaron" unicode="ž" horiz-adv-x="991" d="M879 1036V903L319 145h555V0H113v133l559 758H117v145h762zm-41 508l-265-295H406l-273 295h195l161-180 154 180h195z"/><glyph glyph-name="Scommaaccent" unicode="Ș" horiz-adv-x="1081" d="M545 1444q193 0 360-115v-180q-188 139-360 139-107 0-179.5-57T293 1071q0-49 12.5-86.5T338 921t61-50.5 80-41T586 788q58-21 96.5-38t87-43.5 79.5-57 59.5-71.5 42.5-95.5T965 362q-3-177-133.5-282T514-25Q413-25 311 6.5T125 96v193q83-71 187-111.5T514 137q117 0 195 59.5T788 360q0 40-8 71.5t-26 57-38.5 44.5-58 38-71.5 33-90 35q-49 18-83.5 32t-77 36.5-71.5 45-59 55-48 69.5-29 86.5-11 107.5q0 90 36 163t97 118 136.5 68.5T545 1444zM662-207L385-502H274l152 295h236z"/><glyph glyph-name="scommaaccent" unicode="ș" horiz-adv-x="913" d="M451 1063q164 0 307-86V819q-84 51-155.5 76T451 920q-84 0-131.5-39T272 774q0-29 5.5-51t20.5-40 28.5-29.5T370 629t50.5-20 62.5-21q129-42 181-71 143-81 143-234 0-138-101.5-223T442-25q-181 0-323 88v162q70-45 157.5-74.5T442 121q82 0 140.5 43T641 279q0 25-6.5 45t-23 36-31 27-43.5 22-47 17.5-55.5 17.5-55.5 17q-49 16-80.5 29t-72 39-64 57-40 81T106 780q0 131 99 207t246 76zM575-213L299-508H188l152 295h235z"/><glyph glyph-name="uni021A" unicode="Ț" horiz-adv-x="1011" d="M971 1421v-166H598V0H414v1255H41v166h930zM633-213L356-508H246l151 295h236z"/><glyph glyph-name="uni021B" unicode="ț" horiz-adv-x="745" d="M379 1288v-252h274V891H379V281q0-156 147-156 77 0 158 31V4q-82-31-174-31-97 0-164 37-69 37-102 107t-33 151v623H51v143h74q40 0 68 28t28 68v158h158zM588-213L311-508H201l151 295h236z"/><glyph glyph-name="circumflex" unicode="ˆ" d="M702 1513l265-294H772l-154 180-161-180H262l273 294h167z"/><glyph glyph-name="caron" unicode="ˇ" d="M967 1513l-265-294H535l-273 294h195l161-180 154 180h195z"/><glyph glyph-name="breve" unicode="˘" d="M834 1489h120q-16-129-100.5-200.5T614 1217t-239.5 71.5T274 1489h121q20-71 79.5-103t139.5-32 140 32 80 103z"/><glyph glyph-name="dotaccent" unicode="˙" d="M616 1442q51 0 86-35t35-86q0-50-35-84.5t-86-34.5q-50 0-85 35t-35 84q0 51 35 86t85 35z"/><glyph glyph-name="ring" unicode="˚" d="M614 1583q86 0 147.5-62t61.5-147-61.5-147-147.5-62q-85 0-146.5 62T406 1374t61.5 147 146.5 62zm0-106q-43 0-72.5-30t-29.5-73 29.5-72.5T614 1272t73 29.5 30 72.5-30 73-73 30z"/><glyph glyph-name="ogonek" unicode="˛" d="M582 39h61q-10-42-10-72 0-71 35-106t96-35q25 0 55 6v-98q-58-21-106-21-81 0-132 43t-51 129q0 87 52 154z"/><glyph glyph-name="tilde" unicode="˜" d="M870 1456h88q-10-119-61.5-180.5T758 1214q-50 0-156 50.5T455 1315q-36 0-65-27t-36-69h-84q12 116 64.5 176.5T473 1456q51 0 151.5-51t145.5-51q36 0 62 26.5t38 75.5z"/><glyph glyph-name="hungarumlaut" unicode="˝" d="M1126 1513l-276-294H739l152 294h235zm-340 0l-276-294H399l152 294h235z"/><glyph glyph-name="uni0326" unicode="̦" horiz-adv-x="0" d="M717-213L440-508H330l151 295h236z"/><glyph glyph-name="uni05B0" unicode="ְ" horiz-adv-x="0" d="M684-195v-127H545v127h139zm0-254v-126H547v126h137z"/><glyph glyph-name="uni05B1" unicode="ֱ" horiz-adv-x="0" d="M981-195v-127H842v127h139zM535-449v-126H397v126h138zM387-195v-127H248v127h139zm297 0v-127H545v127h139zm297-254v-126H844v126h137z"/><glyph glyph-name="uni05B2" unicode="ֲ" horiz-adv-x="0" d="M702-195v-127H229v127h473zm297-254v-126H862v126h137zm0 254v-127H860v127h139z"/><glyph glyph-name="uni05B3" unicode="ֳ" horiz-adv-x="0" d="M686-195v-116H508l27-228H385l27 228H236v116h450zm307-254v-126H856v126h137zm0 254v-127H854v127h139z"/><glyph glyph-name="uni05B4" unicode="ִ" horiz-adv-x="0" d="M682-195v-127H545v127h137z"/><glyph glyph-name="uni05B5" unicode="ֵ" horiz-adv-x="0" d="M831-195v-127H692v127h139zm-296 0v-127H395v127h140z"/><glyph glyph-name="uni05B6" unicode="ֶ" horiz-adv-x="0" d="M831-195v-127H692v127h139zM682-449v-126H545v126h137zM535-195v-127H395v127h140z"/><glyph glyph-name="uni05B7" unicode="ַ" horiz-adv-x="0" d="M850-195v-127H377v127h473z"/><glyph glyph-name="uni05B8" unicode="ָ" horiz-adv-x="0" d="M838-195v-116H659l27-228H537l26 228H387v116h451z"/><glyph glyph-name="uni05B9" unicode="ֹ" horiz-adv-x="0" d="M684 1450v-127H545v127h139z"/><glyph glyph-name="uni05BA" unicode="ֺ" horiz-adv-x="0" d="M684 1450v-127H545v127h139z"/><glyph glyph-name="uni05BB" unicode="ֻ" horiz-adv-x="0" d="M1044-530v-127H905v127h139zM684-195v-127H545v127h139zm180-167v-127H725v127h139z"/><glyph glyph-name="uni05BC" unicode="ּ" horiz-adv-x="0" d="M684 623V496H545v127h139z"/><glyph glyph-name="uni05BE" unicode="־" horiz-adv-x="931" d="M778 1063V905H154v158h624z"/><glyph glyph-name="uni05C1" unicode="ׁ" horiz-adv-x="0" d="M684 1450v-127H545v127h139z"/><glyph glyph-name="uni05C2" unicode="ׂ" horiz-adv-x="0" d="M684 1450v-127H545v127h139z"/><glyph glyph-name="uni05C7" unicode="ׇ" horiz-adv-x="0" d="M838-195v-116H659l27-228H537l26 228H387v116h451z"/><glyph glyph-name="uni05D0" unicode="א" horiz-adv-x="1187" d="M1085 1063l-28-160q-12-72-25.5-122T994 680.5t-57-85-83.5-63T735 487L1096 0H885L512 504q-27-10-50.5-23t-41-26-32.5-32-25-32.5-19-36.5-14-36-10-38-7-35.5-5.5-36T303 176L276 0H92l35 207q12 68 24.5 115.5t35 97T240 503t78.5 63T430 612L98 1063h213l344-467q33 10 60.5 23t47.5 30 35 33 26 39.5 18 40.5 12.5 44 8 42 6 43.5T874 932l21 131h190z"/><glyph glyph-name="uni05D1" unicode="ב" horiz-adv-x="1099" d="M123 1063h381q236 0 319-184 37-85 37-213V158h168V0H113v158h567v504q0 243-211 243H123v158z"/><glyph glyph-name="uni05D2" unicode="ג" horiz-adv-x="817" d="M608 1063V514q0-157 6.5-231.5T649 115L684 0H504q-29 80-49 176h-2L94-39l-2 193 342 204q-2 47-2 166v381H164v158h444z"/><glyph glyph-name="uni05D3" unicode="ד" horiz-adv-x="1089" d="M1008 1063V905H780V0H600v905H61v158h947z"/><glyph glyph-name="uni05D4" unicode="ה" horiz-adv-x="1224" d="M174 1063h541q215 0 307-160 49-90 49-237V0H891v662q0 243-211 243H174v158zm180-500V0H174v563h180z"/><glyph glyph-name="uni05D5" unicode="ו" horiz-adv-x="606" d="M432 1063V0H250v905H123v158h309z"/><glyph glyph-name="uni05D6" unicode="ז" horiz-adv-x="716" d="M655 1063V905H524q-194 0-166-266 11-83 45-199t64-197T559 0H356q-6 17-22 68t-22 69.5-19.5 62-19.5 64-16.5 57.5-15.5 60-12 53-11 56-7 51q-15 132 3.5 217.5T291 905H92v158h563z"/><glyph glyph-name="uni05D7" unicode="ח" horiz-adv-x="1249" d="M174 1063h565q109 0 186.5-42.5T1044 903q52-90 52-237V0H915v662q0 243-210 243H354V0H174v1063z"/><glyph glyph-name="uni05D8" unicode="ט" horiz-adv-x="1257" d="M762 1079q157 0 242-88 32-33 54-78.5t33-84 16.5-101.5 6-98 .5-107q0-273-158-424Q821-27 629-27 436-27 301 98 143 249 143 522v541h181V524q0-197 96-301 78-88 209-88t209 88q96 104 96 301 0 62-1 97t-4.5 84.5-11.5 76-22.5 58-35.5 47-52.5 26.5-73.5 11q-83 0-170-35v151q88 39 199 39z"/><glyph glyph-name="uni05D9" unicode="י" horiz-adv-x="587" d="M428 1063V383H246v522H119v158h309z"/><glyph glyph-name="uni05DA" unicode="ך" horiz-adv-x="931" d="M51 1063h379q192 0 281-115 77-96 77-264v-954H608v907q0 138-49.5 203T385 905H51v158z"/><glyph glyph-name="uni05DB" unicode="כ" horiz-adv-x="974" d="M117 1063h241q263 0 394-135t131-396-135.5-396.5T346 0H113v158h231q178 0 268 98.5T702 532q0 373-344 373H117v158z"/><glyph glyph-name="uni05DC" unicode="ל" horiz-adv-x="1019" d="M291 1442v-379h620V918L532 0H342l375 905H113v537h178z"/><glyph glyph-name="uni05DD" unicode="ם" horiz-adv-x="1222" d="M164 1063h569q109 0 186.5-42.5T1038 903q52-90 52-237V0H164v1063zm534-158H344V158h565v504q0 243-211 243z"/><glyph glyph-name="uni05DE" unicode="מ" horiz-adv-x="1327" d="M770 1090q195 0 318.5-147T1214 567q3-355-180-499-122-95-311-95-47 0-117 9v157q62-8 94-8 171 0 254.5 99t83.5 319q0 108-31 194t-97 139.5T752 936q-138 0-215-113-68-97-97.5-226.5T381 193L360 0H186q7 126 38 363t57 329L82 1063h199l104-189q59 102 147 154 100 62 238 62z"/><glyph glyph-name="uni05DF" unicode="ן" horiz-adv-x="575" d="M412 1063V-270H229V905H82v158h330z"/><glyph glyph-name="uni05E0" unicode="נ" horiz-adv-x="731" d="M578 1063V307q0-108-33-182-32-64-97-100.5T291-12H102v157h150q76 0 111.5 42T399 317v588H137v158h441z"/><glyph glyph-name="uni05E1" unicode="ס" horiz-adv-x="1243" d="M143 1063h492q207 0 340-123 155-137 155-418 0-269-153-418Q843-27 639-27q-210 0-346 133-150 150-150 416v541zm492-158H324V522q0-200 96-301 83-90 219-90 135 0 215 90 96 101 96 301 0 198-98 301-79 82-217 82z"/><glyph glyph-name="uni05E2" unicode="ע" horiz-adv-x="1185" d="M870 1063h183q0-96-2-143-3-177-19-355-21-164-62-268.5t-119.5-173-195-96T362 0H147v158h121q155 0 234 12l-400 893h197l381-862q58 30 92 84 58 94 84 391 14 144 14 387z"/><glyph glyph-name="uni05E3" unicode="ף" horiz-adv-x="1138" d="M133 1063h488q119 0 204-50t125-139q43-79 43-217v-927H815v929q0 114-57.5 180T586 905H313V713q0-118 53-167.5T514 498V354q-171-16-276 75T133 713v350z"/><glyph glyph-name="uni05E4" unicode="פ" horiz-adv-x="1208" d="M575 1094q247 0 384-133t137-381Q1096 0 451 0H174v158h264q249 0 365.5 98.5T920 573q0 359-349 359-148 0-220-67t-72-173q0-48 16-85t43.5-58.5 58-33T461 502V340q-39-1-82 7.5T285 380t-90.5 61-66 102T102 690q0 86 30.5 159T221 977t148.5 86 205.5 31z"/><glyph glyph-name="uni05E5" unicode="ץ" horiz-adv-x="1015" d="M944 1063l-47-201q-44-192-121-288T532 442l117-712H471L346 481 51 1063h193l254-506q25 9 46 20t37 20.5 30.5 26.5 24 27 19.5 33 15 33.5 13 39.5 10.5 40 10.5 46.5 11 47.5l41 172h188z"/><glyph glyph-name="uni05E6" unicode="צ" horiz-adv-x="1083" d="M991 1063l-28-160q-12-68-24-115.5t-33-96-50-82-72.5-62T682 500l268-371V0H127v158h598L70 1063h200l330-453q30 12 54.5 29t41 33 29.5 40.5 20.5 41 14 46 8.5 44 6 46.5 6 42l21 131h190z"/><glyph glyph-name="uni05E7" unicode="ק" horiz-adv-x="1249" d="M1141 1063V913L803 0H612l336 905H154v158h987zM354 563v-833H174v833h180z"/><glyph glyph-name="uni05E8" unicode="ר" horiz-adv-x="1017" d="M92 1063h418q215 0 307-160 47-86 47-237V0H686v662q0 243-211 243H92v158z"/><glyph glyph-name="uni05E9" unicode="ש" horiz-adv-x="1478" d="M1335 1063V631q0-176-48-303.5T1133 109Q976-29 739-29q-236 0-393 138-106 91-154.5 218.5T143 631v432h172V625q0-93 21-176 70 14 114 28t87 38.5 65.5 59 36.5 88T653 791v272h170V809q0-76-12.5-138.5t-34-108.5-54.5-82-68.5-60-83-42.5-90-29.5-97.5-20q38-68 92-111 105-94 266-94 153 0 265 94 157 134 157 408v438h172z"/><glyph glyph-name="uni05EA" unicode="ת" horiz-adv-x="1392" d="M113 1063h770q217 0 309-160 47-83 47-235V0h-180v662q0 243-209 243H537V295q0-71-17.5-126t-46-88.5-68-55-79-29.5-84.5-8q-58 0-119 12v145q8-1 23.5-2.5t28-2.5 22.5-1q77 0 119 40.5T358 330v575H113v158z"/><glyph glyph-name="gereshhb" unicode="׳" horiz-adv-x="649" d="M537 1343L211 905h-98l184 438h240z"/><glyph glyph-name="gershayimhb" unicode="״" horiz-adv-x="1017" d="M905 1343L580 905h-99l185 438h239zm-368 0L211 905h-98l184 438h240z"/><glyph glyph-name="Wgrave" unicode="Ẁ" horiz-adv-x="2301" d="M2255 1421L1788 0h-238l-399 1171L752 0H514L47 1421h203L633 184l434 1237h168l434-1237 383 1237h203zm-1206 490l151-295h-110l-277 295h236z"/><glyph glyph-name="wgrave" unicode="ẁ" horiz-adv-x="1904" d="M1864 1036L1434-25h-119L952 831 590-25H471L41 1036h180l311-784 332 784h176l332-784 311 784h181zM852 1544l152-295H893l-277 295h236z"/><glyph glyph-name="Wacute" unicode="Ẃ" horiz-adv-x="2301" d="M2255 1421L1788 0h-238l-399 1171L752 0H514L47 1421h203L633 184l434 1237h168l434-1237 383 1237h203zm-768 490l-277-295h-110l151 295h236z"/><glyph glyph-name="wacute" unicode="ẃ" horiz-adv-x="1904" d="M1864 1036L1434-25h-119L952 831 590-25H471L41 1036h180l311-784 332 784h176l332-784 311 784h181zm-574 508l-276-295H903l152 295h235z"/><glyph glyph-name="Wdieresis" unicode="Ẅ" horiz-adv-x="2301" d="M2255 1421L1788 0h-238l-399 1171L752 0H514L47 1421h203L633 184l434 1237h168l434-1237 383 1237h203zm-907 432q51 0 85.5-34.5t34.5-85.5q0-50-34.5-84.5T1348 1614q-50 0-85.5 35t-35.5 84q0 51 35.5 85.5t85.5 34.5zm-396 0q50 0 85.5-34.5t35.5-85.5q0-49-35.5-84t-85.5-35q-51 0-86 34.5t-35 84.5q0 51 35 85.5t86 34.5z"/><glyph glyph-name="wdieresis" unicode="ẅ" horiz-adv-x="1904" d="M1864 1036L1434-25h-119L952 831 590-25H471L41 1036h180l311-784 332 784h176l332-784 311 784h181zm-713 451q51 0 86-35t35-86q0-50-35-84.5t-86-34.5q-50 0-85.5 35t-35.5 84q0 51 35.5 86t85.5 35zm-395 0q50 0 85.5-35t35.5-86q0-49-35.5-84t-85.5-35q-51 0-86 34.5t-35 84.5q0 51 35 86t86 35z"/><glyph glyph-name="Ygrave" unicode="Ỳ" horiz-adv-x="1249" d="M1225 1421L715 637V0H530v637L20 1421h218l385-594 385 594h217zm-703 490l152-295H563l-276 295h235z"/><glyph glyph-name="ygrave" unicode="ỳ" horiz-adv-x="1071" d="M1051 1036L395-508H219L453 43 31 1036h176l334-786 333 786h177zm-615 508l152-295H477l-276 295h235z"/><glyph glyph-name="endash" unicode="–" horiz-adv-x="1509" d="M1386 705V565H123v140h1263z"/><glyph glyph-name="emdash" unicode="—" horiz-adv-x="2121" d="M1978 707V563H143v144h1835z"/><glyph glyph-name="quoteleft" unicode="‘" horiz-adv-x="649" d="M537 1421L352 983H113l325 438h99z"/><glyph glyph-name="quoteright" unicode="’" horiz-adv-x="649" d="M537 1421L211 983h-98l184 438h240z"/><glyph glyph-name="quotesinglbase" unicode="‚" horiz-adv-x="628" d="M526 336L201-102h-99l185 438h239z"/><glyph glyph-name="quotedblleft" unicode="“" horiz-adv-x="1017" d="M905 1421L721 983H481l326 438h98zm-368 0L352 983H113l325 438h99z"/><glyph glyph-name="quotedblright" unicode="”" horiz-adv-x="1017" d="M905 1421L580 983h-99l185 438h239zm-368 0L211 983h-98l184 438h240z"/><glyph glyph-name="quotedblbase" unicode="„" horiz-adv-x="997" d="M895 336L569-102h-98l178 438h246zm-369 0L201-102h-99l179 438h245z"/><glyph glyph-name="dagger" unicode="†" horiz-adv-x="1193" d="M682 1536v-500h348V885H682V-242H512V885H164v151h348v500h170z"/><glyph glyph-name="daggerdbl" unicode="‡" horiz-adv-x="1193" d="M682 1536v-500h348V885H682V410h348V258H682v-500H512v500H164v152h348v475H164v151h348v500h170z"/><glyph glyph-name="bullet" unicode="•" horiz-adv-x="860" d="M430 780q75 0 129.5-54T614 598q0-77-54-130.5T430 414t-130 53.5T246 598q0 74 54.5 128T430 780z"/><glyph glyph-name="ellipsis" unicode="…" horiz-adv-x="1921" d="M1593 250q53 0 91-38t38-89q0-55-37.5-92T1593-6t-91.5 37-37.5 92q0 51 38 89t91 38zm-1261 0q54 0 91.5-38t37.5-89q0-55-37.5-92T332-6t-91.5 37-37.5 92q0 51 37.5 89t91.5 38zm631 0q53 0 91-38t38-89q0-55-37.5-92T963-6t-91.5 37-37.5 92q0 51 38 89t91 38z"/><glyph glyph-name="perthousand" unicode="‰" horiz-adv-x="2394" d="M1403 1421L432-2H270l975 1423h158zm-205-958q-71 0-119.5-51T1030 285q0-71 50-125t118-54q71 0 120.5 52.5T1368 285t-50 126-120 52zm0 139q132 0 225-92t93-225q0-129-93-222.5T1198-31q-130 0-222.5 93.5T883 285q0 133 92 225t223 92zm-725 848q132 0 225-91.5t93-223.5q0-131-93-224.5T473 817q-130 0-222.5 93.5T158 1135q0 132 92 223.5t223 91.5zm0-137q-71 0-119.5-51T305 1135q0-72 49.5-125.5T473 956q72 0 121 52t49 127q0 72-50 125t-120 53zm1491-850q-71 0-119.5-51T1796 285q0-71 50-125t118-54q71 0 120.5 52.5T2134 285t-50 126-120 52zm0 139q132 0 224.5-92t92.5-225q0-130-93-223t-224-93q-130 0-222.5 93.5T1649 285q0 133 92 225t223 92z"/><glyph glyph-name="guilsinglleft" unicode="‹" horiz-adv-x="825" d="M662 924L369 512l293-412H461L164 512l297 412h201z"/><glyph glyph-name="guilsinglright" unicode="›" horiz-adv-x="825" d="M365 924l297-412-297-412H164l293 412-293 412h201z"/><glyph glyph-name="fraction" unicode="⁄" horiz-adv-x="1173" d="M1153 1421L182-2H20l975 1423h158z"/><glyph glyph-name="uni20AA" unicode="₪" horiz-adv-x="2252" d="M2109 1063V631q0-176-48-303.5T1907 109Q1750-29 1513-29q-236 0-393 138-106 91-154 218.5T918 631v31q0 243-211 243H354V0H174v1063h559q109 0 186.5-42.5T1038 903q52-90 52-237v-41q0-97 20-176 70 14 114 28t87 38.5 65.5 59 36.5 88 14 128.5v272h170V809q0-76-12.5-138.5t-34-108.5-54.5-82-68.5-60-83-42.5-90-29.5-97.5-20q38-68 92-111 105-94 267-94 152 0 264 94 157 134 157 408v438h172z"/><glyph glyph-name="Euro" unicode="€" horiz-adv-x="1564" d="M995 1450q230 0 416-121l-61-166q-73 60-166 91.5T995 1286q-161 0-301.5-84.5T485 963h787l-62-156H442q-6-47-6-96 0-51 6-97h691l-62-155H487q45-103 127-177t179-109.5T995 137q204 0 357 123V57q-170-84-357-84-153 0-292 54.5T454 194 295 459H113l61 155h88q-6 47-6 97 0 49 6 96H113l61 156h121q49 154 159 266t249 166.5 292 54.5z"/><glyph glyph-name="trademark" unicode="™" horiz-adv-x="2097" d="M1806 1421l86-811h-102l-74 697-295-715h-100l-295 717-74-699H850l86 811h149l287-696 285 696h149zm-1069 0v-94H524V608H418v719H205v94h532z"/><glyph glyph-name="partialdiff" unicode="∂" horiz-adv-x="1368"/><glyph glyph-name="emptyset" unicode="∅" horiz-adv-x="1437" d="M1124 1235l109-111-103-104q97-129 97-299 0-100-38-193.5T1079 360Q929 213 721 213q-170 0-301 98L313 205 205 317l104 103q-98 131-98 299 0 211 149 360 150 150 361 150 167 0 299-99zm-405-152q-150 0-256-106-107-107-107-256 0-109 58-197l501 502q-86 57-196 57zm307-168L524 416q88-58 195-58 151 0 258 107 106 106 106 256 0 108-57 194z"/><glyph glyph-name="product" unicode="∏" horiz-adv-x="1658" d="M1454 1421v-166h-139V0h-162v1255H510V0H340v1255H205v166h1249z"/><glyph glyph-name="summation" unicode="∑" horiz-adv-x="1409" d="M1204 1421v-153H432l565-568-577-544h782V0H205v172l555 528-555 553v168h999z"/><glyph glyph-name="minus" unicode="−" horiz-adv-x="1585" d="M1380 803V647H205v156h1175z"/><glyph glyph-name="radical" unicode="√" horiz-adv-x="1292" d="M1952 1880v-147h-709L668-4H506L162 958h186l238-706 524 1628h842z"/><glyph glyph-name="infinity" unicode="∞" horiz-adv-x="1550" d="M1061 1061q146 0 241-90.5t95-245.5q0-157-95.5-248.5T1061 385q-84 0-158 44.5T776 561Q664 385 489 385q-144 0-239.5 91.5T154 725q0 155 95.5 245.5T489 1061q89 0 158-39.5T774 889q54 79 132 125.5t155 46.5zM498 924q-83 0-138-58t-55-141q0-86 54.5-143.5T498 524q64 0 118 58t89 141q-34 82-88 141.5T498 924zm555 0q-64 0-117-58.5T846 723q38-85 90-142t117-57q84 0 138 57.5t54 143.5q0 83-54.5 141T1053 924z"/><glyph glyph-name="integral" unicode="∫" horiz-adv-x="866" d="M668 1585q61 0 116-16v-148q-54 13-92 13-131 0-131-144V164q0-131-78-208t-202-77q-59 0-117 17V43q49-12 92-12 131 0 131 143v1126q0 131 78.5 208t202.5 77z"/><glyph glyph-name="approxequal" unicode="≈" horiz-adv-x="1519" d="M514 1139q97 0 266-78 88-41 144.5-59.5T1030 983q63 0 128 34.5t157 115.5V956q-143-143-295-143-115 0-279 76-92 44-147 63.5T492 969q-63-3-127-38T205 815v180q92 76 164 110t145 34zm0-432q93 0 266-80 94-42 148-60t102-18q63 0 127.5 34.5T1315 698V524q-137-143-295-143-115 0-279 76-91 42-146.5 61T492 537q-62 0-125-35T205 383v178q93 77 165 111.5T514 707z"/><glyph glyph-name="notequal" unicode="≠" horiz-adv-x="1544" d="M1278 1317l-219-307h260V854H948L762 596h557V440H651L432 133H266l219 307H225v156h371l184 258H225v156h666l219 307h168z"/><glyph glyph-name="lessequal" unicode="≤" horiz-adv-x="1161" d="M956 1329v-158L350 920l606-256V506L205 829v172zm0-1044V145H205v140h751z"/><glyph glyph-name="greaterequal" unicode="≥" horiz-adv-x="1161" d="M205 1329l751-328V829L205 506v158l606 256-606 251v158zM956 285V145H205v140h751z"/><glyph glyph-name="lozenge" unicode="◊" horiz-adv-x="1478" d="M817 1450l481-735L817-27H659L182 715l477 735h158zm-78-152L360 715l379-590 381 590z"/><glyph glyph-name="uniFB2A" unicode="שׁ" horiz-adv-x="1437" d="M1315 1063V633q0-176-48.5-303.5T1112 111Q955-27 719-27T326 111q-106 91-154.5 218.5T123 633v430h172V627q0-97 20-176 70 14 114 28t87 38.5 66 59 37 88T633 793v270h170V811q0-88-16-158t-47.5-119-69.5-84-91.5-58.5-103-37T362 330q38-67 93-111 105-94 266-94 152 0 264 94 158 135 158 408v436h172zm-17 287v-127h-139v127h139z"/><glyph glyph-name="uniFB2B" unicode="שׂ" horiz-adv-x="1437" d="M1315 1063V633q0-176-48.5-303.5T1112 111Q955-27 719-27T326 111q-106 91-154.5 218.5T123 633v430h172V627q0-97 20-176 70 14 114 28t87 38.5 66 59 37 88T633 793v270h170V811q0-88-16-158t-47.5-119-69.5-84-91.5-58.5-103-37T362 330q38-67 93-111 105-94 266-94 152 0 264 94 158 135 158 408v436h172zM279 1350v-127H139v127h140z"/><glyph glyph-name="shindageshshindothb" unicode="שּׁ" horiz-adv-x="1437" d="M1315 1063V633q0-176-48.5-303.5T1112 111Q955-27 719-27T326 111q-106 91-154.5 218.5T123 633v430h172V627q0-97 20-176 70 14 114 28t87 38.5 66 59 37 88T633 793v270h170V811q0-88-16-158t-47.5-119-69.5-84-91.5-58.5-103-37T362 330q38-67 93-111 105-94 266-94 152 0 264 94 158 135 158 408v436h172zM983 541V414H844v127h139zm315 809v-127h-139v127h139z"/><glyph glyph-name="shindageshsindothb" unicode="שּׂ" horiz-adv-x="1437" d="M1315 1063V633q0-176-48.5-303.5T1112 111Q955-27 719-27T326 111q-106 91-154.5 218.5T123 633v430h172V627q0-97 20-176 70 14 114 28t87 38.5 66 59 37 88T633 793v270h170V811q0-88-16-158t-47.5-119-69.5-84-91.5-58.5-103-37T362 330q38-67 93-111 105-94 266-94 152 0 264 94 158 135 158 408v436h172zM983 541V414H844v127h139zm-704 809v-127H139v127h140z"/><glyph glyph-name="alefpatahhb" unicode="אַ" horiz-adv-x="1187" d="M1085 1063l-28-160q-12-72-25.5-122T994 680.5t-57-85-83.5-63T735 487L1096 0H885L512 504q-27-10-50.5-23t-41-26-32.5-32-25-32.5-19-36.5-14-36-10-38-7-35.5-5.5-36T303 176L276 0H92l35 207q12 68 24.5 115.5t35 97T240 503t78.5 63T430 612L98 1063h213l344-467q33 10 60.5 23t47.5 30 35 33 26 39.5 18 40.5 12.5 44 8 42 6 43.5T874 932l23 131h188zM813-195v-127H340v127h473z"/><glyph glyph-name="alefqamatshb" unicode="אָ" horiz-adv-x="1187" d="M1085 1063l-28-160q-12-72-25.5-122T994 680.5t-57-85-83.5-63T735 487L1096 0H885L512 504q-27-10-50.5-23t-41-26-32.5-32-25-32.5-19-36.5-14-36-10-38-7-35.5-5.5-36T303 176L276 0H92l35 207q12 68 24.5 115.5t35 97T240 503t78.5 63T430 612L98 1063h213l344-467q33 10 60.5 23t47.5 30 35 33 26 39.5 18 40.5 12.5 44 8 42 6 43.5T874 932l23 131h188zM813-195v-127H627l28-233H498l28 233H340v127h473z"/><glyph glyph-name="alefdageshhb" unicode="אּ" horiz-adv-x="1187" d="M1085 1063l-28-160q-12-72-25.5-122T994 680.5t-57-85-83.5-63T735 487L1096 0H885L512 504q-27-10-50.5-23t-41-26-32.5-32-25-32.5-19-36.5-14-36-10-38-7-35.5-5.5-36T303 176L276 0H92l35 207q12 68 24.5 115.5t35 97T240 503t78.5 63T430 612L98 1063h213l344-467q33 10 60.5 23t47.5 30 35 33 26 39.5 18 40.5 12.5 44 8 42 6 43.5T874 932l21 131h190zm-374 0V936H571v127h140z"/><glyph glyph-name="betdageshhb" unicode="בּ" horiz-adv-x="1099" d="M123 1063h381q236 0 319-184 37-85 37-213V158h168V0H113v158h567v504q0 243-211 243H123v158zm272-465V471H256v127h139z"/><glyph glyph-name="gimeldageshhb" unicode="גּ" horiz-adv-x="817" d="M608 1063V514q0-157 6.5-231.5T649 115L684 0H504q-29 80-49 176h-2L94-39l-2 193 342 204q-2 47-2 166v381H164v158h444zM231 598V471H92v127h139z"/><glyph glyph-name="daletdageshhb" unicode="דּ" horiz-adv-x="1089" d="M1008 1063V905H780V0H600v905H61v158h947zM369 598V471H229v127h140z"/><glyph glyph-name="hedageshhb" unicode="הּ" horiz-adv-x="1224" d="M174 1063h541q215 0 307-160 49-90 49-237V0H891v662q0 243-211 243H174v158zm180-500V0H174v563h180zm338 127V563H553v127h139z"/><glyph glyph-name="uniFB35" unicode="וּ" horiz-adv-x="643" d="M469 1063V0H287v905H160v158h309zM139 598V471H0v127h139z"/><glyph glyph-name="zayindageshhb" unicode="זּ" horiz-adv-x="716" d="M655 1063V905H524q-194 0-166-266 11-83 45-199t64-197T559 0H356q-6 17-22 68t-22 69.5-19.5 62-19.5 64-16.5 57.5-15.5 60-12 53-11 56-7 51q-15 132 3.5 217.5T291 905H92v158h563zm0-342V594H516v127h139z"/><glyph glyph-name="tetdageshhb" unicode="טּ" horiz-adv-x="1261" d="M766 1079q174 0 258-108 52-66 73-173.5t21-275.5q0-274-157-424Q826-27 633-27 452-27 313 88 143 237 143 522v541h181V522q0-203 100-303 80-86 209-86 131 0 209 88 96 104 96 301 0 64-1 105.5t-5.5 88.5-13 75.5-23.5 57-37 43.5-53 24.5-72 9.5q-71 0-166-31v149q93 35 199 35zm-66-481V471H561v127h139z"/><glyph glyph-name="yoddageshhb" unicode="יּ" horiz-adv-x="628" d="M469 1063V383H287v522H160v158h309zM139 729V602H0v127h139z"/><glyph glyph-name="finalkafdageshhb" unicode="ךּ" horiz-adv-x="931" d="M51 1063h379q192 0 281-115 77-96 77-264v-954H608v907q0 138-49.5 203T385 905H51v158zm318-465V471H229v127h140z"/><glyph glyph-name="kafdageshhb" unicode="כּ" horiz-adv-x="974" d="M117 1063h241q263 0 394-135t131-396-135.5-396.5T346 0H113v158h231q178 0 268 98.5T702 532q0 373-344 373H117v158zm266-465V471H244v127h139z"/><glyph glyph-name="lameddageshhb" unicode="לּ" horiz-adv-x="1019" d="M291 1442v-379h620V918L532 0H342l375 905H113v537h178zm108-742V573H260v127h139z"/><glyph glyph-name="memdageshhb" unicode="מּ" horiz-adv-x="1327" d="M770 1090q195 0 318.5-147T1214 567q3-355-180-499-122-95-311-95-47 0-117 9v157q62-8 94-8 171 0 254.5 99t83.5 319q0 108-31 194t-97 139.5T752 936q-138 0-215-113-68-97-97.5-226.5T381 193L360 0H186q7 126 38 363t57 329L82 1063h199l106-193q60 105 150 158 100 62 233 62zm25-492V471H655v127h140z"/><glyph glyph-name="nundageshhb" unicode="נּ" horiz-adv-x="731" d="M578 1063V307q0-108-33-182-32-64-97-100.5T291-12H102v157h150q76 0 111.5 42T399 317v588H137v158h441zM242 598V471H102v127h140z"/><glyph glyph-name="samekhdageshhb" unicode="סּ" horiz-adv-x="1243" d="M143 1063h492q207 0 340-123 155-137 155-418 0-269-153-418Q843-27 639-27q-210 0-346 133-150 150-150 416v541zm492-158H324V522q0-200 96-301 83-90 219-90 135 0 215 90 96 101 96 301 0 198-98 301-79 82-217 82zm63-307V471H559v127h139z"/><glyph glyph-name="finalpedageshhb" unicode="ףּ" horiz-adv-x="1138" d="M133 1063h488q119 0 204-50t125-139q43-79 43-217v-927H815v929q0 114-57.5 180T586 905H313V713q0-118 53-167.5T514 498V354q-171-16-276 75T133 713v350zm510-305V631H504v127h139z"/><glyph glyph-name="pedageshhb" unicode="פּ" horiz-adv-x="1208" d="M575 1094q247 0 384-133t137-381Q1096 0 451 0H174v158h264q249 0 365.5 98.5T920 573q0 359-349 359-148 0-220-67t-72-173q0-48 16-85t43.5-58.5 58-33T461 502V340q-39-1-82 7.5T285 380t-90.5 61-66 102T102 690q0 86 30.5 159T221 977t148.5 86 205.5 31zm87-363V604H522v127h140z"/><glyph glyph-name="tsadidageshhb" unicode="צּ" horiz-adv-x="1083" d="M991 1063l-28-160q-12-68-24-115.5t-33-96-50-82-72.5-62T682 500l268-371V0H127v158h598L70 1063h200l330-453q30 12 54.5 29t41 33 29.5 40.5 20.5 41 14 46 8.5 44 6 46.5 6 42l21 131h190zM268 512V385H129v127h139z"/><glyph glyph-name="qofdageshhb" unicode="קּ" horiz-adv-x="1249" d="M1141 1063V913L803 0H612l336 905H154v158h987zM354 563v-833H174v833h180zm283 127V563H498v127h139z"/><glyph glyph-name="reshdageshhb" unicode="רּ" horiz-adv-x="1017" d="M92 1063h418q215 0 307-160 47-86 47-237V0H686v662q0 243-211 243H92v158zm293-465V471H246v127h139z"/><glyph glyph-name="shindageshhb" unicode="שּ" horiz-adv-x="1437" d="M1335 1063V631q0-176-48-303.5T1133 109Q976-29 739-29q-236 0-393 138-106 91-154.5 218.5T143 631v432h172V625q0-93 21-176 70 14 114 28t87 38.5 65.5 59 36.5 88T653 791v272h170V809q0-76-12.5-138.5t-34-108.5-54.5-82-68.5-60-83-42.5-90-29.5-97.5-20q38-68 92-111 105-94 266-94 153 0 265 94 157 134 157 408v438h172zm-334-549V387H862v127h139z"/><glyph glyph-name="tavdageshhb" unicode="תּ" horiz-adv-x="1392" d="M113 1063h770q217 0 309-160 47-83 47-235V0h-180v662q0 243-209 243H537V295q0-71-17.5-126t-46-88.5-68-55-79-29.5-84.5-8q-58 0-119 12v145q8-1 23.5-2.5t28-2.5 22.5-1q77 0 119 40.5T358 330v575H113v158zm747-465V471H721v127h139z"/><glyph glyph-name="uniFB4B" unicode="וֹ" horiz-adv-x="575" d="M422 1063V0H240v905H113v158h309zm-31 287v-127H252v127h139z"/><glyph glyph-name="i.loclTRK" horiz-adv-x="534" d="M354 1036V0H180v1036h174zm-86 437q51 0 86-35t35-86q0-50-35-84.5t-86-34.5q-50 0-85.5 35t-35.5 84q0 51 35.5 86t85.5 35z"/><glyph glyph-name="a.sc" horiz-adv-x="1196" d="M680 1157L1135 0H958L844 299H352L238 0H61l455 1157h164zm-82-223L414 459h368z"/><glyph glyph-name="b.sc" horiz-adv-x="1046" d="M150 1155h407q137 0 232.5-82.5T885 846q0-142-107-225 89-36 140-111.5T969 328q0-154-103-241T604 0H150v1155zm440-629H313V152h277q97 0 154 49t57 137-57.5 138T590 526zm-55 482H313V672h222q86 0 137 44.5T723 840t-51 123.5-137 44.5z"/><glyph glyph-name="c.sc" horiz-adv-x="1136" d="M713 1182q178 0 309-80V920q-131 102-301 102-129 0-230.5-49.5t-163-152T266 578t61.5-242.5 163-152.5T721 133q169 0 301 103V53Q891-27 713-27q-125 0-237.5 41T279 133q-89 79-138 192.5T92 578q0 278 187 444 84 78 196.5 119t237.5 41z"/><glyph glyph-name="d.sc" horiz-adv-x="1214" d="M150 1155h395q110 0 212.5-39t184-110.5 131-182.5 49.5-245-49.5-245.5-131-183T757.5 39 545 0H150v1155zm393-160H319V160h224q77 0 148.5 27t129 78T913 397t35 181-35 181-92.5 131.5-129 77.5T543 995z"/><glyph glyph-name="e.sc" horiz-adv-x="915" d="M786 1155V997H319V676h418V520H319V158h467V0H150v1155h636z"/><glyph glyph-name="f.sc" horiz-adv-x="894" d="M786 1155V997H322V676h415V522H322V0H150v1155h636z"/><glyph glyph-name="fi.sc" horiz-adv-x="1380" d="M786 1155V993H322V680h415V520H322V0H150v1155h636zm445 0V0h-178v1155h178z"/><glyph glyph-name="fl.sc" horiz-adv-x="1705" d="M786 1155V993H322V680h415V520H322V0H150v1155h636zm418 0V162h445V0h-617v1155h172z"/><glyph glyph-name="g.sc" horiz-adv-x="1282" d="M713 1182q221 0 383-107V879q-72 70-172 107.5T719 1024q-129 0-230.5-49.5t-163-152T264 580t61.5-242.5 163-152.5T719 135q155 0 270 74v250H762v151h391V133q-83-77-197.5-116.5T713-23q-125 0-237 42T278.5 136.5 142.5 327 92 580t50.5 252.5 136 190.5T476 1140.5t237 41.5z"/><glyph glyph-name="h.sc" horiz-adv-x="1257" d="M1108 1155V0H934v520H324V0H150v1155h174V676h610v479h174z"/><glyph glyph-name="i.sc" horiz-adv-x="495" d="M336 1155V0H160v1155h176z"/><glyph glyph-name="dotlessi.sc" horiz-adv-x="495" d="M336 1155V0H160v1155h176z"/><glyph glyph-name="j.sc" horiz-adv-x="626" d="M473 1155V262q0-132-79.5-209.5T190-25Q130-25 72-8v147q49-12 94-12 62 0 96.5 35T297 268v887h176z"/><glyph glyph-name="k.sc" horiz-adv-x="1093" d="M1032 1155L500 578 1032 0H809L322 537h-5V0H150v1155h167V618h5l487 537h223z"/><glyph glyph-name="l.sc" horiz-adv-x="823" d="M322 1155V160h444V0H150v1155h172z"/><glyph glyph-name="m.sc" horiz-adv-x="1716" d="M1475 1153L1597-2h-174l-98 917L938-25H780L391 918 293-2H119l123 1155h233l385-938 383 938h232z"/><glyph glyph-name="n.sc" horiz-adv-x="1353" d="M311 1161l717-895v889h172V-6h-168L326 877V0H154v1161h157z"/><glyph glyph-name="o.sc" horiz-adv-x="1392" d="M696 1180q92 0 179.5-25t164-76 135-121.5 92-168.5 33.5-211-33.5-211.5-92-170-135-122.5-164-76T696-27 516.5-2t-164 76-135 122.5-92 170T92 578t33.5 211 92 168.5 135 121.5 164 76 179.5 25zm0-160q-82 0-158.5-28t-138-81.5T301 771t-37-193 37-194 98.5-140.5 138-82T696 133t157.5 28.5 137 82T1089 384t37 194-37 193-98.5 139-137 81.5T696 1020z"/><glyph glyph-name="p.sc" horiz-adv-x="970" d="M150 1155h391q97 0 177-38.5t130.5-117T899 815t-50.5-184.5-130.5-117T541 475H317V-2H150v1157zm380-151H317V629h213q83 0 140 50t57 138-57 137.5-140 49.5z"/><glyph glyph-name="q.sc" horiz-adv-x="1415" d="M692 1180q92 0 179.5-25t164-76 135-121.5 92-168.5 33.5-211q0-218-114-367L1405 0h-234l-104 96Q904-27 692-27q-92 0-179.5 25t-164 76-135 122.5-92 170T88 578t33.5 211 92 168.5 135 121.5 164 76 179.5 25zm0-160q-82 0-158.5-28t-138-81.5T297 771t-37-193 37-194 98.5-140.5 138-82T692 133t157.5 28.5 137 82T1085 384t37 194-37 193-98.5 139-137 81.5T692 1020z"/><glyph glyph-name="r.sc" horiz-adv-x="1021" d="M150 1155h391q97 0 177-38.5t130.5-117T899 815q0-147-92.5-235T575 483L961 0H743L373 481h-56V-2H150v1157zm380-151H317V629h213q83 0 140 50t57 138-57 137.5-140 49.5z"/><glyph glyph-name="s.sc" horiz-adv-x="933" d="M465 1174q172 0 321-87V926q-166 102-321 102-96 0-150.5-45.5T260 858q0-46 19.5-81t60.5-60.5 79.5-41T522 641q50-16 86.5-30.5t83-43 76.5-63 51.5-88T842 297q-3-153-113.5-237.5T453-25q-86 0-177.5 26.5T115 72v168q77-50 167-83.5T446 123q97 0 161 45.5T674 297q-1 36-16.5 66t-37 49.5T561 451t-68.5 30-80.5 27q-51 16-88 30.5t-84 44-76.5 64.5-50.5 91-21 124q0 97 51 168.5T277.5 1138t187.5 36z"/><glyph glyph-name="t.sc" horiz-adv-x="948" d="M870 1155V995H561V0H387v995H78v160h792z"/><glyph glyph-name="u.sc" horiz-adv-x="1232" d="M1079 1155V436q0-200-132.5-331.5T616-27q-197 0-329.5 131.5T154 436v719h172V424q0-122 84.5-206.5T616 133t206 84.5T907 424v731h172z"/><glyph glyph-name="v.sc" horiz-adv-x="1187" d="M1130 1155L680-2H508L57 1155h181l356-950 356 950h180z"/><glyph glyph-name="w.sc" horiz-adv-x="1945" d="M1063 1159l332-868 327 864h185L1460-4h-127L973 948 612-4H485L39 1155h184l328-864 332 868h180z"/><glyph glyph-name="x.sc" horiz-adv-x="1136" d="M1049 1155L670 616 1104 0H901L567 473 236 0H33l434 616-379 539h203l278-395 277 395h203z"/><glyph glyph-name="y.sc" horiz-adv-x="1105" d="M1065 1155L639 522V0H467v522L41 1155h199l313-469 309 469h203z"/><glyph glyph-name="z.sc" horiz-adv-x="1009" d="M905 1155v-143L313 156h588V0H104v143l592 856H109v156h796z"/><glyph glyph-name="zero.tf" d="M614 1450q225 0 350.5-180T1090 711q0-378-125.5-558T614-27 264 153 139 711q0 379 125 559t350 180zm0-166q-156 0-225.5-133T319 711q0-304 69.5-438T614 139t225.5 134T909 711q0 307-69.5 440T614 1284z"/><glyph glyph-name="one.tf" d="M705 1421V166h317V0H207v166h317v897H285v135q103 0 181.5 62.5T567 1421h138z"/><glyph glyph-name="two.tf" d="M606 1450q196 0 313-107t117-294q0-71-31-143t-65-118.5T820 637q-5-7-8.5-11t-8-9.5T795 606L436 166h586V0H207v158l530 641q71 86 98 136.5t27 113.5q0 98-66.5 168.5T608 1288q-67 0-118-20.5t-81-56-46-77.5-21-92H176q6 189 120.5 298.5T606 1450z"/><glyph glyph-name="three.tf" d="M938 1419l-2-143-313-365q170-9 288.5-132T1030 487q0-126-46-225.5T859 100 677.5 5.5 457-27q-123 0-242 37v176q120-45 238-45 178 0 290.5 88.5T856 489q0 108-78.5 184.5T590 750q-106 0-197-60v172l326 398H213v159h725z"/><glyph glyph-name="four.tf" d="M842 1427L326 467h456v272h172V467h168V305H954V2L782 0v305H113v146l526 976h203z"/><glyph glyph-name="five.tf" d="M987 1421v-159H471l-31-383q85 32 170 32 178 0 304-124t126-300q0-126-46-225.5T869 100 687.5 5.5 467-27q-136 0-260 43l12 172q120-47 244-47 178 0 290.5 88.5T866 489q0 108-78.5 184.5T600 750t-190-62l-148 57 51 676h674z"/><glyph glyph-name="six.tf" d="M860 1421L428 797q96 57 209 57 84 0 162.5-28.5t142-81T1043 608t38-186q0-193-135.5-321T604-27q-198 0-327.5 128.5T147 428q0 143 56 268 55 124 186 324l262 401h209zM610 698q-129 0-208.5-81.5T322 412q0-118 80-198.5T610 133q132 0 212.5 80T903 412q0 124-80 205t-213 81z"/><glyph glyph-name="seven.tf" d="M1055 1421v-157Q777 954 666 684 549 396 549 0H369q0 433 129 739 120 283 331 516H166v166h889z"/><glyph glyph-name="eight.tf" d="M614 1448q188 0 308-110.5t120-284.5q0-98-49.5-180.5T854 739q227-109 227-344 0-186-131.5-304T614-27 278.5 91 147 395q0 235 228 344-89 51-139 133.5T186 1053q0 174 120 284.5T614 1448zm0-786q-117 0-198.5-78T334 395q0-116 81-192t199-76 199.5 76T895 395q0 110-82 188.5T614 662zm0 630q-108 0-177.5-64.5T367 1049q0-99 71.5-169.5T614 809t176 70.5 72 169.5q0 114-70 178.5T614 1292z"/><glyph glyph-name="nine.tf" d="M625 1448q198 0 327-128.5T1081 993q0-145-55-268-55-124-186-324L578 0H369l432 625q-98-58-209-58-84 0-163 28.5t-142.5 81T185 813t-38 186q0 193 136 321t342 128zm-7-160q-132 0-212-79.5T326 1010q0-124 80-205.5T618 723q129 0 209 82t80 205q0 118-80.5 198T618 1288z"/><glyph glyph-name="zero.sc" horiz-adv-x="1081" d="M541 1178q91 0 167-34.5t135-105T935.5 850 969 575q0-156-33-274.5T843.5 112 708 7.5 541-27 374 7.5 238.5 112 146 300.5 113 575q0 157 33.5 275t92.5 188.5 135 105 167 34.5zm0-154q-130 0-195-109t-65-337q0-231 65-341t195-110 195 110 65 341q0 228-65 337t-195 109z"/><glyph glyph-name="one.sc" horiz-adv-x="741" d="M516 1155V0H342v815H123v121q97 4 168.5 65.5T385 1155h131z"/><glyph glyph-name="two.sc" horiz-adv-x="946" d="M473 1180q162 0 261.5-88.5T834 852q0-30-6-59.5t-10.5-49-24.5-52-26.5-45T727 594t-40.5-48.5T635 487L344 150h467V0H133v141l436 512q61 72 83 111.5t22 87.5q0 77-52 129.5T475 1034q-107 0-157.5-57.5T262 831H113q0 160 97 254.5t263 94.5z"/><glyph glyph-name="three.sc" horiz-adv-x="897" d="M735 1155l-2-129-268-285q135-12 229-112.5T788 393q-1-102-39-183.5T645 77 495-.5 315-27Q201-27 113 6v158q93-41 198-41 143 0 231 69t89 203q0 83-61.5 142T422 596q-95 0-166-53v162l279 305H123v145h612z"/><glyph glyph-name="four.sc" horiz-adv-x="1024" d="M696 1155L285 399h346v205h164V399h137V250H795V0H631v250H92v133l418 772h186z"/><glyph glyph-name="five.sc" horiz-adv-x="905" d="M750 1155v-143H330l-21-291q61 22 127 22 147 0 252-101.5T793 395q0-103-38.5-185T650 77 499.5-.5 319-27Q199-27 111 8l10 154q92-39 194-39 144 0 232 69.5T635 397q0 86-60 143.5T428 598q-85 0-156-47l-120 43 38 561h560z"/><glyph glyph-name="six.sc" horiz-adv-x="987" d="M719 1155L367 653q66 35 147 35 69 0 132.5-23T761 599.5 843 489t31-151q0-156-109.5-259.5T487-25Q323-25 218 79T113 344q0 122 55 248 5 10 11.5 21.5t17.5 29l22 35 30 47.5 36.5 56 47 71 55 83.5 67 102L532 1155h187zM494 549q-99 0-160.5-62T272 330q0-89 62-150t160-61q100 0 161.5 60.5T717 330q0 95-61 157t-162 62z"/><glyph glyph-name="seven.sc" horiz-adv-x="892" d="M801 1155v-141Q587 774 502 571 400 339 403 0H236q-6 352 108 618 81 196 242 383H92v154h709z"/><glyph glyph-name="eight.sc" horiz-adv-x="978" d="M487 1178q152 0 251.5-93T838 848q0-75-36.5-141T702 598q79-43 121.5-114T866 324q0-152-108-250.5T487-25q-161 0-267.5 98.5T113 324q0 91 41 161.5T276 598q-63 43-99 109t-36 141q0 144 98 237t248 93zm0-650q-92 0-153.5-57.5T272 324q0-91 61.5-149T487 117q95 0 157.5 58T707 324q0 89-63 146.5T487 528zm0 508q-85 0-137.5-48.5T297 848q0-77 54.5-129.5T487 666q84 0 138.5 52.5T680 848q0 91-52.5 139.5T487 1036z"/><glyph glyph-name="nine.sc" horiz-adv-x="987" d="M500 1180q164 0 269-104t105-265q0-122-55-248-5-10-11.5-21.5t-17.5-29l-22-35-30-47.5-36.5-56-47-71-55-83.5-67-102L455 0H268l353 502q-66-35-148-35-69 0-132.5 23T226 555.5 144 666t-31 151q0 156 109.5 259.5T500 1180zm-6-144q-101 0-162.5-60.5T270 825q0-95 61.5-157T494 606q99 0 160 62t61 157q0 90-61.5 150.5T494 1036z"/><glyph glyph-name="comma.tf" horiz-adv-x="614" d="M492 201L195-182H94l142 383h256z"/><glyph glyph-name="period.tf" horiz-adv-x="614" d="M307 229q53 0 91-37.5t38-89.5q0-55-37.5-92T307-27t-91.5 37-37.5 92q0 52 38 89.5t91 37.5z"/><glyph glyph-name="slash.sc" horiz-adv-x="905" d="M844 1155L227 0H61l617 1155h166z"/><glyph glyph-name="ampersand.sc" horiz-adv-x="1327" d="M594 1176q135 0 220-71.5T899 924q0-139-117-230-29-23-159-98l274-293 289 242V360L995 203 1182 0H987L885 106Q796 35 722.5 5T559-25q-70 0-136 22T302.5 59.5 215 165t-33 144q0 109 50 184.5T383 627q-70 95-90.5 149.5T272 897q0 119 91.5 199t230.5 80zm192-963L483 528q-75-45-111-92.5T336 319q0-89 68.5-143.5T563 121q63 0 109.5 19.5T786 213zm-200 829q-70 0-117-41.5T422 901q0-52 18.5-91.5T520 696q139 73 185.5 114.5T752 907q0 57-45.5 96T586 1042z"/><glyph glyph-name="cent.sc" d="M915 1407l-51-238q101-19 178-67V920q-98 76-213 94L641 141q44-8 100-8 169 0 301 103V53Q911-27 733-27q-52 0-127 11l-45-207H434l53 241Q380 58 299 133q-88 78-137 192t-49 253q0 279 186 444 84 78 196.5 119t237.5 41h6l49 225h127zM522 178l183 842q-184-11-301-127T287 578q0-145 62.5-247T522 178z"/><glyph glyph-name="dollar.sc" horiz-adv-x="1003" d="M698 1358l-28-207q82-21 155-64V926q-85 52-178 80l-53-377q45-15 80.5-31.5t75-44.5 66-61.5 45-84T881 297q-3-101-56-174.5T688.5 13 500-25l-23-161H340l25 174Q236 14 145 72v168q124-79 240-105l55 375q-50 15-88 30.5T268.5 585t-75 64.5-50 90.5T123 862q0 144 108 228t269 84h35l26 184h137zM571 465l-49-340q82 9 134 53.5T711 297q-1 60-37.5 99.5T571 465zm-57 563h-14q-97 0-152-45.5T293 858q0-69 44-112t126-74z"/><glyph glyph-name="Euro.sc" horiz-adv-x="1247" d="M772 1178q186 0 342-101l-55-147q-120 102-287 102-127 0-236.5-64.5T371 784h630l-53-137H332q-6-37-6-72t6-73h561l-57-135H373q53-120 162.5-184T772 119q171 0 293 104V45Q936-25 772-25 581-25 422 78.5T201 367H51l53 135h68q-4 50-4 73 0 22 4 72H51l53 137h97q42 124 131.5 215T535 1134t237 44z"/><glyph glyph-name="percent.sc" horiz-adv-x="1669" d="M1303 1182L516 0H362l791 1182h150zm-891 0q126 0 214.5-87.5T715 881q0-125-88.5-214T412 578q-123 0-211 89t-88 214 87.5 213 211.5 88zm0-131q-67 0-113.5-48.5T252 881q0-69 47.5-119.5T412 711q69 0 116 49t47 121q0 69-48 119.5T412 1051zm843-480q126 0 213.5-87t87.5-214q0-124-88-212.5T1255-31q-124 0-212.5 89T954 270q0 127 88 214t213 87zm0-131q-67 0-113-49t-46-121q0-68 47-119t112-51q67 0 114.5 49.5T1417 270q0 69-48 119.5T1255 440z"/><glyph glyph-name="sterling.sc" horiz-adv-x="983" d="M596 1178q121 0 235-66V948q-112 74-223 74-89 0-143.5-54T410 815V664h288V508H412V154h479V0H242v508H92v156h150v170q0 155 102.5 249.5T596 1178z"/><glyph glyph-name="yen.sc" horiz-adv-x="1249" d="M1137 1155L733 555h289V430H711V283h311V158H711V0H539v158H229v125h310v147H229v125h287l-403 600h198l314-469 309 469h203z"/></font>
</defs>
</svg>
