<svg xmlns="http://www.w3.org/2000/svg"><defs><font id="Simpler-Black" horiz-adv-x="0"><font-face font-family="Simpler Black" font-weight="900" units-per-em="2048" panose-1="0 0 10 0 0 0 0 0 0 0" ascent="1638" descent="-410" x-height="1094" cap-height="1483" bbox="-106 -778 2871 2075" underline-thickness="102" underline-position="-307" unicode-range="U+0020-FB4B"/><glyph glyph-name="fi" unicode="fi" horiz-adv-x="1431" d="M561 1616q113 0 209-35v-264q-69 31-123 31-123 0-123-119v-135h772V0H967v825H524V0H195v825H72v269h123v155q0 169 98.5 268t267.5 99zm737-103v-270H965v270h333z"/><glyph glyph-name="fl" unicode="fl" horiz-adv-x="1439" d="M561 1616q113 0 209-35v-264q-69 31-123 31-123 0-123-119v-135h441v491h342V0H965v825H524V0H195v825H72v269h123v155q0 169 98.5 268t267.5 99z"/><glyph glyph-name="f_f" unicode="ff" horiz-adv-x="1581" d="M1331 1616q113 0 209-35v-264q-69 31-123 31-123 0-123-119v-135h246V825h-246V0H965v825H524V0H195v825H72v269h123v155q0 169 98.5 268t267.5 99q113 0 209-35v-264q-69 31-123 31-123 0-123-119v-135h441v155q0 169 98.5 268t267.5 99z"/><glyph glyph-name="f_f_i" unicode="ffi" horiz-adv-x="2199" d="M1331 1616q113 0 209-35v-264q-69 31-123 31-123 0-123-119v-135h770V0h-329v825h-441V0H965v825H524V0H195v825H72v269h123v155q0 169 98.5 268t267.5 99q113 0 209-35v-264q-69 31-123 31-123 0-123-119v-135h441v155q0 169 98.5 268t267.5 99zm735-103v-270h-333v270h333z"/><glyph glyph-name="f_f_l" unicode="ffl" horiz-adv-x="2209" d="M1331 1616q113 0 209-35v-264q-69 31-123 31-123 0-123-119v-135h441v491h342V0h-342v825h-441V0H965v825H524V0H195v825H72v269h123v155q0 169 98.5 268t267.5 99q113 0 209-35v-264q-69 31-123 31-123 0-123-119v-135h441v155q0 169 98.5 268t267.5 99z"/><glyph glyph-name=".notdef" horiz-adv-x="1024" d="M0 0v1434h1024V0H0zm512 809l348 522H164zm61-92l349-522v1044zM164 102h696L512 625zm-62 1137V195l349 522z"/><glyph glyph-name=".null"/><glyph glyph-name="nonmarkingreturn" horiz-adv-x="682"/><glyph glyph-name="space" horiz-adv-x="450"/><glyph glyph-name="exclam" unicode="!" horiz-adv-x="802" d="M571 1483v-326l-71-649H291l-72 651v324h352zM401 346q77 0 132-55t55-131-55-131.5T401-27q-76 0-131 55t-55 132q0 76 54.5 131T401 346z"/><glyph glyph-name="quotedbl" unicode="&quot;" horiz-adv-x="1312" d="M1190 1483L793 983H608l209 500h373zm-485 0L307 983H123l209 500h373z"/><glyph glyph-name="numbersign" unicode="#" horiz-adv-x="1642" d="M1163 1274V977h295V772h-295V502h295V295h-295V0H952v295H690V0H481v295H184v207h297v270H184v205h297v297h209V977h262v297h211zM952 772H690V502h262v270z"/><glyph glyph-name="dollar" unicode="$" horiz-adv-x="1241" d="M831 1669l-26-182q135-35 239-111v-301q-146 98-278 133l-49-340q42-15 69-25t73.5-32 77.5-43.5 68.5-56.5 59.5-73 37.5-91 15.5-113q0-93-33.5-175T989 113 829.5 12 612-25h-24l-23-161H408L434-8Q285 23 152 111v305q164-120 321-146l49 346q-39 13-68.5 24.5t-73.5 33-76.5 43.5-68.5 57-59 74-38 92-15 113q0 88 30.5 168.5T243 1367t154.5 103.5T612 1509h39l23 160h157zM672 559l-41-295q70 13 108.5 56T778 422q0 87-106 137zM567 926l43 297q-72-10-110.5-49t-38.5-99q0-93 106-149z"/><glyph glyph-name="percent" unicode="%" horiz-adv-x="1613" d="M1401 1483L383 0H213l1018 1483h170zm-219-854q137 0 233-96t96-234q0-135-96.5-232.5T1182-31 949 66.5 852 299q0 138 96.5 234t233.5 96zm0-176q-62 0-104-44t-42-110q0-62 43-108t103-46q61 0 103 44.5t42 109.5q0 63-42.5 108.5T1182 453zM432 1513q137 0 233.5-95.5T762 1184q0-135-97-232.5T432 854t-233 97.5-97 232.5q0 138 96.5 233.5T432 1513zm0-176q-62 0-103.5-43.5T287 1184q0-62 42.5-108t102.5-46q61 0 103.5 44.5T578 1184q0 63-43 108t-103 45z"/><glyph glyph-name="ampersand" unicode="&amp;" horiz-adv-x="1712" d="M727 1518q186 0 304-98.5t118-250.5q0-223-272-378l-29-17 248-282 405 329V457l-211-172L1548 0h-364l-109 115Q1004 44 900 6.5T684-31q-78 0-153 17.5T389.5 41 273 130.5t-79.5 127T164 420q0 243 235 399-127 176-127 322 0 162 129.5 269.5T727 1518zM885 319L594 627q-58-36-91.5-82T469 432q0-94 63.5-146.5T686 233q125 0 199 86zm-166 955q-67 0-107.5-37.5T571 1141q0-100 111-187 87 50 133.5 98t46.5 101q0 51-39.5 86T719 1274z"/><glyph glyph-name="quotesingle" unicode="'" horiz-adv-x="827" d="M705 1483L307 983H123l209 500h373z"/><glyph glyph-name="parenleft" unicode="(" horiz-adv-x="796" d="M565 1585h211q-197-219-280.5-449.5T412 643q0-261 83-490.5T776-301H565Q350-132 221 122.5T92 641q0 266 130.5 522.5T565 1585z"/><glyph glyph-name="parenright" unicode=")" horiz-adv-x="788" d="M12 1585h211q212-165 342.5-421.5T696 641q0-264-129-518.5T223-301H12Q210-77 293.5 152.5T377 643q0 262-83.5 492T12 1585z"/><glyph glyph-name="asterisk" unicode="*" horiz-adv-x="1150" d="M705 1483l-21-316 285 117 80-252-293-78 192-243-209-156-161 270-166-272-209 156 196 245-297 78 80 252 285-113-23 312h261z"/><glyph glyph-name="plus" unicode="+" horiz-adv-x="1667" d="M963 1354V854h499V596H963V94l-258 2v500H205v258h500v500h258z"/><glyph glyph-name="comma" unicode="," horiz-adv-x="722" d="M610 285L297-215H92l166 500h352z"/><glyph glyph-name="hyphen" unicode="-" horiz-adv-x="1071" d="M907 766V504H164v262h743z"/><glyph glyph-name="period" unicode="." horiz-adv-x="690" d="M330 342q76 0 131-55t55-131q0-77-55-132T330-31 198.5 24.5 143 156t55 131 132 55z"/><glyph glyph-name="slash" unicode="/" horiz-adv-x="1148" d="M1118 1583L279 0H31l839 1583h248z"/><glyph glyph-name="zero" unicode="0" horiz-adv-x="1363" d="M682 1513q263 0 421.5-198T1262 741t-158.5-574T682-31 260.5 167 102 741t158.5 574T682 1513zm0-307q-119 0-177.5-112.5T446 741t58.5-352.5T682 276t177.5 112.5T918 741t-58.5 352.5T682 1206z"/><glyph glyph-name="one" unicode="1" horiz-adv-x="923" d="M698 1483V0H350v1014H90v233q124 6 211.5 68T424 1483h274z"/><glyph glyph-name="two" unicode="2" horiz-adv-x="1142" d="M571 1513q217 0 353.5-128.5T1061 1063q0-29-2.5-54.5T1047 956t-15-46.5-23.5-48T981 817t-36-50-38-50-46.5-58-49.5-61L561 287h473V0H123v223l516 633q63 76 83.5 112t20.5 85q0 77-46 124.5T571 1225q-94 0-141-63t-39-161H82q-8 222 126 367t363 145z"/><glyph glyph-name="three" unicode="3" horiz-adv-x="1069" d="M901 1483v-221L655 971q147-41 239.5-159T987 514q0-169-85.5-293.5T670 33.5 336-29Q207-29 82 14v308q115-56 256-56 149 0 235 64.5T659 516q0 96-53.5 145.5T473 711q-102 0-209-101v316l232 276H96v281h805z"/><glyph glyph-name="four" unicode="4" horiz-adv-x="1249" d="M948 1483L442 575h295v220l318 2V575h123V299h-123V0L737-2v301H78v281l504 903h366z"/><glyph glyph-name="five" unicode="5" horiz-adv-x="1089" d="M909 1483v-281H463l-14-231q58 10 106 10 91 0 173-32t144.5-91 99-149 36.5-199q0-168-84.5-293T696 28.5 373-35Q202-35 80 18l20 299q109-57 260-57 147 0 233.5 64T680 508q0 97-53 147t-133 50q-98 0-158-82l-209 86 53 774h729z"/><glyph glyph-name="six" unicode="6" horiz-adv-x="1208" d="M965 1483L571 879q61 14 117 14 63 0 124.5-17T931 823.5t100-86.5 69-123.5 26-158.5q0-214-148-353T600-37 226 102.5 82 467q0 147 61 287 37 86 144 254l307 475h371zM608 649q-88 0-140-58t-52-151q0-95 51.5-152T608 231t141 57.5T801 440q0 93-52.5 151T608 649z"/><glyph glyph-name="seven" unicode="7" horiz-adv-x="1132" d="M1061 1483v-269q-149-180-231.5-302T700 666q-48-127-66-278.5T618 0H264q0 397 80 655 87 277 307 541H92v287h969z"/><glyph glyph-name="eight" unicode="8" horiz-adv-x="1232" d="M616 1513q217 0 354.5-113t137.5-298q0-198-162-320 104-57 154.5-153.5T1151 418q0-205-148-330T616-37 229.5 88 82 418q0 114 50.5 210.5T287 782q-162 122-162 320 0 185 137 298t354 113zm-2-874q-82 0-132-59.5T432 432t50-147.5T614 225t132.5 59.5T797 432t-50.5 147.5T614 639zm2 612q-70 0-112.5-48T461 1081q0-77 43.5-131.5T616 895t112 54.5 44 131.5q0 74-43 122t-113 48z"/><glyph glyph-name="nine" unicode="9" horiz-adv-x="1208" d="M608 1520q230 0 374-139.5t144-364.5q0-147-61-287-39-91-143-254L614 0H244l393 604q-61-14-117-14-63 0-124.5 17T277 659.5 177 746t-69 123.5T82 1028q0 214 148 353t378 139zm-8-269q-88 0-140-57t-52-150q0-95 52-152.5T600 834q89 0 141 57.5t52 152.5q0 93-52.5 150T600 1251z"/><glyph glyph-name="colon" unicode=":" horiz-adv-x="694" d="M520 1094V750H174v344h346zm0-750V0H174v344h346z"/><glyph glyph-name="semicolon" unicode=";" horiz-adv-x="784" d="M580 346L287-154H61l146 500h373zm-11 748V750H223v344h346z"/><glyph glyph-name="less" unicode="&lt;" horiz-adv-x="1110" d="M803 1432l205-205-502-498 502-500L803 29 102 731z"/><glyph glyph-name="equal" unicode="=" horiz-adv-x="1503" d="M1298 1112V854H205v258h1093zm0-516V338H205v258h1093z"/><glyph glyph-name="greater" unicode="&gt;" horiz-adv-x="1110" d="M307 1432l701-701L307 29 102 229l502 500-502 498z"/><glyph glyph-name="question" unicode="?" horiz-adv-x="1095" d="M541 1518q181 0 296-105.5T952 1145q0-97-47.5-180T748 770L621 639V492H330v233l250 260q47 51 67.5 86.5T668 1143q0 53-36.5 85t-94.5 32q-69 0-105-46.5T401 1096H123q-8 183 109 302.5T541 1518zM479 342q77 0 132-55t55-131-55-131.5T479-31q-76 0-131 55t-55 132q0 76 54.5 131T479 342z"/><glyph glyph-name="at" unicode="@" horiz-adv-x="1992" d="M995 1470q174 0 332-67.5t273-181.5 182.5-272 66.5-331q0-208-92-387h-256q129 163 129 385 0 177-83.5 323.5t-229.5 230-322 83.5-321.5-83.5T445 940t-83-322 83-321.5 228.5-229T995-16q191 0 346 102v-246q-162-73-346-73-174 0-331.5 67.5T392 15.5t-181.5 271T143 618t67.5 331.5T392 1221t271.5 181.5T995 1470zm115-944v52q-128-23-174-29-42-7-64-32t-22-58q0-40 29.5-66t70.5-26q56 0 108 40.5t52 118.5zm-106 500q69 0 126.5-16t106.5-50.5 76.5-98T1341 711V231h-147l-59 88q-71-110-226-110-124 0-201 71.5T631 455q0 90 60.5 147.5T856 678l180 31q38 6 56 21t18 46q0 44-34 64t-81 20q-58 0-88.5-27.5T874 760H657q6 118 98 192t249 74z"/><glyph glyph-name="A" unicode="A" horiz-adv-x="1482" d="M899 1483L1483 0h-348l-117 299H465L348 0H0l584 1483h315zm-158-473L571 573h340z"/><glyph glyph-name="B" unicode="B" horiz-adv-x="1323" d="M143 1483h588q173 0 296.5-123.5T1151 1061q0-170-131-270 110-39 176-125.5t66-216.5q0-188-130-318.5T817 0H143v1483zm324-856V258h285q75 0 128.5 53T934 440t-53.5 130.5T752 625zm0 602V881h197q72 0 123 50t51 122q0 73-51 123.5T664 1227z"/><glyph glyph-name="C" unicode="C" horiz-adv-x="1443" d="M897 1513q239 0 434-102v-303q-193 111-391 111-100 0-189-30.5t-159-88T481 951t-41-206 41-206 111-149.5T751 302t189-30q198 0 391 111V80Q1134-23 897-23q-162 0-308 53.5t-256.5 150-175.5 243T92 745t65 321.5 175.5 243 256.5 150 308 53.5z"/><glyph glyph-name="D" unicode="D" horiz-adv-x="1505" d="M143 1483h547q221 0 392-98.5t261.5-266.5 90.5-377-91-377-261.5-266T690 0H143v1483zm521-297H483V295h181q194 0 308.5 126.5T1087 739q0 192-114.5 319.5T664 1186z"/><glyph glyph-name="E" unicode="E" horiz-adv-x="1105" d="M993 1483v-297H477V907h475V618H477V297h516V0H143v1483h850z"/><glyph glyph-name="F" unicode="F" horiz-adv-x="1085" d="M993 1483v-297H481V907h471V618H481V0H143v1483h850z"/><glyph glyph-name="G" unicode="G" horiz-adv-x="1624" d="M911 1513q278 0 508-129v-309q-105 68-232.5 108T942 1223q-80 0-154-19t-138.5-58.5T537 1050t-75.5-134.5T434 745q0-114 41.5-206T587 389t159-89 188-32q133 0 244 51v230H942v264h549V162Q1262-23 924-23q-372 0-602 216Q92 410 92 745q0 175 64.5 321T332 1309t260 150.5 319 53.5z"/><glyph glyph-name="H" unicode="H" horiz-adv-x="1644" d="M1501 1483V0h-340v614H483V0H143v1483h340V911h678v572h340z"/><glyph glyph-name="I" unicode="I" horiz-adv-x="649" d="M496 1483V0H154v1483h342z"/><glyph glyph-name="J" unicode="J" horiz-adv-x="770" d="M637 1483V344q0-172-101.5-273.5T262-31Q163-31 72 0v266q56-22 104-22 60 0 92.5 30.5T301 365l-2 1118h338z"/><glyph glyph-name="K" unicode="K" horiz-adv-x="1384" d="M1384 1483L793 741h-2l2-2L1397 0H983L489 621l-4-3h-4V0H143v1483h338V862h4l4-2 482 623h413z"/><glyph glyph-name="L" unicode="L" horiz-adv-x="1054" d="M481 1483V307h482V0H143v1483h338z"/><glyph glyph-name="M" unicode="M" horiz-adv-x="2129" d="M1890 1483L2048 0h-342l-104 979L1190-31H940L528 979 424 0H82l158 1483h426l399-979 399 979h426z"/><glyph glyph-name="N" unicode="N" horiz-adv-x="1673" d="M455 1487l737-940v936h338V-4h-311L481 932V0H143v1487h312z"/><glyph glyph-name="O" unicode="O" horiz-adv-x="1748" d="M874 1513q120 0 234.5-32t213.5-97 174-155.5 118-216.5 43-271-43-271-118-216.5T1322 98 1108.5 1 874-31 640 1 426.5 98t-174 155.5T135 470 92 741t43 271 117.5 216.5 174 155.5 213.5 97 234 32zm0-307q-121 0-220.5-58T495 983t-59-242q0-205 126.5-335T874 276t312 130 127 335q0 101-34.5 188.5t-94 148-140 94.5-170.5 34z"/><glyph glyph-name="P" unicode="P" horiz-adv-x="1241" d="M143 1483h553q192 0 327.5-135.5T1159 1020t-135.5-327.5T696 557H475V0H143v1483zm486-273H475V827l154 2q77 0 133.5 55t56.5 136q0 79-56 134.5T629 1210z"/><glyph glyph-name="Q" unicode="Q" horiz-adv-x="1789" d="M874 1513q120 0 234.5-32t213.5-97 174-155.5 118-216.5 43-271q0-240-115-424L1833 0h-401l-103 102Q1128-31 874-31 754-31 640 1T426.5 98t-174 155.5T135 470 92 741t43 271 117.5 216.5 174 155.5 213.5 97 234 32zm0-307q-121 0-220.5-58T495 983t-59-242q0-205 126.5-335T874 276t312 130 127 335q0 101-34.5 188.5t-94 148-140 94.5-170.5 34z"/><glyph glyph-name="R" unicode="R" horiz-adv-x="1280" d="M143 1483h553q192 0 327.5-135.5T1159 1020q0-150-87-269T846 586L1300 0H897L504 561h-29V0H143v1483zm486-273H475V827l154 2q77 0 133.5 55t56.5 136q0 79-56 134.5T629 1210z"/><glyph glyph-name="S" unicode="S" horiz-adv-x="1171" d="M584 1509q116 0 228-34t198-99v-301q-96 67-201 108.5T614 1225q-88 0-138-41t-50-113q0-40 15.5-69.5t54.5-54 75.5-39.5T680 868q46-16 77-28.5t77.5-35 77.5-44 66-55.5 56-72 35-89 14-110q0-92-32.5-174t-95-146T792 12.5 565-25q-244 0-448 136v305q103-76 213-116t205-40q106 0 157 46.5T743 422q0 31-12.5 56t-30 42-53 34-65 28.5T499 612q-8 3-12 4-44 15-74 27t-75 34-76.5 44.5T195 778t-56.5 72-36 90T88 1051q0 89 31 170t90.5 146 156 103.5T584 1509z"/><glyph glyph-name="T" unicode="T" horiz-adv-x="1142" d="M1081 1483v-297H741V0H401v1186H61v297h1020z"/><glyph glyph-name="U" unicode="U" horiz-adv-x="1519" d="M1376 1483V586q0-140-48.5-257t-132-195-196-121.5T760-31 520.5 12.5 324 134 191.5 329 143 586v897h338l2-926q0-121 80-198.5T760 281t196.5 77.5T1036 557l2 926h338z"/><glyph glyph-name="V" unicode="V" horiz-adv-x="1544" d="M1493 1483L924-6H621L51 1483h371l350-994 350 994h371z"/><glyph glyph-name="W" unicode="W" horiz-adv-x="2437" d="M2386 1483L1896 0h-331l-346 961L872 0H541L51 1483h365l301-994 358 994h287l358-994 301 994h365z"/><glyph glyph-name="X" unicode="X" horiz-adv-x="1447" d="M1393 1483L924 786 1454 0h-399L725 502 393 0H-6l532 786-471 697h400l270-412 268 412h400z"/><glyph glyph-name="Y" unicode="Y" horiz-adv-x="1392" d="M1393 1483L864 680V0H528v680L0 1483h379l317-496 318 496h379z"/><glyph glyph-name="Z" unicode="Z" horiz-adv-x="1288" d="M1171 1483v-230L555 297h616V0H117v229l616 957H117v297h1054z"/><glyph glyph-name="bracketleft" unicode="[" horiz-adv-x="720" d="M674 1597v-221H379V-82h295v-221H133v1900h541z"/><glyph glyph-name="backslash" unicode="\" horiz-adv-x="1169" d="M279 1583L1139-31H891L31 1583h248z"/><glyph glyph-name="bracketright" unicode="]" horiz-adv-x="720" d="M588 1597V-303H47v221h295v1458H47v221h541z"/><glyph glyph-name="asciicircum" unicode="^" horiz-adv-x="1517" d="M897 1483l457-920h-318l-278 572-277-572H164l454 920h279z"/><glyph glyph-name="underscore" unicode="_" horiz-adv-x="1193" d="M1153 0v-217H41V0h1112z"/><glyph glyph-name="grave" unicode="`" horiz-adv-x="1228" d="M535 1513l151-294H535l-338 294h338z"/><glyph glyph-name="a" unicode="a" horiz-adv-x="1155" d="M578 1124q77 0 144-13t129-45.5T957 983t70-128 26-177V0H836l-72 125Q657-31 442-31 265-31 158 70T51 315q0 122 83 202.5T367 633l258 59q53 12 77.5 30t24.5 56q0 55-47.5 83T565 889q-78 0-124-38t-48-103H88q11 169 140.5 272.5T578 1124zm149-708v80q-22-5-36.5-7.5t-27.5-5-61.5-11.5T479 449q-57-10-89-45t-32-82q0-57 42-93t102-36q35 0 72 13t72.5 38 58 70T727 416z"/><glyph glyph-name="b" unicode="b" horiz-adv-x="1341" d="M465 1585V991h4q110 133 303 133 114 0 210-49t158-130 96-184 34-214-34.5-214.5-96.5-185-157-130T774-31q-114 0-196.5 47T449 145L365 0H133v1585h332zm235-735q-115 0-176-86t-61-217q0-132 61-218.5T700 242q113 0 174.5 86.5T936 547q0 130-61.5 216.5T700 850z"/><glyph glyph-name="c" unicode="c" horiz-adv-x="1079" d="M670 1124q176 0 317-75V766q-55 37-129.5 60.5T709 850q-136 0-223-81.5T399 547t87-221.5T709 244q74 0 148.5 23.5T987 328V45Q847-31 672-31q-173 0-309 71T149.5 243 72 547q0 271 182 432 82 73 190.5 109t225.5 36z"/><glyph glyph-name="d" unicode="d" horiz-adv-x="1341" d="M1208 1585V0H977l-84 145Q847 63 764 16T567-31Q476-31 396.5.5T258 87.5 157 216 93.5 373.5 72 547q0 111 34 214t95.5 184T359 1075t210 49q193 0 303-133h5v594h331zM641 850q-113 0-174-86.5T406 547q0-132 61-218.5T641 242q115 0 176.5 86.5T879 547q0 130-61.5 216.5T641 850z"/><glyph glyph-name="e" unicode="e" horiz-adv-x="1236" d="M618 1124q110 0 207-36.5t173.5-106T1120 800t45-253q0-47-6-96H371q18-110 85-168t162-58q64 0 117.5 27t83.5 78h316q-52-171-189-265T625-29Q513-29 414 7.5T238 114 116.5 295.5 72 547q0 113 29 208t80.5 162.5T302 1032t149 69.5 167 22.5zm0-254q-93 0-158-53t-85-155h487q-20 102-85 155t-159 53z"/><glyph glyph-name="f" unicode="f" horiz-adv-x="811" d="M561 1616q113 0 209-35v-264q-69 31-123 31-123 0-123-119v-135h246V825H524V0H195v825H72v269h123v155q0 169 98.5 268t267.5 99z"/><glyph glyph-name="g" unicode="g" horiz-adv-x="1302" d="M598 1116q43 0 155-11t222-11h276V831h-180q21-72 21-135 0-130-70-226T840 327.5 590 281q-90 0-166 20-23-23-23-53 0-22 12-36.5t46-25 57-15.5 82-14l18-3q189-30 266-57 190-65 220-214 6-29 6-63 0-111-66-188.5T866-482t-256-36q-231 0-452 96v258q91-51 210-87t244-36q185 0 185 88 0 14-4.5 25t-17 19-22 13.5-32 10T687-125t-40 6Q398-83 299-39 157 23 154 158q-3 130 110 213Q92 487 92 698q0 99 40 179.5t109.5 132 161 79T598 1116zm-2-235q-89 0-143-50t-54-133 54-132.5T596 516t143 49.5T793 698t-54 133-143 50z"/><glyph glyph-name="h" unicode="h" horiz-adv-x="1277" d="M465 1585V993q51 69 133 102t172 33q183 0 294.5-125.5T1176 676V0H842v569q0 45-2 77t-12.5 73-28.5 66-53 43-84 18q-45 0-79.5-13.5t-55-39.5-33.5-52-18.5-61.5-7-58.5-1.5-52V0H133v1585h332z"/><glyph glyph-name="i" unicode="i" horiz-adv-x="620" d="M475 1094V0H145v1094h330zm2 419v-270H143v270h334z"/><glyph glyph-name="j" unicode="j" horiz-adv-x="595" d="M473 1094V-152q0-169-99-267.5T106-518q-93 0-188 29v262q59-23 105-23 120 0 120 119v1225h330zm-6 419v-270H133v270h334z"/><glyph glyph-name="k" unicode="k" horiz-adv-x="1234" d="M467 1585V596l391 498h381L807 547 1249 0H856L467 492V0H135v1585h332z"/><glyph glyph-name="l" unicode="l" horiz-adv-x="602" d="M469 1585V0H133v1585h336z"/><glyph glyph-name="m" unicode="m" horiz-adv-x="1966" d="M1491 1128q174 0 273.5-120t99.5-314V0h-338v578q0 23-.5 36.5t-2 40.5-6.5 45-12.5 43-21 41-31 31.5-43 23-57.5 7.5q-50 0-87-20.5t-56-49-30-69-13.5-69-2.5-60.5V0H834v565q0 31-1 51t-5.5 58-16.5 64-31 53-51.5 41-75.5 14q-38 0-67.5-12t-48-28.5-32-44.5-20-49.5-10-54.5-4-49.5-.5-42.5V0H133v1094h254l82-142q71 93 147.5 134.5T799 1128q226 0 336-184 57 88 153 136t203 48z"/><glyph glyph-name="n" unicode="n" horiz-adv-x="1286" d="M793 1124q106 0 184-35.5t122-100 64.5-144T1184 666V0H850v571q0 31-.5 47.5t-2 47.5-6.5 49-13 43-21.5 40-32 30-45 21.5T670 856q-42 0-74.5-12.5t-53.5-30-36-48.5-22.5-56-11.5-65-4.5-63-.5-61V0H133v1094h254l84-144q55 91 133.5 132.5T793 1124z"/><glyph glyph-name="o" unicode="o" horiz-adv-x="1331" d="M666 1124q117 0 222.5-36.5t189-106 133-182T1260 547t-49.5-252.5-133-182.5-189-106.5T666-31 443.5 5.5 254.5 112t-133 182.5T72 547t49.5 252.5 133 182 189 106T666 1124zm0-272q-122 0-197.5-79T393 547t75.5-226T666 242t197 79 75 226-75 226-197 79z"/><glyph glyph-name="p" unicode="p" horiz-adv-x="1341" d="M774 1124q113 0 208-48.5T1139 946t96.5-184.5T1270 547t-34-214-96-184.5T982 18 772-31q-193 0-303 133h-4v-594H133v1586h232l84-146q46 82 128.5 129t196.5 47zm-74-272q-115 0-176-86.5T463 547q0-131 61-217t176-86q113 0 174.5 86.5T936 547q0 132-61.5 218.5T700 852z"/><glyph glyph-name="q" unicode="q" horiz-adv-x="1341" d="M567 1124q114 0 197-47t129-129l84 146h231V-492H877v594h-5Q762-31 569-31q-114 0-210 49T201.5 148.5 106 333 72 547t34 214.5T202 946t157 129.5 208 48.5zm74-272q-113 0-174-86.5T406 547q0-130 61-216.5T641 244q115 0 176.5 86.5T879 547q0 132-61.5 218.5T641 852z"/><glyph glyph-name="r" unicode="r" horiz-adv-x="841" d="M733 1116q52 0 88-12V805q-51 14-92 14-52 0-97-19.5T549 739t-60-114-22-170V0H133v1094h215l103-179q43 98 115 149.5t167 51.5z"/><glyph glyph-name="s" unicode="s" horiz-adv-x="989" d="M496 1124q191 0 360-94V770Q664 887 516 887q-129 0-129-92 0-53 43.5-81T586 649q42-14 68.5-23.5t66.5-27 65.5-34 55-42.5 46.5-54.5 28.5-67T928 317q0-156-122-252T481-31Q276-31 106 74v262q86-59 182-94t183-35q145 0 145 102 0 51-39.5 75.5T418 446q-51 16-90 31t-89.5 44.5-83 64-56 88T76 791q0 151 113.5 242t306.5 91z"/><glyph glyph-name="t" unicode="t" horiz-adv-x="811" d="M504 1380v-286h246V831H504V356q0-118 123-118 56 0 123 30V4q-96-35-209-35-169 0-268 99t-99 268v495H31v242h53q53 0 82 29.5t29 83.5v194h309z"/><glyph glyph-name="u" unicode="u" horiz-adv-x="1241" d="M1128 1094V477q0-236-141.5-372T621-31 255 105 113 477v617h329V430q0-80 51.5-129T621 252q75 0 126.5 49T799 430v664h329z"/><glyph glyph-name="v" unicode="v" horiz-adv-x="1200" d="M1221 1094L713 0H487L-20 1094h329l291-635 291 635h330z"/><glyph glyph-name="w" unicode="w" horiz-adv-x="1888" d="M1909 1094L1442 0h-209L944 621 655 0H446L-20 1094h329l256-594 273 594h213l274-594 254 594h330z"/><glyph glyph-name="x" unicode="x" horiz-adv-x="1241" d="M1196 1094L813 586 1257 0H868L621 350 373 0H-16l444 586-383 508h385l191-273 190 273h385z"/><glyph glyph-name="y" unicode="y" horiz-adv-x="1241" d="M1241 1094L506-492H172l281 609L0 1094h330l291-633 290 633h330z"/><glyph glyph-name="z" unicode="z" horiz-adv-x="1046" d="M958 1094V911L498 262h456V0H88v182l461 649H92v263h866z"/><glyph glyph-name="braceleft" unicode="{" horiz-adv-x="897" d="M754 1606v-240h-62l-40.5-3.5-32.5-5-24-10.5-18-14-12-22-8-28-4-38-2.5-46-1.5-58q-1-65-2.5-98t-4.5-79.5-7.5-70-13-56.5-20.5-52-30.5-44.5-41.5-46-54-43.5q35-26 60.5-51.5t44-48.5 30.5-56 19-59.5 11-75 5.5-87T549 164q1-50 2-73t5-53.5T563.5-4 579-30.5 601.5-49t34-8.5T681-63h73v-240h-88q-197 0-285 89T293 70v159q0 166-53.5 236T72 537v231q114 0 167.5 69.5T293 1071v162q0 195 88 284t285 89h88z"/><glyph glyph-name="bar" unicode="|" horiz-adv-x="970" d="M602 1597V-303H369v1900h233z"/><glyph glyph-name="braceright" unicode="}" horiz-adv-x="897" d="M143 1606h88q197 0 285-89t88-284v-162q0-164 53.5-233.5T825 768V537q-114-2-167.5-72T604 229V70q0-195-88-284t-285-89h-88v240h73l45.5 5.5 34 8.5L318-30.5 333.5-4l7.5 41.5 5 53.5 2 73q2 74 3 110.5t5 86.5 11.5 75.5 19 58.5 30.5 56 44 48 61 52q-41 31-68.5 57.5t-47 62-30 64T360 917t-8 97-4 127q-1 40-1.5 59.5t-3 47-4.5 38.5-8.5 27.5T319 1335t-18 14-24 10-32.5 4-40 3H143v240z"/><glyph glyph-name="asciitilde" unicode="~" horiz-adv-x="1519" d="M514 961q59 0 115.5-18T780 883q101-45 149.5-61.5T1026 805q66 0 131.5 34T1315 954V692q-143-143-297-143-113 0-277 76-65 30-96 43t-73.5 25-77.5 12q-63 0-126.5-35T205 551v266q92 76 164 110t145 34z"/><glyph glyph-name="exclamdown" unicode="¡" horiz-adv-x="720" d="M459 590l71-649v-326H178v324l72 651h209zm-99 534q77 0 132-55t55-131-55-131-132-55q-76 0-131 55t-55 131 55 131 131 55z"/><glyph glyph-name="cent" unicode="¢" horiz-adv-x="1191" d="M874 1485l-26-180q89-16 180-64V958q-93 64-217 80l-86-600 31-2q66 0 142 23.5t130 60.5V238q-140-76-315-76h-29L662 2H504l26 182q-191 50-304 197.5T113 739q0 271 182 432 158 139 397 146l25 168h157zM573 481l78 549q-99-27-155-102t-56-189q0-177 133-258z"/><glyph glyph-name="sterling" unicode="£" horiz-adv-x="1243" d="M680 1511q165 0 336-88l4-321q-63 46-146 79t-151 33q-71 0-113.5-41T567 1044V893h324V602H569V293h521V0H246v602H61v291h185v184q0 105 34 188.5t94 136.5 138 81 168 28z"/><glyph glyph-name="currency" unicode="¤" horiz-adv-x="1503" d="M1178 1372l223-221-141-141q77-132 77-287 0-150-75-287l139-139-223-221-140 139q-134-78-286-78t-289 78L324 76 102 297l140 139q-76 139-76 287t76 287l-140 141 222 221 141-141q134 78 287 78 148 0 284-76zm-426-332q-136 0-230-91.5T428 723t94-224.5T752 408q134 0 226.5 90.5T1071 723t-92.5 225.5T752 1040z"/><glyph glyph-name="yen" unicode="¥" horiz-adv-x="1474" d="M1434 1483L983 799h301V582H905V426h379V209H905V0H569v209H190v217h379v156H190v217h302L41 1483h379l317-496 318 496h379z"/><glyph glyph-name="brokenbar" unicode="¦" horiz-adv-x="970" d="M602 1597V915H369v682h233zm0-1218v-682H369v682h233z"/><glyph glyph-name="section" unicode="§" horiz-adv-x="1239" d="M621 1511q175 0 370-73v-250q-234 78-338 78-74 0-114.5-31.5T498 1157q0-71 88-104l192-70q137-48 217-133t80-203q0-154-127-266 127-97 127-244 0-74-31-142t-88.5-122.5-149-86.5T604-246q-94 0-204 21t-197 53V82Q468 0 575 0q87 0 126.5 36.5T741 125q0 70-88 104-8 3-83.5 31T461 301q-135 46-216 132t-81 200q0 153 131 266-131 97-131 242 0 67 29 131.5t83.5 118.5 144.5 87 200 33zm32-772l-41 17q-54-9-84-38t-30-71q0-70 88-104 3-1 11-4t22-8 36-11q42 13 64 45t22 70q0 69-88 104z"/><glyph glyph-name="dieresis" unicode="¨" horiz-adv-x="1228" d="M854 1528q68 0 115-47t47-115q0-66-47.5-113T854 1206q-66 0-113 47t-47 113q0 67 47 114.5t113 47.5zm-477 0q66 0 113-47.5t47-114.5q0-66-47-113t-113-47q-67 0-114.5 47T215 1366q0 68 47.5 115t114.5 47z"/><glyph glyph-name="copyright" unicode="©" horiz-adv-x="2021" d="M979 1470q174 0 332-67.5t272.5-181.5 182-272 67.5-331-67.5-331-182-271.5-272.5-181T979-233t-331.5 67.5T376 15.5t-181.5 271T127 618t67.5 331.5T376 1221t271.5 181.5T979 1470zm33-436q119 0 217-53V786q-36 28-90 47t-111 19q-104 0-173-64t-69-174q0-109 68.5-173t173.5-64q57 0 111 18.5t90 46.5V248q-98-53-217-53-114 0-212 49.5t-160 147T578 614q0 95 36 175t96.5 133 138.5 82.5 163 29.5zm-33 234q-132 0-252-51.5t-206.5-139T383 870t-51-252q0-176 86.5-325.5T654 56t325-87 325.5 87T1541 292.5t87 325.5q0 132-51.5 252.5T1438 1078t-207 138.5-252 51.5z"/><glyph glyph-name="guillemotleft" unicode="«" horiz-adv-x="1574" d="M1411 1008l-326-455 326-455h-330L754 553l327 455h330zm-590 0L498 553 821 98H494L164 553l330 455h327z"/><glyph glyph-name="logicalnot" unicode="¬" horiz-adv-x="1585" d="M1421 1112V354h-260l2 498-999 2v258h1257z"/><glyph glyph-name="registered" unicode="®" horiz-adv-x="1959" d="M979 1470q174 0 332-67.5t272.5-181.5 182-272 67.5-331-67.5-331-182-271.5-272.5-181T979-233t-331.5 67.5T376 15.5t-181.5 271T127 618t67.5 331.5T376 1221t271.5 181.5T979 1470zm0-202q-132 0-252-51.5t-206.5-139T383 870t-51-252q0-176 86.5-325.5T654 56t325-87 325.5 87T1541 292.5t87 325.5q0 132-51.5 252.5T1438 1078t-207 138.5-252 51.5zm-287-250h352q103 0 175.5-72.5T1292 770q0-85-49.5-148T1114 537l258-322h-244L913 528h-6V215H692v803zm297-154h-82V672h82q38 0 66 28t28 68-28 68-66 28z"/><glyph glyph-name="macron" unicode="¯" horiz-adv-x="1228" d="M975 1483v-234H254v234h721z"/><glyph glyph-name="degree" unicode="°" horiz-adv-x="897" d="M449 1812q138 0 236.5-99t98.5-236-98.5-236.5T449 1141t-237 99.5-99 236.5 99 236 237 99zm0-186q-65 0-109.5-42.5T295 1477t44.5-107 109.5-43q63 0 107 43t44 107-43.5 106.5T449 1626z"/><glyph glyph-name="plusminus" unicode="±" horiz-adv-x="1380" d="M819 1354v-316l357-2V821H819V504l-258 2v315H205v217h356v316h258zM205 334l971-4V94l-971 2v238z"/><glyph glyph-name="acute" unicode="´" horiz-adv-x="1228" d="M1036 1513l-338-294H547l151 294h338z"/><glyph glyph-name="paragraph" unicode="¶" horiz-adv-x="1228" d="M1176 1483v-228h-127V-76H813v1331H670V-76H438v785q-150 13-253 125T82 1094q0 160 114.5 274.5T473 1483h703z"/><glyph glyph-name="periodcentered" unicode="·" horiz-adv-x="608" d="M303 795q81 0 139-57.5T500 600q0-82-57.5-139.5T303 403t-139.5 57.5T106 600q0 80 58 137.5T303 795z"/><glyph glyph-name="cedilla" unicode="¸" horiz-adv-x="1228" d="M678 6l-51-86q12 2 32 2 67 0 116.5-38T825-231q0-85-63-127.5T598-401q-105 0-203 36l43 103q82-33 135-33 36 0 57 16t21 46q0 53-69 53-30 0-64-17l-51 41L561 6h117z"/><glyph glyph-name="guillemotright" unicode="»" horiz-adv-x="1574" d="M1081 1008l330-455-330-455H754l323 455-323 455h327zm-587 0l327-455L494 98H164l325 455-325 455h330z"/><glyph glyph-name="questiondown" unicode="¿" horiz-adv-x="1095" d="M766 602V369L516 109q-47-51-67.5-86.5T428-49q0-53 36.5-85t94.5-32q69 0 104.5 46.5T694-2h279q8-183-109-302.5T555-424q-181 0-296.5 105.5T143-51q0 96 48 179t157 196l127 131v147h291zm-150 522q77 0 132-55t55-131-55-131-132-55q-76 0-131 55t-55 131 55 131 131 55z"/><glyph glyph-name="Agrave" unicode="À" horiz-adv-x="1482" d="M899 1483L1483 0h-348l-117 299H465L348 0H0l584 1483h315zm-158-473L571 573h340zm-79 942l151-295H662l-338 295h338z"/><glyph glyph-name="Aacute" unicode="Á" horiz-adv-x="1482" d="M899 1483L1483 0h-348l-117 299H465L348 0H0l584 1483h315zm-158-473L571 573h340zm420 942l-338-295H672l151 295h338z"/><glyph glyph-name="Acircumflex" unicode="Â" horiz-adv-x="1482" d="M899 1483L1483 0h-348l-117 299H465L348 0H0l584 1483h315zm-158-473L571 573h340zm172 942l224-295H881l-133 160-142-160H350l232 295h331z"/><glyph glyph-name="Atilde" unicode="Ã" horiz-adv-x="1482" d="M899 1483L1483 0h-348l-117 299H465L348 0H0l584 1483h315zm-158-473L571 573h340zm250 942h133q-6-136-66-217.5T899 1653q-53 0-117 26.5t-119 53-88 26.5q-36 0-60-26.5t-30-75.5H356q9 138 71.5 216.5T586 1952q54 0 115-27t114-53.5 88-26.5q70 0 88 107z"/><glyph glyph-name="Adieresis" unicode="Ä" horiz-adv-x="1482" d="M899 1483L1483 0h-348l-117 299H465L348 0H0l584 1483h315zm-158-473L571 573h340zm240 956q67 0 114.5-47t47.5-115q0-66-47.5-112.5T981 1645q-66 0-113 46.5T821 1804q0 67 47 114.5t113 47.5zm-477 0q66 0 113-47.5t47-114.5q0-66-47-112.5T504 1645q-67 0-114.5 46.5T342 1804q0 68 47 115t115 47z"/><glyph glyph-name="Aring" unicode="Å" horiz-adv-x="1482" d="M899 1483L1483 0h-348l-117 299H465L348 0H0l584 1483h315zm-158-473L571 573h340zm0 1020q92 0 158-66.5t66-157.5-66-157-158-66q-91 0-157 66t-66 157 66 157.5 157 66.5zm0-127q-40 0-68-28.5t-28-68.5 28-68 68-28 68.5 28 28.5 68-28.5 68.5T741 1903z"/><glyph glyph-name="AE" unicode="Æ" horiz-adv-x="2041" d="M1950 1483v-297h-516V905h475V621h-475V297h516V0h-850v299H516L305 0h-407L940 1483h1010zm-850-353L709 573h391v557z"/><glyph glyph-name="Ccedilla" unicode="Ç" horiz-adv-x="1443" d="M897 1513q239 0 434-102v-303q-193 111-391 111-100 0-189-30.5t-159-88T481 951t-41-206 41-206 111-149.5T751 302t189-30q198 0 391 111V80Q1134-23 897-23q-162 0-308 53.5t-256.5 150-175.5 243T92 745t65 321.5 175.5 243 256.5 150 308 53.5zM969 6l-51-86q12 2 32 2 67 0 116.5-38t49.5-115q0-85-63-127.5T889-401q-105 0-203 36l43 103q83-33 135-33 36 0 57 16t21 46q0 53-70 53-29 0-63-17l-51 41L852 6h117z"/><glyph glyph-name="Egrave" unicode="È" horiz-adv-x="1105" d="M993 1483v-297H477V907h475V618H477V297h516V0H143v1483h850zm-495 469l151-295H498l-338 295h338z"/><glyph glyph-name="Eacute" unicode="É" horiz-adv-x="1105" d="M993 1483v-297H477V907h475V618H477V297h516V0H143v1483h850zm4 469l-338-295H508l151 295h338z"/><glyph glyph-name="Ecircumflex" unicode="Ê" horiz-adv-x="1105" d="M993 1483v-297H477V907h475V618H477V297h516V0H143v1483h850zm-243 469l223-295H717l-133 160-142-160H186l232 295h332z"/><glyph glyph-name="Edieresis" unicode="Ë" horiz-adv-x="1105" d="M993 1483v-297H477V907h475V618H477V297h516V0H143v1483h850zm-176 483q67 0 114.5-47t47.5-115q0-66-47.5-112.5T817 1645q-66 0-113 46.5T657 1804q0 67 47 114.5t113 47.5zm-477 0q66 0 113-47.5t47-114.5q0-66-47-112.5T340 1645q-67 0-114.5 46.5T178 1804q0 68 47 115t115 47z"/><glyph glyph-name="Igrave" unicode="Ì" horiz-adv-x="649" d="M496 1483V0H154v1483h342zm-252 469l151-295H244l-338 295h338z"/><glyph glyph-name="Iacute" unicode="Í" horiz-adv-x="649" d="M496 1483V0H154v1483h342zm247 469l-337-295H254l152 295h337z"/><glyph glyph-name="Icircumflex" unicode="Î" horiz-adv-x="649" d="M496 1483V0H154v1483h342zm0 469l223-295H463l-133 160-142-160H-68l232 295h332z"/><glyph glyph-name="Idieresis" unicode="Ï" horiz-adv-x="649" d="M496 1483V0H154v1483h342zm67 483q67 0 114.5-47t47.5-115q0-66-47.5-112.5T563 1645q-66 0-113 46.5T403 1804q0 67 47 114.5t113 47.5zm-477 0q66 0 113-47.5t47-114.5q0-66-47-112.5T86 1645q-67 0-114.5 46.5T-76 1804q0 68 47 115t115 47z"/><glyph glyph-name="Eth" unicode="Ð" horiz-adv-x="1515" d="M154 1483h546q221 0 392-98.5t261.5-266.5 90.5-377-91-377-261.5-266T700 0H154v623H14v233h140v627zm520-297H494V856h282V623H494V295h180q194 0 309 127t115 317q0 192-115 319.5T674 1186z"/><glyph glyph-name="Ntilde" unicode="Ñ" horiz-adv-x="1673" d="M455 1487l737-940v936h338V-4h-311L481 932V0H143v1487h312zm632 465h134q-6-136-66.5-217.5T995 1653q-53 0-116.5 26.5t-118.5 53-88 26.5q-36 0-60-26.5t-30-75.5H453q9 138 71 216.5t158 78.5q54 0 115-27t114-53.5 88-26.5q70 0 88 107z"/><glyph glyph-name="Ograve" unicode="Ò" horiz-adv-x="1748" d="M874 1513q120 0 234.5-32t213.5-97 174-155.5 118-216.5 43-271-43-271-118-216.5T1322 98 1108.5 1 874-31 640 1 426.5 98t-174 155.5T135 470 92 741t43 271 117.5 216.5 174 155.5 213.5 97 234 32zm0-307q-121 0-220.5-58T495 983t-59-242q0-205 126.5-335T874 276t312 130 127 335q0 101-34.5 188.5t-94 148-140 94.5-170.5 34zm-79 746l151-295H795l-338 295h338z"/><glyph glyph-name="Oacute" unicode="Ó" horiz-adv-x="1748" d="M874 1513q120 0 234.5-32t213.5-97 174-155.5 118-216.5 43-271-43-271-118-216.5T1322 98 1108.5 1 874-31 640 1 426.5 98t-174 155.5T135 470 92 741t43 271 117.5 216.5 174 155.5 213.5 97 234 32zm0-307q-121 0-220.5-58T495 983t-59-242q0-205 126.5-335T874 276t312 130 127 335q0 101-34.5 188.5t-94 148-140 94.5-170.5 34zm420 746l-338-295H805l151 295h338z"/><glyph glyph-name="Ocircumflex" unicode="Ô" horiz-adv-x="1748" d="M874 1513q120 0 234.5-32t213.5-97 174-155.5 118-216.5 43-271-43-271-118-216.5T1322 98 1108.5 1 874-31 640 1 426.5 98t-174 155.5T135 470 92 741t43 271 117.5 216.5 174 155.5 213.5 97 234 32zm0-307q-121 0-220.5-58T495 983t-59-242q0-205 126.5-335T874 276t312 130 127 335q0 101-34.5 188.5t-94 148-140 94.5-170.5 34zm173 746l223-295h-256l-133 160-142-160H483l232 295h332z"/><glyph glyph-name="Otilde" unicode="Õ" horiz-adv-x="1748" d="M874 1513q120 0 234.5-32t213.5-97 174-155.5 118-216.5 43-271-43-271-118-216.5T1322 98 1108.5 1 874-31 640 1 426.5 98t-174 155.5T135 470 92 741t43 271 117.5 216.5 174 155.5 213.5 97 234 32zm0-307q-121 0-220.5-58T495 983t-59-242q0-205 126.5-335T874 276t312 130 127 335q0 101-34.5 188.5t-94 148-140 94.5-170.5 34zm250 746h133q-6-136-66-217.5t-159-81.5q-53 0-116.5 26.5t-118.5 53-88 26.5q-36 0-60.5-26.5T618 1657H489q9 138 71.5 216.5T719 1952q54 0 115-27t114-53.5 88-26.5q70 0 88 107z"/><glyph glyph-name="Odieresis" unicode="Ö" horiz-adv-x="1748" d="M874 1513q120 0 234.5-32t213.5-97 174-155.5 118-216.5 43-271-43-271-118-216.5T1322 98 1108.5 1 874-31 640 1 426.5 98t-174 155.5T135 470 92 741t43 271 117.5 216.5 174 155.5 213.5 97 234 32zm0-307q-121 0-220.5-58T495 983t-59-242q0-205 126.5-335T874 276t312 130 127 335q0 101-34.5 188.5t-94 148-140 94.5-170.5 34zm240 760q68 0 115-47t47-115q0-66-47.5-112.5T1114 1645q-66 0-113 46.5T954 1804q0 67 47 114.5t113 47.5zm-477 0q66 0 113-47.5t47-114.5q0-66-47-112.5T637 1645q-67 0-114.5 46.5T475 1804q0 68 47.5 115t114.5 47z"/><glyph glyph-name="multiply" unicode="×" horiz-adv-x="1400" d="M1053 1260l184-183-352-354 352-352-184-183-355 353-352-353-182 183 352 352-352 354 182 183 352-351z"/><glyph glyph-name="Oslash" unicode="Ø" horiz-adv-x="1818" d="M1757 1513l-233-276q168-202 168-496 0-145-43-271t-118-216.5T1357 98 1143.5 1 909-31q-203 0-381 90l-75-90H61l234 277Q127 448 127 741q0 145 43 271t117.5 216.5 174 155.5 213.5 97 234 32q203 0 381-90l76 90h391zm-848-307q-121 0-220.5-58T530 983t-59-242q0-125 51-227l557 660q-85 32-170 32zm387-237L739 309q87-33 170-33 185 0 312 130t127 335q0 124-52 228z"/><glyph glyph-name="Ugrave" unicode="Ù" horiz-adv-x="1519" d="M1376 1483V586q0-140-48.5-257t-132-195-196-121.5T760-31 520.5 12.5 324 134 191.5 329 143 586v897h338l2-926q0-121 80-198.5T760 281t196.5 77.5T1036 557l2 926h338zm-696 469l151-295H680l-338 295h338z"/><glyph glyph-name="Uacute" unicode="Ú" horiz-adv-x="1519" d="M1376 1483V586q0-140-48.5-257t-132-195-196-121.5T760-31 520.5 12.5 324 134 191.5 329 143 586v897h338l2-926q0-121 80-198.5T760 281t196.5 77.5T1036 557l2 926h338zm-196 469l-338-295H690l152 295h338z"/><glyph glyph-name="Ucircumflex" unicode="Û" horiz-adv-x="1519" d="M1376 1483V586q0-140-48.5-257t-132-195-196-121.5T760-31 520.5 12.5 324 134 191.5 329 143 586v897h338l2-926q0-121 80-198.5T760 281t196.5 77.5T1036 557l2 926h338zm-444 469l223-295H899l-133 160-141-160H369l231 295h332z"/><glyph glyph-name="Udieresis" unicode="Ü" horiz-adv-x="1519" d="M1376 1483V586q0-140-48.5-257t-132-195-196-121.5T760-31 520.5 12.5 324 134 191.5 329 143 586v897h338l2-926q0-121 80-198.5T760 281t196.5 77.5T1036 557l2 926h338zm-377 483q67 0 114.5-47t47.5-115q0-66-47.5-112.5T999 1645q-66 0-112.5 46.5T840 1804q0 67 46.5 114.5T999 1966zm-477 0q66 0 113-47.5t47-114.5q0-66-47-112.5T522 1645q-67 0-114.5 46.5T360 1804q0 68 47 115t115 47z"/><glyph glyph-name="Yacute" unicode="Ý" horiz-adv-x="1392" d="M1393 1483L864 680V0H528v680L0 1483h379l317-496 318 496h379zm-277 469l-338-295H627l151 295h338z"/><glyph glyph-name="Thorn" unicode="Þ" horiz-adv-x="1251" d="M473 1483v-283h223q192 0 327.5-135.5T1159 737t-135.5-327.5T696 274H475V0H143v1483h330zm156-555H475V545l154 2q77 0 133.5 54.5T819 737q0 79-56 135t-134 56z"/><glyph glyph-name="germandbls" unicode="ß" horiz-adv-x="1331" d="M621 1608q212 0 342.5-115t130.5-301q0-63-17.5-117.5t-40-88.5-60.5-66.5-61.5-47T854 838q-27-13-27-33 0-27 39-43 9-4 43.5-17.5t58.5-24 63.5-31.5 67.5-41.5 60.5-52 53-66 34-80.5 13.5-97q0-163-121-272T825-29q-116 0-250 43v262q139-57 232-57 69 0 109 32.5t40 90.5q0 27-10 49.5T922 429t-39.5 30-44 23.5-52 22.5-49.5 21q-188 86-188 250 0 40 9 71.5t32 60 42.5 46.5 59.5 50q52 42 75.5 76.5T791 1169q0 84-52.5 129T614 1343q-79 0-126.5-56.5T440 1126V0H133v1114q0 224 130.5 359T621 1608z"/><glyph glyph-name="agrave" unicode="à" horiz-adv-x="1155" d="M578 1124q77 0 144-13t129-45.5T957 983t70-128 26-177V0H836l-72 125Q657-31 442-31 265-31 158 70T51 315q0 122 83 202.5T367 633l258 59q53 12 77.5 30t24.5 56q0 55-47.5 83T565 889q-78 0-124-38t-48-103H88q11 169 140.5 272.5T578 1124zm149-708v80q-22-5-36.5-7.5t-27.5-5-61.5-11.5T479 449q-57-10-89-45t-32-82q0-57 42-93t102-36q35 0 72 13t72.5 38 58 70T727 416zM492 1585l151-295H492l-338 295h338z"/><glyph glyph-name="aacute" unicode="á" horiz-adv-x="1155" d="M578 1124q77 0 144-13t129-45.5T957 983t70-128 26-177V0H836l-72 125Q657-31 442-31 265-31 158 70T51 315q0 122 83 202.5T367 633l258 59q53 12 77.5 30t24.5 56q0 55-47.5 83T565 889q-78 0-124-38t-48-103H88q11 169 140.5 272.5T578 1124zm149-708v80q-22-5-36.5-7.5t-27.5-5-61.5-11.5T479 449q-57-10-89-45t-32-82q0-57 42-93t102-36q35 0 72 13t72.5 38 58 70T727 416zm264 1169l-338-295H502l151 295h338z"/><glyph glyph-name="acircumflex" unicode="â" horiz-adv-x="1155" d="M578 1124q77 0 144-13t129-45.5T957 983t70-128 26-177V0H836l-72 125Q657-31 442-31 265-31 158 70T51 315q0 122 83 202.5T367 633l258 59q53 12 77.5 30t24.5 56q0 55-47.5 83T565 889q-78 0-124-38t-48-103H88q11 169 140.5 272.5T578 1124zm149-708v80q-22-5-36.5-7.5t-27.5-5-61.5-11.5T479 449q-57-10-89-45t-32-82q0-57 42-93t102-36q35 0 72 13t72.5 38 58 70T727 416zm16 1169l224-295H711l-133 160-142-160H180l232 295h331z"/><glyph glyph-name="atilde" unicode="ã" horiz-adv-x="1155" d="M578 1124q77 0 144-13t129-45.5T957 983t70-128 26-177V0H836l-72 125Q657-31 442-31 265-31 158 70T51 315q0 122 83 202.5T367 633l258 59q53 12 77.5 30t24.5 56q0 55-47.5 83T565 889q-78 0-124-38t-48-103H88q11 169 140.5 272.5T578 1124zm149-708v80q-22-5-36.5-7.5t-27.5-5-61.5-11.5T479 449q-57-10-89-45t-32-82q0-57 42-93t102-36q35 0 72 13t72.5 38 58 70T727 416zm94 1169h133q-6-136-66-217.5T729 1286q-53 0-116.5 27T494 1366.5t-88 26.5q-36 0-60.5-27t-30.5-76H186q9 138 71.5 216.5T416 1585q54 0 115-26.5t114-53 88-26.5q70 0 88 106z"/><glyph glyph-name="adieresis" unicode="ä" horiz-adv-x="1155" d="M578 1124q77 0 144-13t129-45.5T957 983t70-128 26-177V0H836l-72 125Q657-31 442-31 265-31 158 70T51 315q0 122 83 202.5T367 633l258 59q53 12 77.5 30t24.5 56q0 55-47.5 83T565 889q-78 0-124-38t-48-103H88q11 169 140.5 272.5T578 1124zm149-708v80q-22-5-36.5-7.5t-27.5-5-61.5-11.5T479 449q-57-10-89-45t-32-82q0-57 42-93t102-36q35 0 72 13t72.5 38 58 70T727 416zm84 1183q68 0 115-47t47-114q0-66-47.5-113T811 1278q-66 0-113 47t-47 113q0 67 47 114t113 47zm-477 0q66 0 113-47t47-114q0-66-47-113t-113-47q-67 0-114.5 47T172 1438q0 67 47 114t115 47z"/><glyph glyph-name="aring" unicode="å" horiz-adv-x="1155" d="M578 1124q77 0 144-13t129-45.5T957 983t70-128 26-177V0H836l-72 125Q657-31 442-31 265-31 158 70T51 315q0 122 83 202.5T367 633l258 59q53 12 77.5 30t24.5 56q0 55-47.5 83T565 889q-78 0-124-38t-48-103H88q11 169 140.5 272.5T578 1124zm149-708v80q-22-5-36.5-7.5t-27.5-5-61.5-11.5T479 449q-57-10-89-45t-32-82q0-57 42-93t102-36q35 0 72 13t72.5 38 58 70T727 416zM571 1663q92 0 158-66t66-157-66-157-158-66q-91 0-157 66t-66 157 66 157 157 66zm0-127q-40 0-68-28t-28-68 28-68.5 68-28.5 68.5 28.5T668 1440t-28.5 68-68.5 28z"/><glyph glyph-name="ae" unicode="æ" horiz-adv-x="1875" d="M1274 1124q113 0 210-36.5t171.5-106 117-181T1815 549q0-48-7-109h-774q20-99 86-155t156-56q62 0 112.5 27t79.5 78h316q-54-175-191.5-267T1274-25q-124 0-231.5 44.5T860 150Q723-31 459-31q-98 0-177 28.5T153.5 74t-76 109T51 313q0 124 82.5 204.5T367 633l258 59q53 12 77.5 30t24.5 56q0 55-47.5 83T565 889q-78 0-124-38t-48-103H88q9 166 138 271t349 105q230 0 353-112 141 112 346 112zM727 416v80q-22-5-36.5-7.5t-27.5-5-61.5-11.5T479 449q-57-10-89-45t-32-82q0-57 42-93t102-36q35 0 72 13t72.5 38 58 70T727 416zm549 454q-96 0-159-53.5T1034 664h473q-15 102-76 154t-155 52z"/><glyph glyph-name="ccedilla" unicode="ç" horiz-adv-x="1079" d="M670 1124q176 0 317-75V766q-55 37-129.5 60.5T709 850q-136 0-223-81.5T399 547t87-221.5T709 244q74 0 148.5 23.5T987 328V45Q847-31 672-31q-173 0-309 71T149.5 243 72 547q0 271 182 432 82 73 190.5 109t225.5 36zM748 6l-52-86q12 2 33 2 67 0 116.5-38T895-231q0-85-63-127.5T668-401q-105 0-203 36l43 103q82-33 135-33 36 0 57 16t21 46q0 53-70 53-29 0-63-17l-51 41L631 6h117z"/><glyph glyph-name="egrave" unicode="è" horiz-adv-x="1236" d="M618 1124q110 0 207-36.5t173.5-106T1120 800t45-253q0-47-6-96H371q18-110 85-168t162-58q64 0 117.5 27t83.5 78h316q-52-171-189-265T625-29Q513-29 414 7.5T238 114 116.5 295.5 72 547q0 113 29 208t80.5 162.5T302 1032t149 69.5 167 22.5zm0-254q-93 0-158-53t-85-155h487q-20 102-85 155t-159 53zm-79 715l151-295H539l-338 295h338z"/><glyph glyph-name="eacute" unicode="é" horiz-adv-x="1236" d="M618 1124q110 0 207-36.5t173.5-106T1120 800t45-253q0-47-6-96H371q18-110 85-168t162-58q64 0 117.5 27t83.5 78h316q-52-171-189-265T625-29Q513-29 414 7.5T238 114 116.5 295.5 72 547q0 113 29 208t80.5 162.5T302 1032t149 69.5 167 22.5zm0-254q-93 0-158-53t-85-155h487q-20 102-85 155t-159 53zm420 715l-338-295H549l151 295h338z"/><glyph glyph-name="ecircumflex" unicode="ê" horiz-adv-x="1236" d="M618 1124q110 0 207-36.5t173.5-106T1120 800t45-253q0-47-6-96H371q18-110 85-168t162-58q64 0 117.5 27t83.5 78h316q-52-171-189-265T625-29Q513-29 414 7.5T238 114 116.5 295.5 72 547q0 113 29 208t80.5 162.5T302 1032t149 69.5 167 22.5zm0-254q-93 0-158-53t-85-155h487q-20 102-85 155t-159 53zm173 715l223-295H758l-133 160-142-160H227l232 295h332z"/><glyph glyph-name="edieresis" unicode="ë" horiz-adv-x="1236" d="M618 1124q110 0 207-36.5t173.5-106T1120 800t45-253q0-47-6-96H371q18-110 85-168t162-58q64 0 117.5 27t83.5 78h316q-52-171-189-265T625-29Q513-29 414 7.5T238 114 116.5 295.5 72 547q0 113 29 208t80.5 162.5T302 1032t149 69.5 167 22.5zm0-254q-93 0-158-53t-85-155h487q-20 102-85 155t-159 53zm240 729q68 0 115-47t47-114q0-66-47.5-113T858 1278q-66 0-113 47t-47 113q0 67 47 114t113 47zm-477 0q66 0 113-47t47-114q0-66-47-113t-113-47q-67 0-114.5 47T219 1438q0 67 47 114t115 47z"/><glyph glyph-name="igrave" unicode="ì" horiz-adv-x="616" d="M473 1094V0H143v1094h330zm-242 491l152-295H231l-337 295h337z"/><glyph glyph-name="iacute" unicode="í" horiz-adv-x="616" d="M473 1094V0H143v1094h330zm258 491l-338-295H242l151 295h338z"/><glyph glyph-name="icircumflex" unicode="î" horiz-adv-x="616" d="M473 1094V0H143v1094h330zm10 491l224-295H451l-134 160-141-160H-80l232 295h331z"/><glyph glyph-name="idieresis" unicode="ï" horiz-adv-x="616" d="M473 1094V0H143v1094h330zm78 505q68 0 115-47t47-114q0-66-47.5-113T551 1278q-66 0-113 47t-47 113q0 67 47 114t113 47zm-477 0q66 0 112.5-47t46.5-114q0-66-46.5-113T74 1278q-67 0-114.5 47T-88 1438q0 67 47 114t115 47z"/><glyph glyph-name="eth" unicode="ð" horiz-adv-x="1269" d="M686 1585l66-102 301 82v-197l-193-51 123-191q113-176 164-301t51-274q0-116-31.5-213t-86-164-127-114-154-69T631-31Q524-31 426.5 3t-178 100T120 279.5 72 530q0 118 34 223.5t97 187T363 1070t215 48h24l-72 111-315-84v194l207 56-125 190h389zm-51-733q-112 0-177-78t-65-227 65-227 177-78 177 78 65 227-65 227-177 78z"/><glyph glyph-name="ntilde" unicode="ñ" horiz-adv-x="1286" d="M793 1124q106 0 184-35.5t122-100 64.5-144T1184 666V0H850v571q0 31-.5 47.5t-2 47.5-6.5 49-13 43-21.5 40-32 30-45 21.5T670 856q-42 0-74.5-12.5t-53.5-30-36-48.5-22.5-56-11.5-65-4.5-63-.5-61V0H133v1094h254l84-144q55 91 133.5 132.5T793 1124zm106 461h133q-6-136-66-217.5T807 1286q-53 0-117 27t-119 53.5-88 26.5q-36 0-60-27t-30-76H264q9 138 71.5 216.5T494 1585q54 0 115-26.5t114-53 88-26.5q70 0 88 106z"/><glyph glyph-name="ograve" unicode="ò" horiz-adv-x="1331" d="M666 1124q117 0 222.5-36.5t189-106 133-182T1260 547t-49.5-252.5-133-182.5-189-106.5T666-31 443.5 5.5 254.5 112t-133 182.5T72 547t49.5 252.5 133 182 189 106T666 1124zm0-272q-122 0-197.5-79T393 547t75.5-226T666 242t197 79 75 226-75 226-197 79zm-80 733l151-295H586l-338 295h338z"/><glyph glyph-name="oacute" unicode="ó" horiz-adv-x="1331" d="M666 1124q117 0 222.5-36.5t189-106 133-182T1260 547t-49.5-252.5-133-182.5-189-106.5T666-31 443.5 5.5 254.5 112t-133 182.5T72 547t49.5 252.5 133 182 189 106T666 1124zm0-272q-122 0-197.5-79T393 547t75.5-226T666 242t197 79 75 226-75 226-197 79zm419 733l-337-295H596l152 295h337z"/><glyph glyph-name="ocircumflex" unicode="ô" horiz-adv-x="1331" d="M666 1124q117 0 222.5-36.5t189-106 133-182T1260 547t-49.5-252.5-133-182.5-189-106.5T666-31 443.5 5.5 254.5 112t-133 182.5T72 547t49.5 252.5 133 182 189 106T666 1124zm0-272q-122 0-197.5-79T393 547t75.5-226T666 242t197 79 75 226-75 226-197 79zm172 733l223-295H805l-133 160-142-160H274l232 295h332z"/><glyph glyph-name="otilde" unicode="õ" horiz-adv-x="1331" d="M666 1124q117 0 222.5-36.5t189-106 133-182T1260 547t-49.5-252.5-133-182.5-189-106.5T666-31 443.5 5.5 254.5 112t-133 182.5T72 547t49.5 252.5 133 182 189 106T666 1124zm0-272q-122 0-197.5-79T393 547t75.5-226T666 242t197 79 75 226-75 226-197 79zm249 733h134q-6-136-66.5-217.5T823 1286q-53 0-116.5 27T588 1366.5t-88 26.5q-36 0-60-27t-30-76H281q9 138 71 216.5t158 78.5q54 0 115-26.5t114-53 88-26.5q70 0 88 106z"/><glyph glyph-name="odieresis" unicode="ö" horiz-adv-x="1331" d="M666 1124q117 0 222.5-36.5t189-106 133-182T1260 547t-49.5-252.5-133-182.5-189-106.5T666-31 443.5 5.5 254.5 112t-133 182.5T72 547t49.5 252.5 133 182 189 106T666 1124zm0-272q-122 0-197.5-79T393 547t75.5-226T666 242t197 79 75 226-75 226-197 79zm239 747q68 0 115-47t47-114q0-66-47.5-113T905 1278q-66 0-113 47t-47 113q0 67 47 114t113 47zm-477 0q66 0 113-47t47-114q0-66-47-113t-113-47q-67 0-114.5 47T266 1438q0 67 47 114t115 47z"/><glyph glyph-name="divide" unicode="÷" horiz-adv-x="1585" d="M1421 854V594l-1257 2v258h1257zM786 387q67 0 114.5-48T948 225q0-67-47-114.5T786 63q-67 0-114 47t-47 115q0 66 47 114t114 48zm0 999q67 0 114.5-46.5T948 1227q0-68-47.5-116T786 1063t-114 48-47 116q0 66 47 112.5t114 46.5z"/><glyph glyph-name="oslash" unicode="ø" horiz-adv-x="1357" d="M672 1124q169 0 305-71l35 41h268l-143-168q129-149 129-379 0-140-49.5-252.5t-133-182.5-189-106.5T672-31q-160 0-295 66L346 0H78l135 158Q78 312 78 547q0 140 49.5 252.5t133 182 189 106T672 1124zm252-446L567 260q48-18 105-18 122 0 197 79t75 228q0 73-20 129zM672 852q-122 0-197.5-78.5T399 549q0-82 25-143l362 423q-54 23-114 23z"/><glyph glyph-name="ugrave" unicode="ù" horiz-adv-x="1241" d="M1128 1094V477q0-236-141.5-372T621-31 255 105 113 477v617h329V430q0-80 51.5-129T621 252q75 0 126.5 49T799 430v664h329zm-591 491l151-295H537l-338 295h338z"/><glyph glyph-name="uacute" unicode="ú" horiz-adv-x="1241" d="M1128 1094V477q0-236-141.5-372T621-31 255 105 113 477v617h329V430q0-80 51.5-129T621 252q75 0 126.5 49T799 430v664h329zm-92 491l-338-295H547l151 295h338z"/><glyph glyph-name="ucircumflex" unicode="û" horiz-adv-x="1241" d="M1128 1094V477q0-236-141.5-372T621-31 255 105 113 477v617h329V430q0-80 51.5-129T621 252q75 0 126.5 49T799 430v664h329zm-340 491l224-295H756l-133 160-142-160H225l232 295h331z"/><glyph glyph-name="udieresis" unicode="ü" horiz-adv-x="1241" d="M1128 1094V477q0-236-141.5-372T621-31 255 105 113 477v617h329V430q0-80 51.5-129T621 252q75 0 126.5 49T799 430v664h329zm-272 505q68 0 115-47t47-114q0-66-47.5-113T856 1278q-66 0-113 47t-47 113q0 67 47 114t113 47zm-477 0q66 0 113-47t47-114q0-66-47-113t-113-47q-67 0-114.5 47T217 1438q0 67 47 114t115 47z"/><glyph glyph-name="yacute" unicode="ý" horiz-adv-x="1241" d="M1241 1094L506-492H172l281 609L0 1094h330l291-633 290 633h330zm-203 491l-338-295H549l151 295h338z"/><glyph glyph-name="thorn" unicode="þ" horiz-adv-x="1320" d="M465 1585V975q105 149 309 149 114 0 209-49t157-130 96-184 34-214-34-214-96-184.5T982 18 772-31q-193 0-303 133h-4v-594H133v2077h332zm235-733q-115 0-176-86.5T463 547q0-131 61-217t176-86q113 0 174.5 86.5T936 547q0 132-61.5 218.5T700 852z"/><glyph glyph-name="ydieresis" unicode="ÿ" horiz-adv-x="1241" d="M1241 1094L506-492H172l281 609L0 1094h330l291-633 290 633h330zm-383 505q68 0 115-47t47-114q0-66-47.5-113T858 1278q-66 0-113 47t-47 113q0 67 47 114t113 47zm-477 0q66 0 113-47t47-114q0-66-47-113t-113-47q-67 0-114.5 47T219 1438q0 67 47 114t115 47z"/><glyph glyph-name="Amacron" unicode="Ā" horiz-adv-x="1482" d="M899 1483L1483 0h-348l-117 299H465L348 0H0l584 1483h315zm-158-473L571 573h340zm361 911v-233H381v233h721z"/><glyph glyph-name="amacron" unicode="ā" horiz-adv-x="1155" d="M578 1124q77 0 144-13t129-45.5T957 983t70-128 26-177V0H836l-72 125Q657-31 442-31 265-31 158 70T51 315q0 122 83 202.5T367 633l258 59q53 12 77.5 30t24.5 56q0 55-47.5 83T565 889q-78 0-124-38t-48-103H88q11 169 140.5 272.5T578 1124zm149-708v80q-22-5-36.5-7.5t-27.5-5-61.5-11.5T479 449q-57-10-89-45t-32-82q0-57 42-93t102-36q35 0 72 13t72.5 38 58 70T727 416zm205 1138v-233H211v233h721z"/><glyph glyph-name="Abreve" unicode="Ă" horiz-adv-x="1482" d="M899 1483L1483 0h-348l-117 299H465L348 0H0l584 1483h315zm-158-473L571 573h340zm211 942h144q-14-138-103.5-216.5T741 1657t-251 78.5T387 1952h143q16-72 73-104.5t138-32.5 138 32.5 73 104.5z"/><glyph glyph-name="abreve" unicode="ă" horiz-adv-x="1155" d="M578 1124q77 0 144-13t129-45.5T957 983t70-128 26-177V0H836l-72 125Q657-31 442-31 265-31 158 70T51 315q0 122 83 202.5T367 633l258 59q53 12 77.5 30t24.5 56q0 55-47.5 83T565 889q-78 0-124-38t-48-103H88q11 169 140.5 272.5T578 1124zm149-708v80q-22-5-36.5-7.5t-27.5-5-61.5-11.5T479 449q-57-10-89-45t-32-82q0-57 42-93t102-36q35 0 72 13t72.5 38 58 70T727 416zm55 1169h144q-14-138-103.5-216.5T571 1290t-251 78.5T217 1585h143q16-72 73-104.5t138-32.5 138 32.5 73 104.5z"/><glyph glyph-name="Aogonek" unicode="Ą" horiz-adv-x="1482" d="M899 1483L1483 0h-348l-117 299H465L348 0H0l584 1483h315zm-158-473L571 573h340zM1239 8h121q-21-58-21-104 0-119 113-119 39 0 82 14v-164q-64-30-139-30-95 0-159.5 54T1171-184q0 112 68 192z"/><glyph glyph-name="aogonek" unicode="ą" horiz-adv-x="1155" d="M578 1124q77 0 144-13t129-45.5T957 983t70-128 26-177V0H836l-72 125Q657-31 442-31 265-31 158 70T51 315q0 122 83 202.5T367 633l258 59q53 12 77.5 30t24.5 56q0 55-47.5 83T565 889q-78 0-124-38t-48-103H88q11 169 140.5 272.5T578 1124zm149-708v80q-22-5-36.5-7.5t-27.5-5-61.5-11.5T479 449q-57-10-89-45t-32-82q0-57 42-93t102-36q35 0 72 13t72.5 38 58 70T727 416zM872 29h121q-20-55-20-105 0-119 112-119 35 0 82 15v-164q-67-31-139-31-95 0-159 54t-64 157q0 114 67 193z"/><glyph glyph-name="Cacute" unicode="Ć" horiz-adv-x="1443" d="M897 1513q239 0 434-102v-303q-193 111-391 111-100 0-189-30.5t-159-88T481 951t-41-206 41-206 111-149.5T751 302t189-30q198 0 391 111V80Q1134-23 897-23q-162 0-308 53.5t-256.5 150-175.5 243T92 745t65 321.5 175.5 243 256.5 150 308 53.5zm354 439l-338-295H762l151 295h338z"/><glyph glyph-name="cacute" unicode="ć" horiz-adv-x="1079" d="M670 1124q176 0 317-75V766q-55 37-129.5 60.5T709 850q-136 0-223-81.5T399 547t87-221.5T709 244q74 0 148.5 23.5T987 328V45Q847-31 672-31q-173 0-309 71T149.5 243 72 547q0 271 182 432 82 73 190.5 109t225.5 36zm415 461l-337-295H596l152 295h337z"/><glyph glyph-name="Cdotaccent" unicode="Ċ" horiz-adv-x="1443" d="M897 1513q239 0 434-102v-303q-193 111-391 111-100 0-189-30.5t-159-88T481 951t-41-206 41-206 111-149.5T751 302t189-30q198 0 391 111V80Q1134-23 897-23q-162 0-308 53.5t-256.5 150-175.5 243T92 745t65 321.5 175.5 243 256.5 150 308 53.5zm-63 457q68 0 115.5-48.5T997 1804q0-68-48-116t-115-48q-69 0-117.5 48T668 1804q0 69 48.5 117.5T834 1970z"/><glyph glyph-name="cdotaccent" unicode="ċ" horiz-adv-x="1079" d="M670 1124q176 0 317-75V766q-55 37-129.5 60.5T709 850q-136 0-223-81.5T399 547t87-221.5T709 244q74 0 148.5 23.5T987 328V45Q847-31 672-31q-173 0-309 71T149.5 243 72 547q0 271 182 432 82 73 190.5 109t225.5 36zm-2 480q68 0 115.5-48.5T831 1438q0-68-48-116t-115-48q-69 0-117.5 48T502 1438q0 69 48.5 117.5T668 1604z"/><glyph glyph-name="Ccaron" unicode="Č" horiz-adv-x="1443" d="M897 1513q239 0 434-102v-303q-193 111-391 111-100 0-189-30.5t-159-88T481 951t-41-206 41-206 111-149.5T751 302t189-30q198 0 391 111V80Q1134-23 897-23q-162 0-308 53.5t-256.5 150-175.5 243T92 745t65 321.5 175.5 243 256.5 150 308 53.5zm328 439l-224-295H670l-232 295h256l142-160 133 160h256z"/><glyph glyph-name="ccaron" unicode="č" horiz-adv-x="1079" d="M670 1124q176 0 317-75V766q-55 37-129.5 60.5T709 850q-136 0-223-81.5T399 547t87-221.5T709 244q74 0 148.5 23.5T987 328V45Q847-31 672-31q-173 0-309 71T149.5 243 72 547q0 271 182 432 82 73 190.5 109t225.5 36zm389 461l-223-295H504l-232 295h256l142-160 133 160h256z"/><glyph glyph-name="Dcaron" unicode="Ď" horiz-adv-x="1505" d="M143 1483h547q221 0 392-98.5t261.5-266.5 90.5-377-91-377-261.5-266T690 0H143v1483zm521-297H483V295h181q194 0 308.5 126.5T1087 739q0 192-114.5 319.5T664 1186zm387 766l-224-295H496l-232 295h256l142-160 133 160h256z"/><glyph glyph-name="dcaron" unicode="ď" horiz-adv-x="1599" d="M1198 1585V0H967l-84 145Q837 63 754 16T557-31q-113 0-208 48.5t-157 130-96.5 185T61 547t34 214 96 184 158 130 210 49q193 0 303-133h4v594h332zM631 850q-113 0-174.5-86.5T395 547q0-132 61.5-218.5T631 242q115 0 176 86.5T868 547q0 131-61 217t-176 86zm1173 735l-338-295h-151l151 295h338z"/><glyph glyph-name="Dcroat" unicode="Đ" horiz-adv-x="1515" d="M154 1483h546q221 0 392-98.5t261.5-266.5 90.5-377-91-377-261.5-266T700 0H154v623H14v233h140v627zm520-297H494V856h282V623H494V295h180q194 0 309 127t115 317q0 192-115 319.5T674 1186z"/><glyph glyph-name="dcroat" unicode="đ" horiz-adv-x="1331" d="M1198 1585v-180h195v-172h-195V0H967l-84 145Q837 63 754 16T557-31q-113 0-208 48.5t-157 130-96.5 185T61 547t34 214 96 184 158 130 210 49q193 0 303-133h4v242H674v172h192v180h332zM631 850q-113 0-174.5-86.5T395 547q0-132 61.5-218.5T631 242q115 0 176 86.5T868 547q0 131-61 217t-176 86z"/><glyph glyph-name="Emacron" unicode="Ē" horiz-adv-x="1105" d="M993 1483v-297H477V907h475V618H477V297h516V0H143v1483h850zm-55 438v-233H217v233h721z"/><glyph glyph-name="emacron" unicode="ē" horiz-adv-x="1236" d="M618 1124q110 0 207-36.5t173.5-106T1120 800t45-253q0-47-6-96H371q18-110 85-168t162-58q64 0 117.5 27t83.5 78h316q-52-171-189-265T625-29Q513-29 414 7.5T238 114 116.5 295.5 72 547q0 113 29 208t80.5 162.5T302 1032t149 69.5 167 22.5zm0-254q-93 0-158-53t-85-155h487q-20 102-85 155t-159 53zm361 684v-233H258v233h721z"/><glyph glyph-name="Edotaccent" unicode="Ė" horiz-adv-x="1105" d="M993 1483v-297H477V907h475V618H477V297h516V0H143v1483h850zm-413 487q68 0 115.5-48.5T743 1804q0-68-48-116t-115-48q-69 0-117.5 48T414 1804q0 69 48.5 117.5T580 1970z"/><glyph glyph-name="edotaccent" unicode="ė" horiz-adv-x="1236" d="M618 1124q110 0 207-36.5t173.5-106T1120 800t45-253q0-47-6-96H371q18-110 85-168t162-58q64 0 117.5 27t83.5 78h316q-52-171-189-265T625-29Q513-29 414 7.5T238 114 116.5 295.5 72 547q0 113 29 208t80.5 162.5T302 1032t149 69.5 167 22.5zm0-254q-93 0-158-53t-85-155h487q-20 102-85 155t-159 53zm3 734q68 0 115.5-48.5T784 1438q0-68-48-116t-115-48q-69 0-117.5 48T455 1438q0 69 48.5 117.5T621 1604z"/><glyph glyph-name="Eogonek" unicode="Ę" horiz-adv-x="1105" d="M993 1483v-297H477V907h475V618H477V297h516V0H143v1483h850zM602 8h121q-21-58-21-104 0-119 113-119 39 0 82 14v-164q-65-30-139-30-95 0-159 54t-64 157q0 113 67 192z"/><glyph glyph-name="eogonek" unicode="ę" horiz-adv-x="1236" d="M618 1124q110 0 207-36.5t173.5-106T1120 800t45-253q0-47-6-96H371q18-110 85-168t162-58q64 0 117.5 27t83.5 78h316q-52-171-189-265T625-29Q513-29 414 7.5T238 114 116.5 295.5 72 547q0 113 29 208t80.5 162.5T302 1032t149 69.5 167 22.5zm0-254q-93 0-158-53t-85-155h487q-20 102-85 155t-159 53zM578 8h120q-20-55-20-104 0-119 113-119 38 0 81 14v-164q-64-30-139-30-95 0-159 54t-64 157q0 112 68 192z"/><glyph glyph-name="Ecaron" unicode="Ě" horiz-adv-x="1105" d="M993 1483v-297H477V907h475V618H477V297h516V0H143v1483h850zm-22 469l-223-295H416l-232 295h256l142-160 133 160h256z"/><glyph glyph-name="ecaron" unicode="ě" horiz-adv-x="1236" d="M618 1124q110 0 207-36.5t173.5-106T1120 800t45-253q0-47-6-96H371q18-110 85-168t162-58q64 0 117.5 27t83.5 78h316q-52-171-189-265T625-29Q513-29 414 7.5T238 114 116.5 295.5 72 547q0 113 29 208t80.5 162.5T302 1032t149 69.5 167 22.5zm0-254q-93 0-158-53t-85-155h487q-20 102-85 155t-159 53zm394 715l-224-295H457l-232 295h256l142-160 133 160h256z"/><glyph glyph-name="Gbreve" unicode="Ğ" horiz-adv-x="1624" d="M911 1513q278 0 508-129v-309q-105 68-232.5 108T942 1223q-80 0-154-19t-138.5-58.5T537 1050t-75.5-134.5T434 745q0-114 41.5-206T587 389t159-89 188-32q133 0 244 51v230H942v264h549V162Q1262-23 924-23q-372 0-602 216Q92 410 92 745q0 175 64.5 321T332 1309t260 150.5 319 53.5zm219 439h144q-14-138-103-216.5T920 1657t-251.5 78.5T565 1952h144q16-72 73-104.5t138-32.5 137.5 32.5T1130 1952z"/><glyph glyph-name="gbreve" unicode="ğ" horiz-adv-x="1302" d="M598 1116q43 0 155-11t222-11h276V831h-180q21-72 21-135 0-130-70-226T840 327.5 590 281q-90 0-166 20-23-23-23-53 0-22 12-36.5t46-25 57-15.5 82-14l18-3q189-30 266-57 190-65 220-214 6-29 6-63 0-111-66-188.5T866-482t-256-36q-231 0-452 96v258q91-51 210-87t244-36q185 0 185 88 0 14-4.5 25t-17 19-22 13.5-32 10T687-125t-40 6Q398-83 299-39 157 23 154 158q-3 130 110 213Q92 487 92 698q0 99 40 179.5t109.5 132 161 79T598 1116zm-2-235q-89 0-143-50t-54-133 54-132.5T596 516t143 49.5T793 698t-54 133-143 50zm207 704h143q-14-138-103-216.5T592 1290t-251 78.5T238 1585h143q16-72 73-104.5t138-32.5 138 32.5 73 104.5z"/><glyph glyph-name="Gdotaccent" unicode="Ġ" horiz-adv-x="1624" d="M911 1513q278 0 508-129v-309q-105 68-232.5 108T942 1223q-80 0-154-19t-138.5-58.5T537 1050t-75.5-134.5T434 745q0-114 41.5-206T587 389t159-89 188-32q133 0 244 51v230H942v264h549V162Q1262-23 924-23q-372 0-602 216Q92 410 92 745q0 175 64.5 321T332 1309t260 150.5 319 53.5zm11 457q68 0 115.5-48.5T1085 1804q0-68-48-116t-115-48q-69 0-117.5 48T756 1804q0 69 48.5 117.5T922 1970z"/><glyph glyph-name="gdotaccent" unicode="ġ" horiz-adv-x="1302" d="M598 1116q43 0 155-11t222-11h276V831h-180q21-72 21-135 0-130-70-226T840 327.5 590 281q-90 0-166 20-23-23-23-53 0-22 12-36.5t46-25 57-15.5 82-14l18-3q189-30 266-57 190-65 220-214 6-29 6-63 0-111-66-188.5T866-482t-256-36q-231 0-452 96v258q91-51 210-87t244-36q185 0 185 88 0 14-4.5 25t-17 19-22 13.5-32 10T687-125t-40 6Q398-83 299-39 157 23 154 158q-3 130 110 213Q92 487 92 698q0 99 40 179.5t109.5 132 161 79T598 1116zm-2-235q-89 0-143-50t-54-133 54-132.5T596 516t143 49.5T793 698t-54 133-143 50zm-2 723q68 0 116-48.5t48-117.5q0-68-48-116t-116-48q-69 0-117.5 48T428 1438q0 69 48.5 117.5T594 1604z"/><glyph glyph-name="Gcommaaccent" unicode="Ģ" horiz-adv-x="1624" d="M911 1513q278 0 508-129v-309q-105 68-232.5 108T942 1223q-80 0-154-19t-138.5-58.5T537 1050t-75.5-134.5T434 745q0-114 41.5-206T587 389t159-89 188-32q133 0 244 51v230H942v264h549V162Q1262-23 924-23q-372 0-602 216Q92 410 92 745q0 175 64.5 321T332 1309t260 150.5 319 53.5zm201-1710L774-492H623l151 295h338z"/><glyph glyph-name="gcommaaccent" unicode="ģ" horiz-adv-x="1302" d="M598 1116q43 0 155-11t222-11h276V831h-180q21-72 21-135 0-130-70-226T840 327.5 590 281q-90 0-166 20-23-23-23-53 0-22 12-36.5t46-25 57-15.5 82-14l18-3q189-30 266-57 190-65 220-214 6-29 6-63 0-111-66-188.5T866-482t-256-36q-231 0-452 96v258q91-51 210-87t244-36q185 0 185 88 0 14-4.5 25t-17 19-22 13.5-32 10T687-125t-40 6Q398-83 299-39 157 23 154 158q-3 130 110 213Q92 487 92 698q0 99 40 179.5t109.5 132 161 79T598 1116zm-2-235q-89 0-143-50t-54-133 54-132.5T596 516t143 49.5T793 698t-54 133-143 50zm332 704l-152-295H438l338 295h152z"/><glyph glyph-name="Hbar" unicode="Ħ" horiz-adv-x="1603" d="M1460 1483v-221h123v-172h-123V0h-340v614H483V0H143v1090H20v172h123v221h340v-221h637v221h340zm-340-393H483V911h637v179z"/><glyph glyph-name="hbar" unicode="ħ" horiz-adv-x="1298" d="M485 1585v-180h275v-172H485V993q51 69 133.5 102t172.5 33q183 0 294-125.5T1196 676V0H862v569q0 45-2 77t-12.5 73-28.5 66-53 43-84 18q-45 0-79.5-13.5t-55-39.5-33.5-52-18.5-61.5-7-58.5-1.5-52V0H154v1233H41v172h113v180h331z"/><glyph glyph-name="Imacron" unicode="Ī" horiz-adv-x="649" d="M496 1483V0H154v1483h342zm188 438v-233H-37v233h721z"/><glyph glyph-name="imacron" unicode="ī" horiz-adv-x="616" d="M473 1094V0H143v1094h330zm199 460v-233H-49v233h721z"/><glyph glyph-name="Iogonek" unicode="Į" horiz-adv-x="649" d="M496 1483V0H154v1483h342zM274 8h121q-20-55-20-104 0-119 112-119 39 0 82 14v-164q-64-30-139-30-95 0-159 54t-64 157q0 113 67 192z"/><glyph glyph-name="iogonek" unicode="į" horiz-adv-x="616" d="M473 1094V0H143v1094h330zm-160 510q68 0 116-48.5t48-117.5q0-68-48.5-116T313 1274q-69 0-117.5 48T147 1438q0 69 48.5 117.5T313 1604zM254 8h121q-21-58-21-104 0-119 113-119 39 0 82 14v-164q-64-30-139-30-95 0-159.5 54T186-184q0 112 68 192z"/><glyph glyph-name="Idotaccent" unicode="İ" horiz-adv-x="649" d="M496 1483V0H154v1483h342zm-170 487q68 0 115.5-48.5T489 1804q0-68-48-116t-115-48q-69 0-117.5 48T160 1804q0 69 48.5 117.5T326 1970z"/><glyph glyph-name="dotlessi" unicode="ı" horiz-adv-x="616" d="M473 1094V0H143v1094h330z"/><glyph glyph-name="IJ" unicode="Ĳ" horiz-adv-x="1419" d="M496 1483V0H154v1483h342zm790 0V344q0-172-101.5-273.5T911-31q-99 0-190 31v266q56-22 104-22 60 0 92.5 30.5T950 365l-2 1118h338z"/><glyph glyph-name="ij" unicode="ĳ" horiz-adv-x="1216" d="M475 1094V0H145v1094h330zm2 419v-270H143v270h334zm617-419V-152q0-169-99-267.5T727-518q-93 0-188 29v262q59-23 104-23 58 0 89.5 30t31.5 89v1225h330zm-7 419v-270H754v270h333z"/><glyph glyph-name="Kcommaaccent" unicode="Ķ" horiz-adv-x="1384" d="M1384 1483L793 741h-2l2-2L1397 0H983L489 621l-4-3h-4V0H143v1483h338V862h4l4-2 482 623h413zM862-197L524-492H373l151 295h338z"/><glyph glyph-name="kcommaaccent" unicode="ķ" horiz-adv-x="1234" d="M467 1585V596l391 498h381L807 547 1249 0H856L467 492V0H135v1585h332zM797-197L459-492H307l152 295h338z"/><glyph glyph-name="Lacute" unicode="Ĺ" horiz-adv-x="1054" d="M481 1483V307h482V0H143v1483h338zm250 469l-338-295H242l151 295h338z"/><glyph glyph-name="lacute" unicode="ĺ" horiz-adv-x="602" d="M469 1585V0H133v1585h336zm256 490l-338-295H236l151 295h338z"/><glyph glyph-name="Lcommaaccent" unicode="Ļ" horiz-adv-x="1054" d="M481 1483V307h482V0H143v1483h338zM729-197L391-492H240l151 295h338z"/><glyph glyph-name="lcommaaccent" unicode="ļ" horiz-adv-x="602" d="M469 1585V0H133v1585h336zm12-1782L143-492H-8l151 295h338z"/><glyph glyph-name="Lcaron" unicode="Ľ" horiz-adv-x="1189" d="M492 1483L471 307h481V0H133v1483h359zm677 102l-338-295H680l151 295h338z"/><glyph glyph-name="lcaron" unicode="ľ" horiz-adv-x="704" d="M475 1585V0H133v1585h342zm639 0l-338-295H625l151 295h338z"/><glyph glyph-name="Ldot" unicode="Ŀ" horiz-adv-x="1044" d="M809 932q66 0 113-47.5T969 770q0-66-47-113t-113-47q-67 0-114.5 47T647 770q0 68 47.5 115T809 932zm-328 551V307h482V0H143v1483h338z"/><glyph glyph-name="ldot" unicode="ŀ" horiz-adv-x="968" d="M475 1585V0H133v1585h342zm330-659q67 0 114.5-47T967 764q0-66-47.5-113T805 604q-66 0-113 47t-47 113q0 67 47 114.5T805 926z"/><glyph glyph-name="Lslash" unicode="Ł" horiz-adv-x="1114" d="M541 1483V958l196 148V868L541 721V307h481V0H203v469L51 356v236l152 113v778h338z"/><glyph glyph-name="lslash" unicode="ł" horiz-adv-x="727" d="M535 1585v-498l151 121V971L535 850V0H193v578L41 457v235l152 121v772h342z"/><glyph glyph-name="Nacute" unicode="Ń" horiz-adv-x="1673" d="M455 1487l737-940v936h338V-4h-311L481 932V0H143v1487h312zm802 465l-337-295H768l152 295h337z"/><glyph glyph-name="nacute" unicode="ń" horiz-adv-x="1286" d="M793 1124q106 0 184-35.5t122-100 64.5-144T1184 666V0H850v571q0 31-.5 47.5t-2 47.5-6.5 49-13 43-21.5 40-32 30-45 21.5T670 856q-42 0-74.5-12.5t-53.5-30-36-48.5-22.5-56-11.5-65-4.5-63-.5-61V0H133v1094h254l84-144q55 91 133.5 132.5T793 1124zm276 461l-338-295H580l151 295h338z"/><glyph glyph-name="Ncommaaccent" unicode="Ņ" horiz-adv-x="1673" d="M455 1487l737-940v936h338V-4h-311L481 932V0H143v1487h312zm549-1684L666-492H514l152 295h338z"/><glyph glyph-name="ncommaaccent" unicode="ņ" horiz-adv-x="1286" d="M793 1124q106 0 184-35.5t122-100 64.5-144T1184 666V0H850v571q0 31-.5 47.5t-2 47.5-6.5 49-13 43-21.5 40-32 30-45 21.5T670 856q-42 0-74.5-12.5t-53.5-30-36-48.5-22.5-56-11.5-65-4.5-63-.5-61V0H133v1094h254l84-144q55 91 133.5 132.5T793 1124zm32-1321L487-492H336l151 295h338z"/><glyph glyph-name="Ncaron" unicode="Ň" horiz-adv-x="1673" d="M455 1487l737-940v936h338V-4h-311L481 932V0H143v1487h312zm776 465l-223-295H676l-232 295h256l142-160 133 160h256z"/><glyph glyph-name="ncaron" unicode="ň" horiz-adv-x="1286" d="M793 1124q106 0 184-35.5t122-100 64.5-144T1184 666V0H850v571q0 31-.5 47.5t-2 47.5-6.5 49-13 43-21.5 40-32 30-45 21.5T670 856q-42 0-74.5-12.5t-53.5-30-36-48.5-22.5-56-11.5-65-4.5-63-.5-61V0H133v1094h254l84-144q55 91 133.5 132.5T793 1124zm249 461l-223-295H487l-231 295h256l141-160 133 160h256z"/><glyph glyph-name="Eng" unicode="Ŋ" horiz-adv-x="1654" d="M455 1487l737-940v936h338V-143q0-172-101.5-273.5T1155-518q-99 0-190 31v266q59-23 104-23 60 0 92.5 30.5T1194-123V27L481 932V0H143v1487h312z"/><glyph glyph-name="eng" unicode="ŋ" horiz-adv-x="1306" d="M793 1124q106 0 184-35.5t122-100 64.5-144T1184 666V-94q0-400-396-400-69 0-159 17v268q29-6 78-6 84 0 112.5 39T850-45v616q0 31-.5 47.5t-2 47.5-6.5 49-13 43-21.5 40-32 30-45 21.5T670 856q-42 0-74.5-12.5t-53.5-30-36-48.5-22.5-56-11.5-65-4.5-63-.5-61V0H133v1094h254l84-144q55 91 133.5 132.5T793 1124z"/><glyph glyph-name="Omacron" unicode="Ō" horiz-adv-x="1748" d="M874 1513q120 0 234.5-32t213.5-97 174-155.5 118-216.5 43-271-43-271-118-216.5T1322 98 1108.5 1 874-31 640 1 426.5 98t-174 155.5T135 470 92 741t43 271 117.5 216.5 174 155.5 213.5 97 234 32zm0-307q-121 0-220.5-58T495 983t-59-242q0-205 126.5-335T874 276t312 130 127 335q0 101-34.5 188.5t-94 148-140 94.5-170.5 34zm361 715v-233H514v233h721z"/><glyph glyph-name="omacron" unicode="ō" horiz-adv-x="1331" d="M666 1124q117 0 222.5-36.5t189-106 133-182T1260 547t-49.5-252.5-133-182.5-189-106.5T666-31 443.5 5.5 254.5 112t-133 182.5T72 547t49.5 252.5 133 182 189 106T666 1124zm0-272q-122 0-197.5-79T393 547t75.5-226T666 242t197 79 75 226-75 226-197 79zm360 702v-233H305v233h721z"/><glyph glyph-name="Ohungarumlaut" unicode="Ő" horiz-adv-x="1748" d="M874 1513q120 0 234.5-32t213.5-97 174-155.5 118-216.5 43-271-43-271-118-216.5T1322 98 1108.5 1 874-31 640 1 426.5 98t-174 155.5T135 470 92 741t43 271 117.5 216.5 174 155.5 213.5 97 234 32zm0-307q-121 0-220.5-58T495 983t-59-242q0-205 126.5-335T874 276t312 130 127 335q0 101-34.5 188.5t-94 148-140 94.5-170.5 34zm599 746l-338-295H983l152 295h338zm-400 0l-338-295H584l151 295h338z"/><glyph glyph-name="ohungarumlaut" unicode="ő" horiz-adv-x="1331" d="M666 1124q117 0 222.5-36.5t189-106 133-182T1260 547t-49.5-252.5-133-182.5-189-106.5T666-31 443.5 5.5 254.5 112t-133 182.5T72 547t49.5 252.5 133 182 189 106T666 1124zm0-272q-122 0-197.5-79T393 547t75.5-226T666 242t197 79 75 226-75 226-197 79zm598 733l-338-295H774l152 295h338zm-400 0l-338-295H375l151 295h338z"/><glyph glyph-name="OE" unicode="Œ" horiz-adv-x="2070" d="M877 1513q117 0 231-30h850v-297h-516V905h475V621h-475V297h516V0l-848 2q-109-33-233-33-121 0-235.5 32t-214 97T253 253.5 135 470 92 741t43 271 118 216.5T427.5 1384t214 97 235.5 32zm-3-307q-121 0-220.5-58T495 983t-59-242q0-205 126.5-335T874 276q130 0 234 66v797q-106 67-234 67z"/><glyph glyph-name="oe" unicode="œ" horiz-adv-x="2078" d="M1477 1124q113 0 210-36.5t171-106 116.5-181T2017 549q0-57-6-109h-774q20-99 86-155t156-56q62 0 112.5 27t79.5 78h316q-54-174-191-266.5T1479-25q-242 0-396 154-82-78-193.5-119T655-31Q538-31 432.5 5.5T243.5 112t-133 182.5T61 547t49.5 252.5 133 182 189 106T655 1124q122 0 232.5-39T1081 969q152 155 396 155zM655 852q-122 0-197-79t-75-226 75-226 197-79 197.5 79T928 547t-75.5 226T655 852zm824 18q-96 0-159-53.5T1237 664h473q-15 102-76 154t-155 52z"/><glyph glyph-name="Racute" unicode="Ŕ" horiz-adv-x="1280" d="M143 1483h553q192 0 327.5-135.5T1159 1020q0-150-87-269T846 586L1300 0H897L504 561h-29V0H143v1483zm486-273H475V827l154 2q77 0 133.5 55t56.5 136q0 79-56 134.5T629 1210zm368 742l-338-295H508l151 295h338z"/><glyph glyph-name="racute" unicode="ŕ" horiz-adv-x="841" d="M733 1116q52 0 88-12V805q-51 14-92 14-52 0-97-19.5T549 739t-60-114-22-170V0H133v1094h215l103-179q43 98 115 149.5t167 51.5zm121 469l-338-295H365l151 295h338z"/><glyph glyph-name="Rcommaaccent" unicode="Ŗ" horiz-adv-x="1280" d="M143 1483h553q192 0 327.5-135.5T1159 1020q0-150-87-269T846 586L1300 0H897L504 561h-29V0H143v1483zm486-273H475V827l154 2q77 0 133.5 55t56.5 136q0 79-56 134.5T629 1210zM827-197L489-492H338l151 295h338z"/><glyph glyph-name="rcommaaccent" unicode="ŗ" horiz-adv-x="841" d="M733 1116q52 0 88-12V805q-51 14-92 14-52 0-97-19.5T549 739t-60-114-22-170V0H133v1094h215l103-179q43 98 115 149.5t167 51.5zM469-197L131-492H-20l151 295h338z"/><glyph glyph-name="Rcaron" unicode="Ř" horiz-adv-x="1280" d="M143 1483h553q192 0 327.5-135.5T1159 1020q0-150-87-269T846 586L1300 0H897L504 561h-29V0H143v1483zm486-273H475V827l154 2q77 0 133.5 55t56.5 136q0 79-56 134.5T629 1210zm342 742l-223-295H416l-232 295h256l142-160 133 160h256z"/><glyph glyph-name="rcaron" unicode="ř" horiz-adv-x="841" d="M733 1116q52 0 88-12V805q-51 14-92 14-52 0-97-19.5T549 739t-60-114-22-170V0H133v1094h215l103-179q43 98 115 149.5t167 51.5zm94 469l-223-295H272L41 1585h256l141-160 133 160h256z"/><glyph glyph-name="Sacute" unicode="Ś" horiz-adv-x="1171" d="M584 1509q116 0 228-34t198-99v-301q-96 67-201 108.5T614 1225q-88 0-138-41t-50-113q0-40 15.5-69.5t54.5-54 75.5-39.5T680 868q46-16 77-28.5t77.5-35 77.5-44 66-55.5 56-72 35-89 14-110q0-92-32.5-174t-95-146T792 12.5 565-25q-244 0-448 136v305q103-76 213-116t205-40q106 0 157 46.5T743 422q0 31-12.5 56t-30 42-53 34-65 28.5T499 612q-8 3-12 4-44 15-74 27t-75 34-76.5 44.5T195 778t-56.5 72-36 90T88 1051q0 89 31 170t90.5 146 156 103.5T584 1509zm415 443l-337-295H510l152 295h337z"/><glyph glyph-name="sacute" unicode="ś" horiz-adv-x="989" d="M496 1124q191 0 360-94V770Q664 887 516 887q-129 0-129-92 0-53 43.5-81T586 649q42-14 68.5-23.5t66.5-27 65.5-34 55-42.5 46.5-54.5 28.5-67T928 317q0-156-122-252T481-31Q276-31 106 74v262q86-59 182-94t183-35q145 0 145 102 0 51-39.5 75.5T418 446q-51 16-90 31t-89.5 44.5-83 64-56 88T76 791q0 151 113.5 242t306.5 91zm422 461l-338-295H428l152 295h338z"/><glyph glyph-name="Scedilla" unicode="Ş" horiz-adv-x="1171" d="M584 1509q116 0 228-34t198-99v-301q-96 67-201 108.5T614 1225q-88 0-138-41t-50-113q0-40 15.5-69.5t54.5-54 75.5-39.5T680 868q46-16 77-28.5t77.5-35 77.5-44 66-55.5 56-72 35-89 14-110q0-92-32.5-174t-95-146T792 12.5 565-25q-244 0-448 136v305q103-76 213-116t205-40q106 0 157 46.5T743 422q0 31-12.5 56t-30 42-53 34-65 28.5T499 612q-8 3-12 4-44 15-74 27t-75 34-76.5 44.5T195 778t-56.5 72-36 90T88 1051q0 89 31 170t90.5 146 156 103.5T584 1509zM647 6l-51-86q12 2 33 2 67 0 116.5-38T795-231q0-85-63-127.5T567-401q-104 0-202 36l43 103q82-33 135-33 36 0 57 16t21 46q0 53-70 53-30 0-64-17l-51 41L530 6h117z"/><glyph glyph-name="scedilla" unicode="ş" horiz-adv-x="989" d="M496 1124q191 0 360-94V770Q664 887 516 887q-129 0-129-92 0-53 43.5-81T586 649q42-14 68.5-23.5t66.5-27 65.5-34 55-42.5 46.5-54.5 28.5-67T928 317q0-156-122-252T481-31Q276-31 106 74v262q86-59 182-94t183-35q145 0 145 102 0 51-39.5 75.5T418 446q-51 16-90 31t-89.5 44.5-83 64-56 88T76 791q0 151 113.5 242t306.5 91zM573 6l-51-86q12 2 33 2 67 0 116.5-38T721-231q0-85-63-127.5T494-401q-105 0-203 36l43 103q82-33 135-33 36 0 57 16t21 46q0 53-70 53-29 0-63-17l-52 41L457 6h116z"/><glyph glyph-name="Scaron" unicode="Š" horiz-adv-x="1171" d="M584 1509q116 0 228-34t198-99v-301q-96 67-201 108.5T614 1225q-88 0-138-41t-50-113q0-40 15.5-69.5t54.5-54 75.5-39.5T680 868q46-16 77-28.5t77.5-35 77.5-44 66-55.5 56-72 35-89 14-110q0-92-32.5-174t-95-146T792 12.5 565-25q-244 0-448 136v305q103-76 213-116t205-40q106 0 157 46.5T743 422q0 31-12.5 56t-30 42-53 34-65 28.5T499 612q-8 3-12 4-44 15-74 27t-75 34-76.5 44.5T195 778t-56.5 72-36 90T88 1051q0 89 31 170t90.5 146 156 103.5T584 1509zm389 443l-223-295H418l-232 295h256l142-160 133 160h256z"/><glyph glyph-name="scaron" unicode="š" horiz-adv-x="989" d="M496 1124q191 0 360-94V770Q664 887 516 887q-129 0-129-92 0-53 43.5-81T586 649q42-14 68.5-23.5t66.5-27 65.5-34 55-42.5 46.5-54.5 28.5-67T928 317q0-156-122-252T481-31Q276-31 106 74v262q86-59 182-94t183-35q145 0 145 102 0 51-39.5 75.5T418 446q-51 16-90 31t-89.5 44.5-83 64-56 88T76 791q0 151 113.5 242t306.5 91zm395 461l-223-295H336l-232 295h256l142-160 133 160h256z"/><glyph glyph-name="Tcedilla" unicode="Ţ" horiz-adv-x="1142" d="M1081 1483v-297H741V0H401v1186H61v297h1020zM647 6l-51-86q12 2 33 2 67 0 116.5-38T795-231q0-85-63-127.5T567-401q-104 0-202 36l43 103q82-33 135-33 36 0 57 16t21 46q0 53-70 53-30 0-64-17l-51 41L530 6h117z"/><glyph glyph-name="tcedilla" unicode="ţ" horiz-adv-x="811" d="M504 1380v-286h246V831H504V356q0-118 123-118 56 0 123 30V4q-96-35-209-35-169 0-268 99t-99 268v495H31v242h53q53 0 82 29.5t29 83.5v194h309zM569 6l-51-86q12 2 33 2 67 0 116.5-38T717-231q0-85-63-127.5T489-401q-104 0-202 36l43 103q82-33 135-33 36 0 57 16t21 46q0 53-70 53-29 0-63-17l-52 41L453 6h116z"/><glyph glyph-name="Tcaron" unicode="Ť" horiz-adv-x="1142" d="M1081 1483v-297H741V0H401v1186H61v297h1020zm-116 428l-224-295H410l-232 295h256l141-160 134 160h256z"/><glyph glyph-name="tcaron" unicode="ť" horiz-adv-x="845" d="M504 1380v-286h246V831H504V356q0-118 123-118 56 0 123 30V4q-96-35-209-35-169 0-268 99t-99 268v495H31v242h53q53 0 82 29.5t29 83.5v194h309zm690 205l-338-295H705l151 295h338z"/><glyph glyph-name="Tbar" unicode="Ŧ" horiz-adv-x="1183" d="M1102 1483v-297H762V850h211V616H762V0H422v616H211v234h211v336H82v297h1020z"/><glyph glyph-name="tbar" unicode="ŧ" horiz-adv-x="800" d="M504 1380v-286h246V831H504V694h246V522H504V356q0-118 123-118 56 0 123 30V4q-96-35-209-35-169 0-268 99t-99 268v186H31v172h143v137H31v242h53q53 0 82 29.5t29 83.5v194h309z"/><glyph glyph-name="Umacron" unicode="Ū" horiz-adv-x="1519" d="M1376 1483V586q0-140-48.5-257t-132-195-196-121.5T760-31 520.5 12.5 324 134 191.5 329 143 586v897h338l2-926q0-121 80-198.5T760 281t196.5 77.5T1036 557l2 926h338zm-256 438v-233H399v233h721z"/><glyph glyph-name="umacron" unicode="ū" horiz-adv-x="1241" d="M1128 1094V477q0-236-141.5-372T621-31 255 105 113 477v617h329V430q0-80 51.5-129T621 252q75 0 126.5 49T799 430v664h329zm-151 460v-233H256v233h721z"/><glyph glyph-name="Uring" unicode="Ů" horiz-adv-x="1519" d="M1376 1483V586q0-140-48.5-257t-132-195-196-121.5T760-31 520.5 12.5 324 134 191.5 329 143 586v897h338l2-926q0-121 80-198.5T760 281t196.5 77.5T1036 557l2 926h338zm-616 547q92 0 157.5-66.5T983 1806t-65.5-157-157.5-66q-91 0-157 66t-66 157 66 157.5 157 66.5zm0-127q-40 0-68-28.5t-28-68.5 28-68 68-28 68 28 28 68-28 68.5-68 28.5z"/><glyph glyph-name="uring" unicode="ů" horiz-adv-x="1241" d="M1128 1094V477q0-236-141.5-372T621-31 255 105 113 477v617h329V430q0-80 51.5-129T621 252q75 0 126.5 49T799 430v664h329zm-512 569q92 0 158-66t66-157-66-157-158-66q-91 0-157 66t-66 157 66 157 157 66zm0-127q-40 0-68-28t-28-68 28-68.5 68-28.5 68.5 28.5T713 1440t-28.5 68-68.5 28z"/><glyph glyph-name="Uhungarumlaut" unicode="Ű" horiz-adv-x="1519" d="M1376 1483V586q0-140-48.5-257t-132-195-196-121.5T760-31 520.5 12.5 324 134 191.5 329 143 586v897h338l2-926q0-121 80-198.5T760 281t196.5 77.5T1036 557l2 926h338zm-18 469l-338-295H868l152 295h338zm-400 0l-337-295H469l152 295h337z"/><glyph glyph-name="uhungarumlaut" unicode="ű" horiz-adv-x="1241" d="M1128 1094V477q0-236-141.5-372T621-31 255 105 113 477v617h329V430q0-80 51.5-129T621 252q75 0 126.5 49T799 430v664h329zm86 491l-337-295H725l152 295h337zm-399 0l-338-295H326l151 295h338z"/><glyph glyph-name="Uogonek" unicode="Ų" horiz-adv-x="1519" d="M1376 1483V586q0-140-48.5-257t-132-195-196-121.5T760-31 520.5 12.5 324 134 191.5 329 143 586v897h338l2-926q0-121 80-198.5T760 281t196.5 77.5T1036 557l2 926h338zM709 8h120q-20-55-20-104 0-119 113-119 39 0 82 14v-164q-64-30-140-30-95 0-159 54t-64 157q0 112 68 192z"/><glyph glyph-name="uogonek" unicode="ų" horiz-adv-x="1241" d="M1128 1094V477q0-236-141.5-372T621-31 255 105 113 477v617h329V430q0-80 51.5-129T621 252q75 0 126.5 49T799 430v664h329zM571 8h121q-20-55-20-104 0-119 112-119 39 0 82 14v-164q-64-30-139-30-95 0-159 54t-64 157q0 113 67 192z"/><glyph glyph-name="Wcircumflex" unicode="Ŵ" horiz-adv-x="2437" d="M2386 1483L1896 0h-331l-346 961L872 0H541L51 1483h365l301-994 358 994h287l358-994 301 994h365zm-1000 469l224-295h-256l-133 160-142-160H823l232 295h331z"/><glyph glyph-name="wcircumflex" unicode="ŵ" horiz-adv-x="1888" d="M1909 1094L1442 0h-209L944 621 655 0H446L-20 1094h329l256-594 273 594h213l274-594 254 594h330zm-793 491l223-295h-256l-133 160-141-160H553l231 295h332z"/><glyph glyph-name="Ycircumflex" unicode="Ŷ" horiz-adv-x="1392" d="M1393 1483L864 680V0H528v680L0 1483h379l317-496 318 496h379zm-525 469l224-295H836l-134 160-141-160H305l232 295h331z"/><glyph glyph-name="ycircumflex" unicode="ŷ" horiz-adv-x="1241" d="M1241 1094L506-492H172l281 609L0 1094h330l291-633 290 633h330zm-450 491l223-295H758l-133 160-142-160H227l232 295h332z"/><glyph glyph-name="Ydieresis" unicode="Ÿ" horiz-adv-x="1392" d="M1393 1483L864 680V0H528v680L0 1483h379l317-496 318 496h379zm-457 483q68 0 115-47t47-115q0-66-47.5-112.5T936 1645q-66 0-113 46.5T776 1804q0 67 47 114.5t113 47.5zm-477 0q66 0 112.5-47.5T618 1804q0-66-46.5-112.5T459 1645q-67 0-114.5 46.5T297 1804q0 68 47.5 115t114.5 47z"/><glyph glyph-name="Zacute" unicode="Ź" horiz-adv-x="1288" d="M1171 1483v-230L555 297h616V0H117v229l616 957H117v297h1054zm-116 469l-338-295H565l152 295h338z"/><glyph glyph-name="zacute" unicode="ź" horiz-adv-x="1046" d="M958 1094V911L498 262h456V0H88v182l461 649H92v263h866zm-16 491l-338-295H453l151 295h338z"/><glyph glyph-name="Zdotaccent" unicode="Ż" horiz-adv-x="1288" d="M1171 1483v-230L555 297h616V0H117v229l616 957H117v297h1054zm-534 487q68 0 116-48.5t48-117.5q0-68-48.5-116T637 1640q-69 0-117.5 48T471 1804q0 69 48.5 117.5T637 1970z"/><glyph glyph-name="zdotaccent" unicode="ż" horiz-adv-x="1046" d="M958 1094V911L498 262h456V0H88v182l461 649H92v263h866zm-434 510q68 0 116-48.5t48-117.5q0-68-48-116t-116-48q-69 0-117.5 48T358 1438q0 69 48.5 117.5T524 1604z"/><glyph glyph-name="Zcaron" unicode="Ž" horiz-adv-x="1288" d="M1171 1483v-230L555 297h616V0H117v229l616 957H117v297h1054zm-143 469l-223-295H473l-231 295h256l141-160 133 160h256z"/><glyph glyph-name="zcaron" unicode="ž" horiz-adv-x="1046" d="M958 1094V911L498 262h456V0H88v182l461 649H92v263h866zm-43 491l-223-295H360l-231 295h256l141-160 133 160h256z"/><glyph glyph-name="Scommaaccent" unicode="Ș" horiz-adv-x="1171" d="M584 1509q116 0 228-34t198-99v-301q-96 67-201 108.5T614 1225q-88 0-138-41t-50-113q0-40 15.5-69.5t54.5-54 75.5-39.5T680 868q46-16 77-28.5t77.5-35 77.5-44 66-55.5 56-72 35-89 14-110q0-92-32.5-174t-95-146T792 12.5 565-25q-244 0-448 136v305q103-76 213-116t205-40q106 0 157 46.5T743 422q0 31-12.5 56t-30 42-53 34-65 28.5T499 612q-8 3-12 4-44 15-74 27t-75 34-76.5 44.5T195 778t-56.5 72-36 90T88 1051q0 89 31 170t90.5 146 156 103.5T584 1509zM748-197L410-492H258l152 295h338z"/><glyph glyph-name="scommaaccent" unicode="ș" horiz-adv-x="989" d="M496 1124q191 0 360-94V770Q664 887 516 887q-129 0-129-92 0-53 43.5-81T586 649q42-14 68.5-23.5t66.5-27 65.5-34 55-42.5 46.5-54.5 28.5-67T928 317q0-156-122-252T481-31Q276-31 106 74v262q86-59 182-94t183-35q145 0 145 102 0 51-39.5 75.5T418 446q-51 16-90 31t-89.5 44.5-83 64-56 88T76 791q0 151 113.5 242t306.5 91zM674-197L336-492H184l152 295h338z"/><glyph glyph-name="uni021A" unicode="Ț" horiz-adv-x="1142" d="M1081 1483v-297H741V0H401v1186H61v297h1020zM748-197L410-492H258l152 295h338z"/><glyph glyph-name="uni021B" unicode="ț" horiz-adv-x="811" d="M504 1380v-286h246V831H504V356q0-118 123-118 56 0 123 30V4q-96-35-209-35-169 0-268 99t-99 268v495H31v242h53q53 0 82 29.5t29 83.5v194h309zM670-197L332-492H180l152 295h338z"/><glyph glyph-name="circumflex" unicode="ˆ" horiz-adv-x="1228" d="M786 1513l224-294H754l-133 159-142-159H223l232 294h331z"/><glyph glyph-name="caron" unicode="ˇ" horiz-adv-x="1228" d="M1008 1513l-224-294H453l-232 294h256l141-159 134 159h256z"/><glyph glyph-name="breve" unicode="˘" horiz-adv-x="1228" d="M825 1513h144q-14-138-103-216t-252-78q-162 0-251 78t-103 216h143q16-72 73-104.5t138-32.5 138 32.5 73 104.5z"/><glyph glyph-name="dotaccent" unicode="˙" horiz-adv-x="1228" d="M616 1532q68 0 116-48.5t48-117.5q0-68-48-116t-116-48q-69 0-117 48t-48 116q0 69 48 117.5t117 48.5z"/><glyph glyph-name="ring" unicode="˚" horiz-adv-x="1228" d="M614 1591q92 0 158-66t66-157-66-157-158-66q-91 0-157 66t-66 157 66 157 157 66zm0-127q-40 0-68-28t-28-68 28-68 68-28 68.5 28 28.5 68-28.5 68-68.5 28z"/><glyph glyph-name="ogonek" unicode="˛" horiz-adv-x="1228" d="M561 29h121q-20-55-20-105 0-119 112-119 36 0 82 15v-164q-67-31-139-31-95 0-159 54t-64 157q0 114 67 193z"/><glyph glyph-name="tilde" unicode="˜" horiz-adv-x="1228" d="M864 1513h133q-6-136-66-217.5T772 1214q-53 0-116.5 27T537 1294.5t-88 26.5q-36 0-60.5-26.5T358 1219H229q9 138 71.5 216t158.5 78q54 0 115-26.5t114-53 88-26.5q70 0 88 106z"/><glyph glyph-name="hungarumlaut" unicode="˝" horiz-adv-x="1228" d="M1212 1513l-338-294H723l151 294h338zm-399 0l-338-294H324l151 294h338z"/><glyph glyph-name="uni0326" unicode="̦" d="M766-197L428-492H276l152 295h338z"/><glyph glyph-name="uni05B0" unicode="ְ" d="M737-195v-194H494v194h243zm0-389v-194H494v194h243z"/><glyph glyph-name="uni05B1" unicode="ֱ" d="M1227-195v-194H983v194h244zM494-584v-194H250v194h244zM252-195v-194H8v194h244zm487 0v-194H496v194h243zm488-389v-194H983v194h244z"/><glyph glyph-name="uni05B2" unicode="ֲ" d="M739-195v-194H8v194h731zm486-389v-194H981v194h244zm0 389v-194H981v194h244z"/><glyph glyph-name="uni05B3" unicode="ֳ" d="M739-195v-194H496v-389H252v389H8v194h731zm488-389v-194H983v194h244zm0 389v-194H983v194h244z"/><glyph glyph-name="uni05B4" unicode="ִ" d="M737-195v-194H494v194h243z"/><glyph glyph-name="uni05B5" unicode="ֵ" d="M981-195v-194H737v194h244zm-487 0v-194H250v194h244z"/><glyph glyph-name="uni05B6" unicode="ֶ" d="M983-195v-194H739v194h244zM739-584v-194H496v194h243zM496-195v-194H252v194h244z"/><glyph glyph-name="uni05B7" unicode="ַ" d="M981-195v-194H250v194h731z"/><glyph glyph-name="uni05B8" unicode="ָ" d="M981-195v-194H737v-389H494v389H250v194h731z"/><glyph glyph-name="uni05B9" unicode="ֹ" d="M737 1513v-194H494v194h243z"/><glyph glyph-name="uni05BA" unicode="ֺ" d="M737 1513v-194H494v194h243z"/><glyph glyph-name="uni05BB" unicode="ֻ" d="M1227-584v-194H983v194h244zM739-195v-194H496v194h243zm244-194v-195H739v195h244z"/><glyph glyph-name="uni05BC" unicode="ּ" d="M737 659V465H494v194h243z"/><glyph glyph-name="uni05BE" unicode="־" horiz-adv-x="911" d="M768 1124V848H143v276h625z"/><glyph glyph-name="uni05C1" unicode="ׁ" d="M737 1513v-194H494v194h243z"/><glyph glyph-name="uni05C2" unicode="ׂ" d="M737 1513v-194H494v194h243z"/><glyph glyph-name="uni05C7" unicode="ׇ" d="M981-195v-194H737v-389H494v389H250v194h731z"/><glyph glyph-name="uni05D0" unicode="א" horiz-adv-x="1331" d="M1255 1124l-36-184q-18-89-38-149t-55-118.5-90.5-98T901 510L1280 0H885L551 449q-29-25-47-66t-23.5-70-15.5-92L430 0H76l49 246q13 63 24.5 107t33 94 48.5 85 70 67 98 54L51 1124h395l312-419q23 12 40.5 26.5T828 767t19.5 37 14.5 48 10 49.5 9 59.5l24 163h350z"/><glyph glyph-name="uni05D1" unicode="ב" horiz-adv-x="1208" d="M102 1124h480q132 0 225-54.5T944 920q39-88 39-248V276h184V0H92v276h553v412q0 160-151 160H102v276z"/><glyph glyph-name="uni05D2" unicode="ג" horiz-adv-x="894" d="M737 1124V582q0-106 1-147.5t9-113.5 25-137L823 0H508q-35 104-49 162h-4L82-49v334l324 180q-3 59-3 133v252H137v274h600z"/><glyph glyph-name="uni05D3" unicode="ד" horiz-adv-x="1208" d="M1137 1124V848H891V0H553v848H61v276h1076z"/><glyph glyph-name="uni05D4" unicode="ה" horiz-adv-x="1280" d="M113 1124h663q132 0 225.5-54.5T1139 920q39-88 39-248V0H840v688q0 80-40 120t-114 40H113v276zm338-553V0H113v571h338z"/><glyph glyph-name="uni05D5" unicode="ו" horiz-adv-x="669" d="M557 1124V0H215v848H92v276h465z"/><glyph glyph-name="uni05D6" unicode="ז" horiz-adv-x="868" d="M776 1124V848H641q-88 0-128-45.5T473 686q0-27 5-59t17.5-76 24-81 35-100.5 40-106.5 49-127T696 0H319q-54 157-92 295-41 150-41 270 0 176 90 283H72v276h704z"/><glyph glyph-name="uni05D7" unicode="ח" horiz-adv-x="1341" d="M133 1124h705q132 0 225-54.5T1200 920q39-88 39-248V0H901v688q0 160-151 160H471V0H133v1124z"/><glyph glyph-name="uni05D8" unicode="ט" horiz-adv-x="1320" d="M854 1135q221 0 313-144 82-128 82-430 0-139-45-254t-129-192Q921-29 676-29 464-29 315 80q-103 76-158 199t-55 282v563h338V563q0-155 70-237 61-70 168-70 124 0 184 92 51 77 51 215 0 61-2.5 99t-12 78.5T871 803t-50.5 36.5T741 854q-59 0-141-23v256q131 48 254 48z"/><glyph glyph-name="uni05D9" unicode="י" horiz-adv-x="665" d="M543 1124V387H205v461H82v276h461z"/><glyph glyph-name="uni05DA" unicode="ך" horiz-adv-x="1073" d="M90 1124h471q198 0 287-71 123-95 123-330v-983H633v868q0 73-6.5 115t-27 72.5T542 837t-100 11H90v276z"/><glyph glyph-name="uni05DB" unicode="כ" horiz-adv-x="1069" d="M92 1124h281q307 0 465.5-134.5T997 563q0-293-158.5-428T373 0H82v276h287q286 0 286 287 0 285-286 285H92v276z"/><glyph glyph-name="uni05DC" unicode="ל" horiz-adv-x="1044" d="M406 1483v-359h557V864L651 0H297l307 848H72v635h334z"/><glyph glyph-name="uni05DD" unicode="ם" horiz-adv-x="1320" d="M113 1124h704q132 0 225.5-54.5T1180 920q39-88 39-248V0H113v1124zm618-276H449V276h434v412q0 80-40 120t-112 40z"/><glyph glyph-name="uni05DE" unicode="מ" horiz-adv-x="1433" d="M866 1139q196 0 328-117 162-143 168-397 8-356-168-516Q1054-20 784-20q-54 0-116 6v270q20-2 59-2 179 0 242 84 57 76 57 225 0 137-53.5 218T815 862q-121 0-188-114-42-72-65-188.5T510 207L485 0H150q31 326 102 739L41 1124h385l88-147q53 65 113 100 105 62 239 62z"/><glyph glyph-name="uni05DF" unicode="ן" horiz-adv-x="679" d="M557 1124V-260H215V848H92v276h465z"/><glyph glyph-name="uni05E0" unicode="נ" horiz-adv-x="798" d="M686 1124V412q0-146-35-226-39-87-123.5-136.5T324 0H82v276h139q127 0 127 134v438H102v276h584z"/><glyph glyph-name="uni05E1" unicode="ס" horiz-adv-x="1325" d="M113 1124h565q266 0 412-125 170-144 170-430 0-284-170-446Q932-29 688-29q-256 0-416 160-159 159-159 430v563zm565-276H451V561q0-152 61-227 61-80 178-80t176 82q58 78 58 225 0 146-62 217-61 70-184 70z"/><glyph glyph-name="uni05E2" unicode="ע" horiz-adv-x="1333" d="M881 1124h348q0-15 1-61.5t1-89.5q0-229-19-404-17-142-59-244.5t-120.5-177T831 36.5 537 0H113v276h311L51 1124h367l344-821q41 21 63 70 27 60 41.5 207T881 879v245z"/><glyph glyph-name="uni05E3" unicode="ף" horiz-adv-x="1220" d="M82 1124h625q132 0 225-54.5T1069 920q39-88 39-248v-932H770v948q0 80-40 120t-114 40H412V727q0-66 28.5-91t87.5-22V371q-94-20-175.5-5T211 421.5t-94.5 120T82 731v393z"/><glyph glyph-name="uni05E4" unicode="פ" horiz-adv-x="1232" d="M602 1157q268 0 418.5-147T1171 584q0-288-166.5-436T516 0H158v272h313q203 0 288 67t85 236q0 308-250 308-91 0-147-39.5T391 733q0-97 123-125V350q-49 0-103 10t-116 37.5-110.5 69-80.5 111T72 735q0 194 144.5 308T602 1157z"/><glyph glyph-name="uni05E5" unicode="ץ" horiz-adv-x="1191" d="M1130 1124l-53-225q-16-70-30.5-116.5T1009 687t-52.5-81-72.5-61.5T782.5 496 647 465l109-725H418L295 537 18 1124h359l207-452q32 11 55 27.5t36 31 23 40 13.5 42.5 10 52 11.5 55l47 204h350z"/><glyph glyph-name="uni05E6" unicode="צ" horiz-adv-x="1200" d="M1143 1124l-37-184q-16-78-33-133t-47.5-113.5-79-100.5T831 524l209-282V0H88v279h543L0 1124h387l293-395q37 30 52.5 76.5T763 941q2 13 3 20l27 163h350z"/><glyph glyph-name="uni05E7" unicode="ק" horiz-adv-x="1290" d="M1208 1124V852L918 0H569l283 848H123v276h1085zM459 571v-831H123v831h336z"/><glyph glyph-name="uni05E8" unicode="ר" horiz-adv-x="1054" d="M72 1124h481q130 0 222.5-53.5T913 920q39-88 39-248V0H614v688q0 160-151 160H72v276z"/><glyph glyph-name="uni05E9" unicode="ש" horiz-adv-x="1617" d="M1505 1124V662q0-392-248-568Q1083-29 805-29 530-29 356 96 113 271 113 662v462h319V635q0-42 2-62 58 17 97.5 38t63.5 44.5 37 57.5 17 67.5 4 83.5v260h312V852q0-103-25-182.5t-64.5-130-100.5-87-121-55T516 365q41-47 86-72 85-49 207-49 125 0 211 51 166 99 166 340v489h319z"/><glyph glyph-name="uni05EA" unicode="ת" horiz-adv-x="1482" d="M82 1124h897q132 0 225-54.5T1341 920q39-84 39-246V0h-338v688q0 80-39.5 120T891 848H666V416q0-85-15-153t-44-114-65.5-79-84-50.5T362-6t-104-8Q165-14 84 8v254q54-8 88-8 78 0 117 42t39 163v389H82v276z"/><glyph glyph-name="gereshhb" unicode="׳" horiz-adv-x="827" d="M705 1124L307 625H123l209 499h373z"/><glyph glyph-name="gershayimhb" unicode="״" horiz-adv-x="1312" d="M1190 1124L793 625H608l209 499h373zm-485 0L307 625H123l209 499h373z"/><glyph glyph-name="Wgrave" unicode="Ẁ" horiz-adv-x="2437" d="M2386 1483L1896 0h-331l-346 961L872 0H541L51 1483h365l301-994 358 994h287l358-994 301 994h365zm-1251 469l151-295h-151l-338 295h338z"/><glyph glyph-name="wgrave" unicode="ẁ" horiz-adv-x="1888" d="M1909 1094L1442 0h-209L944 621 655 0H446L-20 1094h329l256-594 273 594h213l274-594 254 594h330zM864 1585l152-295H864l-338 295h338z"/><glyph glyph-name="Wacute" unicode="Ẃ" horiz-adv-x="2437" d="M2386 1483L1896 0h-331l-346 961L872 0H541L51 1483h365l301-994 358 994h287l358-994 301 994h365zm-752 469l-338-295h-151l151 295h338z"/><glyph glyph-name="wacute" unicode="ẃ" horiz-adv-x="1888" d="M1909 1094L1442 0h-209L944 621 655 0H446L-20 1094h329l256-594 273 594h213l274-594 254 594h330zm-545 491l-338-295H874l152 295h338z"/><glyph glyph-name="Wdieresis" unicode="Ẅ" horiz-adv-x="2437" d="M2386 1483L1896 0h-331l-346 961L872 0H541L51 1483h365l301-994 358 994h287l358-994 301 994h365zm-932 483q68 0 115-47t47-115q0-66-47.5-112.5T1454 1645q-66 0-113 46.5t-47 112.5q0 67 47 114.5t113 47.5zm-477 0q66 0 113-47.5t47-114.5q0-66-47-112.5T977 1645q-67 0-114.5 46.5T815 1804q0 68 47.5 115t114.5 47z"/><glyph glyph-name="wdieresis" unicode="ẅ" horiz-adv-x="1888" d="M1909 1094L1442 0h-209L944 621 655 0H446L-20 1094h329l256-594 273 594h213l274-594 254 594h330zm-725 505q68 0 115-47t47-114q0-66-47.5-113t-114.5-47q-66 0-113 47t-47 113q0 67 47 114t113 47zm-477 0q66 0 112.5-47t46.5-114q0-66-46.5-113T707 1278q-67 0-114.5 47T545 1438q0 67 47 114t115 47z"/><glyph glyph-name="Ygrave" unicode="Ỳ" horiz-adv-x="1392" d="M1393 1483L864 680V0H528v680L0 1483h379l317-496 318 496h379zm-777 469l152-295H616l-337 295h337z"/><glyph glyph-name="ygrave" unicode="ỳ" horiz-adv-x="1241" d="M1241 1094L506-492H172l281 609L0 1094h330l291-633 290 633h330zm-702 491l151-295H539l-338 295h338z"/><glyph glyph-name="endash" unicode="–" horiz-adv-x="1501" d="M1358 766V504H143v262h1215z"/><glyph glyph-name="emdash" unicode="—" horiz-adv-x="2433" d="M2269 766V504H164v262h2105z"/><glyph glyph-name="quoteleft" unicode="‘" horiz-adv-x="827" d="M705 1483L496 983H123l397 500h185z"/><glyph glyph-name="quoteright" unicode="’" horiz-adv-x="827" d="M705 1483L307 983H123l209 500h373z"/><glyph glyph-name="quotesinglbase" unicode="‚" horiz-adv-x="827" d="M705 336L307-164H123l209 500h373z"/><glyph glyph-name="quotedblleft" unicode="“" horiz-adv-x="1312" d="M1190 1483L981 983H608l398 500h184zm-485 0L496 983H123l397 500h185z"/><glyph glyph-name="quotedblright" unicode="”" horiz-adv-x="1312" d="M1190 1483L793 983H608l209 500h373zm-485 0L307 983H123l209 500h373z"/><glyph glyph-name="quotedblbase" unicode="„" horiz-adv-x="1271" d="M1169 336L772-164H588l209 500h372zm-485 0L287-164H102l209 500h373z"/><glyph glyph-name="dagger" unicode="†" horiz-adv-x="1089" d="M662 1483V991h325V778H662V-303H428V778H102v213h326v492h234z"/><glyph glyph-name="daggerdbl" unicode="‡" horiz-adv-x="1228" d="M662 1483V991h325V778H662V401h325V188H662v-491H428v491H102v213h326v377H102v213h326v492h234z"/><glyph glyph-name="bullet" unicode="•" horiz-adv-x="1046" d="M524 913q131 0 224.5-93.5T842 596q0-132-93.5-226T524 276q-132 0-225.5 94T205 596q0 131 93.5 224T524 913z"/><glyph glyph-name="ellipsis" unicode="…" horiz-adv-x="2138" d="M1819 354q77 0 131.5-55t54.5-131-54.5-131T1819-18t-132 55-55 131 55 131 132 55zm-1500 0q77 0 132-55t55-131-55-131-132-55-131.5 55T133 168t54.5 131T319 354zm750 0q77 0 131.5-55t54.5-131-54.5-131T1069-18 937.5 37 883 168t54.5 131 131.5 55z"/><glyph glyph-name="perthousand" unicode="‰" horiz-adv-x="2377" d="M1401 1483L383 0H213l1018 1483h170zm-219-854q137 0 233-96t96-234q0-135-96.5-232.5T1182-31 949 66.5 852 299q0 138 96.5 234t233.5 96zm0-176q-62 0-104-44t-42-110q0-62 43-108t103-46q61 0 103 44.5t42 109.5q0 63-42.5 108.5T1182 453zM432 1513q137 0 233.5-95.5T762 1184q0-135-97-232.5T432 854t-233 97.5-97 232.5q0 138 96.5 233.5T432 1513zm0-176q-62 0-103.5-43.5T287 1184q0-62 42.5-108t102.5-46q61 0 103.5 44.5T578 1184q0 63-43 108t-103 45zm1514-708q137 0 233-96t96-234q0-135-96.5-232.5T1946-31t-233 97.5-97 232.5q0 138 96.5 234t233.5 96zm0-176q-62 0-104-44t-42-110q0-62 43-108t103-46q61 0 103 44.5t42 109.5q0 63-42.5 108.5T1946 453z"/><glyph glyph-name="guilsinglleft" unicode="‹" horiz-adv-x="985" d="M821 1008L498 553 821 98H494L164 553l330 455h327z"/><glyph glyph-name="guilsinglright" unicode="›" horiz-adv-x="985" d="M494 1008l327-455L494 98H164l325 455-325 455h330z"/><glyph glyph-name="fraction" unicode="⁄" horiz-adv-x="1325" d="M1325 1483L313 0H0l1018 1483h307z"/><glyph glyph-name="uni20AA" unicode="₪" horiz-adv-x="2412" d="M2300 1124V662q0-392-248-568-174-123-453-123-274 0-448 125-244 176-244 566v26q0 160-151 160H471V0H133v1124h692q132 0 227-55.5T1188 920q39-89 39-218v-67q0-42 2-62 58 17 97.5 38t63.5 44.5 37 57.5 17 67.5 4 83.5v260h311V852q0-103-25-182.5t-64-130-100-87-121-55-138-32.5q41-47 86-72 85-49 207-49 125 0 211 51 165 99 165 340v489h320z"/><glyph glyph-name="Euro" unicode="€" horiz-adv-x="1583" d="M1085 1513q192 0 365-81l-117-302q-109 76-248 76-111 0-206-50.5T723 1012h565l-78-205H651q-4-32-4-64 0-45 6-86h500l-78-204H735q60-84 151.5-130.5T1085 276q154 0 273 95V14q-125-45-271-45-246 0-448.5 128.5T352 453H92l78 204h137q-4 46-4 88 0 26 1 42t1 20H94l74 205h178q52 155 165 269.5t261 173 313 58.5z"/><glyph glyph-name="trademark" unicode="™" horiz-adv-x="2195" d="M1901 1483l90-848h-195l-59 559-238-576h-139l-238 576-59-559H868l90 848h244l228-555 227 555h244zm-1115 0v-170H592V635H399v678H205v170h581z"/><glyph glyph-name="partialdiff" unicode="∂" horiz-adv-x="1368"/><glyph glyph-name="emptyset" unicode="∅" horiz-adv-x="1400" d="M1147 1352l182-181-135-135q92-148 92-313 0-156-78.5-291t-214-215T700 137q-170 0-313 94L252 96 72 276l135 136q-92 140-92 311 0 156 78.5 291T407 1229t293 80q167 0 312-92zm-447-312q-136 0-229.5-91.5T377 723q0-61 22-119l416 416q-50 20-115 20zm297-198L584 428q53-20 116-20 134 0 227 90.5t93 224.5q0 58-23 119z"/><glyph glyph-name="product" unicode="∏" horiz-adv-x="1572" d="M1450 1483v-283h-115V0h-319v1200H561V0H233v1200H123v283h1327z"/><glyph glyph-name="summation" unicode="∑" horiz-adv-x="1359" d="M1257 1483v-291H625l460-461-469-442h639V0H143v272l492 461-492 481v269h1114z"/><glyph glyph-name="minus" unicode="−" horiz-adv-x="1585" d="M1421 854V594l-1257 2v258h1257z"/><glyph glyph-name="radical" unicode="√" horiz-adv-x="1361" d="M2001 2019v-272h-676L717-16H457L61 1085h342l183-548 497 1482h918z"/><glyph glyph-name="infinity" unicode="∞" horiz-adv-x="1652" d="M1112 1102q161 0 269-102t108-275q0-174-108.5-277.5T1112 344q-170 0-285 145-118-145-286-145-159 0-268 104T164 725t108.5 275T541 1102q175 0 286-144 59 68 134 106t151 38zM549 883q-70 0-111-44t-41-114q0-73 41-116.5T549 565q92 0 162 158-73 160-162 160zm555 0q-86 0-162-160 74-158 162-158 70 0 110.5 43.5T1255 725q0 70-41 114t-110 44z"/><glyph glyph-name="integral" unicode="∫" horiz-adv-x="1003" d="M760 1698q108 0 182-27v-260q-59 19-104 19-58 0-89.5-30t-31.5-89V184q0-170-98.5-268T346-182q-111 0-182 26v260q56-18 104-18 119 0 119 119v1126q0 170 99.5 268.5T760 1698z"/><glyph glyph-name="approxequal" unicode="≈" horiz-adv-x="1519" d="M514 1204q59 0 115.5-18t150.5-60q99-44 148.5-60.5t97.5-16.5q66 0 131.5 34t157.5 115V936q-143-143-297-143-115 0-277 75-65 30-96 43t-73.5 25-77.5 12q-64 0-127.5-35T205 795v266q91 76 163.5 109.5T514 1204zm0-477q57 0 111.5-18T780 647q94-42 148-60t102-18q63 0 127 34.5T1315 719V459q-138-144-297-144-108 0-277 76-66 30-98 43t-74.5 25-76.5 12q-62 0-125-35T205 317v265q92 76 164.5 110.5T514 727z"/><glyph glyph-name="notequal" unicode="≠" horiz-adv-x="1421" d="M1257 1317l-145-205h145V854H928L741 596h516V338H557L412 133H164l145 205H164v258h330l184 258H164v258h698l146 205h249z"/><glyph glyph-name="lessequal" unicode="≤" horiz-adv-x="1222" d="M1018 1380v-278L565 920l453-187V455L205 815v201zm0-1024V115H205v241h813z"/><glyph glyph-name="greaterequal" unicode="≥" horiz-adv-x="1222" d="M205 1380l813-364V815L205 455v278l452 187-452 182v278zm813-1024V115H205v241h813z"/><glyph glyph-name="lozenge" unicode="◊" horiz-adv-x="1478" d="M868 1499l408-756L868-16H610L205 743l405 756h258zm-129-321L518 743l221-438 224 438z"/><glyph glyph-name="uniFB2A" unicode="שׁ" horiz-adv-x="1617" d="M1505 1124V662q0-392-248-568Q1083-29 805-29 530-29 356 96 113 271 113 662v462h319V635q0-42 2-62 58 17 97.5 38t63.5 44.5 37 57.5 17 67.5 4 83.5v260h312V852q0-103-25-182.5t-64.5-130-100.5-87-121-55T516 365q41-47 86-72 85-49 207-49 125 0 211 51 166 99 166 340v489h319zm0 320v-195h-319v195h319z"/><glyph glyph-name="uniFB2B" unicode="שׂ" horiz-adv-x="1617" d="M1505 1124V662q0-392-248-568Q1083-29 805-29 530-29 356 96 113 271 113 662v462h319V635q0-42 2-62 58 17 97.5 38t63.5 44.5 37 57.5 17 67.5 4 83.5v260h312V852q0-103-25-182.5t-64.5-130-100.5-87-121-55T516 365q41-47 86-72 85-49 207-49 125 0 211 51 166 99 166 340v489h319zM432 1444v-195H113v195h319z"/><glyph glyph-name="shindageshshindothb" unicode="שּׁ" horiz-adv-x="1617" d="M1505 1124V662q0-392-248-568Q1083-29 805-29 530-29 356 96 113 271 113 662v462h319V635q0-42 2-62 58 17 97.5 38t63.5 44.5 37 57.5 17 67.5 4 83.5v260h312V852q0-158-60-268h172V408H897v163q-57-91-152-137t-229-69q41-47 86-72 85-49 207-49 125 0 211 51 166 99 166 340v489h319zm0 320v-195h-319v195h319z"/><glyph glyph-name="shindageshsindothb" unicode="שּׂ" horiz-adv-x="1617" d="M1505 1124V662q0-392-248-568Q1083-29 805-29 530-29 356 96 113 271 113 662v462h319V635q0-42 2-62 58 17 97.5 38t63.5 44.5 37 57.5 17 67.5 4 83.5v260h312V852q0-158-60-268h172V408H897v163q-57-91-152-137t-229-69q41-47 86-72 85-49 207-49 125 0 211 51 166 99 166 340v489h319zM432 1444v-195H113v195h319z"/><glyph glyph-name="alefpatahhb" unicode="אַ" horiz-adv-x="1331" d="M1255 1124l-36-184q-18-89-38-149t-55-118.5-90.5-98T901 510L1280 0H885L551 449q-29-25-47-66t-23.5-70-15.5-92L430 0H76l49 246q13 63 24.5 107t33 94 48.5 85 70 67 98 54L51 1124h395l312-419q23 12 40.5 26.5T828 767t19.5 37 14.5 48 10 49.5 9 59.5l24 163h350zM1034-195v-194H299v194h735z"/><glyph glyph-name="alefqamatshb" unicode="אָ" horiz-adv-x="1331" d="M1255 1124l-36-184q-18-89-38-149t-55-118.5-90.5-98T901 510L1280 0H885L551 449q-29-25-47-66t-23.5-70-15.5-92L430 0H76l49 246q13 63 24.5 107t33 94 48.5 85 70 67 98 54L51 1124h395l312-419q23 12 40.5 26.5T828 767t19.5 37 14.5 48 10 49.5 9 59.5l24 163h350zM1034-195v-194H788v-389H545v389H299v194h735z"/><glyph glyph-name="alefdageshhb" unicode="אּ" horiz-adv-x="1331" d="M1255 1124l-36-184q-18-89-38-149t-55-118.5-90.5-98T901 510L1280 0H885L551 449q-29-25-47-66t-23.5-70-15.5-92L430 0H76l49 246q13 63 24.5 107t33 94 48.5 85 70 67 98 54L51 1124h395l312-419q23 12 40.5 26.5T828 767t19.5 37 14.5 48 10 49.5 9 59.5l24 163h350zm-446 0V948H629v176h180z"/><glyph glyph-name="betdageshhb" unicode="בּ" horiz-adv-x="1208" d="M102 1124h480q132 0 225-54.5T944 920q39-88 39-248V276h184V0H92v276h553v412q0 160-151 160H102v276zm334-471V477H236v176h200z"/><glyph glyph-name="gimeldageshhb" unicode="גּ" horiz-adv-x="874" d="M717 1124V582q0-106 1-147.5t9-113.5 25-137L803 0H487q-35 104-49 162h-4L61-49v334l324 180q-2 39-2 133v252H117v274h600zM240 696V520H39v176h201z"/><glyph glyph-name="daletdageshhb" unicode="דּ" horiz-adv-x="1208" d="M1137 1124V848H891V0H553v848H61v276h1076zM379 653V477H178v176h201z"/><glyph glyph-name="hedageshhb" unicode="הּ" horiz-adv-x="1269" d="M113 1124h663q132 0 225.5-54.5T1139 920q39-88 39-248V0H840v688q0 80-40 120t-114 40H113v276zm338-553V0H113v571h338zm288 134V528H539v177h200z"/><glyph glyph-name="uniFB35" unicode="וּ" horiz-adv-x="716" d="M604 1124V0H262v848H139v276h465zM113 653V477H-88v176h201z"/><glyph glyph-name="zayindageshhb" unicode="זּ" horiz-adv-x="868" d="M776 1124V848H641q-88 0-128-45.5T473 686q0-27 5-59t17.5-76 24-81 35-100.5 40-106.5 49-127T696 0H319q-54 157-92 295-41 150-41 270 0 176 90 283H72v276h704zm51-444V504H627v176h200z"/><glyph glyph-name="tetdageshhb" unicode="טּ" horiz-adv-x="1320" d="M854 1135q221 0 313-144 82-128 82-430 0-139-45-254t-129-192Q921-29 676-29 464-29 315 80q-103 76-158 199t-55 282v563h338V563q0-155 70-237 61-70 168-70 124 0 184 92 51 77 51 215 0 61-2.5 99t-12 78.5T871 803t-50.5 36.5T741 854q-59 0-141-23v256q131 48 254 48zm-82-488V471H571v176h201z"/><glyph glyph-name="yoddageshhb" unicode="יּ" horiz-adv-x="708" d="M596 1124V387H258v461H135v276h461zM115 713V537H-86v176h201z"/><glyph glyph-name="finalkafdageshhb" unicode="ךּ" horiz-adv-x="1073" d="M90 1124h471q198 0 287-71 123-95 123-330v-983H633v868q0 73-6.5 115t-27 72.5T542 837t-100 11H90v276zm332-518V430H221v176h201z"/><glyph glyph-name="kafdageshhb" unicode="כּ" horiz-adv-x="1048" d="M82 1124h280q307 0 466-135t159-426q0-293-159-428T362 0H72v276h286q287 0 287 287 0 285-287 285H82v276zm317-471V477H199v176h200z"/><glyph glyph-name="lameddageshhb" unicode="לּ" horiz-adv-x="1044" d="M406 1483v-359h557V864L651 0H297l307 848H72v635h334zm-62-787V520H143v176h201z"/><glyph glyph-name="memdageshhb" unicode="מּ" horiz-adv-x="1413" d="M866 1139q196 0 328-117 162-143 168-397 8-356-168-516Q1054-20 784-20q-54 0-116 6v270q20-2 59-2 179 0 242 84 57 76 57 225 0 137-53.5 218T815 862q-121 0-188-114-42-72-65-188.5T510 207L485 0H150q31 326 102 739L41 1124h385l88-147q53 65 113 100 105 62 239 62zm25-506V457H690v176h201z"/><glyph glyph-name="nundageshhb" unicode="נּ" horiz-adv-x="815" d="M713 1124V412q0-146-35-226-39-87-124-136.5T350 0H109v276h139q127 0 127 134v438H129v276h584zM250 653V477H49v176h201z"/><glyph glyph-name="samekhdageshhb" unicode="סּ" horiz-adv-x="1316" d="M113 1124h565q266 0 412-125 170-144 170-430 0-284-170-446Q932-29 688-29q-256 0-416 160-159 159-159 430v563zm565-276H451V561q0-152 61-227 61-80 178-80t176 82q58 78 58 225 0 146-62 217-61 70-184 70zm102-195V477H580v176h200z"/><glyph glyph-name="finalpedageshhb" unicode="ףּ" horiz-adv-x="1214" d="M82 1124h625q132 0 225-54.5T1069 920q39-88 39-248v-932H770v948q0 80-40 120t-114 40H412V727q0-60 24-85.5t72-27.5v140h180V578H528V371q-94-20-175.5-5T211 421.5t-94.5 120T82 731v393z"/><glyph glyph-name="pedageshhb" unicode="פּ" horiz-adv-x="1232" d="M602 1157q268 0 418.5-147T1171 584q0-288-166.5-436T516 0H158v272h313q203 0 288 67t85 236q0 308-250 308-91 0-147-39.5T391 733q0-97 123-125V350q-49 0-103 10t-116 37.5-110.5 69-80.5 111T72 735q0 194 144.5 308T602 1157zm158-455V526H580v176h180z"/><glyph glyph-name="tsadidageshhb" unicode="צּ" horiz-adv-x="1200" d="M1143 1124l-37-184q-16-78-33-133t-47.5-113.5-79-100.5T831 524l209-282V0H88v279h543L0 1124h387l293-395q37 30 52.5 76.5T763 941q2 13 3 20l27 163h350zM289 598V422H88v176h201z"/><glyph glyph-name="qofdageshhb" unicode="קּ" horiz-adv-x="1290" d="M1208 1124V852L918 0H569l283 848H123v276h1085zM459 571v-831H123v831h336zm225 174V569H504v176h180z"/><glyph glyph-name="reshdageshhb" unicode="רּ" horiz-adv-x="1044" d="M72 1124h481q130 0 222.5-53.5T913 920q39-88 39-248V0H614v688q0 160-151 160H72v276zm342-471V477H213v176h201z"/><glyph glyph-name="shindageshhb" unicode="שּ" horiz-adv-x="1617" d="M1505 1124V662q0-392-248-568Q1083-29 805-29 530-29 356 96 113 271 113 662v462h319V635q0-42 2-62 58 17 97.5 38t63.5 44.5 37 57.5 17 67.5 4 83.5v260h312V852q0-158-60-268h172V408H897v163q-57-91-152-137t-229-69q41-47 86-72 85-49 207-49 125 0 211 51 166 99 166 340v489h319z"/><glyph glyph-name="tavdageshhb" unicode="תּ" horiz-adv-x="1462" d="M72 1124h897q132 0 225-54.5T1331 920q39-84 39-246V0h-338v688q0 80-39.5 120T881 848H655V416q0-102-22.5-179T573 113t-91-76T372-3 248-14Q155-14 74 8v254q54-8 88-8 78 0 116.5 42T317 459v389H72v276zm858-532V416H750v176h180z"/><glyph glyph-name="uniFB4B" unicode="וֹ" horiz-adv-x="669" d="M557 1124V0H215v848H92v276h465zm0 389v-194H238v194h319z"/><glyph glyph-name="i.loclTRK" horiz-adv-x="616" d="M473 1094V0H143v1094h330zm-160 510q68 0 116-48.5t48-117.5q0-68-48.5-116T313 1274q-69 0-117.5 48T147 1438q0 69 48.5 117.5T313 1604z"/><glyph glyph-name="f_b" horiz-adv-x="2172" d="M643 1632q175 0 375-47h278V991h4q110 133 304 133 114 0 210-49t157.5-130 95.5-184 34-214q0-89-21.5-173.5T2016 216 1915 87.5 1776.5.5 1606-31q-114 0-197 47t-129 129L1196 0H965v1294q-164 54-283 54-158 0-158-125v-129h246V825H524V0H195v825H72v269h123v166q0 194 115 283t333 89zm889-782q-115 0-176.5-86.5T1294 547q0-132 61.5-218.5T1532 242q113 0 174 86.5t61 218.5q0 130-61 216.5T1532 850z"/><glyph glyph-name="f_f_b" horiz-adv-x="2942" d="M1413 1632q175 0 375-47h278V991h5q110 133 303 133 114 0 210-49t157.5-130 95.5-184 34-214q0-89-21.5-173.5T2786 216 2685 87.5 2546.5.5 2376-31q-114 0-197 47t-129 129L1966 0h-231v1294q-164 54-283 54-158 0-158-125v-127h246V825h-246V0H965v825H524V0H195v825H72v269h123v159q0 169 98.5 268t267.5 99q142 0 250-51v-271q-103 50-164 50-123 0-123-119v-135h441v166q0 194 115 283t333 89zm889-782q-115 0-176.5-86.5T2064 547q0-132 61.5-218.5T2302 242q113 0 174 86.5t61 218.5q0 130-61 216.5T2302 850z"/><glyph glyph-name="f_f_h" horiz-adv-x="2879" d="M1413 1632q175 0 375-47h278V993q51 69 133.5 102t172.5 33q183 0 294-125.5T2777 676V0h-334v569q0 45-2 77t-12.5 73-28.5 66-53 43-84 18q-45 0-79.5-13.5t-55-39.5-33.5-52-18.5-61.5-7-58.5-1.5-52V0h-333v1294q-164 54-283 54-158 0-158-125v-127h246V825h-246V0H965v825H524V0H195v825H72v269h123v159q0 169 98.5 268t267.5 99q142 0 250-51v-271q-103 50-164 50-123 0-123-119v-135h441v166q0 194 115 283t333 89z"/><glyph glyph-name="f_f_j" horiz-adv-x="2187" d="M1331 1616q113 0 209-35v-264q-69 31-123 31-123 0-123-119v-135h770V-152q0-169-98.5-267.5T1698-518q-94 0-189 29v262q59-23 105-23 58 0 89.5 30t31.5 89v956h-441V0H965v825H524V0H195v825H72v269h123v155q0 169 98.5 268t267.5 99q113 0 209-35v-264q-69 31-123 31-123 0-123-119v-135h441v155q0 169 98.5 268t267.5 99zm733-103v-270h-333v270h333z"/><glyph glyph-name="f_f_k" horiz-adv-x="2834" d="M1413 1632q175 0 375-47h278V596l392 498h381l-433-547L2849 0h-393l-390 492V0h-331v1294q-164 54-283 54-158 0-158-125v-127h246V825h-246V0H965v825H524V0H195v825H72v269h123v159q0 169 98.5 268t267.5 99q142 0 250-51v-271q-103 50-164 50-123 0-123-119v-135h441v166q0 194 115 283t333 89z"/><glyph glyph-name="f_f_t" horiz-adv-x="2363" d="M1329 1616q113 0 209-35v-264q-69 31-123 31-123 0-123-119v-139h344q53 0 82 29t29 83v178h309v-286h246V831h-246V356q0-118 123-118 56 0 123 30V4q-96-35-209-35-169 0-268 99t-99 268v495h-434V0H963v831H524V0H195v831H72v259h123v159q0 169 98.5 268t267.5 99q113 0 209-35v-264q-69 31-123 31-123 0-123-119v-139h439v159q0 169 98.5 268t267.5 99z"/><glyph glyph-name="f_h" horiz-adv-x="2109" d="M643 1632q175 0 375-47h278V993q51 69 133.5 102t172.5 33q183 0 294-125.5T2007 676V0h-334v569q0 45-2 77t-12.5 73-28.5 66-53 43-84 18q-45 0-79.5-13.5t-55-39.5-33.5-52-18.5-61.5-7-58.5-1.5-52V0H965v1294q-164 54-283 54-158 0-158-125v-129h246V825H524V0H195v825H72v269h123v166q0 194 115 283t333 89z"/><glyph glyph-name="f_j" horiz-adv-x="1417" d="M561 1616q113 0 209-35v-264q-69 31-123 31-123 0-123-119v-135h770V-152q0-169-98.5-267.5T928-518q-94 0-189 29v262q59-23 105-23 58 0 89.5 30t31.5 89v956H524V0H195v825H72v269h123v155q0 169 98.5 268t267.5 99zm733-103v-270H961v270h333z"/><glyph glyph-name="f_k" horiz-adv-x="2066" d="M645 1632q175 0 375-47h278V596l392 498h381l-433-547L2081 0h-393l-390 492V0H967v1294q-164 54-283 54-158 0-158-125v-129h246V825H526V0H197v825H74v269h123v166q0 194 115 283t333 89z"/><glyph glyph-name="f_t" horiz-adv-x="1595" d="M561 1616q113 0 209-35v-264q-69 31-123 31-123 0-123-119v-139h344q53 0 82 29t29 83v178h309v-286h246V831h-246V356q0-118 123-118 56 0 123 30V4q-96-35-209-35-169 0-268 99t-99 268v495H524V0H195v831H72v259h123v159q0 169 98.5 268t267.5 99z"/><glyph glyph-name="t_f" horiz-adv-x="1611" d="M1362 1616q113 0 209-35v-264q-69 31-123 31-123 0-123-119v-135h246V831h-246V0H995v831H504V356q0-118 123-118 56 0 123 30V4q-96-35-209-35-169 0-268 99t-99 268v495H31v242h53q53 0 82 29.5t29 83.5v194h309v-286h491v155q0 169 99 268t268 99z"/><glyph glyph-name="t_i" horiz-adv-x="1445" d="M504 1380v-286h796V0H971v831H504V356q0-118 123-118 56 0 123 30V4q-96-35-209-35-169 0-268 99t-99 268v495H31v242h53q53 0 82 29.5t29 83.5v194h309zm799 133v-270H969v270h334z"/><glyph glyph-name="t_t" horiz-adv-x="1570" d="M1264 1380v-286h245V831h-245V356q0-118 122-118 56 0 123 30V4q-96-35-209-35-169 0-267.5 99T934 336v495H504V356q0-118 123-118 56 0 123 30V4q-96-35-209-35-169 0-268 99t-99 268v495H31v242h53q53 0 82 29.5t29 83.5v194h309v-293h350q100 0 100 113v180h310z"/><glyph glyph-name="t_y" horiz-adv-x="2011" d="M504 1380v-286h596l291-633 290 633h330L1276-492H942l281 609-332 714H504V356q0-118 123-118 56 0 123 30V4q-96-35-209-35-169 0-268 99t-99 268v495H31v242h53q53 0 82 29.5t29 83.5v194h309z"/><glyph glyph-name="a.sc" horiz-adv-x="1236" d="M758 1204L1233 0H915l-79 213H401L322 0H4l475 1204h279zM618 797L489 449h261z"/><glyph glyph-name="b.sc" horiz-adv-x="1146" d="M135 1204l541 2q142 0 242-100.5T1018 864q0-136-100-219 81-39 129.5-111t48.5-172q0-151-106-256.5T733 0H135v1204zm500-684H442V223h193q60 0 103.5 44.5T782 373q0 62-43 104.5T635 520zm-41 467H442V729h152q52 0 90.5 38t38.5 91-38.5 91-90.5 38z"/><glyph glyph-name="c.sc" horiz-adv-x="1138" d="M713 1229q177 0 323-78V858q-55 42-136 70t-165 28q-154 0-257-96T375 600t103-260 257-96q84 0 165 28t136 70V49Q890-29 713-29q-128 0-245.5 44t-208 123T115 337.5 61 600t54 262.5T259.5 1062t208 123 245.5 44z"/><glyph glyph-name="d.sc" horiz-adv-x="1288" d="M135 1204h459q145 0 265-47t200-128.5T1183 837t44-235-44-235-124.5-191.5T858 47 594 0H135v1204zm436-266H453V266h118q160 0 253.5 94.5T918 602t-93 241.5T571 938z"/><glyph glyph-name="e.sc" horiz-adv-x="970" d="M858 1204V938H457V729h360V487H457V266h401V0H133v1204h725z"/><glyph glyph-name="f.sc" horiz-adv-x="952" d="M860 1204V938H459V729h360V487H459V0H135v1204h725z"/><glyph glyph-name="fi.sc" horiz-adv-x="1540" d="M860 1204V938H463V731h356V485H463V0H135v1204h725zm537 0V0h-332v1204h332z"/><glyph glyph-name="fl.sc" horiz-adv-x="1837" d="M860 1204V938H463V731h356V485H463V0H135v1204h725zm539 0V276h389V0h-721v1204h332z"/><glyph glyph-name="g.sc" horiz-adv-x="1312" d="M725 1229q220 0 420-109V827q-85 65-189.5 102.5T756 967q-57 0-111-13.5t-102.5-43-85-71.5T400 736t-21-134q0-167 101-266.5T737 236q102 0 178 40v156H756v236h444V131q-73-68-196-114T733-29q-139 0-261.5 44T258 138.5t-144 199T61 600q0 190 91.5 335T394 1154.5t331 74.5z"/><glyph glyph-name="h.sc" horiz-adv-x="1359" d="M1225 1204V0H895v479H465V0H135v1204h330V737h430v467h330z"/><glyph glyph-name="i.sc" horiz-adv-x="622" d="M479 1204V0H143v1204h336z"/><glyph glyph-name="dotlessi.sc" horiz-adv-x="622" d="M479 1204V0H143v1204h336z"/><glyph glyph-name="j.sc" horiz-adv-x="710" d="M561 1204V348q0-171-101-272T186-25Q107-25 31-4v262q45-10 73-10 57 0 90 30.5t33 90.5v835h334z"/><glyph glyph-name="k.sc" horiz-adv-x="1236" d="M1223 1204L725 602 1223 0H817L465 465V0H133v1204h332V739l352 465h406z"/><glyph glyph-name="l.sc" horiz-adv-x="905" d="M467 1204V276h389V0H135v1204h332z"/><glyph glyph-name="m.sc" horiz-adv-x="1781" d="M1561 1204L1690 0h-306l-77 723-306-746H780L475 723 397 0H92l129 1204h354l312-755 319 755h355z"/><glyph glyph-name="n.sc" horiz-adv-x="1394" d="M406 1206l542-692v690h314V-2H991L446 694V0H133v1206h273z"/><glyph glyph-name="o.sc" horiz-adv-x="1400" d="M700 1229q124 0 238-42t204-119.5 143.5-199T1339 600t-53.5-268.5-143.5-199T938 13 700-29 462 13 258 132.5t-143.5 199T61 600t53.5 268.5 143.5 199T462 1187t238 42zm0-283q-128 0-226.5-93.5T375 600t98.5-252.5T700 254q60 0 117.5 23T922 342t75.5 109.5T1026 600t-28.5 148.5T922 858t-104.5 65T700 946z"/><glyph glyph-name="p.sc" horiz-adv-x="1077" d="M133 1204h520q155 0 264-109t109-264-109-263.5T653 459H446V0H133v1204zm440-229H446V686h127q59 0 101.5 41.5T717 829t-42.5 103T573 975z"/><glyph glyph-name="q.sc" horiz-adv-x="1464" d="M700 1229q124 0 238-42t204-119.5 143.5-199T1339 600q0-182-79-321L1526 0h-361l-73 92Q924-29 700-29q-124 0-238 42T258 132.5t-143.5 199T61 600t53.5 268.5 143.5 199T462 1187t238 42zm0-283q-128 0-226.5-93.5T375 600t98.5-252.5T700 254q60 0 117.5 23T922 342t75.5 109.5T1026 600t-28.5 148.5T922 858t-104.5 65T700 946z"/><glyph glyph-name="r.sc" horiz-adv-x="1122" d="M133 1204h518q155 0 264-109t109-264q0-126-75-221.5T756 483L1143 0H776L455 469h-11V0H133v1204zm434-229H444V686h123q62 0 105 41.5T715 829t-43.5 103T567 975z"/><glyph glyph-name="s.sc" horiz-adv-x="1021" d="M516 1231q201 0 379-101V854Q712 975 545 975q-148 0-148-111 0-56 42.5-82T612 717q54-16 93-31t93-46 88.5-67.5 59.5-95T971 348q0-172-127-275.5T512-31Q305-31 123 82v280q89-62 188-98.5T498 227q153 0 153 113 0 21-4.5 37t-19 29.5-27 22.5-43 20.5T505 468t-69 21q-35 11-58.5 19T313 534t-69.5 36-62 48-54.5 64-35 81.5T78 866q0 167 117 266t321 99z"/><glyph glyph-name="t.sc" horiz-adv-x="1015" d="M954 1204V938H674V0H342v938H61v266h893z"/><glyph glyph-name="u.sc" horiz-adv-x="1292" d="M1169 1204V494q0-161-71-282T909 30 645-31 381.5 30t-188 182T123 494v710h330V446q0-87 55-140.5T645 252t138.5 53.5T840 446v758h329z"/><glyph glyph-name="v.sc" horiz-adv-x="1290" d="M1280 1204L782-2H508L10 1204h340l295-758 295 758h340z"/><glyph glyph-name="w.sc" horiz-adv-x="2140" d="M1198 1212l297-739 293 731h342L1632-2h-274l-287 723L782-2H508L10 1204h342l293-731 297 739h256z"/><glyph glyph-name="x.sc" horiz-adv-x="1234" d="M1196 1204L809 639 1247 0H868L621 373 373 0H-6l438 639-387 565h375l201-303 200 303h375z"/><glyph glyph-name="y.sc" horiz-adv-x="1259" d="M895 1210l354-6-454-659V0H465v545L10 1204h359l262-393z"/><glyph glyph-name="z.sc" horiz-adv-x="1064" d="M979 1208v-184L494 266h485V0H86v184l485 758H86v266h893z"/><glyph glyph-name="zero.tf" horiz-adv-x="1269" d="M635 1513q246 0 392.5-197.5T1174 741t-146.5-574.5T635-31 242.5 166.5 96 741t146.5 574.5T635 1513zm0-290q-205 0-205-482 0-481 205-481t205 481q0 482-205 482z"/><glyph glyph-name="one.tf" horiz-adv-x="1269" d="M809 1483V287h358V0H102v287h359v727H201v233q124 6 211.5 68T535 1483h274z"/><glyph glyph-name="two.tf" horiz-adv-x="1269" d="M635 1513q217 0 353-128.5t136-321.5q0-29-2.5-54.5T1110 956t-15-46.5-23.5-48T1044 817t-36-50-38-50-46.5-58-49.5-61L625 287h473V0H186v223l516 633q64 77 84.5 113t20.5 84q0 77-46 124.5T635 1225q-94 0-141-63t-39-161H145q-8 222 126.5 367T635 1513z"/><glyph glyph-name="three.tf" horiz-adv-x="1269" d="M1008 1483v-221L762 971q147-41 239.5-159t92.5-298q0-127-49.5-230.5T907.5 112 701 7.5 442-29q-129 0-254 43v308q115-56 256-56 149 0 235.5 64.5T766 516q0 96-53.5 145.5T580 711q-102 0-209-101v316l231 276H203v281h805z"/><glyph glyph-name="four.tf" horiz-adv-x="1269" d="M954 1483L449 575h294v220l318 2V575h123V299h-123V0L743-2v301H84v281l504 903h366z"/><glyph glyph-name="five.tf" horiz-adv-x="1269" d="M1018 1483v-281H571l-14-231q58 10 107 10 91 0 172.5-32t144-91 99-149 36.5-199q0-168-84.5-293T804 28.5 481-35q-171 0-293 53l21 299q109-57 260-57 146 0 232.5 64T788 508q0 97-53 147t-133 50q-98 0-158-82l-208 86 53 774h729z"/><glyph glyph-name="six.tf" horiz-adv-x="1269" d="M995 1483L602 879q61 14 117 14 63 0 124.5-17T962 823.5t100-86.5 69-123.5 26-158.5q0-214-148-353T631-37 257 102.5 113 467q0 147 61 287 39 91 143 254l308 475h370zM639 649q-88 0-140.5-58T446 440q0-94 52-151.5T639 231t140.5 57T831 440q0 93-52 151t-140 58z"/><glyph glyph-name="seven.tf" horiz-adv-x="1269" d="M1118 1483v-269q-148-178-230.5-301T758 666q-48-127-66-278.5T676 0H322q0 401 79 655 86 276 308 541H150v287h968z"/><glyph glyph-name="eight.tf" horiz-adv-x="1269" d="M635 1513q217 0 354-113t137-298q0-199-161-320 104-57 154-153.5t50-210.5q0-205-147.5-330T635-37 248 88 100 418q0 114 50.5 210.5T305 782q-162 122-162 320 0 185 137.5 298T635 1513zm-2-874q-82 0-132-59.5T451 432t50-147.5T633 225t132 59.5T815 432t-50 147.5T633 639zm2 612q-70 0-113-48t-43-122q0-77 44-131.5T635 895t112 54.5 44 131.5q0 74-43 122t-113 48z"/><glyph glyph-name="nine.tf" horiz-adv-x="1269" d="M639 1520q230 0 374-139.5t144-364.5q0-147-61-287-37-86-144-254L645 0H274l394 604q-61-14-117-14-63 0-124.5 17T308 659.5 208 746t-69 123.5-26 158.5q0 214 148 353t378 139zm-8-269q-88 0-140.5-57T438 1044q0-95 52-152.5T631 834q88 0 140 57.5t52 152.5q0 93-52 150t-140 57z"/><glyph glyph-name="zero.sc" horiz-adv-x="1183" d="M592 1229q84 0 157.5-23t137-72.5 108.5-122 71-178.5 26-235-26-235-71-178.5-108.5-122-137-72.5T592-33 434.5-10t-137 72.5-108.5 122T118 363 92 598t26 235 71 178.5 108.5 122 137 72.5 157.5 23zm0-268q-94 0-140-85t-46-278 46-277.5T592 236t140 84.5T778 598t-46 278-140 85z"/><glyph glyph-name="one.sc" horiz-adv-x="851" d="M657 1204V0H338v780H102v211q113 4 192 60.5T406 1204h251z"/><glyph glyph-name="two.sc" horiz-adv-x="993" d="M498 1229q182 0 297.5-105.5T911 860q0-98-49-185T707 467L522 256h365V0H119v176l420 520q37 47 49.5 64t25.5 44.5 13 51.5q0 52-36.5 83.5T498 971q-76 0-112.5-55T362 782H84q-11 123 36 225t146.5 162 231.5 60z"/><glyph glyph-name="three.sc" horiz-adv-x="909" d="M750 1204V993L551 782q126-35 201-131t75-243q0-111-46.5-198t-124-138-170-77T293-31Q188-31 82 4v260q95-39 205-39 116 0 187 45.5T545 410q0 73-44 112t-112 39q-93 0-182-78v242l203 229H94v250h656z"/><glyph glyph-name="four.sc" horiz-adv-x="1089" d="M811 1204L422 483h201v158l270 4V483h115V236H893V0H623v236H82v223l405 745h324z"/><glyph glyph-name="five.sc" horiz-adv-x="937" d="M776 1204V954H412l-13-166q37 9 78 9 155 0 267-106t112-269q0-96-31-173.5T743 120 623 34 481-16 330-31Q186-31 82 12l16 256q98-43 219-43 116 0 185 45.5T571 418q0 60-41.5 101.5T426 561q-77 0-125-65l-182 71 43 637h614z"/><glyph glyph-name="six.sc" horiz-adv-x="1028" d="M815 1204L487 713q54 14 99 14 65 0 127.5-23t115-66 85-113T946 369q0-174-122.5-287T510-31 200.5 82.5 82 379q0 124 55 246 11 23 26.5 50.5t36 61 38 62 45 71T327 938t48.5 73 44.5 66.5 46 68 40 58.5h309zM518 506q-64 0-101.5-41T379 356q0-67 37.5-107T518 209q63 0 100 40.5T655 356q0 68-37 109t-100 41z"/><glyph glyph-name="seven.sc" horiz-adv-x="946" d="M864 1204V977q-96-106-161-197T594 586Q494 359 494 0H190q0 378 97 604 64 152 225 357H72v243h792z"/><glyph glyph-name="eight.sc" horiz-adv-x="1024" d="M512 1235q177 0 287-97.5T909 887q0-156-112-254 145-100 145-287 0-167-120-273T512-33 202 73 82 346q0 187 145 287-112 98-112 254 0 153 110 250.5t287 97.5zm-2-735q-62 0-106-43t-44-105q0-61 42.5-102T510 209q64 0 106.5 40.5T659 352q0 63-43.5 105.5T510 500zm2 493q-56 0-90.5-33.5T387 870q0-57 35-94t90-37 90 37 35 94q0 56-34.5 89.5T512 993z"/><glyph glyph-name="nine.sc" horiz-adv-x="1028" d="M518 1235q191 0 309.5-113.5T946 825q0-123-55-245Q827 450 522 0H213l328 492q-58-15-99-15-65 0-127.5 23t-115 66.5-85 113.5T82 836q0 174 122.5 286.5T518 1235zm-8-238q-63 0-101-41.5T371 848q0-68 38-110t101-42q64 0 102.5 42T651 848q0 67-38.5 108T510 997z"/><glyph glyph-name="comma.tf" horiz-adv-x="737" d="M627 285L313-215H109l165 500h353z"/><glyph glyph-name="period.tf" horiz-adv-x="737" d="M369 342q77 0 131.5-55T555 156q0-77-55-132T369-31q-77 0-132 55.5T182 156t55 131 132 55z"/><glyph glyph-name="slash.sc" horiz-adv-x="1013" d="M952 1204L309 0H61l644 1204h247z"/><glyph glyph-name="ampersand.sc" horiz-adv-x="1419" d="M612 1257q156 0 257.5-85T971 956q0-102-70-190-55-69-158-131l168-193 342 279V377l-159-131L1317 0H971l-78 84Q769-25 580-25 498-25 421-.5T281.5 70 181 190.5 143 356q0 199 181 326-97 139-97 252 0 137 110.5 230t274.5 93zm101-981L504 498q-78-54-78-129 0-66 45-104t111-38q79 0 131 49zm-105 746q-44 0-72-25t-28-63q0-65 72-123 120 68 120 133 0 32-25.5 55t-66.5 23z"/><glyph glyph-name="percent.sc" horiz-adv-x="1597" d="M1298 1204L469-2H299l829 1206h170zm-897 23q125 0 213-87t88-212q0-123-88.5-211T401 629t-211.5 88T102 928q0 126 87 212.5t212 86.5zm0-166q-53 0-89-38t-36-95q0-53 37-93t88-40q54 0 90.5 38.5T528 928q0 54-37.5 93.5T401 1061zm803-492q124 0 207.5-87t83.5-214q0-123-88.5-211T1194-31 982.5 57 895 268q0 125 91.5 213t217.5 88zm-10-166q-53 0-89-39t-36-96q0-53 37-93t88-40q54 0 90.5 38.5T1321 268t-37.5 95.5T1194 403z"/></font>
</defs>
</svg>
