<svg xmlns="http://www.w3.org/2000/svg"><defs><font id="Simpler-Light" horiz-adv-x="0"><font-face font-family="Simpler Light" font-weight="400" units-per-em="2048" panose-1="0 0 5 0 0 0 0 0 0 0" ascent="1638" descent="-410" x-height="1014" cap-height="1397" bbox="-68 -549 2269 2017" underline-thickness="102" underline-position="-307" unicode-range="U+0020-FB4B"/><glyph glyph-name="fi" unicode="fi" horiz-adv-x="1206" d="M459 1554q82 0 162-36v-103q-81 43-156 43-73 0-115-45-43-43-43-135v-264h686V0H893v922H307V0H205v922H72v92h133v278q0 124 76 197 74 65 178 65zm542-157v-123H883v123h118z"/><glyph glyph-name="fl" unicode="fl" horiz-adv-x="1198" d="M459 1554q82 0 162-36v-103q-81 43-156 43-73 0-115-45-43-43-43-135v-264h584v514h102V0H891v922H307V0H205v922H72v92h133v278q0 124 76 197 74 65 178 65z"/><glyph glyph-name="f_f" unicode="ff" horiz-adv-x="1318" d="M1137 1554q81 0 161-36v-103q-81 43-155 43-73 0-115-45-43-43-43-135v-264h283v-92H985V0H883v922H307V0H205v922H72v92h133v278q0 124 76 197 74 65 178 65 82 0 162-36v-103q-81 43-156 43-73 0-115-45-43-43-43-135v-264h576v278q0 125 75 197 74 65 179 65z"/><glyph glyph-name="f_f_i" unicode="ffi" horiz-adv-x="1884" d="M1137 1554q81 0 161-36v-103q-81 43-155 43-73 0-115-45-43-43-43-135v-264h686V0h-100v922H985V0H883v922H307V0H205v922H72v92h133v278q0 124 76 197 74 65 178 65 82 0 162-36v-103q-81 43-156 43-73 0-115-45-43-43-43-135v-264h576v278q0 125 75 197 74 65 179 65zm542-149v-123h-118v123h118z"/><glyph glyph-name="f_f_l" unicode="ffl" horiz-adv-x="1875" d="M1137 1554q81 0 161-36v-103q-81 43-155 43-73 0-115-45-43-43-43-135v-264h584v514h102V0h-102v922H985V0H883v922H307V0H205v922H72v92h133v278q0 124 76 197 74 65 178 65 82 0 162-36v-103q-81 43-156 43-73 0-115-45-43-43-43-135v-264h576v278q0 125 75 197 74 65 179 65z"/><glyph glyph-name=".notdef" horiz-adv-x="1024" d="M0 0v1434h1024V0H0zm512 809l348 522H164zm61-92l349-522v1044zM164 102h696L512 625zm-62 1137V195l349 522z"/><glyph glyph-name=".null"/><glyph glyph-name="nonmarkingreturn" horiz-adv-x="682"/><glyph glyph-name="space" horiz-adv-x="501"/><glyph glyph-name="exclam" unicode="!" horiz-adv-x="692" d="M408 1397V907l-35-485h-54l-34 483v492h123zM346 174q41 0 70.5-29.5T446 74 416.5 3 346-27 275.5 3 246 74t29.5 70.5T346 174z"/><glyph glyph-name="quotedbl" unicode="&quot;" horiz-adv-x="911" d="M799 1397L502 983h-58l164 414h191zm-332 0L170 983h-57l163 414h191z"/><glyph glyph-name="numbersign" unicode="#" horiz-adv-x="1529" d="M1028 1200V926h272v-82h-272V487h272v-84h-272V129h-90v274H590V129h-88v274H229v84h273v357H229v82h273v274h88V926h348v274h90zm-90-356H590V487h348v357z"/><glyph glyph-name="dollar" unicode="$" horiz-adv-x="1105" d="M727 1597l-29-198q103-26 197-92v-115q-101 73-211 108l-78-552q38-14 67.5-26t66-32 63.5-41 54.5-52.5 45-67.5 28.5-84 11-103q0-109-55.5-193.5T740 20.5 541-23l-43 3-25-166h-90L408-6Q282 22 174 98v117q124-88 248-123l82 576q-41 14-69 25.5t-66.5 31-64.5 40-54.5 51.5-45.5 66.5-28.5 84.5-11.5 106q-1 156 110 252t271 96q25 0 65-4l27 180h90zM590 637L510 78l31-2q121 0 207 72.5T834 342q0 65-18.5 114.5t-55.5 83-75.5 55T590 637zm-45 688q-114 0-195.5-68.5T268 1073q0-64 18.5-113t55-83 77.5-56 101-43l78 543q-36 4-53 4z"/><glyph glyph-name="percent" unicode="%" horiz-adv-x="1703" d="M1386 1397L432 0H317l955 1397h114zm-161-877q114 0 194-80t80-194-80-194.5T1225-29t-194.5 80.5T950 246t80.5 194 194.5 80zm0-88q-77 0-132-55t-55-131 55-131.5T1225 59q76 0 131 55t55 132q0 76-54.5 131T1225 432zm-746 993q114 0 194.5-80t80.5-194-80.5-194T479 877t-194 80-80 194 80 194 194 80zm0-88q-77 0-131.5-54.5T293 1151t54.5-131.5T479 965t132 55 55 131-55 131-132 55z"/><glyph glyph-name="ampersand" unicode="&amp;" horiz-adv-x="1556" d="M662 1444q144 0 245-85t101-222q0-110-55.5-176.5T770 823l-141-80 409-448 314 299V465l-252-238L1303 0h-132l-143 158Q919 61 834 18T631-25Q444-25 322.5 88.5T201 377q0 127 67 220t203 165q-87 107-125.5 182T307 1110q0 157 100.5 245.5T662 1444zM963 227L537 692q-123-63-178.5-135T303 381q0-138 90.5-224.5T631 70q99 0 170.5 38T963 227zM662 1356q-113 0-186-66.5T403 1116q0-38 9.5-73t19.5-59 37-60 41.5-52 52.5-59q158 86 213 121 74 50 103.5 95t29.5 108q0 99-73 159t-174 60z"/><glyph glyph-name="quotesingle" unicode="'" horiz-adv-x="579" d="M467 1397L170 983h-57l163 414h191z"/><glyph glyph-name="parenleft" unicode="(" horiz-adv-x="790" d="M606 1522h51q-180-205-255.5-420T326 643q0-245 75.5-460.5T657-236h-51Q417-111 307 135.5T197 643t110 506.5T606 1522z"/><glyph glyph-name="parenright" unicode=")" horiz-adv-x="790" d="M133 1522h51q189-127 299.5-372.5T594 643 483.5 135.5 184-236h-51Q313-33 389 183t76 460-76 459-256 420z"/><glyph glyph-name="asterisk" unicode="*" horiz-adv-x="1019" d="M559 1397l-20-310 274 113 33-96-283-72 187-237-80-60-158 264-164-266-80 60 191 239-285 74 31 98 276-112-22 305h100z"/><glyph glyph-name="plus" unicode="+" horiz-adv-x="1552" d="M825 1253V731h523v-98H825V111h-98v522H205v98h522v522h98z"/><glyph glyph-name="comma" unicode="," horiz-adv-x="561" d="M418 137L172-188h-61l116 325h191z"/><glyph glyph-name="hyphen" unicode="-" horiz-adv-x="1071" d="M907 549v-94H164v94h743z"/><glyph glyph-name="period" unicode="." horiz-adv-x="540" d="M270 174q41 0 71-29.5T371 74 341 3t-71-30-70.5 30T170 74t29.5 70.5T270 174z"/><glyph glyph-name="slash" unicode="/" horiz-adv-x="956" d="M936 1528L123 0H20l814 1528h102z"/><glyph glyph-name="zero" unicode="0" horiz-adv-x="1236" d="M618 1425q222 0 354-182.5T1104 700 972 157.5 618-25 264.5 157.5 133 700t131.5 542.5T618 1425zm0-98q-185 0-281.5-156.5T240 700t96.5-470T618 74t282 156 97 470-97 470.5T618 1327z"/><glyph glyph-name="one" unicode="1" horiz-adv-x="724" d="M457 1407V0H354v1124H143v66q89 7 157 68t85 149h72z"/><glyph glyph-name="two" unicode="2" horiz-adv-x="1062" d="M535 1421q172 0 283.5-99T930 1047q0-42-10.5-82t-24-71.5-49.5-82-62.5-84.5T696 618L272 98h627V0H141v96l547 672q74 93 105.5 157t31.5 122q0 122-72 202t-216 80q-78 0-136.5-23.5t-91.5-64-50-86-21-98.5H133q10 172 122.5 268t279.5 96z"/><glyph glyph-name="three" unicode="3" horiz-adv-x="1036" d="M815 1397l-2-84-369-463q27 8 56 8 169 0 286-114.5T903 463q0-119-43.5-213T741 97 569.5 7.5 362-23q-96 0-221 33v99q112-33 215-33 196 0 319.5 97.5T799 459q0 130-85.5 217.5T500 764q-95 0-178-57l-3 137 365 459H154v94h661z"/><glyph glyph-name="four" unicode="4" horiz-adv-x="1200" d="M799 1397L242 401h571v287h90V401h184v-98H903V-2l-90-2v307H111v78l571 1016h117z"/><glyph glyph-name="five" unicode="5" horiz-adv-x="1019" d="M848 1397v-94H336l-43-490q88 45 190 45 169 0 286.5-114.5T887 463q0-119-43.5-213T725 97 553.5 7.5 346-23q-96 0-221 33l8 96q110-30 207-30 95 0 174 23.5T653.5 169 748 290t34 171q0 129-86 216t-213 87q-138 0-227-102l-74 47 60 688h606z"/><glyph glyph-name="six" unicode="6" horiz-adv-x="1114" d="M647 1403h125q-261-383-436-672 92 74 221 74 179 0 295.5-117.5T971 391q-2-179-118.5-296.5T557-23 261.5 94.5 143 391q1 53 5.5 87.5t28.5 107T248 752q21 41 48.5 89.5t73 121.5 75.5 121 100 158 102 161zm-86-694q-136 0-223.5-93.5T250 391t87.5-224T561 74t223.5 93T872 391t-87.5 224.5T561 709z"/><glyph glyph-name="seven" unicode="7" horiz-adv-x="1044" d="M938 1397v-90q-204-216-309.5-409.5T469 463Q423 267 420 6H313q3 262 47 467 48 218 151.5 421T801 1296H104v101h834z"/><glyph glyph-name="eight" unicode="8" horiz-adv-x="1130" d="M565 1419q172 0 281.5-107T956 1047q0-101-49.5-185T768 729q107-51 168-145.5T997 375q0-169-121-283.5T565-23Q376-23 254.5 92T133 375q0 114 61.5 208.5T362 729q-89 49-138.5 133T174 1047q0 158 109.5 265T565 1419zm0-737q-145 0-236-88.5T238 375q0-129 91-217t236-88 236.5 88T893 375q0 130-91.5 218.5T565 682zm0 645q-127 0-208-80.5T276 1047q0-118 81-198.5T565 768q128 0 208.5 80.5T854 1047q0 119-80.5 199.5T565 1327z"/><glyph glyph-name="nine" unicode="9" horiz-adv-x="1114" d="M555 1425q179 0 295.5-117T969 1012q-1-53-5.5-87.5t-28.5-107T864 651q-21-41-48.5-89.5t-73-121.5T667 319 567 161 465 0H340q261 383 436 672-92-74-221-74-179 0-295.5 117.5T141 1012q2 179 118.5 296T555 1425zm-4-96q-136 0-223.5-93T240 1012t87.5-224.5T551 694t223.5 93.5T862 1012t-87.5 224-223.5 93z"/><glyph glyph-name="colon" unicode=":" horiz-adv-x="552" d="M358 1014V846H195v168h163zm0-848V0H195v166h163z"/><glyph glyph-name="semicolon" unicode=";" horiz-adv-x="649" d="M459 137L213-188h-61l116 325h191zm6 877V840H293v174h172z"/><glyph glyph-name="less" unicode="&lt;" horiz-adv-x="1038" d="M803 1327l71-74-530-526 526-528-67-70-598 600z"/><glyph glyph-name="equal" unicode="=" horiz-adv-x="1490" d="M1286 911v-98H205v98h1081zm0-356v-98H205v98h1081z"/><glyph glyph-name="greater" unicode="&gt;" horiz-adv-x="1038" d="M236 1327l598-598-598-600-68 70 526 528-530 526z"/><glyph glyph-name="question" unicode="?" horiz-adv-x="1038" d="M498 1419q143 0 239.5-83t96.5-222q0-94-40.5-164T647 774L483 612V422H381v223l246 248q61 61 84.5 110t23.5 111q0 88-61.5 151.5T500 1329q-225 0-250-225h-96q7 145 103.5 230t240.5 85zM432 174q41 0 70.5-29.5T532 74 502.5 3 432-27 361.5 3 332 74t29.5 70.5T432 174z"/><glyph glyph-name="at" unicode="@" horiz-adv-x="1847" d="M924 1288q200 0 370-99.5T1563.5 919t99.5-370q0-209-115-393h-114q133 173 133 391 0 175-86 323t-234 234-323 86-323-86-234-234-86-323q0-174 86-321.5T601-8t323-86q151 0 280 63v-104q-135-55-280-55-150 0-286.5 59t-236 158T243 263t-59 286 59 286 158.5 236 236 158 286.5 59zm200-719l-333-63q-123-27-123-133 0-73 53.5-114.5T862 217q69 0 121.5 26.5t82 71.5 44 97.5T1124 524v45zM918 967q139 0 212.5-73.5T1204 680V154h-51l-47 90q-43-54-110-82.5T856 133q-120 0-200.5 65T575 371q0 73 47.5 132T760 580l233 47q63 11 89 32.5t26 71.5q0 75-52.5 114.5T918 885q-92 0-151-42.5T709 721h-93q-1 118 85.5 182T918 967z"/><glyph glyph-name="A" unicode="A" horiz-adv-x="1372" d="M752 1403L1311 0h-113l-180 455H352L172 0H61l560 1403h131zm-66-109L391 553l588 2z"/><glyph glyph-name="B" unicode="B" horiz-adv-x="1196" d="M205 1397h416q150 0 256-106.5T983 1034q0-87-41.5-161.5T825 748q118-37 193.5-137t75.5-226q0-160-113-272.5T707 0H205v1397zm491-721H311V96h385q120 0 204.5 85T985 387q0 120-84.5 204.5T696 676zm-90 624H311V772h299q113 0 188.5 77t75.5 187-77.5 187-190.5 77z"/><glyph glyph-name="C" unicode="C" horiz-adv-x="1359" d="M866 1425q199 0 351-96v-115q-149 111-357 111-131 0-246-43t-200.5-121.5-135-197.5T229 700q0-191 85-334.5T541.5 149 860 76q209 0 357 110V72q-154-97-351-97-120 0-231 30.5t-204 92T269 245 161.5 448 123 700t38.5 252T269 1155t162 147.5 204 92 231 30.5z"/><glyph glyph-name="D" unicode="D" horiz-adv-x="1474" d="M205 1397h446q99 0 197-26.5t189.5-83 161-137T1310 953t42-255-42-255-111.5-197.5-161-137T848 26 651 0H205v1397zm452-101H309V102h348q81 0 162 22t158.5 70 137 116 96 168.5T1247 698t-36.5 220-96 169-137 116.5T819 1274t-162 22z"/><glyph glyph-name="E" unicode="E" horiz-adv-x="1060" d="M907 1397v-101H309V788h535v-98H309V100h598V0H205v1397h702z"/><glyph glyph-name="F" unicode="F" horiz-adv-x="1019" d="M907 1397v-101H309V788h535v-98H309V0H205v1397h702z"/><glyph glyph-name="G" unicode="G" horiz-adv-x="1531" d="M850 1427q261 0 450-129v-124q-85 76-203 114.5T850 1327q-128 0-240.5-41T410 1168 273 970t-50-270q0-195 83.5-337.5T533 148t329-74q234 3 393 114v418H946v92h408V133Q1152-27 862-27q-156 0-291.5 49.5T334 163 175 392.5 117 700q0 166 58.5 304.5t158.5 230 233 142 283 50.5z"/><glyph glyph-name="H" unicode="H" horiz-adv-x="1536" d="M1331 1397V0h-106v690H311V0H205v1397h106V788h914v609h106z"/><glyph glyph-name="I" unicode="I" horiz-adv-x="555" d="M330 1397V0H225v1397h105z"/><glyph glyph-name="J" unicode="J" horiz-adv-x="608" d="M403 1397V223q0-125-68-186.5T168-25Q116-25 61-6V96q56-18 95-18 65 0 103 36t38 113l2 1170h104z"/><glyph glyph-name="K" unicode="K" horiz-adv-x="1204" d="M1153 1397L485 698 1153 0h-135L350 698l668 699h135zm-844 0V0H205v1397h104z"/><glyph glyph-name="L" unicode="L" horiz-adv-x="980" d="M311 1397V100h609V0H205v1397h106z"/><glyph glyph-name="M" unicode="M" horiz-adv-x="2052" d="M1726 1401L1868-8h-96l-134 1288L1090-29H965L414 1280 283-8h-99l142 1409h143L1026 68l557 1333h143z"/><glyph glyph-name="N" unicode="N" horiz-adv-x="1609" d="M315 1407l988-1266v1256h102V-10h-111L307 1255V0H205v1407h110z"/><glyph glyph-name="O" unicode="O" horiz-adv-x="1691" d="M846 1425q138 0 266-48.5t230.5-138T1507 1009t62-309q0-137-40.5-255t-110-203T1257 96 1060 5 846-25 632 5 435 96 273.5 242t-110 203T123 700q0 169 62 309t164.5 229.5 230.5 138 266 48.5zm0-98q-93 0-181.5-25T497 1225t-138.5-125T264 923.5 229 700q0-150 53-271.5T423.5 231t197-116.5T846 74t225.5 40.5T1268 231t141 197.5 53 271.5q0 120-35 223.5t-94 176.5-138 125-167.5 77-181.5 25z"/><glyph glyph-name="P" unicode="P" horiz-adv-x="1095" d="M205 1397h401q161 0 274-113.5T993 1010 880 736.5 606 623H311V0H205v1397zm391-99H311V721h285q120 0 204.5 84.5T885 1010t-84.5 204-204.5 84z"/><glyph glyph-name="Q" unicode="Q" horiz-adv-x="1685" d="M846 1425q138 0 266-48.5t230.5-138T1507 1009t62-309q0-305-191-503L1593 0h-141l-143 131q-97-76-217-116T846-25Q737-25 632 5T435 96 273.5 242t-110 203T123 700q0 169 62 309t164.5 229.5 230.5 138 266 48.5zm0-98q-93 0-181.5-25T497 1225t-138.5-125T264 923.5 229 700q0-150 53-271.5T423.5 231t197-116.5T846 74t225.5 40.5T1268 231t141 197.5 53 271.5q0 120-35 223.5t-94 176.5-138 125-167.5 77-181.5 25z"/><glyph glyph-name="R" unicode="R" horiz-adv-x="1110" d="M205 1397h401q161 0 274-113.5T993 1010 880 736.5 606 623h-76L1049 0H913L403 623h-92V0H205v1397zm391-99H311V721h285q120 0 204.5 84.5T885 1010t-84.5 204-204.5 84z"/><glyph glyph-name="S" unicode="S" horiz-adv-x="1040" d="M514 1421q185 0 350-114v-115q-187 133-350 133-114 0-195-68.5T238 1073q0-56 15-101t38-74.5 63-55.5 76.5-41.5T522 766q141-48 203-86 186-111 186-338 0-109-55.5-193.5T709 20.5 510-23Q315-23 143 98v117Q335 76 510 76q121 0 207 72.5T803 342q0 35-6.5 66t-15 55-27 46.5-32.5 38-41.5 32T636 605t-50.5 22.5T535 647t-54 19-61.5 22.5-59.5 25-59 32-52.5 39.5-47 51-35 63-25 79-8.5 95q-1 156 110 252t271 96z"/><glyph glyph-name="T" unicode="T" horiz-adv-x="950" d="M915 1397v-101H528V0H422v1296H35v101h880z"/><glyph glyph-name="U" unicode="U" horiz-adv-x="1429" d="M1235 1397V520q0-127-40.5-231T1084 116.5t-165-106T715-27 511 10.5t-165 106T235.5 289 195 520v877h104l-2-881q0-204 120.5-324T715 72t297.5 120T1133 516l-3 881h105z"/><glyph glyph-name="V" unicode="V" horiz-adv-x="1372" d="M1311 1397L752-8H621L61 1397h111L686 100l512 1297h113z"/><glyph glyph-name="W" unicode="W" horiz-adv-x="2244" d="M1180 1403l454-1299 428 1297h111L1704-6h-139l-443 1280L680-6H543L72 1401h110L610 104l457 1299h113z"/><glyph glyph-name="X" unicode="X" horiz-adv-x="1259" d="M1133 1397L696 743 1198 0h-133L633 664 190 0H61l502 743-432 654h125l377-576 373 576h127z"/><glyph glyph-name="Y" unicode="Y" horiz-adv-x="1187" d="M1151 1397L645 635V0H541v635L37 1397h123l432-658 430 658h129z"/><glyph glyph-name="Z" unicode="Z" horiz-adv-x="1112" d="M999 1397v-103L233 98h766V0H113v102l766 1196H113v99h886z"/><glyph glyph-name="bracketleft" unicode="[" horiz-adv-x="692" d="M596 1524v-92H301V-141h295v-92H201v1757h395z"/><glyph glyph-name="backslash" unicode="\" horiz-adv-x="946" d="M135 1528L944 12H811L2 1528h133z"/><glyph glyph-name="bracketright" unicode="]" horiz-adv-x="692" d="M492 1524V-233H96v92h295v1573H96v92h396z"/><glyph glyph-name="asciicircum" unicode="^" horiz-adv-x="1353" d="M731 1399l399-754h-100l-352 660-352-660H223l402 754h106z"/><glyph glyph-name="underscore" unicode="_" horiz-adv-x="1107" d="M1018 0v-92H90V0h928z"/><glyph glyph-name="grave" unicode="`" horiz-adv-x="1228" d="M492 1513l139-270h-68l-231 270h160z"/><glyph glyph-name="a" unicode="a" horiz-adv-x="1077" d="M547 1040q366 0 366-364V0h-53l-67 123Q738 52 651 12.5T467-27q-152 0-253 83T113 274q0 94 59 168.5T346 539l303 59q83 16 119.5 46t36.5 97q0 101-72.5 155T547 950q-119 0-197.5-55.5T268 735H166q3 146 110.5 225.5T547 1040zm278-497l-444-86q-75-15-119.5-59.5T217 276q0-98 72-153t186-55q93 0 163 35t109.5 94.5T806 326t19 147v70z"/><glyph glyph-name="b" unicode="b" horiz-adv-x="1187" d="M307 1528V852h4q45 89 131 138.5t191 49.5q141 0 241.5-69T1025 782t50-280q0-151-51.5-270.5T872 42.5 639-27q-200 0-309 164L256 0h-51v1528h102zm328-582q-105 0-182.5-63.5T338 721t-37-215q0-115 36-212.5T450.5 132 635 68q108 0 186 64t114 161.5T971 506q0 117-37 215T819 882.5 635 946z"/><glyph glyph-name="c" unicode="c" horiz-adv-x="1028" d="M596 1040q159 0 289-86V846Q757 948 600 948q-167 0-274.5-121.5T221 508q-3-197 104.5-318.5T600 68q157 0 285 102V61Q755-25 596-25q-98 0-186 37T256 116.5t-104.5 169T113 508t38.5 222.5T256 899t154 104 186 37z"/><glyph glyph-name="d" unicode="d" horiz-adv-x="1187" d="M983 1528V0h-51l-74 137Q749-27 549-27q-133 0-233 69.5t-151.5 189T113 502q0 160 50 280t150.5 189 241.5 69q105 0 191-49.5T877 852h4v676h102zM553 946q-106 0-184-63.5T254 721t-37-215q0-115 36-212.5T367 132t186-64q107 0 184.5 64T851 293.5 887 506q0 117-37 215T735.5 882.5 553 946z"/><glyph glyph-name="e" unicode="e" horiz-adv-x="1138" d="M573 1040q110 0 199.5-43t146-116.5 87-169.5 30.5-205v-19H217q2-60 14-117t38.5-114 65.5-99 100-68 136-26q128 0 209.5 65.5T901 301h105Q961 152 850 62.5T573-27q-110 0-198.5 42.5T229.5 132 143 301.5 113 506t30 205 86.5 169.5 145 116.5 198.5 43zm-2-94q-85 0-151.5-32T313 826.5t-62.5-118T221 575h709q-6 56-20.5 107T866 782t-68.5 85-97.5 57.5T571 946z"/><glyph glyph-name="f" unicode="f" horiz-adv-x="641" d="M459 1554q82 0 162-36v-103q-81 43-156 43-73 0-115-45-43-43-43-135v-264h283v-92H307V0H205v922H72v92h133v278q0 124 76 197 74 65 178 65z"/><glyph glyph-name="g" unicode="g" horiz-adv-x="1116" d="M543 1040q48 0 157.5-13t176.5-13h188v-92H834q100-108 100-267 0-175-114.5-280T541 270q-105 0-193 45-43-12-70.5-48T250 193q0-58 38.5-84.5T416 66q17-3 110.5-17T674 23q274-54 274-269 0-142-112-217.5T545-539q-219 0-412 111v106q79-54 195-90.5T547-449q129 0 216 52t87 151q0 40-14 71.5T800-123t-56.5 35T676-65.5 598-51Q418-24 373-14q-25 5-38.5 8.5T295 6.5t-41.5 17-36 23.5-32 32.5-19.5 43-8 55.5q0 56 33.5 105t93.5 73Q147 467 147 655q0 175 115.5 280T543 1040zm-2-84q-125 0-210-79.5T246 655t85-221.5T541 354t210 79.5T836 655t-85 221.5T541 956z"/><glyph glyph-name="h" unicode="h" horiz-adv-x="1191" d="M305 1528V819q36 83 96 131 106 90 250 90 114 0 199-55 81-51 124.5-144t43.5-214V0H915v621q0 198-116 278-65 45-160 45-112 0-190-63-76-59-113-160t-37-221V0h-96v1528h102z"/><glyph glyph-name="i" unicode="i" horiz-adv-x="528" d="M315 1014V0H215v1014h100zm9 383v-123H205v123h119z"/><glyph glyph-name="j" unicode="j" horiz-adv-x="571" d="M367 1018V-309q0-116-64-174t-158-58q-43 0-96 17v96q46-16 86-16 60 0 95.5 33.5T266-305v1323h101zm10 377v-127H250v127h127z"/><glyph glyph-name="k" unicode="k" horiz-adv-x="987" d="M307 1528V512l477 502h140L440 508 944 0H803L307 504V0H205v1528h102z"/><glyph glyph-name="l" unicode="l" horiz-adv-x="512" d="M307 1528V0H205v1528h102z"/><glyph glyph-name="m" unicode="m" horiz-adv-x="1861" d="M1333 1040q150 0 252.5-113.5T1688 627V0h-103v621q0 152-73.5 237.5T1319 944q-159 0-241.5-122T995 500V0h-98v621q0 152-73.5 237.5T631 944q-159 0-245.5-122.5T299 500V0h-94v1014h55l78-131q50 75 128.5 116t176.5 41q117 0 207.5-70.5T977 776q44 129 135.5 196.5T1333 1040z"/><glyph glyph-name="n" unicode="n" horiz-adv-x="1191" d="M651 1040q114 0 199-55 81-51 124.5-144t43.5-214V0H915v621q0 198-116 278-65 45-160 45-112 0-190-63-76-59-113-160t-37-221V0h-94v1014h55l80-131q27 40 61 67 106 90 250 90z"/><glyph glyph-name="o" unicode="o" horiz-adv-x="1161" d="M580 1040q112 0 202.5-43t148-116.5 88-169.5 30.5-205q0-87-19-166t-58-146-94-116T746.5 1 580-27q-111 0-201 42.5T231.5 132t-88 169.5T113 506q0 147 52 266t160 193.5 255 74.5zm-2-94q-78 0-141-27.5T334.5 847t-66-103-37-118T221 506q0-79 18.5-152.5t57.5-141T408.5 104 578 63q81 0 145.5 27.5t104.5 72 66.5 104 37 118.5T942 506t-10.5 120.5-37 117.5T828 847t-104.5 71.5T578 946z"/><glyph glyph-name="p" unicode="p" horiz-adv-x="1187" d="M639 1040q133 0 233-69.5T1023.5 782t51.5-270q0-244-116-391.5T633-27q-105 0-190.5 50T311 162h-4v-676H205v1528h51l74-137q109 163 309 163zm-4-94q-107 0-184.5-64T337 720.5 301 508q0-117 37-215t114.5-161.5T635 68q106 0 184 63.5T934 293t37 215q0 115-36 212.5T821 882t-186 64z"/><glyph glyph-name="q" unicode="q" horiz-adv-x="1187" d="M549 1040q200 0 309-163l74 137h51V-514H881v676h-4Q831 73 745.5 23T555-27q-210 0-326 147.5T113 512q0 151 51.5 270T316 970.5t233 69.5zm4-94q-108 0-186-64T253 720.5 217 508q0-117 37-215t115-161.5T553 68q105 0 182.5 63.5T850 293t37 215q0 115-36 212.5T737.5 882 553 946z"/><glyph glyph-name="r" unicode="r" horiz-adv-x="739" d="M557 1036q50 0 100-16V903q-63 29-112 29-113 0-178.5-95T301 557V0h-96v1026h51l74-141q71 151 227 151z"/><glyph glyph-name="s" unicode="s" horiz-adv-x="872" d="M426 1040q73 0 150.5-22.5T713 954v-98q-62 43-139.5 69.5T426 952q-96 0-153.5-48.5T215 778q0-93 60-140t188-83q66-19 112-39t92-54.5 69.5-87T760 252q0-69-29.5-124T653 40.5t-104-49T434-25Q358-25 276.5-.5T133 68l-2 106q67-47 148.5-77.5T434 66q102 0 163.5 51.5T659 252q0 41-14 73.5t-34.5 54-58 40.5-71 30.5T395 477q-62 18-108.5 40t-87 57-61.5 86-21 118q0 65 28 117t74 82.5 99 46.5 108 16z"/><glyph glyph-name="t" unicode="t" horiz-adv-x="720" d="M315 1255v-241h289v-92H315V250q0-92 43-135 42-45 115-45 75 0 156 43V10q-82-37-162-37-103 0-178 66-76 73-76 197v686H51v82h78q38 0 68 30t30 68v153h88z"/><glyph glyph-name="u" unicode="u" horiz-adv-x="1159" d="M975 1014l-4-637q0-175-110.5-289.5T575-27 292 87 184 377v637h101V381q0-150 83-230.5T578 70t211.5 80.5T874 381v633h101z"/><glyph glyph-name="v" unicode="v" horiz-adv-x="1052" d="M991 1014L563-18h-74L61 1014h111l354-869 355 869h110z"/><glyph glyph-name="w" unicode="w" horiz-adv-x="1896" d="M999 1034l381-893 342 873h105L1417-18h-71L948 915 551-18h-72L70 1014h104l342-873 381 893h102z"/><glyph glyph-name="x" unicode="x" horiz-adv-x="1034" d="M909 1014L575 555 977 0H858L516 463 174 0H57l402 555-334 459h121l270-367 275 367h118z"/><glyph glyph-name="y" unicode="y" horiz-adv-x="1017" d="M967 1014L342-514H238L457 25 51 1014h107l350-852 352 852h107z"/><glyph glyph-name="z" unicode="z" horiz-adv-x="964" d="M840 1014v-86L252 92h588V0H125v86l588 836H125v92h715z"/><glyph glyph-name="braceleft" unicode="{" horiz-adv-x="710" d="M649 1528v-98h-88q-83 0-110-69t-27-251q0-78-3-130.5T409 881t-22-74.5-38-57-54-50-76-48.5q92-55 132.5-103T408 422t16-232q0-184 26.5-251.5T561-129h88v-98h-43q-84 0-139.5 19.5t-86.5 62-43.5 100T324 98v162q0 156-54 231.5T102 600v98q114 34 168 110.5t54 231.5v162q0 86 12.5 143.5T380 1446t86.5 62.5T606 1528h43z"/><glyph glyph-name="bar" unicode="|" horiz-adv-x="923" d="M514 1511V-217H410v1728h104z"/><glyph glyph-name="braceright" unicode="}" horiz-adv-x="710" d="M61 1528h43q84 0 139.5-19.5t87-62.5 44-100.5T387 1202v-162q0-156 53.5-232T608 698v-98q-75-22-121.5-58.5t-73-106T387 260V98q0-86-12.5-143.5t-44-100-87-62T104-227H61v98h89q84 0 110.5 67.5T287 190q0 154 16 232t56.5 126T492 651q-47 27-76 48.5t-54 50-38 57-22 74.5-12 98.5-3 130.5q0 182-27 251t-110 69H61v98z"/><glyph glyph-name="asciitilde" unicode="~" horiz-adv-x="1519" d="M1315 848V731q-125-133-295-133-62 0-137 22.5t-133.5 50-130 50T492 743q-62 0-125.5-35T205 590v117q84 73 156 103t153 30q57 0 129.5-23t130-50 129-50 127.5-23q64 0 129 35t156 119z"/><glyph glyph-name="exclamdown" unicode="¡" horiz-adv-x="663" d="M352 590l35-484v-491H264v489l35 486h53zm-26 448q41 0 70.5-29.5T426 938t-29.5-70.5T326 838t-71 29.5-30 70.5 30 70.5 71 29.5z"/><glyph glyph-name="cent" unicode="¢" horiz-adv-x="1161" d="M774 1397l-26-180q113-18 208-80v-109q-102 79-221 98L612 252q36-4 60-4 156 0 284 102V242q-130-86-288-86-24 0-70 4L575 0h-90l27 182q-146 49-237 183t-91 325q0 120 38 220.5t103 168 151 105 183 39.5l25 174h90zM524 276l121 854q-157-11-256-131t-96-309q-3-149 60-258t171-156z"/><glyph glyph-name="sterling" unicode="£" horiz-adv-x="1159" d="M655 1425q150 0 297-82v-112q-71 45-150.5 71.5T657 1329q-95 0-158-59t-63-150V788h395v-96H438V98h578V0H330v692H143v96h187v324q0 148 91 230.5t234 82.5z"/><glyph glyph-name="currency" unicode="¤" horiz-adv-x="1415" d="M707 1190q185 0 325-121l115 115 63-64-114-114q112-138 112-318t-114-319l116-117-63-64-117 117Q888 186 707 186q-179 0-318 113L279 188l-64 64 111 110Q205 502 205 688q0 182 119 324l-109 108 64 64 108-109q137 115 320 115zm0-96q-168 0-287-119T301 688q0-110 54-203t147.5-147.5T707 283q167 0 286 119t119 286-119 286.5T707 1094z"/><glyph glyph-name="yen" unicode="¥" horiz-adv-x="1294" d="M1204 1397L719 666h385v-95H698V395h406v-94H698V0H594v301H190v94h404v176H190v95h383L90 1397h123l432-658 430 658h129z"/><glyph glyph-name="brokenbar" unicode="¦" horiz-adv-x="923" d="M514 1511V860H410v651h104zm0-1077v-651H410v651h104z"/><glyph glyph-name="section" unicode="§" horiz-adv-x="1009" d="M489 1427q84 0 172.5-27t155.5-75v-108q-66 50-155.5 83T489 1333q-108 0-172.5-53.5T252 1139q0-101 60-154.5T510 889q47-14 74.5-23.5t69.5-27 67.5-34 55.5-42 46-54.5 27.5-68.5T862 553q0-96-48.5-163T684 287q84-42 131-106.5T862 14q0-76-32-136.5t-85-96-115.5-54T502-291q-82 0-171 27t-161 74v114q73-51 162.5-85T502-195q116 0 185 58t69 151q0 26-5.5 48.5t-12 40-23 34.5-27.5 28-37.5 24-40 20-49 19-50 16.5T455 262q-57 18-99 35.5T272.5 343 205 405t-42 83.5T147 600q0 92 47 155.5T319 854q-83 43-127.5 110T147 1139q0 72 31 129t81.5 90.5 109 51T489 1427zm-14-632q-102-4-162.5-57.5T252 600q0-101 60-154.5T510 350l16-6q106 7 168 64t62 145q0 32-8 59t-19 46.5-33.5 37.5-41 30-53.5 25.5-58.5 21.5-67.5 22z"/><glyph glyph-name="dieresis" unicode="¨" horiz-adv-x="1228" d="M797 1419q38 0 65-27t27-65-27-65-65-27-65 27-27 65 27 65 65 27zm-363 0q38 0 65-27t27-65-27-65-65-27-65 27-27 65 27 65 65 27z"/><glyph glyph-name="copyright" unicode="©" horiz-adv-x="1847" d="M924 1288q200 0 370-99.5T1563.5 919t99.5-370-99.5-370T1294-90.5 924-190q-150 0-286.5 59t-236 158T243 263t-59 286 59 286 158.5 236 236 158 286.5 59zm16-336q130 0 227-57V784q-86 80-223 80-138 0-227.5-82T627 549t89.5-233.5T944 233q137 0 223 80V203q-99-58-227-58-168 0-285.5 111.5T537 549t117.5 292T940 952zm-16 238q-175 0-323-86T367 870t-86-323q0-174 86-321.5T601-8t323-86 323 86 234 233.5 86 321.5q0 175-86 323t-234 234-323 86z"/><glyph glyph-name="guillemotleft" unicode="«" horiz-adv-x="1126" d="M942 891L662 496l280-396H819L535 496l284 395h123zm-350 0L311 496l281-396H469L184 496l285 395h123z"/><glyph glyph-name="logicalnot" unicode="¬" horiz-adv-x="1585" d="M1364 903V272h-98v533H221v98h1143z"/><glyph glyph-name="registered" unicode="®" horiz-adv-x="1843" d="M922 1286q200 0 369.5-99T1560 918.5t99-369.5-99-369.5T1291.5-89 922-188q-150 0-286.5 58.5T400 28 242.5 263 184 549t58.5 286T400 1070t235.5 157.5T922 1286zm0-94q-175 0-324-86.5t-235.5-235T276 547q0-174 86.5-322T598-9.5 922-96t323.5 86.5 235 234.5 86.5 322q0 175-86.5 323.5t-235 235T922 1192zM692 938h250q92 0 157.5-66t65.5-157-65.5-157T942 492h-6l272-330h-112L827 492h-47V162h-88v776zm244-84H780V575h156q60 0 99.5 40t39.5 100-39.5 99.5T936 854z"/><glyph glyph-name="macron" unicode="¯" horiz-adv-x="1228" d="M940 1335v-92H289v92h651z"/><glyph glyph-name="degree" unicode="°" horiz-adv-x="813" d="M410 1683q118 0 202-83.5t84-202.5-84-203-202-84-202.5 84-84.5 203q0 118 84 202t203 84zm0-92q-80 0-137.5-57.5T215 1397t57.5-137 137.5-58q79 0 136.5 57.5T604 1397q0 79-57 136.5T410 1591z"/><glyph glyph-name="plusminus" unicode="±" horiz-adv-x="1380" d="M748 1255V897h460v-98H748V440h-99v359H188v98h461v358h99zm460-1015v-99H188v99h1020z"/><glyph glyph-name="acute" unicode="´" horiz-adv-x="1228" d="M891 1513l-232-270h-67l139 270h160z"/><glyph glyph-name="paragraph" unicode="¶" horiz-adv-x="1269" d="M1108 1397v-97H981V-115H881v1415H602V-115h-96v842q-145-12-250.5 87T150 1061q0 141 94.5 238.5T473 1397h635z"/><glyph glyph-name="periodcentered" unicode="·" horiz-adv-x="651" d="M326 696q41 0 70.5-29.5T426 596t-29.5-70.5T326 496t-71 29.5-30 70.5 30 70.5 71 29.5z"/><glyph glyph-name="cedilla" unicode="¸" horiz-adv-x="1228" d="M635 10l-64-69q16 4 33 4 34 0 60-13 55-27 55-86 0-56-51-93.5T549-285t-121 33l25 45q8-3 21.5-8t19.5-7 18-3.5 27-1.5q29 0 52 13.5t23 45.5q0 51-57 51-10 0-21.5-1.5t-24-3.5-17.5-3l-23 31 90 104h74z"/><glyph glyph-name="guillemotright" unicode="»" horiz-adv-x="1126" d="M657 891l285-395-285-396H535l280 396-280 395h122zm-350 0l285-395-285-396H184l281 396-281 395h123z"/><glyph glyph-name="questiondown" unicode="¿" horiz-adv-x="1007" d="M627 590V367L381 119Q320 58 296 9t-24-111q0-88 62-151.5T508-317q225 0 250 225h96q-7-145-103.5-230.5T510-408q-142 0-239 83.5T174-102q0 94 40.5 164.5T360 238l164 161v191h103zm-52 448q41 0 71-29.5t30-70.5-30-70.5-71-29.5-70.5 29.5T475 938t29.5 70.5T575 1038z"/><glyph glyph-name="Agrave" unicode="À" horiz-adv-x="1372" d="M752 1403L1311 0h-113l-180 455H352L172 0H61l560 1403h131zm-66-109L391 553l588 2zm-129 559l139-270h-67l-232 270h160z"/><glyph glyph-name="Aacute" unicode="Á" horiz-adv-x="1372" d="M752 1403L1311 0h-113l-180 455H352L172 0H61l560 1403h131zm-66-109L391 553l588 2zm268 559l-231-270h-68l140 270h159z"/><glyph glyph-name="Acircumflex" unicode="Â" horiz-adv-x="1372" d="M752 1403L1311 0h-113l-180 455H352L172 0H61l560 1403h131zm-66-109L391 553l588 2zm43 559l238-270H856l-172 195-172-195H401l238 270h90z"/><glyph glyph-name="Atilde" unicode="Ã" horiz-adv-x="1372" d="M752 1403L1311 0h-113l-180 455H352L172 0H61l560 1403h131zm-66-109L391 553l588 2zm260 480h49q-26-195-176-195-43 0-147 49t-150 49q-37 0-69.5-27t-44.5-67h-41q29 191 176 191 41 0 139.5-50.5T834 1673q37 0 67 27.5t45 73.5z"/><glyph glyph-name="Adieresis" unicode="Ä" horiz-adv-x="1372" d="M752 1403L1311 0h-113l-180 455H352L172 0H61l560 1403h131zm-66-109L391 553l588 2zm176 465q38 0 65-27t27-65-27-65-65-27-65 27-27 65 27 65 65 27zm-362 0q38 0 65-27t27-65-27-65-65-27-65 27-27 65 27 65 65 27z"/><glyph glyph-name="Aring" unicode="Å" horiz-adv-x="1372" d="M752 1403L1311 0h-113l-180 455H352L172 0H61l560 1403h131zm-66-109L391 553l588 2zm-6 607q79 0 135.5-58t56.5-135q0-78-56.5-135T680 1516q-78 0-135.5 57T487 1708q0 77 57.5 135t135.5 58zm0-76q-49 0-83-34.5t-34-82.5q0-50 33.5-83.5T680 1591q48 0 82.5 34t34.5 83q0 47-35 82t-82 35z"/><glyph glyph-name="AE" unicode="Æ" horiz-adv-x="1824" d="M1692 1397v-101h-598V788h534v-98h-534V100h598V0H989v455H487L186 0H53l934 1397h705zm-703-180L553 555h436v662z"/><glyph glyph-name="Ccedilla" unicode="Ç" horiz-adv-x="1359" d="M866 1425q199 0 351-96v-115q-149 111-357 111-131 0-246-43t-200.5-121.5-135-197.5T229 700q0-191 85-334.5T541.5 149 860 76q209 0 357 110V72q-154-97-351-97-120 0-231 30.5t-204 92T269 245 161.5 448 123 700t38.5 252T269 1155t162 147.5 204 92 231 30.5zM922 10l-64-69q16 4 33 4 33 0 59-13 56-27 56-86 0-56-51-93.5T836-285t-121 33l24 45q8-3 21.5-8t19.5-7 18-3.5 27-1.5q29 0 52.5 13.5T901-168q0 51-57 51l-64-8-22 31 90 104h74z"/><glyph glyph-name="Egrave" unicode="È" horiz-adv-x="1060" d="M907 1397v-101H309V788h535v-98H309V100h598V0H205v1397h702zm-452 497l139-270h-68l-231 270h160z"/><glyph glyph-name="Eacute" unicode="É" horiz-adv-x="1060" d="M907 1397v-101H309V788h535v-98H309V100h598V0H205v1397h702zm-55 497l-231-270h-68l139 270h160z"/><glyph glyph-name="Ecircumflex" unicode="Ê" horiz-adv-x="1060" d="M907 1397v-101H309V788h535v-98H309V100h598V0H205v1397h702zm-280 497l237-270H754l-172 195-172-195H299l238 270h90z"/><glyph glyph-name="Edieresis" unicode="Ë" horiz-adv-x="1060" d="M907 1397v-101H309V788h535v-98H309V100h598V0H205v1397h702zm-147 403q38 0 65-27t27-65-27-65-65-27-65 27-27 65 27 65 65 27zm-363 0q38 0 65-27t27-65-27-65-65-27-65 27-27 65 27 65 65 27z"/><glyph glyph-name="Igrave" unicode="Ì" horiz-adv-x="555" d="M330 1397V0H225v1397h105zm-170 497l139-270h-68L0 1894h160z"/><glyph glyph-name="Iacute" unicode="Í" horiz-adv-x="555" d="M330 1397V0H225v1397h105zm227 497l-231-270h-68l139 270h160z"/><glyph glyph-name="Icircumflex" unicode="Î" horiz-adv-x="555" d="M330 1397V0H225v1397h105zm2 497l237-270H459l-172 195-172-195H4l238 270h90z"/><glyph glyph-name="Idieresis" unicode="Ï" horiz-adv-x="555" d="M330 1397V0H225v1397h105zm135 403q38 0 65-27t27-65-27-65-65-27-65 27-27 65 27 65 65 27zm-363 0q38 0 65.5-27t27.5-65-27.5-65-65.5-27-65 27-27 65 27 65 65 27z"/><glyph glyph-name="Eth" unicode="Ð" horiz-adv-x="1474" d="M205 1397h446q99 0 197-26.5t189.5-83 161-137T1310 953t42-255-42-255-111.5-197.5-161-137T848 26 651 0H205v651H0v94h205v652zm452-101H309V745h381v-94H309V102h348q81 0 162 22t158.5 70 137 116 96 168.5T1247 698t-36.5 220-96 169-137 116.5T819 1274t-162 22z"/><glyph glyph-name="Ntilde" unicode="Ñ" horiz-adv-x="1609" d="M315 1407l988-1266v1256h102V-10h-111L307 1255V0H205v1407h110zm779 414h49q-26-195-176-195-43 0-147 49t-150 49q-37 0-70-27t-45-67h-41q29 191 176 191 41 0 139.5-50.5T981 1720q37 0 67.5 27.5t45.5 73.5z"/><glyph glyph-name="Ograve" unicode="Ò" horiz-adv-x="1691" d="M846 1425q138 0 266-48.5t230.5-138T1507 1009t62-309q0-137-40.5-255t-110-203T1257 96 1060 5 846-25 632 5 435 96 273.5 242t-110 203T123 700q0 169 62 309t164.5 229.5 230.5 138 266 48.5zm0-98q-93 0-181.5-25T497 1225t-138.5-125T264 923.5 229 700q0-150 53-271.5T423.5 231t197-116.5T846 74t225.5 40.5T1268 231t141 197.5 53 271.5q0 120-35 223.5t-94 176.5-138 125-167.5 77-181.5 25zm-123 567l139-270h-67l-232 270h160z"/><glyph glyph-name="Oacute" unicode="Ó" horiz-adv-x="1691" d="M846 1425q138 0 266-48.5t230.5-138T1507 1009t62-309q0-137-40.5-255t-110-203T1257 96 1060 5 846-25 632 5 435 96 273.5 242t-110 203T123 700q0 169 62 309t164.5 229.5 230.5 138 266 48.5zm0-98q-93 0-181.5-25T497 1225t-138.5-125T264 923.5 229 700q0-150 53-271.5T423.5 231t197-116.5T846 74t225.5 40.5T1268 231t141 197.5 53 271.5q0 120-35 223.5t-94 176.5-138 125-167.5 77-181.5 25zm274 567l-231-270h-68l140 270h159z"/><glyph glyph-name="Ocircumflex" unicode="Ô" horiz-adv-x="1691" d="M846 1425q138 0 266-48.5t230.5-138T1507 1009t62-309q0-137-40.5-255t-110-203T1257 96 1060 5 846-25 632 5 435 96 273.5 242t-110 203T123 700q0 169 62 309t164.5 229.5 230.5 138 266 48.5zm0-98q-93 0-181.5-25T497 1225t-138.5-125T264 923.5 229 700q0-150 53-271.5T423.5 231t197-116.5T846 74t225.5 40.5T1268 231t141 197.5 53 271.5q0 120-35 223.5t-94 176.5-138 125-167.5 77-181.5 25zm49 567l238-270h-111l-172 195-172-195H567l238 270h90z"/><glyph glyph-name="Otilde" unicode="Õ" horiz-adv-x="1691" d="M846 1425q138 0 266-48.5t230.5-138T1507 1009t62-309q0-137-40.5-255t-110-203T1257 96 1060 5 846-25 632 5 435 96 273.5 242t-110 203T123 700q0 169 62 309t164.5 229.5 230.5 138 266 48.5zm0-98q-93 0-181.5-25T497 1225t-138.5-125T264 923.5 229 700q0-150 53-271.5T423.5 231t197-116.5T846 74t225.5 40.5T1268 231t141 197.5 53 271.5q0 120-35 223.5t-94 176.5-138 125-167.5 77-181.5 25zm266 488h49q-26-195-176-195-43 0-147 49t-150 49q-37 0-70-27t-45-67h-41q29 191 177 191 41 0 139-50.5t151-50.5q37 0 67.5 27.5t45.5 73.5z"/><glyph glyph-name="Odieresis" unicode="Ö" horiz-adv-x="1691" d="M846 1425q138 0 266-48.5t230.5-138T1507 1009t62-309q0-137-40.5-255t-110-203T1257 96 1060 5 846-25 632 5 435 96 273.5 242t-110 203T123 700q0 169 62 309t164.5 229.5 230.5 138 266 48.5zm0-98q-93 0-181.5-25T497 1225t-138.5-125T264 923.5 229 700q0-150 53-271.5T423.5 231t197-116.5T846 74t225.5 40.5T1268 231t141 197.5 53 271.5q0 120-35 223.5t-94 176.5-138 125-167.5 77-181.5 25zm182 473q38 0 65-27t27-65-27-65-65-27-65 27-27 65 27 65 65 27zm-362 0q38 0 65-27t27-65-27-65-65-27-65.5 27-27.5 65 27.5 65 65.5 27z"/><glyph glyph-name="multiply" unicode="×" horiz-adv-x="1552" d="M1145 1120l69-69-368-369 368-369-69-69-369 368-368-368-70 69 369 369-369 369 70 69 368-368z"/><glyph glyph-name="Oslash" unicode="Ø" horiz-adv-x="1691" d="M1493 1425l-152-186q107-96 167.5-233t60.5-306q0-137-40.5-255t-110-203T1257 96 1060 5 846-25q-234 0-420 127L322-27H197l151 189Q123 367 123 700q0 169 62 309t164.5 229.5 230.5 138 266 48.5q233 0 422-127l102 127h123zm-647-98q-93 0-181.5-25T497 1225t-138.5-125T264 923.5 229 700q0-285 185-458l790 979q-161 106-358 106zm434-168L489 180Q646 74 846 74q117 0 225.5 40.5T1268 231t141 197.5 53 271.5q0 288-182 459z"/><glyph glyph-name="Ugrave" unicode="Ù" horiz-adv-x="1429" d="M1235 1397V520q0-127-40.5-231T1084 116.5t-165-106T715-27 511 10.5t-165 106T235.5 289 195 520v877h104l-2-881q0-204 120.5-324T715 72t297.5 120T1133 516l-3 881h105zm-641 504l139-271h-67l-232 271h160z"/><glyph glyph-name="Uacute" unicode="Ú" horiz-adv-x="1429" d="M1235 1397V520q0-127-40.5-231T1084 116.5t-165-106T715-27 511 10.5t-165 106T235.5 289 195 520v877h104l-2-881q0-204 120.5-324T715 72t297.5 120T1133 516l-3 881h105zm-244 504l-231-271h-68l139 271h160z"/><glyph glyph-name="Ucircumflex" unicode="Û" horiz-adv-x="1429" d="M1235 1397V520q0-127-40.5-231T1084 116.5t-165-106T715-27 511 10.5t-165 106T235.5 289 195 520v877h104l-2-881q0-204 120.5-324T715 72t297.5 120T1133 516l-3 881h105zm-469 504l238-271H893l-172 195-172-195H438l238 271h90z"/><glyph glyph-name="Udieresis" unicode="Ü" horiz-adv-x="1429" d="M1235 1397V520q0-127-40.5-231T1084 116.5t-165-106T715-27 511 10.5t-165 106T235.5 289 195 520v877h104l-2-881q0-204 120.5-324T715 72t297.5 120T1133 516l-3 881h105zm-336 409q38 0 65-27t27-65-27-65-65-27-65 27-27 65 27 65 65 27zm-362 0q38 0 65-27t27-65-27-65-65-27-65.5 27-27.5 65 27.5 65 65.5 27z"/><glyph glyph-name="Yacute" unicode="Ý" horiz-adv-x="1187" d="M1151 1397L645 635V0H541v635L37 1397h123l432-658 430 658h129zm-285 497l-231-270h-68l140 270h159z"/><glyph glyph-name="Thorn" unicode="Þ" horiz-adv-x="1095" d="M311 1397v-312h295q161 0 274-113.5T993 698 880 424.5 606 311H311V0H205v1397h106zm285-410H311V410h285q120 0 204.5 84T885 698t-84.5 204.5T596 987z"/><glyph glyph-name="germandbls" unicode="ß" horiz-adv-x="1050" d="M508 1436q75 0 141-25.5t109-75.5q63-69 63-178 0-68-25-126t-62.5-95.5-81.5-71-81.5-56-62.5-47-25-46.5q0-37 36.5-63T627 598q15-6 64.5-25.5t71-29T817 516t55-37q99-77 99-215 0-98-46.5-165t-118-95.5T645-25q-114 0-223 45v101q110-55 223-55 100 0 163.5 49T872 264q0 87-63 144-23 19-53 34.5t-86 37-76 30.5q-104 44-138 70-65 49-65 133 0 29 11 54.5t37 50 43 37.5 53 38q46 33 74 56.5t56 56.5 41 70.5 13 82.5q0 62-41 109-66 75-178 75-108 0-168-66t-60-177L270 6h-96v1100q0 149 88 239.5t246 90.5z"/><glyph glyph-name="agrave" unicode="à" horiz-adv-x="1077" d="M547 1040q366 0 366-364V0h-53l-67 123Q738 52 651 12.5T467-27q-152 0-253 83T113 274q0 94 59 168.5T346 539l303 59q83 16 119.5 46t36.5 97q0 101-72.5 155T547 950q-119 0-197.5-55.5T268 735H166q3 146 110.5 225.5T547 1040zm278-497l-444-86q-75-15-119.5-59.5T217 276q0-98 72-153t186-55q93 0 163 35t109.5 94.5T806 326t19 147v70zm-401 985l139-271h-67l-232 271h160z"/><glyph glyph-name="aacute" unicode="á" horiz-adv-x="1077" d="M547 1040q366 0 366-364V0h-53l-67 123Q738 52 651 12.5T467-27q-152 0-253 83T113 274q0 94 59 168.5T346 539l303 59q83 16 119.5 46t36.5 97q0 101-72.5 155T547 950q-119 0-197.5-55.5T268 735H166q3 146 110.5 225.5T547 1040zm278-497l-444-86q-75-15-119.5-59.5T217 276q0-98 72-153t186-55q93 0 163 35t109.5 94.5T806 326t19 147v70zm-4 985l-231-271h-68l140 271h159z"/><glyph glyph-name="acircumflex" unicode="â" horiz-adv-x="1077" d="M547 1040q366 0 366-364V0h-53l-67 123Q738 52 651 12.5T467-27q-152 0-253 83T113 274q0 94 59 168.5T346 539l303 59q83 16 119.5 46t36.5 97q0 101-72.5 155T547 950q-119 0-197.5-55.5T268 735H166q3 146 110.5 225.5T547 1040zm278-497l-444-86q-75-15-119.5-59.5T217 276q0-98 72-153t186-55q93 0 163 35t109.5 94.5T806 326t19 147v70zm-229 985l238-271H723l-172 195-172-195H268l238 271h90z"/><glyph glyph-name="atilde" unicode="ã" horiz-adv-x="1077" d="M547 1040q366 0 366-364V0h-53l-67 123Q738 52 651 12.5T467-27q-152 0-253 83T113 274q0 94 59 168.5T346 539l303 59q83 16 119.5 46t36.5 97q0 101-72.5 155T547 950q-119 0-197.5-55.5T268 735H166q3 146 110.5 225.5T547 1040zm278-497l-444-86q-75-15-119.5-59.5T217 276q0-98 72-153t186-55q93 0 163 35t109.5 94.5T806 326t19 147v70zm-12 905h49q-26-195-176-195-44 0-147 49.5T389 1352q-37 0-70-27.5t-45-67.5h-41q29 191 177 191 41 0 139-50t151-50q37 0 67.5 27t45.5 73z"/><glyph glyph-name="adieresis" unicode="ä" horiz-adv-x="1077" d="M547 1040q366 0 366-364V0h-53l-67 123Q738 52 651 12.5T467-27q-152 0-253 83T113 274q0 94 59 168.5T346 539l303 59q83 16 119.5 46t36.5 97q0 101-72.5 155T547 950q-119 0-197.5-55.5T268 735H166q3 146 110.5 225.5T547 1040zm278-497l-444-86q-75-15-119.5-59.5T217 276q0-98 72-153t186-55q93 0 163 35t109.5 94.5T806 326t19 147v70zm-96 891q38 0 65-27.5t27-65.5-27-65-65-27-65 27-27 65 27 65.5 65 27.5zm-362 0q38 0 65-27.5t27-65.5-27-65-65-27-65.5 27-27.5 65 27.5 65.5T367 1434z"/><glyph glyph-name="aring" unicode="å" horiz-adv-x="1077" d="M547 1040q366 0 366-364V0h-53l-67 123Q738 52 651 12.5T467-27q-152 0-253 83T113 274q0 94 59 168.5T346 539l303 59q83 16 119.5 46t36.5 97q0 101-72.5 155T547 950q-119 0-197.5-55.5T268 735H166q3 146 110.5 225.5T547 1040zm278-497l-444-86q-75-15-119.5-59.5T217 276q0-98 72-153t186-55q93 0 163 35t109.5 94.5T806 326t19 147v70zM547 1575q79 0 135.5-58t56.5-135q0-78-56.5-135T547 1190q-78 0-135.5 57T354 1382q0 77 57.5 135t135.5 58zm0-76q-49 0-83-34.5t-34-82.5q0-49 33.5-82.5T547 1266q48 0 82.5 33.5T664 1382q0 47-35 82t-82 35z"/><glyph glyph-name="ae" unicode="æ" horiz-adv-x="1888" d="M1292 1040q110 0 199.5-43t146-116.5 87-169.5 30.5-205v-19H936q2-60 14-117t38.5-114 65.5-99 100-68 136-26q128 0 209.5 65.5T1620 301h104q-45-149-156-238.5T1292-27q-147 0-251.5 73.5T881 246Q780-27 473-27q-152 0-253 83T119 274q0 94 59 168.5T352 539l303 59q83 16 119.5 46t36.5 97q0 101-72.5 155T553 950q-119 0-197.5-55.5T274 735H172q3 146 110.5 225.5T553 1040q289 0 350-229 58 107 157 168t232 61zM831 543l-444-86q-75-15-119.5-59.5T223 276q0-98 72-153t186-55q93 0 163 35t109.5 94.5T812 326t19 147v70zm459 403q-85 0-151.5-32T1032 826.5t-62.5-118T940 575h709q-6 56-20.5 107T1585 782t-68.5 85-97.5 57.5-129 21.5z"/><glyph glyph-name="ccedilla" unicode="ç" horiz-adv-x="1028" d="M596 1040q159 0 289-86V846Q757 948 600 948q-167 0-274.5-121.5T221 508q-3-197 104.5-318.5T600 68q157 0 285 102V61Q755-25 596-25q-98 0-186 37T256 116.5t-104.5 169T113 508t38.5 222.5T256 899t154 104 186 37zM651 10l-63-69q16 4 33 4 33 0 59-13 55-27 55-86 0-56-51-93.5T565-285t-121 33l25 45q8-3 21.5-8t19.5-7 18-3.5 27-1.5q29 0 52.5 13.5T631-168q0 51-58 51-10 0-21.5-1.5t-24-3.5-17.5-3l-23 31 91 104h73z"/><glyph glyph-name="egrave" unicode="è" horiz-adv-x="1138" d="M573 1040q110 0 199.5-43t146-116.5 87-169.5 30.5-205v-19H217q2-60 14-117t38.5-114 65.5-99 100-68 136-26q128 0 209.5 65.5T901 301h105Q961 152 850 62.5T573-27q-110 0-198.5 42.5T229.5 132 143 301.5 113 506t30 205 86.5 169.5 145 116.5 198.5 43zm-2-94q-85 0-151.5-32T313 826.5t-62.5-118T221 575h709q-6 56-20.5 107T866 782t-68.5 85-97.5 57.5T571 946zm-118 582l139-271h-68l-231 271h160z"/><glyph glyph-name="eacute" unicode="é" horiz-adv-x="1138" d="M573 1040q110 0 199.5-43t146-116.5 87-169.5 30.5-205v-19H217q2-60 14-117t38.5-114 65.5-99 100-68 136-26q128 0 209.5 65.5T901 301h105Q961 152 850 62.5T573-27q-110 0-198.5 42.5T229.5 132 143 301.5 113 506t30 205 86.5 169.5 145 116.5 198.5 43zm-2-94q-85 0-151.5-32T313 826.5t-62.5-118T221 575h709q-6 56-20.5 107T866 782t-68.5 85-97.5 57.5T571 946zm279 582l-232-271h-67l139 271h160z"/><glyph glyph-name="ecircumflex" unicode="ê" horiz-adv-x="1138" d="M573 1040q110 0 199.5-43t146-116.5 87-169.5 30.5-205v-19H217q2-60 14-117t38.5-114 65.5-99 100-68 136-26q128 0 209.5 65.5T901 301h105Q961 152 850 62.5T573-27q-110 0-198.5 42.5T229.5 132 143 301.5 113 506t30 205 86.5 169.5 145 116.5 198.5 43zm-2-94q-85 0-151.5-32T313 826.5t-62.5-118T221 575h709q-6 56-20.5 107T866 782t-68.5 85-97.5 57.5T571 946zm54 582l237-271H752l-172 195-172-195H297l238 271h90z"/><glyph glyph-name="edieresis" unicode="ë" horiz-adv-x="1138" d="M573 1040q110 0 199.5-43t146-116.5 87-169.5 30.5-205v-19H217q2-60 14-117t38.5-114 65.5-99 100-68 136-26q128 0 209.5 65.5T901 301h105Q961 152 850 62.5T573-27q-110 0-198.5 42.5T229.5 132 143 301.5 113 506t30 205 86.5 169.5 145 116.5 198.5 43zm-2-94q-85 0-151.5-32T313 826.5t-62.5-118T221 575h709q-6 56-20.5 107T866 782t-68.5 85-97.5 57.5T571 946zm187 488q38 0 65-27.5t27-65.5-27-65-65-27-65 27-27 65 27 65.5 65 27.5zm-363 0q38 0 65-27.5t27-65.5-27-65-65-27-65 27-27 65 27 65.5 65 27.5z"/><glyph glyph-name="igrave" unicode="ì" horiz-adv-x="509" d="M305 1014V0H205v1014h100zm-170 516l139-270h-67l-232 270h160z"/><glyph glyph-name="iacute" unicode="í" horiz-adv-x="509" d="M305 1014V0H205v1014h100zm227 516l-231-270h-68l140 270h159z"/><glyph glyph-name="icircumflex" unicode="î" horiz-adv-x="509" d="M305 1014V0H205v1014h100zm2 516l238-270H434l-172 194-172-194H-20l237 270h90z"/><glyph glyph-name="idieresis" unicode="ï" horiz-adv-x="509" d="M305 1014V0H205v1014h100zm135 422q38 0 65-27.5t27-65.5-27-65-65-27-65 27-27 65 27 65.5 65 27.5zm-362 0q38 0 65-27.5t27-65.5-27-65-65-27-65 27-27 65 27 65.5 65 27.5z"/><glyph glyph-name="eth" unicode="ð" horiz-adv-x="1130" d="M520 1528l135-193 295 80v-82l-248-65q142-207 222-369.5t90-310.5q4-54 4-86 0-151-53.5-270.5t-155-189T575-27q-200 0-321 149.5T133 502q0 160 50 280t150.5 189 241.5 69q95 0 177-32-49 86-146 233l-266-72v82l219 60q-44 63-158 217h119zm55-582q-106 0-184.5-63.5T275 721t-37-215q0-85 21.5-162.5t62-139.5T428 105t147-37q108 0 186.5 64t115 161.5T913 506q0 117-37.5 215t-116 161.5T575 946z"/><glyph glyph-name="ntilde" unicode="ñ" horiz-adv-x="1191" d="M651 1040q114 0 199-55 81-51 124.5-144t43.5-214V0H915v621q0 198-116 278-65 45-160 45-112 0-190-63-76-59-113-160t-37-221V0h-94v1014h55l80-131q27 40 61 67 106 90 250 90zm260 408h50q-26-195-177-195-44 0-147 49.5T487 1352q-37 0-69.5-27.5T373 1257h-41q29 191 176 191 41 0 139.5-50t151.5-50q37 0 67 27t45 73z"/><glyph glyph-name="ograve" unicode="ò" horiz-adv-x="1161" d="M580 1040q112 0 202.5-43t148-116.5 88-169.5 30.5-205q0-87-19-166t-58-146-94-116T746.5 1 580-27q-111 0-201 42.5T231.5 132t-88 169.5T113 506q0 147 52 266t160 193.5 255 74.5zm-2-94q-78 0-141-27.5T334.5 847t-66-103-37-118T221 506q0-79 18.5-152.5t57.5-141T408.5 104 578 63q81 0 145.5 27.5t104.5 72 66.5 104 37 118.5T942 506t-10.5 120.5-37 117.5T828 847t-104.5 71.5T578 946zm-119 582l139-271h-68l-231 271h160z"/><glyph glyph-name="oacute" unicode="ó" horiz-adv-x="1161" d="M580 1040q112 0 202.5-43t148-116.5 88-169.5 30.5-205q0-87-19-166t-58-146-94-116T746.5 1 580-27q-111 0-201 42.5T231.5 132t-88 169.5T113 506q0 147 52 266t160 193.5 255 74.5zm-2-94q-78 0-141-27.5T334.5 847t-66-103-37-118T221 506q0-79 18.5-152.5t57.5-141T408.5 104 578 63q81 0 145.5 27.5t104.5 72 66.5 104 37 118.5T942 506t-10.5 120.5-37 117.5T828 847t-104.5 71.5T578 946zm278 582l-231-271h-68l139 271h160z"/><glyph glyph-name="ocircumflex" unicode="ô" horiz-adv-x="1161" d="M580 1040q112 0 202.5-43t148-116.5 88-169.5 30.5-205q0-87-19-166t-58-146-94-116T746.5 1 580-27q-111 0-201 42.5T231.5 132t-88 169.5T113 506q0 147 52 266t160 193.5 255 74.5zm-2-94q-78 0-141-27.5T334.5 847t-66-103-37-118T221 506q0-79 18.5-152.5t57.5-141T408.5 104 578 63q81 0 145.5 27.5t104.5 72 66.5 104 37 118.5T942 506t-10.5 120.5-37 117.5T828 847t-104.5 71.5T578 946zm53 582l237-271H758l-172 195-172-195H303l238 271h90z"/><glyph glyph-name="otilde" unicode="õ" horiz-adv-x="1161" d="M580 1040q112 0 202.5-43t148-116.5 88-169.5 30.5-205q0-87-19-166t-58-146-94-116T746.5 1 580-27q-111 0-201 42.5T231.5 132t-88 169.5T113 506q0 147 52 266t160 193.5 255 74.5zm-2-94q-78 0-141-27.5T334.5 847t-66-103-37-118T221 506q0-79 18.5-152.5t57.5-141T408.5 104 578 63q81 0 145.5 27.5t104.5 72 66.5 104 37 118.5T942 506t-10.5 120.5-37 117.5T828 847t-104.5 71.5T578 946zm270 502h49q-26-195-176-195-43 0-146.5 49.5T424 1352q-37 0-70-27.5t-45-67.5h-41q29 191 176 191 41 0 139.5-50t151.5-50q37 0 67.5 27t45.5 73z"/><glyph glyph-name="odieresis" unicode="ö" horiz-adv-x="1161" d="M580 1040q112 0 202.5-43t148-116.5 88-169.5 30.5-205q0-87-19-166t-58-146-94-116T746.5 1 580-27q-111 0-201 42.5T231.5 132t-88 169.5T113 506q0 147 52 266t160 193.5 255 74.5zm-2-94q-78 0-141-27.5T334.5 847t-66-103-37-118T221 506q0-79 18.5-152.5t57.5-141T408.5 104 578 63q81 0 145.5 27.5t104.5 72 66.5 104 37 118.5T942 506t-10.5 120.5-37 117.5T828 847t-104.5 71.5T578 946zm186 488q38 0 65-27.5t27-65.5-27-65-65-27-65 27-27 65 27 65.5 65 27.5zm-363 0q38 0 65.5-27.5T494 1341t-27.5-65-65.5-27-65 27-27 65 27 65.5 65 27.5z"/><glyph glyph-name="divide" unicode="÷" horiz-adv-x="1552" d="M1348 731v-98H203v98h1145zM776 332q46 0 79.5-33.5T889 219t-33.5-79.5T776 106t-79 33.5-33 79.5 33 79.5 79 33.5zm0 925q46 0 79.5-33t33.5-79-33.5-79.5T776 1032t-79 33.5-33 79.5 33 79 79 33z"/><glyph glyph-name="oslash" unicode="ø" horiz-adv-x="1161" d="M580 1040q182 0 305-110l67 80h115L942 864q107-147 107-358 0-87-19-166t-58-146-94-116T746.5 1 580-27Q400-27 279 84L207 0H92l127 150Q113 292 113 506q0 147 52 266t160 193.5 255 74.5zm294-256L340 158q92-95 238-95 81 0 145.5 27.5t104.5 72 66.5 104 37 118.5T942 506q0 161-68 278zM578 946q-78 0-141-27.5T334.5 847t-66-103-37-118T221 506q0-162 66-277l532 625q-92 92-241 92z"/><glyph glyph-name="ugrave" unicode="ù" horiz-adv-x="1159" d="M975 1014l-4-637q0-175-110.5-289.5T575-27 292 87 184 377v637h101V381q0-150 83-230.5T578 70t211.5 80.5T874 381v633h101zm-510 514l139-271h-67l-232 271h160z"/><glyph glyph-name="uacute" unicode="ú" horiz-adv-x="1159" d="M975 1014l-4-637q0-175-110.5-289.5T575-27 292 87 184 377v637h101V381q0-150 83-230.5T578 70t211.5 80.5T874 381v633h101zm-113 514l-231-271h-68l139 271h160z"/><glyph glyph-name="ucircumflex" unicode="û" horiz-adv-x="1159" d="M975 1014l-4-637q0-175-110.5-289.5T575-27 292 87 184 377v637h101V381q0-150 83-230.5T578 70t211.5 80.5T874 381v633h101zm-338 514l237-271H764l-172 195-172-195H309l238 271h90z"/><glyph glyph-name="udieresis" unicode="ü" horiz-adv-x="1159" d="M975 1014l-4-637q0-175-110.5-289.5T575-27 292 87 184 377v637h101V381q0-150 83-230.5T578 70t211.5 80.5T874 381v633h101zm-205 420q38 0 65-27.5t27-65.5-27-65-65-27-65 27-27 65 27 65.5 65 27.5zm-362 0q38 0 65-27.5t27-65.5-27-65-65-27-65.5 27-27.5 65 27.5 65.5T408 1434z"/><glyph glyph-name="yacute" unicode="ý" horiz-adv-x="1017" d="M967 1014L342-514H238L457 25 51 1014h107l350-852 352 852h107zm-174 514l-232-271h-67l139 271h160z"/><glyph glyph-name="thorn" unicode="þ" horiz-adv-x="1187" d="M307 1397V838q107 202 332 202 133 0 233-69.5T1023.5 782t51.5-270q0-244-116-391.5T633-27q-105 0-190.5 50T311 162h-4v-676H205v1911h102zm328-451q-107 0-184.5-64T337 720.5 301 508q0-117 37-215t114.5-161.5T635 68q106 0 184 63.5T934 293t37 215q0 115-36 212.5T821 882t-186 64z"/><glyph glyph-name="ydieresis" unicode="ÿ" horiz-adv-x="1017" d="M967 1014L342-514H238L457 25 51 1014h107l350-852 352 852h107zm-267 420q38 0 65.5-27.5T793 1341t-27.5-65-65.5-27-65 27-27 65 27 65.5 65 27.5zm-362 0q38 0 65-27.5t27-65.5-27-65-65-27-65 27-27 65 27 65.5 65 27.5z"/><glyph glyph-name="Amacron" unicode="Ā" horiz-adv-x="1372" d="M752 1403L1311 0h-113l-180 455H352L172 0H61l560 1403h131zm-66-109L391 553l588 2zm320 381v-92H354v92h652z"/><glyph glyph-name="amacron" unicode="ā" horiz-adv-x="1077" d="M547 1040q366 0 366-364V0h-53l-67 123Q738 52 651 12.5T467-27q-152 0-253 83T113 274q0 94 59 168.5T346 539l303 59q83 16 119.5 46t36.5 97q0 101-72.5 155T547 950q-119 0-197.5-55.5T268 735H166q3 146 110.5 225.5T547 1040zm278-497l-444-86q-75-15-119.5-59.5T217 276q0-98 72-153t186-55q93 0 163 35t109.5 94.5T806 326t19 147v70zm47 807v-93H221v93h651z"/><glyph glyph-name="Abreve" unicode="Ă" horiz-adv-x="1372" d="M752 1403L1311 0h-113l-180 455H352L172 0H61l560 1403h131zm-66-109L391 553l588 2zm254 518h51q-20-108-100.5-167.5T680 1585t-210.5 59.5T369 1812h51q30-71 103.5-105t156.5-34 156.5 34T940 1812z"/><glyph glyph-name="abreve" unicode="ă" horiz-adv-x="1077" d="M547 1040q366 0 366-364V0h-53l-67 123Q738 52 651 12.5T467-27q-152 0-253 83T113 274q0 94 59 168.5T346 539l303 59q83 16 119.5 46t36.5 97q0 101-72.5 155T547 950q-119 0-197.5-55.5T268 735H166q3 146 110.5 225.5T547 1040zm278-497l-444-86q-75-15-119.5-59.5T217 276q0-98 72-153t186-55q93 0 163 35t109.5 94.5T806 326t19 147v70zm-18 944h51q-20-108-100.5-167.5T547 1260t-210.5 59.5T236 1487h51q30-71 103.5-105t156.5-34 156.5 34T807 1487z"/><glyph glyph-name="Aogonek" unicode="Ą" horiz-adv-x="1372" d="M752 1403L1311 0h-113l-180 455H352L172 0H61l560 1403h131zm-66-109L391 553l588 2zM1241 10h25q-6-30-6-55v-8q0-73 38-112.5t105-39.5q13 0 45 4v-59q-40-16-84-16-68 0-116 37.5T1200-123q0 75 41 133z"/><glyph glyph-name="aogonek" unicode="ą" horiz-adv-x="1077" d="M547 1040q366 0 366-364V0h-53l-67 123Q738 52 651 12.5T467-27q-152 0-253 83T113 274q0 94 59 168.5T346 539l303 59q83 16 119.5 46t36.5 97q0 101-72.5 155T547 950q-119 0-197.5-55.5T268 735H166q3 146 110.5 225.5T547 1040zm278-497l-444-86q-75-15-119.5-59.5T217 276q0-98 72-153t186-55q93 0 163 35t109.5 94.5T806 326t19 147v70zm37-533h25q-6-30-6-55v-8q0-73 38-112.5t105-39.5q13 0 45 4v-59q-40-16-84-16-68 0-116 37.5T821-123q0 75 41 133z"/><glyph glyph-name="Cacute" unicode="Ć" horiz-adv-x="1359" d="M866 1425q199 0 351-96v-115q-149 111-357 111-131 0-246-43t-200.5-121.5-135-197.5T229 700q0-191 85-334.5T541.5 149 860 76q209 0 357 110V72q-154-97-351-97-120 0-231 30.5t-204 92T269 245 161.5 448 123 700t38.5 252T269 1155t162 147.5 204 92 231 30.5zm264 469l-231-270h-68l140 270h159z"/><glyph glyph-name="cacute" unicode="ć" horiz-adv-x="1028" d="M596 1040q159 0 289-86V846Q757 948 600 948q-167 0-274.5-121.5T221 508q-3-197 104.5-318.5T600 68q157 0 285 102V61Q755-25 596-25q-98 0-186 37T256 116.5t-104.5 169T113 508t38.5 222.5T256 899t154 104 186 37zm274 488l-231-271h-68l140 271h159z"/><glyph glyph-name="Cdotaccent" unicode="Ċ" horiz-adv-x="1359" d="M866 1425q199 0 351-96v-115q-149 111-357 111-131 0-246-43t-200.5-121.5-135-197.5T229 700q0-191 85-334.5T541.5 149 860 76q209 0 357 110V72q-154-97-351-97-120 0-231 30.5t-204 92T269 245 161.5 448 123 700t38.5 252T269 1155t162 147.5 204 92 231 30.5zm-10 375q38 0 65-27t27-65-27-65-65-27-65 27-27 65 27 65 65 27z"/><glyph glyph-name="cdotaccent" unicode="ċ" horiz-adv-x="1028" d="M596 1040q159 0 289-86V846Q757 948 600 948q-167 0-274.5-121.5T221 508q-3-197 104.5-318.5T600 68q157 0 285 102V61Q755-25 596-25q-98 0-186 37T256 116.5t-104.5 169T113 508t38.5 222.5T256 899t154 104 186 37zm0 394q38 0 65-27.5t27-65.5-27-65-65-27-65 27-27 65 27 65.5 65 27.5z"/><glyph glyph-name="Ccaron" unicode="Č" horiz-adv-x="1359" d="M866 1425q199 0 351-96v-115q-149 111-357 111-131 0-246-43t-200.5-121.5-135-197.5T229 700q0-191 85-334.5T541.5 149 860 76q209 0 357 110V72q-154-97-351-97-120 0-231 30.5t-204 92T269 245 161.5 448 123 700t38.5 252T269 1155t162 147.5 204 92 231 30.5zm277 469l-238-270h-90l-237 270h110l172-194 172 194h111z"/><glyph glyph-name="ccaron" unicode="č" horiz-adv-x="1028" d="M596 1040q159 0 289-86V846Q757 948 600 948q-167 0-274.5-121.5T221 508q-3-197 104.5-318.5T600 68q157 0 285 102V61Q755-25 596-25q-98 0-186 37T256 116.5t-104.5 169T113 508t38.5 222.5T256 899t154 104 186 37zm287 488l-238-271h-90l-238 271h111l172-195 172 195h111z"/><glyph glyph-name="Dcaron" unicode="Ď" horiz-adv-x="1474" d="M205 1397h446q99 0 197-26.5t189.5-83 161-137T1310 953t42-255-42-255-111.5-197.5-161-137T848 26 651 0H205v1397zm452-101H309V102h348q81 0 162 22t158.5 70 137 116 96 168.5T1247 698t-36.5 220-96 169-137 116.5T819 1274t-162 22zm297 598l-237-270h-90l-238 270h111l172-194 172 194h110z"/><glyph glyph-name="dcaron" unicode="ď" horiz-adv-x="1447" d="M983 1528V0h-51l-74 137Q749-27 549-27q-133 0-233 69.5t-151.5 189T113 502q0 160 50 280t150.5 189 241.5 69q105 0 191-49.5T877 852h4v676h102zM553 946q-106 0-184-63.5T254 721t-37-215q0-115 36-212.5T367 132t186-64q107 0 184.5 64T851 293.5 887 506q0 117-37 215T735.5 882.5 553 946zm895 582l-231-271h-68l139 271h160z"/><glyph glyph-name="Dcroat" unicode="Đ" horiz-adv-x="1474" d="M205 1397h446q99 0 197-26.5t189.5-83 161-137T1310 953t42-255-42-255-111.5-197.5-161-137T848 26 651 0H205v651H0v94h205v652zm452-101H309V745h381v-94H309V102h348q81 0 162 22t158.5 70 137 116 96 168.5T1247 698t-36.5 220-96 169-137 116.5T819 1274t-162 22z"/><glyph glyph-name="dcroat" unicode="đ" horiz-adv-x="1189" d="M983 1528v-131h205v-86H983V0h-51l-74 137Q749-27 549-27q-133 0-233 69.5t-151.5 189T113 502q0 160 50 280t150.5 189 241.5 69q105 0 191-49.5T877 852h4v459H598v86h283v131h102zM553 946q-106 0-184-63.5T254 721t-37-215q0-115 36-212.5T367 132t186-64q107 0 184.5 64T851 293.5 887 506q0 117-37 215T735.5 882.5 553 946z"/><glyph glyph-name="Emacron" unicode="Ē" horiz-adv-x="1060" d="M907 1397v-101H309V788h535v-98H309V100h598V0H205v1397h702zm-4 319v-92H252v92h651z"/><glyph glyph-name="emacron" unicode="ē" horiz-adv-x="1138" d="M573 1040q110 0 199.5-43t146-116.5 87-169.5 30.5-205v-19H217q2-60 14-117t38.5-114 65.5-99 100-68 136-26q128 0 209.5 65.5T901 301h105Q961 152 850 62.5T573-27q-110 0-198.5 42.5T229.5 132 143 301.5 113 506t30 205 86.5 169.5 145 116.5 198.5 43zm-2-94q-85 0-151.5-32T313 826.5t-62.5-118T221 575h709q-6 56-20.5 107T866 782t-68.5 85-97.5 57.5T571 946zm330 404v-93H250v93h651z"/><glyph glyph-name="Edotaccent" unicode="Ė" horiz-adv-x="1060" d="M907 1397v-101H309V788h535v-98H309V100h598V0H205v1397h702zm-329 403q38 0 65-27t27-65-27-65-65-27-65.5 27-27.5 65 27.5 65 65.5 27z"/><glyph glyph-name="edotaccent" unicode="ė" horiz-adv-x="1138" d="M573 1040q110 0 199.5-43t146-116.5 87-169.5 30.5-205v-19H217q2-60 14-117t38.5-114 65.5-99 100-68 136-26q128 0 209.5 65.5T901 301h105Q961 152 850 62.5T573-27q-110 0-198.5 42.5T229.5 132 143 301.5 113 506t30 205 86.5 169.5 145 116.5 198.5 43zm-2-94q-85 0-151.5-32T313 826.5t-62.5-118T221 575h709q-6 56-20.5 107T866 782t-68.5 85-97.5 57.5T571 946zm4 488q38 0 65.5-27.5T668 1341t-27.5-65-65.5-27-65 27-27 65 27 65.5 65 27.5z"/><glyph glyph-name="Eogonek" unicode="Ę" horiz-adv-x="1060" d="M907 1397v-101H309V788h535v-98H309V100h598V0H205v1397h702zM842 10h24q-6-30-6-55v-8q0-73 38.5-112.5T1004-205q13 0 45 4v-59q-40-16-84-16-68 0-116 37.5T801-123q0 75 41 133z"/><glyph glyph-name="eogonek" unicode="ę" horiz-adv-x="1138" d="M573 1040q110 0 199.5-43t146-116.5 87-169.5 30.5-205v-19H217q2-60 14-117t38.5-114 65.5-99 100-68 136-26q128 0 209.5 65.5T901 301h105Q961 152 850 62.5T573-27q-110 0-198.5 42.5T229.5 132 143 301.5 113 506t30 205 86.5 169.5 145 116.5 198.5 43zm-2-94q-85 0-151.5-32T313 826.5t-62.5-118T221 575h709q-6 56-20.5 107T866 782t-68.5 85-97.5 57.5T571 946zm-2-936h25q-6-30-6-55v-8q0-73 38-112.5T731-205q13 0 45 4v-59q-40-16-84-16-68 0-116 37.5T528-123q0 75 41 133z"/><glyph glyph-name="Ecaron" unicode="Ě" horiz-adv-x="1060" d="M907 1397v-101H309V788h535v-98H309V100h598V0H205v1397h702zm-43 497l-237-270h-90l-238 270h111l172-194 172 194h110z"/><glyph glyph-name="ecaron" unicode="ě" horiz-adv-x="1138" d="M573 1040q110 0 199.5-43t146-116.5 87-169.5 30.5-205v-19H217q2-60 14-117t38.5-114 65.5-99 100-68 136-26q128 0 209.5 65.5T901 301h105Q961 152 850 62.5T573-27q-110 0-198.5 42.5T229.5 132 143 301.5 113 506t30 205 86.5 169.5 145 116.5 198.5 43zm-2-94q-85 0-151.5-32T313 826.5t-62.5-118T221 575h709q-6 56-20.5 107T866 782t-68.5 85-97.5 57.5T571 946zm291 582l-237-271h-90l-238 271h111l172-195 172 195h110z"/><glyph glyph-name="Gbreve" unicode="Ğ" horiz-adv-x="1531" d="M850 1427q261 0 450-129v-124q-85 76-203 114.5T850 1327q-128 0-240.5-41T410 1168 273 970t-50-270q0-195 83.5-337.5T533 148t329-74q234 3 393 114v418H946v92h408V133Q1152-27 862-27q-156 0-291.5 49.5T334 163 175 392.5 117 700q0 166 58.5 304.5t158.5 230 233 142 283 50.5zm260 426h51q-20-108-100.5-167.5T850 1626t-210.5 59.5T539 1853h51q30-71 103.5-105t156.5-34 156.5 34 103.5 105z"/><glyph glyph-name="gbreve" unicode="ğ" horiz-adv-x="1116" d="M543 1040q48 0 157.5-13t176.5-13h188v-92H834q100-108 100-267 0-175-114.5-280T541 270q-105 0-193 45-43-12-70.5-48T250 193q0-58 38.5-84.5T416 66q17-3 110.5-17T674 23q274-54 274-269 0-142-112-217.5T545-539q-219 0-412 111v106q79-54 195-90.5T547-449q129 0 216 52t87 151q0 40-14 71.5T800-123t-56.5 35T676-65.5 598-51Q418-24 373-14q-25 5-38.5 8.5T295 6.5t-41.5 17-36 23.5-32 32.5-19.5 43-8 55.5q0 56 33.5 105t93.5 73Q147 467 147 655q0 175 115.5 280T543 1040zm-2-84q-125 0-210-79.5T246 655t85-221.5T541 354t210 79.5T836 655t-85 221.5T541 956zm262 533h51q-20-108-100.5-167.5T543 1262t-211 59.5T231 1489h52q30-71 103.5-105t156.5-34 156.5 34T803 1489z"/><glyph glyph-name="Gdotaccent" unicode="Ġ" horiz-adv-x="1531" d="M850 1427q261 0 450-129v-124q-85 76-203 114.5T850 1327q-128 0-240.5-41T410 1168 273 970t-50-270q0-195 83.5-337.5T533 148t329-74q234 3 393 114v418H946v92h408V133Q1152-27 862-27q-156 0-291.5 49.5T334 163 175 392.5 117 700q0 166 58.5 304.5t158.5 230 233 142 283 50.5zm0 373q38 0 65-27t27-65-27-65-65-27-65 27-27 65 27 65 65 27z"/><glyph glyph-name="gdotaccent" unicode="ġ" horiz-adv-x="1116" d="M543 1040q48 0 157.5-13t176.5-13h188v-92H834q100-108 100-267 0-175-114.5-280T541 270q-105 0-193 45-43-12-70.5-48T250 193q0-58 38.5-84.5T416 66q17-3 110.5-17T674 23q274-54 274-269 0-142-112-217.5T545-539q-219 0-412 111v106q79-54 195-90.5T547-449q129 0 216 52t87 151q0 40-14 71.5T800-123t-56.5 35T676-65.5 598-51Q418-24 373-14q-25 5-38.5 8.5T295 6.5t-41.5 17-36 23.5-32 32.5-19.5 43-8 55.5q0 56 33.5 105t93.5 73Q147 467 147 655q0 175 115.5 280T543 1040zm-2-84q-125 0-210-79.5T246 655t85-221.5T541 354t210 79.5T836 655t-85 221.5T541 956zm2 480q38 0 65-27.5t27-65.5-27-65-65-27-65 27-27 65 27 65.5 65 27.5z"/><glyph glyph-name="Gcommaaccent" unicode="Ģ" horiz-adv-x="1531" d="M850 1427q261 0 450-129v-124q-85 76-203 114.5T850 1327q-128 0-240.5-41T410 1168 273 970t-50-270q0-195 83.5-337.5T533 148t329-74q234 3 393 114v418H946v92h408V133Q1152-27 862-27q-156 0-291.5 49.5T334 163 175 392.5 117 700q0 166 58.5 304.5t158.5 230 233 142 283 50.5zm84-1646L702-489h-67l139 270h160z"/><glyph glyph-name="gcommaaccent" unicode="ģ" horiz-adv-x="1116" d="M543 1040q48 0 157.5-13t176.5-13h188v-92H834q100-108 100-267 0-175-114.5-280T541 270q-105 0-193 45-43-12-70.5-48T250 193q0-58 38.5-84.5T416 66q17-3 110.5-17T674 23q274-54 274-269 0-142-112-217.5T545-539q-219 0-412 111v106q79-54 195-90.5T547-449q129 0 216 52t87 151q0 40-14 71.5T800-123t-56.5 35T676-65.5 598-51Q418-24 373-14q-25 5-38.5 8.5T295 6.5t-41.5 17-36 23.5-32 32.5-19.5 43-8 55.5q0 56 33.5 105t93.5 73Q147 467 147 655q0 175 115.5 280T543 1040zm-2-84q-125 0-210-79.5T246 655t85-221.5T541 354t210 79.5T836 655t-85 221.5T541 956zm243 572l-139-271H485l232 271h67z"/><glyph glyph-name="Hbar" unicode="Ħ" horiz-adv-x="1591" d="M1362 1397v-172h199v-92h-199V0h-107v690H342V0H236v1133H31v92h205v172h106v-172h913v172h107zm-107-264H342V788h913v345z"/><glyph glyph-name="hbar" unicode="ħ" horiz-adv-x="1191" d="M305 1528v-131h297v-88H305V819q36 83 96 131 106 90 250 90 114 0 199-55 81-51 124.5-144t43.5-214V0H915v621q0 198-116 278-65 45-160 45-112 0-190-63-76-59-113-160t-37-221V0h-94v1309H12v88h193v131h100z"/><glyph glyph-name="Imacron" unicode="Ī" horiz-adv-x="555" d="M330 1397V0H225v1397h105zm278 319v-92H-43v92h651z"/><glyph glyph-name="imacron" unicode="ī" horiz-adv-x="509" d="M305 1014V0H205v1014h100zm279 338v-92H-68v92h652z"/><glyph glyph-name="Iogonek" unicode="Į" horiz-adv-x="555" d="M330 1397V0H225v1397h105zM272 10h25q-6-30-6-55v-8q0-73 38-112.5T434-205q13 0 45 4v-59q-40-16-84-16-68 0-116 37.5T231-123q0 75 41 133z"/><glyph glyph-name="iogonek" unicode="į" horiz-adv-x="509" d="M305 1014V0H205v1014h100zm-47 422q38 0 65-27.5t27-65.5-27-65-65-27-65 27-27 65 27 65.5 65 27.5zM248 10h24q-6-30-6-55v-8q0-73 38.5-112.5T410-205q13 0 45 4v-59q-40-16-84-16-68 0-116 37.5T207-123q0 75 41 133z"/><glyph glyph-name="Idotaccent" unicode="İ" horiz-adv-x="555" d="M330 1397V0H225v1397h105zm-47 403q38 0 65-27t27-65-27-65-65-27-65.5 27-27.5 65 27.5 65 65.5 27z"/><glyph glyph-name="dotlessi" unicode="ı" horiz-adv-x="509" d="M305 1014V0H205v1014h100z"/><glyph glyph-name="IJ" unicode="Ĳ" horiz-adv-x="1163" d="M330 1397V0H225v1397h105zm628 0V223q0-125-68-186.5T723-25q-52 0-107 19V96q56-18 95-18 65 0 103 36t38 113l2 1170h104z"/><glyph glyph-name="ij" unicode="ĳ" horiz-adv-x="1099" d="M315 1014V0H215v1014h100zm9 383v-123H205v123h119zm571-379V-309q0-60-18.5-106t-50-72.5-70-40T674-541q-43 0-96 17v96q46-16 86-16 60 0 95.5 33.5T795-305v1323h100zm10 377v-127H778v127h127z"/><glyph glyph-name="Kcommaaccent" unicode="Ķ" horiz-adv-x="1204" d="M1153 1397L485 698 1153 0h-135L350 698l668 699h135zm-844 0V0H205v1397h104zM729-219L498-489h-68l139 270h160z"/><glyph glyph-name="kcommaaccent" unicode="ķ" horiz-adv-x="987" d="M307 1528V512l477 502h140L440 508 944 0H803L307 504V0H205v1528h102zM627-219L395-489h-67l139 270h160z"/><glyph glyph-name="Lacute" unicode="Ĺ" horiz-adv-x="980" d="M311 1397V100h609V0H205v1397h106zm226 504l-232-271h-67l139 271h160z"/><glyph glyph-name="lacute" unicode="ĺ" horiz-adv-x="512" d="M307 1528V0H205v1528h102zm223 489l-231-270h-68l140 270h159z"/><glyph glyph-name="Lcommaaccent" unicode="Ļ" horiz-adv-x="980" d="M311 1397V100h609V0H205v1397h106zM668-225L436-496h-67l139 271h160z"/><glyph glyph-name="lcommaaccent" unicode="ļ" horiz-adv-x="512" d="M307 1528V0H205v1528h102zm39-1747L115-489H47l139 270h160z"/><glyph glyph-name="Lcaron" unicode="Ľ" horiz-adv-x="980" d="M311 1397V100h609V0H205v1397h106zm711 131l-231-271h-68l139 271h160z"/><glyph glyph-name="lcaron" unicode="ľ" horiz-adv-x="876" d="M307 1528V0H205v1528h102zm508 0l-231-271h-68l139 271h160z"/><glyph glyph-name="Ldot" unicode="Ŀ" horiz-adv-x="980" d="M752 827q38 0 65-27t27-65-27-65-65-27-65.5 27-27.5 65 27.5 65 65.5 27zm-441 570V100h609V0H205v1397h106z"/><glyph glyph-name="ldot" unicode="ŀ" horiz-adv-x="638" d="M307 1528V0H205v1528h102zm271-674q39 0 66.5-27.5T672 760q0-37-27.5-63.5T578 670q-37 0-65 27t-28 63q0 38 28 66t65 28z"/><glyph glyph-name="Lslash" unicode="Ł" horiz-adv-x="980" d="M311 1397V815l301 227V926L311 698V100h609V0H205v618L41 494v118l164 123v662h106z"/><glyph glyph-name="lslash" unicode="ł" horiz-adv-x="628" d="M369 1528V891l190 151V926L369 774V0H266v692L70 537v116l196 156v719h103z"/><glyph glyph-name="Nacute" unicode="Ń" horiz-adv-x="1609" d="M315 1407l988-1266v1256h102V-10h-111L307 1255V0H205v1407h110zm787 494l-232-271h-67l139 271h160z"/><glyph glyph-name="nacute" unicode="ń" horiz-adv-x="1191" d="M651 1040q114 0 199-55 81-51 124.5-144t43.5-214V0H915v621q0 198-116 278-65 45-160 45-112 0-190-63-76-59-113-160t-37-221V0h-94v1014h55l80-131q27 40 61 67 106 90 250 90zm269 488l-232-271h-67l139 271h160z"/><glyph glyph-name="Ncommaaccent" unicode="Ņ" horiz-adv-x="1609" d="M315 1407l988-1266v1256h102V-10h-111L307 1255V0H205v1407h110zM860-225L629-496h-68l139 271h160z"/><glyph glyph-name="ncommaaccent" unicode="ņ" horiz-adv-x="1191" d="M651 1040q114 0 199-55 81-51 124.5-144t43.5-214V0H915v621q0 198-116 278-65 45-160 45-112 0-190-63-76-59-113-160t-37-221V0h-94v1014h55l80-131q27 40 61 67 106 90 250 90zm39-1259L459-489h-68l139 270h160z"/><glyph glyph-name="Ncaron" unicode="Ň" horiz-adv-x="1609" d="M315 1407l988-1266v1256h102V-10h-111L307 1255V0H205v1407h110zm799 494l-237-271h-91l-237 271h110l172-195 173 195h110z"/><glyph glyph-name="ncaron" unicode="ň" horiz-adv-x="1191" d="M651 1040q114 0 199-55 81-51 124.5-144t43.5-214V0H915v621q0 198-116 278-65 45-160 45-112 0-190-63-76-59-113-160t-37-221V0h-94v1014h55l80-131q27 40 61 67 106 90 250 90zm281 488l-238-271h-90l-237 271h110l172-195 172 195h111z"/><glyph glyph-name="Eng" unicode="Ŋ" horiz-adv-x="1609" d="M315 1407l988-1262v1252h102V-268q0-123-67.5-184.5T1171-514q-55 0-104 18v101q53-17 92-17 65 0 103 35.5t38 112.5v246L307 1255V0H205v1407h110z"/><glyph glyph-name="eng" unicode="ŋ" horiz-adv-x="1222" d="M651 1040q114 0 199-55 81-51 124.5-144t43.5-214v-930q0-119-66-178.5T791-541q-45 0-101 17v100q56-18 90-18 61 0 98 34.5T915-299v920q0 198-116 278-65 45-160 45-112 0-190-63-76-59-113-160t-37-221V0h-94v1014h55l80-131q27 40 61 67 106 90 250 90z"/><glyph glyph-name="Omacron" unicode="Ō" horiz-adv-x="1691" d="M846 1425q138 0 266-48.5t230.5-138T1507 1009t62-309q0-137-40.5-255t-110-203T1257 96 1060 5 846-25 632 5 435 96 273.5 242t-110 203T123 700q0 169 62 309t164.5 229.5 230.5 138 266 48.5zm0-98q-93 0-181.5-25T497 1225t-138.5-125T264 923.5 229 700q0-150 53-271.5T423.5 231t197-116.5T846 74t225.5 40.5T1268 231t141 197.5 53 271.5q0 120-35 223.5t-94 176.5-138 125-167.5 77-181.5 25zm325 389v-92H520v92h651z"/><glyph glyph-name="omacron" unicode="ō" horiz-adv-x="1161" d="M580 1040q112 0 202.5-43t148-116.5 88-169.5 30.5-205q0-87-19-166t-58-146-94-116T746.5 1 580-27q-111 0-201 42.5T231.5 132t-88 169.5T113 506q0 147 52 266t160 193.5 255 74.5zm-2-94q-78 0-141-27.5T334.5 847t-66-103-37-118T221 506q0-79 18.5-152.5t57.5-141T408.5 104 578 63q81 0 145.5 27.5t104.5 72 66.5 104 37 118.5T942 506t-10.5 120.5-37 117.5T828 847t-104.5 71.5T578 946zm329 404v-93H256v93h651z"/><glyph glyph-name="Ohungarumlaut" unicode="Ő" horiz-adv-x="1691" d="M846 1425q138 0 266-48.5t230.5-138T1507 1009t62-309q0-137-40.5-255t-110-203T1257 96 1060 5 846-25 632 5 435 96 273.5 242t-110 203T123 700q0 169 62 309t164.5 229.5 230.5 138 266 48.5zm0-98q-93 0-181.5-25T497 1225t-138.5-125T264 923.5 229 700q0-150 53-271.5T423.5 231t197-116.5T846 74t225.5 40.5T1268 231t141 197.5 53 271.5q0 120-35 223.5t-94 176.5-138 125-167.5 77-181.5 25zm457 567l-232-270h-67l139 270h160zm-318 0l-231-270h-68l139 270h160z"/><glyph glyph-name="ohungarumlaut" unicode="ő" horiz-adv-x="1161" d="M580 1040q112 0 202.5-43t148-116.5 88-169.5 30.5-205q0-87-19-166t-58-146-94-116T746.5 1 580-27q-111 0-201 42.5T231.5 132t-88 169.5T113 506q0 147 52 266t160 193.5 255 74.5zm-2-94q-78 0-141-27.5T334.5 847t-66-103-37-118T221 506q0-79 18.5-152.5t57.5-141T408.5 104 578 63q81 0 145.5 27.5t104.5 72 66.5 104 37 118.5T942 506t-10.5 120.5-37 117.5T828 847t-104.5 71.5T578 946zm460 582l-231-271h-68l140 271h159zm-317 0l-232-271h-67l139 271h160z"/><glyph glyph-name="OE" unicode="Œ" horiz-adv-x="1896" d="M846 1425q101 0 207-28h690v-101h-598V788h534v-98h-534V100h598V0h-703q-98-25-194-25-109 0-214 30T435 96 273.5 242t-110 203T123 700q0 169 62 309t164.5 229.5 230.5 138 266 48.5zm0-96q-117 0-226-41t-197.5-117.5-142-198.5T227 700t53.5-272 142-198T620 113t226-41q96 0 194 28v1200q-102 29-194 29z"/><glyph glyph-name="oe" unicode="œ" horiz-adv-x="1970" d="M1405 1040q110 0 199.5-43t146-116.5 87-169.5 30.5-205v-19h-819q2-60 14-117t38.5-114 65.5-99 100-68 136-26q128 0 209.5 65.5T1733 301h104q-45-149-156-238.5T1405-27q-145 0-250 72.5T995 242Q940 118 834 45.5T580-27q-111 0-201 42.5T231.5 132t-88 169.5T113 506q0 147 52 266t160 193.5 255 74.5q149 0 254.5-72.5T995 770q55 125 159.5 197.5T1405 1040zm-827-94q-78 0-141-27.5T334.5 847t-66-103-37-118T221 506q0-79 18.5-152.5t57.5-141T408.5 104 578 63q81 0 145.5 27.5t104.5 72 66.5 104 37 118.5T942 506t-10.5 120.5-37 117.5T828 847t-104.5 71.5T578 946zm825 0q-85 0-151.5-32T1145 826.5t-62.5-118T1053 575h708q-6 56-20.5 107t-43 100-68 85-97.5 57.5-129 21.5z"/><glyph glyph-name="Racute" unicode="Ŕ" horiz-adv-x="1110" d="M205 1397h401q161 0 274-113.5T993 1010 880 736.5 606 623h-76L1049 0H913L403 623h-92V0H205v1397zm391-99H311V721h285q120 0 204.5 84.5T885 1010t-84.5 204-204.5 84zm203 596l-232-270h-67l139 270h160z"/><glyph glyph-name="racute" unicode="ŕ" horiz-adv-x="739" d="M557 1036q50 0 100-16V903q-63 29-112 29-113 0-178.5-95T301 557V0h-96v1026h51l74-141q71 151 227 151zm68 492l-232-271h-67l139 271h160z"/><glyph glyph-name="Rcommaaccent" unicode="Ŗ" horiz-adv-x="1110" d="M205 1397h401q161 0 274-113.5T993 1010 880 736.5 606 623h-76L1049 0H913L403 623h-92V0H205v1397zm391-99H311V721h285q120 0 204.5 84.5T885 1010t-84.5 204-204.5 84zm80-1517L444-489h-67l139 270h160z"/><glyph glyph-name="rcommaaccent" unicode="ŗ" horiz-adv-x="739" d="M557 1036q50 0 100-16V903q-63 29-112 29-113 0-178.5-95T301 557V0h-96v1026h51l74-141q71 151 227 151zM330-219L98-489H31l139 270h160z"/><glyph glyph-name="Rcaron" unicode="Ř" horiz-adv-x="1110" d="M205 1397h401q161 0 274-113.5T993 1010 880 736.5 606 623h-76L1049 0H913L403 623h-92V0H205v1397zm391-99H311V721h285q120 0 204.5 84.5T885 1010t-84.5 204-204.5 84zm215 596l-238-270h-90l-237 270h110l172-194 172 194h111z"/><glyph glyph-name="rcaron" unicode="ř" horiz-adv-x="739" d="M557 1036q50 0 100-16V903q-63 29-112 29-113 0-178.5-95T301 557V0h-96v1026h51l74-141q71 151 227 151zm80 492l-238-271h-90L72 1528h110l172-195 172 195h111z"/><glyph glyph-name="Sacute" unicode="Ś" horiz-adv-x="1040" d="M514 1421q185 0 350-114v-115q-187 133-350 133-114 0-195-68.5T238 1073q0-56 15-101t38-74.5 63-55.5 76.5-41.5T522 766q141-48 203-86 186-111 186-338 0-109-55.5-193.5T709 20.5 510-23Q315-23 143 98v117Q335 76 510 76q121 0 207 72.5T803 342q0 35-6.5 66t-15 55-27 46.5-32.5 38-41.5 32T636 605t-50.5 22.5T535 647t-54 19-61.5 22.5-59.5 25-59 32-52.5 39.5-47 51-35 63-25 79-8.5 95q-1 156 110 252t271 96zm272 473l-231-270h-68l140 270h159z"/><glyph glyph-name="sacute" unicode="ś" horiz-adv-x="872" d="M426 1040q73 0 150.5-22.5T713 954v-98q-62 43-139.5 69.5T426 952q-96 0-153.5-48.5T215 778q0-93 60-140t188-83q66-19 112-39t92-54.5 69.5-87T760 252q0-69-29.5-124T653 40.5t-104-49T434-25Q358-25 276.5-.5T133 68l-2 106q67-47 148.5-77.5T434 66q102 0 163.5 51.5T659 252q0 41-14 73.5t-34.5 54-58 40.5-71 30.5T395 477q-62 18-108.5 40t-87 57-61.5 86-21 118q0 65 28 117t74 82.5 99 46.5 108 16zm268 488l-231-271h-68l140 271h159z"/><glyph glyph-name="Scedilla" unicode="Ş" horiz-adv-x="1040" d="M514 1421q185 0 350-114v-115q-187 133-350 133-114 0-195-68.5T238 1073q0-56 15-101t38-74.5 63-55.5 76.5-41.5T522 766q141-48 203-86 186-111 186-338 0-109-55.5-193.5T709 20.5 510-23Q315-23 143 98v117Q335 76 510 76q121 0 207 72.5T803 342q0 35-6.5 66t-15 55-27 46.5-32.5 38-41.5 32T636 605t-50.5 22.5T535 647t-54 19-61.5 22.5-59.5 25-59 32-52.5 39.5-47 51-35 63-25 79-8.5 95q-1 156 110 252t271 96zM537 10l-64-69q16 4 33 4 33 0 59-13 56-27 56-86 0-56-51-93.5T451-285t-121 33l24 45q8-3 21.5-8t19.5-7 18-3.5 27-1.5q29 0 52.5 13.5T516-168q0 51-57 51l-64-8-22 31 90 104h74z"/><glyph glyph-name="scedilla" unicode="ş" horiz-adv-x="872" d="M426 1040q73 0 150.5-22.5T713 954v-98q-62 43-139.5 69.5T426 952q-96 0-153.5-48.5T215 778q0-93 60-140t188-83q66-19 112-39t92-54.5 69.5-87T760 252q0-69-29.5-124T653 40.5t-104-49T434-25Q358-25 276.5-.5T133 68l-2 106q67-47 148.5-77.5T434 66q102 0 163.5 51.5T659 252q0 41-14 73.5t-34.5 54-58 40.5-71 30.5T395 477q-62 18-108.5 40t-87 57-61.5 86-21 118q0 65 28 117t74 82.5 99 46.5 108 16zM469 10l-63-69q16 4 32 4 34 0 60-13 55-27 55-86 0-56-51-93.5T383-285t-121 33l25 45q8-3 21.5-8t19.5-7 18-3.5 27-1.5q29 0 52.5 13.5T449-168q0 51-58 51-10 0-21.5-1.5t-24-3.5-17.5-3l-23 31 90 104h74z"/><glyph glyph-name="Scaron" unicode="Š" horiz-adv-x="1040" d="M514 1421q185 0 350-114v-115q-187 133-350 133-114 0-195-68.5T238 1073q0-56 15-101t38-74.5 63-55.5 76.5-41.5T522 766q141-48 203-86 186-111 186-338 0-109-55.5-193.5T709 20.5 510-23Q315-23 143 98v117Q335 76 510 76q121 0 207 72.5T803 342q0 35-6.5 66t-15 55-27 46.5-32.5 38-41.5 32T636 605t-50.5 22.5T535 647t-54 19-61.5 22.5-59.5 25-59 32-52.5 39.5-47 51-35 63-25 79-8.5 95q-1 156 110 252t271 96zm285 473l-238-270h-90l-238 270h111l172-194 172 194h111z"/><glyph glyph-name="scaron" unicode="š" horiz-adv-x="872" d="M426 1040q73 0 150.5-22.5T713 954v-98q-62 43-139.5 69.5T426 952q-96 0-153.5-48.5T215 778q0-93 60-140t188-83q66-19 112-39t92-54.5 69.5-87T760 252q0-69-29.5-124T653 40.5t-104-49T434-25Q358-25 276.5-.5T133 68l-2 106q67-47 148.5-77.5T434 66q102 0 163.5 51.5T659 252q0 41-14 73.5t-34.5 54-58 40.5-71 30.5T395 477q-62 18-108.5 40t-87 57-61.5 86-21 118q0 65 28 117t74 82.5 99 46.5 108 16zm281 488l-238-271h-90l-238 271h111l172-195 172 195h111z"/><glyph glyph-name="Tcedilla" unicode="Ţ" horiz-adv-x="950" d="M915 1397v-101H528V0H422v1296H35v101h880zM508 10l-64-69q16 4 33 4 34 0 60-13 55-27 55-86 0-56-51-93.5T422-285t-121 33l25 45q8-3 21.5-8t19.5-7 18-3.5 27-1.5q29 0 52 13.5t23 45.5q0 51-57 51-10 0-21.5-1.5t-24-3.5-17.5-3l-23 31 90 104h74z"/><glyph glyph-name="tcedilla" unicode="ţ" horiz-adv-x="720" d="M315 1255v-241h289v-92H315V250q0-92 43-135 42-45 115-45 75 0 156 43V10q-82-37-162-37-103 0-178 66-76 73-76 197v686H51v82h78q38 0 68 30t30 68v153h88zM473 10l-63-69q16 4 32 4 34 0 60-13 55-27 55-86 0-56-51-93.5T387-285t-121 33l25 45q8-3 21.5-8t19.5-7 18-3.5 27-1.5q29 0 52.5 13.5T453-168q0 51-58 51-10 0-21.5-1.5t-24-3.5-17.5-3l-23 31 90 104h74z"/><glyph glyph-name="Tcaron" unicode="Ť" horiz-adv-x="950" d="M915 1397v-101H528V0H422v1296H35v101h880zm-159 514l-238-271h-90l-238 271h111l172-195 172 195h111z"/><glyph glyph-name="tcaron" unicode="ť" horiz-adv-x="720" d="M315 1255v-241h289v-92H315V250q0-92 43-135 42-45 115-45 75 0 156 43V10q-82-37-162-37-103 0-178 66-76 73-76 197v686H51v82h78q38 0 68 30t30 68v153h88zm576 273l-232-271h-67l139 271h160z"/><glyph glyph-name="Tbar" unicode="Ŧ" horiz-adv-x="950" d="M915 1397v-101H528V788h287v-98H528V0H422v690H135v98h287v508H35v101h880z"/><glyph glyph-name="tbar" unicode="ŧ" horiz-adv-x="720" d="M315 1255v-241h289v-92H315V657h289v-88H315V250q0-92 43-135 42-45 115-45 75 0 156 43V10q-82-37-162-37-103 0-178 66-76 73-76 197v333H51v88h162v265H51v82h78q38 0 68 30t30 68v153h88z"/><glyph glyph-name="Umacron" unicode="Ū" horiz-adv-x="1429" d="M1235 1397V520q0-127-40.5-231T1084 116.5t-165-106T715-27 511 10.5t-165 106T235.5 289 195 520v877h104l-2-881q0-204 120.5-324T715 72t297.5 120T1133 516l-3 881h105zm-193 325v-92H391v92h651z"/><glyph glyph-name="umacron" unicode="ū" horiz-adv-x="1159" d="M975 1014l-4-637q0-175-110.5-289.5T575-27 292 87 184 377v637h101V381q0-150 83-230.5T578 70t211.5 80.5T874 381v633h101zm-62 336v-93H262v93h651z"/><glyph glyph-name="Uring" unicode="Ů" horiz-adv-x="1429" d="M1235 1397V520q0-127-40.5-231T1084 116.5t-165-106T715-27 511 10.5t-165 106T235.5 289 195 520v877h104l-2-881q0-204 120.5-324T715 72t297.5 120T1133 516l-3 881h105zm-518 551q79 0 135.5-58t56.5-135q0-78-56.5-135T717 1563q-78 0-135.5 57T524 1755q0 77 57.5 135t135.5 58zm0-76q-49 0-83-34.5t-34-82.5q0-49 34-83t83-34q48 0 82.5 34t34.5 83q0 47-35 82t-82 35z"/><glyph glyph-name="uring" unicode="ů" horiz-adv-x="1159" d="M975 1014l-4-637q0-175-110.5-289.5T575-27 292 87 184 377v637h101V381q0-150 83-230.5T578 70t211.5 80.5T874 381v633h101zm-387 561q79 0 135.5-58t56.5-135q0-78-56.5-135T588 1190q-78 0-135.5 57T395 1382q0 77 57.5 135t135.5 58zm0-76q-49 0-83-34.5t-34-82.5q0-49 33.5-82.5T588 1266q48 0 82.5 33.5T705 1382q0 47-35 82t-82 35z"/><glyph glyph-name="Uhungarumlaut" unicode="Ű" horiz-adv-x="1429" d="M1235 1397V520q0-127-40.5-231T1084 116.5t-165-106T715-27 511 10.5t-165 106T235.5 289 195 520v877h104l-2-881q0-204 120.5-324T715 72t297.5 120T1133 516l-3 881h105zm-61 504l-232-271h-68l140 271h160zm-318 0l-231-271h-68l139 271h160z"/><glyph glyph-name="uhungarumlaut" unicode="ű" horiz-adv-x="1159" d="M975 1014l-4-637q0-175-110.5-289.5T575-27 292 87 184 377v637h101V381q0-150 83-230.5T578 70t211.5 80.5T874 381v633h101zm69 514l-231-271h-68l140 271h159zm-317 0l-231-271h-68l139 271h160z"/><glyph glyph-name="Uogonek" unicode="Ų" horiz-adv-x="1429" d="M1235 1397V520q0-127-40.5-231T1084 116.5t-165-106T715-27 511 10.5t-165 106T235.5 289 195 520v877h104l-2-881q0-204 120.5-324T715 72t297.5 120T1133 516l-3 881h105zM739 4h25q-6-30-6-55v-8q0-73 38-112.5T901-211q13 0 45 4v-59q-42-17-84-17-68 0-116 38t-48 116q0 75 41 133z"/><glyph glyph-name="uogonek" unicode="ų" horiz-adv-x="1159" d="M975 1014l-4-637q0-175-110.5-289.5T575-27 292 87 184 377v637h101V381q0-150 83-230.5T578 70t211.5 80.5T874 381v633h101zM565 10h25q-6-30-6-55v-8q0-73 38-112.5T727-205q13 0 45 4v-59q-40-16-84-16-68 0-116 37.5T524-123q0 75 41 133z"/><glyph glyph-name="Wcircumflex" unicode="Ŵ" horiz-adv-x="2244" d="M1180 1403l454-1299 428 1297h111L1704-6h-139l-443 1280L680-6H543L72 1401h110L610 104l457 1299h113zm-9 491l238-270h-111l-172 195-172-195H844l237 270h90z"/><glyph glyph-name="wcircumflex" unicode="ŵ" horiz-adv-x="1896" d="M999 1034l381-893 342 873h105L1417-18h-71L948 915 551-18h-72L70 1014h104l342-873 381 893h102zm-2 494l238-271h-111l-172 195-172-195H670l237 271h90z"/><glyph glyph-name="Ycircumflex" unicode="Ŷ" horiz-adv-x="1187" d="M1151 1397L645 635V0H541v635L37 1397h123l432-658 430 658h129zm-510 497l238-270H768l-172 195-172-195H313l238 270h90z"/><glyph glyph-name="ycircumflex" unicode="ŷ" horiz-adv-x="1017" d="M967 1014L342-514H238L457 25 51 1014h107l350-852 352 852h107zm-400 514l238-271H694l-172 195-172-195H240l237 271h90z"/><glyph glyph-name="Ydieresis" unicode="Ÿ" horiz-adv-x="1187" d="M1151 1397L645 635V0H541v635L37 1397h123l432-658 430 658h129zm-377 403q38 0 65-27t27-65-27-65-65-27-65 27-27 65 27 65 65 27zm-362 0q38 0 65-27t27-65-27-65-65-27-65.5 27-27.5 65 27.5 65 65.5 27z"/><glyph glyph-name="Zacute" unicode="Ź" horiz-adv-x="1112" d="M999 1397v-103L233 98h766V0H113v102l766 1196H113v99h886zm-188 504l-231-271h-68l139 271h160z"/><glyph glyph-name="zacute" unicode="ź" horiz-adv-x="964" d="M840 1014v-86L252 92h588V0H125v86l588 836H125v92h715zm-72 514l-231-271h-68l139 271h160z"/><glyph glyph-name="Zdotaccent" unicode="Ż" horiz-adv-x="1112" d="M999 1397v-103L233 98h766V0H113v102l766 1196H113v99h886zm-462 409q38 0 65-27t27-65-27-65-65-27-65.5 27-27.5 65 27.5 65 65.5 27z"/><glyph glyph-name="zdotaccent" unicode="ż" horiz-adv-x="964" d="M840 1014v-86L252 92h588V0H125v86l588 836H125v92h715zm-346 420q38 0 65-27.5t27-65.5-27-65-65-27-65.5 27-27.5 65 27.5 65.5T494 1434z"/><glyph glyph-name="Zcaron" unicode="Ž" horiz-adv-x="1112" d="M999 1397v-103L233 98h766V0H113v102l766 1196H113v99h886zm-176 504l-237-271h-90l-238 271h111l172-195 172 195h110z"/><glyph glyph-name="zcaron" unicode="ž" horiz-adv-x="964" d="M840 1014v-86L252 92h588V0H125v86l588 836H125v92h715zm-60 514l-237-271h-90l-238 271h111l172-195 172 195h110z"/><glyph glyph-name="Scommaaccent" unicode="Ș" horiz-adv-x="1040" d="M514 1421q185 0 350-114v-115q-187 133-350 133-114 0-195-68.5T238 1073q0-56 15-101t38-74.5 63-55.5 76.5-41.5T522 766q141-48 203-86 186-111 186-338 0-109-55.5-193.5T709 20.5 510-23Q315-23 143 98v117Q335 76 510 76q121 0 207 72.5T803 342q0 35-6.5 66t-15 55-27 46.5-32.5 38-41.5 32T636 605t-50.5 22.5T535 647t-54 19-61.5 22.5-59.5 25-59 32-52.5 39.5-47 51-35 63-25 79-8.5 95q-1 156 110 252t271 96zm76-1640L358-489h-67l139 270h160z"/><glyph glyph-name="scommaaccent" unicode="ș" horiz-adv-x="872" d="M426 1040q73 0 150.5-22.5T713 954v-98q-62 43-139.5 69.5T426 952q-96 0-153.5-48.5T215 778q0-93 60-140t188-83q66-19 112-39t92-54.5 69.5-87T760 252q0-69-29.5-124T653 40.5t-104-49T434-25Q358-25 276.5-.5T133 68l-2 106q67-47 148.5-77.5T434 66q102 0 163.5 51.5T659 252q0 41-14 73.5t-34.5 54-58 40.5-71 30.5T395 477q-62 18-108.5 40t-87 57-61.5 86-21 118q0 65 28 117t74 82.5 99 46.5 108 16zm96-1259L291-489h-68l139 270h160z"/><glyph glyph-name="uni021A" unicode="Ț" horiz-adv-x="950" d="M915 1397v-101H528V0H422v1296H35v101h880zM561-219L330-489h-68l139 270h160z"/><glyph glyph-name="uni021B" unicode="ț" horiz-adv-x="720" d="M315 1255v-241h289v-92H315V250q0-92 43-135 42-45 115-45 75 0 156 43V10q-82-37-162-37-103 0-178 66-76 73-76 197v686H51v82h78q38 0 68 30t30 68v153h88zM526-219L295-489h-68l140 270h159z"/><glyph glyph-name="circumflex" unicode="ˆ" horiz-adv-x="1228" d="M664 1513l237-270H791l-173 195-172-195H336l237 270h91z"/><glyph glyph-name="caron" unicode="ˇ" horiz-adv-x="1228" d="M901 1513l-237-270h-91l-237 270h110l172-194 173 194h110z"/><glyph glyph-name="breve" unicode="˘" horiz-adv-x="1228" d="M874 1473h52q-20-108-101-168t-211-60q-129 0-210 60t-101 168h51q30-71 103.5-105.5T614 1333t156.5 34.5T874 1473z"/><glyph glyph-name="dotaccent" unicode="˙" horiz-adv-x="1228" d="M614 1419q38 0 65.5-27t27.5-65-27.5-65-65.5-27-65 27-27 65 27 65 65 27z"/><glyph glyph-name="ring" unicode="˚" horiz-adv-x="1228" d="M614 1561q79 0 136-58t57-135q0-78-57-135t-136-57q-78 0-135 57t-57 135q0 77 57 135t135 58zm0-76q-49 0-82.5-34.5T498 1368q0-50 33.5-83.5T614 1251q48 0 82.5 34t34.5 83q0 47-35 82t-82 35z"/><glyph glyph-name="ogonek" unicode="˛" horiz-adv-x="1228" d="M602 10h25q-6-30-6-55v-8q0-73 38-112.5T764-205q13 0 45 4v-59q-40-16-84-16-68 0-116 37.5T561-123q0 75 41 133z"/><glyph glyph-name="tilde" unicode="˜" horiz-adv-x="1228" d="M881 1434h49q-26-195-176-195-44 0-147 49t-150 49q-37 0-70-27t-45-67h-41q29 191 176 191 41 0 139.5-50.5T768 1333q37 0 67.5 27.5T881 1434z"/><glyph glyph-name="hungarumlaut" unicode="˝" horiz-adv-x="1228" d="M1071 1513l-231-270h-68l139 270h160zm-317 0l-232-270h-67l139 270h160z"/><glyph glyph-name="uni0326" unicode="̦" d="M676-219L444-489h-67l139 270h160z"/><glyph glyph-name="uni05B0" unicode="ְ" d="M662-195v-98h-99v98h99zm0-225v-98h-99v98h99z"/><glyph glyph-name="uni05B1" unicode="ֱ" d="M934-195v-98h-98v98h98zM535-420v-98h-99v98h99zM401-195v-98h-98v98h98zm267 0v-98h-99v98h99zm266-225v-98h-98v98h98z"/><glyph glyph-name="uni05B2" unicode="ֲ" d="M680-195v-79H281v79h399zm266-225v-98h-98v98h98zm0 225v-98h-98v98h98z"/><glyph glyph-name="uni05B3" unicode="ֳ" d="M680-195v-73H506l18-221h-92l19 221H281v73h399zm266-225v-98h-98v98h98zm0 225v-98h-98v98h98z"/><glyph glyph-name="uni05B4" unicode="ִ" d="M664-195v-98h-99v98h99z"/><glyph glyph-name="uni05B5" unicode="ֵ" d="M797-195v-98h-99v98h99zm-267 0v-98h-98v98h98z"/><glyph glyph-name="uni05B6" unicode="ֶ" d="M797-195v-98h-99v98h99zM664-420v-98h-99v98h99zM530-195v-98h-98v98h98z"/><glyph glyph-name="uni05B7" unicode="ַ" d="M813-195v-79H414v79h399z"/><glyph glyph-name="uni05B8" unicode="ָ" d="M813-195v-73H639l18-221h-92l19 221H414v73h399z"/><glyph glyph-name="uni05B9" unicode="ֹ" d="M664 1397v-99h-99v99h99z"/><glyph glyph-name="uni05BA" unicode="ֺ" d="M664 1397v-99h-99v99h99z"/><glyph glyph-name="uni05BB" unicode="ֻ" d="M971-451v-98h-99v98h99zM666-195v-98h-99v98h99zm149-129v-98h-98v98h98z"/><glyph glyph-name="uni05BC" unicode="ּ" d="M664 610v-98h-99v98h99z"/><glyph glyph-name="uni05BE" unicode="־" horiz-adv-x="993" d="M809 1051V950H184v101h625z"/><glyph glyph-name="uni05C1" unicode="ׁ" d="M664 1397v-99h-99v99h99z"/><glyph glyph-name="uni05C2" unicode="ׂ" d="M664 1397v-99h-99v99h99z"/><glyph glyph-name="uni05C7" unicode="ׇ" d="M813-195v-73H639l18-221h-92l19 221H414v73h399z"/><glyph glyph-name="uni05D0" unicode="א" horiz-adv-x="1126" d="M1024 1051l-18-142q-9-72-23-126t-39-104.5-62-86.5-92-63.5T662 485L1018 0H897L500 539q-54-10-95.5-30T336 458t-45-61.5-29-74.5-16.5-75.5T234 169q-1-6-1-9L211-2H102l31 195q14 89 32.5 148t53 114 91.5 90.5T451 602l-330 449h123l370-502q70 18 121 48.5t78.5 63 45 77.5 24 80.5T895 902l1.5 12 1 10.5L899 936l16 115h109z"/><glyph glyph-name="uni05D1" unicode="ב" horiz-adv-x="1015" d="M113 1051h329q199 0 289-140 51-87 51-233V100h162V0H102v100h576v559q0 140-56.5 215.5T436 950H113v101z"/><glyph glyph-name="uni05D2" unicode="ג" horiz-adv-x="763" d="M551 1051V481q0-164 6.5-235.5T594 78l27-78H516q-39 102-55 184h-8L104-31l-2 115 347 215q-3 83-3 190v461H158v101h393z"/><glyph glyph-name="uni05D3" unicode="ד" horiz-adv-x="1064" d="M973 1051V950H748V0H643v950H92v101h881z"/><glyph glyph-name="uni05D4" unicode="ה" horiz-adv-x="1181" d="M174 1051h504q199 0 289-140 51-87 51-233V0H913v659q0 140-56 215.5T672 950H174v101zm107-488V0H174v563h107z"/><glyph glyph-name="uni05D5" unicode="ו" horiz-adv-x="544" d="M371 1051V0H264v950H133v101h238z"/><glyph glyph-name="uni05D6" unicode="ז" horiz-adv-x="739" d="M657 1051V950H494q-95 0-141.5-73T303 694q1-86 35-212.5T407 262 510 0H393q-15 42-51 144t-51 148.5-37 121-30.5 131T215 653q0 205 109 297H92v101h565z"/><glyph glyph-name="uni05D7" unicode="ח" horiz-adv-x="1193" d="M174 1051h516q199 0 289-140 51-87 51-233V0H926v659q0 140-56.5 215.5T684 950H279V0H174v1051z"/><glyph glyph-name="uni05D8" unicode="ט" horiz-adv-x="1212" d="M745 1073q223 0 295-188 39-100 39-373 0-138-34-239T928 94Q800-27 616-27 433-27 305 94q-83 78-117 179t-34 239v539h104V512q0-230 121-348 90-90 237-90 148 0 238 90 121 118 121 348 0 136-1.5 186T960 804.5 920 899q-40 54-109 71.5t-136.5 5T541 932v96q99 45 204 45z"/><glyph glyph-name="uni05D9" unicode="י" horiz-adv-x="532" d="M369 1051V387H264v563H133v101h236z"/><glyph glyph-name="uni05DA" unicode="ך" horiz-adv-x="944" d="M61 1051h379q199 0 289-140 51-87 51-233v-963H676v944q0 140-56.5 215.5T434 950H61v101z"/><glyph glyph-name="uni05DB" unicode="כ" horiz-adv-x="952" d="M102 1051h252q249 0 367.5-136.5T840 526q0-249-127.5-387.5T334 0H102v100h232q200 0 300.5 113.5T735 526q0 424-381 424H102v101z"/><glyph glyph-name="uni05DC" unicode="ל" horiz-adv-x="958" d="M197 1442v-391h669v-86L463 0H352l398 952H92v490h105z"/><glyph glyph-name="uni05DD" unicode="ם" horiz-adv-x="1200" d="M164 1051h532q199 0 289-140 51-87 51-233V0H164v1051zm526-101H268V100h664v559q0 140-56.5 215.5T690 950z"/><glyph glyph-name="uni05DE" unicode="מ" horiz-adv-x="1277" d="M725 1075q192 0 311-151.5T1155 541q0-570-469-570-58 0-119 11v94q52-8 115-8 183-3 278 114t95 353q0 126-38 226T902.5 921 723 981q-108 0-178.5-51.5T426 776q-45-92-78-280-36-220-63-498h-99q51 501 103 686L82 1051h127l133-238q119 262 383 262z"/><glyph glyph-name="uni05DF" unicode="ן" horiz-adv-x="555" d="M381 1051V-285H276V950H113v101h268z"/><glyph glyph-name="uni05E0" unicode="נ" horiz-adv-x="690" d="M526 1051V262q0-99-34-166Q433-18 270-18H102V82h158q86 0 124 47.5T422 279v671H143v101h383z"/><glyph glyph-name="uni05E1" unicode="ס" horiz-adv-x="1212" d="M164 1051h463q183 0 311-121 83-79 117.5-180t34.5-238-34.5-238T938 94Q810-27 627-27 443-27 315 94q-83 78-117 179t-34 239v539zm463-101H268V512q0-230 121-348 90-90 238-90 147 0 237 90 121 118 121 348T864 860q-90 90-237 90z"/><glyph glyph-name="uni05E2" unicode="ע" horiz-adv-x="1134" d="M889 1051h102q0-56-4-150-9-209-22-328-34-309-160-438-73-74-194.5-104.5T289 0H170v100h115q172 0 270 19l-422 932h115l407-899q71 36 109 94 67 98 98 340 11 94 19 257t8 208z"/><glyph glyph-name="uni05E3" unicode="ף" horiz-adv-x="1079" d="M133 1051h416q115 0 197-48.5T870 866q45-86 45-207v-944H811v938q0 135-68 216t-202 81H242V727q0-261 231-272v-95q-154 0-247 92.5T133 727v324z"/><glyph glyph-name="uni05E4" unicode="פ" horiz-adv-x="1157" d="M557 1069q225 0 351-127t126-362q0-295-155-437.5T412 0H176v98h238q261 0 389.5 115T932 569q0 202-97.5 304T551 975q-89 0-156.5-25.5T289 881t-56-94-18-109 18.5-103 49.5-70.5 65.5-39.5 71.5-16V346q-35 1-72 9t-80.5 31-76.5 58-55.5 95.5T113 676q0 82 27 152t80 124.5 139.5 85.5 197.5 31z"/><glyph glyph-name="uni05E5" unicode="ץ" horiz-adv-x="983" d="M911 1051l-49-193q-55-215-125-303T510 428l121-713H530L403 461 92 1051h113l282-543q58 16 99 41t64.5 46.5T695 667t28.5 76.5T749 846q7 29 11 45l39 160h112z"/><glyph glyph-name="uni05E6" unicode="צ" horiz-adv-x="1046" d="M924 1051l-19-142q-11-83-28.5-143.5t-49.5-114-84.5-91T616 500L915 90V0H135v98h651L92 1051h123l352-484q31 11 57.5 26t46 28.5T707 656t28 35 20.5 40 14.5 39 10.5 42.5T788 853t6 43l5 40 16 115h109z"/><glyph glyph-name="uni05E7" unicode="ק" horiz-adv-x="1212" d="M1100 1051v-86L743 0H633l350 952 2-2H154v101h946zM289 563v-848H184v848h105z"/><glyph glyph-name="uni05E8" unicode="ר" horiz-adv-x="989" d="M102 1051h383q199 0 289-140 51-87 51-233V0H721v659q0 140-56.5 215.5T479 950H102v101z"/><glyph glyph-name="uni05E9" unicode="ש" horiz-adv-x="1445" d="M1292 1051V631q0-169-42-292t-146-218Q949-27 723-27T342 121q-104 95-146 218t-42 292v420h102V635q0-138 31-238 74 12 126.5 27.5t104 46 83 73.5T651 655t19 158v238h104V811q0-108-25.5-190T683 488t-102.5-86.5-122.5-53T317 319q45-82 101-135Q532 70 723 70q188 0 305 114 90 85 126 196.5t36 254.5v416h102z"/><glyph glyph-name="uni05EA" unicode="ת" horiz-adv-x="1337" d="M113 1051h721q198 0 288-140 52-89 52-233V0h-103v659q0 140-56.5 215.5T829 950H461V240q0-72-23-123.5T376.5 38t-80-38.5T209-12q-43 0-86 6v96q8-1 23-2.5t27.5-2.5 23.5-1q74 0 117.5 41T358 272v678H113v101z"/><glyph glyph-name="gereshhb" unicode="׳" horiz-adv-x="579" d="M467 1364L170 950h-57l163 414h191z"/><glyph glyph-name="gershayimhb" unicode="״" horiz-adv-x="911" d="M799 1364L502 950h-58l164 414h191zm-332 0L170 950h-57l163 414h191z"/><glyph glyph-name="Wgrave" unicode="Ẁ" horiz-adv-x="2244" d="M1180 1403l454-1299 428 1297h111L1704-6h-139l-443 1280L680-6H543L72 1401h110L610 104l457 1299h113zm-181 491l140-270h-68l-231 270h159z"/><glyph glyph-name="wgrave" unicode="ẁ" horiz-adv-x="1896" d="M999 1034l381-893 342 873h105L1417-18h-71L948 915 551-18h-72L70 1014h104l342-873 381 893h102zm-174 494l140-271h-68l-231 271h159z"/><glyph glyph-name="Wacute" unicode="Ẃ" horiz-adv-x="2244" d="M1180 1403l454-1299 428 1297h111L1704-6h-139l-443 1280L680-6H543L72 1401h110L610 104l457 1299h113zm217 491l-232-270h-67l139 270h160z"/><glyph glyph-name="wacute" unicode="ẃ" horiz-adv-x="1896" d="M999 1034l381-893 342 873h105L1417-18h-71L948 915 551-18h-72L70 1014h104l342-873 381 893h102zm224 494l-232-271h-67l139 271h160z"/><glyph glyph-name="Wdieresis" unicode="Ẅ" horiz-adv-x="2244" d="M1180 1403l454-1299 428 1297h111L1704-6h-139l-443 1280L680-6H543L72 1401h110L610 104l457 1299h113zm125 397q38 0 65-27t27-65-27-65-65-27-65.5 27-27.5 65 27.5 65 65.5 27zm-363 0q38 0 65-27t27-65-27-65-65-27-65 27-27 65 27 65 65 27z"/><glyph glyph-name="wdieresis" unicode="ẅ" horiz-adv-x="1896" d="M999 1034l381-893 342 873h105L1417-18h-71L948 915 551-18h-72L70 1014h104l342-873 381 893h102zm131 400q38 0 65.5-27.5t27.5-65.5-27.5-65-65.5-27-65 27-27 65 27 65.5 65 27.5zm-362 0q38 0 65-27.5t27-65.5-27-65-65-27-65 27-27 65 27 65.5 65 27.5z"/><glyph glyph-name="Ygrave" unicode="Ỳ" horiz-adv-x="1187" d="M1151 1397L645 635V0H541v635L37 1397h123l432-658 430 658h129zm-682 497l139-270h-67l-232 270h160z"/><glyph glyph-name="ygrave" unicode="ỳ" horiz-adv-x="1017" d="M967 1014L342-514H238L457 25 51 1014h107l350-852 352 852h107zm-572 514l140-271h-68l-231 271h159z"/><glyph glyph-name="endash" unicode="–" horiz-adv-x="1542" d="M1378 549v-94H164v94h1214z"/><glyph glyph-name="emdash" unicode="—" horiz-adv-x="2433" d="M2269 549v-94H164v94h2105z"/><glyph glyph-name="quoteleft" unicode="‘" horiz-adv-x="579" d="M467 1397L303 983H113l297 414h57z"/><glyph glyph-name="quoteright" unicode="’" horiz-adv-x="585" d="M473 1397L176 983h-63l174 414h186z"/><glyph glyph-name="quotesinglbase" unicode="‚" horiz-adv-x="579" d="M467 336L170-78h-57l163 414h191z"/><glyph glyph-name="quotedblleft" unicode="“" horiz-adv-x="911" d="M799 1397L635 983H444l297 414h58zm-332 0L303 983H113l297 414h57z"/><glyph glyph-name="quotedblright" unicode="”" horiz-adv-x="911" d="M799 1397L502 983h-58l164 414h191zm-332 0L170 983h-57l163 414h191z"/><glyph glyph-name="quotedblbase" unicode="„" horiz-adv-x="911" d="M799 336L502-78h-58l164 414h191zm-332 0L170-78h-57l163 414h191z"/><glyph glyph-name="dagger" unicode="†" horiz-adv-x="1234" d="M670 1556v-448h356v-94H670V-217H565v1231H209v94h356v448h105z"/><glyph glyph-name="daggerdbl" unicode="‡" horiz-adv-x="1179" d="M670 1556v-448h356v-94H670V326h356v-95H670v-448H565v448H209v95h356v688H209v94h356v448h105z"/><glyph glyph-name="bullet" unicode="•" horiz-adv-x="786" d="M393 729q54 0 92.5-37.5T524 600q0-55-38.5-93T393 469t-91.5 38-37.5 93q0 54 37.5 91.5T393 729z"/><glyph glyph-name="ellipsis" unicode="…" horiz-adv-x="1507" d="M1243 180q41 0 70.5-29.5T1343 80t-29.5-70.5T1243-20t-70.5 29.5T1143 80t29.5 70.5T1243 180zm-979 0q41 0 71-29.5T365 80 335 9.5 264-20 193.5 9.5 164 80t29.5 70.5T264 180zm490 0q41 0 70.5-29.5T854 80 824.5 9.5 754-20 683 9.5 653 80t30 70.5 71 29.5z"/><glyph glyph-name="perthousand" unicode="‰" horiz-adv-x="2361" d="M1386 1397L432 0H317l955 1397h114zm-161-877q114 0 194-80t80-194-80-194.5T1225-29t-194.5 80.5T950 246t80.5 194 194.5 80zm0-88q-77 0-132-55t-55-131 55-131.5T1225 59q76 0 131 55t55 132q0 76-54.5 131T1225 432zm-746 993q114 0 194.5-80t80.5-194-80.5-194T479 877t-194 80-80 194 80 194 194 80zm0-88q-77 0-131.5-54.5T293 1151t54.5-131.5T479 965t132 55 55 131-55 131-132 55zm1434-817q114 0 194-80t80-194-80-194.5T1913-29t-194.5 80.5T1638 246t80.5 194 194.5 80zm0-88q-77 0-132-55t-55-131 55-131.5T1913 59q76 0 131 55t55 132q0 76-54.5 131T1913 432z"/><glyph glyph-name="guilsinglleft" unicode="‹" horiz-adv-x="776" d="M592 891L311 496l281-396H469L184 496l285 395h123z"/><glyph glyph-name="guilsinglright" unicode="›" horiz-adv-x="776" d="M307 891l285-395-285-396H184l281 396-281 395h123z"/><glyph glyph-name="fraction" unicode="⁄" horiz-adv-x="1069" d="M1069 1397L115 0H0l954 1397h115z"/><glyph glyph-name="uni20AA" unicode="₪" horiz-adv-x="2220" d="M2066 1051V631q0-169-42-292t-146-218Q1723-27 1497-27t-381 148q-104 95-146 218t-42 292v28q0 140-56.5 215.5T686 950H279V0H174v1051h516q199 0 289-140 51-87 51-233v-43q0-138 31-238 74 12 126.5 27.5t104 46 83 73.5 50.5 111 19 158v238h104V811q0-108-25.5-190t-65-133-102-86.5-123-53T1092 319q46-84 100-135 114-114 305-114 188 0 305 114 90 85 126 196.5t36 254.5v416h102z"/><glyph glyph-name="Euro" unicode="€" horiz-adv-x="1488" d="M1001 1423q181 0 345-82l-31-96q-142 80-314 80-126 0-240-44.5T555 1143 420 920h794l-28-91H395q-10-68-10-131t10-131h709l-27-90H420q43-130 135-223t206-137.5T1001 72q175 0 326 86V45q-156-72-326-72-153 0-292 56.5T461.5 202 307 477H135l29 90h125q-10 68-10 131t10 131H135l29 91h145q45 158 153 274t247 172.5 292 56.5z"/><glyph glyph-name="trademark" unicode="™" horiz-adv-x="2072" d="M1784 1397l84-813h-82l-74 727-309-746h-94l-310 746-73-727h-82l84 813h125l303-748 303 748h125zm-1051 0v-78H512V584h-84v735H207v78h526z"/><glyph glyph-name="partialdiff" unicode="∂" horiz-adv-x="1368"/><glyph glyph-name="emptyset" unicode="∅" horiz-adv-x="1421" d="M707 1190q185 0 325-121l115 115 63-64-114-114q112-138 112-318 0-136-67-251.5t-182.5-183T707 186q-179 0-318 113L279 188l-64 64 111 110Q205 502 205 688q0 136 67 251.5t182.5 183T707 1190zm319-254L459 369q110-86 248-86 167 0 286 119t119 286q0 138-86 248zm-319 158q-168 0-287-119T301 688q0-145 92-258l572 571q-117 93-258 93z"/><glyph glyph-name="product" unicode="∏" horiz-adv-x="1628" d="M1423 1397v-99h-149V0h-100v1298H459V0H350v1298H205v99h1218z"/><glyph glyph-name="summation" unicode="∑" horiz-adv-x="1429" d="M1184 1397v-97H352l611-612L338 98h844V0H229v131l580 557-580 582v127h955z"/><glyph glyph-name="minus" unicode="−" horiz-adv-x="1552" d="M1348 731v-98H205v98h1143z"/><glyph glyph-name="radical" unicode="√" horiz-adv-x="1251" d="M1866 1898v-90h-725L557 0H438L119 899h110l267-780 565 1779h805z"/><glyph glyph-name="infinity" unicode="∞" horiz-adv-x="1509" d="M1032 987q136 0 225-80.5t89-220.5-89-220.5-225-80.5q-186 0-278 205-92-205-279-205-135 0-223.5 79.5T162 684q1 143 89 223t224 80q187 0 279-205 92 205 278 205zm-555-78q-105 0-162-64t-57-159 57-159 162-64q45 0 83.5 19.5T627 538t47 70 37 78q-18 44-37 78t-47 70-66.5 55.5T477 909zm553 0q-45 0-83-19.5T880.5 834t-47-70-36.5-78q18-44 36.5-78t47-70 66.5-55.5 83-19.5q105 0 162 63.5t57 159.5-57 159.5-162 63.5z"/><glyph glyph-name="integral" unicode="∫" horiz-adv-x="811" d="M643 1571q34 0 82-10v-86q-58 8-80 8-153 0-153-172V127q0-118-70-186t-178-68q-34 0-82 10v86q58-8 80-8 153 0 153 172v1184q0 118 70 186t178 68z"/><glyph glyph-name="approxequal" unicode="≈" horiz-adv-x="1519" d="M1315 1010V893q-125-133-295-133-62 0-137 22.5t-133.5 50-130 50T492 905q-62 0-125.5-35T205 752v116q84 73 156 103t153 30q57 0 129.5-22.5t130-50 129-50T1030 856q64 0 129 35t156 119zm0-369V524q-125-133-295-133-62 0-137 23t-133.5 50-130 50T492 537q-62 0-125-35T205 383v117q84 73 156 103t153 30q57 0 129.5-23t130-50 129-50 127.5-23q64 0 129 35t156 119z"/><glyph glyph-name="notequal" unicode="≠" horiz-adv-x="1490" d="M1225 1276L965 911h321v-98H895L709 555h577v-98H639L379 92H266l260 365H205v98h391l184 258H205v98h645l260 365h115z"/><glyph glyph-name="lessequal" unicode="≤" horiz-adv-x="1177" d="M973 1241v-98L297 858l676-289v-98L205 799v110zm0-1055V96H205v90h768z"/><glyph glyph-name="greaterequal" unicode="≥" horiz-adv-x="1177" d="M205 1241l768-332V799L205 471v98l676 289-676 285v98zM973 186V96H205v90h768z"/><glyph glyph-name="lozenge" unicode="◊" horiz-adv-x="1478" d="M797 1430l518-728L797-31H680L168 702l512 728h117zm-58-82L297 702 739 53l445 649z"/><glyph glyph-name="uniFB2A" unicode="שׁ" horiz-adv-x="1445" d="M1292 1051V631q0-169-42-292t-146-218Q949-27 723-27T342 121q-104 95-146 218t-42 292v420h102V635q0-138 31-238 74 12 126.5 27.5t104 46 83 73.5T651 655t19 158v238h104V811q0-108-25.5-190T683 488t-102.5-86.5-122.5-53T317 319q45-82 101-135Q532 70 723 70q188 0 305 114 90 85 126 196.5t36 254.5v416h102zm-2 225v-98h-98v98h98z"/><glyph glyph-name="uniFB2B" unicode="שׂ" horiz-adv-x="1445" d="M1292 1051V631q0-169-42-292t-146-218Q949-27 723-27T342 121q-104 95-146 218t-42 292v420h102V635q0-138 31-238 74 12 126.5 27.5t104 46 83 73.5T651 655t19 158v238h104V811q0-108-25.5-190T683 488t-102.5-86.5-122.5-53T317 319q45-82 101-135Q532 70 723 70q188 0 305 114 90 85 126 196.5t36 254.5v416h102zM252 1276v-98h-98v98h98z"/><glyph glyph-name="shindageshshindothb" unicode="שּׁ" horiz-adv-x="1445" d="M1292 1051V631q0-169-42-292t-146-218Q949-27 723-27T342 121q-104 95-146 218t-42 292v420h102V635q0-138 31-238 74 12 126.5 27.5t104 46 83 73.5T651 655t19 158v238h104V811q0-108-25.5-190T683 488t-102.5-86.5-122.5-53T317 319q45-82 101-135Q532 70 723 70q188 0 305 114 90 85 126 196.5t36 254.5v416h102zM918 416v-99h-99v99h99zm372 860v-98h-98v98h98z"/><glyph glyph-name="shindageshsindothb" unicode="שּׂ" horiz-adv-x="1445" d="M1292 1051V631q0-169-42-292t-146-218Q949-27 723-27T342 121q-104 95-146 218t-42 292v420h102V635q0-138 31-238 74 12 126.5 27.5t104 46 83 73.5T651 655t19 158v238h104V811q0-108-25.5-190T683 488t-102.5-86.5-122.5-53T317 319q45-82 101-135Q532 70 723 70q188 0 305 114 90 85 126 196.5t36 254.5v416h102zM918 416v-99h-99v99h99zm-666 860v-98h-98v98h98z"/><glyph glyph-name="alefpatahhb" unicode="אַ" horiz-adv-x="1126" d="M1024 1051l-18-142q-9-72-23-126t-39-104.5-62-86.5-92-63.5T662 485L1018 0H897L500 539q-54-10-95.5-30T336 458t-45-61.5-29-74.5-16.5-75.5T234 169q-1-6-1-9L211-2H102l31 195q14 89 32.5 148t53 114 91.5 90.5T451 602l-330 449h123l370-502q70 18 121 48.5t78.5 63 45 77.5 24 80.5T895 902l1.5 12 1 10.5L899 936l16 115h109zM743-195v-79H344v79h399z"/><glyph glyph-name="alefqamatshb" unicode="אָ" horiz-adv-x="1126" d="M1024 1051l-18-142q-9-72-23-126t-39-104.5-62-86.5-92-63.5T662 485L1018 0H897L500 539q-54-10-95.5-30T336 458t-45-61.5-29-74.5-16.5-75.5T234 169q-1-6-1-9L211-2H102l31 195q14 89 32.5 148t53 114 91.5 90.5T451 602l-330 449h123l370-502q70 18 121 48.5t78.5 63 45 77.5 24 80.5T895 902l1.5 12 1 10.5L899 936l16 115h109zM743-195v-73H569l19-221h-92l18 221H344v73h399z"/><glyph glyph-name="alefdageshhb" unicode="אּ" horiz-adv-x="1126" d="M1024 1051l-18-142q-9-72-23-126t-39-104.5-62-86.5-92-63.5T662 485L1018 0H897L500 539q-54-10-95.5-30T336 458t-45-61.5-29-74.5-16.5-75.5T234 169q-1-6-1-9L211-2H102l31 195q14 89 32.5 148t53 114 91.5 90.5T451 602l-330 449h123l370-502q70 18 121 48.5t78.5 63 45 77.5 24 80.5T895 902l1.5 12 1 10.5L899 936l16 115h109zM684 913v-98h-98v98h98z"/><glyph glyph-name="betdageshhb" unicode="בּ" horiz-adv-x="1015" d="M113 1051h329q199 0 289-140 51-87 51-233V100h162V0H102v100h576v559q0 140-56.5 215.5T436 950H113v101zm223-473v-99h-98v99h98z"/><glyph glyph-name="gimeldageshhb" unicode="גּ" horiz-adv-x="763" d="M551 1051V481q0-164 6.5-235.5T594 78l27-78H516q-39 102-55 184h-8L104-31l-2 115 347 215q-3 83-3 190v461H158v101h393zM248 618v-98h-98v98h98z"/><glyph glyph-name="daletdageshhb" unicode="דּ" horiz-adv-x="1064" d="M973 1051V950H748V0H643v950H92v101h881zM393 578v-99h-98v99h98z"/><glyph glyph-name="hedageshhb" unicode="הּ" horiz-adv-x="1181" d="M174 1051h504q199 0 289-140 51-87 51-233V0H913v659q0 140-56 215.5T672 950H174v101zm107-488V0H174v563h107zm352 8v-98h-98v98h98z"/><glyph glyph-name="uniFB35" unicode="וּ" horiz-adv-x="544" d="M371 1051V0H264v950H133v101h238zM96 578v-99H-2v99h98z"/><glyph glyph-name="zayindageshhb" unicode="זּ" horiz-adv-x="739" d="M657 1051V950H494q-95 0-141.5-73T303 694q1-86 35-212.5T407 262 510 0H393q-15 42-51 144t-51 148.5-37 121-30.5 131T215 653q0 205 109 297H92v101h565zm-79-351v-98h-99v98h99z"/><glyph glyph-name="tetdageshhb" unicode="טּ" horiz-adv-x="1212" d="M745 1073q223 0 295-188 39-100 39-373 0-138-34-239T928 94Q800-27 616-27 433-27 305 94q-83 78-117 179t-34 239v539h104V512q0-230 121-348 90-90 237-90 148 0 238 90 121 118 121 348 0 136-1.5 186T960 804.5 920 899q-40 54-109 71.5t-136.5 5T541 932v96q99 45 204 45zm-92-495v-99h-98v99h98z"/><glyph glyph-name="yoddageshhb" unicode="יּ" horiz-adv-x="532" d="M369 1051V387H264v563H133v101h236zM106 725v-98H8v98h98z"/><glyph glyph-name="finalkafdageshhb" unicode="ךּ" horiz-adv-x="944" d="M61 1051h379q199 0 289-140 51-87 51-233v-963H676v944q0 140-56.5 215.5T434 950H61v101zm318-494v-98h-98v98h98z"/><glyph glyph-name="kafdageshhb" unicode="כּ" horiz-adv-x="952" d="M102 1051h252q249 0 367.5-136.5T840 526q0-249-127.5-387.5T334 0H102v100h232q200 0 300.5 113.5T735 526q0 424-381 424H102v101zm260-473v-99h-98v99h98z"/><glyph glyph-name="lameddageshhb" unicode="לּ" horiz-adv-x="958" d="M197 1442v-391h669v-86L463 0H352l398 952H92v490h105zm157-756v-98h-98v98h98z"/><glyph glyph-name="memdageshhb" unicode="מּ" horiz-adv-x="1277" d="M725 1075q192 0 311-151.5T1155 541q0-570-469-570-58 0-119 11v94q52-8 115-8 183-3 278 114t95 353q0 126-38 226T902.5 921 723 981q-108 0-178.5-51.5T426 776q-45-92-78-280-36-220-63-498h-99q51 501 103 686L82 1051h127l133-238q119 262 383 262zm16-497v-99h-98v99h98z"/><glyph glyph-name="nundageshhb" unicode="נּ" horiz-adv-x="690" d="M526 1051V262q0-99-34-166Q433-18 270-18H102V82h158q86 0 124 47.5T422 279v671H143v101h383zM219 578v-99h-98v99h98z"/><glyph glyph-name="samekhdageshhb" unicode="סּ" horiz-adv-x="1212" d="M164 1051h463q183 0 311-121 83-79 117.5-180t34.5-238-34.5-238T938 94Q810-27 627-27 443-27 315 94q-83 78-117 179t-34 239v539zm463-101H268V512q0-230 121-348 90-90 238-90 147 0 237 90 121 118 121 348T864 860q-90 90-237 90zm28-372v-99h-98v99h98z"/><glyph glyph-name="finalpedageshhb" unicode="ףּ" horiz-adv-x="1079" d="M133 1051h416q115 0 197-48.5T870 866q45-86 45-207v-944H811v938q0 135-68 216t-202 81H242V727q0-261 231-272v-95q-154 0-247 92.5T133 727v324zm531-441v-98h-99v98h99z"/><glyph glyph-name="pedageshhb" unicode="פּ" horiz-adv-x="1157" d="M557 1069q225 0 351-127t126-362q0-295-155-437.5T412 0H176v98h238q261 0 389.5 115T932 569q0 202-97.5 304T551 975q-89 0-156.5-25.5T289 881t-56-94-18-109 18.5-103 49.5-70.5 65.5-39.5 71.5-16V346q-35 1-72 9t-80.5 31-76.5 58-55.5 95.5T113 676q0 82 27 152t80 124.5 139.5 85.5 197.5 31zm72-360v-99h-99v99h99z"/><glyph glyph-name="tsadidageshhb" unicode="צּ" horiz-adv-x="1046" d="M924 1051l-19-142q-11-83-28.5-143.5t-49.5-114-84.5-91T616 500L915 90V0H135v98h651L92 1051h123l352-484q31 11 57.5 26t46 28.5T707 656t28 35 20.5 40 14.5 39 10.5 42.5T788 853t6 43l5 40 16 115h109zM334 393v-98h-98v98h98z"/><glyph glyph-name="qofdageshhb" unicode="קּ" horiz-adv-x="1212" d="M1100 1051v-86L743 0H633l350 952 2-2H154v101h946zM289 563v-848H184v848h105zm329 168v-98h-98v98h98z"/><glyph glyph-name="reshdageshhb" unicode="רּ" horiz-adv-x="989" d="M102 1051h383q199 0 289-140 51-87 51-233V0H721v659q0 140-56.5 215.5T479 950H102v101zm256-473v-99h-98v99h98z"/><glyph glyph-name="shindageshhb" unicode="שּ" horiz-adv-x="1445" d="M1292 1051V631q0-169-42-292t-146-218Q949-27 723-27T342 121q-104 95-146 218t-42 292v420h102V635q0-138 31-238 74 12 126.5 27.5t104 46 83 73.5T651 655t19 158v238h104V811q0-108-25.5-190T683 488t-102.5-86.5-122.5-53T317 319q45-82 101-135Q532 70 723 70q188 0 305 114 90 85 126 196.5t36 254.5v416h102zM918 416v-99h-99v99h99z"/><glyph glyph-name="tavdageshhb" unicode="תּ" horiz-adv-x="1337" d="M113 1051h721q198 0 288-140 52-89 52-233V0h-103v659q0 140-56.5 215.5T829 950H461V240q0-72-23-123.5T376.5 38t-80-38.5T209-12q-43 0-86 6v96q8-1 23-2.5t27.5-2.5 23.5-1q74 0 117.5 41T358 272v678H113v101zm692-473v-99h-98v99h98z"/><glyph glyph-name="uniFB4B" unicode="וֹ" horiz-adv-x="544" d="M371 1051V0H264v950H133v101h238zm-66 225v-98h-98v98h98z"/><glyph glyph-name="i.loclTRK" horiz-adv-x="509" d="M305 1014V0H205v1014h100zm-47 422q38 0 65-27.5t27-65.5-27-65-65-27-65 27-27 65 27 65.5 65 27.5z"/><glyph glyph-name="a.sc" horiz-adv-x="1126" d="M623 1139L1081 0H973L840 336H287L154 0H45l459 1139h119zm-60-111L326 434h473z"/><glyph glyph-name="b.sc" horiz-adv-x="1001" d="M184 1133h344q122 0 207.5-85T821 840q0-69-29.5-128.5T709 614q91-36 145.5-114T909 322q0-132-93.5-226T590 2L184 0v1133zm396-586H287V96h293q94 0 159.5 66T805 322t-65.5 159.5T580 547zm-64 493H287V641h229q84 0 143.5 58.5T719 840q0 84-59 142t-144 58z"/><glyph glyph-name="c.sc" horiz-adv-x="1138" d="M694 1155q185 0 324-80V952q-129 103-320 103-136 0-246-55T274.5 832 207 565q0-116 39-210t106.5-154.5 156-92.5T698 76q192 0 320 102V55Q879-25 694-25q-121 0-228.5 41.5T277 132.5t-128 187T102 565t47 245.5 128 187 188.5 116T694 1155z"/><glyph glyph-name="d.sc" horiz-adv-x="1224" d="M184 1133h381q77 0 154-22t150-68 129-111.5 90-160 34-204.5q0-111-34-205.5t-90-160-128.5-112-149.5-68T567 0H184v1133zm387-97H289V96h282q78 0 154.5 29T868 209t107 148.5 41 209.5-41 209-107 148-142.5 83.5T571 1036z"/><glyph glyph-name="e.sc" horiz-adv-x="927" d="M784 1133v-99H287V643h444v-98H287V98h497V0H184v1133h600z"/><glyph glyph-name="f.sc" horiz-adv-x="876" d="M784 1133v-99H287V643h444v-98H287V0H184v1133h600z"/><glyph glyph-name="fi.sc" horiz-adv-x="1357" d="M784 1133v-99H287V643h444v-98H287V0H184v1133h600zm390 2V0h-105v1135h105z"/><glyph glyph-name="fl.sc" horiz-adv-x="1671" d="M782 1133v-99H285V643h444v-98H285V0H182v1133h600zm351 0V98h471V0h-576v1133h105z"/><glyph glyph-name="g.sc" horiz-adv-x="1251" d="M694 1155q214 0 361-102V920q-67 67-161.5 101T698 1055q-136 0-246-55T274.5 832 207 565q0-116 38.5-209.5T351 202t154.5-92.5T694 76q184 0 314 100v305H762v94h346V129Q933-25 694-25q-121 0-228.5 41.5T277 132.5t-128 187T102 565t47 245.5 128 187 188.5 116T694 1155z"/><glyph glyph-name="h.sc" horiz-adv-x="1280" d="M1096 1135V0H991v545H289V0H184v1135h105V643h702v492h105z"/><glyph glyph-name="i.sc" horiz-adv-x="485" d="M295 1135V0H190v1135h105z"/><glyph glyph-name="dotlessi.sc" horiz-adv-x="485" d="M295 1135V0H190v1135h105z"/><glyph glyph-name="j.sc" horiz-adv-x="575" d="M401 1133V215q0-122-65.5-182T174-27Q121-27 72-8V92q49-18 90-18 62 0 99.5 35.5T299 219v914h102z"/><glyph glyph-name="k.sc" horiz-adv-x="1015" d="M975 1133L426 565 975-2H838L291 565l547 568h137zm-686 0V0H184v1133h105z"/><glyph glyph-name="l.sc" horiz-adv-x="827" d="M289 1133V98h471V0H184v1133h105z"/><glyph glyph-name="m.sc" horiz-adv-x="1679" d="M1423 1139L1548 0h-106l-109 1001L903-16H778L348 1001 240 0H133l125 1139h145L842 92l436 1047h145z"/><glyph glyph-name="n.sc" horiz-adv-x="1374" d="M305 1139l782-1006v1000h103V0h-125L287 991V0H184v1139h121z"/><glyph glyph-name="o.sc" horiz-adv-x="1392" d="M696 1159q89 0 174-24.5t160.5-74.5T1163 941t90-165.5 33-206.5-33-206-90-165.5-132.5-119T870 4.5 696-20 522 4.5t-160.5 74-132.5 119T139 363t-33 206 33 206.5T229 941t132.5 119 160.5 74.5 174 24.5zm0-100q-93 0-178.5-31T363 938 252.5 783.5 211 569q0-95 27-176t74-138 109-97 131.5-59T696 80t143.5 19 132 59 109 97 74 138 27.5 176-27.5 176.5-74 138-109 97-132 59.5-143.5 19z"/><glyph glyph-name="p.sc" horiz-adv-x="946" d="M184 1133h361q132 0 225.5-94T864 813t-93.5-225.5T545 494H287V0H184v1133zm351-95H287V588h248q94 0 159.5 65.5T760 813t-65.5 159.5T535 1038z"/><glyph glyph-name="q.sc" horiz-adv-x="1392" d="M696 1159q89 0 174-24.5t160.5-74.5T1163 941t90-165.5 33-206.5q0-236-143-395L1337 0h-145l-123 106Q910-20 696-20q-89 0-174 24.5t-160.5 74-132.5 119T139 363t-33 206 33 206.5T229 941t132.5 119 160.5 74.5 174 24.5zm0-100q-93 0-178.5-31T363 938 252.5 783.5 211 569q0-95 27-176t74-138 109-97 131.5-59T696 80t143.5 19 132 59 109 97 74 138 27.5 176-27.5 176.5-74 138-109 97-132 59.5-143.5 19z"/><glyph glyph-name="r.sc" horiz-adv-x="974" d="M184 1133h361q132 0 225.5-94T864 813t-93.5-225.5T545 494h-43L909 0H780L379 494h-92V0H184v1133zm351-95H287V588h248q94 0 159.5 65.5T760 813t-65.5 159.5T535 1038z"/><glyph glyph-name="s.sc" horiz-adv-x="935" d="M453 1155q84 0 171.5-27t155.5-75V944q-67 50-156 83.5T453 1061q-108 0-173-54t-65-141q0-101 60-154.5T473 616q47-14 74.5-23.5t69.5-27 67.5-33.5 55.5-42 46-54.5 27.5-68T825 281q0-62-21.5-113.5t-57-86.5T664 21.5 567-14 465-25q-82 0-171 27T133 76v114q73-51 162.5-84.5T465 72q116 0 185 58t69 151q0 45-17 80.5T667.5 418t-67 44-74 31.5T430 524q-8 3-12 4-72 22-122 46.5T201 637t-67.5 95.5T111 866q0 72 31 129.5t81.5 91 109 51T453 1155z"/><glyph glyph-name="t.sc" horiz-adv-x="897" d="M815 1135v-99H502V0H397v1036H82v99h733z"/><glyph glyph-name="u.sc" horiz-adv-x="1189" d="M1026 1133V428q0-138-58.5-242.5T811.5 28 594-25Q410-25 287 97.5T164 428v705h104l-2-711q0-161 94-254.5T594 74t234 93.5T922 422v711h104z"/><glyph glyph-name="v.sc" horiz-adv-x="1138" d="M1087 1133L629-6H510L51 1133h115L569 109l404 1024h114z"/><glyph glyph-name="w.sc" horiz-adv-x="1921" d="M1022 1145l369-1020 358 1008h111L1452-6h-115L961 1034 584-6H469L61 1133h111L530 125l369 1020h123z"/><glyph glyph-name="x.sc" horiz-adv-x="1114" d="M995 1135L621 608 1053 0H928L557 520 186 0H61l433 608-375 527h127l311-439 311 439h127z"/><glyph glyph-name="y.sc" horiz-adv-x="1015" d="M975 1133L561 520V0H457v520L41 1133h123l344-508 344 508h123z"/><glyph glyph-name="z.sc" horiz-adv-x="1003" d="M874 1133v-93L250 96h622V0H129v92l625 944H131v97h743z"/><glyph glyph-name="zero.tf" horiz-adv-x="1126" d="M563 1425q99 0 176.5-40t136-124 90-226T997 700t-31.5-335-90-226-136-124T563-25 386.5 15t-136 124-90 226T129 700t31.5 335 90 226 136 124 176.5 40zm0-94q-111 0-182-62.5t-108-203T236 700q0-334 80-482T563 70t247.5 148T891 700t-80.5 482.5T563 1331z"/><glyph glyph-name="one.tf" horiz-adv-x="1126" d="M614 1407V98h299V0H213v98h299v1026H301v66q89 7 157 68t85 149h71z"/><glyph glyph-name="two.tf" horiz-adv-x="1126" d="M567 1423q112 0 200.5-41.5t142-127.5 53.5-203q0-93-50.5-181.5T729 618L305 98h627V0H174v96l547 672q74 92 105.5 158.5T858 1051q0 121-72.5 199.5T569 1329q-78 0-136.5-23.5t-91.5-64-50-86-21-98.5H166q10 173 121 269.5t280 96.5z"/><glyph glyph-name="three.tf" horiz-adv-x="1126" d="M856 1397l-2-84-369-463q27 8 56 8 169 0 286-114.5T944 463q0-119-43.5-213T782 97 610.5 7.5 403-23q-96 0-221 33v99q112-33 215-33 196 0 319.5 97.5T840 459q0 130-85.5 217.5T541 764q-96 0-179-57l-2 137 365 459H195v94h661z"/><glyph glyph-name="four.tf" horiz-adv-x="1126" d="M758 1397L225 401h531v287h90V401h205v-98H846V-2l-90-2v307H98v78l543 1016h117z"/><glyph glyph-name="five.tf" horiz-adv-x="1126" d="M911 1397v-94H399l-43-490q88 45 191 45 169 0 286-114.5T950 463q0-119-43-213T789 97 617.5 7.5 410-23q-97 0-222 33l9 96q110-30 206-30 95 0 174.5 23.5t140 69.5T812 290t34 171q0 129-86 216t-213 87q-139 0-228-102l-73 47 59 688h606z"/><glyph glyph-name="six.tf" horiz-adv-x="1126" d="M653 1403h125q-261-383-436-672 92 74 221 74 179 0 295.5-117.5T977 391q-2-179-118.5-296.5T563-23 268 94.5 150 391q1 54 5 87.5T183 585t71 167q21 41 48.5 89.5t73 121.5 75.5 121 100 158 102 161zm-88-694q-136 0-223.5-93.5T254 391t87.5-224T565 74t224 93 88 224-88 224.5T565 709z"/><glyph glyph-name="seven.tf" horiz-adv-x="1126" d="M981 1397v-90Q683 994 561 682q-63-157-89.5-321.5T442 0H336q7 422 129 723 121 297 379 573H143v101h838z"/><glyph glyph-name="eight.tf" horiz-adv-x="1126" d="M563 1419q172 0 281.5-107T954 1047q0-101-49.5-185T766 729q107-51 168-145.5T995 375q0-169-121-283.5T563-23Q374-23 252.5 92T131 375q0 114 61.5 208.5T360 729q-89 49-138.5 133T172 1047q0 158 109.5 265T563 1419zm0-737q-145 0-236-88.5T236 375q0-129 91-217t236-88 236.5 88T891 375q0 130-91.5 218.5T563 682zm0 645q-127 0-208-80.5T274 1047q0-118 81-198.5T563 768q128 0 208.5 80.5T852 1047q0 119-80.5 199.5T563 1327z"/><glyph glyph-name="nine.tf" horiz-adv-x="1126" d="M563 1425q179 0 295.5-117T977 1012q-1-53-5.5-87.5t-28.5-107T872 651q-21-41-48.5-89.5t-73-121.5T675 319 575 161 473 0H348q261 383 436 672-92-74-221-74-179 0-295 117.5T150 1012q2 179 118 296t295 117zm-2-96q-136 0-223.5-93T250 1012t87.5-224.5T561 694t223.5 93.5T872 1012t-87.5 224-223.5 93z"/><glyph glyph-name="zero.sc" horiz-adv-x="1069" d="M535 1159q187 0 294-148.5T936 565 829 119.5 535-29 240.5 120 133 565t107.5 445T535 1159zm0-92q-143 0-220-125.5T238 565t77-376.5T535 63t219.5 125.5T831 565t-76.5 376.5T535 1067z"/><glyph glyph-name="one.sc" horiz-adv-x="681" d="M446 1137V0H344v872H158v68q78 18 136.5 70.5T371 1137h75z"/><glyph glyph-name="two.sc" horiz-adv-x="905" d="M457 1157q143 0 239.5-83T793 852q0-44-9-80t-34-77-47-69.5-71-86.5q-17-20-26-31L258 94h526V0H139v100l447 531q61 70 84.5 116T694 852q0 88-61.5 151.5T459 1067q-225 0-250-225h-96q7 145 103.5 230t240.5 85z"/><glyph glyph-name="three.sc" horiz-adv-x="847" d="M692 1133l-2-84-291-340 19 2q135 0 231-96.5T745 383q0-130-63-224T519 21 295-23q-90 0-182 25v92q89-26 176-26 161 0 261.5 79.5T651 381q0 100-70.5 171T410 623q-76 0-140-45v108l301 356H125v91h567z"/><glyph glyph-name="four.sc" horiz-adv-x="1024" d="M655 1133L229 358h439v248h98V358h152v-94H766V0h-98v264H106v78l435 791h114z"/><glyph glyph-name="five.sc" horiz-adv-x="854" d="M707 1133v-91H295l-25-370q70 39 154 39 135 0 231.5-96.5T752 383q0-98-36-176.5t-99-128T473.5 3 301-23q-84 0-178 23l6 92q77-24 166-24 161 0 261.5 79.5T657 381q0 100-70.5 171T416 623t-172-72l-72 35 35 547h500z"/><glyph glyph-name="six.sc" horiz-adv-x="925" d="M647 1133L268 582q81 67 195 67 152 0 250-96t100-242q-2-146-100-242T463-27 213 69 113 311q0 56 10.5 109.5t22.5 91 43 93.5 49 84 63 97l227 347h119zM463 559q-117 0-185.5-71T209 311t68.5-177T463 63t185.5 71T717 311t-68.5 177T463 559z"/><glyph glyph-name="seven.sc" horiz-adv-x="878" d="M776 1135v-86Q550 800 461 612q-52-110-73-233T367 84V0H264v78q0 171 21.5 301.5T358 627q82 187 285 413H102v95h674z"/><glyph glyph-name="eight.sc" horiz-adv-x="927" d="M465 1157q141 0 232-89t91-218q0-83-41.5-151.5T633 590q88-43 138-120t50-171q0-137-100-231.5T465-27q-157 0-258 94.5T106 299q0 93 51 170.5T295 590q-71 40-112.5 109T141 850q0 129 91.5 218t232.5 89zm0-620q-115 0-186.5-68T207 299q0-100 71.5-168T465 63t185.5 67.5T721 299q0 102-70.5 170T465 537zm0 530q-102 0-163.5-61.5T240 850q0-93 61.5-153T465 637t163.5 60T690 850q0 94-61.5 155.5T465 1067z"/><glyph glyph-name="nine.sc" horiz-adv-x="925" d="M463 1159q152 0 250-96t100-242q0-56-10.5-109.5t-22.5-91-43-93.5-49-84-63-97L397 0H279l378 551q-82-68-194-68-152 0-250 96T113 821q2 146 100 242t250 96zm0-90q-117 0-185.5-71T209 821t68.5-177T463 573t185.5 71T717 821t-68.5 177-185.5 71z"/><glyph glyph-name="comma.tf" horiz-adv-x="614" d="M463 137L217-188h-61l116 325h191z"/><glyph glyph-name="period.tf" horiz-adv-x="614" d="M307 174q41 0 71-29.5T408 74 378 3t-71-30-70.5 30T207 74t29.5 70.5T307 174z"/><glyph glyph-name="slash.sc" horiz-adv-x="827" d="M766 1133L164 0H61l603 1133h102z"/><glyph glyph-name="ampersand.sc" horiz-adv-x="1347" d="M582 1174q115 0 196.5-75.5T860 920q0-43-14-79.5t-26-58-59.5-57.5-66.5-48-95-58q-22-14-34-21l320-350 258 246V375L942 186 1114 0H989L877 123Q788 46 715 10.5T553-25q-152 0-250.5 92.5T205 305q-1 87 43.5 159.5T367 584q27 17 55 32-82 94-107.5 156.5T289 907q0 112 83.5 189.5T582 1174zm233-986L479 555q-75-40-117-82-67-70-67-162-1-108 73-178t185-70q72 0 129 29.5T815 188zm-242 902q-79 0-135.5-55T381 907q0-60 24-106.5T504 664q155 86 209.5 137.5T768 920q0 70-55 120t-140 50z"/><glyph glyph-name="percent.sc" horiz-adv-x="1638" d="M1264 1133L489 0H375l774 1133h115zm-846 28q114 0 194-80t80-194-80-194.5T418 612t-194.5 80.5T143 887t80.5 194 194.5 80zm0-88q-77 0-132-55t-55-131q0-77 55.5-132T418 700t131 55 55 132-55 131.5-131 54.5zm803-553q114 0 194-80t80-194-80-194.5T1221-29t-194.5 80.5T946 246t80.5 194 194.5 80zm0-88q-77 0-132-55t-55-131 55-131.5T1221 59q76 0 131 55t55 132q0 76-54.5 131T1221 432z"/></font>
</defs>
</svg>
