<svg xmlns="http://www.w3.org/2000/svg"><defs><font id="Simpler-Bold" horiz-adv-x="0"><font-face font-family="Simpler Bold" font-weight="400" units-per-em="2048" panose-1="0 0 5 0 0 0 0 0 0 0" ascent="1638" descent="-410" x-height="1071" cap-height="1458" bbox="-106 -786 2767 2058" underline-thickness="102" underline-position="-307" unicode-range="U+0020-FB4B"/><glyph glyph-name="fi" unicode="fi" horiz-adv-x="1353" d="M559 1595q94 0 186-28v-215q-73 24-127 24-143 0-143-135v-170h733V0H940v850H475V0H209v850H84v221h125v186q0 154 93.5 246t256.5 92zm653-118v-232H936v232h276z"/><glyph glyph-name="fl" unicode="fl" horiz-adv-x="1363" d="M559 1595q94 0 186-28v-215q-73 24-127 24-143 0-143-135v-170h459v498h274V0H934v850H475V0H209v850H84v221h125v186q0 154 93.5 246t256.5 92z"/><glyph glyph-name="f_f" unicode="ff" horiz-adv-x="1497" d="M1262 1595q94 0 186-28v-215q-73 24-127 24-143 0-143-135v-170h262V850h-262V0H911v850H475V0H209v850H84v221h125v186q0 154 93.5 246t256.5 92q94 0 186-28v-215q-73 24-127 24-143 0-143-135v-170h436v186q0 154 94 246t257 92z"/><glyph glyph-name="f_f_i" unicode="ffi" horiz-adv-x="2074" d="M1284 1595q94 0 186-28v-215q-73 24-127 24-143 0-143-135v-170h727V0h-268v850h-459V0H934v850H475V0H209v850H84v221h125v186q0 154 93.5 246t256.5 92q94 0 186-28v-215q-73 24-127 24-143 0-143-135v-170h459v186q0 154 93.5 246t256.5 92zm647-118v-232h-276v232h276z"/><glyph glyph-name="f_f_l" unicode="ffl" horiz-adv-x="2084" d="M1284 1595q94 0 186-28v-215q-73 24-127 24-143 0-143-135v-170h459v498h274V0h-274v850h-459V0H934v850H475V0H209v850H84v221h125v186q0 154 93.5 246t256.5 92q94 0 186-28v-215q-73 24-127 24-143 0-143-135v-170h459v186q0 154 93.5 246t256.5 92z"/><glyph glyph-name=".notdef" horiz-adv-x="1024" d="M0 0v1434h1024V0H0zm512 809l348 522H164zm61-92l349-522v1044zM164 102h696L512 625zm-62 1137V195l349 522z"/><glyph glyph-name=".null"/><glyph glyph-name="nonmarkingreturn" horiz-adv-x="682"/><glyph glyph-name="space" horiz-adv-x="458"/><glyph glyph-name="exclam" unicode="!" horiz-adv-x="712" d="M494 1458v-373l-62-602H268l-61 604v371h287zM356 293q66 0 114-47t48-113-48-114-114-48-113.5 48T195 133t47.5 113T356 293z"/><glyph glyph-name="quotedbl" unicode="&quot;" horiz-adv-x="1118" d="M1006 1458L698 983H537l174 475h295zm-424 0L274 983H113l174 475h295z"/><glyph glyph-name="numbersign" unicode="#" horiz-adv-x="1642" d="M1143 1233V936h295V772h-295V461h295V295h-295V0H973v295H670V0H502v295H205v166h297v311H205v164h297v297h168V936h303v297h170zM973 772H670V461h303v311z"/><glyph glyph-name="dollar" unicode="$" horiz-adv-x="1212" d="M813 1649l-29-195q121-31 222-98v-250q-128 86-254 119l-58-398q44-16 75-28.5t73-34 71.5-43 61-53.5 50.5-68 31.5-84.5T1069 412q0-193-131.5-316T582-27h-11l-22-159H399l25 176Q285 15 166 88v250q144-91 293-119l57 402q-60 21-104.5 41T313 718.5t-88.5 79-58 107.5-23.5 144q0 191 124 309.5T602 1477h37l25 172h149zM657 567l-51-354q89 12 137 65.5T791 408q0 58-30.5 93T657 567zM553 885l51 358q-88-6-136-56t-48-126q0-58 31.5-99T553 885z"/><glyph glyph-name="percent" unicode="%" horiz-adv-x="1589" d="M1372 1458L377 0H211l1001 1458h160zm-213-946q113 0 192-79t79-191q0-111-79.5-191T1159-29 968 51t-79 191q0 112 78.5 191t191.5 79zm0-135q-55 0-93-39t-38-96q0-56 38-94.5t93-38.5q56 0 93.5 38t37.5 95-38 96-93 39zM430 1487q112 0 191-78.5t79-191.5q0-111-79-191t-191-80-191 80-79 191q0 113 79 191.5t191 78.5zm0-135q-55 0-93-39t-38-96q0-56 38-95t93-39q56 0 93.5 38.5T561 1217t-38 96-93 39z"/><glyph glyph-name="ampersand" unicode="&amp;" horiz-adv-x="1667" d="M719 1489q180 0 290.5-93.5T1120 1151q0-106-63-192.5T858 793l-59-35 293-320 383 314V451l-222-183L1497 0h-307l-117 123Q900-31 678-31q-75 0-147 17T395.5 39 284 125.5t-76 123T180 406q0 243 244 395-75 98-105 173t-30 146q0 163 120.5 266T719 1489zM918 293L586 639q-73-43-113.5-95T432 416q0-104 74.5-163.5T686 193q124 0 232 100zm-205 991q-77 0-126.5-45T537 1122q0-96 118-211 123 68 175.5 118.5T883 1139q0 61-47.5 103T713 1284z"/><glyph glyph-name="quotesingle" unicode="'" horiz-adv-x="694" d="M582 1458L274 983H113l174 475h295z"/><glyph glyph-name="parenleft" unicode="(" horiz-adv-x="794" d="M575 1567h170q-193-215-274.5-441T389 643t81.5-482.5T745-283H575Q368-127 244.5 125.5T121 641q0 265 124.5 518.5T575 1567z"/><glyph glyph-name="parenright" unicode=")" horiz-adv-x="790" d="M45 1567h170q206-154 330.5-407T670 643 546 126.5 215-283H45Q238-65 319.5 160.5T401 643t-81.5 483T45 1567z"/><glyph glyph-name="asterisk" unicode="*" horiz-adv-x="1175" d="M694 1458l-20-313 280 115 68-207-291-76 191-242-172-129-160 268-166-270-172 129 194 244-292 76 65 209 283-113-23 309h215z"/><glyph glyph-name="plus" unicode="+" horiz-adv-x="1634" d="M926 1337V834h504V616H926V111l-217 2v503H205v218h504v503h217z"/><glyph glyph-name="comma" unicode="," horiz-adv-x="696" d="M571 268L279-186H102l156 454h313z"/><glyph glyph-name="hyphen" unicode="-" horiz-adv-x="1071" d="M907 741V528H164v213h743z"/><glyph glyph-name="period" unicode="." horiz-adv-x="663" d="M326 293q66 0 113.5-47T487 133 439.5 19 326-29 212 19t-48 114 48 113 114 47z"/><glyph glyph-name="slash" unicode="/" horiz-adv-x="1173" d="M1112 1567L276 0H61l836 1567h215z"/><glyph glyph-name="zero" unicode="0" horiz-adv-x="1269" d="M635 1489q251 0 387.5-191.5T1159 729t-136.5-567.5T635-29 247.5 161.5 111 729t136.5 568.5T635 1489zm0-246q-137 0-191.5-120T389 729q0-272 55-393t191-121 191 121 55 393q0 274-54.5 394T635 1243z"/><glyph glyph-name="one" unicode="1" horiz-adv-x="858" d="M635 1458V0H354v1034H102v193q117 4 201 66t113 165h219z"/><glyph glyph-name="two" unicode="2" horiz-adv-x="1140" d="M571 1489q209 0 338-120.5t129-313.5q0-61-13-112t-45.5-104.5-65-95T821 630q-16-18-24-28L487 238h517V0H135v197l535 637q62 74 84 117t22 96q0 89-53.5 145.5T569 1249q-107 0-161-65.5T354 1016H102q-2 210 125 341.5T571 1489z"/><glyph glyph-name="three" unicode="3" horiz-adv-x="1064" d="M885 1458l-4-192-275-326q160-26 261.5-142.5T969 496q0-123-47.5-224t-131-167T594 3 350-33Q215-33 102 4v248q108-41 232-41 160 0 259 74.5T692 494q0 110-64.5 168.5T471 721q-94 0-182-68v248l268 322H117v235h768z"/><glyph glyph-name="four" unicode="4" horiz-adv-x="1232" d="M907 1458L391 532h357v224l260 2V532h139V299h-139V0L748-2v301H86v227l520 932h301z"/><glyph glyph-name="five" unicode="5" horiz-adv-x="1075" d="M879 1458v-235H424l-16-295q65 18 137 18 118 0 215.5-51t158-155T979 496q0-164-82.5-285.5T674 28 356-33Q204-33 92 12l17 242q105-43 233-43 161 0 260.5 74T702 492q0 110-64 169.5T485 721q-105 0-172-76l-174 72 51 741h689z"/><glyph glyph-name="six" unicode="6" horiz-adv-x="1202" d="M915 1458L504 838q69 34 160 34 79 0 155-28t138.5-79.5T1058 629t38-187q0-206-141.5-340.5T594-33q-216 0-352 134.5T106 455q0 136 66 288 54 122 184 322l256 393h303zM604 664q-103 0-165-66.5T377 428t62.5-170.5T604 190q101 0 164 67.5T831 428t-63 169.5T604 664z"/><glyph glyph-name="seven" unicode="7" horiz-adv-x="1105" d="M1024 1458v-223q-130-149-213.5-269T670 707Q555 424 555 0H262q0 464 148 793 98 216 274 421H102v244h922z"/><glyph glyph-name="eight" unicode="8" horiz-adv-x="1224" d="M608 1487q207 0 336-115t129-289q0-98-44.5-181T901 764q103-57 158-150.5t55-210.5q0-194-140-315T610-33Q387-33 249 89.5T111 408q0 243 213 358-172 116-172 321 0 177 127 288.5T608 1487zm4-840q-98 0-161.5-66T387 416q0-98 64-164t161-66q98 0 162 66t64 164q0 99-64 165t-162 66zm2 621q-86 0-141-55t-55-142q0-90 56-150.5T614 860t140.5 60.5T811 1071q0 87-55 142t-142 55z"/><glyph glyph-name="nine" unicode="9" horiz-adv-x="1202" d="M608 1491q216 0 352-134t136-353q0-137-66-289-54-122-184-322L590 0H287l411 621q-72-35-159-35-63 0-124.5 17T297 655.5 198.5 741 131 862t-25 154q0 206 141.5 340.5T608 1491zm-10-223q-101 0-164-67.5T371 1030q0-102 62.5-168.5T598 795q103 0 165 66t62 169-62.5 170.5T598 1268z"/><glyph glyph-name="colon" unicode=":" horiz-adv-x="653" d="M475 1071V774H178v297h297zm0-774V0H178v297h297z"/><glyph glyph-name="semicolon" unicode=";" horiz-adv-x="710" d="M514 289L221-166H45l143 455h326zm-10 782V774H207v297h297z"/><glyph glyph-name="less" unicode="&lt;" horiz-adv-x="1163" d="M862 1409l174-174-510-506 508-508L862 51 184 731z"/><glyph glyph-name="equal" unicode="=" horiz-adv-x="1519" d="M1307 1071V854H213v217h1094zm0-475V379H213v217h1094z"/><glyph glyph-name="greater" unicode="&gt;" horiz-adv-x="1163" d="M301 1409l678-678L301 51 127 221l510 508-510 506z"/><glyph glyph-name="question" unicode="?" horiz-adv-x="1058" d="M524 1489q177 0 285.5-98.5T918 1137q0-99-48-179T713 764L571 614V453H342v243l244 256q49 53 71.5 95t22.5 86q0 65-45 105t-115 40q-81 0-126-54t-42-139H123q-6 174 102 289t299 115zM455 293q66 0 113.5-47T616 133 568.5 19 455-29 341 19t-48 114 48 113 114 47z"/><glyph glyph-name="at" unicode="@" horiz-adv-x="1976" d="M987 1438q134 0 259-41t226-117 177-176.5 117.5-225T1808 621q0-216-104-400h-215q137 170 137 395 0 177-84.5 324.5t-231.5 232-323 84.5-322.5-84.5T434 941t-84-323q0-132 49.5-250.5T534 164 737 29.5 987-20q180 0 336 94v-203q-163-72-338-72-166 0-317.5 65t-261 174.5-174 261T168 618t65 319 174.5 261.5 261 174.5 318.5 65zm146-901v53q-39-7-109-18.5T938 557q-127-23-127-111 0-50 36-79t93-29q78 0 135.5 54t57.5 145zm-138 493q152 0 240-76t88-229V221h-125l-55 92q-72-112-236-112-125 0-202.5 69T627 444q0 88 57.5 146.5T856 670l184 35q45 8 65.5 25.5T1126 784q0 52-38.5 77.5T989 887q-69 0-108-31.5T842 768H657q5 119 95 190.5t243 71.5z"/><glyph glyph-name="A" unicode="A" horiz-adv-x="1449" d="M868 1458L1419 0h-291L997 348H453L319 0H31l551 1458h286zm-143-364L537 578h376z"/><glyph glyph-name="B" unicode="B" horiz-adv-x="1282" d="M154 1458h524q169 0 287-119.5t118-291.5q0-87-31-155.5T971 780q102-42 160.5-131t58.5-211q0-186-125-312T760 0H154v1458zm551-809H424V225h281q88 0 149 61.5T915 436t-61.5 150.5T705 649zm-66 584H424V858h215q78 0 133 54.5t55 131.5q0 78-55 133.5T639 1233z"/><glyph glyph-name="C" unicode="C" horiz-adv-x="1406" d="M877 1487q228 0 413-103v-256q-79 51-183.5 84T897 1245q-103 0-196-33.5T534 1115 416.5 952.5 373 731t43.5-221.5T534 347t167-96.5T897 217q105 0 209.5 33t183.5 84V78Q1105-25 877-25q-158 0-300 52.5T327 175 155.5 414 92 731t63.5 317T327 1287t250 147.5 300 52.5z"/><glyph glyph-name="D" unicode="D" horiz-adv-x="1490" d="M154 1458h520q207 0 373-91t262-258 96-380-96-380-262.5-258T674 0H154v1458zm503-244H432V244h225q201 0 335 134t134 349q0 216-134 351.5T657 1214z"/><glyph glyph-name="E" unicode="E" horiz-adv-x="1085" d="M963 1458v-244H426V877h489V637H426V244h537V0H154v1458h809z"/><glyph glyph-name="F" unicode="F" horiz-adv-x="1064" d="M963 1458v-244H428V877h487V637H428V0H154v1458h809z"/><glyph glyph-name="G" unicode="G" horiz-adv-x="1597" d="M897 1489q274 0 502-129v-264q-101 72-229 112.5T918 1249q-152 0-275.5-61.5T445 1007t-74-276 74-276 197.5-180.5T918 213q148 0 296 57v289H961v223h514V125q-95-67-252.5-109.5T907-27q-167 0-314 51T334 169 157 408 92 731q0 177 65.5 323t177 239.5 256 144.5 306.5 51z"/><glyph glyph-name="H" unicode="H" horiz-adv-x="1581" d="M1427 1458V0h-276v635H430V0H154v1458h276V879h721v579h276z"/><glyph glyph-name="I" unicode="I" horiz-adv-x="606" d="M442 1458V0H164v1458h278z"/><glyph glyph-name="J" unicode="J" horiz-adv-x="765" d="M618 1458V322q0-160-97.5-256.5T254-31Q169-31 80-6v221q70-18 115-18 72 0 109.5 36.5T342 338v1120h276z"/><glyph glyph-name="K" unicode="K" horiz-adv-x="1333" d="M1323 1458L700 727 1323 0H983L434 653h-4V0H154v1458h276V803h4l549 655h340z"/><glyph glyph-name="L" unicode="L" horiz-adv-x="1036" d="M428 1458V250h516V0H154v1458h274z"/><glyph glyph-name="M" unicode="M" horiz-adv-x="2134" d="M1868 1458L2021 0h-276l-115 1075L1176-29H961L504 1077 389 0H113l155 1458h357l442-1075 442 1075h359z"/><glyph glyph-name="N" unicode="N" horiz-adv-x="1652" d="M1499 1458V0h-264L428 1022V0H154v1458h266l807-1028v1028h272z"/><glyph glyph-name="O" unicode="O" horiz-adv-x="1714" d="M858 1489q117 0 228-31.5t208-95.5 170.5-153.5 115.5-213 42-266.5-42-266.5T1464.5 250 1294 97.5t-208-95T858-29 629.5 2.5t-209 95-171 152.5T134 462.5 92 729t42 266.5 115.5 213 171 153.5 209 95.5T858 1489zm0-250q-91 0-177-33.5T525.5 1110t-112-161T371 729q0-120 42.5-218.5t112-160.5T681 254.5 858 221q90 0 175.5 33.5t155 95.5 112 160.5T1343 729q0 121-42.5 220t-112 161-155 95.5T858 1239z"/><glyph glyph-name="P" unicode="P" horiz-adv-x="1167" d="M154 1458h493q182 0 310-128.5t128-311.5q0-182-128.5-310T647 580H424V0H154v1458zm446-229H424V809h176q88 0 149.5 61.5T811 1020q0 86-61.5 147.5T600 1229z"/><glyph glyph-name="Q" unicode="Q" horiz-adv-x="1738" d="M852 1489q117 0 228-31.5t208-95.5 170.5-153.5 115.5-213 42-266.5q0-258-137-448L1747 0h-354l-103 98Q1095-29 852-29 735-29 623.5 2.5t-209 95-171 152.5T128 462.5 86 729t42 266.5 115.5 213 171 153.5 209 95.5T852 1489zm0-250q-91 0-177-33.5T519.5 1110t-112-161T365 729q0-120 42.5-218.5t112-160.5T675 254.5 852 221q90 0 175.5 33.5t155 95.5 112 160.5T1337 729q0 121-42.5 220t-112 161-155 95.5T852 1239z"/><glyph glyph-name="R" unicode="R" horiz-adv-x="1222" d="M154 1458h493q182 0 310-128.5t128-311.5q0-151-92.5-267.5T758 598L1202 0H889L471 584h-47V0H154v1458zm446-229H424V809h176q88 0 149.5 61.5T811 1020q0 86-61.5 147.5T600 1229z"/><glyph glyph-name="S" unicode="S" horiz-adv-x="1114" d="M551 1479q221 0 403-121v-250q-88 60-191 98.5T575 1245q-98 0-152-50.5T369 1063q0-76 56-125.5T616 840q39-14 59-21.5t59.5-24 62-29.5 56.5-34.5 54-42.5 44-51 36.5-62 21.5-73.5 9-87.5q0-194-132-316.5T530-25Q305-25 115 90v250q93-59 199.5-94T508 211q108 0 169.5 55.5T739 410q0 77-52.5 115.5T489 614q-45 15-73.5 26T341 673t-76.5 43.5-66 56T142 845t-35.5 91.5T92 1051q0 191 124 309.5T551 1479z"/><glyph glyph-name="T" unicode="T" horiz-adv-x="1105" d="M1044 1458v-244H692V0H414v1214H61v244h983z"/><glyph glyph-name="U" unicode="U" horiz-adv-x="1478" d="M1335 1458V565q0-171-80-308.5T1039 44 739-31 439 44 223 256.5 143 565v893h275l2-915q0-138 92.5-229T739 223t227 91 93 229l2 915h274z"/><glyph glyph-name="V" unicode="V" horiz-adv-x="1400" d="M1360 1458L844 0H557L41 1458h291L700 395l369 1063h291z"/><glyph glyph-name="W" unicode="W" horiz-adv-x="2379" d="M1307 1464l387-1097 334 1091h301L1845 0h-293l-368 1047L817 0H524L41 1458h301L676 367l387 1097h244z"/><glyph glyph-name="X" unicode="X" horiz-adv-x="1413" d="M1331 1458L868 774 1393 0h-332L707 541 346 0H16l525 774-463 684h330l299-452 294 452h330z"/><glyph glyph-name="Y" unicode="Y" horiz-adv-x="1327" d="M1323 1458L801 664V0H526v664L4 1458h315l345-536 344 536h315z"/><glyph glyph-name="Z" unicode="Z" horiz-adv-x="1236" d="M1130 1458v-196L459 244h671V0H106v197l672 1017H106v244h1024z"/><glyph glyph-name="bracketleft" unicode="[" horiz-adv-x="712" d="M651 1577v-193H356V-90h295v-193H145v1860h506z"/><glyph glyph-name="backslash" unicode="\" horiz-adv-x="1105" d="M238 1567L1083-18H868L23 1567h215z"/><glyph glyph-name="bracketright" unicode="]" horiz-adv-x="712" d="M567 1577V-283H61v193h295v1474H61v193h506z"/><glyph glyph-name="asciicircum" unicode="^" horiz-adv-x="1470" d="M860 1458l430-854h-258l-297 592-295-592H180l430 854h250z"/><glyph glyph-name="underscore" unicode="_" horiz-adv-x="1169" d="M1120 0v-190H49V0h1071z"/><glyph glyph-name="grave" unicode="`" horiz-adv-x="1228" d="M526 1513l152-294H543l-314 294h297z"/><glyph glyph-name="a" unicode="a" horiz-adv-x="1122" d="M563 1102q206 0 325.5-104T1008 684V0H840l-74 127Q714 52 629.5 12.5T442-27q-169 0-274 95T63 305q0 117 77 195.5T371 612l254 56q59 13 86.5 35t27.5 67q0 67-52 100t-132 33q-91 0-145-42.5T356 745H104q6 161 130 259t329 98zm182-674v76q-43-8-131-23.5T483 457q-168-28-168-148 0-67 48-106t122-39q105 0 182.5 71.5T745 428z"/><glyph glyph-name="b" unicode="b" horiz-adv-x="1284" d="M418 1569V965h4q48 63 128.5 99t178.5 36q144 0 255.5-78T1154 817t58-280-58-281T984 49.5 727-29q-110 0-194.5 44.5T406 137L326 0H150v1569h268zm260-695q-127 0-195.5-96.5T414 537q0-146 69-243t195-97q127 0 195.5 96.5T942 537q0 145-68.5 241T678 874z"/><glyph glyph-name="c" unicode="c" horiz-adv-x="1050" d="M633 1100q174 0 317-82V778q-135 96-282 96t-240-96q-90-93-90-243 0-152 92-244 94-94 238-94 147 0 282 96V53Q807-29 633-29q-156 0-283 70T148.5 241.5 74 537t74 294 201 199 284 70z"/><glyph glyph-name="d" unicode="d" horiz-adv-x="1286" d="M1137 1569V0H961l-80 137Q839 61 754.5 16T559-29q-145 0-257 78.5T132 256 74 537t58 280 169.5 205 255.5 78q98 0 178.5-36T864 965h4v604h269zM608 874q-127 0-195.5-96T344 537q0-147 68.5-243.5T608 197q126 0 195 97t69 243q0 144-68.5 240.5T608 874z"/><glyph glyph-name="e" unicode="e" horiz-adv-x="1187" d="M596 1100q231 0 375.5-151T1116 541q0-34-4-84H326q16-126 85.5-201.5T598 180q82 0 139.5 37.5T825 324h262q-52-170-182-261.5T598-29q-231 0-378.5 148T72 532q0 264 147 416t377 152zm2-211q-110 0-178-65.5T328 641h534q-20 114-86.5 181T598 889z"/><glyph glyph-name="f" unicode="f" horiz-adv-x="794" d="M559 1595q94 0 186-28v-215q-73 24-127 24-143 0-143-135v-170h262V850H475V0H209v850H84v221h125v186q0 154 93.5 246t256.5 92z"/><glyph glyph-name="g" unicode="g" horiz-adv-x="1214" d="M549 1096q45 0 159.5-12.5T909 1071h258V854H989q37-70 37-166 0-129-66-224T787 322.5 549 276q-88 0-174 25-37-30-37-74 0-19 7-33t25-24.5 32-17 46.5-12.5 49.5-8.5 59-8.5q52-7 84-12t78.5-14T795 79.5 861.5 57 922 27.5t47.5-38 38-48.5 22-60 8.5-74q0-166-130.5-249.5T559-526q-240 0-432 102v215q211-123 440-123 217 0 217 115 0 28-13.5 48T730-137t-54.5 18.5T606-106q-11 2-67.5 9.5t-80 11-67 11.5T317-56.5 260-35q-58 26-92.5 75T133 158q0 128 107 204Q72 477 72 686q0 128 66 222.5t173 141 238 46.5zm0-199q-97 0-159-57t-62-154q0-96 62-152.5T549 477t159 56.5T770 686q0 97-62 154t-159 57z"/><glyph glyph-name="h" unicode="h" horiz-adv-x="1234" d="M418 1569V954q50 73 131.5 110.5T729 1102q177 0 284-115.5T1120 678V0H850v604q0 266-197 266-67 0-115.5-29t-74-78.5-36.5-102T416 549V0H150v1569h268z"/><glyph glyph-name="i" unicode="i" horiz-adv-x="561" d="M416 1071V0H145v1071h271zm2 406v-232H143v232h275z"/><glyph glyph-name="j" unicode="j" horiz-adv-x="563" d="M428 1071V-182q0-153-93.5-245.5T82-520q-70 0-145 16v213q45-10 90-10 63 0 99 35.5t36 99.5v1237h266zm2 406v-232H160v232h270z"/><glyph glyph-name="k" unicode="k" horiz-adv-x="1177" d="M420 1569V571l416 500h321L713 541 1174 0H838L420 496V0H154v1569h266z"/><glyph glyph-name="l" unicode="l" horiz-adv-x="573" d="M420 1569V0H154v1569h266z"/><glyph glyph-name="m" unicode="m" horiz-adv-x="1921" d="M1432 1102q173 0 273.5-113.5T1806 682V0h-272v594q0 276-199 276-53 0-94.5-21t-66-53.5-40-77-21-86-5.5-85.5V0H840v594q0 276-199 276-53 0-94.5-21t-66-53.5-40-77-21-86T414 547V0H141v1071h203l78-137q62 88 139 128t178 40q234 0 338-193 55 97 150.5 145t204.5 48z"/><glyph glyph-name="n" unicode="n" horiz-adv-x="1236" d="M739 1100q190 0 286.5-118t96.5-318V0H852v590q0 47-3.5 83.5t-16 76.5-33 66.5T742 860t-87 17q-72 0-122-32t-74.5-87T424 645.5 414 520V0H143v1071h203l78-139q105 168 315 168z"/><glyph glyph-name="o" unicode="o" horiz-adv-x="1271" d="M635 1100q155 0 282-65.5T1121 839t77-304-77.5-304-204-195T635-29Q520-29 418.5 9.5T240 118.5t-121.5 178T74 535q0 174 77 304t203.5 195.5T635 1100zm0-226q-136 0-216.5-93.5T338 537q0-153 80.5-247.5T635 195q139 0 220 94.5T936 537q0 150-81 243.5T635 874z"/><glyph glyph-name="p" unicode="p" horiz-adv-x="1286" d="M727 1100q145 0 257-78.5t170-206 58-280.5-58-280.5T984.5 49 729-29q-98 0-178.5 36T422 106h-4v-604H150v1569h176l80-137q42 77 126.5 121.5T727 1100zm-49-226q-126 0-195-96.5T414 535q0-144 68.5-241T678 197t195.5 96.5T942 535q0 147-68.5 243T678 874z"/><glyph glyph-name="q" unicode="q" horiz-adv-x="1292" d="M565 1100q111 0 195.5-45T887 934l80 137h176V-498H874v604h-4Q822 43 741.5 7T563-29q-144 0-255.5 78T138 254.5 80 535t58 280.5 170 206 257 78.5zm49-226q-127 0-195.5-96T350 535q0-145 68.5-241.5T614 197t196 97 69 241q0 146-69.5 242.5T614 874z"/><glyph glyph-name="r" unicode="r" horiz-adv-x="800" d="M686 1094q45 0 84-15V829q-52 19-98 19-110 0-183-92t-73-277V0H141v1071h174l97-166q42 93 113 141t161 48z"/><glyph glyph-name="s" unicode="s" horiz-adv-x="933" d="M463 1102q170 0 330-88V797Q613 899 483 899q-70 0-109.5-28T334 786q0-56 42.5-85T535 635q39-13 62.5-21t62-25 63-33 54-42 46-54.5 28-68T862 307q0-152-110.5-244T455-29q-198 0-351 90v220q179-107 334-107 77 0 119.5 30.5T600 293q0 25-9.5 45t-22 32.5T525 397t-53.5 21.5T399 442q-49 15-82.5 28t-84 42-82 62-55 87T72 780q0 146 104.5 234t286.5 88z"/><glyph glyph-name="t" unicode="t" horiz-adv-x="790" d="M457 1343v-272h256V854H457V328q0-135 143-135 54 0 127 24V0q-95-29-186-29-163 0-257 92t-94 246v545H41v205h61q48 0 76.5 28.5T207 1165v178h250z"/><glyph glyph-name="u" unicode="u" horiz-adv-x="1189" d="M1069 1071l-2-653q0-196-130-321.5T594-29 251 96.5 121 418v653h266V459q0-37 5-70t19.5-68 37-59.5 60-40.5 85.5-16q60 0 103 23t65 62.5 31.5 80.5 9.5 88v612h266z"/><glyph glyph-name="v" unicode="v" horiz-adv-x="1161" d="M1159 1071L672-10H487L0 1071h272l308-698 307 698h272z"/><glyph glyph-name="w" unicode="w" horiz-adv-x="1878" d="M1036 1077l299-676 277 670h270L1430-10h-173L940 705 621-10H449L-4 1071h270l277-670 299 676h194z"/><glyph glyph-name="x" unicode="x" horiz-adv-x="1173" d="M1110 1071L743 580 1176 0H862L588 383 313 0H-2l434 580-369 491h312l213-297 211 297h311z"/><glyph glyph-name="y" unicode="y" horiz-adv-x="1177" d="M1171 1071L469-498H195L457 88 14 1071h271l307-694 309 694h270z"/><glyph glyph-name="z" unicode="z" horiz-adv-x="1026" d="M924 1071V907L438 219h480V0H102v164l486 688H109v219h815z"/><glyph glyph-name="braceleft" unicode="{" horiz-adv-x="872" d="M737 1585v-203h-35q-33 0-55-1t-41.5-7.5-31-12-21-22-14-31-7.5-45-4-56.5-2-74q-1-53-2-77.5t-2.5-65.5-4.5-59.5-7.5-50-11-46.5-16.5-39-22.5-39-29.5-34.5-37.5-36T346 651q37-26 63.5-51t45.5-47.5 31.5-55.5 20-58 11.5-74 5-85l3-108 1.5-61.5 3-50 4.5-42 7-31.5 11-25.5 16.5-17 21.5-13 28.5-6.5 36.5-4.5 46-.5h35v-203h-80q-188 0-268 86T309 78v160q0 164-53.5 234T88 547v209q114 5 167.5 74.5T309 1063v162q0 188 80.5 274t267.5 86h80z"/><glyph glyph-name="bar" unicode="|" horiz-adv-x="978" d="M594 1573V-279H385v1852h209z"/><glyph glyph-name="braceright" unicode="}" horiz-adv-x="872" d="M135 1585h80q187 0 267.5-86t80.5-274v-162q0-163 53.5-232.5T784 756V547q-114-5-167.5-75T563 238V78q0-189-80-275t-268-86h-80v203h35q44 0 70.5 2.5T288-63t31 25 16.5 47.5 8 66.5 2.5 96q1 65 2 94.5t4.5 76.5 8 68.5 13.5 55 21 52 31 43.5 43 45.5 57 43.5q-32 23-56 43t-43 44.5-31 43-21.5 51-14 55.5-7.5 69-4.5 79-2.5 97q-1 48-2 74t-4 56.5-7.5 45-14 31-21 22-31 12-41.5 7.5-55 1h-35v203z"/><glyph glyph-name="asciitilde" unicode="~" horiz-adv-x="1519" d="M514 924q59 0 115.5-18T780 846q101-45 149.5-61.5T1026 768q66 0 131 34.5T1315 918V688q-143-143-297-143-113 0-277 76-63 29-95.5 42.5t-74.5 25-77 11.5q-64 0-127.5-35T205 547v233q92 76 164 110t145 34z"/><glyph glyph-name="exclamdown" unicode="¡" horiz-adv-x="704" d="M440 588l62-604v-371H215v373l61 602h164zm-88 512q66 0 114-48t48-114-48-113-114-47-114 47-48 113 48 114 114 48z"/><glyph glyph-name="cent" unicode="¢" horiz-adv-x="1230" d="M874 1460l-26-184q89-19 170-66V971q-89 66-203 88l-96-670h22q69 0 143.5 26.5T1018 485V246q-143-82-309-82h-23L662 2H516l27 182q-182 48-292 193.5T141 729q0 249 159 405t405 158l24 168h145zM578 426l94 635q-103-18-172-90-41-43-65.5-107T410 727q0-72 24.5-136.5T502 483q34-34 76-57z"/><glyph glyph-name="sterling" unicode="£" horiz-adv-x="1247" d="M725 1491q159 0 322-82v-250q-154 94-293 94-82 0-130.5-45T575 1063V858h334V625H578V236h536V0H309v625H119v233h190v219q0 133 56.5 228t149 140.5T725 1491z"/><glyph glyph-name="currency" unicode="¤" horiz-adv-x="1447" d="M295 1266l119-119q137 102 315 102 179 0 313-102l111 108 117-114-111-109q105-138 105-313t-105-316l111-112-115-117-113 113Q907 184 729 184q-177 0-315 103L303 174 190 293l107 110Q197 545 197 719t100 313l-119 119zm432-230q-132 0-225.5-93.5T408 717t93.5-226T727 397t226 94 94 226-94 225.5-226 93.5z"/><glyph glyph-name="yen" unicode="¥" horiz-adv-x="1421" d="M1370 1458L918 768h315V580H848V418h385V229H848V0H573v229H190v189h383v162H190v188h314L51 1458h316l344-536 344 536h315z"/><glyph glyph-name="brokenbar" unicode="¦" horiz-adv-x="978" d="M594 1573V899H385v674h209zm0-1178v-674H385v674h209z"/><glyph glyph-name="section" unicode="§" horiz-adv-x="1165" d="M582 1483q179 0 348-94v-222q-190 109-328 109-77 0-124.5-32.5T430 1139q0-30 11-54.5t25.5-40.5 45-32 54-25 67.5-24l18-6q147-50 211-93 139-91 139-256 0-170-133-270 133-89 133-252 0-157-118-257.5T565-272q-207 0-368 96V51Q380-63 551-63q87 0 135.5 36T735 78q0 34-11 57.5t-45.5 43-60 29T526 238q-24 8-37 12-45 15-78.5 28.5T327 323t-82.5 67.5-56.5 97T164 621q0 156 123 251-53 41-88 112t-35 157q0 153 112 247.5t306 94.5zm-27-731q-125-23-125-136 0-57 35.5-92T578 459q72 7 114.5 40.5T735 598q0 63-40.5 92T555 752z"/><glyph glyph-name="dieresis" unicode="¨" horiz-adv-x="1228" d="M838 1509q61 0 103-42.5t42-102.5-42-101.5-103-41.5q-59 0-101.5 41.5T694 1364t42.5 102.5T838 1509zm-445 0q60 0 102-42.5t42-102.5-42-101.5-102-41.5q-61 0-103 41.5T248 1364t42 102.5 103 42.5z"/><glyph glyph-name="copyright" unicode="©" horiz-adv-x="2029" d="M1014 1438q167 0 319-65t262-174.5T1770 937t65-319-65-318.5-175-261T1333-136t-319-65-318.5 65-261 174.5-174.5 261T195 618t65 319 174.5 261.5 261 174.5 318.5 65zm30-404q131 0 222-55V811q-96 66-213 66-111 0-189-69t-78-192 78-191.5 189-68.5q117 0 213 66V252q-92-53-222-53-118 0-216 49T669 393.5 608 616t61 222.5 159 146 216 49.5zm-30 232q-132 0-251.5-51.5t-205.5-138T420 870t-51-252q0-176 86-325T689.5 57.5 1014-29t325 86.5T1574.5 293t86.5 325q0 132-51 252t-137.5 206.5-206.5 138-252 51.5z"/><glyph glyph-name="guillemotleft" unicode="«" horiz-adv-x="1476" d="M1313 975L993 528l320-446h-283L709 528l321 447h283zm-545 0L451 528 768 82H487L164 528l323 447h281z"/><glyph glyph-name="logicalnot" unicode="¬" horiz-adv-x="1585" d="M1405 1081V360h-219l2 504H180v217h1225z"/><glyph glyph-name="registered" unicode="®" horiz-adv-x="1955" d="M977 1438q167 0 319-65t262-174.5T1733 937t65-319-65-318.5-175-261T1296-136t-319-65-318.5 65-261 174.5-174.5 261T158 618t65 319 174.5 261.5 261 174.5 318.5 65zm0-172q-132 0-251.5-51.5t-205.5-138T383 870t-51-252q0-176 86-325T652.5 57.5 977-29t325 86.5T1537.5 293t86.5 325q0 132-51 252t-137.5 206.5-206.5 138-252 51.5zm-264-252h315q100 0 171-71t71-173q0-82-49-146t-131-87l253-318h-206L901 530h-10V219H711zm278-137H889V666h102q43 0 74 31t31 73q0 43-31 75t-74 32z"/><glyph glyph-name="macron" unicode="¯" horiz-adv-x="1228" d="M971 1464v-196H258v196h713z"/><glyph glyph-name="degree" unicode="°" horiz-adv-x="872" d="M436 1788q135 0 231.5-96.5T764 1460q0-134-96.5-230.5T436 1133t-231 96.5-96 230.5q0 135 96 231.5t231 96.5zm0-166q-68 0-114-46.5T276 1460q0-67 47-114.5t113-47.5 112 46.5 46 115.5q0 68-46 115t-112 47z"/><glyph glyph-name="plusminus" unicode="±" horiz-adv-x="1380" d="M799 1337v-327l377-2V817H799V487l-217 2v328H205v193h377v327h217zM205 313l971-2V121H205v192z"/><glyph glyph-name="acute" unicode="´" horiz-adv-x="1228" d="M1004 1513l-314-294H555l152 294h297z"/><glyph glyph-name="paragraph" unicode="¶" horiz-adv-x="1241" d="M1159 1458v-203h-127V-84H829v1339H653V-84H455v793q-149 8-253 116.5T98 1083q0 154 110 264.5T473 1458h686z"/><glyph glyph-name="periodcentered" unicode="·" horiz-adv-x="620" d="M309 772q72 0 123-50.5T483 600q0-73-51-124.5T309 424t-123 51.5T135 600q0 71 51 121.5T309 772z"/><glyph glyph-name="cedilla" unicode="¸" horiz-adv-x="1228" d="M670 4l-56-80q6 0 15 1t18 1q60 0 105-37t45-104q0-76-60.5-118T584-375q-96 0-183 37l39 88q82-29 121-29 35 0 56.5 14.5T639-219q0 51-66 51-31 0-63-14l-45 39L559 4h111z"/><glyph glyph-name="guillemotright" unicode="»" horiz-adv-x="1458" d="M977 975l317-438L977 98H700l312 439-312 438h277zm-535 0l316-438L442 98H164l313 439-313 438h278z"/><glyph glyph-name="questiondown" unicode="¿" horiz-adv-x="1058" d="M719 618V375L475 119q-49-53-71.5-94.5T381-61q0-65 45-105.5T541-207q81 0 126 54t42 139h229q6-174-102-289T537-418q-177 0-285.5 98.5T143-66q0 99 48 179t157 194l141 150v161h230zm-113 482q66 0 114-48t48-114-48-113-114-47-114 47-48 113 48 114 114 48z"/><glyph glyph-name="Agrave" unicode="À" horiz-adv-x="1449" d="M868 1458L1419 0h-291L997 348H453L319 0H31l551 1458h286zm-143-364L537 578h376zm-90 841l151-295H651l-313 295h297z"/><glyph glyph-name="Aacute" unicode="Á" horiz-adv-x="1449" d="M868 1458L1419 0h-291L997 348H453L319 0H31l551 1458h286zm-143-364L537 578h376zm385 841l-313-295H662l151 295h297z"/><glyph glyph-name="Acircumflex" unicode="Â" horiz-adv-x="1449" d="M868 1458L1419 0h-291L997 348H453L319 0H31l551 1458h286zm-143-364L537 578h376zm137 841l240-295H870l-141 168-149-168H348l248 295h266z"/><glyph glyph-name="Atilde" unicode="Ã" horiz-adv-x="1449" d="M868 1458L1419 0h-291L997 348H453L319 0H31l551 1458h286zm-143-364L537 578h376zm250 829h115q-6-127-63.5-201.5T877 1647q-51 0-113 26t-116 52-87 26q-37 0-62.5-27t-33.5-73H354q10 132 70 202t147 70q51 0 110.5-26t112.5-52 89-26q71 0 92 104z"/><glyph glyph-name="Adieresis" unicode="Ä" horiz-adv-x="1449" d="M868 1458L1419 0h-291L997 348H453L319 0H31l551 1458h286zm-143-364L537 578h376zm221 837q61 0 103.5-42.5T1092 1786t-42.5-102-103.5-42q-59 0-101 42t-42 102 42 102.5 101 42.5zm-444 0q60 0 101.5-42.5T645 1786t-41.5-102-101.5-42q-61 0-103.5 42T356 1786t42.5 102.5T502 1931z"/><glyph glyph-name="Aring" unicode="Å" horiz-adv-x="1449" d="M868 1458L1419 0h-291L997 348H453L319 0H31l551 1458h286zm-143-364L537 578h376zm-2 913q92 0 156.5-65.5T944 1786q0-91-64.5-156T723 1565q-91 0-156 65t-65 156q0 90 65.5 155.5T723 2007zm0-121q-42 0-71-29t-29-71q0-43 28.5-71.5T723 1686q42 0 71 29t29 71q0 41-29.5 70.5T723 1886z"/><glyph glyph-name="AE" unicode="Æ" horiz-adv-x="2002" d="M1886 1458v-244h-536V877h489V637h-489V244h536V0h-809v348H528L283 0H-51L975 1458h911zm-809-328L688 578h389v552z"/><glyph glyph-name="Ccedilla" unicode="Ç" horiz-adv-x="1406" d="M877 1487q228 0 413-103v-256q-79 51-183.5 84T897 1245q-103 0-196-33.5T534 1115 416.5 952.5 373 731t43.5-221.5T534 347t167-96.5T897 217q105 0 209.5 33t183.5 84V78Q1105-25 877-25q-158 0-300 52.5T327 175 155.5 414 92 731t63.5 317T327 1287t250 147.5 300 52.5zM950 4l-55-80q5 0 15 1t18 1q60 0 104.5-37t44.5-104q0-76-60.5-118T864-375q-95 0-182 37l39 88q82-29 121-29 35 0 56.5 14.5T920-219q0 51-66 51-32 0-63-14l-46 39L840 4h110z"/><glyph glyph-name="Egrave" unicode="È" horiz-adv-x="1085" d="M963 1458v-244H426V877h489V637H426V244h537V0H154v1458h809zm-480 477l152-295H500l-314 295h297z"/><glyph glyph-name="Eacute" unicode="É" horiz-adv-x="1085" d="M963 1458v-244H426V877h489V637H426V244h537V0H154v1458h809zm-5 477l-313-295H510l152 295h296z"/><glyph glyph-name="Ecircumflex" unicode="Ê" horiz-adv-x="1085" d="M963 1458v-244H426V877h489V637H426V244h537V0H154v1458h809zm-252 477l239-295H719l-141 168-150-168H197l247 295h267z"/><glyph glyph-name="Edieresis" unicode="Ë" horiz-adv-x="1085" d="M963 1458v-244H426V877h489V637H426V244h537V0H154v1458h809zm-168 473q61 0 103-42.5t42-102.5-42-102-103-42q-59 0-101.5 42T651 1786t42.5 102.5T795 1931zm-445 0q60 0 102-42.5t42-102.5-42-102-102-42q-61 0-103 42t-42 102 42 102.5 103 42.5z"/><glyph glyph-name="Igrave" unicode="Ì" horiz-adv-x="606" d="M442 1458V0H164v1458h278zm-225 477l152-295H233l-313 295h297z"/><glyph glyph-name="Iacute" unicode="Í" horiz-adv-x="606" d="M442 1458V0H164v1458h278zm250 477l-313-295H244l151 295h297z"/><glyph glyph-name="Icircumflex" unicode="Î" horiz-adv-x="606" d="M442 1458V0H164v1458h278zm2 477l240-295H453l-142 168-149-168H-70l248 295h266z"/><glyph glyph-name="Idieresis" unicode="Ï" horiz-adv-x="606" d="M442 1458V0H164v1458h278zm86 473q61 0 103.5-42.5T674 1786t-42.5-102-103.5-42q-59 0-101 42t-42 102 42 102.5 101 42.5zm-444 0q60 0 101.5-42.5T227 1786t-41.5-102T84 1642q-61 0-103 42t-42 102 42 102.5T84 1931z"/><glyph glyph-name="Eth" unicode="Ð" horiz-adv-x="1542" d="M205 1458h520q207 0 373-91t262-258 96-380-96-380-262.5-258T725 0H205v629H61v202h144v627zm504-244H483V831h324V629H483V244h226q201 0 335 134t134 349q0 216-134 351.5T709 1214z"/><glyph glyph-name="Ntilde" unicode="Ñ" horiz-adv-x="1652" d="M1499 1458V0h-264L428 1022V0H154v1458h266l807-1028v1028h272zm-403 465h114q-6-127-63.5-201.5T997 1647q-51 0-112.5 26T769 1725t-87 26q-37 0-62.5-27t-33.5-73H475q10 132 70 202t147 70q51 0 110.5-26t112.5-52 89-26q71 0 92 104z"/><glyph glyph-name="Ograve" unicode="Ò" horiz-adv-x="1714" d="M858 1489q117 0 228-31.5t208-95.5 170.5-153.5 115.5-213 42-266.5-42-266.5T1464.5 250 1294 97.5t-208-95T858-29 629.5 2.5t-209 95-171 152.5T134 462.5 92 729t42 266.5 115.5 213 171 153.5 209 95.5T858 1489zm0-250q-91 0-177-33.5T525.5 1110t-112-161T371 729q0-120 42.5-218.5t112-160.5T681 254.5 858 221q90 0 175.5 33.5t155 95.5 112 160.5T1343 729q0 121-42.5 220t-112 161-155 95.5T858 1239zm-88 696l152-295H786l-313 295h297z"/><glyph glyph-name="Oacute" unicode="Ó" horiz-adv-x="1714" d="M858 1489q117 0 228-31.5t208-95.5 170.5-153.5 115.5-213 42-266.5-42-266.5T1464.5 250 1294 97.5t-208-95T858-29 629.5 2.5t-209 95-171 152.5T134 462.5 92 729t42 266.5 115.5 213 171 153.5 209 95.5T858 1489zm0-250q-91 0-177-33.5T525.5 1110t-112-161T371 729q0-120 42.5-218.5t112-160.5T681 254.5 858 221q90 0 175.5 33.5t155 95.5 112 160.5T1343 729q0 121-42.5 220t-112 161-155 95.5T858 1239zm387 696l-313-295H797l151 295h297z"/><glyph glyph-name="Ocircumflex" unicode="Ô" horiz-adv-x="1714" d="M858 1489q117 0 228-31.5t208-95.5 170.5-153.5 115.5-213 42-266.5-42-266.5T1464.5 250 1294 97.5t-208-95T858-29 629.5 2.5t-209 95-171 152.5T134 462.5 92 729t42 266.5 115.5 213 171 153.5 209 95.5T858 1489zm0-250q-91 0-177-33.5T525.5 1110t-112-161T371 729q0-120 42.5-218.5t112-160.5T681 254.5 858 221q90 0 175.5 33.5t155 95.5 112 160.5T1343 729q0 121-42.5 220t-112 161-155 95.5T858 1239zm139 696l240-295h-231l-142 168-149-168H483l248 295h266z"/><glyph glyph-name="Otilde" unicode="Õ" horiz-adv-x="1714" d="M858 1489q117 0 228-31.5t208-95.5 170.5-153.5 115.5-213 42-266.5-42-266.5T1464.5 250 1294 97.5t-208-95T858-29 629.5 2.5t-209 95-171 152.5T134 462.5 92 729t42 266.5 115.5 213 171 153.5 209 95.5T858 1489zm0-250q-91 0-177-33.5T525.5 1110t-112-161T371 729q0-120 42.5-218.5t112-160.5T681 254.5 858 221q90 0 175.5 33.5t155 95.5 112 160.5T1343 729q0 121-42.5 220t-112 161-155 95.5T858 1239zm252 684h115q-6-127-63.5-201.5T1012 1647q-51 0-113 26t-116 52-87 26q-37 0-62.5-27t-33.5-73H489q10 131 70.5 201.5T707 1923q51 0 110.5-26t112-52 88.5-26q71 0 92 104z"/><glyph glyph-name="Odieresis" unicode="Ö" horiz-adv-x="1714" d="M858 1489q117 0 228-31.5t208-95.5 170.5-153.5 115.5-213 42-266.5-42-266.5T1464.5 250 1294 97.5t-208-95T858-29 629.5 2.5t-209 95-171 152.5T134 462.5 92 729t42 266.5 115.5 213 171 153.5 209 95.5T858 1489zm0-250q-91 0-177-33.5T525.5 1110t-112-161T371 729q0-120 42.5-218.5t112-160.5T681 254.5 858 221q90 0 175.5 33.5t155 95.5 112 160.5T1343 729q0 121-42.5 220t-112 161-155 95.5T858 1239zm223 692q61 0 103.5-42.5T1227 1786t-42.5-102-103.5-42q-59 0-101 42t-42 102 42 102.5 101 42.5zm-444 0q60 0 101.5-42.5T780 1786t-41.5-102-101.5-42q-61 0-103 42t-42 102 42 102.5 103 42.5z"/><glyph glyph-name="multiply" unicode="×" horiz-adv-x="1413" d="M1061 1235l156-154-357-358 357-354-156-154-356 354-355-356-153 156 356 354-356 358 153 154 355-354z"/><glyph glyph-name="Oslash" unicode="Ø" horiz-adv-x="1716" d="M1640 1493l-210-254q184-204 184-510 0-143-42-266.5T1456.5 250 1286 97.5t-208-95T850-29q-213 0-391 99L375-31H57l209 252Q84 426 84 729q0 143 42 266.5t115.5 213 171 153.5 209 95.5T850 1489q212 0 389-98l84 102h317zm-792-254q-90 0-175.5-33.5T517 1110 404.5 949 362 729q0-168 82-293l625 752q-108 51-221 51zm403-213L629 274q106-53 221-53 90 0 175.5 33.5t155 95.5 112 160.5T1335 729q0 165-84 297z"/><glyph glyph-name="Ugrave" unicode="Ù" horiz-adv-x="1478" d="M1335 1458V565q0-171-80-308.5T1039 44 739-31 439 44 223 256.5 143 565v893h275l2-915q0-138 92.5-229T739 223t227 91 93 229l2 915h274zm-684 477l152-295H668l-314 295h297z"/><glyph glyph-name="Uacute" unicode="Ú" horiz-adv-x="1478" d="M1335 1458V565q0-171-80-308.5T1039 44 739-31 439 44 223 256.5 143 565v893h275l2-915q0-138 92.5-229T739 223t227 91 93 229l2 915h274zm-209 477l-313-295H678l151 295h297z"/><glyph glyph-name="Ucircumflex" unicode="Û" horiz-adv-x="1478" d="M1335 1458V565q0-171-80-308.5T1039 44 739-31 439 44 223 256.5 143 565v893h275l2-915q0-138 92.5-229T739 223t227 91 93 229l2 915h274zm-456 477l239-295H887l-142 168-149-168H365l247 295h267z"/><glyph glyph-name="Udieresis" unicode="Ü" horiz-adv-x="1478" d="M1335 1458V565q0-171-80-308.5T1039 44 739-31 439 44 223 256.5 143 565v893h275l2-915q0-138 92.5-229T739 223t227 91 93 229l2 915h274zm-372 473q61 0 103-42.5t42-102.5-42-102-103-42q-59 0-101.5 42T819 1786t42.5 102.5T963 1931zm-445 0q60 0 102-42.5t42-102.5-42-102-102-42q-61 0-103 42t-42 102 42 102.5 103 42.5z"/><glyph glyph-name="Yacute" unicode="Ý" horiz-adv-x="1327" d="M1323 1458L801 664V0H526v664L4 1458h315l345-536 344 536h315zm-272 477l-314-295H602l152 295h297z"/><glyph glyph-name="Thorn" unicode="Þ" horiz-adv-x="1167" d="M422 1458v-282h225q119 0 220-59t159.5-160.5T1085 735q0-181-128.5-309.5T647 297H422V0H154v1458h268zm178-512H422V526h178q88 0 149.5 61.5T811 737q0 86-61.5 147.5T600 946z"/><glyph glyph-name="germandbls" unicode="ß" horiz-adv-x="1300" d="M616 1599q209 0 336-110t127-291q0-41-7.5-78t-17.5-64-30-54-32.5-42.5-39.5-36-37.5-28T876 871t-32-19q-41-25-41-53 0-16 10.5-29.5T858 739q19-10 54-26t62.5-29 64-33.5T1103 610t56.5-49 47-60.5T1237 427t12-89q0-158-116-262.5T825-29q-125 0-264 49v224q145-62 244-62 81 0 128.5 39T981 330q0 31-11.5 58T943 432.5t-43.5 35-48 26.5-55 24.5T745 541q-85 39-132.5 91.5T565 770q0 34 9.5 64t18.5 47.5 34 42 34 31.5 41 32q52 41 80.5 82.5T811 1176q0 93-59 143.5T610 1370q-90 0-144-62.5T412 1128V0H139v1116q0 223 125.5 353T616 1599z"/><glyph glyph-name="agrave" unicode="à" horiz-adv-x="1122" d="M563 1102q206 0 325.5-104T1008 684V0H840l-74 127Q714 52 629.5 12.5T442-27q-169 0-274 95T63 305q0 117 77 195.5T371 612l254 56q59 13 86.5 35t27.5 67q0 67-52 100t-132 33q-91 0-145-42.5T356 745H104q6 161 130 259t329 98zm182-674v76q-43-8-131-23.5T483 457q-168-28-168-148 0-67 48-106t122-39q105 0 182.5 71.5T745 428zM467 1569l151-295H483l-313 295h297z"/><glyph glyph-name="aacute" unicode="á" horiz-adv-x="1122" d="M563 1102q206 0 325.5-104T1008 684V0H840l-74 127Q714 52 629.5 12.5T442-27q-169 0-274 95T63 305q0 117 77 195.5T371 612l254 56q59 13 86.5 35t27.5 67q0 67-52 100t-132 33q-91 0-145-42.5T356 745H104q6 161 130 259t329 98zm182-674v76q-43-8-131-23.5T483 457q-168-28-168-148 0-67 48-106t122-39q105 0 182.5 71.5T745 428zm197 1141l-313-295H494l151 295h297z"/><glyph glyph-name="acircumflex" unicode="â" horiz-adv-x="1122" d="M563 1102q206 0 325.5-104T1008 684V0H840l-74 127Q714 52 629.5 12.5T442-27q-169 0-274 95T63 305q0 117 77 195.5T371 612l254 56q59 13 86.5 35t27.5 67q0 67-52 100t-132 33q-91 0-145-42.5T356 745H104q6 161 130 259t329 98zm182-674v76q-43-8-131-23.5T483 457q-168-28-168-148 0-67 48-106t122-39q105 0 182.5 71.5T745 428zm-51 1141l240-295H702l-141 168-149-168H180l248 295h266z"/><glyph glyph-name="atilde" unicode="ã" horiz-adv-x="1122" d="M563 1102q206 0 325.5-104T1008 684V0H840l-74 127Q714 52 629.5 12.5T442-27q-169 0-274 95T63 305q0 117 77 195.5T371 612l254 56q59 13 86.5 35t27.5 67q0 67-52 100t-132 33q-91 0-145-42.5T356 745H104q6 161 130 259t329 98zm182-674v76q-43-8-131-23.5T483 457q-168-28-168-148 0-67 48-106t122-39q105 0 182.5 71.5T745 428zm62 1128h115q-6-127-63.5-201.5T709 1280q-51 0-113 26t-116 52-87 26q-37 0-62.5-27t-33.5-73H186q10 132 70 202t147 70q51 0 110.5-26t112.5-52 89-26q71 0 92 104z"/><glyph glyph-name="adieresis" unicode="ä" horiz-adv-x="1122" d="M563 1102q206 0 325.5-104T1008 684V0H840l-74 127Q714 52 629.5 12.5T442-27q-169 0-274 95T63 305q0 117 77 195.5T371 612l254 56q59 13 86.5 35t27.5 67q0 67-52 100t-132 33q-91 0-145-42.5T356 745H104q6 161 130 259t329 98zm182-674v76q-43-8-131-23.5T483 457q-168-28-168-148 0-67 48-106t122-39q105 0 182.5 71.5T745 428zm33 1137q61 0 103.5-43t42.5-103-42.5-101.5T778 1276q-59 0-101 41.5T635 1419t42 103 101 43zm-444 0q60 0 101.5-43t41.5-103-41.5-101.5T334 1276q-61 0-103.5 41.5T188 1419t42.5 103 103.5 43z"/><glyph glyph-name="aring" unicode="å" horiz-adv-x="1122" d="M563 1102q206 0 325.5-104T1008 684V0H840l-74 127Q714 52 629.5 12.5T442-27q-169 0-274 95T63 305q0 117 77 195.5T371 612l254 56q59 13 86.5 35t27.5 67q0 67-52 100t-132 33q-91 0-145-42.5T356 745H104q6 161 130 259t329 98zm182-674v76q-43-8-131-23.5T483 457q-168-28-168-148 0-67 48-106t122-39q105 0 182.5 71.5T745 428zM555 1640q92 0 156.5-65.5T776 1419q0-91-64.5-156T555 1198q-91 0-156 65t-65 156q0 90 65.5 155.5T555 1640zm0-120q-42 0-71-29.5t-29-71.5q0-43 28.5-71.5T555 1319q42 0 71 29t29 71q0 41-29.5 71t-70.5 30z"/><glyph glyph-name="ae" unicode="æ" horiz-adv-x="1845" d="M1257 1102q230 0 374.5-151T1776 539q0-57-4-86H989q18-123 87.5-195t183.5-72q162 0 229 144h258q-49-168-179-260.5T1257-23q-128 0-232 47.5T852 162q-38-54-88.5-93t-105-59T554-18.5 453-27q-180 0-285 94T63 303q0 121 78.5 198.5T371 612l254 56q59 13 86.5 35t27.5 67q0 67-52 100t-132 33q-91 0-145-42.5T356 745H104q6 161 130.5 259t328.5 98q231 0 346-127 142 127 348 127zM745 428v76q-43-8-131-23.5T483 457q-168-28-168-148 0-67 48-106t122-39q105 0 182.5 71.5T745 428zm515 463q-112 0-180-66.5T991 645h531q-18 114-84 180t-178 66z"/><glyph glyph-name="ccedilla" unicode="ç" horiz-adv-x="1050" d="M633 1100q174 0 317-82V778q-135 96-282 96t-240-96q-90-93-90-243 0-152 92-244 94-94 238-94 147 0 282 96V53Q807-29 633-29q-156 0-283 70T148.5 241.5 74 537t74 294 201 199 284 70zM713 4l-56-80q5 0 15 1t18 1q60 0 105-37t45-104q0-76-60.5-118T627-375q-96 0-183 37l39 88q82-29 121-29 35 0 56.5 14.5T682-219q0 51-66 51-32 0-63-14l-45 39L602 4h111z"/><glyph glyph-name="egrave" unicode="è" horiz-adv-x="1187" d="M596 1100q231 0 375.5-151T1116 541q0-34-4-84H326q16-126 85.5-201.5T598 180q82 0 139.5 37.5T825 324h262q-52-170-182-261.5T598-29q-231 0-378.5 148T72 532q0 264 147 416t377 152zm2-211q-110 0-178-65.5T328 641h534q-20 114-86.5 181T598 889zm-92 680l151-295H522l-313 295h297z"/><glyph glyph-name="eacute" unicode="é" horiz-adv-x="1187" d="M596 1100q231 0 375.5-151T1116 541q0-34-4-84H326q16-126 85.5-201.5T598 180q82 0 139.5 37.5T825 324h262q-52-170-182-261.5T598-29q-231 0-378.5 148T72 532q0 264 147 416t377 152zm2-211q-110 0-178-65.5T328 641h534q-20 114-86.5 181T598 889zm383 680l-313-295H532l152 295h297z"/><glyph glyph-name="ecircumflex" unicode="ê" horiz-adv-x="1187" d="M596 1100q231 0 375.5-151T1116 541q0-34-4-84H326q16-126 85.5-201.5T598 180q82 0 139.5 37.5T825 324h262q-52-170-182-261.5T598-29q-231 0-378.5 148T72 532q0 264 147 416t377 152zm2-211q-110 0-178-65.5T328 641h534q-20 114-86.5 181T598 889zm135 680l240-295H741l-141 168-149-168H219l248 295h266z"/><glyph glyph-name="edieresis" unicode="ë" horiz-adv-x="1187" d="M596 1100q231 0 375.5-151T1116 541q0-34-4-84H326q16-126 85.5-201.5T598 180q82 0 139.5 37.5T825 324h262q-52-170-182-261.5T598-29q-231 0-378.5 148T72 532q0 264 147 416t377 152zm2-211q-110 0-178-65.5T328 641h534q-20 114-86.5 181T598 889zm219 676q61 0 103.5-43t42.5-103-42.5-101.5T817 1276q-59 0-101 41.5T674 1419t42 103 101 43zm-444 0q60 0 101.5-43t41.5-103-41.5-101.5T373 1276q-61 0-103.5 41.5T227 1419t42.5 103 103.5 43z"/><glyph glyph-name="igrave" unicode="ì" horiz-adv-x="555" d="M412 1071V0H143v1071h269zm-222 498l152-295H207l-313 295h296z"/><glyph glyph-name="iacute" unicode="í" horiz-adv-x="555" d="M412 1071V0H143v1071h269zm254 498l-314-295H217l152 295h297z"/><glyph glyph-name="icircumflex" unicode="î" horiz-adv-x="555" d="M412 1071V0H143v1071h269zm6 498l239-295H426l-141 168-150-168H-96l248 295h266z"/><glyph glyph-name="idieresis" unicode="ï" horiz-adv-x="555" d="M412 1071V0H143v1071h269zm90 494q61 0 103-43t42-103-42-101.5-103-41.5q-59 0-101.5 41.5T358 1419t42.5 103 101.5 43zm-445 0q60 0 102-43t42-103-42-101.5T57 1276q-61 0-103 41.5T-88 1419t42 103 103 43z"/><glyph glyph-name="eth" unicode="ð" horiz-adv-x="1214" d="M623 1569l84-127 301 80v-164l-211-55q115-178 153-240 100-162 142.5-274t42.5-246q0-137-42.5-247t-116-180-169-107.5T602-29Q494-29 399 7T231 110.5 116 284 74 522q0 159 57.5 288T302 1017.5t263 78.5q26 0 62-4l-92 139-299-78v162l208 55-133 199h312zm-19-695q-125 0-195.5-91T338 535t70.5-248.5T604 195t195.5 91.5T870 535t-70.5 248T604 874z"/><glyph glyph-name="ntilde" unicode="ñ" horiz-adv-x="1236" d="M739 1100q190 0 286.5-118t96.5-318V0H852v590q0 47-3.5 83.5t-16 76.5-33 66.5T742 860t-87 17q-72 0-122-32t-74.5-87T424 645.5 414 520V0H143v1071h203l78-139q105 168 315 168zm166 456h115q-6-127-63.5-201.5T807 1280q-51 0-112.5 26T579 1358t-87 26q-37 0-63.5-27t-33.5-73H285q10 132 70 202t147 70q51 0 110.5-26t112-52 88.5-26q71 0 92 104z"/><glyph glyph-name="ograve" unicode="ò" horiz-adv-x="1271" d="M635 1100q155 0 282-65.5T1121 839t77-304-77.5-304-204-195T635-29Q520-29 418.5 9.5T240 118.5t-121.5 178T74 535q0 174 77 304t203.5 195.5T635 1100zm0-226q-136 0-216.5-93.5T338 537q0-153 80.5-247.5T635 195q139 0 220 94.5T936 537q0 150-81 243.5T635 874zm-88 695l151-295H563l-313 295h297z"/><glyph glyph-name="oacute" unicode="ó" horiz-adv-x="1271" d="M635 1100q155 0 282-65.5T1121 839t77-304-77.5-304-204-195T635-29Q520-29 418.5 9.5T240 118.5t-121.5 178T74 535q0 174 77 304t203.5 195.5T635 1100zm0-226q-136 0-216.5-93.5T338 537q0-153 80.5-247.5T635 195q139 0 220 94.5T936 537q0 150-81 243.5T635 874zm387 695l-313-295H573l152 295h297z"/><glyph glyph-name="ocircumflex" unicode="ô" horiz-adv-x="1271" d="M635 1100q155 0 282-65.5T1121 839t77-304-77.5-304-204-195T635-29Q520-29 418.5 9.5T240 118.5t-121.5 178T74 535q0 174 77 304t203.5 195.5T635 1100zm0-226q-136 0-216.5-93.5T338 537q0-153 80.5-247.5T635 195q139 0 220 94.5T936 537q0 150-81 243.5T635 874zm139 695l240-295H782l-141 168-149-168H260l248 295h266z"/><glyph glyph-name="otilde" unicode="õ" horiz-adv-x="1271" d="M635 1100q155 0 282-65.5T1121 839t77-304-77.5-304-204-195T635-29Q520-29 418.5 9.5T240 118.5t-121.5 178T74 535q0 174 77 304t203.5 195.5T635 1100zm0-226q-136 0-216.5-93.5T338 537q0-153 80.5-247.5T635 195q139 0 220 94.5T936 537q0 150-81 243.5T635 874zm252 682h114q-6-127-63.5-201.5T788 1280q-51 0-112.5 26T560 1358t-87 26q-37 0-62.5-27t-33.5-73H266q10 132 70 202t147 70q51 0 110.5-26t112.5-52 89-26q71 0 92 104z"/><glyph glyph-name="odieresis" unicode="ö" horiz-adv-x="1271" d="M635 1100q155 0 282-65.5T1121 839t77-304-77.5-304-204-195T635-29Q520-29 418.5 9.5T240 118.5t-121.5 178T74 535q0 174 77 304t203.5 195.5T635 1100zm0-226q-136 0-216.5-93.5T338 537q0-153 80.5-247.5T635 195q139 0 220 94.5T936 537q0 150-81 243.5T635 874zm223 691q61 0 103.5-43t42.5-103-42.5-101.5T858 1276q-59 0-101 41.5T715 1419t42 103 101 43zm-444 0q60 0 101.5-43t41.5-103-41.5-101.5T414 1276q-61 0-103.5 41.5T268 1419t42.5 103 103.5 43z"/><glyph glyph-name="divide" unicode="÷" horiz-adv-x="1585" d="M1405 834V614l-1225 2v218h1225zM786 387q63 0 107.5-44.5T938 238q0-64-44.5-108T786 86q-62 0-105.5 44T637 238q0 60 44 104.5T786 387zm0 977q63 0 107.5-43.5T938 1214q0-62-44.5-106.5T786 1063q-61 0-105 44.5T637 1214q0 63 43.5 106.5T786 1364z"/><glyph glyph-name="oslash" unicode="ø" horiz-adv-x="1271" d="M635 1100q172 0 305-80l43 51h227l-139-162q127-149 127-374 0-174-77.5-304t-204-195T635-29q-164 0-297 76L297 0H70l133 158Q74 306 74 535q0 174 77 304t203.5 195.5T635 1100zm266-391L492 229q61-34 143-34 139 0 220 94.5T936 537q0 97-35 172zM635 874q-136 0-216.5-93.5T338 537q0-106 37-179l409 480q-62 36-149 36z"/><glyph glyph-name="ugrave" unicode="ù" horiz-adv-x="1189" d="M1069 1071l-2-653q0-196-130-321.5T594-29 251 96.5 121 418v653h266V459q0-37 5-70t19.5-68 37-59.5 60-40.5 85.5-16q60 0 103 23t65 62.5 31.5 80.5 9.5 88v612h266zm-563 498l151-295H522l-313 295h297z"/><glyph glyph-name="uacute" unicode="ú" horiz-adv-x="1189" d="M1069 1071l-2-653q0-196-130-321.5T594-29 251 96.5 121 418v653h266V459q0-37 5-70t19.5-68 37-59.5 60-40.5 85.5-16q60 0 103 23t65 62.5 31.5 80.5 9.5 88v612h266zm-88 498l-313-295H532l152 295h297z"/><glyph glyph-name="ucircumflex" unicode="û" horiz-adv-x="1189" d="M1069 1071l-2-653q0-196-130-321.5T594-29 251 96.5 121 418v653h266V459q0-37 5-70t19.5-68 37-59.5 60-40.5 85.5-16q60 0 103 23t65 62.5 31.5 80.5 9.5 88v612h266zm-336 498l240-295H741l-141 168-149-168H219l248 295h266z"/><glyph glyph-name="udieresis" unicode="ü" horiz-adv-x="1189" d="M1069 1071l-2-653q0-196-130-321.5T594-29 251 96.5 121 418v653h266V459q0-37 5-70t19.5-68 37-59.5 60-40.5 85.5-16q60 0 103 23t65 62.5 31.5 80.5 9.5 88v612h266zm-252 494q61 0 103.5-43t42.5-103-42.5-101.5T817 1276q-59 0-101 41.5T674 1419t42 103 101 43zm-444 0q60 0 101.5-43t41.5-103-41.5-101.5T373 1276q-61 0-103.5 41.5T227 1419t42.5 103 103.5 43z"/><glyph glyph-name="yacute" unicode="ý" horiz-adv-x="1177" d="M1171 1071L469-498H195L457 88 14 1071h271l307-694 309 694h270zm-194 498l-313-295H528l152 295h297z"/><glyph glyph-name="thorn" unicode="þ" horiz-adv-x="1280" d="M418 1569V954q48 72 129.5 109t179.5 37q145 0 257-78t170-205 58-280-58-281.5T984.5 49 729-29q-98 0-178.5 36T422 106h-4v-604H150v2067h268zm260-695q-126 0-195-96.5T414 535q0-144 68.5-241T678 197t195.5 96.5T942 535q0 147-68.5 243T678 874z"/><glyph glyph-name="ydieresis" unicode="ÿ" horiz-adv-x="1177" d="M1171 1071L469-498H195L457 88 14 1071h271l307-694 309 694h270zm-358 494q61 0 103-43t42-103-42-101.5-103-41.5q-59 0-101 41.5T670 1419t42 103 101 43zm-444 0q60 0 101.5-43t41.5-103-41.5-101.5T369 1276q-61 0-103.5 41.5T223 1419t42.5 103 103.5 43z"/><glyph glyph-name="Amacron" unicode="Ā" horiz-adv-x="1449" d="M868 1458L1419 0h-291L997 348H453L319 0H31l551 1458h286zm-143-364L537 578h376zm354 792v-196H367v196h712z"/><glyph glyph-name="amacron" unicode="ā" horiz-adv-x="1122" d="M563 1102q206 0 325.5-104T1008 684V0H840l-74 127Q714 52 629.5 12.5T442-27q-169 0-274 95T63 305q0 117 77 195.5T371 612l254 56q59 13 86.5 35t27.5 67q0 67-52 100t-132 33q-91 0-145-42.5T356 745H104q6 161 130 259t329 98zm182-674v76q-43-8-131-23.5T483 457q-168-28-168-148 0-67 48-106t122-39q105 0 182.5 71.5T745 428zm166 1092v-197H199v197h712z"/><glyph glyph-name="Abreve" unicode="Ă" horiz-adv-x="1449" d="M868 1458L1419 0h-291L997 348H453L319 0H31l551 1458h286zm-143-364L537 578h376zm223 841h144q-16-141-108.5-221T723 1634t-260.5 80T354 1935h142q38-143 227-143 190 0 225 143z"/><glyph glyph-name="abreve" unicode="ă" horiz-adv-x="1122" d="M563 1102q206 0 325.5-104T1008 684V0H840l-74 127Q714 52 629.5 12.5T442-27q-169 0-274 95T63 305q0 117 77 195.5T371 612l254 56q59 13 86.5 35t27.5 67q0 67-52 100t-132 33q-91 0-145-42.5T356 745H104q6 161 130 259t329 98zm182-674v76q-43-8-131-23.5T483 457q-168-28-168-148 0-67 48-106t122-39q105 0 182.5 71.5T745 428zm35 1141h144q-16-141-108.5-221T555 1268t-260.5 80T186 1569h142q38-144 227-144t225 144z"/><glyph glyph-name="Aogonek" unicode="Ą" horiz-adv-x="1449" d="M868 1458L1419 0h-291L997 348H453L319 0H31l551 1458h286zm-143-364L537 578h376zM1149 12h96q-16-46-16-92 0-64 32-95.5t87-31.5q28 0 73 10v-137q-63-26-129-26-88 0-146.5 49.5T1087-164q0 102 62 176z"/><glyph glyph-name="aogonek" unicode="ą" horiz-adv-x="1122" d="M563 1102q206 0 325.5-104T1008 684V0H840l-74 127Q714 52 629.5 12.5T442-27q-169 0-274 95T63 305q0 117 77 195.5T371 612l254 56q59 13 86.5 35t27.5 67q0 67-52 100t-132 33q-91 0-145-42.5T356 745H104q6 161 130 259t329 98zm182-674v76q-43-8-131-23.5T483 457q-168-28-168-148 0-67 48-106t122-39q105 0 182.5 71.5T745 428zM860 12h96q-16-46-16-92 0-64 32-95.5t87-31.5q29 0 74 10v-137q-63-26-129-26-88 0-146.5 49.5T799-164q0 103 61 176z"/><glyph glyph-name="Cacute" unicode="Ć" horiz-adv-x="1406" d="M877 1487q228 0 413-103v-256q-79 51-183.5 84T897 1245q-103 0-196-33.5T534 1115 416.5 952.5 373 731t43.5-221.5T534 347t167-96.5T897 217q105 0 209.5 33t183.5 84V78Q1105-25 877-25q-158 0-300 52.5T327 175 155.5 414 92 731t63.5 317T327 1287t250 147.5 300 52.5zm360 448l-313-295H788l152 295h297z"/><glyph glyph-name="cacute" unicode="ć" horiz-adv-x="1050" d="M633 1100q174 0 317-82V778q-135 96-282 96t-240-96q-90-93-90-243 0-152 92-244 94-94 238-94 147 0 282 96V53Q807-29 633-29q-156 0-283 70T148.5 241.5 74 537t74 294 201 199 284 70zm387 469l-313-295H571l152 295h297z"/><glyph glyph-name="Cdotaccent" unicode="Ċ" horiz-adv-x="1406" d="M877 1487q228 0 413-103v-256q-79 51-183.5 84T897 1245q-103 0-196-33.5T534 1115 416.5 952.5 373 731t43.5-221.5T534 347t167-96.5T897 217q105 0 209.5 33t183.5 84V78Q1105-25 877-25q-158 0-300 52.5T327 175 155.5 414 92 731t63.5 317T327 1287t250 147.5 300 52.5zm-25 448q62 0 104.5-43t42.5-106q0-62-43-105t-104-43q-62 0-106 43.5T702 1786q0 63 44 106t106 43z"/><glyph glyph-name="cdotaccent" unicode="ċ" horiz-adv-x="1050" d="M633 1100q174 0 317-82V778q-135 96-282 96t-240-96q-90-93-90-243 0-152 92-244 94-94 238-94 147 0 282 96V53Q807-29 633-29q-156 0-283 70T148.5 241.5 74 537t74 294 201 199 284 70zm2 469q62 0 104.5-43.5T782 1419q0-61-43-104t-104-43q-62 0-106 43t-44 104q0 63 44 106.5t106 43.5z"/><glyph glyph-name="Ccaron" unicode="Č" horiz-adv-x="1406" d="M877 1487q228 0 413-103v-256q-79 51-183.5 84T897 1245q-103 0-196-33.5T534 1115 416.5 952.5 373 731t43.5-221.5T534 347t167-96.5T897 217q105 0 209.5 33t183.5 84V78Q1105-25 877-25q-158 0-300 52.5T327 175 155.5 414 92 731t63.5 317T327 1287t250 147.5 300 52.5zm350 448l-240-295H721l-248 295h232l149-168 141 168h232z"/><glyph glyph-name="ccaron" unicode="č" horiz-adv-x="1050" d="M633 1100q174 0 317-82V778q-135 96-282 96t-240-96q-90-93-90-243 0-152 92-244 94-94 238-94 147 0 282 96V53Q807-29 633-29q-156 0-283 70T148.5 241.5 74 537t74 294 201 199 284 70zm377 469l-240-295H504l-248 295h231l150-168 141 168h232z"/><glyph glyph-name="Dcaron" unicode="Ď" horiz-adv-x="1490" d="M154 1458h520q207 0 373-91t262-258 96-380-96-380-262.5-258T674 0H154v1458zm503-244H432V244h225q201 0 335 134t134 349q0 216-134 351.5T657 1214zm375 721l-239-295H526l-247 295h231l149-168 142 168h231z"/><glyph glyph-name="dcaron" unicode="ď" horiz-adv-x="1384" d="M1137 1569V0H942l-61 137Q839 61 754.5 16T559-29q-144 0-256 78T132.5 255.5 74 537t58 280 169.5 205 255.5 78q99 0 179-36.5T864 963h4v606h269zM608 874q-126 0-194-96t-68-241q0-146 68-243t194-97q128 0 197 97t69 243q0 93-28.5 168t-90 122T608 874zm1096 695l-313-295h-136l152 295h297z"/><glyph glyph-name="Dcroat" unicode="Đ" horiz-adv-x="1542" d="M205 1458h520q207 0 373-91t262-258 96-380-96-380-262.5-258T725 0H205v629H61v202h144v627zm504-244H483V831h324V629H483V244h226q201 0 335 134t134 349q0 216-134 351.5T709 1214z"/><glyph glyph-name="dcroat" unicode="đ" horiz-adv-x="1298" d="M1137 1569v-158h223v-160h-223V0H942l-61 137Q839 61 754.5 16T559-29q-144 0-256 78T132.5 255.5 74 537t58 280 169.5 205 255.5 78q99 0 179-36.5T864 963h4v288H649v160h219v158h269zM608 874q-126 0-194-96t-68-241q0-146 68-243t194-97q128 0 197 97t69 243q0 93-28.5 168t-90 122T608 874z"/><glyph glyph-name="Emacron" unicode="Ē" horiz-adv-x="1085" d="M963 1458v-244H426V877h489V637H426V244h537V0H154v1458h809zm-35 428v-196H215v196h713z"/><glyph glyph-name="emacron" unicode="ē" horiz-adv-x="1187" d="M596 1100q231 0 375.5-151T1116 541q0-34-4-84H326q16-126 85.5-201.5T598 180q82 0 139.5 37.5T825 324h262q-52-170-182-261.5T598-29q-231 0-378.5 148T72 532q0 264 147 416t377 152zm2-211q-110 0-178-65.5T328 641h534q-20 114-86.5 181T598 889zm352 631v-197H238v197h712z"/><glyph glyph-name="Edotaccent" unicode="Ė" horiz-adv-x="1085" d="M963 1458v-244H426V877h489V637H426V244h537V0H154v1458h809zm-390 477q62 0 105-43t43-106q0-62-43.5-105T573 1638q-62 0-105.5 43.5T424 1786q0 63 43.5 106t105.5 43z"/><glyph glyph-name="edotaccent" unicode="ė" horiz-adv-x="1187" d="M596 1100q231 0 375.5-151T1116 541q0-34-4-84H326q16-126 85.5-201.5T598 180q82 0 139.5 37.5T825 324h262q-52-170-182-261.5T598-29q-231 0-378.5 148T72 532q0 264 147 416t377 152zm2-211q-110 0-178-65.5T328 641h534q-20 114-86.5 181T598 889zm-2 680q62 0 104.5-43.5T743 1419q0-61-42.5-104T596 1272t-106 43-44 104q0 63 44 106.5t106 43.5z"/><glyph glyph-name="Eogonek" unicode="Ę" horiz-adv-x="1085" d="M963 1458v-244H426V877h489V637H426V244h537V0H154v1458h809zM637 12h96q-16-46-16-92 0-64 32-95.5t87-31.5q28 0 73 10v-137q-63-26-129-26-88 0-146.5 49.5T575-164q0 102 62 176z"/><glyph glyph-name="eogonek" unicode="ę" horiz-adv-x="1187" d="M596 1100q231 0 375.5-151T1116 541q0-34-4-84H326q16-126 85.5-201.5T598 180q82 0 139.5 37.5T825 324h262q-52-170-182-261.5T598-29q-231 0-378.5 148T72 532q0 264 147 416t377 152zm2-211q-110 0-178-65.5T328 641h534q-20 114-86.5 181T598 889zM553 12h96q-16-46-16-92 0-64 32-95.5t87-31.5q28 0 73 10v-137q-63-26-129-26-88 0-146 49.5T492-164q0 103 61 176z"/><glyph glyph-name="Ecaron" unicode="Ě" horiz-adv-x="1085" d="M963 1458v-244H426V877h489V637H426V244h537V0H154v1458h809zm-15 477l-239-295H442l-247 295h231l149-168 142 168h231z"/><glyph glyph-name="ecaron" unicode="ě" horiz-adv-x="1187" d="M596 1100q231 0 375.5-151T1116 541q0-34-4-84H326q16-126 85.5-201.5T598 180q82 0 139.5 37.5T825 324h262q-52-170-182-261.5T598-29q-231 0-378.5 148T72 532q0 264 147 416t377 152zm2-211q-110 0-178-65.5T328 641h534q-20 114-86.5 181T598 889zm373 680l-240-295H465l-248 295h232l149-168 141 168h232z"/><glyph glyph-name="Gbreve" unicode="Ğ" horiz-adv-x="1597" d="M897 1489q274 0 502-129v-264q-101 72-229 112.5T918 1249q-152 0-275.5-61.5T445 1007t-74-276 74-276 197.5-180.5T918 213q148 0 296 57v289H961v223h514V125q-95-67-252.5-109.5T907-27q-167 0-314 51T334 169 157 408 92 731q0 177 65.5 323t177 239.5 256 144.5 306.5 51zm221 446h144q-16-141-108.5-221T893 1634t-260.5 80T524 1935h142q38-143 227-143 190 0 225 143z"/><glyph glyph-name="gbreve" unicode="ğ" horiz-adv-x="1214" d="M549 1096q45 0 159.5-12.5T909 1071h258V854H989q37-70 37-166 0-129-66-224T787 322.5 549 276q-88 0-174 25-37-30-37-74 0-19 7-33t25-24.5 32-17 46.5-12.5 49.5-8.5 59-8.5q52-7 84-12t78.5-14T795 79.5 861.5 57 922 27.5t47.5-38 38-48.5 22-60 8.5-74q0-166-130.5-249.5T559-526q-240 0-432 102v215q211-123 440-123 217 0 217 115 0 28-13.5 48T730-137t-54.5 18.5T606-106q-11 2-67.5 9.5t-80 11-67 11.5T317-56.5 260-35q-58 26-92.5 75T133 158q0 128 107 204Q72 477 72 686q0 128 66 222.5t173 141 238 46.5zm0-199q-97 0-159-57t-62-154q0-96 62-152.5T549 477t159 56.5T770 686q0 97-62 154t-159 57zm223 672h143q-16-141-108-221t-260-80-260.5 80T178 1569h141q38-144 228-144 189 0 225 144z"/><glyph glyph-name="Gdotaccent" unicode="Ġ" horiz-adv-x="1597" d="M897 1489q274 0 502-129v-264q-101 72-229 112.5T918 1249q-152 0-275.5-61.5T445 1007t-74-276 74-276 197.5-180.5T918 213q148 0 296 57v289H961v223h514V125q-95-67-252.5-109.5T907-27q-167 0-314 51T334 169 157 408 92 731q0 177 65.5 323t177 239.5 256 144.5 306.5 51zm-2 446q62 0 104.5-43t42.5-106q0-62-43-105t-104-43q-62 0-106 43.5T745 1786q0 63 44 106t106 43z"/><glyph glyph-name="gdotaccent" unicode="ġ" horiz-adv-x="1214" d="M549 1096q45 0 159.5-12.5T909 1071h258V854H989q37-70 37-166 0-129-66-224T787 322.5 549 276q-88 0-174 25-37-30-37-74 0-19 7-33t25-24.5 32-17 46.5-12.5 49.5-8.5 59-8.5q52-7 84-12t78.5-14T795 79.5 861.5 57 922 27.5t47.5-38 38-48.5 22-60 8.5-74q0-166-130.5-249.5T559-526q-240 0-432 102v215q211-123 440-123 217 0 217 115 0 28-13.5 48T730-137t-54.5 18.5T606-106q-11 2-67.5 9.5t-80 11-67 11.5T317-56.5 260-35q-58 26-92.5 75T133 158q0 128 107 204Q72 477 72 686q0 128 66 222.5t173 141 238 46.5zm0-199q-97 0-159-57t-62-154q0-96 62-152.5T549 477t159 56.5T770 686q0 97-62 154t-159 57zm0 672q62 0 104.5-43.5T696 1419q0-61-43-104t-104-43q-62 0-106 43t-44 104q0 63 44 106.5t106 43.5z"/><glyph glyph-name="Gcommaaccent" unicode="Ģ" horiz-adv-x="1597" d="M897 1489q274 0 502-129v-264q-101 72-229 112.5T918 1249q-152 0-275.5-61.5T445 1007t-74-276 74-276 197.5-180.5T918 213q148 0 296 57v289H961v223h514V125q-95-67-252.5-109.5T907-27q-167 0-314 51T334 169 157 408 92 731q0 177 65.5 323t177 239.5 256 144.5 306.5 51zm162-1692L745-498H610l152 295h297z"/><glyph glyph-name="gcommaaccent" unicode="ģ" horiz-adv-x="1214" d="M549 1096q45 0 159.5-12.5T909 1071h258V854H989q37-70 37-166 0-129-66-224T787 322.5 549 276q-88 0-174 25-37-30-37-74 0-19 7-33t25-24.5 32-17 46.5-12.5 49.5-8.5 59-8.5q52-7 84-12t78.5-14T795 79.5 861.5 57 922 27.5t47.5-38 38-48.5 22-60 8.5-74q0-166-130.5-249.5T559-526q-240 0-432 102v215q211-123 440-123 217 0 217 115 0 28-13.5 48T730-137t-54.5 18.5T606-106q-11 2-67.5 9.5t-80 11-67 11.5T317-56.5 260-35q-58 26-92.5 75T133 158q0 128 107 204Q72 477 72 686q0 128 66 222.5t173 141 238 46.5zm0-199q-97 0-159-57t-62-154q0-96 62-152.5T549 477t159 56.5T770 686q0 97-62 154t-159 57zm350 670l-151-295H451l313 295h135z"/><glyph glyph-name="Hbar" unicode="Ħ" horiz-adv-x="1581" d="M1415 1458v-205h154v-163h-154V0h-276v635H428V0H152v1090H12v163h140v205h276v-205h711v205h276zm-276-368H428V879h711v211z"/><glyph glyph-name="hbar" unicode="ħ" horiz-adv-x="1234" d="M418 1569v-158h295v-160H418V954q50 73 131.5 110.5T729 1102q177 0 284-115.5T1120 678V0H850v604q0 266-197 266-67 0-115.5-29t-74-78.5-36.5-102T416 549V0H150v1251H0v160h150v158h268z"/><glyph glyph-name="Imacron" unicode="Ī" horiz-adv-x="606" d="M442 1458V0H164v1458h278zm220 428v-196H-51v196h713z"/><glyph glyph-name="imacron" unicode="ī" horiz-adv-x="555" d="M412 1071V0H143v1071h269zm223 449v-197H-78v197h713z"/><glyph glyph-name="Iogonek" unicode="Į" horiz-adv-x="606" d="M442 1458V0H164v1458h278zM262 12h96q-16-46-16-92 0-64 32-95.5t87-31.5q29 0 74 10v-137q-63-26-129-26-88 0-146.5 49.5T201-164q0 103 61 176z"/><glyph glyph-name="iogonek" unicode="į" horiz-adv-x="555" d="M412 1071V0H143v1071h269zm-131 498q62 0 104.5-43.5T428 1419q0-61-43-104t-104-43q-62 0-106 43t-44 104q0 63 44 106.5t106 43.5zM227 12h97q-17-49-17-92 0-64 32-95.5t87-31.5q29 0 74 10v-137q-63-26-129-26-88 0-146.5 49.5T166-164q0 103 61 176z"/><glyph glyph-name="Idotaccent" unicode="İ" horiz-adv-x="606" d="M442 1458V0H164v1458h278zm-135 477q62 0 105-43t43-106q0-62-43.5-105T307 1638q-62 0-105.5 43.5T158 1786q0 63 43.5 106t105.5 43z"/><glyph glyph-name="dotlessi" unicode="ı" horiz-adv-x="555" d="M412 1071V0H143v1071h269z"/><glyph glyph-name="IJ" unicode="Ĳ" horiz-adv-x="1372" d="M442 1458V0H164v1458h278zm783 0V322q0-160-98-256.5T860-31q-85 0-174 25v221q70-18 115-18 72 0 109.5 36.5T948 338v1120h277z"/><glyph glyph-name="ij" unicode="ĳ" horiz-adv-x="1124" d="M416 1071V0H145v1071h271zm2 406v-232H143v232h275zm571-406V-182q0-153-93.5-245.5T643-520q-70 0-145 16v213q45-10 90-10 63 0 99 35.5t36 99.5v1237h266zm2 406v-232H721v232h270z"/><glyph glyph-name="Kcommaaccent" unicode="Ķ" horiz-adv-x="1333" d="M1323 1458L700 727 1323 0H983L434 653h-4V0H154v1458h276V803h4l549 655h340zM823-203L510-498H375l151 295h297z"/><glyph glyph-name="kcommaaccent" unicode="ķ" horiz-adv-x="1177" d="M420 1569V571l416 500h321L713 541 1174 0H838L420 496V0H154v1569h266zM750-203L436-498H301l152 295h297z"/><glyph glyph-name="Lacute" unicode="Ĺ" horiz-adv-x="1036" d="M428 1458V250h516V0H154v1458h274zm250 477l-313-295H229l152 295h297z"/><glyph glyph-name="lacute" unicode="ĺ" horiz-adv-x="573" d="M420 1569V0H154v1569h266zm254 489l-314-295H225l152 295h297z"/><glyph glyph-name="Lcommaaccent" unicode="Ļ" horiz-adv-x="1036" d="M428 1458V250h516V0H154v1458h274zM711-203L397-498H262l152 295h297z"/><glyph glyph-name="lcommaaccent" unicode="ļ" horiz-adv-x="573" d="M420 1569V0H154v1569h266zm24-1772L131-498H-4l151 295h297z"/><glyph glyph-name="Lcaron" unicode="Ľ" horiz-adv-x="1062" d="M428 1458V250h516V0H154v1458h274zm686 111l-313-295H666l151 295h297z"/><glyph glyph-name="lcaron" unicode="ľ" horiz-adv-x="761" d="M424 1569V0H150v1569h274zm600 0l-313-295H575l152 295h297z"/><glyph glyph-name="Ldot" unicode="Ŀ" horiz-adv-x="1032" d="M823 915q61 0 103.5-42.5T969 770t-42.5-101.5T823 627q-59 0-101 41.5T680 770t42 102.5T823 915zm-395 543V250h516V0H154v1458h274z"/><glyph glyph-name="ldot" unicode="ŀ" horiz-adv-x="868" d="M424 1569V0H150v1569h274zm285-645q60 0 101.5-43T852 778t-41.5-101.5T709 635q-61 0-103.5 41.5T563 778t42.5 103T709 924z"/><glyph glyph-name="Lslash" unicode="Ł" horiz-adv-x="1120" d="M512 1458V938l223 168V885L512 717V250h516V0H238v512L82 395v221l156 115v727h274z"/><glyph glyph-name="lslash" unicode="ł" horiz-adv-x="702" d="M489 1569V977l162 129V893L489 764V0H215v545L51 416v211l164 129v813h274z"/><glyph glyph-name="Nacute" unicode="Ń" horiz-adv-x="1652" d="M1499 1458V0h-264L428 1022V0H154v1458h266l807-1028v1028h272zm-268 477l-313-295H782l152 295h297z"/><glyph glyph-name="nacute" unicode="ń" horiz-adv-x="1236" d="M739 1100q190 0 286.5-118t96.5-318V0H852v590q0 47-3.5 83.5t-16 76.5-33 66.5T742 860t-87 17q-72 0-122-32t-74.5-87T424 645.5 414 520V0H143v1071h203l78-139q105 168 315 168zm301 469l-313-295H592l151 295h297z"/><glyph glyph-name="Ncommaaccent" unicode="Ņ" horiz-adv-x="1652" d="M1499 1458V0h-264L428 1022V0H154v1458h266l807-1028v1028h272zM969-203L655-498H520l152 295h297z"/><glyph glyph-name="ncommaaccent" unicode="ņ" horiz-adv-x="1236" d="M739 1100q190 0 286.5-118t96.5-318V0H852v590q0 47-3.5 83.5t-16 76.5-33 66.5T742 860t-87 17q-72 0-122-32t-74.5-87T424 645.5 414 520V0H143v1071h203l78-139q105 168 315 168zm39-1303L465-498H330l151 295h297z"/><glyph glyph-name="Ncaron" unicode="Ň" horiz-adv-x="1652" d="M1499 1458V0h-264L428 1022V0H154v1458h266l807-1028v1028h272zm-278 477l-240-295H715l-248 295h231l150-168 141 168h232z"/><glyph glyph-name="ncaron" unicode="ň" horiz-adv-x="1236" d="M739 1100q190 0 286.5-118t96.5-318V0H852v590q0 47-3.5 83.5t-16 76.5-33 66.5T742 860t-87 17q-72 0-122-32t-74.5-87T424 645.5 414 520V0H143v1071h203l78-139q105 168 315 168zm291 469l-239-295H524l-248 295h232l149-168 142 168h231z"/><glyph glyph-name="Eng" unicode="Ŋ" horiz-adv-x="1654" d="M1499 1458V-174q0-156-96-251t-258-95q-89 0-174 24v217q70-18 119-18 65 0 102 36t37 101V6L428 1022V0H154v1458h266l807-1028v1028h272z"/><glyph glyph-name="eng" unicode="ŋ" horiz-adv-x="1253" d="M737 1100q190 0 286.5-118t96.5-318v-820q0-95-27-164.5T1016.5-430 905-489t-139-19q-74 0-137 16v220q43-9 78-9 77 0 110 38t33 122v711q0 47-3.5 83.5t-16 76.5-33 66.5T740 860t-87 17q-72 0-122-32t-74.5-87T422 645.5 412 520V0H141v1071h205l76-139q105 168 315 168z"/><glyph glyph-name="Omacron" unicode="Ō" horiz-adv-x="1714" d="M858 1489q117 0 228-31.5t208-95.5 170.5-153.5 115.5-213 42-266.5-42-266.5T1464.5 250 1294 97.5t-208-95T858-29 629.5 2.5t-209 95-171 152.5T134 462.5 92 729t42 266.5 115.5 213 171 153.5 209 95.5T858 1489zm0-250q-91 0-177-33.5T525.5 1110t-112-161T371 729q0-120 42.5-218.5t112-160.5T681 254.5 858 221q90 0 175.5 33.5t155 95.5 112 160.5T1343 729q0 121-42.5 220t-112 161-155 95.5T858 1239zm356 647v-196H502v196h712z"/><glyph glyph-name="omacron" unicode="ō" horiz-adv-x="1271" d="M635 1100q155 0 282-65.5T1121 839t77-304-77.5-304-204-195T635-29Q520-29 418.5 9.5T240 118.5t-121.5 178T74 535q0 174 77 304t203.5 195.5T635 1100zm0-226q-136 0-216.5-93.5T338 537q0-153 80.5-247.5T635 195q139 0 220 94.5T936 537q0 150-81 243.5T635 874zm356 646v-197H279v197h712z"/><glyph glyph-name="Ohungarumlaut" unicode="Ő" horiz-adv-x="1714" d="M858 1489q117 0 228-31.5t208-95.5 170.5-153.5 115.5-213 42-266.5-42-266.5T1464.5 250 1294 97.5t-208-95T858-29 629.5 2.5t-209 95-171 152.5T134 462.5 92 729t42 266.5 115.5 213 171 153.5 209 95.5T858 1489zm0-250q-91 0-177-33.5T525.5 1110t-112-161T371 729q0-120 42.5-218.5t112-160.5T681 254.5 858 221q90 0 175.5 33.5t155 95.5 112 160.5T1343 729q0 121-42.5 220t-112 161-155 95.5T858 1239zm563 696l-313-295H973l151 295h297zm-374 0l-314-295H598l152 295h297z"/><glyph glyph-name="ohungarumlaut" unicode="ő" horiz-adv-x="1271" d="M635 1100q155 0 282-65.5T1121 839t77-304-77.5-304-204-195T635-29Q520-29 418.5 9.5T240 118.5t-121.5 178T74 535q0 174 77 304t203.5 195.5T635 1100zm0-226q-136 0-216.5-93.5T338 537q0-153 80.5-247.5T635 195q139 0 220 94.5T936 537q0 150-81 243.5T635 874zm563 695l-313-295H750l151 295h297zm-375 0l-313-295H375l151 295h297z"/><glyph glyph-name="OE" unicode="Œ" horiz-adv-x="1978" d="M850 1489q111 0 223-31h782v-244h-536V877h491V637h-491V244h536V0l-784 2q-97-31-217-31-119 0-231.5 31.5t-210 95-171 153T126 463 84 729t42 266.5 115.5 213 171 153.5 209 95.5T850 1489zm-2-250q-89 0-174.5-33.5T518 1110 405 948.5 362 729t42.5-218.5T517 350t155.5-95.5T848 221q107 0 199 47v922q-91 49-199 49z"/><glyph glyph-name="oe" unicode="œ" horiz-adv-x="2045" d="M1458 1100q230 0 374-150t144-407q0-34-4-84h-782q14-125 83.5-200t186.5-75q82 0 140 37.5t88 104.5h260q-51-167-180.5-259T1458-25q-250 0-397 172-77-86-187-131T637-29q-155 0-281.5 65t-204 195T74 535t77 304 203.5 195.5T635 1100q127 0 237.5-46T1061 922q70 87 172.5 132.5T1458 1100zM637 874q-139 0-219-93.5T338 535t80.5-246T637 195q136 0 217.5 94.5T936 535t-80.5 245T637 874zm823 15q-111 0-179-66t-89-180h530q-18 114-84 180t-178 66z"/><glyph glyph-name="Racute" unicode="Ŕ" horiz-adv-x="1222" d="M154 1458h493q182 0 310-128.5t128-311.5q0-151-92.5-267.5T758 598L1202 0H889L471 584h-47V0H154v1458zm446-229H424V809h176q88 0 149.5 61.5T811 1020q0 86-61.5 147.5T600 1229zm346 706l-313-295H498l151 295h297z"/><glyph glyph-name="racute" unicode="ŕ" horiz-adv-x="800" d="M686 1094q45 0 84-15V829q-52 19-98 19-110 0-183-92t-73-277V0H141v1071h174l97-166q42 93 113 141t161 48zm119 475l-313-295H356l152 295h297z"/><glyph glyph-name="Rcommaaccent" unicode="Ŗ" horiz-adv-x="1222" d="M154 1458h493q182 0 310-128.5t128-311.5q0-151-92.5-267.5T758 598L1202 0H889L471 584h-47V0H154v1458zm446-229H424V809h176q88 0 149.5 61.5T811 1020q0 86-61.5 147.5T600 1229zM784-203L471-498H336l151 295h297z"/><glyph glyph-name="rcommaaccent" unicode="ŗ" horiz-adv-x="800" d="M686 1094q45 0 84-15V829q-52 19-98 19-110 0-183-92t-73-277V0H141v1071h174l97-166q42 93 113 141t161 48zM428-203L115-498H-20l151 295h297z"/><glyph glyph-name="Rcaron" unicode="Ř" horiz-adv-x="1222" d="M154 1458h493q182 0 310-128.5t128-311.5q0-151-92.5-267.5T758 598L1202 0H889L471 584h-47V0H154v1458zm446-229H424V809h176q88 0 149.5 61.5T811 1020q0 86-61.5 147.5T600 1229zm336 706l-240-295H430l-248 295h232l149-168 142 168h231z"/><glyph glyph-name="rcaron" unicode="ř" horiz-adv-x="800" d="M686 1094q45 0 84-15V829q-52 19-98 19-110 0-183-92t-73-277V0H141v1071h174l97-166q42 93 113 141t161 48zm109 475l-240-295H289L41 1569h231l150-168 141 168h232z"/><glyph glyph-name="Sacute" unicode="Ś" horiz-adv-x="1114" d="M551 1479q221 0 403-121v-250q-88 60-191 98.5T575 1245q-98 0-152-50.5T369 1063q0-76 56-125.5T616 840q39-14 59-21.5t59.5-24 62-29.5 56.5-34.5 54-42.5 44-51 36.5-62 21.5-73.5 9-87.5q0-194-132-316.5T530-25Q305-25 115 90v250q93-59 199.5-94T508 211q108 0 169.5 55.5T739 410q0 77-52.5 115.5T489 614q-45 15-73.5 26T341 673t-76.5 43.5-66 56T142 845t-35.5 91.5T92 1051q0 191 124 309.5T551 1479zm381 456l-314-295H483l152 295h297z"/><glyph glyph-name="sacute" unicode="ś" horiz-adv-x="933" d="M463 1102q170 0 330-88V797Q613 899 483 899q-70 0-109.5-28T334 786q0-56 42.5-85T535 635q39-13 62.5-21t62-25 63-33 54-42 46-54.5 28-68T862 307q0-152-110.5-244T455-29q-198 0-351 90v220q179-107 334-107 77 0 119.5 30.5T600 293q0 25-9.5 45t-22 32.5T525 397t-53.5 21.5T399 442q-49 15-82.5 28t-84 42-82 62-55 87T72 780q0 146 104.5 234t286.5 88zm385 467l-313-295H399l152 295h297z"/><glyph glyph-name="Scedilla" unicode="Ş" horiz-adv-x="1114" d="M551 1479q221 0 403-121v-250q-88 60-191 98.5T575 1245q-98 0-152-50.5T369 1063q0-76 56-125.5T616 840q39-14 59-21.5t59.5-24 62-29.5 56.5-34.5 54-42.5 44-51 36.5-62 21.5-73.5 9-87.5q0-194-132-316.5T530-25Q305-25 115 90v250q93-59 199.5-94T508 211q108 0 169.5 55.5T739 410q0 77-52.5 115.5T489 614q-45 15-73.5 26T341 673t-76.5 43.5-66 56T142 845t-35.5 91.5T92 1051q0 191 124 309.5T551 1479zM621 4l-56-80q5 0 15 1t18 1q60 0 105-37t45-104q0-76-60.5-118T535-375q-96 0-183 37l39 88q82-29 121-29 35 0 56.5 14.5T590-219q0 51-66 51-32 0-63-14l-45 39L510 4h111z"/><glyph glyph-name="scedilla" unicode="ş" horiz-adv-x="933" d="M463 1102q170 0 330-88V797Q613 899 483 899q-70 0-109.5-28T334 786q0-56 42.5-85T535 635q39-13 62.5-21t62-25 63-33 54-42 46-54.5 28-68T862 307q0-152-110.5-244T455-29q-198 0-351 90v220q179-107 334-107 77 0 119.5 30.5T600 293q0 25-9.5 45t-22 32.5T525 397t-53.5 21.5T399 442q-49 15-82.5 28t-84 42-82 62-55 87T72 780q0 146 104.5 234t286.5 88zM528 4l-55-80q5 0 15 1t18 1q60 0 104.5-37T655-215q0-76-60.5-118T442-375q-95 0-182 37l39 88q82-29 121-29 35 0 56.5 14.5T498-219q0 51-66 51-32 0-63-14l-45 39L418 4h110z"/><glyph glyph-name="Scaron" unicode="Š" horiz-adv-x="1114" d="M551 1479q221 0 403-121v-250q-88 60-191 98.5T575 1245q-98 0-152-50.5T369 1063q0-76 56-125.5T616 840q39-14 59-21.5t59.5-24 62-29.5 56.5-34.5 54-42.5 44-51 36.5-62 21.5-73.5 9-87.5q0-194-132-316.5T530-25Q305-25 115 90v250q93-59 199.5-94T508 211q108 0 169.5 55.5T739 410q0 77-52.5 115.5T489 614q-45 15-73.5 26T341 673t-76.5 43.5-66 56T142 845t-35.5 91.5T92 1051q0 191 124 309.5T551 1479zm371 456l-240-295H416l-248 295h231l150-168 141 168h232z"/><glyph glyph-name="scaron" unicode="š" horiz-adv-x="933" d="M463 1102q170 0 330-88V797Q613 899 483 899q-70 0-109.5-28T334 786q0-56 42.5-85T535 635q39-13 62.5-21t62-25 63-33 54-42 46-54.5 28-68T862 307q0-152-110.5-244T455-29q-198 0-351 90v220q179-107 334-107 77 0 119.5 30.5T600 293q0 25-9.5 45t-22 32.5T525 397t-53.5 21.5T399 442q-49 15-82.5 28t-84 42-82 62-55 87T72 780q0 146 104.5 234t286.5 88zm375 467l-240-295H332L84 1569h231l150-168 141 168h232z"/><glyph glyph-name="Tcedilla" unicode="Ţ" horiz-adv-x="1105" d="M1044 1458v-244H692V0H414v1214H61v244h983zM621 4l-56-80q5 0 15 1t18 1q60 0 105-37t45-104q0-76-60.5-118T535-375q-96 0-183 37l39 88q82-29 121-29 35 0 56.5 14.5T590-219q0 51-66 51-32 0-63-14l-45 39L510 4h111z"/><glyph glyph-name="tcedilla" unicode="ţ" horiz-adv-x="790" d="M457 1343v-272h256V854H457V328q0-135 143-135 54 0 127 24V0q-95-29-186-29-163 0-257 92t-94 246v545H41v205h61q48 0 76.5 28.5T207 1165v178h250zM565 4l-55-80q6 0 15 1t18 1q60 0 104.5-37T692-215q0-76-60.5-118T479-375q-95 0-182 37l39 88q82-29 121-29 35 0 56.5 14.5T535-219q0 51-66 51-31 0-63-14l-46 39L455 4h110z"/><glyph glyph-name="Tcaron" unicode="Ť" horiz-adv-x="1105" d="M1044 1458v-244H692V0H414v1214H61v244h983zm-116 477l-240-295H422l-248 295h232l149-168 141 168h232z"/><glyph glyph-name="tcaron" unicode="ť" horiz-adv-x="815" d="M457 1343v-272h256V854H457V328q0-135 143-135 54 0 127 24V0q-95-29-186-29-163 0-257 92t-94 246v545H41v205h61q48 0 76.5 28.5T207 1165v178h250zm657 226l-313-295H666l151 295h297z"/><glyph glyph-name="Tbar" unicode="Ŧ" horiz-adv-x="1126" d="M1055 1458v-244H702V825h234V623H702V0H424v623H190v202h234v389H72v244h983z"/><glyph glyph-name="tbar" unicode="ŧ" horiz-adv-x="790" d="M457 1343v-272h256V854H457V684h256V526H457V328q0-135 143-135 54 0 127 24V0q-95-29-186-29-163 0-257 92t-94 246v217H39v158h151v170H41v205h61q48 0 76.5 28.5T207 1165v178h250z"/><glyph glyph-name="Umacron" unicode="Ū" horiz-adv-x="1478" d="M1335 1458V565q0-171-80-308.5T1039 44 739-31 439 44 223 256.5 143 565v893h275l2-915q0-138 92.5-229T739 223t227 91 93 229l2 915h274zm-239 428v-196H383v196h713z"/><glyph glyph-name="umacron" unicode="ū" horiz-adv-x="1189" d="M1069 1071l-2-653q0-196-130-321.5T594-29 251 96.5 121 418v653h266V459q0-37 5-70t19.5-68 37-59.5 60-40.5 85.5-16q60 0 103 23t65 62.5 31.5 80.5 9.5 88v612h266zm-119 449v-197H238v197h712z"/><glyph glyph-name="Uring" unicode="Ů" horiz-adv-x="1478" d="M1335 1458V565q0-171-80-308.5T1039 44 739-31 439 44 223 256.5 143 565v893h275l2-915q0-138 92.5-229T739 223t227 91 93 229l2 915h274zm-596 549q92 0 157-65.5t65-155.5q0-91-65-156t-157-65q-91 0-156 65t-65 156q0 90 65.5 155.5T739 2007zm0-121q-42 0-71-29t-29-71q0-43 28.5-71.5T739 1686q42 0 71.5 29t29.5 71q0 41-30 70.5t-71 29.5z"/><glyph glyph-name="uring" unicode="ů" horiz-adv-x="1189" d="M1069 1071l-2-653q0-196-130-321.5T594-29 251 96.5 121 418v653h266V459q0-37 5-70t19.5-68 37-59.5 60-40.5 85.5-16q60 0 103 23t65 62.5 31.5 80.5 9.5 88v612h266zm-475 569q92 0 156.5-65.5T815 1419q0-91-64.5-156T594 1198q-91 0-156 65t-65 156q0 90 65.5 155.5T594 1640zm0-120q-42 0-71-29.5t-29-71.5q0-43 28.5-71.5T594 1319q42 0 71 29t29 71q0 41-29.5 71t-70.5 30z"/><glyph glyph-name="Uhungarumlaut" unicode="Ű" horiz-adv-x="1478" d="M1335 1458V565q0-171-80-308.5T1039 44 739-31 439 44 223 256.5 143 565v893h275l2-915q0-138 92.5-229T739 223t227 91 93 229l2 915h274zm-32 477l-314-295H854l152 295h297zm-375 0l-314-295H479l152 295h297z"/><glyph glyph-name="uhungarumlaut" unicode="ű" horiz-adv-x="1189" d="M1069 1071l-2-653q0-196-130-321.5T594-29 251 96.5 121 418v653h266V459q0-37 5-70t19.5-68 37-59.5 60-40.5 85.5-16q60 0 103 23t65 62.5 31.5 80.5 9.5 88v612h266zm88 498l-313-295H709l151 295h297zm-375 0l-313-295H334l151 295h297z"/><glyph glyph-name="Uogonek" unicode="Ų" horiz-adv-x="1478" d="M1335 1458V565q0-171-80-308.5T1039 44 739-31 439 44 223 256.5 143 565v893h275l2-915q0-138 92.5-229T739 223t227 91 93 229l2 915h274zM707 12h96q-17-49-17-92 0-64 32-95.5t87-31.5q29 0 74 10v-137q-63-26-129-26-88 0-146.5 49.5T645-164q0 102 62 176z"/><glyph glyph-name="uogonek" unicode="ų" horiz-adv-x="1189" d="M1069 1071l-2-653q0-196-130-321.5T594-29 251 96.5 121 418v653h266V459q0-37 5-70t19.5-68 37-59.5 60-40.5 85.5-16q60 0 103 23t65 62.5 31.5 80.5 9.5 88v612h266zM549 12h96q-16-46-16-92 0-64 32-95.5t87-31.5q28 0 73 10v-137q-63-26-129-26-88 0-146.5 49.5T487-164q0 102 62 176z"/><glyph glyph-name="Wcircumflex" unicode="Ŵ" horiz-adv-x="2379" d="M1307 1464l387-1097 334 1091h301L1845 0h-293l-368 1047L817 0H524L41 1458h301L676 367l387 1097h244zm14 471l240-295h-232l-141 168-150-168H807l248 295h266z"/><glyph glyph-name="wcircumflex" unicode="ŵ" horiz-adv-x="1878" d="M1036 1077l299-676 277 670h270L1430-10h-173L940 705 621-10H449L-4 1071h270l277-670 299 676h194zm43 492l240-295h-232l-141 168-149-168H565l248 295h266z"/><glyph glyph-name="Ycircumflex" unicode="Ŷ" horiz-adv-x="1327" d="M1323 1458L801 664V0H526v664L4 1458h315l345-536 344 536h315zm-520 477l239-295H811l-141 168-150-168H289l248 295h266z"/><glyph glyph-name="ycircumflex" unicode="ŷ" horiz-adv-x="1177" d="M1171 1071L469-498H195L457 88 14 1071h271l307-694 309 694h270zm-442 498l240-295H737l-141 168-150-168H215l248 295h266z"/><glyph glyph-name="Ydieresis" unicode="Ÿ" horiz-adv-x="1327" d="M1323 1458L801 664V0H526v664L4 1458h315l345-536 344 536h315zm-436 473q61 0 103-42.5t42-102.5-42-102-103-42q-59 0-101.5 42T743 1786t42.5 102.5T887 1931zm-445 0q60 0 102-42.5t42-102.5-42-102-102-42q-61 0-103 42t-42 102 42 102.5 103 42.5z"/><glyph glyph-name="Zacute" unicode="Ź" horiz-adv-x="1236" d="M1130 1458v-196L459 244h671V0H106v197l672 1017H106v244h1024zm-129 477l-313-295H553l152 295h296z"/><glyph glyph-name="zacute" unicode="ź" horiz-adv-x="1026" d="M924 1071V907L438 219h480V0H102v164l486 688H109v219h815zm-25 498l-313-295H451l151 295h297z"/><glyph glyph-name="Zdotaccent" unicode="Ż" horiz-adv-x="1236" d="M1130 1458v-196L459 244h671V0H106v197l672 1017H106v244h1024zm-514 477q62 0 105-43t43-106q0-62-43-105t-105-43-105.5 43.5T467 1786q0 63 43.5 106t105.5 43z"/><glyph glyph-name="zdotaccent" unicode="ż" horiz-adv-x="1026" d="M924 1071V907L438 219h480V0H102v164l486 688H109v219h815zm-410 498q62 0 105-43.5t43-106.5q0-61-43-104t-105-43-105.5 43-43.5 104q0 63 43.5 106.5T514 1569z"/><glyph glyph-name="Zcaron" unicode="Ž" horiz-adv-x="1236" d="M1130 1458v-196L459 244h671V0H106v197l672 1017H106v244h1024zm-139 477l-239-295H485l-247 295h231l149-168 142 168h231z"/><glyph glyph-name="zcaron" unicode="ž" horiz-adv-x="1026" d="M924 1071V907L438 219h480V0H102v164l486 688H109v219h815zm-35 498l-240-295H383l-248 295h232l149-168 141 168h232z"/><glyph glyph-name="Scommaaccent" unicode="Ș" horiz-adv-x="1114" d="M551 1479q221 0 403-121v-250q-88 60-191 98.5T575 1245q-98 0-152-50.5T369 1063q0-76 56-125.5T616 840q39-14 59-21.5t59.5-24 62-29.5 56.5-34.5 54-42.5 44-51 36.5-62 21.5-73.5 9-87.5q0-194-132-316.5T530-25Q305-25 115 90v250q93-59 199.5-94T508 211q108 0 169.5 55.5T739 410q0 77-52.5 115.5T489 614q-45 15-73.5 26T341 673t-76.5 43.5-66 56T142 845t-35.5 91.5T92 1051q0 191 124 309.5T551 1479zM709-203L395-498H260l152 295h297z"/><glyph glyph-name="scommaaccent" unicode="ș" horiz-adv-x="933" d="M463 1102q170 0 330-88V797Q613 899 483 899q-70 0-109.5-28T334 786q0-56 42.5-85T535 635q39-13 62.5-21t62-25 63-33 54-42 46-54.5 28-68T862 307q0-152-110.5-244T455-29q-198 0-351 90v220q179-107 334-107 77 0 119.5 30.5T600 293q0 25-9.5 45t-22 32.5T525 397t-53.5 21.5T399 442q-49 15-82.5 28t-84 42-82 62-55 87T72 780q0 146 104.5 234t286.5 88zM616-203L303-498H168l151 295h297z"/><glyph glyph-name="uni021A" unicode="Ț" horiz-adv-x="1105" d="M1044 1458v-244H692V0H414v1214H61v244h983zM709-203L395-498H260l152 295h297z"/><glyph glyph-name="uni021B" unicode="ț" horiz-adv-x="790" d="M457 1343v-272h256V854H457V328q0-135 143-135 54 0 127 24V0q-95-29-186-29-163 0-257 92t-94 246v545H41v205h61q48 0 76.5 28.5T207 1165v178h250zM653-203L340-498H205l151 295h297z"/><glyph glyph-name="circumflex" unicode="ˆ" horiz-adv-x="1228" d="M754 1513l239-294H762l-141 167-150-167H240l247 294h267z"/><glyph glyph-name="caron" unicode="ˇ" horiz-adv-x="1228" d="M991 1513l-239-294H485l-247 294h231l149-167 142 167h231z"/><glyph glyph-name="breve" unicode="˘" horiz-adv-x="1228" d="M840 1513h143q-16-141-108.5-221T614 1212t-260 80-108 221h141q38-143 227-143 191 0 226 143z"/><glyph glyph-name="dotaccent" unicode="˙" horiz-adv-x="1228" d="M616 1513q62 0 105-43t43-106q0-61-43-104t-105-43-105.5 43-43.5 104q0 63 43.5 106t105.5 43z"/><glyph glyph-name="ring" unicode="˚" horiz-adv-x="1228" d="M614 1585q92 0 157-65.5t65-155.5q0-91-65-156t-157-65q-91 0-156 65t-65 156q0 90 65.5 155.5T614 1585zm0-121q-42 0-71-29t-29-71q0-43 28.5-71.5T614 1264q42 0 71.5 29t29.5 71q0 41-30 70.5t-71 29.5z"/><glyph glyph-name="ogonek" unicode="˛" horiz-adv-x="1228" d="M569 33h97q-17-49-17-92 0-64 32-95.5t87-31.5q29 0 74 10v-137q-66-27-129-27-88 0-146.5 50T508-143q0 103 61 176z"/><glyph glyph-name="tilde" unicode="˜" horiz-adv-x="1228" d="M866 1501h115q-6-127-63.5-201.5T768 1225q-51 0-112.5 26T540 1303t-87 26q-37 0-63.5-27t-33.5-73H246q10 132 70 202t147 70q51 0 110.5-26t112-52 88.5-26q71 0 92 104z"/><glyph glyph-name="hungarumlaut" unicode="˝" horiz-adv-x="1228" d="M1178 1513l-314-294H729l152 294h297zm-375 0l-314-294H354l152 294h297z"/><glyph glyph-name="uni0326" unicode="̦" d="M745-203L432-498H297l152 295h296z"/><glyph glyph-name="uni05B0" unicode="ְ" d="M700-195v-170H528v170h172zm0-340v-170H528v170h172z"/><glyph glyph-name="uni05B1" unicode="ֱ" d="M1083-195v-170H911v170h172zM508-535v-170H336v170h172zM317-195v-170H145v170h172zm383 0v-170H528v170h172zm383-340v-170H911v170h172z"/><glyph glyph-name="uni05B2" unicode="ֲ" d="M754-195v-149H117v149h637zm360-340v-170H942v170h172zm0 340v-170H942v170h172z"/><glyph glyph-name="uni05B3" unicode="ֳ" d="M752-195v-141H496l24-319H348l25 319H115v141h637zm362-340v-170H942v170h172zm0 340v-170H942v170h172z"/><glyph glyph-name="uni05B4" unicode="ִ" d="M700-195v-170H528v170h172z"/><glyph glyph-name="uni05B5" unicode="ֵ" d="M893-195v-170H721v170h172zm-383 0v-170H338v170h172z"/><glyph glyph-name="uni05B6" unicode="ֶ" d="M891-195v-170H719v170h172zM698-535v-170H526v170h172zM508-195v-170H336v170h172z"/><glyph glyph-name="uni05B7" unicode="ַ" d="M932-195v-149H295v149h637z"/><glyph glyph-name="uni05B8" unicode="ָ" d="M932-195v-141H676l24-319H528l25 319H295v141h637z"/><glyph glyph-name="uni05B9" unicode="ֹ" d="M700 1489v-170H528v170h172z"/><glyph glyph-name="uni05BA" unicode="ֺ" d="M700 1489v-170H528v170h172z"/><glyph glyph-name="uni05BB" unicode="ֻ" d="M1155-616v-170H983v170h172zM688-195v-170H516v170h172zm234-211v-169H750v169h172z"/><glyph glyph-name="uni05BC" unicode="ּ" d="M700 647V477H528v170h172z"/><glyph glyph-name="uni05BE" unicode="־" horiz-adv-x="919" d="M772 1100V870H147v230h625z"/><glyph glyph-name="uni05C1" unicode="ׁ" d="M700 1489v-170H528v170h172z"/><glyph glyph-name="uni05C2" unicode="ׂ" d="M700 1489v-170H528v170h172z"/><glyph glyph-name="uni05C7" unicode="ׇ" d="M932-195v-141H676l24-319H528l25 319H295v141h637z"/><glyph glyph-name="uni05D0" unicode="א" horiz-adv-x="1261" d="M1178 1094l-35-172q-11-52-18.5-84t-21-75-28-70.5-38-60.5-52-54.5T917 535t-90-35L1196 0H877L528 469q-23-12-41-27t-31-35.5-21-35.5-15-42-9.5-39.5-7.5-44-6-40.5L360 0H78l43 227q33 175 93 268t192 138L66 1094h319l324-437q29 11 50.5 25.5t36.5 34 25 36.5 17 44.5 10.5 45 9 51T866 944l27 150h285z"/><glyph glyph-name="uni05D1" unicode="ב" horiz-adv-x="1144" d="M102 1094h443q125 0 211.5-50.5T887 899q39-83 39-233V227h178V0H92v227h561v447q0 192-176 192H102v228z"/><glyph glyph-name="uni05D2" unicode="ג" horiz-adv-x="825" d="M668 1094V469.5l.5-40L670 384l3-42.5 5-48.5 7-45.5 9.5-51L707 147 748 0H492q-27 74-48 156h-6L74-45v266l325 178q-2 47-2 160v309H129v226h539z"/><glyph glyph-name="uni05D3" unicode="ד" horiz-adv-x="1144" d="M1073 1094V866H838V0H565v866H57v228h1016z"/><glyph glyph-name="uni05D4" unicode="ה" horiz-adv-x="1230" d="M125 1094h608q122 0 209-49t129-136q43-88 43-243V0H840v674q0 94-44 143t-130 49H125v228zm272-529V0H125v565h272z"/><glyph glyph-name="uni05D5" unicode="ו" horiz-adv-x="628" d="M502 1094V0H225v866H100v228h402z"/><glyph glyph-name="uni05D6" unicode="ז" horiz-adv-x="802" d="M723 1094V866H586q-162 0-162-166 0-61 20-139Q482 407 637 0H334q-22 60-59 184t-56 207q-29 132-29 219 0 150 80 256H80v228h643z"/><glyph glyph-name="uni05D7" unicode="ח" horiz-adv-x="1282" d="M141 1094h639q243 0 338-185 45-85 45-243V0H891v674q0 94-44 143t-130 49H414V0H141v1094z"/><glyph glyph-name="uni05D8" unicode="ט" horiz-adv-x="1280" d="M815 1106q195 0 285-119 51-67 70.5-174t19.5-270q0-258-149-415T653-29 265.5 128 117 543v551h272V543q0-152 67.5-245T653 205t197 93 68 245q0 63-2 102t-7.5 81-17.5 66-31.5 44.5-49.5 29-71 8.5q-68 0-161-26v217q121 41 237 41z"/><glyph glyph-name="uni05D9" unicode="י" horiz-adv-x="610" d="M485 1094V383H213v483H88v228h397z"/><glyph glyph-name="uni05DA" unicode="ך" horiz-adv-x="1015" d="M74 1094h432q189 0 282-88 105-98 105-304v-966H621v880q0 138-41 193t-164 55H74v230z"/><glyph glyph-name="uni05DB" unicode="כ" horiz-adv-x="1019" d="M96 1094h262q584 0 584-545Q942 0 354 0H88v227h262q157 0 236.5 82.5T666 549q0 155-77 236t-233 81H96v228z"/><glyph glyph-name="uni05DC" unicode="ל" horiz-adv-x="1003" d="M338 1462v-368h580V881L590 0H301l326 866H68v596h270z"/><glyph glyph-name="uni05DD" unicode="ם" horiz-adv-x="1269" d="M133 1094h647q245 0 338-185 43-81 43-243V0H133v1094zm584-228H406V227h485v447q0 94-44 143t-130 49z"/><glyph glyph-name="uni05DE" unicode="מ" horiz-adv-x="1380" d="M829 1114q191 0 320-123 144-136 154-393 7-172-41-301.5T1130 94Q1000-20 768-20q-32 0-119 6v223q50-4 74-4 156 0 232.5 80t76.5 268q0 156-61 244-64 94-176 94-126 0-197-113-74-117-111-403-10-82-43-375H168q35 367 96 723L61 1094h316l94-164q127 184 358 184z"/><glyph glyph-name="uni05DF" unicode="ן" horiz-adv-x="634" d="M498 1094V-264H221V864H88v230h410z"/><glyph glyph-name="uni05E0" unicode="נ" horiz-adv-x="751" d="M629 1094V369q0-135-35-207-39-79-114.5-122.5T297-4H86v225h135q133 0 133 150v495H121v228h508z"/><glyph glyph-name="uni05E1" unicode="ס" horiz-adv-x="1275" d="M121 1094h530q239 0 381-123 162-140 162-418 0-267-148-424.5T659-29q-240 0-389 157T121 543v551zm528-228H393V543q0-152 67.5-245T657 205t197 93 68 247q0 166-76 248-67 73-197 73z"/><glyph glyph-name="uni05E2" unicode="ע" horiz-adv-x="1257" d="M1139 1094V954q0-197-19-389-30-303-187.5-434T451 0H113v227h131q135 0 194 4L57 1094h297l357-834q48 23 75 76 48 92 66 457 6 106 6 301h281z"/><glyph glyph-name="uni05E3" unicode="ף" horiz-adv-x="1171" d="M102 1094h564q125 0 214.5-53T1014 895q39-80 39-233v-926H780v936q0 93-46.5 142.5T598 864H375V719q0-84 36.5-120T516 565V358q-25-4-74-4-155 0-247.5 91T102 719v375z"/><glyph glyph-name="uni05E4" unicode="פ" horiz-adv-x="1204" d="M584 1124q258 0 400-142t142-409q0-283-164.5-428T479 0H158v225h293q217 0 314 78.5T862 567q0 328-284 328-115 0-177.5-49.5T338 713q0-128 145-152V344q-45 0-94 9t-106.5 35T181 453t-73.5 106T78 711q0 187 135 300t371 113z"/><glyph glyph-name="uni05E5" unicode="ץ" horiz-adv-x="1122" d="M1051 1094l-52-215q-24-103-49-166.5t-69.5-120-112.5-89T598 453l111-717H436L313 510 31 1094h291l225-473q30 11 52 23t38.5 31 26.5 32 19.5 41.5 13 43 12 53.5 12.5 56l45 193h285z"/><glyph glyph-name="uni05E6" unicode="צ" horiz-adv-x="1150" d="M348 1094l307-418q20 11 36 25t28 34 19 33.5 14 41.5 9.5 39.5T769 896t7 44l25 152h282l-32-174q-33-174-91.5-266.5T774 510l230-309V0H106v227h566L37 1094h311z"/><glyph glyph-name="uni05E7" unicode="ק" horiz-adv-x="1257" d="M1171 1094V870L864-2H580l303 866H131v230h1040zM412 563v-827H139v827h273z"/><glyph glyph-name="uni05E8" unicode="ר" horiz-adv-x="1028" d="M76 1094h454q121 0 207.5-49T866 909q43-88 43-243V0H637v674q0 192-176 192H76v228z"/><glyph glyph-name="uni05E9" unicode="ש" horiz-adv-x="1540" d="M1423 1094V645q0-369-229-545Q1026-29 770-29q-258 0-428 131-225 175-225 543v449h258V627q0-47 10-105 103 26 156.5 61t77.5 92.5T643 831v263h252V831q0-103-24.5-182.5t-63-129.5-99-85.5-119-53.5T453 348q43-56 88-86 98-67 225-67 140 0 235 67 162 113 162 365v467h260z"/><glyph glyph-name="uni05EA" unicode="ת" horiz-adv-x="1425" d="M84 1094h842q120 0 208.5-49T1266 909q41-80 41-241V0h-273v674q0 192-174 192H602V365q0-88-20.5-155.5t-53.5-109-80-68T353-4 250-14Q176-14 90 8v205q75-6 84-6 36 0 61.5 8t48 28.5 33.5 61T328 406v460H84v228z"/><glyph glyph-name="gereshhb" unicode="׳" horiz-adv-x="694" d="M582 1343L274 868H113l174 475h295z"/><glyph glyph-name="gershayimhb" unicode="״" horiz-adv-x="1118" d="M1006 1343L698 868H537l174 475h295zm-424 0L274 868H113l174 475h295z"/><glyph glyph-name="Wgrave" unicode="Ẁ" horiz-adv-x="2379" d="M1307 1464l387-1097 334 1091h301L1845 0h-293l-368 1047L817 0H524L41 1458h301L676 367l387 1097h244zm-213 471l151-295h-135l-313 295h297z"/><glyph glyph-name="wgrave" unicode="ẁ" horiz-adv-x="1878" d="M1036 1077l299-676 277 670h270L1430-10h-173L940 705 621-10H449L-4 1071h270l277-670 299 676h194zm-184 492l152-295H868l-313 295h297z"/><glyph glyph-name="Wacute" unicode="Ẃ" horiz-adv-x="2379" d="M1307 1464l387-1097 334 1091h301L1845 0h-293l-368 1047L817 0H524L41 1458h301L676 367l387 1097h244zm262 471l-314-295h-135l152 295h297z"/><glyph glyph-name="wacute" unicode="ẃ" horiz-adv-x="1878" d="M1036 1077l299-676 277 670h270L1430-10h-173L940 705 621-10H449L-4 1071h270l277-670 299 676h194zm291 492l-313-295H879l151 295h297z"/><glyph glyph-name="Wdieresis" unicode="Ẅ" horiz-adv-x="2379" d="M1307 1464l387-1097 334 1091h301L1845 0h-293l-368 1047L817 0H524L41 1458h301L676 367l387 1097h244zm98 467q61 0 103-42.5t42-102.5-42-102-103-42q-59 0-101 42t-42 102 42 102.5 101 42.5zm-444 0q60 0 101.5-42.5T1104 1786t-41.5-102-101.5-42q-61 0-103.5 42T815 1786t42.5 102.5T961 1931z"/><glyph glyph-name="wdieresis" unicode="ẅ" horiz-adv-x="1878" d="M1036 1077l299-676 277 670h270L1430-10h-173L940 705 621-10H449L-4 1071h270l277-670 299 676h194zm127 488q61 0 103.5-43t42.5-103-42.5-101.5T1163 1276q-59 0-101 41.5t-42 101.5 42 103 101 43zm-444 0q60 0 101.5-43t41.5-103-41.5-101.5T719 1276q-61 0-103.5 41.5T573 1419t42.5 103 103.5 43z"/><glyph glyph-name="Ygrave" unicode="Ỳ" horiz-adv-x="1327" d="M1323 1458L801 664V0H526v664L4 1458h315l345-536 344 536h315zm-748 477l152-295H592l-313 295h296z"/><glyph glyph-name="ygrave" unicode="ỳ" horiz-adv-x="1177" d="M1171 1071L469-498H195L457 88 14 1071h271l307-694 309 694h270zm-669 498l151-295H518l-313 295h297z"/><glyph glyph-name="endash" unicode="–" horiz-adv-x="1542" d="M1378 741V528H164v213h1214z"/><glyph glyph-name="emdash" unicode="—" horiz-adv-x="2433" d="M2269 741V528H164v213h2105z"/><glyph glyph-name="quoteleft" unicode="‘" horiz-adv-x="694" d="M582 1458L410 983H113l305 475h164z"/><glyph glyph-name="quoteright" unicode="’" horiz-adv-x="743" d="M631 1458L262 983H113l198 475h320z"/><glyph glyph-name="quotesinglbase" unicode="‚" horiz-adv-x="677" d="M588 336L281-139H119l174 475h295z"/><glyph glyph-name="quotedblleft" unicode="“" horiz-adv-x="1118" d="M1006 1458L834 983H537l307 475h162zm-424 0L410 983H113l305 475h164z"/><glyph glyph-name="quotedblright" unicode="”" horiz-adv-x="1118" d="M1006 1458L698 983H537l174 475h295zm-424 0L274 983H113l174 475h295z"/><glyph glyph-name="quotedblbase" unicode="„" horiz-adv-x="1118" d="M1006 336L698-139H537l170 475h299zm-424 0L274-139H113l170 475h299z"/><glyph glyph-name="dagger" unicode="†" horiz-adv-x="1130" d="M670 1503v-493h334V821H670V-279H461V821H127v189h334v493h209z"/><glyph glyph-name="daggerdbl" unicode="‡" horiz-adv-x="1214" d="M670 1503v-493h334V821H670V406h334V217H670v-496H461v496H127v189h334v415H127v189h334v493h209z"/><glyph glyph-name="bullet" unicode="•" horiz-adv-x="972" d="M487 860q108 0 186.5-78T752 596q0-109-78.5-186.5T487 332q-110 0-188 77t-78 187q0 109 78 186.5T487 860z"/><glyph glyph-name="ellipsis" unicode="…" horiz-adv-x="1794" d="M1468 293q66 0 114-47t48-113-48-114-114-48-113.5 48-47.5 114 47.5 113 113.5 47zm-1142 0q66 0 113.5-47T487 133 439.5 19 326-29 212 19t-48 114 48 113 114 47zm571 0q66 0 114-47t48-113-48-114-114-48-114 48-48 114 48 113 114 47z"/><glyph glyph-name="perthousand" unicode="‰" horiz-adv-x="2254" d="M1372 1458L377 0H211l1001 1458h160zm-213-946q113 0 192-79t79-191q0-111-79.5-191T1159-29 968 51t-79 191q0 112 78.5 191t191.5 79zm0-135q-55 0-93-39t-38-96q0-56 38-94.5t93-38.5q56 0 93.5 38t37.5 95-38 96-93 39zM430 1487q112 0 191-78.5t79-191.5q0-111-79-191t-191-80-191 80-79 191q0 113 79 191.5t191 78.5zm0-135q-55 0-93-39t-38-96q0-56 38-95t93-39q56 0 93.5 38.5T561 1217t-38 96-93 39zm1395-840q113 0 191.5-79t78.5-191q0-111-79-191t-191-80-191.5 80-79.5 191q0 112 79 191t192 79zm0-135q-55 0-93-39t-38-96q0-56 38-94.5t93-38.5q56 0 93.5 38t37.5 95-38 96-93 39z"/><glyph glyph-name="guilsinglleft" unicode="‹" horiz-adv-x="921" d="M758 975L446 537 758 98H481L164 537l317 438h277z"/><glyph glyph-name="guilsinglright" unicode="›" horiz-adv-x="921" d="M442 975l316-438L442 98H164l313 439-313 438h278z"/><glyph glyph-name="fraction" unicode="⁄" horiz-adv-x="1239" d="M1231 1458L236 0H8l1002 1458h221z"/><glyph glyph-name="uni20AA" unicode="₪" horiz-adv-x="2326" d="M2210 1094V645q0-369-230-545-170-129-424-129-262 0-428 131-111 87-168 221.5T903 627v47q0 94-44 143t-130 49H412V0H143v1094h635q243 0 338-185 45-85 45-243v-39q0-47 10-105 151 39 205 102.5t54 206.5v263h251V831q0-103-24.5-182.5t-63-129.5-99-85.5-119-53.5-136.5-32q42-56 88-86 98-67 225-67 141 0 236 67 162 113 162 365v467h260z"/><glyph glyph-name="Euro" unicode="€" horiz-adv-x="1579" d="M1036 1491q249 0 406-121l-94-246q-135 117-318 117-128 0-243.5-64T606 995h690l-65-172H549q-6-43-6-92 0-47 6-90h610l-65-172H606q66-118 181.5-182t248.5-64q89 0 173 27t137 69V43q-122-70-310-70-252 0-452.5 131.5T305 469H70l65 172h133q-4 58-4 90 0 30 4 92H70l63 172h172q78 231 278 363.5t453 132.5z"/><glyph glyph-name="trademark" unicode="™" horiz-adv-x="2156" d="M1862 1458l88-833h-158l-63 614-263-631h-123l-260 631-65-614H860l88 833h207l250-612 252 612h205zm-1096 0v-139H565V625H408v694H205v139h561z"/><glyph glyph-name="partialdiff" unicode="∂" horiz-adv-x="1368"/><glyph glyph-name="emptyset" unicode="∅" horiz-adv-x="1415" d="M1153 1255l117-114-109-109q103-144 103-313 0-109-42.5-208t-114-170.5-170.5-114T729 184q-169 0-313 103L307 178 190 293l109 108Q197 547 197 719q0 144 71 266.5t193.5 194T729 1251q176 0 315-104zm-426-219q-132 0-225.5-93.5T408 717q0-89 45-162l436 436q-73 45-162 45zm277-162L569 440q67-43 158-43 132 0 226 94t94 226q0 90-43 157z"/><glyph glyph-name="product" unicode="∏" horiz-adv-x="1607" d="M1452 1458v-235h-125V0h-256v1223H541V0H276v1223H156v235h1296z"/><glyph glyph-name="summation" unicode="∑" horiz-adv-x="1380" d="M1237 1458v-235H547l504-504-512-483h696V0H168v231l516 490-516 510v227h1069z"/><glyph glyph-name="minus" unicode="−" horiz-adv-x="1585" d="M1405 834V614l-1225 2v218h1225z"/><glyph glyph-name="radical" unicode="√" horiz-adv-x="1333" d="M1982 1964v-223h-690L698-12H477L102 1034h281l203-612 510 1542h886z"/><glyph glyph-name="infinity" unicode="∞" horiz-adv-x="1611" d="M1102 1085q145 0 247.5-98T1452 725q0-166-103.5-265.5T1098 360q-177 0-291 158-116-158-293-158-147 0-250.5 99.5T160 725q0 165 103.5 262.5T522 1085q87 0 156.5-35.5T807 930q120 155 295 155zM520 899q-66 0-113-49.5T360 725q0-76 46-126t114-50q61 0 105 44t84 130q-38 85-83 130.5T520 899zm572 0q-60 0-104-45t-85-131q78-174 189-174 67 0 113 50t46 126q0 75-47 124.5T1092 899z"/><glyph glyph-name="integral" unicode="∫" horiz-adv-x="948" d="M723 1653q88 0 156-23v-215q-60 17-99 17-125 0-125-129V176q0-155-90.5-244.5T317-158q-83 0-153 23V80q60-17 98-17 125 0 125 130v1126q0 155 91 244.5t245 89.5z"/><glyph glyph-name="approxequal" unicode="≈" horiz-adv-x="1519" d="M514 1157q59 0 115.5-18t150.5-60q101-45 149.5-61.5t96.5-16.5q66 0 131 34.5t158 115.5V924q-144-144-297-144-113 0-277 76-103 48-152 64.5T492 936q-63-1-126.5-36.5T205 782v232q91 76 163.5 109.5T514 1157zm0-459q57 0 111.5-18T780 618q92-41 147-59t103-18q63 0 127.5 34.5T1315 690V465q-137-143-297-143-110 0-277 75-66 30-98 43t-74.5 25-76.5 12q-62 0-125.5-35T205 324v229q92 76 164.5 110.5T514 698z"/><glyph glyph-name="notequal" unicode="≠" horiz-adv-x="1470" d="M1266 1317l-176-246h192V854H936L750 596h532V379H596L420 133H205l176 246H188v217h347l184 258H188v217h684l177 246h217z"/><glyph glyph-name="lessequal" unicode="≤" horiz-adv-x="1198" d="M993 1360v-230L479 920l514-215V475L205 821v189zm0-1032V127H205v201h788z"/><glyph glyph-name="greaterequal" unicode="≥" horiz-adv-x="1198" d="M205 1360l788-350V821L205 475v230l514 215-514 210v230zM993 328V127H205v201h788z"/><glyph glyph-name="lozenge" unicode="◊" horiz-adv-x="1478" d="M848 1479l438-748L848-20H631L197 731l434 748h217zm-109-252L455 731l284-498 287 498z"/><glyph glyph-name="uniFB2A" unicode="שׁ" horiz-adv-x="1546" d="M1423 1094V645q0-369-229-545Q1026-29 770-29q-258 0-428 131-225 175-225 543v449h258V627q0-47 10-105 103 26 156.5 61t77.5 92.5T643 831v263h252V831q0-103-24.5-182.5t-63-129.5-99-85.5-119-53.5T453 348q43-56 88-86 98-67 225-67 140 0 235 67 162 113 162 365v467h260zm-39 315v-170h-172v170h172z"/><glyph glyph-name="uniFB2B" unicode="שׂ" horiz-adv-x="1546" d="M1423 1094V645q0-369-229-545Q1026-29 770-29q-258 0-428 131-225 175-225 543v449h258V627q0-47 10-105 103 26 156.5 61t77.5 92.5T643 831v263h252V831q0-103-24.5-182.5t-63-129.5-99-85.5-119-53.5T453 348q43-56 88-86 98-67 225-67 140 0 235 67 162 113 162 365v467h260zM334 1409v-170H162v170h172z"/><glyph glyph-name="shindageshshindothb" unicode="שּׁ" horiz-adv-x="1546" d="M1423 1094V645q0-369-229-545Q1026-29 770-29q-258 0-428 131-225 175-225 543v449h258V627q0-47 10-105 103 26 156.5 61t77.5 92.5T643 831v263h252V831q0-103-24.5-182.5t-63-129.5-99-85.5-119-53.5T453 348q43-56 88-86 98-67 225-67 140 0 235 67 162 113 162 365v467h260zm-381-527V408H874v159h168zm342 842v-170h-172v170h172z"/><glyph glyph-name="shindageshsindothb" unicode="שּׂ" horiz-adv-x="1546" d="M1423 1094V645q0-369-229-545Q1026-29 770-29q-258 0-428 131-225 175-225 543v449h258V627q0-47 10-105 103 26 156.5 61t77.5 92.5T643 831v263h252V831q0-103-24.5-182.5t-63-129.5-99-85.5-119-53.5T453 348q43-56 88-86 98-67 225-67 140 0 235 67 162 113 162 365v467h260zm-381-527V408H874v159h168zm-708 842v-170H162v170h172z"/><glyph glyph-name="alefpatahhb" unicode="אַ" horiz-adv-x="1261" d="M1180 1094l-35-172q-11-52-18.5-84t-21-75-28-70.5-38-60.5-52-54.5T919 535t-90-35L1198 0H879L530 469q-23-12-41-27t-31-35.5-21-35.5-15-42-9.5-39.5-7.5-44-6-40.5L362 0H80l43 227q33 175 93 268t192 138L68 1094h319l324-437q29 11 50.5 25.5t36.5 34 25 36.5 17 44.5 10.5 45 9 51T868 944l27 150h285zM936-195v-149H299v149h637z"/><glyph glyph-name="alefqamatshb" unicode="אָ" horiz-adv-x="1261" d="M1178 1094l-35-172q-11-52-18.5-84t-21-75-28-70.5-38-60.5-52-54.5T917 535t-90-35L1196 0H877L528 469q-23-12-41-27t-31-35.5-21-35.5-15-42-9.5-39.5-7.5-44-6-40.5L360 0H78l43 227q33 175 93 268t192 138L66 1094h319l324-437q29 11 50.5 25.5t36.5 34 25 36.5 17 44.5 10.5 45 9 51T866 944l27 150h285zM936-195v-141H680l25-319H532l25 319H299v141h637z"/><glyph glyph-name="alefdageshhb" unicode="אּ" horiz-adv-x="1261" d="M1178 1094l-35-172q-11-52-18.5-84t-21-75-28-70.5-38-60.5-52-54.5T917 535t-90-35L1196 0H877L528 469q-23-12-41-27t-31-35.5-21-35.5-15-42-9.5-39.5-7.5-44-6-40.5L360 0H78l43 227q33 175 93 268t192 138L66 1094h319l324-437q29 11 50.5 25.5t36.5 34 25 36.5 17 44.5 10.5 45 9 51T866 944l27 150h285zm-412 0V934H592v160h174z"/><glyph glyph-name="betdageshhb" unicode="בּ" horiz-adv-x="1153" d="M102 1094h443q125 0 211.5-50.5T887 899q39-83 39-233V227h178V0H92v227h561v447q0 192-176 192H102v228zm310-457V467H240v170h172z"/><glyph glyph-name="gimeldageshhb" unicode="גּ" horiz-adv-x="825" d="M668 1094V469.5l.5-40L670 384l3-42.5 5-48.5 7-45.5 9.5-51L707 147 748 0H492q-27 74-48 156h-6L74-45v266l325 178q-2 47-2 160v309H129v226h539zM244 666V496H72v170h172z"/><glyph glyph-name="daletdageshhb" unicode="דּ" horiz-adv-x="1144" d="M1073 1094V866H838V0H565v866H57v228h1016zM387 637V467H215v170h172z"/><glyph glyph-name="hedageshhb" unicode="הּ" horiz-adv-x="1230" d="M125 1094h608q122 0 209-49t129-136q43-88 43-243V0H840v674q0 94-44 143t-130 49H125v228zm272-529V0H125v565h272zm301 125V520H526v170h172z"/><glyph glyph-name="uniFB35" unicode="וּ" horiz-adv-x="628" d="M502 1094V0H225v866H100v228h402zM111 637V467H-61v170h172z"/><glyph glyph-name="zayindageshhb" unicode="זּ" horiz-adv-x="804" d="M723 1094V866H586q-162 0-162-166 0-61 20-139Q482 407 637 0H334q-22 60-59 184t-56 207q-29 132-29 219 0 150 80 256H80v228h643zm0-383V541H551v170h172z"/><glyph glyph-name="tetdageshhb" unicode="טּ" horiz-adv-x="1280" d="M815 1106q195 0 285-119 51-67 70.5-174t19.5-270q0-258-149-415T653-29 265.5 128 117 543v551h272V543q0-152 67.5-245T653 205t197 93 68 245q0 63-2 102t-7.5 81-17.5 66-31.5 44.5-49.5 29-71 8.5q-68 0-161-26v217q121 41 237 41zm-88-469V467H555v170h172z"/><glyph glyph-name="yoddageshhb" unicode="יּ" horiz-adv-x="702" d="M578 1094V383H305v483H180v228h398zM152 694V524H-20v170h172z"/><glyph glyph-name="finalkafdageshhb" unicode="ךּ" horiz-adv-x="1019" d="M74 1094h432q189 0 282-88 105-98 105-304v-966H621v880q0 138-41 193t-164 55H74v230zm321-492V444H209v158h186z"/><glyph glyph-name="kafdageshhb" unicode="כּ" horiz-adv-x="1015" d="M96 1094h262q584 0 584-545Q942 0 354 0H88v227h262q157 0 236.5 82.5T666 549q0 155-77 236t-233 81H96v228zm291-457V467H215v170h172z"/><glyph glyph-name="lameddageshhb" unicode="לּ" horiz-adv-x="1003" d="M338 1462v-368h580V881L590 0H301l326 866H68v596h270zm-12-766V526H154v170h172z"/><glyph glyph-name="memdageshhb" unicode="מּ" horiz-adv-x="1380" d="M829 1114q191 0 320-123 144-136 154-393 7-172-41-301.5T1130 94Q1000-20 768-20q-32 0-119 6v223q50-4 74-4 156 0 232.5 80t76.5 268q0 156-61 244-64 94-176 94-126 0-197-113-74-117-111-403-10-82-43-375H168q35 367 96 723L61 1094h316l94-164q127 184 358 184zm23-496V449H680v169h172z"/><glyph glyph-name="nundageshhb" unicode="נּ" horiz-adv-x="751" d="M629 1094V369q0-135-35-207-39-79-114.5-122.5T297-4H86v225h135q133 0 133 150v495H121v228h508zM207 639V469H35v170h172z"/><glyph glyph-name="samekhdageshhb" unicode="סּ" horiz-adv-x="1275" d="M121 1094h530q239 0 381-123 162-140 162-418 0-267-148-424.5T659-29q-240 0-389 157T121 543v551zm528-228H393V543q0-152 67.5-245T657 205t197 93 68 247q0 166-76 248-67 73-197 73zm88-227V469H565v170h172z"/><glyph glyph-name="finalpedageshhb" unicode="ףּ" horiz-adv-x="1181" d="M102 1094h566q125 0 214.5-53T1016 895q39-80 39-233v-926H780v936q0 93-46.5 142.5T598 864H371V717q0-85 37.5-120.5T516 563V358q-119-16-210.5 15.5T158 493t-56 226v375z"/><glyph glyph-name="pedageshhb" unicode="פּ" horiz-adv-x="1204" d="M584 1124q258 0 400-142t142-409q0-283-164.5-428T479 0H158v225h293q217 0 314 78.5T862 567q0 328-284 328-115 0-177.5-49.5T338 713q0-128 145-152V344q-45 0-94 9t-106.5 35T181 453t-73.5 106T78 711q0 187 135 300t371 113zm153-393V561H565v170h172z"/><glyph glyph-name="tsadidageshhb" unicode="צּ" horiz-adv-x="1150" d="M348 1094l307-418q20 11 36 25t28 34 19 33.5 14 41.5 9.5 39.5T769 896t7 44l25 152h282l-32-174q-33-174-91.5-266.5T774 510l230-309V0H106v227h566L37 1094h311zm-69-537V387H106v170h173z"/><glyph glyph-name="qofdageshhb" unicode="קּ" horiz-adv-x="1257" d="M1171 1094V870L864-2H580l303 866H131v230h1040zM412 563v-827H139v827h273zm254 170V563H494v170h172z"/><glyph glyph-name="reshdageshhb" unicode="רּ" horiz-adv-x="1028" d="M76 1094h454q121 0 207.5-49T866 909q43-88 43-243V0H637v674q0 192-176 192H76v228zm325-459V465H229v170h172z"/><glyph glyph-name="shindageshhb" unicode="שּ" horiz-adv-x="1546" d="M1423 1094V645q0-369-229-545Q1026-29 770-29q-258 0-428 131-225 175-225 543v449h258V627q0-47 10-105 103 26 156.5 61t77.5 92.5T643 831v263h252V831q0-103-24.5-182.5t-63-129.5-99-85.5-119-53.5T453 348q43-56 88-86 98-67 225-67 140 0 235 67 162 113 162 365v467h260zm-385-559V365H866v170h172z"/><glyph glyph-name="tavdageshhb" unicode="תּ" horiz-adv-x="1425" d="M84 1094h842q120 0 208.5-49T1266 909q41-80 41-241V0h-273v674q0 192-174 192H602V365q0-88-20.5-155.5t-53.5-109-80-68T353-4 250-14Q176-14 90 8v205q75-6 84-6 36 0 61.5 8t48 28.5 33.5 61T328 406v460H84v228zm817-457V467H729v170h172z"/><glyph glyph-name="uniFB4B" unicode="וֹ" horiz-adv-x="628" d="M502 1094V0H225v866H100v228h402zm-80 313v-170H250v170h172z"/><glyph glyph-name="i.loclTRK" horiz-adv-x="555" d="M412 1071V0H143v1071h269zm-131 498q62 0 104.5-43.5T428 1419q0-61-43-104t-104-43q-62 0-106 43t-44 104q0 63 44 106.5t106 43.5z"/><glyph glyph-name="f_b" horiz-adv-x="2091" d="M662 1608q143 0 296-39h267V965h4q48 63 128.5 99t178.5 36q144 0 255.5-78T1961 817t58-280-58-281-170-206.5T1534-29q-111 0-195.5 45T1212 137L1133 0H956v1317q-49 27-129.5 46T672 1382q-102 0-149.5-41T475 1208v-137h262V850H475V0H209v850H84v221h125v150q0 103 34 179t96.5 120.5 142.5 66 180 21.5zm823-734q-127 0-195.5-96.5T1221 537q0-146 69-243t195-97q127 0 195.5 96.5T1749 537q0 145-68.5 241T1485 874z"/><glyph glyph-name="f_f_b" horiz-adv-x="2838" d="M1409 1608q144 0 297-39h266V965h4q50 64 130.5 99.5T2284 1100q144 0 255.5-78T2709 817t58-280q0-114-34.5-216.5t-96-180-154-123.5T2281-29q-110 0-194.5 44.5T1960 137L1880 0h-176v1317q-51 28-131.5 46.5T1419 1382q-102 0-149-41t-47-133v-137h262V850h-262V0H956v850H475V0H209v850H84v221h125v193q0 156 92 247t268 91q145 0 250-48v-223q-116 51-205 51-139 0-139-139v-172h481v150q0 103 34 179t96.5 120.5 142.5 66 180 21.5zm823-734q-127 0-195.5-96.5T1968 537q0-146 69-243t195-97q127 0 196 96.5t69 243.5q0 94-28.5 168.5T2379 827t-147 47z"/><glyph glyph-name="f_f_h" horiz-adv-x="2789" d="M1409 1608q144 0 297-39h266V954q51 75 134.5 111.5T2284 1102q176 0 283.5-115T2675 678V0h-271v604q0 40-3.5 72.5t-15.5 70-32.5 63.5-57.5 43-87 17q-54 0-96.5-20t-68.5-51.5-43-75-23.5-86-6.5-88.5V0h-266v1317q-49 27-129.5 46t-155.5 19q-102 0-149-41t-47-133v-137h262V850h-262V0H956v850H475V0H209v850H84v221h125v193q0 156 92 247t268 91q145 0 250-48v-223q-116 51-205 51-139 0-139-139v-172h481v150q0 103 34 179t96.5 120.5 142.5 66 180 21.5z"/><glyph glyph-name="f_f_j" horiz-adv-x="2060" d="M1284 1595q94 0 186-28v-215q-73 24-127 24-143 0-143-135v-170h725V-182q0-154-93.5-246T1577-520q-68 0-143 16v213q45-10 84-10 69 0 105 35t36 100V850h-459V0H934v850H475V0H209v850H84v221h125v186q0 154 93.5 246t256.5 92q94 0 186-28v-215q-73 24-127 24-143 0-143-135v-170h459v186q0 154 93.5 246t256.5 92zm643-118v-232h-270v232h270z"/><glyph glyph-name="f_f_k" horiz-adv-x="2727" d="M1409 1608q144 0 297-39h264V571l416 500h321l-444-530L2724 0h-336l-418 496V0h-266v1317q-49 27-129.5 46t-155.5 19q-102 0-149-41t-47-133v-137h262V850h-262V0H956v850H475V0H209v850H84v221h125v193q0 156 92 247t268 91q145 0 250-48v-223q-116 51-205 51-139 0-139-139v-172h481v150q0 103 34 179t96.5 120.5 142.5 66 180 21.5z"/><glyph glyph-name="f_f_t" horiz-adv-x="2254" d="M1282 1595q94 0 186-28v-215q-73 24-127 24-143 0-143-135v-170h369q47 0 75.5 29t28.5 78v165h250v-272h256V854h-256V328q0-135 143-135 54 0 127 24V0q-95-29-186-29-163 0-256.5 92T1655 309v545h-457V0H932v854H475V0H209v854H84v217h125v186q0 154 93.5 246t256.5 92q94 0 186-28v-215q-73 24-127 24-143 0-143-135v-170h457v186q0 154 93.5 246t256.5 92z"/><glyph glyph-name="f_h" horiz-adv-x="2041" d="M662 1608q143 0 296-39h267V954q50 73 131.5 110.5T1536 1102q177 0 284-115.5T1927 678V0h-270v604q0 266-197 266-67 0-115.5-29t-74-78.5-36.5-102-11-111.5V0H956v1317q-49 27-129.5 46T672 1382q-102 0-149.5-41T475 1208v-137h262V850H475V0H209v850H84v221h125v150q0 103 34 179t96.5 120.5 142.5 66 180 21.5z"/><glyph glyph-name="f_j" horiz-adv-x="1357" d="M559 1595q94 0 186-28v-215q-73 24-127 24-143 0-143-135v-170h748V-182q0-154-94-246t-255-92q-68 0-143 16v213q45-10 84-10 69 0 105 35t36 100V850H475V0H209v850H84v221h125v186q0 154 93.5 246t256.5 92zm666-118v-232H954v232h271z"/><glyph glyph-name="f_k" horiz-adv-x="1980" d="M662 1608q143 0 296-39h265V571l415 500h322l-444-530L1976 0h-336l-417 496V0H956v1317q-49 27-129.5 46T672 1382q-102 0-149.5-41T475 1208v-137h262V850H475V0H209v850H84v221h125v150q0 103 34 179t96.5 120.5 142.5 66 180 21.5z"/><glyph glyph-name="f_t" horiz-adv-x="1544" d="M559 1595q94 0 186-28v-215q-73 24-127 24-143 0-143-135v-170h381q48 0 76.5 29t28.5 78v165h249v-272h256V854h-256V328q0-65 36.5-100t107.5-35q54 0 127 24V0q-95-29-187-29-163 0-256.5 92T944 309v545H475V0H209v854H84v217h125v186q0 154 93.5 246t256.5 92z"/><glyph glyph-name="t_f" horiz-adv-x="1556" d="M1321 1595q94 0 186-28v-215q-73 24-127 24-143 0-143-135v-170h262V854h-262V0H971v854H457V328q0-135 143-135 54 0 127 24V0q-95-29-186-29-163 0-257 92t-94 246v545H41v205h61q48 0 76.5 28.5T207 1165v178h250v-272h514v186q0 154 93.5 246t256.5 92z"/><glyph glyph-name="t_i" horiz-adv-x="1380" d="M457 1343v-272h778V0H965v854H457V328q0-135 143-135 54 0 127 24V0q-95-29-186-29-163 0-257 92t-94 246v545H41v205h61q48 0 76.5 28.5T207 1165v178h250zm780 134v-232H963v232h274z"/><glyph glyph-name="t_t" horiz-adv-x="1548" d="M1214 1343v-272h256V854h-256V328q0-65 36.5-100t107.5-35q54 0 127 24V0q-95-29-187-29-163 0-256.5 92T948 309v545H457V328q0-135 143-135 54 0 127 24V0q-95-29-186-29-163 0-257 92t-94 246v545H41v205h61q48 0 76.5 28.5T207 1165v178h250v-276h403q48 0 76.5 29t28.5 78v169h249z"/><glyph glyph-name="t_y" horiz-adv-x="1916" d="M457 1343v-272h567l307-694 309 694h271L1208-498H934l262 586-344 766H457V328q0-135 143-135 54 0 127 24V0q-95-29-186-29-163 0-257 92t-94 246v545H41v205h61q48 0 76.5 28.5T207 1165v178h250z"/><glyph glyph-name="a.sc" horiz-adv-x="1228" d="M737 1184L1208 0H942l-94 246H381L287 0H20l472 1184h245zM614 860L459 451h311z"/><glyph glyph-name="b.sc" horiz-adv-x="1093" d="M141 1184h488q139 0 235.5-97T961 850q0-141-99-217 80-33 130-104t50-173q0-150-103-253T688 0H141v1184zm494-672H401V195h236q65 0 110.5 46.5T793 354q0 65-46 111.5T635 512zm-62 477H401V705h172q60 0 102 41.5T717 848q0 59-42 100t-102 41z"/><glyph glyph-name="c.sc" horiz-adv-x="1173" d="M723 1212q191 0 338-86V889q-61 42-147 71t-175 29q-109 0-200-43.5T390 810t-58-218 58-218 149-135.5T739 195q89 0 175 29t147 71V55Q912-29 723-29q-129 0-245.5 43.5T272 136 130.5 332.5 78 592q0 113 34 212.5T206.5 978 348 1105t176.5 80 198.5 27z"/><glyph glyph-name="d.sc" horiz-adv-x="1255" d="M133 1184h434q174 0 313.5-75T1099 898.5t79-306.5q0-259-173.5-425.5T567 0H133v1184zm416-223H391V223h158q161 0 267 103t106 268q0 164-105.5 265.5T549 961z"/><glyph glyph-name="e.sc" horiz-adv-x="929" d="M823 1184V961H395V711h383V500H395V225h428V0H133v1184h690z"/><glyph glyph-name="f.sc" horiz-adv-x="921" d="M823 1184V961H395V711h383V500H395V0H133v1184h690z"/><glyph glyph-name="fi.sc" horiz-adv-x="1468" d="M823 1184V961H399V711h379V500H399V0H133v1184h690zm500 0V0h-270v1184h270z"/><glyph glyph-name="fl.sc" horiz-adv-x="1777" d="M823 1184V961H399V711h379V500H399V0H133v1184h690zm492 0V231h411V0h-679v1184h268z"/><glyph glyph-name="g.sc" horiz-adv-x="1323" d="M733 1210q230 0 412-106V852q-81 67-184.5 103T752 991q-185 0-301.5-106.5T334 594q0-177 102-279 53-55 139.5-87.5T756 195q131 0 217 55v192H774v203h434V119q-79-65-201-106.5T745-29q-134 0-254.5 42T278 132 132 328 78 592q0 144 53.5 263T276 1050.5t208.5 118T733 1210z"/><glyph glyph-name="h.sc" horiz-adv-x="1310" d="M1167 1184V0H899v502H412V0H143v1184h269V713h487v471h268z"/><glyph glyph-name="i.sc" horiz-adv-x="571" d="M422 1184V0H150v1184h272z"/><glyph glyph-name="dotlessi.sc" horiz-adv-x="571" d="M422 1184V0H150v1184h272z"/><glyph glyph-name="j.sc" horiz-adv-x="679" d="M530 1184V317q0-157-96.5-250.5T170-27q-64 0-131 15v219q42-10 80-10 67 0 104 36.5T260 336v848h270z"/><glyph glyph-name="k.sc" horiz-adv-x="1179" d="M1149 1184L637 592 1149 0H823L406 492V0H139v1184h267l2-492 415 492h326z"/><glyph glyph-name="l.sc" horiz-adv-x="872" d="M410 1184V229h411V0H141v1184h269z"/><glyph glyph-name="m.sc" horiz-adv-x="1773" d="M1534 1184L1661 0h-258l-84 791L989-12H784L455 791 369 0H113l127 1184h313l334-813 334 813h313z"/><glyph glyph-name="n.sc" horiz-adv-x="1374" d="M1235 1184V0h-231L395 770V0H139v1184h234l606-770v770h256z"/><glyph glyph-name="o.sc" horiz-adv-x="1404" d="M702 1208q120 0 231-41.5t199.5-117T1274 855t53-263q0-145-53-264.5t-141.5-196T933 13 702-29q-96 0-186.5 26t-170 78.5-139 125.5-94 174T78 592t34.5 216 94 172.5 139 124.5 170 77.5T702 1208zm3-233q-69 0-134-25t-118-71.5-85-121T336 592q0-92 32-168t85-123 118-72.5T705 203q68 0 132.5 25.5t117 72.5 84.5 123 32 168q0 91-32 165.5t-84.5 121-117 71.5T705 975z"/><glyph glyph-name="p.sc" horiz-adv-x="1044" d="M154 1184h469q149 0 254.5-105T983 823q0-149-105.5-254.5T623 463H414V0H152zm415-199H412V662h155q68 2 115 48.5T729 823t-47 114-113 48z"/><glyph glyph-name="q.sc" horiz-adv-x="1462" d="M702 1208q120 0 231-41.5t199.5-117T1274 855t53-263q0-195-92-340L1483 0h-309l-87 94Q916-29 702-29q-96 0-186.5 26t-170 78.5-139 125.5-94 174T78 592t34.5 216 94 172.5 139 124.5 170 77.5T702 1208zm0-229q-69 0-134-25.5T450.5 881 366 759t-32-167q0-93 32-169t85-123 117.5-72T702 203t134 25 118 72 85 123 32 169q0 92-32 167t-85 122-118 72.5T702 979z"/><glyph glyph-name="r.sc" horiz-adv-x="1089" d="M154 1184h469q149 0 254.5-105T983 823q0-126-77-222T709 475L1090 0H791L436 465h-22V0H152zm415-199H412V662h155q68 2 115 48.5T729 823t-47 114-113 48z"/><glyph glyph-name="s.sc" horiz-adv-x="1003" d="M504 1208q181 0 350-94V893q-188 108-328 108-80 0-126-34t-46-103q0-31 11-54.5t26-39 50-32 62-25.5 83-27 96-33.5 90-45 80.5-64 52-87.5T926 338q0-163-118-263T492-25q-208 0-371 97v227q185-115 354-115 87 0 135.5 36.5T659 324q0 28-10.5 49.5t-25 35.5-49.5 29-61.5 24-84.5 27q-32 10-55 18t-61 25.5-66 36-59.5 48T135 679t-33.5 79.5T88 858q0 161 112 255.5t304 94.5z"/><glyph glyph-name="t.sc" horiz-adv-x="1001" d="M938 1184V961H635V0H367v961H61v223h877z"/><glyph glyph-name="u.sc" horiz-adv-x="1261" d="M1124 1184V475q0-233-139-368.5T631-29 276.5 106.5 137 475v709h266V428q0-94 67-160.5T631 201t160.5 66.5T858 428v756h266z"/><glyph glyph-name="v.sc" horiz-adv-x="1245" d="M1217 1184L745 0H500L29 1184h266l328-840 327 840h267z"/><glyph glyph-name="w.sc" horiz-adv-x="2031" d="M1135 1188l309-789 307 785h279L1552-2h-215l-317 801L702-2H487L10 1184h279l307-785 309 789h230z"/><glyph glyph-name="x.sc" horiz-adv-x="1196" d="M1139 1184L754 631 1190 0H883L600 414 319 0H10l436 631-383 553h306l231-340 231 340h308z"/><glyph glyph-name="y.sc" horiz-adv-x="1146" d="M1147 1184L709 524V0H438v524L0 1184h301l272-420 271 420h303z"/><glyph glyph-name="z.sc" horiz-adv-x="1024" d="M934 1184v-168L426 223h500V0H90v168l508 793H98v223h836z"/><glyph glyph-name="zero.tf" horiz-adv-x="1269" d="M635 1489q255 0 400-192.5T1180 729q0-374-145-566T635-29 235 163 90 729q0 375 145 567.5T635 1489zm0-250q-142 0-207.5-122.5T362 729q0-263 65.5-386.5T635 219t207 123 65 387q0 265-65 387.5T635 1239z"/><glyph glyph-name="one.tf" horiz-adv-x="1269" d="M774 1458V238h303V0H190v238h304v796H242v193q117 4 200.5 66T555 1458h219z"/><glyph glyph-name="two.tf" horiz-adv-x="1269" d="M637 1489q209 0 338-120.5t129-313.5q0-80-30-153t-65-120-121-149q-17-20-26-31L553 238h516V0H201v197l534 637q62 75 84.5 118t22.5 95q0 89-53.5 145.5T635 1249q-107 0-161-65.5T420 1016H168q-2 210 125 341.5T637 1489z"/><glyph glyph-name="three.tf" horiz-adv-x="1269" d="M987 1458l-4-192-274-326q160-26 261-142.5T1071 496q0-164-82-285.5T768 28 453-33Q318-33 205 4v248q108-41 231-41 160 0 259.5 74.5T795 494q0 110-65 168.5T573 721q-94 0-182-68v248l268 322H219v235h768z"/><glyph glyph-name="four.tf" horiz-adv-x="1269" d="M911 1458L424 535h336v223l260 2V535h139V301h-139V0L760-2v303H119v211l499 946h293z"/><glyph glyph-name="five.tf" horiz-adv-x="1269" d="M981 1458v-235H526l-16-295q65 18 137 18 118 0 215.5-51t158-155 60.5-244q0-123-47.5-224t-131-167-197-102T459-33q-152 0-264 45l16 242q105-43 233-43 161 0 261 74t100 207q0 110-64 169.5T588 721q-105 0-172-76l-174 72 51 741h688z"/><glyph glyph-name="six.tf" horiz-adv-x="1269" d="M948 1458L537 838q69 34 159 34 79 0 155-28t138.5-79.5T1090 629t38-187q0-206-141-340.5T627-33q-216 0-352 134.5T139 455q0 136 66 288 54 122 184 322l256 393h303zM637 664q-103 0-165-66.5T410 428t62.5-170.5T637 190q101 0 164 67.5T864 428t-63 169.5T637 664z"/><glyph glyph-name="seven.tf" horiz-adv-x="1269" d="M1096 1458v-223q-131-150-215-270T741 707Q627 427 627 0H334q0 466 147 793 97 213 275 421H154v244h942z"/><glyph glyph-name="eight.tf" horiz-adv-x="1269" d="M631 1487q207 0 336-115t129-289q0-98-44.5-181T924 764q103-57 158-150.5t55-210.5q0-194-140-315T633-33 271 89.5 133 408q0 243 213 358-172 116-172 321 0 177 127.5 288.5T631 1487zm4-840q-98 0-161.5-66T410 416q0-98 64-164t161-66 161 66 64 164q0 99-63.5 165T635 647zm2 621q-87 0-142-55t-55-142q0-90 56.5-150.5T637 860t140.5 60.5T834 1071q0 87-55 142t-142 55z"/><glyph glyph-name="nine.tf" horiz-adv-x="1269" d="M643 1491q216 0 351.5-134t135.5-353q0-139-65-289-54-122-184-322L625 0H322l411 621q-72-35-160-35-79 0-155 28t-138.5 79.5T179 829t-38 187q0 206 141.5 340.5T643 1491zm-10-223q-101 0-164-67.5T406 1030q0-102 62.5-168.5T633 795q103 0 165 66t62 169-62.5 170.5T633 1268z"/><glyph glyph-name="zero.sc" horiz-adv-x="1167" d="M584 1212q102 0 186.5-36t150-109 102-194 36.5-281-36.5-281-102-194.5T770.5 7 584-29 397.5 7t-150 109.5-102 194.5T109 592t36.5 281 102 194 150 109 186.5 36zm0-217q-111 0-165-96.5T365 592t54-307 165-97 165 97 54 307-54 306.5T584 995z"/><glyph glyph-name="one.sc" horiz-adv-x="786" d="M582 1184V0H322v795H92v174q106 4 182.5 62.5T379 1184h203z"/><glyph glyph-name="two.sc" horiz-adv-x="960" d="M483 1212q176 0 286-99.5T879 860q0-43-11-84.5t-25.5-74-45-76-54.5-73-69-81.5L451 213h403V0H111v147l432 529q37 47 51.5 67.5T623 795t14 61q0 64-44.5 102.5T479 997q-82 0-125.5-54.5T315 805H82q-8 180 102.5 293.5T483 1212z"/><glyph glyph-name="three.sc" horiz-adv-x="876" d="M729 1184l-4-185-223-235q129-25 211-118t82-243q0-108-45-192T630 77.5t-163.5-75T283-23Q180-23 82 6v219q88-30 186-30 121 0 201 51t80 157q0 83-49 127.5T375 575q-86 0-166-57v195l227 264H88v207h641z"/><glyph glyph-name="four.sc" horiz-adv-x="1050" d="M762 1184L365 449h266v161l221 2V449h117V236H852V0H631v236H82v202l403 746h277z"/><glyph glyph-name="five.sc" horiz-adv-x="903" d="M741 1184V973H373l-15-215q43 14 99 14 154 0 259-100t105-271q0-86-30-157.5t-80-120T594 41 454-8 305-23Q180-23 82 14l14 215q90-34 201-34 76 0 137 20t101 68 40 118q0 81-47.5 127.5T410 575q-84 0-136-61l-155 61 41 609h581z"/><glyph glyph-name="six.sc" horiz-adv-x="993" d="M762 1184L430 692q52 21 117 21 66 0 129.5-22.5t116.5-65 85.5-112T911 358q0-169-117.5-278T494-29Q313-29 197.5 81.5T82 365q0 129 57 249 14 29 37.5 69.5t65 105.5T312 898.5t93.5 142T500 1184h262zM500 528q-79 0-127.5-50T324 348q0-79 48.5-128.5T500 170q81 0 128.5 49.5T676 348q0 80-47.5 130T500 528z"/><glyph glyph-name="seven.sc" horiz-adv-x="894" d="M817 1184V991Q614 766 524 541 431 310 434 0H195q-3 327 98 590 79 207 227 383H72v211h745z"/><glyph glyph-name="eight.sc" horiz-adv-x="995" d="M494 1212q172 0 279.5-96.5T881 874q0-159-127-251 159-101 159-287 0-162-115.5-262.5T498-27Q313-27 197.5 74.5T82 338q0 92 40.5 166T240 623q-125 96-125 256 0 147 105.5 240t273.5 93zm2-696q-74 0-124-49.5T322 344q0-74 49-122t125-48q78 0 127 48t49 122q0 73-50.5 122.5T496 516zm2 494q-68 0-109-40.5T348 862q0-68 41.5-109.5T498 711t108 41.5T647 862q0 67-40.5 107.5T498 1010z"/><glyph glyph-name="nine.sc" horiz-adv-x="993" d="M500 1212q181 0 296-110t115-283q0-130-57-250-14-29-37-69t-65.5-106T682 286t-93.5-143T494 0H231l332 492q-52-21-117-21-66 0-129.5 22.5T200 558t-85.5 111.5T82 825q0 169 118 278t300 109zm-6-198q-81 0-129-49.5T317 836q0-80 48-130.5T494 655q79 0 127.5 50.5T670 836q0 79-48.5 128.5T494 1014z"/><glyph glyph-name="comma.tf" horiz-adv-x="737" d="M602 268L309-186H133l156 454h313z"/><glyph glyph-name="period.tf" horiz-adv-x="737" d="M369 293q66 0 113.5-47T530 133 482.5 19 369-29 255 19t-48 114 48 113 114 47z"/><glyph glyph-name="slash.sc" horiz-adv-x="970" d="M909 1184L276 0H61l633 1184h215z"/><glyph glyph-name="ampersand.sc" horiz-adv-x="1382" d="M606 1225q149 0 242.5-79.5T942 940q0-115-88-203-41-49-158-119l211-231 320 264V371l-172-142L1264 0H979l-88 92Q754-25 575-25q-79 0-152.5 23.5T290 65.5t-94.5 115T160 340q0 197 188 319-102 143-102 254 0 136 102 224t258 88zm135-973L496 510q-53-33-80-70t-27-90q0-77 54-121.5T575 184q87 0 166 68zm-141 778q-56 0-91.5-31.5T473 915q0-67 82-149 90 48 128 84.5t38 77.5q0 43-34 72.5t-87 29.5z"/><glyph glyph-name="cent.sc" horiz-adv-x="1294" d="M999 1393l-45-199q97-22 172-68V889q-92 65-221 90L727 201q43-6 82-6 83 0 169.5 29t147.5 71V55Q977-29 784-29q-54 0-106 9l-39-168H494l47 202Q362 81 252.5 232T143 592q0 113 34 212.5T271.5 978 413 1105t176.5 80 198.5 27h25l41 181h145zM592 246l170 741q-159-14-262-117.5T397 592q0-123 52.5-210.5T592 246z"/><glyph glyph-name="dollar.sc" horiz-adv-x="1124" d="M752 1366l-25-178q90-21 182-74V893q-127 71-213 92l-43-303q66-19 117.5-43.5T873 574t79.5-100.5T981 336q0-160-117.5-260.5T551-25l-23-161H379l24 174Q276 13 176 72v227q130-78 258-104l43 297q-63 17-116.5 43.5t-105.5 69-82 108T143 860q0 161 113 254.5t301 93.5h23l22 158h150zM618 444l-36-256q64 11 98.5 45t34.5 89q0 42-23.5 71T618 444zM510 731l39 268q-62-5-100.5-38T410 866q0-89 100-135z"/><glyph glyph-name="Euro.sc" horiz-adv-x="1384" d="M897 1210q204 0 334-100l-82-211q-110 98-256 98-99 0-188.5-48T563 813h549l-55-151H512q-6-30-6-68 0-36 6-66h492l-58-151H563q53-89 142.5-136.5T897 193q76 0 146 24.5t108 61.5V37q-101-57-254-57-131 0-248.5 45t-209 136T305 377H113l57 151h104q-2 20-2 66 0 45 2 68H113l55 151h137q66 187 229 292t363 105z"/><glyph glyph-name="percent.sc" horiz-adv-x="1476" d="M1266 1184L377 0H211l895 1184h160zm-166-721q101 0 173.5-72.5T1346 217q0-100-72.5-173T1100-29 926.5 44 854 217q0 101 72.5 173.5T1100 463zm0-123q-51 0-85-35t-34-88q0-51 34-86t85-35 85 34.5 34 86.5q0 53-34 88t-85 35zm-723 856q101 0 173.5-72.5T623 950q0-100-72.5-172.5T377 705t-173.5 72.5T131 950q0 101 72.5 173.5T377 1196zm0-123q-51 0-85-35t-34-88q0-51 34-86t85-35 85 34.5 34 86.5q0 53-34 88t-85 35z"/><glyph glyph-name="sterling.sc" horiz-adv-x="1140" d="M674 1212q137 0 274-61V913q-133 70-246 70-79 0-126.5-43.5T528 801v-92h260V500H530l2-273h455V0H274v500H133v209h141v106q0 189 112.5 293T674 1212z"/><glyph glyph-name="yen.sc" horiz-adv-x="1413" d="M1280 1184L909 627h224V467H842V350h291V188H842V0H571v188H283v162h288v117H283v160h221l-371 557h301l273-420 270 420h303z"/></font>
</defs>
</svg>
