<svg xmlns="http://www.w3.org/2000/svg"><defs><font id="TurbineTrial-ThinWeb" horiz-adv-x="0"><font-face font-family="." font-weight="250" units-per-em="2048" panose-1="2 0 2 4 0 0 0 0 0 0" ascent="1638" descent="-410" x-height="975" cap-height="1434" bbox="-739 -401 2359 1982" underline-thickness="141" underline-position="-79" unicode-range="U+0020-FEFF"/><glyph glyph-name=".notdef" horiz-adv-x="962" d="M0 0v1434h963V0H0zm86 82h791v1270H86V82zm332 373v182q124 55 179.5 128.5T653 934q0 93-53 144.5T449 1130q-58 0-129-17t-119-38v92q136 54 250 54 154 0 228.5-75.5T754 934q0-221-254-344V455h-82zm-12-267v129h104V188H406z"/><glyph glyph-name=".null"/><glyph glyph-name="nonmarkingreturn" horiz-adv-x="682"/><glyph glyph-name="space" horiz-adv-x="532"/><glyph glyph-name="comma" unicode="," horiz-adv-x="364" d="M129 141h102V-27l-57-254h-51L166 0h-37v141z"/><glyph glyph-name="period" unicode="." horiz-adv-x="364" d="M133 141h98V0h-98v141z"/><glyph glyph-name="zero" unicode="0" horiz-adv-x="1503" d="M752-31q-208 0-340 72T211.5 277 143 707q0 200 37.5 341.5T295 1277t189 127 268 40q208 0 340-72t200-235.5 68-429.5-68-430-200-236-340-72zm0 62q188 0 305 64.5t177 214 60 397.5-60 397.5-177 213.5-305 64-305-64-177.5-213.5T209 707q0-187 32.5-316.5t101.5-209 168.5-115T752 31z"/><glyph glyph-name="one" unicode="1" horiz-adv-x="856" d="M514 1413h55V0h-65v1339L82 1190v57z"/><glyph glyph-name="two" unicode="2" horiz-adv-x="1282" d="M150 61h1030V0H72v80q179 132 303.5 227t236 184T793 645t126 125.5 84.5 111 43 98.5 14.5 99q0 145-107 224t-352 79q-120 0-256.5-26.5T115 1296v68q84 31 219 55.5t268 24.5q524 0 524-365 0-51-8.5-94.5t-33-93-57.5-95T934.5 691 808 572 636.5 430t-216-167.5T150 61z"/><glyph glyph-name="three" unicode="3" horiz-adv-x="1333" d="M408 694v62h186q143 0 240 20t152 61.5 78 97.5 23 136-22.5 135-77 96-149.5 60.5-236 19.5q-118 0-255-26.5T113 1296v68q84 31 219.5 55.5T602 1444q156 0 263.5-24t170.5-73 90-116 27-160q0-88-19.5-148.5t-63-99.5T968 762t-149-37q97-15 163.5-38.5T1100 622t75.5-106 24.5-156-31.5-161T1068 76.5t-186-80T602-31Q450-31 304.5-8.5T92 37v67q94-28 237-50.5T602 31q148 0 253 23t165.5 67.5T1108 224t27 136q0 79-27 138t-88.5 104.5-168 68.5T594 694H408z"/><glyph glyph-name="four" unicode="4" horiz-adv-x="1349" d="M1257 383v-61h-245V0h-66v322H72v77l841 1014h99V383h245zm-1116 0h805v971z"/><glyph glyph-name="five" unicode="5" horiz-adv-x="1390" d="M715 834q274 0 401-110t127-318q0-437-571-437-168 0-312.5 24.5T139 49v68q87-33 234.5-59.5T672 31q266 0 386 96.5T1178 406q0 180-109.5 273T715 772q-269 0-533-80v721h992v-61H248V770q230 64 467 64z"/><glyph glyph-name="six" unicode="6" horiz-adv-x="1449" d="M199 649V516q3 66 31 121t88 104 170 77 262 28q587 0 587-440 0-437-587-437-170 0-284.5 35t-190 115.5-109 209.5T133 649q0 795 674 795 125 0 252.5-24.5T1266 1364v-68q-255 86-459 86-300 0-454-177.5T199 649zm1073-243q0 188-125 283t-397 95q-268 0-395.5-90T227 444q0-204 124.5-308.5T750 31q272 0 397 94.5T1272 406z"/><glyph glyph-name="seven" unicode="7" horiz-adv-x="1300" d="M61 1413h1117v-61L432 0h-76l748 1352H61v61z"/><glyph glyph-name="eight" unicode="8" horiz-adv-x="1490" d="M745-31Q576-31 455.5-4t-190 79.5-101 122T133 360q0 78 19.5 136.5t64.5 106 123 78T530 725q-193 28-270.5 112T182 1071q0 92 27 158.5t90.5 116 174 74T745 1444t271.5-24.5 174-74 91-116T1309 1071q0-150-77.5-234T961 725q112-14 190-44.5t123-78 64.5-106T1358 360q0-93-31.5-162.5T1225 75.5 1034.5-4 745-31zm0 787q144 0 242 20.5t153.5 62.5 79 97.5T1243 1071q0 78-23.5 133t-79.5 96.5-153.5 61.5-241.5 20q-115 0-201-13.5T401.5 1330t-90.5-64-48.5-86-14.5-109q0-63 14.5-110.5t48.5-87 90.5-65 142.5-39T745 756zm0-725q153 0 261 22.5t170 67 89 102.5 27 137-27 138-89 104.5-170 68.5-261 23q-125 0-219.5-15.5t-156-43.5-100-70-54.5-92-16-113q0-79 27-137t88.5-102.5 169.5-67T745 31z"/><glyph glyph-name="nine" unicode="9" horiz-adv-x="1449" d="M1251 766v133q-3-66-31-121t-88-104-170-77-262-28q-587 0-587 439 0 436 587 436 170 0 284.5-35t190-115.5 109-208.5 33.5-319q0-797-674-797-125 0-252.5 24.5T184 49v68q255-86 459-86 300 0 454 178t154 557zM178 1008q0-187 125-282t397-95q268 0 395.5 90T1223 969q0 204-124.5 308.5T700 1382q-272 0-397-94t-125-280z"/><glyph glyph-name="A" unicode="A" horiz-adv-x="1374" d="M1282 0l-205 467H295L90 0H20l629 1434h74L1354 0h-72zM322 528h729l-291 664q-16 37-40.5 97t-33.5 81l-74-178z"/><glyph glyph-name="B" unicode="B" horiz-adv-x="1329" d="M901 750q78-13 137-37.5t96.5-57 61-76T1228 490t9-101q0-84-24-151.5T1136.5 115t-145-85T772 0H143v1434h594q114 0 197.5-27.5T1065 1329t68.5-112.5T1155 1077q0-260-254-327zm-164 622H209V772h481q113 0 193 23t124 66 63.5 96 19.5 120q0 139-80.5 217T737 1372zM772 61q399 0 399 328 0 73-20.5 128T1081 617.5 939 687t-228 24H209V61h563z"/><glyph glyph-name="C" unicode="C" horiz-adv-x="1294" d="M1233 51q-98-36-227-59T758-31q-349 0-510.5 180T86 717q0 387 162.5 567T758 1464q111 0 230-21t208-54v-68q-236 82-438 82-319 0-462.5-162.5T152 717q0-362 143-524T758 31q221 0 475 88V51z"/><glyph glyph-name="D" unicode="D" horiz-adv-x="1425" d="M653 1434q194 0 322.5-36.5t211-123T1304 1054t35-337-35-337-117.5-220.5-211-123T653 0H143v1434h510zm0-1373q180 0 296 32t190.5 110T1244 403.5t30 313.5-30 313.5-104.5 200.5T949 1340.5 653 1372H209V61h444z"/><glyph glyph-name="E" unicode="E" horiz-adv-x="1187" d="M209 61h948V0H143v1434h963v-62H209V772h758v-61H209V61z"/><glyph glyph-name="F" unicode="F" horiz-adv-x="1144" d="M1104 1372H209V711h756v-62H209V0h-66v1434h961v-62z"/><glyph glyph-name="G" unicode="G" horiz-adv-x="1435" d="M772-31q-356 0-521 180T86 717t165 567.5T772 1464q269 0 504-75v-68q-269 82-504 82-328 0-474-161.5T152 717t146-524.5T772 31q200 0 475 57v530H866v64h447V39q-116-30-269-50T772-31z"/><glyph glyph-name="H" unicode="H" horiz-adv-x="1447" d="M1239 1434h66V0h-66v711H209V0h-66v1434h66V772h1030v662z"/><glyph glyph-name="I" unicode="I" horiz-adv-x="352" d="M143 1434h66V0h-66v1434z"/><glyph glyph-name="J" unicode="J" horiz-adv-x="659" d="M61 66q101-13 146-13 150 0 202 60.5T461 332v1102h65V332q0-93-14.5-154.5T461 72.5t-98-63T207-10Q130-10 61 2v64z"/><glyph glyph-name="K" unicode="K" horiz-adv-x="1267" d="M209 784q0-126-8-290 144 160 551 567l372 373h90L596 813 1319 0h-86L553 770 209 426V0h-66v1434h66V784z"/><glyph glyph-name="L" unicode="L" horiz-adv-x="1134" d="M209 61h885V0H143v1434h66V61z"/><glyph glyph-name="M" unicode="M" horiz-adv-x="1673" d="M1464 1077q0 194 2 305l-120-282L872 0h-73L328 1100l-121 282q2-111 2-305V0h-66v1434h109L698 395Q834 70 836 66q25 63 137 325l448 1043h109V0h-66v1077z"/><glyph glyph-name="N" unicode="N" horiz-adv-x="1447" d="M143 0v1434h99l829-1141q65-88 168-242v1383h66V0h-99L367 1157q-79 108-158 225V0h-66z"/><glyph glyph-name="O" unicode="O" horiz-adv-x="1507" d="M754-31q-179 0-305.5 47.5T245 161 133 394 98 717t35 323 112 232.5 203.5 144T754 1464t305.5-47.5 203.5-144 112.5-232.5 35.5-323-35.5-323T1263 161 1059.5 16.5 754-31zm0 62q320 0 456 165.5T1346 717t-136 520.5T754 1403t-455-165.5T164 717t135-520.5T754 31z"/><glyph glyph-name="P" unicode="P" horiz-adv-x="1222" d="M707 1434q464 0 464-408T707 618H209V0h-66v1434h564zm0-754q112 0 191.5 25t124 72.5 64 108T1106 1026t-19.5 140.5-64 108-124 72.5-191.5 25H209V680h498z"/><glyph glyph-name="Q" unicode="Q" horiz-adv-x="1505" d="M780-31q1-84 11.5-133.5t40-79.5 74-40.5T1026-295q98 0 250 23v-64q-163-20-250-20-168 0-237.5 63T719-84q0 37 2 53-170 4-290 54T238 169.5 131.5 400 98 717q0 187 35 323t112 232.5 203.5 144T754 1464t305.5-47.5 203.5-144 112.5-232.5 35.5-323q0-184-34-318.5t-108.5-231-196-145.5T780-31zM164 717q0-355 135-520.5T754 31t456 165.5T1346 717t-136 520.5T754 1403t-455-165.5T164 717z"/><glyph glyph-name="R" unicode="R" horiz-adv-x="1312" d="M143 1434h553q128 0 220.5-31t144.5-87 76-125.5 24-156.5q0-109-37-185.5T1014.5 727t-170-65.5T616 641q71-17 141.5-70.5T938 397L1303 0h-86L805 444q-99 108-182.5 149.5T418 635H209V0h-66v1434zm66-62V696h401q117 0 203.5 17t140 45.5 86 72.5 44.5 92.5 12 110.5q0 77-20 136t-64.5 105.5-124 71.5-191.5 25H209z"/><glyph glyph-name="S" unicode="S" horiz-adv-x="1232" d="M1077 1331q-250 72-471 72-108 0-189.5-15t-131-39-80-60.5-42-74T152 1130q0-31 3-53t13.5-51 29.5-51.5 53.5-49T335 876t120.5-48.5T618 778q138-36 234.5-75t155-77.5 91-87.5 43.5-95.5 11-110.5q0-63-14.5-114.5t-52-99-97-79.5T834-12 612-31Q477-31 327-7.5T82 53v68q266-90 530-90 140 0 236.5 22.5t147 65.5 71 94 20.5 119q0 56-9 94t-37.5 79.5-82 74-142.5 67T598 715q-134 35-230 75.5T218 869t-84.5 85-39 85.5T86 1130q0 334 520 334 255 0 471-65v-68z"/><glyph glyph-name="T" unicode="T" horiz-adv-x="1236" d="M1196 1434v-62H651V0h-65v1372H41v62h1155z"/><glyph glyph-name="U" unicode="U" horiz-adv-x="1443" d="M1311 1434V553q0-131-32.5-235t-101-183.5T993.5 12 721-31 449 12 266 134.5 165.5 318 133 553v881h66V553q0-522 522-522 524 0 524 522v881h66z"/><glyph glyph-name="V" unicode="V" horiz-adv-x="1310" d="M1221 1434h69L690 0h-67L20 1434h72L594 233q30-69 63-161 28 78 64 161z"/><glyph glyph-name="W" unicode="W" horiz-adv-x="1945" d="M20 1434h68L471 231q30-101 43-159 13 58 43 159l381 1203h70l383-1203q30-101 43-159 13 58 43 159l381 1203h67L1468 0h-69l-383 1202q-31 103-43 158-12-55-43-158L549 0h-70z"/><glyph glyph-name="X" unicode="X" horiz-adv-x="1284" d="M0 0l600 741-557 693h82l383-480q8-10 135-172l135 172 385 480h82L684 741 1284 0h-82L774 532 643 698q-64-79-135-166L82 0H0z"/><glyph glyph-name="Y" unicode="Y" horiz-adv-x="1269" d="M602 0v586L23 1434h77l469-689q36-50 66-104 40 66 67 104l469 689h78L668 586V0h-66z"/><glyph glyph-name="Z" unicode="Z" horiz-adv-x="1257" d="M98 1434h1078v-62L297 256Q191 121 133 59q66 2 256 2h807V0H61v61l879 1117q122 151 164 196-66-2-254-2H98v62z"/><glyph glyph-name="grave" unicode="`" horiz-adv-x="425" d="M41 1513h82l262-321h-76z"/><glyph glyph-name="a" unicode="a" horiz-adv-x="1097" d="M170 961q196 43 356 43 129 0 214.5-23.5t133-74 66-117.5T958 623V0h-49l-12 221q-19-51-50-92.5T767 50 643-8 475-29q-212 0-303.5 71.5T80 258q0 72 22 123t75 89 146 56.5T553 545q143 0 340-25v101q0 90-14.5 146T824 865t-112 59.5T526 942q-156 0-356-47v66zm383-476q-161 0-251-26.5T179.5 385 147 258q0-114 74.5-169.5T475 33q212 0 316 106t104 322q-158 24-342 24z"/><glyph glyph-name="b" unicode="b" horiz-adv-x="1179" d="M608-31q-325 0-413 252L182 0h-49v1434h66v-387q0-107-9-318 8 38 24.5 73.5t49 73.5 77 66T455 988t155 18q255 0 366-130.5T1087 487 975 99 608-31zm0 62q222 0 317 112t95 344-94 344.5T610 944q-223 0-318-112.5T197 487q0-233 94-344.5T608 31z"/><glyph glyph-name="c" unicode="c" horiz-adv-x="1003" d="M895 895q-177 49-328 49-220 0-314.5-105.5T158 487q0-245 94.5-350.5T565 31q169 0 357 69V35Q855 6 757.5-12.5T565-31Q319-31 205.5 92.5T92 487q0 270 114 394.5T567 1006q165 0 328-45v-66z"/><glyph glyph-name="d" unicode="d" horiz-adv-x="1179" d="M571-31Q318-31 205 98.5T92 487q0 260 112 389.5T569 1006q86 0 156-18t114.5-46 77.5-66 48.5-73.5T989 729q-8 188-8 318v387h66V0h-50l-12 221Q897-31 571-31zm0 62q218 0 315 109.5T983 487t-98 347-316 110q-216 0-312.5-110T160 487t97-346.5T571 31z"/><glyph glyph-name="e" unicode="e" horiz-adv-x="1103" d="M963 35Q892 6 789-12.5T588-31Q447-31 350 2T196.5 103 116 263.5 92 487q0 125 24.5 217.5t79 162T344 971t227 35q121 0 207.5-33t137-96.5 73.5-147 23-194.5q0-27-2-56H158q1-120 22.5-201.5t71-137.5 132-81.5T588 33q177 0 375 69V35zM571 944q-114 0-194-27.5t-126.5-82-67.5-126T160 539h786q0 200-85 302.5T571 944z"/><glyph glyph-name="f" unicode="f" horiz-adv-x="649" d="M496 1399q-126 0-170.5-47T281 1194V975h348v-62H281V0h-66v913H61v62h154v219q0 133 63 199.5t218 66.5q76 0 133-10v-64q-63 13-133 13z"/><glyph glyph-name="g" unicode="g" horiz-adv-x="1179" d="M571-399q-95 0-211 20.5T158-326v66q231-78 413-78 209 0 309.5 97.5T981 61q0 120 8 234Q904 39 569 39q-130 0-225 37T195.5 180 117 331.5 92 522t25 190.5 79.5 152T346 969t225 37q82 0 149-16t109-40 75-59 50-64.5 31-66.5l12 215h50V61q0-460-476-460zm-2 499q414 0 414 422 0 76-13 138.5t-43 116-76.5 90-117.5 57T571 944q-114 0-195-30.5T248.5 825 181 692.5 160 522q0-76 12.5-138.5t42-116 76-90 117-57T569 100z"/><glyph glyph-name="h" unicode="h" horiz-adv-x="1120" d="M133 1434h66v-377q0-104-9-293 9 47 35 88t71.5 76.5 119 56.5 166.5 21q120 0 202.5-25T914 904t67-121.5 20-168.5V0h-65v612q0 88-15.5 147.5t-55 102.5-109 62.5T582 944q-383 0-383-342V0h-66v1434z"/><glyph glyph-name="i" unicode="i" horiz-adv-x="331" d="M133 1434h66v-256h-66v256zm0-459h66V0h-66v975z"/><glyph glyph-name="j" unicode="j" horiz-adv-x="329" d="M133 1434h66v-256h-66v256zm66-1571q0-131-60.5-196.5T-66-399q-74 0-114 8v63q67-10 114-10 113 0 156 46.5T133-137V975h66V-137z"/><glyph glyph-name="k" unicode="k" horiz-adv-x="1001" d="M133 1434h66V612q0-106-9-290 128 144 637 653h93L483 539 1022 0h-92L438 494 199 254V0h-66v1434z"/><glyph glyph-name="l" unicode="l" horiz-adv-x="372" d="M154 1434h65V0h-65v1434z"/><glyph glyph-name="m" unicode="m" horiz-adv-x="1830" d="M958 0h-65v612q0 91-14.5 151t-52 102T725 925.5 563 944q-96 0-164.5-25.5t-107-74T236 735t-17-141V0h-65v975h49l10-201q5 32 19.5 63t43 62 67 54.5 95.5 38 125 14.5q178 0 265-60.5T940 770q9 41 33 79.5t65.5 75.5 109 59 152.5 22q115 0 192.5-24.5T1615 905t64-122 19-171V0h-66v612q0 90-15 150t-52 102-101.5 61-163.5 19q-185 0-263.5-89.5T958 606V0z"/><glyph glyph-name="n" unicode="n" horiz-adv-x="1155" d="M154 975h49l12-203q22 98 117 166t270 68q121 0 203.5-25T935 904t67-121.5 20-168.5V0h-66v606q0 89-15.5 149T886 859.5 778 924t-174 20q-385 0-385-373V0h-65v975z"/><glyph glyph-name="o" unicode="o" horiz-adv-x="1191" d="M596-31Q455-31 356.5 4T201 108t-82 161-25 218 25 218 82 161.5T356.5 971t239.5 35 240-35 156-104.5 82.5-162T1100 487t-25.5-217.5T992 108 836 4 596-31zm0 62q125 0 210.5 29T942 149t71 141.5 21 196.5-21 196.5-71 142T806.5 915 596 944t-210.5-29T251 825.5t-70-142T160 487t21-196.5T251 149t134.5-89T596 31z"/><glyph glyph-name="p" unicode="p" horiz-adv-x="1179" d="M133-369V975h49l13-221q88 252 413 252 253 0 366-129.5T1087 487 975 98 610-31q-86 0-156 18T339.5 33 262 99t-48.5 73.5T190 246q9-212 9-318v-297h-66zM610 31q216 0 313 109.5t97 346.5-97.5 347T608 944q-218 0-314.5-110T197 487t97.5-346.5T610 31z"/><glyph glyph-name="q" unicode="q" horiz-adv-x="1175" d="M977-369v297q0 130 8 318-8-38-24.5-73.5t-49-73.5-77-66T720-13 565-31Q312-31 200 98T88 487t113 389.5T567 1006q326 0 414-252l12 221h49V-369h-65zM565 31q218 0 316 109.5T979 487t-97 347-315 110q-216 0-313.5-110T156 487t96.5-346.5T565 31z"/><glyph glyph-name="r" unicode="r" horiz-adv-x="688" d="M154 975h49l10-277q4 59 25 109t62 94 112.5 69T580 995q34 0 67-2v-67q-33 2-67 2-196 0-278.5-99T219 496V0h-65v975z"/><glyph glyph-name="s" unicode="s" horiz-adv-x="987" d="M506-27q-220 0-391 62v65q202-65 401-65 180 0 253 52.5T842 250q0 24-2.5 43t-10 35.5T815 358t-23.5 24.5-28.5 20-38 17.5-43.5 14.5-54 13.5-60.5 13-71 14q-52 10-78 15.5T349.5 506 285 523.5 232 544t-47 26-35.5 32-28 40.5-15 49T100 752q0 123 88.5 186t296.5 63q162 0 351-34v-66q-185 39-351 39-180 0-249.5-45T166 756q0-28 4.5-50.5t17-40.5 24.5-31.5 38-25.5 46-19.5 60-17 68-15 82-15.5q95-18 140-28t106.5-32.5 88-49.5 46.5-73 20-110q0-138-91.5-206.5T506-27z"/><glyph glyph-name="t" unicode="t" horiz-adv-x="722" d="M662 913H281V260q0-111 44.5-158T494 55q62 0 135 15V6Q579-6 494-6 340-6 277.5 61T215 260v653H61v62h154l16 229h50V975h381v-62z"/><glyph glyph-name="u" unicode="u" horiz-adv-x="1126" d="M993 0h-49l-10 203q-10-42-37-81t-72.5-74.5-118-57T545-31Q424-31 341-5T210.5 73 143 194.5 123 360v615h65V362q0-87 16-146t56-102 109.5-63T543 31q108 0 185.5 28T848 137t61 110 19 134v594h65V0z"/><glyph glyph-name="v" unicode="v" horiz-adv-x="1009" d="M907 975h72L541 0h-72L31 975h73l336-754q33-70 66-162 36 101 65 162z"/><glyph glyph-name="w" unicode="w" horiz-adv-x="1576" d="M31 975h71l265-754q20-55 53-164 22 72 55 164l264 754h99l268-754q20-55 53-164 22 72 55 164l265 754h67L1202 0h-88L788 924 463 0h-88z"/><glyph glyph-name="x" unicode="x" horiz-adv-x="950" d="M10 0l420 498L31 975h86l147-176 211-252q35 42 105.5 126T686 799l148 176h86L520 498 940 0h-86L668 221Q485 440 475 453q-42-52-192-232L96 0H10z"/><glyph glyph-name="y" unicode="y" horiz-adv-x="1001" d="M31 975h73l336-744q44-95 62-143 21 58 61 143l336 744h72L360-369h-73L467 20z"/><glyph glyph-name="z" unicode="z" horiz-adv-x="972" d="M92 84l598 707 103 122H109v62h749v-84L260 184 158 61h723V0H92v84z"/><glyph glyph-name="uni00A0" horiz-adv-x="532"/><glyph glyph-name="dieresis" unicode="¨" horiz-adv-x="499" d="M41 1452h65v-260H41v260zm352 0h66v-260h-66v260z"/><glyph glyph-name="macron" unicode="¯" horiz-adv-x="667" d="M41 1354h586v-60H41v60z"/><glyph glyph-name="acute" unicode="´" horiz-adv-x="425" d="M385 1513l-268-321H41l262 321h82z"/><glyph glyph-name="periodcentered" unicode="·" horiz-adv-x="364" d="M133 686h98V545h-98v141z"/><glyph glyph-name="cedilla" unicode="¸" horiz-adv-x="446" d="M266 0l-88-129q40 4 72 4 73 0 114.5-35t41.5-94q0-65-49-102t-144-37q-90 0-172 28v62q82-31 162-31 135 0 135 78t-117 78q-56 0-92-4l-25 41L197 0h69z"/><glyph glyph-name="Agrave" unicode="À" horiz-adv-x="1374" d="M373 1909h82l262-322h-76zM1282 0l-205 467H295L90 0H20l629 1434h74L1354 0h-72zM322 528h729l-291 664q-16 37-40.5 97t-33.5 81l-74-178z"/><glyph glyph-name="Aacute" unicode="Á" horiz-adv-x="1374" d="M991 1909l-268-322h-76l262 322h82zM1282 0l-205 467H295L90 0H20l629 1434h74L1354 0h-72zM322 528h729l-291 664q-16 37-40.5 97t-33.5 81l-74-178z"/><glyph glyph-name="Acircumflex" unicode="Â" horiz-adv-x="1374" d="M385 1587l262 322h84l262-322h-75l-228 268-229-268h-76zM1282 0l-205 467H295L90 0H20l629 1434h74L1354 0h-72zM322 528h729l-291 664q-16 37-40.5 97t-33.5 81l-74-178z"/><glyph glyph-name="Atilde" unicode="Ã" horiz-adv-x="1374" d="M383 1602q3 115 41.5 165t120.5 50q43 0 83-22.5t105-74.5q55-44 84-59.5t55-15.5q51 0 72 32.5t27 124.5h63q-3-115-41.5-165T872 1587q-43 0-83.5 22.5T684 1683q-56 45-84.5 60.5T545 1759q-51 0-72-32.5T446 1602h-63zM1282 0l-205 467H295L90 0H20l629 1434h74L1354 0h-72zM322 528h729l-291 664q-16 37-40.5 97t-33.5 81l-74-178z"/><glyph glyph-name="Adieresis" unicode="Ä" horiz-adv-x="1374" d="M479 1847h66v-260h-66v260zm352 0h66v-260h-66v260zM1282 0l-205 467H295L90 0H20l629 1434h74L1354 0h-72zM322 528h729l-291 664q-16 37-40.5 97t-33.5 81l-74-178z"/><glyph glyph-name="Aring" unicode="Å" horiz-adv-x="1374" d="M698 1587q-103 0-156 50t-53 147 53 147.5 156 50.5q102 0 154.5-50t52.5-148q0-197-207-197zm0 60q76 0 109 32t33 103q0 74-33 107.5T698 1923t-109.5-33.5T555 1782q0-71 33.5-103t109.5-32zM1282 0l-205 467H295L90 0H20l629 1434h74L1354 0h-72zM322 528h729l-291 664q-16 37-40.5 97t-33.5 81l-74-178z"/><glyph glyph-name="AE" unicode="Æ" horiz-adv-x="2127" d="M1169 61h928V0h-993v467H428L84 0H2l1065 1434h979v-62h-877V772h738v-61h-738V61zM475 528h629v850q-45-58-133-178z"/><glyph glyph-name="Ccedilla" unicode="Ç" horiz-adv-x="1294" d="M1233 51q-98-36-226-59T762-31l-68-98q40 4 72 4 73 0 114.5-35t41.5-94q0-65-49-102t-144-37q-90 0-172 28v62q82-31 162-31 135 0 135 78t-117 78q-56 0-92-4l-24 41 73 112Q379-14 232.5 166T86 717q0 387 162.5 567T758 1464q111 0 230-21t208-54v-68q-236 82-438 82-319 0-462.5-162.5T152 717q0-362 143-524T758 31q221 0 475 88V51z"/><glyph glyph-name="Egrave" unicode="È" horiz-adv-x="1187" d="M309 1909h82l262-322h-75zM209 61h948V0H143v1434h963v-62H209V772h758v-61H209V61z"/><glyph glyph-name="Eacute" unicode="É" horiz-adv-x="1187" d="M928 1909l-269-322h-75l262 322h82zM209 61h948V0H143v1434h963v-62H209V772h758v-61H209V61z"/><glyph glyph-name="Ecircumflex" unicode="Ê" horiz-adv-x="1187" d="M322 1587l262 322h84l262-322h-76l-227 268-230-268h-75zM209 61h948V0H143v1434h963v-62H209V772h758v-61H209V61z"/><glyph glyph-name="Edieresis" unicode="Ë" horiz-adv-x="1187" d="M416 1847h65v-260h-65v260zm352 0h66v-260h-66v260zM209 61h948V0H143v1434h963v-62H209V772h758v-61H209V61z"/><glyph glyph-name="Igrave" unicode="Ì" horiz-adv-x="352" d="M-139 1909h82l262-322h-76zm282-475h66V0h-66v1434z"/><glyph glyph-name="Iacute" unicode="Í" horiz-adv-x="352" d="M479 1909l-268-322h-76l262 322h82zm-336-475h66V0h-66v1434z"/><glyph glyph-name="Icircumflex" unicode="Î" horiz-adv-x="352" d="M-129 1587l262 322h84l262-322h-76l-227 268-229-268h-76zm272-153h66V0h-66v1434z"/><glyph glyph-name="Idieresis" unicode="Ï" horiz-adv-x="352" d="M-33 1847h66v-260h-66v260zm352 0h66v-260h-66v260zm-176-413h66V0h-66v1434z"/><glyph glyph-name="Eth" unicode="Ð" horiz-adv-x="1425" d="M653 1434q194 0 322.5-36.5t211-123T1304 1054t35-337-35-337-117.5-220.5-211-123T653 0H143v713H0v59h143v662h510zm0-1373q180 0 296 32t190.5 110T1244 403.5t30 313.5-30 313.5-104.5 200.5T949 1340.5 653 1372H209V772h377v-59H209V61h444z"/><glyph glyph-name="Ntilde" unicode="Ñ" horiz-adv-x="1447" d="M420 1602q3 115 41.5 165t120.5 50q43 0 83-22.5t105-74.5q55-44 84-59.5t55-15.5q51 0 72 32.5t27 124.5h63q-3-115-41.5-165T909 1587q-43 0-83.5 22.5T721 1683q-56 45-84.5 60.5T582 1759q-51 0-72-32.5T483 1602h-63zM143 0v1434h99l829-1141q65-88 168-242v1383h66V0h-99L367 1157q-79 108-158 225V0h-66z"/><glyph glyph-name="Ograve" unicode="Ò" horiz-adv-x="1507" d="M440 1909h82l262-322h-75zM754-31q-179 0-305.5 47.5T245 161 133 394 98 717t35 323 112 232.5 203.5 144T754 1464t305.5-47.5 203.5-144 112.5-232.5 35.5-323-35.5-323T1263 161 1059.5 16.5 754-31zm0 62q320 0 456 165.5T1346 717t-136 520.5T754 1403t-455-165.5T164 717t135-520.5T754 31z"/><glyph glyph-name="Oacute" unicode="Ó" horiz-adv-x="1507" d="M1059 1909l-268-322h-76l262 322h82zM754-31q-179 0-305.5 47.5T245 161 133 394 98 717t35 323 112 232.5 203.5 144T754 1464t305.5-47.5 203.5-144 112.5-232.5 35.5-323-35.5-323T1263 161 1059.5 16.5 754-31zm0 62q320 0 456 165.5T1346 717t-136 520.5T754 1403t-455-165.5T164 717t135-520.5T754 31z"/><glyph glyph-name="Ocircumflex" unicode="Ô" horiz-adv-x="1507" d="M453 1587l262 322h84l262-322h-76l-227 268-230-268h-75zM754-31q-179 0-305.5 47.5T245 161 133 394 98 717t35 323 112 232.5 203.5 144T754 1464t305.5-47.5 203.5-144 112.5-232.5 35.5-323-35.5-323T1263 161 1059.5 16.5 754-31zm0 62q320 0 456 165.5T1346 717t-136 520.5T754 1403t-455-165.5T164 717t135-520.5T754 31z"/><glyph glyph-name="Otilde" unicode="Õ" horiz-adv-x="1507" d="M451 1602q3 115 41 165t120 50q43 0 83.5-22.5T801 1720q55-44 84-59.5t55-15.5q51 0 71.5 32.5T1038 1802h64q-3-115-41.5-165T940 1587q-43 0-83.5 22.5T752 1683q-56 44-85 60t-55 16q-51 0-71.5-32.5T514 1602h-63zM754-31q-179 0-305.5 47.5T245 161 133 394 98 717t35 323 112 232.5 203.5 144T754 1464t305.5-47.5 203.5-144 112.5-232.5 35.5-323-35.5-323T1263 161 1059.5 16.5 754-31zm0 62q320 0 456 165.5T1346 717t-136 520.5T754 1403t-455-165.5T164 717t135-520.5T754 31z"/><glyph glyph-name="Odieresis" unicode="Ö" horiz-adv-x="1507" d="M547 1847h65v-260h-65v260zm352 0h66v-260h-66v260zM754-31q-179 0-305.5 47.5T245 161 133 394 98 717t35 323 112 232.5 203.5 144T754 1464t305.5-47.5 203.5-144 112.5-232.5 35.5-323-35.5-323T1263 161 1059.5 16.5 754-31zm0 62q320 0 456 165.5T1346 717t-136 520.5T754 1403t-455-165.5T164 717t135-520.5T754 31z"/><glyph glyph-name="Oslash" unicode="Ø" horiz-adv-x="1505" d="M1194 1341q113-90 165-244.5t52-379.5q0-187-35.5-323T1263 161 1059.5 16.5 754-31q-246 0-394 92L258-96h-74L309 96Q98 269 98 717q0 187 35 323t112 232.5 203.5 144T754 1464q238 0 389-88l104 160h74zM164 717q0-206 42.5-346T344 150l764 1173q-133 80-354 80-320 0-455-165.5T164 717zM754 31q320 0 456 165.5T1346 717q0 207-44.5 348.5T1159 1288L395 113q131-82 359-82z"/><glyph glyph-name="Ugrave" unicode="Ù" horiz-adv-x="1443" d="M408 1909h81l263-322h-76zm903-475V553q0-131-32.5-235t-101-183.5T993.5 12 721-31 449 12 266 134.5 165.5 318 133 553v881h66V553q0-522 522-522 524 0 524 522v881h66z"/><glyph glyph-name="Uacute" unicode="Ú" horiz-adv-x="1443" d="M1026 1909l-268-322h-76l262 322h82zm285-475V553q0-131-32.5-235t-101-183.5T993.5 12 721-31 449 12 266 134.5 165.5 318 133 553v881h66V553q0-522 522-522 524 0 524 522v881h66z"/><glyph glyph-name="Ucircumflex" unicode="Û" horiz-adv-x="1443" d="M420 1587l262 322h84l262-322h-76l-227 268-229-268h-76zm891-153V553q0-131-32.5-235t-101-183.5T993.5 12 721-31 449 12 266 134.5 165.5 318 133 553v881h66V553q0-522 522-522 524 0 524 522v881h66z"/><glyph glyph-name="Udieresis" unicode="Ü" horiz-adv-x="1443" d="M514 1847h66v-260h-66v260zm352 0h66v-260h-66v260zm445-413V553q0-131-32.5-235t-101-183.5T993.5 12 721-31 449 12 266 134.5 165.5 318 133 553v881h66V553q0-522 522-522 524 0 524 522v881h66z"/><glyph glyph-name="Yacute" unicode="Ý" horiz-adv-x="1269" d="M940 1909l-268-322h-76l262 322h82zM602 0v586L23 1434h77l469-689q36-50 66-104 40 66 67 104l469 689h78L668 586V0h-66z"/><glyph glyph-name="Thorn" unicode="Þ" horiz-adv-x="1222" d="M707 1151q464 0 464-408 0-407-464-407H209V0h-66v1434h66v-283h498zm0-754q112 0 191.5 25t124 72.5 64 108T1106 743t-19.5 140.5-64 108.5-124 73-191.5 25H209V397h498z"/><glyph glyph-name="germandbls" unicode="ß" horiz-adv-x="1150" d="M797-27q-87 0-169.5 19T492 35v65q152-65 301-65 241 0 241 184 0 34-10.5 62T999 327.5t-45.5 39-56 32.5-74.5 35q-51 24-77.5 37.5T684 509t-52 46.5-29.5 56T590 686q0 54 19 96.5t50 70.5 68 53l74 50 68 54 50 73 19 99q0 109-83 163t-277 54q-60 0-110-5.5t-85.5-13.5-64-22.5-46.5-27-30.5-32.5-19-34-9.5-36.5-3.5-34-.5-32.5V0h-66v1161q0 22 .5 35.5t4.5 40.5 11 44.5 22.5 43T218 1367t54.5 36 75.5 30.5 101 19 129 7.5q226 0 326-71.5t100-210.5q0-63-19-112.5T935 984t-68-58.5-74.5-49-68.5-47-50-58.5-19-77q0-32 11-58.5t25.5-44 47-38 56.5-32 73-34.5q42-19 64-30t54-30 48.5-36.5 34-42.5 24.5-56 7-69q0-121-76-185.5T797-27z"/><glyph glyph-name="agrave" unicode="à" horiz-adv-x="1097" d="M242 1513h82l262-321h-76zm-72-552q196 43 356 43 129 0 214.5-23.5t133-74 66-117.5T958 623V0h-49l-12 221q-19-51-50-92.5T767 50 643-8 475-29q-212 0-303.5 71.5T80 258q0 72 22 123t75 89 146 56.5T553 545q143 0 340-25v101q0 90-14.5 146T824 865t-112 59.5T526 942q-156 0-356-47v66zm383-476q-161 0-251-26.5T179.5 385 147 258q0-114 74.5-169.5T475 33q212 0 316 106t104 322q-158 24-342 24z"/><glyph glyph-name="aacute" unicode="á" horiz-adv-x="1097" d="M844 1513l-269-321h-75l262 321h82zM170 961q196 43 356 43 129 0 214.5-23.5t133-74 66-117.5T958 623V0h-49l-12 221q-19-51-50-92.5T767 50 643-8 475-29q-212 0-303.5 71.5T80 258q0 72 22 123t75 89 146 56.5T553 545q143 0 340-25v101q0 90-14.5 146T824 865t-112 59.5T526 942q-156 0-356-47v66zm383-476q-161 0-251-26.5T179.5 385 147 258q0-114 74.5-169.5T475 33q212 0 316 106t104 322q-158 24-342 24z"/><glyph glyph-name="acircumflex" unicode="â" horiz-adv-x="1097" d="M238 1192l262 321h84l262-321h-76l-227 268-230-268h-75zm-68-231q196 43 356 43 129 0 214.5-23.5t133-74 66-117.5T958 623V0h-49l-12 221q-19-51-50-92.5T767 50 643-8 475-29q-212 0-303.5 71.5T80 258q0 72 22 123t75 89 146 56.5T553 545q143 0 340-25v101q0 90-14.5 146T824 865t-112 59.5T526 942q-156 0-356-47v66zm383-476q-161 0-251-26.5T179.5 385 147 258q0-114 74.5-169.5T475 33q212 0 316 106t104 322q-158 24-342 24z"/><glyph glyph-name="atilde" unicode="ã" horiz-adv-x="1097" d="M215 1206q3 115 41.5 165t120.5 50q43 0 83.5-22.5T565 1325q56-44 85-60t55-16q51 0 71.5 33t26.5 125h63q-3-115-41-165t-120-50q-43 0-84 22.5T516 1288q-56 45-84.5 60.5T377 1364q-51 0-71.5-33T279 1206h-64zm-45-245q196 43 356 43 129 0 214.5-23.5t133-74 66-117.5T958 623V0h-49l-12 221q-19-51-50-92.5T767 50 643-8 475-29q-212 0-303.5 71.5T80 258q0 72 22 123t75 89 146 56.5T553 545q143 0 340-25v101q0 90-14.5 146T824 865t-112 59.5T526 942q-156 0-356-47v66zm383-476q-161 0-251-26.5T179.5 385 147 258q0-114 74.5-169.5T475 33q212 0 316 106t104 322q-158 24-342 24z"/><glyph glyph-name="adieresis" unicode="ä" horiz-adv-x="1097" d="M332 1452h65v-260h-65v260zm352 0h66v-260h-66v260zM170 961q196 43 356 43 129 0 214.5-23.5t133-74 66-117.5T958 623V0h-49l-12 221q-19-51-50-92.5T767 50 643-8 475-29q-212 0-303.5 71.5T80 258q0 72 22 123t75 89 146 56.5T553 545q143 0 340-25v101q0 90-14.5 146T824 865t-112 59.5T526 942q-156 0-356-47v66zm383-476q-161 0-251-26.5T179.5 385 147 258q0-114 74.5-169.5T475 33q212 0 316 106t104 322q-158 24-342 24z"/><glyph glyph-name="aring" unicode="å" horiz-adv-x="1097" d="M543 1192q-103 0-156 50t-53 147 53 147.5 156 50.5q102 0 154.5-50t52.5-148q0-197-207-197zm0 59q76 0 108.5 32t32.5 103q0 74-32.5 108T543 1528t-110-34-34-108q0-71 34-103t110-32zM170 961q196 43 356 43 129 0 214.5-23.5t133-74 66-117.5T958 623V0h-49l-12 221q-19-51-50-92.5T767 50 643-8 475-29q-212 0-303.5 71.5T80 258q0 72 22 123t75 89 146 56.5T553 545q143 0 340-25v101q0 90-14.5 146T824 865t-112 59.5T526 942q-156 0-356-47v66zm383-476q-161 0-251-26.5T179.5 385 147 258q0-114 74.5-169.5T475 33q212 0 316 106t104 322q-158 24-342 24z"/><glyph glyph-name="ae" unicode="æ" horiz-adv-x="1923" d="M1380-31q-199 0-308 70.5T922 252Q886 128 773 49.5T475-29q-212 0-303.5 71.5T80 258q0 138 94.5 210.5T489 541h404v80q0 90-14.5 146T824 865t-112 59.5T526 942q-156 0-356-47v66q196 43 356 43 197 0 293-56t123-174q96 232 422 232 232 0 333-122t101-349q0-25-2-56H956q1-159 41-255t133-143.5T1380 33q171 0 369 69V35q-71-29-173-47.5T1380-31zM958 541h775q0 198-84 300.5T1364 944q-111 0-189.5-27.5T1050 835t-68-125.5T958 541zM475 33q219 0 319.5 109.5T895 479H510q-139 0-220-26t-112-72.5T147 258q0-114 74.5-169.5T475 33z"/><glyph glyph-name="ccedilla" unicode="ç" horiz-adv-x="1003" d="M565-31h-4l-67-98q40 4 71 4 73 0 114.5-35t41.5-94q0-65-49-102t-144-37q-90 0-172 28v62q82-31 162-31 135 0 135 78t-116 78q-57 0-93-4l-24 41 74 112Q286-12 189 112T92 487q0 270 114 394.5T567 1006q165 0 328-45v-66q-177 49-328 49-220 0-314.5-105.5T158 487q0-245 94.5-350.5T565 31q169 0 357 69V35Q855 6 757.5-12.5T565-31z"/><glyph glyph-name="egrave" unicode="è" horiz-adv-x="1103" d="M270 1513h82l262-321h-75zM963 35Q892 6 789-12.5T588-31Q447-31 350 2T196.5 103 116 263.5 92 487q0 125 24.5 217.5t79 162T344 971t227 35q121 0 207.5-33t137-96.5 73.5-147 23-194.5q0-27-2-56H158q1-120 22.5-201.5t71-137.5 132-81.5T588 33q177 0 375 69V35zM571 944q-114 0-194-27.5t-126.5-82-67.5-126T160 539h786q0 200-85 302.5T571 944z"/><glyph glyph-name="eacute" unicode="é" horiz-adv-x="1103" d="M872 1513l-268-321h-76l263 321h81zM963 35Q892 6 789-12.5T588-31Q447-31 350 2T196.5 103 116 263.5 92 487q0 125 24.5 217.5t79 162T344 971t227 35q121 0 207.5-33t137-96.5 73.5-147 23-194.5q0-27-2-56H158q1-120 22.5-201.5t71-137.5 132-81.5T588 33q177 0 375 69V35zM571 944q-114 0-194-27.5t-126.5-82-67.5-126T160 539h786q0 200-85 302.5T571 944z"/><glyph glyph-name="ecircumflex" unicode="ê" horiz-adv-x="1103" d="M266 1192l262 321h84l262-321h-75l-228 268-229-268h-76zM963 35Q892 6 789-12.5T588-31Q447-31 350 2T196.5 103 116 263.5 92 487q0 125 24.5 217.5t79 162T344 971t227 35q121 0 207.5-33t137-96.5 73.5-147 23-194.5q0-27-2-56H158q1-120 22.5-201.5t71-137.5 132-81.5T588 33q177 0 375 69V35zM571 944q-114 0-194-27.5t-126.5-82-67.5-126T160 539h786q0 200-85 302.5T571 944z"/><glyph glyph-name="edieresis" unicode="ë" horiz-adv-x="1103" d="M360 1452h66v-260h-66v260zm353 0h65v-260h-65v260zM963 35Q892 6 789-12.5T588-31Q447-31 350 2T196.5 103 116 263.5 92 487q0 125 24.5 217.5t79 162T344 971t227 35q121 0 207.5-33t137-96.5 73.5-147 23-194.5q0-27-2-56H158q1-120 22.5-201.5t71-137.5 132-81.5T588 33q177 0 375 69V35zM571 944q-114 0-194-27.5t-126.5-82-67.5-126T160 539h786q0 200-85 302.5T571 944z"/><glyph glyph-name="igrave" unicode="ì" horiz-adv-x="331" d="M-133 1513h82l262-321h-76zm266-538h66V0h-66v975z"/><glyph glyph-name="iacute" unicode="í" horiz-adv-x="331" d="M469 1513l-268-321h-76l262 321h82zM133 975h66V0h-66v975z"/><glyph glyph-name="icircumflex" unicode="î" horiz-adv-x="331" d="M-139 1192l262 321h84l262-321h-76l-227 268-229-268h-76zm272-217h66V0h-66v975z"/><glyph glyph-name="idieresis" unicode="ï" horiz-adv-x="331" d="M-43 1452h66v-260h-66v260zm352 0h66v-260h-66v260zM133 975h66V0h-66v975z"/><glyph glyph-name="eth" unicode="ð" horiz-adv-x="1202" d="M690 1294q198-155 303-360t105-445q0-133-25-227t-83-161.5T834 1 594-31Q481-31 394.5-8t-143 63.5-93 101.5T107 288.5 92 446q0 110 25 194t81.5 149.5 156 100T594 924q166 0 269.5-51.5T1020 705q-111 345-387 552l-273-176-26 41 256 166q-116 80-250 144l27 49q158-70 278-156l248 162 29-43zM594 31q124 0 210.5 28.5T940 144t70.5 129 21.5 173-21.5 173T940 748.5t-135.5 85T594 862t-210.5-28.5-135-85T179 619t-21-173 21-173 70-129 135-84.5T594 31z"/><glyph glyph-name="ntilde" unicode="ñ" horiz-adv-x="1155" d="M252 1206q3 115 41.5 165t120.5 50q43 0 83.5-22.5T602 1325q56-45 84.5-60.5T741 1249q51 0 72 33t27 125h63q-3-115-41.5-165T741 1192q-43 0-83.5 22.5T553 1288q-56 45-84.5 60.5T414 1364q-51 0-72-33t-27-125h-63zm-98-231h49l12-203q22 98 117 166t270 68q121 0 203.5-25T935 904t67-121.5 20-168.5V0h-66v606q0 89-15.5 149T886 859.5 778 924t-174 20q-385 0-385-373V0h-65v975z"/><glyph glyph-name="ograve" unicode="ò" horiz-adv-x="1191" d="M299 1513h82l262-321h-76zM596-31Q455-31 356.5 4T201 108t-82 161-25 218 25 218 82 161.5T356.5 971t239.5 35 240-35 156-104.5 82.5-162T1100 487t-25.5-217.5T992 108 836 4 596-31zm0 62q125 0 210.5 29T942 149t71 141.5 21 196.5-21 196.5-71 142T806.5 915 596 944t-210.5-29T251 825.5t-70-142T160 487t21-196.5T251 149t134.5-89T596 31z"/><glyph glyph-name="oacute" unicode="ó" horiz-adv-x="1191" d="M901 1513l-268-321h-76l262 321h82zM596-31Q455-31 356.5 4T201 108t-82 161-25 218 25 218 82 161.5T356.5 971t239.5 35 240-35 156-104.5 82.5-162T1100 487t-25.5-217.5T992 108 836 4 596-31zm0 62q125 0 210.5 29T942 149t71 141.5 21 196.5-21 196.5-71 142T806.5 915 596 944t-210.5-29T251 825.5t-70-142T160 487t21-196.5T251 149t134.5-89T596 31z"/><glyph glyph-name="ocircumflex" unicode="ô" horiz-adv-x="1191" d="M295 1192l262 321h84l262-321h-76l-227 268-229-268h-76zM596-31Q455-31 356.5 4T201 108t-82 161-25 218 25 218 82 161.5T356.5 971t239.5 35 240-35 156-104.5 82.5-162T1100 487t-25.5-217.5T992 108 836 4 596-31zm0 62q125 0 210.5 29T942 149t71 141.5 21 196.5-21 196.5-71 142T806.5 915 596 944t-210.5-29T251 825.5t-70-142T160 487t21-196.5T251 149t134.5-89T596 31z"/><glyph glyph-name="otilde" unicode="õ" horiz-adv-x="1191" d="M272 1206q3 115 41.5 165t120.5 50q43 0 84-22.5t105-73.5q56-45 84.5-60.5T762 1249q51 0 71.5 33t26.5 125h64q-3-115-41.5-165T762 1192q-43 0-84 22.5T573 1288q-56 45-84.5 60.5T434 1364q-51 0-71.5-33T336 1206h-64zM596-31Q455-31 356.5 4T201 108t-82 161-25 218 25 218 82 161.5T356.5 971t239.5 35 240-35 156-104.5 82.5-162T1100 487t-25.5-217.5T992 108 836 4 596-31zm0 62q125 0 210.5 29T942 149t71 141.5 21 196.5-21 196.5-71 142T806.5 915 596 944t-210.5-29T251 825.5t-70-142T160 487t21-196.5T251 149t134.5-89T596 31z"/><glyph glyph-name="odieresis" unicode="ö" horiz-adv-x="1191" d="M389 1452h66v-260h-66v260zm352 0h66v-260h-66v260zM596-31Q455-31 356.5 4T201 108t-82 161-25 218 25 218 82 161.5T356.5 971t239.5 35 240-35 156-104.5 82.5-162T1100 487t-25.5-217.5T992 108 836 4 596-31zm0 62q125 0 210.5 29T942 149t71 141.5 21 196.5-21 196.5-71 142T806.5 915 596 944t-210.5-29T251 825.5t-70-142T160 487t21-196.5T251 149t134.5-89T596 31z"/><glyph glyph-name="oslash" unicode="ø" horiz-adv-x="1191" d="M950 907q150-121 150-420 0-125-25.5-217.5T992 108 836 4 596-31q-188 0-305 66L193-96h-76L242 70Q94 189 94 487q0 126 25 218t82 161.5T356.5 971t239.5 35q187 0 303-64l98 129h76zM160 487q0-264 121-366l579 770q-95 53-264 53-125 0-210.5-29T251 825.5t-70-142T160 487zM596 31q125 0 210.5 29T942 149t71 141.5 21 196.5q0 265-123 369L330 86q98-55 266-55z"/><glyph glyph-name="ugrave" unicode="ù" horiz-adv-x="1126" d="M258 1513h82l262-321h-76zM993 0h-49l-10 203q-10-42-37-81t-72.5-74.5-118-57T545-31Q424-31 341-5T210.5 73 143 194.5 123 360v615h65V362q0-87 16-146t56-102 109.5-63T543 31q108 0 185.5 28T848 137t61 110 19 134v594h65V0z"/><glyph glyph-name="uacute" unicode="ú" horiz-adv-x="1126" d="M860 1513l-268-321h-76l262 321h82zM993 0h-49l-10 203q-10-42-37-81t-72.5-74.5-118-57T545-31Q424-31 341-5T210.5 73 143 194.5 123 360v615h65V362q0-87 16-146t56-102 109.5-63T543 31q108 0 185.5 28T848 137t61 110 19 134v594h65V0z"/><glyph glyph-name="ucircumflex" unicode="û" horiz-adv-x="1126" d="M254 1192l262 321h84l262-321h-76l-227 268-229-268h-76zM993 0h-49l-10 203q-10-42-37-81t-72.5-74.5-118-57T545-31Q424-31 341-5T210.5 73 143 194.5 123 360v615h65V362q0-87 16-146t56-102 109.5-63T543 31q108 0 185.5 28T848 137t61 110 19 134v594h65V0z"/><glyph glyph-name="udieresis" unicode="ü" horiz-adv-x="1126" d="M348 1452h66v-260h-66v260zm352 0h66v-260h-66v260zM993 0h-49l-10 203q-10-42-37-81t-72.5-74.5-118-57T545-31Q424-31 341-5T210.5 73 143 194.5 123 360v615h65V362q0-87 16-146t56-102 109.5-63T543 31q108 0 185.5 28T848 137t61 110 19 134v594h65V0z"/><glyph glyph-name="yacute" unicode="ý" horiz-adv-x="1001" d="M805 1513l-268-321h-76l262 321h82zM31 975h73l336-744q44-95 62-143 21 58 61 143l336 744h72L360-369h-73L467 20z"/><glyph glyph-name="thorn" unicode="þ" horiz-adv-x="1175" d="M133-369v1803h66v-387q0-107-9-318 8 38 24.5 73.5t49 73.5 77 66T455 988t155 18q255 0 366-130.5T1087 487q0-260-112-389T610-31q-86 0-156 18T339.5 33 262 99t-48.5 73.5T190 246q9-212 9-318v-297h-66zM608 31q222 0 317 112t95 344-94 344.5T610 944q-223 0-318-112.5T197 487q0-233 94-344.5T608 31z"/><glyph glyph-name="ydieresis" unicode="ÿ" horiz-adv-x="1001" d="M293 1452h65v-260h-65v260zm352 0h66v-260h-66v260zM31 975h73l336-744q44-95 62-143 21 58 61 143l336 744h72L360-369h-73L467 20z"/><glyph glyph-name="Amacron" unicode="Ā" horiz-adv-x="1374" d="M395 1745h586v-59H395v59zM1282 0l-205 467H295L90 0H20l629 1434h74L1354 0h-72zM322 528h729l-291 664q-16 37-40.5 97t-33.5 81l-74-178z"/><glyph glyph-name="amacron" unicode="ā" horiz-adv-x="1097" d="M248 1354h586v-60H248v60zm-78-393q196 43 356 43 129 0 214.5-23.5t133-74 66-117.5T958 623V0h-49l-12 221q-19-51-50-92.5T767 50 643-8 475-29q-212 0-303.5 71.5T80 258q0 72 22 123t75 89 146 56.5T553 545q143 0 340-25v101q0 90-14.5 146T824 865t-112 59.5T526 942q-156 0-356-47v66zm383-476q-161 0-251-26.5T179.5 385 147 258q0-114 74.5-169.5T475 33q212 0 316 106t104 322q-158 24-342 24z"/><glyph glyph-name="Abreve" unicode="Ă" horiz-adv-x="1374" d="M422 1911h61q3-137 50.5-197.5T688 1653t154.5 60.5T893 1911h61q0-167-64.5-245.5T688 1587t-201.5 78.5T422 1911zM1282 0l-205 467H295L90 0H20l629 1434h74L1354 0h-72zM322 528h729l-291 664q-16 37-40.5 97t-33.5 81l-74-178z"/><glyph glyph-name="abreve" unicode="ă" horiz-adv-x="1097" d="M274 1516h62q3-137 50.5-198t154.5-61 154 61 50 198h62q0-167-64.5-245.5T541 1192t-202 78.5-65 245.5zM170 961q196 43 356 43 129 0 214.5-23.5t133-74 66-117.5T958 623V0h-49l-12 221q-19-51-50-92.5T767 50 643-8 475-29q-212 0-303.5 71.5T80 258q0 72 22 123t75 89 146 56.5T553 545q143 0 340-25v101q0 90-14.5 146T824 865t-112 59.5T526 942q-156 0-356-47v66zm383-476q-161 0-251-26.5T179.5 385 147 258q0-114 74.5-169.5T475 33q212 0 316 106t104 322q-158 24-342 24z"/><glyph glyph-name="Aogonek" unicode="Ą" horiz-adv-x="1374" d="M1331 0q-87-86-124.5-147T1169-260q0-37 20.5-56.5T1245-336q31 0 86 19v-66q-53-18-96-18-62 0-96.5 34.5T1104-274q0 141 178 274l-205 467H295L90 0H20l629 1434h74L1354 0h-23zM322 528h729l-291 664q-16 37-40.5 97t-33.5 81l-74-178z"/><glyph glyph-name="aogonek" unicode="ą" horiz-adv-x="1097" d="M958 0q-87-86-124-147t-37-113q0-37 20-56.5t55-19.5q31 0 86 19v-66q-53-18-96-18-62 0-96.5 34.5T731-274q0 141 178 274l-12 221q-19-51-50-92.5T767 50 643-8 475-29q-212 0-303.5 71.5T80 258q0 72 22 123t75 89 146 56.5T553 545q143 0 340-25v101q0 90-14.5 146T824 865t-112 59.5T526 942q-156 0-356-47v66q196 43 356 43 129 0 214.5-23.5t133-74 66-117.5T958 623V0zM475 33q212 0 316 106t104 322q-158 24-342 24-161 0-251-26.5T179.5 385 147 258q0-114 74.5-169.5T475 33z"/><glyph glyph-name="Cacute" unicode="Ć" horiz-adv-x="1294" d="M1067 1909l-268-322h-76l262 322h82zM1233 51q-98-36-227-59T758-31q-349 0-510.5 180T86 717q0 387 162.5 567T758 1464q111 0 230-21t208-54v-68q-236 82-438 82-319 0-462.5-162.5T152 717q0-362 143-524T758 31q221 0 475 88V51z"/><glyph glyph-name="cacute" unicode="ć" horiz-adv-x="1003" d="M860 1513l-268-321h-76l262 321h82zm35-618q-177 49-328 49-220 0-314.5-105.5T158 487q0-245 94.5-350.5T565 31q169 0 357 69V35Q855 6 757.5-12.5T565-31Q319-31 205.5 92.5T92 487q0 270 114 394.5T567 1006q165 0 328-45v-66z"/><glyph glyph-name="Ccircumflex" unicode="Ĉ" horiz-adv-x="1294" d="M461 1587l262 322h84l262-322h-76l-227 268-229-268h-76zM1233 51q-98-36-227-59T758-31q-349 0-510.5 180T86 717q0 387 162.5 567T758 1464q111 0 230-21t208-54v-68q-236 82-438 82-319 0-462.5-162.5T152 717q0-362 143-524T758 31q221 0 475 88V51z"/><glyph glyph-name="ccircumflex" unicode="ĉ" horiz-adv-x="1003" d="M254 1192l262 321h84l262-321h-76l-227 268-229-268h-76zm641-297q-177 49-328 49-220 0-314.5-105.5T158 487q0-245 94.5-350.5T565 31q169 0 357 69V35Q855 6 757.5-12.5T565-31Q319-31 205.5 92.5T92 487q0 270 114 394.5T567 1006q165 0 328-45v-66z"/><glyph glyph-name="Cdotaccent" unicode="Ċ" horiz-adv-x="1294" d="M731 1847h66v-260h-66v260zM1233 51q-98-36-227-59T758-31q-349 0-510.5 180T86 717q0 387 162.5 567T758 1464q111 0 230-21t208-54v-68q-236 82-438 82-319 0-462.5-162.5T152 717q0-362 143-524T758 31q221 0 475 88V51z"/><glyph glyph-name="cdotaccent" unicode="ċ" horiz-adv-x="1003" d="M524 1452h66v-260h-66v260zm371-557q-177 49-328 49-220 0-314.5-105.5T158 487q0-245 94.5-350.5T565 31q169 0 357 69V35Q855 6 757.5-12.5T565-31Q319-31 205.5 92.5T92 487q0 270 114 394.5T567 1006q165 0 328-45v-66z"/><glyph glyph-name="Ccaron" unicode="Č" horiz-adv-x="1294" d="M461 1909h76l229-269 227 269h76l-262-322h-84zM1233 51q-98-36-227-59T758-31q-349 0-510.5 180T86 717q0 387 162.5 567T758 1464q111 0 230-21t208-54v-68q-236 82-438 82-319 0-462.5-162.5T152 717q0-362 143-524T758 31q221 0 475 88V51z"/><glyph glyph-name="ccaron" unicode="č" horiz-adv-x="1003" d="M254 1513h76l229-268 227 268h76l-262-321h-84zm641-618q-177 49-328 49-220 0-314.5-105.5T158 487q0-245 94.5-350.5T565 31q169 0 357 69V35Q855 6 757.5-12.5T565-31Q319-31 205.5 92.5T92 487q0 270 114 394.5T567 1006q165 0 328-45v-66z"/><glyph glyph-name="Dcaron" unicode="Ď" horiz-adv-x="1425" d="M262 1909h76l229-269 228 269h75l-262-322h-84zm391-475q194 0 322.5-36.5t211-123T1304 1054t35-337-35-337-117.5-220.5-211-123T653 0H143v1434h510zm0-1373q180 0 296 32t190.5 110T1244 403.5t30 313.5-30 313.5-104.5 200.5T949 1340.5 653 1372H209V61h444z"/><glyph glyph-name="dcaron" unicode="ď" horiz-adv-x="1263" d="M571-31Q318-31 205 98.5T92 487q0 260 112 389.5T569 1006q86 0 156-18t114.5-46 77.5-66 48.5-73.5T989 729q-8 188-8 318v387h66V0h-50l-12 221Q897-31 571-31zm633 1465h66v-187l-23-135h-43v322zM571 31q218 0 315 109.5T983 487t-98 347-316 110q-216 0-312.5-110T160 487t97-346.5T571 31z"/><glyph glyph-name="Dcroat" unicode="Đ" horiz-adv-x="1425" d="M653 1434q194 0 322.5-36.5t211-123T1304 1054t35-337-35-337-117.5-220.5-211-123T653 0H143v713H0v59h143v662h510zm0-1373q180 0 296 32t190.5 110T1244 403.5t30 313.5-30 313.5-104.5 200.5T949 1340.5 653 1372H209V772h377v-59H209V61h444z"/><glyph glyph-name="dcroat" unicode="đ" horiz-adv-x="1179" d="M1180 1217v-60h-133V0h-50l-12 221Q897-31 571-31 318-31 205 98.5T92 487q0 260 112 389.5T569 1006q86 0 156-18t114.5-46 77.5-66 48.5-73.5T989 729q-8 188-8 318v110H594v60h387v217h66v-217h133zM571 31q218 0 315 109.5T983 487t-98 347-316 110q-216 0-312.5-110T160 487t97-346.5T571 31z"/><glyph glyph-name="Emacron" unicode="Ē" horiz-adv-x="1187" d="M332 1745h586v-59H332v59zM209 61h948V0H143v1434h963v-62H209V772h758v-61H209V61z"/><glyph glyph-name="emacron" unicode="ē" horiz-adv-x="1103" d="M276 1354h586v-60H276v60zM963 35Q892 6 789-12.5T588-31Q447-31 350 2T196.5 103 116 263.5 92 487q0 125 24.5 217.5t79 162T344 971t227 35q121 0 207.5-33t137-96.5 73.5-147 23-194.5q0-27-2-56H158q1-120 22.5-201.5t71-137.5 132-81.5T588 33q177 0 375 69V35zM571 944q-114 0-194-27.5t-126.5-82-67.5-126T160 539h786q0 200-85 302.5T571 944z"/><glyph glyph-name="Ebreve" unicode="Ĕ" horiz-adv-x="1187" d="M358 1911h62q3-137 50.5-197.5T625 1653t154 60.5 50 197.5h62q0-167-64.5-245.5T625 1587t-202 78.5-65 245.5zM209 61h948V0H143v1434h963v-62H209V772h758v-61H209V61z"/><glyph glyph-name="ebreve" unicode="ĕ" horiz-adv-x="1103" d="M303 1516h62q3-137 50-198t154-61 154.5 61 50.5 198h62q0-167-65-245.5T569 1192t-201.5 78.5T303 1516zM963 35Q892 6 789-12.5T588-31Q447-31 350 2T196.5 103 116 263.5 92 487q0 125 24.5 217.5t79 162T344 971t227 35q121 0 207.5-33t137-96.5 73.5-147 23-194.5q0-27-2-56H158q1-120 22.5-201.5t71-137.5 132-81.5T588 33q177 0 375 69V35zM571 944q-114 0-194-27.5t-126.5-82-67.5-126T160 539h786q0 200-85 302.5T571 944z"/><glyph glyph-name="Edotaccent" unicode="Ė" horiz-adv-x="1187" d="M592 1847h65v-260h-65v260zM209 61h948V0H143v1434h963v-62H209V772h758v-61H209V61z"/><glyph glyph-name="edotaccent" unicode="ė" horiz-adv-x="1103" d="M537 1452h65v-260h-65v260zM963 35Q892 6 789-12.5T588-31Q447-31 350 2T196.5 103 116 263.5 92 487q0 125 24.5 217.5t79 162T344 971t227 35q121 0 207.5-33t137-96.5 73.5-147 23-194.5q0-27-2-56H158q1-120 22.5-201.5t71-137.5 132-81.5T588 33q177 0 375 69V35zM571 944q-114 0-194-27.5t-126.5-82-67.5-126T160 539h786q0 200-85 302.5T571 944z"/><glyph glyph-name="Eogonek" unicode="Ę" horiz-adv-x="1187" d="M1157 0q-87-86-124.5-147T995-260q0-37 20.5-56.5T1071-336q31 0 86 19v-66q-53-18-96-18-62 0-96.5 34.5T930-274q0 141 178 274H143v1434h963v-62H209V772h758v-61H209V61h948V0z"/><glyph glyph-name="eogonek" unicode="ę" horiz-adv-x="1103" d="M1012 535q0-27-2-56H158q1-120 22.5-201.5t71-137.5 132-81.5T588 33q177 0 375 69V35q-87-86-124.5-147T801-225q0-37 20.5-56.5T877-301q34 0 86 18v-65q-55-19-97-19-62 0-96.5 34.5T735-240q0 123 144 248-146-39-291-39-141 0-238 33T196.5 103 116 263.5 92 487q0 125 24.5 217.5t79 162T344 971t227 35q121 0 207.5-33t137-96.5 73.5-147 23-194.5zm-852 4h786q0 200-85 302.5T571 944q-114 0-194-27.5t-126.5-82-67.5-126T160 539z"/><glyph glyph-name="Ecaron" unicode="Ě" horiz-adv-x="1187" d="M322 1909h75l230-269 227 269h76l-262-322h-84zM209 61h948V0H143v1434h963v-62H209V772h758v-61H209V61z"/><glyph glyph-name="ecaron" unicode="ě" horiz-adv-x="1103" d="M266 1513h76l229-268 228 268h75l-262-321h-84zM963 35Q892 6 789-12.5T588-31Q447-31 350 2T196.5 103 116 263.5 92 487q0 125 24.5 217.5t79 162T344 971t227 35q121 0 207.5-33t137-96.5 73.5-147 23-194.5q0-27-2-56H158q1-120 22.5-201.5t71-137.5 132-81.5T588 33q177 0 375 69V35zM571 944q-114 0-194-27.5t-126.5-82-67.5-126T160 539h786q0 200-85 302.5T571 944z"/><glyph glyph-name="Gcircumflex" unicode="Ĝ" horiz-adv-x="1435" d="M467 1587l262 322h84l262-322h-76l-227 268-229-268h-76zM772-31q-356 0-521 180T86 717t165 567.5T772 1464q269 0 504-75v-68q-269 82-504 82-328 0-474-161.5T152 717t146-524.5T772 31q200 0 475 57v530H866v64h447V39q-116-30-269-50T772-31z"/><glyph glyph-name="gcircumflex" unicode="ĝ" horiz-adv-x="1179" d="M301 1192l262 321h84l262-321h-75l-228 268-229-268h-76zM571-399q-95 0-211 20.5T158-326v66q231-78 413-78 209 0 309.5 97.5T981 61q0 120 8 234Q904 39 569 39q-130 0-225 37T195.5 180 117 331.5 92 522t25 190.5 79.5 152T346 969t225 37q82 0 149-16t109-40 75-59 50-64.5 31-66.5l12 215h50V61q0-460-476-460zm-2 499q414 0 414 422 0 76-13 138.5t-43 116-76.5 90-117.5 57T571 944q-114 0-195-30.5T248.5 825 181 692.5 160 522q0-76 12.5-138.5t42-116 76-90 117-57T569 100z"/><glyph glyph-name="Gbreve" unicode="Ğ" horiz-adv-x="1435" d="M504 1911h61q3-137 50.5-197.5T770 1653t154.5 60.5T975 1911h61q0-167-64.5-245.5T770 1587t-201.5 78.5T504 1911zM772-31q-356 0-521 180T86 717t165 567.5T772 1464q269 0 504-75v-68q-269 82-504 82-328 0-474-161.5T152 717t146-524.5T772 31q200 0 475 57v530H866v64h447V39q-116-30-269-50T772-31z"/><glyph glyph-name="gbreve" unicode="ğ" horiz-adv-x="1179" d="M338 1516h61q3-137 50.5-198t154.5-61 154.5 61 50.5 198h61q0-167-64.5-245.5T604 1192t-201.5 78.5T338 1516zM571-399q-95 0-211 20.5T158-326v66q231-78 413-78 209 0 309.5 97.5T981 61q0 120 8 234Q904 39 569 39q-130 0-225 37T195.5 180 117 331.5 92 522t25 190.5 79.5 152T346 969t225 37q82 0 149-16t109-40 75-59 50-64.5 31-66.5l12 215h50V61q0-460-476-460zm-2 499q414 0 414 422 0 76-13 138.5t-43 116-76.5 90-117.5 57T571 944q-114 0-195-30.5T248.5 825 181 692.5 160 522q0-76 12.5-138.5t42-116 76-90 117-57T569 100z"/><glyph glyph-name="Gdotaccent" unicode="Ġ" horiz-adv-x="1435" d="M737 1847h66v-260h-66v260zM772-31q-356 0-521 180T86 717t165 567.5T772 1464q269 0 504-75v-68q-269 82-504 82-328 0-474-161.5T152 717t146-524.5T772 31q200 0 475 57v530H866v64h447V39q-116-30-269-50T772-31z"/><glyph glyph-name="gdotaccent" unicode="ġ" horiz-adv-x="1179" d="M571 1452h66v-260h-66v260zm0-1851q-95 0-211 20.5T158-326v66q231-78 413-78 209 0 309.5 97.5T981 61q0 120 8 234Q904 39 569 39q-130 0-225 37T195.5 180 117 331.5 92 522t25 190.5 79.5 152T346 969t225 37q82 0 149-16t109-40 75-59 50-64.5 31-66.5l12 215h50V61q0-460-476-460zm-2 499q414 0 414 422 0 76-13 138.5t-43 116-76.5 90-117.5 57T571 944q-114 0-195-30.5T248.5 825 181 692.5 160 522q0-76 12.5-138.5t42-116 76-90 117-57T569 100z"/><glyph glyph-name="uni0122" unicode="Ģ" horiz-adv-x="1435" d="M772-31q-356 0-521 180T86 717t165 567.5T772 1464q269 0 504-75v-68q-269 82-504 82-328 0-474-161.5T152 717t146-524.5T772 31q200 0 475 57v530H866v64h447V39q-116-30-269-50T772-31zm-29-121h88v-124l-30-125h-49l28 143h-37v106z"/><glyph glyph-name="uni0123" unicode="ģ" horiz-adv-x="1179" d="M643 1192h-74v186l31 135h49l-28-153h22v-168zM571-399q-95 0-211 20.5T158-326v66q231-78 413-78 209 0 309.5 97.5T981 61q0 120 8 234Q904 39 569 39q-130 0-225 37T195.5 180 117 331.5 92 522t25 190.5 79.5 152T346 969t225 37q82 0 149-16t109-40 75-59 50-64.5 31-66.5l12 215h50V61q0-460-476-460zm-2 499q414 0 414 422 0 76-13 138.5t-43 116-76.5 90-117.5 57T571 944q-114 0-195-30.5T248.5 825 181 692.5 160 522q0-76 12.5-138.5t42-116 76-90 117-57T569 100z"/><glyph glyph-name="Hcircumflex" unicode="Ĥ" horiz-adv-x="1447" d="M727 1855l-229-268h-76l262 322h84l262-322h-76zm512-421h66V0h-66v711H209V0h-66v1434h66V772h1030v662z"/><glyph glyph-name="hcircumflex" unicode="ĥ" horiz-adv-x="1120" d="M262 1587l262 322h84l262-322h-75l-228 268-229-268h-76zm-129-153h66v-377q0-104-9-293 9 47 35 88t71.5 76.5 119 56.5 166.5 21q120 0 202.5-25T914 904t67-121.5 20-168.5V0h-65v612q0 88-15.5 147.5t-55 102.5-109 62.5T582 944q-383 0-383-342V0h-66v1434z"/><glyph glyph-name="Hbar" unicode="Ħ" horiz-adv-x="1447" d="M1407 1124v-59h-102V0h-66v711H209V0h-66v1065H41v59h102v310h66v-310h1030v310h66v-310h102zm-168-352v293H209V772h1030z"/><glyph glyph-name="hbar" unicode="ħ" horiz-adv-x="1120" d="M582 1006q120 0 202.5-25T914 904t67-121.5 20-168.5V0h-65v612q0 88-15.5 147.5t-55 102.5-109 62.5T582 944q-383 0-383-342V0h-66v1157H0v60h133v217h66v-217h387v-60H199v-100q0-104-9-293 9 47 35 88t71.5 76.5 119 56.5 166.5 21z"/><glyph glyph-name="Itilde" unicode="Ĩ" horiz-adv-x="352" d="M-129 1602q3 115 41.5 165T33 1817q43 0 83-22.5t105-74.5q55-44 84-59.5t55-15.5q51 0 72 32.5t27 124.5h63q-3-115-41.5-165T360 1587q-43 0-83.5 22.5T172 1683q-56 45-84.5 60.5T33 1759q-51 0-72-32.5T-66 1602h-63zm272-168h66V0h-66v1434z"/><glyph glyph-name="itilde" unicode="ĩ" horiz-adv-x="331" d="M-160 1206q3 115 41.5 165T2 1421q43 0 83.5-22.5T190 1325q56-44 85-60t55-16q51 0 71.5 33t26.5 125h64q-3-115-41.5-165T330 1192q-43 0-84 22.5T141 1288q-56 45-84.5 60.5T2 1364q-51 0-71.5-33T-96 1206h-64zm293-231h66V0h-66v975z"/><glyph glyph-name="Imacron" unicode="Ī" horiz-adv-x="352" d="M-117 1745h586v-59h-586v59zm260-311h66V0h-66v1434z"/><glyph glyph-name="imacron" unicode="ī" horiz-adv-x="331" d="M-127 1354h586v-60h-586v60zm260-379h66V0h-66v975z"/><glyph glyph-name="Ibreve" unicode="Ĭ" horiz-adv-x="352" d="M-90 1911h61q3-137 50.5-197.5T176 1653t154.5 60.5T381 1911h61q0-167-64.5-245.5T176 1587t-201.5 78.5T-90 1911zm233-477h66V0h-66v1434z"/><glyph glyph-name="ibreve" unicode="ĭ" horiz-adv-x="331" d="M-100 1516h61q3-137 50.5-198t154.5-61 154.5 61 50.5 198h61q0-167-64.5-245.5T166 1192t-201.5 78.5T-100 1516zm233-541h66V0h-66v975z"/><glyph glyph-name="Iogonek" unicode="Į" horiz-adv-x="352" d="M143 1434h66V0h-16Q106-86 68.5-147T31-260q0-37 20-56.5t55-19.5q32 0 87 19v-66q-52-18-97-18-62 0-96.5 34.5T-35-274q0 141 178 274v1434z"/><glyph glyph-name="iogonek" unicode="į" horiz-adv-x="331" d="M133 1434h66v-256h-66v256zM133 0v975h66V0h-17Q95-86 57.5-147T20-260q0-37 20.5-56.5T96-336q31 0 86 19v-66q-53-18-96-18-62 0-96.5 34.5T-45-274q0 141 178 274z"/><glyph glyph-name="Idotaccent" unicode="İ" horiz-adv-x="352" d="M143 1847h66v-260h-66v260zm0-413h66V0h-66v1434z"/><glyph glyph-name="dotlessi" unicode="ı" horiz-adv-x="331" d="M133 975h66V0h-66v975z"/><glyph glyph-name="Jcircumflex" unicode="Ĵ" horiz-adv-x="659" d="M188 1587l263 322h84l262-322h-76l-227 268-230-268h-76zM61 66q101-13 146-13 150 0 202 60.5T461 332v1102h65V332q0-93-14.5-154.5T461 72.5t-98-63T207-10Q130-10 61 2v64z"/><glyph glyph-name="jcircumflex" unicode="ĵ" horiz-adv-x="329" d="M-139 1192l262 321h84l262-321h-76l-227 268-229-268h-76zM199-137q0-131-60.5-196.5T-66-399q-74 0-114 8v63q67-10 114-10 113 0 156 46.5T133-137V975h66V-137z"/><glyph glyph-name="uni0136" unicode="Ķ" horiz-adv-x="1267" d="M209 784q0-126-8-290 144 160 551 567l372 373h90L596 813 1319 0h-86L553 770 209 426V0h-66v1434h66V784zm383-936h88v-124l-31-125h-49l29 143h-37v106z"/><glyph glyph-name="uni0137" unicode="ķ" horiz-adv-x="1001" d="M133 1434h66V612q0-106-9-290 128 144 637 653h93L483 539 1022 0h-92L438 494 199 254V0h-66v1434zM459-152h88v-124l-31-125h-49l29 143h-37v106z"/><glyph glyph-name="Lacute" unicode="Ĺ" horiz-adv-x="1134" d="M481 1909l-268-322h-76l262 322h82zM209 61h885V0H143v1434h66V61z"/><glyph glyph-name="lacute" unicode="ĺ" horiz-adv-x="372" d="M489 1972l-268-321h-76l263 321h81zm-335-538h65V0h-65v1434z"/><glyph glyph-name="uni013B" unicode="Ļ" horiz-adv-x="1134" d="M209 61h885V0H143v1434h66V61zm315-213h88v-124l-30-125h-50l29 143h-37v106z"/><glyph glyph-name="uni013C" unicode="ļ" horiz-adv-x="372" d="M154 1434h65V0h-65v1434zM143-152h88v-124l-30-125h-49l28 143h-37v106z"/><glyph glyph-name="Lcaron" unicode="Ľ" horiz-adv-x="1134" d="M209 61h885V0H143v1434h66V61zm207 1373h65v-187l-22-135h-43v322z"/><glyph glyph-name="lcaron" unicode="ľ" horiz-adv-x="444" d="M154 1434h65V0h-65v1434zm225 0h65v-187l-22-135h-43v322z"/><glyph glyph-name="Ldot" unicode="Ŀ" horiz-adv-x="1134" d="M209 61h885V0H143v1434h66V61zm483 758h99V678h-99v141z"/><glyph glyph-name="ldot" unicode="ŀ" horiz-adv-x="464" d="M154 1434h65V0h-65v1434zm213-646h98V647h-98v141z"/><glyph glyph-name="Lslash" unicode="Ł" horiz-adv-x="1134" d="M209 61h885V0H143v598L2 516v70l141 82v766h66V705l502 290v-69L209 635V61z"/><glyph glyph-name="lslash" unicode="ł" horiz-adv-x="372" d="M373 926v-72L219 731V0h-65v680L0 557v72l154 123v682h65V803z"/><glyph glyph-name="Nacute" unicode="Ń" horiz-adv-x="1447" d="M1028 1909l-268-322h-76l262 322h82zM143 0v1434h99l829-1141q65-88 168-242v1383h66V0h-99L367 1157q-79 108-158 225V0h-66z"/><glyph glyph-name="nacute" unicode="ń" horiz-adv-x="1155" d="M881 1513l-269-321h-75l262 321h82zM154 975h49l12-203q22 98 117 166t270 68q121 0 203.5-25T935 904t67-121.5 20-168.5V0h-66v606q0 89-15.5 149T886 859.5 778 924t-174 20q-385 0-385-373V0h-65v975z"/><glyph glyph-name="uni0145" unicode="Ņ" horiz-adv-x="1447" d="M143 0v1434h99l829-1141q65-88 168-242v1383h66V0h-99L367 1157q-79 108-158 225V0h-66zm539-152h88v-124l-31-125h-49l29 143h-37v106z"/><glyph glyph-name="uni0146" unicode="ņ" horiz-adv-x="1155" d="M154 975h49l12-203q22 98 117 166t270 68q121 0 203.5-25T935 904t67-121.5 20-168.5V0h-66v606q0 89-15.5 149T886 859.5 778 924t-174 20q-385 0-385-373V0h-65v975zM535-152h88v-124l-31-125h-49l28 143h-36v106z"/><glyph glyph-name="Ncaron" unicode="Ň" horiz-adv-x="1447" d="M422 1909h76l229-269 227 269h76l-262-322h-84zM143 0v1434h99l829-1141q65-88 168-242v1383h66V0h-99L367 1157q-79 108-158 225V0h-66z"/><glyph glyph-name="ncaron" unicode="ň" horiz-adv-x="1155" d="M274 1513h76l230-268 227 268h76l-262-321h-84zM154 975h49l12-203q22 98 117 166t270 68q121 0 203.5-25T935 904t67-121.5 20-168.5V0h-66v606q0 89-15.5 149T886 859.5 778 924t-174 20q-385 0-385-373V0h-65v975z"/><glyph glyph-name="Eng" unicode="Ŋ" horiz-adv-x="1468" d="M154 0v1434h98l825-1102q110-149 172-242v1344h66V-37q0-93-14.5-154.5t-51-105-98.5-63T995-379q-76 0-145 12v64q93-12 145-12 152 0 203 64.5T1249-6L381 1157q-125 169-162 225V0h-65z"/><glyph glyph-name="eng" unicode="ŋ" horiz-adv-x="1155" d="M154 0v975h49l12-203q22 98 117 166t270 68q121 0 203.5-25T935 904t67-121.5 20-168.5v-751q0-131-60.5-196.5T758-399q-75 0-115 8v63q67-10 115-10 113 0 155.5 46.5T956-137v743q0 89-15.5 149T886 859.5 778 924t-174 20q-385 0-385-373V0h-65z"/><glyph glyph-name="Omacron" unicode="Ō" horiz-adv-x="1507" d="M463 1745h586v-59H463v59zM754-31q-179 0-305.5 47.5T245 161 133 394 98 717t35 323 112 232.5 203.5 144T754 1464t305.5-47.5 203.5-144 112.5-232.5 35.5-323-35.5-323T1263 161 1059.5 16.5 754-31zm0 62q320 0 456 165.5T1346 717t-136 520.5T754 1403t-455-165.5T164 717t135-520.5T754 31z"/><glyph glyph-name="omacron" unicode="ō" horiz-adv-x="1191" d="M305 1354h586v-60H305v60zM596-31Q455-31 356.5 4T201 108t-82 161-25 218 25 218 82 161.5T356.5 971t239.5 35 240-35 156-104.5 82.5-162T1100 487t-25.5-217.5T992 108 836 4 596-31zm0 62q125 0 210.5 29T942 149t71 141.5 21 196.5-21 196.5-71 142T806.5 915 596 944t-210.5-29T251 825.5t-70-142T160 487t21-196.5T251 149t134.5-89T596 31z"/><glyph glyph-name="Obreve" unicode="Ŏ" horiz-adv-x="1507" d="M489 1911h62q3-137 50.5-197.5T756 1653t154.5 60.5T961 1911h61q0-167-64.5-245.5T756 1587t-202 78.5-65 245.5zM754-31q-179 0-305.5 47.5T245 161 133 394 98 717t35 323 112 232.5 203.5 144T754 1464t305.5-47.5 203.5-144 112.5-232.5 35.5-323-35.5-323T1263 161 1059.5 16.5 754-31zm0 62q320 0 456 165.5T1346 717t-136 520.5T754 1403t-455-165.5T164 717t135-520.5T754 31z"/><glyph glyph-name="obreve" unicode="ŏ" horiz-adv-x="1191" d="M332 1516h61q3-137 50.5-198t154.5-61 154.5 61 50.5 198h61q0-167-64.5-245.5T598 1192t-201.5 78.5T332 1516zM596-31Q455-31 356.5 4T201 108t-82 161-25 218 25 218 82 161.5T356.5 971t239.5 35 240-35 156-104.5 82.5-162T1100 487t-25.5-217.5T992 108 836 4 596-31zm0 62q125 0 210.5 29T942 149t71 141.5 21 196.5-21 196.5-71 142T806.5 915 596 944t-210.5-29T251 825.5t-70-142T160 487t21-196.5T251 149t134.5-89T596 31z"/><glyph glyph-name="Ohungarumlaut" unicode="Ő" horiz-adv-x="1507" d="M821 1909l-268-322h-76l262 322h82zm355 0l-269-322h-76l263 322h82zM754-31q-179 0-305.5 47.5T245 161 133 394 98 717t35 323 112 232.5 203.5 144T754 1464t305.5-47.5 203.5-144 112.5-232.5 35.5-323-35.5-323T1263 161 1059.5 16.5 754-31zm0 62q320 0 456 165.5T1346 717t-136 520.5T754 1403t-455-165.5T164 717t135-520.5T754 31z"/><glyph glyph-name="ohungarumlaut" unicode="ő" horiz-adv-x="1191" d="M608 1513l-268-321h-76l262 321h82zm355 0l-269-321h-76l263 321h82zM596-31Q455-31 356.5 4T201 108t-82 161-25 218 25 218 82 161.5T356.5 971t239.5 35 240-35 156-104.5 82.5-162T1100 487t-25.5-217.5T992 108 836 4 596-31zm0 62q125 0 210.5 29T942 149t71 141.5 21 196.5-21 196.5-71 142T806.5 915 596 944t-210.5-29T251 825.5t-70-142T160 487t21-196.5T251 149t134.5-89T596 31z"/><glyph glyph-name="OE" unicode="Œ" horiz-adv-x="2390" d="M754-31q-179 0-305.5 47.5T245 161 133 394 98 717t35 323 112 232.5 203.5 144T754 1464q458 0 592-331v301h962v-62h-897V772h758v-61h-758V61h948V0H1346v301q-67-165-212.5-248.5T754-31zm0 62q320 0 456 165.5T1346 717t-136 520.5T754 1403t-455-165.5T164 717t135-520.5T754 31z"/><glyph glyph-name="oe" unicode="œ" horiz-adv-x="2043" d="M92 487q0 126 25 218t82 161.5T354.5 971t239.5 35q198 0 311.5-69.5T1065 733q87 273 446 273 121 0 207.5-33t137-96.5 73.5-147 23-194.5q0-25-2-56h-852q1-120 22.5-201.5t71-137.5 132-81.5T1528 33q177 0 375 69V35q-71-29-174-47.5T1528-31q-199 0-311 68t-154 203Q973-31 594-31 453-31 354.5 4T199 108t-82 161-25 218zm66 0q0-115 21-196.5T249 149t134.5-89T594 31t210.5 29T940 149t71 141.5 21 196.5-21 196.5-71 142T804.5 915 594 944t-210.5-29T249 825.5t-70-142T158 487zm942 54h786q0 97-18.5 168.5t-61 125.5-116.5 81.5-179 27.5q-92 0-161.5-18.5t-116-51.5-76-84-42.5-111.5-15-137.5z"/><glyph glyph-name="Racute" unicode="Ŕ" horiz-adv-x="1312" d="M899 1909l-268-322h-76l262 322h82zm-756-475h553q128 0 220.5-31t144.5-87 76-125.5 24-156.5q0-109-37-185.5T1014.5 727t-170-65.5T616 641q71-17 141.5-70.5T938 397L1303 0h-86L805 444q-99 108-182.5 149.5T418 635H209V0h-66v1434zm66-62V696h401q117 0 203.5 17t140 45.5 86 72.5 44.5 92.5 12 110.5q0 77-20 136t-64.5 105.5-124 71.5-191.5 25H209z"/><glyph glyph-name="racute" unicode="ŕ" horiz-adv-x="688" d="M690 1513l-268-321h-76l262 321h82zM154 975h49l10-277q4 59 25 109t62 94 112.5 69T580 995q34 0 67-2v-67q-33 2-67 2-196 0-278.5-99T219 496V0h-65v975z"/><glyph glyph-name="uni0156" unicode="Ŗ" horiz-adv-x="1312" d="M143 1434h553q128 0 220.5-31t144.5-87 76-125.5 24-156.5q0-109-37-185.5T1014.5 727t-170-65.5T616 641q71-17 141.5-70.5T938 397L1303 0h-86L805 444q-99 108-182.5 149.5T418 635H209V0h-66v1434zm66-62V696h401q117 0 203.5 17t140 45.5 86 72.5 44.5 92.5 12 110.5q0 77-20 136t-64.5 105.5-124 71.5-191.5 25H209zM614-152h88v-124l-30-125h-49l28 143h-37v106z"/><glyph glyph-name="uni0157" unicode="ŗ" horiz-adv-x="688" d="M154 975h49l10-277q4 59 25 109t62 94 112.5 69T580 995q34 0 67-2v-67q-33 2-67 2-196 0-278.5-99T219 496V0h-65v975zM143-152h88v-124l-30-125h-49l28 143h-37v106z"/><glyph glyph-name="Rcaron" unicode="Ř" horiz-adv-x="1312" d="M293 1909h76l229-269 227 269h76l-262-322h-84zm-150-475h553q128 0 220.5-31t144.5-87 76-125.5 24-156.5q0-109-37-185.5T1014.5 727t-170-65.5T616 641q71-17 141.5-70.5T938 397L1303 0h-86L805 444q-99 108-182.5 149.5T418 635H209V0h-66v1434zm66-62V696h401q117 0 203.5 17t140 45.5 86 72.5 44.5 92.5 12 110.5q0 77-20 136t-64.5 105.5-124 71.5-191.5 25H209z"/><glyph glyph-name="rcaron" unicode="ř" horiz-adv-x="688" d="M84 1513h76l229-268 227 268h76l-262-321h-84zm70-538h49l10-277q4 59 25 109t62 94 112.5 69T580 995q34 0 67-2v-67q-33 2-67 2-196 0-278.5-99T219 496V0h-65v975z"/><glyph glyph-name="Sacute" unicode="Ś" horiz-adv-x="1232" d="M920 1909l-269-322h-76l263 322h82zm157-578q-250 72-471 72-108 0-189.5-15t-131-39-80-60.5-42-74T152 1130q0-31 3-53t13.5-51 29.5-51.5 53.5-49T335 876t120.5-48.5T618 778q138-36 234.5-75t155-77.5 91-87.5 43.5-95.5 11-110.5q0-63-14.5-114.5t-52-99-97-79.5T834-12 612-31Q477-31 327-7.5T82 53v68q266-90 530-90 140 0 236.5 22.5t147 65.5 71 94 20.5 119q0 56-9 94t-37.5 79.5-82 74-142.5 67T598 715q-134 35-230 75.5T218 869t-84.5 85-39 85.5T86 1130q0 334 520 334 255 0 471-65v-68z"/><glyph glyph-name="sacute" unicode="ś" horiz-adv-x="987" d="M797 1513l-269-321h-75l262 321h82zM506-27q-220 0-391 62v65q202-65 401-65 180 0 253 52.5T842 250q0 24-2.5 43t-10 35.5T815 358t-23.5 24.5-28.5 20-38 17.5-43.5 14.5-54 13.5-60.5 13-71 14q-52 10-78 15.5T349.5 506 285 523.5 232 544t-47 26-35.5 32-28 40.5-15 49T100 752q0 123 88.5 186t296.5 63q162 0 351-34v-66q-185 39-351 39-180 0-249.5-45T166 756q0-28 4.5-50.5t17-40.5 24.5-31.5 38-25.5 46-19.5 60-17 68-15 82-15.5q95-18 140-28t106.5-32.5 88-49.5 46.5-73 20-110q0-138-91.5-206.5T506-27z"/><glyph glyph-name="Scircumflex" unicode="Ŝ" horiz-adv-x="1232" d="M313 1587l262 322h84l263-322h-76l-228 268-229-268h-76zm764-256q-250 72-471 72-108 0-189.5-15t-131-39-80-60.5-42-74T152 1130q0-31 3-53t13.5-51 29.5-51.5 53.5-49T335 876t120.5-48.5T618 778q138-36 234.5-75t155-77.5 91-87.5 43.5-95.5 11-110.5q0-63-14.5-114.5t-52-99-97-79.5T834-12 612-31Q477-31 327-7.5T82 53v68q266-90 530-90 140 0 236.5 22.5t147 65.5 71 94 20.5 119q0 56-9 94t-37.5 79.5-82 74-142.5 67T598 715q-134 35-230 75.5T218 869t-84.5 85-39 85.5T86 1130q0 334 520 334 255 0 471-65v-68z"/><glyph glyph-name="scircumflex" unicode="ŝ" horiz-adv-x="987" d="M190 1192l263 321h84l262-321h-76l-227 268-230-268h-76zM506-27q-220 0-391 62v65q202-65 401-65 180 0 253 52.5T842 250q0 24-2.5 43t-10 35.5T815 358t-23.5 24.5-28.5 20-38 17.5-43.5 14.5-54 13.5-60.5 13-71 14q-52 10-78 15.5T349.5 506 285 523.5 232 544t-47 26-35.5 32-28 40.5-15 49T100 752q0 123 88.5 186t296.5 63q162 0 351-34v-66q-185 39-351 39-180 0-249.5-45T166 756q0-28 4.5-50.5t17-40.5 24.5-31.5 38-25.5 46-19.5 60-17 68-15 82-15.5q95-18 140-28t106.5-32.5 88-49.5 46.5-73 20-110q0-138-91.5-206.5T506-27z"/><glyph glyph-name="Scedilla" unicode="Ş" horiz-adv-x="1232" d="M1153 332q0-62-14-113t-50.5-98T994 41.5t-150.5-52T629-31l-68-98q40 4 72 4 73 0 114-35t41-94q0-65-49-102t-143-37q-90 0-172 28v62q82-31 162-31 135 0 135 78t-117 78q-56 0-92-4l-25 41 74 110Q432-26 299.5-3T82 53v68q266-90 530-90 140 0 236.5 22.5t147 65.5 71 94 20.5 119q0 56-9 94t-37.5 79.5-82 74-142.5 67T598 715q-134 35-230 75.5T218 869t-84.5 85-39 85.5T86 1130q0 334 520 334 255 0 471-65v-68q-250 72-471 72-108 0-189.5-15t-131-39-80-60.5-42-74T152 1130q0-31 3-53t13.5-51 29.5-51.5 53.5-49T335 876t120.5-48.5T618 778q138-36 234.5-75t155-77.5 91-87.5 43.5-95.5 11-110.5z"/><glyph glyph-name="scedilla" unicode="ş" horiz-adv-x="987" d="M907 248q0-137-90-205.5T512-27l-70-102q40 4 72 4 73 0 114.5-35t41.5-94q0-65-49-102t-144-37q-90 0-172 28v62q82-31 162-31 135 0 135 78t-117 78q-56 0-92-4l-24 41 75 116q-182 8-329 60v65q202-65 401-65 180 0 253 52.5T842 250q0 24-2.5 43t-10 35.5T815 358t-23.5 24.5-28.5 20-38 17.5-43.5 14.5-54 13.5-60.5 13-71 14q-52 10-78 15.5T349.5 506 285 523.5 232 544t-47 26-35.5 32-28 40.5-15 49T100 752q0 123 88.5 186t296.5 63q162 0 351-34v-66q-185 39-351 39-180 0-249.5-45T166 756q0-28 4.5-50.5t17-40.5 24.5-31.5 38-25.5 46-19.5 60-17 68-15 82-15.5q95-18 140-28t106.5-32.5 88-49.5 46.5-73 20-110z"/><glyph glyph-name="Scaron" unicode="Š" horiz-adv-x="1232" d="M313 1909h76l229-269 228 269h76l-263-322h-84zm764-578q-250 72-471 72-108 0-189.5-15t-131-39-80-60.5-42-74T152 1130q0-31 3-53t13.5-51 29.5-51.5 53.5-49T335 876t120.5-48.5T618 778q138-36 234.5-75t155-77.5 91-87.5 43.5-95.5 11-110.5q0-63-14.5-114.5t-52-99-97-79.5T834-12 612-31Q477-31 327-7.5T82 53v68q266-90 530-90 140 0 236.5 22.5t147 65.5 71 94 20.5 119q0 56-9 94t-37.5 79.5-82 74-142.5 67T598 715q-134 35-230 75.5T218 869t-84.5 85-39 85.5T86 1130q0 334 520 334 255 0 471-65v-68z"/><glyph glyph-name="scaron" unicode="š" horiz-adv-x="987" d="M190 1513h76l230-268 227 268h76l-262-321h-84zM506-27q-220 0-391 62v65q202-65 401-65 180 0 253 52.5T842 250q0 24-2.5 43t-10 35.5T815 358t-23.5 24.5-28.5 20-38 17.5-43.5 14.5-54 13.5-60.5 13-71 14q-52 10-78 15.5T349.5 506 285 523.5 232 544t-47 26-35.5 32-28 40.5-15 49T100 752q0 123 88.5 186t296.5 63q162 0 351-34v-66q-185 39-351 39-180 0-249.5-45T166 756q0-28 4.5-50.5t17-40.5 24.5-31.5 38-25.5 46-19.5 60-17 68-15 82-15.5q95-18 140-28t106.5-32.5 88-49.5 46.5-73 20-110q0-138-91.5-206.5T506-27z"/><glyph glyph-name="uni0162" unicode="Ţ" horiz-adv-x="1236" d="M1196 1372H651V0h4l-88-129q40 4 72 4 73 0 114.5-35t41.5-94q0-65-49-102t-144-37q-90 0-172 28v62q82-31 162-31 135 0 135 78t-117 78q-56 0-92-4l-24 41L586 0v1372H41v62h1155v-62z"/><glyph glyph-name="uni0163" unicode="ţ" horiz-adv-x="722" d="M662 913H281V260q0-111 44.5-158T494 55q62 0 135 15V6Q579-6 494-6h-19l-84-123q40 4 72 4 73 0 114-35t41-94q0-65-49-102t-143-37q-90 0-172 28v62q82-31 162-31 135 0 135 78t-117 78q-56 0-92-4l-25 41L410 0Q304 18 259.5 83T215 260v653H61v62h154l16 229h50V975h381v-62z"/><glyph glyph-name="Tcaron" unicode="Ť" horiz-adv-x="1236" d="M662 1587h-84l-263 322h76l230-269 227 269h76zm534-153v-62H651V0h-65v1372H41v62h1155z"/><glyph glyph-name="tcaron" unicode="ť" horiz-adv-x="722" d="M545 1298l-23-135h-43v322h66v-187zm117-385H281V260q0-111 44.5-158T494 55q62 0 135 15V6Q579-6 494-6 340-6 277.5 61T215 260v653H61v62h154l16 229h50V975h381v-62z"/><glyph glyph-name="Tbar" unicode="Ŧ" horiz-adv-x="1236" d="M1196 1372H651V768h260v-59H651V0h-65v709H326v59h260v604H41v62h1155v-62z"/><glyph glyph-name="tbar" unicode="ŧ" horiz-adv-x="722" d="M662 913H281V621h370v-60H281V260q0-111 44.5-158T494 55q62 0 135 15V6Q579-6 494-6 340-6 277.5 61T215 260v301H66v60h149v292H61v62h154l16 229h50V975h381v-62z"/><glyph glyph-name="Utilde" unicode="Ũ" horiz-adv-x="1443" d="M418 1602q3 115 41.5 165t120.5 50q43 0 83-22.5t105-74.5q55-44 84-59.5t55-15.5q51 0 72 32.5t27 124.5h63q-3-115-41.5-165T907 1587q-43 0-83.5 22.5T719 1683q-56 45-84.5 60.5T580 1759q-51 0-72-32.5T481 1602h-63zm893-168V553q0-131-32.5-235t-101-183.5T993.5 12 721-31 449 12 266 134.5 165.5 318 133 553v881h66V553q0-522 522-522 524 0 524 522v881h66z"/><glyph glyph-name="utilde" unicode="ũ" horiz-adv-x="1126" d="M231 1206q3 115 41.5 165t120.5 50q43 0 84-22.5t105-73.5q56-45 84.5-60.5T721 1249q51 0 71.5 33t26.5 125h64q-3-115-41.5-165T721 1192q-43 0-84 22.5T532 1288q-56 45-84.5 60.5T393 1364q-51 0-71.5-33T295 1206h-64zM993 0h-49l-10 203q-10-42-37-81t-72.5-74.5-118-57T545-31Q424-31 341-5T210.5 73 143 194.5 123 360v615h65V362q0-87 16-146t56-102 109.5-63T543 31q108 0 185.5 28T848 137t61 110 19 134v594h65V0z"/><glyph glyph-name="Umacron" unicode="Ū" horiz-adv-x="1443" d="M430 1745h586v-59H430v59zm881-311V553q0-131-32.5-235t-101-183.5T993.5 12 721-31 449 12 266 134.5 165.5 318 133 553v881h66V553q0-522 522-522 524 0 524 522v881h66z"/><glyph glyph-name="umacron" unicode="ū" horiz-adv-x="1126" d="M264 1354h586v-60H264v60zM993 0h-49l-10 203q-10-42-37-81t-72.5-74.5-118-57T545-31Q424-31 341-5T210.5 73 143 194.5 123 360v615h65V362q0-87 16-146t56-102 109.5-63T543 31q108 0 185.5 28T848 137t61 110 19 134v594h65V0z"/><glyph glyph-name="Ubreve" unicode="Ŭ" horiz-adv-x="1443" d="M457 1911h61q3-137 50.5-197.5T723 1653t154.5 60.5T928 1911h61q0-167-64.5-245.5T723 1587t-201.5 78.5T457 1911zm854-477V553q0-131-32.5-235t-101-183.5T993.5 12 721-31 449 12 266 134.5 165.5 318 133 553v881h66V553q0-522 522-522 524 0 524 522v881h66z"/><glyph glyph-name="ubreve" unicode="ŭ" horiz-adv-x="1126" d="M291 1516h61q3-137 50.5-198t154.5-61 154.5 61 50.5 198h61q0-167-64.5-245.5T557 1192t-201.5 78.5T291 1516zM993 0h-49l-10 203q-10-42-37-81t-72.5-74.5-118-57T545-31Q424-31 341-5T210.5 73 143 194.5 123 360v615h65V362q0-87 16-146t56-102 109.5-63T543 31q108 0 185.5 28T848 137t61 110 19 134v594h65V0z"/><glyph glyph-name="Uring" unicode="Ů" horiz-adv-x="1443" d="M733 1587q-103 0-156 50t-53 147 53 147.5 156 50.5q102 0 154.5-50t52.5-148q0-197-207-197zm0 60q76 0 108.5 32t32.5 103q0 74-32.5 107.5T733 1923t-109.5-33.5T590 1782q0-71 33.5-103t109.5-32zm578-213V553q0-131-32.5-235t-101-183.5T993.5 12 721-31 449 12 266 134.5 165.5 318 133 553v881h66V553q0-522 522-522 524 0 524 522v881h66z"/><glyph glyph-name="uring" unicode="ů" horiz-adv-x="1126" d="M559 1192q-103 0-156 50t-53 147 53 147.5 156 50.5q102 0 154.5-50t52.5-148q0-197-207-197zm0 59q76 0 108.5 32t32.5 103q0 74-32.5 108T559 1528t-109.5-34-33.5-108q0-71 33.5-103t109.5-32zM993 0h-49l-10 203q-10-42-37-81t-72.5-74.5-118-57T545-31Q424-31 341-5T210.5 73 143 194.5 123 360v615h65V362q0-87 16-146t56-102 109.5-63T543 31q108 0 185.5 28T848 137t61 110 19 134v594h65V0z"/><glyph glyph-name="Uhungarumlaut" unicode="Ű" horiz-adv-x="1443" d="M788 1909l-268-322h-76l263 322h81zm355 0l-269-322h-75l262 322h82zm168-475V553q0-131-32.5-235t-101-183.5T993.5 12 721-31 449 12 266 134.5 165.5 318 133 553v881h66V553q0-522 522-522 524 0 524 522v881h66z"/><glyph glyph-name="uhungarumlaut" unicode="ű" horiz-adv-x="1126" d="M567 1513l-268-321h-76l262 321h82zm355 0l-269-321h-75l262 321h82zM993 0h-49l-10 203q-10-42-37-81t-72.5-74.5-118-57T545-31Q424-31 341-5T210.5 73 143 194.5 123 360v615h65V362q0-87 16-146t56-102 109.5-63T543 31q108 0 185.5 28T848 137t61 110 19 134v594h65V0z"/><glyph glyph-name="Uogonek" unicode="Ų" horiz-adv-x="1443" d="M1245 1434h66V553q0-123-29-222.5T1193 153 1031.5 28 793-29Q659-169 659-260q0-37 20.5-56.5T735-336q31 0 86 19v-66q-53-18-96-18-62 0-96.5 34.5T594-274q0 123 139 243h-12q-157 0-272 43T266 134.5 165.5 318 133 553v881h66V553q0-522 522-522 524 0 524 522v881z"/><glyph glyph-name="uogonek" unicode="ų" horiz-adv-x="1126" d="M993 0q-87-86-124.5-147T831-260q0-37 20.5-56.5T907-336q31 0 86 19v-66q-53-18-96-18-62 0-96.5 34.5T766-274q0 141 178 274l-10 203q-10-42-37-81t-72.5-74.5-118-57T545-31Q424-31 341-5T210.5 73 143 194.5 123 360v615h65V362q0-87 16-146t56-102 109.5-63T543 31q108 0 185.5 28T848 137t61 110 19 134v594h65V0z"/><glyph glyph-name="Wcircumflex" unicode="Ŵ" horiz-adv-x="1945" d="M670 1587l262 322h84l262-322h-76l-227 268-230-268h-75zM20 1434h68L471 231q30-101 43-159 13 58 43 159l381 1203h70l383-1203q30-101 43-159 13 58 43 159l381 1203h67L1468 0h-69l-383 1202q-31 103-43 158-12-55-43-158L549 0h-70z"/><glyph glyph-name="wcircumflex" unicode="ŵ" horiz-adv-x="1576" d="M483 1192l262 321h84l263-321h-76l-228 268-229-268h-76zM31 975h71l265-754q20-55 53-164 22 72 55 164l264 754h99l268-754q20-55 53-164 22 72 55 164l265 754h67L1202 0h-88L788 924 463 0h-88z"/><glyph glyph-name="Ycircumflex" unicode="Ŷ" horiz-adv-x="1269" d="M332 1587l262 322h84l262-322h-76l-227 268-229-268h-76zM602 0v586L23 1434h77l469-689q36-50 66-104 40 66 67 104l469 689h78L668 586V0h-66z"/><glyph glyph-name="ycircumflex" unicode="ŷ" horiz-adv-x="1001" d="M199 1192l262 321h84l262-321h-76l-227 268-230-268h-75zM31 975h73l336-744q44-95 62-143 21 58 61 143l336 744h72L360-369h-73L467 20z"/><glyph glyph-name="Ydieresis" unicode="Ÿ" horiz-adv-x="1269" d="M428 1847h66v-260h-66v260zm352 0h66v-260h-66v260zM602 0v586L23 1434h77l469-689q36-50 66-104 40 66 67 104l469 689h78L668 586V0h-66z"/><glyph glyph-name="Zacute" unicode="Ź" horiz-adv-x="1257" d="M932 1909l-268-322h-76l262 322h82zM98 1434h1078v-62L297 256Q191 121 133 59q66 2 256 2h807V0H61v61l879 1117q122 151 164 196-66-2-254-2H98v62z"/><glyph glyph-name="zacute" unicode="ź" horiz-adv-x="972" d="M791 1513l-269-321h-76l263 321h82zM92 84l598 707 103 122H109v62h749v-84L260 184 158 61h723V0H92v84z"/><glyph glyph-name="Zdotaccent" unicode="Ż" horiz-adv-x="1257" d="M596 1847h66v-260h-66v260zM98 1434h1078v-62L297 256Q191 121 133 59q66 2 256 2h807V0H61v61l879 1117q122 151 164 196-66-2-254-2H98v62z"/><glyph glyph-name="zdotaccent" unicode="ż" horiz-adv-x="972" d="M455 1452h65v-260h-65v260zM92 84l598 707 103 122H109v62h749v-84L260 184 158 61h723V0H92v84z"/><glyph glyph-name="Zcaron" unicode="Ž" horiz-adv-x="1257" d="M326 1909h75l230-269 227 269h76l-262-322h-84zM98 1434h1078v-62L297 256Q191 121 133 59q66 2 256 2h807V0H61v61l879 1117q122 151 164 196-66-2-254-2H98v62z"/><glyph glyph-name="zcaron" unicode="ž" horiz-adv-x="972" d="M184 1513h76l229-268 228 268h76l-263-321h-84zM92 84l598 707 103 122H109v62h749v-84L260 184 158 61h723V0H92v84z"/><glyph glyph-name="uni018F" unicode="Ə" horiz-adv-x="1458" d="M102 717q0 28 2 55h1192q-10 331-154 481t-452 150q-206 0-475-82v68q246 75 475 75 352 0 512-180.5T1362 717q0-377-152-562.5T711-31Q570-31 465.5.5T291.5 91t-112 153-60 207.5T102 717zm66-6q0-142 15.5-246.5T236 275t99-137 155-79.5T711 31q160 0 271.5 41.5t180.5 128 100.5 211T1296 711H168z"/><glyph glyph-name="uni0218" unicode="Ș" horiz-adv-x="1232" d="M1077 1331q-250 72-471 72-108 0-189.5-15t-131-39-80-60.5-42-74T152 1130q0-31 3-53t13.5-51 29.5-51.5 53.5-49T335 876t120.5-48.5T618 778q138-36 234.5-75t155-77.5 91-87.5 43.5-95.5 11-110.5q0-63-14.5-114.5t-52-99-97-79.5T834-12 612-31Q477-31 327-7.5T82 53v68q266-90 530-90 140 0 236.5 22.5t147 65.5 71 94 20.5 119q0 56-9 94t-37.5 79.5-82 74-142.5 67T598 715q-134 35-230 75.5T218 869t-84.5 85-39 85.5T86 1130q0 334 520 334 255 0 471-65v-68zM569-152h88v-124l-30-125h-49l28 143h-37v106z"/><glyph glyph-name="uni0219" unicode="ș" horiz-adv-x="987" d="M506-27q-220 0-391 62v65q202-65 401-65 180 0 253 52.5T842 250q0 24-2.5 43t-10 35.5T815 358t-23.5 24.5-28.5 20-38 17.5-43.5 14.5-54 13.5-60.5 13-71 14q-52 10-78 15.5T349.5 506 285 523.5 232 544t-47 26-35.5 32-28 40.5-15 49T100 752q0 123 88.5 186t296.5 63q162 0 351-34v-66q-185 39-351 39-180 0-249.5-45T166 756q0-28 4.5-50.5t17-40.5 24.5-31.5 38-25.5 46-19.5 60-17 68-15 82-15.5q95-18 140-28t106.5-32.5 88-49.5 46.5-73 20-110q0-138-91.5-206.5T506-27zm-55-125h88v-124l-31-125h-49l28 143h-36v106z"/><glyph glyph-name="uni021A" unicode="Ț" horiz-adv-x="1236" d="M1196 1434v-62H651V0h-65v1372H41v62h1155zM575-258v106h89v-124l-31-125h-49l28 143h-37z"/><glyph glyph-name="uni021B" unicode="ț" horiz-adv-x="722" d="M662 913H281V260q0-111 44.5-158T494 55q62 0 135 15V6Q579-6 494-6 340-6 277.5 61T215 260v653H61v62h154l16 229h50V975h381v-62zM399-258v106h88v-124l-30-125h-49l28 143h-37z"/><glyph glyph-name="uni0237" unicode="ȷ" horiz-adv-x="329" d="M199-137q0-131-60.5-196.5T-66-399q-74 0-114 8v63q67-10 114-10 113 0 156 46.5T133-137V975h66V-137z"/><glyph glyph-name="uni0259" unicode="ə" horiz-adv-x="1099" d="M141 940q71 29 174 47.5t201 18.5q141 0 238-33t153.5-101T988 711t24-224q0-125-24.5-217.5T908 108 759 4 532-31Q411-31 324.5 2T188 98.5t-73 147T92 440q0 25 2 56h852q-1 120-22.5 201.5t-71 137.5-132 81.5T516 942q-174 0-375-70v68zM532 31q114 0 194 27.5t126.5 82 68 126T944 436H158q0-200 84.5-302.5T532 31z"/><glyph glyph-name="circumflex" unicode="ˆ" horiz-adv-x="690" d="M41 1192l262 321h84l262-321h-76l-227 268-229-268H41z"/><glyph glyph-name="caron" unicode="ˇ" horiz-adv-x="690" d="M41 1513h76l229-268 227 268h76l-262-321h-84z"/><glyph glyph-name="breve" unicode="˘" horiz-adv-x="614" d="M41 1516h61q3-137 50.5-198t154.5-61 154.5 61 50.5 198h61q0-167-64.5-245.5T307 1192t-201.5 78.5T41 1516z"/><glyph glyph-name="dotaccent" unicode="˙" horiz-adv-x="147" d="M41 1452h65v-260H41v260z"/><glyph glyph-name="ring" unicode="˚" horiz-adv-x="497" d="M250 1192q-103 0-156 50t-53 147 53 147.5 156 50.5q102 0 154.5-50t52.5-148q0-197-207-197zm0 59q76 0 108.5 32t32.5 103q0 74-32.5 108T250 1528t-110-34-34-108q0-71 34-103t110-32z"/><glyph glyph-name="ogonek" unicode="˛" horiz-adv-x="309" d="M268-383q-52-18-96-18-62 0-96.5 34.5T41-274Q41-133 219 0h49q-87-86-124.5-147T106-260q0-37 20.5-56.5T182-336q31 0 86 19v-66z"/><glyph glyph-name="tilde" unicode="˜" horiz-adv-x="733" d="M41 1206q3 115 41.5 165t120.5 50q43 0 83.5-22.5T391 1325q56-45 84.5-60.5T530 1249q51 0 72 33t27 125h63q-3-115-41.5-165T530 1192q-43 0-83.5 22.5T342 1288q-56 45-84.5 60.5T203 1364q-51 0-72-33t-27-125H41z"/><glyph glyph-name="hungarumlaut" unicode="˝" horiz-adv-x="780" d="M385 1513l-268-321H41l262 321h82zm354 0l-268-321h-76l262 321h82z"/><glyph glyph-name="gravecomb" unicode="̀" d="M-385 1513h82l262-321h-76z"/><glyph glyph-name="acutecomb" unicode="́" d="M-41 1513l-268-321h-76l262 321h82z"/><glyph glyph-name="uni0302" unicode="̂" d="M-649 1192l262 321h84l262-321h-76l-227 268-229-268h-76z"/><glyph glyph-name="tildecomb" unicode="̃" d="M-692 1206q3 115 41.5 165t120.5 50q43 0 83.5-22.5T-342 1325q56-45 84.5-60.5t54.5-15.5q51 0 72 33t27 125h63q-3-115-41.5-165t-120.5-50q-43 0-83.5 22.5T-391 1288q-56 45-84.5 60.5T-530 1364q-51 0-72-33t-27-125h-63z"/><glyph glyph-name="uni0304" unicode="̄" d="M-627 1354h586v-60h-586v60z"/><glyph glyph-name="uni0306" unicode="̆" d="M-573 1516h61q3-137 50.5-198t154.5-61 154.5 61 50.5 198h61q0-167-64.5-245.5T-307 1192t-201.5 78.5T-573 1516z"/><glyph glyph-name="uni0307" unicode="̇" d="M-106 1452h65v-260h-65v260z"/><glyph glyph-name="uni0308" unicode="̈" d="M-459 1452h66v-260h-66v260zm353 0h65v-260h-65v260z"/><glyph glyph-name="uni030A" unicode="̊" d="M-248 1192q-103 0-156 50t-53 147 53 147.5 156 50.5q102 0 154.5-50t52.5-148q0-197-207-197zm0 59q76 0 109 32t33 103q0 74-33 108t-109 34-109.5-34-33.5-108q0-71 33.5-103t109.5-32z"/><glyph glyph-name="uni030B" unicode="̋" d="M-395 1513l-269-321h-75l262 321h82zm354 0l-268-321h-76l262 321h82z"/><glyph glyph-name="uni030C" unicode="̌" d="M-649 1513h76l229-268 227 268h76l-262-321h-84z"/><glyph glyph-name="uni0312" unicode="̒" d="M-47 1192h-74v186l31 135h49l-29-153h23v-168z"/><glyph glyph-name="uni0326" unicode="̦" d="M-129-152h88v-124l-31-125h-49l29 143h-37v106z"/><glyph glyph-name="uni0327" unicode="̧" d="M-180 0l-88-129q40 4 71 4 73 0 114.5-35t41.5-94q0-65-49-102t-143-37q-91 0-173 28v62q82-31 162-31 135 0 135 78t-116 78q-56 0-92-4l-25 41 92 141h70z"/><glyph glyph-name="uni0328" unicode="̨" d="M-41-383q-53-18-96-18-62 0-96.5 34.5T-268-274q0 141 178 274h49q-87-86-124.5-147T-203-260q0-37 20.5-56.5T-127-336q31 0 86 19v-66z"/><glyph glyph-name="Wgrave" unicode="Ẁ" horiz-adv-x="1945" d="M657 1909h82l262-322h-75zM20 1434h68L471 231q30-101 43-159 13 58 43 159l381 1203h70l383-1203q30-101 43-159 13 58 43 159l381 1203h67L1468 0h-69l-383 1202q-31 103-43 158-12-55-43-158L549 0h-70z"/><glyph glyph-name="wgrave" unicode="ẁ" horiz-adv-x="1576" d="M489 1513h82l263-321h-76zM31 975h71l265-754q20-55 53-164 22 72 55 164l264 754h99l268-754q20-55 53-164 22 72 55 164l265 754h67L1202 0h-88L788 924 463 0h-88z"/><glyph glyph-name="Wacute" unicode="Ẃ" horiz-adv-x="1945" d="M1276 1909l-268-322h-76l262 322h82zM20 1434h68L471 231q30-101 43-159 13 58 43 159l381 1203h70l383-1203q30-101 43-159 13 58 43 159l381 1203h67L1468 0h-69l-383 1202q-31 103-43 158-12-55-43-158L549 0h-70z"/><glyph glyph-name="wacute" unicode="ẃ" horiz-adv-x="1576" d="M1092 1513l-269-321h-75l262 321h82zM31 975h71l265-754q20-55 53-164 22 72 55 164l264 754h99l268-754q20-55 53-164 22 72 55 164l265 754h67L1202 0h-88L788 924 463 0h-88z"/><glyph glyph-name="Wdieresis" unicode="Ẅ" horiz-adv-x="1945" d="M764 1847h65v-260h-65v260zm352 0h66v-260h-66v260zM20 1434h68L471 231q30-101 43-159 13 58 43 159l381 1203h70l383-1203q30-101 43-159 13 58 43 159l381 1203h67L1468 0h-69l-383 1202q-31 103-43 158-12-55-43-158L549 0h-70z"/><glyph glyph-name="wdieresis" unicode="ẅ" horiz-adv-x="1576" d="M580 1452h65v-260h-65v260zm352 0h65v-260h-65v260zM31 975h71l265-754q20-55 53-164 22 72 55 164l264 754h99l268-754q20-55 53-164 22 72 55 164l265 754h67L1202 0h-88L788 924 463 0h-88z"/><glyph glyph-name="uni1E9E" unicode="ẞ" horiz-adv-x="1441" d="M143 0v901q0 289 134.5 426T682 1464q259 0 496-92v-53L836 764q246-39 364.5-141T1319 342q0-180-122-276.5T848-31q-230 0-432 84v68q128-48 226.5-69T848 31q200 0 302.5 78.5T1253 342q0 161-115 248.5T762 713v49l350 569q-226 72-430 72-241 0-357-120.5T209 901V0h-66z"/><glyph glyph-name="Ygrave" unicode="Ỳ" horiz-adv-x="1269" d="M322 1909h81l263-322h-76zM602 0v586L23 1434h77l469-689q36-50 66-104 40 66 67 104l469 689h78L668 586V0h-66z"/><glyph glyph-name="ygrave" unicode="ỳ" horiz-adv-x="1001" d="M203 1513h82l262-321h-76zM31 975h73l336-744q44-95 62-143 21 58 61 143l336 744h72L360-369h-73L467 20z"/><glyph glyph-name="uni2008" horiz-adv-x="364"/><glyph glyph-name="uni2009" horiz-adv-x="133"/><glyph glyph-name="uni200B" unicode="​"/><glyph glyph-name="uni2060" unicode="⁠"/><glyph glyph-name="uniFEFF"/><glyph glyph-name="NULL"/><glyph glyph-name="CR" horiz-adv-x="532"/><glyph glyph-name="uni0308.case" d="M-459 1847h66v-260h-66v260zm353 0h65v-260h-65v260z"/><glyph glyph-name="uni0307.case" d="M-106 1847h65v-260h-65v260z"/><glyph glyph-name="gravecomb.case" d="M-385 1909h82l262-322h-76z"/><glyph glyph-name="acutecomb.case" d="M-41 1909l-268-322h-76l262 322h82z"/><glyph glyph-name="uni030B.case" d="M-395 1909l-269-322h-75l262 322h82zm354 0l-268-322h-76l262 322h82z"/><glyph glyph-name="uni0302.case" d="M-649 1587l262 322h84l262-322h-76l-227 268-229-268h-76z"/><glyph glyph-name="uni030C.case" d="M-649 1909h76l229-269 227 269h76l-262-322h-84z"/><glyph glyph-name="uni0306.case" d="M-573 1911h61q3-137 50.5-197.5T-307 1653t154.5 60.5T-102 1911h61q0-167-64.5-245.5T-307 1587t-201.5 78.5T-573 1911z"/><glyph glyph-name="uni030A.case" d="M-248 1587q-103 0-156 50t-53 147 53 147.5 156 50.5q102 0 154.5-50t52.5-148q0-197-207-197zm0 60q76 0 109 32t33 103q0 74-33 107.5t-109 33.5-109.5-33.5T-391 1782q0-71 33.5-103t109.5-32z"/><glyph glyph-name="tildecomb.case" d="M-692 1602q3 115 41.5 165t120.5 50q43 0 83-22.5t105-74.5q55-44 84-59.5t55-15.5q51 0 72 32.5t27 124.5h63q-3-115-41.5-165t-120.5-50q-43 0-83.5 22.5T-391 1683q-56 45-84.5 60.5T-530 1759q-51 0-72-32.5t-27-124.5h-63z"/><glyph glyph-name="uni0304.case" d="M-627 1745h586v-59h-586v59z"/></font>
</defs>
</svg>
