<svg xmlns="http://www.w3.org/2000/svg"><defs><font id="TurbineTrial-RegularWeb" horiz-adv-x="0"><font-face font-family="." font-weight="400" units-per-em="2048" panose-1="2 0 5 4 0 0 0 0 0 0" ascent="1638" descent="-410" x-height="991" cap-height="1434" bbox="-811 -434 2296 1993" underline-thickness="141" underline-position="-79" unicode-range="U+0020-FEFF"/><glyph glyph-name=".notdef" horiz-adv-x="962" d="M0 0v1434h963V0H0zm86 82h791v1270H86V82zm332 373v182q124 55 179.5 128.5T653 934q0 93-53 144.5T449 1130q-58 0-129-17t-119-38v92q136 54 250 54 154 0 228.5-75.5T754 934q0-221-254-344V455h-82zm-12-267v129h104V188H406z"/><glyph glyph-name=".null"/><glyph glyph-name="nonmarkingreturn" horiz-adv-x="682"/><glyph glyph-name="space" horiz-adv-x="460"/><glyph glyph-name="comma" unicode="," horiz-adv-x="456" d="M125 211h203V-4L219-281h-98L195 0h-70v211z"/><glyph glyph-name="period" unicode="." horiz-adv-x="456" d="M129 211h199V0H129v211z"/><glyph glyph-name="zero" unicode="0" horiz-adv-x="1495" d="M748-31q-217 0-353.5 72t-206 235.5T119 707t69.5 430 206 235 353.5 72q162 0 277.5-39.5t195-127.5 117.5-228.5 38-341.5q0-267-70-430.5T1100 41 748-31zm0 148q157 0 251 52.5t142.5 183T1190 707t-48.5 354T999 1243.5 748 1296q-118 0-198.5-28.5t-137.5-96T329 990t-26-283 26-283 82.5-182T549 145.5 748 117z"/><glyph glyph-name="one" unicode="1" horiz-adv-x="899" d="M504 1413h147V0H467v1227L70 1102v145z"/><glyph glyph-name="two" unicode="2" horiz-adv-x="1275" d="M274 147h912V0H59v164q224 160 365.5 267.5t251.5 201 166 162 83 129 27 123.5q0 120-85.5 182.5T578 1292q-109 0-239.5-24T109 1214v160q88 27 222 48.5t253 21.5q549 0 549-381 0-69-16-129t-58-126-102.5-130.5-161.5-148T572 357 274 147z"/><glyph glyph-name="three" unicode="3" horiz-adv-x="1320" d="M383 651v144h203q152 0 240.5 29.5t121.5 82 33 137.5-32.5 137-121 81.5T586 1292q-116 0-251.5-24T104 1214v160q83 27 216.5 48.5T584 1444q161 0 274-26t178.5-77 95-119.5T1161 1061q0-150-69-223.5T866 729q178-35 261-116t83-238q0-406-626-406-146 0-288 19.5T80 29v161q91-27 232.5-48T584 121q125 0 212 18.5t137 54 71.5 82T1026 385q0 86-38 142.5t-137.5 90T586 651H383z"/><glyph glyph-name="four" unicode="4" horiz-adv-x="1372" d="M1294 453V303h-231V0H879v303H57v154l752 956h254V453h231zm-1050 0h635v811z"/><glyph glyph-name="five" unicode="5" horiz-adv-x="1372" d="M739 858q266 0 390-110.5T1253 420q0-214-146.5-332.5T649-31Q498-31 354.5-9.5T129 39v156q91-29 235.5-52.5T647 119q226 0 324 76t98 223q0 146-91 219.5T676 711q-242 0-516-70v772h1022v-147H340V805q200 53 399 53z"/><glyph glyph-name="six" unicode="6" horiz-adv-x="1433" d="M289 709V602q4 39 19 74.5t50 71.5 87 61.5 136 42T772 868q565 0 565-440 0-459-604-459-172 0-290.5 38t-193 122T142 340t-33 311q0 418 169 605.5T801 1444q114 0 239.5-20.5T1257 1374v-160q-242 78-444 78-273 0-398.5-137T289 709zm864-285q0 152-99.5 227.5T731 727q-420 0-420-281 0-159 100.5-242T731 121q223 0 322.5 75.5T1153 424z"/><glyph glyph-name="seven" unicode="7" horiz-adv-x="1290" d="M61 1413h1127v-147L522 0H322l675 1266H61v147z"/><glyph glyph-name="eight" unicode="8" horiz-adv-x="1472" d="M737-31Q564-31 440.5-2.5T245.5 81t-104 127T109 375q0 145 80 232.5T461 729q-165 34-233 115.5T160 1061q0 90 29.5 158t95.5 119.5 179.5 78.5 272.5 27 272-27 178.5-78.5T1283 1219t30-158q0-135-68-216.5T1014 729q191-34 270.5-121.5T1364 375q0-95-32.5-167T1227 81 1032-2.5 737-31zm0 826q115 0 193 16t122 49.5 62.5 78T1133 1047q0 85-33.5 137.5t-122 82T737 1296t-241-29.5-122.5-82T340 1047t33.5-138T496 825.5 737 795zm0-678q166 0 266 33t138.5 89.5T1180 383q0 88-38.5 145t-138 90T737 651q-102 0-178.5-12T432 605.5 351 550t-43.5-74.5T295 383q0-65 21-112t70.5-83T523 134.5 737 117z"/><glyph glyph-name="nine" unicode="9" horiz-adv-x="1433" d="M1147 705v106q-4-39-19-74.5t-50.5-71.5-87.5-61.5-136.5-42T662 545Q96 545 96 985q0 459 604 459 340 0 482.5-159T1325 762q0-418-168.5-605.5T633-31q-113 0-238.5 20T176 37v160q252-76 445-76 273 0 399.5 137.5T1147 705zM283 989q0-152 98-227.5T702 686q222 0 322 72t100 207q0 160-100.5 242.5T702 1290q-223 0-321-74.5T283 989z"/><glyph glyph-name="A" unicode="A" horiz-adv-x="1409" d="M1208 0l-157 383H352L195 0H4l598 1434h209L1405 0h-197zM410 535h585l-225 546q-7 18-65 189l-68-189z"/><glyph glyph-name="B" unicode="B" horiz-adv-x="1343" d="M961 758q163-31 236-119t73-229q0-73-15-132.5t-51.5-112T1110 77 963.5 20.5 758 0H131v1434h614q121 0 210-29.5t139.5-81.5 74-114.5T1192 1073q0-236-231-315zm-242 526H315V805h359q96 0 162.5 17.5t103 51.5 51.5 76 15 97q0 118-63 177.5T719 1284zm35-1134q97 0 163 18t102 54 51 81 15 107q0 61-16.5 105t-57.5 80.5T892.5 650 700 668H315V150h439z"/><glyph glyph-name="C" unicode="C" horiz-adv-x="1308" d="M1251 43q-93-33-223.5-53.5T778-31q-366 0-533 178.5T78 717q0 387 170 567t534 180q102 0 222-18.5t213-46.5v-160q-231 76-437 76-277 0-396.5-139.5T264 715q0-318 122-457t400-139q192 0 465 84V43z"/><glyph glyph-name="D" unicode="D" horiz-adv-x="1458" d="M672 1434q199 0 331.5-37.5t218-123.5 122-220.5T1380 717t-37-335.5T1220.5 161t-218-123.5T672 0H131v1434h541zm0-1284q154 0 251.5 26.5t160 94T1171 444t25 273q0 166-25 272t-88 173.5-160.5 94.5-250.5 27H315V150h357z"/><glyph glyph-name="E" unicode="E" horiz-adv-x="1208" d="M315 154h863V0H131v1434h999v-154H315V811h670V659H315V154z"/><glyph glyph-name="F" unicode="F" horiz-adv-x="1167" d="M1133 1280H315V756h672V604H315V0H131v1434h1002v-154z"/><glyph glyph-name="G" unicode="G" horiz-adv-x="1441" d="M797-31q-381 0-550 176T78 717q0 390 172.5 568.5T799 1464q249 0 495-61v-158q-280 70-489 70-298 0-420.5-135.5T262 717t124-462.5T811 119q36 0 74.5 2t80 7 67 8.5 69.5 10 55 7.5v421H831v146h500V29q-118-26-267-43T797-31z"/><glyph glyph-name="H" unicode="H" horiz-adv-x="1484" d="M1169 1434h185V0h-185v657H315V0H131v1434h184V811h854v623z"/><glyph glyph-name="I" unicode="I" horiz-adv-x="446" d="M131 1434h184V0H131v1434z"/><glyph glyph-name="J" unicode="J" horiz-adv-x="727" d="M45 152q93-13 154-13 138 0 182.5 51T426 383v1051h184V379q0-106-17-177T533 81 416.5 8.5 231-14Q128-14 45 2v150z"/><glyph glyph-name="K" unicode="K" horiz-adv-x="1329" d="M315 860q0-90-14-272 38 46 102.5 119.5T519 838t134 148 113 124l303 324h215L711 809 1376 0h-227L594 682 315 393V0H131v1434h184V860z"/><glyph glyph-name="L" unicode="L" horiz-adv-x="1150" d="M315 158h803V0H131v1434h184V158z"/><glyph glyph-name="M" unicode="M" horiz-adv-x="1734" d="M1430 985q0 109 4 305-3-10-41-123.5t-58-165.5L948 0H784L399 1001q-43 119-98 289 4-208 4-305V0H131v1434h279l350-899q61-157 108-299 30 100 107 296l352 902h277V0h-174v985z"/><glyph glyph-name="N" unicode="N" horiz-adv-x="1480" d="M131 0v1434h217l686-1000q49-71 144-225-4 160-4 258v967h176V0h-215L440 1010q-47 69-135 215 2-82 2-260V0H131z"/><glyph glyph-name="O" unicode="O" horiz-adv-x="1533" d="M766-31q-187 0-318.5 48t-211 145-115 232.5T86 717q0 186 35.5 321.5t115 232.5 211 145 318.5 48q151 0 265.5-31.5T1225 1341t128.5-152 72-207.5T1448 717q0-186-36-321.5t-115.5-233T1085 17 766-31zm0 148q274 0 386 140.5T1264 717q0 318-113 459t-385 141q-273 0-384.5-140T270 717q0-318 112-459t384-141z"/><glyph glyph-name="P" unicode="P" horiz-adv-x="1269" d="M696 1434q148 0 251-30t162-88.5 84.5-135.5 25.5-181q0-103-25.5-180t-84-136-162-89.5T696 563H315V0H131v1434h565zm-4-721q100 0 168 19t105.5 57.5 53 88.5 15.5 121-15.5 121-53 88.5-105.5 57-168 18.5H315V713h377z"/><glyph glyph-name="Q" unicode="Q" horiz-adv-x="1533" d="M836-29q4-135 55-181t188-46q83 0 226 20v-147q-131-16-232-16-210 0-295.5 66T692-127q0 53 10 98-169 7-288 58.5T223 178 118.5 406.5 86 717q0 186 35.5 321.5t115 232.5 211 145 318.5 48q151 0 265.5-31.5T1225 1341t128.5-152 72-207.5T1448 717q0-177-32.5-308t-104-227.5-190-149T836-29zM270 717q0-318 112-459t384-141q274 0 386 140.5T1264 717q0 318-113 459t-385 141q-273 0-384.5-140T270 717z"/><glyph glyph-name="R" unicode="R" horiz-adv-x="1335" d="M131 1434h545q148 0 251-29.5t161.5-87 84-132.5 25.5-175q0-86-22.5-153t-62-111.5T1015 671t-127-44.5T735 608q82-24 150.5-82.5T1055 350L1352 0h-224L786 408q-82 99-148 137.5T473 584H315V0H131v1434zm184-150V729h306q97 0 167 13t113.5 35.5T970 836t34.5 76.5 9.5 95.5q0 68-15.5 116.5t-53 85.5-105 55.5T674 1284H315z"/><glyph glyph-name="S" unicode="S" horiz-adv-x="1251" d="M1100 1245q-256 70-475 70-104 0-177-16t-113-46.5-57.5-67.5-17.5-85q0-37 6.5-63.5t29-57.5 64-56 115-52.5T653 817q159-38 263-82t163-101.5 82-122 23-153.5q0-90-30.5-159.5t-96.5-122-178.5-80T610-31Q484-31 335.5-9T86 47v156q277-86 524-86 112 0 189.5 16.5t120.5 49 61 73.5 18 96q0 56-13.5 93.5t-56 75.5-125 69.5T588 655q-123 30-213.5 66T227 796t-91 87.5T89 982t-13 112q0 368 555 368 253 0 469-59v-158z"/><glyph glyph-name="T" unicode="T" horiz-adv-x="1251" d="M1219 1434v-154H717V0H535v1280H33v154h1186z"/><glyph glyph-name="U" unicode="U" horiz-adv-x="1454" d="M1337 1434V565q0-140-32-246.5T1203 132 1013.5 10.5 727-31q-168 0-287.5 41T250 131 148.5 317 117 565v869h184V567q0-225 97.5-335.5T727 121t328.5 110.5T1153 567v867h184z"/><glyph glyph-name="V" unicode="V" horiz-adv-x="1339" d="M1143 1434h190L766 0H569L4 1434h197L610 377q22-58 62-187 28 104 59 187z"/><glyph glyph-name="W" unicode="W" horiz-adv-x="1982" d="M4 1434h195L508 383q28-101 39-174 13 68 43 174l311 1051h186l312-1051q29-103 39-172 5 25 41 172l311 1051h188L1536 0h-193l-311 1051q-25 87-41 180-6-46-39-180L639 0H444z"/><glyph glyph-name="X" unicode="X" horiz-adv-x="1329" d="M-16 0l559 739-523 695h220l305-414q83-114 119-170 51 80 116 170l307 414h216L780 741 1346 0h-220L778 461q-25 35-114 166-113-158-119-166L199 0H-16z"/><glyph glyph-name="Y" unicode="Y" horiz-adv-x="1320" d="M565 0v575L6 1434h211l377-586q41-64 65-125 35 73 68 125l381 586h207L748 573V0H565z"/><glyph glyph-name="Z" unicode="Z" horiz-adv-x="1284" d="M94 1434h1100v-158L432 334q-81-101-162-182 114 4 244 4h709V0H61v160l764 940q70 84 162 182-114-4-242-4H94v156z"/><glyph glyph-name="grave" unicode="`" horiz-adv-x="481" d="M41 1518h168l231-322H307z"/><glyph glyph-name="a" unicode="a" horiz-adv-x="1105" d="M152 983q185 37 366 37 115 0 197-16.5T850 956t84-82 43-112 12-146V0H866l-12 221q-14-47-39.5-87.5t-70-79-119-61T455-29q-207 0-299.5 76T63 276q0 77 22 131.5t74 94 141 58T520 578q84 0 293-19v70q0 70-12 113t-45 75.5-94 46T504 877q-143 0-352-41v147zm397-530q-124 0-194-20.5t-94.5-56T236 281q0-89 57-133t196-44q330 0 330 330-121 19-270 19z"/><glyph glyph-name="b" unicode="b" horiz-adv-x="1202" d="M659-31q-83 0-149.5 15.5t-108 39T329 82t-46.5 66-26.5 69L244 0H121v1434h178v-359q0-88-14-289 28 101 122.5 168.5T666 1022q245 0 350.5-129T1122 496q0-266-108-396.5T659-31zm-41 144q181 0 252.5 88.5T942 496q0 204-72 293.5T618 879q-179 0-252-90t-73-293 72.5-293T618 113z"/><glyph glyph-name="c" unicode="c" horiz-adv-x="1009" d="M920 838q-173 45-322 45-190 0-264-85t-74-302q0-216 74-301.5T598 109q169 0 346 61V27Q884 2 786.5-14.5T588-31Q314-31 197 94.5T80 496q0 275 117 400.5T588 1022q172 0 332-39V838z"/><glyph glyph-name="d" unicode="d" horiz-adv-x="1202" d="M541-31Q295-31 187.5 98T80 496q0 266 108.5 396T539 1022q165 0 259-67.5T918 786q-15 215-15 289v359h178V0H958l-12 221q-10-40-26-72.5t-47-67T799.5 23t-109-39T541-31zm43 144q176 0 250.5 88.5T909 496q0 205-75.5 294T584 879q-178 0-251-87.5T260 496q0-206 74-294.5T584 113z"/><glyph glyph-name="e" unicode="e" horiz-adv-x="1126" d="M1004 25Q934 2 826-14.5T614-31Q459-31 354.5 1T190 102t-85 163-25 231q0 131 25 225t81.5 163.5 154 103.5 237.5 34q131 0 223-32.5T946.5 892t77-151 23.5-202q0-49-3-107H258q3-116 35.5-184T404 144.5 616 109q204 0 388 63V25zM575 889q-173 0-243.5-79T258 565h614q0 165-67 244.5T575 889z"/><glyph glyph-name="f" unicode="f" horiz-adv-x="712" d="M561 1323q-113 0-149.5-39.5T375 1139V991h311V848H375V0H197v848H49v143h148v142q0 169 72.5 249t256.5 80q69 0 162-12v-137q-73 10-127 10z"/><glyph glyph-name="g" unicode="g" horiz-adv-x="1202" d="M559-399q-101 0-214.5 18T154-336v146q217-68 391-68 192 0 277 81t85 253q0 103 11 186Q837 43 539 43q-125 0-214.5 33.5T182 175t-77.5 153T80 532q0 490 463 490 85 0 152.5-16.5T804 965t72-59.5 45-64.5 25-65l12 215h123V76q0-110-26.5-193.5T969-266t-162-99-248-34zm25 585q177 0 251 87.5T909 532q0 170-74.5 258.5T584 879q-177 0-250.5-88T260 532q0-173 72.5-259.5T584 186z"/><glyph glyph-name="h" unicode="h" horiz-adv-x="1153" d="M121 1434h178v-353q0-90-14-272 25 96 116 154.5t248 58.5q114 0 192.5-26t123-78.5 63.5-122 19-166.5V0H868v618q0 71-12 117t-42.5 79.5-83.5 48T594 877q-163 0-229-70.5T299 604V0H121v1434z"/><glyph glyph-name="i" unicode="i" horiz-adv-x="421" d="M123 1434h178v-256H123v256zm0-443h178V0H123v991z"/><glyph glyph-name="j" unicode="j" horiz-adv-x="419" d="M121 1434h178v-256H121v256zM299-72q0-165-71-246t-242-81q-102 0-144 10v137q81-6 107-6 101 0 136.5 39T121-80V991h178V-72z"/><glyph glyph-name="k" unicode="k" horiz-adv-x="1064" d="M121 1434h178V676q0-92-14-279 53 75 203 246.5T803 991h207L592 547 1102 0H872L477 430 299 250V0H121v1434z"/><glyph glyph-name="l" unicode="l" horiz-adv-x="444" d="M133 1434h178V0H133v1434z"/><glyph glyph-name="m" unicode="m" horiz-adv-x="1812" d="M1004 0H825v621q0 141-52.5 198.5T573 877q-144 0-203-69.5T311 602V0H133v991h123l12-209q5 34 18.5 65.5t40.5 64 64.5 56.5 95 39 127.5 15q304 0 351-219 10 40 33.5 76t63.5 69.5 103.5 53.5 143.5 20q214 0 300.5-96.5T1696 627V0h-178v621q0 140-53 198t-201 58q-142 0-201-68t-59-201V0z"/><glyph glyph-name="n" unicode="n" horiz-adv-x="1175" d="M133 991h123l12-211q8 45 31 84.5t65.5 76.5 115.5 59 169 22q117 0 197.5-25T973 920t66-122 20-169V0H881v614q0 71-11.5 117.5t-42 81-84 49.5T608 877q-86 0-145.5-21t-92-62-46-91T311 586V0H133v991z"/><glyph glyph-name="o" unicode="o" horiz-adv-x="1208" d="M604-31Q456-31 353.5 3.5T192 107.5 107.5 271 82 496t25.5 225T192 884.5 353.5 988t250.5 34q147 0 249.5-34T1016 884.5t86-163.5 26-225-26-225-86-163.5-162.5-104T604-31zm0 142q100 0 166.5 22t106 71T932 323t16 173q0 205-75 295t-269 90q-100 0-166.5-22t-106-71T276 669t-16-173q0-206 75-295.5T604 111z"/><glyph glyph-name="p" unicode="p" horiz-adv-x="1202" d="M121-369V991h123l12-221q11 39 27 71t47 67 73.5 59 109 39.5T662 1022q246 0 353-128.5T1122 496q0-267-107.5-397T666-31q-167 0-261 68.5T285 207Q299 6 299-82v-287H121zm497 478q178 0 251 88t73 299q0 210-73.5 298.5T618 883q-176 0-250.5-89.5T293 496q0-209 75-298t250-89z"/><glyph glyph-name="q" unicode="q" horiz-adv-x="1200" d="M901-369v283q0 93 14 289-13-46-40.5-85.5t-72-74-113-54.5T535-31Q292-31 185 98.5T78 496q0 266 109 396t354 130q102 0 178-22t120-61 67.5-78 37.5-89l12 219h123V-369H901zM580 113q177 0 252 88.5T907 496q0 205-74.5 294T582 879q-178 0-251-87.5T258 496q0-207 73-295t249-88z"/><glyph glyph-name="r" unicode="r" horiz-adv-x="743" d="M133 991h123l14-293q30 316 355 316 11 0 86-6V842q-46 6-86 6-175 0-244.5-84.5T311 463V0H133v991z"/><glyph glyph-name="s" unicode="s" horiz-adv-x="1005" d="M512-29Q279-29 98 29v147q231-63 416-63 143 0 199.5 36T770 260q0 19-4 35t-8.5 28.5-17 23.5-21.5 18.5-31 15.5-35.5 12.5T607 405t-51 11-60 12q-65 13-107.5 23t-90 24.5-77 29.5-58 37.5T120 592t-24.5 63.5T86 737q0 69 21 119.5t69 88 130.5 56.5 201.5 19q152 0 366-33V840q-205 39-362 39-99 0-156-16.5T278.5 819 258 748q0-22 6-39.5t14-30.5 28-24.5 36-18.5 51-16 60-14l75-15q54-11 86.5-17.5t75-17 67-20T812 512t47.5-29 35-36 27-46 14.5-56 6-69q0-157-97.5-231T512-29z"/><glyph glyph-name="t" unicode="t" horiz-adv-x="759" d="M705 848H365V313q0-103 36.5-142.5T549 131q63 0 131 14V6Q608-8 516-8 333-8 259.5 73T186 322v526H49v143h148l47 240h121V991h340V848z"/><glyph glyph-name="u" unicode="u" horiz-adv-x="1159" d="M1038 0H915l-10 211q-8-42-32-81.5t-67-77T689-8 520-31q-226 0-318.5 98.5T109 362v629h178V373q0-137 59-197.5T563 115q84 0 143.5 20.5t92 59 47 86.5T860 391v600h178V0z"/><glyph glyph-name="v" unicode="v" horiz-adv-x="1038" d="M836 991h186L623 0H414L14 991h193l258-672q28-75 55-184 36 125 58 184z"/><glyph glyph-name="w" unicode="w" horiz-adv-x="1630" d="M14 991h191l213-665q28-104 47-201 30 135 51 201l207 665h188l209-665q15-47 49-201 19 85 50 201l213 665h184L1274 0h-201L815 829 559 0H356z"/><glyph glyph-name="x" unicode="x" horiz-adv-x="1024" d="M0 0l406 508L23 991h210l117-157q101-129 162-222 92 133 160 222l119 157h208L618 512 1026 0H815L659 207q-64 80-149 203-91-132-148-203L207 0H0z"/><glyph glyph-name="y" unicode="y" horiz-adv-x="1040" d="M14 991h193l254-608q45-112 63-195 20 76 64 195l250 608h188L436-369H252L442 31z"/><glyph glyph-name="z" unicode="z" horiz-adv-x="993" d="M80 164l506 565q22 24 63 65l56 56q-26 0-88-1t-91-1H98v143h793V827L383 260q-18-21-117-119h647V0H80v164z"/><glyph glyph-name="uni00A0" horiz-adv-x="460"/><glyph glyph-name="dieresis" unicode="¨" horiz-adv-x="622" d="M41 1456h156v-260H41v260zm385 0h156v-260H426v260z"/><glyph glyph-name="macron" unicode="¯" horiz-adv-x="690" d="M41 1378h608v-118H41v118z"/><glyph glyph-name="acute" unicode="´" horiz-adv-x="481" d="M440 1518l-266-322H41l231 322h168z"/><glyph glyph-name="periodcentered" unicode="·" horiz-adv-x="456" d="M129 719h199V508H129v211z"/><glyph glyph-name="cedilla" unicode="¸" horiz-adv-x="475" d="M293 0l-74-117q18 2 64 2 71 0 111-35t40-96q0-157-207-157-96 0-186 34v84q82-26 152-26 116 0 116 63 0 64-96 64-57 0-84-6l-31 45L188 0h105z"/><glyph glyph-name="Agrave" unicode="À" horiz-adv-x="1409" d="M389 1903h168l231-322H655zM1208 0l-157 383H352L195 0H4l598 1434h209L1405 0h-197zM410 535h585l-225 546q-7 18-65 189l-68-189z"/><glyph glyph-name="Aacute" unicode="Á" horiz-adv-x="1409" d="M1014 1903l-266-322H614l232 322h168zM1208 0l-157 383H352L195 0H4l598 1434h209L1405 0h-197zM410 535h585l-225 546q-7 18-65 189l-68-189z"/><glyph glyph-name="Acircumflex" unicode="Â" horiz-adv-x="1409" d="M379 1581l242 322h170l241-322H899l-192 229-195-229H379zM1208 0l-157 383H352L195 0H4l598 1434h209L1405 0h-197zM410 535h585l-225 546q-7 18-65 189l-68-189z"/><glyph glyph-name="Atilde" unicode="Ã" horiz-adv-x="1409" d="M379 1593q1 136 44.5 198t137.5 62q42 0 83-20t101-64q51-39 77-53t50-14q42 0 59 29t23 110h101q-1-137-45-198.5T872 1581q-73 0-184 84-48 37-75 51.5t-50 14.5q-43 0-60.5-29T479 1593H379zM1208 0l-157 383H352L195 0H4l598 1434h209L1405 0h-197zM410 535h585l-225 546q-7 18-65 189l-68-189z"/><glyph glyph-name="Adieresis" unicode="Ä" horiz-adv-x="1409" d="M434 1841h156v-260H434v260zm385 0h156v-260H819v260zM1208 0l-157 383H352L195 0H4l598 1434h209L1405 0h-197zM410 535h585l-225 546q-7 18-65 189l-68-189z"/><glyph glyph-name="Aring" unicode="Å" horiz-adv-x="1409" d="M713 1579q-114 0-173 52t-59 153q0 103 59 156t173 53q112 0 169.5-53t57.5-156q0-205-227-205zm0 92q64 0 90 26t26 87q0 62-26 88t-90 26q-66 0-93.5-26t-27.5-88q0-60 27.5-86.5T713 1671zM1208 0l-157 383H352L195 0H4l598 1434h209L1405 0h-197zM410 535h585l-225 546q-7 18-65 189l-68-189z"/><glyph glyph-name="AE" unicode="Æ" horiz-adv-x="2103" d="M1231 154h842V0H1049v383H451L188 0H-14l956 1434h1083v-154h-794V811h649V659h-649V154zM541 535h508v763q-57-100-146-239z"/><glyph glyph-name="Ccedilla" unicode="Ç" horiz-adv-x="1308" d="M1251 43q-93-33-223.5-53.5T780-31l-55-86q18 2 63 2 71 0 111.5-35t40.5-96q0-157-207-157-96 0-186 34v84q82-26 151-26 117 0 117 63 0 64-96 64-57 0-84-6l-31 45 74 118Q366-4 222 174.5T78 717q0 387 170 567t534 180q102 0 222-18.5t213-46.5v-160q-231 76-437 76-277 0-396.5-139.5T264 715q0-318 122-457t400-139q192 0 465 84V43z"/><glyph glyph-name="Egrave" unicode="È" horiz-adv-x="1208" d="M315 1903h168l232-322H582zm0-1749h863V0H131v1434h999v-154H315V811h670V659H315V154z"/><glyph glyph-name="Eacute" unicode="É" horiz-adv-x="1208" d="M940 1903l-266-322H541l231 322h168zM315 154h863V0H131v1434h999v-154H315V811h670V659H315V154z"/><glyph glyph-name="Ecircumflex" unicode="Ê" horiz-adv-x="1208" d="M305 1581l242 322h170l241-322H825l-192 229-195-229H305zm10-1427h863V0H131v1434h999v-154H315V811h670V659H315V154z"/><glyph glyph-name="Edieresis" unicode="Ë" horiz-adv-x="1208" d="M360 1841h156v-260H360v260zm385 0h156v-260H745v260zM315 154h863V0H131v1434h999v-154H315V811h670V659H315V154z"/><glyph glyph-name="Igrave" unicode="Ì" horiz-adv-x="446" d="M-92 1903H76l231-322H174zm223-469h184V0H131v1434z"/><glyph glyph-name="Iacute" unicode="Í" horiz-adv-x="446" d="M532 1903l-266-322H133l232 322h167zm-401-469h184V0H131v1434z"/><glyph glyph-name="Icircumflex" unicode="Î" horiz-adv-x="446" d="M-104 1581l241 322h170l242-322H416l-193 229-194-229h-133zm235-147h184V0H131v1434z"/><glyph glyph-name="Idieresis" unicode="Ï" horiz-adv-x="446" d="M-47 1841h156v-260H-47v260zm385 0h156v-260H338v260zm-207-407h184V0H131v1434z"/><glyph glyph-name="Eth" unicode="Ð" horiz-adv-x="1458" d="M672 1434q199 0 331.5-37.5t218-123.5 122-220.5T1380 717t-37-335.5T1220.5 161t-218-123.5T672 0H131v678H0v119h131v637h541zm0-1284q154 0 251.5 26.5t160 94T1171 444t25 273q0 166-25 272t-88 173.5-160.5 94.5-250.5 27H315V797h318V678H315V150h357z"/><glyph glyph-name="Ntilde" unicode="Ñ" horiz-adv-x="1480" d="M416 1593q1 136 44.5 198t137.5 62q42 0 83-20t101-64q51-39 77-53t50-14q42 0 59 29t23 110h101q-1-137-45-198.5T909 1581q-73 0-184 84-48 37-75 51.5t-50 14.5q-43 0-60.5-29T516 1593H416zM131 0v1434h217l686-1000q49-71 144-225-4 160-4 258v967h176V0h-215L440 1010q-47 69-135 215 2-82 2-260V0H131z"/><glyph glyph-name="Ograve" unicode="Ò" horiz-adv-x="1533" d="M451 1903h167l232-322H717zM766-31q-187 0-318.5 48t-211 145-115 232.5T86 717q0 186 35.5 321.5t115 232.5 211 145 318.5 48q151 0 265.5-31.5T1225 1341t128.5-152 72-207.5T1448 717q0-186-36-321.5t-115.5-233T1085 17 766-31zm0 148q274 0 386 140.5T1264 717q0 318-113 459t-385 141q-273 0-384.5-140T270 717q0-318 112-459t384-141z"/><glyph glyph-name="Oacute" unicode="Ó" horiz-adv-x="1533" d="M1077 1903l-266-322H678l231 322h168zM766-31q-187 0-318.5 48t-211 145-115 232.5T86 717q0 186 35.5 321.5t115 232.5 211 145 318.5 48q151 0 265.5-31.5T1225 1341t128.5-152 72-207.5T1448 717q0-186-36-321.5t-115.5-233T1085 17 766-31zm0 148q274 0 386 140.5T1264 717q0 318-113 459t-385 141q-273 0-384.5-140T270 717q0-318 112-459t384-141z"/><glyph glyph-name="Ocircumflex" unicode="Ô" horiz-adv-x="1533" d="M440 1581l242 322h170l242-322H961l-193 229-195-229H440zM766-31q-187 0-318.5 48t-211 145-115 232.5T86 717q0 186 35.5 321.5t115 232.5 211 145 318.5 48q151 0 265.5-31.5T1225 1341t128.5-152 72-207.5T1448 717q0-186-36-321.5t-115.5-233T1085 17 766-31zm0 148q274 0 386 140.5T1264 717q0 318-113 459t-385 141q-273 0-384.5-140T270 717q0-318 112-459t384-141z"/><glyph glyph-name="Otilde" unicode="Õ" horiz-adv-x="1533" d="M442 1593q1 136 45 198t138 62q42 0 83-20t101-64q51-39 77-53t50-14q42 0 59 29t23 110h100q-1-137-44.5-198.5T936 1581q-73 0-184 84-48 37-75 51.5t-50 14.5q-43 0-60.5-29T543 1593H442zM766-31q-187 0-318.5 48t-211 145-115 232.5T86 717q0 186 35.5 321.5t115 232.5 211 145 318.5 48q151 0 265.5-31.5T1225 1341t128.5-152 72-207.5T1448 717q0-186-36-321.5t-115.5-233T1085 17 766-31zm0 148q274 0 386 140.5T1264 717q0 318-113 459t-385 141q-273 0-384.5-140T270 717q0-318 112-459t384-141z"/><glyph glyph-name="Odieresis" unicode="Ö" horiz-adv-x="1533" d="M498 1841h155v-260H498v260zm385 0h155v-260H883v260zM766-31q-187 0-318.5 48t-211 145-115 232.5T86 717q0 186 35.5 321.5t115 232.5 211 145 318.5 48q151 0 265.5-31.5T1225 1341t128.5-152 72-207.5T1448 717q0-186-36-321.5t-115.5-233T1085 17 766-31zm0 148q274 0 386 140.5T1264 717q0 318-113 459t-385 141q-273 0-384.5-140T270 717q0-318 112-459t384-141z"/><glyph glyph-name="Oslash" unicode="Ø" horiz-adv-x="1533" d="M1237 1331q111-90 161-242t50-372q0-186-36-321.5t-115.5-233T1085 17 766-31q-231 0-383 76L289-96H160l133 200Q86 280 86 717q0 186 35.5 321.5t115 232.5 211 145 318.5 48q237 0 381-75l98 147h127zM270 717q0-331 119-467l670 1003q-110 64-293 64-273 0-384.5-140T270 717zm496-600q274 0 386 140.5T1264 717q0 334-123 471L473 180q108-63 293-63z"/><glyph glyph-name="Ugrave" unicode="Ù" horiz-adv-x="1454" d="M412 1903h168l231-322H678zm925-469V565q0-140-32-246.5T1203 132 1013.5 10.5 727-31q-168 0-287.5 41T250 131 148.5 317 117 565v869h184V567q0-225 97.5-335.5T727 121t328.5 110.5T1153 567v867h184z"/><glyph glyph-name="Uacute" unicode="Ú" horiz-adv-x="1454" d="M1036 1903l-266-322H637l231 322h168zm301-469V565q0-140-32-246.5T1203 132 1013.5 10.5 727-31q-168 0-287.5 41T250 131 148.5 317 117 565v869h184V567q0-225 97.5-335.5T727 121t328.5 110.5T1153 567v867h184z"/><glyph glyph-name="Ucircumflex" unicode="Û" horiz-adv-x="1454" d="M401 1581l242 322h170l242-322H922l-193 229-194-229H401zm936-147V565q0-140-32-246.5T1203 132 1013.5 10.5 727-31q-168 0-287.5 41T250 131 148.5 317 117 565v869h184V567q0-225 97.5-335.5T727 121t328.5 110.5T1153 567v867h184z"/><glyph glyph-name="Udieresis" unicode="Ü" horiz-adv-x="1454" d="M457 1841h155v-260H457v260zm385 0h155v-260H842v260zm495-407V565q0-140-32-246.5T1203 132 1013.5 10.5 727-31q-168 0-287.5 41T250 131 148.5 317 117 565v869h184V567q0-225 97.5-335.5T727 121t328.5 110.5T1153 567v867h184z"/><glyph glyph-name="Yacute" unicode="Ý" horiz-adv-x="1320" d="M971 1903l-266-322H571l232 322h168zM565 0v575L6 1434h211l377-586q41-64 65-125 35 73 68 125l381 586h207L748 573V0H565z"/><glyph glyph-name="Thorn" unicode="Þ" horiz-adv-x="1269" d="M711 1169q142 0 242-30t157.5-88 83-133.5T1219 741q0-100-25.5-175t-83-133T953 345t-242-30H315V0H131v1434h184v-265h396zm-4-704q183 0 255 69t72 207q0 139-72.5 209T707 1020H315V465h392z"/><glyph glyph-name="germandbls" unicode="ß" horiz-adv-x="1167" d="M805-23q-149 0-281 48v143q151-51 254-51 176 0 176 127 0 57-35.5 90T780 426q-50 28-78.5 48T643 523.5 599.5 589 586 672q0 54 20.5 102t50.5 80 66 67.5 66 65 50.5 71.5 20.5 89q0 88-63 131t-211 43q-59 0-105.5-7.5t-76-17.5-50.5-29-31-33.5-15.5-39.5-6-39-.5-39V0H123v1110q0 53 3 85.5t27.5 89 70 89.5 139.5 59.5 227 26.5q237 0 342.5-76t105.5-219q0-76-28-138t-67.5-102-79-75-67.5-73.5-28-80.5q0-56 37-90t131-84q51-27 82-48t60-53 42-73.5 13-97.5q0-273-328-273z"/><glyph glyph-name="agrave" unicode="à" horiz-adv-x="1105" d="M221 1518h168l232-322H487zm-69-535q185 37 366 37 115 0 197-16.5T850 956t84-82 43-112 12-146V0H866l-12 221q-14-47-39.5-87.5t-70-79-119-61T455-29q-207 0-299.5 76T63 276q0 77 22 131.5t74 94 141 58T520 578q84 0 293-19v70q0 70-12 113t-45 75.5-94 46T504 877q-143 0-352-41v147zm397-530q-124 0-194-20.5t-94.5-56T236 281q0-89 57-133t196-44q330 0 330 330-121 19-270 19z"/><glyph glyph-name="aacute" unicode="á" horiz-adv-x="1105" d="M858 1518l-266-322H459l231 322h168zM152 983q185 37 366 37 115 0 197-16.5T850 956t84-82 43-112 12-146V0H866l-12 221q-14-47-39.5-87.5t-70-79-119-61T455-29q-207 0-299.5 76T63 276q0 77 22 131.5t74 94 141 58T520 578q84 0 293-19v70q0 70-12 113t-45 75.5-94 46T504 877q-143 0-352-41v147zm397-530q-124 0-194-20.5t-94.5-56T236 281q0-89 57-133t196-44q330 0 330 330-121 19-270 19z"/><glyph glyph-name="acircumflex" unicode="â" horiz-adv-x="1105" d="M223 1196l242 322h170l242-322H743l-192 231-195-231H223zm-71-213q185 37 366 37 115 0 197-16.5T850 956t84-82 43-112 12-146V0H866l-12 221q-14-47-39.5-87.5t-70-79-119-61T455-29q-207 0-299.5 76T63 276q0 77 22 131.5t74 94 141 58T520 578q84 0 293-19v70q0 70-12 113t-45 75.5-94 46T504 877q-143 0-352-41v147zm397-530q-124 0-194-20.5t-94.5-56T236 281q0-89 57-133t196-44q330 0 330 330-121 19-270 19z"/><glyph glyph-name="atilde" unicode="ã" horiz-adv-x="1105" d="M211 1208q1 137 44.5 198.5T393 1468q43 0 85.5-20.5T578 1384q51-38 77-51.5t50-13.5q41 0 58 28.5t23 108.5h101q-1-136-44.5-198T705 1196q-74 0-185 84-49 38-76 53t-49 15q-43 0-60.5-29T311 1208H211zm-59-225q185 37 366 37 115 0 197-16.5T850 956t84-82 43-112 12-146V0H866l-12 221q-14-47-39.5-87.5t-70-79-119-61T455-29q-207 0-299.5 76T63 276q0 77 22 131.5t74 94 141 58T520 578q84 0 293-19v70q0 70-12 113t-45 75.5-94 46T504 877q-143 0-352-41v147zm397-530q-124 0-194-20.5t-94.5-56T236 281q0-89 57-133t196-44q330 0 330 330-121 19-270 19z"/><glyph glyph-name="adieresis" unicode="ä" horiz-adv-x="1105" d="M279 1456h155v-260H279v260zm385 0h155v-260H664v260zM152 983q185 37 366 37 115 0 197-16.5T850 956t84-82 43-112 12-146V0H866l-12 221q-14-47-39.5-87.5t-70-79-119-61T455-29q-207 0-299.5 76T63 276q0 77 22 131.5t74 94 141 58T520 578q84 0 293-19v70q0 70-12 113t-45 75.5-94 46T504 877q-143 0-352-41v147zm397-530q-124 0-194-20.5t-94.5-56T236 281q0-89 57-133t196-44q330 0 330 330-121 19-270 19z"/><glyph glyph-name="aring" unicode="å" horiz-adv-x="1105" d="M551 1194q-114 0-173 52t-59 153q0 103 59 156t173 53q112 0 169.5-53t57.5-156q0-205-227-205zm0 92q64 0 90.5 26t26.5 87q0 62-26.5 88t-90.5 26q-66 0-93.5-26t-27.5-88q0-60 27.5-86.5T551 1286zM152 983q185 37 366 37 115 0 197-16.5T850 956t84-82 43-112 12-146V0H866l-12 221q-14-47-39.5-87.5t-70-79-119-61T455-29q-207 0-299.5 76T63 276q0 77 22 131.5t74 94 141 58T520 578q84 0 293-19v70q0 70-12 113t-45 75.5-94 46T504 877q-143 0-352-41v147zm397-530q-124 0-194-20.5t-94.5-56T236 281q0-89 57-133t196-44q330 0 330 330-121 19-270 19z"/><glyph glyph-name="ae" unicode="æ" horiz-adv-x="1855" d="M1337-31q-190 0-296.5 57.5T887 203Q845 98 740 34.5T473-29q-216 0-313 76T63 276q0 149 100 222t329 73h321v58q0 70-12 113t-45 75.5-94 46T504 877q-143 0-352-41v147q185 37 366 37 172 0 263.5-44.5T909 836q100 186 389 186 127 0 217-32.5t142.5-97 76-149.5 23.5-200q0-64-2-105H989q3-176 80-252.5t270-76.5q191 0 375 63V25q-70-23-176-39.5T1337-31zM987 569h600q0 163-65 241.5T1298 889q-168 0-238-78.5T987 569zM489 104q170 0 250 85t80 257H522q-162 0-224-39.5T236 281q0-89 57-133t196-44z"/><glyph glyph-name="ccedilla" unicode="ç" horiz-adv-x="1009" d="M944 27Q884 2 788-14.5T592-31l-55-86q18 2 63 2 71 0 111.5-35t40.5-96q0-157-207-157-97 0-187 34v84q82-26 152-26 117 0 117 63 0 64-97 64-57 0-84-6l-30 45 73 118Q270-6 175 120T80 496q0 275 117 400.5T588 1022q172 0 332-39V838q-173 45-322 45-190 0-264-85t-74-302q0-216 74-301.5T598 109q169 0 346 61V27z"/><glyph glyph-name="egrave" unicode="è" horiz-adv-x="1126" d="M248 1518h168l231-322H514zM1004 25Q934 2 826-14.5T614-31Q459-31 354.5 1T190 102t-85 163-25 231q0 131 25 225t81.5 163.5 154 103.5 237.5 34q131 0 223-32.5T946.5 892t77-151 23.5-202q0-49-3-107H258q3-116 35.5-184T404 144.5 616 109q204 0 388 63V25zM575 889q-173 0-243.5-79T258 565h614q0 165-67 244.5T575 889z"/><glyph glyph-name="eacute" unicode="é" horiz-adv-x="1126" d="M885 1518l-267-322H485l232 322h168zM1004 25Q934 2 826-14.5T614-31Q459-31 354.5 1T190 102t-85 163-25 231q0 131 25 225t81.5 163.5 154 103.5 237.5 34q131 0 223-32.5T946.5 892t77-151 23.5-202q0-49-3-107H258q3-116 35.5-184T404 144.5 616 109q204 0 388 63V25zM575 889q-173 0-243.5-79T258 565h614q0 165-67 244.5T575 889z"/><glyph glyph-name="ecircumflex" unicode="ê" horiz-adv-x="1126" d="M250 1196l242 322h170l241-322H770l-192 231-195-231H250zM1004 25Q934 2 826-14.5T614-31Q459-31 354.5 1T190 102t-85 163-25 231q0 131 25 225t81.5 163.5 154 103.5 237.5 34q131 0 223-32.5T946.5 892t77-151 23.5-202q0-49-3-107H258q3-116 35.5-184T404 144.5 616 109q204 0 388 63V25zM575 889q-173 0-243.5-79T258 565h614q0 165-67 244.5T575 889z"/><glyph glyph-name="edieresis" unicode="ë" horiz-adv-x="1126" d="M305 1456h156v-260H305v260zm385 0h156v-260H690v260zM1004 25Q934 2 826-14.5T614-31Q459-31 354.5 1T190 102t-85 163-25 231q0 131 25 225t81.5 163.5 154 103.5 237.5 34q131 0 223-32.5T946.5 892t77-151 23.5-202q0-49-3-107H258q3-116 35.5-184T404 144.5 616 109q204 0 388 63V25zM575 889q-173 0-243.5-79T258 565h614q0 165-67 244.5T575 889z"/><glyph glyph-name="igrave" unicode="ì" horiz-adv-x="419" d="M-117 1518H51l232-322H150zm238-527h178V0H121v991z"/><glyph glyph-name="iacute" unicode="í" horiz-adv-x="419" d="M520 1518l-266-322H121l231 322h168zM121 991h178V0H121v991z"/><glyph glyph-name="icircumflex" unicode="î" horiz-adv-x="419" d="M-117 1196l242 322h170l242-322H403l-192 231-195-231h-133zm238-205h178V0H121v991z"/><glyph glyph-name="idieresis" unicode="ï" horiz-adv-x="419" d="M-59 1456H96v-260H-59v260zm385 0h155v-260H326v260zM121 991h178V0H121v991z"/><glyph glyph-name="eth" unicode="ð" horiz-adv-x="1208" d="M733 1294q187-148 290-348.5T1126 520q0-147-25.5-247t-86-170T853 1 602-31Q456-31 353 2.5T191 102t-85 152-26 201q0 483 477 483 137 0 229-42.5T932 758q-102 277-316 461l-254-168-49 73 230 152q-92 68-224 139l70 74q142-55 266-137l228 149 49-76zM602 111q194 0 270 83t76 261q0 88-16.5 149.5T876 711t-107 66.5T602 799t-166-21-105.5-66.5T276 605t-16-150q0-88 16-149.5T331 199t105.5-66.5T602 111z"/><glyph glyph-name="ntilde" unicode="ñ" horiz-adv-x="1175" d="M250 1208q1 137 44.5 198.5T432 1468q43 0 85-20.5t99-63.5q51-38 77-51.5t50-13.5q41 0 58.5 29t23.5 108h101q-1-136-45-198t-138-62q-73 0-184 84-49 38-76 53t-49 15q-43 0-60.5-29T350 1208H250zM133 991h123l12-211q8 45 31 84.5t65.5 76.5 115.5 59 169 22q117 0 197.5-25T973 920t66-122 20-169V0H881v614q0 71-11.5 117.5t-42 81-84 49.5T608 877q-86 0-145.5-21t-92-62-46-91T311 586V0H133v991z"/><glyph glyph-name="ograve" unicode="ò" horiz-adv-x="1208" d="M279 1518h167l232-322H545zM604-31Q456-31 353.5 3.5T192 107.5 107.5 271 82 496t25.5 225T192 884.5 353.5 988t250.5 34q147 0 249.5-34T1016 884.5t86-163.5 26-225-26-225-86-163.5-162.5-104T604-31zm0 142q100 0 166.5 22t106 71T932 323t16 173q0 205-75 295t-269 90q-100 0-166.5-22t-106-71T276 669t-16-173q0-206 75-295.5T604 111z"/><glyph glyph-name="oacute" unicode="ó" horiz-adv-x="1208" d="M913 1518l-266-322H514l231 322h168zM604-31Q456-31 353.5 3.5T192 107.5 107.5 271 82 496t25.5 225T192 884.5 353.5 988t250.5 34q147 0 249.5-34T1016 884.5t86-163.5 26-225-26-225-86-163.5-162.5-104T604-31zm0 142q100 0 166.5 22t106 71T932 323t16 173q0 205-75 295t-269 90q-100 0-166.5-22t-106-71T276 669t-16-173q0-206 75-295.5T604 111z"/><glyph glyph-name="ocircumflex" unicode="ô" horiz-adv-x="1208" d="M279 1196l241 322h170l242-322H799l-193 231-194-231H279zM604-31Q456-31 353.5 3.5T192 107.5 107.5 271 82 496t25.5 225T192 884.5 353.5 988t250.5 34q147 0 249.5-34T1016 884.5t86-163.5 26-225-26-225-86-163.5-162.5-104T604-31zm0 142q100 0 166.5 22t106 71T932 323t16 173q0 205-75 295t-269 90q-100 0-166.5-22t-106-71T276 669t-16-173q0-206 75-295.5T604 111z"/><glyph glyph-name="otilde" unicode="õ" horiz-adv-x="1208" d="M266 1208q1 137 45 198.5t138 61.5q43 0 85-20.5t99-63.5q51-38 77-51.5t50-13.5q41 0 58.5 29t23.5 108h100q-1-136-44.5-198T760 1196q-74 0-185 84-50 39-76 53.5t-48 14.5q-43 0-60.5-29T367 1208H266zM604-31Q456-31 353.5 3.5T192 107.5 107.5 271 82 496t25.5 225T192 884.5 353.5 988t250.5 34q147 0 249.5-34T1016 884.5t86-163.5 26-225-26-225-86-163.5-162.5-104T604-31zm0 142q100 0 166.5 22t106 71T932 323t16 173q0 205-75 295t-269 90q-100 0-166.5-22t-106-71T276 669t-16-173q0-206 75-295.5T604 111z"/><glyph glyph-name="odieresis" unicode="ö" horiz-adv-x="1208" d="M334 1456h155v-260H334v260zm385 0h155v-260H719v260zM604-31Q456-31 353.5 3.5T192 107.5 107.5 271 82 496t25.5 225T192 884.5 353.5 988t250.5 34q147 0 249.5-34T1016 884.5t86-163.5 26-225-26-225-86-163.5-162.5-104T604-31zm0 142q100 0 166.5 22t106 71T932 323t16 173q0 205-75 295t-269 90q-100 0-166.5-22t-106-71T276 669t-16-173q0-206 75-295.5T604 111z"/><glyph glyph-name="oslash" unicode="ø" horiz-adv-x="1208" d="M973 926q155-121 155-430 0-131-26-225t-86-163.5-162.5-104T604-31q-177 0-287 49L233-96H119L236 66Q82 186 82 496q0 131 25.5 225T192 884.5 353.5 988t250.5 34q177 0 287-49l82 114h117zM260 496q0-207 74-295l465 645q-75 35-195 35-100 0-166.5-22t-106-71T276 669t-16-173zm344-385q100 0 166.5 22t106 71T932 323t16 173q0 207-74 295L408 145q75-34 196-34z"/><glyph glyph-name="ugrave" unicode="ù" horiz-adv-x="1159" d="M250 1518h168l231-322H516zM1038 0H915l-10 211q-8-42-32-81.5t-67-77T689-8 520-31q-226 0-318.5 98.5T109 362v629h178V373q0-137 59-197.5T563 115q84 0 143.5 20.5t92 59 47 86.5T860 391v600h178V0z"/><glyph glyph-name="uacute" unicode="ú" horiz-adv-x="1159" d="M885 1518l-267-322H485l232 322h168zM1038 0H915l-10 211q-8-42-32-81.5t-67-77T689-8 520-31q-226 0-318.5 98.5T109 362v629h178V373q0-137 59-197.5T563 115q84 0 143.5 20.5t92 59 47 86.5T860 391v600h178V0z"/><glyph glyph-name="ucircumflex" unicode="û" horiz-adv-x="1159" d="M250 1196l242 322h170l241-322H770l-192 231-195-231H250zM1038 0H915l-10 211q-8-42-32-81.5t-67-77T689-8 520-31q-226 0-318.5 98.5T109 362v629h178V373q0-137 59-197.5T563 115q84 0 143.5 20.5t92 59 47 86.5T860 391v600h178V0z"/><glyph glyph-name="udieresis" unicode="ü" horiz-adv-x="1159" d="M305 1456h156v-260H305v260zm385 0h156v-260H690v260zM1038 0H915l-10 211q-8-42-32-81.5t-67-77T689-8 520-31q-226 0-318.5 98.5T109 362v629h178V373q0-137 59-197.5T563 115q84 0 143.5 20.5t92 59 47 86.5T860 391v600h178V0z"/><glyph glyph-name="yacute" unicode="ý" horiz-adv-x="1040" d="M829 1518l-266-322H430l232 322h167zM14 991h193l254-608q45-112 63-195 20 76 64 195l250 608h188L436-369H252L442 31z"/><glyph glyph-name="thorn" unicode="þ" horiz-adv-x="1200" d="M121-369v1803h178v-359q0-88-14-289 28 101 122.5 168.5T666 1022q245 0 350.5-129T1122 496q0-267-107.5-397T666-31q-167 0-261 68.5T285 207Q299 6 299-82v-287H121zm497 478q181 0 252.5 90T942 496q0 206-72 296.5T618 883q-179 0-252-90.5T293 496t73-296.5T618 109z"/><glyph glyph-name="ydieresis" unicode="ÿ" horiz-adv-x="1040" d="M250 1456h156v-260H250v260zm385 0h156v-260H635v260zM14 991h193l254-608q45-112 63-195 20 76 64 195l250 608h188L436-369H252L442 31z"/><glyph glyph-name="Amacron" unicode="Ā" horiz-adv-x="1409" d="M401 1759h609v-119H401v119zM1208 0l-157 383H352L195 0H4l598 1434h209L1405 0h-197zM410 535h585l-225 546q-7 18-65 189l-68-189z"/><glyph glyph-name="amacron" unicode="ā" horiz-adv-x="1105" d="M246 1378h608v-118H246v118zm-94-395q185 37 366 37 115 0 197-16.5T850 956t84-82 43-112 12-146V0H866l-12 221q-14-47-39.5-87.5t-70-79-119-61T455-29q-207 0-299.5 76T63 276q0 77 22 131.5t74 94 141 58T520 578q84 0 293-19v70q0 70-12 113t-45 75.5-94 46T504 877q-143 0-352-41v147zm397-530q-124 0-194-20.5t-94.5-56T236 281q0-89 57-133t196-44q330 0 330 330-121 19-270 19z"/><glyph glyph-name="Abreve" unicode="Ă" horiz-adv-x="1409" d="M418 1907h104q6-108 48-155.5t137-47.5q94 0 135 47t47 156h104q0-167-70-247.5T707 1579q-148 0-218.5 80.5T418 1907zM1208 0l-157 383H352L195 0H4l598 1434h209L1405 0h-197zM410 535h585l-225 546q-7 18-65 189l-68-189z"/><glyph glyph-name="abreve" unicode="ă" horiz-adv-x="1105" d="M260 1522h105q6-108 47.5-155.5T549 1319q94 0 135 47t47 156h105q0-167-70.5-247.5T549 1194q-148 0-218.5 80.5T260 1522zM152 983q185 37 366 37 115 0 197-16.5T850 956t84-82 43-112 12-146V0H866l-12 221q-14-47-39.5-87.5t-70-79-119-61T455-29q-207 0-299.5 76T63 276q0 77 22 131.5t74 94 141 58T520 578q84 0 293-19v70q0 70-12 113t-45 75.5-94 46T504 877q-143 0-352-41v147zm397-530q-124 0-194-20.5t-94.5-56T236 281q0-89 57-133t196-44q330 0 330 330-121 19-270 19z"/><glyph glyph-name="Aogonek" unicode="Ą" horiz-adv-x="1409" d="M1331 0q-166-141-166-240 0-35 20-53t54-18q50 0 90 16v-115q-68-24-123-24-81 0-125.5 41T1036-279q0 75 45.5 147T1208 0l-157 383H352L195 0H4l598 1434h209L1405 0h-74zM410 535h585l-225 546q-7 18-65 189l-68-189z"/><glyph glyph-name="aogonek" unicode="ą" horiz-adv-x="1105" d="M989 0Q823-141 823-240q0-35 20-53t54-18q50 0 90 16v-115q-67-24-123-24-81 0-125.5 41T694-279q0 75 45.5 147T866 0l-12 221q-14-47-39.5-87.5t-70-79-119-61T455-29q-207 0-299.5 76T63 276q0 77 22 131.5t74 94 141 58T520 578q84 0 293-19v70q0 70-12 113t-45 75.5-94 46T504 877q-143 0-352-41v147q185 37 366 37 115 0 197-16.5T850 956t84-82 43-112 12-146V0zM489 104q330 0 330 330-121 19-270 19-124 0-194-20.5t-94.5-56T236 281q0-89 57-133t196-44z"/><glyph glyph-name="Cacute" unicode="Ć" horiz-adv-x="1308" d="M1081 1903l-266-322H682l231 322h168zM1251 43q-93-33-223.5-53.5T778-31q-366 0-533 178.5T78 717q0 387 170 567t534 180q102 0 222-18.5t213-46.5v-160q-231 76-437 76-277 0-396.5-139.5T264 715q0-318 122-457t400-139q192 0 465 84V43z"/><glyph glyph-name="cacute" unicode="ć" horiz-adv-x="1009" d="M872 1518l-266-322H473l232 322h167zm48-680q-173 45-322 45-190 0-264-85t-74-302q0-216 74-301.5T598 109q169 0 346 61V27Q884 2 786.5-14.5T588-31Q314-31 197 94.5T80 496q0 275 117 400.5T588 1022q172 0 332-39V838z"/><glyph glyph-name="Ccircumflex" unicode="Ĉ" horiz-adv-x="1308" d="M446 1581l242 322h170l242-322H967l-193 229-194-229H446zM1251 43q-93-33-223.5-53.5T778-31q-366 0-533 178.5T78 717q0 387 170 567t534 180q102 0 222-18.5t213-46.5v-160q-231 76-437 76-277 0-396.5-139.5T264 715q0-318 122-457t400-139q192 0 465 84V43z"/><glyph glyph-name="ccircumflex" unicode="ĉ" horiz-adv-x="1009" d="M236 1196l241 322h170l242-322H756l-193 231-194-231H236zm684-358q-173 45-322 45-190 0-264-85t-74-302q0-216 74-301.5T598 109q169 0 346 61V27Q884 2 786.5-14.5T588-31Q314-31 197 94.5T80 496q0 275 117 400.5T588 1022q172 0 332-39V838z"/><glyph glyph-name="Cdotaccent" unicode="Ċ" horiz-adv-x="1308" d="M696 1841h154v-260H696v260zM1251 43q-93-33-223.5-53.5T778-31q-366 0-533 178.5T78 717q0 387 170 567t534 180q102 0 222-18.5t213-46.5v-160q-231 76-437 76-277 0-396.5-139.5T264 715q0-318 122-457t400-139q192 0 465 84V43z"/><glyph glyph-name="cdotaccent" unicode="ċ" horiz-adv-x="1009" d="M485 1456h154v-260H485v260zm435-618q-173 45-322 45-190 0-264-85t-74-302q0-216 74-301.5T598 109q169 0 346 61V27Q884 2 786.5-14.5T588-31Q314-31 197 94.5T80 496q0 275 117 400.5T588 1022q172 0 332-39V838z"/><glyph glyph-name="Ccaron" unicode="Č" horiz-adv-x="1308" d="M446 1903h134l194-230 193 230h133l-242-322H688zM1251 43q-93-33-223.5-53.5T778-31q-366 0-533 178.5T78 717q0 387 170 567t534 180q102 0 222-18.5t213-46.5v-160q-231 76-437 76-277 0-396.5-139.5T264 715q0-318 122-457t400-139q192 0 465 84V43z"/><glyph glyph-name="ccaron" unicode="č" horiz-adv-x="1009" d="M236 1518h133l194-230 193 230h133l-242-322H477zm684-680q-173 45-322 45-190 0-264-85t-74-302q0-216 74-301.5T598 109q169 0 346 61V27Q884 2 786.5-14.5T588-31Q314-31 197 94.5T80 496q0 275 117 400.5T588 1022q172 0 332-39V838z"/><glyph glyph-name="Dcaron" unicode="Ď" horiz-adv-x="1458" d="M283 1903h133l194-230 193 230h133l-242-322H524zm389-469q199 0 331.5-37.5t218-123.5 122-220.5T1380 717t-37-335.5T1220.5 161t-218-123.5T672 0H131v1434h541zm0-1284q154 0 251.5 26.5t160 94T1171 444t25 273q0 166-25 272t-88 173.5-160.5 94.5-250.5 27H315V150h357z"/><glyph glyph-name="dcaron" unicode="ď" horiz-adv-x="1345" d="M541-31Q295-31 187.5 98T80 496q0 266 108.5 396T539 1022q165 0 259-67.5T918 786q-15 215-15 289v359h178V0H958l-12 221q-10-40-26-72.5t-47-67T799.5 23t-109-39T541-31zm676 1465h143v-197l-60-154h-83v351zM584 113q176 0 250.5 88.5T909 496q0 205-75.5 294T584 879q-178 0-251-87.5T260 496q0-206 74-294.5T584 113z"/><glyph glyph-name="Dcroat" unicode="Đ" horiz-adv-x="1458" d="M672 1434q199 0 331.5-37.5t218-123.5 122-220.5T1380 717t-37-335.5T1220.5 161t-218-123.5T672 0H131v678H0v119h131v637h541zm0-1284q154 0 251.5 26.5t160 94T1171 444t25 273q0 166-25 272t-88 173.5-160.5 94.5-250.5 27H315V797h318V678H315V150h357z"/><glyph glyph-name="dcroat" unicode="đ" horiz-adv-x="1202" d="M1202 1251v-118h-121V0H958l-12 221q-10-40-26-72.5t-47-67T799.5 23t-109-39T541-31Q295-31 187.5 98T80 496q0 266 108.5 396T539 1022q165 0 259-67.5T918 786q-15 215-15 289v58H594v118h309v183h178v-183h121zM584 113q176 0 250.5 88.5T909 496q0 205-75.5 294T584 879q-178 0-251-87.5T260 496q0-206 74-294.5T584 113z"/><glyph glyph-name="Emacron" unicode="Ē" horiz-adv-x="1208" d="M328 1759h608v-119H328v119zM315 154h863V0H131v1434h999v-154H315V811h670V659H315V154z"/><glyph glyph-name="emacron" unicode="ē" horiz-adv-x="1126" d="M272 1378h609v-118H272v118zM1004 25Q934 2 826-14.5T614-31Q459-31 354.5 1T190 102t-85 163-25 231q0 131 25 225t81.5 163.5 154 103.5 237.5 34q131 0 223-32.5T946.5 892t77-151 23.5-202q0-49-3-107H258q3-116 35.5-184T404 144.5 616 109q204 0 388 63V25zM575 889q-173 0-243.5-79T258 565h614q0 165-67 244.5T575 889z"/><glyph glyph-name="Ebreve" unicode="Ĕ" horiz-adv-x="1208" d="M344 1907h105q6-108 47.5-155.5T633 1704q94 0 135 47t47 156h105q0-167-70.5-247.5T633 1579q-148 0-218.5 80.5T344 1907zM315 154h863V0H131v1434h999v-154H315V811h670V659H315V154z"/><glyph glyph-name="ebreve" unicode="ĕ" horiz-adv-x="1126" d="M287 1522h104q6-108 47.5-155.5T575 1319q94 0 135.5 47t47.5 156h104q0-167-70.5-247.5T575 1194q-148 0-218 80t-70 248zM1004 25Q934 2 826-14.5T614-31Q459-31 354.5 1T190 102t-85 163-25 231q0 131 25 225t81.5 163.5 154 103.5 237.5 34q131 0 223-32.5T946.5 892t77-151 23.5-202q0-49-3-107H258q3-116 35.5-184T404 144.5 616 109q204 0 388 63V25zM575 889q-173 0-243.5-79T258 565h614q0 165-67 244.5T575 889z"/><glyph glyph-name="Edotaccent" unicode="Ė" horiz-adv-x="1208" d="M555 1841h154v-260H555v260zM315 154h863V0H131v1434h999v-154H315V811h670V659H315V154z"/><glyph glyph-name="edotaccent" unicode="ė" horiz-adv-x="1126" d="M500 1456h153v-260H500v260zM1004 25Q934 2 826-14.5T614-31Q459-31 354.5 1T190 102t-85 163-25 231q0 131 25 225t81.5 163.5 154 103.5 237.5 34q131 0 223-32.5T946.5 892t77-151 23.5-202q0-49-3-107H258q3-116 35.5-184T404 144.5 616 109q204 0 388 63V25zM575 889q-173 0-243.5-79T258 565h614q0 165-67 244.5T575 889z"/><glyph glyph-name="Eogonek" unicode="Ę" horiz-adv-x="1208" d="M1178 0q-166-141-166-240 0-35 19.5-53t53.5-18q51 0 91 16v-115q-68-24-123-24-81 0-125.5 41T883-279q0 75 45.5 147T1055 0H131v1434h999v-154H315V811h670V659H315V154h863V0z"/><glyph glyph-name="eogonek" unicode="ę" horiz-adv-x="1126" d="M1047 539q0-49-3-107H258q3-116 35.5-184T404 144.5 616 109q204 0 388 63V25Q838-116 838-215q0-35 19.5-53.5T911-287q47 0 90 17v-115q-70-25-122-25-81 0-125.5 41.5T709-254q0 127 125 242-111-19-220-19-155 0-259.5 32T190 102t-85 163-25 231q0 131 25 225t81.5 163.5 154 103.5 237.5 34q131 0 223-32.5T946.5 892t77-151 23.5-202zm-789 26h614q0 165-67 244.5T575 889q-173 0-243.5-79T258 565z"/><glyph glyph-name="Ecaron" unicode="Ě" horiz-adv-x="1208" d="M305 1903h133l195-230 192 230h133l-241-322H547zm10-1749h863V0H131v1434h999v-154H315V811h670V659H315V154z"/><glyph glyph-name="ecaron" unicode="ě" horiz-adv-x="1126" d="M250 1518h133l195-230 192 230h133l-241-322H492zM1004 25Q934 2 826-14.5T614-31Q459-31 354.5 1T190 102t-85 163-25 231q0 131 25 225t81.5 163.5 154 103.5 237.5 34q131 0 223-32.5T946.5 892t77-151 23.5-202q0-49-3-107H258q3-116 35.5-184T404 144.5 616 109q204 0 388 63V25zM575 889q-173 0-243.5-79T258 565h614q0 165-67 244.5T575 889z"/><glyph glyph-name="Gcircumflex" unicode="Ĝ" horiz-adv-x="1441" d="M463 1581l242 322h169l242-322H983l-192 229-195-229H463zM797-31q-381 0-550 176T78 717q0 390 172.5 568.5T799 1464q249 0 495-61v-158q-280 70-489 70-298 0-420.5-135.5T262 717t124-462.5T811 119q36 0 74.5 2t80 7 67 8.5 69.5 10 55 7.5v421H831v146h500V29q-118-26-267-43T797-31z"/><glyph glyph-name="gcircumflex" unicode="ĝ" horiz-adv-x="1202" d="M285 1196l241 322h170l242-322H805l-193 231-194-231H285zM559-399q-101 0-214.5 18T154-336v146q217-68 391-68 192 0 277 81t85 253q0 103 11 186Q837 43 539 43q-125 0-214.5 33.5T182 175t-77.5 153T80 532q0 490 463 490 85 0 152.5-16.5T804 965t72-59.5 45-64.5 25-65l12 215h123V76q0-110-26.5-193.5T969-266t-162-99-248-34zm25 585q177 0 251 87.5T909 532q0 170-74.5 258.5T584 879q-177 0-250.5-88T260 532q0-173 72.5-259.5T584 186z"/><glyph glyph-name="Gbreve" unicode="Ğ" horiz-adv-x="1441" d="M502 1907h104q6-108 48-155.5t137-47.5q94 0 135 47t47 156h104q0-167-70-247.5T791 1579q-148 0-218.5 80.5T502 1907zM797-31q-381 0-550 176T78 717q0 390 172.5 568.5T799 1464q249 0 495-61v-158q-280 70-489 70-298 0-420.5-135.5T262 717t124-462.5T811 119q36 0 74.5 2t80 7 67 8.5 69.5 10 55 7.5v421H831v146h500V29q-118-26-267-43T797-31z"/><glyph glyph-name="gbreve" unicode="ğ" horiz-adv-x="1202" d="M324 1522h104q6-108 47.5-155.5T612 1319q94 0 135.5 47t47.5 156h104q0-167-70.5-247.5T612 1194q-148 0-218 80t-70 248zM559-399q-101 0-214.5 18T154-336v146q217-68 391-68 192 0 277 81t85 253q0 103 11 186Q837 43 539 43q-125 0-214.5 33.5T182 175t-77.5 153T80 532q0 490 463 490 85 0 152.5-16.5T804 965t72-59.5 45-64.5 25-65l12 215h123V76q0-110-26.5-193.5T969-266t-162-99-248-34zm25 585q177 0 251 87.5T909 532q0 170-74.5 258.5T584 879q-177 0-250.5-88T260 532q0-173 72.5-259.5T584 186z"/><glyph glyph-name="Gdotaccent" unicode="Ġ" horiz-adv-x="1441" d="M713 1841h153v-260H713v260zM797-31q-381 0-550 176T78 717q0 390 172.5 568.5T799 1464q249 0 495-61v-158q-280 70-489 70-298 0-420.5-135.5T262 717t124-462.5T811 119q36 0 74.5 2t80 7 67 8.5 69.5 10 55 7.5v421H831v146h500V29q-118-26-267-43T797-31z"/><glyph glyph-name="gdotaccent" unicode="ġ" horiz-adv-x="1202" d="M535 1456h153v-260H535v260zm24-1855q-101 0-214.5 18T154-336v146q217-68 391-68 192 0 277 81t85 253q0 103 11 186Q837 43 539 43q-125 0-214.5 33.5T182 175t-77.5 153T80 532q0 490 463 490 85 0 152.5-16.5T804 965t72-59.5 45-64.5 25-65l12 215h123V76q0-110-26.5-193.5T969-266t-162-99-248-34zm25 585q177 0 251 87.5T909 532q0 170-74.5 258.5T584 879q-177 0-250.5-88T260 532q0-173 72.5-259.5T584 186z"/><glyph glyph-name="uni0122" unicode="Ģ" horiz-adv-x="1441" d="M797-31q-381 0-550 176T78 717q0 390 172.5 568.5T799 1464q249 0 495-61v-158q-280 70-489 70-298 0-420.5-135.5T262 717t124-462.5T811 119q36 0 74.5 2t80 7 67 8.5 69.5 10 55 7.5v421H831v146h500V29q-118-26-267-43T797-31zm-66-112h160v-152l-66-139h-88l49 141h-55v150z"/><glyph glyph-name="uni0123" unicode="ģ" horiz-adv-x="1202" d="M686 1196H537v180l65 148h88l-49-150h45v-178zM559-399q-101 0-214.5 18T154-336v146q217-68 391-68 192 0 277 81t85 253q0 103 11 186Q837 43 539 43q-125 0-214.5 33.5T182 175t-77.5 153T80 532q0 490 463 490 85 0 152.5-16.5T804 965t72-59.5 45-64.5 25-65l12 215h123V76q0-110-26.5-193.5T969-266t-162-99-248-34zm25 585q177 0 251 87.5T909 532q0 170-74.5 258.5T584 879q-177 0-250.5-88T260 532q0-173 72.5-259.5T584 186z"/><glyph glyph-name="Hcircumflex" unicode="Ĥ" horiz-adv-x="1484" d="M743 1810l-194-229H416l241 322h170l242-322H936zm426-376h185V0h-185v657H315V0H131v1434h184V811h854v623z"/><glyph glyph-name="hcircumflex" unicode="ĥ" horiz-adv-x="1153" d="M266 1581l242 322h170l242-322H786l-192 229-195-229H266zm-145-147h178v-353q0-90-14-272 25 96 116 154.5t248 58.5q114 0 192.5-26t123-78.5 63.5-122 19-166.5V0H868v618q0 71-12 117t-42.5 79.5-83.5 48T594 877q-163 0-229-70.5T299 604V0H121v1434z"/><glyph glyph-name="Hbar" unicode="Ħ" horiz-adv-x="1501" d="M1464 1171v-118h-102V0h-184v657H324V0H139v1053H37v118h102v263h185v-263h854v263h184v-263h102zm-286-360v242H324V811h854z"/><glyph glyph-name="hbar" unicode="ħ" horiz-adv-x="1153" d="M649 1022q114 0 192.5-26t123-78.5 63.5-122 19-166.5V0H868v618q0 71-12 117t-42.5 79.5-83.5 48T594 877q-163 0-229-70.5T299 604V0H121v1133H0v118h121v183h178v-183h309v-118H299v-52q0-90-14-272 25 96 116 154.5t248 58.5z"/><glyph glyph-name="Itilde" unicode="Ĩ" horiz-adv-x="446" d="M-102 1593q1 136 44.5 198T80 1853q42 0 83-20t101-64q51-39 77-53t50-14q42 0 59 29t23 110h100q-1-137-44.5-198.5T391 1581q-73 0-184 84-48 37-75 51.5T82 1731q-43 0-60.5-29T-2 1593h-100zm233-159h184V0H131v1434z"/><glyph glyph-name="itilde" unicode="ĩ" horiz-adv-x="419" d="M-127 1208q1 137 44.5 198.5T55 1468q43 0 85.5-20.5T240 1384q51-38 77-51.5t50-13.5q41 0 58.5 29t23.5 108h100q-1-136-44.5-198T367 1196q-74 0-185 84-49 38-76 53t-49 15q-43 0-60.5-29T-27 1208h-100zm248-217h178V0H121v991z"/><glyph glyph-name="Imacron" unicode="Ī" horiz-adv-x="446" d="M-80 1759h608v-119H-80v119zm211-325h184V0H131v1434z"/><glyph glyph-name="imacron" unicode="ī" horiz-adv-x="419" d="M-94 1378h608v-118H-94v118zm215-387h178V0H121v991z"/><glyph glyph-name="Ibreve" unicode="Ĭ" horiz-adv-x="446" d="M-66 1907H39q6-108 47.5-155.5T223 1704q94 0 135.5 47t47.5 156h104q0-167-70.5-247.5T223 1579q-148 0-218.5 80.5T-66 1907zm197-473h184V0H131v1434z"/><glyph glyph-name="ibreve" unicode="ĭ" horiz-adv-x="419" d="M-78 1522H27q6-108 47.5-155.5T211 1319q94 0 135 47t47 156h105q0-167-70.5-247.5T211 1194q-148 0-218.5 80.5T-78 1522zm199-531h178V0H121v991z"/><glyph glyph-name="Iogonek" unicode="Į" horiz-adv-x="446" d="M131 1434h184V0h-61Q88-141 88-240q0-35 20-53t54-18q50 0 90 16v-115q-67-24-123-24-81 0-125.5 41T-41-279q0 75 45.5 147T131 0v1434z"/><glyph glyph-name="iogonek" unicode="į" horiz-adv-x="421" d="M123 1434h178v-256H123v256zM123 0v991h178V0h-55Q80-141 80-240q0-35 20-53t54-18q50 0 90 16v-115q-67-24-123-24-81 0-125.5 41T-49-279q0 75 45.5 147T123 0z"/><glyph glyph-name="Idotaccent" unicode="İ" horiz-adv-x="446" d="M147 1841h154v-260H147v260zm-16-407h184V0H131v1434z"/><glyph glyph-name="dotlessi" unicode="ı" horiz-adv-x="419" d="M121 991h178V0H121v991z"/><glyph glyph-name="Jcircumflex" unicode="Ĵ" horiz-adv-x="727" d="M190 1581l242 322h170l242-322H711l-193 229-194-229H190zM45 152q93-13 154-13 138 0 182.5 51T426 383v1051h184V379q0-106-17-177T533 81 416.5 8.5 231-14Q128-14 45 2v150z"/><glyph glyph-name="jcircumflex" unicode="ĵ" horiz-adv-x="419" d="M-117 1196l242 322h170l242-322H403l-192 231-195-231h-133zM299-72q0-165-71-246t-242-81q-102 0-144 10v137q81-6 107-6 101 0 136.5 39T121-80V991h178V-72z"/><glyph glyph-name="uni0136" unicode="Ķ" horiz-adv-x="1329" d="M315 860q0-90-14-272 38 46 102.5 119.5T519 838t134 148 113 124l303 324h215L711 809 1376 0h-227L594 682 315 393V0H131v1434h184V860zM590-143h160v-152l-66-139h-88l49 141h-55v150z"/><glyph glyph-name="uni0137" unicode="ķ" horiz-adv-x="1064" d="M121 1434h178V676q0-92-14-279 53 75 203 246.5T803 991h207L592 547 1102 0H872L477 430 299 250V0H121v1434zM457-143h159v-152l-65-139h-88l49 141h-55v150z"/><glyph glyph-name="Lacute" unicode="Ĺ" horiz-adv-x="1150" d="M532 1903l-266-322H133l232 322h167zM315 158h803V0H131v1434h184V158z"/><glyph glyph-name="lacute" unicode="ĺ" horiz-adv-x="444" d="M532 1960l-266-322H133l232 322h167zm-399-526h178V0H133v1434z"/><glyph glyph-name="uni013B" unicode="Ļ" horiz-adv-x="1150" d="M315 158h803V0H131v1434h184V158zm185-301h159v-152l-65-139h-88l49 141h-55v150z"/><glyph glyph-name="uni013C" unicode="ļ" horiz-adv-x="444" d="M133 1434h178V0H133v1434zm14-1577h160v-152l-65-139h-88l49 141h-56v150z"/><glyph glyph-name="Lcaron" unicode="Ľ" horiz-adv-x="1150" d="M315 158h803V0H131v1434h184V158zm199 1276h143v-197l-59-154h-84v351z"/><glyph glyph-name="lcaron" unicode="ľ" horiz-adv-x="585" d="M133 1434h178V0H133v1434zm318 0h143v-197l-59-154h-84v351z"/><glyph glyph-name="Ldot" unicode="Ŀ" horiz-adv-x="1150" d="M315 158h803V0H131v1434h184V158zm383 743h199V690H698v211z"/><glyph glyph-name="ldot" unicode="ŀ" horiz-adv-x="636" d="M133 1434h178V0H133v1434zm305-613h199V612H438v209z"/><glyph glyph-name="Lslash" unicode="Ł" horiz-adv-x="1150" d="M315 158h803V0H131v545L0 469v137l131 76v752h184V788l447 259V909L315 651V158z"/><glyph glyph-name="lslash" unicode="ł" horiz-adv-x="444" d="M444 963V829l-133-96V0H133v602L0 506v133l133 96v699h178V866z"/><glyph glyph-name="Nacute" unicode="Ń" horiz-adv-x="1480" d="M1051 1903l-267-322H651l232 322h168zM131 0v1434h217l686-1000q49-71 144-225-4 160-4 258v967h176V0h-215L440 1010q-47 69-135 215 2-82 2-260V0H131z"/><glyph glyph-name="nacute" unicode="ń" horiz-adv-x="1175" d="M897 1518l-266-322H498l231 322h168zM133 991h123l12-211q8 45 31 84.5t65.5 76.5 115.5 59 169 22q117 0 197.5-25T973 920t66-122 20-169V0H881v614q0 71-11.5 117.5t-42 81-84 49.5T608 877q-86 0-145.5-21t-92-62-46-91T311 586V0H133v991z"/><glyph glyph-name="uni0145" unicode="Ņ" horiz-adv-x="1480" d="M131 0v1434h217l686-1000q49-71 144-225-4 160-4 258v967h176V0h-215L440 1010q-47 69-135 215 2-82 2-260V0H131zm535-143h159v-152l-65-139h-88l49 141h-55v150z"/><glyph glyph-name="uni0146" unicode="ņ" horiz-adv-x="1175" d="M133 991h123l12-211q8 45 31 84.5t65.5 76.5 115.5 59 169 22q117 0 197.5-25T973 920t66-122 20-169V0H881v614q0 71-11.5 117.5t-42 81-84 49.5T608 877q-86 0-145.5-21t-92-62-46-91T311 586V0H133v991zM512-143h160v-152l-66-139h-88l49 141h-55v150z"/><glyph glyph-name="Ncaron" unicode="Ň" horiz-adv-x="1480" d="M416 1903h133l194-230 193 230h133l-242-322H657zM131 0v1434h217l686-1000q49-71 144-225-4 160-4 258v967h176V0h-215L440 1010q-47 69-135 215 2-82 2-260V0H131z"/><glyph glyph-name="ncaron" unicode="ň" horiz-adv-x="1175" d="M262 1518h133l195-230 192 230h133l-241-322H504zM133 991h123l12-211q8 45 31 84.5t65.5 76.5 115.5 59 169 22q117 0 197.5-25T973 920t66-122 20-169V0H881v614q0 71-11.5 117.5t-42 81-84 49.5T608 877q-86 0-145.5-21t-92-62-46-91T311 586V0H133v991z"/><glyph glyph-name="Eng" unicode="Ŋ" horiz-adv-x="1492" d="M137 0v1434h217l680-947q112-165 150-225-4 160-4 258v914h176V-23q0-91-17.5-155.5t-58.5-113-113.5-72T987-387q-109 0-186 16v152q100-14 153-14 135 0 180.5 50T1180-2L455 1010q-83 114-144 215 2-82 2-260V0H137z"/><glyph glyph-name="eng" unicode="ŋ" horiz-adv-x="1175" d="M133 0v991h123l12-211q8 45 31 84.5t65.5 76.5 115.5 59 169 22q117 0 197.5-25T973 920t66-122 20-169V-72q0-165-71.5-246T745-399q-101 0-143 10v137q87-6 109-6 100 0 135 38.5T881-80v694q0 71-11.5 117.5t-42 81-84 49.5T608 877q-86 0-145.5-21t-92-62-46-91T311 586V0H133z"/><glyph glyph-name="Omacron" unicode="Ō" horiz-adv-x="1533" d="M463 1759h608v-119H463v119zM766-31q-187 0-318.5 48t-211 145-115 232.5T86 717q0 186 35.5 321.5t115 232.5 211 145 318.5 48q151 0 265.5-31.5T1225 1341t128.5-152 72-207.5T1448 717q0-186-36-321.5t-115.5-233T1085 17 766-31zm0 148q274 0 386 140.5T1264 717q0 318-113 459t-385 141q-273 0-384.5-140T270 717q0-318 112-459t384-141z"/><glyph glyph-name="omacron" unicode="ō" horiz-adv-x="1208" d="M301 1378h608v-118H301v118zM604-31Q456-31 353.5 3.5T192 107.5 107.5 271 82 496t25.5 225T192 884.5 353.5 988t250.5 34q147 0 249.5-34T1016 884.5t86-163.5 26-225-26-225-86-163.5-162.5-104T604-31zm0 142q100 0 166.5 22t106 71T932 323t16 173q0 205-75 295t-269 90q-100 0-166.5-22t-106-71T276 669t-16-173q0-206 75-295.5T604 111z"/><glyph glyph-name="Obreve" unicode="Ŏ" horiz-adv-x="1533" d="M479 1907h105q6-108 47.5-155.5T768 1704q94 0 135 47t47 156h105q0-167-70.5-247.5T768 1579q-148 0-218.5 80.5T479 1907zM766-31q-187 0-318.5 48t-211 145-115 232.5T86 717q0 186 35.5 321.5t115 232.5 211 145 318.5 48q151 0 265.5-31.5T1225 1341t128.5-152 72-207.5T1448 717q0-186-36-321.5t-115.5-233T1085 17 766-31zm0 148q274 0 386 140.5T1264 717q0 318-113 459t-385 141q-273 0-384.5-140T270 717q0-318 112-459t384-141z"/><glyph glyph-name="obreve" unicode="ŏ" horiz-adv-x="1208" d="M317 1522h105q6-108 47.5-155.5T606 1319q94 0 135 47t47 156h105q0-167-70.5-247.5T606 1194q-148 0-218.5 80.5T317 1522zM604-31Q456-31 353.5 3.5T192 107.5 107.5 271 82 496t25.5 225T192 884.5 353.5 988t250.5 34q147 0 249.5-34T1016 884.5t86-163.5 26-225-26-225-86-163.5-162.5-104T604-31zm0 142q100 0 166.5 22t106 71T932 323t16 173q0 205-75 295t-269 90q-100 0-166.5-22t-106-71T276 669t-16-173q0-206 75-295.5T604 111z"/><glyph glyph-name="Ohungarumlaut" unicode="Ő" horiz-adv-x="1533" d="M868 1903l-266-322H469l231 322h168zm371 0l-266-322H840l231 322h168zM766-31q-187 0-318.5 48t-211 145-115 232.5T86 717q0 186 35.5 321.5t115 232.5 211 145 318.5 48q151 0 265.5-31.5T1225 1341t128.5-152 72-207.5T1448 717q0-186-36-321.5t-115.5-233T1085 17 766-31zm0 148q274 0 386 140.5T1264 717q0 318-113 459t-385 141q-273 0-384.5-140T270 717q0-318 112-459t384-141z"/><glyph glyph-name="ohungarumlaut" unicode="ő" horiz-adv-x="1208" d="M657 1518l-266-322H258l231 322h168zm371 0l-266-322H629l231 322h168zM604-31Q456-31 353.5 3.5T192 107.5 107.5 271 82 496t25.5 225T192 884.5 353.5 988t250.5 34q147 0 249.5-34T1016 884.5t86-163.5 26-225-26-225-86-163.5-162.5-104T604-31zm0 142q100 0 166.5 22t106 71T932 323t16 173q0 205-75 295t-269 90q-100 0-166.5-22t-106-71T276 669t-16-173q0-206 75-295.5T604 111z"/><glyph glyph-name="OE" unicode="Œ" horiz-adv-x="2326" d="M750-31q-180 0-308.5 49.5T235 166 121.5 399 86 717q0 373 157 560t507 187q193 0 317.5-60.5T1262 1219v215h987v-154h-815V811h669V659h-669V154h862V0H1262v215q-70-123-195-184.5T750-31zm16 148q274 0 386 140.5T1264 717q0 318-113 459t-385 141q-273 0-384.5-140T270 717q0-318 112-459t384-141z"/><glyph glyph-name="oe" unicode="œ" horiz-adv-x="1992" d="M80 496q0 131 26 225t85 163.5T352.5 988t249.5 34q173 0 277.5-52.5T1036 813q94 209 408 209 132 0 224.5-32.5t146-97.5 77-151 23.5-202q0-25-4-107h-785q3-172 82-247.5t277-75.5q201 0 385 63V25q-71-23-177.5-39.5T1481-31q-180 0-287.5 51.5T1036 178Q985 73 880.5 21T602-31Q455-31 352.5 3.5T191 107.5 106 271 80 496zm1044 69h615q0 166-66 245t-229 79q-173 0-245-79t-75-245zm-864-69q0-103 16-173t55-119 105.5-71T602 111q196 0 271 89t75 296q0 103-16.5 173t-56 119T769 859t-167 22-166.5-22-105-71T276 669.5 260 496z"/><glyph glyph-name="Racute" unicode="Ŕ" horiz-adv-x="1335" d="M915 1903l-266-322H516l232 322h167zm-784-469h545q148 0 251-29.5t161.5-87 84-132.5 25.5-175q0-86-22.5-153t-62-111.5T1015 671t-127-44.5T735 608q82-24 150.5-82.5T1055 350L1352 0h-224L786 408q-82 99-148 137.5T473 584H315V0H131v1434zm184-150V729h306q97 0 167 13t113.5 35.5T970 836t34.5 76.5 9.5 95.5q0 68-15.5 116.5t-53 85.5-105 55.5T674 1284H315z"/><glyph glyph-name="racute" unicode="ŕ" horiz-adv-x="743" d="M719 1518l-266-322H319l232 322h168zM133 991h123l14-293q30 316 355 316 11 0 86-6V842q-46 6-86 6-175 0-244.5-84.5T311 463V0H133v991z"/><glyph glyph-name="uni0156" unicode="Ŗ" horiz-adv-x="1335" d="M131 1434h545q148 0 251-29.5t161.5-87 84-132.5 25.5-175q0-86-22.5-153t-62-111.5T1015 671t-127-44.5T735 608q82-24 150.5-82.5T1055 350L1352 0h-224L786 408q-82 99-148 137.5T473 584H315V0H131v1434zm184-150V729h306q97 0 167 13t113.5 35.5T970 836t34.5 76.5 9.5 95.5q0 68-15.5 116.5t-53 85.5-105 55.5T674 1284H315zM592-143h160v-152l-66-139h-88l49 141h-55v150z"/><glyph glyph-name="uni0157" unicode="ŗ" horiz-adv-x="743" d="M133 991h123l14-293q30 316 355 316 11 0 86-6V842q-46 6-86 6-175 0-244.5-84.5T311 463V0H133v991zm12-1134h160v-152l-65-139h-88l49 141h-56v150z"/><glyph glyph-name="Rcaron" unicode="Ř" horiz-adv-x="1335" d="M279 1903h133l194-230 193 230h133l-242-322H520zm-148-469h545q148 0 251-29.5t161.5-87 84-132.5 25.5-175q0-86-22.5-153t-62-111.5T1015 671t-127-44.5T735 608q82-24 150.5-82.5T1055 350L1352 0h-224L786 408q-82 99-148 137.5T473 584H315V0H131v1434zm184-150V729h306q97 0 167 13t113.5 35.5T970 836t34.5 76.5 9.5 95.5q0 68-15.5 116.5t-53 85.5-105 55.5T674 1284H315z"/><glyph glyph-name="rcaron" unicode="ř" horiz-adv-x="743" d="M84 1518h133l195-230 192 230h133l-241-322H326zm49-527h123l14-293q30 316 355 316 11 0 86-6V842q-46 6-86 6-175 0-244.5-84.5T311 463V0H133v991z"/><glyph glyph-name="Sacute" unicode="Ś" horiz-adv-x="1251" d="M936 1903l-266-322H537l231 322h168zm164-658q-256 70-475 70-104 0-177-16t-113-46.5-57.5-67.5-17.5-85q0-37 6.5-63.5t29-57.5 64-56 115-52.5T653 817q159-38 263-82t163-101.5 82-122 23-153.5q0-90-30.5-159.5t-96.5-122-178.5-80T610-31Q484-31 335.5-9T86 47v156q277-86 524-86 112 0 189.5 16.5t120.5 49 61 73.5 18 96q0 56-13.5 93.5t-56 75.5-125 69.5T588 655q-123 30-213.5 66T227 796t-91 87.5T89 982t-13 112q0 368 555 368 253 0 469-59v-158z"/><glyph glyph-name="sacute" unicode="ś" horiz-adv-x="1005" d="M813 1518l-266-322H414l231 322h168zM512-29Q279-29 98 29v147q231-63 416-63 143 0 199.5 36T770 260q0 19-4 35t-8.5 28.5-17 23.5-21.5 18.5-31 15.5-35.5 12.5T607 405t-51 11-60 12q-65 13-107.5 23t-90 24.5-77 29.5-58 37.5T120 592t-24.5 63.5T86 737q0 69 21 119.5t69 88 130.5 56.5 201.5 19q152 0 366-33V840q-205 39-362 39-99 0-156-16.5T278.5 819 258 748q0-22 6-39.5t14-30.5 28-24.5 36-18.5 51-16 60-14l75-15q54-11 86.5-17.5t75-17 67-20T812 512t47.5-29 35-36 27-46 14.5-56 6-69q0-157-97.5-231T512-29z"/><glyph glyph-name="Scircumflex" unicode="Ŝ" horiz-adv-x="1251" d="M299 1581l242 322h170l241-322H819l-192 229-195-229H299zm801-336q-256 70-475 70-104 0-177-16t-113-46.5-57.5-67.5-17.5-85q0-37 6.5-63.5t29-57.5 64-56 115-52.5T653 817q159-38 263-82t163-101.5 82-122 23-153.5q0-90-30.5-159.5t-96.5-122-178.5-80T610-31Q484-31 335.5-9T86 47v156q277-86 524-86 112 0 189.5 16.5t120.5 49 61 73.5 18 96q0 56-13.5 93.5t-56 75.5-125 69.5T588 655q-123 30-213.5 66T227 796t-91 87.5T89 982t-13 112q0 368 555 368 253 0 469-59v-158z"/><glyph glyph-name="scircumflex" unicode="ŝ" horiz-adv-x="1005" d="M178 1196l242 322h170l241-322H698l-192 231-195-231H178zM512-29Q279-29 98 29v147q231-63 416-63 143 0 199.5 36T770 260q0 19-4 35t-8.5 28.5-17 23.5-21.5 18.5-31 15.5-35.5 12.5T607 405t-51 11-60 12q-65 13-107.5 23t-90 24.5-77 29.5-58 37.5T120 592t-24.5 63.5T86 737q0 69 21 119.5t69 88 130.5 56.5 201.5 19q152 0 366-33V840q-205 39-362 39-99 0-156-16.5T278.5 819 258 748q0-22 6-39.5t14-30.5 28-24.5 36-18.5 51-16 60-14l75-15q54-11 86.5-17.5t75-17 67-20T812 512t47.5-29 35-36 27-46 14.5-56 6-69q0-157-97.5-231T512-29z"/><glyph glyph-name="Scedilla" unicode="Ş" horiz-adv-x="1251" d="M1184 358q0-178-122.5-279T662-31l-56-86q18 2 64 2 71 0 111-35t40-96q0-157-207-157-96 0-186 34v84q82-26 152-26 116 0 116 63 0 64-96 64-57 0-84-6l-31 45 72 114Q436-26 306-5T86 47v156q277-86 524-86 112 0 189.5 16.5t120.5 49 61 73.5 18 96q0 56-13.5 93.5t-56 75.5-125 69.5T588 655q-123 30-213.5 66T227 796t-91 87.5T89 982t-13 112q0 368 555 368 253 0 469-59v-158q-256 70-475 70-104 0-177-16t-113-46.5-57.5-67.5-17.5-85q0-37 6.5-63.5t29-57.5 64-56 115-52.5T653 817q159-38 263-82t163-101.5 82-122 23-153.5z"/><glyph glyph-name="scedilla" unicode="ş" horiz-adv-x="1005" d="M942 276q0-152-91-226.5T541-29l-56-88q18 2 64 2 71 0 111-35t40-96q0-157-206-157-97 0-187 34v84q82-26 152-26 116 0 116 63 0 64-96 64-57 0-84-6l-30 45 73 118Q265-20 98 29v147q231-63 416-63 143 0 199.5 36T770 260q0 19-4 35t-8.5 28.5-17 23.5-21.5 18.5-31 15.5-35.5 12.5T607 405t-51 11-60 12q-65 13-107.5 23t-90 24.5-77 29.5-58 37.5T120 592t-24.5 63.5T86 737q0 69 21 119.5t69 88 130.5 56.5 201.5 19q152 0 366-33V840q-205 39-362 39-99 0-156-16.5T278.5 819 258 748q0-22 6-39.5t14-30.5 28-24.5 36-18.5 51-16 60-14l75-15q54-11 86.5-17.5t75-17 67-20T812 512t47.5-29 35-36 27-46 14.5-56 6-69z"/><glyph glyph-name="Scaron" unicode="Š" horiz-adv-x="1251" d="M299 1903h133l195-230 192 230h133l-241-322H541zm801-658q-256 70-475 70-104 0-177-16t-113-46.5-57.5-67.5-17.5-85q0-37 6.5-63.5t29-57.5 64-56 115-52.5T653 817q159-38 263-82t163-101.5 82-122 23-153.5q0-90-30.5-159.5t-96.5-122-178.5-80T610-31Q484-31 335.5-9T86 47v156q277-86 524-86 112 0 189.5 16.5t120.5 49 61 73.5 18 96q0 56-13.5 93.5t-56 75.5-125 69.5T588 655q-123 30-213.5 66T227 796t-91 87.5T89 982t-13 112q0 368 555 368 253 0 469-59v-158z"/><glyph glyph-name="scaron" unicode="š" horiz-adv-x="1005" d="M178 1518h133l195-230 192 230h133l-241-322H420zM512-29Q279-29 98 29v147q231-63 416-63 143 0 199.5 36T770 260q0 19-4 35t-8.5 28.5-17 23.5-21.5 18.5-31 15.5-35.5 12.5T607 405t-51 11-60 12q-65 13-107.5 23t-90 24.5-77 29.5-58 37.5T120 592t-24.5 63.5T86 737q0 69 21 119.5t69 88 130.5 56.5 201.5 19q152 0 366-33V840q-205 39-362 39-99 0-156-16.5T278.5 819 258 748q0-22 6-39.5t14-30.5 28-24.5 36-18.5 51-16 60-14l75-15q54-11 86.5-17.5t75-17 67-20T812 512t47.5-29 35-36 27-46 14.5-56 6-69q0-157-97.5-231T512-29z"/><glyph glyph-name="uni0162" unicode="Ţ" horiz-adv-x="1251" d="M717 0h-35l-74-117q18 2 64 2 71 0 111-35t40-96q0-157-207-157-96 0-186 34v84q82-26 152-26 116 0 116 63 0 64-96 64-57 0-84-6l-31 45L578 0h-43v1280H33v154h1186v-154H717V0z"/><glyph glyph-name="uni0163" unicode="ţ" horiz-adv-x="759" d="M705 848H365V313q0-103 36.5-142.5T549 131q63 0 131 14V6Q608-8 516-8h-8l-68-109q18 2 64 2 71 0 111-35t40-96q0-157-206-157-97 0-187 34v84q82-26 152-26 116 0 116 63 0 64-96 64-57 0-84-6l-31 45L410 0h2Q289 22 237.5 101.5T186 322v526H49v143h148l47 240h121V991h340V848z"/><glyph glyph-name="Tcaron" unicode="Ť" horiz-adv-x="1251" d="M711 1581H541l-242 322h133l195-230 192 230h133zm508-147v-154H717V0H535v1280H33v154h1186z"/><glyph glyph-name="tcaron" unicode="ť" horiz-adv-x="772" d="M672 1288l-60-153h-86v350h146v-197zm33-440H365V313q0-103 36.5-142.5T549 131q63 0 131 14V6Q608-8 516-8 333-8 259.5 73T186 322v526H49v143h148l47 240h121V991h340V848z"/><glyph glyph-name="Tbar" unicode="Ŧ" horiz-adv-x="1251" d="M1219 1280H717V756h237V637H717V0H535v637H297v119h238v524H33v154h1186v-154z"/><glyph glyph-name="tbar" unicode="ŧ" horiz-adv-x="759" d="M705 848H365V627h323V508H365V313q0-103 36.5-142.5T549 131q63 0 131 14V6Q608-8 516-8 333-8 259.5 73T186 322v186H51v119h135v221H49v143h148l47 240h121V991h340V848z"/><glyph glyph-name="Utilde" unicode="Ũ" horiz-adv-x="1454" d="M401 1593q1 136 45 198t138 62q42 0 83-20t101-64q51-39 77-53t50-14q42 0 59 29t23 110h100q-1-137-44.5-198.5T895 1581q-73 0-184 84-48 37-75 51.5t-50 14.5q-43 0-60.5-29T502 1593H401zm936-159V565q0-140-32-246.5T1203 132 1013.5 10.5 727-31q-168 0-287.5 41T250 131 148.5 317 117 565v869h184V567q0-225 97.5-335.5T727 121t328.5 110.5T1153 567v867h184z"/><glyph glyph-name="utilde" unicode="ũ" horiz-adv-x="1159" d="M238 1208q1 137 44.5 198.5T420 1468q43 0 85-20.5t99-63.5q51-38 77-51.5t50-13.5q41 0 58.5 29t23.5 108h100q-1-136-44.5-198T731 1196q-73 0-184 84-49 38-76 53t-49 15q-43 0-60.5-29T338 1208H238zM1038 0H915l-10 211q-8-42-32-81.5t-67-77T689-8 520-31q-226 0-318.5 98.5T109 362v629h178V373q0-137 59-197.5T563 115q84 0 143.5 20.5t92 59 47 86.5T860 391v600h178V0z"/><glyph glyph-name="Umacron" unicode="Ū" horiz-adv-x="1454" d="M424 1759h608v-119H424v119zm913-325V565q0-140-32-246.5T1203 132 1013.5 10.5 727-31q-168 0-287.5 41T250 131 148.5 317 117 565v869h184V567q0-225 97.5-335.5T727 121t328.5 110.5T1153 567v867h184z"/><glyph glyph-name="umacron" unicode="ū" horiz-adv-x="1159" d="M272 1378h609v-118H272v118zM1038 0H915l-10 211q-8-42-32-81.5t-67-77T689-8 520-31q-226 0-318.5 98.5T109 362v629h178V373q0-137 59-197.5T563 115q84 0 143.5 20.5t92 59 47 86.5T860 391v600h178V0z"/><glyph glyph-name="Ubreve" unicode="Ŭ" horiz-adv-x="1454" d="M440 1907h105q6-108 47.5-155.5T729 1704q94 0 135 47t47 156h105q0-167-70.5-247.5T729 1579q-148 0-218.5 80.5T440 1907zm897-473V565q0-140-32-246.5T1203 132 1013.5 10.5 727-31q-168 0-287.5 41T250 131 148.5 317 117 565v869h184V567q0-225 97.5-335.5T727 121t328.5 110.5T1153 567v867h184z"/><glyph glyph-name="ubreve" unicode="ŭ" horiz-adv-x="1159" d="M289 1522h104q6-108 48-155.5t137-47.5q94 0 135 47t47 156h104q0-167-70-247.5T578 1194q-148 0-218.5 80.5T289 1522zM1038 0H915l-10 211q-8-42-32-81.5t-67-77T689-8 520-31q-226 0-318.5 98.5T109 362v629h178V373q0-137 59-197.5T563 115q84 0 143.5 20.5t92 59 47 86.5T860 391v600h178V0z"/><glyph glyph-name="Uring" unicode="Ů" horiz-adv-x="1454" d="M735 1579q-114 0-172.5 52T504 1784q0 103 58.5 156t172.5 53q112 0 170-53t58-156q0-205-228-205zm0 92q64 0 90.5 26t26.5 87q0 62-26.5 88t-90.5 26q-66 0-93.5-26t-27.5-88q0-60 27.5-86.5T735 1671zm602-237V565q0-140-32-246.5T1203 132 1013.5 10.5 727-31q-168 0-287.5 41T250 131 148.5 317 117 565v869h184V567q0-225 97.5-335.5T727 121t328.5 110.5T1153 567v867h184z"/><glyph glyph-name="uring" unicode="ů" horiz-adv-x="1159" d="M578 1194q-114 0-173 52t-59 153q0 103 59 156t173 53q112 0 169.5-53t57.5-156q0-205-227-205zm0 92q64 0 90 26t26 87q0 62-26 88t-90 26q-66 0-93.5-26t-27.5-88q0-60 27.5-86.5T578 1286zM1038 0H915l-10 211q-8-42-32-81.5t-67-77T689-8 520-31q-226 0-318.5 98.5T109 362v629h178V373q0-137 59-197.5T563 115q84 0 143.5 20.5t92 59 47 86.5T860 391v600h178V0z"/><glyph glyph-name="Uhungarumlaut" unicode="Ű" horiz-adv-x="1454" d="M829 1903l-266-322H430l232 322h167zm371 0l-266-322H801l231 322h168zm137-469V565q0-140-32-246.5T1203 132 1013.5 10.5 727-31q-168 0-287.5 41T250 131 148.5 317 117 565v869h184V567q0-225 97.5-335.5T727 121t328.5 110.5T1153 567v867h184z"/><glyph glyph-name="uhungarumlaut" unicode="ű" horiz-adv-x="1159" d="M629 1518l-267-322H229l232 322h168zm370 0l-266-322H600l231 322h168zM1038 0H915l-10 211q-8-42-32-81.5t-67-77T689-8 520-31q-226 0-318.5 98.5T109 362v629h178V373q0-137 59-197.5T563 115q84 0 143.5 20.5t92 59 47 86.5T860 391v600h178V0z"/><glyph glyph-name="Uogonek" unicode="Ų" horiz-adv-x="1454" d="M1153 1434h184V565q0-129-27-229.5t-86-179-158.5-125T827-27Q692-150 692-240q0-35 20-53t54-18q50 0 90 16v-115q-67-24-123-24-81 0-125.5 41T563-279q0 134 133 248-159 4-272.5 46.5T244 138t-96.5 184.5T117 565v869h184V567q0-225 97.5-335.5T727 121t328.5 110.5T1153 567v867z"/><glyph glyph-name="uogonek" unicode="ų" horiz-adv-x="1159" d="M1038 0Q872-141 872-240q0-35 20-53t54-18q50 0 90 16v-115q-67-24-123-24-81 0-125.5 41T743-279q0 75 45.5 147T915 0l-10 211q-8-42-32-81.5t-67-77T689-8 520-31q-226 0-318.5 98.5T109 362v629h178V373q0-137 59-197.5T563 115q84 0 143.5 20.5t92 59 47 86.5T860 391v600h178V0z"/><glyph glyph-name="Wcircumflex" unicode="Ŵ" horiz-adv-x="1982" d="M666 1581l241 322h170l242-322h-133l-193 229-194-229H666zM4 1434h195L508 383q28-101 39-174 13 68 43 174l311 1051h186l312-1051q29-103 39-172 5 25 41 172l311 1051h188L1536 0h-193l-311 1051q-25 87-41 180-6-46-39-180L639 0H444z"/><glyph glyph-name="wcircumflex" unicode="ŵ" horiz-adv-x="1630" d="M489 1196l242 322h170l242-322h-133l-193 231-194-231H489zM14 991h191l213-665q28-104 47-201 30 135 51 201l207 665h188l209-665q15-47 49-201 19 85 50 201l213 665h184L1274 0h-201L815 829 559 0H356z"/><glyph glyph-name="Ycircumflex" unicode="Ŷ" horiz-adv-x="1320" d="M334 1581l241 322h170l242-322H854l-192 229-195-229H334zM565 0v575L6 1434h211l377-586q41-64 65-125 35 73 68 125l381 586h207L748 573V0H565z"/><glyph glyph-name="ycircumflex" unicode="ŷ" horiz-adv-x="1040" d="M195 1196l241 322h170l242-322H715l-193 231-194-231H195zM14 991h193l254-608q45-112 63-195 20 76 64 195l250 608h188L436-369H252L442 31z"/><glyph glyph-name="Ydieresis" unicode="Ÿ" horiz-adv-x="1320" d="M391 1841h156v-260H391v260zm385 0h156v-260H776v260zM565 0v575L6 1434h211l377-586q41-64 65-125 35 73 68 125l381 586h207L748 573V0H565z"/><glyph glyph-name="Zacute" unicode="Ź" horiz-adv-x="1284" d="M950 1903l-266-322H551l231 322h168zM94 1434h1100v-158L432 334q-81-101-162-182 114 4 244 4h709V0H61v160l764 940q70 84 162 182-114-4-242-4H94v156z"/><glyph glyph-name="zacute" unicode="ź" horiz-adv-x="993" d="M807 1518l-266-322H408l231 322h168zM80 164l506 565q22 24 63 65l56 56q-26 0-88-1t-91-1H98v143h793V827L383 260q-18-21-117-119h647V0H80v164z"/><glyph glyph-name="Zdotaccent" unicode="Ż" horiz-adv-x="1284" d="M565 1841h154v-260H565v260zM94 1434h1100v-158L432 334q-81-101-162-182 114 4 244 4h709V0H61v160l764 940q70 84 162 182-114-4-242-4H94v156z"/><glyph glyph-name="zdotaccent" unicode="ż" horiz-adv-x="993" d="M422 1456h153v-260H422v260zM80 164l506 565q22 24 63 65l56 56q-26 0-88-1t-91-1H98v143h793V827L383 260q-18-21-117-119h647V0H80v164z"/><glyph glyph-name="Zcaron" unicode="Ž" horiz-adv-x="1284" d="M315 1903h134l194-230 193 230h133l-242-322H557zM94 1434h1100v-158L432 334q-81-101-162-182 114 4 244 4h709V0H61v160l764 940q70 84 162 182-114-4-242-4H94v156z"/><glyph glyph-name="zcaron" unicode="ž" horiz-adv-x="993" d="M172 1518h133l195-230 192 230h133l-241-322H414zM80 164l506 565q22 24 63 65l56 56q-26 0-88-1t-91-1H98v143h793V827L383 260q-18-21-117-119h647V0H80v164z"/><glyph glyph-name="uni018F" unicode="Ə" horiz-adv-x="1470" d="M90 700q0 41 4 111h1104q-15 271-138.5 387.5T668 1315q-193 0-473-70v158q246 61 477 61 375 0 543.5-179T1384 717q0-185-35.5-321t-113-233.5-205-145.5T723-31Q579-31 471 .5t-180.5 90-117.5 150-64 203T90 700zm180-43q2-144 25.5-242.5t76-167.5T510 146.5 723 115q250 0 359.5 129T1198 657H270z"/><glyph glyph-name="uni0218" unicode="Ș" horiz-adv-x="1251" d="M1100 1245q-256 70-475 70-104 0-177-16t-113-46.5-57.5-67.5-17.5-85q0-37 6.5-63.5t29-57.5 64-56 115-52.5T653 817q159-38 263-82t163-101.5 82-122 23-153.5q0-90-30.5-159.5t-96.5-122-178.5-80T610-31Q484-31 335.5-9T86 47v156q277-86 524-86 112 0 189.5 16.5t120.5 49 61 73.5 18 96q0 56-13.5 93.5t-56 75.5-125 69.5T588 655q-123 30-213.5 66T227 796t-91 87.5T89 982t-13 112q0 368 555 368 253 0 469-59v-158zM547-143h160v-152l-66-139h-88l49 141h-55v150z"/><glyph glyph-name="uni0219" unicode="ș" horiz-adv-x="1005" d="M512-29Q279-29 98 29v147q231-63 416-63 143 0 199.5 36T770 260q0 19-4 35t-8.5 28.5-17 23.5-21.5 18.5-31 15.5-35.5 12.5T607 405t-51 11-60 12q-65 13-107.5 23t-90 24.5-77 29.5-58 37.5T120 592t-24.5 63.5T86 737q0 69 21 119.5t69 88 130.5 56.5 201.5 19q152 0 366-33V840q-205 39-362 39-99 0-156-16.5T278.5 819 258 748q0-22 6-39.5t14-30.5 28-24.5 36-18.5 51-16 60-14l75-15q54-11 86.5-17.5t75-17 67-20T812 512t47.5-29 35-36 27-46 14.5-56 6-69q0-157-97.5-231T512-29zm-84-114h160v-152l-66-139h-88l49 141h-55v150z"/><glyph glyph-name="uni021A" unicode="Ț" horiz-adv-x="1251" d="M1219 1434v-154H717V0H535v1280H33v154h1186zM551-293v150h160v-152l-66-139h-88l49 141h-55z"/><glyph glyph-name="uni021B" unicode="ț" horiz-adv-x="759" d="M705 848H365V313q0-103 36.5-142.5T549 131q63 0 131 14V6Q608-8 516-8 333-8 259.5 73T186 322v526H49v143h148l47 240h121V991h340V848zM383-293v150h160v-152l-66-139h-88l49 141h-55z"/><glyph glyph-name="uni0237" unicode="ȷ" horiz-adv-x="419" d="M299-72q0-165-71-246t-242-81q-102 0-144 10v137q81-6 107-6 101 0 136.5 39T121-80V991h178V-72z"/><glyph glyph-name="uni0259" unicode="ə" horiz-adv-x="1122" d="M123 965q69 24 176 40.5t213 16.5q154 0 258-32.5t164-101 85-162.5 25-230q0-131-24.5-225T939 107.5 786 3.5 549-31Q418-31 325.5 2t-146 97.5-77.5 150T78 451q0 28 4 106h784q-3 173-81.5 248.5T508 881q-193 0-385-62v146zm426-863q173 0 244.5 79T868 426H254q0-166 66-245t229-79z"/><glyph glyph-name="circumflex" unicode="ˆ" horiz-adv-x="735" d="M41 1196l242 322h170l241-322H561l-192 231-195-231H41z"/><glyph glyph-name="caron" unicode="ˇ" horiz-adv-x="735" d="M41 1518h133l195-230 192 230h133l-241-322H283z"/><glyph glyph-name="breve" unicode="˘" horiz-adv-x="657" d="M41 1522h104q6-108 48-155.5t137-47.5q94 0 135 47t47 156h104q0-167-70-247.5T330 1194q-148 0-218.5 80.5T41 1522z"/><glyph glyph-name="dotaccent" unicode="˙" horiz-adv-x="235" d="M41 1456h154v-260H41v260z"/><glyph glyph-name="ring" unicode="˚" horiz-adv-x="540" d="M272 1194q-114 0-172.5 52T41 1399q0 103 58.5 156t172.5 53q112 0 170-53t58-156q0-205-228-205zm0 92q64 0 90.5 26t26.5 87q0 62-26.5 88t-90.5 26q-66 0-93-26t-27-88q0-61 27.5-87t92.5-26z"/><glyph glyph-name="ogonek" unicode="˛" horiz-adv-x="376" d="M334-410q-67-24-123-24-81 0-125.5 41T41-279q0 75 45.5 147T213 0h123Q170-141 170-240q0-35 20-53t54-18q50 0 90 16v-115z"/><glyph glyph-name="tilde" unicode="˜" horiz-adv-x="757" d="M41 1208q1 137 44.5 198.5T223 1468q43 0 85.5-20.5T408 1384q51-38 77-51.5t50-13.5q41 0 58 28.5t23 108.5h101q-1-136-44.5-198T535 1196q-74 0-185 84-49 38-76 53t-49 15q-43 0-60.5-29T141 1208H41z"/><glyph glyph-name="hungarumlaut" unicode="˝" horiz-adv-x="851" d="M440 1518l-266-322H41l231 322h168zm371 0l-266-322H412l231 322h168z"/><glyph glyph-name="gravecomb" unicode="̀" d="M-440 1518h168l231-322h-133z"/><glyph glyph-name="acutecomb" unicode="́" d="M-41 1518l-266-322h-133l231 322h168z"/><glyph glyph-name="uni0302" unicode="̂" d="M-694 1196l241 322h170l242-322h-133l-193 231-194-231h-133z"/><glyph glyph-name="tildecomb" unicode="̃" d="M-717 1208q1 137 44.5 198.5T-535 1468q43 0 85.5-20.5t99.5-63.5q51-38 77-51.5t50-13.5q41 0 58.5 29t23.5 108h100q-1-136-44.5-198t-137.5-62q-74 0-185 84-50 39-76 53.5t-48 14.5q-43 0-60.5-29t-23.5-111h-101z"/><glyph glyph-name="uni0304" unicode="̄" d="M-649 1378h608v-118h-608v118z"/><glyph glyph-name="uni0306" unicode="̆" d="M-616 1522h104q6-108 47.5-155.5T-328 1319q94 0 135.5 47t47.5 156h104q0-167-70.5-247.5T-328 1194q-148 0-218 80t-70 248z"/><glyph glyph-name="uni0307" unicode="̇" d="M-195 1456h154v-260h-154v260z"/><glyph glyph-name="uni0308" unicode="̈" d="M-582 1456h156v-260h-156v260zm385 0h156v-260h-156v260z"/><glyph glyph-name="uni030A" unicode="̊" d="M-268 1194q-114 0-173 52t-59 153q0 103 59 156t173 53q112 0 169.5-53t57.5-156q0-205-227-205zm0 92q64 0 90 26t26 87q0 62-26 88t-90 26q-66 0-93.5-26t-27.5-88q0-60 27.5-86.5t93.5-26.5z"/><glyph glyph-name="uni030B" unicode="̋" d="M-412 1518l-266-322h-133l231 322h168zm371 0l-266-322h-133l231 322h168z"/><glyph glyph-name="uni030C" unicode="̌" d="M-694 1518h133l194-230 193 230h133l-242-322h-170z"/><glyph glyph-name="uni0312" unicode="̒" d="M-45 1196h-150v180l66 148h88l-49-150h45v-178z"/><glyph glyph-name="uni0326" unicode="̦" d="M-201-143h160v-152l-65-139h-89l50 141h-56v150z"/><glyph glyph-name="uni0327" unicode="̧" d="M-182 0l-74-117q18 2 63 2 71 0 111.5-35t40.5-96q0-157-207-157-96 0-186 34v84q82-26 151-26 117 0 117 63 0 64-96 64-57 0-84-6l-31 45 90 145h105z"/><glyph glyph-name="uni0328" unicode="̨" d="M-43-410q-67-24-123-24-81 0-125.5 41T-336-279q0 75 45.5 147T-164 0h123q-166-141-166-240 0-35 20-53t54-18q50 0 90 16v-115z"/><glyph glyph-name="Wgrave" unicode="Ẁ" horiz-adv-x="1982" d="M676 1903h168l231-322H942zM4 1434h195L508 383q28-101 39-174 13 68 43 174l311 1051h186l312-1051q29-103 39-172 5 25 41 172l311 1051h188L1536 0h-193l-311 1051q-25 87-41 180-6-46-39-180L639 0H444z"/><glyph glyph-name="wgrave" unicode="ẁ" horiz-adv-x="1630" d="M489 1518h168l232-322H756zM14 991h191l213-665q28-104 47-201 30 135 51 201l207 665h188l209-665q15-47 49-201 19 85 50 201l213 665h184L1274 0h-201L815 829 559 0H356z"/><glyph glyph-name="Wacute" unicode="Ẃ" horiz-adv-x="1982" d="M1300 1903l-266-322H901l232 322h167zM4 1434h195L508 383q28-101 39-174 13 68 43 174l311 1051h186l312-1051q29-103 39-172 5 25 41 172l311 1051h188L1536 0h-193l-311 1051q-25 87-41 180-6-46-39-180L639 0H444z"/><glyph glyph-name="wacute" unicode="ẃ" horiz-adv-x="1630" d="M1124 1518l-266-322H725l231 322h168zM14 991h191l213-665q28-104 47-201 30 135 51 201l207 665h188l209-665q15-47 49-201 19 85 50 201l213 665h184L1274 0h-201L815 829 559 0H356z"/><glyph glyph-name="Wdieresis" unicode="Ẅ" horiz-adv-x="1982" d="M721 1841h156v-260H721v260zm385 0h156v-260h-156v260zM4 1434h195L508 383q28-101 39-174 13 68 43 174l311 1051h186l312-1051q29-103 39-172 5 25 41 172l311 1051h188L1536 0h-193l-311 1051q-25 87-41 180-6-46-39-180L639 0H444z"/><glyph glyph-name="wdieresis" unicode="ẅ" horiz-adv-x="1630" d="M545 1456h155v-260H545v260zm385 0h155v-260H930v260zM14 991h191l213-665q28-104 47-201 30 135 51 201l207 665h188l209-665q15-47 49-201 19 85 50 201l213 665h184L1274 0h-201L815 829 559 0H356z"/><glyph glyph-name="uni1E9E" unicode="ẞ" horiz-adv-x="1460" d="M131 0v905q0 284 142 420.5T700 1462q284 0 517-80v-139L915 786q451-65 451-419 0-192-133.5-295T848-31q-187 0-342 58v155q183-65 352-65 158 0 241 61.5t83 183.5q0 132-104 201.5T729 664v124l313 480q-155 47-342 47-194 0-289.5-99.5T315 905V0H131z"/><glyph glyph-name="Ygrave" unicode="Ỳ" horiz-adv-x="1320" d="M346 1903h168l231-322H612zM565 0v575L6 1434h211l377-586q41-64 65-125 35 73 68 125l381 586h207L748 573V0H565z"/><glyph glyph-name="ygrave" unicode="ỳ" horiz-adv-x="1040" d="M195 1518h167l232-322H461zM14 991h193l254-608q45-112 63-195 20 76 64 195l250 608h188L436-369H252L442 31z"/><glyph glyph-name="uni2008" horiz-adv-x="456"/><glyph glyph-name="uni2009" horiz-adv-x="114"/><glyph glyph-name="uni200B" unicode="​"/><glyph glyph-name="uni2060" unicode="⁠"/><glyph glyph-name="uniFEFF"/><glyph glyph-name="NULL"/><glyph glyph-name="CR" horiz-adv-x="460"/><glyph glyph-name="uni0308.case" d="M-582 1841h156v-260h-156v260zm385 0h156v-260h-156v260z"/><glyph glyph-name="uni0307.case" d="M-195 1841h154v-260h-154v260z"/><glyph glyph-name="gravecomb.case" d="M-440 1903h168l231-322h-133z"/><glyph glyph-name="acutecomb.case" d="M-41 1903l-266-322h-133l231 322h168z"/><glyph glyph-name="uni030B.case" d="M-412 1903l-266-322h-133l231 322h168zm371 0l-266-322h-133l231 322h168z"/><glyph glyph-name="uni0302.case" d="M-694 1581l241 322h170l242-322h-133l-193 229-194-229h-133z"/><glyph glyph-name="uni030C.case" d="M-694 1903h133l194-230 193 230h133l-242-322h-170z"/><glyph glyph-name="uni0306.case" d="M-616 1907h104q6-108 47.5-155.5T-328 1704q94 0 135.5 47t47.5 156h104q0-167-70.5-247.5T-328 1579q-148 0-218 80t-70 248z"/><glyph glyph-name="uni030A.case" d="M-268 1579q-114 0-173 52t-59 153q0 103 59 156t173 53q112 0 169.5-53t57.5-156q0-205-227-205zm0 92q64 0 90 26t26 87q0 62-26 88t-90 26q-66 0-93.5-26t-27.5-88q0-60 27.5-86.5t93.5-26.5z"/><glyph glyph-name="tildecomb.case" d="M-717 1593q1 136 44.5 198t137.5 62q42 0 84-20.5t101-63.5q51-39 77-53t50-14q42 0 59 29t23 110h100q-1-137-44.5-198.5T-223 1581q-74 0-185 84-48 37-74.5 51.5T-532 1731q-43 0-60.5-29t-23.5-109h-101z"/><glyph glyph-name="uni0304.case" d="M-649 1759h608v-119h-608v119z"/></font>
</defs>
</svg>
