<?xml version="1.0" encoding="UTF-8"?>
<svg xmlns="http://www.w3.org/2000/svg" width="114" height="114" viewBox="0 0 114 114" fill="none">
  <g clip-path="url(#clip0_706_3142)">
    <path d="M102.661 15.2115C93.731 5.46633 79.0367 0.730469 57.7307 0.730469C36.4248 0.730469 21.7304 5.46633 12.8001 15.2115C4.56426 24.1965 0.730713 37.7096 0.730713 57.7305C0.730713 77.7513 4.56426 91.2644 12.8001 100.249C21.7304 109.995 36.4302 114.73 57.7307 114.73C79.0312 114.73 93.7255 109.995 102.661 100.249C110.897 91.2644 114.731 77.7513 114.731 57.7305C114.731 37.7096 110.897 24.1965 102.661 15.2115ZM57.7307 112.86C18.061 112.86 2.60646 97.4057 2.60646 57.7359C2.60646 18.0662 18.061 2.61169 57.7307 2.61169C97.4005 2.61169 112.855 18.0662 112.855 57.7359C112.855 97.4057 97.4005 112.86 57.7307 112.86Z" fill="#F3F0EC"></path>
    <path d="M58.803 22.8164C55.6202 22.8164 53.0281 25.4086 53.0281 28.5913C53.0281 31.7741 55.6202 34.3662 58.803 34.3662C61.9858 34.3662 64.5779 31.7741 64.5779 28.5913C64.5779 25.4086 61.9858 22.8164 58.803 22.8164ZM58.803 32.496C56.6538 32.496 54.9038 30.746 54.9038 28.5968C54.9038 26.4476 56.6538 24.6976 58.803 24.6976C60.9522 24.6976 62.7022 26.4476 62.7022 28.5968C62.7022 30.746 60.9522 32.496 58.803 32.496Z" fill="#F3F0EC"></path>
    <path d="M97.5212 82.05V79.5399C97.5212 78.0087 96.2743 76.7618 94.7431 76.7618H92.0197V46.5802C93.9283 46.2576 95.3884 44.6006 95.3884 42.6045V42.0686H96.1704C96.69 42.0686 97.1056 41.6475 97.1056 41.1334V35.2054C97.1056 34.8554 96.9087 34.5327 96.597 34.3741L59.0764 15.0479C58.8084 14.9111 58.4858 14.9111 58.2178 15.0479L20.6972 34.3741C20.3855 34.5327 20.1887 34.8554 20.1887 35.2054V41.1334C20.1887 41.653 20.6097 42.0686 21.1238 42.0686H21.9058V42.6045C21.9058 44.6006 23.366 46.2576 25.2745 46.5802V76.7618H22.8574C21.3261 76.7618 20.0793 78.0087 20.0793 79.5399V82.05C17.5801 82.1211 15.5676 84.1664 15.5676 86.682V89.564C15.5676 90.0835 15.9887 90.4992 16.5028 90.4992H101.092C101.612 90.4992 102.027 90.0781 102.027 89.564V86.682C102.027 84.1664 100.015 82.1211 97.5103 82.05H97.5212ZM80.8964 76.7564V46.6404H90.1494V76.7564H80.8964ZM38.279 46.5747C40.1876 46.2521 41.6477 44.5951 41.6477 42.599V42.0631H48.7844V42.599C48.7844 44.5951 50.2445 46.2521 52.1531 46.5747V76.7564H38.2845V46.5747H38.279ZM64.474 44.7701H52.8312C51.6335 44.7701 50.6601 43.7967 50.6601 42.599V42.0631H66.6451V42.599C66.6451 43.7967 65.6716 44.7701 64.474 44.7701ZM54.0234 46.6458H63.2764V76.7618H54.0234V46.6458ZM65.1521 46.5747C67.0607 46.2521 68.5208 44.5951 68.5208 42.599V42.0631H75.6574V42.599C75.6574 44.5951 77.1176 46.2521 79.0261 46.5747V76.7564H65.1576V46.5747H65.1521ZM93.5127 42.599C93.5127 43.7967 92.5392 44.7701 91.3416 44.7701H79.6988C78.5011 44.7701 77.5277 43.7967 77.5277 42.599V42.0631H93.5127V42.599ZM22.0699 35.7687L58.6499 16.9291L95.2353 35.7687V40.1873H22.0699V35.7687ZM23.787 42.599V42.0631H39.772V42.599C39.772 43.7967 38.7986 44.7701 37.6009 44.7701H25.9581C24.7605 44.7701 23.787 43.7967 23.787 42.599ZM27.1558 46.6458H36.4087V76.7618H27.1558V46.6458ZM22.8628 78.6321H94.7431C95.2408 78.6321 95.6454 79.0368 95.6454 79.5345V82.0337H21.9605V79.5345C21.9605 79.0368 22.3652 78.6321 22.8628 78.6321ZM100.163 88.6234H17.4489V86.6766C17.4489 85.1508 18.6902 83.9094 20.216 83.9094H20.7082C20.8066 83.9477 20.916 83.975 21.0308 83.975C21.1457 83.975 21.2496 83.9477 21.348 83.9094H96.2689C96.3673 83.9477 96.4767 83.975 96.5861 83.975C96.6954 83.975 96.8048 83.9477 96.9087 83.9094H97.4009C98.9267 83.9094 100.168 85.1508 100.168 86.6766V88.6234H100.163Z" fill="#F3F0EC"></path>
  </g>
  <defs>
    <clipPath id="clip0_706_3142">
      <rect width="114" height="114" fill="white"></rect>
    </clipPath>
  </defs>
</svg>
