<?xml version="1.0" encoding="UTF-8"?>
<svg xmlns="http://www.w3.org/2000/svg" width="303" height="303" viewBox="0 0 303 303" fill="none">
  <path d="M151.979 158.602H165.192L158.591 142.836L151.979 158.602Z" fill="#F3F0EC"></path>
  <path d="M199.976 124.595H219.402L229.464 137.918L286.935 61.8086C266.88 20.902 225.794 0 151.51 0C34.7138 0 0 51.6568 0 151.51C0 237.362 25.6589 287.593 107.113 299.978L219.751 150.792L199.986 124.605L199.976 124.595ZM112.668 178.385H96.4227V150.652L79.8486 173.26L63.2746 150.652V178.385H47.0296V124.375H61.2502L79.8586 149.785L98.467 124.375H112.688V178.385H112.668ZM173.569 178.595L170.517 171.315H146.643L143.592 178.595H126.051L151.071 124.585H166.08L191.1 178.595H173.559H173.569Z" fill="#F3F0EC"></path>
  <path d="M290.565 69.9865L249.329 124.595H260.129L239.765 151.57L260.179 178.605H240.753L230.052 164.435L219.352 178.605H208.542L116.008 301.146C126.888 302.382 138.696 303.001 151.49 303.001C268.286 303.001 303 251.344 303 151.491C303 119.26 299.38 92.0554 290.555 69.9766L290.565 69.9865Z" fill="#F3F0EC"></path>
</svg>
