<?xml version="1.0" encoding="UTF-8"?>
<svg xmlns="http://www.w3.org/2000/svg" width="90" height="90" viewBox="0 0 90 90" fill="none">
  <g clip-path="url(#clip0_379_1987)">
    <path fill-rule="evenodd" clip-rule="evenodd" d="M45 90C79.6816 90 90 74.6555 90 45C90 15.3445 79.6816 0 45 0C10.3184 0 0 15.3445 0 45C0 74.6555 10.3184 90 45 90Z" fill="#CC7510"></path>
    <path d="M75.1581 36.8594C74.1003 35.0817 72.6458 34.0617 70.9465 33.916C68.1698 33.678 64.8446 35.7957 61.064 40.2059C60.7652 40.5556 60.8093 41.0801 61.1619 41.3813C61.5145 41.6776 62.0434 41.6387 62.347 41.2842C66.588 36.33 69.2863 35.446 70.8045 35.5771C71.9553 35.6743 72.9347 36.3931 73.7134 37.7045C74.2276 38.5691 74.5606 39.555 74.6977 40.6382C77.3912 61.2855 62.8368 74.8852 59.776 77.4934C49.8935 67.6579 55.3392 52.8973 55.3979 52.7468C55.5595 52.3145 55.3441 51.8336 54.9082 51.6734C54.4772 51.5082 53.9924 51.7268 53.8259 52.1591C53.7721 52.2951 49.5801 63.6266 54.7907 73.5349C54.1589 74.6715 51.583 78.4017 44.9277 78.4017C38.2725 78.4017 35.6916 74.6666 35.0648 73.5349C40.2754 63.6266 36.0785 52.2951 36.0295 52.1591C35.863 51.7268 35.3831 51.5131 34.9473 51.6734C34.5114 51.8336 34.2959 52.3194 34.4575 52.7468C34.5163 52.8973 39.9816 67.6385 30.0795 77.4934C27.0187 74.8852 12.4643 61.2855 15.1577 40.6382C15.2997 39.555 15.6328 38.5691 16.1421 37.7045C16.9207 36.3931 17.9001 35.6743 19.051 35.5771C20.5642 35.446 23.2675 36.33 27.5084 41.2842C27.8072 41.6339 28.3361 41.6776 28.6936 41.3813C29.0462 41.085 29.0902 40.5556 28.7915 40.2059C25.0109 35.7957 21.6857 33.678 18.909 33.916C17.2096 34.0617 15.7552 35.0768 14.6974 36.8594C14.0705 37.9182 13.6641 39.1179 13.4927 40.4244C10.3781 64.326 29.4183 79.1254 29.6142 79.2711C29.766 79.3877 29.9472 79.4411 30.1235 79.4411C30.3292 79.4411 30.5349 79.3634 30.6965 79.2177C32.0824 77.9354 33.2088 76.5657 34.1196 75.1523C35.4174 76.9737 38.5516 80.0628 44.9228 80.0628C51.2941 80.0628 54.4332 76.9737 55.726 75.1523C56.6418 76.5657 57.7633 77.9354 59.1492 79.2177C59.3108 79.3683 59.5164 79.4411 59.7221 79.4411C59.9033 79.4411 60.0796 79.3828 60.2314 79.2711C60.4224 79.1254 79.4676 64.326 76.353 40.4244C76.1816 39.1179 75.78 37.9182 75.1483 36.8594H75.1581Z" fill="#F3F0EC"></path>
    <path d="M34.7562 26.7764C32.6749 26.7764 30.9805 28.4569 30.9805 30.5211C30.9805 32.5854 32.6749 34.2659 34.7562 34.2659C36.8375 34.2659 38.5319 32.5854 38.5319 30.5211C38.5319 28.4569 36.8375 26.7764 34.7562 26.7764ZM34.7562 32.6048C33.5956 32.6048 32.6553 31.6674 32.6553 30.5211C32.6553 29.3749 33.6005 28.4375 34.7562 28.4375C35.9119 28.4375 36.8571 29.3749 36.8571 30.5211C36.8571 31.6674 35.9119 32.6048 34.7562 32.6048Z" fill="#F3F0EC"></path>
    <path d="M54.9984 26.7375C52.9171 26.7375 51.2227 28.4181 51.2227 30.4823C51.2227 32.5466 52.9171 34.2271 54.9984 34.2271C57.0797 34.2271 58.7741 32.5466 58.7741 30.4823C58.7741 28.4181 57.0797 26.7375 54.9984 26.7375ZM54.9984 32.566C53.8378 32.566 52.8975 31.6286 52.8975 30.4823C52.8975 29.3361 53.8427 28.3987 54.9984 28.3987C56.1541 28.3987 57.0993 29.3361 57.0993 30.4823C57.0993 31.6286 56.1541 32.566 54.9984 32.566Z" fill="#F3F0EC"></path>
    <path d="M28.9215 25.2269C27.6286 26.6257 26.8352 28.4811 26.8352 30.521C26.8352 34.8535 30.3857 38.3749 34.754 38.3749C36.0518 38.3749 37.2712 38.0592 38.3534 37.5103C38.6815 38.7635 39.519 41.1046 41.5219 43.1834C42.3838 44.0771 43.6081 44.5919 44.8814 44.5919C46.1547 44.5919 47.379 44.0771 48.2409 43.1834C50.2438 41.1046 51.0812 38.7635 51.4093 37.5103C52.4916 38.0592 53.711 38.3749 55.0088 38.3749C59.3771 38.3749 62.9275 34.8535 62.9275 30.521C62.9275 28.4908 62.144 26.65 60.8658 25.2512C62.4525 24.1292 66.5221 20.7487 68.0059 14.6968C68.2851 13.5505 67.8982 12.3606 66.9873 11.5931C66.0568 10.8063 64.7787 10.612 63.6572 11.0783C60.5671 12.3654 52.5602 15.3622 44.9157 15.3622C37.2712 15.3622 29.2642 12.3654 26.1741 11.0783C25.0478 10.612 23.7745 10.8063 22.844 11.5931C21.9332 12.3606 21.5414 13.5505 21.8254 14.6968C23.2995 20.7001 27.3103 24.0758 28.9263 25.2269H28.9215ZM28.5101 30.521C28.5101 27.1065 31.3113 24.3283 34.754 24.3283C38.1967 24.3283 40.9979 27.1065 40.9979 30.521C40.9979 33.9356 38.1967 36.7138 34.754 36.7138C31.3113 36.7138 28.5101 33.9356 28.5101 30.521ZM55.0088 36.7138C51.566 36.7138 48.7649 33.9356 48.7649 30.521C48.7649 27.1065 51.566 24.3283 55.0088 24.3283C58.4515 24.3283 61.2527 27.1065 61.2527 30.521C61.2527 33.9356 58.4515 36.7138 55.0088 36.7138ZM23.9263 12.8608C24.3818 12.4771 24.9743 12.3848 25.5228 12.6131C28.706 13.9391 36.9626 17.0233 44.9108 17.0233C52.8589 17.0233 61.1156 13.9391 64.2987 12.6131C64.8472 12.3848 65.4398 12.4771 65.8952 12.8608C66.3262 13.2251 66.5074 13.7691 66.3751 14.3082C64.906 20.3067 60.5377 23.4783 59.573 24.1195C58.2801 23.2112 56.7081 22.6721 55.0088 22.6721C50.6405 22.6721 47.09 26.1934 47.09 30.5259C47.09 32.935 48.1919 35.0915 49.9206 36.5341C49.7982 37.1801 49.1762 39.8175 47.0361 42.042C46.4779 42.62 45.7139 42.9405 44.8863 42.9405C44.0587 42.9405 43.2947 42.62 42.7364 42.042C40.5915 39.8175 39.9744 37.1752 39.852 36.5341C41.5807 35.0915 42.6777 32.935 42.6777 30.5259C42.6777 26.1934 39.1272 22.6721 34.7589 22.6721C33.0694 22.6721 31.5072 23.2015 30.2241 24.1C29.181 23.4006 24.9058 20.229 23.4562 14.3131C23.324 13.7739 23.5003 13.23 23.9361 12.8657L23.9263 12.8608Z" fill="#F3F0EC"></path>
    <path d="M71.782 34.2564C65.7388 33.3335 61.395 39.876 61.2138 40.1528C60.9641 40.5365 61.0718 41.0514 61.4636 41.2991C61.8505 41.5468 62.3696 41.4399 62.6193 41.0562C62.6585 40.9979 66.5616 35.1403 71.5273 35.898C72.4431 36.0389 73.2217 36.6509 73.8437 37.7292C76.1845 41.7702 75.8026 51.1006 73.021 58.0996C69.4803 66.9977 63.8975 74.1327 59.9357 77.3238C54.0101 70.6259 52.7368 63.5589 55.3813 52.3974C55.489 51.9506 55.2099 51.5037 54.7593 51.3969C54.3088 51.29 53.8583 51.5669 53.7554 52.0137C51.6349 60.9701 51.9973 67.6097 55.1462 73.4236C51.3313 78.2661 45.9542 78.4215 44.8719 78.4021C43.8141 78.4264 38.4419 78.2661 34.6319 73.4236C37.7808 67.6049 38.1432 60.9653 36.0227 52.0137C35.915 51.5669 35.4644 51.29 35.0188 51.3969C34.5682 51.5037 34.2891 51.9506 34.3968 52.3974C37.0413 63.5541 35.7681 70.6211 29.8425 77.3238C25.8806 74.1327 20.2978 66.9977 16.7572 58.0996C13.9707 51.0958 13.5936 41.7654 15.9344 37.7292C16.5564 36.6557 17.335 36.0389 18.2508 35.898C23.2117 35.1403 27.1196 40.9979 27.1588 41.0562C27.4134 41.4399 27.9276 41.5516 28.3145 41.2991C28.7014 41.0514 28.814 40.5365 28.5643 40.1528C28.3831 39.876 24.0393 33.3335 17.9962 34.2564C16.5711 34.4749 15.3566 35.388 14.48 36.9034C11.8796 41.3962 12.2028 51.1783 15.1999 58.7116C19.0441 68.3723 25.2783 76.0658 29.4458 79.1209C29.5927 79.2326 29.769 79.2861 29.9453 79.2861C30.1706 79.2861 30.3958 79.1938 30.5623 79.0189C31.7915 77.6929 32.8395 76.3524 33.7308 74.9681C37.7073 79.6163 42.8543 80.0778 44.6711 80.0778C44.7446 80.0778 44.8181 80.0778 44.8817 80.0778C46.5076 80.1118 51.9239 79.8106 56.0669 74.9681C56.9533 76.3524 58.0062 77.6978 59.2354 79.0238C59.4019 79.1986 59.6272 79.2909 59.8524 79.2909C60.0238 79.2909 60.2001 79.2375 60.3519 79.1258C64.5194 76.0707 70.7536 68.3771 74.5979 58.7164C77.5949 51.1832 77.9181 41.4011 75.3177 36.9083C74.4411 35.3929 73.2266 34.4798 71.8016 34.2612L71.782 34.2564Z" fill="#F3F0EC"></path>
  </g>
  <defs>
    <clipPath id="clip0_379_1987">
      <rect width="90" height="90" fill="white"></rect>
    </clipPath>
  </defs>
</svg>
