<?xml version="1.0" encoding="UTF-8"?>
<svg xmlns="http://www.w3.org/2000/svg" width="90" height="90" viewBox="0 0 90 90" fill="none">
  <g clip-path="url(#clip0_1254_180169)">
    <path d="M81.0482 12.0105C73.9979 4.31696 62.3928 0.578125 45.5767 0.578125C28.7605 0.578125 17.1554 4.31696 10.1051 12.0105C3.60313 19.104 0.57666 29.7722 0.57666 45.5781C0.57666 61.384 3.60313 72.0523 10.1051 79.1457C17.1554 86.8393 28.7605 90.5781 45.5767 90.5781C62.3928 90.5781 73.9979 86.8393 81.0482 79.1457C87.5502 72.0523 90.5767 61.384 90.5767 45.5781C90.5767 29.7722 87.5502 19.104 81.0482 12.0105ZM45.5767 89.1016C14.2584 89.1016 2.05752 76.9007 2.05752 45.5824C2.05752 14.2642 14.2584 2.0633 45.5767 2.0633C76.8949 2.0633 89.0958 14.2642 89.0958 45.5824C89.0958 76.9007 76.8949 89.1016 45.5767 89.1016Z" fill="#2F3034"></path>
    <path d="M72.2587 38.7652C71.3261 37.185 70.0439 36.2784 68.5458 36.1488C66.0978 35.9373 63.1663 37.8197 59.8333 41.7399C59.5699 42.0507 59.6088 42.517 59.9196 42.7847C60.2305 43.048 60.6968 43.0135 60.9644 42.6983C64.7033 38.2946 67.0822 37.5088 68.4205 37.6254C69.4351 37.7118 70.2986 38.3507 70.9851 39.5164C71.4384 40.2849 71.732 41.1613 71.8529 42.1241C74.2274 60.4773 61.3962 72.5659 58.6978 74.8844C49.9854 66.1417 54.7863 53.0212 54.8381 52.8873C54.9806 52.5031 54.7906 52.0756 54.4063 51.9332C54.0264 51.7864 53.599 51.9807 53.4522 52.3649C53.4047 52.4858 49.709 62.5582 54.3027 71.3657C53.7458 72.376 51.4748 75.6917 45.6075 75.6917C39.7402 75.6917 37.465 72.3716 36.9123 71.3657C41.506 62.5582 37.806 52.4858 37.7629 52.3649C37.6161 51.9807 37.193 51.7907 36.8087 51.9332C36.4245 52.0756 36.2345 52.5074 36.377 52.8873C36.4288 53.0212 41.247 66.1244 32.5173 74.8844C29.8189 72.5659 16.9877 60.4773 19.3622 42.1241C19.4874 41.1613 19.781 40.2849 20.23 39.5164C20.9165 38.3507 21.7799 37.7118 22.7945 37.6254C24.1286 37.5088 26.5118 38.2946 30.2506 42.6983C30.514 43.0092 30.9803 43.048 31.2954 42.7847C31.6063 42.5213 31.6451 42.0507 31.3818 41.7399C28.0488 37.8197 25.1173 35.9373 22.6693 36.1488C21.1712 36.2784 19.8889 37.1807 18.9564 38.7652C18.4037 39.7064 18.0454 40.7728 17.8943 41.9341C15.1485 63.18 31.9344 76.335 32.1071 76.4645C32.2409 76.5681 32.4007 76.6156 32.5561 76.6156C32.7374 76.6156 32.9188 76.5465 33.0612 76.417C34.2831 75.2772 35.2761 74.0597 36.0791 72.8034C37.2232 74.4224 39.9863 77.1682 45.6032 77.1682C51.2201 77.1682 53.9876 74.4224 55.1273 72.8034C55.9347 74.0597 56.9234 75.2772 58.1452 76.417C58.2877 76.5509 58.469 76.6156 58.6503 76.6156C58.8101 76.6156 58.9655 76.5638 59.0993 76.4645C59.2677 76.335 76.058 63.18 73.3121 41.9341C73.161 40.7728 72.807 39.7064 72.2501 38.7652H72.2587Z" fill="#2F3034"></path>
    <path d="M36.6402 29.8008C34.8053 29.8008 33.3115 31.2946 33.3115 33.1295C33.3115 34.9643 34.8053 36.4582 36.6402 36.4582C38.4751 36.4582 39.9689 34.9643 39.9689 33.1295C39.9689 31.2946 38.4751 29.8008 36.6402 29.8008ZM36.6402 34.9816C35.617 34.9816 34.7881 34.1484 34.7881 33.1295C34.7881 32.1106 35.6213 31.2773 36.6402 31.2773C37.6591 31.2773 38.4924 32.1106 38.4924 33.1295C38.4924 34.1484 37.6591 34.9816 36.6402 34.9816Z" fill="#2F3034"></path>
    <path d="M54.4879 29.7656C52.653 29.7656 51.1592 31.2594 51.1592 33.0943C51.1592 34.9292 52.653 36.423 54.4879 36.423C56.3228 36.423 57.8166 34.9292 57.8166 33.0943C57.8166 31.2594 56.3228 29.7656 54.4879 29.7656ZM54.4879 34.9465C53.4647 34.9465 52.6357 34.1132 52.6357 33.0943C52.6357 32.0754 53.469 31.2422 54.4879 31.2422C55.5068 31.2422 56.34 32.0754 56.34 33.0943C56.34 34.1132 55.5068 34.9465 54.4879 34.9465Z" fill="#2F3034"></path>
    <path d="M31.4987 28.4237C30.359 29.6671 29.6595 31.3163 29.6595 33.1296C29.6595 36.9807 32.7896 40.1108 36.6407 40.1108C37.7848 40.1108 38.8599 39.8302 39.814 39.3423C40.1033 40.4562 40.8415 42.5372 42.6073 44.385C43.3672 45.1794 44.4466 45.6371 45.5691 45.6371C46.6916 45.6371 47.7709 45.1794 48.5308 44.385C50.2966 42.5372 51.0349 40.4562 51.3241 39.3423C52.2783 39.8302 53.3533 40.1108 54.4974 40.1108C58.3485 40.1108 61.4786 36.9807 61.4786 33.1296C61.4786 31.3249 60.7878 29.6887 59.661 28.4453C61.0598 27.4479 64.6476 24.443 65.9557 19.0636C66.2018 18.0447 65.8607 16.9869 65.0577 16.3048C64.2374 15.6054 63.1106 15.4327 62.1219 15.8472C59.3976 16.9913 52.3387 19.6551 45.5993 19.6551C38.8599 19.6551 31.801 16.9913 29.0767 15.8472C28.0837 15.4327 26.9612 15.6054 26.1409 16.3048C25.3379 16.9869 24.9925 18.0447 25.2429 19.0636C26.5424 24.3999 30.0783 27.4005 31.5031 28.4237H31.4987ZM31.1361 33.1296C31.1361 30.0945 33.6056 27.6249 36.6407 27.6249C39.6759 27.6249 42.1454 30.0945 42.1454 33.1296C42.1454 36.1647 39.6759 38.6343 36.6407 38.6343C33.6056 38.6343 31.1361 36.1647 31.1361 33.1296ZM54.4974 38.6343C51.4623 38.6343 48.9927 36.1647 48.9927 33.1296C48.9927 30.0945 51.4623 27.6249 54.4974 27.6249C57.5325 27.6249 60.0021 30.0945 60.0021 33.1296C60.0021 36.1647 57.5325 38.6343 54.4974 38.6343ZM27.095 17.4316C27.4965 17.0906 28.0189 17.0085 28.5025 17.2114C31.3088 18.3901 38.5879 21.1316 45.595 21.1316C52.6021 21.1316 59.8812 18.3901 62.6875 17.2114C63.171 17.0085 63.6934 17.0906 64.0949 17.4316C64.4749 17.7554 64.6346 18.239 64.518 18.7182C63.2228 24.0502 59.3717 26.8694 58.5212 27.4393C57.3814 26.632 55.9955 26.1527 54.4974 26.1527C50.6463 26.1527 47.5162 29.2828 47.5162 33.1339C47.5162 35.2753 48.4876 37.1923 50.0117 38.4745C49.9037 39.0487 49.3554 41.3931 47.4687 43.3704C46.9765 43.8842 46.303 44.1691 45.5734 44.1691C44.8438 44.1691 44.1702 43.8842 43.6781 43.3704C41.7871 41.3931 41.2431 39.0444 41.1351 38.4745C42.6592 37.1923 43.6263 35.2753 43.6263 33.1339C43.6263 29.2828 40.4962 26.1527 36.6451 26.1527C35.1556 26.1527 33.7783 26.6233 32.6472 27.422C31.7276 26.8003 27.9585 23.9811 26.6806 18.7225C26.564 18.2433 26.7194 17.7598 27.1036 17.4359L27.095 17.4316Z" fill="#2F3034"></path>
    <path d="M69.2841 36.4503C63.9565 35.63 60.127 41.4455 59.9673 41.6916C59.7471 42.0327 59.842 42.4903 60.1874 42.7105C60.5285 42.9307 60.9862 42.8357 61.2063 42.4946C61.2409 42.4428 64.6818 37.2361 69.0597 37.9096C69.867 38.0348 70.5535 38.5788 71.1018 39.5372C73.1655 43.1293 72.8287 51.423 70.3764 57.6443C67.255 65.5537 62.3332 71.896 58.8404 74.7325C53.6164 68.7788 52.4939 62.4971 54.8253 52.5757C54.9202 52.1785 54.6741 51.7813 54.277 51.6863C53.8797 51.5914 53.4826 51.8374 53.3919 52.2346C51.5225 60.1959 51.842 66.0977 54.618 71.2656C51.2548 75.5701 46.5143 75.7082 45.5602 75.6909C44.6276 75.7125 39.8915 75.5701 36.5325 71.2656C39.3086 66.0934 39.6281 60.1916 37.7587 52.2346C37.6637 51.8374 37.2665 51.5914 36.8736 51.6863C36.4764 51.7813 36.2303 52.1785 36.3253 52.5757C38.6567 62.4927 37.5342 68.7745 32.3102 74.7325C28.8174 71.896 23.8956 65.5537 20.7741 57.6443C18.3175 51.4187 17.9851 43.125 20.0488 39.5372C20.5971 38.5831 21.2836 38.0348 22.0909 37.9096C26.4644 37.2361 29.9097 42.4428 29.9442 42.4946C30.1687 42.8357 30.622 42.935 30.9631 42.7105C31.3042 42.4903 31.4035 42.0327 31.1833 41.6916C31.0236 41.4455 27.1941 35.63 21.8664 36.4503C20.6101 36.6446 19.5393 37.4563 18.7665 38.8033C16.474 42.7969 16.759 51.4921 19.4012 58.1883C22.7903 66.7756 28.2863 73.6143 31.9604 76.3299C32.09 76.4292 32.2454 76.4767 32.4008 76.4767C32.5994 76.4767 32.798 76.3947 32.9448 76.2393C34.0285 75.0606 34.9524 73.869 35.7381 72.6386C39.2438 76.7703 43.7814 77.1804 45.3832 77.1804C45.4479 77.1804 45.5127 77.1804 45.5688 77.1804C47.0022 77.2107 51.7772 76.943 55.4297 72.6386C56.2111 73.869 57.1394 75.0649 58.223 76.2435C58.3698 76.399 58.5684 76.481 58.767 76.481C58.9181 76.481 59.0736 76.4335 59.2074 76.3342C62.8815 73.6186 68.3775 66.7799 71.7666 58.1926C74.4089 51.4964 74.6938 42.8012 72.4013 38.8076C71.6285 37.4606 70.5578 36.6489 69.3014 36.4546L69.2841 36.4503Z" fill="#2F3034"></path>
  </g>
  <defs>
    <clipPath id="clip0_1254_180169">
      <rect width="90" height="90" fill="white"></rect>
    </clipPath>
  </defs>
</svg>
