<?xml version="1.0" encoding="UTF-8"?>
<svg xmlns="http://www.w3.org/2000/svg" width="90" height="90" viewBox="0 0 90 90" fill="none">
  <g clip-path="url(#clip0_1254_180181)">
    <path d="M45 90C28.1838 90 16.5787 86.2612 9.52844 78.5676C3.02647 71.4741 0 60.8059 0 45C0 29.1941 3.02647 18.5259 9.52844 11.4324C16.5787 3.73884 28.1838 0 45 0C61.8162 0 73.4213 3.73884 80.4716 11.4324C86.9735 18.5259 90 29.1941 90 45C90 60.8059 86.9735 71.4741 80.4716 78.5676C73.4213 86.2612 61.8162 90 45 90ZM45 1.48086C13.6818 1.48086 1.48086 13.6818 1.48086 45C1.48086 76.3182 13.6818 88.5191 45 88.5191C76.3183 88.5191 88.5192 76.3182 88.5192 45C88.5192 13.6818 76.3183 1.48086 45 1.48086Z" fill="#2F3034"></path>
    <path d="M54.1197 77.2966C53.9859 77.2966 53.8477 77.2578 53.7311 77.1844C53.5153 77.0505 53.3814 76.8131 53.3814 76.554V49.9029C53.3814 49.5488 53.6318 49.2466 53.9772 49.1776L60.3972 47.8953V42.4122L49.254 44.8904V63.9343C49.254 64.1545 49.1547 64.3661 48.9863 64.5042L45.4806 67.3969C45.2086 67.6214 44.8114 67.6214 44.5394 67.3969L41.0337 64.5042C40.8654 64.3618 40.7661 64.1545 40.7661 63.9343V44.8904L29.6229 42.4122V47.8953L36.0428 49.1776C36.3882 49.2466 36.6386 49.5488 36.6386 49.9029V76.554C36.6386 76.8088 36.5048 77.0462 36.2889 77.1844C36.0731 77.3182 35.8011 77.3312 35.5722 77.2189C25.2753 72.133 22.6676 63.1097 22.564 62.7255C22.5467 62.6607 22.5381 62.5959 22.5381 62.5269V34.4726C22.5381 27.7763 24.9342 22.1637 29.4675 18.2392C33.6035 14.6601 39.3759 12.6914 45.7224 12.6914C59.1581 12.6914 67.5036 21.0369 67.5036 34.4726V62.5269C67.5036 62.5916 67.4949 62.6607 67.4777 62.7255C67.3697 63.1054 64.7663 72.1287 54.4694 77.2189C54.3658 77.2707 54.2535 77.2966 54.1413 77.2966H54.1197ZM54.858 50.5116V75.3322C63.1603 70.7385 65.7161 63.317 66.0011 62.4189V34.4769C66.0011 21.9565 58.2212 14.1766 45.7008 14.1766C34.8987 14.1766 23.9974 20.4541 23.9974 34.4769V62.4189C24.2823 63.317 26.8382 70.7385 35.1405 75.3322V50.5116L28.7206 49.2294C28.3752 49.1603 28.1248 48.8581 28.1248 48.504V41.4926C28.1248 41.2681 28.2284 41.0566 28.4011 40.9141C28.5781 40.7716 28.8069 40.7198 29.0228 40.7673L41.6468 43.5736C41.9835 43.647 42.2253 43.9492 42.2253 44.2946V63.5846L44.9928 65.8685L47.7602 63.5846V44.2946C47.7602 43.9492 48.002 43.647 48.3387 43.5736L60.9627 40.7673C61.1829 40.7198 61.4117 40.7716 61.5844 40.9141C61.7614 41.0566 61.8607 41.2681 61.8607 41.4926V48.504C61.8607 48.8581 61.6103 49.1603 61.2649 49.2294L54.845 50.5116H54.858Z" fill="#2F3034"></path>
  </g>
  <defs>
    <clipPath id="clip0_1254_180181">
      <rect width="90" height="90" fill="white"></rect>
    </clipPath>
  </defs>
</svg>
