<?xml version="1.0" encoding="UTF-8"?>
<svg xmlns="http://www.w3.org/2000/svg" width="90" height="90" viewBox="0 0 90 90" fill="none">
  <g clip-path="url(#clip0_379_2002)">
    <path fill-rule="evenodd" clip-rule="evenodd" d="M45 90C79.6816 90 90 74.6555 90 45C90 15.3445 79.6816 0 45 0C10.3184 0 0 15.3445 0 45C0 74.6555 10.3184 90 45 90Z" fill="#CC7510"></path>
    <path d="M54.1207 77.2983C53.9868 77.2983 53.8487 77.2595 53.7321 77.1861C53.5162 77.0522 53.3824 76.8148 53.3824 76.5558V49.9046C53.3824 49.5506 53.6328 49.2483 53.9782 49.1793L60.3981 47.897V42.4139L49.255 44.8921V63.9361C49.255 64.1562 49.1557 64.3678 48.9873 64.5059L45.4816 67.3986C45.2096 67.6231 44.8124 67.6231 44.5404 67.3986L41.0347 64.5059C40.8663 64.3635 40.767 64.1562 40.767 63.9361V44.8921L29.6239 42.4139V47.897L36.0438 49.1793C36.3892 49.2483 36.6396 49.5506 36.6396 49.9046V76.5558C36.6396 76.8105 36.5058 77.0479 36.2899 77.1861C36.074 77.3199 35.802 77.3329 35.5732 77.2206C25.2763 72.1348 22.6686 63.1114 22.565 62.7272C22.5477 62.6624 22.5391 62.5977 22.5391 62.5286V34.4743C22.5391 27.778 24.9352 22.1655 29.4684 18.241C33.6045 14.6619 39.3768 12.6931 45.7234 12.6931C59.159 12.6931 67.5045 21.0386 67.5045 34.4743V62.5286C67.5045 62.5933 67.4959 62.6624 67.4786 62.7272C67.3707 63.1071 64.7673 72.1304 54.4704 77.2206C54.3668 77.2724 54.2545 77.2983 54.1423 77.2983H54.1207ZM54.8589 50.5133V75.3339C63.1612 70.7402 65.7171 63.3187 66.0021 62.4206V34.4786C66.0021 21.9582 58.2222 14.1783 45.7018 14.1783C34.8997 14.1783 23.9983 20.4558 23.9983 34.4786V62.4206C24.2833 63.3187 26.8392 70.7402 35.1415 75.3339V50.5133L28.7215 49.2311C28.3762 49.162 28.1257 48.8598 28.1257 48.5058V41.4943C28.1257 41.2698 28.2294 41.0583 28.4021 40.9158C28.5791 40.7733 28.8079 40.7215 29.0238 40.769L41.6478 43.5753C41.9845 43.6487 42.2263 43.9509 42.2263 44.2963V63.5863L44.9937 65.8703L47.7612 63.5863V44.2963C47.7612 43.9509 48.0029 43.6487 48.3397 43.5753L60.9637 40.769C61.1839 40.7215 61.4127 40.7733 61.5854 40.9158C61.7624 41.0583 61.8617 41.2698 61.8617 41.4943V48.5058C61.8617 48.8598 61.6113 49.162 61.2659 49.2311L54.846 50.5133H54.8589Z" fill="#F3F0EC"></path>
  </g>
  <defs>
    <clipPath id="clip0_379_2002">
      <rect width="90" height="90" fill="white"></rect>
    </clipPath>
  </defs>
</svg>
