<?xml version="1.0" encoding="UTF-8"?>
<svg xmlns="http://www.w3.org/2000/svg" width="90" height="90" viewBox="0 0 90 90" fill="none">
  <path d="M45 90C28.1838 90 16.5787 86.2612 9.52844 78.5676C3.02647 71.4741 0 60.8059 0 45C0 29.1941 3.02647 18.5259 9.52844 11.4324C16.5787 3.73884 28.1838 0 45 0C61.8162 0 73.4213 3.73884 80.4716 11.4324C86.9735 18.5259 90 29.1941 90 45C90 60.8059 86.9735 71.4741 80.4716 78.5676C73.4213 86.2612 61.8162 90 45 90ZM45 1.48086C13.6818 1.48086 1.48086 13.6818 1.48086 45C1.48086 76.3182 13.6818 88.5191 45 88.5191C76.3183 88.5191 88.5192 76.3182 88.5192 45C88.5192 13.6818 76.3183 1.48086 45 1.48086Z" fill="#2F3034"></path>
  <path d="M79.6982 47.8516C79.0264 42.5354 75.8367 38.6972 70.9586 37.3127C65.8528 35.8697 59.8647 37.4003 55.2203 41.0749C56.0324 39.001 56.6224 36.5123 56.6224 33.2934C56.6224 20.9785 45.8732 10.6382 45.4175 10.2059C45.1312 9.93136 44.6814 9.93136 44.3951 10.2059C43.9395 10.6382 33.1903 20.9785 33.1903 33.2934C33.1903 36.5123 33.7803 39.001 34.5924 41.0749C29.9538 37.4003 23.9658 35.8697 18.854 37.3127C13.976 38.6914 10.7863 42.5354 10.1145 47.8516C9.6997 51.1406 10.4124 53.8981 12.2468 56.0362C15.9039 60.3067 22.6513 60.5404 22.9376 60.552H22.961C23.2706 60.552 23.551 60.3593 23.662 60.0672C23.773 59.7692 23.6796 59.4304 23.4284 59.2318C22.1373 58.1919 21.4654 55.9895 21.7926 53.8688C22.0146 52.4259 22.8909 49.8087 26.25 48.5059C28.9315 47.4602 31.6421 47.5537 33.681 48.7571C35.27 49.6918 36.3624 51.2399 36.824 53.1678H35.4511C33.9965 53.1678 32.8164 54.3479 32.8164 55.8025C32.8164 57.2572 33.9965 58.4373 35.4511 58.4373H36.1054C34.3996 61.3641 30.6373 64.25 26.6765 65.5528C23.4342 66.6219 20.4898 66.5167 18.3926 65.249C18.0479 65.0387 17.598 65.1438 17.3819 65.4827C17.1657 65.8215 17.2534 66.2713 17.5864 66.4992C21.3778 69.0813 24.7311 69.8992 27.4651 69.8992C29.06 69.8992 30.4387 69.6188 31.5662 69.2508C34.5281 68.281 36.8181 66.4116 38.4889 64.3201C38.1501 67.7085 39.114 72.0198 44.3076 79.6728C44.4478 79.8773 44.6756 80 44.9209 80C45.1663 80 45.4 79.8773 45.5344 79.6728C50.722 72.0257 51.6859 67.7143 51.3529 64.326C53.0238 66.4116 55.3138 68.281 58.2757 69.2508C59.4032 69.6188 60.7877 69.8992 62.3767 69.8992C65.1108 69.8992 68.4641 69.0813 72.2555 66.4992C72.5885 66.2713 72.682 65.8215 72.4658 65.4827C72.2497 65.1438 71.7999 65.0387 71.4552 65.249C69.3579 66.5167 66.4135 66.6219 63.1712 65.5528C59.2104 64.2442 55.4482 61.3641 53.7423 58.4373H54.5252C55.9798 58.4373 57.1599 57.2572 57.1599 55.8025C57.1599 54.3479 55.9798 53.1678 54.5252 53.1678H53.0179C53.4736 51.2399 54.5719 49.6918 56.1609 48.7571C58.1997 47.5537 60.9105 47.4602 63.5919 48.5059C66.9511 49.8145 67.8274 52.4259 68.0494 53.8688C68.3765 55.9895 67.7046 58.1977 66.4077 59.2318C66.1565 59.4304 66.063 59.7692 66.174 60.0672C66.2792 60.3593 66.5596 60.552 66.8751 60.552H66.8984C67.1847 60.5462 73.9322 60.3067 77.5893 56.0362C79.4178 53.8981 80.1364 51.1465 79.7216 47.8516H79.6982ZM44.9034 11.8066C47.0415 14.0324 55.1327 23.1225 55.1327 33.2934C55.1327 38.5103 53.4794 41.7292 51.9196 44.3406C50.757 45.7952 49.8341 47.4018 49.1973 49.0784C49.1914 49.0959 49.1856 49.1076 49.1797 49.1251C48.5547 50.4922 48.1866 51.7891 48.023 53.1503H41.7779C41.6144 51.7716 41.2463 50.463 40.6212 49.1193C40.6212 49.1076 40.6095 49.0901 40.6037 49.0784C39.9494 47.3725 39.0323 45.7777 37.8814 44.3406C36.3216 41.7351 34.6742 38.5103 34.6742 33.2934C34.6742 23.1167 42.7652 14.0266 44.9034 11.8066ZM34.4229 47.466C31.9868 46.0289 28.803 45.9004 25.695 47.1097C22.7332 48.2605 20.7702 50.6382 20.3087 53.6352C20.0166 55.5163 20.373 57.4266 21.2084 58.8696C19.0819 58.5249 15.53 57.5902 13.3743 55.0664C11.832 53.2613 11.2303 50.9011 11.5925 48.0444C12.1942 43.2832 14.9224 39.9825 19.263 38.7556C25.1108 37.1024 32.2555 39.7546 36.6662 45.1994C36.8941 45.5791 37.1278 45.953 37.3556 46.3269C38.0625 47.4719 38.7285 48.5585 39.2425 49.6626C39.2425 49.6626 39.2425 49.6626 39.2425 49.6684C39.6632 50.7784 39.967 51.9527 40.1481 53.1678H38.3254C37.8288 50.6849 36.4676 48.6753 34.4288 47.4719L34.4229 47.466ZM31.0813 67.8312C28.6335 68.6315 26.0105 68.5906 23.3349 67.7319C24.5383 67.6442 25.8118 67.3872 27.1146 66.9607C31.7882 65.4184 36.0762 61.9541 37.7587 58.4314H39.9085C39.8501 58.6651 39.7859 58.9046 39.7158 59.1617C38.6292 62.217 35.7082 66.3239 31.0755 67.837L31.0813 67.8312ZM44.9034 77.9086C38.5415 68.2226 39.6515 64.548 40.8257 60.663C40.9309 60.3125 41.036 59.9679 41.1236 59.6582C41.1236 59.6407 41.1353 59.629 41.1353 59.6115C41.2755 59.2201 41.3865 58.8228 41.4858 58.4314H48.3093C48.4086 58.8345 48.5254 59.2376 48.6598 59.6115C48.7591 59.9679 48.8643 60.3184 48.9694 60.663C50.1437 64.548 51.2537 68.2167 44.8918 77.9086H44.9034ZM62.6864 66.9607C63.995 67.393 65.2627 67.6501 66.4661 67.7319C63.7905 68.5848 61.1675 68.6257 58.7197 67.8312C54.087 66.3181 51.1718 62.2112 50.0969 59.2026C50.0151 58.928 49.9509 58.6709 49.8925 58.4314H52.0423C53.7248 61.96 58.0128 65.4184 62.6864 66.9607ZM55.6468 55.7967C55.6468 56.4276 55.1327 56.9417 54.5018 56.9417H35.4277C34.7968 56.9417 34.2827 56.4276 34.2827 55.7967C34.2827 55.1657 34.7968 54.6517 35.4277 54.6517H54.5018C55.1327 54.6517 55.6468 55.1657 55.6468 55.7967ZM76.4384 55.0606C74.2827 57.5843 70.7249 58.519 68.6043 58.8637C69.4397 57.4207 69.7903 55.5104 69.504 53.6293C69.0425 50.6324 67.0795 48.2547 64.1176 47.1038C61.0039 45.8945 57.8259 46.0231 55.3898 47.4602C53.3509 48.6636 51.9897 50.6733 51.4931 53.1561H49.6705C49.8574 51.9468 50.1495 50.7784 50.5584 49.7093C50.5584 49.7093 50.5584 49.7093 50.5584 49.7035C51.0901 48.5526 51.7561 47.466 52.4629 46.321C52.6908 45.953 52.9186 45.5791 53.1523 45.1935C57.563 39.743 64.7135 37.0965 70.5555 38.7498C74.8961 39.9766 77.6185 43.2773 78.226 48.0386C78.5882 50.8953 77.9924 53.2554 76.4443 55.0606H76.4384Z" fill="#2F3034"></path>
</svg>
