<?xml version="1.0" encoding="UTF-8"?>
<svg xmlns="http://www.w3.org/2000/svg" width="90" height="90" viewBox="0 0 90 90" fill="none">
  <g clip-path="url(#clip0_379_2026)">
    <path fill-rule="evenodd" clip-rule="evenodd" d="M45 90C79.6816 90 90 74.6555 90 45C90 15.3445 79.6816 0 45 0C10.3184 0 0 15.3445 0 45C0 74.6555 10.3184 90 45 90Z" fill="#CC7510"></path>
    <path d="M45.4224 18.0146C42.9097 18.0146 40.8633 20.0611 40.8633 22.5738C40.8633 25.0865 42.9097 27.1329 45.4224 27.1329C47.9351 27.1329 49.9816 25.0865 49.9816 22.5738C49.9816 20.0611 47.9351 18.0146 45.4224 18.0146ZM45.4224 25.6564C43.7257 25.6564 42.3441 24.2748 42.3441 22.5781C42.3441 20.8814 43.7257 19.4998 45.4224 19.4998C47.1192 19.4998 48.5007 20.8814 48.5007 22.5781C48.5007 24.2748 47.1192 25.6564 45.4224 25.6564Z" fill="#F3F0EC"></path>
    <path d="M75.9893 67.7762V65.7946C75.9893 64.5857 75.0049 63.6014 73.796 63.6014H71.646V39.7738C73.1527 39.519 74.3055 38.2109 74.3055 36.635V36.2119H74.9229C75.333 36.2119 75.6611 35.8795 75.6611 35.4737V30.7936C75.6611 30.5173 75.5057 30.2626 75.2596 30.1374L45.6381 14.8798C45.4266 14.7718 45.1718 14.7718 44.9603 14.8798L15.3388 30.1374C15.0927 30.2626 14.9373 30.5173 14.9373 30.7936V35.4737C14.9373 35.8838 15.2697 36.2119 15.6755 36.2119H16.2929V36.635C16.2929 38.2109 17.4456 39.519 18.9524 39.7738V63.6014H17.0441C15.8353 63.6014 14.8509 64.5857 14.8509 65.7946V67.7762C12.8779 67.8324 11.2891 69.4471 11.2891 71.4331V73.7083C11.2891 74.1185 11.6215 74.4466 12.0273 74.4466H78.8085C79.2186 74.4466 79.5468 74.1142 79.5468 73.7083V71.4331C79.5468 69.4471 77.958 67.8324 75.9806 67.7762H75.9893ZM62.8644 63.597V39.8212H70.1694V63.597H62.8644ZM29.2191 39.7694C30.7259 39.5147 31.8786 38.2066 31.8786 36.6307V36.2076H37.5128V36.6307C37.5128 38.2066 38.6655 39.5147 40.1723 39.7694V63.597H29.2234V39.7694H29.2191ZM49.8993 38.3447H40.7077C39.7621 38.3447 38.9937 37.5762 38.9937 36.6307V36.2076H51.6133V36.6307C51.6133 37.5762 50.8449 38.3447 49.8993 38.3447ZM41.6489 39.8256H48.9538V63.6014H41.6489V39.8256ZM50.4347 39.7694C51.9415 39.5147 53.0942 38.2066 53.0942 36.6307V36.2076H58.7284V36.6307C58.7284 38.2066 59.8811 39.5147 61.3879 39.7694V63.597H50.439V39.7694H50.4347ZM72.8246 36.6307C72.8246 37.5762 72.0561 38.3447 71.1106 38.3447H61.9189C60.9734 38.3447 60.2049 37.5762 60.2049 36.6307V36.2076H72.8246V36.6307ZM16.4224 31.2383L45.3013 16.365L74.1846 31.2383V34.7267H16.4224V31.2383ZM17.7781 36.6307V36.2076H30.3978V36.6307C30.3978 37.5762 29.6293 38.3447 28.6838 38.3447H19.4921C18.5466 38.3447 17.7781 37.5762 17.7781 36.6307ZM20.4376 39.8256H27.7426V63.6014H20.4376V39.8256ZM17.0484 65.0779H73.796C74.1889 65.0779 74.5084 65.3974 74.5084 65.7903V67.7633H16.3361V65.7903C16.3361 65.3974 16.6556 65.0779 17.0484 65.0779ZM78.0745 72.9657H12.7742V71.4288C12.7742 70.2242 13.7543 69.2442 14.9588 69.2442H15.3474C15.4251 69.2744 15.5115 69.296 15.6021 69.296C15.6928 69.296 15.7748 69.2744 15.8525 69.2442H75.0006C75.0783 69.2744 75.1646 69.296 75.251 69.296C75.3373 69.296 75.4237 69.2744 75.5057 69.2442H75.8943C77.0988 69.2442 78.0789 70.2242 78.0789 71.4288V72.9657H78.0745Z" fill="#F3F0EC"></path>
  </g>
  <defs>
    <clipPath id="clip0_379_2026">
      <rect width="90" height="90" fill="white"></rect>
    </clipPath>
  </defs>
</svg>
