<?xml version="1.0" encoding="UTF-8"?>
<svg xmlns="http://www.w3.org/2000/svg" width="90" height="90" viewBox="0 0 90 90" fill="none">
  <g clip-path="url(#clip0_1254_180202)">
    <path d="M81.0487 12.0105C73.9984 4.31696 62.3977 0.578125 45.5772 0.578125C28.7567 0.578125 17.1559 4.31696 10.1056 12.0105C3.60363 19.104 0.577148 29.7722 0.577148 45.5781C0.577148 61.384 3.60363 72.0523 10.1056 79.1457C17.1559 86.8393 28.761 90.5781 45.5772 90.5781C62.3933 90.5781 73.9941 86.8393 81.0487 79.1457C87.5507 72.0523 90.5772 61.384 90.5772 45.5781C90.5772 29.7722 87.5507 19.104 81.0487 12.0105ZM45.5772 89.1016C14.2589 89.1016 2.05801 76.9007 2.05801 45.5824C2.05801 14.2642 14.2589 2.0633 45.5772 2.0633C76.8954 2.0633 89.0963 14.2642 89.0963 45.5824C89.0963 76.9007 76.8954 89.1016 45.5772 89.1016Z" fill="#2F3034"></path>
    <path d="M46.4239 18.0156C43.9112 18.0156 41.8647 20.0621 41.8647 22.5748C41.8647 25.0875 43.9112 27.1339 46.4239 27.1339C48.9366 27.1339 50.983 25.0875 50.983 22.5748C50.983 20.0621 48.9366 18.0156 46.4239 18.0156ZM46.4239 25.6574C44.7272 25.6574 43.3456 24.2758 43.3456 22.5791C43.3456 20.8824 44.7272 19.5008 46.4239 19.5008C48.1206 19.5008 49.5022 20.8824 49.5022 22.5791C49.5022 24.2758 48.1206 25.6574 46.4239 25.6574Z" fill="#2F3034"></path>
    <path d="M76.9907 64.7782V62.7965C76.9907 61.5877 76.0064 60.6033 74.7975 60.6033H72.6474V36.7757C74.1542 36.521 75.3069 35.2128 75.3069 33.637V33.2139H75.9243C76.3345 33.2139 76.6626 32.8815 76.6626 32.4756V27.7956C76.6626 27.5193 76.5072 27.2645 76.2611 27.1393L46.6396 11.8817C46.428 11.7738 46.1733 11.7738 45.9617 11.8817L16.3402 27.1393C16.0941 27.2645 15.9387 27.5193 15.9387 27.7956V32.4756C15.9387 32.8858 16.2711 33.2139 16.677 33.2139H17.2944V33.637C17.2944 35.2128 18.4471 36.521 19.9539 36.7757V60.6033H18.0456C16.8367 60.6033 15.8524 61.5877 15.8524 62.7965V64.7782C13.8793 64.8343 12.2905 66.449 12.2905 68.435V70.7103C12.2905 71.1204 12.623 71.4486 13.0288 71.4486H79.81C80.2201 71.4486 80.5482 71.1161 80.5482 70.7103V68.435C80.5482 66.449 78.9594 64.8343 76.9821 64.7782H76.9907ZM63.8659 60.599V36.8232H71.1709V60.599H63.8659ZM30.2206 36.7714C31.7274 36.5167 32.8801 35.2085 32.8801 33.6327V33.2096H38.5143V33.6327C38.5143 35.2085 39.667 36.5167 41.1738 36.7714V60.599H30.2249V36.7714H30.2206ZM50.9008 35.3467H41.7091C40.7636 35.3467 39.9951 34.5782 39.9951 33.6327V33.2096H52.6148V33.6327C52.6148 34.5782 51.8463 35.3467 50.9008 35.3467ZM42.6503 36.8275H49.9553V60.6033H42.6503V36.8275ZM51.4362 36.7714C52.9429 36.5167 54.0957 35.2085 54.0957 33.6327V33.2096H59.7299V33.6327C59.7299 35.2085 60.8826 36.5167 62.3894 36.7714V60.599H51.4405V36.7714H51.4362ZM73.8261 33.6327C73.8261 34.5782 73.0576 35.3467 72.1121 35.3467H62.9204C61.9749 35.3467 61.2064 34.5782 61.2064 33.6327V33.2096H73.8261V33.6327ZM17.4239 28.2403L46.3028 13.3669L75.1861 28.2403V31.7287H17.4239V28.2403ZM18.7795 33.6327V33.2096H31.3992V33.6327C31.3992 34.5782 30.6307 35.3467 29.6852 35.3467H20.4935C19.548 35.3467 18.7795 34.5782 18.7795 33.6327ZM21.439 36.8275H28.744V60.6033H21.439V36.8275ZM18.0499 62.0798H74.7975C75.1904 62.0798 75.5099 62.3993 75.5099 62.7922V64.7653H17.3375V62.7922C17.3375 62.3993 17.657 62.0798 18.0499 62.0798ZM79.076 69.9677H13.7757V68.4307C13.7757 67.2262 14.7557 66.2461 15.9603 66.2461H16.3489C16.4266 66.2763 16.5129 66.2979 16.6036 66.2979C16.6942 66.2979 16.7763 66.2763 16.854 66.2461H76.002C76.0798 66.2763 76.1661 66.2979 76.2524 66.2979C76.3388 66.2979 76.4251 66.2763 76.5072 66.2461H76.8957C78.1003 66.2461 79.0803 67.2262 79.0803 68.4307V69.9677H79.076Z" fill="#2F3034"></path>
  </g>
  <defs>
    <clipPath id="clip0_1254_180202">
      <rect width="90" height="90" fill="white"></rect>
    </clipPath>
  </defs>
</svg>
