<?xml version="1.0" encoding="UTF-8"?>
<svg xmlns="http://www.w3.org/2000/svg" width="90" height="90" viewBox="0 0 90 90" fill="none">
  <g clip-path="url(#clip0_1254_180209)">
    <path d="M81.0487 12.0105C73.9984 4.31696 62.3977 0.578125 45.5772 0.578125C28.7567 0.578125 17.1559 4.31696 10.1056 12.0105C3.60363 19.104 0.577148 29.7722 0.577148 45.5781C0.577148 61.384 3.60363 72.0523 10.1056 79.1457C17.1559 86.8393 28.761 90.5781 45.5772 90.5781C62.3933 90.5781 73.9941 86.8393 81.0487 79.1457C87.5507 72.0523 90.5772 61.384 90.5772 45.5781C90.5772 29.7722 87.5507 19.104 81.0487 12.0105ZM45.5772 89.1016C14.2589 89.1016 2.05801 76.9007 2.05801 45.5824C2.05801 14.2642 14.2589 2.0633 45.5772 2.0633C76.8954 2.0633 89.0963 14.2642 89.0963 45.5824C89.0963 76.9007 76.8954 89.1016 45.5772 89.1016Z" fill="#2F3034"></path>
    <path d="M49.4117 71.3419H36.9351C36.5782 71.3419 36.2979 71.0615 36.2979 70.7047V60.6113C36.2979 60.2545 36.5782 59.9741 36.9351 59.9741H49.4117C49.7685 59.9741 50.0489 60.2545 50.0489 60.6113V70.7047C50.0489 71.0615 49.7685 71.3419 49.4117 71.3419ZM37.5723 70.0675H48.7745V61.2486H37.5723V70.0675ZM46.8119 55.6283H38.9487C38.6301 55.6283 38.3497 55.3862 38.3114 55.0676L37.5213 48.071C37.4958 47.8161 37.6232 47.5613 37.8526 47.4338C45.8688 43.1645 49.7685 39.0863 49.7685 34.9444C49.7685 32.6122 48.7745 30.4584 41.6122 30.4584C36.4635 30.4584 29.964 31.8475 26.9308 32.6759C26.7397 32.7268 26.5357 32.6759 26.3828 32.5612C26.2299 32.4465 26.1279 32.2553 26.1279 32.0514V21.3081C26.1279 21.0022 26.3446 20.7344 26.6504 20.6835C30.907 19.8806 37.4831 18.9375 41.9818 18.9375C56.4211 18.9375 63.749 24.0098 63.749 34.0013C63.749 43.9928 54.7771 48.8356 47.8442 51.6776L47.4491 55.0549C47.4109 55.3735 47.1432 55.6155 46.8119 55.6155V55.6283ZM39.5222 54.3539H46.2511L46.6207 51.1678C46.6462 50.9384 46.7991 50.7344 47.0158 50.6452C57.7082 46.3122 62.4873 41.1763 62.4873 34.0013C62.4873 24.7235 55.7838 20.2119 41.9945 20.2119C37.4958 20.2119 30.958 21.1933 27.4151 21.8305V31.223C30.7541 30.3819 36.7694 29.1712 41.6377 29.1712C48.1627 29.1712 51.0685 30.9427 51.0685 34.9316C51.0685 39.5196 47.0667 43.9036 38.8594 48.3386L39.5349 54.3411L39.5222 54.3539Z" fill="#2F3034"></path>
  </g>
  <defs>
    <clipPath id="clip0_1254_180209">
      <rect width="90" height="90" fill="white"></rect>
    </clipPath>
  </defs>
</svg>
