<?xml version="1.0" encoding="UTF-8"?>
<svg xmlns="http://www.w3.org/2000/svg" width="90" height="90" viewBox="0 0 90 90" fill="none">
  <g clip-path="url(#clip0_379_2014)">
    <path fill-rule="evenodd" clip-rule="evenodd" d="M45 90C79.6816 90 90 74.6555 90 45C90 15.3445 79.6816 0 45 0C10.3184 0 0 15.3445 0 45C0 74.6555 10.3184 90 45 90Z" fill="#CC7510"></path>
    <path d="M49.4127 71.3424H36.9361C36.5792 71.3424 36.2988 71.062 36.2988 70.7052V60.6118C36.2988 60.255 36.5792 59.9746 36.9361 59.9746H49.4127C49.7695 59.9746 50.0499 60.255 50.0499 60.6118V70.7052C50.0499 71.062 49.7695 71.3424 49.4127 71.3424ZM37.5733 70.068H48.7755V61.249H37.5733V70.068ZM46.8129 55.6288H38.9496C38.631 55.6288 38.3507 55.3867 38.3124 55.0681L37.5223 48.0715C37.4968 47.8166 37.6242 47.5617 37.8536 47.4343C45.8698 43.165 49.7695 39.0867 49.7695 34.9449C49.7695 32.6127 48.7755 30.4589 41.6132 30.4589C36.4645 30.4589 29.9649 31.848 26.9318 32.6763C26.7406 32.7273 26.5367 32.6764 26.3838 32.5617C26.2308 32.447 26.1289 32.2558 26.1289 32.0519V21.3086C26.1289 21.0027 26.3456 20.7349 26.6514 20.6839C30.908 19.8811 37.484 18.938 41.9828 18.938C56.422 18.938 63.75 24.0103 63.75 34.0018C63.75 43.9933 54.778 48.8361 47.8451 51.6781L47.4501 55.0554C47.4118 55.374 47.1442 55.616 46.8129 55.616V55.6288ZM39.5231 54.3544H46.2521L46.6217 51.1683C46.6472 50.9389 46.8001 50.7349 47.0167 50.6457C57.7092 46.3127 62.4883 41.1768 62.4883 34.0018C62.4883 24.724 55.7848 20.2124 41.9955 20.2124C37.4968 20.2124 30.959 21.1937 27.4161 21.831V31.2235C30.7551 30.3824 36.7703 29.1717 41.6387 29.1717C48.1637 29.1717 51.0694 30.9431 51.0694 34.9321C51.0694 39.52 47.0677 43.9041 38.8604 48.3391L39.5359 54.3416L39.5231 54.3544Z" fill="#F3F0EC"></path>
  </g>
  <defs>
    <clipPath id="clip0_379_2014">
      <rect width="90" height="90" fill="white"></rect>
    </clipPath>
  </defs>
</svg>
