<svg width="1295" height="879" viewBox="0 0 1295 879" fill="none" xmlns="http://www.w3.org/2000/svg">
<path d="M603.268 877C565.562 877 528.705 863.884 499.508 840.055L62.3666 483.299C16.6343 445.987 -5.60995 386.683 4.33921 328.482C14.2601 270.309 54.933 221.718 110.445 201.705L637.157 11.7238C655.077 5.25069 673.816 2 692.838 2C729.922 2 766.298 14.7483 795.27 37.8706L1231.59 386.288C1277.61 423.035 1300.5 481.999 1291.31 540.172C1282.13 598.346 1242.19 647.388 1187.07 668.165L661.182 866.428C642.612 873.438 623.138 876.972 603.296 876.972L603.268 877Z" stroke="#F2F1ED" stroke-width="2.5" stroke-miterlimit="10"/>
<path d="M347.662 567.824L337.451 568.929C336.423 569.041 335.68 569.964 335.791 570.992L336.897 581.203C337.008 582.231 337.932 582.974 338.96 582.863L349.17 581.757C350.198 581.646 350.941 580.722 350.83 579.694L349.725 569.484C349.613 568.456 348.69 567.713 347.662 567.824Z" stroke="#F2F1ED" stroke-width="2.5" stroke-miterlimit="10"/>


    <path d="M715.104 109.197L1210.26 504.428C1225.95 516.965 1222.04 541.784 1203.24 548.87L606.43 773.773C597.801 777.043 588.082 775.44 580.929 769.604L84.8394 364.978C69.2503 352.248 73.4844 327.398 92.4414 320.568L690.149 105.092C698.617 102.046 708.047 103.585 715.104 109.229V109.197Z" stroke="#F2F1ED" stroke-width="2.5" stroke-miterlimit="10"/>
    <circle cx="337.607" cy="232.015" r="8.07071" fill="white" stroke="#F2F1ED" stroke-width="2.5"/>
    <path d="M347.662 567.824L337.451 568.929C336.423 569.041 335.68 569.964 335.791 570.992L336.897 581.203C337.008 582.231 337.932 582.974 338.96 582.863L349.17 581.757C350.198 581.646 350.941 580.722 350.83 579.694L349.725 569.484C349.613 568.456 348.69 567.713 347.662 567.824Z" fill="white"/>
    <path d="M951.763 299.592C951.275 298.006 952.579 296.501 954.218 296.758L961.067 297.834L967.255 298.804C969.052 299.087 969.887 301.227 968.728 302.565L964.15 307.848L959.573 313.132C958.414 314.47 956.176 313.948 955.64 312.209L953.8 306.223L951.763 299.592Z" fill="white" stroke="#F2F1ED" stroke-width="2.5" stroke-miterlimit="10"/>
    <path d="M1002.07 614.445L1003.93 616.026C1005.9 617.694 1008.33 618.763 1010.92 619.115L1013.38 619.441C1014.2 619.553 1014.55 620.505 1014.01 621.118L1012.36 622.973C1010.62 624.929 1009.49 627.33 1009.09 629.88L1008.71 632.296C1008.58 633.099 1007.6 633.463 1006.98 632.939L1005.11 631.359C1003.14 629.691 1000.72 628.621 998.123 628.27L995.664 627.943C994.847 627.831 994.493 626.879 995.04 626.266L996.688 624.412C998.424 622.455 999.559 620.054 999.959 617.504L1000.34 615.088C1000.46 614.286 1001.44 613.921 1002.07 614.445Z" fill="white" stroke="#F2F1ED" stroke-width="2.5" stroke-miterlimit="10"/>

</svg>
