<svg width="42" height="45" viewBox="0 0 42 45" fill="none" xmlns="http://www.w3.org/2000/svg">
<g style="mix-blend-mode:luminosity">
<path d="M6.90809 35.6133C10.4824 35.6133 12.7917 33.6323 12.7917 30.5721V30.5277C12.7917 27.3911 10.3739 26.3289 7.76087 25.6488C5.04499 24.9526 4.93084 24.6903 4.93084 24.1621V24.1224C4.93084 23.6253 5.49214 23.3046 6.36001 23.3046C7.43164 23.3046 8.5995 23.7526 9.92961 24.6752L10.3145 24.9422L12.5134 21.7546L12.1748 21.483C10.539 20.1698 8.59761 19.502 6.40246 19.502C3.08661 19.502 0.771658 21.5226 0.771658 24.4158V24.4583C0.771658 27.8109 3.14511 28.6891 6.01286 29.4212C8.63347 30.0928 8.63347 30.4749 8.63347 30.8447V30.8871C8.63347 31.7437 7.36184 31.8107 6.97223 31.8107C5.54308 31.8107 4.27616 31.2909 2.86493 30.1259L2.50646 29.8306L0 32.8323L0.337715 33.1332C2.14833 34.7398 4.48751 35.6227 6.90809 35.6133Z" fill="#23415A"/>
<path d="M20.3769 35.6133C23.9512 35.6133 26.2606 33.6323 26.2606 30.5721V30.5277C26.2606 27.3911 23.8428 26.3289 21.2297 25.6488C18.5129 24.9526 18.3997 24.6903 18.3997 24.1621V24.1224C18.3997 23.6253 18.961 23.3046 19.8298 23.3046C20.9014 23.3046 22.0693 23.7526 23.3994 24.6752L23.7843 24.9422L25.9851 21.7546L25.6464 21.483C24.0107 20.1698 22.0693 19.502 19.8741 19.502C16.5583 19.502 14.2433 21.5226 14.2433 24.4158V24.4583C14.2433 27.8109 16.6168 28.6891 19.4845 29.4212C22.1051 30.0928 22.1051 30.4749 22.1051 30.8447V30.8871C22.1051 31.7437 20.8335 31.8107 20.4439 31.8107C19.0148 31.8107 17.7478 31.2909 16.3366 30.1259L15.9781 29.8306L13.4717 32.8323L13.8094 33.1332C15.6192 34.7392 17.9573 35.6221 20.3769 35.6133Z" fill="#23415A"/>
<path d="M33.8746 30.6989L37.0206 35.3967H41.9496L38.1687 29.8668L38.2225 29.8404C40.0714 28.9338 41.0893 27.2453 41.0893 25.085V25.0435C41.0893 21.7522 38.7781 19.707 35.0575 19.707H27.8457V35.3976H32.0256V30.6809H33.8586L33.8746 30.6989ZM32.0256 23.5729H34.783C36.165 23.5729 36.8659 24.1247 36.8659 25.2133V25.2558C36.8659 26.285 36.1292 26.8745 34.8462 26.8745H32.0256V23.5729Z" fill="#23415A"/>
<path d="M33.2512 17.6021C37.8876 17.6021 41.646 13.8436 41.646 9.20729C41.646 4.57098 37.8876 0.8125 33.2512 0.8125C28.6149 0.8125 24.8564 4.57098 24.8564 9.20729C24.8564 13.8436 28.6149 17.6021 33.2512 17.6021Z" fill="#E16928"/>
<path d="M22.7091 17.6115C21.606 17.6115 20.5138 17.3943 19.4947 16.9721C18.4757 16.55 17.5497 15.9313 16.7697 15.1514C15.9898 14.3714 15.3711 13.4454 14.9489 12.4264C14.5268 11.4073 14.3096 10.315 14.3096 9.21201C14.3096 8.10897 14.5268 7.01673 14.9489 5.99766C15.3711 4.97858 15.9898 4.05263 16.7697 3.27266C17.5497 2.49269 18.4757 1.87399 19.4947 1.45188C20.5138 1.02976 21.606 0.8125 22.7091 0.8125V17.6115Z" fill="#CED8D8"/>
<path d="M9.16504 44.1638H10.7159V40.1451L12.1196 44.1638H13.3714L14.7741 40.1065V44.1638H16.325V37.5H14.1374L12.7828 41.7082L11.3517 37.5H9.16504V44.1638Z" fill="#23415A"/>
<path d="M18.9881 37.5H17.3467V44.1638H18.9881V37.5Z" fill="#23415A"/>
<path d="M24.0773 44.1638H25.6687V37.5H24.1178V41.5667L21.5869 37.5H20.0049V44.1638H21.5557V40.1065L24.0773 44.1638Z" fill="#23415A"/>
<path d="M28.3289 37.5H26.6875V44.1638H28.3289V37.5Z" fill="#23415A"/>
<path opacity="0.3" d="M33.4181 44.1638H35.0096V37.5H33.4587V41.5667L30.9287 37.5H29.3467V44.1638H30.8975V40.1065L33.4181 44.1638Z" fill="#23415A"/>
<path d="M39.0245 40.4582V41.7383H40.4348C40.4033 42.0548 40.2634 42.3508 40.0386 42.5759C39.8056 42.792 39.466 42.9023 39.0293 42.9023C38.7673 42.9101 38.5077 42.8514 38.2746 42.7316C38.0734 42.6214 37.9014 42.4649 37.7727 42.275C37.6404 42.0756 37.5445 41.8543 37.4897 41.6213C37.4275 41.372 37.3958 41.116 37.3954 40.8591C37.3955 40.5915 37.4272 40.3249 37.4897 40.0648C37.5434 39.8258 37.6392 39.5984 37.7727 39.3931C37.9004 39.2014 38.0726 39.0435 38.2746 38.9328C38.5077 38.8132 38.7673 38.7544 39.0293 38.762C39.3181 38.7535 39.6017 38.8407 39.8358 39.0101C40.0689 39.1978 40.2269 39.4629 40.2811 39.7572L40.3018 39.844H41.8687L41.8564 39.7205C41.8288 39.3756 41.7292 39.0405 41.5641 38.7365C41.399 38.4325 41.1721 38.1664 40.898 37.9555C40.6354 37.7541 40.3399 37.5999 40.0245 37.4998C39.703 37.3975 39.3676 37.3456 39.0302 37.3461C38.5575 37.3391 38.0887 37.4314 37.6539 37.6168C37.257 37.7896 36.9028 38.0472 36.6162 38.3715C36.3311 38.6978 36.1122 39.0765 35.9719 39.4865C35.8217 39.9287 35.747 40.393 35.7511 40.86C35.7477 41.3194 35.823 41.776 35.9738 42.2099C36.1144 42.6144 36.3333 42.9872 36.6181 43.307C36.9067 43.6244 37.2607 43.8755 37.6557 44.0428C38.091 44.2253 38.5592 44.3158 39.0311 44.3089C39.3656 44.3072 39.6963 44.2386 40.0037 44.107C40.2827 43.9841 40.5318 43.8023 40.7339 43.574L40.8508 44.1655H41.9583V40.4582H39.0245Z" fill="#23415A"/>
</g>
</svg>
