<svg width="114" height="93" viewBox="0 0 114 93" fill="none" xmlns="http://www.w3.org/2000/svg">
<path d="M55.1572 1.57467L49.1393 14.2286C43.8411 25.3698 34.4035 34.7789 22.2254 41.0693L14.4753 45.0704C13.1294 45.7657 13.1578 47.4125 14.5241 48.0793L22.632 52.0154C34.5052 57.7812 43.6784 66.7633 48.6473 77.4898L55.145 91.5222C55.8362 93.0104 58.3491 93.0104 59.0404 91.5222L65.5381 77.4898C70.5069 66.7674 79.6802 57.7812 91.5534 52.0154L99.6613 48.0793C101.028 47.4165 101.056 45.7657 99.7101 45.0704L90.2115 40.1625C79.1719 34.4577 70.6167 25.9269 65.8105 15.8266L59.0363 1.57467C58.3369 0.102716 55.8566 0.102716 55.1572 1.57467Z" fill="#CC9156"/>
<path d="M47.5692 83.7973C49.2322 84.3666 51.0336 84.3341 52.6682 83.7038L96.4525 67.2277C98.1888 66.5243 99.5388 65.032 100.169 63.1168L110.412 31.9457C111.709 27.9934 109.615 23.5043 105.87 22.2235L65.8954 8.53274C64.4925 8.05293 63.0084 8.08546 61.6666 8.62626L19.0573 25.7814C17.321 26.4848 15.9711 27.9771 15.3408 29.8923L5.09816 61.0675C3.80106 65.0198 5.89513 69.5088 9.64006 70.7897L47.5651 83.7973H47.5692Z" stroke="#1E0202" stroke-width="1.5" stroke-miterlimit="10"/>
<path d="M63.4427 11.398C65.4076 11.398 67.0005 9.80508 67.0005 7.84012C67.0005 5.87515 65.4076 4.28223 63.4427 4.28223C61.4777 4.28223 59.8848 5.87515 59.8848 7.84012C59.8848 9.80508 61.4777 11.398 63.4427 11.398Z" fill="#F2F1ED" stroke="#1E0202" stroke-width="1.5" stroke-miterlimit="10"/>
<path d="M65.8181 15.8306L59.0357 1.57466C58.3363 0.102716 55.856 0.102716 55.1566 1.57466L49.1387 14.2285" fill="#CC9156"/>
<path d="M109.46 28.1714C111.425 28.1714 113.018 26.5785 113.018 24.6136C113.018 22.6486 111.425 21.0557 109.46 21.0557C107.495 21.0557 105.902 22.6486 105.902 24.6136C105.902 26.5785 107.495 28.1714 109.46 28.1714Z" fill="#F2F1ED" stroke="#1E0202" stroke-width="1.5" stroke-miterlimit="10"/>
<path d="M98.6692 68.8453C100.634 68.8453 102.227 67.2523 102.227 65.2874C102.227 63.3224 100.634 61.7295 98.6692 61.7295C96.7042 61.7295 95.1113 63.3224 95.1113 65.2874C95.1113 67.2523 96.7042 68.8453 98.6692 68.8453Z" fill="#F2F1ED" stroke="#1E0202" stroke-width="1.5" stroke-miterlimit="10"/>
<path d="M49.2903 86.8502C51.2553 86.8502 52.8482 85.2572 52.8482 83.2923C52.8482 81.3273 51.2553 79.7344 49.2903 79.7344C47.3253 79.7344 45.7324 81.3273 45.7324 83.2923C45.7324 85.2572 47.3253 86.8502 49.2903 86.8502Z" fill="#F2F1ED" stroke="#1E0202" stroke-width="1.5" stroke-miterlimit="10"/>
<path d="M4.55789 69.5318C6.52286 69.5318 8.11578 67.9389 8.11578 65.9739C8.11578 64.0089 6.52286 62.416 4.55789 62.416C2.59292 62.416 1 64.0089 1 65.9739C1 67.9389 2.59292 69.5318 4.55789 69.5318Z" fill="#F2F1ED" stroke="#1E0202" stroke-width="1.5" stroke-miterlimit="10"/>
<path d="M16.6223 31.0416C18.5873 31.0416 20.1802 29.4486 20.1802 27.4837C20.1802 25.5187 18.5873 23.9258 16.6223 23.9258C14.6574 23.9258 13.0645 25.5187 13.0645 27.4837C13.0645 29.4486 14.6574 31.0416 16.6223 31.0416Z" fill="#F2F1ED" stroke="#1E0202" stroke-width="1.5" stroke-miterlimit="10"/>
</svg>
