<svg width="117" height="88" viewBox="0 0 117 88" fill="none" xmlns="http://www.w3.org/2000/svg">
<path d="M33.8736 62.7451L33.7716 82.3501C33.7534 85.476 36.2747 88.0163 39.3827 88.009L78.7076 87.9029C81.8083 87.8955 84.3078 85.3589 84.2896 82.2439L84.1875 65.6844" fill="#CC9156"/>
<mask id="mask0_2407_3844" style="mask-type:luminance" maskUnits="userSpaceOnUse" x="1" y="9" width="115" height="72">
<path d="M107.705 31.4333C107.898 31.221 108.044 30.9611 108.07 30.6756C108.146 29.7971 107.166 29.464 105.505 29.464L90.9376 29.497L68.0123 11.1256C65.9063 9.1819 62.8494 8.68775 60.2442 9.87005L4.93498 30.4157C0.55542 32.0446 -0.39555 37.8426 3.23708 40.7929L49.299 78.2312C51.405 80.1749 54.4619 80.669 57.067 79.4867L111.068 58.963C115.736 56.8436 116.73 50.6283 112.959 47.1473L101.639 38.0732L107.705 31.4333Z" fill="white"/>
</mask>
<g mask="url(#mask0_2407_3844)">
<path d="M35.7765 113.13L42.8268 120.839C44.2951 122.442 46.3647 123.357 48.5326 123.357H69.5231C71.6911 123.357 73.7642 122.442 75.229 120.839L82.2792 113.13C83.5982 111.688 84.3269 109.799 84.3233 107.841L84.1848 55.0945C84.1812 53.1509 83.4525 51.2804 82.1408 49.8456L75.229 42.2869C73.7606 40.6836 71.6911 39.7686 69.5231 39.7686H48.5326C46.3647 39.7686 44.2915 40.6836 42.8268 42.2869L35.9149 49.8456C34.6069 51.2768 33.8782 53.1472 33.8709 55.0945L33.7324 107.841C33.7288 109.799 34.4575 111.688 35.7765 113.13Z" fill="#CC9156"/>
</g>
<path d="M107.705 31.4343C107.898 31.222 108.044 30.9621 108.07 30.6766C108.146 29.7981 107.166 29.465 105.505 29.465L90.9376 29.498L68.0123 11.1265C65.9063 9.18288 62.8494 8.68873 60.2442 9.87103L4.93498 30.4167C0.55542 32.0456 -0.39555 37.8436 3.23708 40.7939L49.299 78.2322C51.405 80.1758 54.4619 80.67 57.067 79.4877L111.068 58.964C115.736 56.8446 116.73 50.6293 112.959 47.1483L101.639 38.0742L107.705 31.4343Z" stroke="#1E0202" stroke-width="1.5" stroke-miterlimit="10"/>
<path d="M59.2341 34.988C68.722 34.988 76.4135 27.2611 76.4135 17.7294C76.4135 8.19767 68.722 0.470703 59.2341 0.470703C49.7462 0.470703 42.0547 8.19767 42.0547 17.7294C42.0547 27.2611 49.7462 34.988 59.2341 34.988Z" fill="#CC9156"/>
<path d="M100.237 59.4287L98.5344 63.0861C98.3622 63.456 98.5212 63.8961 98.8894 64.069L102.53 65.7791C102.898 65.9521 103.336 65.7925 103.508 65.4225L105.211 61.7652C105.383 61.3953 105.224 60.9552 104.856 60.7822L101.215 59.0721C100.847 58.8992 100.409 59.0588 100.237 59.4287Z" fill="#F2F1ED" stroke="#1E0202" stroke-width="1.5" stroke-miterlimit="10"/>
<path d="M23.4088 26.975C25.1696 26.975 26.5969 25.541 26.5969 23.7722C26.5969 22.0033 25.1696 20.5693 23.4088 20.5693C21.6481 20.5693 20.2207 22.0033 20.2207 23.7722C20.2207 25.541 21.6481 26.975 23.4088 26.975Z" fill="#F2F1ED" stroke="#1E0202" stroke-width="1.5" stroke-miterlimit="10"/>
<path d="M84.187 55.0984C84.1833 53.1548 83.4546 51.2843 82.1429 49.8495L75.2311 42.2908C73.7627 40.6876 71.6932 39.7725 69.5253 39.7725H48.5347C46.3668 39.7725 44.2936 40.6876 42.8289 42.2908L35.9171 49.8495C34.609 51.2807 33.8803 53.1511 33.873 55.0984" fill="#CC9156"/>
</svg>
