<svg width="138" height="87" viewBox="0 0 138 87" fill="none" xmlns="http://www.w3.org/2000/svg">
<mask id="mask0_2407_3814" style="mask-type:luminance" maskUnits="userSpaceOnUse" x="15" y="0" width="87" height="87">
<path d="M58.0982 86.46C81.8317 86.46 101.071 67.1053 101.071 43.23C101.071 19.3547 81.8317 0 58.0982 0C34.3648 0 15.125 19.3547 15.125 43.23C15.125 67.1053 34.3648 86.46 58.0982 86.46Z" fill="white"/>
</mask>
<g mask="url(#mask0_2407_3814)">
<path d="M58.0982 86.459C81.8317 86.459 101.071 67.1043 101.071 43.229C101.071 19.3538 81.8317 -0.000976562 58.0982 -0.000976562C34.3648 -0.000976562 15.125 19.3538 15.125 43.229C15.125 67.1043 34.3648 86.459 58.0982 86.459Z" fill="#8DAFCF"/>
<path opacity="0.44" d="M86.2826 99.357C117.097 99.357 142.077 74.2278 142.077 43.2293C142.077 12.2308 117.097 -12.8984 86.2826 -12.8984C55.4683 -12.8984 30.4883 12.2308 30.4883 43.2293C30.4883 74.2278 55.4683 99.357 86.2826 99.357Z" stroke="#1E0202" stroke-width="1.58108" stroke-miterlimit="10"/>
<path opacity="0.44" d="M29.4232 99.357C60.2376 99.357 85.2176 74.2278 85.2176 43.2293C85.2176 12.2308 60.2376 -12.8984 29.4232 -12.8984C-1.39112 -12.8984 -26.3711 12.2308 -26.3711 43.2293C-26.3711 74.2278 -1.39112 99.357 29.4232 99.357Z" stroke="#1E0202" stroke-width="1.58108" stroke-miterlimit="10"/>
<path opacity="0.44" d="M58.0977 -12.1699V103.47" stroke="#1E0202" stroke-width="1.58108" stroke-miterlimit="10"/>
<path opacity="0.44" d="M115.578 55.668H0.625" stroke="#1E0202" stroke-width="1.58108" stroke-miterlimit="10"/>
<path opacity="0.44" d="M115.576 24.6543H0.623047" stroke="#1E0202" stroke-width="1.58108" stroke-miterlimit="10"/>
</g>
<path d="M100.68 21.5726C97.8538 19.516 94.6434 17.6671 91.1133 16.0625" stroke="#1E0202" stroke-width="1.58108" stroke-miterlimit="10"/>
<path d="M135.319 16.828L108.183 28.614C106.147 26.0727 103.621 23.7147 100.678 21.5725L128.559 9.4608C129.854 8.89879 131.352 9.10242 132.449 9.9943L135.87 12.7677C137.263 13.8999 136.963 16.1153 135.319 16.828Z" stroke="#1E0202" stroke-width="1.58108" stroke-miterlimit="10"/>
<path d="M108.188 28.6133C111.88 33.2153 113.952 38.3996 113.952 43.8772C113.952 62.9652 88.796 78.4408 57.7614 78.4408C26.7267 78.4408 1.57031 62.9652 1.57031 43.8772C1.57031 32.1931 11.003 21.8611 25.4353 15.6016" stroke="#1E0202" stroke-width="1.58108" stroke-miterlimit="10"/>
<path d="M109.3 61.0234C111.256 61.0234 112.842 59.428 112.842 57.46C112.842 55.4919 111.256 53.8965 109.3 53.8965C107.344 53.8965 105.758 55.4919 105.758 57.46C105.758 59.428 107.344 61.0234 109.3 61.0234Z" fill="#F2F1ED" stroke="#1E0202" stroke-width="1.58108" stroke-miterlimit="10"/>
<path d="M12.0097 23.3721H7.54433C7.09269 23.3721 6.72656 23.7404 6.72656 24.1947V28.6867C6.72656 29.1411 7.09269 29.5094 7.54433 29.5094H12.0097C12.4613 29.5094 12.8274 29.1411 12.8274 28.6867V24.1947C12.8274 23.7404 12.4613 23.3721 12.0097 23.3721Z" fill="#F2F1ED" stroke="#1E0202" stroke-width="1.58108" stroke-miterlimit="10"/>
</svg>
