<svg width="138" height="87" viewBox="0 0 138 87" fill="none" xmlns="http://www.w3.org/2000/svg">
<mask id="mask0_2407_3795" style="mask-type:luminance" maskUnits="userSpaceOnUse" x="14" y="0" width="87" height="87">
<path d="M57.4511 86.46C81.3319 86.46 100.691 67.1053 100.691 43.23C100.691 19.3547 81.3319 0 57.4511 0C33.5702 0 14.2109 19.3547 14.2109 43.23C14.2109 67.1053 33.5702 86.46 57.4511 86.46Z" fill="white"/>
</mask>
<g mask="url(#mask0_2407_3795)">
<path d="M57.4511 86.459C81.3319 86.459 100.691 67.1043 100.691 43.229C100.691 19.3538 81.3319 -0.000976562 57.4511 -0.000976562C33.5702 -0.000976562 14.2109 19.3538 14.2109 43.229C14.2109 67.1043 33.5702 86.459 57.4511 86.459Z" fill="#CC9156"/>
<path opacity="0.44" d="M85.8108 99.357C116.817 99.357 141.952 74.2278 141.952 43.2293C141.952 12.2308 116.817 -12.8984 85.8108 -12.8984C54.8051 -12.8984 29.6699 12.2308 29.6699 43.2293C29.6699 74.2278 54.8051 99.357 85.8108 99.357Z" stroke="#1E0202" stroke-width="2.10811" stroke-miterlimit="10"/>
<path opacity="0.44" d="M28.5979 99.357C59.6037 99.357 84.7388 74.2278 84.7388 43.2293C84.7388 12.2308 59.6037 -12.8984 28.5979 -12.8984C-2.40784 -12.8984 -27.543 12.2308 -27.543 43.2293C-27.543 74.2278 -2.40784 99.357 28.5979 99.357Z" stroke="#1E0202" stroke-width="2.10811" stroke-miterlimit="10"/>
<path opacity="0.44" d="M57.4512 -12.1699V103.47" stroke="#1E0202" stroke-width="2.10811" stroke-miterlimit="10"/>
<path opacity="0.44" d="M115.286 55.668H-0.380859" stroke="#1E0202" stroke-width="2.10811" stroke-miterlimit="10"/>
<path opacity="0.44" d="M115.286 24.6543H-0.380859" stroke="#1E0202" stroke-width="2.10811" stroke-miterlimit="10"/>
</g>
<path d="M100.296 21.5726C97.4523 19.516 94.222 17.6671 90.6699 16.0625" stroke="#1E0202" stroke-width="1.58108" stroke-miterlimit="10"/>
<path d="M135.152 16.828L107.847 28.614C105.798 26.0727 103.256 23.7147 100.295 21.5725L128.349 9.4608C129.653 8.89879 131.16 9.10242 132.264 9.9943L135.706 12.7677C137.107 13.8999 136.806 16.1153 135.152 16.828Z" stroke="#1E0202" stroke-width="1.58108" stroke-miterlimit="10"/>
<path d="M108.28 29.3731C111.995 33.9751 114.08 39.1594 114.08 44.637C114.08 63.725 88.7675 79.2006 57.5401 79.2006C26.3127 79.2006 1 63.725 1 44.637C1 32.9529 10.4912 22.6208 25.0132 16.3613" stroke="#1E0202" stroke-width="1.58108" stroke-miterlimit="10"/>
<path d="M108.973 61.0234C110.941 61.0234 112.537 59.428 112.537 57.46C112.537 55.4919 110.941 53.8965 108.973 53.8965C107.004 53.8965 105.408 55.4919 105.408 57.46C105.408 59.428 107.004 61.0234 108.973 61.0234Z" fill="#F2F1ED" stroke="#1E0202" stroke-width="1.58108" stroke-miterlimit="10"/>
<path d="M11.0776 23.3721H6.58457C6.13012 23.3721 5.76172 23.7404 5.76172 24.1947V28.6867C5.76172 29.1411 6.13012 29.5094 6.58457 29.5094H11.0776C11.5321 29.5094 11.9005 29.1411 11.9005 28.6867V24.1947C11.9005 23.7404 11.5321 23.3721 11.0776 23.3721Z" fill="#F2F1ED" stroke="#1E0202" stroke-width="1.58108" stroke-miterlimit="10"/>
</svg>
