<svg width="50" height="51" viewBox="0 0 50 51" fill="none" xmlns="http://www.w3.org/2000/svg">
<path d="M12.9999 3.90901C15.6783 2.32365 18.6506 1.20579 21.9392 0.598848V0.60033L22.0909 0.573772C26.9768 -0.281824 31.7347 0.054042 36.3111 1.96507C39.5452 3.31616 42.1109 5.2657 44.1251 7.67918C46.4945 10.5205 47.8831 13.6389 48.6178 16.95L48.6178 16.9501C49.691 21.7707 49.5685 26.546 48.355 31.2625C47.1298 36.0209 44.7404 40.3294 40.7332 43.9741L40.8203 44.0698L40.7332 43.9741C37.1348 47.2476 31.4165 50.3766 23.9551 50.8218C16.7957 51.2493 11.6407 48.8 8.42109 46.2842C7.33287 45.4331 6.40169 44.5244 5.58251 43.5854C3.17055 40.8139 1.7176 37.7459 0.973353 34.4867C-0.580859 27.6667 -0.039842 21.0293 3.02388 14.6592C5.10058 10.3434 8.32387 6.68209 12.9999 3.90901ZM45.2377 14.8838L45.2274 14.889C43.9231 11.9579 42.2208 9.23864 39.5919 6.91901C36.8479 4.49807 33.1296 1.99869 27.1315 1.50074L27.1314 1.50074C24.7243 1.3012 21.9893 1.47031 19.4296 2.10707C16.7049 2.78445 14.3355 3.94421 12.3843 5.19369C7.26847 8.46872 4.75927 12.3564 3.41891 16.031C2.59001 18.3029 2.18609 20.5485 2.02964 22.7614C1.75488 26.6333 2.36863 30.3919 3.51659 34.0255V34.0356L3.52268 34.0548C4.48728 37.0875 6.00574 39.9633 8.35611 42.5563C10.2863 44.6861 12.615 46.4842 15.5359 47.7335C19.4197 49.3962 24.8844 50.3889 30.9523 48.661C33.7042 47.8783 36.1238 46.689 38.0372 45.3696L38.0373 45.3696C43.0513 41.9097 45.2487 37.6615 46.4056 33.908L46.4056 33.9079C46.7138 32.9049 46.9462 31.9074 47.1228 30.9155L47.1229 30.9152C47.6659 27.8262 47.6049 24.7111 47.0905 21.5814C46.7222 19.3392 46.1219 17.1346 45.2894 15.0156L45.2377 14.8838Z" fill="#F2F1ED" stroke="#F2F1ED" stroke-width="0.258697"/>
<path d="M32.2095 30.1497L35.8323 25.5949L32.6869 21.54H35.0082L37.0181 24.1327L39.0756 21.54H41.3317L38.136 25.5798L41.6934 30.1497H39.3872L36.9653 27.057L34.5284 30.1497H32.207H32.2095Z" fill="#F2F1ED" stroke="#F2F1ED" stroke-width="0.517395" stroke-miterlimit="10"/>
<path d="M22.2474 30.1885H20.5215L25.1516 21.3779H25.8727L30.4827 30.186H28.6211L25.4757 24.1364L22.2449 30.1885H22.2474Z" fill="#F2F1ED" stroke="#F2F1ED" stroke-width="0.517395" stroke-miterlimit="10"/>
<path d="M28.297 26.9854H23.1191V28.4676H28.297V26.9854Z" fill="#F2F1ED" stroke="#F2F1ED" stroke-width="0.517395" stroke-miterlimit="10"/>
<path d="M18.7762 30.1786H16.9146V25.0686L13.9024 29.1837L10.8902 25.0686V30.1786H9.02856V22.8427L8.18945 21.4434H10.2646L13.9024 26.385L17.5427 21.4434H19.6179L18.7787 22.8427V30.1786H18.7762Z" fill="#F2F1ED" stroke="#F2F1ED" stroke-width="0.519982" stroke-miterlimit="10"/>
</svg>
