<svg width="652" height="652" viewBox="0 0 652 652" fill="none" xmlns="http://www.w3.org/2000/svg">
<path d="M326.001 612.13C484.026 612.13 612.13 484.026 612.13 326.001C612.13 167.976 484.026 39.8711 326.001 39.8711C167.976 39.8711 39.8711 167.976 39.8711 326.001C39.8711 484.026 167.976 612.13 326.001 612.13Z" stroke="#1E0202" stroke-width="2" stroke-miterlimit="10"/>
<path opacity="0.3" d="M326 651C505.493 651 651 505.493 651 326C651 146.507 505.493 1 326 1C146.507 1 1 146.507 1 326C1 505.493 146.507 651 326 651Z" stroke="#1E0202" stroke-miterlimit="10"/>
<path d="M315.32 82.2168L457.357 120.275" stroke="#1E0202"/>
<path d="M249.934 94.4316L506.228 163.106" stroke="#1E0202"/>
<path d="M262.402 560.988C392.458 595.837 526.14 518.656 560.988 388.599C595.837 258.543 518.655 124.861 388.599 90.0128C258.543 55.1643 124.861 132.346 90.0126 262.402C55.1641 392.458 132.345 526.14 262.402 560.988Z" stroke="#1E0202" stroke-width="2"/>
<path d="M89.5117 262.269L561.274 388.677" stroke="#1E0202"/>
<path d="M83.3398 324.488L537.942 446.298" stroke="#1E0202"/>
<path d="M88.2617 383.053L502.072 493.933" stroke="#1E0202"/>
<path d="M110.881 440.345L454.514 532.421" stroke="#1E0202"/>
<path d="M144.521 487.828L400.816 556.502" stroke="#1E0202"/>
<path d="M195.041 531.1L336.041 568.88" stroke="#1E0202"/>
<path d="M115.277 205.297L569.879 327.107" stroke="#1E0202"/>
<path d="M150.002 157.354L561.346 267.574" stroke="#1E0202"/>
<path d="M197.057 118.734L540.689 210.81" stroke="#1E0202"/>
<path d="M385.426 101.425L265.254 549.913" stroke="#1E0202"/>
<path d="M334.107 87.175C257.479 99.0206 183.95 174.805 155.758 280.018C127.566 385.232 153.352 487.627 213.791 536.2" stroke="#1E0202"/>
<path d="M350.113 91.5028C293.996 108.883 235.313 188.607 207.131 293.784C178.949 398.962 189.855 497.256 229.754 540.401" stroke="#1E0202"/>
<path d="M366.842 96.1386C334.041 119.881 292.323 204.074 264.189 309.073C236.054 414.072 230.111 507.468 246.527 544.589" stroke="#1E0202"/>
<path d="M321.513 83.8386C227.787 91.1411 141.862 163.566 113.68 268.743C85.4975 373.921 123.672 479.559 201.19 532.747" stroke="#1E0202"/>
<path d="M436.996 114.744C497.435 163.317 523.221 265.712 495.029 370.926C466.837 476.139 393.308 551.923 316.68 563.769" stroke="#1E0202"/>
<path d="M420.934 110.479C460.842 153.588 471.801 251.973 443.619 357.15C415.437 462.328 356.844 542 300.718 559.415" stroke="#1E0202"/>
<path d="M404.164 106.139C420.699 143.1 414.731 236.873 386.597 341.872C358.463 446.871 316.912 530.725 284.135 554.666" stroke="#1E0202"/>
<path d="M449.535 118.143C527.089 171.339 565.254 277.014 537.072 382.191C508.889 487.369 423.01 559.767 329.284 567.07" stroke="#1E0202"/>
<circle cx="110.052" cy="388.625" r="7.05814" fill="#F2F1ED" stroke="#1E0202"/>
<circle cx="495.519" cy="371.349" r="7.05814" fill="#F2F1ED" stroke="#1E0202"/>
<circle cx="250.419" cy="369.189" r="7.05814" fill="#F2F1ED" stroke="#1E0202"/>
<circle cx="398.341" cy="466.366" r="7.05814" fill="#F2F1ED" stroke="#1E0202"/>
<circle cx="410.218" cy="227.744" r="6.80814" fill="#F2F1ED" stroke="#1E0202" stroke-width="1.5"/>
<circle cx="178.076" cy="222.346" r="7.05814" fill="#F2F1ED" stroke="#1E0202"/>
<circle cx="283.89" cy="141.366" r="7.05814" fill="#F2F1ED" stroke="#1E0202"/>
<circle cx="207.23" cy="504.156" r="7.05814" fill="#F2F1ED" stroke="#1E0202"/>
<circle cx="443.691" cy="146.764" r="7.05814" fill="#F2F1ED" stroke="#1E0202"/>
<circle cx="282.576" cy="247.576" r="13.5764" fill="#CC9156" stroke="black" stroke-width="2"/>
</svg>
