<svg width="24" height="24" viewBox="0 0 24 24" fill="none" xmlns="http://www.w3.org/2000/svg">
<circle cx="12" cy="12" r="12" fill="#CC9156"/>
<path d="M19.6786 8.39147C19.5925 8.0845 19.4249 7.80657 19.1935 7.58725C18.9556 7.36118 18.664 7.19947 18.3462 7.11738C17.157 6.80392 12.3924 6.80392 12.3924 6.80392C10.4062 6.78132 8.42035 6.88072 6.44624 7.10155C6.12847 7.1897 5.83742 7.35503 5.59896 7.58282C5.36466 7.80825 5.19495 8.08625 5.10629 8.39084C4.89333 9.53812 4.78985 10.703 4.79727 11.8699C4.78967 13.0357 4.89289 14.2003 5.10629 15.349C5.19305 15.6523 5.36212 15.929 5.59706 16.1526C5.83199 16.3761 6.12455 16.5376 6.44624 16.6231C7.65132 16.9359 12.3924 16.9359 12.3924 16.9359C14.3813 16.9585 16.3696 16.8591 18.3462 16.6383C18.664 16.5562 18.9556 16.3945 19.1935 16.1684C19.4248 15.9491 19.5923 15.6712 19.678 15.3642C19.8965 14.2173 20.0027 13.0519 19.9952 11.8845C20.0117 10.7121 19.9055 9.54118 19.6786 8.39084V8.39147ZM10.8777 14.0381V9.7023L14.8418 11.8705L10.8777 14.0381Z" fill="#1E0202"/>
</svg>
