<?xml version="1.0" standalone="no"?>
<!DOCTYPE svg PUBLIC "-//W3C//DTD SVG 1.1//EN" "http://www.w3.org/Graphics/SVG/1.1/DTD/svg11.dtd" >
<svg xmlns="http://www.w3.org/2000/svg" xmlns:xlink="http://www.w3.org/1999/xlink" version="1.1">
<metadata>
Created by FontForge 20170731 at Thu Oct  5 16:22:19 2023
 By Aleksey,,,
Copyright (c) 2021 by Mathieu Desjardins. All rights reserved.
</metadata>
<defs>
<font id="PPFormula-CondensedBlack" horiz-adv-x="921" >
  <font-face 
    font-family="PP Formula Compressed"
    font-weight="900"
    font-stretch="extra-condensed"
    units-per-em="2048"
    panose-1="0 0 0 0 0 0 0 0 0 0"
    ascent="1638"
    descent="-410"
    x-height="1331"
    cap-height="1638"
    bbox="-274 -453 3187 2062"
    underline-thickness="81"
    underline-position="-285"
    unicode-range="U+0020-FB02"
  />
<missing-glyph horiz-adv-x="1024" 
d="M840 1638v-2048h-650v2048h650zM342 -268h340v67h-209l143 97h66v67h-340v-67h143l-143 -97v-67zM342 10h340v232h-340v-232zM342 365h340v231h-205v-115h70v47h67v-96h-204v164h-68v-231zM342 641h340v205h-68v-135h-272v-70zM342 758h205v143h135v68h-340v-68h135v-76
h-135v-67zM342 1024h340v70h-135v143h-205v-213zM342 1290h340v68h-135v76h135v67h-338v-67h133v-76h-135v-68zM410 78v96h204v-96h-204zM410 1094v73h67v-73h-67z" />
    <glyph glyph-name="fi" unicode="fi" horiz-adv-x="1122" 
d="M4 1331h117q1 77 16 132.5t52 102t107 70t173 23.5q96 0 195 -21v-249q-24 -3 -56 -3q-78 0 -110.5 -17.5t-32.5 -72.5v-57q18 33 40.5 53t52 28t49.5 9.5t57 1.5v-297h-199v-1034h-344v1034h-117v297zM709 1524q0 135 194 135q195 0 195 -135q0 -131 -195 -131
q-194 0 -194 131zM731 0v1331h344v-1331h-344z" />
    <glyph glyph-name="fl" unicode="fl" horiz-adv-x="1122" 
d="M4 1331h117q1 77 16 132.5t52 102t107 70t173 23.5q96 0 195 -21v-249q-24 -3 -56 -3q-78 0 -110.5 -17.5t-32.5 -72.5v-57q18 33 40.5 53t52 28t49.5 9.5t57 1.5v-297h-199v-1034h-344v1034h-117v297zM731 0v1638h344v-1638h-344z" />
    <glyph glyph-name=".notdef" horiz-adv-x="1024" 
d="M840 1638v-2048h-650v2048h650zM342 -268h340v67h-209l143 97h66v67h-340v-67h143l-143 -97v-67zM342 10h340v232h-340v-232zM342 365h340v231h-205v-115h70v47h67v-96h-204v164h-68v-231zM342 641h340v205h-68v-135h-272v-70zM342 758h205v143h135v68h-340v-68h135v-76
h-135v-67zM342 1024h340v70h-135v143h-205v-213zM342 1290h340v68h-135v76h135v67h-338v-67h133v-76h-135v-68zM410 78v96h204v-96h-204zM410 1094v73h67v-73h-67z" />
    <glyph glyph-name=".null" horiz-adv-x="0" 
 />
    <glyph glyph-name="nonmarkingreturn" horiz-adv-x="682" 
 />
    <glyph glyph-name="space" unicode=" " horiz-adv-x="409" 
 />
    <glyph glyph-name="exclam" unicode="!" horiz-adv-x="454" 
d="M55 1638h342l-24 -1126h-293zM43 162q0 84 53.5 135t132.5 51t131 -51t52 -135q0 -82 -52.5 -132t-130.5 -50q-79 0 -132.5 50.5t-53.5 131.5z" />
    <glyph glyph-name="quotedbl" unicode="&#x22;" horiz-adv-x="471" 
d="M41 1638h164v-512h-164v512zM266 1126v512h164v-512h-164z" />
    <glyph glyph-name="numbersign" unicode="#" horiz-adv-x="1505" 
d="M186 1139h389l187 499h104l-186 -499h346l186 499h105l-187 -499h334v-107h-372l-158 -426h373v-106h-412l-186 -500h-105l187 500h-347l-186 -500h-104l186 500h-311v106h350l158 426h-351v107zM483 606h346l158 426h-346z" />
    <glyph glyph-name="dollar" unicode="$" horiz-adv-x="925" 
d="M401 -143v125q-188 12 -277 111.5t-89 291.5v164h311v-168q0 -82 55 -105v410l-141 86q-81 49 -129 106.5t-73 145.5t-25 217q0 201 92.5 301.5t275.5 114.5v125h123v-125q172 -12 266.5 -97.5t94.5 -234.5v-199h-310v136q0 78 -51 98v-379l115 -72q55 -34 90 -61t69 -67
t52.5 -87t29.5 -115t11 -157q0 -224 -86.5 -326t-280.5 -114v-125h-123zM342 1196q0 -51 13.5 -80t45.5 -55v305q-59 -19 -59 -104v-66zM524 274q56 17 56 107v82q0 54 -13 86.5t-43 56.5v-332z" />
    <glyph glyph-name="percent" unicode="%" horiz-adv-x="1363" 
d="M322 0l608 1638h108l-608 -1638h-108zM18 1290q0 69 16.5 131.5t51.5 117.5t97.5 87.5t146.5 32.5t146.5 -32.5t97 -87.5t51 -117.5t16.5 -131.5t-16.5 -131.5t-51 -117t-97 -87t-146.5 -32.5t-146.5 32.5t-97.5 87t-51.5 117t-16.5 131.5zM244 1290q0 -86 17.5 -119.5
t68.5 -33.5t68.5 33.5t17.5 119.5t-17.5 120t-68.5 34t-68.5 -34t-17.5 -120zM723 348q0 69 16.5 131.5t51 117.5t97 87.5t146.5 32.5t146.5 -32.5t97.5 -87.5t51.5 -117.5t16.5 -131.5t-16.5 -131.5t-51.5 -117t-97.5 -87t-146.5 -32.5t-146.5 32.5t-97 87t-51 117
t-16.5 131.5zM948 348q0 -86 17.5 -119.5t68.5 -33.5t68.5 33.5t17.5 119.5t-17.5 120t-68.5 34t-68.5 -34t-17.5 -120z" />
    <glyph glyph-name="ampersand" unicode="&#x26;" horiz-adv-x="1001" 
d="M459 -20q-214 0 -314 112t-100 348v49q0 153 52.5 241.5t140.5 115.5q-189 65 -189 348v55q0 22 1 42t9.5 64.5t23.5 80.5t47 79.5t75 73t112.5 50t155.5 20.5q193 0 296 -107t103 -323v-82h-352v139q0 44 -11 65t-42 21t-42 -20t-11 -64v-233q0 -44 11.5 -64t43.5 -20
h51v96h352v-96h97v-273h-97v-282q0 -227 -104 -331.5t-309 -104.5zM410 350q0 -44 11.5 -64t43.5 -20t43.5 21t11.5 65v346h-55q-32 0 -43.5 -20t-11.5 -64v-264z" />
    <glyph glyph-name="quotesingle" unicode="'" horiz-adv-x="245" 
d="M41 1638h164v-512h-164v512z" />
    <glyph glyph-name="parenleft" unicode="(" horiz-adv-x="464" 
d="M373 -301q-180 247 -260 486.5t-80 521.5q0 284 80 519.5t260 483.5h112q-189 -267 -269.5 -493t-80.5 -510q0 -285 79.5 -510.5t270.5 -497.5h-112z" />
    <glyph glyph-name="parenright" unicode=")" horiz-adv-x="464" 
d="M92 1714q180 -247 260 -486t80 -521q0 -284 -80 -520t-260 -484h-112q189 267 269.5 493.5t80.5 510.5q0 285 -79.5 510t-270.5 497h112z" />
    <glyph glyph-name="asterisk" unicode="*" horiz-adv-x="598" 
d="M258 1659h82v-240l190 101l41 -70l-186 -98l186 -99l-41 -69l-190 100v-240h-82v240l-190 -100l-41 69l186 99l-186 98l41 70l190 -101v240z" />
    <glyph glyph-name="plus" unicode="+" horiz-adv-x="913" 
d="M37 768v92h369v373h102v-373h369v-92h-369v-375h-102v375h-369z" />
    <glyph glyph-name="comma" unicode="," horiz-adv-x="415" 
d="M68 -127q83 18 145 62t88 114q-27 -35 -55.5 -52t-71.5 -17q-65 0 -109.5 47.5t-44.5 134.5q0 85 53 135.5t134 50.5q90 0 138 -60.5t48 -162.5q0 -117 -86.5 -227.5t-238.5 -184.5v160z" />
    <glyph glyph-name="hyphen" unicode="-" horiz-adv-x="876" 
d="M18 719h840v-86h-840v86z" />
    <glyph glyph-name="period" unicode="." horiz-adv-x="405" 
d="M205 -20q-79 0 -133 50.5t-54 131.5q0 84 54 135t133 51q78 0 130 -51t52 -135q0 -82 -52 -132t-130 -50z" />
    <glyph glyph-name="slash" unicode="/" horiz-adv-x="749" 
d="M731 1638l-608 -1638h-105l609 1638h104z" />
    <glyph glyph-name="zero" unicode="0" horiz-adv-x="950" 
d="M475 -20q-207 0 -312.5 122.5t-105.5 378.5v676q0 502 418 502t418 -502v-676q0 -256 -105.5 -378.5t-312.5 -122.5zM422 348q0 -43 11 -62.5t42 -19.5t42 19.5t11 62.5v443l-106 -179v-264zM422 846l106 178v262q0 44 -11 65t-42 21t-42 -20t-11 -64v-442z" />
    <glyph glyph-name="one" unicode="1" horiz-adv-x="804" 
d="M45 295h197v940q-14 -20 -21 -27.5t-29.5 -21.5t-60 -19.5t-94.5 -5.5v320q191 0 254 157h307v-1343h197v-295h-750v295z" />
    <glyph glyph-name="two" unicode="2" horiz-adv-x="919" 
d="M47 336q0 67 9.5 126.5t21.5 101t37 84t40.5 65t48.5 54t44.5 40.5t44.5 35l96 76q47 38 72 69.5t41 88t16 141.5v69q0 44 -11 65t-42 21t-42 -20t-11 -64v-188h-365v125q0 208 110 321t308 113q196 0 307 -120.5t111 -350.5q0 -302 -232 -500l-108 -92
q-74 -62 -102.5 -129t-28.5 -172h462v-295h-827v336z" />
    <glyph glyph-name="three" unicode="3" horiz-adv-x="909" 
d="M459 -20q-210 0 -316 104.5t-106 331.5v96h356v-162q0 -44 12 -64t44 -20t43.5 21t11.5 65v242q0 44 -11 65t-42 21h-158v297h153q31 0 42.5 21t11.5 65v223q0 44 -11.5 65t-42.5 21t-42 -20t-11 -64v-141h-356v82q0 430 412 430q83 0 149.5 -20.5t108 -51t72 -74
t44.5 -80t22.5 -80.5t9.5 -64t1 -40v-55q0 -140 -47 -221t-139 -123q190 -83 190 -361v-49q0 -235 -98 -347.5t-303 -112.5z" />
    <glyph glyph-name="four" unicode="4" horiz-adv-x="913" 
d="M803 1638v-1071h69v-295h-69v-272h-357v272h-413v344l436 1022h334zM250 567h196v512z" />
    <glyph glyph-name="five" unicode="5" 
d="M606 1098q44 0 80.5 -9.5t73.5 -36t62 -70t41 -116.5t16 -170v-166q0 -289 -105 -419.5t-317 -130.5q-203 0 -308.5 117.5t-105.5 355.5v59h365v-162q0 -44 11 -64t42 -20t42 21t11 65v336q0 53 -10.5 76.5t-38.5 23.5q-57 0 -57 -100h-355l41 950h719v-295h-397
l-23 -364q70 119 213 119z" />
    <glyph glyph-name="six" unicode="6" horiz-adv-x="937" 
d="M479 -20q-215 0 -319.5 127t-104.5 395v547q0 224 49.5 359.5t143.5 193t246 57.5q188 0 285.5 -106.5t97.5 -319.5v-47h-357v43q0 44 -10 65t-39 21q-30 0 -40.5 -20t-10.5 -64v-227q73 94 196 94q275 0 275 -422v-207q0 -243 -109.5 -366t-302.5 -123zM420 350
q0 -44 11 -64t44 -20q30 0 40.5 21t10.5 65v350q0 44 -10.5 65t-42.5 21t-42.5 -19.5t-10.5 -63.5v-355z" />
    <glyph glyph-name="seven" unicode="7" horiz-adv-x="768" 
d="M14 1341v297h729v-297q-52 -99 -93 -204.5t-66.5 -190.5t-43.5 -194t-26.5 -175t-12.5 -176.5t-4.5 -155.5t-0.5 -151v-94h-355v94q0 146 10.5 274.5t40.5 292t95 337t162 343.5h-435z" />
    <glyph glyph-name="eight" unicode="8" horiz-adv-x="933" 
d="M467 -20q-418 0 -418 417v74q0 100 21.5 176.5t58 121t76.5 68.5t86 31q-47 6 -87.5 27.5t-76 60.5t-56 105.5t-20.5 152.5v50q0 192 107 293.5t309 101.5t309 -101.5t107 -293.5v-50q0 -86 -20.5 -152.5t-56 -105.5t-76 -60.5t-87.5 -27.5q46 -7 86 -31t76.5 -68.5
t58 -121t21.5 -176.5v-74q0 -417 -418 -417zM414 350q0 -44 11 -64t42 -20t42 20.5t11 65.5v269q0 44 -11 65t-42 21t-42 -20t-11 -64v-273zM414 1094q0 -44 11 -64t42 -20t42 21t11 65v190q0 44 -11 65t-42 21t-42 -20t-11 -64v-194z" />
    <glyph glyph-name="nine" unicode="9" horiz-adv-x="937" 
d="M459 1659q215 0 319.5 -127t104.5 -395v-547q0 -224 -49.5 -359.5t-143.5 -193t-246 -57.5q-188 0 -285.5 106.5t-97.5 319.5v47h357v-43q0 -44 10 -65t39 -21q30 0 40.5 20t10.5 64v227q-73 -94 -196 -94q-275 0 -275 422v206q0 243 109.5 366.5t302.5 123.5zM412 936
q0 -44 10.5 -65t42.5 -21t42.5 20t10.5 64v354q0 44 -11 64t-44 20q-30 0 -40.5 -21t-10.5 -65v-350z" />
    <glyph glyph-name="colon" unicode=":" horiz-adv-x="450" 
d="M227 788q-78 0 -132 51t-54 132q0 84 53.5 135t132.5 51t131 -51t52 -135q0 -82 -52.5 -132.5t-130.5 -50.5zM41 162q0 84 53.5 135t132.5 51t131 -51t52 -135q0 -82 -52.5 -132t-130.5 -50q-79 0 -132.5 50.5t-53.5 131.5z" />
    <glyph glyph-name="semicolon" unicode=";" horiz-adv-x="454" 
d="M227 788q-78 0 -132 51t-54 132q0 84 53.5 135t132.5 51t131 -51t52 -135q0 -82 -52.5 -132.5t-130.5 -50.5zM43 162q0 85 52.5 135.5t133.5 50.5q90 0 138.5 -60.5t48.5 -162.5q0 -116 -86.5 -227t-239.5 -185v160q84 18 146 62t88 114q-27 -35 -55.5 -52t-71.5 -17
q-65 0 -109.5 47.5t-44.5 134.5z" />
    <glyph glyph-name="less" unicode="&#x3c;" horiz-adv-x="927" 
d="M35 852l839 326v-103l-696 -264l696 -264v-103l-839 326v82z" />
    <glyph glyph-name="equal" unicode="=" horiz-adv-x="942" 
d="M51 956h840v-86h-840v86zM51 666v86h840v-86h-840z" />
    <glyph glyph-name="greater" unicode="&#x3e;" horiz-adv-x="927" 
d="M893 770l-840 -326v103l697 264l-697 264v103l840 -326v-82z" />
    <glyph glyph-name="question" unicode="?" horiz-adv-x="870" 
d="M434 1659q194 0 305 -109t111 -293q0 -77 -20.5 -142.5t-51.5 -109t-67.5 -94.5t-67.5 -98.5t-51.5 -121t-20.5 -161.5v-18h-295v39q0 100 15.5 182t39 132.5t51 100.5t51 88t39 93t15.5 119q0 62 -10.5 84t-42.5 22q-31 0 -42 -20t-11 -64v-141h-363v49
q0 230 107.5 346.5t308.5 116.5zM238 162q0 84 53.5 135t132.5 51q78 0 130 -51t52 -135q0 -82 -52 -132t-130 -50q-79 0 -132.5 50.5t-53.5 131.5z" />
    <glyph glyph-name="at" unicode="@" horiz-adv-x="1191" 
d="M692 -74q-316 0 -487.5 190.5t-171.5 581.5q0 157 32 285.5t87.5 216t132.5 147.5t164 87.5t184 27.5q99 0 177.5 -24t144.5 -79.5t110 -143.5t68 -220.5t24 -306.5q0 -120 -10 -203.5t-34 -149.5t-68.5 -98t-110.5 -32q-68 0 -119 36.5t-78 100.5q-61 -137 -200 -137
q-130 0 -209.5 129t-79.5 354t79.5 354t209.5 129q113 0 174 -102v82h204v-670q0 -110 8.5 -151t39.5 -41q92 0 92 399q0 160 -18.5 279.5t-52.5 197.5t-87 126t-115.5 67.5t-144.5 19.5q-80 0 -152 -23.5t-136.5 -75.5t-111.5 -129.5t-74.5 -193.5t-27.5 -258
q0 -181 39.5 -314.5t114.5 -214.5t175.5 -120t229.5 -39q174 0 326 64v-84q-156 -64 -328 -64zM453 688q0 -154 28.5 -228.5t110.5 -74.5q18 0 32.5 3t25.5 11t20 15.5t15.5 24t11 28t7 35t4 38.5t2.5 45.5t1 48v54.5q0 58 -0.5 88.5t-4 72t-11 62t-20.5 42t-33.5 30
t-49.5 8.5q-82 0 -110.5 -74.5t-28.5 -228.5z" />
    <glyph glyph-name="A" unicode="A" horiz-adv-x="886" 
d="M0 0l197 1638h493l197 -1638h-363l-14 244h-133l-15 -244h-362zM393 541h99l-41 714l-5 52h-8l-4 -52z" />
    <glyph glyph-name="B" unicode="B" horiz-adv-x="909" 
d="M51 0v1638h418q92 0 164 -23t117.5 -61.5t75 -94t41.5 -116t12 -131.5v-38q0 -130 -51.5 -204.5t-151.5 -111.5q207 -84 207 -346v-35q0 -239 -91 -358t-311 -119h-430zM408 297h26q48 0 66 20t18 78v195q0 58 -18 78t-66 20h-26v-391zM408 985h22q48 0 66 20t18 78v160
q0 57 -17.5 77.5t-64.5 20.5h-24v-356z" />
    <glyph glyph-name="C" unicode="C" horiz-adv-x="905" 
d="M459 -20q-418 0 -418 501v676q0 502 418 502t418 -502v-184h-365v315q0 47 -12 65.5t-41 18.5t-41 -18.5t-12 -65.5v-940q0 -46 12 -64t41 -18t41 18t12 64v318h365v-185q0 -501 -418 -501z" />
    <glyph glyph-name="D" unicode="D" 
d="M51 0v1638h377q134 0 220 -22.5t138 -77.5t72.5 -136.5t20.5 -209.5v-746q0 -126 -20.5 -207.5t-72.5 -137t-138 -78.5t-220 -23h-377zM408 266h26q46 0 63 21t17 78v909q0 58 -18 78t-66 20h-22v-1106z" />
    <glyph glyph-name="E" unicode="E" horiz-adv-x="741" 
d="M51 0v1638h656v-297h-299v-374h278v-295h-278v-375h299v-297h-656z" />
    <glyph glyph-name="F" unicode="F" horiz-adv-x="731" 
d="M51 0v1638h656v-297h-299v-456h299v-295h-299v-590h-357z" />
    <glyph glyph-name="G" unicode="G" 
d="M410 -20q-167 0 -268 121.5t-101 355.5v700q0 502 418 502t418 -502v-199h-365v330q0 47 -12 65.5t-41 18.5t-41 -18.5t-12 -65.5v-940q0 -45 12 -63.5t41 -18.5t41 18.5t12 61.5v238h-53v272h418v-856h-144l-49 100q-111 -120 -274 -120z" />
    <glyph glyph-name="H" unicode="H" 
d="M514 0v672h-106v-672h-357v1638h357v-671h106v671h356v-1638h-356z" />
    <glyph glyph-name="I" unicode="I" horiz-adv-x="458" 
d="M51 0v1638h357v-1638h-357z" />
    <glyph glyph-name="J" unicode="J" horiz-adv-x="894" 
d="M430 -20q-418 0 -418 501v88h365v-221q0 -46 12 -64t41 -18t41 18t12 64v1290h365v-1157q0 -501 -418 -501z" />
    <glyph glyph-name="K" unicode="K" horiz-adv-x="913" 
d="M551 0l-115 659h-28v-659h-357v1638h357v-659h28l115 659h367l-175 -819l175 -819h-367z" />
    <glyph glyph-name="L" unicode="L" horiz-adv-x="731" 
d="M51 0v1638h357v-1341h307v-297h-664z" />
    <glyph glyph-name="M" unicode="M" horiz-adv-x="1150" 
d="M51 0v1638h398l126 -796l127 796h398v-1638h-316v780l-139 -780h-139l-139 780v-780h-316z" />
    <glyph glyph-name="N" unicode="N" horiz-adv-x="935" 
d="M51 0v1638h316l202 -782v782h316v-1638h-316l-202 784v-784h-316z" />
    <glyph glyph-name="O" unicode="O" horiz-adv-x="917" 
d="M459 -20q-207 0 -312.5 122.5t-105.5 378.5v676q0 502 418 502t418 -502v-676q0 -256 -105.5 -378.5t-312.5 -122.5zM406 348q0 -43 11 -62.5t42 -19.5t42 19.5t11 62.5v938q0 44 -11 65t-42 21t-42 -20t-11 -64v-940z" />
    <glyph glyph-name="P" unicode="P" horiz-adv-x="901" 
d="M51 0v1638h357q182 0 283 -48t146.5 -161t45.5 -317v-61q0 -152 -23.5 -250.5t-80.5 -161.5t-146 -89t-225 -26v-524h-357zM408 791h55q55 0 55 94v393q0 94 -55 94h-55v-581z" />
    <glyph glyph-name="Q" unicode="Q" horiz-adv-x="917" 
d="M459 266q31 0 42 19.5t11 62.5v938q0 44 -11 65t-42 21t-42 -20t-11 -64v-940q0 -43 11 -62.5t42 -19.5zM41 481v676q0 502 418 502t418 -502v-676q0 -441 -324 -495q118 -16 233 -84v-260q-138 75 -241.5 106t-241.5 35v217h2q-264 81 -264 481z" />
    <glyph glyph-name="R" unicode="R" horiz-adv-x="917" 
d="M541 0q-23 29 -23 145v381q0 95 -55 95h-55v-621h-357v1638h410q118 0 195 -20t129.5 -69.5t75 -130.5t22.5 -206v-22q0 -141 -20.5 -225t-61.5 -127.5t-115 -71.5q58 -22 98 -55.5t61 -74.5t29.5 -83t8.5 -92v-316q0 -95 22 -145h-364zM408 887h55q55 0 55 94v297
q0 94 -55 94h-55v-485z" />
    <glyph glyph-name="S" unicode="S" horiz-adv-x="880" 
d="M440 -20q-415 0 -415 499v94h364v-225q0 -46 12 -64t41 -18t41.5 18.5t12.5 63.5v125q0 59 -19 94.5t-61 69.5l-160 131q-117 97 -175 198.5t-58 252.5q0 209 108 324.5t311 115.5q194 0 302 -109t108 -305v-137h-363v182q0 46 -12 64t-41 18q-28 0 -39.5 -18.5
t-11.5 -63.5v-84q0 -59 19 -94.5t61 -69.5l158 -129q49 -40 77.5 -66.5t63 -69.5t53 -86t31 -105t12.5 -137q0 -234 -106 -351.5t-314 -117.5z" />
    <glyph glyph-name="T" unicode="T" horiz-adv-x="831" 
d="M238 0v1341h-222v297h799v-297h-221v-1341h-356z" />
    <glyph glyph-name="U" unicode="U" horiz-adv-x="929" 
d="M465 -20q-209 0 -313.5 114.5t-104.5 366.5v1177h365v-1290q0 -43 11 -62.5t42 -19.5t42 19.5t11 62.5v1290h365v-1177q0 -252 -104.5 -366.5t-313.5 -114.5z" />
    <glyph glyph-name="V" unicode="V" horiz-adv-x="886" 
d="M197 0l-197 1638h362l74 -1255l4 -51h9l4 51l71 1255h363l-197 -1638h-493z" />
    <glyph glyph-name="W" unicode="W" horiz-adv-x="1497" 
d="M190 0l-188 1638h354l66 -1155l4 -51h8l4 51l103 1155h417l103 -1155l4 -51h8l4 51l64 1155h354l-188 -1638h-478l-71 1069l-4 51h-9l-4 -51l-71 -1069h-480z" />
    <glyph glyph-name="X" unicode="X" horiz-adv-x="880" 
d="M-14 0l247 825l-239 813h348l107 -510l106 510h336l-244 -815l244 -823h-348l-111 522l-110 -522h-336z" />
    <glyph glyph-name="Y" unicode="Y" horiz-adv-x="856" 
d="M250 0v573l-281 1065h365l86 -591l4 -52h8l4 52l86 591h365l-281 -1065v-573h-356z" />
    <glyph glyph-name="Z" unicode="Z" horiz-adv-x="772" 
d="M23 0v297l364 1044h-364v297h727v-297l-365 -1044h365v-297h-727z" />
    <glyph glyph-name="bracketleft" unicode="[" horiz-adv-x="425" 
d="M430 1714v-86h-264v-1843h264v-86h-367v2015h367z" />
    <glyph glyph-name="backslash" unicode="\" horiz-adv-x="749" 
d="M18 1638h105l608 -1638h-104z" />
    <glyph glyph-name="bracketright" unicode="]" horiz-adv-x="425" 
d="M-4 -301v86h264v1843h-264v86h366v-2015h-366z" />
    <glyph glyph-name="asciicircum" unicode="^" horiz-adv-x="684" 
d="M555 1024l-213 524l-213 -524h-111l250 614h148l250 -614h-111z" />
    <glyph glyph-name="underscore" unicode="_" horiz-adv-x="1187" 
d="M0 -139h1188v-107h-1188v107z" />
    <glyph glyph-name="grave" unicode="`" horiz-adv-x="993" 
d="M788 1532l-20 -78l-563 150l20 79z" />
    <glyph glyph-name="a" unicode="a" horiz-adv-x="872" 
d="M498 0v168q-71 -188 -238 -188q-115 0 -182.5 84t-67.5 255q0 70 18.5 133.5t45 107.5t66.5 85t70.5 64t68.5 47l59 37q41 25 59.5 38.5t44 36t35.5 46.5t10 53v26q0 36 -11.5 54t-43.5 18t-43.5 -18t-11.5 -54v-114h-344v36q0 229 97.5 333t303.5 104t301.5 -104.5
t95.5 -332.5v-915h-333zM360 391q0 -90 60 -90q40 0 53.5 45.5t13.5 153.5v110q-5 -18 -45 -63l-30 -33q-52 -55 -52 -123z" />
    <glyph glyph-name="b" unicode="b" horiz-adv-x="888" 
d="M47 0v1638h344v-458q37 78 92.5 125t147.5 47q219 0 219 -328v-754q0 -290 -221 -290q-79 0 -129 30t-109 94v-104h-344zM391 352q0 -44 11 -64t42 -20t42.5 21t11.5 65v621q0 44 -11.5 65t-42.5 21t-42 -20t-11 -64v-625z" />
    <glyph glyph-name="c" unicode="c" horiz-adv-x="862" 
d="M492 963q0 58 -10.5 80t-43.5 22q-34 0 -43.5 -21.5t-9.5 -80.5v-594q0 -59 9.5 -81t43.5 -22q33 0 43.5 22.5t10.5 80.5v153h352v-65q0 -251 -103 -364t-303 -113q-201 0 -303 113t-102 364v417q0 251 102 364.5t303 113.5q200 0 303 -113.5t103 -364.5v-65h-352v154z
" />
    <glyph glyph-name="d" unicode="d" horiz-adv-x="888" 
d="M498 1638h344v-1638h-344v152q-37 -78 -92.5 -125t-147.5 -47q-219 0 -219 327v754q0 291 221 291q79 0 129 -30.5t109 -94.5v411zM391 356q0 -44 11 -65t42 -21t42.5 20t11.5 64v625q0 44 -11.5 64t-42.5 20t-42 -21t-11 -65v-621z" />
    <glyph glyph-name="e" unicode="e" horiz-adv-x="876" 
d="M33 457v417q0 251 102 364.5t303 113.5q200 0 303 -113.5t103 -364.5v-303h-459v-202q0 -59 9.5 -81t43.5 -22q33 0 43.5 22.5t10.5 80.5v120h352v-32q0 -251 -103 -364t-303 -113q-201 0 -303 113t-102 364zM385 819h107v144q0 58 -10.5 80t-43.5 22q-34 0 -43.5 -21.5
t-9.5 -80.5v-144z" />
    <glyph glyph-name="f" unicode="f" horiz-adv-x="671" 
d="M4 1331h117q1 77 16 132.5t52 102t107 70t173 23.5q96 0 195 -21v-249q-24 -3 -56 -3q-78 0 -110.5 -17.5t-32.5 -72.5v-57q18 33 40.5 53t52 28t49.5 9.5t57 1.5v-297h-199v-1034h-344v1034h-117v297z" />
    <glyph glyph-name="g" unicode="g" horiz-adv-x="886" 
d="M498 20v132q-37 -78 -92.5 -125t-147.5 -47q-219 0 -219 327v754q0 291 221 291q79 0 129 -30.5t109 -94.5v104h344v-1308q0 -102 -8 -168.5t-29 -121t-60.5 -84t-100 -44.5t-150.5 -15h-381v297h286q26 0 40.5 3t30 15.5t22 40.5t6.5 74zM391 356q0 -44 11 -65t42 -21
t42.5 20t11.5 64v625q0 44 -11.5 64t-42.5 20t-42 -21t-11 -65v-621z" />
    <glyph glyph-name="h" unicode="h" horiz-adv-x="882" 
d="M391 1638v-456q29 68 88 119t146 51q55 0 95 -19.5t63 -50.5t36 -81t17 -98.5t4 -115.5v-987h-342v963q0 58 -10.5 80t-43.5 22q-32 0 -42.5 -22t-10.5 -80v-963h-344v1638h344z" />
    <glyph glyph-name="i" unicode="i" horiz-adv-x="438" 
d="M47 1331h344v-1331h-344v1331zM25 1524q0 135 194 135q195 0 195 -135q0 -131 -195 -131q-194 0 -194 131z" />
    <glyph glyph-name="j" unicode="j" horiz-adv-x="438" 
d="M47 23v1308h344v-1304q0 -86 -5 -145.5t-19.5 -111.5t-38.5 -83.5t-63.5 -54.5t-93.5 -32.5t-130 -9.5h-182v297h86q27 0 42.5 3.5t31 16t22 41t6.5 75.5zM25 1524q0 135 194 135q195 0 195 -135q0 -131 -195 -131q-194 0 -194 131z" />
    <glyph glyph-name="k" unicode="k" horiz-adv-x="870" 
d="M47 1638h344v-815h29l94 508h358l-159 -663l159 -668h-358l-98 528h-25v-528h-344v1638z" />
    <glyph glyph-name="l" unicode="l" horiz-adv-x="438" 
d="M47 1638h344v-1638h-344v1638z" />
    <glyph glyph-name="m" unicode="m" horiz-adv-x="1331" 
d="M946 963q0 57 -10.5 79.5t-42.5 22.5q-33 0 -43 -22t-10 -80v-963h-342v963q0 57 -11 79.5t-43 22.5q-33 0 -43 -22t-10 -80v-963h-344v1331h344v-149q29 68 88 119t146 51q163 0 202 -172q95 172 246 172q55 0 95 -19.5t63 -50.5t36 -81t17 -98.5t4 -115.5v-987h-342
v963z" />
    <glyph glyph-name="n" unicode="n" horiz-adv-x="880" 
d="M389 1331v-149q29 68 88 119t146 51q55 0 95 -19.5t63 -50.5t36 -81t17 -98.5t4 -115.5v-987h-342v963q0 58 -10.5 80t-43.5 22q-32 0 -42.5 -22t-10.5 -80v-963h-342v1331h342z" />
    <glyph glyph-name="o" unicode="o" horiz-adv-x="876" 
d="M438 -20q-201 0 -303 113t-102 364v417q0 251 102 364.5t303 113.5t303.5 -113.5t102.5 -364.5v-417q0 -251 -102.5 -364t-303.5 -113zM385 369q0 -58 10.5 -80.5t42.5 -22.5q33 0 43.5 22.5t10.5 80.5v594q0 58 -10.5 80t-43.5 22q-32 0 -42.5 -22t-10.5 -80v-594z" />
    <glyph glyph-name="p" unicode="p" horiz-adv-x="888" 
d="M391 1331v-151q37 78 92.5 125t147.5 47q219 0 219 -328v-754q0 -290 -221 -290q-79 0 -129 30t-109 94v-514h-344v1741h344zM391 352q0 -44 11 -64t42 -20t42.5 21t11.5 65v621q0 44 -11.5 65t-42.5 21t-42 -20t-11 -64v-625z" />
    <glyph glyph-name="q" unicode="q" horiz-adv-x="886" 
d="M498 -410v562q-37 -78 -92.5 -125t-147.5 -47q-219 0 -219 327v754q0 291 221 291q79 0 129 -30.5t109 -94.5v104h344v-1741h-344zM391 356q0 -44 11 -65t42 -21t42.5 20t11.5 64v625q0 44 -11.5 64t-42.5 20t-42 -21t-11 -65v-621z" />
    <glyph glyph-name="r" unicode="r" horiz-adv-x="849" 
d="M391 1331v-145q34 79 92.5 122.5t132.5 43.5q226 0 226 -332v-182h-344v86q0 87 -10.5 115t-43.5 28q-32 0 -42.5 -22t-10.5 -80v-965h-344v1331h344z" />
    <glyph glyph-name="s" unicode="s" horiz-adv-x="851" 
d="M631 741q71 -49 112 -93t66 -109.5t25 -153.5q0 -188 -101 -296.5t-311 -108.5q-85 0 -154.5 19.5t-126.5 61.5t-89 117.5t-32 179.5v115h355v-106q0 -56 9.5 -78.5t41.5 -22.5q33 0 44 23t11 78q0 46 -20 78t-101 87l-137 95q-102 69 -153.5 145t-51.5 199
q0 169 102.5 275t309.5 106q186 0 292.5 -89.5t106.5 -267.5v-94h-352v86q0 38 -11 58t-42 20t-42 -20t-11 -58q0 -35 13 -59.5t54 -53.5z" />
    <glyph glyph-name="t" unicode="t" horiz-adv-x="684" 
d="M662 1331v-297h-199v-598q0 -87 27.5 -113t87.5 -26h84v-297h-240q-90 0 -149 20.5t-93 66.5t-47.5 109.5t-13.5 159.5v678h-117v297q43 12 71.5 44t41.5 78t17 88.5t3 96.5h346q0 -274 -141 -307h322z" />
    <glyph glyph-name="u" unicode="u" horiz-adv-x="880" 
d="M492 0v150q-29 -68 -88 -119t-146 -51q-55 0 -95 19.5t-63 50.5t-36 81t-17 98t-4 115v987h342v-962q0 -58 10.5 -80.5t42.5 -22.5q33 0 43.5 22.5t10.5 80.5v962h344v-1331h-344z" />
    <glyph glyph-name="v" unicode="v" horiz-adv-x="821" 
d="M-6 1331h352l66 -930l63 930h352l-182 -1331h-469z" />
    <glyph glyph-name="w" unicode="w" horiz-adv-x="1267" 
d="M-4 1331h342l63 -950l78 950h309l80 -952l64 952h340l-166 -1331h-408l-65 946l-84 -946h-387z" />
    <glyph glyph-name="x" unicode="x" horiz-adv-x="808" 
d="M-20 0l219 692l-201 639h354l64 -344l63 344h332l-201 -639l219 -692h-354l-82 397l-82 -397h-331z" />
    <glyph glyph-name="y" unicode="y" horiz-adv-x="878" 
d="M489 20v130q-29 -68 -87.5 -119t-145.5 -51q-55 0 -95 19.5t-63 50.5t-36 81t-17 98t-4 115v987h342v-962q0 -58 10.5 -80.5t42.5 -22.5t42.5 22.5t10.5 80.5v962h345v-1311q0 -90 -5.5 -151.5t-20 -112.5t-38 -80.5t-63.5 -50t-92 -28t-126 -7.5h-403v297h309
q24 0 37.5 3t28.5 15.5t21.5 40.5t6.5 74z" />
    <glyph glyph-name="z" unicode="z" horiz-adv-x="782" 
d="M23 1331h737v-297l-369 -737h363v-297h-725v297l364 737h-370v297z" />
    <glyph glyph-name="braceleft" unicode="{" horiz-adv-x="432" 
d="M29 815q80 0 80 178v371q0 184 59.5 267t185.5 83h80v-92h-78q-81 0 -113 -62.5t-32 -187.5v-373q0 -108 -18.5 -160t-71.5 -85v-90q53 -33 71.5 -85.5t18.5 -160.5v-373q0 -125 32 -187.5t113 -62.5h78v-92h-80q-126 0 -185.5 83t-59.5 267v371q0 178 -80 178v213z" />
    <glyph glyph-name="bar" unicode="|" horiz-adv-x="233" 
d="M66 -20v1679h102v-1679h-102z" />
    <glyph glyph-name="braceright" unicode="}" horiz-adv-x="432" 
d="M403 602q-79 0 -79 -178v-371q0 -184 -60 -267t-186 -83h-80v92h78q81 0 113 62.5t32 187.5v373q0 108 18.5 160.5t71.5 85.5v90q-53 33 -71.5 85t-18.5 160v373q0 125 -32 187.5t-113 62.5h-78v92h80q126 0 186 -83t60 -267v-371q0 -178 79 -178v-213z" />
    <glyph glyph-name="asciitilde" unicode="~" 
d="M43 727q0 69 19.5 116.5t53 69.5t65 30.5t67.5 8.5q67 0 131.5 -29t107 -63t94.5 -63t97 -29q47 0 74.5 31.5t27.5 91.5h103q0 -69 -19.5 -116.5t-53 -69.5t-65 -30.5t-67.5 -8.5q-67 0 -131.5 29t-107 63t-94.5 63t-97 29q-47 0 -75 -31.5t-28 -91.5h-102z" />
    <glyph glyph-name="uni00A0" unicode="&#xa0;" horiz-adv-x="409" 
 />
    <glyph glyph-name="exclamdown" unicode="&#xa1;" horiz-adv-x="450" 
d="M397 -307h-342l25 1126h293zM41 1169q0 82 52 132.5t130 50.5q79 0 133 -51t54 -132q0 -84 -54 -135t-133 -51q-78 0 -130 51t-52 135z" />
    <glyph glyph-name="cent" unicode="&#xa2;" horiz-adv-x="991" 
d="M438 -143v278q-189 14 -287 128.5t-98 346.5v418q0 232 98 346.5t287 128.5v279h123v-279q385 -29 385 -475v-65h-311v133q0 94 -74 116v-786q74 22 74 117v133h311v-66q0 -446 -385 -475v-278h-123zM365 543q0 -51 17.5 -78.5t55.5 -38.5v786q-38 -11 -55.5 -38
t-17.5 -78v-553z" />
    <glyph glyph-name="sterling" unicode="&#xa3;" horiz-adv-x="946" 
d="M29 227q94 63 135 133t41 175q0 23 -4 73h-172v123h147q-6 21 -23 81t-26 95t-20.5 91t-17 112.5t-5.5 116.5q0 215 103 323.5t300 108.5q205 0 313.5 -118t108.5 -357v-156h-364v197q0 44 -1 64t-5 43.5t-13.5 31.5t-25.5 8q-13 0 -21.5 -3t-14.5 -13t-9 -18t-4.5 -28.5
t-1.5 -34v-44.5q0 -103 18.5 -193.5t50 -182.5t39.5 -124h234v-123h-222q-6 -97 -43 -172.5t-110 -148.5h493v-287h-880v227z" />
    <glyph glyph-name="currency" unicode="&#xa4;" horiz-adv-x="704" 
d="M352 418q-82 0 -141 47l-109 -152l-71 72l112 154q-69 110 -69 280q0 171 69 281l-112 153l71 72l109 -151q59 47 141 47q81 0 142 -45l108 149l72 -72l-113 -155q70 -112 70 -279q0 -168 -70 -280l113 -154l-72 -72l-108 152q-59 -47 -142 -47zM176 819q0 -139 44 -224
t132 -85t132 85t44 224t-44 224t-132 85t-132 -85t-44 -224z" />
    <glyph glyph-name="yen" unicode="&#xa5;" horiz-adv-x="954" 
d="M96 571v82h183l-261 985h365l86 -591l4 -52h8l4 52l86 591h365l-260 -985h182v-82h-203v-82h203v-81h-203v-408h-356v408h-203v81h203v82h-203z" />
    <glyph glyph-name="brokenbar" unicode="&#xa6;" horiz-adv-x="233" 
d="M66 1004v655h102v-655h-102zM66 -20v655h102v-655h-102z" />
    <glyph glyph-name="section" unicode="&#xa7;" horiz-adv-x="784" 
d="M420 -20q-179 0 -269 101t-88 284h105q-3 -148 63.5 -226t190.5 -78q99 0 158 51t59 158q0 134 -111 172l-311 107q-106 37 -145 90.5t-39 124.5q0 148 125 190q-115 73 -115 213q0 149 92 221t240 72q349 0 346 -385h-105q6 303 -243 303q-100 0 -164 -52t-64 -155
q0 -131 111 -170l313 -106q96 -32 139.5 -85t43.5 -134q0 -147 -119 -189q108 -72 108 -213q0 -152 -87.5 -223t-233.5 -71zM135 768q0 -54 27 -86t84 -51l237 -78q41 -15 70 -11t47.5 15.5t29.5 33t15 41t4 40.5q0 55 -27 88.5t-83 52.5l-240 80q-49 13 -81 7.5
t-50.5 -30.5t-25.5 -50t-7 -52z" />
    <glyph glyph-name="dieresis" unicode="&#xa8;" horiz-adv-x="913" 
d="M645 1395q-66 0 -109.5 33.5t-43.5 97.5q0 67 43 100t110 33q64 0 109 -33.5t45 -99.5q0 -64 -45 -97.5t-109 -33.5zM115 1526q0 67 43 100t110 33q64 0 109 -33.5t45 -99.5q0 -64 -45 -97.5t-109 -33.5q-66 0 -109.5 33.5t-43.5 97.5z" />
    <glyph glyph-name="copyright" unicode="&#xa9;" horiz-adv-x="1499" 
d="M750 -20q-156 0 -278 45.5t-200.5 122t-129.5 185.5t-72 228.5t-21 257.5t21 257.5t72 228.5t129.5 186t200.5 122.5t278 45.5t278 -45.5t200 -122.5t129 -186t72 -228t21 -258t-21 -258t-72 -228t-129 -185.5t-200 -122t-278 -45.5zM152 819q0 -105 11 -193.5t36.5 -174
t71 -151t110 -115.5t158.5 -76.5t211 -26.5q135 0 239 39t171 105t110 161.5t60.5 201t17.5 230.5t-17.5 230.5t-60.5 201t-110 161.5t-171 105t-239 39t-239 -39t-171 -105t-110 -161.5t-60.5 -201t-17.5 -230.5zM274 821q0 101 14.5 187t50 164t90 132.5t139.5 86.5
t194 32q101 0 179.5 -29t127 -76t81 -114t46.5 -135t18 -147h-202q-18 140 -36 188q-36 100 -131 124q-35 9 -79 9q-70 0 -121.5 -20.5t-83 -55.5t-50.5 -90t-25.5 -115.5t-6.5 -140.5q0 -82 6.5 -142.5t25 -116.5t49.5 -91t82 -55.5t120 -20.5q59 0 102 17t66.5 41.5
t39.5 68t22.5 78.5t14.5 93l3 24h202q-5 -78 -17 -142t-43.5 -133.5t-78.5 -117t-127 -78.5t-184 -31q-109 0 -193.5 32t-139.5 86.5t-90.5 133t-50 165t-14.5 189.5z" />
    <glyph glyph-name="ordfeminine" unicode="&#xaa;" horiz-adv-x="573" 
d="M317 848v100q-43 -112 -141 -112q-69 0 -109 51t-40 153q0 160 161 263l35 22q33 21 48.5 32.5t27.5 29t12 38.5v17q0 39 -30 39q-27 0 -27 -37v-70h-213v21q0 139 58.5 201.5t183.5 62.5q124 0 182.5 -63t58.5 -203v-545h-207zM244 1085q0 -49 32 -49q21 0 28 25t7 86
v61q-2 -6 -10.5 -16t-13.5 -18l-17 -21q-26 -33 -26 -68z" />
    <glyph glyph-name="guillemotleft" unicode="&#xab;" horiz-adv-x="675" 
d="M346 268l-305 357v102l305 356v-163l-207 -244l207 -244v-164zM309 625v102l305 356v-163l-206 -244l206 -244v-164z" />
    <glyph glyph-name="logicalnot" unicode="&#xac;" horiz-adv-x="937" 
d="M774 625v284h-737v92h840v-376h-103z" />
    <glyph glyph-name="registered" unicode="&#xae;" horiz-adv-x="942" 
d="M471 733q-79 0 -138 28.5t-91 70.5t-51.5 101t-25 107.5t-5.5 102.5q0 37 2.5 71.5t11 77t22 77.5t37.5 70t55.5 59t78.5 39t104 15t104 -15t78.5 -39t55.5 -59t37.5 -70t22 -77.5t11 -77t2.5 -71.5q0 -54 -5.5 -102.5t-25 -107.5t-51.5 -101t-91 -70.5t-138 -28.5z
M45 1143q0 -71 10.5 -137.5t39.5 -137.5t74.5 -122.5t123 -85t178.5 -33.5t178.5 33.5t123 85t74.5 122.5t39.5 137.5t10.5 137.5t-10.5 137.5t-39.5 137.5t-74.5 122.5t-123 85t-178.5 33.5t-178.5 -33.5t-123 -85t-74.5 -122.5t-39.5 -137.5t-10.5 -137.5zM266 866v564
h191q233 0 233 -150q0 -108 -108 -158q56 -15 81 -49.5t25 -95.5v-51q0 -50 8 -60h-161q-11 14 -11 60v51q0 40 -16 57t-51 17h-27v-185h-164zM430 1194h27q69 0 69 47q0 45 -69 45h-27v-92z" />
    <glyph glyph-name="macron" unicode="&#xaf;" horiz-adv-x="993" 
d="M205 1528v82h583v-82h-583z" />
    <glyph glyph-name="degree" unicode="&#xb0;" horiz-adv-x="577" 
d="M289 1137q-148 0 -148 215t148 215q147 0 147 -215t-147 -215zM39 1352q0 -61 13.5 -114t41.5 -98t78 -70.5t117 -25.5t117 25.5t78 70.5t41.5 98t13.5 114t-13.5 114t-41.5 97.5t-78 70t-117 25.5t-117 -25.5t-78 -70t-41.5 -97.5t-13.5 -114z" />
    <glyph glyph-name="plusminus" unicode="&#xb1;" horiz-adv-x="913" 
d="M508 1231v-373h369v-92h-369v-285h369v-92h-840v92h369v285h-369v92h369v373h102z" />
    <glyph glyph-name="uni00B2" unicode="&#xb2;" horiz-adv-x="468" 
d="M29 834q0 199 141 274l31 16q35 19 49 52t14 98v35q0 24 -5 33.5t-21 9.5q-27 0 -27 -41v-94h-182v61q0 104 55 160.5t154 56.5t153.5 -59.5t54.5 -175.5q0 -178 -124 -261l-54 -34q-37 -24 -47 -57t-10 -95h231v-147h-413v168z" />
    <glyph glyph-name="uni00B3" unicode="&#xb3;" horiz-adv-x="462" 
d="M233 655q-105 0 -157.5 52t-52.5 167v48h178v-80q0 -23 6 -33t22 -10q27 0 27 43v121q0 23 -5.5 33t-21.5 10h-77v149h75q27 0 27 43v111q0 23 -5.5 33t-21.5 10q-26 0 -26 -41v-72h-178v41q0 215 206 215q57 0 98 -19.5t60.5 -44t30.5 -58.5t12.5 -50.5t1.5 -32.5v-26
q0 -70 -23.5 -110.5t-70.5 -61.5q96 -46 96 -181v-24q0 -119 -49 -175.5t-152 -56.5z" />
    <glyph glyph-name="acute" unicode="&#xb4;" horiz-adv-x="993" 
d="M225 1454l-20 78l563 151l20 -79z" />
    <glyph glyph-name="paragraph" unicode="&#xb6;" horiz-adv-x="669" 
d="M498 1638h102v-1638h-102v1638zM20 1282q0 113 16 184t53 108.5t83.5 50.5t120.5 13h102v-1638h-102v926q-74 0 -120.5 13t-83.5 50.5t-53 108.5t-16 184z" />
    <glyph glyph-name="periodcentered" unicode="&#xb7;" horiz-adv-x="409" 
d="M207 496q-79 0 -133 50.5t-54 131.5q0 84 54 135t133 51q78 0 130 -51t52 -135q0 -82 -52 -132t-130 -50z" />
    <glyph glyph-name="cedilla" unicode="&#xb8;" horiz-adv-x="790" 
d="M205 -328q136 0 192 13t56 55q0 46 -56 55t-159 -8l51 213h108l-28 -119q217 18 217 -133q0 -62 -33 -98t-117 -55t-231 -19v96z" />
    <glyph glyph-name="uni00B9" unicode="&#xb9;" horiz-adv-x="411" 
d="M27 813h98v471q-8 -13 -14 -18.5t-28.5 -12t-59.5 -6.5v160q95 0 127 78h153v-672h98v-147h-374v147z" />
    <glyph glyph-name="ordmasculine" unicode="&#xba;" horiz-adv-x="561" 
d="M281 836q-123 0 -184.5 68t-61.5 220v246q0 152 62 220.5t184 68.5t183.5 -68t61.5 -221v-246q0 -153 -61.5 -220.5t-183.5 -67.5zM254 1069q0 -22 1 -31t7 -16.5t19 -7.5t19 8t6.5 16.5t0.5 30.5v356q0 22 -0.5 30.5t-6.5 17t-19 8.5t-19 -8t-7 -17t-1 -31v-356z" />
    <glyph glyph-name="guillemotright" unicode="&#xbb;" horiz-adv-x="675" 
d="M330 268v164l207 244l-207 244v163l305 -356v-102zM61 268v164l207 244l-207 244v163l306 -356v-102z" />
    <glyph glyph-name="onequarter" unicode="&#xbc;" horiz-adv-x="1050" 
d="M33 967h98v471q-8 -13 -14 -18.5t-28.5 -12t-59.5 -6.5v160q95 0 127 77h153v-671h99v-148h-375v148zM162 0l608 1638h104l-608 -1638h-104zM608 137v172l219 510h166v-534h35v-148h-35v-137h-178v137h-207zM717 285h98v256z" />
    <glyph glyph-name="onehalf" unicode="&#xbd;" horiz-adv-x="1081" 
d="M35 967h98v471q-8 -13 -14 -18.5t-28.5 -12t-59.5 -6.5v160q95 0 127 77h153v-671h99v-148h-375v148zM164 0l608 1638h105l-609 -1638h-104zM635 0v168q0 199 141 274l31 17q35 19 49 51.5t14 97.5v35q0 24 -5 33.5t-21 9.5q-27 0 -27 -41v-94h-182v61q0 104 55 160.5
t154 56.5t154 -59.5t55 -175.5q0 -176 -125 -260l-54 -35q-37 -24 -47 -57t-10 -95h232v-147h-414z" />
    <glyph glyph-name="threequarters" unicode="&#xbe;" horiz-adv-x="1087" 
d="M240 809q-105 0 -158 52.5t-53 166.5v47h178v-80q0 -23 6 -33t23 -10q16 0 21 10.5t5 32.5v121q0 24 -5 33.5t-21 9.5h-78v150h75q27 0 27 43v110q0 23 -5.5 33t-21.5 10q-26 0 -26 -41v-71h-178v41q0 215 207 215q48 0 84.5 -12.5t57.5 -35t34.5 -44t18 -49t6 -39.5
t1.5 -25v-27q0 -70 -23.5 -110.5t-70.5 -61.5q96 -46 96 -180v-25q0 -119 -48.5 -175t-151.5 -56zM197 0l608 1638h104l-608 -1638h-104zM643 137v172l219 510h166v-534h35v-148h-35v-137h-178v137h-207zM752 285h98v256z" />
    <glyph glyph-name="questiondown" unicode="&#xbf;" horiz-adv-x="870" 
d="M436 -328q-194 0 -305 109t-111 293q0 77 20.5 142.5t51.5 109t67.5 94.5t67.5 98.5t51.5 121t20.5 161.5v18h295v-39q0 -118 -21.5 -210t-53 -149t-62.5 -107t-52.5 -111.5t-21.5 -136.5q0 -63 10.5 -85t42.5 -22q31 0 42 20t11 64v141h363v-49q0 -230 -107.5 -346.5
t-308.5 -116.5zM264 1169q0 82 52 132.5t130 50.5q79 0 133 -51t54 -132q0 -84 -54 -135t-133 -51q-78 0 -130 51t-52 135z" />
    <glyph glyph-name="Agrave" unicode="&#xc0;" horiz-adv-x="886" 
d="M0 0l197 1638h493l197 -1638h-363l-14 244h-133l-15 -244h-362zM152 1911l20 80l563 -152l-20 -78zM393 541h99l-41 714l-5 52h-8l-4 -52z" />
    <glyph glyph-name="Aacute" unicode="&#xc1;" horiz-adv-x="886" 
d="M0 0l197 1638h493l197 -1638h-363l-14 244h-133l-15 -244h-362zM152 1839l563 152l20 -80l-563 -150zM393 541h99l-41 714l-5 52h-8l-4 -52z" />
    <glyph glyph-name="Acircumflex" unicode="&#xc2;" horiz-adv-x="886" 
d="M0 0l197 1638h493l197 -1638h-363l-14 244h-133l-15 -244h-362zM152 1761l223 230h143l217 -230h-133l-156 168l-161 -168h-133zM393 541h99l-41 714l-5 52h-8l-4 -52z" />
    <glyph glyph-name="Atilde" unicode="&#xc3;" horiz-adv-x="886" 
d="M0 0l197 1638h493l197 -1638h-363l-14 244h-133l-15 -244h-362zM152 1786q0 205 163 205q44 0 77.5 -15t53.5 -37t37 -44t37.5 -37t44.5 -15q68 0 68 123h102q0 -205 -164 -205q-44 0 -77.5 15t-53.5 37t-36.5 44t-37 37t-44.5 15q-68 0 -68 -123h-102zM393 541h99
l-41 714l-5 52h-8l-4 -52z" />
    <glyph glyph-name="Adieresis" unicode="&#xc4;" horiz-adv-x="886" 
d="M0 0l197 1638h493l197 -1638h-363l-14 244h-133l-15 -244h-362zM102 1833q0 67 43.5 100t110.5 33q64 0 109 -33.5t45 -99.5q0 -64 -45 -97.5t-109 -33.5q-66 0 -110 33.5t-44 97.5zM393 541h99l-41 714l-5 52h-8l-4 -52zM479 1833q0 67 43.5 100t110.5 33
q64 0 108.5 -33.5t44.5 -99.5q0 -64 -44.5 -97.5t-108.5 -33.5q-66 0 -110 33.5t-44 97.5z" />
    <glyph glyph-name="Aring" unicode="&#xc5;" horiz-adv-x="886" 
d="M0 0l197 1638h493l197 -1638h-363l-14 244h-133l-15 -244h-362zM279 1896q0 71 49 118.5t116 47.5t116.5 -47.5t49.5 -118.5t-49 -118t-117 -47q-67 0 -116 47t-49 118zM379 1896q0 -30 17.5 -47.5t47.5 -17.5t48 17.5t18 47.5t-18 48t-48 18t-47.5 -18t-17.5 -48z
M393 541h99l-41 714l-5 52h-8l-4 -52z" />
    <glyph glyph-name="AE" unicode="&#xc6;" horiz-adv-x="1230" 
d="M-16 0l260 1638h954v-297h-266v-374h242v-295h-242v-375h266v-297h-623v285h-194l-43 -285h-354zM424 580h151v761h-38z" />
    <glyph glyph-name="Ccedilla" unicode="&#xc7;" horiz-adv-x="905" 
d="M319 -328q136 0 192 13t56 55q0 46 -56 55t-159 -8l47 195q-358 35 -358 499v676q0 502 418 502t418 -502v-184h-365v315q0 47 -12 65.5t-41 18.5t-41 -18.5t-12 -65.5v-940q0 -46 12 -64t41 -18t41 18t12 64v318h365v-185q0 -471 -369 -499l-25 -101q217 18 217 -133
q0 -62 -33 -98t-117 -55t-231 -19v96z" />
    <glyph glyph-name="Egrave" unicode="&#xc8;" horiz-adv-x="741" 
d="M51 0v1638h656v-297h-299v-374h278v-295h-278v-375h299v-297h-656zM86 1911l20 80l564 -152l-21 -78z" />
    <glyph glyph-name="Eacute" unicode="&#xc9;" horiz-adv-x="741" 
d="M51 0v1638h656v-297h-299v-374h278v-295h-278v-375h299v-297h-656zM86 1839l563 152l21 -80l-564 -150z" />
    <glyph glyph-name="Ecircumflex" unicode="&#xca;" horiz-adv-x="741" 
d="M51 0v1638h656v-297h-299v-374h278v-295h-278v-375h299v-297h-656zM86 1761l223 230h144l217 -230h-133l-156 168l-162 -168h-133z" />
    <glyph glyph-name="Edieresis" unicode="&#xcb;" horiz-adv-x="741" 
d="M51 0v1638h656v-297h-299v-374h278v-295h-278v-375h299v-297h-656zM37 1833q0 67 43 100t110 33q64 0 109 -33.5t45 -99.5q0 -64 -45 -97.5t-109 -33.5q-66 0 -109.5 33.5t-43.5 97.5zM414 1833q0 67 43 100t110 33q64 0 109 -33.5t45 -99.5q0 -64 -45 -97.5t-109 -33.5
q-66 0 -109.5 33.5t-43.5 97.5z" />
    <glyph glyph-name="Igrave" unicode="&#xcc;" horiz-adv-x="458" 
d="M51 0v1638h357v-1638h-357zM-63 1911l20 80l563 -152l-20 -78z" />
    <glyph glyph-name="Iacute" unicode="&#xcd;" horiz-adv-x="458" 
d="M51 0v1638h357v-1638h-357zM-63 1839l563 152l20 -80l-563 -150z" />
    <glyph glyph-name="Icircumflex" unicode="&#xce;" horiz-adv-x="458" 
d="M51 0v1638h357v-1638h-357zM-63 1761l223 230h143l217 -230h-133l-156 168l-161 -168h-133z" />
    <glyph glyph-name="Idieresis" unicode="&#xcf;" horiz-adv-x="458" 
d="M51 0v1638h357v-1638h-357zM-113 1833q0 67 43.5 100t110.5 33q64 0 109 -33.5t45 -99.5q0 -64 -45 -97.5t-109 -33.5q-66 0 -110 33.5t-44 97.5zM264 1833q0 67 43.5 100t110.5 33q64 0 108.5 -33.5t44.5 -99.5q0 -64 -44.5 -97.5t-108.5 -33.5q-66 0 -110 33.5
t-44 97.5z" />
    <glyph glyph-name="Eth" unicode="&#xd0;" horiz-adv-x="937" 
d="M68 0v737h-60v164h60v737h376q134 0 220 -22.5t138 -77.5t72.5 -136.5t20.5 -209.5v-746q0 -126 -20.5 -207.5t-72.5 -137t-138 -78.5t-220 -23h-376zM424 266h27q46 0 62.5 21t16.5 78v909q0 58 -18 78t-66 20h-22v-471h74v-164h-74v-471z" />
    <glyph glyph-name="Ntilde" unicode="&#xd1;" horiz-adv-x="935" 
d="M51 0v1638h316l202 -782v782h316v-1638h-316l-202 784v-784h-316zM176 1786q0 205 164 205q44 0 77.5 -15t53.5 -37t37 -44t37.5 -37t44.5 -15q67 0 67 123h103q0 -205 -164 -205q-44 0 -77.5 15t-53.5 37t-37 44t-37.5 37t-44.5 15q-67 0 -67 -123h-103z" />
    <glyph glyph-name="Ograve" unicode="&#xd2;" horiz-adv-x="917" 
d="M459 -20q-207 0 -312.5 122.5t-105.5 378.5v676q0 502 418 502t418 -502v-676q0 -256 -105.5 -378.5t-312.5 -122.5zM166 1911l20 80l564 -152l-21 -78zM406 348q0 -43 11 -62.5t42 -19.5t42 19.5t11 62.5v938q0 44 -11 65t-42 21t-42 -20t-11 -64v-940z" />
    <glyph glyph-name="Oacute" unicode="&#xd3;" horiz-adv-x="917" 
d="M459 -20q-207 0 -312.5 122.5t-105.5 378.5v676q0 502 418 502t418 -502v-676q0 -256 -105.5 -378.5t-312.5 -122.5zM166 1839l563 152l21 -80l-564 -150zM406 348q0 -43 11 -62.5t42 -19.5t42 19.5t11 62.5v938q0 44 -11 65t-42 21t-42 -20t-11 -64v-940z" />
    <glyph glyph-name="Ocircumflex" unicode="&#xd4;" horiz-adv-x="917" 
d="M459 -20q-207 0 -312.5 122.5t-105.5 378.5v676q0 502 418 502t418 -502v-676q0 -256 -105.5 -378.5t-312.5 -122.5zM166 1761l223 230h143l218 -230h-134l-155 168l-162 -168h-133zM406 348q0 -43 11 -62.5t42 -19.5t42 19.5t11 62.5v938q0 44 -11 65t-42 21t-42 -20
t-11 -64v-940z" />
    <glyph glyph-name="Otilde" unicode="&#xd5;" horiz-adv-x="917" 
d="M459 -20q-207 0 -312.5 122.5t-105.5 378.5v676q0 502 418 502t418 -502v-676q0 -256 -105.5 -378.5t-312.5 -122.5zM166 1786q0 205 164 205q44 0 77.5 -15t53.5 -37t37 -44t37.5 -37t44.5 -15q67 0 67 123h103q0 -205 -164 -205q-44 0 -77.5 15t-53.5 37t-37 44
t-37.5 37t-44.5 15q-68 0 -68 -123h-102zM406 348q0 -43 11 -62.5t42 -19.5t42 19.5t11 62.5v938q0 44 -11 65t-42 21t-42 -20t-11 -64v-940z" />
    <glyph glyph-name="Odieresis" unicode="&#xd6;" horiz-adv-x="917" 
d="M459 -20q-207 0 -312.5 122.5t-105.5 378.5v676q0 502 418 502t418 -502v-676q0 -256 -105.5 -378.5t-312.5 -122.5zM117 1833q0 67 43 100t110 33q64 0 109 -33.5t45 -99.5q0 -64 -45 -97.5t-109 -33.5q-66 0 -109.5 33.5t-43.5 97.5zM406 348q0 -43 11 -62.5t42 -19.5
t42 19.5t11 62.5v938q0 44 -11 65t-42 21t-42 -20t-11 -64v-940zM494 1833q0 67 43 100t110 33q64 0 109 -33.5t45 -99.5q0 -64 -45 -97.5t-109 -33.5q-66 0 -109.5 33.5t-43.5 97.5z" />
    <glyph glyph-name="multiply" unicode="&#xd7;" horiz-adv-x="724" 
d="M96 1139l266 -267l269 269l61 -62l-268 -268l266 -266l-61 -62l-267 267l-264 -265l-61 62l264 264l-266 266z" />
    <glyph glyph-name="Oslash" unicode="&#xd8;" horiz-adv-x="917" 
d="M459 -20q-138 0 -230 53l-20 -53h-113l47 126q-102 123 -102 375v676q0 502 418 502q137 0 229 -53l21 53h112l-47 -127q103 -124 103 -375v-676q0 -256 -105.5 -378.5t-312.5 -122.5zM406 348q0 -43 11 -62.5t42 -19.5t42 19.5t11 62.5v463l-106 -293v-170zM406 827
l106 293v166q0 44 -11 65t-42 21t-42 -20t-11 -64v-461z" />
    <glyph glyph-name="Ugrave" unicode="&#xd9;" horiz-adv-x="929" 
d="M465 -20q-209 0 -313.5 114.5t-104.5 366.5v1177h365v-1290q0 -43 11 -62.5t42 -19.5t42 19.5t11 62.5v1290h365v-1177q0 -252 -104.5 -366.5t-313.5 -114.5zM172 1911l21 80l563 -152l-21 -78z" />
    <glyph glyph-name="Uacute" unicode="&#xda;" horiz-adv-x="929" 
d="M465 -20q-209 0 -313.5 114.5t-104.5 366.5v1177h365v-1290q0 -43 11 -62.5t42 -19.5t42 19.5t11 62.5v1290h365v-1177q0 -252 -104.5 -366.5t-313.5 -114.5zM172 1839l563 152l21 -80l-563 -150z" />
    <glyph glyph-name="Ucircumflex" unicode="&#xdb;" horiz-adv-x="929" 
d="M465 -20q-209 0 -313.5 114.5t-104.5 366.5v1177h365v-1290q0 -43 11 -62.5t42 -19.5t42 19.5t11 62.5v1290h365v-1177q0 -252 -104.5 -366.5t-313.5 -114.5zM172 1761l223 230h144l217 -230h-133l-156 168l-162 -168h-133z" />
    <glyph glyph-name="Udieresis" unicode="&#xdc;" horiz-adv-x="929" 
d="M465 -20q-209 0 -313.5 114.5t-104.5 366.5v1177h365v-1290q0 -43 11 -62.5t42 -19.5t42 19.5t11 62.5v1290h365v-1177q0 -252 -104.5 -366.5t-313.5 -114.5zM123 1833q0 67 43 100t110 33q64 0 109 -33.5t45 -99.5q0 -64 -45 -97.5t-109 -33.5q-66 0 -109.5 33.5
t-43.5 97.5zM500 1833q0 67 43 100t110 33q64 0 109 -33.5t45 -99.5q0 -64 -45 -97.5t-109 -33.5q-66 0 -109.5 33.5t-43.5 97.5z" />
    <glyph glyph-name="Yacute" unicode="&#xdd;" horiz-adv-x="856" 
d="M250 0v573l-281 1065h365l86 -591l4 -52h8l4 52l86 591h365l-281 -1065v-573h-356zM135 1839l563 152l21 -80l-563 -150z" />
    <glyph glyph-name="Thorn" unicode="&#xde;" horiz-adv-x="907" 
d="M51 0v1638h357v-262q182 0 283 -48t146.5 -160.5t45.5 -315.5v-64q0 -152 -23.5 -250.5t-80.5 -161t-146 -88.5t-225 -26v-262h-357zM408 559h53q57 0 57 96v332q0 92 -57 92h-53v-520z" />
    <glyph glyph-name="germandbls" unicode="&#xdf;" horiz-adv-x="880" 
d="M47 0v1264q0 194 94 294.5t301 100.5q199 0 292 -95t93 -286v-74q0 -145 -37.5 -225t-115.5 -111q93 -32 136.5 -119t43.5 -241v-109q0 -399 -340 -399h-86v287l27 2q30 3 39.5 23t9.5 77v217q0 56 -8.5 76t-34.5 23l-33 4v286l21 2q30 3 39.5 23.5t9.5 77.5v176
q0 59 -10 80.5t-44 21.5q-32 0 -42.5 -22t-10.5 -80v-1274h-344z" />
    <glyph glyph-name="agrave" unicode="&#xe0;" horiz-adv-x="872" 
d="M498 0v168q-71 -188 -238 -188q-115 0 -182.5 84t-67.5 255q0 70 18.5 133.5t45 107.5t66.5 85t70.5 64t68.5 47l59 37q41 25 59.5 38.5t44 36t35.5 46.5t10 53v26q0 36 -11.5 54t-43.5 18t-43.5 -18t-11.5 -54v-114h-344v36q0 229 97.5 333t303.5 104t301.5 -104.5
t95.5 -332.5v-915h-333zM141 1604l21 79l563 -151l-20 -78zM360 391q0 -90 60 -90q40 0 53.5 45.5t13.5 153.5v110q-5 -18 -45 -63l-30 -33q-52 -55 -52 -123z" />
    <glyph glyph-name="aacute" unicode="&#xe1;" horiz-adv-x="872" 
d="M498 0v168q-71 -188 -238 -188q-115 0 -182.5 84t-67.5 255q0 70 18.5 133.5t45 107.5t66.5 85t70.5 64t68.5 47l59 37q41 25 59.5 38.5t44 36t35.5 46.5t10 53v26q0 36 -11.5 54t-43.5 18t-43.5 -18t-11.5 -54v-114h-344v36q0 229 97.5 333t303.5 104t301.5 -104.5
t95.5 -332.5v-915h-333zM141 1532l564 151l20 -79l-563 -150zM360 391q0 -90 60 -90q40 0 53.5 45.5t13.5 153.5v110q-5 -18 -45 -63l-30 -33q-52 -55 -52 -123z" />
    <glyph glyph-name="acircumflex" unicode="&#xe2;" horiz-adv-x="872" 
d="M498 0v168q-71 -188 -238 -188q-115 0 -182.5 84t-67.5 255q0 70 18.5 133.5t45 107.5t66.5 85t70.5 64t68.5 47l59 37q41 25 59.5 38.5t44 36t35.5 46.5t10 53v26q0 36 -11.5 54t-43.5 18t-43.5 -18t-11.5 -54v-114h-344v36q0 229 97.5 333t303.5 104t301.5 -104.5
t95.5 -332.5v-915h-333zM141 1454l224 229h143l217 -229h-133l-156 168l-162 -168h-133zM360 391q0 -90 60 -90q40 0 53.5 45.5t13.5 153.5v110q-5 -18 -45 -63l-30 -33q-52 -55 -52 -123z" />
    <glyph glyph-name="atilde" unicode="&#xe3;" horiz-adv-x="872" 
d="M498 0v168q-71 -188 -238 -188q-115 0 -182.5 84t-67.5 255q0 70 18.5 133.5t45 107.5t66.5 85t70.5 64t68.5 47l59 37q41 25 59.5 38.5t44 36t35.5 46.5t10 53v26q0 36 -11.5 54t-43.5 18t-43.5 -18t-11.5 -54v-114h-344v36q0 229 97.5 333t303.5 104t301.5 -104.5
t95.5 -332.5v-915h-333zM141 1479q0 204 164 204q44 0 77.5 -15t53.5 -36.5t37 -43.5t37.5 -37t44.5 -15q68 0 68 123h102q0 -205 -164 -205q-44 0 -77.5 15t-53.5 37t-37 44t-37.5 37t-44.5 15q-67 0 -67 -123h-103zM360 391q0 -90 60 -90q40 0 53.5 45.5t13.5 153.5v110
q-5 -18 -45 -63l-30 -33q-52 -55 -52 -123z" />
    <glyph glyph-name="adieresis" unicode="&#xe4;" horiz-adv-x="872" 
d="M498 0v168q-71 -188 -238 -188q-115 0 -182.5 84t-67.5 255q0 70 18.5 133.5t45 107.5t66.5 85t70.5 64t68.5 47l59 37q41 25 59.5 38.5t44 36t35.5 46.5t10 53v26q0 36 -11.5 54t-43.5 18t-43.5 -18t-11.5 -54v-114h-344v36q0 229 97.5 333t303.5 104t301.5 -104.5
t95.5 -332.5v-915h-333zM92 1526q0 67 43.5 100t110.5 33q64 0 108.5 -33.5t44.5 -99.5q0 -64 -44.5 -97.5t-108.5 -33.5q-66 0 -110 33.5t-44 97.5zM360 391q0 -90 60 -90q40 0 53.5 45.5t13.5 153.5v110q-5 -18 -45 -63l-30 -33q-52 -55 -52 -123zM469 1526q0 67 43.5 100
t110.5 33q64 0 108.5 -33.5t44.5 -99.5q0 -64 -44.5 -97.5t-108.5 -33.5q-66 0 -110 33.5t-44 97.5z" />
    <glyph glyph-name="aring" unicode="&#xe5;" horiz-adv-x="872" 
d="M498 0v168q-71 -188 -238 -188q-115 0 -182.5 84t-67.5 255q0 70 18.5 133.5t45 107.5t66.5 85t70.5 64t68.5 47l59 37q41 25 59.5 38.5t44 36t35.5 46.5t10 53v26q0 36 -11.5 54t-43.5 18t-43.5 -18t-11.5 -54v-114h-344v36q0 229 97.5 333t303.5 104t301.5 -104.5
t95.5 -332.5v-915h-333zM268 1589q0 71 49.5 118.5t116.5 47.5t116.5 -47.5t49.5 -118.5t-49.5 -118.5t-116.5 -47.5t-116.5 47.5t-49.5 118.5zM360 391q0 -90 60 -90q40 0 53.5 45.5t13.5 153.5v110q-5 -18 -45 -63l-30 -33q-52 -55 -52 -123zM369 1589q0 -30 17.5 -47.5
t47.5 -17.5t48 18t18 47q0 30 -18 48t-48 18t-47.5 -18t-17.5 -48z" />
    <glyph glyph-name="ae" unicode="&#xe6;" horiz-adv-x="1277" 
d="M319 -20q-307 0 -307 366q0 50 5 91.5t18 77t26 63t38.5 54.5t44.5 45t55.5 42.5t60.5 39t70 40.5l39 22q48 28 72 68.5t24 105.5q0 38 -10 55t-33 17q-26 0 -36.5 -26.5t-10.5 -104.5v-57h-344v36q0 335 214 414q61 23 138 23q156 0 246 -99q89 99 245 99
q167 0 268 -111.5t101 -341.5v-328h-459v-139q0 -57 1 -81.5t5.5 -48.5t15 -31t28.5 -7q14 0 24 4t16 16t9.5 22.5t5 34.5t2 40t0.5 51v53h352v-53q0 -231 -100 -341.5t-273 -110.5q-192 0 -278 139q-51 -71 -117 -105t-156 -34zM358 362q0 -98 58 -98q24 0 49 29v309
l-41 -57l-21 -27q-45 -57 -45 -156zM784 819h107v80q0 35 -0.5 51t-2 40t-5 34.5t-9.5 22.5t-16 16t-24 4q-34 0 -42 -32t-8 -136v-80z" />
    <glyph glyph-name="ccedilla" unicode="&#xe7;" horiz-adv-x="862" 
d="M492 963q0 58 -10.5 80t-43.5 22q-34 0 -43.5 -21.5t-9.5 -80.5v-594q0 -59 9.5 -81t43.5 -22q33 0 43.5 22.5t10.5 80.5v153h352v-65q0 -237 -91 -350.5t-268 -124.5l-24 -101q217 18 217 -133q0 -62 -33 -98t-117 -55t-231 -19v96q136 0 192 13t56 55q0 46 -56 55
t-159 -8l47 195q-170 15 -257 129.5t-87 345.5v417q0 251 102 364.5t303 113.5q200 0 303 -113.5t103 -364.5v-65h-352v154z" />
    <glyph glyph-name="egrave" unicode="&#xe8;" horiz-adv-x="876" 
d="M729 1532l-20 -78l-564 150l21 79zM33 457v417q0 251 102 364.5t303 113.5q200 0 303 -113.5t103 -364.5v-303h-459v-202q0 -59 9.5 -81t43.5 -22q33 0 43.5 22.5t10.5 80.5v120h352v-32q0 -251 -103 -364t-303 -113q-201 0 -303 113t-102 364zM385 819h107v144
q0 58 -10.5 80t-43.5 22q-34 0 -43.5 -21.5t-9.5 -80.5v-144z" />
    <glyph glyph-name="eacute" unicode="&#xe9;" horiz-adv-x="876" 
d="M166 1454l-21 78l564 151l20 -79zM33 457v417q0 251 102 364.5t303 113.5q200 0 303 -113.5t103 -364.5v-303h-459v-202q0 -59 9.5 -81t43.5 -22q33 0 43.5 22.5t10.5 80.5v120h352v-32q0 -251 -103 -364t-303 -113q-201 0 -303 113t-102 364zM385 819h107v144
q0 58 -10.5 80t-43.5 22q-34 0 -43.5 -21.5t-9.5 -80.5v-144z" />
    <glyph glyph-name="ecircumflex" unicode="&#xea;" horiz-adv-x="876" 
d="M145 1454l224 229h143l217 -229h-133l-156 168l-161 -168h-134zM33 457v417q0 251 102 364.5t303 113.5q200 0 303 -113.5t103 -364.5v-303h-459v-202q0 -59 9.5 -81t43.5 -22q33 0 43.5 22.5t10.5 80.5v120h352v-32q0 -251 -103 -364t-303 -113q-201 0 -303 113
t-102 364zM385 819h107v144q0 58 -10.5 80t-43.5 22q-34 0 -43.5 -21.5t-9.5 -80.5v-144z" />
    <glyph glyph-name="edieresis" unicode="&#xeb;" horiz-adv-x="876" 
d="M627 1395q-66 0 -110 33.5t-44 97.5q0 67 43.5 100t110.5 33q64 0 108.5 -33.5t44.5 -99.5q0 -64 -44.5 -97.5t-108.5 -33.5zM33 457v417q0 251 102 364.5t303 113.5q200 0 303 -113.5t103 -364.5v-303h-459v-202q0 -59 9.5 -81t43.5 -22q33 0 43.5 22.5t10.5 80.5v120
h352v-32q0 -251 -103 -364t-303 -113q-201 0 -303 113t-102 364zM96 1526q0 67 43.5 100t110.5 33q64 0 108.5 -33.5t44.5 -99.5q0 -64 -44.5 -97.5t-108.5 -33.5q-66 0 -110 33.5t-44 97.5zM385 819h107v144q0 58 -10.5 80t-43.5 22q-34 0 -43.5 -21.5t-9.5 -80.5v-144z
" />
    <glyph glyph-name="igrave" unicode="&#xec;" horiz-adv-x="438" 
d="M47 1331h344v-1331h-344v1331zM-74 1604l21 79l563 -151l-21 -78z" />
    <glyph glyph-name="iacute" unicode="&#xed;" horiz-adv-x="438" 
d="M47 1331h344v-1331h-344v1331zM-74 1532l563 151l21 -79l-563 -150z" />
    <glyph glyph-name="icircumflex" unicode="&#xee;" horiz-adv-x="438" 
d="M47 1331h344v-1331h-344v1331zM55 1454l99 229h135l94 -229h-115l-47 139l-53 -139h-113z" />
    <glyph glyph-name="idieresis" unicode="&#xef;" horiz-adv-x="438" 
d="M47 1331h344v-1331h-344v1331zM-63 1542q0 49 31.5 79t76.5 30q44 0 76.5 -30t32.5 -79q0 -46 -33 -76t-76 -30q-44 0 -76 30t-32 76zM285 1542q0 49 31.5 79t76.5 30q44 0 76.5 -30t32.5 -79q0 -46 -33 -76t-76 -30q-44 0 -76 30t-32 76z" />
    <glyph glyph-name="eth" unicode="&#xf0;" horiz-adv-x="860" 
d="M426 -20q-399 0 -399 430v229q0 184 75.5 283.5t204.5 99.5q66 0 119.5 -35t87.5 -98q-8 98 -31.5 169.5t-74.5 135.5l-289 -174v174l180 109q-71 56 -182 118l112 244q206 -79 336 -203l230 140v-175l-129 -77q165 -230 165 -617v-213q0 -133 -23 -232t-60 -157t-92 -93
t-108.5 -46.5t-121.5 -11.5zM379 383q0 -67 11.5 -92t35.5 -25q53 0 53 119v242q0 59 -11.5 82.5t-41.5 23.5q-23 0 -35 -22t-12 -88v-240z" />
    <glyph glyph-name="ntilde" unicode="&#xf1;" horiz-adv-x="880" 
d="M389 1331v-149q29 68 88 119t146 51q55 0 95 -19.5t63 -50.5t36 -81t17 -98.5t4 -115.5v-987h-342v963q0 58 -10.5 80t-43.5 22q-32 0 -42.5 -22t-10.5 -80v-963h-342v1331h342zM150 1479q0 204 163 204q44 0 77.5 -15t53.5 -36.5t37 -43.5t37.5 -37t44.5 -15
q68 0 68 123h102q0 -205 -164 -205q-44 0 -77.5 15t-53.5 37t-37 44t-37.5 37t-44.5 15q-67 0 -67 -123h-102z" />
    <glyph glyph-name="ograve" unicode="&#xf2;" horiz-adv-x="876" 
d="M438 -20q-201 0 -303 113t-102 364v417q0 251 102 364.5t303 113.5t303.5 -113.5t102.5 -364.5v-417q0 -251 -102.5 -364t-303.5 -113zM145 1604l21 79l563 -151l-20 -78zM385 369q0 -58 10.5 -80.5t42.5 -22.5q33 0 43.5 22.5t10.5 80.5v594q0 58 -10.5 80t-43.5 22
q-32 0 -42.5 -22t-10.5 -80v-594z" />
    <glyph glyph-name="oacute" unicode="&#xf3;" horiz-adv-x="876" 
d="M438 -20q-201 0 -303 113t-102 364v417q0 251 102 364.5t303 113.5t303.5 -113.5t102.5 -364.5v-417q0 -251 -102.5 -364t-303.5 -113zM145 1532l564 151l20 -79l-563 -150zM385 369q0 -58 10.5 -80.5t42.5 -22.5q33 0 43.5 22.5t10.5 80.5v594q0 58 -10.5 80t-43.5 22
q-32 0 -42.5 -22t-10.5 -80v-594z" />
    <glyph glyph-name="ocircumflex" unicode="&#xf4;" horiz-adv-x="876" 
d="M438 -20q-201 0 -303 113t-102 364v417q0 251 102 364.5t303 113.5t303.5 -113.5t102.5 -364.5v-417q0 -251 -102.5 -364t-303.5 -113zM145 1454l224 229h143l217 -229h-133l-156 168l-161 -168h-134zM385 369q0 -58 10.5 -80.5t42.5 -22.5q33 0 43.5 22.5t10.5 80.5v594
q0 58 -10.5 80t-43.5 22q-32 0 -42.5 -22t-10.5 -80v-594z" />
    <glyph glyph-name="otilde" unicode="&#xf5;" horiz-adv-x="876" 
d="M438 -20q-201 0 -303 113t-102 364v417q0 251 102 364.5t303 113.5t303.5 -113.5t102.5 -364.5v-417q0 -251 -102.5 -364t-303.5 -113zM145 1479q0 204 164 204q44 0 77.5 -15t53.5 -36.5t37 -43.5t37.5 -37t44.5 -15q68 0 68 123h102q0 -205 -164 -205q-44 0 -77.5 15
t-53.5 37t-37 44t-37.5 37t-44.5 15q-67 0 -67 -123h-103zM385 369q0 -58 10.5 -80.5t42.5 -22.5q33 0 43.5 22.5t10.5 80.5v594q0 58 -10.5 80t-43.5 22q-32 0 -42.5 -22t-10.5 -80v-594z" />
    <glyph glyph-name="odieresis" unicode="&#xf6;" horiz-adv-x="876" 
d="M438 -20q-201 0 -303 113t-102 364v417q0 251 102 364.5t303 113.5t303.5 -113.5t102.5 -364.5v-417q0 -251 -102.5 -364t-303.5 -113zM96 1526q0 67 43.5 100t110.5 33q64 0 108.5 -33.5t44.5 -99.5q0 -64 -44.5 -97.5t-108.5 -33.5q-66 0 -110 33.5t-44 97.5zM385 369
q0 -58 10.5 -80.5t42.5 -22.5q33 0 43.5 22.5t10.5 80.5v594q0 58 -10.5 80t-43.5 22q-32 0 -42.5 -22t-10.5 -80v-594zM473 1526q0 67 43.5 100t110.5 33q64 0 108.5 -33.5t44.5 -99.5q0 -64 -44.5 -97.5t-108.5 -33.5q-66 0 -110 33.5t-44 97.5z" />
    <glyph glyph-name="divide" unicode="&#xf7;" horiz-adv-x="913" 
d="M457 987q-26 0 -44 18t-18 44q0 25 18 43t44 18q25 0 43 -18t18 -43q0 -26 -18 -44t-43 -18zM37 770v86h840v-86h-840zM395 578q0 25 18 43t44 18q25 0 43 -18t18 -43q0 -26 -18 -44t-43 -18q-26 0 -44 18t-18 44z" />
    <glyph glyph-name="oslash" unicode="&#xf8;" horiz-adv-x="876" 
d="M438 -20q-106 0 -182 30l-68 -184h-112l88 237q-131 116 -131 394v417q0 251 102 364.5t303 113.5q103 0 185 -31l67 184h113l-88 -239q129 -114 129 -392v-417q0 -251 -102.5 -364t-303.5 -113zM385 362q0 -54 11 -75t42 -21q33 0 43.5 22.5t10.5 80.5v286zM385 672
l107 291q0 58 -10.5 80t-43.5 22q-32 0 -42.5 -22t-10.5 -80v-291z" />
    <glyph glyph-name="ugrave" unicode="&#xf9;" horiz-adv-x="880" 
d="M492 0v150q-29 -68 -88 -119t-146 -51q-55 0 -95 19.5t-63 50.5t-36 81t-17 98t-4 115v987h342v-962q0 -58 10.5 -80.5t42.5 -22.5q33 0 43.5 22.5t10.5 80.5v962h344v-1331h-344zM143 1604l21 79l563 -151l-20 -78z" />
    <glyph glyph-name="uacute" unicode="&#xfa;" horiz-adv-x="880" 
d="M492 0v150q-29 -68 -88 -119t-146 -51q-55 0 -95 19.5t-63 50.5t-36 81t-17 98t-4 115v987h342v-962q0 -58 10.5 -80.5t42.5 -22.5q33 0 43.5 22.5t10.5 80.5v962h344v-1331h-344zM143 1532l564 151l20 -79l-563 -150z" />
    <glyph glyph-name="ucircumflex" unicode="&#xfb;" horiz-adv-x="880" 
d="M492 0v150q-29 -68 -88 -119t-146 -51q-55 0 -95 19.5t-63 50.5t-36 81t-17 98t-4 115v987h342v-962q0 -58 10.5 -80.5t42.5 -22.5q33 0 43.5 22.5t10.5 80.5v962h344v-1331h-344zM143 1454l224 229h143l217 -229h-133l-156 168l-162 -168h-133z" />
    <glyph glyph-name="udieresis" unicode="&#xfc;" horiz-adv-x="880" 
d="M492 0v150q-29 -68 -88 -119t-146 -51q-55 0 -95 19.5t-63 50.5t-36 81t-17 98t-4 115v987h342v-962q0 -58 10.5 -80.5t42.5 -22.5q33 0 43.5 22.5t10.5 80.5v962h344v-1331h-344zM94 1526q0 67 43.5 100t110.5 33q64 0 108.5 -33.5t44.5 -99.5q0 -64 -44.5 -97.5
t-108.5 -33.5q-66 0 -110 33.5t-44 97.5zM471 1526q0 67 43.5 100t110.5 33q64 0 108.5 -33.5t44.5 -99.5q0 -64 -44.5 -97.5t-108.5 -33.5q-66 0 -110 33.5t-44 97.5z" />
    <glyph glyph-name="yacute" unicode="&#xfd;" horiz-adv-x="878" 
d="M489 20v130q-29 -68 -87.5 -119t-145.5 -51q-55 0 -95 19.5t-63 50.5t-36 81t-17 98t-4 115v987h342v-962q0 -58 10.5 -80.5t42.5 -22.5t42.5 22.5t10.5 80.5v962h345v-1311q0 -90 -5.5 -151.5t-20 -112.5t-38 -80.5t-63.5 -50t-92 -28t-126 -7.5h-403v297h309
q24 0 37.5 3t28.5 15.5t21.5 40.5t6.5 74zM145 1532l564 151l20 -79l-563 -150z" />
    <glyph glyph-name="thorn" unicode="&#xfe;" horiz-adv-x="888" 
d="M391 -410h-344v2048h344v-458q37 78 92.5 125t147.5 47q219 0 219 -328v-754q0 -290 -221 -290q-79 0 -129 30t-109 94v-514zM391 352q0 -44 11 -64t42 -20t42.5 21t11.5 65v621q0 44 -11.5 65t-42.5 21t-42 -20t-11 -64v-625z" />
    <glyph glyph-name="ydieresis" unicode="&#xff;" horiz-adv-x="878" 
d="M489 20v130q-29 -68 -87.5 -119t-145.5 -51q-55 0 -95 19.5t-63 50.5t-36 81t-17 98t-4 115v987h342v-962q0 -58 10.5 -80.5t42.5 -22.5t42.5 22.5t10.5 80.5v962h345v-1311q0 -90 -5.5 -151.5t-20 -112.5t-38 -80.5t-63.5 -50t-92 -28t-126 -7.5h-403v297h309
q24 0 37.5 3t28.5 15.5t21.5 40.5t6.5 74zM96 1526q0 67 43.5 100t110.5 33q64 0 108.5 -33.5t44.5 -99.5q0 -64 -44.5 -97.5t-108.5 -33.5q-66 0 -110 33.5t-44 97.5zM473 1526q0 67 43.5 100t110.5 33q64 0 108.5 -33.5t44.5 -99.5q0 -64 -44.5 -97.5t-108.5 -33.5
q-66 0 -110 33.5t-44 97.5z" />
    <glyph glyph-name="Amacron" unicode="&#x100;" horiz-adv-x="886" 
d="M0 0l197 1638h493l197 -1638h-363l-14 244h-133l-15 -244h-362zM152 1835v82h583v-82h-583zM393 541h99l-41 714l-5 52h-8l-4 -52z" />
    <glyph glyph-name="amacron" unicode="&#x101;" horiz-adv-x="872" 
d="M498 0v168q-71 -188 -238 -188q-115 0 -182.5 84t-67.5 255q0 70 18.5 133.5t45 107.5t66.5 85t70.5 64t68.5 47l59 37q41 25 59.5 38.5t44 36t35.5 46.5t10 53v26q0 36 -11.5 54t-43.5 18t-43.5 -18t-11.5 -54v-114h-344v36q0 229 97.5 333t303.5 104t301.5 -104.5
t95.5 -332.5v-915h-333zM141 1528v82h584v-82h-584zM360 391q0 -90 60 -90q40 0 53.5 45.5t13.5 153.5v110q-5 -18 -45 -63l-30 -33q-52 -55 -52 -123z" />
    <glyph glyph-name="Abreve" unicode="&#x102;" horiz-adv-x="886" 
d="M0 0l197 1638h493l197 -1638h-363l-14 244h-133l-15 -244h-362zM152 1991h102q0 -41 19 -72t49 -46.5t61 -22.5t63 -7t62 7t59.5 22.5t47.5 46t18 72.5h102q0 -64 -24.5 -110.5t-67 -71.5t-91.5 -36.5t-106 -11.5t-106.5 11.5t-93.5 36.5t-69 71.5t-25 110.5zM393 541h99
l-41 714l-5 52h-8l-4 -52z" />
    <glyph glyph-name="abreve" unicode="&#x103;" horiz-adv-x="872" 
d="M498 0v168q-71 -188 -238 -188q-115 0 -182.5 84t-67.5 255q0 70 18.5 133.5t45 107.5t66.5 85t70.5 64t68.5 47l59 37q41 25 59.5 38.5t44 36t35.5 46.5t10 53v26q0 36 -11.5 54t-43.5 18t-43.5 -18t-11.5 -54v-114h-344v36q0 229 97.5 333t303.5 104t301.5 -104.5
t95.5 -332.5v-915h-333zM141 1683h103q0 -41 19 -71.5t49.5 -46t61 -22.5t62.5 -7t62 7t59.5 22.5t47.5 45.5t18 72h102q0 -64 -24.5 -110.5t-67 -71.5t-91.5 -36t-106 -11q-58 0 -107.5 11t-93 36t-69 71.5t-25.5 110.5zM360 391q0 -90 60 -90q40 0 53.5 45.5t13.5 153.5
v110q-5 -18 -45 -63l-30 -33q-52 -55 -52 -123z" />
    <glyph glyph-name="Aogonek" unicode="&#x104;" horiz-adv-x="886" 
d="M0 0l197 1638h493l197 -1638q-111 -34 -164 -78t-53 -104q0 -59 49.5 -84t173.5 -25h14l-82 -119h-12q-126 0 -201 48t-75 135q0 160 237 227h-250l-14 244h-133l-15 -244h-362zM393 541h99l-41 714l-5 52h-8l-4 -52z" />
    <glyph glyph-name="aogonek" unicode="&#x105;" horiz-adv-x="872" 
d="M498 0v168q-71 -188 -238 -188q-115 0 -182.5 84t-67.5 255q0 70 18.5 133.5t45 107.5t66.5 85t70.5 64t68.5 47l59 37q41 25 59.5 38.5t44 36t35.5 46.5t10 53v26q0 36 -11.5 54t-43.5 18t-43.5 -18t-11.5 -54v-114h-344v36q0 229 97.5 333t303.5 104t301.5 -104.5
t95.5 -332.5v-915q-111 -34 -164 -78t-53 -104q0 -59 50 -84t174 -25h14l-82 -119h-12q-126 0 -201.5 48t-75.5 135q0 159 238 227h-221zM360 391q0 -90 60 -90q40 0 53.5 45.5t13.5 153.5v110q-5 -18 -45 -63l-30 -33q-52 -55 -52 -123z" />
    <glyph glyph-name="Cacute" unicode="&#x106;" horiz-adv-x="905" 
d="M459 -20q-418 0 -418 501v676q0 502 418 502t418 -502v-184h-365v315q0 47 -12 65.5t-41 18.5t-41 -18.5t-12 -65.5v-940q0 -46 12 -64t41 -18t41 18t12 64v318h365v-185q0 -501 -418 -501zM166 1839l563 152l21 -80l-564 -150z" />
    <glyph glyph-name="cacute" unicode="&#x107;" horiz-adv-x="862" 
d="M492 963q0 58 -10.5 80t-43.5 22q-34 0 -43.5 -21.5t-9.5 -80.5v-594q0 -59 9.5 -81t43.5 -22q33 0 43.5 22.5t10.5 80.5v153h352v-65q0 -251 -103 -364t-303 -113q-201 0 -303 113t-102 364v417q0 251 102 364.5t303 113.5q200 0 303 -113.5t103 -364.5v-65h-352v154z
M145 1532l564 151l20 -79l-563 -150z" />
    <glyph glyph-name="Ccircumflex" unicode="&#x108;" horiz-adv-x="905" 
d="M459 -20q-418 0 -418 501v676q0 502 418 502t418 -502v-184h-365v315q0 47 -12 65.5t-41 18.5t-41 -18.5t-12 -65.5v-940q0 -46 12 -64t41 -18t41 18t12 64v318h365v-185q0 -501 -418 -501zM166 1761l223 230h143l218 -230h-134l-155 168l-162 -168h-133z" />
    <glyph glyph-name="ccircumflex" unicode="&#x109;" horiz-adv-x="862" 
d="M492 963q0 58 -10.5 80t-43.5 22q-34 0 -43.5 -21.5t-9.5 -80.5v-594q0 -59 9.5 -81t43.5 -22q33 0 43.5 22.5t10.5 80.5v153h352v-65q0 -251 -103 -364t-303 -113q-201 0 -303 113t-102 364v417q0 251 102 364.5t303 113.5q200 0 303 -113.5t103 -364.5v-65h-352v154z
M145 1454l224 229h143l217 -229h-133l-156 168l-161 -168h-134z" />
    <glyph glyph-name="Cdotaccent" unicode="&#x10a;" horiz-adv-x="905" 
d="M459 -20q-418 0 -418 501v676q0 502 418 502t418 -502v-184h-365v315q0 47 -12 65.5t-41 18.5t-41 -18.5t-12 -65.5v-940q0 -46 12 -64t41 -18t41 18t12 64v318h365v-185q0 -501 -418 -501zM297 1878q0 61 40.5 99t121.5 38t121.5 -38t40.5 -99q0 -58 -41 -95.5
t-121 -37.5t-121 37.5t-41 95.5z" />
    <glyph glyph-name="cdotaccent" unicode="&#x10b;" horiz-adv-x="862" 
d="M492 963q0 58 -10.5 80t-43.5 22q-34 0 -43.5 -21.5t-9.5 -80.5v-594q0 -59 9.5 -81t43.5 -22q33 0 43.5 22.5t10.5 80.5v153h352v-65q0 -251 -103 -364t-303 -113q-201 0 -303 113t-102 364v417q0 251 102 364.5t303 113.5q200 0 303 -113.5t103 -364.5v-65h-352v154z
M244 1524q0 135 194 135q195 0 195 -135q0 -131 -195 -131q-194 0 -194 131z" />
    <glyph glyph-name="Ccaron" unicode="&#x10c;" horiz-adv-x="905" 
d="M459 -20q-418 0 -418 501v676q0 502 418 502t418 -502v-184h-365v315q0 47 -12 65.5t-41 18.5t-41 -18.5t-12 -65.5v-940q0 -46 12 -64t41 -18t41 18t12 64v318h365v-185q0 -501 -418 -501zM166 1991h133l162 -168l155 168h134l-218 -230h-143z" />
    <glyph glyph-name="ccaron" unicode="&#x10d;" horiz-adv-x="862" 
d="M492 963q0 58 -10.5 80t-43.5 22q-34 0 -43.5 -21.5t-9.5 -80.5v-594q0 -59 9.5 -81t43.5 -22q33 0 43.5 22.5t10.5 80.5v153h352v-65q0 -251 -103 -364t-303 -113q-201 0 -303 113t-102 364v417q0 251 102 364.5t303 113.5q200 0 303 -113.5t103 -364.5v-65h-352v154z
M145 1683h134l161 -167l156 167h133l-217 -229h-143z" />
    <glyph glyph-name="Dcaron" unicode="&#x10e;" 
d="M51 0v1638h377q134 0 220 -22.5t138 -77.5t72.5 -136.5t20.5 -209.5v-746q0 -126 -20.5 -207.5t-72.5 -137t-138 -78.5t-220 -23h-377zM115 1991h133l162 -168l155 168h133l-217 -230h-143zM408 266h26q46 0 63 21t17 78v909q0 58 -18 78t-66 20h-22v-1106z" />
    <glyph glyph-name="dcaron" unicode="&#x10f;" horiz-adv-x="1021" 
d="M498 1638h344v-1638h-344v152q-37 -78 -92.5 -125t-147.5 -47q-219 0 -219 327v754q0 291 221 291q79 0 129 -30.5t109 -94.5v411zM391 356q0 -44 11 -65t42 -21t42.5 20t11.5 64v625q0 44 -11.5 64t-42.5 20t-42 -21t-11 -65v-621zM901 1188l41 450h164l-102 -450h-103z
" />
    <glyph glyph-name="Dcroat" unicode="&#x110;" horiz-adv-x="937" 
d="M68 0v737h-60v164h60v737h376q134 0 220 -22.5t138 -77.5t72.5 -136.5t20.5 -209.5v-746q0 -126 -20.5 -207.5t-72.5 -137t-138 -78.5t-220 -23h-376zM424 266h27q46 0 62.5 21t16.5 78v909q0 58 -18 78t-66 20h-22v-471h74v-164h-74v-471z" />
    <glyph glyph-name="dcroat" unicode="&#x111;" horiz-adv-x="888" 
d="M498 1638h344v-71h78v-156h-78v-1411h-344v152q-37 -78 -92.5 -125t-147.5 -47q-219 0 -219 327v754q0 291 221 291q79 0 129 -30.5t109 -94.5v184h-142v156h142v71zM391 356q0 -44 11 -65t42 -21t42.5 20t11.5 64v625q0 44 -11.5 64t-42.5 20t-42 -21t-11 -65v-621z" />
    <glyph glyph-name="Emacron" unicode="&#x112;" horiz-adv-x="741" 
d="M51 0v1638h656v-297h-299v-374h278v-295h-278v-375h299v-297h-656zM86 1835v82h584v-82h-584z" />
    <glyph glyph-name="emacron" unicode="&#x113;" horiz-adv-x="876" 
d="M145 1528v82h584v-82h-584zM33 457v417q0 251 102 364.5t303 113.5q200 0 303 -113.5t103 -364.5v-303h-459v-202q0 -59 9.5 -81t43.5 -22q33 0 43.5 22.5t10.5 80.5v120h352v-32q0 -251 -103 -364t-303 -113q-201 0 -303 113t-102 364zM385 819h107v144q0 58 -10.5 80
t-43.5 22q-34 0 -43.5 -21.5t-9.5 -80.5v-144z" />
    <glyph glyph-name="Edotaccent" unicode="&#x116;" horiz-adv-x="741" 
d="M51 0v1638h656v-297h-299v-374h278v-295h-278v-375h299v-297h-656zM217 1878q0 61 40.5 99t121.5 38t121.5 -38t40.5 -99q0 -58 -41 -95.5t-121 -37.5t-121 37.5t-41 95.5z" />
    <glyph glyph-name="edotaccent" unicode="&#x117;" horiz-adv-x="876" 
d="M438 1393q-194 0 -194 131q0 135 194 135q195 0 195 -135q0 -131 -195 -131zM33 457v417q0 251 102 364.5t303 113.5q200 0 303 -113.5t103 -364.5v-303h-459v-202q0 -59 9.5 -81t43.5 -22q33 0 43.5 22.5t10.5 80.5v120h352v-32q0 -251 -103 -364t-303 -113
q-201 0 -303 113t-102 364zM385 819h107v144q0 58 -10.5 80t-43.5 22q-34 0 -43.5 -21.5t-9.5 -80.5v-144z" />
    <glyph glyph-name="Eogonek" unicode="&#x118;" horiz-adv-x="741" 
d="M51 0v1638h656v-297h-299v-374h278v-295h-278v-375h299v-297q-111 -34 -164.5 -78t-53.5 -104q0 -59 49.5 -84t174.5 -25h14l-82 -119h-12q-126 0 -201.5 48t-75.5 135q0 159 238 227h-543z" />
    <glyph glyph-name="eogonek" unicode="&#x119;" horiz-adv-x="876" 
d="M518 -410q-126 0 -201 48t-75 135q0 139 176 207q-192 5 -288.5 118t-96.5 359v417q0 251 102 364.5t303 113.5q200 0 303 -113.5t103 -364.5v-303h-459v-202q0 -59 9.5 -81t43.5 -22q33 0 43.5 22.5t10.5 80.5v120h352v-32q0 -203 -66.5 -314.5t-197.5 -146.5
q-105 -34 -155 -77t-50 -101q0 -59 49.5 -84t173.5 -25h14l-82 -119h-12zM385 819h107v144q0 58 -10.5 80t-43.5 22q-34 0 -43.5 -21.5t-9.5 -80.5v-144z" />
    <glyph glyph-name="Ecaron" unicode="&#x11a;" horiz-adv-x="741" 
d="M51 0v1638h656v-297h-299v-374h278v-295h-278v-375h299v-297h-656zM86 1991h133l162 -168l156 168h133l-217 -230h-144z" />
    <glyph glyph-name="ecaron" unicode="&#x11b;" horiz-adv-x="876" 
d="M369 1454l-224 229h134l161 -167l156 167h133l-217 -229h-143zM33 457v417q0 251 102 364.5t303 113.5q200 0 303 -113.5t103 -364.5v-303h-459v-202q0 -59 9.5 -81t43.5 -22q33 0 43.5 22.5t10.5 80.5v120h352v-32q0 -251 -103 -364t-303 -113q-201 0 -303 113t-102 364
zM385 819h107v144q0 58 -10.5 80t-43.5 22q-34 0 -43.5 -21.5t-9.5 -80.5v-144z" />
    <glyph glyph-name="Gcircumflex" unicode="&#x11c;" 
d="M410 -20q-167 0 -268 121.5t-101 355.5v700q0 502 418 502t418 -502v-199h-365v330q0 47 -12 65.5t-41 18.5t-41 -18.5t-12 -65.5v-940q0 -45 12 -63.5t41 -18.5t41 18.5t12 61.5v238h-53v272h418v-856h-144l-49 100q-111 -120 -274 -120zM166 1761l223 230h143l218 -230
h-134l-155 168l-162 -168h-133z" />
    <glyph glyph-name="gcircumflex" unicode="&#x11d;" horiz-adv-x="886" 
d="M498 20v132q-37 -78 -92.5 -125t-147.5 -47q-219 0 -219 327v754q0 291 221 291q79 0 129 -30.5t109 -94.5v104h344v-1308q0 -102 -8 -168.5t-29 -121t-60.5 -84t-100 -44.5t-150.5 -15h-381v297h286q26 0 40.5 3t30 15.5t22 40.5t6.5 74zM152 1454l223 229h143l217 -229
h-133l-156 168l-161 -168h-133zM391 356q0 -44 11 -65t42 -21t42.5 20t11.5 64v625q0 44 -11.5 64t-42.5 20t-42 -21t-11 -65v-621z" />
    <glyph glyph-name="Gbreve" unicode="&#x11e;" 
d="M410 -20q-167 0 -268 121.5t-101 355.5v700q0 502 418 502t418 -502v-199h-365v330q0 47 -12 65.5t-41 18.5t-41 -18.5t-12 -65.5v-940q0 -45 12 -63.5t41 -18.5t41 18.5t12 61.5v238h-53v272h418v-856h-144l-49 100q-111 -120 -274 -120zM166 1991h102q0 -41 19 -72
t49.5 -46.5t61.5 -22.5t63 -7t62 7t59 22.5t47 46t18 72.5h103q0 -64 -24.5 -110.5t-67 -71.5t-91.5 -36.5t-106 -11.5t-107 11.5t-93.5 36.5t-69 71.5t-25.5 110.5z" />
    <glyph glyph-name="gbreve" unicode="&#x11f;" horiz-adv-x="886" 
d="M498 20v132q-37 -78 -92.5 -125t-147.5 -47q-219 0 -219 327v754q0 291 221 291q79 0 129 -30.5t109 -94.5v104h344v-1308q0 -102 -8 -168.5t-29 -121t-60.5 -84t-100 -44.5t-150.5 -15h-381v297h286q26 0 40.5 3t30 15.5t22 40.5t6.5 74zM152 1683h102q0 -41 19 -71.5
t49.5 -46t61 -22.5t62.5 -7t62 7t59.5 22.5t47.5 45.5t18 72h102q0 -64 -24.5 -110.5t-67 -71.5t-91.5 -36t-106 -11q-45 0 -85.5 6.5t-79.5 23t-67 42t-45 65.5t-17 92zM391 356q0 -44 11 -65t42 -21t42.5 20t11.5 64v625q0 44 -11.5 64t-42.5 20t-42 -21t-11 -65v-621z
" />
    <glyph glyph-name="Gdotaccent" unicode="&#x120;" 
d="M410 -20q-167 0 -268 121.5t-101 355.5v700q0 502 418 502t418 -502v-199h-365v330q0 47 -12 65.5t-41 18.5t-41 -18.5t-12 -65.5v-940q0 -45 12 -63.5t41 -18.5t41 18.5t12 61.5v238h-53v272h418v-856h-144l-49 100q-111 -120 -274 -120zM297 1878q0 61 40.5 99
t121.5 38t121.5 -38t40.5 -99q0 -58 -41 -95.5t-121 -37.5t-121 37.5t-41 95.5z" />
    <glyph glyph-name="gdotaccent" unicode="&#x121;" horiz-adv-x="886" 
d="M498 20v132q-37 -78 -92.5 -125t-147.5 -47q-219 0 -219 327v754q0 291 221 291q79 0 129 -30.5t109 -94.5v104h344v-1308q0 -102 -8 -168.5t-29 -121t-60.5 -84t-100 -44.5t-150.5 -15h-381v297h286q26 0 40.5 3t30 15.5t22 40.5t6.5 74zM250 1524q0 135 194 135
q195 0 195 -135q0 -131 -195 -131q-194 0 -194 131zM391 356q0 -44 11 -65t42 -21t42.5 20t11.5 64v625q0 44 -11.5 64t-42.5 20t-42 -21t-11 -65v-621z" />
    <glyph glyph-name="uni0122" unicode="&#x122;" 
d="M410 -20q-167 0 -268 121.5t-101 355.5v700q0 502 418 502t418 -502v-199h-365v330q0 47 -12 65.5t-41 18.5t-41 -18.5t-12 -65.5v-940q0 -45 12 -63.5t41 -18.5t41 18.5t12 61.5v238h-53v272h418v-856h-144l-49 100q-111 -120 -274 -120zM346 -184q0 52 31.5 82t81.5 30
q54 0 82 -35.5t28 -97.5q0 -70 -51.5 -137t-142.5 -111v97q105 21 139 104q-30 -41 -76 -41q-39 0 -65.5 28.5t-26.5 80.5z" />
    <glyph glyph-name="uni0123" unicode="&#x123;" horiz-adv-x="886" 
d="M498 20v132q-37 -78 -92.5 -125t-147.5 -47q-219 0 -219 327v754q0 291 221 291q79 0 129 -30.5t109 -94.5v104h344v-1308q0 -102 -8 -168.5t-29 -121t-60.5 -84t-100 -44.5t-150.5 -15h-381v297h286q26 0 40.5 3t30 15.5t22 40.5t6.5 74zM332 1542q0 70 51.5 137
t142.5 111v-96q-48 -9 -85 -36.5t-54 -68.5q30 41 76 41q39 0 65.5 -28t26.5 -80t-31.5 -82.5t-81.5 -30.5q-54 0 -82 35.5t-28 97.5zM391 356q0 -44 11 -65t42 -21t42.5 20t11.5 64v625q0 44 -11.5 64t-42.5 20t-42 -21t-11 -65v-621z" />
    <glyph glyph-name="Hcircumflex" unicode="&#x124;" 
d="M514 0v672h-106v-672h-357v1638h357v-671h106v671h356v-1638h-356zM168 1761l223 230h144l217 -230h-134l-155 168l-162 -168h-133z" />
    <glyph glyph-name="hcircumflex" unicode="&#x125;" horiz-adv-x="882" 
d="M391 1638v-456q29 68 88 119t146 51q55 0 95 -19.5t63 -50.5t36 -81t17 -98.5t4 -115.5v-987h-342v963q0 58 -10.5 80t-43.5 22q-32 0 -42.5 -22t-10.5 -80v-963h-344v1638h344zM-76 1761l223 230h144l217 -230h-133l-156 168l-162 -168h-133z" />
    <glyph glyph-name="Hbar" unicode="&#x126;" horiz-adv-x="1001" 
d="M555 0v672h-106v-672h-357v1249h-88v164h88v225h357v-225h106v225h356v-225h86v-164h-86v-1249h-356zM449 967h106v282h-106v-282z" />
    <glyph glyph-name="hbar" unicode="&#x127;" horiz-adv-x="882" 
d="M391 1638v-92h148v-155h-148v-209q29 68 88 119t146 51q55 0 95 -19.5t63 -50.5t36 -81t17 -98.5t4 -115.5v-987h-342v963q0 58 -10.5 80t-43.5 22q-32 0 -42.5 -22t-10.5 -80v-963h-344v1391h-72v155h72v92h344z" />
    <glyph glyph-name="Itilde" unicode="&#x128;" horiz-adv-x="458" 
d="M51 0v1638h357v-1638h-357zM-63 1786q0 205 163 205q44 0 77.5 -15t53.5 -37t37 -44t37.5 -37t44.5 -15q68 0 68 123h102q0 -205 -164 -205q-44 0 -77.5 15t-53.5 37t-37 44t-37.5 37t-44.5 15q-67 0 -67 -123h-102z" />
    <glyph glyph-name="itilde" unicode="&#x129;" horiz-adv-x="438" 
d="M47 1331h344v-1331h-344v1331zM-74 1479q0 204 164 204q44 0 77.5 -15t53.5 -36.5t37 -43.5t37.5 -37t44.5 -15q68 0 68 123h102q0 -205 -164 -205q-44 0 -77.5 15t-53.5 37t-37 44t-37.5 37t-44.5 15q-67 0 -67 -123h-103z" />
    <glyph glyph-name="Imacron" unicode="&#x12a;" horiz-adv-x="458" 
d="M51 0v1638h357v-1638h-357zM-63 1835v82h583v-82h-583z" />
    <glyph glyph-name="imacron" unicode="&#x12b;" horiz-adv-x="438" 
d="M47 1331h344v-1331h-344v1331zM-74 1528v82h584v-82h-584z" />
    <glyph glyph-name="Iogonek" unicode="&#x12e;" horiz-adv-x="458" 
d="M51 0v1638h357v-1638q-111 -34 -164.5 -78t-53.5 -104q0 -59 50 -84t174 -25h14l-82 -119h-12q-126 0 -201.5 48t-75.5 135q0 159 238 227h-244z" />
    <glyph glyph-name="iogonek" unicode="&#x12f;" horiz-adv-x="438" 
d="M47 1331h344v-1331q-111 -34 -164 -78t-53 -104q0 -59 49.5 -84t173.5 -25h15l-82 -119h-13q-126 0 -201 48t-75 135q0 159 238 227h-232v1331zM25 1524q0 135 194 135q195 0 195 -135q0 -131 -195 -131q-194 0 -194 131z" />
    <glyph glyph-name="Idotaccent" unicode="&#x130;" horiz-adv-x="458" 
d="M51 0v1638h357v-1638h-357zM68 1878q0 61 40 99t121 38t121.5 -38t40.5 -99q0 -58 -41 -95.5t-121 -37.5t-120.5 37.5t-40.5 95.5z" />
    <glyph glyph-name="dotlessi" unicode="&#x131;" horiz-adv-x="438" 
d="M47 1331h344v-1331h-344v1331z" />
    <glyph glyph-name="IJ" unicode="&#x132;" horiz-adv-x="1376" 
d="M51 0v1638h357v-1638h-357zM494 481v88h364v-221q0 -46 12 -64t41 -18t41.5 18.5t12.5 63.5v1290h364v-1157q0 -501 -418 -501q-417 0 -417 501z" />
    <glyph glyph-name="ij" unicode="&#x133;" horiz-adv-x="860" 
d="M47 1331h344v-1331h-344v1331zM25 1524q0 135 194 135q195 0 195 -135q0 -131 -195 -131q-194 0 -194 131zM281 -410v297h86q27 0 42.5 3.5t31 16t22 41t6.5 75.5v1308h344v-1304q0 -86 -5 -145.5t-19.5 -111.5t-38.5 -83.5t-63.5 -54.5t-93.5 -32.5t-130 -9.5h-182z
M446 1524q0 135 195 135t195 -135q0 -131 -195 -131t-195 131z" />
    <glyph glyph-name="Jcircumflex" unicode="&#x134;" horiz-adv-x="894" 
d="M430 -20q-418 0 -418 501v88h365v-221q0 -46 12 -64t41 -18t41 18t12 64v1290h365v-1157q0 -501 -418 -501zM365 1761l223 230h143l217 -230h-133l-156 168l-161 -168h-133z" />
    <glyph glyph-name="jcircumflex" unicode="&#x135;" horiz-adv-x="438" 
d="M47 23v1308h344v-1304q0 -86 -5 -145.5t-19.5 -111.5t-38.5 -83.5t-63.5 -54.5t-93.5 -32.5t-130 -9.5h-182v297h86q27 0 42.5 3.5t31 16t22 41t6.5 75.5zM-74 1454l224 229h143l217 -229h-133l-156 168l-162 -168h-133z" />
    <glyph glyph-name="uni0136" unicode="&#x136;" horiz-adv-x="913" 
d="M551 0l-115 659h-28v-659h-357v1638h357v-659h28l115 659h367l-175 -819l175 -819h-367zM371 -184q0 52 31 82t81 30q54 0 82.5 -35.5t28.5 -97.5q0 -70 -52 -137t-143 -111v97q106 21 140 104q-30 -41 -76 -41q-39 0 -65.5 28.5t-26.5 80.5z" />
    <glyph glyph-name="uni0137" unicode="&#x137;" horiz-adv-x="870" 
d="M47 1638h344v-815h29l94 508h358l-159 -663l159 -668h-358l-98 528h-25v-528h-344v1638zM354 -184q0 52 31.5 82t81.5 30q54 0 82.5 -35.5t28.5 -97.5q0 -70 -52 -137t-143 -111v97q105 21 139 104q-30 -41 -76 -41q-39 0 -65.5 28.5t-26.5 80.5z" />
    <glyph glyph-name="Lacute" unicode="&#x139;" horiz-adv-x="731" 
d="M51 0v1638h357v-1341h307v-297h-664zM76 1839l563 152l20 -80l-563 -150z" />
    <glyph glyph-name="lacute" unicode="&#x13a;" horiz-adv-x="438" 
d="M47 1638h344v-1638h-344v1638zM-74 1839l563 152l21 -80l-563 -150z" />
    <glyph glyph-name="uni013B" unicode="&#x13b;" horiz-adv-x="731" 
d="M51 0v1638h357v-1341h307v-297h-664zM248 -184q0 52 31 82t81 30q54 0 82.5 -35.5t28.5 -97.5q0 -70 -52 -137t-143 -111v97q106 21 140 104q-30 -41 -76 -41q-39 0 -65.5 28.5t-26.5 80.5z" />
    <glyph glyph-name="uni013C" unicode="&#x13c;" horiz-adv-x="438" 
d="M47 1638h344v-1638h-344v1638zM106 -184q0 52 31.5 82t81.5 30q54 0 82.5 -35.5t28.5 -97.5q0 -70 -52 -137t-143 -111v97q105 21 139 104q-30 -41 -75 -41q-39 0 -66 28.5t-27 80.5z" />
    <glyph glyph-name="Lcaron" unicode="&#x13d;" horiz-adv-x="735" 
d="M51 0v1638h357v-1341h307v-297h-664zM516 1188l41 450h164l-103 -450h-102z" />
    <glyph glyph-name="lcaron" unicode="&#x13e;" horiz-adv-x="573" 
d="M47 1638h344v-1638h-344v1638zM453 1188l41 450h163l-102 -450h-102z" />
    <glyph glyph-name="Lslash" unicode="&#x141;" horiz-adv-x="792" 
d="M113 0v592l-101 -76v182l101 76v864h356v-591l143 110v-184l-143 -109v-567h307v-297h-663z" />
    <glyph glyph-name="lslash" unicode="&#x142;" horiz-adv-x="731" 
d="M186 1638h344v-643l197 121v-174l-197 -119v-823h-344v614l-198 -120v172l198 120v852z" />
    <glyph glyph-name="Nacute" unicode="&#x143;" horiz-adv-x="935" 
d="M51 0v1638h316l202 -782v782h316v-1638h-316l-202 784v-784h-316zM176 1839l563 152l21 -80l-563 -150z" />
    <glyph glyph-name="nacute" unicode="&#x144;" horiz-adv-x="880" 
d="M389 1331v-149q29 68 88 119t146 51q55 0 95 -19.5t63 -50.5t36 -81t17 -98.5t4 -115.5v-987h-342v963q0 58 -10.5 80t-43.5 22q-32 0 -42.5 -22t-10.5 -80v-963h-342v1331h342zM150 1532l563 151l20 -79l-563 -150z" />
    <glyph glyph-name="uni0145" unicode="&#x145;" horiz-adv-x="935" 
d="M51 0v1638h316l202 -782v782h316v-1638h-316l-202 784v-784h-316zM356 -184q0 52 31.5 82t81.5 30q54 0 82.5 -35.5t28.5 -97.5q0 -70 -52 -137t-143 -111v97q105 21 139 104q-30 -41 -75 -41q-39 0 -66 28.5t-27 80.5z" />
    <glyph glyph-name="uni0146" unicode="&#x146;" horiz-adv-x="880" 
d="M389 1331v-149q29 68 88 119t146 51q55 0 95 -19.5t63 -50.5t36 -81t17 -98.5t4 -115.5v-987h-342v963q0 58 -10.5 80t-43.5 22q-32 0 -42.5 -22t-10.5 -80v-963h-342v1331h342zM330 -184q0 52 31 82t81 30q54 0 82.5 -35.5t28.5 -97.5q0 -70 -52 -137t-143 -111v97
q106 21 140 104q-30 -41 -76 -41q-39 0 -65.5 28.5t-26.5 80.5z" />
    <glyph glyph-name="Ncaron" unicode="&#x147;" horiz-adv-x="935" 
d="M51 0v1638h316l202 -782v782h316v-1638h-316l-202 784v-784h-316zM176 1991h133l162 -168l156 168h133l-217 -230h-144z" />
    <glyph glyph-name="ncaron" unicode="&#x148;" horiz-adv-x="880" 
d="M389 1331v-149q29 68 88 119t146 51q55 0 95 -19.5t63 -50.5t36 -81t17 -98.5t4 -115.5v-987h-342v963q0 58 -10.5 80t-43.5 22q-32 0 -42.5 -22t-10.5 -80v-963h-342v1331h342zM150 1683h133l161 -167l156 167h133l-217 -229h-143z" />
    <glyph glyph-name="Eng" unicode="&#x14a;" horiz-adv-x="935" 
d="M51 0v1638h316l202 -782v782h316v-1638q-1 -80 -5.5 -134t-17 -103.5t-35 -79.5t-59 -52.5t-87.5 -31.5t-122 -9h-94v318h22q55 0 73.5 17t8.5 77l-202 782v-784h-316z" />
    <glyph glyph-name="eng" unicode="&#x14b;" horiz-adv-x="880" 
d="M389 1331v-149q29 68 88 119t146 51q55 0 95 -19.5t63 -50.5t36 -81t17 -98.5t4 -115.5v-987q0 -79 -5 -134t-19.5 -104t-38.5 -79t-63.5 -52t-93.5 -31.5t-129 -9.5h-180v297h86q26 0 41.5 3t30.5 13.5t22 34.5t7 62v963q0 58 -10.5 80t-43.5 22q-32 0 -42.5 -22
t-10.5 -80v-963h-342v1331h342z" />
    <glyph glyph-name="Omacron" unicode="&#x14c;" horiz-adv-x="917" 
d="M459 -20q-207 0 -312.5 122.5t-105.5 378.5v676q0 502 418 502t418 -502v-676q0 -256 -105.5 -378.5t-312.5 -122.5zM166 1835v82h584v-82h-584zM406 348q0 -43 11 -62.5t42 -19.5t42 19.5t11 62.5v938q0 44 -11 65t-42 21t-42 -20t-11 -64v-940z" />
    <glyph glyph-name="omacron" unicode="&#x14d;" horiz-adv-x="876" 
d="M438 -20q-201 0 -303 113t-102 364v417q0 251 102 364.5t303 113.5t303.5 -113.5t102.5 -364.5v-417q0 -251 -102.5 -364t-303.5 -113zM145 1528v82h584v-82h-584zM385 369q0 -58 10.5 -80.5t42.5 -22.5q33 0 43.5 22.5t10.5 80.5v594q0 58 -10.5 80t-43.5 22
q-32 0 -42.5 -22t-10.5 -80v-594z" />
    <glyph glyph-name="Ohungarumlaut" unicode="&#x150;" horiz-adv-x="917" 
d="M459 -20q-207 0 -312.5 122.5t-105.5 378.5v676q0 502 418 502t418 -502v-676q0 -256 -105.5 -378.5t-312.5 -122.5zM268 1761l236 230h123l-215 -230h-144zM406 348q0 -43 11 -62.5t42 -19.5t42 19.5t11 62.5v938q0 44 -11 65t-42 21t-42 -20t-11 -64v-940zM494 1761
l235 230h123l-215 -230h-143z" />
    <glyph glyph-name="ohungarumlaut" unicode="&#x151;" horiz-adv-x="876" 
d="M438 -20q-201 0 -303 113t-102 364v417q0 251 102 364.5t303 113.5t303.5 -113.5t102.5 -364.5v-417q0 -251 -102.5 -364t-303.5 -113zM248 1454l235 229h123l-215 -229h-143zM385 369q0 -58 10.5 -80.5t42.5 -22.5q33 0 43.5 22.5t10.5 80.5v594q0 58 -10.5 80t-43.5 22
q-32 0 -42.5 -22t-10.5 -80v-594zM473 1454l236 229h122l-215 -229h-143z" />
    <glyph glyph-name="OE" unicode="&#x152;" horiz-adv-x="1165" 
d="M377 -20q-78 0 -138 25.5t-96.5 65.5t-59.5 96t-31.5 111t-8.5 117v848q0 62 8.5 117t31.5 111t59.5 96.5t96.5 66t138 25.5q157 0 231 -115v94h522v-297h-262v-374h242v-295h-242v-375h262v-297h-522v94q-74 -114 -231 -114zM408 328q0 -29 12.5 -45.5t32.5 -16.5
q43 0 43 62v983q0 61 -43 61q-21 0 -33 -16t-12 -45v-983z" />
    <glyph glyph-name="oe" unicode="&#x153;" horiz-adv-x="1308" 
d="M410 -20q-78 0 -143 23t-118.5 73t-83.5 138.5t-30 209.5v483q0 121 30 210t83.5 138.5t118.5 73t143 23.5q160 0 245 -101q82 101 252 101q369 0 369 -445v-336h-459v-202q0 -59 9.5 -81t43.5 -22q33 0 43.5 22.5t10.5 80.5v123h352v-68q0 -444 -371 -444
q-169 0 -250 102q-83 -102 -245 -102zM387 369q0 -59 9.5 -81t43.5 -22q33 0 43.5 22.5t10.5 80.5v594q0 58 -10.5 80t-43.5 22q-34 0 -43.5 -21.5t-9.5 -80.5v-594zM817 819h107v144q0 58 -10.5 80t-43.5 22q-34 0 -43.5 -21.5t-9.5 -80.5v-144z" />
    <glyph glyph-name="Racute" unicode="&#x154;" horiz-adv-x="917" 
d="M541 0q-23 29 -23 145v381q0 95 -55 95h-55v-621h-357v1638h410q118 0 195 -20t129.5 -69.5t75 -130.5t22.5 -206v-22q0 -141 -20.5 -225t-61.5 -127.5t-115 -71.5q58 -22 98 -55.5t61 -74.5t29.5 -83t8.5 -92v-316q0 -95 22 -145h-364zM158 1839l563 152l20 -80
l-563 -150zM408 887h55q55 0 55 94v297q0 94 -55 94h-55v-485z" />
    <glyph glyph-name="racute" unicode="&#x155;" horiz-adv-x="849" 
d="M391 1331v-145q34 79 92.5 122.5t132.5 43.5q226 0 226 -332v-182h-344v86q0 87 -10.5 115t-43.5 28q-32 0 -42.5 -22t-10.5 -80v-965h-344v1331h344zM152 1532l563 151l20 -79l-563 -150z" />
    <glyph glyph-name="uni0156" unicode="&#x156;" horiz-adv-x="917" 
d="M541 0q-23 29 -23 145v381q0 95 -55 95h-55v-621h-357v1638h410q118 0 195 -20t129.5 -69.5t75 -130.5t22.5 -206v-22q0 -141 -20.5 -225t-61.5 -127.5t-115 -71.5q58 -22 98 -55.5t61 -74.5t29.5 -83t8.5 -92v-316q0 -95 22 -145h-364zM367 -184q0 52 31 82t81 30
q54 0 82.5 -35.5t28.5 -97.5q0 -70 -52 -137t-143 -111v97q106 21 140 104q-30 -41 -76 -41q-39 0 -65.5 28.5t-26.5 80.5zM408 887h55q55 0 55 94v297q0 94 -55 94h-55v-485z" />
    <glyph glyph-name="uni0157" unicode="&#x157;" horiz-adv-x="849" 
d="M391 1331v-145q34 79 92.5 122.5t132.5 43.5q226 0 226 -332v-182h-344v86q0 87 -10.5 115t-43.5 28q-32 0 -42.5 -22t-10.5 -80v-965h-344v1331h344zM111 -184q0 52 31 82t81 30q54 0 82.5 -35.5t28.5 -97.5q0 -70 -52 -137t-143 -111v97q106 21 140 104
q-30 -41 -76 -41q-39 0 -65.5 28.5t-26.5 80.5z" />
    <glyph glyph-name="Rcaron" unicode="&#x158;" horiz-adv-x="917" 
d="M541 0q-23 29 -23 145v381q0 95 -55 95h-55v-621h-357v1638h410q118 0 195 -20t129.5 -69.5t75 -130.5t22.5 -206v-22q0 -141 -20.5 -225t-61.5 -127.5t-115 -71.5q58 -22 98 -55.5t61 -74.5t29.5 -83t8.5 -92v-316q0 -95 22 -145h-364zM158 1991h133l162 -168l155 168
h133l-217 -230h-143zM408 887h55q55 0 55 94v297q0 94 -55 94h-55v-485z" />
    <glyph glyph-name="rcaron" unicode="&#x159;" horiz-adv-x="849" 
d="M391 1331v-145q34 79 92.5 122.5t132.5 43.5q226 0 226 -332v-182h-344v86q0 87 -10.5 115t-43.5 28q-32 0 -42.5 -22t-10.5 -80v-965h-344v1331h344zM152 1683h133l161 -167l156 167h133l-217 -229h-143z" />
    <glyph glyph-name="Sacute" unicode="&#x15a;" horiz-adv-x="880" 
d="M440 -20q-415 0 -415 499v94h364v-225q0 -46 12 -64t41 -18t41.5 18.5t12.5 63.5v125q0 59 -19 94.5t-61 69.5l-160 131q-117 97 -175 198.5t-58 252.5q0 209 108 324.5t311 115.5q194 0 302 -109t108 -305v-137h-363v182q0 46 -12 64t-41 18q-28 0 -39.5 -18.5
t-11.5 -63.5v-84q0 -59 19 -94.5t61 -69.5l158 -129q49 -40 77.5 -66.5t63 -69.5t53 -86t31 -105t12.5 -137q0 -234 -106 -351.5t-314 -117.5zM150 1839l563 152l20 -80l-563 -150z" />
    <glyph glyph-name="sacute" unicode="&#x15b;" horiz-adv-x="851" 
d="M631 741q71 -49 112 -93t66 -109.5t25 -153.5q0 -188 -101 -296.5t-311 -108.5q-85 0 -154.5 19.5t-126.5 61.5t-89 117.5t-32 179.5v115h355v-106q0 -56 9.5 -78.5t41.5 -22.5q33 0 44 23t11 78q0 46 -20 78t-101 87l-137 95q-102 69 -153.5 145t-51.5 199
q0 169 102.5 275t309.5 106q186 0 292.5 -89.5t106.5 -267.5v-94h-352v86q0 38 -11 58t-42 20t-42 -20t-11 -58q0 -35 13 -59.5t54 -53.5zM135 1532l563 151l21 -79l-563 -150z" />
    <glyph glyph-name="Scircumflex" unicode="&#x15c;" horiz-adv-x="880" 
d="M440 -20q-415 0 -415 499v94h364v-225q0 -46 12 -64t41 -18t41.5 18.5t12.5 63.5v125q0 59 -19 94.5t-61 69.5l-160 131q-117 97 -175 198.5t-58 252.5q0 209 108 324.5t311 115.5q194 0 302 -109t108 -305v-137h-363v182q0 46 -12 64t-41 18q-28 0 -39.5 -18.5
t-11.5 -63.5v-84q0 -59 19 -94.5t61 -69.5l158 -129q49 -40 77.5 -66.5t63 -69.5t53 -86t31 -105t12.5 -137q0 -234 -106 -351.5t-314 -117.5zM150 1761l223 230h143l217 -230h-133l-156 168l-161 -168h-133z" />
    <glyph glyph-name="scircumflex" unicode="&#x15d;" horiz-adv-x="851" 
d="M631 741q71 -49 112 -93t66 -109.5t25 -153.5q0 -188 -101 -296.5t-311 -108.5q-85 0 -154.5 19.5t-126.5 61.5t-89 117.5t-32 179.5v115h355v-106q0 -56 9.5 -78.5t41.5 -22.5q33 0 44 23t11 78q0 46 -20 78t-101 87l-137 95q-102 69 -153.5 145t-51.5 199
q0 169 102.5 275t309.5 106q186 0 292.5 -89.5t106.5 -267.5v-94h-352v86q0 38 -11 58t-42 20t-42 -20t-11 -58q0 -35 13 -59.5t54 -53.5zM135 1454l223 229h144l217 -229h-133l-156 168l-162 -168h-133z" />
    <glyph glyph-name="Scedilla" unicode="&#x15e;" horiz-adv-x="880" 
d="M303 -328q136 0 192 13t56 55q0 46 -56 55t-159 -8l47 195q-358 34 -358 497v94h364v-225q0 -46 12 -64t41 -18t41.5 18.5t12.5 63.5v125q0 59 -19 94.5t-61 69.5l-160 131q-117 97 -175 198.5t-58 252.5q0 209 108 324.5t311 115.5q194 0 302 -109t108 -305v-137h-363
v182q0 46 -12 64t-41 18q-28 0 -39.5 -18.5t-11.5 -63.5v-84q0 -59 19 -94.5t61 -69.5l158 -129q49 -40 77.5 -66.5t63 -69.5t53 -86t31 -105t12.5 -137q0 -440 -368 -467l-25 -101q217 18 217 -133q0 -62 -33 -98t-117 -55t-231 -19v96z" />
    <glyph glyph-name="scedilla" unicode="&#x15f;" horiz-adv-x="851" 
d="M631 741q71 -49 112 -93t66 -109.5t25 -153.5q0 -176 -89 -283t-274 -120l-25 -101q218 18 218 -133q0 -62 -33 -98t-117 -55t-231 -19v96q136 0 191.5 13t55.5 55q0 46 -56 55t-159 -8l47 195q-74 6 -133.5 29.5t-107.5 66.5t-74.5 114.5t-26.5 165.5v115h355v-106
q0 -56 9.5 -78.5t41.5 -22.5q33 0 44 23t11 78q0 46 -20 78t-101 87l-137 95q-102 69 -153.5 145t-51.5 199q0 169 102.5 275t309.5 106q186 0 292.5 -89.5t106.5 -267.5v-94h-352v86q0 38 -11 58t-42 20t-42 -20t-11 -58q0 -35 13 -59.5t54 -53.5z" />
    <glyph glyph-name="Scaron" unicode="&#x160;" horiz-adv-x="880" 
d="M440 -20q-415 0 -415 499v94h364v-225q0 -46 12 -64t41 -18t41.5 18.5t12.5 63.5v125q0 59 -19 94.5t-61 69.5l-160 131q-117 97 -175 198.5t-58 252.5q0 209 108 324.5t311 115.5q194 0 302 -109t108 -305v-137h-363v182q0 46 -12 64t-41 18q-28 0 -39.5 -18.5
t-11.5 -63.5v-84q0 -59 19 -94.5t61 -69.5l158 -129q49 -40 77.5 -66.5t63 -69.5t53 -86t31 -105t12.5 -137q0 -234 -106 -351.5t-314 -117.5zM150 1991h133l161 -168l156 168h133l-217 -230h-143z" />
    <glyph glyph-name="scaron" unicode="&#x161;" horiz-adv-x="851" 
d="M631 741q71 -49 112 -93t66 -109.5t25 -153.5q0 -188 -101 -296.5t-311 -108.5q-85 0 -154.5 19.5t-126.5 61.5t-89 117.5t-32 179.5v115h355v-106q0 -56 9.5 -78.5t41.5 -22.5q33 0 44 23t11 78q0 46 -20 78t-101 87l-137 95q-102 69 -153.5 145t-51.5 199
q0 169 102.5 275t309.5 106q186 0 292.5 -89.5t106.5 -267.5v-94h-352v86q0 38 -11 58t-42 20t-42 -20t-11 -58q0 -35 13 -59.5t54 -53.5zM135 1683h133l162 -167l156 167h133l-217 -229h-144z" />
    <glyph glyph-name="uni0162" unicode="&#x162;" horiz-adv-x="831" 
d="M238 0v1341h-222v297h799v-297h-221v-1341h-125l-29 -119q217 18 217 -133q0 -62 -33 -98t-117 -55t-231 -19v96q136 0 192 13t56 55q0 46 -56 55t-159 -8l51 213h-122z" />
    <glyph glyph-name="uni0163" unicode="&#x163;" horiz-adv-x="684" 
d="M662 1331v-297h-199v-598q0 -87 27.5 -113t87.5 -26h84v-297h-220l-24 -100q217 18 217 -133q0 -62 -33 -98.5t-117 -55.5t-231 -19v97q137 0 192.5 12.5t55.5 54.5q0 46 -56 55t-159 -8l49 201q-123 20 -170 102t-47 248v678h-117v297q43 12 71.5 44t41.5 78t17 88.5
t3 96.5h346q0 -274 -141 -307h322z" />
    <glyph glyph-name="Tcaron" unicode="&#x164;" horiz-adv-x="831" 
d="M238 0v1341h-222v297h799v-297h-221v-1341h-356zM123 1991h133l162 -168l155 168h134l-218 -230h-143z" />
    <glyph glyph-name="tcaron" unicode="&#x165;" horiz-adv-x="684" 
d="M662 1331v-297h-199v-598q0 -87 27.5 -113t87.5 -26h84v-297h-240q-90 0 -149 20.5t-93 66.5t-47.5 109.5t-13.5 159.5v678h-117v297q43 12 71.5 44t41.5 78t17 88.5t3 96.5h346q0 -274 -141 -307h322zM539 1434l61 409h164l-123 -409h-102z" />
    <glyph glyph-name="Tbar" unicode="&#x166;" horiz-adv-x="839" 
d="M242 0v655h-148v164h148v522h-222v297h799v-297h-221v-522h150v-164h-150v-655h-356z" />
    <glyph glyph-name="tbar" unicode="&#x167;" horiz-adv-x="692" 
d="M668 1331v-297h-199v-203h199v-163h-199v-232q0 -87 27.5 -113t87.5 -26h84v-297h-240q-90 0 -149 20.5t-93 66.5t-47.5 109.5t-13.5 159.5v312h-115v163h115v203h-117v297q43 12 71.5 44t41.5 78t17 88.5t3 96.5h346q0 -274 -141 -307h322z" />
    <glyph glyph-name="Utilde" unicode="&#x168;" horiz-adv-x="929" 
d="M465 -20q-209 0 -313.5 114.5t-104.5 366.5v1177h365v-1290q0 -43 11 -62.5t42 -19.5t42 19.5t11 62.5v1290h365v-1177q0 -252 -104.5 -366.5t-313.5 -114.5zM172 1786q0 205 164 205q44 0 77.5 -15t53.5 -37t37 -44t37.5 -37t44.5 -15q67 0 67 123h103q0 -205 -164 -205
q-44 0 -77.5 15t-53.5 37t-37 44t-37.5 37t-44.5 15q-68 0 -68 -123h-102z" />
    <glyph glyph-name="utilde" unicode="&#x169;" horiz-adv-x="880" 
d="M492 0v150q-29 -68 -88 -119t-146 -51q-55 0 -95 19.5t-63 50.5t-36 81t-17 98t-4 115v987h342v-962q0 -58 10.5 -80.5t42.5 -22.5q33 0 43.5 22.5t10.5 80.5v962h344v-1331h-344zM143 1479q0 204 164 204q44 0 77.5 -15t53.5 -36.5t37 -43.5t37.5 -37t44.5 -15
q68 0 68 123h102q0 -205 -164 -205q-44 0 -77.5 15t-53.5 37t-37 44t-37.5 37t-44.5 15q-67 0 -67 -123h-103z" />
    <glyph glyph-name="Umacron" unicode="&#x16a;" horiz-adv-x="929" 
d="M465 -20q-209 0 -313.5 114.5t-104.5 366.5v1177h365v-1290q0 -43 11 -62.5t42 -19.5t42 19.5t11 62.5v1290h365v-1177q0 -252 -104.5 -366.5t-313.5 -114.5zM172 1835v82h584v-82h-584z" />
    <glyph glyph-name="umacron" unicode="&#x16b;" horiz-adv-x="880" 
d="M492 0v150q-29 -68 -88 -119t-146 -51q-55 0 -95 19.5t-63 50.5t-36 81t-17 98t-4 115v987h342v-962q0 -58 10.5 -80.5t42.5 -22.5q33 0 43.5 22.5t10.5 80.5v962h344v-1331h-344zM143 1528v82h584v-82h-584z" />
    <glyph glyph-name="Ubreve" unicode="&#x16c;" horiz-adv-x="929" 
d="M465 -20q-209 0 -313.5 114.5t-104.5 366.5v1177h365v-1290q0 -43 11 -62.5t42 -19.5t42 19.5t11 62.5v1290h365v-1177q0 -252 -104.5 -366.5t-313.5 -114.5zM172 1991h102q0 -41 19 -72t49.5 -46.5t61.5 -22.5t63 -7t62 7t59 22.5t47 46t18 72.5h103q0 -64 -24.5 -110.5
t-67 -71.5t-91.5 -36.5t-106 -11.5t-107 11.5t-93.5 36.5t-69 71.5t-25.5 110.5z" />
    <glyph glyph-name="ubreve" unicode="&#x16d;" horiz-adv-x="880" 
d="M492 0v150q-29 -68 -88 -119t-146 -51q-55 0 -95 19.5t-63 50.5t-36 81t-17 98t-4 115v987h342v-962q0 -58 10.5 -80.5t42.5 -22.5q33 0 43.5 22.5t10.5 80.5v962h344v-1331h-344zM143 1683h103q0 -41 19 -71.5t49.5 -46t61 -22.5t62.5 -7t62 7t59.5 22.5t47.5 45.5
t18 72h102q0 -64 -24.5 -110.5t-67 -71.5t-91.5 -36t-106 -11q-58 0 -107.5 11t-93 36t-69 71.5t-25.5 110.5z" />
    <glyph glyph-name="Uring" unicode="&#x16e;" horiz-adv-x="929" 
d="M465 -20q-209 0 -313.5 114.5t-104.5 366.5v1177h365v-1290q0 -43 11 -62.5t42 -19.5t42 19.5t11 62.5v1290h365v-1177q0 -252 -104.5 -366.5t-313.5 -114.5zM299 1896q0 71 49.5 118.5t116.5 47.5t116.5 -47.5t49.5 -118.5t-49 -118t-117 -47t-117 47t-49 118zM399 1896
q0 -30 17.5 -47.5t48.5 -17.5q30 0 47.5 17.5t17.5 47.5t-17.5 48t-47.5 18t-48 -18t-18 -48z" />
    <glyph glyph-name="uring" unicode="&#x16f;" horiz-adv-x="880" 
d="M492 0v150q-29 -68 -88 -119t-146 -51q-55 0 -95 19.5t-63 50.5t-36 81t-17 98t-4 115v987h342v-962q0 -58 10.5 -80.5t42.5 -22.5q33 0 43.5 22.5t10.5 80.5v962h344v-1331h-344zM270 1589q0 71 49.5 118.5t116.5 47.5t116.5 -47.5t49.5 -118.5t-49.5 -118.5
t-116.5 -47.5t-116.5 47.5t-49.5 118.5zM371 1589q0 -30 17.5 -47.5t47.5 -17.5t48 18t18 47q0 30 -18 48t-48 18t-47.5 -18t-17.5 -48z" />
    <glyph glyph-name="Uhungarumlaut" unicode="&#x170;" horiz-adv-x="929" 
d="M465 -20q-209 0 -313.5 114.5t-104.5 366.5v1177h365v-1290q0 -43 11 -62.5t42 -19.5t42 19.5t11 62.5v1290h365v-1177q0 -252 -104.5 -366.5t-313.5 -114.5zM274 1761l236 230h123l-215 -230h-144zM500 1761l235 230h123l-215 -230h-143z" />
    <glyph glyph-name="uhungarumlaut" unicode="&#x171;" horiz-adv-x="880" 
d="M492 0v150q-29 -68 -88 -119t-146 -51q-55 0 -95 19.5t-63 50.5t-36 81t-17 98t-4 115v987h342v-962q0 -58 10.5 -80.5t42.5 -22.5q33 0 43.5 22.5t10.5 80.5v962h344v-1331h-344zM246 1454l235 229h123l-215 -229h-143zM471 1454l236 229h122l-215 -229h-143z" />
    <glyph glyph-name="Uogonek" unicode="&#x172;" horiz-adv-x="929" 
d="M551 -410q-126 0 -201.5 48t-75.5 135q0 138 177 207q-201 3 -302.5 118t-101.5 363v1177h365v-1290q0 -43 11 -62.5t42 -19.5t42 19.5t11 62.5v1290h365v-1177q0 -391 -267 -463q-208 -66 -208 -180q0 -59 49.5 -84t173.5 -25h14l-82 -119h-12z" />
    <glyph glyph-name="uogonek" unicode="&#x173;" horiz-adv-x="880" 
d="M492 0v150q-29 -68 -88 -119t-146 -51q-55 0 -95 19.5t-63 50.5t-36 81t-17 98t-4 115v987h342v-962q0 -58 10.5 -80.5t42.5 -22.5q33 0 43.5 22.5t10.5 80.5v962h344v-1331q-111 -34 -164.5 -78t-53.5 -104q0 -59 50 -84t174 -25h14l-82 -119h-12q-126 0 -201.5 48
t-75.5 135q0 159 238 227h-231z" />
    <glyph glyph-name="Wcircumflex" unicode="&#x174;" horiz-adv-x="1497" 
d="M190 0l-188 1638h354l66 -1155l4 -51h8l4 51l103 1155h417l103 -1155l4 -51h8l4 51l64 1155h354l-188 -1638h-478l-71 1069l-4 51h-9l-4 -51l-71 -1069h-480zM457 1761l223 230h143l217 -230h-133l-155 168l-162 -168h-133z" />
    <glyph glyph-name="wcircumflex" unicode="&#x175;" horiz-adv-x="1267" 
d="M342 1454l223 229h144l217 -229h-133l-156 168l-162 -168h-133zM-4 1331h342l63 -950l78 950h309l80 -952l64 952h340l-166 -1331h-408l-65 946l-84 -946h-387z" />
    <glyph glyph-name="Ycircumflex" unicode="&#x176;" horiz-adv-x="856" 
d="M250 0v573l-281 1065h365l86 -591l4 -52h8l4 52l86 591h365l-281 -1065v-573h-356zM135 1761l223 230h144l217 -230h-133l-156 168l-162 -168h-133z" />
    <glyph glyph-name="ycircumflex" unicode="&#x177;" horiz-adv-x="878" 
d="M489 20v130q-29 -68 -87.5 -119t-145.5 -51q-55 0 -95 19.5t-63 50.5t-36 81t-17 98t-4 115v987h342v-962q0 -58 10.5 -80.5t42.5 -22.5t42.5 22.5t10.5 80.5v962h345v-1311q0 -90 -5.5 -151.5t-20 -112.5t-38 -80.5t-63.5 -50t-92 -28t-126 -7.5h-403v297h309
q24 0 37.5 3t28.5 15.5t21.5 40.5t6.5 74zM145 1454l224 229h143l217 -229h-133l-156 168l-161 -168h-134z" />
    <glyph glyph-name="Ydieresis" unicode="&#x178;" horiz-adv-x="856" 
d="M250 0v573l-281 1065h365l86 -591l4 -52h8l4 52l86 591h365l-281 -1065v-573h-356zM86 1833q0 67 43.5 100t110.5 33q64 0 108.5 -33.5t44.5 -99.5q0 -64 -44.5 -97.5t-108.5 -33.5q-66 0 -110 33.5t-44 97.5zM463 1833q0 67 43 100t110 33q64 0 109 -33.5t45 -99.5
q0 -64 -45 -97.5t-109 -33.5q-66 0 -109.5 33.5t-43.5 97.5z" />
    <glyph glyph-name="Zacute" unicode="&#x179;" horiz-adv-x="772" 
d="M23 0v297l364 1044h-364v297h727v-297l-365 -1044h365v-297h-727zM94 1839l563 152l21 -80l-563 -150z" />
    <glyph glyph-name="zacute" unicode="&#x17a;" horiz-adv-x="782" 
d="M23 1331h737v-297l-369 -737h363v-297h-725v297l364 737h-370v297zM102 1532l564 151l20 -79l-563 -150z" />
    <glyph glyph-name="Zdotaccent" unicode="&#x17b;" horiz-adv-x="772" 
d="M23 0v297l364 1044h-364v297h727v-297l-365 -1044h365v-297h-727zM225 1878q0 61 40.5 99t121.5 38t121.5 -38t40.5 -99q0 -58 -41 -95.5t-121 -37.5t-121 37.5t-41 95.5z" />
    <glyph glyph-name="zdotaccent" unicode="&#x17c;" horiz-adv-x="782" 
d="M23 1331h737v-297l-369 -737h363v-297h-725v297l364 737h-370v297zM201 1524q0 135 194 135q195 0 195 -135q0 -131 -195 -131q-194 0 -194 131z" />
    <glyph glyph-name="Zcaron" unicode="&#x17d;" horiz-adv-x="772" 
d="M23 0v297l364 1044h-364v297h727v-297l-365 -1044h365v-297h-727zM94 1991h133l162 -168l156 168h133l-217 -230h-144z" />
    <glyph glyph-name="zcaron" unicode="&#x17e;" horiz-adv-x="782" 
d="M23 1331h737v-297l-369 -737h363v-297h-725v297l364 737h-370v297zM102 1683h134l161 -167l156 167h133l-217 -229h-143z" />
    <glyph glyph-name="uni0218" unicode="&#x218;" horiz-adv-x="880" 
d="M440 -20q-415 0 -415 499v94h364v-225q0 -46 12 -64t41 -18t41.5 18.5t12.5 63.5v125q0 59 -19 94.5t-61 69.5l-160 131q-117 97 -175 198.5t-58 252.5q0 209 108 324.5t311 115.5q194 0 302 -109t108 -305v-137h-363v182q0 46 -12 64t-41 18q-28 0 -39.5 -18.5
t-11.5 -63.5v-84q0 -59 19 -94.5t61 -69.5l158 -129q49 -40 77.5 -66.5t63 -69.5t53 -86t31 -105t12.5 -137q0 -234 -106 -351.5t-314 -117.5zM330 -184q0 52 31 82t81 30q54 0 82.5 -35.5t28.5 -97.5q0 -70 -52 -137t-143 -111v97q106 21 140 104q-30 -41 -76 -41
q-39 0 -65.5 28.5t-26.5 80.5z" />
    <glyph glyph-name="uni0219" unicode="&#x219;" horiz-adv-x="851" 
d="M631 741q71 -49 112 -93t66 -109.5t25 -153.5q0 -188 -101 -296.5t-311 -108.5q-85 0 -154.5 19.5t-126.5 61.5t-89 117.5t-32 179.5v115h355v-106q0 -56 9.5 -78.5t41.5 -22.5q33 0 44 23t11 78q0 46 -20 78t-101 87l-137 95q-102 69 -153.5 145t-51.5 199
q0 169 102.5 275t309.5 106q186 0 292.5 -89.5t106.5 -267.5v-94h-352v86q0 38 -11 58t-42 20t-42 -20t-11 -58q0 -35 13 -59.5t54 -53.5zM309 -184q0 52 31.5 82t81.5 30q54 0 82 -35.5t28 -97.5q0 -70 -51.5 -137t-142.5 -111v97q105 21 139 104q-30 -41 -76 -41
q-39 0 -65.5 28.5t-26.5 80.5z" />
    <glyph glyph-name="uni021A" unicode="&#x21a;" horiz-adv-x="831" 
d="M238 0v1341h-222v297h799v-297h-221v-1341h-356zM303 -184q0 52 31.5 82t81.5 30q54 0 82 -35.5t28 -97.5q0 -70 -51.5 -137t-142.5 -111v97q105 21 139 104q-30 -41 -76 -41q-39 0 -65.5 28.5t-26.5 80.5z" />
    <glyph glyph-name="uni021B" unicode="&#x21b;" horiz-adv-x="684" 
d="M662 1331v-297h-199v-598q0 -87 27.5 -113t87.5 -26h84v-297h-240q-90 0 -149 20.5t-93 66.5t-47.5 109.5t-13.5 159.5v678h-117v297q43 12 71.5 44t41.5 78t17 88.5t3 96.5h346q0 -274 -141 -307h322zM281 -166q0 52 31 82.5t81 30.5q54 0 82.5 -35.5t28.5 -97.5
q0 -70 -52 -137t-143 -111v96q48 9 85.5 36.5t54.5 68.5q-30 -41 -76 -41q-39 0 -65.5 28t-26.5 80z" />
    <glyph glyph-name="uni0237" unicode="&#x237;" horiz-adv-x="438" 
d="M47 23v1308h344v-1304q0 -86 -5 -145.5t-19.5 -111.5t-38.5 -83.5t-63.5 -54.5t-93.5 -32.5t-130 -9.5h-182v297h86q27 0 42.5 3.5t31 16t22 41t6.5 75.5z" />
    <glyph glyph-name="circumflex" unicode="&#x2c6;" horiz-adv-x="993" 
d="M205 1454l223 229h143l217 -229h-133l-155 168l-162 -168h-133z" />
    <glyph glyph-name="caron" unicode="&#x2c7;" horiz-adv-x="993" 
d="M428 1454l-223 229h133l162 -167l155 167h133l-217 -229h-143z" />
    <glyph glyph-name="breve" unicode="&#x2d8;" horiz-adv-x="993" 
d="M500 1454q-58 0 -107.5 11t-93 36t-69 71.5t-25.5 110.5h102q0 -41 19 -71.5t49.5 -46t61.5 -22.5t63 -7t62 7t59 22.5t47 45.5t18 72h102q0 -64 -24.5 -110.5t-66.5 -71.5t-91 -36t-106 -11z" />
    <glyph glyph-name="dotaccent" unicode="&#x2d9;" horiz-adv-x="798" 
d="M399 1393q-194 0 -194 131q0 135 194 135q195 0 195 -135q0 -131 -195 -131z" />
    <glyph glyph-name="ring" unicode="&#x2da;" horiz-adv-x="741" 
d="M371 1423q-67 0 -116.5 47.5t-49.5 118.5t49.5 118.5t116.5 47.5t116.5 -47.5t49.5 -118.5t-49.5 -118.5t-116.5 -47.5zM305 1589q0 -29 17.5 -47t48.5 -18q30 0 47.5 17.5t17.5 47.5t-17.5 48t-47.5 18t-48 -18t-18 -48z" />
    <glyph glyph-name="ogonek" unicode="&#x2db;" horiz-adv-x="780" 
d="M481 -410q-126 0 -201 48t-75 135q0 160 237 227h113q-111 -34 -164 -78t-53 -104q0 -59 49.5 -84t173.5 -25h14l-81 -119h-13z" />
    <glyph glyph-name="tilde" unicode="&#x2dc;" horiz-adv-x="993" 
d="M205 1479q0 204 164 204q37 0 67 -11t48 -27t35 -35.5t29.5 -35.5t30.5 -27t39 -11q68 0 68 123h102q0 -205 -163 -205q-44 0 -77.5 15t-53.5 37t-37 44t-37.5 37t-44.5 15q-68 0 -68 -123h-102z" />
    <glyph glyph-name="hungarumlaut" unicode="&#x2dd;" horiz-adv-x="993" 
d="M573 1454h-143l236 229h122zM205 1454l235 229h123l-215 -229h-143z" />
    <glyph glyph-name="uni1E20" unicode="&#x1e20;" 
d="M410 -20q-167 0 -268 121.5t-101 355.5v700q0 502 418 502t418 -502v-199h-365v330q0 47 -12 65.5t-41 18.5t-41 -18.5t-12 -65.5v-940q0 -45 12 -63.5t41 -18.5t41 18.5t12 61.5v238h-53v272h418v-856h-144l-49 100q-111 -120 -274 -120zM166 1835v82h584v-82h-584z" />
    <glyph glyph-name="uni1E21" unicode="&#x1e21;" horiz-adv-x="886" 
d="M498 20v132q-37 -78 -92.5 -125t-147.5 -47q-219 0 -219 327v754q0 291 221 291q79 0 129 -30.5t109 -94.5v104h344v-1308q0 -102 -8 -168.5t-29 -121t-60.5 -84t-100 -44.5t-150.5 -15h-381v297h286q26 0 40.5 3t30 15.5t22 40.5t6.5 74zM152 1528v82h583v-82h-583z
M391 356q0 -44 11 -65t42 -21t42.5 20t11.5 64v625q0 44 -11.5 64t-42.5 20t-42 -21t-11 -65v-621z" />
    <glyph glyph-name="Wgrave" unicode="&#x1e80;" horiz-adv-x="1497" 
d="M190 0l-188 1638h354l66 -1155l4 -51h8l4 51l103 1155h417l103 -1155l4 -51h8l4 51l64 1155h354l-188 -1638h-478l-71 1069l-4 51h-9l-4 -51l-71 -1069h-480zM457 1911l20 80l563 -152l-20 -78z" />
    <glyph glyph-name="wgrave" unicode="&#x1e81;" horiz-adv-x="1267" 
d="M926 1532l-21 -78l-563 150l20 79zM-4 1331h342l63 -950l78 950h309l80 -952l64 952h340l-166 -1331h-408l-65 946l-84 -946h-387z" />
    <glyph glyph-name="Wacute" unicode="&#x1e82;" horiz-adv-x="1497" 
d="M190 0l-188 1638h354l66 -1155l4 -51h8l4 51l103 1155h417l103 -1155l4 -51h8l4 51l64 1155h354l-188 -1638h-478l-71 1069l-4 51h-9l-4 -51l-71 -1069h-480zM457 1839l563 152l20 -80l-563 -150z" />
    <glyph glyph-name="wacute" unicode="&#x1e83;" horiz-adv-x="1267" 
d="M362 1454l-20 78l563 151l21 -79zM-4 1331h342l63 -950l78 950h309l80 -952l64 952h340l-166 -1331h-408l-65 946l-84 -946h-387z" />
    <glyph glyph-name="Wdieresis" unicode="&#x1e84;" horiz-adv-x="1497" 
d="M190 0l-188 1638h354l66 -1155l4 -51h8l4 51l103 1155h417l103 -1155l4 -51h8l4 51l64 1155h354l-188 -1638h-478l-71 1069l-4 51h-9l-4 -51l-71 -1069h-480zM408 1833q0 67 43 100t110 33q64 0 109 -33.5t45 -99.5q0 -64 -45 -97.5t-109 -33.5q-66 0 -109.5 33.5
t-43.5 97.5zM784 1833q0 67 43.5 100t110.5 33q64 0 109 -33.5t45 -99.5q0 -64 -45 -97.5t-109 -33.5q-66 0 -110 33.5t-44 97.5z" />
    <glyph glyph-name="wdieresis" unicode="&#x1e85;" horiz-adv-x="1267" 
d="M823 1395q-66 0 -109.5 33.5t-43.5 97.5q0 67 43 100t110 33q64 0 109 -33.5t45 -99.5q0 -64 -45 -97.5t-109 -33.5zM-4 1331h342l63 -950l78 950h309l80 -952l64 952h340l-166 -1331h-408l-65 946l-84 -946h-387zM293 1526q0 67 43 100t110 33q64 0 109 -33.5t45 -99.5
q0 -64 -45 -97.5t-109 -33.5q-66 0 -109.5 33.5t-43.5 97.5z" />
    <glyph glyph-name="uni1E9E" unicode="&#x1e9e;" horiz-adv-x="890" 
d="M49 1264q0 191 92.5 282.5t302.5 91.5h408q-9 -251 -32 -400t-57.5 -215t-90.5 -91q95 -32 139.5 -119.5t44.5 -243.5v-170q0 -399 -340 -399h-86v287l27 2q30 3 39.5 23t9.5 77v279q0 56 -8.5 75.5t-34.5 22.5l-33 4v287l21 2q19 2 26.5 6.5t15.5 35.5t12.5 85.5
t10.5 169.5h-70q-32 0 -42.5 -22.5t-10.5 -80.5v-1253h-344v1264z" />
    <glyph glyph-name="uni1EBC" unicode="&#x1ebc;" horiz-adv-x="741" 
d="M51 0v1638h656v-297h-299v-374h278v-295h-278v-375h299v-297h-656zM86 1786q0 205 164 205q44 0 77.5 -15t53.5 -37t37 -44t37.5 -37t44.5 -15q67 0 67 123h103q0 -205 -164 -205q-44 0 -77.5 15t-53.5 37t-37 44t-37.5 37t-44.5 15q-68 0 -68 -123h-102z" />
    <glyph glyph-name="uni1EBD" unicode="&#x1ebd;" horiz-adv-x="876" 
d="M145 1479q0 204 164 204q44 0 77.5 -15t53.5 -36.5t37 -43.5t37.5 -37t44.5 -15q68 0 68 123h102q0 -205 -164 -205q-44 0 -77.5 15t-53.5 37t-37 44t-37.5 37t-44.5 15q-67 0 -67 -123h-103zM33 457v417q0 251 102 364.5t303 113.5q200 0 303 -113.5t103 -364.5v-303
h-459v-202q0 -59 9.5 -81t43.5 -22q33 0 43.5 22.5t10.5 80.5v120h352v-32q0 -251 -103 -364t-303 -113q-201 0 -303 113t-102 364zM385 819h107v144q0 58 -10.5 80t-43.5 22q-34 0 -43.5 -21.5t-9.5 -80.5v-144z" />
    <glyph glyph-name="Ygrave" unicode="&#x1ef2;" horiz-adv-x="856" 
d="M250 0v573l-281 1065h365l86 -591l4 -52h8l4 52l86 591h365l-281 -1065v-573h-356zM135 1911l21 80l563 -152l-21 -78z" />
    <glyph glyph-name="ygrave" unicode="&#x1ef3;" horiz-adv-x="878" 
d="M489 20v130q-29 -68 -87.5 -119t-145.5 -51q-55 0 -95 19.5t-63 50.5t-36 81t-17 98t-4 115v987h342v-962q0 -58 10.5 -80.5t42.5 -22.5t42.5 22.5t10.5 80.5v962h345v-1311q0 -90 -5.5 -151.5t-20 -112.5t-38 -80.5t-63.5 -50t-92 -28t-126 -7.5h-403v297h309
q24 0 37.5 3t28.5 15.5t21.5 40.5t6.5 74zM145 1604l21 79l563 -151l-20 -78z" />
    <glyph glyph-name="uni1EF8" unicode="&#x1ef8;" horiz-adv-x="856" 
d="M250 0v573l-281 1065h365l86 -591l4 -52h8l4 52l86 591h365l-281 -1065v-573h-356zM135 1786q0 205 164 205q44 0 77.5 -15t53.5 -37t37 -44t37.5 -37t44.5 -15q67 0 67 123h103q0 -205 -164 -205q-44 0 -77.5 15t-53.5 37t-37 44t-37.5 37t-44.5 15q-67 0 -67 -123h-103
z" />
    <glyph glyph-name="uni1EF9" unicode="&#x1ef9;" horiz-adv-x="878" 
d="M489 20v130q-29 -68 -87.5 -119t-145.5 -51q-55 0 -95 19.5t-63 50.5t-36 81t-17 98t-4 115v987h342v-962q0 -58 10.5 -80.5t42.5 -22.5t42.5 22.5t10.5 80.5v962h345v-1311q0 -90 -5.5 -151.5t-20 -112.5t-38 -80.5t-63.5 -50t-92 -28t-126 -7.5h-403v297h309
q24 0 37.5 3t28.5 15.5t21.5 40.5t6.5 74zM145 1479q0 204 164 204q44 0 77.5 -15t53.5 -36.5t37 -43.5t37.5 -37t44.5 -15q68 0 68 123h102q0 -205 -164 -205q-44 0 -77.5 15t-53.5 37t-37 44t-37.5 37t-44.5 15q-67 0 -67 -123h-103z" />
    <glyph glyph-name="uni2000" unicode="&#x2000;" horiz-adv-x="1024" 
 />
    <glyph glyph-name="uni2001" unicode="&#x2001;" horiz-adv-x="2048" 
 />
    <glyph glyph-name="uni2002" unicode="&#x2002;" horiz-adv-x="1024" 
 />
    <glyph glyph-name="uni2003" unicode="&#x2003;" horiz-adv-x="2048" 
 />
    <glyph glyph-name="uni2004" unicode="&#x2004;" horiz-adv-x="681" 
 />
    <glyph glyph-name="uni2005" unicode="&#x2005;" horiz-adv-x="512" 
 />
    <glyph glyph-name="uni2006" unicode="&#x2006;" horiz-adv-x="342" 
 />
    <glyph glyph-name="uni2007" unicode="&#x2007;" 
 />
    <glyph glyph-name="uni2008" unicode="&#x2008;" horiz-adv-x="405" 
 />
    <glyph glyph-name="uni2009" unicode="&#x2009;" horiz-adv-x="256" 
 />
    <glyph glyph-name="uni200A" unicode="&#x200a;" horiz-adv-x="86" 
 />
    <glyph glyph-name="uni200B" unicode="&#x200b;" horiz-adv-x="0" 
 />
    <glyph glyph-name="endash" unicode="&#x2013;" horiz-adv-x="1224" 
d="M18 729h1188v-106h-1188v106z" />
    <glyph glyph-name="emdash" unicode="&#x2014;" horiz-adv-x="2084" 
d="M18 729h2048v-106h-2048v106z" />
    <glyph glyph-name="quoteleft" unicode="&#x2018;" horiz-adv-x="251" 
d="M176 1147h-164l82 512h144z" />
    <glyph glyph-name="quoteright" unicode="&#x2019;" horiz-adv-x="251" 
d="M80 1659h164l-82 -512h-144z" />
    <glyph glyph-name="quotesinglbase" unicode="&#x201a;" horiz-adv-x="235" 
d="M53 266h164l-82 -512h-143z" />
    <glyph glyph-name="quotedblleft" unicode="&#x201c;" horiz-adv-x="477" 
d="M401 1147h-163l81 512h144zM12 1149l82 512h144l-62 -512h-164z" />
    <glyph glyph-name="quotedblright" unicode="&#x201d;" horiz-adv-x="477" 
d="M80 1659h164l-82 -512h-144zM244 1145l61 512h164l-82 -512h-143z" />
    <glyph glyph-name="quotedblbase" unicode="&#x201e;" horiz-adv-x="460" 
d="M53 266h164l-82 -512h-143zM217 -248l62 512h163l-82 -512h-143z" />
    <glyph glyph-name="dagger" unicode="&#x2020;" horiz-adv-x="397" 
d="M147 635v604h-116v92h116v307h103v-307h117v-92h-117v-604h-103z" />
    <glyph glyph-name="daggerdbl" unicode="&#x2021;" horiz-adv-x="417" 
d="M158 635v287h-117v92h117v225h-117v92h117v307h102v-307h117v-92h-117v-225h117v-92h-117v-287h-102z" />
    <glyph glyph-name="bullet" unicode="&#x2022;" horiz-adv-x="794" 
d="M401 371q-135 0 -227 86.5t-92 224.5q0 144 91.5 231.5t227.5 87.5q134 0 223 -87.5t89 -231.5q0 -138 -89.5 -224.5t-222.5 -86.5z" />
    <glyph glyph-name="ellipsis" unicode="&#x2026;" horiz-adv-x="1251" 
d="M205 -20q-79 0 -133 50.5t-54 131.5q0 84 54 135t133 51q78 0 130 -51t52 -135q0 -82 -52 -132t-130 -50zM442 162q0 84 54 135t133 51q78 0 130 -51t52 -135q0 -82 -52 -132t-130 -50q-79 0 -133 50.5t-54 131.5zM864 162q0 84 54 135t133 51q78 0 130 -51t52 -135
q0 -82 -52 -132t-130 -50q-79 0 -133 50.5t-54 131.5z" />
    <glyph glyph-name="uni202F" unicode="&#x202f;" horiz-adv-x="307" 
 />
    <glyph glyph-name="perthousand" unicode="&#x2030;" horiz-adv-x="2048" 
d="M1718 -20q-84 0 -146.5 32.5t-97 87t-51 117t-16.5 131.5t16.5 131.5t51 117.5t97 87.5t146.5 32.5t146.5 -32.5t97.5 -87.5t51.5 -117.5t16.5 -131.5t-16.5 -131.5t-51.5 -117t-97.5 -87t-146.5 -32.5zM18 1290q0 69 16.5 131.5t51.5 117.5t97.5 87.5t146.5 32.5
t146.5 -32.5t97 -87.5t51 -117.5t16.5 -131.5t-16.5 -131.5t-51 -117t-97 -87t-146.5 -32.5t-146.5 32.5t-97.5 87t-51.5 117t-16.5 131.5zM244 1290q0 -86 17.5 -119.5t68.5 -33.5t68.5 33.5t17.5 119.5t-17.5 120t-68.5 34t-68.5 -34t-17.5 -120zM322 0l608 1638h108
l-608 -1638h-108zM723 348q0 69 16.5 131.5t51 117.5t97 87.5t146.5 32.5t146.5 -32.5t97.5 -87.5t51.5 -117.5t16.5 -131.5t-16.5 -131.5t-51.5 -117t-97.5 -87t-146.5 -32.5t-146.5 32.5t-97 87t-51 117t-16.5 131.5zM948 348q0 -86 17.5 -119.5t68.5 -33.5t68.5 33.5
t17.5 119.5t-17.5 120t-68.5 34t-68.5 -34t-17.5 -120zM1632 348q0 -86 17.5 -119.5t68.5 -33.5t68.5 33.5t17.5 119.5t-17.5 120t-68.5 34t-68.5 -34t-17.5 -120z" />
    <glyph glyph-name="second" unicode="&#x2033;" horiz-adv-x="471" 
d="M41 1638h164v-512h-164v512zM266 1126v512h164v-512h-164z" />
    <glyph glyph-name="guilsinglleft" unicode="&#x2039;" horiz-adv-x="407" 
d="M346 268l-305 357v102l305 356v-163l-207 -244l207 -244v-164z" />
    <glyph glyph-name="guilsinglright" unicode="&#x203a;" horiz-adv-x="407" 
d="M61 268v164l207 244l-207 244v163l306 -356v-102z" />
    <glyph glyph-name="fraction" unicode="&#x2044;" horiz-adv-x="163" 
d="M438 1638l-608 -1638h-104l608 1638h104z" />
    <glyph glyph-name="uni205F" unicode="&#x205f;" horiz-adv-x="454" 
 />
    <glyph glyph-name="uni2070" unicode="&#x2070;" horiz-adv-x="483" 
d="M242 655q-209 0 -209 252v338q0 250 209 250t209 -250v-338q0 -252 -209 -252zM215 840q0 -41 27 -41q16 0 21 9.5t5 31.5v198l-53 -88v-110zM215 1108l53 88v113q0 24 -5 33.5t-21 9.5q-27 0 -27 -41v-203z" />
    <glyph glyph-name="uni2074" unicode="&#x2074;" horiz-adv-x="458" 
d="M399 1485v-535h35v-147h-35v-137h-178v137h-207v172l219 510h166zM123 950h98v256z" />
    <glyph glyph-name="uni2075" unicode="&#x2075;" horiz-adv-x="468" 
d="M309 1214q135 0 135 -200v-82q0 -144 -52.5 -210.5t-158.5 -66.5q-206 0 -206 238v29h182v-80q0 -43 27 -43q16 0 21 10t5 33v168q0 28 -5 39.5t-19 11.5q-29 0 -29 -51h-176l20 475h359v-148h-199l-10 -182q33 59 106 59z" />
    <glyph glyph-name="uni2076" unicode="&#x2076;" horiz-adv-x="479" 
d="M238 655q-205 0 -205 263v272q0 165 51.5 235t159.5 70q200 0 200 -213v-22h-178v20q0 43 -24 43q-16 0 -21.5 -10t-5.5 -31v-115q36 47 98 47q138 0 138 -210v-103q0 -122 -55.5 -184t-157.5 -62zM215 842q0 -22 5.5 -32.5t23.5 -10.5q24 0 24 43v176q0 22 -5 32.5
t-21 10.5t-21.5 -10.5t-5.5 -32.5v-176z" />
    <glyph glyph-name="uni2077" unicode="&#x2077;" horiz-adv-x="391" 
d="M10 1337v148h365v-148q-31 -58 -53.5 -116.5t-35 -120t-20.5 -104.5t-10.5 -108t-3 -89t-0.5 -86v-47h-178v47q0 98 8 180t44 206.5t101 237.5h-217z" />
    <glyph glyph-name="uni2078" unicode="&#x2078;" horiz-adv-x="475" 
d="M238 655q-209 0 -209 209v37q0 94 34 142t84 57q-49 9 -82.5 50.5t-33.5 123.5v24q0 96 53 146.5t154 50.5t154.5 -51t53.5 -146v-24q0 -82 -33.5 -123.5t-82.5 -50.5q48 -9 82 -57t34 -142v-37q0 -209 -208 -209zM211 842q0 -43 27 -43q16 0 21 9.5t5 33.5v135
q0 22 -5 32.5t-21 10.5q-27 0 -27 -43v-135zM211 1212q0 -41 27 -41q26 0 26 43v95q0 24 -5 33.5t-21 9.5q-27 0 -27 -41v-99z" />
    <glyph glyph-name="uni2079" unicode="&#x2079;" horiz-adv-x="479" 
d="M244 1495q202 0 202 -260v-274q0 -164 -50.5 -235t-157.5 -71q-201 0 -201 213v25h178v-23q0 -43 25 -43q24 0 24 43v113q-38 -47 -98 -47q-137 0 -137 211v104q0 122 56.5 183t158.5 61zM211 1135q0 -22 5.5 -32.5t21.5 -10.5t21 9.5t5 31.5v178q0 21 -5 31t-21 10
t-21.5 -10.5t-5.5 -32.5v-174z" />
    <glyph glyph-name="uni2080" unicode="&#x2080;" horiz-adv-x="483" 
d="M242 -266q-209 0 -209 252v338q0 249 209 249t209 -249v-338q0 -252 -209 -252zM215 -82q0 -41 27 -41q16 0 21 9.5t5 31.5v199l-53 -88v-111zM215 186l53 88v113q0 24 -5 33.5t-21 9.5q-27 0 -27 -41v-203z" />
    <glyph glyph-name="uni2081" unicode="&#x2081;" horiz-adv-x="411" 
d="M27 -109h98v471q-8 -12 -14 -18t-28.5 -12t-59.5 -6v159q95 0 127 78h153v-672h98v-147h-374v147z" />
    <glyph glyph-name="uni2082" unicode="&#x2082;" horiz-adv-x="468" 
d="M29 -88q0 199 141 274l31 17q35 19 49 51.5t14 97.5v35q0 24 -5 33.5t-21 9.5q-27 0 -27 -41v-94h-182v61q0 104 55 160.5t154 56.5t153.5 -59.5t54.5 -175.5q0 -177 -124 -260l-54 -35q-37 -24 -47 -57t-10 -95h231v-147h-413v168z" />
    <glyph glyph-name="uni2083" unicode="&#x2083;" horiz-adv-x="462" 
d="M233 -266q-105 0 -157.5 52t-52.5 167v47h178v-80q0 -23 6 -33t22 -10q27 0 27 43v121q0 23 -5.5 33t-21.5 10h-77v149h75q27 0 27 43v111q0 23 -5.5 33t-21.5 10q-26 0 -26 -41v-72h-178v41q0 215 206 215q57 0 98 -19.5t60.5 -43.5t30.5 -58t12.5 -50.5t1.5 -32.5v-27
q0 -70 -23.5 -110.5t-70.5 -61.5q96 -46 96 -180v-25q0 -118 -49 -174.5t-152 -56.5z" />
    <glyph glyph-name="uni2084" unicode="&#x2084;" horiz-adv-x="458" 
d="M399 563v-534h35v-148h-35v-137h-178v137h-207v172l219 510h166zM123 29h98v256z" />
    <glyph glyph-name="uni2085" unicode="&#x2085;" horiz-adv-x="468" 
d="M309 293q135 0 135 -201v-82q0 -144 -52.5 -210t-158.5 -66q-206 0 -206 237v29h182v-80q0 -43 27 -43q16 0 21 10t5 33v168q0 28 -5 39.5t-19 11.5q-29 0 -29 -51h-176l20 475h359v-147h-199l-10 -183q34 60 106 60z" />
    <glyph glyph-name="uni2086" unicode="&#x2086;" horiz-adv-x="479" 
d="M238 -266q-205 0 -205 262v272q0 165 51.5 235t159.5 70q200 0 200 -213v-22h-178v20q0 43 -24 43q-16 0 -21.5 -10t-5.5 -31v-114q36 47 98 47q138 0 138 -211v-102q0 -122 -55.5 -184t-157.5 -62zM215 -80q0 -22 5.5 -32.5t23.5 -10.5q24 0 24 43v176q0 22 -5 32.5
t-21 10.5t-21.5 -10.5t-5.5 -32.5v-176z" />
    <glyph glyph-name="uni2087" unicode="&#x2087;" horiz-adv-x="391" 
d="M10 416v147h365v-147q-31 -58 -53.5 -116.5t-35 -120t-20.5 -105t-10.5 -108.5t-3 -89t-0.5 -86v-47h-178v47q0 98 8 180.5t44 207t101 237.5h-217z" />
    <glyph glyph-name="uni2088" unicode="&#x2088;" horiz-adv-x="475" 
d="M238 -266q-209 0 -209 209v37q0 94 34 141.5t84 56.5q-49 9 -82.5 50.5t-33.5 123.5v25q0 95 53 145.5t154 50.5t154.5 -50.5t53.5 -145.5v-25q0 -82 -33.5 -123.5t-82.5 -50.5q48 -9 82 -56.5t34 -141.5v-37q0 -209 -208 -209zM211 -80q0 -43 27 -43q16 0 21 9.5t5 33.5
v135q0 22 -5 32.5t-21 10.5q-27 0 -27 -43v-135zM211 291q0 -41 27 -41q26 0 26 43v94q0 24 -5 33.5t-21 9.5q-27 0 -27 -41v-98z" />
    <glyph glyph-name="uni2089" unicode="&#x2089;" horiz-adv-x="479" 
d="M244 573q202 0 202 -260v-274q0 -164 -50.5 -234.5t-157.5 -70.5q-201 0 -201 213v24h178v-22q0 -43 25 -43q24 0 24 43v112q-38 -47 -98 -47q-137 0 -137 211v105q0 122 56.5 182.5t158.5 60.5zM211 213q0 -22 5.5 -32.5t21.5 -10.5t21 9.5t5 31.5v178q0 21 -5 31
t-21 10t-21.5 -10.5t-5.5 -32.5v-174z" />
    <glyph glyph-name="Euro" unicode="&#x20ac;" horiz-adv-x="1026" 
d="M47 717v82h94v41h-94v82h94v235q0 502 418 502t418 -502v-184h-365v315q0 47 -12 65.5t-41 18.5t-41 -18.5t-12 -65.5v-366h180v-82h-180v-41h180v-82h-180v-369q0 -46 12 -64t41 -18t41 18t12 64v318h365v-185q0 -501 -418 -501t-418 501v236h-94z" />
    <glyph glyph-name="trademark" unicode="&#x2122;" horiz-adv-x="1142" 
d="M481 799v839h207l94 -508l99 508h202v-839h-182v413l-55 -413h-123l-59 426v-426h-183zM20 1454v184h418v-184h-116v-655h-185v655h-117z" />
    <glyph glyph-name="oneeighth" unicode="&#x215b;" horiz-adv-x="1075" 
d="M33 967h98v471q-8 -13 -14 -18.5t-28.5 -12t-59.5 -6.5v160q95 0 127 77h153v-671h99v-148h-375v148zM162 0l608 1638h104l-608 -1638h-104zM631 199v37q0 94 34.5 141.5t84.5 56.5q-50 9 -83.5 50.5t-33.5 123.5v25q0 95 53 145.5t154 50.5t155 -50.5t54 -145.5v-25
q0 -82 -33.5 -123.5t-83.5 -50.5q49 -9 83 -56.5t34 -141.5v-37q0 -209 -209 -209t-209 209zM813 176q0 -43 27 -43q16 0 21 9.5t5 33.5v135q0 22 -5 32.5t-21 10.5q-27 0 -27 -43v-135zM813 547q0 -41 27 -41q26 0 26 43v94q0 24 -5 33.5t-21 9.5q-27 0 -27 -41v-98z" />
    <glyph glyph-name="threeeighths" unicode="&#x215c;" horiz-adv-x="1112" 
d="M240 809q-105 0 -158 52.5t-53 166.5v47h178v-80q0 -23 6 -33t23 -10q16 0 21 10.5t5 32.5v121q0 24 -5 33.5t-21 9.5h-78v150h75q27 0 27 43v110q0 23 -5.5 33t-21.5 10q-26 0 -26 -41v-71h-178v41q0 215 207 215q48 0 84.5 -12.5t57.5 -35t34.5 -44t18 -49t6 -39.5
t1.5 -25v-27q0 -70 -23.5 -110.5t-70.5 -61.5q96 -46 96 -180v-25q0 -119 -48.5 -175t-151.5 -56zM197 0l608 1638h104l-608 -1638h-104zM666 199v37q0 94 34 141.5t84 56.5q-49 9 -82.5 50.5t-33.5 123.5v25q0 96 52.5 146t153.5 50t155 -50.5t54 -145.5v-25
q0 -82 -33.5 -123.5t-82.5 -50.5q48 -9 82 -56.5t34 -141.5v-37q0 -209 -209 -209q-208 0 -208 209zM848 176q0 -43 26 -43q16 0 21.5 10t5.5 33v135q0 43 -27 43q-26 0 -26 -43v-135zM848 547q0 -41 26 -41q27 0 27 43v94q0 23 -5.5 33t-21.5 10q-26 0 -26 -41v-98z" />
    <glyph glyph-name="fiveeighths" unicode="&#x215d;" horiz-adv-x="1110" 
d="M305 1368q135 0 135 -201v-82q0 -144 -52.5 -210t-158.5 -66q-206 0 -206 238v28h182v-80q0 -43 26 -43q16 0 21.5 10.5t5.5 32.5v168q0 27 -5.5 39t-19.5 12q-28 0 -28 -51h-176l20 475h359v-147h-199l-10 -182q33 59 106 59zM197 0l608 1638h104l-608 -1638h-104z
M666 199v37q0 94 34 141.5t84 56.5q-49 9 -82.5 50.5t-33.5 123.5v25q0 96 52.5 146t153.5 50t155 -50.5t54 -145.5v-25q0 -82 -33.5 -123.5t-82.5 -50.5q48 -9 82 -56.5t34 -141.5v-37q0 -209 -209 -209q-208 0 -208 209zM848 176q0 -43 26 -43q16 0 21.5 10t5.5 33v135
q0 43 -27 43q-26 0 -26 -43v-135zM848 547q0 -41 26 -41q27 0 27 43v94q0 23 -5.5 33t-21.5 10q-26 0 -26 -41v-98z" />
    <glyph glyph-name="seveneighths" unicode="&#x215e;" horiz-adv-x="1056" 
d="M20 1491v147h365v-147q-31 -58 -53.5 -116.5t-35 -120t-20.5 -105t-10.5 -108.5t-3 -89t-0.5 -86v-47h-178v47q0 71 5 133t19.5 144.5t47.5 171.5t82 176h-218zM139 0l609 1638h104l-608 -1638h-105zM608 199v37q0 94 34.5 141.5t84.5 56.5q-50 9 -83.5 50.5t-33.5 123.5
v25q0 95 53 145.5t154 50.5t155 -50.5t54 -145.5v-25q0 -82 -33.5 -123.5t-83.5 -50.5q49 -9 83 -56.5t34 -141.5v-37q0 -209 -209 -209t-209 209zM791 176q0 -43 26 -43q16 0 21.5 10t5.5 33v135q0 43 -27 43q-26 0 -26 -43v-135zM791 547q0 -41 26 -41q27 0 27 43v94
q0 23 -5.5 33t-21.5 10q-26 0 -26 -41v-98z" />
    <glyph glyph-name="arrowleft" unicode="&#x2190;" horiz-adv-x="909" 
d="M178 635q222 -111 246 -359h-102q-14 127 -98 221t-189 138v82q106 44 189.5 137.5t97.5 220.5h102q-24 -247 -246 -358h696v-82h-696z" />
    <glyph glyph-name="arrowup" unicode="&#x2191;" horiz-adv-x="864" 
d="M473 152h-82v696q-111 -222 -358 -246v103q127 14 220.5 97.5t137.5 188.5h82q44 -105 137.5 -188.5t220.5 -97.5v-103q-247 24 -358 246v-696z" />
    <glyph glyph-name="arrowright" unicode="&#x2192;" horiz-adv-x="909" 
d="M35 635v82h696q-222 111 -246 358h103q14 -127 97.5 -220.5t188.5 -137.5v-82q-105 -44 -188.5 -138t-97.5 -221h-103q24 248 246 359h-696z" />
    <glyph glyph-name="arrowdown" unicode="&#x2193;" horiz-adv-x="864" 
d="M391 1202h82v-696q111 222 358 246v-103q-127 -14 -220.5 -97.5t-137.5 -189.5h-82q-44 106 -137.5 189.5t-220.5 97.5v103q247 -24 358 -246v696z" />
    <glyph glyph-name="arrowboth" unicode="&#x2194;" horiz-adv-x="1155" 
d="M35 737q104 35 188.5 127.5t98.5 220.5h102q-7 -73 -32 -134t-61 -102t-73.5 -68t-79.5 -44h799q-42 17 -79.5 44t-73.5 68t-61 102t-32 134h103q14 -128 98.5 -221t187.5 -127v-102q-103 -34 -187.5 -127t-98.5 -221h-103q7 73 32 134t61 102t73.5 68t79.5 44h-799
q42 -17 79.5 -44t73.5 -68t61 -102t32 -134h-102q-14 128 -98.5 220.5t-188.5 127.5v102z" />
    <glyph glyph-name="arrowupdn" unicode="&#x2195;" horiz-adv-x="860" 
d="M481 1231q35 -104 127.5 -188.5t220.5 -98.5v-102q-140 14 -225.5 84t-122.5 161v-798q17 42 44 79.5t68 73.5t102 61t134 32v-103q-128 -14 -220.5 -98.5t-127.5 -188.5h-102q-35 104 -127.5 188.5t-220.5 98.5v103q73 -7 134 -32t102 -61t68 -73.5t44 -79.5v798
q-37 -91 -122.5 -161t-225.5 -84v102q128 14 220.5 98.5t127.5 188.5h102z" />
    <glyph glyph-name="uni2196" unicode="&#x2196;" horiz-adv-x="749" 
d="M727 416l-57 -58l-492 492q75 -234 -80 -426l-73 72q55 68 75.5 155t12 160.5t-36.5 140.5l57 58q67 -27 140.5 -35.5t161 11.5t155.5 75l72 -72q-192 -159 -426 -80z" />
    <glyph glyph-name="uni2197" unicode="&#x2197;" horiz-adv-x="749" 
d="M80 358l-57 58l491 491q-234 -75 -426 80l72 74q68 -55 155 -75.5t160.5 -12t140.5 36.5l58 -58q-27 -67 -35.5 -140.5t11.5 -160.5t75 -155l-72 -72q-159 192 -80 426z" />
    <glyph glyph-name="uni2198" unicode="&#x2198;" horiz-adv-x="751" 
d="M23 1047l57 57l491 -492q-75 234 80 426l74 -71q-55 -68 -75.5 -155t-12 -161t36.5 -141l-58 -57q-67 27 -140.5 35.5t-160.5 -12t-155 -75.5l-72 72q192 159 426 80z" />
    <glyph glyph-name="uni2199" unicode="&#x2199;" horiz-adv-x="753" 
d="M672 1104l57 -57l-491 -492q234 75 426 -80l-72 -74q-68 55 -155 76t-161.5 12.5t-140.5 -36.5l-57 57q27 67 35.5 140.5t-11.5 161t-75 155.5l71 71q159 -192 80 -426z" />
    <glyph glyph-name="uni21E7" unicode="&#x21e7;" horiz-adv-x="1654" 
d="M459 -14v604h-426l794 883l795 -883h-426v-604h-737zM262 692h299v-604h533v604h299l-566 629z" />
    <glyph glyph-name="partialdiff" unicode="&#x2202;" horiz-adv-x="944" 
d="M461 -225q-95 0 -178.5 37.5t-144.5 104.5t-96.5 166t-35.5 216q0 70 13.5 136.5t46 132.5t81 115t124 79.5t169.5 30.5q116 0 204.5 -49t143.5 -134q-50 259 -193.5 431t-389.5 278l41 94q120 -52 217 -117.5t183 -160.5t144 -211t91.5 -271.5t33.5 -339.5
q0 -244 -124 -391t-330 -147zM109 299q0 -195 101.5 -314.5t250.5 -119.5q165 0 258.5 125.5t93.5 322.5q0 86 -23.5 154.5t-61.5 111.5t-88 71.5t-99.5 40t-100.5 11.5q-81 0 -145.5 -32t-104 -88t-60.5 -128t-21 -155z" />
    <glyph glyph-name="emptyset" unicode="&#x2205;" horiz-adv-x="1196" 
d="M600 266q-69 0 -149 17l-105 -283h-104l116 313q-149 63 -231 200t-82 308q0 112 37.5 211.5t106 175.5t175 120t236.5 44q73 0 145 -16l105 282h104l-116 -311q149 -63 231 -199.5t82 -306.5q0 -114 -37 -214t-105.5 -176t-174.5 -120.5t-234 -44.5zM147 821
q0 -141 61.5 -255t180.5 -169l324 875q-58 10 -113 10q-113 0 -201.5 -37.5t-142.5 -102.5t-81.5 -146.5t-27.5 -174.5zM483 369q57 -13 117 -13q90 0 164.5 25t126.5 68t88 102t53 127t17 143q0 91 -25.5 171.5t-81 146.5t-135.5 102z" />
    <glyph glyph-name="product" unicode="&#x220f;" horiz-adv-x="872" 
d="M590 -225v1554h-305v-1554h-103v1554h-166v86h840v-86h-164v-1554h-102z" />
    <glyph glyph-name="summation" unicode="&#x2211;" horiz-adv-x="890" 
d="M27 -236v82l440 746l-440 749v82h839v-82h-725l441 -747l-441 -748h725v-82h-839z" />
    <glyph glyph-name="minus" unicode="&#x2212;" horiz-adv-x="913" 
d="M37 858h840v-86h-840v86z" />
    <glyph glyph-name="radical" unicode="&#x221a;" horiz-adv-x="1095" 
d="M324 -225l-291 733h108l246 -631l326 1536h360v-82h-278l-334 -1556h-137z" />
    <glyph glyph-name="infinity" unicode="&#x221e;" horiz-adv-x="1163" 
d="M899 410q-80 0 -155 52t-162 144q-87 -92 -162.5 -144t-155.5 -52q-40 0 -78.5 14.5t-72 44.5t-54 83.5t-20.5 123.5t20.5 123.5t54 83.5t72 44.5t78.5 14.5q80 0 155.5 -52t162.5 -145q87 93 162 145t155 52q40 0 78.5 -14.5t72 -44.5t54 -83.5t20.5 -123.5
t-20.5 -123.5t-54 -83.5t-72 -44.5t-78.5 -14.5zM141 676q0 -164 133 -164q54 0 109 41.5t133 122.5q-78 81 -133 122.5t-109 41.5q-133 0 -133 -164zM647 676q77 -80 133.5 -122t110.5 -42q131 0 131 164t-131 164q-54 0 -110.5 -42t-133.5 -122z" />
    <glyph glyph-name="integral" unicode="&#x222b;" horiz-adv-x="643" 
d="M16 -225v84h37q71 0 115 15.5t66 50t29 75t7 106.5v971q0 61 7 107t27.5 91t55 74t93 46.5t137.5 17.5h37v-84h-37q-71 0 -115 -15.5t-66 -50.5t-29 -75.5t-7 -106.5v-970q0 -61 -7 -107t-27.5 -91t-55 -74t-93 -46.5t-137.5 -17.5h-37z" />
    <glyph glyph-name="approxequal" unicode="&#x2248;" horiz-adv-x="927" 
d="M45 891q0 69 19.5 116.5t53 69.5t65 30.5t67.5 8.5q67 0 131.5 -29t107 -63t94.5 -63t97 -29q47 0 74.5 31.5t27.5 91.5h103q0 -56 -14 -98t-34.5 -66t-49.5 -38.5t-54 -19t-53 -4.5q-67 0 -131.5 29t-107 63.5t-94.5 63.5t-97 29q-47 0 -75 -31.5t-28 -91.5h-102z
M45 563q0 69 19.5 116.5t53 69.5t65 30.5t67.5 8.5q67 0 131.5 -29t107 -63t94.5 -63t97 -29q47 0 74.5 31.5t27.5 91.5h103q0 -69 -19.5 -116.5t-53 -69.5t-65 -30.5t-67.5 -8.5q-67 0 -131.5 29t-107 63t-94.5 63t-97 29q-47 0 -75 -31.5t-28 -91.5h-102z" />
    <glyph glyph-name="notequal" unicode="&#x2260;" horiz-adv-x="942" 
d="M231 295l140 371h-320v86h350l45 118h-395v86h426l139 371h103l-139 -371h311v-86h-342l-45 -118h387v-86h-418l-139 -371h-103z" />
    <glyph glyph-name="lessequal" unicode="&#x2264;" horiz-adv-x="923" 
d="M39 881l840 325v-102l-697 -264l697 -265v-157h-840v86h760l-760 295v82z" />
    <glyph glyph-name="greaterequal" unicode="&#x2265;" horiz-adv-x="923" 
d="M45 575l696 265l-696 264v102l840 -325v-82l-760 -295h760v-86h-840v157z" />
    <glyph glyph-name="uni2317" unicode="&#x2317;" horiz-adv-x="1486" 
d="M78 887v102h393v393h102v-393h340v393h103v-393h393v-102h-393v-340h393v-103h-393v-393h-103v393h-340v-393h-102v393h-393v103h393v340h-393zM573 547h340v340h-340v-340z" />
    <glyph glyph-name="uni2318" unicode="&#x2318;" horiz-adv-x="1572" 
d="M356 14q-124 0 -198 74t-74 199q0 134 91.5 208t270.5 74h91v295h-91q-178 0 -270 74.5t-92 208.5q0 125 74 198.5t198 73.5q134 0 208.5 -92t74.5 -270v-90h295v90q0 178 74.5 270t208.5 92q125 0 198.5 -73.5t73.5 -198.5q0 -134 -92 -208.5t-271 -74.5h-90v-295h90
q179 0 271 -74t92 -208q0 -125 -74 -199t-198 -74q-134 0 -208.5 92t-74.5 271v90h-295v-90q0 -179 -74.5 -271t-208.5 -92zM186 287q0 -88 41 -129t129 -41q96 0 138.5 59t42.5 201v90h-91q-142 0 -201 -42.5t-59 -137.5zM186 1147q0 -95 59 -137.5t201 -42.5h91v90
q0 142 -42.5 201t-138.5 59q-88 0 -129 -41t-41 -129zM639 569h295v295h-295v-295zM1036 377q0 -142 42.5 -201t138.5 -59q88 0 128.5 41t40.5 129q0 95 -59 137.5t-201 42.5h-90v-90zM1036 967h90q142 0 201 42.5t59 137.5q0 88 -40.5 129t-128.5 41q-96 0 -138.5 -59
t-42.5 -201v-90z" />
    <glyph glyph-name="uni2325" unicode="&#x2325;" horiz-adv-x="1560" 
d="M848 115l-490 1102h-333v102h399l491 -1102h541v-102h-608zM760 1217v102h696v-102h-696z" />
    <glyph glyph-name="filledbox" unicode="&#x25a0;" horiz-adv-x="1241" 
d="M61 158v1118h1119v-1118h-1119z" />
    <glyph glyph-name="uni25A1" unicode="&#x25a1;" horiz-adv-x="1241" 
d="M61 158v1118h1119v-1118h-1119zM164 260h913v914h-913v-914z" />
    <glyph glyph-name="triagup" unicode="&#x25b2;" horiz-adv-x="1398" 
d="M18 31l682 1179l680 -1179h-1362z" />
    <glyph glyph-name="uni25B3" unicode="&#x25b3;" horiz-adv-x="1454" 
d="M16 31l711 1231l711 -1231h-1422zM193 133h1067l-533 924z" />
    <glyph glyph-name="uni25B6" unicode="&#x25b6;" horiz-adv-x="1282" 
d="M72 1393l1179 -680l-1179 -682v1362z" />
    <glyph glyph-name="uni25B7" unicode="&#x25b7;" horiz-adv-x="1335" 
d="M70 -6v1421l1230 -710zM172 170l924 535l-924 532v-1067z" />
    <glyph glyph-name="triagdn" unicode="&#x25bc;" horiz-adv-x="1398" 
d="M1380 1210l-682 -1179l-680 1179h1362z" />
    <glyph glyph-name="uni25BD" unicode="&#x25bd;" horiz-adv-x="1454" 
d="M727 -20l-711 1230h1422zM195 1108l532 -924l535 924h-1067z" />
    <glyph glyph-name="uni25C0" unicode="&#x25c0;" horiz-adv-x="1282" 
d="M1210 31l-1179 682l1179 680v-1362z" />
    <glyph glyph-name="uni25C1" unicode="&#x25c1;" horiz-adv-x="1335" 
d="M1266 -6l-1231 711l1231 710v-1421zM240 705l923 -535v1067z" />
    <glyph glyph-name="uni25C6" unicode="&#x25c6;" horiz-adv-x="1411" 
d="M707 51l-668 666l668 667l665 -667z" />
    <glyph glyph-name="uni25C7" unicode="&#x25c7;" horiz-adv-x="1452" 
d="M725 29l-686 688l688 688l686 -688zM182 717l545 -543l543 543l-545 543z" />
    <glyph glyph-name="lozenge" unicode="&#x25ca;" horiz-adv-x="724" 
d="M289 1280h147l250 -614l-250 -615h-147l-250 615zM150 666l212 -525l213 525l-213 524z" />
    <glyph glyph-name="circle" unicode="&#x25cb;" horiz-adv-x="1337" 
d="M670 92q-170 0 -314 84t-227.5 228t-83.5 313q0 127 49.5 242.5t133 199t199.5 133t243 49.5t242 -49.5t198.5 -133t132.5 -199t49 -242.5q0 -169 -83 -313t-226.5 -228t-312.5 -84zM147 717q0 -145 69 -264.5t189 -187.5t265 -68q144 0 263.5 68t188 187.5t68.5 264.5
t-68.5 264.5t-188 187.5t-263.5 68q-145 0 -265 -68t-189 -187.5t-69 -264.5z" />
    <glyph glyph-name="uni25CF" unicode="&#x25cf;" horiz-adv-x="1337" 
d="M670 94q-170 0 -314 83.5t-227.5 227t-83.5 312.5q0 127 49.5 242.5t133 199t199.5 133t243 49.5t242 -49.5t198.5 -133t132.5 -199t49 -242.5q0 -169 -83 -312.5t-226.5 -227t-312.5 -83.5z" />
    <glyph glyph-name="uni2B1B" unicode="&#x2b1b;" horiz-adv-x="2084" 
d="M182 -143v1720h1721v-1720h-1721z" />
    <glyph glyph-name="uni2B1C" unicode="&#x2b1c;" horiz-adv-x="2084" 
d="M182 -143v1720h1721v-1720h-1721zM285 -41h1515v1516h-1515v-1516z" />
    <glyph glyph-name="uni2B98" unicode="&#x2b98;" horiz-adv-x="1435" 
d="M1362 -39l-1288 744l1288 743l-322 -743zM279 705h649l217 499z" />
    <glyph glyph-name="uni2B99" unicode="&#x2b99;" horiz-adv-x="1523" 
d="M18 -27l744 1289l743 -1289l-743 322zM762 408l500 -218l-500 867v-649z" />
    <glyph glyph-name="uni2B9A" unicode="&#x2b9a;" horiz-adv-x="1435" 
d="M74 -39l321 744l-321 743l1288 -743zM291 1204l217 -499h649z" />
    <glyph glyph-name="uni2B9B" unicode="&#x2b9b;" horiz-adv-x="1527" 
d="M764 -20l-744 1288l744 -322l743 322zM264 1051l500 -867v650z" />
    <glyph glyph-name="uni2B9C" unicode="&#x2b9c;" horiz-adv-x="1331" 
d="M1251 31l-1179 682l1179 680l-295 -680z" />
    <glyph glyph-name="uni2B9D" unicode="&#x2b9d;" horiz-adv-x="1406" 
d="M23 31l682 1179l679 -1179l-679 295z" />
    <glyph glyph-name="uni2B9E" unicode="&#x2b9e;" horiz-adv-x="1331" 
d="M80 31l295 682l-295 680l1180 -680z" />
    <glyph glyph-name="uni2B9F" unicode="&#x2b9f;" horiz-adv-x="1411" 
d="M705 31l-680 1179l680 -295l681 295z" />
    <glyph glyph-name="uni3000" unicode="&#x3000;" horiz-adv-x="2048" 
 />
    <glyph glyph-name="uni004A0301" horiz-adv-x="894" 
d="M430 -20q-418 0 -418 501v88h365v-221q0 -46 12 -64t41 -18t41 18t12 64v1290h365v-1157q0 -501 -418 -501zM365 1839l563 152l20 -80l-563 -150z" />
    <glyph glyph-name="I.bracket" horiz-adv-x="602" 
d="M123 0v1638h356v-1638h-356z" />
    <glyph glyph-name="A.ss01" horiz-adv-x="1847" 
d="M-14 0l694 1638h485l697 -1638h-381l-115 274h-887l-114 -274h-379zM610 592h623l-289 692l-22 57l-23 -57z" />
    <glyph glyph-name="Aacute.ss01" horiz-adv-x="1847" 
d="M-14 0l694 1638h485l697 -1638h-381l-115 274h-887l-114 -274h-379zM365 1839l1095 152l21 -80l-1096 -152zM610 592h623l-289 692l-22 57l-23 -57z" />
    <glyph glyph-name="Abreve.ss01" horiz-adv-x="1847" 
d="M-14 0l694 1638h485l697 -1638h-381l-115 274h-887l-114 -274h-379zM426 2001h102q0 -44 27.5 -73.5t82.5 -46t124 -23.5t164 -7q195 0 293 33t98 117h102q0 -69 -33 -116.5t-99.5 -74t-153 -38t-207.5 -11.5t-208.5 11.5t-155.5 38t-102 74t-34 116.5zM610 592h623
l-289 692l-22 57l-23 -57z" />
    <glyph glyph-name="Acircumflex.ss01" horiz-adv-x="1847" 
d="M-14 0l694 1638h485l697 -1638h-381l-115 274h-887l-114 -274h-379zM442 1720l412 271h143l406 -271h-186l-291 203l-297 -203h-187zM610 592h623l-289 692l-22 57l-23 -57z" />
    <glyph glyph-name="Adieresis.ss01" horiz-adv-x="1847" 
d="M-14 0l694 1638h485l697 -1638h-381l-115 274h-887l-114 -274h-379zM444 1841q0 53 34.5 85t82.5 32q47 0 82 -32t35 -85q0 -50 -35.5 -82.5t-81.5 -32.5q-48 0 -82.5 32t-34.5 83zM610 592h623l-289 692l-22 57l-23 -57zM1167 1841q0 53 34.5 85t82.5 32q47 0 82 -32
t35 -85q0 -50 -35.5 -82.5t-81.5 -32.5q-48 0 -82.5 32t-34.5 83z" />
    <glyph glyph-name="Agrave.ss01" horiz-adv-x="1847" 
d="M-14 0l694 1638h485l697 -1638h-381l-115 274h-887l-114 -274h-379zM365 1911l20 80l1096 -152l-21 -80zM610 592h623l-289 692l-22 57l-23 -57z" />
    <glyph glyph-name="Amacron.ss01" horiz-adv-x="1847" 
d="M-14 0l694 1638h485l697 -1638h-381l-115 274h-887l-114 -274h-379zM365 1835v82h1116v-82h-1116zM610 592h623l-289 692l-22 57l-23 -57z" />
    <glyph glyph-name="Aogonek.ss01" horiz-adv-x="1847" 
d="M-14 0l694 1638h485l697 -1638q-111 -34 -164 -78t-53 -104q0 -59 49.5 -84t173.5 -25h14l-82 -119h-12q-126 0 -201.5 48t-75.5 135q0 159 238 227h-268l-115 274h-887l-114 -274h-379zM610 592h623l-289 692l-22 57l-23 -57z" />
    <glyph glyph-name="Aring.ss01" horiz-adv-x="1847" 
d="M-14 0l694 1638h485l697 -1638h-381l-115 274h-887l-114 -274h-379zM610 592h623l-289 692l-22 57l-23 -57zM758 1896q0 71 49.5 118.5t116.5 47.5t116.5 -47.5t49.5 -118.5t-49 -118t-117 -47t-117 47t-49 118zM858 1896q0 -30 18 -47.5t48 -17.5t47.5 17.5t17.5 47.5
t-17.5 48t-47.5 18t-48 -18t-18 -48z" />
    <glyph glyph-name="Atilde.ss01" horiz-adv-x="1847" 
d="M-14 0l694 1638h485l697 -1638h-381l-115 274h-887l-114 -274h-379zM436 1765q0 102 69 169t200 67q61 0 110 -16.5t82 -39.5t64.5 -46t75 -39.5t96.5 -16.5q85 0 129.5 39.5t44.5 104.5h102q0 -106 -71.5 -171t-207.5 -65q-66 0 -118 16.5t-85.5 39.5t-64 46t-70 39.5
t-87.5 16.5q-81 0 -123.5 -42t-42.5 -102h-103zM610 592h623l-289 692l-22 57l-23 -57z" />
    <glyph glyph-name="B.ss01" horiz-adv-x="1841" 
d="M123 0v1638h1059q250 0 392 -113t142 -308q0 -286 -186 -361q107 -45 174.5 -148.5t67.5 -228.5q0 -233 -143 -356t-419 -123h-1087zM479 319h705q223 0 223 183q0 86 -56 134t-163 48h-709v-365zM479 1006h682q101 0 145 33.5t44 125.5q0 74 -49.5 114t-143.5 40h-678
v-313z" />
    <glyph glyph-name="C.ss01" horiz-adv-x="1939" 
d="M997 -20q-221 0 -400 67t-293.5 182.5t-176 267.5t-61.5 326q0 137 38 261.5t115.5 229.5t187.5 182t262 120t330 43q157 0 294 -35.5t238 -97.5t177 -146t118.5 -181.5t53.5 -203.5l4 -39h-366l-7 39q-11 72 -45 132t-93 110t-154.5 78t-219.5 28q-288 0 -428.5 -141.5
t-140.5 -382.5q0 -117 33 -210.5t100.5 -164t178 -109t257.5 -38.5q236 0 361.5 94.5t150.5 255.5l7 41h366l-4 -41q-11 -105 -52.5 -202t-116.5 -182t-176.5 -148t-239.5 -99t-298 -36z" />
    <glyph glyph-name="Cacute.ss01" horiz-adv-x="1939" 
d="M997 -20q-221 0 -400 67t-293.5 182.5t-176 267.5t-61.5 326q0 137 38 261.5t115.5 229.5t187.5 182t262 120t330 43q157 0 294 -35.5t238 -97.5t177 -146t118.5 -181.5t53.5 -203.5l4 -39h-366l-7 39q-11 72 -45 132t-93 110t-154.5 78t-219.5 28q-288 0 -428.5 -141.5
t-140.5 -382.5q0 -117 33 -210.5t100.5 -164t178 -109t257.5 -38.5q236 0 361.5 94.5t150.5 255.5l7 41h366l-4 -41q-11 -105 -52.5 -202t-116.5 -182t-176.5 -148t-239.5 -99t-298 -36zM416 1839l1095 152l21 -80l-1096 -152z" />
    <glyph glyph-name="Ccaron.ss01" horiz-adv-x="1939" 
d="M997 -20q-221 0 -400 67t-293.5 182.5t-176 267.5t-61.5 326q0 137 38 261.5t115.5 229.5t187.5 182t262 120t330 43q157 0 294 -35.5t238 -97.5t177 -146t118.5 -181.5t53.5 -203.5l4 -39h-366l-7 39q-11 72 -45 132t-93 110t-154.5 78t-219.5 28q-288 0 -428.5 -141.5
t-140.5 -382.5q0 -117 33 -210.5t100.5 -164t178 -109t257.5 -38.5q236 0 361.5 94.5t150.5 255.5l7 41h366l-4 -41q-11 -105 -52.5 -202t-116.5 -182t-176.5 -148t-239.5 -99t-298 -36zM494 2030h186l297 -203l291 203h186l-405 -271h-144z" />
    <glyph glyph-name="Ccedilla.ss01" horiz-adv-x="1939" 
d="M836 -328q136 0 191.5 13t55.5 55q0 46 -56 55t-159 -8l47 195q-202 12 -365 83.5t-267.5 185.5t-160.5 260t-56 312q0 137 38 261.5t115.5 229.5t187.5 182t262 120t330 43q157 0 294 -35.5t238 -97.5t177 -146t118.5 -181.5t53.5 -203.5l4 -39h-366l-7 39
q-11 72 -45 132t-93 110t-154.5 78t-219.5 28q-288 0 -428.5 -141.5t-140.5 -382.5q0 -117 33 -210.5t100.5 -164t178 -109t257.5 -38.5q236 0 361.5 94.5t150.5 255.5l7 41h366l-4 -41q-11 -103 -51 -199t-113 -180t-171 -147t-232 -100.5t-289 -40.5l-25 -99
q218 18 218 -133q0 -62 -33 -98t-117 -55t-231 -19v96z" />
    <glyph glyph-name="Cdotaccent.ss01" horiz-adv-x="1939" 
d="M997 -20q-221 0 -400 67t-293.5 182.5t-176 267.5t-61.5 326q0 137 38 261.5t115.5 229.5t187.5 182t262 120t330 43q157 0 294 -35.5t238 -97.5t177 -146t118.5 -181.5t53.5 -203.5l4 -39h-366l-7 39q-11 72 -45 132t-93 110t-154.5 78t-219.5 28q-288 0 -428.5 -141.5
t-140.5 -382.5q0 -117 33 -210.5t100.5 -164t178 -109t257.5 -38.5q236 0 361.5 94.5t150.5 255.5l7 41h366l-4 -41q-11 -105 -52.5 -202t-116.5 -182t-176.5 -148t-239.5 -99t-298 -36zM801 1878q0 65 44 105t130 40t130 -40t44 -105q0 -62 -44.5 -101.5t-129.5 -39.5
t-129.5 39.5t-44.5 101.5z" />
    <glyph glyph-name="D.ss01" horiz-adv-x="1882" 
d="M123 0v1638h860q396 0 611.5 -212t215.5 -607q0 -392 -217 -605.5t-610 -213.5h-860zM479 319h508q229 0 344 128t115 372t-115 372t-344 128h-508v-1000z" />
    <glyph glyph-name="Eth.ss01" horiz-adv-x="2033" 
d="M274 0v778h-227v164h227v696h861q396 0 611.5 -212t215.5 -607q0 -392 -217 -605.5t-610 -213.5h-861zM631 319h508q229 0 343.5 128t114.5 372t-114.5 372t-343.5 128h-508v-377h612v-164h-612v-459z" />
    <glyph glyph-name="Dcaron.ss01" horiz-adv-x="1882" 
d="M123 0v1638h860q396 0 611.5 -212t215.5 -607q0 -392 -217 -605.5t-610 -213.5h-860zM451 2030h186l297 -203l291 203h186l-405 -271h-144zM479 319h508q229 0 344 128t115 372t-115 372t-344 128h-508v-1000z" />
    <glyph glyph-name="Dcroat.ss01" horiz-adv-x="2033" 
d="M274 0v778h-227v164h227v696h861q396 0 611.5 -212t215.5 -607q0 -392 -217 -605.5t-610 -213.5h-861zM631 319h508q229 0 343.5 128t114.5 372t-114.5 372t-343.5 128h-508v-377h612v-164h-612v-459z" />
    <glyph glyph-name="E.ss01" horiz-adv-x="1597" 
d="M123 0v1638h1386v-319h-1030v-340h948v-320h-948v-340h1030v-319h-1386z" />
    <glyph glyph-name="Eacute.ss01" horiz-adv-x="1597" 
d="M123 0v1638h1386v-319h-1030v-340h948v-320h-948v-340h1030v-319h-1386zM229 1839l1096 152l21 -80l-1096 -152z" />
    <glyph glyph-name="Ecaron.ss01" horiz-adv-x="1597" 
d="M123 0v1638h1386v-319h-1030v-340h948v-320h-948v-340h1030v-319h-1386zM307 2030h187l297 -203l290 203h187l-406 -271h-143z" />
    <glyph glyph-name="Ecircumflex.ss01" horiz-adv-x="1597" 
d="M123 0v1638h1386v-319h-1030v-340h948v-320h-948v-340h1030v-319h-1386zM307 1720l412 271h143l406 -271h-187l-290 203l-297 -203h-187z" />
    <glyph glyph-name="Edieresis.ss01" horiz-adv-x="1597" 
d="M123 0v1638h1386v-319h-1030v-340h948v-320h-948v-340h1030v-319h-1386zM309 1841q0 53 34.5 85t82.5 32q47 0 82 -32t35 -85q0 -50 -35.5 -82.5t-81.5 -32.5q-48 0 -82.5 32t-34.5 83zM1032 1841q0 53 34.5 85t82.5 32q47 0 82 -32t35 -85q0 -50 -35.5 -82.5
t-81.5 -32.5q-48 0 -82.5 32t-34.5 83z" />
    <glyph glyph-name="Edotaccent.ss01" horiz-adv-x="1597" 
d="M123 0v1638h1386v-319h-1030v-340h948v-320h-948v-340h1030v-319h-1386zM614 1878q0 65 44 105t130 40t130.5 -40t44.5 -105q0 -62 -45 -101.5t-130 -39.5t-129.5 39.5t-44.5 101.5z" />
    <glyph glyph-name="Egrave.ss01" horiz-adv-x="1597" 
d="M123 0v1638h1386v-319h-1030v-340h948v-320h-948v-340h1030v-319h-1386zM229 1911l21 80l1096 -152l-21 -80z" />
    <glyph glyph-name="Emacron.ss01" horiz-adv-x="1597" 
d="M123 0v1638h1386v-319h-1030v-340h948v-320h-948v-340h1030v-319h-1386zM229 1835v82h1117v-82h-1117z" />
    <glyph glyph-name="Eogonek.ss01" horiz-adv-x="1597" 
d="M123 0v1638h1386v-319h-1030v-340h948v-320h-948v-340h1030v-319q-111 -34 -164 -78t-53 -104q0 -59 50 -84t174 -25h14l-82 -119h-12q-126 0 -201.5 48t-75.5 135q0 159 238 227h-1274z" />
    <glyph glyph-name="F.ss01" horiz-adv-x="1619" 
d="M123 0v1638h1448v-319h-1092v-385h1014v-320h-1014v-614h-356z" />
    <glyph glyph-name="G.ss01" horiz-adv-x="1968" 
d="M965 -20q-174 0 -321 43.5t-252 121t-179 183t-109.5 230.5t-35.5 263t36 262t111 229.5t182.5 182.5t258.5 120.5t331 43.5q183 0 342.5 -50.5t271.5 -137t181 -200t82 -239.5l2 -18h-369l-2 18q-17 148 -156 229.5t-346 81.5q-124 0 -222.5 -29.5t-161 -78.5
t-104 -117.5t-58.5 -141.5t-17 -155q0 -83 17.5 -157.5t57.5 -142.5t99.5 -117t149.5 -78t202 -29q213 0 341 79.5t178 221.5h-650v293h1041v-891h-238l-49 231q-192 -251 -614 -251z" />
    <glyph glyph-name="Gbreve.ss01" horiz-adv-x="1968" 
d="M965 -20q-174 0 -321 43.5t-252 121t-179 183t-109.5 230.5t-35.5 263t36 262t111 229.5t182.5 182.5t258.5 120.5t331 43.5q183 0 342.5 -50.5t271.5 -137t181 -200t82 -239.5l2 -18h-369l-2 18q-17 148 -156 229.5t-346 81.5q-124 0 -222.5 -29.5t-161 -78.5
t-104 -117.5t-58.5 -141.5t-17 -155q0 -83 17.5 -157.5t57.5 -142.5t99.5 -117t149.5 -78t202 -29q213 0 341 79.5t178 221.5h-650v293h1041v-891h-238l-49 231q-192 -251 -614 -251zM487 2001h103q0 -44 27.5 -73.5t82 -46t123.5 -23.5t164 -7q195 0 293 33t98 117h103
q0 -69 -33 -116.5t-99.5 -74t-153.5 -38t-208 -11.5t-208.5 11.5t-155.5 38t-102 74t-34 116.5z" />
    <glyph glyph-name="uni0122.ss01" horiz-adv-x="1968" 
d="M965 -20q-174 0 -321 43.5t-252 121t-179 183t-109.5 230.5t-35.5 263t36 262t111 229.5t182.5 182.5t258.5 120.5t331 43.5q183 0 342.5 -50.5t271.5 -137t181 -200t82 -239.5l2 -18h-369l-2 18q-17 148 -156 229.5t-346 81.5q-124 0 -222.5 -29.5t-161 -78.5
t-104 -117.5t-58.5 -141.5t-17 -155q0 -83 17.5 -157.5t57.5 -142.5t99.5 -117t149.5 -78t202 -29q213 0 341 79.5t178 221.5h-650v293h1041v-891h-238l-49 231q-192 -251 -614 -251zM872 -184q0 52 31.5 82t81.5 30q54 0 82.5 -35.5t28.5 -97.5q0 -70 -52 -137t-143 -111
v97q105 21 139 104q-30 -41 -75 -41q-39 0 -66 28.5t-27 80.5z" />
    <glyph glyph-name="Gdotaccent.ss01" horiz-adv-x="1968" 
d="M965 -20q-174 0 -321 43.5t-252 121t-179 183t-109.5 230.5t-35.5 263t36 262t111 229.5t182.5 182.5t258.5 120.5t331 43.5q183 0 342.5 -50.5t271.5 -137t181 -200t82 -239.5l2 -18h-369l-2 18q-17 148 -156 229.5t-346 81.5q-124 0 -222.5 -29.5t-161 -78.5
t-104 -117.5t-58.5 -141.5t-17 -155q0 -83 17.5 -157.5t57.5 -142.5t99.5 -117t149.5 -78t202 -29q213 0 341 79.5t178 221.5h-650v293h1041v-891h-238l-49 231q-192 -251 -614 -251zM811 1878q0 65 44 105t130 40t130 -40t44 -105q0 -62 -44.5 -101.5t-129.5 -39.5
t-129.5 39.5t-44.5 101.5z" />
    <glyph glyph-name="H.ss01" horiz-adv-x="1857" 
d="M1378 0v659h-899v-659h-356v1638h356v-659h899v659h357v-1638h-357z" />
    <glyph glyph-name="Hbar.ss01" horiz-adv-x="2181" 
d="M1540 0v659h-899v-659h-356v1143h-250v164h250v331h356v-331h899v331h356v-331h250v-164h-250v-1143h-356zM641 979h899v164h-899v-164z" />
    <glyph glyph-name="I.ss01" horiz-adv-x="1542" 
d="M74 0v319h520v1000h-520v319h1394v-319h-518v-1000h518v-319h-1394z" />
    <glyph glyph-name="Iacute.ss01" horiz-adv-x="1542" 
d="M74 0v319h520v1000h-520v319h1394v-319h-518v-1000h518v-319h-1394zM213 1839l1096 152l20 -80l-1096 -152z" />
    <glyph glyph-name="Icircumflex.ss01" horiz-adv-x="1542" 
d="M74 0v319h520v1000h-520v319h1394v-319h-518v-1000h518v-319h-1394zM291 1720l411 271h144l405 -271h-186l-291 203l-297 -203h-186z" />
    <glyph glyph-name="Idieresis.ss01" horiz-adv-x="1542" 
d="M74 0v319h520v1000h-520v319h1394v-319h-518v-1000h518v-319h-1394zM293 1841q0 53 34.5 85t82.5 32q47 0 81.5 -32t34.5 -85q0 -51 -35 -83t-81 -32q-48 0 -82.5 32t-34.5 83zM1016 1841q0 53 34.5 85t82.5 32q47 0 81.5 -32t34.5 -85q0 -51 -35 -83t-81 -32
q-48 0 -82.5 32t-34.5 83z" />
    <glyph glyph-name="Idotaccent.ss01" horiz-adv-x="1542" 
d="M74 0v319h520v1000h-520v319h1394v-319h-518v-1000h518v-319h-1394zM598 1878q0 65 44 105t130 40t130 -40t44 -105q0 -62 -44.5 -101.5t-129.5 -39.5t-129.5 39.5t-44.5 101.5z" />
    <glyph glyph-name="Igrave.ss01" horiz-adv-x="1542" 
d="M74 0v319h520v1000h-520v319h1394v-319h-518v-1000h518v-319h-1394zM213 1911l20 80l1096 -152l-20 -80z" />
    <glyph glyph-name="Imacron.ss01" horiz-adv-x="1542" 
d="M74 0v319h520v1000h-520v319h1394v-319h-518v-1000h518v-319h-1394zM213 1835v82h1116v-82h-1116z" />
    <glyph glyph-name="Iogonek.ss01" horiz-adv-x="1542" 
d="M74 0v319h520v1000h-520v319h1394v-319h-518v-1000h518v-319q-111 -34 -164 -78t-53 -104q0 -59 49.5 -84t174.5 -25h14l-82 -119h-12q-126 0 -201.5 48t-75.5 135q0 159 238 227h-1282z" />
    <glyph glyph-name="J.ss01" horiz-adv-x="1656" 
d="M791 -18q-405 0 -586.5 165.5t-181.5 524.5h364q0 -69 7.5 -118.5t32 -101t67.5 -83.5t118 -52t179 -20t179 20t117.5 51t67.5 80t32 94.5t7 106.5v989h356v-989q0 -342 -181 -504.5t-578 -162.5z" />
    <glyph glyph-name="K.ss01" horiz-adv-x="1705" 
d="M1249 0l-717 659h-53v-659h-356v1638h356v-659h53l717 659h477l-917 -819l917 -819h-477z" />
    <glyph glyph-name="uni0136.ss01" horiz-adv-x="1705" 
d="M1249 0l-717 659h-53v-659h-356v1638h356v-659h53l717 659h477l-917 -819l917 -819h-477zM762 -184q0 52 31 82t81 30q54 0 82.5 -35.5t28.5 -97.5q0 -70 -51.5 -137t-142.5 -111v97q105 21 139 104q-30 -41 -76 -41q-39 0 -65.5 28.5t-26.5 80.5z" />
    <glyph glyph-name="L.ss01" horiz-adv-x="1536" 
d="M123 0v1638h356v-1319h1030v-319h-1386z" />
    <glyph glyph-name="Lacute.ss01" horiz-adv-x="1536" 
d="M123 0v1638h356v-1319h1030v-319h-1386zM129 1839l1096 152l20 -80l-1095 -152z" />
    <glyph glyph-name="Lcaron.ss01" horiz-adv-x="1536" 
d="M123 0v1638h356v-1319h1030v-319h-1386zM721 1188l41 450h164l-103 -450h-102z" />
    <glyph glyph-name="uni013B.ss01" horiz-adv-x="1536" 
d="M123 0v1638h356v-1319h1030v-319h-1386zM662 -184q0 52 31 82t81 30q54 0 82.5 -35.5t28.5 -97.5q0 -70 -52 -137t-143 -111v97q105 21 139 104q-30 -41 -75 -41q-39 0 -65.5 28.5t-26.5 80.5z" />
    <glyph glyph-name="Lslash.ss01" horiz-adv-x="1724" 
d="M311 0v670l-286 -86v184l286 86v784h357v-677l592 178v-185l-592 -178v-457h1030v-319h-1387z" />
    <glyph glyph-name="M.ss01" horiz-adv-x="2162" 
d="M123 0v1638h403l555 -1087l555 1087h404v-1638h-348v1055l-537 -1055h-147l-537 1055v-1055h-348z" />
    <glyph glyph-name="N.ss01" horiz-adv-x="1863" 
d="M123 0v1638h356l905 -1159v1159h357v-1638h-357l-905 1159v-1159h-356z" />
    <glyph glyph-name="Nacute.ss01" horiz-adv-x="1863" 
d="M123 0v1638h356l905 -1159v1159h357v-1638h-357l-905 1159v-1159h-356zM373 1839l1095 152l21 -80l-1096 -152z" />
    <glyph glyph-name="Ncaron.ss01" horiz-adv-x="1863" 
d="M123 0v1638h356l905 -1159v1159h357v-1638h-357l-905 1159v-1159h-356zM451 2030h186l297 -203l291 203h186l-405 -271h-144z" />
    <glyph glyph-name="uni0145.ss01" horiz-adv-x="1863" 
d="M123 0v1638h356l905 -1159v1159h357v-1638h-357l-905 1159v-1159h-356zM819 -184q0 52 31.5 82t81.5 30q54 0 82 -35.5t28 -97.5q0 -70 -51.5 -137t-142.5 -111v97q105 21 139 104q-30 -41 -76 -41q-39 0 -65.5 28.5t-26.5 80.5z" />
    <glyph glyph-name="Ntilde.ss01" horiz-adv-x="1863" 
d="M123 0v1638h356l905 -1159v1159h357v-1638h-357l-905 1159v-1159h-356zM444 1765q0 102 69 169t200 67q61 0 110 -16.5t82 -39.5t64.5 -46t75 -39.5t96.5 -16.5q85 0 129.5 39.5t44.5 104.5h102q0 -106 -71 -171t-207 -65q-66 0 -118 16.5t-85.5 39.5t-64.5 46
t-70.5 39.5t-87.5 16.5q-81 0 -123.5 -42t-42.5 -102h-103z" />
    <glyph glyph-name="O.ss01" horiz-adv-x="1955" 
d="M979 -20q-211 0 -385.5 67t-288.5 182t-176.5 267.5t-62.5 324.5t62.5 324t176.5 266.5t288.5 181t385.5 66.5t385 -66.5t288 -181t176 -266.5t62 -324q0 -137 -39 -262.5t-116.5 -231t-186 -183t-254.5 -121t-315 -43.5zM428 821q0 -102 31.5 -193t95 -166.5t173 -120
t251.5 -44.5q114 0 207.5 29.5t156 79.5t105 117.5t61.5 142t19 155.5q0 80 -19 153.5t-61.5 141.5t-105 118t-156 79.5t-207.5 29.5q-115 0 -208.5 -29.5t-156.5 -79.5t-105.5 -118t-61.5 -141.5t-19 -153.5z" />
    <glyph glyph-name="Oacute.ss01" horiz-adv-x="1955" 
d="M979 -20q-211 0 -385.5 67t-288.5 182t-176.5 267.5t-62.5 324.5t62.5 324t176.5 266.5t288.5 181t385.5 66.5t385 -66.5t288 -181t176 -266.5t62 -324q0 -137 -39 -262.5t-116.5 -231t-186 -183t-254.5 -121t-315 -43.5zM420 1839l1096 152l20 -80l-1096 -152zM428 821
q0 -102 31.5 -193t95 -166.5t173 -120t251.5 -44.5q114 0 207.5 29.5t156 79.5t105 117.5t61.5 142t19 155.5q0 80 -19 153.5t-61.5 141.5t-105 118t-156 79.5t-207.5 29.5q-115 0 -208.5 -29.5t-156.5 -79.5t-105.5 -118t-61.5 -141.5t-19 -153.5z" />
    <glyph glyph-name="Ocircumflex.ss01" horiz-adv-x="1955" 
d="M979 -20q-211 0 -385.5 67t-288.5 182t-176.5 267.5t-62.5 324.5t62.5 324t176.5 266.5t288.5 181t385.5 66.5t385 -66.5t288 -181t176 -266.5t62 -324q0 -137 -39 -262.5t-116.5 -231t-186 -183t-254.5 -121t-315 -43.5zM428 821q0 -102 31.5 -193t95 -166.5t173 -120
t251.5 -44.5q114 0 207.5 29.5t156 79.5t105 117.5t61.5 142t19 155.5q0 80 -19 153.5t-61.5 141.5t-105 118t-156 79.5t-207.5 29.5q-115 0 -208.5 -29.5t-156.5 -79.5t-105.5 -118t-61.5 -141.5t-19 -153.5zM498 1720l411 271h144l405 -271h-186l-291 203l-297 -203h-186z
" />
    <glyph glyph-name="Odieresis.ss01" horiz-adv-x="1955" 
d="M979 -20q-211 0 -385.5 67t-288.5 182t-176.5 267.5t-62.5 324.5t62.5 324t176.5 266.5t288.5 181t385.5 66.5t385 -66.5t288 -181t176 -266.5t62 -324q0 -137 -39 -262.5t-116.5 -231t-186 -183t-254.5 -121t-315 -43.5zM428 821q0 -102 31.5 -193t95 -166.5t173 -120
t251.5 -44.5q114 0 207.5 29.5t156 79.5t105 117.5t61.5 142t19 155.5q0 80 -19 153.5t-61.5 141.5t-105 118t-156 79.5t-207.5 29.5q-115 0 -208.5 -29.5t-156.5 -79.5t-105.5 -118t-61.5 -141.5t-19 -153.5zM500 1841q0 53 34 85t82 32q47 0 82 -32t35 -85
q0 -50 -35.5 -82.5t-81.5 -32.5q-47 0 -81.5 32t-34.5 83zM1223 1841q0 53 34 85t82 32q47 0 82 -32t35 -85q0 -50 -35.5 -82.5t-81.5 -32.5q-47 0 -81.5 32t-34.5 83z" />
    <glyph glyph-name="Ograve.ss01" horiz-adv-x="1955" 
d="M979 -20q-211 0 -385.5 67t-288.5 182t-176.5 267.5t-62.5 324.5t62.5 324t176.5 266.5t288.5 181t385.5 66.5t385 -66.5t288 -181t176 -266.5t62 -324q0 -137 -39 -262.5t-116.5 -231t-186 -183t-254.5 -121t-315 -43.5zM420 1911l20 80l1096 -152l-20 -80zM428 821
q0 -102 31.5 -193t95 -166.5t173 -120t251.5 -44.5q114 0 207.5 29.5t156 79.5t105 117.5t61.5 142t19 155.5q0 80 -19 153.5t-61.5 141.5t-105 118t-156 79.5t-207.5 29.5q-115 0 -208.5 -29.5t-156.5 -79.5t-105.5 -118t-61.5 -141.5t-19 -153.5z" />
    <glyph glyph-name="Ohungarumlaut.ss01" horiz-adv-x="1955" 
d="M979 -20q-211 0 -385.5 67t-288.5 182t-176.5 267.5t-62.5 324.5t62.5 324t176.5 266.5t288.5 181t385.5 66.5t385 -66.5t288 -181t176 -266.5t62 -324q0 -137 -39 -262.5t-116.5 -231t-186 -183t-254.5 -121t-315 -43.5zM428 821q0 -102 31.5 -193t95 -166.5t173 -120
t251.5 -44.5q114 0 207.5 29.5t156 79.5t105 117.5t61.5 142t19 155.5q0 80 -19 153.5t-61.5 141.5t-105 118t-156 79.5t-207.5 29.5q-115 0 -208.5 -29.5t-156.5 -79.5t-105.5 -118t-61.5 -141.5t-19 -153.5zM788 1761l236 230h123l-215 -230h-144zM1014 1761l235 230h123
l-215 -230h-143z" />
    <glyph glyph-name="Omacron.ss01" horiz-adv-x="1955" 
d="M979 -20q-211 0 -385.5 67t-288.5 182t-176.5 267.5t-62.5 324.5t62.5 324t176.5 266.5t288.5 181t385.5 66.5t385 -66.5t288 -181t176 -266.5t62 -324q0 -137 -39 -262.5t-116.5 -231t-186 -183t-254.5 -121t-315 -43.5zM420 1835v82h1116v-82h-1116zM428 821
q0 -102 31.5 -193t95 -166.5t173 -120t251.5 -44.5q114 0 207.5 29.5t156 79.5t105 117.5t61.5 142t19 155.5q0 80 -19 153.5t-61.5 141.5t-105 118t-156 79.5t-207.5 29.5q-115 0 -208.5 -29.5t-156.5 -79.5t-105.5 -118t-61.5 -141.5t-19 -153.5z" />
    <glyph glyph-name="Oslash.ss01" horiz-adv-x="1955" 
d="M160 20l164 191q-126 117 -192 274t-66 336q0 172 62.5 324t176.5 266.5t288.5 181t385.5 66.5q281 0 494 -117l67 78h258l-166 -193q125 -113 191.5 -270t66.5 -336q0 -137 -39 -262.5t-116.5 -231t-186 -183t-254.5 -121t-315 -43.5q-282 0 -494 116l-65 -76h-260z
M428 821q0 -210 119 -352l706 819q-116 55 -274 55q-115 0 -208.5 -29.5t-156.5 -79.5t-105.5 -118t-61.5 -141.5t-19 -153.5zM705 352q116 -55 274 -55q114 0 207.5 29.5t156 79.5t105 117.5t61.5 142t19 155.5q0 206 -119 348z" />
    <glyph glyph-name="Otilde.ss01" horiz-adv-x="1955" 
d="M979 -20q-211 0 -385.5 67t-288.5 182t-176.5 267.5t-62.5 324.5t62.5 324t176.5 266.5t288.5 181t385.5 66.5t385 -66.5t288 -181t176 -266.5t62 -324q0 -137 -39 -262.5t-116.5 -231t-186 -183t-254.5 -121t-315 -43.5zM428 821q0 -102 31.5 -193t95 -166.5t173 -120
t251.5 -44.5q114 0 207.5 29.5t156 79.5t105 117.5t61.5 142t19 155.5q0 80 -19 153.5t-61.5 141.5t-105 118t-156 79.5t-207.5 29.5q-115 0 -208.5 -29.5t-156.5 -79.5t-105.5 -118t-61.5 -141.5t-19 -153.5zM492 1765q0 102 68.5 169t199.5 67q61 0 110 -16.5t82 -39.5
t64.5 -46t75 -39.5t96.5 -16.5q85 0 129.5 39.5t44.5 104.5h102q0 -106 -71 -171t-207 -65q-66 0 -118 16.5t-85.5 39.5t-64.5 46t-70.5 39.5t-87.5 16.5q-81 0 -123.5 -42t-42.5 -102h-102z" />
    <glyph glyph-name="P.ss01" horiz-adv-x="1806" 
d="M123 0v1638h981q325 0 495 -137.5t170 -410.5q0 -276 -164.5 -413.5t-500.5 -137.5h-625v-539h-356zM479 856h608q176 0 247 53.5t71 184.5q0 125 -71 177t-247 52h-608v-467z" />
    <glyph glyph-name="Q.ss01" horiz-adv-x="1955" 
d="M1690 -408q-267 77 -471.5 115t-458.5 57v236q-162 31 -294 108t-219 186t-134 244t-47 283q0 172 62.5 324t176.5 266.5t288.5 181t385.5 66.5t385 -66.5t288 -181t176 -266.5t62 -324q0 -157 -52 -298.5t-148.5 -252.5t-242 -185.5t-323.5 -96.5q277 -23 566 -107v-289
zM428 821q0 -102 31.5 -193t95 -166.5t173 -120t251.5 -44.5q114 0 207.5 29.5t156 79.5t105 117.5t61.5 142t19 155.5q0 80 -19 153.5t-61.5 141.5t-105 118t-156 79.5t-207.5 29.5q-115 0 -208.5 -29.5t-156.5 -79.5t-105.5 -118t-61.5 -141.5t-19 -153.5z" />
    <glyph glyph-name="R.ss01" horiz-adv-x="1818" 
d="M1389 0q-25 27 -25 145v220q0 103 -68.5 153.5t-212.5 50.5h-604v-569h-356v1638h971q301 0 462.5 -136t161.5 -388q0 -146 -67.5 -247t-188.5 -136q120 -29 189 -126t69 -238v-222q0 -118 25 -145h-356zM479 887h602q147 0 210 52.5t63 176.5q0 105 -67.5 156t-211.5 51
h-596v-436z" />
    <glyph glyph-name="Racute.ss01" horiz-adv-x="1818" 
d="M1389 0q-25 27 -25 145v220q0 103 -68.5 153.5t-212.5 50.5h-604v-569h-356v1638h971q301 0 462.5 -136t161.5 -388q0 -146 -67.5 -247t-188.5 -136q120 -29 189 -126t69 -238v-222q0 -118 25 -145h-356zM348 1839l1096 152l20 -80l-1095 -152zM479 887h602
q147 0 210 52.5t63 176.5q0 105 -67.5 156t-211.5 51h-596v-436z" />
    <glyph glyph-name="Rcaron.ss01" horiz-adv-x="1818" 
d="M1389 0q-25 27 -25 145v220q0 103 -68.5 153.5t-212.5 50.5h-604v-569h-356v1638h971q301 0 462.5 -136t161.5 -388q0 -146 -67.5 -247t-188.5 -136q120 -29 189 -126t69 -238v-222q0 -118 25 -145h-356zM426 2030h186l297 -203l291 203h186l-405 -271h-143zM479 887h602
q147 0 210 52.5t63 176.5q0 105 -67.5 156t-211.5 51h-596v-436z" />
    <glyph glyph-name="uni0156.ss01" horiz-adv-x="1818" 
d="M1389 0q-25 27 -25 145v220q0 103 -68.5 153.5t-212.5 50.5h-604v-569h-356v1638h971q301 0 462.5 -136t161.5 -388q0 -146 -67.5 -247t-188.5 -136q120 -29 189 -126t69 -238v-222q0 -118 25 -145h-356zM479 887h602q147 0 210 52.5t63 176.5q0 105 -67.5 156t-211.5 51
h-596v-436zM795 -184q0 52 31 82t81 30q54 0 82.5 -35.5t28.5 -97.5q0 -70 -52 -137t-143 -111v97q106 21 140 104q-30 -41 -76 -41q-39 0 -65.5 28.5t-26.5 80.5z" />
    <glyph glyph-name="S.ss01" horiz-adv-x="1757" 
d="M901 -20q-440 0 -645 146.5t-205 440.5v21h363v-21q0 -154 113.5 -218t381.5 -64q221 0 322.5 44.5t101.5 141.5q-1 65 -35 103.5t-113.5 63.5t-232.5 46l-370 51q-227 31 -352.5 144.5t-125.5 302.5q0 477 756 477q389 0 584.5 -128t195.5 -376v-20h-362v20
q0 110 -92.5 155.5t-319.5 45.5q-209 0 -303 -37t-94 -119q0 -147 336 -190l375 -47q268 -34 392 -145t124 -314q0 -283 -183.5 -403.5t-611.5 -120.5z" />
    <glyph glyph-name="Sacute.ss01" horiz-adv-x="1757" 
d="M901 -20q-440 0 -645 146.5t-205 440.5v21h363v-21q0 -154 113.5 -218t381.5 -64q221 0 322.5 44.5t101.5 141.5q-1 65 -35 103.5t-113.5 63.5t-232.5 46l-370 51q-227 31 -352.5 144.5t-125.5 302.5q0 477 756 477q389 0 584.5 -128t195.5 -376v-20h-362v20
q0 110 -92.5 155.5t-319.5 45.5q-209 0 -303 -37t-94 -119q0 -147 336 -190l375 -47q268 -34 392 -145t124 -314q0 -283 -183.5 -403.5t-611.5 -120.5zM317 1839l1096 152l21 -80l-1096 -152z" />
    <glyph glyph-name="Scaron.ss01" horiz-adv-x="1757" 
d="M901 -20q-440 0 -645 146.5t-205 440.5v21h363v-21q0 -154 113.5 -218t381.5 -64q221 0 322.5 44.5t101.5 141.5q-1 65 -35 103.5t-113.5 63.5t-232.5 46l-370 51q-227 31 -352.5 144.5t-125.5 302.5q0 477 756 477q389 0 584.5 -128t195.5 -376v-20h-362v20
q0 110 -92.5 155.5t-319.5 45.5q-209 0 -303 -37t-94 -119q0 -147 336 -190l375 -47q268 -34 392 -145t124 -314q0 -283 -183.5 -403.5t-611.5 -120.5zM395 2030h187l297 -203l290 203h187l-406 -271h-143z" />
    <glyph glyph-name="Scedilla.ss01" horiz-adv-x="1757" 
d="M737 -328q136 0 192 13t56 55q0 46 -56 55t-159 -8l47 195q-396 13 -581 159t-185 426v21h363v-21q0 -154 113.5 -218t381.5 -64q221 0 322.5 44.5t101.5 141.5q-1 65 -35 103.5t-113.5 63.5t-232.5 46l-370 51q-227 31 -352.5 144.5t-125.5 302.5q0 477 756 477
q389 0 584.5 -128t195.5 -376v-20h-362v20q0 110 -92.5 155.5t-319.5 45.5q-209 0 -303 -37t-94 -119q0 -147 336 -190l375 -47q268 -34 392 -145t124 -314q0 -279 -178 -400t-592 -124l-25 -99q217 18 217 -133q0 -62 -33 -98t-117 -55t-231 -19v96z" />
    <glyph glyph-name="uni0218.ss01" horiz-adv-x="1757" 
d="M901 -20q-440 0 -645 146.5t-205 440.5v21h363v-21q0 -154 113.5 -218t381.5 -64q221 0 322.5 44.5t101.5 141.5q-1 65 -35 103.5t-113.5 63.5t-232.5 46l-370 51q-227 31 -352.5 144.5t-125.5 302.5q0 477 756 477q389 0 584.5 -128t195.5 -376v-20h-362v20
q0 110 -92.5 155.5t-319.5 45.5q-209 0 -303 -37t-94 -119q0 -147 336 -190l375 -47q268 -34 392 -145t124 -314q0 -283 -183.5 -403.5t-611.5 -120.5zM764 -184q0 52 31.5 82t81.5 30q54 0 82 -35.5t28 -97.5q0 -70 -51.5 -137t-142.5 -111v97q105 21 139 104
q-30 -41 -76 -41q-39 0 -65.5 28.5t-26.5 80.5z" />
    <glyph glyph-name="uni1E9E.ss01" horiz-adv-x="1626" 
d="M111 1130q0 251 175.5 379.5t524.5 128.5h705q-20 -185 -42 -305.5t-56.5 -212.5t-82 -143t-116.5 -78q93 -16 160.5 -55.5t104.5 -94.5t53.5 -114.5t16.5 -126.5v-10q0 -119 -42 -215t-114 -157t-166.5 -93.5t-201.5 -32.5h-432v287h258q203 0 279.5 56.5t76.5 197.5v8
q0 184 -356 184h-258v285h213q110 0 171.5 27.5t100.5 97.5t70 209h-340q-185 0 -272.5 -52t-87.5 -170v-1130h-342v1130z" />
    <glyph glyph-name="T.ss01" horiz-adv-x="1710" 
d="M676 0v1319h-643v319h1644v-319h-645v-1319h-356z" />
    <glyph glyph-name="Tbar.ss01" horiz-adv-x="1718" 
d="M680 0v737h-418v164h418v418h-643v319h1644v-319h-645v-418h422v-164h-422v-737h-356z" />
    <glyph glyph-name="Tcaron.ss01" horiz-adv-x="1710" 
d="M676 0v1319h-643v319h1644v-319h-645v-1319h-356zM375 2030h186l297 -203l291 203h186l-405 -271h-144z" />
    <glyph glyph-name="uni0162.ss01" horiz-adv-x="1710" 
d="M676 0v1319h-643v319h1644v-319h-645v-1319h-123l-28 -119q217 18 217 -133q0 -62 -33 -98t-117 -55t-231 -19v96q136 0 192 13t56 55q0 46 -56 55t-159 -8l51 213h-125z" />
    <glyph glyph-name="uni021A.ss01" horiz-adv-x="1710" 
d="M676 0v1319h-643v319h1644v-319h-645v-1319h-356zM743 -184q0 52 31.5 82t81.5 30q54 0 82.5 -35.5t28.5 -97.5q0 -70 -52 -137t-143 -111v97q105 21 139 104q-30 -41 -75 -41q-39 0 -66 28.5t-27 80.5z" />
    <glyph glyph-name="U.ss01" horiz-adv-x="1841" 
d="M922 -18q-430 0 -623 163t-193 525v968h355v-968q0 -195 109 -284t352 -89q242 0 350 89t108 284v968h355v-968q0 -363 -192 -525.5t-621 -162.5z" />
    <glyph glyph-name="Uacute.ss01" horiz-adv-x="1841" 
d="M922 -18q-430 0 -623 163t-193 525v968h355v-968q0 -195 109 -284t352 -89q242 0 350 89t108 284v968h355v-968q0 -363 -192 -525.5t-621 -162.5zM362 1839l1096 152l21 -80l-1096 -152z" />
    <glyph glyph-name="Ucircumflex.ss01" horiz-adv-x="1841" 
d="M922 -18q-430 0 -623 163t-193 525v968h355v-968q0 -195 109 -284t352 -89q242 0 350 89t108 284v968h355v-968q0 -363 -192 -525.5t-621 -162.5zM440 1720l412 271h143l406 -271h-187l-290 203l-297 -203h-187z" />
    <glyph glyph-name="Udieresis.ss01" horiz-adv-x="1841" 
d="M922 -18q-430 0 -623 163t-193 525v968h355v-968q0 -195 109 -284t352 -89q242 0 350 89t108 284v968h355v-968q0 -363 -192 -525.5t-621 -162.5zM442 1841q0 53 34.5 85t82.5 32q47 0 82 -32t35 -85q0 -50 -35.5 -82.5t-81.5 -32.5q-48 0 -82.5 32t-34.5 83zM1165 1841
q0 53 34.5 85t82.5 32q47 0 82 -32t35 -85q0 -50 -35.5 -82.5t-81.5 -32.5q-48 0 -82.5 32t-34.5 83z" />
    <glyph glyph-name="Ugrave.ss01" horiz-adv-x="1841" 
d="M922 -18q-430 0 -623 163t-193 525v968h355v-968q0 -195 109 -284t352 -89q242 0 350 89t108 284v968h355v-968q0 -363 -192 -525.5t-621 -162.5zM362 1911l21 80l1096 -152l-21 -80z" />
    <glyph glyph-name="Uhungarumlaut.ss01" horiz-adv-x="1841" 
d="M922 -18q-430 0 -623 163t-193 525v968h355v-968q0 -195 109 -284t352 -89q242 0 350 89t108 284v968h355v-968q0 -363 -192 -525.5t-621 -162.5zM731 1761l236 230h123l-216 -230h-143zM956 1761l236 230h123l-215 -230h-144z" />
    <glyph glyph-name="Umacron.ss01" horiz-adv-x="1841" 
d="M922 -18q-430 0 -623 163t-193 525v968h355v-968q0 -195 109 -284t352 -89q242 0 350 89t108 284v968h355v-968q0 -363 -192 -525.5t-621 -162.5zM362 1835v82h1117v-82h-1117z" />
    <glyph glyph-name="Uogonek.ss01" horiz-adv-x="1841" 
d="M922 -18q-430 0 -623 163t-193 525v968h355v-968q0 -195 109 -284t352 -89q242 0 350 89t108 284v968h355v-968q0 -302 -131 -464t-416 -206h6q-111 -34 -164 -78t-53 -104q0 -59 49.5 -84t173.5 -25h14l-81 -119h-13q-126 0 -201 48t-75 135q0 141 188 211
q-35 -2 -110 -2z" />
    <glyph glyph-name="Uring.ss01" horiz-adv-x="1841" 
d="M922 -18q-430 0 -623 163t-193 525v968h355v-968q0 -195 109 -284t352 -89q242 0 350 89t108 284v968h355v-968q0 -363 -192 -525.5t-621 -162.5zM756 1896q0 71 49.5 118.5t116.5 47.5t116 -47.5t49 -118.5t-49 -118t-116 -47q-68 0 -117 47t-49 118zM856 1896
q0 -30 18 -47.5t48 -17.5t47.5 17.5t17.5 47.5t-17.5 48t-47.5 18t-48 -18t-18 -48z" />
    <glyph glyph-name="V.ss01" horiz-adv-x="1875" 
d="M696 0l-696 1638h381l537 -1290l22 -57l23 57l534 1290h379l-694 -1638h-486z" />
    <glyph glyph-name="W.ss01" horiz-adv-x="2854" 
d="M535 0l-525 1638h371l395 -1282l414 1282h475l416 -1280l393 1280h371l-523 -1638h-481l-407 1278l-4 14l-5 -14l-411 -1278h-479z" />
    <glyph glyph-name="Wacute.ss01" horiz-adv-x="2854" 
d="M535 0l-525 1638h371l395 -1282l414 1282h475l416 -1280l393 1280h371l-523 -1638h-481l-407 1278l-4 14l-5 -14l-411 -1278h-479zM868 1839l1096 152l21 -80l-1096 -152z" />
    <glyph glyph-name="Wcircumflex.ss01" horiz-adv-x="2854" 
d="M535 0l-525 1638h371l395 -1282l414 1282h475l416 -1280l393 1280h371l-523 -1638h-481l-407 1278l-4 14l-5 -14l-411 -1278h-479zM946 1720l412 271h143l406 -271h-187l-290 203l-297 -203h-187z" />
    <glyph glyph-name="Wdieresis.ss01" horiz-adv-x="2854" 
d="M535 0l-525 1638h371l395 -1282l414 1282h475l416 -1280l393 1280h371l-523 -1638h-481l-407 1278l-4 14l-5 -14l-411 -1278h-479zM948 1841q0 53 34.5 85t82.5 32q47 0 82 -32t35 -85q0 -50 -35.5 -82.5t-81.5 -32.5q-48 0 -82.5 32t-34.5 83zM1671 1841q0 53 34.5 85
t82.5 32q47 0 82 -32t35 -85q0 -50 -35.5 -82.5t-81.5 -32.5q-48 0 -82.5 32t-34.5 83z" />
    <glyph glyph-name="Wgrave.ss01" horiz-adv-x="2854" 
d="M535 0l-525 1638h371l395 -1282l414 1282h475l416 -1280l393 1280h371l-523 -1638h-481l-407 1278l-4 14l-5 -14l-411 -1278h-479zM868 1911l21 80l1096 -152l-21 -80z" />
    <glyph glyph-name="X.ss01" horiz-adv-x="1748" 
d="M-12 0l678 819l-658 819h449l417 -589l416 589h451l-660 -819l680 -819h-450l-437 590l-438 -590h-448z" />
    <glyph glyph-name="Y.ss01" horiz-adv-x="1814" 
d="M731 0v571l-731 1067h420l489 -741l488 741h418l-730 -1067v-571h-354z" />
    <glyph glyph-name="Yacute.ss01" horiz-adv-x="1814" 
d="M731 0v571l-731 1067h420l489 -741l488 741h418l-730 -1067v-571h-354zM348 1839l1096 152l20 -80l-1095 -152z" />
    <glyph glyph-name="Ycircumflex.ss01" horiz-adv-x="1814" 
d="M731 0v571l-731 1067h420l489 -741l488 741h418l-730 -1067v-571h-354zM426 1720l412 271h143l405 -271h-186l-291 203l-297 -203h-186z" />
    <glyph glyph-name="Ydieresis.ss01" horiz-adv-x="1814" 
d="M731 0v571l-731 1067h420l489 -741l488 741h418l-730 -1067v-571h-354zM428 1841q0 53 34.5 85t82.5 32q47 0 82 -32t35 -85q0 -50 -35.5 -82.5t-81.5 -32.5q-48 0 -82.5 32t-34.5 83zM1151 1841q0 53 34.5 85t82.5 32q47 0 81.5 -32t34.5 -85q0 -51 -35 -83t-81 -32
q-48 0 -82.5 32t-34.5 83z" />
    <glyph glyph-name="Ygrave.ss01" horiz-adv-x="1814" 
d="M731 0v571l-731 1067h420l489 -741l488 741h418l-730 -1067v-571h-354zM348 1911l21 80l1095 -152l-20 -80z" />
    <glyph glyph-name="Z.ss01" horiz-adv-x="1662" 
d="M74 0v319l1040 1004h-1040v315h1515v-319l-1040 -1004h1040v-315h-1515z" />
    <glyph glyph-name="Zacute.ss01" horiz-adv-x="1662" 
d="M74 0v319l1040 1004h-1040v315h1515v-319l-1040 -1004h1040v-315h-1515zM272 1839l1096 152l21 -80l-1096 -152z" />
    <glyph glyph-name="Zcaron.ss01" horiz-adv-x="1662" 
d="M74 0v319l1040 1004h-1040v315h1515v-319l-1040 -1004h1040v-315h-1515zM350 2030h187l297 -203l290 203h187l-406 -271h-143z" />
    <glyph glyph-name="Zdotaccent.ss01" horiz-adv-x="1662" 
d="M74 0v319l1040 1004h-1040v315h1515v-319l-1040 -1004h1040v-315h-1515zM657 1878q0 65 44 105t130 40t130.5 -40t44.5 -105q0 -62 -45 -101.5t-130 -39.5t-129.5 39.5t-44.5 101.5z" />
    <glyph glyph-name="W.ss02" horiz-adv-x="1550" 
d="M51 0v1638h318v-1359l139 1359h579v-1359l140 1359h325l-202 -1638h-580v1294l-131 -1294h-588z" />
    <glyph glyph-name="W.ss03" horiz-adv-x="3149" 
d="M643 0h-520v1638h342v-1290l911 1290h467v-1292l920 1292h424l-1164 -1638h-520v1219z" />
    <glyph glyph-name="i.loclTRK" horiz-adv-x="438" 
d="M47 1331h344v-1331h-344v1331zM25 1524q0 135 194 135q195 0 195 -135q0 -131 -195 -131q-194 0 -194 131z" />
    <glyph glyph-name="uni006A0301" horiz-adv-x="438" 
d="M47 23v1308h344v-1304q0 -86 -5 -145.5t-19.5 -111.5t-38.5 -83.5t-63.5 -54.5t-93.5 -32.5t-130 -9.5h-182v297h86q27 0 42.5 3.5t31 16t22 41t6.5 75.5zM-74 1532l563 151l21 -79l-563 -150z" />
    <glyph glyph-name="w.ss02" horiz-adv-x="1542" 
d="M47 0v1331h318v-1091l139 1091h579v-1091l140 1091h325l-202 -1331h-580v1075l-131 -1075h-588z" />
    <glyph glyph-name="zero.ss01" horiz-adv-x="1845" 
d="M924 -20q-415 0 -633.5 219t-218.5 624q0 402 218.5 619t633.5 217t632.5 -217.5t217.5 -622.5q0 -402 -218.5 -620.5t-631.5 -218.5zM434 819q0 -155 39 -262l744 721q-112 65 -293 65q-259 0 -374.5 -131.5t-115.5 -392.5zM635 360q108 -63 289 -63q257 0 372 131
t115 395q0 145 -37 252z" />
    <glyph glyph-name="one.ss01" horiz-adv-x="1390" 
d="M98 317h465v951q-219 -88 -487 -88v323q112 0 187.5 7t166.5 38.5t160 89.5h330v-1321h469v-317h-1291v317z" />
    <glyph glyph-name="two.ss01" horiz-adv-x="1785" 
d="M82 338q0 82 15.5 152t55 137.5t103 118.5t163.5 89.5t232 55.5l316 41q80 11 136.5 22t105 27.5t77 38.5t44.5 53t16 72q0 99 -100 148.5t-320 49.5q-171 0 -274 -36t-144 -99t-41 -161h-365q0 142 46 252.5t142 192t255 124.5t375 43q393 0 591.5 -133.5t198.5 -390.5
q0 -417 -547 -494l-344 -49q-78 -11 -136 -24.5t-98 -26.5t-66.5 -33.5t-41 -37t-21.5 -45t-8.5 -49.5t-1.5 -59h1264v-317h-1628v338z" />
    <glyph glyph-name="three.ss01" horiz-adv-x="1746" 
d="M858 -20q-423 0 -615 131.5t-204 439.5h360q5 -65 27 -110.5t57 -73.5t93 -43.5t122 -21t158 -5.5q177 0 277.5 22t139 64t38.5 113q0 51 -15.5 81.5t-62 54.5t-134 34t-229.5 10h-258v315h258q128 0 212 12t126 37t57 54t15 73q0 176 -424 176q-207 0 -306.5 -49
t-109.5 -186h-360q12 297 201 424t573 127q409 0 597.5 -121.5t188.5 -361.5q6 -129 -47 -222.5t-174 -122.5q129 -26 190.5 -122.5t61.5 -235.5q0 -250 -197 -371.5t-616 -121.5z" />
    <glyph glyph-name="four.ss01" horiz-adv-x="1775" 
d="M1473 1638v-1044h243v-315h-243v-279h-357v279h-1067v319l1065 1040h359zM438 594h678v637z" />
    <glyph glyph-name="five.ss01" horiz-adv-x="1761" 
d="M940 1098q228 0 395.5 -60.5t264 -189t96.5 -313.5q0 -555 -805 -555q-821 0 -821 557h364q0 -120 110.5 -181t350.5 -61q236 0 336 59t100 183q0 87 -40 138.5t-137.5 78t-264.5 26.5q-178 0 -282 -26t-181 -86h-334l76 970h1452v-317h-1135l-36 -330q102 51 215 79
t276 28z" />
    <glyph glyph-name="six.ss01" horiz-adv-x="1792" 
d="M903 -20q-425 0 -621 163.5t-196 526.5v225q0 403 205 583.5t641 180.5q368 0 550.5 -119t182.5 -366h-362q0 169 -365 169q-489 0 -489 -311v-59q163 157 514 157q357 0 559 -152.5t202 -422.5q0 -137 -45.5 -241t-142.5 -179.5t-256 -115t-377 -39.5zM449 551
q0 -130 102 -192t348 -62q247 0 354 63t107 195q0 65 -20 110.5t-69.5 80t-137 51t-218.5 16.5q-172 0 -276 -30.5t-147 -86.5t-43 -145z" />
    <glyph glyph-name="seven.ss01" horiz-adv-x="1593" 
d="M14 1321v317h1542v-317q-162 -90 -288.5 -193.5t-207.5 -195t-138 -205.5t-85 -194t-42.5 -194.5t-16.5 -172.5t-2 -160v-6h-362v6q0 82 1 128t7 139t18 155.5t37 156.5t60 163.5t90 155.5t125 154t167 137.5t214 125.5h-1119z" />
    <glyph glyph-name="eight.ss01" horiz-adv-x="1785" 
d="M893 -20q-419 0 -620 128.5t-201 370.5q0 160 75 269.5t205 148.5q-109 35 -174 120.5t-65 209.5q0 212 200 322t590 110q768 0 768 -434q0 -124 -64 -208.5t-173 -119.5q132 -39 206 -148t74 -272q0 -497 -821 -497zM434 510q0 -88 41.5 -138.5t141 -75t276.5 -24.5
q176 0 275.5 24.5t141.5 75.5t42 140q0 81 -41 128t-141.5 71t-276.5 24t-276.5 -24t-141.5 -71.5t-41 -129.5zM475 1200q0 -86 95.5 -124t322.5 -38t321.5 38.5t94.5 125.5q0 92 -94 129t-322 37q-229 0 -323.5 -37.5t-94.5 -130.5z" />
    <glyph glyph-name="nine.ss01" horiz-adv-x="1792" 
d="M860 -20q-368 0 -550.5 119t-182.5 368h362q0 -170 365 -170q489 0 489 311v60q-164 -158 -514 -158q-356 0 -558.5 152.5t-202.5 420.5q0 137 45.5 241t142 180t256 115.5t377.5 39.5q425 0 621 -162.5t196 -525.5v-228q0 -403 -204.5 -583t-641.5 -180zM432 1083
q0 -65 20 -110.5t69.5 -80t137 -51t218.5 -16.5q253 0 359.5 64t106.5 198q0 86 -40.5 140.5t-141 85t-268.5 30.5q-247 0 -354 -63t-107 -197z" />
    <glyph glyph-name="zero.tf" 
d="M461 -20q-207 0 -312.5 122.5t-105.5 378.5v676q0 502 418 502t418 -502v-676q0 -256 -105.5 -378.5t-312.5 -122.5zM408 348q0 -43 11 -62.5t42 -19.5t42 19.5t11 62.5v443l-106 -179v-264zM408 846l106 178v262q0 44 -11 65t-42 21t-42 -20t-11 -64v-442z" />
    <glyph glyph-name="one.tf" 
d="M102 295h197v940q-14 -20 -21 -27.5t-29.5 -21.5t-60 -19.5t-94.5 -5.5v320q191 0 254 157h307v-1343h197v-295h-750v295z" />
    <glyph glyph-name="two.tf" 
d="M47 336q0 67 9.5 126.5t21.5 101t37 84t40.5 65t48.5 54t44.5 40.5t44.5 35l96 76q47 38 72 69.5t41 88t16 141.5v69q0 44 -11 65t-42 21t-42 -20t-11 -64v-188h-365v125q0 208 110 321t308 113q196 0 307 -120.5t111 -350.5q0 -302 -232 -500l-108 -92
q-74 -62 -102.5 -129t-28.5 -172h462v-295h-827v336z" />
    <glyph glyph-name="three.tf" 
d="M465 -20q-210 0 -316 104.5t-106 331.5v96h356v-162q0 -44 12 -64t44 -20t43.5 21t11.5 65v242q0 44 -11 65t-42 21h-158v297h154q31 0 42 21t11 65v223q0 44 -11 65t-42 21t-42.5 -20t-11.5 -64v-141h-356v82q0 430 412 430q83 0 149.5 -20.5t108 -51t72 -74t44.5 -80
t22.5 -80.5t9.5 -64t1 -40v-55q0 -140 -47 -221t-139 -123q190 -83 190 -361v-49q0 -235 -98 -347.5t-303 -112.5z" />
    <glyph glyph-name="four.tf" 
d="M807 1638v-1071h70v-295h-70v-272h-356v272h-414v344l436 1022h334zM254 567h197v512z" />
    <glyph glyph-name="five.tf" 
d="M606 1098q44 0 80.5 -9.5t73.5 -36t62 -70t41 -116.5t16 -170v-166q0 -289 -105 -419.5t-317 -130.5q-203 0 -308.5 117.5t-105.5 355.5v59h365v-162q0 -44 11 -64t42 -20t42 21t11 65v336q0 53 -10.5 76.5t-38.5 23.5q-57 0 -57 -100h-355l41 950h719v-295h-397
l-23 -364q70 119 213 119z" />
    <glyph glyph-name="six.tf" 
d="M471 -20q-215 0 -319.5 127t-104.5 395v547q0 224 49 359.5t143 193t246 57.5q188 0 285.5 -106.5t97.5 -319.5v-47h-356v43q0 44 -10 65t-39 21q-30 0 -40.5 -20t-10.5 -64v-227q73 94 196 94q275 0 275 -422v-207q0 -243 -109.5 -366t-302.5 -123zM412 350
q0 -44 11 -64t44 -20q30 0 40.5 21t10.5 65v350q0 44 -10.5 65t-42.5 21t-42.5 -19.5t-10.5 -63.5v-355z" />
    <glyph glyph-name="seven.tf" 
d="M92 1341v297h729v-297q-52 -99 -93 -204.5t-66.5 -191t-43.5 -193.5t-26.5 -175.5t-13 -176t-5 -155.5t-0.5 -151v-94h-354v94q0 115 5.5 214.5t24.5 232t51 254t90 265.5t136 281h-434z" />
    <glyph glyph-name="eight.tf" 
d="M461 -20q-418 0 -418 417v74q0 100 21.5 176.5t58 121t76.5 68.5t86 31q-47 6 -87.5 27.5t-76 60.5t-56 105.5t-20.5 152.5v50q0 192 107 293.5t309 101.5t309 -101.5t107 -293.5v-50q0 -86 -20.5 -152.5t-56 -105.5t-76 -60.5t-87.5 -27.5q46 -7 86 -31t76.5 -68.5
t58 -121t21.5 -176.5v-74q0 -417 -418 -417zM408 350q0 -44 11 -64t42 -20t42 20.5t11 65.5v269q0 44 -11 65t-42 21t-42 -20t-11 -64v-273zM408 1094q0 -44 11 -64t42 -20t42 21t11 65v190q0 44 -11 65t-42 21t-42 -20t-11 -64v-194z" />
    <glyph glyph-name="nine.tf" 
d="M451 1659q215 0 319 -127t104 -395v-547q0 -224 -49 -359.5t-143 -193t-246 -57.5q-188 0 -285.5 106.5t-97.5 319.5v47h357v-43q0 -44 10 -65t39 -21q30 0 40.5 20t10.5 64v227q-73 -94 -197 -94q-274 0 -274 422v206q0 243 109.5 366.5t302.5 123.5zM403 936
q0 -44 11 -65t43 -21t42.5 20t10.5 64v354q0 44 -11 64t-44 20q-30 0 -41 -21t-11 -65v-350z" />
    <glyph glyph-name="zero.dnom" horiz-adv-x="483" 
d="M242 -10q-209 0 -209 252v338q0 249 209 249t209 -249v-338q0 -252 -209 -252zM215 174q0 -41 27 -41q16 0 21 9.5t5 31.5v199l-53 -88v-111zM215 442l53 88v113q0 24 -5 33.5t-21 9.5q-27 0 -27 -41v-203z" />
    <glyph glyph-name="one.dnom" horiz-adv-x="411" 
d="M27 147h98v471q-8 -12 -14 -18t-28.5 -12t-59.5 -6v159q95 0 127 78h153v-672h98v-147h-374v147z" />
    <glyph glyph-name="two.dnom" horiz-adv-x="468" 
d="M29 168q0 199 141 274l31 17q35 19 49 51.5t14 97.5v35q0 24 -5 33.5t-21 9.5q-27 0 -27 -41v-94h-182v61q0 104 55 160.5t154 56.5t153.5 -59.5t54.5 -175.5q0 -177 -124 -260l-54 -35q-37 -24 -47 -57t-10 -95h231v-147h-413v168z" />
    <glyph glyph-name="three.dnom" horiz-adv-x="462" 
d="M233 -10q-105 0 -157.5 52t-52.5 167v47h178v-80q0 -23 6 -33t22 -10q27 0 27 43v121q0 23 -5.5 33t-21.5 10h-77v149h75q27 0 27 43v111q0 23 -5.5 33t-21.5 10q-26 0 -26 -41v-72h-178v41q0 215 206 215q57 0 98 -19.5t60.5 -43.5t30.5 -58t12.5 -50.5t1.5 -32.5v-27
q0 -70 -23.5 -110.5t-70.5 -61.5q96 -46 96 -180v-25q0 -118 -49 -174.5t-152 -56.5z" />
    <glyph glyph-name="four.dnom" horiz-adv-x="458" 
d="M399 819v-534h35v-148h-35v-137h-178v137h-207v172l219 510h166zM123 285h98v256z" />
    <glyph glyph-name="five.dnom" horiz-adv-x="468" 
d="M309 549q135 0 135 -201v-82q0 -144 -52.5 -210t-158.5 -66q-206 0 -206 237v29h182v-80q0 -43 27 -43q16 0 21 10t5 33v168q0 28 -5 39.5t-19 11.5q-29 0 -29 -51h-176l20 475h359v-147h-199l-10 -183q34 60 106 60z" />
    <glyph glyph-name="six.dnom" horiz-adv-x="479" 
d="M238 -10q-205 0 -205 262v272q0 165 51.5 235t159.5 70q200 0 200 -213v-22h-178v20q0 43 -24 43q-16 0 -21.5 -10t-5.5 -31v-114q36 47 98 47q138 0 138 -211v-102q0 -122 -55.5 -184t-157.5 -62zM215 176q0 -22 5.5 -32.5t23.5 -10.5q24 0 24 43v176q0 22 -5 32.5
t-21 10.5t-21.5 -10.5t-5.5 -32.5v-176z" />
    <glyph glyph-name="seven.dnom" horiz-adv-x="391" 
d="M10 672v147h365v-147q-31 -58 -53.5 -116.5t-35 -120t-20.5 -105t-10.5 -108.5t-3 -89t-0.5 -86v-47h-178v47q0 98 8 180.5t44 207t101 237.5h-217z" />
    <glyph glyph-name="eight.dnom" horiz-adv-x="475" 
d="M238 -10q-209 0 -209 209v37q0 94 34 141.5t84 56.5q-49 9 -82.5 50.5t-33.5 123.5v25q0 95 53 145.5t154 50.5t154.5 -50.5t53.5 -145.5v-25q0 -82 -33.5 -123.5t-82.5 -50.5q48 -9 82 -56.5t34 -141.5v-37q0 -209 -208 -209zM211 176q0 -43 27 -43q16 0 21 9.5t5 33.5
v135q0 22 -5 32.5t-21 10.5q-27 0 -27 -43v-135zM211 547q0 -41 27 -41q26 0 26 43v94q0 24 -5 33.5t-21 9.5q-27 0 -27 -41v-98z" />
    <glyph glyph-name="nine.dnom" horiz-adv-x="479" 
d="M244 829q202 0 202 -260v-274q0 -164 -50.5 -234.5t-157.5 -70.5q-201 0 -201 213v24h178v-22q0 -43 25 -43q24 0 24 43v112q-38 -47 -98 -47q-137 0 -137 211v105q0 122 56.5 182.5t158.5 60.5zM211 469q0 -22 5.5 -32.5t21.5 -10.5t21 9.5t5 31.5v178q0 21 -5 31
t-21 10t-21.5 -10.5t-5.5 -32.5v-174z" />
    <glyph glyph-name="zero.numr" horiz-adv-x="483" 
d="M242 809q-209 0 -209 252v338q0 250 209 250t209 -250v-338q0 -252 -209 -252zM215 993q0 -41 27 -41q16 0 21 9.5t5 31.5v199l-53 -88v-111zM215 1262l53 88v112q0 24 -5 33.5t-21 9.5q-27 0 -27 -41v-202z" />
    <glyph glyph-name="one.numr" horiz-adv-x="411" 
d="M27 967h98v471q-8 -13 -14 -18.5t-28.5 -12t-59.5 -6.5v160q95 0 127 77h153v-671h98v-148h-374v148z" />
    <glyph glyph-name="two.numr" horiz-adv-x="468" 
d="M29 987q0 200 141 275l31 16q35 19 49 51.5t14 97.5v35q0 24 -5 33.5t-21 9.5q-27 0 -27 -41v-94h-182v62q0 104 55 160.5t154 56.5t153.5 -60t54.5 -176q0 -177 -124 -260l-54 -35q-37 -24 -47 -56.5t-10 -94.5h231v-148h-413v168z" />
    <glyph glyph-name="three.numr" horiz-adv-x="462" 
d="M233 809q-105 0 -157.5 52t-52.5 167v47h178v-80q0 -23 6 -33t22 -10q27 0 27 43v121q0 23 -5.5 33t-21.5 10h-77v150h75q27 0 27 43v110q0 23 -5.5 33t-21.5 10q-26 0 -26 -41v-71h-178v41q0 215 206 215q57 0 98 -19.5t60.5 -44t30.5 -58.5t12.5 -50.5t1.5 -32.5v-27
q0 -70 -23.5 -110.5t-70.5 -61.5q96 -46 96 -180v-25q0 -118 -49 -174.5t-152 -56.5z" />
    <glyph glyph-name="four.numr" horiz-adv-x="458" 
d="M399 1638v-534h35v-148h-35v-137h-178v137h-207v172l219 510h166zM123 1104h98v256z" />
    <glyph glyph-name="five.numr" horiz-adv-x="468" 
d="M309 1368q135 0 135 -201v-82q0 -144 -52.5 -210t-158.5 -66q-206 0 -206 238v28h182v-80q0 -43 27 -43q16 0 21 10t5 33v168q0 28 -5 39.5t-19 11.5q-29 0 -29 -51h-176l20 475h359v-147h-199l-10 -182q33 59 106 59z" />
    <glyph glyph-name="six.numr" horiz-adv-x="479" 
d="M238 809q-205 0 -205 262v272q0 166 51.5 236t159.5 70q200 0 200 -213v-23h-178v21q0 43 -24 43q-16 0 -21.5 -10t-5.5 -31v-115q36 47 98 47q138 0 138 -211v-102q0 -122 -55.5 -184t-157.5 -62zM215 995q0 -22 5.5 -32.5t23.5 -10.5q24 0 24 43v176q0 22 -5 32.5
t-21 10.5t-21.5 -10.5t-5.5 -32.5v-176z" />
    <glyph glyph-name="seven.numr" horiz-adv-x="391" 
d="M10 1491v147h365v-147q-31 -58 -53.5 -116.5t-35 -120t-20.5 -105t-10.5 -108.5t-3 -89t-0.5 -86v-47h-178v47q0 98 8 180.5t44 207t101 237.5h-217z" />
    <glyph glyph-name="eight.numr" horiz-adv-x="475" 
d="M238 809q-209 0 -209 209v37q0 94 34 141.5t84 56.5q-49 9 -82.5 50.5t-33.5 123.5v25q0 96 53 146.5t154 50.5t154.5 -51t53.5 -146v-25q0 -82 -33.5 -123.5t-82.5 -50.5q48 -9 82 -56.5t34 -141.5v-37q0 -209 -208 -209zM211 995q0 -43 27 -43q16 0 21 9.5t5 33.5v135
q0 44 -26 44q-27 0 -27 -44v-135zM211 1366q0 -41 27 -41q26 0 26 43v94q0 24 -5 33.5t-21 9.5q-27 0 -27 -41v-98z" />
    <glyph glyph-name="nine.numr" horiz-adv-x="479" 
d="M244 1649q202 0 202 -260v-275q0 -164 -50.5 -234.5t-157.5 -70.5q-201 0 -201 213v25h178v-23q0 -43 25 -43q24 0 24 43v113q-38 -47 -98 -47q-137 0 -137 210v105q0 122 56.5 183t158.5 61zM211 1288q0 -22 5.5 -32.5t21.5 -10.5t21 9.5t5 31.5v178q0 21 -5 31t-21 10
t-21.5 -10.5t-5.5 -32.5v-174z" />
    <glyph glyph-name="exclamdown.case" horiz-adv-x="454" 
d="M399 0h-342l25 1126h293zM43 1477q0 82 52 132t130 50q79 0 133 -50.5t54 -131.5q0 -84 -54 -135.5t-133 -51.5q-78 0 -130 51.5t-52 135.5z" />
    <glyph glyph-name="questiondown.case" horiz-adv-x="870" 
d="M436 -20q-194 0 -305 108.5t-111 292.5q0 77 20.5 142.5t51.5 109t67.5 94.5t67.5 98.5t51.5 121t20.5 161.5v18h295v-39q0 -118 -21.5 -210t-53 -149t-62.5 -107t-52.5 -111.5t-21.5 -136.5q0 -63 10.5 -85t42.5 -22q31 0 42 20t11 64v142h363v-50q0 -230 -107.5 -346
t-308.5 -116zM264 1477q0 82 52 132t130 50q79 0 133 -50.5t54 -131.5q0 -84 -54 -135.5t-133 -51.5q-78 0 -130 51.5t-52 135.5z" />
    <glyph glyph-name="hyphen.case" horiz-adv-x="876" 
d="M18 842h840v-86h-840v86z" />
    <glyph glyph-name="endash.case" horiz-adv-x="1224" 
d="M18 852h1188v-107h-1188v107z" />
    <glyph glyph-name="emdash.case" horiz-adv-x="2084" 
d="M18 852h2048v-107h-2048v107z" />
    <glyph glyph-name="parenleft.case" horiz-adv-x="464" 
d="M373 -178q-180 247 -260 486t-80 521q0 284 80 520t260 484h112q-189 -267 -269.5 -493.5t-80.5 -510.5q0 -285 79.5 -510t270.5 -497h-112z" />
    <glyph glyph-name="parenright.case" horiz-adv-x="464" 
d="M92 1827q180 -247 260 -486.5t80 -521.5q0 -284 -80 -519.5t-260 -483.5h-112q189 267 269.5 493t80.5 510q0 285 -79.5 510.5t-270.5 497.5h112z" />
    <glyph glyph-name="braceleft.case" horiz-adv-x="432" 
d="M29 938q80 0 80 178v371q0 184 59.5 267t185.5 83h80v-92h-78q-81 0 -113 -62.5t-32 -187.5v-373q0 -108 -18.5 -160t-71.5 -85v-91q53 -33 71.5 -85t18.5 -160v-373q0 -125 32 -187.5t113 -62.5h78v-92h-80q-126 0 -185.5 83t-59.5 267v371q0 178 -80 178v213z" />
    <glyph glyph-name="braceright.case" horiz-adv-x="432" 
d="M403 715q-79 0 -79 -178v-371q0 -184 -60 -267t-186 -83h-80v92h78q81 0 113 62.5t32 187.5v372q0 108 18.5 160.5t71.5 85.5v90q-53 33 -71.5 85.5t-18.5 160.5v373q0 125 -32 187.5t-113 62.5h-78v92h80q126 0 186 -83t60 -267v-371q0 -178 79 -178v-213z" />
    <glyph glyph-name="bracketleft.case" horiz-adv-x="425" 
d="M430 1837v-86h-264v-1843h264v-86h-367v2015h367z" />
    <glyph glyph-name="bracketright.case" horiz-adv-x="425" 
d="M-4 -188v86h264v1843h-264v86h366v-2015h-366z" />
    <glyph glyph-name="at.case" horiz-adv-x="1196" 
d="M694 82q-316 0 -487.5 190.5t-171.5 581.5q0 157 32 285.5t87.5 216t132.5 147.5t164 87.5t184 27.5q99 0 177.5 -24t144.5 -79.5t110 -143.5t68 -220.5t24 -306.5q0 -95 -6 -166.5t-21 -133.5t-40 -101t-64 -61t-92 -22q-68 0 -119 37t-78 101q-61 -138 -200 -138
q-130 0 -209.5 129.5t-79.5 354.5t79.5 354t209.5 129q113 0 174 -102v82h205v-670q0 -111 8 -152t39 -41q92 0 92 400q0 160 -18.5 279.5t-52.5 197.5t-87 126t-115.5 67.5t-144.5 19.5q-80 0 -152 -23.5t-136.5 -75.5t-111.5 -129.5t-74.5 -193.5t-27.5 -258
q0 -181 39.5 -314.5t114.5 -214.5t175.5 -120t229.5 -39q176 0 326 63v-84q-154 -63 -328 -63zM455 844q0 -154 28.5 -228.5t110.5 -74.5q18 0 32.5 3t25.5 11t20 15.5t15.5 24t11 28t7 35t4 38.5t2.5 45.5t1 48v54.5q0 58 -0.5 88.5t-4 72t-11 62t-20.5 42t-33.5 30
t-49.5 8.5q-82 0 -110.5 -74.5t-28.5 -228.5z" />
    <glyph glyph-name="ampersand.ss01" horiz-adv-x="1744" 
d="M801 -20q-225 0 -385 51t-250 160.5t-90 273.5q0 147 73 243t207 136q-258 91 -258 381q0 114 55.5 200t153.5 136t220.5 74t269.5 24q340 0 525 -127.5t185 -382.5h-348q0 122 -91 174.5t-263 52.5q-168 0 -259 -46t-91 -154v-2q0 -108 90.5 -155.5t261.5 -47.5h352v98
h348v-98h179v-271h-179v-219q0 -501 -706 -501zM430 481q0 -120 91.5 -169.5t275.5 -49.5q178 0 270 50.5t92 172.5v215h-356q-172 0 -272.5 -53.5t-100.5 -163.5v-2z" />
    <glyph glyph-name="cent.tf" 
d="M401 -143v278q-189 14 -287 128.5t-98 346.5v418q0 232 98 346.5t287 128.5v279h123v-279q385 -29 385 -475v-65h-311v133q0 94 -74 116v-786q74 22 74 117v133h311v-66q0 -446 -385 -475v-278h-123zM328 543q0 -51 17.5 -78.5t55.5 -38.5v786q-38 -11 -55.5 -38
t-17.5 -78v-553z" />
    <glyph glyph-name="dollar.tf" 
d="M399 -143v125q-188 12 -277 111.5t-89 291.5v164h311v-168q0 -82 55 -105v410l-141 86q-81 49 -129 106.5t-73 145.5t-25 217q0 201 92.5 301.5t275.5 114.5v125h123v-125q172 -12 266.5 -97.5t94.5 -234.5v-199h-310v136q0 78 -51 98v-379l115 -72q55 -34 90 -61t69 -67
t52.5 -87t29.5 -115t11 -157q0 -224 -86.5 -326t-280.5 -114v-125h-123zM340 1196q0 -51 13.5 -80t45.5 -55v305q-59 -19 -59 -104v-66zM522 274q56 17 56 107v82q0 54 -13 86.5t-43 56.5v-332z" />
    <glyph glyph-name="Euro.tf" 
d="M16 717v82h54v41h-54v82h54v235q0 256 105 379t312 123q418 0 418 -502v-184h-364v315q0 47 -12 65.5t-42 18.5q-29 0 -41 -18.5t-12 -65.5v-366h180v-82h-180v-41h180v-82h-180v-369q0 -46 12 -64t41 -18t41.5 18.5t12.5 63.5v318h364v-185q0 -501 -418 -501
q-417 0 -417 501v236h-54z" />
    <glyph glyph-name="sterling.tf" 
d="M16 227q94 63 135.5 133t41.5 175q0 11 -5 73h-172v123h148q-6 21 -23 81t-26 95t-20.5 91t-17 112.5t-5.5 116.5q0 215 103 323.5t300 108.5q205 0 313.5 -118t108.5 -357v-156h-365v197q0 44 -1 64t-5 43.5t-13.5 31.5t-25.5 8q-13 0 -21.5 -3t-14.5 -13t-9 -18
t-4.5 -28.5t-1.5 -34v-44.5q0 -103 19 -193.5t50.5 -182t39.5 -124.5h233v-123h-221q-6 -97 -43.5 -172.5t-110.5 -148.5h494v-287h-881v227z" />
    <glyph glyph-name="yen.tf" 
d="M80 571v82h182l-260 985h365l86 -591l4 -52h8l4 52l86 591h365l-261 -985h183v-82h-203v-82h203v-81h-203v-408h-356v408h-203v81h203v82h-203z" />
    <glyph glyph-name="bouclecomb" horiz-adv-x="806" 
d="M586 -20q-79 0 -129 30t-109 94h-20v1076h20q37 78 92.5 125t147.5 47q219 0 219 -328v-754q0 -290 -221 -290zM348 352q0 -44 11 -64t42 -20t42.5 21t11.5 65v621q0 44 -11.5 65t-42.5 21t-42 -20t-11 -64v-625z" />
    <glyph glyph-name="slashcomb" 
d="M98 -20l613 1679h112l-612 -1679h-113z" />
    </font>
</defs>
</svg>
