<?xml version="1.0" standalone="no"?>
<!DOCTYPE svg PUBLIC "-//W3C//DTD SVG 1.1//EN" "http://www.w3.org/Graphics/SVG/1.1/DTD/svg11.dtd" >
<svg xmlns="http://www.w3.org/2000/svg" xmlns:xlink="http://www.w3.org/1999/xlink" version="1.1">
<metadata>
Created by FontForge 20170731 at Thu Oct  5 16:22:16 2023
 By Aleksey,,,
Copyright (c) 2021 by Mathieu Desjardins. All rights reserved.
</metadata>
<defs>
<font id="PPFormula-CondensedExtralight" horiz-adv-x="864" >
  <font-face 
    font-family="PP Formula Condensed Extralight"
    font-weight="200"
    font-stretch="extra-condensed"
    units-per-em="2048"
    panose-1="0 0 0 0 0 0 0 0 0 0"
    ascent="1638"
    descent="-410"
    x-height="1331"
    cap-height="1638"
    bbox="-207 -424 3103 2062"
    underline-thickness="81"
    underline-position="-285"
    unicode-range="U+0020-FB02"
  />
<missing-glyph horiz-adv-x="1024" 
d="M840 1638v-2048h-650v2048h650zM342 -268h340v67h-209l143 97h66v67h-340v-67h143l-143 -97v-67zM342 10h340v232h-340v-232zM342 365h340v231h-205v-115h70v47h67v-96h-204v164h-68v-231zM342 641h340v205h-68v-135h-272v-70zM342 758h205v143h135v68h-340v-68h135v-76
h-135v-67zM342 1024h340v70h-135v143h-205v-213zM342 1290h340v68h-135v76h135v67h-338v-67h133v-76h-135v-68zM410 78v96h204v-96h-204zM410 1094v73h67v-73h-67z" />
    <glyph glyph-name="fi" unicode="fi" horiz-adv-x="917" 
d="M27 1331h161v62q0 43 3.5 76.5t16.5 70.5t34.5 61.5t60.5 41t92 16.5q72 0 154 -21v-94q-66 19 -121 19q-34 0 -57 -9t-35.5 -22t-19 -38t-8 -46t-1.5 -57v-84q49 24 242 24v-96h-242v-1235h-119v1235h-161v96zM651 1563q0 40 28.5 68t72.5 28q43 0 70.5 -27.5
t27.5 -68.5q0 -38 -27.5 -66.5t-70.5 -28.5t-72 28.5t-29 66.5zM692 0v1331h119v-1331h-119z" />
    <glyph glyph-name="fl" unicode="fl" horiz-adv-x="935" 
d="M27 1331h161v62q0 43 3.5 76.5t16.5 70.5t34.5 61.5t60.5 41t92 16.5q72 0 154 -21v-94q-66 19 -121 19q-34 0 -57 -9t-35.5 -22t-19 -38t-8 -46t-1.5 -57v-84q49 24 242 24v-96h-242v-1235h-119v1235h-161v96zM711 0v1638h118v-1638h-118z" />
    <glyph glyph-name=".notdef" horiz-adv-x="1024" 
d="M840 1638v-2048h-650v2048h650zM342 -268h340v67h-209l143 97h66v67h-340v-67h143l-143 -97v-67zM342 10h340v232h-340v-232zM342 365h340v231h-205v-115h70v47h67v-96h-204v164h-68v-231zM342 641h340v205h-68v-135h-272v-70zM342 758h205v143h135v68h-340v-68h135v-76
h-135v-67zM342 1024h340v70h-135v143h-205v-213zM342 1290h340v68h-135v76h135v67h-338v-67h133v-76h-135v-68zM410 78v96h204v-96h-204zM410 1094v73h67v-73h-67z" />
    <glyph glyph-name=".null" horiz-adv-x="0" 
 />
    <glyph glyph-name="nonmarkingreturn" horiz-adv-x="682" 
 />
    <glyph glyph-name="space" unicode=" " horiz-adv-x="395" 
 />
    <glyph glyph-name="exclam" unicode="!" horiz-adv-x="368" 
d="M125 1638h121l-4 -1126h-117v1126zM72 92q0 50 32 81.5t80 31.5q46 0 79.5 -32t33.5 -81t-33.5 -80.5t-79.5 -31.5q-48 0 -80 31t-32 81z" />
    <glyph glyph-name="quotedbl" unicode="&#x22;" horiz-adv-x="430" 
d="M78 1638h106v-512h-106v512zM246 1126v512h106v-512h-106z" />
    <glyph glyph-name="numbersign" unicode="#" horiz-adv-x="1544" 
d="M211 1128h395l189 510h104l-188 -510h346l188 510h105l-189 -510h328v-86h-361l-165 -446h368v-86h-401l-189 -510h-104l188 510h-346l-188 -510h-105l189 510h-322v86h355l165 446h-362v86zM512 596h346l166 446h-346z" />
    <glyph glyph-name="dollar" unicode="$" horiz-adv-x="833" 
d="M375 -143v125q-158 12 -235 111t-77 298v158h121v-160q0 -157 46.5 -226.5t144.5 -80.5v739l-99 70q-104 75 -153 168.5t-49 236.5q0 342 301 361v125h84v-125q152 -11 227.5 -107.5t75.5 -289.5v-93h-121v88q0 161 -47 227t-135 74v-651l88 -63q77 -55 123.5 -111.5
t74 -145t27.5 -208.5q0 -188 -71.5 -287.5t-241.5 -109.5v-123h-84zM195 1305q0 -119 37 -191t116 -131l27 -18v591q-92 -8 -136 -64t-44 -181v-6zM459 82q104 7 147 71t43 212v6q0 148 -39 228t-131 146l-20 15v-678z" />
    <glyph glyph-name="percent" unicode="%" horiz-adv-x="1169" 
d="M291 0l493 1638h95l-496 -1638h-92zM35 1348q0 62 13.5 115.5t42.5 98.5t80 71t120 26q68 0 118.5 -26t79.5 -71t42.5 -98.5t13.5 -115.5t-13.5 -116t-42.5 -99t-79.5 -71t-118.5 -26q-69 0 -120 26t-80 71t-42.5 99t-13.5 116zM147 1348q0 -100 33 -155.5t111 -55.5
q77 0 109 55.5t32 155.5q0 211 -141 211q-144 0 -144 -211zM627 291q0 62 13.5 115.5t42 98.5t79 71t119.5 26q68 0 118.5 -26t79.5 -71t42.5 -98.5t13.5 -115.5q0 -61 -13.5 -114.5t-42.5 -99t-79.5 -71.5t-118.5 -26t-119 26t-79.5 71.5t-42 98.5t-13.5 115zM737 291
q0 -211 144 -211q143 0 143 211t-143 211q-78 0 -111 -55.5t-33 -155.5z" />
    <glyph glyph-name="ampersand" unicode="&#x26;" horiz-adv-x="915" 
d="M424 -20q-98 0 -168 35.5t-106.5 97.5t-52 132t-15.5 154v82q0 135 52 229.5t145 123.5q-90 24 -143.5 118.5t-53.5 237.5v65q0 59 7.5 110.5t31 107.5t60.5 95.5t101 65t148 25.5q330 0 330 -406v-84h-119v91q0 91 -15.5 152.5t-46 93.5t-66.5 44.5t-85 12.5
q-112 0 -168.5 -71.5t-56.5 -234.5v-77q0 -77 16.5 -134.5t40.5 -88.5t58 -49.5t61 -23.5t57 -5h205v141h119v-141h94v-95h-94v-395q0 -409 -336 -409zM203 391q0 -170 56.5 -242.5t168.5 -72.5q49 0 84.5 13t66 45.5t46.5 96t16 156.5v397h-205q-30 0 -57 -5t-61 -23
t-58 -48t-40.5 -85.5t-16.5 -130.5v-101z" />
    <glyph glyph-name="quotesingle" unicode="'" horiz-adv-x="260" 
d="M78 1638h106v-512h-106v512z" />
    <glyph glyph-name="parenleft" unicode="(" horiz-adv-x="534" 
d="M408 -301q-180 247 -260 486.5t-80 521.5q0 284 80 519.5t260 483.5h112q-189 -267 -269.5 -493t-80.5 -510q0 -285 79.5 -510.5t270.5 -497.5h-112z" />
    <glyph glyph-name="parenright" unicode=")" horiz-adv-x="534" 
d="M127 1714q180 -247 260 -486t80 -521q0 -284 -80 -520t-260 -484h-113q190 268 270.5 494t80.5 510q0 285 -79.5 510t-271.5 497h113z" />
    <glyph glyph-name="asterisk" unicode="*" horiz-adv-x="638" 
d="M279 1659h81v-240l191 101l41 -70l-186 -98l186 -99l-41 -69l-191 100v-240h-81v240l-191 -100l-41 69l186 99l-186 98l41 70l191 -101v240z" />
    <glyph glyph-name="plus" unicode="+" horiz-adv-x="948" 
d="M53 766v92h377v373h88v-373h375v-92h-375v-375h-88v375h-377z" />
    <glyph glyph-name="comma" unicode="," horiz-adv-x="333" 
d="M72 -117q44 15 91.5 55t59.5 82q-24 -40 -78 -40q-41 0 -68.5 29t-27.5 83q0 51 31 82t88 31q52 0 83.5 -37.5t31.5 -97.5q0 -171 -211 -291v104z" />
    <glyph glyph-name="hyphen" unicode="-" horiz-adv-x="952" 
d="M57 719h840v-86h-840v86z" />
    <glyph glyph-name="period" unicode="." horiz-adv-x="331" 
d="M166 -20q-48 0 -80.5 31t-32.5 81t32.5 81.5t80.5 31.5q46 0 79.5 -32t33.5 -81t-33.5 -80.5t-79.5 -31.5z" />
    <glyph glyph-name="slash" unicode="/" horiz-adv-x="776" 
d="M745 1638l-608 -1638h-104l608 1638h104z" />
    <glyph glyph-name="zero" unicode="0" horiz-adv-x="897" 
d="M449 -18q-353 0 -353 411v854q0 412 353 412q354 0 354 -412v-854q0 -411 -354 -411zM221 385q0 -43 2 -63l428 1114q-25 70 -75.5 98.5t-126.5 28.5q-54 0 -93 -13.5t-71 -47t-48 -95t-16 -152.5v-870zM260 174q51 -96 189 -96q55 0 94.5 13.5t71 46.5t47.5 94.5
t16 152.5v881z" />
    <glyph glyph-name="one" unicode="1" horiz-adv-x="698" 
d="M55 96h248v1366q-37 -61 -101.5 -94t-148.5 -33v103q94 0 153.5 51t98.5 149h119v-1542h248v-96h-617v96z" />
    <glyph glyph-name="two" unicode="2" horiz-adv-x="829" 
d="M66 100q0 95 6 152.5t28 129t69 141t126 155.5l178 192q83 88 126.5 179.5t43.5 216.5v8q0 88 -16 147t-47.5 89t-67.5 41.5t-86 11.5q-51 0 -87 -11.5t-68 -41.5t-48 -90t-16 -150v-103h-125v97q0 195 83 295t261 100q176 0 259 -99.5t83 -293.5q0 -81 -18 -154
t-52.5 -133.5t-65 -102t-73.5 -88.5l-176 -190q-53 -58 -76 -85.5t-52 -73t-39.5 -87.5t-18 -105t-7.5 -151h576v-96h-700v100z" />
    <glyph glyph-name="three" unicode="3" 
d="M422 -20q-177 0 -262.5 99.5t-85.5 299.5v110h123v-112q0 -92 17 -154t50 -93t70 -42.5t88 -11.5q114 0 172.5 70t58.5 237v106q0 83 -17.5 145t-41.5 94.5t-57.5 52.5t-57.5 25t-49 5h-131v98h131q24 0 49 5t57.5 22t57 45t42 80t17.5 121v86q0 72 -13 126t-34 86
t-52 51t-61 25.5t-67 6.5q-53 0 -91 -11.5t-71 -41.5t-50 -90t-17 -150v-101h-123v95q0 197 84.5 296t267.5 99q178 0 265 -104.5t87 -290.5v-74q0 -120 -55 -211t-150 -117q98 -31 151.5 -130.5t53.5 -250.5v-92q0 -66 -9.5 -122.5t-34.5 -110.5t-64 -92t-102.5 -61
t-145.5 -23z" />
    <glyph glyph-name="four" unicode="4" horiz-adv-x="792" 
d="M627 1638v-1185h127v-97h-127v-356h-121v356h-471v101l475 1181h117zM143 453h363v913z" />
    <glyph glyph-name="five" unicode="5" horiz-adv-x="849" 
d="M461 1098q155 0 237 -108.5t82 -301.5v-287q0 -203 -90.5 -312t-267.5 -109q-173 0 -260.5 112t-87.5 322v75h125v-83q0 -181 61 -255.5t168 -74.5q112 0 169.5 73.5t57.5 239.5v299q0 150 -53.5 230.5t-157.5 80.5q-56 0 -97.5 -21.5t-67.5 -63t-41.5 -90t-24.5 -113.5
h-123l43 927h574v-96h-461l-29 -590q73 146 244 146z" />
    <glyph glyph-name="six" unicode="6" horiz-adv-x="878" 
d="M449 -20q-353 0 -353 417v852q0 410 344 410q82 0 142.5 -22.5t95.5 -57.5t56 -89.5t27.5 -107t6.5 -120.5v-33h-125v33q0 161 -44.5 229t-156.5 68q-117 0 -169 -68t-52 -229v-316q88 152 262 152q155 0 236.5 -109t81.5 -301v-291q0 -201 -87 -309t-265 -108zM221 393
q0 -93 17.5 -157t50.5 -98t71.5 -48t88.5 -14q115 0 171 75t56 244v295q0 309 -215 309q-111 0 -175.5 -85t-64.5 -222v-299z" />
    <glyph glyph-name="seven" unicode="7" horiz-adv-x="765" 
d="M29 1542v96h692v-96q-210 -335 -298.5 -674t-88.5 -841v-27h-121v25q0 500 91.5 840.5t307.5 676.5h-583z" />
    <glyph glyph-name="eight" unicode="8" horiz-adv-x="866" 
d="M432 -20q-182 0 -266 93.5t-84 291.5v147q0 156 50 239.5t144 112.5q-176 63 -176 303v142q0 162 82 256t250 94q170 0 251 -94t81 -256v-142q0 -241 -174 -303q94 -31 144 -114.5t50 -237.5v-147q0 -197 -85 -291t-267 -94zM207 362q0 -75 12 -128t30.5 -83.5t49 -47.5
t60.5 -22t73 -5t73.5 5t61.5 22t49.5 47.5t30.5 83.5t12 128v162q0 86 -16.5 144.5t-49 88t-70.5 41t-91 11.5q-52 0 -89.5 -11.5t-70 -41t-49 -88t-16.5 -144.5v-162zM225 1159q0 -135 52.5 -193.5t154.5 -58.5q209 0 209 252v152q0 135 -53.5 193.5t-155.5 58.5
q-101 0 -154 -58.5t-53 -193.5v-152z" />
    <glyph glyph-name="nine" unicode="9" horiz-adv-x="878" 
d="M430 1659q352 0 352 -418v-852q0 -409 -344 -409q-82 0 -142.5 22.5t-95 57.5t-55.5 89.5t-27.5 107t-6.5 120.5v33h125v-33q0 -161 44 -229t156 -68q117 0 169 68t52 229v315q-87 -151 -262 -151q-155 0 -236 108.5t-81 300.5v291q0 201 87 309.5t265 108.5zM203 948
q0 -309 215 -309q111 0 175 85t64 222v299q0 93 -17.5 157.5t-50.5 98t-71 48t-88 14.5q-115 0 -171 -75t-56 -245v-295z" />
    <glyph glyph-name="colon" unicode=":" horiz-adv-x="391" 
d="M197 895q-48 0 -80.5 31.5t-32.5 81.5t32.5 81t80.5 31q46 0 79 -31.5t33 -80.5q0 -50 -33 -81.5t-79 -31.5zM84 92q0 50 32.5 81.5t80.5 31.5q46 0 79 -31.5t33 -81.5q0 -49 -33 -80.5t-79 -31.5q-48 0 -80.5 31t-32.5 81z" />
    <glyph glyph-name="semicolon" unicode=";" horiz-adv-x="389" 
d="M201 895q-48 0 -80.5 31.5t-32.5 81.5t32.5 81t80.5 31q46 0 79 -31.5t33 -80.5q0 -50 -33 -81.5t-79 -31.5zM74 92q0 51 31 82t88 31q52 0 83 -37t31 -98q0 -171 -211 -291v104q44 16 92 55.5t60 81.5q-24 -40 -78 -40q-41 0 -68.5 29t-27.5 83z" />
    <glyph glyph-name="less" unicode="&#x3c;" horiz-adv-x="970" 
d="M51 852l840 326v-103l-696 -264l696 -264v-103l-840 326v82z" />
    <glyph glyph-name="equal" unicode="=" horiz-adv-x="999" 
d="M80 956h840v-86h-840v86zM80 666v86h840v-86h-840z" />
    <glyph glyph-name="greater" unicode="&#x3e;" horiz-adv-x="970" 
d="M920 770l-840 -326v103l696 264l-696 264v103l840 -326v-82z" />
    <glyph glyph-name="question" unicode="?" horiz-adv-x="745" 
d="M379 1659q162 0 242.5 -93t80.5 -245q0 -89 -28 -166.5t-67.5 -137.5t-79 -123t-67.5 -151.5t-28 -193.5v-37h-115v39q0 106 27.5 197.5t66.5 157t77.5 127.5t66 137.5t27.5 158.5q0 122 -55 178t-152 56q-213 0 -213 -289v-105h-121v97q0 83 18 151.5t56.5 124
t105.5 86.5t158 31zM262 92q0 50 32.5 81.5t80.5 31.5q46 0 79 -31.5t33 -81.5q0 -49 -33 -80.5t-79 -31.5q-48 0 -80.5 31t-32.5 81z" />
    <glyph glyph-name="at" unicode="@" horiz-adv-x="1263" 
d="M729 -74q-316 0 -487.5 190.5t-171.5 581.5q0 157 32 285.5t87.5 216t132.5 147.5t164 87.5t184 27.5q99 0 177.5 -24t144.5 -79.5t110 -143.5t68 -220.5t24 -306.5q0 -119 -9.5 -203.5t-33 -150t-66.5 -97.5t-106 -32q-129 0 -166 127q-67 -146 -203 -146
q-128 0 -203 128.5t-75 355.5t74.5 355t203.5 128q119 0 185 -111v109h108v-670q0 -192 88 -192q101 0 101 399q0 160 -18.5 279.5t-52.5 197.5t-87 126t-115.5 67.5t-144.5 19.5q-80 0 -152 -23.5t-136.5 -75.5t-111.5 -129.5t-74.5 -193.5t-27.5 -258q0 -181 39.5 -314.5
t114.5 -214.5t175.5 -120t229.5 -39q174 0 326 64v-84q-156 -64 -328 -64zM440 670q0 -192 49.5 -286.5t139.5 -94.5q88 0 127 91t39 290q0 198 -39.5 290.5t-126.5 92.5q-90 0 -139.5 -95.5t-49.5 -287.5z" />
    <glyph glyph-name="A" unicode="A" horiz-adv-x="788" 
d="M39 0l266 1638h178l267 -1638h-125l-58 375h-346l-57 -375h-125zM236 475h315l-158 1026z" />
    <glyph glyph-name="B" unicode="B" horiz-adv-x="870" 
d="M106 0v1638h283q102 0 170 -16t117 -56.5t71.5 -109.5t22.5 -174v-80q0 -239 -186 -317q105 -36 165 -124.5t60 -260.5v-88q0 -234 -90.5 -323t-329.5 -89h-283zM231 100h146q69 0 116 5t82.5 20t55.5 35.5t32.5 58t16.5 80.5t4 109v98q0 169 -71 247t-236 78h-146v-731z
M231 932h146q63 0 108 10.5t83 38t57.5 81.5t19.5 134v88q0 85 -14 136t-50 77t-80.5 33.5t-123.5 7.5h-146v-606z" />
    <glyph glyph-name="C" unicode="C" horiz-adv-x="876" 
d="M444 -20q-354 0 -354 415v852q0 412 354 412q353 0 353 -412v-276h-125v284q0 89 -16 150t-48 94t-71 46.5t-93 13.5q-113 0 -171 -66t-58 -238v-868q0 -91 16 -152.5t47.5 -94.5t71 -46.5t94.5 -13.5q54 0 93 13.5t71 46.5t48 95t16 152v281h125v-273q0 -415 -353 -415z
" />
    <glyph glyph-name="D" unicode="D" horiz-adv-x="907" 
d="M106 0v1638h279q73 0 126 -6t105 -22t86 -46t61 -77t39.5 -116t12.5 -161v-782q0 -92 -12.5 -161t-39.5 -116t-61 -77t-86 -46t-105 -22t-126 -6h-279zM231 98h154q74 0 120.5 7t85 25.5t58.5 55.5t30.5 93.5t10.5 142.5v795q0 72 -6.5 122.5t-22.5 87t-37.5 58t-58 34.5
t-77.5 17t-103 4h-154v-1442z" />
    <glyph glyph-name="E" unicode="E" horiz-adv-x="741" 
d="M106 0v1638h574v-100h-449v-668h433v-102h-433v-668h449v-100h-574z" />
    <glyph glyph-name="F" unicode="F" horiz-adv-x="716" 
d="M106 0v1638h574v-100h-449v-750h431v-102h-431v-686h-125z" />
    <glyph glyph-name="G" unicode="G" horiz-adv-x="884" 
d="M426 -20q-172 0 -254 109.5t-82 303.5v854q0 412 354 412q353 0 353 -412v-192h-125v200q0 89 -16 150t-48 94t-71 46.5t-93 13.5q-113 0 -171 -66t-58 -238v-868q0 -170 54 -238.5t177 -68.5q128 0 177 73.5t49 249.5v320h-228v98h353v-821h-88l-11 133
q-84 -153 -272 -153z" />
    <glyph glyph-name="H" unicode="H" horiz-adv-x="913" 
d="M684 0v768h-453v-768h-125v1638h125v-768h453v768h123v-1638h-123z" />
    <glyph glyph-name="I" unicode="I" horiz-adv-x="337" 
d="M106 0v1638h125v-1638h-125z" />
    <glyph glyph-name="J" unicode="J" horiz-adv-x="825" 
d="M389 -20q-336 0 -336 415v176h125v-184q0 -90 16 -152t46 -95t66 -46.5t83 -13.5q99 0 154 67t55 240v1251h125v-1243q0 -415 -334 -415z" />
    <glyph glyph-name="K" unicode="K" horiz-adv-x="817" 
d="M664 0l-404 764h-29v-764h-125v1638h125v-764h29l404 764h135l-441 -819l441 -819h-135z" />
    <glyph glyph-name="L" unicode="L" horiz-adv-x="712" 
d="M106 0v1638h125v-1538h449v-100h-574z" />
    <glyph glyph-name="M" unicode="M" horiz-adv-x="1044" 
d="M106 0v1638h179l237 -1402l238 1402h178v-1638h-117v1360l-237 -1360h-123l-238 1360v-1360h-117z" />
    <glyph glyph-name="N" unicode="N" horiz-adv-x="921" 
d="M106 0v1638h121l469 -1327v1327h119v-1638h-123l-469 1329v-1329h-117z" />
    <glyph glyph-name="O" unicode="O" horiz-adv-x="886" 
d="M444 -20q-354 0 -354 411v856q0 412 354 412q353 0 353 -412v-856q0 -411 -353 -411zM215 387q0 -89 16 -150t47.5 -93.5t71 -46t94.5 -13.5q54 0 93 13.5t71 46t48 93.5t16 150v864q0 89 -16 150t-48 93.5t-71 46t-93 13.5q-55 0 -94.5 -13.5t-71 -46t-47.5 -93.5
t-16 -150v-864z" />
    <glyph glyph-name="P" unicode="P" horiz-adv-x="866" 
d="M106 0v1638h295q229 0 322.5 -108t93.5 -359v-71q0 -253 -95 -369.5t-321 -116.5h-170v-614h-125zM231 713h175q158 0 222 82.5t64 291.5v97q0 141 -29 218t-89 107.5t-168 30.5h-175v-827z" />
    <glyph glyph-name="Q" unicode="Q" horiz-adv-x="886" 
d="M444 84q54 0 93 13.5t71 46t48 93.5t16 150v864q0 89 -16 150t-48 93.5t-71 46t-93 13.5q-55 0 -94.5 -13.5t-71 -46t-47.5 -93.5t-16 -150v-864q0 -89 16 -150t47.5 -93.5t71 -46t94.5 -13.5zM90 391v856q0 412 354 412q353 0 353 -412v-856q0 -384 -310 -409
q115 -31 191 -101v-123q-88 79 -177 117.5t-198 38.5v86q-213 71 -213 391z" />
    <glyph glyph-name="R" unicode="R" horiz-adv-x="878" 
d="M692 0q-22 28 -22 145v320q0 59 -11.5 105.5t-28.5 77t-44 53t-51.5 34t-57 18t-55 8t-51.5 1.5h-140v-762h-125v1638h263q127 0 205.5 -17t131 -63.5t73 -123t20.5 -199.5v-41q0 -92 -16.5 -159t-68 -127t-139.5 -93q110 -38 165 -123.5t55 -230.5v-316q0 -115 22 -145
h-125zM231 860h140q76 0 131.5 17t88.5 44t52 70t25 86.5t6 102.5v59q0 54 -3.5 94.5t-12.5 72t-19.5 53t-31 37t-40.5 24t-53.5 13t-64 6t-78.5 1.5h-140v-680z" />
    <glyph glyph-name="S" unicode="S" horiz-adv-x="835" 
d="M420 -20q-182 0 -270.5 100.5t-88.5 316.5v154h125v-164q0 -175 56 -241t180 -66q121 0 171 62.5t50 219.5v11q0 99 -19.5 168t-54 113t-96.5 91l-188 144q-105 82 -155 174t-50 231q0 365 340 365q175 0 260.5 -97.5t85.5 -306.5v-88h-125v90q0 76 -11 130.5t-29.5 87.5
t-47.5 52t-60 25.5t-73 6.5q-112 0 -163.5 -55t-51.5 -191v-8q0 -117 36.5 -187.5t114.5 -132.5l189 -143q116 -89 169.5 -190t53.5 -273q0 -197 -80.5 -298t-267.5 -101z" />
    <glyph glyph-name="T" unicode="T" horiz-adv-x="737" 
d="M305 0v1538h-266v100h657v-100h-266v-1538h-125z" />
    <glyph glyph-name="U" unicode="U" horiz-adv-x="911" 
d="M455 -20q-353 0 -353 415v1243h125v-1251q0 -90 16 -152t48 -95t71 -46.5t93 -13.5q55 0 94.5 13.5t71 46.5t47.5 94.5t16 152.5v1251h125v-1243q0 -199 -83.5 -307t-270.5 -108z" />
    <glyph glyph-name="V" unicode="V" horiz-adv-x="788" 
d="M305 0l-266 1638h125l231 -1495l230 1495h125l-267 -1638h-178z" />
    <glyph glyph-name="W" unicode="W" horiz-adv-x="1441" 
d="M305 0l-268 1638h123l233 -1488l238 1488h182l236 -1488l2 -7v7l231 1488h123l-268 -1638h-176l-238 1468l-2 13l-2 -13l-238 -1468h-176z" />
    <glyph glyph-name="X" unicode="X" horiz-adv-x="804" 
d="M23 0l315 854l-301 784h127l239 -643l240 643h125l-301 -784l315 -854h-125l-256 713l-254 -713h-124z" />
    <glyph glyph-name="Y" unicode="Y" horiz-adv-x="776" 
d="M326 0v573l-299 1065h129l231 -895l231 895h130l-297 -1065v-573h-125z" />
    <glyph glyph-name="Z" unicode="Z" horiz-adv-x="727" 
d="M47 0v100l508 1438h-508v100h633v-100l-508 -1438h508v-100h-633z" />
    <glyph glyph-name="bracketleft" unicode="[" horiz-adv-x="509" 
d="M475 1714v-86h-264v-1843h264v-86h-366v2015h366z" />
    <glyph glyph-name="backslash" unicode="\" horiz-adv-x="776" 
d="M33 1638h104l608 -1638h-104z" />
    <glyph glyph-name="bracketright" unicode="]" horiz-adv-x="509" 
d="M35 -301v86h264v1843h-264v86h366v-2015h-366z" />
    <glyph glyph-name="asciicircum" unicode="^" horiz-adv-x="718" 
d="M571 1024l-213 524l-213 -524h-110l250 614h147l250 -614h-111z" />
    <glyph glyph-name="underscore" unicode="_" horiz-adv-x="1187" 
d="M0 -160h1188v-86h-1188v86z" />
    <glyph glyph-name="grave" unicode="`" horiz-adv-x="993" 
d="M788 1532l-20 -78l-563 150l20 79z" />
    <glyph glyph-name="a" unicode="a" horiz-adv-x="835" 
d="M616 0v190q-72 -210 -276 -210q-132 0 -208.5 81t-76.5 236q0 71 20 132.5t56 109t73.5 82t86.5 67.5l74 49q110 75 145 106q103 93 104 197v21q0 194 -186 194q-104 0 -165.5 -66t-61.5 -202v-84h-121v80q0 55 10 105.5t35 99.5t63 84.5t99 57.5t139 22q309 0 309 -322
v-1030h-119zM176 301q0 -100 46.5 -161.5t142.5 -61.5q119 0 184 121t65 327v316q-4 -14 -11.5 -28.5t-15 -25.5t-22.5 -25.5t-23 -22.5t-28.5 -23t-27.5 -20t-30.5 -21t-27.5 -19l-80 -55q-172 -125 -172 -301z" />
    <glyph glyph-name="b" unicode="b" horiz-adv-x="849" 
d="M106 0v1638h119v-456q31 70 93 120t161 50q137 0 211 -97t74 -284v-613q0 -186 -76 -282t-211 -96q-96 0 -157.5 48.5t-94.5 116.5v-145h-119zM225 373q0 -53 13 -103t39 -94.5t71.5 -72t104.5 -27.5q104 0 147 74.5t43 214.5v602q0 139 -43 213.5t-147 74.5
q-59 0 -104.5 -27.5t-71.5 -72t-39 -94.5t-13 -103v-585z" />
    <glyph glyph-name="c" unicode="c" horiz-adv-x="813" 
d="M621 948q0 91 -14 152.5t-42 94.5t-63 46.5t-84 13.5t-86 -13.5t-67 -46.5t-46 -95t-16 -152v-565q0 -90 16 -152t46 -95t67 -46.5t86 -13.5t84 13.5t63 46.5t42 94.5t14 152.5v139h120v-131q0 -199 -75 -305t-248 -106q-336 0 -336 411v551q0 410 334 410
q90 0 153.5 -28.5t100.5 -84t54 -128.5t17 -169v-133h-120v139z" />
    <glyph glyph-name="d" unicode="d" horiz-adv-x="849" 
d="M623 1638h120v-1638h-120v150q-31 -70 -93 -120t-161 -50q-137 0 -211 96.5t-74 283.5v613q0 187 76 283t211 96q171 0 252 -166v452zM205 365q0 -140 43 -214.5t147 -74.5q59 0 104.5 27.5t71.5 72t39 94.5t13 103v585q0 53 -13 103t-39 94.5t-71.5 72t-104.5 27.5
q-104 0 -147 -74.5t-43 -213.5v-602z" />
    <glyph glyph-name="e" unicode="e" horiz-adv-x="819" 
d="M82 391v551q0 410 334 410q90 0 153.5 -28.5t100.5 -84t54 -128.5t17 -169v-285h-538v-274q0 -90 16 -152t46 -95t67 -46.5t86 -13.5t84 13.5t63 46.5t42 94.5t14 152.5v41h120v-33q0 -199 -75 -305t-248 -106q-336 0 -336 411zM203 752h418v196q0 91 -14 152.5t-42 94.5
t-63 46.5t-84 13.5t-86 -13.5t-67 -46.5t-46 -95t-16 -152v-196z" />
    <glyph glyph-name="f" unicode="f" horiz-adv-x="575" 
d="M27 1331h161v62q0 43 3.5 76.5t16.5 70.5t34.5 61.5t60.5 41t92 16.5q72 0 154 -21v-94q-66 19 -121 19q-34 0 -57 -9t-35.5 -22t-19 -38t-8 -46t-1.5 -57v-84q49 24 242 24v-96h-242v-1235h-119v1235h-161v96z" />
    <glyph glyph-name="g" unicode="g" horiz-adv-x="847" 
d="M623 -2v152q-31 -70 -93 -120t-161 -50q-137 0 -211 96.5t-74 283.5v613q0 187 76 283t211 96q171 0 252 -166v145h120v-1351q0 -100 -16 -169.5t-54.5 -121t-106 -75.5t-167.5 -24h-272v97h264q137 0 184.5 70.5t47.5 240.5zM205 365q0 -140 43 -214.5t147 -74.5
q59 0 104.5 27.5t71.5 72t39 94.5t13 103v585q0 53 -13 103t-39 94.5t-71.5 72t-104.5 27.5q-104 0 -147 -74.5t-43 -213.5v-602z" />
    <glyph glyph-name="h" unicode="h" 
d="M225 1638v-450q77 164 267 164q136 0 204 -90t68 -277v-985h-121v983q0 136 -41.5 204t-142.5 68q-62 0 -109 -27.5t-73 -72.5t-39 -96t-13 -105v-954h-119v1638h119z" />
    <glyph glyph-name="i" unicode="i" horiz-adv-x="331" 
d="M106 1331h119v-1331h-119v1331zM66 1563q0 40 28 68t72 28q43 0 70.5 -27.5t27.5 -68.5q0 -38 -27.5 -66.5t-70.5 -28.5t-71.5 28.5t-28.5 66.5z" />
    <glyph glyph-name="j" unicode="j" horiz-adv-x="331" 
d="M106 -20v1351h119v-1372q0 -92 -15.5 -157.5t-52.5 -114.5t-101 -73t-158 -24h-93v97h86q125 0 170 68.5t45 224.5zM66 1563q0 40 28 68t72 28q43 0 70.5 -27.5t27.5 -68.5q0 -38 -27.5 -66.5t-70.5 -28.5t-71.5 28.5t-28.5 66.5z" />
    <glyph glyph-name="k" unicode="k" horiz-adv-x="819" 
d="M106 1638h119v-923h33l410 616h139l-453 -665l453 -666h-139l-412 618h-31v-618h-119v1638z" />
    <glyph glyph-name="l" unicode="l" horiz-adv-x="331" 
d="M106 1638h119v-1638h-119v1638z" />
    <glyph glyph-name="m" unicode="m" horiz-adv-x="1288" 
d="M1067 995q0 62 -6 105.5t-21.5 80.5t-46 55.5t-75.5 18.5q-70 0 -119.5 -45t-70.5 -108t-21 -135v-967h-119v995q0 127 -32.5 193.5t-119.5 66.5q-70 0 -119.5 -45t-70.5 -108t-21 -135v-967h-119v1331h119v-151q57 172 248 172q193 0 219 -181q41 88 102 134.5t158 46.5
q128 0 182 -86t54 -269v-997h-121v995z" />
    <glyph glyph-name="n" unicode="n" 
d="M225 1331v-143q77 164 267 164q136 0 204 -90t68 -277v-985h-121v983q0 136 -41.5 204t-142.5 68q-62 0 -109 -27.5t-73 -72.5t-39 -96t-13 -105v-954h-119v1331h119z" />
    <glyph glyph-name="o" unicode="o" horiz-adv-x="823" 
d="M412 -20q-330 0 -330 411v551q0 410 330 410q329 0 329 -410v-551q0 -411 -329 -411zM203 383q0 -173 55 -240t154 -67t154 67t55 240v565q0 173 -55 240t-154 67t-154 -67t-55 -240v-565z" />
    <glyph glyph-name="p" unicode="p" horiz-adv-x="849" 
d="M225 1331v-149q31 70 93 120t161 50q137 0 211 -97t74 -284v-613q0 -186 -76 -282t-211 -96q-96 0 -157.5 48.5t-94.5 116.5v-555h-119v1741h119zM225 373q0 -53 13 -103t39 -94.5t71.5 -72t104.5 -27.5q104 0 147 74.5t43 214.5v602q0 139 -43 213.5t-147 74.5
q-59 0 -104.5 -27.5t-71.5 -72t-39 -94.5t-13 -103v-585z" />
    <glyph glyph-name="q" unicode="q" horiz-adv-x="847" 
d="M623 -410v560q-31 -70 -93 -120t-161 -50q-137 0 -211 96.5t-74 283.5v613q0 187 76 283t211 96q171 0 252 -166v145h120v-1741h-120zM205 365q0 -140 43 -214.5t147 -74.5q59 0 104.5 27.5t71.5 72t39 94.5t13 103v585q0 53 -13 103t-39 94.5t-71.5 72t-104.5 27.5
q-104 0 -147 -74.5t-43 -213.5v-602z" />
    <glyph glyph-name="r" unicode="r" horiz-adv-x="757" 
d="M225 1331v-139q80 160 252 160q131 0 189.5 -85t58.5 -245v-121h-119v100q0 133 -38 193.5t-126 60.5q-51 0 -91 -23.5t-63 -58t-38 -79.5t-20 -83t-5 -73v-938h-119v1331h119z" />
    <glyph glyph-name="s" unicode="s" horiz-adv-x="784" 
d="M528 662q68 -56 106.5 -101t60.5 -106t22 -140q0 -50 -7.5 -93t-29 -89t-56 -78.5t-94.5 -53.5t-139 -21q-332 0 -332 358v92h119v-92q0 -138 50.5 -200t160.5 -62q111 0 160 55.5t49 173.5q0 92 -30.5 146t-112.5 122l-193 160q-45 36 -71 61.5t-55.5 65t-43.5 87
t-14 106.5q0 44 7.5 82.5t29 79.5t55 70.5t91 48t132.5 18.5q173 0 248.5 -94.5t75.5 -268.5v-65h-119v65q0 148 -50.5 207t-152.5 59q-97 0 -146.5 -48t-49.5 -150q0 -78 31 -125.5t106 -110.5z" />
    <glyph glyph-name="t" unicode="t" horiz-adv-x="589" 
d="M549 1331v-96h-242v-918q0 -138 19 -178.5t92 -40.5h131v-98h-156q-55 0 -93 14.5t-60 37.5t-34.5 63.5t-16 81t-3.5 100.5v938h-159v96q90 26 146 112t54 195h119q0 -111 -51 -198t-111 -109h365z" />
    <glyph glyph-name="u" unicode="u" 
d="M639 0v147q-79 -167 -268 -167q-137 0 -205 89.5t-68 276.5v985h121v-983q0 -136 41.5 -204t142.5 -68q62 0 109 27.5t73 72.5t39 96t13 105l2 -53v1007h119v-1331h-119z" />
    <glyph glyph-name="v" unicode="v" horiz-adv-x="741" 
d="M35 1331h121l215 -1167l215 1167h121l-261 -1331h-149z" />
    <glyph glyph-name="w" unicode="w" horiz-adv-x="1335" 
d="M37 1331h119l215 -1173l215 1173h164l215 -1169l215 1169h118l-258 -1331h-145l-227 1200l-230 -1200h-143z" />
    <glyph glyph-name="x" unicode="x" horiz-adv-x="796" 
d="M12 0l320 690l-295 641h127l239 -522l238 522h123l-299 -643l319 -688h-129l-260 571l-260 -571h-123z" />
    <glyph glyph-name="y" unicode="y" horiz-adv-x="860" 
d="M637 -2v149q-79 -167 -268 -167q-137 0 -205 89.5t-68 276.5v985h121v-983q0 -136 41.5 -204t142.5 -68q62 0 109 27.5t73 72.5t39 96t13 105l2 -53v1007h119v-1333q0 -102 -16 -173t-54.5 -126t-109.5 -82t-177 -27h-260v97h246q79 0 128.5 17.5t76.5 58.5t37 95t10 140
z" />
    <glyph glyph-name="z" unicode="z" horiz-adv-x="692" 
d="M45 1331h602v-96l-479 -1137h473v-98h-590v98l477 1137h-483v96z" />
    <glyph glyph-name="braceleft" unicode="{" horiz-adv-x="503" 
d="M66 815q79 0 79 178v371q0 184 60 267t186 83h80v-92h-78q-81 0 -113 -62.5t-32 -187.5v-373q0 -108 -18.5 -160t-71.5 -85v-90q53 -33 71.5 -85.5t18.5 -160.5v-373q0 -125 32 -187.5t113 -62.5h78v-92h-80q-126 0 -186 83t-60 267v371q0 178 -79 178v213z" />
    <glyph glyph-name="bar" unicode="|" horiz-adv-x="317" 
d="M106 -20v1679h103v-1679h-103z" />
    <glyph glyph-name="braceright" unicode="}" horiz-adv-x="503" 
d="M438 602q-80 0 -80 -178v-371q0 -184 -59.5 -267t-185.5 -83h-80v92h78q81 0 113 62.5t32 187.5v373q0 108 18.5 160.5t71.5 85.5v90q-53 33 -71.5 85t-18.5 160v373q0 125 -32 187.5t-113 62.5h-78v92h80q126 0 185.5 -83t59.5 -267v-371q0 -178 80 -178v-213z" />
    <glyph glyph-name="asciitilde" unicode="~" horiz-adv-x="962" 
d="M61 727q0 69 19.5 116.5t53 69.5t65 30.5t67.5 8.5q67 0 131.5 -29t107 -63t94.5 -63t97 -29q47 0 75 31.5t28 91.5h102q0 -69 -19.5 -116.5t-53 -69.5t-65 -30.5t-67.5 -8.5q-67 0 -131.5 29t-107 63t-94.5 63t-97 29q-47 0 -74.5 -31.5t-27.5 -91.5h-103z" />
    <glyph glyph-name="uni00A0" unicode="&#xa0;" horiz-adv-x="395" 
 />
    <glyph glyph-name="exclamdown" unicode="&#xa1;" horiz-adv-x="358" 
d="M238 -307h-121l4 1126h117v-1126zM66 1239q0 50 33 81.5t79 31.5q48 0 80.5 -31.5t32.5 -81.5t-32.5 -81.5t-80.5 -31.5q-46 0 -79 31.5t-33 81.5z" />
    <glyph glyph-name="cent" unicode="&#xa2;" horiz-adv-x="817" 
d="M371 -143v278q-291 28 -291 410v551q0 382 291 407v279h84v-279q154 -11 222 -116.5t68 -290.5v-133h-118v137q0 109 -21.5 176.5t-58 96t-92.5 34.5v-1176q42 5 72 22t53.5 52t35 93t11.5 141v137h118v-131q0 -189 -68 -294.5t-222 -115.5v-278h-84zM197 539
q0 -282 174 -306v1172q-174 -24 -174 -305v-561z" />
    <glyph glyph-name="sterling" unicode="&#xa3;" horiz-adv-x="868" 
d="M57 92q91 75 133.5 166t42.5 219q0 77 -12 150h-164v86h148q-7 31 -29 116.5t-32 133t-20.5 127.5t-10.5 155q0 110 29.5 192.5t81 129.5t113.5 69.5t134 22.5q151 0 244.5 -95.5t93.5 -285.5v-135h-121v139q0 142 -56.5 211.5t-158.5 69.5q-49 0 -90.5 -16.5t-76 -51.5
t-54 -98t-19.5 -148q0 -100 13 -185.5t44 -206t36 -144.5h372v-86h-356q12 -67 12 -142q0 -127 -41 -219.5t-127 -169.5h623v-96h-752v92z" />
    <glyph glyph-name="currency" unicode="&#xa4;" horiz-adv-x="765" 
d="M383 418q-82 0 -141 47l-109 -152l-72 72l113 154q-70 112 -70 280q0 169 70 281l-113 153l72 72l109 -151q59 47 141 47q80 0 141 -45l109 149l72 -72l-113 -155q70 -112 70 -279q0 -168 -70 -280l113 -154l-72 -72l-109 152q-59 -47 -141 -47zM207 819q0 -139 44 -224
t132 -85t132 85t44 224t-44 224t-132 85t-132 -85t-44 -224z" />
    <glyph glyph-name="yen" unicode="&#xa5;" horiz-adv-x="800" 
d="M76 553v82h246l-283 1003h129l231 -895l232 895h129l-281 -1003h244v-82h-260v-82h260v-82h-260v-389h-125v389h-262v82h262v82h-262z" />
    <glyph glyph-name="brokenbar" unicode="&#xa6;" horiz-adv-x="317" 
d="M106 1004v655h103v-655h-103zM106 -20v655h103v-655h-103z" />
    <glyph glyph-name="section" unicode="&#xa7;" horiz-adv-x="849" 
d="M453 -20q-179 0 -269 101t-88 284h105q-3 -148 63.5 -226t190.5 -78q99 0 158 51t59 158q0 134 -111 172l-311 107q-106 37 -145 90.5t-39 124.5q0 148 124 190q-114 72 -114 213q0 149 92 221t240 72q349 0 346 -385h-105q6 303 -243 303q-100 0 -164 -52t-64 -155
q0 -131 111 -170l313 -106q95 -32 138.5 -85t43.5 -134q0 -147 -118 -189q108 -72 108 -213q0 -152 -87.5 -223t-233.5 -71zM168 768q0 -54 27 -86t84 -51l237 -78q41 -15 70 -11t47.5 15.5t29.5 33t15 41t4 40.5q0 104 -111 141l-239 80q-49 13 -81 7.5t-50.5 -30.5
t-25.5 -50t-7 -52z" />
    <glyph glyph-name="dieresis" unicode="&#xa8;" horiz-adv-x="892" 
d="M606 1481q-36 0 -61 23.5t-25 60.5q0 40 24.5 63t61.5 23t62.5 -23t25.5 -63q0 -37 -26 -60.5t-62 -23.5zM199 1565q0 40 24.5 63t61.5 23t62.5 -23t25.5 -63q0 -37 -26 -60.5t-62 -23.5t-61 23.5t-25 60.5z" />
    <glyph glyph-name="copyright" unicode="&#xa9;" horiz-adv-x="1540" 
d="M770 -20q-156 0 -278 45.5t-200 122t-129 185.5t-72 228t-21 258t21 258t72 228t129 186t200 122.5t278 45.5t278 -45.5t200 -122.5t129 -186t72 -228t21 -258t-21 -258t-72 -228t-129 -185.5t-200 -122t-278 -45.5zM172 819q0 -105 11 -193.5t36.5 -174t71 -151
t110 -115.5t158.5 -76.5t211 -26.5q135 0 239 39t171 105t110 161.5t60.5 201t17.5 230.5t-17.5 230.5t-60.5 201t-110 161.5t-171 105t-239 39t-239 -39t-171 -105t-110 -161.5t-60.5 -201t-17.5 -230.5zM342 821q0 97 13 178.5t45 154.5t81.5 123t126 79.5t174.5 29.5
q87 0 154.5 -23.5t111.5 -63t74 -98.5t45 -121.5t21 -139.5h-113q-5 45 -10 75t-14.5 69t-22.5 64.5t-34.5 52.5t-49.5 43t-68 26t-90 10q-80 0 -139.5 -24t-95.5 -64t-58 -100.5t-30 -124.5t-8 -146q0 -83 8 -148t29.5 -126t57.5 -101t94.5 -64t137.5 -24q51 0 91.5 10.5
t68.5 26.5t50 44t34.5 53t22.5 64.5t14.5 68.5t9.5 73h113q-7 -75 -20 -135t-42.5 -120t-72.5 -100.5t-111.5 -65.5t-157.5 -25q-440 0 -440 569z" />
    <glyph glyph-name="ordfeminine" unicode="&#xaa;" horiz-adv-x="565" 
d="M389 848v110q-44 -122 -162 -122q-76 0 -121 49t-45 143q0 135 144 238l43 30q5 3 27 18.5t29 21t24.5 20t24.5 24t17 24t13.5 30t3.5 32.5v13q0 102 -96 102q-56 0 -88.5 -34.5t-32.5 -104.5v-53h-94v43q0 98 50.5 162.5t162.5 64.5q194 0 194 -205v-606h-94zM156 1038
q0 -55 25 -87.5t75 -32.5q64 0 97.5 65t33.5 178v162q-4 -11 -10.5 -21t-20.5 -22t-19 -16.5t-25 -18t-21 -14.5l-43 -31q-92 -62 -92 -162z" />
    <glyph glyph-name="guillemotleft" unicode="&#xab;" horiz-adv-x="704" 
d="M358 307l-305 328v82l305 327v-124l-227 -244l227 -244v-125zM322 635v82l305 327v-124l-228 -244l228 -244v-125z" />
    <glyph glyph-name="logicalnot" unicode="&#xac;" horiz-adv-x="985" 
d="M795 625v284h-738v92h840v-376h-102z" />
    <glyph glyph-name="registered" unicode="&#xae;" horiz-adv-x="950" 
d="M475 733q-62 0 -111 19t-80 53.5t-52 74t-31.5 89t-14.5 90t-4 84.5q0 54 5.5 102.5t24 107t48.5 100.5t85.5 70.5t129.5 28.5t129.5 -28.5t85.5 -70.5t48.5 -100.5t24 -107t5.5 -102.5q0 -44 -4 -84.5t-14.5 -90t-31.5 -89t-52 -74t-80 -53.5t-111 -19zM68 1143
q0 -71 10 -137.5t38 -137.5t72 -122.5t118 -85t169 -33.5t169.5 33.5t118 85t72 122.5t38.5 137.5t10 137.5t-10 137.5t-38.5 137.5t-72 122.5t-118 85t-169.5 33.5t-169 -33.5t-118 -85t-72 -122.5t-38 -137.5t-10 -137.5zM317 870v564h146q188 0 188 -166
q0 -43 -24.5 -82.5t-77.5 -59.5q100 -34 100 -145v-51q0 -50 8 -60h-116q-11 14 -11 60v51q0 52 -15 71t-52 19h-27v-201h-119zM436 1182h27q40 0 54.5 16.5t14.5 56.5q0 42 -17.5 56t-51.5 14h-27v-143z" />
    <glyph glyph-name="macron" unicode="&#xaf;" horiz-adv-x="993" 
d="M205 1528v82h583v-82h-583z" />
    <glyph glyph-name="degree" unicode="&#xb0;" horiz-adv-x="616" 
d="M307 1137q-147 0 -147 215t147 215q148 0 148 -215t-148 -215zM57 1352q0 -61 13.5 -114t41.5 -98t78 -70.5t117 -25.5t117 25.5t78 70.5t41.5 98t13.5 114t-13.5 114t-41.5 97.5t-78 70t-117 25.5t-117 -25.5t-78 -70t-41.5 -97.5t-13.5 -114z" />
    <glyph glyph-name="plusminus" unicode="&#xb1;" horiz-adv-x="948" 
d="M524 1231v-371h369v-92h-369v-287h369v-92h-840v92h369v287h-369v92h369v371h102z" />
    <glyph glyph-name="uni00B2" unicode="&#xb2;" horiz-adv-x="454" 
d="M43 793q0 88 25.5 150t97.5 136l74 74q42 42 60.5 85t18.5 101v13q0 68 -23 92t-67 24q-42 0 -64 -24.5t-22 -93.5v-62h-94v51q0 203 180 203q183 0 183 -207q0 -58 -19.5 -109t-39 -76.5t-52.5 -59.5l-78 -78q-53 -53 -69.5 -93.5t-16.5 -132.5h273v-73h-367v80z" />
    <glyph glyph-name="uni00B3" unicode="&#xb3;" horiz-adv-x="464" 
d="M229 702q-184 0 -184 205v54h92v-62q0 -72 23 -97.5t67 -25.5q48 0 71.5 28.5t23.5 96.5v70q0 40 -9.5 68.5t-25 41t-29 17t-27.5 4.5h-67v74h67q34 0 62.5 24.5t28.5 87.5v60q0 70 -25.5 95t-67.5 25q-45 0 -68.5 -24.5t-23.5 -93.5v-56h-92v47q0 201 184 201
q97 0 141 -58.5t44 -140.5v-34q0 -62 -27 -106.5t-76 -59.5q103 -39 103 -189v-41q0 -96 -43.5 -153.5t-141.5 -57.5z" />
    <glyph glyph-name="acute" unicode="&#xb4;" horiz-adv-x="993" 
d="M225 1454l-20 78l563 151l20 -79z" />
    <glyph glyph-name="paragraph" unicode="&#xb6;" horiz-adv-x="733" 
d="M522 1638h103v-1638h-103v1638zM45 1282q0 113 16 184t52.5 108.5t83 50.5t120.5 13h103v-1638h-103v926q-74 0 -120.5 13t-83 50.5t-52.5 108.5t-16 184z" />
    <glyph glyph-name="periodcentered" unicode="&#xb7;" horiz-adv-x="344" 
d="M172 586q-48 0 -80.5 31t-32.5 81t32.5 81.5t80.5 31.5q46 0 79.5 -32t33.5 -81t-33.5 -80.5t-79.5 -31.5z" />
    <glyph glyph-name="cedilla" unicode="&#xb8;" horiz-adv-x="780" 
d="M207 -342q147 0 205.5 15.5t58.5 66.5q0 52 -56.5 62t-166.5 -9l49 207h88l-35 -135q225 32 225 -125q0 -57 -33 -91.5t-115.5 -53.5t-221.5 -19z" />
    <glyph glyph-name="uni00B9" unicode="&#xb9;" horiz-adv-x="391" 
d="M41 786h117v629q-37 -57 -121 -57v80q88 0 127 94h82v-746h119v-73h-324v73z" />
    <glyph glyph-name="ordmasculine" unicode="&#xba;" horiz-adv-x="557" 
d="M279 836q-205 0 -205 251v320q0 252 205 252q206 0 206 -252v-320q0 -251 -206 -251zM168 1077q0 -93 29 -128.5t82 -35.5q52 0 80 36t28 128v340q0 92 -28 128t-80 36q-53 0 -82 -35.5t-29 -128.5v-340z" />
    <glyph glyph-name="guillemotright" unicode="&#xbb;" horiz-adv-x="706" 
d="M348 307v125l227 244l-227 244v124l305 -327v-82zM78 307v125l227 244l-227 244v124l305 -327v-82z" />
    <glyph glyph-name="onequarter" unicode="&#xbc;" horiz-adv-x="1214" 
d="M51 893h117v629q-38 -58 -121 -58v80q88 0 127 94h82v-745h119v-74h-324v74zM317 0l496 1638h86l-496 -1638h-86zM801 168v80l233 571h86v-577h56v-74h-56v-168h-90v168h-229zM870 242h160v405z" />
    <glyph glyph-name="onehalf" unicode="&#xbd;" horiz-adv-x="1286" 
d="M51 893h117v629q-38 -58 -121 -58v80q88 0 127 94h82v-745h119v-74h-324v74zM317 0l496 1638h86l-496 -1638h-86zM854 0v80q0 89 25.5 151t97.5 136l74 73q79 79 79 187v12q0 68 -23.5 92.5t-66.5 24.5q-42 0 -64 -25t-22 -94v-62h-94v52q0 202 180 202q183 0 183 -206
q0 -58 -19.5 -109t-39.5 -77t-52 -60l-78 -78q-53 -53 -69.5 -93t-16.5 -132h273v-74h-367z" />
    <glyph glyph-name="threequarters" unicode="&#xbe;" horiz-adv-x="1288" 
d="M244 809q-185 0 -185 205v53h93v-61q0 -72 23 -97.5t67 -25.5q48 0 71 28.5t23 96.5v69q0 40 -9.5 68.5t-24.5 41t-28.5 17t-27.5 4.5h-68v74h68q33 0 61.5 25t28.5 88v59q0 70 -25 95.5t-67 25.5q-45 0 -68.5 -25t-23.5 -94v-55h-93v47q0 201 185 201q97 0 140.5 -58.5
t43.5 -140.5v-35q0 -63 -26.5 -107t-75.5 -59q102 -38 102 -188v-41q0 -211 -184 -211zM391 0l496 1638h84l-496 -1638h-84zM874 168v80l234 571h86v-577h55v-74h-55v-168h-90v168h-230zM944 242h160v405z" />
    <glyph glyph-name="questiondown" unicode="&#xbf;" horiz-adv-x="747" 
d="M367 -328q-162 0 -243 93t-81 245q0 89 28 166.5t67.5 137.5t79 123t67.5 151.5t28 193.5v37h115v-39q0 -90 -19.5 -170t-49 -135.5t-63.5 -114t-63.5 -107.5t-49 -115t-19.5 -136q0 -233 207 -233q105 0 159 69.5t54 218.5v105h121v-96q0 -83 -18 -152t-56.5 -124.5
t-105.5 -86.5t-158 -31zM256 1239q0 49 33.5 81t79.5 32q48 0 80 -31.5t32 -81.5t-32 -81.5t-80 -31.5q-46 0 -79.5 32t-33.5 81z" />
    <glyph glyph-name="Agrave" unicode="&#xc0;" horiz-adv-x="788" 
d="M39 0l266 1638h178l267 -1638h-125l-58 375h-346l-57 -375h-125zM102 1911l21 80l563 -152l-20 -78zM236 475h315l-158 1026z" />
    <glyph glyph-name="Aacute" unicode="&#xc1;" horiz-adv-x="788" 
d="M39 0l266 1638h178l267 -1638h-125l-58 375h-346l-57 -375h-125zM102 1839l564 152l20 -80l-563 -150zM236 475h315l-158 1026z" />
    <glyph glyph-name="Acircumflex" unicode="&#xc2;" horiz-adv-x="788" 
d="M39 0l266 1638h178l267 -1638h-125l-58 375h-346l-57 -375h-125zM102 1761l224 230h143l217 -230h-133l-156 168l-161 -168h-134zM236 475h315l-158 1026z" />
    <glyph glyph-name="Atilde" unicode="&#xc3;" horiz-adv-x="788" 
d="M39 0l266 1638h178l267 -1638h-125l-58 375h-346l-57 -375h-125zM102 1786q0 205 164 205q44 0 77.5 -15t53.5 -37t37 -44t37.5 -37t44.5 -15q68 0 68 123h102q0 -205 -164 -205q-44 0 -77.5 15t-53.5 37t-37 44t-37.5 37t-44.5 15q-67 0 -67 -123h-103zM236 475h315
l-158 1026z" />
    <glyph glyph-name="Adieresis" unicode="&#xc4;" horiz-adv-x="788" 
d="M39 0l266 1638h178l267 -1638h-125l-58 375h-346l-57 -375h-125zM147 1872q0 40 24.5 63t61.5 23t63 -23t26 -63q0 -37 -26 -60.5t-63 -23.5q-36 0 -61 23.5t-25 60.5zM236 475h315l-158 1026zM469 1872q0 40 24.5 63t61.5 23t62.5 -23t25.5 -63q0 -37 -26 -60.5
t-62 -23.5t-61 23.5t-25 60.5z" />
    <glyph glyph-name="Aring" unicode="&#xc5;" horiz-adv-x="788" 
d="M39 0l266 1638h178l267 -1638h-125l-58 375h-346l-57 -375h-125zM229 1896q0 71 49.5 118.5t116.5 47.5t116.5 -47.5t49.5 -118.5t-49 -118t-117 -47t-117 47t-49 118zM236 475h315l-158 1026zM305 1896q0 -40 24.5 -65t65.5 -25t65.5 25t24.5 65t-24.5 65.5t-65.5 25.5
t-65.5 -25.5t-24.5 -65.5z" />
    <glyph glyph-name="AE" unicode="&#xc6;" horiz-adv-x="1001" 
d="M31 0l305 1638h604v-100h-334v-668h314v-102h-314v-668h334v-100h-457v381h-258l-69 -381h-125zM244 483h239v1055h-49z" />
    <glyph glyph-name="Ccedilla" unicode="&#xc7;" horiz-adv-x="876" 
d="M309 -342q147 0 205.5 15.5t58.5 66.5q0 52 -56.5 62t-166.5 -9l45 189q-305 27 -305 413v852q0 412 354 412q353 0 353 -412v-276h-125v284q0 89 -16 150t-48 94t-71 46.5t-93 13.5q-113 0 -171 -66t-58 -238v-868q0 -91 16 -152.5t47.5 -94.5t71 -46.5t94.5 -13.5
q54 0 93 13.5t71 46.5t48 95t16 152v281h125v-273q0 -394 -314 -413l-30 -117q225 32 225 -125q0 -85 -83 -124.5t-288 -39.5z" />
    <glyph glyph-name="Egrave" unicode="&#xc8;" horiz-adv-x="741" 
d="M106 0v1638h574v-100h-449v-668h433v-102h-433v-668h449v-100h-574zM102 1911l21 80l563 -152l-20 -78z" />
    <glyph glyph-name="Eacute" unicode="&#xc9;" horiz-adv-x="741" 
d="M106 0v1638h574v-100h-449v-668h433v-102h-433v-668h449v-100h-574zM102 1839l564 152l20 -80l-563 -150z" />
    <glyph glyph-name="Ecircumflex" unicode="&#xca;" horiz-adv-x="741" 
d="M106 0v1638h574v-100h-449v-668h433v-102h-433v-668h449v-100h-574zM102 1761l224 230h143l217 -230h-133l-156 168l-161 -168h-134z" />
    <glyph glyph-name="Edieresis" unicode="&#xcb;" horiz-adv-x="741" 
d="M106 0v1638h574v-100h-449v-668h433v-102h-433v-668h449v-100h-574zM147 1872q0 40 24.5 63t61.5 23t63 -23t26 -63q0 -37 -26 -60.5t-63 -23.5q-36 0 -61 23.5t-25 60.5zM469 1872q0 40 24.5 63t61.5 23t62.5 -23t25.5 -63q0 -37 -26 -60.5t-62 -23.5t-61 23.5t-25 60.5
z" />
    <glyph glyph-name="Igrave" unicode="&#xcc;" horiz-adv-x="337" 
d="M106 0v1638h125v-1638h-125zM-125 1911l21 80l563 -152l-21 -78z" />
    <glyph glyph-name="Iacute" unicode="&#xcd;" horiz-adv-x="337" 
d="M106 0v1638h125v-1638h-125zM-125 1839l563 152l21 -80l-563 -150z" />
    <glyph glyph-name="Icircumflex" unicode="&#xce;" horiz-adv-x="337" 
d="M106 0v1638h125v-1638h-125zM-125 1761l223 230h144l217 -230h-133l-156 168l-162 -168h-133z" />
    <glyph glyph-name="Idieresis" unicode="&#xcf;" horiz-adv-x="337" 
d="M106 0v1638h125v-1638h-125zM-80 1872q0 40 24.5 63t61.5 23t62.5 -23t25.5 -63q0 -37 -26 -60.5t-62 -23.5t-61 23.5t-25 60.5zM242 1872q0 40 24.5 63t61.5 23t62.5 -23t25.5 -63q0 -37 -26 -60.5t-62 -23.5t-61 23.5t-25 60.5z" />
    <glyph glyph-name="Eth" unicode="&#xd0;" horiz-adv-x="962" 
d="M164 0v795h-131v86h131v757h278q73 0 126 -6t105 -22t86 -46t61 -77t39.5 -116t12.5 -161v-782q0 -92 -12.5 -161t-39.5 -116t-61 -77t-86 -46t-105 -22t-126 -6h-278zM289 98h153q61 0 102.5 4.5t78.5 17t58.5 34.5t37.5 58.5t22.5 87t6.5 122.5v795q0 72 -6.5 122.5
t-22.5 87t-37.5 58.5t-58.5 34.5t-78 16.5t-103 4h-153v-659h225v-86h-225v-697z" />
    <glyph glyph-name="Ntilde" unicode="&#xd1;" horiz-adv-x="921" 
d="M106 0v1638h121l469 -1327v1327h119v-1638h-123l-469 1329v-1329h-117zM168 1786q0 205 164 205q44 0 77.5 -15t53.5 -37t37 -44t37.5 -37t44.5 -15q67 0 67 123h103q0 -205 -164 -205q-44 0 -77.5 15t-53.5 37t-37 44t-37.5 37t-44.5 15q-68 0 -68 -123h-102z" />
    <glyph glyph-name="Ograve" unicode="&#xd2;" horiz-adv-x="886" 
d="M444 -20q-354 0 -354 411v856q0 412 354 412q353 0 353 -412v-856q0 -411 -353 -411zM152 1911l20 80l563 -152l-20 -78zM215 387q0 -89 16 -150t47.5 -93.5t71 -46t94.5 -13.5q54 0 93 13.5t71 46t48 93.5t16 150v864q0 89 -16 150t-48 93.5t-71 46t-93 13.5
q-55 0 -94.5 -13.5t-71 -46t-47.5 -93.5t-16 -150v-864z" />
    <glyph glyph-name="Oacute" unicode="&#xd3;" horiz-adv-x="886" 
d="M444 -20q-354 0 -354 411v856q0 412 354 412q353 0 353 -412v-856q0 -411 -353 -411zM152 1839l563 152l20 -80l-563 -150zM215 387q0 -89 16 -150t47.5 -93.5t71 -46t94.5 -13.5q54 0 93 13.5t71 46t48 93.5t16 150v864q0 89 -16 150t-48 93.5t-71 46t-93 13.5
q-55 0 -94.5 -13.5t-71 -46t-47.5 -93.5t-16 -150v-864z" />
    <glyph glyph-name="Ocircumflex" unicode="&#xd4;" horiz-adv-x="886" 
d="M444 -20q-354 0 -354 411v856q0 412 354 412q353 0 353 -412v-856q0 -411 -353 -411zM152 1761l223 230h143l217 -230h-133l-156 168l-161 -168h-133zM215 387q0 -89 16 -150t47.5 -93.5t71 -46t94.5 -13.5q54 0 93 13.5t71 46t48 93.5t16 150v864q0 89 -16 150t-48 93.5
t-71 46t-93 13.5q-55 0 -94.5 -13.5t-71 -46t-47.5 -93.5t-16 -150v-864z" />
    <glyph glyph-name="Otilde" unicode="&#xd5;" horiz-adv-x="886" 
d="M444 -20q-354 0 -354 411v856q0 412 354 412q353 0 353 -412v-856q0 -411 -353 -411zM152 1786q0 205 163 205q44 0 77.5 -15t53.5 -37t37 -44t37.5 -37t44.5 -15q68 0 68 123h102q0 -205 -164 -205q-44 0 -77.5 15t-53.5 37t-36.5 44t-37 37t-44.5 15q-68 0 -68 -123
h-102zM215 387q0 -89 16 -150t47.5 -93.5t71 -46t94.5 -13.5q54 0 93 13.5t71 46t48 93.5t16 150v864q0 89 -16 150t-48 93.5t-71 46t-93 13.5q-55 0 -94.5 -13.5t-71 -46t-47.5 -93.5t-16 -150v-864z" />
    <glyph glyph-name="Odieresis" unicode="&#xd6;" horiz-adv-x="886" 
d="M444 -20q-354 0 -354 411v856q0 412 354 412q353 0 353 -412v-856q0 -411 -353 -411zM195 1872q0 40 24.5 63t61.5 23t62.5 -23t25.5 -63q0 -37 -26 -60.5t-62 -23.5t-61 23.5t-25 60.5zM215 387q0 -89 16 -150t47.5 -93.5t71 -46t94.5 -13.5q54 0 93 13.5t71 46t48 93.5
t16 150v864q0 89 -16 150t-48 93.5t-71 46t-93 13.5q-55 0 -94.5 -13.5t-71 -46t-47.5 -93.5t-16 -150v-864zM516 1872q0 40 24.5 63t61.5 23t62.5 -23t25.5 -63q0 -37 -26 -60.5t-62 -23.5t-61 23.5t-25 60.5z" />
    <glyph glyph-name="multiply" unicode="&#xd7;" horiz-adv-x="782" 
d="M125 1139l264 -265l266 267l62 -62l-266 -266l268 -268l-62 -62l-268 269l-266 -267l-62 62l267 266l-265 264z" />
    <glyph glyph-name="Oslash" unicode="&#xd8;" horiz-adv-x="886" 
d="M444 -20q-144 0 -227 65l-22 -65h-91l50 137q-64 102 -64 274v856q0 412 354 412q141 0 226 -66l24 68h90l-49 -141q62 -101 62 -273v-856q0 -411 -353 -411zM215 387q0 -34 4 -80l408 1161q-51 86 -183 86q-55 0 -94.5 -13.5t-71 -46t-47.5 -93.5t-16 -150v-864z
M260 168q55 -84 184 -84q54 0 93 13.5t71 46t48 93.5t16 150v864q0 32 -4 78z" />
    <glyph glyph-name="Ugrave" unicode="&#xd9;" horiz-adv-x="911" 
d="M455 -20q-353 0 -353 415v1243h125v-1251q0 -90 16 -152t48 -95t71 -46.5t93 -13.5q55 0 94.5 13.5t71 46.5t47.5 94.5t16 152.5v1251h125v-1243q0 -199 -83.5 -307t-270.5 -108zM162 1911l20 80l563 -152l-20 -78z" />
    <glyph glyph-name="Uacute" unicode="&#xda;" horiz-adv-x="911" 
d="M455 -20q-353 0 -353 415v1243h125v-1251q0 -90 16 -152t48 -95t71 -46.5t93 -13.5q55 0 94.5 13.5t71 46.5t47.5 94.5t16 152.5v1251h125v-1243q0 -199 -83.5 -307t-270.5 -108zM162 1839l563 152l20 -80l-563 -150z" />
    <glyph glyph-name="Ucircumflex" unicode="&#xdb;" horiz-adv-x="911" 
d="M455 -20q-353 0 -353 415v1243h125v-1251q0 -90 16 -152t48 -95t71 -46.5t93 -13.5q55 0 94.5 13.5t71 46.5t47.5 94.5t16 152.5v1251h125v-1243q0 -199 -83.5 -307t-270.5 -108zM162 1761l223 230h143l217 -230h-133l-155 168l-162 -168h-133z" />
    <glyph glyph-name="Udieresis" unicode="&#xdc;" horiz-adv-x="911" 
d="M455 -20q-353 0 -353 415v1243h125v-1251q0 -90 16 -152t48 -95t71 -46.5t93 -13.5q55 0 94.5 13.5t71 46.5t47.5 94.5t16 152.5v1251h125v-1243q0 -199 -83.5 -307t-270.5 -108zM207 1872q0 40 24.5 63t61.5 23t62.5 -23t25.5 -63q0 -37 -26 -60.5t-62 -23.5t-61 23.5
t-25 60.5zM528 1872q0 40 24.5 63t61.5 23t62.5 -23t25.5 -63q0 -37 -26 -60.5t-62 -23.5t-61 23.5t-25 60.5z" />
    <glyph glyph-name="Yacute" unicode="&#xdd;" horiz-adv-x="776" 
d="M326 0v573l-299 1065h129l231 -895l231 895h130l-297 -1065v-573h-125zM94 1839l565 152l21 -80l-565 -150z" />
    <glyph glyph-name="Thorn" unicode="&#xde;" horiz-adv-x="880" 
d="M106 0v1638h121v-303h170q229 0 322.5 -109t93.5 -360v-69q0 -254 -94.5 -371t-321.5 -117h-170v-309h-121zM227 412h174q158 0 222.5 82.5t64.5 291.5v91q0 142 -29 219t-89 107t-169 30h-174v-821z" />
    <glyph glyph-name="germandbls" unicode="&#xdf;" 
d="M106 0v1257q0 197 77 299.5t251 102.5q171 0 249.5 -97.5t78.5 -267.5v-102q0 -239 -180 -336q108 -47 164.5 -136.5t56.5 -240.5v-53q0 -426 -350 -426h-144v96h140q120 0 176.5 76t56.5 254v61q0 63 -12.5 115.5t-41 99.5t-83.5 74t-133 27h-103v98h101q123 0 179 68
t56 215v110q0 80 -15.5 134.5t-46 83t-66 40t-83.5 11.5q-38 0 -67 -6.5t-57 -25.5t-45.5 -52t-28.5 -88t-11 -131v-1260h-119z" />
    <glyph glyph-name="agrave" unicode="&#xe0;" horiz-adv-x="835" 
d="M616 0v190q-72 -210 -276 -210q-132 0 -208.5 81t-76.5 236q0 71 20 132.5t56 109t73.5 82t86.5 67.5l74 49q110 75 145 106q103 93 104 197v21q0 194 -186 194q-104 0 -165.5 -66t-61.5 -202v-84h-121v80q0 55 10 105.5t35 99.5t63 84.5t99 57.5t139 22q309 0 309 -322
v-1030h-119zM125 1604l20 79l564 -151l-21 -78zM176 301q0 -100 46.5 -161.5t142.5 -61.5q119 0 184 121t65 327v316q-4 -14 -11.5 -28.5t-15 -25.5t-22.5 -25.5t-23 -22.5t-28.5 -23t-27.5 -20t-30.5 -21t-27.5 -19l-80 -55q-172 -125 -172 -301z" />
    <glyph glyph-name="aacute" unicode="&#xe1;" horiz-adv-x="835" 
d="M616 0v190q-72 -210 -276 -210q-132 0 -208.5 81t-76.5 236q0 71 20 132.5t56 109t73.5 82t86.5 67.5l74 49q110 75 145 106q103 93 104 197v21q0 194 -186 194q-104 0 -165.5 -66t-61.5 -202v-84h-121v80q0 55 10 105.5t35 99.5t63 84.5t99 57.5t139 22q309 0 309 -322
v-1030h-119zM125 1532l563 151l21 -79l-564 -150zM176 301q0 -100 46.5 -161.5t142.5 -61.5q119 0 184 121t65 327v316q-4 -14 -11.5 -28.5t-15 -25.5t-22.5 -25.5t-23 -22.5t-28.5 -23t-27.5 -20t-30.5 -21t-27.5 -19l-80 -55q-172 -125 -172 -301z" />
    <glyph glyph-name="acircumflex" unicode="&#xe2;" horiz-adv-x="835" 
d="M616 0v190q-72 -210 -276 -210q-132 0 -208.5 81t-76.5 236q0 71 20 132.5t56 109t73.5 82t86.5 67.5l74 49q110 75 145 106q103 93 104 197v21q0 194 -186 194q-104 0 -165.5 -66t-61.5 -202v-84h-121v80q0 55 10 105.5t35 99.5t63 84.5t99 57.5t139 22q309 0 309 -322
v-1030h-119zM125 1454l223 229h144l217 -229h-134l-155 168l-162 -168h-133zM176 301q0 -100 46.5 -161.5t142.5 -61.5q119 0 184 121t65 327v316q-4 -14 -11.5 -28.5t-15 -25.5t-22.5 -25.5t-23 -22.5t-28.5 -23t-27.5 -20t-30.5 -21t-27.5 -19l-80 -55
q-172 -125 -172 -301z" />
    <glyph glyph-name="atilde" unicode="&#xe3;" horiz-adv-x="835" 
d="M616 0v190q-72 -210 -276 -210q-132 0 -208.5 81t-76.5 236q0 71 20 132.5t56 109t73.5 82t86.5 67.5l74 49q110 75 145 106q103 93 104 197v21q0 194 -186 194q-104 0 -165.5 -66t-61.5 -202v-84h-121v80q0 55 10 105.5t35 99.5t63 84.5t99 57.5t139 22q309 0 309 -322
v-1030h-119zM125 1479q0 204 164 204q44 0 77.5 -15t53.5 -36.5t37 -43.5t37.5 -37t44.5 -15q67 0 67 123h103q0 -205 -164 -205q-44 0 -77.5 15t-53.5 37t-37 44t-37.5 37t-44.5 15q-68 0 -68 -123h-102zM176 301q0 -100 46.5 -161.5t142.5 -61.5q119 0 184 121t65 327v316
q-4 -14 -11.5 -28.5t-15 -25.5t-22.5 -25.5t-23 -22.5t-28.5 -23t-27.5 -20t-30.5 -21t-27.5 -19l-80 -55q-172 -125 -172 -301z" />
    <glyph glyph-name="adieresis" unicode="&#xe4;" horiz-adv-x="835" 
d="M616 0v190q-72 -210 -276 -210q-132 0 -208.5 81t-76.5 236q0 71 20 132.5t56 109t73.5 82t86.5 67.5l74 49q110 75 145 106q103 93 104 197v21q0 194 -186 194q-104 0 -165.5 -66t-61.5 -202v-84h-121v80q0 55 10 105.5t35 99.5t63 84.5t99 57.5t139 22q309 0 309 -322
v-1030h-119zM168 1565q0 40 24.5 63t61.5 23t62.5 -23t25.5 -63q0 -37 -26 -60.5t-62 -23.5t-61 23.5t-25 60.5zM176 301q0 -100 46.5 -161.5t142.5 -61.5q119 0 184 121t65 327v316q-4 -14 -11.5 -28.5t-15 -25.5t-22.5 -25.5t-23 -22.5t-28.5 -23t-27.5 -20t-30.5 -21
t-27.5 -19l-80 -55q-172 -125 -172 -301zM489 1565q0 40 24.5 63t61.5 23t63 -23t26 -63q0 -37 -26 -60.5t-63 -23.5q-36 0 -61 23.5t-25 60.5z" />
    <glyph glyph-name="aring" unicode="&#xe5;" horiz-adv-x="835" 
d="M616 0v190q-72 -210 -276 -210q-132 0 -208.5 81t-76.5 236q0 71 20 132.5t56 109t73.5 82t86.5 67.5l74 49q110 75 145 106q103 93 104 197v21q0 194 -186 194q-104 0 -165.5 -66t-61.5 -202v-84h-121v80q0 55 10 105.5t35 99.5t63 84.5t99 57.5t139 22q309 0 309 -322
v-1030h-119zM176 301q0 -100 46.5 -161.5t142.5 -61.5q119 0 184 121t65 327v316q-4 -14 -11.5 -28.5t-15 -25.5t-22.5 -25.5t-23 -22.5t-28.5 -23t-27.5 -20t-30.5 -21t-27.5 -19l-80 -55q-172 -125 -172 -301zM252 1589q0 71 49.5 118.5t116.5 47.5t116.5 -47.5
t49.5 -118.5t-49.5 -118.5t-116.5 -47.5t-116.5 47.5t-49.5 118.5zM328 1589q0 -40 24.5 -65t65.5 -25t65.5 25t24.5 65t-24.5 65t-65.5 25t-65.5 -25t-24.5 -65z" />
    <glyph glyph-name="ae" unicode="&#xe6;" horiz-adv-x="1302" 
d="M350 -20q-141 0 -219 84t-78 243q0 56 10.5 104.5t33.5 89.5t47.5 72.5t66 65.5t74.5 57.5t86 57.5l51 30q81 52 124.5 113t43.5 154t-48.5 148.5t-135.5 55.5q-191 0 -191 -272v-61h-119v61q0 49 7.5 95.5t29.5 97.5t56 89t91.5 62.5t131.5 24.5q174 0 243 -138
q77 138 256 138q314 0 314 -410v-285h-520v-268q0 -92 15.5 -155.5t44.5 -97t63.5 -47t80.5 -13.5t79.5 14t60.5 47.5t41 96.5t14 155v35h121v-35q0 -196 -74 -302.5t-240 -106.5q-189 0 -268 159q-48 -82 -125.5 -120.5t-167.5 -38.5zM172 305q0 -46 10.5 -85.5t32.5 -72.5
t60.5 -52t89.5 -19q102 0 163.5 67t61.5 164v508q-7 -21 -31.5 -45t-40.5 -35.5t-65 -44.5l-82 -55q-58 -40 -98.5 -81t-70.5 -107t-30 -142zM705 752h399v190q0 92 -14 155t-41 96.5t-60.5 47.5t-79.5 14t-80.5 -13.5t-63.5 -47t-44.5 -97t-15.5 -155.5v-190z" />
    <glyph glyph-name="ccedilla" unicode="&#xe7;" horiz-adv-x="813" 
d="M621 948q0 91 -14 152.5t-42 94.5t-63 46.5t-84 13.5t-86 -13.5t-67 -46.5t-46 -95t-16 -152v-565q0 -90 16 -152t46 -95t67 -46.5t86 -13.5t84 13.5t63 46.5t42 94.5t14 152.5v139h120v-131q0 -185 -65 -290.5t-213 -118.5l-31 -117q225 32 225 -125q0 -57 -33 -91.5
t-115.5 -53.5t-221.5 -19l2 82q147 0 205.5 15.5t58.5 66.5q0 52 -56.5 62t-166.5 -9l45 189q-293 25 -293 409v551q0 410 334 410q90 0 153.5 -28.5t100.5 -84t54 -128.5t17 -169v-133h-120v139z" />
    <glyph glyph-name="egrave" unicode="&#xe8;" horiz-adv-x="819" 
d="M707 1532l-21 -78l-563 150l20 79zM82 391v551q0 410 334 410q90 0 153.5 -28.5t100.5 -84t54 -128.5t17 -169v-285h-538v-274q0 -90 16 -152t46 -95t67 -46.5t86 -13.5t84 13.5t63 46.5t42 94.5t14 152.5v41h120v-33q0 -199 -75 -305t-248 -106q-336 0 -336 411z
M203 752h418v196q0 91 -14 152.5t-42 94.5t-63 46.5t-84 13.5t-86 -13.5t-67 -46.5t-46 -95t-16 -152v-196z" />
    <glyph glyph-name="eacute" unicode="&#xe9;" horiz-adv-x="819" 
d="M143 1454l-20 78l563 151l21 -79zM82 391v551q0 410 334 410q90 0 153.5 -28.5t100.5 -84t54 -128.5t17 -169v-285h-538v-274q0 -90 16 -152t46 -95t67 -46.5t86 -13.5t84 13.5t63 46.5t42 94.5t14 152.5v41h120v-33q0 -199 -75 -305t-248 -106q-336 0 -336 411zM203 752
h418v196q0 91 -14 152.5t-42 94.5t-63 46.5t-84 13.5t-86 -13.5t-67 -46.5t-46 -95t-16 -152v-196z" />
    <glyph glyph-name="ecircumflex" unicode="&#xea;" horiz-adv-x="819" 
d="M123 1454l223 229h143l218 -229h-134l-155 168l-162 -168h-133zM82 391v551q0 410 334 410q90 0 153.5 -28.5t100.5 -84t54 -128.5t17 -169v-285h-538v-274q0 -90 16 -152t46 -95t67 -46.5t86 -13.5t84 13.5t63 46.5t42 94.5t14 152.5v41h120v-33q0 -199 -75 -305
t-248 -106q-336 0 -336 411zM203 752h418v196q0 91 -14 152.5t-42 94.5t-63 46.5t-84 13.5t-86 -13.5t-67 -46.5t-46 -95t-16 -152v-196z" />
    <glyph glyph-name="edieresis" unicode="&#xeb;" horiz-adv-x="819" 
d="M575 1481q-36 0 -61 23.5t-25 60.5q0 40 24.5 63t61.5 23t63 -23t26 -63q0 -37 -26 -60.5t-63 -23.5zM82 391v551q0 410 334 410q90 0 153.5 -28.5t100.5 -84t54 -128.5t17 -169v-285h-538v-274q0 -90 16 -152t46 -95t67 -46.5t86 -13.5t84 13.5t63 46.5t42 94.5
t14 152.5v41h120v-33q0 -199 -75 -305t-248 -106q-336 0 -336 411zM168 1565q0 40 24.5 63t61.5 23t62.5 -23t25.5 -63q0 -37 -26 -60.5t-62 -23.5t-61 23.5t-25 60.5zM203 752h418v196q0 91 -14 152.5t-42 94.5t-63 46.5t-84 13.5t-86 -13.5t-67 -46.5t-46 -95t-16 -152
v-196z" />
    <glyph glyph-name="igrave" unicode="&#xec;" horiz-adv-x="331" 
d="M106 1331h119v-1331h-119v1331zM-31 1610l33 73l360 -157l-34 -72z" />
    <glyph glyph-name="iacute" unicode="&#xed;" horiz-adv-x="331" 
d="M106 1331h119v-1331h-119v1331zM-33 1526l361 157l32 -73l-358 -156z" />
    <glyph glyph-name="icircumflex" unicode="&#xee;" horiz-adv-x="331" 
d="M106 1331h119v-1331h-119v1331zM-6 1454l106 229h131l105 -229h-109l-61 154l-66 -154h-106z" />
    <glyph glyph-name="idieresis" unicode="&#xef;" horiz-adv-x="331" 
d="M106 1331h119v-1331h-119v1331zM-41 1565q0 40 24.5 63t59.5 23q34 0 59 -23.5t25 -62.5q0 -34 -25.5 -58t-58.5 -24q-34 0 -59 23.5t-25 58.5zM221 1565q0 40 24.5 63t59.5 23t59.5 -23t24.5 -63q0 -35 -25 -58.5t-59 -23.5t-59 23.5t-25 58.5z" />
    <glyph glyph-name="eth" unicode="&#xf0;" horiz-adv-x="811" 
d="M408 -20q-340 0 -340 428v202q0 184 79.5 298t239.5 114q140 0 205 -109q-50 255 -189 428l-288 -186v105l229 145q-90 90 -215 160l41 94q154 -80 270 -193l260 166v-102l-200 -129q235 -283 235 -801v-180q0 -232 -82 -336t-245 -104zM188 406q0 -185 53.5 -257.5
t164.5 -72.5q117 0 162.5 74.5t45.5 259.5v182q0 89 -14 154t-33.5 98.5t-49 53t-51.5 24t-50 4.5q-114 0 -171 -72t-57 -244v-204z" />
    <glyph glyph-name="ntilde" unicode="&#xf1;" 
d="M225 1331v-143q77 164 267 164q136 0 204 -90t68 -277v-985h-121v983q0 136 -41.5 204t-142.5 68q-62 0 -109 -27.5t-73 -72.5t-39 -96t-13 -105v-954h-119v1331h119zM141 1479q0 204 164 204q44 0 77.5 -15t53.5 -36.5t37 -43.5t37.5 -37t44.5 -15q68 0 68 123h102
q0 -205 -164 -205q-44 0 -77.5 15t-53.5 37t-37 44t-37.5 37t-44.5 15q-67 0 -67 -123h-103z" />
    <glyph glyph-name="ograve" unicode="&#xf2;" horiz-adv-x="823" 
d="M412 -20q-330 0 -330 411v551q0 410 330 410q329 0 329 -410v-551q0 -411 -329 -411zM119 1604l20 79l563 -151l-20 -78zM203 383q0 -173 55 -240t154 -67t154 67t55 240v565q0 173 -55 240t-154 67t-154 -67t-55 -240v-565z" />
    <glyph glyph-name="oacute" unicode="&#xf3;" horiz-adv-x="823" 
d="M412 -20q-330 0 -330 411v551q0 410 330 410q329 0 329 -410v-551q0 -411 -329 -411zM119 1532l563 151l20 -79l-563 -150zM203 383q0 -173 55 -240t154 -67t154 67t55 240v565q0 173 -55 240t-154 67t-154 -67t-55 -240v-565z" />
    <glyph glyph-name="ocircumflex" unicode="&#xf4;" horiz-adv-x="823" 
d="M412 -20q-330 0 -330 411v551q0 410 330 410q329 0 329 -410v-551q0 -411 -329 -411zM119 1454l223 229h143l217 -229h-133l-155 168l-162 -168h-133zM203 383q0 -173 55 -240t154 -67t154 67t55 240v565q0 173 -55 240t-154 67t-154 -67t-55 -240v-565z" />
    <glyph glyph-name="otilde" unicode="&#xf5;" horiz-adv-x="823" 
d="M412 -20q-330 0 -330 411v551q0 410 330 410q329 0 329 -410v-551q0 -411 -329 -411zM119 1479q0 204 164 204q37 0 67 -11t48 -27t35 -35.5t29.5 -35.5t30.5 -27t39 -11q68 0 68 123h102q0 -205 -163 -205q-44 0 -77.5 15t-53.5 37t-37 44t-37.5 37t-44.5 15
q-68 0 -68 -123h-102zM203 383q0 -173 55 -240t154 -67t154 67t55 240v565q0 173 -55 240t-154 67t-154 -67t-55 -240v-565z" />
    <glyph glyph-name="odieresis" unicode="&#xf6;" horiz-adv-x="823" 
d="M412 -20q-330 0 -330 411v551q0 410 330 410q329 0 329 -410v-551q0 -411 -329 -411zM164 1565q0 40 24.5 63t61.5 23t62.5 -23t25.5 -63q0 -37 -26 -60.5t-62 -23.5t-61 23.5t-25 60.5zM203 383q0 -173 55 -240t154 -67t154 67t55 240v565q0 173 -55 240t-154 67
t-154 -67t-55 -240v-565zM485 1565q0 40 24.5 63t61.5 23t62.5 -23t25.5 -63q0 -37 -26 -60.5t-62 -23.5t-61 23.5t-25 60.5z" />
    <glyph glyph-name="divide" unicode="&#xf7;" horiz-adv-x="948" 
d="M473 987q-26 0 -43.5 18t-17.5 44q0 25 17.5 43t43.5 18q25 0 43.5 -18t18.5 -43q0 -26 -18.5 -44t-43.5 -18zM55 770v86h840v-86h-840zM412 578q0 25 17.5 43t43.5 18q25 0 43.5 -18t18.5 -43q0 -26 -18.5 -44t-43.5 -18q-26 0 -43.5 18t-17.5 44z" />
    <glyph glyph-name="oslash" unicode="&#xf8;" horiz-adv-x="823" 
d="M412 -20q-111 0 -181 43l-67 -197h-84l88 254q-86 105 -86 311v551q0 410 330 410q107 0 180 -45l70 198h83l-88 -254q84 -103 84 -309v-551q0 -411 -329 -411zM203 383q0 -88 16 -154l336 971q-50 55 -143 55q-99 0 -154 -67t-55 -240v-565zM268 129q53 -53 144 -53
q99 0 154 67t55 240v565q0 82 -17 152z" />
    <glyph glyph-name="ugrave" unicode="&#xf9;" 
d="M639 0v147q-79 -167 -268 -167q-137 0 -205 89.5t-68 276.5v985h121v-983q0 -136 41.5 -204t142.5 -68q62 0 109 27.5t73 72.5t39 96t13 105l2 -53v1007h119v-1331h-119zM133 1604l21 79l563 -151l-21 -78z" />
    <glyph glyph-name="uacute" unicode="&#xfa;" 
d="M639 0v147q-79 -167 -268 -167q-137 0 -205 89.5t-68 276.5v985h121v-983q0 -136 41.5 -204t142.5 -68q62 0 109 27.5t73 72.5t39 96t13 105l2 -53v1007h119v-1331h-119zM133 1532l563 151l21 -79l-563 -150z" />
    <glyph glyph-name="ucircumflex" unicode="&#xfb;" 
d="M639 0v147q-79 -167 -268 -167q-137 0 -205 89.5t-68 276.5v985h121v-983q0 -136 41.5 -204t142.5 -68q62 0 109 27.5t73 72.5t39 96t13 105l2 -53v1007h119v-1331h-119zM133 1454l223 229h144l217 -229h-133l-156 168l-162 -168h-133z" />
    <glyph glyph-name="udieresis" unicode="&#xfc;" 
d="M639 0v147q-79 -167 -268 -167q-137 0 -205 89.5t-68 276.5v985h121v-983q0 -136 41.5 -204t142.5 -68q62 0 109 27.5t73 72.5t39 96t13 105l2 -53v1007h119v-1331h-119zM178 1565q0 40 24.5 63t61.5 23t62.5 -23t25.5 -63q0 -37 -26 -60.5t-62 -23.5t-61 23.5t-25 60.5z
M500 1565q0 40 24.5 63t61.5 23t62.5 -23t25.5 -63q0 -37 -26 -60.5t-62 -23.5t-61 23.5t-25 60.5z" />
    <glyph glyph-name="yacute" unicode="&#xfd;" horiz-adv-x="860" 
d="M637 -2v149q-79 -167 -268 -167q-137 0 -205 89.5t-68 276.5v985h121v-983q0 -136 41.5 -204t142.5 -68q62 0 109 27.5t73 72.5t39 96t13 105l2 -53v1007h119v-1333q0 -102 -16 -173t-54.5 -126t-109.5 -82t-177 -27h-260v97h246q79 0 128.5 17.5t76.5 58.5t37 95t10 140
zM127 1532l563 151l21 -79l-564 -150z" />
    <glyph glyph-name="thorn" unicode="&#xfe;" horiz-adv-x="849" 
d="M225 -410h-119v2048h119v-458q31 70 93 120t161 50q137 0 211 -97t74 -284v-613q0 -187 -76 -283t-211 -96q-171 0 -252 166v-553zM225 371q0 -53 13 -103t39 -94.5t71.5 -72t104.5 -27.5q104 0 147 74.5t43 213.5v603q0 139 -43 213.5t-147 74.5q-59 0 -104.5 -27.5
t-71.5 -72t-39 -94.5t-13 -103v-585z" />
    <glyph glyph-name="ydieresis" unicode="&#xff;" horiz-adv-x="860" 
d="M637 -2v149q-79 -167 -268 -167q-137 0 -205 89.5t-68 276.5v985h121v-983q0 -136 41.5 -204t142.5 -68q62 0 109 27.5t73 72.5t39 96t13 105l2 -53v1007h119v-1333q0 -102 -16 -173t-54.5 -126t-109.5 -82t-177 -27h-260v97h246q79 0 128.5 17.5t76.5 58.5t37 95t10 140
zM170 1565q0 40 24.5 63t61.5 23t62.5 -23t25.5 -63q0 -37 -26 -60.5t-62 -23.5t-61 23.5t-25 60.5zM492 1565q0 40 24.5 63t61.5 23t62.5 -23t25.5 -63q0 -37 -26 -60.5t-62 -23.5t-61 23.5t-25 60.5z" />
    <glyph glyph-name="Amacron" unicode="&#x100;" horiz-adv-x="788" 
d="M39 0l266 1638h178l267 -1638h-125l-58 375h-346l-57 -375h-125zM102 1835v82h584v-82h-584zM236 475h315l-158 1026z" />
    <glyph glyph-name="amacron" unicode="&#x101;" horiz-adv-x="835" 
d="M616 0v190q-72 -210 -276 -210q-132 0 -208.5 81t-76.5 236q0 71 20 132.5t56 109t73.5 82t86.5 67.5l74 49q110 75 145 106q103 93 104 197v21q0 194 -186 194q-104 0 -165.5 -66t-61.5 -202v-84h-121v80q0 55 10 105.5t35 99.5t63 84.5t99 57.5t139 22q309 0 309 -322
v-1030h-119zM125 1528v82h584v-82h-584zM176 301q0 -100 46.5 -161.5t142.5 -61.5q119 0 184 121t65 327v316q-4 -14 -11.5 -28.5t-15 -25.5t-22.5 -25.5t-23 -22.5t-28.5 -23t-27.5 -20t-30.5 -21t-27.5 -19l-80 -55q-172 -125 -172 -301z" />
    <glyph glyph-name="Abreve" unicode="&#x102;" horiz-adv-x="788" 
d="M39 0l266 1638h178l267 -1638h-125l-58 375h-346l-57 -375h-125zM102 1991h103q0 -41 19 -72t49 -46.5t61 -22.5t63 -7t62 7t59.5 22.5t47.5 46t18 72.5h102q0 -64 -24.5 -110.5t-67 -71.5t-91.5 -36.5t-106 -11.5t-107 11.5t-93.5 36.5t-69 71.5t-25.5 110.5zM236 475
h315l-158 1026z" />
    <glyph glyph-name="abreve" unicode="&#x103;" horiz-adv-x="835" 
d="M616 0v190q-72 -210 -276 -210q-132 0 -208.5 81t-76.5 236q0 71 20 132.5t56 109t73.5 82t86.5 67.5l74 49q110 75 145 106q103 93 104 197v21q0 194 -186 194q-104 0 -165.5 -66t-61.5 -202v-84h-121v80q0 55 10 105.5t35 99.5t63 84.5t99 57.5t139 22q309 0 309 -322
v-1030h-119zM125 1683h102q0 -41 19 -71.5t49.5 -46t61.5 -22.5t63 -7t62 7t59 22.5t47 45.5t18 72h103q0 -64 -24.5 -110.5t-67 -71.5t-91.5 -36t-106 -11q-58 0 -107.5 11t-93 36t-69 71.5t-25.5 110.5zM176 301q0 -100 46.5 -161.5t142.5 -61.5q119 0 184 121t65 327v316
q-4 -14 -11.5 -28.5t-15 -25.5t-22.5 -25.5t-23 -22.5t-28.5 -23t-27.5 -20t-30.5 -21t-27.5 -19l-80 -55q-172 -125 -172 -301z" />
    <glyph glyph-name="Aogonek" unicode="&#x104;" horiz-adv-x="788" 
d="M39 0l266 1638h178l267 -1638q-104 -36 -154.5 -83.5t-50.5 -115.5q0 -66 59.5 -96.5t190.5 -30.5h30l-82 -84h-28q-126 0 -199.5 47.5t-73.5 143.5q0 46 18.5 82t54 62t72 42.5t85.5 32.5h-47l-58 375h-346l-57 -375h-125zM236 475h315l-158 1026z" />
    <glyph glyph-name="aogonek" unicode="&#x105;" horiz-adv-x="835" 
d="M616 0v190q-72 -210 -276 -210q-132 0 -208.5 81t-76.5 236q0 71 20 132.5t56 109t73.5 82t86.5 67.5l74 49q110 75 145 106q103 93 104 197v21q0 194 -186 194q-104 0 -165.5 -66t-61.5 -202v-84h-121v80q0 55 10 105.5t35 99.5t63 84.5t99 57.5t139 22q309 0 309 -322
v-1030q-104 -36 -154.5 -83.5t-50.5 -115.5q0 -66 59.5 -96.5t190.5 -30.5h31l-82 -84h-29q-126 0 -199 47.5t-73 143.5q0 46 18.5 82t54 62t71.5 42.5t85 32.5h-41zM176 301q0 -100 46.5 -161.5t142.5 -61.5q119 0 184 121t65 327v316q-4 -14 -11.5 -28.5t-15 -25.5
t-22.5 -25.5t-23 -22.5t-28.5 -23t-27.5 -20t-30.5 -21t-27.5 -19l-80 -55q-172 -125 -172 -301z" />
    <glyph glyph-name="Cacute" unicode="&#x106;" horiz-adv-x="876" 
d="M444 -20q-354 0 -354 415v852q0 412 354 412q353 0 353 -412v-276h-125v284q0 89 -16 150t-48 94t-71 46.5t-93 13.5q-113 0 -171 -66t-58 -238v-868q0 -91 16 -152.5t47.5 -94.5t71 -46.5t94.5 -13.5q54 0 93 13.5t71 46.5t48 95t16 152v281h125v-273q0 -415 -353 -415z
M152 1839l563 152l20 -80l-563 -150z" />
    <glyph glyph-name="cacute" unicode="&#x107;" horiz-adv-x="813" 
d="M621 948q0 91 -14 152.5t-42 94.5t-63 46.5t-84 13.5t-86 -13.5t-67 -46.5t-46 -95t-16 -152v-565q0 -90 16 -152t46 -95t67 -46.5t86 -13.5t84 13.5t63 46.5t42 94.5t14 152.5v139h120v-131q0 -199 -75 -305t-248 -106q-336 0 -336 411v551q0 410 334 410
q90 0 153.5 -28.5t100.5 -84t54 -128.5t17 -169v-133h-120v139zM127 1532l563 151l21 -79l-564 -150z" />
    <glyph glyph-name="Ccircumflex" unicode="&#x108;" horiz-adv-x="876" 
d="M444 -20q-354 0 -354 415v852q0 412 354 412q353 0 353 -412v-276h-125v284q0 89 -16 150t-48 94t-71 46.5t-93 13.5q-113 0 -171 -66t-58 -238v-868q0 -91 16 -152.5t47.5 -94.5t71 -46.5t94.5 -13.5q54 0 93 13.5t71 46.5t48 95t16 152v281h125v-273q0 -415 -353 -415z
M152 1761l223 230h143l217 -230h-133l-156 168l-161 -168h-133z" />
    <glyph glyph-name="ccircumflex" unicode="&#x109;" horiz-adv-x="813" 
d="M621 948q0 91 -14 152.5t-42 94.5t-63 46.5t-84 13.5t-86 -13.5t-67 -46.5t-46 -95t-16 -152v-565q0 -90 16 -152t46 -95t67 -46.5t86 -13.5t84 13.5t63 46.5t42 94.5t14 152.5v139h120v-131q0 -199 -75 -305t-248 -106q-336 0 -336 411v551q0 410 334 410
q90 0 153.5 -28.5t100.5 -84t54 -128.5t17 -169v-133h-120v139zM127 1454l223 229h144l217 -229h-133l-156 168l-162 -168h-133z" />
    <glyph glyph-name="Cdotaccent" unicode="&#x10a;" horiz-adv-x="876" 
d="M444 -20q-354 0 -354 415v852q0 412 354 412q353 0 353 -412v-276h-125v284q0 89 -16 150t-48 94t-71 46.5t-93 13.5q-113 0 -171 -66t-58 -238v-868q0 -91 16 -152.5t47.5 -94.5t71 -46.5t94.5 -13.5q54 0 93 13.5t71 46.5t48 95t16 152v281h125v-273q0 -415 -353 -415z
M346 1866q0 39 28 67.5t70 28.5t69.5 -28.5t27.5 -67.5q0 -38 -27.5 -66t-69.5 -28t-70 28t-28 66z" />
    <glyph glyph-name="cdotaccent" unicode="&#x10b;" horiz-adv-x="813" 
d="M621 948q0 91 -14 152.5t-42 94.5t-63 46.5t-84 13.5t-86 -13.5t-67 -46.5t-46 -95t-16 -152v-565q0 -90 16 -152t46 -95t67 -46.5t86 -13.5t84 13.5t63 46.5t42 94.5t14 152.5v139h120v-131q0 -199 -75 -305t-248 -106q-336 0 -336 411v551q0 410 334 410
q90 0 153.5 -28.5t100.5 -84t54 -128.5t17 -169v-133h-120v139zM319 1563q0 40 28.5 68t72.5 28q43 0 70.5 -27.5t27.5 -68.5q0 -38 -27.5 -66.5t-70.5 -28.5t-72 28.5t-29 66.5z" />
    <glyph glyph-name="Ccaron" unicode="&#x10c;" horiz-adv-x="876" 
d="M444 -20q-354 0 -354 415v852q0 412 354 412q353 0 353 -412v-276h-125v284q0 89 -16 150t-48 94t-71 46.5t-93 13.5q-113 0 -171 -66t-58 -238v-868q0 -91 16 -152.5t47.5 -94.5t71 -46.5t94.5 -13.5q54 0 93 13.5t71 46.5t48 95t16 152v281h125v-273q0 -415 -353 -415z
M152 1991h133l161 -168l156 168h133l-217 -230h-143z" />
    <glyph glyph-name="ccaron" unicode="&#x10d;" horiz-adv-x="813" 
d="M621 948q0 91 -14 152.5t-42 94.5t-63 46.5t-84 13.5t-86 -13.5t-67 -46.5t-46 -95t-16 -152v-565q0 -90 16 -152t46 -95t67 -46.5t86 -13.5t84 13.5t63 46.5t42 94.5t14 152.5v139h120v-131q0 -199 -75 -305t-248 -106q-336 0 -336 411v551q0 410 334 410
q90 0 153.5 -28.5t100.5 -84t54 -128.5t17 -169v-133h-120v139zM127 1683h133l162 -167l156 167h133l-217 -229h-144z" />
    <glyph glyph-name="Dcaron" unicode="&#x10e;" horiz-adv-x="907" 
d="M106 0v1638h279q73 0 126 -6t105 -22t86 -46t61 -77t39.5 -116t12.5 -161v-782q0 -92 -12.5 -161t-39.5 -116t-61 -77t-86 -46t-105 -22t-126 -6h-279zM145 1991h134l161 -168l156 168h133l-217 -230h-143zM231 98h154q74 0 120.5 7t85 25.5t58.5 55.5t30.5 93.5
t10.5 142.5v795q0 72 -6.5 122.5t-22.5 87t-37.5 58t-58 34.5t-77.5 17t-103 4h-154v-1442z" />
    <glyph glyph-name="dcaron" unicode="&#x10f;" horiz-adv-x="929" 
d="M623 1638h120v-1638h-120v150q-31 -70 -93 -120t-161 -50q-137 0 -211 96.5t-74 283.5v613q0 187 76 283t211 96q171 0 252 -166v452zM205 365q0 -140 43 -214.5t147 -74.5q59 0 104.5 27.5t71.5 72t39 94.5t13 103v585q0 53 -13 103t-39 94.5t-71.5 72t-104.5 27.5
q-104 0 -147 -74.5t-43 -213.5v-602zM805 1169l41 469h100l-63 -469h-78z" />
    <glyph glyph-name="Dcroat" unicode="&#x110;" horiz-adv-x="962" 
d="M164 0v795h-131v86h131v757h278q73 0 126 -6t105 -22t86 -46t61 -77t39.5 -116t12.5 -161v-782q0 -92 -12.5 -161t-39.5 -116t-61 -77t-86 -46t-105 -22t-126 -6h-278zM289 98h153q61 0 102.5 4.5t78.5 17t58.5 34.5t37.5 58.5t22.5 87t6.5 122.5v795q0 72 -6.5 122.5
t-22.5 87t-37.5 58.5t-58.5 34.5t-78 16.5t-103 4h-153v-659h225v-86h-225v-697z" />
    <glyph glyph-name="dcroat" unicode="&#x111;" horiz-adv-x="849" 
d="M623 1638h120v-112h160v-84h-160v-1442h-120v150q-31 -70 -93 -120t-161 -50q-137 0 -211 96.5t-74 283.5v613q0 187 76 283t211 96q171 0 252 -166v256h-301v84h301v112zM205 365q0 -140 43 -214.5t147 -74.5q59 0 104.5 27.5t71.5 72t39 94.5t13 103v585q0 53 -13 103
t-39 94.5t-71.5 72t-104.5 27.5q-104 0 -147 -74.5t-43 -213.5v-602z" />
    <glyph glyph-name="Emacron" unicode="&#x112;" horiz-adv-x="741" 
d="M106 0v1638h574v-100h-449v-668h433v-102h-433v-668h449v-100h-574zM102 1835v82h584v-82h-584z" />
    <glyph glyph-name="emacron" unicode="&#x113;" horiz-adv-x="819" 
d="M123 1528v82h584v-82h-584zM82 391v551q0 410 334 410q90 0 153.5 -28.5t100.5 -84t54 -128.5t17 -169v-285h-538v-274q0 -90 16 -152t46 -95t67 -46.5t86 -13.5t84 13.5t63 46.5t42 94.5t14 152.5v41h120v-33q0 -199 -75 -305t-248 -106q-336 0 -336 411zM203 752h418
v196q0 91 -14 152.5t-42 94.5t-63 46.5t-84 13.5t-86 -13.5t-67 -46.5t-46 -95t-16 -152v-196z" />
    <glyph glyph-name="Edotaccent" unicode="&#x116;" horiz-adv-x="741" 
d="M106 0v1638h574v-100h-449v-668h433v-102h-433v-668h449v-100h-574zM299 1866q0 39 28 67.5t70 28.5t69.5 -28.5t27.5 -67.5q0 -38 -27.5 -66t-69.5 -28t-70 28t-28 66z" />
    <glyph glyph-name="edotaccent" unicode="&#x117;" horiz-adv-x="819" 
d="M416 1468q-43 0 -72 28.5t-29 66.5q0 40 28.5 68t72.5 28q43 0 70.5 -27.5t27.5 -68.5q0 -38 -27.5 -66.5t-70.5 -28.5zM82 391v551q0 410 334 410q90 0 153.5 -28.5t100.5 -84t54 -128.5t17 -169v-285h-538v-274q0 -90 16 -152t46 -95t67 -46.5t86 -13.5t84 13.5
t63 46.5t42 94.5t14 152.5v41h120v-33q0 -199 -75 -305t-248 -106q-336 0 -336 411zM203 752h418v196q0 91 -14 152.5t-42 94.5t-63 46.5t-84 13.5t-86 -13.5t-67 -46.5t-46 -95t-16 -152v-196z" />
    <glyph glyph-name="Eogonek" unicode="&#x118;" horiz-adv-x="741" 
d="M106 0v1638h574v-100h-449v-668h433v-102h-433v-668h449v-100q-104 -36 -154.5 -83.5t-50.5 -115.5q0 -66 59.5 -96.5t190.5 -30.5h31l-82 -84h-29q-126 0 -199 47.5t-73 143.5q0 46 18.5 82t54 62t71.5 42.5t85 32.5h-496z" />
    <glyph glyph-name="eogonek" unicode="&#x119;" horiz-adv-x="819" 
d="M514 -410q-126 0 -199 47.5t-73 143.5q0 130 172 199q-332 3 -332 411v551q0 410 334 410q90 0 153.5 -28.5t100.5 -84t54 -128.5t17 -169v-285h-538v-274q0 -90 16 -152t46 -95t67 -46.5t86 -13.5t84 13.5t63 46.5t42 94.5t14 152.5v41h120v-33q0 -326 -198 -393
q-101 -36 -150 -83.5t-49 -113.5t59.5 -96.5t190.5 -30.5h31l-82 -84h-29zM203 752h418v196q0 91 -14 152.5t-42 94.5t-63 46.5t-84 13.5t-86 -13.5t-67 -46.5t-46 -95t-16 -152v-196z" />
    <glyph glyph-name="Ecaron" unicode="&#x11a;" horiz-adv-x="741" 
d="M106 0v1638h574v-100h-449v-668h433v-102h-433v-668h449v-100h-574zM102 1991h134l161 -168l156 168h133l-217 -230h-143z" />
    <glyph glyph-name="ecaron" unicode="&#x11b;" horiz-adv-x="819" 
d="M346 1454l-223 229h133l162 -167l155 167h134l-218 -229h-143zM82 391v551q0 410 334 410q90 0 153.5 -28.5t100.5 -84t54 -128.5t17 -169v-285h-538v-274q0 -90 16 -152t46 -95t67 -46.5t86 -13.5t84 13.5t63 46.5t42 94.5t14 152.5v41h120v-33q0 -199 -75 -305
t-248 -106q-336 0 -336 411zM203 752h418v196q0 91 -14 152.5t-42 94.5t-63 46.5t-84 13.5t-86 -13.5t-67 -46.5t-46 -95t-16 -152v-196z" />
    <glyph glyph-name="Gcircumflex" unicode="&#x11c;" horiz-adv-x="884" 
d="M426 -20q-172 0 -254 109.5t-82 303.5v854q0 412 354 412q353 0 353 -412v-192h-125v200q0 89 -16 150t-48 94t-71 46.5t-93 13.5q-113 0 -171 -66t-58 -238v-868q0 -170 54 -238.5t177 -68.5q128 0 177 73.5t49 249.5v320h-228v98h353v-821h-88l-11 133
q-84 -153 -272 -153zM152 1761l223 230h143l217 -230h-133l-156 168l-161 -168h-133z" />
    <glyph glyph-name="gcircumflex" unicode="&#x11d;" horiz-adv-x="847" 
d="M623 -2v152q-31 -70 -93 -120t-161 -50q-137 0 -211 96.5t-74 283.5v613q0 187 76 283t211 96q171 0 252 -166v145h120v-1351q0 -100 -16 -169.5t-54.5 -121t-106 -75.5t-167.5 -24h-272v97h264q137 0 184.5 70.5t47.5 240.5zM113 1454l223 229h143l217 -229h-133
l-155 168l-162 -168h-133zM205 365q0 -140 43 -214.5t147 -74.5q59 0 104.5 27.5t71.5 72t39 94.5t13 103v585q0 53 -13 103t-39 94.5t-71.5 72t-104.5 27.5q-104 0 -147 -74.5t-43 -213.5v-602z" />
    <glyph glyph-name="Gbreve" unicode="&#x11e;" horiz-adv-x="884" 
d="M426 -20q-172 0 -254 109.5t-82 303.5v854q0 412 354 412q353 0 353 -412v-192h-125v200q0 89 -16 150t-48 94t-71 46.5t-93 13.5q-113 0 -171 -66t-58 -238v-868q0 -170 54 -238.5t177 -68.5q128 0 177 73.5t49 249.5v320h-228v98h353v-821h-88l-11 133
q-84 -153 -272 -153zM152 1991h102q0 -41 19 -72t49 -46.5t61 -22.5t63 -7t62 7t59.5 22.5t47.5 46t18 72.5h102q0 -64 -24.5 -110.5t-67 -71.5t-91.5 -36.5t-106 -11.5t-106.5 11.5t-93.5 36.5t-69 71.5t-25 110.5z" />
    <glyph glyph-name="gbreve" unicode="&#x11f;" horiz-adv-x="847" 
d="M623 -2v152q-31 -70 -93 -120t-161 -50q-137 0 -211 96.5t-74 283.5v613q0 187 76 283t211 96q171 0 252 -166v145h120v-1351q0 -100 -16 -169.5t-54.5 -121t-106 -75.5t-167.5 -24h-272v97h264q137 0 184.5 70.5t47.5 240.5zM113 1683h102q0 -41 19 -71.5t49.5 -46
t61.5 -22.5t63 -7t62 7t59 22.5t47 45.5t18 72h102q0 -64 -24.5 -110.5t-66.5 -71.5t-91 -36t-106 -11q-58 0 -107.5 11t-93 36t-69 71.5t-25.5 110.5zM205 365q0 -140 43 -214.5t147 -74.5q59 0 104.5 27.5t71.5 72t39 94.5t13 103v585q0 53 -13 103t-39 94.5t-71.5 72
t-104.5 27.5q-104 0 -147 -74.5t-43 -213.5v-602z" />
    <glyph glyph-name="Gdotaccent" unicode="&#x120;" horiz-adv-x="884" 
d="M426 -20q-172 0 -254 109.5t-82 303.5v854q0 412 354 412q353 0 353 -412v-192h-125v200q0 89 -16 150t-48 94t-71 46.5t-93 13.5q-113 0 -171 -66t-58 -238v-868q0 -170 54 -238.5t177 -68.5q128 0 177 73.5t49 249.5v320h-228v98h353v-821h-88l-11 133
q-84 -153 -272 -153zM346 1866q0 39 28 67.5t70 28.5t69.5 -28.5t27.5 -67.5q0 -38 -27.5 -66t-69.5 -28t-70 28t-28 66z" />
    <glyph glyph-name="gdotaccent" unicode="&#x121;" horiz-adv-x="847" 
d="M623 -2v152q-31 -70 -93 -120t-161 -50q-137 0 -211 96.5t-74 283.5v613q0 187 76 283t211 96q171 0 252 -166v145h120v-1351q0 -100 -16 -169.5t-54.5 -121t-106 -75.5t-167.5 -24h-272v97h264q137 0 184.5 70.5t47.5 240.5zM205 365q0 -140 43 -214.5t147 -74.5
q59 0 104.5 27.5t71.5 72t39 94.5t13 103v585q0 53 -13 103t-39 94.5t-71.5 72t-104.5 27.5q-104 0 -147 -74.5t-43 -213.5v-602zM307 1563q0 40 28.5 68t72.5 28q43 0 70.5 -27.5t27.5 -68.5q0 -38 -27.5 -66.5t-70.5 -28.5t-72 28.5t-29 66.5z" />
    <glyph glyph-name="uni0122" unicode="&#x122;" horiz-adv-x="884" 
d="M426 -20q-172 0 -254 109.5t-82 303.5v854q0 412 354 412q353 0 353 -412v-192h-125v200q0 89 -16 150t-48 94t-71 46.5t-93 13.5q-113 0 -171 -66t-58 -238v-868q0 -170 54 -238.5t177 -68.5q128 0 177 73.5t49 249.5v320h-228v98h353v-821h-88l-11 133
q-84 -153 -272 -153zM346 -166q0 38 27 66t71 28q41 0 68 -27.5t27 -86.5q0 -156 -166 -236v78q51 23 78 53t36 74q-28 -31 -61 -31q-32 0 -56 23t-24 59z" />
    <glyph glyph-name="uni0123" unicode="&#x123;" horiz-adv-x="847" 
d="M623 -2v152q-31 -70 -93 -120t-161 -50q-137 0 -211 96.5t-74 283.5v613q0 187 76 283t211 96q171 0 252 -166v145h120v-1351q0 -100 -16 -169.5t-54.5 -121t-106 -75.5t-167.5 -24h-272v97h264q137 0 184.5 70.5t47.5 240.5zM205 365q0 -140 43 -214.5t147 -74.5
q59 0 104.5 27.5t71.5 72t39 94.5t13 103v585q0 53 -13 103t-39 94.5t-71.5 72t-104.5 27.5q-104 0 -147 -74.5t-43 -213.5v-602zM309 1561q0 157 166 237v-78q-51 -23 -77.5 -53t-37.5 -74q26 29 62 29q32 0 56 -23t24 -59q0 -37 -26.5 -64.5t-69.5 -27.5q-42 0 -69.5 27
t-27.5 86z" />
    <glyph glyph-name="Hcircumflex" unicode="&#x124;" horiz-adv-x="913" 
d="M684 0v768h-453v-768h-125v1638h125v-768h453v768h123v-1638h-123zM164 1761l223 230h143l218 -230h-134l-155 168l-162 -168h-133z" />
    <glyph glyph-name="hcircumflex" unicode="&#x125;" 
d="M225 1638v-450q77 164 267 164q136 0 204 -90t68 -277v-985h-121v983q0 136 -41.5 204t-142.5 68q-62 0 -109 -27.5t-73 -72.5t-39 -96t-13 -105v-954h-119v1638h119zM-131 1761l223 230h144l217 -230h-134l-155 168l-162 -168h-133z" />
    <glyph glyph-name="Hbar" unicode="&#x126;" horiz-adv-x="1054" 
d="M756 0v768h-453v-768h-125v1288h-147v88h147v262h125v-262h453v262h123v-262h145v-88h-145v-1288h-123zM303 870h453v418h-453v-418z" />
    <glyph glyph-name="hbar" unicode="&#x127;" 
d="M225 1638v-133h310v-84h-310v-233q77 164 267 164q136 0 204 -90t68 -277v-985h-121v983q0 136 -41.5 204t-142.5 68q-62 0 -109 -27.5t-73 -72.5t-39 -96t-13 -105v-954h-119v1421h-153v84h153v133h119z" />
    <glyph glyph-name="Itilde" unicode="&#x128;" horiz-adv-x="337" 
d="M106 0v1638h125v-1638h-125zM-125 1786q0 205 164 205q44 0 77.5 -15t53.5 -37t37 -44t37.5 -37t44.5 -15q67 0 67 123h103q0 -205 -164 -205q-44 0 -77.5 15t-53.5 37t-37 44t-37.5 37t-44.5 15q-68 0 -68 -123h-102z" />
    <glyph glyph-name="itilde" unicode="&#x129;" horiz-adv-x="331" 
d="M106 1331h119v-1331h-119v1331zM-127 1479q0 204 164 204q44 0 77.5 -15t53.5 -36.5t37 -43.5t37.5 -37t44.5 -15q67 0 67 123h103q0 -205 -164 -205q-44 0 -77.5 15t-53.5 37t-37 44t-37.5 37t-44.5 15q-68 0 -68 -123h-102z" />
    <glyph glyph-name="Imacron" unicode="&#x12a;" horiz-adv-x="337" 
d="M106 0v1638h125v-1638h-125zM-125 1835v82h584v-82h-584z" />
    <glyph glyph-name="imacron" unicode="&#x12b;" horiz-adv-x="331" 
d="M106 1331h119v-1331h-119v1331zM-33 1528v82h393v-82h-393z" />
    <glyph glyph-name="Iogonek" unicode="&#x12e;" horiz-adv-x="337" 
d="M106 0v1638h125v-1638q-104 -36 -154 -83.5t-50 -115.5q0 -66 59 -96.5t190 -30.5h31l-82 -84h-28q-126 0 -199.5 47.5t-73.5 143.5q0 46 18.5 82t54 62t72 42.5t85.5 32.5h-48z" />
    <glyph glyph-name="iogonek" unicode="&#x12f;" horiz-adv-x="331" 
d="M106 1331h119v-1331q-104 -36 -154.5 -83.5t-50.5 -115.5q0 -66 59.5 -96.5t190.5 -30.5h31l-82 -84h-29q-126 0 -199 47.5t-73 143.5q0 46 18.5 82t54 62t71.5 42.5t85 32.5h-41v1331zM66 1563q0 40 28 68t72 28q43 0 70.5 -27.5t27.5 -68.5q0 -38 -27.5 -66.5
t-70.5 -28.5t-71.5 28.5t-28.5 66.5z" />
    <glyph glyph-name="Idotaccent" unicode="&#x130;" horiz-adv-x="337" 
d="M106 0v1638h125v-1638h-125zM70 1866q0 39 28 67.5t70 28.5t69 -28.5t27 -67.5q0 -38 -27 -66t-69 -28t-70 28t-28 66z" />
    <glyph glyph-name="dotlessi" unicode="&#x131;" horiz-adv-x="331" 
d="M106 1331h119v-1331h-119v1331z" />
    <glyph glyph-name="IJ" unicode="&#x132;" horiz-adv-x="1169" 
d="M106 0v1638h125v-1638h-125zM397 395v176h125v-184q0 -90 16 -152t46 -95t66 -46.5t83 -13.5q99 0 154 67t55 240v1251h125v-1243q0 -415 -334 -415q-336 0 -336 415z" />
    <glyph glyph-name="ij" unicode="&#x133;" horiz-adv-x="630" 
d="M106 1331h119v-1331h-119v1331zM66 1563q0 40 28 68t72 28q43 0 70.5 -27.5t27.5 -68.5q0 -38 -27.5 -66.5t-70.5 -28.5t-71.5 28.5t-28.5 66.5zM104 -410v97h86q125 0 170.5 68.5t45.5 224.5v1351h118v-1372q0 -92 -15.5 -157.5t-52.5 -114.5t-101 -73t-158 -24h-93z
M365 1563q0 40 28 68t72 28q43 0 70.5 -27.5t27.5 -68.5q0 -38 -27.5 -66.5t-70.5 -28.5t-71.5 28.5t-28.5 66.5z" />
    <glyph glyph-name="Jcircumflex" unicode="&#x134;" horiz-adv-x="825" 
d="M389 -20q-336 0 -336 415v176h125v-184q0 -90 16 -152t46 -95t66 -46.5t83 -13.5q99 0 154 67t55 240v1251h125v-1243q0 -415 -334 -415zM367 1761l223 230h143l217 -230h-133l-155 168l-162 -168h-133z" />
    <glyph glyph-name="jcircumflex" unicode="&#x135;" horiz-adv-x="331" 
d="M106 -20v1351h119v-1372q0 -92 -15.5 -157.5t-52.5 -114.5t-101 -73t-158 -24h-93v97h86q125 0 170 68.5t45 224.5zM-127 1454l223 229h144l217 -229h-133l-156 168l-162 -168h-133z" />
    <glyph glyph-name="uni0136" unicode="&#x136;" horiz-adv-x="817" 
d="M664 0l-404 764h-29v-764h-125v1638h125v-764h29l404 764h135l-441 -819l441 -819h-135zM330 -166q0 38 27 66t71 28q41 0 67.5 -27.5t26.5 -86.5q0 -156 -166 -236v78q51 23 78.5 53t36.5 74q-28 -31 -61 -31q-32 0 -56 23t-24 59z" />
    <glyph glyph-name="uni0137" unicode="&#x137;" horiz-adv-x="819" 
d="M106 1638h119v-923h33l410 616h139l-453 -665l453 -666h-139l-412 618h-31v-618h-119v1638zM362 -166q0 38 27.5 66t71.5 28q41 0 67.5 -27.5t26.5 -86.5q0 -156 -166 -236v78q51 23 78.5 53t36.5 74q-28 -31 -62 -31q-32 0 -56 23t-24 59z" />
    <glyph glyph-name="Lacute" unicode="&#x139;" horiz-adv-x="712" 
d="M106 0v1638h125v-1538h449v-100h-574zM113 1839l563 152l20 -80l-563 -150z" />
    <glyph glyph-name="lacute" unicode="&#x13a;" horiz-adv-x="331" 
d="M106 1638h119v-1638h-119v1638zM-127 1839l563 152l21 -80l-563 -150z" />
    <glyph glyph-name="uni013B" unicode="&#x13b;" horiz-adv-x="712" 
d="M106 0v1638h125v-1538h449v-100h-574zM252 -166q0 38 27 66t71 28q41 0 67.5 -27.5t26.5 -86.5q0 -157 -165 -236v78q51 23 78 53t36 74q-28 -31 -61 -31q-32 0 -56 23t-24 59z" />
    <glyph glyph-name="uni013C" unicode="&#x13c;" horiz-adv-x="331" 
d="M106 1638h119v-1638h-119v1638zM70 -166q0 38 27 66t71 28q41 0 67.5 -27.5t26.5 -86.5q0 -156 -166 -236v78q51 23 78.5 53t36.5 74q-28 -31 -61 -31q-32 0 -56 23t-24 59z" />
    <glyph glyph-name="Lcaron" unicode="&#x13d;" horiz-adv-x="716" 
d="M106 0v1638h125v-1538h449v-100h-574zM514 1169l41 469h100l-63 -469h-78z" />
    <glyph glyph-name="lcaron" unicode="&#x13e;" horiz-adv-x="411" 
d="M106 1638h119v-1638h-119v1638zM287 1169l41 469h100l-63 -469h-78z" />
    <glyph glyph-name="Lslash" unicode="&#x141;" horiz-adv-x="796" 
d="M190 0v705l-157 -103v105l157 102v829h125v-749l211 137v-104l-211 -138v-684h449v-100h-574z" />
    <glyph glyph-name="lslash" unicode="&#x142;" horiz-adv-x="598" 
d="M252 1638h119v-720l198 139v-113l-198 -137v-807h-119v723l-201 -139v110l201 142v802z" />
    <glyph glyph-name="Nacute" unicode="&#x143;" horiz-adv-x="921" 
d="M106 0v1638h121l469 -1327v1327h119v-1638h-123l-469 1329v-1329h-117zM168 1839l563 152l21 -80l-564 -150z" />
    <glyph glyph-name="nacute" unicode="&#x144;" 
d="M225 1331v-143q77 164 267 164q136 0 204 -90t68 -277v-985h-121v983q0 136 -41.5 204t-142.5 68q-62 0 -109 -27.5t-73 -72.5t-39 -96t-13 -105v-954h-119v1331h119zM141 1532l564 151l20 -79l-563 -150z" />
    <glyph glyph-name="uni0145" unicode="&#x145;" horiz-adv-x="921" 
d="M106 0v1638h121l469 -1327v1327h119v-1638h-123l-469 1329v-1329h-117zM367 -166q0 38 27 66t71 28q41 0 67.5 -27.5t26.5 -86.5q0 -156 -166 -236v78q51 23 78.5 53t36.5 74q-28 -31 -62 -31q-32 0 -55.5 23t-23.5 59z" />
    <glyph glyph-name="uni0146" unicode="&#x146;" 
d="M225 1331v-143q77 164 267 164q136 0 204 -90t68 -277v-985h-121v983q0 136 -41.5 204t-142.5 68q-62 0 -109 -27.5t-73 -72.5t-39 -96t-13 -105v-954h-119v1331h119zM340 -166q0 38 27 66t71 28q41 0 67.5 -27.5t26.5 -86.5q0 -157 -165 -236v78q51 23 78 53t36 74
q-28 -31 -61 -31q-32 0 -56 23t-24 59z" />
    <glyph glyph-name="Ncaron" unicode="&#x147;" horiz-adv-x="921" 
d="M106 0v1638h121l469 -1327v1327h119v-1638h-123l-469 1329v-1329h-117zM168 1991h133l162 -168l155 168h134l-217 -230h-144z" />
    <glyph glyph-name="ncaron" unicode="&#x148;" 
d="M225 1331v-143q77 164 267 164q136 0 204 -90t68 -277v-985h-121v983q0 136 -41.5 204t-142.5 68q-62 0 -109 -27.5t-73 -72.5t-39 -96t-13 -105v-954h-119v1331h119zM141 1683h133l162 -167l156 167h133l-217 -229h-143z" />
    <glyph glyph-name="Eng" unicode="&#x14a;" horiz-adv-x="921" 
d="M106 0v1638h121l469 -1327v1327h119v-1638q-1 -95 -8 -157.5t-26 -114.5t-52.5 -80t-85.5 -43t-127 -15h-35v117h43q44 0 73.5 10.5t48.5 30.5t29 57.5t14 81.5t5 113h-2l-469 1329v-1329h-117z" />
    <glyph glyph-name="eng" unicode="&#x14b;" 
d="M225 1331v-143q77 164 267 164q136 0 204 -90t68 -277v-985q0 -215 -71.5 -312.5t-254.5 -97.5h-92v97h86q123 0 167 71.5t44 241.5v983q0 136 -41.5 204t-142.5 68q-62 0 -109 -27.5t-73 -72.5t-39 -96t-13 -105v-954h-119v1331h119z" />
    <glyph glyph-name="Omacron" unicode="&#x14c;" horiz-adv-x="886" 
d="M444 -20q-354 0 -354 411v856q0 412 354 412q353 0 353 -412v-856q0 -411 -353 -411zM152 1835v82h583v-82h-583zM215 387q0 -89 16 -150t47.5 -93.5t71 -46t94.5 -13.5q54 0 93 13.5t71 46t48 93.5t16 150v864q0 89 -16 150t-48 93.5t-71 46t-93 13.5q-55 0 -94.5 -13.5
t-71 -46t-47.5 -93.5t-16 -150v-864z" />
    <glyph glyph-name="omacron" unicode="&#x14d;" horiz-adv-x="823" 
d="M412 -20q-330 0 -330 411v551q0 410 330 410q329 0 329 -410v-551q0 -411 -329 -411zM119 1528v82h583v-82h-583zM203 383q0 -173 55 -240t154 -67t154 67t55 240v565q0 173 -55 240t-154 67t-154 -67t-55 -240v-565z" />
    <glyph glyph-name="Ohungarumlaut" unicode="&#x150;" horiz-adv-x="886" 
d="M444 -20q-354 0 -354 411v856q0 412 354 412q353 0 353 -412v-856q0 -411 -353 -411zM215 387q0 -89 16 -150t47.5 -93.5t71 -46t94.5 -13.5q54 0 93 13.5t71 46t48 93.5t16 150v864q0 89 -16 150t-48 93.5t-71 46t-93 13.5q-55 0 -94.5 -13.5t-71 -46t-47.5 -93.5
t-16 -150v-864zM272 1761l236 230h110l-215 -230h-131zM512 1761l236 230h108l-215 -230h-129z" />
    <glyph glyph-name="ohungarumlaut" unicode="&#x151;" horiz-adv-x="823" 
d="M412 -20q-330 0 -330 411v551q0 410 330 410q329 0 329 -410v-551q0 -411 -329 -411zM203 383q0 -173 55 -240t154 -67t154 67t55 240v565q0 173 -55 240t-154 67t-154 -67t-55 -240v-565zM240 1454l235 229h111l-215 -229h-131zM479 1454l236 229h108l-215 -229h-129z
" />
    <glyph glyph-name="OE" unicode="&#x152;" horiz-adv-x="1148" 
d="M391 -20q-155 0 -226 98.5t-71 331.5v821q0 232 71 330t226 98q158 0 227 -107v86h469v-100h-352v-668h336v-102h-336v-668h352v-100h-469v86q-68 -106 -227 -106zM215 385q0 -166 42.5 -235.5t145.5 -69.5t155 58.5t52 166.5v1028q0 107 -52.5 166.5t-154.5 59.5
q-103 0 -145.5 -70t-42.5 -236v-868z" />
    <glyph glyph-name="oe" unicode="&#x153;" horiz-adv-x="1314" 
d="M397 -20q-160 0 -237.5 106.5t-77.5 300.5v557q0 193 77.5 300.5t237.5 107.5q192 0 262 -185q67 185 267 185q311 0 311 -408v-287h-520v-274q0 -90 15.5 -152t45 -95t64 -46.5t80.5 -13.5t79.5 13.5t60.5 46.5t40.5 94.5t13.5 152.5v43h121v-39q0 -407 -307 -407
q-101 0 -168 44.5t-103 139.5q-68 -184 -262 -184zM203 383q0 -90 15.5 -152t44.5 -95t62 -46.5t76 -13.5q44 0 78 13.5t63 46.5t44.5 95t15.5 152v565q0 90 -15.5 152t-44.5 95t-63 46.5t-78 13.5q-43 0 -76 -13.5t-62 -46.5t-44.5 -95t-15.5 -152v-565zM717 752h399v196
q0 91 -13.5 152.5t-40.5 94.5t-60.5 46.5t-79.5 13.5t-80.5 -13.5t-64 -46.5t-45 -95t-15.5 -152v-196z" />
    <glyph glyph-name="Racute" unicode="&#x154;" horiz-adv-x="878" 
d="M692 0q-22 28 -22 145v320q0 59 -11.5 105.5t-28.5 77t-44 53t-51.5 34t-57 18t-55 8t-51.5 1.5h-140v-762h-125v1638h263q127 0 205.5 -17t131 -63.5t73 -123t20.5 -199.5v-41q0 -92 -16.5 -159t-68 -127t-139.5 -93q110 -38 165 -123.5t55 -230.5v-316q0 -115 22 -145
h-125zM111 1839l563 152l20 -80l-563 -150zM231 860h140q76 0 131.5 17t88.5 44t52 70t25 86.5t6 102.5v59q0 54 -3.5 94.5t-12.5 72t-19.5 53t-31 37t-40.5 24t-53.5 13t-64 6t-78.5 1.5h-140v-680z" />
    <glyph glyph-name="racute" unicode="&#x155;" horiz-adv-x="757" 
d="M225 1331v-139q80 160 252 160q131 0 189.5 -85t58.5 -245v-121h-119v100q0 133 -38 193.5t-126 60.5q-51 0 -91 -23.5t-63 -58t-38 -79.5t-20 -83t-5 -73v-938h-119v1331h119zM141 1532l564 151l20 -79l-563 -150z" />
    <glyph glyph-name="uni0156" unicode="&#x156;" horiz-adv-x="878" 
d="M692 0q-22 28 -22 145v320q0 59 -11.5 105.5t-28.5 77t-44 53t-51.5 34t-57 18t-55 8t-51.5 1.5h-140v-762h-125v1638h263q127 0 205.5 -17t131 -63.5t73 -123t20.5 -199.5v-41q0 -92 -16.5 -159t-68 -127t-139.5 -93q110 -38 165 -123.5t55 -230.5v-316q0 -115 22 -145
h-125zM231 860h140q76 0 131.5 17t88.5 44t52 70t25 86.5t6 102.5v59q0 54 -3.5 94.5t-12.5 72t-19.5 53t-31 37t-40.5 24t-53.5 13t-64 6t-78.5 1.5h-140v-680zM354 -166q0 38 27.5 66t71.5 28q41 0 67.5 -27.5t26.5 -86.5q0 -156 -166 -236v78q51 23 78.5 53t36.5 74
q-28 -31 -62 -31q-32 0 -56 23t-24 59z" />
    <glyph glyph-name="uni0157" unicode="&#x157;" horiz-adv-x="757" 
d="M225 1331v-139q80 160 252 160q131 0 189.5 -85t58.5 -245v-121h-119v100q0 133 -38 193.5t-126 60.5q-51 0 -91 -23.5t-63 -58t-38 -79.5t-20 -83t-5 -73v-938h-119v1331h119zM72 -166q0 38 27 66t71 28q41 0 67.5 -27.5t26.5 -86.5q0 -156 -166 -236v78q51 23 78.5 53
t36.5 74q-28 -31 -61 -31q-32 0 -56 23t-24 59z" />
    <glyph glyph-name="Rcaron" unicode="&#x158;" horiz-adv-x="878" 
d="M692 0q-22 28 -22 145v320q0 59 -11.5 105.5t-28.5 77t-44 53t-51.5 34t-57 18t-55 8t-51.5 1.5h-140v-762h-125v1638h263q127 0 205.5 -17t131 -63.5t73 -123t20.5 -199.5v-41q0 -92 -16.5 -159t-68 -127t-139.5 -93q110 -38 165 -123.5t55 -230.5v-316q0 -115 22 -145
h-125zM111 1991h133l162 -168l155 168h133l-217 -230h-143zM231 860h140q76 0 131.5 17t88.5 44t52 70t25 86.5t6 102.5v59q0 54 -3.5 94.5t-12.5 72t-19.5 53t-31 37t-40.5 24t-53.5 13t-64 6t-78.5 1.5h-140v-680z" />
    <glyph glyph-name="rcaron" unicode="&#x159;" horiz-adv-x="757" 
d="M225 1331v-139q80 160 252 160q131 0 189.5 -85t58.5 -245v-121h-119v100q0 133 -38 193.5t-126 60.5q-51 0 -91 -23.5t-63 -58t-38 -79.5t-20 -83t-5 -73v-938h-119v1331h119zM141 1683h133l162 -167l156 167h133l-217 -229h-143z" />
    <glyph glyph-name="Sacute" unicode="&#x15a;" horiz-adv-x="835" 
d="M420 -20q-182 0 -270.5 100.5t-88.5 316.5v154h125v-164q0 -175 56 -241t180 -66q121 0 171 62.5t50 219.5v11q0 99 -19.5 168t-54 113t-96.5 91l-188 144q-105 82 -155 174t-50 231q0 365 340 365q175 0 260.5 -97.5t85.5 -306.5v-88h-125v90q0 76 -11 130.5t-29.5 87.5
t-47.5 52t-60 25.5t-73 6.5q-112 0 -163.5 -55t-51.5 -191v-8q0 -117 36.5 -187.5t114.5 -132.5l189 -143q116 -89 169.5 -190t53.5 -273q0 -197 -80.5 -298t-267.5 -101zM121 1839l563 152l21 -80l-564 -150z" />
    <glyph glyph-name="sacute" unicode="&#x15b;" horiz-adv-x="784" 
d="M528 662q68 -56 106.5 -101t60.5 -106t22 -140q0 -50 -7.5 -93t-29 -89t-56 -78.5t-94.5 -53.5t-139 -21q-332 0 -332 358v92h119v-92q0 -138 50.5 -200t160.5 -62q111 0 160 55.5t49 173.5q0 92 -30.5 146t-112.5 122l-193 160q-45 36 -71 61.5t-55.5 65t-43.5 87
t-14 106.5q0 44 7.5 82.5t29 79.5t55 70.5t91 48t132.5 18.5q173 0 248.5 -94.5t75.5 -268.5v-65h-119v65q0 148 -50.5 207t-152.5 59q-97 0 -146.5 -48t-49.5 -150q0 -78 31 -125.5t106 -110.5zM102 1532l564 151l20 -79l-563 -150z" />
    <glyph glyph-name="Scircumflex" unicode="&#x15c;" horiz-adv-x="835" 
d="M420 -20q-182 0 -270.5 100.5t-88.5 316.5v154h125v-164q0 -175 56 -241t180 -66q121 0 171 62.5t50 219.5v11q0 99 -19.5 168t-54 113t-96.5 91l-188 144q-105 82 -155 174t-50 231q0 365 340 365q175 0 260.5 -97.5t85.5 -306.5v-88h-125v90q0 76 -11 130.5t-29.5 87.5
t-47.5 52t-60 25.5t-73 6.5q-112 0 -163.5 -55t-51.5 -191v-8q0 -117 36.5 -187.5t114.5 -132.5l189 -143q116 -89 169.5 -190t53.5 -273q0 -197 -80.5 -298t-267.5 -101zM121 1761l223 230h143l218 -230h-134l-155 168l-162 -168h-133z" />
    <glyph glyph-name="scircumflex" unicode="&#x15d;" horiz-adv-x="784" 
d="M528 662q68 -56 106.5 -101t60.5 -106t22 -140q0 -50 -7.5 -93t-29 -89t-56 -78.5t-94.5 -53.5t-139 -21q-332 0 -332 358v92h119v-92q0 -138 50.5 -200t160.5 -62q111 0 160 55.5t49 173.5q0 92 -30.5 146t-112.5 122l-193 160q-45 36 -71 61.5t-55.5 65t-43.5 87
t-14 106.5q0 44 7.5 82.5t29 79.5t55 70.5t91 48t132.5 18.5q173 0 248.5 -94.5t75.5 -268.5v-65h-119v65q0 148 -50.5 207t-152.5 59q-97 0 -146.5 -48t-49.5 -150q0 -78 31 -125.5t106 -110.5zM102 1454l224 229h143l217 -229h-133l-156 168l-161 -168h-134z" />
    <glyph glyph-name="Scedilla" unicode="&#x15e;" horiz-adv-x="835" 
d="M283 -342q147 0 205.5 15.5t58.5 66.5q0 52 -56.5 62t-166.5 -9l45 189q-155 14 -231.5 115t-76.5 300v154h125v-164q0 -175 56 -241t180 -66q121 0 171 62.5t50 219.5v11q0 99 -19.5 168t-54 113t-96.5 91l-188 144q-105 82 -155 174t-50 231q0 365 340 365
q175 0 260.5 -97.5t85.5 -306.5v-88h-125v90q0 76 -11 130.5t-29.5 87.5t-47.5 52t-60 25.5t-73 6.5q-112 0 -163.5 -55t-51.5 -191v-8q0 -117 36.5 -187.5t114.5 -132.5l189 -143q116 -89 169.5 -190t53.5 -273q0 -187 -72 -288t-239 -111l-31 -115q225 32 225 -125
q0 -57 -33 -91.5t-115.5 -53.5t-221.5 -19z" />
    <glyph glyph-name="scedilla" unicode="&#x15f;" horiz-adv-x="784" 
d="M528 662q68 -56 106.5 -101t60.5 -106t22 -140q0 -47 -6.5 -88t-25.5 -85t-50 -76.5t-83.5 -55.5t-121.5 -28l-31 -117q226 33 226 -125q0 -85 -83 -124.5t-288 -39.5l2 82q147 0 205.5 15.5t58.5 66.5q0 52 -56.5 62t-166.5 -9l45 189q-283 27 -283 356v92h119v-92
q0 -138 50.5 -200t160.5 -62q111 0 160 55.5t49 173.5q0 92 -30.5 146t-112.5 122l-193 160q-45 36 -71 61.5t-55.5 65t-43.5 87t-14 106.5q0 44 7.5 82.5t29 79.5t55 70.5t91 48t132.5 18.5q173 0 248.5 -94.5t75.5 -268.5v-65h-119v65q0 148 -50.5 207t-152.5 59
q-97 0 -146.5 -48t-49.5 -150q0 -78 31 -125.5t106 -110.5z" />
    <glyph glyph-name="Scaron" unicode="&#x160;" horiz-adv-x="835" 
d="M420 -20q-182 0 -270.5 100.5t-88.5 316.5v154h125v-164q0 -175 56 -241t180 -66q121 0 171 62.5t50 219.5v11q0 99 -19.5 168t-54 113t-96.5 91l-188 144q-105 82 -155 174t-50 231q0 365 340 365q175 0 260.5 -97.5t85.5 -306.5v-88h-125v90q0 76 -11 130.5t-29.5 87.5
t-47.5 52t-60 25.5t-73 6.5q-112 0 -163.5 -55t-51.5 -191v-8q0 -117 36.5 -187.5t114.5 -132.5l189 -143q116 -89 169.5 -190t53.5 -273q0 -197 -80.5 -298t-267.5 -101zM121 1991h133l162 -168l155 168h134l-218 -230h-143z" />
    <glyph glyph-name="scaron" unicode="&#x161;" horiz-adv-x="784" 
d="M528 662q68 -56 106.5 -101t60.5 -106t22 -140q0 -50 -7.5 -93t-29 -89t-56 -78.5t-94.5 -53.5t-139 -21q-332 0 -332 358v92h119v-92q0 -138 50.5 -200t160.5 -62q111 0 160 55.5t49 173.5q0 92 -30.5 146t-112.5 122l-193 160q-45 36 -71 61.5t-55.5 65t-43.5 87
t-14 106.5q0 44 7.5 82.5t29 79.5t55 70.5t91 48t132.5 18.5q173 0 248.5 -94.5t75.5 -268.5v-65h-119v65q0 148 -50.5 207t-152.5 59q-97 0 -146.5 -48t-49.5 -150q0 -78 31 -125.5t106 -110.5zM102 1683h134l161 -167l156 167h133l-217 -229h-143z" />
    <glyph glyph-name="uni0162" unicode="&#x162;" horiz-adv-x="737" 
d="M305 0v1538h-266v100h657v-100h-266v-1538h-14l-35 -135q225 32 225 -125q0 -57 -33 -91.5t-115.5 -53.5t-221.5 -19l2 82q147 0 205.5 15.5t58.5 66.5q0 52 -56.5 62t-166.5 -9l49 207h-23z" />
    <glyph glyph-name="uni0163" unicode="&#x163;" horiz-adv-x="589" 
d="M549 1331v-96h-242v-918q0 -138 19 -178.5t92 -40.5h131v-98h-119l-29 -115q226 33 226 -125q0 -85 -82.5 -124t-288.5 -39l2 81q147 0 205.5 15.5t58.5 66.5q0 27 -13.5 42.5t-44 20t-67.5 2t-98 -10.5l45 190q-51 7 -83.5 29t-48.5 64t-21 86.5t-5 113.5v938h-159v96
q90 26 146 112t54 195h119q0 -111 -51 -198t-111 -109h365z" />
    <glyph glyph-name="Tcaron" unicode="&#x164;" horiz-adv-x="737" 
d="M305 0v1538h-266v100h657v-100h-266v-1538h-125zM76 1991h133l162 -168l155 168h133l-217 -230h-143z" />
    <glyph glyph-name="tcaron" unicode="&#x165;" horiz-adv-x="589" 
d="M549 1331v-96h-242v-918q0 -138 19 -178.5t92 -40.5h131v-98h-156q-55 0 -93 14.5t-60 37.5t-34.5 63.5t-16 81t-3.5 100.5v938h-159v96q90 26 146 112t54 195h119q0 -111 -51 -198t-111 -109h365zM428 1454l80 352h100l-102 -352h-78z" />
    <glyph glyph-name="Tbar" unicode="&#x166;" horiz-adv-x="745" 
d="M309 0v770h-184v86h184v682h-266v100h657v-100h-266v-682h184v-86h-184v-770h-125z" />
    <glyph glyph-name="tbar" unicode="&#x167;" horiz-adv-x="600" 
d="M557 1331v-96h-242v-463h234v-84h-234v-371q0 -138 19 -178.5t92 -40.5h131v-98h-156q-55 0 -93 14.5t-60 37.5t-34 63.5t-15.5 80.5t-3.5 101v391h-152v84h152v463h-160v96q90 26 146.5 112t54.5 195h118q0 -111 -50.5 -198t-110.5 -109h364z" />
    <glyph glyph-name="Utilde" unicode="&#x168;" horiz-adv-x="911" 
d="M455 -20q-353 0 -353 415v1243h125v-1251q0 -90 16 -152t48 -95t71 -46.5t93 -13.5q55 0 94.5 13.5t71 46.5t47.5 94.5t16 152.5v1251h125v-1243q0 -199 -83.5 -307t-270.5 -108zM162 1786q0 205 164 205q44 0 77.5 -15t53.5 -37t36.5 -44t37 -37t44.5 -15q68 0 68 123
h102q0 -205 -163 -205q-44 0 -77.5 15t-53.5 37t-37 44t-37.5 37t-44.5 15q-68 0 -68 -123h-102z" />
    <glyph glyph-name="utilde" unicode="&#x169;" 
d="M639 0v147q-79 -167 -268 -167q-137 0 -205 89.5t-68 276.5v985h121v-983q0 -136 41.5 -204t142.5 -68q62 0 109 27.5t73 72.5t39 96t13 105l2 -53v1007h119v-1331h-119zM133 1479q0 204 164 204q44 0 77.5 -15t53.5 -36.5t37 -43.5t37.5 -37t44.5 -15q67 0 67 123h103
q0 -205 -164 -205q-44 0 -77.5 15t-53.5 37t-37 44t-37.5 37t-44.5 15q-67 0 -67 -123h-103z" />
    <glyph glyph-name="Umacron" unicode="&#x16a;" horiz-adv-x="911" 
d="M455 -20q-353 0 -353 415v1243h125v-1251q0 -90 16 -152t48 -95t71 -46.5t93 -13.5q55 0 94.5 13.5t71 46.5t47.5 94.5t16 152.5v1251h125v-1243q0 -199 -83.5 -307t-270.5 -108zM162 1835v82h583v-82h-583z" />
    <glyph glyph-name="umacron" unicode="&#x16b;" 
d="M639 0v147q-79 -167 -268 -167q-137 0 -205 89.5t-68 276.5v985h121v-983q0 -136 41.5 -204t142.5 -68q62 0 109 27.5t73 72.5t39 96t13 105l2 -53v1007h119v-1331h-119zM133 1528v82h584v-82h-584z" />
    <glyph glyph-name="Ubreve" unicode="&#x16c;" horiz-adv-x="911" 
d="M455 -20q-353 0 -353 415v1243h125v-1251q0 -90 16 -152t48 -95t71 -46.5t93 -13.5q55 0 94.5 13.5t71 46.5t47.5 94.5t16 152.5v1251h125v-1243q0 -199 -83.5 -307t-270.5 -108zM162 1991h102q0 -41 19 -72t49.5 -46.5t61.5 -22.5t63 -7t62 7t59 22.5t47 46t18 72.5h102
q0 -64 -24.5 -110.5t-66.5 -71.5t-91 -36.5t-106 -11.5t-107 11.5t-93.5 36.5t-69 71.5t-25.5 110.5z" />
    <glyph glyph-name="ubreve" unicode="&#x16d;" 
d="M639 0v147q-79 -167 -268 -167q-137 0 -205 89.5t-68 276.5v985h121v-983q0 -136 41.5 -204t142.5 -68q62 0 109 27.5t73 72.5t39 96t13 105l2 -53v1007h119v-1331h-119zM133 1683h103q0 -41 19 -71.5t49.5 -46t61 -22.5t62.5 -7t62 7t59 22.5t47 45.5t18 72h103
q0 -64 -24.5 -110.5t-67 -71.5t-91.5 -36t-106 -11q-58 0 -107.5 11t-93 36t-69 71.5t-25.5 110.5z" />
    <glyph glyph-name="Uring" unicode="&#x16e;" horiz-adv-x="911" 
d="M455 -20q-353 0 -353 415v1243h125v-1251q0 -90 16 -152t48 -95t71 -46.5t93 -13.5q55 0 94.5 13.5t71 46.5t47.5 94.5t16 152.5v1251h125v-1243q0 -199 -83.5 -307t-270.5 -108zM289 1896q0 71 49.5 118.5t116.5 47.5t116.5 -47.5t49.5 -118.5t-49 -118t-117 -47
t-117 47t-49 118zM365 1896q0 -40 24.5 -65t65.5 -25t65.5 25t24.5 65t-24.5 65.5t-65.5 25.5t-65.5 -25.5t-24.5 -65.5z" />
    <glyph glyph-name="uring" unicode="&#x16f;" 
d="M639 0v147q-79 -167 -268 -167q-137 0 -205 89.5t-68 276.5v985h121v-983q0 -136 41.5 -204t142.5 -68q62 0 109 27.5t73 72.5t39 96t13 105l2 -53v1007h119v-1331h-119zM260 1589q0 71 49.5 118.5t116.5 47.5t116.5 -47.5t49.5 -118.5t-49.5 -118.5t-116.5 -47.5
t-116.5 47.5t-49.5 118.5zM336 1589q0 -40 24.5 -65t65.5 -25t65.5 25t24.5 65t-24.5 65t-65.5 25t-65.5 -25t-24.5 -65z" />
    <glyph glyph-name="Uhungarumlaut" unicode="&#x170;" horiz-adv-x="911" 
d="M455 -20q-353 0 -353 415v1243h125v-1251q0 -90 16 -152t48 -95t71 -46.5t93 -13.5q55 0 94.5 13.5t71 46.5t47.5 94.5t16 152.5v1251h125v-1243q0 -199 -83.5 -307t-270.5 -108zM285 1761l235 230h111l-215 -230h-131zM524 1761l236 230h108l-215 -230h-129z" />
    <glyph glyph-name="uhungarumlaut" unicode="&#x171;" 
d="M639 0v147q-79 -167 -268 -167q-137 0 -205 89.5t-68 276.5v985h121v-983q0 -136 41.5 -204t142.5 -68q62 0 109 27.5t73 72.5t39 96t13 105l2 -53v1007h119v-1331h-119zM256 1454l236 229h110l-215 -229h-131zM496 1454l235 229h109l-215 -229h-129z" />
    <glyph glyph-name="Uogonek" unicode="&#x172;" horiz-adv-x="911" 
d="M455 -20q-353 0 -353 415v1243h125v-1251q0 -90 16 -152t48 -95t71 -46.5t93 -13.5q55 0 94.5 13.5t71 46.5t47.5 94.5t16 152.5v1251h125v-1243q0 -329 -219 -397q-104 -36 -154.5 -83.5t-50.5 -115.5q0 -66 59.5 -96.5t190.5 -30.5h31l-82 -84h-29q-126 0 -199 47.5
t-73 143.5q0 75 47 122t129 79h-4z" />
    <glyph glyph-name="uogonek" unicode="&#x173;" 
d="M639 0v147q-79 -167 -268 -167q-137 0 -205 89.5t-68 276.5v985h121v-983q0 -136 41.5 -204t142.5 -68q62 0 109 27.5t73 72.5t39 96t13 105l2 -53v1007h119v-1331q-104 -36 -154.5 -83.5t-50.5 -115.5q0 -66 59.5 -96.5t190.5 -30.5h31l-82 -84h-29q-126 0 -199 47.5
t-73 143.5q0 46 18.5 82t54 62t71.5 42.5t85 32.5h-41z" />
    <glyph glyph-name="Wcircumflex" unicode="&#x174;" horiz-adv-x="1441" 
d="M305 0l-268 1638h123l233 -1488l238 1488h182l236 -1488l2 -7v7l231 1488h123l-268 -1638h-176l-238 1468l-2 13l-2 -13l-238 -1468h-176zM428 1761l223 230h144l217 -230h-133l-156 168l-162 -168h-133z" />
    <glyph glyph-name="wcircumflex" unicode="&#x175;" horiz-adv-x="1335" 
d="M375 1454l223 229h143l217 -229h-133l-155 168l-162 -168h-133zM37 1331h119l215 -1173l215 1173h164l215 -1169l215 1169h118l-258 -1331h-145l-227 1200l-230 -1200h-143z" />
    <glyph glyph-name="Ycircumflex" unicode="&#x176;" horiz-adv-x="776" 
d="M326 0v573l-299 1065h129l231 -895l231 895h130l-297 -1065v-573h-125zM94 1761l225 230h144l217 -230h-133l-156 168l-162 -168h-135z" />
    <glyph glyph-name="ycircumflex" unicode="&#x177;" horiz-adv-x="860" 
d="M637 -2v149q-79 -167 -268 -167q-137 0 -205 89.5t-68 276.5v985h121v-983q0 -136 41.5 -204t142.5 -68q62 0 109 27.5t73 72.5t39 96t13 105l2 -53v1007h119v-1333q0 -102 -16 -173t-54.5 -126t-109.5 -82t-177 -27h-260v97h246q79 0 128.5 17.5t76.5 58.5t37 95t10 140
zM127 1454l223 229h144l217 -229h-133l-156 168l-162 -168h-133z" />
    <glyph glyph-name="Ydieresis" unicode="&#x178;" horiz-adv-x="776" 
d="M326 0v573l-299 1065h129l231 -895l231 895h130l-297 -1065v-573h-125zM139 1872q0 40 24.5 63t61.5 23t62.5 -23t25.5 -63q0 -37 -26 -60.5t-62 -23.5t-61 23.5t-25 60.5zM461 1872q0 40 24.5 63t61.5 23t62.5 -23t25.5 -63q0 -37 -26 -60.5t-62 -23.5t-61 23.5
t-25 60.5z" />
    <glyph glyph-name="Zacute" unicode="&#x179;" horiz-adv-x="727" 
d="M47 0v100l508 1438h-508v100h633v-100l-508 -1438h508v-100h-633zM72 1839l563 152l20 -80l-563 -150z" />
    <glyph glyph-name="zacute" unicode="&#x17a;" horiz-adv-x="692" 
d="M45 1331h602v-96l-479 -1137h473v-98h-590v98l477 1137h-483v96zM57 1532l564 151l20 -79l-563 -150z" />
    <glyph glyph-name="Zdotaccent" unicode="&#x17b;" horiz-adv-x="727" 
d="M47 0v100l508 1438h-508v100h633v-100l-508 -1438h508v-100h-633zM266 1866q0 39 28.5 67.5t70.5 28.5t69 -28.5t27 -67.5q0 -38 -27 -66t-69 -28t-70.5 28t-28.5 66z" />
    <glyph glyph-name="zdotaccent" unicode="&#x17c;" horiz-adv-x="692" 
d="M45 1331h602v-96l-479 -1137h473v-98h-590v98l477 1137h-483v96zM250 1563q0 40 28 68t72 28t71.5 -27.5t27.5 -68.5q0 -38 -28 -66.5t-71 -28.5t-71.5 28.5t-28.5 66.5z" />
    <glyph glyph-name="Zcaron" unicode="&#x17d;" horiz-adv-x="727" 
d="M47 0v100l508 1438h-508v100h633v-100l-508 -1438h508v-100h-633zM72 1991h133l162 -168l155 168h133l-217 -230h-143z" />
    <glyph glyph-name="zcaron" unicode="&#x17e;" horiz-adv-x="692" 
d="M45 1331h602v-96l-479 -1137h473v-98h-590v98l477 1137h-483v96zM57 1683h133l162 -167l156 167h133l-217 -229h-143z" />
    <glyph glyph-name="uni0218" unicode="&#x218;" horiz-adv-x="835" 
d="M420 -20q-182 0 -270.5 100.5t-88.5 316.5v154h125v-164q0 -175 56 -241t180 -66q121 0 171 62.5t50 219.5v11q0 99 -19.5 168t-54 113t-96.5 91l-188 144q-105 82 -155 174t-50 231q0 365 340 365q175 0 260.5 -97.5t85.5 -306.5v-88h-125v90q0 76 -11 130.5t-29.5 87.5
t-47.5 52t-60 25.5t-73 6.5q-112 0 -163.5 -55t-51.5 -191v-8q0 -117 36.5 -187.5t114.5 -132.5l189 -143q116 -89 169.5 -190t53.5 -273q0 -197 -80.5 -298t-267.5 -101zM319 -166q0 38 27.5 66t71.5 28q41 0 67.5 -27.5t26.5 -86.5q0 -156 -166 -236v78q51 23 78.5 53
t36.5 74q-28 -31 -62 -31q-32 0 -56 23t-24 59z" />
    <glyph glyph-name="uni0219" unicode="&#x219;" horiz-adv-x="784" 
d="M528 662q68 -56 106.5 -101t60.5 -106t22 -140q0 -50 -7.5 -93t-29 -89t-56 -78.5t-94.5 -53.5t-139 -21q-332 0 -332 358v92h119v-92q0 -138 50.5 -200t160.5 -62q111 0 160 55.5t49 173.5q0 92 -30.5 146t-112.5 122l-193 160q-45 36 -71 61.5t-55.5 65t-43.5 87
t-14 106.5q0 44 7.5 82.5t29 79.5t55 70.5t91 48t132.5 18.5q173 0 248.5 -94.5t75.5 -268.5v-65h-119v65q0 148 -50.5 207t-152.5 59q-97 0 -146.5 -48t-49.5 -150q0 -78 31 -125.5t106 -110.5zM295 -166q0 38 27 66t71 28q41 0 67.5 -27.5t26.5 -86.5q0 -157 -165 -236v78
q51 23 78 53t36 74q-28 -31 -61 -31q-32 0 -56 23t-24 59z" />
    <glyph glyph-name="uni021A" unicode="&#x21a;" horiz-adv-x="737" 
d="M305 0v1538h-266v100h657v-100h-266v-1538h-125zM274 -166q0 38 27.5 66t71.5 28q41 0 67.5 -27.5t26.5 -86.5q0 -156 -166 -236v78q51 23 78.5 53t36.5 74q-28 -31 -62 -31q-32 0 -56 23t-24 59z" />
    <glyph glyph-name="uni021B" unicode="&#x21b;" horiz-adv-x="589" 
d="M549 1331v-96h-242v-918q0 -138 19 -178.5t92 -40.5h131v-98h-156q-55 0 -93 14.5t-60 37.5t-34.5 63.5t-16 81t-3.5 100.5v938h-159v96q90 26 146 112t54 195h119q0 -111 -51 -198t-111 -109h365zM295 -145q0 38 27 66t71 28q41 0 67.5 -28t26.5 -87q0 -156 -165 -235
v77q51 23 78 53t36 74q-27 -30 -61 -30q-32 0 -56 23t-24 59z" />
    <glyph glyph-name="uni0237" unicode="&#x237;" horiz-adv-x="331" 
d="M106 -20v1351h119v-1372q0 -92 -15.5 -157.5t-52.5 -114.5t-101 -73t-158 -24h-93v97h86q125 0 170 68.5t45 224.5z" />
    <glyph glyph-name="circumflex" unicode="&#x2c6;" horiz-adv-x="993" 
d="M205 1454l223 229h143l217 -229h-133l-155 168l-162 -168h-133z" />
    <glyph glyph-name="caron" unicode="&#x2c7;" horiz-adv-x="993" 
d="M428 1454l-223 229h133l162 -167l155 167h133l-217 -229h-143z" />
    <glyph glyph-name="breve" unicode="&#x2d8;" horiz-adv-x="993" 
d="M500 1454q-58 0 -107.5 11t-93 36t-69 71.5t-25.5 110.5h102q0 -41 19 -71.5t49.5 -46t61.5 -22.5t63 -7t62 7t59 22.5t47 45.5t18 72h102q0 -64 -24.5 -110.5t-66.5 -71.5t-91 -36t-106 -11z" />
    <glyph glyph-name="dotaccent" unicode="&#x2d9;" horiz-adv-x="608" 
d="M305 1468q-43 0 -71.5 28.5t-28.5 66.5q0 40 28 68t72 28q43 0 70.5 -27.5t27.5 -68.5q0 -38 -27.5 -66.5t-70.5 -28.5z" />
    <glyph glyph-name="ring" unicode="&#x2da;" horiz-adv-x="741" 
d="M371 1423q-67 0 -116.5 47.5t-49.5 118.5t49.5 118.5t116.5 47.5t116.5 -47.5t49.5 -118.5t-49.5 -118.5t-116.5 -47.5zM281 1589q0 -40 24.5 -65t65.5 -25t65.5 25t24.5 65t-24.5 65t-65.5 25t-65.5 -25t-24.5 -65z" />
    <glyph glyph-name="ogonek" unicode="&#x2db;" horiz-adv-x="774" 
d="M496 -410q-126 0 -199.5 47.5t-73.5 143.5q0 46 18.5 82t54 62t72 42.5t85.5 32.5h77q-104 -36 -154 -83.5t-50 -115.5q0 -66 59 -96.5t190 -30.5h31l-82 -84h-28z" />
    <glyph glyph-name="tilde" unicode="&#x2dc;" horiz-adv-x="993" 
d="M205 1479q0 204 164 204q37 0 67 -11t48 -27t35 -35.5t29.5 -35.5t30.5 -27t39 -11q68 0 68 123h102q0 -205 -163 -205q-44 0 -77.5 15t-53.5 37t-37 44t-37.5 37t-44.5 15q-68 0 -68 -123h-102z" />
    <glyph glyph-name="hungarumlaut" unicode="&#x2dd;" horiz-adv-x="993" 
d="M573 1454h-129l236 229h108zM205 1454l235 229h111l-215 -229h-131z" />
    <glyph glyph-name="uni1E20" unicode="&#x1e20;" horiz-adv-x="884" 
d="M426 -20q-172 0 -254 109.5t-82 303.5v854q0 412 354 412q353 0 353 -412v-192h-125v200q0 89 -16 150t-48 94t-71 46.5t-93 13.5q-113 0 -171 -66t-58 -238v-868q0 -170 54 -238.5t177 -68.5q128 0 177 73.5t49 249.5v320h-228v98h353v-821h-88l-11 133
q-84 -153 -272 -153zM152 1835v82h583v-82h-583z" />
    <glyph glyph-name="uni1E21" unicode="&#x1e21;" horiz-adv-x="847" 
d="M623 -2v152q-31 -70 -93 -120t-161 -50q-137 0 -211 96.5t-74 283.5v613q0 187 76 283t211 96q171 0 252 -166v145h120v-1351q0 -100 -16 -169.5t-54.5 -121t-106 -75.5t-167.5 -24h-272v97h264q137 0 184.5 70.5t47.5 240.5zM113 1528v82h583v-82h-583zM205 365
q0 -140 43 -214.5t147 -74.5q59 0 104.5 27.5t71.5 72t39 94.5t13 103v585q0 53 -13 103t-39 94.5t-71.5 72t-104.5 27.5q-104 0 -147 -74.5t-43 -213.5v-602z" />
    <glyph glyph-name="Wgrave" unicode="&#x1e80;" horiz-adv-x="1441" 
d="M305 0l-268 1638h123l233 -1488l238 1488h182l236 -1488l2 -7v7l231 1488h123l-268 -1638h-176l-238 1468l-2 13l-2 -13l-238 -1468h-176zM428 1911l21 80l563 -152l-21 -78z" />
    <glyph glyph-name="wgrave" unicode="&#x1e81;" horiz-adv-x="1335" 
d="M958 1532l-20 -78l-563 150l20 79zM37 1331h119l215 -1173l215 1173h164l215 -1169l215 1169h118l-258 -1331h-145l-227 1200l-230 -1200h-143z" />
    <glyph glyph-name="Wacute" unicode="&#x1e82;" horiz-adv-x="1441" 
d="M305 0l-268 1638h123l233 -1488l238 1488h182l236 -1488l2 -7v7l231 1488h123l-268 -1638h-176l-238 1468l-2 13l-2 -13l-238 -1468h-176zM428 1839l563 152l21 -80l-563 -150z" />
    <glyph glyph-name="wacute" unicode="&#x1e83;" horiz-adv-x="1335" 
d="M395 1454l-20 78l563 151l20 -79zM37 1331h119l215 -1173l215 1173h164l215 -1169l215 1169h118l-258 -1331h-145l-227 1200l-230 -1200h-143z" />
    <glyph glyph-name="Wdieresis" unicode="&#x1e84;" horiz-adv-x="1441" 
d="M305 0l-268 1638h123l233 -1488l238 1488h182l236 -1488l2 -7v7l231 1488h123l-268 -1638h-176l-238 1468l-2 13l-2 -13l-238 -1468h-176zM473 1872q0 40 24.5 63t61.5 23t62.5 -23t25.5 -63q0 -37 -26 -60.5t-62 -23.5t-61 23.5t-25 60.5zM795 1872q0 40 24.5 63
t61.5 23t62.5 -23t25.5 -63q0 -37 -26 -60.5t-62 -23.5t-61 23.5t-25 60.5z" />
    <glyph glyph-name="wdieresis" unicode="&#x1e85;" horiz-adv-x="1335" 
d="M825 1481q-36 0 -61 23.5t-25 60.5q0 40 24.5 63t61.5 23t62.5 -23t25.5 -63q0 -37 -26 -60.5t-62 -23.5zM37 1331h119l215 -1173l215 1173h164l215 -1169l215 1169h118l-258 -1331h-145l-227 1200l-230 -1200h-143zM418 1565q0 40 24.5 63t61.5 23t62.5 -23t25.5 -63
q0 -37 -26 -60.5t-62 -23.5t-61 23.5t-25 60.5z" />
    <glyph glyph-name="uni1E9E" unicode="&#x1e9e;" horiz-adv-x="870" 
d="M104 1356q0 149 67 215.5t218 66.5h412q-28 -149 -49 -244t-42 -169.5t-42.5 -117.5t-45.5 -70t-57 -44q121 -47 178.5 -148.5t57.5 -303.5v-115q0 -426 -350 -426h-142v96h137q120 0 177 76.5t57 253.5v123q0 73 -7 129.5t-25.5 107t-48.5 83.5t-77.5 52t-111.5 19
l-101 2v96h101q111 0 151 76.5t110 377.5q7 30 11 46h-293q-84 0 -125 -37.5t-41 -130.5v-1370h-119v1356z" />
    <glyph glyph-name="uni1EBC" unicode="&#x1ebc;" horiz-adv-x="741" 
d="M106 0v1638h574v-100h-449v-668h433v-102h-433v-668h449v-100h-574zM102 1786q0 205 164 205q44 0 77.5 -15t53.5 -37t37 -44t37.5 -37t44.5 -15q68 0 68 123h102q0 -205 -164 -205q-44 0 -77.5 15t-53.5 37t-37 44t-37.5 37t-44.5 15q-67 0 -67 -123h-103z" />
    <glyph glyph-name="uni1EBD" unicode="&#x1ebd;" horiz-adv-x="819" 
d="M123 1479q0 204 164 204q44 0 77.5 -15t53.5 -36.5t37 -43.5t37.5 -37t44.5 -15q67 0 67 123h103q0 -205 -164 -205q-44 0 -77.5 15t-53.5 37t-37 44t-37.5 37t-44.5 15q-68 0 -68 -123h-102zM82 391v551q0 410 334 410q90 0 153.5 -28.5t100.5 -84t54 -128.5t17 -169
v-285h-538v-274q0 -90 16 -152t46 -95t67 -46.5t86 -13.5t84 13.5t63 46.5t42 94.5t14 152.5v41h120v-33q0 -199 -75 -305t-248 -106q-336 0 -336 411zM203 752h418v196q0 91 -14 152.5t-42 94.5t-63 46.5t-84 13.5t-86 -13.5t-67 -46.5t-46 -95t-16 -152v-196z" />
    <glyph glyph-name="Ygrave" unicode="&#x1ef2;" horiz-adv-x="776" 
d="M326 0v573l-299 1065h129l231 -895l231 895h130l-297 -1065v-573h-125zM94 1911l21 80l565 -152l-21 -78z" />
    <glyph glyph-name="ygrave" unicode="&#x1ef3;" horiz-adv-x="860" 
d="M637 -2v149q-79 -167 -268 -167q-137 0 -205 89.5t-68 276.5v985h121v-983q0 -136 41.5 -204t142.5 -68q62 0 109 27.5t73 72.5t39 96t13 105l2 -53v1007h119v-1333q0 -102 -16 -173t-54.5 -126t-109.5 -82t-177 -27h-260v97h246q79 0 128.5 17.5t76.5 58.5t37 95t10 140
zM127 1604l20 79l564 -151l-21 -78z" />
    <glyph glyph-name="uni1EF8" unicode="&#x1ef8;" horiz-adv-x="776" 
d="M326 0v573l-299 1065h129l231 -895l231 895h130l-297 -1065v-573h-125zM94 1786q0 205 166 205q44 0 77.5 -15t53.5 -37t37 -44t37.5 -37t44.5 -15q68 0 68 123h102q0 -205 -164 -205q-44 0 -77.5 15t-53.5 37t-37 44t-37.5 37t-44.5 15q-67 0 -67 -123h-105z" />
    <glyph glyph-name="uni1EF9" unicode="&#x1ef9;" horiz-adv-x="860" 
d="M637 -2v149q-79 -167 -268 -167q-137 0 -205 89.5t-68 276.5v985h121v-983q0 -136 41.5 -204t142.5 -68q62 0 109 27.5t73 72.5t39 96t13 105l2 -53v1007h119v-1333q0 -102 -16 -173t-54.5 -126t-109.5 -82t-177 -27h-260v97h246q79 0 128.5 17.5t76.5 58.5t37 95t10 140
zM127 1479q0 204 164 204q44 0 77.5 -15t53.5 -36.5t37 -43.5t37.5 -37t44.5 -15q67 0 67 123h103q0 -205 -164 -205q-44 0 -77.5 15t-53.5 37t-37 44t-37.5 37t-44.5 15q-68 0 -68 -123h-102z" />
    <glyph glyph-name="uni2000" unicode="&#x2000;" horiz-adv-x="1024" 
 />
    <glyph glyph-name="uni2001" unicode="&#x2001;" horiz-adv-x="2048" 
 />
    <glyph glyph-name="uni2002" unicode="&#x2002;" horiz-adv-x="1024" 
 />
    <glyph glyph-name="uni2003" unicode="&#x2003;" horiz-adv-x="2048" 
 />
    <glyph glyph-name="uni2004" unicode="&#x2004;" horiz-adv-x="681" 
 />
    <glyph glyph-name="uni2005" unicode="&#x2005;" horiz-adv-x="512" 
 />
    <glyph glyph-name="uni2006" unicode="&#x2006;" horiz-adv-x="342" 
 />
    <glyph glyph-name="uni2007" unicode="&#x2007;" horiz-adv-x="921" 
 />
    <glyph glyph-name="uni2008" unicode="&#x2008;" horiz-adv-x="331" 
 />
    <glyph glyph-name="uni2009" unicode="&#x2009;" horiz-adv-x="256" 
 />
    <glyph glyph-name="uni200A" unicode="&#x200a;" horiz-adv-x="86" 
 />
    <glyph glyph-name="uni200B" unicode="&#x200b;" horiz-adv-x="0" 
 />
    <glyph glyph-name="endash" unicode="&#x2013;" horiz-adv-x="1300" 
d="M57 721h1188v-86h-1188v86z" />
    <glyph glyph-name="emdash" unicode="&#x2014;" horiz-adv-x="2160" 
d="M57 721h2048v-88h-2048v88z" />
    <glyph glyph-name="quoteleft" unicode="&#x2018;" horiz-adv-x="266" 
d="M154 1147h-107l82 512h86z" />
    <glyph glyph-name="quoteright" unicode="&#x2019;" horiz-adv-x="266" 
d="M117 1659h106l-82 -512h-86z" />
    <glyph glyph-name="quotesinglbase" unicode="&#x201a;" horiz-adv-x="249" 
d="M90 268h107l-82 -512h-86z" />
    <glyph glyph-name="quotedblleft" unicode="&#x201c;" horiz-adv-x="436" 
d="M324 1147h-107l82 512h86zM47 1147l82 512h86l-61 -512h-107z" />
    <glyph glyph-name="quotedblright" unicode="&#x201d;" horiz-adv-x="434" 
d="M117 1659h106l-82 -512h-86zM223 1147l62 512h106l-82 -512h-86z" />
    <glyph glyph-name="quotedblbase" unicode="&#x201e;" horiz-adv-x="419" 
d="M90 268h107l-82 -512h-86zM197 -244l61 512h107l-82 -512h-86z" />
    <glyph glyph-name="dagger" unicode="&#x2020;" horiz-adv-x="423" 
d="M162 635v604h-117v92h117v307h102v-307h117v-92h-117v-604h-102z" />
    <glyph glyph-name="daggerdbl" unicode="&#x2021;" horiz-adv-x="471" 
d="M184 635v287h-116v92h116v225h-116v92h116v307h103v-307h116v-92h-116v-225h116v-92h-116v-287h-103z" />
    <glyph glyph-name="bullet" unicode="&#x2022;" horiz-adv-x="589" 
d="M295 526q-83 0 -138 54t-55 139t55 138.5t138 53.5q79 0 135.5 -54t56.5 -138t-56.5 -138.5t-135.5 -54.5z" />
    <glyph glyph-name="ellipsis" unicode="&#x2026;" horiz-adv-x="925" 
d="M166 -20q-48 0 -80.5 31t-32.5 81t32.5 81.5t80.5 31.5q46 0 79.5 -32t33.5 -81t-33.5 -80.5t-79.5 -31.5zM352 92q0 50 32.5 81.5t80.5 31.5q46 0 79.5 -32t33.5 -81t-33.5 -80.5t-79.5 -31.5q-48 0 -80.5 31t-32.5 81zM647 92q0 50 32.5 81.5t80.5 31.5q46 0 79 -31.5
t33 -81.5q0 -49 -33 -80.5t-79 -31.5q-48 0 -80.5 31t-32.5 81z" />
    <glyph glyph-name="uni202F" unicode="&#x202f;" horiz-adv-x="294" 
 />
    <glyph glyph-name="perthousand" unicode="&#x2030;" horiz-adv-x="1753" 
d="M1464 -20q-68 0 -119.5 26t-80.5 71.5t-42.5 98.5t-13.5 115t13.5 115.5t42.5 98.5t80 71t120 26q68 0 118.5 -26t79.5 -71t42.5 -98.5t13.5 -115.5q0 -61 -13.5 -114.5t-42.5 -99t-79.5 -71.5t-118.5 -26zM35 1348q0 62 13.5 115.5t42.5 98.5t80 71t120 26
q68 0 118.5 -26t79.5 -71t42.5 -98.5t13.5 -115.5t-13.5 -116t-42.5 -99t-79.5 -71t-118.5 -26q-69 0 -120 26t-80 71t-42.5 99t-13.5 116zM147 1348q0 -100 33 -155.5t111 -55.5q77 0 109 55.5t32 155.5q0 211 -141 211q-144 0 -144 -211zM291 0l493 1638h95l-496 -1638
h-92zM627 291q0 62 13.5 115.5t42 98.5t79 71t119.5 26q68 0 118.5 -26t79.5 -71t42.5 -98.5t13.5 -115.5q0 -61 -13.5 -114.5t-42.5 -99t-79.5 -71.5t-118.5 -26t-119 26t-79.5 71.5t-42 98.5t-13.5 115zM737 291q0 -211 144 -211q143 0 143 211t-143 211q-78 0 -111 -55.5
t-33 -155.5zM1321 291q0 -211 143 -211q142 0 142 211t-142 211q-78 0 -110.5 -55t-32.5 -156z" />
    <glyph glyph-name="second" unicode="&#x2033;" horiz-adv-x="430" 
d="M78 1638h106v-512h-106v512zM246 1126v512h106v-512h-106z" />
    <glyph glyph-name="guilsinglleft" unicode="&#x2039;" horiz-adv-x="436" 
d="M358 307l-305 328v82l305 327v-124l-227 -244l227 -244v-125z" />
    <glyph glyph-name="guilsinglright" unicode="&#x203a;" horiz-adv-x="436" 
d="M78 307v125l227 244l-227 244v124l305 -327v-82z" />
    <glyph glyph-name="fraction" unicode="&#x2044;" horiz-adv-x="163" 
d="M373 1638l-496 -1638h-84l494 1638h86z" />
    <glyph glyph-name="uni205F" unicode="&#x205f;" horiz-adv-x="454" 
 />
    <glyph glyph-name="uni2070" unicode="&#x2070;" horiz-adv-x="489" 
d="M244 702q-185 0 -185 218v405q0 217 185 217q186 0 186 -217v-405q0 -218 -186 -218zM152 956l182 433q-7 45 -29.5 62t-60.5 17q-45 0 -68.5 -26.5t-23.5 -95.5v-390zM160 836q15 -60 84 -60q46 0 69 27t23 98v359z" />
    <glyph glyph-name="uni2074" unicode="&#x2074;" horiz-adv-x="436" 
d="M348 1532v-578h55v-73h-55v-168h-90v168h-229v80l233 571h86zM98 954h160v406z" />
    <glyph glyph-name="uni2075" unicode="&#x2075;" horiz-adv-x="458" 
d="M262 1262q72 0 113 -51.5t41 -151.5v-129q0 -228 -189 -228q-89 0 -135.5 57.5t-46.5 166.5v35h94v-54q0 -131 92 -131q93 0 93 127v154q0 129 -86 129q-80 0 -95 -121h-90l21 467h305v-74h-221l-13 -268q37 72 117 72z" />
    <glyph glyph-name="uni2076" unicode="&#x2076;" horiz-adv-x="479" 
d="M244 702q-185 0 -185 224v385q0 112 42 171.5t137 59.5q96 0 137 -56t41 -145v-20h-92v18q0 64 -19.5 93.5t-64.5 29.5q-46 0 -67 -29t-21 -94v-143q45 66 122 66q76 0 116 -54t40 -153v-135q0 -104 -47.5 -161t-138.5 -57zM152 903q0 -72 24.5 -99.5t69.5 -27.5t67.5 30
t22.5 97v156q0 61 -22 94t-64 33q-46 0 -72 -35t-26 -92v-156z" />
    <glyph glyph-name="uni2077" unicode="&#x2077;" horiz-adv-x="411" 
d="M27 1458v74h352v-74q-101 -165 -138.5 -333t-37.5 -390v-22h-90v20q0 220 41 389t145 336h-272z" />
    <glyph glyph-name="uni2078" unicode="&#x2078;" horiz-adv-x="466" 
d="M233 702q-94 0 -139 48.5t-45 148.5v64q0 153 105 182q-97 28 -97 158v57q0 85 44 133.5t132 48.5q89 0 133 -48.5t44 -133.5v-57q0 -130 -97 -158q105 -26 105 -182v-64q0 -100 -45 -148.5t-140 -48.5zM143 893q0 -71 22.5 -94t67.5 -23q46 0 69.5 23.5t23.5 93.5v94
q0 67 -24.5 93t-68.5 26t-67 -26t-23 -93v-94zM150 1284q0 -56 20.5 -80t62.5 -24q84 0 84 104v82q0 55 -21 78.5t-63 23.5t-62.5 -23.5t-20.5 -78.5v-82z" />
    <glyph glyph-name="uni2079" unicode="&#x2079;" horiz-adv-x="479" 
d="M236 1542q184 0 184 -221v-387q0 -112 -41.5 -172t-136.5 -60q-97 0 -138 56.5t-41 144.5v21h93v-19q0 -64 19.5 -93.5t64.5 -29.5q46 0 67 29.5t21 93.5v144q-46 -66 -123 -66q-76 0 -116 54.5t-40 152.5v135q0 105 47.5 161t139.5 56zM143 1186q0 -127 86 -127
q46 0 72.5 35.5t26.5 91.5v157q0 71 -25.5 98t-69.5 27q-46 0 -68 -29t-22 -96v-157z" />
    <glyph glyph-name="uni2080" unicode="&#x2080;" horiz-adv-x="489" 
d="M244 -266q-185 0 -185 217v405q0 217 185 217q186 0 186 -217v-405q0 -217 -186 -217zM152 -12l182 432q-7 45 -29.5 62.5t-60.5 17.5q-45 0 -68.5 -27t-23.5 -96v-389zM160 -133q15 -60 84 -60q46 0 69 27t23 98v359z" />
    <glyph glyph-name="uni2081" unicode="&#x2081;" horiz-adv-x="391" 
d="M41 -182h117v628q-37 -57 -121 -57v80q88 0 127 94h82v-745h119v-74h-324v74z" />
    <glyph glyph-name="uni2082" unicode="&#x2082;" horiz-adv-x="454" 
d="M43 -176q0 89 25.5 151t97.5 136l74 73q79 79 79 187v12q0 68 -23.5 92.5t-66.5 24.5q-42 0 -64 -25t-22 -94v-62h-94v52q0 202 180 202q183 0 183 -206q0 -58 -19.5 -109t-39.5 -77t-52 -60l-78 -78q-53 -53 -69.5 -93t-16.5 -132h273v-74h-367v80z" />
    <glyph glyph-name="uni2083" unicode="&#x2083;" horiz-adv-x="464" 
d="M229 -266q-184 0 -184 205v53h92v-62q0 -72 23 -97.5t67 -25.5q48 0 71.5 28.5t23.5 96.5v70q0 40 -9.5 68.5t-25 41t-29 17t-27.5 4.5h-67v74h67q34 0 62.5 24.5t28.5 87.5v60q0 70 -25.5 95.5t-67.5 25.5q-45 0 -68.5 -25t-23.5 -94v-55h-92v47q0 200 184 200
q97 0 141 -58t44 -140v-35q0 -62 -27 -106.5t-76 -59.5q103 -39 103 -188v-41q0 -96 -43.5 -153.5t-141.5 -57.5z" />
    <glyph glyph-name="uni2084" unicode="&#x2084;" horiz-adv-x="436" 
d="M348 563v-577h55v-74h-55v-168h-90v168h-229v80l233 571h86zM98 -14h160v405z" />
    <glyph glyph-name="uni2085" unicode="&#x2085;" horiz-adv-x="458" 
d="M262 293q72 0 113 -51.5t41 -151.5v-129q0 -227 -189 -227q-89 0 -135.5 57t-46.5 166v35h94v-53q0 -132 92 -132q93 0 93 127v154q0 129 -86 129q-80 0 -95 -121h-90l21 467h305v-74h-221l-13 -268q37 72 117 72z" />
    <glyph glyph-name="uni2086" unicode="&#x2086;" horiz-adv-x="479" 
d="M244 -266q-185 0 -185 223v385q0 112 42 171.5t137 59.5q178 0 178 -200v-21h-92v19q0 64 -19.5 93.5t-64.5 29.5q-46 0 -67 -29t-21 -94v-144q45 66 122 66q76 0 116 -54t40 -153v-135q0 -104 -47.5 -160.5t-138.5 -56.5zM152 -66q0 -72 24.5 -99.5t69.5 -27.5t67.5 30
t22.5 97v156q0 61 -22 94t-64 33q-46 0 -72 -35t-26 -92v-156z" />
    <glyph glyph-name="uni2087" unicode="&#x2087;" horiz-adv-x="411" 
d="M27 489v74h352v-74q-101 -165 -138.5 -332.5t-37.5 -389.5v-23h-90v20q0 220 41 389t145 336h-272z" />
    <glyph glyph-name="uni2088" unicode="&#x2088;" horiz-adv-x="466" 
d="M233 -266q-94 0 -139 48t-45 148v64q0 153 105 182q-97 28 -97 158v57q0 85 44 133.5t132 48.5q89 0 133 -48.5t44 -133.5v-57q0 -130 -97 -158q105 -26 105 -182v-64q0 -100 -45 -148t-140 -48zM143 -76q0 -71 22.5 -94t67.5 -23q46 0 69.5 23.5t23.5 93.5v94
q0 67 -24.5 93t-68.5 26t-67 -26t-23 -93v-94zM150 315q0 -56 20.5 -80t62.5 -24q84 0 84 104v82q0 103 -84 103q-41 0 -62 -24t-21 -79v-82z" />
    <glyph glyph-name="uni2089" unicode="&#x2089;" horiz-adv-x="479" 
d="M236 573q184 0 184 -221v-387q0 -112 -41.5 -171.5t-136.5 -59.5q-97 0 -138 56t-41 144v21h93v-18q0 -64 19.5 -93.5t64.5 -29.5q46 0 67 29.5t21 93.5v143q-46 -66 -123 -66q-76 0 -116 54.5t-40 152.5v135q0 105 47.5 161t139.5 56zM143 217q0 -127 86 -127
q46 0 72.5 35.5t26.5 91.5v158q0 71 -25.5 98t-69.5 27q-46 0 -68 -29t-22 -96v-158z" />
    <glyph glyph-name="Euro" unicode="&#x20ac;" horiz-adv-x="993" 
d="M68 698v82h139v78h-139v82h139v307q0 412 352 412t352 -412v-276h-125v284q0 89 -16 150t-47.5 94t-70.5 46.5t-93 13.5t-93 -13.5t-70.5 -46.5t-47.5 -94t-16 -150v-315h299v-82h-299v-78h299v-82h-299v-311q0 -91 16 -152.5t47.5 -94.5t70.5 -46.5t93 -13.5t93 13.5
t70.5 46.5t47.5 94.5t16 152.5v281h125v-273q0 -199 -83 -307t-269 -108q-352 0 -352 415v303h-139z" />
    <glyph glyph-name="trademark" unicode="&#x2122;" horiz-adv-x="1042" 
d="M426 838v800h139l125 -620l127 620h135v-800h-106v514l-103 -514h-106l-105 516v-516h-106zM41 1530v108h342v-108h-117v-692h-108v692h-117z" />
    <glyph glyph-name="oneeighth" unicode="&#x215b;" horiz-adv-x="1282" 
d="M51 893h117v629q-38 -58 -121 -58v80q88 0 127 94h82v-745h119v-74h-324v74zM317 0l496 1638h86l-496 -1638h-86zM858 186v64q0 153 105 182q-97 28 -97 158v57q0 85 44 133.5t132 48.5q89 0 133 -48.5t44 -133.5v-57q0 -130 -97 -158q105 -26 105 -182v-64
q0 -100 -45 -148t-140 -48q-94 0 -139 48t-45 148zM952 180q0 -71 22.5 -94t67.5 -23q46 0 69.5 23.5t23.5 93.5v94q0 67 -24.5 93t-68.5 26t-67 -26t-23 -93v-94zM958 571q0 -56 21 -80t63 -24q84 0 84 104v82q0 103 -84 103t-84 -103v-82z" />
    <glyph glyph-name="threeeighths" unicode="&#x215c;" horiz-adv-x="1355" 
d="M244 809q-185 0 -185 205v53h93v-61q0 -72 23 -97.5t67 -25.5q48 0 71 28.5t23 96.5v69q0 40 -9.5 68.5t-24.5 41t-28.5 17t-27.5 4.5h-68v74h68q33 0 61.5 25t28.5 88v59q0 70 -25 95.5t-67 25.5q-45 0 -68.5 -25t-23.5 -94v-55h-93v47q0 201 185 201q97 0 140.5 -58.5
t43.5 -140.5v-35q0 -63 -26.5 -107t-75.5 -59q102 -38 102 -188v-41q0 -211 -184 -211zM391 0l496 1638h84l-496 -1638h-84zM932 186v64q0 154 104 182q-96 28 -96 158v57q0 85 44 133.5t132 48.5q89 0 132.5 -48.5t43.5 -133.5v-57q0 -130 -96 -158q104 -26 104 -182v-64
q0 -100 -44.5 -148t-139.5 -48q-94 0 -139 48t-45 148zM1026 180q0 -71 22.5 -94t67.5 -23q46 0 69 23.5t23 93.5v94q0 67 -24 93t-68 26t-67 -26t-23 -93v-94zM1032 571q0 -56 21 -80t63 -24q84 0 84 104v82q0 103 -84 103t-84 -103v-82z" />
    <glyph glyph-name="fiveeighths" unicode="&#x215d;" horiz-adv-x="1343" 
d="M268 1368q72 0 113 -51.5t41 -151.5v-129q0 -227 -189 -227q-89 0 -135.5 57t-46.5 166v35h94v-53q0 -131 93 -131q92 0 92 127v153q0 129 -86 129q-79 0 -94 -121h-91l21 467h305v-73h-221l-12 -269q37 72 116 72zM379 0l495 1638h87l-496 -1638h-86zM920 186v64
q0 154 104 182q-96 28 -96 158v57q0 85 44 133.5t132 48.5q89 0 132.5 -48.5t43.5 -133.5v-57q0 -130 -96 -158q104 -26 104 -182v-64q0 -100 -44.5 -148t-139.5 -48q-94 0 -139 48t-45 148zM1014 180q0 -71 22.5 -94t67.5 -23q46 0 69 23.5t23 93.5v94q0 67 -24 93t-68 26
t-67 -26t-23 -93v-94zM1020 571q0 -56 21 -80t63 -24q84 0 84 104v82q0 103 -84 103t-84 -103v-82z" />
    <glyph glyph-name="seveneighths" unicode="&#x215e;" horiz-adv-x="1288" 
d="M27 1565v73h352v-73q-101 -165 -138.5 -333t-37.5 -390v-23h-90v21q0 220 41 389t145 336h-272zM324 0l495 1638h86l-495 -1638h-86zM864 186v64q0 153 105 182q-97 28 -97 158v57q0 85 44.5 133.5t132.5 48.5q89 0 132.5 -48.5t43.5 -133.5v-57q0 -130 -97 -158
q105 -26 105 -182v-64q0 -100 -44.5 -148t-139.5 -48q-94 0 -139.5 48t-45.5 148zM958 180q0 -71 22.5 -94t68.5 -23t69 23.5t23 93.5v94q0 67 -24 93t-68 26t-67.5 -26t-23.5 -93v-94zM965 571q0 -56 21 -80t63 -24q84 0 84 104v82q0 103 -84 103t-84 -103v-82z" />
    <glyph glyph-name="arrowleft" unicode="&#x2190;" horiz-adv-x="944" 
d="M197 635q94 -47 162.5 -133.5t82.5 -225.5h-102q-14 127 -98 221t-189 138v82q106 44 189.5 137.5t97.5 220.5h102q-24 -248 -245 -358h696v-82h-696z" />
    <glyph glyph-name="arrowup" unicode="&#x2191;" horiz-adv-x="903" 
d="M492 250h-82v696q-111 -222 -359 -246v103q127 14 221 98t138 189h82q44 -106 137.5 -189.5t220.5 -97.5v-103q-247 24 -358 246v-696z" />
    <glyph glyph-name="arrowright" unicode="&#x2192;" horiz-adv-x="944" 
d="M51 635v82h697q-222 111 -246 358h102q14 -127 97.5 -220.5t189.5 -137.5v-82q-105 -44 -189 -138t-98 -221h-102q24 248 246 359h-697z" />
    <glyph glyph-name="arrowdown" unicode="&#x2193;" horiz-adv-x="903" 
d="M410 1104h82v-696q110 221 358 245v-102q-127 -14 -220.5 -97.5t-137.5 -189.5h-82q-44 105 -138 189t-221 98v102q139 -14 225.5 -82.5t133.5 -162.5v696z" />
    <glyph glyph-name="arrowboth" unicode="&#x2194;" horiz-adv-x="1193" 
d="M53 737q104 35 188.5 127.5t98.5 220.5h102q-14 -140 -84 -225.5t-161 -122.5h798q-91 37 -161 122.5t-84 225.5h102q14 -128 98.5 -220.5t188.5 -127.5v-102q-104 -35 -188.5 -127.5t-98.5 -220.5h-102q14 140 84 225.5t161 122.5h-798q91 -37 161 -122.5t84 -225.5
h-102q-14 128 -98.5 220.5t-188.5 127.5v102z" />
    <glyph glyph-name="arrowupdn" unicode="&#x2195;" horiz-adv-x="927" 
d="M516 1227q35 -104 127.5 -188.5t220.5 -98.5v-102q-140 14 -225.5 84t-122.5 161v-798q37 91 122.5 161t225.5 84v-102q-128 -14 -220.5 -98.5t-127.5 -188.5h-102q-35 104 -127.5 188.5t-220.5 98.5v102q140 -14 225.5 -84t122.5 -161v798q-37 -91 -122.5 -161
t-225.5 -84v102q128 14 220.5 98.5t127.5 188.5h102z" />
    <glyph glyph-name="uni2196" unicode="&#x2196;" horiz-adv-x="790" 
d="M750 385l-58 -57l-493 491q79 -234 -80 -426l-72 72q55 68 75 155.5t11.5 161t-35.5 140.5l58 57q67 -28 140.5 -36.5t160.5 12t155 75.5l72 -74q-191 -154 -426 -79z" />
    <glyph glyph-name="uni2197" unicode="&#x2197;" horiz-adv-x="790" 
d="M98 328l-57 59l491 492q-235 -80 -426 79l72 72q68 -54 155 -74t161.5 -11.5t140.5 36.5l57 -59q-28 -67 -36.5 -141t12 -160t75.5 -154l-73 -74q-157 195 -78 428z" />
    <glyph glyph-name="uni2198" unicode="&#x2198;" horiz-adv-x="790" 
d="M41 977l57 57l492 -491q-75 234 80 426l73 -72q-55 -68 -75.5 -155t-12 -161t36.5 -141l-59 -57q-67 28 -141 36.5t-160 -12t-154 -75.5l-74 71q195 159 428 80z" />
    <glyph glyph-name="uni2199" unicode="&#x2199;" horiz-adv-x="792" 
d="M692 1034l60 -57l-494 -492q236 76 428 -79l-74 -74q-68 55 -154 75.5t-159.5 12t-140.5 -36.5l-60 57q28 68 36.5 142t-11.5 160t-74 155l72 74q159 -195 80 -428z" />
    <glyph glyph-name="uni21E7" unicode="&#x21e7;" horiz-adv-x="1689" 
d="M475 -14v604h-426l795 883l794 -883h-426v-604h-737zM279 692h299v-604h532v604h299l-565 629z" />
    <glyph glyph-name="partialdiff" unicode="&#x2202;" horiz-adv-x="1015" 
d="M498 -225q-95 0 -178.5 37.5t-144.5 104.5t-96.5 166t-35.5 216q0 70 13.5 136.5t46 132.5t81 115t124 79.5t169.5 30.5q113 0 201.5 -48t144.5 -131q-50 258 -193 428.5t-388 276.5l41 94q120 -52 217 -117.5t183 -160.5t144 -211t91.5 -271.5t33.5 -339.5
q0 -244 -124 -391t-330 -147zM145 299q0 -195 102 -314.5t251 -119.5q165 0 258.5 125.5t93.5 322.5q0 86 -23.5 154.5t-61.5 111.5t-88 71.5t-99.5 40t-100.5 11.5q-81 0 -145.5 -32t-104.5 -88t-61 -128t-21 -155z" />
    <glyph glyph-name="emptyset" unicode="&#x2205;" horiz-adv-x="1236" 
d="M621 266q-71 0 -148 17l-104 -283h-105l117 311q-151 65 -233 201.5t-82 308.5q0 112 37.5 211.5t106 175.5t175 120t236.5 44q75 0 147 -16l104 282h105l-117 -313q148 -63 229.5 -199t81.5 -305q0 -153 -63 -277.5t-190 -201t-297 -76.5zM168 821q0 -142 62 -255.5
t182 -168.5l323 873q-53 12 -114 12q-113 0 -201.5 -37.5t-142.5 -102.5t-81.5 -146.5t-27.5 -174.5zM506 367q64 -11 115 -11q111 0 198.5 37.5t141 103t81 148t27.5 176.5q0 140 -61 252.5t-179 167.5z" />
    <glyph glyph-name="product" unicode="&#x220f;" horiz-adv-x="894" 
d="M600 -225v1554h-305v-1554h-102v1554h-164v86h839v-86h-166v-1554h-102z" />
    <glyph glyph-name="summation" unicode="&#x2211;" horiz-adv-x="923" 
d="M41 -236v82l440 746l-440 749v82h840v-82h-725l440 -747l-440 -748h725v-82h-840z" />
    <glyph glyph-name="minus" unicode="&#x2212;" horiz-adv-x="948" 
d="M55 858h840v-86h-840v86z" />
    <glyph glyph-name="radical" unicode="&#x221a;" horiz-adv-x="1134" 
d="M340 -225l-291 733h109l245 -631l326 1536h361v-82h-279l-334 -1556h-137z" />
    <glyph glyph-name="infinity" unicode="&#x221e;" horiz-adv-x="1212" 
d="M924 410q-80 0 -155.5 52t-162.5 144q-87 -92 -162 -144t-155 -52q-40 0 -78.5 14.5t-72.5 44.5t-54.5 83.5t-20.5 123.5t20.5 123.5t54.5 83.5t72.5 44.5t78.5 14.5q80 0 155 -52t162 -145q87 93 162.5 145t155.5 52q40 0 78.5 -14.5t72 -44.5t54 -83.5t20.5 -123.5
t-20.5 -123.5t-54 -83.5t-72 -44.5t-78.5 -14.5zM166 676q0 -164 133 -164q54 0 109 41.5t133 122.5q-78 81 -133 122.5t-109 41.5q-133 0 -133 -164zM672 676q77 -81 133 -122.5t110 -41.5q66 0 99 43t33 121t-33 121t-99 43q-54 0 -110 -41.5t-133 -122.5z" />
    <glyph glyph-name="integral" unicode="&#x222b;" horiz-adv-x="657" 
d="M25 -225v84h36q71 0 115.5 15.5t66.5 50t29 75t7 106.5v971q0 61 7 107t27.5 91t54.5 74t92.5 46.5t137.5 17.5h37v-84h-37q-71 0 -115 -15.5t-66 -50.5t-29 -75.5t-7 -106.5v-970q0 -61 -7 -107t-27.5 -91t-55 -74t-93 -46.5t-137.5 -17.5h-36z" />
    <glyph glyph-name="approxequal" unicode="&#x2248;" horiz-adv-x="991" 
d="M76 891q0 69 19.5 116.5t53 69.5t65 30.5t67.5 8.5q67 0 131.5 -29t107 -63t94.5 -63t97 -29q47 0 74.5 31.5t27.5 91.5h102q0 -56 -13.5 -98t-34 -66t-49.5 -38.5t-54 -19t-53 -4.5q-67 0 -131.5 29t-107 63.5t-94.5 63.5t-97 29q-47 0 -75 -31.5t-28 -91.5h-102z
M76 563q0 69 19.5 116.5t53 69.5t65 30.5t67.5 8.5q67 0 131.5 -29t107 -63t94.5 -63t97 -29q47 0 74.5 31.5t27.5 91.5h102q0 -69 -19.5 -116.5t-52.5 -69.5t-64.5 -30.5t-67.5 -8.5q-67 0 -131.5 29t-107 63t-94.5 63t-97 29q-47 0 -75 -31.5t-28 -91.5h-102z" />
    <glyph glyph-name="notequal" unicode="&#x2260;" horiz-adv-x="999" 
d="M266 295l140 371h-326v86h356l45 118h-401v86h432l139 371h103l-140 -371h306v-86h-336l-45 -118h381v-86h-412l-139 -371h-103z" />
    <glyph glyph-name="lessequal" unicode="&#x2264;" horiz-adv-x="991" 
d="M72 881l839 325v-102l-696 -264l696 -265v-157h-839v86h759l-759 295v82z" />
    <glyph glyph-name="greaterequal" unicode="&#x2265;" horiz-adv-x="991" 
d="M80 575l696 265l-696 264v102l840 -325v-82l-760 -295h760v-86h-840v157z" />
    <glyph glyph-name="uni2317" unicode="&#x2317;" horiz-adv-x="1474" 
d="M72 887v102h393v393h102v-393h340v393h103v-393h393v-102h-393v-340h393v-103h-393v-393h-103v393h-340v-393h-102v393h-393v103h393v340h-393zM567 547h340v340h-340v-340z" />
    <glyph glyph-name="uni2318" unicode="&#x2318;" horiz-adv-x="1550" 
d="M344 14q-124 0 -198 74t-74 199q0 134 91.5 208t270.5 74h90v295h-90q-178 0 -270 74.5t-92 208.5q0 125 74 198.5t198 73.5q134 0 208.5 -92t74.5 -270v-90h295v90q0 179 74 270.5t208 91.5q125 0 199 -74t74 -198q0 -134 -92 -208.5t-271 -74.5h-90v-295h90
q179 0 271 -74t92 -208q0 -125 -74.5 -199t-198.5 -74q-134 0 -208 92t-74 271v90h-295v-90q0 -179 -74.5 -271t-208.5 -92zM174 287q0 -88 41 -129t129 -41q95 0 137.5 59t42.5 201v90h-90q-142 0 -201 -42.5t-59 -137.5zM174 1147q0 -95 59 -137.5t201 -42.5h90v90
q0 142 -42.5 201t-137.5 59q-88 0 -129 -41t-41 -129zM627 569h295v295h-295v-295zM1024 377q0 -142 42.5 -201t137.5 -59q88 0 129 41t41 129q0 95 -59 137.5t-201 42.5h-90v-90zM1024 967h90q142 0 201 42.5t59 137.5q0 88 -41 129t-129 41q-95 0 -137.5 -59t-42.5 -201
v-90z" />
    <glyph glyph-name="uni2325" unicode="&#x2325;" horiz-adv-x="1546" 
d="M846 115l-490 1102h-333v102h399l491 -1102h541v-102h-608zM758 1217v102h696v-102h-696z" />
    <glyph glyph-name="filledbox" unicode="&#x25a0;" horiz-adv-x="1325" 
d="M102 158v1118h1119v-1118h-1119z" />
    <glyph glyph-name="uni25A1" unicode="&#x25a1;" horiz-adv-x="1325" 
d="M102 158v1118h1119v-1118h-1119zM205 260h913v914h-913v-914z" />
    <glyph glyph-name="triagup" unicode="&#x25b2;" horiz-adv-x="1429" 
d="M33 31l682 1179l680 -1179h-1362z" />
    <glyph glyph-name="uni25B3" unicode="&#x25b3;" horiz-adv-x="1499" 
d="M39 31l711 1231l710 -1231h-1421zM215 133h1067l-532 924z" />
    <glyph glyph-name="uni25B6" unicode="&#x25b6;" horiz-adv-x="1331" 
d="M104 1393l1180 -680l-1180 -682v1362z" />
    <glyph glyph-name="uni25B7" unicode="&#x25b7;" horiz-adv-x="1386" 
d="M104 -6v1421l1231 -710zM207 170l923 535l-923 532v-1067z" />
    <glyph glyph-name="triagdn" unicode="&#x25bc;" horiz-adv-x="1447" 
d="M1405 1210l-682 -1179l-680 1179h1362z" />
    <glyph glyph-name="uni25BD" unicode="&#x25bd;" horiz-adv-x="1507" 
d="M754 -20l-711 1230h1421zM221 1108l533 -924l534 924h-1067z" />
    <glyph glyph-name="uni25C0" unicode="&#x25c0;" horiz-adv-x="1331" 
d="M1227 31l-1180 682l1180 680v-1362z" />
    <glyph glyph-name="uni25C1" unicode="&#x25c1;" horiz-adv-x="1386" 
d="M1282 -6l-1231 711l1231 710v-1421zM256 705l924 -535v1067z" />
    <glyph glyph-name="uni25C6" unicode="&#x25c6;" horiz-adv-x="1445" 
d="M723 51l-668 666l668 667l666 -667z" />
    <glyph glyph-name="uni25C7" unicode="&#x25c7;" horiz-adv-x="1486" 
d="M741 29l-686 688l688 688l687 -688zM199 717l544 -543l543 543l-545 543z" />
    <glyph glyph-name="lozenge" unicode="&#x25ca;" horiz-adv-x="763" 
d="M307 1280h148l250 -614l-250 -615h-148l-250 615zM168 666l213 -525l213 525l-213 524z" />
    <glyph glyph-name="circle" unicode="&#x25cb;" horiz-adv-x="1382" 
d="M692 92q-127 0 -243 49.5t-199.5 133.5t-132.5 199.5t-49 242.5t49 242.5t132.5 199t199.5 133t243 49.5q169 0 312.5 -83.5t227 -227.5t83.5 -313t-83.5 -313t-227 -228t-312.5 -84zM170 717q0 -221 150.5 -370.5t371.5 -149.5q144 0 263.5 68t188 187.5t68.5 264.5
t-68.5 264.5t-188 187.5t-263.5 68q-221 0 -371.5 -149.5t-150.5 -370.5z" />
    <glyph glyph-name="uni25CF" unicode="&#x25cf;" horiz-adv-x="1382" 
d="M692 94q-127 0 -243 49.5t-199.5 133t-132.5 198.5t-49 242t49 242.5t132.5 199t199.5 133t243 49.5q169 0 312.5 -83.5t227 -227.5t83.5 -313t-83.5 -312.5t-227 -227t-312.5 -83.5z" />
    <glyph glyph-name="uni2B1B" unicode="&#x2b1b;" horiz-adv-x="2054" 
d="M168 -143v1720h1720v-1720h-1720z" />
    <glyph glyph-name="uni2B1C" unicode="&#x2b1c;" horiz-adv-x="2054" 
d="M168 -143v1720h1720v-1720h-1720zM270 -41h1516v1516h-1516v-1516z" />
    <glyph glyph-name="uni2B98" unicode="&#x2b98;" horiz-adv-x="1413" 
d="M1354 -39l-1288 744l1288 743l-322 -743zM270 705h650l217 499z" />
    <glyph glyph-name="uni2B99" unicode="&#x2b99;" horiz-adv-x="1515" 
d="M14 -27l744 1289l743 -1289l-743 322zM758 408l499 -218l-499 867v-649z" />
    <glyph glyph-name="uni2B9A" unicode="&#x2b9a;" horiz-adv-x="1413" 
d="M59 -39l322 744l-322 743l1289 -743zM276 1204l218 -499h649z" />
    <glyph glyph-name="uni2B9B" unicode="&#x2b9b;" horiz-adv-x="1519" 
d="M760 -20l-744 1288l744 -322l743 322zM260 1051l500 -867v650z" />
    <glyph glyph-name="uni2B9C" unicode="&#x2b9c;" horiz-adv-x="1312" 
d="M1243 31l-1180 682l1180 680l-295 -680z" />
    <glyph glyph-name="uni2B9D" unicode="&#x2b9d;" horiz-adv-x="1402" 
d="M20 31l682 1179l680 -1179l-680 295z" />
    <glyph glyph-name="uni2B9E" unicode="&#x2b9e;" horiz-adv-x="1312" 
d="M68 31l294 682l-294 680l1179 -680z" />
    <glyph glyph-name="uni2B9F" unicode="&#x2b9f;" horiz-adv-x="1402" 
d="M700 31l-680 1179l680 -295l682 295z" />
    <glyph glyph-name="uni3000" unicode="&#x3000;" horiz-adv-x="2048" 
 />
    <glyph glyph-name="uni004A0301" horiz-adv-x="825" 
d="M389 -20q-336 0 -336 415v176h125v-184q0 -90 16 -152t46 -95t66 -46.5t83 -13.5q99 0 154 67t55 240v1251h125v-1243q0 -415 -334 -415zM367 1839l563 152l20 -80l-563 -150z" />
    <glyph glyph-name="I.bracket" horiz-adv-x="468" 
d="M172 0v1638h125v-1638h-125z" />
    <glyph glyph-name="A.ss01" horiz-adv-x="1671" 
d="M27 0l741 1638h133l744 -1638h-138l-168 373h-1007l-168 -373h-137zM383 487h905l-442 986l-12 28l-11 -28z" />
    <glyph glyph-name="Aacute.ss01" horiz-adv-x="1671" 
d="M27 0l741 1638h133l744 -1638h-138l-168 373h-1007l-168 -373h-137zM276 1839l1096 152l21 -80l-1096 -152zM383 487h905l-442 986l-12 28l-11 -28z" />
    <glyph glyph-name="Abreve.ss01" horiz-adv-x="1671" 
d="M27 0l741 1638h133l744 -1638h-138l-168 373h-1007l-168 -373h-137zM338 2001h102q0 -44 27.5 -73.5t82.5 -46t124 -23.5t164 -7q195 0 293 33t98 117h102q0 -69 -33 -116.5t-99.5 -74t-153 -38t-207.5 -11.5t-208.5 11.5t-155.5 38t-102 74t-34 116.5zM383 487h905
l-442 986l-12 28l-11 -28z" />
    <glyph glyph-name="Acircumflex.ss01" horiz-adv-x="1671" 
d="M27 0l741 1638h133l744 -1638h-138l-168 373h-1007l-168 -373h-137zM354 1720l412 271h143l406 -271h-187l-290 203l-297 -203h-187zM383 487h905l-442 986l-12 28l-11 -28z" />
    <glyph glyph-name="Adieresis.ss01" horiz-adv-x="1671" 
d="M27 0l741 1638h133l744 -1638h-138l-168 373h-1007l-168 -373h-137zM383 487h905l-442 986l-12 28l-11 -28zM393 1872q0 40 24.5 63t59.5 23t59.5 -23t24.5 -63q0 -36 -24.5 -59t-59.5 -23t-59.5 23t-24.5 59zM1108 1872q0 40 24.5 63t61.5 23q34 0 59 -23.5t25 -62.5
q0 -36 -25 -59t-59 -23q-36 0 -61 23t-25 59z" />
    <glyph glyph-name="Agrave.ss01" horiz-adv-x="1671" 
d="M27 0l741 1638h133l744 -1638h-138l-168 373h-1007l-168 -373h-137zM276 1911l21 80l1096 -152l-21 -80zM383 487h905l-442 986l-12 28l-11 -28z" />
    <glyph glyph-name="Amacron.ss01" horiz-adv-x="1671" 
d="M27 0l741 1638h133l744 -1638h-138l-168 373h-1007l-168 -373h-137zM276 1835v82h1117v-82h-1117zM383 487h905l-442 986l-12 28l-11 -28z" />
    <glyph glyph-name="Aogonek.ss01" horiz-adv-x="1671" 
d="M27 0l741 1638h133l744 -1638h-5q-104 -36 -154 -83.5t-50 -115.5q0 -66 59.5 -96.5t190.5 -30.5h30l-82 -84h-28q-126 0 -199.5 47.5t-73.5 143.5q0 46 18.5 82t54 62t72 42.5t85.5 32.5h-56l-168 373h-1007l-168 -373h-137zM383 487h905l-442 986l-12 28l-11 -28z" />
    <glyph glyph-name="Aring.ss01" horiz-adv-x="1671" 
d="M27 0l741 1638h133l744 -1638h-138l-168 373h-1007l-168 -373h-137zM383 487h905l-442 986l-12 28l-11 -28zM670 1896q0 71 49.5 118.5t116.5 47.5t116 -47.5t49 -118.5t-49 -118t-116 -47q-68 0 -117 47t-49 118zM745 1896q0 -40 25 -65t66 -25t65.5 25t24.5 65
t-24.5 65.5t-65.5 25.5t-66 -25.5t-25 -65.5z" />
    <glyph glyph-name="Atilde.ss01" horiz-adv-x="1671" 
d="M27 0l741 1638h133l744 -1638h-138l-168 373h-1007l-168 -373h-137zM348 1765q0 102 68.5 169t199.5 67q61 0 110 -16.5t82 -39.5t64.5 -46t75 -39.5t96.5 -16.5q85 0 130 39.5t45 104.5h102q0 -106 -71.5 -171t-207.5 -65q-66 0 -118 16.5t-85.5 39.5t-64.5 46
t-70.5 39.5t-87.5 16.5q-81 0 -123 -41.5t-42 -102.5h-103zM383 487h905l-442 986l-12 28l-11 -28z" />
    <glyph glyph-name="B.ss01" horiz-adv-x="1748" 
d="M172 0v1638h922q90 0 160.5 -11.5t133 -41t103 -77.5t63.5 -122.5t23 -173.5q0 -148 -59.5 -226t-176.5 -122q138 -25 227 -129.5t89 -281.5q0 -220 -145.5 -336.5t-387.5 -116.5h-952zM297 115h817q194 0 303 85t109 263q0 79 -21 137t-57 94t-92.5 57.5t-117.5 29
t-142 7.5h-799v-673zM297 903h739q408 0 408 316q0 62 -11.5 110t-29 80t-49 54.5t-59.5 34t-74 18t-79 7.5t-87 1h-758v-621z" />
    <glyph glyph-name="C.ss01" horiz-adv-x="1859" 
d="M948 -20q-206 0 -371.5 68t-270 184.5t-159.5 267t-55 321.5q0 134 34.5 257.5t105.5 229.5t171.5 184t241 122.5t305.5 44.5q147 0 275.5 -33t225 -92.5t167.5 -141t109.5 -179.5t44.5 -207l2 -35h-136l-4 35q-14 242 -194 387t-486 145q-145 0 -265 -36.5t-205 -102
t-144 -155.5t-87 -196.5t-28 -226.5q0 -155 45.5 -285t133 -228t227.5 -153t319 -55q157 0 284.5 40t212 111.5t132.5 169t55 214.5l4 35h136l-2 -35q-8 -134 -67.5 -252.5t-162.5 -208.5t-256.5 -142t-337.5 -52z" />
    <glyph glyph-name="Cacute.ss01" horiz-adv-x="1859" 
d="M948 -20q-206 0 -371.5 68t-270 184.5t-159.5 267t-55 321.5q0 134 34.5 257.5t105.5 229.5t171.5 184t241 122.5t305.5 44.5q147 0 275.5 -33t225 -92.5t167.5 -141t109.5 -179.5t44.5 -207l2 -35h-136l-4 35q-14 242 -194 387t-486 145q-145 0 -265 -36.5t-205 -102
t-144 -155.5t-87 -196.5t-28 -226.5q0 -155 45.5 -285t133 -228t227.5 -153t319 -55q157 0 284.5 40t212 111.5t132.5 169t55 214.5l4 35h136l-2 -35q-8 -134 -67.5 -252.5t-162.5 -208.5t-256.5 -142t-337.5 -52zM375 1839l1095 152l21 -80l-1096 -152z" />
    <glyph glyph-name="Ccaron.ss01" horiz-adv-x="1859" 
d="M948 -20q-206 0 -371.5 68t-270 184.5t-159.5 267t-55 321.5q0 134 34.5 257.5t105.5 229.5t171.5 184t241 122.5t305.5 44.5q147 0 275.5 -33t225 -92.5t167.5 -141t109.5 -179.5t44.5 -207l2 -35h-136l-4 35q-14 242 -194 387t-486 145q-145 0 -265 -36.5t-205 -102
t-144 -155.5t-87 -196.5t-28 -226.5q0 -155 45.5 -285t133 -228t227.5 -153t319 -55q157 0 284.5 40t212 111.5t132.5 169t55 214.5l4 35h136l-2 -35q-8 -134 -67.5 -252.5t-162.5 -208.5t-256.5 -142t-337.5 -52zM453 2032h186l297 -203l291 203h186l-405 -271h-144z" />
    <glyph glyph-name="Ccedilla.ss01" horiz-adv-x="1861" 
d="M801 -342q147 0 205.5 15.5t58.5 66.5q0 52 -56.5 62t-166.5 -9l45 189q-154 8 -284 56t-223.5 126.5t-159 182.5t-97 223.5t-31.5 250.5q0 134 34.5 257.5t105.5 229.5t171.5 184t241 122.5t305.5 44.5q147 0 275.5 -33t225 -92.5t167.5 -141t109.5 -179.5t44.5 -207
l2 -35h-136l-4 35q-14 242 -194 387t-486 145q-145 0 -265 -36.5t-205 -102t-144 -155.5t-87 -196.5t-28 -226.5q0 -155 45.5 -285t133 -228t227.5 -153t319 -55q157 0 284.5 40t212 111.5t132.5 169t55 214.5l4 35h136l-2 -35q-8 -132 -65.5 -248.5t-157.5 -206
t-248.5 -143t-327.5 -57.5l-29 -115q225 32 225 -125q0 -57 -33 -91.5t-115.5 -53.5t-221.5 -19z" />
    <glyph glyph-name="Cdotaccent.ss01" horiz-adv-x="1859" 
d="M948 -20q-206 0 -371.5 68t-270 184.5t-159.5 267t-55 321.5q0 134 34.5 257.5t105.5 229.5t171.5 184t241 122.5t305.5 44.5q147 0 275.5 -33t225 -92.5t167.5 -141t109.5 -179.5t44.5 -207l2 -35h-136l-4 35q-14 242 -194 387t-486 145q-145 0 -265 -36.5t-205 -102
t-144 -155.5t-87 -196.5t-28 -226.5q0 -155 45.5 -285t133 -228t227.5 -153t319 -55q157 0 284.5 40t212 111.5t132.5 169t55 214.5l4 35h136l-2 -35q-8 -134 -67.5 -252.5t-162.5 -208.5t-256.5 -142t-337.5 -52zM836 1845q0 41 28 70t70 29t70 -29t28 -70q0 -38 -28 -66
t-70 -28t-70 28t-28 66z" />
    <glyph glyph-name="D.ss01" horiz-adv-x="1808" 
d="M172 0v1638h764q173 0 311 -46.5t242.5 -142.5t161.5 -255.5t57 -374.5q0 -213 -57 -372.5t-161.5 -256t-243 -143.5t-310.5 -47h-764zM297 115h631q338 0 492.5 175t154.5 529t-154.5 529.5t-492.5 175.5h-631v-1409z" />
    <glyph glyph-name="Eth.ss01" horiz-adv-x="1978" 
d="M342 0v817h-328v88h328v733h764q173 0 311 -46.5t242.5 -142.5t161.5 -255.5t57 -374.5q0 -213 -57 -372.5t-161.5 -256t-243 -143.5t-310.5 -47h-764zM467 115h631q338 0 492.5 175t154.5 529t-154.5 529.5t-492.5 175.5h-631v-619h745v-88h-745v-702z" />
    <glyph glyph-name="Dcaron.ss01" horiz-adv-x="1808" 
d="M172 0v1638h764q173 0 311 -46.5t242.5 -142.5t161.5 -255.5t57 -374.5q0 -213 -57 -372.5t-161.5 -256t-243 -143.5t-310.5 -47h-764zM297 115h631q338 0 492.5 175t154.5 529t-154.5 529.5t-492.5 175.5h-631v-1409zM426 2032h186l297 -203l291 203h186l-405 -271h-143
z" />
    <glyph glyph-name="Dcroat.ss01" horiz-adv-x="1978" 
d="M342 0v817h-328v88h328v733h764q173 0 311 -46.5t242.5 -142.5t161.5 -255.5t57 -374.5q0 -213 -57 -372.5t-161.5 -256t-243 -143.5t-310.5 -47h-764zM467 115h631q338 0 492.5 175t154.5 529t-154.5 529.5t-492.5 175.5h-631v-619h745v-88h-745v-702z" />
    <glyph glyph-name="E.ss01" horiz-adv-x="1542" 
d="M172 0v1638h1282v-114h-1157v-647h1114v-115h-1114v-647h1157v-115h-1282z" />
    <glyph glyph-name="Eacute.ss01" horiz-adv-x="1542" 
d="M172 0v1638h1282v-114h-1157v-647h1114v-115h-1114v-647h1157v-115h-1282zM215 1839l1096 152l20 -80l-1095 -152z" />
    <glyph glyph-name="Ecaron.ss01" horiz-adv-x="1542" 
d="M172 0v1638h1282v-114h-1157v-647h1114v-115h-1114v-647h1157v-115h-1282zM293 2032h186l297 -203l291 203h186l-405 -271h-143z" />
    <glyph glyph-name="Ecircumflex.ss01" horiz-adv-x="1542" 
d="M172 0v1638h1282v-114h-1157v-647h1114v-115h-1114v-647h1157v-115h-1282zM293 1720l412 271h143l405 -271h-186l-291 203l-297 -203h-186z" />
    <glyph glyph-name="Edieresis.ss01" horiz-adv-x="1542" 
d="M172 0v1638h1282v-114h-1157v-647h1114v-115h-1114v-647h1157v-115h-1282zM330 1872q0 40 24.5 63t59.5 23t59.5 -23t24.5 -63q0 -36 -24.5 -59t-59.5 -23t-59.5 23t-24.5 59zM1044 1872q0 40 24.5 63t61.5 23q34 0 59 -23.5t25 -62.5q0 -36 -25 -59t-59 -23
q-36 0 -61 23t-25 59z" />
    <glyph glyph-name="Edotaccent.ss01" horiz-adv-x="1542" 
d="M172 0v1638h1282v-114h-1157v-647h1114v-115h-1114v-647h1157v-115h-1282zM676 1845q0 41 28 70t70 29t70 -29t28 -70q0 -38 -28 -66t-70 -28t-70 28t-28 66z" />
    <glyph glyph-name="Egrave.ss01" horiz-adv-x="1542" 
d="M172 0v1638h1282v-114h-1157v-647h1114v-115h-1114v-647h1157v-115h-1282zM215 1911l21 80l1095 -152l-20 -80z" />
    <glyph glyph-name="Emacron.ss01" horiz-adv-x="1542" 
d="M172 0v1638h1282v-114h-1157v-647h1114v-115h-1114v-647h1157v-115h-1282zM215 1835v82h1116v-82h-1116z" />
    <glyph glyph-name="Eogonek.ss01" horiz-adv-x="1542" 
d="M172 0v1638h1282v-114h-1157v-647h1114v-115h-1114v-647h1157v-115q-104 -36 -154.5 -83.5t-50.5 -115.5q0 -66 59.5 -96.5t190.5 -30.5h31l-82 -84h-29q-126 0 -199 47.5t-73 143.5q0 46 18.5 82t54 62t71.5 42.5t85 32.5h-1204z" />
    <glyph glyph-name="F.ss01" horiz-adv-x="1495" 
d="M172 0v1638h1286v-114h-1161v-731h1100v-113h-1100v-680h-125z" />
    <glyph glyph-name="G.ss01" horiz-adv-x="1902" 
d="M926 -20q-158 0 -293 44.5t-233 122.5t-167.5 184t-104 230.5t-34.5 259.5q0 134 34.5 257t105.5 229t171 184.5t240 123t305 44.5q181 0 334.5 -53.5t256 -143t163 -203t70.5 -237.5l2 -23h-136l-2 23q-9 107 -60 200t-136.5 164t-211.5 111.5t-276 40.5
q-145 0 -265 -37t-204.5 -102.5t-143 -156t-86.5 -196.5t-28 -225q0 -156 46 -287.5t134 -228t223 -151t304 -54.5q148 0 277 42t224 117.5t150.5 189t56.5 249.5v2h-868v109h1002v-809h-101l-8 414q-93 -196 -282 -315t-459 -119z" />
    <glyph glyph-name="Gbreve.ss01" horiz-adv-x="1902" 
d="M926 -20q-158 0 -293 44.5t-233 122.5t-167.5 184t-104 230.5t-34.5 259.5q0 134 34.5 257t105.5 229t171 184.5t240 123t305 44.5q181 0 334.5 -53.5t256 -143t163 -203t70.5 -237.5l2 -23h-136l-2 23q-9 107 -60 200t-136.5 164t-211.5 111.5t-276 40.5
q-145 0 -265 -37t-204.5 -102.5t-143 -156t-86.5 -196.5t-28 -225q0 -156 46 -287.5t134 -228t223 -151t304 -54.5q148 0 277 42t224 117.5t150.5 189t56.5 249.5v2h-868v109h1002v-809h-101l-8 414q-93 -196 -282 -315t-459 -119zM453 2001h102q0 -44 27.5 -73.5t82 -46
t123.5 -23.5t164 -7q195 0 293 33t98 117h103q0 -69 -33 -116.5t-99.5 -74t-153.5 -38t-208 -11.5t-208.5 11.5t-155 38t-101.5 74t-34 116.5z" />
    <glyph glyph-name="uni0122.ss01" horiz-adv-x="1902" 
d="M926 -20q-158 0 -293 44.5t-233 122.5t-167.5 184t-104 230.5t-34.5 259.5q0 134 34.5 257t105.5 229t171 184.5t240 123t305 44.5q181 0 334.5 -53.5t256 -143t163 -203t70.5 -237.5l2 -23h-136l-2 23q-9 107 -60 200t-136.5 164t-211.5 111.5t-276 40.5
q-145 0 -265 -37t-204.5 -102.5t-143 -156t-86.5 -196.5t-28 -225q0 -156 46 -287.5t134 -228t223 -151t304 -54.5q148 0 277 42t224 117.5t150.5 189t56.5 249.5v2h-868v109h1002v-809h-101l-8 414q-93 -196 -282 -315t-459 -119zM856 -166q0 38 27 66t71 28q41 0 68 -27.5
t27 -86.5q0 -156 -166 -236v78q51 23 78 53t36 74q-28 -31 -61 -31q-32 0 -56 23t-24 59z" />
    <glyph glyph-name="Gdotaccent.ss01" horiz-adv-x="1902" 
d="M926 -20q-158 0 -293 44.5t-233 122.5t-167.5 184t-104 230.5t-34.5 259.5q0 134 34.5 257t105.5 229t171 184.5t240 123t305 44.5q181 0 334.5 -53.5t256 -143t163 -203t70.5 -237.5l2 -23h-136l-2 23q-9 107 -60 200t-136.5 164t-211.5 111.5t-276 40.5
q-145 0 -265 -37t-204.5 -102.5t-143 -156t-86.5 -196.5t-28 -225q0 -156 46 -287.5t134 -228t223 -151t304 -54.5q148 0 277 42t224 117.5t150.5 189t56.5 249.5v2h-868v109h1002v-809h-101l-8 414q-93 -196 -282 -315t-459 -119zM852 1845q0 41 28 70t70 29t70.5 -29.5
t28.5 -69.5q0 -38 -28.5 -66t-70.5 -28t-70 28t-28 66z" />
    <glyph glyph-name="H.ss01" horiz-adv-x="1804" 
d="M1507 0v762h-1210v-762h-125v1638h125v-761h1210v761h125v-1638h-125z" />
    <glyph glyph-name="Hbar.ss01" horiz-adv-x="2025" 
d="M1618 0v762h-1210v-762h-125v1180h-228v96h228v362h125v-362h1210v362h125v-362h227v-96h-227v-1180h-125zM408 877h1210v303h-1210v-303z" />
    <glyph glyph-name="I.ss01" horiz-adv-x="1318" 
d="M49 0v115h549v1409h-549v114h1221v-114h-547v-1409h547v-115h-1221z" />
    <glyph glyph-name="Iacute.ss01" horiz-adv-x="1318" 
d="M49 0v115h549v1409h-549v114h1221v-114h-547v-1409h547v-115h-1221zM100 1839l1096 152l21 -80l-1096 -152z" />
    <glyph glyph-name="Icircumflex.ss01" horiz-adv-x="1318" 
d="M49 0v115h549v1409h-549v114h1221v-114h-547v-1409h547v-115h-1221zM178 1720l412 271h143l406 -271h-187l-290 203l-297 -203h-187z" />
    <glyph glyph-name="Idieresis.ss01" horiz-adv-x="1318" 
d="M49 0v115h549v1409h-549v114h1221v-114h-547v-1409h547v-115h-1221zM217 1872q0 40 24.5 63t59.5 23t59.5 -23t24.5 -63q0 -36 -24.5 -59t-59.5 -23t-59.5 23t-24.5 59zM932 1872q0 40 24.5 63t61.5 23q34 0 59 -23.5t25 -62.5q0 -36 -25 -59t-59 -23q-36 0 -61 23
t-25 59z" />
    <glyph glyph-name="Idotaccent.ss01" horiz-adv-x="1318" 
d="M49 0v115h549v1409h-549v114h1221v-114h-547v-1409h547v-115h-1221zM561 1845q0 41 28 70t70 29t70.5 -29.5t28.5 -69.5q0 -38 -28.5 -66t-70.5 -28t-70 28t-28 66z" />
    <glyph glyph-name="Igrave.ss01" horiz-adv-x="1318" 
d="M49 0v115h549v1409h-549v114h1221v-114h-547v-1409h547v-115h-1221zM100 1911l21 80l1096 -152l-21 -80z" />
    <glyph glyph-name="Imacron.ss01" horiz-adv-x="1318" 
d="M49 0v115h549v1409h-549v114h1221v-114h-547v-1409h547v-115h-1221zM100 1835v82h1117v-82h-1117z" />
    <glyph glyph-name="Iogonek.ss01" horiz-adv-x="1318" 
d="M49 0v115h549v1409h-549v114h1221v-114h-547v-1409h547v-115h2q-104 -36 -154.5 -83.5t-50.5 -115.5q0 -66 59.5 -96.5t190.5 -30.5h31l-82 -84h-29q-126 0 -199 47.5t-73 143.5q0 46 18.5 82t54 62t71.5 42.5t85 32.5h-1145z" />
    <glyph glyph-name="J.ss01" horiz-adv-x="1581" 
d="M733 -20q-360 0 -523 180.5t-163 546.5h129q0 -171 35.5 -290t108.5 -188.5t173 -100t240 -30.5q105 0 188 17t154.5 58.5t118.5 107.5t73.5 167.5t26.5 235.5v954h129v-954q0 -350 -165.5 -527t-524.5 -177z" />
    <glyph glyph-name="K.ss01" horiz-adv-x="1662" 
d="M1487 0l-971 762h-219v-762h-125v1638h125v-761h219l971 761h184l-1055 -819l1055 -819h-184z" />
    <glyph glyph-name="uni0136.ss01" horiz-adv-x="1662" 
d="M1487 0l-971 762h-219v-762h-125v1638h125v-761h219l971 761h184l-1055 -819l1055 -819h-184zM776 -166q0 38 27 66t71 28q41 0 68 -27.5t27 -86.5q0 -156 -166 -236v78q51 23 78.5 53t36.5 74q-28 -31 -62 -31q-32 0 -56 23t-24 59z" />
    <glyph glyph-name="L.ss01" horiz-adv-x="1456" 
d="M172 0v1638h125v-1523h1139v-115h-1264z" />
    <glyph glyph-name="Lacute.ss01" horiz-adv-x="1456" 
d="M172 0v1638h125v-1523h1139v-115h-1264zM217 1839l1096 152l20 -80l-1095 -152z" />
    <glyph glyph-name="Lcaron.ss01" horiz-adv-x="1456" 
d="M172 0v1638h125v-1523h1139v-115h-1264zM694 1169l41 469h101l-64 -469h-78z" />
    <glyph glyph-name="uni013B.ss01" horiz-adv-x="1456" 
d="M172 0v1638h125v-1523h1139v-115h-1264zM662 -166q0 38 27 66t71 28q41 0 67.5 -27.5t26.5 -86.5q0 -156 -166 -236v78q51 23 78.5 53t36.5 74q-28 -31 -62 -31q-32 0 -55.5 23t-23.5 59z" />
    <glyph glyph-name="Lslash.ss01" horiz-adv-x="1591" 
d="M307 0v707l-264 -80v98l264 80v833h125v-796l608 182v-98l-608 -183v-628h1139v-115h-1264z" />
    <glyph glyph-name="M.ss01" horiz-adv-x="2185" 
d="M172 0v1638h129l793 -1488l792 1488h127v-1638h-121v1401l-749 -1401h-101l-749 1401v-1401h-121z" />
    <glyph glyph-name="N.ss01" horiz-adv-x="1867" 
d="M172 0v1638h125l1278 -1466v1466h121v-1638h-125l-1278 1466v-1466h-121z" />
    <glyph glyph-name="Nacute.ss01" horiz-adv-x="1867" 
d="M172 0v1638h125l1278 -1466v1466h121v-1638h-125l-1278 1466v-1466h-121zM375 1839l1095 152l21 -80l-1096 -152z" />
    <glyph glyph-name="Ncaron.ss01" horiz-adv-x="1867" 
d="M172 0v1638h125l1278 -1466v1466h121v-1638h-125l-1278 1466v-1466h-121zM453 2032h186l297 -203l291 203h186l-405 -271h-144z" />
    <glyph glyph-name="uni0145.ss01" horiz-adv-x="1867" 
d="M172 0v1638h125l1278 -1466v1466h121v-1638h-125l-1278 1466v-1466h-121zM838 -166q0 38 27 66t71 28q41 0 67.5 -27.5t26.5 -86.5q0 -156 -166 -236v78q51 23 78.5 53t36.5 74q-28 -31 -61 -31q-32 0 -56 23t-24 59z" />
    <glyph glyph-name="Ntilde.ss01" horiz-adv-x="1867" 
d="M172 0v1638h125l1278 -1466v1466h121v-1638h-125l-1278 1466v-1466h-121zM446 1765q0 102 69 169t200 67q61 0 110 -16.5t82 -39.5t64.5 -46t75 -39.5t96.5 -16.5q85 0 129.5 39.5t44.5 104.5h102q0 -106 -71 -171t-207 -65q-66 0 -118 16.5t-85.5 39.5t-64.5 46
t-70.5 39.5t-87.5 16.5q-81 0 -123.5 -42t-42.5 -102h-103z" />
    <glyph glyph-name="O.ss01" horiz-adv-x="1912" 
d="M956 -20q-167 0 -309 45t-243 124t-172 186t-105.5 230t-34.5 256q0 131 34.5 253.5t106 229t172.5 185.5t242.5 124.5t308.5 45.5t309 -45.5t243 -124.5t172.5 -185.5t106 -229t34.5 -253.5q0 -133 -34.5 -256.5t-105.5 -230t-172.5 -185.5t-243.5 -124t-309 -45z
M225 821q0 -152 47.5 -282t137 -228.5t230 -154.5t316.5 -56t316.5 56t230.5 154.5t137.5 228.5t47.5 282q0 149 -47.5 278t-137.5 227.5t-230.5 155t-316.5 56.5t-316.5 -56.5t-230 -155t-137 -227.5t-47.5 -278z" />
    <glyph glyph-name="Oacute.ss01" horiz-adv-x="1912" 
d="M956 -20q-167 0 -309 45t-243 124t-172 186t-105.5 230t-34.5 256q0 131 34.5 253.5t106 229t172.5 185.5t242.5 124.5t308.5 45.5t309 -45.5t243 -124.5t172.5 -185.5t106 -229t34.5 -253.5q0 -133 -34.5 -256.5t-105.5 -230t-172.5 -185.5t-243.5 -124t-309 -45z
M225 821q0 -152 47.5 -282t137 -228.5t230 -154.5t316.5 -56t316.5 56t230.5 154.5t137.5 228.5t47.5 282q0 149 -47.5 278t-137.5 227.5t-230.5 155t-316.5 56.5t-316.5 -56.5t-230 -155t-137 -227.5t-47.5 -278zM397 1839l1096 152l20 -80l-1095 -152z" />
    <glyph glyph-name="Ocircumflex.ss01" horiz-adv-x="1912" 
d="M956 -20q-167 0 -309 45t-243 124t-172 186t-105.5 230t-34.5 256q0 131 34.5 253.5t106 229t172.5 185.5t242.5 124.5t308.5 45.5t309 -45.5t243 -124.5t172.5 -185.5t106 -229t34.5 -253.5q0 -133 -34.5 -256.5t-105.5 -230t-172.5 -185.5t-243.5 -124t-309 -45z
M225 821q0 -152 47.5 -282t137 -228.5t230 -154.5t316.5 -56t316.5 56t230.5 154.5t137.5 228.5t47.5 282q0 149 -47.5 278t-137.5 227.5t-230.5 155t-316.5 56.5t-316.5 -56.5t-230 -155t-137 -227.5t-47.5 -278zM475 1720l412 271h143l406 -271h-187l-291 203l-296 -203
h-187z" />
    <glyph glyph-name="Odieresis.ss01" horiz-adv-x="1912" 
d="M956 -20q-167 0 -309 45t-243 124t-172 186t-105.5 230t-34.5 256q0 131 34.5 253.5t106 229t172.5 185.5t242.5 124.5t308.5 45.5t309 -45.5t243 -124.5t172.5 -185.5t106 -229t34.5 -253.5q0 -133 -34.5 -256.5t-105.5 -230t-172.5 -185.5t-243.5 -124t-309 -45z
M225 821q0 -152 47.5 -282t137 -228.5t230 -154.5t316.5 -56t316.5 56t230.5 154.5t137.5 228.5t47.5 282q0 149 -47.5 278t-137.5 227.5t-230.5 155t-316.5 56.5t-316.5 -56.5t-230 -155t-137 -227.5t-47.5 -278zM514 1872q0 40 24.5 63t59.5 23t59.5 -23t24.5 -63
q0 -36 -24.5 -59t-59.5 -23t-59.5 23t-24.5 59zM1229 1872q0 40 24.5 63t61.5 23q34 0 59 -23.5t25 -62.5q0 -36 -25 -59t-59 -23q-36 0 -61 23t-25 59z" />
    <glyph glyph-name="Ograve.ss01" horiz-adv-x="1912" 
d="M956 -20q-167 0 -309 45t-243 124t-172 186t-105.5 230t-34.5 256q0 131 34.5 253.5t106 229t172.5 185.5t242.5 124.5t308.5 45.5t309 -45.5t243 -124.5t172.5 -185.5t106 -229t34.5 -253.5q0 -133 -34.5 -256.5t-105.5 -230t-172.5 -185.5t-243.5 -124t-309 -45z
M225 821q0 -152 47.5 -282t137 -228.5t230 -154.5t316.5 -56t316.5 56t230.5 154.5t137.5 228.5t47.5 282q0 149 -47.5 278t-137.5 227.5t-230.5 155t-316.5 56.5t-316.5 -56.5t-230 -155t-137 -227.5t-47.5 -278zM397 1911l21 80l1095 -152l-20 -80z" />
    <glyph glyph-name="Ohungarumlaut.ss01" horiz-adv-x="1912" 
d="M956 -20q-167 0 -309 45t-243 124t-172 186t-105.5 230t-34.5 256q0 131 34.5 253.5t106 229t172.5 185.5t242.5 124.5t308.5 45.5t309 -45.5t243 -124.5t172.5 -185.5t106 -229t34.5 -253.5q0 -133 -34.5 -256.5t-105.5 -230t-172.5 -185.5t-243.5 -124t-309 -45z
M225 821q0 -152 47.5 -282t137 -228.5t230 -154.5t316.5 -56t316.5 56t230.5 154.5t137.5 228.5t47.5 282q0 149 -47.5 278t-137.5 227.5t-230.5 155t-316.5 56.5t-316.5 -56.5t-230 -155t-137 -227.5t-47.5 -278zM784 1761l236 230h110l-215 -230h-131zM1024 1761l236 230
h108l-215 -230h-129z" />
    <glyph glyph-name="Omacron.ss01" horiz-adv-x="1912" 
d="M956 -20q-167 0 -309 45t-243 124t-172 186t-105.5 230t-34.5 256q0 131 34.5 253.5t106 229t172.5 185.5t242.5 124.5t308.5 45.5t309 -45.5t243 -124.5t172.5 -185.5t106 -229t34.5 -253.5q0 -133 -34.5 -256.5t-105.5 -230t-172.5 -185.5t-243.5 -124t-309 -45z
M225 821q0 -152 47.5 -282t137 -228.5t230 -154.5t316.5 -56t316.5 56t230.5 154.5t137.5 228.5t47.5 282q0 149 -47.5 278t-137.5 227.5t-230.5 155t-316.5 56.5t-316.5 -56.5t-230 -155t-137 -227.5t-47.5 -278zM397 1835v82h1116v-82h-1116z" />
    <glyph glyph-name="Oslash.ss01" horiz-adv-x="1912" 
d="M197 20l151 177q-126 117 -191 279t-65 345q0 131 34.5 253.5t106 229t172.5 185.5t242.5 124.5t308.5 45.5q309 0 527 -152l98 113h135l-153 -178q127 -116 192.5 -278t65.5 -343q0 -133 -34.5 -256.5t-105.5 -230t-172.5 -185.5t-243.5 -124t-309 -45q-311 0 -528 151
l-96 -111h-135zM225 821q0 -160 52.5 -296.5t152.5 -233.5l973 1122q-184 125 -447 125q-176 0 -316.5 -56.5t-230 -155t-137 -227.5t-47.5 -278zM510 225q180 -125 446 -125q176 0 316.5 56t230.5 154.5t137.5 228.5t47.5 282q0 157 -52.5 293.5t-154.5 233.5z" />
    <glyph glyph-name="Otilde.ss01" horiz-adv-x="1912" 
d="M956 -20q-167 0 -309 45t-243 124t-172 186t-105.5 230t-34.5 256q0 131 34.5 253.5t106 229t172.5 185.5t242.5 124.5t308.5 45.5t309 -45.5t243 -124.5t172.5 -185.5t106 -229t34.5 -253.5q0 -133 -34.5 -256.5t-105.5 -230t-172.5 -185.5t-243.5 -124t-309 -45z
M225 821q0 -152 47.5 -282t137 -228.5t230 -154.5t316.5 -56t316.5 56t230.5 154.5t137.5 228.5t47.5 282q0 149 -47.5 278t-137.5 227.5t-230.5 155t-316.5 56.5t-316.5 -56.5t-230 -155t-137 -227.5t-47.5 -278zM469 1765q0 102 68.5 169t199.5 67q61 0 110 -16.5
t82 -39.5t64.5 -46t75 -39.5t96.5 -16.5q85 0 129.5 39.5t44.5 104.5h103q0 -106 -71.5 -171t-207.5 -65q-66 0 -118 16.5t-85.5 39.5t-64.5 46t-70.5 39.5t-87.5 16.5q-81 0 -123.5 -42t-42.5 -102h-102z" />
    <glyph glyph-name="P.ss01" horiz-adv-x="1728" 
d="M172 0v1638h907q282 0 435 -145.5t153 -409.5t-153.5 -410.5t-434.5 -146.5h-782v-526h-125zM297 639h762q475 0 475 444q0 441 -475 441h-762v-885z" />
    <glyph glyph-name="Q.ss01" horiz-adv-x="1912" 
d="M1585 -287q-247 108 -425 146.5t-425 40.5v100h8q-158 32 -283.5 111.5t-205 189.5t-121 242.5t-41.5 277.5q0 131 34.5 253.5t106 229t172.5 185.5t242.5 124.5t308.5 45.5t309 -45.5t243 -124.5t172.5 -185.5t106 -229t34.5 -253.5q0 -125 -30 -241t-92 -218.5
t-151 -181.5t-213 -130.5t-272 -65.5q286 -33 522 -144v-127zM225 821q0 -152 47.5 -282t137 -228.5t230 -154.5t316.5 -56t316.5 56t230.5 154.5t137.5 228.5t47.5 282q0 149 -47.5 278t-137.5 227.5t-230.5 155t-316.5 56.5t-316.5 -56.5t-230 -155t-137 -227.5
t-47.5 -278z" />
    <glyph glyph-name="R.ss01" horiz-adv-x="1775" 
d="M1542 0q-12 13 -17.5 43.5t-6 50t-0.5 60.5v196q0 86 -27 150.5t-68.5 101.5t-103.5 59.5t-120 29.5t-130 7h-772v-698h-125v1638h901q580 0 580 -467q0 -182 -78.5 -281t-228.5 -134q145 -35 223 -137t78 -254v-211q0 -126 24 -154h-129zM297 813h774q236 0 342.5 87.5
t106.5 270.5q0 104 -33.5 175t-100.5 109t-150.5 53.5t-201.5 15.5h-737v-711z" />
    <glyph glyph-name="Racute.ss01" horiz-adv-x="1775" 
d="M1542 0q-12 13 -17.5 43.5t-6 50t-0.5 60.5v196q0 86 -27 150.5t-68.5 101.5t-103.5 59.5t-120 29.5t-130 7h-772v-698h-125v1638h901q580 0 580 -467q0 -182 -78.5 -281t-228.5 -134q145 -35 223 -137t78 -254v-211q0 -126 24 -154h-129zM297 813h774q236 0 342.5 87.5
t106.5 270.5q0 104 -33.5 175t-100.5 109t-150.5 53.5t-201.5 15.5h-737v-711zM336 1839l1096 152l20 -80l-1096 -152z" />
    <glyph glyph-name="Rcaron.ss01" horiz-adv-x="1775" 
d="M1542 0q-12 13 -17.5 43.5t-6 50t-0.5 60.5v196q0 86 -27 150.5t-68.5 101.5t-103.5 59.5t-120 29.5t-130 7h-772v-698h-125v1638h901q580 0 580 -467q0 -182 -78.5 -281t-228.5 -134q145 -35 223 -137t78 -254v-211q0 -126 24 -154h-129zM297 813h774q236 0 342.5 87.5
t106.5 270.5q0 104 -33.5 175t-100.5 109t-150.5 53.5t-201.5 15.5h-737v-711zM414 2032h186l297 -203l291 203h186l-405 -271h-144z" />
    <glyph glyph-name="uni0156.ss01" horiz-adv-x="1775" 
d="M1542 0q-12 13 -17.5 43.5t-6 50t-0.5 60.5v196q0 86 -27 150.5t-68.5 101.5t-103.5 59.5t-120 29.5t-130 7h-772v-698h-125v1638h901q580 0 580 -467q0 -182 -78.5 -281t-228.5 -134q145 -35 223 -137t78 -254v-211q0 -126 24 -154h-129zM297 813h774q236 0 342.5 87.5
t106.5 270.5q0 104 -33.5 175t-100.5 109t-150.5 53.5t-201.5 15.5h-737v-711zM801 -166q0 38 27 66t71 28q41 0 67.5 -27.5t26.5 -86.5q0 -156 -166 -236v78q51 23 78.5 53t36.5 74q-28 -31 -61 -31q-32 0 -56 23t-24 59z" />
    <glyph glyph-name="S.ss01" horiz-adv-x="1638" 
d="M866 -20q-394 0 -598.5 159.5t-204.5 456.5v20h132v-20q0 -496 679 -496q279 0 415 87.5t136 269.5q0 60 -22.5 106t-55.5 74.5t-90.5 52t-107 35.5t-125.5 27l-399 82q-47 10 -77 16.5t-75 18.5t-74.5 23.5t-67.5 29.5t-62.5 37t-50.5 46.5t-41 58t-24.5 70t-9.5 85.5
q0 209 180 324.5t486 115.5q339 0 523 -145t184 -406v-21h-134v21q0 207 -144.5 318.5t-432.5 111.5q-251 0 -391 -85.5t-140 -242.5q0 -38 13 -70.5t32 -55.5t52.5 -43.5t62.5 -33.5t75 -26t76 -20t79 -17l413 -84q43 -9 73.5 -15.5t73.5 -18.5t73.5 -24.5t67.5 -31.5
t62.5 -40.5t51.5 -51t41.5 -64t25.5 -79t10 -95.5q0 -226 -175.5 -343t-514.5 -117z" />
    <glyph glyph-name="Sacute.ss01" horiz-adv-x="1638" 
d="M866 -20q-394 0 -598.5 159.5t-204.5 456.5v20h132v-20q0 -496 679 -496q279 0 415 87.5t136 269.5q0 60 -22.5 106t-55.5 74.5t-90.5 52t-107 35.5t-125.5 27l-399 82q-47 10 -77 16.5t-75 18.5t-74.5 23.5t-67.5 29.5t-62.5 37t-50.5 46.5t-41 58t-24.5 70t-9.5 85.5
q0 209 180 324.5t486 115.5q339 0 523 -145t184 -406v-21h-134v21q0 207 -144.5 318.5t-432.5 111.5q-251 0 -391 -85.5t-140 -242.5q0 -38 13 -70.5t32 -55.5t52.5 -43.5t62.5 -33.5t75 -26t76 -20t79 -17l413 -84q43 -9 73.5 -15.5t73.5 -18.5t73.5 -24.5t67.5 -31.5
t62.5 -40.5t51.5 -51t41.5 -64t25.5 -79t10 -95.5q0 -226 -175.5 -343t-514.5 -117zM256 1839l1096 152l20 -80l-1096 -152z" />
    <glyph glyph-name="Scaron.ss01" horiz-adv-x="1638" 
d="M866 -20q-394 0 -598.5 159.5t-204.5 456.5v20h132v-20q0 -496 679 -496q279 0 415 87.5t136 269.5q0 60 -22.5 106t-55.5 74.5t-90.5 52t-107 35.5t-125.5 27l-399 82q-47 10 -77 16.5t-75 18.5t-74.5 23.5t-67.5 29.5t-62.5 37t-50.5 46.5t-41 58t-24.5 70t-9.5 85.5
q0 209 180 324.5t486 115.5q339 0 523 -145t184 -406v-21h-134v21q0 207 -144.5 318.5t-432.5 111.5q-251 0 -391 -85.5t-140 -242.5q0 -38 13 -70.5t32 -55.5t52.5 -43.5t62.5 -33.5t75 -26t76 -20t79 -17l413 -84q43 -9 73.5 -15.5t73.5 -18.5t73.5 -24.5t67.5 -31.5
t62.5 -40.5t51.5 -51t41.5 -64t25.5 -79t10 -95.5q0 -226 -175.5 -343t-514.5 -117zM334 2032h186l297 -203l291 203h186l-405 -271h-144z" />
    <glyph glyph-name="Scedilla.ss01" horiz-adv-x="1638" 
d="M866 -20h-12l-29 -115q226 33 226 -125q0 -85 -83 -124.5t-288 -39.5l2 82q147 0 205.5 15.5t58.5 66.5q0 52 -56.5 62t-166.5 -9l45 189q-347 20 -526 178t-179 436v20h132v-20q0 -496 679 -496q279 0 415 87.5t136 269.5q0 60 -22.5 106t-55.5 74.5t-90.5 52t-107 35.5
t-125.5 27l-399 82q-47 10 -77 16.5t-75 18.5t-74.5 23.5t-67.5 29.5t-62.5 37t-50.5 46.5t-41 58t-24.5 70t-9.5 85.5q0 209 180 324.5t486 115.5q339 0 523 -145t184 -406v-21h-134v21q0 207 -144.5 318.5t-432.5 111.5q-251 0 -391 -85.5t-140 -242.5q0 -38 13 -70.5
t32 -55.5t52.5 -43.5t62.5 -33.5t75 -26t76 -20t79 -17l413 -84q43 -9 73.5 -15.5t73.5 -18.5t73.5 -24.5t67.5 -31.5t62.5 -40.5t51.5 -51t41.5 -64t25.5 -79t10 -95.5q0 -226 -175.5 -343t-514.5 -117z" />
    <glyph glyph-name="uni0218.ss01" horiz-adv-x="1638" 
d="M866 -20q-394 0 -598.5 159.5t-204.5 456.5v20h132v-20q0 -496 679 -496q279 0 415 87.5t136 269.5q0 60 -22.5 106t-55.5 74.5t-90.5 52t-107 35.5t-125.5 27l-399 82q-47 10 -77 16.5t-75 18.5t-74.5 23.5t-67.5 29.5t-62.5 37t-50.5 46.5t-41 58t-24.5 70t-9.5 85.5
q0 209 180 324.5t486 115.5q339 0 523 -145t184 -406v-21h-134v21q0 207 -144.5 318.5t-432.5 111.5q-251 0 -391 -85.5t-140 -242.5q0 -38 13 -70.5t32 -55.5t52.5 -43.5t62.5 -33.5t75 -26t76 -20t79 -17l413 -84q43 -9 73.5 -15.5t73.5 -18.5t73.5 -24.5t67.5 -31.5
t62.5 -40.5t51.5 -51t41.5 -64t25.5 -79t10 -95.5q0 -226 -175.5 -343t-514.5 -117zM721 -166q0 38 27 66t71 28q41 0 67.5 -27.5t26.5 -86.5q0 -157 -165 -236v78q51 23 78 53t36 74q-28 -31 -61 -31q-32 0 -56 23t-24 59z" />
    <glyph glyph-name="uni1E9E.ss01" horiz-adv-x="1595" 
d="M164 1184q0 242 152.5 348t488.5 106h688q-27 -150 -53 -250.5t-57 -179.5t-70.5 -126.5t-88.5 -77.5t-118 -46q190 -28 282.5 -136t92.5 -314v-6q0 -118 -27.5 -205t-77.5 -144t-130 -91t-175.5 -48t-222.5 -14h-395v109l364 -3q117 -1 198 8t150 33.5t109 68t62 111.5
t22 165v4q0 51 -3.5 88.5t-17 82.5t-37 76t-66 62.5t-102 50.5t-147.5 31t-199 12h-333v107h329q110 0 187 9.5t136.5 38.5t96.5 62t69 101t51.5 132.5t47.5 178.5h-565q-284 0 -403 -78.5t-119 -265.5v-1184h-119v1184z" />
    <glyph glyph-name="T.ss01" horiz-adv-x="1552" 
d="M715 0v1524h-695v114h1512v-114h-694v-1524h-123z" />
    <glyph glyph-name="Tbar.ss01" horiz-adv-x="1581" 
d="M731 0v776h-538v88h538v660h-694v114h1511v-114h-694v-660h537v-88h-537v-776h-123z" />
    <glyph glyph-name="Tcaron.ss01" horiz-adv-x="1552" 
d="M715 0v1524h-695v114h1512v-114h-694v-1524h-123zM295 2032h186l297 -203l291 203h186l-405 -271h-143z" />
    <glyph glyph-name="uni0162.ss01" horiz-adv-x="1552" 
d="M715 0v1524h-695v114h1512v-114h-694v-1524h-17l-35 -135q226 33 226 -125q0 -85 -83 -124.5t-288 -39.5l2 82q147 0 205.5 15.5t58.5 66.5q0 52 -56.5 62t-166.5 -9l49 207h-18z" />
    <glyph glyph-name="uni021A.ss01" horiz-adv-x="1552" 
d="M715 0v1524h-695v114h1512v-114h-694v-1524h-123zM680 -166q0 38 27 66t71 28q41 0 67.5 -27.5t26.5 -86.5q0 -157 -165 -236v78q51 23 78 53t36 74q-28 -31 -61 -31q-32 0 -56 23t-24 59z" />
    <glyph glyph-name="U.ss01" horiz-adv-x="1802" 
d="M901 -20q-276 0 -438 72t-233.5 224t-71.5 408v954h129v-954q0 -106 14 -190t39.5 -145t67 -105.5t89 -72.5t114 -44.5t134.5 -22.5t156 -6t156 6t134 22.5t114 44.5t89.5 72.5t67 105.5t40 145t14.5 190v954h126v-954q0 -196 -41 -329.5t-132 -217.5t-228.5 -120.5
t-339.5 -36.5z" />
    <glyph glyph-name="Uacute.ss01" horiz-adv-x="1802" 
d="M901 -20q-276 0 -438 72t-233.5 224t-71.5 408v954h129v-954q0 -106 14 -190t39.5 -145t67 -105.5t89 -72.5t114 -44.5t134.5 -22.5t156 -6t156 6t134 22.5t114 44.5t89.5 72.5t67 105.5t40 145t14.5 190v954h126v-954q0 -196 -41 -329.5t-132 -217.5t-228.5 -120.5
t-339.5 -36.5zM342 1839l1096 152l20 -80l-1096 -152z" />
    <glyph glyph-name="Ucircumflex.ss01" horiz-adv-x="1802" 
d="M901 -20q-276 0 -438 72t-233.5 224t-71.5 408v954h129v-954q0 -106 14 -190t39.5 -145t67 -105.5t89 -72.5t114 -44.5t134.5 -22.5t156 -6t156 6t134 22.5t114 44.5t89.5 72.5t67 105.5t40 145t14.5 190v954h126v-954q0 -196 -41 -329.5t-132 -217.5t-228.5 -120.5
t-339.5 -36.5zM420 1720l411 271h144l405 -271h-186l-291 203l-297 -203h-186z" />
    <glyph glyph-name="Udieresis.ss01" horiz-adv-x="1802" 
d="M901 -20q-276 0 -438 72t-233.5 224t-71.5 408v954h129v-954q0 -106 14 -190t39.5 -145t67 -105.5t89 -72.5t114 -44.5t134.5 -22.5t156 -6t156 6t134 22.5t114 44.5t89.5 72.5t67 105.5t40 145t14.5 190v954h126v-954q0 -196 -41 -329.5t-132 -217.5t-228.5 -120.5
t-339.5 -36.5zM457 1872q0 40 24.5 63t59.5 23t59.5 -23t24.5 -63q0 -36 -24.5 -59t-59.5 -23t-59.5 23t-24.5 59zM1171 1872q0 40 24.5 63t61.5 23q34 0 59 -23.5t25 -62.5q0 -36 -25 -59t-59 -23q-36 0 -61 23t-25 59z" />
    <glyph glyph-name="Ugrave.ss01" horiz-adv-x="1802" 
d="M901 -20q-276 0 -438 72t-233.5 224t-71.5 408v954h129v-954q0 -106 14 -190t39.5 -145t67 -105.5t89 -72.5t114 -44.5t134.5 -22.5t156 -6t156 6t134 22.5t114 44.5t89.5 72.5t67 105.5t40 145t14.5 190v954h126v-954q0 -196 -41 -329.5t-132 -217.5t-228.5 -120.5
t-339.5 -36.5zM342 1911l20 80l1096 -152l-20 -80z" />
    <glyph glyph-name="Uhungarumlaut.ss01" horiz-adv-x="1802" 
d="M901 -20q-276 0 -438 72t-233.5 224t-71.5 408v954h129v-954q0 -106 14 -190t39.5 -145t67 -105.5t89 -72.5t114 -44.5t134.5 -22.5t156 -6t156 6t134 22.5t114 44.5t89.5 72.5t67 105.5t40 145t14.5 190v954h126v-954q0 -196 -41 -329.5t-132 -217.5t-228.5 -120.5
t-339.5 -36.5zM729 1761l236 230h110l-215 -230h-131zM969 1761l235 230h109l-215 -230h-129z" />
    <glyph glyph-name="Umacron.ss01" horiz-adv-x="1802" 
d="M901 -20q-276 0 -438 72t-233.5 224t-71.5 408v954h129v-954q0 -106 14 -190t39.5 -145t67 -105.5t89 -72.5t114 -44.5t134.5 -22.5t156 -6t156 6t134 22.5t114 44.5t89.5 72.5t67 105.5t40 145t14.5 190v954h126v-954q0 -196 -41 -329.5t-132 -217.5t-228.5 -120.5
t-339.5 -36.5zM342 1835v82h1116v-82h-1116z" />
    <glyph glyph-name="Uogonek.ss01" horiz-adv-x="1802" 
d="M901 -20q-276 0 -438 72t-233.5 224t-71.5 408v954h129v-954q0 -106 14 -190t39.5 -145t67 -105.5t89 -72.5t114 -44.5t134.5 -22.5t156 -6t156 6t134 22.5t114 44.5t89.5 72.5t67 105.5t40 145t14.5 190v954h126v-954q0 -318 -113 -479.5t-368 -204.5
q-102 -36 -152.5 -84t-50.5 -115q0 -66 59.5 -96.5t190.5 -30.5h31l-82 -84h-29q-126 0 -199 47.5t-73 143.5q0 76 49.5 123.5t134.5 79.5q-86 -4 -139 -4z" />
    <glyph glyph-name="Uring.ss01" horiz-adv-x="1802" 
d="M901 -20q-276 0 -438 72t-233.5 224t-71.5 408v954h129v-954q0 -106 14 -190t39.5 -145t67 -105.5t89 -72.5t114 -44.5t134.5 -22.5t156 -6t156 6t134 22.5t114 44.5t89.5 72.5t67 105.5t40 145t14.5 190v954h126v-954q0 -196 -41 -329.5t-132 -217.5t-228.5 -120.5
t-339.5 -36.5zM735 1896q0 71 49.5 118.5t116.5 47.5t116.5 -47.5t49.5 -118.5t-49 -118t-117 -47t-117 47t-49 118zM811 1896q0 -40 24.5 -65t65.5 -25t65.5 25t24.5 65t-24.5 65.5t-65.5 25.5t-65.5 -25.5t-24.5 -65.5z" />
    <glyph glyph-name="V.ss01" horiz-adv-x="1673" 
d="M770 0l-743 1638h137l661 -1472l13 -29l10 29l661 1472h138l-744 -1638h-133z" />
    <glyph glyph-name="W.ss01" horiz-adv-x="2545" 
d="M618 0l-579 1638h131l514 -1474l518 1474h141l515 -1458l4 -16l6 16l508 1458h131l-578 -1638h-131l-522 1464l-4 13l-4 -13l-520 -1464h-130z" />
    <glyph glyph-name="Wacute.ss01" horiz-adv-x="2545" 
d="M618 0l-579 1638h131l514 -1474l518 1474h141l515 -1458l4 -16l6 16l508 1458h131l-578 -1638h-131l-522 1464l-4 13l-4 -13l-520 -1464h-130zM715 1839l1095 152l21 -80l-1096 -152z" />
    <glyph glyph-name="Wcircumflex.ss01" horiz-adv-x="2545" 
d="M618 0l-579 1638h131l514 -1474l518 1474h141l515 -1458l4 -16l6 16l508 1458h131l-578 -1638h-131l-522 1464l-4 13l-4 -13l-520 -1464h-130zM793 1720l411 271h144l405 -271h-186l-291 203l-297 -203h-186z" />
    <glyph glyph-name="Wdieresis.ss01" horiz-adv-x="2545" 
d="M618 0l-579 1638h131l514 -1474l518 1474h141l515 -1458l4 -16l6 16l508 1458h131l-578 -1638h-131l-522 1464l-4 13l-4 -13l-520 -1464h-130zM829 1872q0 40 24.5 63t59.5 23t59.5 -23t24.5 -63q0 -36 -24.5 -59t-59.5 -23t-59.5 23t-24.5 59zM1544 1872q0 40 24.5 63
t61.5 23q34 0 59 -23.5t25 -62.5q0 -36 -25 -59t-59 -23q-36 0 -61 23t-25 59z" />
    <glyph glyph-name="Wgrave.ss01" horiz-adv-x="2545" 
d="M618 0l-579 1638h131l514 -1474l518 1474h141l515 -1458l4 -16l6 16l508 1458h131l-578 -1638h-131l-522 1464l-4 13l-4 -13l-520 -1464h-130zM715 1911l20 80l1096 -152l-21 -80z" />
    <glyph glyph-name="X.ss01" horiz-adv-x="1654" 
d="M0 0l756 819l-748 819h160l663 -739l660 739h162l-752 -819l746 -819h-160l-664 739l-663 -739h-160z" />
    <glyph glyph-name="Y.ss01" horiz-adv-x="1765" 
d="M821 0v600l-788 1038h149l701 -929l700 929h150l-789 -1038v-600h-123z" />
    <glyph glyph-name="Yacute.ss01" horiz-adv-x="1765" 
d="M821 0v600l-788 1038h149l701 -929l700 929h150l-789 -1038v-600h-123zM324 1839l1095 152l21 -80l-1096 -152z" />
    <glyph glyph-name="Ycircumflex.ss01" horiz-adv-x="1765" 
d="M821 0v600l-788 1038h149l701 -929l700 929h150l-789 -1038v-600h-123zM401 1720l412 271h143l406 -271h-186l-291 203l-297 -203h-187z" />
    <glyph glyph-name="Ydieresis.ss01" horiz-adv-x="1765" 
d="M821 0v600l-788 1038h149l701 -929l700 929h150l-789 -1038v-600h-123zM440 1872q0 40 24.5 63t59.5 23t59.5 -23t24.5 -63q0 -36 -24.5 -59t-59.5 -23t-59.5 23t-24.5 59zM1155 1872q0 40 24.5 63t61.5 23q34 0 59 -23.5t25 -62.5q0 -36 -25 -59t-59 -23q-36 0 -61 23
t-25 59z" />
    <glyph glyph-name="Ygrave.ss01" horiz-adv-x="1765" 
d="M821 0v600l-788 1038h149l701 -929l700 929h150l-789 -1038v-600h-123zM324 1911l20 80l1096 -152l-21 -80z" />
    <glyph glyph-name="Z.ss01" horiz-adv-x="1521" 
d="M51 0v111l1264 1417h-1264v110h1419v-110l-1263 -1417h1263v-111h-1419z" />
    <glyph glyph-name="Zacute.ss01" horiz-adv-x="1521" 
d="M51 0v111l1264 1417h-1264v110h1419v-110l-1263 -1417h1263v-111h-1419zM203 1839l1095 152l21 -80l-1096 -152z" />
    <glyph glyph-name="Zcaron.ss01" horiz-adv-x="1521" 
d="M51 0v111l1264 1417h-1264v110h1419v-110l-1263 -1417h1263v-111h-1419zM281 2032h186l297 -203l291 203h186l-405 -271h-144z" />
    <glyph glyph-name="Zdotaccent.ss01" horiz-adv-x="1521" 
d="M51 0v111l1264 1417h-1264v110h1419v-110l-1263 -1417h1263v-111h-1419zM664 1845q0 41 28 70t70 29t70 -29t28 -70q0 -38 -28 -66t-70 -28t-70 28t-28 66z" />
    <glyph glyph-name="W.ss02" horiz-adv-x="1507" 
d="M106 0v1638h117v-1372l504 1372h139v-1372l506 1372h121l-604 -1638h-139v1372l-502 -1372h-142z" />
    <glyph glyph-name="W.ss03" horiz-adv-x="3061" 
d="M334 0h-162v1638h121v-1501l1266 1501h157v-1499l1233 1499h154l-1346 -1638h-160v1497z" />
    <glyph glyph-name="i.loclTRK" horiz-adv-x="331" 
d="M106 1331h119v-1331h-119v1331zM66 1563q0 40 28 68t72 28q43 0 70.5 -27.5t27.5 -68.5q0 -38 -27.5 -66.5t-70.5 -28.5t-71.5 28.5t-28.5 66.5z" />
    <glyph glyph-name="uni006A0301" horiz-adv-x="331" 
d="M106 -20v1351h119v-1372q0 -92 -15.5 -157.5t-52.5 -114.5t-101 -73t-158 -24h-93v97h86q125 0 170 68.5t45 224.5zM-33 1526l361 157l32 -73l-358 -156z" />
    <glyph glyph-name="w.ss02" horiz-adv-x="1503" 
d="M106 0v1331h117v-1112l504 1112h139v-1112l504 1112h123l-604 -1331h-139v1120l-502 -1120h-142z" />
    <glyph glyph-name="zero.ss01" horiz-adv-x="1695" 
d="M858 -20q-375 0 -566.5 220.5t-191.5 622.5q0 396 192.5 616t565.5 220q359 0 548 -221t189 -615q0 -400 -188.5 -621.5t-548.5 -221.5zM225 823q0 -343 142 -526l886 1128q-147 123 -395 123q-315 0 -474 -183.5t-159 -541.5zM446 215q150 -123 412 -123
q302 0 457 183.5t155 547.5q0 334 -139 520z" />
    <glyph glyph-name="one.ss01" horiz-adv-x="1222" 
d="M74 109h520v1409q-85 -113 -228.5 -171.5t-302.5 -58.5v115q162 0 283.5 55.5t231.5 179.5h137v-1529h520v-109h-1161v109z" />
    <glyph glyph-name="two.ss01" horiz-adv-x="1638" 
d="M92 111q0 81 6 145.5t23.5 134.5t47 123.5t80 106t119 89.5t166 65t220.5 42l211 23q84 10 146.5 24t124.5 40t101 63t63.5 95t24.5 134q0 352 -573 352q-325 0 -469.5 -116.5t-144.5 -382.5h-125q0 314 179 462t558 148q163 0 289.5 -26.5t219.5 -82t142 -145t49 -211.5
q0 -92 -29 -165t-78 -121.5t-121.5 -84.5t-151 -56t-175.5 -32l-209 -24q-107 -13 -190.5 -35.5t-143.5 -51t-103 -69.5t-69.5 -84.5t-41 -104t-20 -119.5t-5.5 -138h1337v-109h-1458v111z" />
    <glyph glyph-name="three.ss01" horiz-adv-x="1609" 
d="M795 -20q-368 0 -546.5 133t-180.5 399h125q0 -216 146.5 -318t455.5 -102q587 0 587 350q0 336 -565 336h-291v107h291q90 0 164.5 7.5t147 29t122.5 55t80.5 89.5t30.5 130q0 80 -30 141.5t-80.5 101t-123.5 64.5t-151.5 35t-171.5 10q-97 0 -177 -10.5t-155.5 -38
t-126.5 -71.5t-82 -115.5t-31 -165.5h-124q3 512 698 512q340 0 510 -118.5t170 -344.5q0 -137 -90 -234t-246 -128q356 -90 356 -394q0 -231 -182 -345.5t-530 -114.5z" />
    <glyph glyph-name="four.ss01" horiz-adv-x="1564" 
d="M1274 1638v-1159h268v-106h-268v-373h-121v373h-1143v106l1143 1159h121zM158 479h995v1010z" />
    <glyph glyph-name="five.ss01" horiz-adv-x="1615" 
d="M860 1098q322 0 503 -141.5t181 -415.5q0 -272 -190 -416.5t-531 -144.5q-154 0 -281.5 29.5t-227 90t-155 161t-55.5 233.5h125q0 -70 20.5 -128.5t55 -99t83.5 -72t101 -50.5t112.5 -31t113.5 -16.5t108 -4.5q97 0 181.5 14t162 47t132.5 83.5t87.5 128.5t32.5 176
q0 446 -565 446q-232 0 -369.5 -73.5t-234.5 -223.5h-131l61 948h1282v-108h-1169l-49 -692q199 260 616 260z" />
    <glyph glyph-name="six.ss01" horiz-adv-x="1646" 
d="M844 -20q-376 0 -552.5 150t-176.5 450v315q0 193 40 333t127.5 237.5t228 145.5t337.5 48q332 0 490.5 -129.5t158.5 -362.5h-125q0 103 -36 177.5t-105.5 118.5t-163 64.5t-215.5 20.5q-148 0 -256.5 -30t-190.5 -98.5t-123.5 -188t-41.5 -289.5v-84q88 118 248 180
t378 62q333 0 510.5 -139.5t177.5 -419.5q0 -281 -172.5 -421t-537.5 -140zM240 569q0 -249 148 -363t458 -114q296 0 440 106t144 343q0 124 -39 211.5t-115.5 138t-177.5 73.5t-236 23t-244.5 -23t-196 -71t-134 -130.5t-47.5 -193.5z" />
    <glyph glyph-name="seven.ss01" horiz-adv-x="1402" 
d="M-14 1530v108h1388v-108q-138 -68 -251.5 -157t-194.5 -186.5t-143 -213t-100.5 -230t-62.5 -244.5t-33 -248.5t-9 -250.5h-121q0 121 7.5 230t28 236t54.5 239t90.5 231t132 220.5t184 199t240.5 174.5h-1210z" />
    <glyph glyph-name="eight.ss01" horiz-adv-x="1626" 
d="M813 -20q-353 0 -537 123t-184 350q0 158 95.5 264.5t275.5 152.5q-141 39 -225 135.5t-84 225.5q0 206 171.5 317t487.5 111q317 0 488.5 -110.5t171.5 -317.5q0 -129 -84.5 -225.5t-225.5 -135.5q180 -46 275.5 -152.5t95.5 -264.5q0 -227 -184 -350t-537 -123z
M217 455q0 -179 151.5 -272t444.5 -93t444.5 93t151.5 272q0 79 -29 140.5t-80 101.5t-127 66t-164 37t-196 11q-107 0 -195 -11t-164 -37t-127.5 -66t-80.5 -101.5t-29 -140.5zM276 1229q0 -82 42.5 -143t117.5 -96.5t169.5 -52.5t207.5 -17t206.5 17t169.5 52t118.5 96.5
t42.5 143.5q0 155 -138 238t-399 83q-260 0 -398.5 -82.5t-138.5 -238.5z" />
    <glyph glyph-name="nine.ss01" horiz-adv-x="1646" 
d="M799 -20q-332 0 -490.5 130t-158.5 363h124q0 -104 36.5 -178.5t106.5 -118.5t163 -64t215 -20q149 0 258 30t191 98.5t123.5 188t41.5 289.5v86q-86 -119 -246.5 -181t-380.5 -62q-335 0 -512.5 139t-177.5 418q0 280 173.5 420.5t537.5 140.5q377 0 554 -149.5
t177 -448.5v-318q0 -386 -173 -574.5t-562 -188.5zM217 1098q0 -123 39 -210.5t115 -138.5t177 -74.5t236 -23.5t245 23t197 71t135 130.5t48 193.5q0 250 -148 364.5t-460 114.5q-296 0 -440 -106t-144 -344z" />
    <glyph glyph-name="zero.tf" horiz-adv-x="921" 
d="M461 -18q-352 0 -352 411v854q0 412 352 412q354 0 354 -412v-854q0 -411 -354 -411zM233 385q0 -33 3 -63l428 1114q-45 127 -203 127q-54 0 -93 -13.5t-71 -47t-48 -95t-16 -152.5v-870zM272 174q51 -96 189 -96q55 0 94.5 13.5t71 46.5t47.5 94.5t16 152.5v881z" />
    <glyph glyph-name="one.tf" horiz-adv-x="921" 
d="M166 96h248v1366q-37 -61 -101.5 -94t-148.5 -33v103q94 0 153.5 51t98.5 149h119v-1542h247v-96h-616v96z" />
    <glyph glyph-name="two.tf" horiz-adv-x="921" 
d="M111 100q0 95 6 152.5t28 129t69 141t126 155.5l178 192q83 88 126.5 179.5t43.5 216.5v8q0 88 -16 147t-47.5 89t-67.5 41.5t-86 11.5q-51 0 -87 -11.5t-68 -41.5t-48 -90t-16 -150v-103h-125v97q0 195 83 295t261 100q176 0 259 -99.5t83 -293.5q0 -81 -18 -154
t-52.5 -133.5t-65 -102t-73.5 -88.5l-176 -190q-44 -49 -64.5 -72.5t-48 -61.5t-38 -67t-22.5 -75t-15.5 -99.5t-3.5 -126.5h575v-96h-700v100z" />
    <glyph glyph-name="three.tf" horiz-adv-x="921" 
d="M451 -20q-177 0 -263 99.5t-86 299.5v110h123v-112q0 -92 17 -154t50.5 -93t70.5 -42.5t88 -11.5q114 0 172.5 70t58.5 237v106q0 83 -17.5 145t-41.5 94.5t-57.5 52.5t-57.5 25t-49 5h-131v98h131q24 0 49 5t57.5 22t57 45t42 80t17.5 121v86q0 72 -13 126t-34 86
t-52 51t-61 25.5t-67 6.5q-53 0 -91 -11.5t-71.5 -41.5t-50.5 -90t-17 -150v-101h-123v95q0 197 84.5 296t268.5 99q178 0 265 -104.5t87 -290.5v-74q0 -120 -55 -211t-150 -117q98 -31 151.5 -130.5t53.5 -250.5v-92q0 -66 -9.5 -122.5t-34.5 -110.5t-64 -92t-102.5 -61
t-145.5 -23z" />
    <glyph glyph-name="four.tf" horiz-adv-x="921" 
d="M692 1638v-1185h127v-97h-127v-356h-121v356h-471v101l475 1181h117zM209 453h362v913z" />
    <glyph glyph-name="five.tf" horiz-adv-x="921" 
d="M498 1098q155 0 237 -108.5t82 -301.5v-287q0 -203 -90.5 -312t-267.5 -109q-173 0 -260.5 112t-87.5 322v75h125v-83q0 -181 61 -255.5t168 -74.5q112 0 169.5 73.5t57.5 239.5v299q0 150 -53.5 230.5t-157.5 80.5q-56 0 -97.5 -21.5t-67.5 -63t-41.5 -90t-24.5 -113.5
h-123l43 927h573v-96h-460l-29 -590q73 146 244 146z" />
    <glyph glyph-name="six.tf" horiz-adv-x="921" 
d="M469 -20q-352 0 -352 417v852q0 410 344 410q82 0 142.5 -22.5t95 -57.5t55.5 -89.5t27.5 -107t6.5 -120.5v-33h-124v33q0 161 -44.5 229t-156.5 68q-117 0 -169 -68t-52 -229v-316q88 152 262 152q155 0 236 -109t81 -301v-291q0 -201 -87 -309t-265 -108zM242 393
q0 -93 17.5 -157t50.5 -98t71 -48t88 -14q115 0 171 75t56 244v295q0 309 -215 309q-111 0 -175 -85t-64 -222v-299z" />
    <glyph glyph-name="seven.tf" horiz-adv-x="921" 
d="M106 1542v96h693v-96q-210 -335 -298.5 -674t-88.5 -841v-27h-121v25q0 500 91.5 840.5t307.5 676.5h-584z" />
    <glyph glyph-name="eight.tf" horiz-adv-x="921" 
d="M461 -20q-182 0 -266 93.5t-84 291.5v147q0 156 50 239.5t144 112.5q-176 63 -176 303v142q0 162 82 256t250 94q170 0 251 -94t81 -256v-142q0 -240 -175 -303q95 -31 145 -114.5t50 -237.5v-147q0 -197 -85 -291t-267 -94zM236 362q0 -75 12 -128t30.5 -83.5t49 -47.5
t60.5 -22t73 -5t73.5 5t61.5 22t49.5 47.5t30.5 83.5t12 128v162q0 86 -16.5 144.5t-49 88t-70.5 41t-91 11.5q-52 0 -89.5 -11.5t-70 -41t-49 -88t-16.5 -144.5v-162zM254 1159q0 -135 52.5 -193.5t154.5 -58.5q209 0 209 252v152q0 135 -53.5 193.5t-155.5 58.5
q-101 0 -154 -58.5t-53 -193.5v-152z" />
    <glyph glyph-name="nine.tf" horiz-adv-x="921" 
d="M453 1659q352 0 352 -418v-852q0 -409 -344 -409q-82 0 -142.5 22.5t-95.5 57.5t-56 89.5t-27.5 107t-6.5 120.5v33h125v-33q0 -161 44.5 -229t156.5 -68q117 0 169 68t52 229v315q-87 -151 -262 -151q-155 0 -236.5 109t-81.5 300v291q0 201 87.5 309.5t265.5 108.5z
M225 948q0 -309 215 -309q111 0 175.5 85t64.5 222v299q0 93 -17.5 157.5t-50.5 98t-71 48t-88 14.5q-115 0 -171.5 -75.5t-56.5 -244.5v-295z" />
    <glyph glyph-name="zero.dnom" horiz-adv-x="489" 
d="M244 -10q-185 0 -185 217v405q0 217 185 217q186 0 186 -217v-405q0 -217 -186 -217zM152 244l182 432q-7 45 -29.5 62.5t-60.5 17.5q-45 0 -68.5 -27t-23.5 -96v-389zM160 123q15 -60 84 -60q46 0 69 27t23 98v359z" />
    <glyph glyph-name="one.dnom" horiz-adv-x="391" 
d="M41 74h117v628q-37 -57 -121 -57v80q88 0 127 94h82v-745h119v-74h-324v74z" />
    <glyph glyph-name="two.dnom" horiz-adv-x="454" 
d="M43 80q0 89 25.5 151t97.5 136l74 73q79 79 79 187v12q0 68 -23.5 92.5t-66.5 24.5q-42 0 -64 -25t-22 -94v-62h-94v52q0 202 180 202q183 0 183 -206q0 -58 -19.5 -109t-39.5 -77t-52 -60l-78 -78q-53 -53 -69.5 -93t-16.5 -132h273v-74h-367v80z" />
    <glyph glyph-name="three.dnom" horiz-adv-x="464" 
d="M229 -10q-184 0 -184 205v53h92v-62q0 -72 23 -97.5t67 -25.5q48 0 71.5 28.5t23.5 96.5v70q0 40 -9.5 68.5t-25 41t-29 17t-27.5 4.5h-67v74h67q34 0 62.5 24.5t28.5 87.5v60q0 70 -25.5 95.5t-67.5 25.5q-45 0 -68.5 -25t-23.5 -94v-55h-92v47q0 200 184 200
q97 0 141 -58t44 -140v-35q0 -62 -27 -106.5t-76 -59.5q103 -39 103 -188v-41q0 -96 -43.5 -153.5t-141.5 -57.5z" />
    <glyph glyph-name="four.dnom" horiz-adv-x="436" 
d="M348 819v-577h55v-74h-55v-168h-90v168h-229v80l233 571h86zM98 242h160v405z" />
    <glyph glyph-name="five.dnom" horiz-adv-x="458" 
d="M262 549q72 0 113 -51.5t41 -151.5v-129q0 -227 -189 -227q-89 0 -135.5 57t-46.5 166v35h94v-53q0 -132 92 -132q93 0 93 127v154q0 129 -86 129q-80 0 -95 -121h-90l21 467h305v-74h-221l-13 -268q37 72 117 72z" />
    <glyph glyph-name="six.dnom" horiz-adv-x="479" 
d="M244 -10q-185 0 -185 223v385q0 112 42 171.5t137 59.5q178 0 178 -200v-21h-92v19q0 64 -19.5 93.5t-64.5 29.5q-46 0 -67 -29t-21 -94v-144q45 66 122 66q76 0 116 -54t40 -153v-135q0 -104 -47.5 -160.5t-138.5 -56.5zM152 190q0 -72 24.5 -99.5t69.5 -27.5t67.5 30
t22.5 97v156q0 61 -22 94t-64 33q-46 0 -72 -35t-26 -92v-156z" />
    <glyph glyph-name="seven.dnom" horiz-adv-x="411" 
d="M27 745v74h352v-74q-101 -165 -138.5 -332.5t-37.5 -389.5v-23h-90v20q0 220 41 389t145 336h-272z" />
    <glyph glyph-name="eight.dnom" horiz-adv-x="466" 
d="M233 -10q-94 0 -139 48t-45 148v64q0 153 105 182q-97 28 -97 158v57q0 85 44 133.5t132 48.5q89 0 133 -48.5t44 -133.5v-57q0 -130 -97 -158q105 -26 105 -182v-64q0 -100 -45 -148t-140 -48zM143 180q0 -71 22.5 -94t67.5 -23q46 0 69.5 23.5t23.5 93.5v94
q0 67 -24.5 93t-68.5 26t-67 -26t-23 -93v-94zM150 571q0 -56 20.5 -80t62.5 -24q84 0 84 104v82q0 103 -84 103q-41 0 -62 -24t-21 -79v-82z" />
    <glyph glyph-name="nine.dnom" horiz-adv-x="479" 
d="M236 829q184 0 184 -221v-387q0 -112 -41.5 -171.5t-136.5 -59.5q-97 0 -138 56t-41 144v21h93v-18q0 -64 19.5 -93.5t64.5 -29.5q46 0 67 29.5t21 93.5v143q-46 -66 -123 -66q-76 0 -116 54.5t-40 152.5v135q0 105 47.5 161t139.5 56zM143 473q0 -127 86 -127
q46 0 72.5 35.5t26.5 91.5v158q0 71 -25.5 98t-69.5 27q-46 0 -68 -29t-22 -96v-158z" />
    <glyph glyph-name="zero.numr" horiz-adv-x="489" 
d="M244 809q-185 0 -185 217v406q0 217 185 217q186 0 186 -217v-406q0 -217 -186 -217zM152 1063l182 432q-7 45 -29.5 62.5t-60.5 17.5q-45 0 -68.5 -27t-23.5 -96v-389zM160 942q15 -59 84 -59q46 0 69 27t23 98v358z" />
    <glyph glyph-name="one.numr" horiz-adv-x="391" 
d="M41 893h117v629q-38 -58 -121 -58v80q88 0 127 94h82v-745h119v-74h-324v74z" />
    <glyph glyph-name="two.numr" horiz-adv-x="454" 
d="M43 899q0 89 25.5 151t97.5 136l74 74q42 42 60.5 85t18.5 101v12q0 68 -23.5 92.5t-66.5 24.5q-42 0 -64 -25t-22 -94v-61h-94v51q0 203 180 203q183 0 183 -207q0 -58 -19.5 -109t-39.5 -77t-52 -60l-78 -78q-53 -53 -69.5 -93t-16.5 -132h273v-74h-367v80z" />
    <glyph glyph-name="three.numr" horiz-adv-x="464" 
d="M229 809q-184 0 -184 205v53h92v-61q0 -72 23 -97.5t67 -25.5q48 0 71.5 28.5t23.5 96.5v69q0 40 -9.5 68.5t-25 41t-29 17t-27.5 4.5h-67v74h67q33 0 62 25t29 88v59q0 70 -25.5 95.5t-67.5 25.5q-45 0 -68.5 -25t-23.5 -94v-55h-92v47q0 201 184 201q97 0 141 -58.5
t44 -140.5v-35q0 -62 -27 -106.5t-76 -59.5q103 -39 103 -188v-41q0 -96 -43.5 -153.5t-141.5 -57.5z" />
    <glyph glyph-name="four.numr" horiz-adv-x="436" 
d="M348 1638v-577h55v-74h-55v-168h-90v168h-229v80l233 571h86zM98 1061h160v405z" />
    <glyph glyph-name="five.numr" horiz-adv-x="458" 
d="M262 1368q72 0 113 -51.5t41 -151.5v-129q0 -227 -189 -227q-89 0 -135.5 57t-46.5 166v35h94v-53q0 -131 92 -131q93 0 93 127v153q0 129 -86 129q-80 0 -95 -121h-90l21 467h305v-73h-221l-13 -269q37 72 117 72z" />
    <glyph glyph-name="six.numr" horiz-adv-x="479" 
d="M244 809q-185 0 -185 223v385q0 112 42 172t137 60q96 0 137 -56t41 -145v-21h-92v19q0 64 -19.5 93.5t-64.5 29.5q-46 0 -67 -29t-21 -94v-143q45 65 122 65q76 0 116 -54t40 -153v-135q0 -104 -47.5 -160.5t-138.5 -56.5zM152 1010q0 -72 24.5 -99.5t69.5 -27.5
t67.5 30t22.5 97v155q0 61 -22 94t-64 33q-46 0 -72 -35t-26 -92v-155z" />
    <glyph glyph-name="seven.numr" horiz-adv-x="411" 
d="M27 1565v73h352v-73q-101 -165 -138.5 -333t-37.5 -390v-23h-90v21q0 220 41 389t145 336h-272z" />
    <glyph glyph-name="eight.numr" horiz-adv-x="466" 
d="M233 809q-94 0 -139 48.5t-45 148.5v63q0 153 105 182q-97 28 -97 158v57q0 85 44 134t132 49q89 0 133 -49t44 -134v-57q0 -130 -97 -158q105 -26 105 -182v-63q0 -100 -45 -148.5t-140 -48.5zM143 999q0 -71 22 -93.5t68 -22.5t69.5 23t23.5 93v95q0 67 -24 92.5
t-69 25.5q-44 0 -67 -25.5t-23 -92.5v-95zM150 1391q0 -56 21 -80.5t62 -24.5q84 0 84 105v82q0 55 -21 78.5t-63 23.5t-62.5 -23.5t-20.5 -78.5v-82z" />
    <glyph glyph-name="nine.numr" horiz-adv-x="479" 
d="M236 1649q184 0 184 -222v-387q0 -112 -41.5 -171.5t-136.5 -59.5q-97 0 -138 56.5t-41 144.5v20h93v-18q0 -64 19.5 -93.5t64.5 -29.5q46 0 67 29.5t21 93.5v143q-46 -65 -123 -65q-76 0 -116 54t-40 152v136q0 105 47.5 161t139.5 56zM143 1292q0 -127 86 -127
q46 0 72.5 35.5t26.5 91.5v158q0 71 -25.5 98t-69.5 27q-46 0 -68 -29t-22 -96v-158z" />
    <glyph glyph-name="exclamdown.case" horiz-adv-x="368" 
d="M244 0h-121l4 1126h117v-1126zM72 1546q0 50 33 81.5t79 31.5q48 0 80.5 -31.5t32.5 -81.5t-32.5 -81t-80.5 -31q-46 0 -79 31.5t-33 80.5z" />
    <glyph glyph-name="questiondown.case" horiz-adv-x="747" 
d="M367 -20q-163 0 -243.5 93t-80.5 244q0 89 28 166.5t67.5 138t79 123.5t67.5 151.5t28 193.5v36h115v-39q0 -90 -19.5 -170t-49 -135.5t-63.5 -114t-63.5 -107.5t-49 -115t-19.5 -136q0 -233 207 -233q213 0 213 289v104h121v-96q0 -83 -18 -151.5t-56.5 -124
t-105.5 -86.5t-158 -31zM256 1546q0 49 33.5 81t79.5 32q48 0 80 -31.5t32 -81.5t-32 -81t-80 -31q-46 0 -79.5 31.5t-33.5 80.5z" />
    <glyph glyph-name="hyphen.case" horiz-adv-x="952" 
d="M57 842h840v-86h-840v86z" />
    <glyph glyph-name="endash.case" horiz-adv-x="1300" 
d="M57 844h1188v-86h-1188v86z" />
    <glyph glyph-name="emdash.case" horiz-adv-x="2160" 
d="M57 844h2048v-88h-2048v88z" />
    <glyph glyph-name="parenleft.case" horiz-adv-x="534" 
d="M408 -178q-180 247 -260 486t-80 521q0 284 80 520t260 484h112q-189 -267 -269.5 -493.5t-80.5 -510.5q0 -285 79.5 -510t270.5 -497h-112z" />
    <glyph glyph-name="parenright.case" horiz-adv-x="536" 
d="M129 1827q180 -247 260 -486.5t80 -521.5q0 -284 -80 -519.5t-260 -483.5h-113q190 268 270.5 493.5t80.5 509.5q0 285 -79.5 510.5t-271.5 497.5h113z" />
    <glyph glyph-name="braceleft.case" horiz-adv-x="503" 
d="M66 938q79 0 79 178v371q0 184 60 267t186 83h80v-92h-78q-81 0 -113 -62.5t-32 -187.5v-373q0 -108 -18.5 -160t-71.5 -85v-91q53 -33 71.5 -85t18.5 -160v-373q0 -125 32 -187.5t113 -62.5h78v-92h-80q-126 0 -186 83t-60 267v371q0 178 -79 178v213z" />
    <glyph glyph-name="braceright.case" horiz-adv-x="505" 
d="M440 715q-80 0 -80 -178v-371q0 -184 -59.5 -267t-185.5 -83h-80v92h78q81 0 113 62.5t32 187.5v372q0 108 18.5 160.5t71.5 85.5v90q-53 33 -71.5 85.5t-18.5 160.5v373q0 125 -32 187.5t-113 62.5h-78v92h80q126 0 185.5 -83t59.5 -267v-371q0 -178 80 -178v-213z" />
    <glyph glyph-name="bracketleft.case" horiz-adv-x="509" 
d="M475 1837v-86h-264v-1843h264v-86h-366v2015h366z" />
    <glyph glyph-name="bracketright.case" horiz-adv-x="509" 
d="M35 -188v86h264v1843h-264v86h366v-2015h-366z" />
    <glyph glyph-name="at.case" horiz-adv-x="1267" 
d="M731 82q-316 0 -487.5 190.5t-171.5 581.5q0 157 32 285.5t87.5 216t132.5 147.5t164 87.5t184 27.5q99 0 177.5 -24t144.5 -79.5t110 -143.5t68 -220.5t24 -306.5q0 -95 -6 -166.5t-20.5 -133.5t-38.5 -101t-61.5 -61t-88.5 -22q-129 0 -166 127q-66 -145 -203 -145
q-129 0 -203.5 128t-74.5 355t75 355.5t203 128.5q119 0 185 -111v109h108v-670q0 -193 88 -193q101 0 101 400q0 160 -18.5 279.5t-52.5 197.5t-87 126t-115.5 67.5t-144.5 19.5q-80 0 -152 -23.5t-136.5 -75.5t-111.5 -129.5t-74.5 -193.5t-27.5 -258q0 -181 39.5 -314.5
t114.5 -214.5t175.5 -120t229.5 -39q176 0 326 63v-84q-154 -63 -328 -63zM442 825q0 -192 49.5 -286.5t139.5 -94.5q88 0 127 91t39 290q0 198 -39.5 290.5t-126.5 92.5q-90 0 -139.5 -95.5t-49.5 -287.5z" />
    <glyph glyph-name="ampersand.ss01" horiz-adv-x="1648" 
d="M764 -20q-326 0 -488.5 118t-162.5 344q0 134 76.5 243.5t218.5 145.5q-89 23 -156.5 83t-103 141t-35.5 170q0 212 163 323t490 111q335 0 487 -120t152 -370h-121q0 204 -117 294.5t-401 90.5q-279 0 -406 -85t-127 -252q0 -179 126.5 -257.5t408.5 -78.5h516v139h121
v-139h176v-99h-176v-342q0 -460 -641 -460zM231 440q0 -177 126.5 -266.5t406.5 -89.5q276 0 398 88t122 270v340h-518q-278 0 -406.5 -82.5t-128.5 -259.5z" />
    <glyph glyph-name="cent.tf" horiz-adv-x="921" 
d="M422 -143v278q-289 28 -289 410v551q0 380 289 407v279h86v-279q154 -11 221.5 -116.5t67.5 -290.5v-133h-117v137q0 109 -22 176.5t-58.5 96t-91.5 34.5v-1176q41 5 71 22t53.5 51.5t35.5 93.5t12 141v137h117v-131q0 -189 -67.5 -294.5t-221.5 -115.5v-278h-86z
M250 539q0 -154 44.5 -224.5t127.5 -81.5v1172q-83 -11 -127.5 -81t-44.5 -224v-561z" />
    <glyph glyph-name="dollar.tf" horiz-adv-x="921" 
d="M420 -143v125q-157 12 -234 111t-77 298v158h120v-160q0 -156 46.5 -226t144.5 -81v739l-96 70q-105 75 -155 168.5t-50 236.5q0 342 301 361v125h86v-125q152 -12 226.5 -108.5t74.5 -288.5v-93h-121v88q0 83 -13 141t-38 91t-56 48.5t-73 20.5v-651l88 -63
q76 -55 122 -111.5t73.5 -145t27.5 -208.5q0 -188 -71.5 -287t-239.5 -108v-125h-86zM240 1305q0 -119 37 -191t118 -131l25 -18v591q-92 -8 -136 -64t-44 -181v-6zM506 82q103 8 146.5 72t43.5 211v6q0 147 -39.5 227t-132.5 147l-18 15v-678z" />
    <glyph glyph-name="Euro.tf" horiz-adv-x="921" 
d="M37 698v82h135v78h-135v82h135v307q0 412 354 412q353 0 353 -412v-276h-125v284q0 89 -16 150t-48 94t-71 46.5t-93 13.5q-113 0 -171 -66t-58 -238v-315h301v-82h-301v-78h301v-82h-301v-311q0 -91 16 -152.5t47.5 -94.5t71 -46.5t94.5 -13.5q54 0 93 13.5t71 46.5
t48 95t16 152v281h125v-273q0 -415 -353 -415q-354 0 -354 415v303h-135z" />
    <glyph glyph-name="sterling.tf" horiz-adv-x="921" 
d="M84 92q91 75 133.5 166t42.5 219q0 77 -12 150h-164v86h147q-7 31 -29 116.5t-32 133t-20.5 127.5t-10.5 155q0 110 29.5 192.5t80.5 129.5t113 69.5t134 22.5q151 0 244.5 -95.5t93.5 -285.5v-135h-121v139q0 142 -56.5 211.5t-156.5 69.5q-106 0 -173 -74.5t-67 -239.5
q0 -100 12.5 -184.5t44 -208t35.5 -143.5h371v-86h-354q12 -67 12 -142q0 -128 -41.5 -220t-128.5 -169h623v-96h-750v92z" />
    <glyph glyph-name="yen.tf" horiz-adv-x="921" 
d="M137 553v82h246l-283 1003h129l232 -895l231 895h129l-280 -1003h243v-82h-260v-82h260v-82h-260v-389h-125v389h-262v82h262v82h-262z" />
    <glyph glyph-name="bouclecomb" horiz-adv-x="829" 
d="M467 -20q-96 0 -157.5 48.5t-94.5 116.5h-20v1037h20q31 70 93 120t161 50q137 0 211 -97t74 -284v-613q0 -186 -76 -282t-211 -96zM215 373q0 -53 13 -103t38.5 -94.5t71 -72t104.5 -27.5q104 0 147.5 75t43.5 214v602q0 139 -43.5 213.5t-147.5 74.5
q-59 0 -104.5 -27.5t-71 -72t-38.5 -94.5t-13 -103v-585z" />
    <glyph glyph-name="slashcomb" horiz-adv-x="978" 
d="M143 -20l590 1681h90l-590 -1681h-90z" />
    </font>
</defs>
</svg>
