<?xml version="1.0" standalone="no"?>
<!DOCTYPE svg PUBLIC "-//W3C//DTD SVG 1.1//EN" "http://www.w3.org/Graphics/SVG/1.1/DTD/svg11.dtd" >
<svg xmlns="http://www.w3.org/2000/svg" xmlns:xlink="http://www.w3.org/1999/xlink" version="1.1">
<metadata>
Created by FontForge 20201107 at Sun May 19 11:54:59 2024
 By 
Copyright (c) 2020 Fontwerk GmbH. All rights reserved.
</metadata>
<defs>
<font id="TurbineTrial-LightWeb" horiz-adv-x="0" >
  <font-face 
    font-family="."
    font-weight="300"
    font-stretch="normal"
    units-per-em="2048"
    panose-1="2 0 4 4 0 0 0 0 0 0"
    ascent="1638"
    descent="-410"
    x-height="983"
    cap-height="1434"
    bbox="-780 -420 2322 1989"
    underline-thickness="141"
    underline-position="-79"
    unicode-range="U+0020-FEFF"
  />
<missing-glyph horiz-adv-x="962" 
d="M0 0v1434h963v-1434h-963zM86 82h791v1270h-791v-1270zM418 455v182q124 55 179.5 128.5t55.5 168.5q0 93 -53 144.5t-151 51.5q-58 0 -129 -17t-119 -38v92q136 54 250 54q154 0 228.5 -75.5t74.5 -211.5q0 -221 -254 -344v-135h-82zM406 188v129h104v-129h-104z" />
    <glyph glyph-name=".notdef" horiz-adv-x="962" 
d="M0 0v1434h963v-1434h-963zM86 82h791v1270h-791v-1270zM418 455v182q124 55 179.5 128.5t55.5 168.5q0 93 -53 144.5t-151 51.5q-58 0 -129 -17t-119 -38v92q136 54 250 54q154 0 228.5 -75.5t74.5 -211.5q0 -221 -254 -344v-135h-82zM406 188v129h104v-129h-104z" />
    <glyph glyph-name=".null" 
 />
    <glyph glyph-name="nonmarkingreturn" horiz-adv-x="682" 
 />
    <glyph glyph-name="space" unicode=" " horiz-adv-x="491" 
 />
    <glyph glyph-name="comma" unicode="," horiz-adv-x="417" 
d="M127 180h160v-194l-86 -267h-78l59 281h-55v180z" />
    <glyph glyph-name="period" unicode="." horiz-adv-x="417" 
d="M131 180h156v-180h-156v180z" />
    <glyph glyph-name="zero" unicode="0" horiz-adv-x="1499" 
d="M750 -31q-213 0 -347.5 72t-204 235.5t-69.5 430.5q0 201 38 342t116.5 228t192.5 127t274 40q159 0 272.5 -40t192 -127t116 -228t37.5 -342q0 -267 -69 -430.5t-203 -235.5t-346 -72zM750 80q127 0 215.5 31.5t150 104.5t90.5 193.5t29 297.5t-29 297.5t-90.5 193
t-150 104t-215.5 31.5q-171 0 -275.5 -57.5t-158.5 -196t-54 -372.5t54 -373t158.5 -196.5t275.5 -57.5z" />
    <glyph glyph-name="one" unicode="1" horiz-adv-x="880" 
d="M508 1413h108v-1413h-133v1274l-407 -135v108z" />
    <glyph glyph-name="two" unicode="2" horiz-adv-x="1277" 
d="M221 111h963v-111h-1118v127q196 143 327 242t242.5 191t175.5 155.5t109.5 126t62 113t16.5 106.5q0 131 -95.5 200.5t-315.5 69.5q-113 0 -246 -25t-231 -57v121q86 29 220.5 51.5t260.5 22.5q538 0 538 -373q0 -69 -16 -128t-60 -126t-106 -132t-171 -155.5
t-236.5 -186t-319.5 -232.5z" />
    <glyph glyph-name="three" unicode="3" horiz-adv-x="1325" 
d="M393 670v108h197q168 0 265.5 33t134 91.5t36.5 154.5q0 94 -36.5 151.5t-133.5 90t-264 32.5q-116 0 -252.5 -25.5t-230.5 -56.5v121q83 29 217.5 51.5t265.5 22.5q159 0 269.5 -25t174.5 -75.5t92.5 -118t28.5 -160.5q0 -158 -72.5 -232t-238.5 -106
q186 -32 273 -112.5t87 -245.5q0 -400 -614 -400q-149 0 -293 20.5t-213 43.5v121q91 -27 234 -49.5t272 -22.5q134 0 229 20.5t149.5 60.5t78.5 91.5t24 120.5q0 70 -24 122.5t-78 92t-149.5 60t-231.5 20.5h-197z" />
    <glyph glyph-name="four" unicode="4" horiz-adv-x="1361" 
d="M1278 422v-111h-238v-311h-133v311h-844v121l791 981h186v-991h238zM199 422h708v881z" />
    <glyph glyph-name="five" unicode="5" horiz-adv-x="1380" 
d="M729 848q270 0 395 -110.5t125 -323.5q0 -212 -143 -328.5t-447 -116.5q-159 0 -302.5 22.5t-223.5 51.5v119q89 -31 234.5 -55.5t289.5 -24.5q244 0 351.5 84.5t107.5 245.5t-99 243t-325 82q-255 0 -522 -73v749h1008v-110h-877v-512q215 57 428 57z" />
    <glyph glyph-name="six" unicode="6" horiz-adv-x="1441" 
d="M250 684v-119q3 44 19 83.5t53 78.5t92.5 67.5t144.5 46t203 17.5q297 0 436 -112.5t139 -327.5q0 -449 -596 -449q-339 0 -480.5 155t-141.5 525q0 413 170 604t514 191q120 0 246.5 -22t212.5 -52v-121q-249 82 -451 82q-285 0 -423 -154.5t-138 -492.5zM1204 416
q0 167 -110.5 251.5t-354.5 84.5q-241 0 -353 -80.5t-112 -225.5q0 -179 111 -271.5t354 -92.5q244 0 354.5 84t110.5 250z" />
    <glyph glyph-name="seven" unicode="7" horiz-adv-x="1294" 
d="M61 1413h1123v-110l-701 -1303h-147l706 1303h-981v110z" />
    <glyph glyph-name="eight" unicode="8" horiz-adv-x="1480" 
d="M741 -31q-171 0 -293.5 28t-193.5 82t-103 125t-32 165q0 150 83.5 238.5t286.5 119.5q-176 32 -247.5 114.5t-71.5 223.5q0 72 17.5 129t58 105t106 79t163 48.5t226.5 17.5q160 0 272 -26t176.5 -77t93 -118t28.5 -158q0 -141 -71.5 -223.5t-248.5 -114.5
q203 -31 287 -119.5t84 -238.5q0 -75 -19.5 -135t-65 -110t-116.5 -84t-177 -52.5t-243 -18.5zM741 778q127 0 213.5 18t135.5 55t69.5 86.5t20.5 119.5t-20.5 119t-69.5 85.5t-135.5 54t-213.5 17.5q-128 0 -214.5 -17.5t-135.5 -54t-69.5 -85.5t-20.5 -119t20.5 -119.5
t69.5 -86.5t135.5 -55t214.5 -18zM741 80q138 0 234 20t151 59.5t79 91.5t24 122q0 71 -24 123.5t-79 92.5t-151 60.5t-234 20.5q-140 0 -236.5 -20t-150.5 -60.5t-77 -92.5t-23 -124q0 -71 23.5 -122.5t78 -91t151 -59.5t234.5 -20z" />
    <glyph glyph-name="nine" unicode="9" horiz-adv-x="1441" 
d="M1192 731v119q-3 -45 -19 -84.5t-53.5 -79t-93.5 -68t-145 -46t-203 -17.5q-574 0 -574 440q0 449 596 449q338 0 479.5 -156t141.5 -524q0 -413 -169.5 -604t-514.5 -191q-117 0 -243 21.5t-214 50.5v121q255 -80 451 -80q284 0 422.5 155t138.5 494zM238 997
q0 -167 110 -251t354 -84q463 0 463 305q0 179 -110.5 270.5t-352.5 91.5q-244 0 -354 -83t-110 -249z" />
    <glyph glyph-name="A" unicode="A" horiz-adv-x="1394" 
d="M1241 0l-178 418h-735l-178 -418h-138l611 1434h149l610 -1434h-141zM371 532h649l-254 596q-32 82 -70 185l-69 -185z" />
    <glyph glyph-name="B" unicode="B" horiz-adv-x="1337" 
d="M936 754q172 -31 245.5 -120.5t73.5 -232.5q0 -401 -491 -401h-627v1434h604q118 0 205 -29t135.5 -80t71.5 -113t23 -137q0 -245 -240 -321zM727 1323h-457v-532h412q103 0 175 20t111.5 58t56.5 84.5t17 107.5q0 127 -70.5 194.5t-244.5 67.5zM762 111q103 0 175 21
t111.5 61.5t56.5 90.5t17 117q0 66 -18 114.5t-62.5 89t-128.5 61t-208 20.5h-435v-575h492z" />
    <glyph glyph-name="C" unicode="C" horiz-adv-x="1302" 
d="M1243 47q-96 -34 -225.5 -56t-247.5 -22q-359 0 -523.5 179t-164.5 569q0 387 166 567t524 180q106 0 225 -19.5t211 -49.5v-121q-231 78 -438 78q-295 0 -425 -149t-130 -486q0 -338 131 -486.5t428 -148.5q202 0 469 84v-119z" />
    <glyph glyph-name="D" unicode="D" horiz-adv-x="1443" 
d="M664 1434q197 0 328 -37t215 -123.5t119.5 -220.5t35.5 -336t-36 -336t-120 -220.5t-214.5 -123.5t-327.5 -37h-527v1434h527zM664 111q166 0 271.5 29t172.5 101t94 185t27 291q0 177 -27 290t-94.5 185.5t-173 101.5t-270.5 29h-394v-1212h394z" />
    <glyph glyph-name="E" unicode="E" horiz-adv-x="1200" 
d="M270 115h899v-115h-1032v1434h983v-115h-850v-524h707v-113h-707v-567z" />
    <glyph glyph-name="F" unicode="F" horiz-adv-x="1157" 
d="M1120 1319h-850v-584h707v-110h-707v-625h-133v1434h983v-115z" />
    <glyph glyph-name="G" unicode="G" horiz-adv-x="1439" 
d="M786 -31q-370 0 -537 177.5t-167 570.5q0 390 168.5 568.5t537.5 178.5q256 0 498 -67v-119q-271 74 -495 74q-311 0 -443.5 -146t-132.5 -489t133.5 -489t446.5 -146q143 0 401 43v469h-350v111h477v-672q-118 -27 -268.5 -45.5t-268.5 -18.5z" />
    <glyph glyph-name="H" unicode="H" horiz-adv-x="1468" 
d="M1200 1434h133v-1434h-133v680h-930v-680h-133v1434h133v-639h930v639z" />
    <glyph glyph-name="I" unicode="I" horiz-adv-x="405" 
d="M137 1434h133v-1434h-133v1434z" />
    <glyph glyph-name="J" unicode="J" horiz-adv-x="698" 
d="M53 115q120 -13 150 -13q143 0 190 54.5t47 203.5v1074h133v-1076q0 -100 -16 -166.5t-55.5 -114t-108 -68.5t-172.5 -21q-105 0 -168 14v113z" />
    <glyph glyph-name="K" unicode="K" horiz-adv-x="1302" 
d="M270 827q0 -40 -12 -280q42 49 113.5 127.5t125 136t146.5 156t117 123.5l332 344h163l-593 -623l690 -811h-166l-611 719l-305 -311v-408h-133v1434h133v-607z" />
    <glyph glyph-name="L" unicode="L" horiz-adv-x="1142" 
d="M270 117h838v-117h-971v1434h133v-1317z" />
    <glyph glyph-name="M" unicode="M" horiz-adv-x="1708" 
d="M1444 1024q0 101 4 305q-12 -31 -50 -132.5t-59 -152.5l-424 -1044h-124l-422 1044q-26 65 -109 285q4 -212 4 -305v-1024h-127v1434h205l391 -959q94 -232 121 -313q31 92 121 309l393 963h203v-1434h-127v1024z" />
    <glyph glyph-name="N" unicode="N" horiz-adv-x="1466" 
d="M137 0v1434h166l748 -1061q38 -52 153 -232q-2 84 -2 267v1026h129v-1434h-166l-757 1073q-87 128 -144 219v-268v-1024h-127z" />
    <glyph glyph-name="O" unicode="O" horiz-adv-x="1521" 
d="M762 -31q-184 0 -313.5 47.5t-207.5 144.5t-113.5 233t-35.5 323t35.5 322.5t113.5 232.5t207.5 144.5t313.5 47.5q183 0 312.5 -47.5t208 -144t114 -232.5t35.5 -323q0 -186 -35.5 -322t-114 -233t-208 -145t-312.5 -48zM762 80q149 0 251.5 37.5t165.5 118t91 197.5
t28 284q0 333 -122 485t-414 152q-149 0 -252 -37.5t-166 -118t-91 -197.5t-28 -284t28 -283.5t91 -197t166 -118.5t252 -38z" />
    <glyph glyph-name="P" unicode="P" horiz-adv-x="1249" 
d="M700 1434q139 0 238 -30t154.5 -88t80.5 -132.5t25 -173.5q0 -97 -24.5 -171t-80 -132t-154.5 -88.5t-239 -30.5h-430v-588h-133v1434h563zM698 698q105 0 178 21.5t113.5 64.5t58 97.5t17.5 128.5q0 75 -17.5 129.5t-58 97.5t-113.5 64.5t-178 21.5h-428v-625h428z" />
    <glyph glyph-name="Q" unicode="Q" horiz-adv-x="1521" 
d="M811 -31q4 -146 54.5 -193.5t191.5 -47.5q83 0 235 20v-110q-155 -19 -239 -19q-192 0 -270 64.5t-78 207.5q0 48 6 78q-170 7 -289.5 57.5t-192 147t-105 229.5t-32.5 314q0 187 35.5 322.5t113.5 232.5t207.5 144.5t313.5 47.5q183 0 312.5 -47.5t208 -144t114 -232.5
t35.5 -323q0 -180 -33 -313t-106 -229.5t-192.5 -147.5t-289.5 -58zM225 717q0 -167 28 -283.5t91 -197t166 -118.5t252 -38t251.5 37.5t165.5 118t91 197.5t28 284q0 333 -122 485t-414 152q-149 0 -252 -37.5t-166 -118t-91 -197.5t-28 -284z" />
    <glyph glyph-name="R" unicode="R" horiz-adv-x="1325" 
d="M137 1434h547q140 0 239 -30t154.5 -87t80 -129.5t24.5 -167.5q0 -86 -23 -152.5t-65 -111.5t-105 -74t-137.5 -43t-167.5 -16q77 -21 147 -77.5t175 -174.5l325 -371h-164l-372 424q-89 103 -163 142.5t-183 39.5h-179v-606h-133v1434zM270 1323v-608h346
q105 0 182.5 14.5t125 39.5t76 65t39 83t10.5 101q0 72 -17 125t-57.5 95t-113 63.5t-177.5 21.5h-414z" />
    <glyph glyph-name="S" unicode="S" horiz-adv-x="1243" 
d="M1090 1282q-260 72 -474 72q-117 0 -198.5 -18.5t-124.5 -53t-61.5 -76t-18.5 -94.5q0 -40 6.5 -68t31 -62.5t69.5 -62.5t125 -58.5t194 -59.5q164 -42 269 -87.5t162 -102.5t78 -118t21 -147q0 -85 -27.5 -151t-90 -118.5t-173.5 -80t-268 -27.5q-127 0 -276 23t-250 57
v119q269 -88 526 -88q124 0 210 19t132 56.5t65 82.5t19 106q0 50 -8.5 84t-34.5 70.5t-74.5 65t-129 58.5t-197.5 60q-128 32 -220.5 70t-148.5 76.5t-88.5 86t-43.5 92.5t-11 103q0 354 541 354q249 0 469 -63v-119z" />
    <glyph glyph-name="T" unicode="T" horiz-adv-x="1245" 
d="M1208 1434v-115h-520v-1319h-131v1319h-520v115h1171z" />
    <glyph glyph-name="U" unicode="U" horiz-adv-x="1449" 
d="M1325 1434v-873q0 -592 -600 -592q-163 0 -280.5 42t-186.5 122t-101 185.5t-32 242.5v873h131v-873q0 -234 109 -356.5t360 -122.5q249 0 358 122.5t109 356.5v873h133z" />
    <glyph glyph-name="V" unicode="V" horiz-adv-x="1327" 
d="M1176 1434h139l-582 -1434h-141l-580 1434h142l448 -1119q26 -59 64 -176q22 81 61 176z" />
    <glyph glyph-name="W" unicode="W" horiz-adv-x="1966" 
d="M12 1434h140l340 -1117q30 -104 40 -167q11 58 43 167l343 1117h135l342 -1117q33 -114 41 -165q12 58 43 165l340 1117h137l-449 -1434h-141l-342 1116q-34 132 -41 170q-9 -58 -41 -170l-342 -1116h-141z" />
    <glyph glyph-name="X" unicode="X" horiz-adv-x="1308" 
d="M-8 0l575 739l-536 695h159l338 -443q35 -44 127 -170q55 81 125 170l340 443h158l-539 -693l580 -741h-160l-383 492q-83 109 -121 165q-8 -10 -31.5 -41.5t-48 -63.5t-47.5 -60l-381 -492h-155z" />
    <glyph glyph-name="Y" unicode="Y" horiz-adv-x="1298" 
d="M582 0v580l-570 854h154l418 -629q27 -41 65 -117q35 67 68 117l418 629h151l-573 -856v-578h-131z" />
    <glyph glyph-name="Z" unicode="Z" horiz-adv-x="1271" 
d="M96 1434h1090v-117l-811 -1016q-102 -126 -164 -188q61 2 250 2h749v-115h-1149v117l813 1016q102 126 164 188q-61 -2 -247 -2h-695v115z" />
    <glyph glyph-name="grave" unicode="`" horiz-adv-x="458" 
d="M41 1516h131l246 -322h-109z" />
    <glyph glyph-name="a" unicode="a" horiz-adv-x="1101" 
d="M160 973q182 41 362 41q137 0 226.5 -24t139.5 -76.5t69.5 -122t19.5 -173.5v-618h-92l-13 221q-16 -49 -44 -90t-74.5 -79t-121 -59.5t-169.5 -21.5q-209 0 -301 74t-92 223q0 101 40.5 163.5t144 97t280.5 34.5q93 0 313 -20v82q0 79 -13 128t-49.5 85t-102 51.5
t-169.5 15.5q-163 0 -354 -45v113zM551 467q-140 0 -218.5 -23.5t-106 -64t-27.5 -109.5q0 -100 63.5 -148t220.5 -48q186 0 277.5 92t91.5 280q-150 21 -301 21z" />
    <glyph glyph-name="b" unicode="b" horiz-adv-x="1191" 
d="M637 -31q-329 0 -408 250l-12 -219h-90v1434h129v-371q0 -121 -12 -301q12 48 38.5 89.5t72 79.5t119 60.5t167.5 22.5q251 0 359 -129t108 -393q0 -262 -110 -392.5t-361 -130.5zM614 78q198 0 279.5 99t81.5 315q0 217 -81 316t-280 99q-198 0 -280 -99.5t-82 -315.5
t81.5 -315t280.5 -99z" />
    <glyph glyph-name="c" unicode="c" horiz-adv-x="1007" 
d="M909 862q-180 47 -323 47q-203 0 -287 -94.5t-84 -322.5q0 -227 84 -321.5t285 -94.5q177 0 350 65v-110q-64 -26 -161 -44t-195 -18q-262 0 -377 124.5t-115 398.5q0 273 115.5 397.5t378.5 124.5q181 0 329 -41v-111z" />
    <glyph glyph-name="d" unicode="d" horiz-adv-x="1191" 
d="M553 -31q-249 0 -358 129t-109 394q0 263 109.5 392.5t355.5 129.5q94 0 168.5 -22.5t120 -60.5t71.5 -80t37 -89q-12 180 -12 301v371h131v-1434h-92l-12 221q-16 -51 -41 -91.5t-70.5 -79t-121.5 -60t-177 -21.5zM580 78q193 0 276.5 97.5t83.5 316.5q0 220 -84 317.5
t-278 97.5t-277.5 -97t-83.5 -318q0 -219 84.5 -316.5t278.5 -97.5z" />
    <glyph glyph-name="e" unicode="e" horiz-adv-x="1116" 
d="M985 29q-68 -26 -174 -43t-209 -17q-149 0 -249.5 32.5t-159 101t-83 162t-24.5 227.5q0 128 24.5 221.5t80 163.5t151 104.5t233.5 34.5q126 0 216 -33t142 -97.5t75.5 -149.5t23.5 -199q0 -49 -2 -84h-815q3 -202 88 -289.5t301 -87.5q193 0 381 65v-112zM573 913
q-100 0 -169 -23.5t-109.5 -71.5t-59 -111.5t-20.5 -153.5h688q0 181 -74.5 270.5t-255.5 89.5z" />
    <glyph glyph-name="f" unicode="f" horiz-adv-x="686" 
d="M532 1356q-117 0 -157.5 -43t-40.5 -152v-178h328v-106h-328v-877h-129v877h-150v106h150v176q0 153 68 228t239 75q69 0 150 -12v-107q-59 13 -130 13z" />
    <glyph glyph-name="g" unicode="g" horiz-adv-x="1191" 
d="M565 -399q-97 0 -212 19.5t-197 47.5v111q226 -72 399 -72q199 0 291 88.5t92 274.5q0 79 10 206q-84 -235 -397 -235q-127 0 -218.5 35t-144.5 101t-77.5 152.5t-24.5 198.5q0 486 469 486q84 0 151.5 -16.5t109 -40t73 -59t47 -64t27.5 -64.5l12 213h92v-913
q0 -107 -25.5 -189t-82 -146.5t-156 -99t-238.5 -34.5zM578 150q195 0 278.5 98t83.5 280t-83 280.5t-277 98.5q-101 0 -172.5 -26.5t-112.5 -78.5t-59.5 -118.5t-18.5 -155.5q0 -184 82 -281t279 -97z" />
    <glyph glyph-name="h" unicode="h" horiz-adv-x="1138" 
d="M127 1434h129v-363q0 -119 -12 -283q24 99 117 162.5t260 63.5q116 0 196 -25.5t126 -77t65.5 -121t19.5 -167.5v-623h-131v616q0 78 -13.5 129.5t-47.5 89t-94 54t-152 16.5q-95 0 -162 -22t-103.5 -64.5t-52.5 -95t-16 -121.5v-602h-129v1434z" />
    <glyph glyph-name="i" unicode="i" horiz-adv-x="382" 
d="M127 1434h129v-256h-129v256zM127 983h129v-983h-129v983z" />
    <glyph glyph-name="j" unicode="j" horiz-adv-x="380" 
d="M127 1434h129v-256h-129v256zM256 -100q0 -150 -67 -224.5t-226 -74.5q-85 0 -131 8v106q108 -8 111 -8q106 0 145 42.5t39 146.5v1087h129v-1083z" />
    <glyph glyph-name="k" unicode="k" horiz-adv-x="1038" 
d="M127 1434h129v-785q0 -120 -12 -284q55 71 225.5 255.5t343.5 362.5h158l-426 -440l522 -543h-170l-436 457l-205 -205v-252h-129v1434z" />
    <glyph glyph-name="l" unicode="l" horiz-adv-x="413" 
d="M141 1434h131v-1434h-131v1434z" />
    <glyph glyph-name="m" unicode="m" horiz-adv-x="1820" 
d="M985 0h-131v616q0 80 -12.5 132t-45 88.5t-87.5 52.5t-140 16q-163 0 -230 -79t-67 -228v-598h-131v983h92l11 -205q7 42 28.5 80.5t60.5 75t106 58.5t153 22q116 0 193.5 -30t115.5 -78t53 -118q9 40 33 78t64.5 72t106 55t147.5 21q219 0 306 -95t87 -298v-621h-131
v616q0 79 -12.5 131t-45 89t-88 53t-141.5 16q-161 0 -228 -76.5t-67 -220.5v-608z" />
    <glyph glyph-name="n" unicode="n" horiz-adv-x="1167" 
d="M141 983h92l13 -207q9 45 33.5 84.5t67.5 75.5t115.5 57t166.5 21q119 0 200 -25t127.5 -76.5t66 -121t19.5 -168.5v-623h-129v610q0 79 -13 131.5t-47 91t-94.5 55.5t-152.5 17q-96 0 -163 -24.5t-103.5 -71t-52 -102t-15.5 -127.5v-580h-131v983z" />
    <glyph glyph-name="o" unicode="o" horiz-adv-x="1200" 
d="M600 -31q-145 0 -245.5 34.5t-159 104t-84 162.5t-25.5 222t25.5 222t84 162t159 103.5t245.5 34.5t246 -34.5t159.5 -103.5t84.5 -162.5t26 -221.5t-26 -221.5t-84.5 -163t-159.5 -104t-246 -34.5zM600 76q111 0 186 25t118.5 79t62 128.5t18.5 183.5q0 218 -84.5 316.5
t-300.5 98.5q-111 0 -185 -25t-118 -78.5t-62 -128t-18 -183.5t18 -183.5t62 -128.5t118 -79t185 -25z" />
    <glyph glyph-name="p" unicode="p" horiz-adv-x="1191" 
d="M127 -369v1352h90l12 -221q12 40 29.5 72.5t49.5 67t75 58.5t108.5 39t147.5 15q249 0 359 -128.5t110 -393.5q0 -263 -110.5 -393t-356.5 -130q-94 0 -168.5 22.5t-120 61t-71.5 81t-37 89.5q12 -176 12 -301v-291h-129zM614 76q195 0 278 97.5t83 318.5t-84 319
t-277 98q-194 0 -278 -98t-84 -319q0 -220 84.5 -318t277.5 -98z" />
    <glyph glyph-name="q" unicode="q" horiz-adv-x="1189" 
d="M934 -369v289q0 81 10 301q-12 -47 -38 -88.5t-71 -80t-118.5 -61t-167.5 -22.5q-247 0 -357 129.5t-110 393.5q0 263 110.5 392.5t358.5 129.5q81 0 146.5 -15t108 -38.5t75 -57.5t50 -66.5t30.5 -72.5l12 219h90v-1352h-129zM573 78q194 0 279.5 97.5t85.5 316.5
t-84.5 317t-278.5 98t-278 -97t-84 -318q0 -219 83.5 -316.5t276.5 -97.5z" />
    <glyph glyph-name="r" unicode="r" horiz-adv-x="720" 
d="M141 983h92l13 -285q6 64 26.5 116.5t60.5 97t109 69.5t162 25q8 0 80 -5v-122q-66 4 -80 4q-184 0 -258 -90.5t-74 -315.5v-477h-131v983z" />
    <glyph glyph-name="s" unicode="s" horiz-adv-x="997" 
d="M510 -29q-228 0 -406 60v112q214 -63 410 -63q160 0 223.5 43t63.5 133q0 22 -4 40t-9 32t-18.5 26.5t-24 21.5t-34 18t-40 15t-51 13.5t-57 12.5t-67.5 14q-66 13 -104 21.5t-87 22.5t-76 28t-57.5 35.5t-45 47t-24.5 60.5t-10 79q0 133 92.5 201t313.5 68
q146 0 360 -33v-113q-198 39 -358 39q-108 0 -171.5 -19t-86.5 -51t-23 -83q0 -23 3.5 -42t14.5 -34t21.5 -26.5t33 -21.5t40 -16.5t53 -15t60.5 -13.5t73 -14q98 -19 146 -30.5t110 -34.5t88.5 -51.5t46 -75.5t19.5 -113q0 -148 -95.5 -220.5t-322.5 -72.5z" />
    <glyph glyph-name="t" unicode="t" horiz-adv-x="743" 
d="M686 877h-356v-586q0 -108 39.5 -150.5t156.5 -42.5q58 0 131 15v-107q-68 -14 -151 -14q-171 0 -239 75t-68 228v582h-144v106h148l35 236h92v-236h356v-106z" />
    <glyph glyph-name="u" unicode="u" horiz-adv-x="1144" 
d="M1018 0h-90l-10 207q-9 -42 -34.5 -81t-69.5 -75.5t-117.5 -59t-166.5 -22.5q-118 0 -199.5 26t-128 78t-67 122t-20.5 167v621h131v-614q0 -77 14 -128.5t48.5 -89.5t95 -55.5t151.5 -17.5q334 0 334 309v596h129v-983z" />
    <glyph glyph-name="v" unicode="v" horiz-adv-x="1026" 
d="M866 983h138l-416 -983h-150l-415 983h139l293 -707q33 -75 59 -174q37 118 61 174z" />
    <glyph glyph-name="w" unicode="w" horiz-adv-x="1607" 
d="M23 983h139l233 -702q21 -64 51 -185q17 78 52 185l231 702h150l235 -702q21 -64 51 -185q27 108 52 185l235 702h133l-342 -983h-153l-285 870l-287 -870h-153z" />
    <glyph glyph-name="x" unicode="x" horiz-adv-x="991" 
d="M4 0l412 504l-389 479h157l129 -164q153 -193 183 -235q63 85 182 235l131 164h156l-390 -477l414 -506h-158l-167 213q-106 130 -168 215q-40 -53 -168 -215l-168 -213h-156z" />
    <glyph glyph-name="y" unicode="y" horiz-adv-x="1024" 
d="M23 983h139l291 -666q43 -101 61 -172q24 77 64 172l286 666h137l-598 -1352h-137l187 396z" />
    <glyph glyph-name="z" unicode="z" horiz-adv-x="985" 
d="M86 129l545 627l110 121h-172h-467v106h775v-129l-547 -627l-111 -121h174h506v-106h-813v129z" />
    <glyph glyph-name="uni00A0" unicode="&#xa0;" horiz-adv-x="491" 
 />
    <glyph glyph-name="dieresis" unicode="&#xa8;" horiz-adv-x="569" 
d="M41 1454h117v-260h-117v260zM412 1454h116v-260h-116v260z" />
    <glyph glyph-name="macron" unicode="&#xaf;" horiz-adv-x="679" 
d="M41 1368h598v-94h-598v94z" />
    <glyph glyph-name="acute" unicode="&#xb4;" horiz-adv-x="458" 
d="M418 1516l-268 -322h-109l244 322h133z" />
    <glyph glyph-name="periodcentered" unicode="&#xb7;" horiz-adv-x="417" 
d="M131 705h156v-181h-156v181z" />
    <glyph glyph-name="cedilla" unicode="&#xb8;" horiz-adv-x="462" 
d="M281 0l-78 -123q36 4 65 4q72 0 113 -35.5t41 -95.5q0 -69 -49.5 -109t-151.5 -40q-89 0 -180 32v74q86 -29 156 -29q125 0 125 70t-105 70q-52 0 -88 -4l-29 43l93 143h88z" />
    <glyph glyph-name="Agrave" unicode="&#xc0;" horiz-adv-x="1394" 
d="M381 1905h131l246 -322h-109zM1241 0l-178 418h-735l-178 -418h-138l611 1434h149l610 -1434h-141zM371 532h649l-254 596q-32 82 -70 185l-69 -185z" />
    <glyph glyph-name="Aacute" unicode="&#xc1;" horiz-adv-x="1394" 
d="M1006 1905l-269 -322h-108l243 322h134zM1241 0l-178 418h-735l-178 -418h-138l611 1434h149l610 -1434h-141zM371 532h649l-254 596q-32 82 -70 185l-69 -185z" />
    <glyph glyph-name="Acircumflex" unicode="&#xc2;" horiz-adv-x="1394" 
d="M381 1583l250 322h133l250 -322h-109l-207 248l-209 -248h-108zM1241 0l-178 418h-735l-178 -418h-138l611 1434h149l610 -1434h-141zM371 532h649l-254 596q-32 82 -70 185l-69 -185z" />
    <glyph glyph-name="Atilde" unicode="&#xc3;" horiz-adv-x="1394" 
d="M381 1597q3 127 44 183.5t130 56.5q43 0 84.5 -21.5t99.5 -66.5q53 -42 81 -57t52 -15q46 0 64.5 31t24.5 117h86q-3 -129 -44 -185.5t-131 -56.5q-43 0 -85 21.5t-101 68.5q-52 40 -79.5 55t-51.5 15q-46 0 -65 -30.5t-25 -115.5h-84zM1241 0l-178 418h-735l-178 -418
h-138l611 1434h149l610 -1434h-141zM371 532h649l-254 596q-32 82 -70 185l-69 -185z" />
    <glyph glyph-name="Adieresis" unicode="&#xc4;" horiz-adv-x="1394" 
d="M455 1843h116v-260h-116v260zM825 1843h117v-260h-117v260zM1241 0l-178 418h-735l-178 -418h-138l611 1434h149l610 -1434h-141zM371 532h649l-254 596q-32 82 -70 185l-69 -185z" />
    <glyph glyph-name="Aring" unicode="&#xc5;" horiz-adv-x="1394" 
d="M707 1583q-109 0 -165.5 51t-56.5 150q0 100 56.5 152.5t165.5 52.5q107 0 163 -52t56 -153q0 -201 -219 -201zM707 1661q70 0 99.5 28t29.5 93q0 68 -29.5 97.5t-99.5 29.5t-99.5 -29.5t-29.5 -97.5q0 -65 29.5 -93t99.5 -28zM1241 0l-178 418h-735l-178 -418h-138
l611 1434h149l610 -1434h-141zM371 532h649l-254 596q-32 82 -70 185l-69 -185z" />
    <glyph glyph-name="AE" unicode="&#xc6;" horiz-adv-x="2113" 
d="M1204 115h879v-115h-1012v418h-631l-297 -418h-151l1003 1434h1039v-115h-830v-524h688v-113h-688v-567zM512 532h559v801q-25 -41 -139 -215z" />
    <glyph glyph-name="Ccedilla" unicode="&#xc7;" horiz-adv-x="1302" 
d="M1243 47q-95 -34 -224.5 -56t-246.5 -22l-59 -92q36 4 65 4q72 0 113 -35.5t41 -95.5q0 -69 -49.5 -109t-151.5 -40q-89 0 -180 32v74q86 -29 156 -29q124 0 124 70t-104 70q-52 0 -88 -4l-29 43l74 114q-313 20 -457.5 200t-144.5 546q0 387 166 567t524 180
q106 0 225 -19.5t211 -49.5v-121q-231 78 -438 78q-295 0 -425 -149t-130 -486q0 -338 131 -486.5t428 -148.5q202 0 469 84v-119z" />
    <glyph glyph-name="Egrave" unicode="&#xc8;" horiz-adv-x="1200" 
d="M313 1905h131l246 -322h-108zM270 115h899v-115h-1032v1434h983v-115h-850v-524h707v-113h-707v-567z" />
    <glyph glyph-name="Eacute" unicode="&#xc9;" horiz-adv-x="1200" 
d="M936 1905l-268 -322h-109l244 322h133zM270 115h899v-115h-1032v1434h983v-115h-850v-524h707v-113h-707v-567z" />
    <glyph glyph-name="Ecircumflex" unicode="&#xca;" horiz-adv-x="1200" 
d="M311 1583l250 322h133l250 -322h-108l-207 248l-209 -248h-109zM270 115h899v-115h-1032v1434h983v-115h-850v-524h707v-113h-707v-567z" />
    <glyph glyph-name="Edieresis" unicode="&#xcb;" horiz-adv-x="1200" 
d="M385 1843h117v-260h-117v260zM756 1843h116v-260h-116v260zM270 115h899v-115h-1032v1434h983v-115h-850v-524h707v-113h-707v-567z" />
    <glyph glyph-name="Igrave" unicode="&#xcc;" horiz-adv-x="405" 
d="M-113 1905h131l246 -322h-108zM137 1434h133v-1434h-133v1434z" />
    <glyph glyph-name="Iacute" unicode="&#xcd;" horiz-adv-x="405" 
d="M510 1905l-268 -322h-109l244 322h133zM137 1434h133v-1434h-133v1434z" />
    <glyph glyph-name="Icircumflex" unicode="&#xce;" horiz-adv-x="405" 
d="M-115 1583l250 322h133l250 -322h-108l-207 248l-209 -248h-109zM137 1434h133v-1434h-133v1434z" />
    <glyph glyph-name="Idieresis" unicode="&#xcf;" horiz-adv-x="405" 
d="M-41 1843h117v-260h-117v260zM330 1843h116v-260h-116v260zM137 1434h133v-1434h-133v1434z" />
    <glyph glyph-name="Eth" unicode="&#xd0;" horiz-adv-x="1443" 
d="M664 1434q197 0 328 -37t215 -123.5t119.5 -220.5t35.5 -336t-36 -336t-120 -220.5t-214.5 -123.5t-327.5 -37h-527v692h-137v94h137v648h527zM664 111q166 0 271.5 29t172.5 101t94 185t27 291q0 177 -27 290t-94.5 185.5t-173 101.5t-270.5 29h-394v-537h342v-94h-342
v-581h394z" />
    <glyph glyph-name="Ntilde" unicode="&#xd1;" horiz-adv-x="1466" 
d="M418 1597q3 127 44 183.5t130 56.5q43 0 84.5 -21.5t99.5 -66.5q53 -42 81 -57t52 -15q46 0 64 31t24 117h86q-3 -129 -44 -185.5t-130 -56.5q-43 0 -85 21.5t-101 68.5q-52 40 -79.5 55t-51.5 15q-46 0 -65 -30.5t-25 -115.5h-84zM137 0v1434h166l748 -1061
q38 -52 153 -232q-2 84 -2 267v1026h129v-1434h-166l-757 1073q-87 128 -144 219v-268v-1024h-127z" />
    <glyph glyph-name="Ograve" unicode="&#xd2;" horiz-adv-x="1521" 
d="M446 1905h132l245 -322h-108zM762 -31q-184 0 -313.5 47.5t-207.5 144.5t-113.5 233t-35.5 323t35.5 322.5t113.5 232.5t207.5 144.5t313.5 47.5q183 0 312.5 -47.5t208 -144t114 -232.5t35.5 -323q0 -186 -35.5 -322t-114 -233t-208 -145t-312.5 -48zM762 80
q149 0 251.5 37.5t165.5 118t91 197.5t28 284q0 333 -122 485t-414 152q-149 0 -252 -37.5t-166 -118t-91 -197.5t-28 -284t28 -283.5t91 -197t166 -118.5t252 -38z" />
    <glyph glyph-name="Oacute" unicode="&#xd3;" horiz-adv-x="1521" 
d="M1071 1905l-268 -322h-109l244 322h133zM762 -31q-184 0 -313.5 47.5t-207.5 144.5t-113.5 233t-35.5 323t35.5 322.5t113.5 232.5t207.5 144.5t313.5 47.5q183 0 312.5 -47.5t208 -144t114 -232.5t35.5 -323q0 -186 -35.5 -322t-114 -233t-208 -145t-312.5 -48zM762 80
q149 0 251.5 37.5t165.5 118t91 197.5t28 284q0 333 -122 485t-414 152q-149 0 -252 -37.5t-166 -118t-91 -197.5t-28 -284t28 -283.5t91 -197t166 -118.5t252 -38z" />
    <glyph glyph-name="Ocircumflex" unicode="&#xd4;" horiz-adv-x="1521" 
d="M444 1583l250 322h133l250 -322h-108l-207 248l-209 -248h-109zM762 -31q-184 0 -313.5 47.5t-207.5 144.5t-113.5 233t-35.5 323t35.5 322.5t113.5 232.5t207.5 144.5t313.5 47.5q183 0 312.5 -47.5t208 -144t114 -232.5t35.5 -323q0 -186 -35.5 -322t-114 -233
t-208 -145t-312.5 -48zM762 80q149 0 251.5 37.5t165.5 118t91 197.5t28 284q0 333 -122 485t-414 152q-149 0 -252 -37.5t-166 -118t-91 -197.5t-28 -284t28 -283.5t91 -197t166 -118.5t252 -38z" />
    <glyph glyph-name="Otilde" unicode="&#xd5;" horiz-adv-x="1521" 
d="M446 1597q3 127 44.5 183.5t130.5 56.5q43 0 84.5 -21.5t99.5 -66.5q53 -42 81 -57t52 -15q46 0 64 31t24 117h86q-3 -129 -44 -185.5t-130 -56.5q-43 0 -85 21.5t-101 68.5q-52 40 -79.5 55t-51.5 15q-46 0 -65.5 -31t-25.5 -115h-84zM762 -31q-184 0 -313.5 47.5
t-207.5 144.5t-113.5 233t-35.5 323t35.5 322.5t113.5 232.5t207.5 144.5t313.5 47.5q183 0 312.5 -47.5t208 -144t114 -232.5t35.5 -323q0 -186 -35.5 -322t-114 -233t-208 -145t-312.5 -48zM762 80q149 0 251.5 37.5t165.5 118t91 197.5t28 284q0 333 -122 485t-414 152
q-149 0 -252 -37.5t-166 -118t-91 -197.5t-28 -284t28 -283.5t91 -197t166 -118.5t252 -38z" />
    <glyph glyph-name="Odieresis" unicode="&#xd6;" horiz-adv-x="1521" 
d="M518 1843h117v-260h-117v260zM889 1843h117v-260h-117v260zM762 -31q-184 0 -313.5 47.5t-207.5 144.5t-113.5 233t-35.5 323t35.5 322.5t113.5 232.5t207.5 144.5t313.5 47.5q183 0 312.5 -47.5t208 -144t114 -232.5t35.5 -323q0 -186 -35.5 -322t-114 -233t-208 -145
t-312.5 -48zM762 80q149 0 251.5 37.5t165.5 118t91 197.5t28 284q0 333 -122 485t-414 152q-149 0 -252 -37.5t-166 -118t-91 -197.5t-28 -284t28 -283.5t91 -197t166 -118.5t252 -38z" />
    <glyph glyph-name="Oslash" unicode="&#xd8;" horiz-adv-x="1521" 
d="M1219 1335q111 -89 162 -242t51 -376q0 -186 -35.5 -322t-114 -233t-208 -145t-312.5 -48q-239 0 -389 84l-99 -149h-104l131 198q-110 90 -159.5 242.5t-49.5 372.5q0 187 35.5 322.5t113.5 232.5t207.5 144.5t313.5 47.5q235 0 383 -80l100 152h105zM225 717
q0 -363 144 -510l710 1077q-119 70 -317 70q-149 0 -252 -37.5t-166 -118t-91 -197.5t-28 -284zM762 80q149 0 251.5 37.5t165.5 118t91 197.5t28 284q0 371 -149 514l-711 -1077q121 -74 324 -74z" />
    <glyph glyph-name="Ugrave" unicode="&#xd9;" horiz-adv-x="1449" 
d="M410 1905h131l245 -322h-108zM1325 1434v-873q0 -592 -600 -592q-163 0 -280.5 42t-186.5 122t-101 185.5t-32 242.5v873h131v-873q0 -234 109 -356.5t360 -122.5q249 0 358 122.5t109 356.5v873h133z" />
    <glyph glyph-name="Uacute" unicode="&#xda;" horiz-adv-x="1449" 
d="M1034 1905l-268 -322h-109l244 322h133zM1325 1434v-873q0 -592 -600 -592q-163 0 -280.5 42t-186.5 122t-101 185.5t-32 242.5v873h131v-873q0 -234 109 -356.5t360 -122.5q249 0 358 122.5t109 356.5v873h133z" />
    <glyph glyph-name="Ucircumflex" unicode="&#xdb;" horiz-adv-x="1449" 
d="M408 1583l249 322h134l249 -322h-108l-207 248l-209 -248h-108zM1325 1434v-873q0 -592 -600 -592q-163 0 -280.5 42t-186.5 122t-101 185.5t-32 242.5v873h131v-873q0 -234 109 -356.5t360 -122.5q249 0 358 122.5t109 356.5v873h133z" />
    <glyph glyph-name="Udieresis" unicode="&#xdc;" horiz-adv-x="1449" 
d="M481 1843h117v-260h-117v260zM852 1843h117v-260h-117v260zM1325 1434v-873q0 -592 -600 -592q-163 0 -280.5 42t-186.5 122t-101 185.5t-32 242.5v873h131v-873q0 -234 109 -356.5t360 -122.5q249 0 358 122.5t109 356.5v873h133z" />
    <glyph glyph-name="Yacute" unicode="&#xdd;" horiz-adv-x="1298" 
d="M958 1905l-268 -322h-108l243 322h133zM582 0v580l-570 854h154l418 -629q27 -41 65 -117q35 67 68 117l418 629h151l-573 -856v-578h-131z" />
    <glyph glyph-name="Thorn" unicode="&#xde;" horiz-adv-x="1249" 
d="M709 1161q136 0 233 -30t152 -87.5t79.5 -131t24.5 -169.5t-24.5 -169.5t-79.5 -131.5t-152 -88t-233 -30h-439v-324h-133v1434h133v-273h439zM707 436q102 0 173 21t111 63t57 96t17 127q0 72 -17 126t-57 95.5t-111 63t-173 21.5h-437v-613h437z" />
    <glyph glyph-name="germandbls" unicode="&#xdf;" horiz-adv-x="1161" 
d="M801 -25q-157 0 -291 54v110q150 -57 274 -57q205 0 205 151q0 66 -40 102.5t-150 94.5q-45 23 -69.5 37.5t-56 38t-47 45.5t-27 55t-11.5 72q0 50 17 92t43.5 72t59 57t65.5 53.5t59.5 55t43.5 67.5t17 86q0 97 -71.5 145t-239.5 48q-52 0 -95 -5t-74 -12t-55.5 -20
t-40 -24.5t-27 -29.5t-16.5 -31t-8 -33.5t-3.5 -32t-0.5 -31.5v-1135h-131v1133q0 34 1 54t9.5 58.5t24.5 63.5t49.5 56.5t80.5 50t120.5 31.5t167.5 13q233 0 336.5 -74t103.5 -215q0 -59 -17 -108t-43.5 -82.5t-59 -62t-65.5 -52.5t-59.5 -48t-43.5 -55t-17 -67
q0 -34 11.5 -60t40.5 -49t55.5 -38t80.5 -41q45 -23 71 -38t56.5 -39t46 -49t26.5 -61.5t11 -82.5q0 -263 -317 -263z" />
    <glyph glyph-name="agrave" unicode="&#xe0;" horiz-adv-x="1101" 
d="M229 1516h131l246 -322h-108zM160 973q182 41 362 41q137 0 226.5 -24t139.5 -76.5t69.5 -122t19.5 -173.5v-618h-92l-13 221q-16 -49 -44 -90t-74.5 -79t-121 -59.5t-169.5 -21.5q-209 0 -301 74t-92 223q0 101 40.5 163.5t144 97t280.5 34.5q93 0 313 -20v82
q0 79 -13 128t-49.5 85t-102 51.5t-169.5 15.5q-163 0 -354 -45v113zM551 467q-140 0 -218.5 -23.5t-106 -64t-27.5 -109.5q0 -100 63.5 -148t220.5 -48q186 0 277.5 92t91.5 280q-150 21 -301 21z" />
    <glyph glyph-name="aacute" unicode="&#xe1;" horiz-adv-x="1101" 
d="M852 1516l-268 -322h-109l244 322h133zM160 973q182 41 362 41q137 0 226.5 -24t139.5 -76.5t69.5 -122t19.5 -173.5v-618h-92l-13 221q-16 -49 -44 -90t-74.5 -79t-121 -59.5t-169.5 -21.5q-209 0 -301 74t-92 223q0 101 40.5 163.5t144 97t280.5 34.5q93 0 313 -20v82
q0 79 -13 128t-49.5 85t-102 51.5t-169.5 15.5q-163 0 -354 -45v113zM551 467q-140 0 -218.5 -23.5t-106 -64t-27.5 -109.5q0 -100 63.5 -148t220.5 -48q186 0 277.5 92t91.5 280q-150 21 -301 21z" />
    <glyph glyph-name="acircumflex" unicode="&#xe2;" horiz-adv-x="1101" 
d="M229 1194l250 322h133l250 -322h-108l-207 248l-209 -248h-109zM160 973q182 41 362 41q137 0 226.5 -24t139.5 -76.5t69.5 -122t19.5 -173.5v-618h-92l-13 221q-16 -49 -44 -90t-74.5 -79t-121 -59.5t-169.5 -21.5q-209 0 -301 74t-92 223q0 101 40.5 163.5t144 97
t280.5 34.5q93 0 313 -20v82q0 79 -13 128t-49.5 85t-102 51.5t-169.5 15.5q-163 0 -354 -45v113zM551 467q-140 0 -218.5 -23.5t-106 -64t-27.5 -109.5q0 -100 63.5 -148t220.5 -48q186 0 277.5 92t91.5 280q-150 21 -301 21z" />
    <glyph glyph-name="atilde" unicode="&#xe3;" horiz-adv-x="1101" 
d="M213 1208q3 127 44 183.5t130 56.5q43 0 84.5 -21.5t99.5 -66.5q53 -41 81 -56.5t53 -15.5q46 0 64 31t24 117h86q-3 -128 -44 -185t-130 -57q-42 0 -84 21.5t-103 68.5q-52 40 -79.5 55t-51.5 15q-46 0 -65 -30.5t-25 -115.5h-84zM160 973q182 41 362 41
q137 0 226.5 -24t139.5 -76.5t69.5 -122t19.5 -173.5v-618h-92l-13 221q-16 -49 -44 -90t-74.5 -79t-121 -59.5t-169.5 -21.5q-209 0 -301 74t-92 223q0 101 40.5 163.5t144 97t280.5 34.5q93 0 313 -20v82q0 79 -13 128t-49.5 85t-102 51.5t-169.5 15.5q-163 0 -354 -45
v113zM551 467q-140 0 -218.5 -23.5t-106 -64t-27.5 -109.5q0 -100 63.5 -148t220.5 -48q186 0 277.5 92t91.5 280q-150 21 -301 21z" />
    <glyph glyph-name="adieresis" unicode="&#xe4;" horiz-adv-x="1101" 
d="M301 1454h117v-260h-117v260zM672 1454h116v-260h-116v260zM160 973q182 41 362 41q137 0 226.5 -24t139.5 -76.5t69.5 -122t19.5 -173.5v-618h-92l-13 221q-16 -49 -44 -90t-74.5 -79t-121 -59.5t-169.5 -21.5q-209 0 -301 74t-92 223q0 101 40.5 163.5t144 97
t280.5 34.5q93 0 313 -20v82q0 79 -13 128t-49.5 85t-102 51.5t-169.5 15.5q-163 0 -354 -45v113zM551 467q-140 0 -218.5 -23.5t-106 -64t-27.5 -109.5q0 -100 63.5 -148t220.5 -48q186 0 277.5 92t91.5 280q-150 21 -301 21z" />
    <glyph glyph-name="aring" unicode="&#xe5;" horiz-adv-x="1101" 
d="M547 1192q-109 0 -165 51.5t-56 151.5t56 152t165 52q108 0 163.5 -51.5t55.5 -152.5q0 -203 -219 -203zM547 1272q70 0 99.5 28t29.5 93q0 68 -29.5 97.5t-99.5 29.5t-99.5 -29.5t-29.5 -97.5q0 -65 29.5 -93t99.5 -28zM160 973q182 41 362 41q137 0 226.5 -24
t139.5 -76.5t69.5 -122t19.5 -173.5v-618h-92l-13 221q-16 -49 -44 -90t-74.5 -79t-121 -59.5t-169.5 -21.5q-209 0 -301 74t-92 223q0 101 40.5 163.5t144 97t280.5 34.5q93 0 313 -20v82q0 79 -13 128t-49.5 85t-102 51.5t-169.5 15.5q-163 0 -354 -45v113zM551 467
q-140 0 -218.5 -23.5t-106 -64t-27.5 -109.5q0 -100 63.5 -148t220.5 -48q186 0 277.5 92t91.5 280q-150 21 -301 21z" />
    <glyph glyph-name="ae" unicode="&#xe6;" horiz-adv-x="1884" 
d="M1356 -31q-194 0 -302 62.5t-153 191.5q-39 -113 -147 -182.5t-281 -69.5q-214 0 -308.5 74t-94.5 223q0 144 98.5 217.5t323.5 73.5h356v66q0 79 -13 128t-49.5 85t-102 51.5t-169.5 15.5q-163 0 -354 -45v113q182 41 362 41q182 0 275.5 -50t126.5 -155q98 207 403 207
q123 0 211 -33t139.5 -97t75 -149t23.5 -198q0 -47 -2 -82h-799q3 -204 87.5 -292.5t295.5 -88.5q183 0 371 65v-112q-70 -26 -173.5 -43t-199.5 -17zM975 557h674q0 178 -72.5 267t-249.5 89q-189 0 -269 -89t-83 -267zM483 74q191 0 280 95.5t89 291.5h-336
q-180 0 -248.5 -46t-68.5 -145q0 -100 63.5 -148t220.5 -48z" />
    <glyph glyph-name="ccedilla" unicode="&#xe7;" horiz-adv-x="1007" 
d="M578 -31l-60 -92q36 4 66 4q72 0 112.5 -35.5t40.5 -95.5q0 -69 -49 -109t-151 -40q-90 0 -181 32v74q86 -29 156 -29q125 0 125 70t-105 70q-52 0 -88 -4l-28 43l76 116q-215 19 -310.5 143.5t-95.5 375.5q0 273 115.5 397.5t378.5 124.5q181 0 329 -41v-111
q-180 47 -323 47q-203 0 -287 -94.5t-84 -322.5q0 -227 84 -321.5t285 -94.5q177 0 350 65v-110q-64 -26 -161 -44t-195 -18z" />
    <glyph glyph-name="egrave" unicode="&#xe8;" horiz-adv-x="1116" 
d="M258 1516h131l246 -322h-109zM985 29q-68 -26 -174 -43t-209 -17q-149 0 -249.5 32.5t-159 101t-83 162t-24.5 227.5q0 128 24.5 221.5t80 163.5t151 104.5t233.5 34.5q126 0 216 -33t142 -97.5t75.5 -149.5t23.5 -199q0 -49 -2 -84h-815q3 -202 88 -289.5t301 -87.5
q193 0 381 65v-112zM573 913q-100 0 -169 -23.5t-109.5 -71.5t-59 -111.5t-20.5 -153.5h688q0 181 -74.5 270.5t-255.5 89.5z" />
    <glyph glyph-name="eacute" unicode="&#xe9;" horiz-adv-x="1116" 
d="M881 1516l-269 -322h-108l244 322h133zM985 29q-68 -26 -174 -43t-209 -17q-149 0 -249.5 32.5t-159 101t-83 162t-24.5 227.5q0 128 24.5 221.5t80 163.5t151 104.5t233.5 34.5q126 0 216 -33t142 -97.5t75.5 -149.5t23.5 -199q0 -49 -2 -84h-815q3 -202 88 -289.5
t301 -87.5q193 0 381 65v-112zM573 913q-100 0 -169 -23.5t-109.5 -71.5t-59 -111.5t-20.5 -153.5h688q0 181 -74.5 270.5t-255.5 89.5z" />
    <glyph glyph-name="ecircumflex" unicode="&#xea;" horiz-adv-x="1116" 
d="M256 1194l250 322h133l250 -322h-109l-207 248l-208 -248h-109zM985 29q-68 -26 -174 -43t-209 -17q-149 0 -249.5 32.5t-159 101t-83 162t-24.5 227.5q0 128 24.5 221.5t80 163.5t151 104.5t233.5 34.5q126 0 216 -33t142 -97.5t75.5 -149.5t23.5 -199q0 -49 -2 -84
h-815q3 -202 88 -289.5t301 -87.5q193 0 381 65v-112zM573 913q-100 0 -169 -23.5t-109.5 -71.5t-59 -111.5t-20.5 -153.5h688q0 181 -74.5 270.5t-255.5 89.5z" />
    <glyph glyph-name="edieresis" unicode="&#xeb;" horiz-adv-x="1116" 
d="M330 1454h116v-260h-116v260zM700 1454h117v-260h-117v260zM985 29q-68 -26 -174 -43t-209 -17q-149 0 -249.5 32.5t-159 101t-83 162t-24.5 227.5q0 128 24.5 221.5t80 163.5t151 104.5t233.5 34.5q126 0 216 -33t142 -97.5t75.5 -149.5t23.5 -199q0 -49 -2 -84h-815
q3 -202 88 -289.5t301 -87.5q193 0 381 65v-112zM573 913q-100 0 -169 -23.5t-109.5 -71.5t-59 -111.5t-20.5 -153.5h688q0 181 -74.5 270.5t-255.5 89.5z" />
    <glyph glyph-name="igrave" unicode="&#xec;" horiz-adv-x="382" 
d="M-123 1516h131l246 -322h-109zM127 983h129v-983h-129v983z" />
    <glyph glyph-name="iacute" unicode="&#xed;" horiz-adv-x="382" 
d="M500 1516l-269 -322h-108l244 322h133zM127 983h129v-983h-129v983z" />
    <glyph glyph-name="icircumflex" unicode="&#xee;" horiz-adv-x="382" 
d="M-125 1194l250 322h133l250 -322h-109l-206 248l-209 -248h-109zM127 983h129v-983h-129v983z" />
    <glyph glyph-name="idieresis" unicode="&#xef;" horiz-adv-x="382" 
d="M-53 1454h116v-260h-116v260zM317 1454h117v-260h-117v260zM127 983h129v-983h-129v983z" />
    <glyph glyph-name="eth" unicode="&#xf0;" horiz-adv-x="1206" 
d="M713 1294q192 -151 296.5 -354t104.5 -434q0 -140 -25.5 -237.5t-85 -166t-159 -101t-246.5 -32.5q-143 0 -244.5 34t-159 99.5t-83 150.5t-25.5 198q0 112 25.5 197.5t81.5 150.5t151.5 99t228.5 34q149 0 246 -46.5t150 -150.5q-106 308 -346 500l-263 -170l-38 57
l241 160q-100 70 -235 139l51 64q156 -65 272 -146l236 156l41 -61zM598 76q110 0 186 24.5t119 74.5t61.5 116.5t18.5 159.5t-18.5 159.5t-61.5 116t-119 74t-186 24.5t-185 -24t-118 -73.5t-61.5 -116t-18.5 -160.5q0 -93 18.5 -159.5t61.5 -116.5t118 -74.5t185 -24.5z
" />
    <glyph glyph-name="ntilde" unicode="&#xf1;" horiz-adv-x="1167" 
d="M250 1208q3 127 44 183.5t130 56.5q43 0 84.5 -21.5t99.5 -66.5q53 -42 81 -57t52 -15q46 0 64 31t24 117h86q-3 -128 -44 -185t-130 -57q-42 0 -83 21.5t-103 68.5q-52 40 -79.5 55t-51.5 15q-46 0 -65 -30.5t-25 -115.5h-84zM141 983h92l13 -207q9 45 33.5 84.5
t67.5 75.5t115.5 57t166.5 21q119 0 200 -25t127.5 -76.5t66 -121t19.5 -168.5v-623h-129v610q0 79 -13 131.5t-47 91t-94.5 55.5t-152.5 17q-96 0 -163 -24.5t-103.5 -71t-52 -102t-15.5 -127.5v-580h-131v983z" />
    <glyph glyph-name="ograve" unicode="&#xf2;" horiz-adv-x="1200" 
d="M287 1516h131l246 -322h-109zM600 -31q-145 0 -245.5 34.5t-159 104t-84 162.5t-25.5 222t25.5 222t84 162t159 103.5t245.5 34.5t246 -34.5t159.5 -103.5t84.5 -162.5t26 -221.5t-26 -221.5t-84.5 -163t-159.5 -104t-246 -34.5zM600 76q111 0 186 25t118.5 79t62 128.5
t18.5 183.5q0 218 -84.5 316.5t-300.5 98.5q-111 0 -185 -25t-118 -78.5t-62 -128t-18 -183.5t18 -183.5t62 -128.5t118 -79t185 -25z" />
    <glyph glyph-name="oacute" unicode="&#xf3;" horiz-adv-x="1200" 
d="M909 1516l-268 -322h-109l244 322h133zM600 -31q-145 0 -245.5 34.5t-159 104t-84 162.5t-25.5 222t25.5 222t84 162t159 103.5t245.5 34.5t246 -34.5t159.5 -103.5t84.5 -162.5t26 -221.5t-26 -221.5t-84.5 -163t-159.5 -104t-246 -34.5zM600 76q111 0 186 25t118.5 79
t62 128.5t18.5 183.5q0 218 -84.5 316.5t-300.5 98.5q-111 0 -185 -25t-118 -78.5t-62 -128t-18 -183.5t18 -183.5t62 -128.5t118 -79t185 -25z" />
    <glyph glyph-name="ocircumflex" unicode="&#xf4;" horiz-adv-x="1200" 
d="M285 1194l250 322h133l250 -322h-109l-207 248l-209 -248h-108zM600 -31q-145 0 -245.5 34.5t-159 104t-84 162.5t-25.5 222t25.5 222t84 162t159 103.5t245.5 34.5t246 -34.5t159.5 -103.5t84.5 -162.5t26 -221.5t-26 -221.5t-84.5 -163t-159.5 -104t-246 -34.5zM600 76
q111 0 186 25t118.5 79t62 128.5t18.5 183.5q0 218 -84.5 316.5t-300.5 98.5q-111 0 -185 -25t-118 -78.5t-62 -128t-18 -183.5t18 -183.5t62 -128.5t118 -79t185 -25z" />
    <glyph glyph-name="otilde" unicode="&#xf5;" horiz-adv-x="1200" 
d="M270 1208q3 127 44 183.5t130 56.5q43 0 85 -21.5t100 -66.5q53 -42 81 -57t52 -15q46 0 64 31t24 117h86q-3 -128 -44 -185t-130 -57q-42 0 -84 21.5t-103 68.5q-52 40 -79.5 55t-51.5 15q-46 0 -65 -30.5t-25 -115.5h-84zM600 -31q-145 0 -245.5 34.5t-159 104
t-84 162.5t-25.5 222t25.5 222t84 162t159 103.5t245.5 34.5t246 -34.5t159.5 -103.5t84.5 -162.5t26 -221.5t-26 -221.5t-84.5 -163t-159.5 -104t-246 -34.5zM600 76q111 0 186 25t118.5 79t62 128.5t18.5 183.5q0 218 -84.5 316.5t-300.5 98.5q-111 0 -185 -25t-118 -78.5
t-62 -128t-18 -183.5t18 -183.5t62 -128.5t118 -79t185 -25z" />
    <glyph glyph-name="odieresis" unicode="&#xf6;" horiz-adv-x="1200" 
d="M358 1454h117v-260h-117v260zM729 1454h117v-260h-117v260zM600 -31q-145 0 -245.5 34.5t-159 104t-84 162.5t-25.5 222t25.5 222t84 162t159 103.5t245.5 34.5t246 -34.5t159.5 -103.5t84.5 -162.5t26 -221.5t-26 -221.5t-84.5 -163t-159.5 -104t-246 -34.5zM600 76
q111 0 186 25t118.5 79t62 128.5t18.5 183.5q0 218 -84.5 316.5t-300.5 98.5q-111 0 -185 -25t-118 -78.5t-62 -128t-18 -183.5t18 -183.5t62 -128.5t118 -79t185 -25z" />
    <glyph glyph-name="oslash" unicode="&#xf8;" horiz-adv-x="1200" 
d="M963 918q153 -119 153 -426q0 -128 -26 -221.5t-84.5 -163t-159.5 -104t-246 -34.5q-180 0 -295 56l-88 -121h-100l121 164q-152 121 -152 424q0 129 25.5 222t84 162t159 103.5t245.5 34.5q180 0 295 -56l88 121h98zM217 492q0 -234 92 -326l516 698q-85 43 -225 43
q-111 0 -185 -25t-118 -78.5t-62 -128t-18 -183.5zM600 76q111 0 186 25t118.5 79t62 128.5t18.5 183.5q0 233 -94 327l-516 -700q82 -43 225 -43z" />
    <glyph glyph-name="ugrave" unicode="&#xf9;" horiz-adv-x="1144" 
d="M254 1516h131l246 -322h-109zM1018 0h-90l-10 207q-9 -42 -34.5 -81t-69.5 -75.5t-117.5 -59t-166.5 -22.5q-118 0 -199.5 26t-128 78t-67 122t-20.5 167v621h131v-614q0 -77 14 -128.5t48.5 -89.5t95 -55.5t151.5 -17.5q334 0 334 309v596h129v-983z" />
    <glyph glyph-name="uacute" unicode="&#xfa;" horiz-adv-x="1144" 
d="M877 1516l-269 -322h-108l243 322h134zM1018 0h-90l-10 207q-9 -42 -34.5 -81t-69.5 -75.5t-117.5 -59t-166.5 -22.5q-118 0 -199.5 26t-128 78t-67 122t-20.5 167v621h131v-614q0 -77 14 -128.5t48.5 -89.5t95 -55.5t151.5 -17.5q334 0 334 309v596h129v-983z" />
    <glyph glyph-name="ucircumflex" unicode="&#xfb;" horiz-adv-x="1144" 
d="M252 1194l250 322h133l250 -322h-109l-207 248l-209 -248h-108zM1018 0h-90l-10 207q-9 -42 -34.5 -81t-69.5 -75.5t-117.5 -59t-166.5 -22.5q-118 0 -199.5 26t-128 78t-67 122t-20.5 167v621h131v-614q0 -77 14 -128.5t48.5 -89.5t95 -55.5t151.5 -17.5q334 0 334 309
v596h129v-983z" />
    <glyph glyph-name="udieresis" unicode="&#xfc;" horiz-adv-x="1144" 
d="M324 1454h116v-260h-116v260zM694 1454h117v-260h-117v260zM1018 0h-90l-10 207q-9 -42 -34.5 -81t-69.5 -75.5t-117.5 -59t-166.5 -22.5q-118 0 -199.5 26t-128 78t-67 122t-20.5 167v621h131v-614q0 -77 14 -128.5t48.5 -89.5t95 -55.5t151.5 -17.5q334 0 334 309v596
h129v-983z" />
    <glyph glyph-name="yacute" unicode="&#xfd;" horiz-adv-x="1024" 
d="M821 1516l-268 -322h-109l244 322h133zM23 983h139l291 -666q43 -101 61 -172q24 77 64 172l286 666h137l-598 -1352h-137l187 396z" />
    <glyph glyph-name="thorn" unicode="&#xfe;" horiz-adv-x="1189" 
d="M127 -369v1803h129v-371q0 -121 -12 -301q12 48 38.5 89.5t72 79.5t119 60.5t167.5 22.5q251 0 359 -129t108 -393q0 -263 -110.5 -393t-356.5 -130q-94 0 -168.5 22.5t-120 61t-71.5 81t-37 89.5q12 -176 12 -301v-291h-129zM614 76q198 0 279.5 99t81.5 317
q0 219 -81 318t-280 99q-198 0 -280 -99.5t-82 -317.5q0 -217 81.5 -316.5t280.5 -99.5z" />
    <glyph glyph-name="ydieresis" unicode="&#xff;" horiz-adv-x="1024" 
d="M268 1454h117v-260h-117v260zM639 1454h117v-260h-117v260zM23 983h139l291 -666q43 -101 61 -172q24 77 64 172l286 666h137l-598 -1352h-137l187 396z" />
    <glyph glyph-name="Amacron" unicode="&#x100;" horiz-adv-x="1394" 
d="M399 1753h598v-94h-598v94zM1241 0l-178 418h-735l-178 -418h-138l611 1434h149l610 -1434h-141zM371 532h649l-254 596q-32 82 -70 185l-69 -185z" />
    <glyph glyph-name="amacron" unicode="&#x101;" horiz-adv-x="1101" 
d="M246 1368h598v-94h-598v94zM160 973q182 41 362 41q137 0 226.5 -24t139.5 -76.5t69.5 -122t19.5 -173.5v-618h-92l-13 221q-16 -49 -44 -90t-74.5 -79t-121 -59.5t-169.5 -21.5q-209 0 -301 74t-92 223q0 101 40.5 163.5t144 97t280.5 34.5q93 0 313 -20v82
q0 79 -13 128t-49.5 85t-102 51.5t-169.5 15.5q-163 0 -354 -45v113zM551 467q-140 0 -218.5 -23.5t-106 -64t-27.5 -109.5q0 -100 63.5 -148t220.5 -48q186 0 277.5 92t91.5 280q-150 21 -301 21z" />
    <glyph glyph-name="Abreve" unicode="&#x102;" horiz-adv-x="1394" 
d="M420 1909h86q5 -122 48.5 -175t143.5 -53t144 53.5t49 174.5h86q0 -167 -68 -246.5t-211 -79.5t-210.5 79.5t-67.5 246.5zM1241 0l-178 418h-735l-178 -418h-138l611 1434h149l610 -1434h-141zM371 532h649l-254 596q-32 82 -70 185l-69 -185z" />
    <glyph glyph-name="abreve" unicode="&#x103;" horiz-adv-x="1101" 
d="M266 1520h86q5 -121 49 -174.5t144 -53.5t143.5 53t48.5 175h86q0 -167 -68 -247.5t-210 -80.5t-210.5 80.5t-68.5 247.5zM160 973q182 41 362 41q137 0 226.5 -24t139.5 -76.5t69.5 -122t19.5 -173.5v-618h-92l-13 221q-16 -49 -44 -90t-74.5 -79t-121 -59.5
t-169.5 -21.5q-209 0 -301 74t-92 223q0 101 40.5 163.5t144 97t280.5 34.5q93 0 313 -20v82q0 79 -13 128t-49.5 85t-102 51.5t-169.5 15.5q-163 0 -354 -45v113zM551 467q-140 0 -218.5 -23.5t-106 -64t-27.5 -109.5q0 -100 63.5 -148t220.5 -48q186 0 277.5 92t91.5 280
q-150 21 -301 21z" />
    <glyph glyph-name="Aogonek" unicode="&#x104;" horiz-adv-x="1394" 
d="M1331 0q-164 -146 -164 -248q0 -36 20 -55t54 -19q42 0 88 17v-94q-72 -21 -110 -21q-73 0 -113.5 38.5t-40.5 105.5q0 145 174 276h2l-178 418h-735l-178 -418h-138l611 1434h149l610 -1434h-51zM371 532h649l-254 596q-32 82 -70 185l-69 -185z" />
    <glyph glyph-name="aogonek" unicode="&#x105;" horiz-adv-x="1101" 
d="M977 0q-164 -146 -164 -248q0 -36 20 -55t54 -19q42 0 88 17v-94q-72 -21 -111 -21q-73 0 -113 38.5t-40 105.5q0 145 174 276l-13 221q-16 -49 -44 -90t-74.5 -79t-121 -59.5t-169.5 -21.5q-209 0 -301 74t-92 223q0 101 40.5 163.5t144 97t280.5 34.5q93 0 313 -20v82
q0 79 -13 128t-49.5 85t-102 51.5t-169.5 15.5q-163 0 -354 -45v113q182 41 362 41q137 0 226.5 -24t139.5 -76.5t69.5 -122t19.5 -173.5v-618zM483 74q186 0 277.5 92t91.5 280q-150 21 -301 21q-140 0 -218.5 -23.5t-106 -64t-27.5 -109.5q0 -100 63.5 -148t220.5 -48z
" />
    <glyph glyph-name="Cacute" unicode="&#x106;" horiz-adv-x="1302" 
d="M1077 1905l-268 -322h-109l244 322h133zM1243 47q-96 -34 -225.5 -56t-247.5 -22q-359 0 -523.5 179t-164.5 569q0 387 166 567t524 180q106 0 225 -19.5t211 -49.5v-121q-231 78 -438 78q-295 0 -425 -149t-130 -486q0 -338 131 -486.5t428 -148.5q202 0 469 84v-119z
" />
    <glyph glyph-name="cacute" unicode="&#x107;" horiz-adv-x="1007" 
d="M868 1516l-268 -322h-108l243 322h133zM909 862q-180 47 -323 47q-203 0 -287 -94.5t-84 -322.5q0 -227 84 -321.5t285 -94.5q177 0 350 65v-110q-64 -26 -161 -44t-195 -18q-262 0 -377 124.5t-115 398.5q0 273 115.5 397.5t378.5 124.5q181 0 329 -41v-111z" />
    <glyph glyph-name="Ccircumflex" unicode="&#x108;" horiz-adv-x="1302" 
d="M453 1583l249 322h134l249 -322h-108l-207 248l-209 -248h-108zM1243 47q-96 -34 -225.5 -56t-247.5 -22q-359 0 -523.5 179t-164.5 569q0 387 166 567t524 180q106 0 225 -19.5t211 -49.5v-121q-231 78 -438 78q-295 0 -425 -149t-130 -486q0 -338 131 -486.5
t428 -148.5q202 0 469 84v-119z" />
    <glyph glyph-name="ccircumflex" unicode="&#x109;" horiz-adv-x="1007" 
d="M244 1194l250 322h133l250 -322h-109l-207 248l-209 -248h-108zM909 862q-180 47 -323 47q-203 0 -287 -94.5t-84 -322.5q0 -227 84 -321.5t285 -94.5q177 0 350 65v-110q-64 -26 -161 -44t-195 -18q-262 0 -377 124.5t-115 398.5q0 273 115.5 397.5t378.5 124.5
q181 0 329 -41v-111z" />
    <glyph glyph-name="Cdotaccent" unicode="&#x10a;" horiz-adv-x="1302" 
d="M711 1843h114v-260h-114v260zM1243 47q-96 -34 -225.5 -56t-247.5 -22q-359 0 -523.5 179t-164.5 569q0 387 166 567t524 180q106 0 225 -19.5t211 -49.5v-121q-231 78 -438 78q-295 0 -425 -149t-130 -486q0 -338 131 -486.5t428 -148.5q202 0 469 84v-119z" />
    <glyph glyph-name="cdotaccent" unicode="&#x10b;" horiz-adv-x="1007" 
d="M502 1454h114v-260h-114v260zM909 862q-180 47 -323 47q-203 0 -287 -94.5t-84 -322.5q0 -227 84 -321.5t285 -94.5q177 0 350 65v-110q-64 -26 -161 -44t-195 -18q-262 0 -377 124.5t-115 398.5q0 273 115.5 397.5t378.5 124.5q181 0 329 -41v-111z" />
    <glyph glyph-name="Ccaron" unicode="&#x10c;" horiz-adv-x="1302" 
d="M453 1905h108l209 -246l207 246h108l-249 -322h-134zM1243 47q-96 -34 -225.5 -56t-247.5 -22q-359 0 -523.5 179t-164.5 569q0 387 166 567t524 180q106 0 225 -19.5t211 -49.5v-121q-231 78 -438 78q-295 0 -425 -149t-130 -486q0 -338 131 -486.5t428 -148.5
q202 0 469 84v-119z" />
    <glyph glyph-name="ccaron" unicode="&#x10d;" horiz-adv-x="1007" 
d="M244 1516h108l209 -246l207 246h109l-250 -322h-133zM909 862q-180 47 -323 47q-203 0 -287 -94.5t-84 -322.5q0 -227 84 -321.5t285 -94.5q177 0 350 65v-110q-64 -26 -161 -44t-195 -18q-262 0 -377 124.5t-115 398.5q0 273 115.5 397.5t378.5 124.5q181 0 329 -41
v-111z" />
    <glyph glyph-name="Dcaron" unicode="&#x10e;" horiz-adv-x="1443" 
d="M274 1905h109l209 -246l207 246h108l-250 -322h-133zM664 1434q197 0 328 -37t215 -123.5t119.5 -220.5t35.5 -336t-36 -336t-120 -220.5t-214.5 -123.5t-327.5 -37h-527v1434h527zM664 111q166 0 271.5 29t172.5 101t94 185t27 291q0 177 -27 290t-94.5 185.5
t-173 101.5t-270.5 29h-394v-1212h394z" />
    <glyph glyph-name="dcaron" unicode="&#x10f;" horiz-adv-x="1310" 
d="M553 -31q-249 0 -358 129t-109 394q0 263 109.5 392.5t355.5 129.5q94 0 168.5 -22.5t120 -60.5t71.5 -80t37 -89q-12 180 -12 301v371h131v-1434h-92l-12 221q-16 -51 -41 -91.5t-70.5 -79t-121.5 -60t-177 -21.5zM1210 1434h111v-193l-43 -145h-68v338zM580 78
q193 0 276.5 97.5t83.5 316.5q0 220 -84 317.5t-278 97.5t-277.5 -97t-83.5 -318q0 -219 84.5 -316.5t278.5 -97.5z" />
    <glyph glyph-name="Dcroat" unicode="&#x110;" horiz-adv-x="1443" 
d="M664 1434q197 0 328 -37t215 -123.5t119.5 -220.5t35.5 -336t-36 -336t-120 -220.5t-214.5 -123.5t-327.5 -37h-527v692h-137v94h137v648h527zM664 111q166 0 271.5 29t172.5 101t94 185t27 291q0 177 -27 290t-94.5 185.5t-173 101.5t-270.5 29h-394v-537h342v-94h-342
v-581h394z" />
    <glyph glyph-name="dcroat" unicode="&#x111;" horiz-adv-x="1191" 
d="M1192 1237v-94h-125v-1143h-92l-12 221q-16 -51 -41 -91.5t-70.5 -79t-121.5 -60t-177 -21.5q-249 0 -358 129t-109 394q0 263 109.5 392.5t355.5 129.5q94 0 168.5 -22.5t120 -60.5t71.5 -80t37 -89q-12 180 -12 301v80h-342v94h342v197h131v-197h125zM580 78
q193 0 276.5 97.5t83.5 316.5q0 220 -84 317.5t-278 97.5t-277.5 -97t-83.5 -318q0 -219 84.5 -316.5t278.5 -97.5z" />
    <glyph glyph-name="Emacron" unicode="&#x112;" horiz-adv-x="1200" 
d="M330 1753h598v-94h-598v94zM270 115h899v-115h-1032v1434h983v-115h-850v-524h707v-113h-707v-567z" />
    <glyph glyph-name="emacron" unicode="&#x113;" horiz-adv-x="1116" 
d="M274 1368h598v-94h-598v94zM985 29q-68 -26 -174 -43t-209 -17q-149 0 -249.5 32.5t-159 101t-83 162t-24.5 227.5q0 128 24.5 221.5t80 163.5t151 104.5t233.5 34.5q126 0 216 -33t142 -97.5t75.5 -149.5t23.5 -199q0 -49 -2 -84h-815q3 -202 88 -289.5t301 -87.5
q193 0 381 65v-112zM573 913q-100 0 -169 -23.5t-109.5 -71.5t-59 -111.5t-20.5 -153.5h688q0 181 -74.5 270.5t-255.5 89.5z" />
    <glyph glyph-name="Ebreve" unicode="&#x114;" horiz-adv-x="1200" 
d="M350 1909h86q5 -121 49 -174.5t144 -53.5t143.5 53t48.5 175h86q0 -167 -67.5 -246.5t-210.5 -79.5t-211 79.5t-68 246.5zM270 115h899v-115h-1032v1434h983v-115h-850v-524h707v-113h-707v-567z" />
    <glyph glyph-name="ebreve" unicode="&#x115;" horiz-adv-x="1116" 
d="M295 1520h86q5 -122 48.5 -175t143.5 -53t144 53.5t49 174.5h86q0 -167 -68.5 -247.5t-210.5 -80.5t-210 80.5t-68 247.5zM985 29q-68 -26 -174 -43t-209 -17q-149 0 -249.5 32.5t-159 101t-83 162t-24.5 227.5q0 128 24.5 221.5t80 163.5t151 104.5t233.5 34.5
q126 0 216 -33t142 -97.5t75.5 -149.5t23.5 -199q0 -49 -2 -84h-815q3 -202 88 -289.5t301 -87.5q193 0 381 65v-112zM573 913q-100 0 -169 -23.5t-109.5 -71.5t-59 -111.5t-20.5 -153.5h688q0 181 -74.5 270.5t-255.5 89.5z" />
    <glyph glyph-name="Edotaccent" unicode="&#x116;" horiz-adv-x="1200" 
d="M571 1843h115v-260h-115v260zM270 115h899v-115h-1032v1434h983v-115h-850v-524h707v-113h-707v-567z" />
    <glyph glyph-name="edotaccent" unicode="&#x117;" horiz-adv-x="1116" 
d="M514 1454h115v-260h-115v260zM985 29q-68 -26 -174 -43t-209 -17q-149 0 -249.5 32.5t-159 101t-83 162t-24.5 227.5q0 128 24.5 221.5t80 163.5t151 104.5t233.5 34.5q126 0 216 -33t142 -97.5t75.5 -149.5t23.5 -199q0 -49 -2 -84h-815q3 -202 88 -289.5t301 -87.5
q193 0 381 65v-112zM573 913q-100 0 -169 -23.5t-109.5 -71.5t-59 -111.5t-20.5 -153.5h688q0 181 -74.5 270.5t-255.5 89.5z" />
    <glyph glyph-name="Eogonek" unicode="&#x118;" horiz-adv-x="1200" 
d="M1169 0q-163 -145 -163 -248q0 -36 19.5 -55t53.5 -19q42 0 88 17v-94q-72 -21 -110 -21q-73 0 -113.5 38.5t-40.5 105.5q0 145 174 276h-940v1434h983v-115h-850v-524h707v-113h-707v-567h899v-115z" />
    <glyph glyph-name="eogonek" unicode="&#x119;" horiz-adv-x="1116" 
d="M1032 537q0 -49 -2 -84h-815q3 -202 88 -289.5t301 -87.5q193 0 381 65v-112h2q-164 -146 -164 -248q0 -36 20 -55t54 -19q42 0 88 17v-95q-68 -20 -111 -20q-73 0 -113 38t-40 105q0 124 131 242q-136 -25 -250 -25q-149 0 -249.5 32.5t-159 101t-83 162t-24.5 227.5
q0 128 24.5 221.5t80 163.5t151 104.5t233.5 34.5q126 0 216 -33t142 -97.5t75.5 -149.5t23.5 -199zM215 553h688q0 181 -74.5 270.5t-255.5 89.5q-100 0 -169 -23.5t-109.5 -71.5t-59 -111.5t-20.5 -153.5z" />
    <glyph glyph-name="Ecaron" unicode="&#x11a;" horiz-adv-x="1200" 
d="M311 1905h109l209 -246l207 246h108l-250 -322h-133zM270 115h899v-115h-1032v1434h983v-115h-850v-524h707v-113h-707v-567z" />
    <glyph glyph-name="ecaron" unicode="&#x11b;" horiz-adv-x="1116" 
d="M256 1516h109l208 -246l207 246h109l-250 -322h-133zM985 29q-68 -26 -174 -43t-209 -17q-149 0 -249.5 32.5t-159 101t-83 162t-24.5 227.5q0 128 24.5 221.5t80 163.5t151 104.5t233.5 34.5q126 0 216 -33t142 -97.5t75.5 -149.5t23.5 -199q0 -49 -2 -84h-815
q3 -202 88 -289.5t301 -87.5q193 0 381 65v-112zM573 913q-100 0 -169 -23.5t-109.5 -71.5t-59 -111.5t-20.5 -153.5h688q0 181 -74.5 270.5t-255.5 89.5z" />
    <glyph glyph-name="Gcircumflex" unicode="&#x11c;" horiz-adv-x="1439" 
d="M463 1583l250 322h133l250 -322h-109l-207 248l-209 -248h-108zM786 -31q-370 0 -537 177.5t-167 570.5q0 390 168.5 568.5t537.5 178.5q256 0 498 -67v-119q-271 74 -495 74q-311 0 -443.5 -146t-132.5 -489t133.5 -489t446.5 -146q143 0 401 43v469h-350v111h477v-672
q-118 -27 -268.5 -45.5t-268.5 -18.5z" />
    <glyph glyph-name="gcircumflex" unicode="&#x11d;" horiz-adv-x="1191" 
d="M291 1194l250 322h133l250 -322h-109l-207 248l-209 -248h-108zM565 -399q-97 0 -212 19.5t-197 47.5v111q226 -72 399 -72q199 0 291 88.5t92 274.5q0 79 10 206q-84 -235 -397 -235q-127 0 -218.5 35t-144.5 101t-77.5 152.5t-24.5 198.5q0 486 469 486
q84 0 151.5 -16.5t109 -40t73 -59t47 -64t27.5 -64.5l12 213h92v-913q0 -107 -25.5 -189t-82 -146.5t-156 -99t-238.5 -34.5zM578 150q195 0 278.5 98t83.5 280t-83 280.5t-277 98.5q-101 0 -172.5 -26.5t-112.5 -78.5t-59.5 -118.5t-18.5 -155.5q0 -184 82 -281t279 -97z
" />
    <glyph glyph-name="Gbreve" unicode="&#x11e;" horiz-adv-x="1439" 
d="M502 1909h86q5 -122 48.5 -175t143.5 -53t144 53.5t49 174.5h86q0 -167 -68 -246.5t-211 -79.5t-210.5 79.5t-67.5 246.5zM786 -31q-370 0 -537 177.5t-167 570.5q0 390 168.5 568.5t537.5 178.5q256 0 498 -67v-119q-271 74 -495 74q-311 0 -443.5 -146t-132.5 -489
t133.5 -489t446.5 -146q143 0 401 43v469h-350v111h477v-672q-118 -27 -268.5 -45.5t-268.5 -18.5z" />
    <glyph glyph-name="gbreve" unicode="&#x11f;" horiz-adv-x="1191" 
d="M330 1520h86q5 -122 48.5 -175t143.5 -53t144 53.5t49 174.5h86q0 -167 -68.5 -247.5t-210.5 -80.5t-210 80.5t-68 247.5zM565 -399q-97 0 -212 19.5t-197 47.5v111q226 -72 399 -72q199 0 291 88.5t92 274.5q0 79 10 206q-84 -235 -397 -235q-127 0 -218.5 35
t-144.5 101t-77.5 152.5t-24.5 198.5q0 486 469 486q84 0 151.5 -16.5t109 -40t73 -59t47 -64t27.5 -64.5l12 213h92v-913q0 -107 -25.5 -189t-82 -146.5t-156 -99t-238.5 -34.5zM578 150q195 0 278.5 98t83.5 280t-83 280.5t-277 98.5q-101 0 -172.5 -26.5t-112.5 -78.5
t-59.5 -118.5t-18.5 -155.5q0 -184 82 -281t279 -97z" />
    <glyph glyph-name="Gdotaccent" unicode="&#x120;" horiz-adv-x="1439" 
d="M723 1843h115v-260h-115v260zM786 -31q-370 0 -537 177.5t-167 570.5q0 390 168.5 568.5t537.5 178.5q256 0 498 -67v-119q-271 74 -495 74q-311 0 -443.5 -146t-132.5 -489t133.5 -489t446.5 -146q143 0 401 43v469h-350v111h477v-672q-118 -27 -268.5 -45.5
t-268.5 -18.5z" />
    <glyph glyph-name="gdotaccent" unicode="&#x121;" horiz-adv-x="1191" 
d="M551 1454h115v-260h-115v260zM565 -399q-97 0 -212 19.5t-197 47.5v111q226 -72 399 -72q199 0 291 88.5t92 274.5q0 79 10 206q-84 -235 -397 -235q-127 0 -218.5 35t-144.5 101t-77.5 152.5t-24.5 198.5q0 486 469 486q84 0 151.5 -16.5t109 -40t73 -59t47 -64
t27.5 -64.5l12 213h92v-913q0 -107 -25.5 -189t-82 -146.5t-156 -99t-238.5 -34.5zM578 150q195 0 278.5 98t83.5 280t-83 280.5t-277 98.5q-101 0 -172.5 -26.5t-112.5 -78.5t-59.5 -118.5t-18.5 -155.5q0 -184 82 -281t279 -97z" />
    <glyph glyph-name="uni0122" unicode="&#x122;" horiz-adv-x="1439" 
d="M786 -31q-370 0 -537 177.5t-167 570.5q0 390 168.5 568.5t537.5 178.5q256 0 498 -67v-119q-271 74 -495 74q-311 0 -443.5 -146t-132.5 -489t133.5 -489t446.5 -146q143 0 401 43v469h-350v111h477v-672q-118 -27 -268.5 -45.5t-268.5 -18.5zM735 -147h129v-140
l-51 -133h-70l39 141h-47v132z" />
    <glyph glyph-name="uni0123" unicode="&#x123;" horiz-adv-x="1191" 
d="M668 1194h-117v182l51 144h72l-41 -152h35v-174zM565 -399q-97 0 -212 19.5t-197 47.5v111q226 -72 399 -72q199 0 291 88.5t92 274.5q0 79 10 206q-84 -235 -397 -235q-127 0 -218.5 35t-144.5 101t-77.5 152.5t-24.5 198.5q0 486 469 486q84 0 151.5 -16.5t109 -40
t73 -59t47 -64t27.5 -64.5l12 213h92v-913q0 -107 -25.5 -189t-82 -146.5t-156 -99t-238.5 -34.5zM578 150q195 0 278.5 98t83.5 280t-83 280.5t-277 98.5q-101 0 -172.5 -26.5t-112.5 -78.5t-59.5 -118.5t-18.5 -155.5q0 -184 82 -281t279 -97z" />
    <glyph glyph-name="Hcircumflex" unicode="&#x124;" horiz-adv-x="1468" 
d="M735 1831l-209 -248h-108l250 322h133l250 -322h-109zM1200 1434h133v-1434h-133v680h-930v-680h-133v1434h133v-639h930v639z" />
    <glyph glyph-name="hcircumflex" unicode="&#x125;" horiz-adv-x="1138" 
d="M264 1583l250 322h133l250 -322h-109l-206 248l-209 -248h-109zM127 1434h129v-363q0 -119 -12 -283q24 99 117 162.5t260 63.5q116 0 196 -25.5t126 -77t65.5 -121t19.5 -167.5v-623h-131v616q0 78 -13.5 129.5t-47.5 89t-94 54t-152 16.5q-95 0 -162 -22t-103.5 -64.5
t-52.5 -95t-16 -121.5v-602h-129v1434z" />
    <glyph glyph-name="Hbar" unicode="&#x126;" horiz-adv-x="1478" 
d="M1440 1151v-92h-103v-1059h-133v680h-930v-680h-133v1059h-102v92h102v283h133v-283h930v283h133v-283h103zM1204 795v264h-930v-264h930z" />
    <glyph glyph-name="hbar" unicode="&#x127;" horiz-adv-x="1138" 
d="M621 1014q116 0 196 -25.5t126 -77t65.5 -121t19.5 -167.5v-623h-131v616q0 78 -13.5 129.5t-47.5 89t-94 54t-152 16.5q-95 0 -162 -22t-103.5 -64.5t-52.5 -95t-16 -121.5v-602h-129v1143h-127v94h127v197h129v-197h342v-94h-342v-72q0 -119 -12 -283q24 99 117 162.5
t260 63.5z" />
    <glyph glyph-name="Itilde" unicode="&#x128;" horiz-adv-x="405" 
d="M-115 1597q3 127 44 183.5t130 56.5q43 0 85 -21.5t100 -66.5q53 -42 81 -57t52 -15q46 0 64 31t24 117h86q-3 -129 -44 -185.5t-130 -56.5q-43 0 -85.5 21.5t-101.5 68.5q-52 40 -79.5 55t-51.5 15q-46 0 -65 -30.5t-25 -115.5h-84zM137 1434h133v-1434h-133v1434z" />
    <glyph glyph-name="itilde" unicode="&#x129;" horiz-adv-x="382" 
d="M-141 1208q3 127 44 183.5t130 56.5q43 0 84.5 -21.5t99.5 -66.5q53 -42 81 -57t52 -15q46 0 64 31t24 117h86q-3 -128 -44 -185t-130 -57q-42 0 -83 21.5t-103 68.5q-52 40 -79.5 55t-51.5 15q-46 0 -65 -30.5t-25 -115.5h-84zM127 983h129v-983h-129v983z" />
    <glyph glyph-name="Imacron" unicode="&#x12a;" horiz-adv-x="405" 
d="M-96 1753h598v-94h-598v94zM137 1434h133v-1434h-133v1434z" />
    <glyph glyph-name="imacron" unicode="&#x12b;" horiz-adv-x="382" 
d="M-109 1368h598v-94h-598v94zM127 983h129v-983h-129v983z" />
    <glyph glyph-name="Ibreve" unicode="&#x12c;" horiz-adv-x="405" 
d="M-76 1909h86q5 -121 49 -174.5t144 -53.5t143.5 53t48.5 175h86q0 -167 -67.5 -246.5t-210.5 -79.5t-211 79.5t-68 246.5zM137 1434h133v-1434h-133v1434z" />
    <glyph glyph-name="ibreve" unicode="&#x12d;" horiz-adv-x="382" 
d="M-88 1520h86q5 -122 48.5 -175t143.5 -53t144 53.5t49 174.5h86q0 -167 -68.5 -247.5t-210.5 -80.5t-210 80.5t-68 247.5zM127 983h129v-983h-129v983z" />
    <glyph glyph-name="Iogonek" unicode="&#x12e;" horiz-adv-x="405" 
d="M137 1434h133v-1434h-43q-164 -146 -164 -248q0 -36 20 -55t54 -19q42 0 88 17v-94q-72 -21 -110 -21q-73 0 -113.5 38.5t-40.5 105.5q0 145 174 276h2v1434z" />
    <glyph glyph-name="iogonek" unicode="&#x12f;" horiz-adv-x="382" 
d="M127 1434h129v-256h-129v256zM127 0v983h129v-983h-37q-164 -146 -164 -248q0 -36 20 -55t54 -19q42 0 88 17v-94q-72 -21 -111 -21q-73 0 -113 38.5t-40 105.5q0 145 174 276z" />
    <glyph glyph-name="Idotaccent" unicode="&#x130;" horiz-adv-x="405" 
d="M145 1843h115v-260h-115v260zM137 1434h133v-1434h-133v1434z" />
    <glyph glyph-name="dotlessi" unicode="&#x131;" horiz-adv-x="382" 
d="M127 983h129v-983h-129v983z" />
    <glyph glyph-name="Jcircumflex" unicode="&#x134;" horiz-adv-x="698" 
d="M190 1583l250 322h133l250 -322h-108l-207 248l-209 -248h-109zM53 115q120 -13 150 -13q143 0 190 54.5t47 203.5v1074h133v-1076q0 -100 -16 -166.5t-55.5 -114t-108 -68.5t-172.5 -21q-105 0 -168 14v113z" />
    <glyph glyph-name="jcircumflex" unicode="&#x135;" horiz-adv-x="380" 
d="M-125 1194l250 322h133l250 -322h-109l-206 248l-209 -248h-109zM256 -100q0 -150 -67 -224.5t-226 -74.5q-85 0 -131 8v106q108 -8 111 -8q106 0 145 42.5t39 146.5v1087h129v-1083z" />
    <glyph glyph-name="uni0136" unicode="&#x136;" horiz-adv-x="1302" 
d="M270 827q0 -40 -12 -280q42 49 113.5 127.5t125 136t146.5 156t117 123.5l332 344h163l-593 -623l690 -811h-166l-611 719l-305 -311v-408h-133v1434h133v-607zM592 -147h129v-140l-51 -133h-70l39 141h-47v132z" />
    <glyph glyph-name="uni0137" unicode="&#x137;" horiz-adv-x="1038" 
d="M127 1434h129v-785q0 -120 -12 -284q55 71 225.5 255.5t343.5 362.5h158l-426 -440l522 -543h-170l-436 457l-205 -205v-252h-129v1434zM459 -147h129v-140l-51 -133h-70l39 141h-47v132z" />
    <glyph glyph-name="Lacute" unicode="&#x139;" horiz-adv-x="1142" 
d="M512 1905l-268 -322h-109l244 322h133zM270 117h838v-117h-971v1434h133v-1317z" />
    <glyph glyph-name="lacute" unicode="&#x13a;" horiz-adv-x="413" 
d="M514 1966l-268 -321h-109l244 321h133zM141 1434h131v-1434h-131v1434z" />
    <glyph glyph-name="uni013B" unicode="&#x13b;" horiz-adv-x="1142" 
d="M270 117h838v-117h-971v1434h133v-1317zM510 -147h129v-140l-51 -133h-70l39 141h-47v132z" />
    <glyph glyph-name="uni013C" unicode="&#x13c;" horiz-adv-x="413" 
d="M141 1434h131v-1434h-131v1434zM145 -147h129v-140l-51 -133h-69l39 141h-48v132z" />
    <glyph glyph-name="Lcaron" unicode="&#x13d;" horiz-adv-x="1142" 
d="M270 117h838v-117h-971v1434h133v-1317zM473 1434h111v-193l-43 -145h-68v338z" />
    <glyph glyph-name="lcaron" unicode="&#x13e;" horiz-adv-x="524" 
d="M141 1434h131v-1434h-131v1434zM420 1434h110v-193l-45 -145h-65v338z" />
    <glyph glyph-name="Ldot" unicode="&#x13f;" horiz-adv-x="1142" 
d="M270 117h838v-117h-971v1434h133v-1317zM696 866h156v-180h-156v180z" />
    <glyph glyph-name="ldot" unicode="&#x140;" horiz-adv-x="563" 
d="M141 1434h131v-1434h-131v1434zM408 807h155v-180h-155v180z" />
    <glyph glyph-name="Lslash" unicode="&#x141;" horiz-adv-x="1142" 
d="M270 117h838v-117h-971v567l-135 -78v109l135 78v758h133v-682l471 272v-109l-471 -272v-526z" />
    <glyph glyph-name="lslash" unicode="&#x142;" horiz-adv-x="413" 
d="M414 946v-106l-142 -107v-733h-131v635l-141 -107v107l141 106v693h131v-594z" />
    <glyph glyph-name="Nacute" unicode="&#x143;" horiz-adv-x="1466" 
d="M1042 1905l-268 -322h-108l243 322h133zM137 0v1434h166l748 -1061q38 -52 153 -232q-2 84 -2 267v1026h129v-1434h-166l-757 1073q-87 128 -144 219v-268v-1024h-127z" />
    <glyph glyph-name="nacute" unicode="&#x144;" horiz-adv-x="1167" 
d="M891 1516l-268 -322h-109l244 322h133zM141 983h92l13 -207q9 45 33.5 84.5t67.5 75.5t115.5 57t166.5 21q119 0 200 -25t127.5 -76.5t66 -121t19.5 -168.5v-623h-129v610q0 79 -13 131.5t-47 91t-94.5 55.5t-152.5 17q-96 0 -163 -24.5t-103.5 -71t-52 -102
t-15.5 -127.5v-580h-131v983z" />
    <glyph glyph-name="uni0145" unicode="&#x145;" horiz-adv-x="1466" 
d="M137 0v1434h166l748 -1061q38 -52 153 -232q-2 84 -2 267v1026h129v-1434h-166l-757 1073q-87 128 -144 219v-268v-1024h-127zM674 -147h129v-140l-51 -133h-70l39 141h-47v132z" />
    <glyph glyph-name="uni0146" unicode="&#x146;" horiz-adv-x="1167" 
d="M141 983h92l13 -207q9 45 33.5 84.5t67.5 75.5t115.5 57t166.5 21q119 0 200 -25t127.5 -76.5t66 -121t19.5 -168.5v-623h-129v610q0 79 -13 131.5t-47 91t-94.5 55.5t-152.5 17q-96 0 -163 -24.5t-103.5 -71t-52 -102t-15.5 -127.5v-580h-131v983zM522 -147h129v-140
l-51 -133h-70l39 141h-47v132z" />
    <glyph glyph-name="Ncaron" unicode="&#x147;" horiz-adv-x="1466" 
d="M418 1905h108l209 -246l207 246h109l-250 -322h-133zM137 0v1434h166l748 -1061q38 -52 153 -232q-2 84 -2 267v1026h129v-1434h-166l-757 1073q-87 128 -144 219v-268v-1024h-127z" />
    <glyph glyph-name="ncaron" unicode="&#x148;" horiz-adv-x="1167" 
d="M266 1516h109l209 -246l207 246h108l-250 -322h-133zM141 983h92l13 -207q9 45 33.5 84.5t67.5 75.5t115.5 57t166.5 21q119 0 200 -25t127.5 -76.5t66 -121t19.5 -168.5v-623h-129v610q0 79 -13 131.5t-47 91t-94.5 55.5t-152.5 17q-96 0 -163 -24.5t-103.5 -71
t-52 -102t-15.5 -127.5v-580h-131v983z" />
    <glyph glyph-name="Eng" unicode="&#x14a;" horiz-adv-x="1482" 
d="M145 0v1434h164l744 -1014q87 -119 159 -232q-2 84 -2 267v979h129v-1463q0 -92 -16.5 -155.5t-55.5 -109.5t-107 -67.5t-169 -21.5q-107 0 -170 14v113q117 -12 152 -12q143 0 190 56t47 208l-788 1077q-92 127 -150 219v-268v-1024h-127z" />
    <glyph glyph-name="eng" unicode="&#x14b;" horiz-adv-x="1167" 
d="M141 0v983h92l13 -207q9 45 33.5 84.5t67.5 75.5t115.5 57t166.5 21q119 0 200 -25t127.5 -76.5t66 -121t19.5 -168.5v-723q0 -150 -66 -224.5t-224 -74.5q-84 0 -134 8v106q9 -1 32.5 -3t44 -3.5t36.5 -1.5q106 0 144 42.5t38 146.5v714q0 79 -13 131.5t-47 91
t-94.5 55.5t-152.5 17q-96 0 -163 -24.5t-103.5 -71t-52 -102t-15.5 -127.5v-580h-131z" />
    <glyph glyph-name="Omacron" unicode="&#x14c;" horiz-adv-x="1521" 
d="M463 1753h598v-94h-598v94zM762 -31q-184 0 -313.5 47.5t-207.5 144.5t-113.5 233t-35.5 323t35.5 322.5t113.5 232.5t207.5 144.5t313.5 47.5q183 0 312.5 -47.5t208 -144t114 -232.5t35.5 -323q0 -186 -35.5 -322t-114 -233t-208 -145t-312.5 -48zM762 80
q149 0 251.5 37.5t165.5 118t91 197.5t28 284q0 333 -122 485t-414 152q-149 0 -252 -37.5t-166 -118t-91 -197.5t-28 -284t28 -283.5t91 -197t166 -118.5t252 -38z" />
    <glyph glyph-name="omacron" unicode="&#x14d;" horiz-adv-x="1200" 
d="M303 1368h598v-94h-598v94zM600 -31q-145 0 -245.5 34.5t-159 104t-84 162.5t-25.5 222t25.5 222t84 162t159 103.5t245.5 34.5t246 -34.5t159.5 -103.5t84.5 -162.5t26 -221.5t-26 -221.5t-84.5 -163t-159.5 -104t-246 -34.5zM600 76q111 0 186 25t118.5 79t62 128.5
t18.5 183.5q0 218 -84.5 316.5t-300.5 98.5q-111 0 -185 -25t-118 -78.5t-62 -128t-18 -183.5t18 -183.5t62 -128.5t118 -79t185 -25z" />
    <glyph glyph-name="Obreve" unicode="&#x14e;" horiz-adv-x="1521" 
d="M483 1909h86q5 -121 49 -174.5t144 -53.5t143.5 53t48.5 175h86q0 -167 -67.5 -246.5t-210.5 -79.5t-211 79.5t-68 246.5zM762 -31q-184 0 -313.5 47.5t-207.5 144.5t-113.5 233t-35.5 323t35.5 322.5t113.5 232.5t207.5 144.5t313.5 47.5q183 0 312.5 -47.5t208 -144
t114 -232.5t35.5 -323q0 -186 -35.5 -322t-114 -233t-208 -145t-312.5 -48zM762 80q149 0 251.5 37.5t165.5 118t91 197.5t28 284q0 333 -122 485t-414 152q-149 0 -252 -37.5t-166 -118t-91 -197.5t-28 -284t28 -283.5t91 -197t166 -118.5t252 -38z" />
    <glyph glyph-name="obreve" unicode="&#x14f;" horiz-adv-x="1200" 
d="M324 1520h86q5 -122 48.5 -175t143.5 -53t144 53.5t49 174.5h86q0 -167 -68.5 -247.5t-210.5 -80.5t-210 80.5t-68 247.5zM600 -31q-145 0 -245.5 34.5t-159 104t-84 162.5t-25.5 222t25.5 222t84 162t159 103.5t245.5 34.5t246 -34.5t159.5 -103.5t84.5 -162.5
t26 -221.5t-26 -221.5t-84.5 -163t-159.5 -104t-246 -34.5zM600 76q111 0 186 25t118.5 79t62 128.5t18.5 183.5q0 218 -84.5 316.5t-300.5 98.5q-111 0 -185 -25t-118 -78.5t-62 -128t-18 -183.5t18 -183.5t62 -128.5t118 -79t185 -25z" />
    <glyph glyph-name="Ohungarumlaut" unicode="&#x150;" horiz-adv-x="1521" 
d="M850 1905l-268 -322h-109l244 322h133zM1212 1905l-268 -322h-108l245 322h131zM762 -31q-184 0 -313.5 47.5t-207.5 144.5t-113.5 233t-35.5 323t35.5 322.5t113.5 232.5t207.5 144.5t313.5 47.5q183 0 312.5 -47.5t208 -144t114 -232.5t35.5 -323q0 -186 -35.5 -322
t-114 -233t-208 -145t-312.5 -48zM762 80q149 0 251.5 37.5t165.5 118t91 197.5t28 284q0 333 -122 485t-414 152q-149 0 -252 -37.5t-166 -118t-91 -197.5t-28 -284t28 -283.5t91 -197t166 -118.5t252 -38z" />
    <glyph glyph-name="ohungarumlaut" unicode="&#x151;" horiz-adv-x="1200" 
d="M637 1516l-268 -322h-109l244 322h133zM999 1516l-268 -322h-108l245 322h131zM600 -31q-145 0 -245.5 34.5t-159 104t-84 162.5t-25.5 222t25.5 222t84 162t159 103.5t245.5 34.5t246 -34.5t159.5 -103.5t84.5 -162.5t26 -221.5t-26 -221.5t-84.5 -163t-159.5 -104
t-246 -34.5zM600 76q111 0 186 25t118.5 79t62 128.5t18.5 183.5q0 218 -84.5 316.5t-300.5 98.5q-111 0 -185 -25t-118 -78.5t-62 -128t-18 -183.5t18 -183.5t62 -128.5t118 -79t185 -25z" />
    <glyph glyph-name="OE" unicode="&#x152;" horiz-adv-x="2353" 
d="M752 -31q-180 0 -307.5 48.5t-204.5 146t-112.5 233t-35.5 320.5q0 186 36 322t113.5 232.5t204.5 144.5t306 48q211 0 344 -70.5t200 -211.5v252h977v-115h-850v-524h709v-113h-709v-567h899v-115h-1026v252q-67 -142 -200 -212.5t-344 -70.5zM762 80q149 0 251.5 37.5
t165.5 118t91 197.5t28 284t-28 284t-91 197.5t-165.5 118t-251.5 37.5t-252 -37.5t-166 -118t-91 -197.5t-28 -284t28 -284t91 -197.5t166 -118t252 -37.5z" />
    <glyph glyph-name="oe" unicode="&#x153;" horiz-adv-x="2015" 
d="M86 492q0 129 25.5 222t83.5 163t158.5 104.5t244.5 34.5q184 0 293 -60t158 -178q46 118 148 178t276 60q127 0 217 -33t142 -97.5t75.5 -149.5t23.5 -199q0 -10 -4 -84h-813q3 -202 88 -289.5t301 -87.5q189 0 381 65v-112q-70 -26 -175.5 -43t-207.5 -17
q-189 0 -298 58.5t-154 177.5q-49 -117 -158 -176.5t-293 -59.5q-144 0 -244.5 34.5t-158.5 104t-83.5 163t-25.5 221.5zM1114 555h688q0 180 -74 269t-255 89q-194 0 -275 -89t-84 -269zM217 492q0 -109 18 -183.5t61 -128.5t117.5 -79t184.5 -25q111 0 186.5 25t119.5 79
t62.5 129t18.5 183t-18.5 183t-62.5 128.5t-119.5 78.5t-186.5 25t-185 -24.5t-117 -78t-61 -128.5t-18 -184z" />
    <glyph glyph-name="Racute" unicode="&#x154;" horiz-adv-x="1325" 
d="M909 1905l-268 -322h-109l244 322h133zM137 1434h547q140 0 239 -30t154.5 -87t80 -129.5t24.5 -167.5q0 -86 -23 -152.5t-65 -111.5t-105 -74t-137.5 -43t-167.5 -16q77 -21 147 -77.5t175 -174.5l325 -371h-164l-372 424q-89 103 -163 142.5t-183 39.5h-179v-606h-133
v1434zM270 1323v-608h346q105 0 182.5 14.5t125 39.5t76 65t39 83t10.5 101q0 72 -17 125t-57.5 95t-113 63.5t-177.5 21.5h-414z" />
    <glyph glyph-name="racute" unicode="&#x155;" horiz-adv-x="720" 
d="M707 1516l-269 -322h-108l243 322h134zM141 983h92l13 -285q6 64 26.5 116.5t60.5 97t109 69.5t162 25q8 0 80 -5v-122q-66 4 -80 4q-184 0 -258 -90.5t-74 -315.5v-477h-131v983z" />
    <glyph glyph-name="uni0156" unicode="&#x156;" horiz-adv-x="1325" 
d="M137 1434h547q140 0 239 -30t154.5 -87t80 -129.5t24.5 -167.5q0 -86 -23 -152.5t-65 -111.5t-105 -74t-137.5 -43t-167.5 -16q77 -21 147 -77.5t175 -174.5l325 -371h-164l-372 424q-89 103 -163 142.5t-183 39.5h-179v-606h-133v1434zM270 1323v-608h346
q105 0 182.5 14.5t125 39.5t76 65t39 83t10.5 101q0 72 -17 125t-57.5 95t-113 63.5t-177.5 21.5h-414zM602 -147h129v-140l-51 -133h-70l39 141h-47v132z" />
    <glyph glyph-name="uni0157" unicode="&#x157;" horiz-adv-x="720" 
d="M141 983h92l13 -285q6 64 26.5 116.5t60.5 97t109 69.5t162 25q8 0 80 -5v-122q-66 4 -80 4q-184 0 -258 -90.5t-74 -315.5v-477h-131v983zM145 -147h129v-140l-51 -133h-69l39 141h-48v132z" />
    <glyph glyph-name="Rcaron" unicode="&#x158;" horiz-adv-x="1325" 
d="M285 1905h108l209 -246l207 246h109l-250 -322h-133zM137 1434h547q140 0 239 -30t154.5 -87t80 -129.5t24.5 -167.5q0 -86 -23 -152.5t-65 -111.5t-105 -74t-137.5 -43t-167.5 -16q77 -21 147 -77.5t175 -174.5l325 -371h-164l-372 424q-89 103 -163 142.5t-183 39.5
h-179v-606h-133v1434zM270 1323v-608h346q105 0 182.5 14.5t125 39.5t76 65t39 83t10.5 101q0 72 -17 125t-57.5 95t-113 63.5t-177.5 21.5h-414z" />
    <glyph glyph-name="rcaron" unicode="&#x159;" horiz-adv-x="720" 
d="M82 1516h108l209 -246l207 246h109l-250 -322h-133zM141 983h92l13 -285q6 64 26.5 116.5t60.5 97t109 69.5t162 25q8 0 80 -5v-122q-66 4 -80 4q-184 0 -258 -90.5t-74 -315.5v-477h-131v983z" />
    <glyph glyph-name="Sacute" unicode="&#x15a;" horiz-adv-x="1243" 
d="M930 1905l-268 -322h-109l244 322h133zM1090 1282q-260 72 -474 72q-117 0 -198.5 -18.5t-124.5 -53t-61.5 -76t-18.5 -94.5q0 -40 6.5 -68t31 -62.5t69.5 -62.5t125 -58.5t194 -59.5q164 -42 269 -87.5t162 -102.5t78 -118t21 -147q0 -85 -27.5 -151t-90 -118.5
t-173.5 -80t-268 -27.5q-127 0 -276 23t-250 57v119q269 -88 526 -88q124 0 210 19t132 56.5t65 82.5t19 106q0 50 -8.5 84t-34.5 70.5t-74.5 65t-129 58.5t-197.5 60q-128 32 -220.5 70t-148.5 76.5t-88.5 86t-43.5 92.5t-11 103q0 354 541 354q249 0 469 -63v-119z" />
    <glyph glyph-name="sacute" unicode="&#x15b;" horiz-adv-x="997" 
d="M807 1516l-268 -322h-109l244 322h133zM510 -29q-228 0 -406 60v112q214 -63 410 -63q160 0 223.5 43t63.5 133q0 22 -4 40t-9 32t-18.5 26.5t-24 21.5t-34 18t-40 15t-51 13.5t-57 12.5t-67.5 14q-66 13 -104 21.5t-87 22.5t-76 28t-57.5 35.5t-45 47t-24.5 60.5t-10 79
q0 133 92.5 201t313.5 68q146 0 360 -33v-113q-198 39 -358 39q-108 0 -171.5 -19t-86.5 -51t-23 -83q0 -23 3.5 -42t14.5 -34t21.5 -26.5t33 -21.5t40 -16.5t53 -15t60.5 -13.5t73 -14q98 -19 146 -30.5t110 -34.5t88.5 -51.5t46 -75.5t19.5 -113q0 -148 -95.5 -220.5
t-322.5 -72.5z" />
    <glyph glyph-name="Scircumflex" unicode="&#x15c;" horiz-adv-x="1243" 
d="M305 1583l250 322h133l250 -322h-109l-206 248l-209 -248h-109zM1090 1282q-260 72 -474 72q-117 0 -198.5 -18.5t-124.5 -53t-61.5 -76t-18.5 -94.5q0 -40 6.5 -68t31 -62.5t69.5 -62.5t125 -58.5t194 -59.5q164 -42 269 -87.5t162 -102.5t78 -118t21 -147
q0 -85 -27.5 -151t-90 -118.5t-173.5 -80t-268 -27.5q-127 0 -276 23t-250 57v119q269 -88 526 -88q124 0 210 19t132 56.5t65 82.5t19 106q0 50 -8.5 84t-34.5 70.5t-74.5 65t-129 58.5t-197.5 60q-128 32 -220.5 70t-148.5 76.5t-88.5 86t-43.5 92.5t-11 103
q0 354 541 354q249 0 469 -63v-119z" />
    <glyph glyph-name="scircumflex" unicode="&#x15d;" horiz-adv-x="997" 
d="M182 1194l250 322h133l250 -322h-108l-207 248l-209 -248h-109zM510 -29q-228 0 -406 60v112q214 -63 410 -63q160 0 223.5 43t63.5 133q0 22 -4 40t-9 32t-18.5 26.5t-24 21.5t-34 18t-40 15t-51 13.5t-57 12.5t-67.5 14q-66 13 -104 21.5t-87 22.5t-76 28t-57.5 35.5
t-45 47t-24.5 60.5t-10 79q0 133 92.5 201t313.5 68q146 0 360 -33v-113q-198 39 -358 39q-108 0 -171.5 -19t-86.5 -51t-23 -83q0 -23 3.5 -42t14.5 -34t21.5 -26.5t33 -21.5t40 -16.5t53 -15t60.5 -13.5t73 -14q98 -19 146 -30.5t110 -34.5t88.5 -51.5t46 -75.5t19.5 -113
q0 -148 -95.5 -220.5t-322.5 -72.5z" />
    <glyph glyph-name="Scedilla" unicode="&#x15e;" horiz-adv-x="1243" 
d="M1169 346q0 -83 -26 -147.5t-84 -116.5t-162 -81t-250 -32l-59 -92q36 4 65 4q72 0 113 -35.5t41 -95.5q0 -69 -49.5 -109t-151.5 -40q-89 0 -180 32v74q86 -29 156 -29q125 0 125 70t-105 70q-52 0 -88 -4l-29 43l74 112q-122 4 -252.5 26.5t-222.5 53.5v119
q269 -88 526 -88q124 0 210 19t132 56.5t65 82.5t19 106q0 50 -8.5 84t-34.5 70.5t-74.5 65t-129 58.5t-197.5 60q-128 32 -220.5 70t-148.5 76.5t-88.5 86t-43.5 92.5t-11 103q0 354 541 354q249 0 469 -63v-119q-260 72 -474 72q-117 0 -198.5 -18.5t-124.5 -53t-61.5 -76
t-18.5 -94.5q0 -40 6.5 -68t31 -62.5t69.5 -62.5t125 -58.5t194 -59.5q164 -42 269 -87.5t162 -102.5t78 -118t21 -147z" />
    <glyph glyph-name="scedilla" unicode="&#x15f;" horiz-adv-x="997" 
d="M928 264q0 -145 -91.5 -217.5t-308.5 -75.5l-59 -94q36 4 66 4q72 0 112.5 -35.5t40.5 -95.5q0 -69 -49.5 -109t-151.5 -40q-89 0 -180 32v74q86 -29 156 -29q125 0 125 70t-105 70q-52 0 -88 -4l-28 43l75 116q-184 8 -338 58v112q214 -63 410 -63q160 0 223.5 43
t63.5 133q0 22 -4 40t-9 32t-18.5 26.5t-24 21.5t-34 18t-40 15t-51 13.5t-57 12.5t-67.5 14q-66 13 -104 21.5t-87 22.5t-76 28t-57.5 35.5t-45 47t-24.5 60.5t-10 79q0 133 92.5 201t313.5 68q146 0 360 -33v-113q-198 39 -358 39q-108 0 -171.5 -19t-86.5 -51t-23 -83
q0 -23 3.5 -42t14.5 -34t21.5 -26.5t33 -21.5t40 -16.5t53 -15t60.5 -13.5t73 -14q98 -19 146 -30.5t110 -34.5t88.5 -51.5t46 -75.5t19.5 -113z" />
    <glyph glyph-name="Scaron" unicode="&#x160;" horiz-adv-x="1243" 
d="M305 1905h109l209 -246l206 246h109l-250 -322h-133zM1090 1282q-260 72 -474 72q-117 0 -198.5 -18.5t-124.5 -53t-61.5 -76t-18.5 -94.5q0 -40 6.5 -68t31 -62.5t69.5 -62.5t125 -58.5t194 -59.5q164 -42 269 -87.5t162 -102.5t78 -118t21 -147q0 -85 -27.5 -151
t-90 -118.5t-173.5 -80t-268 -27.5q-127 0 -276 23t-250 57v119q269 -88 526 -88q124 0 210 19t132 56.5t65 82.5t19 106q0 50 -8.5 84t-34.5 70.5t-74.5 65t-129 58.5t-197.5 60q-128 32 -220.5 70t-148.5 76.5t-88.5 86t-43.5 92.5t-11 103q0 354 541 354q249 0 469 -63
v-119z" />
    <glyph glyph-name="scaron" unicode="&#x161;" horiz-adv-x="997" 
d="M182 1516h109l209 -246l207 246h108l-250 -322h-133zM510 -29q-228 0 -406 60v112q214 -63 410 -63q160 0 223.5 43t63.5 133q0 22 -4 40t-9 32t-18.5 26.5t-24 21.5t-34 18t-40 15t-51 13.5t-57 12.5t-67.5 14q-66 13 -104 21.5t-87 22.5t-76 28t-57.5 35.5t-45 47
t-24.5 60.5t-10 79q0 133 92.5 201t313.5 68q146 0 360 -33v-113q-198 39 -358 39q-108 0 -171.5 -19t-86.5 -51t-23 -83q0 -23 3.5 -42t14.5 -34t21.5 -26.5t33 -21.5t40 -16.5t53 -15t60.5 -13.5t73 -14q98 -19 146 -30.5t110 -34.5t88.5 -51.5t46 -75.5t19.5 -113
q0 -148 -95.5 -220.5t-322.5 -72.5z" />
    <glyph glyph-name="uni0162" unicode="&#x162;" horiz-adv-x="1245" 
d="M688 0h-18l-78 -123q36 4 65 4q72 0 113 -35.5t41 -95.5q0 -69 -49.5 -109t-151.5 -40q-89 0 -180 32v74q86 -29 156 -29q125 0 125 70t-105 70q-52 0 -88 -4l-29 43l93 143h-25v1319h-520v115h1171v-115h-520v-1319z" />
    <glyph glyph-name="uni0163" unicode="&#x163;" horiz-adv-x="743" 
d="M686 877h-356v-586q0 -108 39.5 -150.5t156.5 -42.5q58 0 131 15v-107q-68 -14 -151 -14h-12l-74 -115q36 4 65 4q72 0 113 -35.5t41 -95.5q0 -69 -49.5 -109t-151.5 -40q-89 0 -180 32v74q86 -29 156 -29q125 0 125 70t-105 70q-52 0 -88 -4l-29 43l93 143
q-116 19 -163.5 92t-47.5 203v582h-144v106h148l35 236h92v-236h356v-106z" />
    <glyph glyph-name="Tcaron" unicode="&#x164;" horiz-adv-x="1245" 
d="M688 1583h-133l-250 322h109l209 -246l206 246h109zM1208 1434v-115h-520v-1319h-131v1319h-520v115h1171z" />
    <glyph glyph-name="tcaron" unicode="&#x165;" horiz-adv-x="751" 
d="M616 1292l-43 -145h-67v338h110v-193zM686 877h-356v-586q0 -108 39.5 -150.5t156.5 -42.5q58 0 131 15v-107q-68 -14 -151 -14q-171 0 -239 75t-68 228v582h-144v106h148l35 236h92v-236h356v-106z" />
    <glyph glyph-name="Tbar" unicode="&#x166;" horiz-adv-x="1245" 
d="M1208 1319h-520v-559h248v-92h-248v-668h-131v668h-248v92h248v559h-520v115h1171v-115z" />
    <glyph glyph-name="tbar" unicode="&#x167;" horiz-adv-x="743" 
d="M686 877h-356v-252h342v-95h-342v-239q0 -108 39.5 -150.5t156.5 -42.5q58 0 131 15v-107q-68 -14 -151 -14q-171 0 -239 75t-68 228v235h-142v95h142v252h-144v106h148l35 236h92v-236h356v-106z" />
    <glyph glyph-name="Utilde" unicode="&#x168;" horiz-adv-x="1449" 
d="M410 1597q3 127 44 183.5t130 56.5q43 0 84.5 -21.5t99.5 -66.5q53 -42 81 -57t52 -15q46 0 64 31t24 117h86q-3 -129 -44 -185.5t-130 -56.5q-43 0 -85 21.5t-101 68.5q-52 40 -79.5 55t-51.5 15q-46 0 -65 -30.5t-25 -115.5h-84zM1325 1434v-873q0 -592 -600 -592
q-163 0 -280.5 42t-186.5 122t-101 185.5t-32 242.5v873h131v-873q0 -234 109 -356.5t360 -122.5q249 0 358 122.5t109 356.5v873h133z" />
    <glyph glyph-name="utilde" unicode="&#x169;" horiz-adv-x="1144" 
d="M236 1208q3 127 44 183.5t130 56.5q43 0 84.5 -21.5t99.5 -66.5q53 -42 81 -57t52 -15q46 0 64 31t24 117h86q-3 -128 -44 -185t-130 -57q-42 0 -83 21.5t-103 68.5q-52 40 -79.5 55t-51.5 15q-46 0 -65.5 -31t-25.5 -115h-83zM1018 0h-90l-10 207q-9 -42 -34.5 -81
t-69.5 -75.5t-117.5 -59t-166.5 -22.5q-118 0 -199.5 26t-128 78t-67 122t-20.5 167v621h131v-614q0 -77 14 -128.5t48.5 -89.5t95 -55.5t151.5 -17.5q334 0 334 309v596h129v-983z" />
    <glyph glyph-name="Umacron" unicode="&#x16a;" horiz-adv-x="1449" 
d="M426 1753h598v-94h-598v94zM1325 1434v-873q0 -592 -600 -592q-163 0 -280.5 42t-186.5 122t-101 185.5t-32 242.5v873h131v-873q0 -234 109 -356.5t360 -122.5q249 0 358 122.5t109 356.5v873h133z" />
    <glyph glyph-name="umacron" unicode="&#x16b;" horiz-adv-x="1144" 
d="M268 1368h598v-94h-598v94zM1018 0h-90l-10 207q-9 -42 -34.5 -81t-69.5 -75.5t-117.5 -59t-166.5 -22.5q-118 0 -199.5 26t-128 78t-67 122t-20.5 167v621h131v-614q0 -77 14 -128.5t48.5 -89.5t95 -55.5t151.5 -17.5q334 0 334 309v596h129v-983z" />
    <glyph glyph-name="Ubreve" unicode="&#x16c;" horiz-adv-x="1449" 
d="M446 1909h86q5 -121 49 -174.5t144 -53.5t144 53.5t49 174.5h86q0 -167 -68 -246.5t-211 -79.5t-211 79.5t-68 246.5zM1325 1434v-873q0 -592 -600 -592q-163 0 -280.5 42t-186.5 122t-101 185.5t-32 242.5v873h131v-873q0 -234 109 -356.5t360 -122.5q249 0 358 122.5
t109 356.5v873h133z" />
    <glyph glyph-name="ubreve" unicode="&#x16d;" horiz-adv-x="1144" 
d="M289 1520h86q5 -122 48.5 -175t143.5 -53t144 53.5t49 174.5h86q0 -167 -68.5 -247.5t-210.5 -80.5t-210 80.5t-68 247.5zM1018 0h-90l-10 207q-9 -42 -34.5 -81t-69.5 -75.5t-117.5 -59t-166.5 -22.5q-118 0 -199.5 26t-128 78t-67 122t-20.5 167v621h131v-614
q0 -77 14 -128.5t48.5 -89.5t95 -55.5t151.5 -17.5q334 0 334 309v596h129v-983z" />
    <glyph glyph-name="Uring" unicode="&#x16e;" horiz-adv-x="1449" 
d="M733 1583q-221 0 -221 201q0 100 56.5 152.5t164.5 52.5q107 0 163 -52t56 -153q0 -201 -219 -201zM733 1661q70 0 99.5 28t29.5 93q0 68 -29.5 97.5t-99.5 29.5t-99.5 -29.5t-29.5 -97.5q0 -65 29.5 -93t99.5 -28zM1325 1434v-873q0 -592 -600 -592q-163 0 -280.5 42
t-186.5 122t-101 185.5t-32 242.5v873h131v-873q0 -234 109 -356.5t360 -122.5q249 0 358 122.5t109 356.5v873h133z" />
    <glyph glyph-name="uring" unicode="&#x16f;" horiz-adv-x="1144" 
d="M569 1192q-109 0 -165 51.5t-56 151.5t56 152t165 52q108 0 163.5 -51.5t55.5 -152.5q0 -203 -219 -203zM569 1272q70 0 99.5 28t29.5 93q0 68 -29.5 97.5t-99.5 29.5t-99.5 -29.5t-29.5 -97.5q0 -65 29.5 -93t99.5 -28zM1018 0h-90l-10 207q-9 -42 -34.5 -81
t-69.5 -75.5t-117.5 -59t-166.5 -22.5q-118 0 -199.5 26t-128 78t-67 122t-20.5 167v621h131v-614q0 -77 14 -128.5t48.5 -89.5t95 -55.5t151.5 -17.5q334 0 334 309v596h129v-983z" />
    <glyph glyph-name="Uhungarumlaut" unicode="&#x170;" horiz-adv-x="1449" 
d="M813 1905l-268 -322h-109l244 322h133zM1176 1905l-269 -322h-108l245 322h132zM1325 1434v-873q0 -592 -600 -592q-163 0 -280.5 42t-186.5 122t-101 185.5t-32 242.5v873h131v-873q0 -234 109 -356.5t360 -122.5q249 0 358 122.5t109 356.5v873h133z" />
    <glyph glyph-name="uhungarumlaut" unicode="&#x171;" horiz-adv-x="1144" 
d="M604 1516l-268 -322h-109l244 322h133zM967 1516l-269 -322h-108l246 322h131zM1018 0h-90l-10 207q-9 -42 -34.5 -81t-69.5 -75.5t-117.5 -59t-166.5 -22.5q-118 0 -199.5 26t-128 78t-67 122t-20.5 167v621h131v-614q0 -77 14 -128.5t48.5 -89.5t95 -55.5t151.5 -17.5
q334 0 334 309v596h129v-983z" />
    <glyph glyph-name="Uogonek" unicode="&#x172;" horiz-adv-x="1449" 
d="M1192 1434h133v-873q0 -546 -510 -588q-135 -129 -135 -221q0 -36 20 -55t54 -19q42 0 88 17v-94q-72 -21 -111 -21q-73 0 -113 38.5t-40 105.5q0 124 137 245q-160 1 -275.5 43.5t-183.5 122.5t-99.5 185t-31.5 241v873h131v-873q0 -234 109 -356.5t360 -122.5
q249 0 358 122.5t109 356.5v873z" />
    <glyph glyph-name="uogonek" unicode="&#x173;" horiz-adv-x="1144" 
d="M856 -248q0 -36 20 -55t54 -19q42 0 88 17v-94q-72 -21 -111 -21q-73 0 -113 38.5t-40 105.5q0 145 174 276l-10 207q-9 -42 -34.5 -81t-69.5 -75.5t-117.5 -59t-166.5 -22.5q-118 0 -199.5 26t-128 78t-67 122t-20.5 167v621h131v-614q0 -77 14 -128.5t48.5 -89.5
t95 -55.5t151.5 -17.5q334 0 334 309v596h129v-983h2q-164 -146 -164 -248z" />
    <glyph glyph-name="Wcircumflex" unicode="&#x174;" horiz-adv-x="1966" 
d="M666 1583l249 322h134l249 -322h-108l-207 248l-209 -248h-108zM12 1434h140l340 -1117q30 -104 40 -167q11 58 43 167l343 1117h135l342 -1117q33 -114 41 -165q12 58 43 165l340 1117h137l-449 -1434h-141l-342 1116q-34 132 -41 170q-9 -58 -41 -170l-342 -1116h-141z
" />
    <glyph glyph-name="wcircumflex" unicode="&#x175;" horiz-adv-x="1607" 
d="M487 1194l250 322h133l250 -322h-108l-207 248l-209 -248h-109zM23 983h139l233 -702q21 -64 51 -185q17 78 52 185l231 702h150l235 -702q21 -64 51 -185q27 108 52 185l235 702h133l-342 -983h-153l-285 870l-287 -870h-153z" />
    <glyph glyph-name="Ycircumflex" unicode="&#x176;" horiz-adv-x="1298" 
d="M334 1583l250 322h133l250 -322h-109l-207 248l-209 -248h-108zM582 0v580l-570 854h154l418 -629q27 -41 65 -117q35 67 68 117l418 629h151l-573 -856v-578h-131z" />
    <glyph glyph-name="ycircumflex" unicode="&#x177;" horiz-adv-x="1024" 
d="M197 1194l249 322h134l249 -322h-108l-207 248l-209 -248h-108zM23 983h139l291 -666q43 -101 61 -172q24 77 64 172l286 666h137l-598 -1352h-137l187 396z" />
    <glyph glyph-name="Ydieresis" unicode="&#x178;" horiz-adv-x="1298" 
d="M408 1843h116v-260h-116v260zM778 1843h117v-260h-117v260zM582 0v580l-570 854h154l418 -629q27 -41 65 -117q35 67 68 117l418 629h151l-573 -856v-578h-131z" />
    <glyph glyph-name="Zacute" unicode="&#x179;" horiz-adv-x="1271" 
d="M944 1905l-268 -322h-109l244 322h133zM96 1434h1090v-117l-811 -1016q-102 -126 -164 -188q61 2 250 2h749v-115h-1149v117l813 1016q102 126 164 188q-61 -2 -247 -2h-695v115z" />
    <glyph glyph-name="zacute" unicode="&#x17a;" horiz-adv-x="985" 
d="M801 1516l-269 -322h-108l244 322h133zM86 129l545 627l110 121h-172h-467v106h775v-129l-547 -627l-111 -121h174h506v-106h-813v129z" />
    <glyph glyph-name="Zdotaccent" unicode="&#x17b;" horiz-adv-x="1271" 
d="M580 1843h114v-260h-114v260zM96 1434h1090v-117l-811 -1016q-102 -126 -164 -188q61 2 250 2h749v-115h-1149v117l813 1016q102 126 164 188q-61 -2 -247 -2h-695v115z" />
    <glyph glyph-name="zdotaccent" unicode="&#x17c;" horiz-adv-x="985" 
d="M436 1454h115v-260h-115v260zM86 129l545 627l110 121h-172h-467v106h775v-129l-547 -627l-111 -121h174h506v-106h-813v129z" />
    <glyph glyph-name="Zcaron" unicode="&#x17d;" horiz-adv-x="1271" 
d="M319 1905h109l209 -246l207 246h108l-250 -322h-133zM96 1434h1090v-117l-811 -1016q-102 -126 -164 -188q61 2 250 2h749v-115h-1149v117l813 1016q102 126 164 188q-61 -2 -247 -2h-695v115z" />
    <glyph glyph-name="zcaron" unicode="&#x17e;" horiz-adv-x="985" 
d="M176 1516h109l209 -246l206 246h109l-250 -322h-133zM86 129l545 627l110 121h-172h-467v106h775v-129l-547 -627l-111 -121h174h506v-106h-813v129z" />
    <glyph glyph-name="uni018F" unicode="&#x18f;" horiz-adv-x="1466" 
d="M96 707q0 55 2 88h1141q-12 296 -144 426.5t-417 130.5q-201 0 -475 -74v119q242 67 477 67q365 0 529.5 -179.5t164.5 -567.5q0 -186 -35.5 -322t-112.5 -233t-203 -145t-304 -48q-143 0 -249.5 31.5t-177.5 90.5t-115 151t-62.5 204.5t-18.5 260.5zM225 680
q2 -159 26 -267t80.5 -185t151.5 -112.5t236 -35.5q140 0 238.5 36t160.5 111.5t91.5 186t31.5 266.5h-1016z" />
    <glyph glyph-name="uni0218" unicode="&#x218;" horiz-adv-x="1243" 
d="M1090 1282q-260 72 -474 72q-117 0 -198.5 -18.5t-124.5 -53t-61.5 -76t-18.5 -94.5q0 -40 6.5 -68t31 -62.5t69.5 -62.5t125 -58.5t194 -59.5q164 -42 269 -87.5t162 -102.5t78 -118t21 -147q0 -85 -27.5 -151t-90 -118.5t-173.5 -80t-268 -27.5q-127 0 -276 23t-250 57
v119q269 -88 526 -88q124 0 210 19t132 56.5t65 82.5t19 106q0 50 -8.5 84t-34.5 70.5t-74.5 65t-129 58.5t-197.5 60q-128 32 -220.5 70t-148.5 76.5t-88.5 86t-43.5 92.5t-11 103q0 354 541 354q249 0 469 -63v-119zM557 -147h129v-140l-51 -133h-70l39 141h-47v132z" />
    <glyph glyph-name="uni0219" unicode="&#x219;" horiz-adv-x="997" 
d="M510 -29q-228 0 -406 60v112q214 -63 410 -63q160 0 223.5 43t63.5 133q0 22 -4 40t-9 32t-18.5 26.5t-24 21.5t-34 18t-40 15t-51 13.5t-57 12.5t-67.5 14q-66 13 -104 21.5t-87 22.5t-76 28t-57.5 35.5t-45 47t-24.5 60.5t-10 79q0 133 92.5 201t313.5 68
q146 0 360 -33v-113q-198 39 -358 39q-108 0 -171.5 -19t-86.5 -51t-23 -83q0 -23 3.5 -42t14.5 -34t21.5 -26.5t33 -21.5t40 -16.5t53 -15t60.5 -13.5t73 -14q98 -19 146 -30.5t110 -34.5t88.5 -51.5t46 -75.5t19.5 -113q0 -148 -95.5 -220.5t-322.5 -72.5zM438 -147h129
v-140l-51 -133h-70l39 141h-47v132z" />
    <glyph glyph-name="uni021A" unicode="&#x21a;" horiz-adv-x="1245" 
d="M1208 1434v-115h-520v-1319h-131v1319h-520v115h1171zM561 -279v132h129v-140l-51 -133h-70l39 141h-47z" />
    <glyph glyph-name="uni021B" unicode="&#x21b;" horiz-adv-x="743" 
d="M686 877h-356v-586q0 -108 39.5 -150.5t156.5 -42.5q58 0 131 15v-107q-68 -14 -151 -14q-171 0 -239 75t-68 228v582h-144v106h148l35 236h92v-236h356v-106zM391 -279v132h129v-140l-51 -133h-70l39 141h-47z" />
    <glyph glyph-name="uni0237" unicode="&#x237;" horiz-adv-x="380" 
d="M256 -100q0 -150 -67 -224.5t-226 -74.5q-85 0 -131 8v106q108 -8 111 -8q106 0 145 42.5t39 146.5v1087h129v-1083z" />
    <glyph glyph-name="uni0259" unicode="&#x259;" horiz-adv-x="1112" 
d="M131 954q70 26 175.5 43t207.5 17q149 0 249.5 -32.5t159 -100.5t83 -161.5t24.5 -227.5q0 -128 -24.5 -221.5t-80 -163t-151 -104t-233.5 -34.5q-126 0 -216 32.5t-142 96.5t-75.5 149t-23.5 199q0 49 2 84h815q-3 202 -88.5 289.5t-300.5 87.5q-193 0 -381 -65v112z
M543 72q194 0 273.5 88.5t84.5 269.5h-688q0 -180 74.5 -269t255.5 -89z" />
    <glyph glyph-name="circumflex" unicode="&#x2c6;" horiz-adv-x="714" 
d="M41 1194l250 322h133l250 -322h-109l-207 248l-208 -248h-109z" />
    <glyph glyph-name="caron" unicode="&#x2c7;" horiz-adv-x="714" 
d="M41 1516h109l208 -246l207 246h109l-250 -322h-133z" />
    <glyph glyph-name="breve" unicode="&#x2d8;" horiz-adv-x="638" 
d="M41 1520h86q5 -122 48.5 -175t143.5 -53t144 53.5t49 174.5h86q0 -167 -68.5 -247.5t-210.5 -80.5t-210 80.5t-68 247.5z" />
    <glyph glyph-name="dotaccent" unicode="&#x2d9;" horiz-adv-x="196" 
d="M41 1454h115v-260h-115v260z" />
    <glyph glyph-name="ring" unicode="&#x2da;" horiz-adv-x="522" 
d="M262 1192q-109 0 -165 51.5t-56 151.5t56 152t165 52q108 0 163.5 -51.5t55.5 -152.5q0 -203 -219 -203zM262 1272q70 0 99.5 28t29.5 93q0 68 -29.5 97.5t-99.5 29.5t-99.5 -29.5t-29.5 -97.5q0 -65 29.5 -93t99.5 -28z" />
    <glyph glyph-name="ogonek" unicode="&#x2db;" horiz-adv-x="348" 
d="M305 -399q-72 -21 -110 -21q-73 0 -113.5 38.5t-40.5 105.5q0 145 174 276h92q-164 -146 -164 -248q0 -36 20 -55t54 -19q42 0 88 17v-94z" />
    <glyph glyph-name="tilde" unicode="&#x2dc;" horiz-adv-x="747" 
d="M41 1208q3 127 44 183.5t130 56.5q43 0 84.5 -21.5t99.5 -66.5q53 -42 81 -57t52 -15q46 0 64.5 31t24.5 117h86q-3 -128 -44.5 -185t-130.5 -57q-42 0 -83 21.5t-103 68.5q-52 40 -79.5 55t-51.5 15q-46 0 -65 -30.5t-25 -115.5h-84z" />
    <glyph glyph-name="hungarumlaut" unicode="&#x2dd;" horiz-adv-x="821" 
d="M418 1516l-268 -322h-109l244 322h133zM780 1516l-268 -322h-109l246 322h131z" />
    <glyph glyph-name="gravecomb" unicode="&#x300;" 
d="M-418 1516h131l246 -322h-109z" />
    <glyph glyph-name="acutecomb" unicode="&#x301;" 
d="M-41 1516l-268 -322h-109l244 322h133z" />
    <glyph glyph-name="uni0302" unicode="&#x302;" 
d="M-674 1194l250 322h133l250 -322h-109l-206 248l-209 -248h-109z" />
    <glyph glyph-name="tildecomb" unicode="&#x303;" 
d="M-707 1208q3 127 44.5 183.5t130.5 56.5q43 0 84.5 -21.5t99.5 -66.5q53 -42 81 -57t52 -15q46 0 64 31t24 117h86q-3 -128 -44 -185t-130 -57q-42 0 -83 21.5t-103 68.5q-52 40 -79.5 55t-51.5 15q-46 0 -65.5 -31t-25.5 -115h-84z" />
    <glyph glyph-name="uni0304" unicode="&#x304;" 
d="M-639 1368h598v-94h-598v94z" />
    <glyph glyph-name="uni0306" unicode="&#x306;" 
d="M-598 1520h86q5 -121 49 -174.5t144 -53.5t143.5 53t48.5 175h86q0 -167 -68 -247.5t-210 -80.5t-210.5 80.5t-68.5 247.5z" />
    <glyph glyph-name="uni0307" unicode="&#x307;" 
d="M-156 1454h115v-260h-115v260z" />
    <glyph glyph-name="uni0308" unicode="&#x308;" 
d="M-528 1454h116v-260h-116v260zM-158 1454h117v-260h-117v260z" />
    <glyph glyph-name="uni030A" unicode="&#x30a;" 
d="M-260 1192q-109 0 -165 51.5t-56 151.5t56 152t165 52q108 0 163.5 -51.5t55.5 -152.5q0 -203 -219 -203zM-260 1272q70 0 99.5 28t29.5 93q0 68 -29.5 97.5t-99.5 29.5t-99.5 -29.5t-29.5 -97.5q0 -65 29.5 -93t99.5 -28z" />
    <glyph glyph-name="uni030B" unicode="&#x30b;" 
d="M-403 1516l-269 -322h-108l243 322h134zM-41 1516l-268 -322h-109l246 322h131z" />
    <glyph glyph-name="uni030C" unicode="&#x30c;" 
d="M-674 1516h109l209 -246l206 246h109l-250 -322h-133z" />
    <glyph glyph-name="uni0312" unicode="&#x312;" 
d="M-47 1194h-117v182l51 144h72l-41 -152h35v-174z" />
    <glyph glyph-name="uni0326" unicode="&#x326;" 
d="M-170 -147h129v-140l-51 -133h-70l39 141h-47v132z" />
    <glyph glyph-name="uni0327" unicode="&#x327;" 
d="M-182 0l-78 -123q36 4 65 4q72 0 113 -35.5t41 -95.5q0 -69 -49.5 -109t-151.5 -40q-89 0 -180 32v74q86 -29 156 -29q125 0 125 70t-105 70q-52 0 -88 -4l-28 43l92 143h88z" />
    <glyph glyph-name="uni0328" unicode="&#x328;" 
d="M-43 -399q-72 -21 -111 -21q-73 0 -113 38.5t-40 105.5q0 145 174 276h92q-164 -146 -164 -248q0 -36 20 -55t54 -19q42 0 88 17v-94z" />
    <glyph glyph-name="Wgrave" unicode="&#x1e80;" horiz-adv-x="1966" 
d="M668 1905h131l245 -322h-108zM12 1434h140l340 -1117q30 -104 40 -167q11 58 43 167l343 1117h135l342 -1117q33 -114 41 -165q12 58 43 165l340 1117h137l-449 -1434h-141l-342 1116q-34 132 -41 170q-9 -58 -41 -170l-342 -1116h-141z" />
    <glyph glyph-name="wgrave" unicode="&#x1e81;" horiz-adv-x="1607" 
d="M489 1516h132l245 -322h-108zM23 983h139l233 -702q21 -64 51 -185q17 78 52 185l231 702h150l235 -702q21 -64 51 -185q27 108 52 185l235 702h133l-342 -983h-153l-285 870l-287 -870h-153z" />
    <glyph glyph-name="Wacute" unicode="&#x1e82;" horiz-adv-x="1966" 
d="M1292 1905l-268 -322h-109l244 322h133zM12 1434h140l340 -1117q30 -104 40 -167q11 58 43 167l343 1117h135l342 -1117q33 -114 41 -165q12 58 43 165l340 1117h137l-449 -1434h-141l-342 1116q-34 132 -41 170q-9 -58 -41 -170l-342 -1116h-141z" />
    <glyph glyph-name="wacute" unicode="&#x1e83;" horiz-adv-x="1607" 
d="M1112 1516l-268 -322h-109l244 322h133zM23 983h139l233 -702q21 -64 51 -185q17 78 52 185l231 702h150l235 -702q21 -64 51 -185q27 108 52 185l235 702h133l-342 -983h-153l-285 870l-287 -870h-153z" />
    <glyph glyph-name="Wdieresis" unicode="&#x1e84;" horiz-adv-x="1966" 
d="M739 1843h117v-260h-117v260zM1110 1843h117v-260h-117v260zM12 1434h140l340 -1117q30 -104 40 -167q11 58 43 167l343 1117h135l342 -1117q33 -114 41 -165q12 58 43 165l340 1117h137l-449 -1434h-141l-342 1116q-34 132 -41 170q-9 -58 -41 -170l-342 -1116h-141z
" />
    <glyph glyph-name="wdieresis" unicode="&#x1e85;" horiz-adv-x="1607" 
d="M559 1454h117v-260h-117v260zM930 1454h117v-260h-117v260zM23 983h139l233 -702q21 -64 51 -185q17 78 52 185l231 702h150l235 -702q21 -64 51 -185q27 108 52 185l235 702h133l-342 -983h-153l-285 870l-287 -870h-153z" />
    <glyph glyph-name="uni1E9E" unicode="&#x1e9e;" horiz-adv-x="1452" 
d="M137 0v903q0 286 138.5 423.5t416.5 137.5q270 0 508 -86v-102l-319 -500q235 -35 350 -138t115 -282q0 -188 -128.5 -287.5t-369.5 -99.5q-201 0 -381 68v119q207 -76 387 -76q176 0 267 69t91 205q0 145 -108.5 221.5t-360.5 108.5v92l330 518q-192 60 -381 60
q-214 0 -318 -109t-104 -342v-903h-133z" />
    <glyph glyph-name="Ygrave" unicode="&#x1ef2;" horiz-adv-x="1298" 
d="M336 1905h131l246 -322h-109zM582 0v580l-570 854h154l418 -629q27 -41 65 -117q35 67 68 117l418 629h151l-573 -856v-578h-131z" />
    <glyph glyph-name="ygrave" unicode="&#x1ef3;" horiz-adv-x="1024" 
d="M199 1516h131l245 -322h-108zM23 983h139l291 -666q43 -101 61 -172q24 77 64 172l286 666h137l-598 -1352h-137l187 396z" />
    <glyph glyph-name="uni2008" unicode="&#x2008;" horiz-adv-x="417" 
 />
    <glyph glyph-name="uni2009" unicode="&#x2009;" horiz-adv-x="122" 
 />
    <glyph glyph-name="uni200B" unicode="&#x200b;" 
 />
    <glyph glyph-name="uni2060" unicode="&#x2060;" 
 />
    <glyph glyph-name="uniFEFF" unicode="&#xfeff;" 
 />
    <glyph glyph-name="NULL" 
 />
    <glyph glyph-name="CR" horiz-adv-x="491" 
 />
    <glyph glyph-name="uni0308.case" 
d="M-528 1843h116v-260h-116v260zM-158 1843h117v-260h-117v260z" />
    <glyph glyph-name="uni0307.case" 
d="M-156 1843h115v-260h-115v260z" />
    <glyph glyph-name="gravecomb.case" 
d="M-418 1905h131l246 -322h-109z" />
    <glyph glyph-name="acutecomb.case" 
d="M-41 1905l-268 -322h-109l244 322h133z" />
    <glyph glyph-name="uni030B.case" 
d="M-403 1905l-269 -322h-108l243 322h134zM-41 1905l-268 -322h-109l246 322h131z" />
    <glyph glyph-name="uni0302.case" 
d="M-674 1583l250 322h133l250 -322h-109l-206 248l-209 -248h-109z" />
    <glyph glyph-name="uni030C.case" 
d="M-674 1905h109l209 -246l206 246h109l-250 -322h-133z" />
    <glyph glyph-name="uni0306.case" 
d="M-598 1909h86q5 -121 49 -174.5t144 -53.5t143.5 53t48.5 175h86q0 -167 -67.5 -246.5t-210.5 -79.5t-211 79.5t-68 246.5z" />
    <glyph glyph-name="uni030A.case" 
d="M-260 1583q-221 0 -221 201q0 100 56.5 152.5t164.5 52.5q107 0 163 -52t56 -153q0 -201 -219 -201zM-260 1661q70 0 99.5 28t29.5 93q0 68 -29.5 97.5t-99.5 29.5t-99.5 -29.5t-29.5 -97.5q0 -65 29.5 -93t99.5 -28z" />
    <glyph glyph-name="tildecomb.case" 
d="M-707 1597q3 127 44.5 183.5t130.5 56.5q43 0 84.5 -21.5t99.5 -66.5q53 -42 81 -57t52 -15q46 0 64 31t24 117h86q-3 -129 -44 -185.5t-130 -56.5q-43 0 -85 21.5t-101 68.5q-52 40 -79.5 55t-51.5 15q-46 0 -65.5 -31t-25.5 -115h-84z" />
    <glyph glyph-name="uni0304.case" 
d="M-639 1753h598v-94h-598v94z" />
    </font>
</defs>
</svg>
