<?xml version="1.0" encoding="UTF-8"?> 
<svg width="30" height="30" viewBox="0 0 30 30" fill="none" xmlns="http://www.w3.org/2000/svg">
<path d="M28.7798 3.27284L28.7796 3.27323L27.3024 7.73582L27.3024 7.73585C25.6975 12.5851 25.5163 17.7922 26.7804 22.7391L27.9439 27.2935L27.944 27.2939C28.1844 28.2329 27.2909 29.0663 26.3709 28.7612L26.3705 28.7611L21.9079 27.2839L21.9079 27.2838C17.0586 25.6789 11.8515 25.4977 6.90466 26.7618L2.35026 27.9253L2.34986 27.9254C1.41084 28.1658 0.577417 27.2723 0.88253 26.3523L0.88266 26.3519L2.35986 21.8893L2.35987 21.8893C3.96482 17.04 4.14603 11.8329 2.88186 6.88607L1.71841 2.33166L1.71831 2.33126C1.47788 1.39224 2.37139 0.558821 3.29143 0.863936L3.29182 0.864066L7.75441 2.34127L7.75444 2.34128C12.6037 3.94622 17.8108 4.12743 22.7576 2.86329C22.7576 2.86328 22.7576 2.86328 22.7576 2.86327L27.312 1.69982L27.3125 1.69972C28.2515 1.45929 29.0849 2.3528 28.7798 3.27284Z" stroke="#F2F1ED" stroke-width="1.5"/>
</svg>
