<?xml version="1.0" encoding="UTF-8"?>
<svg width="28" height="27" viewBox="0 0 28 27" fill="none" xmlns="http://www.w3.org/2000/svg">
<path d="M15.1594 1.66079L16.668 4.31131C18.2584 7.10866 20.6514 9.40675 23.5572 10.9413L26.3144 12.3877C27.2285 12.8722 27.2285 14.1351 26.3144 14.6123L23.5572 16.0587C20.6514 17.5859 18.2584 19.8913 16.668 22.6887L15.1594 25.3392C14.6614 26.2203 13.346 26.2203 12.8406 25.3392L11.332 22.6887C9.7416 19.8913 7.34858 17.5932 4.44276 16.0587L1.68558 14.6123C0.771473 14.1278 0.771473 12.8649 1.68558 12.3877L4.44276 10.9413C7.34858 9.4141 9.7416 7.10866 11.332 4.31131L12.8406 1.66079C13.3386 0.779736 14.654 0.779736 15.1594 1.66079Z" fill="#1E0202" stroke="#F2F1ED" stroke-width="2" stroke-miterlimit="10"/>
</svg>
