<?xml version="1.0" standalone="no"?>
<!DOCTYPE svg PUBLIC "-//W3C//DTD SVG 1.1//EN" "http://www.w3.org/Graphics/SVG/1.1/DTD/svg11.dtd" >
<svg xmlns="http://www.w3.org/2000/svg" xmlns:xlink="http://www.w3.org/1999/xlink" version="1.1">
<metadata>
Created by FontForge 20170731 at Thu Oct  5 16:22:25 2023
 By Aleksey,,,
Copyright (c) 2021 by Mathieu Desjardins. All rights reserved.
</metadata>
<defs>
<font id="PPFormula-SemiExtendedBold" horiz-adv-x="1490" >
  <font-face 
    font-family="PP Formula Semi Extended Bold"
    font-weight="700"
    font-stretch="semi-expanded"
    units-per-em="2048"
    panose-1="0 0 0 0 0 0 0 0 0 0"
    ascent="1638"
    descent="-410"
    x-height="1331"
    cap-height="1704"
    bbox="-522 -475 3215 2128"
    underline-thickness="81"
    underline-position="-285"
    unicode-range="U+0020-FB02"
  />
<missing-glyph horiz-adv-x="1085" 
d="M891 1700v-2171h-688v2171h688zM362 -322h361v72h-221l151 103h70v71h-361v-71h152l-152 -103v-72zM362 -27h361v246h-361v-246zM362 350h361v244h-217v-121h74v49h71v-100h-217v172h-72v-244zM362 643h361v217h-72v-143h-289v-74zM362 766h218v152h143v71h-361v-71h144
v-80h-144v-72zM362 1049h361v73h-143v152h-218v-225zM362 1331h361v72h-143v80h143v71h-358v-71h141v-80h-144v-72zM434 45v102h217v-102h-217zM434 1122v78h72v-78h-72z" />
    <glyph glyph-name="fi" unicode="fi" horiz-adv-x="1728" 
d="M27 1331h372v68q0 63 7.5 108.5t29 88.5t58.5 69.5t99 42.5t148 16q159 0 389 -20v-209q-47 6 -241 6q-130 0 -171.5 -25.5t-41.5 -95.5v-108q37 41 121 50t333 9v-241h-454v-1090h-277v1090h-372v241zM1268 1585q0 65 44 102t128 37q86 0 130 -37t44 -102
q0 -60 -45 -97.5t-129 -37.5q-83 0 -127.5 37.5t-44.5 97.5zM1303 0v1331h276v-1331h-276z" />
    <glyph glyph-name="fl" unicode="fl" horiz-adv-x="1730" 
d="M27 1331h372v68q0 63 7.5 108.5t29 88.5t58.5 69.5t99 42.5t148 16q159 0 389 -20v-209q-47 6 -241 6q-130 0 -171.5 -25.5t-41.5 -95.5v-108q37 41 121 50t333 9v-241h-454v-1090h-277v1090h-372v241zM1305 0v1704h276v-1704h-276z" />
    <glyph glyph-name=".notdef" horiz-adv-x="1085" 
d="M891 1700v-2171h-688v2171h688zM362 -322h361v72h-221l151 103h70v71h-361v-71h152l-152 -103v-72zM362 -27h361v246h-361v-246zM362 350h361v244h-217v-121h74v49h71v-100h-217v172h-72v-244zM362 643h361v217h-72v-143h-289v-74zM362 766h218v152h143v71h-361v-71h144
v-80h-144v-72zM362 1049h361v73h-143v152h-218v-225zM362 1331h361v72h-143v80h143v71h-358v-71h141v-80h-144v-72zM434 45v102h217v-102h-217zM434 1122v78h72v-78h-72z" />
    <glyph glyph-name=".null" horiz-adv-x="0" 
 />
    <glyph glyph-name="nonmarkingreturn" horiz-adv-x="682" 
 />
    <glyph glyph-name="space" unicode=" " horiz-adv-x="591" 
 />
    <glyph glyph-name="exclam" unicode="!" horiz-adv-x="604" 
d="M164 1704h276l-18 -1192h-242zM135 141q0 75 47.5 121.5t118.5 46.5q69 0 116.5 -46.5t47.5 -121.5q0 -72 -47.5 -116.5t-116.5 -44.5q-71 0 -118.5 44.5t-47.5 116.5z" />
    <glyph glyph-name="quotedbl" unicode="&#x22;" horiz-adv-x="669" 
d="M131 1704h145v-512h-145v512zM393 1192v512h146v-512h-146z" />
    <glyph glyph-name="numbersign" unicode="#" horiz-adv-x="2084" 
d="M297 1130h561l391 574h113l-391 -574h518l391 574h113l-391 -574h417v-90h-481l-301 -442h543v-90h-604l-349 -508h-112l348 508h-518l-348 -508h-113l348 508h-375v90h437l301 442h-498v90zM606 598h518l301 442h-518z" />
    <glyph glyph-name="dollar" unicode="$" horiz-adv-x="1470" 
d="M680 -143v125q-295 19 -445.5 164t-150.5 409v49h289v-49q0 -150 76.5 -228t230.5 -96v533l-121 45q-82 28 -141.5 55.5t-116.5 68t-92 88t-56.5 114.5t-21.5 149q0 203 145.5 317t403.5 123v123h123v-125q252 -19 394 -147.5t142 -351.5v-49h-286v40q0 227 -250 259
v-467l137 -50q86 -31 144.5 -58.5t116.5 -68.5t91.5 -89t54.5 -117t21 -156q0 -472 -565 -487v-123h-123zM420 1276q0 -39 15 -70.5t33.5 -51t60 -41t68 -32t83.5 -30.5v424q-124 -6 -192 -53.5t-68 -135.5v-10zM803 227q131 6 204.5 64t73.5 170v12q0 32 -7 58t-16 45
t-30 37t-37 29t-50.5 25.5t-56.5 23t-69 24.5l-12 4v-492z" />
    <glyph glyph-name="percent" unicode="%" horiz-adv-x="1914" 
d="M301 0l1159 1704h150l-1159 -1704h-150zM51 1327q0 75 26.5 146t74.5 127t122.5 90t163.5 34q119 0 209.5 -58.5t135 -147.5t44.5 -191t-44.5 -190.5t-135 -146.5t-209.5 -58q-118 0 -208 58t-134.5 146.5t-44.5 190.5zM266 1327q0 -87 48 -138.5t124 -51.5
q77 0 125.5 51.5t48.5 138.5q0 88 -48.5 140.5t-125.5 52.5q-76 0 -124 -52.5t-48 -140.5zM1087 377q0 102 45 190.5t136 146.5t209 58t208.5 -58t135.5 -146.5t45 -190.5t-45 -191t-135.5 -147.5t-208.5 -58.5t-209 58.5t-136 147.5t-45 191zM1305 377q0 -88 48 -140.5
t124 -52.5t124 52.5t48 140.5q0 87 -48 138.5t-124 51.5t-124 -51.5t-48 -138.5z" />
    <glyph glyph-name="ampersand" unicode="&#x26;" horiz-adv-x="1634" 
d="M760 -20q-315 0 -479 128t-164 357v10q0 147 73 251.5t209 143.5q-129 42 -198.5 140.5t-69.5 234.5v12q0 96 39 179t115 148t199.5 102.5t281.5 37.5q305 0 462.5 -131.5t157.5 -375.5v-17h-280v25q0 132 -82.5 199t-259.5 67q-175 0 -259.5 -62.5t-84.5 -175.5v-39
q0 -237 340 -237h346v115h280v-115h162v-221h-162v-283q0 -240 -157 -366.5t-469 -126.5zM406 465q0 -254 352 -254q348 0 348 256v289h-352q-174 0 -261 -64t-87 -184v-43z" />
    <glyph glyph-name="quotesingle" unicode="'" horiz-adv-x="407" 
d="M131 1704h145v-512h-145v512z" />
    <glyph glyph-name="parenleft" unicode="(" horiz-adv-x="616" 
d="M500 -313q-210 265 -308 512.5t-98 535.5q0 289 98 533t308 508h112q-219 -282 -317 -519.5t-98 -521.5q0 -286 96.5 -522t318.5 -526h-112z" />
    <glyph glyph-name="parenright" unicode=")" horiz-adv-x="616" 
d="M117 1780q210 -265 307.5 -513t97.5 -536q0 -289 -97.5 -532.5t-307.5 -507.5h-113q219 282 317.5 519t98.5 521q0 286 -97 522.5t-319 526.5h113z" />
    <glyph glyph-name="asterisk" unicode="*" horiz-adv-x="792" 
d="M354 1708h82v-240l191 101l41 -70l-187 -98l187 -98l-41 -70l-191 100v-239h-82v239l-190 -100l-41 70l186 98l-186 98l41 70l190 -101v240z" />
    <glyph glyph-name="plus" unicode="+" horiz-adv-x="1746" 
d="M117 805v92h706v573h101v-573h704v-92h-704v-578h-101v578h-706z" />
    <glyph glyph-name="comma" unicode="," horiz-adv-x="536" 
d="M143 -125q72 19 129.5 61.5t79.5 104.5q-24 -32 -48.5 -46.5t-63.5 -14.5q-59 0 -98.5 41.5t-39.5 119.5q0 74 46.5 120t119.5 46q80 0 123 -53.5t43 -144.5q0 -111 -78.5 -210t-212.5 -167v143z" />
    <glyph glyph-name="hyphen" unicode="-" horiz-adv-x="1705" 
d="M96 721h1512v-90h-1512v90z" />
    <glyph glyph-name="period" unicode="." horiz-adv-x="530" 
d="M266 -20q-71 0 -118.5 44.5t-47.5 116.5q0 75 47.5 121.5t118.5 46.5q69 0 116.5 -46.5t47.5 -121.5q0 -72 -47.5 -116.5t-116.5 -44.5z" />
    <glyph glyph-name="slash" unicode="/" horiz-adv-x="1341" 
d="M1311 1704l-1166 -1704h-114l1165 1704h115z" />
    <glyph glyph-name="zero" unicode="0" horiz-adv-x="1710" 
d="M856 -20q-354 0 -546.5 212t-192.5 590v146q0 374 193 585t546 211q350 0 541.5 -211.5t191.5 -586.5v-146q0 -376 -191 -588t-542 -212zM410 760q0 -169 45 -279l708 877q-109 112 -307 112q-222 0 -334 -136t-112 -390v-184zM547 340q113 -107 309 -107
q219 0 329.5 136.5t110.5 394.5v182q0 155 -43 268z" />
    <glyph glyph-name="one" unicode="1" horiz-adv-x="1314" 
d="M125 254h438v1141q-181 -131 -444 -131v264q142 0 257 38t206 138h268v-1450h440v-254h-1165v254z" />
    <glyph glyph-name="two" unicode="2" horiz-adv-x="1667" 
d="M125 272q0 95 14.5 172t50.5 149t95 126t151 96.5t215 67.5l252 55q72 15 122 30t96 37.5t73 51t43 69.5t16 95v12q0 122 -95.5 179.5t-293.5 57.5q-228 0 -328 -80.5t-100 -254.5v-45h-295v36q0 291 176.5 444.5t542.5 153.5q336 0 511 -129.5t175 -384.5
q0 -409 -483 -501l-268 -62q-74 -15 -130.5 -33t-96.5 -37.5t-67.5 -46.5t-44 -53t-25 -64t-11 -72.5t-2.5 -86.5h1128v-254h-1421v272z" />
    <glyph glyph-name="three" unicode="3" horiz-adv-x="1642" 
d="M813 -20q-365 0 -536.5 131t-178.5 421v21h291v-31q7 -163 107 -226t315 -63q227 0 321.5 57t94.5 183v41q0 127 -90.5 176t-313.5 49h-243v254h243q205 0 293 49.5t88 165.5v37q0 117 -95.5 171t-295.5 54q-92 0 -158.5 -12t-120 -41.5t-81.5 -84t-31 -134.5v-27h-291
v19q7 278 175.5 406t504.5 128q182 0 315.5 -35t213 -100.5t117.5 -151.5t38 -194v-12q5 -139 -57 -235.5t-189 -127.5q136 -33 202.5 -132.5t66.5 -250.5v-12q0 -248 -173 -370.5t-532 -122.5z" />
    <glyph glyph-name="four" unicode="4" horiz-adv-x="1613" 
d="M1309 1704v-1131h219v-254h-219v-319h-287v319h-956v265l958 1120h285zM352 573h670v760z" />
    <glyph glyph-name="five" unicode="5" horiz-adv-x="1642" 
d="M924 1143q131 0 241.5 -33.5t195 -98.5t132 -169.5t47.5 -237.5v-39q0 -585 -694 -585q-343 0 -533 136t-190 394v31h295v-45q0 -91 55.5 -151t147 -86t217.5 -26q200 0 303.5 71t103.5 224v64q0 303 -385 303q-299 0 -442 -188h-277l66 997h1257v-254h-999l-39 -479
q180 172 498 172z" />
    <glyph glyph-name="six" unicode="6" horiz-adv-x="1671" 
d="M844 -20q-364 0 -537.5 159.5t-173.5 491.5v346q0 368 183 557.5t552 189.5q306 0 470 -130t167 -353l2 -20h-293v20q-3 107 -92 164t-252 57q-214 0 -329 -92.5t-115 -275.5v-133q158 198 506 198q286 0 455 -146.5t169 -402.5v-47q0 -289 -179 -436t-533 -147zM426 541
q0 -160 101 -234t315 -74t318 74t104 228v67q0 159 -99 230t-307 71q-432 0 -432 -295v-67z" />
    <glyph glyph-name="seven" unicode="7" horiz-adv-x="1429" 
d="M33 1450v254h1339v-254q-103 -69 -190 -145t-152 -151t-116.5 -159.5t-87 -161.5t-61.5 -166t-40.5 -164.5t-23 -166t-11 -161t-2.5 -157.5v-18h-291v18q0 111 4.5 203.5t20.5 212t43 220t75.5 215t115 211.5t165 194t221.5 176h-1009z" />
    <glyph glyph-name="eight" unicode="8" horiz-adv-x="1662" 
d="M831 -20q-360 0 -536 125t-176 362v18q0 166 87.5 275.5t231.5 146.5q-124 33 -202 126.5t-78 234.5v14q0 210 174.5 326t505.5 116q328 0 497.5 -116t169.5 -328v-14q0 -141 -78 -233.5t-202 -125.5q145 -37 232 -145.5t87 -276.5v-20q0 -235 -176.5 -360t-536.5 -125z
M412 477q0 -135 99.5 -196.5t319.5 -61.5q219 0 319.5 62t100.5 198v47q0 132 -101.5 190t-318.5 58q-216 0 -317.5 -58t-101.5 -190v-49zM451 1233q0 -111 95.5 -161t284.5 -50t285 50.5t96 162.5v35q0 113 -93 164t-288 51q-193 0 -286.5 -51.5t-93.5 -163.5v-37z" />
    <glyph glyph-name="nine" unicode="9" horiz-adv-x="1671" 
d="M827 1724q364 0 537.5 -159.5t173.5 -491.5v-346q0 -368 -183 -557.5t-552 -189.5q-306 0 -470 130t-167 353l-2 20h293v-20q3 -107 92 -164t252 -57q214 0 329 92.5t115 275.5v133q-158 -198 -506 -198q-286 0 -455 146.5t-169 402.5v47q0 289 179 436t533 147z
M408 1102q0 -159 99 -230t306 -71q432 0 432 295v67q0 160 -101 233.5t-315 73.5t-317.5 -73.5t-103.5 -227.5v-67z" />
    <glyph glyph-name="colon" unicode=":" horiz-adv-x="610" 
d="M305 838q-71 0 -118.5 44.5t-47.5 116.5q0 75 47.5 121.5t118.5 46.5q69 0 116.5 -46.5t47.5 -121.5q0 -72 -47.5 -116.5t-116.5 -44.5zM139 141q0 75 47.5 121.5t118.5 46.5q69 0 116.5 -46.5t47.5 -121.5q0 -72 -47.5 -116.5t-116.5 -44.5q-71 0 -118.5 44.5
t-47.5 116.5z" />
    <glyph glyph-name="semicolon" unicode=";" horiz-adv-x="608" 
d="M305 838q-71 0 -118.5 44.5t-47.5 116.5q0 75 47.5 121.5t118.5 46.5q69 0 116.5 -46.5t47.5 -121.5q0 -72 -47.5 -116.5t-116.5 -44.5zM137 141q0 74 46.5 120t119.5 46q80 0 123 -53.5t43 -144.5q0 -111 -78.5 -210t-212.5 -167v143q72 19 129.5 61.5t79.5 104.5
q-23 -31 -48.5 -46t-64.5 -15q-59 0 -98 41.5t-39 119.5z" />
    <glyph glyph-name="less" unicode="&#x3c;" horiz-adv-x="1583" 
d="M92 893l1331 326v-99l-1159 -268l1159 -268v-99l-1331 326v82z" />
    <glyph glyph-name="equal" unicode="=" horiz-adv-x="1755" 
d="M121 1049h1511v-91h-1511v91zM121 655v90h1511v-90h-1511z" />
    <glyph glyph-name="greater" unicode="&#x3e;" horiz-adv-x="1583" 
d="M1491 811l-1331 -326v99l1159 268l-1159 268v99l1331 -326v-82z" />
    <glyph glyph-name="question" unicode="?" horiz-adv-x="1308" 
d="M653 1724q135 0 240 -25t172 -67.5t111 -102.5t61.5 -125t17.5 -140q0 -92 -29 -166t-75 -123.5t-101.5 -92t-111 -81.5t-101.5 -80.5t-75 -100.5t-29 -131v-22h-254v25q0 83 16.5 152.5t44.5 118t64.5 89.5t76.5 71.5t80 58.5t76.5 56.5t64.5 59.5t44.5 72.5t16.5 91.5
q0 225 -308 225q-168 0 -242.5 -78t-74.5 -225v-43h-293v28q0 125 35.5 225t108 174.5t190.5 115t274 40.5zM440 141q0 75 47.5 121.5t118.5 46.5q69 0 116.5 -46.5t47.5 -121.5q0 -72 -47.5 -116.5t-116.5 -44.5q-71 0 -118.5 44.5t-47.5 116.5z" />
    <glyph glyph-name="at" unicode="@" horiz-adv-x="1853" 
d="M975 -193q-261 0 -459.5 101.5t-309 295t-110.5 453.5q0 203 60.5 367t170 274t262 169t335.5 59q387 0 604 -213.5t217 -620.5q0 -255 -79 -389.5t-232 -134.5q-91 0 -160.5 48.5t-91.5 139.5q-100 -192 -328 -192q-194 0 -317 136t-123 368t122.5 366.5t315.5 134.5
q106 0 188.5 -45.5t133.5 -132.5v158h176v-713q0 -96 26 -138t82 -42q91 0 137.5 113.5t46.5 322.5q0 368 -186.5 554t-531.5 186q-161 0 -294.5 -52t-229 -149.5t-148.5 -244.5t-53 -331q0 -233 97 -404.5t270.5 -261t402.5 -89.5q138 0 286 24t230 60v-97
q-88 -35 -229 -57.5t-281 -22.5zM592 668q0 -165 78 -255.5t223 -90.5q281 0 281 346q0 168 -71 256t-210 88q-146 0 -223.5 -89.5t-77.5 -254.5z" />
    <glyph glyph-name="A" unicode="A" horiz-adv-x="1634" 
d="M14 0l609 1704h387l612 -1704h-307l-103 299h-790l-103 -299h-305zM508 553h616l-293 850l-16 43l-16 -43z" />
    <glyph glyph-name="B" unicode="B" horiz-adv-x="1722" 
d="M176 0v1704h891q240 0 368 -109.5t128 -322.5v-10q0 -285 -203 -367q114 -40 185 -145t71 -254v-11q0 -485 -524 -485h-916zM465 256h602q129 0 190.5 54.5t61.5 178.5v33q0 121 -63.5 174.5t-190.5 53.5h-600v-494zM465 1008h569q52 0 91.5 9.5t72.5 32t50.5 66
t17.5 105.5v28q0 114 -57 156.5t-171 42.5h-573v-440z" />
    <glyph glyph-name="C" unicode="C" horiz-adv-x="1779" 
d="M911 -20q-194 0 -349 61.5t-255 170.5t-152.5 254.5t-52.5 315.5v146q0 168 53 312t153 252.5t255.5 170t349.5 61.5q173 0 316 -51t238 -140.5t150.5 -207.5t65.5 -254l3 -74h-300l-2 93q-5 77 -38.5 145t-91 120t-146 82.5t-195.5 30.5q-130 0 -230 -41.5t-161 -114
t-92 -166t-31 -202.5v-184q0 -111 31 -204.5t92 -165.5t161 -113t230 -41q109 0 197.5 30.5t145.5 83.5t90 121t38 145l2 95h300l-3 -74q-10 -138 -65.5 -256.5t-150.5 -208.5t-238 -141t-318 -51z" />
    <glyph glyph-name="D" unicode="D" horiz-adv-x="1759" 
d="M176 0v1704h735q360 0 549 -190.5t189 -585.5v-152q0 -392 -190 -584t-548 -192h-735zM465 252h448q227 0 334 124.5t107 387.5v176q0 263 -107.5 387.5t-335.5 124.5h-446v-1200z" />
    <glyph glyph-name="E" unicode="E" horiz-adv-x="1505" 
d="M176 0v1704h1210v-256h-921v-469h862v-254h-862v-469h921v-256h-1210z" />
    <glyph glyph-name="F" unicode="F" horiz-adv-x="1497" 
d="M176 0v1704h1247v-256h-958v-530h899v-254h-899v-664h-289z" />
    <glyph glyph-name="G" unicode="G" horiz-adv-x="1812" 
d="M879 -20q-185 0 -333.5 62t-244.5 170t-146.5 252.5t-50.5 313.5v148q0 135 32 254.5t97.5 219t159.5 172t225 112.5t287 40q165 0 305.5 -48.5t238 -132.5t156.5 -198t70 -245v-58h-299l-2 76q-13 164 -140 257t-325 93q-108 0 -195 -27.5t-145 -74.5t-97 -114t-56 -143
t-17 -163v-184q0 -89 17.5 -167t56 -144.5t94.5 -114t137 -74t181 -26.5q209 0 333.5 99t149.5 279v43h-596v238h903v-895h-182l-39 262q-181 -282 -575 -282z" />
    <glyph glyph-name="H" unicode="H" horiz-adv-x="1763" 
d="M1298 0v725h-833v-725h-289v1704h289v-725h833v725h289v-1704h-289z" />
    <glyph glyph-name="I" unicode="I" horiz-adv-x="1337" 
d="M102 0v260h422v1184h-422v260h1133v-260h-422v-1184h422v-260h-1133z" />
    <glyph glyph-name="J" unicode="J" horiz-adv-x="1554" 
d="M725 -20q-353 0 -514.5 165.5t-161.5 511.5v23h297v-43q0 -81 10.5 -142t36.5 -112t68.5 -83t108.5 -49.5t155 -17.5q108 0 182.5 25t117 76.5t61 120.5t18.5 166v1083h291v-1065q0 -333 -161.5 -496t-508.5 -163z" />
    <glyph glyph-name="K" unicode="K" horiz-adv-x="1601" 
d="M1225 0l-672 721h-88v-721h-289v1704h289v-721h88l672 721h372l-817 -852l817 -852h-372z" />
    <glyph glyph-name="L" unicode="L" horiz-adv-x="1419" 
d="M176 0v1704h289v-1448h919v-256h-1208z" />
    <glyph glyph-name="M" unicode="M" horiz-adv-x="2064" 
d="M176 0v1704h326l530 -1223l533 1223h323v-1704h-276v1176l-512 -1176h-135l-512 1176v-1176h-277z" />
    <glyph glyph-name="N" unicode="N" horiz-adv-x="1783" 
d="M176 0v1704h283l866 -1251v1251h283v-1704h-283l-868 1251v-1251h-281z" />
    <glyph glyph-name="O" unicode="O" horiz-adv-x="1804" 
d="M903 -20q-189 0 -342 62t-252.5 171t-153 254t-53.5 313v146q0 167 53.5 312t153 253.5t252.5 170.5t342 62q188 0 340.5 -62t251.5 -170.5t152 -253.5t53 -312v-146q0 -168 -53.5 -313.5t-152.5 -254t-251.5 -170.5t-339.5 -62zM399 762q0 -110 30 -203.5t90 -166.5
t158.5 -114.5t225.5 -41.5t225 41.5t157.5 114.5t89.5 166.5t30 203.5v182q0 86 -18.5 163t-58.5 143.5t-98 114.5t-141.5 75.5t-185.5 27.5q-127 0 -225.5 -41.5t-158.5 -114.5t-90 -165.5t-30 -200.5v-184z" />
    <glyph glyph-name="P" unicode="P" horiz-adv-x="1683" 
d="M176 0v1704h836q606 0 606 -563v-13q0 -286 -149.5 -425.5t-456.5 -139.5h-547v-563h-289zM465 813h541q167 0 241 70t74 223v61q0 150 -73.5 217.5t-241.5 67.5h-541v-639z" />
    <glyph glyph-name="Q" unicode="Q" horiz-adv-x="1804" 
d="M903 236q127 0 225 41.5t157.5 114.5t89.5 166.5t30 203.5v182q0 86 -18.5 163t-58.5 143.5t-98 114.5t-141.5 75.5t-185.5 27.5q-127 0 -225.5 -41.5t-158.5 -114.5t-90 -165.5t-30 -200.5v-184q0 -110 30 -203.5t90 -166.5t158.5 -114.5t225.5 -41.5zM102 780v146
q0 167 53.5 312t153 253.5t252.5 170.5t342 62q188 0 340.5 -62t251.5 -170.5t152 -253.5t53 -312v-146q0 -154 -45 -289.5t-128.5 -241t-211.5 -174t-287 -87.5q246 -27 483 -113v-227q-226 83 -403.5 118t-411.5 46v188h2q-189 40 -325 153t-203.5 273.5t-67.5 353.5z" />
    <glyph glyph-name="R" unicode="R" horiz-adv-x="1724" 
d="M1317 0q-25 29 -25 152v256q0 131 -74.5 186t-213.5 55h-539v-649h-289v1704h834q573 0 573 -508v-6q0 -340 -264 -412q128 -33 196 -130.5t68 -241.5v-254q0 -121 25 -152h-291zM465 899h539q143 0 212.5 56.5t69.5 205.5v45q0 134 -71.5 190t-223.5 56h-526v-553z" />
    <glyph glyph-name="S" unicode="S" horiz-adv-x="1626" 
d="M838 -20q-382 0 -566 148t-184 441v39h295v-57q0 -172 109 -248t352 -76q202 0 295.5 55t93.5 175v18q-1 115 -72.5 166t-257.5 88l-338 78q-428 97 -428 446q0 230 170 350.5t494 120.5q338 0 511 -131.5t173 -382.5v-41h-293v50q0 136 -91.5 197t-297.5 61
q-187 0 -278 -50t-91 -153v-12q0 -95 75.5 -147.5t225.5 -82.5l342 -76q110 -23 189.5 -57.5t140.5 -88.5t91 -134t30 -187q0 -267 -164 -388t-526 -121z" />
    <glyph glyph-name="T" unicode="T" horiz-adv-x="1511" 
d="M610 0v1448h-573v256h1436v-256h-574v-1448h-289z" />
    <glyph glyph-name="U" unicode="U" horiz-adv-x="1751" 
d="M877 -20q-380 0 -547.5 157t-167.5 510v1057h289v-1073q0 -220 101.5 -309t324.5 -89q222 0 322.5 89t100.5 309v1073h289v-1057q0 -355 -167.5 -511t-544.5 -156z" />
    <glyph glyph-name="V" unicode="V" horiz-adv-x="1634" 
d="M625 0l-611 1704h305l484 -1403l16 -43l17 43l481 1403h305l-610 -1704h-387z" />
    <glyph glyph-name="W" unicode="W" horiz-adv-x="2539" 
d="M508 0l-475 1704h299l368 -1385l383 1385h373l385 -1382l2 -5l365 1387h299l-473 -1704h-381l-377 1366l-4 18l-6 -18l-377 -1366h-381z" />
    <glyph glyph-name="X" unicode="X" horiz-adv-x="1597" 
d="M16 0l615 854l-598 850h348l420 -649l420 649h348l-602 -850l612 -854h-348l-434 653l-432 -653h-349z" />
    <glyph glyph-name="Y" unicode="Y" horiz-adv-x="1587" 
d="M651 0v596l-655 1108h332l467 -821l467 821h329l-653 -1108v-596h-287z" />
    <glyph glyph-name="Z" unicode="Z" horiz-adv-x="1521" 
d="M96 0v258l965 1190h-965v256h1329v-258l-966 -1190h966v-256h-1329z" />
    <glyph glyph-name="bracketleft" unicode="[" horiz-adv-x="649" 
d="M618 1780v-90h-348v-1913h348v-90h-450v2093h450z" />
    <glyph glyph-name="backslash" unicode="\" horiz-adv-x="1341" 
d="M31 1704h114l1166 -1704h-115z" />
    <glyph glyph-name="bracketright" unicode="]" horiz-adv-x="649" 
d="M31 -313v90h348v1913h-348v90h450v-2093h-450z" />
    <glyph glyph-name="asciicircum" unicode="^" horiz-adv-x="1077" 
d="M883 1090l-344 555l-344 -555h-111l381 614h147l381 -614h-110z" />
    <glyph glyph-name="underscore" unicode="_" horiz-adv-x="1662" 
d="M0 -156h1663v-90h-1663v90z" />
    <glyph glyph-name="grave" unicode="`" horiz-adv-x="1419" 
d="M1214 1532l-20 -80l-989 152l20 79z" />
    <glyph glyph-name="a" unicode="a" horiz-adv-x="1454" 
d="M1047 0v223q-81 -124 -220 -183.5t-309 -59.5q-203 0 -316.5 88t-113.5 266q0 74 26 134t67 101t102.5 74t121.5 52.5t134 35.5l170 37q54 12 80.5 18t69 17.5t63 20.5t47.5 23t39 28.5t21 34.5t9 44v4q0 69 -68.5 113.5t-217.5 44.5q-338 0 -338 -242v-49h-279v37
q0 233 156 361.5t457 128.5q156 0 268.5 -32.5t176.5 -93.5t93 -139t29 -180v-907h-268zM367 358q0 -79 55 -115t172 -36q175 0 298 90t146 246v172q-13 -29 -38.5 -51.5t-66 -38.5t-79 -27t-96.5 -26q-9 -2 -13 -3l-153 -34q-118 -28 -171.5 -67t-53.5 -110z" />
    <glyph glyph-name="b" unicode="b" horiz-adv-x="1531" 
d="M152 0v1704h274v-553q56 84 162.5 142.5t261.5 58.5q271 0 430.5 -171.5t159.5 -445.5v-145q0 -269 -160 -439.5t-426 -170.5q-155 0 -261 56.5t-167 139.5v-176h-274zM426 600q0 -167 94 -274t273 -107q92 0 162.5 30t113.5 83.5t64.5 121.5t21.5 148v127q0 79 -22 147
t-65 121.5t-114 84t-163 30.5q-177 0 -271 -107.5t-94 -275.5v-129z" />
    <glyph glyph-name="c" unicode="c" horiz-adv-x="1460" 
d="M1090 840q-5 53 -27 100.5t-62.5 86.5t-106.5 62t-149 23q-190 0 -279 -102.5t-89 -286.5v-121q0 -181 89 -282t279 -101q89 0 156.5 23t106 63t58.5 86t24 101l6 75h282l-6 -63q-9 -108 -51.5 -200.5t-117.5 -166t-193.5 -115.5t-268.5 -42q-320 0 -485.5 171
t-165.5 470v94q0 297 166 467t485 170q149 0 268 -42t195.5 -115.5t119 -166.5t50.5 -201l4 -65h-282z" />
    <glyph glyph-name="d" unicode="d" horiz-adv-x="1529" 
d="M1104 1704h276v-1704h-276v180q-56 -83 -162.5 -141.5t-261.5 -58.5q-271 0 -430.5 171t-159.5 445v145q0 269 160 440t426 171q155 0 261 -57t167 -140v549zM375 602q0 -79 22 -147t65 -121.5t114 -84t163 -30.5q177 0 271 107.5t94 275.5v129q0 167 -94 274t-273 107
q-92 0 -162.5 -30t-113.5 -83.5t-64.5 -121.5t-21.5 -148v-127z" />
    <glyph glyph-name="e" unicode="e" horiz-adv-x="1472" 
d="M90 621v94q0 297 168 467t494 170q299 0 462.5 -165t163.5 -474v-111h-999q0 -180 91.5 -281.5t283.5 -101.5q142 0 217 55.5t90 141.5l2 30h305l-2 -16q-24 -204 -180.5 -327t-433.5 -123q-327 0 -494.5 170.5t-167.5 470.5zM383 803h707v37q-19 133 -108.5 202.5
t-240.5 69.5q-162 0 -250 -81t-108 -228z" />
    <glyph glyph-name="f" unicode="f" horiz-adv-x="1155" 
d="M27 1331h372v68q0 63 7.5 108.5t29 88.5t58.5 69.5t99 42.5t148 16q159 0 389 -20v-209q-47 6 -241 6q-130 0 -171.5 -25.5t-41.5 -95.5v-108q37 41 121 50t333 9v-241h-454v-1090h-277v1090h-372v241z" />
    <glyph glyph-name="g" unicode="g" horiz-adv-x="1529" 
d="M1104 33v147q-56 -83 -162.5 -141.5t-261.5 -58.5q-271 0 -430.5 171t-159.5 445v145q0 269 160 440t426 171q155 0 261 -57t167 -140v176h276v-1325q0 -122 -22 -208t-73.5 -149t-140 -93.5t-218.5 -30.5h-760v239h717q130 0 175.5 60t45.5 209zM375 602q0 -79 22 -147
t65 -121.5t114 -84t163 -30.5q177 0 271 107.5t94 275.5v129q0 167 -94 274t-273 107q-92 0 -162.5 -30t-113.5 -83.5t-64.5 -121.5t-21.5 -148v-127z" />
    <glyph glyph-name="h" unicode="h" horiz-adv-x="1492" 
d="M428 1704v-592q154 240 444 240q225 0 354.5 -145.5t129.5 -397.5v-809h-277v778q0 336 -309 336q-69 0 -124.5 -17t-92 -46t-62 -64t-39 -76.5t-19 -77t-5.5 -71.5v-762h-276v1704h276z" />
    <glyph glyph-name="i" unicode="i" horiz-adv-x="577" 
d="M152 1331h276v-1331h-276v1331zM117 1585q0 65 44 102t128 37q86 0 130 -37t44 -102q0 -60 -45 -97.5t-129 -37.5q-83 0 -127.5 37.5t-44.5 97.5z" />
    <glyph glyph-name="j" unicode="j" horiz-adv-x="577" 
d="M152 0v1331h274v-1370q0 -121 -27.5 -207t-81.5 -135.5t-125.5 -71.5t-168.5 -22h-267v239h191q114 0 159.5 51t45.5 185zM115 1585q0 65 44 102t128 37q86 0 130 -37t44 -102q0 -60 -45 -97.5t-129 -37.5q-83 0 -127.5 37.5t-44.5 97.5z" />
    <glyph glyph-name="k" unicode="k" horiz-adv-x="1421" 
d="M152 1704h276v-913h121l520 540h352l-663 -663l663 -668h-352l-530 551h-111v-551h-276v1704z" />
    <glyph glyph-name="l" unicode="l" horiz-adv-x="577" 
d="M152 1704h276v-1704h-276v1704z" />
    <glyph glyph-name="m" unicode="m" horiz-adv-x="2240" 
d="M1827 797q0 317 -266 317q-72 0 -127.5 -23t-86.5 -57.5t-50 -80.5t-25 -83.5t-6 -76.5v-793h-277v797q0 317 -266 317q-72 0 -127 -23t-86 -57.5t-50.5 -80t-25.5 -84t-6 -76.5v-793h-276v1331h276v-166q122 187 371 187q293 0 407 -234q139 234 424 234
q229 0 351 -139.5t122 -364.5v-848h-276v797z" />
    <glyph glyph-name="n" unicode="n" 
d="M428 1331v-219q154 240 444 240q225 0 354.5 -145.5t129.5 -397.5v-809h-277v778q0 336 -309 336q-69 0 -124.5 -17t-92 -46t-62 -64t-39 -76.5t-19 -77t-5.5 -71.5v-762h-276v1331h276z" />
    <glyph glyph-name="o" unicode="o" horiz-adv-x="1460" 
d="M731 -20q-314 0 -476.5 171t-162.5 470v90q0 299 162.5 470t476.5 171q210 0 354.5 -80t213.5 -222t69 -339v-90q0 -197 -69 -339t-213.5 -222t-354.5 -80zM377 606q0 -387 354 -387t354 387v119q0 387 -354 387t-354 -387v-119z" />
    <glyph glyph-name="p" unicode="p" horiz-adv-x="1531" 
d="M428 1331v-178q58 85 163 142t259 57q271 0 430.5 -171.5t159.5 -445.5v-145q0 -269 -160 -439.5t-426 -170.5q-152 0 -258.5 56t-167.5 136v-647h-276v1806h276zM428 553q13 -149 106 -241.5t259 -92.5q92 0 162.5 30t113.5 83.5t64.5 121.5t21.5 148v127q0 79 -22 147
t-65 121.5t-114 84t-163 30.5q-164 0 -257 -93t-106 -243v-223z" />
    <glyph glyph-name="q" unicode="q" horiz-adv-x="1529" 
d="M1104 -475v655q-56 -83 -162.5 -141.5t-261.5 -58.5q-271 0 -430.5 171t-159.5 445v145q0 269 160 440t426 171q155 0 261 -57t167 -140v176h276v-1806h-276zM375 602q0 -79 22 -147t65 -121.5t114 -84t163 -30.5q177 0 271 107.5t94 275.5v129q0 167 -94 274t-273 107
q-92 0 -162.5 -30t-113.5 -83.5t-64.5 -121.5t-21.5 -148v-127z" />
    <glyph glyph-name="r" unicode="r" horiz-adv-x="1312" 
d="M428 1331v-221q46 104 157 173t253 69q193 0 307.5 -116t114.5 -359v-154h-283v131q0 130 -54.5 195t-177.5 65q-69 0 -125 -20t-91 -52t-58.5 -74t-33 -84t-9.5 -85v-799h-276v1331h276z" />
    <glyph glyph-name="s" unicode="s" horiz-adv-x="1415" 
d="M971 760q105 -22 176.5 -57.5t110.5 -84.5t55 -102.5t16 -122.5q0 -74 -17 -134t-59.5 -113t-110 -89t-172.5 -56.5t-243 -20.5q-180 0 -307 31.5t-201.5 94.5t-107.5 148t-33 201v34h287v-32q0 -134 86 -188t274 -54q174 0 246.5 40.5t72.5 121.5q0 66 -51.5 106
t-167.5 68l-311 63q-113 19 -191.5 53.5t-121.5 81.5t-61.5 99.5t-18.5 118.5q0 82 29 149t92.5 121.5t176.5 84.5t269 30q137 0 242 -22t173 -60.5t111.5 -94.5t61.5 -119.5t18 -140.5v-30h-286v28q0 113 -77.5 158t-242.5 45q-81 0 -141.5 -12.5t-99.5 -43.5t-39 -79
q0 -54 45.5 -87t152.5 -56z" />
    <glyph glyph-name="t" unicode="t" horiz-adv-x="1150" 
d="M1065 1331v-239h-424v-641q0 -124 28 -167.5t111 -43.5h285v-240h-346q-104 0 -174 25t-108.5 78t-54 123t-15.5 171v695h-347v239h156q127 4 176.5 94t46.5 279h275q0 -154 -33.5 -254t-103.5 -119h528z" />
    <glyph glyph-name="u" unicode="u" 
d="M1065 0v223q-152 -243 -447 -243q-225 0 -354 145t-129 397v809h277v-778q0 -336 309 -336q69 0 124.5 17t92 46t62 64t39 76.5t19 77t5.5 71.5l2 -34v796h276v-1331h-276z" />
    <glyph glyph-name="v" unicode="v" horiz-adv-x="1376" 
d="M14 1331h287l387 -1124l385 1124h289l-479 -1331h-389z" />
    <glyph glyph-name="w" unicode="w" horiz-adv-x="2109" 
d="M37 1331h278l267 -1116l280 1116h387l281 -1116l266 1116h279l-355 -1331h-366l-299 1133l-299 -1133h-365z" />
    <glyph glyph-name="x" unicode="x" horiz-adv-x="1384" 
d="M-6 0l530 684l-489 647h346l319 -442l320 442h330l-488 -649l527 -682h-347l-358 477l-358 -477h-332z" />
    <glyph glyph-name="y" unicode="y" 
d="M1063 -8v227q-154 -239 -445 -239q-225 0 -354 145t-129 397v809h277v-778q0 -336 309 -336q69 0 124.5 17t92 46t62 64t39 76.5t19 77t5.5 71.5v762h278v-1341q0 -465 -415 -465h-756v239h715q92 0 135 51.5t43 176.5z" />
    <glyph glyph-name="z" unicode="z" horiz-adv-x="1349" 
d="M90 1331h1170v-239l-828 -852h838v-240h-1190v240l829 852h-819v239z" />
    <glyph glyph-name="braceleft" unicode="{" horiz-adv-x="616" 
d="M96 846q80 0 80 184v387q0 363 295 363h113v-97h-111q-95 0 -144.5 -67.5t-49.5 -190.5v-389q0 -112 -19 -165.5t-72 -88.5v-94q53 -35 72 -88.5t19 -165.5v-387q0 -124 49.5 -192t144.5 -68h111v-96h-113q-295 0 -295 364v385q0 92 -21 138.5t-59 46.5v221z" />
    <glyph glyph-name="bar" unicode="|" horiz-adv-x="462" 
d="M180 -20v1728h103v-1728h-103z" />
    <glyph glyph-name="braceright" unicode="}" horiz-adv-x="616" 
d="M520 625q-38 0 -59 -46.5t-21 -138.5v-387q0 -362 -295 -362h-112v96h110q96 0 145.5 67.5t49.5 190.5v389q0 112 18.5 165.5t71.5 88.5v94q-53 35 -71.5 88.5t-18.5 165.5v387q0 123 -50 191.5t-145 68.5h-110v97h112q295 0 295 -365v-385q0 -184 80 -184v-221z" />
    <glyph glyph-name="asciitilde" unicode="~" horiz-adv-x="1804" 
d="M133 702q0 72 22.5 129t59.5 93t88 59.5t103 33t110 9.5q93 0 180 -26t156.5 -62.5t136.5 -73t146.5 -62.5t160.5 -26q125 0 200 57t75 164h106q0 -72 -22.5 -129t-59.5 -93t-88 -59t-103 -32.5t-110 -9.5q-93 0 -180 26t-156.5 62.5t-136.5 73t-146.5 62.5t-160.5 26
q-125 0 -199.5 -57.5t-74.5 -164.5h-107z" />
    <glyph glyph-name="uni00A0" unicode="&#xa0;" horiz-adv-x="591" 
 />
    <glyph glyph-name="exclamdown" unicode="&#xa1;" horiz-adv-x="581" 
d="M428 -373h-276l18 1192h242zM127 1190q0 72 47.5 117t116.5 45q71 0 118.5 -45t47.5 -117q0 -75 -47.5 -121.5t-118.5 -46.5q-69 0 -116.5 46.5t-47.5 121.5z" />
    <glyph glyph-name="cent" unicode="&#xa2;" horiz-adv-x="1536" 
d="M709 -143v311q-289 18 -439.5 187t-150.5 452v94q0 280 150 448.5t440 186.5v311h122v-311q137 -7 246.5 -52t180 -116.5t110 -161t47.5 -192.5l4 -66h-276l-6 76q-10 106 -87 182.5t-219 89.5v-888q78 6 136.5 30.5t93 63.5t53 83t23.5 95l6 74h276l-6 -64
q-9 -103 -48 -191.5t-108.5 -161t-178.5 -117.5t-247 -52v-311h-122zM399 793q0 -165 75.5 -265t234.5 -118v884q-159 -20 -234.5 -120.5t-75.5 -266.5v-114z" />
    <glyph glyph-name="sterling" unicode="&#xa3;" horiz-adv-x="1554" 
d="M115 193q103 80 156 175t53 216q0 9 -1 27t-1 26h-207v119h178q-7 21 -47.5 121.5t-58 178t-17.5 173.5q0 224 167.5 359.5t469.5 135.5q312 0 476.5 -156t164.5 -435v-60h-293v66q0 176 -85 264t-269 88q-173 0 -255.5 -76t-82.5 -213q0 -81 22.5 -155t59 -155.5
t51.5 -135.5h547v-119h-529q2 -12 2 -37q0 -203 -167 -367h999v-233h-1333v193z" />
    <glyph glyph-name="currency" unicode="&#xa4;" horiz-adv-x="1150" 
d="M575 418q-138 0 -241 61l-139 -160l-72 62l137 162q-94 105 -94 276q0 172 96 279l-139 159l72 62l139 -160q105 62 241 62q145 0 240 -62l141 160l72 -62l-137 -161q94 -105 94 -277q0 -170 -94 -278l137 -160l-72 -62l-141 160q-94 -61 -240 -61zM268 819
q0 -150 79.5 -230.5t227.5 -80.5t228 80.5t80 230.5t-80 230.5t-228 80.5t-227.5 -80.5t-79.5 -230.5z" />
    <glyph glyph-name="yen" unicode="&#xa5;" horiz-adv-x="1662" 
d="M225 569v82h432l-622 1053h332l467 -821l466 821h330l-620 -1053h430v-82h-463v-98h463v-82h-463v-389h-287v389h-465v82h465v98h-465z" />
    <glyph glyph-name="brokenbar" unicode="&#xa6;" horiz-adv-x="462" 
d="M180 1034v674h103v-674h-103zM180 -20v673h103v-673h-103z" />
    <glyph glyph-name="section" unicode="&#xa7;" horiz-adv-x="1429" 
d="M745 -23q-139 0 -241 20t-166.5 53.5t-104.5 89t-57.5 116t-23.5 143.5h104q5 -71 19.5 -121.5t47.5 -94t86 -69.5t136 -40.5t198 -14.5q451 0 451 226q0 62 -33 109.5t-96 58.5l-750 131q-202 38 -202 219q0 158 145 196q-127 66 -127 215q0 312 549 312
q141 0 243.5 -19.5t167.5 -53t105 -88t57 -115t23 -144.5h-102q-5 71 -19.5 121t-47.5 93.5t-87.5 69t-138 40t-199.5 14.5q-449 0 -449 -221q0 -63 33.5 -110t98.5 -58l749 -133q201 -40 201 -217q0 -161 -144 -199q125 -65 125 -215q0 -314 -551 -314zM219 811
q0 -61 31 -96.5t100 -48.5l627 -109q41 -7 75 -7t57 6t41 15t28.5 23t17.5 25.5t9.5 26t3.5 23t1 17.5q0 66 -30 103.5t-101 50.5l-626 106q-118 22 -176 -15.5t-58 -119.5z" />
    <glyph glyph-name="dieresis" unicode="&#xa8;" horiz-adv-x="1132" 
d="M811 1444q-60 0 -101.5 35.5t-41.5 97.5q0 63 41.5 98t101.5 35q59 0 100 -35t41 -98q0 -62 -41 -97.5t-100 -35.5zM180 1577q0 63 41 98t101 35q59 0 101 -35t42 -98q0 -62 -42 -97.5t-101 -35.5q-60 0 -101 35.5t-41 97.5z" />
    <glyph glyph-name="copyright" unicode="&#xa9;" horiz-adv-x="1902" 
d="M950 -20q-165 0 -302.5 45.5t-233.5 126t-162 191t-97.5 239t-31.5 272.5q0 142 31.5 270t98 238t162.5 190.5t233 126t302 45.5t302.5 -45.5t234 -126t163.5 -190.5t98.5 -238t31.5 -270q0 -181 -51 -336.5t-150.5 -277t-261 -191t-367.5 -69.5zM236 854q0 -168 44 -307
t130.5 -242.5t224 -161t315.5 -57.5q177 0 315 57.5t225 161t132 242.5t45 307q0 165 -45 303t-132 241.5t-225 161.5t-315 58q-176 0 -313.5 -58t-224.5 -161.5t-131.5 -241.5t-44.5 -303zM428 854q0 98 19.5 185t62.5 162t105.5 129t153 85t200.5 31q126 0 222.5 -41
t154.5 -112t88.5 -157.5t35.5 -187.5h-180q-4 59 -14 105.5t-32.5 91.5t-56.5 75t-88.5 48t-125.5 18q-365 0 -365 -432q0 -436 361 -436q72 0 127 19t89 49t56.5 75.5t32.5 91.5t14 103h180q-4 -77 -21.5 -146.5t-56 -135t-93.5 -112.5t-139.5 -75.5t-188.5 -28.5
q-137 0 -242.5 46.5t-170 129t-96.5 188.5t-32 232z" />
    <glyph glyph-name="ordfeminine" unicode="&#xaa;" horiz-adv-x="985" 
d="M672 913v129q-97 -141 -314 -141q-122 0 -190 54t-68 159q0 55 22 97t62.5 69t85 44t103.5 30l100 22q39 9 56.5 13t46 12.5t40.5 15t26.5 16.5t20 22.5t5.5 27.5v4q0 39 -40.5 63.5t-125.5 24.5q-195 0 -195 -137v-31h-178v23q0 141 95 217.5t276 76.5q184 0 265 -71
t81 -201v-539h-174zM279 1130q0 -44 31 -63.5t98 -19.5q107 0 183.5 64.5t76.5 174.5v51q-14 -33 -54.5 -51.5t-117.5 -36.5l-90 -20q-67 -16 -97 -37.5t-30 -61.5z" />
    <glyph glyph-name="guillemotleft" unicode="&#xab;" horiz-adv-x="1148" 
d="M598 268l-502 365v86l502 364v-161l-352 -246l352 -246v-162zM489 633v86l502 364v-161l-352 -246l352 -246v-162z" />
    <glyph glyph-name="logicalnot" unicode="&#xac;" horiz-adv-x="1818" 
d="M1559 664v284h-1414v92h1516v-376h-102z" />
    <glyph glyph-name="registered" unicode="&#xae;" horiz-adv-x="1198" 
d="M598 799q-79 0 -144 25t-107 65.5t-70.5 94.5t-41 110t-12.5 114t12.5 114t41 110.5t70.5 95t107 65.5t144 25q80 0 145 -25t107.5 -65.5t71 -95t41 -110.5t12.5 -114q0 -74 -21 -143t-63.5 -130.5t-118 -98.5t-174.5 -37zM109 1208q0 -72 17 -143t55.5 -139t93.5 -119.5
t138.5 -83t184.5 -31.5t185 31.5t140 83t94.5 119.5t55.5 139t17 143t-17 143t-55.5 139t-94.5 119.5t-140 83t-185 31.5t-184.5 -31.5t-138.5 -83t-93.5 -119.5t-55.5 -139t-17 -143zM379 930v563h221q114 0 171.5 -33t57.5 -121q0 -112 -118 -153q61 -15 88.5 -49.5
t27.5 -96.5v-51q0 -48 9 -59h-148q-10 12 -10 59v51q0 45 -19 62.5t-71 17.5h-60v-190h-149zM528 1253h72q48 0 64 12t16 44q0 31 -17.5 42t-62.5 11h-72v-109z" />
    <glyph glyph-name="macron" unicode="&#xaf;" horiz-adv-x="1419" 
d="M205 1528v82h1009v-82h-1009z" />
    <glyph glyph-name="degree" unicode="&#xb0;" horiz-adv-x="823" 
d="M412 1202q-98 0 -147.5 59t-49.5 156t49.5 156t147.5 59t147 -59t49 -156t-49 -156t-147 -59zM113 1417q0 -60 17.5 -114t52.5 -98t94 -69.5t135 -25.5t135 25.5t94 69.5t52.5 98t17.5 114t-17.5 114t-52.5 98t-94 69.5t-135 25.5t-135 -25.5t-94 -69.5t-52.5 -98
t-17.5 -114z" />
    <glyph glyph-name="plusminus" unicode="&#xb1;" horiz-adv-x="1746" 
d="M924 1272v-375h704v-90h-704v-289h704v-90h-1511v90h704v289h-704v90h704v375h103z" />
    <glyph glyph-name="uni00B2" unicode="&#xb2;" horiz-adv-x="878" 
d="M72 879q0 240 254 288l137 23q90 18 127 43.5t37 77.5v6q0 96 -174 96q-103 0 -146 -34t-43 -103v-16h-182v12q0 142 89.5 220.5t279.5 78.5q178 0 268 -67.5t90 -198.5q0 -214 -242 -258l-153 -31q-57 -11 -89.5 -24t-47.5 -33.5t-18 -38.5t-3 -54h553v-157h-737v170z
" />
    <glyph glyph-name="uni00B3" unicode="&#xb3;" horiz-adv-x="862" 
d="M426 698q-191 0 -279 66t-92 217v10h183v-16q4 -72 48 -98.5t138 -26.5q107 0 146.5 24.5t39.5 77.5v21q0 56 -40 76t-140 20h-117v145h117q89 0 128.5 22.5t39.5 72.5v18q0 92 -174 92q-85 0 -125.5 -26.5t-44.5 -89.5v-15h-182v10q9 146 97 209.5t261 63.5
q181 0 265.5 -63.5t84.5 -168.5v-6q0 -68 -34.5 -120t-98.5 -70q69 -13 107.5 -64.5t38.5 -122.5v-6q0 -127 -88.5 -189.5t-278.5 -62.5z" />
    <glyph glyph-name="acute" unicode="&#xb4;" horiz-adv-x="1318" 
d="M223 1485l-18 80l891 151l18 -80z" />
    <glyph glyph-name="paragraph" unicode="&#xb6;" horiz-adv-x="1036" 
d="M754 1704h102v-1704h-102v1704zM47 1333q0 109 24.5 180.5t80 114t134 59.5t197.5 17h103v-1704h-103v963q-119 0 -197.5 17t-134 59.5t-80 114t-24.5 179.5z" />
    <glyph glyph-name="periodcentered" unicode="&#xb7;" horiz-adv-x="571" 
d="M287 522q-71 0 -118.5 45t-47.5 117q0 75 47.5 121.5t118.5 46.5q69 0 116.5 -46.5t47.5 -121.5q0 -72 -47.5 -117t-116.5 -45z" />
    <glyph glyph-name="cedilla" unicode="&#xb8;" horiz-adv-x="788" 
d="M205 -332q140 0 197 13.5t57 58.5q0 25 -13.5 39t-44 18t-66.5 1.5t-95 -9.5l51 211h102l-31 -123q222 21 222 -131q0 -95 -88.5 -132.5t-290.5 -37.5v92z" />
    <glyph glyph-name="uni00B9" unicode="&#xb9;" horiz-adv-x="706" 
d="M74 866h213v502q-98 -45 -215 -45v166q74 0 130.5 14t100.5 58h164v-695h213v-157h-606v157z" />
    <glyph glyph-name="ordmasculine" unicode="&#xba;" horiz-adv-x="958" 
d="M479 901q-190 0 -288.5 103.5t-98.5 281.5v53q0 178 98.5 281.5t288.5 103.5t288.5 -103.5t98.5 -281.5v-53q0 -178 -98.5 -281.5t-288.5 -103.5zM274 1278q0 -223 205 -223t205 223v70q0 223 -205 223t-205 -223v-70z" />
    <glyph glyph-name="guillemotright" unicode="&#xbb;" horiz-adv-x="1136" 
d="M537 268v162l352 246l-352 246v161l501 -364v-86zM158 268v162l352 246l-352 246v161l501 -364v-86z" />
    <glyph glyph-name="onequarter" unicode="&#xbc;" horiz-adv-x="1998" 
d="M92 1010h213v501q-98 -45 -215 -45v166q74 0 131 14t101 58h163v-694h213v-158h-606v158zM334 0l1151 1704h114l-1153 -1704h-112zM1198 145v164l469 543h178v-547h105v-160h-105v-145h-180v145h-467zM1376 305h289v322z" />
    <glyph glyph-name="onehalf" unicode="&#xbd;" horiz-adv-x="2078" 
d="M92 1010h213v501q-98 -45 -215 -45v166q74 0 131 14t101 58h163v-694h213v-158h-606v158zM334 0l1151 1704h114l-1153 -1704h-112zM1272 0v170q0 241 254 289l137 22q90 18 127 43.5t37 77.5v6q0 97 -174 97q-103 0 -146 -34.5t-43 -103.5v-16h-182v12q0 142 89.5 220.5
t279.5 78.5q178 0 268 -67.5t90 -198.5q0 -214 -242 -258l-153 -31q-57 -11 -89.5 -24t-47.5 -33.5t-18 -38t-3 -53.5h553v-158h-737z" />
    <glyph glyph-name="threequarters" unicode="&#xbe;" horiz-adv-x="2140" 
d="M438 842q-191 0 -278.5 65.5t-91.5 216.5v11h182v-17q4 -72 48 -98.5t138 -26.5q107 0 147 25t40 78v20q0 56 -40.5 76t-140.5 20h-116v146h116q89 0 128.5 22t39.5 72v18q0 93 -174 93q-85 0 -125.5 -27t-44.5 -90v-14h-182v10q9 146 96.5 209t261.5 63q182 0 266.5 -63
t84.5 -168v-6q0 -68 -35 -120.5t-99 -70.5q69 -13 107.5 -64t38.5 -122v-6q0 -127 -88.5 -189.5t-278.5 -62.5zM469 0l1153 1704h113l-1153 -1704h-113zM1333 145v164l469 543h178v-547h105v-160h-105v-145h-180v145h-467zM1511 305h289v322z" />
    <glyph glyph-name="questiondown" unicode="&#xbf;" horiz-adv-x="1300" 
d="M651 -393q-135 0 -240 25t-172 67.5t-111 103t-61.5 125.5t-17.5 140q0 92 29 166t75 123.5t101.5 92t111 81t101.5 80t75 100.5t29 131v22h254v-24q0 -83 -16.5 -152.5t-44.5 -118t-64 -89.5t-76.5 -71.5t-80.5 -58.5t-76 -56.5t-64 -59.5t-44.5 -72.5t-16.5 -91.5
q0 -226 307 -226q168 0 243 78t75 225v43h293v-28q0 -256 -151 -405.5t-458 -149.5zM535 1190q0 72 47 117t116 45q71 0 118.5 -45t47.5 -117q0 -75 -47.5 -121.5t-118.5 -46.5q-69 0 -116 46.5t-47 121.5z" />
    <glyph glyph-name="Agrave" unicode="&#xc0;" horiz-adv-x="1634" 
d="M14 0l609 1704h387l612 -1704h-307l-103 299h-790l-103 -299h-305zM311 1976l21 80l989 -151l-21 -80zM508 553h616l-293 850l-16 43l-16 -43z" />
    <glyph glyph-name="Aacute" unicode="&#xc1;" horiz-adv-x="1634" 
d="M14 0l609 1704h387l612 -1704h-307l-103 299h-790l-103 -299h-305zM360 1937l891 152l19 -80l-891 -151zM508 553h616l-293 850l-16 43l-16 -43z" />
    <glyph glyph-name="Acircumflex" unicode="&#xc2;" horiz-adv-x="1634" 
d="M14 0l609 1704h387l612 -1704h-307l-103 299h-790l-103 -299h-305zM440 1843l310 262h143l301 -262h-160l-213 193l-221 -193h-160zM508 553h616l-293 850l-16 43l-16 -43z" />
    <glyph glyph-name="Atilde" unicode="&#xc3;" horiz-adv-x="1634" 
d="M14 0l609 1704h387l612 -1704h-307l-103 299h-790l-103 -299h-305zM369 1835q0 105 64 167t183 62q58 0 103.5 -16t76 -39t59.5 -45.5t67.5 -38.5t85.5 -16q76 0 114.5 37t38.5 102h103q0 -108 -66.5 -168.5t-189.5 -60.5q-61 0 -109.5 16t-79.5 38.5t-59.5 45.5
t-64.5 39t-79 16q-71 0 -108 -39t-37 -100h-102zM508 553h616l-293 850l-16 43l-16 -43z" />
    <glyph glyph-name="Adieresis" unicode="&#xc4;" horiz-adv-x="1634" 
d="M14 0l609 1704h387l612 -1704h-307l-103 299h-790l-103 -299h-305zM430 1950q0 63 40.5 98t100.5 35q59 0 101.5 -35t42.5 -98q0 -62 -42.5 -97.5t-101.5 -35.5q-60 0 -100.5 35.5t-40.5 97.5zM508 553h616l-293 850l-16 43l-16 -43zM918 1950q0 63 41.5 98t101.5 35
q59 0 100 -35t41 -98q0 -62 -41 -97.5t-100 -35.5q-60 0 -101.5 35.5t-41.5 97.5z" />
    <glyph glyph-name="Aring" unicode="&#xc5;" horiz-adv-x="1634" 
d="M14 0l609 1704h387l612 -1704h-307l-103 299h-790l-103 -299h-305zM508 553h616l-293 850l-16 43l-16 -43zM651 1962q0 71 49.5 118.5t116.5 47.5t116.5 -47.5t49.5 -118.5t-49.5 -118.5t-116.5 -47.5t-116.5 47.5t-49.5 118.5zM743 1962q0 -33 20.5 -53.5t53.5 -20.5
t53.5 20.5t20.5 53.5t-20.5 53.5t-53.5 20.5t-53.5 -20.5t-20.5 -53.5z" />
    <glyph glyph-name="AE" unicode="&#xc6;" horiz-adv-x="2185" 
d="M-16 0l768 1704h1308v-256h-741v-469h704v-254h-704v-469h741v-256h-1028v319h-604l-143 -319h-301zM541 573h491v875h-100z" />
    <glyph glyph-name="Ccedilla" unicode="&#xc7;" horiz-adv-x="1779" 
d="M768 -332q140 0 197 13.5t57 58.5q0 25 -13.5 39t-44 18t-66.5 1.5t-95 -9.5l47 193q-180 10 -323.5 75.5t-235.5 173t-140.5 248t-48.5 303.5v146q0 168 53 312t153 252.5t255.5 170t349.5 61.5q173 0 316 -51t238 -140.5t150.5 -207.5t65.5 -254l3 -74h-300l-2 93
q-5 77 -38.5 145t-91 120t-146 82.5t-195.5 30.5q-130 0 -230 -41.5t-161 -114t-92 -166t-31 -202.5v-184q0 -111 31 -204.5t92 -165.5t161 -113t230 -41q109 0 197.5 30.5t145.5 83.5t90 121t38 145l2 95h300l-3 -74q-10 -134 -62.5 -250t-142.5 -205t-225 -142.5
t-301 -59.5l-26 -103q105 10 163 -19t58 -112q0 -95 -88.5 -132.5t-290.5 -37.5v92z" />
    <glyph glyph-name="Egrave" unicode="&#xc8;" horiz-adv-x="1505" 
d="M176 0v1704h1210v-256h-921v-469h862v-254h-862v-469h921v-256h-1210zM276 1976l21 80l989 -151l-20 -80z" />
    <glyph glyph-name="Eacute" unicode="&#xc9;" horiz-adv-x="1505" 
d="M176 0v1704h1210v-256h-921v-469h862v-254h-862v-469h921v-256h-1210zM326 1937l891 152l18 -80l-891 -151z" />
    <glyph glyph-name="Ecircumflex" unicode="&#xca;" horiz-adv-x="1505" 
d="M176 0v1704h1210v-256h-921v-469h862v-254h-862v-469h921v-256h-1210zM403 1843l310 262h143l301 -262h-160l-213 193l-221 -193h-160z" />
    <glyph glyph-name="Edieresis" unicode="&#xcb;" horiz-adv-x="1505" 
d="M176 0v1704h1210v-256h-921v-469h862v-254h-862v-469h921v-256h-1210zM395 1950q0 63 41 98t101 35q59 0 101 -35t42 -98q0 -62 -42 -97.5t-101 -35.5q-60 0 -101 35.5t-41 97.5zM883 1950q0 63 41.5 98t101.5 35q59 0 100 -35t41 -98q0 -62 -41 -97.5t-100 -35.5
q-60 0 -101.5 35.5t-41.5 97.5z" />
    <glyph glyph-name="Igrave" unicode="&#xcc;" horiz-adv-x="1337" 
d="M102 0v260h422v1184h-422v260h1133v-260h-422v-1184h422v-260h-1133zM164 1976l20 80l990 -151l-21 -80z" />
    <glyph glyph-name="Iacute" unicode="&#xcd;" horiz-adv-x="1337" 
d="M102 0v260h422v1184h-422v260h1133v-260h-422v-1184h422v-260h-1133zM213 1937l891 152l18 -80l-891 -151z" />
    <glyph glyph-name="Icircumflex" unicode="&#xce;" horiz-adv-x="1337" 
d="M102 0v260h422v1184h-422v260h1133v-260h-422v-1184h422v-260h-1133zM291 1843l309 262h143l301 -262h-159l-213 193l-221 -193h-160z" />
    <glyph glyph-name="Idieresis" unicode="&#xcf;" horiz-adv-x="1337" 
d="M102 0v260h422v1184h-422v260h1133v-260h-422v-1184h422v-260h-1133zM283 1950q0 63 40.5 98t100.5 35q59 0 101 -35t42 -98q0 -62 -42 -97.5t-101 -35.5q-60 0 -100.5 35.5t-40.5 97.5zM770 1950q0 63 41.5 98t101.5 35q59 0 100.5 -35t41.5 -98q0 -62 -41.5 -97.5
t-100.5 -35.5q-60 0 -101.5 35.5t-41.5 97.5z" />
    <glyph glyph-name="Eth" unicode="&#xd0;" horiz-adv-x="1871" 
d="M289 0v782h-250v142h250v780h735q737 0 737 -776v-152q0 -392 -189.5 -584t-547.5 -192h-735zM578 252h448q227 0 333.5 124.5t106.5 387.5v176q0 263 -107 387.5t-335 124.5h-446v-528h573v-142h-573v-530z" />
    <glyph glyph-name="Ntilde" unicode="&#xd1;" horiz-adv-x="1783" 
d="M176 0v1704h283l866 -1251v1251h283v-1704h-283l-868 1251v-1251h-281zM444 1835q0 105 64.5 167t183.5 62q58 0 103.5 -16t76 -39t59 -45.5t67 -38.5t85.5 -16q76 0 115 37t39 102h102q0 -108 -66.5 -168.5t-189.5 -60.5q-61 0 -109.5 16t-79.5 38.5t-59 45.5t-64 39
t-79 16q-71 0 -108 -39t-37 -100h-103z" />
    <glyph glyph-name="Ograve" unicode="&#xd2;" horiz-adv-x="1804" 
d="M903 -20q-189 0 -342 62t-252.5 171t-153 254t-53.5 313v146q0 167 53.5 312t153 253.5t252.5 170.5t342 62q188 0 340.5 -62t251.5 -170.5t152 -253.5t53 -312v-146q0 -168 -53.5 -313.5t-152.5 -254t-251.5 -170.5t-339.5 -62zM397 1976l21 80l989 -151l-21 -80z
M399 762q0 -110 30 -203.5t90 -166.5t158.5 -114.5t225.5 -41.5t225 41.5t157.5 114.5t89.5 166.5t30 203.5v182q0 86 -18.5 163t-58.5 143.5t-98 114.5t-141.5 75.5t-185.5 27.5q-127 0 -225.5 -41.5t-158.5 -114.5t-90 -165.5t-30 -200.5v-184z" />
    <glyph glyph-name="Oacute" unicode="&#xd3;" horiz-adv-x="1804" 
d="M903 -20q-189 0 -342 62t-252.5 171t-153 254t-53.5 313v146q0 167 53.5 312t153 253.5t252.5 170.5t342 62q188 0 340.5 -62t251.5 -170.5t152 -253.5t53 -312v-146q0 -168 -53.5 -313.5t-152.5 -254t-251.5 -170.5t-339.5 -62zM399 762q0 -110 30 -203.5t90 -166.5
t158.5 -114.5t225.5 -41.5t225 41.5t157.5 114.5t89.5 166.5t30 203.5v182q0 86 -18.5 163t-58.5 143.5t-98 114.5t-141.5 75.5t-185.5 27.5q-127 0 -225.5 -41.5t-158.5 -114.5t-90 -165.5t-30 -200.5v-184zM446 1937l891 152l19 -80l-891 -151z" />
    <glyph glyph-name="Ocircumflex" unicode="&#xd4;" horiz-adv-x="1804" 
d="M903 -20q-189 0 -342 62t-252.5 171t-153 254t-53.5 313v146q0 167 53.5 312t153 253.5t252.5 170.5t342 62q188 0 340.5 -62t251.5 -170.5t152 -253.5t53 -312v-146q0 -168 -53.5 -313.5t-152.5 -254t-251.5 -170.5t-339.5 -62zM399 762q0 -110 30 -203.5t90 -166.5
t158.5 -114.5t225.5 -41.5t225 41.5t157.5 114.5t89.5 166.5t30 203.5v182q0 86 -18.5 163t-58.5 143.5t-98 114.5t-141.5 75.5t-185.5 27.5q-127 0 -225.5 -41.5t-158.5 -114.5t-90 -165.5t-30 -200.5v-184zM524 1843l310 262h143l301 -262h-160l-213 193l-221 -193h-160z
" />
    <glyph glyph-name="Otilde" unicode="&#xd5;" horiz-adv-x="1804" 
d="M903 -20q-189 0 -342 62t-252.5 171t-153 254t-53.5 313v146q0 167 53.5 312t153 253.5t252.5 170.5t342 62q188 0 340.5 -62t251.5 -170.5t152 -253.5t53 -312v-146q0 -168 -53.5 -313.5t-152.5 -254t-251.5 -170.5t-339.5 -62zM399 762q0 -110 30 -203.5t90 -166.5
t158.5 -114.5t225.5 -41.5t225 41.5t157.5 114.5t89.5 166.5t30 203.5v182q0 86 -18.5 163t-58.5 143.5t-98 114.5t-141.5 75.5t-185.5 27.5q-127 0 -225.5 -41.5t-158.5 -114.5t-90 -165.5t-30 -200.5v-184zM455 1835q0 105 64 167t183 62q58 0 103.5 -16t76 -39
t59.5 -45.5t67.5 -38.5t85.5 -16q76 0 114.5 37t38.5 102h103q0 -108 -66.5 -168.5t-189.5 -60.5q-61 0 -109.5 16t-79.5 38.5t-59.5 45.5t-64.5 39t-79 16q-71 0 -108 -39t-37 -100h-102z" />
    <glyph glyph-name="Odieresis" unicode="&#xd6;" horiz-adv-x="1804" 
d="M903 -20q-189 0 -342 62t-252.5 171t-153 254t-53.5 313v146q0 167 53.5 312t153 253.5t252.5 170.5t342 62q188 0 340.5 -62t251.5 -170.5t152 -253.5t53 -312v-146q0 -168 -53.5 -313.5t-152.5 -254t-251.5 -170.5t-339.5 -62zM399 762q0 -110 30 -203.5t90 -166.5
t158.5 -114.5t225.5 -41.5t225 41.5t157.5 114.5t89.5 166.5t30 203.5v182q0 86 -18.5 163t-58.5 143.5t-98 114.5t-141.5 75.5t-185.5 27.5q-127 0 -225.5 -41.5t-158.5 -114.5t-90 -165.5t-30 -200.5v-184zM516 1950q0 63 40.5 98t100.5 35q59 0 101.5 -35t42.5 -98
q0 -62 -42.5 -97.5t-101.5 -35.5q-60 0 -100.5 35.5t-40.5 97.5zM1004 1950q0 63 41.5 98t101.5 35q59 0 100 -35t41 -98q0 -62 -41 -97.5t-100 -35.5q-60 0 -101.5 35.5t-41.5 97.5z" />
    <glyph glyph-name="multiply" unicode="&#xd7;" horiz-adv-x="1296" 
d="M145 1415l504 -502l504 504l61 -63l-501 -504l501 -502l-61 -63l-504 501l-502 -501l-63 63l502 502l-502 502z" />
    <glyph glyph-name="Oslash" unicode="&#xd8;" horiz-adv-x="1804" 
d="M903 -20q-262 0 -448 114l-60 -82h-217l139 191q-105 108 -160 257t-55 320v146q0 167 53.5 312t153 253.5t252.5 170.5t342 62q255 0 443 -112l57 80h217l-137 -189q107 -108 162 -256t55 -321v-146q0 -168 -53.5 -313.5t-152.5 -254t-251.5 -170.5t-339.5 -62zM399 762
q0 -192 88 -326l701 961q-120 71 -285 71q-127 0 -225.5 -41.5t-158.5 -114.5t-90 -165.5t-30 -200.5v-184zM612 311q116 -75 291 -75q127 0 225 41.5t157.5 114.5t89.5 166.5t30 203.5v182q0 194 -90 330z" />
    <glyph glyph-name="Ugrave" unicode="&#xd9;" horiz-adv-x="1751" 
d="M877 -20q-380 0 -547.5 157t-167.5 510v1057h289v-1073q0 -220 101.5 -309t324.5 -89q222 0 322.5 89t100.5 309v1073h289v-1057q0 -355 -167.5 -511t-544.5 -156zM371 1976l20 80l989 -151l-20 -80z" />
    <glyph glyph-name="Uacute" unicode="&#xda;" horiz-adv-x="1751" 
d="M877 -20q-380 0 -547.5 157t-167.5 510v1057h289v-1073q0 -220 101.5 -309t324.5 -89q222 0 322.5 89t100.5 309v1073h289v-1057q0 -355 -167.5 -511t-544.5 -156zM420 1937l891 152l18 -80l-891 -151z" />
    <glyph glyph-name="Ucircumflex" unicode="&#xdb;" horiz-adv-x="1751" 
d="M877 -20q-380 0 -547.5 157t-167.5 510v1057h289v-1073q0 -220 101.5 -309t324.5 -89q222 0 322.5 89t100.5 309v1073h289v-1057q0 -355 -167.5 -511t-544.5 -156zM498 1843l309 262h143l301 -262h-159l-213 193l-222 -193h-159z" />
    <glyph glyph-name="Udieresis" unicode="&#xdc;" horiz-adv-x="1751" 
d="M877 -20q-380 0 -547.5 157t-167.5 510v1057h289v-1073q0 -220 101.5 -309t324.5 -89q222 0 322.5 89t100.5 309v1073h289v-1057q0 -355 -167.5 -511t-544.5 -156zM489 1950q0 63 41 98t101 35q59 0 101 -35t42 -98q0 -62 -42 -97.5t-101 -35.5q-60 0 -101 35.5t-41 97.5
zM977 1950q0 63 41.5 98t101.5 35q59 0 100.5 -35t41.5 -98q0 -62 -41.5 -97.5t-100.5 -35.5q-60 0 -101.5 35.5t-41.5 97.5z" />
    <glyph glyph-name="Yacute" unicode="&#xdd;" horiz-adv-x="1587" 
d="M651 0v596l-655 1108h332l467 -821l467 821h329l-653 -1108v-596h-287zM336 1937l891 152l18 -80l-891 -151z" />
    <glyph glyph-name="Thorn" unicode="&#xde;" horiz-adv-x="1712" 
d="M176 0v1704h281v-285h557q612 0 612 -563v-12q0 -285 -151.5 -425t-460.5 -140h-557v-279h-281zM457 535h551q170 0 245.5 69t75.5 223v52q0 151 -75.5 218.5t-245.5 67.5h-551v-630z" />
    <glyph glyph-name="germandbls" unicode="&#xdf;" horiz-adv-x="1525" 
d="M152 0v1231q0 241 154 367t466 126q306 0 463.5 -117.5t157.5 -328.5v-16q0 -138 -60.5 -232.5t-185.5 -130.5q152 -37 218.5 -143t66.5 -275v-18q0 -118 -38.5 -208t-108.5 -145t-162 -82.5t-205 -27.5h-359v236h244q194 0 271 55t77 194v35q0 124 -79 186.5t-273 63.5
h-240v234h211q100 0 167.5 14t107 44.5t55.5 72t16 102.5v31q0 223 -342 223q-179 0 -262.5 -62.5t-83.5 -195.5v-1233h-276z" />
    <glyph glyph-name="agrave" unicode="&#xe0;" horiz-adv-x="1454" 
d="M1047 0v223q-81 -124 -220 -183.5t-309 -59.5q-203 0 -316.5 88t-113.5 266q0 74 26 134t67 101t102.5 74t121.5 52.5t134 35.5l170 37q54 12 80.5 18t69 17.5t63 20.5t47.5 23t39 28.5t21 34.5t9 44v4q0 69 -68.5 113.5t-217.5 44.5q-338 0 -338 -242v-49h-279v37
q0 233 156 361.5t457 128.5q156 0 268.5 -32.5t176.5 -93.5t93 -139t29 -180v-907h-268zM229 1604l21 79l989 -151l-20 -80zM367 358q0 -79 55 -115t172 -36q175 0 298 90t146 246v172q-13 -29 -38.5 -51.5t-66 -38.5t-79 -27t-96.5 -26q-9 -2 -13 -3l-153 -34
q-118 -28 -171.5 -67t-53.5 -110z" />
    <glyph glyph-name="aacute" unicode="&#xe1;" horiz-adv-x="1454" 
d="M1047 0v223q-81 -124 -220 -183.5t-309 -59.5q-203 0 -316.5 88t-113.5 266q0 74 26 134t67 101t102.5 74t121.5 52.5t134 35.5l170 37q54 12 80.5 18t69 17.5t63 20.5t47.5 23t39 28.5t21 34.5t9 44v4q0 69 -68.5 113.5t-217.5 44.5q-338 0 -338 -242v-49h-279v37
q0 233 156 361.5t457 128.5q156 0 268.5 -32.5t176.5 -93.5t93 -139t29 -180v-907h-268zM279 1565l890 151l19 -80l-891 -151zM367 358q0 -79 55 -115t172 -36q175 0 298 90t146 246v172q-13 -29 -38.5 -51.5t-66 -38.5t-79 -27t-96.5 -26q-9 -2 -13 -3l-153 -34
q-118 -28 -171.5 -67t-53.5 -110z" />
    <glyph glyph-name="acircumflex" unicode="&#xe2;" horiz-adv-x="1454" 
d="M1047 0v223q-81 -124 -220 -183.5t-309 -59.5q-203 0 -316.5 88t-113.5 266q0 74 26 134t67 101t102.5 74t121.5 52.5t134 35.5l170 37q54 12 80.5 18t69 17.5t63 20.5t47.5 23t39 28.5t21 34.5t9 44v4q0 69 -68.5 113.5t-217.5 44.5q-338 0 -338 -242v-49h-279v37
q0 233 156 361.5t457 128.5q156 0 268.5 -32.5t176.5 -93.5t93 -139t29 -180v-907h-268zM356 1470l310 263h143l301 -263h-160l-213 193l-221 -193h-160zM367 358q0 -79 55 -115t172 -36q175 0 298 90t146 246v172q-13 -29 -38.5 -51.5t-66 -38.5t-79 -27t-96.5 -26
q-9 -2 -13 -3l-153 -34q-118 -28 -171.5 -67t-53.5 -110z" />
    <glyph glyph-name="atilde" unicode="&#xe3;" horiz-adv-x="1454" 
d="M1047 0v223q-81 -124 -220 -183.5t-309 -59.5q-203 0 -316.5 88t-113.5 266q0 74 26 134t67 101t102.5 74t121.5 52.5t134 35.5l170 37q54 12 80.5 18t69 17.5t63 20.5t47.5 23t39 28.5t21 34.5t9 44v4q0 69 -68.5 113.5t-217.5 44.5q-338 0 -338 -242v-49h-279v37
q0 233 156 361.5t457 128.5q156 0 268.5 -32.5t176.5 -93.5t93 -139t29 -180v-907h-268zM287 1462q0 105 64.5 167.5t183.5 62.5q58 0 103.5 -16t76 -39t59 -46t67 -39t85.5 -16q76 0 114.5 37t38.5 102h103q0 -108 -66.5 -168.5t-189.5 -60.5q-61 0 -109.5 16t-79.5 39
t-59 46t-64 39t-79 16q-71 0 -108.5 -39.5t-37.5 -100.5h-102zM367 358q0 -79 55 -115t172 -36q175 0 298 90t146 246v172q-13 -29 -38.5 -51.5t-66 -38.5t-79 -27t-96.5 -26q-9 -2 -13 -3l-153 -34q-118 -28 -171.5 -67t-53.5 -110z" />
    <glyph glyph-name="adieresis" unicode="&#xe4;" horiz-adv-x="1454" 
d="M1047 0v223q-81 -124 -220 -183.5t-309 -59.5q-203 0 -316.5 88t-113.5 266q0 74 26 134t67 101t102.5 74t121.5 52.5t134 35.5l170 37q54 12 80.5 18t69 17.5t63 20.5t47.5 23t39 28.5t21 34.5t9 44v4q0 69 -68.5 113.5t-217.5 44.5q-338 0 -338 -242v-49h-279v37
q0 233 156 361.5t457 128.5q156 0 268.5 -32.5t176.5 -93.5t93 -139t29 -180v-907h-268zM348 1577q0 63 40.5 98t100.5 35q59 0 101.5 -35t42.5 -98q0 -62 -42.5 -97.5t-101.5 -35.5q-60 0 -100.5 35.5t-40.5 97.5zM367 358q0 -79 55 -115t172 -36q175 0 298 90t146 246v172
q-13 -29 -38.5 -51.5t-66 -38.5t-79 -27t-96.5 -26q-9 -2 -13 -3l-153 -34q-118 -28 -171.5 -67t-53.5 -110zM836 1577q0 63 41.5 98t101.5 35q59 0 100 -35t41 -98q0 -62 -41 -97.5t-100 -35.5q-60 0 -101.5 35.5t-41.5 97.5z" />
    <glyph glyph-name="aring" unicode="&#xe5;" horiz-adv-x="1454" 
d="M1047 0v223q-81 -124 -220 -183.5t-309 -59.5q-203 0 -316.5 88t-113.5 266q0 74 26 134t67 101t102.5 74t121.5 52.5t134 35.5l170 37q54 12 80.5 18t69 17.5t63 20.5t47.5 23t39 28.5t21 34.5t9 44v4q0 69 -68.5 113.5t-217.5 44.5q-338 0 -338 -242v-49h-279v37
q0 233 156 361.5t457 128.5q156 0 268.5 -32.5t176.5 -93.5t93 -139t29 -180v-907h-268zM367 358q0 -79 55 -115t172 -36q175 0 298 90t146 246v172q-13 -29 -38.5 -51.5t-66 -38.5t-79 -27t-96.5 -26q-9 -2 -13 -3l-153 -34q-118 -28 -171.5 -67t-53.5 -110zM569 1589
q0 71 49.5 118.5t116.5 47.5t116.5 -47.5t49.5 -118.5t-49.5 -118.5t-116.5 -47.5t-116.5 47.5t-49.5 118.5zM662 1589q0 -33 20 -53t53 -20t53.5 20t20.5 53t-20.5 53.5t-53.5 20.5t-53 -20.5t-20 -53.5z" />
    <glyph glyph-name="ae" unicode="&#xe6;" horiz-adv-x="2314" 
d="M573 -20q-232 0 -363.5 90.5t-131.5 277.5q0 74 23.5 133.5t60.5 97.5t93 68t108.5 46.5t121.5 31.5l211 29q60 9 98 17t78 22t62 32t36.5 46t14.5 65q0 85 -68.5 133.5t-203.5 48.5q-310 0 -310 -272v-12h-278v8q0 111 35.5 203t105.5 161t183 107.5t260 38.5
q332 0 452 -203q152 203 457 203q285 0 444.5 -165t159.5 -470v-115h-969q3 -171 97 -277t260 -106q237 0 297 207v10h301v-10q-40 -200 -195.5 -323t-406.5 -123q-179 0 -298.5 65t-197.5 193q-73 -134 -213 -196t-324 -62zM356 354q0 -81 64.5 -123.5t185.5 -42.5
q158 0 255.5 62.5t123.5 189.5v228q-62 -75 -266 -111l-199 -35q-164 -35 -164 -168zM1260 807h673v22q-19 137 -104 210t-225 73q-148 0 -235.5 -82.5t-108.5 -222.5z" />
    <glyph glyph-name="ccedilla" unicode="&#xe7;" horiz-adv-x="1462" 
d="M1090 840q-5 53 -27 100.5t-62.5 86.5t-106.5 62t-149 23q-190 0 -279 -102.5t-89 -286.5v-121q0 -181 89 -282t279 -101q89 0 156.5 23t106 63t58.5 86t24 101l6 75h282l-6 -63q-7 -82 -32.5 -155.5t-73 -138.5t-113.5 -113.5t-158.5 -79t-203.5 -35.5l-27 -105
q105 10 163 -19t58 -112q0 -95 -88.5 -132.5t-290.5 -37.5v92q140 0 197 13.5t57 58.5q0 25 -13.5 39t-44 18t-66.5 1.5t-95 -9.5l47 193q-294 13 -446 182.5t-152 456.5v94q0 297 166 467t485 170q149 0 268 -42t195.5 -115.5t119 -166.5t50.5 -201l4 -65h-282z" />
    <glyph glyph-name="egrave" unicode="&#xe8;" horiz-adv-x="1472" 
d="M1241 1532l-20 -80l-990 152l21 79zM90 621v94q0 297 168 467t494 170q299 0 462.5 -165t163.5 -474v-111h-999q0 -180 91.5 -281.5t283.5 -101.5q142 0 217 55.5t90 141.5l2 30h305l-2 -16q-24 -204 -180.5 -327t-433.5 -123q-327 0 -494.5 170.5t-167.5 470.5zM383 803
h707v37q-19 133 -108.5 202.5t-240.5 69.5q-162 0 -250 -81t-108 -228z" />
    <glyph glyph-name="eacute" unicode="&#xe9;" horiz-adv-x="1472" 
d="M299 1485l-18 80l890 151l19 -80zM90 621v94q0 297 168 467t494 170q299 0 462.5 -165t163.5 -474v-111h-999q0 -180 91.5 -281.5t283.5 -101.5q142 0 217 55.5t90 141.5l2 30h305l-2 -16q-24 -204 -180.5 -327t-433.5 -123q-327 0 -494.5 170.5t-167.5 470.5zM383 803
h707v37q-19 133 -108.5 202.5t-240.5 69.5q-162 0 -250 -81t-108 -228z" />
    <glyph glyph-name="ecircumflex" unicode="&#xea;" horiz-adv-x="1472" 
d="M358 1470l310 263h143l301 -263h-160l-213 193l-221 -193h-160zM90 621v94q0 297 168 467t494 170q299 0 462.5 -165t163.5 -474v-111h-999q0 -180 91.5 -281.5t283.5 -101.5q142 0 217 55.5t90 141.5l2 30h305l-2 -16q-24 -204 -180.5 -327t-433.5 -123
q-327 0 -494.5 170.5t-167.5 470.5zM383 803h707v37q-19 133 -108.5 202.5t-240.5 69.5q-162 0 -250 -81t-108 -228z" />
    <glyph glyph-name="edieresis" unicode="&#xeb;" horiz-adv-x="1472" 
d="M981 1444q-60 0 -101.5 35.5t-41.5 97.5q0 63 41.5 98t101.5 35q59 0 100 -35t41 -98q0 -62 -41 -97.5t-100 -35.5zM90 621v94q0 297 168 467t494 170q299 0 462.5 -165t163.5 -474v-111h-999q0 -180 91.5 -281.5t283.5 -101.5q142 0 217 55.5t90 141.5l2 30h305l-2 -16
q-24 -204 -180.5 -327t-433.5 -123q-327 0 -494.5 170.5t-167.5 470.5zM350 1577q0 63 41 98t101 35q59 0 101 -35t42 -98q0 -62 -42 -97.5t-101 -35.5q-60 0 -101 35.5t-41 97.5zM383 803h707v37q-19 133 -108.5 202.5t-240.5 69.5q-162 0 -250 -81t-108 -228z" />
    <glyph glyph-name="igrave" unicode="&#xec;" horiz-adv-x="577" 
d="M152 1331h276v-1331h-276v1331zM-47 1604l22 79l650 -151l-21 -80z" />
    <glyph glyph-name="iacute" unicode="&#xed;" horiz-adv-x="577" 
d="M152 1331h276v-1331h-276v1331zM-47 1532l649 151l23 -79l-652 -152z" />
    <glyph glyph-name="icircumflex" unicode="&#xee;" horiz-adv-x="577" 
d="M152 1331h276v-1331h-276v1331zM-37 1454l262 229h131l260 -229h-133l-192 166l-197 -166h-131z" />
    <glyph glyph-name="idieresis" unicode="&#xef;" horiz-adv-x="577" 
d="M152 1331h276v-1331h-276v1331zM-31 1544q0 50 32 80.5t77 30.5q44 0 76 -30.5t32 -80.5q0 -46 -32.5 -76t-75.5 -30q-44 0 -76.5 30t-32.5 76zM401 1544q0 51 31.5 81t77.5 30q43 0 74.5 -30.5t31.5 -80.5q0 -46 -31.5 -76t-74.5 -30q-45 0 -77 30t-32 76z" />
    <glyph glyph-name="eth" unicode="&#xf0;" horiz-adv-x="1423" 
d="M715 -20q-308 0 -469.5 138t-161.5 388v47q0 224 150 367t417 143q254 0 379 -131q-63 221 -330 381l-499 -193v148l334 129q-132 61 -332 125l73 202q323 -86 547 -217l449 174v-147l-309 -119q366 -283 366 -774v-43q0 -315 -149.5 -466.5t-464.5 -151.5zM365 500
q0 -285 342 -285q344 0 344 287v47q0 278 -344 278q-342 0 -342 -278v-49z" />
    <glyph glyph-name="ntilde" unicode="&#xf1;" 
d="M428 1331v-219q154 240 444 240q225 0 354.5 -145.5t129.5 -397.5v-809h-277v778q0 336 -309 336q-69 0 -124.5 -17t-92 -46t-62 -64t-39 -76.5t-19 -77t-5.5 -71.5v-762h-276v1331h276zM313 1462q0 105 64.5 167.5t183.5 62.5q58 0 103.5 -16t76 -39t59 -46t67 -39
t85.5 -16q76 0 115 37t39 102h102q0 -108 -66.5 -168.5t-189.5 -60.5q-61 0 -109.5 16t-79.5 39t-59 46t-64 39t-79 16q-71 0 -108 -39.5t-37 -100.5h-103z" />
    <glyph glyph-name="ograve" unicode="&#xf2;" horiz-adv-x="1460" 
d="M731 -20q-314 0 -476.5 171t-162.5 470v90q0 299 162.5 470t476.5 171q210 0 354.5 -80t213.5 -222t69 -339v-90q0 -197 -69 -339t-213.5 -222t-354.5 -80zM225 1604l21 79l989 -151l-21 -80zM377 606q0 -387 354 -387t354 387v119q0 387 -354 387t-354 -387v-119z" />
    <glyph glyph-name="oacute" unicode="&#xf3;" horiz-adv-x="1460" 
d="M731 -20q-314 0 -476.5 171t-162.5 470v90q0 299 162.5 470t476.5 171q210 0 354.5 -80t213.5 -222t69 -339v-90q0 -197 -69 -339t-213.5 -222t-354.5 -80zM274 1565l891 151l19 -80l-891 -151zM377 606q0 -387 354 -387t354 387v119q0 387 -354 387t-354 -387v-119z" />
    <glyph glyph-name="ocircumflex" unicode="&#xf4;" horiz-adv-x="1460" 
d="M731 -20q-314 0 -476.5 171t-162.5 470v90q0 299 162.5 470t476.5 171q210 0 354.5 -80t213.5 -222t69 -339v-90q0 -197 -69 -339t-213.5 -222t-354.5 -80zM352 1470l310 263h143l301 -263h-160l-213 193l-221 -193h-160zM377 606q0 -387 354 -387t354 387v119
q0 387 -354 387t-354 -387v-119z" />
    <glyph glyph-name="otilde" unicode="&#xf5;" horiz-adv-x="1460" 
d="M731 -20q-314 0 -476.5 171t-162.5 470v90q0 299 162.5 470t476.5 171q210 0 354.5 -80t213.5 -222t69 -339v-90q0 -197 -69 -339t-213.5 -222t-354.5 -80zM283 1462q0 105 64 167.5t183 62.5q58 0 103.5 -16t76 -39t59.5 -46t67.5 -39t85.5 -16q76 0 114.5 37t38.5 102
h103q0 -108 -66.5 -168.5t-189.5 -60.5q-61 0 -109.5 16t-79.5 39t-59.5 46t-64.5 39t-79 16q-71 0 -108 -39.5t-37 -100.5h-102zM377 606q0 -387 354 -387t354 387v119q0 387 -354 387t-354 -387v-119z" />
    <glyph glyph-name="odieresis" unicode="&#xf6;" horiz-adv-x="1460" 
d="M731 -20q-314 0 -476.5 171t-162.5 470v90q0 299 162.5 470t476.5 171q210 0 354.5 -80t213.5 -222t69 -339v-90q0 -197 -69 -339t-213.5 -222t-354.5 -80zM344 1577q0 63 40.5 98t100.5 35q59 0 101.5 -35t42.5 -98q0 -62 -42.5 -97.5t-101.5 -35.5q-60 0 -100.5 35.5
t-40.5 97.5zM377 606q0 -387 354 -387t354 387v119q0 387 -354 387t-354 -387v-119zM831 1577q0 63 41.5 98t102.5 35q59 0 100 -35t41 -98q0 -62 -41 -97.5t-100 -35.5q-60 0 -102 35.5t-42 97.5z" />
    <glyph glyph-name="divide" unicode="&#xf7;" horiz-adv-x="1746" 
d="M872 1073q-26 0 -43.5 18t-17.5 44q0 25 17.5 43t43.5 18q25 0 43.5 -18t18.5 -43q0 -26 -18.5 -44t-43.5 -18zM117 805v90h1511v-90h-1511zM811 565q0 25 17.5 43.5t43.5 18.5q25 0 43.5 -18.5t18.5 -43.5q0 -26 -18.5 -43.5t-43.5 -17.5q-26 0 -43.5 17.5t-17.5 43.5z
" />
    <glyph glyph-name="oslash" unicode="&#xf8;" horiz-adv-x="1460" 
d="M731 -20q-177 0 -305 55l-129 -209h-182l180 289q-203 167 -203 506v90q0 299 162.5 470t476.5 171q171 0 301 -54l129 207h182l-178 -286q203 -167 203 -508v-90q0 -197 -69 -339t-213.5 -222t-354.5 -80zM377 606q0 -166 63 -258l459 735q-76 29 -168 29
q-354 0 -354 -387v-119zM561 250q70 -31 170 -31q354 0 354 387v119q0 165 -65 260z" />
    <glyph glyph-name="ugrave" unicode="&#xf9;" 
d="M1065 0v223q-152 -243 -447 -243q-225 0 -354 145t-129 397v809h277v-778q0 -336 309 -336q69 0 124.5 17t92 46t62 64t39 76.5t19 77t5.5 71.5l2 -34v796h276v-1331h-276zM213 1604l20 79l990 -151l-21 -80z" />
    <glyph glyph-name="uacute" unicode="&#xfa;" 
d="M1065 0v223q-152 -243 -447 -243q-225 0 -354 145t-129 397v809h277v-778q0 -336 309 -336q69 0 124.5 17t92 46t62 64t39 76.5t19 77t5.5 71.5l2 -34v796h276v-1331h-276zM262 1565l891 151l18 -80l-890 -151z" />
    <glyph glyph-name="ucircumflex" unicode="&#xfb;" 
d="M1065 0v223q-152 -243 -447 -243q-225 0 -354 145t-129 397v809h277v-778q0 -336 309 -336q69 0 124.5 17t92 46t62 64t39 76.5t19 77t5.5 71.5l2 -34v796h276v-1331h-276zM342 1470l309 263h144l301 -263h-160l-213 193l-221 -193h-160z" />
    <glyph glyph-name="udieresis" unicode="&#xfc;" 
d="M1065 0v223q-152 -243 -447 -243q-225 0 -354 145t-129 397v809h277v-778q0 -336 309 -336q69 0 124.5 17t92 46t62 64t39 76.5t19 77t5.5 71.5l2 -34v796h276v-1331h-276zM332 1577q0 63 40.5 98t100.5 35q59 0 101 -35t42 -98q0 -62 -42 -97.5t-101 -35.5
q-60 0 -100.5 35.5t-40.5 97.5zM819 1577q0 63 41.5 98t102.5 35q59 0 100 -35t41 -98q0 -62 -41 -97.5t-100 -35.5q-60 0 -102 35.5t-42 97.5z" />
    <glyph glyph-name="yacute" unicode="&#xfd;" 
d="M1063 -8v227q-154 -239 -445 -239q-225 0 -354 145t-129 397v809h277v-778q0 -336 309 -336q69 0 124.5 17t92 46t62 64t39 76.5t19 77t5.5 71.5v762h278v-1341q0 -465 -415 -465h-756v239h715q92 0 135 51.5t43 176.5zM289 1565l891 151l18 -80l-891 -151z" />
    <glyph glyph-name="thorn" unicode="&#xfe;" horiz-adv-x="1538" 
d="M428 -475h-276v2179h276v-563q55 88 162 149.5t268 61.5q271 0 430.5 -171.5t159.5 -445.5v-145q0 -269 -160 -439.5t-426 -170.5q-159 0 -266.5 59.5t-167.5 144.5v-659zM434 600q0 -167 94 -274t273 -107q92 0 162.5 30t113.5 83.5t64.5 121.5t21.5 148v127
q0 79 -22 147t-65 121.5t-114 84t-163 30.5q-177 0 -271 -107.5t-94 -275.5v-129z" />
    <glyph glyph-name="ydieresis" unicode="&#xff;" 
d="M1063 -8v227q-154 -239 -445 -239q-225 0 -354 145t-129 397v809h277v-778q0 -336 309 -336q69 0 124.5 17t92 46t62 64t39 76.5t19 77t5.5 71.5v762h278v-1341q0 -465 -415 -465h-756v239h715q92 0 135 51.5t43 176.5zM358 1577q0 63 41 98t101 35q59 0 101 -35t42 -98
q0 -62 -42 -97.5t-101 -35.5q-60 0 -101 35.5t-41 97.5zM846 1577q0 63 41.5 98t101.5 35q59 0 100 -35t41 -98q0 -62 -41 -97.5t-100 -35.5q-60 0 -101.5 35.5t-41.5 97.5z" />
    <glyph glyph-name="Amacron" unicode="&#x100;" horiz-adv-x="1634" 
d="M14 0l609 1704h387l612 -1704h-307l-103 299h-790l-103 -299h-305zM311 1901v81h1010v-81h-1010zM508 553h616l-293 850l-16 43l-16 -43z" />
    <glyph glyph-name="amacron" unicode="&#x101;" horiz-adv-x="1454" 
d="M1047 0v223q-81 -124 -220 -183.5t-309 -59.5q-203 0 -316.5 88t-113.5 266q0 74 26 134t67 101t102.5 74t121.5 52.5t134 35.5l170 37q54 12 80.5 18t69 17.5t63 20.5t47.5 23t39 28.5t21 34.5t9 44v4q0 69 -68.5 113.5t-217.5 44.5q-338 0 -338 -242v-49h-279v37
q0 233 156 361.5t457 128.5q156 0 268.5 -32.5t176.5 -93.5t93 -139t29 -180v-907h-268zM229 1528v82h1010v-82h-1010zM367 358q0 -79 55 -115t172 -36q175 0 298 90t146 246v172q-13 -29 -38.5 -51.5t-66 -38.5t-79 -27t-96.5 -26q-9 -2 -13 -3l-153 -34
q-118 -28 -171.5 -67t-53.5 -110z" />
    <glyph glyph-name="Abreve" unicode="&#x102;" horiz-adv-x="1634" 
d="M14 0l609 1704h387l612 -1704h-307l-103 299h-790l-103 -299h-305zM360 2064h103q0 -43 25.5 -73t75.5 -46t111 -23t144 -7q82 0 142.5 6.5t109 23t73.5 46.5t25 73h103q0 -68 -31.5 -115t-93.5 -73.5t-141 -37.5t-187 -11t-188 11t-143 37.5t-95.5 73.5t-32.5 115z
M508 553h616l-293 850l-16 43l-16 -43z" />
    <glyph glyph-name="abreve" unicode="&#x103;" horiz-adv-x="1454" 
d="M1047 0v223q-81 -124 -220 -183.5t-309 -59.5q-203 0 -316.5 88t-113.5 266q0 74 26 134t67 101t102.5 74t121.5 52.5t134 35.5l170 37q54 12 80.5 18t69 17.5t63 20.5t47.5 23t39 28.5t21 34.5t9 44v4q0 69 -68.5 113.5t-217.5 44.5q-338 0 -338 -242v-49h-279v37
q0 233 156 361.5t457 128.5q156 0 268.5 -32.5t176.5 -93.5t93 -139t29 -180v-907h-268zM279 1692h102q0 -43 25.5 -73t75.5 -46.5t111.5 -23.5t143.5 -7t142.5 7t109 23.5t73.5 46.5t25 73h103q0 -68 -31.5 -115.5t-93 -73.5t-141 -37.5t-187.5 -11.5t-188 11.5t-143 37.5
t-95 73.5t-32 115.5zM367 358q0 -79 55 -115t172 -36q175 0 298 90t146 246v172q-13 -29 -38.5 -51.5t-66 -38.5t-79 -27t-96.5 -26q-9 -2 -13 -3l-153 -34q-118 -28 -171.5 -67t-53.5 -110z" />
    <glyph glyph-name="Aogonek" unicode="&#x104;" horiz-adv-x="1634" 
d="M14 0l609 1704h387l612 -1704h-2q-227 -66 -227 -186q0 -62 54.5 -88.5t186.5 -26.5h15l-82 -109h-13q-130 0 -208 47t-78 134q0 160 250 229h-203l-103 299h-790l-103 -299h-305zM508 553h616l-293 850l-16 43l-16 -43z" />
    <glyph glyph-name="aogonek" unicode="&#x105;" horiz-adv-x="1454" 
d="M1047 0v223q-81 -124 -220 -183.5t-309 -59.5q-203 0 -316.5 88t-113.5 266q0 74 26 134t67 101t102.5 74t121.5 52.5t134 35.5l170 37q54 12 80.5 18t69 17.5t63 20.5t47.5 23t39 28.5t21 34.5t9 44v4q0 69 -68.5 113.5t-217.5 44.5q-338 0 -338 -242v-49h-279v37
q0 233 156 361.5t457 128.5q156 0 268.5 -32.5t176.5 -93.5t93 -139t29 -180v-907q-116 -34 -172 -79.5t-56 -106.5q0 -62 55 -88.5t187 -26.5h14l-81 -109h-13q-130 0 -208 47t-78 134q0 160 249 229h-165zM367 358q0 -79 55 -115t172 -36q175 0 298 90t146 246v172
q-13 -29 -38.5 -51.5t-66 -38.5t-79 -27t-96.5 -26q-9 -2 -13 -3l-153 -34q-118 -28 -171.5 -67t-53.5 -110z" />
    <glyph glyph-name="Cacute" unicode="&#x106;" horiz-adv-x="1779" 
d="M911 -20q-194 0 -349 61.5t-255 170.5t-152.5 254.5t-52.5 315.5v146q0 168 53 312t153 252.5t255.5 170t349.5 61.5q173 0 316 -51t238 -140.5t150.5 -207.5t65.5 -254l3 -74h-300l-2 93q-5 77 -38.5 145t-91 120t-146 82.5t-195.5 30.5q-130 0 -230 -41.5t-161 -114
t-92 -166t-31 -202.5v-184q0 -111 31 -204.5t92 -165.5t161 -113t230 -41q109 0 197.5 30.5t145.5 83.5t90 121t38 145l2 95h300l-3 -74q-10 -138 -65.5 -256.5t-150.5 -208.5t-238 -141t-318 -51zM438 1937l891 152l19 -80l-891 -151z" />
    <glyph glyph-name="cacute" unicode="&#x107;" horiz-adv-x="1460" 
d="M1090 840q-5 53 -27 100.5t-62.5 86.5t-106.5 62t-149 23q-190 0 -279 -102.5t-89 -286.5v-121q0 -181 89 -282t279 -101q89 0 156.5 23t106 63t58.5 86t24 101l6 75h282l-6 -63q-9 -108 -51.5 -200.5t-117.5 -166t-193.5 -115.5t-268.5 -42q-320 0 -485.5 171
t-165.5 470v94q0 297 166 467t485 170q149 0 268 -42t195.5 -115.5t119 -166.5t50.5 -201l4 -65h-282zM285 1565l891 151l18 -80l-891 -151z" />
    <glyph glyph-name="Ccircumflex" unicode="&#x108;" horiz-adv-x="1779" 
d="M911 -20q-194 0 -349 61.5t-255 170.5t-152.5 254.5t-52.5 315.5v146q0 168 53 312t153 252.5t255.5 170t349.5 61.5q173 0 316 -51t238 -140.5t150.5 -207.5t65.5 -254l3 -74h-300l-2 93q-5 77 -38.5 145t-91 120t-146 82.5t-195.5 30.5q-130 0 -230 -41.5t-161 -114
t-92 -166t-31 -202.5v-184q0 -111 31 -204.5t92 -165.5t161 -113t230 -41q109 0 197.5 30.5t145.5 83.5t90 121t38 145l2 95h300l-3 -74q-10 -138 -65.5 -256.5t-150.5 -208.5t-238 -141t-318 -51zM518 1843l309 262h144l301 -262h-160l-213 193l-221 -193h-160z" />
    <glyph glyph-name="ccircumflex" unicode="&#x109;" horiz-adv-x="1460" 
d="M1090 840q-5 53 -27 100.5t-62.5 86.5t-106.5 62t-149 23q-190 0 -279 -102.5t-89 -286.5v-121q0 -181 89 -282t279 -101q89 0 156.5 23t106 63t58.5 86t24 101l6 75h282l-6 -63q-9 -108 -51.5 -200.5t-117.5 -166t-193.5 -115.5t-268.5 -42q-320 0 -485.5 171
t-165.5 470v94q0 297 166 467t485 170q149 0 268 -42t195.5 -115.5t119 -166.5t50.5 -201l4 -65h-282zM365 1470l309 263h143l301 -263h-160l-213 193l-221 -193h-159z" />
    <glyph glyph-name="Cdotaccent" unicode="&#x10a;" horiz-adv-x="1779" 
d="M911 -20q-194 0 -349 61.5t-255 170.5t-152.5 254.5t-52.5 315.5v146q0 168 53 312t153 252.5t255.5 170t349.5 61.5q173 0 316 -51t238 -140.5t150.5 -207.5t65.5 -254l3 -74h-300l-2 93q-5 77 -38.5 145t-91 120t-146 82.5t-195.5 30.5q-130 0 -230 -41.5t-161 -114
t-92 -166t-31 -202.5v-184q0 -111 31 -204.5t92 -165.5t161 -113t230 -41q109 0 197.5 30.5t145.5 83.5t90 121t38 145l2 95h300l-3 -74q-10 -138 -65.5 -256.5t-150.5 -208.5t-238 -141t-318 -51zM745 1942q0 58 39 94.5t111 36.5t110.5 -36.5t38.5 -94.5
q0 -54 -38.5 -89.5t-110.5 -35.5t-111 35.5t-39 89.5z" />
    <glyph glyph-name="cdotaccent" unicode="&#x10b;" horiz-adv-x="1460" 
d="M1090 840q-5 53 -27 100.5t-62.5 86.5t-106.5 62t-149 23q-190 0 -279 -102.5t-89 -286.5v-121q0 -181 89 -282t279 -101q89 0 156.5 23t106 63t58.5 86t24 101l6 75h282l-6 -63q-9 -108 -51.5 -200.5t-117.5 -166t-193.5 -115.5t-268.5 -42q-320 0 -485.5 171
t-165.5 470v94q0 297 166 467t485 170q149 0 268 -42t195.5 -115.5t119 -166.5t50.5 -201l4 -65h-282zM569 1585q0 65 44 102t128 37q86 0 130 -37t44 -102q0 -60 -45 -97.5t-129 -37.5q-83 0 -127.5 37.5t-44.5 97.5z" />
    <glyph glyph-name="Ccaron" unicode="&#x10c;" horiz-adv-x="1779" 
d="M911 -20q-194 0 -349 61.5t-255 170.5t-152.5 254.5t-52.5 315.5v146q0 168 53 312t153 252.5t255.5 170t349.5 61.5q173 0 316 -51t238 -140.5t150.5 -207.5t65.5 -254l3 -74h-300l-2 93q-5 77 -38.5 145t-91 120t-146 82.5t-195.5 30.5q-130 0 -230 -41.5t-161 -114
t-92 -166t-31 -202.5v-184q0 -111 31 -204.5t92 -165.5t161 -113t230 -41q109 0 197.5 30.5t145.5 83.5t90 121t38 145l2 95h300l-3 -74q-10 -138 -65.5 -256.5t-150.5 -208.5t-238 -141t-318 -51zM453 2087h176l270 -195l262 195h176l-366 -262h-144z" />
    <glyph glyph-name="ccaron" unicode="&#x10d;" horiz-adv-x="1460" 
d="M1090 840q-5 53 -27 100.5t-62.5 86.5t-106.5 62t-149 23q-190 0 -279 -102.5t-89 -286.5v-121q0 -181 89 -282t279 -101q89 0 156.5 23t106 63t58.5 86t24 101l6 75h282l-6 -63q-9 -108 -51.5 -200.5t-117.5 -166t-193.5 -115.5t-268.5 -42q-320 0 -485.5 171
t-165.5 470v94q0 297 166 467t485 170q149 0 268 -42t195.5 -115.5t119 -166.5t50.5 -201l4 -65h-282zM299 1714h176l270 -194l263 194h176l-367 -262h-143z" />
    <glyph glyph-name="Dcaron" unicode="&#x10e;" horiz-adv-x="1759" 
d="M176 0v1704h735q360 0 549 -190.5t189 -585.5v-152q0 -392 -190 -584t-548 -192h-735zM408 2087h176l270 -195l262 195h176l-366 -262h-144zM465 252h448q227 0 334 124.5t107 387.5v176q0 263 -107.5 387.5t-335.5 124.5h-446v-1200z" />
    <glyph glyph-name="dcaron" unicode="&#x10f;" horiz-adv-x="1626" 
d="M1104 1704h276v-1704h-276v180q-56 -83 -162.5 -141.5t-261.5 -58.5q-271 0 -430.5 171t-159.5 445v145q0 269 160 440t426 171q155 0 261 -57t167 -140v549zM375 602q0 -79 22 -147t65 -121.5t114 -84t163 -30.5q177 0 271 107.5t94 275.5v129q0 167 -94 274t-273 107
q-92 0 -162.5 -30t-113.5 -83.5t-64.5 -121.5t-21.5 -148v-127zM1434 1202l71 502h183l-134 -502h-120z" />
    <glyph glyph-name="Dcroat" unicode="&#x110;" horiz-adv-x="1871" 
d="M289 0v782h-250v142h250v780h735q737 0 737 -776v-152q0 -392 -189.5 -584t-547.5 -192h-735zM578 252h448q227 0 333.5 124.5t106.5 387.5v176q0 263 -107 387.5t-335 124.5h-446v-528h573v-142h-573v-530z" />
    <glyph glyph-name="dcroat" unicode="&#x111;" horiz-adv-x="1529" 
d="M1104 1704h276v-121h219v-139h-219v-1444h-276v180q-56 -83 -162.5 -141.5t-261.5 -58.5q-271 0 -430.5 171t-159.5 445v145q0 269 160 440t426 171q155 0 261 -57t167 -140v289h-524v139h524v121zM375 602q0 -79 22 -147t65 -121.5t114 -84t163 -30.5q177 0 271 107.5
t94 275.5v129q0 167 -94 274t-273 107q-92 0 -162.5 -30t-113.5 -83.5t-64.5 -121.5t-21.5 -148v-127z" />
    <glyph glyph-name="Emacron" unicode="&#x112;" horiz-adv-x="1505" 
d="M176 0v1704h1210v-256h-921v-469h862v-254h-862v-469h921v-256h-1210zM276 1901v81h1010v-81h-1010z" />
    <glyph glyph-name="emacron" unicode="&#x113;" horiz-adv-x="1472" 
d="M231 1528v82h1010v-82h-1010zM90 621v94q0 297 168 467t494 170q299 0 462.5 -165t163.5 -474v-111h-999q0 -180 91.5 -281.5t283.5 -101.5q142 0 217 55.5t90 141.5l2 30h305l-2 -16q-24 -204 -180.5 -327t-433.5 -123q-327 0 -494.5 170.5t-167.5 470.5zM383 803h707
v37q-19 133 -108.5 202.5t-240.5 69.5q-162 0 -250 -81t-108 -228z" />
    <glyph glyph-name="Edotaccent" unicode="&#x116;" horiz-adv-x="1505" 
d="M176 0v1704h1210v-256h-921v-469h862v-254h-862v-469h921v-256h-1210zM633 1942q0 58 38.5 94.5t110.5 36.5t111 -36.5t39 -94.5q0 -54 -39 -89.5t-111 -35.5t-110.5 35.5t-38.5 89.5z" />
    <glyph glyph-name="edotaccent" unicode="&#x117;" horiz-adv-x="1472" 
d="M735 1450q-83 0 -127.5 37.5t-44.5 97.5q0 65 44 102t128 37q86 0 130 -37t44 -102q0 -60 -45 -97.5t-129 -37.5zM90 621v94q0 297 168 467t494 170q299 0 462.5 -165t163.5 -474v-111h-999q0 -180 91.5 -281.5t283.5 -101.5q142 0 217 55.5t90 141.5l2 30h305l-2 -16
q-24 -204 -180.5 -327t-433.5 -123q-327 0 -494.5 170.5t-167.5 470.5zM383 803h707v37q-19 133 -108.5 202.5t-240.5 69.5q-162 0 -250 -81t-108 -228z" />
    <glyph glyph-name="Eogonek" unicode="&#x118;" horiz-adv-x="1505" 
d="M176 0v1704h1210v-256h-921v-469h862v-254h-862v-469h921v-256q-227 -66 -227 -186q0 -62 55 -88.5t187 -26.5h14l-82 -109h-12q-130 0 -208.5 47t-78.5 134q0 160 250 229h-1108z" />
    <glyph glyph-name="eogonek" unicode="&#x119;" horiz-adv-x="1472" 
d="M874 -410q-130 0 -208 47t-78 134q0 139 186 209h-22q-327 0 -494.5 170.5t-167.5 470.5v94q0 297 168 467t494 170q299 0 462.5 -165t163.5 -474v-111h-999q0 -180 91.5 -281.5t283.5 -101.5q142 0 217 55.5t90 141.5l2 30h305l-2 -16q-21 -170 -135.5 -286t-315.5 -152
q-202 -63 -202 -178q0 -62 54.5 -88.5t186.5 -26.5h15l-82 -109h-13zM383 803h707v37q-19 133 -108.5 202.5t-240.5 69.5q-162 0 -250 -81t-108 -228z" />
    <glyph glyph-name="Ecaron" unicode="&#x11a;" horiz-adv-x="1505" 
d="M176 0v1704h1210v-256h-921v-469h862v-254h-862v-469h921v-256h-1210zM338 2087h176l270 -195l263 195h176l-367 -262h-143z" />
    <glyph glyph-name="ecaron" unicode="&#x11b;" horiz-adv-x="1472" 
d="M668 1452l-375 262h176l270 -194l262 194h177l-367 -262h-143zM90 621v94q0 297 168 467t494 170q299 0 462.5 -165t163.5 -474v-111h-999q0 -180 91.5 -281.5t283.5 -101.5q142 0 217 55.5t90 141.5l2 30h305l-2 -16q-24 -204 -180.5 -327t-433.5 -123
q-327 0 -494.5 170.5t-167.5 470.5zM383 803h707v37q-19 133 -108.5 202.5t-240.5 69.5q-162 0 -250 -81t-108 -228z" />
    <glyph glyph-name="Gcircumflex" unicode="&#x11c;" horiz-adv-x="1812" 
d="M879 -20q-185 0 -333.5 62t-244.5 170t-146.5 252.5t-50.5 313.5v148q0 135 32 254.5t97.5 219t159.5 172t225 112.5t287 40q165 0 305.5 -48.5t238 -132.5t156.5 -198t70 -245v-58h-299l-2 76q-13 164 -140 257t-325 93q-108 0 -195 -27.5t-145 -74.5t-97 -114t-56 -143
t-17 -163v-184q0 -89 17.5 -167t56 -144.5t94.5 -114t137 -74t181 -26.5q209 0 333.5 99t149.5 279v43h-596v238h903v-895h-182l-39 262q-181 -282 -575 -282zM528 1843l310 262h143l301 -262h-160l-213 193l-221 -193h-160z" />
    <glyph glyph-name="gcircumflex" unicode="&#x11d;" horiz-adv-x="1529" 
d="M1104 33v147q-56 -83 -162.5 -141.5t-261.5 -58.5q-271 0 -430.5 171t-159.5 445v145q0 269 160 440t426 171q155 0 261 -57t167 -140v176h276v-1325q0 -122 -22 -208t-73.5 -149t-140 -93.5t-218.5 -30.5h-760v239h717q130 0 175.5 60t45.5 209zM336 1470l309 263h143
l302 -263h-160l-213 193l-221 -193h-160zM375 602q0 -79 22 -147t65 -121.5t114 -84t163 -30.5q177 0 271 107.5t94 275.5v129q0 167 -94 274t-273 107q-92 0 -162.5 -30t-113.5 -83.5t-64.5 -121.5t-21.5 -148v-127z" />
    <glyph glyph-name="Gbreve" unicode="&#x11e;" horiz-adv-x="1812" 
d="M879 -20q-185 0 -333.5 62t-244.5 170t-146.5 252.5t-50.5 313.5v148q0 135 32 254.5t97.5 219t159.5 172t225 112.5t287 40q165 0 305.5 -48.5t238 -132.5t156.5 -198t70 -245v-58h-299l-2 76q-13 164 -140 257t-325 93q-108 0 -195 -27.5t-145 -74.5t-97 -114t-56 -143
t-17 -163v-184q0 -89 17.5 -167t56 -144.5t94.5 -114t137 -74t181 -26.5q209 0 333.5 99t149.5 279v43h-596v238h903v-895h-182l-39 262q-181 -282 -575 -282zM449 2064h102q0 -43 25.5 -73t75.5 -46t111 -23t144 -7q82 0 142.5 6.5t109 23t73.5 46.5t25 73h103
q0 -68 -31.5 -115t-93.5 -73.5t-141 -37.5t-187 -11t-188 11t-143 37.5t-95 73.5t-32 115z" />
    <glyph glyph-name="gbreve" unicode="&#x11f;" horiz-adv-x="1529" 
d="M1104 33v147q-56 -83 -162.5 -141.5t-261.5 -58.5q-271 0 -430.5 171t-159.5 445v145q0 269 160 440t426 171q155 0 261 -57t167 -140v176h276v-1325q0 -122 -22 -208t-73.5 -149t-140 -93.5t-218.5 -30.5h-760v239h717q130 0 175.5 60t45.5 209zM256 1692h102
q0 -43 26 -73.5t76 -46.5t111.5 -23t143.5 -7t142.5 7t109 23.5t73.5 46.5t25 73h102q0 -55 -21 -96t-58.5 -68t-95 -43.5t-124.5 -23.5t-153 -7q-108 0 -188 11.5t-143 37.5t-95.5 73.5t-32.5 115.5zM375 602q0 -79 22 -147t65 -121.5t114 -84t163 -30.5q177 0 271 107.5
t94 275.5v129q0 167 -94 274t-273 107q-92 0 -162.5 -30t-113.5 -83.5t-64.5 -121.5t-21.5 -148v-127z" />
    <glyph glyph-name="Gdotaccent" unicode="&#x120;" horiz-adv-x="1812" 
d="M879 -20q-185 0 -333.5 62t-244.5 170t-146.5 252.5t-50.5 313.5v148q0 135 32 254.5t97.5 219t159.5 172t225 112.5t287 40q165 0 305.5 -48.5t238 -132.5t156.5 -198t70 -245v-58h-299l-2 76q-13 164 -140 257t-325 93q-108 0 -195 -27.5t-145 -74.5t-97 -114t-56 -143
t-17 -163v-184q0 -89 17.5 -167t56 -144.5t94.5 -114t137 -74t181 -26.5q209 0 333.5 99t149.5 279v43h-596v238h903v-895h-182l-39 262q-181 -282 -575 -282zM756 1942q0 58 38.5 94.5t110.5 36.5t111 -36.5t39 -94.5q0 -54 -39 -89.5t-111 -35.5t-110.5 35.5t-38.5 89.5z
" />
    <glyph glyph-name="gdotaccent" unicode="&#x121;" horiz-adv-x="1529" 
d="M1104 33v147q-56 -83 -162.5 -141.5t-261.5 -58.5q-271 0 -430.5 171t-159.5 445v145q0 269 160 440t426 171q155 0 261 -57t167 -140v176h276v-1325q0 -122 -22 -208t-73.5 -149t-140 -93.5t-218.5 -30.5h-760v239h717q130 0 175.5 60t45.5 209zM375 602q0 -79 22 -147
t65 -121.5t114 -84t163 -30.5q177 0 271 107.5t94 275.5v129q0 167 -94 274t-273 107q-92 0 -162.5 -30t-113.5 -83.5t-64.5 -121.5t-21.5 -148v-127zM541 1585q0 65 44 102t128 37q86 0 130 -37t44 -102q0 -60 -45 -97.5t-129 -37.5q-83 0 -127.5 37.5t-44.5 97.5z" />
    <glyph glyph-name="uni0122" unicode="&#x122;" horiz-adv-x="1812" 
d="M879 -20q-185 0 -333.5 62t-244.5 170t-146.5 252.5t-50.5 313.5v148q0 135 32 254.5t97.5 219t159.5 172t225 112.5t287 40q165 0 305.5 -48.5t238 -132.5t156.5 -198t70 -245v-58h-299l-2 76q-13 164 -140 257t-325 93q-108 0 -195 -27.5t-145 -74.5t-97 -114t-56 -143
t-17 -163v-184q0 -89 17.5 -167t56 -144.5t94.5 -114t137 -74t181 -26.5q209 0 333.5 99t149.5 279v43h-596v238h903v-895h-182l-39 262q-181 -282 -575 -282zM784 -176q0 47 30.5 76.5t78.5 29.5q51 0 78.5 -33.5t27.5 -93.5q0 -71 -48.5 -136.5t-137.5 -108.5v92
q105 27 131 110q-26 -36 -72 -36q-37 0 -62.5 26.5t-25.5 73.5z" />
    <glyph glyph-name="uni0123" unicode="&#x123;" horiz-adv-x="1529" 
d="M1104 33v147q-56 -83 -162.5 -141.5t-261.5 -58.5q-271 0 -430.5 171t-159.5 445v145q0 269 160 440t426 171q155 0 261 -57t167 -140v176h276v-1325q0 -122 -22 -208t-73.5 -149t-140 -93.5t-218.5 -30.5h-760v239h717q130 0 175.5 60t45.5 209zM375 602q0 -79 22 -147
t65 -121.5t114 -84t163 -30.5q177 0 271 107.5t94 275.5v129q0 167 -94 274t-273 107q-92 0 -162.5 -30t-113.5 -83.5t-64.5 -121.5t-21.5 -148v-127zM604 1548q0 71 48.5 136t138.5 108v-90q-106 -30 -134 -111q29 37 72 37q37 0 63.5 -27.5t26.5 -72.5q0 -47 -30.5 -78
t-77.5 -31q-51 0 -79 34t-28 95z" />
    <glyph glyph-name="Hcircumflex" unicode="&#x124;" horiz-adv-x="1763" 
d="M1298 0v725h-833v-725h-289v1704h289v-725h833v725h289v-1704h-289zM500 1843l309 262h143l301 -262h-159l-213 193l-222 -193h-159z" />
    <glyph glyph-name="hcircumflex" unicode="&#x125;" horiz-adv-x="1492" 
d="M428 1704v-592q154 240 444 240q225 0 354.5 -145.5t129.5 -397.5v-809h-277v778q0 336 -309 336q-69 0 -124.5 -17t-92 -46t-62 -64t-39 -76.5t-19 -77t-5.5 -71.5v-762h-276v1704h276zM-90 1843l309 262h143l302 -262h-160l-213 193l-221 -193h-160z" />
    <glyph glyph-name="Hbar" unicode="&#x126;" horiz-adv-x="1918" 
d="M1378 0v725h-833v-725h-289v1257h-209v144h209v303h289v-303h833v303h289v-303h207v-144h-207v-1257h-289zM545 979h833v278h-833v-278z" />
    <glyph glyph-name="hbar" unicode="&#x127;" horiz-adv-x="1492" 
d="M428 1704v-125h469v-139h-469v-328q154 240 444 240q225 0 354.5 -145.5t129.5 -397.5v-809h-277v778q0 336 -309 336q-69 0 -124.5 -17t-92 -46t-62 -64t-39 -76.5t-19 -77t-5.5 -71.5v-762h-276v1440h-275v139h275v125h276z" />
    <glyph glyph-name="Itilde" unicode="&#x128;" horiz-adv-x="1337" 
d="M102 0v260h422v1184h-422v260h1133v-260h-422v-1184h422v-260h-1133zM221 1835q0 105 64.5 167t183.5 62q58 0 103.5 -16t76 -39t59 -45.5t67 -38.5t85.5 -16q76 0 115 37t39 102h102q0 -108 -66.5 -168.5t-189.5 -60.5q-61 0 -109.5 16t-79.5 38.5t-59 45.5t-64 39
t-79 16q-71 0 -108 -39t-37 -100h-103z" />
    <glyph glyph-name="itilde" unicode="&#x129;" horiz-adv-x="577" 
d="M152 1331h276v-1331h-276v1331zM-158 1462q0 105 64.5 167.5t183.5 62.5q58 0 103.5 -16t76 -39t59 -46t67 -39t85.5 -16q76 0 115 37t39 102h102q0 -108 -66.5 -168.5t-189.5 -60.5q-61 0 -109.5 16t-79.5 39t-59 46t-64 39t-79 16q-71 0 -108 -39.5t-37 -100.5h-103z
" />
    <glyph glyph-name="Imacron" unicode="&#x12a;" horiz-adv-x="1337" 
d="M102 0v260h422v1184h-422v260h1133v-260h-422v-1184h422v-260h-1133zM164 1901v81h1010v-81h-1010z" />
    <glyph glyph-name="imacron" unicode="&#x12b;" horiz-adv-x="577" 
d="M152 1331h276v-1331h-276v1331zM-47 1528v82h672v-82h-672z" />
    <glyph glyph-name="Iogonek" unicode="&#x12e;" horiz-adv-x="1337" 
d="M102 0v260h422v1184h-422v260h1133v-260h-422v-1184h422v-260q-227 -66 -227 -186q0 -62 54.5 -88.5t186.5 -26.5h15l-82 -109h-13q-130 0 -208 47t-78 134q0 160 250 229h-1031z" />
    <glyph glyph-name="iogonek" unicode="&#x12f;" horiz-adv-x="577" 
d="M152 1331h276v-1331h-2q-227 -66 -227 -186q0 -62 54.5 -88.5t186.5 -26.5h15l-82 -109h-13q-130 0 -208 47t-78 134q0 160 250 229h-172v1331zM117 1585q0 65 44 102t128 37q86 0 130 -37t44 -102q0 -60 -45 -97.5t-129 -37.5q-83 0 -127.5 37.5t-44.5 97.5z" />
    <glyph glyph-name="Idotaccent" unicode="&#x130;" horiz-adv-x="1337" 
d="M102 0v260h422v1184h-422v260h1133v-260h-422v-1184h422v-260h-1133zM520 1942q0 58 39 94.5t111 36.5t110.5 -36.5t38.5 -94.5q0 -54 -38.5 -89.5t-110.5 -35.5t-111 35.5t-39 89.5z" />
    <glyph glyph-name="dotlessi" unicode="&#x131;" horiz-adv-x="577" 
d="M152 1331h276v-1331h-276v1331z" />
    <glyph glyph-name="IJ" unicode="&#x132;" horiz-adv-x="2865" 
d="M102 0v260h422v1184h-422v260h1133v-260h-422v-1184h422v-260h-1133zM1358 657v23h297v-43q0 -81 10.5 -142t36.5 -112t68.5 -83t108.5 -49.5t155 -17.5q108 0 182.5 25t117 76.5t61 120.5t18.5 166v1083h290v-1065q0 -333 -161 -496t-508 -163q-353 0 -514.5 165.5
t-161.5 511.5z" />
    <glyph glyph-name="ij" unicode="&#x133;" horiz-adv-x="1054" 
d="M152 1331h276v-1331h-276v1331zM117 1585q0 65 44 102t128 37q86 0 130 -37t44 -102q0 -60 -45 -97.5t-129 -37.5q-83 0 -127.5 37.5t-44.5 97.5zM233 -475v239h191q114 0 159.5 51t45.5 185v1331h274v-1370q0 -121 -27.5 -207t-81.5 -135.5t-125.5 -71.5t-168.5 -22
h-267zM594 1585q0 65 44 102t128 37q86 0 130 -37t44 -102q0 -60 -45 -97.5t-129 -37.5q-83 0 -127.5 37.5t-44.5 97.5z" />
    <glyph glyph-name="Jcircumflex" unicode="&#x134;" horiz-adv-x="1554" 
d="M725 -20q-353 0 -514.5 165.5t-161.5 511.5v23h297v-43q0 -81 10.5 -142t36.5 -112t68.5 -83t108.5 -49.5t155 -17.5q108 0 182.5 25t117 76.5t61 120.5t18.5 166v1083h291v-1065q0 -333 -161.5 -496t-508.5 -163zM862 1843l309 262h144l301 -262h-160l-213 193
l-221 -193h-160z" />
    <glyph glyph-name="jcircumflex" unicode="&#x135;" horiz-adv-x="577" 
d="M152 0v1331h274v-1370q0 -121 -27.5 -207t-81.5 -135.5t-125.5 -71.5t-168.5 -22h-267v239h191q114 0 159.5 51t45.5 185zM-90 1470l309 263h143l302 -263h-160l-213 193l-221 -193h-160z" />
    <glyph glyph-name="uni0136" unicode="&#x136;" horiz-adv-x="1601" 
d="M1225 0l-672 721h-88v-721h-289v1704h289v-721h88l672 721h372l-817 -852l817 -852h-372zM713 -178q0 47 30.5 76.5t77.5 29.5q51 0 79 -33.5t28 -93.5q0 -70 -49 -136t-138 -109v92q105 27 131 110q-27 -37 -71 -37q-37 0 -62.5 27t-25.5 74z" />
    <glyph glyph-name="uni0137" unicode="&#x137;" horiz-adv-x="1421" 
d="M152 1704h276v-913h121l520 540h352l-663 -663l663 -668h-352l-530 551h-111v-551h-276v1704zM621 -178q0 47 30.5 76.5t77.5 29.5q51 0 79 -33.5t28 -93.5q0 -70 -49 -136t-138 -109v92q105 27 131 110q-27 -37 -71 -37q-37 0 -62.5 27t-25.5 74z" />
    <glyph glyph-name="Lacute" unicode="&#x139;" horiz-adv-x="1419" 
d="M176 0v1704h289v-1448h919v-256h-1208zM244 1937l891 152l18 -80l-891 -151z" />
    <glyph glyph-name="lacute" unicode="&#x13a;" horiz-adv-x="577" 
d="M152 1704h276v-1704h-276v1704zM-166 1937l891 152l18 -80l-890 -151z" />
    <glyph glyph-name="uni013B" unicode="&#x13b;" horiz-adv-x="1419" 
d="M176 0v1704h289v-1448h919v-256h-1208zM666 -178q0 47 30.5 76.5t77.5 29.5q51 0 79 -33.5t28 -93.5q0 -70 -49 -136t-138 -109v92q105 27 131 110q-27 -37 -71 -37q-37 0 -62.5 27t-25.5 74z" />
    <glyph glyph-name="uni013C" unicode="&#x13c;" horiz-adv-x="577" 
d="M152 1704h276v-1704h-276v1704zM182 -178q0 47 30.5 76.5t78.5 29.5q51 0 78.5 -33.5t27.5 -93.5q0 -71 -48.5 -136.5t-137.5 -108.5v92q105 27 131 110q-27 -37 -72 -37q-37 0 -62.5 27t-25.5 74z" />
    <glyph glyph-name="Lcaron" unicode="&#x13d;" horiz-adv-x="1421" 
d="M176 0v1704h289v-1448h919v-256h-1208zM715 1202l71 502h183l-133 -502h-121z" />
    <glyph glyph-name="lcaron" unicode="&#x13e;" horiz-adv-x="675" 
d="M152 1704h276v-1704h-276v1704zM489 1202l72 502h182l-133 -502h-121z" />
    <glyph glyph-name="Lslash" unicode="&#x141;" horiz-adv-x="1558" 
d="M313 0v668l-262 -95v160l262 94v877h289v-774l496 178v-162l-496 -176v-514h920v-256h-1209z" />
    <glyph glyph-name="lslash" unicode="&#x142;" horiz-adv-x="987" 
d="M360 1704h277v-723l317 129v-158l-317 -127v-825h-277v715l-319 -129v155l319 129v834z" />
    <glyph glyph-name="Nacute" unicode="&#x143;" horiz-adv-x="1783" 
d="M176 0v1704h283l866 -1251v1251h283v-1704h-283l-868 1251v-1251h-281zM436 1937l891 152l19 -80l-891 -151z" />
    <glyph glyph-name="nacute" unicode="&#x144;" 
d="M428 1331v-219q154 240 444 240q225 0 354.5 -145.5t129.5 -397.5v-809h-277v778q0 336 -309 336q-69 0 -124.5 -17t-92 -46t-62 -64t-39 -76.5t-19 -77t-5.5 -71.5v-762h-276v1331h276zM305 1565l891 151l18 -80l-890 -151z" />
    <glyph glyph-name="uni0145" unicode="&#x145;" horiz-adv-x="1783" 
d="M176 0v1704h283l866 -1251v1251h283v-1704h-283l-868 1251v-1251h-281zM786 -178q0 47 30.5 76.5t78.5 29.5q51 0 78.5 -33.5t27.5 -93.5q0 -71 -48.5 -136.5t-137.5 -108.5v92q105 27 131 110q-27 -37 -72 -37q-37 0 -62.5 27t-25.5 74z" />
    <glyph glyph-name="uni0146" unicode="&#x146;" 
d="M428 1331v-219q154 240 444 240q225 0 354.5 -145.5t129.5 -397.5v-809h-277v778q0 336 -309 336q-69 0 -124.5 -17t-92 -46t-62 -64t-39 -76.5t-19 -77t-5.5 -71.5v-762h-276v1331h276zM659 -178q0 47 30.5 76.5t78.5 29.5q51 0 78.5 -33.5t27.5 -93.5
q0 -71 -48.5 -136.5t-137.5 -108.5v92q105 27 131 110q-27 -37 -71 -37q-37 0 -63 27t-26 74z" />
    <glyph glyph-name="Ncaron" unicode="&#x147;" horiz-adv-x="1783" 
d="M176 0v1704h283l866 -1251v1251h283v-1704h-283l-868 1251v-1251h-281zM451 2087h176l270 -195l262 195h176l-366 -262h-144z" />
    <glyph glyph-name="ncaron" unicode="&#x148;" 
d="M428 1331v-219q154 240 444 240q225 0 354.5 -145.5t129.5 -397.5v-809h-277v778q0 336 -309 336q-69 0 -124.5 -17t-92 -46t-62 -64t-39 -76.5t-19 -77t-5.5 -71.5v-762h-276v1331h276zM319 1714h177l270 -194l262 194h176l-366 -262h-144z" />
    <glyph glyph-name="Eng" unicode="&#x14a;" horiz-adv-x="1783" 
d="M176 0v1704h283l866 -1251v1251h283v-1704q-1 -118 -18.5 -192t-64 -125t-124.5 -72t-201 -21h-190v258h229q65 0 86 36.5t2 115.5h-2l-868 1251v-1251h-281z" />
    <glyph glyph-name="eng" unicode="&#x14b;" 
d="M428 1331v-219q154 240 444 240q225 0 354.5 -145.5t129.5 -397.5v-809q0 -116 -14 -188t-54 -125t-113 -75t-190 -22h-180v238h110q87 0 125.5 36t38.5 136v778q0 336 -309 336q-69 0 -124.5 -17t-92 -46t-62 -64t-39 -76.5t-19 -77t-5.5 -71.5v-762h-276v1331h276z" />
    <glyph glyph-name="Omacron" unicode="&#x14c;" horiz-adv-x="1804" 
d="M903 -20q-189 0 -342 62t-252.5 171t-153 254t-53.5 313v146q0 167 53.5 312t153 253.5t252.5 170.5t342 62q188 0 340.5 -62t251.5 -170.5t152 -253.5t53 -312v-146q0 -168 -53.5 -313.5t-152.5 -254t-251.5 -170.5t-339.5 -62zM397 1901v81h1010v-81h-1010zM399 762
q0 -110 30 -203.5t90 -166.5t158.5 -114.5t225.5 -41.5t225 41.5t157.5 114.5t89.5 166.5t30 203.5v182q0 86 -18.5 163t-58.5 143.5t-98 114.5t-141.5 75.5t-185.5 27.5q-127 0 -225.5 -41.5t-158.5 -114.5t-90 -165.5t-30 -200.5v-184z" />
    <glyph glyph-name="omacron" unicode="&#x14d;" horiz-adv-x="1460" 
d="M731 -20q-314 0 -476.5 171t-162.5 470v90q0 299 162.5 470t476.5 171q210 0 354.5 -80t213.5 -222t69 -339v-90q0 -197 -69 -339t-213.5 -222t-354.5 -80zM225 1528v82h1010v-82h-1010zM377 606q0 -387 354 -387t354 387v119q0 387 -354 387t-354 -387v-119z" />
    <glyph glyph-name="Ohungarumlaut" unicode="&#x150;" horiz-adv-x="1804" 
d="M903 -20q-189 0 -342 62t-252.5 171t-153 254t-53.5 313v146q0 167 53.5 312t153 253.5t252.5 170.5t342 62q188 0 340.5 -62t251.5 -170.5t152 -253.5t53 -312v-146q0 -168 -53.5 -313.5t-152.5 -254t-251.5 -170.5t-339.5 -62zM399 762q0 -110 30 -203.5t90 -166.5
t158.5 -114.5t225.5 -41.5t225 41.5t157.5 114.5t89.5 166.5t30 203.5v182q0 86 -18.5 163t-58.5 143.5t-98 114.5t-141.5 75.5t-185.5 27.5q-127 0 -225.5 -41.5t-158.5 -114.5t-90 -165.5t-30 -200.5v-184zM686 1827l266 229h138l-246 -229h-158zM969 1827l268 229h135
l-246 -229h-157z" />
    <glyph glyph-name="ohungarumlaut" unicode="&#x151;" horiz-adv-x="1460" 
d="M731 -20q-314 0 -476.5 171t-162.5 470v90q0 299 162.5 470t476.5 171q210 0 354.5 -80t213.5 -222t69 -339v-90q0 -197 -69 -339t-213.5 -222t-354.5 -80zM377 606q0 -387 354 -387t354 387v119q0 387 -354 387t-354 -387v-119zM514 1454l266 229h138l-246 -229h-158z
M797 1454l268 229h135l-246 -229h-157z" />
    <glyph glyph-name="OE" unicode="&#x152;" horiz-adv-x="2394" 
d="M786 -20q-209 0 -364 103t-234 280.5t-79 406.5v170q0 169 46.5 313.5t132 248.5t212.5 163t282 59q150 0 271 -61t200 -172v213h1016v-256h-756v-469h713v-254h-713v-471h756v-254h-1016v211q-77 -112 -196 -171.5t-271 -59.5zM403 758q0 -241 106 -384t306 -143
q134 0 228.5 68.5t139 185t44.5 271.5v198q0 154 -44 269t-138 182.5t-228 67.5q-201 0 -307.5 -143t-106.5 -382v-190z" />
    <glyph glyph-name="oe" unicode="&#x153;" horiz-adv-x="2390" 
d="M715 -20q-195 0 -337.5 81t-215 223.5t-72.5 329.5v103q0 286 166 460.5t459 174.5q339 0 499 -242q152 242 484 242q283 0 441.5 -164.5t158.5 -470.5v-115h-963l-2 -27q9 -162 102 -259t251 -97q235 0 296 197v20h302v-12q-40 -200 -195 -322t-406 -122
q-325 0 -475 233q-165 -233 -493 -233zM375 606q0 -174 87.5 -280.5t258.5 -106.5q170 0 257 106t87 281v119q0 174 -87 280.5t-257 106.5q-171 0 -258.5 -107t-87.5 -280v-119zM1343 807h666v33q-17 132 -103 202t-225 70q-145 0 -231.5 -78.5t-106.5 -222.5v-4z" />
    <glyph glyph-name="Racute" unicode="&#x154;" horiz-adv-x="1724" 
d="M1317 0q-25 29 -25 152v256q0 131 -74.5 186t-213.5 55h-539v-649h-289v1704h834q573 0 573 -508v-6q0 -340 -264 -412q128 -33 196 -130.5t68 -241.5v-254q0 -121 25 -152h-291zM367 1937l890 152l19 -80l-891 -151zM465 899h539q143 0 212.5 56.5t69.5 205.5v45
q0 134 -71.5 190t-223.5 56h-526v-553z" />
    <glyph glyph-name="racute" unicode="&#x155;" horiz-adv-x="1312" 
d="M428 1331v-221q46 104 157 173t253 69q193 0 307.5 -116t114.5 -359v-154h-283v131q0 130 -54.5 195t-177.5 65q-69 0 -125 -20t-91 -52t-58.5 -74t-33 -84t-9.5 -85v-799h-276v1331h276zM260 1565l891 151l18 -80l-890 -151z" />
    <glyph glyph-name="uni0156" unicode="&#x156;" horiz-adv-x="1724" 
d="M1317 0q-25 29 -25 152v256q0 131 -74.5 186t-213.5 55h-539v-649h-289v1704h834q573 0 573 -508v-6q0 -340 -264 -412q128 -33 196 -130.5t68 -241.5v-254q0 -121 25 -152h-291zM465 899h539q143 0 212.5 56.5t69.5 205.5v45q0 134 -71.5 190t-223.5 56h-526v-553z
M770 -178q0 47 30.5 76.5t78.5 29.5q51 0 78.5 -33.5t27.5 -93.5q0 -71 -48.5 -136.5t-137.5 -108.5v92q105 27 131 110q-27 -37 -72 -37q-37 0 -62.5 27t-25.5 74z" />
    <glyph glyph-name="uni0157" unicode="&#x157;" horiz-adv-x="1312" 
d="M428 1331v-221q46 104 157 173t253 69q193 0 307.5 -116t114.5 -359v-154h-283v131q0 130 -54.5 195t-177.5 65q-69 0 -125 -20t-91 -52t-58.5 -74t-33 -84t-9.5 -85v-799h-276v1331h276zM180 -178q0 47 30.5 76.5t78.5 29.5q51 0 78.5 -33.5t27.5 -93.5
q0 -71 -48.5 -136.5t-137.5 -108.5v92q105 27 131 110q-27 -37 -72 -37q-37 0 -62.5 27t-25.5 74z" />
    <glyph glyph-name="Rcaron" unicode="&#x158;" horiz-adv-x="1724" 
d="M1317 0q-25 29 -25 152v256q0 131 -74.5 186t-213.5 55h-539v-649h-289v1704h834q573 0 573 -508v-6q0 -340 -264 -412q128 -33 196 -130.5t68 -241.5v-254q0 -121 25 -152h-291zM379 2087h176l270 -195l262 195h177l-367 -262h-143zM465 899h539q143 0 212.5 56.5
t69.5 205.5v45q0 134 -71.5 190t-223.5 56h-526v-553z" />
    <glyph glyph-name="rcaron" unicode="&#x159;" horiz-adv-x="1312" 
d="M428 1331v-221q46 104 157 173t253 69q193 0 307.5 -116t114.5 -359v-154h-283v131q0 130 -54.5 195t-177.5 65q-69 0 -125 -20t-91 -52t-58.5 -74t-33 -84t-9.5 -85v-799h-276v1331h276zM272 1714h177l270 -194l262 194h176l-366 -262h-144z" />
    <glyph glyph-name="Sacute" unicode="&#x15a;" horiz-adv-x="1626" 
d="M838 -20q-382 0 -566 148t-184 441v39h295v-57q0 -172 109 -248t352 -76q202 0 295.5 55t93.5 175v18q-1 115 -72.5 166t-257.5 88l-338 78q-428 97 -428 446q0 230 170 350.5t494 120.5q338 0 511 -131.5t173 -382.5v-41h-293v50q0 136 -91.5 197t-297.5 61
q-187 0 -278 -50t-91 -153v-12q0 -95 75.5 -147.5t225.5 -82.5l342 -76q110 -23 189.5 -57.5t140.5 -88.5t91 -134t30 -187q0 -267 -164 -388t-526 -121zM344 1937l891 152l18 -80l-891 -151z" />
    <glyph glyph-name="sacute" unicode="&#x15b;" horiz-adv-x="1415" 
d="M971 760q105 -22 176.5 -57.5t110.5 -84.5t55 -102.5t16 -122.5q0 -74 -17 -134t-59.5 -113t-110 -89t-172.5 -56.5t-243 -20.5q-180 0 -307 31.5t-201.5 94.5t-107.5 148t-33 201v34h287v-32q0 -134 86 -188t274 -54q174 0 246.5 40.5t72.5 121.5q0 66 -51.5 106
t-167.5 68l-311 63q-113 19 -191.5 53.5t-121.5 81.5t-61.5 99.5t-18.5 118.5q0 82 29 149t92.5 121.5t176.5 84.5t269 30q137 0 242 -22t173 -60.5t111.5 -94.5t61.5 -119.5t18 -140.5v-30h-286v28q0 113 -77.5 158t-242.5 45q-81 0 -141.5 -12.5t-99.5 -43.5t-39 -79
q0 -54 45.5 -87t152.5 -56zM238 1565l890 151l19 -80l-891 -151z" />
    <glyph glyph-name="Scircumflex" unicode="&#x15c;" horiz-adv-x="1626" 
d="M838 -20q-382 0 -566 148t-184 441v39h295v-57q0 -172 109 -248t352 -76q202 0 295.5 55t93.5 175v18q-1 115 -72.5 166t-257.5 88l-338 78q-428 97 -428 446q0 230 170 350.5t494 120.5q338 0 511 -131.5t173 -382.5v-41h-293v50q0 136 -91.5 197t-297.5 61
q-187 0 -278 -50t-91 -153v-12q0 -95 75.5 -147.5t225.5 -82.5l342 -76q110 -23 189.5 -57.5t140.5 -88.5t91 -134t30 -187q0 -267 -164 -388t-526 -121zM424 1843l309 262h144l301 -262h-160l-213 193l-221 -193h-160z" />
    <glyph glyph-name="scircumflex" unicode="&#x15d;" horiz-adv-x="1415" 
d="M971 760q105 -22 176.5 -57.5t110.5 -84.5t55 -102.5t16 -122.5q0 -74 -17 -134t-59.5 -113t-110 -89t-172.5 -56.5t-243 -20.5q-180 0 -307 31.5t-201.5 94.5t-107.5 148t-33 201v34h287v-32q0 -134 86 -188t274 -54q174 0 246.5 40.5t72.5 121.5q0 66 -51.5 106
t-167.5 68l-311 63q-113 19 -191.5 53.5t-121.5 81.5t-61.5 99.5t-18.5 118.5q0 82 29 149t92.5 121.5t176.5 84.5t269 30q137 0 242 -22t173 -60.5t111.5 -94.5t61.5 -119.5t18 -140.5v-30h-286v28q0 113 -77.5 158t-242.5 45q-81 0 -141.5 -12.5t-99.5 -43.5t-39 -79
q0 -54 45.5 -87t152.5 -56zM317 1470l310 263h143l301 -263h-160l-213 193l-221 -193h-160z" />
    <glyph glyph-name="Scedilla" unicode="&#x15e;" horiz-adv-x="1626" 
d="M702 -332q140 0 197 13.5t57 58.5q0 25 -13.5 39t-44 18t-66.5 1.5t-95 -9.5l47 191q-355 10 -525.5 158.5t-170.5 430.5v39h295v-57q0 -172 109 -248t352 -76q202 0 295.5 55t93.5 175v18q-1 115 -72.5 166t-257.5 88l-338 78q-428 97 -428 446q0 230 170 350.5
t494 120.5q338 0 511 -131.5t173 -382.5v-41h-293v50q0 136 -91.5 197t-297.5 61q-187 0 -278 -50t-91 -153v-12q0 -95 75.5 -147.5t225.5 -82.5l342 -76q110 -23 189.5 -57.5t140.5 -88.5t91 -134t30 -187q0 -258 -152.5 -380t-488.5 -129l-27 -103q105 10 163 -19t58 -112
q0 -95 -88.5 -132.5t-290.5 -37.5v92z" />
    <glyph glyph-name="scedilla" unicode="&#x15f;" horiz-adv-x="1415" 
d="M971 760q105 -22 176.5 -57.5t110.5 -84.5t55 -102.5t16 -122.5q0 -72 -16 -130.5t-55.5 -111t-102.5 -88.5t-161 -58t-226 -25l-27 -103q222 21 222 -131q0 -95 -88.5 -132.5t-290.5 -37.5v92q140 0 197 13.5t57 58.5q0 48 -57 57t-163 -8l48 191q-163 6 -278 40
t-182.5 96.5t-97.5 145t-30 193.5v34h287v-32q0 -134 86 -188t274 -54q174 0 246.5 40.5t72.5 121.5q0 66 -51.5 106t-167.5 68l-311 63q-113 19 -191.5 53.5t-121.5 81.5t-61.5 99.5t-18.5 118.5q0 82 29 149t92.5 121.5t176.5 84.5t269 30q137 0 242 -22t173 -60.5
t111.5 -94.5t61.5 -119.5t18 -140.5v-30h-286v28q0 113 -77.5 158t-242.5 45q-81 0 -141.5 -12.5t-99.5 -43.5t-39 -79q0 -54 45.5 -87t152.5 -56z" />
    <glyph glyph-name="Scaron" unicode="&#x160;" horiz-adv-x="1626" 
d="M838 -20q-382 0 -566 148t-184 441v39h295v-57q0 -172 109 -248t352 -76q202 0 295.5 55t93.5 175v18q-1 115 -72.5 166t-257.5 88l-338 78q-428 97 -428 446q0 230 170 350.5t494 120.5q338 0 511 -131.5t173 -382.5v-41h-293v50q0 136 -91.5 197t-297.5 61
q-187 0 -278 -50t-91 -153v-12q0 -95 75.5 -147.5t225.5 -82.5l342 -76q110 -23 189.5 -57.5t140.5 -88.5t91 -134t30 -187q0 -267 -164 -388t-526 -121zM358 2087h177l270 -195l262 195h176l-366 -262h-144z" />
    <glyph glyph-name="scaron" unicode="&#x161;" horiz-adv-x="1415" 
d="M971 760q105 -22 176.5 -57.5t110.5 -84.5t55 -102.5t16 -122.5q0 -74 -17 -134t-59.5 -113t-110 -89t-172.5 -56.5t-243 -20.5q-180 0 -307 31.5t-201.5 94.5t-107.5 148t-33 201v34h287v-32q0 -134 86 -188t274 -54q174 0 246.5 40.5t72.5 121.5q0 66 -51.5 106
t-167.5 68l-311 63q-113 19 -191.5 53.5t-121.5 81.5t-61.5 99.5t-18.5 118.5q0 82 29 149t92.5 121.5t176.5 84.5t269 30q137 0 242 -22t173 -60.5t111.5 -94.5t61.5 -119.5t18 -140.5v-30h-286v28q0 113 -77.5 158t-242.5 45q-81 0 -141.5 -12.5t-99.5 -43.5t-39 -79
q0 -54 45.5 -87t152.5 -56zM252 1714h176l270 -194l263 194h176l-367 -262h-143z" />
    <glyph glyph-name="uni0162" unicode="&#x162;" horiz-adv-x="1511" 
d="M610 0v1448h-573v256h1436v-256h-574v-1448h-94l-31 -123q105 10 163 -19t58 -112q0 -95 -88.5 -132.5t-290.5 -37.5v92q140 0 197 13.5t57 58.5q0 25 -13.5 39t-44 18t-66.5 1.5t-95 -9.5l51 211h-92z" />
    <glyph glyph-name="uni0163" unicode="&#x163;" horiz-adv-x="1150" 
d="M1065 1331v-239h-424v-641q0 -124 28 -167.5t111 -43.5h285v-240h-274l-27 -102q105 10 163 -19t58 -112q0 -95 -88.5 -132.5t-290.5 -37.5v92q141 0 197.5 13.5t56.5 57.5q0 25 -13.5 39t-44 18t-67 2t-94.5 -9l47 190q-95 4 -158.5 31t-99 80t-49.5 121t-14 165v695
h-347v239h156q127 4 176.5 94t46.5 279h275q0 -154 -33.5 -254t-103.5 -119h528z" />
    <glyph glyph-name="Tcaron" unicode="&#x164;" horiz-adv-x="1511" 
d="M610 0v1448h-573v256h1436v-256h-574v-1448h-289zM311 2087h176l271 -195l262 195h176l-367 -262h-143z" />
    <glyph glyph-name="tcaron" unicode="&#x165;" horiz-adv-x="1150" 
d="M1065 1331v-239h-424v-641q0 -124 28 -167.5t111 -43.5h285v-240h-346q-104 0 -174 25t-108.5 78t-54 123t-15.5 171v695h-347v239h156q127 4 176.5 94t46.5 279h275q0 -154 -33.5 -254t-103.5 -119h528zM784 1448l97 465h182l-158 -465h-121z" />
    <glyph glyph-name="Tbar" unicode="&#x166;" horiz-adv-x="1558" 
d="M633 0v688h-420v141h420v619h-574v256h1436v-256h-573v-619h426v-141h-426v-688h-289z" />
    <glyph glyph-name="tbar" unicode="&#x167;" horiz-adv-x="1179" 
d="M1087 1331v-239h-423v-289h421v-141h-421v-211q0 -124 28 -167.5t111 -43.5h284v-240h-346q-104 0 -174 25t-108.5 78t-54 123t-15.5 171v265h-342v141h342v289h-346v239h156q127 4 176.5 94t46.5 279h274q0 -154 -33.5 -254t-103.5 -119h528z" />
    <glyph glyph-name="Utilde" unicode="&#x168;" horiz-adv-x="1751" 
d="M877 -20q-380 0 -547.5 157t-167.5 510v1057h289v-1073q0 -220 101.5 -309t324.5 -89q222 0 322.5 89t100.5 309v1073h289v-1057q0 -355 -167.5 -511t-544.5 -156zM428 1835q0 105 64.5 167t183.5 62q58 0 103.5 -16t76 -39t59 -45.5t67 -38.5t85.5 -16q76 0 115 37
t39 102h102q0 -108 -66.5 -168.5t-189.5 -60.5q-61 0 -109.5 16t-79.5 38.5t-59 45.5t-64 39t-79 16q-72 0 -109 -39t-37 -100h-102z" />
    <glyph glyph-name="utilde" unicode="&#x169;" 
d="M1065 0v223q-152 -243 -447 -243q-225 0 -354 145t-129 397v809h277v-778q0 -336 309 -336q69 0 124.5 17t92 46t62 64t39 76.5t19 77t5.5 71.5l2 -34v796h276v-1331h-276zM270 1462q0 105 64.5 167.5t183.5 62.5q58 0 103.5 -16t76 -39t59 -46t67 -39t85.5 -16
q76 0 115 37t39 102h102q0 -108 -66.5 -168.5t-189.5 -60.5q-61 0 -109.5 16t-79.5 39t-59 46t-64 39t-79 16q-71 0 -108 -39.5t-37 -100.5h-103z" />
    <glyph glyph-name="Umacron" unicode="&#x16a;" horiz-adv-x="1751" 
d="M877 -20q-380 0 -547.5 157t-167.5 510v1057h289v-1073q0 -220 101.5 -309t324.5 -89q222 0 322.5 89t100.5 309v1073h289v-1057q0 -355 -167.5 -511t-544.5 -156zM371 1901v81h1009v-81h-1009z" />
    <glyph glyph-name="umacron" unicode="&#x16b;" 
d="M1065 0v223q-152 -243 -447 -243q-225 0 -354 145t-129 397v809h277v-778q0 -336 309 -336q69 0 124.5 17t92 46t62 64t39 76.5t19 77t5.5 71.5l2 -34v796h276v-1331h-276zM213 1528v82h1010v-82h-1010z" />
    <glyph glyph-name="Ubreve" unicode="&#x16c;" horiz-adv-x="1751" 
d="M877 -20q-380 0 -547.5 157t-167.5 510v1057h289v-1073q0 -220 101.5 -309t324.5 -89q222 0 322.5 89t100.5 309v1073h289v-1057q0 -355 -167.5 -511t-544.5 -156zM420 2064h102q0 -43 26 -73t76 -46t111 -23t144 -7q82 0 142.5 6.5t109 23t73.5 46.5t25 73h102
q0 -68 -31 -115t-93 -73.5t-141 -37.5t-187 -11t-188 11t-143 37.5t-95.5 73.5t-32.5 115z" />
    <glyph glyph-name="ubreve" unicode="&#x16d;" 
d="M1065 0v223q-152 -243 -447 -243q-225 0 -354 145t-129 397v809h277v-778q0 -336 309 -336q69 0 124.5 17t92 46t62 64t39 76.5t19 77t5.5 71.5l2 -34v796h276v-1331h-276zM262 1692h103q0 -43 25.5 -73t75.5 -46.5t111.5 -23.5t143.5 -7t142.5 7t109 23.5t73.5 46.5
t25 73h103q0 -68 -31.5 -115.5t-93 -73.5t-141 -37.5t-187.5 -11.5t-188 11.5t-143 37.5t-95.5 73.5t-32.5 115.5z" />
    <glyph glyph-name="Uring" unicode="&#x16e;" horiz-adv-x="1751" 
d="M877 -20q-380 0 -547.5 157t-167.5 510v1057h289v-1073q0 -220 101.5 -309t324.5 -89q222 0 322.5 89t100.5 309v1073h289v-1057q0 -355 -167.5 -511t-544.5 -156zM711 1962q0 71 49.5 118.5t116.5 47.5t116 -47.5t49 -118.5t-49 -118.5t-116 -47.5t-116.5 47.5
t-49.5 118.5zM803 1962q0 -33 20.5 -53.5t53.5 -20.5t53 20.5t20 53.5t-20 53.5t-53 20.5t-53.5 -20.5t-20.5 -53.5z" />
    <glyph glyph-name="uring" unicode="&#x16f;" 
d="M1065 0v223q-152 -243 -447 -243q-225 0 -354 145t-129 397v809h277v-778q0 -336 309 -336q69 0 124.5 17t92 46t62 64t39 76.5t19 77t5.5 71.5l2 -34v796h276v-1331h-276zM553 1589q0 71 49.5 118.5t116.5 47.5t116.5 -47.5t49.5 -118.5t-49.5 -118.5t-116.5 -47.5
t-116.5 47.5t-49.5 118.5zM645 1589q0 -33 20.5 -53t53.5 -20t53.5 20t20.5 53t-20.5 53.5t-53.5 20.5t-53.5 -20.5t-20.5 -53.5z" />
    <glyph glyph-name="Uhungarumlaut" unicode="&#x170;" horiz-adv-x="1751" 
d="M877 -20q-380 0 -547.5 157t-167.5 510v1057h289v-1073q0 -220 101.5 -309t324.5 -89q222 0 322.5 89t100.5 309v1073h289v-1057q0 -355 -167.5 -511t-544.5 -156zM659 1827l267 229h137l-246 -229h-158zM942 1827l268 229h136l-246 -229h-158z" />
    <glyph glyph-name="uhungarumlaut" unicode="&#x171;" 
d="M1065 0v223q-152 -243 -447 -243q-225 0 -354 145t-129 397v809h277v-778q0 -336 309 -336q69 0 124.5 17t92 46t62 64t39 76.5t19 77t5.5 71.5l2 -34v796h276v-1331h-276zM502 1454l266 229h137l-246 -229h-157zM784 1454l269 229h135l-246 -229h-158z" />
    <glyph glyph-name="Uogonek" unicode="&#x172;" horiz-adv-x="1751" 
d="M877 -20q-380 0 -547.5 157t-167.5 510v1057h289v-1073q0 -220 101.5 -309t324.5 -89q222 0 322.5 89t100.5 309v1073h289v-1057q0 -294 -113 -449.5t-360 -199.5q-221 -66 -221 -184q0 -62 55 -88.5t187 -26.5h14l-82 -109h-12q-130 0 -208.5 47t-78.5 134
q0 139 191 211q-27 -2 -84 -2z" />
    <glyph glyph-name="uogonek" unicode="&#x173;" 
d="M1065 0v223q-152 -243 -447 -243q-225 0 -354 145t-129 397v809h277v-778q0 -336 309 -336q69 0 124.5 17t92 46t62 64t39 76.5t19 77t5.5 71.5l2 -34v796h276v-1331q-227 -66 -227 -186q0 -62 55 -88.5t187 -26.5h14l-82 -109h-12q-130 0 -208.5 47t-78.5 134
q0 160 250 229h-174z" />
    <glyph glyph-name="Wcircumflex" unicode="&#x174;" horiz-adv-x="2539" 
d="M508 0l-475 1704h299l368 -1385l383 1385h373l385 -1382l2 -5l365 1387h299l-473 -1704h-381l-377 1366l-4 18l-6 -18l-377 -1366h-381zM893 1843l309 262h144l301 -262h-160l-213 193l-221 -193h-160z" />
    <glyph glyph-name="wcircumflex" unicode="&#x175;" horiz-adv-x="2109" 
d="M678 1470l309 263h143l302 -263h-160l-213 193l-221 -193h-160zM37 1331h278l267 -1116l280 1116h387l281 -1116l266 1116h279l-355 -1331h-366l-299 1133l-299 -1133h-365z" />
    <glyph glyph-name="Ycircumflex" unicode="&#x176;" horiz-adv-x="1587" 
d="M651 0v596l-655 1108h332l467 -821l467 821h329l-653 -1108v-596h-287zM416 1843l309 262h143l301 -262h-159l-213 193l-222 -193h-159z" />
    <glyph glyph-name="ycircumflex" unicode="&#x177;" 
d="M1063 -8v227q-154 -239 -445 -239q-225 0 -354 145t-129 397v809h277v-778q0 -336 309 -336q69 0 124.5 17t92 46t62 64t39 76.5t19 77t5.5 71.5v762h278v-1341q0 -465 -415 -465h-756v239h715q92 0 135 51.5t43 176.5zM367 1470l309 263h143l301 -263h-159l-213 193
l-222 -193h-159z" />
    <glyph glyph-name="Ydieresis" unicode="&#x178;" horiz-adv-x="1587" 
d="M651 0v596l-655 1108h332l467 -821l467 821h329l-653 -1108v-596h-287zM408 1950q0 63 40.5 98t100.5 35q59 0 101 -35t42 -98q0 -62 -42 -97.5t-101 -35.5q-60 0 -100.5 35.5t-40.5 97.5zM895 1950q0 63 41.5 98t101.5 35q59 0 100.5 -35t41.5 -98q0 -62 -41.5 -97.5
t-100.5 -35.5q-60 0 -101.5 35.5t-41.5 97.5z" />
    <glyph glyph-name="Zacute" unicode="&#x179;" horiz-adv-x="1521" 
d="M96 0v258l965 1190h-965v256h1329v-258l-966 -1190h966v-256h-1329zM305 1937l891 152l18 -80l-890 -151z" />
    <glyph glyph-name="zacute" unicode="&#x17a;" horiz-adv-x="1349" 
d="M90 1331h1170v-239l-828 -852h838v-240h-1190v240l829 852h-819v239zM217 1565l891 151l18 -80l-890 -151z" />
    <glyph glyph-name="Zdotaccent" unicode="&#x17b;" horiz-adv-x="1521" 
d="M96 0v258l965 1190h-965v256h1329v-258l-966 -1190h966v-256h-1329zM610 1942q0 58 39 94.5t111 36.5t110.5 -36.5t38.5 -94.5q0 -54 -38.5 -89.5t-110.5 -35.5t-111 35.5t-39 89.5z" />
    <glyph glyph-name="zdotaccent" unicode="&#x17c;" horiz-adv-x="1349" 
d="M90 1331h1170v-239l-828 -852h838v-240h-1190v240l829 852h-819v239zM502 1585q0 65 44 102t128 37q86 0 130 -37t44 -102q0 -60 -45 -97.5t-129 -37.5q-83 0 -127.5 37.5t-44.5 97.5z" />
    <glyph glyph-name="Zcaron" unicode="&#x17d;" horiz-adv-x="1521" 
d="M96 0v258l965 1190h-965v256h1329v-258l-966 -1190h966v-256h-1329zM317 2087h177l270 -195l262 195h176l-366 -262h-144z" />
    <glyph glyph-name="zcaron" unicode="&#x17e;" horiz-adv-x="1349" 
d="M90 1331h1170v-239l-828 -852h838v-240h-1190v240l829 852h-819v239zM231 1714h177l270 -194l262 194h176l-366 -262h-144z" />
    <glyph glyph-name="uni0218" unicode="&#x218;" horiz-adv-x="1626" 
d="M838 -20q-382 0 -566 148t-184 441v39h295v-57q0 -172 109 -248t352 -76q202 0 295.5 55t93.5 175v18q-1 115 -72.5 166t-257.5 88l-338 78q-428 97 -428 446q0 230 170 350.5t494 120.5q338 0 511 -131.5t173 -382.5v-41h-293v50q0 136 -91.5 197t-297.5 61
q-187 0 -278 -50t-91 -153v-12q0 -95 75.5 -147.5t225.5 -82.5l342 -76q110 -23 189.5 -57.5t140.5 -88.5t91 -134t30 -187q0 -267 -164 -388t-526 -121zM731 -178q0 47 30.5 76.5t78.5 29.5q51 0 78.5 -33.5t27.5 -93.5q0 -71 -48.5 -136.5t-137.5 -108.5v92
q105 27 131 110q-27 -37 -72 -37q-37 0 -62.5 27t-25.5 74z" />
    <glyph glyph-name="uni0219" unicode="&#x219;" horiz-adv-x="1415" 
d="M971 760q105 -22 176.5 -57.5t110.5 -84.5t55 -102.5t16 -122.5q0 -74 -17 -134t-59.5 -113t-110 -89t-172.5 -56.5t-243 -20.5q-180 0 -307 31.5t-201.5 94.5t-107.5 148t-33 201v34h287v-32q0 -134 86 -188t274 -54q174 0 246.5 40.5t72.5 121.5q0 66 -51.5 106
t-167.5 68l-311 63q-113 19 -191.5 53.5t-121.5 81.5t-61.5 99.5t-18.5 118.5q0 82 29 149t92.5 121.5t176.5 84.5t269 30q137 0 242 -22t173 -60.5t111.5 -94.5t61.5 -119.5t18 -140.5v-30h-286v28q0 113 -77.5 158t-242.5 45q-81 0 -141.5 -12.5t-99.5 -43.5t-39 -79
q0 -54 45.5 -87t152.5 -56zM614 -178q0 47 30.5 76.5t78.5 29.5q51 0 78.5 -33.5t27.5 -93.5q0 -71 -48.5 -136.5t-137.5 -108.5v92q105 27 131 110q-27 -37 -72 -37q-37 0 -62.5 27t-25.5 74z" />
    <glyph glyph-name="uni021A" unicode="&#x21a;" horiz-adv-x="1511" 
d="M610 0v1448h-573v256h1436v-256h-574v-1448h-289zM647 -178q0 47 30.5 76.5t78.5 29.5q51 0 78.5 -33.5t27.5 -93.5q0 -71 -48.5 -136.5t-137.5 -108.5v92q105 27 131 110q-27 -37 -72 -37q-37 0 -62.5 27t-25.5 74z" />
    <glyph glyph-name="uni021B" unicode="&#x21b;" horiz-adv-x="1150" 
d="M1065 1331v-239h-424v-641q0 -124 28 -167.5t111 -43.5h285v-240h-346q-104 0 -174 25t-108.5 78t-54 123t-15.5 171v695h-347v239h156q127 4 176.5 94t46.5 279h275q0 -154 -33.5 -254t-103.5 -119h528zM637 -158q0 47 30.5 77t77.5 30q51 0 79 -33.5t28 -93.5
q0 -71 -48.5 -137t-137.5 -109v92q104 26 131 111q-27 -37 -72 -37q-37 0 -62.5 26.5t-25.5 73.5z" />
    <glyph glyph-name="uni0237" unicode="&#x237;" horiz-adv-x="577" 
d="M152 0v1331h274v-1370q0 -121 -27.5 -207t-81.5 -135.5t-125.5 -71.5t-168.5 -22h-267v239h191q114 0 159.5 51t45.5 185z" />
    <glyph glyph-name="circumflex" unicode="&#x2c6;" horiz-adv-x="1163" 
d="M205 1470l309 263h143l301 -263h-159l-213 193l-221 -193h-160z" />
    <glyph glyph-name="caron" unicode="&#x2c7;" horiz-adv-x="1294" 
d="M580 1452l-375 262h176l270 -194l262 194h177l-367 -262h-143z" />
    <glyph glyph-name="breve" unicode="&#x2d8;" horiz-adv-x="1320" 
d="M664 1454q-108 0 -188 11.5t-143 37.5t-95.5 73.5t-32.5 115.5h102q0 -43 26 -73.5t76 -46.5t111.5 -23t143.5 -7t142.5 7t109 23.5t73.5 46.5t25 73h102q0 -55 -21 -96t-58.5 -68t-95 -43.5t-124.5 -23.5t-153 -7z" />
    <glyph glyph-name="dotaccent" unicode="&#x2d9;" horiz-adv-x="755" 
d="M377 1450q-83 0 -127.5 37.5t-44.5 97.5q0 65 44 102t128 37q86 0 130 -37t44 -102q0 -60 -45 -97.5t-129 -37.5z" />
    <glyph glyph-name="ring" unicode="&#x2da;" horiz-adv-x="741" 
d="M371 1423q-67 0 -116.5 47.5t-49.5 118.5t49.5 118.5t116.5 47.5t116.5 -47.5t49.5 -118.5t-49.5 -118.5t-116.5 -47.5zM297 1589q0 -33 20.5 -53t53.5 -20t53 20t20 53t-20 53.5t-53 20.5t-53.5 -20.5t-20.5 -53.5z" />
    <glyph glyph-name="ogonek" unicode="&#x2db;" horiz-adv-x="778" 
d="M481 -410q-130 0 -208 47t-78 134q0 160 249 229h103q-116 -34 -172 -79.5t-56 -106.5q0 -62 55 -88.5t187 -26.5h14l-81 -109h-13z" />
    <glyph glyph-name="tilde" unicode="&#x2dc;" horiz-adv-x="1304" 
d="M205 1462q0 105 64.5 167.5t183.5 62.5q58 0 103.5 -16t76 -39t59 -46t67 -39t85.5 -16q76 0 114.5 37t38.5 102h103q0 -108 -66.5 -168.5t-189.5 -60.5q-61 0 -109.5 16t-79.5 39t-59 46t-64 39t-79 16q-71 0 -108.5 -39.5t-37.5 -100.5h-102z" />
    <glyph glyph-name="hungarumlaut" unicode="&#x2dd;" horiz-adv-x="1095" 
d="M645 1454h-158l269 229h135zM205 1454l266 229h137l-246 -229h-157z" />
    <glyph glyph-name="uni1E20" unicode="&#x1e20;" horiz-adv-x="1812" 
d="M879 -20q-185 0 -333.5 62t-244.5 170t-146.5 252.5t-50.5 313.5v148q0 135 32 254.5t97.5 219t159.5 172t225 112.5t287 40q165 0 305.5 -48.5t238 -132.5t156.5 -198t70 -245v-58h-299l-2 76q-13 164 -140 257t-325 93q-108 0 -195 -27.5t-145 -74.5t-97 -114t-56 -143
t-17 -163v-184q0 -89 17.5 -167t56 -144.5t94.5 -114t137 -74t181 -26.5q209 0 333.5 99t149.5 279v43h-596v238h903v-895h-182l-39 262q-181 -282 -575 -282zM399 1901v81h1010v-81h-1010z" />
    <glyph glyph-name="uni1E21" unicode="&#x1e21;" horiz-adv-x="1529" 
d="M1104 33v147q-56 -83 -162.5 -141.5t-261.5 -58.5q-271 0 -430.5 171t-159.5 445v145q0 269 160 440t426 171q155 0 261 -57t167 -140v176h276v-1325q0 -122 -22 -208t-73.5 -149t-140 -93.5t-218.5 -30.5h-760v239h717q130 0 175.5 60t45.5 209zM207 1528v82h1010v-82
h-1010zM375 602q0 -79 22 -147t65 -121.5t114 -84t163 -30.5q177 0 271 107.5t94 275.5v129q0 167 -94 274t-273 107q-92 0 -162.5 -30t-113.5 -83.5t-64.5 -121.5t-21.5 -148v-127z" />
    <glyph glyph-name="Wgrave" unicode="&#x1e80;" horiz-adv-x="2539" 
d="M508 0l-475 1704h299l368 -1385l383 1385h373l385 -1382l2 -5l365 1387h299l-473 -1704h-381l-377 1366l-4 18l-6 -18l-377 -1366h-381zM764 1976l20 80l990 -151l-21 -80z" />
    <glyph glyph-name="wgrave" unicode="&#x1e81;" horiz-adv-x="2109" 
d="M1559 1532l-21 -80l-989 152l20 79zM37 1331h278l267 -1116l280 1116h387l281 -1116l266 1116h279l-355 -1331h-366l-299 1133l-299 -1133h-365z" />
    <glyph glyph-name="Wacute" unicode="&#x1e82;" horiz-adv-x="2539" 
d="M508 0l-475 1704h299l368 -1385l383 1385h373l385 -1382l2 -5l365 1387h299l-473 -1704h-381l-377 1366l-4 18l-6 -18l-377 -1366h-381zM813 1937l891 152l18 -80l-891 -151z" />
    <glyph glyph-name="wacute" unicode="&#x1e83;" horiz-adv-x="2109" 
d="M616 1485l-18 80l891 151l18 -80zM37 1331h278l267 -1116l280 1116h387l281 -1116l266 1116h279l-355 -1331h-366l-299 1133l-299 -1133h-365z" />
    <glyph glyph-name="Wdieresis" unicode="&#x1e84;" horiz-adv-x="2539" 
d="M508 0l-475 1704h299l368 -1385l383 1385h373l385 -1382l2 -5l365 1387h299l-473 -1704h-381l-377 1366l-4 18l-6 -18l-377 -1366h-381zM883 1950q0 63 40.5 98t100.5 35q59 0 101 -35t42 -98q0 -62 -42 -97.5t-101 -35.5q-60 0 -100.5 35.5t-40.5 97.5zM1370 1950
q0 63 41.5 98t101.5 35q59 0 100.5 -35t41.5 -98q0 -62 -41.5 -97.5t-100.5 -35.5q-60 0 -101.5 35.5t-41.5 97.5z" />
    <glyph glyph-name="wdieresis" unicode="&#x1e85;" horiz-adv-x="2109" 
d="M1298 1444q-60 0 -101.5 35.5t-41.5 97.5q0 63 41.5 98t101.5 35q59 0 100.5 -35t41.5 -98q0 -62 -41.5 -97.5t-100.5 -35.5zM37 1331h278l267 -1116l280 1116h387l281 -1116l266 1116h279l-355 -1331h-366l-299 1133l-299 -1133h-365zM668 1577q0 63 40.5 98t100.5 35
q59 0 101 -35t42 -98q0 -62 -42 -97.5t-101 -35.5q-60 0 -100.5 35.5t-40.5 97.5z" />
    <glyph glyph-name="uni1E9E" unicode="&#x1e9e;" horiz-adv-x="1560" 
d="M166 1237q0 237 152 352t466 115h643q-23 -197 -46.5 -322.5t-58 -217.5t-80 -139t-112.5 -69q158 -34 237 -146t79 -282v-30q0 -130 -38 -227.5t-108 -155.5t-161 -86.5t-205 -28.5h-359v236h244q195 0 271.5 60.5t76.5 223.5v47q0 130 -79.5 193.5t-278.5 64.5h-234
v234h207q93 0 147.5 15t95.5 63.5t64.5 122.5t49.5 210h-353q-180 0 -262 -54t-82 -179v-1237h-276v1237z" />
    <glyph glyph-name="uni1EBC" unicode="&#x1ebc;" horiz-adv-x="1505" 
d="M176 0v1704h1210v-256h-921v-469h862v-254h-862v-469h921v-256h-1210zM334 1835q0 105 64.5 167t183.5 62q58 0 103.5 -16t76 -39t59 -45.5t67 -38.5t85.5 -16q76 0 114.5 37t38.5 102h103q0 -108 -66.5 -168.5t-189.5 -60.5q-61 0 -109.5 16t-79.5 38.5t-59 45.5t-64 39
t-79 16q-72 0 -109 -39t-37 -100h-102z" />
    <glyph glyph-name="uni1EBD" unicode="&#x1ebd;" horiz-adv-x="1472" 
d="M289 1462q0 105 64.5 167.5t183.5 62.5q58 0 103.5 -16t76 -39t59 -46t67 -39t85.5 -16q76 0 114.5 37t38.5 102h103q0 -108 -66.5 -168.5t-189.5 -60.5q-61 0 -109.5 16t-79.5 39t-59 46t-64 39t-79 16q-71 0 -108.5 -39.5t-37.5 -100.5h-102zM90 621v94q0 297 168 467
t494 170q299 0 462.5 -165t163.5 -474v-111h-999q0 -180 91.5 -281.5t283.5 -101.5q142 0 217 55.5t90 141.5l2 30h305l-2 -16q-24 -204 -180.5 -327t-433.5 -123q-327 0 -494.5 170.5t-167.5 470.5zM383 803h707v37q-19 133 -108.5 202.5t-240.5 69.5q-162 0 -250 -81
t-108 -228z" />
    <glyph glyph-name="Ygrave" unicode="&#x1ef2;" horiz-adv-x="1587" 
d="M651 0v596l-655 1108h332l467 -821l467 821h329l-653 -1108v-596h-287zM287 1976l20 80l989 -151l-20 -80z" />
    <glyph glyph-name="ygrave" unicode="&#x1ef3;" 
d="M1063 -8v227q-154 -239 -445 -239q-225 0 -354 145t-129 397v809h277v-778q0 -336 309 -336q69 0 124.5 17t92 46t62 64t39 76.5t19 77t5.5 71.5v762h278v-1341q0 -465 -415 -465h-756v239h715q92 0 135 51.5t43 176.5zM240 1604l20 79l989 -151l-20 -80z" />
    <glyph glyph-name="uni1EF8" unicode="&#x1ef8;" horiz-adv-x="1587" 
d="M651 0v596l-655 1108h332l467 -821l467 821h329l-653 -1108v-596h-287zM344 1835q0 105 64.5 167t183.5 62q58 0 103.5 -16t76 -39t59 -45.5t67 -38.5t85.5 -16q76 0 115 37t39 102h102q0 -108 -66.5 -168.5t-189.5 -60.5q-61 0 -109.5 16t-79.5 38.5t-59 45.5t-64 39
t-79 16q-72 0 -109 -39t-37 -100h-102z" />
    <glyph glyph-name="uni1EF9" unicode="&#x1ef9;" 
d="M1063 -8v227q-154 -239 -445 -239q-225 0 -354 145t-129 397v809h277v-778q0 -336 309 -336q69 0 124.5 17t92 46t62 64t39 76.5t19 77t5.5 71.5v762h278v-1341q0 -465 -415 -465h-756v239h715q92 0 135 51.5t43 176.5zM297 1462q0 105 64.5 167.5t183.5 62.5
q58 0 103.5 -16t76 -39t59 -46t67 -39t85.5 -16q76 0 115 37t39 102h102q0 -108 -66.5 -168.5t-189.5 -60.5q-61 0 -109.5 16t-79.5 39t-59 46t-64 39t-79 16q-71 0 -108.5 -39.5t-37.5 -100.5h-102z" />
    <glyph glyph-name="uni2000" unicode="&#x2000;" horiz-adv-x="1024" 
 />
    <glyph glyph-name="uni2001" unicode="&#x2001;" horiz-adv-x="2048" 
 />
    <glyph glyph-name="uni2002" unicode="&#x2002;" horiz-adv-x="1024" 
 />
    <glyph glyph-name="uni2003" unicode="&#x2003;" horiz-adv-x="2048" 
 />
    <glyph glyph-name="uni2004" unicode="&#x2004;" horiz-adv-x="681" 
 />
    <glyph glyph-name="uni2005" unicode="&#x2005;" horiz-adv-x="512" 
 />
    <glyph glyph-name="uni2006" unicode="&#x2006;" horiz-adv-x="342" 
 />
    <glyph glyph-name="uni2007" unicode="&#x2007;" horiz-adv-x="1746" 
 />
    <glyph glyph-name="uni2008" unicode="&#x2008;" horiz-adv-x="530" 
 />
    <glyph glyph-name="uni2009" unicode="&#x2009;" horiz-adv-x="256" 
 />
    <glyph glyph-name="uni200A" unicode="&#x200a;" horiz-adv-x="86" 
 />
    <glyph glyph-name="uni200B" unicode="&#x200b;" horiz-adv-x="0" 
 />
    <glyph glyph-name="endash" unicode="&#x2013;" horiz-adv-x="1857" 
d="M96 723h1663v-90h-1663v90z" />
    <glyph glyph-name="emdash" unicode="&#x2014;" horiz-adv-x="3061" 
d="M96 723h2867v-92h-2867v92z" />
    <glyph glyph-name="quoteleft" unicode="&#x2018;" horiz-adv-x="419" 
d="M236 1212h-148l131 512h127z" />
    <glyph glyph-name="quoteright" unicode="&#x2019;" horiz-adv-x="415" 
d="M205 1724h147l-131 -512h-127z" />
    <glyph glyph-name="quotesinglbase" unicode="&#x201a;" horiz-adv-x="415" 
d="M158 268h147l-131 -512h-127z" />
    <glyph glyph-name="quotedblleft" unicode="&#x201c;" horiz-adv-x="657" 
d="M475 1212h-147l131 512h127zM88 1212l131 512h127l-110 -512h-148z" />
    <glyph glyph-name="quotedblright" unicode="&#x201d;" horiz-adv-x="653" 
d="M205 1724h147l-131 -512h-127zM332 1212l110 512h148l-131 -512h-127z" />
    <glyph glyph-name="quotedblbase" unicode="&#x201e;" horiz-adv-x="655" 
d="M158 268h147l-131 -512h-127zM287 -244l110 512h148l-131 -512h-127z" />
    <glyph glyph-name="dagger" unicode="&#x2020;" horiz-adv-x="591" 
d="M246 659v629h-117v96h117v320h102v-320h117v-96h-117v-629h-102z" />
    <glyph glyph-name="daggerdbl" unicode="&#x2021;" horiz-adv-x="624" 
d="M262 659v299h-117v97h117v233h-117v96h117v320h103v-320h116v-96h-116v-233h116v-97h-116v-299h-103z" />
    <glyph glyph-name="bullet" unicode="&#x2022;" horiz-adv-x="917" 
d="M459 416q-121 0 -202 76t-81 200q0 129 81 208t202 79q120 0 200 -79t80 -208q0 -124 -80 -200t-200 -76z" />
    <glyph glyph-name="ellipsis" unicode="&#x2026;" horiz-adv-x="1404" 
d="M266 -20q-71 0 -118.5 44.5t-47.5 116.5q0 75 47.5 121.5t118.5 46.5q69 0 116.5 -46.5t47.5 -121.5q0 -72 -47.5 -116.5t-116.5 -44.5zM545 141q0 75 47.5 121.5t118.5 46.5q69 0 116 -46.5t47 -121.5q0 -72 -47 -116.5t-116 -44.5q-71 0 -118.5 44.5t-47.5 116.5z
M975 141q0 75 47.5 121.5t118.5 46.5q69 0 116.5 -46.5t47.5 -121.5q0 -72 -47.5 -116.5t-116.5 -44.5q-71 0 -118.5 44.5t-47.5 116.5z" />
    <glyph glyph-name="uni202F" unicode="&#x202f;" horiz-adv-x="444" 
 />
    <glyph glyph-name="perthousand" unicode="&#x2030;" horiz-adv-x="2791" 
d="M2359 -20q-89 0 -163.5 34t-122.5 90t-74.5 127t-26.5 146q0 102 44.5 190.5t134.5 146.5t208 58q119 0 209.5 -58t135 -146.5t44.5 -190.5t-44.5 -191t-135 -147.5t-209.5 -58.5zM51 1327q0 75 26.5 146t74.5 127t122.5 90t163.5 34q119 0 209.5 -58.5t135 -147.5
t44.5 -191t-44.5 -190.5t-135 -146.5t-209.5 -58q-118 0 -208 58t-134.5 146.5t-44.5 190.5zM266 1327q0 -87 48 -138.5t124 -51.5q77 0 125.5 51.5t48.5 138.5q0 88 -48.5 140.5t-125.5 52.5q-76 0 -124 -52.5t-48 -140.5zM301 0l1159 1704h150l-1159 -1704h-150zM1087 377
q0 102 45 190.5t136 146.5t209 58t208.5 -58t135.5 -146.5t45 -190.5t-45 -191t-135.5 -147.5t-208.5 -58.5t-209 58.5t-136 147.5t-45 191zM1305 377q0 -88 48 -140.5t124 -52.5t124 52.5t48 140.5q0 87 -48 138.5t-124 51.5t-124 -51.5t-48 -138.5zM2187 377
q0 -88 48 -140.5t124 -52.5q77 0 125.5 52.5t48.5 140.5q0 87 -48.5 138.5t-125.5 51.5q-76 0 -124 -51.5t-48 -138.5z" />
    <glyph glyph-name="second" unicode="&#x2033;" horiz-adv-x="669" 
d="M131 1704h145v-512h-145v512zM393 1192v512h146v-512h-146z" />
    <glyph glyph-name="guilsinglleft" unicode="&#x2039;" horiz-adv-x="757" 
d="M598 268l-502 365v86l502 364v-161l-352 -246l352 -246v-162z" />
    <glyph glyph-name="guilsinglright" unicode="&#x203a;" horiz-adv-x="757" 
d="M158 268v162l352 246l-352 246v161l501 -364v-86z" />
    <glyph glyph-name="fraction" unicode="&#x2044;" horiz-adv-x="229" 
d="M745 1704l-1153 -1704h-114l1153 1704h114z" />
    <glyph glyph-name="uni205F" unicode="&#x205f;" horiz-adv-x="454" 
 />
    <glyph glyph-name="uni2070" unicode="&#x2070;" horiz-adv-x="901" 
d="M451 698q-180 0 -281.5 107.5t-101.5 294.5v71q0 187 101 293.5t282 106.5q182 0 283.5 -106.5t101.5 -293.5v-71q0 -188 -102 -295t-283 -107zM250 1090q0 -51 8 -84l324 364q-46 43 -131 43q-100 0 -150.5 -61.5t-50.5 -169.5v-92zM322 897q50 -41 129 -41
q100 0 150 61.5t50 172.5v92q0 45 -8 78z" />
    <glyph glyph-name="uni2074" unicode="&#x2074;" horiz-adv-x="849" 
d="M688 1561v-547h105v-160h-105v-145h-180v145h-467v164l469 543h178zM219 1014h289v321z" />
    <glyph glyph-name="uni2075" unicode="&#x2075;" horiz-adv-x="868" 
d="M496 1280q145 0 227 -69.5t82 -209.5v-18q-3 -285 -367 -285q-183 0 -276.5 72t-93.5 209v6h184v-14q0 -115 188 -115q95 0 138 29t43 90v33q0 122 -183 122q-119 0 -190 -71h-170l35 502h653v-158h-492l-20 -205q97 82 242 82z" />
    <glyph glyph-name="uni2076" unicode="&#x2076;" horiz-adv-x="880" 
d="M442 698q-188 0 -278 83t-90 257v156q0 194 93.5 285.5t287.5 91.5q165 0 250.5 -62.5t85.5 -183.5v-4h-183v4q0 39 -38 60.5t-111 21.5q-201 0 -201 -141v-49q75 75 221 75q155 0 245.5 -76t90.5 -206v-23q0 -143 -94.5 -216t-278.5 -73zM258 977q0 -62 44.5 -91.5
t139.5 -29.5q189 0 189 121v35q0 63 -43 92t-139 29q-99 0 -145 -30.5t-46 -92.5v-33z" />
    <glyph glyph-name="uni2077" unicode="&#x2077;" horiz-adv-x="763" 
d="M31 1403v158h694v-158q-61 -41 -110.5 -85.5t-84 -90.5t-60 -87.5t-41 -91t-25.5 -85.5t-14 -86.5t-5.5 -80t-1.5 -77.5v-10h-182v10q0 62 2.5 108t12 114.5t31 125t55.5 118.5t90 117.5t130 100.5h-491z" />
    <glyph glyph-name="uni2078" unicode="&#x2078;" horiz-adv-x="878" 
d="M438 698q-370 0 -370 250v10q0 85 36.5 140t98.5 73q-55 18 -87 61.5t-32 110.5v9q0 106 91.5 162.5t268.5 56.5q351 0 351 -221v-7q0 -66 -31.5 -110t-85.5 -62q62 -19 97.5 -73.5t35.5 -141.5v-8q0 -250 -373 -250zM252 958q0 -62 40 -87t146 -25q108 0 149.5 25
t41.5 87v25q0 58 -41 82.5t-150 24.5q-107 0 -146.5 -24t-39.5 -83v-25zM268 1323q0 -42 38 -61t132 -19q96 0 134 19t38 63v18q0 43 -39 61.5t-133 18.5q-93 0 -131.5 -18.5t-38.5 -63.5v-18z" />
    <glyph glyph-name="uni2079" unicode="&#x2079;" horiz-adv-x="878" 
d="M436 1571q189 0 279 -82.5t90 -257.5v-156q0 -193 -93 -285t-288 -92q-164 0 -249 62.5t-85 183.5v4h182v-4q0 -39 38.5 -60.5t111.5 -21.5q201 0 201 142v49q-76 -76 -224 -76q-155 0 -245.5 76t-90.5 207v22q0 142 95 215.5t278 73.5zM248 1257q0 -62 43.5 -91
t140.5 -29q191 0 191 123v32q0 62 -45 91.5t-140 29.5q-98 0 -144 -29.5t-46 -91.5v-35z" />
    <glyph glyph-name="uni2080" unicode="&#x2080;" horiz-adv-x="901" 
d="M451 -266q-181 0 -282 107t-101 294v72q0 187 101 293t282 106q182 0 283.5 -106t101.5 -293v-72q0 -188 -102 -294.5t-283 -106.5zM250 125q0 -51 8 -84l324 365q-46 43 -131 43q-100 0 -150.5 -62t-50.5 -170v-92zM322 -68q50 -41 129 -41q100 0 150 61.5t50 172.5v92
q0 45 -8 78z" />
    <glyph glyph-name="uni2081" unicode="&#x2081;" horiz-adv-x="706" 
d="M72 -98h213v501q-98 -45 -215 -45v166q74 0 130.5 14t100.5 58h164v-694h213v-158h-606v158z" />
    <glyph glyph-name="uni2082" unicode="&#x2082;" horiz-adv-x="880" 
d="M72 -86q0 241 254 289l137 22q90 18 127 43.5t37 77.5v6q0 97 -174 97q-103 0 -146 -34.5t-43 -103.5v-16h-182v12q0 142 89.5 220.5t279.5 78.5q178 0 268 -67.5t90 -198.5q0 -214 -242 -258l-153 -31q-57 -11 -89.5 -24t-47.5 -33.5t-18 -38t-3 -53.5h553v-158h-737
v170z" />
    <glyph glyph-name="uni2083" unicode="&#x2083;" horiz-adv-x="860" 
d="M424 -266q-191 0 -279 65.5t-92 216.5v11h183v-17q4 -72 48 -98.5t138 -26.5q107 0 146.5 25t39.5 78v20q0 56 -40 76t-140 20h-117v146h117q89 0 128.5 22t39.5 72v18q0 93 -174 93q-85 0 -125.5 -27t-44.5 -90v-14h-182v10q9 146 96.5 209t261.5 63q182 0 266 -63
t84 -168v-6q0 -68 -34.5 -120.5t-98.5 -70.5q69 -13 107.5 -64t38.5 -122v-6q0 -127 -88.5 -189.5t-278.5 -62.5z" />
    <glyph glyph-name="uni2084" unicode="&#x2084;" horiz-adv-x="847" 
d="M688 596v-547h105v-160h-105v-145h-180v145h-467v164l469 543h178zM219 49h289v322z" />
    <glyph glyph-name="uni2085" unicode="&#x2085;" horiz-adv-x="868" 
d="M496 315q145 0 227 -69t82 -209v-19q-3 -284 -367 -284q-183 0 -276.5 71.5t-93.5 208.5v6h184v-14q0 -115 188 -115q95 0 138 29t43 90v33q0 123 -183 123q-118 0 -190 -72h-170l35 502h653v-158h-492l-20 -205q97 82 242 82z" />
    <glyph glyph-name="uni2086" unicode="&#x2086;" horiz-adv-x="880" 
d="M442 -266q-188 0 -278 83t-90 257v155q0 194 93.5 285.5t287.5 91.5q165 0 250.5 -62.5t85.5 -183.5v-4h-183v4q0 39 -38 60.5t-111 21.5q-201 0 -201 -141v-49q76 76 221 76q155 0 245.5 -76t90.5 -207v-22q0 -143 -94.5 -216t-278.5 -73zM258 12q0 -62 44.5 -91.5
t139.5 -29.5q189 0 189 121v35q0 63 -43 92t-139 29q-99 0 -145 -30.5t-46 -92.5v-33z" />
    <glyph glyph-name="uni2087" unicode="&#x2087;" horiz-adv-x="759" 
d="M27 438v158h694v-158q-61 -41 -110.5 -85.5t-84 -90.5t-60 -87.5t-41 -91t-25.5 -85.5t-14 -86.5t-5.5 -80t-1.5 -77.5v-10h-182v10q0 62 2.5 108t12 114.5t31 125t55.5 118.5t90 117.5t130 100.5h-491z" />
    <glyph glyph-name="uni2088" unicode="&#x2088;" horiz-adv-x="878" 
d="M438 -266q-370 0 -370 250v10q0 85 36.5 140t98.5 73q-55 18 -87 61.5t-32 110.5v8q0 106 91.5 162.5t268.5 56.5q351 0 351 -221v-6q0 -66 -31.5 -110t-85.5 -62q62 -19 97.5 -73.5t35.5 -141.5v-8q0 -250 -373 -250zM252 -6q0 -62 40 -87.5t146 -25.5q107 0 149 25.5
t42 87.5v24q0 58 -41 82.5t-150 24.5q-107 0 -146.5 -24t-39.5 -83v-24zM268 358q0 -42 37.5 -60.5t132.5 -18.5q96 0 134 18.5t38 62.5v19q0 43 -39 61.5t-133 18.5q-93 0 -131.5 -18.5t-38.5 -63.5v-19z" />
    <glyph glyph-name="uni2089" unicode="&#x2089;" horiz-adv-x="880" 
d="M438 606q189 0 279 -82.5t90 -257.5v-155q0 -193 -93 -285t-288 -92q-164 0 -249 62.5t-85 183.5v4h182v-4q0 -39 38.5 -60.5t111.5 -21.5q201 0 201 141v49q-76 -76 -224 -76q-155 0 -245 76t-90 207v22q0 142 94.5 215.5t277.5 73.5zM250 293q0 -62 43.5 -91.5
t140.5 -29.5q191 0 191 123v33q0 62 -45 91.5t-140 29.5q-98 0 -144 -29.5t-46 -91.5v-35z" />
    <glyph glyph-name="Euro" unicode="&#x20ac;" horiz-adv-x="1847" 
d="M117 721v86h164v90h-164v86h166q7 159 57 292.5t140.5 234.5t230 157.5t313.5 56.5q130 0 241 -33.5t192 -93t140.5 -141.5t91.5 -179t40 -206l4 -74h-299l-2 93q-13 163 -117 270.5t-289 107.5q-112 0 -198 -38t-138 -105.5t-79.5 -153t-32.5 -188.5h565v-86h-565v-90
h565v-86h-565q5 -105 32.5 -190.5t79.5 -152.5t137 -104.5t197 -37.5q97 0 174 30.5t125 84t75.5 120.5t33.5 145l2 95h299l-4 -74q-10 -139 -59.5 -257t-135.5 -208t-217.5 -141t-294.5 -51q-173 0 -311.5 56.5t-228.5 157t-140.5 234t-58.5 293.5h-166z" />
    <glyph glyph-name="trademark" unicode="&#x2122;" horiz-adv-x="1705" 
d="M739 874v830h183l221 -590l225 590h180v-830h-159v512l-193 -512h-104l-193 508v-508h-160zM59 1542v162h625v-162h-231v-668h-162v668h-232z" />
    <glyph glyph-name="oneeighth" unicode="&#x215b;" horiz-adv-x="2072" 
d="M92 1010h213v501q-98 -45 -215 -45v166q74 0 131 14t101 58h163v-694h213v-158h-606v158zM334 0l1151 1704h114l-1153 -1704h-112zM1266 240v10q0 85 36.5 140t98.5 73q-55 18 -87 61.5t-32 110.5v8q0 106 91.5 162.5t268.5 56.5q351 0 351 -221v-6q0 -66 -31.5 -110
t-85.5 -62q62 -19 97.5 -73.5t35.5 -141.5v-8q0 -250 -373 -250q-370 0 -370 250zM1450 250q0 -62 40 -87.5t146 -25.5q107 0 149 25.5t42 87.5v24q0 58 -41 82.5t-150 24.5q-107 0 -146.5 -24t-39.5 -83v-24zM1466 614q0 -42 37.5 -60.5t132.5 -18.5q96 0 134 18.5t38 62.5
v19q0 43 -39 61.5t-133 18.5q-93 0 -131.5 -18.5t-38.5 -63.5v-19z" />
    <glyph glyph-name="threeeighths" unicode="&#x215c;" horiz-adv-x="2213" 
d="M438 842q-191 0 -278.5 65.5t-91.5 216.5v11h182v-17q4 -72 48 -98.5t138 -26.5q107 0 147 25t40 78v20q0 56 -40.5 76t-140.5 20h-116v146h116q89 0 128.5 22t39.5 72v18q0 93 -174 93q-85 0 -125.5 -27t-44.5 -90v-14h-182v10q9 146 96.5 209t261.5 63q182 0 266.5 -63
t84.5 -168v-6q0 -68 -35 -120.5t-99 -70.5q69 -13 107.5 -64t38.5 -122v-6q0 -127 -88.5 -189.5t-278.5 -62.5zM469 0l1153 1704h113l-1153 -1704h-113zM1403 240v10q0 85 36.5 140t98.5 73q-55 18 -87 61.5t-32 110.5v8q0 106 92 162.5t269 56.5q350 0 350 -221v-6
q0 -66 -31.5 -110t-85.5 -62q62 -19 97.5 -73.5t35.5 -141.5v-8q0 -250 -372 -250q-371 0 -371 250zM1587 250q0 -62 40.5 -87.5t146.5 -25.5q107 0 148.5 25.5t41.5 87.5v24q0 58 -40.5 82.5t-149.5 24.5q-108 0 -147.5 -24t-39.5 -83v-24zM1604 614q0 -42 37.5 -60.5
t132.5 -18.5q96 0 134 18.5t38 62.5v19q0 43 -39 61.5t-133 18.5q-93 0 -131.5 -18.5t-38.5 -63.5v-19z" />
    <glyph glyph-name="fiveeighths" unicode="&#x215d;" horiz-adv-x="2197" 
d="M492 1423q145 0 227 -69t82 -209v-19q-3 -284 -367 -284q-184 0 -277.5 71.5t-93.5 208.5v6h185v-14q0 -115 188 -115q95 0 137.5 29t42.5 90v33q0 123 -182 123q-118 0 -190 -72h-170l35 502h653v-158h-492l-20 -205q97 82 242 82zM457 0l1153 1704h112l-1153 -1704
h-112zM1391 240v10q0 85 36.5 140t98.5 73q-55 18 -87 61.5t-32 110.5v8q0 106 91.5 162.5t268.5 56.5q351 0 351 -221v-6q0 -66 -31.5 -110t-85.5 -62q62 -19 97.5 -73.5t35.5 -141.5v-8q0 -250 -373 -250q-370 0 -370 250zM1575 250q0 -62 40 -87.5t146 -25.5
q107 0 149 25.5t42 87.5v24q0 58 -41 82.5t-150 24.5q-107 0 -146.5 -24t-39.5 -83v-24zM1591 614q0 -42 37.5 -60.5t132.5 -18.5q96 0 134 18.5t38 62.5v19q0 43 -39 61.5t-133 18.5q-93 0 -131.5 -18.5t-38.5 -63.5v-19z" />
    <glyph glyph-name="seveneighths" unicode="&#x215e;" horiz-adv-x="2109" 
d="M37 1546v158h694v-158q-61 -41 -110.5 -85.5t-84 -90.5t-60 -87.5t-41 -91t-25.5 -85.5t-14 -86.5t-5.5 -80t-1.5 -77.5v-10h-182v10q0 62 2.5 108t12 114.5t31 125t55.5 118.5t90 117.5t130 100.5h-491zM365 0l1153 1704h112l-1153 -1704h-112zM1296 240v10q0 85 37 140
t99 73q-55 18 -87 61.5t-32 110.5v8q0 106 91.5 162.5t268.5 56.5q350 0 350 -221v-6q0 -66 -31.5 -110t-84.5 -62q62 -19 97.5 -73.5t35.5 -141.5v-8q0 -250 -373 -250q-371 0 -371 250zM1481 250q0 -62 40 -87.5t146 -25.5q107 0 149 25.5t42 87.5v24q0 58 -41 82.5
t-150 24.5q-107 0 -146.5 -24t-39.5 -83v-24zM1497 614q0 -42 37.5 -60.5t132.5 -18.5q96 0 134 18.5t38 62.5v19q0 43 -39 61.5t-133 18.5q-93 0 -131.5 -18.5t-38.5 -63.5v-19z" />
    <glyph glyph-name="arrowleft" unicode="&#x2190;" horiz-adv-x="1378" 
d="M285 631q121 -42 208 -144t119 -243h-110q-10 66 -50.5 130t-97.5 113.5t-122.5 86.5t-131.5 57v90q66 20 131.5 57t122.5 86.5t97.5 113.5t50.5 130h110q-32 -141 -119 -243t-208 -144h991v-90h-991z" />
    <glyph glyph-name="arrowup" unicode="&#x2191;" horiz-adv-x="1032" 
d="M561 29h-90v991q-42 -121 -144 -208.5t-243 -119.5v111q88 14 170 78.5t136.5 149t80.5 173.5h90q26 -89 80.5 -173.5t136.5 -149t170 -78.5v-111q-141 32 -243 119.5t-144 208.5v-991z" />
    <glyph glyph-name="arrowright" unicode="&#x2192;" horiz-adv-x="1378" 
d="M102 631v90h992q-121 42 -208.5 144t-119.5 243h111q14 -88 78.5 -170t149 -136.5t173.5 -80.5v-90q-89 -26 -173.5 -80.5t-149 -136.5t-78.5 -170h-111q32 141 119.5 243t208.5 144h-992z" />
    <glyph glyph-name="arrowdown" unicode="&#x2193;" horiz-adv-x="1030" 
d="M469 1325h90v-991q42 121 144 208.5t243 119.5v-111q-88 -14 -170 -78.5t-136.5 -149t-80.5 -173.5h-90q-26 89 -80.5 173.5t-136.5 149t-170 78.5v111q141 -32 243 -119.5t144 -208.5v991z" />
    <glyph glyph-name="arrowboth" unicode="&#x2194;" horiz-adv-x="1781" 
d="M98 725q140 40 260.5 147.5t141.5 237.5h112q-32 -141 -120 -243t-209 -142h1216q-121 40 -209.5 142t-120.5 243h113q21 -130 141 -237.5t260 -147.5v-94q-140 -40 -260 -147.5t-141 -237.5h-113q32 141 120.5 243t209.5 142h-1216q121 -40 209 -142t120 -243h-112
q-21 130 -141.5 237.5t-260.5 147.5v94z" />
    <glyph glyph-name="arrowupdn" unicode="&#x2195;" horiz-adv-x="1046" 
d="M571 1450q40 -140 147.5 -260t237.5 -141v-113q-141 32 -243 120.5t-142 209.5v-1217q40 121 142 209.5t243 120.5v-113q-130 -21 -237.5 -141t-147.5 -260h-94q-40 140 -147.5 260t-237.5 141v113q141 -32 243 -120.5t142 -209.5v1217q-40 -121 -142 -209.5t-243 -120.5
v113q130 21 237.5 141t147.5 260h94z" />
    <glyph glyph-name="uni2196" unicode="&#x2196;" horiz-adv-x="1081" 
d="M1010 324l-64 -64l-700 701q56 -113 45.5 -247.5t-86.5 -258.5l-80 80q53 71 65.5 174.5t-9 202t-66.5 180.5l65 63q82 -45 180 -66.5t201.5 -9t175.5 65.5l78 -78q-124 -77 -258.5 -88t-247.5 45z" />
    <glyph glyph-name="uni2197" unicode="&#x2197;" horiz-adv-x="1081" 
d="M135 260l-63 64l700 700q-113 -56 -247.5 -45t-256.5 88l78 78q71 -53 174.5 -65.5t202 9t180.5 66.5l64 -63q-45 -82 -66.5 -180t-9.5 -202t65 -175l-77 -80q-77 124 -88 258.5t45 247.5z" />
    <glyph glyph-name="uni2198" unicode="&#x2198;" horiz-adv-x="1079" 
d="M68 1110l63 64l703 -703q-56 114 -46.5 249.5t86.5 256.5l78 -78q-52 -72 -63.5 -176t9.5 -201.5t65 -179.5l-64 -63q-82 44 -180 65t-201.5 9t-175.5 -64l-78 78q122 77 257 87t249 -46z" />
    <glyph glyph-name="uni2199" unicode="&#x2199;" horiz-adv-x="1079" 
d="M946 1174l64 -64l-701 -700q113 56 247.5 45t258.5 -88l-78 -78q-72 53 -176 65.5t-202 -9t-181 -66.5l-63 63q45 82 66.5 180.5t9 202t-65.5 174.5l78 80q77 -124 88 -258.5t-45 -247.5z" />
    <glyph glyph-name="uni21E7" unicode="&#x21e7;" horiz-adv-x="1763" 
d="M512 -14v604h-426l795 883l794 -883h-426v-604h-737zM315 692h299v-604h533v604h299l-565 629z" />
    <glyph glyph-name="partialdiff" unicode="&#x2202;" horiz-adv-x="1554" 
d="M760 -268q-703 0 -703 540q0 57 7.5 107.5t27.5 105t52.5 98.5t86.5 85t125.5 68.5t173 44t224.5 16.5q424 0 575 -199q-30 141 -100.5 253.5t-195.5 209.5t-317 170.5t-454 124.5l35 90q315 -61 536.5 -157t360 -234.5t201.5 -312.5t63 -400q0 -150 -35.5 -259.5
t-115 -190t-216 -120.5t-331.5 -40zM160 272q0 -109 32 -189.5t102 -139t186.5 -88t279.5 -29.5q171 0 289.5 33t184.5 98t94 148.5t28 197.5q0 109 -40.5 186.5t-120 124t-187.5 67.5t-252 21q-145 0 -252.5 -22.5t-172 -60t-104 -94.5t-53.5 -117t-14 -136z" />
    <glyph glyph-name="emptyset" unicode="&#x2205;" horiz-adv-x="1830" 
d="M913 291q-164 0 -307 26l-217 -317h-115l236 344q-105 32 -182.5 84t-123 118.5t-66.5 140.5t-21 159q0 92 25 171.5t83.5 150.5t148.5 121t227 79t312 29q170 0 299 -27l228 334h114l-243 -356q211 -63 307 -194t96 -308q0 -94 -25 -174t-84 -151.5t-149.5 -121.5
t-228.5 -79t-314 -29zM223 846q0 -325 342 -420l588 858q-112 16 -240 16q-690 0 -690 -454zM666 406q114 -19 247 -19q695 0 695 459q0 325 -355 418z" />
    <glyph glyph-name="product" unicode="&#x220f;" horiz-adv-x="1570" 
d="M1102 -225v1552h-633v-1552h-102v1552h-336v90h1511v-90h-338v-1552h-102z" />
    <glyph glyph-name="summation" unicode="&#x2211;" horiz-adv-x="1458" 
d="M63 -236v89l680 739l-680 743v88h1332v-88h-1205l680 -741l-680 -741h1205v-89h-1332z" />
    <glyph glyph-name="minus" unicode="&#x2212;" horiz-adv-x="1746" 
d="M117 895h1511v-90h-1511v90z" />
    <glyph glyph-name="radical" unicode="&#x221a;" horiz-adv-x="1626" 
d="M543 -225l-455 733h113l391 -635l596 1540h383v-88h-311l-601 -1550h-116z" />
    <glyph glyph-name="infinity" unicode="&#x221e;" horiz-adv-x="1783" 
d="M1335 393q-73 0 -136.5 17t-119.5 51.5t-95.5 67t-92.5 83.5q-42 -41 -72 -67t-75 -58t-86 -50.5t-95.5 -31t-113.5 -12.5q-67 0 -125 16.5t-105 49.5t-73.5 88.5t-26.5 128.5q0 76 28 132.5t76.5 88t105 46.5t120.5 15q73 0 136.5 -17t119 -51.5t95.5 -67t91 -83.5
q42 41 72 67t75 58t86 50.5t95.5 31t113.5 12.5q65 0 121.5 -15t104.5 -46.5t76 -88t28 -132.5q0 -73 -26.5 -128.5t-72.5 -88.5t-104 -49.5t-125 -16.5zM221 678q0 -96 59.5 -142.5t163.5 -46.5q114 0 200.5 48t180.5 139q-95 90 -181.5 138t-199.5 48q-111 0 -167 -48.5
t-56 -135.5zM958 676q96 -91 181.5 -139t199.5 -48q104 0 163 47.5t59 141.5q0 86 -56 135t-168 49q-60 0 -113 -14t-101 -43t-83.5 -57.5t-81.5 -71.5z" />
    <glyph glyph-name="integral" unicode="&#x222b;" horiz-adv-x="966" 
d="M33 -268v88h69q194 0 263 72t69 264v860q0 229 95.5 329.5t322.5 100.5h86v-88h-70q-100 0 -162.5 -16.5t-101 -57.5t-53 -103t-14.5 -161v-860q0 -228 -95 -328t-323 -100h-86z" />
    <glyph glyph-name="approxequal" unicode="&#x2248;" horiz-adv-x="1820" 
d="M145 905q0 72 22.5 129t59.5 93t88 59.5t103 33t110 9.5q93 0 180.5 -25.5t156.5 -62.5t136.5 -74t147 -62.5t160.5 -25.5q125 0 199.5 57t74.5 164h107q0 -72 -22.5 -129t-59.5 -93t-88 -59t-103 -32.5t-110 -9.5q-93 0 -180.5 25.5t-156.5 62t-136.5 73.5t-147 62.5
t-160.5 25.5q-125 0 -199.5 -57t-74.5 -164h-107zM145 496q0 72 22.5 129t59.5 93t88 59t103 32.5t110 9.5q93 0 180.5 -25.5t156.5 -62.5t136.5 -74t147 -62.5t160.5 -25.5q125 0 199.5 57.5t74.5 164.5h107q0 -72 -22.5 -129t-59.5 -93t-88 -59.5t-103 -33t-110 -9.5
q-93 0 -180.5 25.5t-156.5 62.5t-136.5 74t-147 62.5t-160.5 25.5q-125 0 -199.5 -57t-74.5 -164h-107z" />
    <glyph glyph-name="notequal" unicode="&#x2260;" horiz-adv-x="1755" 
d="M528 334l201 321h-608v90h665l134 213h-799v91h856l199 317h108l-199 -317h547v-91h-604l-133 -213h737v-90h-794l-201 -321h-109z" />
    <glyph glyph-name="lessequal" unicode="&#x2264;" horiz-adv-x="1804" 
d="M143 922l1512 325v-102l-1282 -264l1282 -265v-159h-1512v90h1360l-1360 293v82z" />
    <glyph glyph-name="greaterequal" unicode="&#x2265;" horiz-adv-x="1804" 
d="M152 616l1280 265l-1280 264v102l1511 -325v-82l-1360 -293h1360v-90h-1511v159z" />
    <glyph glyph-name="uni2317" unicode="&#x2317;" horiz-adv-x="1529" 
d="M100 887v102h394v393h102v-393h340v393h102v-393h394v-102h-394v-340h394v-103h-394v-393h-102v393h-340v-393h-102v393h-394v103h394v340h-394zM596 547h340v340h-340v-340z" />
    <glyph glyph-name="uni2318" unicode="&#x2318;" horiz-adv-x="1642" 
d="M391 14q-124 0 -198 74t-74 199q0 134 91.5 208t270.5 74h90v295h-90q-178 0 -270 74.5t-92 208.5q0 125 73.5 198.5t198.5 73.5q134 0 208.5 -92t74.5 -270v-90h295v90q0 179 74 270.5t208 91.5q125 0 199 -74t74 -198q0 -134 -92 -208.5t-271 -74.5h-90v-295h90
q179 0 271 -74t92 -208q0 -125 -74 -199t-199 -74q-134 0 -208 92t-74 271v90h-295v-90q0 -179 -74.5 -271t-208.5 -92zM221 287q0 -88 41 -129t129 -41q95 0 137.5 59t42.5 201v90h-90q-142 0 -201 -42.5t-59 -137.5zM221 1147q0 -95 59 -137.5t201 -42.5h90v90
q0 142 -42.5 201t-137.5 59q-88 0 -129 -41t-41 -129zM674 569h295v295h-295v-295zM1071 377q0 -142 42.5 -201t137.5 -59q88 0 129 41t41 129q0 95 -59 137.5t-201 42.5h-90v-90zM1071 967h90q142 0 201 42.5t59 137.5q0 88 -41 129t-129 41q-95 0 -137.5 -59t-42.5 -201
v-90z" />
    <glyph glyph-name="uni2325" unicode="&#x2325;" horiz-adv-x="1611" 
d="M860 115l-489 1102h-334v102h399l492 -1102h540v-102h-608zM772 1217v102h696v-102h-696z" />
    <glyph glyph-name="filledbox" unicode="&#x25a0;" horiz-adv-x="1454" 
d="M168 158v1118h1118v-1118h-1118z" />
    <glyph glyph-name="uni25A1" unicode="&#x25a1;" horiz-adv-x="1454" 
d="M168 158v1118h1118v-1118h-1118zM270 260h914v914h-914v-914z" />
    <glyph glyph-name="triagup" unicode="&#x25b2;" horiz-adv-x="1437" 
d="M37 31l682 1179l680 -1179h-1362z" />
    <glyph glyph-name="uni25B3" unicode="&#x25b3;" horiz-adv-x="1495" 
d="M37 31l711 1231l710 -1231h-1421zM213 133h1067l-532 924z" />
    <glyph glyph-name="uni25B6" unicode="&#x25b6;" horiz-adv-x="1456" 
d="M186 1393l1180 -680l-1180 -682v1362z" />
    <glyph glyph-name="uni25B7" unicode="&#x25b7;" horiz-adv-x="1509" 
d="M186 -6v1421l1231 -710zM289 170l923 535l-923 532v-1067z" />
    <glyph glyph-name="triagdn" unicode="&#x25bc;" horiz-adv-x="1460" 
d="M1411 1210l-682 -1179l-680 1179h1362z" />
    <glyph glyph-name="uni25BD" unicode="&#x25bd;" horiz-adv-x="1517" 
d="M760 -20l-711 1230h1421zM227 1108l533 -924l534 924h-1067z" />
    <glyph glyph-name="uni25C0" unicode="&#x25c0;" horiz-adv-x="1456" 
d="M1270 31l-1180 682l1180 680v-1362z" />
    <glyph glyph-name="uni25C1" unicode="&#x25c1;" horiz-adv-x="1509" 
d="M1323 -6l-1231 711l1231 710v-1421zM297 705l924 -535v1067z" />
    <glyph glyph-name="uni25C6" unicode="&#x25c6;" horiz-adv-x="1531" 
d="M766 51l-668 666l668 667l666 -667z" />
    <glyph glyph-name="uni25C7" unicode="&#x25c7;" horiz-adv-x="1572" 
d="M784 29l-686 688l688 688l687 -688zM242 717l544 -543l543 543l-545 543z" />
    <glyph glyph-name="lozenge" unicode="&#x25ca;" horiz-adv-x="1114" 
d="M483 1280h148l381 -614l-381 -615h-148l-381 615zM213 666l344 -555l344 555l-344 555z" />
    <glyph glyph-name="circle" unicode="&#x25cb;" horiz-adv-x="1478" 
d="M739 92q-127 0 -243 49.5t-199.5 133.5t-132.5 199.5t-49 242.5t49 242.5t132.5 199t199.5 133t243 49.5q169 0 312.5 -83.5t227 -227.5t83.5 -313t-83.5 -313t-227 -228t-312.5 -84zM217 717q0 -221 150.5 -370.5t371.5 -149.5q145 0 264.5 68t188 187.5t68.5 264.5
t-68.5 264.5t-188 187.5t-264.5 68q-221 0 -371.5 -149.5t-150.5 -370.5z" />
    <glyph glyph-name="uni25CF" unicode="&#x25cf;" horiz-adv-x="1480" 
d="M741 94q-127 0 -243 49.5t-199.5 133t-132.5 198.5t-49 242t49 242.5t132.5 199t199.5 133t243 49.5q169 0 312.5 -83.5t227 -227.5t83.5 -313t-83.5 -312.5t-227 -227t-312.5 -83.5z" />
    <glyph glyph-name="uni2B1B" unicode="&#x2b1b;" horiz-adv-x="2177" 
d="M229 -143v1720h1721v-1720h-1721z" />
    <glyph glyph-name="uni2B1C" unicode="&#x2b1c;" horiz-adv-x="2177" 
d="M229 -143v1720h1721v-1720h-1721zM332 -41h1515v1516h-1515v-1516z" />
    <glyph glyph-name="uni2B98" unicode="&#x2b98;" horiz-adv-x="1497" 
d="M1389 -39l-1289 744l1289 743l-322 -743zM305 705h649l217 499z" />
    <glyph glyph-name="uni2B99" unicode="&#x2b99;" horiz-adv-x="1542" 
d="M27 -27l743 1289l743 -1289l-743 322zM770 408l500 -218l-500 867v-649z" />
    <glyph glyph-name="uni2B9A" unicode="&#x2b9a;" horiz-adv-x="1497" 
d="M109 -39l321 744l-321 743l1288 -743zM326 1204l217 -499h649z" />
    <glyph glyph-name="uni2B9B" unicode="&#x2b9b;" horiz-adv-x="1542" 
d="M772 -20l-743 1288l743 -322l744 322zM272 1051l500 -867v650z" />
    <glyph glyph-name="uni2B9C" unicode="&#x2b9c;" horiz-adv-x="1396" 
d="M1278 31l-1180 682l1180 680l-295 -680z" />
    <glyph glyph-name="uni2B9D" unicode="&#x2b9d;" horiz-adv-x="1427" 
d="M33 31l682 1179l680 -1179l-680 295z" />
    <glyph glyph-name="uni2B9E" unicode="&#x2b9e;" horiz-adv-x="1396" 
d="M119 31l295 682l-295 680l1179 -680z" />
    <glyph glyph-name="uni2B9F" unicode="&#x2b9f;" horiz-adv-x="1429" 
d="M713 31l-680 1179l680 -295l682 295z" />
    <glyph glyph-name="uni3000" unicode="&#x3000;" horiz-adv-x="2048" 
 />
    <glyph glyph-name="uni004A0301" horiz-adv-x="1554" 
d="M725 -20q-353 0 -514.5 165.5t-161.5 511.5v23h297v-43q0 -81 10.5 -142t36.5 -112t68.5 -83t108.5 -49.5t155 -17.5q108 0 182.5 25t117 76.5t61 120.5t18.5 166v1083h291v-1065q0 -333 -161.5 -496t-508.5 -163zM782 1937l891 152l19 -80l-891 -151z" />
    <glyph glyph-name="I.bracket" horiz-adv-x="667" 
d="M190 0v1704h289v-1704h-289z" />
    <glyph glyph-name="A.ss01" horiz-adv-x="1112" 
d="M41 0l315 1704h398l317 -1704h-297l-45 297h-346l-45 -297h-297zM420 543h272l-129 858l-8 33l-8 -33z" />
    <glyph glyph-name="Aacute.ss01" horiz-adv-x="1112" 
d="M41 0l315 1704h398l317 -1704h-297l-45 297h-346l-45 -297h-297zM211 1905l670 151l20 -80l-670 -149zM420 543h272l-129 858l-8 33l-8 -33z" />
    <glyph glyph-name="Abreve.ss01" horiz-adv-x="1112" 
d="M41 0l315 1704h398l317 -1704h-297l-45 297h-346l-45 -297h-297zM223 2058h103q0 -55 37 -89.5t86 -46t110 -11.5q44 0 82 7t72 22.5t53.5 45.5t19.5 72h103q0 -231 -330 -231q-70 0 -127.5 11t-106 36.5t-75.5 72t-27 111.5zM420 543h272l-129 858l-8 33l-8 -33z" />
    <glyph glyph-name="Acircumflex.ss01" horiz-adv-x="1112" 
d="M41 0l315 1704h398l317 -1704h-297l-45 297h-346l-45 -297h-297zM225 1819l260 237h144l256 -237h-144l-184 174l-188 -174h-144zM420 543h272l-129 858l-8 33l-8 -33z" />
    <glyph glyph-name="Adieresis.ss01" horiz-adv-x="1112" 
d="M41 0l315 1704h398l317 -1704h-297l-45 297h-346l-45 -297h-297zM264 1923q0 48 30 76.5t73 28.5q42 0 72 -28.5t30 -76.5q0 -43 -30.5 -71.5t-71.5 -28.5q-42 0 -72.5 28.5t-30.5 71.5zM420 543h272l-129 858l-8 33l-8 -33zM645 1923q0 48 30 76.5t73 28.5
q42 0 72 -28.5t30 -76.5q0 -43 -30.5 -71.5t-71.5 -28.5q-42 0 -72.5 28.5t-30.5 71.5z" />
    <glyph glyph-name="Agrave.ss01" horiz-adv-x="1112" 
d="M41 0l315 1704h398l317 -1704h-297l-45 297h-346l-45 -297h-297zM211 1976l20 80l670 -151l-20 -78zM420 543h272l-129 858l-8 33l-8 -33z" />
    <glyph glyph-name="Amacron.ss01" horiz-adv-x="1112" 
d="M41 0l315 1704h398l317 -1704h-297l-45 297h-346l-45 -297h-297zM211 1901v81h690v-81h-690zM420 543h272l-129 858l-8 33l-8 -33z" />
    <glyph glyph-name="Aogonek.ss01" horiz-adv-x="1112" 
d="M41 0l315 1704h398l317 -1704h-2q-227 -66 -227 -186q0 -62 54.5 -88.5t186.5 -26.5h15l-82 -109h-12q-130 0 -208.5 47t-78.5 134q0 160 250 229h-193l-45 297h-346l-45 -297h-297zM420 543h272l-129 858l-8 33l-8 -33z" />
    <glyph glyph-name="Aring.ss01" horiz-adv-x="1112" 
d="M41 0l315 1704h398l317 -1704h-297l-45 297h-346l-45 -297h-297zM391 1962q0 71 49.5 118.5t116.5 47.5t116.5 -47.5t49.5 -118.5t-49.5 -118.5t-116.5 -47.5t-116.5 47.5t-49.5 118.5zM420 543h272l-129 858l-8 33l-8 -33zM483 1962q0 -33 20.5 -53.5t53.5 -20.5
t53.5 20.5t20.5 53.5t-20.5 53.5t-53.5 20.5t-53.5 -20.5t-20.5 -53.5z" />
    <glyph glyph-name="Atilde.ss01" horiz-adv-x="1112" 
d="M41 0l315 1704h398l317 -1704h-297l-45 297h-346l-45 -297h-297zM225 1847q0 113 52 162t133 49q47 0 83.5 -15.5t59.5 -37t43 -43.5t45 -37.5t55 -15.5q88 0 88 127h103q0 -114 -53 -162.5t-134 -48.5q-48 0 -85.5 15.5t-60 37.5t-42 43.5t-43.5 37t-53 15.5
q-88 0 -88 -127h-103zM420 543h272l-129 858l-8 33l-8 -33z" />
    <glyph glyph-name="B.ss01" horiz-adv-x="1148" 
d="M117 0v1704h506q424 0 424 -418v-53q0 -255 -201 -332q225 -88 225 -375v-55q0 -241 -101.5 -356t-334.5 -115h-518zM403 246h197q102 0 139 38.5t37 143.5v145q0 101 -41 144t-135 43h-197v-514zM403 1006h189q83 0 121.5 36.5t38.5 131.5v122q0 97 -36 129.5t-124 32.5
h-189v-452z" />
    <glyph glyph-name="C.ss01" horiz-adv-x="1167" 
d="M594 -20q-247 0 -374.5 147t-127.5 414v624q0 267 127.5 413t374.5 146q237 0 361.5 -136t129.5 -388l2 -194h-296v272q-4 107 -52.5 157t-144.5 50q-105 0 -156 -59.5t-51 -184.5v-778q0 -125 51 -184.5t156 -59.5q95 0 144 50t53 157v272h296l-2 -194
q-5 -250 -129 -387t-362 -137z" />
    <glyph glyph-name="Cacute.ss01" horiz-adv-x="1167" 
d="M594 -20q-247 0 -374.5 147t-127.5 414v624q0 267 127.5 413t374.5 146q237 0 361.5 -136t129.5 -388l2 -194h-296v272q-4 107 -52.5 157t-144.5 50q-105 0 -156 -59.5t-51 -184.5v-778q0 -125 51 -184.5t156 -59.5q95 0 144 50t53 157v272h296l-2 -194
q-5 -250 -129 -387t-362 -137zM244 1905l669 151l21 -80l-670 -149z" />
    <glyph glyph-name="Ccaron.ss01" horiz-adv-x="1167" 
d="M594 -20q-247 0 -374.5 147t-127.5 414v624q0 267 127.5 413t374.5 146q237 0 361.5 -136t129.5 -388l2 -194h-296v272q-4 107 -52.5 157t-144.5 50q-105 0 -156 -59.5t-51 -184.5v-778q0 -125 51 -184.5t156 -59.5q95 0 144 50t53 157v272h296l-2 -194
q-5 -250 -129 -387t-362 -137zM260 2064h143l189 -176l184 176h144l-256 -237h-144z" />
    <glyph glyph-name="Ccedilla.ss01" horiz-adv-x="1167" 
d="M453 -332q140 0 197 13.5t57 58.5q0 48 -57 57t-163 -8l48 193q-218 18 -330.5 163.5t-112.5 395.5v624q0 267 127.5 413t374.5 146q237 0 361.5 -136t129.5 -388l2 -194h-296v272q-4 107 -52.5 157t-144.5 50q-105 0 -156 -59.5t-51 -184.5v-778q0 -125 51 -184.5
t156 -59.5q95 0 144 50t53 157v272h296l-2 -194q-5 -238 -118 -374t-330 -148l-27 -105q105 10 163 -19t58 -112q0 -95 -88 -132.5t-290 -37.5v92z" />
    <glyph glyph-name="Cdotaccent.ss01" horiz-adv-x="1167" 
d="M594 -20q-247 0 -374.5 147t-127.5 414v624q0 267 127.5 413t374.5 146q237 0 361.5 -136t129.5 -388l2 -194h-296v272q-4 107 -52.5 157t-144.5 50q-105 0 -156 -59.5t-51 -184.5v-778q0 -125 51 -184.5t156 -59.5q95 0 144 50t53 157v272h296l-2 -194
q-5 -250 -129 -387t-362 -137zM444 1931q0 55 38.5 91t107.5 36q70 0 107.5 -36t37.5 -91q0 -54 -37.5 -88.5t-107.5 -34.5q-69 0 -107.5 35t-38.5 88z" />
    <glyph glyph-name="D.ss01" horiz-adv-x="1173" 
d="M117 0v1704h444q278 0 398 -118.5t120 -409.5v-648q0 -288 -121.5 -408t-396.5 -120h-444zM403 227h160q121 0 171 56.5t50 197.5v742q0 143 -50.5 198.5t-172.5 55.5h-158v-1250z" />
    <glyph glyph-name="Eth.ss01" horiz-adv-x="1251" 
d="M193 0v762h-148v141h148v801h444q278 0 398 -118.5t120 -409.5v-648q0 -288 -121.5 -408t-396.5 -120h-444zM479 227h160q121 0 171 56.5t50 197.5v742q0 143 -50.5 198.5t-172.5 55.5h-158v-574h232v-141h-232v-535z" />
    <glyph glyph-name="Dcaron.ss01" horiz-adv-x="1173" 
d="M117 0v1704h444q278 0 398 -118.5t120 -409.5v-648q0 -288 -121.5 -408t-396.5 -120h-444zM258 2064h143l189 -176l184 176h144l-256 -237h-144zM403 227h160q121 0 171 56.5t50 197.5v742q0 143 -50.5 198.5t-172.5 55.5h-158v-1250z" />
    <glyph glyph-name="Dcroat.ss01" horiz-adv-x="1251" 
d="M193 0v762h-148v141h148v801h444q278 0 398 -118.5t120 -409.5v-648q0 -288 -121.5 -408t-396.5 -120h-444zM479 227h160q121 0 171 56.5t50 197.5v742q0 143 -50.5 198.5t-172.5 55.5h-158v-574h232v-141h-232v-535z" />
    <glyph glyph-name="E.ss01" horiz-adv-x="974" 
d="M117 0v1704h776v-244h-490v-487h459v-242h-459v-487h490v-244h-776z" />
    <glyph glyph-name="Eacute.ss01" horiz-adv-x="974" 
d="M117 0v1704h776v-244h-490v-487h459v-242h-459v-487h490v-244h-776zM145 1905l670 151l21 -80l-670 -149z" />
    <glyph glyph-name="Ecaron.ss01" horiz-adv-x="974" 
d="M117 0v1704h776v-244h-490v-487h459v-242h-459v-487h490v-244h-776zM162 2064h143l189 -176l184 176h143l-256 -237h-143z" />
    <glyph glyph-name="Ecircumflex.ss01" horiz-adv-x="974" 
d="M117 0v1704h776v-244h-490v-487h459v-242h-459v-487h490v-244h-776zM162 1819l260 237h143l256 -237h-143l-184 174l-189 -174h-143z" />
    <glyph glyph-name="Edieresis.ss01" horiz-adv-x="974" 
d="M117 0v1704h776v-244h-490v-487h459v-242h-459v-487h490v-244h-776zM199 1923q0 48 29.5 76.5t72.5 28.5q42 0 72 -28.5t30 -76.5q0 -43 -30.5 -71.5t-71.5 -28.5q-42 0 -72 28.5t-30 71.5zM580 1923q0 48 29.5 76.5t72.5 28.5q42 0 72 -28.5t30 -76.5q0 -43 -30.5 -71.5
t-71.5 -28.5q-42 0 -72 28.5t-30 71.5z" />
    <glyph glyph-name="Edotaccent.ss01" horiz-adv-x="974" 
d="M117 0v1704h776v-244h-490v-487h459v-242h-459v-487h490v-244h-776zM346 1931q0 55 38.5 91t107.5 36q70 0 107.5 -36t37.5 -91q0 -54 -37.5 -88.5t-107.5 -34.5q-69 0 -107.5 35t-38.5 88z" />
    <glyph glyph-name="Egrave.ss01" horiz-adv-x="974" 
d="M117 0v1704h776v-244h-490v-487h459v-242h-459v-487h490v-244h-776zM145 1976l21 80l670 -151l-21 -78z" />
    <glyph glyph-name="Emacron.ss01" horiz-adv-x="974" 
d="M117 0v1704h776v-244h-490v-487h459v-242h-459v-487h490v-244h-776zM145 1901v81h691v-81h-691z" />
    <glyph glyph-name="Eogonek.ss01" horiz-adv-x="974" 
d="M117 0v1704h776v-244h-490v-487h459v-242h-459v-487h490v-244h-2q-227 -66 -227 -186q0 -62 54.5 -88.5t186.5 -26.5h15l-82 -109h-13q-130 0 -208 47t-78 134q0 160 249 229h-671z" />
    <glyph glyph-name="F.ss01" horiz-adv-x="964" 
d="M117 0v1704h784v-244h-498v-563h480v-244h-480v-653h-286z" />
    <glyph glyph-name="G.ss01" horiz-adv-x="1185" 
d="M555 -20q-217 0 -340 146t-123 400v639q0 267 126.5 413t373.5 146q234 0 360 -135t131 -383v-166h-295v244q-8 201 -194 201q-106 0 -156.5 -60.5t-50.5 -183.5v-778q0 -244 201 -244q96 0 144 52t54 159v225h-227v228h524v-883h-141l-37 147q-122 -167 -350 -167z" />
    <glyph glyph-name="Gbreve.ss01" horiz-adv-x="1185" 
d="M555 -20q-217 0 -340 146t-123 400v639q0 267 126.5 413t373.5 146q234 0 360 -135t131 -383v-166h-295v244q-8 201 -194 201q-106 0 -156.5 -60.5t-50.5 -183.5v-778q0 -244 201 -244q96 0 144 52t54 159v225h-227v228h524v-883h-141l-37 147q-122 -167 -350 -167z
M260 2058h102q0 -42 20.5 -72t56 -45.5t74 -22.5t83.5 -7q44 0 82 7t72 22.5t53.5 45.5t19.5 72h103q0 -231 -330 -231q-70 0 -127.5 11t-106 36.5t-75.5 72t-27 111.5z" />
    <glyph glyph-name="uni0122.ss01" horiz-adv-x="1185" 
d="M555 -20q-217 0 -340 146t-123 400v639q0 267 126.5 413t373.5 146q234 0 360 -135t131 -383v-166h-295v244q-8 201 -194 201q-106 0 -156.5 -60.5t-50.5 -183.5v-778q0 -244 201 -244q96 0 144 52t54 159v225h-227v228h524v-883h-141l-37 147q-122 -167 -350 -167z
M485 -178q0 47 30.5 76.5t78.5 29.5q51 0 78.5 -33.5t27.5 -93.5q0 -71 -48.5 -136.5t-137.5 -108.5v92q105 27 131 110q-27 -37 -72 -37q-37 0 -62.5 27t-25.5 74z" />
    <glyph glyph-name="Gdotaccent.ss01" horiz-adv-x="1185" 
d="M555 -20q-217 0 -340 146t-123 400v639q0 267 126.5 413t373.5 146q234 0 360 -135t131 -383v-166h-295v244q-8 201 -194 201q-106 0 -156.5 -60.5t-50.5 -183.5v-778q0 -244 201 -244q96 0 144 52t54 159v225h-227v228h524v-883h-141l-37 147q-122 -167 -350 -167z
M449 1931q0 55 38 91t107 36q70 0 107.5 -36t37.5 -91q0 -54 -37.5 -88.5t-107.5 -34.5q-69 0 -107 34.5t-38 88.5z" />
    <glyph glyph-name="H.ss01" horiz-adv-x="1173" 
d="M768 0v731h-365v-731h-286v1704h286v-731h365v731h289v-1704h-289z" />
    <glyph glyph-name="Hbar.ss01" horiz-adv-x="1310" 
d="M838 0v731h-365v-731h-287v1190h-133v143h133v371h287v-371h365v371h288v-371h131v-143h-131v-1190h-288zM473 973h365v217h-365v-217z" />
    <glyph glyph-name="I.ss01" horiz-adv-x="702" 
d="M102 0v258h105v1188h-105v258h500v-258h-106v-1188h106v-258h-500z" />
    <glyph glyph-name="Iacute.ss01" horiz-adv-x="702" 
d="M102 0v258h105v1188h-105v258h500v-258h-106v-1188h106v-258h-500zM6 1905l670 151l20 -80l-669 -149z" />
    <glyph glyph-name="Icircumflex.ss01" horiz-adv-x="702" 
d="M102 0v258h105v1188h-105v258h500v-258h-106v-1188h106v-258h-500zM20 1819l261 237h143l256 -237h-143l-185 174l-188 -174h-144z" />
    <glyph glyph-name="Idieresis.ss01" horiz-adv-x="702" 
d="M102 0v258h105v1188h-105v258h500v-258h-106v-1188h106v-258h-500zM57 1923q0 48 30 76.5t73 28.5q42 0 72 -28.5t30 -76.5q0 -43 -30.5 -71.5t-71.5 -28.5q-42 0 -72.5 28.5t-30.5 71.5zM438 1923q0 48 30 76.5t73 28.5q42 0 72 -28.5t30 -76.5q0 -43 -30.5 -71.5
t-71.5 -28.5q-42 0 -72.5 28.5t-30.5 71.5z" />
    <glyph glyph-name="Idotaccent.ss01" horiz-adv-x="702" 
d="M102 0v258h105v1188h-105v258h500v-258h-106v-1188h106v-258h-500zM207 1931q0 55 38 91t107 36q70 0 108 -36t38 -91q0 -54 -37.5 -88.5t-108.5 -34.5q-69 0 -107 34.5t-38 88.5z" />
    <glyph glyph-name="Igrave.ss01" horiz-adv-x="702" 
d="M102 0v258h105v1188h-105v258h500v-258h-106v-1188h106v-258h-500zM6 1976l21 80l669 -151l-20 -78z" />
    <glyph glyph-name="Imacron.ss01" horiz-adv-x="702" 
d="M102 0v258h105v1188h-105v258h500v-258h-106v-1188h106v-258h-500zM6 1901v81h690v-81h-690z" />
    <glyph glyph-name="Iogonek.ss01" horiz-adv-x="702" 
d="M102 0v258h105v1188h-105v258h500v-258h-106v-1188h106v-258h-2q-227 -66 -227 -186q0 -62 54.5 -88.5t186.5 -26.5h15l-82 -109h-12q-130 0 -208.5 47t-78.5 134q0 160 250 229h-396z" />
    <glyph glyph-name="J.ss01" horiz-adv-x="1093" 
d="M522 -20q-235 0 -349 132.5t-114 399.5v106h295v-184q0 -117 38.5 -166t129.5 -49t130.5 48.5t39.5 162.5v1274h293v-1196q0 -264 -114 -396t-349 -132z" />
    <glyph glyph-name="K.ss01" horiz-adv-x="1112" 
d="M766 0l-313 721h-50v-721h-286v1704h286v-721h50l313 721h317l-393 -852l393 -852h-317z" />
    <glyph glyph-name="uni0136.ss01" horiz-adv-x="1112" 
d="M766 0l-313 721h-50v-721h-286v1704h286v-721h50l313 721h317l-393 -852l393 -852h-317zM473 -178q0 47 30.5 76.5t78.5 29.5q51 0 78.5 -33.5t27.5 -93.5q0 -71 -48.5 -136.5t-137.5 -108.5v92q105 27 131 110q-27 -37 -72 -37q-37 0 -62.5 27t-25.5 74z" />
    <glyph glyph-name="L.ss01" horiz-adv-x="948" 
d="M117 0v1704h286v-1460h492v-244h-778z" />
    <glyph glyph-name="Lacute.ss01" horiz-adv-x="948" 
d="M117 0v1704h286v-1460h492v-244h-778zM135 1905l670 151l20 -80l-669 -149z" />
    <glyph glyph-name="Lcaron.ss01" horiz-adv-x="976" 
d="M117 0v1704h286v-1460h492v-244h-778zM578 1202l71 502h182l-133 -502h-120z" />
    <glyph glyph-name="uni013B.ss01" horiz-adv-x="948" 
d="M117 0v1704h286v-1460h492v-244h-778zM381 -178q0 47 30.5 76.5t77.5 29.5q51 0 79 -33.5t28 -93.5q0 -71 -48.5 -136.5t-137.5 -108.5v92q105 27 131 110q-27 -37 -72 -37q-37 0 -62.5 27t-25.5 74z" />
    <glyph glyph-name="Lslash.ss01" horiz-adv-x="1044" 
d="M211 0v643l-158 -94v160l158 96v899h287v-727l243 147v-161l-243 -148v-571h491v-244h-778z" />
    <glyph glyph-name="M.ss01" horiz-adv-x="1398" 
d="M117 0v1704h329l252 -1083l254 1083h330v-1704h-262v1053l-254 -1053h-133l-254 1053v-1053h-262z" />
    <glyph glyph-name="N.ss01" horiz-adv-x="1187" 
d="M117 0v1704h264l426 -1065v1065h264v-1704h-264l-428 1065v-1065h-262z" />
    <glyph glyph-name="Nacute.ss01" horiz-adv-x="1187" 
d="M117 0v1704h264l426 -1065v1065h264v-1704h-264l-428 1065v-1065h-262zM248 1905l670 151l20 -80l-670 -149z" />
    <glyph glyph-name="Ncaron.ss01" horiz-adv-x="1187" 
d="M117 0v1704h264l426 -1065v1065h264v-1704h-264l-428 1065v-1065h-262zM264 2064h144l188 -176l184 176h144l-256 -237h-144z" />
    <glyph glyph-name="uni0145.ss01" horiz-adv-x="1187" 
d="M117 0v1704h264l426 -1065v1065h264v-1704h-264l-428 1065v-1065h-262zM485 -178q0 47 30.5 76.5t78.5 29.5q51 0 78.5 -33.5t27.5 -93.5q0 -71 -48.5 -136.5t-137.5 -108.5v92q105 27 131 110q-27 -37 -72 -37q-37 0 -62.5 27t-25.5 74z" />
    <glyph glyph-name="Ntilde.ss01" horiz-adv-x="1187" 
d="M117 0v1704h264l426 -1065v1065h264v-1704h-264l-428 1065v-1065h-262zM262 1847q0 59 15 101.5t42 65.5t58 33.5t69 10.5q47 0 83.5 -15.5t59.5 -37t43 -43.5t45.5 -37.5t55.5 -15.5q88 0 88 127h103q0 -114 -53 -162.5t-134 -48.5q-48 0 -85.5 15.5t-60 37.5t-42 43.5
t-43.5 37t-53 15.5q-88 0 -88 -127h-103z" />
    <glyph glyph-name="O.ss01" horiz-adv-x="1183" 
d="M592 -20q-244 0 -372 146.5t-128 412.5v626q0 266 128 412.5t372 146.5t371 -146.5t127 -412.5v-626q0 -266 -127 -412.5t-371 -146.5zM387 463q0 -244 205 -244q203 0 203 244v776q0 246 -203 246q-205 0 -205 -244v-778z" />
    <glyph glyph-name="Oacute.ss01" horiz-adv-x="1183" 
d="M592 -20q-244 0 -372 146.5t-128 412.5v626q0 266 128 412.5t372 146.5t371 -146.5t127 -412.5v-626q0 -266 -127 -412.5t-371 -146.5zM246 1905l669 151l21 -80l-670 -149zM387 463q0 -244 205 -244q203 0 203 244v776q0 246 -203 246q-205 0 -205 -244v-778z" />
    <glyph glyph-name="Ocircumflex.ss01" horiz-adv-x="1183" 
d="M592 -20q-244 0 -372 146.5t-128 412.5v626q0 266 128 412.5t372 146.5t371 -146.5t127 -412.5v-626q0 -266 -127 -412.5t-371 -146.5zM260 1819l260 237h144l256 -237h-144l-184 174l-189 -174h-143zM387 463q0 -244 205 -244q203 0 203 244v776q0 246 -203 246
q-205 0 -205 -244v-778z" />
    <glyph glyph-name="Odieresis.ss01" horiz-adv-x="1183" 
d="M592 -20q-244 0 -372 146.5t-128 412.5v626q0 266 128 412.5t372 146.5t371 -146.5t127 -412.5v-626q0 -266 -127 -412.5t-371 -146.5zM299 1923q0 48 29.5 76.5t72.5 28.5q42 0 72.5 -29t30.5 -76q0 -43 -31 -71.5t-72 -28.5q-42 0 -72 28.5t-30 71.5zM387 463
q0 -244 205 -244q203 0 203 244v776q0 246 -203 246q-205 0 -205 -244v-778zM680 1923q0 48 29.5 76.5t72.5 28.5q42 0 72.5 -29t30.5 -76q0 -43 -31 -71.5t-72 -28.5q-42 0 -72 28.5t-30 71.5z" />
    <glyph glyph-name="Ograve.ss01" horiz-adv-x="1183" 
d="M592 -20q-244 0 -372 146.5t-128 412.5v626q0 266 128 412.5t372 146.5t371 -146.5t127 -412.5v-626q0 -266 -127 -412.5t-371 -146.5zM246 1976l20 80l670 -151l-21 -78zM387 463q0 -244 205 -244q203 0 203 244v776q0 246 -203 246q-205 0 -205 -244v-778z" />
    <glyph glyph-name="Ohungarumlaut.ss01" horiz-adv-x="1183" 
d="M592 -20q-244 0 -372 146.5t-128 412.5v626q0 266 128 412.5t372 146.5t371 -146.5t127 -412.5v-626q0 -266 -127 -412.5t-371 -146.5zM375 1827l266 229h137l-246 -229h-157zM387 463q0 -244 205 -244q203 0 203 244v776q0 246 -203 246q-205 0 -205 -244v-778z
M657 1827l269 229h135l-246 -229h-158z" />
    <glyph glyph-name="Omacron.ss01" horiz-adv-x="1183" 
d="M592 -20q-244 0 -372 146.5t-128 412.5v626q0 266 128 412.5t372 146.5t371 -146.5t127 -412.5v-626q0 -266 -127 -412.5t-371 -146.5zM246 1901v81h690v-81h-690zM387 463q0 -244 205 -244q203 0 203 244v776q0 246 -203 246q-205 0 -205 -244v-778z" />
    <glyph glyph-name="Oslash.ss01" horiz-adv-x="1183" 
d="M147 -12l66 147q-121 145 -121 404v626q0 266 128 412.5t372 146.5q174 0 287 -73l28 65h129l-65 -147q119 -143 119 -404v-626q0 -266 -127 -412.5t-371 -146.5q-174 0 -287 73l-29 -65h-129zM387 532l377 859q-48 94 -172 94q-205 0 -205 -244v-709zM418 309
q52 -90 174 -90q203 0 203 244v704z" />
    <glyph glyph-name="Otilde.ss01" horiz-adv-x="1183" 
d="M592 -20q-244 0 -372 146.5t-128 412.5v626q0 266 128 412.5t372 146.5t371 -146.5t127 -412.5v-626q0 -266 -127 -412.5t-371 -146.5zM260 1847q0 59 15 101.5t42 65.5t58 33.5t69 10.5q47 0 83.5 -15.5t59.5 -37t43 -43.5t45.5 -37.5t55.5 -15.5q88 0 88 127h103
q0 -114 -53 -162.5t-134 -48.5q-48 0 -85.5 15.5t-60 37.5t-42 43.5t-43.5 37t-53 15.5q-89 0 -89 -127h-102zM387 463q0 -244 205 -244q203 0 203 244v776q0 246 -203 246q-205 0 -205 -244v-778z" />
    <glyph glyph-name="P.ss01" horiz-adv-x="1138" 
d="M117 0v1704h461q269 0 382 -120.5t113 -407.5v-66q0 -287 -113 -411t-382 -124h-175v-575h-286zM403 803h203q94 0 133 50t39 161v256q0 110 -39 158.5t-133 48.5h-203v-674z" />
    <glyph glyph-name="Q.ss01" horiz-adv-x="1183" 
d="M969 -334q-153 79 -272 113.5t-271 38.5l2 182q-166 45 -251 183.5t-85 355.5v626q0 266 128 412.5t372 146.5t371 -146.5t127 -412.5v-626q0 -240 -104 -383.5t-304 -169.5q151 -23 287 -97v-223zM387 463q0 -244 205 -244q203 0 203 244v776q0 246 -203 246
q-205 0 -205 -244v-778z" />
    <glyph glyph-name="R.ss01" horiz-adv-x="1153" 
d="M788 0q-11 13 -16 41.5t-5.5 47.5t-0.5 61v352q0 180 -168 180h-195v-682h-286v1704h483q250 0 355.5 -99.5t105.5 -349.5v-32q0 -189 -50 -281t-173 -137q221 -74 221 -340v-315q0 -111 24 -150h-295zM403 909h195q94 0 131 49.5t37 143.5v192q0 104 -38 143.5
t-132 39.5h-193v-568z" />
    <glyph glyph-name="Racute.ss01" horiz-adv-x="1153" 
d="M788 0q-11 13 -16 41.5t-5.5 47.5t-0.5 61v352q0 180 -168 180h-195v-682h-286v1704h483q250 0 355.5 -99.5t105.5 -349.5v-32q0 -189 -50 -281t-173 -137q221 -74 221 -340v-315q0 -111 24 -150h-295zM242 1905l669 151l21 -80l-670 -149zM403 909h195q94 0 131 49.5
t37 143.5v192q0 104 -38 143.5t-132 39.5h-193v-568z" />
    <glyph glyph-name="Rcaron.ss01" horiz-adv-x="1153" 
d="M788 0q-11 13 -16 41.5t-5.5 47.5t-0.5 61v352q0 180 -168 180h-195v-682h-286v1704h483q250 0 355.5 -99.5t105.5 -349.5v-32q0 -189 -50 -281t-173 -137q221 -74 221 -340v-315q0 -111 24 -150h-295zM256 2064h143l189 -176l184 176h143l-256 -237h-143zM403 909h195
q94 0 131 49.5t37 143.5v192q0 104 -38 143.5t-132 39.5h-193v-568z" />
    <glyph glyph-name="uni0156.ss01" horiz-adv-x="1153" 
d="M788 0q-11 13 -16 41.5t-5.5 47.5t-0.5 61v352q0 180 -168 180h-195v-682h-286v1704h483q250 0 355.5 -99.5t105.5 -349.5v-32q0 -189 -50 -281t-173 -137q221 -74 221 -340v-315q0 -111 24 -150h-295zM403 909h195q94 0 131 49.5t37 143.5v192q0 104 -38 143.5
t-132 39.5h-193v-568zM479 -178q0 47 30.5 76.5t78.5 29.5q51 0 78.5 -33.5t27.5 -93.5q0 -71 -48.5 -136.5t-137.5 -108.5v92q105 27 131 110q-27 -37 -72 -37q-37 0 -62.5 27t-25.5 74z" />
    <glyph glyph-name="S.ss01" horiz-adv-x="1105" 
d="M559 -20q-247 0 -367 127.5t-120 381.5v109h295v-184q0 -108 46.5 -152.5t149.5 -44.5q93 0 133.5 38.5t40.5 129.5v74q-1 99 -39 152.5t-125 95.5l-208 124q-88 53 -146.5 113t-94.5 147t-36 195q0 209 118 323.5t345 114.5q226 0 345.5 -113.5t119.5 -328.5v-115h-293
v142q0 99 -41.5 138.5t-132.5 39.5q-88 0 -128 -35.5t-40 -118.5v-49q0 -83 38 -136.5t113 -92.5l211 -121q71 -41 118.5 -80.5t88.5 -95.5t60.5 -132.5t19.5 -176.5q0 -236 -114.5 -352.5t-356.5 -116.5z" />
    <glyph glyph-name="Sacute.ss01" horiz-adv-x="1105" 
d="M559 -20q-247 0 -367 127.5t-120 381.5v109h295v-184q0 -108 46.5 -152.5t149.5 -44.5q93 0 133.5 38.5t40.5 129.5v74q-1 99 -39 152.5t-125 95.5l-208 124q-88 53 -146.5 113t-94.5 147t-36 195q0 209 118 323.5t345 114.5q226 0 345.5 -113.5t119.5 -328.5v-115h-293
v142q0 99 -41.5 138.5t-132.5 39.5q-88 0 -128 -35.5t-40 -118.5v-49q0 -83 38 -136.5t113 -92.5l211 -121q71 -41 118.5 -80.5t88.5 -95.5t60.5 -132.5t19.5 -176.5q0 -236 -114.5 -352.5t-356.5 -116.5zM207 1905l670 151l20 -80l-670 -149z" />
    <glyph glyph-name="Scaron.ss01" horiz-adv-x="1105" 
d="M559 -20q-247 0 -367 127.5t-120 381.5v109h295v-184q0 -108 46.5 -152.5t149.5 -44.5q93 0 133.5 38.5t40.5 129.5v74q-1 99 -39 152.5t-125 95.5l-208 124q-88 53 -146.5 113t-94.5 147t-36 195q0 209 118 323.5t345 114.5q226 0 345.5 -113.5t119.5 -328.5v-115h-293
v142q0 99 -41.5 138.5t-132.5 39.5q-88 0 -128 -35.5t-40 -118.5v-49q0 -83 38 -136.5t113 -92.5l211 -121q71 -41 118.5 -80.5t88.5 -95.5t60.5 -132.5t19.5 -176.5q0 -236 -114.5 -352.5t-356.5 -116.5zM223 2064h144l188 -176l184 176h144l-256 -237h-144z" />
    <glyph glyph-name="Scedilla.ss01" horiz-adv-x="1105" 
d="M416 -332q140 0 197 13.5t57 58.5q0 25 -13.5 39t-44 18t-66.5 1.5t-95 -9.5l47 193q-426 29 -426 507v109h295v-184q0 -108 46.5 -152.5t149.5 -44.5q93 0 133.5 38.5t40.5 129.5v74q-1 99 -39 152.5t-125 95.5l-208 124q-88 53 -146.5 113t-94.5 147t-36 195
q0 209 118 323.5t345 114.5q226 0 345.5 -113.5t119.5 -328.5v-115h-293v142q0 99 -41.5 138.5t-132.5 39.5q-88 0 -128 -35.5t-40 -118.5v-49q0 -83 38 -136.5t113 -92.5l211 -121q71 -41 118.5 -80.5t88.5 -95.5t60.5 -132.5t19.5 -176.5q0 -226 -104.5 -342.5
t-325.5 -126.5l-27 -103q222 21 222 -131q0 -95 -88.5 -132.5t-290.5 -37.5v92z" />
    <glyph glyph-name="uni0218.ss01" horiz-adv-x="1105" 
d="M559 -20q-247 0 -367 127.5t-120 381.5v109h295v-184q0 -108 46.5 -152.5t149.5 -44.5q93 0 133.5 38.5t40.5 129.5v74q-1 99 -39 152.5t-125 95.5l-208 124q-88 53 -146.5 113t-94.5 147t-36 195q0 209 118 323.5t345 114.5q226 0 345.5 -113.5t119.5 -328.5v-115h-293
v142q0 99 -41.5 138.5t-132.5 39.5q-88 0 -128 -35.5t-40 -118.5v-49q0 -83 38 -136.5t113 -92.5l211 -121q71 -41 118.5 -80.5t88.5 -95.5t60.5 -132.5t19.5 -176.5q0 -236 -114.5 -352.5t-356.5 -116.5zM444 -178q0 47 30.5 76.5t78.5 29.5q51 0 78.5 -33.5t27.5 -93.5
q0 -71 -48.5 -136.5t-137.5 -108.5v92q105 27 131 110q-27 -37 -72 -37q-37 0 -62.5 27t-25.5 74z" />
    <glyph glyph-name="uni1E9E.ss01" horiz-adv-x="1099" 
d="M111 1327q0 193 102.5 285t325.5 92h467q-22 -242 -49.5 -381.5t-67.5 -210t-103 -98.5q226 -56 226 -393v-195q0 -224 -103.5 -325t-281.5 -101h-166v231l104 2q91 2 127.5 44t36.5 149v256q0 100 -37 149t-133 50l-98 2v231h84q31 1 51 6.5t38 22t29 38.5t22.5 66
t19.5 94t20 132h-186q-80 0 -115 -33.5t-35 -114.5v-1325h-278v1327z" />
    <glyph glyph-name="T.ss01" horiz-adv-x="1040" 
d="M377 0v1460h-320v244h928v-244h-319v-1460h-289z" />
    <glyph glyph-name="Tbar.ss01" horiz-adv-x="1048" 
d="M379 0v782h-205v142h205v536h-320v244h928v-244h-319v-536h211v-142h-211v-782h-289z" />
    <glyph glyph-name="Tcaron.ss01" horiz-adv-x="1040" 
d="M377 0v1460h-320v244h928v-244h-319v-1460h-289zM190 2064h144l188 -176l185 176h143l-256 -237h-143z" />
    <glyph glyph-name="uni0162.ss01" horiz-adv-x="1040" 
d="M377 0v1460h-320v244h928v-244h-319v-1460h-95l-30 -123q105 10 163 -19t58 -112q0 -95 -88.5 -132.5t-290.5 -37.5v92q140 0 197 13.5t57 58.5q0 25 -13.5 39t-44 18t-66.5 1.5t-95 -9.5l51 211h-92z" />
    <glyph glyph-name="uni021A.ss01" horiz-adv-x="1040" 
d="M377 0v1460h-320v244h928v-244h-319v-1460h-289zM414 -178q0 47 30.5 76.5t77.5 29.5q51 0 79 -33.5t28 -93.5q0 -70 -49 -136t-138 -109v92q105 27 131 110q-27 -37 -71 -37q-37 0 -62.5 27t-25.5 74z" />
    <glyph glyph-name="U.ss01" horiz-adv-x="1171" 
d="M586 -20q-246 0 -361.5 125.5t-115.5 392.5v1206h292v-1272q0 -117 44 -165t141 -48q96 0 140 48t44 165v1272h293v-1206q0 -268 -115.5 -393t-361.5 -125z" />
    <glyph glyph-name="Uacute.ss01" horiz-adv-x="1171" 
d="M586 -20q-246 0 -361.5 125.5t-115.5 392.5v1206h292v-1272q0 -117 44 -165t141 -48q96 0 140 48t44 165v1272h293v-1206q0 -268 -115.5 -393t-361.5 -125zM240 1905l669 151l21 -80l-670 -149z" />
    <glyph glyph-name="Ucircumflex.ss01" horiz-adv-x="1171" 
d="M586 -20q-246 0 -361.5 125.5t-115.5 392.5v1206h292v-1272q0 -117 44 -165t141 -48q96 0 140 48t44 165v1272h293v-1206q0 -268 -115.5 -393t-361.5 -125zM256 1819l260 237h143l256 -237h-143l-184 174l-189 -174h-143z" />
    <glyph glyph-name="Udieresis.ss01" horiz-adv-x="1171" 
d="M586 -20q-246 0 -361.5 125.5t-115.5 392.5v1206h292v-1272q0 -117 44 -165t141 -48q96 0 140 48t44 165v1272h293v-1206q0 -268 -115.5 -393t-361.5 -125zM293 1923q0 48 29.5 76.5t72.5 28.5q42 0 72.5 -29t30.5 -76q0 -43 -31 -71.5t-72 -28.5q-42 0 -72 28.5
t-30 71.5zM674 1923q0 48 29.5 76.5t72.5 28.5q42 0 72.5 -29t30.5 -76q0 -43 -31 -71.5t-72 -28.5q-42 0 -72 28.5t-30 71.5z" />
    <glyph glyph-name="Ugrave.ss01" horiz-adv-x="1171" 
d="M586 -20q-246 0 -361.5 125.5t-115.5 392.5v1206h292v-1272q0 -117 44 -165t141 -48q96 0 140 48t44 165v1272h293v-1206q0 -268 -115.5 -393t-361.5 -125zM240 1976l20 80l670 -151l-21 -78z" />
    <glyph glyph-name="Uhungarumlaut.ss01" horiz-adv-x="1171" 
d="M586 -20q-246 0 -361.5 125.5t-115.5 392.5v1206h292v-1272q0 -117 44 -165t141 -48q96 0 140 48t44 165v1272h293v-1206q0 -268 -115.5 -393t-361.5 -125zM369 1827l266 229h137l-246 -229h-157zM651 1827l269 229h135l-246 -229h-158z" />
    <glyph glyph-name="Umacron.ss01" horiz-adv-x="1171" 
d="M586 -20q-246 0 -361.5 125.5t-115.5 392.5v1206h292v-1272q0 -117 44 -165t141 -48q96 0 140 48t44 165v1272h293v-1206q0 -268 -115.5 -393t-361.5 -125zM240 1901v81h690v-81h-690z" />
    <glyph glyph-name="Uogonek.ss01" horiz-adv-x="1171" 
d="M586 -20q-246 0 -361.5 125.5t-115.5 392.5v1206h292v-1272q0 -117 44 -165t141 -48q96 0 140 48t44 165v1272h293v-1206q0 -220 -77 -342.5t-238 -159.5q-108 -34 -160.5 -78.5t-52.5 -103.5q0 -62 54.5 -88.5t186.5 -26.5h15l-82 -109h-13q-130 0 -208 47t-78 134
q0 139 186 209h-10z" />
    <glyph glyph-name="Uring.ss01" horiz-adv-x="1171" 
d="M586 -20q-246 0 -361.5 125.5t-115.5 392.5v1206h292v-1272q0 -117 44 -165t141 -48q96 0 140 48t44 165v1272h293v-1206q0 -268 -115.5 -393t-361.5 -125zM420 1962q0 71 49.5 118.5t116.5 47.5t116.5 -47.5t49.5 -118.5t-49.5 -118.5t-116.5 -47.5t-116.5 47.5
t-49.5 118.5zM512 1962q0 -33 20.5 -53.5t53.5 -20.5t53 20.5t20 53.5t-20 53.5t-53 20.5t-53.5 -20.5t-20.5 -53.5z" />
    <glyph glyph-name="V.ss01" horiz-adv-x="1116" 
d="M360 0l-317 1704h297l211 -1399l8 -33l8 33l209 1399h297l-315 -1704h-398z" />
    <glyph glyph-name="W.ss01" horiz-adv-x="1804" 
d="M324 0l-277 1704h289l178 -1335l4 -23l4 25l203 1333h356l201 -1333l6 -27l4 27l176 1333h289l-276 -1704h-387l-185 1278l-6 35l-6 -35l-184 -1278h-389z" />
    <glyph glyph-name="Wacute.ss01" horiz-adv-x="1804" 
d="M324 0l-277 1704h289l178 -1335l4 -23l4 25l203 1333h356l201 -1333l6 -27l4 27l176 1333h289l-276 -1704h-387l-185 1278l-6 35l-6 -35l-184 -1278h-389zM557 1905l670 151l20 -80l-669 -149z" />
    <glyph glyph-name="Wcircumflex.ss01" horiz-adv-x="1804" 
d="M324 0l-277 1704h289l178 -1335l4 -23l4 25l203 1333h356l201 -1333l6 -27l4 27l176 1333h289l-276 -1704h-387l-185 1278l-6 35l-6 -35l-184 -1278h-389zM573 1819l261 237h143l256 -237h-143l-185 174l-188 -174h-144z" />
    <glyph glyph-name="Wdieresis.ss01" horiz-adv-x="1804" 
d="M324 0l-277 1704h289l178 -1335l4 -23l4 25l203 1333h356l201 -1333l6 -27l4 27l176 1333h289l-276 -1704h-387l-185 1278l-6 35l-6 -35l-184 -1278h-389zM610 1923q0 48 30 76.5t73 28.5q42 0 72 -28.5t30 -76.5q0 -43 -30.5 -71.5t-71.5 -28.5q-42 0 -72.5 28.5
t-30.5 71.5zM991 1923q0 48 30 76.5t73 28.5q42 0 72 -28.5t30 -76.5q0 -43 -30.5 -71.5t-71.5 -28.5q-42 0 -72.5 28.5t-30.5 71.5z" />
    <glyph glyph-name="Wgrave.ss01" horiz-adv-x="1804" 
d="M324 0l-277 1704h289l178 -1335l4 -23l4 25l203 1333h356l201 -1333l6 -27l4 27l176 1333h289l-276 -1704h-387l-185 1278l-6 35l-6 -35l-184 -1278h-389zM557 1976l21 80l669 -151l-20 -78z" />
    <glyph glyph-name="X.ss01" horiz-adv-x="1097" 
d="M29 0l354 864l-342 840h299l213 -596l215 596h293l-346 -840l352 -864h-301l-223 621l-221 -621h-293z" />
    <glyph glyph-name="Y.ss01" horiz-adv-x="1091" 
d="M401 0v590l-376 1114h303l217 -758l2 -6l2 6l215 758h305l-379 -1114v-590h-289z" />
    <glyph glyph-name="Yacute.ss01" horiz-adv-x="1091" 
d="M401 0v590l-376 1114h303l217 -758l2 -6l2 6l215 758h305l-379 -1114v-590h-289zM201 1905l669 151l21 -80l-670 -149z" />
    <glyph glyph-name="Ycircumflex.ss01" horiz-adv-x="1091" 
d="M401 0v590l-376 1114h303l217 -758l2 -6l2 6l215 758h305l-379 -1114v-590h-289zM215 1819l260 237h143l256 -237h-143l-184 174l-189 -174h-143z" />
    <glyph glyph-name="Ydieresis.ss01" horiz-adv-x="1091" 
d="M401 0v590l-376 1114h303l217 -758l2 -6l2 6l215 758h305l-379 -1114v-590h-289zM254 1923q0 48 29.5 76.5t72.5 28.5q42 0 72.5 -29t30.5 -76q0 -43 -31 -71.5t-72 -28.5q-42 0 -72 28.5t-30 71.5zM635 1923q0 48 29.5 76.5t72.5 28.5q42 0 72.5 -29t30.5 -76
q0 -43 -31 -71.5t-72 -28.5q-42 0 -72 28.5t-30 71.5z" />
    <glyph glyph-name="Ygrave.ss01" horiz-adv-x="1091" 
d="M401 0v590l-376 1114h303l217 -758l2 -6l2 6l215 758h305l-379 -1114v-590h-289zM201 1976l20 80l670 -151l-21 -78z" />
    <glyph glyph-name="Z.ss01" horiz-adv-x="997" 
d="M70 0v244l546 1216h-546v244h858v-244l-547 -1216h547v-244h-858z" />
    <glyph glyph-name="Zacute.ss01" horiz-adv-x="997" 
d="M70 0v244l546 1216h-546v244h858v-244l-547 -1216h547v-244h-858zM154 1905l669 151l21 -80l-670 -149z" />
    <glyph glyph-name="Zcaron.ss01" horiz-adv-x="997" 
d="M70 0v244l546 1216h-546v244h858v-244l-547 -1216h547v-244h-858zM168 2064h143l189 -176l184 176h143l-256 -237h-143z" />
    <glyph glyph-name="Zdotaccent.ss01" horiz-adv-x="997" 
d="M70 0v244l546 1216h-546v244h858v-244l-547 -1216h547v-244h-858zM354 1931q0 55 38.5 91t107.5 36q70 0 107.5 -36t37.5 -91q0 -54 -37.5 -88.5t-107.5 -34.5q-69 0 -107.5 35t-38.5 88z" />
    <glyph glyph-name="W.ss02" horiz-adv-x="1605" 
d="M102 0v1704h258v-1401l246 1401h451v-1413l246 1413h266l-320 -1704h-450v1427l-240 -1427h-457z" />
    <glyph glyph-name="W.ss03" horiz-adv-x="3168" 
d="M606 0h-416v1704h277v-1407l1016 1407h377v-1407l1009 1407h346l-1216 -1704h-416v1350z" />
    <glyph glyph-name="i.loclTRK" horiz-adv-x="577" 
d="M152 1331h276v-1331h-276v1331zM117 1585q0 65 44 102t128 37q86 0 130 -37t44 -102q0 -60 -45 -97.5t-129 -37.5q-83 0 -127.5 37.5t-44.5 97.5z" />
    <glyph glyph-name="uni006A0301" horiz-adv-x="577" 
d="M152 0v1331h274v-1370q0 -121 -27.5 -207t-81.5 -135.5t-125.5 -71.5t-168.5 -22h-267v239h191q114 0 159.5 51t45.5 185zM-47 1532l649 151l23 -79l-652 -152z" />
    <glyph glyph-name="w.ss02" horiz-adv-x="2166" 
d="M152 0v1331h272v-1141l522 1141h467v-1134l455 1134h299l-565 -1331h-463v1163l-525 -1163h-462z" />
    <glyph glyph-name="zero.ss01" horiz-adv-x="1167" 
d="M584 -20q-242 0 -363 143.5t-121 421.5v616q0 278 121 420.5t363 142.5q240 0 361.5 -142.5t121.5 -420.5v-618q0 -277 -121.5 -420t-361.5 -143zM393 657l373 664q-13 86 -57.5 126t-124.5 40q-99 0 -145 -59.5t-46 -190.5v-580zM401 362q17 -75 61.5 -110t121.5 -35
q97 0 142.5 59.5t45.5 190.5v555z" />
    <glyph glyph-name="one.ss01" horiz-adv-x="942" 
d="M84 242h264v1128q-45 -50 -106.5 -76t-167.5 -26v258q212 0 307 178h256v-1462h266v-242h-819v242z" />
    <glyph glyph-name="two.ss01" horiz-adv-x="1120" 
d="M88 270q0 219 80 357.5t252 232.5l133 78q102 55 147 127.5t45 202.5v41q0 96 -42 137t-132 41q-96 0 -139 -46t-43 -155v-135h-295v98q0 230 121 352.5t356 122.5q227 0 348 -121t121 -354q0 -102 -24.5 -188t-68 -148.5t-95 -106.5t-113.5 -77l-159 -102
q-53 -29 -89 -59t-58 -60.5t-33.5 -73t-15 -85t-3.5 -107.5h653v-242h-946v270z" />
    <glyph glyph-name="three.ss01" horiz-adv-x="1116" 
d="M555 -20q-242 0 -360 112t-119 354v86h289v-122q1 -109 45.5 -151t138.5 -42q99 0 141.5 42.5t42.5 139.5v166q0 103 -44.5 144t-133.5 41h-174v243h172q84 0 128 38t44 130v148q0 97 -43 137.5t-133 40.5q-87 0 -131 -41.5t-45 -145.5v-108h-289v74q3 458 465 458
q112 0 198 -30.5t135 -76t80 -107t41.5 -114t10.5 -106.5v-51q3 -276 -205 -356q213 -81 213 -381v-53q0 -469 -467 -469z" />
    <glyph glyph-name="four.ss01" horiz-adv-x="1093" 
d="M905 1704v-1149h119v-242h-119v-313h-289v313h-561v273l576 1118h274zM264 555h352v690z" />
    <glyph glyph-name="five.ss01" horiz-adv-x="1118" 
d="M659 1143q86 0 151.5 -23.5t118.5 -77.5t81 -151.5t28 -235.5v-139q0 -272 -120 -404t-357 -132q-233 0 -354 124t-121 369v55h295v-114q0 -104 47 -150.5t137 -46.5q91 0 134.5 48t43.5 149v272q0 105 -41 155t-133 50q-79 0 -121 -45.5t-63 -126.5h-285l47 985h822
v-242h-561l-27 -448q97 129 278 129z" />
    <glyph glyph-name="six.ss01" horiz-adv-x="1138" 
d="M573 -20q-241 0 -357 137.5t-116 439.5v559q0 316 115.5 462t364.5 146q227 0 337.5 -116.5t110.5 -329.5v-35h-289v33q0 91 -38 134.5t-121 43.5q-97 0 -141 -51.5t-44 -159.5v-225q98 127 267 127q182 0 287.5 -134.5t105.5 -400.5v-92q0 -272 -120.5 -405t-361.5 -133
zM395 416q0 -106 44.5 -152.5t140.5 -46.5t139 47.5t43 151.5v280q0 100 -41 148.5t-137 48.5q-95 0 -142 -50t-47 -143v-284z" />
    <glyph glyph-name="seven.ss01" horiz-adv-x="976" 
d="M43 1460v244h875v-244q-103 -137 -177 -284.5t-114.5 -277t-63.5 -284.5t-29 -275t-6 -280v-59h-286v59q0 153 8 279.5t34 278.5t69.5 284.5t119.5 278.5t180 280h-610z" />
    <glyph glyph-name="eight.ss01" horiz-adv-x="1138" 
d="M569 -20q-241 0 -359 109.5t-118 330.5v82q0 181 68.5 279t177.5 124q-103 24 -167.5 109.5t-64.5 236.5v68q0 194 118.5 299.5t346.5 105.5q226 0 343.5 -105.5t117.5 -299.5v-68q0 -153 -64 -237.5t-167 -108.5q109 -26 177.5 -124t68.5 -279v-82q0 -440 -478 -440z
M387 397q0 -103 42 -143.5t140 -40.5t140.5 40.5t42.5 143.5v195q0 99 -43.5 140.5t-139.5 41.5t-139 -40.5t-43 -139.5v-197zM399 1178q0 -84 41.5 -122t128.5 -38q86 0 127 39t41 123v149q0 85 -39.5 123.5t-128.5 38.5q-88 0 -129 -38t-41 -124v-151z" />
    <glyph glyph-name="nine.ss01" horiz-adv-x="1138" 
d="M559 -20q-227 0 -337.5 116.5t-110.5 329.5v37h290v-35q0 -91 37 -133.5t121 -42.5q98 0 141 50t43 159v225q-95 -127 -264 -127q-184 0 -289.5 134t-105.5 401v92q0 538 483 538q240 0 355.5 -137.5t115.5 -437.5v-561q0 -316 -115 -462t-364 -146zM379 1008
q0 -100 41 -149.5t135 -49.5q188 0 188 195v284q0 107 -43.5 153t-140.5 46q-96 0 -138 -47.5t-42 -151.5v-280z" />
    <glyph glyph-name="zero.tf" horiz-adv-x="1746" 
d="M874 -20q-354 0 -546.5 212t-192.5 590v146q0 374 193 585t546 211q351 0 542.5 -211.5t191.5 -586.5v-146q0 -376 -191.5 -588t-542.5 -212zM428 760q0 -169 45 -279l709 877q-109 112 -308 112q-222 0 -334 -136t-112 -390v-184zM565 340q113 -107 309 -107
q219 0 330 136.5t111 394.5v182q0 155 -43 268z" />
    <glyph glyph-name="one.tf" horiz-adv-x="1746" 
d="M342 254h438v1141q-181 -131 -444 -131v264q142 0 257 38t206 138h268v-1450h440v-254h-1165v254z" />
    <glyph glyph-name="two.tf" horiz-adv-x="1746" 
d="M164 272q0 95 14.5 172t50.5 149t95 126t151 96.5t215 67.5l252 55q72 15 122 30t96 37.5t73 51t43 69.5t16 95v12q0 122 -95.5 179.5t-293.5 57.5q-228 0 -328 -80.5t-100 -254.5v-45h-295v36q0 291 176.5 444.5t542.5 153.5q336 0 511 -129.5t175 -384.5
q0 -409 -483 -501l-268 -62q-74 -15 -130.5 -33t-96.5 -37.5t-67.5 -46.5t-44 -53t-25 -64t-11 -72.5t-2.5 -86.5h1128v-254h-1421v272z" />
    <glyph glyph-name="three.tf" horiz-adv-x="1746" 
d="M866 -20q-365 0 -536 130.5t-178 421.5v21h290v-31q7 -163 107 -226t315 -63q227 0 321.5 57t94.5 183v41q0 127 -90 176t-313 49h-244v254h244q205 0 292.5 49.5t87.5 165.5v37q0 117 -95.5 171t-295.5 54q-92 0 -158.5 -12t-120 -41.5t-81.5 -84t-31 -134.5v-27h-291
v19q7 278 175.5 406t504.5 128q182 0 315.5 -35t213 -100.5t117.5 -151.5t38 -194v-12q5 -140 -56.5 -236t-188.5 -127q136 -33 202 -132.5t66 -250.5v-12q0 -248 -173 -370.5t-532 -122.5z" />
    <glyph glyph-name="four.tf" horiz-adv-x="1746" 
d="M1374 1704v-1131h219v-254h-219v-319h-287v319h-956v265l959 1120h284zM418 573h669v760z" />
    <glyph glyph-name="five.tf" horiz-adv-x="1746" 
d="M975 1143q131 0 241.5 -33.5t195 -98.5t132 -169.5t47.5 -237.5v-39q0 -585 -694 -585q-343 0 -533 136t-190 394v31h295v-45q0 -91 55.5 -151t147 -86t217.5 -26q200 0 303.5 71t103.5 224v64q0 303 -385 303q-299 0 -442 -188h-276l65 997h1258v-254h-1000l-39 -479
q180 172 498 172z" />
    <glyph glyph-name="six.tf" horiz-adv-x="1746" 
d="M883 -20q-364 0 -537.5 159.5t-173.5 491.5v346q0 368 183 557.5t552 189.5q306 0 470 -130t167 -353l2 -20h-293v20q-3 107 -92 164t-252 57q-214 0 -329 -92.5t-115 -275.5v-133q158 198 506 198q286 0 455 -146.5t169 -402.5v-47q0 -289 -179 -436t-533 -147zM465 541
q0 -160 101 -234t315 -74t318 74t104 228v67q0 159 -99.5 230t-306.5 71q-432 0 -432 -295v-67z" />
    <glyph glyph-name="seven.tf" horiz-adv-x="1746" 
d="M193 1450v254h1339v-254q-103 -69 -190 -145t-152 -151t-116.5 -159.5t-87 -161.5t-61.5 -166t-40.5 -164.5t-23 -166t-11 -161t-2.5 -157.5v-18h-291v18q0 111 4.5 203.5t20.5 212t43 220t75.5 215t115 211.5t165 194t221.5 176h-1009z" />
    <glyph glyph-name="eight.tf" horiz-adv-x="1746" 
d="M874 -20q-360 0 -536 125t-176 362v18q0 166 87.5 275.5t231.5 146.5q-124 33 -202 126.5t-78 234.5v14q0 210 174.5 326t505.5 116q328 0 497.5 -116t169.5 -328v-14q0 -141 -78 -233.5t-202 -125.5q145 -37 232 -145.5t87 -276.5v-20q0 -235 -176.5 -360t-536.5 -125z
M455 477q0 -135 99.5 -196.5t319.5 -61.5q219 0 319.5 62t100.5 198v47q0 132 -101.5 190t-318.5 58q-216 0 -317.5 -58t-101.5 -190v-49zM494 1233q0 -111 95.5 -161t284.5 -50t285 50.5t96 162.5v35q0 113 -93 164t-288 51q-193 0 -286.5 -51.5t-93.5 -163.5v-37z" />
    <glyph glyph-name="nine.tf" horiz-adv-x="1746" 
d="M866 1724q364 0 537.5 -159.5t173.5 -491.5v-346q0 -368 -183 -557.5t-552 -189.5q-306 0 -470 130t-167 353l-2 20h293v-20q3 -107 92 -164t252 -57q214 0 329 92.5t115 275.5v133q-158 -198 -506 -198q-286 0 -455 146.5t-169 402.5v47q0 289 179 436t533 147z
M446 1102q0 -159 99 -230t307 -71q432 0 432 295v67q0 160 -101 233.5t-315 73.5t-318 -74t-104 -227v-67z" />
    <glyph glyph-name="zero.dnom" horiz-adv-x="901" 
d="M451 -10q-181 0 -282 107t-101 294v72q0 187 101 293t282 106q182 0 283.5 -106t101.5 -293v-72q0 -188 -102 -294.5t-283 -106.5zM250 381q0 -51 8 -84l324 365q-46 43 -131 43q-100 0 -150.5 -62t-50.5 -170v-92zM322 188q50 -41 129 -41q100 0 150 61.5t50 172.5v92
q0 45 -8 78z" />
    <glyph glyph-name="one.dnom" horiz-adv-x="706" 
d="M74 158h213v501q-98 -45 -215 -45v166q74 0 130.5 14t100.5 58h164v-694h213v-158h-606v158z" />
    <glyph glyph-name="two.dnom" horiz-adv-x="878" 
d="M72 170q0 241 254 289l137 22q90 18 127 43.5t37 77.5v6q0 97 -174 97q-103 0 -146 -34.5t-43 -103.5v-16h-182v12q0 142 89.5 220.5t279.5 78.5q178 0 268 -67.5t90 -198.5q0 -214 -242 -258l-153 -31q-57 -11 -89.5 -24t-47.5 -33.5t-18 -38t-3 -53.5h553v-158h-737
v170z" />
    <glyph glyph-name="three.dnom" horiz-adv-x="862" 
d="M426 -10q-191 0 -279 65.5t-92 216.5v11h183v-17q4 -72 48 -98.5t138 -26.5q107 0 146.5 25t39.5 78v20q0 56 -40 76t-140 20h-117v146h117q89 0 128.5 22t39.5 72v18q0 93 -174 93q-85 0 -125.5 -27t-44.5 -90v-14h-182v10q9 146 96.5 209t261.5 63q182 0 266 -63
t84 -168v-6q0 -68 -34.5 -120.5t-98.5 -70.5q69 -13 107.5 -64t38.5 -122v-6q0 -127 -88.5 -189.5t-278.5 -62.5z" />
    <glyph glyph-name="four.dnom" horiz-adv-x="849" 
d="M688 852v-547h105v-160h-105v-145h-180v145h-467v164l469 543h178zM219 305h289v322z" />
    <glyph glyph-name="five.dnom" horiz-adv-x="868" 
d="M496 571q145 0 227 -69t82 -209v-19q-3 -284 -367 -284q-183 0 -276.5 71.5t-93.5 208.5v6h184v-14q0 -115 188 -115q95 0 138 29t43 90v33q0 123 -183 123q-118 0 -190 -72h-170l35 502h653v-158h-492l-20 -205q97 82 242 82z" />
    <glyph glyph-name="six.dnom" horiz-adv-x="880" 
d="M442 -10q-188 0 -278 83t-90 257v155q0 194 93.5 285.5t287.5 91.5q165 0 250.5 -62.5t85.5 -183.5v-4h-183v4q0 39 -38 60.5t-111 21.5q-201 0 -201 -141v-49q76 76 221 76q155 0 245.5 -76t90.5 -207v-22q0 -143 -94.5 -216t-278.5 -73zM258 268q0 -62 44.5 -91.5
t139.5 -29.5q189 0 189 121v35q0 63 -43 92t-139 29q-99 0 -145 -30.5t-46 -92.5v-33z" />
    <glyph glyph-name="seven.dnom" horiz-adv-x="763" 
d="M31 694v158h694v-158q-61 -41 -110.5 -85.5t-84 -90.5t-60 -87.5t-41 -91t-25.5 -85.5t-14 -86.5t-5.5 -80t-1.5 -77.5v-10h-182v10q0 62 2.5 108t12 114.5t31 125t55.5 118.5t90 117.5t130 100.5h-491z" />
    <glyph glyph-name="eight.dnom" horiz-adv-x="878" 
d="M438 -10q-370 0 -370 250v10q0 85 36.5 140t98.5 73q-55 18 -87 61.5t-32 110.5v8q0 106 91.5 162.5t268.5 56.5q351 0 351 -221v-6q0 -66 -31.5 -110t-85.5 -62q62 -19 97.5 -73.5t35.5 -141.5v-8q0 -250 -373 -250zM252 250q0 -62 40 -87.5t146 -25.5q107 0 149 25.5
t42 87.5v24q0 58 -41 82.5t-150 24.5q-107 0 -146.5 -24t-39.5 -83v-24zM268 614q0 -42 37.5 -60.5t132.5 -18.5q96 0 134 18.5t38 62.5v19q0 43 -39 61.5t-133 18.5q-93 0 -131.5 -18.5t-38.5 -63.5v-19z" />
    <glyph glyph-name="nine.dnom" horiz-adv-x="878" 
d="M436 862q189 0 279 -82.5t90 -257.5v-155q0 -193 -93 -285t-288 -92q-164 0 -249 62.5t-85 183.5v4h182v-4q0 -39 38.5 -60.5t111.5 -21.5q201 0 201 141v49q-76 -76 -224 -76q-155 0 -245.5 76t-90.5 207v22q0 142 95 215.5t278 73.5zM248 549q0 -62 43.5 -91.5
t140.5 -29.5q191 0 191 123v33q0 62 -45 91.5t-140 29.5q-98 0 -144 -29.5t-46 -91.5v-35z" />
    <glyph glyph-name="zero.numr" horiz-adv-x="901" 
d="M451 842q-181 0 -282 107t-101 294v72q0 187 101 293t282 106q182 0 283.5 -106t101.5 -293v-72q0 -188 -102 -294.5t-283 -106.5zM250 1233q0 -51 8 -84l324 364q-46 43 -131 43q-100 0 -150.5 -61.5t-50.5 -169.5v-92zM322 1040q50 -41 129 -41q100 0 150 61.5
t50 172.5v92q0 45 -8 78z" />
    <glyph glyph-name="one.numr" horiz-adv-x="706" 
d="M74 1010h213v501q-98 -45 -215 -45v166q74 0 130.5 14t100.5 58h164v-694h213v-158h-606v158z" />
    <glyph glyph-name="two.numr" horiz-adv-x="878" 
d="M72 1022q0 241 254 289l137 22q90 18 127 43.5t37 77.5v6q0 96 -174 96q-103 0 -146 -34t-43 -103v-16h-182v12q0 142 89.5 220.5t279.5 78.5q178 0 268 -67.5t90 -198.5q0 -214 -242 -258l-153 -31q-57 -11 -89.5 -24t-47.5 -33.5t-18 -38t-3 -53.5h553v-158h-737v170z
" />
    <glyph glyph-name="three.numr" horiz-adv-x="862" 
d="M426 842q-191 0 -279 65.5t-92 216.5v11h183v-17q4 -72 48 -98.5t138 -26.5q107 0 146.5 25t39.5 78v20q0 56 -40 76t-140 20h-117v146h117q89 0 128.5 22t39.5 72v18q0 93 -174 93q-85 0 -125.5 -27t-44.5 -90v-14h-182v10q9 146 96.5 209t261.5 63q182 0 266 -63
t84 -168v-6q0 -68 -34.5 -120.5t-98.5 -70.5q69 -13 107.5 -64t38.5 -122v-6q0 -127 -88.5 -189.5t-278.5 -62.5z" />
    <glyph glyph-name="four.numr" horiz-adv-x="849" 
d="M688 1704v-547h105v-160h-105v-145h-180v145h-467v164l469 543h178zM219 1157h289v322z" />
    <glyph glyph-name="five.numr" horiz-adv-x="868" 
d="M496 1423q145 0 227 -69t82 -209v-19q-3 -284 -367 -284q-183 0 -276.5 71.5t-93.5 208.5v6h184v-14q0 -115 188 -115q95 0 138 29t43 90v33q0 123 -183 123q-118 0 -190 -72h-170l35 502h653v-158h-492l-20 -205q97 82 242 82z" />
    <glyph glyph-name="six.numr" horiz-adv-x="880" 
d="M442 842q-188 0 -278 83t-90 257v155q0 194 93.5 285.5t287.5 91.5q165 0 250.5 -62.5t85.5 -183.5v-4h-183v4q0 39 -38 60.5t-111 21.5q-201 0 -201 -141v-49q76 76 221 76q155 0 245.5 -76t90.5 -207v-23q0 -142 -94 -215t-279 -73zM258 1120q0 -62 44.5 -91.5
t139.5 -29.5q189 0 189 121v35q0 63 -43 92t-139 29q-99 0 -145 -30.5t-46 -92.5v-33z" />
    <glyph glyph-name="seven.numr" horiz-adv-x="763" 
d="M31 1546v158h694v-158q-61 -41 -110.5 -85.5t-84 -90.5t-60 -87.5t-41 -91t-25.5 -85.5t-14 -86.5t-5.5 -80t-1.5 -77.5v-10h-182v10q0 62 2.5 108t12 114.5t31 125t55.5 118.5t90 117.5t130 100.5h-491z" />
    <glyph glyph-name="eight.numr" horiz-adv-x="878" 
d="M438 842q-370 0 -370 250v10q0 85 36.5 140t98.5 73q-55 18 -87 61.5t-32 110.5v8q0 106 91.5 162.5t268.5 56.5q351 0 351 -221v-6q0 -66 -31.5 -110t-85.5 -62q62 -19 97.5 -73.5t35.5 -141.5v-8q0 -250 -373 -250zM252 1102q0 -62 40 -87.5t146 -25.5q107 0 149 25.5
t42 87.5v24q0 58 -41 82.5t-150 24.5q-107 0 -146.5 -24t-39.5 -83v-24zM268 1466q0 -42 38 -61t132 -19q96 0 134 19t38 63v19q0 43 -39 61.5t-133 18.5q-93 0 -131.5 -18.5t-38.5 -63.5v-19z" />
    <glyph glyph-name="nine.numr" horiz-adv-x="878" 
d="M436 1714q189 0 279 -82.5t90 -257.5v-155q0 -193 -93 -285t-288 -92q-165 0 -249.5 62t-84.5 183v5h182v-5q0 -39 38.5 -60t111.5 -21q201 0 201 141v49q-76 -76 -224 -76q-155 0 -245.5 76t-90.5 207v22q0 142 95 215.5t278 73.5zM248 1401q0 -62 43.5 -91.5
t140.5 -29.5q191 0 191 123v33q0 62 -45 91t-140 29q-98 0 -144 -29t-46 -91v-35z" />
    <glyph glyph-name="exclamdown.case" horiz-adv-x="602" 
d="M438 0h-276l18 1192h242zM137 1563q0 72 47.5 116.5t116.5 44.5q71 0 118.5 -44.5t47.5 -116.5q0 -75 -47.5 -121.5t-118.5 -46.5q-69 0 -116.5 46.5t-47.5 121.5z" />
    <glyph glyph-name="questiondown.case" horiz-adv-x="1308" 
d="M655 -20q-135 0 -240 25t-172 67.5t-111 102.5t-61.5 125t-17.5 140q0 92 29 166t75 123.5t101.5 92t111 81t101.5 80t75 100.5t29 131v23h254v-25q0 -83 -16.5 -152.5t-44.5 -118t-64 -89.5t-76.5 -71.5t-80.5 -58.5t-76 -56.5t-64 -59.5t-44.5 -72.5t-16.5 -91.5
q0 -225 307 -225q168 0 243 78t75 225v43h293v-28q0 -256 -151 -405.5t-458 -149.5zM539 1563q0 72 47 116.5t116 44.5q71 0 118.5 -44.5t47.5 -116.5q0 -75 -47.5 -121.5t-118.5 -46.5q-69 0 -116 46.5t-47 121.5z" />
    <glyph glyph-name="hyphen.case" horiz-adv-x="1708" 
d="M98 844h1512v-90h-1512v90z" />
    <glyph glyph-name="endash.case" horiz-adv-x="1859" 
d="M98 846h1663v-90h-1663v90z" />
    <glyph glyph-name="emdash.case" horiz-adv-x="3063" 
d="M98 846h2868v-92h-2868v92z" />
    <glyph glyph-name="parenleft.case" horiz-adv-x="616" 
d="M500 -190q-210 265 -308 512.5t-98 535.5q0 289 98 532.5t308 507.5h112q-219 -282 -317 -519t-98 -521q0 -286 96.5 -522t318.5 -526h-112z" />
    <glyph glyph-name="parenright.case" horiz-adv-x="616" 
d="M117 1901q210 -265 307.5 -513t97.5 -536q0 -289 -97.5 -532.5t-307.5 -507.5h-113q219 282 317.5 519t98.5 521q0 286 -97 522.5t-319 526.5h113z" />
    <glyph glyph-name="braceleft.case" horiz-adv-x="616" 
d="M96 969q80 0 80 184v387q0 363 295 363h113v-97h-111q-95 0 -144.5 -67.5t-49.5 -190.5v-389q0 -112 -19 -165.5t-72 -88.5v-94q53 -35 72 -88.5t19 -165.5v-387q0 -124 49.5 -192t144.5 -68h111v-96h-113q-295 0 -295 364v385q0 92 -21 138.5t-59 46.5v221z" />
    <glyph glyph-name="braceright.case" horiz-adv-x="616" 
d="M520 745q-80 0 -80 -184v-387q0 -362 -295 -362h-112v96h110q96 0 145.5 67.5t49.5 190.5v389q0 112 18.5 165.5t71.5 88.5v94q-53 35 -71.5 88.5t-18.5 165.5v387q0 123 -50 191.5t-145 68.5h-110v97h112q295 0 295 -365v-385q0 -184 80 -184v-222z" />
    <glyph glyph-name="bracketleft.case" horiz-adv-x="649" 
d="M618 1903v-91h-348v-1912h348v-90h-450v2093h450z" />
    <glyph glyph-name="bracketright.case" horiz-adv-x="645" 
d="M27 -193v91h348v1912h-348v91h450v-2094h-450z" />
    <glyph glyph-name="at.case" horiz-adv-x="1841" 
d="M975 -2q-261 0 -459.5 101.5t-309 295t-110.5 453.5q0 203 60.5 367t170 273.5t262 168.5t335.5 59q388 0 604.5 -213t216.5 -620q0 -255 -79 -390t-232 -135q-91 0 -160 49t-92 140q-49 -95 -133 -144t-195 -49q-194 0 -317 136t-123 368t122.5 367t315.5 135
q106 0 188.5 -45.5t133.5 -132.5v157h176v-712q0 -96 26 -138.5t82 -42.5q91 0 137.5 114t46.5 323q0 368 -186 553.5t-532 185.5q-161 0 -294.5 -51.5t-229 -149t-148.5 -244.5t-53 -331q0 -233 97 -405t270.5 -261.5t402.5 -89.5q138 0 286 24t230 60v-96
q-88 -35 -229 -57.5t-281 -22.5zM592 858q0 -165 78 -255.5t223 -90.5q281 0 281 346q0 168 -71 256t-210 88q-146 0 -223.5 -89.5t-77.5 -254.5z" />
    <glyph glyph-name="ampersand.ss01" horiz-adv-x="1179" 
d="M543 -20q-229 0 -341 121.5t-112 349.5v51q0 289 223 379q-204 85 -204 366v49q0 49 10 100t39.5 112t76 107t128.5 77.5t188 31.5q215 0 327.5 -111.5t112.5 -330.5v-82h-282v78q0 119 -39 166t-117 47q-79 0 -118.5 -46t-39.5 -161v-96q0 -118 43 -163.5t129 -45.5h142
v115h282v-115h113v-223h-113v-320q0 -456 -448 -456zM377 442q0 -126 40.5 -177.5t127.5 -51.5q86 0 125 51.5t39 175.5v316h-150q-182 0 -182 -224v-90z" />
    <glyph glyph-name="cent.tf" horiz-adv-x="1746" 
d="M813 -143v311q-289 18 -439.5 187t-150.5 452v94q0 280 150 448.5t440 186.5v311h123v-311q137 -7 246.5 -52t180 -116.5t110 -161t47.5 -192.5l4 -66h-277l-6 76q-10 106 -86.5 182.5t-218.5 89.5v-888q149 11 222 87t83 185l6 74h277l-6 -64q-9 -103 -48 -191.5
t-108.5 -161t-178.5 -117.5t-247 -52v-311h-123zM504 793q0 -165 75 -265t234 -118v884q-309 -38 -309 -387v-114z" />
    <glyph glyph-name="dollar.tf" horiz-adv-x="1746" 
d="M819 -143v125q-295 19 -445.5 164t-150.5 409v49h289v-49q0 -150 76.5 -228t230.5 -96v533l-121 45q-82 28 -141.5 55.5t-116.5 68t-92 88t-56.5 114.5t-21.5 149q0 203 145.5 317t403.5 123v123h123v-125q252 -19 394.5 -147.5t142.5 -351.5v-49h-287v40q0 227 -250 259
v-467l137 -50q86 -31 144.5 -58.5t116.5 -68.5t91.5 -89t54.5 -117t21 -156q0 -472 -565 -487v-123h-123zM559 1276q0 -39 15 -70.5t33.5 -51t60 -41t68 -32t83.5 -30.5v424q-124 -6 -192 -53.5t-68 -135.5v-10zM942 227q131 6 205 64t74 170v12q0 32 -7 58t-16 45t-30.5 37
t-37 29t-50.5 26t-57 23t-69 24l-12 4v-492z" />
    <glyph glyph-name="Euro.tf" horiz-adv-x="1746" 
d="M80 721v86h135v90h-135v86h137q7 159 57 292.5t140.5 234.5t230 157.5t313.5 56.5q162 0 293 -51t217.5 -141t136.5 -207t60 -254l2 -74h-299l-2 93q-6 78 -33.5 145t-76 120t-124.5 83t-171 30q-112 0 -198 -38t-138.5 -105.5t-80 -153t-32.5 -188.5h567v-86h-567v-90
h567v-86h-567q5 -105 32.5 -190.5t79.5 -152.5t137 -104.5t197 -37.5q97 0 174 30.5t125 84t75.5 120.5t33.5 145l2 95h299l-2 -74q-10 -139 -60 -257t-136.5 -208t-217.5 -141t-293 -51q-174 0 -312.5 56.5t-229 157t-141 234t-58.5 293.5h-137z" />
    <glyph glyph-name="sterling.tf" horiz-adv-x="1746" 
d="M211 193q103 80 156 175t53 216q0 9 -1 27t-1 26h-207v119h178q-7 21 -47.5 121.5t-58 178t-17.5 173.5q0 224 167.5 359.5t469.5 135.5q311 0 476 -156t165 -435v-60h-293v66q0 176 -85 264t-269 88q-173 0 -255.5 -76t-82.5 -213q0 -81 22.5 -155t59 -155.5
t51.5 -135.5h547v-119h-528q2 -12 2 -37q0 -202 -168 -367h999v-233h-1333v193z" />
    <glyph glyph-name="yen.tf" horiz-adv-x="1746" 
d="M266 569v82h432l-622 1053h332l466 -821l467 821h330l-620 -1053h430v-82h-463v-98h463v-82h-463v-389h-287v389h-465v82h465v98h-465z" />
    <glyph glyph-name="bouclecomb" horiz-adv-x="1341" 
d="M743 -20q-159 0 -266.5 59.5t-167.5 144.5h-20v957h20q55 88 162 149.5t268 61.5q271 0 430.5 -171.5t159.5 -445.5v-145q0 -269 -160 -439.5t-426 -170.5zM315 600q0 -167 94 -274t273 -107q92 0 162.5 30t113.5 83.5t64.5 121.5t21.5 148v127q0 79 -22 147t-65 121.5
t-114 84t-163 30.5q-177 0 -271 -107.5t-94 -275.5v-129z" />
    <glyph glyph-name="slashcomb" horiz-adv-x="1863" 
d="M207 12l1225 1680h217l-1225 -1680h-217z" />
    </font>
</defs>
</svg>
