<?xml version="1.0" standalone="no"?>
<!DOCTYPE svg PUBLIC "-//W3C//DTD SVG 1.1//EN" "http://www.w3.org/Graphics/SVG/1.1/DTD/svg11.dtd" >
<svg xmlns="http://www.w3.org/2000/svg" xmlns:xlink="http://www.w3.org/1999/xlink" version="1.1">
<metadata>
Created by FontForge 20170731 at Thu Oct  5 16:22:24 2023
 By Aleksey,,,
Copyright (c) 2021 by Mathieu Desjardins. All rights reserved.
</metadata>
<defs>
<font id="PPFormula-Medium" horiz-adv-x="1366" >
  <font-face 
    font-family="PP Formula Medium"
    font-weight="500"
    font-stretch="normal"
    units-per-em="2048"
    panose-1="0 0 0 0 0 0 0 0 0 0"
    ascent="1638"
    descent="-410"
    x-height="1331"
    cap-height="1692"
    bbox="-463 -471 3183 2116"
    underline-thickness="81"
    underline-position="-285"
    unicode-range="U+0020-FB02"
  />
<missing-glyph horiz-adv-x="1075" 
d="M883 1679v-2150h-682v2150h682zM358 -324h359v72h-219l149 100h70v72h-359v-72h152l-152 -100v-72zM358 -31h359v244h-359v-244zM358 342h359v244h-215v-121h71v49h72v-100h-215v172h-72v-244zM358 633h359v215h-72v-143h-287v-72zM358 756h215v149h144v72h-359v-72h144
v-80h-144v-69zM358 1034h359v74h-144v149h-215v-223zM358 1315h359v69h-144v80h144v72h-357v-72h142v-80h-144v-69zM430 41v100h215v-100h-215zM430 1108v78h72v-78h-72z" />
    <glyph glyph-name="fi" unicode="fi" horiz-adv-x="1519" 
d="M23 1331h335v72q0 57 6 98t26.5 83.5t55 68.5t95.5 42.5t145 16.5q145 0 297 -20v-160q-64 12 -205 12q-71 0 -114.5 -8.5t-65.5 -29.5t-28.5 -45.5t-6.5 -67.5v-107q41 31 124.5 38t295.5 7v-178h-420v-1153h-205v1153h-335v178zM1122 1593q0 54 36 86.5t102 32.5
t102.5 -32.5t36.5 -86.5q0 -49 -37 -81.5t-102 -32.5t-101.5 32.5t-36.5 81.5zM1157 0v1331h205v-1331h-205z" />
    <glyph glyph-name="fl" unicode="fl" horiz-adv-x="1523" 
d="M23 1331h335v72q0 57 6 98t26.5 83.5t55 68.5t95.5 42.5t145 16.5q145 0 297 -20v-160q-64 12 -205 12q-71 0 -114.5 -8.5t-65.5 -29.5t-28.5 -45.5t-6.5 -67.5v-107q41 31 124.5 38t295.5 7v-178h-420v-1153h-205v1153h-335v178zM1161 0v1692h205v-1692h-205z" />
    <glyph glyph-name=".notdef" horiz-adv-x="1075" 
d="M883 1679v-2150h-682v2150h682zM358 -324h359v72h-219l149 100h70v72h-359v-72h152l-152 -100v-72zM358 -31h359v244h-359v-244zM358 342h359v244h-215v-121h71v49h72v-100h-215v172h-72v-244zM358 633h359v215h-72v-143h-287v-72zM358 756h215v149h144v72h-359v-72h144
v-80h-144v-69zM358 1034h359v74h-144v149h-215v-223zM358 1315h359v69h-144v80h144v72h-357v-72h142v-80h-144v-69zM430 41v100h215v-100h-215zM430 1108v78h72v-78h-72z" />
    <glyph glyph-name=".null" horiz-adv-x="0" 
 />
    <glyph glyph-name="nonmarkingreturn" horiz-adv-x="682" 
 />
    <glyph glyph-name="space" unicode=" " horiz-adv-x="593" 
 />
    <glyph glyph-name="exclam" unicode="!" horiz-adv-x="546" 
d="M172 1692h205l-12 -1180h-185zM131 121q0 64 40.5 103.5t100.5 39.5t102 -39.5t42 -103.5q0 -63 -42 -102t-102 -39t-100.5 39t-40.5 102z" />
    <glyph glyph-name="quotedbl" unicode="&#x22;" horiz-adv-x="620" 
d="M127 1692h129v-512h-129v512zM365 1180v512h129v-512h-129z" />
    <glyph glyph-name="numbersign" unicode="#" horiz-adv-x="1994" 
d="M287 1130h528l352 562h113l-352 -562h485l352 562h113l-352 -562h399v-90h-455l-278 -442h510v-90h-565l-320 -508h-112l319 508h-485l-320 -508h-113l320 508h-363v90h418l279 442h-473v90zM594 598h485l279 442h-486z" />
    <glyph glyph-name="dollar" unicode="$" horiz-adv-x="1333" 
d="M625 -143v125q-264 17 -401.5 154.5t-137.5 387.5v70h211v-70q0 -323 328 -354v623l-111 45q-71 27 -123 53t-104.5 65t-85.5 84t-53.5 108.5t-20.5 141.5q0 196 132.5 305t365.5 117v123h106v-125q227 -19 354 -143t127 -340v-60h-213v50q0 275 -268 307v-559l115 -47
q53 -21 90 -38t81 -41.5t73.5 -49.5t59.5 -61t47.5 -76t28.5 -93.5t11 -116.5q0 -223 -128.5 -338.5t-377.5 -123.5v-123h-106zM340 1286q0 -39 9 -72t30 -58.5t41.5 -44t56.5 -37.5t61.5 -30t69.5 -28l17 -6v518q-135 -6 -210 -63t-75 -169v-10zM731 166q293 13 293 270v13
q0 45 -8 80.5t-27.5 63.5t-38.5 47t-56.5 38.5t-64 31t-77.5 31.5l-21 9v-584z" />
    <glyph glyph-name="percent" unicode="%" horiz-adv-x="1722" 
d="M276 0l1037 1692h129l-1039 -1692h-127zM55 1346q0 95 38.5 176.5t119.5 135.5t190 54t190 -54t120 -135.5t39 -176.5q0 -69 -23 -134t-66 -116.5t-110.5 -83t-149.5 -31.5q-109 0 -190 54t-119.5 135.5t-38.5 175.5zM221 1346q0 -95 49 -152t133 -57q83 0 133 57.5
t50 151.5q0 95 -50 152.5t-133 57.5q-84 0 -133 -57t-49 -153zM971 346q0 94 39 175.5t120 135.5t189 54q109 0 190.5 -54t120.5 -135.5t39 -175.5q0 -95 -39 -176.5t-120.5 -135.5t-190.5 -54q-108 0 -189 54t-120 135.5t-39 176.5zM1139 346q0 -95 49 -153t131 -58
q84 0 133 58t49 153t-49 152t-133 57q-83 0 -131.5 -57.5t-48.5 -151.5z" />
    <glyph glyph-name="ampersand" unicode="&#x26;" horiz-adv-x="1480" 
d="M690 -20q-287 0 -429 124.5t-142 346.5v24q0 143 69 247t197 140q-122 37 -191 138t-69 243v21q0 91 32.5 169t98.5 142t179 100.5t261 36.5q555 0 555 -485v-29h-209v39q0 158 -81.5 229.5t-266.5 71.5q-184 0 -270 -69t-86 -205v-47q0 -147 88 -211t268 -64h348v127
h209v-127h148v-166h-148v-327q0 -229 -139 -349t-422 -120zM330 440q0 -144 87 -216t275 -72q182 0 266 70t84 220v334h-350q-182 0 -272 -66t-90 -212v-58z" />
    <glyph glyph-name="quotesingle" unicode="'" horiz-adv-x="382" 
d="M127 1692h129v-512h-129v512z" />
    <glyph glyph-name="parenleft" unicode="(" horiz-adv-x="610" 
d="M487 -311q-204 262 -298.5 508t-94.5 532q0 288 94.5 530.5t298.5 503.5h113q-213 -280 -308 -515t-95 -519q0 -285 93.5 -519t309.5 -521h-113z" />
    <glyph glyph-name="parenright" unicode=")" horiz-adv-x="612" 
d="M125 1767q204 -262 298.5 -508t94.5 -532q0 -288 -94.5 -530.5t-298.5 -503.5h-113q214 281 309 515.5t95 518.5q0 194 -44 363.5t-129.5 326.5t-230.5 350h113z" />
    <glyph glyph-name="asterisk" unicode="*" horiz-adv-x="778" 
d="M348 1700h82v-240l191 101l41 -70l-187 -98l187 -99l-41 -69l-191 100v-240h-82v240l-190 -100l-41 69l186 99l-186 98l41 70l190 -101v240z" />
    <glyph glyph-name="plus" unicode="+" horiz-adv-x="1603" 
d="M109 797v92h643v536h100v-536h643v-92h-643v-537h-100v537h-643z" />
    <glyph glyph-name="comma" unicode="," horiz-adv-x="481" 
d="M129 -121q60 17 113 58t71 94q-38 -51 -96 -51q-50 0 -84.5 36.5t-34.5 102.5q0 65 39 103t105 38t104.5 -47t38.5 -123q0 -104 -70.5 -190t-185.5 -146v125z" />
    <glyph glyph-name="hyphen" unicode="-" horiz-adv-x="1572" 
d="M94 721h1385v-90h-1385v90z" />
    <glyph glyph-name="period" unicode="." horiz-adv-x="483" 
d="M242 -20q-60 0 -101 39t-41 102q0 64 41 103.5t101 39.5t101.5 -39.5t41.5 -103.5q0 -63 -41.5 -102t-101.5 -39z" />
    <glyph glyph-name="slash" unicode="/" horiz-adv-x="1236" 
d="M1206 1692l-1061 -1692h-112l1061 1692h112z" />
    <glyph glyph-name="zero" unicode="0" horiz-adv-x="1525" 
d="M768 -20q-318 0 -483.5 191.5t-165.5 539.5v274q0 345 166 536t483 191q311 0 475 -191.5t164 -535.5v-274q0 -347 -164 -539t-475 -192zM336 690q0 -176 49 -295l688 1012q-106 121 -305 121q-432 0 -432 -524v-314zM461 279q109 -115 307 -115q422 0 422 528v314
q0 165 -43 278z" />
    <glyph glyph-name="one" unicode="1" horiz-adv-x="1155" 
d="M109 184h409v1272q-73 -77 -181.5 -118.5t-234.5 -41.5v195q132 0 235.5 46.5t186.5 154.5h205v-1508h410v-184h-1030v184z" />
    <glyph glyph-name="two" unicode="2" horiz-adv-x="1478" 
d="M115 197q0 98 11.5 173.5t43.5 149t86 128.5t141 102.5t207 80.5l215 76q84 24 138.5 47.5t102.5 61.5t70.5 93t22.5 130v12q0 147 -96.5 212t-286.5 65q-217 0 -319.5 -86t-102.5 -281v-55h-217v45q0 277 159 419t478 142q292 0 447 -120t155 -359q0 -379 -436 -492
l-221 -77q-101 -27 -169.5 -59.5t-111 -70t-65 -92.5t-30 -112.5t-7.5 -145.5h1038v-184h-1253v197z" />
    <glyph glyph-name="three" unicode="3" horiz-adv-x="1466" 
d="M727 -20q-319 0 -472.5 126t-156.5 390v36h215v-45q3 -177 102.5 -250t309.5 -73q212 0 308.5 67.5t96.5 212.5v56q0 81 -28 136t-83.5 84t-121.5 40.5t-158 11.5h-231v184h229q87 0 152 11.5t117.5 39t80 77.5t27.5 122v49q0 147 -100.5 210t-284.5 63q-70 0 -125 -8
t-105.5 -29t-84 -55t-53.5 -89t-21 -128v-39h-215v30q3 255 153 378.5t451 123.5q157 0 274.5 -34.5t187.5 -97.5t104 -145t34 -184v-22q2 -139 -66 -235t-196 -126q139 -36 209 -137t70 -254v-26q0 -231 -153.5 -351t-465.5 -120z" />
    <glyph glyph-name="four" unicode="4" horiz-adv-x="1425" 
d="M1149 1692v-1164h205v-184h-205v-344h-213v344h-879v193l883 1155h209zM262 528h674v858z" />
    <glyph glyph-name="five" unicode="5" horiz-adv-x="1466" 
d="M819 1135q161 0 282.5 -55.5t193 -173t71.5 -285.5v-84q0 -278 -158 -417.5t-458 -139.5q-293 0 -462 128.5t-169 374.5v39h217v-53q0 -69 23 -123t61.5 -87.5t92.5 -55.5t110.5 -30.5t121.5 -8.5q92 0 164 18.5t127 58t84 106t29 157.5v110q0 168 -96 252t-279 84
q-298 0 -428 -239h-211l60 981h1095v-185h-903l-41 -571q160 199 473 199z" />
    <glyph glyph-name="six" unicode="6" horiz-adv-x="1492" 
d="M756 -20q-319 0 -472 145.5t-153 443.5v459q0 330 159 507t484 177q141 0 249 -35t174.5 -99t100.5 -147.5t37 -185.5v-26h-215v26q-6 136 -94.5 205.5t-251.5 69.5q-204 0 -315 -101.5t-111 -308.5v-172q146 203 473 203q265 0 413 -136t148 -389v-90q0 -268 -156 -407
t-470 -139zM348 516q0 -185 100.5 -268.5t307.5 -83.5q206 0 307.5 83.5t101.5 256.5v110q0 177 -98.5 257.5t-294.5 80.5q-199 0 -311.5 -80.5t-112.5 -242.5v-113z" />
    <glyph glyph-name="seven" unicode="7" horiz-adv-x="1263" 
d="M25 1507v185h1187v-185q-115 -84 -207 -181.5t-157 -194.5t-113.5 -209t-77 -216.5t-46 -226t-23.5 -228t-6 -231.5v-20h-211v20q0 120 6 225t22.5 226t44 226t73.5 218.5t107.5 212.5t149.5 197t197 182h-946z" />
    <glyph glyph-name="eight" unicode="8" horiz-adv-x="1478" 
d="M739 -20q-313 0 -468.5 118.5t-155.5 345.5v43q0 167 82.5 270t226.5 140q-123 32 -196.5 122.5t-73.5 231.5v37q0 201 151 312.5t436 111.5q286 0 435 -111.5t149 -312.5v-37q0 -140 -74 -231t-194 -123q142 -37 224.5 -141t82.5 -271v-41q0 -227 -155.5 -345.5
t-469.5 -118.5zM330 446q0 -152 100.5 -220t308.5 -68t309 68t101 220v72q0 152 -104 216.5t-306 64.5t-305.5 -64t-103.5 -217v-72zM369 1225q0 -244 370 -244q174 0 272.5 59t98.5 187v57q0 250 -371 250q-185 0 -277.5 -61t-92.5 -189v-59z" />
    <glyph glyph-name="nine" unicode="9" horiz-adv-x="1492" 
d="M737 1712q319 0 472 -146t153 -444v-458q0 -330 -159 -507t-484 -177q-141 0 -249 35t-174.5 98.5t-100.5 147t-37 185.5v27h215v-27q6 -136 94 -205t252 -69q204 0 315 101.5t111 308.5v172q-146 -203 -473 -203q-265 0 -413 135.5t-148 388.5v90q0 268 156.5 407.5
t469.5 139.5zM328 1077q0 -177 98.5 -257.5t294.5 -80.5q199 0 311.5 81t112.5 243v113q0 185 -100.5 268.5t-307.5 83.5q-206 0 -307.5 -83.5t-101.5 -256.5v-111z" />
    <glyph glyph-name="colon" unicode=":" horiz-adv-x="552" 
d="M276 854q-60 0 -100.5 39t-40.5 102q0 65 40.5 104.5t100.5 39.5t102 -40t42 -104q0 -63 -42 -102t-102 -39zM135 121q0 64 40.5 103.5t100.5 39.5t102 -39.5t42 -103.5q0 -63 -42 -102t-102 -39t-100.5 39t-40.5 102z" />
    <glyph glyph-name="semicolon" unicode=";" horiz-adv-x="548" 
d="M276 854q-60 0 -100.5 39t-40.5 102q0 65 40.5 104.5t100.5 39.5t102 -40t42 -104q0 -63 -42 -102t-102 -39zM129 119q0 65 38.5 103t104.5 38q67 0 105.5 -47t38.5 -123q0 -104 -70.5 -190t-185.5 -146v125q60 17 113 58t71 94q-38 -51 -96 -51q-50 0 -84.5 36.5
t-34.5 102.5z" />
    <glyph glyph-name="less" unicode="&#x3c;" horiz-adv-x="1476" 
d="M90 885l1239 325v-98l-1073 -268l1073 -266v-101l-1239 326v82z" />
    <glyph glyph-name="equal" unicode="=" horiz-adv-x="1619" 
d="M119 1032h1384v-90h-1384v90zM119 657v91h1384v-91h-1384z" />
    <glyph glyph-name="greater" unicode="&#x3e;" horiz-adv-x="1476" 
d="M1386 805l-1239 -326v99l1074 268l-1074 266v100l1239 -325v-82z" />
    <glyph glyph-name="question" unicode="?" horiz-adv-x="1181" 
d="M594 1712q144 0 250 -35.5t165.5 -98.5t87 -138.5t27.5 -165.5q0 -86 -26.5 -156t-68.5 -117.5t-92.5 -89.5t-101.5 -83.5t-93 -87t-68.5 -111.5t-26.5 -148v-24h-192v26q0 101 25 183t65 135t88.5 97.5t97 83t88.5 78t65 95t25 123.5q0 124 -77.5 192t-237.5 68
q-76 0 -133.5 -17t-94.5 -47t-60 -74t-32.5 -93.5t-9.5 -110.5v-55h-213v41q0 88 16.5 163.5t56.5 144t100.5 117t155 77t214.5 28.5zM410 121q0 64 40.5 103.5t100.5 39.5t101.5 -39.5t41.5 -103.5q0 -63 -41.5 -102t-101.5 -39t-100.5 39t-40.5 102z" />
    <glyph glyph-name="at" unicode="@" horiz-adv-x="1753" 
d="M934 -170q-252 0 -440.5 97.5t-293 287.5t-104.5 451q0 201 58.5 362.5t163 267t248 161.5t315.5 56q364 0 565 -206.5t201 -616.5q0 -249 -73.5 -381.5t-221.5 -132.5q-85 0 -145 45.5t-81 130.5q-93 -184 -305 -184q-183 0 -295 134t-112 366q0 231 112 365t293 134
q202 0 297 -168v150h148v-705q0 -95 26.5 -138.5t79.5 -43.5q85 0 129.5 110.5t44.5 319.5q0 370 -170.5 549.5t-490.5 179.5q-150 0 -275 -49t-216.5 -143t-142 -238.5t-50.5 -326.5q0 -234 92 -403.5t255.5 -255t381.5 -85.5q130 0 266 23t215 57v-92q-85 -35 -214 -56.5
t-261 -21.5zM559 668q0 -177 76 -272t215 -95q266 0 266 367q0 366 -268 366q-138 0 -213.5 -94.5t-75.5 -271.5z" />
    <glyph glyph-name="A" unicode="A" horiz-adv-x="1443" 
d="M27 0l555 1692h278l557 -1692h-227l-105 332h-729l-104 -332h-225zM416 518h610l-295 940l-10 29l-10 -29z" />
    <glyph glyph-name="B" unicode="B" horiz-adv-x="1548" 
d="M176 0v1692h750q230 0 347.5 -99t117.5 -317v-23q0 -277 -211 -358q119 -36 191.5 -138t72.5 -265v-25q0 -239 -124 -353t-372 -114h-772zM389 186h539q156 0 226.5 63.5t70.5 215.5v47q0 149 -75.5 210.5t-229.5 61.5h-531v-598zM389 973h500q46 0 83 5t75.5 21.5
t63.5 43.5t41.5 74.5t16.5 111.5v41q0 61 -13.5 104.5t-35 68.5t-58.5 39t-74 18.5t-91 4.5h-508v-532z" />
    <glyph glyph-name="C" unicode="C" horiz-adv-x="1595" 
d="M813 -20q-172 0 -307.5 55.5t-222.5 154.5t-132 231t-45 290v274q0 156 45 287.5t132 230t223.5 154t308.5 55.5q157 0 284 -46.5t211.5 -129t132 -193t54.5 -241.5l2 -109h-223l-2 129q-9 183 -129.5 292.5t-327.5 109.5q-241 0 -366 -141t-125 -379v-314
q0 -241 124 -381.5t365 -140.5q212 0 331 109.5t128 295.5l2 127h223l-2 -106q-7 -132 -54.5 -243t-132 -194t-212 -130t-285.5 -47z" />
    <glyph glyph-name="D" unicode="D" horiz-adv-x="1589" 
d="M176 0v1692h631q160 0 281 -39t209.5 -122.5t134 -221.5t45.5 -328v-270q0 -190 -45.5 -327.5t-134 -221t-209.5 -123t-281 -39.5h-631zM389 182h416q237 0 343.5 122t106.5 394v295q0 272 -106.5 394t-343.5 122h-416v-1327z" />
    <glyph glyph-name="E" unicode="E" horiz-adv-x="1357" 
d="M176 0v1692h1071v-187h-858v-565h813v-188h-813v-566h858v-186h-1071z" />
    <glyph glyph-name="F" unicode="F" horiz-adv-x="1331" 
d="M176 0v1692h1088v-187h-875v-639h825v-186h-825v-680h-213z" />
    <glyph glyph-name="G" unicode="G" horiz-adv-x="1626" 
d="M786 -20q-162 0 -291.5 55.5t-213 153.5t-128 230t-44.5 288v278q0 156 44 287.5t129.5 230t221.5 154t309 55.5q153 0 278.5 -45t210.5 -125t134 -187.5t57 -234.5l2 -82h-223l-2 103q-10 181 -132 282t-323 101q-244 0 -365.5 -140.5t-121.5 -379.5v-314
q0 -241 119.5 -381.5t351.5 -140.5q209 0 334 110.5t137 313.5v96h-570v176h795v-864h-139l-25 272q-76 -136 -213 -214t-332 -78z" />
    <glyph glyph-name="H" unicode="H" horiz-adv-x="1599" 
d="M1210 0v752h-821v-752h-213v1692h213v-752h821v752h213v-1692h-213z" />
    <glyph glyph-name="I" unicode="I" horiz-adv-x="1105" 
d="M98 0v193h348v1306h-348v193h912v-193h-351v-1306h351v-193h-912z" />
    <glyph glyph-name="J" unicode="J" horiz-adv-x="1406" 
d="M651 -20q-310 0 -452 156t-142 474v49h219v-69q0 -226 88 -325t287 -99q194 0 286.5 96t92.5 313v1117h215v-1096q0 -307 -143 -461.5t-451 -154.5z" />
    <glyph glyph-name="K" unicode="K" horiz-adv-x="1454" 
d="M1169 0l-665 750h-115v-750h-213v1692h213v-750h115l665 750h273l-770 -846l770 -846h-273z" />
    <glyph glyph-name="L" unicode="L" horiz-adv-x="1275" 
d="M176 0v1692h213v-1506h852v-186h-1065z" />
    <glyph glyph-name="M" unicode="M" horiz-adv-x="1886" 
d="M176 0v1692h244l524 -1330l524 1330h244v-1692h-203v1274l-503 -1274h-123l-504 1274v-1274h-203z" />
    <glyph glyph-name="N" unicode="N" horiz-adv-x="1630" 
d="M176 0v1692h207l866 -1321v1321h205v-1692h-207l-866 1321v-1321h-205z" />
    <glyph glyph-name="O" unicode="O" horiz-adv-x="1624" 
d="M813 -20q-137 0 -252.5 36.5t-198.5 102t-141 157t-86.5 201.5t-28.5 234v274q0 154 45.5 285.5t132 230.5t222.5 155t307 56q170 0 305.5 -56t222 -155t132 -230.5t45.5 -285.5v-274q0 -156 -45.5 -288.5t-132 -231.5t-222 -155t-305.5 -56zM326 690q0 -238 124 -379
t363 -141q237 0 361 141t124 379v314q0 236 -124 377t-361 141q-238 0 -362.5 -141t-124.5 -377v-314z" />
    <glyph glyph-name="P" unicode="P" horiz-adv-x="1519" 
d="M176 0v1692h719q280 0 417.5 -134.5t137.5 -412.5v-23q0 -278 -137 -415.5t-418 -137.5h-506v-569h-213zM389 754h502q178 0 258 82t80 262v73q0 179 -79.5 258.5t-258.5 79.5h-502v-755z" />
    <glyph glyph-name="Q" unicode="Q" horiz-adv-x="1624" 
d="M813 170q237 0 361 141t124 379v314q0 236 -124 377t-361 141q-238 0 -362.5 -141t-124.5 -377v-314q0 -238 124 -379t363 -141zM106 711v274q0 154 45.5 285.5t132 230.5t222.5 155t307 56q170 0 305.5 -56t222 -155t132 -230.5t45.5 -285.5v-274q0 -193 -67 -347.5
t-204.5 -255.5t-331.5 -122q218 -27 422 -119v-178q-201 88 -357 124t-362 42l3 145q-248 56 -381.5 248t-133.5 463z" />
    <glyph glyph-name="R" unicode="R" horiz-adv-x="1566" 
d="M1233 0q-25 27 -25 152v270q0 66 -18 115.5t-47 78.5t-72.5 47t-87 24.5t-96.5 6.5h-498v-694h-213v1692h715q276 0 406 -113t130 -362v-13q0 -340 -266 -416q129 -33 196.5 -128.5t67.5 -239.5v-268q0 -121 23 -152h-215zM389 877h498q78 0 132.5 12.5t98.5 44t66 91.5
t22 149v53q0 84 -20.5 139.5t-65 86.5t-104 43.5t-146.5 12.5h-481v-632z" />
    <glyph glyph-name="S" unicode="S" horiz-adv-x="1456" 
d="M754 -20q-668 0 -668 559v59h219v-80q0 -185 110 -268.5t345 -83.5q196 0 287.5 62.5t91.5 201.5v21q0 69 -18.5 117t-61 81t-92 53t-129.5 41l-316 97q-69 22 -123 46.5t-105.5 61t-85 81t-53.5 106t-20 135.5q0 214 150.5 328t433.5 114q297 0 452.5 -128t155.5 -370
v-51h-219v60q0 159 -94 232t-295 73q-365 0 -365 -240v-14q0 -57 21 -101t62.5 -74t88 -49.5t111.5 -37.5l321 -97q74 -22 129 -45.5t109 -61t88 -84.5t55 -115t21 -154q0 -242 -147.5 -358.5t-458.5 -116.5z" />
    <glyph glyph-name="T" unicode="T" horiz-adv-x="1339" 
d="M563 0v1505h-524v187h1264v-187h-527v-1505h-213z" />
    <glyph glyph-name="U" unicode="U" horiz-adv-x="1589" 
d="M795 -20q-338 0 -485.5 146.5t-147.5 471.5v1094h215v-1110q0 -99 18 -171.5t51 -119.5t86 -75t115.5 -39t147.5 -11q107 0 180 18.5t128.5 64t82 128t26.5 205.5v1110h215v-1094q0 -329 -147.5 -473.5t-484.5 -144.5z" />
    <glyph glyph-name="V" unicode="V" horiz-adv-x="1443" 
d="M584 0l-557 1692h227l459 -1459l10 -28l10 28l459 1459h225l-555 -1692h-278z" />
    <glyph glyph-name="W" unicode="W" horiz-adv-x="2275" 
d="M487 0l-444 1692h219l365 -1442l374 1442h273l375 -1432l4 -12l2 10l358 1434h221l-444 -1692h-277l-370 1417l-4 17l-4 -17l-373 -1417h-275z" />
    <glyph glyph-name="X" unicode="X" horiz-adv-x="1435" 
d="M23 0l573 854l-561 838h250l436 -676l434 676h250l-565 -838l571 -854h-252l-444 694l-445 -694h-247z" />
    <glyph glyph-name="Y" unicode="Y" horiz-adv-x="1435" 
d="M610 0v592l-600 1100h242l465 -875l465 875h241l-600 -1100v-592h-213z" />
    <glyph glyph-name="Z" unicode="Z" horiz-adv-x="1343" 
d="M82 0v188l924 1317h-924v187h1180v-189l-924 -1317h924v-186h-1180z" />
    <glyph glyph-name="bracketleft" unicode="[" horiz-adv-x="638" 
d="M604 1767v-88h-336v-1900h336v-90h-438v2078h438z" />
    <glyph glyph-name="backslash" unicode="\" horiz-adv-x="1236" 
d="M33 1692h112l1061 -1692h-112z" />
    <glyph glyph-name="bracketright" unicode="]" horiz-adv-x="638" 
d="M35 -311v88h336v1900h-336v90h438v-2078h-438z" />
    <glyph glyph-name="asciicircum" unicode="^" horiz-adv-x="1028" 
d="M834 1077l-320 551l-319 -551h-111l356 615h148l356 -615h-110z" />
    <glyph glyph-name="underscore" unicode="_" horiz-adv-x="1574" 
d="M0 -156h1573v-90h-1573v90z" />
    <glyph glyph-name="grave" unicode="`" horiz-adv-x="1339" 
d="M1135 1532l-21 -80l-909 152l20 79z" />
    <glyph glyph-name="a" unicode="a" horiz-adv-x="1325" 
d="M981 0v229q-68 -125 -197.5 -187t-291.5 -62q-183 0 -292.5 85t-109.5 263q0 295 402 393l155 39q48 13 73 20t66 20t63 24t50.5 28t42.5 34.5t24.5 41.5t10.5 51v8q0 81 -70.5 135t-222.5 54q-171 0 -258.5 -70.5t-87.5 -204.5v-53h-207v41q0 101 32 184t97 146t172 98
t248 35q502 0 502 -408v-944h-201zM299 346q0 -99 61.5 -145.5t184.5 -46.5q170 0 292.5 98.5t139.5 273.5v234q-25 -53 -95.5 -85.5t-195.5 -66.5l-135 -37q-127 -33 -189.5 -84t-62.5 -141z" />
    <glyph glyph-name="b" unicode="b" horiz-adv-x="1388" 
d="M156 0v1692h204v-562q22 40 55.5 76t83 70.5t121 55t154.5 20.5q242 0 381 -156t139 -414v-237q0 -257 -139 -411t-379 -154q-83 0 -154 19.5t-120.5 53t-83 66.5t-58.5 71v-190h-204zM362 555q0 -178 94.5 -287.5t270.5 -109.5t266 109.5t90 289.5v217q0 179 -91 289.5
t-267 110.5q-173 0 -268 -110t-95 -288v-221z" />
    <glyph glyph-name="c" unicode="c" horiz-adv-x="1314" 
d="M1014 866q-8 142 -95 225t-245 83q-369 0 -369 -408v-205q0 -197 91.5 -300t275.5 -103q164 0 248.5 81.5t93.5 227.5l4 86h211l-4 -74q-16 -226 -156.5 -362.5t-398.5 -136.5q-283 0 -429.5 157.5t-146.5 440.5v178q0 282 147 439t429 157q257 0 400 -136.5t155 -363.5
l4 -76h-211z" />
    <glyph glyph-name="d" unicode="d" horiz-adv-x="1388" 
d="M1028 1692h205v-1692h-205v197q-22 -39 -55.5 -74t-83 -69t-120.5 -54t-153 -20q-242 0 -381 155.5t-139 413.5v237q0 257 139 411.5t379 154.5q81 0 151 -19t120 -52.5t83.5 -66.5t59.5 -71v549zM307 557q0 -179 91.5 -289t267.5 -110q173 0 267.5 109.5t94.5 287.5v221
q0 178 -94 288t-270 110t-266.5 -110t-90.5 -290v-217z" />
    <glyph glyph-name="e" unicode="e" horiz-adv-x="1323" 
d="M94 578v178q0 282 147.5 439t432.5 157q265 0 410 -148t145 -436v-143h-922v-64q0 -197 92 -300t275 -103q148 0 228.5 65.5t92.5 184.5l2 34h220l-3 -20q-19 -204 -156 -323t-384 -119q-285 0 -432.5 157t-147.5 441zM307 780h709v64q-17 330 -346 330q-178 0 -269 -100
t-94 -294z" />
    <glyph glyph-name="f" unicode="f" horiz-adv-x="1003" 
d="M23 1331h335v72q0 57 6 98t26.5 83.5t55 68.5t95.5 42.5t145 16.5q145 0 297 -20v-160q-64 12 -205 12q-71 0 -114.5 -8.5t-65.5 -29.5t-28.5 -45.5t-6.5 -67.5v-107q41 31 124.5 38t295.5 7v-178h-420v-1153h-205v1153h-335v178z" />
    <glyph glyph-name="g" unicode="g" horiz-adv-x="1386" 
d="M1028 43v154q-22 -39 -55.5 -74t-83 -69t-120.5 -54t-153 -20q-242 0 -381 155.5t-139 413.5v237q0 257 139 411.5t379 154.5q81 0 151 -19t120 -52.5t83.5 -66.5t59.5 -71v188h205v-1308q0 -128 -20.5 -216t-70 -150t-132.5 -91t-207 -29h-639v178h610q149 0 201.5 71
t52.5 257zM307 557q0 -179 91.5 -289t267.5 -110q173 0 267.5 109.5t94.5 287.5v221q0 178 -94 288t-270 110t-266.5 -110t-90.5 -290v-217z" />
    <glyph glyph-name="h" unicode="h" 
d="M360 1692v-580q59 105 162 172.5t258 67.5q212 0 328.5 -131.5t116.5 -368.5v-852h-207v831q0 345 -305 345q-84 0 -149 -26t-102.5 -65t-61.5 -90.5t-32 -96.5t-8 -89v-809h-204v1692h204z" />
    <glyph glyph-name="i" unicode="i" horiz-adv-x="516" 
d="M156 1331h204v-1331h-204v1331zM121 1593q0 54 35.5 86.5t101.5 32.5t102.5 -32.5t36.5 -86.5q0 -49 -37 -81.5t-102 -32.5t-101 32.5t-36 81.5z" />
    <glyph glyph-name="j" unicode="j" horiz-adv-x="516" 
d="M156 -8v1339h204v-1368q0 -163 -39.5 -255.5t-122 -131.5t-225.5 -39h-200v178h157q94 0 140.5 23t66 80.5t19.5 173.5zM119 1593q0 54 35.5 86.5t101.5 32.5t102.5 -32.5t36.5 -86.5q0 -49 -37 -81.5t-102 -32.5t-101 32.5t-36 81.5z" />
    <glyph glyph-name="k" unicode="k" horiz-adv-x="1261" 
d="M156 1692h204v-936h86l549 575h260l-655 -665l655 -666h-260l-553 580h-82v-580h-204v1692z" />
    <glyph glyph-name="l" unicode="l" horiz-adv-x="516" 
d="M156 1692h204v-1692h-204v1692z" />
    <glyph glyph-name="m" unicode="m" horiz-adv-x="2045" 
d="M1698 850q0 49 -4.5 88t-20 86t-43 78t-77 52.5t-117.5 21.5q-73 0 -129 -24t-88 -59.5t-52 -83.5t-27 -89t-7 -82v-838h-207v850q0 47 -4.5 85.5t-20.5 85.5t-43 79t-76.5 54t-117.5 22q-72 0 -128 -24t-88 -59.5t-53 -83t-28 -88.5t-7 -81v-840h-204v1331h204v-180
q105 201 363 201q149 0 240 -63t131 -169q128 232 397 232q111 0 192.5 -37t128.5 -103.5t69 -148.5t22 -182v-881h-205v850z" />
    <glyph glyph-name="n" unicode="n" 
d="M360 1331v-219q59 105 162 172.5t258 67.5q212 0 328.5 -131.5t116.5 -368.5v-852h-207v831q0 345 -305 345q-84 0 -149 -26t-102.5 -65t-61.5 -90.5t-32 -96.5t-8 -89v-809h-204v1331h204z" />
    <glyph glyph-name="o" unicode="o" horiz-adv-x="1329" 
d="M664 -20q-278 0 -423 157.5t-145 440.5v176q0 283 145 440.5t423 157.5q280 0 424.5 -157.5t144.5 -440.5v-176q0 -283 -144.5 -440.5t-424.5 -157.5zM305 565q0 -407 359 -407q360 0 360 407v201q0 408 -360 408q-359 0 -359 -408v-201z" />
    <glyph glyph-name="p" unicode="p" horiz-adv-x="1388" 
d="M360 1331v-201q22 40 55.5 76t83 70.5t121 55t154.5 20.5q242 0 381 -156t139 -414v-237q0 -257 -139 -411t-379 -154q-83 0 -154 19.5t-120.5 53t-83 66.5t-58.5 71v-653h-204v1794h204zM362 555q0 -178 94.5 -287.5t270.5 -109.5t266 109.5t90 289.5v217
q0 179 -91 289.5t-267 110.5q-173 0 -268 -110t-95 -288v-221z" />
    <glyph glyph-name="q" unicode="q" horiz-adv-x="1386" 
d="M1028 -463v660q-22 -39 -55.5 -74t-83 -69t-120.5 -54t-153 -20q-242 0 -381 155.5t-139 413.5v237q0 257 139 411.5t379 154.5q81 0 151 -19t120 -52.5t83.5 -66.5t59.5 -71v188h205v-1794h-205zM307 557q0 -179 91.5 -289t267.5 -110q173 0 267.5 109.5t94.5 287.5v221
q0 178 -94 288t-270 110t-266.5 -110t-90.5 -290v-217z" />
    <glyph glyph-name="r" unicode="r" horiz-adv-x="1167" 
d="M362 1331v-221q44 101 144.5 171.5t241.5 70.5q181 0 275.5 -109.5t94.5 -320.5v-127h-211v106q0 133 -50.5 203t-174.5 70q-70 0 -126.5 -24.5t-91.5 -62.5t-59 -86.5t-33.5 -93t-9.5 -86.5v-821h-206v1331h206z" />
    <glyph glyph-name="s" unicode="s" horiz-adv-x="1261" 
d="M846 729q181 -51 255.5 -137.5t74.5 -222.5q0 -86 -27 -154.5t-86 -122.5t-161.5 -83t-244.5 -29q-307 0 -443 115t-136 335v47h211v-47q0 -147 87 -210.5t279 -63.5q162 0 237 50t75 150q0 77 -52.5 127.5t-177.5 89.5l-295 89q-172 42 -248.5 123t-76.5 208
q0 76 28 139t85.5 113t155 78.5t226.5 28.5q539 0 539 -420v-39h-211v37q0 132 -81.5 189t-246.5 57q-127 0 -205.5 -43.5t-78.5 -128.5q0 -64 44 -104.5t150 -72.5z" />
    <glyph glyph-name="t" unicode="t" horiz-adv-x="972" 
d="M897 1331v-178h-377v-733q0 -148 29.5 -195t128.5 -47h219v-178h-272q-97 0 -159 23.5t-94.5 75.5t-44.5 117t-12 165v772h-295v178h95q127 9 183 101t54 260h203q0 -146 -42 -243.5t-112 -117.5h496z" />
    <glyph glyph-name="u" unicode="u" 
d="M1006 0v219q-59 -105 -162 -172t-258 -67q-212 0 -328.5 131t-116.5 368v852h207v-831q0 -344 305 -344q84 0 149 26t102.5 64.5t61.5 90.5t32 96.5t8 88.5v809h204v-1331h-204z" />
    <glyph glyph-name="v" unicode="v" horiz-adv-x="1224" 
d="M25 1331h215l374 -1159l373 1159h213l-446 -1331h-281z" />
    <glyph glyph-name="w" unicode="w" horiz-adv-x="1910" 
d="M41 1331h207l280 -1149l289 1149h277l290 -1145l281 1145h207l-350 -1331h-262l-304 1169l-305 -1169h-260z" />
    <glyph glyph-name="x" unicode="x" horiz-adv-x="1232" 
d="M0 0l494 684l-453 647h250l332 -489l333 489h238l-453 -649l490 -682h-248l-371 524l-374 -524h-238z" />
    <glyph glyph-name="y" unicode="y" horiz-adv-x="1363" 
d="M1006 23v196q-59 -105 -162 -172t-258 -67q-212 0 -328.5 131t-116.5 368v852h207v-831q0 -344 305 -344q84 0 149 26t102.5 64.5t61.5 90.5t32 96.5t8 88.5v809h204v-1315q0 -250 -97 -364.5t-316 -114.5h-625v178h596q133 0 185.5 67.5t52.5 240.5z" />
    <glyph glyph-name="z" unicode="z" horiz-adv-x="1185" 
d="M78 1331h1030v-178l-791 -975h797v-178h-1042v178l788 975h-782v178z" />
    <glyph glyph-name="braceleft" unicode="{" horiz-adv-x="606" 
d="M96 840q80 0 80 184v383q0 360 285 360h106v-94h-104q-92 0 -138 -67.5t-46 -190.5v-385q0 -112 -19 -165.5t-72 -86.5v-94q53 -35 72 -88.5t19 -163.5v-385q0 -124 46 -191t138 -67h104v-96h-106q-285 0 -285 362v383q0 90 -21 136.5t-59 46.5v219z" />
    <glyph glyph-name="bar" unicode="|" horiz-adv-x="460" 
d="M178 -20v1720h103v-1720h-103z" />
    <glyph glyph-name="braceright" unicode="}" horiz-adv-x="606" 
d="M510 621q-38 0 -59 -46.5t-21 -138.5v-383q0 -360 -285 -360h-106v94h104q92 0 138.5 67.5t46.5 190.5v385q0 112 18.5 165.5t71.5 86.5v94q-53 35 -71.5 88t-18.5 164v385q0 124 -46.5 191t-138.5 67h-104v96h106q285 0 285 -362v-383q0 -90 21 -136t59 -46v-219z" />
    <glyph glyph-name="asciitilde" unicode="~" horiz-adv-x="1654" 
d="M125 707q0 69 21 123.5t54.5 88t80 55t93.5 30t99 8.5q85 0 166 -24.5t145 -59.5t126 -70t134.5 -59.5t145.5 -24.5q109 0 175.5 52.5t66.5 150.5h104q0 -69 -21 -123.5t-54.5 -88t-80.5 -55t-94.5 -30t-99.5 -8.5q-85 0 -165.5 24.5t-144.5 59t-126 69.5t-134 59.5
t-145 24.5q-110 0 -176 -52t-66 -150h-104z" />
    <glyph glyph-name="uni00A0" unicode="&#xa0;" horiz-adv-x="593" 
 />
    <glyph glyph-name="exclamdown" unicode="&#xa1;" horiz-adv-x="524" 
d="M365 -360h-205l12 1179h184zM121 1210q0 63 41.5 102.5t101.5 39.5t101 -39.5t41 -102.5q0 -64 -41 -103.5t-101 -39.5t-101.5 39.5t-41.5 103.5z" />
    <glyph glyph-name="cent" unicode="&#xa2;" horiz-adv-x="1376" 
d="M637 -143v305q-254 17 -387 173.5t-133 422.5v178q0 266 132.5 421.5t387.5 172.5v305h106v-305q239 -12 372 -147t145 -351l2 -76h-203l-4 86q-11 136 -89.5 218t-222.5 92v-1012q148 10 225.5 91t86.5 218l4 84h203l-5 -74q-16 -215 -146 -350t-368 -147v-305h-106z
M322 745q0 -369 315 -403v1008q-315 -34 -315 -406v-199z" />
    <glyph glyph-name="sterling" unicode="&#xa3;" horiz-adv-x="1406" 
d="M106 150q203 164 203 395q0 55 -8 96h-195v102h170q-8 26 -35 101.5t-40 118t-26 117.5t-13 149q0 232 149.5 357.5t423.5 125.5q280 0 426 -138t146 -396v-70h-213v76q0 180 -86.5 267t-274.5 87q-356 0 -356 -319q0 -89 19 -168t54.5 -172.5t47.5 -135.5h583v-102h-563
q6 -38 6 -80q0 -219 -176 -389h959v-172h-1201v150z" />
    <glyph glyph-name="currency" unicode="&#xa4;" horiz-adv-x="1091" 
d="M545 418q-132 0 -223 57l-134 -156l-71 64l131 158q-88 105 -88 278q0 177 90 281l-133 155l71 64l134 -156q96 58 223 58q131 0 223 -58l133 156l72 -64l-131 -157q88 -105 88 -279q0 -173 -88 -278l131 -158l-72 -64l-133 158q-89 -59 -223 -59zM262 819
q0 -151 72 -231t211 -80t210.5 79.5t71.5 231.5q0 150 -72 230.5t-210 80.5q-139 0 -211 -80.5t-72 -230.5z" />
    <glyph glyph-name="yen" unicode="&#xa5;" horiz-adv-x="1484" 
d="M186 567v82h418l-569 1043h241l465 -875l465 875h242l-569 -1043h417v-82h-448v-94h448v-82h-448v-391h-213v391h-449v82h449v94h-449z" />
    <glyph glyph-name="brokenbar" unicode="&#xa6;" horiz-adv-x="460" 
d="M178 1028v672h103v-672h-103zM178 -20v669h103v-669h-103z" />
    <glyph glyph-name="section" unicode="&#xa7;" horiz-adv-x="1331" 
d="M696 -23q-127 0 -221 19.5t-154 53.5t-98 87.5t-55 114t-21 141.5h103q6 -87 27.5 -145.5t70.5 -103t134 -65t212 -20.5q408 0 408 224q0 62 -32.5 108.5t-94.5 59.5l-666 127q-198 43 -198 219q0 156 139 194q-123 67 -123 215q0 307 508 307q128 0 222.5 -19t154.5 -52
t97.5 -86.5t54 -113.5t20.5 -142h-103q-6 87 -27 145t-69.5 102.5t-134.5 64.5t-215 20q-406 0 -406 -220q0 -63 31.5 -109t95.5 -59l668 -129q197 -42 197 -217q0 -155 -138 -196q121 -65 121 -213q0 -312 -508 -312zM215 803q0 -61 30 -96t97 -48l553 -102q38 -7 70 -8
t54 5t39 14.5t27 21.5t16.5 25t9.5 26.5t4 23.5t1 19q0 64 -29.5 100.5t-97.5 49.5l-555 102q-112 23 -165.5 -16t-53.5 -117z" />
    <glyph glyph-name="dieresis" unicode="&#xa8;" horiz-adv-x="1079" 
d="M774 1458q-51 0 -86 30t-35 81q0 55 34.5 84.5t86.5 29.5q49 0 84 -30t35 -84q0 -50 -35.5 -80.5t-83.5 -30.5zM186 1569q0 55 33.5 84.5t85.5 29.5q49 0 84 -30t35 -84q0 -50 -35.5 -80.5t-83.5 -30.5q-51 0 -85 30t-34 81z" />
    <glyph glyph-name="copyright" unicode="&#xa9;" horiz-adv-x="1843" 
d="M922 -20q-163 0 -297.5 45.5t-227.5 125.5t-157 190t-93.5 237t-29.5 270q0 141 29.5 267t93.5 236t157 190t227.5 125.5t297.5 45.5t297.5 -45.5t227.5 -125.5t156.5 -190t93 -236t29.5 -267q0 -143 -29.5 -270t-93 -237t-156.5 -190t-227.5 -125.5t-297.5 -45.5z
M227 848q0 -166 41 -303t123.5 -241t218 -162t312.5 -58q174 0 308.5 58t218 162t125.5 241t42 303q0 130 -26 243.5t-81 209t-136 163.5t-196 106t-255 38q-174 0 -309 -58t-218 -162t-125.5 -240.5t-42.5 -299.5zM424 848q0 122 30 225t90.5 184t161 127t232.5 46
q119 0 210 -38.5t146 -106.5t84 -150.5t35 -180.5h-151q-7 74 -23.5 129t-50.5 104.5t-96 76t-150 26.5q-367 0 -367 -442q0 -447 363 -447q72 0 127 19t89 49t57 76t33.5 90.5t15.5 101.5h151q-6 -95 -33.5 -175.5t-80.5 -150t-145 -109.5t-214 -40q-132 0 -232.5 45.5
t-161 126.5t-90.5 185t-30 229z" />
    <glyph glyph-name="ordfeminine" unicode="&#xaa;" horiz-adv-x="903" 
d="M631 901v135q-41 -74 -118.5 -110.5t-172.5 -36.5q-111 0 -176.5 51.5t-65.5 157.5q0 175 244 237l92 25q114 32 148 52q44 30 45 73v4q0 46 -40 75t-126 29q-97 0 -147 -39t-50 -112v-35h-139v25q0 130 83.5 205t250.5 75q307 0 307 -252v-559h-135zM240 1112
q0 -55 34.5 -79.5t104.5 -24.5q103 0 175.5 65t72.5 178v97q-14 -32 -53 -51t-113 -40l-82 -22q-71 -19 -105 -46t-34 -77z" />
    <glyph glyph-name="guillemotleft" unicode="&#xab;" horiz-adv-x="1077" 
d="M559 281l-465 352v86l465 352v-147l-338 -248l338 -248v-147zM463 633v86l465 352v-147l-338 -248l338 -248v-147z" />
    <glyph glyph-name="logicalnot" unicode="&#xac;" horiz-adv-x="1677" 
d="M1425 653v285h-1292v92h1395v-377h-103z" />
    <glyph glyph-name="registered" unicode="&#xae;" horiz-adv-x="1159" 
d="M580 786q-78 0 -141.5 25.5t-103.5 66.5t-67 96t-38 110t-11 112t11 112t38 110t67 96t103.5 66.5t141.5 25.5t141.5 -25.5t103 -66.5t66.5 -96t38 -110t11 -112t-11 -112t-38 -110t-66.5 -96t-103 -66.5t-141.5 -25.5zM104 1196q0 -72 16 -142t52.5 -138.5t90 -120
t135.5 -83.5t182 -32t182 32t135 83.5t90 120t52.5 138.5t15.5 142t-15.5 142.5t-52.5 139t-90 120t-135 83t-182 31.5t-182 -31.5t-135.5 -83t-90 -120t-52.5 -139t-16 -142.5zM375 920v563h203q106 0 162.5 -34t56.5 -126q0 -108 -109 -147q55 -15 81 -50t26 -96v-51
q0 -49 8 -59h-131q-10 12 -10 59v51q0 48 -19.5 66t-71.5 18h-63v-194h-133zM508 1235h70q52 0 69 14.5t17 50.5q0 38 -19.5 50t-66.5 12h-70v-127z" />
    <glyph glyph-name="macron" unicode="&#xaf;" horiz-adv-x="1339" 
d="M205 1528v82h930v-82h-930z" />
    <glyph glyph-name="degree" unicode="&#xb0;" horiz-adv-x="796" 
d="M397 1190q-94 0 -140 58.5t-46 156.5t46 156.5t140 58.5q95 0 142 -58.5t47 -156.5t-47 -156.5t-142 -58.5zM109 1405q0 -61 16.5 -114.5t50 -97.5t90.5 -69.5t131 -25.5q75 0 132.5 25.5t91 69.5t50.5 97.5t17 114.5t-17 114.5t-50.5 97.5t-91 69.5t-132.5 25.5
q-74 0 -131 -25.5t-90.5 -69.5t-50 -97.5t-16.5 -114.5z" />
    <glyph glyph-name="plusminus" unicode="&#xb1;" horiz-adv-x="1603" 
d="M854 1264v-373h641v-92h-641v-287h641v-90h-1386v90h643v287h-643v92h643v373h102z" />
    <glyph glyph-name="uni00B2" unicode="&#xb2;" horiz-adv-x="780" 
d="M68 838q0 57 10.5 101t36 85t74 71t118.5 48l113 31q82 21 118.5 53t36.5 94v8q0 61 -42.5 88t-131.5 27q-99 0 -142.5 -37t-43.5 -117v-26h-139v20q0 281 323 281q156 0 237 -62.5t81 -185.5q0 -197 -221 -254l-121 -35q-57 -14 -91 -30.5t-51 -43t-21.5 -53.5t-4.5 -74
h508v-118h-647v129z" />
    <glyph glyph-name="uni00B3" unicode="&#xb3;" horiz-adv-x="770" 
d="M381 698q-165 0 -244 64t-82 201v16h140v-23q3 -79 47 -110t137 -31q100 0 142 29.5t42 91.5v31q0 66 -44.5 91t-133.5 25h-111v115h111q83 0 125.5 24.5t42.5 84.5v26q0 59 -42.5 87t-129.5 28q-86 0 -128.5 -30t-43.5 -103v-21h-139v15q4 132 81.5 194t231.5 62
q160 0 234.5 -63.5t74.5 -164.5v-10q2 -67 -31.5 -117t-95.5 -67q66 -17 101.5 -68t35.5 -125v-12q0 -240 -321 -240z" />
    <glyph glyph-name="acute" unicode="&#xb4;" horiz-adv-x="1257" 
d="M223 1479l-18 80l829 151l19 -80z" />
    <glyph glyph-name="paragraph" unicode="&#xb6;" horiz-adv-x="997" 
d="M715 1692h102v-1692h-102v1692zM51 1323q0 110 23 181.5t74.5 113t124.5 58t184 16.5h102v-1692h-102v956q-111 0 -184 16.5t-124.5 58t-74.5 112.5t-23 180z" />
    <glyph glyph-name="periodcentered" unicode="&#xb7;" horiz-adv-x="522" 
d="M260 551q-60 0 -100.5 39t-40.5 102q0 65 40.5 104.5t100.5 39.5t101.5 -40t41.5 -104q0 -63 -41.5 -102t-101.5 -39z" />
    <glyph glyph-name="cedilla" unicode="&#xb8;" horiz-adv-x="784" 
d="M207 -336q142 0 200 14.5t58 61.5q0 49 -57 58.5t-164 -7.5l49 209h96l-33 -129q224 27 224 -127q0 -95 -92 -131.5t-283 -36.5z" />
    <glyph glyph-name="uni00B9" unicode="&#xb9;" horiz-adv-x="622" 
d="M66 827h198v576q-84 -64 -201 -64v127q141 0 211 88h127v-727h201v-118h-536v118z" />
    <glyph glyph-name="ordmasculine" unicode="&#xba;" horiz-adv-x="884" 
d="M442 889q-170 0 -258 94.5t-88 265.5v103q0 171 88 265.5t258 94.5t258 -94.5t88 -265.5v-103q0 -171 -88 -265.5t-258 -94.5zM240 1239q0 -229 202 -229q203 0 203 229v123q0 229 -203 229q-202 0 -202 -229v-123z" />
    <glyph glyph-name="guillemotright" unicode="&#xbb;" horiz-adv-x="1071" 
d="M510 281v147l338 248l-338 248v147l465 -352v-86zM147 281v147l338 248l-338 248v147l465 -352v-86z" />
    <glyph glyph-name="onequarter" unicode="&#xbc;" horiz-adv-x="1853" 
d="M88 965h199v575q-82 -63 -201 -63v127q141 0 211 88h127v-727h201v-119h-537v119zM334 0l1020 1692h106l-1018 -1692h-108zM1139 160v125l434 561h133v-565h98v-121h-98v-160h-137v160h-430zM1268 281h301v376z" />
    <glyph glyph-name="onehalf" unicode="&#xbd;" horiz-adv-x="1941" 
d="M88 965h199v575q-82 -63 -201 -63v127q141 0 211 88h127v-727h201v-119h-537v119zM334 0l1020 1692h108l-1020 -1692h-108zM1221 0v129q0 57 10.5 101t36 85t74 71t118.5 48l113 31q83 21 119.5 53t36.5 94v9q0 60 -43 87t-132 27q-99 0 -142.5 -36.5t-43.5 -116.5v-27
h-139v20q0 281 323 281q156 0 237 -62.5t81 -185.5q0 -197 -221 -254l-121 -35q-57 -14 -91 -30.5t-51 -42.5t-21.5 -53t-4.5 -74h508v-119h-647z" />
    <glyph glyph-name="threequarters" unicode="&#xbe;" horiz-adv-x="1978" 
d="M393 836q-165 0 -243.5 63.5t-81.5 200.5v16h139v-22q3 -79 47 -110.5t137 -31.5q100 0 142 29.5t42 91.5v31q0 66 -44.5 91.5t-133.5 25.5h-110v114h110q83 0 125.5 24.5t42.5 84.5v26q0 59 -42.5 87t-129.5 28q-86 0 -128.5 -30t-43.5 -103v-20h-139v14q4 132 81.5 194
t231.5 62q160 0 235 -63t75 -164v-11q2 -67 -31.5 -117t-95.5 -67q66 -17 101.5 -68t35.5 -125v-12q0 -239 -322 -239zM457 0l1018 1692h108l-1018 -1692h-108zM1262 160v125l434 561h133v-565h98v-121h-98v-160h-137v160h-430zM1391 281h301v376z" />
    <glyph glyph-name="questiondown" unicode="&#xbf;" horiz-adv-x="1171" 
d="M582 -381q-116 0 -208 24t-151.5 64t-99 97t-56 119.5t-16.5 133.5q0 86 26.5 156t68.5 117.5t93 89.5t101.5 83.5t92.5 87t68.5 111.5t26.5 148v24h193v-26q0 -101 -25 -183t-65 -135t-88.5 -97.5t-97.5 -83t-89 -78t-65 -95t-25 -123.5q0 -124 78 -192t238 -68
q94 0 160 25.5t102 73.5t51.5 107t15.5 136v55h213v-40q0 -88 -16.5 -163.5t-56 -144.5t-100.5 -117.5t-155 -77t-214 -28.5zM481 1210q0 63 42 102.5t102 39.5t100.5 -39.5t40.5 -102.5q0 -64 -40.5 -103.5t-100.5 -39.5t-102 39.5t-42 103.5z" />
    <glyph glyph-name="Agrave" unicode="&#xc0;" horiz-adv-x="1443" 
d="M27 0l555 1692h278l557 -1692h-227l-105 332h-729l-104 -332h-225zM256 1964l20 80l910 -152l-21 -80zM416 518h610l-295 940l-10 29l-10 -29z" />
    <glyph glyph-name="Aacute" unicode="&#xc1;" horiz-adv-x="1443" 
d="M27 0l555 1692h278l557 -1692h-227l-105 332h-729l-104 -332h-225zM297 1919l829 152l19 -80l-830 -152zM416 518h610l-295 940l-10 29l-10 -29z" />
    <glyph glyph-name="Acircumflex" unicode="&#xc2;" horiz-adv-x="1443" 
d="M27 0l555 1692h278l557 -1692h-227l-105 332h-729l-104 -332h-225zM360 1829l293 256h144l286 -256h-155l-203 184l-211 -184h-154zM416 518h610l-295 940l-10 29l-10 -29z" />
    <glyph glyph-name="Atilde" unicode="&#xc3;" horiz-adv-x="1443" 
d="M27 0l555 1692h278l557 -1692h-227l-105 332h-729l-104 -332h-225zM303 1827q0 107 61.5 165t170.5 58q55 0 98.5 -16t72 -38.5t55 -45t62 -38.5t78.5 -16q67 0 102 36.5t35 101.5h103q0 -110 -63.5 -168t-176.5 -58q-58 0 -103.5 16t-74 38.5t-54.5 45t-59 38.5t-73 16
q-65 0 -98 -37.5t-33 -97.5h-103zM416 518h610l-295 940l-10 29l-10 -29z" />
    <glyph glyph-name="Adieresis" unicode="&#xc4;" horiz-adv-x="1443" 
d="M27 0l555 1692h278l557 -1692h-227l-105 332h-729l-104 -332h-225zM369 1929q0 55 33 85t85 30q49 0 84 -30.5t35 -84.5q0 -50 -35.5 -80t-83.5 -30q-51 0 -84.5 29.5t-33.5 80.5zM416 518h610l-295 940l-10 29l-10 -29zM836 1929q0 55 34 85t86 30q49 0 84 -30.5
t35 -84.5q0 -50 -35.5 -80t-83.5 -30q-51 0 -85.5 29.5t-34.5 80.5z" />
    <glyph glyph-name="Aring" unicode="&#xc5;" horiz-adv-x="1443" 
d="M27 0l555 1692h278l557 -1692h-227l-105 332h-729l-104 -332h-225zM416 518h610l-295 940l-10 29l-10 -29zM557 1950q0 71 49.5 118.5t116.5 47.5t116.5 -47.5t49.5 -118.5t-49.5 -118.5t-116.5 -47.5t-116.5 47.5t-49.5 118.5zM643 1950q0 -37 21 -58.5t59 -21.5
t59 21.5t21 58.5t-21 58.5t-59 21.5t-59 -21.5t-21 -58.5z" />
    <glyph glyph-name="AE" unicode="&#xc6;" horiz-adv-x="1943" 
d="M4 0l670 1692h1155v-187h-686v-565h653v-188h-653v-566h686v-186h-899v350h-568l-137 -350h-221zM434 537h496v968h-117z" />
    <glyph glyph-name="Ccedilla" unicode="&#xc7;" horiz-adv-x="1595" 
d="M672 -336q142 0 200 14.5t58 61.5q0 49 -57 58.5t-164 -7.5l45 191q-158 9 -282 68.5t-203.5 157t-121 225.5t-41.5 278v274q0 156 45 287.5t132 230t223.5 154t308.5 55.5q157 0 284 -46.5t211.5 -129t132 -193t54.5 -241.5l2 -109h-223l-2 129q-9 183 -129.5 292.5
t-327.5 109.5q-241 0 -366 -141t-125 -379v-314q0 -241 124 -381.5t365 -140.5q212 0 331 109.5t128 295.5l2 127h223l-2 -106q-7 -128 -52.5 -237t-125 -191.5t-200 -131.5t-269.5 -54l-29 -109q223 27 223 -127q0 -95 -91.5 -131.5t-282.5 -36.5z" />
    <glyph glyph-name="Egrave" unicode="&#xc8;" horiz-adv-x="1357" 
d="M176 0v1692h1071v-187h-858v-565h813v-188h-813v-566h858v-186h-1071zM246 1964l20 80l910 -152l-21 -80z" />
    <glyph glyph-name="Eacute" unicode="&#xc9;" horiz-adv-x="1357" 
d="M176 0v1692h1071v-187h-858v-565h813v-188h-813v-566h858v-186h-1071zM287 1919l829 152l19 -80l-830 -152z" />
    <glyph glyph-name="Ecircumflex" unicode="&#xca;" horiz-adv-x="1357" 
d="M176 0v1692h1071v-187h-858v-565h813v-188h-813v-566h858v-186h-1071zM350 1829l293 256h143l287 -256h-155l-203 184l-211 -184h-154z" />
    <glyph glyph-name="Edieresis" unicode="&#xcb;" horiz-adv-x="1357" 
d="M176 0v1692h1071v-187h-858v-565h813v-188h-813v-566h858v-186h-1071zM358 1929q0 55 33.5 85t85.5 30q49 0 84 -30.5t35 -84.5q0 -50 -35.5 -80t-83.5 -30q-51 0 -85 29.5t-34 80.5zM825 1929q0 55 34.5 85t86.5 30q49 0 84 -30.5t35 -84.5q0 -50 -35.5 -80t-83.5 -30
q-52 0 -86.5 29.5t-34.5 80.5z" />
    <glyph glyph-name="Igrave" unicode="&#xcc;" horiz-adv-x="1105" 
d="M98 0v193h348v1306h-348v193h912v-193h-351v-1306h351v-193h-912zM88 1964l21 80l909 -152l-21 -80z" />
    <glyph glyph-name="Iacute" unicode="&#xcd;" horiz-adv-x="1105" 
d="M98 0v193h348v1306h-348v193h912v-193h-351v-1306h351v-193h-912zM127 1919l829 152l19 -80l-830 -152z" />
    <glyph glyph-name="Icircumflex" unicode="&#xce;" horiz-adv-x="1105" 
d="M98 0v193h348v1306h-348v193h912v-193h-351v-1306h351v-193h-912zM193 1829l292 256h144l286 -256h-155l-203 184l-211 -184h-153z" />
    <glyph glyph-name="Idieresis" unicode="&#xcf;" horiz-adv-x="1105" 
d="M98 0v193h348v1306h-348v193h912v-193h-351v-1306h351v-193h-912zM201 1929q0 55 33 85t85 30q49 0 84 -30.5t35 -84.5q0 -50 -35.5 -80t-83.5 -30q-51 0 -84.5 29.5t-33.5 80.5zM668 1929q0 55 34 85t86 30q49 0 84 -30.5t35 -84.5q0 -50 -35.5 -80t-83.5 -30
q-51 0 -85.5 29.5t-34.5 80.5z" />
    <glyph glyph-name="Eth" unicode="&#xd0;" horiz-adv-x="1689" 
d="M276 0v793h-243v116h243v783h631q160 0 281 -39t209.5 -122.5t134 -221.5t45.5 -328v-270q0 -190 -45.5 -327.5t-134 -221t-209.5 -123t-281 -39.5h-631zM489 182h416q238 0 344.5 122t106.5 394v295q0 272 -106.5 394t-344.5 122h-416v-600h529v-116h-529v-611z" />
    <glyph glyph-name="Ntilde" unicode="&#xd1;" horiz-adv-x="1630" 
d="M176 0v1692h207l866 -1321v1321h205v-1692h-207l-866 1321v-1321h-205zM395 1827q0 107 61.5 165t170.5 58q55 0 98.5 -16t72 -38.5t55 -45t62 -38.5t78.5 -16q67 0 102 36.5t35 101.5h103q0 -110 -63.5 -168t-176.5 -58q-58 0 -103.5 16t-74 38.5t-54.5 45t-59 38.5
t-73 16q-65 0 -98 -37.5t-33 -97.5h-103z" />
    <glyph glyph-name="Ograve" unicode="&#xd2;" horiz-adv-x="1624" 
d="M813 -20q-137 0 -252.5 36.5t-198.5 102t-141 157t-86.5 201.5t-28.5 234v274q0 154 45.5 285.5t132 230.5t222.5 155t307 56q170 0 305.5 -56t222 -155t132 -230.5t45.5 -285.5v-274q0 -156 -45.5 -288.5t-132 -231.5t-222 -155t-305.5 -56zM326 690q0 -238 124 -379
t363 -141q237 0 361 141t124 379v314q0 236 -124 377t-361 141q-238 0 -362.5 -141t-124.5 -377v-314zM346 1964l21 80l909 -152l-21 -80z" />
    <glyph glyph-name="Oacute" unicode="&#xd3;" horiz-adv-x="1624" 
d="M813 -20q-137 0 -252.5 36.5t-198.5 102t-141 157t-86.5 201.5t-28.5 234v274q0 154 45.5 285.5t132 230.5t222.5 155t307 56q170 0 305.5 -56t222 -155t132 -230.5t45.5 -285.5v-274q0 -156 -45.5 -288.5t-132 -231.5t-222 -155t-305.5 -56zM326 690q0 -238 124 -379
t363 -141q237 0 361 141t124 379v314q0 236 -124 377t-361 141q-238 0 -362.5 -141t-124.5 -377v-314zM387 1919l830 152l18 -80l-829 -152z" />
    <glyph glyph-name="Ocircumflex" unicode="&#xd4;" horiz-adv-x="1624" 
d="M813 -20q-137 0 -252.5 36.5t-198.5 102t-141 157t-86.5 201.5t-28.5 234v274q0 154 45.5 285.5t132 230.5t222.5 155t307 56q170 0 305.5 -56t222 -155t132 -230.5t45.5 -285.5v-274q0 -156 -45.5 -288.5t-132 -231.5t-222 -155t-305.5 -56zM326 690q0 -238 124 -379
t363 -141q237 0 361 141t124 379v314q0 236 -124 377t-361 141q-238 0 -362.5 -141t-124.5 -377v-314zM451 1829l292 256h144l287 -256h-156l-203 184l-211 -184h-153z" />
    <glyph glyph-name="Otilde" unicode="&#xd5;" horiz-adv-x="1624" 
d="M813 -20q-137 0 -252.5 36.5t-198.5 102t-141 157t-86.5 201.5t-28.5 234v274q0 154 45.5 285.5t132 230.5t222.5 155t307 56q170 0 305.5 -56t222 -155t132 -230.5t45.5 -285.5v-274q0 -156 -45.5 -288.5t-132 -231.5t-222 -155t-305.5 -56zM326 690q0 -238 124 -379
t363 -141q237 0 361 141t124 379v314q0 236 -124 377t-361 141q-238 0 -362.5 -141t-124.5 -377v-314zM393 1827q0 107 61.5 165t170.5 58q55 0 98.5 -16t72 -38.5t55 -45t62 -38.5t78.5 -16q67 0 102 36.5t35 101.5h103q0 -110 -63.5 -168t-176.5 -58q-58 0 -103.5 16
t-74 38.5t-54.5 45t-59 38.5t-73 16q-65 0 -98 -37.5t-33 -97.5h-103z" />
    <glyph glyph-name="Odieresis" unicode="&#xd6;" horiz-adv-x="1624" 
d="M813 -20q-137 0 -252.5 36.5t-198.5 102t-141 157t-86.5 201.5t-28.5 234v274q0 154 45.5 285.5t132 230.5t222.5 155t307 56q170 0 305.5 -56t222 -155t132 -230.5t45.5 -285.5v-274q0 -156 -45.5 -288.5t-132 -231.5t-222 -155t-305.5 -56zM326 690q0 -238 124 -379
t363 -141q237 0 361 141t124 379v314q0 236 -124 377t-361 141q-238 0 -362.5 -141t-124.5 -377v-314zM459 1929q0 55 33.5 85t85.5 30q49 0 83.5 -30.5t34.5 -84.5q0 -50 -35 -80t-83 -30q-51 0 -85 29.5t-34 80.5zM926 1929q0 55 34.5 85t86.5 30q49 0 83.5 -30.5
t34.5 -84.5q0 -50 -35 -80t-83 -30q-52 0 -86.5 29.5t-34.5 80.5z" />
    <glyph glyph-name="multiply" unicode="&#xd7;" horiz-adv-x="1214" 
d="M150 1362l456 -457l461 461l61 -63l-458 -459l460 -461l-63 -61l-461 458l-456 -456l-62 61l457 457l-459 458z" />
    <glyph glyph-name="Oslash" unicode="&#xd8;" horiz-adv-x="1624" 
d="M813 -20q-248 0 -416 114l-57 -88h-162l115 174q-92 99 -139.5 235.5t-47.5 295.5v274q0 154 45.5 285.5t132 230.5t222.5 155t307 56q247 0 416 -115l57 89h162l-117 -177q187 -199 187 -524v-274q0 -156 -45.5 -288.5t-132 -231.5t-222 -155t-305.5 -56zM326 690
q0 -200 86 -330l706 1072q-120 90 -305 90q-238 0 -362.5 -141t-124.5 -377v-314zM508 260q120 -90 305 -90q237 0 361 141t124 379v314q0 195 -86 325z" />
    <glyph glyph-name="Ugrave" unicode="&#xd9;" horiz-adv-x="1589" 
d="M795 -20q-338 0 -485.5 146.5t-147.5 471.5v1094h215v-1110q0 -99 18 -171.5t51 -119.5t86 -75t115.5 -39t147.5 -11q107 0 180 18.5t128.5 64t82 128t26.5 205.5v1110h215v-1094q0 -329 -147.5 -473.5t-484.5 -144.5zM330 1964l20 80l910 -152l-21 -80z" />
    <glyph glyph-name="Uacute" unicode="&#xda;" horiz-adv-x="1589" 
d="M795 -20q-338 0 -485.5 146.5t-147.5 471.5v1094h215v-1110q0 -99 18 -171.5t51 -119.5t86 -75t115.5 -39t147.5 -11q107 0 180 18.5t128.5 64t82 128t26.5 205.5v1110h215v-1094q0 -329 -147.5 -473.5t-484.5 -144.5zM369 1919l829 152l19 -80l-830 -152z" />
    <glyph glyph-name="Ucircumflex" unicode="&#xdb;" horiz-adv-x="1589" 
d="M795 -20q-338 0 -485.5 146.5t-147.5 471.5v1094h215v-1110q0 -99 18 -171.5t51 -119.5t86 -75t115.5 -39t147.5 -11q107 0 180 18.5t128.5 64t82 128t26.5 205.5v1110h215v-1094q0 -329 -147.5 -473.5t-484.5 -144.5zM432 1829l293 256h143l287 -256h-156l-202 184
l-211 -184h-154z" />
    <glyph glyph-name="Udieresis" unicode="&#xdc;" horiz-adv-x="1589" 
d="M795 -20q-338 0 -485.5 146.5t-147.5 471.5v1094h215v-1110q0 -99 18 -171.5t51 -119.5t86 -75t115.5 -39t147.5 -11q107 0 180 18.5t128.5 64t82 128t26.5 205.5v1110h215v-1094q0 -329 -147.5 -473.5t-484.5 -144.5zM442 1929q0 55 33.5 85t85.5 30q49 0 84 -30.5
t35 -84.5q0 -50 -35.5 -80t-83.5 -30q-51 0 -85 29.5t-34 80.5zM909 1929q0 55 34.5 85t86.5 30q49 0 84 -30.5t35 -84.5q0 -50 -35.5 -80t-83.5 -30q-52 0 -86.5 29.5t-34.5 80.5z" />
    <glyph glyph-name="Yacute" unicode="&#xdd;" horiz-adv-x="1435" 
d="M610 0v592l-600 1100h242l465 -875l465 875h241l-600 -1100v-592h-213zM291 1919l829 152l19 -80l-830 -152z" />
    <glyph glyph-name="Thorn" unicode="&#xde;" horiz-adv-x="1548" 
d="M176 0v1692h209v-285h510q281 0 420 -135t139 -412v-24q0 -276 -138 -413.5t-421 -137.5h-510v-285h-209zM385 473h506q178 0 260 82.5t82 261.5v66q0 178 -81.5 258t-260.5 80h-506v-748z" />
    <glyph glyph-name="germandbls" unicode="&#xdf;" horiz-adv-x="1396" 
d="M156 0v1245q0 232 136 349.5t419 117.5q277 0 415 -109t138 -315v-33q0 -144 -63.5 -237.5t-188.5 -128.5q291 -68 291 -408v-26q0 -455 -506 -455h-310v176h244q197 0 280 62.5t83 224.5v45q0 50 -9 89.5t-34 77t-66 62t-107.5 39.5t-156.5 15l-234 2v174h220
q102 1 171 18t108.5 52.5t56 83t16.5 114.5v47q0 131 -84 192.5t-262 61.5q-185 0 -269 -67.5t-84 -223.5v-1245h-204z" />
    <glyph glyph-name="agrave" unicode="&#xe0;" horiz-adv-x="1325" 
d="M981 0v229q-68 -125 -197.5 -187t-291.5 -62q-183 0 -292.5 85t-109.5 263q0 295 402 393l155 39q48 13 73 20t66 20t63 24t50.5 28t42.5 34.5t24.5 41.5t10.5 51v8q0 81 -70.5 135t-222.5 54q-171 0 -258.5 -70.5t-87.5 -204.5v-53h-207v41q0 101 32 184t97 146t172 98
t248 35q502 0 502 -408v-944h-201zM199 1604l20 79l909 -151l-20 -80zM299 346q0 -99 61.5 -145.5t184.5 -46.5q170 0 292.5 98.5t139.5 273.5v234q-25 -53 -95.5 -85.5t-195.5 -66.5l-135 -37q-127 -33 -189.5 -84t-62.5 -141z" />
    <glyph glyph-name="aacute" unicode="&#xe1;" horiz-adv-x="1325" 
d="M981 0v229q-68 -125 -197.5 -187t-291.5 -62q-183 0 -292.5 85t-109.5 263q0 295 402 393l155 39q48 13 73 20t66 20t63 24t50.5 28t42.5 34.5t24.5 41.5t10.5 51v8q0 81 -70.5 135t-222.5 54q-171 0 -258.5 -70.5t-87.5 -204.5v-53h-207v41q0 101 32 184t97 146t172 98
t248 35q502 0 502 -408v-944h-201zM240 1559l829 151l18 -80l-829 -151zM299 346q0 -99 61.5 -145.5t184.5 -46.5q170 0 292.5 98.5t139.5 273.5v234q-25 -53 -95.5 -85.5t-195.5 -66.5l-135 -37q-127 -33 -189.5 -84t-62.5 -141z" />
    <glyph glyph-name="acircumflex" unicode="&#xe2;" horiz-adv-x="1325" 
d="M981 0v229q-68 -125 -197.5 -187t-291.5 -62q-183 0 -292.5 85t-109.5 263q0 295 402 393l155 39q48 13 73 20t66 20t63 24t50.5 28t42.5 34.5t24.5 41.5t10.5 51v8q0 81 -70.5 135t-222.5 54q-171 0 -258.5 -70.5t-87.5 -204.5v-53h-207v41q0 101 32 184t97 146t172 98
t248 35q502 0 502 -408v-944h-201zM299 346q0 -99 61.5 -145.5t184.5 -46.5q170 0 292.5 98.5t139.5 273.5v234q-25 -53 -95.5 -85.5t-195.5 -66.5l-135 -37q-127 -33 -189.5 -84t-62.5 -141zM303 1468l293 256h143l287 -256h-156l-202 185l-211 -185h-154z" />
    <glyph glyph-name="atilde" unicode="&#xe3;" horiz-adv-x="1325" 
d="M981 0v229q-68 -125 -197.5 -187t-291.5 -62q-183 0 -292.5 85t-109.5 263q0 295 402 393l155 39q48 13 73 20t66 20t63 24t50.5 28t42.5 34.5t24.5 41.5t10.5 51v8q0 81 -70.5 135t-222.5 54q-171 0 -258.5 -70.5t-87.5 -204.5v-53h-207v41q0 101 32 184t97 146t172 98
t248 35q502 0 502 -408v-944h-201zM246 1466q0 107 61 165.5t170 58.5q55 0 98.5 -16t72 -38.5t55.5 -45t62.5 -38.5t78.5 -16q68 0 102.5 36t34.5 101h102q0 -110 -63 -167.5t-176 -57.5q-58 0 -103.5 16t-74.5 38.5t-55 45t-59 38.5t-73 16q-65 0 -98 -38t-33 -98h-102z
M299 346q0 -99 61.5 -145.5t184.5 -46.5q170 0 292.5 98.5t139.5 273.5v234q-25 -53 -95.5 -85.5t-195.5 -66.5l-135 -37q-127 -33 -189.5 -84t-62.5 -141z" />
    <glyph glyph-name="adieresis" unicode="&#xe4;" horiz-adv-x="1325" 
d="M981 0v229q-68 -125 -197.5 -187t-291.5 -62q-183 0 -292.5 85t-109.5 263q0 295 402 393l155 39q48 13 73 20t66 20t63 24t50.5 28t42.5 34.5t24.5 41.5t10.5 51v8q0 81 -70.5 135t-222.5 54q-171 0 -258.5 -70.5t-87.5 -204.5v-53h-207v41q0 101 32 184t97 146t172 98
t248 35q502 0 502 -408v-944h-201zM299 346q0 -99 61.5 -145.5t184.5 -46.5q170 0 292.5 98.5t139.5 273.5v234q-25 -53 -95.5 -85.5t-195.5 -66.5l-135 -37q-127 -33 -189.5 -84t-62.5 -141zM311 1569q0 55 33.5 84.5t85.5 29.5q49 0 84 -30t35 -84q0 -50 -35.5 -80.5
t-83.5 -30.5q-51 0 -85 30t-34 81zM778 1569q0 55 34.5 84.5t86.5 29.5q49 0 84 -30t35 -84q0 -50 -35.5 -80.5t-83.5 -30.5q-51 0 -86 30t-35 81z" />
    <glyph glyph-name="aring" unicode="&#xe5;" horiz-adv-x="1325" 
d="M981 0v229q-68 -125 -197.5 -187t-291.5 -62q-183 0 -292.5 85t-109.5 263q0 295 402 393l155 39q48 13 73 20t66 20t63 24t50.5 28t42.5 34.5t24.5 41.5t10.5 51v8q0 81 -70.5 135t-222.5 54q-171 0 -258.5 -70.5t-87.5 -204.5v-53h-207v41q0 101 32 184t97 146t172 98
t248 35q502 0 502 -408v-944h-201zM299 346q0 -99 61.5 -145.5t184.5 -46.5q170 0 292.5 98.5t139.5 273.5v234q-25 -53 -95.5 -85.5t-195.5 -66.5l-135 -37q-127 -33 -189.5 -84t-62.5 -141zM500 1589q0 71 49.5 118.5t116.5 47.5t116 -47.5t49 -118.5t-49 -118.5
t-116 -47.5t-116.5 47.5t-49.5 118.5zM586 1589q0 -37 21 -58.5t59 -21.5t58.5 21.5t20.5 58.5t-20.5 58.5t-58.5 21.5t-59 -21.5t-21 -58.5z" />
    <glyph glyph-name="ae" unicode="&#xe6;" horiz-adv-x="2084" 
d="M514 -20q-74 0 -138.5 12t-119.5 39.5t-94 68t-61.5 100.5t-22.5 134q0 154 95.5 243t285.5 142l184 31q46 11 72 18t63 20t57.5 27.5t41 35.5t29.5 49t9 63q0 96 -71.5 155.5t-206.5 59.5q-150 0 -229.5 -78.5t-79.5 -229.5v-20h-207v18q0 77 17 146t56.5 131.5
t97.5 108t145 72t194 26.5q297 0 409 -207q137 207 420 207q248 0 389.5 -148.5t141.5 -431.5v-147h-881v-54q0 -198 90 -305.5t252 -107.5q132 0 209 68.5t98 191.5v14h219v-14q-29 -199 -164.5 -318.5t-359.5 -119.5q-161 0 -269.5 64.5t-178.5 191.5
q-68 -129 -197.5 -192.5t-294.5 -63.5zM285 338q0 -93 68.5 -145t187.5 -52q158 0 259.5 74t114.5 213v287q-56 -71 -247 -119l-187 -41q-196 -54 -196 -217zM1110 782h668v54q-9 171 -95 254.5t-231 83.5q-163 0 -250 -102t-92 -290z" />
    <glyph glyph-name="ccedilla" unicode="&#xe7;" horiz-adv-x="1314" 
d="M1014 866q-8 142 -95 225t-245 83q-369 0 -369 -408v-205q0 -197 91.5 -300t275.5 -103q164 0 248.5 81.5t93.5 227.5l4 86h211l-4 -74q-16 -215 -144.5 -350t-363.5 -147l-29 -111q223 27 223 -127q0 -95 -91.5 -131.5t-282.5 -36.5l2 88q142 0 200 14.5t58 61.5
q0 49 -57.5 58.5t-164.5 -7.5l46 191q-258 13 -392.5 169.5t-134.5 426.5v178q0 282 147 439t429 157q257 0 400 -136.5t155 -363.5l4 -76h-211z" />
    <glyph glyph-name="egrave" unicode="&#xe8;" horiz-adv-x="1323" 
d="M1128 1532l-20 -80l-909 152l20 79zM94 578v178q0 282 147.5 439t432.5 157q265 0 410 -148t145 -436v-143h-922v-64q0 -197 92 -300t275 -103q148 0 228.5 65.5t92.5 184.5l2 34h220l-3 -20q-19 -204 -156 -323t-384 -119q-285 0 -432.5 157t-147.5 441zM307 780h709v64
q-17 330 -346 330q-178 0 -269 -100t-94 -294z" />
    <glyph glyph-name="eacute" unicode="&#xe9;" horiz-adv-x="1323" 
d="M258 1479l-18 80l829 151l18 -80zM94 578v178q0 282 147.5 439t432.5 157q265 0 410 -148t145 -436v-143h-922v-64q0 -197 92 -300t275 -103q148 0 228.5 65.5t92.5 184.5l2 34h220l-3 -20q-19 -204 -156 -323t-384 -119q-285 0 -432.5 157t-147.5 441zM307 780h709v64
q-17 330 -346 330q-178 0 -269 -100t-94 -294z" />
    <glyph glyph-name="ecircumflex" unicode="&#xea;" horiz-adv-x="1323" 
d="M303 1468l293 256h143l287 -256h-156l-202 185l-211 -185h-154zM94 578v178q0 282 147.5 439t432.5 157q265 0 410 -148t145 -436v-143h-922v-64q0 -197 92 -300t275 -103q148 0 228.5 65.5t92.5 184.5l2 34h220l-3 -20q-19 -204 -156 -323t-384 -119q-285 0 -432.5 157
t-147.5 441zM307 780h709v64q-17 330 -346 330q-178 0 -269 -100t-94 -294z" />
    <glyph glyph-name="edieresis" unicode="&#xeb;" horiz-adv-x="1323" 
d="M899 1458q-51 0 -86 30t-35 81q0 55 34.5 84.5t86.5 29.5q49 0 84 -30t35 -84q0 -50 -35.5 -80.5t-83.5 -30.5zM94 578v178q0 282 147.5 439t432.5 157q265 0 410 -148t145 -436v-143h-922v-64q0 -197 92 -300t275 -103q148 0 228.5 65.5t92.5 184.5l2 34h220l-3 -20
q-19 -204 -156 -323t-384 -119q-285 0 -432.5 157t-147.5 441zM307 780h709v64q-17 330 -346 330q-178 0 -269 -100t-94 -294zM311 1569q0 55 33.5 84.5t85.5 29.5q49 0 84 -30t35 -84q0 -50 -35.5 -80.5t-83.5 -30.5q-51 0 -85 30t-34 81z" />
    <glyph glyph-name="igrave" unicode="&#xec;" horiz-adv-x="516" 
d="M156 1331h204v-1331h-204v1331zM-53 1606l22 77l600 -153l-22 -78z" />
    <glyph glyph-name="iacute" unicode="&#xed;" horiz-adv-x="516" 
d="M156 1331h204v-1331h-204v1331zM-53 1530l600 153l22 -77l-600 -154z" />
    <glyph glyph-name="icircumflex" unicode="&#xee;" horiz-adv-x="516" 
d="M156 1331h204v-1331h-204v1331zM-25 1454l220 229h131l215 -229h-121l-160 164l-162 -164h-123z" />
    <glyph glyph-name="idieresis" unicode="&#xef;" horiz-adv-x="516" 
d="M156 1331h204v-1331h-204v1331zM-31 1554q0 46 29.5 74.5t71.5 28.5q40 0 69 -28.5t29 -74.5q0 -42 -29 -69t-69 -27q-42 0 -71.5 27t-29.5 69zM365 1554q0 46 29 74.5t71 28.5q40 0 69 -28.5t29 -74.5q0 -42 -29 -69t-69 -27q-42 0 -71 27t-29 69z" />
    <glyph glyph-name="eth" unicode="&#xf0;" horiz-adv-x="1298" 
d="M651 -20q-277 0 -421 130.5t-144 374.5v80q0 102 31.5 189t93.5 155t162.5 107t230.5 39q258 0 373 -150q-62 271 -322 443l-483 -197v129l352 143q-153 77 -346 136l60 153q287 -76 497 -205l418 170v-127l-303 -123q183 -147 267.5 -345.5t84.5 -452.5v-72
q0 -296 -134 -436.5t-417 -140.5zM295 481q0 -163 86 -244t264 -81q183 0 265.5 82t82.5 243v76q0 89 -24.5 152.5t-71 100t-107 53t-139.5 16.5q-356 0 -356 -316v-82z" />
    <glyph glyph-name="ntilde" unicode="&#xf1;" 
d="M360 1331v-219q59 105 162 172.5t258 67.5q212 0 328.5 -131.5t116.5 -368.5v-852h-207v831q0 345 -305 345q-84 0 -149 -26t-102.5 -65t-61.5 -90.5t-32 -96.5t-8 -89v-809h-204v1331h204zM283 1466q0 107 61 165.5t170 58.5q55 0 98.5 -16t72 -38.5t55.5 -45
t62.5 -38.5t78.5 -16q68 0 102.5 36t34.5 101h102q0 -110 -63 -167.5t-176 -57.5q-58 0 -103.5 16t-74.5 38.5t-55 45t-59 38.5t-73 16q-65 0 -98 -38t-33 -98h-102z" />
    <glyph glyph-name="ograve" unicode="&#xf2;" horiz-adv-x="1329" 
d="M664 -20q-278 0 -423 157.5t-145 440.5v176q0 283 145 440.5t423 157.5q280 0 424.5 -157.5t144.5 -440.5v-176q0 -283 -144.5 -440.5t-424.5 -157.5zM199 1604l20 79l909 -151l-20 -80zM305 565q0 -407 359 -407q360 0 360 407v201q0 408 -360 408q-359 0 -359 -408
v-201z" />
    <glyph glyph-name="oacute" unicode="&#xf3;" horiz-adv-x="1329" 
d="M664 -20q-278 0 -423 157.5t-145 440.5v176q0 283 145 440.5t423 157.5q280 0 424.5 -157.5t144.5 -440.5v-176q0 -283 -144.5 -440.5t-424.5 -157.5zM238 1559l829 151l18 -80l-829 -151zM305 565q0 -407 359 -407q360 0 360 407v201q0 408 -360 408q-359 0 -359 -408
v-201z" />
    <glyph glyph-name="ocircumflex" unicode="&#xf4;" horiz-adv-x="1329" 
d="M664 -20q-278 0 -423 157.5t-145 440.5v176q0 283 145 440.5t423 157.5q280 0 424.5 -157.5t144.5 -440.5v-176q0 -283 -144.5 -440.5t-424.5 -157.5zM303 1468l293 256h143l287 -256h-156l-202 185l-211 -185h-154zM305 565q0 -407 359 -407q360 0 360 407v201
q0 408 -360 408q-359 0 -359 -408v-201z" />
    <glyph glyph-name="otilde" unicode="&#xf5;" horiz-adv-x="1329" 
d="M664 -20q-278 0 -423 157.5t-145 440.5v176q0 283 145 440.5t423 157.5q280 0 424.5 -157.5t144.5 -440.5v-176q0 -283 -144.5 -440.5t-424.5 -157.5zM246 1466q0 107 61 165.5t170 58.5q55 0 98.5 -16t72 -38.5t55.5 -45t62.5 -38.5t78.5 -16q68 0 102.5 36t34.5 101
h102q0 -110 -63 -167.5t-176 -57.5q-58 0 -103.5 16t-74.5 38.5t-55 45t-59 38.5t-73 16q-65 0 -98 -38t-33 -98h-102zM305 565q0 -407 359 -407q360 0 360 407v201q0 408 -360 408q-359 0 -359 -408v-201z" />
    <glyph glyph-name="odieresis" unicode="&#xf6;" horiz-adv-x="1329" 
d="M664 -20q-278 0 -423 157.5t-145 440.5v176q0 283 145 440.5t423 157.5q280 0 424.5 -157.5t144.5 -440.5v-176q0 -283 -144.5 -440.5t-424.5 -157.5zM305 565q0 -407 359 -407q360 0 360 407v201q0 408 -360 408q-359 0 -359 -408v-201zM311 1569q0 55 33.5 84.5
t85.5 29.5q49 0 84 -30t35 -84q0 -50 -35.5 -80.5t-83.5 -30.5q-51 0 -85 30t-34 81zM778 1569q0 55 34.5 84.5t86.5 29.5q49 0 84 -30t35 -84q0 -50 -35.5 -80.5t-83.5 -30.5q-51 0 -86 30t-35 81z" />
    <glyph glyph-name="divide" unicode="&#xf7;" horiz-adv-x="1603" 
d="M803 1057q-26 0 -44 17.5t-18 43.5q0 25 18 43.5t44 18.5q25 0 43 -18.5t18 -43.5q0 -26 -18 -43.5t-43 -17.5zM111 799v90h1384v-90h-1384zM741 567q0 25 18 43.5t44 18.5q25 0 43 -18.5t18 -43.5q0 -26 -18 -43.5t-43 -17.5q-26 0 -44 17.5t-18 43.5z" />
    <glyph glyph-name="oslash" unicode="&#xf8;" horiz-adv-x="1329" 
d="M664 -20q-170 0 -291 59l-123 -213h-137l161 278q-178 156 -178 474v176q0 283 145 440.5t423 157.5q170 0 294 -62l123 215h138l-162 -280q176 -153 176 -471v-176q0 -283 -144.5 -440.5t-424.5 -157.5zM305 565q0 -179 72 -282l487 845q-84 46 -200 46
q-359 0 -359 -408v-201zM467 203q77 -45 197 -45q360 0 360 407v201q0 180 -70 281z" />
    <glyph glyph-name="ugrave" unicode="&#xf9;" 
d="M1006 0v219q-59 -105 -162 -172t-258 -67q-212 0 -328.5 131t-116.5 368v852h207v-831q0 -344 305 -344q84 0 149 26t102.5 64.5t61.5 90.5t32 96.5t8 88.5v809h204v-1331h-204zM195 1604l20 79l909 -151l-20 -80z" />
    <glyph glyph-name="uacute" unicode="&#xfa;" 
d="M1006 0v219q-59 -105 -162 -172t-258 -67q-212 0 -328.5 131t-116.5 368v852h207v-831q0 -344 305 -344q84 0 149 26t102.5 64.5t61.5 90.5t32 96.5t8 88.5v809h204v-1331h-204zM236 1559l829 151l18 -80l-829 -151z" />
    <glyph glyph-name="ucircumflex" unicode="&#xfb;" 
d="M1006 0v219q-59 -105 -162 -172t-258 -67q-212 0 -328.5 131t-116.5 368v852h207v-831q0 -344 305 -344q84 0 149 26t102.5 64.5t61.5 90.5t32 96.5t8 88.5v809h204v-1331h-204zM299 1468l293 256h143l287 -256h-156l-202 185l-211 -185h-154z" />
    <glyph glyph-name="udieresis" unicode="&#xfc;" 
d="M1006 0v219q-59 -105 -162 -172t-258 -67q-212 0 -328.5 131t-116.5 368v852h207v-831q0 -344 305 -344q84 0 149 26t102.5 64.5t61.5 90.5t32 96.5t8 88.5v809h204v-1331h-204zM307 1569q0 55 33.5 84.5t85.5 29.5q49 0 84 -30t35 -84q0 -50 -35.5 -80.5t-83.5 -30.5
q-51 0 -85 30t-34 81zM774 1569q0 55 34.5 84.5t86.5 29.5q49 0 84 -30t35 -84q0 -50 -35.5 -80.5t-83.5 -30.5q-51 0 -86 30t-35 81z" />
    <glyph glyph-name="yacute" unicode="&#xfd;" horiz-adv-x="1363" 
d="M1006 23v196q-59 -105 -162 -172t-258 -67q-212 0 -328.5 131t-116.5 368v852h207v-831q0 -344 305 -344q84 0 149 26t102.5 64.5t61.5 90.5t32 96.5t8 88.5v809h204v-1315q0 -250 -97 -364.5t-316 -114.5h-625v178h596q133 0 185.5 67.5t52.5 240.5zM252 1559l829 151
l19 -80l-830 -151z" />
    <glyph glyph-name="thorn" unicode="&#xfe;" horiz-adv-x="1392" 
d="M360 -463h-204v2155h204v-568q21 40 54 76.5t82.5 72t122 56.5t157.5 21q242 0 381 -156t139 -414v-237q0 -257 -139 -411.5t-379 -154.5q-276 0 -418 216v-656zM365 553q0 -178 94 -287.5t270 -109.5t266 109.5t90 289.5v217q0 179 -91 289t-267 110
q-173 0 -267.5 -109.5t-94.5 -287.5v-221z" />
    <glyph glyph-name="ydieresis" unicode="&#xff;" horiz-adv-x="1363" 
d="M1006 23v196q-59 -105 -162 -172t-258 -67q-212 0 -328.5 131t-116.5 368v852h207v-831q0 -344 305 -344q84 0 149 26t102.5 64.5t61.5 90.5t32 96.5t8 88.5v809h204v-1315q0 -250 -97 -364.5t-316 -114.5h-625v178h596q133 0 185.5 67.5t52.5 240.5zM324 1569
q0 55 33 84.5t85 29.5q49 0 84 -30t35 -84q0 -50 -35.5 -80.5t-83.5 -30.5q-51 0 -84.5 30t-33.5 81zM791 1569q0 55 34 84.5t86 29.5q49 0 84 -30t35 -84q0 -50 -35.5 -80.5t-83.5 -30.5q-51 0 -85.5 30t-34.5 81z" />
    <glyph glyph-name="Amacron" unicode="&#x100;" horiz-adv-x="1443" 
d="M27 0l555 1692h278l557 -1692h-227l-105 332h-729l-104 -332h-225zM256 1888v82h930v-82h-930zM416 518h610l-295 940l-10 29l-10 -29z" />
    <glyph glyph-name="amacron" unicode="&#x101;" horiz-adv-x="1325" 
d="M981 0v229q-68 -125 -197.5 -187t-291.5 -62q-183 0 -292.5 85t-109.5 263q0 295 402 393l155 39q48 13 73 20t66 20t63 24t50.5 28t42.5 34.5t24.5 41.5t10.5 51v8q0 81 -70.5 135t-222.5 54q-171 0 -258.5 -70.5t-87.5 -204.5v-53h-207v41q0 101 32 184t97 146t172 98
t248 35q502 0 502 -408v-944h-201zM199 1528v82h929v-82h-929zM299 346q0 -99 61.5 -145.5t184.5 -46.5q170 0 292.5 98.5t139.5 273.5v234q-25 -53 -95.5 -85.5t-195.5 -66.5l-135 -37q-127 -33 -189.5 -84t-62.5 -141z" />
    <glyph glyph-name="Abreve" unicode="&#x102;" horiz-adv-x="1443" 
d="M27 0l555 1692h278l557 -1692h-227l-105 332h-729l-104 -332h-225zM297 2050h102q0 -42 24.5 -72t71 -45.5t102 -22.5t128.5 -7t127.5 6.5t99.5 22.5t68.5 45.5t23.5 72.5h103q0 -67 -30 -114t-88 -73t-131.5 -37t-172.5 -11t-173 11t-133.5 37t-90.5 73t-31 114z
M416 518h610l-295 940l-10 29l-10 -29z" />
    <glyph glyph-name="abreve" unicode="&#x103;" horiz-adv-x="1325" 
d="M981 0v229q-68 -125 -197.5 -187t-291.5 -62q-183 0 -292.5 85t-109.5 263q0 295 402 393l155 39q48 13 73 20t66 20t63 24t50.5 28t42.5 34.5t24.5 41.5t10.5 51v8q0 81 -70.5 135t-222.5 54q-171 0 -258.5 -70.5t-87.5 -204.5v-53h-207v41q0 101 32 184t97 146t172 98
t248 35q502 0 502 -408v-944h-201zM240 1690h102q0 -42 24.5 -72t71 -46t102 -23t128.5 -7q72 0 127 7t100 23t68.5 45.5t23.5 72.5h103q0 -67 -30 -114t-88 -73t-131.5 -37.5t-172.5 -11.5t-173.5 11.5t-133.5 37.5t-90 73t-31 114zM299 346q0 -99 61.5 -145.5t184.5 -46.5
q170 0 292.5 98.5t139.5 273.5v234q-25 -53 -95.5 -85.5t-195.5 -66.5l-135 -37q-127 -33 -189.5 -84t-62.5 -141z" />
    <glyph glyph-name="Aogonek" unicode="&#x104;" horiz-adv-x="1443" 
d="M27 0l555 1692h278l557 -1692q-114 -36 -168.5 -82t-54.5 -111q0 -63 56 -90.5t188 -27.5h18l-82 -99h-16q-126 0 -202.5 46.5t-76.5 134.5q0 48 20 87t57.5 65.5t76.5 44t90 32.5h-133l-105 332h-729l-104 -332h-225zM416 518h610l-295 940l-10 29l-10 -29z" />
    <glyph glyph-name="aogonek" unicode="&#x105;" horiz-adv-x="1325" 
d="M981 0v229q-68 -125 -197.5 -187t-291.5 -62q-183 0 -292.5 85t-109.5 263q0 295 402 393l155 39q48 13 73 20t66 20t63 24t50.5 28t42.5 34.5t24.5 41.5t10.5 51v8q0 81 -70.5 135t-222.5 54q-171 0 -258.5 -70.5t-87.5 -204.5v-53h-207v41q0 101 32 184t97 146t172 98
t248 35q502 0 502 -408v-944q-115 -36 -169.5 -82t-54.5 -111q0 -63 56 -90.5t188 -27.5h19l-82 -99h-17q-126 0 -202 46.5t-76 134.5q0 48 20 87t57 65.5t76 44t90 32.5h-106zM299 346q0 -99 61.5 -145.5t184.5 -46.5q170 0 292.5 98.5t139.5 273.5v234
q-25 -53 -95.5 -85.5t-195.5 -66.5l-135 -37q-127 -33 -189.5 -84t-62.5 -141z" />
    <glyph glyph-name="Cacute" unicode="&#x106;" horiz-adv-x="1595" 
d="M813 -20q-172 0 -307.5 55.5t-222.5 154.5t-132 231t-45 290v274q0 156 45 287.5t132 230t223.5 154t308.5 55.5q157 0 284 -46.5t211.5 -129t132 -193t54.5 -241.5l2 -109h-223l-2 129q-9 183 -129.5 292.5t-327.5 109.5q-241 0 -366 -141t-125 -379v-314
q0 -241 124 -381.5t365 -140.5q212 0 331 109.5t128 295.5l2 127h223l-2 -106q-7 -132 -54.5 -243t-132 -194t-212 -130t-285.5 -47zM377 1919l829 152l19 -80l-830 -152z" />
    <glyph glyph-name="cacute" unicode="&#x107;" horiz-adv-x="1314" 
d="M1014 866q-8 142 -95 225t-245 83q-369 0 -369 -408v-205q0 -197 91.5 -300t275.5 -103q164 0 248.5 81.5t93.5 227.5l4 86h211l-4 -74q-16 -226 -156.5 -362.5t-398.5 -136.5q-283 0 -429.5 157.5t-146.5 440.5v178q0 282 147 439t429 157q257 0 400 -136.5t155 -363.5
l4 -76h-211zM246 1559l829 151l19 -80l-830 -151z" />
    <glyph glyph-name="Ccircumflex" unicode="&#x108;" horiz-adv-x="1595" 
d="M813 -20q-172 0 -307.5 55.5t-222.5 154.5t-132 231t-45 290v274q0 156 45 287.5t132 230t223.5 154t308.5 55.5q157 0 284 -46.5t211.5 -129t132 -193t54.5 -241.5l2 -109h-223l-2 129q-9 183 -129.5 292.5t-327.5 109.5q-241 0 -366 -141t-125 -379v-314
q0 -241 124 -381.5t365 -140.5q212 0 331 109.5t128 295.5l2 127h223l-2 -106q-7 -132 -54.5 -243t-132 -194t-212 -130t-285.5 -47zM440 1829l293 256h144l286 -256h-155l-203 184l-211 -184h-154z" />
    <glyph glyph-name="ccircumflex" unicode="&#x109;" horiz-adv-x="1314" 
d="M1014 866q-8 142 -95 225t-245 83q-369 0 -369 -408v-205q0 -197 91.5 -300t275.5 -103q164 0 248.5 81.5t93.5 227.5l4 86h211l-4 -74q-16 -226 -156.5 -362.5t-398.5 -136.5q-283 0 -429.5 157.5t-146.5 440.5v178q0 282 147 439t429 157q257 0 400 -136.5t155 -363.5
l4 -76h-211zM309 1468l293 256h143l287 -256h-155l-203 185l-211 -185h-154z" />
    <glyph glyph-name="Cdotaccent" unicode="&#x10a;" horiz-adv-x="1595" 
d="M813 -20q-172 0 -307.5 55.5t-222.5 154.5t-132 231t-45 290v274q0 156 45 287.5t132 230t223.5 154t308.5 55.5q157 0 284 -46.5t211.5 -129t132 -193t54.5 -241.5l2 -109h-223l-2 129q-9 183 -129.5 292.5t-327.5 109.5q-241 0 -366 -141t-125 -379v-314
q0 -241 124 -381.5t365 -140.5q212 0 331 109.5t128 295.5l2 127h223l-2 -106q-7 -132 -54.5 -243t-132 -194t-212 -130t-285.5 -47zM678 1925q0 49 33.5 82t91.5 33t91.5 -33t33.5 -82q0 -47 -33.5 -80t-91.5 -33t-91.5 33t-33.5 80z" />
    <glyph glyph-name="cdotaccent" unicode="&#x10b;" horiz-adv-x="1314" 
d="M1014 866q-8 142 -95 225t-245 83q-369 0 -369 -408v-205q0 -197 91.5 -300t275.5 -103q164 0 248.5 81.5t93.5 227.5l4 86h211l-4 -74q-16 -226 -156.5 -362.5t-398.5 -136.5q-283 0 -429.5 157.5t-146.5 440.5v178q0 282 147 439t429 157q257 0 400 -136.5t155 -363.5
l4 -76h-211zM535 1593q0 54 35.5 86.5t101.5 32.5t102.5 -32.5t36.5 -86.5q0 -49 -37 -81.5t-102 -32.5t-101 32.5t-36 81.5z" />
    <glyph glyph-name="Ccaron" unicode="&#x10c;" horiz-adv-x="1595" 
d="M813 -20q-172 0 -307.5 55.5t-222.5 154.5t-132 231t-45 290v274q0 156 45 287.5t132 230t223.5 154t308.5 55.5q157 0 284 -46.5t211.5 -129t132 -193t54.5 -241.5l2 -109h-223l-2 129q-9 183 -129.5 292.5t-327.5 109.5q-241 0 -366 -141t-125 -379v-314
q0 -241 124 -381.5t365 -140.5q212 0 331 109.5t128 295.5l2 127h223l-2 -106q-7 -132 -54.5 -243t-132 -194t-212 -130t-285.5 -47zM387 2071h168l250 -191l244 191h168l-340 -256h-144z" />
    <glyph glyph-name="ccaron" unicode="&#x10d;" horiz-adv-x="1314" 
d="M1014 866q-8 142 -95 225t-245 83q-369 0 -369 -408v-205q0 -197 91.5 -300t275.5 -103q164 0 248.5 81.5t93.5 227.5l4 86h211l-4 -74q-16 -226 -156.5 -362.5t-398.5 -136.5q-283 0 -429.5 157.5t-146.5 440.5v178q0 282 147 439t429 157q257 0 400 -136.5t155 -363.5
l4 -76h-211zM256 1710h168l250 -190l244 190h167l-340 -256h-143z" />
    <glyph glyph-name="Dcaron" unicode="&#x10e;" horiz-adv-x="1589" 
d="M176 0v1692h631q160 0 281 -39t209.5 -122.5t134 -221.5t45.5 -328v-270q0 -190 -45.5 -327.5t-134 -221t-209.5 -123t-281 -39.5h-631zM358 2071h168l250 -191l244 191h168l-340 -256h-143zM389 182h416q237 0 343.5 122t106.5 394v295q0 272 -106.5 394t-343.5 122
h-416v-1327z" />
    <glyph glyph-name="dcaron" unicode="&#x10f;" horiz-adv-x="1470" 
d="M1028 1692h205v-1692h-205v197q-22 -39 -55.5 -74t-83 -69t-120.5 -54t-153 -20q-242 0 -381 155.5t-139 413.5v237q0 257 139 411.5t379 154.5q81 0 151 -19t120 -52.5t83.5 -66.5t59.5 -71v549zM307 557q0 -179 91.5 -289t267.5 -110q173 0 267.5 109.5t94.5 287.5v221
q0 178 -94 288t-270 110t-266.5 -110t-90.5 -290v-217zM1296 1198l78 494h144l-121 -494h-101z" />
    <glyph glyph-name="Dcroat" unicode="&#x110;" horiz-adv-x="1689" 
d="M276 0v793h-243v116h243v783h631q160 0 281 -39t209.5 -122.5t134 -221.5t45.5 -328v-270q0 -190 -45.5 -327.5t-134 -221t-209.5 -123t-281 -39.5h-631zM489 182h416q238 0 344.5 122t106.5 394v295q0 272 -106.5 394t-344.5 122h-416v-600h529v-116h-529v-611z" />
    <glyph glyph-name="dcroat" unicode="&#x111;" horiz-adv-x="1388" 
d="M1028 1692h205v-129h209v-115h-209v-1448h-205v197q-22 -39 -55.5 -74t-83 -69t-120.5 -54t-153 -20q-242 0 -381 155.5t-139 413.5v237q0 257 139 411.5t379 154.5q81 0 151 -19t120 -52.5t83.5 -66.5t59.5 -71v305h-504v115h504v129zM307 557q0 -179 91.5 -289
t267.5 -110q173 0 267.5 109.5t94.5 287.5v221q0 178 -94 288t-270 110t-266.5 -110t-90.5 -290v-217z" />
    <glyph glyph-name="Emacron" unicode="&#x112;" horiz-adv-x="1357" 
d="M176 0v1692h1071v-187h-858v-565h813v-188h-813v-566h858v-186h-1071zM246 1888v82h930v-82h-930z" />
    <glyph glyph-name="emacron" unicode="&#x113;" horiz-adv-x="1323" 
d="M199 1528v82h929v-82h-929zM94 578v178q0 282 147.5 439t432.5 157q265 0 410 -148t145 -436v-143h-922v-64q0 -197 92 -300t275 -103q148 0 228.5 65.5t92.5 184.5l2 34h220l-3 -20q-19 -204 -156 -323t-384 -119q-285 0 -432.5 157t-147.5 441zM307 780h709v64
q-17 330 -346 330q-178 0 -269 -100t-94 -294z" />
    <glyph glyph-name="Edotaccent" unicode="&#x116;" horiz-adv-x="1357" 
d="M176 0v1692h1071v-187h-858v-565h813v-188h-813v-566h858v-186h-1071zM586 1925q0 49 33.5 82t91.5 33t91.5 -33t33.5 -82q0 -47 -33.5 -80t-91.5 -33t-91.5 33t-33.5 80z" />
    <glyph glyph-name="edotaccent" unicode="&#x117;" horiz-adv-x="1323" 
d="M664 1479q-65 0 -101.5 32.5t-36.5 81.5q0 54 36 86.5t102 32.5t102.5 -32.5t36.5 -86.5q0 -49 -37 -81.5t-102 -32.5zM94 578v178q0 282 147.5 439t432.5 157q265 0 410 -148t145 -436v-143h-922v-64q0 -197 92 -300t275 -103q148 0 228.5 65.5t92.5 184.5l2 34h220
l-3 -20q-19 -204 -156 -323t-384 -119q-285 0 -432.5 157t-147.5 441zM307 780h709v64q-17 330 -346 330q-178 0 -269 -100t-94 -294z" />
    <glyph glyph-name="Eogonek" unicode="&#x118;" horiz-adv-x="1357" 
d="M176 0v1692h1071v-187h-858v-565h813v-188h-813v-566h858v-186q-114 -36 -168.5 -82t-54.5 -111q0 -63 56 -90.5t188 -27.5h18l-82 -99h-16q-126 0 -202.5 46.5t-76.5 134.5q0 48 20 87t57.5 65.5t76.5 44t90 32.5h-977z" />
    <glyph glyph-name="eogonek" unicode="&#x119;" horiz-adv-x="1323" 
d="M791 -410q-126 0 -202.5 46.5t-76.5 134.5q0 140 182 209h-20q-285 0 -432.5 157t-147.5 441v178q0 282 147.5 439t432.5 157q265 0 410 -148t145 -436v-143h-922v-64q0 -197 92 -300t275 -103q148 0 228.5 65.5t92.5 184.5l2 34h220l-3 -20q-15 -168 -111 -280
t-269 -146q-106 -36 -156.5 -81.5t-50.5 -107.5q0 -63 56 -90.5t187 -27.5h19l-82 -99h-16zM307 780h709v64q-17 330 -346 330q-178 0 -269 -100t-94 -294z" />
    <glyph glyph-name="Ecaron" unicode="&#x11a;" horiz-adv-x="1357" 
d="M176 0v1692h1071v-187h-858v-565h813v-188h-813v-566h858v-186h-1071zM297 2071h168l250 -191l243 191h168l-340 -256h-143z" />
    <glyph glyph-name="ecaron" unicode="&#x11b;" horiz-adv-x="1323" 
d="M596 1454l-346 256h168l250 -190l243 190h168l-340 -256h-143zM94 578v178q0 282 147.5 439t432.5 157q265 0 410 -148t145 -436v-143h-922v-64q0 -197 92 -300t275 -103q148 0 228.5 65.5t92.5 184.5l2 34h220l-3 -20q-19 -204 -156 -323t-384 -119q-285 0 -432.5 157
t-147.5 441zM307 780h709v64q-17 330 -346 330q-178 0 -269 -100t-94 -294z" />
    <glyph glyph-name="Gcircumflex" unicode="&#x11c;" horiz-adv-x="1626" 
d="M786 -20q-162 0 -291.5 55.5t-213 153.5t-128 230t-44.5 288v278q0 156 44 287.5t129.5 230t221.5 154t309 55.5q153 0 278.5 -45t210.5 -125t134 -187.5t57 -234.5l2 -82h-223l-2 103q-10 181 -132 282t-323 101q-244 0 -365.5 -140.5t-121.5 -379.5v-314
q0 -241 119.5 -381.5t351.5 -140.5q209 0 334 110.5t137 313.5v96h-570v176h795v-864h-139l-25 272q-76 -136 -213 -214t-332 -78zM451 1829l292 256h144l287 -256h-156l-203 184l-211 -184h-153z" />
    <glyph glyph-name="gcircumflex" unicode="&#x11d;" horiz-adv-x="1386" 
d="M1028 43v154q-22 -39 -55.5 -74t-83 -69t-120.5 -54t-153 -20q-242 0 -381 155.5t-139 413.5v237q0 257 139 411.5t379 154.5q81 0 151 -19t120 -52.5t83.5 -66.5t59.5 -71v188h205v-1308q0 -128 -20.5 -216t-70 -150t-132.5 -91t-207 -29h-639v178h610q149 0 201.5 71
t52.5 257zM293 1468l293 256h143l287 -256h-156l-203 185l-211 -185h-153zM307 557q0 -179 91.5 -289t267.5 -110q173 0 267.5 109.5t94.5 287.5v221q0 178 -94 288t-270 110t-266.5 -110t-90.5 -290v-217z" />
    <glyph glyph-name="Gbreve" unicode="&#x11e;" horiz-adv-x="1626" 
d="M786 -20q-162 0 -291.5 55.5t-213 153.5t-128 230t-44.5 288v278q0 156 44 287.5t129.5 230t221.5 154t309 55.5q153 0 278.5 -45t210.5 -125t134 -187.5t57 -234.5l2 -82h-223l-2 103q-10 181 -132 282t-323 101q-244 0 -365.5 -140.5t-121.5 -379.5v-314
q0 -241 119.5 -381.5t351.5 -140.5q209 0 334 110.5t137 313.5v96h-570v176h795v-864h-139l-25 272q-76 -136 -213 -214t-332 -78zM387 2050h102q0 -42 24.5 -72t71 -45.5t102 -22.5t128.5 -7t127.5 6.5t100 22.5t69 45.5t23.5 72.5h102q0 -67 -30 -114t-88 -73t-131.5 -37
t-172.5 -11t-173 11t-133.5 37t-90.5 73t-31 114z" />
    <glyph glyph-name="gbreve" unicode="&#x11f;" horiz-adv-x="1386" 
d="M1028 43v154q-22 -39 -55.5 -74t-83 -69t-120.5 -54t-153 -20q-242 0 -381 155.5t-139 413.5v237q0 257 139 411.5t379 154.5q81 0 151 -19t120 -52.5t83.5 -66.5t59.5 -71v188h205v-1308q0 -128 -20.5 -216t-70 -150t-132.5 -91t-207 -29h-639v178h610q149 0 201.5 71
t52.5 257zM229 1690h103q0 -42 24.5 -72t70.5 -46t101.5 -23t128.5 -7q72 0 127 7t100.5 23t69 45.5t23.5 72.5h102q0 -67 -30 -114t-88 -73t-131.5 -37.5t-172.5 -11.5t-173.5 11.5t-133.5 37.5t-90 73t-31 114zM307 557q0 -179 91.5 -289t267.5 -110q173 0 267.5 109.5
t94.5 287.5v221q0 178 -94 288t-270 110t-266.5 -110t-90.5 -290v-217z" />
    <glyph glyph-name="Gdotaccent" unicode="&#x120;" horiz-adv-x="1626" 
d="M786 -20q-162 0 -291.5 55.5t-213 153.5t-128 230t-44.5 288v278q0 156 44 287.5t129.5 230t221.5 154t309 55.5q153 0 278.5 -45t210.5 -125t134 -187.5t57 -234.5l2 -82h-223l-2 103q-10 181 -132 282t-323 101q-244 0 -365.5 -140.5t-121.5 -379.5v-314
q0 -241 119.5 -381.5t351.5 -140.5q209 0 334 110.5t137 313.5v96h-570v176h795v-864h-139l-25 272q-76 -136 -213 -214t-332 -78zM688 1925q0 49 33.5 82t91.5 33t91.5 -33t33.5 -82q0 -47 -33.5 -80t-91.5 -33t-91.5 33t-33.5 80z" />
    <glyph glyph-name="gdotaccent" unicode="&#x121;" horiz-adv-x="1386" 
d="M1028 43v154q-22 -39 -55.5 -74t-83 -69t-120.5 -54t-153 -20q-242 0 -381 155.5t-139 413.5v237q0 257 139 411.5t379 154.5q81 0 151 -19t120 -52.5t83.5 -66.5t59.5 -71v188h205v-1308q0 -128 -20.5 -216t-70 -150t-132.5 -91t-207 -29h-639v178h610q149 0 201.5 71
t52.5 257zM307 557q0 -179 91.5 -289t267.5 -110q173 0 267.5 109.5t94.5 287.5v221q0 178 -94 288t-270 110t-266.5 -110t-90.5 -290v-217zM518 1593q0 54 35.5 86.5t101.5 32.5t103 -32.5t37 -86.5q0 -49 -37.5 -81.5t-102.5 -32.5t-101 32.5t-36 81.5z" />
    <glyph glyph-name="uni0122" unicode="&#x122;" horiz-adv-x="1626" 
d="M786 -20q-162 0 -291.5 55.5t-213 153.5t-128 230t-44.5 288v278q0 156 44 287.5t129.5 230t221.5 154t309 55.5q153 0 278.5 -45t210.5 -125t134 -187.5t57 -234.5l2 -82h-223l-2 103q-10 181 -132 282t-323 101q-244 0 -365.5 -140.5t-121.5 -379.5v-314
q0 -241 119.5 -381.5t351.5 -140.5q209 0 334 110.5t137 313.5v96h-570v176h795v-864h-139l-25 272q-76 -136 -213 -214t-332 -78zM698 -172q0 42 29 71t74 29q47 0 74.5 -30.5t27.5 -90.5q0 -71 -45 -134.5t-133 -106.5v84q102 39 125 119q-26 -33 -66 -33
q-35 0 -60.5 25.5t-25.5 66.5z" />
    <glyph glyph-name="uni0123" unicode="&#x123;" horiz-adv-x="1386" 
d="M1028 43v154q-22 -39 -55.5 -74t-83 -69t-120.5 -54t-153 -20q-242 0 -381 155.5t-139 413.5v237q0 257 139 411.5t379 154.5q81 0 151 -19t120 -52.5t83.5 -66.5t59.5 -71v188h205v-1308q0 -128 -20.5 -216t-70 -150t-132.5 -91t-207 -29h-639v178h610q149 0 201.5 71
t52.5 257zM307 557q0 -179 91.5 -289t267.5 -110q173 0 267.5 109.5t94.5 287.5v221q0 178 -94 288t-270 110t-266.5 -110t-90.5 -290v-217zM553 1554q0 72 44.5 135.5t131.5 104.5v-84q-102 -40 -123 -119q27 35 66 35q35 0 60.5 -25.5t25.5 -66.5q0 -44 -29 -73t-76 -29
q-46 0 -73 31t-27 91z" />
    <glyph glyph-name="Hcircumflex" unicode="&#x124;" horiz-adv-x="1599" 
d="M1210 0v752h-821v-752h-213v1692h213v-752h821v752h213v-1692h-213zM436 1829l293 256h143l287 -256h-155l-203 184l-211 -184h-154z" />
    <glyph glyph-name="hcircumflex" unicode="&#x125;" 
d="M360 1692v-580q59 105 162 172.5t258 67.5q212 0 328.5 -131.5t116.5 -368.5v-852h-207v831q0 345 -305 345q-84 0 -149 -26t-102.5 -65t-61.5 -90.5t-32 -96.5t-8 -89v-809h-204v1692h204zM-106 1829l292 256h144l286 -256h-155l-203 184l-211 -184h-153z" />
    <glyph glyph-name="Hbar" unicode="&#x126;" horiz-adv-x="1722" 
d="M1274 0v752h-821v-752h-213v1270h-199v121h199v301h213v-301h821v301h213v-301h199v-121h-199v-1270h-213zM453 940h821v330h-821v-330z" />
    <glyph glyph-name="hbar" unicode="&#x127;" 
d="M360 1692v-138h459v-114h-459v-328q59 105 162 172.5t258 67.5q212 0 328.5 -131.5t116.5 -368.5v-852h-207v831q0 345 -305 345q-84 0 -149 -26t-102.5 -65t-61.5 -90.5t-32 -96.5t-8 -89v-809h-204v1440h-254v114h254v138h204z" />
    <glyph glyph-name="Itilde" unicode="&#x128;" horiz-adv-x="1105" 
d="M98 0v193h348v1306h-348v193h912v-193h-351v-1306h351v-193h-912zM135 1827q0 107 61.5 165t170.5 58q55 0 98.5 -16t72 -38.5t55 -45t62 -38.5t78.5 -16q67 0 102 36.5t35 101.5h103q0 -110 -63.5 -168t-176.5 -58q-58 0 -103.5 16t-74 38.5t-54.5 45t-59 38.5t-73 16
q-65 0 -98 -37.5t-33 -97.5h-103z" />
    <glyph glyph-name="itilde" unicode="&#x129;" horiz-adv-x="516" 
d="M156 1331h204v-1331h-204v1331zM-160 1466q0 107 61.5 165.5t170.5 58.5q55 0 98.5 -16t72 -38.5t55 -45t62 -38.5t78.5 -16q68 0 102.5 36t34.5 101h103q0 -110 -63.5 -167.5t-176.5 -57.5q-58 0 -103.5 16t-74 38.5t-54.5 45t-59 38.5t-73 16q-65 0 -98 -38t-33 -98
h-103z" />
    <glyph glyph-name="Imacron" unicode="&#x12a;" horiz-adv-x="1105" 
d="M98 0v193h348v1306h-348v193h912v-193h-351v-1306h351v-193h-912zM88 1888v82h930v-82h-930z" />
    <glyph glyph-name="imacron" unicode="&#x12b;" horiz-adv-x="516" 
d="M156 1331h204v-1331h-204v1331zM-53 1528v82h622v-82h-622z" />
    <glyph glyph-name="Iogonek" unicode="&#x12e;" horiz-adv-x="1105" 
d="M98 0v193h348v1306h-348v193h912v-193h-351v-1306h351v-193q-115 -36 -169.5 -82t-54.5 -111q0 -63 56 -90.5t188 -27.5h19l-82 -99h-17q-126 0 -202 46.5t-76 134.5q0 48 20 87t57 65.5t76 44t90 32.5h-817z" />
    <glyph glyph-name="iogonek" unicode="&#x12f;" horiz-adv-x="516" 
d="M156 1331h204v-1331h2q-114 -36 -168.5 -82t-54.5 -111q0 -63 56 -90.5t188 -27.5h18l-82 -99h-16q-126 0 -202 46.5t-76 134.5q0 48 20 87t57 65.5t76 44t90 32.5h-112v1331zM121 1593q0 54 35.5 86.5t101.5 32.5t102.5 -32.5t36.5 -86.5q0 -49 -37 -81.5t-102 -32.5
t-101 32.5t-36 81.5z" />
    <glyph glyph-name="Idotaccent" unicode="&#x130;" horiz-adv-x="1105" 
d="M98 0v193h348v1306h-348v193h912v-193h-351v-1306h351v-193h-912zM428 1925q0 49 33.5 82t91.5 33t91.5 -33t33.5 -82q0 -47 -33.5 -80t-91.5 -33t-91.5 33t-33.5 80z" />
    <glyph glyph-name="dotlessi" unicode="&#x131;" horiz-adv-x="516" 
d="M156 1331h204v-1331h-204v1331z" />
    <glyph glyph-name="IJ" unicode="&#x132;" horiz-adv-x="2490" 
d="M98 0v193h348v1306h-348v193h912v-193h-351v-1306h351v-193h-912zM1141 610v49h219v-69q0 -226 88 -325t287 -99q194 0 286.5 96t92.5 313v1117h215v-1096q0 -307 -143 -461.5t-451 -154.5q-310 0 -452 156t-142 474z" />
    <glyph glyph-name="ij" unicode="&#x133;" horiz-adv-x="937" 
d="M156 1331h204v-1331h-204v1331zM121 1593q0 54 35.5 86.5t101.5 32.5t102.5 -32.5t36.5 -86.5q0 -49 -37 -81.5t-102 -32.5t-101 32.5t-36 81.5zM195 -463v178h157q94 0 140.5 23t66 80.5t19.5 173.5v1339h204v-1368q0 -163 -39.5 -255.5t-122 -131.5t-225.5 -39h-200z
M541 1593q0 54 35.5 86.5t101.5 32.5t102.5 -32.5t36.5 -86.5q0 -49 -37 -81.5t-102 -32.5t-101 32.5t-36 81.5z" />
    <glyph glyph-name="Jcircumflex" unicode="&#x134;" horiz-adv-x="1406" 
d="M651 -20q-310 0 -452 156t-142 474v49h219v-69q0 -226 88 -325t287 -99q194 0 286.5 96t92.5 313v1117h215v-1096q0 -307 -143 -461.5t-451 -154.5zM772 1829l293 256h143l287 -256h-156l-202 184l-211 -184h-154z" />
    <glyph glyph-name="jcircumflex" unicode="&#x135;" horiz-adv-x="516" 
d="M156 -8v1339h204v-1368q0 -163 -39.5 -255.5t-122 -131.5t-225.5 -39h-200v178h157q94 0 140.5 23t66 80.5t19.5 173.5zM-104 1468l292 256h144l286 -256h-155l-203 185l-211 -185h-153z" />
    <glyph glyph-name="uni0136" unicode="&#x136;" horiz-adv-x="1454" 
d="M1169 0l-665 750h-115v-750h-213v1692h213v-750h115l665 750h273l-770 -846l770 -846h-273zM649 -172q0 42 29 71t74 29q47 0 74.5 -30.5t27.5 -90.5q0 -71 -45 -134.5t-133 -106.5v84q102 39 125 119q-26 -33 -66 -33q-35 0 -60.5 25.5t-25.5 66.5z" />
    <glyph glyph-name="uni0137" unicode="&#x137;" horiz-adv-x="1261" 
d="M156 1692h204v-936h86l549 575h260l-655 -665l655 -666h-260l-553 580h-82v-580h-204v1692zM567 -172q0 42 29 71t74 29q47 0 74.5 -30.5t27.5 -90.5q0 -71 -45 -134.5t-133 -106.5v84q102 39 125 119q-26 -33 -66 -33q-35 0 -60.5 25.5t-25.5 66.5z" />
    <glyph glyph-name="Lacute" unicode="&#x139;" horiz-adv-x="1275" 
d="M176 0v1692h213v-1506h852v-186h-1065zM240 1919l829 152l18 -80l-829 -152z" />
    <glyph glyph-name="lacute" unicode="&#x13a;" horiz-adv-x="516" 
d="M156 1692h204v-1692h-204v1692zM-168 1919l830 152l18 -80l-830 -152z" />
    <glyph glyph-name="uni013B" unicode="&#x13b;" horiz-adv-x="1275" 
d="M176 0v1692h213v-1506h852v-186h-1065zM592 -172q0 42 28.5 71t73.5 29q47 0 75 -30.5t28 -90.5q0 -71 -45.5 -134.5t-133.5 -106.5v84q102 39 125 119q-26 -33 -65 -33q-35 0 -60.5 25.5t-25.5 66.5z" />
    <glyph glyph-name="uni013C" unicode="&#x13c;" horiz-adv-x="516" 
d="M156 1692h204v-1692h-204v1692zM156 -172q0 42 28.5 71t73.5 29q47 0 74.5 -30.5t27.5 -90.5q0 -71 -45 -134.5t-133 -106.5v84q102 39 125 119q-26 -33 -65 -33q-35 0 -60.5 25.5t-25.5 66.5z" />
    <glyph glyph-name="Lcaron" unicode="&#x13d;" horiz-adv-x="1277" 
d="M176 0v1692h213v-1506h852v-186h-1065zM678 1198l78 494h143l-121 -494h-100z" />
    <glyph glyph-name="lcaron" unicode="&#x13e;" horiz-adv-x="600" 
d="M156 1692h204v-1692h-204v1692zM438 1198l78 494h143l-120 -494h-101z" />
    <glyph glyph-name="Lslash" unicode="&#x141;" horiz-adv-x="1394" 
d="M293 0v680l-240 -94v133l240 94v879h213v-795l442 174v-133l-442 -174v-578h852v-186h-1065z" />
    <glyph glyph-name="lslash" unicode="&#x142;" horiz-adv-x="899" 
d="M354 1692h205v-748l305 137v-133l-305 -137v-811h-205v719l-307 -137v131l307 139v840z" />
    <glyph glyph-name="Nacute" unicode="&#x143;" horiz-adv-x="1630" 
d="M176 0v1692h207l866 -1321v1321h205v-1692h-207l-866 1321v-1321h-205zM389 1919l830 152l18 -80l-829 -152z" />
    <glyph glyph-name="nacute" unicode="&#x144;" 
d="M360 1331v-219q59 105 162 172.5t258 67.5q212 0 328.5 -131.5t116.5 -368.5v-852h-207v831q0 345 -305 345q-84 0 -149 -26t-102.5 -65t-61.5 -90.5t-32 -96.5t-8 -89v-809h-204v1331h204zM276 1559l830 151l18 -80l-829 -151z" />
    <glyph glyph-name="uni0145" unicode="&#x145;" horiz-adv-x="1630" 
d="M176 0v1692h207l866 -1321v1321h205v-1692h-207l-866 1321v-1321h-205zM713 -172q0 42 28.5 71t73.5 29q47 0 75 -30.5t28 -90.5q0 -71 -45.5 -134.5t-133.5 -106.5v84q102 39 125 119q-26 -33 -65 -33q-35 0 -60.5 25.5t-25.5 66.5z" />
    <glyph glyph-name="uni0146" unicode="&#x146;" 
d="M360 1331v-219q59 105 162 172.5t258 67.5q212 0 328.5 -131.5t116.5 -368.5v-852h-207v831q0 345 -305 345q-84 0 -149 -26t-102.5 -65t-61.5 -90.5t-32 -96.5t-8 -89v-809h-204v1331h204zM596 -172q0 42 28.5 71t73.5 29q47 0 75 -30.5t28 -90.5q0 -71 -45 -134.5
t-133 -106.5v84q102 39 125 119q-26 -33 -66 -33q-35 0 -60.5 25.5t-25.5 66.5z" />
    <glyph glyph-name="Ncaron" unicode="&#x147;" horiz-adv-x="1630" 
d="M176 0v1692h207l866 -1321v1321h205v-1692h-207l-866 1321v-1321h-205zM399 2071h168l250 -191l244 191h168l-340 -256h-144z" />
    <glyph glyph-name="ncaron" unicode="&#x148;" 
d="M360 1331v-219q59 105 162 172.5t258 67.5q212 0 328.5 -131.5t116.5 -368.5v-852h-207v831q0 345 -305 345q-84 0 -149 -26t-102.5 -65t-61.5 -90.5t-32 -96.5t-8 -89v-809h-204v1331h204zM287 1710h168l250 -190l243 190h168l-340 -256h-143z" />
    <glyph glyph-name="Eng" unicode="&#x14a;" horiz-adv-x="1630" 
d="M176 0v1692h207l866 -1321v1321h205v-1692q-1 -94 -11 -157.5t-33 -114.5t-64.5 -80t-103 -43.5t-150.5 -14.5h-162v191h180q90 0 118 48t19 173l-866 1319v-1321h-205z" />
    <glyph glyph-name="eng" unicode="&#x14b;" 
d="M360 1331v-219q59 105 162 172.5t258 67.5q212 0 328.5 -131.5t116.5 -368.5v-852q0 -113 -15 -185.5t-54 -125.5t-108.5 -76t-177.5 -23h-149v174h108q105 0 147 52.5t42 183.5v831q0 345 -305 345q-84 0 -149 -26t-102.5 -65t-61.5 -90.5t-32 -96.5t-8 -89v-809h-204
v1331h204z" />
    <glyph glyph-name="Omacron" unicode="&#x14c;" horiz-adv-x="1624" 
d="M813 -20q-137 0 -252.5 36.5t-198.5 102t-141 157t-86.5 201.5t-28.5 234v274q0 154 45.5 285.5t132 230.5t222.5 155t307 56q170 0 305.5 -56t222 -155t132 -230.5t45.5 -285.5v-274q0 -156 -45.5 -288.5t-132 -231.5t-222 -155t-305.5 -56zM326 690q0 -238 124 -379
t363 -141q237 0 361 141t124 379v314q0 236 -124 377t-361 141q-238 0 -362.5 -141t-124.5 -377v-314zM346 1888v82h930v-82h-930z" />
    <glyph glyph-name="omacron" unicode="&#x14d;" horiz-adv-x="1329" 
d="M664 -20q-278 0 -423 157.5t-145 440.5v176q0 283 145 440.5t423 157.5q280 0 424.5 -157.5t144.5 -440.5v-176q0 -283 -144.5 -440.5t-424.5 -157.5zM199 1528v82h929v-82h-929zM305 565q0 -407 359 -407q360 0 360 407v201q0 408 -360 408q-359 0 -359 -408v-201z" />
    <glyph glyph-name="Ohungarumlaut" unicode="&#x150;" horiz-adv-x="1624" 
d="M813 -20q-137 0 -252.5 36.5t-198.5 102t-141 157t-86.5 201.5t-28.5 234v274q0 154 45.5 285.5t132 230.5t222.5 155t307 56q170 0 305.5 -56t222 -155t132 -230.5t45.5 -285.5v-274q0 -156 -45.5 -288.5t-132 -231.5t-222 -155t-305.5 -56zM326 690q0 -238 124 -379
t363 -141q237 0 361 141t124 379v314q0 236 -124 377t-361 141q-238 0 -362.5 -141t-124.5 -377v-314zM616 1815l250 229h125l-229 -229h-146zM874 1815l250 229h125l-229 -229h-146z" />
    <glyph glyph-name="ohungarumlaut" unicode="&#x151;" horiz-adv-x="1329" 
d="M664 -20q-278 0 -423 157.5t-145 440.5v176q0 283 145 440.5t423 157.5q280 0 424.5 -157.5t144.5 -440.5v-176q0 -283 -144.5 -440.5t-424.5 -157.5zM305 565q0 -407 359 -407q360 0 360 407v201q0 408 -360 408q-359 0 -359 -408v-201zM467 1454l250 229h125l-230 -229
h-145zM725 1454l250 229h125l-230 -229h-145z" />
    <glyph glyph-name="OE" unicode="&#x152;" horiz-adv-x="2131" 
d="M696 -20q-184 0 -318 93t-200.5 254.5t-66.5 374.5v291q0 211 67.5 372.5t200 254t313.5 92.5q141 0 251.5 -62.5t180.5 -179.5v222h889v-187h-696v-565h672v-188h-672v-566h696v-186h-889v219q-69 -117 -178 -178t-250 -61zM330 686q0 -239 100.5 -379.5t286.5 -140.5
q185 0 286 138.5t101 365.5v356q0 225 -100.5 362.5t-284.5 137.5q-187 0 -288 -140.5t-101 -377.5v-322z" />
    <glyph glyph-name="oe" unicode="&#x153;" horiz-adv-x="2158" 
d="M641 -20q-257 0 -401 158t-144 433v189q0 274 144.5 433t400.5 159q317 0 453 -256q132 256 446 256q245 0 384.5 -147.5t139.5 -430.5v-149h-876l-2 -78q4 -189 94 -289t248 -100q129 0 206.5 66t96.5 184v26h219v-18q-27 -199 -161.5 -317.5t-358.5 -118.5
q-310 0 -440 253q-134 -253 -449 -253zM305 563q0 -194 88.5 -299.5t253.5 -105.5t253.5 105t88.5 300v205q0 195 -88.5 300.5t-253.5 105.5t-253.5 -106.5t-88.5 -299.5v-205zM1190 782h661v62q-9 167 -94 248.5t-229 81.5q-153 0 -241 -89t-97 -268v-35z" />
    <glyph glyph-name="Racute" unicode="&#x154;" horiz-adv-x="1566" 
d="M1233 0q-25 27 -25 152v270q0 66 -18 115.5t-47 78.5t-72.5 47t-87 24.5t-96.5 6.5h-498v-694h-213v1692h715q276 0 406 -113t130 -362v-13q0 -340 -266 -416q129 -33 196.5 -128.5t67.5 -239.5v-268q0 -121 23 -152h-215zM317 1919l830 152l18 -80l-829 -152zM389 877
h498q78 0 132.5 12.5t98.5 44t66 91.5t22 149v53q0 84 -20.5 139.5t-65 86.5t-104 43.5t-146.5 12.5h-481v-632z" />
    <glyph glyph-name="racute" unicode="&#x155;" horiz-adv-x="1167" 
d="M362 1331v-221q44 101 144.5 171.5t241.5 70.5q181 0 275.5 -109.5t94.5 -320.5v-127h-211v106q0 133 -50.5 203t-174.5 70q-70 0 -126.5 -24.5t-91.5 -62.5t-59 -86.5t-33.5 -93t-9.5 -86.5v-821h-206v1331h206zM227 1559l830 151l18 -80l-829 -151z" />
    <glyph glyph-name="uni0156" unicode="&#x156;" horiz-adv-x="1566" 
d="M1233 0q-25 27 -25 152v270q0 66 -18 115.5t-47 78.5t-72.5 47t-87 24.5t-96.5 6.5h-498v-694h-213v1692h715q276 0 406 -113t130 -362v-13q0 -340 -266 -416q129 -33 196.5 -128.5t67.5 -239.5v-268q0 -121 23 -152h-215zM389 877h498q78 0 132.5 12.5t98.5 44t66 91.5
t22 149v53q0 84 -20.5 139.5t-65 86.5t-104 43.5t-146.5 12.5h-481v-632zM694 -172q0 42 29 71t74 29q47 0 74.5 -30.5t27.5 -90.5q0 -71 -45 -134.5t-133 -106.5v84q102 39 125 119q-26 -33 -66 -33q-35 0 -60.5 25.5t-25.5 66.5z" />
    <glyph glyph-name="uni0157" unicode="&#x157;" horiz-adv-x="1167" 
d="M362 1331v-221q44 101 144.5 171.5t241.5 70.5q181 0 275.5 -109.5t94.5 -320.5v-127h-211v106q0 133 -50.5 203t-174.5 70q-70 0 -126.5 -24.5t-91.5 -62.5t-59 -86.5t-33.5 -93t-9.5 -86.5v-821h-206v1331h206zM158 -172q0 42 28.5 71t73.5 29q47 0 74.5 -30.5
t27.5 -90.5q0 -71 -45 -134.5t-133 -106.5v84q102 39 125 119q-26 -33 -65 -33q-35 0 -60.5 25.5t-25.5 66.5z" />
    <glyph glyph-name="Rcaron" unicode="&#x158;" horiz-adv-x="1566" 
d="M1233 0q-25 27 -25 152v270q0 66 -18 115.5t-47 78.5t-72.5 47t-87 24.5t-96.5 6.5h-498v-694h-213v1692h715q276 0 406 -113t130 -362v-13q0 -340 -266 -416q129 -33 196.5 -128.5t67.5 -239.5v-268q0 -121 23 -152h-215zM330 2071h168l250 -191l243 191h168l-340 -256
h-143zM389 877h498q78 0 132.5 12.5t98.5 44t66 91.5t22 149v53q0 84 -20.5 139.5t-65 86.5t-104 43.5t-146.5 12.5h-481v-632z" />
    <glyph glyph-name="rcaron" unicode="&#x159;" horiz-adv-x="1167" 
d="M362 1331v-221q44 101 144.5 171.5t241.5 70.5q181 0 275.5 -109.5t94.5 -320.5v-127h-211v106q0 133 -50.5 203t-174.5 70q-70 0 -126.5 -24.5t-91.5 -62.5t-59 -86.5t-33.5 -93t-9.5 -86.5v-821h-206v1331h206zM238 1710h168l249 -190l244 190h168l-340 -256h-143z" />
    <glyph glyph-name="Sacute" unicode="&#x15a;" horiz-adv-x="1456" 
d="M754 -20q-668 0 -668 559v59h219v-80q0 -185 110 -268.5t345 -83.5q196 0 287.5 62.5t91.5 201.5v21q0 69 -18.5 117t-61 81t-92 53t-129.5 41l-316 97q-69 22 -123 46.5t-105.5 61t-85 81t-53.5 106t-20 135.5q0 214 150.5 328t433.5 114q297 0 452.5 -128t155.5 -370
v-51h-219v60q0 159 -94 232t-295 73q-365 0 -365 -240v-14q0 -57 21 -101t62.5 -74t88 -49.5t111.5 -37.5l321 -97q74 -22 129 -45.5t109 -61t88 -84.5t55 -115t21 -154q0 -242 -147.5 -358.5t-458.5 -116.5zM293 1919l829 152l19 -80l-830 -152z" />
    <glyph glyph-name="sacute" unicode="&#x15b;" horiz-adv-x="1261" 
d="M846 729q181 -51 255.5 -137.5t74.5 -222.5q0 -86 -27 -154.5t-86 -122.5t-161.5 -83t-244.5 -29q-307 0 -443 115t-136 335v47h211v-47q0 -147 87 -210.5t279 -63.5q162 0 237 50t75 150q0 77 -52.5 127.5t-177.5 89.5l-295 89q-172 42 -248.5 123t-76.5 208
q0 76 28 139t85.5 113t155 78.5t226.5 28.5q539 0 539 -420v-39h-211v37q0 132 -81.5 189t-246.5 57q-127 0 -205.5 -43.5t-78.5 -128.5q0 -64 44 -104.5t150 -72.5zM197 1559l829 151l18 -80l-829 -151z" />
    <glyph glyph-name="Scircumflex" unicode="&#x15c;" horiz-adv-x="1456" 
d="M754 -20q-668 0 -668 559v59h219v-80q0 -185 110 -268.5t345 -83.5q196 0 287.5 62.5t91.5 201.5v21q0 69 -18.5 117t-61 81t-92 53t-129.5 41l-316 97q-69 22 -123 46.5t-105.5 61t-85 81t-53.5 106t-20 135.5q0 214 150.5 328t433.5 114q297 0 452.5 -128t155.5 -370
v-51h-219v60q0 159 -94 232t-295 73q-365 0 -365 -240v-14q0 -57 21 -101t62.5 -74t88 -49.5t111.5 -37.5l321 -97q74 -22 129 -45.5t109 -61t88 -84.5t55 -115t21 -154q0 -242 -147.5 -358.5t-458.5 -116.5zM356 1829l293 256h144l286 -256h-155l-203 184l-211 -184h-154z
" />
    <glyph glyph-name="scircumflex" unicode="&#x15d;" horiz-adv-x="1261" 
d="M846 729q181 -51 255.5 -137.5t74.5 -222.5q0 -86 -27 -154.5t-86 -122.5t-161.5 -83t-244.5 -29q-307 0 -443 115t-136 335v47h211v-47q0 -147 87 -210.5t279 -63.5q162 0 237 50t75 150q0 77 -52.5 127.5t-177.5 89.5l-295 89q-172 42 -248.5 123t-76.5 208
q0 76 28 139t85.5 113t155 78.5t226.5 28.5q539 0 539 -420v-39h-211v37q0 132 -81.5 189t-246.5 57q-127 0 -205.5 -43.5t-78.5 -128.5q0 -64 44 -104.5t150 -72.5zM260 1468l293 256h143l287 -256h-156l-202 185l-211 -185h-154z" />
    <glyph glyph-name="Scedilla" unicode="&#x15e;" horiz-adv-x="1456" 
d="M621 -336q142 0 200 14.5t58 61.5q0 49 -57.5 58.5t-164.5 -7.5l45 189q-616 24 -616 559v59h219v-80q0 -185 110 -268.5t345 -83.5q196 0 287.5 62.5t91.5 201.5v21q0 69 -18.5 117t-61 81t-92 53t-129.5 41l-316 97q-69 22 -123 46.5t-105.5 61t-85 81t-53.5 106
t-20 135.5q0 214 150.5 328t433.5 114q297 0 452.5 -128t155.5 -370v-51h-219v60q0 159 -94 232t-295 73q-365 0 -365 -240v-14q0 -57 21 -101t62.5 -74t88 -49.5t111.5 -37.5l321 -97q74 -22 129 -45.5t109 -61t88 -84.5t55 -115t21 -154q0 -233 -136.5 -349.5
t-424.5 -125.5l-29 -109q223 27 223 -127q0 -95 -92 -131.5t-283 -36.5z" />
    <glyph glyph-name="scedilla" unicode="&#x15f;" horiz-adv-x="1261" 
d="M846 729q181 -51 255.5 -137.5t74.5 -222.5q0 -67 -15.5 -122.5t-51 -104.5t-90 -83t-137 -55t-188.5 -24l-28 -109q223 27 223 -127q0 -95 -92 -131.5t-283 -36.5l2 88q142 0 200 14.5t58 61.5q0 49 -57 58.5t-164 -7.5l45 191q-275 10 -397.5 125t-122.5 323v47h211
v-47q0 -147 87 -210.5t279 -63.5q162 0 237 50t75 150q0 77 -52.5 127.5t-177.5 89.5l-295 89q-172 42 -248.5 123t-76.5 208q0 76 28 139t85.5 113t155 78.5t226.5 28.5q539 0 539 -420v-39h-211v37q0 132 -81.5 189t-246.5 57q-127 0 -205.5 -43.5t-78.5 -128.5
q0 -64 44 -104.5t150 -72.5z" />
    <glyph glyph-name="Scaron" unicode="&#x160;" horiz-adv-x="1456" 
d="M754 -20q-668 0 -668 559v59h219v-80q0 -185 110 -268.5t345 -83.5q196 0 287.5 62.5t91.5 201.5v21q0 69 -18.5 117t-61 81t-92 53t-129.5 41l-316 97q-69 22 -123 46.5t-105.5 61t-85 81t-53.5 106t-20 135.5q0 214 150.5 328t433.5 114q297 0 452.5 -128t155.5 -370
v-51h-219v60q0 159 -94 232t-295 73q-365 0 -365 -240v-14q0 -57 21 -101t62.5 -74t88 -49.5t111.5 -37.5l321 -97q74 -22 129 -45.5t109 -61t88 -84.5t55 -115t21 -154q0 -242 -147.5 -358.5t-458.5 -116.5zM303 2071h168l250 -191l244 191h168l-340 -256h-144z" />
    <glyph glyph-name="scaron" unicode="&#x161;" horiz-adv-x="1261" 
d="M846 729q181 -51 255.5 -137.5t74.5 -222.5q0 -86 -27 -154.5t-86 -122.5t-161.5 -83t-244.5 -29q-307 0 -443 115t-136 335v47h211v-47q0 -147 87 -210.5t279 -63.5q162 0 237 50t75 150q0 77 -52.5 127.5t-177.5 89.5l-295 89q-172 42 -248.5 123t-76.5 208
q0 76 28 139t85.5 113t155 78.5t226.5 28.5q539 0 539 -420v-39h-211v37q0 132 -81.5 189t-246.5 57q-127 0 -205.5 -43.5t-78.5 -128.5q0 -64 44 -104.5t150 -72.5zM207 1710h168l250 -190l243 190h168l-340 -256h-143z" />
    <glyph glyph-name="uni0162" unicode="&#x162;" horiz-adv-x="1339" 
d="M563 0v1505h-524v187h1264v-187h-527v-1505h-59l-33 -129q223 27 223 -127q0 -95 -92 -131.5t-283 -36.5l3 88q142 0 200 14.5t58 61.5q0 49 -57.5 58.5t-164.5 -7.5l50 209h-58z" />
    <glyph glyph-name="uni0163" unicode="&#x163;" horiz-adv-x="972" 
d="M897 1331v-178h-377v-733q0 -148 29.5 -195t128.5 -47h219v-178h-221l-27 -109q223 27 223 -127q0 -95 -91.5 -131t-282.5 -36l2 88q142 0 200 14t58 61q0 49 -57 59t-164 -7l45 190q-67 4 -114.5 23t-77 49t-46.5 78t-23 101t-6 128v772h-295v178h95q127 9 183 101
t54 260h203q0 -146 -42 -243.5t-112 -117.5h496z" />
    <glyph glyph-name="Tcaron" unicode="&#x164;" horiz-adv-x="1339" 
d="M563 0v1505h-524v187h1264v-187h-527v-1505h-213zM254 2071h168l250 -191l243 191h168l-340 -256h-143z" />
    <glyph glyph-name="tcaron" unicode="&#x165;" horiz-adv-x="972" 
d="M897 1331v-178h-377v-733q0 -148 29.5 -195t128.5 -47h219v-178h-272q-97 0 -159 23.5t-94.5 75.5t-44.5 117t-12 165v772h-295v178h95q127 9 183 101t54 260h203q0 -146 -42 -243.5t-112 -117.5h496zM659 1460l109 426h145l-153 -426h-101z" />
    <glyph glyph-name="Tbar" unicode="&#x166;" horiz-adv-x="1388" 
d="M588 0v727h-400v117h400v661h-525v187h1264v-187h-526v-661h397v-117h-397v-727h-213z" />
    <glyph glyph-name="tbar" unicode="&#x167;" horiz-adv-x="999" 
d="M920 1331v-178h-377v-362h370v-117h-370v-254q0 -148 29 -195t128 -47h220v-178h-273q-97 0 -158.5 23.5t-94.5 75.5t-44.5 117t-11.5 165v293h-289v117h289v362h-295v178h94q241 16 238 361h203q0 -146 -42 -243.5t-112 -117.5h496z" />
    <glyph glyph-name="Utilde" unicode="&#x168;" horiz-adv-x="1589" 
d="M795 -20q-338 0 -485.5 146.5t-147.5 471.5v1094h215v-1110q0 -99 18 -171.5t51 -119.5t86 -75t115.5 -39t147.5 -11q107 0 180 18.5t128.5 64t82 128t26.5 205.5v1110h215v-1094q0 -329 -147.5 -473.5t-484.5 -144.5zM375 1827q0 107 61 165t170 58q55 0 98.5 -16
t72 -38.5t55.5 -45t62.5 -38.5t78.5 -16q67 0 102 36.5t35 101.5h102q0 -111 -63.5 -168.5t-175.5 -57.5q-58 0 -103.5 16t-74.5 38.5t-55 45t-59 38.5t-73 16q-65 0 -98 -37.5t-33 -97.5h-102z" />
    <glyph glyph-name="utilde" unicode="&#x169;" 
d="M1006 0v219q-59 -105 -162 -172t-258 -67q-212 0 -328.5 131t-116.5 368v852h207v-831q0 -344 305 -344q84 0 149 26t102.5 64.5t61.5 90.5t32 96.5t8 88.5v809h204v-1331h-204zM242 1466q0 107 61 165.5t170 58.5q55 0 98.5 -16t72 -38.5t55.5 -45t62.5 -38.5t78.5 -16
q68 0 102.5 36t34.5 101h102q0 -110 -63 -167.5t-176 -57.5q-58 0 -103.5 16t-74.5 38.5t-55 45t-59 38.5t-73 16q-65 0 -98 -38t-33 -98h-102z" />
    <glyph glyph-name="Umacron" unicode="&#x16a;" horiz-adv-x="1589" 
d="M795 -20q-338 0 -485.5 146.5t-147.5 471.5v1094h215v-1110q0 -99 18 -171.5t51 -119.5t86 -75t115.5 -39t147.5 -11q107 0 180 18.5t128.5 64t82 128t26.5 205.5v1110h215v-1094q0 -329 -147.5 -473.5t-484.5 -144.5zM330 1888v82h930v-82h-930z" />
    <glyph glyph-name="umacron" unicode="&#x16b;" 
d="M1006 0v219q-59 -105 -162 -172t-258 -67q-212 0 -328.5 131t-116.5 368v852h207v-831q0 -344 305 -344q84 0 149 26t102.5 64.5t61.5 90.5t32 96.5t8 88.5v809h204v-1331h-204zM195 1528v82h929v-82h-929z" />
    <glyph glyph-name="Ubreve" unicode="&#x16c;" horiz-adv-x="1589" 
d="M795 -20q-338 0 -485.5 146.5t-147.5 471.5v1094h215v-1110q0 -99 18 -171.5t51 -119.5t86 -75t115.5 -39t147.5 -11q107 0 180 18.5t128.5 64t82 128t26.5 205.5v1110h215v-1094q0 -329 -147.5 -473.5t-484.5 -144.5zM369 2050h102q0 -42 24.5 -72t71 -45.5t102 -22.5
t128.5 -7t127.5 6.5t99.5 22.5t68.5 45.5t23.5 72.5h103q0 -67 -30 -114t-88 -73t-131.5 -37t-172.5 -11t-173 11t-133.5 37t-90.5 73t-31 114z" />
    <glyph glyph-name="ubreve" unicode="&#x16d;" 
d="M1006 0v219q-59 -105 -162 -172t-258 -67q-212 0 -328.5 131t-116.5 368v852h207v-831q0 -344 305 -344q84 0 149 26t102.5 64.5t61.5 90.5t32 96.5t8 88.5v809h204v-1331h-204zM236 1690h102q0 -42 24.5 -72t71 -46t102 -23t128.5 -7q72 0 127 7t100 23t68.5 45.5
t23.5 72.5h102q0 -67 -30 -114t-87.5 -73t-131 -37.5t-172.5 -11.5t-173.5 11.5t-133.5 37.5t-90 73t-31 114z" />
    <glyph glyph-name="Uring" unicode="&#x16e;" horiz-adv-x="1589" 
d="M795 -20q-338 0 -485.5 146.5t-147.5 471.5v1094h215v-1110q0 -99 18 -171.5t51 -119.5t86 -75t115.5 -39t147.5 -11q107 0 180 18.5t128.5 64t82 128t26.5 205.5v1110h215v-1094q0 -329 -147.5 -473.5t-484.5 -144.5zM629 1950q0 71 49.5 118.5t116.5 47.5t116.5 -47.5
t49.5 -118.5t-49.5 -118.5t-116.5 -47.5t-116.5 47.5t-49.5 118.5zM715 1950q0 -37 21 -58.5t59 -21.5t58.5 21.5t20.5 58.5t-20.5 58.5t-58.5 21.5t-59 -21.5t-21 -58.5z" />
    <glyph glyph-name="uring" unicode="&#x16f;" 
d="M1006 0v219q-59 -105 -162 -172t-258 -67q-212 0 -328.5 131t-116.5 368v852h207v-831q0 -344 305 -344q84 0 149 26t102.5 64.5t61.5 90.5t32 96.5t8 88.5v809h204v-1331h-204zM496 1589q0 71 49.5 118.5t116.5 47.5t116 -47.5t49 -118.5t-49 -118.5t-116 -47.5
t-116.5 47.5t-49.5 118.5zM582 1589q0 -37 21 -58.5t59 -21.5t58.5 21.5t20.5 58.5t-20.5 58.5t-58.5 21.5t-59 -21.5t-21 -58.5z" />
    <glyph glyph-name="Uhungarumlaut" unicode="&#x170;" horiz-adv-x="1589" 
d="M795 -20q-338 0 -485.5 146.5t-147.5 471.5v1094h215v-1110q0 -99 18 -171.5t51 -119.5t86 -75t115.5 -39t147.5 -11q107 0 180 18.5t128.5 64t82 128t26.5 205.5v1110h215v-1094q0 -329 -147.5 -473.5t-484.5 -144.5zM598 1815l250 229h125l-230 -229h-145zM856 1815
l250 229h125l-230 -229h-145z" />
    <glyph glyph-name="uhungarumlaut" unicode="&#x171;" 
d="M1006 0v219q-59 -105 -162 -172t-258 -67q-212 0 -328.5 131t-116.5 368v852h207v-831q0 -344 305 -344q84 0 149 26t102.5 64.5t61.5 90.5t32 96.5t8 88.5v809h204v-1331h-204zM465 1454l250 229h125l-230 -229h-145zM723 1454l250 229h125l-230 -229h-145z" />
    <glyph glyph-name="Uogonek" unicode="&#x172;" horiz-adv-x="1589" 
d="M795 -20q-338 0 -485.5 146.5t-147.5 471.5v1094h215v-1110q0 -99 18 -171.5t51 -119.5t86 -75t115.5 -39t147.5 -11q107 0 180 18.5t128.5 64t82 128t26.5 205.5v1110h215v-1094q0 -271 -98.5 -415t-316.5 -185q-109 -36 -162 -82t-53 -109t56 -90.5t187 -27.5h19
l-82 -99h-16q-126 0 -202.5 46.5t-76.5 134.5q0 142 186 211q-25 -2 -73 -2z" />
    <glyph glyph-name="uogonek" unicode="&#x173;" 
d="M1006 0v219q-59 -105 -162 -172t-258 -67q-212 0 -328.5 131t-116.5 368v852h207v-831q0 -344 305 -344q84 0 149 26t102.5 64.5t61.5 90.5t32 96.5t8 88.5v809h204v-1331h2q-114 -36 -168.5 -82t-54.5 -111q0 -63 56 -90.5t188 -27.5h18l-82 -99h-16q-126 0 -202.5 46.5
t-76.5 134.5q0 48 20 87t57.5 65.5t76.5 44t90 32.5h-112z" />
    <glyph glyph-name="Wcircumflex" unicode="&#x174;" horiz-adv-x="2275" 
d="M487 0l-444 1692h219l365 -1442l374 1442h273l375 -1432l4 -12l2 10l358 1434h221l-444 -1692h-277l-370 1417l-4 17l-4 -17l-373 -1417h-275zM776 1829l293 256h143l287 -256h-156l-202 184l-211 -184h-154z" />
    <glyph glyph-name="wcircumflex" unicode="&#x175;" horiz-adv-x="1910" 
d="M594 1468l293 256h143l287 -256h-156l-203 185l-210 -185h-154zM41 1331h207l280 -1149l289 1149h277l290 -1145l281 1145h207l-350 -1331h-262l-304 1169l-305 -1169h-260z" />
    <glyph glyph-name="Ycircumflex" unicode="&#x176;" horiz-adv-x="1435" 
d="M610 0v592l-600 1100h242l465 -875l465 875h241l-600 -1100v-592h-213zM356 1829l293 256h144l286 -256h-155l-203 184l-211 -184h-154z" />
    <glyph glyph-name="ycircumflex" unicode="&#x177;" horiz-adv-x="1363" 
d="M1006 23v196q-59 -105 -162 -172t-258 -67q-212 0 -328.5 131t-116.5 368v852h207v-831q0 -344 305 -344q84 0 149 26t102.5 64.5t61.5 90.5t32 96.5t8 88.5v809h204v-1315q0 -250 -97 -364.5t-316 -114.5h-625v178h596q133 0 185.5 67.5t52.5 240.5zM315 1468l293 256
h144l286 -256h-155l-203 185l-211 -185h-154z" />
    <glyph glyph-name="Ydieresis" unicode="&#x178;" horiz-adv-x="1435" 
d="M610 0v592l-600 1100h242l465 -875l465 875h241l-600 -1100v-592h-213zM365 1929q0 55 33 85t85 30q49 0 84 -30.5t35 -84.5q0 -50 -35.5 -80t-83.5 -30q-51 0 -84.5 29.5t-33.5 80.5zM831 1929q0 55 34.5 85t86.5 30q49 0 84 -30.5t35 -84.5q0 -50 -35.5 -80t-83.5 -30
q-52 0 -86.5 29.5t-34.5 80.5z" />
    <glyph glyph-name="Zacute" unicode="&#x179;" horiz-adv-x="1343" 
d="M82 0v188l924 1317h-924v187h1180v-189l-924 -1317h924v-186h-1180zM246 1919l829 152l19 -80l-830 -152z" />
    <glyph glyph-name="zacute" unicode="&#x17a;" horiz-adv-x="1185" 
d="M78 1331h1030v-178l-791 -975h797v-178h-1042v178l788 975h-782v178zM168 1559l829 151l19 -80l-830 -151z" />
    <glyph glyph-name="Zdotaccent" unicode="&#x17b;" horiz-adv-x="1343" 
d="M82 0v188l924 1317h-924v187h1180v-189l-924 -1317h924v-186h-1180zM547 1925q0 49 33.5 82t91.5 33t91.5 -33t33.5 -82q0 -47 -33.5 -80t-91.5 -33t-91.5 33t-33.5 80z" />
    <glyph glyph-name="zdotaccent" unicode="&#x17c;" horiz-adv-x="1185" 
d="M78 1331h1030v-178l-791 -975h797v-178h-1042v178l788 975h-782v178zM455 1593q0 54 35.5 86.5t101.5 32.5t102.5 -32.5t36.5 -86.5q0 -49 -37 -81.5t-102 -32.5t-101 32.5t-36 81.5z" />
    <glyph glyph-name="Zcaron" unicode="&#x17d;" horiz-adv-x="1343" 
d="M82 0v188l924 1317h-924v187h1180v-189l-924 -1317h924v-186h-1180zM256 2071h168l250 -191l244 191h167l-340 -256h-143z" />
    <glyph glyph-name="zcaron" unicode="&#x17e;" horiz-adv-x="1185" 
d="M78 1331h1030v-178l-791 -975h797v-178h-1042v178l788 975h-782v178zM178 1710h168l250 -190l244 190h168l-340 -256h-144z" />
    <glyph glyph-name="uni0218" unicode="&#x218;" horiz-adv-x="1456" 
d="M754 -20q-668 0 -668 559v59h219v-80q0 -185 110 -268.5t345 -83.5q196 0 287.5 62.5t91.5 201.5v21q0 69 -18.5 117t-61 81t-92 53t-129.5 41l-316 97q-69 22 -123 46.5t-105.5 61t-85 81t-53.5 106t-20 135.5q0 214 150.5 328t433.5 114q297 0 452.5 -128t155.5 -370
v-51h-219v60q0 159 -94 232t-295 73q-365 0 -365 -240v-14q0 -57 21 -101t62.5 -74t88 -49.5t111.5 -37.5l321 -97q74 -22 129 -45.5t109 -61t88 -84.5t55 -115t21 -154q0 -242 -147.5 -358.5t-458.5 -116.5zM653 -172q0 42 29 71t74 29q47 0 74.5 -30.5t27.5 -90.5
q0 -71 -45 -134.5t-133 -106.5v84q102 39 125 119q-26 -33 -66 -33q-35 0 -60.5 25.5t-25.5 66.5z" />
    <glyph glyph-name="uni0219" unicode="&#x219;" horiz-adv-x="1261" 
d="M846 729q181 -51 255.5 -137.5t74.5 -222.5q0 -86 -27 -154.5t-86 -122.5t-161.5 -83t-244.5 -29q-307 0 -443 115t-136 335v47h211v-47q0 -147 87 -210.5t279 -63.5q162 0 237 50t75 150q0 77 -52.5 127.5t-177.5 89.5l-295 89q-172 42 -248.5 123t-76.5 208
q0 76 28 139t85.5 113t155 78.5t226.5 28.5q539 0 539 -420v-39h-211v37q0 132 -81.5 189t-246.5 57q-127 0 -205.5 -43.5t-78.5 -128.5q0 -64 44 -104.5t150 -72.5zM547 -172q0 42 28.5 71t73.5 29q47 0 75 -30.5t28 -90.5q0 -71 -45.5 -134.5t-133.5 -106.5v84
q102 39 125 119q-26 -33 -65 -33q-35 0 -60.5 25.5t-25.5 66.5z" />
    <glyph glyph-name="uni021A" unicode="&#x21a;" horiz-adv-x="1339" 
d="M563 0v1505h-524v187h1264v-187h-527v-1505h-213zM567 -172q0 42 29 71t74 29q47 0 74.5 -30.5t27.5 -90.5q0 -71 -45 -134.5t-133 -106.5v84q102 39 125 119q-26 -33 -66 -33q-35 0 -60.5 25.5t-25.5 66.5z" />
    <glyph glyph-name="uni021B" unicode="&#x21b;" horiz-adv-x="972" 
d="M897 1331v-178h-377v-733q0 -148 29.5 -195t128.5 -47h219v-178h-272q-97 0 -159 23.5t-94.5 75.5t-44.5 117t-12 165v772h-295v178h95q127 9 183 101t54 260h203q0 -146 -42 -243.5t-112 -117.5h496zM532 -152q0 42 29 71.5t74 29.5q47 0 74.5 -30.5t27.5 -90.5
q0 -72 -45 -135.5t-133 -106.5v84q102 39 125 119q-26 -33 -66 -33q-35 0 -60.5 25.5t-25.5 66.5z" />
    <glyph glyph-name="uni0237" unicode="&#x237;" horiz-adv-x="516" 
d="M156 -8v1339h204v-1368q0 -163 -39.5 -255.5t-122 -131.5t-225.5 -39h-200v178h157q94 0 140.5 23t66 80.5t19.5 173.5z" />
    <glyph glyph-name="circumflex" unicode="&#x2c6;" horiz-adv-x="1132" 
d="M205 1468l293 256h143l287 -256h-156l-203 185l-211 -185h-153z" />
    <glyph glyph-name="caron" unicode="&#x2c7;" horiz-adv-x="1239" 
d="M551 1454l-346 256h168l250 -190l243 190h168l-340 -256h-143z" />
    <glyph glyph-name="breve" unicode="&#x2d8;" horiz-adv-x="1259" 
d="M633 1454q-99 0 -173.5 11.5t-133.5 37.5t-90 73t-31 114h102q0 -42 24.5 -72t71 -46t102 -23t128.5 -7q72 0 127 7t100 23t68.5 45.5t23.5 72.5h103q0 -67 -30 -114t-88 -73t-131.5 -37.5t-172.5 -11.5z" />
    <glyph glyph-name="dotaccent" unicode="&#x2d9;" horiz-adv-x="688" 
d="M342 1479q-65 0 -101 32.5t-36 81.5q0 54 35.5 86.5t101.5 32.5t102.5 -32.5t36.5 -86.5q0 -49 -37 -81.5t-102 -32.5z" />
    <glyph glyph-name="ring" unicode="&#x2da;" horiz-adv-x="741" 
d="M371 1423q-67 0 -116.5 47.5t-49.5 118.5t49.5 118.5t116.5 47.5t116.5 -47.5t49.5 -118.5t-49.5 -118.5t-116.5 -47.5zM291 1589q0 -37 21 -58.5t59 -21.5t59 21.5t21 58.5t-21 58.5t-59 21.5t-59 -21.5t-21 -58.5z" />
    <glyph glyph-name="ogonek" unicode="&#x2db;" horiz-adv-x="776" 
d="M481 -410q-126 0 -202 46.5t-76 134.5q0 48 20 87t57 65.5t76 44t90 32.5h95q-115 -36 -169.5 -82t-54.5 -111q0 -63 56 -90.5t188 -27.5h19l-82 -99h-17z" />
    <glyph glyph-name="tilde" unicode="&#x2dc;" horiz-adv-x="1247" 
d="M205 1466q0 107 61 165.5t170 58.5q55 0 98.5 -16t72 -38.5t55.5 -45t62.5 -38.5t78.5 -16q68 0 102.5 36t34.5 101h102q0 -110 -63 -167.5t-176 -57.5q-58 0 -103.5 16t-74.5 38.5t-55 45t-59 38.5t-73 16q-65 0 -98 -38t-33 -98h-102z" />
    <glyph glyph-name="hungarumlaut" unicode="&#x2dd;" horiz-adv-x="1042" 
d="M608 1454h-145l250 229h125zM205 1454l250 229h125l-230 -229h-145z" />
    <glyph glyph-name="uni1E20" unicode="&#x1e20;" horiz-adv-x="1626" 
d="M786 -20q-162 0 -291.5 55.5t-213 153.5t-128 230t-44.5 288v278q0 156 44 287.5t129.5 230t221.5 154t309 55.5q153 0 278.5 -45t210.5 -125t134 -187.5t57 -234.5l2 -82h-223l-2 103q-10 181 -132 282t-323 101q-244 0 -365.5 -140.5t-121.5 -379.5v-314
q0 -241 119.5 -381.5t351.5 -140.5q209 0 334 110.5t137 313.5v96h-570v176h795v-864h-139l-25 272q-76 -136 -213 -214t-332 -78zM348 1888v82h930v-82h-930z" />
    <glyph glyph-name="uni1E21" unicode="&#x1e21;" horiz-adv-x="1386" 
d="M1028 43v154q-22 -39 -55.5 -74t-83 -69t-120.5 -54t-153 -20q-242 0 -381 155.5t-139 413.5v237q0 257 139 411.5t379 154.5q81 0 151 -19t120 -52.5t83.5 -66.5t59.5 -71v188h205v-1308q0 -128 -20.5 -216t-70 -150t-132.5 -91t-207 -29h-639v178h610q149 0 201.5 71
t52.5 257zM190 1528v82h930v-82h-930zM307 557q0 -179 91.5 -289t267.5 -110q173 0 267.5 109.5t94.5 287.5v221q0 178 -94 288t-270 110t-266.5 -110t-90.5 -290v-217z" />
    <glyph glyph-name="Wgrave" unicode="&#x1e80;" horiz-adv-x="2275" 
d="M487 0l-444 1692h219l365 -1442l374 1442h273l375 -1432l4 -12l2 10l358 1434h221l-444 -1692h-277l-370 1417l-4 17l-4 -17l-373 -1417h-275zM672 1964l20 80l910 -152l-21 -80z" />
    <glyph glyph-name="wgrave" unicode="&#x1e81;" horiz-adv-x="1910" 
d="M1419 1532l-20 -80l-910 152l21 79zM41 1331h207l280 -1149l289 1149h277l290 -1145l281 1145h207l-350 -1331h-262l-304 1169l-305 -1169h-260z" />
    <glyph glyph-name="Wacute" unicode="&#x1e82;" horiz-adv-x="2275" 
d="M487 0l-444 1692h219l365 -1442l374 1442h273l375 -1432l4 -12l2 10l358 1434h221l-444 -1692h-277l-370 1417l-4 17l-4 -17l-373 -1417h-275zM713 1919l829 152l19 -80l-830 -152z" />
    <glyph glyph-name="wacute" unicode="&#x1e83;" horiz-adv-x="1910" 
d="M549 1479l-19 80l830 151l18 -80zM41 1331h207l280 -1149l289 1149h277l290 -1145l281 1145h207l-350 -1331h-262l-304 1169l-305 -1169h-260z" />
    <glyph glyph-name="Wdieresis" unicode="&#x1e84;" horiz-adv-x="2275" 
d="M487 0l-444 1692h219l365 -1442l374 1442h273l375 -1432l4 -12l2 10l358 1434h221l-444 -1692h-277l-370 1417l-4 17l-4 -17l-373 -1417h-275zM784 1929q0 55 33.5 85t85.5 30q49 0 84 -30.5t35 -84.5q0 -50 -35.5 -80t-83.5 -30q-51 0 -85 29.5t-34 80.5zM1251 1929
q0 55 34.5 85t86.5 30q49 0 84 -30.5t35 -84.5q0 -50 -35.5 -80t-83.5 -30q-52 0 -86.5 29.5t-34.5 80.5z" />
    <glyph glyph-name="wdieresis" unicode="&#x1e85;" horiz-adv-x="1910" 
d="M1190 1458q-51 0 -86 30t-35 81q0 55 34.5 84.5t86.5 29.5q49 0 84 -30t35 -84q0 -50 -35.5 -80.5t-83.5 -30.5zM41 1331h207l280 -1149l289 1149h277l290 -1145l281 1145h207l-350 -1331h-262l-304 1169l-305 -1169h-260zM602 1569q0 55 33.5 84.5t85.5 29.5
q49 0 84 -30t35 -84q0 -50 -35.5 -80.5t-83.5 -30.5q-51 0 -85 30t-34 81z" />
    <glyph glyph-name="uni1E9E" unicode="&#x1e9e;" horiz-adv-x="1427" 
d="M166 1266q0 220 132 323t415 103h594q-36 -261 -73.5 -402t-92 -213.5t-144.5 -99.5q316 -64 316 -442v-50q0 -132 -35.5 -226.5t-103 -150.5t-158 -82t-209.5 -26h-309v176h243q199 0 281 67t82 251v65q0 79 -15.5 133.5t-56 99.5t-117.5 67t-192 22h-225v176h211
q69 0 116 7t85.5 29.5t62.5 51.5t47 86.5t39 119.5t37 165h-383q-183 0 -262.5 -57t-79.5 -191v-1268h-205v1266z" />
    <glyph glyph-name="uni1EBC" unicode="&#x1ebc;" horiz-adv-x="1357" 
d="M176 0v1692h1071v-187h-858v-565h813v-188h-813v-566h858v-186h-1071zM293 1827q0 107 61 165t170 58q55 0 98.5 -16t72 -38.5t55.5 -45t62.5 -38.5t78.5 -16q67 0 102 36.5t35 101.5h102q0 -111 -63.5 -168.5t-175.5 -57.5q-58 0 -103.5 16t-74.5 38.5t-55 45t-59 38.5
t-73 16q-65 0 -98 -37.5t-33 -97.5h-102z" />
    <glyph glyph-name="uni1EBD" unicode="&#x1ebd;" horiz-adv-x="1323" 
d="M246 1466q0 107 61 165.5t170 58.5q55 0 98.5 -16t72 -38.5t55.5 -45t62.5 -38.5t78.5 -16q68 0 102.5 36t34.5 101h102q0 -110 -63 -167.5t-176 -57.5q-58 0 -103.5 16t-74.5 38.5t-55 45t-59 38.5t-73 16q-65 0 -98 -38t-33 -98h-102zM94 578v178q0 282 147.5 439
t432.5 157q265 0 410 -148t145 -436v-143h-922v-64q0 -197 92 -300t275 -103q148 0 228.5 65.5t92.5 184.5l2 34h220l-3 -20q-19 -204 -156 -323t-384 -119q-285 0 -432.5 157t-147.5 441zM307 780h709v64q-17 330 -346 330q-178 0 -269 -100t-94 -294z" />
    <glyph glyph-name="Ygrave" unicode="&#x1ef2;" horiz-adv-x="1435" 
d="M610 0v592l-600 1100h242l465 -875l465 875h241l-600 -1100v-592h-213zM252 1964l20 80l910 -152l-21 -80z" />
    <glyph glyph-name="ygrave" unicode="&#x1ef3;" horiz-adv-x="1363" 
d="M1006 23v196q-59 -105 -162 -172t-258 -67q-212 0 -328.5 131t-116.5 368v852h207v-831q0 -344 305 -344q84 0 149 26t102.5 64.5t61.5 90.5t32 96.5t8 88.5v809h204v-1315q0 -250 -97 -364.5t-316 -114.5h-625v178h596q133 0 185.5 67.5t52.5 240.5zM211 1604l20 79
l910 -151l-21 -80z" />
    <glyph glyph-name="uni1EF8" unicode="&#x1ef8;" horiz-adv-x="1435" 
d="M610 0v592l-600 1100h242l465 -875l465 875h241l-600 -1100v-592h-213zM299 1827q0 107 61 165t170 58q55 0 98.5 -16t72 -38.5t55.5 -45t62.5 -38.5t78.5 -16q67 0 102 36.5t35 101.5h103q0 -110 -63.5 -168t-176.5 -58q-58 0 -103.5 16t-74.5 38.5t-55 45t-59 38.5
t-73 16q-65 0 -98 -37.5t-33 -97.5h-102z" />
    <glyph glyph-name="uni1EF9" unicode="&#x1ef9;" horiz-adv-x="1363" 
d="M1006 23v196q-59 -105 -162 -172t-258 -67q-212 0 -328.5 131t-116.5 368v852h207v-831q0 -344 305 -344q84 0 149 26t102.5 64.5t61.5 90.5t32 96.5t8 88.5v809h204v-1315q0 -250 -97 -364.5t-316 -114.5h-625v178h596q133 0 185.5 67.5t52.5 240.5zM258 1466
q0 107 61 165.5t170 58.5q55 0 98.5 -16t72 -38.5t55.5 -45t62.5 -38.5t78.5 -16q68 0 102.5 36t34.5 101h103q0 -110 -63.5 -167.5t-176.5 -57.5q-58 0 -103.5 16t-74 38.5t-54.5 45t-59 38.5t-73 16q-65 0 -98.5 -38t-33.5 -98h-102z" />
    <glyph glyph-name="uni2000" unicode="&#x2000;" horiz-adv-x="1024" 
 />
    <glyph glyph-name="uni2001" unicode="&#x2001;" horiz-adv-x="2048" 
 />
    <glyph glyph-name="uni2002" unicode="&#x2002;" horiz-adv-x="1024" 
 />
    <glyph glyph-name="uni2003" unicode="&#x2003;" horiz-adv-x="2048" 
 />
    <glyph glyph-name="uni2004" unicode="&#x2004;" horiz-adv-x="681" 
 />
    <glyph glyph-name="uni2005" unicode="&#x2005;" horiz-adv-x="512" 
 />
    <glyph glyph-name="uni2006" unicode="&#x2006;" horiz-adv-x="342" 
 />
    <glyph glyph-name="uni2007" unicode="&#x2007;" horiz-adv-x="1593" 
 />
    <glyph glyph-name="uni2008" unicode="&#x2008;" horiz-adv-x="483" 
 />
    <glyph glyph-name="uni2009" unicode="&#x2009;" horiz-adv-x="256" 
 />
    <glyph glyph-name="uni200A" unicode="&#x200a;" horiz-adv-x="86" 
 />
    <glyph glyph-name="uni200B" unicode="&#x200b;" horiz-adv-x="0" 
 />
    <glyph glyph-name="endash" unicode="&#x2013;" horiz-adv-x="1761" 
d="M94 723h1573v-90h-1573v90z" />
    <glyph glyph-name="emdash" unicode="&#x2014;" horiz-adv-x="2902" 
d="M94 723h2714v-92h-2714v92z" />
    <glyph glyph-name="quoteleft" unicode="&#x2018;" horiz-adv-x="395" 
d="M219 1200h-129l121 512h108z" />
    <glyph glyph-name="quoteright" unicode="&#x2019;" horiz-adv-x="391" 
d="M195 1712h129l-121 -512h-109z" />
    <glyph glyph-name="quotesinglbase" unicode="&#x201a;" horiz-adv-x="391" 
d="M152 268h129l-121 -512h-109z" />
    <glyph glyph-name="quotedblleft" unicode="&#x201c;" horiz-adv-x="620" 
d="M444 1200h-129l121 512h109zM90 1200l121 512h108l-100 -512h-129z" />
    <glyph glyph-name="quotedblright" unicode="&#x201d;" horiz-adv-x="616" 
d="M195 1712h129l-121 -512h-109zM322 1200l100 512h129l-121 -512h-108z" />
    <glyph glyph-name="quotedblbase" unicode="&#x201e;" horiz-adv-x="618" 
d="M152 268h129l-121 -512h-109zM279 -244l100 512h129l-121 -512h-108z" />
    <glyph glyph-name="dagger" unicode="&#x2020;" horiz-adv-x="569" 
d="M233 655v625h-116v94h116v318h103v-318h117v-94h-117v-625h-103z" />
    <glyph glyph-name="daggerdbl" unicode="&#x2021;" horiz-adv-x="604" 
d="M252 655v297h-117v95h117v233h-117v94h117v318h102v-318h117v-94h-117v-233h117v-95h-117v-297h-102z" />
    <glyph glyph-name="bullet" unicode="&#x2022;" horiz-adv-x="833" 
d="M416 467q-102 0 -172 67t-70 175q0 110 69.5 176.5t172.5 66.5t174.5 -67t71.5 -176q0 -107 -71.5 -174.5t-174.5 -67.5z" />
    <glyph glyph-name="ellipsis" unicode="&#x2026;" horiz-adv-x="1277" 
d="M242 -20q-60 0 -101 39t-41 102q0 64 41 103.5t101 39.5t101.5 -39.5t41.5 -103.5q0 -63 -41.5 -102t-101.5 -39zM500 121q0 64 40.5 103.5t100.5 39.5t101.5 -39.5t41.5 -103.5q0 -63 -41.5 -102t-101.5 -39t-100.5 39t-40.5 102zM895 121q0 64 40.5 103.5t100.5 39.5
t102 -39.5t42 -103.5q0 -63 -42 -102t-102 -39t-100.5 39t-40.5 102z" />
    <glyph glyph-name="uni202F" unicode="&#x202f;" horiz-adv-x="444" 
 />
    <glyph glyph-name="perthousand" unicode="&#x2030;" horiz-adv-x="2508" 
d="M2120 -20q-109 0 -190.5 54t-121 135.5t-39.5 176.5q0 69 23.5 134t66.5 116.5t111 83t150 31.5q108 0 189 -54t120 -135.5t39 -175.5q0 -95 -39 -176.5t-120 -135.5t-189 -54zM55 1346q0 95 38.5 176.5t119.5 135.5t190 54t190 -54t120 -135.5t39 -176.5q0 -69 -23 -134
t-66 -116.5t-110.5 -83t-149.5 -31.5q-109 0 -190 54t-119.5 135.5t-38.5 175.5zM221 1346q0 -95 49 -152t133 -57q83 0 133 57.5t50 151.5q0 95 -50 152.5t-133 57.5q-84 0 -133 -57t-49 -153zM276 0l1037 1692h129l-1039 -1692h-127zM971 346q0 94 39 175.5t120 135.5
t189 54q109 0 190.5 -54t120.5 -135.5t39 -175.5q0 -95 -39 -176.5t-120.5 -135.5t-190.5 -54q-108 0 -189 54t-120 135.5t-39 176.5zM1139 346q0 -95 49 -153t131 -58q84 0 133 58t49 153t-49 152t-133 57q-83 0 -131.5 -57.5t-48.5 -151.5zM1937 346q0 -95 49.5 -153
t133.5 -58q82 0 131 58t49 153q0 94 -48.5 151.5t-131.5 57.5q-84 0 -133.5 -57.5t-49.5 -151.5z" />
    <glyph glyph-name="second" unicode="&#x2033;" horiz-adv-x="620" 
d="M127 1692h129v-512h-129v512zM365 1180v512h129v-512h-129z" />
    <glyph glyph-name="guilsinglleft" unicode="&#x2039;" horiz-adv-x="706" 
d="M559 281l-465 352v86l465 352v-147l-338 -248l338 -248v-147z" />
    <glyph glyph-name="guilsinglright" unicode="&#x203a;" horiz-adv-x="706" 
d="M147 281v147l338 248l-338 248v147l465 -352v-86z" />
    <glyph glyph-name="fraction" unicode="&#x2044;" horiz-adv-x="217" 
d="M664 1692l-1020 -1692h-107l1018 1692h109z" />
    <glyph glyph-name="uni205F" unicode="&#x205f;" horiz-adv-x="454" 
 />
    <glyph glyph-name="uni2070" unicode="&#x2070;" horiz-adv-x="804" 
d="M403 698q-161 0 -248 97.5t-87 271.5v133q0 171 87 268t248 97q160 0 247 -97.5t87 -269.5v-131q0 -173 -87 -271t-247 -98zM209 1053q0 -55 12 -99l320 439q-48 51 -138 51q-194 0 -194 -232v-159zM268 866q50 -47 135 -47q96 0 145.5 59.5t49.5 174.5v159q0 48 -10 93z
" />
    <glyph glyph-name="uni2074" unicode="&#x2074;" horiz-adv-x="751" 
d="M604 1554v-565h98v-121h-98v-159h-137v159h-430v125l434 561h133zM166 989h301v377z" />
    <glyph glyph-name="uni2075" unicode="&#x2075;" horiz-adv-x="772" 
d="M434 1276q131 0 205 -66t74 -198v-39q0 -135 -83.5 -205t-238.5 -70q-157 0 -241 67t-84 198v12h141v-23q0 -133 186 -133q178 0 178 139v58q0 143 -176 143q-125 0 -186 -98h-133l30 493h570v-118h-447l-18 -250q84 90 223 90z" />
    <glyph glyph-name="uni2076" unicode="&#x2076;" horiz-adv-x="788" 
d="M397 698q-164 0 -243.5 76t-79.5 234v206q0 179 80 265t252 86q148 0 221 -62.5t73 -177.5v-6h-139v6q0 115 -153 115q-97 0 -145 -41.5t-48 -130.5v-66q74 80 215 80q139 0 216 -69.5t77 -196.5v-43q0 -136 -82 -205.5t-244 -69.5zM215 963q0 -76 44.5 -110t139.5 -34
q94 0 139.5 34t45.5 108v57q0 74 -44 108.5t-134 34.5q-191 0 -191 -141v-57z" />
    <glyph glyph-name="uni2077" unicode="&#x2077;" horiz-adv-x="673" 
d="M27 1436v118h610v-118q-69 -53 -121.5 -111.5t-85.5 -120t-54.5 -119.5t-31 -125.5t-13 -119.5t-3.5 -119v-12h-140v12q0 80 5 144t23 147.5t48.5 152t87 141t133.5 130.5h-458z" />
    <glyph glyph-name="uni2078" unicode="&#x2078;" horiz-adv-x="782" 
d="M391 698q-325 0 -325 238v18q0 85 37.5 138t103.5 71q-58 16 -91.5 60t-33.5 112v17q0 102 79.5 157.5t231.5 55.5q150 0 227.5 -55t77.5 -158v-17q0 -69 -33.5 -112.5t-89.5 -59.5q66 -18 104 -70.5t38 -138.5v-18q0 -238 -326 -238zM207 938q0 -69 42 -97t142 -28
q99 0 141.5 28.5t42.5 98.5v37q0 67 -43 95t-141 28t-141 -27.5t-43 -95.5v-39zM223 1319q0 -53 41 -76.5t127 -23.5q85 0 126 23.5t42 76.5v31q-2 53 -41.5 76.5t-126.5 23.5q-89 0 -128.5 -23t-39.5 -77v-31z" />
    <glyph glyph-name="uni2079" unicode="&#x2079;" horiz-adv-x="786" 
d="M389 1565q166 0 245 -75.5t79 -232.5v-206q0 -180 -79.5 -266.5t-250.5 -86.5q-149 0 -222 62.5t-73 177.5v6h139v-6q0 -115 154 -115q96 0 144 41.5t48 130.5v68q-73 -82 -217 -82q-137 0 -215 69.5t-78 196.5v43q0 135 82.5 205t243.5 70zM205 1245q0 -73 43.5 -108
t134.5 -35q190 0 190 141v57q0 75 -45 109.5t-139 34.5q-95 0 -139.5 -33.5t-44.5 -107.5v-58z" />
    <glyph glyph-name="uni2080" unicode="&#x2080;" horiz-adv-x="804" 
d="M403 -266q-161 0 -248 97.5t-87 270.5v134q0 171 87 267.5t248 96.5q160 0 247 -97.5t87 -269.5v-131q0 -173 -87 -270.5t-247 -97.5zM209 88q0 -54 12 -98l320 438q-48 51 -138 51q-194 0 -194 -231v-160zM268 -98q50 -47 135 -47q96 0 145.5 59.5t49.5 173.5v160
q0 47 -10 92z" />
    <glyph glyph-name="uni2081" unicode="&#x2081;" horiz-adv-x="624" 
d="M66 -137h198v575q-82 -63 -201 -63v127q141 0 211 88h127v-727h201v-119h-536v119z" />
    <glyph glyph-name="uni2082" unicode="&#x2082;" horiz-adv-x="782" 
d="M68 -127q0 57 10.5 101t36 85t74 71t118.5 48l113 31q82 21 118.5 53t36.5 94v9q0 60 -42.5 87t-131.5 27q-99 0 -142.5 -36.5t-43.5 -116.5v-27h-139v20q0 281 323 281q156 0 237 -62.5t81 -185.5q0 -197 -221 -254l-121 -35q-57 -14 -91 -30.5t-51 -42.5t-21.5 -53
t-4.5 -74h508v-119h-647v129z" />
    <glyph glyph-name="uni2083" unicode="&#x2083;" horiz-adv-x="770" 
d="M381 -266q-165 0 -244 63.5t-82 200.5v16h140v-22q3 -79 47 -110.5t137 -31.5q100 0 142 29.5t42 91.5v31q0 66 -44.5 91.5t-133.5 25.5h-111v114h111q83 0 125.5 24.5t42.5 84.5v27q0 59 -42.5 86.5t-129.5 27.5q-86 0 -128.5 -30t-43.5 -103v-20h-139v14
q4 132 81.5 194t231.5 62q160 0 234.5 -63t74.5 -164v-11q2 -67 -31.5 -117t-95.5 -67q66 -17 101.5 -67.5t35.5 -124.5v-13q0 -119 -78 -179t-243 -60z" />
    <glyph glyph-name="uni2084" unicode="&#x2084;" horiz-adv-x="753" 
d="M606 590v-565h99v-121h-99v-160h-137v160h-430v125l434 561h133zM168 25h301v376z" />
    <glyph glyph-name="uni2085" unicode="&#x2085;" horiz-adv-x="772" 
d="M434 311q131 0 205 -66t74 -198v-39q0 -135 -83.5 -204.5t-238.5 -69.5q-157 0 -241 66.5t-84 197.5v12h141v-22q0 -133 186 -133q178 0 178 139v57q0 144 -176 144q-124 0 -186 -99h-133l30 494h570v-119h-447l-18 -250q84 90 223 90z" />
    <glyph glyph-name="uni2086" unicode="&#x2086;" horiz-adv-x="788" 
d="M397 -266q-165 0 -244 75.5t-79 233.5v207q0 178 80 264t252 86q148 0 221 -62.5t73 -177.5v-6h-139v6q0 115 -153 115q-97 0 -145 -41.5t-48 -130.5v-65q73 79 215 79q139 0 216 -69.5t77 -196.5v-43q0 -274 -326 -274zM215 -2q0 -76 44.5 -109.5t139.5 -33.5
q94 0 139.5 33.5t45.5 107.5v57q0 74 -44 109t-134 35q-191 0 -191 -142v-57z" />
    <glyph glyph-name="uni2087" unicode="&#x2087;" horiz-adv-x="671" 
d="M25 471v119h610v-119q-69 -53 -121.5 -111.5t-85.5 -120t-54.5 -119.5t-31 -125.5t-13 -119.5t-3.5 -119v-12h-140v12q0 80 5 144t23 147.5t48.5 152t87 141t133.5 130.5h-458z" />
    <glyph glyph-name="uni2088" unicode="&#x2088;" horiz-adv-x="782" 
d="M391 -266q-325 0 -325 237v19q0 85 37.5 138t103.5 71q-58 16 -91.5 60t-33.5 112v16q0 102 79.5 157.5t231.5 55.5q150 0 227.5 -55t77.5 -158v-16q0 -69 -33.5 -112.5t-89.5 -59.5q66 -18 104 -70.5t38 -138.5v-19q0 -237 -326 -237zM207 -27q0 -69 42 -97t142 -28
q99 0 141.5 28.5t42.5 98.5v37q0 67 -43 95t-141 28t-141 -27.5t-43 -95.5v-39zM223 354q0 -53 41 -76.5t127 -23.5q85 0 126 23.5t42 76.5v31q-2 53 -41.5 76.5t-126.5 23.5q-89 0 -128.5 -23t-39.5 -77v-31z" />
    <glyph glyph-name="uni2089" unicode="&#x2089;" horiz-adv-x="788" 
d="M389 600q166 0 245 -75t79 -232v-207q0 -180 -79.5 -266t-250.5 -86q-149 0 -222 62t-73 177v7h139v-7q0 -114 154 -114q96 0 144 41.5t48 130.5v67q-73 -82 -217 -82q-137 0 -215 70t-78 197v43q0 135 82.5 204.5t243.5 69.5zM205 281q0 -73 43.5 -108.5t134.5 -35.5
q190 0 190 142v57q0 75 -45 109t-139 34q-95 0 -139.5 -33.5t-44.5 -107.5v-57z" />
    <glyph glyph-name="Euro" unicode="&#x20ac;" horiz-adv-x="1667" 
d="M111 713v84h155v98h-155v84h155v6q0 157 41 288t120.5 229.5t206 154t288.5 55.5q147 0 264.5 -46.5t194 -129t119.5 -193t50 -241.5l2 -109h-223l-2 129q-9 185 -113 293.5t-290 108.5q-220 0 -328.5 -140t-108.5 -380v-25h566v-84h-566v-98h566v-84h-566v-23
q0 -243 108 -382.5t327 -139.5q191 0 293.5 108.5t111.5 296.5l2 127h223l-2 -106q-7 -132 -50 -243t-119 -194.5t-194 -130t-265 -46.5q-163 0 -289.5 55.5t-206 154.5t-120 231t-40.5 290v2h-155z" />
    <glyph glyph-name="trademark" unicode="&#x2122;" horiz-adv-x="1558" 
d="M664 874v818h163l209 -605l211 605h160v-818h-137v541l-187 -541h-94l-188 543v-543h-137zM59 1554v138h557v-138h-210v-680h-138v680h-209z" />
    <glyph glyph-name="oneeighth" unicode="&#x215b;" horiz-adv-x="1931" 
d="M88 965h199v575q-82 -63 -201 -63v127q141 0 211 88h127v-727h201v-119h-537v119zM334 0l1020 1692h106l-1018 -1692h-108zM1217 227v19q0 85 37.5 138t103.5 71q-58 16 -91.5 60t-33.5 112v16q0 102 79.5 157.5t231.5 55.5q150 0 227.5 -55t77.5 -158v-16
q0 -69 -33.5 -112.5t-89.5 -59.5q66 -18 104 -70.5t38 -138.5v-19q0 -237 -326 -237q-325 0 -325 237zM1358 229q0 -69 42 -97t142 -28q99 0 141.5 28.5t42.5 98.5v37q0 67 -43 95t-141 28t-141 -27.5t-43 -95.5v-39zM1374 610q0 -53 41 -76.5t127 -23.5q85 0 126 23.5
t42 76.5v31q-2 53 -41.5 76.5t-126.5 23.5q-89 0 -128.5 -23t-39.5 -77v-31z" />
    <glyph glyph-name="threeeighths" unicode="&#x215c;" horiz-adv-x="2056" 
d="M393 836q-165 0 -243.5 63.5t-81.5 200.5v16h139v-22q3 -79 47 -110.5t137 -31.5q100 0 142 29.5t42 91.5v31q0 66 -44.5 91.5t-133.5 25.5h-110v114h110q83 0 125.5 24.5t42.5 84.5v26q0 59 -42.5 87t-129.5 28q-86 0 -128.5 -30t-43.5 -103v-20h-139v14q4 132 81.5 194
t231.5 62q160 0 235 -63t75 -164v-11q2 -67 -31.5 -117t-95.5 -67q66 -17 101.5 -68t35.5 -125v-12q0 -239 -322 -239zM457 0l1018 1692h108l-1018 -1692h-108zM1337 227v19q0 85 37.5 138t104.5 71q-58 16 -91.5 60t-33.5 112v16q0 102 79.5 157.5t231.5 55.5
q150 0 227.5 -55t77.5 -158v-16q0 -69 -33.5 -112.5t-89.5 -59.5q66 -18 104 -70.5t38 -138.5v-19q0 -237 -326 -237t-326 237zM1479 229q0 -69 42 -97t142 -28q99 0 141.5 28.5t42.5 98.5v37q0 67 -43 95t-141 28t-141 -27.5t-43 -95.5v-39zM1495 610q0 -53 41 -76.5
t127 -23.5q85 0 126 23.5t42 76.5v31q-2 53 -41.5 76.5t-126.5 23.5q-89 0 -128.5 -23t-39.5 -77v-31z" />
    <glyph glyph-name="fiveeighths" unicode="&#x215d;" horiz-adv-x="2043" 
d="M434 1413q131 0 205 -66t74 -198v-39q0 -135 -83.5 -204.5t-238.5 -69.5q-157 0 -241 66.5t-84 197.5v12h141v-22q0 -134 186 -134q178 0 178 140v57q0 143 -176 143q-125 0 -186 -98h-133l30 494h570v-119h-447l-18 -250q84 90 223 90zM446 0l1020 1692h107l-1018 -1692
h-109zM1329 227v19q0 85 37.5 138t103.5 71q-57 16 -90.5 60t-33.5 112v16q0 102 79.5 157.5t231.5 55.5q150 0 227.5 -55t77.5 -158v-16q0 -69 -33.5 -112.5t-89.5 -59.5q66 -18 103.5 -70.5t37.5 -138.5v-19q0 -237 -325 -237q-326 0 -326 237zM1470 229q0 -69 42.5 -97
t142.5 -28q99 0 141.5 28.5t42.5 98.5v37q0 67 -43 95t-141 28q-99 0 -142 -27.5t-43 -95.5v-39zM1487 610q0 -53 41 -76.5t127 -23.5q85 0 126 23.5t42 76.5v31q-2 53 -41.5 76.5t-126.5 23.5q-89 0 -128.5 -23t-39.5 -77v-31z" />
    <glyph glyph-name="seveneighths" unicode="&#x215e;" horiz-adv-x="1959" 
d="M35 1573v119h610v-119q-69 -53 -121.5 -111.5t-85.5 -120t-54.5 -119.5t-31 -125.5t-13 -119.5t-3.5 -119v-12h-139v12q0 80 5 144t23 147.5t48.5 152t87 141t133.5 130.5h-459zM356 0l1020 1692h109l-1020 -1692h-109zM1239 227v19q0 85 37.5 138t103.5 71
q-58 16 -91.5 60t-33.5 112v16q0 102 80 157.5t232 55.5q150 0 227.5 -55t77.5 -158v-16q0 -69 -33.5 -112.5t-89.5 -59.5q66 -18 103.5 -70.5t37.5 -138.5v-19q0 -237 -325 -237q-326 0 -326 237zM1380 229q0 -69 42.5 -97t142.5 -28q99 0 141.5 28.5t42.5 98.5v37
q0 67 -43 95t-141 28q-99 0 -142 -27.5t-43 -95.5v-39zM1397 610q0 -53 41 -76.5t127 -23.5q85 0 126 23.5t42 76.5v31q-2 53 -41.5 76.5t-126.5 23.5q-89 0 -128.5 -23t-39.5 -77v-31z" />
    <glyph glyph-name="arrowleft" unicode="&#x2190;" horiz-adv-x="1304" 
d="M270 633q116 -43 201 -142.5t113 -240.5h-111q-13 88 -74 169t-141 134t-164 80v86q84 27 164 80t141 134t74 169h111q-28 -141 -113 -240.5t-201 -142.5h936v-86h-936z" />
    <glyph glyph-name="arrowup" unicode="&#x2191;" horiz-adv-x="1017" 
d="M551 86h-86v936q-43 -116 -142.5 -200.5t-240.5 -112.5v110q88 13 169 74t134 141t80 164h86q27 -84 80 -164t134 -141t169 -74v-110q-141 28 -240.5 112.5t-142.5 200.5v-936z" />
    <glyph glyph-name="arrowright" unicode="&#x2192;" horiz-adv-x="1304" 
d="M98 633v86h936q-116 43 -200.5 142.5t-112.5 240.5h110q13 -88 74 -169t141 -134t164 -80v-86q-84 -27 -164 -80t-141 -134t-74 -169h-110q28 141 112.5 240.5t200.5 142.5h-936z" />
    <glyph glyph-name="arrowdown" unicode="&#x2193;" horiz-adv-x="1021" 
d="M467 1268h86v-936q43 116 142.5 200.5t240.5 112.5v-110q-88 -13 -169 -74t-134 -141t-80 -164h-86q-27 84 -80 164t-134 141t-169 74v110q141 -28 240.5 -112.5t142.5 -200.5v936z" />
    <glyph glyph-name="arrowboth" unicode="&#x2194;" horiz-adv-x="1677" 
d="M92 727q85 24 165.5 77t141.5 133.5t74 168.5h111q-28 -140 -114 -239.5t-200 -139.5h1137q-114 40 -199.5 139.5t-113.5 239.5h110q13 -88 74 -168.5t141.5 -133.5t165.5 -77v-94q-85 -26 -165.5 -78.5t-141.5 -132.5t-74 -168h-110q28 140 113.5 239.5t199.5 139.5
h-1137q114 -40 200 -139.5t114 -239.5h-111q-13 88 -74 168t-141.5 132.5t-165.5 78.5v94z" />
    <glyph glyph-name="arrowupdn" unicode="&#x2195;" horiz-adv-x="1034" 
d="M565 1391q24 -85 77 -165.5t133.5 -141.5t168.5 -74v-111q-140 28 -239.5 113.5t-139.5 199.5v-1136q40 114 139.5 199.5t239.5 113.5v-110q-88 -13 -168.5 -74t-133.5 -141.5t-77 -165.5h-94q-26 85 -78.5 165.5t-132.5 141.5t-168 74v110q140 -28 239.5 -113.5
t139.5 -199.5v1136q-40 -114 -139.5 -199.5t-239.5 -113.5v111q88 13 168 74t132.5 141.5t78.5 165.5h94z" />
    <glyph glyph-name="uni2196" unicode="&#x2196;" horiz-adv-x="1040" 
d="M967 324l-60 -62l-663 662q53 -104 42 -238t-91 -254l-78 78q54 71 68 172t-4.5 194.5t-59.5 172.5l59 61q79 -41 173.5 -59.5t195 -5t170.5 66.5l80 -78q-119 -79 -254 -90t-240 41z" />
    <glyph glyph-name="uni2197" unicode="&#x2197;" horiz-adv-x="1042" 
d="M135 264l-59 60l661 661q-105 -52 -239.5 -41t-253.5 92l78 78q71 -54 172 -68t194 4.5t172 59.5l62 -59q-41 -80 -59.5 -174t-4.5 -194.5t68 -170.5l-80 -80q-79 119 -90 254t41 240z" />
    <glyph glyph-name="uni2198" unicode="&#x2198;" horiz-adv-x="1038" 
d="M72 1073l61 62l662 -662q-52 105 -41 239t90 253l78 -78q-53 -71 -66.5 -171.5t5 -194t59.5 -173.5l-62 -61q-78 42 -172 60.5t-195 4.5t-172 -67l-77 77q120 80 253.5 91.5t237.5 -41.5z" />
    <glyph glyph-name="uni2199" unicode="&#x2199;" horiz-adv-x="1040" 
d="M907 1135l60 -60l-662 -661q105 52 240 40.5t254 -92.5l-80 -77q-70 54 -170.5 68t-194.5 -4.5t-174 -59.5l-59 59q41 80 59.5 174t4.5 194.5t-68 170.5l78 80q80 -120 91 -254t-42 -240z" />
    <glyph glyph-name="uni21E7" unicode="&#x21e7;" horiz-adv-x="1755" 
d="M510 -14v604h-426l795 883l794 -883h-426v-604h-737zM313 692h299v-604h533v604h299l-565 629z" />
    <glyph glyph-name="partialdiff" unicode="&#x2202;" horiz-adv-x="1462" 
d="M717 -260q-336 0 -497 141.5t-161 397.5q0 516 648 516q391 0 534 -197q-29 140 -95.5 251.5t-182 207t-289.5 169t-410 124.5l35 90q378 -81 614 -226t345.5 -359.5t109.5 -516.5q0 -145 -35 -253t-110.5 -186.5t-202 -118.5t-303.5 -40zM162 279q0 -218 133 -332.5
t422 -114.5q155 0 263.5 33.5t170 98t88.5 147.5t27 194q0 108 -39.5 186t-114.5 123.5t-174 66.5t-229 21t-227.5 -22.5t-157.5 -59.5t-97 -92.5t-51 -115t-14 -133.5z" />
    <glyph glyph-name="emptyset" unicode="&#x2205;" horiz-adv-x="1728" 
d="M862 287q-154 0 -274 24l-197 -311h-112l210 338q-195 63 -286.5 195.5t-91.5 308.5q0 92 24.5 171.5t81 150.5t142 121t214 79t289.5 29q150 0 275 -25l202 324h113l-219 -349q197 -64 290 -196t93 -305q0 -93 -24.5 -173.5t-81.5 -151.5t-142.5 -121.5t-214.5 -79.5
t-291 -29zM217 842q0 -326 326 -422l538 860q-101 16 -219 16q-148 0 -262 -25t-185 -66.5t-116.5 -101t-63.5 -123t-18 -138.5zM641 397q101 -16 221 -16q148 0 262.5 25t186.5 67t118 102.5t64 125t18 141.5q0 321 -331 415z" />
    <glyph glyph-name="product" unicode="&#x220f;" horiz-adv-x="1445" 
d="M1008 -225v1552h-570v-1552h-102v1552h-305v90h1384v-90h-305v-1552h-102z" />
    <glyph glyph-name="summation" unicode="&#x2211;" horiz-adv-x="1363" 
d="M61 -236v89l635 739l-635 743v88h1239v-88h-1114l635 -741l-635 -741h1114v-89h-1239z" />
    <glyph glyph-name="minus" unicode="&#x2212;" horiz-adv-x="1603" 
d="M111 889h1384v-90h-1384v90z" />
    <glyph glyph-name="radical" unicode="&#x221a;" horiz-adv-x="1540" 
d="M508 -225l-424 733h113l362 -635l547 1540h379v-88h-305l-551 -1550h-121z" />
    <glyph glyph-name="infinity" unicode="&#x221e;" horiz-adv-x="1691" 
d="M1266 397q-67 0 -127 16.5t-113 50.5t-91 66t-89 82q-50 -50 -89 -82t-92 -66t-112.5 -50.5t-126.5 -16.5q-133 0 -221 69t-88 210q0 61 18 109.5t47.5 79.5t70 52t83.5 30t90 9q67 0 126.5 -16.5t112.5 -50.5t92 -66t89 -82q51 50 89 82t91 66t112 50.5t126 16.5
q48 0 91 -9t84 -30t70.5 -52t47.5 -79.5t18 -109.5q0 -141 -88 -210t-221 -69zM219 678q0 -93 54.5 -138.5t152.5 -45.5q102 0 182 47t172 135q-92 88 -172 135t-182 47q-103 0 -155 -47.5t-52 -132.5zM911 676q61 -57 106 -91.5t112.5 -62.5t138.5 -28q98 0 151.5 46
t53.5 138q0 84 -52 132t-155 48q-102 0 -184 -47t-171 -135z" />
    <glyph glyph-name="integral" unicode="&#x222b;" horiz-adv-x="913" 
d="M33 -260v86h63q95 0 154.5 16.5t95 56t49 98t13.5 150.5v881q0 216 89.5 314t309.5 98h76v-86h-64q-94 0 -153 -16.5t-94 -56.5t-48.5 -98.5t-13.5 -150.5v-880q0 -216 -89.5 -314t-309.5 -98h-78z" />
    <glyph glyph-name="approxequal" unicode="&#x2248;" horiz-adv-x="1677" 
d="M139 903q0 69 21 123.5t54.5 88t80 55t93.5 30t99 8.5q85 0 166 -24.5t145 -59t126 -69.5t134.5 -59.5t145.5 -24.5q109 0 175.5 52.5t66.5 150.5h104q0 -69 -21 -123.5t-54.5 -88t-80.5 -55.5t-94.5 -30.5t-99.5 -8.5q-85 0 -165.5 24.5t-144.5 59.5t-126 70t-134 59.5
t-145 24.5q-109 0 -175 -52.5t-66 -150.5h-105zM139 508q0 69 21 123.5t54.5 88t80 55t93.5 30t99 8.5q85 0 166 -24.5t145 -59.5t126 -70t134.5 -59.5t145.5 -24.5q109 0 175.5 52.5t66.5 150.5h104q0 -69 -21 -123.5t-54.5 -88t-80.5 -55t-94.5 -30t-99.5 -8.5
q-85 0 -165.5 24.5t-144.5 59.5t-126 70t-134 59.5t-145 24.5q-109 0 -175 -52.5t-66 -150.5h-105z" />
    <glyph glyph-name="notequal" unicode="&#x2260;" horiz-adv-x="1619" 
d="M481 328l191 329h-553v91h606l113 194h-719v90h770l190 328h109l-191 -328h506v-90h-557l-112 -194h669v-91h-723l-190 -329h-109z" />
    <glyph glyph-name="lessequal" unicode="&#x2264;" horiz-adv-x="1665" 
d="M137 913l1385 326v-102l-1172 -265l1172 -264v-157h-1385v88h1245l-1245 292v82z" />
    <glyph glyph-name="greaterequal" unicode="&#x2265;" horiz-adv-x="1665" 
d="M143 608l1172 264l-1172 265v102l1385 -326v-82l-1245 -292h1245v-88h-1385v157z" />
    <glyph glyph-name="uni2317" unicode="&#x2317;" horiz-adv-x="1519" 
d="M94 887v102h393v393h103v-393h340v393h102v-393h393v-102h-393v-340h393v-103h-393v-393h-102v393h-340v-393h-103v393h-393v103h393v340h-393zM590 547h340v340h-340v-340z" />
    <glyph glyph-name="uni2318" unicode="&#x2318;" horiz-adv-x="1624" 
d="M381 14q-124 0 -198 74t-74 199q0 134 91.5 208t270.5 74h90v295h-90q-178 0 -270 74.5t-92 208.5q0 125 73.5 198.5t198.5 73.5q134 0 208.5 -92t74.5 -270v-90h294v90q0 178 74.5 270t208.5 92q125 0 198.5 -73.5t73.5 -198.5q0 -134 -92 -208.5t-270 -74.5h-90v-295
h90q179 0 270.5 -74t91.5 -208q0 -125 -74 -199t-198 -74q-134 0 -208.5 92t-74.5 271v90h-294v-90q0 -179 -74.5 -271t-208.5 -92zM211 287q0 -88 41 -129t129 -41q95 0 137.5 59t42.5 201v90h-90q-142 0 -201 -42.5t-59 -137.5zM211 1147q0 -95 59 -137.5t201 -42.5h90v90
q0 142 -42.5 201t-137.5 59q-88 0 -129 -41t-41 -129zM664 569h294v295h-294v-295zM1061 377q0 -142 42.5 -201t137.5 -59q88 0 129 41t41 129q0 95 -59 137.5t-201 42.5h-90v-90zM1061 967h90q142 0 201 42.5t59 137.5q0 88 -41 129t-129 41q-95 0 -137.5 -59t-42.5 -201
v-90z" />
    <glyph glyph-name="uni2325" unicode="&#x2325;" horiz-adv-x="1597" 
d="M856 115l-489 1102h-334v102h399l492 -1102h540v-102h-608zM768 1217v102h696v-102h-696z" />
    <glyph glyph-name="filledbox" unicode="&#x25a0;" horiz-adv-x="1454" 
d="M168 158v1118h1118v-1118h-1118z" />
    <glyph glyph-name="uni25A1" unicode="&#x25a1;" horiz-adv-x="1454" 
d="M168 158v1118h1118v-1118h-1118zM270 260h914v914h-914v-914z" />
    <glyph glyph-name="triagup" unicode="&#x25b2;" horiz-adv-x="1441" 
d="M39 31l682 1179l680 -1179h-1362z" />
    <glyph glyph-name="uni25B3" unicode="&#x25b3;" horiz-adv-x="1503" 
d="M41 31l711 1231l710 -1231h-1421zM217 133h1067l-532 924z" />
    <glyph glyph-name="uni25B6" unicode="&#x25b6;" horiz-adv-x="1447" 
d="M182 1393l1180 -680l-1180 -682v1362z" />
    <glyph glyph-name="uni25B7" unicode="&#x25b7;" horiz-adv-x="1501" 
d="M182 -6v1421l1231 -710zM285 170l923 535l-923 532v-1067z" />
    <glyph glyph-name="triagdn" unicode="&#x25bc;" horiz-adv-x="1468" 
d="M1415 1210l-682 -1179l-680 1179h1362z" />
    <glyph glyph-name="uni25BD" unicode="&#x25bd;" horiz-adv-x="1525" 
d="M762 -20l-711 1230h1422zM229 1108l533 -924l534 924h-1067z" />
    <glyph glyph-name="uni25C0" unicode="&#x25c0;" horiz-adv-x="1447" 
d="M1266 31l-1180 682l1180 680v-1362z" />
    <glyph glyph-name="uni25C1" unicode="&#x25c1;" horiz-adv-x="1501" 
d="M1321 -6l-1231 711l1231 710v-1421zM295 705l924 -535v1067z" />
    <glyph glyph-name="uni25C6" unicode="&#x25c6;" horiz-adv-x="1523" 
d="M762 51l-668 666l668 667l665 -667z" />
    <glyph glyph-name="uni25C7" unicode="&#x25c7;" horiz-adv-x="1564" 
d="M780 29l-686 688l688 688l686 -688zM238 717l544 -543l543 543l-545 543z" />
    <glyph glyph-name="lozenge" unicode="&#x25ca;" horiz-adv-x="1056" 
d="M455 1280h147l356 -614l-356 -615h-147l-357 615zM209 666l319 -551l320 551l-320 551z" />
    <glyph glyph-name="circle" unicode="&#x25cb;" horiz-adv-x="1466" 
d="M733 92q-127 0 -243 49.5t-199.5 133.5t-132.5 199.5t-49 242.5t49 242.5t132.5 199t199.5 133t243 49.5q169 0 312.5 -83.5t227 -227.5t83.5 -313t-83.5 -313t-227 -228t-312.5 -84zM211 717q0 -221 150.5 -370.5t371.5 -149.5q144 0 263.5 68t188 187.5t68.5 264.5
t-68.5 264.5t-188 187.5t-263.5 68q-221 0 -371.5 -149.5t-150.5 -370.5z" />
    <glyph glyph-name="uni25CF" unicode="&#x25cf;" horiz-adv-x="1468" 
d="M735 94q-127 0 -243 49.5t-199.5 133t-132.5 198.5t-49 242t49 242.5t132.5 199t199.5 133t243 49.5q169 0 312.5 -83.5t227 -227.5t83.5 -313t-83.5 -312.5t-227 -227t-312.5 -83.5z" />
    <glyph glyph-name="uni2B1B" unicode="&#x2b1b;" horiz-adv-x="2152" 
d="M215 -143v1720h1720v-1720h-1720z" />
    <glyph glyph-name="uni2B1C" unicode="&#x2b1c;" horiz-adv-x="2152" 
d="M215 -143v1720h1720v-1720h-1720zM317 -41h1516v1516h-1516v-1516z" />
    <glyph glyph-name="uni2B98" unicode="&#x2b98;" horiz-adv-x="1478" 
d="M1382 -39l-1288 744l1288 743l-321 -743zM299 705h649l217 499z" />
    <glyph glyph-name="uni2B99" unicode="&#x2b99;" horiz-adv-x="1536" 
d="M25 -27l743 1289l743 -1289l-743 322zM768 408l500 -218l-500 867v-649z" />
    <glyph glyph-name="uni2B9A" unicode="&#x2b9a;" horiz-adv-x="1478" 
d="M98 -39l322 744l-322 743l1288 -743zM315 1204l217 -499h650z" />
    <glyph glyph-name="uni2B9B" unicode="&#x2b9b;" horiz-adv-x="1538" 
d="M768 -20l-743 1288l743 -322l743 322zM268 1051l500 -867v650z" />
    <glyph glyph-name="uni2B9C" unicode="&#x2b9c;" horiz-adv-x="1378" 
d="M1272 31l-1180 682l1180 680l-295 -680z" />
    <glyph glyph-name="uni2B9D" unicode="&#x2b9d;" horiz-adv-x="1421" 
d="M31 31l682 1179l680 -1179l-680 295z" />
    <glyph glyph-name="uni2B9E" unicode="&#x2b9e;" horiz-adv-x="1378" 
d="M106 31l295 682l-295 680l1180 -680z" />
    <glyph glyph-name="uni2B9F" unicode="&#x2b9f;" horiz-adv-x="1423" 
d="M711 31l-680 1179l680 -295l682 295z" />
    <glyph glyph-name="uni3000" unicode="&#x3000;" horiz-adv-x="2048" 
 />
    <glyph glyph-name="uni004A0301" horiz-adv-x="1406" 
d="M651 -20q-310 0 -452 156t-142 474v49h219v-69q0 -226 88 -325t287 -99q194 0 286.5 96t92.5 313v1117h215v-1096q0 -307 -143 -461.5t-451 -154.5zM709 1919l829 152l18 -80l-829 -152z" />
    <glyph glyph-name="I.bracket" horiz-adv-x="612" 
d="M199 0v1692h215v-1692h-215z" />
    <glyph glyph-name="A.ss01" horiz-adv-x="1200" 
d="M47 0l408 1692h288l410 -1692h-221l-74 334h-516l-74 -334h-221zM381 516h436l-211 954l-8 25l-6 -25z" />
    <glyph glyph-name="Aacute.ss01" horiz-adv-x="1200" 
d="M47 0l408 1692h288l410 -1692h-221l-74 334h-516l-74 -334h-221zM215 1892l750 152l20 -80l-749 -149zM381 516h436l-211 954l-8 25l-6 -25z" />
    <glyph glyph-name="Abreve.ss01" horiz-adv-x="1200" 
d="M47 0l408 1692h288l410 -1692h-221l-74 334h-516l-74 -334h-221zM236 2048h102q0 -150 264 -150q258 0 258 150h103q0 -233 -361 -233q-366 0 -366 233zM381 516h436l-211 954l-8 25l-6 -25z" />
    <glyph glyph-name="Acircumflex.ss01" horiz-adv-x="1200" 
d="M47 0l408 1692h288l410 -1692h-221l-74 334h-516l-74 -334h-221zM242 1800l288 244h144l282 -244h-151l-203 180l-209 -180h-151zM381 516h436l-211 954l-8 25l-6 -25z" />
    <glyph glyph-name="Adieresis.ss01" horiz-adv-x="1200" 
d="M47 0l408 1692h288l410 -1692h-221l-74 334h-516l-74 -334h-221zM281 1921q0 43 27.5 69.5t66.5 26.5q38 0 66 -26.5t28 -69.5q0 -40 -28 -66t-66 -26q-39 0 -66.5 26t-27.5 66zM381 516h436l-211 954l-8 25l-6 -25zM731 1921q0 43 27.5 69.5t66.5 26.5q38 0 66.5 -26.5
t28.5 -69.5q0 -40 -28.5 -66t-66.5 -26q-39 0 -66.5 26t-27.5 66z" />
    <glyph glyph-name="Agrave.ss01" horiz-adv-x="1200" 
d="M47 0l408 1692h288l410 -1692h-221l-74 334h-516l-74 -334h-221zM215 1964l21 80l749 -152l-20 -77zM381 516h436l-211 954l-8 25l-6 -25z" />
    <glyph glyph-name="Amacron.ss01" horiz-adv-x="1200" 
d="M47 0l408 1692h288l410 -1692h-221l-74 334h-516l-74 -334h-221zM215 1888v82h770v-82h-770zM381 516h436l-211 954l-8 25l-6 -25z" />
    <glyph glyph-name="Aogonek.ss01" horiz-adv-x="1200" 
d="M47 0l408 1692h288l410 -1692q-114 -36 -168.5 -82t-54.5 -111q0 -63 56 -90.5t188 -27.5h18l-82 -99h-16q-126 0 -202.5 46.5t-76.5 134.5q0 48 20 87t57.5 65.5t76.5 44t90 32.5h-127l-74 334h-516l-74 -334h-221zM381 516h436l-211 954l-8 25l-6 -25z" />
    <glyph glyph-name="Aring.ss01" horiz-adv-x="1200" 
d="M47 0l408 1692h288l410 -1692h-221l-74 334h-516l-74 -334h-221zM381 516h436l-211 954l-8 25l-6 -25zM434 1950q0 71 49.5 118.5t116.5 47.5t116.5 -47.5t49.5 -118.5t-49.5 -118.5t-116.5 -47.5t-116.5 47.5t-49.5 118.5zM520 1950q0 -37 21 -58.5t59 -21.5t59 21.5
t21 58.5t-21 58.5t-59 21.5t-59 -21.5t-21 -58.5z" />
    <glyph glyph-name="Atilde.ss01" horiz-adv-x="1200" 
d="M47 0l408 1692h288l410 -1692h-221l-74 334h-516l-74 -334h-221zM240 1833q0 111 55 163t145 52q50 0 89 -15.5t63.5 -38t46.5 -45t50.5 -38t62.5 -15.5q106 0 106 132h103q0 -114 -56 -166t-149 -52q-51 0 -91.5 15.5t-65.5 38t-46.5 45t-49 38t-59.5 15.5
q-102 0 -102 -129h-102zM381 516h436l-211 954l-8 25l-6 -25z" />
    <glyph glyph-name="B.ss01" horiz-adv-x="1255" 
d="M137 0v1692h559q219 0 324.5 -96.5t105.5 -305.5v-59q0 -257 -202 -332q112 -38 177.5 -133t65.5 -254v-61q0 -234 -109 -342.5t-349 -108.5h-572zM350 182h336q148 0 205 55t57 197v105q0 136 -64 195t-200 59h-334v-611zM350 977h316q122 0 181.5 49t59.5 174v92
q0 71 -14.5 115t-47.5 66t-72 29t-103 7h-320v-532z" />
    <glyph glyph-name="C.ss01" horiz-adv-x="1294" 
d="M659 -20q-184 0 -311 76t-186.5 207t-59.5 308v553q0 175 60 305.5t187 206.5t310 76q257 0 396 -142t145 -384l2 -189h-221v226q-12 309 -322 309q-167 0 -252 -94.5t-85 -278.5v-624q0 -373 337 -373q310 0 322 309v223h221l-2 -186q-6 -243 -144.5 -385.5
t-396.5 -142.5z" />
    <glyph glyph-name="Cacute.ss01" horiz-adv-x="1294" 
d="M659 -20q-184 0 -311 76t-186.5 207t-59.5 308v553q0 175 60 305.5t187 206.5t310 76q257 0 396 -142t145 -384l2 -189h-221v226q-12 309 -322 309q-167 0 -252 -94.5t-85 -278.5v-624q0 -373 337 -373q310 0 322 309v223h221l-2 -186q-6 -243 -144.5 -385.5
t-396.5 -142.5zM266 1892l750 152l20 -80l-749 -149z" />
    <glyph glyph-name="Ccaron.ss01" horiz-adv-x="1294" 
d="M659 -20q-184 0 -311 76t-186.5 207t-59.5 308v553q0 175 60 305.5t187 206.5t310 76q257 0 396 -142t145 -384l2 -189h-221v226q-12 309 -322 309q-167 0 -252 -94.5t-85 -278.5v-624q0 -373 337 -373q310 0 322 309v223h221l-2 -186q-6 -243 -144.5 -385.5
t-396.5 -142.5zM293 2058h151l209 -180l203 180h152l-283 -243h-143z" />
    <glyph glyph-name="Ccedilla.ss01" horiz-adv-x="1294" 
d="M518 -336q142 0 200 14.5t58 61.5q0 49 -57 58.5t-164 -7.5l45 191q-245 18 -371.5 176t-126.5 413v553q0 175 60 305.5t187 206.5t310 76q257 0 396 -142t145 -384l2 -189h-221v226q-12 309 -322 309q-167 0 -252 -94.5t-85 -278.5v-624q0 -373 337 -373q310 0 322 309
v223h221l-2 -186q-6 -234 -134.5 -376t-369.5 -152l-28 -109q223 27 223 -127q0 -95 -92 -131.5t-283 -36.5z" />
    <glyph glyph-name="Cdotaccent.ss01" horiz-adv-x="1294" 
d="M659 -20q-184 0 -311 76t-186.5 207t-59.5 308v553q0 175 60 305.5t187 206.5t310 76q257 0 396 -142t145 -384l2 -189h-221v226q-12 309 -322 309q-167 0 -252 -94.5t-85 -278.5v-624q0 -373 337 -373q310 0 322 309v223h221l-2 -186q-6 -243 -144.5 -385.5
t-396.5 -142.5zM528 1909q0 49 32.5 81.5t90.5 32.5t91.5 -32.5t33.5 -81.5q0 -45 -33.5 -77t-91.5 -32q-57 0 -90 32t-33 77z" />
    <glyph glyph-name="D.ss01" horiz-adv-x="1292" 
d="M137 0v1692h486q141 0 242.5 -29.5t175 -95.5t109.5 -178t36 -273v-541q0 -160 -36 -271.5t-109.5 -178t-175 -96t-242.5 -29.5h-486zM350 174h273q187 0 265.5 85t78.5 294v586q0 209 -78.5 294t-265.5 85h-273v-1344z" />
    <glyph glyph-name="Eth.ss01" horiz-adv-x="1386" 
d="M231 0v784h-182v117h182v791h486q141 0 242.5 -29.5t175 -95.5t109.5 -178t36 -273v-541q0 -160 -36 -271.5t-109.5 -178t-175 -96t-242.5 -29.5h-486zM444 174h273q187 0 265.5 85t78.5 294v586q0 209 -78.5 294t-265.5 85h-273v-617h357v-117h-357v-610z" />
    <glyph glyph-name="Dcaron.ss01" horiz-adv-x="1292" 
d="M137 0v1692h486q141 0 242.5 -29.5t175 -95.5t109.5 -178t36 -273v-541q0 -160 -36 -271.5t-109.5 -178t-175 -96t-242.5 -29.5h-486zM289 2058h151l209 -180l203 180h152l-283 -243h-143zM350 174h273q187 0 265.5 85t78.5 294v586q0 209 -78.5 294t-265.5 85h-273
v-1344z" />
    <glyph glyph-name="Dcroat.ss01" horiz-adv-x="1386" 
d="M231 0v784h-182v117h182v791h486q141 0 242.5 -29.5t175 -95.5t109.5 -178t36 -273v-541q0 -160 -36 -271.5t-109.5 -178t-175 -96t-242.5 -29.5h-486zM444 174h273q187 0 265.5 85t78.5 294v586q0 209 -78.5 294t-265.5 85h-273v-617h357v-117h-357v-610z" />
    <glyph glyph-name="E.ss01" horiz-adv-x="1083" 
d="M137 0v1692h856v-183h-643v-573h611v-180h-611v-574h643v-182h-856z" />
    <glyph glyph-name="Eacute.ss01" horiz-adv-x="1083" 
d="M137 0v1692h856v-183h-643v-573h611v-180h-611v-574h643v-182h-856zM160 1892l749 152l21 -80l-750 -149z" />
    <glyph glyph-name="Ecaron.ss01" horiz-adv-x="1083" 
d="M137 0v1692h856v-183h-643v-573h611v-180h-611v-574h643v-182h-856zM186 2058h152l209 -180l203 180h151l-283 -243h-143z" />
    <glyph glyph-name="Ecircumflex.ss01" horiz-adv-x="1083" 
d="M137 0v1692h856v-183h-643v-573h611v-180h-611v-574h643v-182h-856zM186 1800l289 244h143l283 -244h-151l-203 180l-209 -180h-152z" />
    <glyph glyph-name="Edieresis.ss01" horiz-adv-x="1083" 
d="M137 0v1692h856v-183h-643v-573h611v-180h-611v-574h643v-182h-856zM225 1921q0 43 27.5 69.5t66.5 26.5q38 0 66.5 -26.5t28.5 -69.5q0 -40 -28.5 -66t-66.5 -26q-39 0 -66.5 26t-27.5 66zM676 1921q0 43 27.5 69.5t66.5 26.5q38 0 66 -26.5t28 -69.5q0 -40 -28 -66
t-66 -26q-39 0 -66.5 26t-27.5 66z" />
    <glyph glyph-name="Edotaccent.ss01" horiz-adv-x="1083" 
d="M137 0v1692h856v-183h-643v-573h611v-180h-611v-574h643v-182h-856zM422 1909q0 49 32.5 81.5t90.5 32.5t91.5 -32.5t33.5 -81.5q0 -45 -33.5 -77t-91.5 -32q-57 0 -90 32t-33 77z" />
    <glyph glyph-name="Egrave.ss01" horiz-adv-x="1083" 
d="M137 0v1692h856v-183h-643v-573h611v-180h-611v-574h643v-182h-856zM160 1964l20 80l750 -152l-21 -77z" />
    <glyph glyph-name="Emacron.ss01" horiz-adv-x="1083" 
d="M137 0v1692h856v-183h-643v-573h611v-180h-611v-574h643v-182h-856zM160 1888v82h770v-82h-770z" />
    <glyph glyph-name="Eogonek.ss01" horiz-adv-x="1083" 
d="M137 0v1692h856v-183h-643v-573h611v-180h-611v-574h643v-182q-114 -36 -168.5 -82t-54.5 -111q0 -63 56 -90.5t188 -27.5h18l-82 -99h-16q-126 0 -202.5 46.5t-76.5 134.5q0 48 20 87t57.5 65.5t76.5 44t90 32.5h-762z" />
    <glyph glyph-name="F.ss01" horiz-adv-x="1062" 
d="M137 0v1692h864v-183h-651v-649h621v-182h-621v-678h-213z" />
    <glyph glyph-name="G.ss01" horiz-adv-x="1314" 
d="M631 -20q-168 0 -288.5 75.5t-179.5 206t-59 303.5v559q0 268 140.5 428t412.5 160q254 0 393.5 -140.5t147.5 -375.5l2 -137h-221v172q-6 151 -90 226t-230 75q-168 0 -252.5 -96t-84.5 -277v-624q0 -181 81.5 -277t247.5 -96q155 0 237.5 82t88.5 243v205h-379v172h602
v-864h-125l-24 201q-136 -221 -420 -221z" />
    <glyph glyph-name="Gbreve.ss01" horiz-adv-x="1314" 
d="M631 -20q-168 0 -288.5 75.5t-179.5 206t-59 303.5v559q0 268 140.5 428t412.5 160q254 0 393.5 -140.5t147.5 -375.5l2 -137h-221v172q-6 151 -90 226t-230 75q-168 0 -252.5 -96t-84.5 -277v-624q0 -181 81.5 -277t247.5 -96q155 0 237.5 82t88.5 243v205h-379v172h602
v-864h-125l-24 201q-136 -221 -420 -221zM293 2048h102q0 -150 264 -150q259 0 259 150h102q0 -233 -361 -233q-366 0 -366 233z" />
    <glyph glyph-name="uni0122.ss01" horiz-adv-x="1314" 
d="M631 -20q-168 0 -288.5 75.5t-179.5 206t-59 303.5v559q0 268 140.5 428t412.5 160q254 0 393.5 -140.5t147.5 -375.5l2 -137h-221v172q-6 151 -90 226t-230 75q-168 0 -252.5 -96t-84.5 -277v-624q0 -181 81.5 -277t247.5 -96q155 0 237.5 82t88.5 243v205h-379v172h602
v-864h-125l-24 201q-136 -221 -420 -221zM555 -172q0 42 28.5 71t73.5 29q47 0 75 -30.5t28 -90.5q0 -71 -45 -134.5t-133 -106.5v84q102 39 125 119q-26 -33 -66 -33q-35 0 -60.5 25.5t-25.5 66.5z" />
    <glyph glyph-name="Gdotaccent.ss01" horiz-adv-x="1314" 
d="M631 -20q-168 0 -288.5 75.5t-179.5 206t-59 303.5v559q0 268 140.5 428t412.5 160q254 0 393.5 -140.5t147.5 -375.5l2 -137h-221v172q-6 151 -90 226t-230 75q-168 0 -252.5 -96t-84.5 -277v-624q0 -181 81.5 -277t247.5 -96q155 0 237.5 82t88.5 243v205h-379v172h602
v-864h-125l-24 201q-136 -221 -420 -221zM535 1909q0 49 32 81.5t90 32.5t91.5 -32.5t33.5 -81.5q0 -45 -33.5 -77t-91.5 -32q-57 0 -89.5 32t-32.5 77z" />
    <glyph glyph-name="H.ss01" horiz-adv-x="1290" 
d="M940 0v756h-590v-756h-213v1692h213v-756h590v756h213v-1692h-213z" />
    <glyph glyph-name="Hbar.ss01" horiz-adv-x="1458" 
d="M1024 0v756h-590v-756h-213v1194h-162v119h162v379h213v-379h590v379h213v-379h164v-119h-164v-1194h-213zM434 936h590v258h-590v-258z" />
    <glyph glyph-name="I.ss01" horiz-adv-x="796" 
d="M104 0v193h189v1306h-189v193h590v-193h-188v-1306h188v-193h-590z" />
    <glyph glyph-name="Iacute.ss01" horiz-adv-x="796" 
d="M104 0v193h189v1306h-189v193h590v-193h-188v-1306h188v-193h-590zM12 1892l750 152l20 -80l-749 -149z" />
    <glyph glyph-name="Icircumflex.ss01" horiz-adv-x="796" 
d="M104 0v193h189v1306h-189v193h590v-193h-188v-1306h188v-193h-590zM41 1800l289 244h143l283 -244h-152l-203 180l-208 -180h-152z" />
    <glyph glyph-name="Idieresis.ss01" horiz-adv-x="796" 
d="M104 0v193h189v1306h-189v193h590v-193h-188v-1306h188v-193h-590zM80 1921q0 43 27.5 69.5t66.5 26.5q38 0 66 -26.5t28 -69.5q0 -40 -28 -66t-66 -26q-39 0 -66.5 26t-27.5 66zM530 1921q0 43 27.5 69.5t67.5 26.5q38 0 66 -26.5t28 -69.5q0 -40 -28 -66t-66 -26
q-39 0 -67 26t-28 66z" />
    <glyph glyph-name="Idotaccent.ss01" horiz-adv-x="796" 
d="M104 0v193h189v1306h-189v193h590v-193h-188v-1306h188v-193h-590zM276 1909q0 49 32.5 81.5t90.5 32.5t91.5 -32.5t33.5 -81.5q0 -45 -33.5 -77t-91.5 -32q-57 0 -90 32t-33 77z" />
    <glyph glyph-name="Igrave.ss01" horiz-adv-x="796" 
d="M104 0v193h189v1306h-189v193h590v-193h-188v-1306h188v-193h-590zM12 1964l21 80l749 -152l-20 -77z" />
    <glyph glyph-name="Imacron.ss01" horiz-adv-x="796" 
d="M104 0v193h189v1306h-189v193h590v-193h-188v-1306h188v-193h-590zM12 1888v82h770v-82h-770z" />
    <glyph glyph-name="Iogonek.ss01" horiz-adv-x="796" 
d="M104 0v193h189v1306h-189v193h590v-193h-188v-1306h188v-193q-114 -36 -168.5 -82t-54.5 -111q0 -63 56 -90.5t188 -27.5h18l-82 -99h-16q-126 0 -202.5 46.5t-76.5 134.5q0 48 20 87t57.5 65.5t76.5 44t90 32.5h-496z" />
    <glyph glyph-name="J.ss01" horiz-adv-x="1173" 
d="M555 -20q-252 0 -370.5 137t-118.5 409v111h219v-148q0 -180 65 -254.5t205 -74.5q139 0 205.5 73.5t66.5 247.5v1211h217v-1174q0 -266 -118.5 -402t-370.5 -136z" />
    <glyph glyph-name="K.ss01" horiz-adv-x="1196" 
d="M920 0l-490 750h-80v-750h-213v1692h213v-750h80l490 750h249l-569 -846l569 -846h-249z" />
    <glyph glyph-name="uni0136.ss01" horiz-adv-x="1196" 
d="M920 0l-490 750h-80v-750h-213v1692h213v-750h80l490 750h249l-569 -846l569 -846h-249zM524 -172q0 42 29 71t74 29q47 0 74.5 -30.5t27.5 -90.5q0 -71 -45 -134.5t-133 -106.5v84q102 39 125 119q-26 -33 -66 -33q-35 0 -60.5 25.5t-25.5 66.5z" />
    <glyph glyph-name="L.ss01" horiz-adv-x="1040" 
d="M137 0v1692h213v-1510h641v-182h-854z" />
    <glyph glyph-name="Lacute.ss01" horiz-adv-x="1040" 
d="M137 0v1692h213v-1510h641v-182h-854zM156 1892l749 152l21 -80l-750 -149z" />
    <glyph glyph-name="Lcaron.ss01" horiz-adv-x="1069" 
d="M137 0v1692h213v-1510h641v-182h-854zM604 1198l78 494h143l-120 -494h-101z" />
    <glyph glyph-name="uni013B.ss01" horiz-adv-x="1040" 
d="M137 0v1692h213v-1510h641v-182h-854zM438 -172q0 42 29 71t74 29q47 0 74.5 -30.5t27.5 -90.5q0 -71 -45 -134.5t-133 -106.5v84q102 39 125 119q-26 -33 -66 -33q-35 0 -60.5 25.5t-25.5 66.5z" />
    <glyph glyph-name="Lslash.ss01" horiz-adv-x="1150" 
d="M246 0v674l-191 -96v137l191 96v881h213v-774l325 161v-137l-325 -162v-598h641v-182h-854z" />
    <glyph glyph-name="M.ss01" horiz-adv-x="1523" 
d="M137 0v1692h252l373 -1280l373 1280h251v-1692h-198v1235l-363 -1235h-127l-362 1235v-1235h-199z" />
    <glyph glyph-name="N.ss01" horiz-adv-x="1310" 
d="M137 0v1692h203l635 -1250v1250h199v-1692h-201l-637 1251v-1251h-199z" />
    <glyph glyph-name="Nacute.ss01" horiz-adv-x="1310" 
d="M137 0v1692h203l635 -1250v1250h199v-1692h-201l-637 1251v-1251h-199zM270 1892l750 152l20 -80l-749 -149z" />
    <glyph glyph-name="Ncaron.ss01" horiz-adv-x="1310" 
d="M137 0v1692h203l635 -1250v1250h199v-1692h-201l-637 1251v-1251h-199zM297 2058h152l208 -180l203 180h152l-283 -243h-143z" />
    <glyph glyph-name="uni0145.ss01" horiz-adv-x="1310" 
d="M137 0v1692h203l635 -1250v1250h199v-1692h-201l-637 1251v-1251h-199zM553 -172q0 42 28.5 71t73.5 29q47 0 75 -30.5t28 -90.5q0 -71 -45 -134.5t-133 -106.5v84q102 39 125 119q-26 -33 -66 -33q-35 0 -60.5 25.5t-25.5 66.5z" />
    <glyph glyph-name="Ntilde.ss01" horiz-adv-x="1310" 
d="M137 0v1692h203l635 -1250v1250h199v-1692h-201l-637 1251v-1251h-199zM295 1833q0 111 55.5 163t145.5 52q50 0 89 -15.5t63.5 -38t46.5 -45t50 -38t62 -15.5q106 0 106 132h103q0 -114 -56 -166t-149 -52q-51 0 -91.5 15.5t-65 38t-46.5 45t-49 38t-59 15.5
q-103 0 -103 -129h-102z" />
    <glyph glyph-name="O.ss01" horiz-adv-x="1314" 
d="M657 -20q-137 0 -243.5 43.5t-174.5 122.5t-102.5 186t-34.5 237v555q0 174 60 304.5t186.5 207t308.5 76.5t308.5 -76.5t186.5 -207t60 -304.5v-555q0 -130 -34.5 -237t-102.5 -186t-174.5 -122.5t-243.5 -43.5zM322 535q0 -179 85.5 -276t249.5 -97q165 0 250.5 97
t85.5 276v622q0 179 -85.5 276t-250.5 97q-164 0 -249.5 -97t-85.5 -274v-624z" />
    <glyph glyph-name="Oacute.ss01" horiz-adv-x="1314" 
d="M657 -20q-137 0 -243.5 43.5t-174.5 122.5t-102.5 186t-34.5 237v555q0 174 60 304.5t186.5 207t308.5 76.5t308.5 -76.5t186.5 -207t60 -304.5v-555q0 -130 -34.5 -237t-102.5 -186t-174.5 -122.5t-243.5 -43.5zM272 1892l750 152l20 -80l-749 -149zM322 535
q0 -179 85.5 -276t249.5 -97q165 0 250.5 97t85.5 276v622q0 179 -85.5 276t-250.5 97q-164 0 -249.5 -97t-85.5 -274v-624z" />
    <glyph glyph-name="Ocircumflex.ss01" horiz-adv-x="1314" 
d="M657 -20q-137 0 -243.5 43.5t-174.5 122.5t-102.5 186t-34.5 237v555q0 174 60 304.5t186.5 207t308.5 76.5t308.5 -76.5t186.5 -207t60 -304.5v-555q0 -130 -34.5 -237t-102.5 -186t-174.5 -122.5t-243.5 -43.5zM299 1800l289 244h143l283 -244h-152l-203 180l-208 -180
h-152zM322 535q0 -179 85.5 -276t249.5 -97q165 0 250.5 97t85.5 276v622q0 179 -85.5 276t-250.5 97q-164 0 -249.5 -97t-85.5 -274v-624z" />
    <glyph glyph-name="Odieresis.ss01" horiz-adv-x="1314" 
d="M657 -20q-137 0 -243.5 43.5t-174.5 122.5t-102.5 186t-34.5 237v555q0 174 60 304.5t186.5 207t308.5 76.5t308.5 -76.5t186.5 -207t60 -304.5v-555q0 -130 -34.5 -237t-102.5 -186t-174.5 -122.5t-243.5 -43.5zM322 535q0 -179 85.5 -276t249.5 -97q165 0 250.5 97
t85.5 276v622q0 179 -85.5 276t-250.5 97q-164 0 -249.5 -97t-85.5 -274v-624zM338 1921q0 43 27.5 69.5t66.5 26.5q38 0 66 -26.5t28 -69.5q0 -40 -28 -66t-66 -26q-39 0 -66.5 26t-27.5 66zM788 1921q0 43 27.5 69.5t67.5 26.5q38 0 66 -26.5t28 -69.5q0 -40 -28 -66
t-66 -26q-39 0 -67 26t-28 66z" />
    <glyph glyph-name="Ograve.ss01" horiz-adv-x="1314" 
d="M657 -20q-137 0 -243.5 43.5t-174.5 122.5t-102.5 186t-34.5 237v555q0 174 60 304.5t186.5 207t308.5 76.5t308.5 -76.5t186.5 -207t60 -304.5v-555q0 -130 -34.5 -237t-102.5 -186t-174.5 -122.5t-243.5 -43.5zM272 1964l21 80l749 -152l-20 -77zM322 535
q0 -179 85.5 -276t249.5 -97q165 0 250.5 97t85.5 276v622q0 179 -85.5 276t-250.5 97q-164 0 -249.5 -97t-85.5 -274v-624z" />
    <glyph glyph-name="Ohungarumlaut.ss01" horiz-adv-x="1314" 
d="M657 -20q-137 0 -243.5 43.5t-174.5 122.5t-102.5 186t-34.5 237v555q0 174 60 304.5t186.5 207t308.5 76.5t308.5 -76.5t186.5 -207t60 -304.5v-555q0 -130 -34.5 -237t-102.5 -186t-174.5 -122.5t-243.5 -43.5zM322 535q0 -179 85.5 -276t249.5 -97q165 0 250.5 97
t85.5 276v622q0 179 -85.5 276t-250.5 97q-164 0 -249.5 -97t-85.5 -274v-624zM461 1815l250 229h125l-230 -229h-145zM719 1815l250 229h125l-230 -229h-145z" />
    <glyph glyph-name="Omacron.ss01" horiz-adv-x="1314" 
d="M657 -20q-137 0 -243.5 43.5t-174.5 122.5t-102.5 186t-34.5 237v555q0 174 60 304.5t186.5 207t308.5 76.5t308.5 -76.5t186.5 -207t60 -304.5v-555q0 -130 -34.5 -237t-102.5 -186t-174.5 -122.5t-243.5 -43.5zM272 1888v82h770v-82h-770zM322 535q0 -179 85.5 -276
t249.5 -97q165 0 250.5 97t85.5 276v622q0 179 -85.5 276t-250.5 97q-164 0 -249.5 -97t-85.5 -274v-624z" />
    <glyph glyph-name="Oslash.ss01" horiz-adv-x="1314" 
d="M158 -6l80 156q-136 157 -136 419v555q0 174 60 304.5t186.5 207t308.5 76.5q196 0 332 -90l41 78h129l-80 -158q133 -157 133 -418v-555q0 -130 -34.5 -237t-102.5 -186t-174.5 -122.5t-243.5 -43.5q-195 0 -331 90l-39 -76h-129zM322 535q0 -97 24 -170l553 1079
q-86 86 -242 86q-164 0 -249.5 -97t-85.5 -274v-624zM418 248q86 -86 239 -86q165 0 250.5 97t85.5 276v622q0 97 -24 170z" />
    <glyph glyph-name="Otilde.ss01" horiz-adv-x="1314" 
d="M657 -20q-137 0 -243.5 43.5t-174.5 122.5t-102.5 186t-34.5 237v555q0 174 60 304.5t186.5 207t308.5 76.5t308.5 -76.5t186.5 -207t60 -304.5v-555q0 -130 -34.5 -237t-102.5 -186t-174.5 -122.5t-243.5 -43.5zM297 1833q0 111 55.5 163t145.5 52q50 0 89 -15.5
t63.5 -38t46.5 -45t50 -38t62 -15.5q106 0 106 132h103q0 -114 -56 -166t-149 -52q-51 0 -91.5 15.5t-65 38t-46.5 45t-49 38t-59 15.5q-103 0 -103 -129h-102zM322 535q0 -179 85.5 -276t249.5 -97q165 0 250.5 97t85.5 276v622q0 179 -85.5 276t-250.5 97
q-164 0 -249.5 -97t-85.5 -274v-624z" />
    <glyph glyph-name="P.ss01" horiz-adv-x="1243" 
d="M137 0v1692h535q263 0 381 -123.5t118 -394.5v-60q0 -273 -118 -400.5t-381 -127.5h-322v-586h-213zM350 760h330q147 0 210.5 72.5t63.5 234.5v154q0 161 -63 229t-211 68h-330v-758z" />
    <glyph glyph-name="Q.ss01" horiz-adv-x="1314" 
d="M1065 -303q-160 85 -288 121.5t-292 40.5v141q-188 48 -285.5 198.5t-97.5 370.5v555q0 174 60 304.5t186.5 207t308.5 76.5t308.5 -76.5t186.5 -207t60 -304.5v-555q0 -245 -120.5 -402t-350.5 -183q171 -26 324 -107v-180zM322 535q0 -179 85.5 -276t249.5 -97
q165 0 250.5 97t85.5 276v622q0 179 -85.5 276t-250.5 97q-164 0 -249.5 -97t-85.5 -274v-624z" />
    <glyph glyph-name="R.ss01" horiz-adv-x="1263" 
d="M958 0q-11 13 -16 41.5t-5.5 47.5t-0.5 61v315q0 62 -16 107.5t-41 72t-62 42.5t-72 21t-77 5h-318v-713h-213v1692h533q260 0 372.5 -100.5t112.5 -344.5v-39q0 -171 -56 -266t-186 -137q240 -71 240 -356v-299q0 -114 23 -150h-218zM350 887h318q150 0 209 67t59 197
v115q0 78 -16 128t-52.5 77t-84.5 37t-124 10h-309v-631z" />
    <glyph glyph-name="Racute.ss01" horiz-adv-x="1263" 
d="M958 0q-11 13 -16 41.5t-5.5 47.5t-0.5 61v315q0 62 -16 107.5t-41 72t-62 42.5t-72 21t-77 5h-318v-713h-213v1692h533q260 0 372.5 -100.5t112.5 -344.5v-39q0 -171 -56 -266t-186 -137q240 -71 240 -356v-299q0 -114 23 -150h-218zM254 1892l750 152l20 -80l-750 -149
zM350 887h318q150 0 209 67t59 197v115q0 78 -16 128t-52.5 77t-84.5 37t-124 10h-309v-631z" />
    <glyph glyph-name="Rcaron.ss01" horiz-adv-x="1263" 
d="M958 0q-11 13 -16 41.5t-5.5 47.5t-0.5 61v315q0 62 -16 107.5t-41 72t-62 42.5t-72 21t-77 5h-318v-713h-213v1692h533q260 0 372.5 -100.5t112.5 -344.5v-39q0 -171 -56 -266t-186 -137q240 -71 240 -356v-299q0 -114 23 -150h-218zM283 2058h151l209 -180l203 180h151
l-282 -243h-144zM350 887h318q150 0 209 67t59 197v115q0 78 -16 128t-52.5 77t-84.5 37t-124 10h-309v-631z" />
    <glyph glyph-name="uni0156.ss01" horiz-adv-x="1263" 
d="M958 0q-11 13 -16 41.5t-5.5 47.5t-0.5 61v315q0 62 -16 107.5t-41 72t-62 42.5t-72 21t-77 5h-318v-713h-213v1692h533q260 0 372.5 -100.5t112.5 -344.5v-39q0 -171 -56 -266t-186 -137q240 -71 240 -356v-299q0 -114 23 -150h-218zM350 887h318q150 0 209 67t59 197
v115q0 78 -16 128t-52.5 77t-84.5 37t-124 10h-309v-631zM539 -172q0 42 28.5 71t73.5 29q47 0 74.5 -30.5t27.5 -90.5q0 -71 -45 -134.5t-133 -106.5v84q102 39 125 119q-26 -33 -65 -33q-35 0 -60.5 25.5t-25.5 66.5z" />
    <glyph glyph-name="S.ss01" horiz-adv-x="1198" 
d="M614 -20q-534 0 -534 509v109h217v-147q0 -157 77.5 -224t243.5 -67q146 0 211.5 54.5t65.5 182.5v37q0 124 -53 188.5t-172 114.5l-250 117q-147 71 -228 174.5t-81 263.5q0 200 123.5 310t361.5 110q245 0 372.5 -116t127.5 -341v-94h-219v107q0 146 -68 206t-213 60
q-135 0 -201.5 -51t-66.5 -164v-25q0 -100 55 -164t156 -108l254 -117q61 -29 105 -56.5t87 -68t69.5 -88t43 -114t16.5 -148.5q0 -225 -121.5 -337.5t-378.5 -112.5z" />
    <glyph glyph-name="Sacute.ss01" horiz-adv-x="1198" 
d="M614 -20q-534 0 -534 509v109h217v-147q0 -157 77.5 -224t243.5 -67q146 0 211.5 54.5t65.5 182.5v37q0 124 -53 188.5t-172 114.5l-250 117q-147 71 -228 174.5t-81 263.5q0 200 123.5 310t361.5 110q245 0 372.5 -116t127.5 -341v-94h-219v107q0 146 -68 206t-213 60
q-135 0 -201.5 -51t-66.5 -164v-25q0 -100 55 -164t156 -108l254 -117q61 -29 105 -56.5t87 -68t69.5 -88t43 -114t16.5 -148.5q0 -225 -121.5 -337.5t-378.5 -112.5zM213 1892l750 152l20 -80l-750 -149z" />
    <glyph glyph-name="Scaron.ss01" horiz-adv-x="1198" 
d="M614 -20q-534 0 -534 509v109h217v-147q0 -157 77.5 -224t243.5 -67q146 0 211.5 54.5t65.5 182.5v37q0 124 -53 188.5t-172 114.5l-250 117q-147 71 -228 174.5t-81 263.5q0 200 123.5 310t361.5 110q245 0 372.5 -116t127.5 -341v-94h-219v107q0 146 -68 206t-213 60
q-135 0 -201.5 -51t-66.5 -164v-25q0 -100 55 -164t156 -108l254 -117q61 -29 105 -56.5t87 -68t69.5 -88t43 -114t16.5 -148.5q0 -225 -121.5 -337.5t-378.5 -112.5zM240 2058h151l209 -180l203 180h151l-282 -243h-144z" />
    <glyph glyph-name="Scedilla.ss01" horiz-adv-x="1198" 
d="M463 -336q142 0 200 14.5t58 61.5q0 49 -57 58.5t-164 -7.5l45 191q-465 34 -465 507v109h217v-147q0 -157 77.5 -224t243.5 -67q146 0 211.5 54.5t65.5 182.5v37q0 124 -53 188.5t-172 114.5l-250 117q-147 71 -228 174.5t-81 263.5q0 200 123.5 310t361.5 110
q245 0 372.5 -116t127.5 -341v-94h-219v107q0 146 -68 206t-213 60q-135 0 -201.5 -51t-66.5 -164v-25q0 -100 55 -164t156 -108l254 -117q61 -29 105 -56.5t87 -68t69.5 -88t43 -114t16.5 -148.5q0 -219 -115 -331.5t-360 -118.5l-27 -109q224 27 224 -127
q0 -95 -92 -131.5t-283 -36.5z" />
    <glyph glyph-name="uni0218.ss01" horiz-adv-x="1198" 
d="M614 -20q-534 0 -534 509v109h217v-147q0 -157 77.5 -224t243.5 -67q146 0 211.5 54.5t65.5 182.5v37q0 124 -53 188.5t-172 114.5l-250 117q-147 71 -228 174.5t-81 263.5q0 200 123.5 310t361.5 110q245 0 372.5 -116t127.5 -341v-94h-219v107q0 146 -68 206t-213 60
q-135 0 -201.5 -51t-66.5 -164v-25q0 -100 55 -164t156 -108l254 -117q61 -29 105 -56.5t87 -68t69.5 -88t43 -114t16.5 -148.5q0 -225 -121.5 -337.5t-378.5 -112.5zM496 -172q0 42 28.5 71t73.5 29q47 0 74.5 -30.5t27.5 -90.5q0 -71 -45 -134.5t-133 -106.5v84
q102 39 125 119q-26 -33 -65 -33q-35 0 -60.5 25.5t-25.5 66.5z" />
    <glyph glyph-name="uni1E9E.ss01" horiz-adv-x="1189" 
d="M131 1319q0 193 107.5 283t339.5 90h507q-48 -353 -101 -493t-159 -179q136 -34 200.5 -136t64.5 -286v-154q0 -233 -112.5 -338.5t-320.5 -105.5h-221v172h176q144 0 206.5 60.5t62.5 213.5v181q0 70 -11.5 119.5t-41.5 91t-89 62.5t-147 22h-156v172h146q38 0 66.5 4.5
t53 17t42 26.5t33.5 42.5t27 55.5t24 75t22.5 91t23.5 114h-296q-127 0 -183.5 -45.5t-56.5 -153.5v-1321h-207v1319z" />
    <glyph glyph-name="T.ss01" horiz-adv-x="1120" 
d="M453 0v1509h-398v183h1010v-183h-397v-1509h-215z" />
    <glyph glyph-name="Tbar.ss01" horiz-adv-x="1132" 
d="M459 0v788h-277v117h277v604h-398v183h1010v-183h-397v-604h280v-117h-280v-788h-215z" />
    <glyph glyph-name="Tcaron.ss01" horiz-adv-x="1120" 
d="M453 0v1509h-398v183h1010v-183h-397v-1509h-215zM201 2058h151l209 -180l203 180h151l-282 -243h-144z" />
    <glyph glyph-name="uni0162.ss01" horiz-adv-x="1120" 
d="M453 0v1509h-398v183h1010v-183h-397v-1509h-60l-33 -129q224 27 224 -127q0 -95 -92 -131.5t-283 -36.5l2 88q142 0 200 14.5t58 61.5q0 49 -57 58.5t-164 -7.5l49 209h-59z" />
    <glyph glyph-name="uni021A.ss01" horiz-adv-x="1120" 
d="M453 0v1509h-398v183h1010v-183h-397v-1509h-215zM457 -172q0 42 28.5 71t73.5 29q47 0 75 -30.5t28 -90.5q0 -71 -45.5 -134.5t-133.5 -106.5v84q102 39 125 119q-26 -33 -65 -33q-35 0 -60.5 25.5t-25.5 66.5z" />
    <glyph glyph-name="U.ss01" horiz-adv-x="1288" 
d="M643 -20q-272 0 -393 130t-121 406v1176h215v-1209q0 -95 19 -158.5t58.5 -99.5t92.5 -50.5t129 -14.5t129 14.5t92.5 50.5t58.5 99.5t19 158.5v1209h217v-1176q0 -277 -123 -406.5t-393 -129.5z" />
    <glyph glyph-name="Uacute.ss01" horiz-adv-x="1288" 
d="M643 -20q-272 0 -393 130t-121 406v1176h215v-1209q0 -95 19 -158.5t58.5 -99.5t92.5 -50.5t129 -14.5t129 14.5t92.5 50.5t58.5 99.5t19 158.5v1209h217v-1176q0 -277 -123 -406.5t-393 -129.5zM258 1892l750 152l20 -80l-749 -149z" />
    <glyph glyph-name="Ucircumflex.ss01" horiz-adv-x="1288" 
d="M643 -20q-272 0 -393 130t-121 406v1176h215v-1209q0 -95 19 -158.5t58.5 -99.5t92.5 -50.5t129 -14.5t129 14.5t92.5 50.5t58.5 99.5t19 158.5v1209h217v-1176q0 -277 -123 -406.5t-393 -129.5zM285 1800l288 244h144l282 -244h-151l-203 180l-209 -180h-151z" />
    <glyph glyph-name="Udieresis.ss01" horiz-adv-x="1288" 
d="M643 -20q-272 0 -393 130t-121 406v1176h215v-1209q0 -95 19 -158.5t58.5 -99.5t92.5 -50.5t129 -14.5t129 14.5t92.5 50.5t58.5 99.5t19 158.5v1209h217v-1176q0 -277 -123 -406.5t-393 -129.5zM324 1921q0 43 27.5 69.5t66.5 26.5q38 0 66 -26.5t28 -69.5
q0 -40 -28 -66t-66 -26q-39 0 -66.5 26t-27.5 66zM774 1921q0 43 27.5 69.5t66.5 26.5q38 0 66.5 -26.5t28.5 -69.5q0 -40 -28.5 -66t-66.5 -26q-39 0 -66.5 26t-27.5 66z" />
    <glyph glyph-name="Ugrave.ss01" horiz-adv-x="1288" 
d="M643 -20q-272 0 -393 130t-121 406v1176h215v-1209q0 -95 19 -158.5t58.5 -99.5t92.5 -50.5t129 -14.5t129 14.5t92.5 50.5t58.5 99.5t19 158.5v1209h217v-1176q0 -277 -123 -406.5t-393 -129.5zM258 1964l21 80l749 -152l-20 -77z" />
    <glyph glyph-name="Uhungarumlaut.ss01" horiz-adv-x="1288" 
d="M643 -20q-272 0 -393 130t-121 406v1176h215v-1209q0 -95 19 -158.5t58.5 -99.5t92.5 -50.5t129 -14.5t129 14.5t92.5 50.5t58.5 99.5t19 158.5v1209h217v-1176q0 -277 -123 -406.5t-393 -129.5zM446 1815l250 229h125l-229 -229h-146zM705 1815l249 229h125l-229 -229
h-145z" />
    <glyph glyph-name="Umacron.ss01" horiz-adv-x="1288" 
d="M643 -20q-272 0 -393 130t-121 406v1176h215v-1209q0 -95 19 -158.5t58.5 -99.5t92.5 -50.5t129 -14.5t129 14.5t92.5 50.5t58.5 99.5t19 158.5v1209h217v-1176q0 -277 -123 -406.5t-393 -129.5zM258 1888v82h770v-82h-770z" />
    <glyph glyph-name="Uogonek.ss01" horiz-adv-x="1288" 
d="M643 -20q-272 0 -393 130t-121 406v1176h215v-1209q0 -95 19 -158.5t58.5 -99.5t92.5 -50.5t129 -14.5t129 14.5t92.5 50.5t58.5 99.5t19 158.5v1209h217v-1176q0 -226 -81.5 -353.5t-256.5 -166.5q-109 -34 -161 -79.5t-52 -109.5q0 -63 56 -90.5t188 -27.5h18l-82 -99
h-16q-126 0 -202 46.5t-76 134.5q0 140 182 209h-33z" />
    <glyph glyph-name="Uring.ss01" horiz-adv-x="1288" 
d="M643 -20q-272 0 -393 130t-121 406v1176h215v-1209q0 -95 19 -158.5t58.5 -99.5t92.5 -50.5t129 -14.5t129 14.5t92.5 50.5t58.5 99.5t19 158.5v1209h217v-1176q0 -277 -123 -406.5t-393 -129.5zM477 1950q0 71 49.5 118.5t116.5 47.5t116.5 -47.5t49.5 -118.5
t-49.5 -118.5t-116.5 -47.5t-116.5 47.5t-49.5 118.5zM563 1950q0 -37 21 -58.5t59 -21.5t59 21.5t21 58.5t-21 58.5t-59 21.5t-59 -21.5t-21 -58.5z" />
    <glyph glyph-name="V.ss01" horiz-adv-x="1204" 
d="M459 0l-410 1692h221l326 -1463l8 -24l6 22l326 1465h219l-407 -1692h-289z" />
    <glyph glyph-name="W.ss01" horiz-adv-x="1939" 
d="M403 0l-350 1692h215l275 -1430l2 -8l2 8l287 1430h272l287 -1424l4 -14l2 14l272 1424h215l-348 -1692h-283l-280 1395l-4 18l-4 -18l-281 -1395h-283z" />
    <glyph glyph-name="Wacute.ss01" horiz-adv-x="1939" 
d="M403 0l-350 1692h215l275 -1430l2 -8l2 8l287 1430h272l287 -1424l4 -14l2 14l272 1424h215l-348 -1692h-283l-280 1395l-4 18l-4 -18l-281 -1395h-283zM584 1892l749 152l21 -80l-750 -149z" />
    <glyph glyph-name="Wcircumflex.ss01" horiz-adv-x="1939" 
d="M403 0l-350 1692h215l275 -1430l2 -8l2 8l287 1430h272l287 -1424l4 -14l2 14l272 1424h215l-348 -1692h-283l-280 1395l-4 18l-4 -18l-281 -1395h-283zM612 1800l289 244h143l283 -244h-151l-203 180l-209 -180h-152z" />
    <glyph glyph-name="Wdieresis.ss01" horiz-adv-x="1939" 
d="M403 0l-350 1692h215l275 -1430l2 -8l2 8l287 1430h272l287 -1424l4 -14l2 14l272 1424h215l-348 -1692h-283l-280 1395l-4 18l-4 -18l-281 -1395h-283zM651 1921q0 43 27.5 69.5t66.5 26.5q38 0 66.5 -26.5t28.5 -69.5q0 -40 -28.5 -66t-66.5 -26q-39 0 -66.5 26
t-27.5 66zM1102 1921q0 43 27.5 69.5t66.5 26.5q38 0 66 -26.5t28 -69.5q0 -40 -28 -66t-66 -26q-39 0 -66.5 26t-27.5 66z" />
    <glyph glyph-name="Wgrave.ss01" horiz-adv-x="1939" 
d="M403 0l-350 1692h215l275 -1430l2 -8l2 8l287 1430h272l287 -1424l4 -14l2 14l272 1424h215l-348 -1692h-283l-280 1395l-4 18l-4 -18l-281 -1395h-283zM584 1964l20 80l750 -152l-21 -77z" />
    <glyph glyph-name="X.ss01" horiz-adv-x="1187" 
d="M31 0l442 862l-430 830h233l322 -650l320 650h229l-432 -830l440 -862h-231l-332 680l-332 -680h-229z" />
    <glyph glyph-name="Y.ss01" horiz-adv-x="1202" 
d="M496 0v586l-459 1106h231l334 -854l332 854h231l-456 -1106v-586h-213z" />
    <glyph glyph-name="Yacute.ss01" horiz-adv-x="1202" 
d="M496 0v586l-459 1106h231l334 -854l332 854h231l-456 -1106v-586h-213zM215 1892l750 152l20 -80l-749 -149z" />
    <glyph glyph-name="Ycircumflex.ss01" horiz-adv-x="1202" 
d="M496 0v586l-459 1106h231l334 -854l332 854h231l-456 -1106v-586h-213zM244 1800l288 244h144l282 -244h-151l-203 180l-209 -180h-151z" />
    <glyph glyph-name="Ydieresis.ss01" horiz-adv-x="1202" 
d="M496 0v586l-459 1106h231l334 -854l332 854h231l-456 -1106v-586h-213zM283 1921q0 43 27.5 69.5t66.5 26.5q38 0 66 -26.5t28 -69.5q0 -40 -28 -66t-66 -26q-39 0 -66.5 26t-27.5 66zM733 1921q0 43 27.5 69.5t66.5 26.5q38 0 66.5 -26.5t28.5 -69.5q0 -40 -28.5 -66
t-66.5 -26q-39 0 -66.5 26t-27.5 66z" />
    <glyph glyph-name="Ygrave.ss01" horiz-adv-x="1202" 
d="M496 0v586l-459 1106h231l334 -854l332 854h231l-456 -1106v-586h-213zM215 1964l21 80l749 -152l-20 -77z" />
    <glyph glyph-name="Z.ss01" horiz-adv-x="1089" 
d="M72 0v182l706 1327h-706v183h944v-183l-707 -1327h707v-182h-944z" />
    <glyph glyph-name="Zacute.ss01" horiz-adv-x="1089" 
d="M72 0v182l706 1327h-706v183h944v-183l-707 -1327h707v-182h-944zM160 1892l749 152l21 -80l-750 -149z" />
    <glyph glyph-name="Zcaron.ss01" horiz-adv-x="1089" 
d="M72 0v182l706 1327h-706v183h944v-183l-707 -1327h707v-182h-944zM186 2058h152l209 -180l203 180h151l-283 -243h-143z" />
    <glyph glyph-name="Zdotaccent.ss01" horiz-adv-x="1089" 
d="M72 0v182l706 1327h-706v183h944v-183l-707 -1327h707v-182h-944zM422 1909q0 49 32.5 81.5t90.5 32.5t91.5 -32.5t33.5 -81.5q0 -45 -33.5 -77t-91.5 -32q-57 0 -90 32t-33 77z" />
    <glyph glyph-name="W.ss02" horiz-adv-x="1579" 
d="M113 0v1692h194v-1405l363 1405h309v-1405l364 1405h201l-450 -1692h-310v1425l-358 -1425h-313z" />
    <glyph glyph-name="W.ss03" horiz-adv-x="3137" 
d="M500 0h-301v1692h204v-1467l1133 1467h274v-1467l1112 1467h261l-1278 -1692h-299v1434z" />
    <glyph glyph-name="i.loclTRK" horiz-adv-x="516" 
d="M156 1331h204v-1331h-204v1331zM121 1593q0 54 35.5 86.5t101.5 32.5t102.5 -32.5t36.5 -86.5q0 -49 -37 -81.5t-102 -32.5t-101 32.5t-36 81.5z" />
    <glyph glyph-name="uni006A0301" horiz-adv-x="516" 
d="M156 -8v1339h204v-1368q0 -163 -39.5 -255.5t-122 -131.5t-225.5 -39h-200v178h157q94 0 140.5 23t66 80.5t19.5 173.5zM-53 1530l600 153l22 -77l-600 -154z" />
    <glyph glyph-name="w.ss02" horiz-adv-x="1957" 
d="M156 0v1331h200v-1134l551 1134h316v-1132l520 1132h215l-621 -1331h-315v1155l-551 -1155h-315z" />
    <glyph glyph-name="zero.ss01" horiz-adv-x="1259" 
d="M633 -20q-262 0 -393 155t-131 443v540q0 287 131 440.5t393 153.5q258 0 388 -154t130 -442v-538q0 -288 -130 -443t-388 -155zM326 541q0 -57 6 -107l549 977q-72 123 -248 123q-156 0 -231.5 -91.5t-75.5 -291.5v-610zM389 266q73 -106 244 -106q152 0 226.5 91
t74.5 290v610q0 28 -4 82z" />
    <glyph glyph-name="one.ss01" horiz-adv-x="976" 
d="M84 180h324v1260q-116 -135 -332 -135v190q115 0 199 47.5t145 149.5h198v-1512h324v-180h-858v180z" />
    <glyph glyph-name="two.ss01" horiz-adv-x="1202" 
d="M92 195q0 89 10 159.5t35.5 137.5t69 121.5t110 104.5t158.5 93l174 100q84 41 135 83.5t83 110t32 159.5v20q0 136 -70.5 193t-210.5 57q-155 0 -224.5 -67t-69.5 -230v-92h-218v74q0 493 510 493q244 0 372 -116.5t128 -342.5q0 -348 -340 -499l-188 -115
q-91 -40 -145.5 -80t-84.5 -96t-39.5 -118.5t-9.5 -164.5h803v-180h-1020v195z" />
    <glyph glyph-name="three.ss01" horiz-adv-x="1202" 
d="M594 -20q-260 0 -385.5 115t-126.5 358v71h213v-90q3 -155 75 -215.5t220 -60.5q154 0 224.5 60.5t70.5 197.5v104q0 78 -22.5 131.5t-64.5 80.5t-89 37.5t-109 10.5h-188v181h188q58 0 104 10t86 34.5t62 71.5t22 115v90q0 140 -72.5 196t-207.5 56q-65 0 -113 -11.5
t-88.5 -40t-61.5 -82.5t-22 -134v-78h-213v61q2 234 125 348.5t373 114.5q135 0 234 -36t154.5 -99t81.5 -138t26 -163v-47q2 -133 -59.5 -225.5t-174.5 -126.5q120 -36 182 -136t62 -252v-53q0 -217 -123.5 -336.5t-382.5 -119.5z" />
    <glyph glyph-name="four.ss01" horiz-adv-x="1163" 
d="M944 1692v-1172h158v-180h-158v-340h-211v340h-682v195l688 1157h205zM233 520h500v828z" />
    <glyph glyph-name="five.ss01" horiz-adv-x="1202" 
d="M670 1135q211 0 328.5 -120.5t117.5 -371.5v-149q0 -254 -130.5 -384t-381.5 -130q-244 0 -376 124.5t-132 364.5v49h217v-76q0 -284 295 -284q291 0 291 286v215q0 291 -278 291q-122 0 -190 -60t-109 -173h-211l51 975h880v-181h-688l-32 -536q116 160 348 160z" />
    <glyph glyph-name="six.ss01" horiz-adv-x="1228" 
d="M623 -20q-260 0 -385 133t-125 415v588q0 301 120.5 448.5t391.5 147.5q125 0 217.5 -33t147.5 -94t81.5 -141t26.5 -180v-27h-215v25q0 133 -62.5 194.5t-193.5 61.5q-153 0 -225 -75.5t-72 -246.5v-215q119 156 350 156q216 0 335.5 -131.5t119.5 -382.5v-127
q0 -516 -512 -516zM330 453q0 -161 72 -228t223 -67q153 0 223 68t70 223v217q0 145 -69.5 215.5t-213.5 70.5q-145 0 -225 -73t-80 -207v-219z" />
    <glyph glyph-name="seven.ss01" horiz-adv-x="1060" 
d="M37 1511v181h964v-181q-123 -128 -212 -270t-142.5 -278.5t-84.5 -297.5t-41.5 -305.5t-10.5 -324.5v-35h-213v35q0 175 11 320t43 306t85 299t142 281t210 270h-751z" />
    <glyph glyph-name="eight.ss01" horiz-adv-x="1220" 
d="M610 -20q-512 0 -512 440v82q0 172 69.5 269t190.5 126q-107 31 -170 115.5t-63 224.5v76q0 189 124 294t363 105q237 0 359.5 -105t122.5 -294v-76q0 -139 -63 -224t-169 -116q120 -29 189 -126.5t69 -268.5v-82q0 -440 -510 -440zM315 412q0 -145 71 -201.5t224 -56.5
q152 0 222.5 56.5t70.5 201.5v135q0 141 -73 197.5t-220 56.5t-221 -56.5t-74 -197.5v-135zM342 1200q0 -116 68.5 -167.5t199.5 -51.5q267 0 267 219v115q0 117 -65.5 170t-201.5 53t-202 -53t-66 -170v-115z" />
    <glyph glyph-name="nine.ss01" horiz-adv-x="1228" 
d="M604 -20q-126 0 -218.5 33t-147.5 94t-81 141t-26 180v27h215v-25q0 -133 62.5 -194.5t193.5 -61.5q153 0 225 76t72 248v213q-119 -156 -350 -156q-215 0 -335 131t-120 381v129q0 516 512 516q260 0 385 -133.5t125 -415.5v-588q0 -301 -120.5 -448t-391.5 -147z
M311 1026q0 -145 69.5 -216t213.5 -71q145 0 225 73t80 208v219q0 161 -72 228t-225 67q-151 0 -221 -68t-70 -223v-217z" />
    <glyph glyph-name="zero.tf" horiz-adv-x="1593" 
d="M801 -20q-318 0 -483.5 191.5t-165.5 539.5v274q0 345 166 536t483 191q311 0 475 -191.5t164 -535.5v-274q0 -347 -164 -539t-475 -192zM369 690q0 -176 49 -295l688 1012q-106 121 -305 121q-432 0 -432 -524v-314zM494 279q109 -115 307 -115q422 0 422 528v314
q0 165 -43 278z" />
    <glyph glyph-name="one.tf" horiz-adv-x="1593" 
d="M326 184h409v1272q-73 -77 -181.5 -118.5t-234.5 -41.5v195q132 0 235.5 46.5t186.5 154.5h205v-1508h410v-184h-1030v184z" />
    <glyph glyph-name="two.tf" horiz-adv-x="1593" 
d="M172 197q0 98 12 173.5t44 149t86 128.5t141 102.5t207 80.5l215 76q83 24 138 47.5t102.5 61.5t70 93t22.5 130v12q0 147 -96.5 212t-286.5 65q-217 0 -319 -86t-102 -281v-55h-218v45q0 277 159 419t478 142q292 0 447 -120t155 -359q0 -379 -436 -492l-221 -77
q-101 -27 -169.5 -59.5t-111 -70t-65 -92.5t-30 -112.5t-7.5 -145.5h1038v-184h-1253v197z" />
    <glyph glyph-name="three.tf" horiz-adv-x="1593" 
d="M791 -20q-319 0 -472.5 126t-156.5 390v36h215v-45q3 -178 102 -250.5t309 -72.5q212 0 309 67.5t97 212.5v56q0 81 -28 136t-83.5 84t-121.5 40.5t-158 11.5h-232v184h230q87 0 152 11.5t117.5 39t80 77.5t27.5 122v49q0 147 -100.5 210t-284.5 63q-89 0 -154.5 -13.5
t-120.5 -46.5t-84.5 -95.5t-30.5 -153.5v-39h-215v30q3 255 153.5 378.5t451.5 123.5q157 0 274.5 -34.5t187.5 -97.5t104 -145t34 -184v-22q2 -139 -66.5 -235t-196.5 -126q139 -36 209 -137t70 -254v-26q0 -471 -618 -471z" />
    <glyph glyph-name="four.tf" horiz-adv-x="1593" 
d="M1231 1692v-1164h205v-184h-205v-344h-213v344h-879v193l883 1155h209zM344 528h674v858z" />
    <glyph glyph-name="five.tf" horiz-adv-x="1593" 
d="M883 1135q161 0 282.5 -55.5t193 -173t71.5 -285.5v-84q0 -278 -158.5 -417.5t-458.5 -139.5q-293 0 -462 128.5t-169 374.5v39h217v-53q0 -86 34.5 -147.5t94.5 -94.5t129.5 -48t151.5 -15q403 0 403 340v110q0 168 -96 252t-278 84q-298 0 -428 -239h-211l59 981h1096
v-185h-903l-41 -571q160 199 473 199z" />
    <glyph glyph-name="six.tf" horiz-adv-x="1593" 
d="M805 -20q-319 0 -472 145.5t-153 443.5v459q0 330 159 507t484 177q141 0 249 -35t174.5 -99t100.5 -147.5t37 -185.5v-26h-215v26q-6 136 -94.5 205.5t-251.5 69.5q-204 0 -315 -101.5t-111 -308.5v-172q146 203 473 203q265 0 413.5 -136t148.5 -389v-90
q0 -268 -156.5 -407t-470.5 -139zM397 516q0 -185 100.5 -268.5t307.5 -83.5q206 0 307.5 83.5t101.5 256.5v110q0 177 -98.5 257.5t-294.5 80.5q-199 0 -311.5 -80.5t-112.5 -242.5v-113z" />
    <glyph glyph-name="seven.tf" horiz-adv-x="1593" 
d="M190 1507v185h1188v-185q-115 -84 -207 -181.5t-157 -194.5t-113.5 -209t-77 -216.5t-46 -226t-23.5 -228t-6 -231.5v-20h-211v20q0 120 6 225t22.5 226t44 226t73.5 218.5t107.5 212.5t149.5 197t197 182h-947z" />
    <glyph glyph-name="eight.tf" horiz-adv-x="1593" 
d="M797 -20q-313 0 -469 118.5t-156 345.5v43q0 167 82.5 270t226.5 140q-123 32 -196.5 122.5t-73.5 231.5v37q0 201 151.5 312.5t436.5 111.5q286 0 434.5 -111.5t148.5 -312.5v-37q0 -140 -74 -231t-194 -123q142 -37 224.5 -141t82.5 -271v-41q0 -227 -155 -345.5
t-469 -118.5zM387 446q0 -152 101 -220t309 -68t308.5 68t100.5 220v72q0 152 -103.5 216.5t-305.5 64.5t-306 -64t-104 -217v-72zM426 1225q0 -244 371 -244q174 0 272 59t98 187v57q0 128 -92.5 189t-277.5 61q-371 0 -371 -250v-59z" />
    <glyph glyph-name="nine.tf" horiz-adv-x="1593" 
d="M786 1712q319 0 472 -146t153 -444v-458q0 -330 -159 -507t-484 -177q-141 0 -249 35t-174.5 98.5t-100.5 147t-37 185.5v27h215v-27q6 -136 94 -205t252 -69q204 0 315 101.5t111 308.5v172q-146 -203 -473 -203q-265 0 -413 135.5t-148 388.5v90q0 268 156.5 407.5
t469.5 139.5zM377 1077q0 -177 98.5 -257.5t294.5 -80.5q199 0 311.5 81t112.5 243v113q0 185 -100.5 268.5t-307.5 83.5q-206 0 -307.5 -83.5t-101.5 -256.5v-111z" />
    <glyph glyph-name="zero.dnom" horiz-adv-x="804" 
d="M403 -10q-161 0 -248 97.5t-87 270.5v134q0 171 87 267.5t248 96.5q160 0 247 -97.5t87 -269.5v-131q0 -173 -87 -270.5t-247 -97.5zM209 344q0 -54 12 -98l320 438q-48 51 -138 51q-194 0 -194 -231v-160zM268 158q50 -47 135 -47q96 0 145.5 59.5t49.5 173.5v160
q0 47 -10 92z" />
    <glyph glyph-name="one.dnom" horiz-adv-x="622" 
d="M66 119h198v575q-82 -63 -201 -63v127q141 0 211 88h127v-727h201v-119h-536v119z" />
    <glyph glyph-name="two.dnom" horiz-adv-x="780" 
d="M68 129q0 57 10.5 101t36 85t74 71t118.5 48l113 31q82 21 118.5 53t36.5 94v9q0 60 -42.5 87t-131.5 27q-99 0 -142.5 -36.5t-43.5 -116.5v-27h-139v20q0 281 323 281q156 0 237 -62.5t81 -185.5q0 -197 -221 -254l-121 -35q-57 -14 -91 -30.5t-51 -42.5t-21.5 -53
t-4.5 -74h508v-119h-647v129z" />
    <glyph glyph-name="three.dnom" horiz-adv-x="770" 
d="M381 -10q-165 0 -244 63.5t-82 200.5v16h140v-22q3 -79 47 -110.5t137 -31.5q100 0 142 29.5t42 91.5v31q0 66 -44.5 91.5t-133.5 25.5h-111v114h111q83 0 125.5 24.5t42.5 84.5v27q0 59 -42.5 86.5t-129.5 27.5q-86 0 -128.5 -30t-43.5 -103v-20h-139v14q4 132 81.5 194
t231.5 62q160 0 234.5 -63t74.5 -164v-11q2 -67 -31.5 -117t-95.5 -67q66 -17 101.5 -67.5t35.5 -124.5v-13q0 -119 -78 -179t-243 -60z" />
    <glyph glyph-name="four.dnom" horiz-adv-x="751" 
d="M604 846v-565h98v-121h-98v-160h-137v160h-430v125l434 561h133zM166 281h301v376z" />
    <glyph glyph-name="five.dnom" horiz-adv-x="772" 
d="M434 567q131 0 205 -66t74 -198v-39q0 -135 -83.5 -204.5t-238.5 -69.5q-157 0 -241 66.5t-84 197.5v12h141v-22q0 -133 186 -133q178 0 178 139v57q0 144 -176 144q-124 0 -186 -99h-133l30 494h570v-119h-447l-18 -250q84 90 223 90z" />
    <glyph glyph-name="six.dnom" horiz-adv-x="788" 
d="M397 -10q-165 0 -244 75.5t-79 233.5v207q0 178 80 264t252 86q148 0 221 -62.5t73 -177.5v-6h-139v6q0 115 -153 115q-97 0 -145 -41.5t-48 -130.5v-65q73 79 215 79q139 0 216 -69.5t77 -196.5v-43q0 -274 -326 -274zM215 254q0 -76 44.5 -109.5t139.5 -33.5
q94 0 139.5 33.5t45.5 107.5v57q0 74 -44 109t-134 35q-191 0 -191 -142v-57z" />
    <glyph glyph-name="seven.dnom" horiz-adv-x="673" 
d="M27 727v119h610v-119q-69 -53 -121.5 -111.5t-85.5 -120t-54.5 -119.5t-31 -125.5t-13 -119.5t-3.5 -119v-12h-140v12q0 80 5 144t23 147.5t48.5 152t87 141t133.5 130.5h-458z" />
    <glyph glyph-name="eight.dnom" horiz-adv-x="782" 
d="M391 -10q-325 0 -325 237v19q0 85 37.5 138t103.5 71q-58 16 -91.5 60t-33.5 112v16q0 102 79.5 157.5t231.5 55.5q150 0 227.5 -55t77.5 -158v-16q0 -69 -33.5 -112.5t-89.5 -59.5q66 -18 104 -70.5t38 -138.5v-19q0 -237 -326 -237zM207 229q0 -69 42 -97t142 -28
q99 0 141.5 28.5t42.5 98.5v37q0 67 -43 95t-141 28t-141 -27.5t-43 -95.5v-39zM223 610q0 -53 41 -76.5t127 -23.5q85 0 126 23.5t42 76.5v31q-2 53 -41.5 76.5t-126.5 23.5q-89 0 -128.5 -23t-39.5 -77v-31z" />
    <glyph glyph-name="nine.dnom" horiz-adv-x="786" 
d="M389 856q166 0 245 -75t79 -232v-207q0 -180 -79.5 -266t-250.5 -86q-149 0 -222 62t-73 177v7h139v-7q0 -114 154 -114q96 0 144 41.5t48 130.5v67q-73 -82 -217 -82q-137 0 -215 70t-78 197v43q0 135 82.5 204.5t243.5 69.5zM205 537q0 -73 43.5 -108.5t134.5 -35.5
q190 0 190 142v57q0 75 -45 109t-139 34q-95 0 -139.5 -33.5t-44.5 -107.5v-57z" />
    <glyph glyph-name="zero.numr" horiz-adv-x="804" 
d="M403 836q-161 0 -248 97.5t-87 270.5v133q0 171 87 268t248 97q160 0 247 -97.5t87 -269.5v-131q0 -173 -87 -270.5t-247 -97.5zM209 1190q0 -54 12 -98l320 438q-48 51 -138 51q-194 0 -194 -231v-160zM268 1004q51 -48 135 -48q96 0 145.5 59.5t49.5 174.5v160
q0 47 -10 92z" />
    <glyph glyph-name="one.numr" horiz-adv-x="622" 
d="M66 965h198v575q-82 -63 -201 -63v127q141 0 211 88h127v-727h201v-119h-536v119z" />
    <glyph glyph-name="two.numr" horiz-adv-x="780" 
d="M68 975q0 57 10.5 101t36 85t74 71t118.5 48l113 31q82 21 118.5 53t36.5 94v8q0 61 -42.5 88t-131.5 27q-99 0 -142.5 -37t-43.5 -117v-26h-139v20q0 281 323 281q156 0 237 -62.5t81 -185.5q0 -197 -221 -254l-121 -35q-57 -14 -91 -30.5t-51 -42.5t-21.5 -53t-4.5 -74
h508v-119h-647v129z" />
    <glyph glyph-name="three.numr" horiz-adv-x="770" 
d="M381 836q-165 0 -244 63.5t-82 200.5v16h140v-22q3 -79 47 -110.5t137 -31.5q100 0 142 29.5t42 91.5v31q0 66 -44.5 91.5t-133.5 25.5h-111v114h111q83 0 125.5 24.5t42.5 84.5v26q0 59 -42.5 87t-129.5 28q-86 0 -128.5 -30t-43.5 -103v-20h-139v14q4 132 81.5 194
t231.5 62q160 0 234.5 -63t74.5 -164v-11q2 -67 -31.5 -117t-95.5 -67q66 -17 101.5 -68t35.5 -125v-12q0 -119 -78 -179t-243 -60z" />
    <glyph glyph-name="four.numr" horiz-adv-x="751" 
d="M604 1692v-566h98v-120h-98v-160h-137v160h-430v124l434 562h133zM166 1126h301v377z" />
    <glyph glyph-name="five.numr" horiz-adv-x="772" 
d="M434 1413q131 0 205 -66t74 -198v-39q0 -135 -83.5 -204.5t-238.5 -69.5q-157 0 -241 66.5t-84 197.5v12h141v-22q0 -134 186 -134q178 0 178 140v57q0 143 -176 143q-125 0 -186 -98h-133l30 494h570v-119h-447l-18 -250q84 90 223 90z" />
    <glyph glyph-name="six.numr" horiz-adv-x="788" 
d="M397 836q-165 0 -244 75.5t-79 233.5v207q0 178 80 264t252 86q148 0 221 -62.5t73 -177.5v-6h-139v6q0 115 -153 115q-97 0 -145 -41.5t-48 -130.5v-66q74 80 215 80q139 0 216 -69.5t77 -196.5v-43q0 -274 -326 -274zM215 1100q0 -76 44.5 -110t139.5 -34
q94 0 139.5 34t45.5 108v57q0 74 -44 108.5t-134 34.5q-191 0 -191 -141v-57z" />
    <glyph glyph-name="seven.numr" horiz-adv-x="673" 
d="M27 1573v119h610v-119q-69 -53 -121.5 -111.5t-85.5 -120t-54.5 -119.5t-31 -125.5t-13 -119.5t-3.5 -119v-12h-140v12q0 80 5 144t23 147.5t48.5 152t87 141t133.5 130.5h-458z" />
    <glyph glyph-name="eight.numr" horiz-adv-x="782" 
d="M391 836q-325 0 -325 237v19q0 85 37 137.5t104 70.5q-57 16 -91 60.5t-34 112.5v16q0 102 79.5 157.5t231.5 55.5q150 0 227.5 -55t77.5 -158v-16q0 -69 -33.5 -113t-89.5 -60q66 -18 104 -70t38 -138v-19q0 -237 -326 -237zM207 1075q0 -69 42 -97t142 -28
q99 0 141.5 28.5t42.5 98.5v37q0 67 -43 95t-141 28t-141 -27.5t-43 -95.5v-39zM223 1456q0 -53 41 -76.5t127 -23.5q85 0 126 23.5t42 76.5v31q-2 53 -41.5 76.5t-126.5 23.5q-89 0 -128.5 -23t-39.5 -77v-31z" />
    <glyph glyph-name="nine.numr" horiz-adv-x="786" 
d="M389 1702q166 0 245 -75t79 -232v-207q0 -180 -79.5 -266t-250.5 -86q-149 0 -222 62t-73 177v6h139v-6q0 -114 154 -114q96 0 144 41.5t48 130.5v67q-73 -82 -217 -82q-137 0 -215 69.5t-78 196.5v43q0 135 82.5 205t243.5 70zM205 1382q0 -73 43.5 -108t134.5 -35
q190 0 190 141v58q0 75 -45 109t-139 34q-95 0 -139.5 -33.5t-44.5 -107.5v-58z" />
    <glyph glyph-name="exclamdown.case" horiz-adv-x="546" 
d="M375 0h-205l12 1180h185zM131 1571q0 63 41.5 102t101.5 39t101 -39t41 -102q0 -64 -41 -104t-101 -40t-101.5 40t-41.5 104z" />
    <glyph glyph-name="questiondown.case" horiz-adv-x="1181" 
d="M588 -20q-116 0 -208 24t-151.5 64t-99 97t-56 119.5t-16.5 133.5q0 86 26.5 156t68.5 117.5t93 89.5t102 83t93 86.5t68.5 111.5t26.5 148v25h192v-27q0 -101 -25 -182.5t-65 -135t-88.5 -98t-97.5 -82.5t-89 -77.5t-65 -95t-25 -123.5q0 -124 78 -192t238 -68
q76 0 133.5 17t94.5 47t60 74t32.5 93.5t9.5 110.5v55h212v-41q0 -88 -16.5 -163.5t-56 -144t-100.5 -117t-155 -77t-214 -28.5zM487 1571q0 63 42 102t102 39t100.5 -39t40.5 -102q0 -65 -40.5 -104.5t-100.5 -39.5t-102 40t-42 104z" />
    <glyph glyph-name="hyphen.case" horiz-adv-x="1574" 
d="M94 844h1387v-90h-1387v90z" />
    <glyph glyph-name="endash.case" horiz-adv-x="1763" 
d="M94 846h1575v-90h-1575v90z" />
    <glyph glyph-name="emdash.case" horiz-adv-x="2902" 
d="M94 846h2714v-92h-2714v92z" />
    <glyph glyph-name="parenleft.case" horiz-adv-x="610" 
d="M487 -188q-204 262 -298.5 508t-94.5 532q0 288 94.5 530.5t298.5 503.5h113q-213 -280 -308 -515t-95 -519q0 -285 93.5 -519t309.5 -521h-113z" />
    <glyph glyph-name="parenright.case" horiz-adv-x="612" 
d="M125 1886q204 -262 298.5 -508t94.5 -532q0 -288 -94.5 -530.5t-298.5 -503.5h-113q214 281 309 515.5t95 518.5q0 194 -44 363.5t-129.5 326.5t-230.5 350h113z" />
    <glyph glyph-name="braceleft.case" horiz-adv-x="606" 
d="M96 963q80 0 80 184v383q0 360 285 360h106v-94h-104q-92 0 -138 -67.5t-46 -190.5v-385q0 -112 -19 -165.5t-72 -86.5v-94q53 -35 72 -88.5t19 -163.5v-385q0 -124 46 -191t138 -67h104v-96h-106q-285 0 -285 362v383q0 90 -21 136t-59 46v220z" />
    <glyph glyph-name="braceright.case" horiz-adv-x="606" 
d="M510 739q-80 0 -80 -184v-383q0 -360 -285 -360h-106v94h104q92 0 138.5 67.5t46.5 190.5v385q0 112 18.5 165.5t71.5 86.5v94q-53 35 -71.5 88t-18.5 164v385q0 124 -46.5 191t-138.5 67h-104v96h106q285 0 285 -362v-383q0 -90 21 -136.5t59 -46.5v-219z" />
    <glyph glyph-name="bracketleft.case" horiz-adv-x="638" 
d="M604 1890v-88h-336v-1900h336v-90h-438v2078h438z" />
    <glyph glyph-name="bracketright.case" horiz-adv-x="636" 
d="M33 -193v89h336v1900h-336v90h438v-2079h-438z" />
    <glyph glyph-name="at.case" horiz-adv-x="1742" 
d="M934 14q-252 0 -440.5 97.5t-293 287.5t-104.5 451q0 201 58.5 362.5t163 267.5t248 162t315.5 56q364 0 565 -207t201 -617q0 -249 -73.5 -381.5t-221.5 -132.5q-85 0 -145 46t-81 131q-93 -185 -305 -185q-183 0 -295 134t-112 366q0 231 112 365.5t293 134.5
q202 0 297 -168v149h148v-704q0 -95 26.5 -139t79.5 -44q85 0 129.5 111t44.5 320q0 370 -170.5 549.5t-490.5 179.5q-150 0 -275 -49.5t-216.5 -143t-142 -238.5t-50.5 -327q0 -234 92 -403.5t255.5 -255t381.5 -85.5q130 0 266 23t215 57v-92q-85 -35 -214 -56.5
t-261 -21.5zM559 852q0 -177 76 -272t215 -95q266 0 266 367t-268 367q-138 0 -213.5 -95t-75.5 -272z" />
    <glyph glyph-name="ampersand.ss01" horiz-adv-x="1255" 
d="M582 -20q-243 0 -361.5 122t-118.5 338v49q0 141 62 239.5t172 137.5q-106 39 -164.5 135.5t-58.5 239.5v43q0 62 14 120t49 115t87.5 99t135.5 68t187 26q465 0 465 -450v-64h-209v62q0 156 -61.5 218t-192.5 62q-134 0 -198 -61.5t-64 -204.5v-66q0 -79 19.5 -132.5
t58 -82t84.5 -40t110 -11.5h244v129h209v-129h123v-166h-123v-344q0 -452 -469 -452zM313 436q0 -152 65.5 -218t205.5 -66q132 0 195 63.5t63 218.5v342h-250q-131 0 -205 -60.5t-74 -211.5v-68z" />
    <glyph glyph-name="cent.tf" horiz-adv-x="1593" 
d="M743 -143v305q-254 17 -386 173t-132 423v178q0 265 132 421t386 173v305h109v-305q239 -12 371 -147t143 -351l4 -76h-205l-4 86q-9 136 -87.5 218t-221.5 92v-1012q147 10 223.5 91t85.5 218l4 84h205l-4 -74q-16 -216 -145.5 -350.5t-368.5 -146.5v-305h-109zM430 745
q0 -369 313 -403v1008q-313 -34 -313 -406v-199z" />
    <glyph glyph-name="dollar.tf" horiz-adv-x="1593" 
d="M754 -143v125q-262 17 -400.5 155t-138.5 387v70h213v-70q0 -323 326 -354v623l-109 45q-71 27 -123 53t-104.5 65t-85.5 84t-53.5 108.5t-20.5 141.5q0 196 132.5 305t363.5 117v123h108v-125q226 -19 352.5 -143t126.5 -340v-60h-211v50q0 275 -268 307v-559l113 -47
q53 -21 90 -38t81 -41.5t73.5 -49.5t59.5 -61t47.5 -76t28.5 -93.5t11 -116.5q0 -223 -127.5 -338.5t-376.5 -123.5v-123h-108zM471 1286q0 -34 8 -63.5t19.5 -51t34 -42.5t41 -34.5t50.5 -29.5t53.5 -25t59.5 -24l17 -6v518q-134 -6 -208.5 -63.5t-74.5 -168.5v-10z
M862 166q293 13 293 270v13q0 45 -8 80.5t-27.5 63.5t-38.5 47t-57 38.5t-65 31t-78 31.5l-19 9v-584z" />
    <glyph glyph-name="Euro.tf" horiz-adv-x="1593" 
d="M84 713v84h139v98h-139v84h139v6q0 157 40.5 288t120 229.5t206.5 154t289 55.5q147 0 264 -46.5t193.5 -129t119 -192.5t49.5 -242l2 -109h-221l-2 129q-9 185 -113.5 293.5t-291.5 108.5q-220 0 -328.5 -140t-108.5 -380v-25h568v-84h-568v-98h568v-84h-568v-23
q0 -243 108 -382.5t329 -139.5q190 0 293 109t112 296l2 127h221l-2 -106q-7 -132 -50 -243t-119 -194.5t-194 -130t-265 -46.5q-163 0 -289 55.5t-205 154.5t-119.5 231t-40.5 290v2h-139z" />
    <glyph glyph-name="sterling.tf" horiz-adv-x="1593" 
d="M199 150q202 163 202 395q0 55 -8 96h-194v102h170q-9 27 -35.5 101.5t-40 118t-26.5 118t-13 148.5q0 232 149.5 357.5t423.5 125.5q280 0 426 -138t146 -396v-70h-213v76q0 180 -86.5 267t-274.5 87q-356 0 -356 -319q0 -89 19 -168t54.5 -172.5t47.5 -135.5h584v-102
h-564q6 -38 6 -80q0 -219 -176 -389h959v-172h-1200v150z" />
    <glyph glyph-name="yen.tf" horiz-adv-x="1593" 
d="M242 567v82h417l-569 1043h242l465 -875l465 875h241l-569 -1043h418v-82h-449v-94h449v-82h-449v-391h-213v391h-448v82h448v94h-448z" />
    <glyph glyph-name="bouclecomb" horiz-adv-x="1286" 
d="M684 -20q-84 0 -155.5 20t-121.5 54.5t-83 68t-58 72.5h-20v931h20q21 40 54 76.5t82.5 72t122 56.5t157.5 21q242 0 381 -156t139 -414v-237q0 -257 -139 -411t-379 -154zM270 555q0 -178 94.5 -287.5t270.5 -109.5t266 109.5t90 289.5v217q0 179 -91 289.5t-267 110.5
q-173 0 -268 -110t-95 -288v-221z" />
    <glyph glyph-name="slashcomb" horiz-adv-x="1703" 
d="M215 6l1108 1680h162l-1108 -1680h-162z" />
    </font>
</defs>
</svg>
