<?xml version="1.0" standalone="no"?>
<!DOCTYPE svg PUBLIC "-//W3C//DTD SVG 1.1//EN" "http://www.w3.org/Graphics/SVG/1.1/DTD/svg11.dtd" >
<svg xmlns="http://www.w3.org/2000/svg" xmlns:xlink="http://www.w3.org/1999/xlink" version="1.1">
<metadata>
Created by FontForge 20170731 at Thu Oct  5 16:22:21 2023
 By Aleksey,,,
Copyright (c) 2021 by Mathieu Desjardins. All rights reserved.
</metadata>
<defs>
<font id="PPFormula-SemiCondensedExtralight" horiz-adv-x="1165" >
  <font-face 
    font-family="PP Formula Semi Cond Exlight"
    font-weight="200"
    font-stretch="semi-condensed"
    units-per-em="2048"
    panose-1="0 0 0 0 0 0 0 0 0 0"
    ascent="1638"
    descent="-410"
    x-height="1331"
    cap-height="1671"
    bbox="-360 -451 3133 2095"
    underline-thickness="81"
    underline-position="-285"
    unicode-range="U+0020-FB02"
  />
<missing-glyph horiz-adv-x="1054" 
d="M864 1659v-2110h-667v2110h667zM352 -305h350v69h-215l148 99h67v69h-350v-69h148l-148 -99v-69zM352 -18h350v239h-350v-239zM352 346h350v240h-210v-119h71v49h70v-100h-211v170h-70v-240zM352 631h350v211h-69v-140h-281v-71zM352 752h211v147h139v70h-350v-70h140
v-78h-140v-69zM352 1026h350v72h-139v147h-211v-219zM352 1300h350v70h-139v78h139v70h-348v-70h138v-78h-140v-70zM422 51v101h211v-101h-211zM422 1098v76h70v-76h-70z" />
    <glyph glyph-name="fi" unicode="fi" horiz-adv-x="1224" 
d="M23 1331h276v80q0 48 4 82.5t20 74.5t44.5 65t81.5 42t126 17q101 0 201 -21v-98q-85 18 -166 18q-54 0 -90.5 -9.5t-56.5 -22.5t-30.5 -39.5t-12.5 -49t-2 -61.5v-102q28 12 88.5 17.5t107.5 6t162 0.5v-102h-358v-1229h-119v1229h-276v102zM913 1593q0 42 28.5 70.5
t72.5 28.5q43 0 70.5 -28.5t27.5 -70.5q0 -38 -27.5 -66t-70.5 -28t-72 28t-29 66zM952 0v1331h121v-1331h-121z" />
    <glyph glyph-name="fl" unicode="fl" horiz-adv-x="1236" 
d="M23 1331h276v80q0 48 4 82.5t20 74.5t44.5 65t81.5 42t126 17q101 0 201 -21v-98q-85 18 -166 18q-54 0 -90.5 -9.5t-56.5 -22.5t-30.5 -39.5t-12.5 -49t-2 -61.5v-102q28 12 88.5 17.5t107.5 6t162 0.5v-102h-358v-1229h-119v1229h-276v102zM965 0v1671h120v-1671h-120z
" />
    <glyph glyph-name=".notdef" horiz-adv-x="1054" 
d="M864 1659v-2110h-667v2110h667zM352 -305h350v69h-215l148 99h67v69h-350v-69h148l-148 -99v-69zM352 -18h350v239h-350v-239zM352 346h350v240h-210v-119h71v49h70v-100h-211v170h-70v-240zM352 631h350v211h-69v-140h-281v-71zM352 752h211v147h139v70h-350v-70h140
v-78h-140v-69zM352 1026h350v72h-139v147h-211v-219zM352 1300h350v70h-139v78h139v70h-348v-70h138v-78h-140v-70zM422 51v101h211v-101h-211zM422 1098v76h70v-76h-70z" />
    <glyph glyph-name=".null" horiz-adv-x="0" 
 />
    <glyph glyph-name="nonmarkingreturn" horiz-adv-x="682" 
 />
    <glyph glyph-name="space" unicode=" " horiz-adv-x="544" 
 />
    <glyph glyph-name="exclam" unicode="!" horiz-adv-x="462" 
d="M172 1671h119l-2 -1159h-117v1159zM115 92q0 53 32.5 85t81.5 32q48 0 82.5 -32.5t34.5 -84.5q0 -49 -34.5 -80.5t-82.5 -31.5t-81 31t-33 81z" />
    <glyph glyph-name="quotedbl" unicode="&#x22;" horiz-adv-x="540" 
d="M117 1671h106v-512h-106v512zM317 1159v512h107v-512h-107z" />
    <glyph glyph-name="numbersign" unicode="#" horiz-adv-x="1832" 
d="M264 1128h477l289 543h111l-289 -543h430l289 543h110l-288 -543h370v-86h-415l-238 -446h455v-86h-500l-270 -510h-111l270 510h-430l-270 -510h-111l271 510h-348v86h393l237 446h-432v86zM569 596h430l238 446h-430z" />
    <glyph glyph-name="dollar" unicode="$" horiz-adv-x="1118" 
d="M526 -143v125q-215 14 -328.5 138t-113.5 353v105h125v-105q0 -187 80 -278t237 -105v741l-94 50q-57 28 -98.5 53t-85 62t-70.5 78.5t-44 99t-17 126.5q0 180 107 282t302 110v123h90v-125q191 -18 293.5 -133.5t102.5 -325.5v-64h-125v62q0 320 -271 350v-661l91 -48
q61 -31 99.5 -54.5t86 -64t74.5 -84.5t46 -111t19 -148q0 -201 -104 -310t-312 -118v-123h-90zM242 1307q0 -66 19 -118t56.5 -90t75.5 -63t94 -51l39 -20v618q-284 -13 -284 -272v-4zM616 88q146 6 217.5 80.5t71.5 232.5v5q0 65 -13 116t-33 85.5t-56.5 65t-69.5 50
t-86 45.5l-31 16v-696z" />
    <glyph glyph-name="percent" unicode="%" horiz-adv-x="1452" 
d="M264 0l817 1671h105l-819 -1671h-103zM53 1364q0 64 18.5 121.5t53.5 104.5t93.5 74.5t131.5 27.5t130.5 -27.5t92.5 -74.5t53.5 -104.5t18.5 -121.5t-18.5 -122t-53.5 -105t-92.5 -75t-130.5 -28t-131.5 28t-93.5 75t-53.5 105t-18.5 122zM166 1364q0 -102 47.5 -164.5
t136.5 -62.5q88 0 135 62.5t47 164.5q0 101 -47 163t-135 62q-89 0 -136.5 -62t-47.5 -163zM807 307q0 64 18.5 122t53.5 105t93.5 75t131.5 28t130.5 -28t92.5 -75t53.5 -105t18.5 -122q0 -135 -76.5 -231t-218.5 -96q-97 0 -166 48t-100 120t-31 159zM920 307
q0 -101 47.5 -163t136.5 -62q88 0 135 62t47 163q0 102 -47 165t-135 63q-89 0 -136.5 -63t-47.5 -165z" />
    <glyph glyph-name="ampersand" unicode="&#x26;" horiz-adv-x="1243" 
d="M582 -20q-125 0 -217 34t-145.5 95.5t-79 140t-25.5 174.5v51q0 137 62 240.5t175 134.5q-108 28 -172.5 131t-64.5 246v39q0 88 24.5 161.5t77 134.5t146.5 95.5t223 34.5q234 0 343 -113t109 -336v-51h-120v55q0 190 -79.5 267t-254.5 77q-180 0 -264 -78t-84 -247v-47
q0 -77 18 -134t48.5 -92.5t76.5 -57.5t96.5 -30t114.5 -8h328v141h120v-141h127v-98h-127v-381q0 -216 -111 -327t-345 -111zM236 420q0 -178 83 -259t265 -81q172 0 253 76.5t81 259.5v383h-330q-63 0 -113.5 -8.5t-96 -30.5t-76 -57.5t-48.5 -92t-18 -131.5v-59z" />
    <glyph glyph-name="quotesingle" unicode="'" horiz-adv-x="339" 
d="M117 1671h106v-512h-106v512z" />
    <glyph glyph-name="parenleft" unicode="(" horiz-adv-x="595" 
d="M463 -307q-195 255 -284 499t-89 529q0 286 89 526t284 496h112q-204 -275 -293 -507t-89 -515q0 -285 88 -516t294 -512h-112z" />
    <glyph glyph-name="parenright" unicode=")" horiz-adv-x="595" 
d="M133 1747q195 -255 284 -499t89 -529q0 -286 -89 -526t-284 -496h-113q204 275 293.5 507t89.5 515q0 285 -88.5 516t-294.5 512h113z" />
    <glyph glyph-name="asterisk" unicode="*" horiz-adv-x="741" 
d="M330 1683h82v-239l190 100l41 -69l-186 -99l186 -98l-41 -70l-190 101v-240h-82v240l-191 -101l-41 70l187 98l-187 99l41 69l191 -100v239z" />
    <glyph glyph-name="plus" unicode="+" horiz-adv-x="1359" 
d="M92 786v93h541v473h94v-473h541v-93h-541v-477h-94v477h-541z" />
    <glyph glyph-name="comma" unicode="," horiz-adv-x="405" 
d="M109 -117q44 15 91.5 55t59.5 82q-24 -40 -78 -40q-41 0 -68.5 29t-27.5 83q0 51 31 82t88 31q52 0 83 -37t31 -98q0 -171 -210 -291v104z" />
    <glyph glyph-name="hyphen" unicode="-" horiz-adv-x="1347" 
d="M86 719h1176v-86h-1176v86z" />
    <glyph glyph-name="period" unicode="." horiz-adv-x="411" 
d="M205 -20q-48 0 -81.5 31t-33.5 81q0 53 33 85t82 32q48 0 82.5 -32.5t34.5 -84.5q0 -49 -34.5 -80.5t-82.5 -31.5z" />
    <glyph glyph-name="slash" unicode="/" horiz-adv-x="1064" 
d="M1030 1671l-887 -1671h-108l887 1671h108z" />
    <glyph glyph-name="zero" unicode="0" horiz-adv-x="1255" 
d="M633 -18q-261 0 -387.5 157t-126.5 443v512q0 139 30.5 248t92 187.5t160.5 120.5t231 42q255 0 380.5 -157.5t125.5 -440.5v-512q0 -286 -125.5 -443t-380.5 -157zM244 575q0 -182 49 -292l625 1185q-96 119 -285 119q-193 0 -291 -116t-98 -371v-525zM352 188
q95 -104 281 -104q188 0 284.5 117t96.5 374v525q0 164 -41 270z" />
    <glyph glyph-name="one" unicode="1" horiz-adv-x="937" 
d="M86 102h356v1414q-56 -85 -151.5 -130t-208.5 -45v111q118 0 202.5 53.5t153.5 165.5h125v-1569h359v-102h-836v102z" />
    <glyph glyph-name="two" unicode="2" horiz-adv-x="1196" 
d="M98 104q0 77 5 133t19 118t41.5 110.5t71.5 98.5t110 95.5t155 88.5l192 126q69 33 116 65t88.5 77t62 106t20.5 138v8q0 92 -25 155.5t-74 98.5t-110.5 50t-144.5 15q-93 0 -161 -18.5t-119.5 -61.5t-77 -119t-25.5 -186v-65h-125v61q0 494 508 494q233 0 356 -108
t123 -322q0 -98 -28.5 -177t-81.5 -135.5t-108.5 -94.5t-129.5 -73l-189 -127q-89 -39 -147.5 -76t-99 -80t-61.5 -101.5t-29.5 -126.5t-8.5 -169h881v-102h-1004v104z" />
    <glyph glyph-name="three" unicode="3" horiz-adv-x="1208" 
d="M596 -20q-254 0 -377 115t-123 347v66h123v-68q1 -197 94 -276.5t283 -79.5q187 0 281 78.5t94 253.5v63q0 334 -361 334h-196v102h194q51 0 96 6t94.5 25.5t84 50.5t57.5 86t23 127v52q0 78 -20 136.5t-53 94t-81 57t-97.5 29.5t-109.5 8q-64 0 -114.5 -8t-99 -31
t-80.5 -60.5t-51.5 -99.5t-20.5 -145v-59h-123v55q0 225 120 339t369 114q242 0 362.5 -112t120.5 -318v-45q0 -130 -68.5 -226t-189.5 -125q131 -37 200 -138.5t69 -254.5v-55q0 -201 -123.5 -319.5t-376.5 -118.5z" />
    <glyph glyph-name="four" unicode="4" horiz-adv-x="1144" 
d="M905 1671v-1198h185v-102h-185v-371h-119v371h-739v104l741 1196h117zM172 473h614v971z" />
    <glyph glyph-name="five" unicode="5" horiz-adv-x="1202" 
d="M653 1120q215 0 336 -124t121 -349v-174q0 -239 -130.5 -366t-373.5 -127q-230 0 -363.5 119t-133.5 347v54h124v-58q0 -84 23 -148.5t59.5 -103.5t88 -63.5t101 -33.5t105.5 -9q82 0 147.5 20t118 63.5t81 119.5t28.5 180v178q0 184 -90.5 277.5t-253.5 93.5
q-284 0 -389 -299h-127l49 954h858v-102h-743l-39 -647q131 198 403 198z" />
    <glyph glyph-name="six" unicode="6" horiz-adv-x="1230" 
d="M625 -20q-253 0 -376.5 125t-123.5 376v652q0 125 28 224.5t87 176t158 117.5t233 41q101 0 179 -24t127.5 -63.5t82 -97t46 -118.5t15.5 -134l2 -30h-125v30q-6 169 -86 249.5t-239 80.5q-383 0 -383 -426v-239q121 200 409 200q225 0 345 -124.5t120 -356.5v-174
q0 -234 -123.5 -359.5t-375.5 -125.5zM250 475q0 -211 95.5 -301t279.5 -90q190 0 282 91.5t92 289.5v176q0 375 -356 375q-176 0 -284.5 -94.5t-108.5 -268.5v-178z" />
    <glyph glyph-name="seven" unicode="7" horiz-adv-x="1040" 
d="M23 1569v102h968v-102q-158 -147 -266 -317t-169.5 -366.5t-87.5 -405t-26 -464.5v-16h-120v14q0 248 24.5 451.5t83.5 401.5t165 373t261 329h-833z" />
    <glyph glyph-name="eight" unicode="8" horiz-adv-x="1210" 
d="M606 -20q-500 0 -500 430v88q0 309 267 385q-109 35 -170.5 119t-61.5 215v86q0 182 119 285.5t346 103.5t345 -103t118 -286v-86q0 -131 -60.5 -215t-168.5 -119q264 -78 264 -385v-88q0 -430 -498 -430zM231 408q0 -181 94 -253.5t281 -72.5t280 72.5t93 253.5v98
q0 75 -18.5 131.5t-50.5 91.5t-80.5 57t-102 30.5t-121.5 8.5q-86 0 -150 -14.5t-117 -48.5t-80.5 -98.5t-27.5 -157.5v-98zM266 1210q0 -147 91.5 -213.5t248.5 -66.5q73 0 132 15t106.5 46.5t73.5 87t26 131.5v93q0 148 -85.5 217t-252.5 69q-340 0 -340 -286v-93z" />
    <glyph glyph-name="nine" unicode="9" horiz-adv-x="1230" 
d="M606 1692q253 0 376.5 -125.5t123.5 -376.5v-651q0 -125 -28 -224.5t-87 -176t-158 -117.5t-233 -41q-101 0 -179 24t-127.5 63.5t-82 96.5t-46 118t-15.5 134l-3 30h125v-30q6 -169 86.5 -249.5t239.5 -80.5q383 0 383 426v240q-122 -201 -410 -201q-225 0 -345 124.5
t-120 356.5v174q0 234 124 360t376 126zM231 1030q0 -375 357 -375q176 0 284.5 94.5t108.5 268.5v178q0 211 -95.5 301t-279.5 90q-190 0 -282.5 -91.5t-92.5 -289.5v-176z" />
    <glyph glyph-name="colon" unicode=":" horiz-adv-x="475" 
d="M236 885q-48 0 -81.5 31t-33.5 81q0 53 33 85t82 32q48 0 82 -32.5t34 -84.5q0 -49 -34.5 -80.5t-81.5 -31.5zM121 92q0 53 33 85t82 32q48 0 82 -32.5t34 -84.5q0 -49 -34.5 -80.5t-81.5 -31.5q-48 0 -81.5 31t-33.5 81z" />
    <glyph glyph-name="semicolon" unicode=";" horiz-adv-x="466" 
d="M238 885q-48 0 -81.5 31t-33.5 81q0 53 33 85t82 32q48 0 82 -32.5t34 -84.5q0 -49 -34.5 -80.5t-81.5 -31.5zM113 92q0 51 30.5 82t87.5 31q52 0 83.5 -37.5t31.5 -97.5q0 -171 -211 -291v104q44 16 92 55.5t60 81.5q-24 -40 -78 -40q-41 0 -68.5 29t-27.5 83z" />
    <glyph glyph-name="less" unicode="&#x3c;" horiz-adv-x="1294" 
d="M80 872l1085 326v-100l-927 -267l927 -266v-100l-1085 326v81z" />
    <glyph glyph-name="equal" unicode="=" horiz-adv-x="1392" 
d="M109 1001h1175v-86h-1175v86zM109 662v86h1175v-86h-1175z" />
    <glyph glyph-name="greater" unicode="&#x3e;" horiz-adv-x="1294" 
d="M1214 791l-1085 -326v100l928 266l-928 267v100l1085 -326v-81z" />
    <glyph glyph-name="question" unicode="?" horiz-adv-x="985" 
d="M500 1692q114 0 199 -31.5t133.5 -87.5t72 -124.5t23.5 -150.5q0 -77 -22 -142t-57.5 -111t-78 -89t-85 -87.5t-78 -94.5t-57.5 -121t-22 -157v-31h-116v31q0 93 22 170t56.5 130.5t77 100.5t84.5 89.5t76.5 87t56.5 104t22 129.5q0 136 -76.5 210t-232.5 74
q-92 0 -156.5 -26.5t-100.5 -77.5t-51.5 -115.5t-15.5 -150.5v-70h-121v68q0 60 8 113.5t27 108.5t53 99t82 79t118.5 54t158.5 19zM356 92q0 53 33 85t82 32q48 0 82.5 -32.5t34.5 -84.5q0 -49 -34.5 -80.5t-82.5 -31.5t-81.5 31t-33.5 81z" />
    <glyph glyph-name="at" unicode="@" horiz-adv-x="1579" 
d="M862 -133q-176 0 -317.5 52.5t-242.5 153.5t-155.5 255t-54.5 350q0 199 55 356t152 257t226 152t282 52q158 0 280 -46.5t210.5 -142t135 -251t46.5 -365.5q0 -504 -262 -504q-153 0 -193 158q-84 -170 -266 -170q-163 0 -260 131.5t-97 362.5q0 229 96.5 360t258.5 131
q169 0 256 -149v141h108v-692q0 -93 29 -140t78 -47q149 0 149 418q0 376 -144.5 545.5t-422.5 169.5q-132 0 -242.5 -45t-194 -132.5t-130.5 -228t-47 -321.5q0 -178 48 -316t136 -227t209.5 -134.5t271.5 -45.5q113 0 228.5 21t191.5 53v-90q-183 -72 -418 -72zM510 668
q0 -193 69 -292.5t193 -99.5q240 0 240 392q0 391 -242 391q-123 0 -191.5 -99t-68.5 -292z" />
    <glyph glyph-name="A" unicode="A" horiz-adv-x="1159" 
d="M41 0l459 1671h159l457 -1671h-129l-100 375h-617l-98 -375h-131zM299 481h561l-278 1049l-4 12l-3 -10z" />
    <glyph glyph-name="B" unicode="B" horiz-adv-x="1271" 
d="M164 0v1671h538q107 0 181 -17.5t130.5 -60t83.5 -118.5t27 -189v-47q0 -257 -209 -346q119 -32 192 -129.5t73 -274.5v-53q0 -235 -112 -335.5t-353 -100.5h-551zM289 106h413q197 0 273 70.5t76 261.5v60q0 179 -87 255t-270 76h-405v-723zM289 936h383q53 0 94.5 5.5
t86 24.5t74 50.5t49 88t19.5 132.5v53q0 54 -7.5 95.5t-20 71t-35.5 49.5t-46 31.5t-59.5 17.5t-68.5 8t-80 2h-389v-629z" />
    <glyph glyph-name="C" unicode="C" horiz-adv-x="1306" 
d="M664 -20q-140 0 -247.5 45t-174 126.5t-100 190t-33.5 240.5v512q0 130 33.5 237.5t100.5 188.5t174.5 126.5t246.5 45.5q130 0 232.5 -40t168.5 -111t101 -166.5t38 -209.5l2 -178h-131v184q-6 206 -113 309t-296 103q-210 0 -319 -123t-109 -362v-520
q0 -244 108.5 -367t317.5 -123q194 0 299.5 103.5t111.5 312.5v184h131l-2 -178q-3 -116 -38 -212t-101 -167.5t-168.5 -111t-232.5 -39.5z" />
    <glyph glyph-name="D" unicode="D" horiz-adv-x="1316" 
d="M164 0v1671h471q107 0 191 -17t156.5 -58.5t120 -109t74.5 -172t27 -243.5v-471q0 -139 -27 -243t-74.5 -171.5t-120 -109.5t-156.5 -59t-191 -17h-471zM289 104h344q163 0 257.5 46t139.5 153.5t45 294.5v475q0 187 -45 294.5t-139.5 153.5t-257.5 46h-344v-1463z" />
    <glyph glyph-name="E" unicode="E" horiz-adv-x="1118" 
d="M164 0v1671h856v-106h-731v-676h704v-107h-704v-676h731v-106h-856z" />
    <glyph glyph-name="F" unicode="F" horiz-adv-x="1079" 
d="M164 0v1671h858v-106h-733v-758h696v-107h-696v-700h-125z" />
    <glyph glyph-name="G" unicode="G" horiz-adv-x="1329" 
d="M643 -20q-130 0 -232.5 45.5t-167.5 127t-98.5 190.5t-33.5 239v512q0 103 20.5 192.5t64.5 164.5t108.5 128.5t156 83t203.5 29.5q130 0 232.5 -39t168 -109.5t101 -164t40.5 -205.5v-125h-129l-2 131q-7 201 -113.5 302t-295.5 101q-210 0 -319 -123t-109 -362v-520
q0 -241 106 -365.5t315 -124.5q201 0 309.5 113t108.5 336v192h-483v105h612v-834h-92l-10 246q-63 -124 -178.5 -195t-282.5 -71z" />
    <glyph glyph-name="H" unicode="H" horiz-adv-x="1331" 
d="M1044 0v782h-755v-782h-125v1671h125v-782h755v782h123v-1671h-123z" />
    <glyph glyph-name="I" unicode="I" horiz-adv-x="768" 
d="M102 0v113h220v1446h-220v112h564v-112h-220v-1446h220v-113h-564z" />
    <glyph glyph-name="J" unicode="J" horiz-adv-x="1167" 
d="M539 -20q-248 0 -362 137.5t-114 402.5v107h127v-111q0 -123 24 -208.5t71.5 -133t108.5 -68t145 -20.5q81 0 141.5 19.5t109.5 65.5t74 130t25 205v1165h127v-1159q0 -259 -114.5 -395.5t-362.5 -136.5z" />
    <glyph glyph-name="K" unicode="K" horiz-adv-x="1198" 
d="M1024 0l-633 780h-102v-780h-125v1671h125v-780h102l633 780h156l-686 -835l686 -836h-156z" />
    <glyph glyph-name="L" unicode="L" horiz-adv-x="1048" 
d="M164 0v1671h125v-1565h725v-106h-850z" />
    <glyph glyph-name="M" unicode="M" horiz-adv-x="1562" 
d="M164 0v1671h158l458 -1470l461 1470h158v-1671h-119v1409l-440 -1409h-117l-440 1409v-1409h-119z" />
    <glyph glyph-name="N" unicode="N" horiz-adv-x="1359" 
d="M164 0v1671h123l792 -1417v1417h119v-1671h-123l-792 1417v-1417h-119z" />
    <glyph glyph-name="O" unicode="O" horiz-adv-x="1333" 
d="M666 -20q-141 0 -249 45.5t-174.5 127.5t-100 189.5t-33.5 237.5v514q0 128 34 235.5t100.5 189t174.5 127.5t248 46q141 0 249.5 -46t175 -127.5t100.5 -189t34 -235.5v-514q0 -130 -34 -237.5t-100.5 -189.5t-175 -127.5t-249.5 -45.5zM238 578q0 -240 111 -364
t317 -124q208 0 319 123.5t111 364.5v518q0 237 -111.5 361t-318.5 124q-206 0 -317 -124t-111 -361v-518z" />
    <glyph glyph-name="P" unicode="P" horiz-adv-x="1257" 
d="M164 0v1671h538q252 0 369 -125t117 -385v-43q0 -263 -118.5 -393.5t-367.5 -130.5h-413v-594h-125zM289 698h409q190 0 275.5 96.5t85.5 315.5v57q0 217 -85 308.5t-276 91.5h-409v-869z" />
    <glyph glyph-name="Q" unicode="Q" horiz-adv-x="1333" 
d="M666 90q208 0 319 123.5t111 364.5v518q0 237 -111.5 361t-318.5 124q-206 0 -317 -124t-111 -361v-518q0 -240 111 -364t317 -124zM109 580v514q0 128 34 235.5t100.5 189t174.5 127.5t248 46q141 0 249.5 -46t175 -127.5t100.5 -189t34 -235.5v-514q0 -121 -29.5 -223
t-87.5 -182t-151.5 -130t-215.5 -61q184 -36 318 -119v-123q-153 91 -278 129t-287 39v90q-129 33 -216.5 117.5t-128 200.5t-40.5 262z" />
    <glyph glyph-name="R" unicode="R" horiz-adv-x="1298" 
d="M1063 0q-23 27 -23 150v284q0 70 -15.5 124.5t-44.5 88t-62 55.5t-77.5 32.5t-80.5 14t-80 3.5h-391v-752h-125v1671h518q265 0 377 -96.5t112 -339.5v-27q0 -157 -60.5 -256.5t-195.5 -142.5q250 -76 250 -371v-288q0 -121 25 -150h-127zM289 858h393q186 0 273 76.5
t87 265.5v37q0 72 -9.5 125.5t-32 89.5t-51 59t-74 35t-93 16.5t-116.5 4.5h-377v-709z" />
    <glyph glyph-name="S" unicode="S" horiz-adv-x="1196" 
d="M618 -20q-536 0 -536 497v101h127v-107q0 -204 101.5 -293.5t312.5 -89.5q185 0 268.5 72.5t83.5 238.5v7q0 65 -13 116t-33.5 85.5t-56.5 64.5t-70 49t-87 43l-275 121q-58 27 -99 51t-84.5 60t-70.5 75.5t-44 96t-17 124.5q0 189 120.5 294.5t348.5 105.5
q242 0 366.5 -116.5t124.5 -346.5v-62h-127v62q0 191 -91 272.5t-273 81.5q-168 0 -254 -67t-86 -211v-7q0 -65 19 -116t56.5 -87.5t75.5 -60t95 -49.5l278 -121q61 -29 100.5 -52t86.5 -62.5t74.5 -83t46 -109.5t18.5 -147q0 -213 -118.5 -321.5t-367.5 -108.5z" />
    <glyph glyph-name="T" unicode="T" horiz-adv-x="1079" 
d="M477 0v1565h-436v106h997v-106h-436v-1565h-125z" />
    <glyph glyph-name="U" unicode="U" horiz-adv-x="1323" 
d="M662 -20q-274 0 -391 129.5t-117 402.5v1159h125v-1165q0 -127 25.5 -211.5t78.5 -129.5t118.5 -62t160.5 -17q76 0 131.5 10t105 37.5t80 74t48 121t17.5 177.5v1165h127v-1159q0 -275 -118.5 -403.5t-390.5 -128.5z" />
    <glyph glyph-name="V" unicode="V" horiz-adv-x="1159" 
d="M500 0l-459 1671h131l406 -1530l4 -10l2 8l403 1532h129l-457 -1671h-159z" />
    <glyph glyph-name="W" unicode="W" horiz-adv-x="1906" 
d="M442 0l-393 1671h127l346 -1513l348 1513h166l348 -1509l2 -8l3 8l342 1509h127l-392 -1671h-159l-351 1499l-2 12l-4 -12l-350 -1499h-158z" />
    <glyph glyph-name="X" unicode="X" horiz-adv-x="1175" 
d="M29 0l491 856l-479 815h139l410 -698l407 698h140l-482 -815l488 -856h-139l-418 739l-418 -739h-139z" />
    <glyph glyph-name="Y" unicode="Y" horiz-adv-x="1173" 
d="M524 0v586l-493 1085h135l420 -940l420 940h137l-494 -1085v-586h-125z" />
    <glyph glyph-name="Z" unicode="Z" horiz-adv-x="1081" 
d="M68 0v106l809 1459h-809v106h946v-106l-809 -1459h809v-106h-946z" />
    <glyph glyph-name="bracketleft" unicode="[" horiz-adv-x="610" 
d="M567 1747v-88h-309v-1878h309v-88h-411v2054h411z" />
    <glyph glyph-name="backslash" unicode="\" horiz-adv-x="1064" 
d="M35 1671h108l887 -1671h-108z" />
    <glyph glyph-name="bracketright" unicode="]" horiz-adv-x="610" 
d="M43 -307v88h309v1878h-309v88h412v-2054h-412z" />
    <glyph glyph-name="asciicircum" unicode="^" horiz-adv-x="925" 
d="M741 1057l-278 542l-279 -542h-110l315 614h148l315 -614h-111z" />
    <glyph glyph-name="underscore" unicode="_" horiz-adv-x="1425" 
d="M0 -160h1425v-86h-1425v86z" />
    <glyph glyph-name="grave" unicode="`" horiz-adv-x="1206" 
d="M1001 1532l-20 -78l-776 150l20 79z" />
    <glyph glyph-name="a" unicode="a" horiz-adv-x="1124" 
d="M862 0v225q-50 -122 -162 -183.5t-256 -61.5q-76 0 -139 18.5t-112.5 57t-77 104t-27.5 153.5q0 277 326 387l129 43q146 58 199 92q119 76 120 181v12q0 98 -66.5 159.5t-215.5 61.5q-160 0 -249 -78.5t-89 -232.5v-59h-121v55q0 64 14 122t47.5 113t84.5 95t131 64
t180 24q114 0 196 -29.5t126 -81.5t63.5 -112t19.5 -132v-997h-121zM209 319q0 -116 65 -176.5t193 -60.5q80 0 151 31t125.5 88.5t86.5 147t32 198.5v289q-20 -57 -91 -99t-185 -84l-117 -43q-127 -48 -193.5 -116t-66.5 -175z" />
    <glyph glyph-name="b" unicode="b" horiz-adv-x="1167" 
d="M152 0v1671h120v-538q17 36 44.5 71t71.5 70t109.5 56.5t143.5 21.5q200 0 313 -133.5t113 -366.5v-373q0 -237 -113 -368t-313 -131q-77 0 -141.5 20.5t-108.5 55.5t-71.5 68.5t-47.5 70.5v-195h-120zM272 485q0 -176 92.5 -289.5t258.5 -113.5q162 0 242.5 106.5
t80.5 292.5v367q0 186 -81.5 293.5t-243.5 107.5q-164 0 -256.5 -113.5t-92.5 -289.5v-361z" />
    <glyph glyph-name="c" unicode="c" horiz-adv-x="1097" 
d="M885 899q-11 350 -320 350q-168 0 -256 -99t-88 -314v-340q0 -414 342 -414q308 0 322 350l2 107h121l-2 -103q-9 -214 -119 -335t-324 -121q-232 0 -348.5 136t-116.5 384v331q0 247 116.5 384t346.5 137q214 0 326.5 -121t118.5 -336l2 -102h-121z" />
    <glyph glyph-name="d" unicode="d" horiz-adv-x="1167" 
d="M895 1671h119v-1671h-119v199q-17 -36 -44.5 -71t-71.5 -70t-109.5 -56.5t-143.5 -21.5q-200 0 -313 133t-113 366v373q0 238 113.5 369t312.5 131q77 0 141.5 -20.5t108.5 -55.5t71.5 -68.5t47.5 -70.5v534zM221 483q0 -185 82 -293t244 -108q164 0 256 113.5t92 289.5
v361q0 176 -92 289.5t-258 113.5q-162 0 -243 -107t-81 -292v-367z" />
    <glyph glyph-name="e" unicode="e" horiz-adv-x="1103" 
d="M98 498v336q0 245 117 381.5t348 136.5q219 0 332 -127.5t113 -374.5v-195h-787v-161q0 -412 340 -412q299 0 316 317v29h122v-27q-13 -197 -120.5 -309t-317.5 -112q-230 0 -346.5 135.5t-116.5 382.5zM221 752h666v118q-1 105 -24 180t-67 117.5t-101 62t-132 19.5
q-168 0 -255 -97.5t-87 -313.5v-86z" />
    <glyph glyph-name="f" unicode="f" horiz-adv-x="798" 
d="M23 1331h276v80q0 48 4 82.5t20 74.5t44.5 65t81.5 42t126 17q101 0 201 -21v-98q-85 18 -166 18q-54 0 -90.5 -9.5t-56.5 -22.5t-30.5 -39.5t-12.5 -49t-2 -61.5v-102q28 12 88.5 17.5t107.5 6t162 0.5v-102h-358v-1229h-119v1229h-276v102z" />
    <glyph glyph-name="g" unicode="g" 
d="M895 35v164q-17 -36 -44.5 -71t-71.5 -70t-109.5 -56.5t-143.5 -21.5q-200 0 -313 133t-113 366v373q0 238 113.5 369t312.5 131q77 0 141.5 -20.5t108.5 -55.5t71.5 -68.5t47.5 -70.5v194h119v-1315q0 -121 -19 -204t-64 -141.5t-121 -85.5t-189 -27h-465v102h458
q165 0 223 82.5t58 292.5zM221 483q0 -185 82 -293t244 -108q164 0 256 113.5t92 289.5v361q0 176 -92 289.5t-258 113.5q-162 0 -243 -107t-81 -292v-367z" />
    <glyph glyph-name="h" unicode="h" 
d="M272 1671v-536q19 40 47 74.5t71.5 68.5t108.5 54t144 20q186 0 284.5 -112t98.5 -331v-909h-121v903q0 348 -287 348q-80 0 -143 -26.5t-100 -66.5t-61 -92.5t-33 -99.5t-9 -92v-874h-120v1671h120z" />
    <glyph glyph-name="i" unicode="i" horiz-adv-x="423" 
d="M152 1331h120v-1331h-120v1331zM113 1593q0 42 28 70.5t72 28.5q43 0 70.5 -28.5t27.5 -70.5q0 -38 -27.5 -66t-70.5 -28t-71.5 28t-28.5 66z" />
    <glyph glyph-name="j" unicode="j" horiz-adv-x="423" 
d="M152 -23v1354h120v-1374q0 -113 -16 -185.5t-57 -122.5t-110 -70.5t-177 -20.5h-127v102h121q54 0 91.5 6t66 21.5t45 37.5t26.5 60t13.5 82t3.5 110zM113 1593q0 42 28 70.5t72 28.5q43 0 70.5 -28.5t27.5 -70.5q0 -38 -27.5 -66t-70.5 -28t-71.5 28t-28.5 66z" />
    <glyph glyph-name="k" unicode="k" horiz-adv-x="1052" 
d="M152 1671h120v-956h45l568 616h153l-624 -665l624 -666h-153l-566 614h-47v-614h-120v1671z" />
    <glyph glyph-name="l" unicode="l" horiz-adv-x="423" 
d="M152 1671h120v-1671h-120v1671z" />
    <glyph glyph-name="m" unicode="m" horiz-adv-x="1736" 
d="M1477 920q0 36 -1.5 64t-7 64t-15.5 63t-28 54.5t-43 45.5t-62 29t-83 11q-69 0 -123.5 -24t-87 -61.5t-54.5 -86t-30 -93.5t-8 -89v-897h-119v920q0 49 -3.5 87.5t-18 87t-39 80.5t-71 54t-110.5 22q-68 0 -122 -24t-86.5 -61t-54 -85.5t-30 -93.5t-8.5 -88v-899h-120
v1331h120v-180q33 85 113.5 143t216.5 58q137 0 212 -61t99 -163q33 67 73 113t111.5 78.5t166.5 32.5q96 0 162.5 -31.5t102.5 -91.5t51 -132t15 -167v-930h-118v920z" />
    <glyph glyph-name="n" unicode="n" 
d="M272 1331v-196q19 40 47 74.5t71.5 68.5t108.5 54t144 20q186 0 284.5 -112t98.5 -331v-909h-121v903q0 348 -287 348q-80 0 -143 -26.5t-100 -66.5t-61 -92.5t-33 -99.5t-9 -92v-874h-120v1331h120z" />
    <glyph glyph-name="o" unicode="o" horiz-adv-x="1120" 
d="M559 -20q-229 0 -345 136t-116 384v331q0 247 116 384t345 137q230 0 346.5 -137t116.5 -384v-331q0 -248 -116.5 -384t-346.5 -136zM221 496q0 -414 338 -414q340 0 340 414v340q0 413 -340 413q-338 0 -338 -413v-340z" />
    <glyph glyph-name="p" unicode="p" horiz-adv-x="1167" 
d="M272 1331v-198q17 36 44.5 71t71.5 70t109.5 56.5t143.5 21.5q200 0 313 -133.5t113 -366.5v-373q0 -237 -113 -368t-313 -131q-77 0 -141.5 20.5t-108.5 55.5t-71.5 68.5t-47.5 70.5v-637h-120v1773h120zM272 485q0 -176 92.5 -289.5t258.5 -113.5q162 0 242.5 106.5
t80.5 292.5v367q0 186 -81.5 293.5t-243.5 107.5q-164 0 -256.5 -113.5t-92.5 -289.5v-361z" />
    <glyph glyph-name="q" unicode="q" 
d="M895 -442v641q-17 -36 -44.5 -71t-71.5 -70t-109.5 -56.5t-143.5 -21.5q-200 0 -313 133t-113 366v373q0 238 113.5 369t312.5 131q77 0 141.5 -20.5t108.5 -55.5t71.5 -68.5t47.5 -70.5v194h119v-1773h-119zM221 483q0 -185 82 -293t244 -108q164 0 256 113.5t92 289.5
v361q0 176 -92 289.5t-258 113.5q-162 0 -243 -107t-81 -292v-367z" />
    <glyph glyph-name="r" unicode="r" horiz-adv-x="968" 
d="M272 1331v-201q18 41 46 77.5t69 70.5t99 54t126 20q312 0 312 -379v-103h-121v91q0 140 -48.5 214t-168.5 74q-70 0 -126.5 -29t-90.5 -72.5t-57 -98t-31.5 -101.5t-8.5 -88v-860h-120v1331h120z" />
    <glyph glyph-name="s" unicode="s" horiz-adv-x="1046" 
d="M682 688q151 -67 215 -146.5t64 -207.5q0 -73 -22 -134.5t-68.5 -112t-129 -79t-194.5 -28.5q-248 0 -359.5 109t-111.5 300v64h121v-62q0 -163 83.5 -236t264.5 -73q295 0 295 244q0 93 -47.5 153t-169.5 113l-263 125q-124 52 -186.5 126t-62.5 189q0 64 22.5 119.5
t68.5 101.5t125 72.5t183 26.5q117 0 202.5 -29t135.5 -83t74 -124.5t24 -159.5v-49h-121v47q0 158 -78.5 226.5t-234.5 68.5q-127 0 -203 -54t-76 -157q0 -79 41.5 -128t143.5 -95z" />
    <glyph glyph-name="t" unicode="t" horiz-adv-x="761" 
d="M700 1331v-102h-319v-864q0 -59 1.5 -93.5t7 -68t15 -50t27.5 -30t43 -17.5t62 -4h163v-102h-192q-56 0 -96.5 9.5t-67.5 31.5t-43.5 48t-25 69t-11 84t-2.5 102v885h-237v102h32q121 15 183.5 107.5t60.5 232.5h119q0 -133 -52 -225.5t-118 -114.5h450z" />
    <glyph glyph-name="u" unicode="u" 
d="M893 0v197q-19 -40 -47 -74.5t-71.5 -68.5t-108.5 -54t-144 -20q-186 0 -284.5 111.5t-98.5 330.5v909h121v-903q0 -348 287 -348q80 0 143 26.5t100 66.5t61 92.5t33 99.5t9 92v874h121v-1331h-121z" />
    <glyph glyph-name="v" unicode="v" horiz-adv-x="1009" 
d="M37 1331h125l344 -1200l340 1200h125l-391 -1331h-150z" />
    <glyph glyph-name="w" unicode="w" horiz-adv-x="1656" 
d="M45 1331h123l287 -1186l288 1186h170l291 -1186l285 1186h123l-334 -1331h-148l-303 1212l-303 -1212h-145z" />
    <glyph glyph-name="x" unicode="x" horiz-adv-x="1034" 
d="M10 0l439 686l-402 645h139l334 -543l336 543h133l-403 -647l438 -684h-139l-371 582l-371 -582h-133z" />
    <glyph glyph-name="y" unicode="y" horiz-adv-x="1163" 
d="M893 33v164q-19 -40 -47 -74.5t-71.5 -68.5t-108.5 -54t-144 -20q-186 0 -284.5 111.5t-98.5 330.5v909h121v-903q0 -348 287 -348q80 0 143 26.5t100 66.5t61 92.5t33 99.5t9 92v874h119v-1304q0 -122 -19 -206t-64.5 -145t-123 -89.5t-191.5 -28.5h-444v102h434
q87 0 142.5 19.5t88.5 66t45.5 114t12.5 173.5z" />
    <glyph glyph-name="z" unicode="z" horiz-adv-x="958" 
d="M66 1331h825v-100l-698 -1131h702v-100h-832v100l699 1131h-696v100z" />
    <glyph glyph-name="braceleft" unicode="{" horiz-adv-x="581" 
d="M92 831q80 0 80 181v379q0 185 68 270.5t202 85.5h97v-94h-95q-170 0 -170 -254v-381q0 -109 -18.5 -162t-71.5 -88v-92q53 -33 71.5 -86t18.5 -164v-381q0 -254 170 -254h95v-94h-97q-134 0 -202 85.5t-68 270.5v379q0 90 -21 136t-59 46v217z" />
    <glyph glyph-name="bar" unicode="|" horiz-adv-x="430" 
d="M164 -20v1703h102v-1703h-102z" />
    <glyph glyph-name="braceright" unicode="}" horiz-adv-x="581" 
d="M489 612q-79 0 -79 -180v-379q0 -185 -68.5 -270.5t-202.5 -85.5h-96v94h94q170 0 170 254v381q0 109 18.5 162t71.5 88v92q-53 33 -71.5 86t-18.5 164v381q0 254 -170 254h-94v94h96q134 0 202.5 -85.5t68.5 -270.5v-379q0 -183 79 -183v-217z" />
    <glyph glyph-name="asciitilde" unicode="~" horiz-adv-x="1398" 
d="M104 715q0 79 27 136t72.5 85.5t93 40.5t102.5 12q73 0 143 -22.5t124.5 -54.5t107 -63.5t113 -54t119.5 -22.5q86 0 137 44t51 128h102q0 -80 -26.5 -136.5t-71.5 -85t-92.5 -40.5t-101.5 -12q-73 0 -143 22.5t-124.5 54t-107 63.5t-113 54.5t-119.5 22.5
q-86 0 -137 -44t-51 -128h-105z" />
    <glyph glyph-name="uni00A0" unicode="&#xa0;" horiz-adv-x="544" 
 />
    <glyph glyph-name="exclamdown" unicode="&#xa1;" horiz-adv-x="440" 
d="M279 -340h-119l2 1159h117v-1159zM104 1239q0 49 35 81t82 32q48 0 81.5 -31.5t33.5 -81.5q0 -53 -33 -85t-82 -32q-48 0 -82.5 32.5t-34.5 84.5z" />
    <glyph glyph-name="cent" unicode="&#xa2;" horiz-adv-x="1124" 
d="M520 -143v295q-206 17 -308.5 151t-102.5 367v331q0 233 103 368.5t308 150.5v295h90v-293q196 -12 299 -132t111 -325l2 -102h-121l-2 106q-14 332 -289 348v-1163q275 16 289 348l2 107h121l-4 -103q-9 -206 -110.5 -326t-297.5 -130v-293h-90zM229 666
q0 -380 291 -412v1163q-291 -32 -291 -413v-338z" />
    <glyph glyph-name="sterling" unicode="&#xa3;" horiz-adv-x="1179" 
d="M94 96q193 161 193 404q0 57 -15 141h-178v84h160q-9 33 -32.5 111t-36 124.5t-24 123t-11.5 151.5q0 231 126 344t349 113q226 0 346.5 -114t120.5 -339v-90h-123v92q0 179 -83.5 264.5t-258.5 85.5q-174 0 -265.5 -85t-91.5 -269q0 -74 12 -150.5t25.5 -125t36.5 -124
t33 -112.5h563v-84h-545q13 -70 13 -135q0 -125 -45 -223t-136 -183h865v-100h-998v96z" />
    <glyph glyph-name="currency" unicode="&#xa4;" horiz-adv-x="980" 
d="M492 418q-116 0 -193 53l-123 -154l-72 66l123 156q-80 106 -80 280q0 175 82 283l-125 153l72 66l123 -154q79 54 193 54q111 0 190 -54l125 154l72 -66l-123 -157q80 -110 80 -279q0 -172 -82 -280l125 -156l-72 -66l-125 154q-77 -53 -190 -53zM250 819
q0 -149 60 -230t182 -81q120 0 180.5 81.5t60.5 229.5t-60.5 229.5t-180.5 81.5q-122 0 -182 -81t-60 -230z" />
    <glyph glyph-name="yen" unicode="&#xa5;" horiz-adv-x="1193" 
d="M135 559v82h375l-469 1030h135l420 -940l420 940h137l-469 -1030h375v-82h-400v-90h400v-82h-400v-387h-124v387h-400v82h400v90h-400z" />
    <glyph glyph-name="brokenbar" unicode="&#xa6;" horiz-adv-x="430" 
d="M164 1020v663h102v-663h-102zM164 -20v663h102v-663h-102z" />
    <glyph glyph-name="section" unicode="&#xa7;" horiz-adv-x="1159" 
d="M610 -20q-131 0 -223.5 27.5t-146 81.5t-78 124.5t-27.5 167.5h103q5 -165 88 -242.5t282 -77.5q336 0 336 218q0 61 -31 107t-90 60l-530 119q-109 30 -151 86.5t-42 132.5q0 155 133 193q-118 70 -118 215q0 152 113 226.5t325 74.5q108 0 188.5 -18.5t133 -51
t85.5 -83.5t48 -110.5t18 -137.5h-104q-3 111 -35.5 178t-113.5 104t-220 37q-336 0 -336 -215q0 -64 30 -109t89 -59l532 -121q193 -49 193 -217q0 -152 -131 -194q117 -68 117 -213q0 -303 -437 -303zM203 788q0 -57 29 -90.5t92 -50.5l432 -92q46 -8 78.5 -9t54.5 11.5
t35.5 25.5t20.5 33t9 34.5t2 29.5q0 60 -28.5 95t-91.5 50l-435 95q-101 25 -149.5 -17t-48.5 -115z" />
    <glyph glyph-name="dieresis" unicode="&#xa8;" horiz-adv-x="997" 
d="M707 1479q-37 0 -64 25t-27 63q0 43 26.5 67.5t64.5 24.5q37 0 64.5 -25t27.5 -67q0 -37 -28 -62.5t-64 -25.5zM201 1567q0 43 26 67.5t64 24.5q39 0 65.5 -24.5t26.5 -67.5q0 -38 -27 -63t-65 -25q-37 0 -63.5 25t-26.5 63z" />
    <glyph glyph-name="copyright" unicode="&#xa9;" horiz-adv-x="1736" 
d="M868 -20q-160 0 -289.5 45.5t-217 124t-146 188t-85 233.5t-26.5 265q0 140 26.5 264t85 233.5t146 188.5t217 124.5t289.5 45.5t289.5 -45.5t217 -124.5t146 -188.5t85 -233.5t26.5 -264q0 -141 -26 -265t-84.5 -233.5t-146 -188t-217 -124t-290.5 -45.5zM211 836
q0 -130 21.5 -240t71 -206t124.5 -163t187 -105t253 -38q138 0 249 38t186.5 105.5t126 162.5t73.5 206t23 240q0 128 -23 238.5t-73.5 206t-126 163t-186.5 105.5t-249 38t-249 -38t-186.5 -105.5t-126 -163t-73 -206t-22.5 -238.5zM408 838q0 121 26.5 220.5t81.5 179
t148.5 123.5t218.5 44q110 0 193.5 -35.5t133 -99t76.5 -141t35 -173.5h-117q-6 59 -16 103.5t-32 91t-55 76t-87.5 48.5t-126.5 19q-103 0 -175.5 -34.5t-112.5 -99t-57.5 -143t-17.5 -179.5q0 -102 17.5 -181.5t57 -144.5t111.5 -100t173 -35q73 0 128 19.5t88 49.5
t55.5 77t32 90.5t15.5 101.5h117q-8 -92 -33 -167.5t-73.5 -141.5t-132.5 -103t-197 -37q-125 0 -218.5 44t-148.5 123.5t-81.5 180.5t-26.5 224z" />
    <glyph glyph-name="ordfeminine" unicode="&#xaa;" horiz-adv-x="770" 
d="M553 881v133q-31 -73 -97 -109.5t-151 -36.5q-96 0 -154.5 50t-58.5 153q0 162 201 234l76 26q101 41 133 66q48 38 49 88v8q0 52 -37.5 85.5t-118.5 33.5q-90 0 -138 -42.5t-48 -125.5v-39h-96v31q0 112 67 184t211 72q254 0 254 -224v-587h-92zM188 1079
q0 -129 142 -129q94 0 157.5 70t63.5 190v154q-19 -58 -154 -102l-67 -25q-70 -26 -106 -63.5t-36 -94.5z" />
    <glyph glyph-name="guillemotleft" unicode="&#xab;" horiz-adv-x="944" 
d="M487 299l-403 336v82l403 336v-129l-303 -248l303 -248v-129zM414 635v82l403 336v-129l-303 -248l303 -248v-129z" />
    <glyph glyph-name="logicalnot" unicode="&#xac;" horiz-adv-x="1427" 
d="M1194 641v285h-1083v92h1185v-377h-102z" />
    <glyph glyph-name="registered" unicode="&#xae;" horiz-adv-x="1085" 
d="M543 766q-76 0 -136.5 26.5t-96.5 68.5t-59.5 98t-32.5 109t-9 108t9 108t32.5 109t59.5 97.5t96.5 68t136.5 26.5t135.5 -26.5t95.5 -68t59.5 -97.5t32 -109t8.5 -108t-8.5 -108t-32 -109t-59.5 -98t-95.5 -68.5t-135.5 -26.5zM94 1176q0 -71 13.5 -140.5t47 -138.5
t83 -121t128.5 -84.5t177 -32.5q97 0 175.5 32.5t128 84.5t82.5 121t46.5 138.5t13.5 140.5t-13.5 140t-46.5 138.5t-82.5 121t-128 84t-175.5 32.5q-98 0 -177 -32.5t-128.5 -84t-83 -121t-47 -138.5t-13.5 -140zM362 901v563h175q44 0 77.5 -7t62.5 -24.5t44.5 -51
t15.5 -83.5q0 -44 -23 -82.5t-75 -58.5q96 -34 96 -145v-51q0 -50 8 -60h-114q-11 14 -11 60v51q0 53 -17 71.5t-64 18.5h-58v-201h-117zM479 1210h58q50 0 67 17.5t17 58.5q0 43 -19.5 56.5t-64.5 13.5h-58v-146z" />
    <glyph glyph-name="macron" unicode="&#xaf;" horiz-adv-x="1206" 
d="M205 1528v82h796v-82h-796z" />
    <glyph glyph-name="degree" unicode="&#xb0;" horiz-adv-x="739" 
d="M371 1169q-89 0 -130.5 58t-41.5 157t41.5 157t130.5 58t130.5 -58t41.5 -157t-41.5 -157t-130.5 -58zM96 1384q0 -61 15.5 -114t47 -97.5t86 -70t126.5 -25.5t126.5 25.5t85.5 70t46.5 97.5t15.5 114t-15.5 114.5t-46.5 97.5t-85.5 70t-126.5 26t-126.5 -26t-86 -70
t-47 -97.5t-15.5 -114.5z" />
    <glyph glyph-name="plusminus" unicode="&#xb1;" horiz-adv-x="1359" 
d="M731 1251v-372h537v-91h-537v-288h537v-90h-1176v90h537v288h-537v91h537v372h102z" />
    <glyph glyph-name="uni00B2" unicode="&#xb2;" horiz-adv-x="638" 
d="M59 799q0 55 8 95.5t28.5 81t61.5 73.5t103 61l92 51q70 31 102.5 71t32.5 107v7q0 75 -40 106t-119 31q-86 0 -126 -37.5t-40 -128.5v-37h-94v31q0 250 260 250q125 0 189.5 -57t64.5 -169q0 -169 -176 -245l-97 -54q-96 -37 -125.5 -86.5t-29.5 -156.5h428v-78h-523v84
z" />
    <glyph glyph-name="uni00B3" unicode="&#xb3;" horiz-adv-x="641" 
d="M317 705q-132 0 -196 58t-66 177v33h95v-37q1 -86 41.5 -120t123.5 -34q86 0 126 34t40 108v43q0 43 -13.5 72t-37.5 42.5t-49.5 19t-58.5 5.5h-97v78h97q153 0 153 127v35q0 76 -42 106.5t-116 30.5q-78 0 -118 -32.5t-41 -115.5v-32h-95v26q3 232 254 232
q129 0 190.5 -60.5t61.5 -157.5v-20q2 -65 -29.5 -112t-90.5 -64q126 -39 126 -193v-24q0 -107 -63.5 -166t-194.5 -59z" />
    <glyph glyph-name="acute" unicode="&#xb4;" horiz-adv-x="1157" 
d="M225 1470l-20 78l727 152l20 -80z" />
    <glyph glyph-name="paragraph" unicode="&#xb6;" horiz-adv-x="913" 
d="M647 1671h103v-1671h-103v1671zM55 1307q0 111 20.5 182.5t66.5 111.5t108.5 55t159.5 15h102v-1671h-102v944q-97 0 -159.5 15t-108.5 55t-66.5 111t-20.5 182z" />
    <glyph glyph-name="periodcentered" unicode="&#xb7;" horiz-adv-x="442" 
d="M221 586q-48 0 -81.5 31t-33.5 81q0 53 33 85t82 32q48 0 82.5 -32.5t34.5 -84.5q0 -49 -34.5 -80.5t-82.5 -31.5z" />
    <glyph glyph-name="cedilla" unicode="&#xb8;" horiz-adv-x="780" 
d="M207 -342q147 0 205.5 15.5t58.5 66.5q0 52 -56.5 62t-166.5 -9l49 207h88l-35 -135q225 32 225 -125q0 -92 -92 -128t-278 -36z" />
    <glyph glyph-name="uni00B9" unicode="&#xb9;" horiz-adv-x="514" 
d="M55 793h172v647q-61 -74 -174 -74v84q115 0 178 100h86v-757h177v-78h-439v78z" />
    <glyph glyph-name="ordmasculine" unicode="&#xba;" horiz-adv-x="759" 
d="M381 868q-142 0 -213.5 82.5t-71.5 233.5v192q0 150 71.5 233t213.5 83q140 0 211.5 -82.5t71.5 -233.5v-192q0 -151 -71.5 -233.5t-211.5 -82.5zM193 1178q0 -230 188 -230q184 0 184 230v204q0 230 -184 230q-188 0 -188 -230v-204z" />
    <glyph glyph-name="guillemotright" unicode="&#xbb;" horiz-adv-x="944" 
d="M459 299v129l303 248l-303 248v129l403 -336v-82zM127 299v129l303 248l-303 248v129l403 -336v-82z" />
    <glyph glyph-name="onequarter" unicode="&#xbc;" horiz-adv-x="1626" 
d="M78 913h172v648q-61 -74 -174 -74v84q116 0 178 100h86v-758h176v-77h-438v77zM346 0l789 1671h96l-789 -1671h-96zM1040 174v82l363 580h90v-584h86v-78h-86v-174h-92v174h-361zM1122 252h279v432z" />
    <glyph glyph-name="onehalf" unicode="&#xbd;" horiz-adv-x="1718" 
d="M78 913h172v648q-61 -74 -174 -74v84q116 0 178 100h86v-758h176v-77h-438v77zM346 0l789 1671h96l-789 -1671h-96zM1120 0v84q0 55 8 95.5t28.5 81t61.5 73.5t103 61l92 51q70 31 102.5 71.5t32.5 107.5v6q0 75 -40 106t-119 31q-86 0 -126 -37.5t-40 -128.5v-37h-95v31
q0 250 261 250q253 0 253 -225q0 -170 -176 -246l-96 -53q-96 -37 -126 -87t-30 -157h428v-78h-522z" />
    <glyph glyph-name="threequarters" unicode="&#xbe;" horiz-adv-x="1730" 
d="M332 825q-132 0 -196 58.5t-66 177.5v33h94v-37q1 -86 41.5 -120t124.5 -34q86 0 126 33.5t40 107.5v43q0 43 -13.5 72t-38 43t-50 19.5t-58.5 5.5h-96v78h96q153 0 153 127v34q0 76 -42 107t-115 31q-78 0 -118.5 -32.5t-41.5 -115.5v-33h-94v27q3 231 254 231
q129 0 190.5 -60t61.5 -157v-20q2 -65 -30 -112t-91 -64q127 -40 127 -193v-24q0 -107 -63.5 -166.5t-194.5 -59.5zM451 0l788 1671h96l-788 -1671h-96zM1145 174v82l362 580h90v-584h86v-78h-86v-174h-92v174h-360zM1227 252h278v432z" />
    <glyph glyph-name="questiondown" unicode="&#xbf;" horiz-adv-x="978" 
d="M481 -360q-114 0 -199 31.5t-134 87t-72 124t-23 150.5q0 77 22 142t57.5 111.5t78 89.5t85 87.5t78 94.5t57.5 121t22 157v30h116v-30q0 -93 -22 -170t-56.5 -130.5t-76.5 -100.5t-84.5 -89.5t-77 -87t-56.5 -104t-22 -129.5q0 -136 76.5 -210.5t232.5 -74.5
q92 0 156.5 26.5t100.5 78t51.5 116t15.5 150.5v69h121v-67q0 -60 -8 -113.5t-27 -108.5t-53 -99t-82 -79t-118.5 -54t-158.5 -19zM393 1239q0 49 35 81t82 32q48 0 81.5 -31.5t33.5 -81.5q0 -53 -33 -85t-82 -32q-48 0 -82.5 32.5t-34.5 84.5z" />
    <glyph glyph-name="Agrave" unicode="&#xc0;" horiz-adv-x="1159" 
d="M41 0l459 1671h159l457 -1671h-129l-100 375h-617l-98 -375h-131zM180 1944l21 79l776 -151l-21 -78zM299 481h561l-278 1049l-4 12l-3 -10z" />
    <glyph glyph-name="Aacute" unicode="&#xc1;" horiz-adv-x="1159" 
d="M41 0l459 1671h159l457 -1671h-129l-100 375h-617l-98 -375h-131zM205 1888l727 152l20 -80l-727 -150zM299 481h561l-278 1049l-4 12l-3 -10z" />
    <glyph glyph-name="Acircumflex" unicode="&#xc2;" horiz-adv-x="1159" 
d="M41 0l459 1671h159l457 -1671h-129l-100 375h-617l-98 -375h-131zM246 1802l266 246h143l260 -246h-147l-184 178l-193 -178h-145zM299 481h561l-278 1049l-4 12l-3 -10z" />
    <glyph glyph-name="Atilde" unicode="&#xc3;" horiz-adv-x="1159" 
d="M41 0l459 1671h159l457 -1671h-129l-100 375h-617l-98 -375h-131zM209 1810q0 111 55.5 164.5t149.5 53.5q51 0 90.5 -15.5t65 -38t48 -45t52 -38t65.5 -15.5q111 0 111 131h102q0 -112 -57 -164.5t-152 -52.5q-53 0 -93.5 15.5t-66 38t-48 45t-51 38t-62.5 15.5
q-54 0 -80.5 -35.5t-26.5 -96.5h-102zM299 481h561l-278 1049l-4 12l-3 -10z" />
    <glyph glyph-name="Adieresis" unicode="&#xc4;" horiz-adv-x="1159" 
d="M41 0l459 1671h159l457 -1671h-129l-100 375h-617l-98 -375h-131zM281 1907q0 43 26 67.5t64 24.5q39 0 65.5 -24.5t26.5 -67.5q0 -38 -27 -63t-65 -25q-37 0 -63.5 25t-26.5 63zM299 481h561l-278 1049l-4 12l-3 -10zM696 1907q0 43 26 67.5t64 24.5t65.5 -25t27.5 -67
q0 -37 -28.5 -62.5t-64.5 -25.5q-37 0 -63.5 25t-26.5 63z" />
    <glyph glyph-name="Aring" unicode="&#xc5;" horiz-adv-x="1159" 
d="M41 0l459 1671h159l457 -1671h-129l-100 375h-617l-98 -375h-131zM299 481h561l-278 1049l-4 12l-3 -10zM414 1929q0 71 49.5 118.5t116.5 47.5t116 -47.5t49 -118.5t-49 -118.5t-116 -47.5t-116.5 47.5t-49.5 118.5zM489 1929q0 -40 25 -65t66 -25t65.5 25t24.5 65
t-24.5 65t-65.5 25t-66 -25t-25 -65z" />
    <glyph glyph-name="AE" unicode="&#xc6;" horiz-adv-x="1544" 
d="M27 0l526 1671h895v-106h-574v-676h545v-107h-545v-676h574v-106h-698v387h-474l-120 -387h-129zM309 494h441v1071h-109z" />
    <glyph glyph-name="Ccedilla" unicode="&#xc7;" horiz-adv-x="1306" 
d="M524 -342q147 0 205.5 15.5t58.5 66.5q0 52 -56.5 62t-166.5 -9l45 189q-250 17 -375.5 179t-125.5 421v512q0 130 33.5 237.5t100.5 188.5t174.5 126.5t246.5 45.5q130 0 232.5 -40t168.5 -111t101 -166.5t38 -209.5l2 -178h-131v184q-6 206 -113 309t-296 103
q-210 0 -319 -123t-109 -362v-520q0 -244 108.5 -367t317.5 -123q194 0 299.5 103.5t111.5 312.5v184h131l-2 -178q-4 -150 -60 -265.5t-170 -186.5t-276 -78l-30 -115q225 32 225 -125q0 -92 -92.5 -128t-278.5 -36z" />
    <glyph glyph-name="Egrave" unicode="&#xc8;" horiz-adv-x="1118" 
d="M164 0v1671h856v-106h-731v-676h704v-107h-704v-676h731v-106h-856zM195 1944l20 79l776 -151l-20 -78z" />
    <glyph glyph-name="Eacute" unicode="&#xc9;" horiz-adv-x="1118" 
d="M164 0v1671h856v-106h-731v-676h704v-107h-704v-676h731v-106h-856zM219 1888l727 152l21 -80l-727 -150z" />
    <glyph glyph-name="Ecircumflex" unicode="&#xca;" horiz-adv-x="1118" 
d="M164 0v1671h856v-106h-731v-676h704v-107h-704v-676h731v-106h-856zM258 1802l266 246h144l260 -246h-148l-184 178l-193 -178h-145z" />
    <glyph glyph-name="Edieresis" unicode="&#xcb;" horiz-adv-x="1118" 
d="M164 0v1671h856v-106h-731v-676h704v-107h-704v-676h731v-106h-856zM295 1907q0 43 26 67.5t64 24.5q39 0 65.5 -24.5t26.5 -67.5q0 -38 -27 -63t-65 -25q-37 0 -63.5 25t-26.5 63zM711 1907q0 43 26 67.5t64 24.5q37 0 64.5 -25t27.5 -67q0 -37 -28 -62.5t-64 -25.5
q-37 0 -63.5 25t-26.5 63z" />
    <glyph glyph-name="Igrave" unicode="&#xcc;" horiz-adv-x="768" 
d="M102 0v113h220v1446h-220v112h564v-112h-220v-1446h220v-113h-564zM-16 1944l20 79l776 -151l-20 -78z" />
    <glyph glyph-name="Iacute" unicode="&#xcd;" horiz-adv-x="768" 
d="M102 0v113h220v1446h-220v112h564v-112h-220v-1446h220v-113h-564zM8 1888l727 152l21 -80l-727 -150z" />
    <glyph glyph-name="Icircumflex" unicode="&#xce;" horiz-adv-x="768" 
d="M102 0v113h220v1446h-220v112h564v-112h-220v-1446h220v-113h-564zM49 1802l266 246h144l260 -246h-148l-184 178l-192 -178h-146z" />
    <glyph glyph-name="Idieresis" unicode="&#xcf;" horiz-adv-x="768" 
d="M102 0v113h220v1446h-220v112h564v-112h-220v-1446h220v-113h-564zM84 1907q0 43 26 67.5t64 24.5q39 0 65.5 -24.5t26.5 -67.5q0 -38 -27 -63t-65 -25q-37 0 -63.5 25t-26.5 63zM500 1907q0 43 26 67.5t64 24.5q37 0 64.5 -25t27.5 -67q0 -37 -28 -62.5t-64 -25.5
q-37 0 -63.5 25t-26.5 63z" />
    <glyph glyph-name="Eth" unicode="&#xd0;" horiz-adv-x="1402" 
d="M250 0v805h-217v86h217v780h471q107 0 191 -17t156.5 -58.5t120 -109t74.5 -172t27 -243.5v-471q0 -139 -27 -243t-74.5 -171.5t-120 -109.5t-156.5 -59t-191 -17h-471zM375 104h344q163 0 257.5 46t139.5 153.5t45 294.5v475q0 187 -45 294.5t-139.5 153.5t-257.5 46
h-344v-676h444v-86h-444v-701z" />
    <glyph glyph-name="Ntilde" unicode="&#xd1;" horiz-adv-x="1359" 
d="M164 0v1671h123l792 -1417v1417h119v-1671h-123l-792 1417v-1417h-119zM311 1810q0 111 55.5 164.5t149.5 53.5q51 0 91 -15.5t65 -38t48 -45t52.5 -38t65.5 -15.5q110 0 110 131h103q0 -112 -57 -164.5t-152 -52.5q-53 0 -94 15.5t-66.5 38t-48 45t-51 38t-62.5 15.5
q-53 0 -79.5 -35.5t-26.5 -96.5h-103z" />
    <glyph glyph-name="Ograve" unicode="&#xd2;" horiz-adv-x="1333" 
d="M666 -20q-141 0 -249 45.5t-174.5 127.5t-100 189.5t-33.5 237.5v514q0 128 34 235.5t100.5 189t174.5 127.5t248 46q141 0 249.5 -46t175 -127.5t100.5 -189t34 -235.5v-514q0 -130 -34 -237.5t-100.5 -189.5t-175 -127.5t-249.5 -45.5zM238 578q0 -240 111 -364
t317 -124q208 0 319 123.5t111 364.5v518q0 237 -111.5 361t-318.5 124q-206 0 -317 -124t-111 -361v-518zM266 1944l21 79l776 -151l-21 -78z" />
    <glyph glyph-name="Oacute" unicode="&#xd3;" horiz-adv-x="1333" 
d="M666 -20q-141 0 -249 45.5t-174.5 127.5t-100 189.5t-33.5 237.5v514q0 128 34 235.5t100.5 189t174.5 127.5t248 46q141 0 249.5 -46t175 -127.5t100.5 -189t34 -235.5v-514q0 -130 -34 -237.5t-100.5 -189.5t-175 -127.5t-249.5 -45.5zM238 578q0 -240 111 -364
t317 -124q208 0 319 123.5t111 364.5v518q0 237 -111.5 361t-318.5 124q-206 0 -317 -124t-111 -361v-518zM291 1888l727 152l20 -80l-727 -150z" />
    <glyph glyph-name="Ocircumflex" unicode="&#xd4;" horiz-adv-x="1333" 
d="M666 -20q-141 0 -249 45.5t-174.5 127.5t-100 189.5t-33.5 237.5v514q0 128 34 235.5t100.5 189t174.5 127.5t248 46q141 0 249.5 -46t175 -127.5t100.5 -189t34 -235.5v-514q0 -130 -34 -237.5t-100.5 -189.5t-175 -127.5t-249.5 -45.5zM238 578q0 -240 111 -364
t317 -124q208 0 319 123.5t111 364.5v518q0 237 -111.5 361t-318.5 124q-206 0 -317 -124t-111 -361v-518zM332 1802l266 246h143l260 -246h-147l-184 178l-193 -178h-145z" />
    <glyph glyph-name="Otilde" unicode="&#xd5;" horiz-adv-x="1333" 
d="M666 -20q-141 0 -249 45.5t-174.5 127.5t-100 189.5t-33.5 237.5v514q0 128 34 235.5t100.5 189t174.5 127.5t248 46q141 0 249.5 -46t175 -127.5t100.5 -189t34 -235.5v-514q0 -130 -34 -237.5t-100.5 -189.5t-175 -127.5t-249.5 -45.5zM238 578q0 -240 111 -364
t317 -124q208 0 319 123.5t111 364.5v518q0 237 -111.5 361t-318.5 124q-206 0 -317 -124t-111 -361v-518zM295 1810q0 111 55.5 164.5t149.5 53.5q51 0 90.5 -15.5t65 -38t48 -45t52 -38t65.5 -15.5q111 0 111 131h102q0 -112 -57 -164.5t-152 -52.5q-53 0 -93.5 15.5
t-66 38t-48 45t-51 38t-62.5 15.5q-54 0 -80.5 -35.5t-26.5 -96.5h-102z" />
    <glyph glyph-name="Odieresis" unicode="&#xd6;" horiz-adv-x="1333" 
d="M666 -20q-141 0 -249 45.5t-174.5 127.5t-100 189.5t-33.5 237.5v514q0 128 34 235.5t100.5 189t174.5 127.5t248 46q141 0 249.5 -46t175 -127.5t100.5 -189t34 -235.5v-514q0 -130 -34 -237.5t-100.5 -189.5t-175 -127.5t-249.5 -45.5zM238 578q0 -240 111 -364
t317 -124q208 0 319 123.5t111 364.5v518q0 237 -111.5 361t-318.5 124q-206 0 -317 -124t-111 -361v-518zM367 1907q0 43 26 67.5t64 24.5q39 0 65.5 -24.5t26.5 -67.5q0 -38 -27 -63t-65 -25q-37 0 -63.5 25t-26.5 63zM782 1907q0 43 26 67.5t64 24.5t65.5 -25t27.5 -67
q0 -37 -28.5 -62.5t-64.5 -25.5q-37 0 -63.5 25t-26.5 63z" />
    <glyph glyph-name="multiply" unicode="&#xd7;" horiz-adv-x="1064" 
d="M147 1276l383 -383l385 387l64 -61l-387 -388l387 -387l-61 -61l-388 387l-383 -383l-61 62l383 382l-383 383z" />
    <glyph glyph-name="Oslash" unicode="&#xd8;" horiz-adv-x="1333" 
d="M666 -20q-212 0 -351 104l-47 -88h-108l84 156q-135 156 -135 428v514q0 128 34 235.5t100.5 189t174.5 127.5t248 46q212 0 352 -105l49 90h109l-86 -159q135 -156 135 -424v-514q0 -130 -34 -237.5t-100.5 -189.5t-175 -127.5t-249.5 -45.5zM238 578q0 -188 69 -308
l654 1211q-106 100 -295 100q-206 0 -317 -124t-111 -361v-518zM373 188q107 -98 293 -98q208 0 319 123.5t111 364.5v518q0 184 -70 305z" />
    <glyph glyph-name="Ugrave" unicode="&#xd9;" horiz-adv-x="1323" 
d="M662 -20q-274 0 -391 129.5t-117 402.5v1159h125v-1165q0 -127 25.5 -211.5t78.5 -129.5t118.5 -62t160.5 -17q76 0 131.5 10t105 37.5t80 74t48 121t17.5 177.5v1165h127v-1159q0 -275 -118.5 -403.5t-390.5 -128.5zM262 1944l21 79l776 -151l-21 -78z" />
    <glyph glyph-name="Uacute" unicode="&#xda;" horiz-adv-x="1323" 
d="M662 -20q-274 0 -391 129.5t-117 402.5v1159h125v-1165q0 -127 25.5 -211.5t78.5 -129.5t118.5 -62t160.5 -17q76 0 131.5 10t105 37.5t80 74t48 121t17.5 177.5v1165h127v-1159q0 -275 -118.5 -403.5t-390.5 -128.5zM287 1888l727 152l20 -80l-727 -150z" />
    <glyph glyph-name="Ucircumflex" unicode="&#xdb;" horiz-adv-x="1323" 
d="M662 -20q-274 0 -391 129.5t-117 402.5v1159h125v-1165q0 -127 25.5 -211.5t78.5 -129.5t118.5 -62t160.5 -17q76 0 131.5 10t105 37.5t80 74t48 121t17.5 177.5v1165h127v-1159q0 -275 -118.5 -403.5t-390.5 -128.5zM326 1802l266 246h143l260 -246h-147l-184 178
l-193 -178h-145z" />
    <glyph glyph-name="Udieresis" unicode="&#xdc;" horiz-adv-x="1323" 
d="M662 -20q-274 0 -391 129.5t-117 402.5v1159h125v-1165q0 -127 25.5 -211.5t78.5 -129.5t118.5 -62t160.5 -17q76 0 131.5 10t105 37.5t80 74t48 121t17.5 177.5v1165h127v-1159q0 -275 -118.5 -403.5t-390.5 -128.5zM362 1907q0 43 26.5 67.5t64.5 24.5q39 0 65.5 -24.5
t26.5 -67.5q0 -38 -27 -63t-65 -25q-37 0 -64 25t-27 63zM778 1907q0 43 26 67.5t64 24.5t65.5 -25t27.5 -67q0 -37 -28.5 -62.5t-64.5 -25.5q-37 0 -63.5 25t-26.5 63z" />
    <glyph glyph-name="Yacute" unicode="&#xdd;" horiz-adv-x="1173" 
d="M524 0v586l-493 1085h135l420 -940l420 940h137l-494 -1085v-586h-125zM213 1888l727 152l21 -80l-728 -150z" />
    <glyph glyph-name="Thorn" unicode="&#xde;" horiz-adv-x="1284" 
d="M164 0v1671h121v-295h415q252 0 369 -124.5t117 -385.5v-43q0 -262 -118.5 -392t-367.5 -130h-415v-301h-121zM285 406h411q190 0 275.5 96t85.5 315v55q0 217 -85 308.5t-276 91.5h-411v-866z" />
    <glyph glyph-name="germandbls" unicode="&#xdf;" horiz-adv-x="1185" 
d="M152 0v1255q0 219 108.5 328t345.5 109q229 0 340 -101.5t111 -292.5v-63q0 -277 -238 -363q279 -81 279 -393v-33q0 -236 -115.5 -341t-347.5 -105h-246v102h229q188 0 272.5 75.5t84.5 266.5v39q0 45 -6 82t-20.5 77t-42.5 70t-69 54.5t-103 37.5t-142 13h-203v103h201
q192 0 269 76.5t77 234.5v65q0 160 -81.5 226.5t-248.5 66.5q-175 0 -254.5 -73t-79.5 -261v-1255h-120z" />
    <glyph glyph-name="agrave" unicode="&#xe0;" horiz-adv-x="1124" 
d="M862 0v225q-50 -122 -162 -183.5t-256 -61.5q-76 0 -139 18.5t-112.5 57t-77 104t-27.5 153.5q0 277 326 387l129 43q146 58 199 92q119 76 120 181v12q0 98 -66.5 159.5t-215.5 61.5q-160 0 -249 -78.5t-89 -232.5v-59h-121v55q0 64 14 122t47.5 113t84.5 95t131 64
t180 24q114 0 196 -29.5t126 -81.5t63.5 -112t19.5 -132v-997h-121zM160 1604l20 79l776 -151l-20 -78zM209 319q0 -116 65 -176.5t193 -60.5q80 0 151 31t125.5 88.5t86.5 147t32 198.5v289q-20 -57 -91 -99t-185 -84l-117 -43q-127 -48 -193.5 -116t-66.5 -175z" />
    <glyph glyph-name="aacute" unicode="&#xe1;" horiz-adv-x="1124" 
d="M862 0v225q-50 -122 -162 -183.5t-256 -61.5q-76 0 -139 18.5t-112.5 57t-77 104t-27.5 153.5q0 277 326 387l129 43q146 58 199 92q119 76 120 181v12q0 98 -66.5 159.5t-215.5 61.5q-160 0 -249 -78.5t-89 -232.5v-59h-121v55q0 64 14 122t47.5 113t84.5 95t131 64
t180 24q114 0 196 -29.5t126 -81.5t63.5 -112t19.5 -132v-997h-121zM184 1548l727 152l21 -80l-727 -150zM209 319q0 -116 65 -176.5t193 -60.5q80 0 151 31t125.5 88.5t86.5 147t32 198.5v289q-20 -57 -91 -99t-185 -84l-117 -43q-127 -48 -193.5 -116t-66.5 -175z" />
    <glyph glyph-name="acircumflex" unicode="&#xe2;" horiz-adv-x="1124" 
d="M862 0v225q-50 -122 -162 -183.5t-256 -61.5q-76 0 -139 18.5t-112.5 57t-77 104t-27.5 153.5q0 277 326 387l129 43q146 58 199 92q119 76 120 181v12q0 98 -66.5 159.5t-215.5 61.5q-160 0 -249 -78.5t-89 -232.5v-59h-121v55q0 64 14 122t47.5 113t84.5 95t131 64
t180 24q114 0 196 -29.5t126 -81.5t63.5 -112t19.5 -132v-997h-121zM209 319q0 -116 65 -176.5t193 -60.5q80 0 151 31t125.5 88.5t86.5 147t32 198.5v289q-20 -57 -91 -99t-185 -84l-117 -43q-127 -48 -193.5 -116t-66.5 -175zM225 1462l267 246h143l260 -246h-147
l-185 178l-192 -178h-146z" />
    <glyph glyph-name="atilde" unicode="&#xe3;" horiz-adv-x="1124" 
d="M862 0v225q-50 -122 -162 -183.5t-256 -61.5q-76 0 -139 18.5t-112.5 57t-77 104t-27.5 153.5q0 277 326 387l129 43q146 58 199 92q119 76 120 181v12q0 98 -66.5 159.5t-215.5 61.5q-160 0 -249 -78.5t-89 -232.5v-59h-121v55q0 64 14 122t47.5 113t84.5 95t131 64
t180 24q114 0 196 -29.5t126 -81.5t63.5 -112t19.5 -132v-997h-121zM188 1470q0 111 55.5 164.5t149.5 53.5q51 0 91 -15.5t65 -38t48 -45t52.5 -38t65.5 -15.5q110 0 110 131h103q0 -112 -57 -164.5t-152 -52.5q-53 0 -94 15.5t-66.5 38t-48 45t-51 38t-62.5 15.5
q-53 0 -79.5 -35.5t-26.5 -96.5h-103zM209 319q0 -116 65 -176.5t193 -60.5q80 0 151 31t125.5 88.5t86.5 147t32 198.5v289q-20 -57 -91 -99t-185 -84l-117 -43q-127 -48 -193.5 -116t-66.5 -175z" />
    <glyph glyph-name="adieresis" unicode="&#xe4;" horiz-adv-x="1124" 
d="M862 0v225q-50 -122 -162 -183.5t-256 -61.5q-76 0 -139 18.5t-112.5 57t-77 104t-27.5 153.5q0 277 326 387l129 43q146 58 199 92q119 76 120 181v12q0 98 -66.5 159.5t-215.5 61.5q-160 0 -249 -78.5t-89 -232.5v-59h-121v55q0 64 14 122t47.5 113t84.5 95t131 64
t180 24q114 0 196 -29.5t126 -81.5t63.5 -112t19.5 -132v-997h-121zM209 319q0 -116 65 -176.5t193 -60.5q80 0 151 31t125.5 88.5t86.5 147t32 198.5v289q-20 -57 -91 -99t-185 -84l-117 -43q-127 -48 -193.5 -116t-66.5 -175zM260 1567q0 43 26 67.5t64 24.5
q39 0 65.5 -24.5t26.5 -67.5q0 -38 -27 -63t-65 -25q-37 0 -63.5 25t-26.5 63zM676 1567q0 43 26 67.5t64 24.5q37 0 64.5 -25t27.5 -67q0 -37 -28 -62.5t-64 -25.5q-37 0 -63.5 25t-26.5 63z" />
    <glyph glyph-name="aring" unicode="&#xe5;" horiz-adv-x="1124" 
d="M862 0v225q-50 -122 -162 -183.5t-256 -61.5q-76 0 -139 18.5t-112.5 57t-77 104t-27.5 153.5q0 277 326 387l129 43q146 58 199 92q119 76 120 181v12q0 98 -66.5 159.5t-215.5 61.5q-160 0 -249 -78.5t-89 -232.5v-59h-121v55q0 64 14 122t47.5 113t84.5 95t131 64
t180 24q114 0 196 -29.5t126 -81.5t63.5 -112t19.5 -132v-997h-121zM209 319q0 -116 65 -176.5t193 -60.5q80 0 151 31t125.5 88.5t86.5 147t32 198.5v289q-20 -57 -91 -99t-185 -84l-117 -43q-127 -48 -193.5 -116t-66.5 -175zM393 1589q0 71 49.5 118.5t116.5 47.5
t116.5 -47.5t49.5 -118.5t-49.5 -118.5t-116.5 -47.5t-116.5 47.5t-49.5 118.5zM469 1589q0 -40 24.5 -65t65.5 -25t65.5 25t24.5 65t-24.5 65t-65.5 25t-65.5 -25t-24.5 -65z" />
    <glyph glyph-name="ae" unicode="&#xe6;" horiz-adv-x="1757" 
d="M440 -20q-75 0 -139 19t-116 57t-81.5 104t-29.5 153q0 144 85 241t267 165l137 35q39 15 61.5 24.5t55 26.5t51.5 34.5t38 42t27.5 55.5t8.5 69q0 108 -72 176.5t-201 68.5q-143 0 -217.5 -87.5t-74.5 -243.5v-37h-121v35q0 82 21.5 155.5t67.5 138t129 102.5t195 38
q257 0 342 -199q106 199 361 199q205 0 315.5 -128t110.5 -372v-197h-746v-157q0 -213 84.5 -313.5t231.5 -100.5q133 0 211 77.5t88 239.5v23h123v-23q-14 -194 -120.5 -307.5t-299.5 -113.5q-265 0 -375 235q-58 -116 -169.5 -175.5t-248.5 -59.5zM195 313
q0 -105 69.5 -169t190.5 -64q152 0 250.5 84.5t99.5 228.5v395q-39 -61 -217 -131l-160 -51q-233 -89 -233 -293zM915 752h623v116q0 381 -303 381q-320 0 -320 -407v-90z" />
    <glyph glyph-name="ccedilla" unicode="&#xe7;" horiz-adv-x="1097" 
d="M885 899q-11 350 -320 350q-168 0 -256 -99t-88 -314v-340q0 -414 342 -414q308 0 322 350l2 107h121l-2 -103q-9 -203 -107.5 -322.5t-290.5 -131.5l-30 -117q225 32 225 -125q0 -92 -92.5 -128t-278.5 -36l2 82q147 0 205.5 15.5t58.5 66.5q0 52 -56.5 62t-166.5 -9
l45 189q-211 12 -316.5 146.5t-105.5 371.5v331q0 247 116.5 384t346.5 137q214 0 326.5 -121t118.5 -336l2 -102h-121z" />
    <glyph glyph-name="egrave" unicode="&#xe8;" horiz-adv-x="1103" 
d="M956 1532l-20 -78l-776 150l20 79zM98 498v336q0 245 117 381.5t348 136.5q219 0 332 -127.5t113 -374.5v-195h-787v-161q0 -412 340 -412q299 0 316 317v29h122v-27q-13 -197 -120.5 -309t-317.5 -112q-230 0 -346.5 135.5t-116.5 382.5zM221 752h666v118
q-1 105 -24 180t-67 117.5t-101 62t-132 19.5q-168 0 -255 -97.5t-87 -313.5v-86z" />
    <glyph glyph-name="eacute" unicode="&#xe9;" horiz-adv-x="1103" 
d="M205 1470l-21 78l727 152l21 -80zM98 498v336q0 245 117 381.5t348 136.5q219 0 332 -127.5t113 -374.5v-195h-787v-161q0 -412 340 -412q299 0 316 317v29h122v-27q-13 -197 -120.5 -309t-317.5 -112q-230 0 -346.5 135.5t-116.5 382.5zM221 752h666v118q-1 105 -24 180
t-67 117.5t-101 62t-132 19.5q-168 0 -255 -97.5t-87 -313.5v-86z" />
    <glyph glyph-name="ecircumflex" unicode="&#xea;" horiz-adv-x="1103" 
d="M223 1462l266 246h144l260 -246h-148l-184 178l-192 -178h-146zM98 498v336q0 245 117 381.5t348 136.5q219 0 332 -127.5t113 -374.5v-195h-787v-161q0 -412 340 -412q299 0 316 317v29h122v-27q-13 -197 -120.5 -309t-317.5 -112q-230 0 -346.5 135.5t-116.5 382.5z
M221 752h666v118q-1 105 -24 180t-67 117.5t-101 62t-132 19.5q-168 0 -255 -97.5t-87 -313.5v-86z" />
    <glyph glyph-name="edieresis" unicode="&#xeb;" horiz-adv-x="1103" 
d="M764 1479q-37 0 -63.5 25t-26.5 63q0 43 26 67.5t64 24.5q37 0 64.5 -25t27.5 -67q0 -37 -28 -62.5t-64 -25.5zM98 498v336q0 245 117 381.5t348 136.5q219 0 332 -127.5t113 -374.5v-195h-787v-161q0 -412 340 -412q299 0 316 317v29h122v-27q-13 -197 -120.5 -309
t-317.5 -112q-230 0 -346.5 135.5t-116.5 382.5zM221 752h666v118q-1 105 -24 180t-67 117.5t-101 62t-132 19.5q-168 0 -255 -97.5t-87 -313.5v-86zM258 1567q0 43 26 67.5t64 24.5q39 0 65.5 -24.5t26.5 -67.5q0 -38 -27 -63t-65 -25q-37 0 -63.5 25t-26.5 63z" />
    <glyph glyph-name="igrave" unicode="&#xec;" horiz-adv-x="423" 
d="M152 1331h120v-1331h-120v1331zM-47 1608l29 75l489 -155l-29 -74z" />
    <glyph glyph-name="iacute" unicode="&#xed;" horiz-adv-x="423" 
d="M152 1331h120v-1331h-120v1331zM-49 1528l489 155l29 -75l-489 -154z" />
    <glyph glyph-name="icircumflex" unicode="&#xee;" horiz-adv-x="423" 
d="M152 1331h120v-1331h-120v1331zM-18 1454l165 229h132l163 -229h-112l-117 162l-119 -162h-112z" />
    <glyph glyph-name="idieresis" unicode="&#xef;" horiz-adv-x="423" 
d="M152 1331h120v-1331h-120v1331zM-33 1567q0 40 25 65t63 25q36 0 62 -25t26 -65q0 -37 -26 -61.5t-62 -24.5q-37 0 -62.5 24t-25.5 62zM301 1567q0 40 25 65t61 25t62 -25t26 -65q0 -37 -26 -61.5t-62 -24.5t-61 24t-25 62z" />
    <glyph glyph-name="eth" unicode="&#xf0;" horiz-adv-x="1097" 
d="M553 -20q-232 0 -349.5 120t-117.5 355v127q0 94 24.5 174.5t75.5 146t139 102.5t205 37q230 0 326 -145q-61 300 -291 485l-424 -198v102l338 158q-140 89 -327 151l38 97q251 -81 406 -195l365 170v-100l-283 -131q174 -151 248.5 -358.5t74.5 -477.5v-113
q0 -261 -109 -384t-339 -123zM209 455q0 -194 83 -283.5t255 -89.5q181 0 257.5 91.5t76.5 281.5v112q0 91 -18.5 159t-48 108t-73 64.5t-86.5 33t-96 8.5q-179 0 -264.5 -88t-85.5 -270v-127z" />
    <glyph glyph-name="ntilde" unicode="&#xf1;" 
d="M272 1331v-196q19 40 47 74.5t71.5 68.5t108.5 54t144 20q186 0 284.5 -112t98.5 -331v-909h-121v903q0 348 -287 348q-80 0 -143 -26.5t-100 -66.5t-61 -92.5t-33 -99.5t-9 -92v-874h-120v1331h120zM229 1470q0 111 55.5 164.5t149.5 53.5q51 0 91 -15.5t65 -38t48 -45
t52.5 -38t65.5 -15.5q110 0 110 131h103q0 -112 -57 -164.5t-152 -52.5q-53 0 -94 15.5t-66.5 38t-48 45t-51 38t-62.5 15.5q-53 0 -79.5 -35.5t-26.5 -96.5h-103z" />
    <glyph glyph-name="ograve" unicode="&#xf2;" horiz-adv-x="1120" 
d="M559 -20q-229 0 -345 136t-116 384v331q0 247 116 384t345 137q230 0 346.5 -137t116.5 -384v-331q0 -248 -116.5 -384t-346.5 -136zM160 1604l20 79l776 -151l-20 -78zM221 496q0 -414 338 -414q340 0 340 414v340q0 413 -340 413q-338 0 -338 -413v-340z" />
    <glyph glyph-name="oacute" unicode="&#xf3;" horiz-adv-x="1120" 
d="M559 -20q-229 0 -345 136t-116 384v331q0 247 116 384t345 137q230 0 346.5 -137t116.5 -384v-331q0 -248 -116.5 -384t-346.5 -136zM184 1548l727 152l21 -80l-727 -150zM221 496q0 -414 338 -414q340 0 340 414v340q0 413 -340 413q-338 0 -338 -413v-340z" />
    <glyph glyph-name="ocircumflex" unicode="&#xf4;" horiz-adv-x="1120" 
d="M559 -20q-229 0 -345 136t-116 384v331q0 247 116 384t345 137q230 0 346.5 -137t116.5 -384v-331q0 -248 -116.5 -384t-346.5 -136zM221 496q0 -414 338 -414q340 0 340 414v340q0 413 -340 413q-338 0 -338 -413v-340zM225 1462l267 246h143l260 -246h-147l-185 178
l-192 -178h-146z" />
    <glyph glyph-name="otilde" unicode="&#xf5;" horiz-adv-x="1120" 
d="M559 -20q-229 0 -345 136t-116 384v331q0 247 116 384t345 137q230 0 346.5 -137t116.5 -384v-331q0 -248 -116.5 -384t-346.5 -136zM188 1470q0 111 55.5 164.5t149.5 53.5q51 0 91 -15.5t65 -38t48 -45t52.5 -38t65.5 -15.5q110 0 110 131h103q0 -112 -57 -164.5
t-152 -52.5q-53 0 -94 15.5t-66.5 38t-48 45t-51 38t-62.5 15.5q-53 0 -79.5 -35.5t-26.5 -96.5h-103zM221 496q0 -414 338 -414q340 0 340 414v340q0 413 -340 413q-338 0 -338 -413v-340z" />
    <glyph glyph-name="odieresis" unicode="&#xf6;" horiz-adv-x="1120" 
d="M559 -20q-229 0 -345 136t-116 384v331q0 247 116 384t345 137q230 0 346.5 -137t116.5 -384v-331q0 -248 -116.5 -384t-346.5 -136zM221 496q0 -414 338 -414q340 0 340 414v340q0 413 -340 413q-338 0 -338 -413v-340zM260 1567q0 43 26 67.5t64 24.5q39 0 65.5 -24.5
t26.5 -67.5q0 -38 -27 -63t-65 -25q-37 0 -63.5 25t-26.5 63zM676 1567q0 43 26 67.5t64 24.5q37 0 64.5 -25t27.5 -67q0 -37 -28 -62.5t-64 -25.5q-37 0 -63.5 25t-26.5 63z" />
    <glyph glyph-name="divide" unicode="&#xf7;" horiz-adv-x="1359" 
d="M680 1030q-26 0 -44 18t-18 44q0 25 18 43t44 18q25 0 43 -18t18 -43q0 -26 -18 -44t-43 -18zM92 788v86h1176v-86h-1176zM618 571q0 25 18 43.5t44 18.5q25 0 43 -18.5t18 -43.5q0 -26 -18 -43.5t-43 -17.5q-26 0 -44 17.5t-18 43.5z" />
    <glyph glyph-name="oslash" unicode="&#xf8;" horiz-adv-x="1120" 
d="M559 -20q-150 0 -256 61l-106 -215h-97l133 270q-135 132 -135 404v331q0 247 116 384t345 137q151 0 260 -64l107 217h94l-133 -270q135 -135 135 -404v-331q0 -248 -116.5 -384t-346.5 -136zM221 496q0 -187 68 -287l481 981q-79 59 -211 59q-338 0 -338 -413v-340z
M350 141q79 -59 209 -59q340 0 340 414v340q0 186 -68 286z" />
    <glyph glyph-name="ugrave" unicode="&#xf9;" 
d="M893 0v197q-19 -40 -47 -74.5t-71.5 -68.5t-108.5 -54t-144 -20q-186 0 -284.5 111.5t-98.5 330.5v909h121v-903q0 -348 287 -348q80 0 143 26.5t100 66.5t61 92.5t33 99.5t9 92v874h121v-1331h-121zM168 1604l20 79l777 -151l-21 -78z" />
    <glyph glyph-name="uacute" unicode="&#xfa;" 
d="M893 0v197q-19 -40 -47 -74.5t-71.5 -68.5t-108.5 -54t-144 -20q-186 0 -284.5 111.5t-98.5 330.5v909h121v-903q0 -348 287 -348q80 0 143 26.5t100 66.5t61 92.5t33 99.5t9 92v874h121v-1331h-121zM193 1548l727 152l20 -80l-727 -150z" />
    <glyph glyph-name="ucircumflex" unicode="&#xfb;" 
d="M893 0v197q-19 -40 -47 -74.5t-71.5 -68.5t-108.5 -54t-144 -20q-186 0 -284.5 111.5t-98.5 330.5v909h121v-903q0 -348 287 -348q80 0 143 26.5t100 66.5t61 92.5t33 99.5t9 92v874h121v-1331h-121zM231 1462l267 246h143l260 -246h-147l-185 178l-192 -178h-146z" />
    <glyph glyph-name="udieresis" unicode="&#xfc;" 
d="M893 0v197q-19 -40 -47 -74.5t-71.5 -68.5t-108.5 -54t-144 -20q-186 0 -284.5 111.5t-98.5 330.5v909h121v-903q0 -348 287 -348q80 0 143 26.5t100 66.5t61 92.5t33 99.5t9 92v874h121v-1331h-121zM268 1567q0 43 26 67.5t64 24.5q39 0 66 -25t27 -67
q0 -37 -27.5 -62.5t-65.5 -25.5q-37 0 -63.5 25t-26.5 63zM684 1567q0 43 26 67.5t64 24.5q37 0 64.5 -25t27.5 -67q0 -37 -28 -62.5t-64 -25.5q-37 0 -63.5 25t-26.5 63z" />
    <glyph glyph-name="yacute" unicode="&#xfd;" horiz-adv-x="1163" 
d="M893 33v164q-19 -40 -47 -74.5t-71.5 -68.5t-108.5 -54t-144 -20q-186 0 -284.5 111.5t-98.5 330.5v909h121v-903q0 -348 287 -348q80 0 143 26.5t100 66.5t61 92.5t33 99.5t9 92v874h119v-1304q0 -122 -19 -206t-64.5 -145t-123 -89.5t-191.5 -28.5h-444v102h434
q87 0 142.5 19.5t88.5 66t45.5 114t12.5 173.5zM197 1548l727 152l20 -80l-727 -150z" />
    <glyph glyph-name="thorn" unicode="&#xfe;" horiz-adv-x="1167" 
d="M272 -442h-120v2113h120v-541q17 36 44.5 71t71.5 70.5t109.5 57t143.5 21.5q200 0 313 -133.5t113 -366.5v-373q0 -238 -113.5 -369t-312.5 -131q-62 0 -117 14.5t-93.5 36.5t-71.5 52t-52.5 57t-34.5 56v-635zM272 483q0 -176 92.5 -289.5t258.5 -113.5
q162 0 242.5 106.5t80.5 292.5v367q0 186 -81.5 293.5t-243.5 107.5q-164 0 -256.5 -113.5t-92.5 -289.5v-361z" />
    <glyph glyph-name="ydieresis" unicode="&#xff;" horiz-adv-x="1163" 
d="M893 33v164q-19 -40 -47 -74.5t-71.5 -68.5t-108.5 -54t-144 -20q-186 0 -284.5 111.5t-98.5 330.5v909h121v-903q0 -348 287 -348q80 0 143 26.5t100 66.5t61 92.5t33 99.5t9 92v874h119v-1304q0 -122 -19 -206t-64.5 -145t-123 -89.5t-191.5 -28.5h-444v102h434
q87 0 142.5 19.5t88.5 66t45.5 114t12.5 173.5zM272 1567q0 43 26 67.5t64 24.5q39 0 66 -25t27 -67q0 -37 -27.5 -62.5t-65.5 -25.5q-37 0 -63.5 25t-26.5 63zM688 1567q0 43 26 67.5t64 24.5q37 0 64.5 -25t27.5 -67q0 -37 -28 -62.5t-64 -25.5q-37 0 -63.5 25t-26.5 63z
" />
    <glyph glyph-name="Amacron" unicode="&#x100;" horiz-adv-x="1159" 
d="M41 0l459 1671h159l457 -1671h-129l-100 375h-617l-98 -375h-131zM180 1868v82h797v-82h-797zM299 481h561l-278 1049l-4 12l-3 -10z" />
    <glyph glyph-name="amacron" unicode="&#x101;" horiz-adv-x="1124" 
d="M862 0v225q-50 -122 -162 -183.5t-256 -61.5q-76 0 -139 18.5t-112.5 57t-77 104t-27.5 153.5q0 277 326 387l129 43q146 58 199 92q119 76 120 181v12q0 98 -66.5 159.5t-215.5 61.5q-160 0 -249 -78.5t-89 -232.5v-59h-121v55q0 64 14 122t47.5 113t84.5 95t131 64
t180 24q114 0 196 -29.5t126 -81.5t63.5 -112t19.5 -132v-997h-121zM160 1528v82h796v-82h-796zM209 319q0 -116 65 -176.5t193 -60.5q80 0 151 31t125.5 88.5t86.5 147t32 198.5v289q-20 -57 -91 -99t-185 -84l-117 -43q-127 -48 -193.5 -116t-66.5 -175z" />
    <glyph glyph-name="Abreve" unicode="&#x102;" horiz-adv-x="1159" 
d="M41 0l459 1671h159l457 -1671h-129l-100 375h-617l-98 -375h-131zM205 2028h102q0 -148 275 -148q268 0 268 148h102q0 -66 -27.5 -113t-79.5 -72.5t-116 -37t-147 -11.5q-377 0 -377 234zM299 481h561l-278 1049l-4 12l-3 -10z" />
    <glyph glyph-name="abreve" unicode="&#x103;" horiz-adv-x="1124" 
d="M862 0v225q-50 -122 -162 -183.5t-256 -61.5q-76 0 -139 18.5t-112.5 57t-77 104t-27.5 153.5q0 277 326 387l129 43q146 58 199 92q119 76 120 181v12q0 98 -66.5 159.5t-215.5 61.5q-160 0 -249 -78.5t-89 -232.5v-59h-121v55q0 64 14 122t47.5 113t84.5 95t131 64
t180 24q114 0 196 -29.5t126 -81.5t63.5 -112t19.5 -132v-997h-121zM184 1688h103q0 -148 274 -148q268 0 268 148h103q0 -66 -28 -113t-80 -72.5t-116 -37t-147 -11.5q-377 0 -377 234zM209 319q0 -116 65 -176.5t193 -60.5q80 0 151 31t125.5 88.5t86.5 147t32 198.5v289
q-20 -57 -91 -99t-185 -84l-117 -43q-127 -48 -193.5 -116t-66.5 -175z" />
    <glyph glyph-name="Aogonek" unicode="&#x104;" horiz-adv-x="1159" 
d="M41 0l459 1671h159l457 -1671q-107 -36 -160 -84t-53 -115q0 -66 59.5 -96.5t190.5 -30.5h25l-82 -84h-23q-126 0 -199 46t-73 139q0 89 63.5 140.5t171.5 84.5h-49l-100 375h-617l-98 -375h-131zM299 481h561l-278 1049l-4 12l-3 -10z" />
    <glyph glyph-name="aogonek" unicode="&#x105;" horiz-adv-x="1124" 
d="M862 0v225q-50 -122 -162 -183.5t-256 -61.5q-76 0 -139 18.5t-112.5 57t-77 104t-27.5 153.5q0 277 326 387l129 43q146 58 199 92q119 76 120 181v12q0 98 -66.5 159.5t-215.5 61.5q-160 0 -249 -78.5t-89 -232.5v-59h-121v55q0 64 14 122t47.5 113t84.5 95t131 64
t180 24q114 0 196 -29.5t126 -81.5t63.5 -112t19.5 -132v-997q-107 -36 -160 -84t-53 -115q0 -66 59.5 -96.5t190.5 -30.5h24l-81 -84h-23q-126 0 -199 46t-73 139q0 89 63.5 140.5t171.5 84.5h-41zM209 319q0 -116 65 -176.5t193 -60.5q80 0 151 31t125.5 88.5t86.5 147
t32 198.5v289q-20 -57 -91 -99t-185 -84l-117 -43q-127 -48 -193.5 -116t-66.5 -175z" />
    <glyph glyph-name="Cacute" unicode="&#x106;" horiz-adv-x="1306" 
d="M664 -20q-140 0 -247.5 45t-174 126.5t-100 190t-33.5 240.5v512q0 130 33.5 237.5t100.5 188.5t174.5 126.5t246.5 45.5q130 0 232.5 -40t168.5 -111t101 -166.5t38 -209.5l2 -178h-131v184q-6 206 -113 309t-296 103q-210 0 -319 -123t-109 -362v-520
q0 -244 108.5 -367t317.5 -123q194 0 299.5 103.5t111.5 312.5v184h131l-2 -178q-3 -116 -38 -212t-101 -167.5t-168.5 -111t-232.5 -39.5zM283 1888l727 152l20 -80l-727 -150z" />
    <glyph glyph-name="cacute" unicode="&#x107;" horiz-adv-x="1097" 
d="M885 899q-11 350 -320 350q-168 0 -256 -99t-88 -314v-340q0 -414 342 -414q308 0 322 350l2 107h121l-2 -103q-9 -214 -119 -335t-324 -121q-232 0 -348.5 136t-116.5 384v331q0 247 116.5 384t346.5 137q214 0 326.5 -121t118.5 -336l2 -102h-121zM190 1548l728 152
l20 -80l-727 -150z" />
    <glyph glyph-name="Ccircumflex" unicode="&#x108;" horiz-adv-x="1306" 
d="M664 -20q-140 0 -247.5 45t-174 126.5t-100 190t-33.5 240.5v512q0 130 33.5 237.5t100.5 188.5t174.5 126.5t246.5 45.5q130 0 232.5 -40t168.5 -111t101 -166.5t38 -209.5l2 -178h-131v184q-6 206 -113 309t-296 103q-210 0 -319 -123t-109 -362v-520
q0 -244 108.5 -367t317.5 -123q194 0 299.5 103.5t111.5 312.5v184h131l-2 -178q-3 -116 -38 -212t-101 -167.5t-168.5 -111t-232.5 -39.5zM322 1802l266 246h143l260 -246h-147l-185 178l-192 -178h-145z" />
    <glyph glyph-name="ccircumflex" unicode="&#x109;" horiz-adv-x="1097" 
d="M885 899q-11 350 -320 350q-168 0 -256 -99t-88 -314v-340q0 -414 342 -414q308 0 322 350l2 107h121l-2 -103q-9 -214 -119 -335t-324 -121q-232 0 -348.5 136t-116.5 384v331q0 247 116.5 384t346.5 137q214 0 326.5 -121t118.5 -336l2 -102h-121zM231 1462l267 246
h143l260 -246h-147l-185 178l-192 -178h-146z" />
    <glyph glyph-name="Cdotaccent" unicode="&#x10a;" horiz-adv-x="1306" 
d="M664 -20q-140 0 -247.5 45t-174 126.5t-100 190t-33.5 240.5v512q0 130 33.5 237.5t100.5 188.5t174.5 126.5t246.5 45.5q130 0 232.5 -40t168.5 -111t101 -166.5t38 -209.5l2 -178h-131v184q-6 206 -113 309t-296 103q-210 0 -319 -123t-109 -362v-520
q0 -244 108.5 -367t317.5 -123q194 0 299.5 103.5t111.5 312.5v184h131l-2 -178q-3 -116 -38 -212t-101 -167.5t-168.5 -111t-232.5 -39.5zM559 1898q0 40 28 68.5t70 28.5t69.5 -28.5t27.5 -68.5q0 -38 -27.5 -66t-69.5 -28t-70 28t-28 66z" />
    <glyph glyph-name="cdotaccent" unicode="&#x10b;" horiz-adv-x="1097" 
d="M885 899q-11 350 -320 350q-168 0 -256 -99t-88 -314v-340q0 -414 342 -414q308 0 322 350l2 107h121l-2 -103q-9 -214 -119 -335t-324 -121q-232 0 -348.5 136t-116.5 384v331q0 247 116.5 384t346.5 137q214 0 326.5 -121t118.5 -336l2 -102h-121zM467 1593
q0 42 28 70.5t72 28.5t71.5 -28.5t27.5 -70.5q0 -38 -28 -66t-71 -28t-71.5 28t-28.5 66z" />
    <glyph glyph-name="Ccaron" unicode="&#x10c;" horiz-adv-x="1306" 
d="M664 -20q-140 0 -247.5 45t-174 126.5t-100 190t-33.5 240.5v512q0 130 33.5 237.5t100.5 188.5t174.5 126.5t246.5 45.5q130 0 232.5 -40t168.5 -111t101 -166.5t38 -209.5l2 -178h-131v184q-6 206 -113 309t-296 103q-210 0 -319 -123t-109 -362v-520
q0 -244 108.5 -367t317.5 -123q194 0 299.5 103.5t111.5 312.5v184h131l-2 -178q-3 -116 -38 -212t-101 -167.5t-168.5 -111t-232.5 -39.5zM289 2040h153l217 -182l209 182h156l-293 -246h-143z" />
    <glyph glyph-name="ccaron" unicode="&#x10d;" horiz-adv-x="1097" 
d="M885 899q-11 350 -320 350q-168 0 -256 -99t-88 -314v-340q0 -414 342 -414q308 0 322 350l2 107h121l-2 -103q-9 -214 -119 -335t-324 -121q-232 0 -348.5 136t-116.5 384v331q0 247 116.5 384t346.5 137q214 0 326.5 -121t118.5 -336l2 -102h-121zM199 1700h153
l217 -182l209 182h156l-293 -246h-143z" />
    <glyph glyph-name="Dcaron" unicode="&#x10e;" horiz-adv-x="1316" 
d="M164 0v1671h471q107 0 191 -17t156.5 -58.5t120 -109t74.5 -172t27 -243.5v-471q0 -139 -27 -243t-74.5 -171.5t-120 -109.5t-156.5 -59t-191 -17h-471zM279 2040h153l217 -182l209 182h156l-293 -246h-143zM289 104h344q163 0 257.5 46t139.5 153.5t45 294.5v475
q0 187 -45 294.5t-139.5 153.5t-257.5 46h-344v-1463z" />
    <glyph glyph-name="dcaron" unicode="&#x10f;" horiz-adv-x="1234" 
d="M895 1671h119v-1671h-119v199q-17 -36 -44.5 -71t-71.5 -70t-109.5 -56.5t-143.5 -21.5q-200 0 -313 133t-113 366v373q0 238 113.5 369t312.5 131q77 0 141.5 -20.5t108.5 -55.5t71.5 -68.5t47.5 -70.5v534zM221 483q0 -185 82 -293t244 -108q164 0 256 113.5t92 289.5
v361q0 176 -92 289.5t-258 113.5q-162 0 -243 -107t-81 -292v-367zM1083 1184l72 487h105l-95 -487h-82z" />
    <glyph glyph-name="Dcroat" unicode="&#x110;" horiz-adv-x="1402" 
d="M250 0v805h-217v86h217v780h471q107 0 191 -17t156.5 -58.5t120 -109t74.5 -172t27 -243.5v-471q0 -139 -27 -243t-74.5 -171.5t-120 -109.5t-156.5 -59t-191 -17h-471zM375 104h344q163 0 257.5 46t139.5 153.5t45 294.5v475q0 187 -45 294.5t-139.5 153.5t-257.5 46
h-344v-676h444v-86h-444v-701z" />
    <glyph glyph-name="dcroat" unicode="&#x111;" horiz-adv-x="1167" 
d="M895 1671h119v-135h200v-84h-200v-1452h-119v199q-17 -36 -44.5 -71t-71.5 -70t-109.5 -56.5t-143.5 -21.5q-200 0 -313 133t-113 366v373q0 238 113.5 369t312.5 131q77 0 141.5 -20.5t108.5 -55.5t71.5 -68.5t47.5 -70.5v315h-457v84h457v135zM221 483q0 -185 82 -293
t244 -108q164 0 256 113.5t92 289.5v361q0 176 -92 289.5t-258 113.5q-162 0 -243 -107t-81 -292v-367z" />
    <glyph glyph-name="Emacron" unicode="&#x112;" horiz-adv-x="1118" 
d="M164 0v1671h856v-106h-731v-676h704v-107h-704v-676h731v-106h-856zM195 1868v82h796v-82h-796z" />
    <glyph glyph-name="emacron" unicode="&#x113;" horiz-adv-x="1103" 
d="M160 1528v82h796v-82h-796zM98 498v336q0 245 117 381.5t348 136.5q219 0 332 -127.5t113 -374.5v-195h-787v-161q0 -412 340 -412q299 0 316 317v29h122v-27q-13 -197 -120.5 -309t-317.5 -112q-230 0 -346.5 135.5t-116.5 382.5zM221 752h666v118q-1 105 -24 180
t-67 117.5t-101 62t-132 19.5q-168 0 -255 -97.5t-87 -313.5v-86z" />
    <glyph glyph-name="Edotaccent" unicode="&#x116;" horiz-adv-x="1118" 
d="M164 0v1671h856v-106h-731v-676h704v-107h-704v-676h731v-106h-856zM496 1898q0 40 28 68.5t70 28.5t69 -28t27 -69q0 -38 -27 -66t-69 -28t-70 28t-28 66z" />
    <glyph glyph-name="edotaccent" unicode="&#x117;" horiz-adv-x="1103" 
d="M559 1499q-43 0 -71.5 28t-28.5 66q0 42 28 70.5t72 28.5q43 0 70.5 -28.5t27.5 -70.5q0 -38 -27.5 -66t-70.5 -28zM98 498v336q0 245 117 381.5t348 136.5q219 0 332 -127.5t113 -374.5v-195h-787v-161q0 -412 340 -412q299 0 316 317v29h122v-27q-13 -197 -120.5 -309
t-317.5 -112q-230 0 -346.5 135.5t-116.5 382.5zM221 752h666v118q-1 105 -24 180t-67 117.5t-101 62t-132 19.5q-168 0 -255 -97.5t-87 -313.5v-86z" />
    <glyph glyph-name="Eogonek" unicode="&#x118;" horiz-adv-x="1118" 
d="M164 0v1671h856v-106h-731v-676h704v-107h-704v-676h731v-106q-107 -36 -160 -84t-53 -115q0 -66 59.5 -96.5t190.5 -30.5h24l-82 -84h-22q-126 0 -199 46t-73 139q0 89 63.5 140.5t171.5 84.5h-776z" />
    <glyph glyph-name="eogonek" unicode="&#x119;" horiz-adv-x="1103" 
d="M674 -410q-126 0 -199.5 46t-73.5 139q0 137 177 205h-17q-230 0 -346.5 135.5t-116.5 382.5v336q0 245 117 381.5t348 136.5q219 0 332 -127.5t113 -374.5v-195h-787v-161q0 -412 340 -412q299 0 316 317v29h122v-27q-9 -158 -81 -262.5t-209 -140.5
q-103 -36 -154 -83.5t-51 -113.5t59.5 -96.5t190.5 -30.5h24l-82 -84h-22zM221 752h666v118q-1 105 -24 180t-67 117.5t-101 62t-132 19.5q-168 0 -255 -97.5t-87 -313.5v-86z" />
    <glyph glyph-name="Ecaron" unicode="&#x11a;" horiz-adv-x="1118" 
d="M164 0v1671h856v-106h-731v-676h704v-107h-704v-676h731v-106h-856zM225 2040h154l217 -182l209 182h156l-293 -246h-144z" />
    <glyph glyph-name="ecaron" unicode="&#x11b;" horiz-adv-x="1103" 
d="M489 1454l-299 246h154l217 -182l209 182h156l-293 -246h-144zM98 498v336q0 245 117 381.5t348 136.5q219 0 332 -127.5t113 -374.5v-195h-787v-161q0 -412 340 -412q299 0 316 317v29h122v-27q-13 -197 -120.5 -309t-317.5 -112q-230 0 -346.5 135.5t-116.5 382.5z
M221 752h666v118q-1 105 -24 180t-67 117.5t-101 62t-132 19.5q-168 0 -255 -97.5t-87 -313.5v-86z" />
    <glyph glyph-name="Gcircumflex" unicode="&#x11c;" horiz-adv-x="1329" 
d="M643 -20q-130 0 -232.5 45.5t-167.5 127t-98.5 190.5t-33.5 239v512q0 103 20.5 192.5t64.5 164.5t108.5 128.5t156 83t203.5 29.5q130 0 232.5 -39t168 -109.5t101 -164t40.5 -205.5v-125h-129l-2 131q-7 201 -113.5 302t-295.5 101q-210 0 -319 -123t-109 -362v-520
q0 -241 106 -365.5t315 -124.5q201 0 309.5 113t108.5 336v192h-483v105h612v-834h-92l-10 246q-63 -124 -178.5 -195t-282.5 -71zM330 1802l266 246h143l260 -246h-147l-184 178l-193 -178h-145z" />
    <glyph glyph-name="gcircumflex" unicode="&#x11d;" 
d="M895 35v164q-17 -36 -44.5 -71t-71.5 -70t-109.5 -56.5t-143.5 -21.5q-200 0 -313 133t-113 366v373q0 238 113.5 369t312.5 131q77 0 141.5 -20.5t108.5 -55.5t71.5 -68.5t47.5 -70.5v194h119v-1315q0 -121 -19 -204t-64 -141.5t-121 -85.5t-189 -27h-465v102h458
q165 0 223 82.5t58 292.5zM221 483q0 -185 82 -293t244 -108q164 0 256 113.5t92 289.5v361q0 176 -92 289.5t-258 113.5q-162 0 -243 -107t-81 -292v-367zM221 1462l266 246h144l260 -246h-148l-184 178l-192 -178h-146z" />
    <glyph glyph-name="Gbreve" unicode="&#x11e;" horiz-adv-x="1329" 
d="M643 -20q-130 0 -232.5 45.5t-167.5 127t-98.5 190.5t-33.5 239v512q0 103 20.5 192.5t64.5 164.5t108.5 128.5t156 83t203.5 29.5q130 0 232.5 -39t168 -109.5t101 -164t40.5 -205.5v-125h-129l-2 131q-7 201 -113.5 302t-295.5 101q-210 0 -319 -123t-109 -362v-520
q0 -241 106 -365.5t315 -124.5q201 0 309.5 113t108.5 336v192h-483v105h612v-834h-92l-10 246q-63 -124 -178.5 -195t-282.5 -71zM291 2028h102q0 -148 275 -148q268 0 268 148h102q0 -66 -27.5 -113t-79.5 -72.5t-116 -37t-147 -11.5q-377 0 -377 234z" />
    <glyph glyph-name="gbreve" unicode="&#x11f;" 
d="M895 35v164q-17 -36 -44.5 -71t-71.5 -70t-109.5 -56.5t-143.5 -21.5q-200 0 -313 133t-113 366v373q0 238 113.5 369t312.5 131q77 0 141.5 -20.5t108.5 -55.5t71.5 -68.5t47.5 -70.5v194h119v-1315q0 -121 -19 -204t-64 -141.5t-121 -85.5t-189 -27h-465v102h458
q165 0 223 82.5t58 292.5zM182 1688h103q0 -148 274 -148q268 0 268 148h103q0 -66 -28 -113t-80 -72.5t-116 -37t-147 -11.5q-377 0 -377 234zM221 483q0 -185 82 -293t244 -108q164 0 256 113.5t92 289.5v361q0 176 -92 289.5t-258 113.5q-162 0 -243 -107t-81 -292v-367z
" />
    <glyph glyph-name="Gdotaccent" unicode="&#x120;" horiz-adv-x="1329" 
d="M643 -20q-130 0 -232.5 45.5t-167.5 127t-98.5 190.5t-33.5 239v512q0 103 20.5 192.5t64.5 164.5t108.5 128.5t156 83t203.5 29.5q130 0 232.5 -39t168 -109.5t101 -164t40.5 -205.5v-125h-129l-2 131q-7 201 -113.5 302t-295.5 101q-210 0 -319 -123t-109 -362v-520
q0 -241 106 -365.5t315 -124.5q201 0 309.5 113t108.5 336v192h-483v105h612v-834h-92l-10 246q-63 -124 -178.5 -195t-282.5 -71zM567 1898q0 40 28.5 68.5t70.5 28.5t69 -28t27 -69q0 -38 -27 -66t-69 -28t-70.5 28t-28.5 66z" />
    <glyph glyph-name="gdotaccent" unicode="&#x121;" 
d="M895 35v164q-17 -36 -44.5 -71t-71.5 -70t-109.5 -56.5t-143.5 -21.5q-200 0 -313 133t-113 366v373q0 238 113.5 369t312.5 131q77 0 141.5 -20.5t108.5 -55.5t71.5 -68.5t47.5 -70.5v194h119v-1315q0 -121 -19 -204t-64 -141.5t-121 -85.5t-189 -27h-465v102h458
q165 0 223 82.5t58 292.5zM221 483q0 -185 82 -293t244 -108q164 0 256 113.5t92 289.5v361q0 176 -92 289.5t-258 113.5q-162 0 -243 -107t-81 -292v-367zM457 1593q0 42 28 70.5t72 28.5q43 0 70.5 -28.5t27.5 -70.5q0 -38 -27.5 -66t-70.5 -28t-71.5 28t-28.5 66z" />
    <glyph glyph-name="uni0122" unicode="&#x122;" horiz-adv-x="1329" 
d="M643 -20q-130 0 -232.5 45.5t-167.5 127t-98.5 190.5t-33.5 239v512q0 103 20.5 192.5t64.5 164.5t108.5 128.5t156 83t203.5 29.5q130 0 232.5 -39t168 -109.5t101 -164t40.5 -205.5v-125h-129l-2 131q-7 201 -113.5 302t-295.5 101q-210 0 -319 -123t-109 -362v-520
q0 -241 106 -365.5t315 -124.5q201 0 309.5 113t108.5 336v192h-483v105h612v-834h-92l-10 246q-63 -124 -178.5 -195t-282.5 -71zM561 -166q0 38 27 66t71 28q41 0 68 -27.5t27 -86.5q0 -156 -166 -236v78q51 23 78 53t36 74q-28 -31 -61 -31q-32 0 -56 23t-24 59z" />
    <glyph glyph-name="uni0123" unicode="&#x123;" 
d="M895 35v164q-17 -36 -44.5 -71t-71.5 -70t-109.5 -56.5t-143.5 -21.5q-200 0 -313 133t-113 366v373q0 238 113.5 369t312.5 131q77 0 141.5 -20.5t108.5 -55.5t71.5 -68.5t47.5 -70.5v194h119v-1315q0 -121 -19 -204t-64 -141.5t-121 -85.5t-189 -27h-465v102h458
q165 0 223 82.5t58 292.5zM221 483q0 -185 82 -293t244 -108q164 0 256 113.5t92 289.5v361q0 176 -92 289.5t-258 113.5q-162 0 -243 -107t-81 -292v-367zM459 1561q0 157 166 237v-78q-51 -23 -77.5 -53t-37.5 -74q26 29 61 29q32 0 56 -23t24 -59q0 -37 -26.5 -64.5
t-69.5 -27.5q-42 0 -69 27t-27 86z" />
    <glyph glyph-name="Hcircumflex" unicode="&#x124;" horiz-adv-x="1331" 
d="M1044 0v782h-755v-782h-125v1671h125v-782h755v782h123v-1671h-123zM330 1802l266 246h143l260 -246h-147l-184 178l-193 -178h-145z" />
    <glyph glyph-name="hcircumflex" unicode="&#x125;" 
d="M272 1671v-536q19 40 47 74.5t71.5 68.5t108.5 54t144 20q186 0 284.5 -112t98.5 -331v-909h-121v903q0 348 -287 348q-80 0 -143 -26.5t-100 -66.5t-61 -92.5t-33 -99.5t-9 -92v-874h-120v1671h120zM-127 1802l266 246h144l260 -246h-148l-184 178l-193 -178h-145z" />
    <glyph glyph-name="Hbar" unicode="&#x126;" horiz-adv-x="1445" 
d="M1102 0v782h-756v-782h-125v1286h-184v90h184v295h125v-295h756v295h123v-295h186v-90h-186v-1286h-123zM346 889h756v397h-756v-397z" />
    <glyph glyph-name="hbar" unicode="&#x127;" 
d="M272 1671v-147h430v-84h-430v-305q19 40 47 74.5t71.5 68.5t108.5 54t144 20q186 0 284.5 -112t98.5 -331v-909h-121v903q0 348 -287 348q-80 0 -143 -26.5t-100 -66.5t-61 -92.5t-33 -99.5t-9 -92v-874h-120v1440h-226v84h226v147h120z" />
    <glyph glyph-name="Itilde" unicode="&#x128;" horiz-adv-x="768" 
d="M102 0v113h220v1446h-220v112h564v-112h-220v-1446h220v-113h-564zM12 1810q0 111 55.5 164.5t149.5 53.5q51 0 91 -15.5t65 -38t48 -45t52.5 -38t65.5 -15.5q110 0 110 131h103q0 -112 -57 -164.5t-152 -52.5q-53 0 -94 15.5t-66.5 38t-48 45t-51 38t-62.5 15.5
q-53 0 -79.5 -35.5t-26.5 -96.5h-103z" />
    <glyph glyph-name="itilde" unicode="&#x129;" horiz-adv-x="423" 
d="M152 1331h120v-1331h-120v1331zM-158 1470q0 111 55.5 164.5t149.5 53.5q51 0 91 -15.5t65 -38t48 -45t52.5 -38t65.5 -15.5q110 0 110 131h103q0 -112 -57 -164.5t-152 -52.5q-53 0 -94 15.5t-66.5 38t-48 45t-51 38t-62.5 15.5q-53 0 -79.5 -35.5t-26.5 -96.5h-103z
" />
    <glyph glyph-name="Imacron" unicode="&#x12a;" horiz-adv-x="768" 
d="M102 0v113h220v1446h-220v112h564v-112h-220v-1446h220v-113h-564zM-16 1868v82h796v-82h-796z" />
    <glyph glyph-name="imacron" unicode="&#x12b;" horiz-adv-x="423" 
d="M152 1331h120v-1331h-120v1331zM-49 1528v82h518v-82h-518z" />
    <glyph glyph-name="Iogonek" unicode="&#x12e;" horiz-adv-x="768" 
d="M102 0v113h220v1446h-220v112h564v-112h-220v-1446h220v-113q-107 -36 -160 -84t-53 -115q0 -66 59 -96.5t190 -30.5h25l-82 -84h-22q-126 0 -199.5 46t-73.5 139q0 47 19 84.5t54.5 64t73.5 43.5t89 33h-484z" />
    <glyph glyph-name="iogonek" unicode="&#x12f;" horiz-adv-x="423" 
d="M152 1331h120v-1331q-107 -36 -160 -84t-53 -115q0 -66 59.5 -96.5t190.5 -30.5h25l-82 -84h-23q-126 0 -199 46t-73 139q0 47 19 84.5t54.5 64t73.5 43.5t89 33h-41v1331zM113 1593q0 42 28 70.5t72 28.5q43 0 70.5 -28.5t27.5 -70.5q0 -38 -27.5 -66t-70.5 -28
t-71.5 28t-28.5 66z" />
    <glyph glyph-name="Idotaccent" unicode="&#x130;" horiz-adv-x="768" 
d="M102 0v113h220v1446h-220v112h564v-112h-220v-1446h220v-113h-564zM287 1898q0 40 28 68.5t70 28.5t69 -28t27 -69q0 -38 -27 -66t-69 -28t-70 28t-28 66z" />
    <glyph glyph-name="dotlessi" unicode="&#x131;" horiz-adv-x="423" 
d="M152 1331h120v-1331h-120v1331z" />
    <glyph glyph-name="IJ" unicode="&#x132;" horiz-adv-x="1921" 
d="M102 0v113h220v1446h-220v112h564v-112h-220v-1446h220v-113h-564zM815 520v107h127v-111q0 -123 24 -208.5t71 -133t108 -68t145 -20.5q81 0 141.5 19.5t109.5 65.5t74 130t25 205v1165h127v-1159q0 -259 -114.5 -395.5t-362.5 -136.5t-361.5 137.5t-113.5 402.5z" />
    <glyph glyph-name="ij" unicode="&#x133;" horiz-adv-x="770" 
d="M152 1331h120v-1331h-120v1331zM113 1593q0 42 28 70.5t72 28.5q43 0 70.5 -28.5t27.5 -70.5q0 -38 -27.5 -66t-70.5 -28t-71.5 28t-28.5 66zM131 -442v102h121q54 0 91.5 6t66 21.5t45 37.5t26.5 60t13.5 82t3.5 110v1354h120v-1374q0 -113 -16 -185.5t-57 -122.5
t-110 -70.5t-177 -20.5h-127zM459 1593q0 42 28 70.5t72 28.5q43 0 70.5 -28.5t27.5 -70.5q0 -38 -27.5 -66t-70.5 -28t-71.5 28t-28.5 66z" />
    <glyph glyph-name="Jcircumflex" unicode="&#x134;" horiz-adv-x="1167" 
d="M539 -20q-248 0 -362 137.5t-114 402.5v107h127v-111q0 -123 24 -208.5t71.5 -133t108.5 -68t145 -20.5q81 0 141.5 19.5t109.5 65.5t74 130t25 205v1165h127v-1159q0 -259 -114.5 -395.5t-362.5 -136.5zM618 1802l267 246h143l260 -246h-147l-185 178l-192 -178h-146z
" />
    <glyph glyph-name="jcircumflex" unicode="&#x135;" horiz-adv-x="423" 
d="M152 -23v1354h120v-1374q0 -113 -16 -185.5t-57 -122.5t-110 -70.5t-177 -20.5h-127v102h121q54 0 91.5 6t66 21.5t45 37.5t26.5 60t13.5 82t3.5 110zM-123 1462l266 246h144l260 -246h-148l-184 178l-192 -178h-146z" />
    <glyph glyph-name="uni0136" unicode="&#x136;" horiz-adv-x="1198" 
d="M1024 0l-633 780h-102v-780h-125v1671h125v-780h102l633 780h156l-686 -835l686 -836h-156zM528 -166q0 38 27.5 66t71.5 28q41 0 67.5 -27.5t26.5 -86.5q0 -156 -166 -236v78q51 23 78.5 53t36.5 74q-28 -31 -62 -31q-32 0 -56 23t-24 59z" />
    <glyph glyph-name="uni0137" unicode="&#x137;" horiz-adv-x="1052" 
d="M152 1671h120v-956h45l568 616h153l-624 -665l624 -666h-153l-566 614h-47v-614h-120v1671zM485 -166q0 38 27.5 66t71.5 28q41 0 67.5 -27.5t26.5 -86.5q0 -156 -166 -236v78q51 23 78.5 53t36.5 74q-28 -31 -62 -31q-32 0 -56 23t-24 59z" />
    <glyph glyph-name="Lacute" unicode="&#x139;" horiz-adv-x="1048" 
d="M164 0v1671h125v-1565h725v-106h-850zM209 1888l727 152l20 -80l-727 -150z" />
    <glyph glyph-name="lacute" unicode="&#x13a;" horiz-adv-x="423" 
d="M152 1671h120v-1671h-120v1671zM-162 1888l727 152l21 -80l-727 -150z" />
    <glyph glyph-name="uni013B" unicode="&#x13b;" horiz-adv-x="1048" 
d="M164 0v1671h125v-1565h725v-106h-850zM465 -166q0 38 27 66t71 28q41 0 67.5 -27.5t26.5 -86.5q0 -157 -165 -236v78q51 23 78 53t36 74q-28 -31 -61 -31q-32 0 -56 23t-24 59z" />
    <glyph glyph-name="uni013C" unicode="&#x13c;" horiz-adv-x="423" 
d="M152 1671h120v-1671h-120v1671zM117 -166q0 38 27 66t71 28q41 0 67.5 -27.5t26.5 -86.5q0 -156 -166 -236v78q51 23 78.5 53t36.5 74q-28 -31 -61 -31q-32 0 -56 23t-24 59z" />
    <glyph glyph-name="Lcaron" unicode="&#x13d;" horiz-adv-x="1050" 
d="M164 0v1671h125v-1565h725v-106h-850zM616 1184l72 487h105l-95 -487h-82z" />
    <glyph glyph-name="lcaron" unicode="&#x13e;" horiz-adv-x="491" 
d="M152 1671h120v-1671h-120v1671zM354 1184l72 487h104l-94 -487h-82z" />
    <glyph glyph-name="Lslash" unicode="&#x141;" horiz-adv-x="1148" 
d="M262 0v705l-215 -99v105l215 98v862h125v-807l354 162v-102l-354 -162v-656h725v-106h-850z" />
    <glyph glyph-name="lslash" unicode="&#x142;" horiz-adv-x="759" 
d="M332 1671h121v-762l270 146v-107l-270 -145v-803h-121v737l-273 -147v106l273 148v827z" />
    <glyph glyph-name="Nacute" unicode="&#x143;" horiz-adv-x="1359" 
d="M164 0v1671h123l792 -1417v1417h119v-1671h-123l-792 1417v-1417h-119zM307 1888l727 152l21 -80l-727 -150z" />
    <glyph glyph-name="nacute" unicode="&#x144;" 
d="M272 1331v-196q19 40 47 74.5t71.5 68.5t108.5 54t144 20q186 0 284.5 -112t98.5 -331v-909h-121v903q0 348 -287 348q-80 0 -143 -26.5t-100 -66.5t-61 -92.5t-33 -99.5t-9 -92v-874h-120v1331h120zM225 1548l727 152l21 -80l-727 -150z" />
    <glyph glyph-name="uni0145" unicode="&#x145;" horiz-adv-x="1359" 
d="M164 0v1671h123l792 -1417v1417h119v-1671h-123l-792 1417v-1417h-119zM586 -166q0 38 27 66t71 28q41 0 67.5 -27.5t26.5 -86.5q0 -156 -166 -236v78q51 23 78.5 53t36.5 74q-28 -31 -61 -31q-32 0 -56 23t-24 59z" />
    <glyph glyph-name="uni0146" unicode="&#x146;" 
d="M272 1331v-196q19 40 47 74.5t71.5 68.5t108.5 54t144 20q186 0 284.5 -112t98.5 -331v-909h-121v903q0 348 -287 348q-80 0 -143 -26.5t-100 -66.5t-61 -92.5t-33 -99.5t-9 -92v-874h-120v1331h120zM496 -166q0 38 27 66t71 28q41 0 67.5 -27.5t26.5 -86.5
q0 -156 -166 -236v78q51 23 78.5 53t36.5 74q-28 -31 -62 -31q-32 0 -55.5 23t-23.5 59z" />
    <glyph glyph-name="Ncaron" unicode="&#x147;" horiz-adv-x="1359" 
d="M164 0v1671h123l792 -1417v1417h119v-1671h-123l-792 1417v-1417h-119zM313 2040h154l217 -182l209 182h156l-293 -246h-144z" />
    <glyph glyph-name="ncaron" unicode="&#x148;" 
d="M272 1331v-196q19 40 47 74.5t71.5 68.5t108.5 54t144 20q186 0 284.5 -112t98.5 -331v-909h-121v903q0 348 -287 348q-80 0 -143 -26.5t-100 -66.5t-61 -92.5t-33 -99.5t-9 -92v-874h-120v1331h120zM231 1700h154l217 -182l209 182h156l-293 -246h-144z" />
    <glyph glyph-name="Eng" unicode="&#x14a;" horiz-adv-x="1359" 
d="M164 0v1671h123l792 -1417v1417h119v-1671q-2 -118 -14.5 -190t-47.5 -124.5t-96.5 -74t-160.5 -21.5h-105v113h119q48 0 80.5 11t53 30.5t31 58t14 82.5t3.5 115l-792 1417v-1417h-119z" />
    <glyph glyph-name="eng" unicode="&#x14b;" 
d="M272 1331v-196q19 40 47 74.5t71.5 68.5t108.5 54t144 20q186 0 284.5 -112t98.5 -331v-909q0 -108 -15.5 -181.5t-53.5 -126.5t-103 -77.5t-162 -24.5h-106v97h98q130 0 175.5 71t45.5 242v903q0 348 -287 348q-80 0 -143 -26.5t-100 -66.5t-61 -92.5t-33 -99.5t-9 -92
v-874h-120v1331h120z" />
    <glyph glyph-name="Omacron" unicode="&#x14c;" horiz-adv-x="1333" 
d="M666 -20q-141 0 -249 45.5t-174.5 127.5t-100 189.5t-33.5 237.5v514q0 128 34 235.5t100.5 189t174.5 127.5t248 46q141 0 249.5 -46t175 -127.5t100.5 -189t34 -235.5v-514q0 -130 -34 -237.5t-100.5 -189.5t-175 -127.5t-249.5 -45.5zM238 578q0 -240 111 -364
t317 -124q208 0 319 123.5t111 364.5v518q0 237 -111.5 361t-318.5 124q-206 0 -317 -124t-111 -361v-518zM266 1868v82h797v-82h-797z" />
    <glyph glyph-name="omacron" unicode="&#x14d;" horiz-adv-x="1120" 
d="M559 -20q-229 0 -345 136t-116 384v331q0 247 116 384t345 137q230 0 346.5 -137t116.5 -384v-331q0 -248 -116.5 -384t-346.5 -136zM160 1528v82h796v-82h-796zM221 496q0 -414 338 -414q340 0 340 414v340q0 413 -340 413q-338 0 -338 -413v-340z" />
    <glyph glyph-name="Ohungarumlaut" unicode="&#x150;" horiz-adv-x="1333" 
d="M666 -20q-141 0 -249 45.5t-174.5 127.5t-100 189.5t-33.5 237.5v514q0 128 34 235.5t100.5 189t174.5 127.5t248 46q141 0 249.5 -46t175 -127.5t100.5 -189t34 -235.5v-514q0 -130 -34 -237.5t-100.5 -189.5t-175 -127.5t-249.5 -45.5zM238 578q0 -240 111 -364
t317 -124q208 0 319 123.5t111 364.5v518q0 237 -111.5 361t-318.5 124q-206 0 -317 -124t-111 -361v-518zM489 1794l238 229h113l-217 -229h-134zM727 1794l238 229h112l-215 -229h-135z" />
    <glyph glyph-name="ohungarumlaut" unicode="&#x151;" horiz-adv-x="1120" 
d="M559 -20q-229 0 -345 136t-116 384v331q0 247 116 384t345 137q230 0 346.5 -137t116.5 -384v-331q0 -248 -116.5 -384t-346.5 -136zM221 496q0 -414 338 -414q340 0 340 414v340q0 413 -340 413q-338 0 -338 -413v-340zM383 1454l238 229h112l-217 -229h-133zM621 1454
l237 229h113l-215 -229h-135z" />
    <glyph glyph-name="OE" unicode="&#x152;" horiz-adv-x="1732" 
d="M567 -20q-220 0 -337 159.5t-117 450.5v493q0 290 117.5 449.5t334.5 159.5q122 0 213.5 -53.5t145.5 -157.5v190h704v-106h-584v-676h572v-107h-572v-676h584v-106h-704v190q-107 -210 -357 -210zM240 575q0 -234 85.5 -360.5t249.5 -126.5q163 0 254 119.5t91 318.5
v619q0 198 -90 318t-252 120q-165 0 -251.5 -126.5t-86.5 -358.5v-523z" />
    <glyph glyph-name="oe" unicode="&#x153;" horiz-adv-x="1812" 
d="M537 -20q-212 0 -325.5 137t-113.5 381v338q0 242 113.5 379t325.5 137q274 0 378 -262q101 262 381 262q201 0 310.5 -128t109.5 -372v-197h-745v-161q1 -213 85.5 -312.5t231.5 -99.5q131 0 208 77.5t87 239.5v25h123v-23q-14 -194 -119 -307.5t-295 -113.5
q-276 0 -379 262q-98 -262 -376 -262zM221 494q0 -211 84 -311.5t234 -100.5t234.5 100t84.5 312v344q0 212 -84.5 311.5t-234.5 99.5t-234 -100t-84 -311v-344zM973 752h620v118q0 379 -301 379q-319 0 -319 -397v-100z" />
    <glyph glyph-name="Racute" unicode="&#x154;" horiz-adv-x="1298" 
d="M1063 0q-23 27 -23 150v284q0 70 -15.5 124.5t-44.5 88t-62 55.5t-77.5 32.5t-80.5 14t-80 3.5h-391v-752h-125v1671h518q265 0 377 -96.5t112 -339.5v-27q0 -157 -60.5 -256.5t-195.5 -142.5q250 -76 250 -371v-288q0 -121 25 -150h-127zM233 1888l728 152l20 -80
l-727 -150zM289 858h393q186 0 273 76.5t87 265.5v37q0 72 -9.5 125.5t-32 89.5t-51 59t-74 35t-93 16.5t-116.5 4.5h-377v-709z" />
    <glyph glyph-name="racute" unicode="&#x155;" horiz-adv-x="968" 
d="M272 1331v-201q18 41 46 77.5t69 70.5t99 54t126 20q312 0 312 -379v-103h-121v91q0 140 -48.5 214t-168.5 74q-70 0 -126.5 -29t-90.5 -72.5t-57 -98t-31.5 -101.5t-8.5 -88v-860h-120v1331h120zM184 1548l727 152l21 -80l-727 -150z" />
    <glyph glyph-name="uni0156" unicode="&#x156;" horiz-adv-x="1298" 
d="M1063 0q-23 27 -23 150v284q0 70 -15.5 124.5t-44.5 88t-62 55.5t-77.5 32.5t-80.5 14t-80 3.5h-391v-752h-125v1671h518q265 0 377 -96.5t112 -339.5v-27q0 -157 -60.5 -256.5t-195.5 -142.5q250 -76 250 -371v-288q0 -121 25 -150h-127zM289 858h393q186 0 273 76.5
t87 265.5v37q0 72 -9.5 125.5t-32 89.5t-51 59t-74 35t-93 16.5t-116.5 4.5h-377v-709zM565 -166q0 38 27.5 66t71.5 28q41 0 67.5 -27.5t26.5 -86.5q0 -156 -166 -236v78q51 23 78.5 53t36.5 74q-28 -31 -62 -31q-32 0 -56 23t-24 59z" />
    <glyph glyph-name="uni0157" unicode="&#x157;" horiz-adv-x="968" 
d="M272 1331v-201q18 41 46 77.5t69 70.5t99 54t126 20q312 0 312 -379v-103h-121v91q0 140 -48.5 214t-168.5 74q-70 0 -126.5 -29t-90.5 -72.5t-57 -98t-31.5 -101.5t-8.5 -88v-860h-120v1331h120zM119 -166q0 38 27 66t71 28q41 0 67.5 -27.5t26.5 -86.5
q0 -156 -166 -236v78q51 23 78.5 53t36.5 74q-28 -31 -61 -31q-32 0 -56 23t-24 59z" />
    <glyph glyph-name="Rcaron" unicode="&#x158;" horiz-adv-x="1298" 
d="M1063 0q-23 27 -23 150v284q0 70 -15.5 124.5t-44.5 88t-62 55.5t-77.5 32.5t-80.5 14t-80 3.5h-391v-752h-125v1671h518q265 0 377 -96.5t112 -339.5v-27q0 -157 -60.5 -256.5t-195.5 -142.5q250 -76 250 -371v-288q0 -121 25 -150h-127zM240 2040h153l217 -182l209 182
h156l-293 -246h-143zM289 858h393q186 0 273 76.5t87 265.5v37q0 72 -9.5 125.5t-32 89.5t-51 59t-74 35t-93 16.5t-116.5 4.5h-377v-709z" />
    <glyph glyph-name="rcaron" unicode="&#x159;" horiz-adv-x="968" 
d="M272 1331v-201q18 41 46 77.5t69 70.5t99 54t126 20q312 0 312 -379v-103h-121v91q0 140 -48.5 214t-168.5 74q-70 0 -126.5 -29t-90.5 -72.5t-57 -98t-31.5 -101.5t-8.5 -88v-860h-120v1331h120zM193 1700h153l217 -182l209 182h156l-293 -246h-143z" />
    <glyph glyph-name="Sacute" unicode="&#x15a;" horiz-adv-x="1196" 
d="M618 -20q-536 0 -536 497v101h127v-107q0 -204 101.5 -293.5t312.5 -89.5q185 0 268.5 72.5t83.5 238.5v7q0 65 -13 116t-33.5 85.5t-56.5 64.5t-70 49t-87 43l-275 121q-58 27 -99 51t-84.5 60t-70.5 75.5t-44 96t-17 124.5q0 189 120.5 294.5t348.5 105.5
q242 0 366.5 -116.5t124.5 -346.5v-62h-127v62q0 191 -91 272.5t-273 81.5q-168 0 -254 -67t-86 -211v-7q0 -65 19 -116t56.5 -87.5t75.5 -60t95 -49.5l278 -121q61 -29 100.5 -52t86.5 -62.5t74.5 -83t46 -109.5t18.5 -147q0 -213 -118.5 -321.5t-367.5 -108.5zM217 1888
l727 152l21 -80l-727 -150z" />
    <glyph glyph-name="sacute" unicode="&#x15b;" horiz-adv-x="1046" 
d="M682 688q151 -67 215 -146.5t64 -207.5q0 -73 -22 -134.5t-68.5 -112t-129 -79t-194.5 -28.5q-248 0 -359.5 109t-111.5 300v64h121v-62q0 -163 83.5 -236t264.5 -73q295 0 295 244q0 93 -47.5 153t-169.5 113l-263 125q-124 52 -186.5 126t-62.5 189q0 64 22.5 119.5
t68.5 101.5t125 72.5t183 26.5q117 0 202.5 -29t135.5 -83t74 -124.5t24 -159.5v-49h-121v47q0 158 -78.5 226.5t-234.5 68.5q-127 0 -203 -54t-76 -157q0 -79 41.5 -128t143.5 -95zM145 1548l727 152l21 -80l-727 -150z" />
    <glyph glyph-name="Scircumflex" unicode="&#x15c;" horiz-adv-x="1196" 
d="M618 -20q-536 0 -536 497v101h127v-107q0 -204 101.5 -293.5t312.5 -89.5q185 0 268.5 72.5t83.5 238.5v7q0 65 -13 116t-33.5 85.5t-56.5 64.5t-70 49t-87 43l-275 121q-58 27 -99 51t-84.5 60t-70.5 75.5t-44 96t-17 124.5q0 189 120.5 294.5t348.5 105.5
q242 0 366.5 -116.5t124.5 -346.5v-62h-127v62q0 191 -91 272.5t-273 81.5q-168 0 -254 -67t-86 -211v-7q0 -65 19 -116t56.5 -87.5t75.5 -60t95 -49.5l278 -121q61 -29 100.5 -52t86.5 -62.5t74.5 -83t46 -109.5t18.5 -147q0 -213 -118.5 -321.5t-367.5 -108.5zM256 1802
l266 246h144l260 -246h-148l-184 178l-193 -178h-145z" />
    <glyph glyph-name="scircumflex" unicode="&#x15d;" horiz-adv-x="1046" 
d="M682 688q151 -67 215 -146.5t64 -207.5q0 -73 -22 -134.5t-68.5 -112t-129 -79t-194.5 -28.5q-248 0 -359.5 109t-111.5 300v64h121v-62q0 -163 83.5 -236t264.5 -73q295 0 295 244q0 93 -47.5 153t-169.5 113l-263 125q-124 52 -186.5 126t-62.5 189q0 64 22.5 119.5
t68.5 101.5t125 72.5t183 26.5q117 0 202.5 -29t135.5 -83t74 -124.5t24 -159.5v-49h-121v47q0 158 -78.5 226.5t-234.5 68.5q-127 0 -203 -54t-76 -157q0 -79 41.5 -128t143.5 -95zM184 1462l267 246h143l260 -246h-147l-185 178l-192 -178h-146z" />
    <glyph glyph-name="Scedilla" unicode="&#x15e;" horiz-adv-x="1196" 
d="M485 -342q147 0 206 15.5t59 66.5q0 52 -57 62t-167 -9l45 189q-489 21 -489 495v101h127v-107q0 -204 101.5 -293.5t312.5 -89.5q185 0 268.5 72.5t83.5 238.5v7q0 65 -13 116t-33.5 85.5t-56.5 64.5t-70 49t-87 43l-275 121q-58 27 -99 51t-84.5 60t-70.5 75.5t-44 96
t-17 124.5q0 189 120.5 294.5t348.5 105.5q242 0 366.5 -116.5t124.5 -346.5v-62h-127v62q0 191 -91 272.5t-273 81.5q-168 0 -254 -67t-86 -211v-7q0 -65 19 -116t56.5 -87.5t75.5 -60t95 -49.5l278 -121q61 -29 100.5 -52t86.5 -62.5t74.5 -83t46 -109.5t18.5 -147
q0 -205 -108.5 -313t-336.5 -117l-30 -115q225 32 225 -125q0 -92 -92.5 -128t-278.5 -36z" />
    <glyph glyph-name="scedilla" unicode="&#x15f;" horiz-adv-x="1046" 
d="M682 688q151 -67 215 -146.5t64 -207.5q0 -71 -20 -130.5t-63 -109t-119 -80t-179 -34.5l-31 -115q225 32 225 -125q0 -92 -92.5 -128t-278.5 -36l3 82q147 0 205.5 15.5t58.5 66.5q0 52 -57 62t-167 -9l46 189q-112 6 -193.5 38.5t-129.5 87.5t-70.5 124.5t-22.5 156.5
v64h121v-62q0 -163 83.5 -236t264.5 -73q295 0 295 244q0 93 -47.5 153t-169.5 113l-263 125q-124 52 -186.5 126t-62.5 189q0 64 22.5 119.5t68.5 101.5t125 72.5t183 26.5q117 0 202.5 -29t135.5 -83t74 -124.5t24 -159.5v-49h-121v47q0 158 -78.5 226.5t-234.5 68.5
q-127 0 -203 -54t-76 -157q0 -79 41.5 -128t143.5 -95z" />
    <glyph glyph-name="Scaron" unicode="&#x160;" horiz-adv-x="1196" 
d="M618 -20q-536 0 -536 497v101h127v-107q0 -204 101.5 -293.5t312.5 -89.5q185 0 268.5 72.5t83.5 238.5v7q0 65 -13 116t-33.5 85.5t-56.5 64.5t-70 49t-87 43l-275 121q-58 27 -99 51t-84.5 60t-70.5 75.5t-44 96t-17 124.5q0 189 120.5 294.5t348.5 105.5
q242 0 366.5 -116.5t124.5 -346.5v-62h-127v62q0 191 -91 272.5t-273 81.5q-168 0 -254 -67t-86 -211v-7q0 -65 19 -116t56.5 -87.5t75.5 -60t95 -49.5l278 -121q61 -29 100.5 -52t86.5 -62.5t74.5 -83t46 -109.5t18.5 -147q0 -213 -118.5 -321.5t-367.5 -108.5zM223 2040
h154l217 -182l209 182h155l-292 -246h-144z" />
    <glyph glyph-name="scaron" unicode="&#x161;" horiz-adv-x="1046" 
d="M682 688q151 -67 215 -146.5t64 -207.5q0 -73 -22 -134.5t-68.5 -112t-129 -79t-194.5 -28.5q-248 0 -359.5 109t-111.5 300v64h121v-62q0 -163 83.5 -236t264.5 -73q295 0 295 244q0 93 -47.5 153t-169.5 113l-263 125q-124 52 -186.5 126t-62.5 189q0 64 22.5 119.5
t68.5 101.5t125 72.5t183 26.5q117 0 202.5 -29t135.5 -83t74 -124.5t24 -159.5v-49h-121v47q0 158 -78.5 226.5t-234.5 68.5q-127 0 -203 -54t-76 -157q0 -79 41.5 -128t143.5 -95zM152 1700h153l217 -182l209 182h156l-293 -246h-143z" />
    <glyph glyph-name="uni0162" unicode="&#x162;" horiz-adv-x="1079" 
d="M477 0v1565h-436v106h997v-106h-436v-1565h-16l-35 -135q225 32 225 -125q0 -92 -92 -128t-278 -36l2 82q147 0 205.5 15.5t58.5 66.5q0 52 -56.5 62t-166.5 -9l49 207h-21z" />
    <glyph glyph-name="uni0163" unicode="&#x163;" horiz-adv-x="761" 
d="M700 1331v-102h-319v-864q0 -59 1.5 -93.5t7 -68t15 -50t27.5 -30t43 -17.5t62 -4h163v-102h-153l-29 -115q225 32 225 -125q0 -47 -24.5 -79.5t-74.5 -50.5t-115 -25.5t-156 -7.5l2 81q147 0 205.5 15.5t58.5 66.5q0 27 -13.5 42.5t-44 20t-67.5 2t-98 -10.5l45 188
q-53 5 -90 23.5t-58 44.5t-32.5 71.5t-15 90t-3.5 112.5v885h-237v102h32q121 15 183.5 107.5t60.5 232.5h119q0 -133 -52 -225.5t-118 -114.5h450z" />
    <glyph glyph-name="Tcaron" unicode="&#x164;" horiz-adv-x="1079" 
d="M477 0v1565h-436v106h997v-106h-436v-1565h-125zM172 2040h154l217 -182l209 182h155l-293 -246h-143z" />
    <glyph glyph-name="tcaron" unicode="&#x165;" horiz-adv-x="761" 
d="M700 1331v-102h-319v-864q0 -59 1.5 -93.5t7 -68t15 -50t27.5 -30t43 -17.5t62 -4h163v-102h-192q-56 0 -96.5 9.5t-67.5 31.5t-43.5 48t-25 69t-11 84t-2.5 102v885h-237v102h32q121 15 183.5 107.5t60.5 232.5h119q0 -133 -52 -225.5t-118 -114.5h450zM518 1468
l111 379h104l-135 -379h-80z" />
    <glyph glyph-name="Tbar" unicode="&#x166;" horiz-adv-x="1118" 
d="M496 0v770h-334v86h334v709h-437v106h998v-106h-436v-709h333v-86h-333v-770h-125z" />
    <glyph glyph-name="tbar" unicode="&#x167;" horiz-adv-x="782" 
d="M721 1331v-102h-320v-457h306v-84h-306v-323q0 -59 1.5 -93.5t7 -68t15 -50t27.5 -30t43 -17.5t62 -4h164v-102h-193q-48 0 -84.5 8t-62.5 21.5t-44 37.5t-28.5 49t-16.5 64t-7.5 75.5t-1.5 88.5v344h-232v84h232v457h-238v102h33q121 15 183.5 107.5t60.5 232.5h118
q0 -133 -52 -225.5t-118 -114.5h451z" />
    <glyph glyph-name="Utilde" unicode="&#x168;" horiz-adv-x="1323" 
d="M662 -20q-274 0 -391 129.5t-117 402.5v1159h125v-1165q0 -127 25.5 -211.5t78.5 -129.5t118.5 -62t160.5 -17q76 0 131.5 10t105 37.5t80 74t48 121t17.5 177.5v1165h127v-1159q0 -275 -118.5 -403.5t-390.5 -128.5zM291 1810q0 111 55.5 164.5t149.5 53.5
q51 0 90.5 -15.5t65 -38t48 -45t52 -38t65.5 -15.5q111 0 111 131h102q0 -112 -57 -164.5t-152 -52.5q-53 0 -93.5 15.5t-66 38t-48 45t-51 38t-62.5 15.5q-54 0 -80.5 -35.5t-26.5 -96.5h-102z" />
    <glyph glyph-name="utilde" unicode="&#x169;" 
d="M893 0v197q-19 -40 -47 -74.5t-71.5 -68.5t-108.5 -54t-144 -20q-186 0 -284.5 111.5t-98.5 330.5v909h121v-903q0 -348 287 -348q80 0 143 26.5t100 66.5t61 92.5t33 99.5t9 92v874h121v-1331h-121zM197 1470q0 112 55.5 165t148.5 53q51 0 91 -15.5t65 -38t48 -45
t52.5 -38t65.5 -15.5q111 0 111 131h102q0 -112 -57 -164.5t-152 -52.5q-53 0 -93.5 15.5t-66 38t-48 45t-51 38t-62.5 15.5q-54 0 -80.5 -35.5t-26.5 -96.5h-102z" />
    <glyph glyph-name="Umacron" unicode="&#x16a;" horiz-adv-x="1323" 
d="M662 -20q-274 0 -391 129.5t-117 402.5v1159h125v-1165q0 -127 25.5 -211.5t78.5 -129.5t118.5 -62t160.5 -17q76 0 131.5 10t105 37.5t80 74t48 121t17.5 177.5v1165h127v-1159q0 -275 -118.5 -403.5t-390.5 -128.5zM262 1868v82h797v-82h-797z" />
    <glyph glyph-name="umacron" unicode="&#x16b;" 
d="M893 0v197q-19 -40 -47 -74.5t-71.5 -68.5t-108.5 -54t-144 -20q-186 0 -284.5 111.5t-98.5 330.5v909h121v-903q0 -348 287 -348q80 0 143 26.5t100 66.5t61 92.5t33 99.5t9 92v874h121v-1331h-121zM168 1528v82h797v-82h-797z" />
    <glyph glyph-name="Ubreve" unicode="&#x16c;" horiz-adv-x="1323" 
d="M662 -20q-274 0 -391 129.5t-117 402.5v1159h125v-1165q0 -127 25.5 -211.5t78.5 -129.5t118.5 -62t160.5 -17q76 0 131.5 10t105 37.5t80 74t48 121t17.5 177.5v1165h127v-1159q0 -275 -118.5 -403.5t-390.5 -128.5zM287 2028h102q0 -148 275 -148q268 0 268 148h102
q0 -66 -27.5 -113t-79.5 -72.5t-116 -37t-147 -11.5q-377 0 -377 234z" />
    <glyph glyph-name="ubreve" unicode="&#x16d;" 
d="M893 0v197q-19 -40 -47 -74.5t-71.5 -68.5t-108.5 -54t-144 -20q-186 0 -284.5 111.5t-98.5 330.5v909h121v-903q0 -348 287 -348q80 0 143 26.5t100 66.5t61 92.5t33 99.5t9 92v874h121v-1331h-121zM193 1688h102q0 -148 274 -148q269 0 269 148h102q0 -66 -28 -113
t-80 -72.5t-116 -37t-147 -11.5q-376 0 -376 234z" />
    <glyph glyph-name="Uring" unicode="&#x16e;" horiz-adv-x="1323" 
d="M662 -20q-274 0 -391 129.5t-117 402.5v1159h125v-1165q0 -127 25.5 -211.5t78.5 -129.5t118.5 -62t160.5 -17q76 0 131.5 10t105 37.5t80 74t48 121t17.5 177.5v1165h127v-1159q0 -275 -118.5 -403.5t-390.5 -128.5zM496 1929q0 71 49.5 118.5t116.5 47.5t116 -47.5
t49 -118.5t-49 -118.5t-116 -47.5t-116.5 47.5t-49.5 118.5zM571 1929q0 -40 25 -65t66 -25t65.5 25t24.5 65t-24.5 65t-65.5 25t-66 -25t-25 -65z" />
    <glyph glyph-name="uring" unicode="&#x16f;" 
d="M893 0v197q-19 -40 -47 -74.5t-71.5 -68.5t-108.5 -54t-144 -20q-186 0 -284.5 111.5t-98.5 330.5v909h121v-903q0 -348 287 -348q80 0 143 26.5t100 66.5t61 92.5t33 99.5t9 92v874h121v-1331h-121zM401 1589q0 71 49.5 118.5t116.5 47.5t116.5 -47.5t49.5 -118.5
t-49.5 -118.5t-116.5 -47.5t-116.5 47.5t-49.5 118.5zM477 1589q0 -40 24.5 -65t65.5 -25t65.5 25t24.5 65t-24.5 65t-65.5 25t-65.5 -25t-24.5 -65z" />
    <glyph glyph-name="Uhungarumlaut" unicode="&#x170;" horiz-adv-x="1323" 
d="M662 -20q-274 0 -391 129.5t-117 402.5v1159h125v-1165q0 -127 25.5 -211.5t78.5 -129.5t118.5 -62t160.5 -17q76 0 131.5 10t105 37.5t80 74t48 121t17.5 177.5v1165h127v-1159q0 -275 -118.5 -403.5t-390.5 -128.5zM485 1794l238 229h113l-218 -229h-133zM723 1794
l238 229h112l-215 -229h-135z" />
    <glyph glyph-name="uhungarumlaut" unicode="&#x171;" 
d="M893 0v197q-19 -40 -47 -74.5t-71.5 -68.5t-108.5 -54t-144 -20q-186 0 -284.5 111.5t-98.5 330.5v909h121v-903q0 -348 287 -348q80 0 143 26.5t100 66.5t61 92.5t33 99.5t9 92v874h121v-1331h-121zM391 1454l238 229h112l-217 -229h-133zM629 1454l237 229h113
l-215 -229h-135z" />
    <glyph glyph-name="Uogonek" unicode="&#x172;" horiz-adv-x="1323" 
d="M662 -20q-274 0 -391 129.5t-117 402.5v1159h125v-1165q0 -127 25.5 -211.5t78.5 -129.5t118.5 -62t160.5 -17q76 0 131.5 10t105 37.5t80 74t48 121t17.5 177.5v1165h127v-1159q0 -224 -76.5 -349.5t-248.5 -164.5h2q-107 -36 -160 -84t-53 -115q0 -66 59.5 -96.5
t190.5 -30.5h24l-82 -84h-22q-126 0 -199.5 46t-73.5 139q0 78 49.5 126.5t135.5 82.5q-18 -2 -55 -2z" />
    <glyph glyph-name="uogonek" unicode="&#x173;" 
d="M893 0v197q-19 -40 -47 -74.5t-71.5 -68.5t-108.5 -54t-144 -20q-186 0 -284.5 111.5t-98.5 330.5v909h121v-903q0 -348 287 -348q80 0 143 26.5t100 66.5t61 92.5t33 99.5t9 92v874h121v-1331q-107 -36 -160 -84t-53 -115q0 -66 59.5 -96.5t190.5 -30.5h24l-82 -84h-22
q-126 0 -199.5 46t-73.5 139q0 47 19 84.5t54.5 64t73.5 43.5t89 33h-41z" />
    <glyph glyph-name="Wcircumflex" unicode="&#x174;" horiz-adv-x="1906" 
d="M442 0l-393 1671h127l346 -1513l348 1513h166l348 -1509l2 -8l3 8l342 1509h127l-392 -1671h-159l-351 1499l-2 12l-4 -12l-350 -1499h-158zM618 1802l267 246h143l260 -246h-147l-185 178l-192 -178h-146z" />
    <glyph glyph-name="wcircumflex" unicode="&#x175;" horiz-adv-x="1656" 
d="M494 1462l266 246h143l260 -246h-147l-185 178l-192 -178h-145zM45 1331h123l287 -1186l288 1186h170l291 -1186l285 1186h123l-334 -1331h-148l-303 1212l-303 -1212h-145z" />
    <glyph glyph-name="Ycircumflex" unicode="&#x176;" horiz-adv-x="1173" 
d="M524 0v586l-493 1085h135l420 -940l420 940h137l-494 -1085v-586h-125zM252 1802l266 246h144l260 -246h-148l-184 178l-193 -178h-145z" />
    <glyph glyph-name="ycircumflex" unicode="&#x177;" horiz-adv-x="1163" 
d="M893 33v164q-19 -40 -47 -74.5t-71.5 -68.5t-108.5 -54t-144 -20q-186 0 -284.5 111.5t-98.5 330.5v909h121v-903q0 -348 287 -348q80 0 143 26.5t100 66.5t61 92.5t33 99.5t9 92v874h119v-1304q0 -122 -19 -206t-64.5 -145t-123 -89.5t-191.5 -28.5h-444v102h434
q87 0 142.5 19.5t88.5 66t45.5 114t12.5 173.5zM236 1462l266 246h143l260 -246h-147l-185 178l-192 -178h-145z" />
    <glyph glyph-name="Ydieresis" unicode="&#x178;" horiz-adv-x="1173" 
d="M524 0v586l-493 1085h135l420 -940l420 940h137l-494 -1085v-586h-125zM287 1907q0 43 26 67.5t64 24.5q39 0 65.5 -24.5t26.5 -67.5q0 -38 -27 -63t-65 -25q-37 0 -63.5 25t-26.5 63zM702 1907q0 43 26.5 67.5t64.5 24.5q37 0 64.5 -25t27.5 -67q0 -37 -28 -62.5
t-64 -25.5q-37 0 -64 25t-27 63z" />
    <glyph glyph-name="Zacute" unicode="&#x179;" horiz-adv-x="1081" 
d="M68 0v106l809 1459h-809v106h946v-106l-809 -1459h809v-106h-946zM166 1888l727 152l20 -80l-727 -150z" />
    <glyph glyph-name="zacute" unicode="&#x17a;" horiz-adv-x="958" 
d="M66 1331h825v-100l-698 -1131h702v-100h-832v100l699 1131h-696v100zM106 1548l728 152l20 -80l-727 -150z" />
    <glyph glyph-name="Zdotaccent" unicode="&#x17b;" horiz-adv-x="1081" 
d="M68 0v106l809 1459h-809v106h946v-106l-809 -1459h809v-106h-946zM442 1898q0 40 28.5 68.5t70.5 28.5t69 -28t27 -69q0 -38 -27 -66t-69 -28t-70.5 28t-28.5 66z" />
    <glyph glyph-name="zdotaccent" unicode="&#x17c;" horiz-adv-x="958" 
d="M66 1331h825v-100l-698 -1131h702v-100h-832v100l699 1131h-696v100zM381 1593q0 42 28 70.5t72 28.5t71.5 -28.5t27.5 -70.5q0 -38 -28 -66t-71 -28t-71.5 28t-28.5 66z" />
    <glyph glyph-name="Zcaron" unicode="&#x17d;" horiz-adv-x="1081" 
d="M68 0v106l809 1459h-809v106h946v-106l-809 -1459h809v-106h-946zM172 2040h154l217 -182l209 182h155l-293 -246h-143z" />
    <glyph glyph-name="zcaron" unicode="&#x17e;" horiz-adv-x="958" 
d="M66 1331h825v-100l-698 -1131h702v-100h-832v100l699 1131h-696v100zM113 1700h153l217 -182l209 182h156l-293 -246h-143z" />
    <glyph glyph-name="uni0218" unicode="&#x218;" horiz-adv-x="1196" 
d="M618 -20q-536 0 -536 497v101h127v-107q0 -204 101.5 -293.5t312.5 -89.5q185 0 268.5 72.5t83.5 238.5v7q0 65 -13 116t-33.5 85.5t-56.5 64.5t-70 49t-87 43l-275 121q-58 27 -99 51t-84.5 60t-70.5 75.5t-44 96t-17 124.5q0 189 120.5 294.5t348.5 105.5
q242 0 366.5 -116.5t124.5 -346.5v-62h-127v62q0 191 -91 272.5t-273 81.5q-168 0 -254 -67t-86 -211v-7q0 -65 19 -116t56.5 -87.5t75.5 -60t95 -49.5l278 -121q61 -29 100.5 -52t86.5 -62.5t74.5 -83t46 -109.5t18.5 -147q0 -213 -118.5 -321.5t-367.5 -108.5zM522 -166
q0 38 27.5 66t71.5 28q41 0 67.5 -27.5t26.5 -86.5q0 -156 -166 -236v78q51 23 78.5 53t36.5 74q-28 -31 -62 -31q-32 0 -56 23t-24 59z" />
    <glyph glyph-name="uni0219" unicode="&#x219;" horiz-adv-x="1046" 
d="M682 688q151 -67 215 -146.5t64 -207.5q0 -73 -22 -134.5t-68.5 -112t-129 -79t-194.5 -28.5q-248 0 -359.5 109t-111.5 300v64h121v-62q0 -163 83.5 -236t264.5 -73q295 0 295 244q0 93 -47.5 153t-169.5 113l-263 125q-124 52 -186.5 126t-62.5 189q0 64 22.5 119.5
t68.5 101.5t125 72.5t183 26.5q117 0 202.5 -29t135.5 -83t74 -124.5t24 -159.5v-49h-121v47q0 158 -78.5 226.5t-234.5 68.5q-127 0 -203 -54t-76 -157q0 -79 41.5 -128t143.5 -95zM442 -166q0 38 27.5 66t71.5 28q41 0 67.5 -27.5t26.5 -86.5q0 -156 -166 -236v78
q51 23 78.5 53t36.5 74q-28 -31 -62 -31q-32 0 -56 23t-24 59z" />
    <glyph glyph-name="uni021A" unicode="&#x21a;" horiz-adv-x="1079" 
d="M477 0v1565h-436v106h997v-106h-436v-1565h-125zM444 -166q0 38 27.5 66t71.5 28q41 0 67.5 -27.5t26.5 -86.5q0 -156 -166 -236v78q51 23 78.5 53t36.5 74q-28 -31 -62 -31q-32 0 -56 23t-24 59z" />
    <glyph glyph-name="uni021B" unicode="&#x21b;" horiz-adv-x="761" 
d="M700 1331v-102h-319v-864q0 -59 1.5 -93.5t7 -68t15 -50t27.5 -30t43 -17.5t62 -4h163v-102h-192q-56 0 -96.5 9.5t-67.5 31.5t-43.5 48t-25 69t-11 84t-2.5 102v885h-237v102h32q121 15 183.5 107.5t60.5 232.5h119q0 -133 -52 -225.5t-118 -114.5h450zM412 -145
q0 38 27 66t71 28q41 0 67.5 -28t26.5 -87q0 -155 -166 -235v77q51 23 78.5 53t36.5 74q-27 -30 -61 -30q-32 0 -56 23t-24 59z" />
    <glyph glyph-name="uni0237" unicode="&#x237;" horiz-adv-x="423" 
d="M152 -23v1354h120v-1374q0 -113 -16 -185.5t-57 -122.5t-110 -70.5t-177 -20.5h-127v102h121q54 0 91.5 6t66 21.5t45 37.5t26.5 60t13.5 82t3.5 110z" />
    <glyph glyph-name="circumflex" unicode="&#x2c6;" horiz-adv-x="1079" 
d="M205 1462l266 246h143l260 -246h-147l-184 178l-193 -178h-145z" />
    <glyph glyph-name="caron" unicode="&#x2c7;" horiz-adv-x="1144" 
d="M504 1454l-299 246h153l217 -182l209 182h156l-293 -246h-143z" />
    <glyph glyph-name="breve" unicode="&#x2d8;" horiz-adv-x="1157" 
d="M582 1454q-377 0 -377 234h102q0 -148 275 -148q268 0 268 148h102q0 -66 -27.5 -113t-79.5 -72.5t-116 -37t-147 -11.5z" />
    <glyph glyph-name="dotaccent" unicode="&#x2d9;" horiz-adv-x="608" 
d="M305 1499q-43 0 -71.5 28t-28.5 66q0 42 28 70.5t72 28.5q43 0 70.5 -28.5t27.5 -70.5q0 -38 -27.5 -66t-70.5 -28z" />
    <glyph glyph-name="ring" unicode="&#x2da;" horiz-adv-x="741" 
d="M371 1423q-67 0 -116.5 47.5t-49.5 118.5t49.5 118.5t116.5 47.5t116.5 -47.5t49.5 -118.5t-49.5 -118.5t-116.5 -47.5zM281 1589q0 -40 24.5 -65t65.5 -25t65.5 25t24.5 65t-24.5 65t-65.5 25t-65.5 -25t-24.5 -65z" />
    <glyph glyph-name="ogonek" unicode="&#x2db;" horiz-adv-x="774" 
d="M487 -410q-126 0 -199 46t-73 139q0 47 19 84.5t54.5 64t73.5 43.5t89 33h79q-107 -36 -160 -84t-53 -115q0 -66 59.5 -96.5t190.5 -30.5h25l-82 -84h-23z" />
    <glyph glyph-name="tilde" unicode="&#x2dc;" horiz-adv-x="1148" 
d="M205 1470q0 111 55.5 164.5t149.5 53.5q51 0 90.5 -15.5t65 -38t48 -45t52 -38t65.5 -15.5q111 0 111 131h102q0 -112 -57 -164.5t-152 -52.5q-53 0 -93.5 15.5t-66 38t-48 45t-51 38t-62.5 15.5q-54 0 -80.5 -35.5t-26.5 -96.5h-102z" />
    <glyph glyph-name="hungarumlaut" unicode="&#x2dd;" horiz-adv-x="997" 
d="M578 1454h-136l238 229h113zM205 1454l237 229h113l-217 -229h-133z" />
    <glyph glyph-name="uni1E20" unicode="&#x1e20;" horiz-adv-x="1329" 
d="M643 -20q-130 0 -232.5 45.5t-167.5 127t-98.5 190.5t-33.5 239v512q0 103 20.5 192.5t64.5 164.5t108.5 128.5t156 83t203.5 29.5q130 0 232.5 -39t168 -109.5t101 -164t40.5 -205.5v-125h-129l-2 131q-7 201 -113.5 302t-295.5 101q-210 0 -319 -123t-109 -362v-520
q0 -241 106 -365.5t315 -124.5q201 0 309.5 113t108.5 336v192h-483v105h612v-834h-92l-10 246q-63 -124 -178.5 -195t-282.5 -71zM266 1868v82h797v-82h-797z" />
    <glyph glyph-name="uni1E21" unicode="&#x1e21;" 
d="M895 35v164q-17 -36 -44.5 -71t-71.5 -70t-109.5 -56.5t-143.5 -21.5q-200 0 -313 133t-113 366v373q0 238 113.5 369t312.5 131q77 0 141.5 -20.5t108.5 -55.5t71.5 -68.5t47.5 -70.5v194h119v-1315q0 -121 -19 -204t-64 -141.5t-121 -85.5t-189 -27h-465v102h458
q165 0 223 82.5t58 292.5zM158 1528v82h796v-82h-796zM221 483q0 -185 82 -293t244 -108q164 0 256 113.5t92 289.5v361q0 176 -92 289.5t-258 113.5q-162 0 -243 -107t-81 -292v-367z" />
    <glyph glyph-name="Wgrave" unicode="&#x1e80;" horiz-adv-x="1906" 
d="M442 0l-393 1671h127l346 -1513l348 1513h166l348 -1509l2 -8l3 8l342 1509h127l-392 -1671h-159l-351 1499l-2 12l-4 -12l-350 -1499h-158zM555 1944l20 79l777 -151l-21 -78z" />
    <glyph glyph-name="wgrave" unicode="&#x1e81;" horiz-adv-x="1656" 
d="M1227 1532l-21 -78l-776 150l21 79zM45 1331h123l287 -1186l288 1186h170l291 -1186l285 1186h123l-334 -1331h-148l-303 1212l-303 -1212h-145z" />
    <glyph glyph-name="Wacute" unicode="&#x1e82;" horiz-adv-x="1906" 
d="M442 0l-393 1671h127l346 -1513l348 1513h166l348 -1509l2 -8l3 8l342 1509h127l-392 -1671h-159l-351 1499l-2 12l-4 -12l-350 -1499h-158zM580 1888l727 152l20 -80l-727 -150z" />
    <glyph glyph-name="wacute" unicode="&#x1e83;" horiz-adv-x="1656" 
d="M475 1470l-20 78l727 152l20 -80zM45 1331h123l287 -1186l288 1186h170l291 -1186l285 1186h123l-334 -1331h-148l-303 1212l-303 -1212h-145z" />
    <glyph glyph-name="Wdieresis" unicode="&#x1e84;" horiz-adv-x="1906" 
d="M442 0l-393 1671h127l346 -1513l348 1513h166l348 -1509l2 -8l3 8l342 1509h127l-392 -1671h-159l-351 1499l-2 12l-4 -12l-350 -1499h-158zM655 1907q0 43 26 67.5t64 24.5q39 0 66 -25t27 -67q0 -37 -27.5 -62.5t-65.5 -25.5q-37 0 -63.5 25t-26.5 63zM1071 1907
q0 43 26 67.5t64 24.5q37 0 64.5 -25t27.5 -67q0 -37 -28 -62.5t-64 -25.5q-37 0 -63.5 25t-26.5 63z" />
    <glyph glyph-name="wdieresis" unicode="&#x1e85;" horiz-adv-x="1656" 
d="M1034 1479q-37 0 -63.5 25t-26.5 63q0 43 26 67.5t64 24.5q37 0 64.5 -25t27.5 -67q0 -37 -28 -62.5t-64 -25.5zM45 1331h123l287 -1186l288 1186h170l291 -1186l285 1186h123l-334 -1331h-148l-303 1212l-303 -1212h-145zM528 1567q0 43 26 67.5t64 24.5q39 0 66 -25
t27 -67q0 -37 -27.5 -62.5t-65.5 -25.5q-37 0 -63.5 25t-26.5 63z" />
    <glyph glyph-name="uni1E9E" unicode="&#x1e9e;" horiz-adv-x="1208" 
d="M156 1313q0 190 101.5 274t326.5 84h522q-28 -153 -51 -252t-48 -177t-54 -123t-64 -73.5t-84 -44.5q100 -26 163 -78.5t97.5 -148t34.5 -237.5v-72q0 -248 -115 -356.5t-348 -108.5h-244v102h230q94 0 157.5 17t109.5 58t67.5 112t21.5 176v76q0 64 -6 112.5t-21 97
t-43.5 82t-70.5 60.5t-105 40t-145 13h-195v103h193q59 0 102.5 8.5t77 20t60.5 45.5t45.5 64t39 97t35 122t39.5 161h-401q-165 0 -237.5 -55.5t-72.5 -190.5v-1321h-118v1313z" />
    <glyph glyph-name="uni1EBC" unicode="&#x1ebc;" horiz-adv-x="1118" 
d="M164 0v1671h856v-106h-731v-676h704v-107h-704v-676h731v-106h-856zM223 1810q0 111 55.5 164.5t149.5 53.5q51 0 91 -15.5t65 -38t48 -45t52.5 -38t65.5 -15.5q110 0 110 131h103q0 -112 -57 -164.5t-152 -52.5q-53 0 -94 15.5t-66.5 38t-48 45t-51 38t-62.5 15.5
q-53 0 -79.5 -35.5t-26.5 -96.5h-103z" />
    <glyph glyph-name="uni1EBD" unicode="&#x1ebd;" horiz-adv-x="1103" 
d="M188 1470q0 111 55.5 164.5t149.5 53.5q51 0 91 -15.5t65 -38t48 -45t52.5 -38t65.5 -15.5q110 0 110 131h103q0 -112 -57 -164.5t-152 -52.5q-53 0 -94 15.5t-66.5 38t-48 45t-51 38t-62.5 15.5q-53 0 -79.5 -35.5t-26.5 -96.5h-103zM98 498v336q0 245 117 381.5
t348 136.5q219 0 332 -127.5t113 -374.5v-195h-787v-161q0 -412 340 -412q299 0 316 317v29h122v-27q-13 -197 -120.5 -309t-317.5 -112q-230 0 -346.5 135.5t-116.5 382.5zM221 752h666v118q-1 105 -24 180t-67 117.5t-101 62t-132 19.5q-168 0 -255 -97.5t-87 -313.5v-86z
" />
    <glyph glyph-name="Ygrave" unicode="&#x1ef2;" horiz-adv-x="1173" 
d="M524 0v586l-493 1085h135l420 -940l420 940h137l-494 -1085v-586h-125zM188 1944l21 79l776 -151l-20 -78z" />
    <glyph glyph-name="ygrave" unicode="&#x1ef3;" horiz-adv-x="1163" 
d="M893 33v164q-19 -40 -47 -74.5t-71.5 -68.5t-108.5 -54t-144 -20q-186 0 -284.5 111.5t-98.5 330.5v909h121v-903q0 -348 287 -348q80 0 143 26.5t100 66.5t61 92.5t33 99.5t9 92v874h119v-1304q0 -122 -19 -206t-64.5 -145t-123 -89.5t-191.5 -28.5h-444v102h434
q87 0 142.5 19.5t88.5 66t45.5 114t12.5 173.5zM172 1604l21 79l776 -151l-21 -78z" />
    <glyph glyph-name="uni1EF8" unicode="&#x1ef8;" horiz-adv-x="1173" 
d="M524 0v586l-493 1085h135l420 -940l420 940h137l-494 -1085v-586h-125zM217 1810q0 111 55.5 164.5t149.5 53.5q51 0 90.5 -15.5t65 -38t48 -45t52 -38t65.5 -15.5q111 0 111 131h102q0 -112 -56.5 -164.5t-151.5 -52.5q-53 0 -94 15.5t-66.5 38t-48 45t-51 38
t-62.5 15.5q-54 0 -80.5 -35.5t-26.5 -96.5h-102z" />
    <glyph glyph-name="uni1EF9" unicode="&#x1ef9;" horiz-adv-x="1163" 
d="M893 33v164q-19 -40 -47 -74.5t-71.5 -68.5t-108.5 -54t-144 -20q-186 0 -284.5 111.5t-98.5 330.5v909h121v-903q0 -348 287 -348q80 0 143 26.5t100 66.5t61 92.5t33 99.5t9 92v874h119v-1304q0 -122 -19 -206t-64.5 -145t-123 -89.5t-191.5 -28.5h-444v102h434
q87 0 142.5 19.5t88.5 66t45.5 114t12.5 173.5zM201 1470q0 111 55.5 164.5t149.5 53.5q51 0 90.5 -15.5t65 -38t48 -45t52 -38t65.5 -15.5q111 0 111 131h102q0 -112 -57 -164.5t-152 -52.5q-53 0 -93.5 15.5t-66 38t-48 45t-51 38t-62.5 15.5q-54 0 -80.5 -35.5
t-26.5 -96.5h-102z" />
    <glyph glyph-name="uni2000" unicode="&#x2000;" horiz-adv-x="1024" 
 />
    <glyph glyph-name="uni2001" unicode="&#x2001;" horiz-adv-x="2048" 
 />
    <glyph glyph-name="uni2002" unicode="&#x2002;" horiz-adv-x="1024" 
 />
    <glyph glyph-name="uni2003" unicode="&#x2003;" horiz-adv-x="2048" 
 />
    <glyph glyph-name="uni2004" unicode="&#x2004;" horiz-adv-x="681" 
 />
    <glyph glyph-name="uni2005" unicode="&#x2005;" horiz-adv-x="512" 
 />
    <glyph glyph-name="uni2006" unicode="&#x2006;" horiz-adv-x="342" 
 />
    <glyph glyph-name="uni2007" unicode="&#x2007;" horiz-adv-x="1335" 
 />
    <glyph glyph-name="uni2008" unicode="&#x2008;" horiz-adv-x="411" 
 />
    <glyph glyph-name="uni2009" unicode="&#x2009;" horiz-adv-x="256" 
 />
    <glyph glyph-name="uni200A" unicode="&#x200a;" horiz-adv-x="86" 
 />
    <glyph glyph-name="uni200B" unicode="&#x200b;" horiz-adv-x="0" 
 />
    <glyph glyph-name="endash" unicode="&#x2013;" horiz-adv-x="1597" 
d="M86 721h1425v-86h-1425v86z" />
    <glyph glyph-name="emdash" unicode="&#x2014;" horiz-adv-x="2629" 
d="M86 721h2458v-88h-2458v88z" />
    <glyph glyph-name="quoteleft" unicode="&#x2018;" horiz-adv-x="350" 
d="M190 1180h-106l106 512h86z" />
    <glyph glyph-name="quoteright" unicode="&#x2019;" horiz-adv-x="346" 
d="M174 1692h107l-107 -512h-86z" />
    <glyph glyph-name="quotesinglbase" unicode="&#x201a;" horiz-adv-x="342" 
d="M137 268h107l-107 -512h-86z" />
    <glyph glyph-name="quotedblleft" unicode="&#x201c;" horiz-adv-x="548" 
d="M389 1180h-106l106 512h86zM84 1180l106 512h86l-86 -512h-106z" />
    <glyph glyph-name="quotedblright" unicode="&#x201d;" horiz-adv-x="544" 
d="M174 1692h107l-107 -512h-86zM287 1180l86 512h106l-106 -512h-86z" />
    <glyph glyph-name="quotedblbase" unicode="&#x201e;" horiz-adv-x="542" 
d="M137 268h107l-107 -512h-86zM250 -244l86 512h106l-106 -512h-86z" />
    <glyph glyph-name="dagger" unicode="&#x2020;" horiz-adv-x="522" 
d="M209 647v617h-117v94h117v313h102v-313h117v-94h-117v-617h-102z" />
    <glyph glyph-name="daggerdbl" unicode="&#x2021;" horiz-adv-x="565" 
d="M231 647v293h-116v94h116v230h-116v94h116v313h103v-313h117v-94h-117v-230h117v-94h-117v-293h-103z" />
    <glyph glyph-name="bullet" unicode="&#x2022;" horiz-adv-x="704" 
d="M350 526q-83 0 -139.5 54t-56.5 139q0 90 56 145.5t140 55.5q81 0 141 -56t60 -145q0 -84 -60 -138.5t-141 -54.5z" />
    <glyph glyph-name="ellipsis" unicode="&#x2026;" horiz-adv-x="1083" 
d="M205 -20q-48 0 -81.5 31t-33.5 81q0 53 33 85t82 32q48 0 82.5 -32.5t34.5 -84.5q0 -49 -34.5 -80.5t-82.5 -31.5zM426 92q0 53 33 85t82 32q48 0 82 -32.5t34 -84.5q0 -49 -34.5 -80.5t-81.5 -31.5q-48 0 -81.5 31t-33.5 81zM762 92q0 53 33 85t82 32q48 0 82 -32.5
t34 -84.5q0 -49 -34.5 -80.5t-81.5 -31.5q-48 0 -81.5 31t-33.5 81z" />
    <glyph glyph-name="uni202F" unicode="&#x202f;" horiz-adv-x="407" 
 />
    <glyph glyph-name="perthousand" unicode="&#x2030;" horiz-adv-x="2125" 
d="M1788 -20q-97 0 -165.5 48t-99 120t-30.5 159q0 64 18 122t53 105t93 75t131 28t131.5 -28t93.5 -75t53.5 -105t18.5 -122q0 -87 -31 -159t-100 -120t-166 -48zM53 1364q0 64 18.5 121.5t53.5 104.5t93.5 74.5t131.5 27.5t130.5 -27.5t92.5 -74.5t53.5 -104.5
t18.5 -121.5t-18.5 -122t-53.5 -105t-92.5 -75t-130.5 -28t-131.5 28t-93.5 75t-53.5 105t-18.5 122zM166 1364q0 -102 47.5 -164.5t136.5 -62.5q88 0 135 62.5t47 164.5q0 101 -47 163t-135 62q-89 0 -136.5 -62t-47.5 -163zM264 0l817 1671h105l-819 -1671h-103zM807 307
q0 64 18.5 122t53.5 105t93.5 75t131.5 28t130.5 -28t92.5 -75t53.5 -105t18.5 -122q0 -135 -76.5 -231t-218.5 -96q-97 0 -166 48t-100 120t-31 159zM920 307q0 -101 47.5 -163t136.5 -62q88 0 135 62t47 163q0 102 -47 165t-135 63q-89 0 -136.5 -63t-47.5 -165zM1606 307
q0 -101 47 -163t135 -62q89 0 136.5 62t47.5 163q0 102 -47.5 165t-136.5 63q-88 0 -135 -63t-47 -165z" />
    <glyph glyph-name="second" unicode="&#x2033;" horiz-adv-x="540" 
d="M117 1671h106v-512h-106v512zM317 1159v512h107v-512h-107z" />
    <glyph glyph-name="guilsinglleft" unicode="&#x2039;" horiz-adv-x="612" 
d="M487 299l-403 336v82l403 336v-129l-303 -248l303 -248v-129z" />
    <glyph glyph-name="guilsinglright" unicode="&#x203a;" horiz-adv-x="612" 
d="M127 299v129l303 248l-303 248v129l403 -336v-82z" />
    <glyph glyph-name="fraction" unicode="&#x2044;" horiz-adv-x="196" 
d="M524 1671l-788 -1671h-96l788 1671h96z" />
    <glyph glyph-name="uni205F" unicode="&#x205f;" horiz-adv-x="454" 
 />
    <glyph glyph-name="uni2070" unicode="&#x2070;" horiz-adv-x="669" 
d="M336 705q-132 0 -199 80.5t-67 226.5v243q0 145 67 225.5t199 80.5q131 0 198.5 -81t67.5 -225v-243q0 -146 -67 -226.5t-199 -80.5zM164 999q0 -51 10 -96l297 518q-47 62 -135 62q-172 0 -172 -217v-267zM207 834q43 -52 129 -52q172 0 172 217v267q0 53 -8 86z" />
    <glyph glyph-name="uni2074" unicode="&#x2074;" horiz-adv-x="614" 
d="M487 1550v-583h86v-78h-86v-174h-92v174h-360v82l362 579h90zM117 967h278v432z" />
    <glyph glyph-name="uni2075" unicode="&#x2075;" horiz-adv-x="638" 
d="M350 1276q109 0 171.5 -61.5t62.5 -178.5v-78q-1 -125 -68 -189t-194 -64q-123 0 -192 61.5t-69 181.5v21h95v-31q3 -156 168 -156q163 0 163 160v92q0 160 -155 160q-66 0 -105.5 -31.5t-64.5 -93.5h-92l26 481h449v-77h-365l-18 -293q61 96 188 96z" />
    <glyph glyph-name="uni2076" unicode="&#x2076;" horiz-adv-x="655" 
d="M334 705q-133 0 -196.5 65.5t-63.5 198.5v293q0 149 61.5 224t198.5 75q123 0 181 -61.5t58 -162.5v-12h-92v10q0 142 -145 142q-86 0 -127 -42t-41 -141v-102q63 84 190 84q114 0 175 -62.5t61 -179.5v-82q0 -247 -260 -247zM168 946q0 -89 42 -126.5t126 -37.5
q83 0 123.5 37.5t40.5 122.5v94q0 160 -158 160q-81 0 -127.5 -40.5t-46.5 -115.5v-94z" />
    <glyph glyph-name="uni2077" unicode="&#x2077;" horiz-adv-x="557" 
d="M25 1473v77h497v-77q-81 -78 -134.5 -166t-80.5 -186t-37.5 -188t-11.5 -204v-14h-92v12q0 233 55 415t205 331h-401z" />
    <glyph glyph-name="uni2078" unicode="&#x2078;" horiz-adv-x="645" 
d="M324 705q-263 0 -263 219v37q0 162 136 198q-55 14 -87 56.5t-32 111.5v35q0 94 62.5 146.5t183.5 52.5q119 0 181 -52.5t62 -146.5v-35q0 -134 -118 -168q132 -32 135 -198v-37q-3 -219 -260 -219zM156 922q0 -79 41 -110.5t127 -31.5q83 0 123.5 31.5t41.5 110.5v57
q-1 76 -43 106.5t-122 30.5q-82 0 -125 -31t-43 -106v-57zM172 1315q0 -121 152 -121q149 0 149 121v49q0 121 -149 121q-152 0 -152 -121v-49z" />
    <glyph glyph-name="uni2079" unicode="&#x2079;" horiz-adv-x="655" 
d="M322 1561q262 0 262 -265v-292q0 -149 -61.5 -224t-198.5 -75q-126 0 -184 61t-58 162v12h94v-10q0 -142 146 -142q84 0 125.5 43t41.5 142v100q-61 -84 -192 -84q-113 0 -174.5 62.5t-61.5 179.5v82q0 248 261 248zM156 1229q3 -160 159 -160q80 0 127 40.5t47 115.5v94
q0 89 -42 126.5t-125 37.5q-84 0 -125 -38t-41 -122v-94z" />
    <glyph glyph-name="uni2080" unicode="&#x2080;" horiz-adv-x="669" 
d="M336 -266q-132 0 -199 80.5t-67 226.5v244q0 144 67 224.5t199 80.5q131 0 198.5 -80.5t67.5 -224.5v-244q0 -146 -67 -226.5t-199 -80.5zM164 29q0 -52 10 -97l297 519q-46 61 -135 61q-172 0 -172 -217v-266zM207 -137q42 -51 129 -51q172 0 172 217v266q0 53 -8 86z
" />
    <glyph glyph-name="uni2081" unicode="&#x2081;" horiz-adv-x="516" 
d="M55 -178h172v647q-61 -74 -174 -74v84q115 0 178 101h86v-758h177v-78h-439v78z" />
    <glyph glyph-name="uni2082" unicode="&#x2082;" horiz-adv-x="641" 
d="M59 -172q0 55 8 95.5t28.5 81t61.5 73.5t103 61l92 51q70 31 102.5 71.5t32.5 107.5v6q0 75 -40 106t-119 31q-86 0 -126 -37.5t-40 -128.5v-37h-94v31q0 250 260 250q254 0 254 -225q0 -170 -176 -246l-97 -53q-96 -37 -125.5 -87t-29.5 -157h428v-78h-523v84z" />
    <glyph glyph-name="uni2083" unicode="&#x2083;" horiz-adv-x="641" 
d="M317 -266q-132 0 -196 58t-66 177v33h95v-37q1 -86 41 -119.5t124 -33.5q86 0 126 33.5t40 107.5v43q0 43 -13.5 72t-37.5 42.5t-49.5 19t-58.5 5.5h-97v78h97q153 0 153 127v35q0 76 -42 106.5t-116 30.5q-78 0 -118 -32t-41 -115v-33h-95v26q3 232 254 232
q129 0 190.5 -60t61.5 -157v-21q2 -65 -29.5 -112t-90.5 -64q126 -39 126 -192v-25q0 -107 -63.5 -166t-194.5 -59z" />
    <glyph glyph-name="uni2084" unicode="&#x2084;" horiz-adv-x="616" 
d="M489 580v-584h86v-78h-86v-174h-92v174h-360v82l362 580h90zM119 -4h278v432z" />
    <glyph glyph-name="uni2085" unicode="&#x2085;" horiz-adv-x="638" 
d="M350 305q109 0 171.5 -61t62.5 -178v-78q-1 -125 -68 -189.5t-194 -64.5q-123 0 -192 61.5t-69 181.5v21h95v-31q3 -155 168 -155q163 0 163 159v92q0 160 -155 160q-66 0 -105.5 -31.5t-64.5 -93.5h-92l26 482h449v-78h-365l-18 -293q61 96 188 96z" />
    <glyph glyph-name="uni2086" unicode="&#x2086;" horiz-adv-x="655" 
d="M334 -266q-133 0 -196.5 65.5t-63.5 198.5v293q0 149 61.5 224t198.5 75q124 0 181.5 -61t57.5 -162v-13h-92v11q0 73 -36.5 107t-108.5 34q-86 0 -127 -42t-41 -140v-103q63 84 190 84q114 0 175 -62.5t61 -179.5v-81q0 -248 -260 -248zM168 -25q0 -89 42 -126t126 -37
t124 37t40 122v95q0 159 -158 159q-81 0 -127.5 -40t-46.5 -115v-95z" />
    <glyph glyph-name="uni2087" unicode="&#x2087;" horiz-adv-x="555" 
d="M23 502v78h497v-78q-81 -78 -134.5 -166t-80.5 -186t-37.5 -188t-11.5 -204v-14h-92v12q0 233 55 415t205 331h-401z" />
    <glyph glyph-name="uni2088" unicode="&#x2088;" horiz-adv-x="645" 
d="M324 -266q-263 0 -263 219v37q0 162 136 198q-55 14 -87 56.5t-32 111.5v35q0 94 62.5 146.5t183.5 52.5q119 0 181 -52.5t62 -146.5v-35q0 -134 -118 -168q132 -32 135 -198v-37q-3 -219 -260 -219zM156 -49q0 -79 41 -110t127 -31q83 0 123.5 31t41.5 110v57
q-1 76 -43 106.5t-122 30.5q-82 0 -125 -31t-43 -106v-57zM172 344q0 -121 152 -121q149 0 149 121v49q0 121 -149 121q-152 0 -152 -121v-49z" />
    <glyph glyph-name="uni2089" unicode="&#x2089;" horiz-adv-x="655" 
d="M322 590q262 0 262 -264v-293q0 -149 -61.5 -224t-198.5 -75q-126 0 -184 61t-58 162v12h94v-10q0 -141 146 -141q84 0 125.5 43t41.5 141v100q-61 -84 -192 -84q-113 0 -174.5 62.5t-61.5 179.5v82q0 248 261 248zM156 258q3 -160 159 -160q80 0 127 40.5t47 115.5v94
q0 89 -42 126.5t-125 37.5q-84 0 -125 -38t-41 -122v-94z" />
    <glyph glyph-name="Euro" unicode="&#x20ac;" horiz-adv-x="1388" 
d="M100 702v84h150v99h-150v84h150v125q0 130 31 237t92.5 189t163.5 127t235 45q124 0 220.5 -39.5t157.5 -111.5t93.5 -166.5t36.5 -209.5v-178h-129v184q-6 207 -103.5 309.5t-273.5 102.5q-196 0 -296.5 -123t-100.5 -362v-129h514v-84h-514v-99h514v-84h-514v-124
q0 -490 395 -490q180 0 276.5 103.5t102.5 312.5v184h129v-178q-4 -117 -36.5 -212t-93.5 -167t-158 -111.5t-222 -39.5q-134 0 -235 45t-162.5 127t-92 189.5t-30.5 240.5v120h-150z" />
    <glyph glyph-name="trademark" unicode="&#x2122;" horiz-adv-x="1333" 
d="M557 870v801h137l183 -631l186 631h133v-801h-104v570l-168 -570h-90l-172 572v-572h-105zM55 1563v108h457v-108h-174v-693h-109v693h-174z" />
    <glyph glyph-name="oneeighth" unicode="&#x215b;" horiz-adv-x="1708" 
d="M78 913h172v648q-61 -74 -174 -74v84q116 0 178 100h86v-758h176v-77h-438v77zM346 0l789 1671h96l-789 -1671h-96zM1118 209v37q0 162 135 198q-55 14 -86.5 56.5t-31.5 111.5v35q0 94 62 146.5t183 52.5q119 0 181.5 -52.5t62.5 -146.5v-35q0 -134 -119 -168
q132 -32 135 -198v-37q-3 -219 -260 -219q-262 0 -262 219zM1212 207q0 -79 41 -110t127 -31q84 0 124.5 31t41.5 110v57q-1 76 -43.5 106.5t-122.5 30.5q-82 0 -125 -31t-43 -106v-57zM1229 600q0 -121 151 -121q150 0 150 121v49q0 121 -150 121q-151 0 -151 -121v-49z
" />
    <glyph glyph-name="threeeighths" unicode="&#x215c;" horiz-adv-x="1812" 
d="M332 825q-132 0 -196 58.5t-66 177.5v33h94v-37q1 -86 41.5 -120t124.5 -34q86 0 126 33.5t40 107.5v43q0 43 -13.5 72t-38 43t-50 19.5t-58.5 5.5h-96v78h96q153 0 153 127v34q0 76 -42 107t-115 31q-78 0 -118.5 -32.5t-41.5 -115.5v-33h-94v27q3 231 254 231
q129 0 190.5 -60t61.5 -157v-20q2 -65 -30 -112t-91 -64q127 -40 127 -193v-24q0 -107 -63.5 -166.5t-194.5 -59.5zM451 0l788 1671h96l-788 -1671h-96zM1223 209v37q0 162 135 198q-55 14 -87 56.5t-32 111.5v35q0 94 62.5 146.5t183.5 52.5q119 0 181.5 -52.5t62.5 -146.5
v-35q0 -134 -119 -168q132 -32 135 -198v-37q-3 -219 -260 -219q-262 0 -262 219zM1317 207q0 -79 41 -110t127 -31q84 0 124.5 31t41.5 110v57q-1 76 -43.5 106.5t-122.5 30.5q-82 0 -125 -31t-43 -106v-57zM1333 600q0 -121 152 -121q149 0 149 121v49q0 121 -149 121
q-152 0 -152 -121v-49z" />
    <glyph glyph-name="fiveeighths" unicode="&#x215d;" horiz-adv-x="1802" 
d="M356 1397q109 0 171.5 -61.5t62.5 -178.5v-78q-1 -125 -68 -189.5t-194 -64.5q-123 0 -191.5 61.5t-68.5 182.5v21h94v-31q3 -156 168 -156q164 0 164 160v92q0 160 -156 160q-66 0 -105.5 -31.5t-64.5 -93.5h-92l26 481h449v-78h-365l-18 -293q62 97 188 97zM442 0
l787 1671h96l-786 -1671h-97zM1214 209v37q0 162 136 198q-55 14 -87 56.5t-32 111.5v35q0 94 62.5 146.5t183.5 52.5q119 0 181 -52.5t62 -146.5v-35q0 -134 -118 -168q132 -32 135 -198v-37q-3 -219 -260 -219q-263 0 -263 219zM1309 207q0 -79 41 -110t127 -31
q83 0 123.5 31t41.5 110v57q-1 76 -43 106.5t-122 30.5q-82 0 -125 -31t-43 -106v-57zM1325 600q0 -121 152 -121q149 0 149 121v49q0 121 -149 121q-152 0 -152 -121v-49z" />
    <glyph glyph-name="seveneighths" unicode="&#x215e;" horiz-adv-x="1728" 
d="M33 1593v78h497v-78q-81 -78 -134.5 -166t-80.5 -185.5t-37.5 -187.5t-11.5 -204v-14h-92v12q0 233 55 414.5t205 330.5h-401zM362 0l789 1671h96l-788 -1671h-97zM1135 209v37q0 162 135 198q-55 14 -87 56.5t-32 111.5v35q0 94 62.5 146.5t183.5 52.5q119 0 181 -52.5
t62 -146.5v-35q0 -134 -118 -168q132 -32 135 -198v-37q-3 -219 -260 -219q-262 0 -262 219zM1229 207q0 -79 41 -110t127 -31q84 0 124.5 31t41.5 110v57q-1 76 -43.5 106.5t-122.5 30.5q-82 0 -125 -31t-43 -106v-57zM1245 600q0 -121 152 -121q149 0 149 121v49
q0 121 -149 121q-152 0 -152 -121v-49z" />
    <glyph glyph-name="arrowleft" unicode="&#x2190;" horiz-adv-x="1175" 
d="M246 633q107 -43 186.5 -138.5t102.5 -234.5h-109q-9 66 -43.5 128t-83.5 109t-104.5 81.5t-112.5 54.5v86q57 20 112.5 54.5t104.5 81.5t83.5 109t43.5 128h109q-23 -139 -102.5 -234.5t-186.5 -138.5h844v-86h-844z" />
    <glyph glyph-name="arrowup" unicode="&#x2191;" horiz-adv-x="983" 
d="M535 170h-86v844q-43 -107 -138.5 -186.5t-234.5 -102.5v109q66 9 128 43.5t109 83.5t81.5 104.5t54.5 112.5h86q27 -78 77 -149t129 -127t166 -68v-109q-139 23 -234 102.5t-138 186.5v-844z" />
    <glyph glyph-name="arrowright" unicode="&#x2192;" horiz-adv-x="1175" 
d="M86 633v86h844q-107 43 -186.5 138.5t-102.5 234.5h109q9 -66 43.5 -128t83.5 -109t104.5 -81.5t112.5 -54.5v-86q-57 -20 -112.5 -54.5t-104.5 -81.5t-83.5 -109t-43.5 -128h-109q23 139 102.5 234.5t186.5 138.5h-844z" />
    <glyph glyph-name="arrowdown" unicode="&#x2193;" horiz-adv-x="991" 
d="M453 1184h86v-844q43 107 138 186.5t234 102.5v-109q-87 -12 -166 -68t-129 -127t-77 -149h-86q-20 57 -54.5 112.5t-81.5 104.5t-109 83.5t-128 43.5v109q139 -23 234.5 -102.5t138.5 -186.5v844z" />
    <glyph glyph-name="arrowboth" unicode="&#x2194;" horiz-adv-x="1499" 
d="M82 731q122 37 224 137.5t120 229.5h106q-22 -140 -101 -234.5t-185 -132.5h1007q-106 38 -185 132.5t-101 234.5h106q18 -129 120 -229.5t224 -137.5v-98q-122 -37 -224 -137.5t-120 -229.5h-106q22 140 101 234.5t185 132.5h-1007q106 -38 185 -132.5t101 -234.5h-106
q-18 129 -120 229.5t-224 137.5v98z" />
    <glyph glyph-name="arrowupdn" unicode="&#x2195;" horiz-adv-x="1007" 
d="M553 1315q37 -122 137.5 -224t229.5 -120v-107q-140 22 -234.5 101.5t-132.5 185.5v-1008q38 106 132.5 185.5t234.5 101.5v-106q-129 -18 -229.5 -120t-137.5 -224h-98q-37 122 -137.5 224t-229.5 120v106q140 -22 234.5 -101.5t132.5 -185.5v1008
q-38 -106 -132.5 -185.5t-234.5 -101.5v107q129 18 229.5 120t137.5 224h98z" />
    <glyph glyph-name="uni2196" unicode="&#x2196;" horiz-adv-x="958" 
d="M891 338l-62 -62l-596 596q29 -68 36 -142t-16 -160t-79 -164l-78 75q55 70 71.5 165t1.5 182t-52 161l61 60q75 -36 160.5 -51t181 1t166.5 70l76 -76q-78 -56 -164.5 -79t-160.5 -16t-142 36z" />
    <glyph glyph-name="uni2197" unicode="&#x2197;" horiz-adv-x="960" 
d="M129 279l-59 59l596 598q-69 -29 -143 -36t-160 16t-164 79l75 76q70 -54 165 -70t181.5 -1t159.5 51l62 -62q-36 -73 -51 -159.5t1 -181.5t70 -165l-76 -77q-56 79 -79 165t-16 160t36 143z" />
    <glyph glyph-name="uni2198" unicode="&#x2198;" horiz-adv-x="956" 
d="M68 1020l61 61l596 -596q-29 68 -36 142t16 160.5t79 164.5l76 -75q-54 -70 -70 -165t-1 -181.5t51 -161.5l-60 -60q-75 36 -161.5 51t-181.5 -1t-165 -70l-75 76q78 56 164.5 79t160.5 16t142 -36z" />
    <glyph glyph-name="uni2199" unicode="&#x2199;" horiz-adv-x="958" 
d="M831 1081l60 -59l-596 -598q69 29 143 36t160 -16t164 -79l-76 -76q-70 54 -165 70t-181.5 1t-161.5 -51l-59 62q36 73 50.5 159.5t-1.5 181.5t-70 165l76 75q56 -78 79 -164t16 -160t-36 -143z" />
    <glyph glyph-name="uni21E7" unicode="&#x21e7;" horiz-adv-x="1738" 
d="M500 -14v604h-426l794 883l795 -883h-426v-604h-737zM303 692h299v-604h533v604h299l-566 629z" />
    <glyph glyph-name="partialdiff" unicode="&#x2202;" horiz-adv-x="1304" 
d="M639 -246q-282 0 -431 142.5t-149 390.5q0 62 10.5 119t34.5 116t67 107t103.5 86t150 59t200.5 21q330 0 465 -195q-55 275 -251 454t-577 283l37 93q467 -125 691 -388t224 -714q0 -276 -141 -425t-434 -149zM162 287q0 -209 121.5 -326t355.5 -117q247 0 360 124
t113 341q0 107 -37.5 185t-106 122.5t-153 65t-188.5 20.5q-465 0 -465 -415z" />
    <glyph glyph-name="emptyset" unicode="&#x2205;" horiz-adv-x="1548" 
d="M774 279q-120 0 -227 22l-160 -301h-108l174 328q-120 43 -201.5 121.5t-117.5 174.5t-36 210q0 91 24 171.5t77 150.5t130.5 120t191.5 79t253 29q120 0 227 -22l164 309h109l-178 -336q178 -64 266 -196.5t88 -304.5q0 -92 -24 -173.5t-77 -152t-130.5 -121t-191 -79.5
t-253.5 -29zM203 834q0 -70 16 -132t50 -118t92 -100.5t137 -71.5l456 864q-93 14 -180 14q-126 0 -225 -25t-163 -67t-106 -101t-59.5 -124t-17.5 -139zM594 387q93 -14 180 -14q126 0 225 25t163.5 67.5t106.5 102t59.5 125t17.5 141.5q0 69 -16 130t-49.5 116.5t-92 99.5
t-137.5 71z" />
    <glyph glyph-name="product" unicode="&#x220f;" horiz-adv-x="1239" 
d="M852 -225v1554h-469v-1554h-102v1554h-250v86h1175v-86h-252v-1554h-102z" />
    <glyph glyph-name="summation" unicode="&#x2211;" horiz-adv-x="1200" 
d="M57 -236v86l559 742l-559 745v86h1086v-86h-965l561 -743l-561 -744h965v-86h-1086z" />
    <glyph glyph-name="minus" unicode="&#x2212;" horiz-adv-x="1359" 
d="M92 874h1176v-86h-1176v86z" />
    <glyph glyph-name="radical" unicode="&#x221a;" horiz-adv-x="1392" 
d="M449 -225l-373 733h110l318 -633l461 1538h372v-86h-295l-467 -1552h-126z" />
    <glyph glyph-name="infinity" unicode="&#x221e;" horiz-adv-x="1523" 
d="M1143 401q-58 0 -111 16t-102 49t-84.5 63.5t-83.5 78.5q-99 -99 -186 -153t-195 -54q-54 0 -102 15.5t-88 47t-63.5 86t-23.5 126.5q0 73 24.5 128t65.5 85.5t88 45.5t99 15q108 0 195 -54t186 -153q46 47 82.5 78.5t84.5 63.5t101.5 48.5t110.5 16.5q53 0 100 -15
t88 -45.5t65.5 -85.5t24.5 -128q0 -72 -23.5 -126.5t-63.5 -86t-87.5 -47t-101.5 -15.5zM207 676q0 -87 46 -131.5t132 -44.5q84 0 154.5 45t156.5 131q-86 86 -156.5 131t-154.5 45q-90 0 -134 -46t-44 -130zM827 676q85 -85 156.5 -130.5t155.5 -45.5q86 0 132 45t46 131
q0 82 -44.5 129t-133.5 47q-84 0 -155.5 -45.5t-156.5 -130.5z" />
    <glyph glyph-name="integral" unicode="&#x222b;" horiz-adv-x="821" 
d="M33 -246v84h53q84 0 137.5 16t84 54t41.5 90t11 133v916q0 96 17 163.5t58 118.5t114 76t180 25h62v-87h-54q-85 0 -138.5 -16t-83.5 -53.5t-41 -89t-11 -133.5v-916q0 -96 -17.5 -163.5t-58.5 -118t-113.5 -75t-179.5 -24.5h-61z" />
    <glyph glyph-name="approxequal" unicode="&#x2248;" horiz-adv-x="1429" 
d="M121 899q0 64 18.5 114t47.5 79.5t69 48.5t78.5 26t81.5 7q73 0 142.5 -22.5t124.5 -54.5t107.5 -64t112.5 -54.5t119 -22.5q86 0 137 44t51 128h103q0 -64 -18 -113.5t-47 -79.5t-68.5 -48.5t-78 -25.5t-81.5 -7q-73 0 -142.5 22.5t-124.5 54t-107.5 63.5t-112.5 54.5
t-119 22.5q-86 0 -137.5 -44t-51.5 -128h-104zM121 530q0 64 18.5 114t47.5 79.5t69 48.5t78.5 26t81.5 7q73 0 142.5 -22.5t124.5 -54.5t107.5 -63.5t112.5 -54t119 -22.5q86 0 137 44t51 128h103q0 -64 -18 -114t-47 -79.5t-68.5 -48.5t-78 -26t-81.5 -7
q-73 0 -142.5 22.5t-124.5 54.5t-107.5 63.5t-112.5 54t-119 22.5q-86 0 -137.5 -44t-51.5 -128h-104z" />
    <glyph glyph-name="notequal" unicode="&#x2260;" horiz-adv-x="1392" 
d="M406 315l174 347h-471v86h514l84 167h-598v86h641l172 347h104l-172 -347h430v-86h-473l-84 -167h557v-86h-600l-174 -347h-104z" />
    <glyph glyph-name="lessequal" unicode="&#x2264;" horiz-adv-x="1421" 
d="M119 901l1175 326v-103l-989 -264l989 -264v-158h-1175v86h1065l-1065 295v82z" />
    <glyph glyph-name="greaterequal" unicode="&#x2265;" horiz-adv-x="1421" 
d="M127 596l989 264l-989 264v103l1176 -326v-82l-1065 -295h1065v-86h-1176v158z" />
    <glyph glyph-name="uni2317" unicode="&#x2317;" horiz-adv-x="1499" 
d="M84 887v102h393v393h103v-393h340v393h102v-393h393v-102h-393v-340h393v-103h-393v-393h-102v393h-340v-393h-103v393h-393v103h393v340h-393zM580 547h340v340h-340v-340z" />
    <glyph glyph-name="uni2318" unicode="&#x2318;" horiz-adv-x="1591" 
d="M367 14q-125 0 -199 74t-74 199q0 134 92 208t271 74h90v295h-90q-179 0 -271 74.5t-92 208.5q0 124 74 198t199 74q134 0 208 -91.5t74 -270.5v-90h295v90q0 178 74.5 270t208.5 92q125 0 198.5 -73.5t73.5 -198.5q0 -134 -92 -208.5t-270 -74.5h-90v-295h90
q179 0 270.5 -74t91.5 -208q0 -125 -74 -199t-198 -74q-134 0 -208.5 92t-74.5 271v90h-295v-90q0 -179 -74 -271t-208 -92zM197 287q0 -88 41 -129t129 -41q95 0 137.5 59t42.5 201v90h-90q-142 0 -201 -42.5t-59 -137.5zM197 1147q0 -95 59 -137.5t201 -42.5h90v90
q0 142 -42.5 201t-137.5 59q-88 0 -129 -41t-41 -129zM649 569h295v295h-295v-295zM1047 377q0 -142 42.5 -201t137.5 -59q88 0 129 41t41 129q0 95 -59 137.5t-201 42.5h-90v-90zM1047 967h90q142 0 201 42.5t59 137.5q0 88 -41 129t-129 41q-95 0 -137.5 -59t-42.5 -201
v-90z" />
    <glyph glyph-name="uni2325" unicode="&#x2325;" horiz-adv-x="1574" 
d="M852 115l-490 1102h-333v102h399l492 -1102h540v-102h-608zM764 1217v102h696v-102h-696z" />
    <glyph glyph-name="filledbox" unicode="&#x25a0;" horiz-adv-x="1429" 
d="M156 158v1118h1118v-1118h-1118z" />
    <glyph glyph-name="uni25A1" unicode="&#x25a1;" horiz-adv-x="1429" 
d="M156 158v1118h1118v-1118h-1118zM258 260h913v914h-913v-914z" />
    <glyph glyph-name="triagup" unicode="&#x25b2;" horiz-adv-x="1443" 
d="M41 31l682 1179l680 -1179h-1362z" />
    <glyph glyph-name="uni25B3" unicode="&#x25b3;" horiz-adv-x="1511" 
d="M45 31l711 1231l710 -1231h-1421zM221 133h1067l-532 924z" />
    <glyph glyph-name="uni25B6" unicode="&#x25b6;" horiz-adv-x="1419" 
d="M164 1393l1179 -680l-1179 -682v1362z" />
    <glyph glyph-name="uni25B7" unicode="&#x25b7;" horiz-adv-x="1474" 
d="M164 -6v1421l1231 -710zM266 170l924 535l-924 532v-1067z" />
    <glyph glyph-name="triagdn" unicode="&#x25bc;" horiz-adv-x="1472" 
d="M1417 1210l-682 -1179l-680 1179h1362z" />
    <glyph glyph-name="uni25BD" unicode="&#x25bd;" horiz-adv-x="1529" 
d="M766 -20l-711 1230h1422zM233 1108l533 -924l534 924h-1067z" />
    <glyph glyph-name="uni25C0" unicode="&#x25c0;" horiz-adv-x="1419" 
d="M1255 31l-1179 682l1179 680v-1362z" />
    <glyph glyph-name="uni25C1" unicode="&#x25c1;" horiz-adv-x="1474" 
d="M1311 -6l-1231 711l1231 710v-1421zM285 705l923 -535v1067z" />
    <glyph glyph-name="uni25C6" unicode="&#x25c6;" horiz-adv-x="1503" 
d="M752 51l-668 666l668 667l665 -667z" />
    <glyph glyph-name="uni25C7" unicode="&#x25c7;" horiz-adv-x="1544" 
d="M770 29l-686 688l688 688l686 -688zM227 717l545 -543l543 543l-545 543z" />
    <glyph glyph-name="lozenge" unicode="&#x25ca;" horiz-adv-x="954" 
d="M403 1280h148l315 -614l-315 -615h-148l-315 615zM199 666l278 -543l279 543l-279 542z" />
    <glyph glyph-name="circle" unicode="&#x25cb;" horiz-adv-x="1443" 
d="M723 92q-170 0 -314 84t-227.5 228t-83.5 313q0 127 49.5 242.5t133 199t199.5 133t243 49.5q169 0 312.5 -83.5t227 -227.5t83.5 -313t-83.5 -313t-227 -228t-312.5 -84zM201 717q0 -221 150.5 -370.5t371.5 -149.5q144 0 263.5 68t188 187.5t68.5 264.5t-68.5 264.5
t-188 187.5t-263.5 68q-221 0 -371.5 -149.5t-150.5 -370.5z" />
    <glyph glyph-name="uni25CF" unicode="&#x25cf;" horiz-adv-x="1443" 
d="M723 94q-170 0 -314 83.5t-227.5 227t-83.5 312.5q0 127 49.5 242.5t133 199t199.5 133t243 49.5q169 0 312.5 -83.5t227 -227.5t83.5 -313t-83.5 -312.5t-227 -227t-312.5 -83.5z" />
    <glyph glyph-name="uni2B1B" unicode="&#x2b1b;" horiz-adv-x="2109" 
d="M195 -143v1720h1720v-1720h-1720z" />
    <glyph glyph-name="uni2B1C" unicode="&#x2b1c;" horiz-adv-x="2109" 
d="M195 -143v1720h1720v-1720h-1720zM297 -41h1515v1516h-1515v-1516z" />
    <glyph glyph-name="uni2B98" unicode="&#x2b98;" horiz-adv-x="1449" 
d="M1370 -39l-1288 744l1288 743l-321 -743zM287 705h649l217 499z" />
    <glyph glyph-name="uni2B99" unicode="&#x2b99;" horiz-adv-x="1527" 
d="M20 -27l744 1289l743 -1289l-743 322zM764 408l500 -218l-500 867v-649z" />
    <glyph glyph-name="uni2B9A" unicode="&#x2b9a;" horiz-adv-x="1449" 
d="M80 -39l321 744l-321 743l1288 -743zM297 1204l217 -499h649z" />
    <glyph glyph-name="uni2B9B" unicode="&#x2b9b;" horiz-adv-x="1529" 
d="M766 -20l-743 1288l743 -322l743 322zM266 1051l500 -867v650z" />
    <glyph glyph-name="uni2B9C" unicode="&#x2b9c;" horiz-adv-x="1349" 
d="M1260 31l-1180 682l1180 680l-295 -680z" />
    <glyph glyph-name="uni2B9D" unicode="&#x2b9d;" horiz-adv-x="1413" 
d="M27 31l680 1179l682 -1179l-682 295z" />
    <glyph glyph-name="uni2B9E" unicode="&#x2b9e;" horiz-adv-x="1349" 
d="M90 31l295 682l-295 680l1180 -680z" />
    <glyph glyph-name="uni2B9F" unicode="&#x2b9f;" horiz-adv-x="1415" 
d="M707 31l-680 1179l680 -295l682 295z" />
    <glyph glyph-name="uni3000" unicode="&#x3000;" horiz-adv-x="2048" 
 />
    <glyph glyph-name="uni004A0301" horiz-adv-x="1167" 
d="M539 -20q-248 0 -362 137.5t-114 402.5v107h127v-111q0 -123 24 -208.5t71.5 -133t108.5 -68t145 -20.5q81 0 141.5 19.5t109.5 65.5t74 130t25 205v1165h127v-1159q0 -259 -114.5 -395.5t-362.5 -136.5zM580 1888l727 152l20 -80l-727 -150z" />
    <glyph glyph-name="I.bracket" horiz-adv-x="530" 
d="M203 0v1671h125v-1671h-125z" />
    <glyph glyph-name="A.ss01" horiz-adv-x="1351" 
d="M47 0l553 1671h152l553 -1671h-134l-120 375h-750l-121 -375h-133zM336 483h680l-336 1047l-6 14l-4 -14z" />
    <glyph glyph-name="Aacute.ss01" horiz-adv-x="1351" 
d="M47 0l553 1671h152l553 -1671h-134l-120 375h-750l-121 -375h-133zM223 1872l883 151l20 -79l-882 -152zM336 483h680l-336 1047l-6 14l-4 -14z" />
    <glyph glyph-name="Abreve.ss01" horiz-adv-x="1351" 
d="M47 0l553 1671h152l553 -1671h-134l-120 375h-750l-121 -375h-133zM260 2030h102q0 -150 316 -150q145 0 227 33.5t82 116.5h103q0 -67 -29.5 -114t-86.5 -73t-128.5 -37.5t-167.5 -11.5t-168.5 11.5t-130.5 37.5t-88.5 73t-30.5 114zM336 483h680l-336 1047l-6 14
l-4 -14z" />
    <glyph glyph-name="Acircumflex.ss01" horiz-adv-x="1351" 
d="M47 0l553 1671h152l553 -1671h-134l-120 375h-750l-121 -375h-133zM270 1769l336 254h144l329 -254h-164l-237 189l-242 -189h-166zM336 483h680l-336 1047l-6 14l-4 -14z" />
    <glyph glyph-name="Adieresis.ss01" horiz-adv-x="1351" 
d="M47 0l553 1671h152l553 -1671h-134l-120 375h-750l-121 -375h-133zM313 1911q0 39 24 62.5t60 23.5q34 0 59 -24t25 -62q0 -36 -25.5 -60t-58.5 -24q-36 0 -60 24t-24 60zM336 483h680l-336 1047l-6 14l-4 -14zM868 1911q0 39 24.5 62.5t59.5 23.5t60.5 -24t25.5 -62
q0 -36 -25.5 -60t-60.5 -24q-34 0 -59 24t-25 60z" />
    <glyph glyph-name="Agrave.ss01" horiz-adv-x="1351" 
d="M47 0l553 1671h152l553 -1671h-134l-120 375h-750l-121 -375h-133zM223 1944l21 79l882 -151l-20 -80zM336 483h680l-336 1047l-6 14l-4 -14z" />
    <glyph glyph-name="Amacron.ss01" horiz-adv-x="1351" 
d="M47 0l553 1671h152l553 -1671h-134l-120 375h-750l-121 -375h-133zM223 1868v82h903v-82h-903zM336 483h680l-336 1047l-6 14l-4 -14z" />
    <glyph glyph-name="Aogonek.ss01" horiz-adv-x="1351" 
d="M47 0l553 1671h152l553 -1671h-2q-107 -36 -160 -84t-53 -115q0 -66 59 -96.5t190 -30.5h25l-82 -84h-22q-126 0 -199.5 46t-73.5 139q0 47 19 84.5t54.5 64t73.5 43.5t89 33h-52l-120 375h-750l-121 -375h-133zM336 483h680l-336 1047l-6 14l-4 -14z" />
    <glyph glyph-name="Aring.ss01" horiz-adv-x="1351" 
d="M47 0l553 1671h152l553 -1671h-134l-120 375h-750l-121 -375h-133zM336 483h680l-336 1047l-6 14l-4 -14zM510 1929q0 71 49.5 118.5t116.5 47.5t116.5 -47.5t49.5 -118.5t-49.5 -118.5t-116.5 -47.5t-116.5 47.5t-49.5 118.5zM586 1929q0 -40 24.5 -65t65.5 -25t65.5 25
t24.5 65t-24.5 65t-65.5 25t-65.5 -25t-24.5 -65z" />
    <glyph glyph-name="Atilde.ss01" horiz-adv-x="1351" 
d="M47 0l553 1671h152l553 -1671h-134l-120 375h-750l-121 -375h-133zM266 1806q0 107 61 165.5t167 58.5q54 0 96.5 -16t70 -38.5t53.5 -45t60 -38.5t76 -16q65 0 98 35.5t33 99.5h102q0 -111 -61.5 -167t-171.5 -56q-57 0 -101.5 16t-72.5 38.5t-53.5 45t-57 38.5
t-69.5 16q-63 0 -95 -37t-32 -99h-103zM336 483h680l-336 1047l-6 14l-4 -14z" />
    <glyph glyph-name="B.ss01" horiz-adv-x="1433" 
d="M164 0v1671h665q109 0 186.5 -18t137.5 -62t89.5 -122.5t29.5 -194.5v-49q0 -141 -57.5 -219t-159.5 -115q125 -32 202.5 -131t77.5 -273v-51q0 -226 -122.5 -331t-364.5 -105h-684zM287 109h549q196 0 283 75t87 258v54q0 180 -94.5 252.5t-286.5 72.5h-538v-712z
M287 932h501q176 0 265.5 69t89.5 226v51q0 56 -9 100t-23.5 74t-40 51t-51 32.5t-64.5 18t-72 8t-82 1.5h-514v-631z" />
    <glyph glyph-name="C.ss01" horiz-adv-x="1501" 
d="M764 -20q-161 0 -288 52.5t-206 144.5t-120 212.5t-41 261.5v373q0 111 25.5 210t79 183t130 145t184.5 95.5t238 34.5q148 0 267 -42.5t197 -117.5t121 -176t48 -221l2 -148h-131l-2 150q-9 215 -140 328.5t-360 113.5q-257 0 -392.5 -147.5t-135.5 -403.5v-381
q0 -262 134.5 -408.5t391.5 -146.5q233 0 363 114.5t139 328.5l2 149h131l-2 -145q-5 -119 -48 -220t-120.5 -177t-197.5 -119t-269 -43z" />
    <glyph glyph-name="Cacute.ss01" horiz-adv-x="1501" 
d="M764 -20q-161 0 -288 52.5t-206 144.5t-120 212.5t-41 261.5v373q0 111 25.5 210t79 183t130 145t184.5 95.5t238 34.5q148 0 267 -42.5t197 -117.5t121 -176t48 -221l2 -148h-131l-2 150q-9 215 -140 328.5t-360 113.5q-257 0 -392.5 -147.5t-135.5 -403.5v-381
q0 -262 134.5 -408.5t391.5 -146.5q233 0 363 114.5t139 328.5l2 149h131l-2 -145q-5 -119 -48 -220t-120.5 -177t-197.5 -119t-269 -43zM303 1872l883 151l20 -79l-882 -152z" />
    <glyph glyph-name="Ccaron.ss01" horiz-adv-x="1501" 
d="M764 -20q-161 0 -288 52.5t-206 144.5t-120 212.5t-41 261.5v373q0 111 25.5 210t79 183t130 145t184.5 95.5t238 34.5q148 0 267 -42.5t197 -117.5t121 -176t48 -221l2 -148h-131l-2 150q-9 215 -140 328.5t-360 113.5q-257 0 -392.5 -147.5t-135.5 -403.5v-381
q0 -262 134.5 -408.5t391.5 -146.5q233 0 363 114.5t139 328.5l2 149h131l-2 -145q-5 -119 -48 -220t-120.5 -177t-197.5 -119t-269 -43zM350 2048h166l242 -188l237 188h164l-330 -254h-143z" />
    <glyph glyph-name="Ccedilla.ss01" horiz-adv-x="1503" 
d="M623 -342q147 0 205.5 15.5t58.5 66.5q0 52 -56.5 62t-166.5 -9l45 189q-148 9 -264 65t-188.5 146.5t-110 206.5t-37.5 251v373q0 111 25.5 210t79 183t130 145t184.5 95.5t238 34.5q148 0 267 -42.5t197 -117.5t121 -176t48 -221l2 -148h-131l-2 150q-9 215 -140 328.5
t-360 113.5q-257 0 -392.5 -147.5t-135.5 -403.5v-381q0 -262 134.5 -408.5t391.5 -146.5q233 0 363 114.5t139 328.5l2 149h131l-2 -145q-5 -116 -46 -215t-115 -174.5t-187.5 -120.5t-255.5 -49l-29 -115q225 32 225 -125q0 -92 -92 -128t-278 -36z" />
    <glyph glyph-name="Cdotaccent.ss01" horiz-adv-x="1501" 
d="M764 -20q-161 0 -288 52.5t-206 144.5t-120 212.5t-41 261.5v373q0 111 25.5 210t79 183t130 145t184.5 95.5t238 34.5q148 0 267 -42.5t197 -117.5t121 -176t48 -221l2 -148h-131l-2 150q-9 215 -140 328.5t-360 113.5q-257 0 -392.5 -147.5t-135.5 -403.5v-381
q0 -262 134.5 -408.5t391.5 -146.5q233 0 363 114.5t139 328.5l2 149h131l-2 -145q-5 -119 -48 -220t-120.5 -177t-197.5 -119t-269 -43zM657 1878q0 40 28.5 69t70.5 29t70 -29t28 -69q0 -38 -28 -66t-70 -28t-70.5 28t-28.5 66z" />
    <glyph glyph-name="D.ss01" horiz-adv-x="1482" 
d="M164 0v1671h569q117 0 211.5 -20.5t174.5 -68.5t134 -123.5t84.5 -189t30.5 -261.5v-344q0 -182 -45.5 -313t-131.5 -206.5t-198.5 -110t-259.5 -34.5h-569zM287 109h440q274 0 393 129.5t119 423.5v348q0 294 -119 423.5t-393 129.5h-440v-1454z" />
    <glyph glyph-name="Eth.ss01" horiz-adv-x="1607" 
d="M291 0v809h-252v86h252v776h569q117 0 211.5 -20.5t174.5 -68.5t134 -123.5t84.5 -189t30.5 -261.5v-344q0 -182 -45.5 -313t-131.5 -206.5t-198.5 -110t-259.5 -34.5h-569zM414 109h440q274 0 393 129.5t119 423.5v348q0 294 -119 423.5t-393 129.5h-440v-668h538v-86
h-538v-700z" />
    <glyph glyph-name="Dcaron.ss01" horiz-adv-x="1482" 
d="M164 0v1671h569q117 0 211.5 -20.5t174.5 -68.5t134 -123.5t84.5 -189t30.5 -261.5v-344q0 -182 -45.5 -313t-131.5 -206.5t-198.5 -110t-259.5 -34.5h-569zM287 109h440q274 0 393 129.5t119 423.5v348q0 294 -119 423.5t-393 129.5h-440v-1454zM338 2048h166l241 -188
l238 188h164l-330 -254h-143z" />
    <glyph glyph-name="Dcroat.ss01" horiz-adv-x="1607" 
d="M291 0v809h-252v86h252v776h569q117 0 211.5 -20.5t174.5 -68.5t134 -123.5t84.5 -189t30.5 -261.5v-344q0 -182 -45.5 -313t-131.5 -206.5t-198.5 -110t-259.5 -34.5h-569zM414 109h440q274 0 393 129.5t119 423.5v348q0 294 -119 423.5t-393 129.5h-440v-668h538v-86
h-538v-700z" />
    <glyph glyph-name="E.ss01" horiz-adv-x="1255" 
d="M164 0v1671h997v-108h-874v-672h841v-111h-841v-671h874v-109h-997z" />
    <glyph glyph-name="Eacute.ss01" horiz-adv-x="1255" 
d="M164 0v1671h997v-108h-874v-672h841v-111h-841v-671h874v-109h-997zM180 1872l883 151l20 -79l-882 -152z" />
    <glyph glyph-name="Ecaron.ss01" horiz-adv-x="1255" 
d="M164 0v1671h997v-108h-874v-672h841v-111h-841v-671h874v-109h-997zM227 2048h166l242 -188l237 188h164l-329 -254h-144z" />
    <glyph glyph-name="Ecircumflex.ss01" horiz-adv-x="1255" 
d="M164 0v1671h997v-108h-874v-672h841v-111h-841v-671h874v-109h-997zM227 1769l336 254h144l329 -254h-164l-237 189l-242 -189h-166z" />
    <glyph glyph-name="Edieresis.ss01" horiz-adv-x="1255" 
d="M164 0v1671h997v-108h-874v-672h841v-111h-841v-671h874v-109h-997zM270 1911q0 39 24 62.5t60 23.5q34 0 59 -24t25 -62q0 -36 -25.5 -60t-58.5 -24q-36 0 -60 24t-24 60zM825 1911q0 39 24.5 62.5t59.5 23.5t60.5 -24t25.5 -62q0 -36 -25.5 -60t-60.5 -24q-34 0 -59 24
t-25 60z" />
    <glyph glyph-name="Edotaccent.ss01" horiz-adv-x="1255" 
d="M164 0v1671h997v-108h-874v-672h841v-111h-841v-671h874v-109h-997zM535 1878q0 40 28 69t70 29t70 -29t28 -69q0 -38 -28 -66t-70 -28t-70 28t-28 66z" />
    <glyph glyph-name="Egrave.ss01" horiz-adv-x="1255" 
d="M164 0v1671h997v-108h-874v-672h841v-111h-841v-671h874v-109h-997zM180 1944l21 79l882 -151l-20 -80z" />
    <glyph glyph-name="Emacron.ss01" horiz-adv-x="1255" 
d="M164 0v1671h997v-108h-874v-672h841v-111h-841v-671h874v-109h-997zM180 1868v82h903v-82h-903z" />
    <glyph glyph-name="Eogonek.ss01" horiz-adv-x="1255" 
d="M164 0v1671h997v-108h-874v-672h841v-111h-841v-671h874v-109q-107 -36 -160 -84t-53 -115q0 -66 59.5 -96.5t190.5 -30.5h25l-82 -84h-23q-126 0 -199 46t-73 139q0 89 63.5 140.5t171.5 84.5h-917z" />
    <glyph glyph-name="F.ss01" horiz-adv-x="1214" 
d="M164 0v1671h1001v-108h-878v-756h831v-109h-831v-698h-123z" />
    <glyph glyph-name="G.ss01" horiz-adv-x="1529" 
d="M743 -20q-123 0 -226 34.5t-177.5 95.5t-126.5 145.5t-77 184.5t-25 211v373q0 139 41 258.5t120 212t206 145t288 52.5q147 0 266.5 -44t197 -120t121.5 -173.5t50 -209.5l2 -92h-133v96q-11 200 -144 315t-358 115q-257 0 -392.5 -148t-135.5 -403v-381
q0 -260 133 -407.5t385 -147.5q234 0 373.5 128.5t140.5 361.5v143h-613v106h744v-831h-96l-9 301q-73 -147 -213.5 -234t-341.5 -87z" />
    <glyph glyph-name="Gbreve.ss01" horiz-adv-x="1529" 
d="M743 -20q-123 0 -226 34.5t-177.5 95.5t-126.5 145.5t-77 184.5t-25 211v373q0 139 41 258.5t120 212t206 145t288 52.5q147 0 266.5 -44t197 -120t121.5 -173.5t50 -209.5l2 -92h-133v96q-11 200 -144 315t-358 115q-257 0 -392.5 -148t-135.5 -403v-381
q0 -260 133 -407.5t385 -147.5q234 0 373.5 128.5t140.5 361.5v143h-613v106h744v-831h-96l-9 301q-73 -147 -213.5 -234t-341.5 -87zM350 2030h103q0 -150 315 -150q145 0 227 33.5t82 116.5h103q0 -67 -29.5 -114t-86.5 -73t-128.5 -37.5t-167.5 -11.5t-168.5 11.5
t-130.5 37.5t-88.5 73t-30.5 114z" />
    <glyph glyph-name="uni0122.ss01" horiz-adv-x="1529" 
d="M743 -20q-123 0 -226 34.5t-177.5 95.5t-126.5 145.5t-77 184.5t-25 211v373q0 139 41 258.5t120 212t206 145t288 52.5q147 0 266.5 -44t197 -120t121.5 -173.5t50 -209.5l2 -92h-133v96q-11 200 -144 315t-358 115q-257 0 -392.5 -148t-135.5 -403v-381
q0 -260 133 -407.5t385 -147.5q234 0 373.5 128.5t140.5 361.5v143h-613v106h744v-831h-96l-9 301q-73 -147 -213.5 -234t-341.5 -87zM670 -166q0 38 27 66t71 28q41 0 67.5 -27.5t26.5 -86.5q0 -156 -166 -236v78q51 23 78.5 53t36.5 74q-28 -31 -61 -31q-32 0 -56 23
t-24 59z" />
    <glyph glyph-name="Gdotaccent.ss01" horiz-adv-x="1529" 
d="M743 -20q-123 0 -226 34.5t-177.5 95.5t-126.5 145.5t-77 184.5t-25 211v373q0 139 41 258.5t120 212t206 145t288 52.5q147 0 266.5 -44t197 -120t121.5 -173.5t50 -209.5l2 -92h-133v96q-11 200 -144 315t-358 115q-257 0 -392.5 -148t-135.5 -403v-381
q0 -260 133 -407.5t385 -147.5q234 0 373.5 128.5t140.5 361.5v143h-613v106h744v-831h-96l-9 301q-73 -147 -213.5 -234t-341.5 -87zM668 1878q0 40 28 69t70 29t70 -29t28 -69q0 -38 -28 -66t-70 -28t-70 28t-28 66z" />
    <glyph glyph-name="H.ss01" horiz-adv-x="1482" 
d="M1196 0v780h-909v-780h-123v1671h123v-780h909v780h123v-1671h-123z" />
    <glyph glyph-name="Hbar.ss01" horiz-adv-x="1671" 
d="M1290 0v780h-909v-780h-123v1200h-195v92h195v379h123v-379h909v379h123v-379h197v-92h-197v-1200h-123zM381 891h909v309h-909v-309z" />
    <glyph glyph-name="I.ss01" horiz-adv-x="960" 
d="M90 0v113h328v1446h-328v112h782v-112h-329v-1446h329v-113h-782z" />
    <glyph glyph-name="Iacute.ss01" horiz-adv-x="960" 
d="M90 0v113h328v1446h-328v112h782v-112h-329v-1446h329v-113h-782zM29 1872l882 151l21 -79l-883 -152z" />
    <glyph glyph-name="Icircumflex.ss01" horiz-adv-x="960" 
d="M90 0v113h328v1446h-328v112h782v-112h-329v-1446h329v-113h-782zM74 1769l336 254h143l330 -254h-164l-238 189l-241 -189h-166z" />
    <glyph glyph-name="Idieresis.ss01" horiz-adv-x="960" 
d="M90 0v113h328v1446h-328v112h782v-112h-329v-1446h329v-113h-782zM119 1911q0 39 24 62.5t60 23.5q34 0 59 -24t25 -62q0 -36 -25.5 -60t-58.5 -24q-36 0 -60 24t-24 60zM674 1911q0 39 24.5 62.5t59.5 23.5t60.5 -24t25.5 -62q0 -36 -25.5 -60t-60.5 -24q-34 0 -59 24
t-25 60z" />
    <glyph glyph-name="Idotaccent.ss01" horiz-adv-x="960" 
d="M90 0v113h328v1446h-328v112h782v-112h-329v-1446h329v-113h-782zM383 1878q0 40 28 69t70 29t70.5 -29t28.5 -69q0 -38 -28.5 -66t-70.5 -28t-70 28t-28 66z" />
    <glyph glyph-name="Igrave.ss01" horiz-adv-x="960" 
d="M90 0v113h328v1446h-328v112h782v-112h-329v-1446h329v-113h-782zM29 1944l20 79l883 -151l-21 -80z" />
    <glyph glyph-name="Imacron.ss01" horiz-adv-x="960" 
d="M90 0v113h328v1446h-328v112h782v-112h-329v-1446h329v-113h-782zM29 1868v82h903v-82h-903z" />
    <glyph glyph-name="Iogonek.ss01" horiz-adv-x="960" 
d="M90 0v113h328v1446h-328v112h782v-112h-329v-1446h329v-113q-107 -36 -160 -84t-53 -115q0 -66 59.5 -96.5t190.5 -30.5h25l-82 -84h-23q-126 0 -199 46t-73 139q0 47 19 84.5t54.5 64t73.5 43.5t89 33h-703z" />
    <glyph glyph-name="J.ss01" horiz-adv-x="1312" 
d="M612 -20q-285 0 -414.5 151.5t-129.5 450.5v86h127v-88q0 -139 27.5 -235t83.5 -151.5t130 -79.5t176 -24q99 0 172.5 22.5t131.5 74.5t88 147t30 231v1106h127v-1102q0 -289 -132 -439t-417 -150z" />
    <glyph glyph-name="K.ss01" horiz-adv-x="1355" 
d="M1176 0l-746 778h-143v-778h-123v1671h123v-778h143l746 778h163l-809 -835l809 -836h-163z" />
    <glyph glyph-name="uni0136.ss01" horiz-adv-x="1355" 
d="M1176 0l-746 778h-143v-778h-123v1671h123v-778h143l746 778h163l-809 -835l809 -836h-163zM618 -166q0 38 27.5 66t71.5 28q41 0 67.5 -27.5t26.5 -86.5q0 -156 -166 -236v78q51 23 78.5 53t36.5 74q-28 -31 -62 -31q-32 0 -56 23t-24 59z" />
    <glyph glyph-name="L.ss01" horiz-adv-x="1191" 
d="M164 0v1671h123v-1562h864v-109h-987z" />
    <glyph glyph-name="Lacute.ss01" horiz-adv-x="1191" 
d="M164 0v1671h123v-1562h864v-109h-987zM193 1872l882 151l21 -79l-883 -152z" />
    <glyph glyph-name="Lcaron.ss01" horiz-adv-x="1212" 
d="M164 0v1671h123v-1562h864v-109h-987zM639 1184l72 487h104l-94 -487h-82z" />
    <glyph glyph-name="uni013B.ss01" horiz-adv-x="1191" 
d="M164 0v1671h123v-1562h864v-109h-987zM526 -166q0 38 27.5 66t71.5 28q41 0 67.5 -27.5t26.5 -86.5q0 -156 -166 -236v78q51 23 78.5 53t36.5 74q-28 -31 -62 -31q-32 0 -56 23t-24 59z" />
    <glyph glyph-name="Lslash.ss01" horiz-adv-x="1310" 
d="M283 0v698l-228 -88v105l228 88v868h123v-819l446 174v-104l-446 -174v-639h864v-109h-987z" />
    <glyph glyph-name="M.ss01" horiz-adv-x="1763" 
d="M164 0v1671h147l572 -1487l569 1487h147v-1671h-118v1417l-543 -1417h-111l-544 1417v-1417h-119z" />
    <glyph glyph-name="N.ss01" horiz-adv-x="1523" 
d="M164 0v1671h123l954 -1444v1444h119v-1671h-123l-954 1444v-1444h-119z" />
    <glyph glyph-name="Nacute.ss01" horiz-adv-x="1523" 
d="M164 0v1671h123l954 -1444v1444h119v-1671h-123l-954 1444v-1444h-119zM309 1872l883 151l20 -79l-882 -152z" />
    <glyph glyph-name="Ncaron.ss01" horiz-adv-x="1523" 
d="M164 0v1671h123l954 -1444v1444h119v-1671h-123l-954 1444v-1444h-119zM356 2048h166l242 -188l237 188h164l-329 -254h-144z" />
    <glyph glyph-name="uni0145.ss01" horiz-adv-x="1523" 
d="M164 0v1671h123l954 -1444v1444h119v-1671h-123l-954 1444v-1444h-119zM666 -166q0 38 27 66t71 28q41 0 67.5 -27.5t26.5 -86.5q0 -156 -166 -236v78q51 23 78.5 53t36.5 74q-28 -31 -62 -31q-32 0 -55.5 23t-23.5 59z" />
    <glyph glyph-name="Ntilde.ss01" horiz-adv-x="1523" 
d="M164 0v1671h123l954 -1444v1444h119v-1671h-123l-954 1444v-1444h-119zM352 1806q0 107 61 165.5t167 58.5q54 0 96.5 -16t70 -38.5t53.5 -45t60 -38.5t76 -16q65 0 98 35.5t33 99.5h102q0 -111 -61.5 -167t-171.5 -56q-57 0 -101.5 16t-72.5 38.5t-53.5 45t-57 38.5
t-69.5 16q-63 0 -95 -37t-32 -99h-103z" />
    <glyph glyph-name="O.ss01" horiz-adv-x="1538" 
d="M768 -20q-131 0 -239.5 35t-185.5 96.5t-130 146t-78.5 183t-25.5 208.5v375q0 137 41 256t120.5 212t207.5 146.5t290 53.5q131 0 240.5 -35t186.5 -97t130.5 -146.5t79 -182.5t25.5 -207v-375q0 -110 -25.5 -208.5t-79 -183t-130.5 -146t-186.5 -96.5t-240.5 -35z
M240 647q0 -257 137.5 -405t390.5 -148q254 0 392 148t138 405v379q0 255 -138 403t-392 148q-253 0 -390.5 -148t-137.5 -403v-379z" />
    <glyph glyph-name="Oacute.ss01" horiz-adv-x="1538" 
d="M768 -20q-131 0 -239.5 35t-185.5 96.5t-130 146t-78.5 183t-25.5 208.5v375q0 137 41 256t120.5 212t207.5 146.5t290 53.5q131 0 240.5 -35t186.5 -97t130.5 -146.5t79 -182.5t25.5 -207v-375q0 -110 -25.5 -208.5t-79 -183t-130.5 -146t-186.5 -96.5t-240.5 -35z
M240 647q0 -257 137.5 -405t390.5 -148q254 0 392 148t138 405v379q0 255 -138 403t-392 148q-253 0 -390.5 -148t-137.5 -403v-379zM315 1872l883 151l21 -79l-883 -152z" />
    <glyph glyph-name="Ocircumflex.ss01" horiz-adv-x="1538" 
d="M768 -20q-131 0 -239.5 35t-185.5 96.5t-130 146t-78.5 183t-25.5 208.5v375q0 137 41 256t120.5 212t207.5 146.5t290 53.5q131 0 240.5 -35t186.5 -97t130.5 -146.5t79 -182.5t25.5 -207v-375q0 -110 -25.5 -208.5t-79 -183t-130.5 -146t-186.5 -96.5t-240.5 -35z
M240 647q0 -257 137.5 -405t390.5 -148q254 0 392 148t138 405v379q0 255 -138 403t-392 148q-253 0 -390.5 -148t-137.5 -403v-379zM362 1769l336 254h144l329 -254h-163l-238 189l-242 -189h-166z" />
    <glyph glyph-name="Odieresis.ss01" horiz-adv-x="1538" 
d="M768 -20q-131 0 -239.5 35t-185.5 96.5t-130 146t-78.5 183t-25.5 208.5v375q0 137 41 256t120.5 212t207.5 146.5t290 53.5q131 0 240.5 -35t186.5 -97t130.5 -146.5t79 -182.5t25.5 -207v-375q0 -110 -25.5 -208.5t-79 -183t-130.5 -146t-186.5 -96.5t-240.5 -35z
M240 647q0 -257 137.5 -405t390.5 -148q254 0 392 148t138 405v379q0 255 -138 403t-392 148q-253 0 -390.5 -148t-137.5 -403v-379zM406 1911q0 39 23.5 62.5t59.5 23.5q34 0 59 -24t25 -62q0 -36 -25.5 -60t-58.5 -24q-35 0 -59 23.5t-24 60.5zM961 1911q0 39 24 62.5
t59 23.5t60.5 -24t25.5 -62q0 -36 -25.5 -60t-60.5 -24q-34 0 -58.5 24t-24.5 60z" />
    <glyph glyph-name="Ograve.ss01" horiz-adv-x="1538" 
d="M768 -20q-131 0 -239.5 35t-185.5 96.5t-130 146t-78.5 183t-25.5 208.5v375q0 137 41 256t120.5 212t207.5 146.5t290 53.5q131 0 240.5 -35t186.5 -97t130.5 -146.5t79 -182.5t25.5 -207v-375q0 -110 -25.5 -208.5t-79 -183t-130.5 -146t-186.5 -96.5t-240.5 -35z
M240 647q0 -257 137.5 -405t390.5 -148q254 0 392 148t138 405v379q0 255 -138 403t-392 148q-253 0 -390.5 -148t-137.5 -403v-379zM315 1944l21 79l883 -151l-21 -80z" />
    <glyph glyph-name="Ohungarumlaut.ss01" horiz-adv-x="1538" 
d="M768 -20q-131 0 -239.5 35t-185.5 96.5t-130 146t-78.5 183t-25.5 208.5v375q0 137 41 256t120.5 212t207.5 146.5t290 53.5q131 0 240.5 -35t186.5 -97t130.5 -146.5t79 -182.5t25.5 -207v-375q0 -110 -25.5 -208.5t-79 -183t-130.5 -146t-186.5 -96.5t-240.5 -35z
M240 647q0 -257 137.5 -405t390.5 -148q254 0 392 148t138 405v379q0 255 -138 403t-392 148q-253 0 -390.5 -148t-137.5 -403v-379zM592 1794l237 229h113l-217 -229h-133zM829 1794l238 229h113l-215 -229h-136z" />
    <glyph glyph-name="Omacron.ss01" horiz-adv-x="1538" 
d="M768 -20q-131 0 -239.5 35t-185.5 96.5t-130 146t-78.5 183t-25.5 208.5v375q0 137 41 256t120.5 212t207.5 146.5t290 53.5q131 0 240.5 -35t186.5 -97t130.5 -146.5t79 -182.5t25.5 -207v-375q0 -110 -25.5 -208.5t-79 -183t-130.5 -146t-186.5 -96.5t-240.5 -35z
M240 647q0 -257 137.5 -405t390.5 -148q254 0 392 148t138 405v379q0 255 -138 403t-392 148q-253 0 -390.5 -148t-137.5 -403v-379zM315 1868v82h904v-82h-904z" />
    <glyph glyph-name="Oslash.ss01" horiz-adv-x="1538" 
d="M176 4l105 164q-85 91 -128.5 215t-43.5 266v375q0 137 41 256t120.5 212t207.5 146.5t290 53.5q250 0 412 -121l63 98h119l-107 -166q86 -91 130.5 -215t44.5 -264v-375q0 -110 -25.5 -208.5t-79 -183t-130.5 -146t-186.5 -96.5t-240.5 -35q-248 0 -412 120l-61 -96
h-119zM240 647q0 -233 110 -373l766 1196q-138 107 -348 107q-253 0 -390.5 -148t-137.5 -403v-379zM422 201q135 -107 346 -107q254 0 392 148t138 405v379q0 231 -110 371z" />
    <glyph glyph-name="Otilde.ss01" horiz-adv-x="1538" 
d="M768 -20q-131 0 -239.5 35t-185.5 96.5t-130 146t-78.5 183t-25.5 208.5v375q0 137 41 256t120.5 212t207.5 146.5t290 53.5q131 0 240.5 -35t186.5 -97t130.5 -146.5t79 -182.5t25.5 -207v-375q0 -110 -25.5 -208.5t-79 -183t-130.5 -146t-186.5 -96.5t-240.5 -35z
M240 647q0 -257 137.5 -405t390.5 -148q254 0 392 148t138 405v379q0 255 -138 403t-392 148q-253 0 -390.5 -148t-137.5 -403v-379zM358 1806q0 107 61 165.5t167 58.5q54 0 96.5 -16t70 -38.5t53.5 -45t60 -38.5t76 -16q65 0 98 35.5t33 99.5h103q0 -111 -62 -167
t-172 -56q-57 0 -101.5 16t-72.5 38.5t-53.5 45t-57 38.5t-69.5 16q-63 0 -95 -37t-32 -99h-103z" />
    <glyph glyph-name="P.ss01" horiz-adv-x="1419" 
d="M164 0v1671h661q518 0 518 -520v-43q0 -261 -129 -395.5t-389 -134.5h-538v-578h-123zM287 684h528q205 0 302 101.5t97 316.5v53q0 214 -96 311t-303 97h-528v-879z" />
    <glyph glyph-name="Q.ss01" horiz-adv-x="1538" 
d="M1239 -268q-185 96 -327.5 134.5t-331.5 39.5v94q-229 54 -350 231t-121 418v375q0 137 41 256t120.5 212t207.5 146.5t290 53.5q131 0 240.5 -35t186.5 -97t130.5 -146.5t79 -182.5t25.5 -207v-375q0 -130 -36 -243t-106 -203.5t-182.5 -148t-255.5 -70.5
q216 -31 389 -127v-125zM240 647q0 -257 137.5 -405t390.5 -148q254 0 392 148t138 405v379q0 255 -138 403t-392 148q-253 0 -390.5 -148t-137.5 -403v-379z" />
    <glyph glyph-name="R.ss01" horiz-adv-x="1449" 
d="M1221 0q-25 27 -25 150v262q0 84 -25 146t-61.5 96t-92 54t-103 25.5t-107.5 5.5h-520v-739h-123v1671h645q272 0 395 -103t123 -339v-31q0 -165 -64.5 -261.5t-203.5 -139.5q129 -39 196.5 -134t67.5 -243v-270q0 -123 25 -150h-127zM287 848h522q109 0 185 23t120.5 69
t64 107t19.5 145v39q0 84 -18 143t-49.5 96t-85.5 57.5t-114.5 28t-146.5 7.5h-497v-715z" />
    <glyph glyph-name="Racute.ss01" horiz-adv-x="1449" 
d="M1221 0q-25 27 -25 150v262q0 84 -25 146t-61.5 96t-92 54t-103 25.5t-107.5 5.5h-520v-739h-123v1671h645q272 0 395 -103t123 -339v-31q0 -165 -64.5 -261.5t-203.5 -139.5q129 -39 196.5 -134t67.5 -243v-270q0 -123 25 -150h-127zM283 1872l882 151l21 -79l-883 -152
zM287 848h522q109 0 185 23t120.5 69t64 107t19.5 145v39q0 84 -18 143t-49.5 96t-85.5 57.5t-114.5 28t-146.5 7.5h-497v-715z" />
    <glyph glyph-name="Rcaron.ss01" horiz-adv-x="1449" 
d="M1221 0q-25 27 -25 150v262q0 84 -25 146t-61.5 96t-92 54t-103 25.5t-107.5 5.5h-520v-739h-123v1671h645q272 0 395 -103t123 -339v-31q0 -165 -64.5 -261.5t-203.5 -139.5q129 -39 196.5 -134t67.5 -243v-270q0 -123 25 -150h-127zM287 848h522q109 0 185 23t120.5 69
t64 107t19.5 145v39q0 84 -18 143t-49.5 96t-85.5 57.5t-114.5 28t-146.5 7.5h-497v-715zM330 2048h166l241 -188l238 188h164l-330 -254h-143z" />
    <glyph glyph-name="uni0156.ss01" horiz-adv-x="1449" 
d="M1221 0q-25 27 -25 150v262q0 84 -25 146t-61.5 96t-92 54t-103 25.5t-107.5 5.5h-520v-739h-123v1671h645q272 0 395 -103t123 -339v-31q0 -165 -64.5 -261.5t-203.5 -139.5q129 -39 196.5 -134t67.5 -243v-270q0 -123 25 -150h-127zM287 848h522q109 0 185 23t120.5 69
t64 107t19.5 145v39q0 84 -18 143t-49.5 96t-85.5 57.5t-114.5 28t-146.5 7.5h-497v-715zM639 -166q0 38 27 66t71 28q41 0 67.5 -27.5t26.5 -86.5q0 -157 -165 -236v78q51 23 78 53t36 74q-28 -31 -61 -31q-32 0 -56 23t-24 59z" />
    <glyph glyph-name="S.ss01" horiz-adv-x="1351" 
d="M707 -20q-311 0 -469 135.5t-158 400.5v90h129v-94q0 -218 124 -319t378 -101q216 0 316.5 77.5t100.5 248.5v4q0 63 -16 112.5t-40.5 83.5t-67 62.5t-83 46.5t-100.5 39l-313 106q-65 24 -112.5 46t-100 57.5t-85 76t-54 99t-21.5 129.5q0 194 141 303t396 109
q274 0 417.5 -126.5t143.5 -367.5v-61h-129v63q0 196 -108 287.5t-326 91.5q-406 0 -406 -295v-4q0 -63 24 -113t70 -85.5t91.5 -58.5t109.5 -46l324 -109q47 -18 79.5 -31.5t75.5 -37t71.5 -46.5t59.5 -57.5t49 -73.5t30 -91.5t12 -114.5q0 -214 -137.5 -325t-415.5 -111z
" />
    <glyph glyph-name="Sacute.ss01" horiz-adv-x="1351" 
d="M707 -20q-311 0 -469 135.5t-158 400.5v90h129v-94q0 -218 124 -319t378 -101q216 0 316.5 77.5t100.5 248.5v4q0 63 -16 112.5t-40.5 83.5t-67 62.5t-83 46.5t-100.5 39l-313 106q-65 24 -112.5 46t-100 57.5t-85 76t-54 99t-21.5 129.5q0 194 141 303t396 109
q274 0 417.5 -126.5t143.5 -367.5v-61h-129v63q0 196 -108 287.5t-326 91.5q-406 0 -406 -295v-4q0 -63 24 -113t70 -85.5t91.5 -58.5t109.5 -46l324 -109q47 -18 79.5 -31.5t75.5 -37t71.5 -46.5t59.5 -57.5t49 -73.5t30 -91.5t12 -114.5q0 -214 -137.5 -325t-415.5 -111z
M221 1872l883 151l20 -79l-882 -152z" />
    <glyph glyph-name="Scaron.ss01" horiz-adv-x="1351" 
d="M707 -20q-311 0 -469 135.5t-158 400.5v90h129v-94q0 -218 124 -319t378 -101q216 0 316.5 77.5t100.5 248.5v4q0 63 -16 112.5t-40.5 83.5t-67 62.5t-83 46.5t-100.5 39l-313 106q-65 24 -112.5 46t-100 57.5t-85 76t-54 99t-21.5 129.5q0 194 141 303t396 109
q274 0 417.5 -126.5t143.5 -367.5v-61h-129v63q0 196 -108 287.5t-326 91.5q-406 0 -406 -295v-4q0 -63 24 -113t70 -85.5t91.5 -58.5t109.5 -46l324 -109q47 -18 79.5 -31.5t75.5 -37t71.5 -46.5t59.5 -57.5t49 -73.5t30 -91.5t12 -114.5q0 -214 -137.5 -325t-415.5 -111z
M268 2048h166l242 -188l237 188h164l-329 -254h-144z" />
    <glyph glyph-name="Scedilla.ss01" horiz-adv-x="1351" 
d="M541 -342q147 0 205.5 15.5t58.5 66.5q0 52 -56.5 62t-166.5 -9l45 189q-271 17 -409 151.5t-138 382.5v90h129v-94q0 -218 124 -319t378 -101q216 0 316.5 77.5t100.5 248.5v4q0 63 -16 112.5t-40.5 83.5t-67 62.5t-83 46.5t-100.5 39l-313 106q-65 24 -112.5 46
t-100 57.5t-85 76t-54 99t-21.5 129.5q0 194 141 303t396 109q274 0 417.5 -126.5t143.5 -367.5v-61h-129v63q0 196 -108 287.5t-326 91.5q-406 0 -406 -295v-4q0 -63 24 -113t70 -85.5t91.5 -58.5t109.5 -46l324 -109q47 -18 79.5 -31.5t75.5 -37t71.5 -46.5t59.5 -57.5
t49 -73.5t30 -91.5t12 -114.5q0 -212 -136 -323.5t-411 -112.5l-29 -115q225 32 225 -125q0 -92 -92 -128t-278 -36z" />
    <glyph glyph-name="uni0218.ss01" horiz-adv-x="1351" 
d="M707 -20q-311 0 -469 135.5t-158 400.5v90h129v-94q0 -218 124 -319t378 -101q216 0 316.5 77.5t100.5 248.5v4q0 63 -16 112.5t-40.5 83.5t-67 62.5t-83 46.5t-100.5 39l-313 106q-65 24 -112.5 46t-100 57.5t-85 76t-54 99t-21.5 129.5q0 194 141 303t396 109
q274 0 417.5 -126.5t143.5 -367.5v-61h-129v63q0 196 -108 287.5t-326 91.5q-406 0 -406 -295v-4q0 -63 24 -113t70 -85.5t91.5 -58.5t109.5 -46l324 -109q47 -18 79.5 -31.5t75.5 -37t71.5 -46.5t59.5 -57.5t49 -73.5t30 -91.5t12 -114.5q0 -214 -137.5 -325t-415.5 -111z
M578 -166q0 38 27 66t71 28q41 0 67.5 -27.5t26.5 -86.5q0 -156 -166 -236v78q51 23 78.5 53t36.5 74q-28 -31 -62 -31q-32 0 -55.5 23t-23.5 59z" />
    <glyph glyph-name="uni1E9E.ss01" horiz-adv-x="1341" 
d="M158 1284q0 206 118 296.5t379 90.5h578q-29 -146 -51.5 -239.5t-49.5 -172t-58.5 -124t-71.5 -76t-95 -47.5q162 -35 240 -140.5t78 -310.5v-90q0 -257 -127.5 -364t-390.5 -107h-295v102h274q111 -1 185.5 15t129 56.5t79 112t24.5 179.5v92q0 52 -3.5 91t-15 82.5
t-31 75t-53.5 61.5t-81 48.5t-114.5 29.5t-152.5 11h-241v103h237q70 0 123.5 10t93.5 24t71.5 49t53 66t43 95t35.5 115.5t37 146.5h-451q-204 0 -291.5 -62.5t-87.5 -212.5v-1290h-118v1284z" />
    <glyph glyph-name="T.ss01" horiz-adv-x="1259" 
d="M567 0v1563h-522v108h1169v-108h-522v-1563h-125z" />
    <glyph glyph-name="Tbar.ss01" horiz-adv-x="1280" 
d="M578 0v793h-398v86h398v684h-523v108h1170v-108h-523v-684h396v-86h-396v-793h-124z" />
    <glyph glyph-name="Tcaron.ss01" horiz-adv-x="1259" 
d="M567 0v1563h-522v108h1169v-108h-522v-1563h-125zM223 2048h166l242 -188l237 188h164l-330 -254h-143z" />
    <glyph glyph-name="uni0162.ss01" horiz-adv-x="1259" 
d="M567 0v1563h-522v108h1169v-108h-522v-1563h-18l-35 -135q225 32 225 -125q0 -92 -92 -128t-278 -36l2 82q147 0 205.5 15.5t58.5 66.5q0 52 -56.5 62t-166.5 -9l49 207h-19z" />
    <glyph glyph-name="uni021A.ss01" horiz-adv-x="1259" 
d="M567 0v1563h-522v108h1169v-108h-522v-1563h-125zM532 -166q0 38 27.5 66t71.5 28q41 0 67.5 -27.5t26.5 -86.5q0 -156 -166 -236v78q51 23 78.5 53t36.5 74q-28 -31 -62 -31q-32 0 -56 23t-24 59z" />
    <glyph glyph-name="U.ss01" horiz-adv-x="1478" 
d="M739 -20q-318 0 -451.5 140t-133.5 449v1102h125v-1106q0 -117 21 -201.5t57.5 -137t96 -83.5t126.5 -42t159 -11t159 11t126.5 42t96.5 83.5t58 137t21 201.5v1106h127v-1102q0 -312 -136.5 -450.5t-451.5 -138.5z" />
    <glyph glyph-name="Uacute.ss01" horiz-adv-x="1478" 
d="M739 -20q-318 0 -451.5 140t-133.5 449v1102h125v-1106q0 -117 21 -201.5t57.5 -137t96 -83.5t126.5 -42t159 -11t159 11t126.5 42t96.5 83.5t58 137t21 201.5v1106h127v-1102q0 -312 -136.5 -450.5t-451.5 -138.5zM287 1872l882 151l21 -79l-883 -152z" />
    <glyph glyph-name="Ucircumflex.ss01" horiz-adv-x="1478" 
d="M739 -20q-318 0 -451.5 140t-133.5 449v1102h125v-1106q0 -117 21 -201.5t57.5 -137t96 -83.5t126.5 -42t159 -11t159 11t126.5 42t96.5 83.5t58 137t21 201.5v1106h127v-1102q0 -312 -136.5 -450.5t-451.5 -138.5zM334 1769l336 254h143l330 -254h-164l-238 189
l-241 -189h-166z" />
    <glyph glyph-name="Udieresis.ss01" horiz-adv-x="1478" 
d="M739 -20q-318 0 -451.5 140t-133.5 449v1102h125v-1106q0 -117 21 -201.5t57.5 -137t96 -83.5t126.5 -42t159 -11t159 11t126.5 42t96.5 83.5t58 137t21 201.5v1106h127v-1102q0 -312 -136.5 -450.5t-451.5 -138.5zM377 1911q0 39 24 62.5t60 23.5q34 0 59 -24t25 -62
q0 -36 -25.5 -60t-58.5 -24q-36 0 -60 24t-24 60zM932 1911q0 39 24.5 62.5t59.5 23.5t60.5 -24t25.5 -62q0 -36 -25.5 -60t-60.5 -24q-34 0 -59 24t-25 60z" />
    <glyph glyph-name="Ugrave.ss01" horiz-adv-x="1478" 
d="M739 -20q-318 0 -451.5 140t-133.5 449v1102h125v-1106q0 -117 21 -201.5t57.5 -137t96 -83.5t126.5 -42t159 -11t159 11t126.5 42t96.5 83.5t58 137t21 201.5v1106h127v-1102q0 -312 -136.5 -450.5t-451.5 -138.5zM287 1944l20 79l883 -151l-21 -80z" />
    <glyph glyph-name="Uhungarumlaut.ss01" horiz-adv-x="1478" 
d="M739 -20q-318 0 -451.5 140t-133.5 449v1102h125v-1106q0 -117 21 -201.5t57.5 -137t96 -83.5t126.5 -42t159 -11t159 11t126.5 42t96.5 83.5t58 137t21 201.5v1106h127v-1102q0 -312 -136.5 -450.5t-451.5 -138.5zM563 1794l238 229h112l-217 -229h-133zM801 1794
l237 229h113l-215 -229h-135z" />
    <glyph glyph-name="Umacron.ss01" horiz-adv-x="1478" 
d="M739 -20q-318 0 -451.5 140t-133.5 449v1102h125v-1106q0 -117 21 -201.5t57.5 -137t96 -83.5t126.5 -42t159 -11t159 11t126.5 42t96.5 83.5t58 137t21 201.5v1106h127v-1102q0 -312 -136.5 -450.5t-451.5 -138.5zM287 1868v82h903v-82h-903z" />
    <glyph glyph-name="Uogonek.ss01" horiz-adv-x="1478" 
d="M739 -20q-318 0 -451.5 140t-133.5 449v1102h125v-1106q0 -117 21 -201.5t57.5 -137t96 -83.5t126.5 -42t159 -11t159 11t126.5 42t96.5 83.5t58 137t21 201.5v1106h127v-1102q0 -256 -90.5 -394t-292.5 -177q-103 -36 -154 -83.5t-51 -113.5t59.5 -96.5t190.5 -30.5h25
l-82 -84h-23q-126 0 -199 46t-73 139q0 140 182 207q-27 -2 -80 -2z" />
    <glyph glyph-name="Uring.ss01" horiz-adv-x="1478" 
d="M739 -20q-318 0 -451.5 140t-133.5 449v1102h125v-1106q0 -117 21 -201.5t57.5 -137t96 -83.5t126.5 -42t159 -11t159 11t126.5 42t96.5 83.5t58 137t21 201.5v1106h127v-1102q0 -312 -136.5 -450.5t-451.5 -138.5zM573 1929q0 71 49.5 118.5t116.5 47.5t116.5 -47.5
t49.5 -118.5t-49.5 -118.5t-116.5 -47.5t-116.5 47.5t-49.5 118.5zM649 1929q0 -40 24.5 -65t65.5 -25t65.5 25t24.5 65t-24.5 65t-65.5 25t-65.5 -25t-24.5 -65z" />
    <glyph glyph-name="V.ss01" horiz-adv-x="1353" 
d="M602 0l-553 1671h131l492 -1521l6 -17l4 14l489 1524h134l-551 -1671h-152z" />
    <glyph glyph-name="W.ss01" horiz-adv-x="2140" 
d="M510 0l-455 1671h129l402 -1509l405 1509h158l403 -1503l4 -10l3 10l397 1503h129l-455 -1671h-149l-408 1499l-4 17l-4 -17l-406 -1499h-149z" />
    <glyph glyph-name="Wacute.ss01" horiz-adv-x="2140" 
d="M510 0l-455 1671h129l402 -1509l405 1509h158l403 -1503l4 -10l3 10l397 1503h129l-455 -1671h-149l-408 1499l-4 17l-4 -17l-406 -1499h-149zM618 1872l883 151l21 -79l-883 -152z" />
    <glyph glyph-name="Wcircumflex.ss01" horiz-adv-x="2140" 
d="M510 0l-455 1671h129l402 -1509l405 1509h158l403 -1503l4 -10l3 10l397 1503h129l-455 -1671h-149l-408 1499l-4 17l-4 -17l-406 -1499h-149zM664 1769l335 254h144l330 -254h-164l-238 189l-242 -189h-165z" />
    <glyph glyph-name="Wdieresis.ss01" horiz-adv-x="2140" 
d="M510 0l-455 1671h129l402 -1509l405 1509h158l403 -1503l4 -10l3 10l397 1503h129l-455 -1671h-149l-408 1499l-4 17l-4 -17l-406 -1499h-149zM709 1911q0 39 24 62.5t60 23.5q34 0 59 -24t25 -62q0 -36 -25.5 -60t-58.5 -24q-36 0 -60 24t-24 60zM1264 1911
q0 39 24.5 62.5t59.5 23.5t60.5 -24t25.5 -62q0 -36 -25.5 -60t-60.5 -24q-34 0 -59 24t-25 60z" />
    <glyph glyph-name="Wgrave.ss01" horiz-adv-x="2140" 
d="M510 0l-455 1671h129l402 -1509l405 1509h158l403 -1503l4 -10l3 10l397 1503h129l-455 -1671h-149l-408 1499l-4 17l-4 -17l-406 -1499h-149zM618 1944l21 79l883 -151l-21 -80z" />
    <glyph glyph-name="X.ss01" horiz-adv-x="1347" 
d="M25 0l581 850l-569 821h145l494 -717l493 717h148l-574 -821l576 -850h-148l-499 745l-500 -745h-147z" />
    <glyph glyph-name="Y.ss01" horiz-adv-x="1402" 
d="M639 0v590l-592 1081h141l514 -946l512 946h142l-592 -1081v-590h-125z" />
    <glyph glyph-name="Yacute.ss01" horiz-adv-x="1402" 
d="M639 0v590l-592 1081h141l514 -946l512 946h142l-592 -1081v-590h-125zM250 1872l883 151l20 -79l-883 -152z" />
    <glyph glyph-name="Ycircumflex.ss01" horiz-adv-x="1402" 
d="M639 0v590l-592 1081h141l514 -946l512 946h142l-592 -1081v-590h-125zM297 1769l336 254h143l330 -254h-164l-237 189l-242 -189h-166z" />
    <glyph glyph-name="Ydieresis.ss01" horiz-adv-x="1402" 
d="M639 0v590l-592 1081h141l514 -946l512 946h142l-592 -1081v-590h-125zM340 1911q0 39 24 62.5t60 23.5q34 0 59 -24t25 -62q0 -36 -25.5 -60t-58.5 -24q-36 0 -60 24t-24 60zM895 1911q0 39 24.5 62.5t59.5 23.5t60.5 -24t25.5 -62q0 -36 -25.5 -60t-60.5 -24
q-34 0 -59 24t-25 60z" />
    <glyph glyph-name="Ygrave.ss01" horiz-adv-x="1402" 
d="M639 0v590l-592 1081h141l514 -946l512 946h142l-592 -1081v-590h-125zM250 1944l20 79l883 -151l-20 -80z" />
    <glyph glyph-name="Z.ss01" horiz-adv-x="1236" 
d="M66 0v106l962 1459h-962v106h1105v-106l-962 -1459h962v-106h-1105z" />
    <glyph glyph-name="Zacute.ss01" horiz-adv-x="1236" 
d="M66 0v106l962 1459h-962v106h1105v-106l-962 -1459h962v-106h-1105zM166 1872l883 151l20 -79l-883 -152z" />
    <glyph glyph-name="Zcaron.ss01" horiz-adv-x="1236" 
d="M66 0v106l962 1459h-962v106h1105v-106l-962 -1459h962v-106h-1105zM213 2048h166l242 -188l237 188h164l-330 -254h-143z" />
    <glyph glyph-name="Zdotaccent.ss01" horiz-adv-x="1236" 
d="M66 0v106l962 1459h-962v106h1105v-106l-962 -1459h962v-106h-1105zM520 1878q0 40 28 69t70 29t70.5 -29t28.5 -69q0 -38 -28.5 -66t-70.5 -28t-70 28t-28 66z" />
    <glyph glyph-name="W.ss02" horiz-adv-x="1540" 
d="M123 0v1671h119v-1399l501 1399h142v-1392l504 1392h122l-604 -1671h-141v1399l-502 -1399h-141z" />
    <glyph glyph-name="W.ss03" horiz-adv-x="3092" 
d="M365 0h-162v1671h119v-1532l1267 1532h158v-1530l1233 1530h153l-1345 -1671h-162v1526z" />
    <glyph glyph-name="i.loclTRK" horiz-adv-x="423" 
d="M152 1331h120v-1331h-120v1331zM113 1593q0 42 28 70.5t72 28.5q43 0 70.5 -28.5t27.5 -70.5q0 -38 -27.5 -66t-70.5 -28t-71.5 28t-28.5 66z" />
    <glyph glyph-name="uni006A0301" horiz-adv-x="423" 
d="M152 -23v1354h120v-1374q0 -113 -16 -185.5t-57 -122.5t-110 -70.5t-177 -20.5h-127v102h121q54 0 91.5 6t66 21.5t45 37.5t26.5 60t13.5 82t3.5 110zM-49 1528l489 155l29 -75l-489 -154z" />
    <glyph glyph-name="w.ss02" horiz-adv-x="1718" 
d="M152 0v1331h118v-1134l590 1134h141v-1134l590 1134h123l-690 -1331h-141v1139l-590 -1139h-141z" />
    <glyph glyph-name="zero.ss01" horiz-adv-x="1409" 
d="M711 -20q-300 0 -448 177.5t-148 501.5v359q0 320 149 497t447 177q194 0 326 -83t194.5 -232t62.5 -359v-359q0 -323 -146.5 -501t-436.5 -178zM240 655q0 -236 77 -372l717 1185q-113 119 -323 119q-234 0 -352.5 -139t-118.5 -428v-365zM387 195q115 -109 324 -109
q458 0 458 569v365q0 221 -69 356z" />
    <glyph glyph-name="one.ss01" horiz-adv-x="1042" 
d="M80 104h412v1422q-67 -93 -178.5 -142t-239.5 -49v111q133 0 229.5 54.5t177.5 170.5h131v-1567h412v-104h-944v104z" />
    <glyph glyph-name="two.ss01" horiz-adv-x="1345" 
d="M96 106q0 70 4 124t16.5 114t34.5 107t58.5 95.5t87.5 87t124 75t165 65.5l196 96q65 22 112.5 43t93.5 53t74.5 70.5t46 92.5t17.5 120v4q0 180 -110.5 257t-319.5 77q-238 0 -347 -97t-109 -329v-43h-125v41q0 270 141 401.5t438 131.5q269 0 413 -111t144 -334
q0 -83 -22.5 -152.5t-59.5 -118.5t-92 -89.5t-112.5 -66.5t-128.5 -48l-197 -96q-90 -26 -155.5 -55t-112.5 -67t-76.5 -79.5t-46.5 -100.5t-23 -121t-6 -149h1032v-104h-1155v106z" />
    <glyph glyph-name="three.ss01" horiz-adv-x="1341" 
d="M662 -20q-293 0 -434.5 121t-143.5 366v47h125v-49q0 -205 111.5 -292t341.5 -87q222 0 333 82t111 258v45q0 338 -430 338h-225v102h225q418 0 418 303v35q0 338 -426 338q-76 0 -136.5 -9t-118 -34t-96 -65t-61.5 -105.5t-23 -152.5v-43h-124v41q3 473 561 473
q274 0 411.5 -115t137.5 -328v-30q0 -132 -77 -230t-210 -127q148 -39 223.5 -141t75.5 -254v-39q0 -211 -143 -329.5t-426 -118.5z" />
    <glyph glyph-name="four.ss01" horiz-adv-x="1284" 
d="M1028 1671v-1194h213v-104h-213v-373h-121v373h-872v106l874 1192h119zM168 477h739v987z" />
    <glyph glyph-name="five.ss01" horiz-adv-x="1339" 
d="M717 1120q254 0 395 -131t141 -377v-120q0 -247 -150 -379.5t-425 -132.5q-171 0 -297 51.5t-200.5 163t-74.5 274.5v33h125v-35q0 -89 28.5 -158.5t73.5 -110.5t106.5 -67t119.5 -35.5t121 -9.5q76 0 140.5 13t122 42.5t98 75t64 114.5t23.5 156v127q0 201 -109 300.5
t-312 99.5q-182 0 -286 -76.5t-171 -224.5h-127l53 958h1000v-104h-885l-43 -662q151 215 469 215z" />
    <glyph glyph-name="six.ss01" horiz-adv-x="1370" 
d="M700 -20q-296 0 -436.5 133.5t-140.5 402.5v545q0 153 30.5 266.5t97 197t177.5 125.5t268 42q141 0 245 -35.5t164 -100t88 -145.5t28 -180v-14h-123v14q0 186 -101.5 270t-296.5 84q-112 0 -193 -25t-140.5 -81t-89 -151.5t-29.5 -231.5v-181q142 205 479 205
q261 0 402 -131t141 -381v-116q0 -512 -570 -512zM248 504q0 -225 112.5 -321.5t341.5 -96.5q225 0 334 94t109 307v127q0 400 -428 400q-210 0 -339.5 -97.5t-129.5 -283.5v-129z" />
    <glyph glyph-name="seven.ss01" horiz-adv-x="1177" 
d="M16 1567v104h1110v-104q-148 -111 -259.5 -247.5t-181.5 -280.5t-113 -316.5t-59.5 -342t-16.5 -370.5v-10h-121v10q0 159 10.5 296.5t35.5 282t70 273t110 252.5t160 238.5t216 214.5h-961z" />
    <glyph glyph-name="eight.ss01" horiz-adv-x="1353" 
d="M676 -20q-284 0 -428 113t-144 331v63q0 315 299 398q-121 36 -188.5 124.5t-67.5 219.5v59q0 191 136.5 297.5t394.5 106.5q256 0 392 -106.5t136 -297.5v-59q0 -131 -68 -219.5t-188 -124.5q299 -83 299 -398v-63q0 -218 -144 -331t-429 -113zM229 424
q0 -181 111.5 -259.5t335.5 -78.5t336 78.5t112 261.5v66q0 96 -32.5 162.5t-94.5 103.5t-139.5 53t-181.5 16q-102 0 -179.5 -16t-140 -53t-95 -104t-32.5 -162v-68zM272 1223q0 -78 31 -135t87 -90.5t127.5 -49.5t158.5 -16q86 0 157 15.5t128 49t88.5 91t31.5 135.5v65
q0 299 -405 299q-404 0 -404 -299v-65z" />
    <glyph glyph-name="nine.ss01" horiz-adv-x="1370" 
d="M674 -20q-141 0 -245 35.5t-163.5 100t-87.5 145.5t-28 181v13h124v-13q0 -187 100.5 -270.5t295.5 -83.5q112 0 193.5 24.5t141.5 81t89.5 152t29.5 232.5v178q-143 -205 -481 -205q-261 0 -401 130.5t-140 379.5v119q0 253 139 382.5t429 129.5q296 0 437.5 -134
t141.5 -401v-549q0 -152 -30.5 -265.5t-97.5 -196t-178.5 -124.5t-268.5 -42zM227 1057q0 -400 426 -400q211 0 341 97.5t130 283.5v129q0 225 -113 322.5t-343 97.5q-224 0 -332.5 -94.5t-108.5 -308.5v-127z" />
    <glyph glyph-name="zero.tf" horiz-adv-x="1335" 
d="M672 -18q-261 0 -387.5 157t-126.5 443v512q0 139 30.5 248t92 187.5t160.5 120.5t231 42q255 0 380.5 -157.5t125.5 -440.5v-512q0 -286 -125.5 -443t-380.5 -157zM283 575q0 -182 49 -292l624 1185q-96 119 -284 119q-193 0 -291 -116t-98 -371v-525zM391 188
q95 -104 281 -104q188 0 284.5 117t96.5 374v525q0 164 -41 270z" />
    <glyph glyph-name="one.tf" horiz-adv-x="1335" 
d="M283 102h356v1414q-56 -85 -151.5 -130t-208.5 -45v111q118 0 202.5 53.5t153.5 165.5h125v-1569h358v-102h-835v102z" />
    <glyph glyph-name="two.tf" horiz-adv-x="1335" 
d="M168 104q0 77 4.5 133t18.5 118t41.5 110.5t71.5 98.5t110 95.5t155 88.5l193 126q69 33 116 65t88.5 77t62 106t20.5 138v8q0 92 -25.5 155.5t-74.5 98.5t-110.5 50t-144.5 15q-93 0 -161 -18.5t-119.5 -61.5t-77 -119t-25.5 -186v-65h-125v61q0 494 508 494
q233 0 356.5 -108t123.5 -322q0 -79 -20 -146.5t-52 -116t-79.5 -91.5t-93.5 -71t-104 -55l-188 -127q-89 -39 -147.5 -76t-99 -80t-61.5 -101.5t-29.5 -126.5t-8.5 -169h880v-102h-1003v104z" />
    <glyph glyph-name="three.tf" horiz-adv-x="1335" 
d="M659 -20q-253 0 -376 115t-123 347v66h123v-68q1 -197 93.5 -276.5t282.5 -79.5q187 0 281 78.5t94 253.5v63q0 334 -360 334h-197v102h195q51 0 95.5 6t94 25.5t84 50.5t57.5 86t23 127v52q0 78 -20 136.5t-52.5 94t-81 57t-97.5 29.5t-109 8q-64 0 -115 -8t-99.5 -31
t-80.5 -60.5t-51.5 -99.5t-20.5 -145v-59h-123v55q0 225 120.5 339t369.5 114q242 0 362.5 -112t120.5 -318v-45q0 -130 -68.5 -226t-189.5 -125q131 -36 199.5 -138t68.5 -255v-55q0 -201 -123.5 -319.5t-376.5 -118.5z" />
    <glyph glyph-name="four.tf" horiz-adv-x="1335" 
d="M999 1671v-1198h185v-102h-185v-371h-118v371h-740v104l742 1196h116zM266 473h615v971z" />
    <glyph glyph-name="five.tf" horiz-adv-x="1335" 
d="M719 1120q215 0 336 -124t121 -349v-174q0 -239 -130.5 -366t-373.5 -127q-231 0 -364.5 119t-133.5 347v54h125v-58q0 -84 23 -148.5t59.5 -103.5t88 -63.5t101 -33.5t105.5 -9q82 0 147.5 20t118 63.5t81 119.5t28.5 180v178q0 184 -90.5 277.5t-253.5 93.5
q-285 0 -390 -299h-127l50 954h858v-102h-744l-39 -647q131 198 404 198z" />
    <glyph glyph-name="six.tf" horiz-adv-x="1335" 
d="M676 -20q-253 0 -376.5 125t-123.5 376v652q0 125 28 224.5t87 176t158 117.5t233 41q101 0 179 -24t127.5 -63.5t82.5 -97t46.5 -118.5t15.5 -134l2 -30h-125v30q-6 169 -86.5 249.5t-239.5 80.5q-383 0 -383 -426v-239q121 200 410 200q225 0 345 -124.5t120 -356.5
v-174q0 -234 -123.5 -359.5t-376.5 -125.5zM301 475q0 -211 95.5 -301t279.5 -90q190 0 282.5 91.5t92.5 289.5v176q0 375 -357 375q-176 0 -284.5 -94.5t-108.5 -268.5v-178z" />
    <glyph glyph-name="seven.tf" horiz-adv-x="1335" 
d="M170 1569v102h969v-102q-158 -147 -266 -317t-169.5 -366.5t-87.5 -405t-26 -464.5v-16h-121v14q0 248 25 452t84 401.5t165 372.5t261 329h-834z" />
    <glyph glyph-name="eight.tf" horiz-adv-x="1335" 
d="M668 -20q-500 0 -500 430v88q0 310 266 385q-108 35 -169.5 119t-61.5 215v86q0 182 119 285.5t346 103.5t344.5 -103t117.5 -286v-86q0 -131 -60.5 -215t-168.5 -119q264 -78 264 -385v-88q0 -430 -497 -430zM293 408q0 -181 94 -253.5t281 -72.5q91 0 157 15.5t116 52
t74.5 101t24.5 157.5v98q0 93 -27 157.5t-79.5 98.5t-116 48.5t-149.5 14.5t-150 -14.5t-117 -48.5t-80.5 -98.5t-27.5 -157.5v-98zM328 1210q0 -147 91.5 -213.5t248.5 -66.5q73 0 132 15t106.5 46.5t73.5 87t26 131.5v93q0 148 -85.5 217t-252.5 69q-340 0 -340 -286v-93z
" />
    <glyph glyph-name="nine.tf" horiz-adv-x="1335" 
d="M657 1692q253 0 376.5 -125.5t123.5 -376.5v-651q0 -125 -28 -224.5t-87 -176t-158 -117.5t-233 -41q-101 0 -179 24t-127.5 63.5t-82 96.5t-46 118t-15.5 134l-2 30h125v-30q6 -169 86 -249.5t239 -80.5q383 0 383 426v240q-122 -201 -409 -201q-225 0 -345 124.5
t-120 356.5v174q0 234 123.5 360t375.5 126zM283 1030q0 -375 356 -375q176 0 284.5 94.5t108.5 268.5v178q0 211 -95.5 301t-279.5 90q-190 0 -282 -91.5t-92 -289.5v-176z" />
    <glyph glyph-name="zero.dnom" horiz-adv-x="669" 
d="M336 -10q-132 0 -199 80.5t-67 226.5v244q0 144 67 224.5t199 80.5q131 0 198.5 -80.5t67.5 -224.5v-244q0 -146 -67 -226.5t-199 -80.5zM164 285q0 -52 10 -97l297 519q-46 61 -135 61q-172 0 -172 -217v-266zM207 119q42 -51 129 -51q172 0 172 217v266q0 53 -8 86z
" />
    <glyph glyph-name="one.dnom" horiz-adv-x="514" 
d="M55 78h172v647q-61 -74 -174 -74v84q115 0 178 101h86v-758h177v-78h-439v78z" />
    <glyph glyph-name="two.dnom" horiz-adv-x="638" 
d="M59 84q0 55 8 95.5t28.5 81t61.5 73.5t103 61l92 51q70 31 102.5 71.5t32.5 107.5v6q0 75 -40 106t-119 31q-86 0 -126 -37.5t-40 -128.5v-37h-94v31q0 250 260 250q254 0 254 -225q0 -170 -176 -246l-97 -53q-96 -37 -125.5 -87t-29.5 -157h428v-78h-523v84z" />
    <glyph glyph-name="three.dnom" horiz-adv-x="641" 
d="M317 -10q-132 0 -196 58t-66 177v33h95v-37q1 -86 41 -119.5t124 -33.5q86 0 126 33.5t40 107.5v43q0 43 -13.5 72t-37.5 42.5t-49.5 19t-58.5 5.5h-97v78h97q153 0 153 127v35q0 76 -42 106.5t-116 30.5q-78 0 -118 -32t-41 -115v-33h-95v26q3 232 254 232
q129 0 190.5 -60t61.5 -157v-21q2 -65 -29.5 -112t-90.5 -64q126 -39 126 -192v-25q0 -107 -63.5 -166t-194.5 -59z" />
    <glyph glyph-name="four.dnom" horiz-adv-x="614" 
d="M487 836v-584h86v-78h-86v-174h-92v174h-360v82l362 580h90zM117 252h278v432z" />
    <glyph glyph-name="five.dnom" horiz-adv-x="638" 
d="M350 561q109 0 171.5 -61t62.5 -178v-78q-1 -125 -68 -189.5t-194 -64.5q-123 0 -192 61.5t-69 181.5v21h95v-31q3 -155 168 -155q163 0 163 159v92q0 160 -155 160q-66 0 -105.5 -31.5t-64.5 -93.5h-92l26 482h449v-78h-365l-18 -293q61 96 188 96z" />
    <glyph glyph-name="six.dnom" horiz-adv-x="655" 
d="M334 -10q-133 0 -196.5 65.5t-63.5 198.5v293q0 149 61.5 224t198.5 75q124 0 181.5 -61t57.5 -162v-13h-92v11q0 73 -36.5 107t-108.5 34q-86 0 -127 -42t-41 -140v-103q63 84 190 84q114 0 175 -62.5t61 -179.5v-81q0 -248 -260 -248zM168 231q0 -89 42 -126t126 -37
t124 37t40 122v95q0 159 -158 159q-81 0 -127.5 -40t-46.5 -115v-95z" />
    <glyph glyph-name="seven.dnom" horiz-adv-x="557" 
d="M25 758v78h497v-78q-81 -78 -134.5 -166t-80.5 -186t-37.5 -188t-11.5 -204v-14h-92v12q0 233 55 415t205 331h-401z" />
    <glyph glyph-name="eight.dnom" horiz-adv-x="645" 
d="M324 -10q-263 0 -263 219v37q0 162 136 198q-55 14 -87 56.5t-32 111.5v35q0 94 62.5 146.5t183.5 52.5q119 0 181 -52.5t62 -146.5v-35q0 -134 -118 -168q132 -32 135 -198v-37q-3 -219 -260 -219zM156 207q0 -79 41 -110t127 -31q83 0 123.5 31t41.5 110v57
q-1 76 -43 106.5t-122 30.5q-82 0 -125 -31t-43 -106v-57zM172 600q0 -121 152 -121q149 0 149 121v49q0 121 -149 121q-152 0 -152 -121v-49z" />
    <glyph glyph-name="nine.dnom" horiz-adv-x="655" 
d="M322 846q262 0 262 -264v-293q0 -149 -61.5 -224t-198.5 -75q-126 0 -184 61t-58 162v12h94v-10q0 -141 146 -141q84 0 125.5 43t41.5 141v100q-61 -84 -192 -84q-113 0 -174.5 62.5t-61.5 179.5v82q0 248 261 248zM156 514q3 -160 159 -160q80 0 127 40.5t47 115.5v94
q0 89 -42 126.5t-125 37.5q-84 0 -125 -38t-41 -122v-94z" />
    <glyph glyph-name="zero.numr" horiz-adv-x="669" 
d="M336 825q-132 0 -199 81t-67 227v243q0 144 67 224.5t199 80.5q131 0 198.5 -80.5t67.5 -224.5v-243q0 -146 -67 -227t-199 -81zM164 1120q0 -51 10 -96l297 518q-47 62 -135 62q-172 0 -172 -218v-266zM207 954q42 -51 129 -51q172 0 172 217v266q0 54 -8 87z" />
    <glyph glyph-name="one.numr" horiz-adv-x="514" 
d="M55 913h172v648q-61 -74 -174 -74v84q115 0 178 100h86v-758h177v-77h-439v77z" />
    <glyph glyph-name="two.numr" horiz-adv-x="638" 
d="M59 920q0 55 8 95.5t28.5 81t61.5 73.5t103 61l92 51q70 31 102.5 71t32.5 107v6q0 75 -40 106.5t-119 31.5q-86 0 -126 -37.5t-40 -128.5v-37h-94v31q0 249 260 249q254 0 254 -225q0 -170 -176 -246l-97 -53q-96 -37 -125.5 -87t-29.5 -157h428v-77h-523v84z" />
    <glyph glyph-name="three.numr" horiz-adv-x="641" 
d="M317 825q-132 0 -196 58.5t-66 177.5v33h95v-37q1 -86 41.5 -120t123.5 -34q86 0 126 33.5t40 107.5v43q0 43 -13.5 72t-37.5 43t-49.5 19.5t-58.5 5.5h-97v78h97q153 0 153 127v34q0 138 -158 138q-78 0 -118 -32.5t-41 -115.5v-33h-95v27q3 231 254 231
q129 0 190.5 -60t61.5 -157v-20q2 -65 -29.5 -112t-90.5 -64q126 -39 126 -193v-24q0 -107 -63.5 -166.5t-194.5 -59.5z" />
    <glyph glyph-name="four.numr" horiz-adv-x="614" 
d="M487 1671v-584h86v-77h-86v-174h-92v174h-360v82l362 579h90zM117 1087h278v433z" />
    <glyph glyph-name="five.numr" horiz-adv-x="638" 
d="M350 1397q109 0 171.5 -61.5t62.5 -178.5v-78q-1 -125 -68 -189.5t-194 -64.5q-123 0 -192 62t-69 182v21h95v-31q3 -156 168 -156q163 0 163 160v92q0 160 -155 160q-66 0 -105.5 -31.5t-64.5 -93.5h-92l26 481h449v-78h-365l-18 -293q62 97 188 97z" />
    <glyph glyph-name="six.numr" horiz-adv-x="655" 
d="M334 825q-133 0 -196.5 66t-63.5 199v292q0 149 61.5 224t198.5 75q124 0 181.5 -61t57.5 -162v-12h-92v10q0 73 -36.5 107t-108.5 34q-86 0 -127 -42t-41 -140v-102q63 84 190 84q114 0 175 -62.5t61 -179.5v-82q0 -248 -260 -248zM168 1067q0 -89 42 -126.5t126 -37.5
q83 0 123.5 37.5t40.5 122.5v94q0 160 -158 160q-81 0 -127.5 -40.5t-46.5 -115.5v-94z" />
    <glyph glyph-name="seven.numr" horiz-adv-x="557" 
d="M25 1593v78h497v-78q-81 -78 -134.5 -166t-80.5 -185.5t-37.5 -187.5t-11.5 -204v-14h-92v12q0 233 55 414.5t205 330.5h-401z" />
    <glyph glyph-name="eight.numr" horiz-adv-x="645" 
d="M324 825q-263 0 -263 219v37q0 81 35.5 131t100.5 68q-55 14 -87 56.5t-32 111.5v35q0 94 62.5 146t183.5 52q119 0 181 -52t62 -146v-35q0 -134 -118 -168q132 -32 135 -199v-37q-3 -219 -260 -219zM156 1042q0 -79 41 -110t127 -31q83 0 123.5 31t41.5 110v58
q-1 76 -43 106.5t-122 30.5q-82 0 -125 -31t-43 -106v-58zM172 1436q0 -121 152 -121q149 0 149 121v49q0 121 -149 121q-152 0 -152 -121v-49z" />
    <glyph glyph-name="nine.numr" horiz-adv-x="655" 
d="M322 1681q262 0 262 -264v-293q0 -149 -61.5 -224t-198.5 -75q-126 0 -184 61t-58 163v12h94v-10q0 -142 146 -142q84 0 125.5 43t41.5 142v100q-61 -84 -192 -84q-113 0 -174.5 62.5t-61.5 179.5v82q0 247 261 247zM156 1350q3 -160 159 -160q80 0 127 40.5t47 115.5v94
q0 89 -42 126.5t-125 37.5q-84 0 -125 -38t-41 -122v-94z" />
    <glyph glyph-name="exclamdown.case" horiz-adv-x="460" 
d="M289 0h-119l2 1159h117v-1159zM115 1579q0 50 34.5 81.5t81.5 31.5q48 0 81.5 -31.5t33.5 -81.5q0 -53 -33 -85t-82 -32q-48 0 -82 32.5t-34 84.5z" />
    <glyph glyph-name="questiondown.case" horiz-adv-x="985" 
d="M485 -20q-114 0 -199 31.5t-134 87t-72 124t-23 150.5q0 77 22 142t57.5 111.5t78 89.5t85 87.5t78 94.5t57.5 121t22 157v30h116v-30q0 -93 -22 -170t-56.5 -130.5t-76.5 -100.5t-84.5 -89.5t-77 -87t-56.5 -104t-22 -129.5q0 -136 76.5 -210.5t232.5 -74.5
q92 0 156.5 26.5t100.5 78t51.5 116t15.5 150.5v69h121v-67q0 -60 -8 -113.5t-27 -108.5t-53 -99t-82 -79t-118.5 -54t-158.5 -19zM397 1579q0 49 35 81t82 32q48 0 81.5 -31.5t33.5 -81.5q0 -53 -33 -85t-82 -32q-48 0 -82.5 32.5t-34.5 84.5z" />
    <glyph glyph-name="hyphen.case" horiz-adv-x="1347" 
d="M86 842h1176v-86h-1176v86z" />
    <glyph glyph-name="endash.case" horiz-adv-x="1597" 
d="M86 844h1425v-86h-1425v86z" />
    <glyph glyph-name="emdash.case" horiz-adv-x="2629" 
d="M86 844h2458v-88h-2458v88z" />
    <glyph glyph-name="parenleft.case" horiz-adv-x="595" 
d="M463 -184q-195 255 -284 499t-89 529q0 286 89 526t284 496h112q-204 -275 -293 -507t-89 -515q0 -285 88 -516t294 -512h-112z" />
    <glyph glyph-name="parenright.case" horiz-adv-x="598" 
d="M135 1864q195 -255 284 -499t89 -529q0 -286 -89 -526t-284 -496h-112q204 275 293.5 507t89.5 515q0 285 -88.5 516t-294.5 512h112z" />
    <glyph glyph-name="braceleft.case" horiz-adv-x="581" 
d="M92 954q80 0 80 181v378q0 185 68 271t202 86h97v-94h-95q-170 0 -170 -254v-381q0 -109 -18.5 -162t-71.5 -88v-92q53 -33 71.5 -86t18.5 -164v-381q0 -254 170 -254h95v-94h-97q-134 0 -202 85.5t-68 270.5v379q0 90 -21 136t-59 46v217z" />
    <glyph glyph-name="braceright.case" horiz-adv-x="583" 
d="M492 729q-80 0 -80 -180v-379q0 -185 -68.5 -270.5t-202.5 -85.5h-96v94h94q170 0 170 254v381q0 109 18.5 162t71.5 88v92q-53 33 -71.5 86t-18.5 164v381q0 253 -170 253h-94v95h96q134 0 202.5 -86t68.5 -271v-379q0 -90 21 -136t59 -46v-217z" />
    <glyph glyph-name="bracketleft.case" horiz-adv-x="610" 
d="M567 1870v-88h-309v-1878h309v-88h-411v2054h411z" />
    <glyph glyph-name="bracketright.case" horiz-adv-x="610" 
d="M43 -190v88h309v1878h-309v88h412v-2054h-412z" />
    <glyph glyph-name="at.case" horiz-adv-x="1574" 
d="M864 39q-176 0 -317.5 52.5t-242.5 153.5t-155.5 255t-54.5 350q0 199 55 356t152 257t226 152t282 52q158 0 280 -46.5t210.5 -142t135 -251t46.5 -365.5q0 -504 -262 -504q-153 0 -193 158q-84 -170 -266 -170q-163 0 -260 131.5t-97 362.5q0 229 96.5 360t258.5 131
q169 0 256 -149v141h108v-692q0 -93 29 -140t78 -47q149 0 149 418q0 376 -144.5 545.5t-422.5 169.5q-132 0 -242.5 -45t-194 -132.5t-130.5 -228t-47 -321.5q0 -178 48 -316t136 -227t209.5 -134.5t271.5 -45.5q113 0 228.5 21t191.5 53v-90q-183 -72 -418 -72zM512 840
q0 -193 69 -292t193 -99q240 0 240 391t-242 391q-123 0 -191.5 -99t-68.5 -292z" />
    <glyph glyph-name="ampersand.ss01" horiz-adv-x="1388" 
d="M645 -20q-269 0 -398.5 121.5t-129.5 330.5v35q0 137 67 243t189 140q-117 30 -185.5 136.5t-68.5 248.5v27q0 94 29.5 170t91 135.5t165.5 92t244 32.5q267 0 390.5 -115.5t123.5 -347.5v-37h-119v37q0 197 -92.5 278.5t-302.5 81.5q-213 0 -311 -81t-98 -251v-30
q0 -96 27.5 -161.5t83.5 -102t128.5 -51.5t173.5 -15h391v141h119v-141h144v-98h-144v-373q0 -446 -518 -446zM238 430q0 -180 97 -264t312 -84q207 0 302 80.5t95 265.5v371h-393q-100 0 -172.5 -16t-128.5 -53t-84 -102.5t-28 -160.5v-37z" />
    <glyph glyph-name="cent.tf" horiz-adv-x="1335" 
d="M625 -143v295q-205 17 -308.5 151.5t-103.5 366.5v331q0 233 103.5 368.5t308.5 150.5v295h90v-293q196 -12 298.5 -132t110.5 -325l2 -102h-120l-2 106q-14 332 -289 348v-1163q275 16 289 348l2 107h120l-2 -103q-11 -206 -112 -326t-297 -130v-293h-90zM334 666
q0 -380 291 -412v1163q-291 -32 -291 -413v-338z" />
    <glyph glyph-name="dollar.tf" horiz-adv-x="1335" 
d="M635 -143v125q-216 14 -329 137.5t-113 353.5v105h124v-105q0 -187 80.5 -278t237.5 -105v741l-94 50q-73 35 -123 68t-97.5 82.5t-71.5 116.5t-24 152q0 180 107.5 282t302.5 110v123h90v-125q191 -18 293 -133t102 -326v-64h-125v62q0 170 -70 253t-200 97v-661l90 -48
q61 -31 99.5 -54.5t86.5 -64t75 -84.5t46 -111t19 -148q0 -202 -104.5 -311.5t-311.5 -116.5v-123h-90zM350 1307q0 -66 19 -118t57 -90t76 -63t94 -51l39 -20v618q-285 -13 -285 -272v-4zM725 88q146 6 217.5 80.5t71.5 232.5v5q0 65 -13 116t-33 85.5t-56.5 65t-69.5 50
t-86 45.5l-31 16v-696z" />
    <glyph glyph-name="Euro.tf" horiz-adv-x="1335" 
d="M78 702v84h145v99h-145v84h145v125q0 130 31 237t92.5 189t163.5 127t235 45q124 0 221 -39.5t158 -111.5t93.5 -166.5t35.5 -209.5l2 -178h-131v184q-6 207 -102.5 309.5t-273.5 102.5q-196 0 -296 -122.5t-100 -362.5v-129h512v-84h-512v-99h512v-84h-512v-124
q0 -490 393 -490q367 0 379 416v184h131l-2 -178q-3 -116 -35.5 -211.5t-93.5 -167.5t-157.5 -111.5t-221.5 -39.5q-134 0 -235.5 45t-163.5 127t-92.5 189.5t-30.5 240.5v120h-145z" />
    <glyph glyph-name="sterling.tf" horiz-adv-x="1335" 
d="M170 96q192 160 192 404q0 62 -14 141h-178v84h160q-9 34 -32.5 111t-36.5 124t-24.5 123.5t-11.5 151.5q0 231 127 344t350 113q224 0 344.5 -114.5t120.5 -338.5v-90h-120v92q0 178 -85 264t-260 86q-356 0 -356 -354q0 -74 12 -150.5t25.5 -125t36.5 -124t33 -112.5
h565v-84h-547q12 -65 12 -135q0 -125 -44.5 -223t-135.5 -183h864v-100h-997v96z" />
    <glyph glyph-name="yen.tf" horiz-adv-x="1335" 
d="M207 559v82h375l-469 1030h135l420 -940l419 940h138l-469 -1030h372v-82h-397v-90h397v-82h-397v-387h-125v387h-399v82h399v90h-399z" />
    <glyph glyph-name="bouclecomb" horiz-adv-x="1142" 
d="M584 -20q-77 0 -141.5 20.5t-108.5 55.5t-71.5 68.5t-47.5 70.5h-20v938h20q17 36 44.5 71t71.5 70t109.5 56.5t143.5 21.5q200 0 313 -133.5t113 -366.5v-373q0 -237 -113 -368t-313 -131zM215 485q0 -176 92 -289.5t258 -113.5q162 0 243 107t81 292v367q0 185 -82 293
t-244 108q-164 0 -256 -113.5t-92 -289.5v-361z" />
    <glyph glyph-name="slashcomb" horiz-adv-x="1435" 
d="M207 -4l907 1681h109l-908 -1681h-108z" />
    </font>
</defs>
</svg>
