<?xml version="1.0" standalone="no"?>
<!DOCTYPE svg PUBLIC "-//W3C//DTD SVG 1.1//EN" "http://www.w3.org/Graphics/SVG/1.1/DTD/svg11.dtd" >
<svg xmlns="http://www.w3.org/2000/svg" xmlns:xlink="http://www.w3.org/1999/xlink" version="1.1">
<metadata>
Created by FontForge 20170731 at Thu Oct  5 16:22:22 2023
 By Aleksey,,,
Copyright (c) 2021 by Mathieu Desjardins. All rights reserved.
</metadata>
<defs>
<font id="PPFormula-NarrowRegular" horiz-adv-x="1021" >
  <font-face 
    font-family="PP Formula Narrow"
    font-weight="400"
    font-stretch="condensed"
    units-per-em="2048"
    panose-1="0 0 0 0 0 0 0 0 0 0"
    ascent="1638"
    descent="-410"
    x-height="1331"
    cap-height="1655"
    bbox="-301 -432 3144 2079"
    underline-thickness="81"
    underline-position="-285"
    unicode-range="U+0020-FB02"
  />
<missing-glyph horiz-adv-x="1044" 
d="M856 1659v-2089h-661v2089h661zM348 -287h348v70h-213l146 98h67v70h-348v-70h148l-148 -98v-70zM348 -2h348v235h-348v-235zM348 360h348v236h-209v-117h70v47h70v-98h-209v168h-70v-236zM348 641h348v209h-69v-137h-279v-72zM348 760h209v147h139v68h-348v-68h139v-78
h-139v-69zM348 1032h348v72h-139v145h-209v-217zM348 1305h348v67h-139v78h139v70h-346v-70h137v-78h-139v-67zM418 68v98h209v-98h-209zM418 1104v74h69v-74h-69z" />
    <glyph glyph-name="fi" unicode="fi" horiz-adv-x="1140" 
d="M20 1331h207v51q0 51 5.5 89.5t22.5 78.5t46 66t79.5 42.5t119.5 16.5q104 0 202 -20v-144q-67 13 -131 13q-50 0 -81.5 -9.5t-47.5 -31t-21 -46t-5 -63.5v-88q25 21 74 31.5t90 12t122 1.5v-160h-286v-1171h-189v1171h-207v160zM807 1565q0 49 34 79.5t95 30.5t95 -30.5
t34 -79.5q0 -46 -34 -76.5t-95 -30.5t-95 30.5t-34 76.5zM842 0v1331h188v-1331h-188z" />
    <glyph glyph-name="fl" unicode="fl" horiz-adv-x="1150" 
d="M20 1331h207v51q0 51 5.5 89.5t22.5 78.5t46 66t79.5 42.5t119.5 16.5q104 0 202 -20v-144q-67 13 -131 13q-50 0 -81.5 -9.5t-47.5 -31t-21 -46t-5 -63.5v-88q25 21 74 31.5t90 12t122 1.5v-160h-286v-1171h-189v1171h-207v160zM852 0v1655h188v-1655h-188z" />
    <glyph glyph-name=".notdef" horiz-adv-x="1044" 
d="M856 1659v-2089h-661v2089h661zM348 -287h348v70h-213l146 98h67v70h-348v-70h148l-148 -98v-70zM348 -2h348v235h-348v-235zM348 360h348v236h-209v-117h70v47h70v-98h-209v168h-70v-236zM348 641h348v209h-69v-137h-279v-72zM348 760h209v147h139v68h-348v-68h139v-78
h-139v-69zM348 1032h348v72h-139v145h-209v-217zM348 1305h348v67h-139v78h139v70h-346v-70h137v-78h-139v-67zM418 68v98h209v-98h-209zM418 1104v74h69v-74h-69z" />
    <glyph glyph-name=".null" horiz-adv-x="0" 
 />
    <glyph glyph-name="nonmarkingreturn" horiz-adv-x="682" 
 />
    <glyph glyph-name="space" unicode=" " horiz-adv-x="460" 
 />
    <glyph glyph-name="exclam" unicode="!" horiz-adv-x="440" 
d="M127 1655h188l-10 -1143h-172zM86 113q0 62 38.5 99.5t96.5 37.5q57 0 96 -38t39 -99q0 -59 -39 -96t-96 -37q-58 0 -96.5 37t-38.5 96z" />
    <glyph glyph-name="quotedbl" unicode="&#x22;" horiz-adv-x="495" 
d="M86 1655h125v-512h-125v512zM287 1143v512h125v-512h-125z" />
    <glyph glyph-name="numbersign" unicode="#" horiz-adv-x="1675" 
d="M229 1130h437l237 525h107l-238 -525h389l238 525h106l-237 -525h350v-90h-391l-199 -442h412v-90h-453l-229 -508h-107l230 508h-389l-230 -508h-106l229 508h-334v90h375l199 442h-396v90zM532 598h390l198 442h-389z" />
    <glyph glyph-name="dollar" unicode="$" horiz-adv-x="1003" 
d="M457 -143v125q-391 27 -391 448v133h184v-135q0 -136 52.5 -203.5t154.5 -79.5v641l-109 66q-87 49 -142 101t-89.5 135.5t-34.5 195.5q0 180 94.5 280t280.5 109v125h98v-125q179 -14 274 -116.5t95 -292.5v-105h-185v86q0 130 -47 191.5t-137 72.5v-573l100 -59
q71 -40 116.5 -76.5t86.5 -91t60.5 -129t19.5 -174.5q0 -204 -92.5 -310t-290.5 -116v-123h-98zM266 1276q0 -55 12.5 -97.5t39 -75t56.5 -55.5t77 -49l6 -4v516q-94 -6 -142.5 -57t-48.5 -158v-20zM555 143q103 8 151 65t48 181v25q0 65 -12 113t-39 83.5t-58.5 60
t-81.5 52.5l-8 4v-584z" />
    <glyph glyph-name="percent" unicode="%" horiz-adv-x="1376" 
d="M291 0l684 1655h106l-684 -1655h-106zM39 1337q0 65 17 124t50.5 107.5t92 77.5t133.5 29t133.5 -29t93 -77.5t51.5 -107.5t17 -124t-17 -124t-51.5 -108.5t-93 -78.5t-133.5 -29t-133.5 29t-92 78.5t-50.5 108t-17 124.5zM188 1337q0 -200 144 -200q145 0 145 200
q0 199 -145 199q-144 0 -144 -199zM750 317q0 66 17 124.5t50.5 108t92 78.5t134.5 29q75 0 133.5 -29t92 -78.5t50.5 -108t17 -124.5q0 -65 -17 -123.5t-50.5 -107.5t-92 -77.5t-133.5 -28.5q-76 0 -134.5 28.5t-92 77.5t-50.5 107t-17 124zM899 317q0 -198 145 -198
q144 0 144 198q0 201 -144 201q-145 0 -145 -201z" />
    <glyph glyph-name="ampersand" unicode="&#x26;" horiz-adv-x="1105" 
d="M512 -20q-114 0 -198 33t-133 94t-72 139t-23 176v59q0 141 58 237.5t161 125.5q-99 29 -158 123.5t-59 240.5v49q0 56 10.5 109t40 111t76 100.5t125 70t180.5 27.5q414 0 414 -434v-67h-193v83q0 145 -54.5 204t-168.5 59q-120 0 -176.5 -61t-56.5 -193v-101
q0 -74 19 -125t53.5 -77.5t74 -37t90.5 -10.5h219v129h193v-129h110v-149h-110v-354q0 -432 -422 -432zM281 397q0 -138 57 -200t178 -62q114 0 169.5 58.5t55.5 201.5v371h-221q-51 0 -91 -11t-75 -37t-54 -77t-19 -123v-121z" />
    <glyph glyph-name="quotesingle" unicode="'" horiz-adv-x="294" 
d="M86 1655h125v-512h-125v512z" />
    <glyph glyph-name="parenleft" unicode="(" horiz-adv-x="544" 
d="M424 -303q-186 250 -270 491.5t-84 524.5q0 285 84 522.5t270 490.5h115q-197 -272 -282 -500.5t-85 -512.5q0 -285 84 -513t283 -503h-115z" />
    <glyph glyph-name="parenright" unicode=")" horiz-adv-x="544" 
d="M121 1731q186 -250 270 -491.5t84 -524.5q0 -285 -84 -523t-270 -491h-115q197 272 282 501t85 513q0 285 -84 513t-283 503h115z" />
    <glyph glyph-name="asterisk" unicode="*" horiz-adv-x="675" 
d="M297 1671h82v-239l190 100l41 -70l-186 -98l186 -98l-41 -70l-190 100v-239h-82v239l-191 -100l-40 70l186 98l-186 98l40 70l191 -100v239z" />
    <glyph glyph-name="plus" unicode="+" horiz-adv-x="1142" 
d="M68 776v92h456v424h94v-424h457v-92h-457v-426h-94v426h-456z" />
    <glyph glyph-name="comma" unicode="," horiz-adv-x="395" 
d="M88 -121q56 16 108 57.5t70 92.5q-36 -49 -94 -49q-47 0 -80 35t-33 98q0 62 38 99.5t102 37.5q63 0 100 -45.5t37 -118.5q0 -102 -69 -185t-179 -143v121z" />
    <glyph glyph-name="hyphen" unicode="-" horiz-adv-x="1128" 
d="M61 719h1008v-86h-1008v86z" />
    <glyph glyph-name="period" unicode="." horiz-adv-x="393" 
d="M197 -20q-58 0 -97 37t-39 96q0 62 39 99.5t97 37.5q57 0 96 -38t39 -99q0 -59 -39 -96t-96 -37z" />
    <glyph glyph-name="slash" unicode="/" horiz-adv-x="913" 
d="M885 1655l-748 -1655h-108l747 1655h109z" />
    <glyph glyph-name="zero" unicode="0" horiz-adv-x="1099" 
d="M551 -18q-230 0 -342.5 136.5t-112.5 391.5v639q0 254 112.5 390t342.5 136q229 0 342 -137t113 -391v-637q0 -254 -113 -391t-342 -137zM295 471l2 -51l479 956q-56 140 -225 140q-127 0 -191.5 -77.5t-64.5 -252.5v-715zM334 258q58 -119 217 -119q126 0 191 78t65 254
v733z" />
    <glyph glyph-name="one" unicode="1" horiz-adv-x="858" 
d="M70 162h286v1255q-95 -129 -290 -129v172q201 0 305 195h178v-1493h289v-162h-768v162z" />
    <glyph glyph-name="two" unicode="2" horiz-adv-x="1044" 
d="M78 174q0 209 65 337t248 247l170 133q109 69 162 147t53 209v23q0 138 -60 192t-177 54q-126 0 -188 -60.5t-62 -214.5v-106h-199v86q0 223 112 338.5t337 115.5q214 0 325 -109.5t111 -324.5q0 -310 -285 -485l-174 -138q-102 -63 -151.5 -118t-70 -131t-20.5 -207h697
v-162h-893v174z" />
    <glyph glyph-name="three" unicode="3" horiz-adv-x="1056" 
d="M522 -20q-227 0 -337 108t-111 334v84h196v-100q0 -151 62 -209t188 -58q128 0 189 59.5t61 196.5v119q0 260 -242 260h-168v162h166q240 0 240 229v103q0 73 -18.5 123t-53.5 76.5t-76 37.5t-96 11q-56 0 -97 -11t-76 -38.5t-52.5 -80t-17.5 -129.5v-88h-197v72
q2 218 110 326t330 108q96 0 172.5 -23.5t125.5 -63t81.5 -94.5t46 -113t13.5 -124v-55q1 -128 -56 -217.5t-162 -124.5q109 -35 166.5 -132.5t57.5 -246.5v-63q0 -205 -107 -321.5t-338 -116.5z" />
    <glyph glyph-name="four" unicode="4" horiz-adv-x="1009" 
d="M819 1655v-1157h142v-160h-142v-338h-192v338h-586v174l594 1143h184zM199 498h428v819z" />
    <glyph glyph-name="five" unicode="5" horiz-adv-x="1052" 
d="M600 1108q176 0 277.5 -110.5t101.5 -327.5v-201q0 -243 -115 -366t-336 -123q-214 0 -330 117.5t-116 344.5v62h199v-90q0 -275 251 -275q248 0 248 279v248q0 137 -58.5 207.5t-172.5 70.5q-108 0 -168.5 -62.5t-89.5 -174.5h-195l47 948h762v-162h-583l-31 -553
q97 168 309 168z" />
    <glyph glyph-name="six" unicode="6" horiz-adv-x="1077" 
d="M549 -20q-229 0 -340 121t-111 370v670q0 260 109 397t346 137q406 0 410 -424v-34h-197v32q-2 130 -53 190t-164 60q-127 0 -189.5 -69.5t-62.5 -223.5v-252q103 156 315 156q185 0 284 -115.5t99 -330.5v-213q0 -229 -112.5 -350t-333.5 -121zM297 424
q0 -155 63.5 -220t186.5 -65q127 0 188.5 67.5t61.5 213.5v250q0 274 -238 274q-122 0 -192 -71.5t-70 -198.5v-250z" />
    <glyph glyph-name="seven" unicode="7" horiz-adv-x="915" 
d="M25 1493v162h849v-162q-104 -128 -181 -264.5t-125 -270.5t-77 -288t-40 -302.5t-11 -328.5v-39h-192v37q0 222 20 405.5t68.5 367t136.5 353.5t217 330h-665z" />
    <glyph glyph-name="eight" unicode="8" horiz-adv-x="1064" 
d="M532 -20q-227 0 -336.5 102.5t-109.5 312.5v101q0 313 238 378q-100 30 -159 110.5t-59 217.5v92q0 179 108.5 280t320.5 101q210 0 316.5 -100.5t106.5 -280.5v-92q0 -137 -58 -217.5t-157 -110.5q238 -64 238 -378v-101q0 -210 -110.5 -312.5t-338.5 -102.5zM285 385
q0 -143 60.5 -195.5t186.5 -52.5q127 0 188.5 53t61.5 195v156q0 138 -63 191.5t-187 53.5q-122 0 -184.5 -53.5t-62.5 -191.5v-156zM305 1165q0 -114 58 -164.5t169 -50.5q228 0 228 217v131q0 116 -57 168t-171 52q-113 0 -170 -52t-57 -168v-133z" />
    <glyph glyph-name="nine" unicode="9" horiz-adv-x="1077" 
d="M528 1675q229 0 340 -121t111 -370v-670q0 -260 -109 -397t-346 -137q-405 0 -409 423v35h196v-32q2 -130 53 -190t164 -60q127 0 189.5 69.5t62.5 223.5v251q-102 -155 -315 -155q-185 0 -284 115.5t-99 330.5v213q0 229 112.5 350t333.5 121zM281 985q0 -274 237 -274
q122 0 192 71.5t70 198.5v250q0 155 -63.5 220t-186.5 65q-127 0 -188 -67.5t-61 -213.5v-250z" />
    <glyph glyph-name="colon" unicode=":" horiz-adv-x="452" 
d="M227 860q-58 0 -96.5 37t-38.5 96q0 62 38.5 99.5t96.5 37.5q57 0 96 -38t39 -99q0 -59 -39 -96t-96 -37zM92 113q0 62 38.5 99.5t96.5 37.5q57 0 96 -38t39 -99q0 -59 -39 -96t-96 -37q-58 0 -96.5 37t-38.5 96z" />
    <glyph glyph-name="semicolon" unicode=";" horiz-adv-x="450" 
d="M227 862q-58 0 -96.5 37t-38.5 96q0 62 38.5 100t96.5 38q57 0 96 -38t39 -100q0 -59 -39 -96t-96 -37zM86 113q0 62 37.5 99.5t101.5 37.5q63 0 100 -45.5t37 -118.5q0 -102 -68.5 -185t-178.5 -143v121q56 16 108 57.5t70 92.5q-36 -49 -94 -49q-47 0 -80 35t-33 98z
" />
    <glyph glyph-name="less" unicode="&#x3c;" horiz-adv-x="1118" 
d="M61 862l963 326v-103l-811 -264l811 -264v-102l-963 325v82z" />
    <glyph glyph-name="equal" unicode="=" horiz-adv-x="1179" 
d="M86 979h1008v-86h-1008v86zM86 664v86h1008v-86h-1008z" />
    <glyph glyph-name="greater" unicode="&#x3e;" horiz-adv-x="1118" 
d="M1057 780l-963 -325v102l811 264l-811 264v103l963 -326v-82z" />
    <glyph glyph-name="question" unicode="?" horiz-adv-x="903" 
d="M457 1675q203 0 303 -105t100 -276q0 -72 -18.5 -133.5t-48 -107.5t-65.5 -88.5t-72 -87t-65.5 -93t-48 -116t-18.5 -146.5v-28h-172v34q0 87 17 161t44.5 126.5t61 99t67 88t61 84t44.5 97t17 116.5q0 218 -209 218q-117 0 -168 -66.5t-51 -200.5v-96h-195v72
q0 97 22.5 176t70.5 141t130 96.5t193 34.5zM303 113q0 62 38.5 99.5t96.5 37.5q57 0 96 -38t39 -99q0 -59 -39 -96t-96 -37q-58 0 -96.5 37t-38.5 96z" />
    <glyph glyph-name="at" unicode="@" horiz-adv-x="1400" 
d="M784 -104q-336 0 -525 200.5t-189 591.5q0 158 34 289.5t93.5 223.5t142.5 155t180.5 93t206.5 30q142 0 249 -42.5t187 -134.5t121 -246t41 -368q0 -119 -12 -207t-39.5 -153t-74.5 -98t-114 -33q-145 0 -192 145q-73 -158 -231 -158q-146 0 -234 130t-88 358
q0 229 87.5 359t234.5 130q139 0 215 -127v117h139v-682q0 -188 86 -188q121 0 121 409q0 195 -33 332t-98 218t-153 117t-208 36q-116 0 -215.5 -42t-177 -125t-122 -221t-44.5 -317t43.5 -315t125 -220.5t192.5 -126.5t251 -42q215 0 373 67v-86q-167 -69 -373 -69z
M479 672q0 -361 211 -361q101 0 144 87.5t43 273.5t-44 275t-145 89q-209 0 -209 -364z" />
    <glyph glyph-name="A" unicode="A" horiz-adv-x="1007" 
d="M27 0l342 1655h268l342 -1655h-201l-63 336h-424l-64 -336h-200zM322 500h362l-178 946l-4 14l-2 -10z" />
    <glyph glyph-name="B" unicode="B" horiz-adv-x="1085" 
d="M117 0v1655h452q214 0 313 -92t99 -297v-54q0 -248 -199 -329q236 -79 236 -383v-58q0 -236 -101 -339t-337 -103h-463zM313 164h244q155 0 208.5 53t53.5 205v102q0 140 -63 202t-201 62h-242v-624zM313 954h232q53 0 92 9t74 32.5t53 71t18 117.5v90q0 71 -13.5 115
t-46 66t-71 29t-104.5 7h-234v-537z" />
    <glyph glyph-name="C" unicode="C" horiz-adv-x="1101" 
d="M559 -20q-238 0 -355.5 140t-117.5 390v637q0 248 118 388t357 140q228 0 345 -130.5t120 -360.5l2 -205h-201l-2 242q-3 292 -264 292q-276 0 -276 -327v-715q0 -170 70 -250t206 -80q261 0 264 295l2 242h201l-2 -205q-3 -232 -120 -362.5t-347 -130.5z" />
    <glyph glyph-name="D" unicode="D" horiz-adv-x="1118" 
d="M117 0v1655h405q130 0 220.5 -24t157.5 -82t98.5 -159.5t31.5 -252.5v-619q0 -150 -32 -251.5t-98.5 -160t-157 -82.5t-220.5 -24h-405zM313 156h211q116 0 180 29t95.5 103t31.5 208v663q0 197 -68 268.5t-241 71.5h-209v-1343z" />
    <glyph glyph-name="E" unicode="E" horiz-adv-x="929" 
d="M117 0v1655h741v-164h-545v-582h521v-164h-521v-581h545v-164h-741z" />
    <glyph glyph-name="F" unicode="F" horiz-adv-x="907" 
d="M117 0v1655h747v-164h-551v-662h527v-163h-527v-666h-196z" />
    <glyph glyph-name="G" unicode="G" horiz-adv-x="1120" 
d="M532 -20q-216 0 -331 141.5t-115 382.5v643q0 248 118 388t355 140q227 0 344.5 -129t122.5 -356v-160h-201v197q-5 286 -264 286q-137 0 -206.5 -79.5t-69.5 -247.5v-715q0 -167 66.5 -248.5t205.5 -81.5q135 0 200 75.5t68 234.5v235h-301v156h502v-842h-113l-20 172
q-118 -192 -361 -192z" />
    <glyph glyph-name="H" unicode="H" horiz-adv-x="1126" 
d="M813 0v745h-500v-745h-196v1655h196v-746h500v746h197v-1655h-197z" />
    <glyph glyph-name="I" unicode="I" horiz-adv-x="595" 
d="M92 0v176h109v1303h-109v176h412v-176h-109v-1303h109v-176h-412z" />
    <glyph glyph-name="J" unicode="J" horiz-adv-x="1017" 
d="M477 -20q-221 0 -325.5 126t-104.5 373v119h199v-158q0 -164 58 -231.5t173 -67.5q114 0 173 66.5t59 228.5v1219h198v-1180q0 -495 -430 -495z" />
    <glyph glyph-name="K" unicode="K" horiz-adv-x="1032" 
d="M801 0l-424 739h-64v-739h-196v1655h196v-740h64l424 740h219l-488 -828l488 -827h-219z" />
    <glyph glyph-name="L" unicode="L" horiz-adv-x="888" 
d="M117 0v1655h196v-1491h545v-164h-741z" />
    <glyph glyph-name="M" unicode="M" horiz-adv-x="1327" 
d="M117 0v1655h239l308 -1264l307 1264h237v-1655h-180v1221l-301 -1221h-127l-301 1221v-1221h-182z" />
    <glyph glyph-name="N" unicode="N" horiz-adv-x="1142" 
d="M117 0v1655h184l543 -1219v1219h182v-1655h-184l-543 1219v-1219h-182z" />
    <glyph glyph-name="O" unicode="O" horiz-adv-x="1120" 
d="M559 -20q-237 0 -355 140.5t-118 387.5v639q0 246 118.5 387t354.5 141q237 0 356 -141t119 -387v-639q0 -246 -119 -387t-356 -141zM285 471q0 -328 274 -328q275 0 275 328v711q0 329 -275 329q-274 0 -274 -327v-713z" />
    <glyph glyph-name="P" unicode="P" horiz-adv-x="1073" 
d="M117 0v1655h438q252 0 360.5 -118t108.5 -386v-53q0 -270 -109 -393t-360 -123h-242v-582h-196zM313 737h254q138 0 197 72.5t59 241.5v147q0 166 -58.5 233.5t-197.5 67.5h-254v-762z" />
    <glyph glyph-name="Q" unicode="Q" horiz-adv-x="1120" 
d="M559 143q275 0 275 328v711q0 329 -275 329q-274 0 -274 -327v-713q0 -328 274 -328zM86 508v639q0 246 118.5 387t354.5 141q237 0 356 -141t119 -387v-639q0 -225 -99.5 -363t-297.5 -161q144 -25 264 -103v-166q-135 82 -247.5 118.5t-254.5 39.5v127
q-157 43 -235 175t-78 333z" />
    <glyph glyph-name="R" unicode="R" horiz-adv-x="1097" 
d="M829 0q-22 28 -22 147v318q0 63 -16.5 110t-41.5 73t-61.5 42t-69 20.5t-71.5 4.5h-234v-715h-196v1655h432q128 0 212.5 -20.5t141.5 -71t82 -132t25 -206.5v-29q0 -166 -53 -259.5t-181 -139.5q230 -70 230 -348v-302q0 -113 22 -147h-199zM313 870h236
q143 0 201.5 65.5t58.5 201.5v108q0 82 -14 132t-49 77t-80.5 36t-122.5 9h-230v-629z" />
    <glyph glyph-name="S" unicode="S" horiz-adv-x="1034" 
d="M526 -20q-234 0 -349.5 118.5t-115.5 358.5v112h199v-149q0 -153 64.5 -216t203.5 -63q127 0 182.5 54.5t55.5 183.5v37q0 65 -12 112t-38.5 82.5t-58 60t-82.5 52.5l-223 127q-64 38 -109 76t-82.5 88t-56 114.5t-18.5 143.5q0 191 107.5 297t322.5 106q216 0 327 -109
t111 -325v-88h-198v100q0 147 -59.5 203.5t-182.5 56.5q-118 0 -173.5 -49t-55.5 -164v-24q0 -102 44.5 -162t133.5 -110l223 -127q69 -40 114.5 -76.5t86.5 -90.5t60.5 -126.5t19.5 -167.5q0 -218 -106.5 -327t-334.5 -109z" />
    <glyph glyph-name="T" unicode="T" horiz-adv-x="940" 
d="M373 0v1491h-338v164h870v-164h-338v-1491h-194z" />
    <glyph glyph-name="U" unicode="U" horiz-adv-x="1122" 
d="M561 -20q-237 0 -343.5 121t-106.5 370v1184h198v-1217q0 -88 16.5 -146.5t50 -91.5t78 -46t107.5 -13t107.5 13t79 45.5t51 91.5t16.5 147v1217h199v-1184q0 -249 -108.5 -370t-344.5 -121z" />
    <glyph glyph-name="V" unicode="V" horiz-adv-x="1007" 
d="M371 0l-344 1655h202l271 -1446l4 -19l4 17l270 1448h201l-340 -1655h-268z" />
    <glyph glyph-name="W" unicode="W" horiz-adv-x="1705" 
d="M340 0l-309 1655h198l240 -1409l2 -10l2 10l254 1409h252l254 -1407l2 -15l4 15l238 1407h196l-307 -1655h-262l-246 1374l-4 23l-6 -23l-246 -1374h-262z" />
    <glyph glyph-name="X" unicode="X" horiz-adv-x="1013" 
d="M14 0l383 848l-368 807h204l277 -629l276 629h201l-371 -807l379 -848h-204l-287 670l-287 -670h-203z" />
    <glyph glyph-name="Y" unicode="Y" horiz-adv-x="995" 
d="M399 0v580l-389 1075h209l279 -834l278 834h207l-387 -1075v-580h-197z" />
    <glyph glyph-name="Z" unicode="Z" horiz-adv-x="923" 
d="M53 0v164l609 1327h-609v164h817v-164l-608 -1327h608v-164h-817z" />
    <glyph glyph-name="bracketleft" unicode="[" horiz-adv-x="534" 
d="M506 1731v-86h-285v-1862h285v-86h-387v2034h387z" />
    <glyph glyph-name="backslash" unicode="\" horiz-adv-x="913" 
d="M29 1655h108l748 -1655h-109z" />
    <glyph glyph-name="bracketright" unicode="]" horiz-adv-x="534" 
d="M29 -303v86h284v1862h-284v86h387v-2034h-387z" />
    <glyph glyph-name="asciicircum" unicode="^" horiz-adv-x="808" 
d="M649 1040l-246 535l-245 -535h-111l283 615h147l283 -615h-111z" />
    <glyph glyph-name="underscore" unicode="_" horiz-adv-x="1306" 
d="M0 -154h1307v-92h-1307v92z" />
    <glyph glyph-name="grave" unicode="`" horiz-adv-x="1099" 
d="M895 1532l-21 -78l-669 150l20 79z" />
    <glyph glyph-name="a" unicode="a" horiz-adv-x="993" 
d="M705 0v195q-45 -110 -132.5 -162.5t-201.5 -52.5q-143 0 -228.5 83t-85.5 248q0 263 293 400l96 45q37 18 53 26t49.5 26.5t50 31t40 33.5t35 39.5t20 43.5t8.5 52v18q0 77 -46 122.5t-148 45.5q-111 0 -171.5 -57.5t-60.5 -173.5v-80h-190v57q0 88 23 160.5t71.5 130
t131 89.5t194.5 32q108 0 185 -28t119.5 -80t61.5 -116t19 -147v-981h-186zM248 334q0 -91 46 -140t138 -49q122 0 196 103.5t74 283.5v246q-4 -13 -11.5 -25.5t-14.5 -21.5t-22 -21t-23 -18.5t-28.5 -19t-28 -16.5t-33 -18t-31.5 -17l-86 -46q-85 -44 -130.5 -101.5
t-45.5 -139.5z" />
    <glyph glyph-name="b" unicode="b" 
d="M111 0v1655h188v-492q16 35 39.5 65t59.5 59.5t88.5 47t115.5 17.5q163 0 252.5 -112t89.5 -316v-527q0 -196 -89.5 -306.5t-254.5 -110.5q-192 0 -301 174v-154h-188zM299 424q0 -122 61 -204.5t177 -82.5q215 0 215 285v487q0 283 -215 283q-79 0 -134 -41t-79.5 -104
t-24.5 -142v-481z" />
    <glyph glyph-name="c" unicode="c" horiz-adv-x="974" 
d="M717 926q-3 143 -57 205.5t-160 62.5q-115 0 -173.5 -70t-58.5 -229v-459q0 -159 58.5 -229t173.5 -70q107 0 160.5 63t56.5 206v126h192l-2 -102q-10 -450 -409 -450q-212 0 -317 123.5t-105 357.5v409q0 234 104.5 358t317.5 124q204 0 305 -116.5t106 -334.5v-102
h-192v127z" />
    <glyph glyph-name="d" unicode="d" 
d="M723 1655h188v-1655h-188v164q-16 -34 -39.5 -64t-59.5 -58.5t-88 -45t-114 -16.5q-163 0 -252.5 112t-89.5 316v526q0 197 90 307.5t254 110.5q189 0 299 -170v473zM272 422q0 -283 215 -283q105 0 165.5 69t70.5 175v567q-10 105 -70.5 174.5t-165.5 69.5
q-215 0 -215 -285v-487z" />
    <glyph glyph-name="e" unicode="e" horiz-adv-x="985" 
d="M76 461v409q0 234 105 358t319 124q409 0 409 -478v-243h-641v-195q0 -159 58.5 -229t173.5 -70q103 0 155.5 58t55.5 192v55h194v-28q-13 -434 -405 -434q-213 0 -318.5 123.5t-105.5 357.5zM268 772h449v146q-1 151 -56.5 213.5t-162.5 62.5q-114 0 -172 -69.5
t-58 -229.5v-123z" />
    <glyph glyph-name="f" unicode="f" horiz-adv-x="722" 
d="M20 1331h207v51q0 51 5.5 89.5t22.5 78.5t46 66t79.5 42.5t119.5 16.5q104 0 202 -20v-144q-67 13 -131 13q-50 0 -81.5 -9.5t-47.5 -31t-21 -46t-5 -63.5v-88q25 21 74 31.5t90 12t122 1.5v-160h-286v-1171h-189v1171h-207v160z" />
    <glyph glyph-name="g" unicode="g" horiz-adv-x="1019" 
d="M723 18v146q-16 -34 -39.5 -64t-59.5 -58.5t-88 -45t-114 -16.5q-163 0 -252.5 112t-89.5 316v526q0 197 90 307.5t254 110.5q189 0 299 -170v149h188v-1329q0 -115 -16.5 -191.5t-58 -131.5t-113.5 -80t-182 -25h-404v160h373q124 0 168.5 62t44.5 222zM272 422
q0 -283 215 -283q105 0 165.5 69t70.5 175v567q-10 105 -70.5 174.5t-165.5 69.5q-215 0 -215 -285v-487z" />
    <glyph glyph-name="h" unicode="h" 
d="M299 1655v-494q38 80 112.5 135.5t194.5 55.5q314 0 314 -408v-944h-189v934q0 131 -46.5 195.5t-149.5 64.5q-53 0 -95 -18t-68 -46t-43 -66t-23.5 -75t-6.5 -76v-913h-188v1655h188z" />
    <glyph glyph-name="i" unicode="i" horiz-adv-x="409" 
d="M111 1331h188v-1331h-188v1331zM76 1565q0 49 34 79.5t95 30.5t95 -30.5t34 -79.5q0 -46 -34 -76.5t-95 -30.5t-95 30.5t-34 76.5z" />
    <glyph glyph-name="j" unicode="j" horiz-adv-x="409" 
d="M111 -8v1339h188v-1356q0 -110 -16.5 -183t-56.5 -123t-107.5 -72.5t-169.5 -22.5h-144v160h109q116 0 156.5 55t40.5 203zM76 1565q0 49 34 79.5t95 30.5t95 -30.5t34 -79.5q0 -46 -34 -76.5t-95 -30.5t-95 30.5t-34 76.5z" />
    <glyph glyph-name="k" unicode="k" horiz-adv-x="962" 
d="M111 1655h188v-907h53l385 583h217l-456 -665l456 -666h-217l-389 590h-49v-590h-188v1655z" />
    <glyph glyph-name="l" unicode="l" horiz-adv-x="409" 
d="M111 1655h188v-1655h-188v1655z" />
    <glyph glyph-name="m" unicode="m" horiz-adv-x="1527" 
d="M1237 944q0 56 -6 95.5t-22.5 77.5t-51 57.5t-86.5 19.5q-58 0 -100.5 -24.5t-65 -65.5t-33 -84.5t-10.5 -91.5v-928h-188v944q0 55 -6 94.5t-22.5 77.5t-51 58t-86.5 20q-57 0 -99.5 -24.5t-65.5 -65t-33.5 -85t-10.5 -91.5v-928h-188v1331h188v-160q34 81 103 131
t178 50q213 0 262 -193q100 193 299 193q81 0 137.5 -27.5t88 -81.5t45 -122t13.5 -160v-961h-188v944z" />
    <glyph glyph-name="n" unicode="n" 
d="M299 1331v-166q38 77 112.5 132t192.5 55q314 0 314 -408v-944h-189v934q0 131 -47 195.5t-150 64.5q-59 0 -104 -21t-71 -56.5t-40 -76t-18 -86.5v-954h-188v1331h188z" />
    <glyph glyph-name="o" unicode="o" horiz-adv-x="989" 
d="M494 -20q-209 0 -313.5 123.5t-104.5 357.5v409q0 233 104 357.5t314 124.5q211 0 314 -124t103 -358v-409q0 -234 -103.5 -357.5t-313.5 -123.5zM268 436q0 -158 57.5 -228.5t168.5 -70.5q112 0 169.5 70t57.5 229v459q0 159 -57.5 229t-169.5 70q-111 0 -168.5 -70.5
t-57.5 -228.5v-459z" />
    <glyph glyph-name="p" unicode="p" 
d="M299 1331v-168q16 35 39.5 65t59.5 59.5t88.5 47t115.5 17.5q163 0 252.5 -112t89.5 -316v-527q0 -196 -89.5 -306.5t-254.5 -110.5q-192 0 -301 174v-580h-188v1757h188zM299 424q0 -122 61 -204.5t177 -82.5q215 0 215 285v487q0 283 -215 283q-79 0 -134 -41
t-79.5 -104t-24.5 -142v-481z" />
    <glyph glyph-name="q" unicode="q" horiz-adv-x="1019" 
d="M723 -426v590q-16 -34 -39.5 -64t-59.5 -58.5t-88 -45t-114 -16.5q-163 0 -252.5 112t-89.5 316v526q0 197 90 307.5t254 110.5q189 0 299 -170v149h188v-1757h-188zM272 422q0 -283 215 -283q105 0 165.5 69t70.5 175v567q-10 105 -70.5 174.5t-165.5 69.5
q-215 0 -215 -285v-487z" />
    <glyph glyph-name="r" unicode="r" horiz-adv-x="899" 
d="M299 1331v-166q38 81 110.5 134t178.5 53q278 0 278 -361v-133h-188v98q0 123 -36.5 180.5t-125.5 57.5q-61 0 -106.5 -29.5t-68 -76t-32.5 -92t-10 -89.5v-907h-188v1331h188z" />
    <glyph glyph-name="s" unicode="s" horiz-adv-x="942" 
d="M643 698q128 -71 182 -149t54 -203q0 -60 -11.5 -111.5t-40.5 -99.5t-73.5 -81.5t-114.5 -53.5t-160 -20q-215 0 -318.5 101t-103.5 290v82h193v-80q0 -126 53.5 -181t175.5 -55q109 0 159 48.5t50 148.5q0 78 -35 126.5t-131 104.5l-215 125q-114 61 -171.5 136
t-57.5 192q0 67 20.5 124t63.5 105.5t121 76.5t184 28q403 0 403 -379v-64h-192v62q0 122 -52 172.5t-159 50.5q-93 0 -145 -41.5t-52 -124.5q0 -65 32 -107.5t110 -86.5z" />
    <glyph glyph-name="t" unicode="t" horiz-adv-x="720" 
d="M674 1331v-160h-275v-798q0 -131 25 -172t104 -41h146v-160h-207q-65 0 -111 15t-74 41t-44 69.5t-21.5 92t-5.5 118.5v835h-191v160h27q99 21 150 109.5t49 214.5h188q0 -122 -45.5 -212.5t-112.5 -111.5h398z" />
    <glyph glyph-name="u" unicode="u" 
d="M723 0v170q-17 -36 -41 -66.5t-60.5 -60t-89.5 -46.5t-116 -17q-314 0 -314 407v944h189v-934q0 -131 46.5 -195.5t149.5 -64.5q53 0 95 18t68 46t43 66t23.5 75t6.5 76v913h188v-1331h-188z" />
    <glyph glyph-name="v" unicode="v" horiz-adv-x="905" 
d="M25 1331h192l236 -1143l233 1143h195l-303 -1331h-250z" />
    <glyph glyph-name="w" unicode="w" horiz-adv-x="1495" 
d="M29 1331h190l205 -1141l213 1141h221l215 -1141l205 1141h186l-268 -1331h-229l-222 1163l-223 -1163h-223z" />
    <glyph glyph-name="x" unicode="x" horiz-adv-x="931" 
d="M2 0l352 688l-323 643h207l233 -479l234 479h196l-326 -643l353 -688h-207l-260 524l-262 -524h-197z" />
    <glyph glyph-name="y" unicode="y" horiz-adv-x="1017" 
d="M721 12v158q-17 -36 -41 -66.5t-60.5 -60t-89.5 -46.5t-116 -17q-314 0 -314 407v944h189v-934q0 -131 46.5 -195.5t149.5 -64.5q53 0 95 18t68 46t43 66t23.5 75t6.5 76v913h188v-1321q0 -117 -17 -195t-59 -134t-113.5 -81.5t-180.5 -25.5h-400v160h365
q126 0 171.5 60.5t45.5 217.5z" />
    <glyph glyph-name="z" unicode="z" horiz-adv-x="860" 
d="M51 1331h758v-160l-553 -1011h551v-160h-754v160l551 1011h-553v160z" />
    <glyph glyph-name="braceleft" unicode="{" horiz-adv-x="522" 
d="M68 823q79 0 79 181v372q0 185 64.5 270t194.5 85h88v-93h-86q-84 0 -121 -65t-37 -189v-374q0 -109 -18.5 -162t-71.5 -86v-92q53 -33 71.5 -86t18.5 -162v-377q0 -124 37 -188t121 -64h86v-92h-88q-130 0 -194.5 84t-64.5 268v375q0 180 -79 180v215z" />
    <glyph glyph-name="bar" unicode="|" horiz-adv-x="346" 
d="M121 -20v1691h102v-1691h-102z" />
    <glyph glyph-name="braceright" unicode="}" horiz-adv-x="522" 
d="M455 608q-80 0 -80 -180v-373q0 -186 -64 -270t-194 -84h-88v92h86q84 0 120.5 64.5t36.5 189.5v375q0 109 18.5 162t71.5 86v92q-53 33 -71.5 86t-18.5 162v376q0 124 -36.5 188t-120.5 64h-86v93h88q130 0 194 -84.5t64 -268.5v-374q0 -181 80 -181v-215z" />
    <glyph glyph-name="asciitilde" unicode="~" horiz-adv-x="1167" 
d="M78 721q0 74 23 126.5t62 77.5t79 35.5t86 10.5q64 0 124.5 -20.5t107.5 -50.5t91.5 -59.5t94.5 -50t98 -20.5q67 0 106 38t39 110h105q0 -74 -23.5 -126.5t-63 -77.5t-79 -35.5t-84.5 -10.5q-64 0 -125 20.5t-108 50t-91.5 59t-94.5 50t-99 20.5q-67 0 -106.5 -38
t-39.5 -109h-102z" />
    <glyph glyph-name="uni00A0" unicode="&#xa0;" horiz-adv-x="460" 
 />
    <glyph glyph-name="exclamdown" unicode="&#xa1;" horiz-adv-x="425" 
d="M307 -324h-188l10 1143h172zM78 1219q0 59 39 96t96 37q58 0 96.5 -37t38.5 -96q0 -62 -38.5 -100t-96.5 -38q-57 0 -96 38t-39 100z" />
    <glyph glyph-name="cent" unicode="&#xa2;" 
d="M465 -143v286q-190 15 -284.5 138t-94.5 342v409q0 218 95 341t284 138v287h98v-287q369 -23 379 -448v-102h-180v120q-4 133 -54 197.5t-145 75.5v-1053q96 11 146 75.5t53 196.5v121h180v-102q-5 -205 -99 -321t-280 -128v-286h-98zM266 602q0 -143 50.5 -214
t148.5 -85v1049q-97 -14 -148 -86t-51 -215v-449z" />
    <glyph glyph-name="sterling" unicode="&#xa3;" horiz-adv-x="1048" 
d="M68 135q95 75 139.5 163t44.5 210q0 54 -10 119h-174v98h153q-7 28 -30.5 109.5t-34.5 126.5t-22 123t-11 153q0 220 116 329t316 109q201 0 313.5 -112.5t112.5 -333.5v-119h-197v131q0 141 -56 210t-171 69q-240 0 -240 -283q0 -98 14.5 -180.5t49.5 -196t41 -135.5
h414v-98h-396q6 -43 6 -88q0 -121 -40.5 -212.5t-126.5 -170.5h702v-156h-913v135z" />
    <glyph glyph-name="currency" unicode="&#xa4;" horiz-adv-x="854" 
d="M428 418q-95 0 -168 51l-115 -154l-71 70l119 156q-76 109 -76 278t76 281l-119 153l71 70l117 -154q71 52 166 52t166 -52l117 154l71 -70l-118 -155q75 -107 75 -279q0 -170 -75 -280l118 -154l-71 -70l-117 154q-70 -51 -166 -51zM219 819q0 -142 52.5 -225.5
t156.5 -83.5q103 0 156 84t53 225t-53 225t-156 84q-104 0 -156.5 -83.5t-52.5 -225.5z" />
    <glyph glyph-name="yen" unicode="&#xa5;" horiz-adv-x="1040" 
d="M113 561v82h286l-366 1012h209l278 -834l279 834h207l-365 -1012h285v-82h-308v-86h308v-82h-308v-393h-196v393h-309v82h309v86h-309z" />
    <glyph glyph-name="brokenbar" unicode="&#xa6;" horiz-adv-x="346" 
d="M121 1012v659h102v-659h-102zM121 -20v659h102v-659h-102z" />
    <glyph glyph-name="section" unicode="&#xa7;" horiz-adv-x="985" 
d="M520 -20q-217 0 -315 101t-101 292h105q2 -157 77 -234.5t236 -77.5q275 0 275 213q0 134 -115 170l-420 113q-109 34 -149.5 88.5t-40.5 128.5q0 152 131 191q-119 74 -119 215q0 150 103 223.5t284 73.5q113 0 192.5 -27t126 -80t67.5 -123t22 -164h-103
q-2 159 -72.5 235.5t-234.5 76.5q-135 0 -209 -53t-74 -158q0 -132 117 -170l422 -113q99 -28 142.5 -82.5t43.5 -136.5q0 -149 -125 -190q113 -69 113 -213q0 -152 -99 -225.5t-280 -73.5zM176 778q0 -56 27.5 -88.5t87.5 -50.5l336 -84q48 -16 80.5 -10t52.5 17.5t31 34.5
t14.5 41t3.5 38q0 57 -27.5 91.5t-87.5 51.5l-338 88q-52 12 -86.5 6.5t-55.5 -29t-29.5 -50t-8.5 -56.5z" />
    <glyph glyph-name="dieresis" unicode="&#xa8;" horiz-adv-x="952" 
d="M666 1456q-46 0 -77.5 27t-31.5 73q0 50 31 77.5t78 27.5q46 0 78 -27.5t32 -77.5q0 -45 -32.5 -72.5t-77.5 -27.5zM178 1556q0 50 31 77.5t78 27.5q46 0 78 -27.5t32 -77.5q0 -45 -32.5 -72.5t-77.5 -27.5q-46 0 -77.5 27t-31.5 73z" />
    <glyph glyph-name="copyright" unicode="&#xa9;" horiz-adv-x="1626" 
d="M813 -20q-158 0 -284 45.5t-209 123t-138 187t-78.5 231t-23.5 260.5t23.5 261t78.5 231t138 187t209 123.5t284 45.5t284 -45.5t209 -123.5t138 -187t78.5 -231t23.5 -261t-23.5 -260.5t-78.5 -231t-138 -187t-209 -123t-284 -45.5zM186 827q0 -745 627 -745
q137 0 244.5 38.5t178.5 105.5t117.5 162.5t66.5 203.5t20 235t-20 235.5t-66.5 204t-117.5 162.5t-178.5 105.5t-244.5 38.5t-244.5 -38.5t-178.5 -105.5t-117.5 -162.5t-66.5 -204t-20 -235.5zM354 829q0 98 15 181.5t50.5 157.5t89 126.5t134.5 82.5t184 30
q92 0 164.5 -25.5t120.5 -67.5t80.5 -103t48.5 -126.5t21 -142.5h-142q-7 62 -15.5 103.5t-28 89t-49 75.5t-79 47t-117.5 19q-98 0 -165.5 -33.5t-103.5 -97t-51 -139.5t-15 -177q0 -81 8.5 -145.5t31.5 -123t59.5 -97.5t95 -61.5t136.5 -22.5q50 0 90 10t68 26t50 43
t35 52.5t23 63.5t15 67.5t10 71.5h142q-32 -465 -433 -465q-103 0 -184 30t-134.5 81.5t-89 126t-50.5 159t-15 184.5z" />
    <glyph glyph-name="ordfeminine" unicode="&#xaa;" horiz-adv-x="669" 
d="M451 864v119q-54 -131 -199 -131q-85 0 -135.5 51t-50.5 150q0 154 178 241l57 27q83 44 106 64q38 35 39 79v11q0 92 -106 92q-60 0 -92.5 -32t-32.5 -93v-51h-131v32q0 117 62 184.5t194 67.5q238 0 238 -231v-580h-127zM199 1071q0 -102 98 -102q68 0 108.5 57.5
t40.5 159.5v129q-4 -17 -20.5 -33t-29.5 -23.5t-43 -23.5q-3 -2 -4 -2.5l-3 -1.5l-4 -2l-49 -27q-94 -48 -94 -131z" />
    <glyph glyph-name="guillemotleft" unicode="&#xab;" horiz-adv-x="813" 
d="M418 291l-355 342v86l355 342v-139l-258 -246l258 -246v-139zM362 633v86l355 342v-139l-258 -246l258 -246v-139z" />
    <glyph glyph-name="logicalnot" unicode="&#xac;" horiz-adv-x="1189" 
d="M985 633v285h-907v92h1009v-377h-102z" />
    <glyph glyph-name="registered" unicode="&#xae;" horiz-adv-x="1013" 
d="M506 750q-76 0 -134.5 27.5t-92.5 69t-55.5 99t-28.5 108.5t-7 105t7 105t28.5 108.5t55.5 99.5t92.5 69.5t134.5 27.5t134.5 -27.5t92 -69.5t55 -99.5t28.5 -108.5t7 -105t-7 -105t-28.5 -108.5t-55 -99t-92 -69t-134.5 -27.5zM74 1159q0 -71 12 -139t42.5 -138
t78 -121.5t124.5 -84.5t175 -33t175 33t124.5 84.5t78 121.5t42.5 138t12 139t-12 139t-42.5 138t-78 121.5t-124.5 84.5t-175 33t-175 -33t-124.5 -84.5t-78 -121.5t-42.5 -138t-12 -139zM326 885v563h172q94 0 149 -35t55 -125q0 -105 -102 -147q100 -32 100 -146v-51
q0 -48 9 -59h-129q-11 14 -11 59v51q0 49 -16.5 67.5t-56.5 18.5h-39v-196h-131zM457 1200h41q42 0 57.5 16t15.5 52t-18 48.5t-55 12.5h-41v-129z" />
    <glyph glyph-name="macron" unicode="&#xaf;" horiz-adv-x="1099" 
d="M205 1528v82h690v-82h-690z" />
    <glyph glyph-name="degree" unicode="&#xb0;" horiz-adv-x="663" 
d="M332 1153q-160 0 -160 215t160 215t160 -215t-160 -215zM70 1368q0 -61 14.5 -114t44 -97.5t81.5 -70t122 -25.5t122 25.5t81.5 70t44 97.5t14.5 114t-14.5 114t-44 97.5t-81.5 70t-122 25.5t-122 -25.5t-81.5 -70t-44 -97.5t-14.5 -114z" />
    <glyph glyph-name="plusminus" unicode="&#xb1;" horiz-adv-x="1142" 
d="M623 1241v-373h452v-90h-452v-286h452v-93h-1007v93h452v286h-452v90h452v373h103z" />
    <glyph glyph-name="uni00B2" unicode="&#xb2;" horiz-adv-x="557" 
d="M47 813q0 101 36 169.5t128 121.5l76 49q53 30 76.5 68.5t23.5 99.5v16q0 58 -25 80.5t-77 22.5q-56 0 -82.5 -25.5t-26.5 -89.5v-59h-123v45q0 111 58 170t172 59q112 0 170.5 -57.5t58.5 -167.5q0 -169 -147 -250l-86 -55q-67 -37 -87 -78t-20 -129h338v-101h-463v111z
" />
    <glyph glyph-name="uni00B3" unicode="&#xb3;" horiz-adv-x="557" 
d="M276 692q-118 0 -175 55t-58 171v40h123v-53q1 -64 27.5 -89t80.5 -25q57 0 83 25.5t26 82.5v70q0 63 -29 85.5t-75 22.5h-84v101h81q103 0 103 98v61q0 57 -27 81t-78 24q-50 0 -76.5 -24.5t-27.5 -84.5v-49h-123v35q1 112 58 166.5t171 54.5q63 0 109.5 -19.5t70.5 -52
t35 -66.5t11 -71v-24q0 -135 -109 -174q113 -39 113 -189v-29q0 -223 -230 -223z" />
    <glyph glyph-name="acute" unicode="&#xb4;" horiz-adv-x="1075" 
d="M225 1462l-20 78l645 152l20 -80z" />
    <glyph glyph-name="paragraph" unicode="&#xb6;" horiz-adv-x="802" 
d="M578 1655h102v-1655h-102v1655zM43 1294q0 112 18 183.5t59.5 110.5t96 53t139.5 14h103v-1655h-103v936q-85 0 -139.5 14t-96 52t-59.5 109t-18 183z" />
    <glyph glyph-name="periodcentered" unicode="&#xb7;" horiz-adv-x="411" 
d="M207 557q-58 0 -96.5 37t-38.5 96q0 62 38.5 99.5t96.5 37.5q57 0 96 -38t39 -99q0 -59 -39 -96t-96 -37z" />
    <glyph glyph-name="cedilla" unicode="&#xb8;" horiz-adv-x="784" 
d="M207 -338q143 0 200.5 15t57.5 63q0 51 -56 60t-165 -9l51 209h94l-33 -131q224 30 224 -127q0 -89 -87 -127.5t-288 -38.5z" />
    <glyph glyph-name="uni00B9" unicode="&#xb9;" horiz-adv-x="464" 
d="M45 803h139v583q-48 -55 -141 -55v109q104 0 152 90h108v-727h141v-101h-399v101z" />
    <glyph glyph-name="ordmasculine" unicode="&#xba;" horiz-adv-x="659" 
d="M330 852q-256 0 -256 293v237q0 142 64 217.5t192 75.5t192 -75t64 -218v-237q0 -143 -64 -218t-192 -75zM207 1124q0 -85 30.5 -123t92.5 -38q61 0 91 38t30 123v279q0 85 -30 123.5t-91 38.5q-62 0 -92.5 -38t-30.5 -124v-279z" />
    <glyph glyph-name="guillemotright" unicode="&#xbb;" horiz-adv-x="813" 
d="M395 291v139l258 246l-258 246v139l355 -342v-86zM96 291v139l258 246l-258 246v139l355 -342v-86z" />
    <glyph glyph-name="onequarter" unicode="&#xbc;" horiz-adv-x="1378" 
d="M59 928h140v583q-48 -55 -142 -55v109q104 0 152 90h108v-727h142v-101h-400v101zM291 0l670 1655h98l-670 -1655h-98zM868 160v110l293 557h115v-567h65v-100h-65v-160h-121v160h-287zM961 260h194v369z" />
    <glyph glyph-name="onehalf" unicode="&#xbd;" horiz-adv-x="1447" 
d="M59 928h140v583q-48 -55 -142 -55v109q104 0 152 90h108v-727h142v-101h-400v101zM291 0l672 1655h96l-670 -1655h-98zM924 0v111q0 101 35.5 169t127.5 121l76 50q53 30 77 68.5t24 98.5v17q0 57 -25 79.5t-78 22.5q-56 0 -82 -25t-26 -89v-60h-123v45q0 112 57.5 171
t171.5 59q112 0 171 -58t59 -168q0 -168 -148 -250l-86 -55q-67 -37 -86.5 -78t-19.5 -129h337v-100h-462z" />
    <glyph glyph-name="threequarters" unicode="&#xbe;" horiz-adv-x="1458" 
d="M289 817q-118 0 -175.5 54.5t-58.5 170.5v41h123v-53q1 -64 28 -89.5t81 -25.5q57 0 82.5 26t25.5 83v70q0 63 -29 85.5t-75 22.5h-84v101h82q102 0 102 98v61q0 57 -26.5 81t-77.5 24q-50 0 -77 -24.5t-28 -84.5v-49h-123v35q3 221 230 221q63 0 109.5 -19.5t70.5 -52
t34.5 -66.5t10.5 -71v-24q0 -136 -108 -175q112 -39 112 -188v-29q0 -223 -229 -223zM371 0l669 1655h99l-670 -1655h-98zM948 160v110l293 557h115v-567h65v-100h-65v-160h-121v160h-287zM1040 260h195v369z" />
    <glyph glyph-name="questiondown" unicode="&#xbf;" horiz-adv-x="901" 
d="M444 -344q-203 0 -303 105t-100 276q0 72 18.5 133.5t48 107.5t65.5 88.5t72 87t65.5 93t48 116t18.5 146.5v29h172v-35q0 -87 -17 -161t-44.5 -126.5t-60.5 -99t-66.5 -88t-61 -84t-44.5 -97t-17 -116.5q0 -111 52 -164t156 -53q117 0 168.5 66.5t51.5 199.5v96h194v-72
q0 -97 -22.5 -176t-70.5 -141t-130 -96.5t-193 -34.5zM328 1219q0 59 39 96t96 37q58 0 96.5 -37t38.5 -96q0 -62 -38.5 -100t-96.5 -38q-57 0 -96 38t-39 100z" />
    <glyph glyph-name="Agrave" unicode="&#xc0;" horiz-adv-x="1007" 
d="M27 0l342 1655h268l342 -1655h-201l-63 336h-424l-64 -336h-200zM158 1927l20 80l670 -152l-21 -77zM322 500h362l-178 946l-4 14l-2 -10z" />
    <glyph glyph-name="Aacute" unicode="&#xc1;" horiz-adv-x="1007" 
d="M27 0l342 1655h268l342 -1655h-201l-63 336h-424l-64 -336h-200zM170 1864l645 151l21 -80l-646 -149zM322 500h362l-178 946l-4 14l-2 -10z" />
    <glyph glyph-name="Acircumflex" unicode="&#xc2;" horiz-adv-x="1007" 
d="M27 0l342 1655h268l342 -1655h-201l-63 336h-424l-64 -336h-200zM190 1782l244 237h144l239 -237h-139l-172 174l-176 -174h-140zM322 500h362l-178 946l-4 14l-2 -10z" />
    <glyph glyph-name="Atilde" unicode="&#xc3;" horiz-adv-x="1007" 
d="M27 0l342 1655h268l342 -1655h-201l-63 336h-424l-64 -336h-200zM172 1798q0 59 15 101.5t42 65.5t58 33.5t69 10.5q47 0 83.5 -15.5t59.5 -37.5t43 -43.5t45.5 -37t55.5 -15.5q88 0 88 127h103q0 -114 -53 -162.5t-134 -48.5q-48 0 -85.5 15.5t-60.5 37t-42.5 43.5
t-43.5 37.5t-53 15.5q-88 0 -88 -127h-102zM322 500h362l-178 946l-4 14l-2 -10z" />
    <glyph glyph-name="Adieresis" unicode="&#xc4;" horiz-adv-x="1007" 
d="M27 0l342 1655h268l342 -1655h-201l-63 336h-424l-64 -336h-200zM205 1880q0 50 30.5 77.5t77.5 27.5q46 0 78.5 -27.5t32.5 -77.5q0 -45 -33 -72.5t-78 -27.5q-46 0 -77 27t-31 73zM322 500h362l-178 946l-4 14l-2 -10zM584 1880q0 50 30.5 77.5t77.5 27.5
q46 0 78.5 -27.5t32.5 -77.5q0 -45 -33 -72.5t-78 -27.5q-46 0 -77 27t-31 73z" />
    <glyph glyph-name="Aring" unicode="&#xc5;" horiz-adv-x="1007" 
d="M27 0l342 1655h268l342 -1655h-201l-63 336h-424l-64 -336h-200zM322 500h362l-178 946l-4 14l-2 -10zM338 1913q0 71 49.5 118.5t116.5 47.5t116.5 -47.5t49.5 -118.5t-49.5 -118.5t-116.5 -47.5t-116.5 47.5t-49.5 118.5zM422 1913q0 -37 22 -59.5t60 -22.5t60 22.5
t22 59.5t-22 59.5t-60 22.5t-60 -22.5t-22 -59.5z" />
    <glyph glyph-name="AE" unicode="&#xc6;" horiz-adv-x="1335" 
d="M14 0l406 1655h844v-164h-428v-582h403v-164h-403v-581h428v-164h-625v354h-342l-86 -354h-197zM336 518h303v973h-70z" />
    <glyph glyph-name="Ccedilla" unicode="&#xc7;" horiz-adv-x="1101" 
d="M424 -338q143 0 200.5 15t57.5 63q0 51 -56 60t-165 -9l47 191q-212 15 -317 154t-105 374v637q0 248 118 388t357 140q228 0 345 -130.5t120 -360.5l2 -205h-201l-2 242q-3 292 -264 292q-276 0 -276 -327v-715q0 -170 70 -250t206 -80q261 0 264 295l2 242h201l-2 -205
q-3 -220 -109.5 -349.5t-314.5 -141.5l-29 -113q224 30 224 -127q0 -89 -87 -127.5t-288 -38.5z" />
    <glyph glyph-name="Egrave" unicode="&#xc8;" horiz-adv-x="929" 
d="M117 0v1655h741v-164h-545v-582h521v-164h-521v-581h545v-164h-741zM143 1927l21 80l670 -152l-21 -77z" />
    <glyph glyph-name="Eacute" unicode="&#xc9;" horiz-adv-x="929" 
d="M117 0v1655h741v-164h-545v-582h521v-164h-521v-581h545v-164h-741zM156 1864l645 151l20 -80l-645 -149z" />
    <glyph glyph-name="Ecircumflex" unicode="&#xca;" horiz-adv-x="929" 
d="M117 0v1655h741v-164h-545v-582h521v-164h-521v-581h545v-164h-741zM176 1782l244 237h143l240 -237h-139l-172 174l-177 -174h-139z" />
    <glyph glyph-name="Edieresis" unicode="&#xcb;" horiz-adv-x="929" 
d="M117 0v1655h741v-164h-545v-582h521v-164h-521v-581h545v-164h-741zM190 1880q0 50 31 77.5t78 27.5q46 0 78.5 -27.5t32.5 -77.5q0 -45 -33 -72.5t-78 -27.5q-46 0 -77.5 27t-31.5 73zM569 1880q0 50 31 77.5t78 27.5q46 0 78 -27.5t32 -77.5q0 -45 -32.5 -72.5
t-77.5 -27.5q-46 0 -77.5 27t-31.5 73z" />
    <glyph glyph-name="Igrave" unicode="&#xcc;" horiz-adv-x="595" 
d="M92 0v176h109v1303h-109v176h412v-176h-109v-1303h109v-176h-412zM-49 1927l20 80l670 -152l-20 -77z" />
    <glyph glyph-name="Iacute" unicode="&#xcd;" horiz-adv-x="595" 
d="M92 0v176h109v1303h-109v176h412v-176h-109v-1303h109v-176h-412zM-37 1864l645 151l21 -80l-645 -149z" />
    <glyph glyph-name="Icircumflex" unicode="&#xce;" horiz-adv-x="595" 
d="M92 0v176h109v1303h-109v176h412v-176h-109v-1303h109v-176h-412zM-16 1782l243 237h144l239 -237h-139l-172 174l-176 -174h-139z" />
    <glyph glyph-name="Idieresis" unicode="&#xcf;" horiz-adv-x="595" 
d="M92 0v176h109v1303h-109v176h412v-176h-109v-1303h109v-176h-412zM-2 1880q0 50 30.5 77.5t77.5 27.5q46 0 78.5 -27.5t32.5 -77.5q0 -45 -33 -72.5t-78 -27.5q-46 0 -77 27t-31 73zM377 1880q0 50 30.5 77.5t77.5 27.5q46 0 78.5 -27.5t32.5 -77.5q0 -45 -33 -72.5
t-78 -27.5q-46 0 -77 27t-31 73z" />
    <glyph glyph-name="Eth" unicode="&#xd0;" horiz-adv-x="1179" 
d="M178 0v782h-151v111h151v762h406q130 0 220.5 -24t157.5 -82t98.5 -159.5t31.5 -252.5v-619q0 -150 -32 -251.5t-98.5 -160t-157 -82.5t-220.5 -24h-406zM375 156h211q116 0 180 29t95.5 103t31.5 208v663q0 197 -68 268.5t-241 71.5h-209v-606h291v-111h-291v-626z" />
    <glyph glyph-name="Ntilde" unicode="&#xd1;" horiz-adv-x="1142" 
d="M117 0v1655h184l543 -1219v1219h182v-1655h-184l-543 1219v-1219h-182zM240 1798q0 59 15 101.5t42 65.5t58 33.5t69 10.5q47 0 83.5 -15.5t59.5 -37.5t43 -43.5t45.5 -37t55.5 -15.5q88 0 88 127h102q0 -115 -52.5 -163t-133.5 -48q-48 0 -85.5 15.5t-60.5 37
t-42.5 43.5t-43.5 37.5t-53 15.5q-88 0 -88 -127h-102z" />
    <glyph glyph-name="Ograve" unicode="&#xd2;" horiz-adv-x="1120" 
d="M559 -20q-237 0 -355 140.5t-118 387.5v639q0 246 118.5 387t354.5 141q237 0 356 -141t119 -387v-639q0 -246 -119 -387t-356 -141zM213 1927l20 80l670 -152l-20 -77zM285 471q0 -328 274 -328q275 0 275 328v711q0 329 -275 329q-274 0 -274 -327v-713z" />
    <glyph glyph-name="Oacute" unicode="&#xd3;" horiz-adv-x="1120" 
d="M559 -20q-237 0 -355 140.5t-118 387.5v639q0 246 118.5 387t354.5 141q237 0 356 -141t119 -387v-639q0 -246 -119 -387t-356 -141zM225 1864l645 151l21 -80l-645 -149zM285 471q0 -328 274 -328q275 0 275 328v711q0 329 -275 329q-274 0 -274 -327v-713z" />
    <glyph glyph-name="Ocircumflex" unicode="&#xd4;" horiz-adv-x="1120" 
d="M559 -20q-237 0 -355 140.5t-118 387.5v639q0 246 118.5 387t354.5 141q237 0 356 -141t119 -387v-639q0 -246 -119 -387t-356 -141zM246 1782l243 237h144l239 -237h-139l-172 174l-176 -174h-139zM285 471q0 -328 274 -328q275 0 275 328v711q0 329 -275 329
q-274 0 -274 -327v-713z" />
    <glyph glyph-name="Otilde" unicode="&#xd5;" horiz-adv-x="1120" 
d="M559 -20q-237 0 -355 140.5t-118 387.5v639q0 246 118.5 387t354.5 141q237 0 356 -141t119 -387v-639q0 -246 -119 -387t-356 -141zM227 1798q0 113 52 162t133 49q47 0 83.5 -15.5t59.5 -37.5t43 -43.5t45 -37t55 -15.5q88 0 88 127h103q0 -114 -53 -162.5t-134 -48.5
q-48 0 -85.5 15.5t-60 37t-42 43.5t-43.5 37.5t-53 15.5q-88 0 -88 -127h-103zM285 471q0 -328 274 -328q275 0 275 328v711q0 329 -275 329q-274 0 -274 -327v-713z" />
    <glyph glyph-name="Odieresis" unicode="&#xd6;" horiz-adv-x="1120" 
d="M559 -20q-237 0 -355 140.5t-118 387.5v639q0 246 118.5 387t354.5 141q237 0 356 -141t119 -387v-639q0 -246 -119 -387t-356 -141zM260 1880q0 50 31 77.5t78 27.5q46 0 78 -27.5t32 -77.5q0 -45 -32.5 -72.5t-77.5 -27.5q-46 0 -77.5 27t-31.5 73zM285 471
q0 -328 274 -328q275 0 275 328v711q0 329 -275 329q-274 0 -274 -327v-713zM639 1880q0 50 31 77.5t78 27.5q46 0 78 -27.5t32 -77.5q0 -45 -32.5 -72.5t-77.5 -27.5q-46 0 -77.5 27t-31.5 73z" />
    <glyph glyph-name="multiply" unicode="&#xd7;" horiz-adv-x="905" 
d="M127 1208l326 -323l325 325l62 -61l-326 -328l326 -325l-62 -62l-327 326l-324 -324l-61 62l323 323l-323 324z" />
    <glyph glyph-name="Oslash" unicode="&#xd8;" horiz-adv-x="1120" 
d="M559 -20q-171 0 -287 77l-30 -69h-115l66 147q-107 134 -107 373v639q0 246 118.5 387t354.5 141q173 0 289 -80l33 74h114l-67 -149q106 -135 106 -373v-639q0 -246 -119 -387t-356 -141zM285 471q0 -56 10 -111l475 1063q-70 88 -211 88q-274 0 -274 -327v-713z
M350 229q71 -86 209 -86q275 0 275 328v711q0 60 -9 106z" />
    <glyph glyph-name="Ugrave" unicode="&#xd9;" horiz-adv-x="1122" 
d="M561 -20q-237 0 -343.5 121t-106.5 370v1184h198v-1217q0 -88 16.5 -146.5t50 -91.5t78 -46t107.5 -13t107.5 13t79 45.5t51 91.5t16.5 147v1217h199v-1184q0 -249 -108.5 -370t-344.5 -121zM215 1927l21 80l669 -152l-20 -77z" />
    <glyph glyph-name="Uacute" unicode="&#xda;" horiz-adv-x="1122" 
d="M561 -20q-237 0 -343.5 121t-106.5 370v1184h198v-1217q0 -88 16.5 -146.5t50 -91.5t78 -46t107.5 -13t107.5 13t79 45.5t51 91.5t16.5 147v1217h199v-1184q0 -249 -108.5 -370t-344.5 -121zM227 1864l645 151l21 -80l-645 -149z" />
    <glyph glyph-name="Ucircumflex" unicode="&#xdb;" horiz-adv-x="1122" 
d="M561 -20q-237 0 -343.5 121t-106.5 370v1184h198v-1217q0 -88 16.5 -146.5t50 -91.5t78 -46t107.5 -13t107.5 13t79 45.5t51 91.5t16.5 147v1217h199v-1184q0 -249 -108.5 -370t-344.5 -121zM248 1782l244 237h143l239 -237h-139l-172 174l-176 -174h-139z" />
    <glyph glyph-name="Udieresis" unicode="&#xdc;" horiz-adv-x="1122" 
d="M561 -20q-237 0 -343.5 121t-106.5 370v1184h198v-1217q0 -88 16.5 -146.5t50 -91.5t78 -46t107.5 -13t107.5 13t79 45.5t51 91.5t16.5 147v1217h199v-1184q0 -249 -108.5 -370t-344.5 -121zM262 1880q0 50 31 77.5t78 27.5q46 0 78 -27.5t32 -77.5q0 -45 -32.5 -72.5
t-77.5 -27.5q-46 0 -77.5 27t-31.5 73zM641 1880q0 50 31 77.5t78 27.5q46 0 78 -27.5t32 -77.5q0 -45 -32.5 -72.5t-77.5 -27.5q-46 0 -77.5 27t-31.5 73z" />
    <glyph glyph-name="Yacute" unicode="&#xdd;" horiz-adv-x="995" 
d="M399 0v580l-389 1075h209l279 -834l278 834h207l-387 -1075v-580h-197zM164 1864l645 151l20 -80l-645 -149z" />
    <glyph glyph-name="Thorn" unicode="&#xde;" horiz-adv-x="1091" 
d="M117 0v1655h192v-289h244q252 0 360.5 -118t108.5 -386v-55q0 -269 -109 -391.5t-360 -122.5h-244v-293h-192zM309 457h256q138 0 198 73t60 240v131q0 165 -59 232t-199 67h-256v-743z" />
    <glyph glyph-name="germandbls" unicode="&#xdf;" horiz-adv-x="1030" 
d="M111 0v1255q0 208 98 314t313 106q209 0 308.5 -100t99.5 -285v-76q0 -269 -201 -346q118 -39 178 -132t60 -251v-55q0 -430 -398 -430h-182v158h150q126 2 181.5 61.5t55.5 208.5v88q0 57 -11 101t-38 82.5t-80 59.5t-129 21l-129 2v156l123 2q127 0 180 58.5t53 183.5
v106q0 128 -54.5 180t-166.5 52q-56 0 -95.5 -12t-69 -41t-44 -81t-14.5 -129v-1257h-188z" />
    <glyph glyph-name="agrave" unicode="&#xe0;" horiz-adv-x="993" 
d="M705 0v195q-45 -110 -132.5 -162.5t-201.5 -52.5q-143 0 -228.5 83t-85.5 248q0 263 293 400l96 45q37 18 53 26t49.5 26.5t50 31t40 33.5t35 39.5t20 43.5t8.5 52v18q0 77 -46 122.5t-148 45.5q-111 0 -171.5 -57.5t-60.5 -173.5v-80h-190v57q0 88 23 160.5t71.5 130
t131 89.5t194.5 32q108 0 185 -28t119.5 -80t61.5 -116t19 -147v-981h-186zM150 1604l20 79l670 -151l-21 -78zM248 334q0 -91 46 -140t138 -49q122 0 196 103.5t74 283.5v246q-4 -13 -11.5 -25.5t-14.5 -21.5t-22 -21t-23 -18.5t-28.5 -19t-28 -16.5t-33 -18t-31.5 -17
l-86 -46q-85 -44 -130.5 -101.5t-45.5 -139.5z" />
    <glyph glyph-name="aacute" unicode="&#xe1;" horiz-adv-x="993" 
d="M705 0v195q-45 -110 -132.5 -162.5t-201.5 -52.5q-143 0 -228.5 83t-85.5 248q0 263 293 400l96 45q37 18 53 26t49.5 26.5t50 31t40 33.5t35 39.5t20 43.5t8.5 52v18q0 77 -46 122.5t-148 45.5q-111 0 -171.5 -57.5t-60.5 -173.5v-80h-190v57q0 88 23 160.5t71.5 130
t131 89.5t194.5 32q108 0 185 -28t119.5 -80t61.5 -116t19 -147v-981h-186zM162 1540l645 152l20 -80l-645 -150zM248 334q0 -91 46 -140t138 -49q122 0 196 103.5t74 283.5v246q-4 -13 -11.5 -25.5t-14.5 -21.5t-22 -21t-23 -18.5t-28.5 -19t-28 -16.5t-33 -18t-31.5 -17
l-86 -46q-85 -44 -130.5 -101.5t-45.5 -139.5z" />
    <glyph glyph-name="acircumflex" unicode="&#xe2;" horiz-adv-x="993" 
d="M705 0v195q-45 -110 -132.5 -162.5t-201.5 -52.5q-143 0 -228.5 83t-85.5 248q0 263 293 400l96 45q37 18 53 26t49.5 26.5t50 31t40 33.5t35 39.5t20 43.5t8.5 52v18q0 77 -46 122.5t-148 45.5q-111 0 -171.5 -57.5t-60.5 -173.5v-80h-190v57q0 88 23 160.5t71.5 130
t131 89.5t194.5 32q108 0 185 -28t119.5 -80t61.5 -116t19 -147v-981h-186zM182 1458l244 238h143l240 -238h-139l-172 174l-176 -174h-140zM248 334q0 -91 46 -140t138 -49q122 0 196 103.5t74 283.5v246q-4 -13 -11.5 -25.5t-14.5 -21.5t-22 -21t-23 -18.5t-28.5 -19
t-28 -16.5t-33 -18t-31.5 -17l-86 -46q-85 -44 -130.5 -101.5t-45.5 -139.5z" />
    <glyph glyph-name="atilde" unicode="&#xe3;" horiz-adv-x="993" 
d="M705 0v195q-45 -110 -132.5 -162.5t-201.5 -52.5q-143 0 -228.5 83t-85.5 248q0 263 293 400l96 45q37 18 53 26t49.5 26.5t50 31t40 33.5t35 39.5t20 43.5t8.5 52v18q0 77 -46 122.5t-148 45.5q-111 0 -171.5 -57.5t-60.5 -173.5v-80h-190v57q0 88 23 160.5t71.5 130
t131 89.5t194.5 32q108 0 185 -28t119.5 -80t61.5 -116t19 -147v-981h-186zM164 1475q0 59 15 101.5t42 65.5t58 33.5t69 10.5q47 0 83.5 -15.5t59.5 -37.5t43 -44t45.5 -37.5t55.5 -15.5q88 0 88 127h102q0 -115 -52.5 -163t-133.5 -48q-48 0 -85.5 15.5t-60.5 37.5
t-42.5 44t-43.5 37.5t-53 15.5q-88 0 -88 -127h-102zM248 334q0 -91 46 -140t138 -49q122 0 196 103.5t74 283.5v246q-4 -13 -11.5 -25.5t-14.5 -21.5t-22 -21t-23 -18.5t-28.5 -19t-28 -16.5t-33 -18t-31.5 -17l-86 -46q-85 -44 -130.5 -101.5t-45.5 -139.5z" />
    <glyph glyph-name="adieresis" unicode="&#xe4;" horiz-adv-x="993" 
d="M705 0v195q-45 -110 -132.5 -162.5t-201.5 -52.5q-143 0 -228.5 83t-85.5 248q0 263 293 400l96 45q37 18 53 26t49.5 26.5t50 31t40 33.5t35 39.5t20 43.5t8.5 52v18q0 77 -46 122.5t-148 45.5q-111 0 -171.5 -57.5t-60.5 -173.5v-80h-190v57q0 88 23 160.5t71.5 130
t131 89.5t194.5 32q108 0 185 -28t119.5 -80t61.5 -116t19 -147v-981h-186zM197 1556q0 50 30.5 77.5t77.5 27.5q46 0 78.5 -27.5t32.5 -77.5q0 -45 -33 -72.5t-78 -27.5q-46 0 -77 27t-31 73zM248 334q0 -91 46 -140t138 -49q122 0 196 103.5t74 283.5v246
q-4 -13 -11.5 -25.5t-14.5 -21.5t-22 -21t-23 -18.5t-28.5 -19t-28 -16.5t-33 -18t-31.5 -17l-86 -46q-85 -44 -130.5 -101.5t-45.5 -139.5zM575 1556q0 50 31 77.5t78 27.5q46 0 78.5 -27.5t32.5 -77.5q0 -45 -33 -72.5t-78 -27.5q-46 0 -77.5 27t-31.5 73z" />
    <glyph glyph-name="aring" unicode="&#xe5;" horiz-adv-x="993" 
d="M705 0v195q-45 -110 -132.5 -162.5t-201.5 -52.5q-143 0 -228.5 83t-85.5 248q0 263 293 400l96 45q37 18 53 26t49.5 26.5t50 31t40 33.5t35 39.5t20 43.5t8.5 52v18q0 77 -46 122.5t-148 45.5q-111 0 -171.5 -57.5t-60.5 -173.5v-80h-190v57q0 88 23 160.5t71.5 130
t131 89.5t194.5 32q108 0 185 -28t119.5 -80t61.5 -116t19 -147v-981h-186zM248 334q0 -91 46 -140t138 -49q122 0 196 103.5t74 283.5v246q-4 -13 -11.5 -25.5t-14.5 -21.5t-22 -21t-23 -18.5t-28.5 -19t-28 -16.5t-33 -18t-31.5 -17l-86 -46q-85 -44 -130.5 -101.5
t-45.5 -139.5zM330 1589q0 71 49.5 118.5t116.5 47.5t116.5 -47.5t49.5 -118.5t-49.5 -118.5t-116.5 -47.5t-116.5 47.5t-49.5 118.5zM414 1589q0 -37 22 -59.5t60 -22.5t60 22.5t22 59.5t-22 59.5t-60 22.5t-60 -22.5t-22 -59.5z" />
    <glyph glyph-name="ae" unicode="&#xe6;" horiz-adv-x="1536" 
d="M393 -20q-159 0 -250.5 87t-91.5 255q0 84 23 149.5t71.5 116t103.5 86.5t140 78l90 28q45 21 74 39.5t57.5 46t42 63.5t13.5 83q0 85 -48.5 134.5t-140.5 49.5q-198 0 -198 -256v-49h-189v43q0 53 9.5 105.5t35.5 110.5t67 101.5t110.5 72t158.5 28.5q209 0 295 -150
q101 150 305 150q190 0 289.5 -120t99.5 -349v-252h-618v-178q0 -316 217 -316q97 0 148 63.5t55 205.5v34h194v-34q-8 -202 -105.5 -314t-281.5 -112q-227 0 -326 186q-112 -186 -350 -186zM242 326q0 -83 47 -138t139 -55q101 0 165.5 57t72.5 152v401
q-12 -21 -41.5 -43.5t-46.5 -31.5t-66 -35l-100 -45q-170 -92 -170 -262zM842 774h426v125q-1 159 -54.5 227t-154.5 68q-106 0 -161.5 -74t-55.5 -241v-105z" />
    <glyph glyph-name="ccedilla" unicode="&#xe7;" horiz-adv-x="974" 
d="M717 926q-3 143 -57 205.5t-160 62.5q-115 0 -173.5 -70t-58.5 -229v-459q0 -159 58.5 -229t173.5 -70q107 0 160.5 63t56.5 206v126h192l-2 -102q-10 -422 -362 -448l-29 -113q223 30 223 -127q0 -89 -86.5 -127.5t-287.5 -38.5l2 86q143 0 200.5 15t57.5 63
q0 51 -56.5 60t-165.5 -9l48 191q-188 13 -281.5 136t-93.5 343v409q0 234 104.5 358t317.5 124q204 0 305 -116.5t106 -334.5v-102h-192v127z" />
    <glyph glyph-name="egrave" unicode="&#xe8;" horiz-adv-x="985" 
d="M840 1532l-21 -78l-669 150l20 79zM76 461v409q0 234 105 358t319 124q409 0 409 -478v-243h-641v-195q0 -159 58.5 -229t173.5 -70q103 0 155.5 58t55.5 192v55h194v-28q-13 -434 -405 -434q-213 0 -318.5 123.5t-105.5 357.5zM268 772h449v146q-1 151 -56.5 213.5
t-162.5 62.5q-114 0 -172 -69.5t-58 -229.5v-123z" />
    <glyph glyph-name="eacute" unicode="&#xe9;" horiz-adv-x="985" 
d="M182 1462l-20 78l645 152l20 -80zM76 461v409q0 234 105 358t319 124q409 0 409 -478v-243h-641v-195q0 -159 58.5 -229t173.5 -70q103 0 155.5 58t55.5 192v55h194v-28q-13 -434 -405 -434q-213 0 -318.5 123.5t-105.5 357.5zM268 772h449v146q-1 151 -56.5 213.5
t-162.5 62.5q-114 0 -172 -69.5t-58 -229.5v-123z" />
    <glyph glyph-name="ecircumflex" unicode="&#xea;" horiz-adv-x="985" 
d="M182 1458l244 238h143l240 -238h-139l-172 174l-176 -174h-140zM76 461v409q0 234 105 358t319 124q409 0 409 -478v-243h-641v-195q0 -159 58.5 -229t173.5 -70q103 0 155.5 58t55.5 192v55h194v-28q-13 -434 -405 -434q-213 0 -318.5 123.5t-105.5 357.5zM268 772h449
v146q-1 151 -56.5 213.5t-162.5 62.5q-114 0 -172 -69.5t-58 -229.5v-123z" />
    <glyph glyph-name="edieresis" unicode="&#xeb;" horiz-adv-x="985" 
d="M684 1456q-46 0 -77.5 27t-31.5 73q0 50 31 77.5t78 27.5q46 0 78.5 -27.5t32.5 -77.5q0 -45 -33 -72.5t-78 -27.5zM76 461v409q0 234 105 358t319 124q409 0 409 -478v-243h-641v-195q0 -159 58.5 -229t173.5 -70q103 0 155.5 58t55.5 192v55h194v-28
q-13 -434 -405 -434q-213 0 -318.5 123.5t-105.5 357.5zM197 1556q0 50 30.5 77.5t77.5 27.5q46 0 78.5 -27.5t32.5 -77.5q0 -45 -33 -72.5t-78 -27.5q-46 0 -77 27t-31 73zM268 772h449v146q-1 151 -56.5 213.5t-162.5 62.5q-114 0 -172 -69.5t-58 -229.5v-123z" />
    <glyph glyph-name="igrave" unicode="&#xec;" horiz-adv-x="409" 
d="M111 1331h188v-1331h-188v1331zM-49 1608l29 75l475 -155l-29 -74z" />
    <glyph glyph-name="iacute" unicode="&#xed;" horiz-adv-x="409" 
d="M111 1331h188v-1331h-188v1331zM-47 1528l475 155l29 -75l-475 -154z" />
    <glyph glyph-name="icircumflex" unicode="&#xee;" horiz-adv-x="409" 
d="M111 1331h188v-1331h-188v1331zM2 1454l137 229h133l136 -229h-113l-88 154l-92 -154h-113z" />
    <glyph glyph-name="idieresis" unicode="&#xef;" horiz-adv-x="409" 
d="M111 1331h188v-1331h-188v1331zM-43 1559q0 43 27 68.5t67 25.5q37 0 64.5 -26t27.5 -68q0 -40 -27.5 -66.5t-64.5 -26.5q-39 0 -66.5 26.5t-27.5 66.5zM279 1559q0 43 26.5 68.5t65.5 25.5t66.5 -25.5t27.5 -68.5q0 -40 -28 -66.5t-66 -26.5q-39 0 -65.5 26t-26.5 67z
" />
    <glyph glyph-name="eth" unicode="&#xf0;" horiz-adv-x="970" 
d="M485 -20q-419 0 -419 452v170q0 193 94 311.5t278 118.5q176 0 256 -129q-44 253 -211 414l-350 -189v125l260 140q-106 77 -252 143l60 141q212 -83 354 -198l303 161v-122l-219 -117q133 -141 195.5 -329.5t62.5 -436.5v-154q0 -267 -104 -384t-308 -117zM258 424
q0 -156 54.5 -221.5t170.5 -65.5q121 0 172.5 68t51.5 221v162q0 71 -12.5 124t-32 83.5t-49 48.5t-58 24t-63.5 6q-120 0 -177 -64t-57 -212v-174z" />
    <glyph glyph-name="ntilde" unicode="&#xf1;" 
d="M299 1331v-166q38 77 112.5 132t192.5 55q314 0 314 -408v-944h-189v934q0 131 -47 195.5t-150 64.5q-59 0 -104 -21t-71 -56.5t-40 -76t-18 -86.5v-954h-188v1331h188zM186 1475q0 113 52 162t133 49q47 0 83.5 -15.5t59.5 -37.5t43 -44t45 -37.5t55 -15.5q88 0 88 127
h103q0 -115 -52.5 -163t-133.5 -48q-48 0 -85.5 15.5t-60.5 37.5t-42.5 44t-43.5 37.5t-53 15.5q-88 0 -88 -127h-103z" />
    <glyph glyph-name="ograve" unicode="&#xf2;" horiz-adv-x="989" 
d="M494 -20q-209 0 -313.5 123.5t-104.5 357.5v409q0 233 104 357.5t314 124.5q211 0 314 -124t103 -358v-409q0 -234 -103.5 -357.5t-313.5 -123.5zM147 1604l21 79l670 -151l-21 -78zM268 436q0 -158 57.5 -228.5t168.5 -70.5q112 0 169.5 70t57.5 229v459
q0 159 -57.5 229t-169.5 70q-111 0 -168.5 -70.5t-57.5 -228.5v-459z" />
    <glyph glyph-name="oacute" unicode="&#xf3;" horiz-adv-x="989" 
d="M494 -20q-209 0 -313.5 123.5t-104.5 357.5v409q0 233 104 357.5t314 124.5q211 0 314 -124t103 -358v-409q0 -234 -103.5 -357.5t-313.5 -123.5zM160 1540l645 152l20 -80l-645 -150zM268 436q0 -158 57.5 -228.5t168.5 -70.5q112 0 169.5 70t57.5 229v459
q0 159 -57.5 229t-169.5 70q-111 0 -168.5 -70.5t-57.5 -228.5v-459z" />
    <glyph glyph-name="ocircumflex" unicode="&#xf4;" horiz-adv-x="989" 
d="M494 -20q-209 0 -313.5 123.5t-104.5 357.5v409q0 233 104 357.5t314 124.5q211 0 314 -124t103 -358v-409q0 -234 -103.5 -357.5t-313.5 -123.5zM180 1458l244 238h143l240 -238h-139l-172 174l-177 -174h-139zM268 436q0 -158 57.5 -228.5t168.5 -70.5q112 0 169.5 70
t57.5 229v459q0 159 -57.5 229t-169.5 70q-111 0 -168.5 -70.5t-57.5 -228.5v-459z" />
    <glyph glyph-name="otilde" unicode="&#xf5;" horiz-adv-x="989" 
d="M494 -20q-209 0 -313.5 123.5t-104.5 357.5v409q0 233 104 357.5t314 124.5q211 0 314 -124t103 -358v-409q0 -234 -103.5 -357.5t-313.5 -123.5zM162 1475q0 59 15 101.5t42 65.5t58 33.5t69 10.5q47 0 83.5 -15.5t59.5 -37.5t43 -44t45.5 -37.5t55.5 -15.5q88 0 88 127
h102q0 -115 -52.5 -163t-133.5 -48q-48 0 -85.5 15.5t-60.5 37.5t-42.5 44t-43.5 37.5t-53 15.5q-88 0 -88 -127h-102zM268 436q0 -158 57.5 -228.5t168.5 -70.5q112 0 169.5 70t57.5 229v459q0 159 -57.5 229t-169.5 70q-111 0 -168.5 -70.5t-57.5 -228.5v-459z" />
    <glyph glyph-name="odieresis" unicode="&#xf6;" horiz-adv-x="989" 
d="M494 -20q-209 0 -313.5 123.5t-104.5 357.5v409q0 233 104 357.5t314 124.5q211 0 314 -124t103 -358v-409q0 -234 -103.5 -357.5t-313.5 -123.5zM195 1556q0 50 30.5 77.5t77.5 27.5q46 0 78.5 -27.5t32.5 -77.5q0 -45 -33 -72.5t-78 -27.5q-46 0 -77 27t-31 73z
M268 436q0 -158 57.5 -228.5t168.5 -70.5q112 0 169.5 70t57.5 229v459q0 159 -57.5 229t-169.5 70q-111 0 -168.5 -70.5t-57.5 -228.5v-459zM573 1556q0 50 31 77.5t78 27.5q46 0 78.5 -27.5t32.5 -77.5q0 -45 -33 -72.5t-78 -27.5q-46 0 -77.5 27t-31.5 73z" />
    <glyph glyph-name="divide" unicode="&#xf7;" horiz-adv-x="1142" 
d="M571 1010q-26 0 -43.5 17.5t-17.5 43.5q0 25 17.5 43.5t43.5 18.5q25 0 43.5 -18.5t18.5 -43.5q0 -26 -18.5 -43.5t-43.5 -17.5zM70 780v86h1007v-86h-1007zM510 575q0 25 17.5 43.5t43.5 18.5q25 0 43.5 -18.5t18.5 -43.5q0 -26 -18.5 -43.5t-43.5 -17.5
q-26 0 -43.5 17.5t-17.5 43.5z" />
    <glyph glyph-name="oslash" unicode="&#xf8;" horiz-adv-x="989" 
d="M494 -20q-129 0 -218 47l-83 -201h-105l109 258q-121 121 -121 377v409q0 233 104 357.5t314 124.5q130 0 219 -47l84 200h104l-108 -260q118 -121 118 -375v-409q0 -234 -103.5 -357.5t-313.5 -123.5zM268 436q0 -77 17 -143l360 852q-55 49 -151 49
q-111 0 -168.5 -70.5t-57.5 -228.5v-459zM344 186q55 -49 150 -49q112 0 169.5 70t57.5 229v459q0 81 -16 143z" />
    <glyph glyph-name="ugrave" unicode="&#xf9;" 
d="M723 0v170q-17 -36 -41 -66.5t-60.5 -60t-89.5 -46.5t-116 -17q-314 0 -314 407v944h189v-934q0 -131 46.5 -195.5t149.5 -64.5q53 0 95 18t68 46t43 66t23.5 75t6.5 76v913h188v-1331h-188zM154 1604l20 79l670 -151l-21 -78z" />
    <glyph glyph-name="uacute" unicode="&#xfa;" 
d="M723 0v170q-17 -36 -41 -66.5t-60.5 -60t-89.5 -46.5t-116 -17q-314 0 -314 407v944h189v-934q0 -131 46.5 -195.5t149.5 -64.5q53 0 95 18t68 46t43 66t23.5 75t6.5 76v913h188v-1331h-188zM166 1540l645 152l20 -80l-645 -150z" />
    <glyph glyph-name="ucircumflex" unicode="&#xfb;" 
d="M723 0v170q-17 -36 -41 -66.5t-60.5 -60t-89.5 -46.5t-116 -17q-314 0 -314 407v944h189v-934q0 -131 46.5 -195.5t149.5 -64.5q53 0 95 18t68 46t43 66t23.5 75t6.5 76v913h188v-1331h-188zM186 1458l244 238h143l240 -238h-139l-172 174l-176 -174h-140z" />
    <glyph glyph-name="udieresis" unicode="&#xfc;" 
d="M723 0v170q-17 -36 -41 -66.5t-60.5 -60t-89.5 -46.5t-116 -17q-314 0 -314 407v944h189v-934q0 -131 46.5 -195.5t149.5 -64.5q53 0 95 18t68 46t43 66t23.5 75t6.5 76v913h188v-1331h-188zM201 1556q0 50 30.5 77.5t77.5 27.5q46 0 78.5 -27.5t32.5 -77.5
q0 -45 -33 -72.5t-78 -27.5q-46 0 -77 27t-31 73zM580 1556q0 50 30.5 77.5t77.5 27.5q46 0 78.5 -27.5t32.5 -77.5q0 -45 -33 -72.5t-78 -27.5q-46 0 -77 27t-31 73z" />
    <glyph glyph-name="yacute" unicode="&#xfd;" horiz-adv-x="1017" 
d="M721 12v158q-17 -36 -41 -66.5t-60.5 -60t-89.5 -46.5t-116 -17q-314 0 -314 407v944h189v-934q0 -131 46.5 -195.5t149.5 -64.5q53 0 95 18t68 46t43 66t23.5 75t6.5 76v913h188v-1321q0 -117 -17 -195t-59 -134t-113.5 -81.5t-180.5 -25.5h-400v160h365
q126 0 171.5 60.5t45.5 217.5zM168 1540l645 152l21 -80l-646 -150z" />
    <glyph glyph-name="thorn" unicode="&#xfe;" horiz-adv-x="1024" 
d="M299 -426h-188v2081h188v-494q16 35 39.5 65t59.5 59.5t88.5 47t115.5 17.5q163 0 252.5 -112t89.5 -316v-527q0 -197 -90 -307.5t-254 -110.5q-191 0 -301 175v-578zM299 422q0 -122 61 -204.5t177 -82.5q215 0 215 285v487q0 283 -215 283q-79 0 -134 -41t-79.5 -104
t-24.5 -142v-481z" />
    <glyph glyph-name="ydieresis" unicode="&#xff;" horiz-adv-x="1017" 
d="M721 12v158q-17 -36 -41 -66.5t-60.5 -60t-89.5 -46.5t-116 -17q-314 0 -314 407v944h189v-934q0 -131 46.5 -195.5t149.5 -64.5q53 0 95 18t68 46t43 66t23.5 75t6.5 76v913h188v-1321q0 -117 -17 -195t-59 -134t-113.5 -81.5t-180.5 -25.5h-400v160h365
q126 0 171.5 60.5t45.5 217.5zM203 1556q0 50 30.5 77.5t77.5 27.5q46 0 78.5 -27.5t32.5 -77.5q0 -45 -33 -72.5t-78 -27.5q-46 0 -77 27t-31 73zM582 1556q0 50 30.5 77.5t77.5 27.5q46 0 78.5 -27.5t32.5 -77.5q0 -45 -33 -72.5t-78 -27.5q-46 0 -77 27t-31 73z" />
    <glyph glyph-name="Amacron" unicode="&#x100;" horiz-adv-x="1007" 
d="M27 0l342 1655h268l342 -1655h-201l-63 336h-424l-64 -336h-200zM158 1851v82h690v-82h-690zM322 500h362l-178 946l-4 14l-2 -10z" />
    <glyph glyph-name="amacron" unicode="&#x101;" horiz-adv-x="993" 
d="M705 0v195q-45 -110 -132.5 -162.5t-201.5 -52.5q-143 0 -228.5 83t-85.5 248q0 263 293 400l96 45q37 18 53 26t49.5 26.5t50 31t40 33.5t35 39.5t20 43.5t8.5 52v18q0 77 -46 122.5t-148 45.5q-111 0 -171.5 -57.5t-60.5 -173.5v-80h-190v57q0 88 23 160.5t71.5 130
t131 89.5t194.5 32q108 0 185 -28t119.5 -80t61.5 -116t19 -147v-981h-186zM150 1528v82h690v-82h-690zM248 334q0 -91 46 -140t138 -49q122 0 196 103.5t74 283.5v246q-4 -13 -11.5 -25.5t-14.5 -21.5t-22 -21t-23 -18.5t-28.5 -19t-28 -16.5t-33 -18t-31.5 -17l-86 -46
q-85 -44 -130.5 -101.5t-45.5 -139.5z" />
    <glyph glyph-name="Abreve" unicode="&#x102;" horiz-adv-x="1007" 
d="M27 0l342 1655h268l342 -1655h-201l-63 336h-424l-64 -336h-200zM170 2009h102q0 -42 20.5 -72t56 -45.5t74 -22.5t83.5 -7q44 0 82 7t72 22.5t53.5 45.5t19.5 72h103q0 -231 -330 -231q-70 0 -127.5 11t-106 36.5t-75.5 72t-27 111.5zM322 500h362l-178 946l-4 14
l-2 -10z" />
    <glyph glyph-name="abreve" unicode="&#x103;" horiz-adv-x="993" 
d="M705 0v195q-45 -110 -132.5 -162.5t-201.5 -52.5q-143 0 -228.5 83t-85.5 248q0 263 293 400l96 45q37 18 53 26t49.5 26.5t50 31t40 33.5t35 39.5t20 43.5t8.5 52v18q0 77 -46 122.5t-148 45.5q-111 0 -171.5 -57.5t-60.5 -173.5v-80h-190v57q0 88 23 160.5t71.5 130
t131 89.5t194.5 32q108 0 185 -28t119.5 -80t61.5 -116t19 -147v-981h-186zM162 1686h102q0 -55 37.5 -90t86.5 -46.5t110 -11.5q44 0 82 7t72 23t53.5 46t19.5 72h102q0 -232 -329 -232q-55 0 -102.5 6.5t-91.5 23.5t-74.5 42.5t-49 66.5t-18.5 93zM248 334q0 -91 46 -140
t138 -49q122 0 196 103.5t74 283.5v246q-4 -13 -11.5 -25.5t-14.5 -21.5t-22 -21t-23 -18.5t-28.5 -19t-28 -16.5t-33 -18t-31.5 -17l-86 -46q-85 -44 -130.5 -101.5t-45.5 -139.5z" />
    <glyph glyph-name="Aogonek" unicode="&#x104;" horiz-adv-x="1007" 
d="M27 0l342 1655h268l342 -1655h2q-108 -36 -160.5 -82.5t-52.5 -112.5q0 -63 56 -91.5t186 -28.5h24l-82 -95h-22q-125 0 -199 47.5t-74 139.5q0 47 19.5 84.5t55.5 63.5t73 43t86 32h-113l-63 336h-424l-64 -336h-200zM322 500h362l-178 946l-4 14l-2 -10z" />
    <glyph glyph-name="aogonek" unicode="&#x105;" horiz-adv-x="993" 
d="M705 0v195q-45 -110 -132.5 -162.5t-201.5 -52.5q-143 0 -228.5 83t-85.5 248q0 263 293 400l96 45q37 18 53 26t49.5 26.5t50 31t40 33.5t35 39.5t20 43.5t8.5 52v18q0 77 -46 122.5t-148 45.5q-111 0 -171.5 -57.5t-60.5 -173.5v-80h-190v57q0 88 23 160.5t71.5 130
t131 89.5t194.5 32q108 0 185 -28t119.5 -80t61.5 -116t19 -147v-981q-108 -36 -160.5 -82.5t-52.5 -112.5q0 -63 56 -91.5t186 -28.5h24l-82 -95h-22q-125 0 -199 47.5t-74 139.5q0 47 19.5 84.5t55.5 63.5t73 43t86 32h-96zM248 334q0 -91 46 -140t138 -49
q122 0 196 103.5t74 283.5v246q-4 -13 -11.5 -25.5t-14.5 -21.5t-22 -21t-23 -18.5t-28.5 -19t-28 -16.5t-33 -18t-31.5 -17l-86 -46q-85 -44 -130.5 -101.5t-45.5 -139.5z" />
    <glyph glyph-name="Cacute" unicode="&#x106;" horiz-adv-x="1101" 
d="M559 -20q-238 0 -355.5 140t-117.5 390v637q0 248 118 388t357 140q228 0 345 -130.5t120 -360.5l2 -205h-201l-2 242q-3 292 -264 292q-276 0 -276 -327v-715q0 -170 70 -250t206 -80q261 0 264 295l2 242h201l-2 -205q-3 -232 -120 -362.5t-347 -130.5zM223 1864
l645 151l21 -80l-645 -149z" />
    <glyph glyph-name="cacute" unicode="&#x107;" horiz-adv-x="974" 
d="M717 926q-3 143 -57 205.5t-160 62.5q-115 0 -173.5 -70t-58.5 -229v-459q0 -159 58.5 -229t173.5 -70q107 0 160.5 63t56.5 206v126h192l-2 -102q-10 -450 -409 -450q-212 0 -317 123.5t-105 357.5v409q0 234 104.5 358t317.5 124q204 0 305 -116.5t106 -334.5v-102
h-192v127zM166 1540l645 152l20 -80l-645 -150z" />
    <glyph glyph-name="Ccircumflex" unicode="&#x108;" horiz-adv-x="1101" 
d="M559 -20q-238 0 -355.5 140t-117.5 390v637q0 248 118 388t357 140q228 0 345 -130.5t120 -360.5l2 -205h-201l-2 242q-3 292 -264 292q-276 0 -276 -327v-715q0 -170 70 -250t206 -80q261 0 264 295l2 242h201l-2 -205q-3 -232 -120 -362.5t-347 -130.5zM242 1782
l243 237h144l239 -237h-139l-172 174l-176 -174h-139z" />
    <glyph glyph-name="ccircumflex" unicode="&#x109;" horiz-adv-x="974" 
d="M717 926q-3 143 -57 205.5t-160 62.5q-115 0 -173.5 -70t-58.5 -229v-459q0 -159 58.5 -229t173.5 -70q107 0 160.5 63t56.5 206v126h192l-2 -102q-10 -450 -409 -450q-212 0 -317 123.5t-105 357.5v409q0 234 104.5 358t317.5 124q204 0 305 -116.5t106 -334.5v-102
h-192v127zM186 1458l244 238h143l240 -238h-139l-172 174l-176 -174h-140z" />
    <glyph glyph-name="Cdotaccent" unicode="&#x10a;" horiz-adv-x="1101" 
d="M559 -20q-238 0 -355.5 140t-117.5 390v637q0 248 118 388t357 140q228 0 345 -130.5t120 -360.5l2 -205h-201l-2 242q-3 292 -264 292q-276 0 -276 -327v-715q0 -170 70 -250t206 -80q261 0 264 295l2 242h201l-2 -205q-3 -232 -120 -362.5t-347 -130.5zM440 1886
q0 46 31.5 77.5t85.5 31.5q55 0 87 -31.5t32 -77.5q0 -45 -32 -75.5t-87 -30.5q-54 0 -85.5 30.5t-31.5 75.5z" />
    <glyph glyph-name="cdotaccent" unicode="&#x10b;" horiz-adv-x="974" 
d="M717 926q-3 143 -57 205.5t-160 62.5q-115 0 -173.5 -70t-58.5 -229v-459q0 -159 58.5 -229t173.5 -70q107 0 160.5 63t56.5 206v126h192l-2 -102q-10 -450 -409 -450q-212 0 -317 123.5t-105 357.5v409q0 234 104.5 358t317.5 124q204 0 305 -116.5t106 -334.5v-102
h-192v127zM371 1565q0 49 34 79.5t95 30.5t95 -30.5t34 -79.5q0 -46 -34 -76.5t-95 -30.5t-95 30.5t-34 76.5z" />
    <glyph glyph-name="Ccaron" unicode="&#x10c;" horiz-adv-x="1101" 
d="M559 -20q-238 0 -355.5 140t-117.5 390v637q0 248 118 388t357 140q228 0 345 -130.5t120 -360.5l2 -205h-201l-2 242q-3 292 -264 292q-276 0 -276 -327v-715q0 -170 70 -250t206 -80q261 0 264 295l2 242h201l-2 -205q-3 -232 -120 -362.5t-347 -130.5zM225 2015h144
l188 -174l184 174h144l-256 -237h-144z" />
    <glyph glyph-name="ccaron" unicode="&#x10d;" horiz-adv-x="974" 
d="M717 926q-3 143 -57 205.5t-160 62.5q-115 0 -173.5 -70t-58.5 -229v-459q0 -159 58.5 -229t173.5 -70q107 0 160.5 63t56.5 206v126h192l-2 -102q-10 -450 -409 -450q-212 0 -317 123.5t-105 357.5v409q0 234 104.5 358t317.5 124q204 0 305 -116.5t106 -334.5v-102
h-192v127zM170 1692h143l189 -174l184 174h143l-256 -238h-143z" />
    <glyph glyph-name="Dcaron" unicode="&#x10e;" horiz-adv-x="1118" 
d="M117 0v1655h405q130 0 220.5 -24t157.5 -82t98.5 -159.5t31.5 -252.5v-619q0 -150 -32 -251.5t-98.5 -160t-157 -82.5t-220.5 -24h-405zM205 2015h143l189 -174l184 174h143l-256 -237h-143zM313 156h211q116 0 180 29t95.5 103t31.5 208v663q0 197 -68 268.5t-241 71.5
h-209v-1343z" />
    <glyph glyph-name="dcaron" unicode="&#x10f;" horiz-adv-x="1112" 
d="M723 1655h188v-1655h-188v164q-16 -34 -39.5 -64t-59.5 -58.5t-88 -45t-114 -16.5q-163 0 -252.5 112t-89.5 316v526q0 197 90 307.5t254 110.5q189 0 299 -170v473zM272 422q0 -283 215 -283q105 0 165.5 69t70.5 175v567q-10 105 -70.5 174.5t-165.5 69.5
q-215 0 -215 -285v-487zM973 1182l53 473h125l-90 -473h-88z" />
    <glyph glyph-name="Dcroat" unicode="&#x110;" horiz-adv-x="1179" 
d="M178 0v782h-151v111h151v762h406q130 0 220.5 -24t157.5 -82t98.5 -159.5t31.5 -252.5v-619q0 -150 -32 -251.5t-98.5 -160t-157 -82.5t-220.5 -24h-406zM375 156h211q116 0 180 29t95.5 103t31.5 208v663q0 197 -68 268.5t-241 71.5h-209v-606h291v-111h-291v-626z" />
    <glyph glyph-name="dcroat" unicode="&#x111;" 
d="M723 1655h188v-109h160v-106h-160v-1440h-188v164q-16 -34 -39.5 -64t-59.5 -58.5t-88 -45t-114 -16.5q-163 0 -252.5 112t-89.5 316v526q0 197 90 307.5t254 110.5q189 0 299 -170v258h-332v106h332v109zM272 422q0 -283 215 -283q105 0 165.5 69t70.5 175v567
q-10 105 -70.5 174.5t-165.5 69.5q-215 0 -215 -285v-487z" />
    <glyph glyph-name="Emacron" unicode="&#x112;" horiz-adv-x="929" 
d="M117 0v1655h741v-164h-545v-582h521v-164h-521v-581h545v-164h-741zM143 1851v82h691v-82h-691z" />
    <glyph glyph-name="emacron" unicode="&#x113;" horiz-adv-x="985" 
d="M150 1528v82h690v-82h-690zM76 461v409q0 234 105 358t319 124q409 0 409 -478v-243h-641v-195q0 -159 58.5 -229t173.5 -70q103 0 155.5 58t55.5 192v55h194v-28q-13 -434 -405 -434q-213 0 -318.5 123.5t-105.5 357.5zM268 772h449v146q-1 151 -56.5 213.5t-162.5 62.5
q-114 0 -172 -69.5t-58 -229.5v-123z" />
    <glyph glyph-name="Edotaccent" unicode="&#x116;" horiz-adv-x="929" 
d="M117 0v1655h741v-164h-545v-582h521v-164h-521v-581h545v-164h-741zM373 1886q0 46 31 77.5t85 31.5q55 0 87 -31.5t32 -77.5q0 -45 -32 -75.5t-87 -30.5q-54 0 -85 30.5t-31 75.5z" />
    <glyph glyph-name="edotaccent" unicode="&#x117;" horiz-adv-x="985" 
d="M496 1458q-61 0 -95 30.5t-34 76.5q0 49 34 79.5t95 30.5t95 -30.5t34 -79.5q0 -46 -34 -76.5t-95 -30.5zM76 461v409q0 234 105 358t319 124q409 0 409 -478v-243h-641v-195q0 -159 58.5 -229t173.5 -70q103 0 155.5 58t55.5 192v55h194v-28q-13 -434 -405 -434
q-213 0 -318.5 123.5t-105.5 357.5zM268 772h449v146q-1 151 -56.5 213.5t-162.5 62.5q-114 0 -172 -69.5t-58 -229.5v-123z" />
    <glyph glyph-name="Eogonek" unicode="&#x118;" horiz-adv-x="929" 
d="M117 0v1655h741v-164h-545v-582h521v-164h-521v-581h545v-164h2q-108 -36 -160.5 -82.5t-52.5 -112.5q0 -63 56 -91.5t186 -28.5h24l-82 -95h-22q-125 0 -198.5 47.5t-73.5 139.5q0 47 19.5 84.5t55 63.5t72.5 43t86 32h-653z" />
    <glyph glyph-name="eogonek" unicode="&#x119;" horiz-adv-x="985" 
d="M598 -410q-125 0 -198.5 47.5t-73.5 139.5q0 133 174 203q-213 0 -318.5 123.5t-105.5 357.5v409q0 234 105 358t319 124q409 0 409 -478v-243h-641v-195q0 -159 58.5 -229t173.5 -70q103 0 155.5 58t55.5 192v55h194v-28q-9 -350 -268 -418q-103 -36 -152 -81.5
t-49 -109.5q0 -63 56 -91.5t186 -28.5h24l-81 -95h-23zM268 772h449v146q-1 151 -56.5 213.5t-162.5 62.5q-114 0 -172 -69.5t-58 -229.5v-123z" />
    <glyph glyph-name="Ecaron" unicode="&#x11a;" horiz-adv-x="929" 
d="M117 0v1655h741v-164h-545v-582h521v-164h-521v-581h545v-164h-741zM160 2015h143l189 -174l184 174h143l-256 -237h-143z" />
    <glyph glyph-name="ecaron" unicode="&#x11b;" horiz-adv-x="985" 
d="M426 1454l-260 238h143l189 -174l184 174h143l-256 -238h-143zM76 461v409q0 234 105 358t319 124q409 0 409 -478v-243h-641v-195q0 -159 58.5 -229t173.5 -70q103 0 155.5 58t55.5 192v55h194v-28q-13 -434 -405 -434q-213 0 -318.5 123.5t-105.5 357.5zM268 772h449
v146q-1 151 -56.5 213.5t-162.5 62.5q-114 0 -172 -69.5t-58 -229.5v-123z" />
    <glyph glyph-name="Gcircumflex" unicode="&#x11c;" horiz-adv-x="1120" 
d="M532 -20q-216 0 -331 141.5t-115 382.5v643q0 248 118 388t355 140q227 0 344.5 -129t122.5 -356v-160h-201v197q-5 286 -264 286q-137 0 -206.5 -79.5t-69.5 -247.5v-715q0 -167 66.5 -248.5t205.5 -81.5q135 0 200 75.5t68 234.5v235h-301v156h502v-842h-113l-20 172
q-118 -192 -361 -192zM246 1782l243 237h144l239 -237h-139l-172 174l-176 -174h-139z" />
    <glyph glyph-name="gcircumflex" unicode="&#x11d;" horiz-adv-x="1019" 
d="M723 18v146q-16 -34 -39.5 -64t-59.5 -58.5t-88 -45t-114 -16.5q-163 0 -252.5 112t-89.5 316v526q0 197 90 307.5t254 110.5q189 0 299 -170v149h188v-1329q0 -115 -16.5 -191.5t-58 -131.5t-113.5 -80t-182 -25h-404v160h373q124 0 168.5 62t44.5 222zM176 1458
l244 238h143l240 -238h-139l-172 174l-177 -174h-139zM272 422q0 -283 215 -283q105 0 165.5 69t70.5 175v567q-10 105 -70.5 174.5t-165.5 69.5q-215 0 -215 -285v-487z" />
    <glyph glyph-name="Gbreve" unicode="&#x11e;" horiz-adv-x="1120" 
d="M532 -20q-216 0 -331 141.5t-115 382.5v643q0 248 118 388t355 140q227 0 344.5 -129t122.5 -356v-160h-201v197q-5 286 -264 286q-137 0 -206.5 -79.5t-69.5 -247.5v-715q0 -167 66.5 -248.5t205.5 -81.5q135 0 200 75.5t68 234.5v235h-301v156h502v-842h-113l-20 172
q-118 -192 -361 -192zM225 2009h103q0 -55 37 -89.5t86 -46t110 -11.5q44 0 82 7t72 22.5t53.5 45.5t19.5 72h103q0 -231 -330 -231q-70 0 -127.5 11t-106 36.5t-75.5 72t-27 111.5z" />
    <glyph glyph-name="gbreve" unicode="&#x11f;" horiz-adv-x="1019" 
d="M723 18v146q-16 -34 -39.5 -64t-59.5 -58.5t-88 -45t-114 -16.5q-163 0 -252.5 112t-89.5 316v526q0 197 90 307.5t254 110.5q189 0 299 -170v149h188v-1329q0 -115 -16.5 -191.5t-58 -131.5t-113.5 -80t-182 -25h-404v160h373q124 0 168.5 62t44.5 222zM158 1686h102
q0 -55 37.5 -90t86.5 -46.5t110 -11.5q44 0 82 7t72 23t53.5 46t19.5 72h102q0 -232 -329 -232q-55 0 -102.5 6.5t-91.5 23.5t-74.5 42.5t-49 66.5t-18.5 93zM272 422q0 -283 215 -283q105 0 165.5 69t70.5 175v567q-10 105 -70.5 174.5t-165.5 69.5q-215 0 -215 -285v-487z
" />
    <glyph glyph-name="Gdotaccent" unicode="&#x120;" horiz-adv-x="1120" 
d="M532 -20q-216 0 -331 141.5t-115 382.5v643q0 248 118 388t355 140q227 0 344.5 -129t122.5 -356v-160h-201v197q-5 286 -264 286q-137 0 -206.5 -79.5t-69.5 -247.5v-715q0 -167 66.5 -248.5t205.5 -81.5q135 0 200 75.5t68 234.5v235h-301v156h502v-842h-113l-20 172
q-118 -192 -361 -192zM442 1886q0 46 31.5 77.5t85.5 31.5q55 0 87 -31.5t32 -77.5q0 -45 -32 -75.5t-87 -30.5q-54 0 -85.5 30.5t-31.5 75.5z" />
    <glyph glyph-name="gdotaccent" unicode="&#x121;" horiz-adv-x="1019" 
d="M723 18v146q-16 -34 -39.5 -64t-59.5 -58.5t-88 -45t-114 -16.5q-163 0 -252.5 112t-89.5 316v526q0 197 90 307.5t254 110.5q189 0 299 -170v149h188v-1329q0 -115 -16.5 -191.5t-58 -131.5t-113.5 -80t-182 -25h-404v160h373q124 0 168.5 62t44.5 222zM272 422
q0 -283 215 -283q105 0 165.5 69t70.5 175v567q-10 105 -70.5 174.5t-165.5 69.5q-215 0 -215 -285v-487zM362 1565q0 49 34.5 79.5t95.5 30.5t95 -30.5t34 -79.5q0 -46 -34 -76.5t-95 -30.5t-95.5 30.5t-34.5 76.5z" />
    <glyph glyph-name="uni0122" unicode="&#x122;" horiz-adv-x="1120" 
d="M532 -20q-216 0 -331 141.5t-115 382.5v643q0 248 118 388t355 140q227 0 344.5 -129t122.5 -356v-160h-201v197q-5 286 -264 286q-137 0 -206.5 -79.5t-69.5 -247.5v-715q0 -167 66.5 -248.5t205.5 -81.5q135 0 200 75.5t68 234.5v235h-301v156h502v-842h-113l-20 172
q-118 -192 -361 -192zM455 -172q0 42 28.5 71t73.5 29t72.5 -30.5t27.5 -90.5q0 -72 -44 -134t-132 -105v84q101 38 123 121q-27 -35 -65 -35q-34 0 -59 25t-25 65z" />
    <glyph glyph-name="uni0123" unicode="&#x123;" horiz-adv-x="1019" 
d="M723 18v146q-16 -34 -39.5 -64t-59.5 -58.5t-88 -45t-114 -16.5q-163 0 -252.5 112t-89.5 316v526q0 197 90 307.5t254 110.5q189 0 299 -170v149h188v-1329q0 -115 -16.5 -191.5t-58 -131.5t-113.5 -80t-182 -25h-404v160h373q124 0 168.5 62t44.5 222zM272 422
q0 -283 215 -283q105 0 165.5 69t70.5 175v567q-10 105 -70.5 174.5t-165.5 69.5q-215 0 -215 -285v-487zM389 1554q0 72 44 135.5t130 106.5v-84q-98 -37 -121 -121q26 33 66 33q34 0 59 -24.5t25 -65.5t-29 -69.5t-74 -28.5t-72.5 29.5t-27.5 88.5z" />
    <glyph glyph-name="Hcircumflex" unicode="&#x124;" horiz-adv-x="1126" 
d="M813 0v745h-500v-745h-196v1655h196v-746h500v746h197v-1655h-197zM248 1782l244 237h143l239 -237h-139l-172 174l-176 -174h-139z" />
    <glyph glyph-name="hcircumflex" unicode="&#x125;" 
d="M299 1655v-494q38 80 112.5 135.5t194.5 55.5q314 0 314 -408v-944h-189v934q0 131 -46.5 195.5t-149.5 64.5q-53 0 -95 -18t-68 -46t-43 -66t-23.5 -75t-6.5 -76v-913h-188v1655h188zM-113 1782l244 237h143l240 -237h-139l-172 174l-176 -174h-140z" />
    <glyph glyph-name="Hbar" unicode="&#x126;" horiz-adv-x="1247" 
d="M874 0v745h-499v-745h-197v1276h-151v113h151v266h197v-266h499v266h197v-266h148v-113h-148v-1276h-197zM375 909h499v367h-499v-367z" />
    <glyph glyph-name="hbar" unicode="&#x127;" 
d="M299 1655v-127h324v-107h-324v-260q38 80 112.5 135.5t194.5 55.5q314 0 314 -408v-944h-189v934q0 131 -46.5 195.5t-149.5 64.5q-53 0 -95 -18t-68 -46t-43 -66t-23.5 -75t-6.5 -76v-913h-188v1421h-168v107h168v127h188z" />
    <glyph glyph-name="Itilde" unicode="&#x128;" horiz-adv-x="595" 
d="M92 0v176h109v1303h-109v176h412v-176h-109v-1303h109v-176h-412zM-35 1798q0 113 52 162t133 49q47 0 83.5 -15.5t59.5 -37.5t43 -43.5t45 -37t55 -15.5q88 0 88 127h103q0 -114 -53 -162.5t-134 -48.5q-48 0 -85.5 15.5t-60 37t-42 43.5t-43.5 37.5t-53 15.5
q-88 0 -88 -127h-103z" />
    <glyph glyph-name="itilde" unicode="&#x129;" horiz-adv-x="409" 
d="M111 1331h188v-1331h-188v1331zM-127 1475q0 59 15 101.5t42 65.5t58 33.5t69 10.5q47 0 83.5 -15.5t59.5 -37.5t43 -44t45.5 -37.5t55.5 -15.5q88 0 88 127h103q0 -114 -53 -162.5t-134 -48.5q-48 0 -85.5 15.5t-60.5 37.5t-42.5 44t-43.5 37.5t-53 15.5q-88 0 -88 -127
h-102z" />
    <glyph glyph-name="Imacron" unicode="&#x12a;" horiz-adv-x="595" 
d="M92 0v176h109v1303h-109v176h412v-176h-109v-1303h109v-176h-412zM-49 1851v82h690v-82h-690z" />
    <glyph glyph-name="imacron" unicode="&#x12b;" horiz-adv-x="409" 
d="M111 1331h188v-1331h-188v1331zM-47 1528v82h504v-82h-504z" />
    <glyph glyph-name="Iogonek" unicode="&#x12e;" horiz-adv-x="595" 
d="M92 0v176h109v1303h-109v176h412v-176h-109v-1303h109v-176q-108 -36 -160.5 -82.5t-52.5 -112.5q0 -64 56 -92t185 -28h25l-82 -95h-22q-125 0 -199 47.5t-74 139.5q0 47 19.5 84.5t55.5 63.5t73 43t86 32h-322z" />
    <glyph glyph-name="iogonek" unicode="&#x12f;" horiz-adv-x="409" 
d="M111 1331h188v-1331q-108 -36 -160.5 -82.5t-52.5 -112.5q0 -63 56 -91.5t186 -28.5h24l-82 -95h-22q-125 0 -199 47.5t-74 139.5q0 47 19.5 84.5t55.5 63.5t73 43t86 32h-98v1331zM76 1565q0 49 34 79.5t95 30.5t95 -30.5t34 -79.5q0 -46 -34 -76.5t-95 -30.5t-95 30.5
t-34 76.5z" />
    <glyph glyph-name="Idotaccent" unicode="&#x130;" horiz-adv-x="595" 
d="M92 0v176h109v1303h-109v176h412v-176h-109v-1303h109v-176h-412zM180 1886q0 46 31.5 77.5t85.5 31.5q55 0 87 -31.5t32 -77.5q0 -45 -32 -75.5t-87 -30.5q-54 0 -85.5 30.5t-31.5 75.5z" />
    <glyph glyph-name="dotlessi" unicode="&#x131;" horiz-adv-x="409" 
d="M111 1331h188v-1331h-188v1331z" />
    <glyph glyph-name="IJ" unicode="&#x132;" horiz-adv-x="1613" 
d="M92 0v176h109v1303h-109v176h412v-176h-109v-1303h109v-176h-412zM643 479v119h199v-158q0 -164 58 -231.5t173 -67.5q114 0 173 66.5t59 228.5v1219h198v-1180q0 -495 -430 -495q-221 0 -325.5 126t-104.5 373z" />
    <glyph glyph-name="ij" unicode="&#x133;" horiz-adv-x="770" 
d="M111 1331h188v-1331h-188v1331zM76 1565q0 49 34 79.5t95 30.5t95 -30.5t34 -79.5q0 -46 -34 -76.5t-95 -30.5t-95 30.5t-34 76.5zM166 -426v160h108q116 0 156.5 55t40.5 203v1339h188v-1356q0 -110 -16.5 -183t-56.5 -123t-107.5 -72.5t-169.5 -22.5h-143zM436 1565
q0 49 34 79.5t95 30.5t95 -30.5t34 -79.5q0 -46 -34 -76.5t-95 -30.5t-95 30.5t-34 76.5z" />
    <glyph glyph-name="Jcircumflex" unicode="&#x134;" horiz-adv-x="1017" 
d="M477 -20q-221 0 -325.5 126t-104.5 373v119h199v-158q0 -164 58 -231.5t173 -67.5q114 0 173 66.5t59 228.5v1219h198v-1180q0 -495 -430 -495zM492 1782l243 237h144l239 -237h-139l-172 174l-176 -174h-139z" />
    <glyph glyph-name="jcircumflex" unicode="&#x135;" horiz-adv-x="409" 
d="M111 -8v1339h188v-1356q0 -110 -16.5 -183t-56.5 -123t-107.5 -72.5t-169.5 -22.5h-144v160h109q116 0 156.5 55t40.5 203zM-109 1458l244 238h144l239 -238h-139l-172 174l-176 -174h-140z" />
    <glyph glyph-name="uni0136" unicode="&#x136;" horiz-adv-x="1032" 
d="M801 0l-424 739h-64v-739h-196v1655h196v-740h64l424 740h219l-488 -828l488 -827h-219zM436 -172q0 42 29 71t74 29t72.5 -30.5t27.5 -90.5q0 -72 -44 -134t-132 -105v84q101 38 123 121q-27 -35 -66 -35q-34 0 -59 25t-25 65z" />
    <glyph glyph-name="uni0137" unicode="&#x137;" horiz-adv-x="962" 
d="M111 1655h188v-907h53l385 583h217l-456 -665l456 -666h-217l-389 590h-49v-590h-188v1655zM424 -172q0 42 28.5 71t73.5 29t73 -30.5t28 -90.5q0 -72 -44 -134t-132 -105v84q99 38 122 121q-27 -35 -65 -35q-34 0 -59 25t-25 65z" />
    <glyph glyph-name="Lacute" unicode="&#x139;" horiz-adv-x="888" 
d="M117 0v1655h196v-1491h545v-164h-741zM145 1864l646 151l20 -80l-645 -149z" />
    <glyph glyph-name="lacute" unicode="&#x13a;" horiz-adv-x="409" 
d="M111 1655h188v-1655h-188v1655zM-129 1864l645 151l21 -80l-646 -149z" />
    <glyph glyph-name="uni013B" unicode="&#x13b;" horiz-adv-x="888" 
d="M117 0v1655h196v-1491h545v-164h-741zM356 -172q0 42 29 71t74 29t72.5 -30.5t27.5 -90.5q0 -72 -44 -134t-132 -105v84q101 38 123 121q-27 -35 -66 -35q-34 0 -59 25t-25 65z" />
    <glyph glyph-name="uni013C" unicode="&#x13c;" horiz-adv-x="409" 
d="M111 1655h188v-1655h-188v1655zM104 -172q0 42 29 71t74 29t72.5 -30.5t27.5 -90.5q0 -72 -44 -134t-132 -105v84q101 38 123 121q-27 -35 -66 -35q-34 0 -59 25t-25 65z" />
    <glyph glyph-name="Lcaron" unicode="&#x13d;" horiz-adv-x="892" 
d="M117 0v1655h196v-1491h545v-164h-741zM565 1182l53 473h125l-90 -473h-88z" />
    <glyph glyph-name="lcaron" unicode="&#x13e;" horiz-adv-x="499" 
d="M111 1655h188v-1655h-188v1655zM367 1182l53 473h125l-90 -473h-88z" />
    <glyph glyph-name="Lslash" unicode="&#x141;" horiz-adv-x="976" 
d="M205 0v676l-170 -94v127l170 96v850h196v-742l269 152v-129l-269 -150v-622h545v-164h-741z" />
    <glyph glyph-name="lslash" unicode="&#x142;" horiz-adv-x="716" 
d="M270 1655h189v-715l231 135v-129l-231 -135v-811h-189v700l-233 -135v127l233 137v826z" />
    <glyph glyph-name="Nacute" unicode="&#x143;" horiz-adv-x="1142" 
d="M117 0v1655h184l543 -1219v1219h182v-1655h-184l-543 1219v-1219h-182zM238 1864l645 151l20 -80l-645 -149z" />
    <glyph glyph-name="nacute" unicode="&#x144;" 
d="M299 1331v-166q38 77 112.5 132t192.5 55q314 0 314 -408v-944h-189v934q0 131 -47 195.5t-150 64.5q-59 0 -104 -21t-71 -56.5t-40 -76t-18 -86.5v-954h-188v1331h188zM184 1540l645 152l21 -80l-645 -150z" />
    <glyph glyph-name="uni0145" unicode="&#x145;" horiz-adv-x="1142" 
d="M117 0v1655h184l543 -1219v1219h182v-1655h-184l-543 1219v-1219h-182zM471 -172q0 42 28.5 71t73.5 29t73 -30.5t28 -90.5q0 -72 -44 -134t-132 -105v84q101 38 123 121q-27 -35 -66 -35q-34 0 -59 25t-25 65z" />
    <glyph glyph-name="uni0146" unicode="&#x146;" 
d="M299 1331v-166q38 77 112.5 132t192.5 55q314 0 314 -408v-944h-189v934q0 131 -47 195.5t-150 64.5q-59 0 -104 -21t-71 -56.5t-40 -76t-18 -86.5v-954h-188v1331h188zM416 -172q0 42 28.5 71t73.5 29t72.5 -30.5t27.5 -90.5q0 -72 -44 -134t-132 -105v84
q101 38 123 121q-27 -35 -65 -35q-34 0 -59 25t-25 65z" />
    <glyph glyph-name="Ncaron" unicode="&#x147;" horiz-adv-x="1142" 
d="M117 0v1655h184l543 -1219v1219h182v-1655h-184l-543 1219v-1219h-182zM242 2015h143l188 -174l185 174h143l-256 -237h-143z" />
    <glyph glyph-name="ncaron" unicode="&#x148;" 
d="M299 1331v-166q38 77 112.5 132t192.5 55q314 0 314 -408v-944h-189v934q0 131 -47 195.5t-150 64.5q-59 0 -104 -21t-71 -56.5t-40 -76t-18 -86.5v-954h-188v1331h188zM188 1692h144l188 -174l185 174h143l-256 -238h-143z" />
    <glyph glyph-name="Eng" unicode="&#x14a;" horiz-adv-x="1142" 
d="M117 0v1655h184l543 -1219v1219h182v-1655q-1 -118 -13.5 -190t-48 -124.5t-98.5 -74t-164 -21.5h-84v179h80q91 0 119.5 49.5t22.5 183.5l-541 1217v-1219h-182z" />
    <glyph glyph-name="eng" unicode="&#x14b;" 
d="M299 1331v-166q38 77 112.5 132t192.5 55q314 0 314 -408v-944h2q0 -111 -15 -184.5t-53 -126t-103.5 -76t-166.5 -23.5h-127v158h92q104 0 144 56.5t40 195.5h-2v934q0 131 -47 195.5t-150 64.5q-59 0 -104 -21t-71 -56.5t-40 -76t-18 -86.5v-954h-188v1331h188z" />
    <glyph glyph-name="Omacron" unicode="&#x14c;" horiz-adv-x="1120" 
d="M559 -20q-237 0 -355 140.5t-118 387.5v639q0 246 118.5 387t354.5 141q237 0 356 -141t119 -387v-639q0 -246 -119 -387t-356 -141zM213 1851v82h690v-82h-690zM285 471q0 -328 274 -328q275 0 275 328v711q0 329 -275 329q-274 0 -274 -327v-713z" />
    <glyph glyph-name="omacron" unicode="&#x14d;" horiz-adv-x="989" 
d="M494 -20q-209 0 -313.5 123.5t-104.5 357.5v409q0 233 104 357.5t314 124.5q211 0 314 -124t103 -358v-409q0 -234 -103.5 -357.5t-313.5 -123.5zM147 1528v82h691v-82h-691zM268 436q0 -158 57.5 -228.5t168.5 -70.5q112 0 169.5 70t57.5 229v459q0 159 -57.5 229
t-169.5 70q-111 0 -168.5 -70.5t-57.5 -228.5v-459z" />
    <glyph glyph-name="Ohungarumlaut" unicode="&#x150;" horiz-adv-x="1120" 
d="M559 -20q-237 0 -355 140.5t-118 387.5v639q0 246 118.5 387t354.5 141q237 0 356 -141t119 -387v-639q0 -246 -119 -387t-356 -141zM285 471q0 -328 274 -328q275 0 275 328v711q0 329 -275 329q-274 0 -274 -327v-713zM377 1778l239 229h117l-219 -229h-137zM616 1778
l240 229h117l-219 -229h-138z" />
    <glyph glyph-name="ohungarumlaut" unicode="&#x151;" horiz-adv-x="989" 
d="M494 -20q-209 0 -313.5 123.5t-104.5 357.5v409q0 233 104 357.5t314 124.5q211 0 314 -124t103 -358v-409q0 -234 -103.5 -357.5t-313.5 -123.5zM268 436q0 -158 57.5 -228.5t168.5 -70.5q112 0 169.5 70t57.5 229v459q0 159 -57.5 229t-169.5 70q-111 0 -168.5 -70.5
t-57.5 -228.5v-459zM311 1454l240 229h117l-219 -229h-138zM551 1454l240 229h116l-219 -229h-137z" />
    <glyph glyph-name="OE" unicode="&#x152;" horiz-adv-x="1452" 
d="M479 -20q-196 0 -292.5 134t-96.5 382v663q0 247 97 381.5t292 134.5q201 0 293 -159v139h606v-164h-440v-582h422v-164h-422v-581h440v-164h-606v139q-92 -159 -293 -159zM287 465q0 -324 221 -324q112 0 170.5 75t58.5 206v813q0 128 -59 203t-170 75q-221 0 -221 -323
v-725z" />
    <glyph glyph-name="oe" unicode="&#x153;" horiz-adv-x="1570" 
d="M473 -20q-189 0 -292 122.5t-103 348.5v430q0 226 103 348.5t292 122.5q224 0 318 -187q49 96 127.5 141.5t191.5 45.5q189 0 288 -118.5t99 -348.5v-254h-618v-199q3 -295 217 -295q95 0 145.5 58.5t56.5 191.5v53h195v-37q-9 -203 -105.5 -313t-279.5 -110
q-224 0 -317 184q-94 -184 -318 -184zM268 436q0 -299 215 -299q217 0 217 299v459q0 299 -217 299q-215 0 -215 -299v-459zM881 774h424v144q-3 150 -56.5 213t-150.5 63q-103 0 -159.5 -66t-57.5 -219v-135z" />
    <glyph glyph-name="Racute" unicode="&#x154;" horiz-adv-x="1097" 
d="M829 0q-22 28 -22 147v318q0 63 -16.5 110t-41.5 73t-61.5 42t-69 20.5t-71.5 4.5h-234v-715h-196v1655h432q128 0 212.5 -20.5t141.5 -71t82 -132t25 -206.5v-29q0 -166 -53 -259.5t-181 -139.5q230 -70 230 -348v-302q0 -113 22 -147h-199zM184 1864l645 151l21 -80
l-645 -149zM313 870h236q143 0 201.5 65.5t58.5 201.5v108q0 82 -14 132t-49 77t-80.5 36t-122.5 9h-230v-629z" />
    <glyph glyph-name="racute" unicode="&#x155;" horiz-adv-x="899" 
d="M299 1331v-166q38 81 110.5 134t178.5 53q278 0 278 -361v-133h-188v98q0 123 -36.5 180.5t-125.5 57.5q-61 0 -106.5 -29.5t-68 -76t-32.5 -92t-10 -89.5v-907h-188v1331h188zM170 1540l645 152l21 -80l-646 -150z" />
    <glyph glyph-name="uni0156" unicode="&#x156;" horiz-adv-x="1097" 
d="M829 0q-22 28 -22 147v318q0 63 -16.5 110t-41.5 73t-61.5 42t-69 20.5t-71.5 4.5h-234v-715h-196v1655h432q128 0 212.5 -20.5t141.5 -71t82 -132t25 -206.5v-29q0 -166 -53 -259.5t-181 -139.5q230 -70 230 -348v-302q0 -113 22 -147h-199zM313 870h236
q143 0 201.5 65.5t58.5 201.5v108q0 82 -14 132t-49 77t-80.5 36t-122.5 9h-230v-629zM463 -172q0 42 28.5 71t73.5 29t73 -30.5t28 -90.5q0 -71 -44.5 -133.5t-132.5 -105.5v84q101 38 123 121q-27 -35 -65 -35q-34 0 -59 25t-25 65z" />
    <glyph glyph-name="uni0157" unicode="&#x157;" horiz-adv-x="899" 
d="M299 1331v-166q38 81 110.5 134t178.5 53q278 0 278 -361v-133h-188v98q0 123 -36.5 180.5t-125.5 57.5q-61 0 -106.5 -29.5t-68 -76t-32.5 -92t-10 -89.5v-907h-188v1331h188zM106 -172q0 42 29 71t74 29t72.5 -30.5t27.5 -90.5q0 -72 -44 -134t-132 -105v84
q101 38 123 121q-27 -35 -66 -35q-34 0 -59 25t-25 65z" />
    <glyph glyph-name="Rcaron" unicode="&#x158;" horiz-adv-x="1097" 
d="M829 0q-22 28 -22 147v318q0 63 -16.5 110t-41.5 73t-61.5 42t-69 20.5t-71.5 4.5h-234v-715h-196v1655h432q128 0 212.5 -20.5t141.5 -71t82 -132t25 -206.5v-29q0 -166 -53 -259.5t-181 -139.5q230 -70 230 -348v-302q0 -113 22 -147h-199zM186 2015h144l188 -174
l184 174h144l-256 -237h-144zM313 870h236q143 0 201.5 65.5t58.5 201.5v108q0 82 -14 132t-49 77t-80.5 36t-122.5 9h-230v-629z" />
    <glyph glyph-name="rcaron" unicode="&#x159;" horiz-adv-x="899" 
d="M299 1331v-166q38 81 110.5 134t178.5 53q278 0 278 -361v-133h-188v98q0 123 -36.5 180.5t-125.5 57.5q-61 0 -106.5 -29.5t-68 -76t-32.5 -92t-10 -89.5v-907h-188v1331h188zM172 1692h143l189 -174l184 174h143l-256 -238h-143z" />
    <glyph glyph-name="Sacute" unicode="&#x15a;" horiz-adv-x="1034" 
d="M526 -20q-234 0 -349.5 118.5t-115.5 358.5v112h199v-149q0 -153 64.5 -216t203.5 -63q127 0 182.5 54.5t55.5 183.5v37q0 65 -12 112t-38.5 82.5t-58 60t-82.5 52.5l-223 127q-64 38 -109 76t-82.5 88t-56 114.5t-18.5 143.5q0 191 107.5 297t322.5 106q216 0 327 -109
t111 -325v-88h-198v100q0 147 -59.5 203.5t-182.5 56.5q-118 0 -173.5 -49t-55.5 -164v-24q0 -102 44.5 -162t133.5 -110l223 -127q69 -40 114.5 -76.5t86.5 -90.5t60.5 -126.5t19.5 -167.5q0 -218 -106.5 -327t-334.5 -109zM178 1864l645 151l21 -80l-645 -149z" />
    <glyph glyph-name="sacute" unicode="&#x15b;" horiz-adv-x="942" 
d="M643 698q128 -71 182 -149t54 -203q0 -60 -11.5 -111.5t-40.5 -99.5t-73.5 -81.5t-114.5 -53.5t-160 -20q-215 0 -318.5 101t-103.5 290v82h193v-80q0 -126 53.5 -181t175.5 -55q109 0 159 48.5t50 148.5q0 78 -35 126.5t-131 104.5l-215 125q-114 61 -171.5 136
t-57.5 192q0 67 20.5 124t63.5 105.5t121 76.5t184 28q403 0 403 -379v-64h-192v62q0 122 -52 172.5t-159 50.5q-93 0 -145 -41.5t-52 -124.5q0 -65 32 -107.5t110 -86.5zM137 1540l645 152l21 -80l-645 -150z" />
    <glyph glyph-name="Scircumflex" unicode="&#x15c;" horiz-adv-x="1034" 
d="M526 -20q-234 0 -349.5 118.5t-115.5 358.5v112h199v-149q0 -153 64.5 -216t203.5 -63q127 0 182.5 54.5t55.5 183.5v37q0 65 -12 112t-38.5 82.5t-58 60t-82.5 52.5l-223 127q-64 38 -109 76t-82.5 88t-56 114.5t-18.5 143.5q0 191 107.5 297t322.5 106q216 0 327 -109
t111 -325v-88h-198v100q0 147 -59.5 203.5t-182.5 56.5q-118 0 -173.5 -49t-55.5 -164v-24q0 -102 44.5 -162t133.5 -110l223 -127q69 -40 114.5 -76.5t86.5 -90.5t60.5 -126.5t19.5 -167.5q0 -218 -106.5 -327t-334.5 -109zM199 1782l243 237h144l239 -237h-139l-172 174
l-176 -174h-139z" />
    <glyph glyph-name="scircumflex" unicode="&#x15d;" horiz-adv-x="942" 
d="M643 698q128 -71 182 -149t54 -203q0 -60 -11.5 -111.5t-40.5 -99.5t-73.5 -81.5t-114.5 -53.5t-160 -20q-215 0 -318.5 101t-103.5 290v82h193v-80q0 -126 53.5 -181t175.5 -55q109 0 159 48.5t50 148.5q0 78 -35 126.5t-131 104.5l-215 125q-114 61 -171.5 136
t-57.5 192q0 67 20.5 124t63.5 105.5t121 76.5t184 28q403 0 403 -379v-64h-192v62q0 122 -52 172.5t-159 50.5q-93 0 -145 -41.5t-52 -124.5q0 -65 32 -107.5t110 -86.5zM156 1458l243 238h144l239 -238h-139l-172 174l-176 -174h-139z" />
    <glyph glyph-name="Scedilla" unicode="&#x15e;" horiz-adv-x="1034" 
d="M391 -338q143 0 200.5 15t57.5 63q0 51 -56 60t-165 -9l47 191q-414 24 -414 475v112h199v-149q0 -153 64.5 -216t203.5 -63q127 0 182.5 54.5t55.5 183.5v37q0 65 -12 112t-38.5 82.5t-58 60t-82.5 52.5l-223 127q-64 38 -109 76t-82.5 88t-56 114.5t-18.5 143.5
q0 191 107.5 297t322.5 106q216 0 327 -109t111 -325v-88h-198v100q0 147 -59.5 203.5t-182.5 56.5q-118 0 -173.5 -49t-55.5 -164v-24q0 -102 44.5 -162t133.5 -110l223 -127q69 -40 114.5 -76.5t86.5 -90.5t60.5 -126.5t19.5 -167.5q0 -207 -96.5 -316.5t-301.5 -119.5
l-28 -111q223 30 223 -127q0 -89 -87 -127.5t-288 -38.5z" />
    <glyph glyph-name="scedilla" unicode="&#x15f;" horiz-adv-x="942" 
d="M643 698q128 -71 182 -149t54 -203q0 -72 -18 -132.5t-57.5 -113t-112 -84t-173.5 -36.5l-29 -111q224 30 224 -127q0 -89 -87 -127.5t-288 -38.5l2 86q143 0 200.5 15t57.5 63q0 51 -56 60t-165 -9l47 191q-367 26 -367 389v82h193v-80q0 -126 53.5 -181t175.5 -55
q109 0 159 48.5t50 148.5q0 78 -35 126.5t-131 104.5l-215 125q-114 61 -171.5 136t-57.5 192q0 67 20.5 124t63.5 105.5t121 76.5t184 28q403 0 403 -379v-64h-192v62q0 122 -52 172.5t-159 50.5q-93 0 -145 -41.5t-52 -124.5q0 -65 32 -107.5t110 -86.5z" />
    <glyph glyph-name="Scaron" unicode="&#x160;" horiz-adv-x="1034" 
d="M526 -20q-234 0 -349.5 118.5t-115.5 358.5v112h199v-149q0 -153 64.5 -216t203.5 -63q127 0 182.5 54.5t55.5 183.5v37q0 65 -12 112t-38.5 82.5t-58 60t-82.5 52.5l-223 127q-64 38 -109 76t-82.5 88t-56 114.5t-18.5 143.5q0 191 107.5 297t322.5 106q216 0 327 -109
t111 -325v-88h-198v100q0 147 -59.5 203.5t-182.5 56.5q-118 0 -173.5 -49t-55.5 -164v-24q0 -102 44.5 -162t133.5 -110l223 -127q69 -40 114.5 -76.5t86.5 -90.5t60.5 -126.5t19.5 -167.5q0 -218 -106.5 -327t-334.5 -109zM182 2015h144l188 -174l184 174h144l-256 -237
h-144z" />
    <glyph glyph-name="scaron" unicode="&#x161;" horiz-adv-x="942" 
d="M643 698q128 -71 182 -149t54 -203q0 -60 -11.5 -111.5t-40.5 -99.5t-73.5 -81.5t-114.5 -53.5t-160 -20q-215 0 -318.5 101t-103.5 290v82h193v-80q0 -126 53.5 -181t175.5 -55q109 0 159 48.5t50 148.5q0 78 -35 126.5t-131 104.5l-215 125q-114 61 -171.5 136
t-57.5 192q0 67 20.5 124t63.5 105.5t121 76.5t184 28q403 0 403 -379v-64h-192v62q0 122 -52 172.5t-159 50.5q-93 0 -145 -41.5t-52 -124.5q0 -65 32 -107.5t110 -86.5zM139 1692h144l188 -174l184 174h144l-256 -238h-144z" />
    <glyph glyph-name="uni0162" unicode="&#x162;" horiz-adv-x="940" 
d="M373 0v1491h-338v164h870v-164h-338v-1491h-49l-33 -131q224 30 224 -127q0 -89 -87 -127.5t-288 -38.5l2 86q143 0 200.5 15t57.5 63q0 51 -56 60t-165 -9l51 209h-51z" />
    <glyph glyph-name="uni0163" unicode="&#x163;" horiz-adv-x="720" 
d="M674 1331v-160h-275v-798q0 -131 25 -172t104 -41h146v-160h-166l-29 -111q223 30 223 -127q0 -89 -86.5 -127t-287.5 -38l2 86q144 0 201 14.5t57 62.5q0 51 -56 60.5t-165 -8.5l47 190q-51 6 -87 24t-58.5 45t-35.5 68.5t-17.5 87.5t-4.5 109v835h-191v160h27
q99 21 150 109.5t49 214.5h188q0 -122 -45.5 -212.5t-112.5 -111.5h398z" />
    <glyph glyph-name="Tcaron" unicode="&#x164;" horiz-adv-x="940" 
d="M373 0v1491h-338v164h870v-164h-338v-1491h-194zM139 2015h144l188 -174l184 174h144l-256 -237h-144z" />
    <glyph glyph-name="tcaron" unicode="&#x165;" horiz-adv-x="720" 
d="M674 1331v-160h-275v-798q0 -131 25 -172t104 -41h146v-160h-207q-65 0 -111 15t-74 41t-44 69.5t-21.5 92t-5.5 118.5v835h-191v160h27q99 21 150 109.5t49 214.5h188q0 -122 -45.5 -212.5t-112.5 -111.5h398zM518 1454l86 385h125l-123 -385h-88z" />
    <glyph glyph-name="Tbar" unicode="&#x166;" horiz-adv-x="960" 
d="M383 0v735h-246v111h246v645h-338v164h870v-164h-337v-645h245v-111h-245v-735h-195z" />
    <glyph glyph-name="tbar" unicode="&#x167;" horiz-adv-x="735" 
d="M686 1331v-160h-274v-383h268v-108h-268v-307q0 -131 25 -172t104 -41h145v-160h-207q-65 0 -111 15t-74 41t-44 69.5t-21.5 92t-5.5 118.5v344h-184v108h184v383h-190v160h26q99 21 150 109.5t49 214.5h188q0 -123 -45 -213t-112 -111h397z" />
    <glyph glyph-name="Utilde" unicode="&#x168;" horiz-adv-x="1122" 
d="M561 -20q-237 0 -343.5 121t-106.5 370v1184h198v-1217q0 -88 16.5 -146.5t50 -91.5t78 -46t107.5 -13t107.5 13t79 45.5t51 91.5t16.5 147v1217h199v-1184q0 -249 -108.5 -370t-344.5 -121zM229 1798q0 113 52 162t133 49q47 0 83.5 -15.5t59.5 -37.5t43 -43.5t45 -37
t55 -15.5q88 0 88 127h103q0 -115 -52.5 -163t-133.5 -48q-48 0 -85.5 15.5t-60.5 37t-42.5 43.5t-43.5 37.5t-53 15.5q-88 0 -88 -127h-103z" />
    <glyph glyph-name="utilde" unicode="&#x169;" 
d="M723 0v170q-17 -36 -41 -66.5t-60.5 -60t-89.5 -46.5t-116 -17q-314 0 -314 407v944h189v-934q0 -131 46.5 -195.5t149.5 -64.5q53 0 95 18t68 46t43 66t23.5 75t6.5 76v913h188v-1331h-188zM168 1475q0 59 15 101.5t42 65.5t58 33.5t69 10.5q47 0 83.5 -15.5t59.5 -37.5
t43 -44t45.5 -37.5t55.5 -15.5q88 0 88 127h102q0 -115 -52.5 -163t-133.5 -48q-48 0 -85.5 15.5t-60.5 37.5t-42.5 44t-43.5 37.5t-53 15.5q-88 0 -88 -127h-102z" />
    <glyph glyph-name="Umacron" unicode="&#x16a;" horiz-adv-x="1122" 
d="M561 -20q-237 0 -343.5 121t-106.5 370v1184h198v-1217q0 -88 16.5 -146.5t50 -91.5t78 -46t107.5 -13t107.5 13t79 45.5t51 91.5t16.5 147v1217h199v-1184q0 -249 -108.5 -370t-344.5 -121zM215 1851v82h690v-82h-690z" />
    <glyph glyph-name="umacron" unicode="&#x16b;" 
d="M723 0v170q-17 -36 -41 -66.5t-60.5 -60t-89.5 -46.5t-116 -17q-314 0 -314 407v944h189v-934q0 -131 46.5 -195.5t149.5 -64.5q53 0 95 18t68 46t43 66t23.5 75t6.5 76v913h188v-1331h-188zM154 1528v82h690v-82h-690z" />
    <glyph glyph-name="Ubreve" unicode="&#x16c;" horiz-adv-x="1122" 
d="M561 -20q-237 0 -343.5 121t-106.5 370v1184h198v-1217q0 -88 16.5 -146.5t50 -91.5t78 -46t107.5 -13t107.5 13t79 45.5t51 91.5t16.5 147v1217h199v-1184q0 -249 -108.5 -370t-344.5 -121zM227 2009h103q0 -55 37 -89.5t86 -46t110 -11.5q44 0 82 7t72.5 22.5t54 45.5
t19.5 72h102q0 -231 -330 -231q-70 0 -127.5 11t-106 36.5t-75.5 72t-27 111.5z" />
    <glyph glyph-name="ubreve" unicode="&#x16d;" 
d="M723 0v170q-17 -36 -41 -66.5t-60.5 -60t-89.5 -46.5t-116 -17q-314 0 -314 407v944h189v-934q0 -131 46.5 -195.5t149.5 -64.5q53 0 95 18t68 46t43 66t23.5 75t6.5 76v913h188v-1331h-188zM166 1686h102q0 -55 37.5 -90t86.5 -46.5t110 -11.5q44 0 82 7t72 23t53.5 46
t19.5 72h102q0 -232 -329 -232q-55 0 -102.5 6.5t-91.5 23.5t-74.5 42.5t-49 66.5t-18.5 93z" />
    <glyph glyph-name="Uring" unicode="&#x16e;" horiz-adv-x="1122" 
d="M561 -20q-237 0 -343.5 121t-106.5 370v1184h198v-1217q0 -88 16.5 -146.5t50 -91.5t78 -46t107.5 -13t107.5 13t79 45.5t51 91.5t16.5 147v1217h199v-1184q0 -249 -108.5 -370t-344.5 -121zM395 1913q0 71 49.5 118.5t116.5 47.5t116.5 -47.5t49.5 -118.5t-49.5 -118.5
t-116.5 -47.5t-116.5 47.5t-49.5 118.5zM479 1913q0 -37 22 -59.5t60 -22.5t60 22.5t22 59.5t-22 59.5t-60 22.5t-60 -22.5t-22 -59.5z" />
    <glyph glyph-name="uring" unicode="&#x16f;" 
d="M723 0v170q-17 -36 -41 -66.5t-60.5 -60t-89.5 -46.5t-116 -17q-314 0 -314 407v944h189v-934q0 -131 46.5 -195.5t149.5 -64.5q53 0 95 18t68 46t43 66t23.5 75t6.5 76v913h188v-1331h-188zM334 1589q0 71 49.5 118.5t116.5 47.5t116.5 -47.5t49.5 -118.5t-49.5 -118.5
t-116.5 -47.5t-116.5 47.5t-49.5 118.5zM418 1589q0 -37 22 -59.5t60 -22.5t60 22.5t22 59.5t-22 59.5t-60 22.5t-60 -22.5t-22 -59.5z" />
    <glyph glyph-name="Uhungarumlaut" unicode="&#x170;" horiz-adv-x="1122" 
d="M561 -20q-237 0 -343.5 121t-106.5 370v1184h198v-1217q0 -88 16.5 -146.5t50 -91.5t78 -46t107.5 -13t107.5 13t79 45.5t51 91.5t16.5 147v1217h199v-1184q0 -249 -108.5 -370t-344.5 -121zM379 1778l239 229h117l-219 -229h-137zM618 1778l240 229h117l-219 -229h-138z
" />
    <glyph glyph-name="uhungarumlaut" unicode="&#x171;" 
d="M723 0v170q-17 -36 -41 -66.5t-60.5 -60t-89.5 -46.5t-116 -17q-314 0 -314 407v944h189v-934q0 -131 46.5 -195.5t149.5 -64.5q53 0 95 18t68 46t43 66t23.5 75t6.5 76v913h188v-1331h-188zM317 1454l240 229h117l-219 -229h-138zM557 1454l240 229h116l-219 -229h-137z
" />
    <glyph glyph-name="Uogonek" unicode="&#x172;" horiz-adv-x="1122" 
d="M561 -20q-237 0 -343.5 121t-106.5 370v1184h198v-1217q0 -88 16.5 -146.5t50 -91.5t78 -46t107.5 -13t107.5 13t79 45.5t51 91.5t16.5 147v1217h199v-1184q0 -201 -69 -318t-218 -155h2q-108 -36 -160.5 -82.5t-52.5 -112.5q0 -63 56 -91.5t186 -28.5h24l-82 -95h-22
q-125 0 -198.5 47.5t-73.5 139.5q0 136 180 205h-25z" />
    <glyph glyph-name="uogonek" unicode="&#x173;" 
d="M723 0v170q-17 -36 -41 -66.5t-60.5 -60t-89.5 -46.5t-116 -17q-314 0 -314 407v944h189v-934q0 -131 46.5 -195.5t149.5 -64.5q53 0 95 18t68 46t43 66t23.5 75t6.5 76v913h188v-1331q-108 -36 -160.5 -82.5t-52.5 -112.5q0 -63 56 -91.5t186 -28.5h25l-82 -95h-23
q-125 0 -198.5 47.5t-73.5 139.5q0 47 19.5 84.5t55 63.5t72.5 43t86 32h-98z" />
    <glyph glyph-name="Wcircumflex" unicode="&#x174;" horiz-adv-x="1705" 
d="M340 0l-309 1655h198l240 -1409l2 -10l2 10l254 1409h252l254 -1407l2 -15l4 15l238 1407h196l-307 -1655h-262l-246 1374l-4 23l-6 -23l-246 -1374h-262zM539 1782l243 237h144l239 -237h-139l-172 174l-176 -174h-139z" />
    <glyph glyph-name="wcircumflex" unicode="&#x175;" horiz-adv-x="1495" 
d="M434 1458l244 238h143l240 -238h-139l-172 174l-177 -174h-139zM29 1331h190l205 -1141l213 1141h221l215 -1141l205 1141h186l-268 -1331h-229l-222 1163l-223 -1163h-223z" />
    <glyph glyph-name="Ycircumflex" unicode="&#x176;" horiz-adv-x="995" 
d="M399 0v580l-389 1075h209l279 -834l278 834h207l-387 -1075v-580h-197zM184 1782l244 237h143l240 -237h-139l-172 174l-176 -174h-140z" />
    <glyph glyph-name="ycircumflex" unicode="&#x177;" horiz-adv-x="1017" 
d="M721 12v158q-17 -36 -41 -66.5t-60.5 -60t-89.5 -46.5t-116 -17q-314 0 -314 407v944h189v-934q0 -131 46.5 -195.5t149.5 -64.5q53 0 95 18t68 46t43 66t23.5 75t6.5 76v913h188v-1321q0 -117 -17 -195t-59 -134t-113.5 -81.5t-180.5 -25.5h-400v160h365
q126 0 171.5 60.5t45.5 217.5zM188 1458l244 238h143l240 -238h-139l-172 174l-176 -174h-140z" />
    <glyph glyph-name="Ydieresis" unicode="&#x178;" horiz-adv-x="995" 
d="M399 0v580l-389 1075h209l279 -834l278 834h207l-387 -1075v-580h-197zM199 1880q0 50 30.5 77.5t77.5 27.5q46 0 78.5 -27.5t32.5 -77.5q0 -45 -33 -72.5t-78 -27.5q-46 0 -77 27t-31 73zM578 1880q0 50 30.5 77.5t77.5 27.5q46 0 78.5 -27.5t32.5 -77.5
q0 -45 -33 -72.5t-78 -27.5q-46 0 -77 27t-31 73z" />
    <glyph glyph-name="Zacute" unicode="&#x179;" horiz-adv-x="923" 
d="M53 0v164l609 1327h-609v164h817v-164l-608 -1327h608v-164h-817zM129 1864l645 151l21 -80l-645 -149z" />
    <glyph glyph-name="zacute" unicode="&#x17a;" horiz-adv-x="860" 
d="M51 1331h758v-160l-553 -1011h551v-160h-754v160l551 1011h-553v160zM98 1540l645 152l21 -80l-645 -150z" />
    <glyph glyph-name="Zdotaccent" unicode="&#x17b;" horiz-adv-x="923" 
d="M53 0v164l609 1327h-609v164h817v-164l-608 -1327h608v-164h-817zM346 1886q0 46 31.5 77.5t85.5 31.5q55 0 87 -31.5t32 -77.5q0 -45 -32 -75.5t-87 -30.5q-54 0 -85.5 30.5t-31.5 75.5z" />
    <glyph glyph-name="zdotaccent" unicode="&#x17c;" horiz-adv-x="860" 
d="M51 1331h758v-160l-553 -1011h551v-160h-754v160l551 1011h-553v160zM303 1565q0 49 34 79.5t95 30.5t95 -30.5t34 -79.5q0 -46 -34 -76.5t-95 -30.5t-95 30.5t-34 76.5z" />
    <glyph glyph-name="Zcaron" unicode="&#x17d;" horiz-adv-x="923" 
d="M53 0v164l609 1327h-609v164h817v-164l-608 -1327h608v-164h-817zM131 2015h143l189 -174l184 174h144l-256 -237h-144z" />
    <glyph glyph-name="zcaron" unicode="&#x17e;" horiz-adv-x="860" 
d="M51 1331h758v-160l-553 -1011h551v-160h-754v160l551 1011h-553v160zM102 1692h144l188 -174l184 174h144l-256 -238h-144z" />
    <glyph glyph-name="uni0218" unicode="&#x218;" horiz-adv-x="1034" 
d="M526 -20q-234 0 -349.5 118.5t-115.5 358.5v112h199v-149q0 -153 64.5 -216t203.5 -63q127 0 182.5 54.5t55.5 183.5v37q0 65 -12 112t-38.5 82.5t-58 60t-82.5 52.5l-223 127q-64 38 -109 76t-82.5 88t-56 114.5t-18.5 143.5q0 191 107.5 297t322.5 106q216 0 327 -109
t111 -325v-88h-198v100q0 147 -59.5 203.5t-182.5 56.5q-118 0 -173.5 -49t-55.5 -164v-24q0 -102 44.5 -162t133.5 -110l223 -127q69 -40 114.5 -76.5t86.5 -90.5t60.5 -126.5t19.5 -167.5q0 -218 -106.5 -327t-334.5 -109zM424 -172q0 42 28.5 71t73.5 29t73 -30.5
t28 -90.5q0 -72 -44 -134t-132 -105v84q99 38 122 121q-27 -35 -65 -35q-34 0 -59 25t-25 65z" />
    <glyph glyph-name="uni0219" unicode="&#x219;" horiz-adv-x="942" 
d="M643 698q128 -71 182 -149t54 -203q0 -60 -11.5 -111.5t-40.5 -99.5t-73.5 -81.5t-114.5 -53.5t-160 -20q-215 0 -318.5 101t-103.5 290v82h193v-80q0 -126 53.5 -181t175.5 -55q109 0 159 48.5t50 148.5q0 78 -35 126.5t-131 104.5l-215 125q-114 61 -171.5 136
t-57.5 192q0 67 20.5 124t63.5 105.5t121 76.5t184 28q403 0 403 -379v-64h-192v62q0 122 -52 172.5t-159 50.5q-93 0 -145 -41.5t-52 -124.5q0 -65 32 -107.5t110 -86.5zM375 -172q0 42 28.5 71t73.5 29t73 -30.5t28 -90.5q0 -71 -44.5 -133.5t-132.5 -105.5v84
q101 38 123 121q-27 -35 -65 -35q-34 0 -59 25t-25 65z" />
    <glyph glyph-name="uni021A" unicode="&#x21a;" horiz-adv-x="940" 
d="M373 0v1491h-338v164h870v-164h-338v-1491h-194zM371 -172q0 42 28.5 71t73.5 29t72.5 -30.5t27.5 -90.5q0 -72 -44 -134t-132 -105v84q101 38 123 121q-27 -35 -65 -35q-34 0 -59 25t-25 65z" />
    <glyph glyph-name="uni021B" unicode="&#x21b;" horiz-adv-x="720" 
d="M674 1331v-160h-275v-798q0 -131 25 -172t104 -41h146v-160h-207q-65 0 -111 15t-74 41t-44 69.5t-21.5 92t-5.5 118.5v835h-191v160h27q99 21 150 109.5t49 214.5h188q0 -122 -45.5 -212.5t-112.5 -111.5h398zM362 -152q0 42 29 71.5t74 29.5t72.5 -30.5t27.5 -90.5
q0 -72 -44 -134.5t-132 -105.5v84q101 38 123 121q-27 -35 -66 -35q-34 0 -59 25t-25 65z" />
    <glyph glyph-name="uni0237" unicode="&#x237;" horiz-adv-x="409" 
d="M111 -8v1339h188v-1356q0 -110 -16.5 -183t-56.5 -123t-107.5 -72.5t-169.5 -22.5h-144v160h109q116 0 156.5 55t40.5 203z" />
    <glyph glyph-name="circumflex" unicode="&#x2c6;" horiz-adv-x="1036" 
d="M205 1458l244 238h143l239 -238h-139l-172 174l-176 -174h-139z" />
    <glyph glyph-name="caron" unicode="&#x2c7;" horiz-adv-x="1069" 
d="M465 1454l-260 238h143l189 -174l184 174h143l-256 -238h-143z" />
    <glyph glyph-name="breve" unicode="&#x2d8;" horiz-adv-x="1075" 
d="M541 1454q-55 0 -102.5 6.5t-91.5 23.5t-74.5 42.5t-49 66.5t-18.5 93h102q0 -55 37.5 -90t86.5 -46.5t110 -11.5q44 0 82 7t72 23t53.5 46t19.5 72h102q0 -232 -329 -232z" />
    <glyph glyph-name="dotaccent" unicode="&#x2d9;" horiz-adv-x="667" 
d="M334 1458q-61 0 -95 30.5t-34 76.5q0 49 34 79.5t95 30.5t95 -30.5t34 -79.5q0 -46 -34 -76.5t-95 -30.5z" />
    <glyph glyph-name="ring" unicode="&#x2da;" horiz-adv-x="741" 
d="M371 1423q-67 0 -116.5 47.5t-49.5 118.5t49.5 118.5t116.5 47.5t116.5 -47.5t49.5 -118.5t-49.5 -118.5t-116.5 -47.5zM289 1589q0 -37 22 -59.5t60 -22.5t60 22.5t22 59.5t-22 59.5t-60 22.5t-60 -22.5t-22 -59.5z" />
    <glyph glyph-name="ogonek" unicode="&#x2db;" horiz-adv-x="776" 
d="M487 -410q-125 0 -198.5 47.5t-73.5 139.5q0 47 19.5 84.5t55.5 63.5t73 43t86 32h90q-108 -36 -160.5 -82.5t-52.5 -112.5q0 -64 56 -92t185 -28h25l-82 -95h-23z" />
    <glyph glyph-name="tilde" unicode="&#x2dc;" horiz-adv-x="1071" 
d="M205 1475q0 59 15 101.5t42 65.5t58 33.5t69 10.5q47 0 83.5 -15.5t59.5 -37.5t43 -44t45.5 -37.5t55.5 -15.5q88 0 88 127h102q0 -115 -52.5 -163t-133.5 -48q-48 0 -85.5 15.5t-60.5 37.5t-42.5 44t-43.5 37.5t-53 15.5q-88 0 -88 -127h-102z" />
    <glyph glyph-name="hungarumlaut" unicode="&#x2dd;" horiz-adv-x="1005" 
d="M582 1454h-138l240 229h117zM205 1454l239 229h117l-219 -229h-137z" />
    <glyph glyph-name="uni1E20" unicode="&#x1e20;" horiz-adv-x="1120" 
d="M532 -20q-216 0 -331 141.5t-115 382.5v643q0 248 118 388t355 140q227 0 344.5 -129t122.5 -356v-160h-201v197q-5 286 -264 286q-137 0 -206.5 -79.5t-69.5 -247.5v-715q0 -167 66.5 -248.5t205.5 -81.5q135 0 200 75.5t68 234.5v235h-301v156h502v-842h-113l-20 172
q-118 -192 -361 -192zM213 1851v82h690v-82h-690z" />
    <glyph glyph-name="uni1E21" unicode="&#x1e21;" horiz-adv-x="1019" 
d="M723 18v146q-16 -34 -39.5 -64t-59.5 -58.5t-88 -45t-114 -16.5q-163 0 -252.5 112t-89.5 316v526q0 197 90 307.5t254 110.5q189 0 299 -170v149h188v-1329q0 -115 -16.5 -191.5t-58 -131.5t-113.5 -80t-182 -25h-404v160h373q124 0 168.5 62t44.5 222zM145 1528v82h691
v-82h-691zM272 422q0 -283 215 -283q105 0 165.5 69t70.5 175v567q-10 105 -70.5 174.5t-165.5 69.5q-215 0 -215 -285v-487z" />
    <glyph glyph-name="Wgrave" unicode="&#x1e80;" horiz-adv-x="1705" 
d="M340 0l-309 1655h198l240 -1409l2 -10l2 10l254 1409h252l254 -1407l2 -15l4 15l238 1407h196l-307 -1655h-262l-246 1374l-4 23l-6 -23l-246 -1374h-262zM508 1927l20 80l670 -152l-20 -77z" />
    <glyph glyph-name="wgrave" unicode="&#x1e81;" horiz-adv-x="1495" 
d="M1092 1532l-21 -78l-670 150l21 79zM29 1331h190l205 -1141l213 1141h221l215 -1141l205 1141h186l-268 -1331h-229l-222 1163l-223 -1163h-223z" />
    <glyph glyph-name="Wacute" unicode="&#x1e82;" horiz-adv-x="1705" 
d="M340 0l-309 1655h198l240 -1409l2 -10l2 10l254 1409h252l254 -1407l2 -15l4 15l238 1407h196l-307 -1655h-262l-246 1374l-4 23l-6 -23l-246 -1374h-262zM520 1864l645 151l21 -80l-645 -149z" />
    <glyph glyph-name="wacute" unicode="&#x1e83;" horiz-adv-x="1495" 
d="M434 1462l-20 78l645 152l20 -80zM29 1331h190l205 -1141l213 1141h221l215 -1141l205 1141h186l-268 -1331h-229l-222 1163l-223 -1163h-223z" />
    <glyph glyph-name="Wdieresis" unicode="&#x1e84;" horiz-adv-x="1705" 
d="M340 0l-309 1655h198l240 -1409l2 -10l2 10l254 1409h252l254 -1407l2 -15l4 15l238 1407h196l-307 -1655h-262l-246 1374l-4 23l-6 -23l-246 -1374h-262zM553 1880q0 50 31 77.5t78 27.5q46 0 78 -27.5t32 -77.5q0 -45 -32.5 -72.5t-77.5 -27.5q-46 0 -77.5 27t-31.5 73
zM932 1880q0 50 30.5 77.5t77.5 27.5q46 0 78.5 -27.5t32.5 -77.5q0 -45 -33 -72.5t-78 -27.5q-46 0 -77 27t-31 73z" />
    <glyph glyph-name="wdieresis" unicode="&#x1e85;" horiz-adv-x="1495" 
d="M936 1456q-46 0 -77.5 27t-31.5 73q0 50 31 77.5t78 27.5q46 0 78.5 -27.5t32.5 -77.5q0 -45 -33 -72.5t-78 -27.5zM29 1331h190l205 -1141l213 1141h221l215 -1141l205 1141h186l-268 -1331h-229l-222 1163l-223 -1163h-223zM449 1556q0 50 30.5 77.5t77.5 27.5
q46 0 78.5 -27.5t32.5 -77.5q0 -45 -33 -72.5t-78 -27.5q-46 0 -77 27t-31 73z" />
    <glyph glyph-name="uni1E9E" unicode="&#x1e9e;" horiz-adv-x="1046" 
d="M113 1309q0 181 92 263.5t295 82.5h467q-36 -252 -68.5 -386t-74 -200t-107.5 -92q128 -38 190 -140t62 -292v-107q0 -438 -398 -438h-182v158h150q127 2 183 63.5t56 216.5v137q0 76 -11 129.5t-39 97t-80.5 65.5t-131.5 22l-127 2v156l121 2q27 0 47.5 2t39.5 8.5
t33 14t27.5 24.5t23 32.5t20.5 45.5t19 56.5t18.5 72.5t18.5 87t21 105h-278q-105 0 -152 -41.5t-47 -140.5v-1315h-188v1309z" />
    <glyph glyph-name="uni1EBC" unicode="&#x1ebc;" horiz-adv-x="929" 
d="M117 0v1655h741v-164h-545v-582h521v-164h-521v-581h545v-164h-741zM158 1798q0 59 15 101.5t42 65.5t58 33.5t69 10.5q47 0 83.5 -15.5t59.5 -37.5t43 -43.5t45.5 -37t55.5 -15.5q88 0 88 127h102q0 -115 -52.5 -163t-133.5 -48q-48 0 -85.5 15.5t-60.5 37t-42.5 43.5
t-43.5 37.5t-53 15.5q-88 0 -88 -127h-102z" />
    <glyph glyph-name="uni1EBD" unicode="&#x1ebd;" horiz-adv-x="985" 
d="M164 1475q0 59 15 101.5t42 65.5t58 33.5t69 10.5q47 0 83.5 -15.5t59.5 -37.5t43 -44t45.5 -37.5t55.5 -15.5q88 0 88 127h102q0 -115 -52.5 -163t-133.5 -48q-48 0 -85.5 15.5t-60.5 37.5t-42.5 44t-43.5 37.5t-53 15.5q-88 0 -88 -127h-102zM76 461v409q0 234 105 358
t319 124q409 0 409 -478v-243h-641v-195q0 -159 58.5 -229t173.5 -70q103 0 155.5 58t55.5 192v55h194v-28q-13 -434 -405 -434q-213 0 -318.5 123.5t-105.5 357.5zM268 772h449v146q-1 151 -56.5 213.5t-162.5 62.5q-114 0 -172 -69.5t-58 -229.5v-123z" />
    <glyph glyph-name="Ygrave" unicode="&#x1ef2;" horiz-adv-x="995" 
d="M399 0v580l-389 1075h209l279 -834l278 834h207l-387 -1075v-580h-197zM152 1927l20 80l670 -152l-21 -77z" />
    <glyph glyph-name="ygrave" unicode="&#x1ef3;" horiz-adv-x="1017" 
d="M721 12v158q-17 -36 -41 -66.5t-60.5 -60t-89.5 -46.5t-116 -17q-314 0 -314 407v944h189v-934q0 -131 46.5 -195.5t149.5 -64.5q53 0 95 18t68 46t43 66t23.5 75t6.5 76v913h188v-1321q0 -117 -17 -195t-59 -134t-113.5 -81.5t-180.5 -25.5h-400v160h365
q126 0 171.5 60.5t45.5 217.5zM156 1604l20 79l670 -151l-21 -78z" />
    <glyph glyph-name="uni1EF8" unicode="&#x1ef8;" horiz-adv-x="995" 
d="M399 0v580l-389 1075h209l279 -834l278 834h207l-387 -1075v-580h-197zM166 1798q0 59 15 101.5t42 65.5t58 33.5t69 10.5q47 0 83.5 -15.5t59.5 -37.5t43 -43.5t45.5 -37t55.5 -15.5q88 0 88 127h102q0 -115 -52.5 -163t-133.5 -48q-48 0 -85.5 15.5t-60.5 37
t-42.5 43.5t-43.5 37.5t-53 15.5q-88 0 -88 -127h-102z" />
    <glyph glyph-name="uni1EF9" unicode="&#x1ef9;" horiz-adv-x="1017" 
d="M721 12v158q-17 -36 -41 -66.5t-60.5 -60t-89.5 -46.5t-116 -17q-314 0 -314 407v944h189v-934q0 -131 46.5 -195.5t149.5 -64.5q53 0 95 18t68 46t43 66t23.5 75t6.5 76v913h188v-1321q0 -117 -17 -195t-59 -134t-113.5 -81.5t-180.5 -25.5h-400v160h365
q126 0 171.5 60.5t45.5 217.5zM170 1475q0 59 15 101.5t42 65.5t58 33.5t69 10.5q47 0 83.5 -15.5t59.5 -37.5t43 -44t45.5 -37.5t55.5 -15.5q88 0 88 127h102q0 -115 -52.5 -163t-133.5 -48q-48 0 -85.5 15.5t-60.5 37.5t-42.5 44t-43.5 37.5t-53 15.5q-88 0 -88 -127h-102
z" />
    <glyph glyph-name="uni2000" unicode="&#x2000;" horiz-adv-x="1024" 
 />
    <glyph glyph-name="uni2001" unicode="&#x2001;" horiz-adv-x="2048" 
 />
    <glyph glyph-name="uni2002" unicode="&#x2002;" horiz-adv-x="1024" 
 />
    <glyph glyph-name="uni2003" unicode="&#x2003;" horiz-adv-x="2048" 
 />
    <glyph glyph-name="uni2004" unicode="&#x2004;" horiz-adv-x="681" 
 />
    <glyph glyph-name="uni2005" unicode="&#x2005;" horiz-adv-x="512" 
 />
    <glyph glyph-name="uni2006" unicode="&#x2006;" horiz-adv-x="342" 
 />
    <glyph glyph-name="uni2007" unicode="&#x2007;" horiz-adv-x="1128" 
 />
    <glyph glyph-name="uni2008" unicode="&#x2008;" horiz-adv-x="393" 
 />
    <glyph glyph-name="uni2009" unicode="&#x2009;" horiz-adv-x="256" 
 />
    <glyph glyph-name="uni200A" unicode="&#x200a;" horiz-adv-x="86" 
 />
    <glyph glyph-name="uni200B" unicode="&#x200b;" horiz-adv-x="0" 
 />
    <glyph glyph-name="endash" unicode="&#x2013;" horiz-adv-x="1427" 
d="M61 723h1307v-92h-1307v92z" />
    <glyph glyph-name="emdash" unicode="&#x2014;" horiz-adv-x="2373" 
d="M61 723h2253v-92h-2253v92z" />
    <glyph glyph-name="quoteleft" unicode="&#x2018;" horiz-adv-x="303" 
d="M178 1163h-125l94 512h105z" />
    <glyph glyph-name="quoteright" unicode="&#x2019;" horiz-adv-x="301" 
d="M133 1675h125l-94 -512h-105z" />
    <glyph glyph-name="quotesinglbase" unicode="&#x201a;" horiz-adv-x="290" 
d="M102 268h125l-94 -512h-104z" />
    <glyph glyph-name="quotedblleft" unicode="&#x201c;" horiz-adv-x="501" 
d="M377 1163h-125l94 512h105zM53 1163l94 512h105l-74 -512h-125z" />
    <glyph glyph-name="quotedblright" unicode="&#x201d;" horiz-adv-x="499" 
d="M133 1675h125l-94 -512h-105zM258 1163l74 512h125l-95 -512h-104z" />
    <glyph glyph-name="quotedblbase" unicode="&#x201e;" horiz-adv-x="489" 
d="M102 268h125l-94 -512h-104zM225 -246l74 512h125l-94 -512h-105z" />
    <glyph glyph-name="dagger" unicode="&#x2020;" horiz-adv-x="462" 
d="M180 641v610h-117v95h117v309h103v-309h116v-95h-116v-610h-103z" />
    <glyph glyph-name="daggerdbl" unicode="&#x2021;" horiz-adv-x="501" 
d="M201 641v289h-117v94h117v227h-117v92h117v312h102v-312h117v-92h-117v-227h117v-94h-117v-289h-102z" />
    <glyph glyph-name="bullet" unicode="&#x2022;" horiz-adv-x="704" 
d="M352 479q-99 0 -165 63.5t-66 164.5q0 105 66 169t165 64q98 0 165 -64t67 -169q0 -101 -67.5 -164.5t-164.5 -63.5z" />
    <glyph glyph-name="ellipsis" unicode="&#x2026;" horiz-adv-x="1097" 
d="M197 -20q-58 0 -97 37t-39 96q0 62 39 99.5t97 37.5q57 0 96 -38t39 -99q0 -59 -39 -96t-96 -37zM416 113q0 62 38.5 99.5t96.5 37.5q57 0 96 -38t39 -99q0 -59 -39 -96t-96 -37q-58 0 -96.5 37t-38.5 96zM766 113q0 62 38.5 99.5t96.5 37.5q57 0 96 -38t39 -99
q0 -59 -39 -96t-96 -37q-58 0 -96.5 37t-38.5 96z" />
    <glyph glyph-name="uni202F" unicode="&#x202f;" horiz-adv-x="346" 
 />
    <glyph glyph-name="perthousand" unicode="&#x2030;" horiz-adv-x="2039" 
d="M1712 -20q-76 0 -134.5 28.5t-92.5 77.5t-51 107t-17 124t17 124.5t51 108t92.5 78.5t134.5 29q75 0 133.5 -29t92 -78.5t50.5 -108t17 -124.5q0 -65 -17 -123.5t-50.5 -107.5t-92 -77.5t-133.5 -28.5zM39 1337q0 65 17 124t50.5 107.5t92 77.5t133.5 29t133.5 -29
t93 -77.5t51.5 -107.5t17 -124t-17 -124t-51.5 -108.5t-93 -78.5t-133.5 -29t-133.5 29t-92 78.5t-50.5 108t-17 124.5zM188 1337q0 -200 144 -200q145 0 145 200q0 199 -145 199q-144 0 -144 -199zM291 0l684 1655h106l-684 -1655h-106zM750 317q0 66 17 124.5t50.5 108
t92 78.5t134.5 29q75 0 133.5 -29t92 -78.5t50.5 -108t17 -124.5q0 -65 -17 -123.5t-50.5 -107.5t-92 -77.5t-133.5 -28.5q-76 0 -134.5 28.5t-92 77.5t-50.5 107t-17 124zM899 317q0 -198 145 -198q144 0 144 198q0 201 -144 201q-145 0 -145 -201zM1567 317
q0 -198 145 -198q143 0 143 198q0 201 -143 201q-145 0 -145 -201z" />
    <glyph glyph-name="second" unicode="&#x2033;" horiz-adv-x="495" 
d="M86 1655h125v-512h-125v512zM287 1143v512h125v-512h-125z" />
    <glyph glyph-name="guilsinglleft" unicode="&#x2039;" horiz-adv-x="514" 
d="M418 291l-355 342v86l355 342v-139l-258 -246l258 -246v-139z" />
    <glyph glyph-name="guilsinglright" unicode="&#x203a;" horiz-adv-x="514" 
d="M96 291v139l258 246l-258 246v139l355 -342v-86z" />
    <glyph glyph-name="fraction" unicode="&#x2044;" horiz-adv-x="180" 
d="M467 1655l-670 -1655h-98l672 1655h96z" />
    <glyph glyph-name="uni205F" unicode="&#x205f;" horiz-adv-x="454" 
 />
    <glyph glyph-name="uni2070" unicode="&#x2070;" horiz-adv-x="583" 
d="M291 692q-116 0 -175 70t-59 201v307q0 130 59 200t175 70q117 0 176 -69.5t59 -200.5v-307q0 -131 -58.5 -201t-176.5 -70zM180 971l213 399q-20 70 -102 70q-111 0 -111 -142v-327zM193 852q26 -59 98 -59q57 0 84.5 34t27.5 109v311z" />
    <glyph glyph-name="uni2074" unicode="&#x2074;" horiz-adv-x="536" 
d="M436 1530v-567h66v-101h-66v-160h-121v160h-286v111l293 557h114zM121 963h194v368z" />
    <glyph glyph-name="uni2075" unicode="&#x2075;" horiz-adv-x="557" 
d="M324 1257q87 0 137.5 -54.5t50.5 -166.5v-92q0 -252 -233 -252q-111 0 -170.5 60.5t-59.5 177.5v26h123v-49q0 -114 109 -114q106 0 106 114v127q0 121 -100 121q-86 0 -111 -102h-121l25 477h395v-100h-285l-16 -256q50 83 150 83z" />
    <glyph glyph-name="uni2076" unicode="&#x2076;" horiz-adv-x="573" 
d="M289 692q-116 0 -173 63t-57 193v309q0 144 55 213.5t177 69.5q112 0 164.5 -57t52.5 -158v-16h-123v14q0 55 -22.5 81t-71.5 26q-56 0 -82.5 -30t-26.5 -95v-115q52 70 148 70q92 0 142 -59t50 -169v-100q0 -117 -59 -178.5t-174 -61.5zM182 909q0 -64 27.5 -90
t83.5 -26q54 0 80 27t26 87v131q0 117 -104 117q-55 0 -84 -30t-29 -85v-131z" />
    <glyph glyph-name="uni2077" unicode="&#x2077;" horiz-adv-x="487" 
d="M23 1430v100h434v-100q-66 -83 -109 -170.5t-63.5 -179.5t-27.5 -171.5t-7 -181.5v-25h-121v23q0 209 44.5 379.5t168.5 325.5h-319z" />
    <glyph glyph-name="uni2078" unicode="&#x2078;" horiz-adv-x="563" 
d="M283 692q-232 0 -232 211v45q0 165 117 195q-109 29 -109 164v39q0 92 56.5 143t167.5 51q110 0 165.5 -50.5t57.5 -143.5v-39q-3 -136 -111 -164q119 -32 119 -195v-45q0 -211 -231 -211zM174 897q0 -62 26 -84t83 -22t82 22t26 84v86q-1 58 -27 81t-81 23t-82 -23
t-27 -81v-86zM182 1280q0 -48 25 -69t76 -21q98 0 98 92v68q0 49 -24 70.5t-74 21.5q-52 0 -76.5 -21.5t-24.5 -70.5v-70z" />
    <glyph glyph-name="uni2079" unicode="&#x2079;" horiz-adv-x="573" 
d="M285 1540q229 0 229 -256v-309q0 -143 -54.5 -213t-174.5 -70q-114 0 -166.5 57.5t-52.5 157.5v17h122v-15q0 -54 23 -80t72 -26q56 0 82 29.5t26 95.5v114q-52 -69 -149 -69q-92 0 -142.5 59t-50.5 168v100q0 118 60 179t176 61zM174 1194q0 -117 105 -117q53 0 82.5 31
t29.5 84v131q0 63 -27 90t-81 27q-56 0 -82.5 -27t-26.5 -88v-131z" />
    <glyph glyph-name="uni2080" unicode="&#x2080;" horiz-adv-x="583" 
d="M291 -266q-116 0 -175 70t-59 200v307q0 131 59 201t175 70q117 0 176 -70t59 -201v-307q0 -131 -58.5 -200.5t-176.5 -69.5zM180 12l213 400q-20 69 -102 69q-111 0 -111 -141v-328zM193 -106q26 -60 98 -60q57 0 84.5 34t27.5 109v312z" />
    <glyph glyph-name="uni2081" unicode="&#x2081;" horiz-adv-x="464" 
d="M45 -156h139v584q-48 -55 -141 -55v108q104 0 152 90h108v-727h141v-100h-399v100z" />
    <glyph glyph-name="uni2082" unicode="&#x2082;" horiz-adv-x="557" 
d="M47 -145q0 101 36 168.5t128 121.5l76 50q53 30 76.5 68t23.5 99v17q0 57 -25 79.5t-77 22.5q-56 0 -82.5 -25t-26.5 -89v-60h-123v45q0 112 58 171t172 59q112 0 170.5 -58t58.5 -168q0 -169 -147 -250l-86 -55q-67 -37 -87 -78t-20 -129h338v-100h-463v111z" />
    <glyph glyph-name="uni2083" unicode="&#x2083;" horiz-adv-x="557" 
d="M276 -266q-118 0 -175 54.5t-58 170.5v41h123v-53q1 -65 27.5 -90t80.5 -25q57 0 83 26t26 83v69q0 109 -104 109h-84v100h81q103 0 103 98v62q0 57 -27 80.5t-78 23.5q-50 0 -76.5 -24t-27.5 -84v-49h-123v34q3 222 229 222q63 0 109.5 -19.5t70.5 -52t35 -66.5t11 -71
v-25q0 -135 -109 -174q113 -39 113 -188v-29q0 -223 -230 -223z" />
    <glyph glyph-name="uni2084" unicode="&#x2084;" horiz-adv-x="536" 
d="M436 571v-567h66v-100h-66v-160h-121v160h-286v110l293 557h114zM121 4h194v369z" />
    <glyph glyph-name="uni2085" unicode="&#x2085;" horiz-adv-x="557" 
d="M324 299q87 0 137.5 -54.5t50.5 -166.5v-92q0 -252 -233 -252q-111 0 -170.5 60t-59.5 177v27h123v-49q0 -115 109 -115q106 0 106 115v127q0 121 -100 121q-86 0 -111 -103h-121l25 477h395v-100h-285l-16 -256q50 84 150 84z" />
    <glyph glyph-name="uni2086" unicode="&#x2086;" horiz-adv-x="573" 
d="M289 -266q-116 0 -173 63t-57 193v309q0 144 55 213.5t177 69.5q112 0 164.5 -57t52.5 -158v-17h-123v15q0 54 -22.5 80t-71.5 26q-56 0 -82.5 -30t-26.5 -95v-115q52 70 148 70q92 0 142 -58.5t50 -168.5v-101q0 -117 -59 -178t-174 -61zM182 -49q0 -64 27.5 -90.5
t83.5 -26.5q54 0 80 27.5t26 87.5v131q0 117 -104 117q-55 0 -84 -30t-29 -85v-131z" />
    <glyph glyph-name="uni2087" unicode="&#x2087;" horiz-adv-x="485" 
d="M23 471v100h434v-100q-66 -83 -109 -170t-63.5 -179t-27.5 -171.5t-7 -181.5v-25h-121v23q0 209 44.5 379t168.5 325h-319z" />
    <glyph glyph-name="uni2088" unicode="&#x2088;" horiz-adv-x="563" 
d="M283 -266q-232 0 -232 211v45q0 164 117 194q-109 29 -109 164v39q0 93 56.5 144t167.5 51q110 0 165.5 -51t57.5 -144v-39q-3 -136 -111 -164q119 -32 119 -194v-45q0 -211 -231 -211zM174 -61q0 -62 26 -84.5t83 -22.5t82 22.5t26 84.5v86q-1 58 -27 81t-81 23t-82 -23
t-27 -81v-86zM182 322q0 -48 25 -69.5t76 -21.5q98 0 98 93v67q0 49 -24 70.5t-74 21.5q-52 0 -76.5 -21.5t-24.5 -70.5v-69z" />
    <glyph glyph-name="uni2089" unicode="&#x2089;" horiz-adv-x="573" 
d="M285 582q229 0 229 -256v-310q0 -143 -54 -212.5t-175 -69.5q-114 0 -166.5 57.5t-52.5 157.5v16h122v-14q0 -107 95 -107q56 0 82 29.5t26 95.5v115q-53 -70 -149 -70q-92 0 -142.5 59.5t-50.5 168.5v100q0 118 60 179t176 61zM174 236q0 -117 105 -117q53 0 82.5 30.5
t29.5 83.5v132q0 63 -27 89.5t-81 26.5q-56 0 -82.5 -26.5t-26.5 -87.5v-131z" />
    <glyph glyph-name="Euro" unicode="&#x20ac;" horiz-adv-x="1206" 
d="M78 707v81h133v78h-133v82h133v199q0 248 114 388t345 140q222 0 333.5 -130t116.5 -361v-205h-200v242q-3 152 -66.5 222t-183.5 70q-258 0 -258 -327v-238h360v-82h-360v-78h360v-81h-360v-236q0 -170 65 -250t193 -80q121 0 184 70.5t66 224.5v242h200v-205
q-5 -232 -116.5 -362.5t-333.5 -130.5q-231 0 -345 140t-114 390v197h-133z" />
    <glyph glyph-name="trademark" unicode="&#x2122;" horiz-adv-x="1220" 
d="M510 842v813h158l145 -598l148 598h155v-813h-129v518l-121 -518h-104l-123 520v-520h-129zM43 1524v131h422v-131h-146v-682h-131v682h-145z" />
    <glyph glyph-name="oneeighth" unicode="&#x215b;" horiz-adv-x="1439" 
d="M59 928h140v583q-48 -55 -142 -55v109q104 0 152 90h108v-727h142v-101h-400v101zM291 0l670 1655h98l-670 -1655h-98zM926 201v45q0 164 116 194q-108 28 -108 164v39q0 93 56.5 144t166.5 51t165.5 -51t57.5 -144v-39q-3 -136 -110 -164q119 -32 119 -194v-45
q0 -211 -232 -211q-231 0 -231 211zM1049 195q0 -62 25.5 -84.5t82.5 -22.5t82.5 22.5t26.5 84.5v86q-1 58 -27.5 81t-81.5 23t-81.5 -23t-26.5 -81v-86zM1057 578q0 -48 24.5 -69.5t75.5 -21.5q98 0 98 93v67q0 49 -24 70.5t-74 21.5q-52 0 -76 -21.5t-24 -70.5v-69z" />
    <glyph glyph-name="threeeighths" unicode="&#x215c;" horiz-adv-x="1521" 
d="M289 817q-118 0 -175.5 54.5t-58.5 170.5v41h123v-53q1 -64 28 -89.5t81 -25.5q57 0 82.5 26t25.5 83v70q0 63 -29 85.5t-75 22.5h-84v101h82q102 0 102 98v61q0 57 -26.5 81t-77.5 24q-50 0 -77 -24.5t-28 -84.5v-49h-123v35q3 221 230 221q63 0 109.5 -19.5t70.5 -52
t34.5 -66.5t10.5 -71v-24q0 -136 -108 -175q112 -39 112 -188v-29q0 -223 -229 -223zM371 0l669 1655h99l-670 -1655h-98zM1006 201v45q0 164 116 194q-108 28 -108 164v39q0 93 56.5 144t166.5 51t165.5 -51t57.5 -144v-39q-3 -136 -110 -164q118 -32 118 -194v-45
q0 -211 -231 -211t-231 211zM1128 195q0 -62 26 -84.5t83 -22.5t82.5 22.5t26.5 84.5v86q-1 58 -27.5 81t-81.5 23t-82 -23t-27 -81v-86zM1137 578q0 -48 24.5 -69.5t75.5 -21.5q98 0 98 93v67q0 49 -24 70.5t-74 21.5q-52 0 -76 -21.5t-24 -70.5v-69z" />
    <glyph glyph-name="fiveeighths" unicode="&#x215d;" horiz-adv-x="1513" 
d="M326 1382q87 0 137.5 -54.5t50.5 -166.5v-92q0 -252 -233 -252q-111 0 -170.5 60.5t-59.5 177.5v26h123v-49q0 -114 109 -114q106 0 106 114v127q0 121 -100 121q-86 0 -111 -102h-121l25 477h395v-101h-284l-17 -256q50 84 150 84zM362 0l670 1655h98l-669 -1655h-99z
M997 201v45q0 164 117 194q-108 28 -108 164v39q0 93 56.5 144t166.5 51t165.5 -51t57.5 -144v-39q-3 -136 -111 -164q119 -32 119 -194v-45q0 -211 -231 -211q-232 0 -232 211zM1120 195q0 -62 26 -84.5t83 -22.5t82 22.5t26 84.5v86q-1 58 -27 81t-81 23t-82 -23t-27 -81
v-86zM1128 578q0 -48 25 -69.5t76 -21.5q98 0 98 93v67q0 49 -24 70.5t-74 21.5q-52 0 -76.5 -21.5t-24.5 -70.5v-69z" />
    <glyph glyph-name="seveneighths" unicode="&#x215e;" horiz-adv-x="1447" 
d="M29 1554v101h434v-101q-66 -83 -109 -170t-63.5 -179t-27.5 -171.5t-7 -181.5v-25h-121v23q0 209 44.5 379t168.5 325h-319zM295 0l672 1655h96l-670 -1655h-98zM930 201v45q0 164 117 194q-109 29 -109 164v39q0 93 56.5 144t166.5 51t165.5 -51t57.5 -144v-39
q-3 -136 -110 -164q119 -32 119 -194v-45q0 -211 -232 -211q-231 0 -231 211zM1053 195q0 -62 25.5 -84.5t82.5 -22.5t82.5 22.5t26.5 84.5v86q-1 58 -27.5 81t-81.5 23t-81.5 -23t-26.5 -81v-86zM1061 578q0 -48 24.5 -69.5t75.5 -21.5q99 0 99 93v67q0 49 -24.5 70.5
t-74.5 21.5q-52 0 -76 -21.5t-24 -70.5v-69z" />
    <glyph glyph-name="arrowleft" unicode="&#x2190;" horiz-adv-x="1048" 
d="M215 635q100 -46 174.5 -137t91.5 -230h-104q-16 128 -109 226t-207 141v82q114 43 207 140.5t109 225.5h104q-17 -139 -91 -229.5t-175 -136.5h770v-82h-770z" />
    <glyph glyph-name="arrowup" unicode="&#x2191;" horiz-adv-x="929" 
d="M506 182h-82v770q-46 -100 -137 -174.5t-230 -91.5v105q128 16 226 108.5t141 206.5h82q43 -114 140.5 -206.5t225.5 -108.5v-105q-139 17 -229.5 91t-136.5 175v-770z" />
    <glyph glyph-name="arrowright" unicode="&#x2192;" horiz-adv-x="1048" 
d="M63 635v82h771q-101 46 -175.5 136.5t-91.5 229.5h105q16 -128 108.5 -225.5t206.5 -140.5v-82q-114 -43 -206.5 -141t-108.5 -226h-105q17 139 91.5 230t175.5 137h-771z" />
    <glyph glyph-name="arrowdown" unicode="&#x2193;" horiz-adv-x="931" 
d="M426 1171h82v-770q46 101 136.5 175.5t229.5 91.5v-105q-128 -16 -225.5 -108.5t-140.5 -206.5h-82q-43 114 -141 206.5t-226 108.5v105q139 -17 230 -91.5t137 -175.5v770z" />
    <glyph glyph-name="arrowboth" unicode="&#x2194;" horiz-adv-x="1335" 
d="M61 733q112 36 206 133t110 226h106q-19 -140 -94 -230.5t-174 -128.5h903q-98 38 -172.5 128.5t-93.5 230.5h104q16 -129 110 -226t206 -133v-98q-112 -36 -206 -133t-110 -226h-104q19 140 93.5 230.5t172.5 128.5h-903q99 -38 174 -128.5t94 -230.5h-106
q-16 129 -110 226t-206 133v98z" />
    <glyph glyph-name="arrowupdn" unicode="&#x2195;" horiz-adv-x="948" 
d="M522 1276q36 -112 133 -205.5t226 -109.5v-107q-140 19 -230.5 94t-128.5 174v-903q38 98 128.5 172.5t230.5 93.5v-104q-129 -16 -226 -109.5t-133 -205.5h-98q-36 112 -132.5 205.5t-225.5 109.5v104q140 -19 230 -93t128 -173v903q-38 -99 -128 -174t-230 -94v107
q129 16 225.5 109.5t132.5 205.5h98z" />
    <glyph glyph-name="uni2196" unicode="&#x2196;" horiz-adv-x="860" 
d="M811 373l-57 -60l-545 545q25 -66 30 -134.5t-19 -152.5t-83 -159l-74 73q54 69 73 160t7 171.5t-43 150.5l58 57q71 -32 151 -43.5t171 7.5t161 73l74 -74q-76 -59 -161 -83t-153 -18.5t-135 29.5z" />
    <glyph glyph-name="uni2197" unicode="&#x2197;" horiz-adv-x="860" 
d="M106 315l-57 58l545 545q-66 -25 -134.5 -30.5t-153.5 18t-161 81.5l74 74q70 -53 161 -71.5t171.5 -6.5t150.5 43l58 -57q-32 -71 -43.5 -152t7.5 -172t73 -160l-74 -73q-59 76 -83 160.5t-19 152.5t30 133z" />
    <glyph glyph-name="uni2198" unicode="&#x2198;" horiz-adv-x="860" 
d="M47 1020l59 57l545 -545q-25 66 -30.5 134.5t18 153.5t82.5 161l74 -74q-54 -70 -72 -161t-6.5 -171t43.5 -151l-60 -57q-70 31 -150 43t-171 -7t-160 -73l-74 73q76 59 160.5 83t153 19t133.5 -30z" />
    <glyph glyph-name="uni2199" unicode="&#x2199;" horiz-adv-x="862" 
d="M754 1077l59 -57l-545 -545q66 25 134.5 30.5t153 -18t159.5 -81.5l-74 -74q-69 53 -159.5 71.5t-171 6.5t-150.5 -43l-58 59q32 70 43.5 150t-7 171t-72.5 160l73 74q59 -76 83 -160.5t18.5 -152t-29.5 -133.5z" />
    <glyph glyph-name="uni21E7" unicode="&#x21e7;" horiz-adv-x="1703" 
d="M483 -14v604h-426l795 883l795 -883h-426v-604h-738zM287 692h299v-604h532v604h299l-565 629z" />
    <glyph glyph-name="partialdiff" unicode="&#x2202;" horiz-adv-x="1140" 
d="M557 -236q-237 0 -376.5 143.5t-139.5 385.5q0 73 14 140t50 134t90.5 116t143.5 79.5t202 30.5q281 0 405 -189q-53 268 -222.5 444t-481.5 281l39 92q153 -50 274 -117.5t219.5 -162t163.5 -213t100 -271t35 -335.5q0 -261 -133 -409.5t-383 -148.5zM143 293
q0 -202 111.5 -320t302.5 -118q105 0 185.5 34t129.5 96t74 144t25 182q0 106 -36.5 184.5t-99.5 122t-136 64t-158 20.5q-106 0 -184.5 -32.5t-124 -90t-67.5 -129t-22 -157.5z" />
    <glyph glyph-name="emptyset" unicode="&#x2205;" horiz-adv-x="1380" 
d="M692 272q-104 0 -190 21l-131 -293h-109l146 322q-162 64 -247 199t-85 306q0 113 38 211.5t112 175t194 120.5t272 44q102 0 185 -18l133 295h108l-147 -324q164 -64 249 -199t85 -305q0 -115 -38.5 -214t-112 -176t-192.5 -121t-270 -44zM178 827q0 -143 66 -255
t202 -166l392 868q-67 12 -146 12q-135 0 -237 -37.5t-161 -102.5t-87.5 -145t-28.5 -174zM541 379q66 -14 151 -14q134 0 234.5 37.5t159.5 103t87.5 146t28.5 175.5q0 142 -66 253.5t-202 164.5z" />
    <glyph glyph-name="product" unicode="&#x220f;" horiz-adv-x="1060" 
d="M723 -225v1554h-387v-1554h-103v1554h-206v86h1007v-86h-209v-1554h-102z" />
    <glyph glyph-name="summation" unicode="&#x2211;" horiz-adv-x="1052" 
d="M45 -236v84l500 744l-500 747v84h963v-84h-846l502 -745l-502 -746h846v-84h-963z" />
    <glyph glyph-name="minus" unicode="&#x2212;" horiz-adv-x="1142" 
d="M70 866h1007v-86h-1007v86z" />
    <glyph glyph-name="radical" unicode="&#x221a;" horiz-adv-x="1251" 
d="M389 -225l-332 733h111l281 -633l393 1538h366v-84h-286l-402 -1554h-131z" />
    <glyph glyph-name="infinity" unicode="&#x221e;" horiz-adv-x="1351" 
d="M1024 406q-94 0 -175 53t-173 149q-95 -97 -175.5 -149.5t-174.5 -52.5q-47 0 -89.5 15t-79.5 45.5t-59 84.5t-22 125t22 125.5t59.5 85t80 45t88.5 14.5q94 0 174.5 -53t175.5 -150q60 62 105.5 101t111.5 70.5t131 31.5q46 0 89 -15t80.5 -45t60 -84.5t22.5 -125.5
t-22 -125t-59 -84.5t-80 -45.5t-91 -15zM178 676q0 -82 40 -126t116 -44q68 0 130 43t146 127q-84 84 -146 127t-130 43q-156 0 -156 -170zM741 676q84 -84 147 -127t132 -43q75 0 114.5 44t39.5 126q0 80 -39 125t-117 45q-68 0 -132 -43.5t-145 -126.5z" />
    <glyph glyph-name="integral" unicode="&#x222b;" horiz-adv-x="733" 
d="M25 -236v84h45q78 0 127 16t74.5 52.5t34.5 82.5t9 120v944q0 86 14.5 147.5t51.5 111t106 74.5t172 25h50v-84h-45q-77 0 -126.5 -16t-75.5 -52.5t-35 -82.5t-9 -119v-944q0 -87 -14.5 -148t-51 -111t-106 -75t-172.5 -25h-49z" />
    <glyph glyph-name="approxequal" unicode="&#x2248;" horiz-adv-x="1189" 
d="M90 895q0 74 23 126.5t62 77.5t79 35.5t86 10.5q64 0 124.5 -20.5t107.5 -50.5t91.5 -59.5t94.5 -50t98 -20.5q67 0 106 38t39 110h105q0 -74 -23.5 -126.5t-63 -77.5t-79 -35.5t-84.5 -10.5q-64 0 -125 20.5t-108 50t-91.5 59t-94.5 50t-99 20.5q-66 0 -105.5 -37.5
t-39.5 -109.5h-103zM90 547q0 74 23 126.5t62 77.5t79 35.5t86 10.5q64 0 124.5 -20.5t107.5 -50.5t91.5 -59.5t94.5 -50t98 -20.5q68 0 106.5 37.5t38.5 109.5h105q0 -60 -16 -106t-41 -72.5t-59.5 -43t-66.5 -22t-67 -5.5q-64 0 -125 20.5t-108 50t-91.5 59t-94.5 50
t-99 20.5q-66 0 -105.5 -37.5t-39.5 -109.5h-103z" />
    <glyph glyph-name="notequal" unicode="&#x2260;" horiz-adv-x="1179" 
d="M326 305l155 359h-395v86h434l62 143h-496v86h535l155 358h105l-156 -358h369v-86h-408l-61 -143h469v-86h-508l-156 -359h-104z" />
    <glyph glyph-name="lessequal" unicode="&#x2264;" horiz-adv-x="1185" 
d="M86 891l1008 326v-103l-844 -264l844 -264v-158h-1008v86h913l-913 295v82z" />
    <glyph glyph-name="greaterequal" unicode="&#x2265;" horiz-adv-x="1185" 
d="M92 586l842 264l-842 264v103l1008 -326v-82l-914 -295h914v-86h-1008v158z" />
    <glyph glyph-name="uni2317" unicode="&#x2317;" horiz-adv-x="1490" 
d="M80 887v102h393v393h102v-393h340v393h103v-393h393v-102h-393v-340h393v-103h-393v-393h-103v393h-340v-393h-102v393h-393v103h393v340h-393zM575 547h340v340h-340v-340z" />
    <glyph glyph-name="uni2318" unicode="&#x2318;" horiz-adv-x="1576" 
d="M358 14q-124 0 -198 74t-74 199q0 134 92 208t271 74h90v295h-90q-179 0 -271 74.5t-92 208.5q0 125 74 198.5t198 73.5q134 0 208.5 -92t74.5 -270v-90h295v90q0 178 74.5 270t208.5 92q125 0 198.5 -73.5t73.5 -198.5q0 -134 -92 -208.5t-271 -74.5h-90v-295h90
q179 0 271 -74t92 -208q0 -125 -74 -199t-198 -74q-134 0 -208.5 92t-74.5 271v90h-295v-90q0 -179 -74.5 -271t-208.5 -92zM188 287q0 -88 41 -129t129 -41q96 0 138.5 59t42.5 201v90h-90q-143 0 -202 -42.5t-59 -137.5zM188 1147q0 -95 59 -137.5t202 -42.5h90v90
q0 142 -42.5 201t-138.5 59q-88 0 -129 -41t-41 -129zM641 569h295v295h-295v-295zM1038 377q0 -142 42.5 -201t138.5 -59q88 0 129 41t41 129q0 95 -59.5 137.5t-201.5 42.5h-90v-90zM1038 967h90q142 0 201.5 42.5t59.5 137.5q0 88 -41 129t-129 41q-96 0 -138.5 -59
t-42.5 -201v-90z" />
    <glyph glyph-name="uni2325" unicode="&#x2325;" horiz-adv-x="1564" 
d="M850 115l-490 1102h-333v102h399l492 -1102h540v-102h-608zM762 1217v102h696v-102h-696z" />
    <glyph glyph-name="filledbox" unicode="&#x25a0;" horiz-adv-x="1349" 
d="M115 158v1118h1118v-1118h-1118z" />
    <glyph glyph-name="uni25A1" unicode="&#x25a1;" horiz-adv-x="1349" 
d="M115 158v1118h1118v-1118h-1118zM217 260h913v914h-913v-914z" />
    <glyph glyph-name="triagup" unicode="&#x25b2;" horiz-adv-x="1427" 
d="M33 31l682 1179l680 -1179h-1362z" />
    <glyph glyph-name="uni25B3" unicode="&#x25b3;" horiz-adv-x="1492" 
d="M35 31l710 1231l711 -1231h-1421zM211 133h1067l-533 924z" />
    <glyph glyph-name="uni25B6" unicode="&#x25b6;" horiz-adv-x="1357" 
d="M123 1393l1180 -680l-1180 -682v1362z" />
    <glyph glyph-name="uni25B7" unicode="&#x25b7;" horiz-adv-x="1413" 
d="M121 -6v1421l1231 -710zM223 170l924 535l-924 532v-1067z" />
    <glyph glyph-name="triagdn" unicode="&#x25bc;" horiz-adv-x="1445" 
d="M1403 1210l-682 -1179l-680 1179h1362z" />
    <glyph glyph-name="uni25BD" unicode="&#x25bd;" horiz-adv-x="1503" 
d="M752 -20l-711 1230h1421zM219 1108l533 -924l534 924h-1067z" />
    <glyph glyph-name="uni25C0" unicode="&#x25c0;" horiz-adv-x="1357" 
d="M1237 31l-1180 682l1180 680v-1362z" />
    <glyph glyph-name="uni25C1" unicode="&#x25c1;" horiz-adv-x="1413" 
d="M1290 -6l-1231 711l1231 710v-1421zM264 705l924 -535v1067z" />
    <glyph glyph-name="uni25C6" unicode="&#x25c6;" horiz-adv-x="1462" 
d="M733 51l-667 666l667 667l666 -667z" />
    <glyph glyph-name="uni25C7" unicode="&#x25c7;" horiz-adv-x="1503" 
d="M752 29l-686 688l688 688l686 -688zM209 717l545 -543l542 543l-544 543z" />
    <glyph glyph-name="lozenge" unicode="&#x25ca;" horiz-adv-x="845" 
d="M350 1280h148l282 -614l-282 -615h-148l-282 615zM178 666l246 -535l246 535l-246 534z" />
    <glyph glyph-name="circle" unicode="&#x25cb;" horiz-adv-x="1400" 
d="M700 92q-127 0 -243 49.5t-199.5 133.5t-132.5 199.5t-49 242.5t49 242.5t132.5 199t199.5 133t243 49.5q169 0 312.5 -83.5t227 -227.5t83.5 -313t-83.5 -313t-227 -228t-312.5 -84zM178 717q0 -221 150.5 -370.5t371.5 -149.5q145 0 264.5 68t188 187.5t68.5 264.5
t-68.5 264.5t-188 187.5t-264.5 68q-221 0 -371.5 -149.5t-150.5 -370.5z" />
    <glyph glyph-name="uni25CF" unicode="&#x25cf;" horiz-adv-x="1400" 
d="M700 94q-127 0 -243 49.5t-199.5 133t-132.5 198.5t-49 242t49 242.5t132.5 199t199.5 133t243 49.5q169 0 312.5 -83.5t227 -227.5t83.5 -313t-83.5 -312.5t-227 -227t-312.5 -83.5z" />
    <glyph glyph-name="uni2B1B" unicode="&#x2b1b;" horiz-adv-x="2091" 
d="M184 -143v1720h1721v-1720h-1721z" />
    <glyph glyph-name="uni2B1C" unicode="&#x2b1c;" horiz-adv-x="2091" 
d="M184 -143v1720h1721v-1720h-1721zM287 -41h1515v1516h-1515v-1516z" />
    <glyph glyph-name="uni2B98" unicode="&#x2b98;" horiz-adv-x="1437" 
d="M1364 -39l-1288 744l1288 743l-322 -743zM281 705h649l217 499z" />
    <glyph glyph-name="uni2B99" unicode="&#x2b99;" horiz-adv-x="1523" 
d="M18 -27l744 1289l743 -1289l-743 322zM762 408l500 -218l-500 867v-649z" />
    <glyph glyph-name="uni2B9A" unicode="&#x2b9a;" horiz-adv-x="1437" 
d="M74 -39l321 744l-321 743l1288 -743zM291 1204l217 -499h649z" />
    <glyph glyph-name="uni2B9B" unicode="&#x2b9b;" horiz-adv-x="1527" 
d="M764 -20l-744 1288l744 -322l743 322zM264 1051l500 -867v650z" />
    <glyph glyph-name="uni2B9C" unicode="&#x2b9c;" horiz-adv-x="1335" 
d="M1253 31l-1179 682l1179 680l-295 -680z" />
    <glyph glyph-name="uni2B9D" unicode="&#x2b9d;" horiz-adv-x="1409" 
d="M25 31l682 1179l679 -1179l-679 295z" />
    <glyph glyph-name="uni2B9E" unicode="&#x2b9e;" horiz-adv-x="1335" 
d="M82 31l295 682l-295 680l1180 -680z" />
    <glyph glyph-name="uni2B9F" unicode="&#x2b9f;" horiz-adv-x="1411" 
d="M705 31l-680 1179l680 -295l681 295z" />
    <glyph glyph-name="uni3000" unicode="&#x3000;" horiz-adv-x="2048" 
 />
    <glyph glyph-name="uni004A0301" horiz-adv-x="1017" 
d="M477 -20q-221 0 -325.5 126t-104.5 373v119h199v-158q0 -164 58 -231.5t173 -67.5q114 0 173 66.5t59 228.5v1219h198v-1180q0 -495 -430 -495zM471 1864l645 151l21 -80l-645 -149z" />
    <glyph glyph-name="I.bracket" horiz-adv-x="538" 
d="M172 0v1655h195v-1655h-195z" />
    <glyph glyph-name="A.ss01" horiz-adv-x="1560" 
d="M25 0l630 1655h248l633 -1655h-209l-127 342h-840l-127 -342h-208zM426 516h709l-344 922l-13 30l-10 -30z" />
    <glyph glyph-name="Aacute.ss01" horiz-adv-x="1560" 
d="M25 0l630 1655h248l633 -1655h-209l-127 342h-840l-127 -342h-208zM274 1855l990 152l20 -80l-989 -151zM426 516h709l-344 922l-13 30l-10 -30z" />
    <glyph glyph-name="Abreve.ss01" horiz-adv-x="1560" 
d="M25 0l630 1655h248l633 -1655h-209l-127 342h-840l-127 -342h-208zM324 2015h102q0 -43 25.5 -73t75.5 -46t111 -23t144 -7q82 0 142.5 6.5t109.5 23t74 46.5t25 73h102q0 -68 -31.5 -115t-93.5 -73.5t-141 -37.5t-187 -11t-188 11t-143 37.5t-95 73.5t-32 115zM426 516
h709l-344 922l-13 30l-10 -30z" />
    <glyph glyph-name="Acircumflex.ss01" horiz-adv-x="1560" 
d="M25 0l630 1655h248l633 -1655h-209l-127 342h-840l-127 -342h-208zM338 1745l375 262h143l367 -262h-176l-263 197l-270 -197h-176zM426 516h709l-344 922l-13 30l-10 -30z" />
    <glyph glyph-name="Adieresis.ss01" horiz-adv-x="1560" 
d="M25 0l630 1655h248l633 -1655h-209l-127 342h-840l-127 -342h-208zM369 1880q0 44 27 70t65 26q39 0 66.5 -26t27.5 -70q0 -39 -28 -64.5t-66 -25.5t-65 25.5t-27 64.5zM426 516h709l-344 922l-13 30l-10 -30zM1004 1880q0 44 27 70t67 26q39 0 66.5 -26t27.5 -70
q0 -39 -28 -64.5t-66 -25.5q-39 0 -66.5 25.5t-27.5 64.5z" />
    <glyph glyph-name="Agrave.ss01" horiz-adv-x="1560" 
d="M25 0l630 1655h248l633 -1655h-209l-127 342h-840l-127 -342h-208zM274 1927l21 80l989 -152l-20 -79zM426 516h709l-344 922l-13 30l-10 -30z" />
    <glyph glyph-name="Amacron.ss01" horiz-adv-x="1560" 
d="M25 0l630 1655h248l633 -1655h-209l-127 342h-840l-127 -342h-208zM274 1851v82h1010v-82h-1010zM426 516h709l-344 922l-13 30l-10 -30z" />
    <glyph glyph-name="Aogonek.ss01" horiz-adv-x="1560" 
d="M25 0l630 1655h248l633 -1655h-2q-108 -36 -160.5 -82.5t-52.5 -112.5q0 -63 56 -91.5t186 -28.5h24l-82 -95h-22q-125 0 -199 47.5t-74 139.5q0 47 19.5 84.5t55.5 63.5t73 43t86 32h-117l-127 342h-840l-127 -342h-208zM426 516h709l-344 922l-13 30l-10 -30z" />
    <glyph glyph-name="Aring.ss01" horiz-adv-x="1560" 
d="M25 0l630 1655h248l633 -1655h-209l-127 342h-840l-127 -342h-208zM426 516h709l-344 922l-13 30l-10 -30zM614 1913q0 71 49.5 118.5t116.5 47.5t116.5 -47.5t49.5 -118.5t-49.5 -118.5t-116.5 -47.5t-116.5 47.5t-49.5 118.5zM698 1913q0 -37 22 -59.5t60 -22.5
t60 22.5t22 59.5t-22 59.5t-60 22.5t-60 -22.5t-22 -59.5z" />
    <glyph glyph-name="Atilde.ss01" horiz-adv-x="1560" 
d="M25 0l630 1655h248l633 -1655h-209l-127 342h-840l-127 -342h-208zM332 1786q0 105 64.5 167t183.5 62q58 0 103.5 -16t76 -38.5t59 -45.5t67 -39t85.5 -16q76 0 114.5 37t38.5 102h103q0 -108 -66.5 -169t-189.5 -61q-61 0 -109.5 16t-79.5 39t-59 46t-64 39t-79 16
q-72 0 -109 -39t-37 -100h-102zM426 516h709l-344 922l-13 30l-10 -30z" />
    <glyph glyph-name="B.ss01" horiz-adv-x="1615" 
d="M152 0v1655h837q233 0 355 -98.5t122 -317.5v-20q0 -268 -215 -345q124 -34 201.5 -135.5t77.5 -261.5v-20q0 -227 -134 -342t-382 -115h-862zM348 174h647q167 0 248.5 68.5t81.5 220.5v31q0 152 -85 214t-253 62h-639v-596zM348 946h598q160 0 238 60.5t78 197.5v27
q0 66 -16 112.5t-41 73t-67 41t-82.5 19t-99.5 4.5h-608v-535z" />
    <glyph glyph-name="C.ss01" horiz-adv-x="1701" 
d="M868 -20q-151 0 -278 39t-218.5 109t-155.5 166t-95 209.5t-31 239.5v172q0 157 50.5 293.5t146 241.5t246 165t337.5 60q169 0 308 -47.5t231.5 -131t146 -194.5t62.5 -241l2 -86h-207l-2 94q-14 199 -153 314.5t-386 115.5q-144 0 -255.5 -42.5t-182 -120t-106 -181.5
t-35.5 -231v-191q0 -264 146.5 -419.5t430.5 -155.5q249 0 388 114.5t153 313.5l2 96h207l-2 -86q-8 -128 -61 -239t-145.5 -195.5t-232.5 -133t-311 -48.5z" />
    <glyph glyph-name="Cacute.ss01" horiz-adv-x="1701" 
d="M868 -20q-151 0 -278 39t-218.5 109t-155.5 166t-95 209.5t-31 239.5v172q0 157 50.5 293.5t146 241.5t246 165t337.5 60q169 0 308 -47.5t231.5 -131t146 -194.5t62.5 -241l2 -86h-207l-2 94q-14 199 -153 314.5t-386 115.5q-144 0 -255.5 -42.5t-182 -120t-106 -181.5
t-35.5 -231v-191q0 -264 146.5 -419.5t430.5 -155.5q249 0 388 114.5t153 313.5l2 96h207l-2 -86q-8 -128 -61 -239t-145.5 -195.5t-232.5 -133t-311 -48.5zM350 1855l989 152l21 -80l-989 -151z" />
    <glyph glyph-name="Ccaron.ss01" horiz-adv-x="1701" 
d="M868 -20q-151 0 -278 39t-218.5 109t-155.5 166t-95 209.5t-31 239.5v172q0 157 50.5 293.5t146 241.5t246 165t337.5 60q169 0 308 -47.5t231.5 -131t146 -194.5t62.5 -241l2 -86h-207l-2 94q-14 199 -153 314.5t-386 115.5q-144 0 -255.5 -42.5t-182 -120t-106 -181.5
t-35.5 -231v-191q0 -264 146.5 -419.5t430.5 -155.5q249 0 388 114.5t153 313.5l2 96h207l-2 -86q-8 -128 -61 -239t-145.5 -195.5t-232.5 -133t-311 -48.5zM412 2040h176l270 -197l262 197h176l-366 -262h-144z" />
    <glyph glyph-name="Ccedilla.ss01" horiz-adv-x="1701" 
d="M721 -338q143 0 200.5 15t57.5 63q0 51 -56 60t-165 -9l47 191q-173 10 -310.5 74t-225 167.5t-133.5 236t-46 283.5v172q0 157 50.5 293.5t146 241.5t246 165t337.5 60q169 0 308 -47.5t231.5 -131t146 -194.5t62.5 -241l2 -86h-207l-2 94q-14 199 -153 314.5
t-386 115.5q-144 0 -255.5 -42.5t-182 -120t-106 -181.5t-35.5 -231v-191q0 -264 146.5 -419.5t430.5 -155.5q249 0 388 114.5t153 313.5l2 96h207l-2 -86q-8 -125 -59 -234t-140 -193t-223 -134.5t-297 -54.5l-29 -111q224 30 224 -127q0 -89 -87 -127.5t-288 -38.5z" />
    <glyph glyph-name="Cdotaccent.ss01" horiz-adv-x="1701" 
d="M868 -20q-151 0 -278 39t-218.5 109t-155.5 166t-95 209.5t-31 239.5v172q0 157 50.5 293.5t146 241.5t246 165t337.5 60q169 0 308 -47.5t231.5 -131t146 -194.5t62.5 -241l2 -86h-207l-2 94q-14 199 -153 314.5t-386 115.5q-144 0 -255.5 -42.5t-182 -120t-106 -181.5
t-35.5 -231v-191q0 -264 146.5 -419.5t430.5 -155.5q249 0 388 114.5t153 313.5l2 96h207l-2 -86q-8 -128 -61 -239t-145.5 -195.5t-232.5 -133t-311 -48.5zM733 1872q0 48 33 80.5t88 32.5q56 0 88.5 -32.5t32.5 -80.5q0 -45 -32.5 -77t-88.5 -32q-55 0 -88 32t-33 77z" />
    <glyph glyph-name="D.ss01" horiz-adv-x="1665" 
d="M152 0v1655h696q167 0 297.5 -43t226 -131.5t145.5 -232t50 -337.5v-168q0 -193 -50.5 -336.5t-146 -232t-225.5 -131.5t-297 -43h-696zM348 172h498q270 0 394 138.5t124 426.5v181q0 288 -124 426.5t-394 138.5h-498v-1311z" />
    <glyph glyph-name="Eth.ss01" horiz-adv-x="1808" 
d="M295 0v799h-262v110h262v746h696q167 0 297.5 -43t226 -131.5t145.5 -232t50 -337.5v-168q0 -193 -50.5 -336.5t-146 -232t-225.5 -131.5t-297 -43h-696zM492 172h497q270 0 394 138.5t124 426.5v181q0 288 -124 426.5t-394 138.5h-497v-574h600v-110h-600v-627z" />
    <glyph glyph-name="Dcaron.ss01" horiz-adv-x="1665" 
d="M152 0v1655h696q167 0 297.5 -43t226 -131.5t145.5 -232t50 -337.5v-168q0 -193 -50.5 -336.5t-146 -232t-225.5 -131.5t-297 -43h-696zM348 172h498q270 0 394 138.5t124 426.5v181q0 288 -124 426.5t-394 138.5h-498v-1311zM389 2040h176l271 -197l262 197h176
l-367 -262h-143z" />
    <glyph glyph-name="Dcroat.ss01" horiz-adv-x="1808" 
d="M295 0v799h-262v110h262v746h696q167 0 297.5 -43t226 -131.5t145.5 -232t50 -337.5v-168q0 -193 -50.5 -336.5t-146 -232t-225.5 -131.5t-297 -43h-696zM492 172h497q270 0 394 138.5t124 426.5v181q0 288 -124 426.5t-394 138.5h-497v-574h600v-110h-600v-627z" />
    <glyph glyph-name="E.ss01" horiz-adv-x="1413" 
d="M152 0v1655h1171v-174h-975v-568h928v-172h-928v-567h975v-174h-1171z" />
    <glyph glyph-name="Eacute.ss01" horiz-adv-x="1413" 
d="M152 0v1655h1171v-174h-975v-568h928v-172h-928v-567h975v-174h-1171zM201 1855l989 152l20 -80l-989 -151z" />
    <glyph glyph-name="Ecaron.ss01" horiz-adv-x="1413" 
d="M152 0v1655h1171v-174h-975v-568h928v-172h-928v-567h975v-174h-1171zM262 2040h176l271 -197l262 197h176l-367 -262h-143z" />
    <glyph glyph-name="Ecircumflex.ss01" horiz-adv-x="1413" 
d="M152 0v1655h1171v-174h-975v-568h928v-172h-928v-567h975v-174h-1171zM262 1745l375 262h143l367 -262h-176l-262 197l-271 -197h-176z" />
    <glyph glyph-name="Edieresis.ss01" horiz-adv-x="1413" 
d="M152 0v1655h1171v-174h-975v-568h928v-172h-928v-567h975v-174h-1171zM295 1880q0 44 27 70t65 26q39 0 66.5 -26t27.5 -70q0 -39 -28 -64.5t-66 -25.5t-65 25.5t-27 64.5zM930 1880q0 44 27 70t67 26q39 0 66.5 -26t27.5 -70q0 -39 -28 -64.5t-66 -25.5
q-39 0 -66.5 25.5t-27.5 64.5z" />
    <glyph glyph-name="Edotaccent.ss01" horiz-adv-x="1413" 
d="M152 0v1655h1171v-174h-975v-568h928v-172h-928v-567h975v-174h-1171zM586 1872q0 48 33 80.5t88 32.5q56 0 88 -32.5t32 -80.5q0 -45 -32 -77t-88 -32q-55 0 -88 32t-33 77z" />
    <glyph glyph-name="Egrave.ss01" horiz-adv-x="1413" 
d="M152 0v1655h1171v-174h-975v-568h928v-172h-928v-567h975v-174h-1171zM201 1927l20 80l989 -152l-20 -79z" />
    <glyph glyph-name="Emacron.ss01" horiz-adv-x="1413" 
d="M152 0v1655h1171v-174h-975v-568h928v-172h-928v-567h975v-174h-1171zM201 1851v82h1009v-82h-1009z" />
    <glyph glyph-name="Eogonek.ss01" horiz-adv-x="1413" 
d="M152 0v1655h1171v-174h-975v-568h928v-172h-928v-567h975v-174q-108 -36 -160.5 -82.5t-52.5 -112.5q0 -63 56 -91.5t186 -28.5h24l-82 -95h-22q-125 0 -199 47.5t-74 139.5q0 47 19.5 84.5t55.5 63.5t73 43t86 32h-1081z" />
    <glyph glyph-name="F.ss01" horiz-adv-x="1386" 
d="M152 0v1655h1189v-174h-993v-639h936v-174h-936v-668h-196z" />
    <glyph glyph-name="G.ss01" horiz-adv-x="1734" 
d="M842 -20q-143 0 -265 39t-210.5 109t-151 165.5t-93 209t-30.5 238.5v174q0 125 30.5 238t94.5 208.5t154.5 165t218 109t278.5 39.5q165 0 303.5 -48t231.5 -130.5t147.5 -189.5t63.5 -228l2 -57h-207v68q-15 185 -160 297t-377 112q-146 0 -258.5 -44t-181 -123
t-103 -181.5t-34.5 -224.5v-193q0 -126 35 -230t102.5 -181.5t174.5 -120.5t245 -43q244 0 393.5 122t161.5 338v62h-676v162h885v-842h-135l-21 311q-84 -153 -240 -242t-378 -89z" />
    <glyph glyph-name="Gbreve.ss01" horiz-adv-x="1734" 
d="M842 -20q-143 0 -265 39t-210.5 109t-151 165.5t-93 209t-30.5 238.5v174q0 125 30.5 238t94.5 208.5t154.5 165t218 109t278.5 39.5q165 0 303.5 -48t231.5 -130.5t147.5 -189.5t63.5 -228l2 -57h-207v68q-15 185 -160 297t-377 112q-146 0 -258.5 -44t-181 -123
t-103 -181.5t-34.5 -224.5v-193q0 -126 35 -230t102.5 -181.5t174.5 -120.5t245 -43q244 0 393.5 122t161.5 338v62h-676v162h885v-842h-135l-21 311q-84 -153 -240 -242t-378 -89zM412 2015h102q0 -43 25.5 -73t75.5 -46t111 -23t144 -7q82 0 142.5 6.5t109.5 23t74 46.5
t25 73h102q0 -68 -31.5 -115t-93.5 -73.5t-141 -37.5t-187 -11t-188 11t-143 37.5t-95 73.5t-32 115z" />
    <glyph glyph-name="uni0122.ss01" horiz-adv-x="1734" 
d="M842 -20q-143 0 -265 39t-210.5 109t-151 165.5t-93 209t-30.5 238.5v174q0 125 30.5 238t94.5 208.5t154.5 165t218 109t278.5 39.5q165 0 303.5 -48t231.5 -130.5t147.5 -189.5t63.5 -228l2 -57h-207v68q-15 185 -160 297t-377 112q-146 0 -258.5 -44t-181 -123
t-103 -181.5t-34.5 -224.5v-193q0 -126 35 -230t102.5 -181.5t174.5 -120.5t245 -43q244 0 393.5 122t161.5 338v62h-676v162h885v-842h-135l-21 311q-84 -153 -240 -242t-378 -89zM766 -172q0 42 28.5 71t73.5 29t73 -30.5t28 -90.5q0 -72 -44 -134t-132 -105v84
q99 38 122 121q-27 -35 -65 -35q-34 0 -59 25t-25 65z" />
    <glyph glyph-name="Gdotaccent.ss01" horiz-adv-x="1734" 
d="M842 -20q-143 0 -265 39t-210.5 109t-151 165.5t-93 209t-30.5 238.5v174q0 125 30.5 238t94.5 208.5t154.5 165t218 109t278.5 39.5q165 0 303.5 -48t231.5 -130.5t147.5 -189.5t63.5 -228l2 -57h-207v68q-15 185 -160 297t-377 112q-146 0 -258.5 -44t-181 -123
t-103 -181.5t-34.5 -224.5v-193q0 -126 35 -230t102.5 -181.5t174.5 -120.5t245 -43q244 0 393.5 122t161.5 338v62h-676v162h885v-842h-135l-21 311q-84 -153 -240 -242t-378 -89zM745 1872q0 48 33 80.5t88 32.5q56 0 88.5 -32.5t32.5 -80.5q0 -45 -32.5 -77t-88.5 -32
q-55 0 -88 32t-33 77z" />
    <glyph glyph-name="H.ss01" horiz-adv-x="1656" 
d="M1309 0v741h-961v-741h-196v1655h196v-742h961v742h196v-1655h-196z" />
    <glyph glyph-name="Hbar.ss01" horiz-adv-x="1884" 
d="M1421 0v741h-960v-741h-197v1180h-211v114h211v361h197v-361h960v361h197v-361h213v-114h-213v-1180h-197zM461 913h960v267h-960v-267z" />
    <glyph glyph-name="I.ss01" horiz-adv-x="1202" 
d="M72 0v176h432v1303h-432v176h1058v-176h-430v-1303h430v-176h-1058z" />
    <glyph glyph-name="Iacute.ss01" horiz-adv-x="1202" 
d="M72 0v176h432v1303h-432v176h1058v-176h-430v-1303h430v-176h-1058zM96 1855l989 152l21 -80l-989 -151z" />
    <glyph glyph-name="Icircumflex.ss01" horiz-adv-x="1202" 
d="M72 0v176h432v1303h-432v176h1058v-176h-430v-1303h430v-176h-1058zM158 1745l374 262h144l366 -262h-176l-262 197l-270 -197h-176z" />
    <glyph glyph-name="Idieresis.ss01" horiz-adv-x="1202" 
d="M72 0v176h432v1303h-432v176h1058v-176h-430v-1303h430v-176h-1058zM190 1880q0 44 27 70t66 26t66.5 -26t27.5 -70q0 -39 -28 -64.5t-66 -25.5t-65.5 25.5t-27.5 64.5zM825 1880q0 44 27.5 70t67.5 26q39 0 66.5 -26t27.5 -70q0 -39 -28 -64.5t-66 -25.5q-39 0 -67 25.5
t-28 64.5z" />
    <glyph glyph-name="Idotaccent.ss01" horiz-adv-x="1202" 
d="M72 0v176h432v1303h-432v176h1058v-176h-430v-1303h430v-176h-1058zM479 1872q0 48 33 80.5t88 32.5q56 0 88.5 -32.5t32.5 -80.5q0 -45 -32.5 -77t-88.5 -32q-55 0 -88 32t-33 77z" />
    <glyph glyph-name="Igrave.ss01" horiz-adv-x="1202" 
d="M72 0v176h432v1303h-432v176h1058v-176h-430v-1303h430v-176h-1058zM96 1927l21 80l989 -152l-21 -79z" />
    <glyph glyph-name="Imacron.ss01" horiz-adv-x="1202" 
d="M72 0v176h432v1303h-432v176h1058v-176h-430v-1303h430v-176h-1058zM96 1851v82h1010v-82h-1010z" />
    <glyph glyph-name="Iogonek.ss01" horiz-adv-x="1202" 
d="M72 0v176h432v1303h-432v176h1058v-176h-430v-1303h430v-176h3q-108 -36 -160.5 -82.5t-52.5 -112.5q0 -64 56 -92t185 -28h25l-82 -95h-23q-125 0 -198.5 47.5t-73.5 139.5q0 47 19.5 84.5t55 63.5t72.5 43t86 32h-970z" />
    <glyph glyph-name="J.ss01" horiz-adv-x="1470" 
d="M690 -20q-335 0 -488 164t-153 499v35h201v-45q0 -257 104 -368t336 -111q225 0 334 107.5t109 352.5v1041h198v-1030q0 -322 -154 -483.5t-487 -161.5z" />
    <glyph glyph-name="K.ss01" horiz-adv-x="1525" 
d="M1266 0l-774 739h-144v-739h-196v1655h196v-740h144l774 740h260l-881 -828l881 -827h-260z" />
    <glyph glyph-name="uni0136.ss01" horiz-adv-x="1525" 
d="M1266 0l-774 739h-144v-739h-196v1655h196v-740h144l774 740h260l-881 -828l881 -827h-260zM696 -172q0 42 29 71t74 29t72.5 -30.5t27.5 -90.5q0 -72 -44 -134t-132 -105v84q101 38 123 121q-27 -35 -66 -35q-34 0 -59 25t-25 65z" />
    <glyph glyph-name="L.ss01" horiz-adv-x="1345" 
d="M152 0v1655h196v-1481h965v-174h-1161z" />
    <glyph glyph-name="Lacute.ss01" horiz-adv-x="1345" 
d="M152 0v1655h196v-1481h965v-174h-1161zM180 1855l989 152l21 -80l-989 -151z" />
    <glyph glyph-name="Lcaron.ss01" horiz-adv-x="1353" 
d="M152 0v1655h196v-1481h965v-174h-1161zM672 1182l53 473h125l-90 -473h-88z" />
    <glyph glyph-name="uni013B.ss01" horiz-adv-x="1345" 
d="M152 0v1655h196v-1481h965v-174h-1161zM592 -172q0 42 28.5 71t73.5 29t73 -30.5t28 -90.5q0 -71 -44.5 -133.5t-132.5 -105.5v84q101 38 123 121q-27 -35 -65 -35q-34 0 -59 25t-25 65z" />
    <glyph glyph-name="Lslash.ss01" horiz-adv-x="1482" 
d="M291 0v690l-248 -86v127l248 86v838h196v-770l519 178v-127l-519 -178v-584h965v-174h-1161z" />
    <glyph glyph-name="M.ss01" horiz-adv-x="1976" 
d="M152 0v1655h219l616 -1352l617 1352h219v-1655h-187v1288l-589 -1288h-119l-588 1288v-1288h-188z" />
    <glyph glyph-name="N.ss01" horiz-adv-x="1695" 
d="M152 0v1655h192l1010 -1346v1346h190v-1655h-194l-1008 1346v-1346h-190z" />
    <glyph glyph-name="Nacute.ss01" horiz-adv-x="1695" 
d="M152 0v1655h192l1010 -1346v1346h190v-1655h-194l-1008 1346v-1346h-190zM342 1855l989 152l21 -80l-990 -151z" />
    <glyph glyph-name="Ncaron.ss01" horiz-adv-x="1695" 
d="M152 0v1655h192l1010 -1346v1346h190v-1655h-194l-1008 1346v-1346h-190zM403 2040h177l270 -197l262 197h176l-366 -262h-144z" />
    <glyph glyph-name="uni0145.ss01" horiz-adv-x="1695" 
d="M152 0v1655h192l1010 -1346v1346h190v-1655h-194l-1008 1346v-1346h-190zM748 -172q0 42 28.5 71t73.5 29t72.5 -30.5t27.5 -90.5q0 -72 -44 -134t-132 -105v84q101 38 123 121q-27 -35 -66 -35q-34 0 -58.5 25t-24.5 65z" />
    <glyph glyph-name="Ntilde.ss01" horiz-adv-x="1695" 
d="M152 0v1655h192l1010 -1346v1346h190v-1655h-194l-1008 1346v-1346h-190zM399 1786q0 105 64.5 167t183.5 62q58 0 103.5 -16t76 -38.5t59 -45.5t67 -39t85.5 -16q76 0 115 37t39 102h102q0 -108 -66.5 -169t-189.5 -61q-61 0 -109.5 16t-79.5 39t-59 46t-64 39t-79 16
q-71 0 -108 -39t-37 -100h-103z" />
    <glyph glyph-name="O.ss01" horiz-adv-x="1736" 
d="M868 -20q-150 0 -277 39.5t-218.5 109.5t-155.5 166t-95.5 209t-31.5 237v174q0 156 50.5 292t145.5 241t245 166t337 61t337 -61t245.5 -166t146 -241t50.5 -292v-174q0 -124 -31.5 -237t-96 -209t-156 -166t-218.5 -109.5t-277 -39.5zM293 733q0 -123 36.5 -227
t106 -182t180.5 -122t252 -44q187 0 319 77t194.5 205t62.5 293v191q0 121 -36.5 224.5t-106.5 182.5t-181 123.5t-252 44.5q-113 0 -207.5 -29t-161.5 -81t-114 -124t-69.5 -157.5t-22.5 -181.5v-193z" />
    <glyph glyph-name="Oacute.ss01" horiz-adv-x="1736" 
d="M868 -20q-150 0 -277 39.5t-218.5 109.5t-155.5 166t-95.5 209t-31.5 237v174q0 156 50.5 292t145.5 241t245 166t337 61t337 -61t245.5 -166t146 -241t50.5 -292v-174q0 -124 -31.5 -237t-96 -209t-156 -166t-218.5 -109.5t-277 -39.5zM293 733q0 -123 36.5 -227
t106 -182t180.5 -122t252 -44q187 0 319 77t194.5 205t62.5 293v191q0 121 -36.5 224.5t-106.5 182.5t-181 123.5t-252 44.5q-113 0 -207.5 -29t-161.5 -81t-114 -124t-69.5 -157.5t-22.5 -181.5v-193zM362 1855l990 152l20 -80l-989 -151z" />
    <glyph glyph-name="Ocircumflex.ss01" horiz-adv-x="1736" 
d="M868 -20q-150 0 -277 39.5t-218.5 109.5t-155.5 166t-95.5 209t-31.5 237v174q0 156 50.5 292t145.5 241t245 166t337 61t337 -61t245.5 -166t146 -241t50.5 -292v-174q0 -124 -31.5 -237t-96 -209t-156 -166t-218.5 -109.5t-277 -39.5zM293 733q0 -123 36.5 -227
t106 -182t180.5 -122t252 -44q187 0 319 77t194.5 205t62.5 293v191q0 121 -36.5 224.5t-106.5 182.5t-181 123.5t-252 44.5q-113 0 -207.5 -29t-161.5 -81t-114 -124t-69.5 -157.5t-22.5 -181.5v-193zM426 1745l375 262h143l367 -262h-176l-263 197l-270 -197h-176z" />
    <glyph glyph-name="Odieresis.ss01" horiz-adv-x="1736" 
d="M868 -20q-150 0 -277 39.5t-218.5 109.5t-155.5 166t-95.5 209t-31.5 237v174q0 156 50.5 292t145.5 241t245 166t337 61t337 -61t245.5 -166t146 -241t50.5 -292v-174q0 -124 -31.5 -237t-96 -209t-156 -166t-218.5 -109.5t-277 -39.5zM293 733q0 -123 36.5 -227
t106 -182t180.5 -122t252 -44q187 0 319 77t194.5 205t62.5 293v191q0 121 -36.5 224.5t-106.5 182.5t-181 123.5t-252 44.5q-113 0 -207.5 -29t-161.5 -81t-114 -124t-69.5 -157.5t-22.5 -181.5v-193zM457 1880q0 44 27 70t65 26q39 0 66.5 -26t27.5 -70q0 -39 -28 -64.5
t-66 -25.5t-65 25.5t-27 64.5zM1092 1880q0 44 27 70t67 26q39 0 66.5 -26t27.5 -70q0 -39 -28 -64.5t-66 -25.5q-39 0 -66.5 25.5t-27.5 64.5z" />
    <glyph glyph-name="Ograve.ss01" horiz-adv-x="1736" 
d="M868 -20q-150 0 -277 39.5t-218.5 109.5t-155.5 166t-95.5 209t-31.5 237v174q0 156 50.5 292t145.5 241t245 166t337 61t337 -61t245.5 -166t146 -241t50.5 -292v-174q0 -124 -31.5 -237t-96 -209t-156 -166t-218.5 -109.5t-277 -39.5zM293 733q0 -123 36.5 -227
t106 -182t180.5 -122t252 -44q187 0 319 77t194.5 205t62.5 293v191q0 121 -36.5 224.5t-106.5 182.5t-181 123.5t-252 44.5q-113 0 -207.5 -29t-161.5 -81t-114 -124t-69.5 -157.5t-22.5 -181.5v-193zM362 1927l21 80l989 -152l-20 -79z" />
    <glyph glyph-name="Ohungarumlaut.ss01" horiz-adv-x="1736" 
d="M868 -20q-150 0 -277 39.5t-218.5 109.5t-155.5 166t-95.5 209t-31.5 237v174q0 156 50.5 292t145.5 241t245 166t337 61t337 -61t245.5 -166t146 -241t50.5 -292v-174q0 -124 -31.5 -237t-96 -209t-156 -166t-218.5 -109.5t-277 -39.5zM293 733q0 -123 36.5 -227
t106 -182t180.5 -122t252 -44q187 0 319 77t194.5 205t62.5 293v191q0 121 -36.5 224.5t-106.5 182.5t-181 123.5t-252 44.5q-113 0 -207.5 -29t-161.5 -81t-114 -124t-69.5 -157.5t-22.5 -181.5v-193zM686 1778l240 229h116l-219 -229h-137zM926 1778l239 229h117
l-219 -229h-137z" />
    <glyph glyph-name="Omacron.ss01" horiz-adv-x="1736" 
d="M868 -20q-150 0 -277 39.5t-218.5 109.5t-155.5 166t-95.5 209t-31.5 237v174q0 156 50.5 292t145.5 241t245 166t337 61t337 -61t245.5 -166t146 -241t50.5 -292v-174q0 -124 -31.5 -237t-96 -209t-156 -166t-218.5 -109.5t-277 -39.5zM293 733q0 -123 36.5 -227
t106 -182t180.5 -122t252 -44q187 0 319 77t194.5 205t62.5 293v191q0 121 -36.5 224.5t-106.5 182.5t-181 123.5t-252 44.5q-113 0 -207.5 -29t-161.5 -81t-114 -124t-69.5 -157.5t-22.5 -181.5v-193zM362 1851v82h1010v-82h-1010z" />
    <glyph glyph-name="Oslash.ss01" horiz-adv-x="1736" 
d="M176 12l131 174q-106 103 -161.5 247.5t-55.5 307.5v174q0 156 50.5 292t145.5 241t245 166t337 61q271 0 463 -127l72 97h158l-131 -175q106 -105 161.5 -248.5t55.5 -306.5v-174q0 -124 -31.5 -237t-96 -209t-156 -166t-218.5 -109.5t-277 -39.5q-271 0 -462 126
l-70 -94h-160zM293 733q0 -240 129 -393l799 1061q-145 98 -353 98q-113 0 -207.5 -29t-161.5 -81t-114 -124t-69.5 -157.5t-22.5 -181.5v-193zM518 254q142 -96 350 -96q187 0 319 77t194.5 205t62.5 293v191q0 237 -129 393z" />
    <glyph glyph-name="Otilde.ss01" horiz-adv-x="1736" 
d="M868 -20q-150 0 -277 39.5t-218.5 109.5t-155.5 166t-95.5 209t-31.5 237v174q0 156 50.5 292t145.5 241t245 166t337 61t337 -61t245.5 -166t146 -241t50.5 -292v-174q0 -124 -31.5 -237t-96 -209t-156 -166t-218.5 -109.5t-277 -39.5zM293 733q0 -123 36.5 -227
t106 -182t180.5 -122t252 -44q187 0 319 77t194.5 205t62.5 293v191q0 121 -36.5 224.5t-106.5 182.5t-181 123.5t-252 44.5q-113 0 -207.5 -29t-161.5 -81t-114 -124t-69.5 -157.5t-22.5 -181.5v-193zM420 1786q0 105 64.5 167t183.5 62q58 0 103.5 -16t76 -38.5t59 -45.5
t67 -39t85.5 -16q76 0 114.5 37t38.5 102h103q0 -108 -66.5 -169t-189.5 -61q-61 0 -109.5 16t-79.5 39t-59 46t-64 39t-79 16q-72 0 -109 -39t-37 -100h-102z" />
    <glyph glyph-name="P.ss01" horiz-adv-x="1595" 
d="M152 0v1655h806q284 0 430 -137.5t146 -403.5v-18q0 -268 -145 -407.5t-431 -139.5h-610v-549h-196zM348 719h600q199 0 291 88.5t92 275.5v43q0 185 -92 272t-291 87h-600v-766z" />
    <glyph glyph-name="Q.ss01" horiz-adv-x="1736" 
d="M1444 -313q-224 94 -391.5 132t-388.5 42l2 139q-139 29 -249.5 99.5t-181.5 169t-108 219t-37 253.5v174q0 156 50.5 292t145.5 241t245 166t337 61t337 -61t245.5 -166t146 -241t50.5 -292v-174q0 -144 -43.5 -272.5t-126 -230.5t-211 -169t-289.5 -83
q250 -31 467 -127v-172zM293 733q0 -123 36.5 -227t106 -182t180.5 -122t252 -44q187 0 319 77t194.5 205t62.5 293v191q0 121 -36.5 224.5t-106.5 182.5t-181 123.5t-252 44.5q-113 0 -207.5 -29t-161.5 -81t-114 -124t-69.5 -157.5t-22.5 -181.5v-193z" />
    <glyph glyph-name="R.ss01" horiz-adv-x="1626" 
d="M1333 0q-22 26 -22 150v237q0 71 -21 124t-54 84t-82.5 50.5t-98.5 26t-109 6.5h-598v-678h-196v1655h800q283 0 421 -115.5t138 -355.5v-13q0 -170 -69.5 -269t-208.5 -136q133 -34 203.5 -131t70.5 -244v-241q0 -118 25 -150h-199zM348 850h600q193 0 277 75.5
t84 231.5v33q0 86 -25 144t-76 91t-118.5 46.5t-163.5 13.5h-578v-635z" />
    <glyph glyph-name="Racute.ss01" horiz-adv-x="1626" 
d="M1333 0q-22 26 -22 150v237q0 71 -21 124t-54 84t-82.5 50.5t-98.5 26t-109 6.5h-598v-678h-196v1655h800q283 0 421 -115.5t138 -355.5v-13q0 -170 -69.5 -269t-208.5 -136q133 -34 203.5 -131t70.5 -244v-241q0 -118 25 -150h-199zM313 1855l990 152l20 -80l-989 -151z
M348 850h600q193 0 277 75.5t84 231.5v33q0 86 -25 144t-76 91t-118.5 46.5t-163.5 13.5h-578v-635z" />
    <glyph glyph-name="Rcaron.ss01" horiz-adv-x="1626" 
d="M1333 0q-22 26 -22 150v237q0 71 -21 124t-54 84t-82.5 50.5t-98.5 26t-109 6.5h-598v-678h-196v1655h800q283 0 421 -115.5t138 -355.5v-13q0 -170 -69.5 -269t-208.5 -136q133 -34 203.5 -131t70.5 -244v-241q0 -118 25 -150h-199zM348 850h600q193 0 277 75.5
t84 231.5v33q0 86 -25 144t-76 91t-118.5 46.5t-163.5 13.5h-578v-635zM377 2040h176l270 -197l262 197h177l-367 -262h-143z" />
    <glyph glyph-name="uni0156.ss01" horiz-adv-x="1626" 
d="M1333 0q-22 26 -22 150v237q0 71 -21 124t-54 84t-82.5 50.5t-98.5 26t-109 6.5h-598v-678h-196v1655h800q283 0 421 -115.5t138 -355.5v-13q0 -170 -69.5 -269t-208.5 -136q133 -34 203.5 -131t70.5 -244v-241q0 -118 25 -150h-199zM348 850h600q193 0 277 75.5
t84 231.5v33q0 86 -25 144t-76 91t-118.5 46.5t-163.5 13.5h-578v-635zM719 -172q0 42 28.5 71t73.5 29t73 -30.5t28 -90.5q0 -71 -44.5 -133.5t-132.5 -105.5v84q101 38 123 121q-27 -35 -65 -35q-34 0 -59 25t-25 65z" />
    <glyph glyph-name="S.ss01" horiz-adv-x="1525" 
d="M797 -20q-366 0 -548.5 146.5t-182.5 428.5v49h202v-57q0 -203 130 -298t405 -95q227 0 334.5 69t107.5 217v11q0 54 -16 95t-43 69.5t-73 51t-93.5 37.5t-118.5 31l-348 86q-74 19 -132 40.5t-115.5 56t-95.5 77t-61.5 104t-23.5 136.5q0 211 165 325.5t464 114.5
q320 0 488.5 -132.5t168.5 -379.5v-43h-203v47q0 170 -111 253t-343 83q-207 0 -316.5 -66.5t-109.5 -195.5v-6q0 -55 25 -98t73.5 -72t101 -48t125.5 -36l357 -86q78 -19 137 -40t118.5 -56.5t97.5 -81.5t61.5 -114t23.5 -154q0 -236 -160.5 -352.5t-490.5 -116.5z" />
    <glyph glyph-name="Sacute.ss01" horiz-adv-x="1525" 
d="M797 -20q-366 0 -548.5 146.5t-182.5 428.5v49h202v-57q0 -203 130 -298t405 -95q227 0 334.5 69t107.5 217v11q0 54 -16 95t-43 69.5t-73 51t-93.5 37.5t-118.5 31l-348 86q-74 19 -132 40.5t-115.5 56t-95.5 77t-61.5 104t-23.5 136.5q0 211 165 325.5t464 114.5
q320 0 488.5 -132.5t168.5 -379.5v-43h-203v47q0 170 -111 253t-343 83q-207 0 -316.5 -66.5t-109.5 -195.5v-6q0 -55 25 -98t73.5 -72t101 -48t125.5 -36l357 -86q78 -19 137 -40t118.5 -56.5t97.5 -81.5t61.5 -114t23.5 -154q0 -236 -160.5 -352.5t-490.5 -116.5z
M256 1855l989 152l21 -80l-990 -151z" />
    <glyph glyph-name="Scaron.ss01" horiz-adv-x="1525" 
d="M797 -20q-366 0 -548.5 146.5t-182.5 428.5v49h202v-57q0 -203 130 -298t405 -95q227 0 334.5 69t107.5 217v11q0 54 -16 95t-43 69.5t-73 51t-93.5 37.5t-118.5 31l-348 86q-74 19 -132 40.5t-115.5 56t-95.5 77t-61.5 104t-23.5 136.5q0 211 165 325.5t464 114.5
q320 0 488.5 -132.5t168.5 -379.5v-43h-203v47q0 170 -111 253t-343 83q-207 0 -316.5 -66.5t-109.5 -195.5v-6q0 -55 25 -98t73.5 -72t101 -48t125.5 -36l357 -86q78 -19 137 -40t118.5 -56.5t97.5 -81.5t61.5 -114t23.5 -154q0 -236 -160.5 -352.5t-490.5 -116.5z
M317 2040h177l270 -197l262 197h176l-366 -262h-144z" />
    <glyph glyph-name="Scedilla.ss01" horiz-adv-x="1525" 
d="M627 -338q143 0 200.5 15t57.5 63q0 51 -56 60t-165 -9l47 191q-323 17 -484 162.5t-161 410.5v49h202v-57q0 -203 130 -298t405 -95q227 0 334.5 69t107.5 217v11q0 54 -16 95t-43 69.5t-73 51t-93.5 37.5t-118.5 31l-348 86q-74 19 -132 40.5t-115.5 56t-95.5 77
t-61.5 104t-23.5 136.5q0 211 165 325.5t464 114.5q320 0 488.5 -132.5t168.5 -379.5v-43h-203v47q0 170 -111 253t-343 83q-207 0 -316.5 -66.5t-109.5 -195.5v-6q0 -55 25 -98t73.5 -72t101 -48t125.5 -36l357 -86q78 -19 137 -40t118.5 -56.5t97.5 -81.5t61.5 -114
t23.5 -154q0 -234 -158.5 -351t-484.5 -118l-29 -111q223 30 223 -127q0 -89 -86.5 -127.5t-287.5 -38.5z" />
    <glyph glyph-name="uni0218.ss01" horiz-adv-x="1525" 
d="M797 -20q-366 0 -548.5 146.5t-182.5 428.5v49h202v-57q0 -203 130 -298t405 -95q227 0 334.5 69t107.5 217v11q0 54 -16 95t-43 69.5t-73 51t-93.5 37.5t-118.5 31l-348 86q-74 19 -132 40.5t-115.5 56t-95.5 77t-61.5 104t-23.5 136.5q0 211 165 325.5t464 114.5
q320 0 488.5 -132.5t168.5 -379.5v-43h-203v47q0 170 -111 253t-343 83q-207 0 -316.5 -66.5t-109.5 -195.5v-6q0 -55 25 -98t73.5 -72t101 -48t125.5 -36l357 -86q78 -19 137 -40t118.5 -56.5t97.5 -81.5t61.5 -114t23.5 -154q0 -236 -160.5 -352.5t-490.5 -116.5z
M659 -172q0 42 29 71t74 29t72.5 -30.5t27.5 -90.5q0 -72 -44 -134t-132 -105v84q101 38 123 121q-27 -35 -66 -35q-34 0 -59 25t-25 65z" />
    <glyph glyph-name="uni1E9E.ss01" horiz-adv-x="1476" 
d="M143 1217q0 228 143 333t449 105h637q-30 -185 -57 -299t-65 -198.5t-87 -127t-121 -63.5q170 -32 251 -139.5t81 -292.5v-52q0 -132 -37.5 -226.5t-111 -150t-171.5 -81t-229 -25.5h-350v162l287 -2q116 0 191.5 14.5t129.5 51t77.5 100t23.5 161.5v58q0 60 -9 104.5
t-36.5 89t-75.5 72.5t-129.5 45.5t-194.5 17.5h-264v162h250q70 0 121.5 7.5t92.5 20.5t72 41t53.5 58.5t42.5 84.5t34.5 107.5t34.5 137.5h-441q-217 0 -310 -63t-93 -213v-1217h-189v1217z" />
    <glyph glyph-name="T.ss01" horiz-adv-x="1449" 
d="M627 0v1481h-592v174h1380v-174h-592v-1481h-196z" />
    <glyph glyph-name="Tbar.ss01" horiz-adv-x="1470" 
d="M637 0v772h-434v111h434v598h-592v174h1380v-174h-591v-598h436v-111h-436v-772h-197z" />
    <glyph glyph-name="Tcaron.ss01" horiz-adv-x="1449" 
d="M627 0v1481h-592v174h1380v-174h-592v-1481h-196zM283 2040h176l270 -197l262 197h176l-366 -262h-144z" />
    <glyph glyph-name="uni0162.ss01" horiz-adv-x="1449" 
d="M627 0v1481h-592v174h1380v-174h-592v-1481h-51l-33 -131q224 30 224 -127q0 -89 -87 -127.5t-288 -38.5l2 86q143 0 200.5 15t57.5 63q0 51 -56 60t-165 -9l51 209h-51z" />
    <glyph glyph-name="uni021A.ss01" horiz-adv-x="1449" 
d="M627 0v1481h-592v174h1380v-174h-592v-1481h-196zM625 -172q0 42 28.5 71t73.5 29t72.5 -30.5t27.5 -90.5q0 -72 -44 -134t-132 -105v84q101 38 123 121q-27 -35 -65 -35q-34 0 -59 25t-25 65z" />
    <glyph glyph-name="U.ss01" horiz-adv-x="1650" 
d="M825 -20q-250 0 -400 68.5t-218 209t-68 371.5v1026h199v-1034q0 -94 14 -166t43 -123.5t68 -86t96 -54.5t120.5 -28.5t145.5 -8.5q99 0 172.5 12t135.5 43t100.5 83.5t60 134.5t21.5 194v1034h196v-1026q0 -348 -160 -498.5t-526 -150.5z" />
    <glyph glyph-name="Uacute.ss01" horiz-adv-x="1650" 
d="M825 -20q-250 0 -400 68.5t-218 209t-68 371.5v1026h199v-1034q0 -94 14 -166t43 -123.5t68 -86t96 -54.5t120.5 -28.5t145.5 -8.5q99 0 172.5 12t135.5 43t100.5 83.5t60 134.5t21.5 194v1034h196v-1026q0 -348 -160 -498.5t-526 -150.5zM319 1855l990 152l20 -80
l-989 -151z" />
    <glyph glyph-name="Ucircumflex.ss01" horiz-adv-x="1650" 
d="M825 -20q-250 0 -400 68.5t-218 209t-68 371.5v1026h199v-1034q0 -94 14 -166t43 -123.5t68 -86t96 -54.5t120.5 -28.5t145.5 -8.5q99 0 172.5 12t135.5 43t100.5 83.5t60 134.5t21.5 194v1034h196v-1026q0 -348 -160 -498.5t-526 -150.5zM383 1745l375 262h143l367 -262
h-176l-263 197l-270 -197h-176z" />
    <glyph glyph-name="Udieresis.ss01" horiz-adv-x="1650" 
d="M825 -20q-250 0 -400 68.5t-218 209t-68 371.5v1026h199v-1034q0 -94 14 -166t43 -123.5t68 -86t96 -54.5t120.5 -28.5t145.5 -8.5q99 0 172.5 12t135.5 43t100.5 83.5t60 134.5t21.5 194v1034h196v-1026q0 -348 -160 -498.5t-526 -150.5zM414 1880q0 44 27 70t65 26
q39 0 66.5 -26t27.5 -70q0 -39 -28 -64.5t-66 -25.5t-65 25.5t-27 64.5zM1049 1880q0 44 27 70t67 26q39 0 66.5 -26t27.5 -70q0 -39 -28 -64.5t-66 -25.5q-39 0 -66.5 25.5t-27.5 64.5z" />
    <glyph glyph-name="Ugrave.ss01" horiz-adv-x="1650" 
d="M825 -20q-250 0 -400 68.5t-218 209t-68 371.5v1026h199v-1034q0 -94 14 -166t43 -123.5t68 -86t96 -54.5t120.5 -28.5t145.5 -8.5q99 0 172.5 12t135.5 43t100.5 83.5t60 134.5t21.5 194v1034h196v-1026q0 -348 -160 -498.5t-526 -150.5zM319 1927l21 80l989 -152
l-20 -79z" />
    <glyph glyph-name="Uhungarumlaut.ss01" horiz-adv-x="1650" 
d="M825 -20q-250 0 -400 68.5t-218 209t-68 371.5v1026h199v-1034q0 -94 14 -166t43 -123.5t68 -86t96 -54.5t120.5 -28.5t145.5 -8.5q99 0 172.5 12t135.5 43t100.5 83.5t60 134.5t21.5 194v1034h196v-1026q0 -348 -160 -498.5t-526 -150.5zM643 1778l240 229h116
l-219 -229h-137zM883 1778l239 229h117l-219 -229h-137z" />
    <glyph glyph-name="Umacron.ss01" horiz-adv-x="1650" 
d="M825 -20q-250 0 -400 68.5t-218 209t-68 371.5v1026h199v-1034q0 -94 14 -166t43 -123.5t68 -86t96 -54.5t120.5 -28.5t145.5 -8.5q99 0 172.5 12t135.5 43t100.5 83.5t60 134.5t21.5 194v1034h196v-1026q0 -348 -160 -498.5t-526 -150.5zM319 1851v82h1010v-82h-1010z
" />
    <glyph glyph-name="Uogonek.ss01" horiz-adv-x="1650" 
d="M825 -20q-250 0 -400 68.5t-218 209t-68 371.5v1026h199v-1034q0 -94 14 -166t43 -123.5t68 -86t96 -54.5t120.5 -28.5t145.5 -8.5q99 0 172.5 12t135.5 43t100.5 83.5t60 134.5t21.5 194v1034h196v-1026q0 -287 -106.5 -437.5t-343.5 -193.5q-105 -36 -156 -82t-51 -111
q0 -63 56 -91.5t186 -28.5h24l-82 -95h-22q-125 0 -199 47.5t-74 139.5q0 138 181 205q-31 -2 -99 -2z" />
    <glyph glyph-name="Uring.ss01" horiz-adv-x="1650" 
d="M825 -20q-250 0 -400 68.5t-218 209t-68 371.5v1026h199v-1034q0 -94 14 -166t43 -123.5t68 -86t96 -54.5t120.5 -28.5t145.5 -8.5q99 0 172.5 12t135.5 43t100.5 83.5t60 134.5t21.5 194v1034h196v-1026q0 -348 -160 -498.5t-526 -150.5zM659 1913q0 71 49.5 118.5
t116.5 47.5t116.5 -47.5t49.5 -118.5t-49.5 -118.5t-116.5 -47.5t-116.5 47.5t-49.5 118.5zM743 1913q0 -37 22 -59.5t60 -22.5t60 22.5t22 59.5t-22 59.5t-60 22.5t-60 -22.5t-22 -59.5z" />
    <glyph glyph-name="V.ss01" horiz-adv-x="1568" 
d="M662 0l-633 1655h209l536 -1436l12 -31l11 29l534 1438h209l-631 -1655h-247z" />
    <glyph glyph-name="W.ss01" horiz-adv-x="2420" 
d="M537 0l-500 1655h205l420 -1426l425 1426h246l426 -1417l4 -13l4 13l414 1417h203l-498 -1655h-244l-428 1411l-4 14l-4 -14l-426 -1411h-243z" />
    <glyph glyph-name="Wacute.ss01" horiz-adv-x="2420" 
d="M537 0l-500 1655h205l420 -1426l425 1426h246l426 -1417l4 -13l4 13l414 1417h203l-498 -1655h-244l-428 1411l-4 14l-4 -14l-426 -1411h-243zM705 1855l989 152l20 -80l-989 -151z" />
    <glyph glyph-name="Wcircumflex.ss01" horiz-adv-x="2420" 
d="M537 0l-500 1655h205l420 -1426l425 1426h246l426 -1417l4 -13l4 13l414 1417h203l-498 -1655h-244l-428 1411l-4 14l-4 -14l-426 -1411h-243zM768 1745l375 262h143l367 -262h-176l-263 197l-270 -197h-176z" />
    <glyph glyph-name="Wdieresis.ss01" horiz-adv-x="2420" 
d="M537 0l-500 1655h205l420 -1426l425 1426h246l426 -1417l4 -13l4 13l414 1417h203l-498 -1655h-244l-428 1411l-4 14l-4 -14l-426 -1411h-243zM799 1880q0 44 27 70t65 26q39 0 66.5 -26t27.5 -70q0 -39 -28 -64.5t-66 -25.5t-65 25.5t-27 64.5zM1434 1880q0 44 27 70
t67 26q39 0 66.5 -26t27.5 -70q0 -39 -28 -64.5t-66 -25.5q-39 0 -66.5 25.5t-27.5 64.5z" />
    <glyph glyph-name="Wgrave.ss01" horiz-adv-x="2420" 
d="M537 0l-500 1655h205l420 -1426l425 1426h246l426 -1417l4 -13l4 13l414 1417h203l-498 -1655h-244l-428 1411l-4 14l-4 -14l-426 -1411h-243zM705 1927l20 80l989 -152l-20 -79z" />
    <glyph glyph-name="X.ss01" horiz-adv-x="1529" 
d="M6 0l645 834l-631 821h238l510 -684l508 684h237l-634 -821l639 -834h-238l-518 694l-516 -694h-240z" />
    <glyph glyph-name="Y.ss01" horiz-adv-x="1601" 
d="M702 0v590l-673 1065h225l547 -873l547 873h225l-674 -1065v-590h-197z" />
    <glyph glyph-name="Yacute.ss01" horiz-adv-x="1601" 
d="M702 0v590l-673 1065h225l547 -873l547 873h225l-674 -1065v-590h-197zM295 1855l989 152l21 -80l-990 -151z" />
    <glyph glyph-name="Ycircumflex.ss01" horiz-adv-x="1601" 
d="M702 0v590l-673 1065h225l547 -873l547 873h225l-674 -1065v-590h-197zM356 1745l375 262h143l367 -262h-176l-262 197l-271 -197h-176z" />
    <glyph glyph-name="Ydieresis.ss01" horiz-adv-x="1601" 
d="M702 0v590l-673 1065h225l547 -873l547 873h225l-674 -1065v-590h-197zM389 1880q0 44 27 70t65 26q39 0 66.5 -26t27.5 -70q0 -39 -28 -64.5t-66 -25.5t-65 25.5t-27 64.5zM1024 1880q0 44 27 70t67 26q39 0 66.5 -26t27.5 -70q0 -39 -28 -64.5t-66 -25.5
q-39 0 -66.5 25.5t-27.5 64.5z" />
    <glyph glyph-name="Ygrave.ss01" horiz-adv-x="1601" 
d="M702 0v590l-673 1065h225l547 -873l547 873h225l-674 -1065v-590h-197zM295 1927l20 80l990 -152l-21 -79z" />
    <glyph glyph-name="Z.ss01" horiz-adv-x="1417" 
d="M63 0v172l1049 1313h-1049v170h1291v-172l-1049 -1313h1049v-170h-1291z" />
    <glyph glyph-name="Zacute.ss01" horiz-adv-x="1417" 
d="M63 0v172l1049 1313h-1049v170h1291v-172l-1049 -1313h1049v-170h-1291zM203 1855l989 152l20 -80l-989 -151z" />
    <glyph glyph-name="Zcaron.ss01" horiz-adv-x="1417" 
d="M63 0v172l1049 1313h-1049v170h1291v-172l-1049 -1313h1049v-170h-1291zM264 2040h176l271 -197l262 197h176l-367 -262h-143z" />
    <glyph glyph-name="Zdotaccent.ss01" horiz-adv-x="1417" 
d="M63 0v172l1049 1313h-1049v170h1291v-172l-1049 -1313h1049v-170h-1291zM588 1872q0 48 33 80.5t88 32.5q56 0 88 -32.5t32 -80.5q0 -45 -32 -77t-88 -32q-55 0 -88 32t-33 77z" />
    <glyph glyph-name="W.ss02" horiz-adv-x="1536" 
d="M98 0v1655h178v-1374l392 1374h276v-1368l391 1368h185l-480 -1655h-276v1395l-387 -1395h-279z" />
    <glyph glyph-name="W.ss03" horiz-adv-x="3102" 
d="M442 0h-270v1655h188v-1450l1158 1450h251v-1450l1137 1450h238l-1291 -1655h-270v1425z" />
    <glyph glyph-name="i.loclTRK" horiz-adv-x="409" 
d="M111 1331h188v-1331h-188v1331zM76 1565q0 49 34 79.5t95 30.5t95 -30.5t34 -79.5q0 -46 -34 -76.5t-95 -30.5t-95 30.5t-34 76.5z" />
    <glyph glyph-name="uni006A0301" horiz-adv-x="409" 
d="M111 -8v1339h188v-1356q0 -110 -16.5 -183t-56.5 -123t-107.5 -72.5t-169.5 -22.5h-144v160h109q116 0 156.5 55t40.5 203zM-47 1528l475 155l29 -75l-475 -154z" />
    <glyph glyph-name="w.ss02" horiz-adv-x="1644" 
d="M111 0v1331h180v-1112l446 1112h277v-1110l438 1110h190l-532 -1331h-276v1143l-445 -1143h-278z" />
    <glyph glyph-name="zero.ss01" horiz-adv-x="1591" 
d="M801 -20q-348 0 -525.5 199t-177.5 566v170q0 362 178.5 561t524.5 199q340 0 516 -199.5t176 -562.5v-168q0 -366 -175.5 -565.5t-516.5 -199.5zM295 735q0 -225 74 -364l766 1026q-120 108 -334 108q-506 0 -506 -581v-189zM463 254q123 -102 338 -102q249 0 372 145
t123 440v187q0 219 -69 354z" />
    <glyph glyph-name="one.ss01" horiz-adv-x="1179" 
d="M82 170h448v1276q-81 -84 -202.5 -128t-257.5 -44v178q146 0 256.5 47.5t205.5 155.5h193v-1485h449v-170h-1092v170z" />
    <glyph glyph-name="two.ss01" horiz-adv-x="1531" 
d="M90 178q0 101 12 178.5t48 156t96.5 136t161.5 104.5t239 74l221 54q92 19 155 40.5t117.5 58t81.5 93t27 133.5v6q0 154 -114.5 223.5t-339.5 69.5q-260 0 -374 -93.5t-114 -305.5v-27h-198v23q0 287 166 430t516 143q319 0 488 -117.5t169 -355.5q0 -107 -35.5 -190
t-102.5 -139.5t-152.5 -92t-196.5 -57.5l-232 -59q-98 -19 -169.5 -43t-120 -58t-79 -70.5t-46.5 -89.5t-21.5 -105.5t-5.5 -127.5h1159v-170h-1356v178z" />
    <glyph glyph-name="three.ss01" horiz-adv-x="1511" 
d="M745 -20q-345 0 -509.5 127t-169.5 395v22h198v-26q3 -187 119 -266.5t360 -79.5q246 0 360 70.5t114 221.5v31q0 84 -33.5 141.5t-98 88t-141.5 43t-182 12.5h-252v170h252q80 0 143 7t119 25t93.5 47t59 74.5t21.5 106.5v27q0 80 -32.5 137t-94 89.5t-140 47
t-181.5 14.5q-80 0 -144 -8.5t-123 -31t-98 -58.5t-63 -94.5t-25 -136.5v-25h-199v20q4 256 166.5 380t487.5 124q327 0 485 -120t158 -338v-15q2 -136 -73 -231.5t-214 -124.5q153 -35 230 -134t77 -249v-19q0 -229 -167.5 -346.5t-502.5 -117.5z" />
    <glyph glyph-name="four.ss01" horiz-adv-x="1482" 
d="M1210 1655v-1141h230v-170h-230v-344h-194v344h-985v174l987 1137h192zM238 514h778v879z" />
    <glyph glyph-name="five.ss01" horiz-adv-x="1517" 
d="M815 1108q294 0 460.5 -135t166.5 -402v-49q0 -266 -174.5 -404t-499.5 -138q-207 0 -356 54.5t-233.5 171.5t-84.5 288v16h199v-23q0 -96 41 -164.5t112.5 -104t151 -51t174.5 -15.5q106 0 189.5 19.5t148 61t99 111.5t34.5 166v65q0 187 -114 274t-341 87
q-127 0 -221 -30.5t-153 -81t-109 -130.5h-192l59 961h1192v-170h-1016l-43 -572q179 195 510 195z" />
    <glyph glyph-name="six.ss01" horiz-adv-x="1548" 
d="M788 -20q-351 0 -515 147t-164 453v387q0 360 163 534t523 174q312 0 462 -125t150 -352v-6h-197v6q0 158 -104.5 230.5t-306.5 72.5q-248 0 -370 -107.5t-122 -355.5v-118q157 198 520 198q301 0 466 -140t165 -407v-43q0 -272 -163 -410t-507 -138zM307 530
q0 -199 115.5 -288.5t365.5 -89.5q244 0 358 86t114 278v66q0 191 -112.5 276.5t-344.5 85.5q-235 0 -365.5 -85.5t-130.5 -260.5v-68z" />
    <glyph glyph-name="seven.ss01" horiz-adv-x="1337" 
d="M8 1485v170h1288v-170q-128 -80 -231 -175t-175 -191.5t-125.5 -208.5t-85.5 -217t-51 -227t-25.5 -227.5t-6.5 -228.5v-10h-195v10q0 118 5.5 219t23 223t47 227t80 220t118 213t166 195.5t220.5 177.5h-1053z" />
    <glyph glyph-name="eight.ss01" horiz-adv-x="1531" 
d="M766 -20q-337 0 -506.5 119.5t-169.5 346.5v27q0 165 84.5 270t237.5 142q-126 33 -200.5 123.5t-74.5 222.5v24q0 202 162.5 311t470.5 109q305 0 465 -109t160 -311v-24q0 -132 -74 -222.5t-199 -123.5q152 -37 236 -142.5t84 -269.5v-27q0 -227 -169 -346.5
t-507 -119.5zM289 453q0 -160 116.5 -235t360.5 -75t360.5 75t116.5 235v41q0 163 -119.5 232t-357.5 69q-236 0 -356.5 -69t-120.5 -232v-41zM336 1214q0 -131 114 -192t316 -61q432 0 432 256v32q0 133 -107 197.5t-325 64.5q-216 0 -323 -64.5t-107 -197.5v-35z" />
    <glyph glyph-name="nine.ss01" horiz-adv-x="1548" 
d="M752 -20q-312 0 -462.5 125t-150.5 352v8h199v-6q0 -159 104 -231t306 -72q248 0 370.5 106.5t122.5 353.5v121q-157 -198 -520 -198q-303 0 -468 139t-165 405v43q0 272 163 410.5t509 138.5q350 0 514 -146t164 -452v-389q0 -361 -162.5 -534.5t-523.5 -173.5z
M287 1073q0 -190 112 -276t344 -86q235 0 366.5 85t131.5 261v67q0 200 -116 290.5t-365 90.5q-243 0 -358 -86.5t-115 -279.5v-66z" />
    <glyph glyph-name="zero.tf" horiz-adv-x="1128" 
d="M565 -18q-230 0 -342 136.5t-112 391.5v639q0 254 112 390t342 136q229 0 342 -137t113 -391v-637q0 -254 -113 -391t-342 -137zM309 471l2 -51l480 956q-56 140 -226 140q-127 0 -191.5 -77.5t-64.5 -252.5v-715zM348 258q58 -119 217 -119q126 0 191 78t65 254v733z
" />
    <glyph glyph-name="one.tf" horiz-adv-x="1128" 
d="M205 162h287v1255q-95 -129 -291 -129v172q201 0 305 195h178v-1493h289v-162h-768v162z" />
    <glyph glyph-name="two.tf" horiz-adv-x="1128" 
d="M119 174q0 209 65 337t248 247l170 133q109 69 162 147t53 209v23q0 138 -60 192t-177 54q-126 0 -188 -60.5t-62 -214.5v-106h-199v86q0 223 112 338.5t337 115.5q214 0 325 -109.5t111 -324.5q0 -310 -285 -485l-174 -138q-102 -63 -151.5 -118t-70 -131t-20.5 -207
h697v-162h-893v174z" />
    <glyph glyph-name="three.tf" horiz-adv-x="1128" 
d="M557 -20q-227 0 -337 108t-111 334v84h196v-100q0 -151 62 -209t188 -58q128 0 189 59.5t61 196.5v119q0 260 -242 260h-168v162h166q240 0 240 229v103q0 73 -18.5 123t-53.5 76.5t-76 37.5t-96 11q-56 0 -97.5 -11t-76 -38.5t-52.5 -80t-18 -129.5v-88h-196v72
q2 218 110 326t330 108q96 0 172.5 -23.5t125.5 -63t81 -94.5t45.5 -113t13.5 -124v-55q1 -128 -55.5 -217.5t-161.5 -124.5q109 -35 166 -132.5t57 -246.5v-63q0 -205 -106.5 -321.5t-337.5 -116.5z" />
    <glyph glyph-name="four.tf" horiz-adv-x="1128" 
d="M879 1655v-1157h141v-160h-141v-338h-193v338h-586v174l594 1143h185zM258 498h428v819z" />
    <glyph glyph-name="five.tf" horiz-adv-x="1128" 
d="M639 1108q176 0 277.5 -110.5t101.5 -327.5v-201q0 -243 -115 -366t-336 -123q-214 0 -330 117.5t-116 344.5v62h198v-90q0 -275 252 -275q248 0 248 279v248q0 137 -58.5 207.5t-172.5 70.5q-108 0 -168.5 -62.5t-89.5 -174.5h-195l47 948h762v-162h-584l-30 -553
q97 168 309 168z" />
    <glyph glyph-name="six.tf" horiz-adv-x="1128" 
d="M573 -20q-229 0 -339.5 121t-110.5 370v670q0 260 109 397t346 137q405 0 409 -424v-34h-196v32q-2 130 -53.5 190t-164.5 60q-127 0 -189 -69.5t-62 -223.5v-252q103 156 315 156q185 0 284 -115.5t99 -330.5v-213q0 -229 -113 -350t-334 -121zM322 424q0 -155 63 -220
t186 -65q127 0 188.5 67.5t61.5 213.5v250q0 274 -237 274q-122 0 -192 -71.5t-70 -198.5v-250z" />
    <glyph glyph-name="seven.tf" horiz-adv-x="1128" 
d="M131 1493v162h850v-162q-104 -128 -181 -264.5t-125 -270.5t-77 -288t-40 -302.5t-11 -328.5v-39h-193v37q0 222 20 405.5t69 367t137 353.5t217 330h-666z" />
    <glyph glyph-name="eight.tf" horiz-adv-x="1128" 
d="M563 -20q-227 0 -336.5 102.5t-109.5 312.5v101q0 313 237 378q-99 30 -158 110.5t-59 217.5v92q0 179 108 280t320 101q210 0 317 -101t107 -280v-92q0 -137 -58 -217.5t-157 -110.5q238 -64 238 -378v-101q0 -210 -110.5 -312.5t-338.5 -102.5zM315 385
q0 -143 61 -195.5t187 -52.5q127 0 188.5 53t61.5 195v156q0 138 -63 191.5t-187 53.5q-122 0 -185 -53.5t-63 -191.5v-156zM336 1165q0 -114 58 -164.5t169 -50.5q228 0 228 217v131q0 116 -57 168t-171 52q-113 0 -170 -52t-57 -168v-133z" />
    <glyph glyph-name="nine.tf" horiz-adv-x="1128" 
d="M555 1675q229 0 340 -121t111 -370v-670q0 -260 -109 -397t-346 -137q-406 0 -410 423v35h197v-32q2 -130 53 -190t164 -60q127 0 189.5 69.5t62.5 223.5v251q-102 -155 -315 -155q-185 0 -284 115.5t-99 330.5v213q0 229 112.5 350t333.5 121zM307 985q0 -274 238 -274
q122 0 192 71.5t70 198.5v250q0 155 -63.5 220t-186.5 65q-127 0 -188.5 -67.5t-61.5 -213.5v-250z" />
    <glyph glyph-name="zero.dnom" horiz-adv-x="583" 
d="M291 -10q-116 0 -175 70t-59 200v307q0 131 59 201t175 70q117 0 176 -70t59 -201v-307q0 -131 -58.5 -200.5t-176.5 -69.5zM180 268l213 400q-20 69 -102 69q-111 0 -111 -141v-328zM193 150q26 -60 98 -60q57 0 84.5 34t27.5 109v312z" />
    <glyph glyph-name="one.dnom" horiz-adv-x="464" 
d="M45 100h139v584q-48 -55 -141 -55v108q104 0 152 90h108v-727h141v-100h-399v100z" />
    <glyph glyph-name="two.dnom" horiz-adv-x="557" 
d="M47 111q0 101 36 168.5t128 121.5l76 50q53 30 76.5 68t23.5 99v17q0 57 -25 79.5t-77 22.5q-56 0 -82.5 -25t-26.5 -89v-60h-123v45q0 112 58 171t172 59q112 0 170.5 -58t58.5 -168q0 -169 -147 -250l-86 -55q-67 -37 -87 -78t-20 -129h338v-100h-463v111z" />
    <glyph glyph-name="three.dnom" horiz-adv-x="557" 
d="M276 -10q-118 0 -175 54.5t-58 170.5v41h123v-53q1 -65 27.5 -90t80.5 -25q57 0 83 26t26 83v69q0 109 -104 109h-84v100h81q103 0 103 98v62q0 57 -27 80.5t-78 23.5q-50 0 -76.5 -24t-27.5 -84v-49h-123v34q3 222 229 222q63 0 109.5 -19.5t70.5 -52t35 -66.5t11 -71
v-25q0 -135 -109 -174q113 -39 113 -188v-29q0 -223 -230 -223z" />
    <glyph glyph-name="four.dnom" horiz-adv-x="536" 
d="M436 827v-567h66v-100h-66v-160h-121v160h-286v110l293 557h114zM121 260h194v369z" />
    <glyph glyph-name="five.dnom" horiz-adv-x="557" 
d="M324 555q87 0 137.5 -54.5t50.5 -166.5v-92q0 -252 -233 -252q-111 0 -170.5 60t-59.5 177v27h123v-49q0 -115 109 -115q106 0 106 115v127q0 121 -100 121q-86 0 -111 -103h-121l25 477h395v-100h-285l-16 -256q50 84 150 84z" />
    <glyph glyph-name="six.dnom" horiz-adv-x="573" 
d="M289 -10q-116 0 -173 63t-57 193v309q0 144 55 213.5t177 69.5q112 0 164.5 -57t52.5 -158v-17h-123v15q0 54 -22.5 80t-71.5 26q-56 0 -82.5 -30t-26.5 -95v-115q52 70 148 70q92 0 142 -58.5t50 -168.5v-101q0 -117 -59 -178t-174 -61zM182 207q0 -64 27.5 -90.5
t83.5 -26.5q54 0 80 27.5t26 87.5v131q0 117 -104 117q-55 0 -84 -30t-29 -85v-131z" />
    <glyph glyph-name="seven.dnom" horiz-adv-x="487" 
d="M23 727v100h434v-100q-66 -83 -109 -170t-63.5 -179t-27.5 -171.5t-7 -181.5v-25h-121v23q0 209 44.5 379t168.5 325h-319z" />
    <glyph glyph-name="eight.dnom" horiz-adv-x="563" 
d="M283 -10q-232 0 -232 211v45q0 164 117 194q-109 29 -109 164v39q0 93 56.5 144t167.5 51q110 0 165.5 -51t57.5 -144v-39q-3 -136 -111 -164q119 -32 119 -194v-45q0 -211 -231 -211zM174 195q0 -62 26 -84.5t83 -22.5t82 22.5t26 84.5v86q-1 58 -27 81t-81 23t-82 -23
t-27 -81v-86zM182 578q0 -48 25 -69.5t76 -21.5q98 0 98 93v67q0 49 -24 70.5t-74 21.5q-52 0 -76.5 -21.5t-24.5 -70.5v-69z" />
    <glyph glyph-name="nine.dnom" horiz-adv-x="573" 
d="M285 838q229 0 229 -256v-310q0 -143 -54 -212.5t-175 -69.5q-114 0 -166.5 57.5t-52.5 157.5v16h122v-14q0 -107 95 -107q56 0 82 29.5t26 95.5v115q-53 -70 -149 -70q-92 0 -142.5 59.5t-50.5 168.5v100q0 118 60 179t176 61zM174 492q0 -117 105 -117q53 0 82.5 30.5
t29.5 83.5v132q0 63 -27 89.5t-81 26.5q-56 0 -82.5 -26.5t-26.5 -87.5v-131z" />
    <glyph glyph-name="zero.numr" horiz-adv-x="583" 
d="M291 817q-116 0 -175 69.5t-59 200.5v308q0 131 59 200.5t175 69.5q117 0 176 -69.5t59 -200.5v-308q0 -131 -58.5 -200.5t-176.5 -69.5zM180 1096l213 399q-20 70 -102 70q-111 0 -111 -142v-327zM193 977q26 -59 98 -59q57 0 84.5 34t27.5 109v311z" />
    <glyph glyph-name="one.numr" horiz-adv-x="464" 
d="M45 928h139v583q-48 -55 -141 -55v109q104 0 152 90h108v-727h141v-101h-399v101z" />
    <glyph glyph-name="two.numr" horiz-adv-x="557" 
d="M47 938q0 101 36 169.5t128 121.5l76 49q53 30 76.5 68.5t23.5 99.5v16q0 58 -25 80.5t-77 22.5q-56 0 -82.5 -25.5t-26.5 -89.5v-59h-123v45q0 111 58 170t172 59q112 0 170.5 -57.5t58.5 -167.5q0 -169 -147 -250l-86 -55q-67 -37 -87 -78t-20 -129h338v-101h-463v111z
" />
    <glyph glyph-name="three.numr" horiz-adv-x="557" 
d="M276 817q-118 0 -175 54.5t-58 170.5v41h123v-53q1 -65 27.5 -90t80.5 -25q57 0 83 26t26 83v70q0 63 -29 85.5t-75 22.5h-84v101h81q103 0 103 98v61q0 57 -27 81t-78 24q-50 0 -76.5 -24.5t-27.5 -84.5v-49h-123v35q1 112 58 166.5t171 54.5q63 0 109.5 -19.5t70.5 -52
t35 -66.5t11 -71v-24q0 -136 -109 -175q113 -39 113 -188v-29q0 -223 -230 -223z" />
    <glyph glyph-name="four.numr" horiz-adv-x="536" 
d="M436 1655v-568h66v-100h-66v-160h-121v160h-286v111l293 557h114zM121 1087h194v369z" />
    <glyph glyph-name="five.numr" horiz-adv-x="557" 
d="M324 1382q87 0 137.5 -54.5t50.5 -166.5v-92q0 -252 -233 -252q-111 0 -170.5 60.5t-59.5 177.5v26h123v-49q0 -114 109 -114q106 0 106 114v127q0 121 -100 121q-86 0 -111 -102h-121l25 477h395v-101h-285l-16 -256q50 84 150 84z" />
    <glyph glyph-name="six.numr" horiz-adv-x="573" 
d="M289 817q-116 0 -173 63t-57 193v309q0 144 55 213.5t177 69.5q112 0 164.5 -57t52.5 -158v-16h-123v14q0 54 -22.5 80t-71.5 26q-56 0 -82.5 -29.5t-26.5 -94.5v-115q51 69 148 69q92 0 142 -58.5t50 -168.5v-100q0 -117 -59 -178.5t-174 -61.5zM182 1034
q0 -64 27.5 -90t83.5 -26q54 0 80 27t26 87v131q0 117 -104 117q-55 0 -84 -30t-29 -85v-131z" />
    <glyph glyph-name="seven.numr" horiz-adv-x="487" 
d="M23 1554v101h434v-101q-66 -83 -109 -170t-63.5 -179t-27.5 -171.5t-7 -181.5v-25h-121v23q0 209 44.5 379t168.5 325h-319z" />
    <glyph glyph-name="eight.numr" horiz-adv-x="563" 
d="M283 817q-232 0 -232 211v45q0 165 117 195q-109 29 -109 164v38q0 93 56.5 144t167.5 51q110 0 165.5 -51t57.5 -144v-38q-3 -136 -111 -164q119 -32 119 -195v-45q0 -211 -231 -211zM174 1022q0 -62 26 -84.5t83 -22.5t82 22.5t26 84.5v86q-1 58 -27 81t-81 23t-82 -23
t-27 -81v-86zM182 1405q0 -48 25 -69t76 -21q98 0 98 92v68q0 49 -24 70.5t-74 21.5q-52 0 -76.5 -21.5t-24.5 -70.5v-70z" />
    <glyph glyph-name="nine.numr" horiz-adv-x="573" 
d="M285 1665q229 0 229 -256v-309q0 -143 -54.5 -213t-174.5 -70q-114 0 -166.5 57.5t-52.5 157.5v17h122v-15q0 -54 23 -80t72 -26q56 0 82 29.5t26 95.5v114q-52 -69 -149 -69q-92 0 -142.5 59t-50.5 168v100q0 118 60 179t176 61zM174 1319q0 -117 105 -117q53 0 82.5 31
t29.5 84v131q0 63 -27 90t-81 27q-56 0 -82.5 -27t-26.5 -88v-131z" />
    <glyph glyph-name="exclamdown.case" horiz-adv-x="440" 
d="M313 0h-188l10 1143h172zM84 1542q0 59 39 96t96 37q58 0 96.5 -37t38.5 -96q0 -62 -38.5 -99.5t-96.5 -37.5q-57 0 -96 38t-39 99z" />
    <glyph glyph-name="questiondown.case" horiz-adv-x="903" 
d="M446 -20q-203 0 -303 104.5t-100 275.5q0 72 18.5 133.5t48 107.5t65.5 89t72 87.5t65.5 93t48 116t18.5 146.5v28h172v-35q0 -87 -17 -161t-44.5 -126.5t-60.5 -99t-66.5 -88t-61 -84t-44.5 -97t-17 -116.5q0 -217 209 -217q117 0 168 66.5t51 199.5v97h194v-72
q0 -97 -22.5 -176t-70.5 -141t-130 -96.5t-193 -34.5zM330 1542q0 59 39 96t96 37q58 0 96.5 -37t38.5 -96q0 -62 -38.5 -99.5t-96.5 -37.5q-57 0 -96 38t-39 99z" />
    <glyph glyph-name="hyphen.case" horiz-adv-x="1128" 
d="M61 842h1008v-86h-1008v86z" />
    <glyph glyph-name="endash.case" horiz-adv-x="1427" 
d="M61 846h1307v-92h-1307v92z" />
    <glyph glyph-name="emdash.case" horiz-adv-x="2373" 
d="M61 846h2253v-92h-2253v92z" />
    <glyph glyph-name="parenleft.case" horiz-adv-x="544" 
d="M424 -180q-186 250 -270 491.5t-84 524.5q0 285 84 522.5t270 490.5h115q-197 -272 -282 -500.5t-85 -512.5q0 -285 84 -513t283 -503h-115z" />
    <glyph glyph-name="parenright.case" horiz-adv-x="546" 
d="M123 1843q186 -250 270 -491.5t84 -524.5q0 -285 -84 -522.5t-270 -490.5h-115q197 272 282 500.5t85 512.5q0 285 -84 513t-283 503h115z" />
    <glyph glyph-name="braceleft.case" horiz-adv-x="522" 
d="M68 946q79 0 79 180v373q0 185 64.5 269.5t194.5 84.5h88v-92h-86q-84 0 -121 -65t-37 -189v-374q0 -109 -18.5 -162t-71.5 -86v-92q53 -33 71.5 -86t18.5 -162v-377q0 -124 37 -188t121 -64h86v-92h-88q-130 0 -194.5 84t-64.5 268v375q0 180 -79 180v215z" />
    <glyph glyph-name="braceright.case" horiz-adv-x="522" 
d="M455 721q-80 0 -80 -180v-373q0 -186 -64 -270t-194 -84h-88v92h86q84 0 120.5 64.5t36.5 189.5v375q0 109 18.5 161.5t71.5 85.5v92q-53 33 -71.5 86t-18.5 162v377q0 124 -36.5 188t-120.5 64h-86v92h88q130 0 194 -84t64 -268v-375q0 -180 80 -180v-215z" />
    <glyph glyph-name="bracketleft.case" horiz-adv-x="534" 
d="M506 1853v-86h-285v-1861h285v-86h-387v2033h387z" />
    <glyph glyph-name="bracketright.case" horiz-adv-x="532" 
d="M27 -190v86h284v1861h-284v86h387v-2033h-387z" />
    <glyph glyph-name="at.case" horiz-adv-x="1400" 
d="M786 59q-336 0 -525 201t-189 592q0 158 34 289t93.5 223t142.5 155t180.5 93t206.5 30q142 0 249 -42.5t187 -134.5t121 -245.5t41 -367.5q0 -119 -12 -207t-39.5 -153.5t-74.5 -98.5t-114 -33q-145 0 -192 146q-73 -158 -231 -158q-146 0 -234 130t-88 358
q0 229 87.5 359t234.5 130q139 0 215 -127v117h139v-682q0 -189 86 -189q121 0 121 410q0 195 -33 332t-98 217.5t-153 116.5t-208 36q-93 0 -175 -25.5t-153 -81t-122 -136.5t-80 -199t-29 -262q0 -179 43.5 -315t125 -221t192.5 -127t251 -42q213 0 373 68v-86
q-169 -70 -373 -70zM481 836q0 -361 211 -361q101 0 144 87.5t43 273.5t-44 275t-145 89q-209 0 -209 -364z" />
    <glyph glyph-name="ampersand.ss01" horiz-adv-x="1546" 
d="M715 -20q-303 0 -458 120.5t-155 345.5v15q0 140 72.5 243t204.5 142q-126 37 -197 139.5t-71 245.5v12q0 201 155 316.5t451 115.5q303 0 450.5 -119.5t147.5 -361.5v-18h-191v18q0 173 -95.5 248.5t-309.5 75.5q-213 0 -314.5 -71.5t-101.5 -219.5v-21
q0 -157 103 -222.5t317 -65.5h401v126h191v-126h162v-152h-162v-322q0 -464 -600 -464zM295 446q0 -159 100.5 -234t319.5 -75q213 0 311 74.5t98 237.5v317h-403q-212 0 -319 -70.5t-107 -228.5v-21z" />
    <glyph glyph-name="cent.tf" horiz-adv-x="1128" 
d="M518 -143v286q-190 15 -284.5 137.5t-94.5 342.5v409q0 219 94 341.5t285 137.5v287h98v-287q187 -12 280.5 -127.5t96.5 -320.5l2 -102h-180l-2 120q-3 132 -53 197t-144 76v-1053q95 11 144.5 76t52.5 196l2 121h180l-2 -102q-10 -426 -377 -449v-286h-98zM319 602
q0 -143 50 -214t149 -85v1049q-99 -14 -149 -85t-50 -216v-449z" />
    <glyph glyph-name="dollar.tf" horiz-adv-x="1128" 
d="M520 -143v125q-393 27 -393 448v133h184v-135q0 -138 52.5 -205t156.5 -78v641l-110 66q-87 48 -142 101t-89 136t-34 195q0 180 94.5 280t280.5 109v125h98v-125q179 -14 273 -116.5t94 -292.5v-105h-182v86q0 130 -48 191.5t-137 72.5v-573l101 -59q70 -40 115.5 -76.5
t86 -91t59.5 -129t19 -174.5q0 -204 -91.5 -310t-289.5 -116v-123h-98zM328 1276q0 -55 12.5 -97.5t39.5 -75t57 -55t77 -49.5l6 -4v516q-94 -6 -143 -57t-49 -158v-20zM618 143q103 8 150 65t47 181v25q0 86 -23.5 145t-61 92.5t-105.5 71.5l-7 4v-584z" />
    <glyph glyph-name="Euro.tf" horiz-adv-x="1128" 
d="M49 707v81h119v78h-119v82h119v199q0 248 113.5 388t345.5 140q222 0 333.5 -130t114.5 -361l2 -205h-200v242q-3 152 -66.5 222t-183.5 70q-130 0 -195 -79.5t-65 -247.5v-238h362v-82h-362v-78h362v-81h-362v-236q0 -170 65 -250t195 -80q121 0 184 70.5t66 224.5v242
h200l-2 -205q-3 -232 -114.5 -362.5t-333.5 -130.5q-232 0 -345.5 140t-113.5 390v197h-119z" />
    <glyph glyph-name="sterling.tf" horiz-adv-x="1128" 
d="M106 135q95 76 140 163.5t45 209.5q0 54 -10 119h-175v98h154q-7 28 -30.5 109.5t-34.5 126.5t-22 123t-11 153q0 220 116 329t316 109q201 0 313.5 -112.5t112.5 -333.5v-119h-197v131q0 141 -55.5 210t-169.5 69q-240 0 -240 -283q0 -98 14.5 -180.5t49.5 -196
t41 -135.5h411v-98h-393q6 -43 6 -88q0 -120 -41.5 -211.5t-128.5 -171.5h703v-156h-914v135z" />
    <glyph glyph-name="yen.tf" horiz-adv-x="1128" 
d="M158 561v82h286l-366 1012h209l278 -834l279 834h207l-365 -1012h285v-82h-307v-86h307v-82h-307v-393h-197v393h-309v82h309v86h-309z" />
    <glyph glyph-name="bouclecomb" horiz-adv-x="968" 
d="M557 -20q-192 0 -301 174h-20v1009h20q16 35 39.5 65t59.5 59.5t88.5 47t115.5 17.5q163 0 252.5 -112t89.5 -316v-527q0 -196 -89.5 -306.5t-254.5 -110.5zM256 424q0 -122 61 -204.5t177 -82.5q215 0 215 285v487q0 283 -215 283q-79 0 -134 -41t-79.5 -104t-24.5 -142
v-481z" />
    <glyph glyph-name="slashcomb" horiz-adv-x="1191" 
d="M158 -12l753 1681h115l-754 -1681h-114z" />
    </font>
</defs>
</svg>
