<?xml version="1.0" standalone="no"?>
<!DOCTYPE svg PUBLIC "-//W3C//DTD SVG 1.1//EN" "http://www.w3.org/Graphics/SVG/1.1/DTD/svg11.dtd" >
<svg xmlns="http://www.w3.org/2000/svg" xmlns:xlink="http://www.w3.org/1999/xlink" version="1.1">
<metadata>
Created by FontForge 20170731 at Thu Oct  5 16:22:20 2023
 By Aleksey,,,
Copyright (c) 2021 by Mathieu Desjardins. All rights reserved.
</metadata>
<defs>
<font id="PPFormula-MediumItalic" horiz-adv-x="1593" >
  <font-face 
    font-family="PP Formula Medium"
    font-weight="500"
    font-style="italic"
    font-stretch="normal"
    units-per-em="2048"
    panose-1="0 0 0 0 0 0 0 0 0 0"
    ascent="1638"
    descent="-410"
    x-height="1331"
    cap-height="1692"
    bbox="-600 -471 3394 2116"
    underline-thickness="81"
    underline-position="-285"
    slope="-12"
    unicode-range="U+0020-FB02"
  />
<missing-glyph horiz-adv-x="1075" 
d="M883 1679v-2150h-682v2150h682zM358 -324h359v72h-219l149 100h70v72h-359v-72h152l-152 -100v-72zM358 -31h359v244h-359v-244zM358 342h359v244h-215v-121h71v49h72v-100h-215v172h-72v-244zM358 633h359v215h-72v-143h-287v-72zM358 756h215v149h144v72h-359v-72h144
v-80h-144v-69zM358 1034h359v74h-144v149h-215v-223zM358 1315h359v69h-144v80h144v72h-357v-72h142v-80h-144v-69zM430 41v100h215v-100h-215zM430 1108v78h72v-78h-72z" />
    <glyph glyph-name="fi" unicode="fi" horiz-adv-x="1515" 
d="M160 1331h336l18 82q12 57 26 97.5t41.5 81t65.5 65t98.5 40t139.5 15.5q158 0 303 -22l-33 -156q-95 10 -197 10q-129 0 -179 -37.5t-66 -122.5l-19 -86q30 16 82 23.5t101.5 8.5t171.5 1h63l-37 -178h-411l-246 -1153h-205l246 1153h-338zM1014 0l282 1331h205
l-282 -1331h-205zM1317 1599q9 49 53 81t109 32q66 0 95 -33t17 -90q-9 -47 -52.5 -78.5t-108.5 -31.5q-66 0 -95 33t-18 87z" />
    <glyph glyph-name="fl" unicode="fl" horiz-adv-x="1515" 
d="M160 1331h336l18 82q12 57 26 97.5t41.5 81t65.5 65t98.5 40t139.5 15.5q158 0 303 -22l-33 -156q-95 10 -197 10q-129 0 -179 -37.5t-66 -122.5l-19 -86q30 16 82 23.5t101.5 8.5t171.5 1h63l-37 -178h-411l-246 -1153h-205l246 1153h-338zM1012 0l360 1692h205
l-360 -1692h-205z" />
    <glyph glyph-name=".notdef" horiz-adv-x="1075" 
d="M883 1679v-2150h-682v2150h682zM358 -324h359v72h-219l149 100h70v72h-359v-72h152l-152 -100v-72zM358 -31h359v244h-359v-244zM358 342h359v244h-215v-121h71v49h72v-100h-215v172h-72v-244zM358 633h359v215h-72v-143h-287v-72zM358 756h215v149h144v72h-359v-72h144
v-80h-144v-69zM358 1034h359v74h-144v149h-215v-223zM358 1315h359v69h-144v80h144v72h-357v-72h142v-80h-144v-69zM430 41v100h215v-100h-215zM430 1108v78h72v-78h-72z" />
    <glyph glyph-name=".null" horiz-adv-x="0" 
 />
    <glyph glyph-name="nonmarkingreturn" horiz-adv-x="682" 
 />
    <glyph glyph-name="space" unicode=" " horiz-adv-x="628" 
 />
    <glyph glyph-name="exclam" unicode="!" horiz-adv-x="548" 
d="M389 1692h205l-264 -1180h-183zM23 123q13 61 61 99t109 38q59 0 91 -39.5t17 -105.5q-12 -59 -60.5 -97t-107.5 -38q-60 0 -92.5 39.5t-17.5 103.5z" />
    <glyph glyph-name="quotedbl" unicode="&#x22;" horiz-adv-x="618" 
d="M342 1692h129l-111 -512h-129zM469 1180l111 512h129l-111 -512h-129z" />
    <glyph glyph-name="numbersign" unicode="#" horiz-adv-x="1943" 
d="M301 1128h590l471 564h115l-473 -564h483l473 564h113l-471 -564h337l-12 -86h-399l-373 -446h561l-14 -86h-619l-428 -510h-114l428 510h-484l-428 -510h-112l428 510h-310l15 86h366l373 446h-528zM557 596h483l375 446h-483z" />
    <glyph glyph-name="dollar" unicode="$" horiz-adv-x="1320" 
d="M633 -20q-47 0 -72 2l-26 -125h-111l31 137q-214 40 -313.5 180.5t-71.5 374.5l12 63h211l-14 -80q-37 -293 217 -352l137 635l-66 37q-42 22 -66.5 35.5t-64 39.5t-63 48t-52 56.5t-43 70.5t-23 84t-5.5 102q12 198 146.5 311t373.5 113l59 -2l27 125h111l-31 -137
q198 -37 290.5 -165.5t67.5 -332.5l-10 -57h-211l10 61q33 257 -186 309l-123 -557l55 -30q47 -24 74.5 -39t71 -43t69.5 -52t56.5 -61.5t46 -77t24.5 -92t5 -112.5q-14 -229 -150.5 -349t-392.5 -120zM459 1286q-3 -46 8 -84.5t26.5 -63t49.5 -50t58 -39t71 -37.5l4 -2
l112 518h-24q-146 0 -220 -59.5t-85 -180.5v-2zM602 166h39q157 0 236 67t88 213q5 64 -9.5 113t-49.5 86t-74 62.5t-99 54.5z" />
    <glyph glyph-name="percent" unicode="%" horiz-adv-x="1777" 
d="M170 0l1380 1692h129l-1380 -1692h-129zM197 1354q14 70 48.5 133t86 114t124.5 81t156 30q110 0 182 -55t95.5 -138.5t3.5 -177.5q-32 -148 -143.5 -254t-274.5 -106q-67 0 -121 21.5t-87 57.5t-54.5 84t-23.5 101.5t8 108.5zM362 1346q-20 -94 17 -151.5t121 -57.5
q83 0 145 57.5t82 151.5q20 96 -16.5 153t-120.5 57t-146 -57t-82 -153zM961 352q32 149 143.5 254t275.5 105q110 0 181.5 -55t94.5 -138t3 -176q-32 -149 -144 -255.5t-274 -106.5q-67 0 -121 21t-87.5 57.5t-55.5 84t-24 101t8 108.5zM1128 346q-20 -95 17 -153t121 -58
t145 58t80 153q20 95 -16.5 152t-120.5 57q-83 0 -144.5 -57.5t-81.5 -151.5z" />
    <glyph glyph-name="ampersand" unicode="&#x26;" horiz-adv-x="1482" 
d="M608 -20q-300 0 -437.5 138.5t-90.5 364.5l6 29q64 297 350 358q-111 44 -160.5 150.5t-17.5 251.5l4 22q39 191 188 304.5t416 113.5q286 0 411 -123.5t97 -359.5l-6 -29h-209l8 41q14 159 -56.5 229t-252.5 70q-174 0 -266.5 -63t-120.5 -199l-10 -47q-32 -149 46 -218
t243 -69h354l26 127h209l-26 -127h149l-37 -168h-149l-70 -330q-50 -236 -194.5 -351t-403.5 -115zM289 461q-30 -149 48 -229t273 -80q169 0 262.5 70t124.5 222l70 332h-348q-182 0 -284.5 -57.5t-133.5 -202.5z" />
    <glyph glyph-name="quotesingle" unicode="'" horiz-adv-x="380" 
d="M342 1692h129l-111 -512h-129z" />
    <glyph glyph-name="parenleft" unicode="(" horiz-adv-x="616" 
d="M287 -311q-289 593 -160 1134q68 280 203 492t387 448h129q-138 -131 -231 -234t-171.5 -217t-130 -234.5t-86.5 -266.5q-48 -183 -40.5 -370.5t58 -366t150.5 -385.5h-108z" />
    <glyph glyph-name="parenright" unicode=")" horiz-adv-x="616" 
d="M356 1767q289 -593 160 -1134q-68 -280 -203 -492t-387 -448h-129q138 131 231 234t171.5 217t130 234.5t86.5 266.5q48 183 40.5 370.5t-58 366t-150.5 385.5h108z" />
    <glyph glyph-name="asterisk" unicode="*" horiz-adv-x="784" 
d="M559 1659h82l-51 -240l211 101l26 -70l-206 -98l165 -99l-55 -69l-170 100l-51 -240h-82l51 240l-211 -100l-26 69l207 99l-166 98l55 70l170 -101z" />
    <glyph glyph-name="plus" unicode="+" horiz-adv-x="1609" 
d="M141 797l19 92h641l114 538h103l-115 -538h641l-18 -92h-643l-115 -537h-102l114 537h-639z" />
    <glyph glyph-name="comma" unicode="," horiz-adv-x="477" 
d="M-35 -121q63 16 124.5 57.5t90.5 94.5q-48 -51 -106 -51q-50 0 -77 36.5t-13 100.5q13 66 60.5 104.5t113.5 38.5t94.5 -47t13.5 -123q-23 -104 -111.5 -190t-215.5 -146z" />
    <glyph glyph-name="hyphen" unicode="-" horiz-adv-x="1570" 
d="M104 721h1385l-19 -90h-1384z" />
    <glyph glyph-name="period" unicode="." horiz-adv-x="479" 
d="M100 -20q-60 0 -92.5 39.5t-17.5 103.5q13 61 61 99t109 38q59 0 91 -39.5t17 -105.5q-12 -59 -60.5 -97t-107.5 -38z" />
    <glyph glyph-name="slash" unicode="/" horiz-adv-x="1255" 
d="M1432 1692l-1418 -1692h-114l1419 1692h113z" />
    <glyph glyph-name="zero" unicode="0" horiz-adv-x="1533" 
d="M702 -20q-139 0 -248.5 38t-180.5 107.5t-112 168.5t-43.5 220t25.5 262l60 283q134 653 704 653q172 0 298 -57t194 -161.5t88 -251.5t-21 -327l-59 -282q-137 -653 -705 -653zM340 420l874 981q-94 127 -307 127q-90 0 -164 -25t-126 -67t-92.5 -104t-65.5 -130.5
t-43 -152.5l-66 -310q-41 -185 -10 -319zM397 291q91 -127 305 -127q90 0 164 24.5t126 66.5t92.5 104t65.5 130.5t42 153.5l65 309q41 188 13 320z" />
    <glyph glyph-name="one" unicode="1" horiz-adv-x="1138" 
d="M8 184h406l272 1262q-91 -77 -199.5 -113.5t-255.5 -36.5l39 195q262 0 469 201h205l-321 -1508h405l-39 -184h-1020z" />
    <glyph glyph-name="two" unicode="2" horiz-adv-x="1480" 
d="M20 195q21 102 49.5 180.5t76 152.5t114 129t163.5 101.5t224 79.5l232 73q177 43 275 112t126 196l2 14q33 153 -64.5 224t-287.5 71q-218 0 -327 -86.5t-144 -284.5l-13 -59h-217l13 57q35 186 114 306.5t222 185.5t354 65q197 0 334.5 -58.5t199.5 -179t27 -290.5
q-37 -174 -163 -280.5t-359 -162.5l-252 -79q-90 -23 -157.5 -49.5t-116.5 -60t-82.5 -68.5t-57.5 -85t-39 -97.5t-30 -117.5h1034l-39 -184h-1251z" />
    <glyph glyph-name="three" unicode="3" horiz-adv-x="1466" 
d="M645 -20q-328 0 -470 127.5t-116 392.5l9 32h215l-11 -43q-15 -181 73.5 -253t299.5 -72q201 0 302 61.5t130 200.5l10 53q34 160 -49 226.5t-280 66.5h-230l39 184h228q91 0 154.5 8.5t123.5 32t97 71t53 120.5l8 45q32 153 -55.5 224t-290.5 71q-191 0 -298 -70.5
t-132 -240.5l-9 -37h-215l7 32q33 251 188.5 375.5t458.5 124.5q131 0 235 -25t171.5 -70t109.5 -108t49.5 -139.5t-8.5 -163.5l-2 -14q-25 -128 -107.5 -214t-218.5 -118q64 -23 108 -66t64 -98t24 -121t-12 -135l-4 -20q-44 -219 -199.5 -329.5t-449.5 -110.5z" />
    <glyph glyph-name="four" unicode="4" horiz-adv-x="1429" 
d="M1370 1692l-248 -1164h205l-39 -184h-205l-73 -344h-211l73 344h-880l39 193l1128 1155h211zM242 528h669l185 867z" />
    <glyph glyph-name="five" unicode="5" horiz-adv-x="1454" 
d="M868 1135q126 0 227 -40.5t164 -115.5t86.5 -182t-4.5 -240l-20 -94q-51 -234 -213.5 -358.5t-439.5 -124.5q-296 0 -455 138.5t-125 370.5l6 43h217l-10 -55q-20 -151 81 -232t290 -81q366 0 434 299l22 106q36 184 -49.5 282.5t-273.5 98.5q-291 0 -451 -241h-213
l267 983h1062l-38 -185h-869l-155 -553q187 181 460 181z" />
    <glyph glyph-name="six" unicode="6" horiz-adv-x="1501" 
d="M698 -20q-346 0 -489 162.5t-82 459.5l115 547q29 139 77.5 240t127 175t193 111t267.5 37q304 0 446 -129.5t111 -357.5l-6 -31h-215l6 35q21 151 -67.5 221t-280.5 70q-190 0 -294.5 -84.5t-145.5 -276.5l-41 -198q162 180 452 180q181 0 306.5 -68.5t177.5 -198
t16 -301.5l-22 -104q-24 -115 -70 -202t-122.5 -153t-192 -100t-267.5 -34zM328 530q-37 -171 53.5 -268.5t320.5 -97.5q191 0 295 76.5t138 236.5l22 107q74 368 -360 368q-379 0 -447 -313z" />
    <glyph glyph-name="seven" unicode="7" horiz-adv-x="1253" 
d="M190 1507l39 185h1188l-37 -187q-127 -85 -235.5 -183t-189 -195t-149.5 -210.5t-116.5 -216t-90 -227t-70 -227.5t-56.5 -232l-2 -14h-213l4 20q25 123 51 226.5t66 226t87 227t114 218.5t146 212t183.5 196t227.5 181h-947z" />
    <glyph glyph-name="eight" unicode="8" horiz-adv-x="1478" 
d="M668 -20q-336 0 -487 136.5t-103 379.5l6 30q68 328 393 385q-112 37 -166.5 141t-23.5 251l6 28q81 381 594 381q310 0 459 -127.5t104 -333.5l-8 -30q-28 -135 -116.5 -216.5t-217.5 -109.5q131 -38 189.5 -157t21.5 -296l-6 -30q-46 -220 -201.5 -326t-443.5 -106z
M289 473q-34 -162 58.5 -238.5t318.5 -76.5q196 0 299 62t133 210l14 68q32 159 -57.5 233t-317.5 74q-194 0 -299.5 -62t-134.5 -204zM494 1249q-27 -128 58.5 -195t285.5 -67q172 0 268 56t121 174l10 53q27 130 -59.5 197t-288.5 67q-173 0 -266 -55t-119 -176z" />
    <glyph glyph-name="nine" unicode="9" horiz-adv-x="1503" 
d="M881 1712q346 0 489 -162.5t82 -459.5l-115 -547q-29 -139 -77.5 -240t-127 -175t-193 -111t-267.5 -37q-304 0 -446 129.5t-111 357.5l6 31h215l-6 -35q-21 -151 67.5 -221t280.5 -70q191 0 295 84t145 276l41 199q-162 -180 -452 -180q-135 0 -241 39.5t-172.5 113
t-90.5 178.5t4 236l22 105q24 115 70 202t122.5 153t192 100t267.5 34zM422 1108q-75 -369 360 -369q378 0 447 314l22 108q37 171 -53.5 269t-320.5 98q-191 0 -295 -77t-138 -237z" />
    <glyph glyph-name="colon" unicode=":" horiz-adv-x="550" 
d="M319 856q-60 0 -92.5 39.5t-17.5 103.5q13 61 61 99.5t109 38.5q59 0 91 -40t17 -106q-12 -59 -60.5 -97t-107.5 -38zM18 123q13 61 61 99t109 38q59 0 91.5 -40t17.5 -105q-12 -59 -60.5 -97t-107.5 -38q-60 0 -93 39.5t-18 103.5z" />
    <glyph glyph-name="semicolon" unicode=";" horiz-adv-x="540" 
d="M307 854q-60 0 -92.5 39.5t-17.5 103.5q13 61 61 99.5t109 38.5q59 0 91 -40t17 -106q-12 -59 -60.5 -97t-107.5 -38zM-31 -246l27 125q63 16 124.5 57.5t90.5 94.5q-48 -51 -107 -51q-50 0 -77 36.5t-13 100.5q13 66 60.5 104.5t113.5 38.5t95 -47t14 -123
q-23 -104 -112 -190t-216 -146z" />
    <glyph glyph-name="less" unicode="&#x3c;" horiz-adv-x="1480" 
d="M135 885l1309 325l-23 -98l-1128 -268l1016 -266l-21 -101l-1169 326z" />
    <glyph glyph-name="equal" unicode="=" horiz-adv-x="1630" 
d="M199 1032h1384l-18 -90h-1385zM121 657l18 91h1385l-19 -91h-1384z" />
    <glyph glyph-name="greater" unicode="&#x3e;" horiz-adv-x="1474" 
d="M1415 805l-1309 -326l23 99l1128 268l-1015 266l20 100l1170 -325z" />
    <glyph glyph-name="question" unicode="?" horiz-adv-x="1196" 
d="M768 1712q251 0 375.5 -107.5t124.5 -293.5q0 -91 -32 -164.5t-84.5 -124.5t-116.5 -95t-132 -87.5t-127 -90.5t-105 -116.5t-63 -153.5l-6 -30h-190l6 30q20 103 66 186.5t103 138t121 100.5t124.5 85t110 81t80 99.5t32.5 128.5q0 111 -72.5 175.5t-220.5 64.5
q-341 0 -379 -350l-8 -51h-213l8 49q71 526 598 526zM311 123q13 61 61 99t109 38q59 0 91.5 -40t17.5 -105q-12 -59 -60.5 -97t-107.5 -38q-60 0 -93 39.5t-18 103.5z" />
    <glyph glyph-name="at" unicode="@" horiz-adv-x="1757" 
d="M768 -170q-188 0 -331.5 60t-231 175.5t-114 284t19.5 385.5q79 369 328 573.5t608 204.5q240 0 396 -94.5t214.5 -281.5t-2.5 -467q-52 -238 -153 -366t-249 -128q-85 0 -135 45.5t-53 130.5q-131 -184 -344 -184q-182 0 -266.5 142.5t-32.5 381.5q47 219 183.5 347
t312.5 128q208 0 274 -174l33 156h147l-151 -705q-38 -182 69 -182q84 0 151.5 105.5t110.5 302.5q57 254 7 420.5t-184.5 248.5t-346.5 82q-305 0 -525 -183.5t-292 -520.5q-41 -193 -18.5 -341.5t99.5 -250t202 -153.5t290 -52q130 0 270 23t228 57l-18 -92
q-94 -35 -228.5 -56.5t-267.5 -21.5zM569 690q-41 -186 14.5 -287.5t194.5 -101.5q267 0 344 367q38 180 -14 273t-186 93q-132 0 -224 -90t-129 -254z" />
    <glyph glyph-name="A" unicode="A" horiz-adv-x="1439" 
d="M-115 0l914 1692h280l195 -1692h-221l-33 332h-729l-176 -332h-230zM389 518h612l-94 938l-6 33z" />
    <glyph glyph-name="B" unicode="B" horiz-adv-x="1558" 
d="M35 0l360 1692h731q230 0 331 -124t59 -327l-7 -20q-30 -143 -102.5 -225t-189.5 -113q114 -43 167.5 -155t18.5 -273l-6 -25q-48 -227 -174 -328.5t-367 -101.5h-821zM289 186h536q80 0 134.5 10t100.5 37t74 76t44 125l10 47q33 150 -31 226.5t-213 76.5h-526zM457 973
h497q71 0 119.5 8t93.5 31.5t74 70t45 119.5l8 37q30 137 -21.5 201.5t-201.5 64.5h-500z" />
    <glyph glyph-name="C" unicode="C" 
d="M750 -20q-229 0 -387 104.5t-218.5 291t-11.5 423.5l60 282q23 102 62 191t103 171.5t146.5 141t198 93t253.5 34.5q306 0 475.5 -162.5t139.5 -447.5l-21 -105h-219l23 121q11 103 -14.5 182t-80.5 127.5t-131 72.5t-172 24q-121 0 -218 -36t-161 -100.5t-104 -143
t-59 -173.5l-68 -313q-36 -170 1 -303.5t143.5 -210t267.5 -76.5q205 0 333.5 104.5t170.5 294.5l28 125h221l-24 -106q-62 -286 -247.5 -446t-489.5 -160z" />
    <glyph glyph-name="D" unicode="D" horiz-adv-x="1597" 
d="M35 0l360 1692h582q337 0 489 -214.5t72 -574.5l-57 -270q-66 -314 -254 -473.5t-520 -159.5h-672zM289 182h430q123 0 216.5 31t158 93.5t105.5 147t65 199.5l61 289q58 271 -34 419t-335 148h-387z" />
    <glyph glyph-name="E" unicode="E" horiz-adv-x="1359" 
d="M35 0l360 1692h1071l-39 -187h-856l-120 -565h811l-39 -188h-813l-121 -566h858l-41 -186h-1071z" />
    <glyph glyph-name="F" unicode="F" horiz-adv-x="1339" 
d="M35 0l360 1692h1090l-41 -187h-873l-137 -639h830l-39 -186h-830l-145 -680h-215z" />
    <glyph glyph-name="G" unicode="G" horiz-adv-x="1634" 
d="M725 -20q-233 0 -385 111.5t-202 298.5t-1 421l60 281q28 133 86 242.5t149 195.5t224 134t296 48q204 0 355 -76.5t224.5 -217t51.5 -322.5l-16 -78h-219l18 98q24 192 -93.5 300t-326.5 108q-223 0 -355.5 -116.5t-172.5 -315.5l-68 -314q-19 -104 -19 -195.5
t28.5 -168t78 -131t130 -85t184.5 -30.5q393 0 516 414l20 92h-571l39 176h790l-180 -850h-137l35 244q-191 -264 -539 -264z" />
    <glyph glyph-name="H" unicode="H" horiz-adv-x="1603" 
d="M1071 0l160 752h-821l-160 -752h-213l358 1692h213l-159 -752h821l160 752h212l-358 -1692h-213z" />
    <glyph glyph-name="I" unicode="I" horiz-adv-x="1101" 
d="M-47 0l43 193h348l277 1306h-349l39 193h914l-41 -193h-348l-279 -1306h350l-43 -193h-911z" />
    <glyph glyph-name="J" unicode="J" horiz-adv-x="1386" 
d="M578 -20q-619 0 -549 634l10 45h217l-14 -65q-22 -219 55.5 -323.5t280.5 -104.5q174 0 267 90.5t140 312.5l240 1123h215l-238 -1123q-25 -121 -56 -208.5t-80 -162.5t-114.5 -121t-158.5 -71.5t-215 -25.5z" />
    <glyph glyph-name="K" unicode="K" horiz-adv-x="1452" 
d="M1036 0l-506 750h-120l-160 -750h-213l358 1692h213l-159 -750h112l825 750h279l-952 -846l587 -846h-264z" />
    <glyph glyph-name="L" unicode="L" horiz-adv-x="1269" 
d="M37 0l358 1692h213l-319 -1506h854l-41 -186h-1065z" />
    <glyph glyph-name="M" unicode="M" horiz-adv-x="1890" 
d="M35 0l360 1692h242l240 -1330l809 1330h245l-360 -1692h-203l274 1274l-774 -1274h-123l-233 1276l-274 -1276h-203z" />
    <glyph glyph-name="N" unicode="N" horiz-adv-x="1632" 
d="M35 0l360 1692h205l586 -1321l282 1321h205l-358 -1692h-205l-586 1321l-282 -1321h-207z" />
    <glyph glyph-name="O" unicode="O" horiz-adv-x="1642" 
d="M770 -20q-177 0 -316 57.5t-222 162t-113 251t10 323.5l59 283q22 107 61 200t103 178t146.5 145.5t197.5 96t252 35.5q233 0 396.5 -101t228.5 -283.5t16 -414.5l-59 -278q-23 -106 -61.5 -199t-102 -178t-146 -145.5t-198 -96.5t-252.5 -36zM344 741q-37 -167 0 -296.5
t147 -203t279 -73.5q82 0 153 17.5t125 50t97.5 75t75 96t52.5 109.5t34 119l67 315q37 168 -1.5 298t-149 203t-277.5 73q-98 0 -180 -26t-139.5 -69t-102 -104.5t-71.5 -127.5t-43 -142z" />
    <glyph glyph-name="P" unicode="P" horiz-adv-x="1531" 
d="M35 0l360 1692h682q120 0 213 -30t151 -85t92 -131.5t35.5 -170.5t-18.5 -202l-6 -29q-32 -161 -102.5 -263t-200.5 -157t-326 -55h-544l-121 -569h-215zM410 754h524q125 0 206.5 36.5t122.5 99.5t62 163l16 73q20 82 13 152t-35.5 121.5t-93 80.5t-160.5 29h-496z" />
    <glyph glyph-name="Q" unicode="Q" horiz-adv-x="1642" 
d="M770 168q82 0 153 17.5t125 50t97.5 75t75 96t52.5 109.5t34 119l67 315q37 168 -1.5 298t-149 203t-277.5 73q-98 0 -180 -26t-139.5 -69t-102 -104.5t-71.5 -127.5t-43 -142l-66 -314q-37 -167 0 -296.5t147 -203t279 -73.5zM129 774l59 283q22 107 61 200t103 178
t146.5 145.5t197.5 96t252 35.5q233 0 396.5 -101t228.5 -283.5t16 -414.5l-59 -278q-21 -98 -55 -184t-88.5 -166.5t-125 -141t-168 -102.5t-212.5 -55q218 -27 393 -111l-41 -180q-178 85 -325 122t-359 44l35 137q-271 56 -395.5 264.5t-59.5 511.5z" />
    <glyph glyph-name="R" unicode="R" horiz-adv-x="1560" 
d="M1096 0q-20 48 6 154l49 233q67 307 -250 307h-504l-147 -694h-215l360 1692h684q261 0 385.5 -139t71.5 -382l-4 -18q-36 -163 -117 -250t-223 -121q123 -48 164.5 -158t7.5 -259l-47 -218q-26 -108 -10 -147h-211zM436 877h508q94 0 158 15.5t104.5 50.5t62.5 79.5
t38 112.5l12 55q37 169 -32.5 244t-235.5 75h-480z" />
    <glyph glyph-name="S" unicode="S" horiz-adv-x="1415" 
d="M686 -20q-335 0 -492.5 143t-125.5 426l10 61h219l-14 -84q-22 -186 75 -273t332 -87q188 0 271.5 65.5t93.5 221.5q3 42 -2.5 77.5t-14.5 61t-28.5 48.5t-36.5 38t-47 31t-52 25.5t-59 23.5l-203 86q-50 20 -82.5 34.5t-76 38.5t-71 46.5t-57 55.5t-45 70t-24.5 86.5
t-6 106.5q12 207 152.5 318.5t414.5 111.5q314 0 461 -133t117 -381l-9 -53h-219l11 63q21 168 -68 244t-295 76q-178 0 -257.5 -58.5t-88.5 -185.5q-2 -35 4.5 -66t16.5 -53.5t32 -43.5t38.5 -34t47 -28.5t47.5 -22.5t50 -20l198 -86q53 -21 84 -34t77 -37.5t73.5 -47.5
t58.5 -59t47 -77t25.5 -96.5t5.5 -121.5q-14 -240 -155 -358.5t-433 -118.5z" />
    <glyph glyph-name="T" unicode="T" horiz-adv-x="1329" 
d="M416 0l319 1505h-524l39 187h1263l-38 -187h-525l-321 -1505h-213z" />
    <glyph glyph-name="U" unicode="U" horiz-adv-x="1591" 
d="M731 -20q-355 0 -499 167t-80 471l229 1074h215l-236 -1110q-48 -219 51 -317.5t324 -98.5q101 0 171 17.5t127.5 62.5t95.5 123.5t63 199.5l238 1123h217l-238 -1117q-68 -325 -219.5 -460t-458.5 -135z" />
    <glyph glyph-name="V" unicode="V" horiz-adv-x="1439" 
d="M438 0l-196 1692h221l147 -1456l6 -33l785 1489h231l-913 -1692h-281z" />
    <glyph glyph-name="W" unicode="W" horiz-adv-x="2273" 
d="M338 0l-86 1692h217l59 -1438l680 1438h273l67 -1442l672 1442h223l-803 -1692h-276l-68 1417l-2 17l-6 -17l-676 -1417h-274z" />
    <glyph glyph-name="X" unicode="X" horiz-adv-x="1431" 
d="M-125 0l754 856l-371 836h231l295 -672l580 672h260l-741 -838l379 -854h-236l-299 690l-594 -690h-258z" />
    <glyph glyph-name="Y" unicode="Y" horiz-adv-x="1435" 
d="M465 0l129 592l-367 1100h230l284 -877l650 877h249l-833 -1100l-129 -592h-213z" />
    <glyph glyph-name="Z" unicode="Z" horiz-adv-x="1339" 
d="M-61 0l36 188l1205 1317h-922l39 187h1182l-37 -189l-1204 -1317h921l-41 -186h-1179z" />
    <glyph glyph-name="bracketleft" unicode="[" horiz-adv-x="641" 
d="M844 1767l-21 -88h-338l-403 -1900h338l-21 -90h-440l444 2078h441z" />
    <glyph glyph-name="backslash" unicode="\" horiz-adv-x="1189" 
d="M244 1692h114l666 -1692h-115z" />
    <glyph glyph-name="bracketright" unicode="]" horiz-adv-x="641" 
d="M-176 -311l20 88h338l404 1900h-338l20 90h441l-445 -2078h-440z" />
    <glyph glyph-name="asciicircum" unicode="^" horiz-adv-x="1021" 
d="M926 1077l-201 551l-438 -551h-111l488 615h147l225 -615h-110z" />
    <glyph glyph-name="underscore" unicode="_" horiz-adv-x="1574" 
d="M-178 -160h1573l-17 -86h-1573z" />
    <glyph glyph-name="grave" unicode="`" horiz-adv-x="1339" 
d="M1319 1532l-39 -80l-877 152l37 79z" />
    <glyph glyph-name="a" unicode="a" horiz-adv-x="1335" 
d="M850 0l41 190q-78 -105 -201.5 -157.5t-277.5 -52.5q-82 0 -151.5 18t-124 55t-85.5 99.5t-31 144.5q0 161 109 267t324 147l231 32q160 31 247.5 70t110.5 115l2 6q24 117 -49 179.5t-223 62.5q-325 0 -379 -293l-6 -35h-207l6 31q42 225 188 349t408 124
q269 0 386.5 -125.5t72.5 -339.5l-188 -887h-203zM233 328q0 -87 62 -134t172 -47q115 0 209.5 39.5t171 132t117.5 232.5l30 139l4 25q-37 -46 -106.5 -74t-190.5 -51l-198 -31q-271 -44 -271 -231z" />
    <glyph glyph-name="b" unicode="b" horiz-adv-x="1386" 
d="M16 0l359 1692h205l-111 -525q62 85 158.5 135t222.5 50q125 0 225 -47t159 -131.5t80 -201t-11 -255.5l-50 -234q-48 -236 -187 -369.5t-351 -133.5q-161 0 -277.5 72t-163.5 200l-53 -252h-205zM348 594q-42 -196 42 -316t276 -120q152 0 251.5 95.5t133.5 264.5
l45 209q43 202 -39 324.5t-262 122.5q-158 0 -264 -104.5t-142 -278.5z" />
    <glyph glyph-name="c" unicode="c" horiz-adv-x="1316" 
d="M1049 840q21 162 -62.5 248t-245.5 86q-94 0 -167 -29t-120 -80t-75 -109.5t-43 -128.5l-45 -209q-45 -221 39 -340.5t274 -119.5q147 0 239.5 71t135.5 228l18 73h211l-12 -59q-55 -235 -204.5 -363t-391.5 -128q-296 0 -435.5 182.5t-76.5 490.5l39 178q19 85 50 158.5
t83 141.5t119.5 116t162.5 76.5t208 28.5q264 0 400 -145t105 -382l-8 -55h-211z" />
    <glyph glyph-name="d" unicode="d" horiz-adv-x="1384" 
d="M1241 1692h205l-359 -1692h-202l35 168q-62 -85 -158.5 -134.5t-222.5 -49.5q-167 0 -285 80.5t-163 226t-5 327.5l49 234q48 236 187.5 370t351.5 134q160 0 276.5 -72t163.5 -199zM293 608q-43 -201 39 -323.5t262 -122.5q158 0 263.5 104t141.5 279l41 196
q42 196 -41.5 316.5t-275.5 120.5q-152 0 -251.5 -96t-133.5 -265z" />
    <glyph glyph-name="e" unicode="e" horiz-adv-x="1310" 
d="M88 647l37 178q19 86 50 160.5t82.5 143t117.5 117t159.5 77.5t204.5 29q119 0 212.5 -29t154 -82.5t97 -128.5t41.5 -166t-13 -196l-27 -125h-909l-4 -19q-45 -209 42 -328.5t279 -119.5q265 0 342 237l13 49h211l-11 -34q-125 -430 -563 -430q-195 0 -327 83
t-181.5 234.5t-7.5 349.5zM330 782h692l14 70q18 163 -62 242.5t-233 79.5q-93 0 -166 -29.5t-120 -82.5t-75.5 -113.5t-43.5 -133.5z" />
    <glyph glyph-name="f" unicode="f" horiz-adv-x="987" 
d="M160 1331h336l18 82q12 57 26 97.5t41.5 81t65.5 65t98.5 40t139.5 15.5q158 0 303 -22l-33 -156q-95 10 -197 10q-129 0 -179 -37.5t-66 -122.5l-19 -86q30 16 82 23.5t101.5 8.5t171.5 1h63l-37 -178h-411l-246 -1153h-205l246 1153h-338z" />
    <glyph glyph-name="g" unicode="g" horiz-adv-x="1384" 
d="M887 14l33 152q-64 -85 -161 -135.5t-222 -50.5q-167 0 -285 80.5t-163 226t-5 327.5l49 234q48 236 187.5 370t351.5 134q161 0 277.5 -73.5t162.5 -203.5l55 256h205l-287 -1349q-27 -122 -60 -202t-85.5 -137t-126.5 -81.5t-180 -24.5h-713l39 178h619q144 0 208.5 65
t100.5 234zM291 604q-43 -201 39 -323.5t262 -122.5q158 0 263.5 104t141.5 279l41 196q42 196 -41.5 316.5t-275.5 120.5q-152 0 -251.5 -96t-133.5 -265z" />
    <glyph glyph-name="h" unicode="h" horiz-adv-x="1363" 
d="M580 1692l-113 -533q159 193 405 193q223 0 330.5 -144.5t59.5 -373.5l-179 -834h-204l176 819q35 167 -35.5 262t-228.5 95q-75 0 -138 -23t-105 -58.5t-74.5 -84t-50 -94t-26.5 -93.5l2 15l-178 -838h-205l359 1692h205zM395 817l2 6q-2 -2 -2 -6z" />
    <glyph glyph-name="i" unicode="i" horiz-adv-x="518" 
d="M299 1331h205l-283 -1331h-205zM319 1599q9 49 53 81t109 32q66 0 95.5 -33.5t17.5 -89.5q-9 -46 -53 -78t-109 -32q-66 0 -95 33t-18 87z" />
    <glyph glyph-name="j" unicode="j" horiz-adv-x="518" 
d="M12 -10l287 1341h205l-297 -1390q-34 -161 -82 -245.5t-129 -121.5t-221 -37h-221l38 178h138q75 0 118.5 10t76 42.5t50 82t37.5 140.5zM319 1599q9 49 53 81t109 32q66 0 95.5 -33.5t17.5 -89.5q-9 -46 -53 -78t-109 -32q-66 0 -95 33t-18 87z" />
    <glyph glyph-name="k" unicode="k" horiz-adv-x="1261" 
d="M375 1692h205l-199 -934h88l666 573h268l-795 -674l504 -657h-256l-432 582h-80l-123 -582h-207z" />
    <glyph glyph-name="l" unicode="l" horiz-adv-x="518" 
d="M375 1692h205l-361 -1692h-205z" />
    <glyph glyph-name="m" unicode="m" horiz-adv-x="2043" 
d="M1735 840q10 49 11.5 93.5t-10 90t-36 78.5t-72 53.5t-112.5 20.5q-67 0 -122.5 -22.5t-92 -57t-65 -82.5t-44 -92.5t-25.5 -94.5v4l-178 -831h-205l179 840q10 47 11.5 91t-9 89.5t-34.5 79t-71 55t-112 21.5q-75 0 -136.5 -27.5t-101.5 -75t-65 -99t-39 -110.5
l-185 -864h-207l285 1331h205l-29 -137q124 158 336 158q135 0 223.5 -64t124.5 -168q39 54 75.5 92t85 72t110.5 51t137 17q93 0 167 -26.5t119.5 -73.5t73 -111t29 -138t-13.5 -155l-183 -848h-205z" />
    <glyph glyph-name="n" unicode="n" horiz-adv-x="1363" 
d="M504 1331l-35 -168q157 189 401 189q223 0 330.5 -144.5t59.5 -373.5l-179 -834h-204l176 819q35 167 -35.5 262t-229.5 95q-68 0 -126 -19t-98.5 -49t-73 -72t-52 -83t-32.5 -87l-185 -866h-207l285 1331h205z" />
    <glyph glyph-name="o" unicode="o" horiz-adv-x="1341" 
d="M610 -20q-197 0 -330 82t-183.5 232.5t-8.5 346.5l37 178q19 89 48.5 164t79 144.5t114.5 118t158 77.5t206 29q198 0 331 -83.5t183 -234.5t8 -348l-39 -178q-112 -528 -604 -528zM291 606q-45 -211 41.5 -329.5t277.5 -118.5q321 0 398 356l43 209q45 211 -42.5 331
t-279.5 120q-318 0 -395 -359z" />
    <glyph glyph-name="p" unicode="p" horiz-adv-x="1386" 
d="M504 1331l-35 -164q140 185 381 185q125 0 225 -47t159 -131.5t80 -201t-11 -255.5l-50 -234q-48 -236 -187 -369.5t-351 -133.5q-161 0 -277.5 72t-163.5 200l-151 -715h-205l381 1794h205zM348 594q-42 -196 42 -316t276 -120q152 0 251.5 95.5t133.5 264.5l45 209
q43 202 -39 324.5t-262 122.5q-158 0 -264 -104.5t-142 -278.5z" />
    <glyph glyph-name="q" unicode="q" horiz-adv-x="1384" 
d="M784 -463l134 625q-62 -83 -158.5 -132.5t-220.5 -49.5q-167 0 -285 80.5t-163 226t-5 327.5l49 234q48 236 187.5 370t351.5 134q161 0 277.5 -73t162.5 -202l55 254h205l-385 -1794h-205zM293 604q-43 -201 39 -323.5t262 -122.5q158 0 263.5 104t141.5 279l41 196
q42 196 -41.5 316.5t-275.5 120.5q-152 0 -251.5 -96t-133.5 -265z" />
    <glyph glyph-name="r" unicode="r" horiz-adv-x="1163" 
d="M504 1331l-39 -186q142 207 387 207q96 0 168.5 -38.5t110.5 -105t47.5 -157t-19.5 -195.5l-26 -104h-209l20 84q20 71 20 131.5t-20 108t-66.5 74t-115.5 26.5q-65 0 -120.5 -21t-94 -54.5t-69.5 -79t-49 -90t-30 -93.5l-178 -838h-207l285 1331h205z" />
    <glyph glyph-name="s" unicode="s" horiz-adv-x="1259" 
d="M844 717q150 -49 213.5 -127t58.5 -203q-2 -69 -20.5 -128t-59 -111.5t-100 -89t-149.5 -57.5t-203 -21q-160 0 -275.5 34.5t-179 98.5t-87 147.5t-9.5 188.5l8 45h211l-10 -52q-18 -140 67 -213t281 -73q160 0 236.5 60.5t78.5 156.5q2 71 -38 115.5t-130 72.5l-262 94
q-165 47 -235.5 125.5t-65.5 206.5q2 73 29.5 135.5t84 115.5t156.5 83.5t234 30.5q152 0 261.5 -34t168.5 -94.5t81 -138.5t9 -172l-6 -36h-211l6 34q17 132 -61 198.5t-252 66.5q-136 0 -212.5 -51.5t-76.5 -133.5q-1 -64 40 -103.5t138 -70.5z" />
    <glyph glyph-name="t" unicode="t" horiz-adv-x="960" 
d="M1030 1331l-39 -178h-377l-159 -762q-29 -123 -7.5 -168t121.5 -45h215l-36 -178h-244q-131 0 -197.5 43.5t-76 125.5t15.5 202l166 782h-297l39 178h94q243 16 315 361h203q-32 -144 -92.5 -241t-132.5 -120h489z" />
    <glyph glyph-name="u" unicode="u" horiz-adv-x="1361" 
d="M860 0l35 168q-156 -188 -401 -188q-223 0 -330.5 144.5t-59.5 373.5l179 833h204l-176 -819q-35 -167 35.5 -261.5t228.5 -94.5q84 0 152.5 27.5t113 75t72.5 98t45 108.5l185 866h205l-283 -1331h-205z" />
    <glyph glyph-name="v" unicode="v" horiz-adv-x="1222" 
d="M164 1331h207l131 -1157l618 1157h221l-731 -1331h-280z" />
    <glyph glyph-name="w" unicode="w" horiz-adv-x="1908" 
d="M178 1331h205l37 -1145l532 1145h277l47 -1145l524 1145h209l-633 -1331h-262l-55 1169l-553 -1169h-260z" />
    <glyph glyph-name="x" unicode="x" horiz-adv-x="1239" 
d="M-145 0l651 686l-318 645h240l234 -487l448 487h246l-602 -651l340 -680h-240l-256 524l-496 -524h-247z" />
    <glyph glyph-name="y" unicode="y" horiz-adv-x="1359" 
d="M862 14l33 156q-153 -190 -403 -190q-223 0 -330.5 144.5t-59.5 373.5l179 833h204l-176 -819q-35 -167 35.5 -261.5t228.5 -94.5q72 0 133.5 21.5t103.5 55.5t74.5 80t51 90t29.5 91l178 837h205l-289 -1358q-35 -164 -88.5 -256.5t-144 -136t-234.5 -43.5h-651l39 178
h577q139 0 205 66t100 233z" />
    <glyph glyph-name="z" unicode="z" horiz-adv-x="1181" 
d="M219 1331h1028l-35 -178l-993 -975h793l-39 -178h-1047l37 178l993 975h-774z" />
    <glyph glyph-name="braceleft" unicode="{" horiz-adv-x="602" 
d="M131 840q37 5 69.5 51.5t51.5 136.5l86 404q40 186 119 260.5t219 74.5h125l-21 -94h-116q-92 0 -144.5 -59t-79.5 -182l-86 -406q-26 -115 -54 -166t-89 -84l-21 -94q44 -36 52.5 -90.5t-15.5 -165.5l-86 -403q-27 -123 11 -178.5t139 -55.5h92l-21 -96h-86
q-307 0 -233 346l84 403q20 92 9.5 133t-50.5 46z" />
    <glyph glyph-name="bar" unicode="|" horiz-adv-x="460" 
d="M33 -20l364 1720h103l-365 -1720h-102z" />
    <glyph glyph-name="braceright" unicode="}" horiz-adv-x="604" 
d="M500 621q-37 -5 -69.5 -52t-51.5 -137l-86 -403q-40 -187 -119 -261.5t-219 -74.5h-125l20 94h117q91 0 143.5 59t79.5 183l86 405q26 114 54.5 165.5t89.5 84.5l20 94q-44 36 -52.5 90.5t15.5 165.5l86 404q27 123 -10.5 178t-138.5 55h-92l20 96h86q308 0 234 -346
l-84 -403q-20 -92 -9.5 -132.5t50.5 -45.5z" />
    <glyph glyph-name="asciitilde" unicode="~" horiz-adv-x="1622" 
d="M137 707q4 70 28 124.5t59.5 88t83 55t94.5 29.5t98 8q86 0 165.5 -24.5t141 -59.5t121.5 -70t130.5 -59.5t143.5 -24.5q110 0 180 53t74 150h105q-4 -70 -28 -124.5t-59 -88t-82.5 -55t-94.5 -29.5t-99 -8q-86 0 -165.5 24.5t-141 59t-121.5 69.5t-130.5 59.5
t-143.5 24.5q-111 0 -180.5 -52t-73.5 -150h-105z" />
    <glyph glyph-name="uni00A0" unicode="&#xa0;" horiz-adv-x="628" 
 />
    <glyph glyph-name="exclamdown" unicode="&#xa1;" horiz-adv-x="524" 
d="M147 -360h-204l264 1179h182zM236 1217q12 59 60 97t107 38q60 0 93 -40t18 -104q-13 -61 -61 -99t-109 -38q-59 0 -91 40t-17 106z" />
    <glyph glyph-name="cent" unicode="&#xa2;" horiz-adv-x="1376" 
d="M664 160h-29l-66 -303h-110l69 315q-233 40 -335.5 216t-45.5 446l37 178q16 70 41 132.5t62 122t88 107t114.5 83.5t147 55.5t180.5 19.5h8l66 303h110l-67 -311q212 -31 315.5 -169t75.5 -349l-8 -56h-205l10 62q20 144 -41 228.5t-186 105.5l-221 -1008q151 2 246 74
t139 235l14 64h205l-12 -60q-54 -234 -205.5 -362.5t-396.5 -128.5zM344 807q-40 -193 19.5 -311t201.5 -148l221 1006q-91 -3 -162.5 -33t-118 -81.5t-75.5 -111t-45 -131.5z" />
    <glyph glyph-name="sterling" unicode="&#xa3;" horiz-adv-x="1406" 
d="M-2 154q255 148 295 421q4 24 8 72h-197l23 103h174q-1 24 -12 132.5t-9.5 185t19.5 163.5q21 104 64.5 188t115.5 151.5t183 104.5t253 37q133 0 237 -35t173.5 -103.5t95.5 -177t2 -247.5l-12 -70h-217l16 82q30 198 -47 288.5t-262 90.5q-171 0 -266.5 -82
t-124.5 -256q-13 -61 -15 -126t2.5 -110.5t11.5 -110t9 -105.5h547l-23 -103h-526q-4 -42 -8 -61q-39 -249 -246 -414h944l-35 -172h-1206z" />
    <glyph glyph-name="currency" unicode="&#xa4;" horiz-adv-x="1097" 
d="M528 418q-142 0 -233 67l-176 -166l-62 64l174 166q-51 73 -51 180q0 94 40 199.5t120 181.5l-96 145l82 64l98 -150q93 52 215 52q140 0 227 -66l172 164l62 -64l-170 -165q53 -74 53 -185q0 -93 -41 -199t-121 -180l92 -143l-82 -64l-94 148q-93 -49 -209 -49zM281 735
q0 -114 63 -170.5t182 -56.5q81 0 145.5 27.5t103 70t64 97t35 104t9.5 96.5q0 114 -63.5 170.5t-182.5 56.5q-81 0 -145.5 -28t-102.5 -70t-63.5 -97t-35 -104.5t-9.5 -95.5z" />
    <glyph glyph-name="yen" unicode="&#xa5;" horiz-adv-x="1499" 
d="M168 559l18 82h424l-350 1051h229l285 -877l649 877h250l-796 -1051h419l-18 -82h-444l-23 -94h449l-17 -82h-448l-84 -383h-213l84 383h-449l17 82h448l23 94h-453z" />
    <glyph glyph-name="brokenbar" unicode="&#xa6;" horiz-adv-x="460" 
d="M256 1028l141 672h103l-142 -672h-102zM33 -20l143 669h103l-144 -669h-102z" />
    <glyph glyph-name="section" unicode="&#xa7;" horiz-adv-x="1335" 
d="M647 -20q-137 0 -238.5 21.5t-175 69t-104.5 130t-16 198.5h102q-15 -96 10 -163.5t86.5 -105t143.5 -53.5t194 -16q149 0 233.5 29t115 79.5t30.5 133.5q0 61 -30.5 101.5t-88.5 52.5l-614 123q-85 19 -122.5 71t-37.5 119q0 76 45 139t148 90q-92 71 -92 189
q0 73 27 130t73 94t113 60.5t142 33.5t165 10q96 0 174.5 -13t146 -43.5t110 -77.5t61.5 -120t7 -166h-102q15 95 -8.5 162.5t-81 105t-133 54t-176.5 16.5q-219 0 -317.5 -57t-98.5 -171q0 -68 34.5 -111.5t88.5 -54.5l612 -122q85 -19 123.5 -71.5t38.5 -121.5
q0 -75 -46.5 -139.5t-152.5 -91.5q54 -39 74 -83.5t20 -103.5q0 -327 -483 -327zM240 786q0 -106 98 -127l532 -102q110 -24 184 19t74 135q0 107 -98 125l-532 102q-111 25 -184.5 -17t-73.5 -135z" />
    <glyph glyph-name="dieresis" unicode="&#xa8;" horiz-adv-x="1073" 
d="M946 1460q-48 0 -75 30t-17 79q11 51 50.5 79.5t88.5 28.5q47 0 74 -28.5t16 -79.5q-10 -49 -50 -79t-87 -30zM373 1569q11 51 50.5 79.5t88.5 28.5q47 0 74 -28.5t16 -79.5q-10 -49 -50 -79t-87 -30q-49 0 -75.5 29.5t-16.5 79.5z" />
    <glyph glyph-name="copyright" unicode="&#xa9;" horiz-adv-x="1843" 
d="M799 -20q-139 0 -251 32.5t-189.5 92t-130 141t-75 181t-21.5 209.5t26 230q30 138 84 260.5t138 231t190 186.5t247.5 123t304.5 45q138 0 250.5 -32.5t189.5 -92t129.5 -141t75.5 -180.5t22 -209t-26 -228q-30 -141 -84 -265t-137.5 -232t-190 -185.5t-248 -122
t-304.5 -44.5zM268 866q-24 -111 -26 -211t17 -188t63.5 -158t111 -120.5t162.5 -77.5t215 -27q175 0 319.5 55.5t247.5 157t172 235t103 297.5q25 132 24.5 248.5t-38.5 214t-105 168t-175.5 109.5t-248.5 39q-141 0 -263 -37.5t-215 -104t-166.5 -160t-122 -203.5
t-75.5 -237zM463 856q26 123 76 224.5t125 181t182 124t237 44.5q100 0 176 -25.5t120.5 -70t72 -105t30 -130t-6.5 -145.5h-152q5 54 6 103.5t-14 92t-42.5 73.5t-79.5 49t-124 18q-363 0 -455 -434q-94 -455 267 -455q70 0 128.5 19t99 49.5t73.5 75.5t54 90.5t38 101.5
h151q-22 -76 -52.5 -141.5t-79 -128t-109 -107t-145 -71.5t-183.5 -27q-108 0 -189.5 30.5t-128.5 85t-73 129.5t-23.5 163t21.5 186z" />
    <glyph glyph-name="ordfeminine" unicode="&#xaa;" horiz-adv-x="899" 
d="M678 901l24 117q-97 -129 -282 -129q-106 0 -171 46.5t-65 143.5q0 96 64.5 160t195.5 90l140 21q103 18 152 43t59 71l-2 -18l2 14q13 65 -28 99t-126 34q-91 0 -144 -38.5t-71 -124.5l-6 -23h-141l4 18q61 287 364 287q165 0 237 -75t44 -207l-113 -529h-137zM330 1100
q0 -46 34 -71t97 -25q104 0 179.5 58t109.5 183l14 64l2 12q-21 -28 -62 -45t-114 -29l-105 -18q-155 -31 -155 -129z" />
    <glyph glyph-name="guillemotleft" unicode="&#xab;" horiz-adv-x="1050" 
d="M483 299l-389 375l17 82l538 297l-35 -140l-399 -208l297 -273zM426 647l16 82l539 297l-35 -139l-399 -209l297 -272l-29 -134z" />
    <glyph glyph-name="logicalnot" unicode="&#xac;" horiz-adv-x="1683" 
d="M1423 653l62 285h-1292l18 92h1397l-82 -377h-103z" />
    <glyph glyph-name="registered" unicode="&#xae;" horiz-adv-x="1159" 
d="M606 786q-67 0 -119 18t-84 49.5t-53 71.5t-27.5 87.5t-4.5 94t12 93.5q12 59 34 114t59 109t85 94t116 64.5t148 24.5q67 0 119 -18t84.5 -49.5t53.5 -71.5t28 -87.5t5.5 -94t-11.5 -93.5q-16 -75 -48.5 -143t-84.5 -129t-132.5 -97.5t-179.5 -36.5zM215 1210
q-13 -60 -13.5 -120t10.5 -120t40.5 -112t73.5 -92t112 -63t154 -23q102 0 190.5 30t150.5 78.5t110.5 115t77.5 135.5t44 143q13 59 13.5 119.5t-11 120.5t-41 112t-73 92t-111 63t-151.5 23q-104 0 -192.5 -30t-151 -78.5t-111 -115t-77.5 -135.5t-44 -143zM426 920
l119 563h203q51 0 86.5 -7t63 -24.5t36.5 -51t0 -81.5q-23 -105 -141 -143q51 -15 69 -50t6 -96l-10 -51q-11 -47 -4 -59h-131q-6 10 2 59l10 51q11 48 -4 66t-67 18h-64l-41 -194h-133zM627 1235h69q52 0 72.5 14.5t26.5 50.5q9 38 -8 50t-66 12h-70z" />
    <glyph glyph-name="macron" unicode="&#xaf;" horiz-adv-x="1341" 
d="M389 1528l17 82h929l-16 -82h-930z" />
    <glyph glyph-name="degree" unicode="&#xb0;" horiz-adv-x="806" 
d="M530 1190q-80 0 -125 42t-45 124q0 27 4 57t18.5 68.5t37.5 68t65 50t97 20.5q80 0 124 -42t44 -124q0 -27 -4.5 -57t-18.5 -68.5t-37 -68t-64.5 -50t-95.5 -20.5zM256 1352q0 -115 75.5 -184.5t198.5 -69.5q76 0 136 27.5t94 67.5t56.5 91.5t30 93.5t7.5 80
q0 114 -74.5 184t-197.5 70q-77 0 -137 -27.5t-94.5 -67.5t-57 -91.5t-30 -93.5t-7.5 -80z" />
    <glyph glyph-name="plusminus" unicode="&#xb1;" horiz-adv-x="1609" 
d="M987 1264l-80 -375h637l-18 -88h-639l-62 -291h639l-18 -88h-1385l19 88h643l61 291h-643l19 88h645l80 375h102z" />
    <glyph glyph-name="uni00B2" unicode="&#xb2;" horiz-adv-x="778" 
d="M104 844q26 125 95 200t209 107l124 35q84 19 128 47.5t55 83.5l2 12q13 63 -27.5 94t-130.5 31q-100 0 -147.5 -38t-61.5 -120l-6 -24h-141l6 22q27 140 110.5 209.5t241.5 69.5q160 0 239.5 -74.5t53.5 -198.5q-19 -90 -79 -144t-179 -83l-141 -39
q-113 -27 -151.5 -68.5t-57.5 -129.5h506l-27 -119h-647z" />
    <glyph glyph-name="uni00B3" unicode="&#xb3;" horiz-adv-x="765" 
d="M422 707q-174 0 -243.5 64t-57.5 200l2 16h141l-6 -22q-6 -81 31.5 -112.5t132.5 -31.5t137.5 26t56.5 87l7 29q15 69 -22.5 100t-129.5 31h-113l27 110h109q85 0 132 22.5t60 80.5l4 24q14 65 -25 96t-133 31q-169 0 -190 -137l-4 -18h-139l4 16q39 254 336 254
q170 0 241.5 -72t46.5 -186l-2 -6q-11 -60 -53.5 -103.5t-109.5 -58.5q63 -23 88 -81t8 -138v-6q-24 -108 -102.5 -161.5t-233.5 -53.5z" />
    <glyph glyph-name="acute" unicode="&#xb4;" horiz-adv-x="1245" 
d="M406 1468l-15 78l840 152l12 -80z" />
    <glyph glyph-name="paragraph" unicode="&#xb6;" horiz-adv-x="995" 
d="M930 1692h102l-358 -1692h-103zM201 1384q11 54 25.5 96t34.5 74t40 54.5t51.5 38t60 24.5t73 13.5t84 6t98.5 1.5h106l-358 -1692h-103l207 956q-213 0 -289.5 103t-29.5 325z" />
    <glyph glyph-name="periodcentered" unicode="&#xb7;" horiz-adv-x="518" 
d="M236 551q-60 0 -93 39.5t-18 103.5q13 61 61 99t109 38q59 0 91 -39.5t17 -105.5q-12 -59 -60 -97t-107 -38z" />
    <glyph glyph-name="cedilla" unicode="&#xb8;" horiz-adv-x="788" 
d="M-6 -336q153 0 212 15t62 63q4 44 -45 53.5t-166 -4.5l95 209h96l-60 -127q58 5 104 0t73 -35.5t22 -85.5q-7 -97 -102.5 -136.5t-311.5 -39.5z" />
    <glyph glyph-name="uni00B9" unicode="&#xb9;" horiz-adv-x="610" 
d="M104 836h195l125 573q-45 -32 -94.5 -45.5t-124.5 -13.5l24 125q133 0 232 88h129l-156 -727h199l-27 -119h-528z" />
    <glyph glyph-name="ordmasculine" unicode="&#xba;" horiz-adv-x="890" 
d="M541 889q-180 0 -269.5 108.5t-50.5 288.5l21 105q72 321 370 321q182 0 269 -109.5t49 -289.5l-23 -105q-66 -319 -366 -319zM358 1262q-26 -117 24.5 -184.5t158.5 -67.5q102 0 153 55t72 145l27 127q26 119 -24.5 186.5t-160.5 67.5q-183 0 -223 -202z" />
    <glyph glyph-name="guillemotright" unicode="&#xbb;" horiz-adv-x="1056" 
d="M399 260l35 139l400 209l-297 273l28 135l389 -377l-16 -82zM68 287l34 139l400 209l-297 272l28 135l390 -376l-17 -82z" />
    <glyph glyph-name="onequarter" unicode="&#xbc;" horiz-adv-x="1935" 
d="M147 965h195l125 573q-45 -32 -94.5 -45.5t-124.5 -13.5l24 125q133 0 232 88h129l-156 -727h199l-27 -119h-528zM229 0l1362 1692h109l-1362 -1692h-109zM1120 160l25 125l553 561h135l-121 -565h100l-26 -121h-98l-35 -160h-137l34 160h-430zM1280 281h295l80 378z" />
    <glyph glyph-name="onehalf" unicode="&#xbd;" horiz-adv-x="1996" 
d="M150 965h194l125 573q-45 -32 -94.5 -45.5t-124.5 -13.5l24 125q133 0 232 88h129l-156 -727h199l-27 -119h-528zM231 0l1362 1692h109l-1362 -1692h-109zM1139 0l26 127q17 83 49 140t95 101t159 66l125 35q84 19 128 47.5t55 83.5l2 12q13 63 -27.5 94t-130.5 31
q-100 0 -147.5 -37.5t-61.5 -119.5l-6 -25h-141l6 23q27 139 110.5 208.5t241.5 69.5q160 0 239.5 -74t53.5 -198q-19 -91 -79.5 -145t-178.5 -83l-141 -39q-113 -27 -151.5 -68.5t-57.5 -129.5h505l-26 -119h-647z" />
    <glyph glyph-name="threequarters" unicode="&#xbe;" horiz-adv-x="2056" 
d="M459 840q-174 0 -243.5 64t-57.5 200l2 16h141l-6 -22q-6 -81 31.5 -112.5t132.5 -31.5t137.5 26t56.5 87l6 29q15 69 -22 100t-129 31h-113l27 110h108q86 0 133 22.5t60 80.5l4 24q14 65 -25 96t-133 31q-169 0 -190 -137l-4 -18h-139l4 16q39 254 335 254
q170 0 242 -72t47 -186l-2 -6q-11 -60 -54 -103.5t-110 -58.5q63 -23 88.5 -81t8.5 -138v-6q-24 -108 -102.5 -161.5t-233.5 -53.5zM346 0l1362 1692h109l-1360 -1692h-111zM1239 160l25 125l553 561h135l-121 -565h100l-26 -121h-99l-34 -160h-138l35 160h-430zM1399 281
h295l80 378z" />
    <glyph glyph-name="questiondown" unicode="&#xbf;" horiz-adv-x="1189" 
d="M424 -381q-251 0 -375.5 107.5t-124.5 293.5q0 91 32 164.5t84.5 124.5t116.5 95t132 87.5t127 90.5t105 116.5t63 153.5l6 31h190l-6 -31q-20 -103 -66 -186.5t-103 -138t-121 -100.5t-124.5 -85t-110 -81t-80 -99.5t-32.5 -128.5q0 -111 72.5 -175.5t220.5 -64.5
q341 0 379 350l8 52h213l-8 -50q-71 -526 -598 -526zM604 1217q12 59 60.5 97t107.5 38q60 0 93 -40t18 -104q-13 -61 -61 -99t-109 -38q-59 0 -91.5 40t-17.5 106z" />
    <glyph glyph-name="Agrave" unicode="&#xc0;" horiz-adv-x="1439" 
d="M-115 0l914 1692h280l195 -1692h-221l-33 332h-729l-176 -332h-230zM389 518h612l-94 938l-6 33zM532 1964l37 80l879 -152l-39 -80z" />
    <glyph glyph-name="Aacute" unicode="&#xc1;" horiz-adv-x="1439" 
d="M-115 0l914 1692h280l195 -1692h-221l-33 332h-729l-176 -332h-230zM389 518h612l-94 938l-6 33zM561 1907l840 151l12 -80l-838 -149z" />
    <glyph glyph-name="Acircumflex" unicode="&#xc2;" horiz-adv-x="1439" 
d="M-115 0l914 1692h280l195 -1692h-221l-33 332h-729l-176 -332h-230zM389 518h612l-94 938l-6 33zM578 1823l360 256h129l256 -256h-141l-183 182l-254 -182h-167z" />
    <glyph glyph-name="Atilde" unicode="&#xc3;" horiz-adv-x="1439" 
d="M-115 0l914 1692h280l195 -1692h-221l-33 332h-729l-176 -332h-230zM389 518h612l-94 938l-6 33zM553 1827q19 107 88.5 165t177.5 58q55 0 97 -16t67 -38.5t48.5 -45t56 -38.5t75.5 -16q68 0 109.5 37t52.5 101h102q-19 -111 -89.5 -168.5t-182.5 -57.5q-58 0 -101.5 16
t-69 38.5t-49 45t-54 38.5t-70.5 16q-65 0 -105 -37.5t-51 -97.5h-102z" />
    <glyph glyph-name="Adieresis" unicode="&#xc4;" horiz-adv-x="1439" 
d="M-115 0l914 1692h280l195 -1692h-221l-33 332h-729l-176 -332h-230zM389 518h612l-94 938l-6 33zM633 1929q11 52 50.5 80.5t88.5 28.5q47 0 74 -29t16 -80q-10 -49 -50 -78.5t-87 -29.5q-49 0 -75.5 29t-16.5 79zM1114 1929q11 52 50.5 80.5t88.5 28.5q47 0 74 -29
t16 -80q-10 -49 -50 -78.5t-87 -29.5q-48 0 -75 29.5t-17 78.5z" />
    <glyph glyph-name="Aring" unicode="&#xc5;" horiz-adv-x="1439" 
d="M-115 0l914 1692h280l195 -1692h-221l-33 332h-729l-176 -332h-230zM389 518h612l-94 938l-6 33zM827 1950q0 71 49.5 118.5t116.5 47.5t116.5 -47.5t49.5 -118.5t-49.5 -118.5t-116.5 -47.5t-116.5 47.5t-49.5 118.5zM913 1950q0 -37 21 -58.5t59 -21.5t59 21.5t21 58.5
t-21 58.5t-59 21.5t-59 -21.5t-21 -58.5z" />
    <glyph glyph-name="AE" unicode="&#xc6;" horiz-adv-x="1953" 
d="M-127 0l1028 1692h1159l-39 -187h-686l-121 -565h652l-39 -186h-653l-121 -568h688l-39 -186h-901l73 350h-565l-211 -350h-225zM422 537h493l207 968h-114z" />
    <glyph glyph-name="Ccedilla" unicode="&#xc7;" 
d="M543 -336q153 0 212 15t62 63q4 44 -45 53.5t-166 -4.5l86 191q-212 13 -355 120t-197 288.5t-7 408.5l60 282q23 102 62 191t103 171.5t146.5 141t198 93t253.5 34.5q306 0 475.5 -162.5t139.5 -447.5l-21 -105h-219l23 121q11 103 -14.5 182t-80.5 127.5t-131 72.5
t-172 24q-121 0 -218 -36t-161 -100.5t-104 -143t-59 -173.5l-68 -313q-36 -170 1 -303.5t143.5 -210t267.5 -76.5q205 0 333.5 104.5t170.5 294.5l28 125h221l-24 -106q-60 -276 -237 -436t-464 -170l-49 -107q58 5 104 0t73 -35.5t22 -85.5q-7 -97 -102.5 -136.5
t-311.5 -39.5z" />
    <glyph glyph-name="Egrave" unicode="&#xc8;" horiz-adv-x="1359" 
d="M35 0l360 1692h1071l-39 -187h-856l-120 -565h811l-39 -188h-813l-121 -566h858l-41 -186h-1071zM512 1964l37 80l878 -152l-38 -80z" />
    <glyph glyph-name="Eacute" unicode="&#xc9;" horiz-adv-x="1359" 
d="M35 0l360 1692h1071l-39 -187h-856l-120 -565h811l-39 -188h-813l-121 -566h858l-41 -186h-1071zM541 1907l839 151l13 -80l-838 -149z" />
    <glyph glyph-name="Ecircumflex" unicode="&#xca;" horiz-adv-x="1359" 
d="M35 0l360 1692h1071l-39 -187h-856l-120 -565h811l-39 -188h-813l-121 -566h858l-41 -186h-1071zM557 1823l361 256h129l256 -256h-142l-182 182l-254 -182h-168z" />
    <glyph glyph-name="Edieresis" unicode="&#xcb;" horiz-adv-x="1359" 
d="M35 0l360 1692h1071l-39 -187h-856l-120 -565h811l-39 -188h-813l-121 -566h858l-41 -186h-1071zM614 1929q11 52 51 80.5t89 28.5q47 0 74 -29t16 -80q-10 -49 -50 -78.5t-87 -29.5q-49 0 -76 29.5t-17 78.5zM1096 1929q11 52 50.5 80.5t88.5 28.5q47 0 74 -29t16 -80
q-10 -49 -50 -78.5t-87 -29.5q-48 0 -75 29.5t-17 78.5z" />
    <glyph glyph-name="Igrave" unicode="&#xcc;" horiz-adv-x="1101" 
d="M-47 0l43 193h348l277 1306h-349l39 193h914l-41 -193h-348l-279 -1306h350l-43 -193h-911zM362 1964l37 80l879 -152l-39 -80z" />
    <glyph glyph-name="Iacute" unicode="&#xcd;" horiz-adv-x="1101" 
d="M-47 0l43 193h348l277 1306h-349l39 193h914l-41 -193h-348l-279 -1306h350l-43 -193h-911zM391 1907l840 151l12 -80l-837 -149z" />
    <glyph glyph-name="Icircumflex" unicode="&#xce;" horiz-adv-x="1101" 
d="M-47 0l43 193h348l277 1306h-349l39 193h914l-41 -193h-348l-279 -1306h350l-43 -193h-911zM408 1823l360 256h129l256 -256h-141l-183 182l-254 -182h-167z" />
    <glyph glyph-name="Idieresis" unicode="&#xcf;" horiz-adv-x="1101" 
d="M-47 0l43 193h348l277 1306h-349l39 193h914l-41 -193h-348l-279 -1306h350l-43 -193h-911zM463 1929q11 52 50.5 80.5t88.5 28.5q47 0 74 -29t16 -80q-10 -49 -50 -78.5t-87 -29.5q-49 0 -75.5 29t-16.5 79zM944 1929q11 52 50.5 80.5t88.5 28.5q47 0 74.5 -29t16.5 -80
q-10 -49 -50.5 -78.5t-87.5 -29.5q-48 0 -75 29.5t-17 78.5z" />
    <glyph glyph-name="Eth" unicode="&#xd0;" horiz-adv-x="1683" 
d="M121 0l168 793h-236l25 116h237l166 783h582q337 0 489 -214.5t72 -574.5l-57 -270q-66 -314 -254 -473.5t-520 -159.5h-672zM375 182h430q123 0 216.5 31t158 93.5t105.5 147t65 199.5l61 289q58 271 -34 419t-335 148h-387l-127 -600h537l-25 -116h-536z" />
    <glyph glyph-name="Ntilde" unicode="&#xd1;" horiz-adv-x="1632" 
d="M35 0l360 1692h205l586 -1321l282 1321h205l-358 -1692h-205l-586 1321l-282 -1321h-207zM649 1827q19 107 88.5 165t177.5 58q55 0 97 -16t67.5 -38.5t49 -45t56 -38.5t75.5 -16q68 0 109 37t52 101h103q-18 -111 -89.5 -168.5t-183.5 -57.5q-58 0 -101.5 16t-69 38.5
t-49 45t-54 38.5t-70.5 16q-65 0 -104.5 -37.5t-50.5 -97.5h-103z" />
    <glyph glyph-name="Ograve" unicode="&#xd2;" horiz-adv-x="1642" 
d="M770 -20q-177 0 -316 57.5t-222 162t-113 251t10 323.5l59 283q22 107 61 200t103 178t146.5 145.5t197.5 96t252 35.5q233 0 396.5 -101t228.5 -283.5t16 -414.5l-59 -278q-23 -106 -61.5 -199t-102 -178t-146 -145.5t-198 -96.5t-252.5 -36zM344 741q-37 -167 0 -296.5
t147 -203t279 -73.5q82 0 153 17.5t125 50t97.5 75t75 96t52.5 109.5t34 119l67 315q37 168 -1.5 298t-149 203t-277.5 73q-98 0 -180 -26t-139.5 -69t-102 -104.5t-71.5 -127.5t-43 -142zM561 1964l37 80l879 -152l-39 -80z" />
    <glyph glyph-name="Oacute" unicode="&#xd3;" horiz-adv-x="1642" 
d="M770 -20q-177 0 -316 57.5t-222 162t-113 251t10 323.5l59 283q22 107 61 200t103 178t146.5 145.5t197.5 96t252 35.5q233 0 396.5 -101t228.5 -283.5t16 -414.5l-59 -278q-23 -106 -61.5 -199t-102 -178t-146 -145.5t-198 -96.5t-252.5 -36zM344 741q-37 -167 0 -296.5
t147 -203t279 -73.5q82 0 153 17.5t125 50t97.5 75t75 96t52.5 109.5t34 119l67 315q37 168 -1.5 298t-149 203t-277.5 73q-98 0 -180 -26t-139.5 -69t-102 -104.5t-71.5 -127.5t-43 -142zM592 1907l840 151l12 -80l-838 -149z" />
    <glyph glyph-name="Ocircumflex" unicode="&#xd4;" horiz-adv-x="1642" 
d="M770 -20q-177 0 -316 57.5t-222 162t-113 251t10 323.5l59 283q22 107 61 200t103 178t146.5 145.5t197.5 96t252 35.5q233 0 396.5 -101t228.5 -283.5t16 -414.5l-59 -278q-23 -106 -61.5 -199t-102 -178t-146 -145.5t-198 -96.5t-252.5 -36zM344 741q-37 -167 0 -296.5
t147 -203t279 -73.5q82 0 153 17.5t125 50t97.5 75t75 96t52.5 109.5t34 119l67 315q37 168 -1.5 298t-149 203t-277.5 73q-98 0 -180 -26t-139.5 -69t-102 -104.5t-71.5 -127.5t-43 -142zM606 1823l361 256h129l256 -256h-142l-182 182l-254 -182h-168z" />
    <glyph glyph-name="Otilde" unicode="&#xd5;" horiz-adv-x="1642" 
d="M770 -20q-177 0 -316 57.5t-222 162t-113 251t10 323.5l59 283q22 107 61 200t103 178t146.5 145.5t197.5 96t252 35.5q233 0 396.5 -101t228.5 -283.5t16 -414.5l-59 -278q-23 -106 -61.5 -199t-102 -178t-146 -145.5t-198 -96.5t-252.5 -36zM344 741q-37 -167 0 -296.5
t147 -203t279 -73.5q82 0 153 17.5t125 50t97.5 75t75 96t52.5 109.5t34 119l67 315q37 168 -1.5 298t-149 203t-277.5 73q-98 0 -180 -26t-139.5 -69t-102 -104.5t-71.5 -127.5t-43 -142zM582 1827q19 107 88.5 165t177.5 58q55 0 97 -16t67 -38.5t48.5 -45t56 -38.5
t75.5 -16q68 0 109.5 37t52.5 101h102q-19 -111 -89.5 -168.5t-182.5 -57.5q-58 0 -101.5 16t-69 38.5t-49 45t-54 38.5t-70.5 16q-65 0 -105 -37.5t-51 -97.5h-102z" />
    <glyph glyph-name="Odieresis" unicode="&#xd6;" horiz-adv-x="1642" 
d="M770 -20q-177 0 -316 57.5t-222 162t-113 251t10 323.5l59 283q22 107 61 200t103 178t146.5 145.5t197.5 96t252 35.5q233 0 396.5 -101t228.5 -283.5t16 -414.5l-59 -278q-23 -106 -61.5 -199t-102 -178t-146 -145.5t-198 -96.5t-252.5 -36zM344 741q-37 -167 0 -296.5
t147 -203t279 -73.5q82 0 153 17.5t125 50t97.5 75t75 96t52.5 109.5t34 119l67 315q37 168 -1.5 298t-149 203t-277.5 73q-98 0 -180 -26t-139.5 -69t-102 -104.5t-71.5 -127.5t-43 -142zM664 1929q11 52 50.5 80.5t88.5 28.5q47 0 74 -29t16 -80q-10 -49 -50 -78.5
t-87 -29.5q-49 0 -75.5 29t-16.5 79zM1145 1929q11 52 50.5 80.5t88.5 28.5q47 0 74 -29t16 -80q-10 -49 -50 -78.5t-87 -29.5q-48 0 -75 29.5t-17 78.5z" />
    <glyph glyph-name="multiply" unicode="&#xd7;" horiz-adv-x="1210" 
d="M295 1362l358 -455l559 461l52 -63l-559 -461l362 -461l-76 -64l-362 461l-555 -456l-49 63l553 457l-359 456z" />
    <glyph glyph-name="Oslash" unicode="&#xd8;" horiz-adv-x="1642" 
d="M770 -20q-282 0 -457 139l-98 -113h-166l176 203q-170 217 -96 565l59 283q22 107 61 200t103 178t146.5 145.5t197.5 96t252 35.5q279 0 455 -143l102 117h166l-180 -207q83 -107 108.5 -250t-10.5 -316l-59 -278q-23 -106 -61.5 -199t-102 -178t-146 -145.5t-198 -96.5
t-252.5 -36zM344 741q-46 -211 27 -364l899 1038q-118 109 -324 109q-98 0 -180 -26t-139.5 -69t-102 -104.5t-71.5 -127.5t-43 -142zM449 274q115 -106 321 -106q82 0 153 17.5t125 50t97.5 75t75 96t52.5 109.5t34 119l67 315q47 215 -26 361z" />
    <glyph glyph-name="Ugrave" unicode="&#xd9;" horiz-adv-x="1591" 
d="M731 -20q-355 0 -499 167t-80 471l229 1074h215l-236 -1110q-48 -219 51 -317.5t324 -98.5q101 0 171 17.5t127.5 62.5t95.5 123.5t63 199.5l238 1123h217l-238 -1117q-68 -325 -219.5 -460t-458.5 -135zM606 1964l37 80l879 -152l-39 -80z" />
    <glyph glyph-name="Uacute" unicode="&#xda;" horiz-adv-x="1591" 
d="M731 -20q-355 0 -499 167t-80 471l229 1074h215l-236 -1110q-48 -219 51 -317.5t324 -98.5q101 0 171 17.5t127.5 62.5t95.5 123.5t63 199.5l238 1123h217l-238 -1117q-68 -325 -219.5 -460t-458.5 -135zM635 1907l840 151l12 -80l-838 -149z" />
    <glyph glyph-name="Ucircumflex" unicode="&#xdb;" horiz-adv-x="1591" 
d="M731 -20q-355 0 -499 167t-80 471l229 1074h215l-236 -1110q-48 -219 51 -317.5t324 -98.5q101 0 171 17.5t127.5 62.5t95.5 123.5t63 199.5l238 1123h217l-238 -1117q-68 -325 -219.5 -460t-458.5 -135zM651 1823l361 256h129l256 -256h-142l-182 182l-254 -182h-168z
" />
    <glyph glyph-name="Udieresis" unicode="&#xdc;" horiz-adv-x="1591" 
d="M731 -20q-355 0 -499 167t-80 471l229 1074h215l-236 -1110q-48 -219 51 -317.5t324 -98.5q101 0 171 17.5t127.5 62.5t95.5 123.5t63 199.5l238 1123h217l-238 -1117q-68 -325 -219.5 -460t-458.5 -135zM709 1929q11 52 50.5 80.5t88.5 28.5q47 0 74 -29t16 -80
q-10 -49 -50 -78.5t-87 -29.5q-49 0 -75.5 29t-16.5 79zM1190 1929q11 52 50.5 80.5t88.5 28.5q47 0 74 -29t16 -80q-10 -49 -50 -78.5t-87 -29.5q-48 0 -75 29.5t-17 78.5z" />
    <glyph glyph-name="Yacute" unicode="&#xdd;" horiz-adv-x="1435" 
d="M465 0l129 592l-367 1100h230l284 -877l650 877h249l-833 -1100l-129 -592h-213zM557 1907l840 151l12 -80l-838 -149z" />
    <glyph glyph-name="Thorn" unicode="&#xde;" horiz-adv-x="1550" 
d="M35 0l360 1692h209l-61 -287h465q120 0 213 -29.5t152 -83t93.5 -129.5t36.5 -169t-18 -201l-4 -29q-51 -244 -197 -361.5t-436 -117.5h-543l-61 -285h-209zM344 467h522q184 0 273.5 75t120.5 226l16 74q20 81 13 151t-35.5 121t-93.5 80t-161 29h-495z" />
    <glyph glyph-name="germandbls" unicode="&#xdf;" horiz-adv-x="1398" 
d="M14 0l269 1257q50 234 190 344.5t401 110.5q289 0 425 -124t92 -345l-9 -33q-58 -267 -325 -325q130 -43 182 -157t16 -286l-4 -26q-26 -117 -76 -199t-124 -129t-162.5 -67.5t-202.5 -20.5h-338l37 176h246q81 0 135.5 5.5t104.5 21.5t82 45.5t56 76.5t38 115l10 43
q67 308 -303 308l-238 2l39 174h215q203 1 291 54.5t113 180.5l10 45q31 148 -44 218.5t-268 70.5q-172 0 -263 -64.5t-124 -222.5l-264 -1249h-207z" />
    <glyph glyph-name="agrave" unicode="&#xe0;" horiz-adv-x="1335" 
d="M850 0l41 190q-78 -105 -201.5 -157.5t-277.5 -52.5q-82 0 -151.5 18t-124 55t-85.5 99.5t-31 144.5q0 161 109 267t324 147l231 32q160 31 247.5 70t110.5 115l2 6q24 117 -49 179.5t-223 62.5q-325 0 -379 -293l-6 -35h-207l6 31q42 225 188 349t408 124
q269 0 386.5 -125.5t72.5 -339.5l-188 -887h-203zM233 328q0 -87 62 -134t172 -47q115 0 209.5 39.5t171 132t117.5 232.5l30 139l4 25q-37 -46 -106.5 -74t-190.5 -51l-198 -31q-271 -44 -271 -231zM369 1604l37 79l878 -151l-39 -80z" />
    <glyph glyph-name="aacute" unicode="&#xe1;" horiz-adv-x="1335" 
d="M850 0l41 190q-78 -105 -201.5 -157.5t-277.5 -52.5q-82 0 -151.5 18t-124 55t-85.5 99.5t-31 144.5q0 161 109 267t324 147l231 32q160 31 247.5 70t110.5 115l2 6q24 117 -49 179.5t-223 62.5q-325 0 -379 -293l-6 -35h-207l6 31q42 225 188 349t408 124
q269 0 386.5 -125.5t72.5 -339.5l-188 -887h-203zM233 328q0 -87 62 -134t172 -47q115 0 209.5 39.5t171 132t117.5 232.5l30 139l4 25q-37 -46 -106.5 -74t-190.5 -51l-198 -31q-271 -44 -271 -231zM397 1546l840 152l12 -80l-837 -150z" />
    <glyph glyph-name="acircumflex" unicode="&#xe2;" horiz-adv-x="1335" 
d="M850 0l41 190q-78 -105 -201.5 -157.5t-277.5 -52.5q-82 0 -151.5 18t-124 55t-85.5 99.5t-31 144.5q0 161 109 267t324 147l231 32q160 31 247.5 70t110.5 115l2 6q24 117 -49 179.5t-223 62.5q-325 0 -379 -293l-6 -35h-207l6 31q42 225 188 349t408 124
q269 0 386.5 -125.5t72.5 -339.5l-188 -887h-203zM233 328q0 -87 62 -134t172 -47q115 0 209.5 39.5t171 132t117.5 232.5l30 139l4 25q-37 -46 -106.5 -74t-190.5 -51l-198 -31q-271 -44 -271 -231zM414 1462l360 256h129l256 -256h-141l-182 183l-254 -183h-168z" />
    <glyph glyph-name="atilde" unicode="&#xe3;" horiz-adv-x="1335" 
d="M850 0l41 190q-78 -105 -201.5 -157.5t-277.5 -52.5q-82 0 -151.5 18t-124 55t-85.5 99.5t-31 144.5q0 161 109 267t324 147l231 32q160 31 247.5 70t110.5 115l2 6q24 117 -49 179.5t-223 62.5q-325 0 -379 -293l-6 -35h-207l6 31q42 225 188 349t408 124
q269 0 386.5 -125.5t72.5 -339.5l-188 -887h-203zM233 328q0 -87 62 -134t172 -47q115 0 209.5 39.5t171 132t117.5 232.5l30 139l4 25q-37 -46 -106.5 -74t-190.5 -51l-198 -31q-271 -44 -271 -231zM389 1466q19 107 88.5 165.5t177.5 58.5q55 0 97 -16t67 -38.5t48.5 -45
t56 -38.5t75.5 -16q68 0 109.5 36.5t52.5 100.5h103q-18 -111 -89.5 -168t-183.5 -57q-58 0 -101.5 16t-69 38.5t-49 45t-54 38.5t-70.5 16q-64 0 -104 -38t-51 -98h-103z" />
    <glyph glyph-name="adieresis" unicode="&#xe4;" horiz-adv-x="1335" 
d="M850 0l41 190q-78 -105 -201.5 -157.5t-277.5 -52.5q-82 0 -151.5 18t-124 55t-85.5 99.5t-31 144.5q0 161 109 267t324 147l231 32q160 31 247.5 70t110.5 115l2 6q24 117 -49 179.5t-223 62.5q-325 0 -379 -293l-6 -35h-207l6 31q42 225 188 349t408 124
q269 0 386.5 -125.5t72.5 -339.5l-188 -887h-203zM233 328q0 -87 62 -134t172 -47q115 0 209.5 39.5t171 132t117.5 232.5l30 139l4 25q-37 -46 -106.5 -74t-190.5 -51l-198 -31q-271 -44 -271 -231zM471 1569q11 51 50.5 79.5t88.5 28.5q47 0 74 -28.5t16 -79.5
q-10 -49 -50 -79t-87 -30q-49 0 -75.5 29.5t-16.5 79.5zM952 1569q11 51 51 79.5t89 28.5q47 0 74 -28.5t16 -79.5q-10 -49 -50.5 -79t-87.5 -30q-48 0 -75 30t-17 79z" />
    <glyph glyph-name="aring" unicode="&#xe5;" horiz-adv-x="1335" 
d="M850 0l41 190q-78 -105 -201.5 -157.5t-277.5 -52.5q-82 0 -151.5 18t-124 55t-85.5 99.5t-31 144.5q0 161 109 267t324 147l231 32q160 31 247.5 70t110.5 115l2 6q24 117 -49 179.5t-223 62.5q-325 0 -379 -293l-6 -35h-207l6 31q42 225 188 349t408 124
q269 0 386.5 -125.5t72.5 -339.5l-188 -887h-203zM233 328q0 -87 62 -134t172 -47q115 0 209.5 39.5t171 132t117.5 232.5l30 139l4 25q-37 -46 -106.5 -74t-190.5 -51l-198 -31q-271 -44 -271 -231zM666 1589q0 71 49 118.5t116 47.5t116.5 -47.5t49.5 -118.5t-49.5 -118.5
t-116.5 -47.5t-116 47.5t-49 118.5zM752 1589q0 -37 20.5 -58.5t58.5 -21.5t59 21.5t21 58.5t-21 58.5t-59 21.5t-58.5 -21.5t-20.5 -58.5z" />
    <glyph glyph-name="ae" unicode="&#xe6;" horiz-adv-x="2058" 
d="M432 -20q-88 0 -161.5 17t-134.5 53.5t-95.5 102.5t-34.5 156q0 153 105.5 251.5t318.5 148.5l240 41q66 14 116.5 32.5t94.5 45.5t70 66t32 89q12 94 -58 144.5t-190 50.5q-150 0 -238.5 -78.5t-113.5 -222.5l-6 -25h-207l6 25q18 106 58.5 190t106.5 149t166 100.5
t228 35.5q306 0 398 -185q76 95 172.5 140t230.5 45q267 0 385.5 -164t65.5 -443l-27 -120h-864l-9 -39q-15 -74 -15.5 -137t16 -117t50.5 -92.5t90 -60t132 -21.5q132 0 217 65.5t121 188.5l4 22h207l-4 -18q-119 -436 -551 -436q-156 0 -266 59.5t-162 177.5
q-89 -122 -209 -179.5t-285 -57.5zM217 317q0 -88 68 -132t180 -44q161 0 266.5 81.5t140.5 238.5l58 252q-88 -83 -264 -123l-209 -39q-240 -59 -240 -234zM1130 782h650l12 60q24 154 -40.5 243t-227.5 89q-164 0 -258 -92.5t-133 -286.5z" />
    <glyph glyph-name="ccedilla" unicode="&#xe7;" horiz-adv-x="1316" 
d="M1049 840q21 162 -62.5 248t-245.5 86q-94 0 -167 -29t-120 -80t-75 -109.5t-43 -128.5l-45 -209q-45 -221 39 -340.5t274 -119.5q147 0 239.5 71t135.5 228l18 73h211l-12 -59q-54 -227 -194 -354t-367 -137l-49 -107q95 12 150 -14.5t48 -106.5q-7 -97 -102 -136.5
t-311 -39.5l20 88q154 0 213 15t62 63q4 44 -45 53.5t-166 -4.5l86 191q-267 19 -390 199t-63 472l39 178q19 85 50 158.5t83 141.5t119.5 116t162.5 76.5t208 28.5q264 0 400 -145t105 -382l-8 -55h-211z" />
    <glyph glyph-name="egrave" unicode="&#xe8;" horiz-adv-x="1310" 
d="M1241 1532l-39 -80l-876 152l36 79zM88 647l37 178q19 86 50 160.5t82.5 143t117.5 117t159.5 77.5t204.5 29q119 0 212.5 -29t154 -82.5t97 -128.5t41.5 -166t-13 -196l-27 -125h-909l-4 -19q-45 -209 42 -328.5t279 -119.5q265 0 342 237l13 49h211l-11 -34
q-125 -430 -563 -430q-195 0 -327 83t-181.5 234.5t-7.5 349.5zM330 782h692l14 70q18 163 -62 242.5t-233 79.5q-93 0 -166 -29.5t-120 -82.5t-75.5 -113.5t-43.5 -133.5z" />
    <glyph glyph-name="eacute" unicode="&#xe9;" horiz-adv-x="1310" 
d="M369 1468l-15 78l840 152l12 -80zM88 647l37 178q19 86 50 160.5t82.5 143t117.5 117t159.5 77.5t204.5 29q119 0 212.5 -29t154 -82.5t97 -128.5t41.5 -166t-13 -196l-27 -125h-909l-4 -19q-45 -209 42 -328.5t279 -119.5q265 0 342 237l13 49h211l-11 -34
q-125 -430 -563 -430q-195 0 -327 83t-181.5 234.5t-7.5 349.5zM330 782h692l14 70q18 163 -62 242.5t-233 79.5q-93 0 -166 -29.5t-120 -82.5t-75.5 -113.5t-43.5 -133.5z" />
    <glyph glyph-name="ecircumflex" unicode="&#xea;" horiz-adv-x="1310" 
d="M371 1462l360 256h129l256 -256h-141l-182 183l-254 -183h-168zM88 647l37 178q19 86 50 160.5t82.5 143t117.5 117t159.5 77.5t204.5 29q119 0 212.5 -29t154 -82.5t97 -128.5t41.5 -166t-13 -196l-27 -125h-909l-4 -19q-45 -209 42 -328.5t279 -119.5q265 0 342 237
l13 49h211l-11 -34q-125 -430 -563 -430q-195 0 -327 83t-181.5 234.5t-7.5 349.5zM330 782h692l14 70q18 163 -62 242.5t-233 79.5q-93 0 -166 -29.5t-120 -82.5t-75.5 -113.5t-43.5 -133.5z" />
    <glyph glyph-name="edieresis" unicode="&#xeb;" horiz-adv-x="1310" 
d="M999 1460q-48 0 -75 30t-17 79q11 51 51 79.5t89 28.5q47 0 74 -28.5t16 -79.5q-10 -49 -50.5 -79t-87.5 -30zM88 647l37 178q19 86 50 160.5t82.5 143t117.5 117t159.5 77.5t204.5 29q119 0 212.5 -29t154 -82.5t97 -128.5t41.5 -166t-13 -196l-27 -125h-909l-4 -19
q-45 -209 42 -328.5t279 -119.5q265 0 342 237l13 49h211l-11 -34q-125 -430 -563 -430q-195 0 -327 83t-181.5 234.5t-7.5 349.5zM330 782h692l14 70q18 163 -62 242.5t-233 79.5q-93 0 -166 -29.5t-120 -82.5t-75.5 -113.5t-43.5 -133.5zM426 1569q11 51 50.5 79.5
t88.5 28.5q47 0 74 -28.5t16 -79.5q-10 -49 -50 -79t-87 -30q-49 0 -75.5 29.5t-16.5 79.5z" />
    <glyph glyph-name="igrave" unicode="&#xec;" horiz-adv-x="518" 
d="M299 1331h205l-283 -1331h-205zM135 1606l15 77l616 -153l-12 -78z" />
    <glyph glyph-name="iacute" unicode="&#xed;" horiz-adv-x="518" 
d="M299 1331h205l-283 -1331h-205zM137 1530l617 153l14 -77l-618 -154z" />
    <glyph glyph-name="icircumflex" unicode="&#xee;" horiz-adv-x="518" 
d="M299 1331h205l-283 -1331h-205zM143 1454l269 229h131l168 -229h-117l-125 164l-199 -164h-127z" />
    <glyph glyph-name="idieresis" unicode="&#xef;" horiz-adv-x="518" 
d="M299 1331h205l-283 -1331h-205zM160 1554q10 46 45 74.5t76 28.5t64.5 -28.5t14.5 -74.5q-10 -42 -45.5 -69t-74.5 -27q-41 0 -65 27t-15 69zM557 1554q9 46 43.5 74.5t75.5 28.5t65 -28.5t15 -74.5q-9 -41 -45 -68.5t-76 -27.5q-41 0 -64.5 27t-13.5 69z" />
    <glyph glyph-name="eth" unicode="&#xf0;" horiz-adv-x="1306" 
d="M588 -20q-140 0 -250 35.5t-183.5 106t-99 175.5t3.5 244l19 84q41 201 179.5 315.5t369.5 114.5q137 0 241.5 -46t155.5 -135q2 153 -50.5 269.5t-164.5 206.5l-528 -199l26 133l385 146q-133 74 -303 133l68 147q263 -79 438 -205l477 178l-24 -133l-351 -131
q313 -307 193 -856l-16 -78q-26 -124 -69 -213.5t-112 -157t-169.5 -101t-235.5 -33.5zM262 510q-38 -177 51 -266.5t269 -89.5q165 0 253 74t119 216l19 80q17 96 4 164t-59 110.5t-111 62.5t-150 20q-318 0 -376 -287z" />
    <glyph glyph-name="ntilde" unicode="&#xf1;" horiz-adv-x="1363" 
d="M504 1331l-35 -168q157 189 401 189q223 0 330.5 -144.5t59.5 -373.5l-179 -834h-204l176 819q35 167 -35.5 262t-229.5 95q-68 0 -126 -19t-98.5 -49t-73 -72t-52 -83t-32.5 -87l-185 -866h-207l285 1331h205zM446 1466q19 107 89 165.5t178 58.5q55 0 97 -16t67 -38.5
t48.5 -45t56 -38.5t75.5 -16q68 0 109.5 36.5t52.5 100.5h102q-18 -111 -89 -168t-183 -57q-58 0 -101.5 16t-69 38.5t-49 45t-54 38.5t-70.5 16q-65 0 -105 -38t-51 -98h-103z" />
    <glyph glyph-name="ograve" unicode="&#xf2;" horiz-adv-x="1341" 
d="M610 -20q-197 0 -330 82t-183.5 232.5t-8.5 346.5l37 178q19 89 48.5 164t79 144.5t114.5 118t158 77.5t206 29q198 0 331 -83.5t183 -234.5t8 -348l-39 -178q-112 -528 -604 -528zM291 606q-45 -211 41.5 -329.5t277.5 -118.5q321 0 398 356l43 209q45 211 -42.5 331
t-279.5 120q-318 0 -395 -359zM332 1604l37 79l878 -151l-39 -80z" />
    <glyph glyph-name="oacute" unicode="&#xf3;" horiz-adv-x="1341" 
d="M610 -20q-197 0 -330 82t-183.5 232.5t-8.5 346.5l37 178q19 89 48.5 164t79 144.5t114.5 118t158 77.5t206 29q198 0 331 -83.5t183 -234.5t8 -348l-39 -178q-112 -528 -604 -528zM291 606q-45 -211 41.5 -329.5t277.5 -118.5q321 0 398 356l43 209q45 211 -42.5 331
t-279.5 120q-318 0 -395 -359zM360 1546l840 152l12 -80l-837 -150z" />
    <glyph glyph-name="ocircumflex" unicode="&#xf4;" horiz-adv-x="1341" 
d="M610 -20q-197 0 -330 82t-183.5 232.5t-8.5 346.5l37 178q19 89 48.5 164t79 144.5t114.5 118t158 77.5t206 29q198 0 331 -83.5t183 -234.5t8 -348l-39 -178q-112 -528 -604 -528zM291 606q-45 -211 41.5 -329.5t277.5 -118.5q321 0 398 356l43 209q45 211 -42.5 331
t-279.5 120q-318 0 -395 -359zM377 1462l360 256h129l256 -256h-141l-182 183l-254 -183h-168z" />
    <glyph glyph-name="otilde" unicode="&#xf5;" horiz-adv-x="1341" 
d="M610 -20q-197 0 -330 82t-183.5 232.5t-8.5 346.5l37 178q19 89 48.5 164t79 144.5t114.5 118t158 77.5t206 29q198 0 331 -83.5t183 -234.5t8 -348l-39 -178q-112 -528 -604 -528zM291 606q-45 -211 41.5 -329.5t277.5 -118.5q321 0 398 356l43 209q45 211 -42.5 331
t-279.5 120q-318 0 -395 -359zM350 1466q19 107 88.5 165.5t177.5 58.5q55 0 97 -16t67.5 -38.5t49 -45t56 -38.5t75.5 -16q68 0 109 36.5t52 100.5h103q-18 -111 -89.5 -168t-183.5 -57q-58 0 -101.5 16t-69 38.5t-49 45t-54 38.5t-70.5 16q-64 0 -104 -38t-51 -98h-103z
" />
    <glyph glyph-name="odieresis" unicode="&#xf6;" horiz-adv-x="1341" 
d="M610 -20q-197 0 -330 82t-183.5 232.5t-8.5 346.5l37 178q19 89 48.5 164t79 144.5t114.5 118t158 77.5t206 29q198 0 331 -83.5t183 -234.5t8 -348l-39 -178q-112 -528 -604 -528zM291 606q-45 -211 41.5 -329.5t277.5 -118.5q321 0 398 356l43 209q45 211 -42.5 331
t-279.5 120q-318 0 -395 -359zM432 1569q11 51 50.5 79.5t88.5 28.5q48 0 75 -28.5t16 -79.5q-10 -49 -50.5 -79t-87.5 -30q-49 0 -75.5 29.5t-16.5 79.5zM913 1569q11 51 51 79.5t89 28.5q47 0 74 -28.5t16 -79.5q-10 -49 -50 -79t-87 -30q-48 0 -75.5 30t-17.5 79z" />
    <glyph glyph-name="divide" unicode="&#xf7;" horiz-adv-x="1609" 
d="M895 1057q-25 0 -42 16t-17 41q0 26 20 46t45 20q26 0 43 -17.5t17 -42.5q0 -26 -20.5 -44.5t-45.5 -18.5zM141 799l19 90h1384l-18 -90h-1385zM719 563q0 27 20 46.5t47 19.5q24 0 41 -17t17 -41q0 -27 -19.5 -46t-46.5 -19q-25 0 -42 17t-17 40z" />
    <glyph glyph-name="oslash" unicode="&#xf8;" horiz-adv-x="1341" 
d="M610 -20q-196 0 -334 83l-182 -237h-139l238 309q-84 87 -111 215.5t6 290.5l37 178q19 89 48.5 164t79 144.5t114.5 118t158 77.5t206 29q201 0 332 -84l182 237h141l-237 -307q172 -185 104 -512l-39 -178q-112 -528 -604 -528zM291 606q-43 -189 26 -307l629 817
q-86 58 -217 58q-318 0 -395 -359zM393 215q85 -57 217 -57q321 0 398 356l43 209q42 188 -29 309z" />
    <glyph glyph-name="ugrave" unicode="&#xf9;" horiz-adv-x="1361" 
d="M860 0l35 168q-156 -188 -401 -188q-223 0 -330.5 144.5t-59.5 373.5l179 833h204l-176 -819q-35 -167 35.5 -261.5t228.5 -94.5q84 0 152.5 27.5t113 75t72.5 98t45 108.5l185 866h205l-283 -1331h-205zM391 1604l37 79l879 -151l-39 -80z" />
    <glyph glyph-name="uacute" unicode="&#xfa;" horiz-adv-x="1361" 
d="M860 0l35 168q-156 -188 -401 -188q-223 0 -330.5 144.5t-59.5 373.5l179 833h204l-176 -819q-35 -167 35.5 -261.5t228.5 -94.5q84 0 152.5 27.5t113 75t72.5 98t45 108.5l185 866h205l-283 -1331h-205zM420 1546l840 152l12 -80l-838 -150z" />
    <glyph glyph-name="ucircumflex" unicode="&#xfb;" horiz-adv-x="1361" 
d="M860 0l35 168q-156 -188 -401 -188q-223 0 -330.5 144.5t-59.5 373.5l179 833h204l-176 -819q-35 -167 35.5 -261.5t228.5 -94.5q84 0 152.5 27.5t113 75t72.5 98t45 108.5l185 866h205l-283 -1331h-205zM436 1462l361 256h129l256 -256h-142l-182 183l-254 -183h-168z
" />
    <glyph glyph-name="udieresis" unicode="&#xfc;" horiz-adv-x="1361" 
d="M860 0l35 168q-156 -188 -401 -188q-223 0 -330.5 144.5t-59.5 373.5l179 833h204l-176 -819q-35 -167 35.5 -261.5t228.5 -94.5q84 0 152.5 27.5t113 75t72.5 98t45 108.5l185 866h205l-283 -1331h-205zM498 1569q11 51 50.5 79.5t88.5 28.5q47 0 74 -28.5t16 -79.5
q-10 -49 -50 -79t-87 -30q-49 0 -75.5 29.5t-16.5 79.5zM979 1569q11 51 50.5 79.5t88.5 28.5q47 0 74 -28.5t16 -79.5q-10 -49 -50 -79t-87 -30q-48 0 -75 30t-17 79z" />
    <glyph glyph-name="yacute" unicode="&#xfd;" horiz-adv-x="1359" 
d="M862 14l33 156q-153 -190 -403 -190q-223 0 -330.5 144.5t-59.5 373.5l179 833h204l-176 -819q-35 -167 35.5 -261.5t228.5 -94.5q72 0 133.5 21.5t103.5 55.5t74.5 80t51 90t29.5 91l178 837h205l-289 -1358q-35 -164 -88.5 -256.5t-144 -136t-234.5 -43.5h-651l39 178
h577q139 0 205 66t100 233zM446 1546l840 152l12 -80l-837 -150z" />
    <glyph glyph-name="thorn" unicode="&#xfe;" horiz-adv-x="1386" 
d="M125 -463h-207l457 2155h205l-111 -527q62 85 158.5 135t222.5 50q125 0 225 -47t159 -131.5t80 -201t-11 -255.5l-50 -234q-48 -236 -187 -370t-351 -134q-159 0 -276.5 72.5t-164.5 198.5zM348 592q-42 -196 42 -316t276 -120q152 0 251.5 95.5t133.5 264.5l45 209
q43 201 -39 323.5t-262 122.5q-158 0 -264 -104.5t-142 -278.5z" />
    <glyph glyph-name="ydieresis" unicode="&#xff;" horiz-adv-x="1359" 
d="M862 14l33 156q-153 -190 -403 -190q-223 0 -330.5 144.5t-59.5 373.5l179 833h204l-176 -819q-35 -167 35.5 -261.5t228.5 -94.5q72 0 133.5 21.5t103.5 55.5t74.5 80t51 90t29.5 91l178 837h205l-289 -1358q-35 -164 -88.5 -256.5t-144 -136t-234.5 -43.5h-651l39 178
h577q139 0 205 66t100 233zM518 1569q11 51 50.5 79.5t88.5 28.5q48 0 75 -28.5t16 -79.5q-10 -49 -50.5 -79t-87.5 -30q-49 0 -75.5 29.5t-16.5 79.5zM999 1569q11 51 51 79.5t89 28.5q47 0 74 -28.5t16 -79.5q-10 -49 -50 -79t-87 -30q-48 0 -75.5 30t-17.5 79z" />
    <glyph glyph-name="Amacron" unicode="&#x100;" horiz-adv-x="1439" 
d="M-115 0l914 1692h280l195 -1692h-221l-33 332h-729l-176 -332h-230zM389 518h612l-94 938l-6 33zM516 1888l16 82h930l-16 -82h-930z" />
    <glyph glyph-name="amacron" unicode="&#x101;" horiz-adv-x="1335" 
d="M850 0l41 190q-78 -105 -201.5 -157.5t-277.5 -52.5q-82 0 -151.5 18t-124 55t-85.5 99.5t-31 144.5q0 161 109 267t324 147l231 32q160 31 247.5 70t110.5 115l2 6q24 117 -49 179.5t-223 62.5q-325 0 -379 -293l-6 -35h-207l6 31q42 225 188 349t408 124
q269 0 386.5 -125.5t72.5 -339.5l-188 -887h-203zM233 328q0 -87 62 -134t172 -47q115 0 209.5 39.5t171 132t117.5 232.5l30 139l4 25q-37 -46 -106.5 -74t-190.5 -51l-198 -31q-271 -44 -271 -231zM352 1528l17 82h929l-16 -82h-930z" />
    <glyph glyph-name="Abreve" unicode="&#x102;" horiz-adv-x="1439" 
d="M-115 0l914 1692h280l195 -1692h-221l-33 332h-729l-176 -332h-230zM389 518h612l-94 938l-6 33zM592 2050h100q-2 -44 20 -74t66.5 -45.5t97.5 -21.5t125 -6q150 0 234.5 32.5t103.5 114.5h101q-31 -134 -138 -184.5t-307 -50.5q-97 0 -170 11.5t-128.5 38t-82 73
t-22.5 112.5z" />
    <glyph glyph-name="abreve" unicode="&#x103;" horiz-adv-x="1335" 
d="M850 0l41 190q-78 -105 -201.5 -157.5t-277.5 -52.5q-82 0 -151.5 18t-124 55t-85.5 99.5t-31 144.5q0 161 109 267t324 147l231 32q160 31 247.5 70t110.5 115l2 6q24 117 -49 179.5t-223 62.5q-325 0 -379 -293l-6 -35h-207l6 31q42 225 188 349t408 124
q269 0 386.5 -125.5t72.5 -339.5l-188 -887h-203zM233 328q0 -87 62 -134t172 -47q115 0 209.5 39.5t171 132t117.5 232.5l30 139l4 25q-37 -46 -106.5 -74t-190.5 -51l-198 -31q-271 -44 -271 -231zM428 1690h100q-2 -44 20 -74t67 -45.5t98 -22t125 -6.5q150 0 234.5 33
t103.5 115h100q-31 -134 -138.5 -185t-306.5 -51q-97 0 -170 12t-128.5 38.5t-82 73t-22.5 112.5z" />
    <glyph glyph-name="Aogonek" unicode="&#x104;" horiz-adv-x="1439" 
d="M-115 0l914 1692h280l195 -1692h-2q-122 -34 -185.5 -79.5t-76.5 -110.5q-14 -64 37 -92.5t182 -28.5h20l-102 -99h-17q-125 0 -191.5 52t-45.5 151q33 148 287 207h-127l-33 332h-729l-176 -332h-230zM389 518h612l-94 938l-6 33z" />
    <glyph glyph-name="aogonek" unicode="&#x105;" horiz-adv-x="1335" 
d="M850 0l41 190q-78 -105 -201.5 -157.5t-277.5 -52.5q-82 0 -151.5 18t-124 55t-85.5 99.5t-31 144.5q0 161 109 267t324 147l231 32q160 31 247.5 70t110.5 115l2 6q24 117 -49 179.5t-223 62.5q-325 0 -379 -293l-6 -35h-207l6 31q42 225 188 349t408 124
q269 0 386.5 -125.5t72.5 -339.5l-188 -887q-122 -34 -185.5 -79.5t-76.5 -110.5q-14 -64 37 -92.5t182 -28.5h20l-102 -99h-17q-125 0 -191.5 52t-45.5 151q33 148 287 207h-111zM233 328q0 -87 62 -134t172 -47q115 0 209.5 39.5t171 132t117.5 232.5l30 139l4 25
q-37 -46 -106.5 -74t-190.5 -51l-198 -31q-271 -44 -271 -231z" />
    <glyph glyph-name="Cacute" unicode="&#x106;" 
d="M750 -20q-229 0 -387 104.5t-218.5 291t-11.5 423.5l60 282q23 102 62 191t103 171.5t146.5 141t198 93t253.5 34.5q306 0 475.5 -162.5t139.5 -447.5l-21 -105h-219l23 121q11 103 -14.5 182t-80.5 127.5t-131 72.5t-172 24q-121 0 -218 -36t-161 -100.5t-104 -143
t-59 -173.5l-68 -313q-36 -170 1 -303.5t143.5 -210t267.5 -76.5q205 0 333.5 104.5t170.5 294.5l28 125h221l-24 -106q-62 -286 -247.5 -446t-489.5 -160zM578 1907l839 151l13 -80l-838 -149z" />
    <glyph glyph-name="cacute" unicode="&#x107;" horiz-adv-x="1316" 
d="M1049 840q21 162 -62.5 248t-245.5 86q-94 0 -167 -29t-120 -80t-75 -109.5t-43 -128.5l-45 -209q-45 -221 39 -340.5t274 -119.5q147 0 239.5 71t135.5 228l18 73h211l-12 -59q-55 -235 -204.5 -363t-391.5 -128q-296 0 -435.5 182.5t-76.5 490.5l39 178q19 85 50 158.5
t83 141.5t119.5 116t162.5 76.5t208 28.5q264 0 400 -145t105 -382l-8 -55h-211zM360 1546l840 152l12 -80l-837 -150z" />
    <glyph glyph-name="Ccircumflex" unicode="&#x108;" 
d="M750 -20q-229 0 -387 104.5t-218.5 291t-11.5 423.5l60 282q23 102 62 191t103 171.5t146.5 141t198 93t253.5 34.5q306 0 475.5 -162.5t139.5 -447.5l-21 -105h-219l23 121q11 103 -14.5 182t-80.5 127.5t-131 72.5t-172 24q-121 0 -218 -36t-161 -100.5t-104 -143
t-59 -173.5l-68 -313q-36 -170 1 -303.5t143.5 -210t267.5 -76.5q205 0 333.5 104.5t170.5 294.5l28 125h221l-24 -106q-62 -286 -247.5 -446t-489.5 -160zM594 1823l360 256h129l256 -256h-141l-182 182l-254 -182h-168z" />
    <glyph glyph-name="ccircumflex" unicode="&#x109;" horiz-adv-x="1316" 
d="M1049 840q21 162 -62.5 248t-245.5 86q-94 0 -167 -29t-120 -80t-75 -109.5t-43 -128.5l-45 -209q-45 -221 39 -340.5t274 -119.5q147 0 239.5 71t135.5 228l18 73h211l-12 -59q-55 -235 -204.5 -363t-391.5 -128q-296 0 -435.5 182.5t-76.5 490.5l39 178q19 85 50 158.5
t83 141.5t119.5 116t162.5 76.5t208 28.5q264 0 400 -145t105 -382l-8 -55h-211zM377 1462l360 256h129l256 -256h-141l-182 183l-254 -183h-168z" />
    <glyph glyph-name="Cdotaccent" unicode="&#x10a;" 
d="M750 -20q-229 0 -387 104.5t-218.5 291t-11.5 423.5l60 282q23 102 62 191t103 171.5t146.5 141t198 93t253.5 34.5q306 0 475.5 -162.5t139.5 -447.5l-21 -105h-219l23 121q11 103 -14.5 182t-80.5 127.5t-131 72.5t-172 24q-121 0 -218 -36t-161 -100.5t-104 -143
t-59 -173.5l-68 -313q-36 -170 1 -303.5t143.5 -210t267.5 -76.5q205 0 333.5 104.5t170.5 294.5l28 125h221l-24 -106q-62 -286 -247.5 -446t-489.5 -160zM883 1929q3 48 39.5 81.5t95.5 33.5q57 0 87 -33t25 -84q-5 -44 -41 -76t-94 -32t-87.5 31t-24.5 79z" />
    <glyph glyph-name="cdotaccent" unicode="&#x10b;" horiz-adv-x="1316" 
d="M1049 840q21 162 -62.5 248t-245.5 86q-94 0 -167 -29t-120 -80t-75 -109.5t-43 -128.5l-45 -209q-45 -221 39 -340.5t274 -119.5q147 0 239.5 71t135.5 228l18 73h211l-12 -59q-55 -235 -204.5 -363t-391.5 -128q-296 0 -435.5 182.5t-76.5 490.5l39 178q19 85 50 158.5
t83 141.5t119.5 116t162.5 76.5t208 28.5q264 0 400 -145t105 -382l-8 -55h-211zM655 1599q9 49 53 81t109 32q66 0 95.5 -33.5t17.5 -89.5q-9 -46 -53 -78t-109 -32q-66 0 -95 33t-18 87z" />
    <glyph glyph-name="Ccaron" unicode="&#x10c;" 
d="M750 -20q-229 0 -387 104.5t-218.5 291t-11.5 423.5l60 282q23 102 62 191t103 171.5t146.5 141t198 93t253.5 34.5q306 0 475.5 -162.5t139.5 -447.5l-21 -105h-219l23 121q11 103 -14.5 182t-80.5 127.5t-131 72.5t-172 24q-121 0 -218 -36t-161 -100.5t-104 -143
t-59 -173.5l-68 -313q-36 -170 1 -303.5t143.5 -210t267.5 -76.5q205 0 333.5 104.5t170.5 294.5l28 125h221l-24 -106q-62 -286 -247.5 -446t-489.5 -160zM621 2071h151l215 -191l293 191h168l-401 -256h-129z" />
    <glyph glyph-name="ccaron" unicode="&#x10d;" horiz-adv-x="1316" 
d="M1049 840q21 162 -62.5 248t-245.5 86q-94 0 -167 -29t-120 -80t-75 -109.5t-43 -128.5l-45 -209q-45 -221 39 -340.5t274 -119.5q147 0 239.5 71t135.5 228l18 73h211l-12 -59q-55 -235 -204.5 -363t-391.5 -128q-296 0 -435.5 182.5t-76.5 490.5l39 178q19 85 50 158.5
t83 141.5t119.5 116t162.5 76.5t208 28.5q264 0 400 -145t105 -382l-8 -55h-211zM403 1710h152l215 -190l293 190h168l-402 -256h-129z" />
    <glyph glyph-name="Dcaron" unicode="&#x10e;" horiz-adv-x="1597" 
d="M35 0l360 1692h582q337 0 489 -214.5t72 -574.5l-57 -270q-66 -314 -254 -473.5t-520 -159.5h-672zM289 182h430q123 0 216.5 31t158 93.5t105.5 147t65 199.5l61 289q58 271 -34 419t-335 148h-387zM678 2071h151l215 -191l293 191h168l-401 -256h-129z" />
    <glyph glyph-name="dcaron" unicode="&#x10f;" horiz-adv-x="1470" 
d="M1241 1692h205l-359 -1692h-202l35 168q-62 -85 -158.5 -134.5t-222.5 -49.5q-167 0 -285 80.5t-163 226t-5 327.5l49 234q48 236 187.5 370t351.5 134q160 0 276.5 -72t163.5 -199zM293 608q-43 -201 39 -323.5t262 -122.5q158 0 263.5 104t141.5 279l41 196
q42 196 -41.5 316.5t-275.5 120.5q-152 0 -251.5 -96t-133.5 -265zM1409 1206l186 486h146l-230 -486h-102z" />
    <glyph glyph-name="Dcroat" unicode="&#x110;" horiz-adv-x="1683" 
d="M121 0l168 793h-236l25 116h237l166 783h582q337 0 489 -214.5t72 -574.5l-57 -270q-66 -314 -254 -473.5t-520 -159.5h-672zM375 182h430q123 0 216.5 31t158 93.5t105.5 147t65 199.5l61 289q58 271 -34 419t-335 148h-387l-127 -600h537l-25 -116h-536z" />
    <glyph glyph-name="dcroat" unicode="&#x111;" horiz-adv-x="1384" 
d="M1241 1692h205l-27 -129h207l-27 -115h-204l-308 -1448h-202l35 168q-62 -85 -158.5 -134.5t-222.5 -49.5q-167 0 -285 80.5t-163 226t-5 327.5l49 234q48 236 187.5 370t351.5 134q160 0 276.5 -72t163.5 -199l76 363h-508l25 115h507zM293 608q-43 -201 39 -323.5
t262 -122.5q158 0 263.5 104t141.5 279l41 196q42 196 -41.5 316.5t-275.5 120.5q-152 0 -251.5 -96t-133.5 -265z" />
    <glyph glyph-name="Emacron" unicode="&#x112;" horiz-adv-x="1359" 
d="M35 0l360 1692h1071l-39 -187h-856l-120 -565h811l-39 -188h-813l-121 -566h858l-41 -186h-1071zM496 1888l16 82h930l-17 -82h-929z" />
    <glyph glyph-name="emacron" unicode="&#x113;" horiz-adv-x="1310" 
d="M309 1528l17 82h929l-16 -82h-930zM88 647l37 178q19 86 50 160.5t82.5 143t117.5 117t159.5 77.5t204.5 29q119 0 212.5 -29t154 -82.5t97 -128.5t41.5 -166t-13 -196l-27 -125h-909l-4 -19q-45 -209 42 -328.5t279 -119.5q265 0 342 237l13 49h211l-11 -34
q-125 -430 -563 -430q-195 0 -327 83t-181.5 234.5t-7.5 349.5zM330 782h692l14 70q18 163 -62 242.5t-233 79.5q-93 0 -166 -29.5t-120 -82.5t-75.5 -113.5t-43.5 -133.5z" />
    <glyph glyph-name="Edotaccent" unicode="&#x116;" horiz-adv-x="1359" 
d="M35 0l360 1692h1071l-39 -187h-856l-120 -565h811l-39 -188h-813l-121 -566h858l-41 -186h-1071zM846 1929q3 48 39.5 81.5t95.5 33.5q57 0 87.5 -33t25.5 -84q-5 -44 -41.5 -76t-94.5 -32t-87.5 31t-24.5 79z" />
    <glyph glyph-name="edotaccent" unicode="&#x117;" horiz-adv-x="1310" 
d="M762 1479q-66 0 -95 33t-18 87q9 49 53 81t109 32q66 0 95.5 -33.5t17.5 -89.5q-9 -46 -53 -78t-109 -32zM88 647l37 178q19 86 50 160.5t82.5 143t117.5 117t159.5 77.5t204.5 29q119 0 212.5 -29t154 -82.5t97 -128.5t41.5 -166t-13 -196l-27 -125h-909l-4 -19
q-45 -209 42 -328.5t279 -119.5q265 0 342 237l13 49h211l-11 -34q-125 -430 -563 -430q-195 0 -327 83t-181.5 234.5t-7.5 349.5zM330 782h692l14 70q18 163 -62 242.5t-233 79.5q-93 0 -166 -29.5t-120 -82.5t-75.5 -113.5t-43.5 -133.5z" />
    <glyph glyph-name="Eogonek" unicode="&#x118;" horiz-adv-x="1359" 
d="M35 0l360 1692h1071l-39 -187h-856l-120 -565h811l-39 -188h-813l-121 -566h858l-41 -186q-122 -34 -185.5 -79.5t-76.5 -110.5q-14 -64 37 -92.5t182 -28.5h20l-102 -99h-16q-126 0 -192.5 52t-45.5 151q33 148 287 207h-979z" />
    <glyph glyph-name="eogonek" unicode="&#x119;" horiz-adv-x="1310" 
d="M633 -410q-126 0 -192.5 52t-45.5 151q26 123 213 187h-4q-195 0 -327 83t-181.5 234.5t-7.5 349.5l37 178q19 86 50 160.5t82.5 143t117.5 117t159.5 77.5t204.5 29q119 0 212.5 -29t154 -82.5t97 -128.5t41.5 -166t-13 -196l-27 -125h-909l-4 -19q-45 -209 42 -328.5
t279 -119.5q265 0 342 237l13 49h211l-11 -34q-102 -353 -415 -416q-110 -34 -168.5 -78t-71.5 -106q-14 -64 37 -92.5t182 -28.5h21l-103 -99h-16zM330 782h692l14 70q18 163 -62 242.5t-233 79.5q-93 0 -166 -29.5t-120 -82.5t-75.5 -113.5t-43.5 -133.5z" />
    <glyph glyph-name="Ecaron" unicode="&#x11a;" horiz-adv-x="1359" 
d="M35 0l360 1692h1071l-39 -187h-856l-120 -565h811l-39 -188h-813l-121 -566h858l-41 -186h-1071zM586 2071h151l215 -191l293 191h168l-401 -256h-129z" />
    <glyph glyph-name="ecaron" unicode="&#x11b;" horiz-adv-x="1310" 
d="M694 1454l-297 256h152l215 -190l293 190h168l-402 -256h-129zM88 647l37 178q19 86 50 160.5t82.5 143t117.5 117t159.5 77.5t204.5 29q119 0 212.5 -29t154 -82.5t97 -128.5t41.5 -166t-13 -196l-27 -125h-909l-4 -19q-45 -209 42 -328.5t279 -119.5q265 0 342 237
l13 49h211l-11 -34q-125 -430 -563 -430q-195 0 -327 83t-181.5 234.5t-7.5 349.5zM330 782h692l14 70q18 163 -62 242.5t-233 79.5q-93 0 -166 -29.5t-120 -82.5t-75.5 -113.5t-43.5 -133.5z" />
    <glyph glyph-name="Gcircumflex" unicode="&#x11c;" horiz-adv-x="1634" 
d="M725 -20q-233 0 -385 111.5t-202 298.5t-1 421l60 281q28 133 86 242.5t149 195.5t224 134t296 48q204 0 355 -76.5t224.5 -217t51.5 -322.5l-16 -78h-219l18 98q24 192 -93.5 300t-326.5 108q-223 0 -355.5 -116.5t-172.5 -315.5l-68 -314q-19 -104 -19 -195.5
t28.5 -168t78 -131t130 -85t184.5 -30.5q393 0 516 414l20 92h-571l39 176h790l-180 -850h-137l35 244q-191 -264 -539 -264zM606 1823l361 256h129l256 -256h-142l-182 182l-254 -182h-168z" />
    <glyph glyph-name="gcircumflex" unicode="&#x11d;" horiz-adv-x="1384" 
d="M887 14l33 152q-64 -85 -161 -135.5t-222 -50.5q-167 0 -285 80.5t-163 226t-5 327.5l49 234q48 236 187.5 370t351.5 134q161 0 277.5 -73.5t162.5 -203.5l55 256h205l-287 -1349q-27 -122 -60 -202t-85.5 -137t-126.5 -81.5t-180 -24.5h-713l39 178h619q144 0 208.5 65
t100.5 234zM291 604q-43 -201 39 -323.5t262 -122.5q158 0 263.5 104t141.5 279l41 196q42 196 -41.5 316.5t-275.5 120.5q-152 0 -251.5 -96t-133.5 -265zM434 1462l361 256h129l256 -256h-142l-182 183l-254 -183h-168z" />
    <glyph glyph-name="Gbreve" unicode="&#x11e;" horiz-adv-x="1634" 
d="M725 -20q-233 0 -385 111.5t-202 298.5t-1 421l60 281q28 133 86 242.5t149 195.5t224 134t296 48q204 0 355 -76.5t224.5 -217t51.5 -322.5l-16 -78h-219l18 98q24 192 -93.5 300t-326.5 108q-223 0 -355.5 -116.5t-172.5 -315.5l-68 -314q-19 -104 -19 -195.5
t28.5 -168t78 -131t130 -85t184.5 -30.5q393 0 516 414l20 92h-571l39 176h790l-180 -850h-137l35 244q-191 -264 -539 -264zM621 2050h100q-2 -44 20 -74t66.5 -45.5t97.5 -21.5t125 -6q150 0 234.5 32.5t103.5 114.5h100q-31 -134 -138 -184.5t-306 -50.5q-97 0 -170 11.5
t-128.5 38t-82 73t-22.5 112.5z" />
    <glyph glyph-name="gbreve" unicode="&#x11f;" horiz-adv-x="1384" 
d="M887 14l33 152q-64 -85 -161 -135.5t-222 -50.5q-167 0 -285 80.5t-163 226t-5 327.5l49 234q48 236 187.5 370t351.5 134q161 0 277.5 -73.5t162.5 -203.5l55 256h205l-287 -1349q-27 -122 -60 -202t-85.5 -137t-126.5 -81.5t-180 -24.5h-713l39 178h619q144 0 208.5 65
t100.5 234zM291 604q-43 -201 39 -323.5t262 -122.5q158 0 263.5 104t141.5 279l41 196q42 196 -41.5 316.5t-275.5 120.5q-152 0 -251.5 -96t-133.5 -265zM449 1690h100q-2 -44 20 -74t66.5 -45.5t97.5 -22t125 -6.5q150 0 234.5 33t103.5 115h100q-31 -134 -138 -185
t-306 -51q-97 0 -170 12t-128.5 38.5t-82 73t-22.5 112.5z" />
    <glyph glyph-name="Gdotaccent" unicode="&#x120;" horiz-adv-x="1634" 
d="M725 -20q-233 0 -385 111.5t-202 298.5t-1 421l60 281q28 133 86 242.5t149 195.5t224 134t296 48q204 0 355 -76.5t224.5 -217t51.5 -322.5l-16 -78h-219l18 98q24 192 -93.5 300t-326.5 108q-223 0 -355.5 -116.5t-172.5 -315.5l-68 -314q-19 -104 -19 -195.5
t28.5 -168t78 -131t130 -85t184.5 -30.5q393 0 516 414l20 92h-571l39 176h790l-180 -850h-137l35 244q-191 -264 -539 -264zM895 1929q3 48 39.5 81.5t95.5 33.5q57 0 87.5 -33t25.5 -84q-5 -44 -41 -76t-94 -32t-88 31t-25 79z" />
    <glyph glyph-name="gdotaccent" unicode="&#x121;" horiz-adv-x="1384" 
d="M887 14l33 152q-64 -85 -161 -135.5t-222 -50.5q-167 0 -285 80.5t-163 226t-5 327.5l49 234q48 236 187.5 370t351.5 134q161 0 277.5 -73.5t162.5 -203.5l55 256h205l-287 -1349q-27 -122 -60 -202t-85.5 -137t-126.5 -81.5t-180 -24.5h-713l39 178h619q144 0 208.5 65
t100.5 234zM291 604q-43 -201 39 -323.5t262 -122.5q158 0 263.5 104t141.5 279l41 196q42 196 -41.5 316.5t-275.5 120.5q-152 0 -251.5 -96t-133.5 -265zM715 1599q9 49 53 81t109 32q66 0 95 -33t17 -90q-9 -46 -53 -78t-109 -32q-66 0 -94.5 33t-17.5 87z" />
    <glyph glyph-name="uni0122" unicode="&#x122;" horiz-adv-x="1634" 
d="M725 -20q-233 0 -385 111.5t-202 298.5t-1 421l60 281q28 133 86 242.5t149 195.5t224 134t296 48q204 0 355 -76.5t224.5 -217t51.5 -322.5l-16 -78h-219l18 98q24 192 -93.5 300t-326.5 108q-223 0 -355.5 -116.5t-172.5 -315.5l-68 -314q-19 -104 -19 -195.5
t28.5 -168t78 -131t130 -85t184.5 -30.5q393 0 516 414l20 92h-571l39 176h790l-180 -850h-137l35 244q-191 -264 -539 -264zM584 -434l18 84q109 39 150 119q-36 -33 -76 -33q-34 0 -53.5 25.5t-10.5 66.5q9 42 43.5 71t79.5 29q47 0 68 -31t8 -92q-14 -70 -72 -133
t-155 -106z" />
    <glyph glyph-name="uni0123" unicode="&#x123;" horiz-adv-x="1384" 
d="M887 14l33 152q-64 -85 -161 -135.5t-222 -50.5q-167 0 -285 80.5t-163 226t-5 327.5l49 234q48 236 187.5 370t351.5 134q161 0 277.5 -73.5t162.5 -203.5l55 256h205l-287 -1349q-27 -122 -60 -202t-85.5 -137t-126.5 -81.5t-180 -24.5h-713l39 178h619q144 0 208.5 65
t100.5 234zM291 604q-43 -201 39 -323.5t262 -122.5q158 0 263.5 104t141.5 279l41 196q42 196 -41.5 316.5t-275.5 120.5q-152 0 -251.5 -96t-133.5 -265zM741 1561q14 68 72.5 129.5t155.5 103.5l-19 -84q-106 -38 -149 -119q38 35 76 35q34 0 53 -25.5t10 -68.5
q-9 -42 -42.5 -71t-78.5 -29q-48 0 -69.5 32.5t-8.5 96.5z" />
    <glyph glyph-name="Hcircumflex" unicode="&#x124;" horiz-adv-x="1603" 
d="M1071 0l160 752h-821l-160 -752h-213l358 1692h213l-159 -752h821l160 752h212l-358 -1692h-213zM655 1823l361 256h129l256 -256h-141l-183 182l-254 -182h-168z" />
    <glyph glyph-name="hcircumflex" unicode="&#x125;" horiz-adv-x="1363" 
d="M580 1692l-113 -533q159 193 405 193q223 0 330.5 -144.5t59.5 -373.5l-179 -834h-204l176 819q35 167 -35.5 262t-228.5 95q-75 0 -138 -23t-105 -58.5t-74.5 -84t-50 -94t-26.5 -93.5l2 15l-178 -838h-205l359 1692h205zM115 1823l360 256h129l256 -256h-141l-182 182
l-254 -182h-168zM395 817l2 6q-2 -2 -2 -6z" />
    <glyph glyph-name="Hbar" unicode="&#x126;" horiz-adv-x="1722" 
d="M1133 0l159 752h-821l-160 -752h-213l269 1270h-199l27 121h198l64 301h213l-64 -301h821l64 301h213l-64 -301h199l-27 -121h-198l-268 -1270h-213zM510 940h821l70 330h-821z" />
    <glyph glyph-name="hbar" unicode="&#x127;" horiz-adv-x="1363" 
d="M580 1692l-29 -138h461l-27 -114h-459l-59 -281q159 193 405 193q223 0 330.5 -144.5t59.5 -373.5l-179 -834h-204l176 819q35 167 -35.5 262t-228.5 95q-75 0 -138 -23t-105 -58.5t-74.5 -84t-50 -94t-26.5 -93.5l2 15l-178 -838h-205l306 1440h-254l24 114h254l29 138
h205zM395 817l2 6q-2 -2 -2 -6z" />
    <glyph glyph-name="Itilde" unicode="&#x128;" horiz-adv-x="1101" 
d="M-47 0l43 193h348l277 1306h-349l39 193h914l-41 -193h-348l-279 -1306h350l-43 -193h-911zM381 1827q19 107 88.5 165t177.5 58q55 0 97 -16t67 -38.5t48.5 -45t56 -38.5t75.5 -16q68 0 109.5 37t52.5 101h102q-19 -111 -89.5 -168.5t-182.5 -57.5q-58 0 -101.5 16
t-69 38.5t-49 45t-54 38.5t-70.5 16q-65 0 -105 -37.5t-51 -97.5h-102z" />
    <glyph glyph-name="itilde" unicode="&#x129;" horiz-adv-x="518" 
d="M299 1331h205l-283 -1331h-205zM14 1466q19 107 89 165.5t178 58.5q55 0 97 -16t67 -38.5t48.5 -45t56 -38.5t75.5 -16q68 0 109 36.5t52 100.5h103q-18 -111 -89.5 -168t-183.5 -57q-58 0 -101.5 16t-69 38.5t-49 45t-54 38.5t-70.5 16q-64 0 -104 -38t-51 -98h-103z
" />
    <glyph glyph-name="Imacron" unicode="&#x12a;" horiz-adv-x="1101" 
d="M-47 0l43 193h348l277 1306h-349l39 193h914l-41 -193h-348l-279 -1306h350l-43 -193h-911zM346 1888l16 82h930l-16 -82h-930z" />
    <glyph glyph-name="imacron" unicode="&#x12b;" horiz-adv-x="518" 
d="M299 1331h205l-283 -1331h-205zM131 1528l16 82h623l-16 -82h-623z" />
    <glyph glyph-name="Iogonek" unicode="&#x12e;" horiz-adv-x="1101" 
d="M-47 0l43 193h348l277 1306h-349l39 193h914l-41 -193h-348l-279 -1306h350l-43 -193q-122 -34 -185.5 -79.5t-76.5 -110.5q-14 -64 37 -92.5t182 -28.5h21l-103 -99h-16q-126 0 -192.5 52t-45.5 151q33 148 287 207h-819z" />
    <glyph glyph-name="iogonek" unicode="&#x12f;" horiz-adv-x="518" 
d="M299 1331h205l-283 -1331q-122 -34 -185.5 -79.5t-76.5 -110.5q-14 -64 37 -92.5t182 -28.5h21l-103 -99h-16q-126 0 -192.5 52t-45.5 151q33 148 287 207h-113zM319 1599q9 49 53 81t109 32q66 0 95.5 -33.5t17.5 -89.5q-9 -46 -53 -78t-109 -32q-66 0 -95 33t-18 87z
" />
    <glyph glyph-name="Idotaccent" unicode="&#x130;" horiz-adv-x="1101" 
d="M-47 0l43 193h348l277 1306h-349l39 193h914l-41 -193h-348l-279 -1306h350l-43 -193h-911zM696 1929q3 48 39.5 81.5t95.5 33.5q57 0 87.5 -33t25.5 -84q-5 -44 -41 -76t-94 -32t-88 31t-25 79z" />
    <glyph glyph-name="dotlessi" unicode="&#x131;" horiz-adv-x="518" 
d="M299 1331h205l-283 -1331h-205z" />
    <glyph glyph-name="IJ" unicode="&#x132;" horiz-adv-x="2451" 
d="M-47 0l43 193h348l277 1306h-349l39 193h914l-41 -193h-348l-279 -1306h350l-43 -193h-911zM1094 614l10 45h217l-14 -65q-22 -219 55 -323.5t280 -104.5q174 0 267.5 90.5t140.5 312.5l240 1123h215l-238 -1123q-25 -121 -56.5 -208.5t-80 -162.5t-114.5 -121
t-159 -71.5t-215 -25.5q-618 0 -548 634z" />
    <glyph glyph-name="ij" unicode="&#x133;" horiz-adv-x="948" 
d="M299 1331h205l-283 -1331h-205zM-16 -463l39 178h137q75 0 118.5 10t76 42.5t50 82t37.5 140.5l287 1341h205l-297 -1390q-34 -161 -82 -245.5t-129 -121.5t-221 -37h-221zM319 1599q9 49 53 81t109 32q66 0 95.5 -33.5t17.5 -89.5q-9 -46 -53 -78t-109 -32q-66 0 -95 33
t-18 87zM750 1599q9 49 52.5 81t108.5 32q66 0 95.5 -33.5t17.5 -89.5q-9 -46 -53 -78t-109 -32q-66 0 -94.5 33t-17.5 87z" />
    <glyph glyph-name="Jcircumflex" unicode="&#x134;" horiz-adv-x="1386" 
d="M578 -20q-619 0 -549 634l10 45h217l-14 -65q-22 -219 55.5 -323.5t280.5 -104.5q174 0 267 90.5t140 312.5l240 1123h215l-238 -1123q-25 -121 -56 -208.5t-80 -162.5t-114.5 -121t-158.5 -71.5t-215 -25.5zM958 1823l361 256h129l256 -256h-141l-183 182l-254 -182
h-168z" />
    <glyph glyph-name="jcircumflex" unicode="&#x135;" horiz-adv-x="518" 
d="M12 -10l287 1341h205l-297 -1390q-34 -161 -82 -245.5t-129 -121.5t-221 -37h-221l38 178h138q75 0 118.5 10t76 42.5t50 82t37.5 140.5zM41 1462l360 256h129l256 -256h-141l-182 183l-254 -183h-168z" />
    <glyph glyph-name="uni0136" unicode="&#x136;" horiz-adv-x="1452" 
d="M1036 0l-506 750h-120l-160 -750h-213l358 1692h213l-159 -750h112l825 750h279l-952 -846l587 -846h-264zM481 -434l19 84q108 39 149 119q-36 -33 -76 -33q-34 0 -53 25.5t-10 66.5q9 42 43.5 71t79.5 29q47 0 68 -31t8 -92q-14 -70 -72.5 -133t-155.5 -106z" />
    <glyph glyph-name="uni0137" unicode="&#x137;" horiz-adv-x="1261" 
d="M375 1692h205l-199 -934h88l666 573h268l-795 -674l504 -657h-256l-432 582h-80l-123 -582h-207zM381 -434l18 84q109 39 150 119q-36 -33 -76 -33q-34 0 -53 25.5t-10 66.5q9 42 43 71t79 29q47 0 68 -31t8 -92q-14 -70 -72 -133t-155 -106z" />
    <glyph glyph-name="Lacute" unicode="&#x139;" horiz-adv-x="1269" 
d="M37 0l358 1692h213l-319 -1506h854l-41 -186h-1065zM557 1907l840 151l12 -80l-838 -149z" />
    <glyph glyph-name="lacute" unicode="&#x13a;" horiz-adv-x="518" 
d="M375 1692h205l-361 -1692h-205zM100 1907l840 151l12 -80l-837 -149z" />
    <glyph glyph-name="uni013B" unicode="&#x13b;" horiz-adv-x="1269" 
d="M37 0l358 1692h213l-319 -1506h854l-41 -186h-1065zM422 -434l18 84q109 39 150 119q-36 -33 -76 -33q-34 0 -53 25.5t-10 66.5q9 42 43 71t79 29q47 0 68 -31t8 -92q-14 -70 -72 -133t-155 -106z" />
    <glyph glyph-name="uni013C" unicode="&#x13c;" horiz-adv-x="518" 
d="M375 1692h205l-361 -1692h-205zM-43 -434l18 84q109 39 150 119q-36 -33 -76 -33q-34 0 -53 25.5t-10 66.5q9 42 43.5 71t79.5 29q47 0 67.5 -31t7.5 -92q-14 -70 -72 -133t-155 -106z" />
    <glyph glyph-name="Lcaron" unicode="&#x13d;" horiz-adv-x="1271" 
d="M37 0l358 1692h213l-319 -1506h854l-41 -186h-1065zM848 1206l186 486h146l-230 -486h-102z" />
    <glyph glyph-name="lcaron" unicode="&#x13e;" horiz-adv-x="604" 
d="M375 1692h205l-361 -1692h-205zM543 1206l186 486h145l-229 -486h-102z" />
    <glyph glyph-name="Lslash" unicode="&#x141;" horiz-adv-x="1390" 
d="M156 0l145 684l-268 -96l39 137l258 92l184 875h213l-168 -791l483 174l-36 -135l-476 -172l-122 -582h854l-41 -186h-1065z" />
    <glyph glyph-name="lslash" unicode="&#x142;" horiz-adv-x="835" 
d="M539 1692h204l-157 -742l305 135l-31 -137l-303 -135l-174 -813h-205l152 713l-301 -133l28 135l301 135z" />
    <glyph glyph-name="Nacute" unicode="&#x143;" horiz-adv-x="1632" 
d="M35 0l360 1692h205l586 -1321l282 1321h205l-358 -1692h-205l-586 1321l-282 -1321h-207zM659 1907l840 151l12 -80l-837 -149z" />
    <glyph glyph-name="nacute" unicode="&#x144;" horiz-adv-x="1363" 
d="M504 1331l-35 -168q157 189 401 189q223 0 330.5 -144.5t59.5 -373.5l-179 -834h-204l176 819q35 167 -35.5 262t-229.5 95q-68 0 -126 -19t-98.5 -49t-73 -72t-52 -83t-32.5 -87l-185 -866h-207l285 1331h205zM455 1546l839 152l13 -80l-838 -150z" />
    <glyph glyph-name="uni0145" unicode="&#x145;" horiz-adv-x="1632" 
d="M35 0l360 1692h205l586 -1321l282 1321h205l-358 -1692h-205l-586 1321l-282 -1321h-207zM516 -434l19 84q108 39 149 119q-36 -33 -76 -33q-34 0 -53 25.5t-10 66.5q9 42 43.5 71t79.5 29q47 0 67.5 -31t7.5 -92q-14 -70 -72 -133t-155 -106z" />
    <glyph glyph-name="uni0146" unicode="&#x146;" horiz-adv-x="1363" 
d="M504 1331l-35 -168q157 189 401 189q223 0 330.5 -144.5t59.5 -373.5l-179 -834h-204l176 819q35 167 -35.5 262t-229.5 95q-68 0 -126 -19t-98.5 -49t-73 -72t-52 -83t-32.5 -87l-185 -866h-207l285 1331h205zM395 -434l19 84q108 39 149 119q-36 -33 -76 -33
q-34 0 -53 25.5t-10 66.5q9 42 43.5 71t79.5 29q47 0 68 -31t8 -92q-14 -70 -72.5 -133t-155.5 -106z" />
    <glyph glyph-name="Ncaron" unicode="&#x147;" horiz-adv-x="1632" 
d="M35 0l360 1692h205l586 -1321l282 1321h205l-358 -1692h-205l-586 1321l-282 -1321h-207zM702 2071h152l215 -191l293 191h168l-402 -256h-129z" />
    <glyph glyph-name="ncaron" unicode="&#x148;" horiz-adv-x="1363" 
d="M504 1331l-35 -168q157 189 401 189q223 0 330.5 -144.5t59.5 -373.5l-179 -834h-204l176 819q35 167 -35.5 262t-229.5 95q-68 0 -126 -19t-98.5 -49t-73 -72t-52 -83t-32.5 -87l-185 -866h-207l285 1331h205zM500 1710h151l215 -190l293 190h168l-401 -256h-129z" />
    <glyph glyph-name="Eng" unicode="&#x14a;" horiz-adv-x="1632" 
d="M35 0l360 1692h205l586 -1321l282 1321h205l-358 -1692h-2q-18 -82 -33.5 -136t-38.5 -104t-50.5 -79t-67.5 -51.5t-92 -31t-122 -8.5h-204l38 191h177q90 0 131.5 49.5t56.5 171.5l-584 1319l-282 -1321h-207z" />
    <glyph glyph-name="eng" unicode="&#x14b;" horiz-adv-x="1363" 
d="M504 1331l-35 -168q157 189 401 189q223 0 330.5 -144.5t59.5 -373.5l-179 -834q-16 -79 -31.5 -132.5t-38.5 -103.5t-52 -79.5t-70.5 -52.5t-96 -32.5t-126.5 -9.5h-177l37 174h117q104 0 155.5 54.5t78.5 181.5l176 819q35 167 -35.5 262t-229.5 95q-68 0 -126 -19
t-98.5 -49t-73 -72t-52 -83t-32.5 -87l-185 -866h-207l285 1331h205z" />
    <glyph glyph-name="Omacron" unicode="&#x14c;" horiz-adv-x="1642" 
d="M770 -20q-177 0 -316 57.5t-222 162t-113 251t10 323.5l59 283q22 107 61 200t103 178t146.5 145.5t197.5 96t252 35.5q233 0 396.5 -101t228.5 -283.5t16 -414.5l-59 -278q-23 -106 -61.5 -199t-102 -178t-146 -145.5t-198 -96.5t-252.5 -36zM344 741q-37 -167 0 -296.5
t147 -203t279 -73.5q82 0 153 17.5t125 50t97.5 75t75 96t52.5 109.5t34 119l67 315q37 168 -1.5 298t-149 203t-277.5 73q-98 0 -180 -26t-139.5 -69t-102 -104.5t-71.5 -127.5t-43 -142zM547 1888l16 82h930l-16 -82h-930z" />
    <glyph glyph-name="omacron" unicode="&#x14d;" horiz-adv-x="1341" 
d="M610 -20q-197 0 -330 82t-183.5 232.5t-8.5 346.5l37 178q19 89 48.5 164t79 144.5t114.5 118t158 77.5t206 29q198 0 331 -83.5t183 -234.5t8 -348l-39 -178q-112 -528 -604 -528zM291 606q-45 -211 41.5 -329.5t277.5 -118.5q321 0 398 356l43 209q45 211 -42.5 331
t-279.5 120q-318 0 -395 -359zM315 1528l17 82h930l-17 -82h-930z" />
    <glyph glyph-name="Ohungarumlaut" unicode="&#x150;" horiz-adv-x="1642" 
d="M770 -20q-177 0 -316 57.5t-222 162t-113 251t10 323.5l59 283q22 107 61 200t103 178t146.5 145.5t197.5 96t252 35.5q233 0 396.5 -101t228.5 -283.5t16 -414.5l-59 -278q-23 -106 -61.5 -199t-102 -178t-146 -145.5t-198 -96.5t-252.5 -36zM344 741q-37 -167 0 -296.5
t147 -203t279 -73.5q82 0 153 17.5t125 50t97.5 75t75 96t52.5 109.5t34 119l67 315q37 168 -1.5 298t-149 203t-277.5 73q-98 0 -180 -26t-139.5 -69t-102 -104.5t-71.5 -127.5t-43 -142zM797 1815l274 229h135l-254 -229h-155zM1059 1815l274 229h133l-254 -229h-153z" />
    <glyph glyph-name="ohungarumlaut" unicode="&#x151;" horiz-adv-x="1341" 
d="M610 -20q-197 0 -330 82t-183.5 232.5t-8.5 346.5l37 178q19 89 48.5 164t79 144.5t114.5 118t158 77.5t206 29q198 0 331 -83.5t183 -234.5t8 -348l-39 -178q-112 -528 -604 -528zM291 606q-45 -211 41.5 -329.5t277.5 -118.5q321 0 398 356l43 209q45 211 -42.5 331
t-279.5 120q-318 0 -395 -359zM565 1454l275 229h135l-254 -229h-156zM827 1454l275 229h133l-254 -229h-154z" />
    <glyph glyph-name="OE" unicode="&#x152;" horiz-adv-x="2131" 
d="M602 -20q-116 0 -209 39t-153.5 109t-97 167t-37.5 211.5t24 243.5l59 278q32 153 88.5 275.5t139 215.5t197 143t253.5 50q164 0 274.5 -71t157.5 -197l50 248h888l-38 -187h-697l-121 -565h662l-39 -188h-662l-120 -566h696l-39 -186h-889l41 205
q-91 -118 -194.5 -171.5t-233.5 -53.5zM338 711q-19 -89 -20.5 -168.5t16 -148.5t54 -119t98 -78.5t143.5 -28.5q95 0 176.5 38.5t140.5 106.5t99.5 155t62.5 189l74 349q17 80 17.5 154t-18 140.5t-56 116t-102 78.5t-149.5 29q-96 0 -175 -37t-135.5 -105.5t-95.5 -157
t-62 -198.5z" />
    <glyph glyph-name="oe" unicode="&#x153;" horiz-adv-x="2131" 
d="M567 -20q-183 0 -307 83t-170 230t-6 332l41 190q24 114 69.5 208t116 169.5t173.5 117.5t229 42q152 0 265.5 -60.5t164.5 -181.5q75 123 185 182.5t263 59.5q182 0 298.5 -77t157 -210.5t7.5 -308.5l-26 -131h-857l-16 -76q-37 -176 42.5 -283.5t248.5 -107.5
q129 0 209 62.5t125 191.5l4 22h209l-4 -22q-59 -208 -194.5 -320t-350.5 -112q-319 0 -428 241q-158 -241 -449 -241zM289 600q-43 -200 36.5 -321t252.5 -121q158 0 252.5 101.5t130.5 277.5l40 196q44 205 -32 323t-250 118q-311 0 -389 -377zM1204 780h639l12 62
q19 159 -49 245.5t-225 86.5q-152 0 -243 -89.5t-128 -271.5z" />
    <glyph glyph-name="Racute" unicode="&#x154;" horiz-adv-x="1560" 
d="M1096 0q-20 48 6 154l49 233q67 307 -250 307h-504l-147 -694h-215l360 1692h684q261 0 385.5 -139t71.5 -382l-4 -18q-36 -163 -117 -250t-223 -121q123 -48 164.5 -158t7.5 -259l-47 -218q-26 -108 -10 -147h-211zM436 877h508q94 0 158 15.5t104.5 50.5t62.5 79.5
t38 112.5l12 55q37 169 -32.5 244t-235.5 75h-480zM604 1907l840 151l12 -80l-838 -149z" />
    <glyph glyph-name="racute" unicode="&#x155;" horiz-adv-x="1163" 
d="M504 1331l-39 -186q142 207 387 207q96 0 168.5 -38.5t110.5 -105t47.5 -157t-19.5 -195.5l-26 -104h-209l20 84q20 71 20 131.5t-20 108t-66.5 74t-115.5 26.5q-65 0 -120.5 -21t-94 -54.5t-69.5 -79t-49 -90t-30 -93.5l-178 -838h-207l285 1331h205zM399 1546l840 152
l12 -80l-837 -150z" />
    <glyph glyph-name="uni0156" unicode="&#x156;" horiz-adv-x="1560" 
d="M1096 0q-20 48 6 154l49 233q67 307 -250 307h-504l-147 -694h-215l360 1692h684q261 0 385.5 -139t71.5 -382l-4 -18q-36 -163 -117 -250t-223 -121q123 -48 164.5 -158t7.5 -259l-47 -218q-26 -108 -10 -147h-211zM436 877h508q94 0 158 15.5t104.5 50.5t62.5 79.5
t38 112.5l12 55q37 169 -32.5 244t-235.5 75h-480zM502 -434l18 84q109 39 150 119q-36 -33 -76 -33q-34 0 -53.5 25.5t-10.5 66.5q9 42 43.5 71t79.5 29q47 0 68 -31t8 -92q-14 -70 -72 -133t-155 -106z" />
    <glyph glyph-name="uni0157" unicode="&#x157;" horiz-adv-x="1163" 
d="M504 1331l-39 -186q142 207 387 207q96 0 168.5 -38.5t110.5 -105t47.5 -157t-19.5 -195.5l-26 -104h-209l20 84q20 71 20 131.5t-20 108t-66.5 74t-115.5 26.5q-65 0 -120.5 -21t-94 -54.5t-69.5 -79t-49 -90t-30 -93.5l-178 -838h-207l285 1331h205zM-43 -434l18 84
q109 39 150 119q-36 -33 -76 -33q-34 0 -53 25.5t-10 66.5q9 42 43.5 71t79.5 29q47 0 67.5 -31t7.5 -92q-14 -70 -72 -133t-155 -106z" />
    <glyph glyph-name="Rcaron" unicode="&#x158;" horiz-adv-x="1560" 
d="M1096 0q-20 48 6 154l49 233q67 307 -250 307h-504l-147 -694h-215l360 1692h684q261 0 385.5 -139t71.5 -382l-4 -18q-36 -163 -117 -250t-223 -121q123 -48 164.5 -158t7.5 -259l-47 -218q-26 -108 -10 -147h-211zM436 877h508q94 0 158 15.5t104.5 50.5t62.5 79.5
t38 112.5l12 55q37 169 -32.5 244t-235.5 75h-480zM647 2071h152l215 -191l293 191h168l-402 -256h-129z" />
    <glyph glyph-name="rcaron" unicode="&#x159;" horiz-adv-x="1163" 
d="M504 1331l-39 -186q142 207 387 207q96 0 168.5 -38.5t110.5 -105t47.5 -157t-19.5 -195.5l-26 -104h-209l20 84q20 71 20 131.5t-20 108t-66.5 74t-115.5 26.5q-65 0 -120.5 -21t-94 -54.5t-69.5 -79t-49 -90t-30 -93.5l-178 -838h-207l285 1331h205zM442 1710h152
l215 -190l293 190h168l-402 -256h-129z" />
    <glyph glyph-name="Sacute" unicode="&#x15a;" horiz-adv-x="1415" 
d="M686 -20q-335 0 -492.5 143t-125.5 426l10 61h219l-14 -84q-22 -186 75 -273t332 -87q188 0 271.5 65.5t93.5 221.5q3 42 -2.5 77.5t-14.5 61t-28.5 48.5t-36.5 38t-47 31t-52 25.5t-59 23.5l-203 86q-50 20 -82.5 34.5t-76 38.5t-71 46.5t-57 55.5t-45 70t-24.5 86.5
t-6 106.5q12 207 152.5 318.5t414.5 111.5q314 0 461 -133t117 -381l-9 -53h-219l11 63q21 168 -68 244t-295 76q-178 0 -257.5 -58.5t-88.5 -185.5q-2 -35 4.5 -66t16.5 -53.5t32 -43.5t38.5 -34t47 -28.5t47.5 -22.5t50 -20l198 -86q53 -21 84 -34t77 -37.5t73.5 -47.5
t58.5 -59t47 -77t25.5 -96.5t5.5 -121.5q-14 -240 -155 -358.5t-433 -118.5zM453 1907l839 151l13 -80l-838 -149z" />
    <glyph glyph-name="sacute" unicode="&#x15b;" horiz-adv-x="1259" 
d="M844 717q150 -49 213.5 -127t58.5 -203q-2 -69 -20.5 -128t-59 -111.5t-100 -89t-149.5 -57.5t-203 -21q-160 0 -275.5 34.5t-179 98.5t-87 147.5t-9.5 188.5l8 45h211l-10 -52q-18 -140 67 -213t281 -73q160 0 236.5 60.5t78.5 156.5q2 71 -38 115.5t-130 72.5l-262 94
q-165 47 -235.5 125.5t-65.5 206.5q2 73 29.5 135.5t84 115.5t156.5 83.5t234 30.5q152 0 261.5 -34t168.5 -94.5t81 -138.5t9 -172l-6 -36h-211l6 34q17 132 -61 198.5t-252 66.5q-136 0 -212.5 -51.5t-76.5 -133.5q-1 -64 40 -103.5t138 -70.5zM307 1546l840 152l12 -80
l-837 -150z" />
    <glyph glyph-name="Scircumflex" unicode="&#x15c;" horiz-adv-x="1415" 
d="M686 -20q-335 0 -492.5 143t-125.5 426l10 61h219l-14 -84q-22 -186 75 -273t332 -87q188 0 271.5 65.5t93.5 221.5q3 42 -2.5 77.5t-14.5 61t-28.5 48.5t-36.5 38t-47 31t-52 25.5t-59 23.5l-203 86q-50 20 -82.5 34.5t-76 38.5t-71 46.5t-57 55.5t-45 70t-24.5 86.5
t-6 106.5q12 207 152.5 318.5t414.5 111.5q314 0 461 -133t117 -381l-9 -53h-219l11 63q21 168 -68 244t-295 76q-178 0 -257.5 -58.5t-88.5 -185.5q-2 -35 4.5 -66t16.5 -53.5t32 -43.5t38.5 -34t47 -28.5t47.5 -22.5t50 -20l198 -86q53 -21 84 -34t77 -37.5t73.5 -47.5
t58.5 -59t47 -77t25.5 -96.5t5.5 -121.5q-14 -240 -155 -358.5t-433 -118.5zM469 1823l360 256h129l256 -256h-141l-182 182l-254 -182h-168z" />
    <glyph glyph-name="scircumflex" unicode="&#x15d;" horiz-adv-x="1259" 
d="M844 717q150 -49 213.5 -127t58.5 -203q-2 -69 -20.5 -128t-59 -111.5t-100 -89t-149.5 -57.5t-203 -21q-160 0 -275.5 34.5t-179 98.5t-87 147.5t-9.5 188.5l8 45h211l-10 -52q-18 -140 67 -213t281 -73q160 0 236.5 60.5t78.5 156.5q2 71 -38 115.5t-130 72.5l-262 94
q-165 47 -235.5 125.5t-65.5 206.5q2 73 29.5 135.5t84 115.5t156.5 83.5t234 30.5q152 0 261.5 -34t168.5 -94.5t81 -138.5t9 -172l-6 -36h-211l6 34q17 132 -61 198.5t-252 66.5q-136 0 -212.5 -51.5t-76.5 -133.5q-1 -64 40 -103.5t138 -70.5zM324 1462l360 256h129
l256 -256h-141l-183 183l-253 -183h-168z" />
    <glyph glyph-name="Scedilla" unicode="&#x15e;" horiz-adv-x="1415" 
d="M461 -336q153 0 212 15t62 63q4 44 -45 53.5t-166 -4.5l86 191q-296 15 -434.5 158t-107.5 409l10 61h219l-14 -84q-22 -186 75 -273t332 -87q188 0 271.5 65.5t93.5 221.5q3 42 -2.5 77.5t-14.5 61t-28.5 48.5t-36.5 38t-47 31t-52 25.5t-59 23.5l-203 86
q-50 20 -82.5 34.5t-76 38.5t-71 46.5t-57 55.5t-45 70t-24.5 86.5t-6 106.5q12 207 152.5 318.5t414.5 111.5q314 0 461 -133t117 -381l-9 -53h-219l11 63q21 168 -68 244t-295 76q-178 0 -257.5 -58.5t-88.5 -185.5q-2 -35 4.5 -66t16.5 -53.5t32 -43.5t38.5 -34t47 -28.5
t47.5 -22.5t50 -20l198 -86q53 -21 84 -34t77 -37.5t73.5 -47.5t58.5 -59t47 -77t25.5 -96.5t5.5 -121.5q-14 -236 -150.5 -354.5t-418.5 -122.5l-50 -107q58 5 104 0t73 -35.5t22 -85.5q-7 -97 -102.5 -136.5t-311.5 -39.5z" />
    <glyph glyph-name="scedilla" unicode="&#x15f;" horiz-adv-x="1259" 
d="M844 717q150 -49 213.5 -127t58.5 -203q-3 -84 -30.5 -153t-84 -126t-152.5 -90.5t-226 -37.5l-50 -107q58 5 104 0t73 -35.5t22 -85.5q-7 -97 -102.5 -136.5t-311.5 -39.5l21 88q153 0 212 15t62 63q4 44 -45 53.5t-166 -4.5l86 191q-145 5 -248.5 42t-160.5 100
t-78 144t-8 181l8 45h211l-10 -52q-18 -140 67 -213t281 -73q160 0 236.5 60.5t78.5 156.5q2 71 -38 115.5t-130 72.5l-262 94q-165 47 -235.5 125.5t-65.5 206.5q2 73 29.5 135.5t84 115.5t156.5 83.5t234 30.5q152 0 261.5 -34t168.5 -94.5t81 -138.5t9 -172l-6 -36h-211
l6 34q17 132 -61 198.5t-252 66.5q-136 0 -212.5 -51.5t-76.5 -133.5q-1 -64 40 -103.5t138 -70.5z" />
    <glyph glyph-name="Scaron" unicode="&#x160;" horiz-adv-x="1415" 
d="M686 -20q-335 0 -492.5 143t-125.5 426l10 61h219l-14 -84q-22 -186 75 -273t332 -87q188 0 271.5 65.5t93.5 221.5q3 42 -2.5 77.5t-14.5 61t-28.5 48.5t-36.5 38t-47 31t-52 25.5t-59 23.5l-203 86q-50 20 -82.5 34.5t-76 38.5t-71 46.5t-57 55.5t-45 70t-24.5 86.5
t-6 106.5q12 207 152.5 318.5t414.5 111.5q314 0 461 -133t117 -381l-9 -53h-219l11 63q21 168 -68 244t-295 76q-178 0 -257.5 -58.5t-88.5 -185.5q-2 -35 4.5 -66t16.5 -53.5t32 -43.5t38.5 -34t47 -28.5t47.5 -22.5t50 -20l198 -86q53 -21 84 -34t77 -37.5t73.5 -47.5
t58.5 -59t47 -77t25.5 -96.5t5.5 -121.5q-14 -240 -155 -358.5t-433 -118.5zM496 2071h151l215 -191l293 191h168l-401 -256h-129z" />
    <glyph glyph-name="scaron" unicode="&#x161;" horiz-adv-x="1259" 
d="M844 717q150 -49 213.5 -127t58.5 -203q-2 -69 -20.5 -128t-59 -111.5t-100 -89t-149.5 -57.5t-203 -21q-160 0 -275.5 34.5t-179 98.5t-87 147.5t-9.5 188.5l8 45h211l-10 -52q-18 -140 67 -213t281 -73q160 0 236.5 60.5t78.5 156.5q2 71 -38 115.5t-130 72.5l-262 94
q-165 47 -235.5 125.5t-65.5 206.5q2 73 29.5 135.5t84 115.5t156.5 83.5t234 30.5q152 0 261.5 -34t168.5 -94.5t81 -138.5t9 -172l-6 -36h-211l6 34q17 132 -61 198.5t-252 66.5q-136 0 -212.5 -51.5t-76.5 -133.5q-1 -64 40 -103.5t138 -70.5zM350 1710h152l215 -190
l293 190h168l-402 -256h-129z" />
    <glyph glyph-name="uni0162" unicode="&#x162;" horiz-adv-x="1329" 
d="M416 0l319 1505h-524l39 187h1263l-38 -187h-525l-321 -1505h-60l-59 -127q58 5 104 0t73 -35.5t22 -85.5q-7 -97 -102.5 -136.5t-311.5 -39.5l20 88q154 0 213 15t62 63q4 44 -45 53.5t-166 -4.5l94 209h-57z" />
    <glyph glyph-name="uni0163" unicode="&#x163;" horiz-adv-x="960" 
d="M1030 1331l-39 -178h-377l-159 -762q-29 -123 -7.5 -168t121.5 -45h215l-36 -178h-199l-53 -115q95 12 150 -14.5t48 -106.5q-7 -97 -102 -136.5t-311 -39.5l20 88q153 0 212 15t62 63q4 44 -44.5 53.5t-165.5 -4.5l90 199q-109 8 -164 54t-61.5 125t16.5 190l166 782
h-297l39 178h94q243 16 315 361h203q-32 -144 -92.5 -241t-132.5 -120h489z" />
    <glyph glyph-name="Tcaron" unicode="&#x164;" horiz-adv-x="1329" 
d="M416 0l319 1505h-524l39 187h1263l-38 -187h-525l-321 -1505h-213zM549 2071h151l215 -191l293 191h168l-401 -256h-129z" />
    <glyph glyph-name="tcaron" unicode="&#x165;" horiz-adv-x="960" 
d="M1030 1331l-39 -178h-377l-159 -762q-29 -123 -7.5 -168t121.5 -45h215l-36 -178h-244q-131 0 -197.5 43.5t-76 125.5t15.5 202l166 782h-297l39 178h94q243 16 315 361h203q-32 -144 -92.5 -241t-132.5 -120h489zM811 1460l174 426h152l-219 -426h-107z" />
    <glyph glyph-name="Tbar" unicode="&#x166;" horiz-adv-x="1380" 
d="M440 0l154 727h-399l24 117h399l142 661h-524l38 187h1264l-39 -187h-524l-141 -661h397l-25 -117h-397l-156 -727h-213z" />
    <glyph glyph-name="tbar" unicode="&#x167;" horiz-adv-x="985" 
d="M1051 1331l-39 -178h-377l-76 -362h371l-25 -115h-370l-60 -285q-29 -123 -7 -168t122 -45h215l-37 -178h-244q-131 0 -197.5 43.5t-76 125.5t15.5 202l66 305h-289l25 115h286l78 362h-297l39 178h94q244 16 316 361h202q-32 -144 -92.5 -241t-132.5 -120h490z" />
    <glyph glyph-name="Utilde" unicode="&#x168;" horiz-adv-x="1591" 
d="M731 -20q-355 0 -499 167t-80 471l229 1074h215l-236 -1110q-48 -219 51 -317.5t324 -98.5q101 0 171 17.5t127.5 62.5t95.5 123.5t63 199.5l238 1123h217l-238 -1117q-68 -325 -219.5 -460t-458.5 -135zM627 1827q19 107 88.5 165t177.5 58q55 0 97 -16t67 -38.5
t48.5 -45t56 -38.5t75.5 -16q68 0 109.5 37t52.5 101h102q-19 -111 -89.5 -168.5t-182.5 -57.5q-58 0 -101.5 16t-69 38.5t-49 45t-54 38.5t-70.5 16q-65 0 -105 -37.5t-51 -97.5h-102z" />
    <glyph glyph-name="utilde" unicode="&#x169;" horiz-adv-x="1361" 
d="M860 0l35 168q-156 -188 -401 -188q-223 0 -330.5 144.5t-59.5 373.5l179 833h204l-176 -819q-35 -167 35.5 -261.5t228.5 -94.5q84 0 152.5 27.5t113 75t72.5 98t45 108.5l185 866h205l-283 -1331h-205zM410 1466q19 107 88.5 165.5t177.5 58.5q55 0 97 -16t67 -38.5
t48.5 -45t56 -38.5t75.5 -16q68 0 109.5 36.5t52.5 100.5h102q-18 -111 -89 -168t-183 -57q-58 0 -101.5 16t-69 38.5t-49 45t-54 38.5t-70.5 16q-65 0 -105 -38t-51 -98h-102z" />
    <glyph glyph-name="Umacron" unicode="&#x16a;" horiz-adv-x="1591" 
d="M731 -20q-355 0 -499 167t-80 471l229 1074h215l-236 -1110q-48 -219 51 -317.5t324 -98.5q101 0 171 17.5t127.5 62.5t95.5 123.5t63 199.5l238 1123h217l-238 -1117q-68 -325 -219.5 -460t-458.5 -135zM590 1888l16 82h930l-16 -82h-930z" />
    <glyph glyph-name="umacron" unicode="&#x16b;" horiz-adv-x="1361" 
d="M860 0l35 168q-156 -188 -401 -188q-223 0 -330.5 144.5t-59.5 373.5l179 833h204l-176 -819q-35 -167 35.5 -261.5t228.5 -94.5q84 0 152.5 27.5t113 75t72.5 98t45 108.5l185 866h205l-283 -1331h-205zM375 1528l16 82h930l-16 -82h-930z" />
    <glyph glyph-name="Ubreve" unicode="&#x16c;" horiz-adv-x="1591" 
d="M731 -20q-355 0 -499 167t-80 471l229 1074h215l-236 -1110q-48 -219 51 -317.5t324 -98.5q101 0 171 17.5t127.5 62.5t95.5 123.5t63 199.5l238 1123h217l-238 -1117q-68 -325 -219.5 -460t-458.5 -135zM666 2050h100q-2 -44 20 -74t66.5 -45.5t97.5 -21.5t125 -6
q150 0 234.5 32.5t103.5 114.5h100q-31 -134 -138 -184.5t-306 -50.5q-97 0 -170 11.5t-128.5 38t-82 73t-22.5 112.5z" />
    <glyph glyph-name="ubreve" unicode="&#x16d;" horiz-adv-x="1361" 
d="M860 0l35 168q-156 -188 -401 -188q-223 0 -330.5 144.5t-59.5 373.5l179 833h204l-176 -819q-35 -167 35.5 -261.5t228.5 -94.5q84 0 152.5 27.5t113 75t72.5 98t45 108.5l185 866h205l-283 -1331h-205zM451 1690h100q-2 -44 20 -74t66.5 -45.5t97.5 -22t125 -6.5
q150 0 234.5 33t103.5 115h100q-31 -134 -138 -185t-306 -51q-97 0 -170 12t-128.5 38.5t-82 73t-22.5 112.5z" />
    <glyph glyph-name="Uring" unicode="&#x16e;" horiz-adv-x="1591" 
d="M731 -20q-355 0 -499 167t-80 471l229 1074h215l-236 -1110q-48 -219 51 -317.5t324 -98.5q101 0 171 17.5t127.5 62.5t95.5 123.5t63 199.5l238 1123h217l-238 -1117q-68 -325 -219.5 -460t-458.5 -135zM903 1950q0 71 49.5 118.5t116.5 47.5t116.5 -47.5t49.5 -118.5
t-49.5 -118.5t-116.5 -47.5t-116.5 47.5t-49.5 118.5zM989 1950q0 -37 21 -58.5t59 -21.5t59 21.5t21 58.5t-21 58.5t-59 21.5t-59 -21.5t-21 -58.5z" />
    <glyph glyph-name="uring" unicode="&#x16f;" horiz-adv-x="1361" 
d="M860 0l35 168q-156 -188 -401 -188q-223 0 -330.5 144.5t-59.5 373.5l179 833h204l-176 -819q-35 -167 35.5 -261.5t228.5 -94.5q84 0 152.5 27.5t113 75t72.5 98t45 108.5l185 866h205l-283 -1331h-205zM686 1589q0 71 49.5 118.5t116.5 47.5t116.5 -47.5t49.5 -118.5
t-49.5 -118.5t-116.5 -47.5t-116.5 47.5t-49.5 118.5zM772 1589q0 -37 21 -58.5t59 -21.5t59 21.5t21 58.5t-21 58.5t-59 21.5t-59 -21.5t-21 -58.5z" />
    <glyph glyph-name="Uhungarumlaut" unicode="&#x170;" horiz-adv-x="1591" 
d="M731 -20q-355 0 -499 167t-80 471l229 1074h215l-236 -1110q-48 -219 51 -317.5t324 -98.5q101 0 171 17.5t127.5 62.5t95.5 123.5t63 199.5l238 1123h217l-238 -1117q-68 -325 -219.5 -460t-458.5 -135zM842 1815l274 229h135l-254 -229h-155zM1104 1815l274 229h133
l-254 -229h-153z" />
    <glyph glyph-name="uhungarumlaut" unicode="&#x171;" horiz-adv-x="1361" 
d="M860 0l35 168q-156 -188 -401 -188q-223 0 -330.5 144.5t-59.5 373.5l179 833h204l-176 -819q-35 -167 35.5 -261.5t228.5 -94.5q84 0 152.5 27.5t113 75t72.5 98t45 108.5l185 866h205l-283 -1331h-205zM625 1454l274 229h135l-254 -229h-155zM887 1454l274 229h133
l-254 -229h-153z" />
    <glyph glyph-name="Uogonek" unicode="&#x172;" horiz-adv-x="1591" 
d="M731 -20q-355 0 -499 167t-80 471l229 1074h215l-236 -1110q-48 -219 51 -317.5t324 -98.5q101 0 171 17.5t127.5 62.5t95.5 123.5t63 199.5l238 1123h217l-238 -1117q-57 -266 -165.5 -402t-307.5 -175q-117 -34 -178 -79t-74 -109q-14 -64 37 -92.5t182 -28.5h21
l-103 -99h-16q-126 0 -192.5 52t-45.5 151q14 67 74 114t143 73h-53z" />
    <glyph glyph-name="uogonek" unicode="&#x173;" horiz-adv-x="1361" 
d="M860 0l35 168q-156 -188 -401 -188q-223 0 -330.5 144.5t-59.5 373.5l179 833h204l-176 -819q-35 -167 35.5 -261.5t228.5 -94.5q84 0 152.5 27.5t113 75t72.5 98t45 108.5l185 866h205l-283 -1331q-122 -34 -185.5 -79.5t-76.5 -110.5q-14 -64 37 -92.5t182 -28.5h20
l-102 -99h-16q-126 0 -192.5 52t-45.5 151q33 148 287 207h-113z" />
    <glyph glyph-name="Wcircumflex" unicode="&#x174;" horiz-adv-x="2273" 
d="M338 0l-86 1692h217l59 -1438l680 1438h273l67 -1442l672 1442h223l-803 -1692h-276l-68 1417l-2 17l-6 -17l-676 -1417h-274zM987 1823l361 256h129l256 -256h-142l-182 182l-254 -182h-168z" />
    <glyph glyph-name="wcircumflex" unicode="&#x175;" horiz-adv-x="1908" 
d="M733 1462l361 256h129l256 -256h-142l-182 183l-254 -183h-168zM178 1331h205l37 -1145l532 1145h277l47 -1145l524 1145h209l-633 -1331h-262l-55 1169l-553 -1169h-260z" />
    <glyph glyph-name="Ycircumflex" unicode="&#x176;" horiz-adv-x="1435" 
d="M465 0l129 592l-367 1100h230l284 -877l650 877h249l-833 -1100l-129 -592h-213zM573 1823l361 256h129l256 -256h-141l-183 182l-254 -182h-168z" />
    <glyph glyph-name="ycircumflex" unicode="&#x177;" horiz-adv-x="1359" 
d="M862 14l33 156q-153 -190 -403 -190q-223 0 -330.5 144.5t-59.5 373.5l179 833h204l-176 -819q-35 -167 35.5 -261.5t228.5 -94.5q72 0 133.5 21.5t103.5 55.5t74.5 80t51 90t29.5 91l178 837h205l-289 -1358q-35 -164 -88.5 -256.5t-144 -136t-234.5 -43.5h-651l39 178
h577q139 0 205 66t100 233zM461 1462l360 256h129l256 -256h-141l-182 183l-254 -183h-168z" />
    <glyph glyph-name="Ydieresis" unicode="&#x178;" horiz-adv-x="1435" 
d="M465 0l129 592l-367 1100h230l284 -877l650 877h249l-833 -1100l-129 -592h-213zM629 1929q11 52 50.5 80.5t88.5 28.5q47 0 74 -29t16 -80q-10 -49 -50 -78.5t-87 -29.5q-49 0 -75.5 29t-16.5 79zM1110 1929q11 52 50.5 80.5t88.5 28.5q47 0 74 -29t16 -80
q-10 -49 -50 -78.5t-87 -29.5q-48 0 -75 29.5t-17 78.5z" />
    <glyph glyph-name="Zacute" unicode="&#x179;" horiz-adv-x="1339" 
d="M-61 0l36 188l1205 1317h-922l39 187h1182l-37 -189l-1204 -1317h921l-41 -186h-1179zM512 1907l840 151l12 -80l-838 -149z" />
    <glyph glyph-name="zacute" unicode="&#x17a;" horiz-adv-x="1181" 
d="M219 1331h1028l-35 -178l-993 -975h793l-39 -178h-1047l37 178l993 975h-774zM356 1546l840 152l12 -80l-837 -150z" />
    <glyph glyph-name="Zdotaccent" unicode="&#x17b;" horiz-adv-x="1339" 
d="M-61 0l36 188l1205 1317h-922l39 187h1182l-37 -189l-1204 -1317h921l-41 -186h-1179zM815 1929q3 48 39.5 81.5t95.5 33.5q57 0 87.5 -33t25.5 -84q-5 -44 -41 -76t-94 -32t-88 31t-25 79z" />
    <glyph glyph-name="zdotaccent" unicode="&#x17c;" horiz-adv-x="1181" 
d="M219 1331h1028l-35 -178l-993 -975h793l-39 -178h-1047l37 178l993 975h-774zM651 1599q9 49 53 81t109 32q66 0 95.5 -33.5t17.5 -89.5q-9 -46 -53 -78t-109 -32q-66 0 -95 33t-18 87z" />
    <glyph glyph-name="Zcaron" unicode="&#x17d;" horiz-adv-x="1339" 
d="M-61 0l36 188l1205 1317h-922l39 187h1182l-37 -189l-1204 -1317h921l-41 -186h-1179zM555 2071h152l215 -191l292 191h168l-401 -256h-129z" />
    <glyph glyph-name="zcaron" unicode="&#x17e;" horiz-adv-x="1181" 
d="M219 1331h1028l-35 -178l-993 -975h793l-39 -178h-1047l37 178l993 975h-774zM399 1710h152l215 -190l293 190h168l-402 -256h-129z" />
    <glyph glyph-name="uni0218" unicode="&#x218;" horiz-adv-x="1415" 
d="M686 -20q-335 0 -492.5 143t-125.5 426l10 61h219l-14 -84q-22 -186 75 -273t332 -87q188 0 271.5 65.5t93.5 221.5q3 42 -2.5 77.5t-14.5 61t-28.5 48.5t-36.5 38t-47 31t-52 25.5t-59 23.5l-203 86q-50 20 -82.5 34.5t-76 38.5t-71 46.5t-57 55.5t-45 70t-24.5 86.5
t-6 106.5q12 207 152.5 318.5t414.5 111.5q314 0 461 -133t117 -381l-9 -53h-219l11 63q21 168 -68 244t-295 76q-178 0 -257.5 -58.5t-88.5 -185.5q-2 -35 4.5 -66t16.5 -53.5t32 -43.5t38.5 -34t47 -28.5t47.5 -22.5t50 -20l198 -86q53 -21 84 -34t77 -37.5t73.5 -47.5
t58.5 -59t47 -77t25.5 -96.5t5.5 -121.5q-14 -240 -155 -358.5t-433 -118.5zM506 -434l18 84q109 39 150 119q-36 -33 -76 -33q-34 0 -53 25.5t-10 66.5q9 42 43 71t79 29q47 0 68 -31t8 -92q-14 -70 -72 -133t-155 -106z" />
    <glyph glyph-name="uni0219" unicode="&#x219;" horiz-adv-x="1259" 
d="M844 717q150 -49 213.5 -127t58.5 -203q-2 -69 -20.5 -128t-59 -111.5t-100 -89t-149.5 -57.5t-203 -21q-160 0 -275.5 34.5t-179 98.5t-87 147.5t-9.5 188.5l8 45h211l-10 -52q-18 -140 67 -213t281 -73q160 0 236.5 60.5t78.5 156.5q2 71 -38 115.5t-130 72.5l-262 94
q-165 47 -235.5 125.5t-65.5 206.5q2 73 29.5 135.5t84 115.5t156.5 83.5t234 30.5q152 0 261.5 -34t168.5 -94.5t81 -138.5t9 -172l-6 -36h-211l6 34q17 132 -61 198.5t-252 66.5q-136 0 -212.5 -51.5t-76.5 -133.5q-1 -64 40 -103.5t138 -70.5zM424 -434l18 84
q109 39 150 119q-36 -33 -76 -33q-34 0 -53 25.5t-10 66.5q9 42 43 71t79 29q47 0 68 -31t8 -92q-14 -70 -72 -133t-155 -106z" />
    <glyph glyph-name="uni021A" unicode="&#x21a;" horiz-adv-x="1329" 
d="M416 0l319 1505h-524l39 187h1263l-38 -187h-525l-321 -1505h-213zM360 -434l19 84q108 39 149 119q-36 -33 -75 -33q-34 0 -53.5 25.5t-10.5 66.5q9 42 43.5 71t79.5 29q47 0 68 -31t8 -92q-14 -70 -72.5 -133t-155.5 -106z" />
    <glyph glyph-name="uni021B" unicode="&#x21b;" horiz-adv-x="960" 
d="M1030 1331l-39 -178h-377l-159 -762q-29 -123 -7.5 -168t121.5 -45h215l-36 -178h-244q-131 0 -197.5 43.5t-76 125.5t15.5 202l166 782h-297l39 178h94q243 16 315 361h203q-32 -144 -92.5 -241t-132.5 -120h489zM346 -422l19 84q108 39 149 119q-36 -33 -76 -33
q-34 0 -53 25.5t-10 66.5q9 42 43.5 71.5t79.5 29.5q47 0 67.5 -31t7.5 -92q-14 -70 -72 -133.5t-155 -106.5z" />
    <glyph glyph-name="uni0237" unicode="&#x237;" horiz-adv-x="518" 
d="M12 -10l287 1341h205l-297 -1390q-34 -161 -82 -245.5t-129 -121.5t-221 -37h-221l38 178h138q75 0 118.5 10t76 42.5t50 82t37.5 140.5z" />
    <glyph glyph-name="circumflex" unicode="&#x2c6;" horiz-adv-x="1155" 
d="M375 1462l360 256h129l256 -256h-141l-182 183l-254 -183h-168z" />
    <glyph glyph-name="caron" unicode="&#x2c7;" horiz-adv-x="1239" 
d="M725 1454l-297 256h152l215 -190l292 190h168l-401 -256h-129z" />
    <glyph glyph-name="breve" unicode="&#x2d8;" horiz-adv-x="1257" 
d="M827 1454q-97 0 -170 12t-128.5 38.5t-82 73t-22.5 112.5h100q-2 -44 20 -74t67 -45.5t98 -22t125 -6.5q149 0 233.5 33t103.5 115h101q-31 -134 -138.5 -185t-306.5 -51z" />
    <glyph glyph-name="dotaccent" unicode="&#x2d9;" horiz-adv-x="688" 
d="M516 1479q-66 0 -95 33t-18 87q9 49 53 81t109 32q66 0 95.5 -33.5t17.5 -89.5q-9 -46 -53 -78t-109 -32z" />
    <glyph glyph-name="ring" unicode="&#x2da;" horiz-adv-x="749" 
d="M571 1423q-67 0 -116 47.5t-49 118.5t49 118.5t116 47.5t116.5 -47.5t49.5 -118.5t-49.5 -118.5t-116.5 -47.5zM492 1589q0 -37 20.5 -58.5t58.5 -21.5t59 21.5t21 58.5t-21 58.5t-59 21.5t-58.5 -21.5t-20.5 -58.5z" />
    <glyph glyph-name="ogonek" unicode="&#x2db;" horiz-adv-x="780" 
d="M260 -410q-125 0 -191.5 52t-45.5 151q13 57 61.5 101.5t103 67.5t121.5 38h92q-122 -34 -185.5 -79.5t-76.5 -110.5q-14 -64 37 -92.5t182 -28.5h21l-103 -99h-16z" />
    <glyph glyph-name="tilde" unicode="&#x2dc;" horiz-adv-x="1241" 
d="M375 1466q19 107 88.5 165.5t177.5 58.5q55 0 97 -16t67 -38.5t48.5 -45t56 -38.5t75.5 -16q68 0 109.5 36.5t52.5 100.5h102q-18 -111 -89 -168t-183 -57q-58 0 -101.5 16t-69 38.5t-49 45t-54 38.5t-70.5 16q-65 0 -105 -38t-51 -98h-102z" />
    <glyph glyph-name="hungarumlaut" unicode="&#x2dd;" horiz-adv-x="1030" 
d="M788 1454h-153l274 229h133zM373 1454l274 229h135l-254 -229h-155z" />
    <glyph glyph-name="uni1E20" unicode="&#x1e20;" horiz-adv-x="1634" 
d="M725 -20q-233 0 -385 111.5t-202 298.5t-1 421l60 281q28 133 86 242.5t149 195.5t224 134t296 48q204 0 355 -76.5t224.5 -217t51.5 -322.5l-16 -78h-219l18 98q24 192 -93.5 300t-326.5 108q-223 0 -355.5 -116.5t-172.5 -315.5l-68 -314q-19 -104 -19 -195.5
t28.5 -168t78 -131t130 -85t184.5 -30.5q393 0 516 414l20 92h-571l39 176h790l-180 -850h-137l35 244q-191 -264 -539 -264zM545 1888l16 82h930l-16 -82h-930z" />
    <glyph glyph-name="uni1E21" unicode="&#x1e21;" horiz-adv-x="1384" 
d="M887 14l33 152q-64 -85 -161 -135.5t-222 -50.5q-167 0 -285 80.5t-163 226t-5 327.5l49 234q48 236 187.5 370t351.5 134q161 0 277.5 -73.5t162.5 -203.5l55 256h205l-287 -1349q-27 -122 -60 -202t-85.5 -137t-126.5 -81.5t-180 -24.5h-713l39 178h619q144 0 208.5 65
t100.5 234zM291 604q-43 -201 39 -323.5t262 -122.5q158 0 263.5 104t141.5 279l41 196q42 196 -41.5 316.5t-275.5 120.5q-152 0 -251.5 -96t-133.5 -265zM373 1528l16 82h930l-16 -82h-930z" />
    <glyph glyph-name="Wgrave" unicode="&#x1e80;" horiz-adv-x="2273" 
d="M338 0l-86 1692h217l59 -1438l680 1438h273l67 -1442l672 1442h223l-803 -1692h-276l-68 1417l-2 17l-6 -17l-676 -1417h-274zM942 1964l37 80l879 -152l-39 -80z" />
    <glyph glyph-name="wgrave" unicode="&#x1e81;" horiz-adv-x="1908" 
d="M1604 1532l-39 -80l-877 152l37 79zM178 1331h205l37 -1145l532 1145h277l47 -1145l524 1145h209l-633 -1331h-262l-55 1169l-553 -1169h-260z" />
    <glyph glyph-name="Wacute" unicode="&#x1e82;" horiz-adv-x="2273" 
d="M338 0l-86 1692h217l59 -1438l680 1438h273l67 -1442l672 1442h223l-803 -1692h-276l-68 1417l-2 17l-6 -17l-676 -1417h-274zM971 1907l839 151l13 -80l-838 -149z" />
    <glyph glyph-name="wacute" unicode="&#x1e83;" horiz-adv-x="1908" 
d="M731 1468l-14 78l839 152l13 -80zM178 1331h205l37 -1145l532 1145h277l47 -1145l524 1145h209l-633 -1331h-262l-55 1169l-553 -1169h-260z" />
    <glyph glyph-name="Wdieresis" unicode="&#x1e84;" horiz-adv-x="2273" 
d="M338 0l-86 1692h217l59 -1438l680 1438h273l67 -1442l672 1442h223l-803 -1692h-276l-68 1417l-2 17l-6 -17l-676 -1417h-274zM1042 1929q11 52 51 80.5t89 28.5q47 0 74 -29t16 -80q-10 -49 -50 -78.5t-87 -29.5q-49 0 -76 29.5t-17 78.5zM1524 1929q11 52 50.5 80.5
t88.5 28.5q47 0 74 -29t16 -80q-10 -49 -50 -78.5t-87 -29.5q-48 0 -75 29.5t-17 78.5z" />
    <glyph glyph-name="wdieresis" unicode="&#x1e85;" horiz-adv-x="1908" 
d="M1362 1460q-48 0 -75 30t-17 79q11 51 50.5 79.5t88.5 28.5q47 0 74 -28.5t16 -79.5q-10 -49 -50 -79t-87 -30zM178 1331h205l37 -1145l532 1145h277l47 -1145l524 1145h209l-633 -1331h-262l-55 1169l-553 -1169h-260zM788 1569q11 51 51 79.5t89 28.5q47 0 74 -28.5
t16 -79.5q-10 -49 -50 -79t-87 -30q-49 0 -76 29.5t-17 79.5z" />
    <glyph glyph-name="uni1E9E" unicode="&#x1e9e;" horiz-adv-x="1433" 
d="M293 1253q50 231 189 335t403 104h616q-47 -205 -94 -342.5t-99.5 -217t-104.5 -117t-120 -54.5q128 -41 185 -161.5t18 -297.5l-12 -56q-21 -102 -59.5 -179.5t-90 -128t-120.5 -81.5t-143.5 -44t-166.5 -13h-336l37 176h244q82 0 137 6t107.5 23.5t86 50.5t60 86.5
t41.5 130.5l14 72q19 65 11 123t-37.5 102t-101.5 70t-179 26l-227 2l37 174h207q70 1 119 8t94 26.5t77.5 51.5t64 86.5t58.5 126.5t56 175h-381q-175 0 -265 -58t-122 -213l-267 -1245h-204z" />
    <glyph glyph-name="uni1EBC" unicode="&#x1ebc;" horiz-adv-x="1359" 
d="M35 0l360 1692h1071l-39 -187h-856l-120 -565h811l-39 -188h-813l-121 -566h858l-41 -186h-1071zM532 1827q19 107 89 165t178 58q55 0 97 -16t67 -38.5t48.5 -45t56 -38.5t75.5 -16q68 0 109.5 37t52.5 101h102q-19 -111 -89.5 -168.5t-182.5 -57.5q-58 0 -101.5 16
t-69 38.5t-49 45t-54 38.5t-70.5 16q-65 0 -105 -37.5t-51 -97.5h-103z" />
    <glyph glyph-name="uni1EBD" unicode="&#x1ebd;" horiz-adv-x="1310" 
d="M344 1466q19 107 88.5 165.5t177.5 58.5q55 0 97 -16t67 -38.5t48.5 -45t56 -38.5t75.5 -16q68 0 109.5 36.5t52.5 100.5h103q-18 -111 -89.5 -168t-183.5 -57q-58 0 -101.5 16t-69 38.5t-49 45t-54 38.5t-70.5 16q-65 0 -105 -38t-51 -98h-102zM88 647l37 178
q19 86 50 160.5t82.5 143t117.5 117t159.5 77.5t204.5 29q119 0 212.5 -29t154 -82.5t97 -128.5t41.5 -166t-13 -196l-27 -125h-909l-4 -19q-45 -209 42 -328.5t279 -119.5q265 0 342 237l13 49h211l-11 -34q-125 -430 -563 -430q-195 0 -327 83t-181.5 234.5t-7.5 349.5z
M330 782h692l14 70q18 163 -62 242.5t-233 79.5q-93 0 -166 -29.5t-120 -82.5t-75.5 -113.5t-43.5 -133.5z" />
    <glyph glyph-name="Ygrave" unicode="&#x1ef2;" horiz-adv-x="1435" 
d="M465 0l129 592l-367 1100h230l284 -877l650 877h249l-833 -1100l-129 -592h-213zM528 1964l37 80l879 -152l-39 -80z" />
    <glyph glyph-name="ygrave" unicode="&#x1ef3;" horiz-adv-x="1359" 
d="M862 14l33 156q-153 -190 -403 -190q-223 0 -330.5 144.5t-59.5 373.5l179 833h204l-176 -819q-35 -167 35.5 -261.5t228.5 -94.5q72 0 133.5 21.5t103.5 55.5t74.5 80t51 90t29.5 91l178 837h205l-289 -1358q-35 -164 -88.5 -256.5t-144 -136t-234.5 -43.5h-651l39 178
h577q139 0 205 66t100 233zM416 1604l37 79l878 -151l-39 -80z" />
    <glyph glyph-name="uni1EF8" unicode="&#x1ef8;" horiz-adv-x="1435" 
d="M465 0l129 592l-367 1100h230l284 -877l650 877h249l-833 -1100l-129 -592h-213zM547 1827q19 107 88.5 165t177.5 58q55 0 97 -16t67 -38.5t48.5 -45t56 -38.5t75.5 -16q68 0 109.5 37t52.5 101h102q-19 -111 -89.5 -168.5t-182.5 -57.5q-58 0 -101.5 16t-69 38.5
t-49 45t-54 38.5t-70.5 16q-65 0 -105 -37.5t-51 -97.5h-102z" />
    <glyph glyph-name="uni1EF9" unicode="&#x1ef9;" horiz-adv-x="1359" 
d="M862 14l33 156q-153 -190 -403 -190q-223 0 -330.5 144.5t-59.5 373.5l179 833h204l-176 -819q-35 -167 35.5 -261.5t228.5 -94.5q72 0 133.5 21.5t103.5 55.5t74.5 80t51 90t29.5 91l178 837h205l-289 -1358q-35 -164 -88.5 -256.5t-144 -136t-234.5 -43.5h-651l39 178
h577q139 0 205 66t100 233zM436 1466q19 107 88.5 165.5t177.5 58.5q55 0 97 -16t67.5 -38.5t49 -45t56 -38.5t75.5 -16q68 0 109 36.5t52 100.5h103q-18 -111 -89.5 -168t-183.5 -57q-58 0 -101.5 16t-69 38.5t-49 45t-54 38.5t-70.5 16q-64 0 -104 -38t-51 -98h-103z" />
    <glyph glyph-name="uni2000" unicode="&#x2000;" horiz-adv-x="1024" 
 />
    <glyph glyph-name="uni2001" unicode="&#x2001;" horiz-adv-x="2048" 
 />
    <glyph glyph-name="uni2002" unicode="&#x2002;" horiz-adv-x="1024" 
 />
    <glyph glyph-name="uni2003" unicode="&#x2003;" horiz-adv-x="2048" 
 />
    <glyph glyph-name="uni2004" unicode="&#x2004;" horiz-adv-x="681" 
 />
    <glyph glyph-name="uni2005" unicode="&#x2005;" horiz-adv-x="512" 
 />
    <glyph glyph-name="uni2006" unicode="&#x2006;" horiz-adv-x="342" 
 />
    <glyph glyph-name="uni2007" unicode="&#x2007;" 
 />
    <glyph glyph-name="uni2008" unicode="&#x2008;" horiz-adv-x="479" 
 />
    <glyph glyph-name="uni2009" unicode="&#x2009;" horiz-adv-x="256" 
 />
    <glyph glyph-name="uni200A" unicode="&#x200a;" horiz-adv-x="86" 
 />
    <glyph glyph-name="uni200B" unicode="&#x200b;" horiz-adv-x="0" 
 />
    <glyph glyph-name="endash" unicode="&#x2013;" horiz-adv-x="1759" 
d="M104 721h1573l-16 -86h-1573z" />
    <glyph glyph-name="emdash" unicode="&#x2014;" horiz-adv-x="2897" 
d="M106 721h2714l-20 -88h-2714z" />
    <glyph glyph-name="quoteleft" unicode="&#x2018;" horiz-adv-x="401" 
d="M330 1200h-129l233 512h109z" />
    <glyph glyph-name="quoteright" unicode="&#x2019;" horiz-adv-x="397" 
d="M420 1712h129l-234 -512h-108z" />
    <glyph glyph-name="quotesinglbase" unicode="&#x201a;" horiz-adv-x="395" 
d="M78 268h129l-234 -512h-108z" />
    <glyph glyph-name="quotedblleft" unicode="&#x201c;" horiz-adv-x="626" 
d="M557 1200h-129l234 512h108zM201 1200l233 512h109l-213 -512h-129z" />
    <glyph glyph-name="quotedblright" unicode="&#x201d;" horiz-adv-x="624" 
d="M420 1712h129l-234 -512h-108zM434 1200l213 512h129l-233 -512h-109z" />
    <glyph glyph-name="quotedblbase" unicode="&#x201e;" horiz-adv-x="622" 
d="M78 268h129l-234 -512h-108zM90 -244l213 512h129l-233 -512h-109z" />
    <glyph glyph-name="dagger" unicode="&#x2020;" horiz-adv-x="561" 
d="M221 655l133 625h-116l18 94h119l67 318h103l-68 -318h115l-19 -94h-116l-133 -625h-103z" />
    <glyph glyph-name="daggerdbl" unicode="&#x2021;" horiz-adv-x="604" 
d="M248 655l63 295h-116l20 97h117l49 233h-117l21 94h116l68 318h102l-67 -318h117l-21 -94h-117l-49 -233h117l-21 -97h-116l-64 -295h-102z" />
    <glyph glyph-name="bullet" unicode="&#x2022;" horiz-adv-x="827" 
d="M373 467q-103 0 -159 67.5t-30 176.5q23 105 105 170t186 65q100 0 154.5 -68t29.5 -180q-21 -101 -103 -166t-183 -65z" />
    <glyph glyph-name="ellipsis" unicode="&#x2026;" horiz-adv-x="1273" 
d="M100 -20q-60 0 -92.5 39.5t-17.5 103.5q13 61 61 99t109 38q59 0 91 -39.5t17 -105.5q-12 -59 -60.5 -97t-107.5 -38zM391 123q13 61 61 99t109 38q59 0 91.5 -40t17.5 -105q-12 -59 -60.5 -97t-107.5 -38q-60 0 -93 39.5t-18 103.5zM784 123q13 61 61 99t109 38
q59 0 91.5 -40t17.5 -105q-12 -59 -60.5 -97t-107.5 -38q-60 0 -93 39.5t-18 103.5z" />
    <glyph glyph-name="uni202F" unicode="&#x202f;" horiz-adv-x="471" 
 />
    <glyph glyph-name="perthousand" unicode="&#x2030;" horiz-adv-x="2568" 
d="M2042 -20q-110 0 -182 55.5t-95.5 139.5t-3.5 177q32 149 144 254t276 105q110 0 181.5 -55t94.5 -138t3 -176q-32 -149 -144 -255.5t-274 -106.5zM170 0l1380 1692h129l-1380 -1692h-129zM197 1354q14 70 48.5 133t86 114t124.5 81t156 30q110 0 182 -55t95.5 -138.5
t3.5 -177.5q-32 -148 -143.5 -254t-274.5 -106q-67 0 -121 21.5t-87 57.5t-54.5 84t-23.5 101.5t8 108.5zM362 1346q-20 -94 17 -151.5t121 -57.5q83 0 145 57.5t82 151.5q20 96 -16.5 153t-120.5 57t-146 -57t-82 -153zM961 352q32 149 143.5 254t275.5 105
q110 0 181.5 -55t94.5 -138t3 -176q-32 -149 -144 -255.5t-274 -106.5q-67 0 -121 21t-87.5 57.5t-55.5 84t-24 101t8 108.5zM1128 346q-20 -95 17 -153t121 -58t145 58t80 153q20 95 -16.5 152t-120.5 57q-83 0 -144.5 -57.5t-81.5 -151.5zM1929 346q-20 -95 16.5 -153
t120.5 -58t145.5 58t80.5 153q20 94 -17 151.5t-121 57.5q-83 0 -144 -57.5t-81 -151.5z" />
    <glyph glyph-name="second" unicode="&#x2033;" horiz-adv-x="618" 
d="M342 1692h129l-111 -512h-129zM469 1180l111 512h129l-111 -512h-129z" />
    <glyph glyph-name="guilsinglleft" unicode="&#x2039;" horiz-adv-x="712" 
d="M483 299l-389 375l17 82l538 297l-35 -140l-399 -208l297 -273z" />
    <glyph glyph-name="guilsinglright" unicode="&#x203a;" horiz-adv-x="712" 
d="M68 297l34 139l400 209l-297 273l28 135l390 -377l-17 -82z" />
    <glyph glyph-name="fraction" unicode="&#x2044;" horiz-adv-x="217" 
d="M872 1692l-1361 -1692h-111l1364 1692h108z" />
    <glyph glyph-name="uni205F" unicode="&#x205f;" horiz-adv-x="454" 
 />
    <glyph glyph-name="uni2070" unicode="&#x2070;" horiz-adv-x="802" 
d="M455 707q-180 0 -257 108.5t-38 292.5l28 137q67 328 361 328q178 0 255.5 -107.5t39.5 -294.5l-29 -139q-66 -325 -360 -325zM285 971l401 428q-44 53 -137 53t-146 -52.5t-75 -160.5l-33 -156q-13 -57 -10 -112zM315 881q45 -54 140 -54q91 0 143.5 50t77.5 163l33 156
q13 65 10 111z" />
    <glyph glyph-name="uni2074" unicode="&#x2074;" horiz-adv-x="751" 
d="M797 1563l-121 -566h100l-26 -120h-99l-35 -160h-137l35 160h-430l25 124l553 562h135zM244 997h295l79 379z" />
    <glyph glyph-name="uni2075" unicode="&#x2075;" horiz-adv-x="761" 
d="M510 1284q148 0 221 -79t45 -208l-10 -47q-26 -121 -104 -182t-222 -61q-160 0 -243 70.5t-68 191.5l2 14h139l-4 -20q-4 -67 42 -101.5t134 -34.5q159 0 185 129l12 54q15 76 -27.5 113.5t-140.5 37.5q-64 0 -103 -21t-79 -73h-135l135 496h571l-26 -119h-445l-63 -221
q73 61 184 61z" />
    <glyph glyph-name="uni2076" unicode="&#x2076;" horiz-adv-x="788" 
d="M453 707q-180 0 -256 83.5t-43 237.5l55 268q30 145 107.5 211t236.5 66q157 0 228.5 -62.5t62.5 -183.5h-139v2q5 62 -31 90.5t-119 28.5q-93 0 -140.5 -35.5t-64.5 -118.5l-14 -73q72 69 203 69q140 0 213 -78.5t47 -205.5l-11 -54q-26 -122 -105 -183.5t-230 -61.5z
M285 983q-16 -73 23 -114.5t147 -41.5q168 0 192 129l12 54q16 79 -21 119t-142 40q-172 0 -201 -133z" />
    <glyph glyph-name="uni2077" unicode="&#x2077;" horiz-adv-x="665" 
d="M184 1444l25 119h612l-24 -121q-89 -62 -158.5 -135t-113.5 -139.5t-78 -149t-52 -145.5t-37 -148l-2 -8h-139l4 12q17 83 35.5 151t52 150.5t76.5 150t109.5 137.5t148.5 126h-459z" />
    <glyph glyph-name="uni2078" unicode="&#x2078;" horiz-adv-x="778" 
d="M436 707q-178 0 -255.5 69t-53.5 191l2 12q35 163 193 190q-55 18 -82 68.5t-13 124.5l2 10q21 100 96.5 150.5t217.5 50.5q165 0 242 -65t55 -173l-2 -10q-14 -68 -58 -108.5t-106 -53.5q62 -21 90 -80.5t8 -146.5l-2 -12q-24 -111 -103.5 -164t-230.5 -53zM264 956
q-14 -69 27 -102t143 -33q92 0 138.5 26t58.5 89l8 35q12 68 -26.5 99.5t-147.5 31.5q-171 0 -193 -111zM362 1333q-11 -57 26.5 -84.5t133.5 -27.5q79 0 121 22.5t51 75.5l6 27q11 57 -25.5 84.5t-133.5 27.5q-80 0 -121 -22t-53 -76z" />
    <glyph glyph-name="uni2079" unicode="&#x2079;" horiz-adv-x="788" 
d="M537 1573q179 0 254.5 -84t42.5 -238l-56 -268q-29 -145 -105 -210.5t-237 -65.5q-155 0 -228.5 61.5t-62.5 183.5h140l-2 -2q-4 -63 31.5 -91t119.5 -28q92 0 139 35.5t66 118.5l14 74q-76 -70 -202 -70q-143 0 -215.5 80.5t-45.5 204.5l11 53q24 121 103 183.5
t233 62.5zM330 1270q-16 -79 22.5 -119.5t141.5 -40.5q170 0 198 133l13 53q15 77 -25.5 116.5t-144.5 39.5q-169 0 -195 -129z" />
    <glyph glyph-name="uni2080" unicode="&#x2080;" horiz-adv-x="802" 
d="M248 -266q-180 0 -257 108.5t-38 292.5l29 137q67 328 360 328q178 0 255.5 -107t39.5 -294l-29 -140q-66 -325 -360 -325zM78 -2l401 428q-44 53 -137 53t-146 -52.5t-75 -160.5l-33 -155q-13 -57 -10 -113zM109 -92q44 -53 139 -53q91 0 143.5 50t77.5 163l33 155
q13 65 10 111z" />
    <glyph glyph-name="uni2081" unicode="&#x2081;" horiz-adv-x="612" 
d="M-102 -137h194l125 573q-45 -32 -94.5 -45.5t-124.5 -13.5l25 125q132 0 231 88h129l-156 -727h199l-27 -119h-528z" />
    <glyph glyph-name="uni2082" unicode="&#x2082;" horiz-adv-x="778" 
d="M-100 -129q17 83 49 140t95 101t159 66l125 35q84 19 127.5 47.5t54.5 83.5l2 12q13 63 -27.5 94t-130.5 31q-100 0 -147.5 -37.5t-61.5 -119.5l-6 -25h-141l6 23q27 139 110.5 208.5t241.5 69.5q160 0 239.5 -74t53.5 -198q-19 -91 -79.5 -145t-178.5 -83l-141 -39
q-113 -27 -151.5 -68.5t-57.5 -129.5h506l-27 -119h-647z" />
    <glyph glyph-name="uni2083" unicode="&#x2083;" horiz-adv-x="765" 
d="M213 -266q-174 0 -243.5 64t-57.5 200l2 16h141l-6 -22q-6 -81 31.5 -112.5t132.5 -31.5t138 26t57 87l6 29q15 69 -22.5 100t-129.5 31h-112l26 110h109q85 0 132 22.5t60 80.5l4 24q14 65 -24.5 96t-132.5 31q-170 0 -191 -137l-4 -18h-139l4 16q39 254 336 254
q170 0 241.5 -72t46.5 -186l-2 -6q-11 -60 -53.5 -103.5t-109.5 -58.5q63 -23 88 -81t8 -138v-6q-24 -108 -102.5 -161.5t-233.5 -53.5z" />
    <glyph glyph-name="uni2084" unicode="&#x2084;" horiz-adv-x="751" 
d="M590 590l-121 -565h100l-26 -121h-99l-34 -160h-138l35 160h-430l25 125l553 561h135zM37 25h295l80 378z" />
    <glyph glyph-name="uni2085" unicode="&#x2085;" horiz-adv-x="763" 
d="M305 311q148 0 221 -78.5t45 -207.5l-10 -48q-26 -121 -103.5 -182t-221.5 -61q-160 0 -243.5 70.5t-68.5 191.5l2 14h140l-5 -20q-4 -66 42.5 -100.5t134.5 -34.5q81 0 125.5 31.5t58.5 97.5l12 53q15 76 -27.5 113.5t-140.5 37.5q-64 0 -103 -21t-79 -73h-135l135 496
h571l-26 -119h-445l-63 -221q73 61 184 61z" />
    <glyph glyph-name="uni2086" unicode="&#x2086;" horiz-adv-x="786" 
d="M246 -266q-180 0 -256 83.5t-43 237.5l55 269q30 145 107.5 210.5t236.5 65.5q157 0 228.5 -62.5t62.5 -183.5h-139v2q5 62 -31 90.5t-119 28.5q-93 0 -140.5 -35t-64.5 -118l-14 -74q72 69 203 69q140 0 213 -78.5t47 -205.5l-10 -53q-26 -122 -105.5 -184t-230.5 -62z
M78 10q-16 -73 23 -114t147 -41q168 0 192 129l13 53q16 79 -21.5 119.5t-142.5 40.5q-172 0 -201 -134z" />
    <glyph glyph-name="uni2087" unicode="&#x2087;" horiz-adv-x="661" 
d="M-25 471l25 119h612l-24 -121q-89 -62 -158.5 -135t-113 -139t-78 -149t-52 -146t-36.5 -148l-3 -8h-139l4 12q17 83 35.5 151t52 150.5t76.5 150t109.5 137.5t148.5 126h-459z" />
    <glyph glyph-name="uni2088" unicode="&#x2088;" horiz-adv-x="778" 
d="M229 -266q-178 0 -255.5 69t-53.5 191l2 12q35 164 193 191q-55 18 -82 68t-13 124l3 10q21 101 96 151t217 50q165 0 242 -65t55 -173l-2 -10q-14 -68 -58 -108.5t-106 -53.5q62 -21 90 -80.5t8 -146.5l-2 -12q-24 -111 -103.5 -164t-230.5 -53zM57 -16q-14 -70 27 -103
t143 -33q92 0 138.5 26t58.5 89l8 35q12 68 -26.5 99.5t-147.5 31.5q-170 0 -192 -111zM156 360q-11 -57 26 -84.5t133 -27.5q79 0 121 22.5t51 75.5l7 27q11 57 -26 84.5t-134 27.5q-80 0 -121 -22t-53 -76z" />
    <glyph glyph-name="uni2089" unicode="&#x2089;" horiz-adv-x="788" 
d="M330 600q179 0 254.5 -83.5t42.5 -237.5l-56 -269q-29 -145 -105 -210.5t-237 -65.5q-311 0 -290 246h139l-2 -3q-4 -63 31.5 -90.5t119.5 -27.5q92 0 139 35t66 118l14 74q-76 -70 -202 -70q-143 0 -215 80.5t-45 204.5l10 53q24 121 103 183.5t233 62.5zM123 297
q-16 -79 22.5 -119.5t141.5 -40.5q170 0 198 133l13 54q15 77 -25.5 116t-144.5 39q-169 0 -195 -129z" />
    <glyph glyph-name="Euro" unicode="&#x20ac;" horiz-adv-x="1669" 
d="M127 711l18 84h150v4l20 94h-159l18 84h158l22 104q23 103 58.5 191.5t94.5 171t135.5 140.5t184.5 93t238 35q285 0 438 -166.5t121 -460.5l-18 -102h-220l23 119q21 213 -74 317.5t-272 104.5q-110 0 -197 -36t-144 -101t-93 -142.5t-56 -173.5l-20 -94h580l-19 -84
h-577l-21 -98h588l-19 -84h-585q-39 -241 58 -392t308 -151q182 0 294.5 107.5t156.5 304.5l26 125h222l-23 -107q-64 -294 -233 -456t-451 -162q-204 0 -345 92.5t-200 258t-32 380.5h-154z" />
    <glyph glyph-name="trademark" unicode="&#x2122;" horiz-adv-x="1550" 
d="M700 874l172 818h164l80 -609l340 609h158l-172 -818h-135l114 547l-301 -547h-96l-74 543l-114 -543h-136zM238 1554l28 138h557l-28 -138h-209l-146 -680h-137l146 680h-211z" />
    <glyph glyph-name="oneeighth" unicode="&#x215b;" horiz-adv-x="1988" 
d="M147 965h195l125 573q-45 -32 -94.5 -45.5t-124.5 -13.5l24 125q133 0 232 88h129l-156 -727h199l-27 -119h-528zM227 0l1364 1692h109l-1362 -1692h-111zM1190 250l2 12q35 164 192 191q-55 18 -81.5 68t-12.5 124l2 10q21 100 96.5 150.5t217.5 50.5q165 0 242 -65
t55 -173l-2 -10q-14 -68 -58 -108.5t-106 -53.5q62 -21 90 -80.5t8 -146.5l-2 -12q-24 -111 -103.5 -164t-230.5 -53q-178 0 -255.5 69t-53.5 191zM1327 240q-14 -70 27 -103t143 -33q92 0 138.5 26t58.5 89l8 35q12 68 -26.5 99.5t-147.5 31.5q-171 0 -193 -111zM1425 616
q-11 -57 26.5 -84.5t133.5 -27.5q79 0 121 22.5t51 75.5l6 27q11 57 -25.5 84.5t-133.5 27.5q-80 0 -121 -22t-53 -76z" />
    <glyph glyph-name="threeeighths" unicode="&#x215c;" horiz-adv-x="2109" 
d="M459 840q-174 0 -243.5 64t-57.5 200l2 16h141l-6 -22q-6 -81 31.5 -112.5t132.5 -31.5t137.5 26t56.5 87l6 29q15 69 -22 100t-129 31h-113l27 110h108q86 0 133 22.5t60 80.5l4 24q14 65 -25 96t-133 31q-169 0 -190 -137l-4 -18h-139l4 16q39 254 335 254
q170 0 242 -72t47 -186l-2 -6q-11 -60 -54 -103.5t-110 -58.5q63 -23 88.5 -81t8.5 -138v-6q-24 -108 -102.5 -161.5t-233.5 -53.5zM346 0l1362 1692h109l-1360 -1692h-111zM1309 250l2 12q35 164 192 191q-55 18 -81.5 68t-12.5 124l2 10q21 101 96 151t217 50
q165 0 242 -65t55 -173l-2 -10q-14 -68 -58 -108.5t-106 -53.5q62 -21 90.5 -81t8.5 -146l-2 -12q-24 -111 -103.5 -164t-230.5 -53q-178 0 -255.5 69t-53.5 191zM1446 240q-14 -70 27 -103t143 -33q92 0 138 26t58 89l9 35q12 68 -26.5 99.5t-147.5 31.5q-171 0 -193 -111z
M1544 616q-11 -57 26.5 -84.5t133.5 -27.5q79 0 121 22.5t51 75.5l6 27q11 57 -26 84.5t-134 27.5q-80 0 -121 -22t-53 -76z" />
    <glyph glyph-name="fiveeighths" unicode="&#x215d;" horiz-adv-x="2095" 
d="M537 1413q148 0 221 -79t45 -208l-10 -47q-26 -121 -104 -182t-222 -61q-160 0 -243 70.5t-68 191.5l2 14h139l-4 -20q-4 -67 42 -101.5t134 -34.5q81 0 125.5 31.5t58.5 97.5l13 54q15 76 -27.5 113.5t-140.5 37.5q-64 0 -103.5 -21.5t-79.5 -72.5h-135l135 496h572
l-27 -119h-444l-64 -221q73 61 185 61zM336 0l1362 1692h108l-1362 -1692h-108zM1296 250l2 12q35 164 193 191q-55 18 -81.5 68t-12.5 124l2 10q21 101 96 151t217 50q165 0 242 -65t55 -173l-2 -10q-14 -68 -58 -108.5t-106 -53.5q62 -21 90.5 -81t8.5 -146l-3 -12
q-24 -111 -103 -164t-230 -53q-179 0 -256.5 69t-53.5 191zM1434 240q-14 -70 27 -103t143 -33q92 0 138 26t58 89l8 35q12 68 -26.5 99.5t-147.5 31.5q-170 0 -192 -111zM1532 616q-11 -57 26.5 -84.5t133.5 -27.5q79 0 121 22.5t51 75.5l6 27q11 57 -26 84.5t-134 27.5
q-80 0 -121 -22t-53 -76z" />
    <glyph glyph-name="seveneighths" unicode="&#x215e;" horiz-adv-x="2027" 
d="M225 1573l25 119h612l-24 -121q-89 -62 -158.5 -135t-113.5 -139.5t-78 -149t-52 -145.5t-37 -148l-2 -8h-139l4 12q17 83 35.5 151t52 150.5t76.5 150t109.5 137.5t148.5 126h-459zM254 0l1364 1692h106l-1359 -1692h-111zM1217 250l2 12q35 164 192 191
q-55 18 -81.5 68t-12.5 124l2 10q21 101 96 151t217 50q165 0 242 -65t55 -173l-2 -10q-14 -68 -58 -108.5t-106 -53.5q62 -21 90.5 -81t8.5 -146l-2 -12q-24 -111 -103.5 -164t-230.5 -53q-178 0 -255.5 69t-53.5 191zM1354 240q-14 -70 27 -103t143 -33q92 0 138 26t58 89
l9 35q12 68 -27 99.5t-148 31.5q-170 0 -192 -111zM1452 616q-11 -57 26.5 -84.5t133.5 -27.5q79 0 121 22.5t51 75.5l6 27q11 57 -26 84.5t-134 27.5q-80 0 -121 -22t-53 -76z" />
    <glyph glyph-name="arrowleft" unicode="&#x2190;" horiz-adv-x="1304" 
d="M272 633q116 -43 201 -142.5t113 -240.5h-111q-13 88 -74 169t-141 134t-164 80v86q84 27 164 80t141 134t74 169h111q-28 -141 -113 -240.5t-201 -142.5h936v-86h-936z" />
    <glyph glyph-name="arrowup" unicode="&#x2191;" horiz-adv-x="1032" 
d="M575 96h-86v936q-43 -116 -142.5 -200.5t-240.5 -112.5v110q88 13 169 74t134 141t80 164h86q27 -84 80 -164t134 -141t169 -74v-110q-141 28 -240.5 112.5t-142.5 200.5v-936z" />
    <glyph glyph-name="arrowright" unicode="&#x2192;" horiz-adv-x="1304" 
d="M100 633v86h936q-116 43 -200.5 142.5t-112.5 240.5h111q13 -88 74 -169t140.5 -134t163.5 -80v-86q-84 -27 -163.5 -80t-140.5 -134t-74 -169h-111q28 141 112.5 240.5t200.5 142.5h-936z" />
    <glyph glyph-name="arrowdown" unicode="&#x2193;" horiz-adv-x="1030" 
d="M461 1257h86v-935q43 116 142.5 200.5t240.5 112.5v-111q-88 -13 -169 -74t-134 -141t-80 -164h-86q-27 84 -80 164t-134 141t-169 74v111q141 -28 240.5 -112.5t142.5 -200.5v935z" />
    <glyph glyph-name="arrowboth" unicode="&#x2194;" horiz-adv-x="1679" 
d="M96 727q85 24 165.5 77t141.5 133.5t74 168.5h111q-28 -140 -114 -239.5t-200 -139.5h1137q-114 40 -199.5 139.5t-113.5 239.5h110q13 -88 74 -168.5t141.5 -133.5t165.5 -77v-94q-85 -26 -165.5 -78.5t-141.5 -132.5t-74 -168h-110q28 140 113.5 239.5t199.5 139.5
h-1137q114 -40 200 -139.5t114 -239.5h-111q-13 88 -74 168t-141.5 132.5t-165.5 78.5v94z" />
    <glyph glyph-name="arrowupdn" unicode="&#x2195;" horiz-adv-x="1103" 
d="M604 1427q24 -85 77 -165t133.5 -141t168.5 -74v-111q-140 28 -239.5 113.5t-139.5 199.5v-1136q40 114 139.5 199.5t239.5 113.5v-111q-88 -13 -168.5 -74t-133.5 -141.5t-77 -165.5h-94q-26 85 -78.5 165.5t-132.5 141.5t-168 74v111q140 -28 239.5 -113.5
t139.5 -199.5v1136q-40 -114 -139.5 -199.5t-239.5 -113.5v111q130 19 234.5 132.5t144.5 247.5h94z" />
    <glyph glyph-name="uni2196" unicode="&#x2196;" horiz-adv-x="1130" 
d="M995 281l-59 -62l-662 662q52 -105 41 -239t-90 -253l-80 78q54 71 68.5 171.5t-4 194t-59.5 173.5l59 61q79 -42 173.5 -60.5t195.5 -4.5t172 67l77 -78q-120 -80 -253.5 -91t-239.5 42z" />
    <glyph glyph-name="uni2197" unicode="&#x2197;" horiz-adv-x="1015" 
d="M92 221l-61 60l661 661q-104 -52 -238 -40t-253 91l78 78q71 -54 172 -68t194 4.5t172 59.5l62 -59q-41 -79 -59.5 -173.5t-5 -195t66.5 -170.5l-78 -80q-79 119 -90 254t41 240z" />
    <glyph glyph-name="uni2198" unicode="&#x2198;" horiz-adv-x="1134" 
d="M137 1067l62 61l661 -661q-52 103 -41 237.5t90 253.5l78 -77q-53 -71 -66.5 -172t5 -195t59.5 -172l-61 -61q-78 41 -172 59.5t-195 5t-172 -66.5l-78 77q119 79 254 90.5t240 -40.5z" />
    <glyph glyph-name="uni2199" unicode="&#x2199;" horiz-adv-x="1015" 
d="M930 1128l59 -61l-661 -661q106 53 239.5 41.5t253.5 -91.5l-80 -77q-70 53 -170 67t-194.5 -4.5t-173.5 -60.5l-60 61q41 80 59.5 173.5t4.5 194t-68 171.5l78 77q81 -119 92 -252.5t-41 -238.5z" />
    <glyph glyph-name="uni21E7" unicode="&#x21e7;" horiz-adv-x="1757" 
d="M496 -14v604h-426l794 883l795 -883h-426v-604h-737zM299 692h299v-604h532v604h300l-566 629z" />
    <glyph glyph-name="partialdiff" unicode="&#x2202;" horiz-adv-x="1472" 
d="M582 -260q-319 0 -474.5 131.5t-132.5 374.5q8 114 55 211t132.5 173.5t222 120.5t309.5 44q207 0 344 -60.5t191 -159.5q2 297 -191.5 488t-607.5 291l31 86q216 -53 376.5 -131t262.5 -176.5t158.5 -220t65.5 -263t-17 -303.5q-14 -74 -31.5 -134.5t-47 -124.5
t-67.5 -113.5t-93 -95t-123.5 -75t-160.5 -46.5t-202 -17zM76 236q-18 -200 103.5 -302t393.5 -102q148 0 258 30.5t182 90t114.5 136t64.5 179.5q45 212 -78.5 323t-411.5 111q-299 0 -455.5 -126.5t-170.5 -339.5z" />
    <glyph glyph-name="emptyset" unicode="&#x2205;" horiz-adv-x="1746" 
d="M840 287q-175 0 -312 35l-268 -322h-115l295 350q-295 118 -295 422q0 128 53.5 239t155.5 197t264.5 135.5t366.5 49.5q178 0 301 -33l279 332h112l-301 -361q301 -114 301 -426q0 -130 -54 -241.5t-157 -195.5t-264 -132.5t-362 -48.5zM248 760q0 -243 256 -334
l713 852q-99 18 -230 18q-170 0 -310.5 -41.5t-233.5 -113.5t-144 -170t-51 -211zM596 401q113 -20 238 -20q344 0 542.5 151t198.5 390q0 248 -264 331z" />
    <glyph glyph-name="product" unicode="&#x220f;" horiz-adv-x="1449" 
d="M819 -225l330 1552h-571l-330 -1552h-103l330 1552h-303l18 90h1385l-19 -90h-305l-329 -1552h-103z" />
    <glyph glyph-name="summation" unicode="&#x2211;" horiz-adv-x="1359" 
d="M-131 -236l18 89l793 739l-475 743l16 88h1239l-18 -88h-1114l477 -741l-793 -741h1114l-18 -89h-1239z" />
    <glyph glyph-name="minus" unicode="&#x2212;" horiz-adv-x="1609" 
d="M158 889h1384l-18 -90h-1385z" />
    <glyph glyph-name="radical" unicode="&#x221a;" horiz-adv-x="1548" 
d="M322 -225l-269 733h113l227 -635l873 1540h379l-19 -88h-303l-881 -1550h-120z" />
    <glyph glyph-name="infinity" unicode="&#x221e;" horiz-adv-x="1695" 
d="M1270 397q-67 0 -126.5 16.5t-113 50.5t-91.5 65.5t-89 80.5q-51 -49 -89 -80.5t-91.5 -65.5t-113 -50.5t-126.5 -16.5q-133 0 -221 69t-88 210q0 61 18 109.5t47.5 79.5t70 52t83.5 30t90 9q67 0 126.5 -16.5t112.5 -50.5t92 -66t89 -82q50 50 89 82t92 66t112.5 50.5
t126.5 16.5q60 0 113 -15t98 -46t71.5 -87.5t26.5 -131.5q0 -141 -88 -210t-221 -69zM223 678q0 -92 55 -138t152 -46q102 0 182 47t172 135q-92 88 -172 135t-182 47q-103 0 -155 -47.5t-52 -132.5zM918 676q92 -88 172 -135t182 -47q98 0 151.5 46t53.5 138q0 84 -52 132
t-155 48q-102 0 -182 -46.5t-170 -135.5z" />
    <glyph glyph-name="integral" unicode="&#x222b;" horiz-adv-x="933" 
d="M-154 -260l19 86h59q98 0 163 16.5t108 57t67 95.5t43 144l195 920q21 100 51.5 167t82 117t130 73.5t190.5 23.5h105l-19 -86h-73q-75 0 -130 -11.5t-93.5 -34t-66 -62t-45 -87.5t-32.5 -119l-194 -919q-22 -100 -53 -166.5t-84.5 -117.5t-136 -74t-200.5 -23h-86z" />
    <glyph glyph-name="approxequal" unicode="&#x2248;" horiz-adv-x="1687" 
d="M168 903q4 70 28 124.5t59 88t82.5 55t94.5 29.5t98 8q86 0 165.5 -24.5t141.5 -59t121.5 -69.5t130.5 -59.5t144 -24.5q110 0 180 53t74 150h104q-4 -70 -27.5 -124.5t-59 -88t-82.5 -55t-94 -30t-99 -8.5q-86 0 -165.5 24.5t-141.5 59.5t-121.5 70t-130.5 59.5
t-144 24.5q-111 0 -180.5 -52.5t-73.5 -150.5h-104zM168 508q4 70 28 124.5t59 88t82.5 55t94.5 29.5t98 8q86 0 165.5 -24.5t141.5 -59.5t121.5 -70t130.5 -59.5t144 -24.5q110 0 180 53t74 150h104q-4 -70 -27.5 -124.5t-59 -88t-82.5 -55t-94 -29.5t-99 -8
q-86 0 -165.5 24.5t-141.5 59.5t-121.5 70t-130.5 59.5t-144 24.5q-111 0 -180.5 -52.5t-73.5 -150.5h-104z" />
    <glyph glyph-name="notequal" unicode="&#x2260;" horiz-adv-x="1630" 
d="M391 328l262 329h-532l18 91h586l154 194h-699l19 90h751l260 328h109l-260 -328h524l-18 -90h-578l-153 -194h690l-19 -91h-743l-262 -329h-109z" />
    <glyph glyph-name="lessequal" unicode="&#x2264;" horiz-adv-x="1667" 
d="M188 913l1454 326l-22 -102l-1225 -263l1114 -266l-22 -102l-12 -55h-1385l19 88h1245l-1182 292z" />
    <glyph glyph-name="greaterequal" unicode="&#x2265;" horiz-adv-x="1658" 
d="M106 506l23 102l1227 266l-1116 263l22 102l1317 -326l-16 -82l-1309 -292h1247l-20 -88h-1387z" />
    <glyph glyph-name="uni2317" unicode="&#x2317;" horiz-adv-x="1599" 
d="M145 887v102h394v393h102v-393h340v393h102v-393h394v-102h-394v-340h394v-103h-394v-393h-102v393h-340v-393h-102v393h-394v103h394v340h-394zM641 547h340v340h-340v-340z" />
    <glyph glyph-name="uni2318" unicode="&#x2318;" horiz-adv-x="1687" 
d="M424 14q-124 0 -198 74t-74 199q0 134 91.5 208t270.5 74h90v295h-90q-178 0 -270 74.5t-92 208.5q0 125 74 198.5t198 73.5q134 0 208.5 -92t74.5 -270v-90h294v90q0 178 74.5 270t208.5 92q124 0 198 -73.5t74 -198.5q0 -134 -92 -208.5t-270 -74.5h-90v-295h90
q179 0 270.5 -74t91.5 -208q0 -125 -74 -199t-198 -74q-134 0 -208.5 92t-74.5 271v90h-294v-90q0 -179 -74.5 -271t-208.5 -92zM254 287q0 -88 41 -129t129 -41q95 0 137.5 59t42.5 201v90h-90q-142 0 -201 -42.5t-59 -137.5zM254 1147q0 -95 59 -137.5t201 -42.5h90v90
q0 142 -42.5 201t-137.5 59q-88 0 -129 -41t-41 -129zM707 569h294v295h-294v-295zM1104 377q0 -142 42.5 -201t137.5 -59q88 0 129 41t41 129q0 95 -59 137.5t-201 42.5h-90v-90zM1104 967h90q142 0 201 42.5t59 137.5q0 88 -41 129t-129 41q-95 0 -137.5 -59t-42.5 -201
v-90z" />
    <glyph glyph-name="uni2325" unicode="&#x2325;" horiz-adv-x="1781" 
d="M983 115l-489 1102h-334v102h399l492 -1102h540v-102h-608zM895 1217v102h696v-102h-696z" />
    <glyph glyph-name="filledbox" unicode="&#x25a0;" horiz-adv-x="1527" 
d="M217 158v1118h1118v-1118h-1118z" />
    <glyph glyph-name="uni25A1" unicode="&#x25a1;" horiz-adv-x="1527" 
d="M217 158v1118h1118v-1118h-1118zM319 260h914v914h-914v-914z" />
    <glyph glyph-name="triagup" unicode="&#x25b2;" horiz-adv-x="1456" 
d="M-72 31l682 1179l680 -1179h-1362z" />
    <glyph glyph-name="uni25B3" unicode="&#x25b3;" horiz-adv-x="1513" 
d="M-74 31l711 1231l711 -1231h-1422zM102 133h1067l-532 924z" />
    <glyph glyph-name="uni25B6" unicode="&#x25b6;" horiz-adv-x="1497" 
d="M244 1393l1179 -680l-1179 -682v1362z" />
    <glyph glyph-name="uni25B7" unicode="&#x25b7;" horiz-adv-x="1558" 
d="M248 -6v1421l1231 -710zM350 170l924 535l-924 532v-1067z" />
    <glyph glyph-name="triagdn" unicode="&#x25bc;" horiz-adv-x="1470" 
d="M1522 1210l-682 -1179l-680 1179h1362z" />
    <glyph glyph-name="uni25BD" unicode="&#x25bd;" horiz-adv-x="1527" 
d="M870 -20l-710 1230h1421zM338 1108l532 -924l535 924h-1067z" />
    <glyph glyph-name="uni25C0" unicode="&#x25c0;" horiz-adv-x="1501" 
d="M1274 31l-1180 682l1180 680v-1362z" />
    <glyph glyph-name="uni25C1" unicode="&#x25c1;" horiz-adv-x="1560" 
d="M1329 -6l-1231 711l1231 710v-1421zM303 705l924 -535v1067z" />
    <glyph glyph-name="uni25C6" unicode="&#x25c6;" horiz-adv-x="1519" 
d="M772 51l-668 666l668 667l666 -667z" />
    <glyph glyph-name="uni25C7" unicode="&#x25c7;" horiz-adv-x="1562" 
d="M791 29l-687 688l689 688l686 -688zM248 717l545 -543l542 543l-544 543z" />
    <glyph glyph-name="lozenge" unicode="&#x25ca;" horiz-adv-x="1056" 
d="M586 1280h147l225 -614l-487 -615h-147l-226 615zM209 666l203 -551l436 551l-203 551z" />
    <glyph glyph-name="circle" unicode="&#x25cb;" horiz-adv-x="1472" 
d="M748 92q-170 0 -314 84t-227.5 228t-83.5 313q0 127 49.5 242.5t133 199t199.5 133t243 49.5t242 -49.5t198.5 -133t132.5 -199t49 -242.5q0 -169 -83 -313t-226.5 -228t-312.5 -84zM225 717q0 -145 69 -264.5t189 -187.5t265 -68q144 0 263.5 68t188 187.5t68.5 264.5
t-68.5 264.5t-188 187.5t-263.5 68q-145 0 -265 -68t-189 -187.5t-69 -264.5z" />
    <glyph glyph-name="uni25CF" unicode="&#x25cf;" horiz-adv-x="1474" 
d="M750 94q-170 0 -314 83.5t-227.5 227t-83.5 312.5q0 127 49.5 242.5t133 199t199.5 133t243 49.5t242 -49.5t198.5 -133t132.5 -199t49 -242.5q0 -169 -83 -312.5t-226.5 -227t-312.5 -83.5z" />
    <glyph glyph-name="uni2B1B" unicode="&#x2b1b;" horiz-adv-x="2199" 
d="M248 -143v1720h1720v-1720h-1720z" />
    <glyph glyph-name="uni2B1C" unicode="&#x2b1c;" horiz-adv-x="2199" 
d="M248 -143v1720h1720v-1720h-1720zM350 -41h1516v1516h-1516v-1516z" />
    <glyph glyph-name="uni2B98" unicode="&#x2b98;" horiz-adv-x="1570" 
d="M1401 -39l-1288 744l1288 743l-322 -743zM317 705h650l217 499z" />
    <glyph glyph-name="uni2B99" unicode="&#x2b99;" horiz-adv-x="1560" 
d="M-90 -27l743 1289l744 -1289l-744 322zM653 408l500 -218l-500 867v-649z" />
    <glyph glyph-name="uni2B9A" unicode="&#x2b9a;" horiz-adv-x="1572" 
d="M190 -39l322 744l-322 743l1289 -743zM408 1204l217 -499h649z" />
    <glyph glyph-name="uni2B9B" unicode="&#x2b9b;" horiz-adv-x="1560" 
d="M891 -20l-744 1288l744 -322l743 322zM391 1051l500 -867v650z" />
    <glyph glyph-name="uni2B9C" unicode="&#x2b9c;" horiz-adv-x="1447" 
d="M1284 31l-1180 682l1180 680l-295 -680z" />
    <glyph glyph-name="uni2B9D" unicode="&#x2b9d;" horiz-adv-x="1447" 
d="M-72 31l682 1179l680 -1179l-680 295z" />
    <glyph glyph-name="uni2B9E" unicode="&#x2b9e;" horiz-adv-x="1449" 
d="M182 31l295 682l-295 680l1180 -680z" />
    <glyph glyph-name="uni2B9F" unicode="&#x2b9f;" horiz-adv-x="1447" 
d="M825 31l-680 1179l680 -295l682 295z" />
    <glyph glyph-name="uni3000" unicode="&#x3000;" horiz-adv-x="2048" 
 />
    <glyph glyph-name="uni004A0301" horiz-adv-x="1386" 
d="M578 -20q-619 0 -549 634l10 45h217l-14 -65q-22 -219 55.5 -323.5t280.5 -104.5q174 0 267 90.5t140 312.5l240 1123h215l-238 -1123q-25 -121 -56 -208.5t-80 -162.5t-114.5 -121t-158.5 -71.5t-215 -25.5zM942 1907l840 151l12 -80l-838 -149z" />
    <glyph glyph-name="I.bracket" horiz-adv-x="616" 
d="M59 0l361 1692h213l-359 -1692h-215z" />
    <glyph glyph-name="A.ss01" horiz-adv-x="1175" 
d="M-96 0l760 1692h284l43 -1692h-215l-2 338h-504l-145 -338h-221zM348 518h426l-4 942l-4 25l-10 -27z" />
    <glyph glyph-name="Aacute.ss01" horiz-adv-x="1175" 
d="M-96 0l760 1692h284l43 -1692h-215l-2 338h-504l-145 -338h-221zM348 518h426l-4 942l-4 25l-10 -27zM477 1892l776 152l7 -80l-777 -149z" />
    <glyph glyph-name="Abreve.ss01" horiz-adv-x="1175" 
d="M-96 0l760 1692h284l43 -1692h-215l-2 338h-504l-145 -338h-221zM348 518h426l-4 942l-4 25l-10 -27zM530 2048h101q-3 -36 8 -63.5t32.5 -43.5t54 -26t66 -13.5t74.5 -3.5q253 0 289 150h100q-16 -68 -51.5 -115t-88.5 -72t-113 -35.5t-138 -10.5q-79 0 -141.5 12.5
t-110 38.5t-69 72.5t-13.5 109.5z" />
    <glyph glyph-name="Acircumflex.ss01" horiz-adv-x="1175" 
d="M-96 0l760 1692h284l43 -1692h-215l-2 338h-504l-145 -338h-221zM348 518h426l-4 942l-4 25l-10 -27zM483 1806l342 244h129l246 -244h-137l-176 181l-250 -181h-154z" />
    <glyph glyph-name="Adieresis.ss01" horiz-adv-x="1175" 
d="M-96 0l760 1692h284l43 -1692h-215l-2 338h-504l-145 -338h-221zM348 518h426l-4 942l-4 25l-10 -27zM547 1921q6 42 37 69t69 27q40 0 65 -25.5t21 -68.5q-6 -40 -38 -67t-70 -27t-62.5 26t-21.5 66zM995 1921q6 42 38 69t71 27t63.5 -25.5t20.5 -68.5q-6 -40 -38 -67
t-69 -27q-39 0 -64 26t-22 66z" />
    <glyph glyph-name="Agrave.ss01" horiz-adv-x="1175" 
d="M-96 0l760 1692h284l43 -1692h-215l-2 338h-504l-145 -338h-221zM348 518h426l-4 942l-4 25l-10 -27zM489 1964l37 80l719 -152l-39 -77z" />
    <glyph glyph-name="Amacron.ss01" horiz-adv-x="1175" 
d="M-96 0l760 1692h284l43 -1692h-215l-2 338h-504l-145 -338h-221zM348 518h426l-4 942l-4 25l-10 -27zM473 1888l16 82h771l-17 -82h-770z" />
    <glyph glyph-name="Aogonek.ss01" horiz-adv-x="1175" 
d="M-96 0l760 1692h284l43 -1692q-122 -34 -185.5 -79.5t-76.5 -110.5q-14 -64 37 -92.5t182 -28.5h21l-103 -99h-16q-126 0 -192.5 52t-45.5 151q33 148 287 207h-123l-2 338h-504l-145 -338h-221zM348 518h426l-4 942l-4 25l-10 -27z" />
    <glyph glyph-name="Aring.ss01" horiz-adv-x="1175" 
d="M-96 0l760 1692h284l43 -1692h-215l-2 338h-504l-145 -338h-221zM348 518h426l-4 942l-4 25l-10 -27zM707 1950q0 71 49 118.5t116 47.5t116.5 -47.5t49.5 -118.5t-49.5 -118.5t-116.5 -47.5t-116 47.5t-49 118.5zM793 1950q0 -37 20.5 -58.5t58.5 -21.5t59 21.5t21 58.5
t-21 58.5t-59 21.5t-58.5 -21.5t-20.5 -58.5z" />
    <glyph glyph-name="Atilde.ss01" horiz-adv-x="1175" 
d="M-96 0l760 1692h284l43 -1692h-215l-2 338h-504l-145 -338h-221zM348 518h426l-4 942l-4 25l-10 -27zM496 1833q14 111 76.5 163t152.5 52q49 0 85.5 -15.5t58.5 -38t41.5 -45t46 -38t61.5 -15.5q104 0 123 132h102q-31 -218 -231 -218q-51 0 -89.5 15.5t-60.5 38t-41 45
t-44.5 38t-57.5 15.5q-52 0 -82.5 -34.5t-38.5 -94.5h-102z" />
    <glyph glyph-name="B.ss01" horiz-adv-x="1251" 
d="M-4 0l360 1692h539q110 0 188.5 -32.5t119.5 -91t53.5 -140t-9.5 -179.5l-8 -39q-29 -133 -96.5 -209.5t-179.5 -109.5q104 -44 150.5 -148t12.5 -262l-12 -49q-52 -233 -162 -332.5t-329 -99.5h-627zM246 182h338q74 0 120.5 8.5t86 34t63 72.5t39.5 123l20 92
q60 283 -206 283h-330zM416 979h315q131 0 195.5 46.5t89.5 158.5l14 69q31 139 -11.5 197.5t-172.5 58.5h-316z" />
    <glyph glyph-name="C.ss01" horiz-adv-x="1284" 
d="M573 -20q-280 0 -410.5 173.5t-70.5 469.5l119 553q119 536 602 536q261 0 389 -144.5t90 -393.5l-35 -175h-219l43 205q24 167 -49 247.5t-219 80.5q-309 0 -379 -340l-131 -608q-41 -200 33 -311t246 -111q289 0 356 311l47 217h219l-39 -184q-115 -526 -592 -526z" />
    <glyph glyph-name="Cacute.ss01" horiz-adv-x="1284" 
d="M573 -20q-280 0 -410.5 173.5t-70.5 469.5l119 553q119 536 602 536q261 0 389 -144.5t90 -393.5l-35 -175h-219l43 205q24 167 -49 247.5t-219 80.5q-309 0 -379 -340l-131 -608q-41 -200 33 -311t246 -111q289 0 356 311l47 217h219l-39 -184q-115 -526 -592 -526z
M530 1892l777 152l6 -80l-776 -149z" />
    <glyph glyph-name="Ccaron.ss01" horiz-adv-x="1284" 
d="M573 -20q-280 0 -410.5 173.5t-70.5 469.5l119 553q119 536 602 536q261 0 389 -144.5t90 -393.5l-35 -175h-219l43 205q24 167 -49 247.5t-219 80.5q-309 0 -379 -340l-131 -608q-41 -200 33 -311t246 -111q289 0 356 311l47 217h219l-39 -184q-115 -526 -592 -526z
M590 2058h137l176 -180l250 180h154l-342 -243h-129z" />
    <glyph glyph-name="Ccedilla.ss01" horiz-adv-x="1284" 
d="M573 -20h-24l-49 -107q95 12 150 -14.5t48 -106.5q-7 -97 -102 -136.5t-311 -39.5l20 88q154 0 213 15t62 63q4 44 -45 53.5t-166 -4.5l88 197q-223 35 -321 203.5t-44 431.5l119 553q119 536 602 536q261 0 389 -144.5t90 -393.5l-35 -175h-219l43 205q24 167 -49 247.5
t-219 80.5q-309 0 -379 -340l-131 -608q-41 -200 33 -311t246 -111q289 0 356 311l47 217h219l-39 -184q-115 -526 -592 -526z" />
    <glyph glyph-name="Cdotaccent.ss01" horiz-adv-x="1284" 
d="M573 -20q-280 0 -410.5 173.5t-70.5 469.5l119 553q119 536 602 536q261 0 389 -144.5t90 -393.5l-35 -175h-219l43 205q24 167 -49 247.5t-219 80.5q-309 0 -379 -340l-131 -608q-41 -200 33 -311t246 -111q289 0 356 311l47 217h219l-39 -184q-115 -526 -592 -526z
M797 1919q8 47 46 80t95 33q58 0 85.5 -33t18.5 -84q-8 -44 -46 -76.5t-95 -32.5q-58 0 -85 32.5t-19 80.5z" />
    <glyph glyph-name="D.ss01" horiz-adv-x="1290" 
d="M-4 0l360 1692h455q286 0 405 -165.5t52 -477.5l-113 -531q-32 -146 -83.5 -245t-130.5 -160t-181.5 -87t-243.5 -26h-520zM246 174h280q187 0 278.5 76.5t133.5 273.5l119 561q46 217 -19.5 325t-251.5 108h-254z" />
    <glyph glyph-name="Eth.ss01" horiz-adv-x="1382" 
d="M88 0l168 784h-190l24 117h191l168 791h454q286 0 405 -165.5t52 -477.5l-113 -531q-32 -146 -83.5 -245t-130.5 -160t-181.5 -87t-243.5 -26h-520zM338 174h280q187 0 278.5 76.5t133.5 273.5l119 561q46 218 -19 325.5t-251 107.5h-254l-131 -617h360l-25 -117h-360z
" />
    <glyph glyph-name="Dcaron.ss01" horiz-adv-x="1290" 
d="M-4 0l360 1692h455q286 0 405 -165.5t52 -477.5l-113 -531q-32 -146 -83.5 -245t-130.5 -160t-181.5 -87t-243.5 -26h-520zM246 174h280q187 0 278.5 76.5t133.5 273.5l119 561q46 217 -19.5 325t-251.5 108h-254zM588 2058h137l176 -180l250 180h154l-342 -243h-129z
" />
    <glyph glyph-name="Dcroat.ss01" horiz-adv-x="1382" 
d="M88 0l168 784h-190l24 117h191l168 791h454q286 0 405 -165.5t52 -477.5l-113 -531q-32 -146 -83.5 -245t-130.5 -160t-181.5 -87t-243.5 -26h-520zM338 174h280q187 0 278.5 76.5t133.5 273.5l119 561q46 218 -19 325.5t-251 107.5h-254l-131 -617h360l-25 -117h-360z
" />
    <glyph glyph-name="E.ss01" horiz-adv-x="1075" 
d="M-4 0l360 1692h850l-39 -183h-639l-120 -571h606l-39 -184h-608l-121 -572h641l-41 -182h-850z" />
    <glyph glyph-name="Eacute.ss01" horiz-adv-x="1075" 
d="M-4 0l360 1692h850l-39 -183h-639l-120 -571h606l-39 -184h-608l-121 -572h641l-41 -182h-850zM424 1892l776 152l6 -80l-776 -149z" />
    <glyph glyph-name="Ecaron.ss01" horiz-adv-x="1075" 
d="M-4 0l360 1692h850l-39 -183h-639l-120 -571h606l-39 -184h-608l-121 -572h641l-41 -182h-850zM483 2058h138l176 -180l250 180h153l-342 -243h-129z" />
    <glyph glyph-name="Ecircumflex.ss01" horiz-adv-x="1075" 
d="M-4 0l360 1692h850l-39 -183h-639l-120 -571h606l-39 -184h-608l-121 -572h641l-41 -182h-850zM430 1806l342 244h129l246 -244h-137l-176 181l-250 -181h-154z" />
    <glyph glyph-name="Edieresis.ss01" horiz-adv-x="1075" 
d="M-4 0l360 1692h850l-39 -183h-639l-120 -571h606l-39 -184h-608l-121 -572h641l-41 -182h-850zM494 1921q6 42 37 69t69 27q40 0 65 -25.5t21 -68.5q-6 -40 -38 -67t-70 -27t-62.5 26t-21.5 66zM942 1921q6 42 38 69t71 27t63.5 -25.5t20.5 -68.5q-6 -40 -38 -67t-69 -27
q-39 0 -64 26t-22 66z" />
    <glyph glyph-name="Edotaccent.ss01" horiz-adv-x="1075" 
d="M-4 0l360 1692h850l-39 -183h-639l-120 -571h606l-39 -184h-608l-121 -572h641l-41 -182h-850zM690 1919q8 47 46 80t95 33q58 0 86 -33t19 -84q-8 -44 -46 -76.5t-95 -32.5q-58 0 -85.5 32.5t-19.5 80.5z" />
    <glyph glyph-name="Egrave.ss01" horiz-adv-x="1075" 
d="M-4 0l360 1692h850l-39 -183h-639l-120 -571h606l-39 -184h-608l-121 -572h641l-41 -182h-850zM436 1964l37 80l719 -152l-39 -77z" />
    <glyph glyph-name="Emacron.ss01" horiz-adv-x="1075" 
d="M-4 0l360 1692h850l-39 -183h-639l-120 -571h606l-39 -184h-608l-121 -572h641l-41 -182h-850zM422 1888l16 82h770l-16 -82h-770z" />
    <glyph glyph-name="Eogonek.ss01" horiz-adv-x="1075" 
d="M-4 0l360 1692h850l-39 -183h-639l-120 -571h606l-39 -184h-608l-121 -572h641l-41 -182q-122 -34 -185.5 -79.5t-76.5 -110.5q-14 -64 37 -92.5t182 -28.5h20l-102 -99h-16q-126 0 -192.5 52t-45.5 151q33 148 287 207h-758z" />
    <glyph glyph-name="F.ss01" horiz-adv-x="1058" 
d="M-4 0l360 1692h858l-38 -183h-648l-139 -651h625l-39 -182h-625l-143 -676h-211z" />
    <glyph glyph-name="G.ss01" horiz-adv-x="1312" 
d="M547 -20q-110 0 -197.5 31.5t-145 89t-91.5 138.5t-36.5 179.5t19.5 212.5l117 549q54 252 200.5 392t399.5 140q258 0 392 -148t93 -395l-26 -133h-217l35 168q26 160 -51 244t-232 84q-303 0 -371 -330l-129 -610q-42 -202 26 -316t245 -114q146 0 233.5 81t132.5 249
l43 192h-377l37 172h596l-182 -856h-123l18 174q-151 -194 -409 -194z" />
    <glyph glyph-name="Gbreve.ss01" horiz-adv-x="1312" 
d="M547 -20q-110 0 -197.5 31.5t-145 89t-91.5 138.5t-36.5 179.5t19.5 212.5l117 549q54 252 200.5 392t399.5 140q258 0 392 -148t93 -395l-26 -133h-217l35 168q26 160 -51 244t-232 84q-303 0 -371 -330l-129 -610q-42 -202 26 -316t245 -114q146 0 233.5 81t132.5 249
l43 192h-377l37 172h596l-182 -856h-123l18 174q-151 -194 -409 -194zM590 2048h100q-4 -45 13.5 -76t53.5 -46.5t76 -21.5t93 -6q252 0 288 150h101q-16 -68 -51.5 -115t-88.5 -72t-113 -35.5t-138 -10.5q-79 0 -141.5 12.5t-110 38.5t-69 72.5t-13.5 109.5z" />
    <glyph glyph-name="uni0122.ss01" horiz-adv-x="1312" 
d="M547 -20q-110 0 -197.5 31.5t-145 89t-91.5 138.5t-36.5 179.5t19.5 212.5l117 549q54 252 200.5 392t399.5 140q258 0 392 -148t93 -395l-26 -133h-217l35 168q26 160 -51 244t-232 84q-303 0 -371 -330l-129 -610q-42 -202 26 -316t245 -114q146 0 233.5 81t132.5 249
l43 192h-377l37 172h596l-182 -856h-123l18 174q-151 -194 -409 -194zM356 -434l19 84q108 39 149 119q-36 -33 -75 -33q-34 0 -53.5 25.5t-10.5 66.5q9 42 43.5 71t79.5 29q47 0 68 -31t8 -92q-14 -70 -72.5 -133t-155.5 -106z" />
    <glyph glyph-name="Gdotaccent.ss01" horiz-adv-x="1312" 
d="M547 -20q-110 0 -197.5 31.5t-145 89t-91.5 138.5t-36.5 179.5t19.5 212.5l117 549q54 252 200.5 392t399.5 140q258 0 392 -148t93 -395l-26 -133h-217l35 168q26 160 -51 244t-232 84q-303 0 -371 -330l-129 -610q-42 -202 26 -316t245 -114q146 0 233.5 81t132.5 249
l43 192h-377l37 172h596l-182 -856h-123l18 174q-151 -194 -409 -194zM803 1919q8 47 46 80t95 33q58 0 86 -33t19 -84q-8 -44 -46.5 -76.5t-95.5 -32.5q-58 0 -85 32.5t-19 80.5z" />
    <glyph glyph-name="H.ss01" horiz-adv-x="1284" 
d="M795 0l159 754h-585l-160 -754h-213l360 1692h211l-159 -754h585l160 754h213l-358 -1692h-213z" />
    <glyph glyph-name="Hbar.ss01" horiz-adv-x="1441" 
d="M868 0l160 754h-586l-159 -754h-213l254 1194h-160l24 119h162l80 379h211l-80 -379h586l80 379h213l-80 -379h164l-25 -119h-164l-254 -1194h-213zM481 938h586l55 256h-585z" />
    <glyph glyph-name="I.ss01" horiz-adv-x="790" 
d="M-39 0l41 193h191l276 1306h-190l40 193h586l-41 -193h-190l-277 -1306h191l-41 -193h-586z" />
    <glyph glyph-name="Iacute.ss01" horiz-adv-x="790" 
d="M-39 0l41 193h191l276 1306h-190l40 193h586l-41 -193h-190l-277 -1306h191l-41 -193h-586zM276 1892l777 152l6 -80l-776 -149z" />
    <glyph glyph-name="Icircumflex.ss01" horiz-adv-x="790" 
d="M-39 0l41 193h191l276 1306h-190l40 193h586l-41 -193h-190l-277 -1306h191l-41 -193h-586zM283 1806l342 244h129l245 -244h-137l-176 181l-250 -181h-153z" />
    <glyph glyph-name="Idieresis.ss01" horiz-adv-x="790" 
d="M-39 0l41 193h191l276 1306h-190l40 193h586l-41 -193h-190l-277 -1306h191l-41 -193h-586zM346 1921q6 42 37.5 69t69.5 27q40 0 65 -25.5t21 -68.5q-6 -40 -38.5 -67t-70.5 -27t-62.5 26t-21.5 66zM795 1921q6 42 37.5 69t70.5 27t63.5 -25.5t20.5 -68.5
q-6 -40 -38 -67t-68 -27q-39 0 -64 26t-22 66z" />
    <glyph glyph-name="Idotaccent.ss01" horiz-adv-x="790" 
d="M-39 0l41 193h191l276 1306h-190l40 193h586l-41 -193h-190l-277 -1306h191l-41 -193h-586zM541 1919q8 47 46 80t95 33q58 0 85.5 -33t18.5 -84q-8 -44 -46 -76.5t-95 -32.5q-58 0 -85 32.5t-19 80.5z" />
    <glyph glyph-name="Igrave.ss01" horiz-adv-x="790" 
d="M-39 0l41 193h191l276 1306h-190l40 193h586l-41 -193h-190l-277 -1306h191l-41 -193h-586zM289 1964l37 80l718 -152l-38 -77z" />
    <glyph glyph-name="Imacron.ss01" horiz-adv-x="790" 
d="M-39 0l41 193h191l276 1306h-190l40 193h586l-41 -193h-190l-277 -1306h191l-41 -193h-586zM274 1888l17 82h770l-17 -82h-770z" />
    <glyph glyph-name="Iogonek.ss01" horiz-adv-x="790" 
d="M-39 0l41 193h191l276 1306h-190l40 193h586l-41 -193h-190l-277 -1306h191l-41 -193q-122 -34 -185.5 -79.5t-76.5 -110.5q-14 -64 37 -92.5t182 -28.5h20l-102 -99h-16q-126 0 -192.5 52t-45.5 151q33 148 287 207h-494z" />
    <glyph glyph-name="J.ss01" horiz-adv-x="1153" 
d="M463 -20q-258 0 -367.5 143t-70.5 412l20 90h215l-27 -127q-25 -177 31.5 -257.5t202.5 -80.5q124 0 193 68.5t106 244.5l260 1219h215l-256 -1200q-22 -106 -49 -183t-68.5 -141.5t-96.5 -104.5t-132 -61.5t-176 -21.5z" />
    <glyph glyph-name="K.ss01" horiz-adv-x="1189" 
d="M778 0l-325 750h-84l-160 -750h-213l360 1692h211l-159 -750h77l643 750h256l-747 -846l383 -846h-242z" />
    <glyph glyph-name="uni0136.ss01" horiz-adv-x="1189" 
d="M778 0l-325 750h-84l-160 -750h-213l360 1692h211l-159 -750h77l643 750h256l-747 -846l383 -846h-242zM328 -434l18 84q109 39 150 119q-36 -33 -76 -33q-34 0 -53.5 25.5t-10.5 66.5q9 42 43.5 71t79.5 29q47 0 68 -31t8 -92q-14 -70 -72 -133t-155 -106z" />
    <glyph glyph-name="L.ss01" horiz-adv-x="1036" 
d="M-2 0l358 1692h213l-319 -1510h641l-39 -182h-854z" />
    <glyph glyph-name="Lacute.ss01" horiz-adv-x="1036" 
d="M-2 0l358 1692h213l-319 -1510h641l-39 -182h-854zM449 1892l776 152l6 -80l-776 -149z" />
    <glyph glyph-name="Lcaron.ss01" horiz-adv-x="1042" 
d="M-2 0l358 1692h213l-319 -1510h641l-39 -182h-854zM727 1206l186 486h146l-230 -486h-102z" />
    <glyph glyph-name="uni013B.ss01" horiz-adv-x="1036" 
d="M-2 0l358 1692h213l-319 -1510h641l-39 -182h-854zM240 -434l18 84q109 39 150 119q-36 -33 -76 -33q-34 0 -53.5 25.5t-10.5 66.5q9 42 43.5 71t79.5 29q47 0 68 -31t8 -92q-14 -70 -72 -133t-155 -106z" />
    <glyph glyph-name="Lslash.ss01" horiz-adv-x="1148" 
d="M111 0l145 686l-221 -100l39 147l213 96l182 863h213l-160 -756l359 164l-39 -150l-350 -157l-130 -611h642l-39 -182h-854z" />
    <glyph glyph-name="M.ss01" horiz-adv-x="1517" 
d="M-4 0l360 1692h248l98 -1278l644 1278h253l-360 -1692h-199l267 1233l-625 -1233h-125l-100 1235l-264 -1235h-197z" />
    <glyph glyph-name="N.ss01" horiz-adv-x="1306" 
d="M-4 0l360 1692h199l367 -1248l268 1248h196l-358 -1692h-199l-368 1247l-266 -1247h-199z" />
    <glyph glyph-name="Nacute.ss01" horiz-adv-x="1306" 
d="M-4 0l360 1692h199l367 -1248l268 1248h196l-358 -1692h-199l-368 1247l-266 -1247h-199zM535 1892l776 152l6 -80l-776 -149z" />
    <glyph glyph-name="Ncaron.ss01" horiz-adv-x="1306" 
d="M-4 0l360 1692h199l367 -1248l268 1248h196l-358 -1692h-199l-368 1247l-266 -1247h-199zM594 2058h137l176 -180l250 180h154l-342 -243h-129z" />
    <glyph glyph-name="uni0145.ss01" horiz-adv-x="1306" 
d="M-4 0l360 1692h199l367 -1248l268 1248h196l-358 -1692h-199l-368 1247l-266 -1247h-199zM354 -434l19 84q108 39 149 119q-36 -33 -76 -33q-34 0 -53 25.5t-10 66.5q9 42 43.5 71t79.5 29q47 0 68 -31t8 -92q-14 -70 -72.5 -133t-155.5 -106z" />
    <glyph glyph-name="Ntilde.ss01" horiz-adv-x="1306" 
d="M-4 0l360 1692h199l367 -1248l268 1248h196l-358 -1692h-199l-368 1247l-266 -1247h-199zM553 1833q14 111 76.5 163t152.5 52q49 0 85.5 -15.5t58.5 -38t41.5 -45t46 -38t61.5 -15.5q104 0 123 132h102q-31 -218 -231 -218q-51 0 -89.5 15.5t-60.5 38t-41 45t-44.5 38
t-57.5 15.5q-52 0 -82.5 -34.5t-38.5 -94.5h-102z" />
    <glyph glyph-name="O.ss01" horiz-adv-x="1316" 
d="M584 -20q-288 0 -421.5 172t-70.5 460l117 551q118 549 600 549q285 0 420 -173.5t74 -463.5l-115 -545q-27 -127 -73.5 -225t-118.5 -172.5t-175.5 -113.5t-236.5 -39zM303 573q-43 -196 31.5 -303.5t251.5 -107.5q160 0 251 89t126 257l129 610q41 195 -33 304.5
t-252 109.5q-303 0 -375 -348z" />
    <glyph glyph-name="Oacute.ss01" horiz-adv-x="1316" 
d="M584 -20q-288 0 -421.5 172t-70.5 460l117 551q118 549 600 549q285 0 420 -173.5t74 -463.5l-115 -545q-27 -127 -73.5 -225t-118.5 -172.5t-175.5 -113.5t-236.5 -39zM303 573q-43 -196 31.5 -303.5t251.5 -107.5q160 0 251 89t126 257l129 610q41 195 -33 304.5
t-252 109.5q-303 0 -375 -348zM528 1892l777 152l6 -80l-776 -149z" />
    <glyph glyph-name="Ocircumflex.ss01" horiz-adv-x="1316" 
d="M584 -20q-288 0 -421.5 172t-70.5 460l117 551q118 549 600 549q285 0 420 -173.5t74 -463.5l-115 -545q-27 -127 -73.5 -225t-118.5 -172.5t-175.5 -113.5t-236.5 -39zM303 573q-43 -196 31.5 -303.5t251.5 -107.5q160 0 251 89t126 257l129 610q41 195 -33 304.5
t-252 109.5q-303 0 -375 -348zM535 1806l342 244h129l245 -244h-137l-176 181l-250 -181h-153z" />
    <glyph glyph-name="Odieresis.ss01" horiz-adv-x="1316" 
d="M584 -20q-288 0 -421.5 172t-70.5 460l117 551q118 549 600 549q285 0 420 -173.5t74 -463.5l-115 -545q-27 -127 -73.5 -225t-118.5 -172.5t-175.5 -113.5t-236.5 -39zM303 573q-43 -196 31.5 -303.5t251.5 -107.5q160 0 251 89t126 257l129 610q41 195 -33 304.5
t-252 109.5q-303 0 -375 -348zM598 1921q6 42 37.5 69t69.5 27q40 0 65 -25.5t21 -68.5q-6 -40 -38.5 -67t-70.5 -27t-62.5 26t-21.5 66zM1047 1921q6 42 37.5 69t70.5 27t63.5 -25.5t20.5 -68.5q-6 -40 -38 -67t-68 -27q-39 0 -64 26t-22 66z" />
    <glyph glyph-name="Ograve.ss01" horiz-adv-x="1316" 
d="M584 -20q-288 0 -421.5 172t-70.5 460l117 551q118 549 600 549q285 0 420 -173.5t74 -463.5l-115 -545q-27 -127 -73.5 -225t-118.5 -172.5t-175.5 -113.5t-236.5 -39zM303 573q-43 -196 31.5 -303.5t251.5 -107.5q160 0 251 89t126 257l129 610q41 195 -33 304.5
t-252 109.5q-303 0 -375 -348zM543 1964l37 80l718 -152l-38 -77z" />
    <glyph glyph-name="Ohungarumlaut.ss01" horiz-adv-x="1316" 
d="M584 -20q-288 0 -421.5 172t-70.5 460l117 551q118 549 600 549q285 0 420 -173.5t74 -463.5l-115 -545q-27 -127 -73.5 -225t-118.5 -172.5t-175.5 -113.5t-236.5 -39zM303 573q-43 -196 31.5 -303.5t251.5 -107.5q160 0 251 89t126 257l129 610q41 195 -33 304.5
t-252 109.5q-303 0 -375 -348zM696 1815l275 229h135l-254 -229h-156zM958 1815l275 229h133l-254 -229h-154z" />
    <glyph glyph-name="Omacron.ss01" horiz-adv-x="1316" 
d="M584 -20q-288 0 -421.5 172t-70.5 460l117 551q118 549 600 549q285 0 420 -173.5t74 -463.5l-115 -545q-27 -127 -73.5 -225t-118.5 -172.5t-175.5 -113.5t-236.5 -39zM303 573q-43 -196 31.5 -303.5t251.5 -107.5q160 0 251 89t126 257l129 610q41 195 -33 304.5
t-252 109.5q-303 0 -375 -348zM526 1888l17 82h770l-17 -82h-770z" />
    <glyph glyph-name="Oslash.ss01" horiz-adv-x="1318" 
d="M10 -6l133 186q-109 170 -51 432l117 551q118 549 600 549q218 0 350 -104l66 92h127l-119 -166q131 -177 70 -459l-115 -545q-27 -127 -73.5 -225t-118.5 -172.5t-175.5 -113.5t-236.5 -39q-237 0 -371 118l-76 -104h-127zM291 389l751 1055q-79 88 -235 88
q-303 0 -375 -348l-129 -611q-21 -105 -12 -184zM334 270q74 -108 252 -108q160 0 251 89t126 257l129 610q26 125 4 221z" />
    <glyph glyph-name="Otilde.ss01" horiz-adv-x="1316" 
d="M584 -20q-288 0 -421.5 172t-70.5 460l117 551q118 549 600 549q285 0 420 -173.5t74 -463.5l-115 -545q-27 -127 -73.5 -225t-118.5 -172.5t-175.5 -113.5t-236.5 -39zM303 573q-43 -196 31.5 -303.5t251.5 -107.5q160 0 251 89t126 257l129 610q41 195 -33 304.5
t-252 109.5q-303 0 -375 -348zM547 1833q14 111 76.5 163t152.5 52q49 0 85.5 -15.5t58.5 -38t41.5 -45t46 -38t61.5 -15.5q104 0 123 132h102q-31 -218 -231 -218q-51 0 -89.5 15.5t-60.5 38t-41 45t-44.5 38t-57.5 15.5q-52 0 -82.5 -34.5t-38.5 -94.5h-102z" />
    <glyph glyph-name="P.ss01" horiz-adv-x="1243" 
d="M-4 0l360 1692h512q137 0 230 -41t137.5 -117t54.5 -183t-20 -239l-10 -55q-36 -177 -102.5 -278t-179 -147t-292.5 -46h-352l-125 -586h-213zM371 760h342q151 0 220.5 62t102.5 218l29 138q34 168 -12.5 254t-196.5 86h-324z" />
    <glyph glyph-name="Q.ss01" horiz-adv-x="1316" 
d="M930 -297q-139 83 -255.5 119t-289.5 45l35 131q-206 46 -294 209t-34 405l117 551q118 549 600 549q285 0 420 -173.5t74 -463.5l-115 -545q-105 -499 -516 -546q169 -26 299 -103zM303 573q-43 -196 31.5 -303.5t251.5 -107.5q160 0 251 89t126 257l129 610
q41 195 -33 304.5t-252 109.5q-303 0 -375 -348z" />
    <glyph glyph-name="R.ss01" horiz-adv-x="1253" 
d="M817 0q-17 45 6 154l60 280q11 51 11.5 92.5t-7 70t-24 50t-35.5 34t-45 20t-49.5 10t-51.5 2.5h-322l-153 -713h-211l360 1692h514q234 0 340 -125t56 -361l-9 -39q-35 -165 -109 -249t-214 -119q115 -43 153.5 -147t6.5 -249l-56 -258q-25 -110 -10 -145h-211zM397 889
h324q104 0 167.5 28.5t92.5 76t47 128.5l23 103q34 164 -18 228.5t-195 64.5h-306z" />
    <glyph glyph-name="Racute.ss01" horiz-adv-x="1253" 
d="M817 0q-17 45 6 154l60 280q11 51 11.5 92.5t-7 70t-24 50t-35.5 34t-45 20t-49.5 10t-51.5 2.5h-322l-153 -713h-211l360 1692h514q234 0 340 -125t56 -361l-9 -39q-35 -165 -109 -249t-214 -119q115 -43 153.5 -147t6.5 -249l-56 -258q-25 -110 -10 -145h-211zM397 889
h324q104 0 167.5 28.5t92.5 76t47 128.5l23 103q34 164 -18 228.5t-195 64.5h-306zM518 1892l776 152l6 -80l-776 -149z" />
    <glyph glyph-name="Rcaron.ss01" horiz-adv-x="1253" 
d="M817 0q-17 45 6 154l60 280q11 51 11.5 92.5t-7 70t-24 50t-35.5 34t-45 20t-49.5 10t-51.5 2.5h-322l-153 -713h-211l360 1692h514q234 0 340 -125t56 -361l-9 -39q-35 -165 -109 -249t-214 -119q115 -43 153.5 -147t6.5 -249l-56 -258q-25 -110 -10 -145h-211zM397 889
h324q104 0 167.5 28.5t92.5 76t47 128.5l23 103q34 164 -18 228.5t-195 64.5h-306zM578 2058h137l176 -180l250 180h153l-342 -243h-129z" />
    <glyph glyph-name="uni0156.ss01" horiz-adv-x="1253" 
d="M817 0q-17 45 6 154l60 280q11 51 11.5 92.5t-7 70t-24 50t-35.5 34t-45 20t-49.5 10t-51.5 2.5h-322l-153 -713h-211l360 1692h514q234 0 340 -125t56 -361l-9 -39q-35 -165 -109 -249t-214 -119q115 -43 153.5 -147t6.5 -249l-56 -258q-25 -110 -10 -145h-211z
M338 -434l18 84q109 39 150 119q-36 -33 -76 -33q-34 0 -53 25.5t-10 66.5q9 42 43 71t79 29q47 0 68 -31t8 -92q-14 -70 -72 -133t-155 -106zM397 889h324q104 0 167.5 28.5t92.5 76t47 128.5l23 103q34 164 -18 228.5t-195 64.5h-306z" />
    <glyph glyph-name="S.ss01" horiz-adv-x="1171" 
d="M526 -20q-276 0 -398.5 132.5t-82.5 387.5l18 94h218l-27 -137q-25 -156 41 -226.5t235 -70.5q140 0 203.5 59t83.5 209q5 41 5 75.5t-4.5 61.5t-15 50.5t-22.5 40.5t-31 33.5t-38 29t-45 26.5l-179 115q-29 17 -52 32t-48 33.5t-43 36.5t-37.5 41t-31 46t-23.5 52
t-15 59.5t-5.5 68.5t4.5 78q55 405 493 405q256 0 374.5 -121t82.5 -352l-15 -76h-217l19 97q26 153 -37.5 213.5t-210.5 60.5q-132 0 -193.5 -53.5t-80.5 -180.5q-8 -59 0 -104.5t34 -77.5t51 -51.5t66 -42.5l174 -113q31 -18 52.5 -31.5t49 -33.5t45.5 -37t39 -41
t33.5 -48.5t24 -57t16 -67.5t4.5 -78.5t-6 -92.5q-27 -223 -147.5 -333.5t-360.5 -110.5z" />
    <glyph glyph-name="Sacute.ss01" horiz-adv-x="1171" 
d="M526 -20q-276 0 -398.5 132.5t-82.5 387.5l18 94h218l-27 -137q-25 -156 41 -226.5t235 -70.5q140 0 203.5 59t83.5 209q5 41 5 75.5t-4.5 61.5t-15 50.5t-22.5 40.5t-31 33.5t-38 29t-45 26.5l-179 115q-29 17 -52 32t-48 33.5t-43 36.5t-37.5 41t-31 46t-23.5 52
t-15 59.5t-5.5 68.5t4.5 78q55 405 493 405q256 0 374.5 -121t82.5 -352l-15 -76h-217l19 97q26 153 -37.5 213.5t-210.5 60.5q-132 0 -193.5 -53.5t-80.5 -180.5q-8 -59 0 -104.5t34 -77.5t51 -51.5t66 -42.5l174 -113q31 -18 52.5 -31.5t49 -33.5t45.5 -37t39 -41
t33.5 -48.5t24 -57t16 -67.5t4.5 -78.5t-6 -92.5q-27 -223 -147.5 -333.5t-360.5 -110.5zM465 1892l776 152l6 -80l-776 -149z" />
    <glyph glyph-name="Scaron.ss01" horiz-adv-x="1171" 
d="M526 -20q-276 0 -398.5 132.5t-82.5 387.5l18 94h218l-27 -137q-25 -156 41 -226.5t235 -70.5q140 0 203.5 59t83.5 209q5 41 5 75.5t-4.5 61.5t-15 50.5t-22.5 40.5t-31 33.5t-38 29t-45 26.5l-179 115q-29 17 -52 32t-48 33.5t-43 36.5t-37.5 41t-31 46t-23.5 52
t-15 59.5t-5.5 68.5t4.5 78q55 405 493 405q256 0 374.5 -121t82.5 -352l-15 -76h-217l19 97q26 153 -37.5 213.5t-210.5 60.5q-132 0 -193.5 -53.5t-80.5 -180.5q-8 -59 0 -104.5t34 -77.5t51 -51.5t66 -42.5l174 -113q31 -18 52.5 -31.5t49 -33.5t45.5 -37t39 -41
t33.5 -48.5t24 -57t16 -67.5t4.5 -78.5t-6 -92.5q-27 -223 -147.5 -333.5t-360.5 -110.5zM522 2058h137l177 -180l249 180h154l-342 -243h-129z" />
    <glyph glyph-name="Scedilla.ss01" horiz-adv-x="1171" 
d="M526 -20h-41l-51 -107q58 5 104 0t73 -35.5t22 -85.5q-7 -97 -102.5 -136.5t-311.5 -39.5l21 88q153 0 212 15t62 63q4 44 -45 53.5t-166 -4.5l90 197q-206 31 -294.5 161t-53.5 351l18 94h218l-27 -137q-25 -156 41 -226.5t235 -70.5q140 0 203.5 59t83.5 209
q5 41 5 75.5t-4.5 61.5t-15 50.5t-22.5 40.5t-31 33.5t-38 29t-45 26.5l-179 115q-29 17 -52 32t-48 33.5t-43 36.5t-37.5 41t-31 46t-23.5 52t-15 59.5t-5.5 68.5t4.5 78q55 405 493 405q256 0 374.5 -121t82.5 -352l-15 -76h-217l19 97q26 153 -37.5 213.5t-210.5 60.5
q-132 0 -193.5 -53.5t-80.5 -180.5q-8 -59 0 -104.5t34 -77.5t51 -51.5t66 -42.5l174 -113q31 -18 52.5 -31.5t49 -33.5t45.5 -37t39 -41t33.5 -48.5t24 -57t16 -67.5t4.5 -78.5t-6 -92.5q-27 -223 -147.5 -333.5t-360.5 -110.5z" />
    <glyph glyph-name="uni0218.ss01" horiz-adv-x="1171" 
d="M526 -20q-276 0 -398.5 132.5t-82.5 387.5l18 94h218l-27 -137q-25 -156 41 -226.5t235 -70.5q140 0 203.5 59t83.5 209q5 41 5 75.5t-4.5 61.5t-15 50.5t-22.5 40.5t-31 33.5t-38 29t-45 26.5l-179 115q-29 17 -52 32t-48 33.5t-43 36.5t-37.5 41t-31 46t-23.5 52
t-15 59.5t-5.5 68.5t4.5 78q55 405 493 405q256 0 374.5 -121t82.5 -352l-15 -76h-217l19 97q26 153 -37.5 213.5t-210.5 60.5q-132 0 -193.5 -53.5t-80.5 -180.5q-8 -59 0 -104.5t34 -77.5t51 -51.5t66 -42.5l174 -113q31 -18 52.5 -31.5t49 -33.5t45.5 -37t39 -41
t33.5 -48.5t24 -57t16 -67.5t4.5 -78.5t-6 -92.5q-27 -223 -147.5 -333.5t-360.5 -110.5zM285 -434l18 84q109 39 150 119q-36 -33 -76 -33q-34 0 -53.5 25.5t-10.5 66.5q9 42 43.5 71t79.5 29q47 0 68 -31t8 -92q-14 -70 -72 -133t-155 -106z" />
    <glyph glyph-name="uni1E9E.ss01" horiz-adv-x="1189" 
d="M268 1286q47 212 162 309t338 97h506q-41 -201 -83 -333.5t-88.5 -206.5t-91 -107.5t-106.5 -49.5q241 -88 160 -469l-21 -102q-23 -118 -68.5 -201.5t-111 -131.5t-143.5 -69.5t-176 -21.5h-254l37 172l184 2q72 0 121.5 10.5t92 39t70 81.5t44.5 135l26 133
q21 103 13 176t-64.5 113t-165.5 41h-155l34 174h144q53 0 89.5 5.5t72.5 22.5t61.5 46.5t52 80t49 120t47.5 168.5h-278q-64 0 -107.5 -9t-82 -35t-63.5 -75t-42 -125l-281 -1276h-204z" />
    <glyph glyph-name="T.ss01" horiz-adv-x="1091" 
d="M299 0l322 1509h-392l41 183h987l-38 -183h-388l-321 -1509h-211z" />
    <glyph glyph-name="Tbar.ss01" horiz-adv-x="1107" 
d="M307 0l168 788h-291l25 117h291l129 604h-391l41 183h987l-39 -183h-387l-129 -604h284l-26 -117h-283l-168 -788h-211z" />
    <glyph glyph-name="Tcaron.ss01" horiz-adv-x="1091" 
d="M299 0l322 1509h-392l41 183h987l-38 -183h-388l-321 -1509h-211zM477 2058h137l177 -180l249 180h154l-342 -243h-129z" />
    <glyph glyph-name="uni0162.ss01" horiz-adv-x="1091" 
d="M299 0l322 1509h-392l41 183h987l-38 -183h-388l-321 -1509h-61l-60 -127q58 5 104 0t73 -35.5t22 -85.5q-7 -97 -102.5 -136.5t-311.5 -39.5l21 88q153 0 212 15t62 63q4 44 -45 53.5t-166 -4.5l94 209h-53z" />
    <glyph glyph-name="uni021A.ss01" horiz-adv-x="1091" 
d="M299 0l322 1509h-392l41 183h987l-38 -183h-388l-321 -1509h-211zM240 -434l18 84q109 39 150 119q-36 -33 -76 -33q-34 0 -53.5 25.5t-10.5 66.5q9 42 43.5 71t79.5 29q47 0 68 -31t8 -92q-14 -70 -72 -133t-155 -106z" />
    <glyph glyph-name="U.ss01" horiz-adv-x="1282" 
d="M559 -23q-284 0 -399 148.5t-60 409.5l246 1157h215l-256 -1203q-38 -176 29 -252.5t229 -76.5q69 0 118.5 13t93 46.5t73 95t49.5 154.5l260 1223h215l-254 -1192q-40 -186 -105 -298t-175.5 -168.5t-278.5 -56.5z" />
    <glyph glyph-name="Uacute.ss01" horiz-adv-x="1282" 
d="M559 -23q-284 0 -399 148.5t-60 409.5l246 1157h215l-256 -1203q-38 -176 29 -252.5t229 -76.5q69 0 118.5 13t93 46.5t73 95t49.5 154.5l260 1223h215l-254 -1192q-40 -186 -105 -298t-175.5 -168.5t-278.5 -56.5zM522 1892l776 152l7 -80l-777 -149z" />
    <glyph glyph-name="Ucircumflex.ss01" horiz-adv-x="1282" 
d="M559 -23q-284 0 -399 148.5t-60 409.5l246 1157h215l-256 -1203q-38 -176 29 -252.5t229 -76.5q69 0 118.5 13t93 46.5t73 95t49.5 154.5l260 1223h215l-254 -1192q-40 -186 -105 -298t-175.5 -168.5t-278.5 -56.5zM528 1806l342 244h129l246 -244h-137l-176 181
l-250 -181h-154z" />
    <glyph glyph-name="Udieresis.ss01" horiz-adv-x="1282" 
d="M559 -23q-284 0 -399 148.5t-60 409.5l246 1157h215l-256 -1203q-38 -176 29 -252.5t229 -76.5q69 0 118.5 13t93 46.5t73 95t49.5 154.5l260 1223h215l-254 -1192q-40 -186 -105 -298t-175.5 -168.5t-278.5 -56.5zM592 1921q6 42 37 69t69 27q40 0 65 -25.5t21 -68.5
q-6 -40 -38 -67t-70 -27t-62.5 26t-21.5 66zM1040 1921q6 42 38 69t71 27t63.5 -25.5t20.5 -68.5q-6 -40 -38 -67t-69 -27q-39 0 -64 26t-22 66z" />
    <glyph glyph-name="Ugrave.ss01" horiz-adv-x="1282" 
d="M559 -23q-284 0 -399 148.5t-60 409.5l246 1157h215l-256 -1203q-38 -176 29 -252.5t229 -76.5q69 0 118.5 13t93 46.5t73 95t49.5 154.5l260 1223h215l-254 -1192q-40 -186 -105 -298t-175.5 -168.5t-278.5 -56.5zM535 1964l36 80l719 -152l-39 -77z" />
    <glyph glyph-name="Uhungarumlaut.ss01" horiz-adv-x="1282" 
d="M559 -23q-284 0 -399 148.5t-60 409.5l246 1157h215l-256 -1203q-38 -176 29 -252.5t229 -76.5q69 0 118.5 13t93 46.5t73 95t49.5 154.5l260 1223h215l-254 -1192q-40 -186 -105 -298t-175.5 -168.5t-278.5 -56.5zM690 1815l275 229h135l-254 -229h-156zM952 1815
l275 229h133l-254 -229h-154z" />
    <glyph glyph-name="Umacron.ss01" horiz-adv-x="1282" 
d="M559 -23q-284 0 -399 148.5t-60 409.5l246 1157h215l-256 -1203q-38 -176 29 -252.5t229 -76.5q69 0 118.5 13t93 46.5t73 95t49.5 154.5l260 1223h215l-254 -1192q-40 -186 -105 -298t-175.5 -168.5t-278.5 -56.5zM520 1888l17 82h770l-17 -82h-770z" />
    <glyph glyph-name="Uogonek.ss01" horiz-adv-x="1282" 
d="M559 -23q-284 0 -399 148.5t-60 409.5l246 1157h215l-256 -1203q-38 -176 29 -252.5t229 -76.5q69 0 118.5 13t93 46.5t73 95t49.5 154.5l260 1223h215l-254 -1192q-48 -230 -140 -351t-257 -157q-109 -33 -167 -76.5t-71 -105.5q-14 -64 37 -92.5t182 -28.5h21l-102 -99
h-17q-125 0 -191.5 52t-45.5 151q26 121 208 184h-16z" />
    <glyph glyph-name="Uring.ss01" horiz-adv-x="1282" 
d="M559 -23q-284 0 -399 148.5t-60 409.5l246 1157h215l-256 -1203q-38 -176 29 -252.5t229 -76.5q69 0 118.5 13t93 46.5t73 95t49.5 154.5l260 1223h215l-254 -1192q-40 -186 -105 -298t-175.5 -168.5t-278.5 -56.5zM752 1950q0 71 49.5 118.5t116.5 47.5t116 -47.5
t49 -118.5t-49 -118.5t-116 -47.5t-116.5 47.5t-49.5 118.5zM838 1950q0 -37 21 -58.5t59 -21.5t58.5 21.5t20.5 58.5t-20.5 58.5t-58.5 21.5t-59 -21.5t-21 -58.5z" />
    <glyph glyph-name="V.ss01" horiz-adv-x="1179" 
d="M305 0l-41 1692h215l6 -1461l2 -24l13 26l628 1459h224l-760 -1692h-287z" />
    <glyph glyph-name="W.ss01" horiz-adv-x="1918" 
d="M254 0l12 1692h213l-30 -1434v-2l2 4l587 1432h271l-21 -1432v-2l2 4l578 1430h217l-705 -1692h-282l20 1395v18l-8 -18l-575 -1395h-281z" />
    <glyph glyph-name="Wacute.ss01" horiz-adv-x="1918" 
d="M254 0l12 1692h213l-30 -1434v-2l2 4l587 1432h271l-21 -1432v-2l2 4l578 1430h217l-705 -1692h-282l20 1395v18l-8 -18l-575 -1395h-281zM834 1892l776 152l6 -80l-776 -149z" />
    <glyph glyph-name="Wcircumflex.ss01" horiz-adv-x="1918" 
d="M254 0l12 1692h213l-30 -1434v-2l2 4l587 1432h271l-21 -1432v-2l2 4l578 1430h217l-705 -1692h-282l20 1395v18l-8 -18l-575 -1395h-281zM840 1806l342 244h129l245 -244h-137l-176 181l-250 -181h-153z" />
    <glyph glyph-name="Wdieresis.ss01" horiz-adv-x="1918" 
d="M254 0l12 1692h213l-30 -1434v-2l2 4l587 1432h271l-21 -1432v-2l2 4l578 1430h217l-705 -1692h-282l20 1395v18l-8 -18l-575 -1395h-281zM903 1921q6 42 37.5 69t69.5 27q40 0 65 -25.5t21 -68.5q-6 -40 -38.5 -67t-70.5 -27t-62.5 26t-21.5 66zM1352 1921q6 42 37.5 69
t70.5 27t63.5 -25.5t20.5 -68.5q-6 -40 -38 -67t-68 -27q-39 0 -64 26t-22 66z" />
    <glyph glyph-name="Wgrave.ss01" horiz-adv-x="1918" 
d="M254 0l12 1692h213l-30 -1434v-2l2 4l587 1432h271l-21 -1432v-2l2 4l578 1430h217l-705 -1692h-282l20 1395v18l-8 -18l-575 -1395h-281zM848 1964l37 80l719 -152l-39 -77z" />
    <glyph glyph-name="X.ss01" horiz-adv-x="1177" 
d="M-115 0l623 864l-244 828h219l187 -643l454 643h236l-604 -830l245 -862h-219l-186 678l-475 -678h-236z" />
    <glyph glyph-name="Y.ss01" horiz-adv-x="1183" 
d="M342 0l129 592l-215 1100h217l152 -850l503 850h236l-682 -1100l-129 -592h-211z" />
    <glyph glyph-name="Yacute.ss01" horiz-adv-x="1183" 
d="M342 0l129 592l-215 1100h217l152 -850l503 850h236l-682 -1100l-129 -592h-211zM465 1892l776 152l6 -80l-776 -149z" />
    <glyph glyph-name="Ycircumflex.ss01" horiz-adv-x="1183" 
d="M342 0l129 592l-215 1100h217l152 -850l503 850h236l-682 -1100l-129 -592h-211zM471 1806l342 244h129l246 -244h-137l-177 181l-249 -181h-154z" />
    <glyph glyph-name="Ydieresis.ss01" horiz-adv-x="1183" 
d="M342 0l129 592l-215 1100h217l152 -850l503 850h236l-682 -1100l-129 -592h-211zM535 1921q6 42 37 69t69 27q40 0 65 -25.5t21 -68.5q-6 -40 -38.5 -67t-70.5 -27t-62 26t-21 66zM983 1921q6 42 38 69t71 27t63.5 -25.5t20.5 -68.5q-6 -40 -38 -67t-69 -27q-39 0 -64 26
t-22 66z" />
    <glyph glyph-name="Ygrave.ss01" horiz-adv-x="1183" 
d="M342 0l129 592l-215 1100h217l152 -850l503 850h236l-682 -1100l-129 -592h-211zM477 1964l37 80l719 -152l-39 -77z" />
    <glyph glyph-name="Z.ss01" horiz-adv-x="1081" 
d="M-70 0l35 182l985 1327h-700l41 183h938l-37 -183l-985 -1327h700l-39 -182h-938z" />
    <glyph glyph-name="Zacute.ss01" horiz-adv-x="1081" 
d="M-70 0l35 182l985 1327h-700l41 183h938l-37 -183l-985 -1327h700l-39 -182h-938zM422 1892l776 152l6 -80l-776 -149z" />
    <glyph glyph-name="Zcaron.ss01" horiz-adv-x="1081" 
d="M-70 0l35 182l985 1327h-700l41 183h938l-37 -183l-985 -1327h700l-39 -182h-938zM481 2058h137l177 -180l249 180h154l-342 -243h-129z" />
    <glyph glyph-name="Zdotaccent.ss01" horiz-adv-x="1081" 
d="M-70 0l35 182l985 1327h-700l41 183h938l-37 -183l-985 -1327h700l-39 -182h-938zM686 1919q8 47 46 80t95 33q58 0 86 -33t19 -84q-8 -44 -46 -76.5t-95 -32.5q-58 0 -85.5 32.5t-19.5 80.5z" />
    <glyph glyph-name="W.ss02" horiz-adv-x="1566" 
d="M-39 0l381 1692h197l-322 -1405l672 1405h309l-319 -1405l673 1405h199l-821 -1692h-307l319 1425l-668 -1425h-313z" />
    <glyph glyph-name="W.ss03" horiz-adv-x="3135" 
d="M350 0h-301l381 1692h203l-328 -1463l1450 1463h277l-328 -1461l1427 1461h263l-1647 -1692h-301l321 1430z" />
    <glyph glyph-name="i.loclTRK" horiz-adv-x="518" 
d="M299 1331h205l-283 -1331h-205zM319 1599q9 49 53 81t109 32q66 0 95.5 -33.5t17.5 -89.5q-9 -46 -53 -78t-109 -32q-66 0 -95 33t-18 87z" />
    <glyph glyph-name="uni006A0301" horiz-adv-x="518" 
d="M12 -10l287 1341h205l-297 -1390q-34 -161 -82 -245.5t-129 -121.5t-221 -37h-221l38 178h138q75 0 118.5 10t76 42.5t50 82t37.5 140.5zM137 1530l617 153l14 -77l-618 -154z" />
    <glyph glyph-name="w.ss02" horiz-adv-x="1966" 
d="M14 0l283 1331h203l-242 -1132l789 1132h319l-242 -1130l758 1130h221l-905 -1331h-317l243 1149l-790 -1149h-320z" />
    <glyph glyph-name="zero.ss01" horiz-adv-x="1257" 
d="M547 -18q-277 0 -394 168.5t-57 451.5l119 555q28 132 71.5 230t111 173t165 113.5t225.5 38.5q274 0 393 -167.5t58 -454.5l-117 -555q-22 -102 -52.5 -183t-78 -152t-108.5 -118t-146 -73.5t-190 -26.5zM289 459l731 956q-58 119 -232 119q-147 0 -231.5 -88.5
t-124.5 -278.5l-127 -604q-13 -62 -16 -104zM313 281q57 -121 236 -121q153 0 234 90t120 274l127 602q15 80 17 117z" />
    <glyph glyph-name="one.ss01" horiz-adv-x="950" 
d="M-20 180h315l270 1252q-70 -65 -152 -96t-206 -31l39 190q210 0 383 197h196l-321 -1512h313l-37 -180h-837z" />
    <glyph glyph-name="two.ss01" horiz-adv-x="1198" 
d="M-6 190q18 91 41.5 161t62 138.5t92.5 122.5t131.5 104.5t180.5 94.5l207 111q133 56 211 126.5t102 186.5l8 39q55 260 -244 260q-152 0 -230 -67.5t-110 -235.5l-18 -86h-217l16 84q46 245 181 364t380 119q256 0 376 -132.5t73 -362.5q-67 -320 -430 -465l-219 -115
q-83 -37 -142 -74.5t-98 -74.5t-66 -87t-42 -98.5t-31 -122.5h799l-39 -180h-1016z" />
    <glyph glyph-name="three.ss01" horiz-adv-x="1198" 
d="M498 -20q-531 0 -463 479l14 65h213l-18 -86q-22 -158 41.5 -219t212.5 -61q146 0 222.5 59.5t104.5 194.5l21 98q9 55 10 96.5t-13 71.5t-33 50t-50 31.5t-64 16t-75 4.5h-189l39 181h180q47 0 84 4t79 18t72.5 37.5t56.5 65.5t38 100l16 86q29 141 -33 201.5t-206 60.5
q-140 0 -220.5 -61.5t-105.5 -212.5l-14 -72h-213l14 67q38 231 166 344t373 113q265 0 380 -131t68 -348l-6 -29q-27 -129 -102 -215.5t-195 -118.5q108 -44 144.5 -157t5.5 -258l-11 -39q-21 -104 -60.5 -182t-104 -136t-159.5 -88t-220 -30z" />
    <glyph glyph-name="four.ss01" horiz-adv-x="1150" 
d="M1153 1692l-250 -1172h158l-39 -180h-158l-71 -340h-211l71 340h-671l38 195l926 1157h207zM205 520h487l176 826z" />
    <glyph glyph-name="five.ss01" horiz-adv-x="1189" 
d="M719 1135q217 0 324.5 -134.5t60.5 -359.5l-39 -184q-49 -237 -179 -357t-372 -120q-257 0 -374.5 127.5t-86.5 359.5l10 53h216l-17 -76q-20 -146 45 -215t211 -69q137 0 216 66t110 210l43 207q31 147 -27.5 227t-206.5 80q-114 0 -187.5 -58.5t-137.5 -176.5h-209
l256 977h878l-39 -181h-684l-139 -514q129 138 328 138z" />
    <glyph glyph-name="six.ss01" horiz-adv-x="1224" 
d="M545 -20q-275 0 -394 142t-63 402l145 703q25 119 63 204.5t100 151t155.5 97.5t220.5 32q253 0 365.5 -126t81.5 -349h-213l2 8q20 143 -40.5 208t-197.5 65q-143 0 -214.5 -69.5t-104.5 -229.5l-45 -209q118 127 327 127q144 0 244.5 -58.5t142 -172.5t8.5 -267
l-43 -203q-49 -231 -174.5 -343.5t-365.5 -112.5zM289 461q-63 -303 262 -303q139 0 213.5 66t105.5 216l43 205q32 154 -32.5 230.5t-216.5 76.5q-274 0 -330 -280z" />
    <glyph glyph-name="seven.ss01" horiz-adv-x="1038" 
d="M209 1511l41 181h948l-37 -181q-119 -107 -217 -222t-172.5 -236.5t-131 -237.5t-103.5 -255t-79.5 -257t-68.5 -274l-6 -29h-211l8 39q36 179 76 325t102.5 306.5t141 297t192 277.5t254.5 266h-737z" />
    <glyph glyph-name="eight.ss01" horiz-adv-x="1214" 
d="M520 -20q-274 0 -393.5 124t-73.5 355l15 63q70 336 342 383q-99 36 -145 129.5t-13 237.5l14 59q41 187 162.5 284t339.5 97q253 0 374.5 -120.5t76.5 -315.5l-15 -62q-58 -266 -301 -321q114 -34 163.5 -142.5t8.5 -287.5l-14 -64q-48 -218 -175.5 -318.5
t-365.5 -100.5zM262 426q-30 -148 34.5 -210t223.5 -62q141 0 217 55t107 197l26 129q30 142 -31 204t-221 62q-143 0 -222 -56t-107 -192zM457 1212q-47 -231 231 -231q253 0 299 217l21 107q23 115 -36 174t-204 59q-126 0 -196 -51.5t-93 -167.5z" />
    <glyph glyph-name="nine.ss01" horiz-adv-x="1224" 
d="M528 -20q-253 0 -365 126t-81 349h213l-2 -9q-20 -143 40 -207.5t197 -64.5q143 0 214.5 68.5t105.5 230.5l45 209q-123 -129 -328 -129q-220 0 -332.5 135t-62.5 365l43 200q48 229 174 344t367 115q276 0 394 -143.5t62 -403.5l-145 -700q-19 -93 -45.5 -163.5
t-69 -133t-99.5 -102.5t-139 -63t-186 -23zM387 1047q-32 -156 33 -233t217 -77q135 0 218.5 71.5t111.5 211.5l45 209q32 156 -34 230.5t-228 74.5q-139 0 -214 -66.5t-106 -214.5z" />
    <glyph glyph-name="zero.tf" 
d="M731 -20q-139 0 -248.5 38t-180.5 107.5t-112 168.5t-43.5 220t25.5 262l59 283q134 653 705 653q172 0 298 -57t194 -161.5t88 -251.5t-21 -327l-59 -282q-137 -653 -705 -653zM369 420l874 981q-94 127 -307 127q-112 0 -198.5 -36.5t-143 -104.5t-92 -150t-58.5 -188
l-65 -310q-41 -185 -10 -319zM426 291q91 -127 305 -127q90 0 164 24.5t126 66.5t92.5 104t65.5 130.5t42 153.5l65 309q40 186 12 320z" />
    <glyph glyph-name="one.tf" 
d="M236 184h405l272 1262q-91 -77 -199.5 -113.5t-254.5 -36.5l39 195q262 0 469 201h204l-321 -1508h405l-38 -184h-1020z" />
    <glyph glyph-name="two.tf" 
d="M76 195q21 102 49 180.5t76 152.5t114 129t163 101.5t224 79.5l232 73q177 43 275 112t126 196l2 14q33 153 -64.5 224t-287.5 71q-218 0 -327 -86.5t-144 -284.5l-12 -59h-217l12 57q35 186 114 306.5t222 185.5t354 65q197 0 334.5 -58.5t199.5 -179t27 -290.5
q-37 -174 -163 -280.5t-359 -162.5l-252 -79q-90 -23 -157.5 -49.5t-116.5 -60t-82.5 -68.5t-57.5 -85t-39 -97.5t-30 -117.5h1034l-39 -184h-1251z" />
    <glyph glyph-name="three.tf" 
d="M709 -20q-328 0 -470 127.5t-116 392.5l8 32h215l-10 -43q-15 -181 73.5 -253t299.5 -72q201 0 302 61.5t130 200.5l10 53q34 159 -49.5 226t-280.5 67h-229l39 184h227q91 0 154.5 8.5t123.5 32t97 71t53 120.5l8 45q32 153 -55.5 224t-290.5 71q-191 0 -298 -70.5
t-132 -240.5l-8 -37h-215l6 32q33 251 188.5 375.5t458.5 124.5q131 0 235 -25t171.5 -70t109.5 -108t49.5 -139.5t-8.5 -163.5l-2 -14q-25 -128 -107 -214.5t-218 -117.5q64 -23 108 -66t64 -98t24 -121t-12 -135l-4 -20q-44 -219 -199.5 -329.5t-449.5 -110.5z" />
    <glyph glyph-name="four.tf" 
d="M1452 1692l-248 -1164h205l-39 -184h-205l-73 -344h-211l73 344h-880l39 193l1128 1155h211zM324 528h669l185 867z" />
    <glyph glyph-name="five.tf" 
d="M938 1135q126 0 227 -40.5t164 -115.5t86.5 -182t-4.5 -240l-20 -94q-51 -234 -214 -358.5t-440 -124.5q-296 0 -454.5 138.5t-124.5 370.5l6 43h217l-10 -55q-20 -151 80.5 -232t289.5 -81q367 0 435 299l22 106q36 184 -50 282.5t-274 98.5q-290 0 -450 -241h-213
l266 983h1063l-39 -185h-868l-156 -553q187 181 461 181z" />
    <glyph glyph-name="six.tf" 
d="M743 -20q-346 0 -489 162.5t-82 459.5l115 547q29 139 77.5 240t127 175t193 111t267.5 37q304 0 446 -129.5t111 -357.5l-6 -31h-215l6 35q21 151 -67.5 221t-280.5 70q-190 0 -294.5 -84.5t-145.5 -276.5l-41 -198q162 180 453 180q135 0 241 -39.5t172 -113t90.5 -179
t-4.5 -236.5l-22 -104q-24 -115 -70 -202t-122.5 -153t-192 -100t-267.5 -34zM373 530q-37 -170 54 -268t321 -98q191 0 294.5 76.5t137.5 236.5l22 107q74 368 -360 368q-379 0 -447 -313z" />
    <glyph glyph-name="seven.tf" 
d="M360 1507l39 185h1188l-37 -187q-127 -85 -235.5 -183t-189 -195t-149.5 -210.5t-116.5 -216t-90 -227t-70 -227.5t-56.5 -232l-2 -14h-213l4 20q25 123 51 226.5t66 226t87 227t114 218.5t146 212t183.5 196t227.5 181h-947z" />
    <glyph glyph-name="eight.tf" 
d="M725 -20q-336 0 -487 136.5t-103 379.5l6 30q68 328 394 385q-112 37 -167 141t-24 251l6 28q81 381 594 381q310 0 459 -127.5t104 -333.5l-8 -30q-28 -135 -116.5 -216.5t-217.5 -109.5q131 -38 189.5 -157t21.5 -296l-6 -30q-46 -220 -201.5 -326t-443.5 -106z
M346 473q-34 -162 58.5 -238.5t318.5 -76.5q196 0 299 62t133 210l14 68q32 159 -57 233t-317 74q-194 0 -300 -62t-135 -204zM551 1249q-27 -128 58.5 -195t285.5 -67q172 0 268 56t121 174l10 53q27 130 -59.5 197t-288.5 67q-173 0 -266 -55t-119 -176z" />
    <glyph glyph-name="nine.tf" 
d="M926 1712q346 0 489 -162.5t82 -459.5l-115 -547q-29 -139 -77.5 -240t-127 -175t-193 -111t-267.5 -37q-304 0 -446 129.5t-111 357.5l6 31h215l-6 -35q-21 -151 67.5 -221t280.5 -70q191 0 295 84t145 276l41 199q-162 -180 -452 -180q-135 0 -241 39.5t-172.5 113
t-90.5 178.5t4 236l22 105q24 115 70 202t122.5 153t192 100t267.5 34zM467 1108q-75 -369 360 -369q378 0 447 314l22 108q37 171 -53.5 269t-320.5 98q-191 0 -295 -77t-138 -237z" />
    <glyph glyph-name="zero.dnom" horiz-adv-x="802" 
d="M303 -10q-180 0 -257 108.5t-38 292.5l29 137q67 328 360 328q178 0 255.5 -107t39.5 -294l-28 -140q-66 -325 -361 -325zM133 254l402 428q-44 53 -138 53q-93 0 -146 -52.5t-75 -160.5l-33 -155q-13 -57 -10 -113zM164 164q44 -53 139 -53q91 0 143.5 50t77.5 163
l33 155q13 65 10 111z" />
    <glyph glyph-name="one.dnom" horiz-adv-x="610" 
d="M-49 119h194l125 573q-45 -32 -94.5 -45.5t-124.5 -13.5l25 125q132 0 231 88h129l-155 -727h198l-26 -119h-529z" />
    <glyph glyph-name="two.dnom" horiz-adv-x="778" 
d="M-47 127q17 83 49 140t95 101t159 66l125 35q84 19 127.5 47.5t54.5 83.5l2 12q13 63 -27.5 94t-129.5 31q-100 0 -147.5 -37.5t-61.5 -119.5l-6 -25h-142l6 23q27 139 111 208.5t242 69.5q160 0 239 -74t53 -198q-19 -91 -79.5 -145t-178.5 -83l-141 -39
q-113 -27 -151.5 -68.5t-57.5 -129.5h506l-27 -119h-647z" />
    <glyph glyph-name="three.dnom" horiz-adv-x="765" 
d="M268 -10q-174 0 -243.5 64t-57.5 200l2 16h142l-7 -22q-6 -81 31.5 -112.5t132.5 -31.5t138 26t57 87l6 29q15 69 -22.5 100t-129.5 31h-112l26 110h109q85 0 132 22.5t60 80.5l5 24q14 65 -25 96t-133 31q-170 0 -191 -137l-4 -18h-139l4 16q39 254 336 254
q170 0 242 -72t47 -186l-2 -6q-11 -60 -54 -103.5t-110 -58.5q63 -23 88 -81t8 -138v-6q-24 -108 -102.5 -161.5t-233.5 -53.5z" />
    <glyph glyph-name="four.dnom" horiz-adv-x="751" 
d="M643 846l-121 -565h101l-27 -121h-98l-35 -160h-137l34 160h-430l25 125l553 561h135zM90 281h295l80 378z" />
    <glyph glyph-name="five.dnom" horiz-adv-x="763" 
d="M358 567q148 0 221.5 -78.5t45.5 -207.5l-11 -48q-26 -121 -103.5 -182t-221.5 -61q-160 0 -243.5 70.5t-68.5 191.5l3 14h139l-4 -20q-4 -66 42 -100.5t134 -34.5q81 0 125.5 31.5t58.5 97.5l12 53q15 76 -27.5 113.5t-140.5 37.5q-64 0 -103 -21t-79 -73h-135l135 496
h572l-27 -119h-444l-64 -221q73 61 184 61z" />
    <glyph glyph-name="six.dnom" horiz-adv-x="788" 
d="M301 -10q-180 0 -256 83.5t-43 237.5l55 269q30 145 107.5 210.5t236.5 65.5q157 0 228.5 -62.5t62.5 -183.5h-139v2q5 62 -31 90.5t-119 28.5q-93 0 -140 -35t-64 -118l-15 -74q72 69 203 69q140 0 213 -78.5t47 -205.5l-10 -53q-26 -122 -105.5 -184t-230.5 -62z
M133 266q-16 -73 23 -114t147 -41q169 0 193 129l12 53q16 79 -21.5 119.5t-142.5 40.5q-172 0 -201 -134z" />
    <glyph glyph-name="seven.dnom" horiz-adv-x="665" 
d="M33 727l24 119h613l-25 -121q-89 -62 -158.5 -135t-113 -139t-78 -149t-52 -146t-36.5 -148l-2 -8h-139l4 12q17 83 35.5 151t52 150.5t76.5 150t109.5 137.5t148.5 126h-459z" />
    <glyph glyph-name="eight.dnom" horiz-adv-x="778" 
d="M285 -10q-179 0 -256.5 69t-53.5 191l2 12q35 164 193 191q-55 18 -81.5 68t-12.5 124l2 10q21 101 96 151t217 50q165 0 242 -65t55 -173l-2 -10q-14 -68 -58 -108.5t-106 -53.5q62 -21 90.5 -81t8.5 -146l-3 -12q-24 -111 -103 -164t-230 -53zM113 240q-14 -70 27 -103
t143 -33q92 0 138 26t58 89l8 35q12 68 -26.5 99.5t-147.5 31.5q-170 0 -192 -111zM211 616q-11 -57 26.5 -84.5t133.5 -27.5q79 0 121 22.5t51 75.5l6 27q11 57 -26 84.5t-134 27.5q-80 0 -121 -22t-53 -76z" />
    <glyph glyph-name="nine.dnom" horiz-adv-x="788" 
d="M385 856q179 0 254.5 -83.5t42.5 -237.5l-55 -269q-29 -145 -105 -210.5t-237 -65.5q-155 0 -228.5 62t-62.5 184h139l-2 -3q-4 -63 32 -90.5t120 -27.5q92 0 138.5 35t65.5 118l15 74q-76 -70 -203 -70q-143 0 -215 80.5t-45 204.5l10 53q24 121 103 183.5t233 62.5z
M178 553q-16 -79 22.5 -119.5t141.5 -40.5q171 0 199 133l12 54q15 77 -25.5 116t-144.5 39q-169 0 -195 -129z" />
    <glyph glyph-name="zero.numr" horiz-adv-x="802" 
d="M485 850q-180 0 -257 108.5t-38 292.5l29 138q67 327 361 327q178 0 255 -107t39 -294l-28 -139q-66 -326 -361 -326zM315 1114l402 428q-44 53 -137 53q-94 0 -147 -52.5t-75 -160.5l-32 -155q-14 -61 -11 -113zM346 1024q44 -53 139 -53q92 0 144.5 50t77.5 163l32 155
q14 69 11 111z" />
    <glyph glyph-name="one.numr" horiz-adv-x="610" 
d="M131 965h195l125 573q-45 -31 -95 -45t-125 -14l25 125q132 0 231 88h129l-155 -727h198l-26 -119h-529z" />
    <glyph glyph-name="two.numr" horiz-adv-x="778" 
d="M135 987q17 83 49 140t95 101t159 66l125 35q84 19 127.5 47.5t54.5 83.5l3 13q13 63 -27.5 93.5t-130.5 30.5q-100 0 -147.5 -37.5t-61.5 -119.5l-6 -25h-142l7 23q27 139 110.5 208.5t241.5 69.5q160 0 239.5 -74t53.5 -198q-19 -90 -79 -144t-179 -83l-142 -39
q-113 -27 -151.5 -69t-57.5 -130h506l-26 -119h-647z" />
    <glyph glyph-name="three.numr" horiz-adv-x="765" 
d="M451 840q-174 0 -243.5 64t-57.5 200l2 16h141l-6 -22q-6 -81 31.5 -112.5t132.5 -31.5t137.5 26t56.5 87l6 29q15 69 -22 100t-129 31h-113l27 110h108q86 0 133 22.5t60 80.5l4 24q14 65 -25 96t-133 31q-169 0 -190 -137l-4 -18h-140l4 16q39 254 336 254
q170 0 242 -72t47 -186l-2 -6q-11 -60 -54 -103.5t-110 -58.5q63 -23 88 -81t8 -138v-6q-24 -108 -102 -161.5t-233 -53.5z" />
    <glyph glyph-name="four.numr" horiz-adv-x="749" 
d="M825 1706l-120 -565h100l-27 -121h-98l-35 -160h-137l35 160h-430l24 125l553 561h135zM272 1141h295l80 379z" />
    <glyph glyph-name="five.numr" horiz-adv-x="761" 
d="M539 1413q148 0 221 -79t45 -208l-10 -47q-26 -121 -104 -182t-222 -61q-160 0 -243 70.5t-68 191.5l2 14h139l-4 -20q-4 -67 42 -101.5t134 -34.5q81 0 125.5 31.5t58.5 97.5l13 54q15 76 -27.5 113.5t-140.5 37.5q-64 0 -103.5 -21.5t-79.5 -72.5h-135l135 496h572
l-27 -119h-444l-64 -221q73 61 185 61z" />
    <glyph glyph-name="six.numr" horiz-adv-x="788" 
d="M485 850q-180 0 -256 83.5t-43 237.5l56 269q30 145 107.5 210.5t236.5 65.5q157 0 228.5 -62.5t62.5 -183.5h-140v3q5 62 -30.5 90t-118.5 28q-93 0 -140.5 -35t-64.5 -118l-14 -74q73 70 202 70q140 0 213 -79t47 -206l-10 -53q-26 -122 -105.5 -184t-230.5 -62z
M317 1126q-16 -73 23 -114t147 -41q169 0 193 129l12 53q16 79 -21.5 119.5t-142.5 40.5q-171 0 -200 -133z" />
    <glyph glyph-name="seven.numr" horiz-adv-x="665" 
d="M213 1573l25 119h612l-25 -121q-89 -62 -158.5 -135t-113 -139t-78 -149t-52 -146t-36.5 -148l-2 -8h-139l4 12q17 83 35.5 151t52 150.5t76.5 150t109.5 137.5t148.5 126h-459z" />
    <glyph glyph-name="eight.numr" horiz-adv-x="778" 
d="M467 850q-178 0 -255.5 69t-53.5 191l2 12q35 164 192 191q-55 18 -81.5 68t-12.5 124l2 11q21 100 96 150t217 50q165 0 242 -64.5t55 -172.5l-2 -11q-14 -68 -57.5 -108t-105.5 -53q62 -21 90 -81t8 -147l-2 -12q-24 -111 -103.5 -164t-230.5 -53zM295 1100
q-14 -69 27 -102t143 -33q92 0 138.5 25.5t58.5 88.5l8 35q12 68 -26.5 99.5t-147.5 31.5q-171 0 -193 -110zM393 1477q-11 -57 26.5 -85t133.5 -28q79 0 121 22.5t51 75.5l6 27q11 57 -26 85t-134 28q-80 0 -121 -22.5t-53 -76.5z" />
    <glyph glyph-name="nine.numr" horiz-adv-x="788" 
d="M567 1716q179 0 254.5 -83.5t42.5 -237.5l-55 -269q-29 -145 -105 -210.5t-237 -65.5q-155 0 -228.5 62t-62.5 184h139l-2 -2q-4 -63 32 -91t120 -28q92 0 139 35t66 118l14 74q-75 -69 -203 -69q-143 0 -215 80t-45 204l10 53q24 121 103 183.5t233 62.5zM360 1413
q-16 -79 22.5 -119.5t141.5 -40.5q171 0 199 133l12 54q15 77 -25.5 116t-144.5 39q-168 0 -194 -129z" />
    <glyph glyph-name="exclamdown.case" horiz-adv-x="546" 
d="M236 0h-205l264 1180h182zM324 1577q12 59 60.5 97t107.5 38q60 0 92.5 -39.5t17.5 -103.5q-13 -61 -61 -99t-109 -38q-59 0 -91 39.5t-17 105.5z" />
    <glyph glyph-name="questiondown.case" horiz-adv-x="1204" 
d="M498 -74q-251 0 -375.5 108t-124.5 294q0 91 32 164.5t84.5 124t116.5 94.5t131.5 87.5t126.5 91t105 116.5t63 153l7 31h190l-6 -31q-20 -103 -66 -186.5t-103 -138t-121 -100.5t-124.5 -85t-110 -81t-80 -99.5t-32.5 -128.5q0 -111 72.5 -175.5t220.5 -64.5
q341 0 379 351l8 51h213l-8 -49q-71 -527 -598 -527zM678 1524q12 59 60.5 97t107.5 38q60 0 92.5 -39.5t17.5 -103.5q-13 -61 -61 -99.5t-109 -38.5q-59 0 -91 40t-17 106z" />
    <glyph glyph-name="hyphen.case" horiz-adv-x="1576" 
d="M129 844h1384l-10 -90h-1386z" />
    <glyph glyph-name="endash.case" horiz-adv-x="1767" 
d="M129 846h1573l-8 -90h-1575z" />
    <glyph glyph-name="emdash.case" horiz-adv-x="2904" 
d="M129 846h2714l-13 -92h-2713z" />
    <glyph glyph-name="parenleft.case" horiz-adv-x="616" 
d="M311 -195q-289 592 -159 1135q68 280 203 492.5t386 447.5h129q-138 -130 -231 -233.5t-171.5 -217.5t-129.5 -234.5t-86 -266.5q-48 -183 -40.5 -371t58 -366.5t150.5 -385.5h-109z" />
    <glyph glyph-name="parenright.case" horiz-adv-x="616" 
d="M381 1886q289 -593 160 -1134q-68 -280 -203 -492t-387 -448h-129q138 130 231 233.5t171.5 217.5t129.5 234.5t86 266.5q48 183 40.5 370.5t-58 366t-150.5 385.5h109z" />
    <glyph glyph-name="braceleft.case" horiz-adv-x="604" 
d="M158 963q37 5 69.5 51.5t51.5 136.5l86 403q40 187 119 261.5t218 74.5h125l-20 -94h-117q-91 0 -143.5 -59t-79.5 -183l-86 -405q-26 -115 -54 -166t-89 -84l-21 -94q44 -36 52.5 -90.5t-15.5 -165.5l-86 -404q-27 -123 10.5 -178t138.5 -55h93l-21 -96h-86
q-307 0 -233 346l84 403q20 92 9.5 132.5t-50.5 45.5z" />
    <glyph glyph-name="braceright.case" horiz-adv-x="604" 
d="M524 739q-37 -5 -69.5 -51.5t-51.5 -136.5l-86 -404q-40 -187 -118.5 -261t-218.5 -74h-125l20 94h117q92 0 144 59t79 182l86 406q26 115 54 166t89 84l21 94q-44 36 -52.5 90.5t15.5 165.5l86 403q27 123 -10.5 178.5t-138.5 55.5h-93l21 96h86q307 0 233 -346
l-84 -403q-20 -92 -9.5 -133t50.5 -46z" />
    <glyph glyph-name="bracketleft.case" horiz-adv-x="641" 
d="M870 1890l-20 -88h-338l-403 -1900h337l-20 -90h-440l444 2078h440z" />
    <glyph glyph-name="bracketright.case" horiz-adv-x="638" 
d="M-154 -193l21 89h338l403 1900h-338l21 90h440l-444 -2079h-441z" />
    <glyph glyph-name="at.case" horiz-adv-x="1748" 
d="M807 16q-188 0 -331.5 60.5t-231 176t-114 284t19.5 385.5q79 369 327.5 573.5t607.5 204.5q240 0 396.5 -94.5t215 -282t-2.5 -467.5q-52 -238 -153 -366t-249 -128q-85 0 -135 46t-53 131q-131 -185 -344 -185q-181 0 -266 143t-33 382q47 219 183 347t312 128
q102 0 172.5 -44.5t102.5 -129.5l33 155h147l-151 -704q-38 -182 69 -182q85 0 152 105t110 302q57 254 7 421t-184.5 249t-346.5 82q-305 0 -525 -184t-292 -521q-41 -193 -18.5 -341.5t99.5 -250t202 -153.5t290 -52q130 0 270 23t228 57l-18 -92q-94 -35 -228.5 -56.5
t-267.5 -21.5zM608 877q-41 -186 14.5 -288t194.5 -102q267 0 344 367q38 180 -14 273.5t-186 93.5q-132 0 -224 -90t-129 -254z" />
    <glyph glyph-name="ampersand.ss01" horiz-adv-x="1255" 
d="M489 -20q-255 0 -366 128.5t-64 346.5l13 57q68 303 311 358q-94 37 -136 134t-14 243l9 43q10 52 27.5 99t45 96.5t68.5 89t93.5 71t125.5 49t160 17.5q243 0 349 -116t69 -339l-13 -59h-209l17 80q22 146 -33.5 204t-187.5 58t-201.5 -61.5t-97.5 -196.5l-21 -90
q-9 -51 -10 -89t12.5 -65.5t31.5 -45.5t47.5 -28.5t60.5 -15t69 -4.5h258l27 127h209l-27 -127h123l-35 -168h-123l-73 -344q-50 -234 -172.5 -343t-342.5 -109zM266 422q-55 -270 228 -270q127 0 198 64t101 212l73 348h-256q-61 0 -108.5 -10.5t-92 -37t-75 -76.5
t-45.5 -124z" />
    <glyph glyph-name="cent.tf" 
d="M770 160h-29l-65 -303h-109l68 313q-232 41 -334 217.5t-47 446.5l39 178q19 85 50.5 158.5t84 141t121 115.5t165 76.5t212.5 28.5h8l65 303h109l-68 -311q214 -31 318 -169t76 -349l-9 -56h-204l10 62q20 144 -41.5 229t-188.5 107l-221 -1010q151 2 246 74t139 235
l17 64h204l-12 -60q-55 -235 -206.5 -363t-397.5 -128zM453 807q-40 -194 19 -311.5t202 -147.5l221 1006q-92 -3 -163.5 -33t-118 -81.5t-75 -111t-44.5 -131.5z" />
    </font>
</defs>
</svg>
