<?xml version="1.0" standalone="no"?>
<!DOCTYPE svg PUBLIC "-//W3C//DTD SVG 1.1//EN" "http://www.w3.org/Graphics/SVG/1.1/DTD/svg11.dtd" >
<svg xmlns="http://www.w3.org/2000/svg" xmlns:xlink="http://www.w3.org/1999/xlink" version="1.1">
<metadata>
Created by FontForge 20170731 at Thu Oct  5 16:22:24 2023
 By Aleksey,,,
Copyright (c) 2021 by Mathieu Desjardins. All rights reserved.
</metadata>
<defs>
<font id="PPFormula-SemiCondensedExtralightItalic" horiz-adv-x="1335" >
  <font-face 
    font-family="PP Formula Semi Cond Exlight"
    font-weight="200"
    font-style="italic"
    font-stretch="semi-condensed"
    units-per-em="2048"
    panose-1="0 0 0 0 0 0 0 0 0 0"
    ascent="1638"
    descent="-410"
    x-height="1331"
    cap-height="1671"
    bbox="-483 -451 3340 2095"
    underline-thickness="81"
    underline-position="-285"
    slope="-12"
    unicode-range="U+0020-FB02"
  />
<missing-glyph horiz-adv-x="1054" 
d="M864 1659v-2110h-667v2110h667zM352 -305h350v69h-215l148 99h67v69h-350v-69h148l-148 -99v-69zM352 -18h350v239h-350v-239zM352 346h350v240h-210v-119h71v49h70v-100h-211v170h-70v-240zM352 631h350v211h-69v-140h-281v-71zM352 752h211v147h139v70h-350v-70h140
v-78h-140v-69zM352 1026h350v72h-139v147h-211v-219zM352 1300h350v70h-139v78h139v70h-348v-70h138v-78h-140v-70zM422 51v101h211v-101h-211zM422 1098v76h70v-76h-70z" />
    <glyph glyph-name="fi" unicode="fi" horiz-adv-x="1212" 
d="M160 1331h276l19 84q10 49 21 83t34 73.5t55 63.5t85 40.5t122 16.5q86 0 209 -21l-16 -98q-87 18 -170 18q-62 0 -103.5 -12.5t-65 -40.5t-34.5 -56.5t-21 -76.5l-20 -94q11 4 23.5 7t29.5 5t31 3.5t38 2.5t39 1.5t45 0.5h46.5h53h54.5l-20 -102h-356l-263 -1229h-118
l262 1229h-277zM799 0l282 1331h121l-282 -1331h-121zM1098 1597q9 40 42.5 67.5t76.5 27.5q44 0 66 -29t13 -74q-8 -35 -41.5 -62.5t-76.5 -27.5t-65.5 28.5t-14.5 69.5z" />
    <glyph glyph-name="fl" unicode="fl" horiz-adv-x="1214" 
d="M160 1331h276l19 84q10 49 21 83t34 73.5t55 63.5t85 40.5t122 16.5q86 0 209 -21l-16 -98q-87 18 -170 18q-62 0 -103.5 -12.5t-65 -40.5t-34.5 -56.5t-21 -76.5l-20 -94q11 4 23.5 7t29.5 5t31 3.5t38 2.5t39 1.5t45 0.5h46.5h53h54.5l-20 -102h-356l-263 -1229h-118
l262 1229h-277zM799 0l356 1671h119l-354 -1671h-121z" />
    <glyph glyph-name=".notdef" horiz-adv-x="1054" 
d="M864 1659v-2110h-667v2110h667zM352 -305h350v69h-215l148 99h67v69h-350v-69h148l-148 -99v-69zM352 -18h350v239h-350v-239zM352 346h350v240h-210v-119h71v49h70v-100h-211v170h-70v-240zM352 631h350v211h-69v-140h-281v-71zM352 752h211v147h139v70h-350v-70h140
v-78h-140v-69zM352 1026h350v72h-139v147h-211v-219zM352 1300h350v70h-139v78h139v70h-348v-70h138v-78h-140v-70zM422 51v101h211v-101h-211zM422 1098v76h70v-76h-70z" />
    <glyph glyph-name=".null" horiz-adv-x="0" 
 />
    <glyph glyph-name="nonmarkingreturn" horiz-adv-x="682" 
 />
    <glyph glyph-name="space" unicode=" " horiz-adv-x="546" 
 />
    <glyph glyph-name="exclam" unicode="!" horiz-adv-x="462" 
d="M383 1671h119l-250 -1159h-115zM4 98q10 47 48 77t85 30q48 0 74.5 -33t13.5 -88q-9 -45 -47.5 -74.5t-85.5 -29.5q-49 0 -75 32.5t-13 85.5z" />
    <glyph glyph-name="quotedbl" unicode="&#x22;" horiz-adv-x="538" 
d="M328 1671h106l-110 -512h-107zM418 1159l110 512h107l-111 -512h-106z" />
    <glyph glyph-name="numbersign" unicode="#" horiz-adv-x="1746" 
d="M258 1128h543l401 543h111l-404 -543h432l402 543h110l-403 -543h307l-6 -86h-365l-331 -446h504l-7 -86h-561l-379 -510h-108l379 510h-432l-379 -510h-109l379 510h-291l8 86h347l329 446h-485zM514 596h432l330 446h-430z" />
    <glyph glyph-name="dollar" unicode="$" horiz-adv-x="1103" 
d="M492 -20l-43 2l-27 -125h-98l28 135q-177 34 -254.5 160t-44.5 335l21 99h125l-23 -109q-52 -322 201 -377l164 752l-52 35q-48 29 -83 54.5t-72 63.5t-58 79.5t-31.5 99t-2.5 123.5q21 183 131 284t311 101h41l27 123h96l-29 -136q161 -33 234 -150t43 -312l-13 -60
h-125l13 66q51 297 -176 348l-142 -653l62 -41q26 -16 46.5 -30t44.5 -33t42 -37t37.5 -42t31 -48.5t24.5 -55.5t16 -64t6 -73.5t-5 -83.5q-24 -214 -136.5 -322t-329.5 -108zM367 1307q-8 -65 1.5 -116t38 -89t61.5 -64t83 -55l16 -10l133 610h-18q-146 0 -221 -65.5
t-94 -210.5zM473 88h21q159 0 238.5 75t101.5 247q4 54 4.5 95.5t-12.5 78t-27.5 63.5t-40.5 52.5t-51.5 44t-59.5 38.5l-20 15z" />
    <glyph glyph-name="percent" unicode="%" horiz-adv-x="1497" 
d="M164 0l1134 1671h103l-1135 -1671h-102zM197 1364q14 64 43 121.5t72.5 104.5t106.5 74.5t136 27.5q59 0 105.5 -18.5t74.5 -50t45 -73.5t17 -90t-9 -98q-14 -64 -43 -121.5t-72.5 -104.5t-106.5 -74.5t-136 -27.5q-59 0 -105.5 18.5t-74.5 50t-45 73.5t-17 90t9 98z
M309 1364q-22 -101 12.5 -164t122.5 -63t148.5 62.5t83.5 164.5q23 100 -11 162.5t-122 62.5q-89 0 -150 -62t-84 -163zM782 309q14 64 43 121.5t73 104.5t107 74.5t136 27.5q59 0 105 -18.5t74 -50t44.5 -73.5t16.5 -90t-9 -98q-14 -64 -42.5 -121.5t-72 -104t-106 -74
t-135.5 -27.5q-97 0 -157.5 48.5t-77.5 121.5t1 159zM893 307q-21 -101 13 -163t122 -62q89 0 150 62t84 163q21 102 -13.5 165t-122.5 63q-89 0 -149.5 -62.5t-83.5 -165.5z" />
    <glyph glyph-name="ampersand" unicode="&#x26;" horiz-adv-x="1243" 
d="M485 -20q-103 0 -183.5 23.5t-130.5 65t-81 98.5t-34 124.5t10 142.5l12 62q68 303 313 360q-97 33 -140 135.5t-13 245.5l8 39q19 89 52 158t90.5 130t150.5 94.5t217 33.5q472 0 409 -441l-12 -57h-121l15 66q11 96 1 159.5t-51 102t-99 54t-144 15.5
q-178 0 -264.5 -75.5t-122.5 -247.5l-11 -45q-12 -67 -13 -117.5t18 -86.5t43.5 -59.5t64 -36.5t78 -18.5t86.5 -5.5h336l30 141h119l-28 -141h127l-21 -100h-129l-78 -373q-46 -222 -165 -334t-339 -112zM184 424q-69 -344 301 -344q166 0 255.5 81t129.5 269l78 369h-336
q-80 0 -141 -12.5t-117.5 -44.5t-95.5 -94t-59 -154z" />
    <glyph glyph-name="quotesingle" unicode="'" horiz-adv-x="337" 
d="M328 1671h106l-110 -512h-107z" />
    <glyph glyph-name="parenleft" unicode="(" horiz-adv-x="608" 
d="M272 -307q-278 567 -153 1108q63 274 197.5 490t379.5 452h127q-178 -174 -288.5 -309.5t-191 -293.5t-124.5 -345q-46 -184 -39 -368.5t55.5 -358t145.5 -375.5h-109z" />
    <glyph glyph-name="parenright" unicode=")" horiz-adv-x="608" 
d="M358 1747q279 -568 154 -1108q-63 -274 -198 -490t-380 -452h-127q133 130 224.5 234t169 218.5t128 234t83.5 261.5q46 184 39 368.5t-55.5 358t-145.5 375.5h108z" />
    <glyph glyph-name="asterisk" unicode="*" horiz-adv-x="743" 
d="M539 1659h82l-52 -240l211 101l27 -70l-207 -98l166 -99l-55 -69l-170 100l-52 -240h-81l51 240l-211 -100l-27 69l207 99l-166 98l55 70l170 -101z" />
    <glyph glyph-name="plus" unicode="+" horiz-adv-x="1361" 
d="M119 786l18 88h537l102 478h103l-103 -478h537l-19 -88h-536l-103 -475h-102l102 475h-536z" />
    <glyph glyph-name="comma" unicode="," horiz-adv-x="401" 
d="M-55 -117q47 15 103 55t77 82q-30 -40 -86 -40q-41 0 -63 28.5t-11 81.5q12 52 50 83.5t94 31.5q52 0 76 -37.5t12 -97.5q-37 -171 -275 -291z" />
    <glyph glyph-name="hyphen" unicode="-" horiz-adv-x="1343" 
d="M96 719h1176l-19 -86h-1175z" />
    <glyph glyph-name="period" unicode="." horiz-adv-x="405" 
d="M63 -20q-48 0 -74 32.5t-14 85.5q10 47 48 77t86 30t74.5 -33t13.5 -88q-9 -45 -48 -74.5t-86 -29.5z" />
    <glyph glyph-name="slash" unicode="/" horiz-adv-x="1077" 
d="M1249 1671l-1241 -1671h-108l1239 1671h110z" />
    <glyph glyph-name="zero" unicode="0" horiz-adv-x="1267" 
d="M547 -18q-113 0 -200.5 31.5t-141.5 89t-85 137t-30.5 176t21.5 205.5l108 516q19 92 45.5 167t73 149.5t106.5 125t149.5 82t199.5 31.5q111 0 197.5 -30.5t141.5 -87t86.5 -136t32 -177.5t-21.5 -212l-109 -514q-20 -92 -46.5 -167.5t-73 -149.5t-106.5 -124t-149 -81
t-198 -31zM221 317l852 1149q-83 121 -280 121q-102 0 -180 -33.5t-130.5 -97.5t-85.5 -144t-55 -186l-113 -520q-36 -167 -8 -289zM262 213q84 -129 285 -129q82 0 149 22.5t114.5 62t84.5 98.5t60.5 125.5t41.5 150.5l111 522q41 185 6 305z" />
    <glyph glyph-name="one" unicode="1" horiz-adv-x="925" 
d="M-37 102h359l299 1405q-74 -82 -177 -124t-221 -42l21 109q116 0 213.5 55t193.5 166h125l-334 -1569h357l-23 -102h-833z" />
    <glyph glyph-name="two" unicode="2" horiz-adv-x="1200" 
d="M-16 109q20 96 40.5 161.5t59 138t93 127t141 110t204.5 106.5l219 125q156 65 249 151t122 223l2 4q12 64 10.5 113.5t-21 86.5t-48 62t-70 40.5t-86 22.5t-96.5 7q-193 0 -298 -86.5t-145 -302.5l-14 -68h-125l15 70q46 251 182 371.5t387 120.5q239 0 358.5 -118.5
t71.5 -342.5q-66 -310 -444 -451l-218 -125q-85 -35 -147.5 -69.5t-110 -74t-79.5 -79t-57 -93.5t-40.5 -107t-32.5 -130h881l-20 -102h-1004z" />
    <glyph glyph-name="three" unicode="3" horiz-adv-x="1206" 
d="M494 -20q-514 0 -449 466l14 62h125l-16 -68q-14 -103 1.5 -173.5t61 -110t108.5 -56t155 -16.5q181 0 281 74t136 243l13 64q13 61 13 111.5t-11 86t-33 62.5t-48.5 43.5t-62 26.5t-69.5 14t-74 4h-197l23 102h192q53 0 96.5 4.5t98 22t95 47t75 83t49.5 126.5l12 49
q11 67 11 118t-19 89t-45.5 63.5t-68 41t-87 22t-102.5 6.5q-89 0 -155.5 -16t-121.5 -54.5t-90 -107.5t-51 -170l-10 -55h-125l12 57q35 225 162 338t377 113q254 0 366.5 -121.5t69.5 -331.5l-10 -43q-29 -128 -112.5 -218t-209.5 -116q117 -40 161 -149.5t14 -259.5
l-13 -54q-86 -419 -542 -419z" />
    <glyph glyph-name="four" unicode="4" horiz-adv-x="1146" 
d="M1122 1671l-256 -1198h185l-23 -102h-182l-80 -371h-121l78 371h-737l20 104l995 1196h121zM135 473h610l207 973z" />
    <glyph glyph-name="five" unicode="5" horiz-adv-x="1193" 
d="M717 1120q216 0 322 -140.5t57 -375.5l-39 -174q-98 -450 -547 -450q-236 0 -357 128t-85 347l10 53h125l-13 -59q-32 -186 58.5 -275.5t263.5 -89.5t278 86t144 266l39 178q39 192 -35.5 297t-241.5 105q-276 0 -436 -301h-127l252 956h836l-23 -102h-719l-170 -631
q156 182 408 182z" />
    <glyph glyph-name="six" unicode="6" horiz-adv-x="1239" 
d="M551 -20q-267 0 -385 139t-66 381l146 694q19 92 44.5 163t68 136t100 107t141 67t188.5 25q249 0 354 -126.5t70 -336.5l-6 -31h-125l6 33q64 354 -305 354q-174 0 -269.5 -90t-139.5 -299l-54 -254q136 178 400 178q109 0 195 -34t142 -98.5t75 -159t-7 -216.5
l-39 -178q-22 -107 -60 -186.5t-100 -141.5t-156 -94t-218 -32zM219 473q-42 -192 48.5 -290.5t287.5 -98.5q177 0 272.5 84t135.5 276l38 179q41 196 -48.5 294.5t-270.5 98.5q-168 0 -277.5 -93.5t-146.5 -267.5z" />
    <glyph glyph-name="seven" unicode="7" horiz-adv-x="1032" 
d="M203 1569l22 102h971l-20 -104q-150 -117 -271 -254.5t-206.5 -276.5t-157 -313t-120.5 -336.5t-99 -374.5l-3 -12h-120l4 16q49 252 111.5 454t158.5 400t235.5 372t325.5 327h-831z" />
    <glyph glyph-name="eight" unicode="8" horiz-adv-x="1210" 
d="M512 -20q-265 0 -383 119t-72 339l19 86q36 162 122.5 249t231.5 120q-103 36 -148.5 127t-17.5 225l19 84q79 363 485 363q242 0 357 -114.5t73 -297.5l-18 -84q-56 -255 -299 -317q121 -39 169 -142.5t13 -265.5l-19 -86q-45 -208 -172.5 -306.5t-359.5 -98.5zM178 422
q-19 -78 -10 -135.5t33.5 -96.5t71.5 -63t105 -34.5t134 -10.5q178 0 275 68.5t135 246.5l20 95q38 182 -43 258.5t-276 76.5q-181 0 -285 -70.5t-139 -240.5zM385 1225q-32 -149 45 -222t248 -73q320 0 379 272l20 90q31 150 -49.5 223.5t-255.5 73.5q-158 0 -247.5 -65.5
t-121.5 -208.5z" />
    <glyph glyph-name="nine" unicode="9" horiz-adv-x="1239" 
d="M762 1692q267 0 384.5 -139.5t65.5 -381.5l-145 -694q-19 -92 -44.5 -162.5t-68.5 -135.5t-100.5 -107t-141 -67t-188.5 -25q-127 0 -218.5 35t-140 96.5t-67 146t1.5 184.5l6 31h125l-6 -33q-64 -354 305 -354q174 0 270 90t140 299l53 254q-136 -178 -399 -178
q-109 0 -195.5 34t-142.5 98.5t-75 159.5t7 216l39 178q18 85 45 152t70 125t101 96.5t138.5 60t180.5 21.5zM311 1049q-41 -196 49 -295t271 -99q168 0 277.5 93.5t146.5 267.5l39 182q42 192 -48.5 290.5t-287.5 98.5q-177 0 -272.5 -84t-135.5 -276z" />
    <glyph glyph-name="colon" unicode=":" horiz-adv-x="471" 
d="M289 897q-48 0 -74 33t-14 86q10 47 47.5 76.5t85.5 29.5t74.5 -33t13.5 -88q-9 -45 -47.5 -74.5t-85.5 -29.5zM4 98q10 47 48 77t85 30q48 0 74.5 -33t13.5 -88q-9 -45 -47.5 -74.5t-85.5 -29.5q-48 0 -74 32.5t-14 85.5z" />
    <glyph glyph-name="semicolon" unicode=";" horiz-adv-x="458" 
d="M272 895q-48 0 -74 33t-14 86q10 47 47.5 76.5t85.5 29.5t75 -33t14 -88q-9 -45 -48 -74.5t-86 -29.5zM-47 -221l22 104q47 15 103.5 55t77.5 82q-30 -40 -86 -40q-41 0 -63 28.5t-11 81.5q12 52 49.5 83.5t93.5 31.5q52 0 76 -37.5t12 -97.5q-37 -172 -274 -291z" />
    <glyph glyph-name="less" unicode="&#x3c;" horiz-adv-x="1294" 
d="M121 872l1155 326l-21 -100l-985 -269l873 -264l-23 -100l-1016 326z" />
    <glyph glyph-name="equal" unicode="=" horiz-adv-x="1400" 
d="M182 1001h1176l-19 -86h-1175zM111 662l18 86h1176l-19 -86h-1175z" />
    <glyph glyph-name="greater" unicode="&#x3e;" horiz-adv-x="1290" 
d="M1239 791l-1155 -326l20 100l986 269l-873 264l23 100l1015 -326z" />
    <glyph glyph-name="question" unicode="?" horiz-adv-x="993" 
d="M676 1692q195 0 297 -91.5t102 -254.5q0 -81 -27.5 -149.5t-72.5 -119t-100.5 -97t-115 -95.5t-111.5 -102.5t-94 -129t-60 -164.5l-7 -32h-116l6 35q19 94 61 174.5t94 138t110.5 109t113.5 98.5t100 95t72.5 108.5t27.5 130.5q1 122 -74 183.5t-210 61.5
q-93 0 -162 -27t-112 -79t-66.5 -116.5t-34.5 -149.5l-12 -68h-121l14 72q60 469 498 469zM258 98q10 47 48 77t85 30q48 0 74.5 -33t13.5 -88q-9 -45 -47.5 -74.5t-85.5 -29.5q-48 0 -74 32.5t-14 85.5z" />
    <glyph glyph-name="at" unicode="@" horiz-adv-x="1581" 
d="M696 -133q-236 0 -387.5 98.5t-206.5 293.5t7 484q52 239 174.5 409.5t296 256.5t385.5 86q158 0 274.5 -49.5t188.5 -150.5t87 -255t-30 -364q-54 -237 -143 -363.5t-224 -126.5q-154 0 -160 158q-119 -170 -303 -170q-162 0 -230.5 136.5t-18.5 371.5q47 221 169 349
t283 128q170 0 227 -151l31 143h111l-148 -692q-39 -187 68 -187q70 0 131 102t104 302q59 253 18 415t-155.5 238t-298.5 76q-267 0 -467 -175t-270 -505q-57 -261 -7.5 -432t179.5 -254.5t332 -83.5q113 0 233 21t205 53l-21 -90q-196 -72 -434 -72zM518 682
q-45 -198 2.5 -302t171.5 -104q241 0 322 392q42 195 -0.5 293t-161.5 98q-121 0 -208 -96.5t-126 -280.5z" />
    <glyph glyph-name="A" unicode="A" horiz-adv-x="1155" 
d="M-100 0l813 1671h159l103 -1671h-127l-19 375h-618l-178 -375h-133zM262 481h561l-53 1045l-2 14l-6 -14z" />
    <glyph glyph-name="B" unicode="B" horiz-adv-x="1284" 
d="M25 0l354 1671h524q213 0 303 -108t43 -324l-8 -37q-56 -259 -278 -315q71 -27 117.5 -80t66.5 -140t-8 -204l-13 -53q-25 -117 -66 -196t-102 -126.5t-138 -67.5t-181 -20h-614zM170 106h416q102 0 166.5 12t115.5 46.5t80.5 94t50.5 155.5l15 59q77 356 -283 356h-407z
M346 936h385q62 0 104.5 4t91 19.5t81 43.5t61 78t43.5 121l10 41q39 180 -19 251t-233 71h-389z" />
    <glyph glyph-name="C" unicode="C" horiz-adv-x="1308" 
d="M584 -20q-186 0 -309.5 85.5t-166.5 237t-2 346.5l109 512q20 90 51 165.5t81.5 144.5t116 116.5t158 76t203.5 28.5q255 0 384.5 -142.5t93.5 -394.5l-35 -166h-127l35 170q16 114 -2.5 197t-68 132t-119 72t-161.5 23q-389 0 -481 -426l-113 -520q-55 -258 43 -403.5
t312 -145.5q186 0 303 95.5t160 305.5l41 193h129l-39 -188q-109 -514 -596 -514z" />
    <glyph glyph-name="D" unicode="D" horiz-adv-x="1327" 
d="M25 0l354 1671h440q281 0 410 -171t63 -480l-102 -477q-61 -282 -217 -412.5t-430 -130.5h-518zM170 104h354q166 0 274 49t169.5 145.5t95.5 256.5l100 465q58 272 -28.5 409.5t-331.5 137.5h-322z" />
    <glyph glyph-name="E" unicode="E" horiz-adv-x="1118" 
d="M25 0l354 1671h858l-23 -106h-733l-143 -676h704l-20 -107h-709l-143 -676h735l-24 -106h-856z" />
    <glyph glyph-name="F" unicode="F" horiz-adv-x="1089" 
d="M25 0l354 1671h860l-22 -106h-736l-162 -758h711l-22 -107h-711l-150 -700h-122z" />
    <glyph glyph-name="G" unicode="G" 
d="M575 -20q-115 0 -206.5 34t-150 95t-93.5 146t-36.5 188t20.5 221l108 512q25 112 70 202.5t116.5 162.5t177.5 111.5t240 39.5q255 0 389 -149.5t97 -395.5l-25 -111h-127l25 117q17 109 -2 192t-69.5 134.5t-123.5 77.5t-166 26q-385 0 -473 -412l-110 -520
q-56 -267 36 -414t316 -147q191 0 302.5 108t168.5 330l41 187h-486l23 102h612l-174 -817h-94l39 211q-162 -231 -445 -231z" />
    <glyph glyph-name="H" unicode="H" 
d="M905 0l166 782h-756l-165 -782h-125l354 1671h125l-166 -782h756l166 782h122l-352 -1671h-125z" />
    <glyph glyph-name="I" unicode="I" horiz-adv-x="765" 
d="M-41 0l27 113h219l305 1446h-221l24 112h564l-25 -112h-219l-305 -1446h221l-25 -113h-565z" />
    <glyph glyph-name="J" unicode="J" horiz-adv-x="1153" 
d="M444 -20q-168 0 -272 71t-139 193t-10 288l20 95h127l-23 -101q-33 -226 43 -333t256 -107q103 0 175 37.5t127 130.5t88 250l249 1167h125l-247 -1169q-22 -101 -48 -176.5t-67.5 -143.5t-95.5 -110.5t-131.5 -67t-176.5 -24.5z" />
    <glyph glyph-name="K" unicode="K" horiz-adv-x="1198" 
d="M889 0l-461 780h-113l-165 -780h-125l354 1671h125l-166 -780h98l799 780h160l-863 -835l508 -836h-151z" />
    <glyph glyph-name="L" unicode="L" horiz-adv-x="1044" 
d="M25 0l354 1671h125l-332 -1565h727l-25 -106h-849z" />
    <glyph glyph-name="M" unicode="M" horiz-adv-x="1566" 
d="M25 0l354 1671h158l147 -1470l772 1470h160l-356 -1671h-119l301 1409l-742 -1409h-114l-144 1413l-299 -1413h-118z" />
    <glyph glyph-name="N" unicode="N" horiz-adv-x="1363" 
d="M25 0l354 1671h121l493 -1417l301 1417h119l-354 -1671h-121l-494 1417l-301 -1417h-118z" />
    <glyph glyph-name="O" unicode="O" horiz-adv-x="1345" 
d="M596 -20q-193 0 -319.5 83.5t-170.5 231t-4 338.5l111 512q19 92 50 170t81 149t115.5 120.5t158 78.5t203.5 29q191 0 318 -83.5t172.5 -231.5t5.5 -339l-111 -512q-24 -117 -68.5 -211t-115.5 -171.5t-179.5 -120.5t-246.5 -43zM229 621q-55 -254 44 -393.5t323 -139.5
q391 0 481 440l111 523q56 253 -44 392.5t-323 139.5q-388 0 -481 -440z" />
    <glyph glyph-name="P" unicode="P" horiz-adv-x="1269" 
d="M25 0l354 1671h522q129 0 219 -42t134.5 -117.5t56 -180.5t-16.5 -231l-8 -45q-32 -161 -96.5 -260t-180 -150t-292.5 -51h-443l-127 -594h-122zM297 698h426q201 0 297.5 81t136.5 278l12 57q23 100 18.5 183t-33 143t-95 93.5t-168.5 33.5h-410z" />
    <glyph glyph-name="Q" unicode="Q" horiz-adv-x="1345" 
d="M596 88q391 0 481 440l111 523q56 253 -44 392.5t-323 139.5q-388 0 -481 -440l-111 -522q-55 -254 44 -393.5t323 -139.5zM102 633l111 512q19 92 50 170t81 149t115.5 120.5t158 78.5t203.5 29q191 0 318 -83.5t172.5 -231.5t5.5 -339l-111 -512q-18 -86 -46 -159.5
t-72.5 -141t-102.5 -117t-138.5 -83t-176.5 -41.5q172 -29 295 -113l-27 -123q-132 87 -244 123t-284 37l18 90q-205 51 -291 221t-35 414z" />
    <glyph glyph-name="R" unicode="R" horiz-adv-x="1292" 
d="M924 0q-18 34 8 150l53 243q80 359 -285 359h-393l-160 -752h-122l354 1671h516q229 0 333.5 -126t55.5 -349l-10 -43q-33 -149 -111.5 -234.5t-218.5 -117.5q108 -42 154 -151.5t12 -262.5l-51 -240q-26 -114 -8 -147h-127zM330 858h401q89 0 155 13.5t109 36.5
t73.5 61.5t47 79.5t29.5 100l8 35q16 75 17.5 133t-11.5 100t-37.5 71t-64 46.5t-87.5 25t-112 7.5h-377z" />
    <glyph glyph-name="S" unicode="S" horiz-adv-x="1161" 
d="M520 -20q-270 0 -390.5 129t-82.5 378l21 99h127l-21 -109q-33 -205 54.5 -297t293.5 -92q178 0 262.5 74t104.5 248v2q4 37 4.5 69.5t-2.5 58.5t-11 50t-17.5 42.5t-24.5 36t-29.5 30.5t-35.5 28t-39 26t-44 25l-176 111q-55 31 -90.5 54t-76.5 61t-62.5 77.5t-33 97.5
t-3.5 128q44 385 473 385q251 0 365.5 -120.5t78.5 -354.5l-10 -58h-129l14 66q31 194 -50.5 276t-268.5 82q-167 0 -247 -65t-99 -211q-6 -54 3 -99.5t25 -76t47 -59t57.5 -45.5t67.5 -40l181 -110q72 -41 113 -72t86 -84.5t60 -130t3 -178.5q-24 -217 -142.5 -324.5
t-355.5 -107.5z" />
    <glyph glyph-name="T" unicode="T" horiz-adv-x="1069" 
d="M332 0l330 1565h-437l23 106h999l-22 -106h-439l-329 -1565h-125z" />
    <glyph glyph-name="U" unicode="U" horiz-adv-x="1327" 
d="M575 -20q-283 0 -394 144.5t-58 393.5l246 1153h127l-248 -1163q-22 -95 -16 -166.5t29 -120t70 -78.5t106.5 -43.5t137.5 -13.5q71 0 124 9.5t103.5 36t87.5 72t68 118.5t52 174l252 1175h124l-249 -1175q-38 -181 -102 -291t-176.5 -167.5t-283.5 -57.5z" />
    <glyph glyph-name="V" unicode="V" horiz-adv-x="1155" 
d="M356 0l-102 1671h125l80 -1526l2 -14l6 14l727 1526h133l-811 -1671h-160z" />
    <glyph glyph-name="W" unicode="W" horiz-adv-x="1904" 
d="M295 0l-37 1671h125l25 -1513l669 1513h166l27 -1515l667 1515h129l-747 -1671h-158l-33 1499v12l-6 -12l-669 -1499h-158z" />
    <glyph glyph-name="X" unicode="X" horiz-adv-x="1169" 
d="M-119 0l674 858l-295 813h129l260 -696l555 696h146l-654 -815l299 -856h-129l-262 739l-577 -739h-146z" />
    <glyph glyph-name="Y" unicode="Y" horiz-adv-x="1175" 
d="M381 0l127 586l-264 1085h129l223 -940l618 940h144l-725 -1085l-127 -586h-125z" />
    <glyph glyph-name="Z" unicode="Z" horiz-adv-x="1075" 
d="M-78 0l23 106l1118 1459h-807l23 106h946l-21 -106l-1120 -1459h809l-23 -106h-948z" />
    <glyph glyph-name="bracketleft" unicode="[" horiz-adv-x="608" 
d="M801 1747l-19 -88h-309l-401 -1878h309l-19 -88h-411l438 2054h412z" />
    <glyph glyph-name="backslash" unicode="\" horiz-adv-x="1017" 
d="M242 1671h110l496 -1671h-111z" />
    <glyph glyph-name="bracketright" unicode="]" horiz-adv-x="610" 
d="M-168 -307l18 88h310l401 1878h-309l18 88h412l-438 -2054h-412z" />
    <glyph glyph-name="asciicircum" unicode="^" horiz-adv-x="921" 
d="M827 1057l-159 542l-398 -542h-110l446 614h148l184 -614h-111z" />
    <glyph glyph-name="underscore" unicode="_" horiz-adv-x="1425" 
d="M-178 -160h1425l-16 -86h-1426z" />
    <glyph glyph-name="grave" unicode="`" horiz-adv-x="1206" 
d="M1186 1532l-39 -78l-744 150l37 79z" />
    <glyph glyph-name="a" unicode="a" horiz-adv-x="1136" 
d="M733 0l45 205q-61 -109 -173.5 -167t-252.5 -58q-69 0 -128.5 17.5t-107 52t-75 94t-27.5 137.5q0 149 94.5 256t292.5 159l174 37q76 23 128.5 42.5t105 47.5t84.5 64t45 80v2q30 132 -42 206t-220 74q-145 0 -241.5 -76.5t-127.5 -244.5l-8 -43h-121l8 41
q17 94 52.5 168.5t93 134t145.5 91.5t201 32q219 0 316.5 -115t60.5 -293l-203 -944h-119zM139 295q0 -101 62.5 -157t175.5 -56q165 0 285 111t182 333l51 242l4 14q-40 -48 -107.5 -80t-195.5 -67l-164 -33q-152 -37 -222.5 -119.5t-70.5 -187.5z" />
    <glyph glyph-name="b" unicode="b" horiz-adv-x="1165" 
d="M12 0l355 1671h118l-106 -500q57 80 144 130.5t200 50.5q137 0 234.5 -68t136 -193.5t4.5 -285.5l-80 -369q-46 -224 -163 -340t-302 -116q-148 0 -244.5 67.5t-128.5 179.5l-47 -227h-121zM236 481q-16 -81 -3.5 -153.5t46 -127t99.5 -86.5t157 -32q145 0 236.5 94
t127.5 268l78 361q42 199 -31 321.5t-241 122.5q-153 0 -252.5 -109t-139.5 -282z" />
    <glyph glyph-name="c" unicode="c" horiz-adv-x="1099" 
d="M928 881q31 192 -43 280t-228 88q-314 0 -393 -364l-71 -340q-50 -230 26 -346.5t256 -116.5q67 0 121 16.5t102 54t84 104.5t58 163l22 104h123l-22 -100q-52 -219 -172 -331.5t-318 -112.5q-163 0 -267 73.5t-134.5 201.5t2.5 300l69 332q104 465 514 465
q219 0 322.5 -128t69.5 -350l-15 -77h-123z" />
    <glyph glyph-name="d" unicode="d" horiz-adv-x="1165" 
d="M1106 1671h119l-353 -1671h-120l34 160q-56 -79 -142.5 -128.5t-199.5 -49.5q-103 0 -185 39.5t-132 111.5t-67 172.5t10 222.5l80 369q46 224 162.5 340.5t301.5 116.5q147 0 244 -68t129 -180zM190 528q-42 -199 31.5 -321.5t241.5 -122.5q146 0 243.5 99.5
t139.5 262.5l88 414q11 82 -0.5 151.5t-46.5 123.5t-99.5 85t-154.5 31q-145 0 -237 -94t-128 -268z" />
    <glyph glyph-name="e" unicode="e" horiz-adv-x="1095" 
d="M72 549l71 332q98 471 508 471q98 0 173 -26t121.5 -73t73 -113t27.5 -146.5t-14 -172.5l-35 -166h-782l-25 -116q-48 -225 28.5 -341t254.5 -116q137 0 222 71t128 232l11 47h122l-10 -43q-27 -95 -65 -167.5t-94.5 -128t-136 -84.5t-179.5 -29q-122 0 -212 42t-138 118
t-63 180t14 229zM238 752h655l25 116q59 381 -269 381q-311 0 -385 -370z" />
    <glyph glyph-name="f" unicode="f" horiz-adv-x="786" 
d="M160 1331h276l19 84q10 49 21 83t34 73.5t55 63.5t85 40.5t122 16.5q86 0 209 -21l-16 -98q-87 18 -170 18q-62 0 -103.5 -12.5t-65 -40.5t-34.5 -56.5t-21 -76.5l-20 -94q11 4 23.5 7t29.5 5t31 3.5t38 2.5t39 1.5t45 0.5h46.5h53h54.5l-20 -102h-356l-263 -1229h-118
l262 1229h-277z" />
    <glyph glyph-name="g" unicode="g" horiz-adv-x="1163" 
d="M754 8l30 150q-54 -79 -140.5 -128.5t-199.5 -49.5q-103 0 -185 39.5t-132 111.5t-67 172.5t10 222.5l80 369q46 224 162.5 340.5t301.5 116.5q147 0 244 -68t129 -180l47 227h121l-287 -1345q-24 -116 -57.5 -194t-84.5 -132t-123 -78t-173 -24h-512l23 102h458
q164 0 238.5 76t116.5 272zM190 526q-42 -199 31.5 -321.5t241.5 -122.5q146 0 243 99.5t140 260.5l88 416q11 82 -0.5 151.5t-46.5 123.5t-99.5 85t-154.5 31q-145 0 -237 -94t-128 -268z" />
    <glyph glyph-name="h" unicode="h" horiz-adv-x="1165" 
d="M487 1671l-106 -502q138 183 369 183q191 0 280 -122.5t45 -330.5l-192 -899h-119l188 885q36 172 -22.5 269t-210.5 97q-86 0 -156.5 -31t-116 -83t-73 -104t-43.5 -109l-197 -924h-121l355 1671h120z" />
    <glyph glyph-name="i" unicode="i" horiz-adv-x="425" 
d="M295 1331h121l-283 -1331h-121zM311 1597q9 40 42.5 67.5t76.5 27.5q44 0 66.5 -29.5t13.5 -73.5q-8 -35 -42 -62.5t-77 -27.5t-65.5 28.5t-14.5 69.5z" />
    <glyph glyph-name="j" unicode="j" horiz-adv-x="428" 
d="M8 -20l287 1351h121l-293 -1378q-25 -117 -53.5 -188.5t-75.5 -120t-113.5 -67.5t-167.5 -19h-153l22 102h101q70 0 115.5 9t79.5 28t57 59t39 90t34 134zM313 1597q9 40 42.5 67.5t76.5 27.5q44 0 66.5 -29.5t13.5 -73.5q-8 -35 -42 -62.5t-77 -27.5t-65.5 28.5
t-14.5 69.5z" />
    <glyph glyph-name="k" unicode="k" horiz-adv-x="1050" 
d="M367 1671h120l-202 -952h49l692 612h160l-766 -674l477 -657h-152l-438 618h-43l-131 -618h-121z" />
    <glyph glyph-name="l" unicode="l" horiz-adv-x="425" 
d="M367 1671h118l-354 -1671h-121z" />
    <glyph glyph-name="m" unicode="m" horiz-adv-x="1740" 
d="M1530 901q14 65 15 120.5t-14.5 110.5t-64.5 87t-129 32q-64 0 -118.5 -22t-90.5 -55.5t-65.5 -80t-45.5 -88t-28 -87.5v-9l-194 -909h-119l190 901q10 49 14 93t-3.5 93t-28 83.5t-64.5 57.5t-108 23q-65 0 -120.5 -24t-92.5 -60t-66.5 -85.5t-46 -94t-26.5 -90.5
l-191 -897h-121l285 1331h119l-31 -145q115 166 315 166q126 0 201.5 -61.5t95.5 -160.5q32 52 62 87.5t73 68.5t99.5 49.5t126.5 16.5q98 0 166.5 -34.5t100.5 -94t41 -139.5t-13 -171l-197 -913h-119z" />
    <glyph glyph-name="n" unicode="n" horiz-adv-x="1165" 
d="M416 1331l-35 -162q138 183 369 183q191 0 280 -122.5t45 -330.5l-192 -899h-119l188 885q36 172 -22.5 269t-210.5 97q-70 0 -130.5 -22t-102 -55.5t-75 -79t-52.5 -88t-31 -86.5l-197 -920h-119l285 1331h119z" />
    <glyph glyph-name="o" unicode="o" horiz-adv-x="1124" 
d="M479 -20q-245 0 -352.5 156.5t-54.5 412.5l71 332q21 102 56.5 182t93.5 147.5t148 104.5t206 37q124 0 215 -42t140 -118t64 -181t-13 -231l-72 -331q-21 -102 -56 -181.5t-92.5 -147t-147 -104t-206.5 -36.5zM190 539q-48 -227 30 -342t257 -115q160 0 253.5 94.5
t131.5 276.5l72 340q48 225 -29.5 340.5t-257.5 115.5q-160 0 -253.5 -94t-129.5 -276z" />
    <glyph glyph-name="p" unicode="p" horiz-adv-x="1167" 
d="M416 1331l-33 -157q54 79 140.5 128.5t199.5 49.5q137 0 234.5 -68t136 -193.5t4.5 -285.5l-80 -369q-46 -224 -163 -340t-302 -116q-147 0 -244 67.5t-129 179.5l-141 -669h-119l375 1773h121zM233 473q-11 -82 1 -151.5t46.5 -123.5t99.5 -85t155 -31q145 0 236.5 94
t127.5 268l78 361q42 199 -31 321.5t-241 122.5q-146 0 -242.5 -98t-140.5 -260z" />
    <glyph glyph-name="q" unicode="q" horiz-adv-x="1163" 
d="M657 -442l129 600q-56 -80 -142 -129t-200 -49q-103 0 -185 39.5t-132 111.5t-67 172.5t10 222.5l80 369q46 224 162.5 340.5t301.5 116.5q148 0 245 -69t128 -181l49 229h119l-379 -1773h-119zM190 526q-42 -199 31.5 -321.5t241.5 -122.5q101 0 181.5 51.5t129.5 133.5
t76 190l80 379q10 68 8.5 129t-23 113t-57 90t-93.5 59.5t-132 21.5q-145 0 -237 -94t-128 -268z" />
    <glyph glyph-name="r" unicode="r" horiz-adv-x="968" 
d="M416 1331l-37 -172q131 193 346 193q170 0 235.5 -121.5t20.5 -306.5l-20 -84h-121l18 69q39 154 -2.5 247t-169.5 93q-69 0 -128 -26.5t-97 -65t-69 -91t-46.5 -96t-26.5 -89.5l-186 -881h-121l285 1331h119z" />
    <glyph glyph-name="s" unicode="s" horiz-adv-x="1042" 
d="M690 674q108 -51 158 -119.5t49 -177.5q-1 -57 -15 -111.5t-47.5 -107t-83 -91.5t-126 -63t-170.5 -24q-131 0 -224.5 34.5t-141 95t-63 135.5t-1.5 163l12 61h121l-13 -68q-23 -148 49 -233.5t261 -85.5q69 0 125 18t91.5 47t59 67.5t33.5 76.5t10 76q2 72 -32.5 125
t-112.5 92l-240 129q-109 47 -162.5 115.5t-52.5 177.5q1 48 13.5 94t43 92.5t76.5 81t119.5 56.5t165.5 22q125 0 213 -33t132.5 -91t59 -130.5t0.5 -159.5l-8 -45h-123l11 49q23 146 -46 226.5t-241 80.5q-78 0 -137 -21.5t-92.5 -57t-49.5 -76t-16 -84.5q0 -71 37 -119
t121 -88z" />
    <glyph glyph-name="t" unicode="t" horiz-adv-x="749" 
d="M836 1331l-23 -102h-319l-189 -887q-13 -64 -18 -98t-3.5 -66.5t16.5 -46t42.5 -21.5t73.5 -8h157l-22 -102h-168q-113 0 -165.5 38t-55 111t19.5 179l191 901h-238l23 102h32q123 14 207 108t111 232h119q-29 -133 -99 -224.5t-141 -115.5h449z" />
    <glyph glyph-name="u" unicode="u" horiz-adv-x="1165" 
d="M752 0l34 166q-138 -186 -370 -186q-192 0 -281 122t-45 330l193 899h118l-188 -885q-36 -172 22.5 -269t210.5 -97q76 0 141 25.5t107.5 64.5t75.5 90t50 96.5t26 89.5l-2 -16l190 901h119l-283 -1331h-118z" />
    <glyph glyph-name="v" unicode="v" horiz-adv-x="1005" 
d="M178 1331h121l88 -1200l596 1200h129l-676 -1331h-149z" />
    <glyph glyph-name="w" unicode="w" horiz-adv-x="1652" 
d="M184 1331h121l37 -1186l539 1186h170l39 -1181l538 1181h123l-616 -1331h-148l-43 1217l-563 -1217h-145z" />
    <glyph glyph-name="x" unicode="x" horiz-adv-x="1040" 
d="M-135 0l598 690l-268 641h131l225 -540l459 540h141l-553 -649l287 -682h-131l-244 582l-504 -582h-141z" />
    <glyph glyph-name="y" unicode="y" horiz-adv-x="1161" 
d="M752 10l32 152q-141 -182 -368 -182q-192 0 -281 122t-45 330l193 899h118l-188 -885q-36 -172 22.5 -269t210.5 -97q85 0 154.5 30.5t115.5 81t74.5 102t45.5 107.5l196 930h121l-285 -1339q-25 -117 -56.5 -194t-83.5 -133.5t-127 -81.5t-183 -25h-471l22 102h432
q84 0 141.5 18t98 61.5t65.5 107t46 163.5z" />
    <glyph glyph-name="z" unicode="z" horiz-adv-x="954" 
d="M205 1331h827l-22 -102l-934 -1127h698l-22 -102h-834l23 102l933 1127h-690z" />
    <glyph glyph-name="braceleft" unicode="{" horiz-adv-x="579" 
d="M125 831q37 3 69.5 49.5t51.5 135.5l84 399q40 185 114.5 258.5t208.5 73.5h115l-20 -94h-105q-88 0 -136 -57.5t-75 -180.5l-84 -401q-26 -112 -54 -163t-89 -85l-21 -92q44 -34 52.5 -88.5t-15.5 -163.5l-84 -402q-26 -120 6 -174.5t125 -54.5h84l-20 -94h-78
q-138 0 -195.5 79.5t-19.5 260.5l82 399q20 92 9.5 132.5t-50.5 45.5z" />
    <glyph glyph-name="bar" unicode="|" horiz-adv-x="434" 
d="M20 -20l361 1703h102l-360 -1703h-103z" />
    <glyph glyph-name="braceright" unicode="}" horiz-adv-x="579" 
d="M479 612q-37 -3 -69.5 -49.5t-51.5 -134.5l-84 -399q-40 -185 -114.5 -258.5t-208.5 -73.5h-115l21 94h104q88 0 136 57.5t75 180.5l84 401q26 112 54 163t89 85l21 92q-44 34 -52.5 88.5t15.5 163.5l84 401q26 120 -6 175t-125 55h-84l20 94h78q138 0 195.5 -79.5
t19.5 -260.5l-82 -399q-20 -92 -9.5 -133t50.5 -46z" />
    <glyph glyph-name="asciitilde" unicode="~" horiz-adv-x="1378" 
d="M119 715q9 80 41 137t79.5 85t94.5 40t100 12q75 0 142.5 -22.5t119 -54.5t100.5 -63.5t106 -54t116 -22.5q87 0 144.5 44.5t64.5 127.5h104q-7 -65 -30.5 -114.5t-54.5 -79t-72 -48.5t-79.5 -25.5t-80.5 -6.5q-75 0 -142.5 22.5t-119 54t-100.5 63.5t-106 54.5
t-116 22.5q-87 0 -143.5 -44.5t-65.5 -127.5h-102z" />
    <glyph glyph-name="uni00A0" unicode="&#xa0;" horiz-adv-x="546" 
 />
    <glyph glyph-name="exclamdown" unicode="&#xa1;" horiz-adv-x="440" 
d="M68 -340h-119l250 1159h114zM227 1247q9 45 47.5 75t85.5 30q48 0 74.5 -33t14.5 -86q-10 -47 -48 -77t-86 -30t-74.5 33t-13.5 88z" />
    <glyph glyph-name="cent" unicode="&#xa2;" horiz-adv-x="1126" 
d="M520 150h-18l-64 -293h-96l66 303q-187 35 -262 186.5t-27 378.5l69 332q104 465 517 465l63 293h96l-65 -299q172 -28 250 -152t49 -320l-17 -77h-118l14 80q51 328 -201 366l-252 -1161q139 0 231.5 77t135.5 263l22 102h121l-22 -100q-52 -219 -172 -331.5
t-320 -112.5zM236 717q-42 -200 9.5 -314.5t184.5 -142.5l252 1159q-300 -14 -375 -366z" />
    <glyph glyph-name="sterling" unicode="&#xa3;" horiz-adv-x="1150" 
d="M-25 98q216 154 271 426q11 54 14 117h-174l20 86h158q0 42 -4 125t-5.5 136t5.5 132t25 154q52 215 176 316.5t323 101.5q227 0 334 -121.5t70 -360.5l-14 -80h-121l16 87q31 190 -41 282t-246 92q-158 0 -248 -78.5t-131 -252.5q-22 -93 -27 -177t2 -204.5t7 -151.5
h498l-21 -86h-481q-4 -73 -16 -129q-27 -121 -89.5 -230t-158.5 -182h833l-20 -100h-977z" />
    <glyph glyph-name="currency" unicode="&#xa4;" horiz-adv-x="987" 
d="M471 418q-120 0 -201 63l-166 -164l-59 66l166 166q-43 72 -43 168t37.5 206t113.5 187l-88 145l82 66l90 -145q79 45 183 45q115 0 196 -62l162 162l62 -66l-162 -165q43 -70 43 -172q0 -95 -39 -205t-115 -187l86 -143l-84 -66l-86 146q-79 -45 -178 -45zM268 719
q0 -102 51.5 -156.5t149.5 -54.5q59 0 108 20t82.5 54.5t59 76.5t39.5 89.5t21 89.5t7 80q0 102 -52 157t-150 55q-70 0 -126.5 -29.5t-90.5 -74t-57.5 -101.5t-32.5 -108t-9 -98z" />
    <glyph glyph-name="yen" unicode="&#xa5;" horiz-adv-x="1206" 
d="M115 569l18 82h375l-248 1020h129l223 -940l619 940h143l-682 -1020h365l-19 -82h-393l-18 -90h395l-18 -82h-396l-86 -397h-125l86 397h-401l16 82h404l18 90h-405z" />
    <glyph glyph-name="brokenbar" unicode="&#xa6;" horiz-adv-x="434" 
d="M242 1020l139 663h102l-139 -663h-102zM20 -20l142 663h102l-141 -663h-103z" />
    <glyph glyph-name="section" unicode="&#xa7;" horiz-adv-x="1163" 
d="M553 -20q-246 0 -364.5 104.5t-88.5 308.5h103q-30 -166 64.5 -249t285.5 -83q175 0 246 60t71 178q0 127 -104 154l-487 114q-84 23 -120 75t-36 116q0 75 43 136.5t141 88.5q-86 67 -86 188q0 163 122.5 242.5t328.5 79.5q226 0 339 -104.5t83 -309.5h-103
q30 164 -57 248t-266 84q-344 0 -344 -227q0 -62 28.5 -105t75.5 -55l490 -117q79 -21 116 -71.5t37 -118.5q0 -74 -43 -137t-141 -91q84 -61 84 -186q0 -160 -109 -241.5t-309 -81.5zM225 772q0 -102 92 -125l414 -92q100 -26 168 18.5t68 131.5q0 100 -90 122l-414 95
q-101 26 -169.5 -18t-68.5 -132z" />
    <glyph glyph-name="dieresis" unicode="&#xa8;" horiz-adv-x="1019" 
d="M903 1481q-39 0 -59 24t-13 62q9 43 40 67.5t69 24.5t59.5 -24.5t12.5 -67.5q-7 -37 -39.5 -61.5t-69.5 -24.5zM393 1569q9 41 40 65.5t69 24.5q37 0 58.5 -25t12.5 -67q-7 -37 -39 -61.5t-69 -24.5q-39 0 -60 24.5t-12 63.5z" />
    <glyph glyph-name="copyright" unicode="&#xa9;" horiz-adv-x="1736" 
d="M743 -20q-136 0 -244.5 31.5t-181 89.5t-120.5 137t-67.5 177t-16.5 205.5t28 225.5q30 138 80.5 259.5t130 230.5t180.5 187t238 123.5t295 45.5q117 0 213.5 -23.5t166.5 -66.5t121.5 -104.5t80.5 -135.5t41 -161t6 -180t-27 -194q-29 -139 -79.5 -261t-130.5 -231
t-181 -186.5t-238 -123t-295 -45.5zM250 846q-28 -132 -29 -244t29.5 -209t93 -164.5t167.5 -106t247 -38.5q171 0 310.5 57t235.5 160t159.5 234t97.5 292q23 108 26 204.5t-13.5 182t-57.5 153.5t-103.5 117.5t-154 76t-207.5 26.5q-171 0 -310.5 -57.5t-235.5 -161
t-159 -233.5t-96 -289zM444 842q25 121 72.5 220.5t118 177.5t170.5 121.5t221 43.5q93 0 162.5 -23.5t109.5 -65t64 -98t25.5 -123t-5.5 -139.5h-116q4 53 5.5 102.5t-12.5 92.5t-40 74.5t-76.5 50t-122.5 18.5q-103 0 -183 -34t-133.5 -97.5t-88 -141.5t-56.5 -179
q-23 -96 -21 -180.5t26.5 -148t89.5 -100t167 -36.5q71 0 129 19.5t98 50t73 77t53 90.5t38 101h117q-137 -449 -522 -449q-104 0 -180.5 29.5t-121 81.5t-65.5 125.5t-19.5 157.5t23.5 182z" />
    <glyph glyph-name="ordfeminine" unicode="&#xaa;" horiz-adv-x="770" 
d="M598 881l25 120q-80 -133 -248 -133q-88 0 -144.5 45t-56.5 136q0 193 232 254l106 22q98 24 147.5 56t61.5 83l-2 -12l2 8q15 73 -26 112.5t-120 39.5q-164 0 -204 -176l-6 -29h-95l4 25q55 260 306 260q135 0 194.5 -69.5t34.5 -182.5l-117 -559h-94zM270 1063
q0 -54 34.5 -84.5t96.5 -30.5q95 0 164 65t103 195l24 121l2 6q-22 -28 -59.5 -46.5t-110.5 -39.5l-92 -18q-162 -45 -162 -168z" />
    <glyph glyph-name="guillemotleft" unicode="&#xab;" horiz-adv-x="921" 
d="M414 307l-332 359l16 82l473 284l-26 -125l-361 -209l258 -266zM379 645l16 82l473 285l-26 -125l-361 -209l258 -266l-28 -125z" />
    <glyph glyph-name="logicalnot" unicode="&#xac;" horiz-adv-x="1431" 
d="M1188 641l61 285h-1083l18 92h1186l-80 -377h-102z" />
    <glyph glyph-name="registered" unicode="&#xae;" horiz-adv-x="1089" 
d="M567 766q-77 0 -132 28t-82.5 71.5t-39 101t-9 112t14.5 109.5q16 71 44 135t75.5 126t123.5 99t171 37q77 0 132.5 -28t83.5 -71.5t40 -101t9.5 -112t-13.5 -109.5q-12 -55 -31.5 -107t-54.5 -106t-79.5 -93.5t-110 -65t-142.5 -25.5zM205 1196q-13 -58 -15 -118t7 -121
t36 -114t68 -94.5t106.5 -65.5t149.5 -24q99 0 183.5 30.5t142.5 79t103.5 115.5t71.5 133.5t42 139.5q12 58 13.5 118t-8 120.5t-36 113.5t-67.5 94t-106 65t-148 24q-100 0 -184.5 -30.5t-143 -79t-103.5 -115t-71 -133t-41 -138.5zM414 901l118 563h175q44 0 75.5 -6.5
t58 -25t32.5 -51t-1 -83.5q-9 -44 -41 -82.5t-90 -58.5q92 -34 68 -145l-12 -51q-11 -48 -4 -60h-113q-9 15 2 60l10 51q12 53 -1.5 71.5t-61.5 18.5h-58l-43 -201h-114zM594 1210h57q51 0 72 17.5t31 58.5q8 43 -9 56.5t-61 13.5h-59z" />
    <glyph glyph-name="macron" unicode="&#xaf;" horiz-adv-x="1208" 
d="M389 1528l17 82h796l-16 -82h-797z" />
    <glyph glyph-name="degree" unicode="&#xb0;" horiz-adv-x="749" 
d="M489 1169q-71 0 -109 39.5t-38 114.5q0 30 5 63t19.5 72t37.5 69.5t62.5 51t90.5 20.5q71 0 109.5 -39.5t38.5 -113.5q0 -30 -5 -63t-20 -72.5t-38 -70t-62.5 -51t-90.5 -20.5zM238 1317q0 -110 69 -175t182 -65q75 0 133.5 28.5t92.5 70.5t56.5 95t30 97t7.5 82
q0 107 -68.5 174.5t-183.5 67.5q-75 0 -133.5 -28.5t-92.5 -70.5t-56 -95.5t-29.5 -97.5t-7.5 -83z" />
    <glyph glyph-name="plusminus" unicode="&#xb1;" horiz-adv-x="1361" 
d="M858 1251l-80 -377h535l-19 -86h-536l-62 -292h537l-19 -86h-1175l18 86h537l61 292h-536l18 86h539l80 377h102z" />
    <glyph glyph-name="uni00B2" unicode="&#xb2;" horiz-adv-x="636" 
d="M90 799q25 123 80.5 194t183.5 121l109 53q72 27 114 64t56 98l2 14q18 75 -21 108.5t-118 33.5q-87 0 -131.5 -38t-61.5 -130l-8 -35h-94l8 33q24 126 91.5 187t195.5 61q129 0 191.5 -65.5t39.5 -174.5q-34 -158 -223 -231l-113 -54q-108 -43 -146.5 -93t-60.5 -150
h426l-16 -78h-520z" />
    <glyph glyph-name="uni00B3" unicode="&#xb3;" horiz-adv-x="638" 
d="M348 707q-137 0 -193.5 60t-41.5 179l6 29h94l-8 -37q-10 -86 25 -120t118 -34q81 0 124 32t60 104l9 41q19 83 -17.5 115t-109.5 32h-99l17 78h94q157 0 182 121l8 32q33 146 -137 146q-78 0 -123.5 -34t-58.5 -116l-6 -30h-94l6 28q19 119 85.5 174.5t190.5 55.5
q134 0 193 -64t37 -172l-4 -16q-11 -59 -51.5 -104.5t-102.5 -59.5q56 -24 76.5 -79.5t5.5 -127.5l-4 -20q-45 -213 -281 -213z" />
    <glyph glyph-name="acute" unicode="&#xb4;" horiz-adv-x="1148" 
d="M401 1468l-10 78l746 152l10 -80z" />
    <glyph glyph-name="paragraph" unicode="&#xb6;" horiz-adv-x="911" 
d="M856 1671h102l-356 -1671h-102zM199 1362q10 49 22.5 88t26 69.5t32.5 53.5t36.5 39t44.5 27t50 17.5t59.5 9.5t66.5 4t77 1h107l-356 -1671h-103l205 944q-186 0 -251.5 98t-16.5 320z" />
    <glyph glyph-name="periodcentered" unicode="&#xb7;" horiz-adv-x="438" 
d="M203 586q-48 0 -74 33t-14 86q10 47 47.5 76.5t85.5 29.5t74.5 -33t13.5 -88q-9 -45 -47.5 -74.5t-85.5 -29.5z" />
    <glyph glyph-name="cedilla" unicode="&#xb8;" horiz-adv-x="786" 
d="M-6 -342q162 0 222 17.5t60 68.5q1 42 -44.5 52t-168.5 -3l93 207h88l-64 -133q54 7 99.5 4t75 -33t28.5 -84q-1 -101 -97.5 -139.5t-312.5 -38.5z" />
    <glyph glyph-name="uni00B9" unicode="&#xb9;" horiz-adv-x="505" 
d="M82 795h172l139 645q-72 -72 -192 -72l16 84q112 0 201 100h90l-162 -757h172l-16 -78h-436z" />
    <glyph glyph-name="ordmasculine" unicode="&#xba;" horiz-adv-x="761" 
d="M459 868q-148 0 -217 93t-35 251l41 191q29 137 101 213t208 76q150 0 216.5 -94.5t35.5 -251.5l-41 -193q-13 -62 -34.5 -110t-57 -89.5t-90.5 -63.5t-127 -22zM301 1198q-27 -123 16 -186.5t142 -63.5q169 0 213 205l43 209q27 123 -16.5 186.5t-143.5 63.5
q-167 0 -211 -205z" />
    <glyph glyph-name="guillemotright" unicode="&#xbb;" horiz-adv-x="925" 
d="M346 274l27 125l360 209l-258 266l29 125l332 -356l-17 -82zM51 295l27 125l360 209l-258 266l29 125l332 -356l-17 -82z" />
    <glyph glyph-name="onequarter" unicode="&#xbc;" horiz-adv-x="1683" 
d="M123 913h172l139 646q-72 -72 -192 -72l16 84q112 0 201 100h90l-162 -758h172l-16 -77h-437zM240 0l1099 1671h99l-1102 -1671h-96zM999 174l17 82l487 580h90l-125 -584h86l-16 -78h-86l-37 -174h-92l37 174h-361zM1104 252h272l92 432z" />
    <glyph glyph-name="onehalf" unicode="&#xbd;" horiz-adv-x="1740" 
d="M125 913h172l139 646q-72 -72 -192 -72l16 84q112 0 201 100h90l-162 -758h172l-16 -77h-436zM242 0l1099 1671h99l-1102 -1671h-96zM1006 0l16 82q25 123 80.5 194t183.5 121l109 54q72 27 114 63.5t56 97.5l2 15q18 75 -21.5 108t-118.5 33q-87 0 -131 -38t-61 -130
l-8 -35h-94l8 33q24 126 91 187t195 61q129 0 192 -65.5t40 -174.5q-34 -158 -223 -231l-113 -53q-108 -43 -146.5 -93t-60.5 -151h426l-16 -78h-520z" />
    <glyph glyph-name="threequarters" unicode="&#xbe;" horiz-adv-x="1781" 
d="M385 834q-137 0 -193.5 60t-41.5 179l6 29h94l-8 -37q-10 -86 25 -120t118 -34q81 0 124 32t60 104l9 40q19 83 -17.5 115.5t-109.5 32.5h-99l17 78h94q157 0 182 121l8 32q33 146 -137 146q-78 0 -123.5 -34t-58.5 -116l-6 -30h-95l7 28q19 119 85.5 174.5t190.5 55.5
q134 0 192.5 -64t36.5 -172l-4 -16q-11 -60 -51 -105t-102 -59q56 -24 76.5 -79.5t5.5 -127.5l-4 -20q-45 -213 -281 -213zM338 0l1100 1671h98l-1102 -1671h-96zM1098 174l16 82l488 580h90l-125 -584h86l-17 -78h-86l-37 -174h-92l37 174h-360zM1202 252h273l92 432z" />
    <glyph glyph-name="questiondown" unicode="&#xbf;" horiz-adv-x="989" 
d="M315 -360q-195 0 -297 91.5t-102 254.5q0 81 27.5 149t73 119t101 97.5t115 95.5t111.5 102t94 128.5t60 164.5l6 32h117l-7 -34q-19 -94 -61 -174.5t-94 -138t-110.5 -109t-113.5 -98.5t-100 -95t-72.5 -108.5t-27.5 -130.5q-1 -122 74 -184t210 -62q93 0 162 27.5
t112 79.5t66.5 116.5t34.5 149.5l13 67h120l-14 -71q-60 -469 -498 -469zM512 1247q9 45 47.5 75t85.5 30q48 0 74 -33t14 -86q-10 -47 -48 -77t-85 -30q-48 0 -74.5 33t-13.5 88z" />
    <glyph glyph-name="Agrave" unicode="&#xc0;" horiz-adv-x="1155" 
d="M-100 0l813 1671h159l103 -1671h-127l-19 375h-618l-178 -375h-133zM262 481h561l-53 1045l-2 14l-6 -14zM453 1944l36 79l746 -151l-39 -78z" />
    <glyph glyph-name="Aacute" unicode="&#xc1;" horiz-adv-x="1155" 
d="M-100 0l813 1671h159l103 -1671h-127l-19 375h-618l-178 -375h-133zM262 481h561l-53 1045l-2 14l-6 -14zM475 1886l746 152l10 -80l-746 -150z" />
    <glyph glyph-name="Acircumflex" unicode="&#xc2;" horiz-adv-x="1155" 
d="M-100 0l813 1671h159l103 -1671h-127l-19 375h-618l-178 -375h-133zM262 481h561l-53 1045l-2 14l-6 -14zM469 1802l332 246h121l231 -246h-125l-170 178l-237 -178h-152z" />
    <glyph glyph-name="Atilde" unicode="&#xc3;" horiz-adv-x="1155" 
d="M-100 0l813 1671h159l103 -1671h-127l-19 375h-618l-178 -375h-133zM262 481h561l-53 1045l-2 14l-6 -14zM459 1810q16 111 79.5 164.5t155.5 53.5q51 0 89 -15.5t60.5 -38t42.5 -45t47.5 -38t63.5 -15.5q55 0 87.5 34t41.5 97h103q-16 -112 -80 -164.5t-158 -52.5
q-53 0 -92 15.5t-61.5 38t-42.5 45t-46.5 38t-60.5 15.5q-54 0 -86 -35.5t-41 -96.5h-102z" />
    <glyph glyph-name="Adieresis" unicode="&#xc4;" horiz-adv-x="1155" 
d="M-100 0l813 1671h159l103 -1671h-127l-19 375h-618l-178 -375h-133zM262 481h561l-53 1045l-2 14l-6 -14zM535 1909q9 41 39.5 65.5t68.5 24.5q37 0 59 -25t13 -67q-7 -37 -39.5 -61.5t-69.5 -24.5q-39 0 -59.5 24.5t-11.5 63.5zM973 1907q9 43 39.5 67.5t68.5 24.5
t59.5 -24.5t12.5 -67.5q-7 -37 -39.5 -61.5t-69.5 -24.5q-38 0 -58 24t-13 62z" />
    <glyph glyph-name="Aring" unicode="&#xc5;" horiz-adv-x="1155" 
d="M-100 0l813 1671h159l103 -1671h-127l-19 375h-618l-178 -375h-133zM262 481h561l-53 1045l-2 14l-6 -14zM682 1929q0 71 49.5 118.5t116.5 47.5t116.5 -47.5t49.5 -118.5t-49.5 -118.5t-116.5 -47.5t-116.5 47.5t-49.5 118.5zM758 1929q0 -40 24.5 -65t65.5 -25t65.5 25
t24.5 65t-24.5 65t-65.5 25t-65.5 -25t-24.5 -65z" />
    <glyph glyph-name="AE" unicode="&#xc6;" horiz-adv-x="1550" 
d="M-104 0l878 1671h895l-22 -106h-572l-143 -676h541l-21 -107h-545l-143 -676h573l-22 -106h-697l82 387h-475l-202 -387h-127zM281 494h442l227 1071h-108z" />
    <glyph glyph-name="Ccedilla" unicode="&#xc7;" horiz-adv-x="1308" 
d="M379 -342q162 0 222.5 17.5t60.5 68.5q1 42 -44.5 52t-168.5 -3l83 189q-256 19 -370.5 202t-55.5 465l109 512q20 90 51 165.5t81.5 144.5t116 116.5t158 76t203.5 28.5q255 0 384.5 -142.5t93.5 -394.5l-35 -166h-127l35 170q16 114 -2.5 197t-68 132t-119 72
t-161.5 23q-389 0 -481 -426l-113 -520q-55 -258 43 -403.5t312 -145.5q186 0 303 95.5t160 305.5l41 193h129l-39 -188q-51 -238 -190.5 -371t-371.5 -143l-53 -113q54 7 99.5 4t75 -33t28.5 -84q-1 -101 -97.5 -139.5t-312.5 -38.5z" />
    <glyph glyph-name="Egrave" unicode="&#xc8;" horiz-adv-x="1118" 
d="M25 0l354 1671h858l-23 -106h-733l-143 -676h704l-20 -107h-709l-143 -676h735l-24 -106h-856zM457 1944l37 79l745 -151l-39 -78z" />
    <glyph glyph-name="Eacute" unicode="&#xc9;" horiz-adv-x="1118" 
d="M25 0l354 1671h858l-23 -106h-733l-143 -676h704l-20 -107h-709l-143 -676h735l-24 -106h-856zM477 1886l746 152l10 -80l-746 -150z" />
    <glyph glyph-name="Ecircumflex" unicode="&#xca;" horiz-adv-x="1118" 
d="M25 0l354 1671h858l-23 -106h-733l-143 -676h704l-20 -107h-709l-143 -676h735l-24 -106h-856zM473 1802l332 246h121l231 -246h-125l-170 178l-237 -178h-152z" />
    <glyph glyph-name="Edieresis" unicode="&#xcb;" horiz-adv-x="1118" 
d="M25 0l354 1671h858l-23 -106h-733l-143 -676h704l-20 -107h-709l-143 -676h735l-24 -106h-856zM539 1909q9 41 39.5 65.5t68.5 24.5q37 0 59 -25t13 -67q-7 -37 -39.5 -61.5t-69.5 -24.5q-39 0 -59.5 24.5t-11.5 63.5zM977 1907q9 43 39.5 67.5t68.5 24.5t59.5 -24.5
t12.5 -67.5q-7 -37 -39 -61.5t-69 -24.5q-39 0 -59 24t-13 62z" />
    <glyph glyph-name="Igrave" unicode="&#xcc;" horiz-adv-x="765" 
d="M-41 0l27 113h219l305 1446h-221l24 112h564l-25 -112h-219l-305 -1446h221l-25 -113h-565zM256 1944l37 79l745 -151l-39 -78z" />
    <glyph glyph-name="Iacute" unicode="&#xcd;" horiz-adv-x="765" 
d="M-41 0l27 113h219l305 1446h-221l24 112h564l-25 -112h-219l-305 -1446h221l-25 -113h-565zM276 1886l746 152l10 -80l-745 -150z" />
    <glyph glyph-name="Icircumflex" unicode="&#xce;" horiz-adv-x="765" 
d="M-41 0l27 113h219l305 1446h-221l24 112h564l-25 -112h-219l-305 -1446h221l-25 -113h-565zM272 1802l332 246h121l231 -246h-125l-169 178l-238 -178h-152z" />
    <glyph glyph-name="Idieresis" unicode="&#xcf;" horiz-adv-x="765" 
d="M-41 0l27 113h219l305 1446h-221l24 112h564l-25 -112h-219l-305 -1446h221l-25 -113h-565zM336 1909q9 41 39.5 65.5t68.5 24.5q37 0 59 -25t13 -67q-7 -37 -39 -61.5t-69 -24.5q-39 0 -60 24.5t-12 63.5zM774 1907q9 43 40 67.5t69 24.5t59 -24.5t12 -67.5
q-7 -37 -39 -61.5t-69 -24.5q-39 0 -59 24t-13 62z" />
    <glyph glyph-name="Eth" unicode="&#xd0;" horiz-adv-x="1398" 
d="M98 0l170 805h-213l17 86h215l166 780h440q281 0 410 -171t63 -480l-102 -477q-61 -282 -217.5 -412.5t-430.5 -130.5h-518zM244 104h354q166 0 274 49t169.5 145.5t95.5 256.5l100 465q58 272 -28.5 409.5t-331.5 137.5h-322l-143 -676h446l-18 -86h-447z" />
    <glyph glyph-name="Ntilde" unicode="&#xd1;" horiz-adv-x="1363" 
d="M25 0l354 1671h121l493 -1417l301 1417h119l-354 -1671h-121l-494 1417l-301 -1417h-118zM563 1810q16 111 80 164.5t156 53.5q51 0 89 -15.5t60.5 -38t42.5 -45t47.5 -38t63.5 -15.5q55 0 87.5 34t41.5 97h102q-16 -112 -79.5 -164.5t-157.5 -52.5q-53 0 -92 15.5
t-61.5 38t-42.5 45t-46.5 38t-60.5 15.5q-54 0 -86 -35.5t-41 -96.5h-103z" />
    <glyph glyph-name="Ograve" unicode="&#xd2;" horiz-adv-x="1345" 
d="M596 -20q-193 0 -319.5 83.5t-170.5 231t-4 338.5l111 512q19 92 50 170t81 149t115.5 120.5t158 78.5t203.5 29q191 0 318 -83.5t172.5 -231.5t5.5 -339l-111 -512q-24 -117 -68.5 -211t-115.5 -171.5t-179.5 -120.5t-246.5 -43zM229 621q-55 -254 44 -393.5t323 -139.5
q391 0 481 440l111 523q56 253 -44 392.5t-323 139.5q-388 0 -481 -440zM492 1944l36 79l746 -151l-39 -78z" />
    <glyph glyph-name="Oacute" unicode="&#xd3;" horiz-adv-x="1345" 
d="M596 -20q-193 0 -319.5 83.5t-170.5 231t-4 338.5l111 512q19 92 50 170t81 149t115.5 120.5t158 78.5t203.5 29q191 0 318 -83.5t172.5 -231.5t5.5 -339l-111 -512q-24 -117 -68.5 -211t-115.5 -171.5t-179.5 -120.5t-246.5 -43zM229 621q-55 -254 44 -393.5t323 -139.5
q391 0 481 440l111 523q56 253 -44 392.5t-323 139.5q-388 0 -481 -440zM514 1886l746 152l10 -80l-746 -150z" />
    <glyph glyph-name="Ocircumflex" unicode="&#xd4;" horiz-adv-x="1345" 
d="M596 -20q-193 0 -319.5 83.5t-170.5 231t-4 338.5l111 512q19 92 50 170t81 149t115.5 120.5t158 78.5t203.5 29q191 0 318 -83.5t172.5 -231.5t5.5 -339l-111 -512q-24 -117 -68.5 -211t-115.5 -171.5t-179.5 -120.5t-246.5 -43zM229 621q-55 -254 44 -393.5t323 -139.5
q391 0 481 440l111 523q56 253 -44 392.5t-323 139.5q-388 0 -481 -440zM508 1802l332 246h121l231 -246h-125l-170 178l-238 -178h-151z" />
    <glyph glyph-name="Otilde" unicode="&#xd5;" horiz-adv-x="1345" 
d="M596 -20q-193 0 -319.5 83.5t-170.5 231t-4 338.5l111 512q19 92 50 170t81 149t115.5 120.5t158 78.5t203.5 29q191 0 318 -83.5t172.5 -231.5t5.5 -339l-111 -512q-24 -117 -68.5 -211t-115.5 -171.5t-179.5 -120.5t-246.5 -43zM229 621q-55 -254 44 -393.5t323 -139.5
q391 0 481 440l111 523q56 253 -44 392.5t-323 139.5q-388 0 -481 -440zM498 1810q16 111 79.5 164.5t155.5 53.5q51 0 89 -15.5t60.5 -38t42.5 -45t47.5 -38t63.5 -15.5q55 0 87.5 34t41.5 97h103q-16 -112 -80 -164.5t-158 -52.5q-53 0 -92 15.5t-61.5 38t-42.5 45
t-46.5 38t-60.5 15.5q-54 0 -86 -35.5t-41 -96.5h-102z" />
    <glyph glyph-name="Odieresis" unicode="&#xd6;" horiz-adv-x="1345" 
d="M596 -20q-193 0 -319.5 83.5t-170.5 231t-4 338.5l111 512q19 92 50 170t81 149t115.5 120.5t158 78.5t203.5 29q191 0 318 -83.5t172.5 -231.5t5.5 -339l-111 -512q-24 -117 -68.5 -211t-115.5 -171.5t-179.5 -120.5t-246.5 -43zM229 621q-55 -254 44 -393.5t323 -139.5
q391 0 481 440l111 523q56 253 -44 392.5t-323 139.5q-388 0 -481 -440zM573 1909q9 41 40 65.5t69 24.5q37 0 59 -25t13 -67q-7 -37 -39.5 -61.5t-69.5 -24.5q-39 0 -60 24.5t-12 63.5zM1012 1907q9 43 39.5 67.5t68.5 24.5t59.5 -24.5t12.5 -67.5q-7 -37 -39.5 -61.5
t-69.5 -24.5q-38 0 -58 24t-13 62z" />
    <glyph glyph-name="multiply" unicode="&#xd7;" horiz-adv-x="1058" 
d="M274 1276l301 -383l469 387l50 -61l-469 -388l305 -387l-76 -61l-305 387l-463 -383l-49 62l463 382l-301 383z" />
    <glyph glyph-name="Oslash" unicode="&#xd8;" horiz-adv-x="1347" 
d="M596 -20q-240 0 -373 124l-80 -108h-110l131 178q-121 178 -62 459l111 512q19 92 50 170t81 149t115.5 120.5t158 78.5t203.5 29q237 0 371 -125l82 110h112l-133 -180q123 -181 64 -459l-111 -512q-24 -117 -68.5 -211t-115.5 -171.5t-179.5 -120.5t-246.5 -43z
M229 621q-46 -206 15 -340l878 1189q-104 113 -301 113q-388 0 -481 -440zM295 201q101 -113 301 -113q391 0 481 440l111 523q46 207 -14 340z" />
    <glyph glyph-name="Ugrave" unicode="&#xd9;" horiz-adv-x="1327" 
d="M575 -20q-283 0 -394 144.5t-58 393.5l246 1153h127l-248 -1163q-22 -95 -16 -166.5t29 -120t70 -78.5t106.5 -43.5t137.5 -13.5q71 0 124 9.5t103.5 36t87.5 72t68 118.5t52 174l252 1175h124l-249 -1175q-38 -181 -102 -291t-176.5 -167.5t-283.5 -57.5zM539 1944
l36 79l746 -151l-39 -78z" />
    <glyph glyph-name="Uacute" unicode="&#xda;" horiz-adv-x="1327" 
d="M575 -20q-283 0 -394 144.5t-58 393.5l246 1153h127l-248 -1163q-22 -95 -16 -166.5t29 -120t70 -78.5t106.5 -43.5t137.5 -13.5q71 0 124 9.5t103.5 36t87.5 72t68 118.5t52 174l252 1175h124l-249 -1175q-38 -181 -102 -291t-176.5 -167.5t-283.5 -57.5zM559 1886
l746 152l10 -80l-746 -150z" />
    <glyph glyph-name="Ucircumflex" unicode="&#xdb;" horiz-adv-x="1327" 
d="M575 -20q-283 0 -394 144.5t-58 393.5l246 1153h127l-248 -1163q-22 -95 -16 -166.5t29 -120t70 -78.5t106.5 -43.5t137.5 -13.5q71 0 124 9.5t103.5 36t87.5 72t68 118.5t52 174l252 1175h124l-249 -1175q-38 -181 -102 -291t-176.5 -167.5t-283.5 -57.5zM555 1802
l332 246h121l231 -246h-125l-170 178l-237 -178h-152z" />
    <glyph glyph-name="Udieresis" unicode="&#xdc;" horiz-adv-x="1327" 
d="M575 -20q-283 0 -394 144.5t-58 393.5l246 1153h127l-248 -1163q-22 -95 -16 -166.5t29 -120t70 -78.5t106.5 -43.5t137.5 -13.5q71 0 124 9.5t103.5 36t87.5 72t68 118.5t52 174l252 1175h124l-249 -1175q-38 -181 -102 -291t-176.5 -167.5t-283.5 -57.5zM618 1909
q9 41 40 65.5t69 24.5q37 0 59 -25t13 -67q-7 -37 -39.5 -61.5t-69.5 -24.5q-39 0 -60 24.5t-12 63.5zM1057 1907q9 43 39.5 67.5t68.5 24.5t59.5 -24.5t12.5 -67.5q-7 -37 -39.5 -61.5t-69.5 -24.5q-38 0 -58 24t-13 62z" />
    <glyph glyph-name="Yacute" unicode="&#xdd;" horiz-adv-x="1175" 
d="M381 0l127 586l-264 1085h129l223 -940l618 940h144l-725 -1085l-127 -586h-125zM483 1886l746 152l10 -80l-745 -150z" />
    <glyph glyph-name="Thorn" unicode="&#xde;" horiz-adv-x="1294" 
d="M25 0l354 1671h123l-64 -297h398q103 0 181.5 -27t127.5 -76.5t76 -120.5t27 -158t-19 -189l-8 -43q-48 -242 -178.5 -352.5t-391.5 -110.5h-442l-64 -297h-120zM231 401h424q202 0 299.5 81t137.5 278l10 57q94 451 -277 451h-409z" />
    <glyph glyph-name="germandbls" unicode="&#xdf;" horiz-adv-x="1187" 
d="M12 0l271 1272q44 213 160 316.5t335 103.5q239 0 343.5 -113.5t62.5 -314.5l-13 -64q-56 -260 -307 -332q257 -96 187 -424l-7 -30q-48 -225 -172.5 -319.5t-345.5 -94.5h-276l20 102h238q75 0 130.5 8.5t104 30t82 59t59.5 94t42 136.5l8 37q12 55 13.5 100t-12.5 93.5
t-47.5 81t-99 54t-159.5 21.5h-205l22 103h197q131 0 215.5 33.5t128.5 94t64 158.5l14 68q36 169 -37.5 242t-249.5 73q-163 0 -251 -70t-128 -255l-268 -1264h-119z" />
    <glyph glyph-name="agrave" unicode="&#xe0;" horiz-adv-x="1136" 
d="M733 0l45 205q-61 -109 -173.5 -167t-252.5 -58q-69 0 -128.5 17.5t-107 52t-75 94t-27.5 137.5q0 149 94.5 256t292.5 159l174 37q76 23 128.5 42.5t105 47.5t84.5 64t45 80v2q30 132 -42 206t-220 74q-145 0 -241.5 -76.5t-127.5 -244.5l-8 -43h-121l8 41
q17 94 52.5 168.5t93 134t145.5 91.5t201 32q219 0 316.5 -115t60.5 -293l-203 -944h-119zM139 295q0 -101 62.5 -157t175.5 -56q165 0 285 111t182 333l51 242l4 14q-40 -48 -107.5 -80t-195.5 -67l-164 -33q-152 -37 -222.5 -119.5t-70.5 -187.5zM338 1604l37 79l745 -151
l-39 -78z" />
    <glyph glyph-name="aacute" unicode="&#xe1;" horiz-adv-x="1136" 
d="M733 0l45 205q-61 -109 -173.5 -167t-252.5 -58q-69 0 -128.5 17.5t-107 52t-75 94t-27.5 137.5q0 149 94.5 256t292.5 159l174 37q76 23 128.5 42.5t105 47.5t84.5 64t45 80v2q30 132 -42 206t-220 74q-145 0 -241.5 -76.5t-127.5 -244.5l-8 -43h-121l8 41
q17 94 52.5 168.5t93 134t145.5 91.5t201 32q219 0 316.5 -115t60.5 -293l-203 -944h-119zM139 295q0 -101 62.5 -157t175.5 -56q165 0 285 111t182 333l51 242l4 14q-40 -48 -107.5 -80t-195.5 -67l-164 -33q-152 -37 -222.5 -119.5t-70.5 -187.5zM360 1546l746 152l10 -80
l-745 -150z" />
    <glyph glyph-name="acircumflex" unicode="&#xe2;" horiz-adv-x="1136" 
d="M733 0l45 205q-61 -109 -173.5 -167t-252.5 -58q-69 0 -128.5 17.5t-107 52t-75 94t-27.5 137.5q0 149 94.5 256t292.5 159l174 37q76 23 128.5 42.5t105 47.5t84.5 64t45 80v2q30 132 -42 206t-220 74q-145 0 -241.5 -76.5t-127.5 -244.5l-8 -43h-121l8 41
q17 94 52.5 168.5t93 134t145.5 91.5t201 32q219 0 316.5 -115t60.5 -293l-203 -944h-119zM139 295q0 -101 62.5 -157t175.5 -56q165 0 285 111t182 333l51 242l4 14q-40 -48 -107.5 -80t-195.5 -67l-164 -33q-152 -37 -222.5 -119.5t-70.5 -187.5zM354 1462l332 246h121
l231 -246h-125l-170 178l-237 -178h-152z" />
    <glyph glyph-name="atilde" unicode="&#xe3;" horiz-adv-x="1136" 
d="M733 0l45 205q-61 -109 -173.5 -167t-252.5 -58q-69 0 -128.5 17.5t-107 52t-75 94t-27.5 137.5q0 149 94.5 256t292.5 159l174 37q76 23 128.5 42.5t105 47.5t84.5 64t45 80v2q30 132 -42 206t-220 74q-145 0 -241.5 -76.5t-127.5 -244.5l-8 -43h-121l8 41
q17 94 52.5 168.5t93 134t145.5 91.5t201 32q219 0 316.5 -115t60.5 -293l-203 -944h-119zM139 295q0 -101 62.5 -157t175.5 -56q165 0 285 111t182 333l51 242l4 14q-40 -48 -107.5 -80t-195.5 -67l-164 -33q-152 -37 -222.5 -119.5t-70.5 -187.5zM344 1470
q16 111 80 164.5t156 53.5q51 0 89 -15.5t60.5 -38t42.5 -45t47.5 -38t63.5 -15.5q55 0 87.5 34t41.5 97h102q-16 -112 -79.5 -164.5t-157.5 -52.5q-53 0 -92 15.5t-62 38t-43 45t-46.5 38t-60.5 15.5q-54 0 -86 -35.5t-41 -96.5h-102z" />
    <glyph glyph-name="adieresis" unicode="&#xe4;" horiz-adv-x="1136" 
d="M733 0l45 205q-61 -109 -173.5 -167t-252.5 -58q-69 0 -128.5 17.5t-107 52t-75 94t-27.5 137.5q0 149 94.5 256t292.5 159l174 37q76 23 128.5 42.5t105 47.5t84.5 64t45 80v2q30 132 -42 206t-220 74q-145 0 -241.5 -76.5t-127.5 -244.5l-8 -43h-121l8 41
q17 94 52.5 168.5t93 134t145.5 91.5t201 32q219 0 316.5 -115t60.5 -293l-203 -944h-119zM139 295q0 -101 62.5 -157t175.5 -56q165 0 285 111t182 333l51 242l4 14q-40 -48 -107.5 -80t-195.5 -67l-164 -33q-152 -37 -222.5 -119.5t-70.5 -187.5zM420 1569q9 41 39.5 65.5
t68.5 24.5q37 0 59 -25t13 -67q-7 -37 -39 -61.5t-69 -24.5q-39 0 -60 24.5t-12 63.5zM858 1567q9 43 40 67.5t69 24.5t59 -24.5t12 -67.5q-7 -37 -39 -61.5t-69 -24.5q-39 0 -59 24t-13 62z" />
    <glyph glyph-name="aring" unicode="&#xe5;" horiz-adv-x="1136" 
d="M733 0l45 205q-61 -109 -173.5 -167t-252.5 -58q-69 0 -128.5 17.5t-107 52t-75 94t-27.5 137.5q0 149 94.5 256t292.5 159l174 37q76 23 128.5 42.5t105 47.5t84.5 64t45 80v2q30 132 -42 206t-220 74q-145 0 -241.5 -76.5t-127.5 -244.5l-8 -43h-121l8 41
q17 94 52.5 168.5t93 134t145.5 91.5t201 32q219 0 316.5 -115t60.5 -293l-203 -944h-119zM139 295q0 -101 62.5 -157t175.5 -56q165 0 285 111t182 333l51 242l4 14q-40 -48 -107.5 -80t-195.5 -67l-164 -33q-152 -37 -222.5 -119.5t-70.5 -187.5zM567 1589
q0 71 49.5 118.5t116.5 47.5t116.5 -47.5t49.5 -118.5t-49.5 -118.5t-116.5 -47.5t-116.5 47.5t-49.5 118.5zM643 1589q0 -40 24.5 -65t65.5 -25t65.5 25t24.5 65t-24.5 65t-65.5 25t-65.5 -25t-24.5 -65z" />
    <glyph glyph-name="ae" unicode="&#xe6;" horiz-adv-x="1759" 
d="M360 -20q-70 0 -131 16.5t-114 51.5t-84 98t-31 149q0 289 362 401l226 56q135 42 214 115.5t89 170.5q10 102 -59.5 157.5t-180.5 55.5q-142 0 -230.5 -89.5t-117.5 -241.5l-8 -37h-121l8 41q17 86 50 158t87.5 135t139.5 99t192 36q127 0 214.5 -48.5t119.5 -136.5
q69 96 155.5 140.5t205.5 44.5q222 0 311.5 -141.5t44.5 -385.5l-37 -170h-741l-35 -161q-13 -64 -14 -122.5t13.5 -112t45 -92.5t84.5 -62t127 -23q128 0 210 76t126 243l4 21h121l-4 -23q-54 -204 -164 -311.5t-297 -107.5q-139 0 -232.5 58.5t-130.5 170.5
q-146 -229 -418 -229zM121 301q0 -106 71 -163.5t179 -57.5q143 0 248 87t139 234l84 383q-69 -80 -244 -133l-205 -51q-140 -41 -206 -119.5t-66 -179.5zM944 752h617l24 120q9 62 10 118t-14.5 103.5t-44 82t-79 54t-118.5 19.5q-151 0 -242.5 -96.5t-133.5 -310.5z" />
    <glyph glyph-name="ccedilla" unicode="&#xe7;" horiz-adv-x="1099" 
d="M928 881q31 192 -43 280t-228 88q-314 0 -393 -364l-71 -340q-50 -230 26 -346.5t256 -116.5q67 0 121 16.5t102 54t84 104.5t58 163l22 104h123l-22 -100q-51 -209 -162.5 -321.5t-294.5 -122.5l-53 -113q54 7 99 4t74.5 -33t28.5 -84q-1 -101 -97.5 -139.5
t-311.5 -38.5l20 82q162 0 222.5 17.5t60.5 68.5q1 42 -44.5 52t-168.5 -3l84 189q-217 19 -307.5 173.5t-38.5 399.5l69 332q104 465 514 465q219 0 322.5 -128t69.5 -350l-15 -77h-123z" />
    <glyph glyph-name="egrave" unicode="&#xe8;" horiz-adv-x="1095" 
d="M1090 1532l-39 -78l-744 150l37 79zM72 549l71 332q98 471 508 471q98 0 173 -26t121.5 -73t73 -113t27.5 -146.5t-14 -172.5l-35 -166h-782l-25 -116q-48 -225 28.5 -341t254.5 -116q137 0 222 71t128 232l11 47h122l-10 -43q-27 -95 -65 -167.5t-94.5 -128t-136 -84.5
t-179.5 -29q-122 0 -212 42t-138 118t-63 180t14 229zM238 752h655l25 116q59 381 -269 381q-311 0 -385 -370z" />
    <glyph glyph-name="eacute" unicode="&#xe9;" horiz-adv-x="1095" 
d="M338 1468l-10 78l745 152l10 -80zM72 549l71 332q98 471 508 471q98 0 173 -26t121.5 -73t73 -113t27.5 -146.5t-14 -172.5l-35 -166h-782l-25 -116q-48 -225 28.5 -341t254.5 -116q137 0 222 71t128 232l11 47h122l-10 -43q-27 -95 -65 -167.5t-94.5 -128t-136 -84.5
t-179.5 -29q-122 0 -212 42t-138 118t-63 180t14 229zM238 752h655l25 116q59 381 -269 381q-311 0 -385 -370z" />
    <glyph glyph-name="ecircumflex" unicode="&#xea;" horiz-adv-x="1095" 
d="M324 1462l331 246h121l232 -246h-125l-170 178l-238 -178h-151zM72 549l71 332q98 471 508 471q98 0 173 -26t121.5 -73t73 -113t27.5 -146.5t-14 -172.5l-35 -166h-782l-25 -116q-48 -225 28.5 -341t254.5 -116q137 0 222 71t128 232l11 47h122l-10 -43
q-27 -95 -65 -167.5t-94.5 -128t-136 -84.5t-179.5 -29q-122 0 -212 42t-138 118t-63 180t14 229zM238 752h655l25 116q59 381 -269 381q-311 0 -385 -370z" />
    <glyph glyph-name="edieresis" unicode="&#xeb;" horiz-adv-x="1095" 
d="M897 1481q-39 0 -59 24t-13 62q9 43 40 67.5t69 24.5t59.5 -24.5t12.5 -67.5q-7 -37 -39.5 -61.5t-69.5 -24.5zM72 549l71 332q98 471 508 471q98 0 173 -26t121.5 -73t73 -113t27.5 -146.5t-14 -172.5l-35 -166h-782l-25 -116q-48 -225 28.5 -341t254.5 -116
q137 0 222 71t128 232l11 47h122l-10 -43q-27 -95 -65 -167.5t-94.5 -128t-136 -84.5t-179.5 -29q-122 0 -212 42t-138 118t-63 180t14 229zM238 752h655l25 116q59 381 -269 381q-311 0 -385 -370zM387 1569q9 41 40 65.5t69 24.5q37 0 58.5 -25t12.5 -67q-7 -37 -39 -61.5
t-69 -24.5q-39 0 -60 24.5t-12 63.5z" />
    <glyph glyph-name="igrave" unicode="&#xec;" horiz-adv-x="425" 
d="M295 1331h121l-283 -1331h-121zM141 1608l21 75l510 -155l-21 -74z" />
    <glyph glyph-name="iacute" unicode="&#xed;" horiz-adv-x="425" 
d="M295 1331h121l-283 -1331h-121zM141 1528l510 155l21 -75l-510 -154z" />
    <glyph glyph-name="icircumflex" unicode="&#xee;" horiz-adv-x="425" 
d="M295 1331h121l-283 -1331h-121zM152 1454l215 229h131l114 -229h-108l-84 162l-152 -162h-116z" />
    <glyph glyph-name="idieresis" unicode="&#xef;" horiz-adv-x="425" 
d="M295 1331h121l-283 -1331h-121zM164 1567q9 41 39 65.5t67 24.5q35 0 56 -25t14 -65q-7 -37 -39.5 -61.5t-69.5 -24.5q-36 0 -55 24t-12 62zM496 1567q9 40 39.5 65t66.5 25q37 0 58 -25t12 -65q-7 -37 -39 -61.5t-68 -24.5q-37 0 -56.5 24t-12.5 62z" />
    <glyph glyph-name="eth" unicode="&#xf0;" horiz-adv-x="1110" 
d="M477 -20q-117 0 -207 33t-148.5 99t-77 165t8.5 231l27 125q41 191 158.5 300t320.5 109q122 0 216.5 -44t135.5 -130q3 330 -184 514l-469 -198l23 114l364 154q-115 83 -274 143l43 97q208 -79 340 -193l428 180l-23 -112l-330 -140q283 -312 160 -882l-24 -111
q-48 -227 -160.5 -340.5t-327.5 -113.5zM174 496q-44 -210 36.5 -312t262.5 -102q158 0 241.5 79t121.5 251l24 112q23 96 16 167t-29.5 118.5t-66.5 76.5t-95 41.5t-114 12.5q-152 0 -243 -76t-127 -243z" />
    <glyph glyph-name="ntilde" unicode="&#xf1;" horiz-adv-x="1165" 
d="M416 1331l-35 -162q138 183 369 183q191 0 280 -122.5t45 -330.5l-192 -899h-119l188 885q36 172 -22.5 269t-210.5 97q-70 0 -130.5 -22t-102 -55.5t-75 -79t-52.5 -88t-31 -86.5l-197 -920h-119l285 1331h119zM393 1470q16 111 80 164.5t156 53.5q51 0 89 -15.5
t60.5 -38t42.5 -45t47.5 -38t63.5 -15.5q55 0 87.5 34t41.5 97h102q-16 -112 -79.5 -164.5t-157.5 -52.5q-53 0 -92 15.5t-61.5 38t-42.5 45t-46.5 38t-60.5 15.5q-54 0 -86 -35.5t-41 -96.5h-103z" />
    <glyph glyph-name="ograve" unicode="&#xf2;" horiz-adv-x="1124" 
d="M479 -20q-245 0 -352.5 156.5t-54.5 412.5l71 332q21 102 56.5 182t93.5 147.5t148 104.5t206 37q124 0 215 -42t140 -118t64 -181t-13 -231l-72 -331q-21 -102 -56 -181.5t-92.5 -147t-147 -104t-206.5 -36.5zM190 539q-48 -227 30 -342t257 -115q160 0 253.5 94.5
t131.5 276.5l72 340q48 225 -29.5 340.5t-257.5 115.5q-160 0 -253.5 -94t-129.5 -276zM313 1604l37 79l746 -151l-39 -78z" />
    <glyph glyph-name="oacute" unicode="&#xf3;" horiz-adv-x="1124" 
d="M479 -20q-245 0 -352.5 156.5t-54.5 412.5l71 332q21 102 56.5 182t93.5 147.5t148 104.5t206 37q124 0 215 -42t140 -118t64 -181t-13 -231l-72 -331q-21 -102 -56 -181.5t-92.5 -147t-147 -104t-206.5 -36.5zM190 539q-48 -227 30 -342t257 -115q160 0 253.5 94.5
t131.5 276.5l72 340q48 225 -29.5 340.5t-257.5 115.5q-160 0 -253.5 -94t-129.5 -276zM334 1546l745 152l11 -80l-746 -150z" />
    <glyph glyph-name="ocircumflex" unicode="&#xf4;" horiz-adv-x="1124" 
d="M479 -20q-245 0 -352.5 156.5t-54.5 412.5l71 332q21 102 56.5 182t93.5 147.5t148 104.5t206 37q124 0 215 -42t140 -118t64 -181t-13 -231l-72 -331q-21 -102 -56 -181.5t-92.5 -147t-147 -104t-206.5 -36.5zM190 539q-48 -227 30 -342t257 -115q160 0 253.5 94.5
t131.5 276.5l72 340q48 225 -29.5 340.5t-257.5 115.5q-160 0 -253.5 -94t-129.5 -276zM330 1462l332 246h120l232 -246h-125l-170 178l-238 -178h-151z" />
    <glyph glyph-name="otilde" unicode="&#xf5;" horiz-adv-x="1124" 
d="M479 -20q-245 0 -352.5 156.5t-54.5 412.5l71 332q21 102 56.5 182t93.5 147.5t148 104.5t206 37q124 0 215 -42t140 -118t64 -181t-13 -231l-72 -331q-21 -102 -56 -181.5t-92.5 -147t-147 -104t-206.5 -36.5zM190 539q-48 -227 30 -342t257 -115q160 0 253.5 94.5
t131.5 276.5l72 340q48 225 -29.5 340.5t-257.5 115.5q-160 0 -253.5 -94t-129.5 -276zM317 1470q16 111 80 164.5t156 53.5q51 0 89 -15.5t60.5 -38t42.5 -45t47.5 -38t63.5 -15.5q55 0 87.5 34t41.5 97h102q-16 -112 -79.5 -164.5t-157.5 -52.5q-53 0 -92 15.5t-61.5 38
t-42.5 45t-46.5 38t-60.5 15.5q-54 0 -86 -35.5t-41 -96.5h-103z" />
    <glyph glyph-name="odieresis" unicode="&#xf6;" horiz-adv-x="1124" 
d="M479 -20q-245 0 -352.5 156.5t-54.5 412.5l71 332q21 102 56.5 182t93.5 147.5t148 104.5t206 37q124 0 215 -42t140 -118t64 -181t-13 -231l-72 -331q-21 -102 -56 -181.5t-92.5 -147t-147 -104t-206.5 -36.5zM190 539q-48 -227 30 -342t257 -115q160 0 253.5 94.5
t131.5 276.5l72 340q48 225 -29.5 340.5t-257.5 115.5q-160 0 -253.5 -94t-129.5 -276zM393 1569q9 41 40 65.5t69 24.5q37 0 58.5 -25t12.5 -67q-7 -37 -39 -61.5t-69 -24.5q-39 0 -60 24.5t-12 63.5zM831 1567q9 43 40 67.5t69 24.5t59.5 -24.5t12.5 -67.5
q-7 -37 -39.5 -61.5t-69.5 -24.5q-39 0 -59 24t-13 62z" />
    <glyph glyph-name="divide" unicode="&#xf7;" horiz-adv-x="1361" 
d="M768 1030q-28 0 -45.5 17t-17.5 43q0 25 19 44t42 19q28 0 45.5 -17.5t17.5 -43.5q0 -24 -19.5 -43t-41.5 -19zM119 788l18 86h1176l-19 -86h-1175zM596 569q0 26 18 45t43 19q26 0 44 -17.5t18 -42.5q0 -27 -19 -45t-43 -18q-27 0 -44 17t-17 42z" />
    <glyph glyph-name="oslash" unicode="&#xf8;" horiz-adv-x="1124" 
d="M479 -20q-168 0 -272 75l-154 -229h-96l188 285q-133 155 -73 438l71 332q21 102 56.5 182t93.5 147.5t148 104.5t206 37q168 0 273 -76l153 229h98l-190 -286q132 -154 72 -439l-72 -331q-21 -102 -56 -181.5t-92.5 -147t-147 -104t-206.5 -36.5zM190 539
q-45 -211 23 -328l647 973q-77 65 -213 65q-160 0 -253.5 -94t-129.5 -276zM266 145q75 -63 211 -63q160 0 253.5 94.5t131.5 276.5l72 340q45 203 -21 325z" />
    <glyph glyph-name="ugrave" unicode="&#xf9;" horiz-adv-x="1165" 
d="M752 0l34 166q-138 -186 -370 -186q-192 0 -281 122t-45 330l193 899h118l-188 -885q-36 -172 22.5 -269t210.5 -97q76 0 141 25.5t107.5 64.5t75.5 90t50 96.5t26 89.5l-2 -16l190 901h119l-283 -1331h-118zM371 1604l37 79l745 -151l-39 -78z" />
    <glyph glyph-name="uacute" unicode="&#xfa;" horiz-adv-x="1165" 
d="M752 0l34 166q-138 -186 -370 -186q-192 0 -281 122t-45 330l193 899h118l-188 -885q-36 -172 22.5 -269t210.5 -97q76 0 141 25.5t107.5 64.5t75.5 90t50 96.5t26 89.5l-2 -16l190 901h119l-283 -1331h-118zM393 1546l746 152l10 -80l-746 -150z" />
    <glyph glyph-name="ucircumflex" unicode="&#xfb;" horiz-adv-x="1165" 
d="M752 0l34 166q-138 -186 -370 -186q-192 0 -281 122t-45 330l193 899h118l-188 -885q-36 -172 22.5 -269t210.5 -97q76 0 141 25.5t107.5 64.5t75.5 90t50 96.5t26 89.5l-2 -16l190 901h119l-283 -1331h-118zM387 1462l332 246h121l231 -246h-125l-170 178l-237 -178
h-152z" />
    <glyph glyph-name="udieresis" unicode="&#xfc;" horiz-adv-x="1165" 
d="M752 0l34 166q-138 -186 -370 -186q-192 0 -281 122t-45 330l193 899h118l-188 -885q-36 -172 22.5 -269t210.5 -97q76 0 141 25.5t107.5 64.5t75.5 90t50 96.5t26 89.5l-2 -16l190 901h119l-283 -1331h-118zM453 1569q9 41 39.5 65.5t68.5 24.5q37 0 59 -25t13 -67
q-7 -37 -39.5 -61.5t-69.5 -24.5q-39 0 -59.5 24.5t-11.5 63.5zM891 1567q9 43 39.5 67.5t68.5 24.5t59.5 -24.5t12.5 -67.5q-7 -37 -39 -61.5t-69 -24.5q-39 0 -59 24t-13 62z" />
    <glyph glyph-name="yacute" unicode="&#xfd;" horiz-adv-x="1161" 
d="M752 10l32 152q-141 -182 -368 -182q-192 0 -281 122t-45 330l193 899h118l-188 -885q-36 -172 22.5 -269t210.5 -97q85 0 154.5 30.5t115.5 81t74.5 102t45.5 107.5l196 930h121l-285 -1339q-25 -117 -56.5 -194t-83.5 -133.5t-127 -81.5t-183 -25h-471l22 102h432
q84 0 141.5 18t98 61.5t65.5 107t46 163.5zM408 1546l745 152l10 -80l-745 -150z" />
    <glyph glyph-name="thorn" unicode="&#xfe;" horiz-adv-x="1165" 
d="M39 -442h-119l447 2113h118l-106 -504q55 81 142 132t202 51q137 0 234.5 -68t136 -193.5t4.5 -285.5l-80 -369q-46 -224 -163 -340.5t-302 -116.5q-148 0 -245 69t-128 181zM240 504q-22 -118 -1 -211.5t96.5 -153t199.5 -59.5q145 0 236.5 94t127.5 268l78 361
q42 199 -31 321.5t-241 122.5q-80 0 -147 -31.5t-115 -87.5t-81 -127.5t-51 -156.5l-57 -269z" />
    <glyph glyph-name="ydieresis" unicode="&#xff;" horiz-adv-x="1161" 
d="M752 10l32 152q-141 -182 -368 -182q-192 0 -281 122t-45 330l193 899h118l-188 -885q-36 -172 22.5 -269t210.5 -97q85 0 154.5 30.5t115.5 81t74.5 102t45.5 107.5l196 930h121l-285 -1339q-25 -117 -56.5 -194t-83.5 -133.5t-127 -81.5t-183 -25h-471l22 102h432
q84 0 141.5 18t98 61.5t65.5 107t46 163.5zM467 1569q9 41 39.5 65.5t68.5 24.5q37 0 59 -25t13 -67q-7 -37 -39 -61.5t-69 -24.5q-39 0 -60 24.5t-12 63.5zM905 1567q9 43 40 67.5t69 24.5t59 -24.5t12 -67.5q-7 -37 -39 -61.5t-69 -24.5q-39 0 -59 24t-13 62z" />
    <glyph glyph-name="Amacron" unicode="&#x100;" horiz-adv-x="1155" 
d="M-100 0l813 1671h159l103 -1671h-127l-19 375h-618l-178 -375h-133zM262 481h561l-53 1045l-2 14l-6 -14zM436 1868l17 82h796l-16 -82h-797z" />
    <glyph glyph-name="amacron" unicode="&#x101;" horiz-adv-x="1136" 
d="M733 0l45 205q-61 -109 -173.5 -167t-252.5 -58q-69 0 -128.5 17.5t-107 52t-75 94t-27.5 137.5q0 149 94.5 256t292.5 159l174 37q76 23 128.5 42.5t105 47.5t84.5 64t45 80v2q30 132 -42 206t-220 74q-145 0 -241.5 -76.5t-127.5 -244.5l-8 -43h-121l8 41
q17 94 52.5 168.5t93 134t145.5 91.5t201 32q219 0 316.5 -115t60.5 -293l-203 -944h-119zM139 295q0 -101 62.5 -157t175.5 -56q165 0 285 111t182 333l51 242l4 14q-40 -48 -107.5 -80t-195.5 -67l-164 -33q-152 -37 -222.5 -119.5t-70.5 -187.5zM322 1528l16 82h797
l-17 -82h-796z" />
    <glyph glyph-name="Abreve" unicode="&#x102;" horiz-adv-x="1155" 
d="M-100 0l813 1671h159l103 -1671h-127l-19 375h-618l-178 -375h-133zM262 481h561l-53 1045l-2 14l-6 -14zM496 2028h102q-3 -44 15.5 -74t55.5 -45.5t80 -22t99 -6.5q123 0 198.5 33.5t94.5 114.5h102q-35 -132 -132.5 -183t-266.5 -51q-170 0 -262.5 54.5t-85.5 179.5z
" />
    <glyph glyph-name="abreve" unicode="&#x103;" horiz-adv-x="1136" 
d="M733 0l45 205q-61 -109 -173.5 -167t-252.5 -58q-69 0 -128.5 17.5t-107 52t-75 94t-27.5 137.5q0 149 94.5 256t292.5 159l174 37q76 23 128.5 42.5t105 47.5t84.5 64t45 80v2q30 132 -42 206t-220 74q-145 0 -241.5 -76.5t-127.5 -244.5l-8 -43h-121l8 41
q17 94 52.5 168.5t93 134t145.5 91.5t201 32q219 0 316.5 -115t60.5 -293l-203 -944h-119zM139 295q0 -101 62.5 -157t175.5 -56q165 0 285 111t182 333l51 242l4 14q-40 -48 -107.5 -80t-195.5 -67l-164 -33q-152 -37 -222.5 -119.5t-70.5 -187.5zM381 1688h102
q-3 -44 15.5 -74t55.5 -45.5t80 -22t99 -6.5q123 0 198.5 33.5t94.5 114.5h102q-35 -132 -132.5 -183t-266.5 -51q-170 0 -262.5 54.5t-85.5 179.5z" />
    <glyph glyph-name="Aogonek" unicode="&#x104;" horiz-adv-x="1155" 
d="M-100 0l813 1671h159l103 -1671h-2q-122 -36 -187.5 -83.5t-80.5 -115.5q-14 -66 39 -96.5t186 -30.5h24l-98 -84h-22q-124 0 -188.5 50t-43.5 149q33 149 287 211h-41l-19 375h-618l-178 -375h-133zM262 481h561l-53 1045l-2 14l-6 -14z" />
    <glyph glyph-name="aogonek" unicode="&#x105;" horiz-adv-x="1136" 
d="M733 0l45 205q-61 -109 -173.5 -167t-252.5 -58q-69 0 -128.5 17.5t-107 52t-75 94t-27.5 137.5q0 149 94.5 256t292.5 159l174 37q76 23 128.5 42.5t105 47.5t84.5 64t45 80v2q30 132 -42 206t-220 74q-145 0 -241.5 -76.5t-127.5 -244.5l-8 -43h-121l8 41
q17 94 52.5 168.5t93 134t145.5 91.5t201 32q219 0 316.5 -115t60.5 -293l-203 -944h2q-122 -36 -187.5 -83.5t-80.5 -115.5q-14 -66 39 -96.5t186 -30.5h25l-99 -84h-22q-124 0 -188.5 50t-43.5 149q33 149 287 211h-37zM139 295q0 -101 62.5 -157t175.5 -56q165 0 285 111
t182 333l51 242l4 14q-40 -48 -107.5 -80t-195.5 -67l-164 -33q-152 -37 -222.5 -119.5t-70.5 -187.5z" />
    <glyph glyph-name="Cacute" unicode="&#x106;" horiz-adv-x="1308" 
d="M584 -20q-186 0 -309.5 85.5t-166.5 237t-2 346.5l109 512q20 90 51 165.5t81.5 144.5t116 116.5t158 76t203.5 28.5q255 0 384.5 -142.5t93.5 -394.5l-35 -166h-127l35 170q16 114 -2.5 197t-68 132t-119 72t-161.5 23q-389 0 -481 -426l-113 -520q-55 -258 43 -403.5
t312 -145.5q186 0 303 95.5t160 305.5l41 193h129l-39 -188q-109 -514 -596 -514zM504 1886l745 152l11 -80l-746 -150z" />
    <glyph glyph-name="cacute" unicode="&#x107;" horiz-adv-x="1099" 
d="M928 881q31 192 -43 280t-228 88q-314 0 -393 -364l-71 -340q-50 -230 26 -346.5t256 -116.5q67 0 121 16.5t102 54t84 104.5t58 163l22 104h123l-22 -100q-52 -219 -172 -331.5t-318 -112.5q-163 0 -267 73.5t-134.5 201.5t2.5 300l69 332q104 465 514 465
q219 0 322.5 -128t69.5 -350l-15 -77h-123zM334 1546l745 152l11 -80l-746 -150z" />
    <glyph glyph-name="Ccircumflex" unicode="&#x108;" horiz-adv-x="1308" 
d="M584 -20q-186 0 -309.5 85.5t-166.5 237t-2 346.5l109 512q20 90 51 165.5t81.5 144.5t116 116.5t158 76t203.5 28.5q255 0 384.5 -142.5t93.5 -394.5l-35 -166h-127l35 170q16 114 -2.5 197t-68 132t-119 72t-161.5 23q-389 0 -481 -426l-113 -520q-55 -258 43 -403.5
t312 -145.5q186 0 303 95.5t160 305.5l41 193h129l-39 -188q-109 -514 -596 -514zM500 1802l331 246h121l232 -246h-125l-170 178l-238 -178h-151z" />
    <glyph glyph-name="ccircumflex" unicode="&#x109;" horiz-adv-x="1099" 
d="M928 881q31 192 -43 280t-228 88q-314 0 -393 -364l-71 -340q-50 -230 26 -346.5t256 -116.5q67 0 121 16.5t102 54t84 104.5t58 163l22 104h123l-22 -100q-52 -219 -172 -331.5t-318 -112.5q-163 0 -267 73.5t-134.5 201.5t2.5 300l69 332q104 465 514 465
q219 0 322.5 -128t69.5 -350l-15 -77h-123zM328 1462l331 246h121l232 -246h-125l-170 178l-238 -178h-151z" />
    <glyph glyph-name="Cdotaccent" unicode="&#x10a;" horiz-adv-x="1308" 
d="M584 -20q-186 0 -309.5 85.5t-166.5 237t-2 346.5l109 512q20 90 51 165.5t81.5 144.5t116 116.5t158 76t203.5 28.5q255 0 384.5 -142.5t93.5 -394.5l-35 -166h-127l35 170q16 114 -2.5 197t-68 132t-119 72t-161.5 23q-389 0 -481 -426l-113 -520q-55 -258 43 -403.5
t312 -145.5q186 0 303 95.5t160 305.5l41 193h129l-39 -188q-109 -514 -596 -514zM774 1901q6 39 39 66.5t76 27.5q42 0 64 -29t14 -72q-8 -35 -41 -62.5t-74 -27.5q-42 0 -64 29t-14 68z" />
    <glyph glyph-name="cdotaccent" unicode="&#x10b;" horiz-adv-x="1099" 
d="M928 881q31 192 -43 280t-228 88q-314 0 -393 -364l-71 -340q-50 -230 26 -346.5t256 -116.5q67 0 121 16.5t102 54t84 104.5t58 163l22 104h123l-22 -100q-52 -219 -172 -331.5t-318 -112.5q-163 0 -267 73.5t-134.5 201.5t2.5 300l69 332q104 465 514 465
q219 0 322.5 -128t69.5 -350l-15 -77h-123zM608 1597q9 40 42.5 67.5t76.5 27.5q44 0 66.5 -29.5t13.5 -73.5q-8 -35 -42 -62.5t-77 -27.5t-65.5 28.5t-14.5 69.5z" />
    <glyph glyph-name="Ccaron" unicode="&#x10c;" horiz-adv-x="1308" 
d="M584 -20q-186 0 -309.5 85.5t-166.5 237t-2 346.5l109 512q20 90 51 165.5t81.5 144.5t116 116.5t158 76t203.5 28.5q255 0 384.5 -142.5t93.5 -394.5l-35 -166h-127l35 170q16 114 -2.5 197t-68 132t-119 72t-161.5 23q-389 0 -481 -426l-113 -520q-55 -258 43 -403.5
t312 -145.5q186 0 303 95.5t160 305.5l41 193h129l-39 -188q-109 -514 -596 -514zM535 2040h133l188 -182l260 182h152l-357 -246h-120z" />
    <glyph glyph-name="ccaron" unicode="&#x10d;" horiz-adv-x="1099" 
d="M928 881q31 192 -43 280t-228 88q-314 0 -393 -364l-71 -340q-50 -230 26 -346.5t256 -116.5q67 0 121 16.5t102 54t84 104.5t58 163l22 104h123l-22 -100q-52 -219 -172 -331.5t-318 -112.5q-163 0 -267 73.5t-134.5 201.5t2.5 300l69 332q104 465 514 465
q219 0 322.5 -128t69.5 -350l-15 -77h-123zM362 1700h134l188 -182l260 182h152l-357 -246h-121z" />
    <glyph glyph-name="Dcaron" unicode="&#x10e;" horiz-adv-x="1327" 
d="M25 0l354 1671h440q281 0 410 -171t63 -480l-102 -477q-61 -282 -217 -412.5t-430 -130.5h-518zM170 104h354q166 0 274 49t169.5 145.5t95.5 256.5l100 465q58 272 -28.5 409.5t-331.5 137.5h-322zM573 2040h134l188 -182l260 182h152l-357 -246h-121z" />
    <glyph glyph-name="dcaron" unicode="&#x10f;" horiz-adv-x="1234" 
d="M1106 1671h119l-353 -1671h-120l34 160q-56 -79 -142.5 -128.5t-199.5 -49.5q-103 0 -185 39.5t-132 111.5t-67 172.5t10 222.5l80 369q46 224 162.5 340.5t301.5 116.5q147 0 244 -68t129 -180zM190 528q-42 -199 31.5 -321.5t241.5 -122.5q146 0 243.5 99.5
t139.5 262.5l88 414q11 82 -0.5 151.5t-46.5 123.5t-99.5 85t-154.5 31q-145 0 -237 -94t-128 -268zM1196 1208l184 463h109l-209 -463h-84z" />
    <glyph glyph-name="Dcroat" unicode="&#x110;" horiz-adv-x="1398" 
d="M98 0l170 805h-213l17 86h215l166 780h440q281 0 410 -171t63 -480l-102 -477q-61 -282 -217.5 -412.5t-430.5 -130.5h-518zM244 104h354q166 0 274 49t169.5 145.5t95.5 256.5l100 465q58 272 -28.5 409.5t-331.5 137.5h-322l-143 -676h446l-18 -86h-447z" />
    <glyph glyph-name="dcroat" unicode="&#x111;" horiz-adv-x="1165" 
d="M1106 1671h119l-29 -135h197l-19 -84h-196l-306 -1452h-120l34 160q-56 -79 -142.5 -128.5t-199.5 -49.5q-103 0 -185 39.5t-132 111.5t-67 172.5t10 222.5l80 369q46 224 162.5 340.5t301.5 116.5q147 0 244 -68t129 -180l72 346h-461l18 84h461zM190 528
q-42 -199 31.5 -321.5t241.5 -122.5q146 0 243.5 99.5t139.5 262.5l88 414q11 82 -0.5 151.5t-46.5 123.5t-99.5 85t-154.5 31q-145 0 -237 -94t-128 -268z" />
    <glyph glyph-name="Emacron" unicode="&#x112;" horiz-adv-x="1118" 
d="M25 0l354 1671h858l-23 -106h-733l-143 -676h704l-20 -107h-709l-143 -676h735l-24 -106h-856zM440 1868l17 82h796l-16 -82h-797z" />
    <glyph glyph-name="emacron" unicode="&#x113;" horiz-adv-x="1095" 
d="M291 1528l16 82h797l-17 -82h-796zM72 549l71 332q98 471 508 471q98 0 173 -26t121.5 -73t73 -113t27.5 -146.5t-14 -172.5l-35 -166h-782l-25 -116q-48 -225 28.5 -341t254.5 -116q137 0 222 71t128 232l11 47h122l-10 -43q-27 -95 -65 -167.5t-94.5 -128t-136 -84.5
t-179.5 -29q-122 0 -212 42t-138 118t-63 180t14 229zM238 752h655l25 116q59 381 -269 381q-311 0 -385 -370z" />
    <glyph glyph-name="Edotaccent" unicode="&#x116;" horiz-adv-x="1118" 
d="M25 0l354 1671h858l-23 -106h-733l-143 -676h704l-20 -107h-709l-143 -676h735l-24 -106h-856zM750 1901q6 39 38.5 66.5t75.5 27.5q42 0 64 -29t14 -72q-8 -35 -41 -62.5t-74 -27.5q-42 0 -63.5 29t-13.5 68z" />
    <glyph glyph-name="edotaccent" unicode="&#x117;" horiz-adv-x="1095" 
d="M682 1499q-43 0 -65.5 28.5t-14.5 69.5q9 40 42.5 67.5t76.5 27.5q44 0 66.5 -29.5t13.5 -73.5q-8 -35 -42 -62.5t-77 -27.5zM72 549l71 332q98 471 508 471q98 0 173 -26t121.5 -73t73 -113t27.5 -146.5t-14 -172.5l-35 -166h-782l-25 -116q-48 -225 28.5 -341
t254.5 -116q137 0 222 71t128 232l11 47h122l-10 -43q-27 -95 -65 -167.5t-94.5 -128t-136 -84.5t-179.5 -29q-122 0 -212 42t-138 118t-63 180t14 229zM238 752h655l25 116q59 381 -269 381q-311 0 -385 -370z" />
    <glyph glyph-name="Eogonek" unicode="&#x118;" horiz-adv-x="1118" 
d="M25 0l354 1671h858l-23 -106h-733l-143 -676h704l-20 -107h-709l-143 -676h735l-24 -106q-123 -36 -188.5 -83.5t-80.5 -115.5q-14 -66 39.5 -96.5t186.5 -30.5h24l-98 -84h-23q-124 0 -188 50t-43 149q33 149 287 211h-772z" />
    <glyph glyph-name="eogonek" unicode="&#x119;" horiz-adv-x="1095" 
d="M483 -410q-124 0 -188 50t-43 149q26 127 215 191q-121 1 -210 43.5t-136.5 118t-62 179.5t13.5 228l71 332q98 471 508 471q98 0 173 -26t121.5 -73t73 -113t27.5 -146.5t-14 -172.5l-35 -166h-782l-25 -116q-48 -225 28.5 -341t254.5 -116q137 0 222 71t128 232l11 47
h122l-10 -43q-91 -330 -338 -393q-115 -36 -177 -82.5t-77 -112.5q-14 -66 39.5 -96.5t186.5 -30.5h24l-98 -84h-23zM238 752h655l25 116q59 381 -269 381q-311 0 -385 -370z" />
    <glyph glyph-name="Ecaron" unicode="&#x11a;" horiz-adv-x="1118" 
d="M25 0l354 1671h858l-23 -106h-733l-143 -676h704l-20 -107h-709l-143 -676h735l-24 -106h-856zM508 2040h133l188 -182l261 182h151l-356 -246h-121z" />
    <glyph glyph-name="ecaron" unicode="&#x11b;" horiz-adv-x="1095" 
d="M614 1454l-256 246h134l188 -182l260 182h152l-357 -246h-121zM72 549l71 332q98 471 508 471q98 0 173 -26t121.5 -73t73 -113t27.5 -146.5t-14 -172.5l-35 -166h-782l-25 -116q-48 -225 28.5 -341t254.5 -116q137 0 222 71t128 232l11 47h122l-10 -43
q-27 -95 -65 -167.5t-94.5 -128t-136 -84.5t-179.5 -29q-122 0 -212 42t-138 118t-63 180t14 229zM238 752h655l25 116q59 381 -269 381q-311 0 -385 -370z" />
    <glyph glyph-name="Gcircumflex" unicode="&#x11c;" 
d="M575 -20q-115 0 -206.5 34t-150 95t-93.5 146t-36.5 188t20.5 221l108 512q25 112 70 202.5t116.5 162.5t177.5 111.5t240 39.5q255 0 389 -149.5t97 -395.5l-25 -111h-127l25 117q17 109 -2 192t-69.5 134.5t-123.5 77.5t-166 26q-385 0 -473 -412l-110 -520
q-56 -267 36 -414t316 -147q191 0 302.5 108t168.5 330l41 187h-486l23 102h612l-174 -817h-94l39 211q-162 -231 -445 -231zM508 1802l332 246h121l231 -246h-125l-170 178l-238 -178h-151z" />
    <glyph glyph-name="gcircumflex" unicode="&#x11d;" horiz-adv-x="1163" 
d="M754 8l30 150q-54 -79 -140.5 -128.5t-199.5 -49.5q-103 0 -185 39.5t-132 111.5t-67 172.5t10 222.5l80 369q46 224 162.5 340.5t301.5 116.5q147 0 244 -68t129 -180l47 227h121l-287 -1345q-24 -116 -57.5 -194t-84.5 -132t-123 -78t-173 -24h-512l23 102h458
q164 0 238.5 76t116.5 272zM190 526q-42 -199 31.5 -321.5t241.5 -122.5q146 0 243 99.5t140 260.5l88 416q11 82 -0.5 151.5t-46.5 123.5t-99.5 85t-154.5 31q-145 0 -237 -94t-128 -268zM379 1462l332 246h120l232 -246h-125l-170 178l-238 -178h-151z" />
    <glyph glyph-name="Gbreve" unicode="&#x11e;" 
d="M575 -20q-115 0 -206.5 34t-150 95t-93.5 146t-36.5 188t20.5 221l108 512q25 112 70 202.5t116.5 162.5t177.5 111.5t240 39.5q255 0 389 -149.5t97 -395.5l-25 -111h-127l25 117q17 109 -2 192t-69.5 134.5t-123.5 77.5t-166 26q-385 0 -473 -412l-110 -520
q-56 -267 36 -414t316 -147q191 0 302.5 108t168.5 330l41 187h-486l23 102h612l-174 -817h-94l39 211q-162 -231 -445 -231zM532 2028h103q-3 -44 15.5 -74t55.5 -45.5t80 -22t99 -6.5q123 0 198.5 33.5t94.5 114.5h102q-35 -132 -132.5 -183t-266.5 -51q-111 0 -187.5 21
t-121.5 74.5t-40 138.5z" />
    <glyph glyph-name="gbreve" unicode="&#x11f;" horiz-adv-x="1163" 
d="M754 8l30 150q-54 -79 -140.5 -128.5t-199.5 -49.5q-103 0 -185 39.5t-132 111.5t-67 172.5t10 222.5l80 369q46 224 162.5 340.5t301.5 116.5q147 0 244 -68t129 -180l47 227h121l-287 -1345q-24 -116 -57.5 -194t-84.5 -132t-123 -78t-173 -24h-512l23 102h458
q164 0 238.5 76t116.5 272zM190 526q-42 -199 31.5 -321.5t241.5 -122.5q146 0 243 99.5t140 260.5l88 416q11 82 -0.5 151.5t-46.5 123.5t-99.5 85t-154.5 31q-145 0 -237 -94t-128 -268zM406 1688h102q-3 -44 15.5 -74t55.5 -45.5t80 -22t99 -6.5q123 0 198.5 33.5
t94.5 114.5h102q-35 -132 -132.5 -183t-266.5 -51q-170 0 -262.5 54.5t-85.5 179.5z" />
    <glyph glyph-name="Gdotaccent" unicode="&#x120;" 
d="M575 -20q-115 0 -206.5 34t-150 95t-93.5 146t-36.5 188t20.5 221l108 512q25 112 70 202.5t116.5 162.5t177.5 111.5t240 39.5q255 0 389 -149.5t97 -395.5l-25 -111h-127l25 117q17 109 -2 192t-69.5 134.5t-123.5 77.5t-166 26q-385 0 -473 -412l-110 -520
q-56 -267 36 -414t316 -147q191 0 302.5 108t168.5 330l41 187h-486l23 102h612l-174 -817h-94l39 211q-162 -231 -445 -231zM782 1901q6 39 39 66.5t76 27.5q42 0 64 -29t14 -72q-8 -35 -41 -62.5t-74 -27.5q-42 0 -64 29t-14 68z" />
    <glyph glyph-name="gdotaccent" unicode="&#x121;" horiz-adv-x="1163" 
d="M754 8l30 150q-54 -79 -140.5 -128.5t-199.5 -49.5q-103 0 -185 39.5t-132 111.5t-67 172.5t10 222.5l80 369q46 224 162.5 340.5t301.5 116.5q147 0 244 -68t129 -180l47 227h121l-287 -1345q-24 -116 -57.5 -194t-84.5 -132t-123 -78t-173 -24h-512l23 102h458
q164 0 238.5 76t116.5 272zM190 526q-42 -199 31.5 -321.5t241.5 -122.5q146 0 243 99.5t140 260.5l88 416q11 82 -0.5 151.5t-46.5 123.5t-99.5 85t-154.5 31q-145 0 -237 -94t-128 -268zM659 1597q9 40 42.5 67.5t76.5 27.5q44 0 66.5 -29.5t13.5 -73.5q-8 -35 -42 -62.5
t-77 -27.5t-65.5 28.5t-14.5 69.5z" />
    <glyph glyph-name="uni0122" unicode="&#x122;" 
d="M575 -20q-115 0 -206.5 34t-150 95t-93.5 146t-36.5 188t20.5 221l108 512q25 112 70 202.5t116.5 162.5t177.5 111.5t240 39.5q255 0 389 -149.5t97 -395.5l-25 -111h-127l25 117q17 109 -2 192t-69.5 134.5t-123.5 77.5t-166 26q-385 0 -473 -412l-110 -520
q-56 -267 36 -414t316 -147q191 0 302.5 108t168.5 330l41 187h-486l23 102h612l-174 -817h-94l39 211q-162 -231 -445 -231zM426 -422l16 78q104 43 142 127q-36 -31 -68 -31t-50 23.5t-11 60.5q8 38 39.5 65t76.5 27q41 0 62 -28t8 -88q-14 -70 -67.5 -131.5
t-147.5 -102.5z" />
    <glyph glyph-name="uni0123" unicode="&#x123;" horiz-adv-x="1163" 
d="M754 8l30 150q-54 -79 -140.5 -128.5t-199.5 -49.5q-103 0 -185 39.5t-132 111.5t-67 172.5t10 222.5l80 369q46 224 162.5 340.5t301.5 116.5q147 0 244 -68t129 -180l47 227h121l-287 -1345q-24 -116 -57.5 -194t-84.5 -132t-123 -78t-173 -24h-512l23 102h458
q164 0 238.5 76t116.5 272zM190 526q-42 -199 31.5 -321.5t241.5 -122.5q146 0 243 99.5t140 260.5l88 416q11 82 -0.5 151.5t-46.5 123.5t-99.5 85t-154.5 31q-145 0 -237 -94t-128 -268zM657 1571q34 151 215 227l-16 -78q-106 -44 -141 -127q33 29 67 29q32 0 50.5 -23.5
t11.5 -60.5q-8 -36 -39 -63t-72 -27q-46 0 -68 29t-8 94z" />
    <glyph glyph-name="Hcircumflex" unicode="&#x124;" 
d="M905 0l166 782h-756l-165 -782h-125l354 1671h125l-166 -782h756l166 782h122l-352 -1671h-125zM557 1802l332 246h121l231 -246h-125l-170 178l-237 -178h-152z" />
    <glyph glyph-name="hcircumflex" unicode="&#x125;" horiz-adv-x="1165" 
d="M487 1671l-106 -502q138 183 369 183q191 0 280 -122.5t45 -330.5l-192 -899h-119l188 885q36 172 -22.5 269t-210.5 97q-86 0 -156.5 -31t-116 -83t-73 -104t-43.5 -109l-197 -924h-121l355 1671h120zM102 1802l332 246h121l231 -246h-124l-170 178l-238 -178h-152z" />
    <glyph glyph-name="Hbar" unicode="&#x126;" horiz-adv-x="1445" 
d="M963 0l165 782h-755l-166 -782h-125l272 1286h-186l18 90h187l63 295h125l-63 -295h755l64 295h123l-62 -295h185l-21 -90h-184l-271 -1286h-124zM395 889h756l84 397h-756z" />
    <glyph glyph-name="hbar" unicode="&#x127;" horiz-adv-x="1165" 
d="M487 1671l-30 -147h432l-19 -84h-432l-57 -271q138 183 369 183q191 0 280 -122.5t45 -330.5l-192 -899h-119l188 885q36 172 -22.5 269t-210.5 97q-86 0 -156.5 -31t-116 -83t-73 -104t-43.5 -109l-197 -924h-121l305 1440h-223l19 84h223l31 147h120z" />
    <glyph glyph-name="Itilde" unicode="&#x128;" horiz-adv-x="765" 
d="M-41 0l27 113h219l305 1446h-221l24 112h564l-25 -112h-219l-305 -1446h221l-25 -113h-565zM260 1810q16 111 80 164.5t156 53.5q51 0 89 -15.5t60.5 -38t42.5 -45t47.5 -38t63.5 -15.5q55 0 87.5 34t41.5 97h102q-16 -112 -79.5 -164.5t-157.5 -52.5q-53 0 -92 15.5
t-62 38t-43 45t-46.5 38t-60.5 15.5q-54 0 -86 -35.5t-41 -96.5h-102z" />
    <glyph glyph-name="itilde" unicode="&#x129;" horiz-adv-x="425" 
d="M295 1331h121l-283 -1331h-121zM20 1470q16 111 80 164.5t156 53.5q51 0 89 -15.5t60.5 -38t42.5 -45t47.5 -38t63.5 -15.5q55 0 87.5 34t41.5 97h103q-16 -112 -80 -164.5t-158 -52.5q-53 0 -92 15.5t-61.5 38t-42.5 45t-46.5 38t-60.5 15.5q-54 0 -86 -35.5t-41 -96.5
h-103z" />
    <glyph glyph-name="Imacron" unicode="&#x12a;" horiz-adv-x="765" 
d="M-41 0l27 113h219l305 1446h-221l24 112h564l-25 -112h-219l-305 -1446h221l-25 -113h-565zM240 1868l16 82h797l-17 -82h-796z" />
    <glyph glyph-name="imacron" unicode="&#x12b;" horiz-adv-x="425" 
d="M295 1331h121l-283 -1331h-121zM137 1528l17 82h518l-17 -82h-518z" />
    <glyph glyph-name="Iogonek" unicode="&#x12e;" horiz-adv-x="765" 
d="M-41 0l27 113h219l305 1446h-221l24 112h564l-25 -112h-219l-305 -1446h221l-25 -113q-122 -36 -187.5 -83.5t-80.5 -115.5q-14 -66 39 -96.5t186 -30.5h25l-98 -84h-23q-124 0 -188 50t-43 149q33 149 286 211h-481z" />
    <glyph glyph-name="iogonek" unicode="&#x12f;" horiz-adv-x="425" 
d="M295 1331h121l-283 -1331q-122 -36 -187.5 -83.5t-80.5 -115.5q-14 -66 39 -96.5t186 -30.5h25l-99 -84h-22q-124 0 -188.5 50t-43.5 149q33 149 287 211h-37zM311 1597q9 40 42.5 67.5t76.5 27.5q44 0 66.5 -29.5t13.5 -73.5q-8 -35 -42 -62.5t-77 -27.5t-65.5 28.5
t-14.5 69.5z" />
    <glyph glyph-name="Idotaccent" unicode="&#x130;" horiz-adv-x="765" 
d="M-41 0l27 113h219l305 1446h-221l24 112h564l-25 -112h-219l-305 -1446h221l-25 -113h-565zM547 1901q6 39 39 66.5t76 27.5q42 0 63.5 -29t13.5 -72q-8 -35 -40.5 -62.5t-73.5 -27.5q-42 0 -64 29t-14 68z" />
    <glyph glyph-name="dotlessi" unicode="&#x131;" horiz-adv-x="425" 
d="M295 1331h121l-283 -1331h-121z" />
    <glyph glyph-name="IJ" unicode="&#x132;" horiz-adv-x="1908" 
d="M-41 0l27 113h219l305 1446h-221l24 112h564l-25 -112h-219l-305 -1446h221l-25 -113h-565zM778 532l21 95h127l-23 -101q-33 -226 43 -333t256 -107q103 0 175 37.5t126.5 130.5t87.5 250l250 1167h125l-248 -1169q-22 -101 -48 -176.5t-67 -143.5t-95 -110.5
t-131.5 -67t-176.5 -24.5q-168 0 -272.5 71t-139.5 193t-10 288z" />
    <glyph glyph-name="ij" unicode="&#x133;" horiz-adv-x="784" 
d="M295 1331h121l-283 -1331h-121zM-84 -442l23 102h100q58 0 98.5 5t73.5 20.5t54.5 36.5t40.5 60t31.5 84t27.5 114l286 1351h121l-293 -1378q-25 -117 -53 -188.5t-75.5 -120t-113.5 -67.5t-167 -19h-154zM311 1597q9 40 42.5 67.5t76.5 27.5q44 0 66.5 -29.5t13.5 -73.5
q-8 -35 -42 -62.5t-77 -27.5t-65.5 28.5t-14.5 69.5zM670 1597q9 40 42 67.5t76 27.5q44 0 66.5 -29.5t13.5 -73.5q-8 -35 -41.5 -62.5t-76.5 -27.5t-65.5 28.5t-14.5 69.5z" />
    <glyph glyph-name="Jcircumflex" unicode="&#x134;" horiz-adv-x="1153" 
d="M444 -20q-168 0 -272 71t-139 193t-10 288l20 95h127l-23 -101q-33 -226 43 -333t256 -107q103 0 175 37.5t127 130.5t88 250l249 1167h125l-247 -1169q-22 -101 -48 -176.5t-67.5 -143.5t-95.5 -110.5t-131.5 -67t-176.5 -24.5zM819 1802l332 246h121l231 -246h-125
l-170 178l-237 -178h-152z" />
    <glyph glyph-name="jcircumflex" unicode="&#x135;" horiz-adv-x="428" 
d="M8 -20l287 1351h121l-293 -1378q-25 -117 -53.5 -188.5t-75.5 -120t-113.5 -67.5t-167.5 -19h-153l22 102h101q70 0 115.5 9t79.5 28t57 59t39 90t34 134zM33 1462l332 246h120l232 -246h-125l-170 178l-238 -178h-151z" />
    <glyph glyph-name="uni0136" unicode="&#x136;" horiz-adv-x="1198" 
d="M889 0l-461 780h-113l-165 -780h-125l354 1671h125l-166 -780h98l799 780h160l-863 -835l508 -836h-151zM371 -422l16 78q55 23 88 52.5t53 74.5q-36 -31 -67 -31q-32 0 -50.5 23.5t-11.5 60.5q8 38 40 65t77 27q41 0 62 -28t8 -88q-14 -70 -67.5 -131.5t-147.5 -102.5z
" />
    <glyph glyph-name="uni0137" unicode="&#x137;" horiz-adv-x="1050" 
d="M367 1671h120l-202 -952h49l692 612h160l-766 -674l477 -657h-152l-438 618h-43l-131 -618h-121zM289 -422l16 78q55 23 88 52.5t53 74.5q-36 -31 -67 -31q-32 0 -50.5 23.5t-11.5 60.5q8 38 40 65t77 27q41 0 62 -28t8 -88q-14 -70 -67.5 -131.5t-147.5 -102.5z" />
    <glyph glyph-name="Lacute" unicode="&#x139;" horiz-adv-x="1044" 
d="M25 0l354 1671h125l-332 -1565h727l-25 -106h-849zM541 1886l745 152l10 -80l-745 -150z" />
    <glyph glyph-name="lacute" unicode="&#x13a;" horiz-adv-x="425" 
d="M367 1671h118l-354 -1671h-121zM109 1886l745 152l10 -80l-745 -150z" />
    <glyph glyph-name="uni013B" unicode="&#x13b;" horiz-adv-x="1044" 
d="M25 0l354 1671h125l-332 -1565h727l-25 -106h-849zM297 -422l16 78q104 43 142 127q-36 -31 -68 -31t-50 23.5t-11 60.5q8 38 39.5 65t76.5 27q41 0 62 -28t8 -88q-14 -70 -67.5 -131.5t-147.5 -102.5z" />
    <glyph glyph-name="uni013C" unicode="&#x13c;" horiz-adv-x="425" 
d="M367 1671h118l-354 -1671h-121zM-84 -422l16 78q104 43 142 127q-36 -31 -68 -31t-50 23.5t-11 60.5q8 38 39.5 65t76.5 27q41 0 62 -28t8 -88q-14 -70 -67.5 -131.5t-147.5 -102.5z" />
    <glyph glyph-name="Lcaron" unicode="&#x13d;" horiz-adv-x="1046" 
d="M25 0l354 1671h125l-332 -1565h727l-25 -106h-849zM760 1208l184 463h109l-209 -463h-84z" />
    <glyph glyph-name="lcaron" unicode="&#x13e;" horiz-adv-x="495" 
d="M367 1671h118l-354 -1671h-121zM457 1208l184 463h109l-209 -463h-84z" />
    <glyph glyph-name="Lslash" unicode="&#x141;" horiz-adv-x="1142" 
d="M123 0l149 707l-237 -99l24 107l236 98l182 858h125l-170 -801l391 162l-24 -108l-389 -160l-140 -658h727l-24 -106h-850z" />
    <glyph glyph-name="lslash" unicode="&#x142;" horiz-adv-x="722" 
d="M528 1671h119l-162 -758l281 142l-16 -107l-287 -145l-170 -803h-121l158 735l-287 -145l18 106l291 148z" />
    <glyph glyph-name="Nacute" unicode="&#x143;" horiz-adv-x="1363" 
d="M25 0l354 1671h121l493 -1417l301 1417h119l-354 -1671h-121l-494 1417l-301 -1417h-118zM580 1886l745 152l10 -80l-745 -150z" />
    <glyph glyph-name="nacute" unicode="&#x144;" horiz-adv-x="1165" 
d="M416 1331l-35 -162q138 183 369 183q191 0 280 -122.5t45 -330.5l-192 -899h-119l188 885q36 172 -22.5 269t-210.5 97q-70 0 -130.5 -22t-102 -55.5t-75 -79t-52.5 -88t-31 -86.5l-197 -920h-119l285 1331h119zM410 1546l745 152l10 -80l-745 -150z" />
    <glyph glyph-name="uni0145" unicode="&#x145;" horiz-adv-x="1363" 
d="M25 0l354 1671h121l493 -1417l301 1417h119l-354 -1671h-121l-494 1417l-301 -1417h-118zM387 -422l16 78q104 43 142 127q-36 -31 -68 -31t-50 23.5t-11 60.5q8 38 39.5 65t76.5 27q41 0 62 -28t8 -88q-14 -70 -67.5 -131.5t-147.5 -102.5z" />
    <glyph glyph-name="uni0146" unicode="&#x146;" horiz-adv-x="1165" 
d="M416 1331l-35 -162q138 183 369 183q191 0 280 -122.5t45 -330.5l-192 -899h-119l188 885q36 172 -22.5 269t-210.5 97q-70 0 -130.5 -22t-102 -55.5t-75 -79t-52.5 -88t-31 -86.5l-197 -920h-119l285 1331h119zM293 -422l16 78q104 43 142 127q-36 -31 -68 -31t-50 23.5
t-11 60.5q8 38 39.5 65t76.5 27q41 0 62 -28t8 -88q-14 -70 -67.5 -131.5t-147.5 -102.5z" />
    <glyph glyph-name="Ncaron" unicode="&#x147;" horiz-adv-x="1363" 
d="M25 0l354 1671h121l493 -1417l301 1417h119l-354 -1671h-121l-494 1417l-301 -1417h-118zM608 2040h133l189 -182l260 182h151l-356 -246h-121z" />
    <glyph glyph-name="ncaron" unicode="&#x148;" horiz-adv-x="1165" 
d="M416 1331l-35 -162q138 183 369 183q191 0 280 -122.5t45 -330.5l-192 -899h-119l188 885q36 172 -22.5 269t-210.5 97q-70 0 -130.5 -22t-102 -55.5t-75 -79t-52.5 -88t-31 -86.5l-197 -920h-119l285 1331h119zM440 1700h133l189 -182l260 182h152l-357 -246h-121z" />
    <glyph glyph-name="Eng" unicode="&#x14a;" horiz-adv-x="1363" 
d="M25 0l354 1671h121l493 -1417l301 1417h119l-350 -1653q-19 -87 -33.5 -140.5t-36.5 -107.5t-47 -83.5t-62.5 -54t-87 -33.5t-116.5 -9h-131l20 113h123q111 0 160 65t84 236l-492 1413l-301 -1417h-118z" />
    <glyph glyph-name="eng" unicode="&#x14b;" horiz-adv-x="1165" 
d="M416 1331l-35 -162q138 183 369 183q191 0 280 -122.5t45 -330.5l-192 -899q-23 -112 -50 -183.5t-71.5 -125.5t-111 -77.5t-163.5 -23.5h-135l21 97h102q67 0 114.5 18.5t81 59.5t54.5 96.5t39 138.5l188 885q36 172 -22.5 269t-210.5 97q-70 0 -130.5 -22t-102 -55.5
t-75 -79t-52.5 -88t-31 -86.5l-197 -920h-119l285 1331h119z" />
    <glyph glyph-name="Omacron" unicode="&#x14c;" horiz-adv-x="1345" 
d="M596 -20q-193 0 -319.5 83.5t-170.5 231t-4 338.5l111 512q19 92 50 170t81 149t115.5 120.5t158 78.5t203.5 29q191 0 318 -83.5t172.5 -231.5t5.5 -339l-111 -512q-24 -117 -68.5 -211t-115.5 -171.5t-179.5 -120.5t-246.5 -43zM229 621q-55 -254 44 -393.5t323 -139.5
q391 0 481 440l111 523q56 253 -44 392.5t-323 139.5q-388 0 -481 -440zM475 1868l17 82h796l-16 -82h-797z" />
    <glyph glyph-name="omacron" unicode="&#x14d;" horiz-adv-x="1124" 
d="M479 -20q-245 0 -352.5 156.5t-54.5 412.5l71 332q21 102 56.5 182t93.5 147.5t148 104.5t206 37q124 0 215 -42t140 -118t64 -181t-13 -231l-72 -331q-21 -102 -56 -181.5t-92.5 -147t-147 -104t-206.5 -36.5zM190 539q-48 -227 30 -342t257 -115q160 0 253.5 94.5
t131.5 276.5l72 340q48 225 -29.5 340.5t-257.5 115.5q-160 0 -253.5 -94t-129.5 -276zM297 1528l16 82h797l-16 -82h-797z" />
    <glyph glyph-name="Ohungarumlaut" unicode="&#x150;" horiz-adv-x="1345" 
d="M596 -20q-193 0 -319.5 83.5t-170.5 231t-4 338.5l111 512q19 92 50 170t81 149t115.5 120.5t158 78.5t203.5 29q191 0 318 -83.5t172.5 -231.5t5.5 -339l-111 -512q-24 -117 -68.5 -211t-115.5 -171.5t-179.5 -120.5t-246.5 -43zM229 621q-55 -254 44 -393.5t323 -139.5
q391 0 481 440l111 523q56 253 -44 392.5t-323 139.5q-388 0 -481 -440zM676 1794l268 229h129l-248 -229h-149zM913 1794l269 229h129l-248 -229h-150z" />
    <glyph glyph-name="ohungarumlaut" unicode="&#x151;" horiz-adv-x="1124" 
d="M479 -20q-245 0 -352.5 156.5t-54.5 412.5l71 332q21 102 56.5 182t93.5 147.5t148 104.5t206 37q124 0 215 -42t140 -118t64 -181t-13 -231l-72 -331q-21 -102 -56 -181.5t-92.5 -147t-147 -104t-206.5 -36.5zM190 539q-48 -227 30 -342t257 -115q160 0 253.5 94.5
t131.5 276.5l72 340q48 225 -29.5 340.5t-257.5 115.5q-160 0 -253.5 -94t-129.5 -276zM498 1454l268 229h129l-248 -229h-149zM735 1454l269 229h129l-248 -229h-150z" />
    <glyph glyph-name="OE" unicode="&#x152;" horiz-adv-x="1730" 
d="M455 -20q-117 0 -200 47t-124 131t-49.5 201t24.5 257l103 490q63 293 195 439.5t348 146.5q131 0 222.5 -60.5t125.5 -165.5l43 205h704l-22 -106h-586l-143 -676h563l-23 -107h-563l-145 -676h585l-22 -106h-705l39 186q-74 -107 -164 -156.5t-206 -49.5zM225 596
q-25 -110 -22.5 -203t28 -161t85.5 -106t151 -38q163 0 274 117.5t152 312.5l131 617q15 70 15.5 134t-15.5 122t-49 100t-90 67t-133 25q-318 0 -416 -469z" />
    <glyph glyph-name="oe" unicode="&#x153;" horiz-adv-x="1802" 
d="M440 -20q-112 0 -195.5 41.5t-129.5 115t-60.5 174t13.5 219.5l71 334q22 105 60 190t96.5 153.5t144.5 106.5t193 38q134 0 231.5 -62.5t126.5 -189.5q120 252 395 252q219 0 309 -143.5t46 -381.5l-37 -172h-733l-35 -166q-40 -197 30 -302t230 -105q132 0 211 74.5
t123 244.5l4 21h123l-6 -25q-54 -203 -163 -310t-294 -107q-137 0 -233 62t-130 189q-71 -129 -165 -190t-226 -61zM188 518q-44 -210 28 -323t228 -113q292 0 375 397l70 336q46 216 -24 324t-230 108q-154 0 -244.5 -99.5t-130.5 -291.5zM991 752h608l25 120
q63 375 -242 375q-149 0 -238 -92.5t-132 -308.5z" />
    <glyph glyph-name="Racute" unicode="&#x154;" horiz-adv-x="1292" 
d="M924 0q-18 34 8 150l53 243q80 359 -285 359h-393l-160 -752h-122l354 1671h516q229 0 333.5 -126t55.5 -349l-10 -43q-33 -149 -111.5 -234.5t-218.5 -117.5q108 -42 154 -151.5t12 -262.5l-51 -240q-26 -114 -8 -147h-127zM330 858h401q89 0 155 13.5t109 36.5
t73.5 61.5t47 79.5t29.5 100l8 35q16 75 17.5 133t-11.5 100t-37.5 71t-64 46.5t-87.5 25t-112 7.5h-377zM535 1886l745 152l10 -80l-745 -150z" />
    <glyph glyph-name="racute" unicode="&#x155;" horiz-adv-x="968" 
d="M416 1331l-37 -172q131 193 346 193q170 0 235.5 -121.5t20.5 -306.5l-20 -84h-121l18 69q39 154 -2.5 247t-169.5 93q-69 0 -128 -26.5t-97 -65t-69 -91t-46.5 -96t-26.5 -89.5l-186 -881h-121l285 1331h119zM362 1546l746 152l10 -80l-745 -150z" />
    <glyph glyph-name="uni0156" unicode="&#x156;" horiz-adv-x="1292" 
d="M924 0q-18 34 8 150l53 243q80 359 -285 359h-393l-160 -752h-122l354 1671h516q229 0 333.5 -126t55.5 -349l-10 -43q-33 -149 -111.5 -234.5t-218.5 -117.5q108 -42 154 -151.5t12 -262.5l-51 -240q-26 -114 -8 -147h-127zM330 858h401q89 0 155 13.5t109 36.5
t73.5 61.5t47 79.5t29.5 100l8 35q16 75 17.5 133t-11.5 100t-37.5 71t-64 46.5t-87.5 25t-112 7.5h-377zM369 -422l16 78q55 23 88 52.5t53 74.5q-36 -31 -67 -31q-32 0 -50.5 23.5t-11.5 60.5q8 38 40 65t77 27q41 0 62 -28t8 -88q-14 -70 -67.5 -131.5t-147.5 -102.5z
" />
    <glyph glyph-name="uni0157" unicode="&#x157;" horiz-adv-x="968" 
d="M416 1331l-37 -172q131 193 346 193q170 0 235.5 -121.5t20.5 -306.5l-20 -84h-121l18 69q39 154 -2.5 247t-169.5 93q-69 0 -128 -26.5t-97 -65t-69 -91t-46.5 -96t-26.5 -89.5l-186 -881h-121l285 1331h119zM-82 -422l16 78q57 23 90.5 52.5t53.5 74.5q-36 -31 -68 -31
q-33 0 -51.5 23.5t-11.5 60.5q8 37 41 64.5t78 27.5q41 0 61.5 -28t7.5 -88q-14 -70 -68 -131.5t-149 -102.5z" />
    <glyph glyph-name="Rcaron" unicode="&#x158;" horiz-adv-x="1292" 
d="M924 0q-18 34 8 150l53 243q80 359 -285 359h-393l-160 -752h-122l354 1671h516q229 0 333.5 -126t55.5 -349l-10 -43q-33 -149 -111.5 -234.5t-218.5 -117.5q108 -42 154 -151.5t12 -262.5l-51 -240q-26 -114 -8 -147h-127zM330 858h401q89 0 155 13.5t109 36.5
t73.5 61.5t47 79.5t29.5 100l8 35q16 75 17.5 133t-11.5 100t-37.5 71t-64 46.5t-87.5 25t-112 7.5h-377zM565 2040h133l189 -182l260 182h151l-356 -246h-121z" />
    <glyph glyph-name="rcaron" unicode="&#x159;" horiz-adv-x="968" 
d="M416 1331l-37 -172q131 193 346 193q170 0 235.5 -121.5t20.5 -306.5l-20 -84h-121l18 69q39 154 -2.5 247t-169.5 93q-69 0 -128 -26.5t-97 -65t-69 -91t-46.5 -96t-26.5 -89.5l-186 -881h-121l285 1331h119zM391 1700h133l189 -182l260 182h151l-356 -246h-121z" />
    <glyph glyph-name="Sacute" unicode="&#x15a;" horiz-adv-x="1161" 
d="M520 -20q-270 0 -390.5 129t-82.5 378l21 99h127l-21 -109q-33 -205 54.5 -297t293.5 -92q178 0 262.5 74t104.5 248v2q4 37 4.5 69.5t-2.5 58.5t-11 50t-17.5 42.5t-24.5 36t-29.5 30.5t-35.5 28t-39 26t-44 25l-176 111q-55 31 -90.5 54t-76.5 61t-62.5 77.5t-33 97.5
t-3.5 128q44 385 473 385q251 0 365.5 -120.5t78.5 -354.5l-10 -58h-129l14 66q31 194 -50.5 276t-268.5 82q-167 0 -247 -65t-99 -211q-6 -54 3 -99.5t25 -76t47 -59t57.5 -45.5t67.5 -40l181 -110q72 -41 113 -72t86 -84.5t60 -130t3 -178.5q-24 -217 -142.5 -324.5
t-355.5 -107.5zM416 1884l745 152l10 -80l-745 -150z" />
    <glyph glyph-name="sacute" unicode="&#x15b;" horiz-adv-x="1042" 
d="M690 674q108 -51 158 -119.5t49 -177.5q-1 -57 -15 -111.5t-47.5 -107t-83 -91.5t-126 -63t-170.5 -24q-131 0 -224.5 34.5t-141 95t-63 135.5t-1.5 163l12 61h121l-13 -68q-23 -148 49 -233.5t261 -85.5q69 0 125 18t91.5 47t59 67.5t33.5 76.5t10 76q2 72 -32.5 125
t-112.5 92l-240 129q-109 47 -162.5 115.5t-52.5 177.5q1 48 13.5 94t43 92.5t76.5 81t119.5 56.5t165.5 22q125 0 213 -33t132.5 -91t59 -130.5t0.5 -159.5l-8 -45h-123l11 49q23 146 -46 226.5t-241 80.5q-78 0 -137 -21.5t-92.5 -57t-49.5 -76t-16 -84.5q0 -71 37 -119
t121 -88zM279 1546l745 152l10 -80l-745 -150z" />
    <glyph glyph-name="Scircumflex" unicode="&#x15c;" horiz-adv-x="1161" 
d="M520 -20q-270 0 -390.5 129t-82.5 378l21 99h127l-21 -109q-33 -205 54.5 -297t293.5 -92q178 0 262.5 74t104.5 248v2q4 37 4.5 69.5t-2.5 58.5t-11 50t-17.5 42.5t-24.5 36t-29.5 30.5t-35.5 28t-39 26t-44 25l-176 111q-55 31 -90.5 54t-76.5 61t-62.5 77.5t-33 97.5
t-3.5 128q44 385 473 385q251 0 365.5 -120.5t78.5 -354.5l-10 -58h-129l14 66q31 194 -50.5 276t-268.5 82q-167 0 -247 -65t-99 -211q-6 -54 3 -99.5t25 -76t47 -59t57.5 -45.5t67.5 -40l181 -110q72 -41 113 -72t86 -84.5t60 -130t3 -178.5q-24 -217 -142.5 -324.5
t-355.5 -107.5zM412 1800l331 246h121l232 -246h-125l-170 178l-238 -178h-151z" />
    <glyph glyph-name="scircumflex" unicode="&#x15d;" horiz-adv-x="1042" 
d="M690 674q108 -51 158 -119.5t49 -177.5q-1 -57 -15 -111.5t-47.5 -107t-83 -91.5t-126 -63t-170.5 -24q-131 0 -224.5 34.5t-141 95t-63 135.5t-1.5 163l12 61h121l-13 -68q-23 -148 49 -233.5t261 -85.5q69 0 125 18t91.5 47t59 67.5t33.5 76.5t10 76q2 72 -32.5 125
t-112.5 92l-240 129q-109 47 -162.5 115.5t-52.5 177.5q1 48 13.5 94t43 92.5t76.5 81t119.5 56.5t165.5 22q125 0 213 -33t132.5 -91t59 -130.5t0.5 -159.5l-8 -45h-123l11 49q23 146 -46 226.5t-241 80.5q-78 0 -137 -21.5t-92.5 -57t-49.5 -76t-16 -84.5q0 -71 37 -119
t121 -88zM274 1462l332 246h121l231 -246h-124l-170 178l-238 -178h-152z" />
    <glyph glyph-name="Scedilla" unicode="&#x15e;" horiz-adv-x="1161" 
d="M309 -342q162 0 222.5 17.5t60.5 68.5q1 42 -44.5 52t-168.5 -3l84 189q-240 14 -346.5 142.5t-69.5 362.5l21 99h127l-21 -109q-33 -205 54.5 -297t293.5 -92q178 0 262.5 74t104.5 248v2q4 37 4.5 69.5t-2.5 58.5t-11 50t-17.5 42.5t-24.5 36t-29.5 30.5t-35.5 28
t-39 26t-44 25l-176 111q-55 31 -90.5 54t-76.5 61t-62.5 77.5t-33 97.5t-3.5 128q44 385 473 385q251 0 365.5 -120.5t78.5 -354.5l-10 -58h-129l14 66q31 194 -50.5 276t-268.5 82q-167 0 -247 -65t-99 -211q-6 -54 3 -99.5t25 -76t47 -59t57.5 -45.5t67.5 -40l181 -110
q72 -41 113 -72t86 -84.5t60 -130t3 -178.5q-24 -210 -135.5 -317.5t-333.5 -114.5l-53 -113q54 7 99 4t74.5 -33t28.5 -84q-1 -101 -97.5 -139.5t-311.5 -38.5z" />
    <glyph glyph-name="scedilla" unicode="&#x15f;" horiz-adv-x="1042" 
d="M690 674q108 -51 158 -119.5t49 -177.5q-1 -69 -23.5 -134t-67.5 -123t-126.5 -96t-187.5 -44l-54 -113q54 7 99.5 4t75 -33t28.5 -84q-1 -101 -97.5 -139.5t-312.5 -38.5l21 82q162 0 222.5 17.5t60.5 68.5q1 42 -44.5 52t-168.5 -3l84 189q-95 5 -167.5 30t-116.5 64.5
t-71 92.5t-30.5 113t4.5 126l12 61h121l-13 -68q-23 -148 49 -233.5t261 -85.5q69 0 125 18t91.5 47t59 67.5t33.5 76.5t10 76q2 72 -32.5 125t-112.5 92l-240 129q-109 47 -162.5 115.5t-52.5 177.5q1 48 13.5 94t43 92.5t76.5 81t119.5 56.5t165.5 22q125 0 213 -33
t132.5 -91t59 -130.5t0.5 -159.5l-8 -45h-123l11 49q23 146 -46 226.5t-241 80.5q-78 0 -137 -21.5t-92.5 -57t-49.5 -76t-16 -84.5q0 -71 37 -119t121 -88z" />
    <glyph glyph-name="Scaron" unicode="&#x160;" horiz-adv-x="1161" 
d="M520 -20q-270 0 -390.5 129t-82.5 378l21 99h127l-21 -109q-33 -205 54.5 -297t293.5 -92q178 0 262.5 74t104.5 248v2q4 37 4.5 69.5t-2.5 58.5t-11 50t-17.5 42.5t-24.5 36t-29.5 30.5t-35.5 28t-39 26t-44 25l-176 111q-55 31 -90.5 54t-76.5 61t-62.5 77.5t-33 97.5
t-3.5 128q44 385 473 385q251 0 365.5 -120.5t78.5 -354.5l-10 -58h-129l14 66q31 194 -50.5 276t-268.5 82q-167 0 -247 -65t-99 -211q-6 -54 3 -99.5t25 -76t47 -59t57.5 -45.5t67.5 -40l181 -110q72 -41 113 -72t86 -84.5t60 -130t3 -178.5q-24 -217 -142.5 -324.5
t-355.5 -107.5zM446 2038h134l188 -183l260 183h152l-357 -246h-121z" />
    <glyph glyph-name="scaron" unicode="&#x161;" horiz-adv-x="1042" 
d="M690 674q108 -51 158 -119.5t49 -177.5q-1 -57 -15 -111.5t-47.5 -107t-83 -91.5t-126 -63t-170.5 -24q-131 0 -224.5 34.5t-141 95t-63 135.5t-1.5 163l12 61h121l-13 -68q-23 -148 49 -233.5t261 -85.5q69 0 125 18t91.5 47t59 67.5t33.5 76.5t10 76q2 72 -32.5 125
t-112.5 92l-240 129q-109 47 -162.5 115.5t-52.5 177.5q1 48 13.5 94t43 92.5t76.5 81t119.5 56.5t165.5 22q125 0 213 -33t132.5 -91t59 -130.5t0.5 -159.5l-8 -45h-123l11 49q23 146 -46 226.5t-241 80.5q-78 0 -137 -21.5t-92.5 -57t-49.5 -76t-16 -84.5q0 -71 37 -119
t121 -88zM309 1700h133l189 -182l260 182h151l-356 -246h-121z" />
    <glyph glyph-name="uni0162" unicode="&#x162;" horiz-adv-x="1069" 
d="M332 0l330 1565h-437l23 106h999l-22 -106h-439l-329 -1565h-21l-63 -133q54 7 99 4t74.5 -33t28.5 -84q-1 -101 -97.5 -139.5t-311.5 -38.5l20 82q162 0 222.5 17.5t60.5 68.5q1 42 -44.5 52t-168.5 -3l92 207h-16z" />
    <glyph glyph-name="uni0163" unicode="&#x163;" horiz-adv-x="749" 
d="M836 1331l-23 -102h-319l-189 -887q-13 -64 -18 -98t-3.5 -66.5t16.5 -46t42.5 -21.5t73.5 -8h157l-22 -102h-129l-57 -121q54 7 99 4.5t74.5 -32.5t28.5 -84q-1 -101 -97.5 -140t-311.5 -39l20 82q162 0 222.5 17.5t60.5 68.5q1 42 -44.5 52t-168.5 -3l88 197
q-91 8 -132.5 48.5t-41.5 110t20 167.5l191 901h-238l23 102h32q123 14 207 108t111 232h119q-29 -133 -99 -224.5t-141 -115.5h449z" />
    <glyph glyph-name="Tcaron" unicode="&#x164;" horiz-adv-x="1069" 
d="M332 0l330 1565h-437l23 106h999l-22 -106h-439l-329 -1565h-125zM459 2040h133l188 -182l260 182h152l-356 -246h-121z" />
    <glyph glyph-name="tcaron" unicode="&#x165;" horiz-adv-x="749" 
d="M836 1331l-23 -102h-319l-189 -887q-13 -64 -18 -98t-3.5 -66.5t16.5 -46t42.5 -21.5t73.5 -8h157l-22 -102h-168q-113 0 -165.5 38t-55 111t19.5 179l191 901h-238l23 102h32q123 14 207 108t111 232h119q-29 -133 -99 -224.5t-141 -115.5h449zM666 1468l168 379h104
l-190 -379h-82z" />
    <glyph glyph-name="Tbar" unicode="&#x166;" horiz-adv-x="1110" 
d="M352 0l162 770h-334l19 86h333l150 709h-436l22 106h1000l-23 -106h-438l-150 -709h334l-18 -86h-334l-162 -770h-125z" />
    <glyph glyph-name="tbar" unicode="&#x167;" horiz-adv-x="770" 
d="M854 1331l-23 -102h-319l-96 -457h307l-18 -84h-308l-73 -346q-11 -54 -16 -84t-6.5 -61.5t5.5 -46t22.5 -27.5t40.5 -17t64 -4h158l-23 -102h-168q-113 0 -165.5 38t-54.5 111t20 179l75 360h-227l17 84h229l96 457h-237l22 102h33q123 14 206.5 108t110.5 232h119
q-29 -133 -98.5 -224.5t-140.5 -115.5h448z" />
    <glyph glyph-name="Utilde" unicode="&#x168;" horiz-adv-x="1327" 
d="M575 -20q-283 0 -394 144.5t-58 393.5l246 1153h127l-248 -1163q-22 -95 -16 -166.5t29 -120t70 -78.5t106.5 -43.5t137.5 -13.5q71 0 124 9.5t103.5 36t87.5 72t68 118.5t52 174l252 1175h124l-249 -1175q-38 -181 -102 -291t-176.5 -167.5t-283.5 -57.5zM543 1810
q16 111 79.5 164.5t155.5 53.5q51 0 89 -15.5t60.5 -38t42.5 -45t47.5 -38t63.5 -15.5q55 0 87.5 34t41.5 97h103q-16 -112 -80 -164.5t-158 -52.5q-53 0 -92 15.5t-61.5 38t-42.5 45t-46.5 38t-60.5 15.5q-54 0 -86 -35.5t-41 -96.5h-102z" />
    <glyph glyph-name="utilde" unicode="&#x169;" horiz-adv-x="1165" 
d="M752 0l34 166q-138 -186 -370 -186q-192 0 -281 122t-45 330l193 899h118l-188 -885q-36 -172 22.5 -269t210.5 -97q76 0 141 25.5t107.5 64.5t75.5 90t50 96.5t26 89.5l-2 -16l190 901h119l-283 -1331h-118zM377 1470q16 111 79.5 164.5t155.5 53.5q51 0 89 -15.5
t60.5 -38t42.5 -45t47.5 -38t63.5 -15.5q55 0 87.5 34t41.5 97h103q-16 -112 -80 -164.5t-158 -52.5q-53 0 -92 15.5t-61.5 38t-42.5 45t-46.5 38t-60.5 15.5q-54 0 -86 -35.5t-41 -96.5h-102z" />
    <glyph glyph-name="Umacron" unicode="&#x16a;" horiz-adv-x="1327" 
d="M575 -20q-283 0 -394 144.5t-58 393.5l246 1153h127l-248 -1163q-22 -95 -16 -166.5t29 -120t70 -78.5t106.5 -43.5t137.5 -13.5q71 0 124 9.5t103.5 36t87.5 72t68 118.5t52 174l252 1175h124l-249 -1175q-38 -181 -102 -291t-176.5 -167.5t-283.5 -57.5zM522 1868
l17 82h796l-16 -82h-797z" />
    <glyph glyph-name="umacron" unicode="&#x16b;" horiz-adv-x="1165" 
d="M752 0l34 166q-138 -186 -370 -186q-192 0 -281 122t-45 330l193 899h118l-188 -885q-36 -172 22.5 -269t210.5 -97q76 0 141 25.5t107.5 64.5t75.5 90t50 96.5t26 89.5l-2 -16l190 901h119l-283 -1331h-118zM354 1528l17 82h796l-16 -82h-797z" />
    <glyph glyph-name="Ubreve" unicode="&#x16c;" horiz-adv-x="1327" 
d="M575 -20q-283 0 -394 144.5t-58 393.5l246 1153h127l-248 -1163q-22 -95 -16 -166.5t29 -120t70 -78.5t106.5 -43.5t137.5 -13.5q71 0 124 9.5t103.5 36t87.5 72t68 118.5t52 174l252 1175h124l-249 -1175q-38 -181 -102 -291t-176.5 -167.5t-283.5 -57.5zM580 2028h102
q-3 -44 15.5 -74t55.5 -45.5t80 -22t99 -6.5q123 0 198.5 33.5t94.5 114.5h102q-35 -132 -132.5 -183t-266.5 -51q-170 0 -262.5 54.5t-85.5 179.5z" />
    <glyph glyph-name="ubreve" unicode="&#x16d;" horiz-adv-x="1165" 
d="M752 0l34 166q-138 -186 -370 -186q-192 0 -281 122t-45 330l193 899h118l-188 -885q-36 -172 22.5 -269t210.5 -97q76 0 141 25.5t107.5 64.5t75.5 90t50 96.5t26 89.5l-2 -16l190 901h119l-283 -1331h-118zM414 1688h102q-3 -44 15.5 -74t55.5 -45.5t80 -22t99 -6.5
q123 0 198.5 33.5t94.5 114.5h102q-35 -132 -132.5 -183t-266.5 -51q-170 0 -262.5 54.5t-85.5 179.5z" />
    <glyph glyph-name="Uring" unicode="&#x16e;" horiz-adv-x="1327" 
d="M575 -20q-283 0 -394 144.5t-58 393.5l246 1153h127l-248 -1163q-22 -95 -16 -166.5t29 -120t70 -78.5t106.5 -43.5t137.5 -13.5q71 0 124 9.5t103.5 36t87.5 72t68 118.5t52 174l252 1175h124l-249 -1175q-38 -181 -102 -291t-176.5 -167.5t-283.5 -57.5zM768 1929
q0 71 49.5 118.5t116.5 47.5t116.5 -47.5t49.5 -118.5t-49.5 -118.5t-116.5 -47.5t-116.5 47.5t-49.5 118.5zM844 1929q0 -40 24.5 -65t65.5 -25t65.5 25t24.5 65t-24.5 65t-65.5 25t-65.5 -25t-24.5 -65z" />
    <glyph glyph-name="uring" unicode="&#x16f;" horiz-adv-x="1165" 
d="M752 0l34 166q-138 -186 -370 -186q-192 0 -281 122t-45 330l193 899h118l-188 -885q-36 -172 22.5 -269t210.5 -97q76 0 141 25.5t107.5 64.5t75.5 90t50 96.5t26 89.5l-2 -16l190 901h119l-283 -1331h-118zM600 1589q0 71 49.5 118.5t116.5 47.5t116.5 -47.5
t49.5 -118.5t-49.5 -118.5t-116.5 -47.5t-116.5 47.5t-49.5 118.5zM676 1589q0 -40 24.5 -65t65.5 -25t65.5 25t24.5 65t-24.5 65t-65.5 25t-65.5 -25t-24.5 -65z" />
    <glyph glyph-name="Uhungarumlaut" unicode="&#x170;" horiz-adv-x="1327" 
d="M575 -20q-283 0 -394 144.5t-58 393.5l246 1153h127l-248 -1163q-22 -95 -16 -166.5t29 -120t70 -78.5t106.5 -43.5t137.5 -13.5q71 0 124 9.5t103.5 36t87.5 72t68 118.5t52 174l252 1175h124l-249 -1175q-38 -181 -102 -291t-176.5 -167.5t-283.5 -57.5zM721 1794
l268 229h129l-248 -229h-149zM958 1794l269 229h129l-248 -229h-150z" />
    <glyph glyph-name="uhungarumlaut" unicode="&#x171;" horiz-adv-x="1165" 
d="M752 0l34 166q-138 -186 -370 -186q-192 0 -281 122t-45 330l193 899h118l-188 -885q-36 -172 22.5 -269t210.5 -97q76 0 141 25.5t107.5 64.5t75.5 90t50 96.5t26 89.5l-2 -16l190 901h119l-283 -1331h-118zM555 1454l268 229h129l-247 -229h-150zM793 1454l268 229h129
l-248 -229h-149z" />
    <glyph glyph-name="Uogonek" unicode="&#x172;" horiz-adv-x="1327" 
d="M575 -20q-283 0 -394 144.5t-58 393.5l246 1153h127l-248 -1163q-22 -95 -16 -166.5t29 -120t70 -78.5t106.5 -43.5t137.5 -13.5q71 0 124 9.5t103.5 36t87.5 72t68 118.5t52 174l252 1175h124l-249 -1175q-46 -222 -137 -343t-255 -157q-117 -36 -179 -82.5t-77 -112.5
q-14 -66 39.5 -96.5t186.5 -30.5h24l-98 -84h-23q-124 0 -188 50t-43 149q29 128 217 191h-29z" />
    <glyph glyph-name="uogonek" unicode="&#x173;" horiz-adv-x="1165" 
d="M752 0l34 166q-138 -186 -370 -186q-192 0 -281 122t-45 330l193 899h118l-188 -885q-36 -172 22.5 -269t210.5 -97q76 0 141 25.5t107.5 64.5t75.5 90t50 96.5t26 89.5l-2 -16l190 901h119l-283 -1331h2q-122 -36 -187.5 -83.5t-80.5 -115.5q-14 -66 39 -96.5t186 -30.5
h25l-98 -84h-23q-124 0 -188 50t-43 149q33 149 286 211h-36z" />
    <glyph glyph-name="Wcircumflex" unicode="&#x174;" horiz-adv-x="1904" 
d="M295 0l-37 1671h125l25 -1513l669 1513h166l27 -1515l667 1515h129l-747 -1671h-158l-33 1499v12l-6 -12l-669 -1499h-158zM840 1802l331 246h121l232 -246h-125l-170 178l-238 -178h-151z" />
    <glyph glyph-name="wcircumflex" unicode="&#x175;" horiz-adv-x="1652" 
d="M645 1462l332 246h121l231 -246h-125l-170 178l-237 -178h-152zM184 1331h121l37 -1186l539 1186h170l39 -1181l538 1181h123l-616 -1331h-148l-43 1217l-563 -1217h-145z" />
    <glyph glyph-name="Ycircumflex" unicode="&#x176;" horiz-adv-x="1175" 
d="M381 0l127 586l-264 1085h129l223 -940l618 940h144l-725 -1085l-127 -586h-125zM477 1802l332 246h121l231 -246h-125l-170 178l-237 -178h-152z" />
    <glyph glyph-name="ycircumflex" unicode="&#x177;" horiz-adv-x="1161" 
d="M752 10l32 152q-141 -182 -368 -182q-192 0 -281 122t-45 330l193 899h118l-188 -885q-36 -172 22.5 -269t210.5 -97q85 0 154.5 30.5t115.5 81t74.5 102t45.5 107.5l196 930h121l-285 -1339q-25 -117 -56.5 -194t-83.5 -133.5t-127 -81.5t-183 -25h-471l22 102h432
q84 0 141.5 18t98 61.5t65.5 107t46 163.5zM403 1462l332 246h121l231 -246h-124l-170 178l-238 -178h-152z" />
    <glyph glyph-name="Ydieresis" unicode="&#x178;" horiz-adv-x="1175" 
d="M381 0l127 586l-264 1085h129l223 -940l618 940h144l-725 -1085l-127 -586h-125zM543 1909q9 41 39.5 65.5t68.5 24.5q37 0 59 -25t13 -67q-7 -37 -39.5 -61.5t-69.5 -24.5q-39 0 -59.5 24.5t-11.5 63.5zM981 1907q9 43 40 67.5t69 24.5t59 -24.5t12 -67.5
q-7 -37 -39 -61.5t-69 -24.5q-39 0 -59 24t-13 62z" />
    <glyph glyph-name="Zacute" unicode="&#x179;" horiz-adv-x="1075" 
d="M-78 0l23 106l1118 1459h-807l23 106h946l-21 -106l-1120 -1459h809l-23 -106h-948zM434 1886l746 152l10 -80l-746 -150z" />
    <glyph glyph-name="zacute" unicode="&#x17a;" horiz-adv-x="954" 
d="M205 1331h827l-22 -102l-934 -1127h698l-22 -102h-834l23 102l933 1127h-690zM301 1546l746 152l10 -80l-746 -150z" />
    <glyph glyph-name="Zdotaccent" unicode="&#x17b;" horiz-adv-x="1075" 
d="M-78 0l23 106l1118 1459h-807l23 106h946l-21 -106l-1120 -1459h809l-23 -106h-948zM707 1901q6 39 38.5 66.5t75.5 27.5q42 0 64 -29t14 -72q-8 -35 -41 -62.5t-74 -27.5q-42 0 -63.5 29t-13.5 68z" />
    <glyph glyph-name="zdotaccent" unicode="&#x17c;" horiz-adv-x="954" 
d="M205 1331h827l-22 -102l-934 -1127h698l-22 -102h-834l23 102l933 1127h-690zM578 1597q9 40 42 67.5t76 27.5q44 0 66.5 -29.5t13.5 -73.5q-8 -35 -42 -62.5t-77 -27.5t-65 28.5t-14 69.5z" />
    <glyph glyph-name="Zcaron" unicode="&#x17d;" horiz-adv-x="1075" 
d="M-78 0l23 106l1118 1459h-807l23 106h946l-21 -106l-1120 -1459h809l-23 -106h-948zM465 2040h133l188 -182l261 182h151l-356 -246h-121z" />
    <glyph glyph-name="zcaron" unicode="&#x17e;" horiz-adv-x="954" 
d="M205 1331h827l-22 -102l-934 -1127h698l-22 -102h-834l23 102l933 1127h-690zM332 1700h133l188 -182l260 182h152l-356 -246h-121z" />
    <glyph glyph-name="uni0218" unicode="&#x218;" horiz-adv-x="1161" 
d="M520 -20q-270 0 -390.5 129t-82.5 378l21 99h127l-21 -109q-33 -205 54.5 -297t293.5 -92q178 0 262.5 74t104.5 248v2q4 37 4.5 69.5t-2.5 58.5t-11 50t-17.5 42.5t-24.5 36t-29.5 30.5t-35.5 28t-39 26t-44 25l-176 111q-55 31 -90.5 54t-76.5 61t-62.5 77.5t-33 97.5
t-3.5 128q44 385 473 385q251 0 365.5 -120.5t78.5 -354.5l-10 -58h-129l14 66q31 194 -50.5 276t-268.5 82q-167 0 -247 -65t-99 -211q-6 -54 3 -99.5t25 -76t47 -59t57.5 -45.5t67.5 -40l181 -110q72 -41 113 -72t86 -84.5t60 -130t3 -178.5q-24 -217 -142.5 -324.5
t-355.5 -107.5zM358 -422l17 78q55 23 88 52.5t53 74.5q-36 -31 -67 -31q-32 0 -50.5 23.5t-11.5 60.5q8 38 40 65t77 27q41 0 61.5 -28t7.5 -88q-14 -70 -67.5 -131.5t-147.5 -102.5z" />
    <glyph glyph-name="uni0219" unicode="&#x219;" horiz-adv-x="1042" 
d="M690 674q108 -51 158 -119.5t49 -177.5q-1 -57 -15 -111.5t-47.5 -107t-83 -91.5t-126 -63t-170.5 -24q-131 0 -224.5 34.5t-141 95t-63 135.5t-1.5 163l12 61h121l-13 -68q-23 -148 49 -233.5t261 -85.5q69 0 125 18t91.5 47t59 67.5t33.5 76.5t10 76q2 72 -32.5 125
t-112.5 92l-240 129q-109 47 -162.5 115.5t-52.5 177.5q1 48 13.5 94t43 92.5t76.5 81t119.5 56.5t165.5 22q125 0 213 -33t132.5 -91t59 -130.5t0.5 -159.5l-8 -45h-123l11 49q23 146 -46 226.5t-241 80.5q-78 0 -137 -21.5t-92.5 -57t-49.5 -76t-16 -84.5q0 -71 37 -119
t121 -88zM301 -422l16 78q104 43 142 127q-36 -31 -68 -31t-50 23.5t-11 60.5q8 38 39.5 65t76.5 27q41 0 62 -28t8 -88q-14 -70 -67.5 -131.5t-147.5 -102.5z" />
    <glyph glyph-name="uni021A" unicode="&#x21a;" horiz-adv-x="1069" 
d="M332 0l330 1565h-437l23 106h999l-22 -106h-439l-329 -1565h-125zM238 -422l16 78q55 23 88 52.5t53 74.5q-36 -31 -67 -31q-32 0 -50.5 23.5t-11.5 60.5q8 38 40 65t77 27q41 0 62 -28t8 -88q-14 -70 -67.5 -131.5t-147.5 -102.5z" />
    <glyph glyph-name="uni021B" unicode="&#x21b;" horiz-adv-x="749" 
d="M836 1331l-23 -102h-319l-189 -887q-13 -64 -18 -98t-3.5 -66.5t16.5 -46t42.5 -21.5t73.5 -8h157l-22 -102h-168q-113 0 -165.5 38t-55 111t19.5 179l191 901h-238l23 102h32q123 14 207 108t111 232h119q-29 -133 -99 -224.5t-141 -115.5h449zM229 -410l17 78
q55 23 88 52.5t53 74.5q-36 -31 -68 -31t-50 23.5t-11 60.5q8 38 40 65.5t77 27.5q41 0 61.5 -28.5t7.5 -88.5q-14 -70 -67.5 -131.5t-147.5 -102.5z" />
    <glyph glyph-name="uni0237" unicode="&#x237;" horiz-adv-x="428" 
d="M8 -20l287 1351h121l-293 -1378q-25 -117 -53.5 -188.5t-75.5 -120t-113.5 -67.5t-167.5 -19h-153l22 102h101q70 0 115.5 9t79.5 28t57 59t39 90t34 134z" />
    <glyph glyph-name="circumflex" unicode="&#x2c6;" horiz-adv-x="1093" 
d="M375 1462l332 246h120l232 -246h-125l-170 178l-238 -178h-151z" />
    <glyph glyph-name="caron" unicode="&#x2c7;" horiz-adv-x="1144" 
d="M682 1454l-256 246h133l189 -182l260 182h151l-356 -246h-121z" />
    <glyph glyph-name="breve" unicode="&#x2d8;" horiz-adv-x="1155" 
d="M770 1454q-170 0 -262.5 54.5t-85.5 179.5h102q-3 -44 15.5 -74t55.5 -45.5t80 -22t99 -6.5q123 0 198.5 33.5t94.5 114.5h102q-35 -132 -132.5 -183t-266.5 -51z" />
    <glyph glyph-name="dotaccent" unicode="&#x2d9;" horiz-adv-x="610" 
d="M483 1499q-43 0 -65.5 28.5t-14.5 69.5q9 40 42.5 67.5t76.5 27.5q44 0 66.5 -29.5t13.5 -73.5q-8 -35 -42 -62.5t-77 -27.5z" />
    <glyph glyph-name="ring" unicode="&#x2da;" horiz-adv-x="749" 
d="M571 1423q-67 0 -116 47.5t-49 118.5t49 118.5t116 47.5t116.5 -47.5t49.5 -118.5t-49.5 -118.5t-116.5 -47.5zM481 1589q0 -40 24.5 -65t65.5 -25t66 25t25 65t-25 65t-66 25t-65.5 -25t-24.5 -65z" />
    <glyph glyph-name="ogonek" unicode="&#x2db;" horiz-adv-x="778" 
d="M254 -410q-124 0 -188 50t-43 149q33 149 286 211h84q-122 -36 -187.5 -83.5t-80.5 -115.5q-14 -66 39 -96.5t186 -30.5h25l-99 -84h-22z" />
    <glyph glyph-name="tilde" unicode="&#x2dc;" horiz-adv-x="1140" 
d="M377 1470q16 111 79.5 164.5t155.5 53.5q51 0 89 -15.5t60.5 -38t42.5 -45t47.5 -38t63.5 -15.5q55 0 87.5 34t41.5 97h103q-16 -112 -80 -164.5t-158 -52.5q-53 0 -92 15.5t-61.5 38t-42.5 45t-46.5 38t-60.5 15.5q-54 0 -86 -35.5t-41 -96.5h-102z" />
    <glyph glyph-name="hungarumlaut" unicode="&#x2dd;" horiz-adv-x="995" 
d="M760 1454h-150l269 229h129zM373 1454l268 229h129l-248 -229h-149z" />
    <glyph glyph-name="uni1E20" unicode="&#x1e20;" 
d="M575 -20q-115 0 -206.5 34t-150 95t-93.5 146t-36.5 188t20.5 221l108 512q25 112 70 202.5t116.5 162.5t177.5 111.5t240 39.5q255 0 389 -149.5t97 -395.5l-25 -111h-127l25 117q17 109 -2 192t-69.5 134.5t-123.5 77.5t-166 26q-385 0 -473 -412l-110 -520
q-56 -267 36 -414t316 -147q191 0 302.5 108t168.5 330l41 187h-486l23 102h612l-174 -817h-94l39 211q-162 -231 -445 -231zM473 1868l16 82h797l-16 -82h-797z" />
    <glyph glyph-name="uni1E21" unicode="&#x1e21;" horiz-adv-x="1163" 
d="M754 8l30 150q-54 -79 -140.5 -128.5t-199.5 -49.5q-103 0 -185 39.5t-132 111.5t-67 172.5t10 222.5l80 369q46 224 162.5 340.5t301.5 116.5q147 0 244 -68t129 -180l47 227h121l-287 -1345q-24 -116 -57.5 -194t-84.5 -132t-123 -78t-173 -24h-512l23 102h458
q164 0 238.5 76t116.5 272zM190 526q-42 -199 31.5 -321.5t241.5 -122.5q146 0 243 99.5t140 260.5l88 416q11 82 -0.5 151.5t-46.5 123.5t-99.5 85t-154.5 31q-145 0 -237 -94t-128 -268zM346 1528l16 82h797l-16 -82h-797z" />
    <glyph glyph-name="Wgrave" unicode="&#x1e80;" horiz-adv-x="1904" 
d="M295 0l-37 1671h125l25 -1513l669 1513h166l27 -1515l667 1515h129l-747 -1671h-158l-33 1499v12l-6 -12l-669 -1499h-158zM823 1944l37 79l746 -151l-39 -78z" />
    <glyph glyph-name="wgrave" unicode="&#x1e81;" horiz-adv-x="1652" 
d="M1411 1532l-39 -78l-743 150l37 79zM184 1331h121l37 -1186l539 1186h170l39 -1181l538 1181h123l-616 -1331h-148l-43 1217l-563 -1217h-145z" />
    <glyph glyph-name="Wacute" unicode="&#x1e82;" horiz-adv-x="1904" 
d="M295 0l-37 1671h125l25 -1513l669 1513h166l27 -1515l667 1515h129l-747 -1671h-158l-33 1499v12l-6 -12l-669 -1499h-158zM844 1886l745 152l10 -80l-745 -150z" />
    <glyph glyph-name="wacute" unicode="&#x1e83;" horiz-adv-x="1652" 
d="M659 1468l-10 78l746 152l10 -80zM184 1331h121l37 -1186l539 1186h170l39 -1181l538 1181h123l-616 -1331h-148l-43 1217l-563 -1217h-145z" />
    <glyph glyph-name="Wdieresis" unicode="&#x1e84;" horiz-adv-x="1904" 
d="M295 0l-37 1671h125l25 -1513l669 1513h166l27 -1515l667 1515h129l-747 -1671h-158l-33 1499v12l-6 -12l-669 -1499h-158zM903 1909q9 41 40 65.5t69 24.5q37 0 58.5 -25t12.5 -67q-7 -37 -39 -61.5t-69 -24.5q-39 0 -60 24.5t-12 63.5zM1341 1907q9 43 40 67.5t69 24.5
t59.5 -24.5t12.5 -67.5q-7 -37 -39.5 -61.5t-69.5 -24.5q-39 0 -59 24t-13 62z" />
    <glyph glyph-name="wdieresis" unicode="&#x1e85;" horiz-adv-x="1652" 
d="M1219 1481q-39 0 -59 24t-13 62q9 43 39.5 67.5t68.5 24.5t59.5 -24.5t12.5 -67.5q-7 -37 -39 -61.5t-69 -24.5zM184 1331h121l37 -1186l539 1186h170l39 -1181l538 1181h123l-616 -1331h-148l-43 1217l-563 -1217h-145zM709 1569q9 41 39.5 65.5t68.5 24.5q37 0 59 -25
t13 -67q-7 -37 -39.5 -61.5t-69.5 -24.5q-39 0 -59.5 24.5t-11.5 63.5z" />
    <glyph glyph-name="uni1E9E" unicode="&#x1e9e;" horiz-adv-x="1206" 
d="M285 1272q45 209 160 304t337 95h494q-43 -199 -87 -332t-94 -208t-96.5 -110t-111.5 -54q259 -93 188 -430l-20 -95q-48 -239 -176 -340.5t-349 -101.5h-278l22 102h238q95 0 161 15.5t120 55t89 109t56 175.5l18 100q13 57 15.5 104.5t-12 96t-48.5 82t-100 54.5
t-160 21h-196l22 103h189q83 0 141 14t107.5 48.5t87.5 98.5t71 157.5t66 232.5h-357q-84 0 -141 -12t-106 -45t-80.5 -93.5t-51.5 -154.5l-268 -1264h-121z" />
    <glyph glyph-name="uni1EBC" unicode="&#x1ebc;" horiz-adv-x="1118" 
d="M25 0l354 1671h858l-23 -106h-733l-143 -676h704l-20 -107h-709l-143 -676h735l-24 -106h-856zM463 1810q16 111 79.5 164.5t155.5 53.5q51 0 89 -15.5t60.5 -38t42.5 -45t47.5 -38t63.5 -15.5q55 0 87.5 34t41.5 97h103q-16 -112 -80 -164.5t-158 -52.5q-53 0 -92 15.5
t-61.5 38t-42.5 45t-46.5 38t-60.5 15.5q-54 0 -86 -35.5t-41 -96.5h-102z" />
    <glyph glyph-name="uni1EBD" unicode="&#x1ebd;" horiz-adv-x="1095" 
d="M311 1470q16 111 80 164.5t156 53.5q51 0 89 -15.5t60.5 -38t42.5 -45t47.5 -38t63.5 -15.5q55 0 87.5 34t41.5 97h102q-16 -112 -79.5 -164.5t-157.5 -52.5q-53 0 -92 15.5t-61.5 38t-42.5 45t-46.5 38t-60.5 15.5q-54 0 -86 -35.5t-41 -96.5h-103zM72 549l71 332
q98 471 508 471q98 0 173 -26t121.5 -73t73 -113t27.5 -146.5t-14 -172.5l-35 -166h-782l-25 -116q-48 -225 28.5 -341t254.5 -116q137 0 222 71t128 232l11 47h122l-10 -43q-27 -95 -65 -167.5t-94.5 -128t-136 -84.5t-179.5 -29q-122 0 -212 42t-138 118t-63 180t14 229z
M238 752h655l25 116q59 381 -269 381q-311 0 -385 -370z" />
    <glyph glyph-name="Ygrave" unicode="&#x1ef2;" horiz-adv-x="1175" 
d="M381 0l127 586l-264 1085h129l223 -940l618 940h144l-725 -1085l-127 -586h-125zM461 1944l37 79l745 -151l-39 -78z" />
    <glyph glyph-name="ygrave" unicode="&#x1ef3;" horiz-adv-x="1161" 
d="M752 10l32 152q-141 -182 -368 -182q-192 0 -281 122t-45 330l193 899h118l-188 -885q-36 -172 22.5 -269t210.5 -97q85 0 154.5 30.5t115.5 81t74.5 102t45.5 107.5l196 930h121l-285 -1339q-25 -117 -56.5 -194t-83.5 -133.5t-127 -81.5t-183 -25h-471l22 102h432
q84 0 141.5 18t98 61.5t65.5 107t46 163.5zM385 1604l37 79l745 -151l-39 -78z" />
    <glyph glyph-name="uni1EF8" unicode="&#x1ef8;" horiz-adv-x="1175" 
d="M381 0l127 586l-264 1085h129l223 -940l618 940h144l-725 -1085l-127 -586h-125zM467 1810q16 111 79.5 164.5t155.5 53.5q51 0 89 -15.5t60.5 -38t43 -45t48 -38t63.5 -15.5q55 0 87.5 34t41.5 97h102q-16 -112 -80 -164.5t-158 -52.5q-53 0 -92 15.5t-61.5 38t-42.5 45
t-46.5 38t-60.5 15.5q-54 0 -86 -35.5t-41 -96.5h-102z" />
    <glyph glyph-name="uni1EF9" unicode="&#x1ef9;" horiz-adv-x="1161" 
d="M752 10l32 152q-141 -182 -368 -182q-192 0 -281 122t-45 330l193 899h118l-188 -885q-36 -172 22.5 -269t210.5 -97q85 0 154.5 30.5t115.5 81t74.5 102t45.5 107.5l196 930h121l-285 -1339q-25 -117 -56.5 -194t-83.5 -133.5t-127 -81.5t-183 -25h-471l22 102h432
q84 0 141.5 18t98 61.5t65.5 107t46 163.5zM391 1470q16 111 80 164.5t156 53.5q51 0 89 -15.5t60.5 -38t42.5 -45t47.5 -38t63.5 -15.5q55 0 87.5 34t41.5 97h102q-16 -112 -79.5 -164.5t-157.5 -52.5q-53 0 -92 15.5t-61.5 38t-42.5 45t-46.5 38t-60.5 15.5
q-54 0 -86 -35.5t-41 -96.5h-103z" />
    <glyph glyph-name="uni2000" unicode="&#x2000;" horiz-adv-x="1024" 
 />
    <glyph glyph-name="uni2001" unicode="&#x2001;" horiz-adv-x="2048" 
 />
    <glyph glyph-name="uni2002" unicode="&#x2002;" horiz-adv-x="1024" 
 />
    <glyph glyph-name="uni2003" unicode="&#x2003;" horiz-adv-x="2048" 
 />
    <glyph glyph-name="uni2004" unicode="&#x2004;" horiz-adv-x="681" 
 />
    <glyph glyph-name="uni2005" unicode="&#x2005;" horiz-adv-x="512" 
 />
    <glyph glyph-name="uni2006" unicode="&#x2006;" horiz-adv-x="342" 
 />
    <glyph glyph-name="uni2007" unicode="&#x2007;" 
 />
    <glyph glyph-name="uni2008" unicode="&#x2008;" horiz-adv-x="405" 
 />
    <glyph glyph-name="uni2009" unicode="&#x2009;" horiz-adv-x="256" 
 />
    <glyph glyph-name="uni200A" unicode="&#x200a;" horiz-adv-x="86" 
 />
    <glyph glyph-name="uni200B" unicode="&#x200b;" horiz-adv-x="0" 
 />
    <glyph glyph-name="endash" unicode="&#x2013;" horiz-adv-x="1593" 
d="M96 721h1426l-17 -86h-1425z" />
    <glyph glyph-name="emdash" unicode="&#x2014;" horiz-adv-x="2625" 
d="M98 721h2458l-21 -88h-2457z" />
    <glyph glyph-name="quoteleft" unicode="&#x2018;" horiz-adv-x="354" 
d="M299 1180h-106l217 512h86z" />
    <glyph glyph-name="quoteright" unicode="&#x2019;" horiz-adv-x="352" 
d="M393 1692h107l-217 -512h-86z" />
    <glyph glyph-name="quotesinglbase" unicode="&#x201a;" horiz-adv-x="346" 
d="M59 268h107l-217 -512h-86z" />
    <glyph glyph-name="quotedblleft" unicode="&#x201c;" horiz-adv-x="552" 
d="M498 1180h-107l217 512h86zM193 1180l217 512h86l-197 -512h-106z" />
    <glyph glyph-name="quotedblright" unicode="&#x201d;" horiz-adv-x="552" 
d="M393 1692h107l-217 -512h-86zM395 1180l197 512h106l-217 -512h-86z" />
    <glyph glyph-name="quotedblbase" unicode="&#x201e;" horiz-adv-x="546" 
d="M59 268h107l-217 -512h-86zM61 -244l197 512h107l-218 -512h-86z" />
    <glyph glyph-name="dagger" unicode="&#x2020;" horiz-adv-x="516" 
d="M197 647l131 617h-117l20 94h117l66 313h102l-65 -313h116l-20 -94h-117l-131 -617h-102z" />
    <glyph glyph-name="daggerdbl" unicode="&#x2021;" horiz-adv-x="567" 
d="M227 647l64 293h-117l19 94h116l49 230h-116l20 94h117l67 313h103l-68 -313h117l-20 -94h-117l-49 -230h116l-18 -94h-117l-63 -293h-103z" />
    <glyph glyph-name="bullet" unicode="&#x2022;" horiz-adv-x="694" 
d="M319 526q-84 0 -127 56.5t-22 146.5q19 81 82 131.5t145 50.5t128 -56.5t22 -149.5q-15 -77 -82 -128t-146 -51z" />
    <glyph glyph-name="ellipsis" unicode="&#x2026;" horiz-adv-x="1077" 
d="M63 -20q-48 0 -74 32.5t-14 85.5q10 47 48 77t86 30t74.5 -33t13.5 -88q-9 -45 -48 -74.5t-86 -29.5zM311 98q10 47 48 77t85 30q48 0 74.5 -33t13.5 -88q-9 -45 -47.5 -74.5t-85.5 -29.5q-48 0 -74 32.5t-14 85.5zM647 98q10 47 48 77t85 30q48 0 74.5 -33t13.5 -88
q-9 -45 -47.5 -74.5t-85.5 -29.5q-48 0 -74 32.5t-14 85.5z" />
    <glyph glyph-name="uni202F" unicode="&#x202f;" horiz-adv-x="409" 
 />
    <glyph glyph-name="perthousand" unicode="&#x2030;" horiz-adv-x="2168" 
d="M1696 -20q-97 0 -157.5 48.5t-77.5 121.5t1 159q14 64 43 121.5t73 104.5t107 74.5t136 27.5q59 0 105.5 -18.5t74.5 -50t45 -73.5t17 -90t-9 -98q-14 -64 -43 -121.5t-72.5 -104t-106.5 -74t-136 -27.5zM164 0l1134 1671h103l-1135 -1671h-102zM197 1364q14 64 43 121.5
t72.5 104.5t106.5 74.5t136 27.5q59 0 105.5 -18.5t74.5 -50t45 -73.5t17 -90t-9 -98q-14 -64 -43 -121.5t-72.5 -104.5t-106.5 -74.5t-136 -27.5q-59 0 -105.5 18.5t-74.5 50t-45 73.5t-17 90t9 98zM309 1364q-22 -101 12.5 -164t122.5 -63t148.5 62.5t83.5 164.5
q23 100 -11 162.5t-122 62.5q-89 0 -150 -62t-84 -163zM782 309q14 64 43 121.5t73 104.5t107 74.5t136 27.5q59 0 105 -18.5t74 -50t44.5 -73.5t16.5 -90t-9 -98q-14 -64 -42.5 -121.5t-72 -104t-106 -74t-135.5 -27.5q-97 0 -157.5 48.5t-77.5 121.5t1 159zM893 307
q-21 -101 13 -163t122 -62q89 0 150 62t84 163q21 102 -13.5 165t-122.5 63q-89 0 -149.5 -62.5t-83.5 -165.5zM1575 307q-21 -101 12.5 -163t122.5 -62q88 0 149.5 62.5t82.5 162.5q21 102 -13.5 165t-122.5 63t-149 -63t-82 -165z" />
    <glyph glyph-name="second" unicode="&#x2033;" horiz-adv-x="538" 
d="M328 1671h106l-110 -512h-107zM418 1159l110 512h107l-111 -512h-106z" />
    <glyph glyph-name="guilsinglleft" unicode="&#x2039;" horiz-adv-x="620" 
d="M414 307l-332 359l16 82l473 284l-26 -125l-361 -209l258 -266z" />
    <glyph glyph-name="guilsinglright" unicode="&#x203a;" horiz-adv-x="620" 
d="M51 307l27 125l360 209l-258 266l29 125l332 -356l-17 -82z" />
    <glyph glyph-name="fraction" unicode="&#x2044;" horiz-adv-x="196" 
d="M717 1671l-1104 -1671h-96l1101 1671h99z" />
    <glyph glyph-name="uni205F" unicode="&#x205f;" horiz-adv-x="454" 
 />
    <glyph glyph-name="uni2070" unicode="&#x2070;" horiz-adv-x="667" 
d="M377 707q-143 0 -203 89.5t-27 237.5l52 248q28 131 96.5 206t198.5 75q144 0 202.5 -89.5t26.5 -238.5l-51 -248q-56 -280 -295 -280zM229 922l392 503q-35 60 -127 60q-84 0 -131 -51.5t-70 -153.5l-55 -262q-12 -55 -9 -96zM248 850q35 -66 131 -66q81 0 129 49
t70 154l55 264q11 55 8 103z" />
    <glyph glyph-name="uni2074" unicode="&#x2074;" horiz-adv-x="612" 
d="M676 1552l-125 -583h86l-16 -78h-86l-37 -174h-92l36 174h-360l16 82l488 579h90zM186 969h273l92 432z" />
    <glyph glyph-name="uni2075" unicode="&#x2075;" horiz-adv-x="632" 
d="M446 1278q118 0 175.5 -69.5t31.5 -184.5l-20 -92q-23 -109 -88 -167t-185 -58q-128 0 -192 64.5t-47 176.5l4 23h94l-8 -31q-12 -79 29 -117.5t120 -38.5q147 0 181 154l18 90q19 82 -16.5 125t-118.5 43q-62 0 -102.5 -30.5t-77.5 -94.5h-92l127 481h450l-16 -77h-367
l-72 -269q69 72 172 72z" />
    <glyph glyph-name="uni2076" unicode="&#x2076;" horiz-adv-x="655" 
d="M379 707q-141 0 -202.5 71.5t-35.5 200.5l72 336q12 60 30.5 102.5t49.5 77t79 51.5t115 17q131 0 187.5 -63t42.5 -173h-94l2 2q19 150 -138 150q-79 0 -120 -38t-60 -128l-20 -103q62 68 176 68q113 0 173.5 -67.5t35.5 -184.5l-19 -90q-22 -114 -87.5 -171.5
t-186.5 -57.5zM231 952q-19 -78 18.5 -123t129.5 -45q79 0 122 37t58 117l19 90q18 85 -19 127.5t-123 42.5q-150 0 -186 -154z" />
    <glyph glyph-name="uni2077" unicode="&#x2077;" horiz-adv-x="550" 
d="M190 1475l17 77h498l-17 -79q-74 -61 -133 -131t-99.5 -137t-74.5 -151t-55 -156.5t-45 -170.5l-2 -10h-93l2 14q47 242 137.5 421t264.5 323h-400z" />
    <glyph glyph-name="uni2078" unicode="&#x2078;" horiz-adv-x="645" 
d="M360 707q-140 0 -202 62t-37 175l6 33q34 158 176 186q-52 18 -76 65.5t-6 117.5l6 30q39 187 254 187q129 0 191.5 -59.5t40.5 -155.5l-8 -31q-27 -131 -152 -160q59 -19 83.5 -72.5t4.5 -138.5l-6 -33q-23 -107 -88.5 -156.5t-186.5 -49.5zM211 930
q-15 -77 21.5 -112.5t125.5 -35.5q80 0 124.5 30.5t58.5 105.5l12 55q17 79 -19.5 112t-123.5 33q-81 0 -126.5 -31t-60.5 -102zM309 1323q-13 -65 21 -96t112 -31q143 0 168 117l11 47q12 63 -23 95t-115 32q-71 0 -111 -28t-53 -91z" />
    <glyph glyph-name="uni2079" unicode="&#x2079;" horiz-adv-x="653" 
d="M477 1563q140 0 201 -72t35 -201l-72 -336q-25 -125 -85.5 -186t-188.5 -61q-127 0 -186 60.5t-44 174.5h94v-2q-12 -79 23.5 -114t114.5 -35t119 37.5t59 127.5l20 103q-62 -68 -174 -68q-116 0 -175.5 68t-35.5 184l19 90q23 113 87.5 171.5t188.5 58.5zM276 1241
q-18 -85 20 -127.5t122 -42.5q154 0 186 154l21 92q19 87 -22.5 127.5t-129.5 40.5q-76 0 -118.5 -36.5t-59.5 -117.5z" />
    <glyph glyph-name="uni2080" unicode="&#x2080;" horiz-adv-x="667" 
d="M168 -266q-143 0 -202.5 89.5t-26.5 237.5l51 248q28 131 96.5 206t198.5 75q144 0 202.5 -89.5t26.5 -238.5l-51 -248q-56 -280 -295 -280zM20 -51l392 504q-35 59 -127 59q-84 0 -131 -51.5t-70 -153.5l-55 -262q-12 -55 -9 -96zM39 -123q35 -65 131 -65
q82 0 129.5 48.5t69.5 153.5l55 265q11 55 8 102z" />
    <glyph glyph-name="uni2081" unicode="&#x2081;" horiz-adv-x="507" 
d="M-125 -178h172l139 645q-72 -72 -192 -72l16 84q111 0 201 101h90l-162 -758h172l-16 -78h-436z" />
    <glyph glyph-name="uni2082" unicode="&#x2082;" horiz-adv-x="638" 
d="M-117 -174q25 123 80.5 194t183.5 121l109 54q72 27 114 63.5t56 97.5l2 15q33 141 -139 141q-87 0 -131.5 -38t-61.5 -130l-8 -35h-94l8 33q24 126 91.5 187t195.5 61q129 0 191.5 -65.5t39.5 -174.5q-34 -158 -223 -231l-113 -53q-108 -43 -146.5 -93t-60.5 -151h426
l-16 -78h-520z" />
    <glyph glyph-name="uni2083" unicode="&#x2083;" horiz-adv-x="636" 
d="M141 -266q-137 0 -193.5 60t-41.5 179l6 29h94l-8 -37q-10 -86 25 -119.5t118 -33.5q82 0 125 31.5t60 103.5l8 41q19 83 -17.5 115t-109.5 32h-98l16 78h94q157 0 182 121l9 33q33 145 -138 145q-78 0 -123.5 -34t-58.5 -116l-6 -30h-94l6 28q19 119 85.5 174.5
t190.5 55.5q134 0 193 -64t37 -172l-4 -16q-11 -59 -51.5 -104.5t-102.5 -59.5q56 -24 76.5 -79.5t5.5 -127.5l-4 -20q-45 -213 -281 -213z" />
    <glyph glyph-name="uni2084" unicode="&#x2084;" horiz-adv-x="612" 
d="M469 580l-125 -584h86l-16 -78h-86l-37 -174h-92l37 174h-361l16 82l488 580h90zM-20 -4h272l92 432z" />
    <glyph glyph-name="uni2085" unicode="&#x2085;" horiz-adv-x="632" 
d="M242 305q118 0 175.5 -69.5t31.5 -184.5l-21 -92q-23 -109 -87.5 -167t-184.5 -58q-128 0 -192.5 64.5t-47.5 176.5l4 23h94l-8 -31q-12 -78 29.5 -116.5t120.5 -38.5q75 0 119 37.5t61 115.5l18 90q19 82 -16.5 125t-118.5 43q-62 0 -102.5 -30.5t-77.5 -94.5h-92
l127 482h450l-16 -78h-367l-71 -269q69 72 172 72z" />
    <glyph glyph-name="uni2086" unicode="&#x2086;" horiz-adv-x="653" 
d="M170 -266q-141 0 -202.5 71.5t-35.5 200.5l72 336q12 60 30.5 102.5t50 77t79.5 51.5t115 17q131 0 187 -63t42 -173h-94l2 2q10 79 -25 114.5t-112 35.5q-79 0 -120.5 -38t-60.5 -128l-20 -102q61 67 176 67q113 0 173.5 -67.5t35.5 -184.5l-19 -90
q-22 -114 -87.5 -171.5t-186.5 -57.5zM23 -20q-19 -78 18 -123t129 -45q79 0 122 36.5t58 116.5l19 90q18 85 -19 127.5t-123 42.5q-150 0 -186 -153z" />
    <glyph glyph-name="uni2087" unicode="&#x2087;" horiz-adv-x="546" 
d="M-18 502l16 78h498l-17 -80q-74 -61 -133 -131t-99.5 -137t-74.5 -151t-55 -156.5t-45 -170.5l-2 -10h-93l3 14q47 242 137 421t264 323h-399z" />
    <glyph glyph-name="uni2088" unicode="&#x2088;" horiz-adv-x="645" 
d="M154 -266q-140 0 -202.5 62t-37.5 175l6 33q34 158 176 186q-52 18 -76 65.5t-6 117.5l6 30q39 187 254 187q129 0 191.5 -59.5t40.5 -155.5l-8 -31q-27 -131 -152 -160q59 -19 83.5 -72.5t4.5 -138.5l-6 -32q-23 -107 -88.5 -157t-185.5 -50zM4 -43q-15 -77 22 -112
t126 -35q80 0 124 30t58 105l12 55q17 79 -19.5 112t-123.5 33q-81 0 -126.5 -31t-60.5 -102zM102 350q-13 -65 21.5 -96t112.5 -31q142 0 167 117l11 47q12 63 -23 95t-115 32q-71 0 -110.5 -28t-52.5 -91z" />
    <glyph glyph-name="uni2089" unicode="&#x2089;" horiz-adv-x="657" 
d="M272 590q140 0 201 -72t35 -201l-72 -335q-25 -125 -85.5 -186.5t-188.5 -61.5q-127 0 -186 60.5t-44 174.5h95v-2q-12 -79 23 -114t114 -35t119 38t59 128l20 102q-62 -68 -174 -68q-116 0 -175.5 68t-35.5 184l19 90q23 113 87.5 171.5t188.5 58.5zM72 268
q-18 -85 19.5 -127.5t121.5 -42.5q154 0 186 154l21 92q19 87 -22.5 127.5t-129.5 40.5q-76 0 -118.5 -36.5t-59.5 -117.5z" />
    <glyph glyph-name="Euro" unicode="&#x20ac;" horiz-adv-x="1398" 
d="M111 702l18 84h150l20 97h-156l19 84h155l41 194q117 531 578 531q242 0 361 -145.5t83 -407.5l-34 -164h-127l34 168q32 231 -54.5 335.5t-262.5 104.5q-188 0 -296 -109.5t-153 -316.5l-41 -190h551l-18 -84h-551l-20 -97h557l-19 -84h-557l-14 -65q-55 -259 32.5 -404
t288.5 -145q170 0 277.5 99t152.5 315l41 192h129l-39 -188q-54 -257 -190.5 -391.5t-372.5 -134.5q-134 0 -234 49.5t-154.5 138.5t-71.5 211.5t16 269.5l12 53h-151z" />
    <glyph glyph-name="trademark" unicode="&#x2122;" horiz-adv-x="1325" 
d="M592 870l170 801h137l49 -631l320 631h135l-170 -801h-107l123 574l-291 -574h-90l-49 568l-121 -568h-106zM238 1563l24 108h457l-25 -108h-172l-149 -693h-107l148 693h-176z" />
    <glyph glyph-name="oneeighth" unicode="&#x215b;" horiz-adv-x="1730" 
d="M123 913h172l139 646q-72 -72 -192 -72l16 84q112 0 201 100h90l-162 -758h172l-16 -77h-437zM240 0l1099 1671h99l-1102 -1671h-96zM1057 227l6 33q34 158 176 186q-52 18 -76 65.5t-6 117.5l6 30q39 187 254 187q129 0 191.5 -59.5t40.5 -155.5l-9 -31
q-27 -131 -151 -160q59 -19 83.5 -72.5t4.5 -138.5l-6 -32q-23 -107 -89 -157t-186 -50q-140 0 -202 62t-37 175zM1147 213q-15 -77 21.5 -112t125.5 -35q80 0 124.5 30t58.5 105l12 55q17 79 -19.5 112t-123.5 33q-81 0 -126.5 -31t-60.5 -102zM1245 606q-13 -65 21 -96
t112 -31q143 0 168 117l10 47q12 63 -22.5 95t-114.5 32q-71 0 -111 -28t-53 -91z" />
    <glyph glyph-name="threeeighths" unicode="&#x215c;" horiz-adv-x="1830" 
d="M385 834q-137 0 -193.5 60t-41.5 179l6 29h94l-8 -37q-10 -86 25 -120t118 -34q81 0 124 32t60 104l9 40q19 83 -17.5 115.5t-109.5 32.5h-99l17 78h94q157 0 182 121l8 32q33 146 -137 146q-78 0 -123.5 -34t-58.5 -116l-6 -30h-95l7 28q19 119 85.5 174.5t190.5 55.5
q134 0 192.5 -64t36.5 -172l-4 -16q-11 -60 -51 -105t-102 -59q56 -24 76.5 -79.5t5.5 -127.5l-4 -20q-45 -213 -281 -213zM338 0l1100 1671h98l-1102 -1671h-96zM1155 227l6 33q34 158 176 186q-52 18 -76 65.5t-6 117.5l7 30q39 187 254 187q129 0 191 -59.5t40 -155.5
l-8 -31q-27 -131 -152 -160q59 -19 83.5 -72.5t4.5 -138.5l-6 -32q-23 -107 -88.5 -157t-185.5 -50q-140 0 -202.5 62t-37.5 175zM1245 213q-15 -77 22 -112t126 -35q80 0 124 30t58 105l12 55q17 79 -19.5 112t-123.5 33q-81 0 -126.5 -31t-60.5 -102zM1343 606
q-13 -65 21.5 -96t112.5 -31q143 0 168 117l10 47q12 63 -22.5 95t-114.5 32q-71 0 -111 -28t-53 -91z" />
    <glyph glyph-name="fiveeighths" unicode="&#x215d;" horiz-adv-x="1818" 
d="M475 1397q118 0 175.5 -69.5t31.5 -184.5l-20 -92q-23 -109 -88 -167.5t-185 -58.5q-128 0 -192 65t-47 177l4 23h94l-8 -31q-12 -79 29 -117.5t120 -38.5q146 0 180 154l19 90q19 82 -16.5 125t-118.5 43q-62 0 -103 -31t-78 -94h-92l127 481h451l-17 -78h-366l-72 -268
q69 72 172 72zM326 0l1101 1671h99l-1104 -1671h-96zM1145 227l6 33q34 158 176 186q-52 18 -76 65.5t-6 117.5l6 30q39 187 254 187q129 0 191.5 -59.5t40.5 -155.5l-8 -31q-27 -131 -152 -160q59 -19 83.5 -72.5t4.5 -138.5l-6 -32q-23 -107 -89 -157t-186 -50
q-140 0 -202 62t-37 175zM1235 213q-15 -77 21.5 -112t125.5 -35q80 0 124.5 30t58.5 105l12 55q17 79 -19.5 112t-123.5 33q-81 0 -126.5 -31t-60.5 -102zM1333 606q-13 -65 21 -96t112 -31q143 0 168 117l11 47q12 63 -23 95t-115 32q-71 0 -111 -28t-53 -91z" />
    <glyph glyph-name="seveneighths" unicode="&#x215e;" horiz-adv-x="1753" 
d="M225 1593l17 78h497l-16 -80q-92 -76 -160 -161t-114 -183.5t-75 -187.5t-59 -213l-2 -10h-92l2 14q47 241 137 420t265 323h-400zM252 0l1102 1671h98l-1104 -1671h-96zM1069 227l6 33q34 158 176 186q-52 18 -76 65.5t-6 117.5l7 30q39 187 254 187q129 0 191 -59.5
t40 -155.5l-8 -31q-27 -131 -152 -160q59 -19 83.5 -72.5t4.5 -138.5l-6 -32q-23 -107 -88.5 -157t-185.5 -50q-140 0 -202.5 62t-37.5 175zM1159 213q-15 -77 22 -112t126 -35q80 0 124 30t58 105l12 55q17 79 -19.5 112t-123.5 33q-81 0 -126.5 -31t-60.5 -102zM1257 606
q-13 -65 21.5 -96t112.5 -31q143 0 168 117l10 47q12 63 -22.5 95t-114.5 32q-71 0 -111 -28t-53 -91z" />
    <glyph glyph-name="arrowleft" unicode="&#x2190;" horiz-adv-x="1175" 
d="M250 633q106 -43 185 -138t102 -235h-107q-9 66 -43.5 128t-83.5 109t-104.5 81.5t-112.5 54.5v86q57 20 112.5 54.5t104.5 81.5t83.5 109t43.5 128h107q-23 -140 -102 -235t-185 -138h844v-86h-844z" />
    <glyph glyph-name="arrowup" unicode="&#x2191;" horiz-adv-x="989" 
d="M559 178h-86v844q-43 -106 -138 -185t-235 -102v107q66 9 128 43.5t109 83.5t81.5 104.5t54.5 112.5h86q20 -57 54.5 -112.5t81.5 -104.5t109 -83.5t128 -43.5v-107q-140 23 -235 102t-138 185v-844z" />
    <glyph glyph-name="arrowright" unicode="&#x2192;" horiz-adv-x="1175" 
d="M86 633v86h844q-106 43 -185 138t-102 235h107q9 -66 43.5 -128t83.5 -109t104.5 -81.5t112.5 -54.5v-86q-57 -20 -112.5 -54.5t-104.5 -81.5t-83.5 -109t-43.5 -128h-107q23 140 102 235t185 138h-844z" />
    <glyph glyph-name="arrowdown" unicode="&#x2193;" horiz-adv-x="987" 
d="M434 1176h86v-844q43 106 138 184.5t235 101.5v-106q-66 -9 -128 -43.5t-109 -83.5t-81.5 -104.5t-54.5 -112.5h-86q-20 57 -54.5 112.5t-81.5 104.5t-109 83.5t-128 43.5v106q140 -23 235 -101.5t138 -184.5v844z" />
    <glyph glyph-name="arrowboth" unicode="&#x2194;" horiz-adv-x="1501" 
d="M86 731q122 37 224 137.5t120 229.5h109q-23 -140 -103 -234.5t-186 -132.5h1007q-106 38 -185 132.5t-101 234.5h106q18 -129 120 -229.5t224 -137.5v-98q-122 -37 -224 -137.5t-120 -229.5h-106q22 140 101 234.5t185 132.5h-1007q106 -38 186 -132.5t103 -234.5h-109
q-18 129 -120 229.5t-224 137.5v98z" />
    <glyph glyph-name="arrowupdn" unicode="&#x2195;" horiz-adv-x="1054" 
d="M582 1352q37 -122 137 -224t229 -120v-109q-140 23 -234 103t-132 186v-1008q38 106 132 185.5t234 101.5v-107q-129 -18 -229 -120t-137 -224h-99q-37 122 -137 224t-229 120v107q140 -22 234 -101.5t132 -185.5v1008q-38 -106 -132 -186t-234 -103v109q129 18 229 120
t137 224h99z" />
    <glyph glyph-name="uni2196" unicode="&#x2196;" horiz-adv-x="1028" 
d="M909 334l-61 -62l-596 598q29 -69 35 -143t-17.5 -160t-79.5 -164l-73 76q54 70 70 165t1 181.5t-51 159.5l60 62q75 -36 161.5 -51t181.5 1t165 70l75 -76q-79 -56 -165 -79.5t-160 -17t-142 35.5z" />
    <glyph glyph-name="uni2197" unicode="&#x2197;" horiz-adv-x="950" 
d="M102 274l-61 62l596 596q-68 -29 -142 -35.5t-159.5 17t-163.5 79.5l74 74q70 -54 165 -70t182 -0.5t161 52.5l61 -62q-37 -74 -52 -161t1 -182t70 -165l-74 -73q-56 78 -79.5 163.5t-17.5 159t35 141.5z" />
    <glyph glyph-name="uni2198" unicode="&#x2198;" horiz-adv-x="1028" 
d="M121 1016l61 61l596 -598q-29 69 -35 143t17.5 160t79.5 164l75 -76q-55 -70 -71.5 -165t-1 -181t52.5 -159l-61 -62q-75 36 -161 51t-180.5 -1t-164.5 -70l-76 75q78 56 163.5 79.5t159.5 17.5t142 -35z" />
    <glyph glyph-name="uni2199" unicode="&#x2199;" horiz-adv-x="952" 
d="M856 1077l59 -61l-596 -596q69 29 143 35t160 -17.5t164 -79.5l-75 -73q-70 54 -165 70t-181.5 0.5t-159.5 -52.5l-62 62q36 75 51 161t-1 181t-70 165l76 74q55 -78 78 -163.5t16.5 -159.5t-35.5 -142z" />
    <glyph glyph-name="uni21E7" unicode="&#x21e7;" horiz-adv-x="1736" 
d="M485 -14v604h-426l795 883l795 -883h-426v-604h-738zM289 692h299v-604h532v604h299l-565 629z" />
    <glyph glyph-name="partialdiff" unicode="&#x2202;" horiz-adv-x="1316" 
d="M516 -246q-274 0 -414 129.5t-118 362.5q6 83 31.5 159.5t76 148.5t121 124.5t175 84.5t230.5 32q177 0 297.5 -60t167.5 -157q13 567 -653 768l37 81q156 -47 278.5 -115t206 -151.5t137.5 -180t75.5 -206.5t17.5 -226t-33 -243q-32 -134 -81 -232t-123.5 -171.5
t-181.5 -110.5t-247 -37zM84 236q-17 -191 91 -291.5t335 -100.5t353.5 111.5t178.5 329.5q43 195 -65 306t-354 111q-107 0 -195 -25.5t-148.5 -69t-103.5 -104t-64.5 -127t-27.5 -140.5z" />
    <glyph glyph-name="emptyset" unicode="&#x2205;" horiz-adv-x="1562" 
d="M745 279q-156 0 -262 32l-231 -311h-109l254 342q-132 57 -201 162t-69 246q0 92 29 181.5t91 171.5t150 144.5t215.5 99.5t278.5 37q145 0 256 -30l235 317h111l-258 -348q132 -57 201 -162t69 -248q0 -93 -29 -183t-91 -172t-150 -144t-214.5 -98.5t-275.5 -36.5z
M229 737q0 -105 55 -188.5t171 -128.5l630 852q-82 18 -190 18q-127 0 -237.5 -33t-187.5 -88.5t-132.5 -127t-82 -149.5t-26.5 -155zM543 391q86 -18 196 -18q129 0 240 33t188 87.5t131.5 126.5t80.5 150.5t26 157.5q0 105 -55.5 188.5t-171.5 128.5z" />
    <glyph glyph-name="product" unicode="&#x220f;" horiz-adv-x="1236" 
d="M662 -225l329 1554h-469l-329 -1554h-103l330 1554h-250l18 86h1176l-18 -86h-252l-330 -1554h-102z" />
    <glyph glyph-name="summation" unicode="&#x2211;" horiz-adv-x="1196" 
d="M-135 -236l16 86l719 742l-399 745l16 86h1086l-19 -86h-967l406 -745l-719 -742h965l-19 -86h-1085z" />
    <glyph glyph-name="minus" unicode="&#x2212;" horiz-adv-x="1361" 
d="M137 874h1176l-19 -86h-1175z" />
    <glyph glyph-name="radical" unicode="&#x221a;" horiz-adv-x="1394" 
d="M260 -225l-217 733h111l182 -633l788 1538h373l-18 -86h-293l-799 -1552h-127z" />
    <glyph glyph-name="infinity" unicode="&#x221e;" horiz-adv-x="1527" 
d="M1147 401q-57 0 -110 16.5t-102.5 49.5t-85 64t-83.5 79q-48 -48 -83.5 -79t-85 -64t-102.5 -49.5t-110 -16.5q-54 0 -101.5 15.5t-87.5 47t-63.5 86t-23.5 126.5q0 73 24 128t65 85.5t88 45.5t99 15q57 0 110 -16.5t102.5 -49.5t85 -64t83.5 -79q48 48 83.5 79t85 64
t102.5 49.5t110 16.5q52 0 99 -15t88 -45.5t65 -85.5t24 -128q0 -72 -23 -126.5t-63 -86t-88 -47t-102 -15.5zM211 676q0 -87 46 -131.5t132 -44.5q84 0 154.5 45t156.5 131q-86 86 -156.5 131t-154.5 45q-90 0 -134 -46t-44 -130zM831 676q85 -85 157.5 -130.5t156.5 -45.5
q85 0 130.5 45t45.5 131q0 82 -44.5 129t-133.5 47q-84 0 -155.5 -45.5t-156.5 -130.5z" />
    <glyph glyph-name="integral" unicode="&#x222b;" horiz-adv-x="833" 
d="M-156 -246l19 84h49q88 0 146.5 16.5t96.5 55t59 88t38 129.5l199 940q19 92 45.5 153.5t73.5 112t121.5 74t180.5 23.5h86l-18 -87h-57q-85 0 -141.5 -16t-93.5 -54t-58.5 -88t-38.5 -130l-199 -940q-20 -92 -47 -153.5t-75 -111t-125 -73t-187 -23.5h-74z" />
    <glyph glyph-name="approxequal" unicode="&#x2248;" horiz-adv-x="1443" 
d="M152 899q7 65 30.5 115t54.5 79.5t72 48.5t79 25.5t79 6.5q75 0 142.5 -22.5t119 -54.5t100.5 -64t106 -54.5t116 -22.5q87 0 144.5 44.5t64.5 127.5h104q-7 -65 -30.5 -114.5t-54.5 -79t-72 -48.5t-79.5 -25.5t-80.5 -6.5q-75 0 -142.5 22.5t-119 54t-100.5 63.5
t-106 54.5t-116 22.5q-87 0 -143.5 -44.5t-65.5 -127.5h-102zM152 530q7 65 30.5 115t54.5 79.5t72 48.5t79 25.5t79 6.5q75 0 142.5 -22.5t119 -54.5t100.5 -63.5t106 -54t116 -22.5q87 0 144.5 44.5t64.5 127.5h104q-9 -80 -41 -137t-79.5 -85.5t-95 -40.5t-101.5 -12
q-75 0 -142.5 22.5t-119 54.5t-100.5 63.5t-106 54t-116 22.5q-87 0 -143.5 -44.5t-65.5 -127.5h-102z" />
    <glyph glyph-name="notequal" unicode="&#x2260;" horiz-adv-x="1400" 
d="M311 315l248 347h-448l18 86h492l118 167h-575l18 86h619l248 347h106l-248 -347h451l-19 -86h-493l-119 -167h578l-19 -86h-620l-248 -347h-107z" />
    <glyph glyph-name="lessequal" unicode="&#x2264;" horiz-adv-x="1421" 
d="M168 901l1245 326l-22 -103l-1045 -264l934 -264l-23 -102l-12 -56h-1175l18 86h1065l-1001 295z" />
    <glyph glyph-name="greaterequal" unicode="&#x2265;" horiz-adv-x="1417" 
d="M76 438l18 86l17 72l1044 264l-934 264l23 103l1106 -326l-17 -82l-1128 -295h1065l-19 -86h-1175z" />
    <glyph glyph-name="uni2317" unicode="&#x2317;" horiz-adv-x="1581" 
d="M135 887v102h393v393h103v-393h340v393h102v-393h393v-102h-393v-340h393v-103h-393v-393h-102v393h-340v-393h-103v393h-393v103h393v340h-393zM631 547h340v340h-340v-340z" />
    <glyph glyph-name="uni2318" unicode="&#x2318;" horiz-adv-x="1675" 
d="M418 14q-124 0 -198.5 74t-74.5 199q0 134 92 208t271 74h90v295h-90q-179 0 -271 74.5t-92 208.5q0 124 74 198t199 74q134 0 208 -91.5t74 -270.5v-90h295v90q0 178 74.5 270t208.5 92q124 0 198 -73.5t74 -198.5q0 -134 -92 -208.5t-270 -74.5h-90v-295h90
q179 0 270.5 -74t91.5 -208q0 -125 -74 -199t-198 -74q-134 0 -208.5 92t-74.5 271v90h-295v-90q0 -179 -74 -271t-208 -92zM248 287q0 -88 41 -129t129 -41q95 0 137.5 59t42.5 201v90h-90q-142 0 -201 -42.5t-59 -137.5zM248 1147q0 -95 59 -137.5t201 -42.5h90v90
q0 142 -42.5 201t-137.5 59q-88 0 -129 -41t-41 -129zM700 569h295v295h-295v-295zM1098 377q0 -142 42.5 -201t137.5 -59q88 0 129 41t41 129q0 95 -59 137.5t-201 42.5h-90v-90zM1098 967h90q142 0 201 42.5t59 137.5q0 88 -41 129t-129 41q-95 0 -137.5 -59t-42.5 -201
v-90z" />
    <glyph glyph-name="uni2325" unicode="&#x2325;" horiz-adv-x="1765" 
d="M981 115l-489 1102h-334v102h399l492 -1102h540v-102h-608zM893 1217v102h696v-102h-696z" />
    <glyph glyph-name="filledbox" unicode="&#x25a0;" horiz-adv-x="1511" 
d="M207 158v1118h1118v-1118h-1118z" />
    <glyph glyph-name="uni25A1" unicode="&#x25a1;" horiz-adv-x="1511" 
d="M207 158v1118h1118v-1118h-1118zM309 260h914v914h-914v-914z" />
    <glyph glyph-name="triagup" unicode="&#x25b2;" horiz-adv-x="1449" 
d="M-80 31l682 1179l680 -1179h-1362z" />
    <glyph glyph-name="uni25B3" unicode="&#x25b3;" horiz-adv-x="1511" 
d="M-80 31l711 1231l710 -1231h-1421zM96 133h1067l-532 924z" />
    <glyph glyph-name="uni25B6" unicode="&#x25b6;" horiz-adv-x="1472" 
d="M229 1393l1180 -680l-1180 -682v1362z" />
    <glyph glyph-name="uni25B7" unicode="&#x25b7;" horiz-adv-x="1533" 
d="M233 -6v1421l1231 -710zM336 170l924 535l-924 532v-1067z" />
    <glyph glyph-name="triagdn" unicode="&#x25bc;" horiz-adv-x="1470" 
d="M1526 1210l-682 -1179l-680 1179h1362z" />
    <glyph glyph-name="uni25BD" unicode="&#x25bd;" horiz-adv-x="1529" 
d="M874 -20l-710 1230h1421zM342 1108l532 -924l535 924h-1067z" />
    <glyph glyph-name="uni25C0" unicode="&#x25c0;" horiz-adv-x="1476" 
d="M1264 31l-1180 682l1180 680v-1362z" />
    <glyph glyph-name="uni25C1" unicode="&#x25c1;" horiz-adv-x="1533" 
d="M1319 -6l-1231 711l1231 710v-1421zM293 705l924 -535v1067z" />
    <glyph glyph-name="uni25C6" unicode="&#x25c6;" horiz-adv-x="1499" 
d="M762 51l-668 666l668 667l665 -667z" />
    <glyph glyph-name="uni25C7" unicode="&#x25c7;" horiz-adv-x="1542" 
d="M780 29l-686 688l688 688l686 -688zM238 717l544 -543l543 543l-545 543z" />
    <glyph glyph-name="lozenge" unicode="&#x25ca;" horiz-adv-x="952" 
d="M535 1280h147l184 -614l-446 -615h-148l-184 615zM199 666l161 -543l396 543l-162 542z" />
    <glyph glyph-name="circle" unicode="&#x25cb;" horiz-adv-x="1458" 
d="M741 92q-127 0 -243 49.5t-199.5 133.5t-132.5 199.5t-49 242.5t49 242.5t132.5 199t199.5 133t243 49.5q169 0 312.5 -83.5t227 -227.5t83.5 -313t-83.5 -313t-227 -228t-312.5 -84zM219 717q0 -221 150.5 -370.5t371.5 -149.5q145 0 264.5 68t188 187.5t68.5 264.5
t-68.5 264.5t-188 187.5t-264.5 68q-221 0 -371.5 -149.5t-150.5 -370.5z" />
    <glyph glyph-name="uni25CF" unicode="&#x25cf;" horiz-adv-x="1460" 
d="M741 94q-127 0 -243 49.5t-199.5 133t-132.5 198.5t-49 242t49 242.5t132.5 199t199.5 133t243 49.5q169 0 312.5 -83.5t227 -227.5t83.5 -313t-83.5 -312.5t-227 -227t-312.5 -83.5z" />
    <glyph glyph-name="uni2B1B" unicode="&#x2b1b;" horiz-adv-x="2162" 
d="M231 -143v1720h1721v-1720h-1721z" />
    <glyph glyph-name="uni2B1C" unicode="&#x2b1c;" horiz-adv-x="2162" 
d="M231 -143v1720h1721v-1720h-1721zM334 -41h1515v1516h-1515v-1516z" />
    <glyph glyph-name="uni2B98" unicode="&#x2b98;" horiz-adv-x="1556" 
d="M1391 -39l-1289 744l1289 743l-322 -743zM307 705h649l218 499z" />
    <glyph glyph-name="uni2B99" unicode="&#x2b99;" horiz-adv-x="1552" 
d="M-98 -27l743 1289l744 -1289l-744 322zM645 408l500 -218l-500 867v-649z" />
    <glyph glyph-name="uni2B9A" unicode="&#x2b9a;" horiz-adv-x="1558" 
d="M184 -39l322 744l-322 743l1289 -743zM401 1204l217 -499h650z" />
    <glyph glyph-name="uni2B9B" unicode="&#x2b9b;" horiz-adv-x="1552" 
d="M889 -20l-744 1288l744 -322l743 322zM389 1051l500 -867v650z" />
    <glyph glyph-name="uni2B9C" unicode="&#x2b9c;" horiz-adv-x="1433" 
d="M1274 31l-1180 682l1180 680l-295 -680z" />
    <glyph glyph-name="uni2B9D" unicode="&#x2b9d;" horiz-adv-x="1437" 
d="M-80 31l682 1179l680 -1179l-680 295z" />
    <glyph glyph-name="uni2B9E" unicode="&#x2b9e;" horiz-adv-x="1435" 
d="M178 31l295 682l-295 680l1180 -680z" />
    <glyph glyph-name="uni2B9F" unicode="&#x2b9f;" horiz-adv-x="1439" 
d="M823 31l-680 1179l680 -295l682 295z" />
    <glyph glyph-name="uni3000" unicode="&#x3000;" horiz-adv-x="2048" 
 />
    <glyph glyph-name="uni004A0301" horiz-adv-x="1153" 
d="M444 -20q-168 0 -272 71t-139 193t-10 288l20 95h127l-23 -101q-33 -226 43 -333t256 -107q103 0 175 37.5t127 130.5t88 250l249 1167h125l-247 -1169q-22 -101 -48 -176.5t-67.5 -143.5t-95.5 -110.5t-131.5 -67t-176.5 -24.5zM823 1886l746 152l10 -80l-745 -150z" />
    <glyph glyph-name="I.bracket" horiz-adv-x="534" 
d="M66 0l354 1671h123l-353 -1671h-124z" />
    <glyph glyph-name="A.ss01" 
d="M-94 0l901 1671h149l193 -1671h-125l-39 371h-747l-197 -371h-135zM295 479h678l-111 1043l-4 18l-8 -18z" />
    <glyph glyph-name="Aacute.ss01" 
d="M-94 0l901 1671h149l193 -1671h-125l-39 371h-747l-197 -371h-135zM295 479h678l-111 1043l-4 18l-8 -18zM485 1872l897 151l13 -79l-897 -152z" />
    <glyph glyph-name="Abreve.ss01" 
d="M-94 0l901 1671h149l193 -1671h-125l-39 371h-747l-197 -371h-135zM295 479h678l-111 1043l-4 18l-8 -18zM553 2030h100q-5 -35 6.5 -62t36 -43.5t63 -26.5t81 -14t96.5 -4q96 0 164 12.5t117 47t63 90.5h100q-32 -132 -143 -184t-305 -52q-96 0 -167 12t-124 38.5
t-76 73t-12 112.5z" />
    <glyph glyph-name="Acircumflex.ss01" 
d="M-94 0l901 1671h149l193 -1671h-125l-39 371h-747l-197 -371h-135zM295 479h678l-111 1043l-4 18l-8 -18zM506 1772l395 253h121l293 -253h-144l-215 188l-290 -188h-160z" />
    <glyph glyph-name="Adieresis.ss01" 
d="M-94 0l901 1671h149l193 -1671h-125l-39 371h-747l-197 -371h-135zM295 479h678l-111 1043l-4 18l-8 -18zM582 1915q7 37 35 59.5t61 22.5q37 0 58 -25t14 -65q-7 -35 -35.5 -56.5t-61.5 -21.5q-37 0 -57.5 24t-13.5 62zM1135 1915q7 37 35 59.5t61 22.5q37 0 58 -25
t14 -65q-7 -35 -35 -56.5t-62 -21.5q-37 0 -57 24t-14 62z" />
    <glyph glyph-name="Agrave.ss01" 
d="M-94 0l901 1671h149l193 -1671h-125l-39 371h-747l-197 -371h-135zM295 479h678l-111 1043l-4 18l-8 -18zM496 1944l36 79l852 -151l-38 -80z" />
    <glyph glyph-name="Amacron.ss01" 
d="M-94 0l901 1671h149l193 -1671h-125l-39 371h-747l-197 -371h-135zM295 479h678l-111 1043l-4 18l-8 -18zM479 1868l17 82h903l-17 -82h-903z" />
    <glyph glyph-name="Aogonek.ss01" 
d="M-94 0l901 1671h149l193 -1671q-122 -36 -187.5 -83.5t-80.5 -115.5q-14 -66 39 -96.5t186 -30.5h24l-98 -84h-22q-124 0 -188.5 50t-43.5 149q33 149 287 211h-41l-39 371h-747l-197 -371h-135zM295 479h678l-111 1043l-4 18l-8 -18z" />
    <glyph glyph-name="Aring.ss01" 
d="M-94 0l901 1671h149l193 -1671h-125l-39 371h-747l-197 -371h-135zM295 479h678l-111 1043l-4 18l-8 -18zM778 1929q0 71 49.5 118.5t116.5 47.5t116.5 -47.5t49.5 -118.5t-49.5 -118.5t-116.5 -47.5t-116.5 47.5t-49.5 118.5zM854 1929q0 -40 24.5 -65t65.5 -25t65.5 25
t24.5 65t-24.5 65t-65.5 25t-65.5 -25t-24.5 -65z" />
    <glyph glyph-name="Atilde.ss01" 
d="M-94 0l901 1671h149l193 -1671h-125l-39 371h-747l-197 -371h-135zM295 479h678l-111 1043l-4 18l-8 -18zM514 1806q17 108 86 166t174 58q54 0 94 -16t64.5 -38.5t47.5 -45t54.5 -38.5t73.5 -16q66 0 105.5 35.5t50.5 99.5h102q-18 -111 -87.5 -167t-178.5 -56
q-57 0 -99.5 16t-67.5 38.5t-47.5 45t-52 38.5t-67.5 16q-63 0 -101.5 -38t-48.5 -98h-102z" />
    <glyph glyph-name="B.ss01" horiz-adv-x="1437" 
d="M23 0l356 1671h647q219 0 318.5 -108.5t54.5 -325.5l-6 -27q-58 -268 -295 -329q120 -42 177.5 -152t18.5 -283l-8 -38q-51 -224 -176.5 -316t-347.5 -92h-739zM170 106h551q97 0 164 12.5t124 46.5t93 96t57 157l8 43q38 180 -39 271t-266 91h-538zM346 932h502
q186 0 285 66.5t131 211.5l6 29q38 177 -25.5 251.5t-249.5 74.5h-514z" />
    <glyph glyph-name="C.ss01" horiz-adv-x="1497" 
d="M698 -20q-214 0 -360 94.5t-202 269t-11 404.5l78 358q21 94 56 175.5t93.5 158.5t135 131.5t185 87.5t238.5 33q289 0 446 -153.5t124 -426.5l-25 -123h-129l25 127q16 123 -12 215t-91 145.5t-146.5 79t-187.5 25.5q-248 0 -392 -130t-193 -355l-76 -365
q-61 -297 60 -468t384 -171q219 0 362.5 113.5t188.5 333.5l31 143h131l-29 -139q-26 -125 -81 -226.5t-139 -177.5t-202.5 -117.5t-261.5 -41.5z" />
    <glyph glyph-name="Cacute.ss01" horiz-adv-x="1497" 
d="M698 -20q-214 0 -360 94.5t-202 269t-11 404.5l78 358q21 94 56 175.5t93.5 158.5t135 131.5t185 87.5t238.5 33q289 0 446 -153.5t124 -426.5l-25 -123h-129l25 127q16 123 -12 215t-91 145.5t-146.5 79t-187.5 25.5q-248 0 -392 -130t-193 -355l-76 -365
q-61 -297 60 -468t384 -171q219 0 362.5 113.5t188.5 333.5l31 143h131l-29 -139q-26 -125 -81 -226.5t-139 -177.5t-202.5 -117.5t-261.5 -41.5zM565 1872l897 151l13 -79l-897 -152z" />
    <glyph glyph-name="Ccaron.ss01" horiz-adv-x="1497" 
d="M698 -20q-214 0 -360 94.5t-202 269t-11 404.5l78 358q21 94 56 175.5t93.5 158.5t135 131.5t185 87.5t238.5 33q289 0 446 -153.5t124 -426.5l-25 -123h-129l25 127q16 123 -12 215t-91 145.5t-146.5 79t-187.5 25.5q-248 0 -392 -130t-193 -355l-76 -365
q-61 -297 60 -468t384 -171q219 0 362.5 113.5t188.5 333.5l31 143h131l-29 -139q-26 -125 -81 -226.5t-139 -177.5t-202.5 -117.5t-261.5 -41.5zM643 2048h145l216 -188l290 188h160l-397 -254h-119z" />
    <glyph glyph-name="Ccedilla.ss01" horiz-adv-x="1497" 
d="M698 -20l-47 2l-55 -115q54 7 99.5 4t75 -33t28.5 -84q-1 -101 -97.5 -139.5t-312.5 -38.5l21 82q162 0 222 17.5t60 68.5q1 42 -44.5 52t-168.5 -3l88 197q-263 43 -383 245.5t-59 512.5l78 358q21 94 56 175.5t93.5 158.5t135 131.5t185 87.5t238.5 33
q289 0 446 -153.5t124 -426.5l-25 -123h-129l25 127q16 123 -12 215t-91 145.5t-146.5 79t-187.5 25.5q-248 0 -392 -130t-193 -355l-76 -365q-61 -297 60 -468t384 -171q219 0 362.5 113.5t188.5 333.5l31 143h131l-29 -139q-26 -125 -81 -226.5t-139 -177.5t-202.5 -117.5
t-261.5 -41.5z" />
    <glyph glyph-name="Cdotaccent.ss01" horiz-adv-x="1497" 
d="M698 -20q-214 0 -360 94.5t-202 269t-11 404.5l78 358q21 94 56 175.5t93.5 158.5t135 131.5t185 87.5t238.5 33q289 0 446 -153.5t124 -426.5l-25 -123h-129l25 127q16 123 -12 215t-91 145.5t-146.5 79t-187.5 25.5q-248 0 -392 -130t-193 -355l-76 -365
q-61 -297 60 -468t384 -171q219 0 362.5 113.5t188.5 333.5l31 143h131l-29 -139q-26 -125 -81 -226.5t-139 -177.5t-202.5 -117.5t-261.5 -41.5zM920 1892q8 39 40.5 67t75.5 28q42 0 63.5 -29t12.5 -72q-6 -35 -40 -62.5t-75 -27.5q-42 0 -63.5 28.5t-13.5 67.5z" />
    <glyph glyph-name="D.ss01" horiz-adv-x="1495" 
d="M23 0l356 1671h522q212 0 351.5 -89t190 -254t3.5 -384l-72 -334q-132 -610 -739 -610h-612zM170 106h453q275 0 421.5 130t202.5 389l68 325q63 294 -42.5 454.5t-385.5 160.5h-406z" />
    <glyph glyph-name="Eth.ss01" horiz-adv-x="1613" 
d="M141 0l172 809h-250l17 86h252l166 776h522q212 0 351.5 -89t190 -254t3.5 -384l-72 -334q-132 -610 -739 -610h-613zM289 106h452q276 0 422.5 130t202.5 389l68 325q63 294 -42.5 454.5t-385.5 160.5h-406l-143 -670h538l-16 -86h-541z" />
    <glyph glyph-name="Dcaron.ss01" horiz-adv-x="1495" 
d="M23 0l356 1671h522q212 0 351.5 -89t190 -254t3.5 -384l-72 -334q-132 -610 -739 -610h-612zM170 106h453q275 0 421.5 130t202.5 389l68 325q63 294 -42.5 454.5t-385.5 160.5h-406zM641 2048h145l215 -188l291 188h160l-397 -254h-119z" />
    <glyph glyph-name="Dcroat.ss01" horiz-adv-x="1613" 
d="M141 0l172 809h-250l17 86h252l166 776h522q212 0 351.5 -89t190 -254t3.5 -384l-72 -334q-132 -610 -739 -610h-613zM289 106h452q276 0 422.5 130t202.5 389l68 325q63 294 -42.5 454.5t-385.5 160.5h-406l-143 -670h538l-16 -86h-541z" />
    <glyph glyph-name="E.ss01" horiz-adv-x="1257" 
d="M23 0l356 1671h1001l-22 -106h-879l-143 -676h846l-23 -107h-846l-143 -676h879l-25 -106h-1001z" />
    <glyph glyph-name="Eacute.ss01" horiz-adv-x="1257" 
d="M23 0l356 1671h1001l-22 -106h-879l-143 -676h846l-23 -107h-846l-143 -676h879l-25 -106h-1001zM444 1872l897 151l13 -79l-897 -152z" />
    <glyph glyph-name="Ecaron.ss01" horiz-adv-x="1257" 
d="M23 0l356 1671h1001l-22 -106h-879l-143 -676h846l-23 -107h-846l-143 -676h879l-25 -106h-1001zM522 2048h146l215 -188l291 188h159l-397 -254h-119z" />
    <glyph glyph-name="Ecircumflex.ss01" horiz-adv-x="1257" 
d="M23 0l356 1671h1001l-22 -106h-879l-143 -676h846l-23 -107h-846l-143 -676h879l-25 -106h-1001zM465 1772l395 253h121l293 -253h-144l-215 188l-290 -188h-160z" />
    <glyph glyph-name="Edieresis.ss01" horiz-adv-x="1257" 
d="M23 0l356 1671h1001l-22 -106h-879l-143 -676h846l-23 -107h-846l-143 -676h879l-25 -106h-1001zM541 1915q7 37 35 59.5t61 22.5q37 0 58 -25t14 -65q-7 -35 -35.5 -56.5t-61.5 -21.5q-37 0 -57.5 24t-13.5 62zM1094 1915q7 37 35 59.5t61 22.5q37 0 58 -25t14 -65
q-7 -35 -35 -56.5t-62 -21.5q-37 0 -57 24t-14 62z" />
    <glyph glyph-name="Edotaccent.ss01" horiz-adv-x="1257" 
d="M23 0l356 1671h1001l-22 -106h-879l-143 -676h846l-23 -107h-846l-143 -676h879l-25 -106h-1001zM799 1892q8 39 40.5 67t75.5 28q42 0 63.5 -29t12.5 -72q-6 -35 -39.5 -62.5t-74.5 -27.5q-42 0 -64 28.5t-14 67.5z" />
    <glyph glyph-name="Egrave.ss01" horiz-adv-x="1257" 
d="M23 0l356 1671h1001l-22 -106h-879l-143 -676h846l-23 -107h-846l-143 -676h879l-25 -106h-1001zM455 1944l37 79l851 -151l-38 -80z" />
    <glyph glyph-name="Emacron.ss01" horiz-adv-x="1257" 
d="M23 0l356 1671h1001l-22 -106h-879l-143 -676h846l-23 -107h-846l-143 -676h879l-25 -106h-1001zM438 1868l17 82h903l-17 -82h-903z" />
    <glyph glyph-name="Eogonek.ss01" horiz-adv-x="1257" 
d="M23 0l356 1671h1001l-22 -106h-879l-143 -676h846l-23 -107h-846l-143 -676h879l-25 -106q-122 -36 -187.5 -83.5t-80.5 -115.5q-14 -66 39 -96.5t186 -30.5h25l-99 -84h-22q-124 0 -188.5 50t-43.5 149q33 149 287 211h-917z" />
    <glyph glyph-name="F.ss01" horiz-adv-x="1222" 
d="M23 0l356 1671h1003l-22 -106h-881l-160 -758h842l-22 -107h-842l-150 -700h-124z" />
    <glyph glyph-name="G.ss01" horiz-adv-x="1533" 
d="M690 -20q-220 0 -364.5 104.5t-193 282t-1.5 401.5l76 358q26 117 77 214t133 178.5t207.5 127.5t282.5 46q185 0 324 -70.5t209 -206t47 -313.5l-19 -84h-127l19 88q16 117 -12.5 209.5t-92.5 149.5t-153.5 86.5t-198.5 29.5q-241 0 -381.5 -124.5t-185.5 -340.5
l-78 -364q-62 -303 55 -481.5t389 -178.5q434 0 562 483l28 130h-610l20 106h742l-172 -809h-96l47 252q-184 -274 -533 -274z" />
    <glyph glyph-name="Gbreve.ss01" horiz-adv-x="1533" 
d="M690 -20q-220 0 -364.5 104.5t-193 282t-1.5 401.5l76 358q26 117 77 214t133 178.5t207.5 127.5t282.5 46q185 0 324 -70.5t209 -206t47 -313.5l-19 -84h-127l19 88q16 117 -12.5 209.5t-92.5 149.5t-153.5 86.5t-198.5 29.5q-241 0 -381.5 -124.5t-185.5 -340.5
l-78 -364q-62 -303 55 -481.5t389 -178.5q434 0 562 483l28 130h-610l20 106h742l-172 -809h-96l47 252q-184 -274 -533 -274zM641 2030h100q-5 -35 6.5 -62t36 -43.5t63 -26.5t81 -14t96.5 -4q96 0 164 12.5t117 47t63 90.5h100q-32 -132 -143 -184t-305 -52q-96 0 -167 12
t-124 38.5t-76 73t-12 112.5z" />
    <glyph glyph-name="uni0122.ss01" horiz-adv-x="1533" 
d="M690 -20q-220 0 -364.5 104.5t-193 282t-1.5 401.5l76 358q26 117 77 214t133 178.5t207.5 127.5t282.5 46q185 0 324 -70.5t209 -206t47 -313.5l-19 -84h-127l19 88q16 117 -12.5 209.5t-92.5 149.5t-153.5 86.5t-198.5 29.5q-241 0 -381.5 -124.5t-185.5 -340.5
l-78 -364q-62 -303 55 -481.5t389 -178.5q434 0 562 483l28 130h-610l20 106h742l-172 -809h-96l47 252q-184 -274 -533 -274zM469 -422l16 78q104 43 142 127q-36 -31 -68 -31t-50 23.5t-11 60.5q8 38 39.5 65t76.5 27q41 0 62 -28t8 -88q-14 -70 -67.5 -131.5
t-147.5 -102.5z" />
    <glyph glyph-name="Gdotaccent.ss01" horiz-adv-x="1533" 
d="M690 -20q-220 0 -364.5 104.5t-193 282t-1.5 401.5l76 358q26 117 77 214t133 178.5t207.5 127.5t282.5 46q185 0 324 -70.5t209 -206t47 -313.5l-19 -84h-127l19 88q16 117 -12.5 209.5t-92.5 149.5t-153.5 86.5t-198.5 29.5q-241 0 -381.5 -124.5t-185.5 -340.5
l-78 -364q-62 -303 55 -481.5t389 -178.5q434 0 562 483l28 130h-610l20 106h742l-172 -809h-96l47 252q-184 -274 -533 -274zM928 1892q8 39 40.5 67t75.5 28q42 0 63.5 -29t12.5 -72q-6 -35 -39.5 -62.5t-74.5 -27.5q-42 0 -64 28.5t-14 67.5z" />
    <glyph glyph-name="H.ss01" horiz-adv-x="1488" 
d="M1059 0l166 782h-912l-166 -782h-122l354 1671h123l-166 -782h913l166 782h123l-356 -1671h-123z" />
    <glyph glyph-name="Hbar.ss01" horiz-adv-x="1654" 
d="M1137 0l166 782h-912l-166 -782h-123l254 1200h-188l18 92h191l80 379h123l-80 -379h913l80 379h123l-80 -379h195l-21 -92h-194l-256 -1200h-123zM414 889h913l66 311h-914z" />
    <glyph glyph-name="I.ss01" horiz-adv-x="958" 
d="M-55 0l24 113h334l307 1446h-334l25 112h784l-22 -112h-334l-307 -1446h334l-25 -113h-786z" />
    <glyph glyph-name="Iacute.ss01" horiz-adv-x="958" 
d="M-55 0l24 113h334l307 1446h-334l25 112h784l-22 -112h-334l-307 -1446h334l-25 -113h-786zM289 1872l897 151l12 -79l-897 -152z" />
    <glyph glyph-name="Icircumflex.ss01" horiz-adv-x="958" 
d="M-55 0l24 113h334l307 1446h-334l25 112h784l-22 -112h-334l-307 -1446h334l-25 -113h-786zM309 1772l396 253h120l293 -253h-143l-215 188l-291 -188h-160z" />
    <glyph glyph-name="Idieresis.ss01" horiz-adv-x="958" 
d="M-55 0l24 113h334l307 1446h-334l25 112h784l-22 -112h-334l-307 -1446h334l-25 -113h-786zM383 1915q7 37 35 59.5t61 22.5q37 0 58 -25t14 -65q-7 -35 -35.5 -56.5t-60.5 -21.5q-37 0 -58 24t-14 62zM936 1915q7 37 35 59.5t61 22.5q37 0 58 -25t14 -65
q-7 -36 -34.5 -57t-61.5 -21q-37 0 -57.5 24t-14.5 62z" />
    <glyph glyph-name="Idotaccent.ss01" horiz-adv-x="958" 
d="M-55 0l24 113h334l307 1446h-334l25 112h784l-22 -112h-334l-307 -1446h334l-25 -113h-786zM643 1892q8 39 41 67t76 28q42 0 63.5 -29t12.5 -72q-6 -35 -40 -62.5t-75 -27.5q-42 0 -64 28.5t-14 67.5z" />
    <glyph glyph-name="Igrave.ss01" horiz-adv-x="958" 
d="M-55 0l24 113h334l307 1446h-334l25 112h784l-22 -112h-334l-307 -1446h334l-25 -113h-786zM299 1944l37 79l852 -151l-39 -80z" />
    <glyph glyph-name="Imacron.ss01" horiz-adv-x="958" 
d="M-55 0l24 113h334l307 1446h-334l25 112h784l-22 -112h-334l-307 -1446h334l-25 -113h-786zM283 1868l16 82h903l-16 -82h-903z" />
    <glyph glyph-name="Iogonek.ss01" horiz-adv-x="958" 
d="M-55 0l24 113h334l307 1446h-334l25 112h784l-22 -112h-334l-307 -1446h334l-25 -113q-122 -36 -187.5 -83.5t-80.5 -115.5q-14 -66 39 -96.5t186 -30.5h25l-99 -84h-22q-124 0 -188.5 50t-43.5 149q33 149 287 211h-702z" />
    <glyph glyph-name="J.ss01" horiz-adv-x="1290" 
d="M526 -20q-142 0 -246 43t-163 123t-80 189t-4 245l14 65h125l-14 -70q-30 -249 63.5 -367t304.5 -118q191 0 297.5 106t161.5 361l238 1114h127l-238 -1118q-24 -110 -52.5 -192.5t-75 -157t-107.5 -121.5t-149.5 -74.5t-201.5 -27.5z" />
    <glyph glyph-name="K.ss01" horiz-adv-x="1357" 
d="M1042 0l-575 780h-154l-166 -780h-122l354 1671h123l-166 -780h135l918 780h170l-990 -835l633 -836h-160z" />
    <glyph glyph-name="uni0136.ss01" horiz-adv-x="1357" 
d="M1042 0l-575 780h-154l-166 -780h-122l354 1671h123l-166 -780h135l918 780h170l-990 -835l633 -836h-160zM422 -422l16 78q104 43 142 127q-36 -31 -68 -31t-50 23.5t-11 60.5q8 38 39.5 65t76.5 27q41 0 62 -28t8 -88q-14 -70 -67.5 -131.5t-147.5 -102.5z" />
    <glyph glyph-name="L.ss01" horiz-adv-x="1187" 
d="M25 0l354 1671h125l-332 -1565h864l-24 -106h-987z" />
    <glyph glyph-name="Lacute.ss01" horiz-adv-x="1187" 
d="M25 0l354 1671h125l-332 -1565h864l-24 -106h-987zM535 1872l897 151l12 -79l-897 -152z" />
    <glyph glyph-name="Lcaron.ss01" horiz-adv-x="1189" 
d="M25 0l354 1671h125l-332 -1565h864l-24 -106h-987zM829 1208l185 463h108l-209 -463h-84z" />
    <glyph glyph-name="uni013B.ss01" horiz-adv-x="1187" 
d="M25 0l354 1671h125l-332 -1565h864l-24 -106h-987zM330 -422l16 78q55 23 88 52.5t53 74.5q-36 -31 -67 -31q-32 0 -50.5 23.5t-11.5 60.5q8 38 40 65t77 27q41 0 62 -28t8 -88q-14 -70 -67.5 -131.5t-147.5 -102.5z" />
    <glyph glyph-name="Lslash.ss01" horiz-adv-x="1310" 
d="M147 0l146 688l-252 -92l22 106l252 93l187 876h125l-176 -827l477 172l-27 -107l-473 -172l-133 -631h864l-24 -106h-988z" />
    <glyph glyph-name="M.ss01" horiz-adv-x="1769" 
d="M23 0l356 1671h145l256 -1487l891 1487h148l-357 -1671h-119l306 1419l-850 -1419h-109l-246 1421l-303 -1421h-118z" />
    <glyph glyph-name="N.ss01" horiz-adv-x="1529" 
d="M23 0l356 1671h121l653 -1442l307 1442h119l-356 -1671h-121l-653 1442l-308 -1442h-118z" />
    <glyph glyph-name="Nacute.ss01" horiz-adv-x="1529" 
d="M23 0l356 1671h121l653 -1442l307 1442h119l-356 -1671h-121l-653 1442l-308 -1442h-118zM573 1872l897 151l13 -79l-897 -152z" />
    <glyph glyph-name="Ncaron.ss01" horiz-adv-x="1529" 
d="M23 0l356 1671h121l653 -1442l307 1442h119l-356 -1671h-121l-653 1442l-308 -1442h-118zM651 2048h146l215 -188l291 188h159l-397 -254h-119z" />
    <glyph glyph-name="uni0145.ss01" horiz-adv-x="1529" 
d="M23 0l356 1671h121l653 -1442l307 1442h119l-356 -1671h-121l-653 1442l-308 -1442h-118zM469 -422l16 78q104 43 142 127q-36 -31 -68 -31t-50 23.5t-11 60.5q8 38 39.5 65t76.5 27q41 0 62 -28t8 -88q-14 -70 -67.5 -131.5t-147.5 -102.5z" />
    <glyph glyph-name="Ntilde.ss01" horiz-adv-x="1529" 
d="M23 0l356 1671h121l653 -1442l307 1442h119l-356 -1671h-121l-653 1442l-308 -1442h-118zM604 1806q17 108 86 166t174 58q54 0 94 -16t64.5 -38.5t47.5 -45t54.5 -38.5t73.5 -16q66 0 105.5 35.5t50.5 99.5h102q-18 -111 -87.5 -167t-178.5 -56q-57 0 -99.5 16
t-67.5 38.5t-47.5 45t-52 38.5t-67.5 16q-63 0 -101 -38t-48 -98h-103z" />
    <glyph glyph-name="O.ss01" horiz-adv-x="1550" 
d="M715 -20q-222 0 -373.5 94.5t-208.5 264t-10 386.5l76 358q21 97 56 182t93.5 165t135 137t185 91t238.5 34q162 0 290.5 -54t206 -152t106 -235t-8.5 -303l-76 -358q-21 -101 -57.5 -188t-96 -166t-136.5 -135t-184.5 -88.5t-235.5 -32.5zM250 711q-62 -284 64 -451.5
t403 -167.5q129 0 231.5 38.5t170 108.5t110.5 158t65 197l78 367q61 286 -66.5 453t-398.5 167q-243 0 -386.5 -134t-192.5 -372z" />
    <glyph glyph-name="Oacute.ss01" horiz-adv-x="1550" 
d="M715 -20q-222 0 -373.5 94.5t-208.5 264t-10 386.5l76 358q21 97 56 182t93.5 165t135 137t185 91t238.5 34q162 0 290.5 -54t206 -152t106 -235t-8.5 -303l-76 -358q-21 -101 -57.5 -188t-96 -166t-136.5 -135t-184.5 -88.5t-235.5 -32.5zM250 711q-62 -284 64 -451.5
t403 -167.5q129 0 231.5 38.5t170 108.5t110.5 158t65 197l78 367q61 286 -66.5 453t-398.5 167q-243 0 -386.5 -134t-192.5 -372zM580 1872l897 151l12 -79l-897 -152z" />
    <glyph glyph-name="Ocircumflex.ss01" horiz-adv-x="1550" 
d="M715 -20q-222 0 -373.5 94.5t-208.5 264t-10 386.5l76 358q21 97 56 182t93.5 165t135 137t185 91t238.5 34q162 0 290.5 -54t206 -152t106 -235t-8.5 -303l-76 -358q-21 -101 -57.5 -188t-96 -166t-136.5 -135t-184.5 -88.5t-235.5 -32.5zM250 711q-62 -284 64 -451.5
t403 -167.5q129 0 231.5 38.5t170 108.5t110.5 158t65 197l78 367q61 286 -66.5 453t-398.5 167q-243 0 -386.5 -134t-192.5 -372zM600 1772l395 253h121l293 -253h-143l-215 188l-291 -188h-160z" />
    <glyph glyph-name="Odieresis.ss01" horiz-adv-x="1550" 
d="M715 -20q-222 0 -373.5 94.5t-208.5 264t-10 386.5l76 358q21 97 56 182t93.5 165t135 137t185 91t238.5 34q162 0 290.5 -54t206 -152t106 -235t-8.5 -303l-76 -358q-21 -101 -57.5 -188t-96 -166t-136.5 -135t-184.5 -88.5t-235.5 -32.5zM250 711q-62 -284 64 -451.5
t403 -167.5q129 0 231.5 38.5t170 108.5t110.5 158t65 197l78 367q61 286 -66.5 453t-398.5 167q-243 0 -386.5 -134t-192.5 -372zM676 1915q7 37 35 59.5t61 22.5q37 0 58 -25t14 -65q-7 -35 -35.5 -56.5t-60.5 -21.5q-37 0 -58 24t-14 62zM1229 1915q7 37 35 59.5t61 22.5
q37 0 58 -25t14 -65q-7 -35 -35 -56.5t-62 -21.5q-37 0 -57 24t-14 62z" />
    <glyph glyph-name="Ograve.ss01" horiz-adv-x="1550" 
d="M715 -20q-222 0 -373.5 94.5t-208.5 264t-10 386.5l76 358q21 97 56 182t93.5 165t135 137t185 91t238.5 34q162 0 290.5 -54t206 -152t106 -235t-8.5 -303l-76 -358q-21 -101 -57.5 -188t-96 -166t-136.5 -135t-184.5 -88.5t-235.5 -32.5zM250 711q-62 -284 64 -451.5
t403 -167.5q129 0 231.5 38.5t170 108.5t110.5 158t65 197l78 367q61 286 -66.5 453t-398.5 167q-243 0 -386.5 -134t-192.5 -372zM592 1944l37 79l852 -151l-39 -80z" />
    <glyph glyph-name="Ohungarumlaut.ss01" horiz-adv-x="1550" 
d="M715 -20q-222 0 -373.5 94.5t-208.5 264t-10 386.5l76 358q21 97 56 182t93.5 165t135 137t185 91t238.5 34q162 0 290.5 -54t206 -152t106 -235t-8.5 -303l-76 -358q-21 -101 -57.5 -188t-96 -166t-136.5 -135t-184.5 -88.5t-235.5 -32.5zM250 711q-62 -284 64 -451.5
t403 -167.5q129 0 231.5 38.5t170 108.5t110.5 158t65 197l78 367q61 286 -66.5 453t-398.5 167q-243 0 -386.5 -134t-192.5 -372zM827 1794l269 229h129l-248 -229h-150zM1065 1794l268 229h129l-248 -229h-149z" />
    <glyph glyph-name="Omacron.ss01" horiz-adv-x="1550" 
d="M715 -20q-222 0 -373.5 94.5t-208.5 264t-10 386.5l76 358q21 97 56 182t93.5 165t135 137t185 91t238.5 34q162 0 290.5 -54t206 -152t106 -235t-8.5 -303l-76 -358q-21 -101 -57.5 -188t-96 -166t-136.5 -135t-184.5 -88.5t-235.5 -32.5zM250 711q-62 -284 64 -451.5
t403 -167.5q129 0 231.5 38.5t170 108.5t110.5 158t65 197l78 367q61 286 -66.5 453t-398.5 167q-243 0 -386.5 -134t-192.5 -372zM575 1868l17 82h903l-16 -82h-904z" />
    <glyph glyph-name="Oslash.ss01" horiz-adv-x="1550" 
d="M14 4l181 213q-137 201 -72 508l76 358q21 97 56 182t93.5 165t135 137t185 91t238.5 34q260 0 422 -131l92 108h119l-145 -172q86 -100 114 -238.5t-8 -310.5l-76 -358q-21 -101 -57.5 -188t-96 -166t-136.5 -135t-184.5 -88.5t-235.5 -32.5q-298 0 -463 165l-119 -141
h-119zM250 711q-52 -233 29 -394l974 1153q-126 111 -346 111q-243 0 -386.5 -134t-192.5 -372zM332 238q127 -146 385 -146q129 0 231.5 38.5t170 108.5t110.5 158t65 197l78 367q59 276 -57 442z" />
    <glyph glyph-name="Otilde.ss01" horiz-adv-x="1550" 
d="M715 -20q-222 0 -373.5 94.5t-208.5 264t-10 386.5l76 358q21 97 56 182t93.5 165t135 137t185 91t238.5 34q162 0 290.5 -54t206 -152t106 -235t-8.5 -303l-76 -358q-21 -101 -57.5 -188t-96 -166t-136.5 -135t-184.5 -88.5t-235.5 -32.5zM250 711q-62 -284 64 -451.5
t403 -167.5q129 0 231.5 38.5t170 108.5t110.5 158t65 197l78 367q61 286 -66.5 453t-398.5 167q-243 0 -386.5 -134t-192.5 -372zM610 1806q17 108 86 166t174 58q54 0 94 -16t64.5 -38.5t47.5 -45t54.5 -38.5t73.5 -16q66 0 105.5 35.5t50.5 99.5h102q-18 -111 -87.5 -167
t-178.5 -56q-57 0 -99.5 16t-67.5 38.5t-47.5 45t-52 38.5t-67.5 16q-63 0 -101 -38t-48 -98h-103z" />
    <glyph glyph-name="P.ss01" horiz-adv-x="1435" 
d="M23 0l356 1671h637q112 0 198.5 -29.5t139.5 -83t84 -128t32.5 -163.5t-16.5 -190l-6 -33q-22 -114 -65.5 -197.5t-115 -144t-177.5 -90.5t-248 -30h-570l-125 -582h-124zM295 688h551q219 0 326 88t147 277l6 39q17 81 18 149.5t-16.5 129t-55.5 103t-104 67t-157 24.5
h-529z" />
    <glyph glyph-name="Q.ss01" horiz-adv-x="1550" 
d="M1133 -258q-160 90 -293.5 126.5t-333.5 37.5l20 94q-245 57 -354 251.5t-49 473.5l76 358q21 97 56 182t93.5 165t135 137t185 91t238.5 34q162 0 290.5 -54t206 -152t106 -235t-8.5 -303l-76 -358q-25 -118 -72 -217.5t-120.5 -184t-184 -138t-247.5 -66.5
q204 -30 356 -117zM250 711q-62 -284 64 -451.5t403 -167.5q129 0 231.5 38.5t170 108.5t110.5 158t65 197l78 367q61 286 -66.5 453t-398.5 167q-243 0 -386.5 -134t-192.5 -372z" />
    <glyph glyph-name="R.ss01" horiz-adv-x="1447" 
d="M1083 0q-19 31 7 147l49 226q13 58 14 107t-9 85t-27 64.5t-43 47.5t-53.5 32t-62.5 19.5t-66 9.5t-67 3h-520l-158 -741h-124l356 1671h635q241 0 358.5 -131t65.5 -360l-6 -31q-34 -149 -116.5 -237t-223.5 -121q112 -48 159 -159.5t13 -264.5l-47 -220
q-25 -121 -9 -147h-125zM328 850h538q94 0 164 14t115.5 37.5t77 63.5t49 82t31.5 102l4 22q22 90 16.5 156.5t-28 112t-69 73.5t-106.5 40t-141 12h-498z" />
    <glyph glyph-name="Racute.ss01" horiz-adv-x="1447" 
d="M1083 0q-19 31 7 147l49 226q13 58 14 107t-9 85t-27 64.5t-43 47.5t-53.5 32t-62.5 19.5t-66 9.5t-67 3h-520l-158 -741h-124l356 1671h635q241 0 358.5 -131t65.5 -360l-6 -31q-34 -149 -116.5 -237t-223.5 -121q112 -48 159 -159.5t13 -264.5l-47 -220
q-25 -121 -9 -147h-125zM328 850h538q94 0 164 14t115.5 37.5t77 63.5t49 82t31.5 102l4 22q22 90 16.5 156.5t-28 112t-69 73.5t-106.5 40t-141 12h-498zM545 1872l897 151l12 -79l-897 -152z" />
    <glyph glyph-name="Rcaron.ss01" horiz-adv-x="1447" 
d="M1083 0q-19 31 7 147l49 226q13 58 14 107t-9 85t-27 64.5t-43 47.5t-53.5 32t-62.5 19.5t-66 9.5t-67 3h-520l-158 -741h-124l356 1671h635q241 0 358.5 -131t65.5 -360l-6 -31q-34 -149 -116.5 -237t-223.5 -121q112 -48 159 -159.5t13 -264.5l-47 -220
q-25 -121 -9 -147h-125zM328 850h538q94 0 164 14t115.5 37.5t77 63.5t49 82t31.5 102l4 22q22 90 16.5 156.5t-28 112t-69 73.5t-106.5 40t-141 12h-498zM625 2048h145l215 -188l291 188h160l-398 -254h-118z" />
    <glyph glyph-name="uni0156.ss01" horiz-adv-x="1447" 
d="M1083 0q-19 31 7 147l49 226q13 58 14 107t-9 85t-27 64.5t-43 47.5t-53.5 32t-62.5 19.5t-66 9.5t-67 3h-520l-158 -741h-124l356 1671h635q241 0 358.5 -131t65.5 -360l-6 -31q-34 -149 -116.5 -237t-223.5 -121q112 -48 159 -159.5t13 -264.5l-47 -220
q-25 -121 -9 -147h-125zM328 850h538q94 0 164 14t115.5 37.5t77 63.5t49 82t31.5 102l4 22q22 90 16.5 156.5t-28 112t-69 73.5t-106.5 40t-141 12h-498zM440 -422l17 78q55 23 88 52.5t53 74.5q-36 -31 -68 -31t-50 23.5t-11 60.5q8 38 40 65t77 27q41 0 61.5 -28t7.5 -88
q-14 -70 -67.5 -131.5t-147.5 -102.5z" />
    <glyph glyph-name="S.ss01" horiz-adv-x="1302" 
d="M614 -20q-308 0 -451 138.5t-108 403.5l15 74h129l-17 -82q-29 -213 77 -317.5t357 -104.5q206 0 304 78t110 254v2q4 48 -1 88.5t-14 70t-29.5 56.5t-39 44.5t-51 37t-56.5 31.5t-65 30l-186 95q-40 19 -59.5 28t-56.5 28t-55.5 32.5t-48 36t-44.5 42t-33.5 48.5
t-26.5 58.5t-12.5 67.5t-1.5 80q14 190 142.5 291t373.5 101q283 0 419 -127t103 -373l-8 -47h-129l10 51q30 203 -71 294t-326 91q-190 0 -282.5 -69.5t-104.5 -213.5v-2q-3 -41 4.5 -76.5t18.5 -61t34.5 -50.5t42 -40.5t52 -33.5t53.5 -27.5t57 -25.5l190 -96
q69 -31 105.5 -49.5t91 -59.5t80.5 -84t44 -113.5t11 -158.5q-18 -219 -150.5 -329.5t-396.5 -110.5z" />
    <glyph glyph-name="Sacute.ss01" horiz-adv-x="1302" 
d="M614 -20q-308 0 -451 138.5t-108 403.5l15 74h129l-17 -82q-29 -213 77 -317.5t357 -104.5q206 0 304 78t110 254v2q4 48 -1 88.5t-14 70t-29.5 56.5t-39 44.5t-51 37t-56.5 31.5t-65 30l-186 95q-40 19 -59.5 28t-56.5 28t-55.5 32.5t-48 36t-44.5 42t-33.5 48.5
t-26.5 58.5t-12.5 67.5t-1.5 80q14 190 142.5 291t373.5 101q283 0 419 -127t103 -373l-8 -47h-129l10 51q30 203 -71 294t-326 91q-190 0 -282.5 -69.5t-104.5 -213.5v-2q-3 -41 4.5 -76.5t18.5 -61t34.5 -50.5t42 -40.5t52 -33.5t53.5 -27.5t57 -25.5l190 -96
q69 -31 105.5 -49.5t91 -59.5t80.5 -84t44 -113.5t11 -158.5q-18 -219 -150.5 -329.5t-396.5 -110.5zM463 1872l897 151l12 -79l-897 -152z" />
    <glyph glyph-name="Scaron.ss01" horiz-adv-x="1302" 
d="M614 -20q-308 0 -451 138.5t-108 403.5l15 74h129l-17 -82q-29 -213 77 -317.5t357 -104.5q206 0 304 78t110 254v2q4 48 -1 88.5t-14 70t-29.5 56.5t-39 44.5t-51 37t-56.5 31.5t-65 30l-186 95q-40 19 -59.5 28t-56.5 28t-55.5 32.5t-48 36t-44.5 42t-33.5 48.5
t-26.5 58.5t-12.5 67.5t-1.5 80q14 190 142.5 291t373.5 101q283 0 419 -127t103 -373l-8 -47h-129l10 51q30 203 -71 294t-326 91q-190 0 -282.5 -69.5t-104.5 -213.5v-2q-3 -41 4.5 -76.5t18.5 -61t34.5 -50.5t42 -40.5t52 -33.5t53.5 -27.5t57 -25.5l190 -96
q69 -31 105.5 -49.5t91 -59.5t80.5 -84t44 -113.5t11 -158.5q-18 -219 -150.5 -329.5t-396.5 -110.5zM541 2048h145l215 -188l291 188h160l-398 -254h-118z" />
    <glyph glyph-name="Scedilla.ss01" horiz-adv-x="1302" 
d="M614 -20l-65 2l-55 -115q54 7 99 4t74.5 -33t28.5 -84q-1 -101 -97.5 -139.5t-311.5 -38.5l20 82q162 0 222.5 17.5t60.5 68.5q1 42 -44.5 52t-168.5 -3l88 197q-231 32 -336 167.5t-74 364.5l15 74h129l-17 -82q-29 -213 77 -317.5t357 -104.5q206 0 304 78t110 254v2
q4 48 -1 88.5t-14 70t-29.5 56.5t-39 44.5t-51 37t-56.5 31.5t-65 30l-186 95q-40 19 -59.5 28t-56.5 28t-55.5 32.5t-48 36t-44.5 42t-33.5 48.5t-26.5 58.5t-12.5 67.5t-1.5 80q14 190 142.5 291t373.5 101q283 0 419 -127t103 -373l-8 -47h-129l10 51q30 203 -71 294
t-326 91q-190 0 -282.5 -69.5t-104.5 -213.5v-2q-3 -41 4.5 -76.5t18.5 -61t34.5 -50.5t42 -40.5t52 -33.5t53.5 -27.5t57 -25.5l190 -96q69 -31 105.5 -49.5t91 -59.5t80.5 -84t44 -113.5t11 -158.5q-18 -219 -150.5 -329.5t-396.5 -110.5z" />
    <glyph glyph-name="uni0218.ss01" horiz-adv-x="1302" 
d="M614 -20q-308 0 -451 138.5t-108 403.5l15 74h129l-17 -82q-29 -213 77 -317.5t357 -104.5q206 0 304 78t110 254v2q4 48 -1 88.5t-14 70t-29.5 56.5t-39 44.5t-51 37t-56.5 31.5t-65 30l-186 95q-40 19 -59.5 28t-56.5 28t-55.5 32.5t-48 36t-44.5 42t-33.5 48.5
t-26.5 58.5t-12.5 67.5t-1.5 80q14 190 142.5 291t373.5 101q283 0 419 -127t103 -373l-8 -47h-129l10 51q30 203 -71 294t-326 91q-190 0 -282.5 -69.5t-104.5 -213.5v-2q-3 -41 4.5 -76.5t18.5 -61t34.5 -50.5t42 -40.5t52 -33.5t53.5 -27.5t57 -25.5l190 -96
q69 -31 105.5 -49.5t91 -59.5t80.5 -84t44 -113.5t11 -158.5q-18 -219 -150.5 -329.5t-396.5 -110.5zM358 -422l17 78q55 23 88 52.5t53 74.5q-36 -31 -67 -31q-32 0 -50.5 23.5t-11.5 60.5q8 38 40 65t77 27q41 0 61.5 -28t7.5 -88q-14 -70 -67.5 -131.5t-147.5 -102.5z
" />
    <glyph glyph-name="uni1E9E.ss01" horiz-adv-x="1339" 
d="M289 1251q47 222 177 321t378 99h575q-29 -122 -58 -218t-56 -164.5t-58.5 -119t-59 -82t-63 -52.5t-65.5 -31.5t-72 -18.5q138 -46 192.5 -161.5t12.5 -303.5l-14 -67q-25 -128 -75 -217t-125.5 -140.5t-168 -73.5t-213.5 -22h-332l23 106h280q90 0 153.5 8t122 30.5
t98 63t70 105t48.5 156.5l14 72q15 65 18 117t-13 104.5t-55 88t-115 57.5t-185 22h-244l23 106h235q86 0 141.5 6t110.5 26t91 54.5t72.5 94.5t65.5 143.5t60 204.5h-434q-79 0 -136.5 -8t-108.5 -28.5t-86 -57t-62 -93t-45 -135.5l-277 -1243h-119z" />
    <glyph glyph-name="T.ss01" horiz-adv-x="1239" 
d="M416 0l334 1565h-519l23 106h1157l-22 -106h-517l-333 -1565h-123z" />
    <glyph glyph-name="Tbar.ss01" horiz-adv-x="1263" 
d="M428 0l170 793h-408l17 86h407l148 686h-518l22 106h1157l-22 -106h-516l-148 -686h387l-16 -86h-387l-170 -793h-123z" />
    <glyph glyph-name="Tcaron.ss01" horiz-adv-x="1239" 
d="M416 0l334 1565h-519l23 106h1157l-22 -106h-517l-333 -1565h-123zM498 2048h145l215 -188l291 188h160l-398 -254h-118z" />
    <glyph glyph-name="uni0162.ss01" horiz-adv-x="1239" 
d="M416 0l334 1565h-519l23 106h1157l-22 -106h-517l-333 -1565h-25l-63 -133q54 7 99 4t74.5 -33t28.5 -84q-1 -101 -97.5 -139.5t-311.5 -38.5l20 82q162 0 222.5 17.5t60.5 68.5q1 42 -44.5 52t-168.5 -3l92 207h-10z" />
    <glyph glyph-name="uni021A.ss01" horiz-adv-x="1239" 
d="M416 0l334 1565h-519l23 106h1157l-22 -106h-517l-333 -1565h-123zM313 -422l17 78q55 23 88 52.5t53 74.5q-36 -31 -68 -31t-50 23.5t-11 60.5q8 38 40 65t77 27q41 0 61.5 -28t7.5 -88q-14 -70 -67.5 -131.5t-147.5 -102.5z" />
    <glyph glyph-name="U.ss01" horiz-adv-x="1482" 
d="M664 -20q-133 0 -235.5 27t-168 77.5t-103.5 122t-42 160.5t16 194l236 1110h127l-240 -1120q-16 -88 -16 -156t22.5 -119t58 -86.5t89.5 -57.5t117 -32t141 -10q109 0 184.5 18.5t141.5 67.5t111 140t75 231l239 1124h125l-239 -1126q-33 -151 -79.5 -254t-121.5 -174.5
t-182 -104t-256 -32.5z" />
    <glyph glyph-name="Uacute.ss01" horiz-adv-x="1482" 
d="M664 -20q-133 0 -235.5 27t-168 77.5t-103.5 122t-42 160.5t16 194l236 1110h127l-240 -1120q-16 -88 -16 -156t22.5 -119t58 -86.5t89.5 -57.5t117 -32t141 -10q109 0 184.5 18.5t141.5 67.5t111 140t75 231l239 1124h125l-239 -1126q-33 -151 -79.5 -254t-121.5 -174.5
t-182 -104t-256 -32.5zM549 1872l897 151l12 -79l-897 -152z" />
    <glyph glyph-name="Ucircumflex.ss01" horiz-adv-x="1482" 
d="M664 -20q-133 0 -235.5 27t-168 77.5t-103.5 122t-42 160.5t16 194l236 1110h127l-240 -1120q-16 -88 -16 -156t22.5 -119t58 -86.5t89.5 -57.5t117 -32t141 -10q109 0 184.5 18.5t141.5 67.5t111 140t75 231l239 1124h125l-239 -1126q-33 -151 -79.5 -254t-121.5 -174.5
t-182 -104t-256 -32.5zM569 1772l396 253h120l293 -253h-143l-215 188l-291 -188h-160z" />
    <glyph glyph-name="Udieresis.ss01" horiz-adv-x="1482" 
d="M664 -20q-133 0 -235.5 27t-168 77.5t-103.5 122t-42 160.5t16 194l236 1110h127l-240 -1120q-16 -88 -16 -156t22.5 -119t58 -86.5t89.5 -57.5t117 -32t141 -10q109 0 184.5 18.5t141.5 67.5t111 140t75 231l239 1124h125l-239 -1126q-33 -151 -79.5 -254t-121.5 -174.5
t-182 -104t-256 -32.5zM643 1915q7 37 35 59.5t61 22.5q37 0 58 -25t14 -65q-7 -35 -35.5 -56.5t-60.5 -21.5q-37 0 -58 24t-14 62zM1196 1915q7 37 35 59.5t61 22.5q37 0 58 -25t14 -65q-7 -36 -34.5 -57t-61.5 -21q-37 0 -57.5 24t-14.5 62z" />
    <glyph glyph-name="Ugrave.ss01" horiz-adv-x="1482" 
d="M664 -20q-133 0 -235.5 27t-168 77.5t-103.5 122t-42 160.5t16 194l236 1110h127l-240 -1120q-16 -88 -16 -156t22.5 -119t58 -86.5t89.5 -57.5t117 -32t141 -10q109 0 184.5 18.5t141.5 67.5t111 140t75 231l239 1124h125l-239 -1126q-33 -151 -79.5 -254t-121.5 -174.5
t-182 -104t-256 -32.5zM559 1944l37 79l852 -151l-39 -80z" />
    <glyph glyph-name="Uhungarumlaut.ss01" horiz-adv-x="1482" 
d="M664 -20q-133 0 -235.5 27t-168 77.5t-103.5 122t-42 160.5t16 194l236 1110h127l-240 -1120q-16 -88 -16 -156t22.5 -119t58 -86.5t89.5 -57.5t117 -32t141 -10q109 0 184.5 18.5t141.5 67.5t111 140t75 231l239 1124h125l-239 -1126q-33 -151 -79.5 -254t-121.5 -174.5
t-182 -104t-256 -32.5zM797 1794l268 229h129l-248 -229h-149zM1034 1794l269 229h129l-248 -229h-150z" />
    <glyph glyph-name="Umacron.ss01" horiz-adv-x="1482" 
d="M664 -20q-133 0 -235.5 27t-168 77.5t-103.5 122t-42 160.5t16 194l236 1110h127l-240 -1120q-16 -88 -16 -156t22.5 -119t58 -86.5t89.5 -57.5t117 -32t141 -10q109 0 184.5 18.5t141.5 67.5t111 140t75 231l239 1124h125l-239 -1126q-33 -151 -79.5 -254t-121.5 -174.5
t-182 -104t-256 -32.5zM543 1868l16 82h903l-16 -82h-903z" />
    <glyph glyph-name="Uogonek.ss01" horiz-adv-x="1482" 
d="M664 -20q-133 0 -235.5 27t-168 77.5t-103.5 122t-42 160.5t16 194l236 1110h127l-240 -1120q-16 -88 -16 -156t22.5 -119t58 -86.5t89.5 -57.5t117 -32t141 -10q109 0 184.5 18.5t141.5 67.5t111 140t75 231l239 1124h125l-239 -1126q-54 -252 -157.5 -382.5
t-297.5 -166.5q-114 -36 -175.5 -83t-76.5 -112q-14 -66 39 -96.5t186 -30.5h25l-98 -84h-23q-124 0 -188 50t-43 149q30 128 219 191h-49z" />
    <glyph glyph-name="Uring.ss01" horiz-adv-x="1482" 
d="M664 -20q-133 0 -235.5 27t-168 77.5t-103.5 122t-42 160.5t16 194l236 1110h127l-240 -1120q-16 -88 -16 -156t22.5 -119t58 -86.5t89.5 -57.5t117 -32t141 -10q109 0 184.5 18.5t141.5 67.5t111 140t75 231l239 1124h125l-239 -1126q-33 -151 -79.5 -254t-121.5 -174.5
t-182 -104t-256 -32.5zM842 1929q0 71 49.5 118.5t116.5 47.5t116.5 -47.5t49.5 -118.5t-49.5 -118.5t-116.5 -47.5t-116.5 47.5t-49.5 118.5zM918 1929q0 -40 24.5 -65t65.5 -25t65.5 25t24.5 65t-24.5 65t-65.5 25t-65.5 -25t-24.5 -65z" />
    <glyph glyph-name="V.ss01" horiz-adv-x="1337" 
d="M453 0l-193 1671h125l162 -1521l4 -19l8 19l809 1521h135l-901 -1671h-149z" />
    <glyph glyph-name="W.ss01" horiz-adv-x="2125" 
d="M362 0l-98 1671h127l78 -1511l725 1511h158l82 -1511l720 1511h130l-805 -1671h-150l-86 1501v17l-8 -17l-725 -1501h-148z" />
    <glyph glyph-name="Wacute.ss01" horiz-adv-x="2125" 
d="M362 0l-98 1671h127l78 -1511l725 1511h158l82 -1511l720 1511h130l-805 -1671h-150l-86 1501v17l-8 -17l-725 -1501h-148zM862 1872l897 151l13 -79l-898 -152z" />
    <glyph glyph-name="Wcircumflex.ss01" horiz-adv-x="2125" 
d="M362 0l-98 1671h127l78 -1511l725 1511h158l82 -1511l720 1511h130l-805 -1671h-150l-86 1501v17l-8 -17l-725 -1501h-148zM883 1772l395 253h121l293 -253h-144l-215 188l-291 -188h-159z" />
    <glyph glyph-name="Wdieresis.ss01" horiz-adv-x="2125" 
d="M362 0l-98 1671h127l78 -1511l725 1511h158l82 -1511l720 1511h130l-805 -1671h-150l-86 1501v17l-8 -17l-725 -1501h-148zM958 1915q7 37 35 59.5t62 22.5q36 0 57 -25t14 -65q-7 -35 -35.5 -56.5t-60.5 -21.5q-37 0 -58 24t-14 62zM1511 1915q7 37 35 59.5t62 22.5
q36 0 57 -25t14 -65q-7 -36 -34.5 -57t-61.5 -21q-37 0 -57.5 24t-14.5 62z" />
    <glyph glyph-name="Wgrave.ss01" horiz-adv-x="2125" 
d="M362 0l-98 1671h127l78 -1511l725 1511h158l82 -1511l720 1511h130l-805 -1671h-150l-86 1501v17l-8 -17l-725 -1501h-148zM874 1944l37 79l852 -151l-39 -80z" />
    <glyph glyph-name="X.ss01" horiz-adv-x="1343" 
d="M-123 0l762 852l-381 819h131l342 -713l645 713h158l-748 -821l385 -850h-135l-342 743l-661 -743h-156z" />
    <glyph glyph-name="Y.ss01" horiz-adv-x="1390" 
d="M489 0l125 586l-356 1085h129l309 -952l711 952h147l-817 -1085l-127 -586h-121z" />
    <glyph glyph-name="Yacute.ss01" horiz-adv-x="1390" 
d="M489 0l125 586l-356 1085h129l309 -952l711 952h147l-817 -1085l-127 -586h-121zM494 1872l897 151l12 -79l-897 -152z" />
    <glyph glyph-name="Ycircumflex.ss01" horiz-adv-x="1390" 
d="M489 0l125 586l-356 1085h129l309 -952l711 952h147l-817 -1085l-127 -586h-121zM514 1772l395 253h121l293 -253h-143l-215 188l-291 -188h-160z" />
    <glyph glyph-name="Ydieresis.ss01" horiz-adv-x="1390" 
d="M489 0l125 586l-356 1085h129l309 -952l711 952h147l-817 -1085l-127 -586h-121zM590 1915q7 37 35 59.5t61 22.5q37 0 58 -25t14 -65q-7 -35 -35.5 -56.5t-60.5 -21.5q-37 0 -58 24t-14 62zM1143 1915q7 37 35 59.5t61 22.5q37 0 58 -25t14 -65q-7 -35 -35 -56.5
t-62 -21.5q-37 0 -57 24t-14 62z" />
    <glyph glyph-name="Ygrave.ss01" horiz-adv-x="1390" 
d="M489 0l125 586l-356 1085h129l309 -952l711 952h147l-817 -1085l-127 -586h-121zM504 1944l37 79l852 -151l-39 -80z" />
    <glyph glyph-name="Z.ss01" horiz-adv-x="1236" 
d="M-78 0l21 106l1276 1459h-965l25 106h1107l-22 -106l-1274 -1459h965l-27 -106h-1106z" />
    <glyph glyph-name="Zacute.ss01" horiz-adv-x="1236" 
d="M-78 0l21 106l1276 1459h-965l25 106h1107l-22 -106l-1274 -1459h965l-27 -106h-1106zM426 1872l897 151l12 -79l-897 -152z" />
    <glyph glyph-name="Zcaron.ss01" horiz-adv-x="1236" 
d="M-78 0l21 106l1276 1459h-965l25 106h1107l-22 -106l-1274 -1459h965l-27 -106h-1106zM504 2048h145l215 -188l291 188h160l-397 -254h-119z" />
    <glyph glyph-name="Zdotaccent.ss01" horiz-adv-x="1236" 
d="M-78 0l21 106l1276 1459h-965l25 106h1107l-22 -106l-1274 -1459h965l-27 -106h-1106zM780 1892q8 39 41 67t76 28q42 0 63.5 -29t12.5 -72q-6 -35 -39.5 -62.5t-75.5 -27.5t-64 28.5t-14 67.5z" />
    <glyph glyph-name="W.ss02" horiz-adv-x="1527" 
d="M-29 0l379 1671h117l-315 -1395l806 1395h140l-314 -1395l809 1395h121l-971 -1671h-139l316 1399l-807 -1399h-142z" />
    <glyph glyph-name="W.ss03" horiz-adv-x="3090" 
d="M215 0h-160l375 1671h119l-344 -1532l1601 1532h158l-344 -1528l1567 1528h153l-1710 -1671h-162l344 1526z" />
    <glyph glyph-name="i.loclTRK" horiz-adv-x="425" 
d="M295 1331h121l-283 -1331h-121zM311 1597q9 40 42.5 67.5t76.5 27.5q44 0 66.5 -29.5t13.5 -73.5q-8 -35 -42 -62.5t-77 -27.5t-65.5 28.5t-14.5 69.5z" />
    <glyph glyph-name="uni006A0301" horiz-adv-x="428" 
d="M8 -20l287 1351h121l-293 -1378q-25 -117 -53.5 -188.5t-75.5 -120t-113.5 -67.5t-167.5 -19h-153l22 102h101q70 0 115.5 9t79.5 28t57 59t39 90t34 134zM141 1528l510 155l21 -75l-510 -154z" />
    <glyph glyph-name="w.ss02" horiz-adv-x="1724" 
d="M12 0l283 1331h119l-238 -1128l825 1128h144l-238 -1128l824 1128h129l-973 -1331h-144l240 1133l-827 -1133h-144z" />
    <glyph glyph-name="zero.ss01" horiz-adv-x="1415" 
d="M631 -20q-108 0 -196.5 26t-150.5 73t-104 113.5t-60.5 148t-17.5 174.5t23 196l78 360q129 621 657 621q106 0 192.5 -24.5t149 -70.5t105 -111.5t62 -147t18 -177.5t-24.5 -203l-76 -358q-21 -101 -52 -186t-84 -167.5t-122 -139.5t-171 -92t-226 -35zM246 696
q-48 -236 6 -383l932 1143q-104 129 -324 129t-350 -129.5t-186 -394.5zM303 219q105 -133 328 -133q101 0 183 28.5t138 75t99.5 116t69 141t44.5 159.5l76 365q51 240 -6 395z" />
    <glyph glyph-name="one.ss01" horiz-adv-x="1017" 
d="M-45 104h405l302 1414q-84 -91 -202 -138t-249 -47l20 111q125 0 236 55t221 172h125l-334 -1567h406l-21 -104h-932z" />
    <glyph glyph-name="two.ss01" horiz-adv-x="1347" 
d="M-18 111q17 85 36 147t50 129.5t75.5 119t108.5 102t154 91.5t206 76l217 94q85 25 152.5 56t127 74t98.5 101t55 130v4q14 59 9 106.5t-20 84t-44.5 64t-65 46t-81.5 30t-93.5 16.5t-100.5 5q-235 0 -355 -96.5t-161 -331.5l-10 -41h-123l8 43q47 275 201 403t440 128
q103 0 190 -18.5t157.5 -56t114.5 -94.5t60 -135.5t-6 -177.5q-67 -318 -512 -438l-221 -96q-118 -36 -203 -77.5t-141 -87.5t-95 -111t-61.5 -131t-44.5 -165h1035l-23 -104h-1157z" />
    <glyph glyph-name="three.ss01" horiz-adv-x="1339" 
d="M567 -20q-296 0 -425 121.5t-103 367.5l10 45h125l-12 -49q-21 -210 78 -294.5t325 -84.5q214 0 332.5 76t151.5 244l8 43q15 63 11.5 112.5t-14.5 87t-37.5 65t-57.5 46t-73.5 29.5t-85.5 15.5t-95 4.5h-228l23 102h225q54 0 94.5 2.5t95 11.5t96 28t82.5 49t69 79
t42 113l6 35q19 81 7.5 141.5t-39.5 101.5t-81 66t-117.5 36t-148.5 11q-220 0 -338 -83t-145 -283l-8 -41h-123l8 43q30 232 173.5 351.5t430.5 119.5q288 0 419 -125.5t85 -345.5l-6 -29q-30 -133 -118.5 -221t-225.5 -115q129 -43 180 -155t19 -261l-8 -39
q-86 -421 -607 -421z" />
    <glyph glyph-name="four.ss01" horiz-adv-x="1275" 
d="M1237 1671l-254 -1194h211l-23 -104h-210l-80 -373h-121l80 373h-867l21 106l1122 1192h121zM129 477h733l211 991z" />
    <glyph glyph-name="five.ss01" horiz-adv-x="1333" 
d="M743 1120q272 0 406 -148.5t80 -398.5l-27 -122q-47 -227 -196.5 -349t-407.5 -122q-272 0 -413.5 130.5t-118.5 360.5l6 31h125l-9 -37q-23 -189 88 -284t324 -95q200 0 320 92t161 285l27 123q42 202 -56.5 315t-322.5 113q-163 0 -272 -74t-205 -229h-127l256 960
h1003l-24 -104h-887l-178 -647q81 101 189.5 150.5t258.5 49.5z" />
    <glyph glyph-name="six.ss01" horiz-adv-x="1363" 
d="M625 -20q-208 0 -339 70.5t-176.5 194.5t-11.5 292l129 614q22 102 50.5 179.5t76.5 148t112 115.5t158 71.5t214 26.5q274 0 401.5 -128.5t103.5 -346.5h-124v2q12 98 -10 169.5t-74.5 114t-127 62.5t-173.5 20q-213 0 -321.5 -97.5t-156.5 -326.5l-47 -219
q147 178 449 178q129 0 232.5 -35t173 -103.5t94 -170.5t-2.5 -236l-28 -124q-23 -112 -66 -196t-113.5 -147t-176.5 -95.5t-246 -32.5zM217 510q-44 -210 63 -317t349 -107q208 0 322 90t155 287l27 125q21 114 3.5 194.5t-74.5 132t-137 75.5t-184 24q-203 0 -330 -96
t-167 -281z" />
    <glyph glyph-name="seven.ss01" horiz-adv-x="1161" 
d="M201 1567l22 104h1100l-20 -106q-122 -80 -226 -173.5t-185 -190t-150.5 -210.5t-121 -224t-97.5 -241.5t-79.5 -251.5t-66.5 -266l-2 -8h-119l2 12q28 139 58 256.5t72.5 245.5t92 237.5t117 223.5t147 213t182 196.5t222.5 182.5h-948z" />
    <glyph glyph-name="eight.ss01" horiz-adv-x="1349" 
d="M594 -20q-301 0 -442.5 127t-92.5 356l13 61q35 158 130.5 247.5t258.5 123.5q-113 38 -166 136t-23 235l15 59q36 175 172 271t368 96q274 0 411 -120t91 -312l-14 -60q-27 -129 -112 -211t-216 -112q136 -40 193 -150t22 -274l-14 -62q-43 -210 -188.5 -310.5
t-405.5 -100.5zM178 444q-38 -188 69.5 -273t346.5 -85q208 0 321.5 71.5t151.5 248.5l14 67q40 187 -62.5 270.5t-338.5 83.5q-214 0 -332.5 -73.5t-154.5 -243.5zM393 1243q-32 -152 64.5 -231.5t302.5 -79.5q376 0 436 278l12 64q32 154 -68 233.5t-309 79.5
q-186 0 -290.5 -67.5t-134.5 -212.5z" />
    <glyph glyph-name="nine.ss01" horiz-adv-x="1363" 
d="M600 -20q-274 0 -402 128.5t-104 346.5h125q-12 -98 10 -170t74.5 -114.5t126.5 -62.5t172 -20q211 0 320 97t159 327l45 215q-145 -176 -446 -176q-128 0 -230.5 34.5t-173.5 102.5t-96.5 170t2.5 238l27 125q23 110 65.5 193t112.5 147t177 97.5t249 33.5
q312 0 444.5 -152.5t79.5 -404.5l-129 -615q-21 -101 -49 -178t-75.5 -147.5t-111.5 -116t-158 -72t-214 -26.5zM305 1083q-21 -113 -4 -193.5t73 -132.5t136 -76t184 -24q198 0 328.5 94.5t169.5 282.5l27 127q44 209 -61.5 316.5t-350.5 107.5q-207 0 -321.5 -89.5
t-153.5 -287.5z" />
    <glyph glyph-name="zero.tf" 
d="M582 -18q-113 0 -200.5 31.5t-142 89t-85.5 137t-30.5 176t21.5 205.5l109 516q19 92 45.5 167t72.5 149.5t106 125t149.5 82t199.5 31.5q111 0 198 -30.5t142 -87t86.5 -136t32 -177.5t-21.5 -212l-109 -514q-20 -92 -46.5 -167.5t-73 -149.5t-106.5 -124t-149 -81
t-198 -31zM254 319l852 1147q-83 121 -279 121q-102 0 -179.5 -33.5t-130 -97.5t-85.5 -144t-55 -186l-113 -520q-36 -162 -10 -287zM297 215q81 -131 285 -131q82 0 149 22.5t114.5 62t84.5 98.5t60.5 125.5t41.5 150.5l111 522q40 187 6 307z" />
    <glyph glyph-name="one.tf" 
d="M168 102h358l299 1405q-74 -82 -176.5 -124t-220.5 -42l21 109q116 0 213.5 55t193.5 166h125l-334 -1569h357l-23 -102h-834z" />
    <glyph glyph-name="two.tf" 
d="M51 109q16 79 32.5 136t44 119t65 110t92 97.5t130.5 94t175 86.5l219 125q156 65 249 151t122 223l2 4q12 64 10.5 113.5t-21.5 86.5t-48.5 62t-70 40.5t-86 22.5t-96.5 7q-193 0 -297.5 -86.5t-144.5 -302.5l-14 -68h-125l14 70q46 251 182 371.5t387 120.5
q239 0 359 -118.5t72 -342.5q-66 -310 -445 -451l-217 -125q-85 -35 -147.5 -69.5t-110 -74t-79.5 -79t-57 -93.5t-40.5 -107t-32.5 -130h881l-21 -102h-1003z" />
    <glyph glyph-name="three.tf" 
d="M557 -20q-513 0 -448 466l14 62h125l-17 -68q-14 -103 1.5 -173.5t61 -110t108.5 -56t155 -16.5q181 0 281.5 74t136.5 243l12 64q13 61 13 111.5t-11 86t-33 62.5t-48.5 43.5t-62 26.5t-69.5 14t-74 4h-196l22 102h193q53 0 96.5 4.5t98 22t95 47t75 83t49.5 126.5
l12 49q11 67 11 118t-19 89t-45.5 63.5t-68 41t-87 22t-102.5 6.5q-89 0 -155.5 -16t-121.5 -54.5t-90 -107.5t-51 -170l-10 -55h-125l12 57q35 225 162 338t377 113q254 0 366.5 -121.5t69.5 -331.5l-10 -43q-29 -128 -112.5 -218t-209.5 -116q117 -40 160.5 -149
t13.5 -260l-12 -54q-86 -419 -543 -419z" />
    <glyph glyph-name="four.tf" 
d="M1217 1671l-256 -1198h184l-23 -102h-182l-80 -371h-121l78 371h-737l20 104l996 1196h121zM229 473h611l207 973z" />
    <glyph glyph-name="five.tf" 
d="M786 1120q216 0 322 -140.5t57 -375.5l-39 -174q-98 -450 -546 -450q-236 0 -357.5 128t-85.5 347l10 53h125l-12 -59q-32 -186 58.5 -275.5t263.5 -89.5t278 86t144 266l38 178q39 192 -35 297t-241 105q-276 0 -436 -301h-127l252 956h835l-22 -102h-719l-170 -631
q156 182 407 182z" />
    <glyph glyph-name="six.tf" 
d="M600 -20q-267 0 -384.5 139t-65.5 381l145 694q19 92 44.5 163t68.5 136t100.5 107t141 67t188.5 25q249 0 354 -126.5t70 -336.5l-7 -31h-125l7 33q64 354 -306 354q-174 0 -269.5 -90t-139.5 -299l-53 -254q136 178 399 178q109 0 195.5 -34t142.5 -98.5t75 -159
t-7 -216.5l-39 -178q-22 -107 -60.5 -186.5t-100.5 -141.5t-156 -94t-218 -32zM268 473q-42 -192 48.5 -290.5t287.5 -98.5q177 0 272.5 84t135.5 276l39 179q41 196 -49 294.5t-271 98.5q-168 0 -277.5 -93.5t-146.5 -267.5z" />
    <glyph glyph-name="seven.tf" 
d="M352 1569l23 102h971l-21 -104q-150 -117 -271 -254.5t-206.5 -276.5t-157 -313t-120.5 -336.5t-99 -374.5l-2 -12h-121l4 16q49 252 111.5 454t159 400t236 372t325.5 327h-832z" />
    <glyph glyph-name="eight.tf" 
d="M573 -20q-265 0 -382.5 119t-71.5 339l18 86q36 161 123 248.5t232 120.5q-103 36 -148.5 127t-17.5 225l18 84q79 363 485 363q242 0 357.5 -114.5t73.5 -297.5l-19 -84q-56 -255 -299 -317q121 -39 169 -142.5t13 -265.5l-18 -86q-45 -208 -173 -306.5t-360 -98.5z
M240 422q-19 -78 -10 -135.5t33 -96.5t71.5 -63t105 -34.5t133.5 -10.5q178 0 275 68.5t135 246.5l21 95q38 182 -43.5 258.5t-276.5 76.5q-181 0 -285 -70.5t-139 -240.5zM446 1225q-32 -149 45 -222t248 -73q320 0 379 272l21 90q31 150 -49.5 223.5t-255.5 73.5
q-158 0 -247.5 -65.5t-121.5 -208.5z" />
    <glyph glyph-name="nine.tf" 
d="M809 1692q267 0 385 -139.5t66 -381.5l-146 -694q-19 -92 -44.5 -162.5t-68.5 -135.5t-100.5 -107t-141 -67t-188.5 -25q-127 0 -218.5 35t-140 96.5t-67 146t1.5 184.5l7 31h125l-7 -33q-64 -354 306 -354q174 0 269.5 90t139.5 299l53 254q-136 -178 -399 -178
q-109 0 -195 34t-142 98.5t-75 159.5t7 216l38 178q18 85 45 152t70 125t101 96.5t138.5 60t180.5 21.5zM358 1049q-41 -196 49 -295t271 -99q168 0 277.5 93.5t146.5 267.5l39 182q42 192 -48.5 290.5t-287.5 98.5q-177 0 -272.5 -84t-135.5 -276z" />
    <glyph glyph-name="zero.dnom" horiz-adv-x="669" 
d="M223 -10q-143 0 -202.5 89.5t-26.5 237.5l51 248q28 131 96.5 206t198.5 75q144 0 202.5 -89.5t26.5 -238.5l-51 -248q-56 -280 -295 -280zM76 205l391 504q-35 59 -127 59q-84 0 -131 -51.5t-70 -153.5l-55 -262q-11 -51 -8 -96zM94 133q35 -65 131 -65q82 0 129.5 48.5
t69.5 153.5l55 265q11 55 8 102z" />
    <glyph glyph-name="one.dnom" horiz-adv-x="503" 
d="M-72 78h172l140 645q-72 -72 -193 -72l16 84q111 0 201 101h90l-161 -758h172l-17 -78h-436z" />
    <glyph glyph-name="two.dnom" horiz-adv-x="636" 
d="M-63 82q25 123 80.5 194t183.5 121l108 54q72 27 114 63.5t56 97.5l2 15q33 141 -139 141q-87 0 -131 -38t-61 -130l-9 -35h-94l8 33q24 126 91.5 187t195.5 61q129 0 191.5 -65.5t39.5 -174.5q-34 -158 -223 -231l-112 -53q-108 -43 -146.5 -93t-60.5 -151h426l-17 -78
h-520z" />
    <glyph glyph-name="three.dnom" horiz-adv-x="638" 
d="M197 -10q-137 0 -194 60t-42 179l6 29h94l-8 -37q-10 -86 25 -119.5t119 -33.5q82 0 124.5 31.5t59.5 103.5l8 41q19 83 -17.5 115t-109.5 32h-98l16 78h94q158 0 183 121l8 33q33 145 -137 145q-78 0 -124 -34t-59 -116l-6 -30h-94l6 28q19 119 86 174.5t191 55.5
q134 0 192.5 -64t36.5 -172l-4 -16q-11 -59 -51.5 -104.5t-102.5 -59.5q56 -24 76.5 -79.5t5.5 -127.5l-4 -20q-45 -213 -280 -213z" />
    <glyph glyph-name="four.dnom" horiz-adv-x="612" 
d="M522 836l-125 -584h86l-16 -78h-86l-37 -174h-92l37 174h-361l17 82l487 580h90zM33 252h272l92 432z" />
    <glyph glyph-name="five.dnom" horiz-adv-x="632" 
d="M295 561q118 0 175.5 -69.5t31.5 -184.5l-21 -92q-23 -109 -87.5 -167t-184.5 -58q-128 0 -192.5 64.5t-47.5 176.5l4 23h95l-9 -31q-12 -78 29.5 -116.5t120.5 -38.5q75 0 119 37.5t61 115.5l19 90q19 82 -17 125t-119 43q-62 0 -102.5 -30.5t-77.5 -94.5h-92l127 482
h451l-17 -78h-366l-72 -269q69 72 172 72z" />
    <glyph glyph-name="six.dnom" horiz-adv-x="657" 
d="M227 -10q-140 0 -201.5 71t-35.5 201l71 336q12 60 30.5 102.5t50 77t79.5 51.5t115 17q131 0 187 -63t42 -173h-94l2 2q10 79 -25 114.5t-112 35.5q-79 0 -120 -38t-60 -128l-21 -102q61 67 176 67q113 0 173.5 -67.5t35.5 -184.5l-18 -90q-22 -114 -88 -171.5
t-187 -57.5zM80 236q-19 -78 18 -123t129 -45q79 0 122.5 36.5t58.5 116.5l18 90q18 85 -18.5 127.5t-122.5 42.5q-151 0 -187 -153z" />
    <glyph glyph-name="seven.dnom" horiz-adv-x="550" 
d="M39 758l16 78h498l-16 -80q-92 -76 -160 -161t-114 -184t-75 -188t-59 -213l-2 -10h-92l2 14q47 242 137 421t264 323h-399z" />
    <glyph glyph-name="eight.dnom" horiz-adv-x="643" 
d="M209 -10q-140 0 -202.5 62t-37.5 175l6 33q18 83 62.5 127.5t114.5 58.5q-52 18 -76 65.5t-6 117.5l6 30q39 187 254 187q129 0 191 -59.5t40 -155.5l-8 -31q-27 -131 -152 -160q59 -19 83.5 -72.5t4.5 -138.5l-6 -32q-23 -107 -88.5 -157t-185.5 -50zM59 213
q-15 -77 22 -112t126 -35q80 0 124 30t58 105l12 55q17 79 -19.5 112t-123.5 33q-81 0 -126 -31t-60 -102zM158 606q-13 -65 21 -96t112 -31q143 0 168 117l10 47q12 63 -22.5 95t-114.5 32q-71 0 -111 -28t-53 -91z" />
    <glyph glyph-name="nine.dnom" horiz-adv-x="657" 
d="M326 846q140 0 200.5 -72t34.5 -201l-72 -335q-25 -125 -85.5 -186.5t-188.5 -61.5q-127 0 -185.5 60.5t-43.5 174.5h94v-2q-12 -79 23 -114t114 -35t119 38t59 128l21 102q-62 -68 -174 -68q-116 0 -175.5 68t-35.5 184l18 90q23 112 87.5 171t189.5 59zM125 524
q-18 -85 19.5 -127.5t121.5 -42.5q155 0 187 154l20 92q19 87 -22 127.5t-129 40.5q-76 0 -119 -36.5t-60 -117.5z" />
    <glyph glyph-name="zero.numr" horiz-adv-x="669" 
d="M406 850q-143 0 -203 90t-27 238l51 247q28 131 96.5 206t198.5 75q144 0 203 -89.5t27 -238.5l-52 -248q-56 -280 -294 -280zM258 1065l391 504q-35 59 -127 59q-84 0 -130.5 -51.5t-69.5 -153.5l-56 -262q-11 -51 -8 -96zM276 993q35 -65 132 -65q81 0 128.5 48.5
t69.5 153.5l56 265q11 55 8 102z" />
    <glyph glyph-name="one.numr" horiz-adv-x="503" 
d="M106 913h173l139 646q-72 -72 -193 -72l17 84q111 0 200 100h90l-161 -758h172l-17 -77h-436z" />
    <glyph glyph-name="two.numr" horiz-adv-x="638" 
d="M121 942q25 123 80.5 194t183.5 121l109 54q72 27 114 64t56 98l2 14q18 75 -21.5 108t-118.5 33q-87 0 -131 -38t-61 -130l-8 -35h-95l9 33q24 126 91 187t195 61q129 0 192 -65.5t40 -174.5q-34 -158 -223 -231l-113 -53q-108 -43 -146.5 -93t-60.5 -151h426l-16 -78
h-521z" />
    <glyph glyph-name="three.numr" horiz-adv-x="638" 
d="M377 834q-137 0 -194 60t-42 179l6 29h95l-9 -37q-10 -86 25.5 -120t118.5 -34q81 0 124 32t60 104l8 40q19 83 -17.5 115.5t-109.5 32.5h-98l16 78h95q157 0 182 121l8 32q33 146 -137 146q-78 0 -123.5 -34t-58.5 -116l-7 -30h-94l6 28q19 119 86 174.5t191 55.5
q134 0 192.5 -64t36.5 -172l-4 -16q-11 -60 -51 -105t-102 -59q56 -24 76.5 -79.5t5.5 -127.5l-5 -20q-45 -213 -280 -213z" />
    <glyph glyph-name="four.numr" horiz-adv-x="612" 
d="M707 1696l-125 -584h86l-17 -78h-86l-37 -174h-92l37 174h-360l16 82l487 580h91zM217 1112h272l93 432z" />
    <glyph glyph-name="five.numr" horiz-adv-x="632" 
d="M473 1397q118 0 175.5 -69.5t31.5 -184.5l-21 -92q-23 -109 -87.5 -167.5t-184.5 -58.5q-128 0 -192.5 65t-47.5 177l5 23h94l-8 -31q-12 -79 29 -117.5t120 -38.5q146 0 180 154l19 90q19 82 -16.5 125t-118.5 43q-62 0 -103 -31t-78 -94h-92l127 481h451l-17 -78h-366
l-72 -268q69 72 172 72z" />
    <glyph glyph-name="six.numr" horiz-adv-x="655" 
d="M410 850q-141 0 -202.5 71.5t-35.5 200.5l72 336q12 60 30.5 102.5t49.5 77t79 51.5t115 17q131 0 187.5 -63t42.5 -173h-95l2 3q10 79 -25 114t-112 35q-79 0 -120 -38t-60 -128l-21 -102q61 67 177 67q113 0 173 -67t35 -185l-18 -90q-22 -114 -87.5 -171.5
t-186.5 -57.5zM262 1096q-19 -78 18.5 -123t129.5 -45q79 0 122 36.5t58 116.5l18 90q18 85 -18.5 127.5t-122.5 42.5q-150 0 -186 -153z" />
    <glyph glyph-name="seven.numr" horiz-adv-x="550" 
d="M217 1593l16 78h498l-16 -80q-92 -76 -160 -161t-114 -183.5t-75 -187.5t-59 -213l-2 -10h-92l2 14q47 242 137 420.5t264 322.5h-399z" />
    <glyph glyph-name="eight.numr" horiz-adv-x="645" 
d="M391 850q-140 0 -202 62t-37 175l6 33q35 159 176 187q-53 18 -76.5 65t-5.5 117l6 31q38 186 254 186q129 0 191 -59.5t40 -155.5l-8 -31q-27 -131 -151 -160q59 -20 83.5 -72.5t4.5 -137.5l-6 -33q-23 -107 -89 -157t-186 -50zM242 1073q-15 -77 21.5 -112t125.5 -35
q80 0 124 30t58 105l13 55q17 79 -20 112.5t-124 33.5q-80 0 -125.5 -31t-60.5 -103zM340 1466q-13 -65 21 -96t112 -31q143 0 168 117l10 47q12 63 -22.5 95t-114.5 32q-71 0 -111 -28t-53 -91z" />
    <glyph glyph-name="nine.numr" horiz-adv-x="655" 
d="M508 1706q140 0 200.5 -71.5t34.5 -200.5l-71 -336q-25 -125 -86 -186.5t-189 -61.5q-127 0 -185.5 60.5t-43.5 174.5h94v-2q-12 -79 23 -114t114 -35t119.5 38t59.5 128l20 102q-61 -67 -174 -67q-117 0 -176 67.5t-35 183.5l18 91q23 112 87.5 170.5t189.5 58.5z
M307 1384q-18 -85 20 -127.5t122 -42.5q154 0 186 154l20 92q19 87 -22 127.5t-129 40.5q-76 0 -118.5 -36t-59.5 -117z" />
    <glyph glyph-name="exclamdown.case" horiz-adv-x="462" 
d="M152 0h-119l250 1159h114zM311 1587q9 45 47.5 75t85.5 30q48 0 74 -33t14 -86q-10 -47 -48 -77t-85 -30q-48 0 -74.5 33t-13.5 88z" />
    <glyph glyph-name="questiondown.case" horiz-adv-x="999" 
d="M387 -53q-195 0 -297 91.5t-102 254.5q0 81 27.5 149t72.5 119t100.5 97.5t115 95.5t111.5 102t94 128.5t60 164.5l6 33h117l-6 -35q-19 -94 -61 -174.5t-94 -138t-111 -109t-114 -98.5t-100 -95t-72.5 -108.5t-27.5 -130.5q-1 -122 74.5 -184t210.5 -62q93 0 162 27.5
t112 79.5t66.5 116.5t34.5 149.5l12 67h121l-14 -71q-60 -469 -498 -469zM582 1554q9 45 47.5 75t85.5 30q48 0 74 -33t14 -86q-10 -47 -47.5 -76.5t-85.5 -29.5t-74.5 32.5t-13.5 87.5z" />
    <glyph glyph-name="hyphen.case" horiz-adv-x="1347" 
d="M121 842h1175l-16 -86h-1176z" />
    <glyph glyph-name="endash.case" horiz-adv-x="1597" 
d="M121 844h1425l-14 -86h-1426z" />
    <glyph glyph-name="emdash.case" horiz-adv-x="2629" 
d="M123 844h2457l-20 -88h-2458z" />
    </font>
</defs>
</svg>
