<?xml version="1.0" standalone="no"?>
<!DOCTYPE svg PUBLIC "-//W3C//DTD SVG 1.1//EN" "http://www.w3.org/Graphics/SVG/1.1/DTD/svg11.dtd" >
<svg xmlns="http://www.w3.org/2000/svg" xmlns:xlink="http://www.w3.org/1999/xlink" version="1.1">
<metadata>
Created by FontForge 20170731 at Thu Oct  5 16:22:21 2023
 By Aleksey,,,
Copyright (c) 2021 by Mathieu Desjardins. All rights reserved.
</metadata>
<defs>
<font id="PPFormula-NarrowSemibold" horiz-adv-x="1128" >
  <font-face 
    font-family="PP Formula Narrow Semibold"
    font-weight="600"
    font-stretch="condensed"
    units-per-em="2048"
    panose-1="0 0 0 0 0 0 0 0 0 0"
    ascent="1638"
    descent="-410"
    x-height="1331"
    cap-height="1655"
    bbox="-311 -438 3162 2079"
    underline-thickness="81"
    underline-position="-285"
    unicode-range="U+0020-FB02"
  />
<missing-glyph horiz-adv-x="1044" 
d="M856 1659v-2089h-661v2089h661zM348 -287h348v70h-213l146 98h67v70h-348v-70h148l-148 -98v-70zM348 -2h348v235h-348v-235zM348 360h348v236h-209v-117h70v47h70v-98h-209v168h-70v-236zM348 641h348v209h-69v-137h-279v-72zM348 760h209v147h139v68h-348v-68h139v-78
h-139v-69zM348 1032h348v72h-139v145h-209v-217zM348 1305h348v67h-139v78h139v70h-346v-70h137v-78h-139v-67zM418 68v98h209v-98h-209zM418 1104v74h69v-74h-69z" />
    <glyph glyph-name="fi" unicode="fi" horiz-adv-x="1191" 
d="M16 1331h199v37q0 55 6.5 97t25.5 83t51 67.5t86 43t128 16.5q111 0 221 -20v-178q-50 6 -123 6q-92 0 -123.5 -29t-31.5 -100v-82q25 28 71.5 41.5t86 15.5t120.5 2v-207h-278v-1124h-240v1124h-199v207zM821 1554q0 56 39.5 88.5t114.5 32.5q74 0 112.5 -32.5
t38.5 -88.5q0 -52 -38.5 -84t-112.5 -32t-114 32t-40 84zM854 0v1331h240v-1331h-240z" />
    <glyph glyph-name="fl" unicode="fl" horiz-adv-x="1198" 
d="M16 1331h199v37q0 55 6.5 97t25.5 83t51 67.5t86 43t128 16.5q111 0 221 -20v-178q-50 6 -123 6q-92 0 -123.5 -29t-31.5 -100v-82q25 28 71.5 41.5t86 15.5t120.5 2v-207h-278v-1124h-240v1124h-199v207zM862 0v1655h240v-1655h-240z" />
    <glyph glyph-name=".notdef" horiz-adv-x="1044" 
d="M856 1659v-2089h-661v2089h661zM348 -287h348v70h-213l146 98h67v70h-348v-70h148l-148 -98v-70zM348 -2h348v235h-348v-235zM348 360h348v236h-209v-117h70v47h70v-98h-209v168h-70v-236zM348 641h348v209h-69v-137h-279v-72zM348 760h209v147h139v68h-348v-68h139v-78
h-139v-69zM348 1032h348v72h-139v145h-209v-217zM348 1305h348v67h-139v78h139v70h-346v-70h137v-78h-139v-67zM418 68v98h209v-98h-209zM418 1104v74h69v-74h-69z" />
    <glyph glyph-name=".null" horiz-adv-x="0" 
 />
    <glyph glyph-name="nonmarkingreturn" horiz-adv-x="682" 
 />
    <glyph glyph-name="space" unicode=" " horiz-adv-x="456" 
 />
    <glyph glyph-name="exclam" unicode="!" horiz-adv-x="458" 
d="M111 1655h239l-16 -1143h-211zM78 129q0 69 43.5 111.5t107.5 42.5q65 0 108.5 -42.5t43.5 -111.5q0 -66 -44 -107.5t-108 -41.5t-107.5 41.5t-43.5 107.5z" />
    <glyph glyph-name="quotedbl" unicode="&#x22;" horiz-adv-x="505" 
d="M78 1655h137v-512h-137v512zM291 1143v512h137v-512h-137z" />
    <glyph glyph-name="numbersign" unicode="#" horiz-adv-x="1665" 
d="M223 1133h436l236 522h109l-236 -522h387l236 522h108l-235 -522h350v-95h-393l-199 -438h414v-94h-455l-229 -506h-109l229 506h-387l-229 -506h-109l230 506h-332v94h373l198 438h-393v95zM526 600h387l199 438h-387z" />
    <glyph glyph-name="dollar" unicode="$" horiz-adv-x="1026" 
d="M461 -143v125q-404 27 -404 448v133h232v-135q0 -113 43.5 -169.5t128.5 -70.5v570l-119 67q-91 49 -146.5 103.5t-88.5 140t-33 203.5q0 187 98 288.5t289 112.5v125h108v-125q184 -14 282.5 -114.5t98.5 -282.5v-123h-227v94q0 192 -154 219v-510l109 -63
q59 -33 98.5 -60.5t78 -68t61 -87t36 -112.5t13.5 -149q0 -214 -95 -319.5t-301 -114.5v-125h-108zM303 1255q0 -90 37.5 -139.5t120.5 -95.5v448q-78 -8 -118 -50.5t-40 -131.5v-31zM569 186q85 8 124.5 56.5t39.5 150.5v39q0 107 -37 160.5t-127 101.5v-508z" />
    <glyph glyph-name="percent" unicode="%" horiz-adv-x="1423" 
d="M301 0l707 1655h110l-704 -1655h-113zM33 1323q0 67 18 128t53.5 112t96.5 81.5t141 30.5q79 0 140 -30.5t96.5 -81.5t53 -112t17.5 -128q0 -68 -17.5 -129t-53 -112.5t-96.5 -82t-140 -30.5q-80 0 -141 30.5t-97 82t-53.5 112.5t-17.5 129zM211 1323q0 -186 131 -186
q129 0 129 186q0 184 -129 184q-131 0 -131 -184zM774 332q0 68 17.5 129t53.5 112.5t97 82t141 30.5q79 0 140 -30.5t96.5 -82t53.5 -112.5t18 -129q0 -67 -18 -128t-53.5 -112t-96.5 -81.5t-140 -30.5q-80 0 -141 30.5t-96.5 81.5t-53.5 112t-18 128zM952 332
q0 -185 131 -185q129 0 129 185q0 186 -129 186q-131 0 -131 -186z" />
    <glyph glyph-name="ampersand" unicode="&#x26;" horiz-adv-x="1126" 
d="M520 -20q-228 0 -335 118.5t-107 331.5v53q0 145 58.5 240t160.5 125q-100 30 -157.5 121t-57.5 237v49q0 50 9.5 100.5t39.5 110t77 104.5t130.5 75t191.5 30q213 0 320.5 -111.5t107.5 -328.5v-66h-245v93q0 116 -45.5 164.5t-141.5 48.5q-100 0 -146 -49.5t-46 -155.5
v-129q0 -114 51 -158.5t145 -44.5h183v117h245v-117h111v-193h-111v-325q0 -440 -438 -440zM328 391q0 -110 47.5 -161.5t148.5 -51.5q97 0 143 49t46 164v354h-187q-92 0 -145 -45.5t-53 -156.5v-152z" />
    <glyph glyph-name="quotesingle" unicode="'" horiz-adv-x="292" 
d="M78 1655h137v-512h-137v512z" />
    <glyph glyph-name="parenleft" unicode="(" horiz-adv-x="530" 
d="M418 -303q-187 250 -272 491.5t-85 524.5q0 285 84.5 522.5t272.5 490.5h112q-197 -272 -281.5 -500.5t-84.5 -512.5q0 -285 83.5 -513t282.5 -503h-112z" />
    <glyph glyph-name="parenright" unicode=")" horiz-adv-x="530" 
d="M113 1731q187 -250 271.5 -491.5t84.5 -524.5q0 -285 -84.5 -523.5t-271.5 -490.5h-113q197 272 282 501t85 513q0 285 -84 513t-283 503h113z" />
    <glyph glyph-name="asterisk" unicode="*" horiz-adv-x="663" 
d="M291 1671h82v-239l190 100l41 -70l-186 -98l186 -98l-41 -70l-190 100v-239h-82v239l-191 -100l-41 70l187 98l-187 98l41 70l191 -100v239z" />
    <glyph glyph-name="plus" unicode="+" horiz-adv-x="1134" 
d="M63 776v92h457v424h96v-424h455v-92h-455v-424h-96v424h-457z" />
    <glyph glyph-name="comma" unicode="," horiz-adv-x="413" 
d="M88 -123q65 16 120.5 59t74.5 101q-39 -57 -103 -57q-56 0 -92.5 38.5t-36.5 110.5q0 69 43.5 111.5t112.5 42.5q72 0 112.5 -50t40.5 -133q0 -108 -74.5 -200.5t-197.5 -155.5v133z" />
    <glyph glyph-name="hyphen" unicode="-" horiz-adv-x="1112" 
d="M53 719h1008v-86h-1008v86z" />
    <glyph glyph-name="period" unicode="." horiz-adv-x="409" 
d="M205 -20q-64 0 -108 41.5t-44 107.5q0 69 43.5 111.5t108.5 42.5q64 0 107.5 -42.5t43.5 -111.5q0 -66 -43.5 -107.5t-107.5 -41.5z" />
    <glyph glyph-name="slash" unicode="/" horiz-adv-x="907" 
d="M881 1655l-748 -1655h-106l747 1655h107z" />
    <glyph glyph-name="zero" unicode="0" horiz-adv-x="1116" 
d="M559 -20q-235 0 -354 140.5t-119 405.5v607q0 264 119 403t354 139q234 0 351.5 -139.5t117.5 -405.5v-606q0 -264 -118 -404t-351 -140zM340 537l422 772q-36 161 -203 161q-110 0 -164.5 -66.5t-54.5 -211.5v-655zM356 326q45 -142 203 -142q108 0 161.5 67t53.5 214
v627z" />
    <glyph glyph-name="one" unicode="1" horiz-adv-x="886" 
d="M68 207h276v1157q-91 -113 -281 -113v224q208 0 306 180h223v-1448h276v-207h-800v207z" />
    <glyph glyph-name="two" unicode="2" horiz-adv-x="1069" 
d="M74 229q0 209 71.5 335t241.5 227l160 112q69 42 109.5 80.5t67 102t26.5 151.5v33q0 110 -50 155t-151 45q-108 0 -159.5 -51t-51.5 -176v-121h-254v92q0 225 117 343t348 118q221 0 338 -114.5t117 -337.5q0 -76 -17 -144t-44.5 -119.5t-66 -96t-77.5 -75t-84 -55.5
l-168 -119q-93 -55 -139 -107.5t-63 -119.5t-17 -180h669v-207h-923v229z" />
    <glyph glyph-name="three" unicode="3" horiz-adv-x="1071" 
d="M532 -20q-235 0 -350 109t-116 341v82h249v-111q1 -123 53 -170t158 -47q112 0 162.5 48t50.5 159v144q0 63 -15.5 106t-45.5 65t-64 30.5t-79 8.5h-170v207h167q201 0 201 191v127q0 111 -52.5 155.5t-152.5 44.5q-48 0 -83 -9t-63 -32t-42.5 -65t-15.5 -104v-97h-250
v70q1 224 114.5 333t341.5 109q105 0 187 -27.5t131 -70t80.5 -100.5t43 -112.5t11.5 -111.5v-51q0 -132 -54.5 -219t-156.5 -123q217 -77 217 -375v-57q0 -448 -457 -448z" />
    <glyph glyph-name="four" unicode="4" horiz-adv-x="1040" 
d="M860 1655v-1131h129v-207h-129v-317h-248v317h-571v230l584 1108h235zM229 524h383v727z" />
    <glyph glyph-name="five" unicode="5" horiz-adv-x="1071" 
d="M631 1108q170 0 271.5 -107t101.5 -329v-178q0 -514 -465 -514q-223 0 -343 120t-120 351v59h254v-104q0 -222 211 -222q103 0 156 54t53 172v256q0 231 -195 231q-167 0 -219 -195h-248l47 953h797v-207h-570l-32 -506q96 166 301 166z" />
    <glyph glyph-name="six" unicode="6" horiz-adv-x="1095" 
d="M557 -20q-236 0 -351.5 126.5t-115.5 387.5v608q0 288 114.5 430.5t360.5 142.5q219 0 321.5 -113.5t102.5 -316.5v-35h-250v33q-2 104 -44.5 153.5t-135.5 49.5q-108 0 -161.5 -58.5t-53.5 -183.5v-235q103 143 299 143q181 0 279 -115.5t98 -334.5v-197
q0 -237 -118.5 -361t-344.5 -124zM344 414q0 -124 52.5 -177t158.5 -53q108 0 159.5 55.5t51.5 174.5v258q0 113 -49.5 169t-153.5 56q-106 0 -162.5 -57.5t-56.5 -163.5v-262z" />
    <glyph glyph-name="seven" unicode="7" horiz-adv-x="925" 
d="M23 1446v209h864v-209q-103 -130 -177.5 -270t-118.5 -269.5t-69.5 -280t-34 -281.5t-8.5 -294v-51h-248v49q0 200 17.5 367.5t62 347t131.5 351t215 331.5h-634z" />
    <glyph glyph-name="eight" unicode="8" horiz-adv-x="1085" 
d="M543 -20q-234 0 -349.5 105t-115.5 318v86q0 170 68.5 265.5t177.5 122.5q-103 25 -165.5 106.5t-62.5 226.5v74q0 186 114 288.5t335 102.5q219 0 331.5 -102.5t112.5 -288.5v-74q0 -144 -62 -226t-163 -107q109 -27 176.5 -122t67.5 -266v-88q0 -212 -115 -316.5
t-350 -104.5zM332 385q0 -115 51.5 -160t159.5 -45t159.5 45t51.5 160v176q0 112 -52 157.5t-159 45.5q-106 0 -158.5 -45.5t-52.5 -157.5v-176zM348 1153q0 -95 49 -137.5t146 -42.5q194 0 194 180v139q0 95 -48 139t-146 44t-146.5 -44t-48.5 -139v-139z" />
    <glyph glyph-name="nine" unicode="9" horiz-adv-x="1095" 
d="M539 1675q236 0 351.5 -126.5t115.5 -387.5v-608q0 -288 -115 -430.5t-361 -142.5q-219 0 -321.5 113.5t-102.5 316.5v34h250v-32q2 -104 45 -153.5t136 -49.5q108 0 161.5 58.5t53.5 183.5v235q-103 -143 -299 -143q-181 0 -279 115.5t-98 334.5v197q0 237 118.5 361
t344.5 124zM330 983q0 -113 49.5 -169t152.5 -56q106 0 163 57.5t57 163.5v262q0 124 -52.5 176.5t-158.5 52.5q-108 0 -159.5 -55t-51.5 -174v-258z" />
    <glyph glyph-name="colon" unicode=":" horiz-adv-x="466" 
d="M233 840q-64 0 -107.5 41.5t-43.5 107.5q0 69 43.5 111.5t107.5 42.5q65 0 108.5 -42.5t43.5 -111.5q0 -66 -44 -107.5t-108 -41.5zM82 129q0 69 43.5 111.5t107.5 42.5q65 0 108.5 -42.5t43.5 -111.5q0 -66 -44 -107.5t-108 -41.5t-107.5 41.5t-43.5 107.5z" />
    <glyph glyph-name="semicolon" unicode=";" horiz-adv-x="466" 
d="M236 840q-64 0 -108 41.5t-44 107.5q0 69 43.5 111.5t108.5 42.5q64 0 107.5 -42.5t43.5 -111.5q0 -66 -43.5 -107.5t-107.5 -41.5zM78 129q0 69 43 111.5t112 42.5q72 0 113 -50t41 -133q0 -108 -74.5 -200.5t-197.5 -155.5v133q65 16 120 59t74 101q-39 -57 -102 -57
q-56 0 -92.5 38.5t-36.5 110.5z" />
    <glyph glyph-name="less" unicode="&#x3c;" horiz-adv-x="1107" 
d="M55 862l963 326v-103l-811 -264l811 -264v-102l-963 325v82z" />
    <glyph glyph-name="equal" unicode="=" horiz-adv-x="1167" 
d="M80 979h1007v-86h-1007v86zM80 664v86h1007v-86h-1007z" />
    <glyph glyph-name="greater" unicode="&#x3e;" horiz-adv-x="1107" 
d="M1053 780l-963 -325v102l811 264l-811 264v103l963 -326v-82z" />
    <glyph glyph-name="question" unicode="?" horiz-adv-x="931" 
d="M469 1675q212 0 318 -108t106 -285q0 -72 -18.5 -134t-48 -107t-65.5 -87.5t-72 -85.5t-65.5 -90t-48 -112t-18.5 -142v-26h-215v34q0 102 22.5 186.5t55.5 137t72.5 105.5t72.5 95t55.5 102.5t22.5 129.5q0 97 -43.5 142t-132.5 45q-96 0 -139 -55t-43 -165v-102h-250
v61q0 215 107.5 338t326.5 123zM299 129q0 69 43.5 111.5t108.5 42.5q64 0 107.5 -42.5t43.5 -111.5q0 -66 -43.5 -107.5t-107.5 -41.5t-108 41.5t-44 107.5z" />
    <glyph glyph-name="at" unicode="@" horiz-adv-x="1384" 
d="M776 -104q-336 0 -524.5 200.5t-188.5 591.5q0 197 51.5 351t142 248.5t207.5 143t255 48.5q142 0 249.5 -42.5t187.5 -134.5t121.5 -246.5t41.5 -367.5q0 -244 -56 -367.5t-188 -123.5q-148 0 -198 147q-73 -156 -232 -156q-147 0 -235 130t-88 358q0 227 88 358
t233 131q140 0 215 -129v115h162v-682q0 -98 17.5 -143t58.5 -45q121 0 121 409q0 195 -33 332t-98.5 218t-154 117t-208.5 36q-116 0 -215 -42t-176.5 -125t-121.5 -221t-44 -317t43.5 -314.5t124.5 -220.5t191.5 -127t250.5 -42q214 0 375 67v-86q-167 -69 -375 -69z
M483 676q0 -344 199 -344q98 0 137 83.5t39 260.5q0 176 -40 260t-138 84q-197 0 -197 -344z" />
    <glyph glyph-name="A" unicode="A" horiz-adv-x="1032" 
d="M18 0l326 1655h344l326 -1655h-254l-53 307h-381l-52 -307h-256zM362 518h310l-150 873l-6 26l-6 -24z" />
    <glyph glyph-name="B" unicode="B" horiz-adv-x="1095" 
d="M104 0v1655h484q217 0 318.5 -101t101.5 -301v-47q0 -250 -201 -329q229 -80 229 -373v-49q0 -237 -101 -346t-335 -109h-496zM354 211h215q125 0 169 43.5t44 167.5v121q0 116 -50.5 165.5t-162.5 49.5h-215v-547zM354 969h205q95 0 144 40t49 150v103q0 59 -11 95
t-37 55t-58 25.5t-85 6.5h-207v-475z" />
    <glyph glyph-name="C" unicode="C" horiz-adv-x="1112" 
d="M565 -20q-244 0 -366.5 143t-122.5 403v604q0 259 123 402t366 143q233 0 355 -133.5t127 -374.5v-188h-254l-2 248q-6 241 -226 241q-235 0 -235 -278v-725q0 -279 235 -279q220 0 226 242l2 250h254v-189q-5 -241 -127 -375t-355 -134z" />
    <glyph glyph-name="D" unicode="D" horiz-adv-x="1124" 
d="M104 0v1655h428q135 0 228.5 -25.5t159.5 -85.5t96.5 -161t30.5 -250v-611q0 -148 -30.5 -248.5t-96.5 -161t-159.5 -86.5t-228.5 -26h-428zM354 197h181q142 0 199 61.5t57 226.5v684q0 165 -58 227t-201 62h-178v-1261z" />
    <glyph glyph-name="E" unicode="E" horiz-adv-x="931" 
d="M104 0v1655h762v-211h-512v-512h484v-209h-484v-512h512v-211h-762z" />
    <glyph glyph-name="F" unicode="F" horiz-adv-x="913" 
d="M104 0v1655h768v-211h-518v-590h498v-209h-498v-645h-250z" />
    <glyph glyph-name="G" unicode="G" horiz-adv-x="1130" 
d="M532 -20q-217 0 -336.5 143t-119.5 391v616q0 258 122.5 401.5t364.5 143.5q231 0 353.5 -131.5t127.5 -369.5v-160h-253l-3 219q-5 235 -223 235q-120 0 -177.5 -68t-57.5 -208v-727q0 -140 56 -209.5t175 -69.5q112 0 167 61t60 189v219h-258v195h514v-850h-129
l-30 158q-121 -178 -353 -178z" />
    <glyph glyph-name="H" unicode="H" 
d="M774 0v723h-420v-723h-250v1655h250v-723h420v723h250v-1655h-250z" />
    <glyph glyph-name="I" unicode="I" horiz-adv-x="628" 
d="M82 0v223h106v1209h-106v223h463v-223h-107v-1209h107v-223h-463z" />
    <glyph glyph-name="J" unicode="J" horiz-adv-x="1032" 
d="M487 -20q-229 0 -339.5 129t-110.5 387v102h256v-164q0 -136 46 -192t148 -56q100 0 147.5 55.5t47.5 188.5v1225h254v-1166q0 -254 -110 -381.5t-339 -127.5z" />
    <glyph glyph-name="K" unicode="K" horiz-adv-x="1050" 
d="M768 0l-356 715h-58v-715h-250v1655h250v-715h58l356 715h276l-434 -828l434 -827h-276z" />
    <glyph glyph-name="L" unicode="L" horiz-adv-x="894" 
d="M104 0v1655h250v-1444h514v-211h-764z" />
    <glyph glyph-name="M" unicode="M" horiz-adv-x="1343" 
d="M104 0v1655h293l275 -1133l274 1133h293v-1655h-227v1098l-275 -1098h-131l-274 1098v-1098h-228z" />
    <glyph glyph-name="N" unicode="N" horiz-adv-x="1142" 
d="M104 0v1655h230l477 -1104v1104h229v-1655h-231l-475 1104v-1104h-230z" />
    <glyph glyph-name="O" unicode="O" horiz-adv-x="1126" 
d="M563 -20q-241 0 -364 143t-123 401v606q0 258 123 401.5t364 143.5t365.5 -144t124.5 -401v-606q0 -257 -124.5 -400.5t-365.5 -143.5zM330 465q0 -279 233 -279q234 0 234 279v723q0 280 -234 280q-233 0 -233 -278v-725z" />
    <glyph glyph-name="P" unicode="P" horiz-adv-x="1083" 
d="M104 0v1655h453q261 0 372 -118t111 -396v-54q0 -279 -111 -400.5t-372 -121.5h-203v-565h-250zM354 762h224q113 0 159.5 58t46.5 192v205q0 131 -46.5 186t-159.5 55h-224v-696z" />
    <glyph glyph-name="Q" unicode="Q" horiz-adv-x="1126" 
d="M563 186q234 0 234 279v723q0 280 -234 280q-233 0 -233 -278v-725q0 -279 233 -279zM76 524v606q0 258 123 401.5t364 143.5t365.5 -144t124.5 -401v-606q0 -234 -103.5 -375t-304.5 -165q150 -23 281 -99v-198q-144 80 -260 114.5t-265 38.5v160q-162 44 -243.5 179.5
t-81.5 344.5z" />
    <glyph glyph-name="R" unicode="R" horiz-adv-x="1105" 
d="M795 0q-23 25 -23 147v328q0 207 -207 207h-211v-682h-250v1655h461q127 0 212 -21.5t142 -73t82 -134t25 -207.5v-25q0 -178 -50.5 -270t-174.5 -138q223 -70 223 -340v-299q0 -106 25 -147h-254zM354 879h211q113 0 160 53.5t47 165.5v151q0 125 -46 167t-165 42h-207
v-579z" />
    <glyph glyph-name="S" unicode="S" horiz-adv-x="1046" 
d="M530 -20q-477 0 -477 493v100h256v-161q0 -125 53.5 -176.5t172.5 -51.5q106 0 153 45t47 150v57q0 107 -39.5 161.5t-134.5 102.5l-215 123q-89 53 -145 107.5t-91.5 136.5t-35.5 188q0 200 113 310t335 110t338.5 -111t116.5 -325v-96h-254v117q0 118 -49 164t-154 46
q-99 0 -145.5 -40.5t-46.5 -135.5v-39q0 -90 39.5 -142.5t121.5 -94.5l216 -123q70 -40 117 -77t87.5 -91t60 -127t19.5 -168q0 -227 -111.5 -339.5t-347.5 -112.5z" />
    <glyph glyph-name="T" unicode="T" horiz-adv-x="962" 
d="M356 0v1444h-325v211h903v-211h-328v-1444h-250z" />
    <glyph glyph-name="U" unicode="U" 
d="M563 -20q-243 0 -355 122.5t-112 380.5v1172h254v-1223q0 -139 51.5 -192.5t161.5 -53.5t162.5 54t52.5 192v1223h252v-1172q0 -259 -112.5 -381t-354.5 -122z" />
    <glyph glyph-name="V" unicode="V" horiz-adv-x="1032" 
d="M346 0l-328 1655h256l238 -1391l6 -26l6 24l236 1393h254l-326 -1655h-342z" />
    <glyph glyph-name="W" unicode="W" horiz-adv-x="1728" 
d="M313 0l-290 1655h251l205 -1340l4 -18l2 18l224 1340h311l225 -1338l4 -22l4 22l201 1338h252l-291 -1655h-334l-211 1290l-4 29l-6 -29l-211 -1290h-336z" />
    <glyph glyph-name="X" unicode="X" horiz-adv-x="1030" 
d="M6 0l367 844l-353 811h259l241 -596l240 596h254l-357 -813l365 -842h-260l-250 629l-252 -629h-254z" />
    <glyph glyph-name="Y" unicode="Y" horiz-adv-x="1009" 
d="M381 0v580l-383 1075h264l242 -770l2 -4v4l242 770h264l-383 -1075v-580h-248z" />
    <glyph glyph-name="Z" unicode="Z" horiz-adv-x="937" 
d="M49 0v211l574 1233h-574v211h840v-211l-572 -1233h572v-211h-840z" />
    <glyph glyph-name="bracketleft" unicode="[" horiz-adv-x="514" 
d="M496 1731v-86h-287v-1862h287v-86h-390v2034h390z" />
    <glyph glyph-name="backslash" unicode="\" horiz-adv-x="907" 
d="M27 1655h106l748 -1655h-107z" />
    <glyph glyph-name="bracketright" unicode="]" horiz-adv-x="514" 
d="M18 -303v86h287v1862h-287v86h390v-2034h-390z" />
    <glyph glyph-name="asciicircum" unicode="^" horiz-adv-x="796" 
d="M645 1040l-246 535l-245 -535h-111l283 615h147l283 -615h-111z" />
    <glyph glyph-name="underscore" unicode="_" horiz-adv-x="1306" 
d="M0 -150h1307v-96h-1307v96z" />
    <glyph glyph-name="grave" unicode="`" horiz-adv-x="1099" 
d="M895 1532l-21 -78l-669 150l20 79z" />
    <glyph glyph-name="a" unicode="a" horiz-adv-x="1003" 
d="M680 0v186q-46 -105 -130.5 -155.5t-195.5 -50.5q-142 0 -224.5 84t-82.5 251q0 269 301 410l92 41q42 20 60 29t52.5 28.5t50.5 34t35.5 36t27.5 45.5t8 52v19q0 141 -164 141q-193 0 -193 -188v-89h-241v54q0 200 105.5 312t326.5 112q218 0 311.5 -102t93.5 -294v-956
h-233zM291 350q0 -157 151 -157q107 0 169.5 89t62.5 248v199q-7 -20 -19 -36t-36 -33t-38 -25.5t-51 -28.5q-12 -7 -18 -10l-78 -41q-70 -39 -106.5 -87.5t-36.5 -117.5z" />
    <glyph glyph-name="b" unicode="b" horiz-adv-x="1032" 
d="M96 0v1655h240v-488q92 185 295 185q160 0 247 -109t87 -309v-553q0 -185 -86 -293t-248 -108q-57 0 -104.5 13.5t-83 38.5t-59.5 50.5t-48 58.5v-141h-240zM338 422q0 -103 49.5 -171.5t147.5 -68.5q184 0 184 238v491q0 238 -184 238q-97 0 -147 -68.5t-50 -171.5v-487
z" />
    <glyph glyph-name="c" unicode="c" horiz-adv-x="989" 
d="M690 928q-3 116 -48 169.5t-136 53.5q-100 0 -147.5 -60.5t-47.5 -193.5v-465q0 -133 47.5 -192.5t147.5 -59.5q93 0 137 53t47 170v129h246l-2 -88q-5 -227 -110.5 -345.5t-317.5 -118.5q-440 0 -440 493v385q0 244 109.5 369t328.5 125q212 0 319.5 -119.5
t110.5 -345.5l2 -88h-246v129z" />
    <glyph glyph-name="d" unicode="d" horiz-adv-x="1032" 
d="M696 1655h240v-1655h-240v160q-92 -180 -293 -180q-160 0 -246.5 108.5t-86.5 308.5v553q0 185 85.5 293.5t247.5 108.5q106 0 174 -44t119 -116v463zM315 420q0 -238 185 -238q97 0 146.5 68.5t49.5 171.5v487q0 104 -49 172t-147 68q-185 0 -185 -238v-491z" />
    <glyph glyph-name="e" unicode="e" horiz-adv-x="1001" 
d="M66 473v385q0 494 440 494q430 0 430 -492v-248h-625v-180q0 -133 48.5 -192.5t148.5 -59.5q87 0 129 48t45 157l2 70h248v-29q-12 -446 -426 -446q-440 0 -440 493zM311 788h379v136q-4 123 -49.5 175t-134.5 52q-99 0 -147 -60t-48 -194v-109z" />
    <glyph glyph-name="f" unicode="f" horiz-adv-x="751" 
d="M16 1331h199v37q0 55 6.5 97t25.5 83t51 67.5t86 43t128 16.5q111 0 221 -20v-178q-50 6 -123 6q-92 0 -123.5 -29t-31.5 -100v-82q25 28 71.5 41.5t86 15.5t120.5 2v-207h-278v-1124h-240v1124h-199v207z" />
    <glyph glyph-name="g" unicode="g" horiz-adv-x="1030" 
d="M696 18v142q-92 -180 -293 -180q-160 0 -246.5 108.5t-86.5 308.5v553q0 185 85.5 293.5t247.5 108.5q106 0 174 -44t119 -116v139h240v-1325q0 -118 -16 -194.5t-57.5 -132.5t-114.5 -80.5t-185 -24.5h-430v205h381q104 0 143 51t39 188zM315 420q0 -238 185 -238
q97 0 146.5 68.5t49.5 171.5v487q0 104 -49 172t-147 68q-185 0 -185 -238v-491z" />
    <glyph glyph-name="h" unicode="h" horiz-adv-x="1026" 
d="M336 1655v-490q39 78 112.5 132.5t186.5 54.5q303 0 303 -408v-944h-240v926q0 113 -39.5 169t-128.5 56q-45 0 -80 -14.5t-56 -37.5t-34.5 -55.5t-18.5 -64.5t-5 -68v-911h-240v1655h240z" />
    <glyph glyph-name="i" unicode="i" horiz-adv-x="432" 
d="M96 1331h240v-1331h-240v1331zM63 1554q0 56 39.5 88.5t114.5 32.5q74 0 113 -32.5t39 -88.5q0 -52 -39 -84t-113 -32t-114 32t-40 84z" />
    <glyph glyph-name="j" unicode="j" horiz-adv-x="432" 
d="M96 0v1331h240v-1343q0 -228 -76 -321t-278 -93h-166v205h108q98 0 135 46.5t37 174.5zM63 1554q0 56 39.5 88.5t114.5 32.5q74 0 113 -32.5t39 -88.5q0 -52 -39 -84t-113 -32t-114 32t-40 84z" />
    <glyph glyph-name="k" unicode="k" horiz-adv-x="983" 
d="M96 1655h240v-883h59l314 559h270l-395 -665l395 -666h-270l-320 569h-53v-569h-240v1655z" />
    <glyph glyph-name="l" unicode="l" horiz-adv-x="432" 
d="M96 1655h240v-1655h-240v1655z" />
    <glyph glyph-name="m" unicode="m" horiz-adv-x="1540" 
d="M1212 936q0 49 -5.5 84.5t-20.5 67t-45 47.5t-74 16q-49 0 -84.5 -20.5t-54 -55t-27 -72t-8.5 -79.5v-924h-238v936q0 48 -5.5 83.5t-20.5 67t-45 48t-74 16.5q-49 0 -84.5 -20.5t-54 -55t-27 -72t-8.5 -79.5v-924h-240v1331h240v-155q35 80 103.5 128t172.5 48
q208 0 260 -191q99 191 295 191q80 0 136.5 -28.5t88.5 -83.5t46 -124t14 -160v-956h-240v936z" />
    <glyph glyph-name="n" unicode="n" horiz-adv-x="1026" 
d="M336 1331v-166q39 78 112.5 132.5t186.5 54.5q303 0 303 -408v-944h-240v926q0 113 -39.5 169t-128.5 56q-45 0 -80 -14.5t-56 -37.5t-34.5 -55.5t-18.5 -64.5t-5 -68v-911h-240v1331h240z" />
    <glyph glyph-name="o" unicode="o" horiz-adv-x="1001" 
d="M502 -20q-218 0 -327 125t-109 368v385q0 243 109 368.5t327 125.5q217 0 325.5 -125.5t108.5 -368.5v-385q0 -243 -108.5 -368t-325.5 -125zM311 434q0 -134 47 -194t144 -60q96 0 142 60t46 194v463q0 133 -46.5 193.5t-141.5 60.5q-97 0 -144 -60.5t-47 -193.5v-463z
" />
    <glyph glyph-name="p" unicode="p" horiz-adv-x="1032" 
d="M336 1331v-164q92 185 295 185q160 0 247 -109t87 -309v-553q0 -185 -86 -293t-248 -108q-57 0 -104.5 13.5t-83 38.5t-59.5 50.5t-48 58.5v-567h-240v1757h240zM338 422q0 -103 49.5 -171.5t147.5 -68.5q184 0 184 238v491q0 238 -184 238q-97 0 -147 -68.5t-50 -171.5
v-487z" />
    <glyph glyph-name="q" unicode="q" horiz-adv-x="1030" 
d="M696 -426v586q-92 -180 -293 -180q-160 0 -246.5 108.5t-86.5 308.5v553q0 185 85.5 293.5t247.5 108.5q106 0 174 -44t119 -116v139h240v-1757h-240zM315 420q0 -238 185 -238q97 0 146.5 68.5t49.5 171.5v487q0 104 -49 172t-147 68q-185 0 -185 -238v-491z" />
    <glyph glyph-name="r" unicode="r" horiz-adv-x="925" 
d="M336 1331v-166q36 82 109 134.5t173 52.5q279 0 279 -365v-149h-242v100q0 113 -30.5 163t-106.5 50q-52 0 -89.5 -22.5t-56.5 -59.5t-27.5 -76t-8.5 -80v-913h-240v1331h240z" />
    <glyph glyph-name="s" unicode="s" horiz-adv-x="962" 
d="M672 715q128 -67 182.5 -147.5t54.5 -207.5q0 -81 -21.5 -146.5t-68.5 -119.5t-132 -84t-202 -30q-436 0 -436 395v86h246v-82q0 -106 45.5 -152.5t146.5 -46.5q96 0 136.5 40t40.5 126q0 68 -31.5 111t-124.5 98l-203 111q-120 57 -179.5 135t-59.5 200q0 57 13 106.5
t43.5 95.5t77 78.5t118 51.5t161.5 19q214 0 317 -98.5t103 -280.5v-68h-246v66q0 97 -43 138.5t-133 41.5q-80 0 -123 -35t-43 -104q0 -56 28.5 -92.5t98.5 -73.5z" />
    <glyph glyph-name="t" unicode="t" horiz-adv-x="755" 
d="M711 1331v-205h-269v-729q0 -117 25.5 -154.5t97.5 -37.5h146v-205h-230q-85 0 -140.5 21.5t-85.5 68t-41 106.5t-11 150v780h-187v205h33q97 21 140.5 107.5t41.5 216.5h240q0 -124 -39.5 -214t-109.5 -110h389z" />
    <glyph glyph-name="u" unicode="u" horiz-adv-x="1026" 
d="M690 0v166q-39 -78 -112.5 -132t-186.5 -54q-303 0 -303 407v944h240v-925q0 -113 39.5 -169.5t128.5 -56.5q45 0 80 14.5t56 37.5t34.5 55.5t18.5 64.5t5 68v911h240v-1331h-240z" />
    <glyph glyph-name="v" unicode="v" horiz-adv-x="925" 
d="M14 1331h248l203 -1102l201 1102h245l-286 -1331h-324z" />
    <glyph glyph-name="w" unicode="w" horiz-adv-x="1492" 
d="M20 1331h240l172 -1102l182 1102h265l184 -1102l170 1102h240l-248 -1331h-295l-185 1124l-192 -1124h-283z" />
    <glyph glyph-name="x" unicode="x" horiz-adv-x="942" 
d="M-4 0l332 688l-305 643h262l194 -438l195 438h248l-308 -643l332 -688h-262l-221 483l-219 -483h-248z" />
    <glyph glyph-name="y" unicode="y" horiz-adv-x="1024" 
d="M688 10v156q-39 -78 -112.5 -132t-186.5 -54q-303 0 -303 407v944h240v-925q0 -113 39.5 -169.5t128.5 -56.5q45 0 80 14.5t56 37.5t34.5 55.5t18.5 64.5t5 68v911h242v-1323q0 -238 -79 -336t-290 -98h-434v205h383q101 0 139.5 49.5t38.5 181.5z" />
    <glyph glyph-name="z" unicode="z" horiz-adv-x="886" 
d="M47 1331h793v-205l-529 -921h525v-205h-787v205l524 921h-526v205z" />
    <glyph glyph-name="braceleft" unicode="{" horiz-adv-x="505" 
d="M59 823q80 0 80 181v372q0 186 64 270.5t194 84.5h88v-93h-86q-84 0 -120.5 -64.5t-36.5 -189.5v-374q0 -109 -18.5 -162t-71.5 -86v-92q53 -33 71.5 -86t18.5 -162v-377q0 -124 36.5 -188t120.5 -64h86v-92h-88q-130 0 -194 84t-64 268v375q0 180 -80 180v215z" />
    <glyph glyph-name="bar" unicode="|" horiz-adv-x="325" 
d="M111 -20v1691h102v-1691h-102z" />
    <glyph glyph-name="braceright" unicode="}" horiz-adv-x="505" 
d="M446 608q-79 0 -79 -180v-373q0 -186 -64 -270t-194 -84h-89v92h86q84 0 121 65t37 189v375q0 109 18.5 162t71.5 86v92q-53 33 -71.5 86t-18.5 162v376q0 124 -37 188t-121 64h-86v93h89q130 0 194 -84.5t64 -268.5v-374q0 -181 79 -181v-215z" />
    <glyph glyph-name="asciitilde" unicode="~" horiz-adv-x="1157" 
d="M74 721q0 60 16 106t40.5 72.5t59 43.5t66 22.5t66.5 5.5q64 0 125 -20.5t108.5 -50.5t92 -59.5t94.5 -50t98 -20.5q66 0 105.5 38t39.5 110h105q0 -74 -23.5 -126.5t-63 -77.5t-79 -35.5t-84.5 -10.5q-64 0 -125 20.5t-108.5 50t-92 59t-94.5 50t-98 20.5
q-67 0 -106.5 -38t-39.5 -109h-102z" />
    <glyph glyph-name="uni00A0" unicode="&#xa0;" horiz-adv-x="456" 
 />
    <glyph glyph-name="exclamdown" unicode="&#xa1;" horiz-adv-x="448" 
d="M342 -324h-240l17 1143h211zM72 1202q0 66 43.5 108t107.5 42t108 -42t44 -108q0 -69 -43.5 -111t-108.5 -42t-108 42t-43 111z" />
    <glyph glyph-name="cent" unicode="&#xa2;" horiz-adv-x="1060" 
d="M479 -143v286q-199 17 -299 142t-100 350v385q0 226 101 351t298 140v287h109v-287q194 -13 294 -131.5t105 -330.5v-88h-225l-2 118q-6 209 -172 230v-965q84 12 126.5 68t45.5 163l2 119h225l-2 -88q-3 -213 -102 -331.5t-295 -131.5v-286h-109zM307 604
q0 -121 42.5 -182.5t129.5 -75.5v963q-86 -14 -129 -76t-43 -182v-447z" />
    <glyph glyph-name="sterling" unicode="&#xa3;" horiz-adv-x="1067" 
d="M61 166q95 73 140 156.5t45 201.5q0 55 -8 99h-177v106h154q-8 32 -30 107t-34 122t-23 123.5t-11 151.5q0 219 117 330.5t325 111.5q213 0 330 -118.5t117 -348.5v-125h-254v144q0 126 -45 187t-142 61q-98 0 -147 -59t-49 -185q0 -96 17 -182t48.5 -184t40.5 -136h373
v-106h-352q2 -16 2 -52q0 -115 -40 -203.5t-124 -168.5h672v-199h-945v166z" />
    <glyph glyph-name="currency" unicode="&#xa4;" horiz-adv-x="839" 
d="M420 418q-96 0 -166 51l-117 -154l-71 70l118 156q-75 110 -75 278q0 171 75 281l-118 153l71 70l117 -154q71 52 166 52t166 -52l116 154l72 -70l-119 -155q76 -112 76 -279q0 -169 -76 -278l119 -156l-72 -70l-116 154q-70 -51 -166 -51zM211 819q0 -141 53 -225
t156 -84t156 84t53 225q0 140 -53.5 224.5t-155.5 84.5t-155.5 -84.5t-53.5 -224.5z" />
    <glyph glyph-name="yen" unicode="&#xa5;" horiz-adv-x="1073" 
d="M119 565v82h270l-358 1008h264l242 -770l2 -4v4l241 770h264l-358 -1008h268v-82h-292v-86h292v-82h-292v-397h-248v397h-295v82h295v86h-295z" />
    <glyph glyph-name="brokenbar" unicode="&#xa6;" horiz-adv-x="325" 
d="M111 1012v659h102v-659h-102zM111 -20v659h102v-659h-102z" />
    <glyph glyph-name="section" unicode="&#xa7;" horiz-adv-x="970" 
d="M514 -20q-217 0 -315 101t-101 292h105q0 -157 74.5 -234.5t236.5 -77.5q277 0 277 213q0 134 -115 170l-422 113q-108 34 -148 88.5t-40 128.5q0 153 129 191q-117 73 -117 215q0 150 103 223.5t282 73.5q113 0 192.5 -27t126 -80t67.5 -123t23 -164h-104
q0 159 -70.5 235.5t-234.5 76.5q-135 0 -209 -53t-74 -158q0 -132 115 -170l424 -113q99 -28 142.5 -82.5t43.5 -136.5q0 -148 -125 -190q113 -69 113 -213q0 -152 -99 -225.5t-280 -73.5zM168 778q0 -56 28 -89t89 -50l333 -84q48 -16 81 -10t53.5 17.5t31.5 34t15 41.5
t4 38q0 57 -28.5 91.5t-88.5 51.5l-336 88q-94 26 -138 -17.5t-44 -111.5z" />
    <glyph glyph-name="dieresis" unicode="&#xa8;" horiz-adv-x="958" 
d="M674 1440q-54 0 -89.5 29t-35.5 81q0 57 35.5 87t89.5 30q52 0 88.5 -30.5t36.5 -86.5q0 -51 -37 -80.5t-88 -29.5zM162 1550q0 57 35.5 87t89.5 30q52 0 88.5 -30.5t36.5 -86.5q0 -51 -37 -80.5t-88 -29.5q-54 0 -89.5 29t-35.5 81z" />
    <glyph glyph-name="copyright" unicode="&#xa9;" horiz-adv-x="1615" 
d="M809 -20q-158 0 -284 45.5t-209 123t-138 187t-78.5 231t-23.5 260.5t23.5 261t78.5 231t138 187t209 123.5t284 45.5t283.5 -45.5t208 -123.5t137.5 -187t78.5 -231t23.5 -261t-23.5 -260.5t-78.5 -231t-137.5 -187t-208 -123t-283.5 -45.5zM180 827q0 -128 18.5 -235.5
t64 -203.5t116 -162.5t180 -105t250.5 -38.5q136 0 243.5 38.5t178.5 105.5t118 162t67 203.5t20 235.5t-20 235.5t-67 204t-118 162.5t-178.5 105.5t-243.5 38.5q-137 0 -244.5 -38.5t-179 -105.5t-118.5 -162.5t-67 -204t-20 -235.5zM338 829q0 98 15.5 183t51.5 160
t91 128t137.5 84t187.5 31q96 0 171.5 -26.5t124.5 -70.5t82.5 -107.5t49 -130t19.5 -144.5h-162q-5 44 -10 74.5t-14.5 68t-22.5 62.5t-34 51t-48 41.5t-65.5 25t-86.5 9.5q-76 0 -133 -22t-93 -59.5t-58 -94.5t-30.5 -120t-8.5 -143q0 -81 8.5 -144.5t30.5 -121t57 -95
t91.5 -59.5t131.5 -22q49 0 88 10t66.5 25.5t48.5 42t33.5 51.5t22.5 63t14.5 67.5t9.5 72.5h162q-33 -479 -445 -479q-105 0 -187.5 30.5t-137.5 83.5t-91 128t-51.5 161t-15.5 186z" />
    <glyph glyph-name="ordfeminine" unicode="&#xaa;" horiz-adv-x="673" 
d="M434 864v111q-53 -123 -192 -123q-85 0 -135 51t-50 152q0 158 185 248l53 24q38 19 54 28t39.5 25.5t32.5 34t9 39.5v12q0 76 -90 76q-104 0 -104 -100v-53h-160v28q0 258 262 258q133 0 191.5 -62t58.5 -181v-568h-154zM219 1079q0 -41 21 -63.5t61 -22.5q59 0 94 50.5
t35 140.5v104q-3 -9 -8.5 -17.5t-16 -16t-18.5 -12.5t-23.5 -14t-23.5 -14l-43 -24q-78 -40 -78 -111z" />
    <glyph glyph-name="guillemotleft" unicode="&#xab;" horiz-adv-x="806" 
d="M414 283l-355 348v90l355 348v-149l-252 -244l252 -244v-149zM358 631v90l355 348v-149l-252 -244l252 -244v-149z" />
    <glyph glyph-name="logicalnot" unicode="&#xac;" horiz-adv-x="1177" 
d="M979 635v285h-907v92h1009v-377h-102z" />
    <glyph glyph-name="registered" unicode="&#xae;" horiz-adv-x="1009" 
d="M506 750q-77 0 -136.5 27.5t-93.5 69t-56 99t-29 108.5t-7 105t7 105t29 108.5t56 99.5t93.5 69.5t136.5 27.5t136 -27.5t92.5 -69.5t55 -99.5t28.5 -108.5t7 -105t-7 -105t-28.5 -108.5t-55 -99t-92.5 -69t-136 -27.5zM70 1159q0 -71 12 -139t43 -138t78.5 -121.5
t125.5 -84.5t177 -33q98 0 176 33t125 84.5t78 121.5t43 138t12 139t-12 139t-43 138t-78 121.5t-125 84.5t-176 33q-99 0 -177 -33t-125.5 -84.5t-78.5 -121.5t-43 -138t-12 -139zM313 883v563h183q100 0 157.5 -34t57.5 -122q0 -106 -107 -151q105 -30 105 -146v-51
q0 -49 8 -59h-139q-11 14 -11 59v51q0 47 -16.5 64.5t-56.5 17.5h-37v-192h-144zM457 1204h39q42 0 57.5 14.5t15.5 45.5q0 33 -17.5 44t-55.5 11h-39v-115z" />
    <glyph glyph-name="macron" unicode="&#xaf;" horiz-adv-x="1099" 
d="M205 1528v82h690v-82h-690z" />
    <glyph glyph-name="degree" unicode="&#xb0;" horiz-adv-x="655" 
d="M328 1153q-160 0 -160 215t160 215q159 0 159 -215t-159 -215zM66 1368q0 -61 14.5 -114t44 -97.5t81.5 -70t122 -25.5t122 25.5t81.5 70t44 97.5t14.5 114t-14.5 114t-44 97.5t-81.5 70t-122 25.5t-122 -25.5t-81.5 -70t-44 -97.5t-14.5 -114z" />
    <glyph glyph-name="plusminus" unicode="&#xb1;" horiz-adv-x="1134" 
d="M618 1241v-373h453v-92h-453v-284h453v-93h-1008v93h453v284h-453v92h453v373h102z" />
    <glyph glyph-name="uni00B2" unicode="&#xb2;" horiz-adv-x="563" 
d="M45 827q0 101 38 170t126 115l70 39q52 27 74 62t22 96v20q0 46 -21 65t-67 19q-47 0 -68.5 -21.5t-21.5 -74.5v-64h-148v45q0 114 59.5 174t178.5 60q114 0 174.5 -59t60.5 -173q0 -178 -149 -253l-86 -50q-60 -32 -77 -68.5t-17 -113.5h327v-121h-475v133z" />
    <glyph glyph-name="uni00B3" unicode="&#xb3;" horiz-adv-x="561" 
d="M279 684q-121 0 -180 55t-60 174v39h145v-57q0 -53 22.5 -73.5t69.5 -20.5q50 0 71.5 21.5t21.5 68.5v78q0 50 -23.5 70t-66.5 20h-84v119h84q86 0 86 82v69q0 46 -22 66t-67 20t-66.5 -20t-21.5 -70v-51h-145v35q3 223 236 223q55 0 98 -14.5t67 -36.5t40 -51.5t21 -55
t5 -51.5v-25q0 -135 -104 -176q108 -37 108 -184v-25q0 -229 -235 -229z" />
    <glyph glyph-name="acute" unicode="&#xb4;" horiz-adv-x="1075" 
d="M225 1462l-20 78l645 152l20 -80z" />
    <glyph glyph-name="paragraph" unicode="&#xb6;" horiz-adv-x="786" 
d="M571 1655h103v-1655h-103v1655zM37 1294q0 112 18 183.5t59.5 110.5t96 53t139.5 14h103v-1655h-103v936q-85 0 -139.5 14t-96 52t-59.5 109t-18 183z" />
    <glyph glyph-name="periodcentered" unicode="&#xb7;" horiz-adv-x="425" 
d="M213 537q-64 0 -108 41.5t-44 107.5q0 69 43.5 111.5t108.5 42.5t108.5 -42.5t43.5 -111.5q0 -66 -44 -107.5t-108 -41.5z" />
    <glyph glyph-name="cedilla" unicode="&#xb8;" horiz-adv-x="786" 
d="M205 -334q143 0 199.5 13.5t56.5 60.5q0 26 -13 40t-43.5 18t-67 1.5t-95.5 -10.5l51 211h98l-31 -127q222 27 222 -129q0 -90 -85 -129t-292 -39v90z" />
    <glyph glyph-name="uni00B9" unicode="&#xb9;" horiz-adv-x="473" 
d="M43 815h135v543q-49 -49 -139 -49v129q107 0 154 84h126v-707h136v-121h-412v121z" />
    <glyph glyph-name="ordmasculine" unicode="&#xba;" horiz-adv-x="659" 
d="M330 852q-267 0 -267 299v225q0 147 67 223t200 76q132 0 199 -75.5t67 -223.5v-225q0 -148 -67 -223.5t-199 -75.5zM225 1124q0 -72 25.5 -105.5t79.5 -33.5q53 0 77.5 34t24.5 105v279q0 71 -24.5 105t-77.5 34q-54 0 -79.5 -33.5t-25.5 -105.5v-279z" />
    <glyph glyph-name="guillemotright" unicode="&#xbb;" horiz-adv-x="804" 
d="M389 283v149l252 244l-252 244v149l354 -348v-90zM92 283v149l252 244l-252 244v149l354 -348v-90z" />
    <glyph glyph-name="onequarter" unicode="&#xbc;" horiz-adv-x="1345" 
d="M55 948h135v543q-49 -49 -139 -49v129q107 0 154 84h127v-707h135v-121h-412v121zM262 0l696 1655h99l-697 -1655h-98zM827 152v133l287 542h137v-555h60v-120h-60v-152h-143v152h-281zM934 272h174v332z" />
    <glyph glyph-name="onehalf" unicode="&#xbd;" horiz-adv-x="1406" 
d="M55 948h135v543q-49 -49 -139 -49v129q107 0 154 84h127v-707h135v-121h-412v121zM262 0l696 1655h99l-697 -1655h-98zM877 0v133q0 102 37.5 170.5t125.5 114.5l70 39q52 27 74 62t22 95v21q0 46 -21 65t-67 19q-47 0 -68.5 -21.5t-21.5 -74.5v-64h-147v45q0 114 59 174
t178 60q114 0 175 -59t61 -173q0 -179 -150 -254l-86 -49q-60 -32 -77 -68.5t-17 -113.5h328v-121h-475z" />
    <glyph glyph-name="threequarters" unicode="&#xbe;" horiz-adv-x="1421" 
d="M289 817q-121 0 -180 55.5t-60 174.5v38h146v-57q0 -53 22.5 -73.5t69.5 -20.5q50 0 71 21.5t21 68.5v78q0 50 -23.5 70t-66.5 20h-84v119h84q86 0 86 82v69q0 46 -21.5 66t-66.5 20t-66.5 -20t-21.5 -70v-51h-146v35q3 223 236 223q55 0 98 -14.5t67 -36.5t40 -51.5
t21 -55t5 -51.5v-24q0 -136 -104 -177q108 -37 108 -184v-24q0 -230 -235 -230zM334 0l696 1655h100l-696 -1655h-100zM901 152v133l287 542h137v-555h59v-120h-59v-152h-143v152h-281zM1008 272h174v332z" />
    <glyph glyph-name="questiondown" unicode="&#xbf;" horiz-adv-x="929" 
d="M461 -344q-212 0 -318 108t-106 285q0 72 18.5 134t48 107t65.5 87.5t72 85.5t65.5 90t48 112t18.5 142v27h215v-35q0 -102 -22.5 -186.5t-55.5 -137t-72.5 -105.5t-72.5 -95t-55.5 -102.5t-22.5 -129.5q0 -97 43.5 -141.5t132.5 -44.5q96 0 139 54.5t43 164.5v102h250
v-61q0 -215 -107.5 -338t-326.5 -123zM330 1202q0 66 43.5 108t107.5 42t108 -42t44 -108q0 -69 -43.5 -111t-108.5 -42t-108 42t-43 111z" />
    <glyph glyph-name="Agrave" unicode="&#xc0;" horiz-adv-x="1032" 
d="M18 0l326 1655h344l326 -1655h-254l-53 307h-381l-52 -307h-256zM172 1927l21 80l669 -152l-20 -77zM362 518h310l-150 873l-6 26l-6 -24z" />
    <glyph glyph-name="Aacute" unicode="&#xc1;" horiz-adv-x="1032" 
d="M18 0l326 1655h344l326 -1655h-254l-53 307h-381l-52 -307h-256zM184 1864l645 151l21 -80l-645 -149zM362 518h310l-150 873l-6 26l-6 -24z" />
    <glyph glyph-name="Acircumflex" unicode="&#xc2;" horiz-adv-x="1032" 
d="M18 0l326 1655h344l326 -1655h-254l-53 307h-381l-52 -307h-256zM203 1782l243 237h144l239 -237h-139l-172 174l-176 -174h-139zM362 518h310l-150 873l-6 26l-6 -24z" />
    <glyph glyph-name="Atilde" unicode="&#xc3;" horiz-adv-x="1032" 
d="M18 0l326 1655h344l326 -1655h-254l-53 307h-381l-52 -307h-256zM186 1798q0 113 52 162t133 49q47 0 83.5 -15.5t59.5 -37.5t43 -43.5t45 -37t55 -15.5q88 0 88 127h103q0 -115 -52.5 -163t-133.5 -48q-48 0 -85.5 15.5t-60.5 37t-42.5 43.5t-43.5 37.5t-53 15.5
q-88 0 -88 -127h-103zM362 518h310l-150 873l-6 26l-6 -24z" />
    <glyph glyph-name="Adieresis" unicode="&#xc4;" horiz-adv-x="1032" 
d="M18 0l326 1655h344l326 -1655h-254l-53 307h-381l-52 -307h-256zM199 1874q0 57 35.5 87t89.5 30q52 0 88.5 -30.5t36.5 -86.5q0 -51 -37 -81t-88 -30q-53 0 -89 29.5t-36 81.5zM362 518h310l-150 873l-6 26l-6 -24zM586 1874q0 57 35.5 87t89.5 30q52 0 88.5 -30.5
t36.5 -86.5q0 -51 -37 -81t-88 -30q-53 0 -89 29.5t-36 81.5z" />
    <glyph glyph-name="Aring" unicode="&#xc5;" horiz-adv-x="1032" 
d="M18 0l326 1655h344l326 -1655h-254l-53 307h-381l-52 -307h-256zM352 1913q0 71 49.5 118.5t116.5 47.5t116.5 -47.5t49.5 -118.5t-49.5 -118.5t-116.5 -47.5t-116.5 47.5t-49.5 118.5zM362 518h310l-150 873l-6 26l-6 -24zM440 1913q0 -34 21.5 -56t56.5 -22t56.5 22
t21.5 56t-21.5 56t-56.5 22t-56.5 -22t-21.5 -56z" />
    <glyph glyph-name="AE" unicode="&#xc6;" horiz-adv-x="1384" 
d="M2 0l401 1655h914v-211h-412v-512h387v-209h-387v-512h412v-211h-660v332h-325l-78 -332h-252zM381 541h276v903h-63z" />
    <glyph glyph-name="Ccedilla" unicode="&#xc7;" horiz-adv-x="1112" 
d="M426 -334q143 0 199.5 13.5t56.5 60.5q0 26 -13 40t-43.5 18t-67 1.5t-95.5 -10.5l47 193q-217 17 -325.5 159t-108.5 385v604q0 259 123 402t366 143q233 0 355 -133.5t127 -374.5v-188h-254l-2 248q-6 241 -226 241q-235 0 -235 -278v-725q0 -279 235 -279
q220 0 226 242l2 250h254v-189q-5 -230 -115.5 -362.5t-323.5 -144.5l-26 -109q221 27 221 -129q0 -90 -85 -129t-292 -39v90z" />
    <glyph glyph-name="Egrave" unicode="&#xc8;" horiz-adv-x="931" 
d="M104 0v1655h762v-211h-512v-512h484v-209h-484v-512h512v-211h-762zM139 1927l21 80l669 -152l-20 -77z" />
    <glyph glyph-name="Eacute" unicode="&#xc9;" horiz-adv-x="931" 
d="M104 0v1655h762v-211h-512v-512h484v-209h-484v-512h512v-211h-762zM152 1864l645 151l20 -80l-645 -149z" />
    <glyph glyph-name="Ecircumflex" unicode="&#xca;" horiz-adv-x="931" 
d="M104 0v1655h762v-211h-512v-512h484v-209h-484v-512h512v-211h-762zM172 1782l244 237h143l240 -237h-140l-172 174l-176 -174h-139z" />
    <glyph glyph-name="Edieresis" unicode="&#xcb;" horiz-adv-x="931" 
d="M104 0v1655h762v-211h-512v-512h484v-209h-484v-512h512v-211h-762zM168 1874q0 57 35.5 87t89.5 30q52 0 88.5 -30.5t36.5 -86.5q0 -51 -37 -81t-88 -30q-53 0 -89 29.5t-36 81.5zM555 1874q0 57 35.5 87t89.5 30q52 0 88.5 -30.5t36.5 -86.5q0 -51 -37 -81t-88 -30
q-53 0 -89 29.5t-36 81.5z" />
    <glyph glyph-name="Igrave" unicode="&#xcc;" horiz-adv-x="628" 
d="M82 0v223h106v1209h-106v223h463v-223h-107v-1209h107v-223h-463zM-33 1927l21 80l669 -152l-20 -77z" />
    <glyph glyph-name="Iacute" unicode="&#xcd;" horiz-adv-x="628" 
d="M82 0v223h106v1209h-106v223h463v-223h-107v-1209h107v-223h-463zM-20 1864l645 151l20 -80l-645 -149z" />
    <glyph glyph-name="Icircumflex" unicode="&#xce;" horiz-adv-x="628" 
d="M82 0v223h106v1209h-106v223h463v-223h-107v-1209h107v-223h-463zM0 1782l244 237h143l240 -237h-140l-172 174l-176 -174h-139z" />
    <glyph glyph-name="Idieresis" unicode="&#xcf;" horiz-adv-x="628" 
d="M82 0v223h106v1209h-106v223h463v-223h-107v-1209h107v-223h-463zM-4 1874q0 57 35.5 87t89.5 30q52 0 88.5 -30.5t36.5 -86.5q0 -51 -37 -81t-88 -30q-53 0 -89 29.5t-36 81.5zM383 1874q0 57 35.5 87t89.5 30q52 0 88.5 -30.5t36.5 -86.5q0 -51 -37 -81t-88 -30
q-53 0 -89 29.5t-36 81.5z" />
    <glyph glyph-name="Eth" unicode="&#xd0;" horiz-adv-x="1177" 
d="M160 0v770h-135v129h135v756h428q135 0 228.5 -25.5t159 -85.5t96 -161t30.5 -250v-611q0 -148 -30.5 -248.5t-96 -161t-159 -86.5t-228.5 -26h-428zM410 197h180q142 0 199 61.5t57 226.5v684q0 165 -57.5 227t-200.5 62h-178v-559h256v-129h-256v-573z" />
    <glyph glyph-name="Ntilde" unicode="&#xd1;" horiz-adv-x="1142" 
d="M104 0v1655h230l477 -1104v1104h229v-1655h-231l-475 1104v-1104h-230zM242 1798q0 59 15 101.5t42 65.5t58 33.5t69 10.5q47 0 83.5 -15.5t59.5 -37.5t43 -43.5t45.5 -37t55.5 -15.5q88 0 88 127h102q0 -115 -52.5 -163t-133.5 -48q-48 0 -85.5 15.5t-60.5 37
t-42.5 43.5t-43.5 37.5t-53 15.5q-88 0 -88 -127h-102z" />
    <glyph glyph-name="Ograve" unicode="&#xd2;" horiz-adv-x="1126" 
d="M563 -20q-241 0 -364 143t-123 401v606q0 258 123 401.5t364 143.5t365.5 -144t124.5 -401v-606q0 -257 -124.5 -400.5t-365.5 -143.5zM217 1927l21 80l669 -152l-20 -77zM330 465q0 -279 233 -279q234 0 234 279v723q0 280 -234 280q-233 0 -233 -278v-725z" />
    <glyph glyph-name="Oacute" unicode="&#xd3;" horiz-adv-x="1126" 
d="M563 -20q-241 0 -364 143t-123 401v606q0 258 123 401.5t364 143.5t365.5 -144t124.5 -401v-606q0 -257 -124.5 -400.5t-365.5 -143.5zM229 1864l645 151l21 -80l-645 -149zM330 465q0 -279 233 -279q234 0 234 279v723q0 280 -234 280q-233 0 -233 -278v-725z" />
    <glyph glyph-name="Ocircumflex" unicode="&#xd4;" horiz-adv-x="1126" 
d="M563 -20q-241 0 -364 143t-123 401v606q0 258 123 401.5t364 143.5t365.5 -144t124.5 -401v-606q0 -257 -124.5 -400.5t-365.5 -143.5zM250 1782l244 237h143l240 -237h-140l-172 174l-176 -174h-139zM330 465q0 -279 233 -279q234 0 234 279v723q0 280 -234 280
q-233 0 -233 -278v-725z" />
    <glyph glyph-name="Otilde" unicode="&#xd5;" horiz-adv-x="1126" 
d="M563 -20q-241 0 -364 143t-123 401v606q0 258 123 401.5t364 143.5t365.5 -144t124.5 -401v-606q0 -257 -124.5 -400.5t-365.5 -143.5zM231 1798q0 113 52 162t133 49q47 0 83.5 -15.5t59.5 -37.5t43 -43.5t45 -37t55 -15.5q89 0 89 127h102q0 -115 -52.5 -163
t-133.5 -48q-48 0 -85.5 15.5t-60.5 37t-42.5 43.5t-43.5 37.5t-53 15.5q-88 0 -88 -127h-103zM330 465q0 -279 233 -279q234 0 234 279v723q0 280 -234 280q-233 0 -233 -278v-725z" />
    <glyph glyph-name="Odieresis" unicode="&#xd6;" horiz-adv-x="1126" 
d="M563 -20q-241 0 -364 143t-123 401v606q0 258 123 401.5t364 143.5t365.5 -144t124.5 -401v-606q0 -257 -124.5 -400.5t-365.5 -143.5zM246 1874q0 57 35.5 87t89.5 30q52 0 88.5 -30.5t36.5 -86.5q0 -51 -37 -81t-88 -30q-53 0 -89 29.5t-36 81.5zM330 465
q0 -279 233 -279q234 0 234 279v723q0 280 -234 280q-233 0 -233 -278v-725zM633 1874q0 57 35.5 87t89.5 30q52 0 88.5 -30.5t36.5 -86.5q0 -51 -37 -81t-88 -30q-53 0 -89 29.5t-36 81.5z" />
    <glyph glyph-name="multiply" unicode="&#xd7;" horiz-adv-x="890" 
d="M121 1208l325 -323l326 325l62 -61l-326 -326l326 -327l-64 -62l-326 326l-323 -324l-62 62l324 323l-326 326z" />
    <glyph glyph-name="Oslash" unicode="&#xd8;" horiz-adv-x="1126" 
d="M563 -20q-171 0 -284 75l-31 -67h-125l65 147q-112 139 -112 389v606q0 258 123 401.5t364 143.5q172 0 287 -76l31 68h125l-68 -147q115 -139 115 -390v-606q0 -257 -124.5 -400.5t-365.5 -143.5zM330 465v-19l422 934q-60 88 -189 88q-233 0 -233 -278v-725zM377 272
q56 -86 186 -86q234 0 234 279v739z" />
    <glyph glyph-name="Ugrave" unicode="&#xd9;" 
d="M563 -20q-243 0 -355 122.5t-112 380.5v1172h254v-1223q0 -139 51.5 -192.5t161.5 -53.5t162.5 54t52.5 192v1223h252v-1172q0 -259 -112.5 -381t-354.5 -122zM217 1927l21 80l669 -152l-20 -77z" />
    <glyph glyph-name="Uacute" unicode="&#xda;" 
d="M563 -20q-243 0 -355 122.5t-112 380.5v1172h254v-1223q0 -139 51.5 -192.5t161.5 -53.5t162.5 54t52.5 192v1223h252v-1172q0 -259 -112.5 -381t-354.5 -122zM229 1864l645 151l21 -80l-645 -149z" />
    <glyph glyph-name="Ucircumflex" unicode="&#xdb;" 
d="M563 -20q-243 0 -355 122.5t-112 380.5v1172h254v-1223q0 -139 51.5 -192.5t161.5 -53.5t162.5 54t52.5 192v1223h252v-1172q0 -259 -112.5 -381t-354.5 -122zM250 1782l244 237h143l240 -237h-140l-172 174l-176 -174h-139z" />
    <glyph glyph-name="Udieresis" unicode="&#xdc;" 
d="M563 -20q-243 0 -355 122.5t-112 380.5v1172h254v-1223q0 -139 51.5 -192.5t161.5 -53.5t162.5 54t52.5 192v1223h252v-1172q0 -259 -112.5 -381t-354.5 -122zM246 1874q0 57 35.5 87t89.5 30q52 0 88.5 -30.5t36.5 -86.5q0 -51 -37 -81t-88 -30q-53 0 -89 29.5t-36 81.5
zM633 1874q0 57 35.5 87t89.5 30q52 0 88.5 -30.5t36.5 -86.5q0 -51 -37 -81t-88 -30q-53 0 -89 29.5t-36 81.5z" />
    <glyph glyph-name="Yacute" unicode="&#xdd;" horiz-adv-x="1009" 
d="M381 0v580l-383 1075h264l242 -770l2 -4v4l242 770h264l-383 -1075v-580h-248zM172 1864l645 151l21 -80l-645 -149z" />
    <glyph glyph-name="Thorn" unicode="&#xde;" horiz-adv-x="1097" 
d="M104 0v1655h246v-283h205q261 0 373 -118t112 -396v-53q0 -277 -112 -399.5t-373 -122.5h-205v-283h-246zM350 494h225q113 0 162 59t49 192v177q0 130 -48.5 185.5t-162.5 55.5h-225v-669z" />
    <glyph glyph-name="germandbls" unicode="&#xdf;" horiz-adv-x="1034" 
d="M96 0v1255q0 206 102.5 313t323.5 107q422 0 422 -389v-72q0 -271 -192 -344q116 -35 171.5 -127t55.5 -251v-68q0 -220 -104 -322t-287 -102h-172v201h123q106 2 151 51t45 172v117q0 49 -9.5 86t-32 67.5t-64.5 46.5t-103 17l-110 2v201h100q107 1 151 49.5t44 154.5
v117q0 106 -46 150.5t-141 44.5q-98 0 -143 -47.5t-45 -169.5v-1260h-240z" />
    <glyph glyph-name="agrave" unicode="&#xe0;" horiz-adv-x="1003" 
d="M680 0v186q-46 -105 -130.5 -155.5t-195.5 -50.5q-142 0 -224.5 84t-82.5 251q0 269 301 410l92 41q42 20 60 29t52.5 28.5t50.5 34t35.5 36t27.5 45.5t8 52v19q0 141 -164 141q-193 0 -193 -188v-89h-241v54q0 200 105.5 312t326.5 112q218 0 311.5 -102t93.5 -294v-956
h-233zM156 1604l20 79l670 -151l-21 -78zM291 350q0 -157 151 -157q107 0 169.5 89t62.5 248v199q-7 -20 -19 -36t-36 -33t-38 -25.5t-51 -28.5q-12 -7 -18 -10l-78 -41q-70 -39 -106.5 -87.5t-36.5 -117.5z" />
    <glyph glyph-name="aacute" unicode="&#xe1;" horiz-adv-x="1003" 
d="M680 0v186q-46 -105 -130.5 -155.5t-195.5 -50.5q-142 0 -224.5 84t-82.5 251q0 269 301 410l92 41q42 20 60 29t52.5 28.5t50.5 34t35.5 36t27.5 45.5t8 52v19q0 141 -164 141q-193 0 -193 -188v-89h-241v54q0 200 105.5 312t326.5 112q218 0 311.5 -102t93.5 -294v-956
h-233zM168 1540l645 152l21 -80l-646 -150zM291 350q0 -157 151 -157q107 0 169.5 89t62.5 248v199q-7 -20 -19 -36t-36 -33t-38 -25.5t-51 -28.5q-12 -7 -18 -10l-78 -41q-70 -39 -106.5 -87.5t-36.5 -117.5z" />
    <glyph glyph-name="acircumflex" unicode="&#xe2;" horiz-adv-x="1003" 
d="M680 0v186q-46 -105 -130.5 -155.5t-195.5 -50.5q-142 0 -224.5 84t-82.5 251q0 269 301 410l92 41q42 20 60 29t52.5 28.5t50.5 34t35.5 36t27.5 45.5t8 52v19q0 141 -164 141q-193 0 -193 -188v-89h-241v54q0 200 105.5 312t326.5 112q218 0 311.5 -102t93.5 -294v-956
h-233zM188 1458l244 238h143l240 -238h-139l-172 174l-176 -174h-140zM291 350q0 -157 151 -157q107 0 169.5 89t62.5 248v199q-7 -20 -19 -36t-36 -33t-38 -25.5t-51 -28.5q-12 -7 -18 -10l-78 -41q-70 -39 -106.5 -87.5t-36.5 -117.5z" />
    <glyph glyph-name="atilde" unicode="&#xe3;" horiz-adv-x="1003" 
d="M680 0v186q-46 -105 -130.5 -155.5t-195.5 -50.5q-142 0 -224.5 84t-82.5 251q0 269 301 410l92 41q42 20 60 29t52.5 28.5t50.5 34t35.5 36t27.5 45.5t8 52v19q0 141 -164 141q-193 0 -193 -188v-89h-241v54q0 200 105.5 312t326.5 112q218 0 311.5 -102t93.5 -294v-956
h-233zM170 1475q0 59 15 101.5t42 65.5t58 33.5t69 10.5q47 0 83.5 -15.5t59.5 -37.5t43 -44t45.5 -37.5t55.5 -15.5q88 0 88 127h102q0 -115 -52.5 -163t-133.5 -48q-48 0 -85.5 15.5t-60.5 37.5t-42.5 44t-43.5 37.5t-53 15.5q-88 0 -88 -127h-102zM291 350
q0 -157 151 -157q107 0 169.5 89t62.5 248v199q-7 -20 -19 -36t-36 -33t-38 -25.5t-51 -28.5q-12 -7 -18 -10l-78 -41q-70 -39 -106.5 -87.5t-36.5 -117.5z" />
    <glyph glyph-name="adieresis" unicode="&#xe4;" horiz-adv-x="1003" 
d="M680 0v186q-46 -105 -130.5 -155.5t-195.5 -50.5q-142 0 -224.5 84t-82.5 251q0 269 301 410l92 41q42 20 60 29t52.5 28.5t50.5 34t35.5 36t27.5 45.5t8 52v19q0 141 -164 141q-193 0 -193 -188v-89h-241v54q0 200 105.5 312t326.5 112q218 0 311.5 -102t93.5 -294v-956
h-233zM182 1550q0 57 35.5 87t89.5 30q52 0 88.5 -30.5t36.5 -86.5q0 -51 -37 -80.5t-88 -29.5q-54 0 -89.5 29t-35.5 81zM291 350q0 -157 151 -157q107 0 169.5 89t62.5 248v199q-7 -20 -19 -36t-36 -33t-38 -25.5t-51 -28.5q-12 -7 -18 -10l-78 -41q-70 -39 -106.5 -87.5
t-36.5 -117.5zM569 1550q0 57 35.5 87t89.5 30q52 0 88.5 -30.5t36.5 -86.5q0 -51 -37 -80.5t-88 -29.5q-54 0 -89.5 29t-35.5 81z" />
    <glyph glyph-name="aring" unicode="&#xe5;" horiz-adv-x="1003" 
d="M680 0v186q-46 -105 -130.5 -155.5t-195.5 -50.5q-142 0 -224.5 84t-82.5 251q0 269 301 410l92 41q42 20 60 29t52.5 28.5t50.5 34t35.5 36t27.5 45.5t8 52v19q0 141 -164 141q-193 0 -193 -188v-89h-241v54q0 200 105.5 312t326.5 112q218 0 311.5 -102t93.5 -294v-956
h-233zM291 350q0 -157 151 -157q107 0 169.5 89t62.5 248v199q-7 -20 -19 -36t-36 -33t-38 -25.5t-51 -28.5q-12 -7 -18 -10l-78 -41q-70 -39 -106.5 -87.5t-36.5 -117.5zM336 1589q0 71 49.5 118.5t116.5 47.5t116.5 -47.5t49.5 -118.5t-49.5 -118.5t-116.5 -47.5
t-116.5 47.5t-49.5 118.5zM424 1589q0 -34 21.5 -56t56.5 -22t56.5 22t21.5 56t-21.5 56t-56.5 22t-56.5 -22t-21.5 -56z" />
    <glyph glyph-name="ae" unicode="&#xe6;" horiz-adv-x="1540" 
d="M391 -20q-166 0 -257 89.5t-91 262.5q0 72 17.5 130.5t44 99t74.5 79t91.5 63.5t112.5 58l86 29q85 35 128.5 81t43.5 129q0 71 -40 111.5t-116 40.5q-87 0 -127.5 -55.5t-40.5 -167.5v-47h-239v39q0 41 6.5 83t21 93t44 94.5t71 80.5t106 58t144.5 21q204 0 297 -138
q107 138 301 138t300 -123t106 -359v-258h-609v-151q0 -147 46.5 -214t138.5 -67q83 0 124.5 56.5t45.5 177.5v37h249v-37q-9 -210 -112.5 -322t-292.5 -112q-229 0 -328 180q-115 -180 -346 -180zM285 338q0 -69 39 -116.5t118 -47.5q80 0 133.5 43.5t65.5 118.5v362
q-12 -19 -36 -38t-42.5 -29.5t-54.5 -28.5l-88 -39q-135 -76 -135 -225zM866 788h361v107q-3 135 -47 195.5t-129 60.5q-94 0 -139.5 -66.5t-45.5 -214.5v-82z" />
    <glyph glyph-name="ccedilla" unicode="&#xe7;" horiz-adv-x="991" 
d="M690 928q-3 116 -48 169.5t-136 53.5q-100 0 -147.5 -60.5t-47.5 -193.5v-465q0 -133 47.5 -192.5t147.5 -59.5q93 0 137 53t47 170v129h246l-2 -88q-9 -439 -383 -462l-27 -109q221 27 221 -129q0 -90 -84.5 -129t-291.5 -39v90q143 0 199.5 13.5t56.5 60.5q0 26 -13 40
t-43.5 18t-67 1.5t-95.5 -10.5l47 193q-387 30 -387 491v385q0 244 109.5 369t328.5 125q212 0 319.5 -119.5t110.5 -345.5l2 -88h-246v129z" />
    <glyph glyph-name="egrave" unicode="&#xe8;" horiz-adv-x="1001" 
d="M848 1532l-21 -78l-669 150l20 79zM66 473v385q0 494 440 494q430 0 430 -492v-248h-625v-180q0 -133 48.5 -192.5t148.5 -59.5q87 0 129 48t45 157l2 70h248v-29q-12 -446 -426 -446q-440 0 -440 493zM311 788h379v136q-4 123 -49.5 175t-134.5 52q-99 0 -147 -60
t-48 -194v-109z" />
    <glyph glyph-name="eacute" unicode="&#xe9;" horiz-adv-x="1001" 
d="M190 1462l-20 78l645 152l21 -80zM66 473v385q0 494 440 494q430 0 430 -492v-248h-625v-180q0 -133 48.5 -192.5t148.5 -59.5q87 0 129 48t45 157l2 70h248v-29q-12 -446 -426 -446q-440 0 -440 493zM311 788h379v136q-4 123 -49.5 175t-134.5 52q-99 0 -147 -60
t-48 -194v-109z" />
    <glyph glyph-name="ecircumflex" unicode="&#xea;" horiz-adv-x="1001" 
d="M188 1458l244 238h143l240 -238h-139l-172 174l-176 -174h-140zM66 473v385q0 494 440 494q430 0 430 -492v-248h-625v-180q0 -133 48.5 -192.5t148.5 -59.5q87 0 129 48t45 157l2 70h248v-29q-12 -446 -426 -446q-440 0 -440 493zM311 788h379v136q-4 123 -49.5 175
t-134.5 52q-99 0 -147 -60t-48 -194v-109z" />
    <glyph glyph-name="edieresis" unicode="&#xeb;" horiz-adv-x="1001" 
d="M696 1440q-54 0 -89.5 29t-35.5 81q0 57 35.5 87t89.5 30q52 0 88.5 -30.5t36.5 -86.5q0 -51 -37 -80.5t-88 -29.5zM66 473v385q0 494 440 494q430 0 430 -492v-248h-625v-180q0 -133 48.5 -192.5t148.5 -59.5q87 0 129 48t45 157l2 70h248v-29q-12 -446 -426 -446
q-440 0 -440 493zM184 1550q0 57 35.5 87t89.5 30q52 0 88.5 -30.5t36.5 -86.5q0 -51 -37 -80.5t-88 -29.5q-54 0 -89.5 29t-35.5 81zM311 788h379v136q-4 123 -49.5 175t-134.5 52q-99 0 -147 -60t-48 -194v-109z" />
    <glyph glyph-name="igrave" unicode="&#xec;" horiz-adv-x="432" 
d="M96 1331h240v-1331h-240v1331zM-53 1606l26 77l512 -153l-24 -76z" />
    <glyph glyph-name="iacute" unicode="&#xed;" horiz-adv-x="432" 
d="M96 1331h240v-1331h-240v1331zM-53 1530l512 153l26 -77l-514 -152z" />
    <glyph glyph-name="icircumflex" unicode="&#xee;" horiz-adv-x="432" 
d="M96 1331h240v-1331h-240v1331zM12 1454l140 229h133l137 -229h-117l-86 152l-92 -152h-115z" />
    <glyph glyph-name="idieresis" unicode="&#xef;" horiz-adv-x="432" 
d="M96 1331h240v-1331h-240v1331zM-47 1552q0 45 28.5 73t69.5 28q40 0 70.5 -28.5t30.5 -72.5q0 -41 -30.5 -68.5t-70.5 -27.5q-41 0 -69.5 27t-28.5 69zM291 1552q0 45 28.5 73t69.5 28q40 0 70 -28.5t30 -72.5q0 -41 -30 -68.5t-70 -27.5q-41 0 -69.5 27t-28.5 69z" />
    <glyph glyph-name="eth" unicode="&#xf0;" horiz-adv-x="980" 
d="M492 -20q-210 0 -322.5 111t-112.5 341v176q0 193 94.5 308.5t270.5 115.5q170 0 252 -129q-38 233 -191 379l-348 -184v139l244 131q-108 73 -238 133l76 176q215 -79 367 -200l295 157v-141l-201 -107q242 -263 242 -724v-160q0 -146 -29.5 -248.5t-87.5 -161.5
t-134 -85.5t-177 -26.5zM301 420q0 -130 45.5 -185t140.5 -55q99 0 143 56t44 186v174q0 134 -48 184.5t-132 50.5q-98 0 -145.5 -53.5t-47.5 -177.5v-180z" />
    <glyph glyph-name="ntilde" unicode="&#xf1;" horiz-adv-x="1026" 
d="M336 1331v-166q39 78 112.5 132.5t186.5 54.5q303 0 303 -408v-944h-240v926q0 113 -39.5 169t-128.5 56q-45 0 -80 -14.5t-56 -37.5t-34.5 -55.5t-18.5 -64.5t-5 -68v-911h-240v1331h240zM188 1475q0 113 52 162t133 49q47 0 83.5 -15.5t59.5 -37.5t43 -44t45 -37.5
t55 -15.5q89 0 89 127h102q0 -115 -52.5 -163t-133.5 -48q-48 0 -85.5 15.5t-60.5 37.5t-42.5 44t-43.5 37.5t-53 15.5q-88 0 -88 -127h-103z" />
    <glyph glyph-name="ograve" unicode="&#xf2;" horiz-adv-x="1001" 
d="M502 -20q-218 0 -327 125t-109 368v385q0 243 109 368.5t327 125.5q217 0 325.5 -125.5t108.5 -368.5v-385q0 -243 -108.5 -368t-325.5 -125zM156 1604l20 79l670 -151l-21 -78zM311 434q0 -134 47 -194t144 -60q96 0 142 60t46 194v463q0 133 -46.5 193.5t-141.5 60.5
q-97 0 -144 -60.5t-47 -193.5v-463z" />
    <glyph glyph-name="oacute" unicode="&#xf3;" horiz-adv-x="1001" 
d="M502 -20q-218 0 -327 125t-109 368v385q0 243 109 368.5t327 125.5q217 0 325.5 -125.5t108.5 -368.5v-385q0 -243 -108.5 -368t-325.5 -125zM168 1540l645 152l21 -80l-646 -150zM311 434q0 -134 47 -194t144 -60q96 0 142 60t46 194v463q0 133 -46.5 193.5t-141.5 60.5
q-97 0 -144 -60.5t-47 -193.5v-463z" />
    <glyph glyph-name="ocircumflex" unicode="&#xf4;" horiz-adv-x="1001" 
d="M502 -20q-218 0 -327 125t-109 368v385q0 243 109 368.5t327 125.5q217 0 325.5 -125.5t108.5 -368.5v-385q0 -243 -108.5 -368t-325.5 -125zM186 1458l244 238h143l240 -238h-139l-172 174l-176 -174h-140zM311 434q0 -134 47 -194t144 -60q96 0 142 60t46 194v463
q0 133 -46.5 193.5t-141.5 60.5q-97 0 -144 -60.5t-47 -193.5v-463z" />
    <glyph glyph-name="otilde" unicode="&#xf5;" horiz-adv-x="1001" 
d="M502 -20q-218 0 -327 125t-109 368v385q0 243 109 368.5t327 125.5q217 0 325.5 -125.5t108.5 -368.5v-385q0 -243 -108.5 -368t-325.5 -125zM170 1475q0 59 15 101.5t42 65.5t58 33.5t69 10.5q47 0 83.5 -15.5t59.5 -37.5t43 -44t45.5 -37.5t55.5 -15.5q88 0 88 127h102
q0 -115 -52.5 -163t-133.5 -48q-48 0 -85.5 15.5t-60.5 37.5t-42.5 44t-43.5 37.5t-53 15.5q-88 0 -88 -127h-102zM311 434q0 -134 47 -194t144 -60q96 0 142 60t46 194v463q0 133 -46.5 193.5t-141.5 60.5q-97 0 -144 -60.5t-47 -193.5v-463z" />
    <glyph glyph-name="odieresis" unicode="&#xf6;" horiz-adv-x="1001" 
d="M502 -20q-218 0 -327 125t-109 368v385q0 243 109 368.5t327 125.5q217 0 325.5 -125.5t108.5 -368.5v-385q0 -243 -108.5 -368t-325.5 -125zM182 1550q0 57 35.5 87t89.5 30q52 0 88.5 -30.5t36.5 -86.5q0 -51 -37 -80.5t-88 -29.5q-54 0 -89.5 29t-35.5 81zM311 434
q0 -134 47 -194t144 -60q96 0 142 60t46 194v463q0 133 -46.5 193.5t-141.5 60.5q-97 0 -144 -60.5t-47 -193.5v-463zM569 1550q0 57 35.5 87t89.5 30q52 0 88.5 -30.5t36.5 -86.5q0 -51 -37 -80.5t-88 -29.5q-54 0 -89.5 29t-35.5 81z" />
    <glyph glyph-name="divide" unicode="&#xf7;" horiz-adv-x="1134" 
d="M567 1010q-26 0 -43.5 17.5t-17.5 43.5q0 25 17.5 43.5t43.5 18.5q25 0 43.5 -18.5t18.5 -43.5q0 -26 -18.5 -43.5t-43.5 -17.5zM66 780v86h1007v-86h-1007zM506 575q0 25 17.5 43.5t43.5 18.5q25 0 43.5 -18.5t18.5 -43.5q0 -26 -18.5 -43.5t-43.5 -17.5
q-26 0 -43.5 17.5t-17.5 43.5z" />
    <glyph glyph-name="oslash" unicode="&#xf8;" horiz-adv-x="1001" 
d="M502 -20q-128 0 -215 43l-84 -197h-115l109 256q-131 122 -131 391v385q0 243 109 368.5t327 125.5q128 0 215 -43l82 196h116l-108 -258q129 -123 129 -389v-385q0 -243 -108.5 -368t-325.5 -125zM311 434q0 -26 4 -72l316 744q-48 45 -129 45q-97 0 -144 -60.5
t-47 -193.5v-463zM373 225q45 -45 129 -45q96 0 142 60t46 194v463q0 24 -4 70z" />
    <glyph glyph-name="ugrave" unicode="&#xf9;" horiz-adv-x="1026" 
d="M690 0v166q-39 -78 -112.5 -132t-186.5 -54q-303 0 -303 407v944h240v-925q0 -113 39.5 -169.5t128.5 -56.5q45 0 80 14.5t56 37.5t34.5 55.5t18.5 64.5t5 68v911h240v-1331h-240zM158 1604l20 79l670 -151l-21 -78z" />
    <glyph glyph-name="uacute" unicode="&#xfa;" horiz-adv-x="1026" 
d="M690 0v166q-39 -78 -112.5 -132t-186.5 -54q-303 0 -303 407v944h240v-925q0 -113 39.5 -169.5t128.5 -56.5q45 0 80 14.5t56 37.5t34.5 55.5t18.5 64.5t5 68v911h240v-1331h-240zM170 1540l645 152l21 -80l-646 -150z" />
    <glyph glyph-name="ucircumflex" unicode="&#xfb;" horiz-adv-x="1026" 
d="M690 0v166q-39 -78 -112.5 -132t-186.5 -54q-303 0 -303 407v944h240v-925q0 -113 39.5 -169.5t128.5 -56.5q45 0 80 14.5t56 37.5t34.5 55.5t18.5 64.5t5 68v911h240v-1331h-240zM188 1458l244 238h143l240 -238h-139l-172 174l-176 -174h-140z" />
    <glyph glyph-name="udieresis" unicode="&#xfc;" horiz-adv-x="1026" 
d="M690 0v166q-39 -78 -112.5 -132t-186.5 -54q-303 0 -303 407v944h240v-925q0 -113 39.5 -169.5t128.5 -56.5q45 0 80 14.5t56 37.5t34.5 55.5t18.5 64.5t5 68v911h240v-1331h-240zM184 1550q0 57 35.5 87t89.5 30q52 0 88.5 -30.5t36.5 -86.5q0 -51 -37 -80.5t-88 -29.5
q-54 0 -89.5 29t-35.5 81zM571 1550q0 57 35.5 87t89.5 30q52 0 88.5 -30.5t36.5 -86.5q0 -51 -37 -80.5t-88 -29.5q-54 0 -89.5 29t-35.5 81z" />
    <glyph glyph-name="yacute" unicode="&#xfd;" horiz-adv-x="1024" 
d="M688 10v156q-39 -78 -112.5 -132t-186.5 -54q-303 0 -303 407v944h240v-925q0 -113 39.5 -169.5t128.5 -56.5q45 0 80 14.5t56 37.5t34.5 55.5t18.5 64.5t5 68v911h242v-1323q0 -238 -79 -336t-290 -98h-434v205h383q101 0 139.5 49.5t38.5 181.5zM174 1540l645 152
l21 -80l-645 -150z" />
    <glyph glyph-name="thorn" unicode="&#xfe;" horiz-adv-x="1034" 
d="M336 -426h-240v2081h240v-488q92 185 295 185q160 0 247 -109t87 -309v-553q0 -185 -86 -293t-248 -108q-57 0 -104.5 13.5t-83 38.5t-59.5 50.5t-48 58.5v-567zM338 422q0 -103 49.5 -171.5t147.5 -68.5q184 0 184 238v491q0 238 -184 238q-97 0 -147 -68.5t-50 -171.5
v-487z" />
    <glyph glyph-name="ydieresis" unicode="&#xff;" horiz-adv-x="1024" 
d="M688 10v156q-39 -78 -112.5 -132t-186.5 -54q-303 0 -303 407v944h240v-925q0 -113 39.5 -169.5t128.5 -56.5q45 0 80 14.5t56 37.5t34.5 55.5t18.5 64.5t5 68v911h242v-1323q0 -238 -79 -336t-290 -98h-434v205h383q101 0 139.5 49.5t38.5 181.5zM188 1550q0 57 35.5 87
t89.5 30q52 0 88.5 -30.5t36.5 -86.5q0 -51 -37 -80.5t-88 -29.5q-54 0 -89.5 29t-35.5 81zM575 1550q0 57 35.5 87t89.5 30q52 0 88.5 -30.5t36.5 -86.5q0 -51 -37 -80.5t-88 -29.5q-54 0 -89.5 29t-35.5 81z" />
    <glyph glyph-name="Amacron" unicode="&#x100;" horiz-adv-x="1032" 
d="M18 0l326 1655h344l326 -1655h-254l-53 307h-381l-52 -307h-256zM172 1851v82h690v-82h-690zM362 518h310l-150 873l-6 26l-6 -24z" />
    <glyph glyph-name="amacron" unicode="&#x101;" horiz-adv-x="1003" 
d="M680 0v186q-46 -105 -130.5 -155.5t-195.5 -50.5q-142 0 -224.5 84t-82.5 251q0 269 301 410l92 41q42 20 60 29t52.5 28.5t50.5 34t35.5 36t27.5 45.5t8 52v19q0 141 -164 141q-193 0 -193 -188v-89h-241v54q0 200 105.5 312t326.5 112q218 0 311.5 -102t93.5 -294v-956
h-233zM156 1528v82h690v-82h-690zM291 350q0 -157 151 -157q107 0 169.5 89t62.5 248v199q-7 -20 -19 -36t-36 -33t-38 -25.5t-51 -28.5q-12 -7 -18 -10l-78 -41q-70 -39 -106.5 -87.5t-36.5 -117.5z" />
    <glyph glyph-name="Abreve" unicode="&#x102;" horiz-adv-x="1032" 
d="M18 0l326 1655h344l326 -1655h-254l-53 307h-381l-52 -307h-256zM184 2009h103q0 -55 37 -89.5t86 -46t110 -11.5q44 0 82 7t72.5 22.5t54 45.5t19.5 72h102q0 -231 -330 -231q-70 0 -127.5 11t-106 36.5t-75.5 72t-27 111.5zM362 518h310l-150 873l-6 26l-6 -24z" />
    <glyph glyph-name="abreve" unicode="&#x103;" horiz-adv-x="1003" 
d="M680 0v186q-46 -105 -130.5 -155.5t-195.5 -50.5q-142 0 -224.5 84t-82.5 251q0 269 301 410l92 41q42 20 60 29t52.5 28.5t50.5 34t35.5 36t27.5 45.5t8 52v19q0 141 -164 141q-193 0 -193 -188v-89h-241v54q0 200 105.5 312t326.5 112q218 0 311.5 -102t93.5 -294v-956
h-233zM168 1686h102q0 -55 37.5 -90t86.5 -46.5t110 -11.5q44 0 82 7t72 23t53.5 46t19.5 72h103q0 -232 -330 -232q-55 0 -102.5 6.5t-91.5 23.5t-74.5 42.5t-49 66.5t-18.5 93zM291 350q0 -157 151 -157q107 0 169.5 89t62.5 248v199q-7 -20 -19 -36t-36 -33t-38 -25.5
t-51 -28.5q-12 -7 -18 -10l-78 -41q-70 -39 -106.5 -87.5t-36.5 -117.5z" />
    <glyph glyph-name="Aogonek" unicode="&#x104;" horiz-adv-x="1032" 
d="M18 0l326 1655h344l326 -1655q-108 -34 -160.5 -80t-52.5 -110q0 -62 53.5 -89.5t181.5 -27.5h21l-82 -103h-19q-126 0 -201 47.5t-75 137.5q0 48 20.5 86t57 64.5t74.5 43.5t86 31h-158l-53 307h-381l-52 -307h-256zM362 518h310l-150 873l-6 26l-6 -24z" />
    <glyph glyph-name="aogonek" unicode="&#x105;" horiz-adv-x="1003" 
d="M680 0v186q-46 -105 -130.5 -155.5t-195.5 -50.5q-142 0 -224.5 84t-82.5 251q0 269 301 410l92 41q42 20 60 29t52.5 28.5t50.5 34t35.5 36t27.5 45.5t8 52v19q0 141 -164 141q-193 0 -193 -188v-89h-241v54q0 200 105.5 312t326.5 112q218 0 311.5 -102t93.5 -294v-956
q-108 -34 -160.5 -80t-52.5 -110q0 -62 54 -89.5t182 -27.5h20l-82 -103h-18q-126 0 -201 47.5t-75 137.5q0 156 237 225h-137zM291 350q0 -157 151 -157q107 0 169.5 89t62.5 248v199q-7 -20 -19 -36t-36 -33t-38 -25.5t-51 -28.5q-12 -7 -18 -10l-78 -41
q-70 -39 -106.5 -87.5t-36.5 -117.5z" />
    <glyph glyph-name="Cacute" unicode="&#x106;" horiz-adv-x="1112" 
d="M565 -20q-244 0 -366.5 143t-122.5 403v604q0 259 123 402t366 143q233 0 355 -133.5t127 -374.5v-188h-254l-2 248q-6 241 -226 241q-235 0 -235 -278v-725q0 -279 235 -279q220 0 226 242l2 250h254v-189q-5 -241 -127 -375t-355 -134zM227 1864l645 151l21 -80
l-645 -149z" />
    <glyph glyph-name="cacute" unicode="&#x107;" horiz-adv-x="989" 
d="M690 928q-3 116 -48 169.5t-136 53.5q-100 0 -147.5 -60.5t-47.5 -193.5v-465q0 -133 47.5 -192.5t147.5 -59.5q93 0 137 53t47 170v129h246l-2 -88q-5 -227 -110.5 -345.5t-317.5 -118.5q-440 0 -440 493v385q0 244 109.5 369t328.5 125q212 0 319.5 -119.5
t110.5 -345.5l2 -88h-246v129zM172 1540l645 152l21 -80l-645 -150z" />
    <glyph glyph-name="Ccircumflex" unicode="&#x108;" horiz-adv-x="1112" 
d="M565 -20q-244 0 -366.5 143t-122.5 403v604q0 259 123 402t366 143q233 0 355 -133.5t127 -374.5v-188h-254l-2 248q-6 241 -226 241q-235 0 -235 -278v-725q0 -279 235 -279q220 0 226 242l2 250h254v-189q-5 -241 -127 -375t-355 -134zM248 1782l244 237h143l239 -237
h-139l-172 174l-176 -174h-139z" />
    <glyph glyph-name="ccircumflex" unicode="&#x109;" horiz-adv-x="989" 
d="M690 928q-3 116 -48 169.5t-136 53.5q-100 0 -147.5 -60.5t-47.5 -193.5v-465q0 -133 47.5 -192.5t147.5 -59.5q93 0 137 53t47 170v129h246l-2 -88q-5 -227 -110.5 -345.5t-317.5 -118.5q-440 0 -440 493v385q0 244 109.5 369t328.5 125q212 0 319.5 -119.5
t110.5 -345.5l2 -88h-246v129zM193 1458l243 238h144l239 -238h-139l-172 174l-176 -174h-139z" />
    <glyph glyph-name="Cdotaccent" unicode="&#x10a;" horiz-adv-x="1112" 
d="M565 -20q-244 0 -366.5 143t-122.5 403v604q0 259 123 402t366 143q233 0 355 -133.5t127 -374.5v-188h-254l-2 248q-6 241 -226 241q-235 0 -235 -278v-725q0 -279 235 -279q220 0 226 242l2 250h254v-189q-5 -241 -127 -375t-355 -134zM428 1888q0 52 35 86.5t98 34.5
t98 -34.5t35 -86.5q0 -48 -35 -81t-98 -33t-98 33t-35 81z" />
    <glyph glyph-name="cdotaccent" unicode="&#x10b;" horiz-adv-x="989" 
d="M690 928q-3 116 -48 169.5t-136 53.5q-100 0 -147.5 -60.5t-47.5 -193.5v-465q0 -133 47.5 -192.5t147.5 -59.5q93 0 137 53t47 170v129h246l-2 -88q-5 -227 -110.5 -345.5t-317.5 -118.5q-440 0 -440 493v385q0 244 109.5 369t328.5 125q212 0 319.5 -119.5
t110.5 -345.5l2 -88h-246v129zM352 1554q0 56 39.5 88.5t114.5 32.5q74 0 112.5 -32.5t38.5 -88.5q0 -52 -38.5 -84t-112.5 -32t-114 32t-40 84z" />
    <glyph glyph-name="Ccaron" unicode="&#x10c;" horiz-adv-x="1112" 
d="M565 -20q-244 0 -366.5 143t-122.5 403v604q0 259 123 402t366 143q233 0 355 -133.5t127 -374.5v-188h-254l-2 248q-6 241 -226 241q-235 0 -235 -278v-725q0 -279 235 -279q220 0 226 242l2 250h254v-189q-5 -241 -127 -375t-355 -134zM231 2015h144l188 -176l185 176
h143l-256 -237h-143z" />
    <glyph glyph-name="ccaron" unicode="&#x10d;" horiz-adv-x="989" 
d="M690 928q-3 116 -48 169.5t-136 53.5q-100 0 -147.5 -60.5t-47.5 -193.5v-465q0 -133 47.5 -192.5t147.5 -59.5q93 0 137 53t47 170v129h246l-2 -88q-5 -227 -110.5 -345.5t-317.5 -118.5q-440 0 -440 493v385q0 244 109.5 369t328.5 125q212 0 319.5 -119.5
t110.5 -345.5l2 -88h-246v129zM176 1692h143l189 -176l184 176h144l-256 -238h-144z" />
    <glyph glyph-name="Dcaron" unicode="&#x10e;" horiz-adv-x="1124" 
d="M104 0v1655h428q135 0 228.5 -25.5t159.5 -85.5t96.5 -161t30.5 -250v-611q0 -148 -30.5 -248.5t-96.5 -161t-159.5 -86.5t-228.5 -26h-428zM199 2015h143l188 -176l185 176h143l-256 -237h-143zM354 197h181q142 0 199 61.5t57 226.5v684q0 165 -58 227t-201 62h-178
v-1261z" />
    <glyph glyph-name="dcaron" unicode="&#x10f;" horiz-adv-x="1136" 
d="M696 1655h240v-1655h-240v160q-92 -180 -293 -180q-160 0 -246.5 108.5t-86.5 308.5v553q0 185 85.5 293.5t247.5 108.5q106 0 174 -44t119 -116v463zM315 420q0 -238 185 -238q97 0 146.5 68.5t49.5 171.5v487q0 104 -49 172t-147 68q-185 0 -185 -238v-491zM995 1186
l52 469h141l-96 -469h-97z" />
    <glyph glyph-name="Dcroat" unicode="&#x110;" horiz-adv-x="1177" 
d="M160 0v770h-135v129h135v756h428q135 0 228.5 -25.5t159 -85.5t96 -161t30.5 -250v-611q0 -148 -30.5 -248.5t-96 -161t-159 -86.5t-228.5 -26h-428zM410 197h180q142 0 199 61.5t57 226.5v684q0 165 -57.5 227t-200.5 62h-178v-559h256v-129h-256v-573z" />
    <glyph glyph-name="dcroat" unicode="&#x111;" horiz-adv-x="1032" 
d="M696 1655h240v-101h145v-122h-145v-1432h-240v160q-92 -180 -293 -180q-160 0 -246.5 108.5t-86.5 308.5v553q0 185 85.5 293.5t247.5 108.5q106 0 174 -44t119 -116v240h-297v122h297v101zM315 420q0 -238 185 -238q97 0 146.5 68.5t49.5 171.5v487q0 104 -49 172
t-147 68q-185 0 -185 -238v-491z" />
    <glyph glyph-name="Emacron" unicode="&#x112;" horiz-adv-x="931" 
d="M104 0v1655h762v-211h-512v-512h484v-209h-484v-512h512v-211h-762zM139 1851v82h690v-82h-690z" />
    <glyph glyph-name="emacron" unicode="&#x113;" horiz-adv-x="1001" 
d="M158 1528v82h690v-82h-690zM66 473v385q0 494 440 494q430 0 430 -492v-248h-625v-180q0 -133 48.5 -192.5t148.5 -59.5q87 0 129 48t45 157l2 70h248v-29q-12 -446 -426 -446q-440 0 -440 493zM311 788h379v136q-4 123 -49.5 175t-134.5 52q-99 0 -147 -60t-48 -194
v-109z" />
    <glyph glyph-name="Edotaccent" unicode="&#x116;" horiz-adv-x="931" 
d="M104 0v1655h762v-211h-512v-512h484v-209h-484v-512h512v-211h-762zM354 1888q0 52 35 86.5t98 34.5t98.5 -34.5t35.5 -86.5q0 -48 -35.5 -81t-98.5 -33t-98 33t-35 81z" />
    <glyph glyph-name="edotaccent" unicode="&#x117;" horiz-adv-x="1001" 
d="M504 1438q-74 0 -114 32t-40 84q0 56 39.5 88.5t114.5 32.5q74 0 112.5 -32.5t38.5 -88.5q0 -52 -38.5 -84t-112.5 -32zM66 473v385q0 494 440 494q430 0 430 -492v-248h-625v-180q0 -133 48.5 -192.5t148.5 -59.5q87 0 129 48t45 157l2 70h248v-29q-12 -446 -426 -446
q-440 0 -440 493zM311 788h379v136q-4 123 -49.5 175t-134.5 52q-99 0 -147 -60t-48 -194v-109z" />
    <glyph glyph-name="Eogonek" unicode="&#x118;" horiz-adv-x="931" 
d="M104 0v1655h762v-211h-512v-512h484v-209h-484v-512h512v-211h-2q-108 -34 -160.5 -80t-52.5 -110q0 -62 54 -89.5t182 -27.5h20l-82 -103h-18q-126 0 -201.5 47.5t-75.5 137.5q0 48 20.5 86t57 64.5t74.5 43.5t86 31h-664z" />
    <glyph glyph-name="eogonek" unicode="&#x119;" horiz-adv-x="1001" 
d="M602 -410q-126 0 -201 47.5t-75 137.5q0 134 176 205q-436 3 -436 493v385q0 494 440 494q430 0 430 -492v-248h-625v-180q0 -133 48.5 -192.5t148.5 -59.5q87 0 129 48t45 157l2 70h248v-29q-9 -365 -291 -432q-99 -34 -147 -78.5t-48 -105.5q0 -62 54 -89.5t182 -27.5
h20l-81 -103h-19zM311 788h379v136q-4 123 -49.5 175t-134.5 52q-99 0 -147 -60t-48 -194v-109z" />
    <glyph glyph-name="Ecaron" unicode="&#x11a;" horiz-adv-x="931" 
d="M104 0v1655h762v-211h-512v-512h484v-209h-484v-512h512v-211h-762zM156 2015h143l188 -176l185 176h143l-256 -237h-143z" />
    <glyph glyph-name="ecaron" unicode="&#x11b;" horiz-adv-x="1001" 
d="M432 1454l-260 238h143l189 -176l184 176h143l-256 -238h-143zM66 473v385q0 494 440 494q430 0 430 -492v-248h-625v-180q0 -133 48.5 -192.5t148.5 -59.5q87 0 129 48t45 157l2 70h248v-29q-12 -446 -426 -446q-440 0 -440 493zM311 788h379v136q-4 123 -49.5 175
t-134.5 52q-99 0 -147 -60t-48 -194v-109z" />
    <glyph glyph-name="Gcircumflex" unicode="&#x11c;" horiz-adv-x="1130" 
d="M532 -20q-217 0 -336.5 143t-119.5 391v616q0 258 122.5 401.5t364.5 143.5q231 0 353.5 -131.5t127.5 -369.5v-160h-253l-3 219q-5 235 -223 235q-120 0 -177.5 -68t-57.5 -208v-727q0 -140 56 -209.5t175 -69.5q112 0 167 61t60 189v219h-258v195h514v-850h-129
l-30 158q-121 -178 -353 -178zM250 1782l244 237h143l240 -237h-140l-172 174l-176 -174h-139z" />
    <glyph glyph-name="gcircumflex" unicode="&#x11d;" horiz-adv-x="1030" 
d="M696 18v142q-92 -180 -293 -180q-160 0 -246.5 108.5t-86.5 308.5v553q0 185 85.5 293.5t247.5 108.5q106 0 174 -44t119 -116v139h240v-1325q0 -118 -16 -194.5t-57.5 -132.5t-114.5 -80.5t-185 -24.5h-430v205h381q104 0 143 51t39 188zM184 1458l244 238h143l240 -238
h-139l-172 174l-176 -174h-140zM315 420q0 -238 185 -238q97 0 146.5 68.5t49.5 171.5v487q0 104 -49 172t-147 68q-185 0 -185 -238v-491z" />
    <glyph glyph-name="Gbreve" unicode="&#x11e;" horiz-adv-x="1130" 
d="M532 -20q-217 0 -336.5 143t-119.5 391v616q0 258 122.5 401.5t364.5 143.5q231 0 353.5 -131.5t127.5 -369.5v-160h-253l-3 219q-5 235 -223 235q-120 0 -177.5 -68t-57.5 -208v-727q0 -140 56 -209.5t175 -69.5q112 0 167 61t60 189v219h-258v195h514v-850h-129
l-30 158q-121 -178 -353 -178zM229 2009h103q0 -55 37 -89.5t86 -46t110 -11.5q44 0 82 7t72.5 22.5t54 45.5t19.5 72h102q0 -231 -330 -231q-70 0 -127.5 11t-106 36.5t-75.5 72t-27 111.5z" />
    <glyph glyph-name="gbreve" unicode="&#x11f;" horiz-adv-x="1030" 
d="M696 18v142q-92 -180 -293 -180q-160 0 -246.5 108.5t-86.5 308.5v553q0 185 85.5 293.5t247.5 108.5q106 0 174 -44t119 -116v139h240v-1325q0 -118 -16 -194.5t-57.5 -132.5t-114.5 -80.5t-185 -24.5h-430v205h381q104 0 143 51t39 188zM164 1686h102q0 -55 37.5 -90
t86.5 -46.5t110 -11.5q44 0 82 7t72 23t53.5 46t19.5 72h102q0 -232 -329 -232q-55 0 -102.5 6.5t-91.5 23.5t-74.5 42.5t-49 66.5t-18.5 93zM315 420q0 -238 185 -238q97 0 146.5 68.5t49.5 171.5v487q0 104 -49 172t-147 68q-185 0 -185 -238v-491z" />
    <glyph glyph-name="Gdotaccent" unicode="&#x120;" horiz-adv-x="1130" 
d="M532 -20q-217 0 -336.5 143t-119.5 391v616q0 258 122.5 401.5t364.5 143.5q231 0 353.5 -131.5t127.5 -369.5v-160h-253l-3 219q-5 235 -223 235q-120 0 -177.5 -68t-57.5 -208v-727q0 -140 56 -209.5t175 -69.5q112 0 167 61t60 189v219h-258v195h514v-850h-129
l-30 158q-121 -178 -353 -178zM432 1888q0 52 35 86.5t98 34.5t98 -34.5t35 -86.5q0 -48 -35 -81t-98 -33t-98 33t-35 81z" />
    <glyph glyph-name="gdotaccent" unicode="&#x121;" horiz-adv-x="1030" 
d="M696 18v142q-92 -180 -293 -180q-160 0 -246.5 108.5t-86.5 308.5v553q0 185 85.5 293.5t247.5 108.5q106 0 174 -44t119 -116v139h240v-1325q0 -118 -16 -194.5t-57.5 -132.5t-114.5 -80.5t-185 -24.5h-430v205h381q104 0 143 51t39 188zM315 420q0 -238 185 -238
q97 0 146.5 68.5t49.5 171.5v487q0 104 -49 172t-147 68q-185 0 -185 -238v-491zM346 1554q0 56 39.5 88.5t114.5 32.5q74 0 112.5 -32.5t38.5 -88.5q0 -52 -38.5 -84t-112.5 -32t-114 32t-40 84z" />
    <glyph glyph-name="uni0122" unicode="&#x122;" horiz-adv-x="1130" 
d="M532 -20q-217 0 -336.5 143t-119.5 391v616q0 258 122.5 401.5t364.5 143.5q231 0 353.5 -131.5t127.5 -369.5v-160h-253l-3 219q-5 235 -223 235q-120 0 -177.5 -68t-57.5 -208v-727q0 -140 56 -209.5t175 -69.5q112 0 167 61t60 189v219h-258v195h514v-850h-129
l-30 158q-121 -178 -353 -178zM455 -176q0 46 29.5 75t76.5 29t75 -32.5t28 -92.5q0 -71 -46.5 -135t-134.5 -106v88q102 32 127 114q-28 -36 -69 -36q-36 0 -61 26t-25 70z" />
    <glyph glyph-name="uni0123" unicode="&#x123;" horiz-adv-x="1030" 
d="M696 18v142q-92 -180 -293 -180q-160 0 -246.5 108.5t-86.5 308.5v553q0 185 85.5 293.5t247.5 108.5q106 0 174 -44t119 -116v139h240v-1325q0 -118 -16 -194.5t-57.5 -132.5t-114.5 -80.5t-185 -24.5h-430v205h381q104 0 143 51t39 188zM315 420q0 -238 185 -238
q97 0 146.5 68.5t49.5 171.5v487q0 104 -49 172t-147 68q-185 0 -185 -238v-491zM393 1550q0 72 46.5 136.5t135.5 107.5v-88q-102 -31 -129 -115q27 35 70 35q36 0 61 -26t25 -70t-29 -73.5t-75 -29.5q-49 0 -77 31.5t-28 91.5z" />
    <glyph glyph-name="Hcircumflex" unicode="&#x124;" 
d="M774 0v723h-420v-723h-250v1655h250v-723h420v723h250v-1655h-250zM250 1782l244 237h143l240 -237h-140l-172 174l-176 -174h-139z" />
    <glyph glyph-name="hcircumflex" unicode="&#x125;" horiz-adv-x="1026" 
d="M336 1655v-490q39 78 112.5 132.5t186.5 54.5q303 0 303 -408v-944h-240v926q0 113 -39.5 169t-128.5 56q-45 0 -80 -14.5t-56 -37.5t-34.5 -55.5t-18.5 -64.5t-5 -68v-911h-240v1655h240zM-100 1782l243 237h144l239 -237h-139l-172 174l-176 -174h-139z" />
    <glyph glyph-name="Hbar" unicode="&#x126;" horiz-adv-x="1245" 
d="M834 0v723h-420v-723h-250v1266h-141v129h141v260h250v-260h420v260h249v-260h138v-129h-138v-1266h-249zM414 932h420v334h-420v-334z" />
    <glyph glyph-name="hbar" unicode="&#x127;" horiz-adv-x="1026" 
d="M336 1655v-117h291v-123h-291v-250q39 78 112.5 132.5t186.5 54.5q303 0 303 -408v-944h-240v926q0 113 -39.5 169t-128.5 56q-45 0 -80 -14.5t-56 -37.5t-34.5 -55.5t-18.5 -64.5t-5 -68v-911h-240v1415h-151v123h151v117h240z" />
    <glyph glyph-name="Itilde" unicode="&#x128;" horiz-adv-x="628" 
d="M82 0v223h106v1209h-106v223h463v-223h-107v-1209h107v-223h-463zM-18 1798q0 59 15 101.5t42 65.5t58 33.5t69 10.5q47 0 83.5 -15.5t59.5 -37.5t43 -43.5t45.5 -37t55.5 -15.5q88 0 88 127h102q0 -115 -52.5 -163t-133.5 -48q-48 0 -85.5 15.5t-60.5 37t-42.5 43.5
t-43.5 37.5t-53 15.5q-88 0 -88 -127h-102z" />
    <glyph glyph-name="itilde" unicode="&#x129;" horiz-adv-x="432" 
d="M96 1331h240v-1331h-240v1331zM-115 1475q0 113 52 162t133 49q47 0 83.5 -15.5t59.5 -37.5t43 -44t45 -37.5t55 -15.5q88 0 88 127h103q0 -114 -53 -162.5t-134 -48.5q-48 0 -85.5 15.5t-60 37.5t-42 44t-43.5 37.5t-53 15.5q-88 0 -88 -127h-103z" />
    <glyph glyph-name="Imacron" unicode="&#x12a;" horiz-adv-x="628" 
d="M82 0v223h106v1209h-106v223h463v-223h-107v-1209h107v-223h-463zM-33 1851v82h690v-82h-690z" />
    <glyph glyph-name="imacron" unicode="&#x12b;" horiz-adv-x="432" 
d="M96 1331h240v-1331h-240v1331zM-53 1528v82h538v-82h-538z" />
    <glyph glyph-name="Iogonek" unicode="&#x12e;" horiz-adv-x="628" 
d="M82 0v223h106v1209h-106v223h463v-223h-107v-1209h107v-223q-108 -34 -160.5 -80t-52.5 -110q0 -62 53.5 -89.5t181.5 -27.5h21l-82 -103h-19q-126 0 -201 47.5t-75 137.5q0 48 20.5 86t57 64.5t74.5 43.5t86 31h-367z" />
    <glyph glyph-name="iogonek" unicode="&#x12f;" horiz-adv-x="432" 
d="M96 1331h240v-1331q-108 -34 -160.5 -80t-52.5 -110q0 -62 53.5 -89.5t181.5 -27.5h21l-82 -103h-18q-126 0 -201.5 47.5t-75.5 137.5q0 48 20.5 86t57 64.5t74.5 43.5t86 31h-144v1331zM63 1554q0 56 39.5 88.5t114.5 32.5q74 0 113 -32.5t39 -88.5q0 -52 -39 -84
t-113 -32t-114 32t-40 84z" />
    <glyph glyph-name="Idotaccent" unicode="&#x130;" horiz-adv-x="628" 
d="M82 0v223h106v1209h-106v223h463v-223h-107v-1209h107v-223h-463zM180 1888q0 52 35 86.5t98 34.5t98 -34.5t35 -86.5q0 -48 -35 -81t-98 -33t-98 33t-35 81z" />
    <glyph glyph-name="dotlessi" unicode="&#x131;" horiz-adv-x="432" 
d="M96 1331h240v-1331h-240v1331z" />
    <glyph glyph-name="IJ" unicode="&#x132;" horiz-adv-x="1665" 
d="M82 0v223h106v1209h-106v223h463v-223h-107v-1209h107v-223h-463zM670 496v102h256v-164q0 -136 46 -192t148 -56q100 0 147.5 55.5t47.5 188.5v1225h254v-1166q0 -254 -110 -381.5t-339 -127.5t-339.5 129t-110.5 387z" />
    <glyph glyph-name="ij" unicode="&#x133;" horiz-adv-x="821" 
d="M96 1331h240v-1331h-240v1331zM63 1554q0 56 39.5 88.5t114.5 32.5q74 0 113 -32.5t39 -88.5q0 -52 -39 -84t-113 -32t-114 32t-40 84zM203 -426v205h108q98 0 135 46.5t37 174.5v1331h240v-1343q0 -228 -76 -321t-278 -93h-166zM451 1554q0 56 39 88.5t114 32.5
q74 0 113 -32.5t39 -88.5q0 -52 -39 -84t-113 -32t-113.5 32t-39.5 84z" />
    <glyph glyph-name="Jcircumflex" unicode="&#x134;" horiz-adv-x="1032" 
d="M487 -20q-229 0 -339.5 129t-110.5 387v102h256v-164q0 -136 46 -192t148 -56q100 0 147.5 55.5t47.5 188.5v1225h254v-1166q0 -254 -110 -381.5t-339 -127.5zM489 1782l244 237h144l239 -237h-139l-172 174l-176 -174h-140z" />
    <glyph glyph-name="jcircumflex" unicode="&#x135;" horiz-adv-x="432" 
d="M96 0v1331h240v-1343q0 -228 -76 -321t-278 -93h-166v205h108q98 0 135 46.5t37 174.5zM-98 1458l243 238h144l239 -238h-139l-172 174l-176 -174h-139z" />
    <glyph glyph-name="uni0136" unicode="&#x136;" horiz-adv-x="1050" 
d="M768 0l-356 715h-58v-715h-250v1655h250v-715h58l356 715h276l-434 -828l434 -827h-276zM442 -176q0 46 30 75t77 29t74.5 -32.5t27.5 -92.5q0 -71 -46 -135.5t-134 -105.5v88q102 32 127 114q-28 -36 -70 -36q-36 0 -61 26t-25 70z" />
    <glyph glyph-name="uni0137" unicode="&#x137;" horiz-adv-x="983" 
d="M96 1655h240v-883h59l314 559h270l-395 -665l395 -666h-270l-320 569h-53v-569h-240v1655zM422 -176q0 46 29.5 75t76.5 29t75 -32.5t28 -92.5q0 -71 -46 -135.5t-134 -105.5v88q102 32 127 114q-28 -36 -70 -36q-36 0 -61 26t-25 70z" />
    <glyph glyph-name="Lacute" unicode="&#x139;" horiz-adv-x="894" 
d="M104 0v1655h250v-1444h514v-211h-764zM133 1864l645 151l21 -80l-645 -149z" />
    <glyph glyph-name="lacute" unicode="&#x13a;" horiz-adv-x="432" 
d="M96 1655h240v-1655h-240v1655zM-117 1864l645 151l21 -80l-645 -149z" />
    <glyph glyph-name="uni013B" unicode="&#x13b;" horiz-adv-x="894" 
d="M104 0v1655h250v-1444h514v-211h-764zM354 -176q0 46 30 75t77 29t74.5 -32.5t27.5 -92.5q0 -71 -46 -135.5t-134 -105.5v88q102 32 127 114q-28 -36 -70 -36q-36 0 -61 26t-25 70z" />
    <glyph glyph-name="uni013C" unicode="&#x13c;" horiz-adv-x="432" 
d="M96 1655h240v-1655h-240v1655zM111 -176q0 46 29.5 75t76.5 29t74.5 -32.5t27.5 -92.5q0 -71 -46 -135.5t-134 -105.5v88q102 32 127 114q-28 -36 -69 -36q-36 0 -61 26t-25 70z" />
    <glyph glyph-name="Lcaron" unicode="&#x13d;" horiz-adv-x="899" 
d="M104 0v1655h250v-1444h514v-211h-764zM565 1186l51 469h142l-96 -469h-97z" />
    <glyph glyph-name="lcaron" unicode="&#x13e;" horiz-adv-x="536" 
d="M96 1655h240v-1655h-240v1655zM401 1186l52 469h141l-96 -469h-97z" />
    <glyph glyph-name="Lslash" unicode="&#x141;" horiz-adv-x="980" 
d="M190 0v655l-159 -92v146l159 92v854h250v-709l256 150v-148l-256 -147v-590h514v-211h-764z" />
    <glyph glyph-name="lslash" unicode="&#x142;" horiz-adv-x="745" 
d="M256 1655h240v-697l229 132v-146l-229 -131v-813h-240v678l-231 -131v143l231 131v834z" />
    <glyph glyph-name="Nacute" unicode="&#x143;" horiz-adv-x="1142" 
d="M104 0v1655h230l477 -1104v1104h229v-1655h-231l-475 1104v-1104h-230zM240 1864l645 151l20 -80l-645 -149z" />
    <glyph glyph-name="nacute" unicode="&#x144;" horiz-adv-x="1026" 
d="M336 1331v-166q39 78 112.5 132.5t186.5 54.5q303 0 303 -408v-944h-240v926q0 113 -39.5 169t-128.5 56q-45 0 -80 -14.5t-56 -37.5t-34.5 -55.5t-18.5 -64.5t-5 -68v-911h-240v1331h240zM186 1540l645 152l21 -80l-645 -150z" />
    <glyph glyph-name="uni0145" unicode="&#x145;" horiz-adv-x="1142" 
d="M104 0v1655h230l477 -1104v1104h229v-1655h-231l-475 1104v-1104h-230zM469 -176q0 46 29.5 75t76.5 29t75 -32.5t28 -92.5q0 -71 -46 -135.5t-134 -105.5v88q102 32 127 114q-28 -36 -70 -36q-36 0 -61 26t-25 70z" />
    <glyph glyph-name="uni0146" unicode="&#x146;" horiz-adv-x="1026" 
d="M336 1331v-166q39 78 112.5 132.5t186.5 54.5q303 0 303 -408v-944h-240v926q0 113 -39.5 169t-128.5 56q-45 0 -80 -14.5t-56 -37.5t-34.5 -55.5t-18.5 -64.5t-5 -68v-911h-240v1331h240zM416 -176q0 46 29.5 75t76.5 29t75 -32.5t28 -92.5q0 -71 -46.5 -135
t-134.5 -106v88q102 32 127 114q-28 -36 -69 -36q-36 0 -61 26t-25 70z" />
    <glyph glyph-name="Ncaron" unicode="&#x147;" horiz-adv-x="1142" 
d="M104 0v1655h230l477 -1104v1104h229v-1655h-231l-475 1104v-1104h-230zM242 2015h143l188 -176l185 176h143l-256 -237h-143z" />
    <glyph glyph-name="ncaron" unicode="&#x148;" horiz-adv-x="1026" 
d="M336 1331v-166q39 78 112.5 132.5t186.5 54.5q303 0 303 -408v-944h-240v926q0 113 -39.5 169t-128.5 56q-45 0 -80 -14.5t-56 -37.5t-34.5 -55.5t-18.5 -64.5t-5 -68v-911h-240v1331h240zM188 1692h144l188 -176l185 176h143l-256 -238h-143z" />
    <glyph glyph-name="Eng" unicode="&#x14a;" horiz-adv-x="1142" 
d="M104 0v1655h230l477 -1104v1104h229v-1655q-1 -79 -6.5 -134t-19.5 -104t-37.5 -79t-60.5 -52t-88 -31.5t-121 -9.5h-97v226h78q78 0 104 38.5t17 145.5l-475 1104v-1104h-230z" />
    <glyph glyph-name="eng" unicode="&#x14b;" horiz-adv-x="1026" 
d="M336 1331v-166q39 78 112.5 132.5t186.5 54.5q303 0 303 -408v-944q0 -114 -14 -186.5t-52 -125.5t-105 -75.5t-173 -22.5h-148v205h93q89 0 124 44t35 161v926q0 113 -39.5 169t-128.5 56q-45 0 -80 -14.5t-56 -37.5t-34.5 -55.5t-18.5 -64.5t-5 -68v-911h-240v1331h240
z" />
    <glyph glyph-name="Omacron" unicode="&#x14c;" horiz-adv-x="1126" 
d="M563 -20q-241 0 -364 143t-123 401v606q0 258 123 401.5t364 143.5t365.5 -144t124.5 -401v-606q0 -257 -124.5 -400.5t-365.5 -143.5zM217 1851v82h690v-82h-690zM330 465q0 -279 233 -279q234 0 234 279v723q0 280 -234 280q-233 0 -233 -278v-725z" />
    <glyph glyph-name="omacron" unicode="&#x14d;" horiz-adv-x="1001" 
d="M502 -20q-218 0 -327 125t-109 368v385q0 243 109 368.5t327 125.5q217 0 325.5 -125.5t108.5 -368.5v-385q0 -243 -108.5 -368t-325.5 -125zM156 1528v82h690v-82h-690zM311 434q0 -134 47 -194t144 -60q96 0 142 60t46 194v463q0 133 -46.5 193.5t-141.5 60.5
q-97 0 -144 -60.5t-47 -193.5v-463z" />
    <glyph glyph-name="Ohungarumlaut" unicode="&#x150;" horiz-adv-x="1126" 
d="M563 -20q-241 0 -364 143t-123 401v606q0 258 123 401.5t364 143.5t365.5 -144t124.5 -401v-606q0 -257 -124.5 -400.5t-365.5 -143.5zM330 465q0 -279 233 -279q234 0 234 279v723q0 280 -234 280q-233 0 -233 -278v-725zM375 1778l241 229h121l-221 -229h-141z
M616 1778l242 229h121l-221 -229h-142z" />
    <glyph glyph-name="ohungarumlaut" unicode="&#x151;" horiz-adv-x="1001" 
d="M502 -20q-218 0 -327 125t-109 368v385q0 243 109 368.5t327 125.5q217 0 325.5 -125.5t108.5 -368.5v-385q0 -243 -108.5 -368t-325.5 -125zM311 434q0 -134 47 -194t144 -60q96 0 142 60t46 194v463q0 133 -46.5 193.5t-141.5 60.5q-97 0 -144 -60.5t-47 -193.5v-463z
M313 1454l242 229h121l-221 -229h-142zM555 1454l242 229h121l-222 -229h-141z" />
    <glyph glyph-name="OE" unicode="&#x152;" horiz-adv-x="1462" 
d="M481 -20q-104 0 -182 37.5t-126 107t-71.5 162t-23.5 207.5v669q0 236 99.5 374t301.5 138q201 0 293 -157v137h623v-211h-420v-512h397v-209h-397v-514h420v-209h-623v137q-92 -157 -291 -157zM332 455q0 -271 190 -271q96 0 146.5 65t50.5 177v805q0 110 -50.5 174.5
t-146.5 64.5q-190 0 -190 -270v-745z" />
    <glyph glyph-name="oe" unicode="&#x153;" horiz-adv-x="1576" 
d="M479 -20q-192 0 -301.5 123.5t-109.5 355.5v413q0 233 109 356.5t302 123.5q216 0 316 -164q96 164 315 164q194 0 297.5 -120t103.5 -358v-262h-606v-184q1 -130 48.5 -189t136.5 -59q80 0 122 48.5t48 156.5v70h247v-43q-9 -212 -111 -322t-290 -110q-218 0 -313 163
q-100 -163 -314 -163zM311 432q0 -252 183 -252q91 0 137.5 60.5t46.5 191.5v467q0 131 -46.5 191.5t-137.5 60.5q-183 0 -183 -252v-467zM907 788h359v136q-3 122 -47.5 174.5t-128.5 52.5q-87 0 -133.5 -55.5t-49.5 -180.5v-127z" />
    <glyph glyph-name="Racute" unicode="&#x154;" horiz-adv-x="1105" 
d="M795 0q-23 25 -23 147v328q0 207 -207 207h-211v-682h-250v1655h461q127 0 212 -21.5t142 -73t82 -134t25 -207.5v-25q0 -178 -50.5 -270t-174.5 -138q223 -70 223 -340v-299q0 -106 25 -147h-254zM193 1864l645 151l20 -80l-645 -149zM354 879h211q113 0 160 53.5
t47 165.5v151q0 125 -46 167t-165 42h-207v-579z" />
    <glyph glyph-name="racute" unicode="&#x155;" horiz-adv-x="925" 
d="M336 1331v-166q36 82 109 134.5t173 52.5q279 0 279 -365v-149h-242v100q0 113 -30.5 163t-106.5 50q-52 0 -89.5 -22.5t-56.5 -59.5t-27.5 -76t-8.5 -80v-913h-240v1331h240zM174 1540l645 152l21 -80l-645 -150z" />
    <glyph glyph-name="uni0156" unicode="&#x156;" horiz-adv-x="1105" 
d="M795 0q-23 25 -23 147v328q0 207 -207 207h-211v-682h-250v1655h461q127 0 212 -21.5t142 -73t82 -134t25 -207.5v-25q0 -178 -50.5 -270t-174.5 -138q223 -70 223 -340v-299q0 -106 25 -147h-254zM354 879h211q113 0 160 53.5t47 165.5v151q0 125 -46 167t-165 42h-207
v-579zM463 -176q0 46 29.5 75t76.5 29t75 -32.5t28 -92.5q0 -71 -46 -135.5t-134 -105.5v88q101 32 126 114q-28 -36 -69 -36q-36 0 -61 26t-25 70z" />
    <glyph glyph-name="uni0157" unicode="&#x157;" horiz-adv-x="925" 
d="M336 1331v-166q36 82 109 134.5t173 52.5q279 0 279 -365v-149h-242v100q0 113 -30.5 163t-106.5 50q-52 0 -89.5 -22.5t-56.5 -59.5t-27.5 -76t-8.5 -80v-913h-240v1331h240zM115 -176q0 46 29.5 75t76.5 29t75 -32.5t28 -92.5q0 -71 -46.5 -135t-134.5 -106v88
q102 32 127 114q-28 -36 -69 -36q-36 0 -61 26t-25 70z" />
    <glyph glyph-name="Rcaron" unicode="&#x158;" horiz-adv-x="1105" 
d="M795 0q-23 25 -23 147v328q0 207 -207 207h-211v-682h-250v1655h461q127 0 212 -21.5t142 -73t82 -134t25 -207.5v-25q0 -178 -50.5 -270t-174.5 -138q223 -70 223 -340v-299q0 -106 25 -147h-254zM197 2015h143l188 -176l185 176h143l-256 -237h-143zM354 879h211
q113 0 160 53.5t47 165.5v151q0 125 -46 167t-165 42h-207v-579z" />
    <glyph glyph-name="rcaron" unicode="&#x159;" horiz-adv-x="925" 
d="M336 1331v-166q36 82 109 134.5t173 52.5q279 0 279 -365v-149h-242v100q0 113 -30.5 163t-106.5 50q-52 0 -89.5 -22.5t-56.5 -59.5t-27.5 -76t-8.5 -80v-913h-240v1331h240zM176 1692h143l189 -176l184 176h144l-256 -238h-144z" />
    <glyph glyph-name="Sacute" unicode="&#x15a;" horiz-adv-x="1046" 
d="M530 -20q-477 0 -477 493v100h256v-161q0 -125 53.5 -176.5t172.5 -51.5q106 0 153 45t47 150v57q0 107 -39.5 161.5t-134.5 102.5l-215 123q-89 53 -145 107.5t-91.5 136.5t-35.5 188q0 200 113 310t335 110t338.5 -111t116.5 -325v-96h-254v117q0 118 -49 164t-154 46
q-99 0 -145.5 -40.5t-46.5 -135.5v-39q0 -90 39.5 -142.5t121.5 -94.5l216 -123q70 -40 117 -77t87.5 -91t60 -127t19.5 -168q0 -227 -111.5 -339.5t-347.5 -112.5zM186 1864l645 151l21 -80l-645 -149z" />
    <glyph glyph-name="sacute" unicode="&#x15b;" horiz-adv-x="962" 
d="M672 715q128 -67 182.5 -147.5t54.5 -207.5q0 -81 -21.5 -146.5t-68.5 -119.5t-132 -84t-202 -30q-436 0 -436 395v86h246v-82q0 -106 45.5 -152.5t146.5 -46.5q96 0 136.5 40t40.5 126q0 68 -31.5 111t-124.5 98l-203 111q-120 57 -179.5 135t-59.5 200q0 57 13 106.5
t43.5 95.5t77 78.5t118 51.5t161.5 19q214 0 317 -98.5t103 -280.5v-68h-246v66q0 97 -43 138.5t-133 41.5q-80 0 -123 -35t-43 -104q0 -56 28.5 -92.5t98.5 -73.5zM147 1540l646 152l20 -80l-645 -150z" />
    <glyph glyph-name="Scircumflex" unicode="&#x15c;" horiz-adv-x="1046" 
d="M530 -20q-477 0 -477 493v100h256v-161q0 -125 53.5 -176.5t172.5 -51.5q106 0 153 45t47 150v57q0 107 -39.5 161.5t-134.5 102.5l-215 123q-89 53 -145 107.5t-91.5 136.5t-35.5 188q0 200 113 310t335 110t338.5 -111t116.5 -325v-96h-254v117q0 118 -49 164t-154 46
q-99 0 -145.5 -40.5t-46.5 -135.5v-39q0 -90 39.5 -142.5t121.5 -94.5l216 -123q70 -40 117 -77t87.5 -91t60 -127t19.5 -168q0 -227 -111.5 -339.5t-347.5 -112.5zM207 1782l244 237h143l240 -237h-140l-172 174l-176 -174h-139z" />
    <glyph glyph-name="scircumflex" unicode="&#x15d;" horiz-adv-x="962" 
d="M672 715q128 -67 182.5 -147.5t54.5 -207.5q0 -81 -21.5 -146.5t-68.5 -119.5t-132 -84t-202 -30q-436 0 -436 395v86h246v-82q0 -106 45.5 -152.5t146.5 -46.5q96 0 136.5 40t40.5 126q0 68 -31.5 111t-124.5 98l-203 111q-120 57 -179.5 135t-59.5 200q0 57 13 106.5
t43.5 95.5t77 78.5t118 51.5t161.5 19q214 0 317 -98.5t103 -280.5v-68h-246v66q0 97 -43 138.5t-133 41.5q-80 0 -123 -35t-43 -104q0 -56 28.5 -92.5t98.5 -73.5zM166 1458l244 238h143l240 -238h-140l-172 174l-176 -174h-139z" />
    <glyph glyph-name="Scedilla" unicode="&#x15e;" horiz-adv-x="1046" 
d="M393 -334q143 0 199.5 13.5t56.5 60.5q0 26 -13 40t-43.5 18t-67 1.5t-95.5 -10.5l47 193q-424 27 -424 491v100h256v-161q0 -125 53.5 -176.5t172.5 -51.5q106 0 153 45t47 150v57q0 107 -39.5 161.5t-134.5 102.5l-215 123q-89 53 -145 107.5t-91.5 136.5t-35.5 188
q0 200 113 310t335 110t338.5 -111t116.5 -325v-96h-254v117q0 118 -49 164t-154 46q-99 0 -145.5 -40.5t-46.5 -135.5v-39q0 -90 39.5 -142.5t121.5 -94.5l216 -123q70 -40 117 -77t87.5 -91t60 -127t19.5 -168q0 -217 -100.5 -329t-313.5 -121l-26 -109q221 27 221 -129
q0 -90 -85 -129t-292 -39v90z" />
    <glyph glyph-name="scedilla" unicode="&#x15f;" horiz-adv-x="962" 
d="M672 715q128 -67 182.5 -147.5t54.5 -207.5q0 -77 -19.5 -140t-62 -116t-118.5 -85t-181 -37l-26 -109q221 27 221 -129q0 -90 -85 -129t-292 -39v90q143 0 199.5 13.5t56.5 60.5q0 26 -13 40t-43.5 18t-67 1.5t-95.5 -10.5l47 193q-381 24 -381 393v86h246v-82
q0 -106 45.5 -152.5t146.5 -46.5q96 0 136.5 40t40.5 126q0 68 -31.5 111t-124.5 98l-203 111q-120 57 -179.5 135t-59.5 200q0 57 13 106.5t43.5 95.5t77 78.5t118 51.5t161.5 19q214 0 317 -98.5t103 -280.5v-68h-246v66q0 97 -43 138.5t-133 41.5q-80 0 -123 -35
t-43 -104q0 -56 28.5 -92.5t98.5 -73.5z" />
    <glyph glyph-name="Scaron" unicode="&#x160;" horiz-adv-x="1046" 
d="M530 -20q-477 0 -477 493v100h256v-161q0 -125 53.5 -176.5t172.5 -51.5q106 0 153 45t47 150v57q0 107 -39.5 161.5t-134.5 102.5l-215 123q-89 53 -145 107.5t-91.5 136.5t-35.5 188q0 200 113 310t335 110t338.5 -111t116.5 -325v-96h-254v117q0 118 -49 164t-154 46
q-99 0 -145.5 -40.5t-46.5 -135.5v-39q0 -90 39.5 -142.5t121.5 -94.5l216 -123q70 -40 117 -77t87.5 -91t60 -127t19.5 -168q0 -227 -111.5 -339.5t-347.5 -112.5zM190 2015h144l188 -176l185 176h143l-256 -237h-143z" />
    <glyph glyph-name="scaron" unicode="&#x161;" horiz-adv-x="962" 
d="M672 715q128 -67 182.5 -147.5t54.5 -207.5q0 -81 -21.5 -146.5t-68.5 -119.5t-132 -84t-202 -30q-436 0 -436 395v86h246v-82q0 -106 45.5 -152.5t146.5 -46.5q96 0 136.5 40t40.5 126q0 68 -31.5 111t-124.5 98l-203 111q-120 57 -179.5 135t-59.5 200q0 57 13 106.5
t43.5 95.5t77 78.5t118 51.5t161.5 19q214 0 317 -98.5t103 -280.5v-68h-246v66q0 97 -43 138.5t-133 41.5q-80 0 -123 -35t-43 -104q0 -56 28.5 -92.5t98.5 -73.5zM150 1692h143l188 -176l185 176h143l-256 -238h-143z" />
    <glyph glyph-name="uni0162" unicode="&#x162;" horiz-adv-x="962" 
d="M356 0v1444h-325v211h903v-211h-328v-1444h-76l-30 -127q221 27 221 -129q0 -90 -85 -129t-292 -39v90q143 0 199.5 13.5t56.5 60.5q0 26 -13 40t-43.5 18t-67 1.5t-95.5 -10.5l51 211h-76z" />
    <glyph glyph-name="uni0163" unicode="&#x163;" horiz-adv-x="755" 
d="M711 1331v-205h-269v-729q0 -117 25.5 -154.5t97.5 -37.5h146v-205h-193l-26 -106q221 27 221 -130q0 -90 -85 -128.5t-292 -38.5v90q144 0 200 13.5t56 59.5q0 26 -13.5 40.5t-43.5 18.5t-66.5 1.5t-95.5 -10.5l47 194q-126 14 -171.5 96t-45.5 246v780h-187v205h33
q97 21 140.5 107.5t41.5 216.5h240q0 -124 -39.5 -214t-109.5 -110h389z" />
    <glyph glyph-name="Tcaron" unicode="&#x164;" horiz-adv-x="962" 
d="M356 0v1444h-325v211h903v-211h-328v-1444h-250zM152 2015h143l188 -176l185 176h143l-256 -237h-143z" />
    <glyph glyph-name="tcaron" unicode="&#x165;" horiz-adv-x="755" 
d="M711 1331v-205h-269v-729q0 -117 25.5 -154.5t97.5 -37.5h146v-205h-230q-85 0 -140.5 21.5t-85.5 68t-41 106.5t-11 150v780h-187v205h33q97 21 140.5 107.5t41.5 216.5h240q0 -124 -39.5 -214t-109.5 -110h389zM551 1446l80 401h143l-127 -401h-96z" />
    <glyph glyph-name="Tbar" unicode="&#x166;" horiz-adv-x="983" 
d="M367 0v709h-234v129h234v606h-326v211h903v-211h-328v-606h234v-129h-234v-709h-249z" />
    <glyph glyph-name="tbar" unicode="&#x167;" horiz-adv-x="770" 
d="M723 1331v-205h-268v-325h264v-127h-264v-277q0 -117 25.5 -154.5t97.5 -37.5h145v-205h-229q-85 0 -140.5 21.5t-85.5 68t-41.5 106.5t-11.5 150v328h-182v127h182v325h-186v205h32q97 21 141 107.5t42 216.5h239q0 -124 -39.5 -214t-109.5 -110h389z" />
    <glyph glyph-name="Utilde" unicode="&#x168;" 
d="M563 -20q-243 0 -355 122.5t-112 380.5v1172h254v-1223q0 -139 51.5 -192.5t161.5 -53.5t162.5 54t52.5 192v1223h252v-1172q0 -259 -112.5 -381t-354.5 -122zM231 1798q0 113 52 162t133 49q47 0 83.5 -15.5t59.5 -37.5t43 -43.5t45 -37t55 -15.5q89 0 89 127h102
q0 -115 -52.5 -163t-133.5 -48q-48 0 -85.5 15.5t-60.5 37t-42.5 43.5t-43.5 37.5t-53 15.5q-88 0 -88 -127h-103z" />
    <glyph glyph-name="utilde" unicode="&#x169;" horiz-adv-x="1026" 
d="M690 0v166q-39 -78 -112.5 -132t-186.5 -54q-303 0 -303 407v944h240v-925q0 -113 39.5 -169.5t128.5 -56.5q45 0 80 14.5t56 37.5t34.5 55.5t18.5 64.5t5 68v911h240v-1331h-240zM172 1475q0 59 15 101.5t42 65.5t58 33.5t69 10.5q47 0 83.5 -15.5t59.5 -37.5t43 -44
t45.5 -37.5t55.5 -15.5q88 0 88 127h103q0 -114 -53 -162.5t-134 -48.5q-48 0 -85.5 15.5t-60.5 37.5t-42.5 44t-43.5 37.5t-53 15.5q-88 0 -88 -127h-102z" />
    <glyph glyph-name="Umacron" unicode="&#x16a;" 
d="M563 -20q-243 0 -355 122.5t-112 380.5v1172h254v-1223q0 -139 51.5 -192.5t161.5 -53.5t162.5 54t52.5 192v1223h252v-1172q0 -259 -112.5 -381t-354.5 -122zM217 1851v82h690v-82h-690z" />
    <glyph glyph-name="umacron" unicode="&#x16b;" horiz-adv-x="1026" 
d="M690 0v166q-39 -78 -112.5 -132t-186.5 -54q-303 0 -303 407v944h240v-925q0 -113 39.5 -169.5t128.5 -56.5q45 0 80 14.5t56 37.5t34.5 55.5t18.5 64.5t5 68v911h240v-1331h-240zM158 1528v82h690v-82h-690z" />
    <glyph glyph-name="Ubreve" unicode="&#x16c;" 
d="M563 -20q-243 0 -355 122.5t-112 380.5v1172h254v-1223q0 -139 51.5 -192.5t161.5 -53.5t162.5 54t52.5 192v1223h252v-1172q0 -259 -112.5 -381t-354.5 -122zM229 2009h103q0 -55 37 -89.5t86 -46t110 -11.5q44 0 82 7t72.5 22.5t54 45.5t19.5 72h102q0 -231 -330 -231
q-70 0 -127.5 11t-106 36.5t-75.5 72t-27 111.5z" />
    <glyph glyph-name="ubreve" unicode="&#x16d;" horiz-adv-x="1026" 
d="M690 0v166q-39 -78 -112.5 -132t-186.5 -54q-303 0 -303 407v944h240v-925q0 -113 39.5 -169.5t128.5 -56.5q45 0 80 14.5t56 37.5t34.5 55.5t18.5 64.5t5 68v911h240v-1331h-240zM170 1686h102q0 -55 37.5 -90t86.5 -46.5t110 -11.5q44 0 82 7t72 23t53.5 46t19.5 72
h103q0 -232 -330 -232q-55 0 -102.5 6.5t-91.5 23.5t-74.5 42.5t-49 66.5t-18.5 93z" />
    <glyph glyph-name="Uring" unicode="&#x16e;" 
d="M563 -20q-243 0 -355 122.5t-112 380.5v1172h254v-1223q0 -139 51.5 -192.5t161.5 -53.5t162.5 54t52.5 192v1223h252v-1172q0 -259 -112.5 -381t-354.5 -122zM397 1913q0 71 49.5 118.5t116.5 47.5t116.5 -47.5t49.5 -118.5t-49.5 -118.5t-116.5 -47.5t-116.5 47.5
t-49.5 118.5zM485 1913q0 -34 21.5 -56t56.5 -22t56.5 22t21.5 56t-21.5 56t-56.5 22t-56.5 -22t-21.5 -56z" />
    <glyph glyph-name="uring" unicode="&#x16f;" horiz-adv-x="1026" 
d="M690 0v166q-39 -78 -112.5 -132t-186.5 -54q-303 0 -303 407v944h240v-925q0 -113 39.5 -169.5t128.5 -56.5q45 0 80 14.5t56 37.5t34.5 55.5t18.5 64.5t5 68v911h240v-1331h-240zM338 1589q0 71 49.5 118.5t116.5 47.5t116.5 -47.5t49.5 -118.5t-49.5 -118.5
t-116.5 -47.5t-116.5 47.5t-49.5 118.5zM426 1589q0 -34 21.5 -56t56.5 -22t56.5 22t21.5 56t-21.5 56t-56.5 22t-56.5 -22t-21.5 -56z" />
    <glyph glyph-name="Uhungarumlaut" unicode="&#x170;" 
d="M563 -20q-243 0 -355 122.5t-112 380.5v1172h254v-1223q0 -139 51.5 -192.5t161.5 -53.5t162.5 54t52.5 192v1223h252v-1172q0 -259 -112.5 -381t-354.5 -122zM375 1778l241 229h121l-221 -229h-141zM616 1778l242 229h121l-221 -229h-142z" />
    <glyph glyph-name="uhungarumlaut" unicode="&#x171;" horiz-adv-x="1026" 
d="M690 0v166q-39 -78 -112.5 -132t-186.5 -54q-303 0 -303 407v944h240v-925q0 -113 39.5 -169.5t128.5 -56.5q45 0 80 14.5t56 37.5t34.5 55.5t18.5 64.5t5 68v911h240v-1331h-240zM315 1454l242 229h121l-221 -229h-142zM557 1454l242 229h121l-222 -229h-141z" />
    <glyph glyph-name="Uogonek" unicode="&#x172;" 
d="M563 -20q-243 0 -355 122.5t-112 380.5v1172h254v-1223q0 -139 51.5 -192.5t161.5 -53.5t162.5 54t52.5 192v1223h252v-1172q0 -214 -75.5 -333t-235.5 -154q-197 -68 -197 -186q0 -62 54 -89.5t182 -27.5h20l-82 -103h-18q-126 0 -201.5 47.5t-75.5 137.5q0 134 177 205
h-15z" />
    <glyph glyph-name="uogonek" unicode="&#x173;" horiz-adv-x="1026" 
d="M690 0v166q-39 -78 -112.5 -132t-186.5 -54q-303 0 -303 407v944h240v-925q0 -113 39.5 -169.5t128.5 -56.5q45 0 80 14.5t56 37.5t34.5 55.5t18.5 64.5t5 68v911h240v-1331q-108 -34 -160.5 -80t-52.5 -110q0 -62 53.5 -89.5t181.5 -27.5h21l-82 -103h-19
q-126 0 -201 47.5t-75 137.5q0 48 20.5 86t57 64.5t74.5 43.5t86 31h-144z" />
    <glyph glyph-name="Wcircumflex" unicode="&#x174;" horiz-adv-x="1728" 
d="M313 0l-290 1655h251l205 -1340l4 -18l2 18l224 1340h311l225 -1338l4 -22l4 22l201 1338h252l-291 -1655h-334l-211 1290l-4 29l-6 -29l-211 -1290h-336zM551 1782l244 237h143l240 -237h-140l-172 174l-176 -174h-139z" />
    <glyph glyph-name="wcircumflex" unicode="&#x175;" horiz-adv-x="1492" 
d="M432 1458l244 238h143l240 -238h-139l-172 174l-177 -174h-139zM20 1331h240l172 -1102l182 1102h265l184 -1102l170 1102h240l-248 -1331h-295l-185 1124l-192 -1124h-283z" />
    <glyph glyph-name="Ycircumflex" unicode="&#x176;" horiz-adv-x="1009" 
d="M381 0v580l-383 1075h264l242 -770l2 -4v4l242 770h264l-383 -1075v-580h-248zM190 1782l244 237h144l239 -237h-139l-172 174l-176 -174h-140z" />
    <glyph glyph-name="ycircumflex" unicode="&#x177;" horiz-adv-x="1024" 
d="M688 10v156q-39 -78 -112.5 -132t-186.5 -54q-303 0 -303 407v944h240v-925q0 -113 39.5 -169.5t128.5 -56.5q45 0 80 14.5t56 37.5t34.5 55.5t18.5 64.5t5 68v911h242v-1323q0 -238 -79 -336t-290 -98h-434v205h383q101 0 139.5 49.5t38.5 181.5zM193 1458l243 238h144
l239 -238h-139l-172 174l-176 -174h-139z" />
    <glyph glyph-name="Ydieresis" unicode="&#x178;" horiz-adv-x="1009" 
d="M381 0v580l-383 1075h264l242 -770l2 -4v4l242 770h264l-383 -1075v-580h-248zM186 1874q0 57 35.5 87t89.5 30q52 0 88.5 -30.5t36.5 -86.5q0 -51 -37 -81t-88 -30q-53 0 -89 29.5t-36 81.5zM573 1874q0 57 35.5 87t89.5 30q52 0 88.5 -30.5t36.5 -86.5q0 -51 -37 -81
t-88 -30q-53 0 -89 29.5t-36 81.5z" />
    <glyph glyph-name="Zacute" unicode="&#x179;" horiz-adv-x="937" 
d="M49 0v211l574 1233h-574v211h840v-211l-572 -1233h572v-211h-840zM137 1864l645 151l21 -80l-645 -149z" />
    <glyph glyph-name="zacute" unicode="&#x17a;" horiz-adv-x="886" 
d="M47 1331h793v-205l-529 -921h525v-205h-787v205l524 921h-526v205zM113 1540l645 152l20 -80l-645 -150z" />
    <glyph glyph-name="Zdotaccent" unicode="&#x17b;" horiz-adv-x="937" 
d="M49 0v211l574 1233h-574v211h840v-211l-572 -1233h572v-211h-840zM338 1888q0 52 35 86.5t98 34.5t98 -34.5t35 -86.5q0 -48 -35 -81t-98 -33t-98 33t-35 81z" />
    <glyph glyph-name="zdotaccent" unicode="&#x17c;" horiz-adv-x="886" 
d="M47 1331h793v-205l-529 -921h525v-205h-787v205l524 921h-526v205zM293 1554q0 56 39 88.5t114 32.5q74 0 113 -32.5t39 -88.5q0 -52 -39 -84t-113 -32t-113.5 32t-39.5 84z" />
    <glyph glyph-name="Zcaron" unicode="&#x17d;" horiz-adv-x="937" 
d="M49 0v211l574 1233h-574v211h840v-211l-572 -1233h572v-211h-840zM139 2015h144l188 -176l184 176h144l-256 -237h-144z" />
    <glyph glyph-name="zcaron" unicode="&#x17e;" horiz-adv-x="886" 
d="M47 1331h793v-205l-529 -921h525v-205h-787v205l524 921h-526v205zM115 1692h143l188 -176l185 176h143l-256 -238h-143z" />
    <glyph glyph-name="uni0218" unicode="&#x218;" horiz-adv-x="1046" 
d="M530 -20q-477 0 -477 493v100h256v-161q0 -125 53.5 -176.5t172.5 -51.5q106 0 153 45t47 150v57q0 107 -39.5 161.5t-134.5 102.5l-215 123q-89 53 -145 107.5t-91.5 136.5t-35.5 188q0 200 113 310t335 110t338.5 -111t116.5 -325v-96h-254v117q0 118 -49 164t-154 46
q-99 0 -145.5 -40.5t-46.5 -135.5v-39q0 -90 39.5 -142.5t121.5 -94.5l216 -123q70 -40 117 -77t87.5 -91t60 -127t19.5 -168q0 -227 -111.5 -339.5t-347.5 -112.5zM426 -176q0 46 29.5 75t76.5 29t75 -32.5t28 -92.5q0 -71 -46 -135.5t-134 -105.5v88q102 32 127 114
q-28 -36 -70 -36q-36 0 -61 26t-25 70z" />
    <glyph glyph-name="uni0219" unicode="&#x219;" horiz-adv-x="962" 
d="M672 715q128 -67 182.5 -147.5t54.5 -207.5q0 -81 -21.5 -146.5t-68.5 -119.5t-132 -84t-202 -30q-436 0 -436 395v86h246v-82q0 -106 45.5 -152.5t146.5 -46.5q96 0 136.5 40t40.5 126q0 68 -31.5 111t-124.5 98l-203 111q-120 57 -179.5 135t-59.5 200q0 57 13 106.5
t43.5 95.5t77 78.5t118 51.5t161.5 19q214 0 317 -98.5t103 -280.5v-68h-246v66q0 97 -43 138.5t-133 41.5q-80 0 -123 -35t-43 -104q0 -56 28.5 -92.5t98.5 -73.5zM379 -176q0 46 29.5 75t76.5 29t75 -32.5t28 -92.5q0 -71 -46 -135.5t-134 -105.5v88q102 32 127 114
q-28 -36 -70 -36q-36 0 -61 26t-25 70z" />
    <glyph glyph-name="uni021A" unicode="&#x21a;" horiz-adv-x="962" 
d="M356 0v1444h-325v211h903v-211h-328v-1444h-250zM377 -176q0 46 29.5 75t76.5 29t75 -32.5t28 -92.5q0 -71 -46 -135.5t-134 -105.5v88q101 32 126 114q-28 -36 -69 -36q-36 0 -61 26t-25 70z" />
    <glyph glyph-name="uni021B" unicode="&#x21b;" horiz-adv-x="755" 
d="M711 1331v-205h-269v-729q0 -117 25.5 -154.5t97.5 -37.5h146v-205h-230q-85 0 -140.5 21.5t-85.5 68t-41 106.5t-11 150v780h-187v205h33q97 21 140.5 107.5t41.5 216.5h240q0 -124 -39.5 -214t-109.5 -110h389zM369 -156q0 46 29.5 75.5t76.5 29.5t75 -32.5t28 -92.5
q0 -71 -46.5 -135.5t-134.5 -106.5v88q102 32 127 115q-29 -37 -69 -37q-36 0 -61 26t-25 70z" />
    <glyph glyph-name="uni0237" unicode="&#x237;" horiz-adv-x="432" 
d="M96 0v1331h240v-1343q0 -228 -76 -321t-278 -93h-166v205h108q98 0 135 46.5t37 174.5z" />
    <glyph glyph-name="circumflex" unicode="&#x2c6;" horiz-adv-x="1036" 
d="M205 1458l244 238h143l239 -238h-139l-172 174l-176 -174h-139z" />
    <glyph glyph-name="caron" unicode="&#x2c7;" horiz-adv-x="1069" 
d="M465 1454l-260 238h143l189 -176l184 176h143l-256 -238h-143z" />
    <glyph glyph-name="breve" unicode="&#x2d8;" horiz-adv-x="1075" 
d="M541 1454q-55 0 -102.5 6.5t-91.5 23.5t-74.5 42.5t-49 66.5t-18.5 93h102q0 -55 37.5 -90t86.5 -46.5t110 -11.5q44 0 82 7t72 23t53.5 46t19.5 72h102q0 -232 -329 -232z" />
    <glyph glyph-name="dotaccent" unicode="&#x2d9;" horiz-adv-x="712" 
d="M358 1438q-74 0 -113.5 32t-39.5 84q0 56 39 88.5t114 32.5q74 0 113 -32.5t39 -88.5q0 -52 -39 -84t-113 -32z" />
    <glyph glyph-name="ring" unicode="&#x2da;" horiz-adv-x="741" 
d="M371 1423q-67 0 -116.5 47.5t-49.5 118.5t49.5 118.5t116.5 47.5t116.5 -47.5t49.5 -118.5t-49.5 -118.5t-116.5 -47.5zM293 1589q0 -34 21.5 -56t56.5 -22t56.5 22t21.5 56t-21.5 56t-56.5 22t-56.5 -22t-21.5 -56z" />
    <glyph glyph-name="ogonek" unicode="&#x2db;" horiz-adv-x="778" 
d="M485 -410q-126 0 -201 47.5t-75 137.5q0 156 237 225h97q-108 -34 -160.5 -80t-52.5 -110q0 -62 53.5 -89.5t181.5 -27.5h21l-82 -103h-19z" />
    <glyph glyph-name="tilde" unicode="&#x2dc;" horiz-adv-x="1071" 
d="M205 1475q0 59 15 101.5t42 65.5t58 33.5t69 10.5q47 0 83.5 -15.5t59.5 -37.5t43 -44t45.5 -37.5t55.5 -15.5q88 0 88 127h102q0 -115 -52.5 -163t-133.5 -48q-48 0 -85.5 15.5t-60.5 37.5t-42.5 44t-43.5 37.5t-53 15.5q-88 0 -88 -127h-102z" />
    <glyph glyph-name="hungarumlaut" unicode="&#x2dd;" horiz-adv-x="1013" 
d="M588 1454h-142l242 229h121zM205 1454l241 229h121l-221 -229h-141z" />
    <glyph glyph-name="uni1E20" unicode="&#x1e20;" horiz-adv-x="1130" 
d="M532 -20q-217 0 -336.5 143t-119.5 391v616q0 258 122.5 401.5t364.5 143.5q231 0 353.5 -131.5t127.5 -369.5v-160h-253l-3 219q-5 235 -223 235q-120 0 -177.5 -68t-57.5 -208v-727q0 -140 56 -209.5t175 -69.5q112 0 167 61t60 189v219h-258v195h514v-850h-129
l-30 158q-121 -178 -353 -178zM217 1851v82h690v-82h-690z" />
    <glyph glyph-name="uni1E21" unicode="&#x1e21;" horiz-adv-x="1030" 
d="M696 18v142q-92 -180 -293 -180q-160 0 -246.5 108.5t-86.5 308.5v553q0 185 85.5 293.5t247.5 108.5q106 0 174 -44t119 -116v139h240v-1325q0 -118 -16 -194.5t-57.5 -132.5t-114.5 -80.5t-185 -24.5h-430v205h381q104 0 143 51t39 188zM152 1528v82h690v-82h-690z
M315 420q0 -238 185 -238q97 0 146.5 68.5t49.5 171.5v487q0 104 -49 172t-147 68q-185 0 -185 -238v-491z" />
    <glyph glyph-name="Wgrave" unicode="&#x1e80;" horiz-adv-x="1728" 
d="M313 0l-290 1655h251l205 -1340l4 -18l2 18l224 1340h311l225 -1338l4 -22l4 22l201 1338h252l-291 -1655h-334l-211 1290l-4 29l-6 -29l-211 -1290h-336zM518 1927l21 80l669 -152l-20 -77z" />
    <glyph glyph-name="wgrave" unicode="&#x1e81;" horiz-adv-x="1492" 
d="M1092 1532l-21 -78l-670 150l21 79zM20 1331h240l172 -1102l182 1102h265l184 -1102l170 1102h240l-248 -1331h-295l-185 1124l-192 -1124h-283z" />
    <glyph glyph-name="Wacute" unicode="&#x1e82;" horiz-adv-x="1728" 
d="M313 0l-290 1655h251l205 -1340l4 -18l2 18l224 1340h311l225 -1338l4 -22l4 22l201 1338h252l-291 -1655h-334l-211 1290l-4 29l-6 -29l-211 -1290h-336zM530 1864l646 151l20 -80l-645 -149z" />
    <glyph glyph-name="wacute" unicode="&#x1e83;" horiz-adv-x="1492" 
d="M434 1462l-20 78l645 152l20 -80zM20 1331h240l172 -1102l182 1102h265l184 -1102l170 1102h240l-248 -1331h-295l-185 1124l-192 -1124h-283z" />
    <glyph glyph-name="Wdieresis" unicode="&#x1e84;" horiz-adv-x="1728" 
d="M313 0l-290 1655h251l205 -1340l4 -18l2 18l224 1340h311l225 -1338l4 -22l4 22l201 1338h252l-291 -1655h-334l-211 1290l-4 29l-6 -29l-211 -1290h-336zM547 1874q0 57 35.5 87t89.5 30q52 0 88.5 -30.5t36.5 -86.5q0 -51 -37 -81t-88 -30q-53 0 -89 29.5t-36 81.5z
M934 1874q0 57 35.5 87t89.5 30q52 0 88.5 -30.5t36.5 -86.5q0 -51 -37 -81t-88 -30q-53 0 -89 29.5t-36 81.5z" />
    <glyph glyph-name="wdieresis" unicode="&#x1e85;" horiz-adv-x="1492" 
d="M940 1440q-54 0 -89.5 29t-35.5 81q0 57 35.5 87t89.5 30q52 0 88.5 -30.5t36.5 -86.5q0 -51 -37 -80.5t-88 -29.5zM20 1331h240l172 -1102l182 1102h265l184 -1102l170 1102h240l-248 -1331h-295l-185 1124l-192 -1124h-283zM428 1550q0 57 35.5 87t89.5 30
q52 0 88.5 -30.5t36.5 -86.5q0 -51 -37 -80.5t-88 -29.5q-54 0 -89.5 29t-35.5 81z" />
    <glyph glyph-name="uni1E9E" unicode="&#x1e9e;" horiz-adv-x="1050" 
d="M100 1290q0 188 97.5 276.5t312.5 88.5h467q-28 -253 -58.5 -393t-71 -207t-106.5 -92q122 -36 181 -135.5t59 -278.5v-115q0 -434 -389 -434h-174v201h125q106 2 151 52.5t45 180.5v166q0 124 -45.5 185.5t-165.5 62.5l-110 2v201h100q32 0 54 5t41 14t32.5 31
t25.5 47.5t22.5 73.5t20.5 99t23 133h-225q-92 0 -132 -37t-40 -125v-1292h-240v1290z" />
    <glyph glyph-name="uni1EBC" unicode="&#x1ebc;" horiz-adv-x="931" 
d="M104 0v1655h762v-211h-512v-512h484v-209h-484v-512h512v-211h-762zM154 1798q0 59 15 101.5t42 65.5t58 33.5t69 10.5q47 0 83.5 -15.5t59.5 -37.5t43 -43.5t45.5 -37t55.5 -15.5q88 0 88 127h102q0 -115 -52.5 -163t-133.5 -48q-48 0 -85.5 15.5t-60.5 37t-42.5 43.5
t-43.5 37.5t-53 15.5q-88 0 -88 -127h-102z" />
    <glyph glyph-name="uni1EBD" unicode="&#x1ebd;" horiz-adv-x="1001" 
d="M172 1475q0 59 15 101.5t42 65.5t58 33.5t69 10.5q47 0 83.5 -15.5t59.5 -37.5t43 -44t45.5 -37.5t55.5 -15.5q88 0 88 127h103q0 -114 -53 -162.5t-134 -48.5q-48 0 -85.5 15.5t-60.5 37.5t-42.5 44t-43.5 37.5t-53 15.5q-88 0 -88 -127h-102zM66 473v385q0 494 440 494
q430 0 430 -492v-248h-625v-180q0 -133 48.5 -192.5t148.5 -59.5q87 0 129 48t45 157l2 70h248v-29q-12 -446 -426 -446q-440 0 -440 493zM311 788h379v136q-4 123 -49.5 175t-134.5 52q-99 0 -147 -60t-48 -194v-109z" />
    <glyph glyph-name="Ygrave" unicode="&#x1ef2;" horiz-adv-x="1009" 
d="M381 0v580l-383 1075h264l242 -770l2 -4v4l242 770h264l-383 -1075v-580h-248zM160 1927l20 80l670 -152l-21 -77z" />
    <glyph glyph-name="ygrave" unicode="&#x1ef3;" horiz-adv-x="1024" 
d="M688 10v156q-39 -78 -112.5 -132t-186.5 -54q-303 0 -303 407v944h240v-925q0 -113 39.5 -169.5t128.5 -56.5q45 0 80 14.5t56 37.5t34.5 55.5t18.5 64.5t5 68v911h242v-1323q0 -238 -79 -336t-290 -98h-434v205h383q101 0 139.5 49.5t38.5 181.5zM162 1604l20 79
l670 -151l-21 -78z" />
    <glyph glyph-name="uni1EF8" unicode="&#x1ef8;" horiz-adv-x="1009" 
d="M381 0v580l-383 1075h264l242 -770l2 -4v4l242 770h264l-383 -1075v-580h-248zM174 1798q0 59 15 101.5t42 65.5t58 33.5t69 10.5q47 0 83.5 -15.5t59.5 -37.5t43 -43.5t45.5 -37t55.5 -15.5q88 0 88 127h103q0 -114 -53 -162.5t-134 -48.5q-48 0 -85.5 15.5t-60 37
t-42 43.5t-43.5 37.5t-53 15.5q-89 0 -89 -127h-102z" />
    <glyph glyph-name="uni1EF9" unicode="&#x1ef9;" horiz-adv-x="1024" 
d="M688 10v156q-39 -78 -112.5 -132t-186.5 -54q-303 0 -303 407v944h240v-925q0 -113 39.5 -169.5t128.5 -56.5q45 0 80 14.5t56 37.5t34.5 55.5t18.5 64.5t5 68v911h242v-1323q0 -238 -79 -336t-290 -98h-434v205h383q101 0 139.5 49.5t38.5 181.5zM176 1475
q0 59 15 101.5t42 65.5t58 33.5t69 10.5q47 0 83.5 -15.5t59.5 -37.5t43 -44t45.5 -37.5t55.5 -15.5q88 0 88 127h103q0 -114 -53 -162.5t-134 -48.5q-48 0 -85.5 15.5t-60 37.5t-42 44t-43.5 37.5t-53 15.5q-88 0 -88 -127h-103z" />
    <glyph glyph-name="uni2000" unicode="&#x2000;" horiz-adv-x="1024" 
 />
    <glyph glyph-name="uni2001" unicode="&#x2001;" horiz-adv-x="2048" 
 />
    <glyph glyph-name="uni2002" unicode="&#x2002;" horiz-adv-x="1024" 
 />
    <glyph glyph-name="uni2003" unicode="&#x2003;" horiz-adv-x="2048" 
 />
    <glyph glyph-name="uni2004" unicode="&#x2004;" horiz-adv-x="681" 
 />
    <glyph glyph-name="uni2005" unicode="&#x2005;" horiz-adv-x="512" 
 />
    <glyph glyph-name="uni2006" unicode="&#x2006;" horiz-adv-x="342" 
 />
    <glyph glyph-name="uni2007" unicode="&#x2007;" 
 />
    <glyph glyph-name="uni2008" unicode="&#x2008;" horiz-adv-x="409" 
 />
    <glyph glyph-name="uni2009" unicode="&#x2009;" horiz-adv-x="256" 
 />
    <glyph glyph-name="uni200A" unicode="&#x200a;" horiz-adv-x="86" 
 />
    <glyph glyph-name="uni200B" unicode="&#x200b;" horiz-adv-x="0" 
 />
    <glyph glyph-name="endash" unicode="&#x2013;" horiz-adv-x="1411" 
d="M53 725h1307v-96h-1307v96z" />
    <glyph glyph-name="emdash" unicode="&#x2014;" horiz-adv-x="2357" 
d="M53 725h2253v-96h-2253v96z" />
    <glyph glyph-name="quoteleft" unicode="&#x2018;" horiz-adv-x="299" 
d="M184 1163h-137l94 512h117z" />
    <glyph glyph-name="quoteright" unicode="&#x2019;" horiz-adv-x="299" 
d="M125 1675h137l-94 -512h-117z" />
    <glyph glyph-name="quotesinglbase" unicode="&#x201a;" horiz-adv-x="286" 
d="M94 268h137l-94 -512h-117z" />
    <glyph glyph-name="quotedblleft" unicode="&#x201c;" horiz-adv-x="507" 
d="M391 1163h-137l94 512h117zM47 1163l94 512h117l-74 -512h-137z" />
    <glyph glyph-name="quotedblright" unicode="&#x201d;" horiz-adv-x="505" 
d="M125 1675h137l-94 -512h-117zM260 1163l74 512h137l-94 -512h-117z" />
    <glyph glyph-name="quotedblbase" unicode="&#x201e;" horiz-adv-x="495" 
d="M94 268h137l-94 -512h-117zM227 -246l74 512h137l-94 -512h-117z" />
    <glyph glyph-name="dagger" unicode="&#x2020;" horiz-adv-x="456" 
d="M178 641v610h-117v92h117v312h103v-312h116v-92h-116v-610h-103z" />
    <glyph glyph-name="daggerdbl" unicode="&#x2021;" horiz-adv-x="489" 
d="M195 641v291h-117v92h117v227h-117v95h117v309h102v-309h117v-95h-117v-227h117v-92h-117v-291h-102z" />
    <glyph glyph-name="bullet" unicode="&#x2022;" horiz-adv-x="747" 
d="M375 442q-110 0 -185 71.5t-75 184.5q0 119 75 191t185 72t185 -72t75 -191q0 -113 -75 -184.5t-185 -71.5z" />
    <glyph glyph-name="ellipsis" unicode="&#x2026;" horiz-adv-x="1167" 
d="M205 -20q-64 0 -108 41.5t-44 107.5q0 69 43.5 111.5t108.5 42.5q64 0 107.5 -42.5t43.5 -111.5q0 -66 -43.5 -107.5t-107.5 -41.5zM434 129q0 69 43.5 111.5t108.5 42.5q64 0 107.5 -42.5t43.5 -111.5q0 -66 -43.5 -107.5t-107.5 -41.5t-108 41.5t-44 107.5zM811 129
q0 69 43.5 111.5t108.5 42.5q64 0 107.5 -42.5t43.5 -111.5q0 -66 -43.5 -107.5t-107.5 -41.5t-108 41.5t-44 107.5z" />
    <glyph glyph-name="uni202F" unicode="&#x202f;" horiz-adv-x="342" 
 />
    <glyph glyph-name="perthousand" unicode="&#x2030;" horiz-adv-x="2113" 
d="M1776 -20q-79 0 -140 30.5t-96.5 81.5t-53.5 112t-18 128q0 68 18 129t53.5 112.5t96.5 82t140 30.5t140 -30.5t96.5 -82t53 -112.5t17.5 -129q0 -67 -17.5 -128t-53 -112t-96.5 -81.5t-140 -30.5zM33 1323q0 67 18 128t53.5 112t96.5 81.5t141 30.5q79 0 140 -30.5
t96.5 -81.5t53 -112t17.5 -128q0 -68 -17.5 -129t-53 -112.5t-96.5 -82t-140 -30.5q-80 0 -141 30.5t-97 82t-53.5 112.5t-17.5 129zM211 1323q0 -186 131 -186q129 0 129 186q0 184 -129 184q-131 0 -131 -184zM301 0l707 1655h110l-704 -1655h-113zM774 332q0 68 17.5 129
t53.5 112.5t97 82t141 30.5q79 0 140 -30.5t96.5 -82t53.5 -112.5t18 -129q0 -67 -18 -128t-53.5 -112t-96.5 -81.5t-140 -30.5q-80 0 -141 30.5t-96.5 81.5t-53.5 112t-18 128zM952 332q0 -185 131 -185q129 0 129 185q0 186 -129 186q-131 0 -131 -186zM1645 332
q0 -185 131 -185t131 185q0 186 -131 186t-131 -186z" />
    <glyph glyph-name="second" unicode="&#x2033;" horiz-adv-x="505" 
d="M78 1655h137v-512h-137v512zM291 1143v512h137v-512h-137z" />
    <glyph glyph-name="guilsinglleft" unicode="&#x2039;" horiz-adv-x="505" 
d="M414 283l-355 348v90l355 348v-149l-252 -244l252 -244v-149z" />
    <glyph glyph-name="guilsinglright" unicode="&#x203a;" horiz-adv-x="505" 
d="M92 283v149l252 244l-252 244v149l354 -348v-90z" />
    <glyph glyph-name="fraction" unicode="&#x2044;" horiz-adv-x="180" 
d="M483 1655l-696 -1655h-98l694 1655h100z" />
    <glyph glyph-name="uni205F" unicode="&#x205f;" horiz-adv-x="454" 
 />
    <glyph glyph-name="uni2070" unicode="&#x2070;" horiz-adv-x="587" 
d="M293 684q-119 0 -180.5 71.5t-61.5 205.5v294q0 134 61.5 205.5t180.5 71.5t181.5 -71.5t62.5 -205.5v-294q0 -134 -62.5 -205.5t-181.5 -71.5zM197 1010l188 327q-14 76 -92 76q-96 0 -96 -121v-282zM203 870q17 -67 90 -67q50 0 73 29.5t23 93.5v266z" />
    <glyph glyph-name="uni2074" unicode="&#x2074;" horiz-adv-x="544" 
d="M451 1522v-555h59v-121h-59v-152h-144v152h-280v133l286 543h138zM133 967h174v331z" />
    <glyph glyph-name="uni2075" unicode="&#x2075;" horiz-adv-x="563" 
d="M336 1249q85 0 135.5 -53t50.5 -168v-84q-3 -260 -241 -260q-116 0 -176 61t-60 181v26h145v-55q0 -94 95 -94q46 0 68 22.5t22 71.5v129q0 100 -88 100q-73 0 -94 -84h-142l25 480h409v-121h-280l-15 -232q47 80 146 80z" />
    <glyph glyph-name="uni2076" unicode="&#x2076;" horiz-adv-x="577" 
d="M289 684q-119 0 -177.5 65t-58.5 201v285q0 154 58 225.5t182 71.5q114 0 169.5 -57t55.5 -160v-17h-145v15q0 86 -80 86q-49 0 -71.5 -24.5t-22.5 -76.5v-110q51 63 141 63q92 0 141 -57.5t49 -169.5v-94q0 -121 -61 -183.5t-180 -62.5zM199 899q0 -52 23 -74t71 -22
t70 22.5t22 71.5v135q0 96 -90 96q-96 0 -96 -96v-133z" />
    <glyph glyph-name="uni2077" unicode="&#x2077;" horiz-adv-x="487" 
d="M20 1401v121h441v-121q-65 -83 -107 -170.5t-60.5 -178.5t-24 -162t-5.5 -167v-29h-143v29q0 92 7 167.5t27.5 165.5t64 177t108.5 168h-308z" />
    <glyph glyph-name="uni2078" unicode="&#x2078;" horiz-adv-x="569" 
d="M285 684q-238 0 -238 215v39q0 88 32.5 137t86.5 60q-50 11 -81.5 53t-31.5 115v32q0 94 59.5 145.5t174.5 51.5q113 0 171 -51.5t58 -145.5v-32q0 -74 -30 -115.5t-80 -52.5q52 -12 85 -60.5t33 -136.5v-39q0 -215 -239 -215zM193 889q0 -51 21.5 -69.5t70.5 -18.5
q51 0 71.5 18.5t20.5 69.5v94q0 47 -21.5 67.5t-70.5 20.5q-48 0 -70 -20t-22 -68v-94zM199 1268q0 -41 20.5 -58.5t65.5 -17.5q44 0 65 18t21 58v71q0 40 -20 58t-66 18q-45 0 -65.5 -17.5t-20.5 -58.5v-71z" />
    <glyph glyph-name="uni2079" unicode="&#x2079;" horiz-adv-x="577" 
d="M287 1532q237 0 237 -264v-287q0 -153 -57.5 -225t-181.5 -72q-115 0 -170.5 57t-55.5 160v19h146v-17q0 -86 80 -86q92 0 92 103v106q-50 -61 -139 -61q-93 0 -143 58.5t-50 168.5v94q0 122 62 184t180 62zM193 1186q0 -49 21 -72.5t69 -23.5q94 0 94 94v135
q0 51 -22.5 72.5t-69.5 21.5q-48 0 -70 -22.5t-22 -71.5v-133z" />
    <glyph glyph-name="uni2080" unicode="&#x2080;" horiz-adv-x="587" 
d="M293 -266q-119 0 -180.5 71t-61.5 205v295q0 134 61.5 205.5t180.5 71.5t181.5 -71.5t62.5 -205.5v-295q0 -134 -62 -205t-182 -71zM197 59l188 328q-14 76 -92 76q-96 0 -96 -121v-283zM203 -80q17 -67 90 -67q50 0 73 29t23 93v267z" />
    <glyph glyph-name="uni2081" unicode="&#x2081;" horiz-adv-x="475" 
d="M43 -135h135v543q-50 -50 -139 -50v129q107 0 154 84h126v-706h136v-121h-412v121z" />
    <glyph glyph-name="uni2082" unicode="&#x2082;" horiz-adv-x="563" 
d="M45 -123q0 101 38 170t126 115l70 39q52 27 74 62t22 95v21q0 46 -21 65t-67 19q-47 0 -68.5 -21.5t-21.5 -74.5v-64h-148v45q0 114 59.5 174t178.5 60q114 0 174.5 -59t60.5 -173q0 -180 -149 -254l-86 -49q-60 -32 -77 -68.5t-17 -113.5h327v-121h-475v133z" />
    <glyph glyph-name="uni2083" unicode="&#x2083;" horiz-adv-x="561" 
d="M279 -266q-121 0 -180 55t-60 174v39h145v-57q0 -53 22.5 -74t69.5 -21q50 0 71.5 22t21.5 69v77q0 50 -24 70.5t-66 20.5h-84v118h84q86 0 86 82v70q0 46 -22 66t-67 20t-66.5 -20t-21.5 -70v-51h-145v34q3 224 236 224q55 0 98 -14.5t67 -36.5t40 -51.5t21 -55t5 -51.5
v-25q0 -135 -104 -176q108 -37 108 -184v-25q0 -229 -235 -229z" />
    <glyph glyph-name="uni2084" unicode="&#x2084;" horiz-adv-x="544" 
d="M451 571v-555h59v-120h-59v-152h-144v152h-280v133l286 542h138zM133 16h174v332z" />
    <glyph glyph-name="uni2085" unicode="&#x2085;" horiz-adv-x="563" 
d="M336 299q85 0 135.5 -53t50.5 -168v-84q-3 -260 -241 -260q-116 0 -176 61t-60 180v27h145v-55q0 -94 95 -94q46 0 68 22.5t22 71.5v129q0 100 -88 100q-73 0 -94 -84h-142l25 479h409v-120h-280l-15 -232q47 80 146 80z" />
    <glyph glyph-name="uni2086" unicode="&#x2086;" horiz-adv-x="577" 
d="M289 -266q-119 0 -177.5 65t-58.5 201v285q0 154 58 225.5t182 71.5q114 0 169.5 -57t55.5 -160v-17h-145v14q0 87 -80 87q-49 0 -71.5 -24.5t-22.5 -76.5v-110q51 63 141 63q92 0 141 -57.5t49 -169.5v-94q0 -121 -61 -183.5t-180 -62.5zM199 -51q0 -52 23 -74t71 -22
t70 22.5t22 71.5v135q0 96 -90 96q-96 0 -96 -96v-133z" />
    <glyph glyph-name="uni2087" unicode="&#x2087;" horiz-adv-x="487" 
d="M20 451v120h441v-120q-65 -83 -107 -170.5t-60.5 -178.5t-24 -162t-5.5 -167v-29h-143v29q0 92 7 167.5t27.5 165.5t64 177t108.5 168h-308z" />
    <glyph glyph-name="uni2088" unicode="&#x2088;" horiz-adv-x="569" 
d="M285 -266q-238 0 -238 215v39q0 88 32.5 136.5t86.5 59.5q-50 11 -81.5 53t-31.5 115v33q0 94 59.5 145.5t174.5 51.5q113 0 171 -51.5t58 -145.5v-33q0 -74 -30 -115.5t-80 -52.5q52 -12 85 -60t33 -136v-39q0 -215 -239 -215zM193 -61q0 -51 21.5 -70t70.5 -19
q51 0 71.5 19t20.5 70v94q0 47 -21.5 67.5t-70.5 20.5q-48 0 -70 -20t-22 -68v-94zM199 317q0 -41 20.5 -58t65.5 -17q44 0 65 17.5t21 57.5v72q0 40 -20 58t-66 18q-45 0 -65.5 -17.5t-20.5 -58.5v-72z" />
    <glyph glyph-name="uni2089" unicode="&#x2089;" horiz-adv-x="577" 
d="M287 582q237 0 237 -265v-286q0 -153 -57.5 -225t-181.5 -72q-115 0 -170.5 57t-55.5 160v18h146v-16q0 -86 80 -86q47 0 69.5 25t22.5 77v107q-50 -62 -139 -62q-93 0 -143 59t-50 169v94q0 122 62 184t180 62zM193 236q0 -49 21 -73t69 -24q94 0 94 94v136
q0 51 -22.5 72.5t-69.5 21.5q-48 0 -70 -22.5t-22 -71.5v-133z" />
    <glyph glyph-name="Euro" unicode="&#x20ac;" horiz-adv-x="1216" 
d="M72 711v82h127v69h-127v82h127v186q0 260 118.5 402.5t356.5 142.5q227 0 343.5 -133t121.5 -375v-188h-256v248q-6 241 -209 241q-219 0 -219 -278v-246h327v-82h-327v-69h327v-82h-327v-246q0 -142 54 -210.5t165 -68.5q101 0 153.5 59t55.5 183v250h256v-189
q-5 -242 -122 -375.5t-345 -133.5q-236 0 -354.5 143t-118.5 403v185h-127z" />
    <glyph glyph-name="trademark" unicode="&#x2122;" horiz-adv-x="1243" 
d="M524 834v821h174l138 -580l141 580h170v-821h-146v495l-108 -495h-111l-112 499v-499h-146zM39 1505v150h438v-150h-145v-671h-148v671h-145z" />
    <glyph glyph-name="oneeighth" unicode="&#x215b;" horiz-adv-x="1400" 
d="M55 948h135v543q-49 -49 -139 -49v129q107 0 154 84h127v-707h135v-121h-412v121zM262 0l696 1655h99l-697 -1655h-98zM877 205v39q0 88 32 136.5t86 59.5q-50 11 -81 53t-31 115v33q0 94 59 145.5t174 51.5q114 0 172 -51.5t58 -145.5v-33q0 -74 -30.5 -115.5
t-80.5 -52.5q52 -12 85.5 -60t33.5 -136v-39q0 -215 -240 -215q-237 0 -237 215zM1022 195q0 -51 21.5 -70t70.5 -19q51 0 71.5 19t20.5 70v94q0 47 -21.5 67.5t-70.5 20.5q-48 0 -70 -20t-22 -68v-94zM1028 573q0 -41 20.5 -58t65.5 -17q44 0 65 17.5t21 57.5v72
q0 40 -20 58t-66 18q-45 0 -65.5 -17.5t-20.5 -58.5v-72z" />
    <glyph glyph-name="threeeighths" unicode="&#x215c;" horiz-adv-x="1474" 
d="M289 817q-121 0 -180 55.5t-60 174.5v38h146v-57q0 -53 22.5 -73.5t69.5 -20.5q50 0 71 21.5t21 68.5v78q0 50 -23.5 70t-66.5 20h-84v119h84q86 0 86 82v69q0 46 -21.5 66t-66.5 20t-66.5 -20t-21.5 -70v-51h-146v35q3 223 236 223q55 0 98 -14.5t67 -36.5t40 -51.5
t21 -55t5 -51.5v-24q0 -136 -104 -177q108 -37 108 -184v-24q0 -230 -235 -230zM334 0l696 1655h100l-696 -1655h-100zM950 205v39q0 88 32.5 136.5t86.5 59.5q-50 11 -81.5 53t-31.5 115v33q0 94 59.5 145.5t174.5 51.5q113 0 171 -51.5t58 -145.5v-33q0 -74 -30 -115.5
t-80 -52.5q52 -12 85 -60t33 -136v-39q0 -215 -239 -215q-238 0 -238 215zM1096 195q0 -51 21.5 -70t70.5 -19q51 0 71.5 19t20.5 70v94q0 47 -21.5 67.5t-70.5 20.5q-48 0 -70 -20t-22 -68v-94zM1102 573q0 -41 20.5 -58t65.5 -17q44 0 65 17.5t21 57.5v72q0 40 -20 58
t-66 18q-45 0 -65.5 -17.5t-20.5 -58.5v-72z" />
    <glyph glyph-name="fiveeighths" unicode="&#x215d;" horiz-adv-x="1466" 
d="M336 1382q85 0 135.5 -53t50.5 -168v-84q-3 -260 -241 -260q-116 0 -176 61t-60 181v26h145v-55q0 -94 95 -94q46 0 68 22.5t22 71.5v129q0 101 -88 101q-73 0 -94 -84h-142l25 479h409v-121h-280l-15 -231q46 79 146 79zM328 0l696 1655h100l-696 -1655h-100zM944 205
v39q0 88 32.5 136.5t86.5 59.5q-50 11 -81.5 53t-31.5 115v33q0 94 59.5 145.5t174.5 51.5q113 0 171 -51.5t58 -145.5v-33q0 -74 -30 -115.5t-80 -52.5q52 -12 85 -60t33 -136v-39q0 -215 -239 -215q-238 0 -238 215zM1090 195q0 -51 21.5 -70t70.5 -19q51 0 71.5 19
t20.5 70v94q0 47 -21.5 67.5t-70.5 20.5q-48 0 -70 -20t-22 -68v-94zM1096 573q0 -41 20.5 -58t65.5 -17q44 0 65 17.5t21 57.5v72q0 40 -20 58t-66 18q-45 0 -65.5 -17.5t-20.5 -58.5v-72z" />
    <glyph glyph-name="seveneighths" unicode="&#x215e;" horiz-adv-x="1402" 
d="M27 1534v121h440v-121q-65 -83 -107 -170.5t-60.5 -178.5t-24 -162t-5.5 -167v-29h-143v29q0 92 7 167.5t27.5 165.5t64 177t108.5 168h-307zM262 0l696 1655h99l-697 -1655h-98zM877 205v39q0 88 32 136.5t86 59.5q-50 11 -81 53t-31 115v33q0 94 59 145.5t174 51.5
q114 0 172 -51.5t58 -145.5v-33q0 -74 -30.5 -115.5t-80.5 -52.5q52 -12 85.5 -60t33.5 -136v-39q0 -215 -240 -215q-237 0 -237 215zM1022 195q0 -51 21.5 -70t70.5 -19q51 0 71.5 19t20.5 70v94q0 47 -21.5 67.5t-70.5 20.5q-48 0 -70 -20t-22 -68v-94zM1028 573
q0 -41 20.5 -58t65.5 -17q44 0 65 17.5t21 57.5v72q0 40 -20 58t-66 18q-45 0 -65.5 -17.5t-20.5 -58.5v-72z" />
    <glyph glyph-name="arrowleft" unicode="&#x2190;" horiz-adv-x="1040" 
d="M211 635q100 -46 174.5 -137t91.5 -230h-104q-16 128 -109 226t-207 141v82q114 43 207 140.5t109 225.5h104q-17 -139 -91 -229.5t-175 -136.5h770v-82h-770z" />
    <glyph glyph-name="arrowup" unicode="&#x2191;" horiz-adv-x="921" 
d="M502 160h-82v770q-46 -100 -137 -174.5t-230 -91.5v104q128 16 226 108.5t141 206.5h82q43 -114 140.5 -206.5t225.5 -108.5v-104q-139 17 -229.5 91t-136.5 175v-770z" />
    <glyph glyph-name="arrowright" unicode="&#x2192;" horiz-adv-x="1040" 
d="M59 635v82h770q-101 46 -175 136.5t-91 229.5h105q16 -128 108.5 -225.5t206.5 -140.5v-82q-114 -43 -206.5 -141t-108.5 -226h-105q17 139 91.5 230t174.5 137h-770z" />
    <glyph glyph-name="arrowdown" unicode="&#x2193;" horiz-adv-x="921" 
d="M420 1194h82v-770q46 101 136.5 175t229.5 91v-104q-128 -16 -225.5 -109t-140.5 -207h-82q-43 114 -141 207t-226 109v104q139 -17 230 -91.5t137 -174.5v770z" />
    <glyph glyph-name="arrowboth" unicode="&#x2194;" horiz-adv-x="1327" 
d="M57 733q112 36 206 133t110 226h106q-19 -140 -94 -230.5t-174 -128.5h903q-98 38 -172.5 128.5t-93.5 230.5h104q16 -129 110 -226t206 -133v-98q-112 -36 -206 -133t-110 -226h-104q19 140 93.5 230.5t172.5 128.5h-903q99 -38 174 -128.5t94 -230.5h-106
q-16 129 -110 226t-206 133v98z" />
    <glyph glyph-name="arrowupdn" unicode="&#x2195;" horiz-adv-x="933" 
d="M516 1282q36 -112 132.5 -205.5t225.5 -109.5v-107q-140 19 -230 94t-128 174v-903q38 99 128 173.5t230 93.5v-105q-129 -16 -225.5 -109.5t-132.5 -205.5h-98q-36 112 -133 205.5t-226 109.5v105q140 -19 230.5 -93.5t128.5 -173.5v903q-38 -99 -128.5 -174t-230.5 -94
v107q129 16 226 109.5t133 205.5h98z" />
    <glyph glyph-name="uni2196" unicode="&#x2196;" horiz-adv-x="849" 
d="M805 381l-57 -59l-545 544q25 -65 30.5 -133t-18.5 -152.5t-82 -160.5l-74 74q53 69 71.5 159.5t6.5 171t-43 150.5l60 59q70 -32 150 -44t171 6.5t160 72.5l74 -74q-76 -59 -161 -82.5t-153 -17.5t-133 31z" />
    <glyph glyph-name="uni2197" unicode="&#x2197;" horiz-adv-x="849" 
d="M102 324l-57 57l543 545q-65 -25 -133 -30.5t-153 18t-161 81.5l74 74q69 -53 159.5 -71.5t171 -6.5t150.5 43l60 -59q-31 -70 -43 -150.5t6.5 -171t71.5 -159.5l-74 -74q-58 76 -82 160.5t-18.5 152.5t30.5 133z" />
    <glyph glyph-name="uni2198" unicode="&#x2198;" horiz-adv-x="849" 
d="M43 1034l57 60l545 -545q-25 65 -30 133.5t19 153t83 159.5l74 -73q-54 -69 -73 -160t-7 -171.5t43 -150.5l-58 -59q-71 32 -151 43.5t-171 -6.5t-161 -72l-74 74q76 59 161 83t153 18.5t135 -29.5z" />
    <glyph glyph-name="uni2199" unicode="&#x2199;" horiz-adv-x="851" 
d="M750 1094l57 -58l-545 -544q66 25 134.5 30t153.5 -19t161 -83l-76 -74q-69 54 -160 73t-171 7t-150 -43l-58 57q31 70 43 150.5t-7 172t-73 161.5l74 73q59 -76 83 -160.5t19 -153t-30 -134.5z" />
    <glyph glyph-name="uni21E7" unicode="&#x21e7;" horiz-adv-x="1695" 
d="M479 -14v604h-426l795 883l794 -883h-425v-604h-738zM283 692h299v-604h532v604h299l-565 629z" />
    <glyph glyph-name="partialdiff" unicode="&#x2202;" horiz-adv-x="1124" 
d="M549 -236q-237 0 -376.5 143.5t-139.5 385.5q0 73 14 140t49.5 134t90.5 116t143.5 79.5t201.5 30.5q142 0 244 -50t160 -137q-53 267 -222 442.5t-481 280.5l39 92q192 -63 335 -155t247.5 -223.5t157.5 -312t53 -408.5q0 -261 -133 -409.5t-383 -148.5zM135 293
q0 -202 111.5 -320t302.5 -118q106 0 186.5 34t129.5 96t73.5 144t24.5 182q0 86 -24.5 154t-65.5 111.5t-97.5 72.5t-116.5 41t-127 12q-106 0 -184.5 -32.5t-124 -90t-67 -129t-21.5 -157.5z" />
    <glyph glyph-name="emptyset" unicode="&#x2205;" horiz-adv-x="1370" 
d="M686 272q-106 0 -188 21l-133 -293h-107l145 322q-162 64 -246.5 198.5t-84.5 306.5q0 113 38 211.5t112 175t193.5 120.5t270.5 44q100 0 186 -18l134 295h106l-145 -324q163 -64 248 -198.5t85 -305.5q0 -115 -38 -214t-112 -176t-193.5 -121t-270.5 -44zM174 827
q0 -143 66 -255t202 -166l392 868q-68 12 -148 12q-134 0 -235.5 -37.5t-160.5 -102.5t-87.5 -145t-28.5 -174zM535 379q66 -14 151 -14q108 0 195 25t145 67.5t97 102t56 126t17 141.5q0 142 -66 253.5t-202 164.5z" />
    <glyph glyph-name="product" unicode="&#x220f;" horiz-adv-x="1054" 
d="M721 -225v1554h-387v-1554h-103v1554h-206v86h1007v-86h-209v-1554h-102z" />
    <glyph glyph-name="summation" unicode="&#x2211;" horiz-adv-x="1044" 
d="M41 -236v84l502 744l-502 747v84h963v-84h-844l499 -745l-499 -746h844v-84h-963z" />
    <glyph glyph-name="minus" unicode="&#x2212;" horiz-adv-x="1134" 
d="M66 866h1007v-86h-1007v86z" />
    <glyph glyph-name="radical" unicode="&#x221a;" horiz-adv-x="1243" 
d="M385 -225l-332 733h111l280 -633l394 1538h366v-84h-286l-402 -1554h-131z" />
    <glyph glyph-name="infinity" unicode="&#x221e;" horiz-adv-x="1339" 
d="M1018 406q-94 0 -175 53t-173 149q-94 -96 -175.5 -149t-175.5 -53q-47 0 -89.5 15t-79 45.5t-58.5 84.5t-22 125t22 125.5t59 85t79.5 45t88.5 14.5q94 0 175 -53t176 -150q60 62 105.5 101t111.5 70.5t131 31.5q46 0 89 -15t80.5 -45t60 -84.5t22.5 -125.5t-22 -125
t-59 -84.5t-80 -45.5t-91 -15zM172 676q0 -82 40 -126t116 -44q68 0 130 43t146 127q-84 84 -146 127t-130 43q-156 0 -156 -170zM735 676q84 -84 147 -127t132 -43q75 0 114 44t39 126q0 80 -39 125t-116 45q-68 0 -132 -43.5t-145 -126.5z" />
    <glyph glyph-name="integral" unicode="&#x222b;" horiz-adv-x="731" 
d="M23 -236v84h45q78 0 127 16t74.5 52.5t34.5 82.5t9 120v944q0 86 14.5 147.5t51.5 111t106 74.5t172 25h50v-84h-45q-77 0 -126.5 -16t-75.5 -52.5t-35 -82.5t-9 -119v-944q0 -87 -14.5 -148t-51 -111t-106 -75t-172.5 -25h-49z" />
    <glyph glyph-name="approxequal" unicode="&#x2248;" horiz-adv-x="1175" 
d="M82 895q0 60 16 106t40.5 72.5t59 43.5t66 22.5t66.5 5.5q64 0 125 -20.5t108.5 -50.5t92 -59.5t94.5 -50t98 -20.5q66 0 105.5 38t39.5 110h105q0 -74 -23.5 -126.5t-63 -77.5t-79 -35.5t-84.5 -10.5q-64 0 -125 20.5t-108.5 50t-92 59t-94.5 50t-98 20.5
q-67 0 -106.5 -38t-39.5 -109h-102zM82 547q0 60 16 106t40.5 72.5t59 43.5t66 22.5t66.5 5.5q64 0 125 -20.5t108.5 -50.5t92 -59.5t94.5 -50t98 -20.5q66 0 105.5 37.5t39.5 109.5h105q0 -60 -16 -106t-41 -72.5t-59.5 -43t-66.5 -22t-67 -5.5q-64 0 -125 20.5t-108.5 50
t-92 59t-94.5 50t-98 20.5q-67 0 -106.5 -38t-39.5 -109h-102z" />
    <glyph glyph-name="notequal" unicode="&#x2260;" horiz-adv-x="1167" 
d="M317 305l156 359h-393v86h432l61 143h-493v86h532l156 358h104l-155 -358h370v-86h-409l-62 -143h471v-86h-509l-156 -359h-105z" />
    <glyph glyph-name="lessequal" unicode="&#x2264;" horiz-adv-x="1169" 
d="M78 891l1007 326v-103l-841 -264l841 -264v-158h-1007v86h913l-913 295v82z" />
    <glyph glyph-name="greaterequal" unicode="&#x2265;" horiz-adv-x="1169" 
d="M84 586l844 264l-844 264v103l1008 -326v-82l-914 -295h914v-86h-1008v158z" />
    <glyph glyph-name="uni2317" unicode="&#x2317;" horiz-adv-x="1492" 
d="M82 887v102h393v393h103v-393h340v393h102v-393h393v-102h-393v-340h393v-103h-393v-393h-102v393h-340v-393h-103v393h-393v103h393v340h-393zM578 547h340v340h-340v-340z" />
    <glyph glyph-name="uni2318" unicode="&#x2318;" horiz-adv-x="1581" 
d="M360 14q-124 0 -198 74t-74 199q0 134 92 208t271 74h90v295h-90q-179 0 -271 74.5t-92 208.5q0 125 74 198.5t198 73.5q134 0 208.5 -92t74.5 -270v-90h295v90q0 178 74.5 270t208.5 92q125 0 198.5 -73.5t73.5 -198.5q0 -134 -92 -208.5t-271 -74.5h-90v-295h90
q179 0 271 -74t92 -208q0 -125 -74 -199t-198 -74q-134 0 -208.5 92t-74.5 271v90h-295v-90q0 -179 -74.5 -271t-208.5 -92zM190 287q0 -88 41 -129t129 -41q96 0 138.5 59t42.5 201v90h-90q-143 0 -202 -42.5t-59 -137.5zM190 1147q0 -95 59 -137.5t202 -42.5h90v90
q0 142 -42.5 201t-138.5 59q-88 0 -129 -41t-41 -129zM643 569h295v295h-295v-295zM1040 377q0 -142 42.5 -201t138.5 -59q88 0 129 41t41 129q0 95 -59.5 137.5t-201.5 42.5h-90v-90zM1040 967h90q142 0 201.5 42.5t59.5 137.5q0 88 -41 129t-129 41q-96 0 -138.5 -59
t-42.5 -201v-90z" />
    <glyph glyph-name="uni2325" unicode="&#x2325;" horiz-adv-x="1568" 
d="M850 115l-490 1102h-333v102h399l492 -1102h540v-102h-608zM762 1217v102h696v-102h-696z" />
    <glyph glyph-name="filledbox" unicode="&#x25a0;" horiz-adv-x="1329" 
d="M104 158v1118h1119v-1118h-1119z" />
    <glyph glyph-name="uni25A1" unicode="&#x25a1;" horiz-adv-x="1329" 
d="M104 158v1118h1119v-1118h-1119zM207 260h913v914h-913v-914z" />
    <glyph glyph-name="triagup" unicode="&#x25b2;" horiz-adv-x="1419" 
d="M29 31l682 1179l680 -1179h-1362z" />
    <glyph glyph-name="uni25B3" unicode="&#x25b3;" horiz-adv-x="1482" 
d="M31 31l710 1231l711 -1231h-1421zM207 133h1067l-533 924z" />
    <glyph glyph-name="uni25B6" unicode="&#x25b6;" horiz-adv-x="1345" 
d="M113 1393l1179 -680l-1179 -682v1362z" />
    <glyph glyph-name="uni25B7" unicode="&#x25b7;" horiz-adv-x="1398" 
d="M113 -6v1421l1230 -710zM215 170l924 535l-924 532v-1067z" />
    <glyph glyph-name="triagdn" unicode="&#x25bc;" horiz-adv-x="1433" 
d="M1397 1210l-682 -1179l-680 1179h1362z" />
    <glyph glyph-name="uni25BD" unicode="&#x25bd;" horiz-adv-x="1490" 
d="M745 -20l-710 1230h1421zM213 1108l532 -924l535 924h-1067z" />
    <glyph glyph-name="uni25C0" unicode="&#x25c0;" horiz-adv-x="1345" 
d="M1233 31l-1180 682l1180 680v-1362z" />
    <glyph glyph-name="uni25C1" unicode="&#x25c1;" horiz-adv-x="1398" 
d="M1286 -6l-1231 711l1231 710v-1421zM260 705l924 -535v1067z" />
    <glyph glyph-name="uni25C6" unicode="&#x25c6;" horiz-adv-x="1454" 
d="M729 51l-668 666l668 667l666 -667z" />
    <glyph glyph-name="uni25C7" unicode="&#x25c7;" horiz-adv-x="1495" 
d="M748 29l-687 688l689 688l686 -688zM205 717l545 -543l542 543l-544 543z" />
    <glyph glyph-name="lozenge" unicode="&#x25ca;" horiz-adv-x="837" 
d="M344 1280h148l282 -614l-282 -615h-148l-283 615zM172 666l246 -535l246 535l-246 534z" />
    <glyph glyph-name="circle" unicode="&#x25cb;" horiz-adv-x="1390" 
d="M696 92q-127 0 -243 49.5t-199.5 133.5t-132.5 199.5t-49 242.5t49 242.5t132.5 199t199.5 133t243 49.5q169 0 312.5 -83.5t227 -227.5t83.5 -313t-83.5 -313t-227 -228t-312.5 -84zM174 717q0 -221 150.5 -370.5t371.5 -149.5q145 0 264.5 68t188 187.5t68.5 264.5
t-68.5 264.5t-188 187.5t-264.5 68q-221 0 -371.5 -149.5t-150.5 -370.5z" />
    <glyph glyph-name="uni25CF" unicode="&#x25cf;" horiz-adv-x="1390" 
d="M696 94q-127 0 -243 49.5t-199.5 133t-132.5 198.5t-49 242t49 242.5t132.5 199t199.5 133t243 49.5q169 0 312.5 -83.5t227 -227.5t83.5 -313t-83.5 -312.5t-227 -227t-312.5 -83.5z" />
    <glyph glyph-name="uni2B1B" unicode="&#x2b1b;" horiz-adv-x="2097" 
d="M188 -143v1720h1721v-1720h-1721z" />
    <glyph glyph-name="uni2B1C" unicode="&#x2b1c;" horiz-adv-x="2097" 
d="M188 -143v1720h1721v-1720h-1721zM291 -41h1515v1516h-1515v-1516z" />
    <glyph glyph-name="uni2B98" unicode="&#x2b98;" horiz-adv-x="1441" 
d="M1366 -39l-1288 744l1288 743l-322 -743zM283 705h649l217 499z" />
    <glyph glyph-name="uni2B99" unicode="&#x2b99;" horiz-adv-x="1525" 
d="M18 -27l744 1289l743 -1289l-743 322zM762 408l500 -218l-500 867v-649z" />
    <glyph glyph-name="uni2B9A" unicode="&#x2b9a;" horiz-adv-x="1441" 
d="M78 -39l321 744l-321 743l1288 -743zM295 1204l217 -499h649z" />
    <glyph glyph-name="uni2B9B" unicode="&#x2b9b;" horiz-adv-x="1527" 
d="M764 -20l-744 1288l744 -322l743 322zM264 1051l500 -867v650z" />
    <glyph glyph-name="uni2B9C" unicode="&#x2b9c;" horiz-adv-x="1339" 
d="M1255 31l-1179 682l1179 680l-294 -680z" />
    <glyph glyph-name="uni2B9D" unicode="&#x2b9d;" horiz-adv-x="1411" 
d="M25 31l682 1179l679 -1179l-679 295z" />
    <glyph glyph-name="uni2B9E" unicode="&#x2b9e;" horiz-adv-x="1339" 
d="M86 31l295 682l-295 680l1180 -680z" />
    <glyph glyph-name="uni2B9F" unicode="&#x2b9f;" horiz-adv-x="1413" 
d="M705 31l-680 1179l680 -295l681 295z" />
    <glyph glyph-name="uni3000" unicode="&#x3000;" horiz-adv-x="2048" 
 />
    <glyph glyph-name="uni004A0301" horiz-adv-x="1032" 
d="M487 -20q-229 0 -339.5 129t-110.5 387v102h256v-164q0 -136 46 -192t148 -56q100 0 147.5 55.5t47.5 188.5v1225h254v-1166q0 -254 -110 -381.5t-339 -127.5zM471 1864l645 151l21 -80l-645 -149z" />
    <glyph glyph-name="I.bracket" horiz-adv-x="567" 
d="M160 0v1655h250v-1655h-250z" />
    <glyph glyph-name="A.ss01" horiz-adv-x="1597" 
d="M14 0l621 1655h328l620 -1655h-266l-117 319h-805l-114 -319h-267zM475 539h645l-309 852l-14 39l-15 -39z" />
    <glyph glyph-name="Aacute.ss01" horiz-adv-x="1597" 
d="M14 0l621 1655h328l620 -1655h-266l-117 319h-805l-114 -319h-267zM293 1855l989 152l21 -80l-990 -151zM475 539h645l-309 852l-14 39l-15 -39z" />
    <glyph glyph-name="Abreve.ss01" horiz-adv-x="1597" 
d="M14 0l621 1655h328l620 -1655h-266l-117 319h-805l-114 -319h-267zM342 2015h102q0 -43 26 -73t76 -46t111 -23t144 -7q82 0 142.5 6.5t109 23t73.5 46.5t25 73h102q0 -68 -31 -115t-93 -73.5t-141 -37.5t-187 -11t-188 11t-143 37.5t-95.5 73.5t-32.5 115zM475 539h645
l-309 852l-14 39l-15 -39z" />
    <glyph glyph-name="Acircumflex.ss01" horiz-adv-x="1597" 
d="M14 0l621 1655h328l620 -1655h-266l-117 319h-805l-114 -319h-267zM356 1745l375 262h143l367 -262h-176l-262 197l-271 -197h-176zM475 539h645l-309 852l-14 39l-15 -39z" />
    <glyph glyph-name="Adieresis.ss01" horiz-adv-x="1597" 
d="M14 0l621 1655h328l620 -1655h-266l-117 319h-805l-114 -319h-267zM379 1874q0 46 29.5 74t72.5 28q40 0 70.5 -28.5t30.5 -73.5q0 -43 -30.5 -70.5t-70.5 -27.5q-42 0 -72 27.5t-30 70.5zM475 539h645l-309 852l-14 39l-15 -39zM1016 1874q0 46 29.5 74t70.5 28
q40 0 70.5 -28.5t30.5 -73.5q0 -43 -30.5 -70.5t-70.5 -27.5q-41 0 -70.5 27.5t-29.5 70.5z" />
    <glyph glyph-name="Agrave.ss01" horiz-adv-x="1597" 
d="M14 0l621 1655h328l620 -1655h-266l-117 319h-805l-114 -319h-267zM293 1927l20 80l990 -152l-21 -79zM475 539h645l-309 852l-14 39l-15 -39z" />
    <glyph glyph-name="Amacron.ss01" horiz-adv-x="1597" 
d="M14 0l621 1655h328l620 -1655h-266l-117 319h-805l-114 -319h-267zM293 1851v82h1010v-82h-1010zM475 539h645l-309 852l-14 39l-15 -39z" />
    <glyph glyph-name="Aogonek.ss01" horiz-adv-x="1597" 
d="M14 0l621 1655h328l620 -1655h-2q-108 -34 -160.5 -80t-52.5 -110q0 -62 54 -89.5t182 -27.5h20l-82 -103h-18q-126 0 -201.5 47.5t-75.5 137.5q0 48 20.5 86t57 64.5t74.5 43.5t86 31h-168l-117 319h-805l-114 -319h-267zM475 539h645l-309 852l-14 39l-15 -39z" />
    <glyph glyph-name="Aring.ss01" horiz-adv-x="1597" 
d="M14 0l621 1655h328l620 -1655h-266l-117 319h-805l-114 -319h-267zM475 539h645l-309 852l-14 39l-15 -39zM633 1913q0 71 49.5 118.5t116.5 47.5t116.5 -47.5t49.5 -118.5t-49.5 -118.5t-116.5 -47.5t-116.5 47.5t-49.5 118.5zM721 1913q0 -34 21.5 -56t56.5 -22
t56.5 22t21.5 56t-21.5 56t-56.5 22t-56.5 -22t-21.5 -56z" />
    <glyph glyph-name="Atilde.ss01" horiz-adv-x="1597" 
d="M14 0l621 1655h328l620 -1655h-266l-117 319h-805l-114 -319h-267zM350 1786q0 105 64.5 167t183.5 62q58 0 103.5 -16t76 -38.5t59 -45.5t67 -39t85.5 -16q76 0 115 37t39 102h102q0 -108 -66.5 -169t-189.5 -61q-61 0 -109.5 16t-79.5 39t-59 46t-64 39t-79 16
q-71 0 -108 -39t-37 -100h-103zM475 539h645l-309 852l-14 39l-15 -39z" />
    <glyph glyph-name="B.ss01" horiz-adv-x="1634" 
d="M141 0v1655h867q237 0 362 -103.5t125 -316.5v-16q0 -274 -205 -347q117 -37 189.5 -139.5t72.5 -251.5v-16q0 -229 -133 -347t-387 -118h-891zM389 221h623q143 0 213.5 59.5t70.5 188.5v35q0 129 -73 185t-217 56h-617v-524zM389 967h584q136 0 201 51.5t65 171.5v29
q0 66 -18 110t-55.5 66t-81 30.5t-107.5 8.5h-588v-467z" />
    <glyph glyph-name="C.ss01" horiz-adv-x="1718" 
d="M879 -20q-191 0 -344 60t-250.5 165t-149 243.5t-51.5 299.5v163q0 160 51.5 298t149.5 242t251.5 164t344.5 60q172 0 312.5 -48t234.5 -132.5t148.5 -196.5t63.5 -243l2 -82h-258l-4 96q-14 175 -141.5 280t-357.5 105q-136 0 -240.5 -39t-169.5 -110t-98 -166.5
t-33 -212.5v-195q0 -244 136 -387t405 -143q231 0 357 104t142 283l4 96h258l-2 -80q-9 -130 -63 -242t-147.5 -198t-235.5 -135t-315 -49z" />
    <glyph glyph-name="Cacute.ss01" horiz-adv-x="1718" 
d="M879 -20q-191 0 -344 60t-250.5 165t-149 243.5t-51.5 299.5v163q0 160 51.5 298t149.5 242t251.5 164t344.5 60q172 0 312.5 -48t234.5 -132.5t148.5 -196.5t63.5 -243l2 -82h-258l-4 96q-14 175 -141.5 280t-357.5 105q-136 0 -240.5 -39t-169.5 -110t-98 -166.5
t-33 -212.5v-195q0 -244 136 -387t405 -143q231 0 357 104t142 283l4 96h258l-2 -80q-9 -130 -63 -242t-147.5 -198t-235.5 -135t-315 -49zM358 1855l990 152l20 -80l-989 -151z" />
    <glyph glyph-name="Ccaron.ss01" horiz-adv-x="1718" 
d="M879 -20q-191 0 -344 60t-250.5 165t-149 243.5t-51.5 299.5v163q0 160 51.5 298t149.5 242t251.5 164t344.5 60q172 0 312.5 -48t234.5 -132.5t148.5 -196.5t63.5 -243l2 -82h-258l-4 96q-14 175 -141.5 280t-357.5 105q-136 0 -240.5 -39t-169.5 -110t-98 -166.5
t-33 -212.5v-195q0 -244 136 -387t405 -143q231 0 357 104t142 283l4 96h258l-2 -80q-9 -130 -63 -242t-147.5 -198t-235.5 -135t-315 -49zM420 2040h176l270 -197l262 197h177l-367 -262h-143z" />
    <glyph glyph-name="Ccedilla.ss01" horiz-adv-x="1718" 
d="M727 -334q143 0 199.5 13.5t56.5 60.5q0 26 -13 40t-43.5 18t-67 1.5t-95.5 -10.5l47 193q-141 9 -259.5 52t-204 113.5t-145 164t-89 204t-29.5 232.5v163q0 160 51.5 298t149.5 242t251.5 164t344.5 60q172 0 312.5 -48t234.5 -132.5t148.5 -196.5t63.5 -243l2 -82
h-258l-4 96q-14 175 -141.5 280t-357.5 105q-136 0 -240.5 -39t-169.5 -110t-98 -166.5t-33 -212.5v-195q0 -244 136 -387t405 -143q231 0 357 104t142 283l4 96h258l-2 -80q-9 -127 -61 -237t-142 -195.5t-226 -136.5t-302 -55l-26 -107q221 27 221 -129q0 -90 -85 -129
t-292 -39v90z" />
    <glyph glyph-name="Cdotaccent.ss01" horiz-adv-x="1718" 
d="M879 -20q-191 0 -344 60t-250.5 165t-149 243.5t-51.5 299.5v163q0 160 51.5 298t149.5 242t251.5 164t344.5 60q172 0 312.5 -48t234.5 -132.5t148.5 -196.5t63.5 -243l2 -82h-258l-4 96q-14 175 -141.5 280t-357.5 105q-136 0 -240.5 -39t-169.5 -110t-98 -166.5
t-33 -212.5v-195q0 -244 136 -387t405 -143q231 0 357 104t142 283l4 96h258l-2 -80q-9 -130 -63 -242t-147.5 -198t-235.5 -135t-315 -49zM727 1878q0 55 36 89t101 34t101 -34t36 -89q0 -50 -36 -83.5t-101 -33.5t-101 33.5t-36 83.5z" />
    <glyph glyph-name="D.ss01" horiz-adv-x="1679" 
d="M141 0v1655h717q352 0 541.5 -184t189.5 -562v-164q0 -375 -190.5 -560t-540.5 -185h-717zM389 217h469q245 0 359 128.5t114 389.5v185q0 261 -114 389.5t-359 128.5h-469v-1221z" />
    <glyph glyph-name="Eth.ss01" horiz-adv-x="1818" 
d="M281 0v788h-244v130h244v737h716q352 0 542 -184t190 -562v-164q0 -375 -191 -560t-541 -185h-716zM528 217h469q245 0 359 128.5t114 389.5v185q0 261 -114 389.5t-359 128.5h-469v-520h572v-130h-572v-571z" />
    <glyph glyph-name="Dcaron.ss01" horiz-adv-x="1679" 
d="M141 0v1655h717q352 0 541.5 -184t189.5 -562v-164q0 -375 -190.5 -560t-540.5 -185h-717zM389 217h469q245 0 359 128.5t114 389.5v185q0 261 -114 389.5t-359 128.5h-469v-1221zM393 2040h176l271 -197l262 197h176l-367 -262h-143z" />
    <glyph glyph-name="Dcroat.ss01" horiz-adv-x="1818" 
d="M281 0v788h-244v130h244v737h716q352 0 542 -184t190 -562v-164q0 -375 -191 -560t-541 -185h-716zM528 217h469q245 0 359 128.5t114 389.5v185q0 261 -114 389.5t-359 128.5h-469v-520h572v-130h-572v-571z" />
    <glyph glyph-name="E.ss01" horiz-adv-x="1423" 
d="M141 0v1655h1194v-221h-946v-496h891v-221h-891v-496h946v-221h-1194z" />
    <glyph glyph-name="Eacute.ss01" horiz-adv-x="1423" 
d="M141 0v1655h1194v-221h-946v-496h891v-221h-891v-496h946v-221h-1194zM203 1855l989 152l20 -80l-989 -151z" />
    <glyph glyph-name="Ecaron.ss01" horiz-adv-x="1423" 
d="M141 0v1655h1194v-221h-946v-496h891v-221h-891v-496h946v-221h-1194zM266 2040h176l271 -197l262 197h176l-367 -262h-143z" />
    <glyph glyph-name="Ecircumflex.ss01" horiz-adv-x="1423" 
d="M141 0v1655h1194v-221h-946v-496h891v-221h-891v-496h946v-221h-1194zM266 1745l375 262h143l367 -262h-176l-262 197l-271 -197h-176z" />
    <glyph glyph-name="Edieresis.ss01" horiz-adv-x="1423" 
d="M141 0v1655h1194v-221h-946v-496h891v-221h-891v-496h946v-221h-1194zM289 1874q0 46 29.5 74t72.5 28q40 0 70.5 -28.5t30.5 -73.5q0 -43 -30.5 -70.5t-70.5 -27.5q-42 0 -72 27.5t-30 70.5zM926 1874q0 46 29.5 74t70.5 28q40 0 70 -28.5t30 -73.5q0 -43 -30 -70.5
t-70 -27.5q-41 0 -70.5 27.5t-29.5 70.5z" />
    <glyph glyph-name="Edotaccent.ss01" horiz-adv-x="1423" 
d="M141 0v1655h1194v-221h-946v-496h891v-221h-891v-496h946v-221h-1194zM571 1878q0 54 36.5 88.5t101.5 34.5t101 -34t36 -89q0 -50 -36 -83.5t-101 -33.5t-101.5 33.5t-36.5 83.5z" />
    <glyph glyph-name="Egrave.ss01" horiz-adv-x="1423" 
d="M141 0v1655h1194v-221h-946v-496h891v-221h-891v-496h946v-221h-1194zM203 1927l20 80l989 -152l-20 -79z" />
    <glyph glyph-name="Emacron.ss01" horiz-adv-x="1423" 
d="M141 0v1655h1194v-221h-946v-496h891v-221h-891v-496h946v-221h-1194zM203 1851v82h1009v-82h-1009z" />
    <glyph glyph-name="Eogonek.ss01" horiz-adv-x="1423" 
d="M141 0v1655h1194v-221h-946v-496h891v-221h-891v-496h946v-221h-2q-108 -34 -160.5 -80t-52.5 -110q0 -62 54 -89.5t182 -27.5h20l-82 -103h-18q-126 0 -201.5 47.5t-75.5 137.5q0 48 20.5 86t57 64.5t74.5 43.5t86 31h-1096z" />
    <glyph glyph-name="F.ss01" horiz-adv-x="1411" 
d="M141 0v1655h1221v-221h-973v-564h916v-219h-916v-651h-248z" />
    <glyph glyph-name="G.ss01" horiz-adv-x="1746" 
d="M850 -20q-183 0 -329.5 60t-240.5 164.5t-144 242.5t-50 298v166q0 160 50 297t146 242t248 165t344 60q166 0 306.5 -47.5t235.5 -129.5t152 -190.5t66 -232.5l2 -55h-260l-2 72q-13 166 -148 264t-347 98q-112 0 -202.5 -27.5t-152 -75t-103 -115t-60.5 -144.5
t-19 -166v-193q0 -114 31 -209.5t92.5 -168.5t161.5 -113.5t229 -40.5q222 0 358 106.5t156 294.5v51h-631v205h897v-858h-163l-31 276q-83 -138 -232.5 -217t-359.5 -79z" />
    <glyph glyph-name="Gbreve.ss01" horiz-adv-x="1746" 
d="M850 -20q-183 0 -329.5 60t-240.5 164.5t-144 242.5t-50 298v166q0 160 50 297t146 242t248 165t344 60q166 0 306.5 -47.5t235.5 -129.5t152 -190.5t66 -232.5l2 -55h-260l-2 72q-13 166 -148 264t-347 98q-112 0 -202.5 -27.5t-152 -75t-103 -115t-60.5 -144.5
t-19 -166v-193q0 -114 31 -209.5t92.5 -168.5t161.5 -113.5t229 -40.5q222 0 358 106.5t156 294.5v51h-631v205h897v-858h-163l-31 276q-83 -138 -232.5 -217t-359.5 -79zM418 2015h102q0 -43 26 -73t76 -46t111 -23t144 -7q82 0 142.5 6.5t109 23t73.5 46.5t25 73h102
q0 -68 -31 -115t-93 -73.5t-141 -37.5t-187 -11t-188 11t-143 37.5t-95.5 73.5t-32.5 115z" />
    <glyph glyph-name="uni0122.ss01" horiz-adv-x="1746" 
d="M850 -20q-183 0 -329.5 60t-240.5 164.5t-144 242.5t-50 298v166q0 160 50 297t146 242t248 165t344 60q166 0 306.5 -47.5t235.5 -129.5t152 -190.5t66 -232.5l2 -55h-260l-2 72q-13 166 -148 264t-347 98q-112 0 -202.5 -27.5t-152 -75t-103 -115t-60.5 -144.5
t-19 -166v-193q0 -114 31 -209.5t92.5 -168.5t161.5 -113.5t229 -40.5q222 0 358 106.5t156 294.5v51h-631v205h897v-858h-163l-31 276q-83 -138 -232.5 -217t-359.5 -79zM770 -176q0 46 30 75t77 29t74.5 -32.5t27.5 -92.5q0 -71 -46 -135.5t-134 -105.5v88q102 32 127 114
q-28 -36 -70 -36q-36 0 -61 26t-25 70z" />
    <glyph glyph-name="Gdotaccent.ss01" horiz-adv-x="1746" 
d="M850 -20q-183 0 -329.5 60t-240.5 164.5t-144 242.5t-50 298v166q0 160 50 297t146 242t248 165t344 60q166 0 306.5 -47.5t235.5 -129.5t152 -190.5t66 -232.5l2 -55h-260l-2 72q-13 166 -148 264t-347 98q-112 0 -202.5 -27.5t-152 -75t-103 -115t-60.5 -144.5
t-19 -166v-193q0 -114 31 -209.5t92.5 -168.5t161.5 -113.5t229 -40.5q222 0 358 106.5t156 294.5v51h-631v205h897v-858h-163l-31 276q-83 -138 -232.5 -217t-359.5 -79zM737 1878q0 55 36 89t101 34t101.5 -34.5t36.5 -88.5q0 -50 -36.5 -83.5t-101.5 -33.5t-101 33.5
t-36 83.5z" />
    <glyph glyph-name="H.ss01" horiz-adv-x="1667" 
d="M1278 0v717h-889v-717h-248v1655h248v-717h889v717h248v-1655h-248z" />
    <glyph glyph-name="Hbar.ss01" horiz-adv-x="1910" 
d="M1399 0v717h-889v-717h-248v1169h-215v131h215v355h248v-355h889v355h248v-355h215v-131h-215v-1169h-248zM510 938h889v231h-889v-231z" />
    <glyph glyph-name="I.ss01" horiz-adv-x="1249" 
d="M74 0v225h426v1205h-426v225h1102v-225h-426v-1205h426v-225h-1102z" />
    <glyph glyph-name="Iacute.ss01" horiz-adv-x="1249" 
d="M74 0v225h426v1205h-426v225h1102v-225h-426v-1205h426v-225h-1102zM119 1855l989 152l20 -80l-989 -151z" />
    <glyph glyph-name="Icircumflex.ss01" horiz-adv-x="1249" 
d="M74 0v225h426v1205h-426v225h1102v-225h-426v-1205h426v-225h-1102zM182 1745l375 262h143l367 -262h-176l-262 197l-271 -197h-176z" />
    <glyph glyph-name="Idieresis.ss01" horiz-adv-x="1249" 
d="M74 0v225h426v1205h-426v225h1102v-225h-426v-1205h426v-225h-1102zM205 1874q0 46 29.5 74t72.5 28q40 0 70.5 -28.5t30.5 -73.5q0 -43 -30.5 -70.5t-70.5 -27.5q-42 0 -72 27.5t-30 70.5zM842 1874q0 46 29.5 74t70.5 28q40 0 70 -28.5t30 -73.5q0 -43 -30 -70.5
t-70 -27.5q-41 0 -70.5 27.5t-29.5 70.5z" />
    <glyph glyph-name="Idotaccent.ss01" horiz-adv-x="1249" 
d="M74 0v225h426v1205h-426v225h1102v-225h-426v-1205h426v-225h-1102zM487 1878q0 54 36.5 88.5t101.5 34.5t101 -34t36 -89q0 -50 -36 -83.5t-101 -33.5t-101.5 33.5t-36.5 83.5z" />
    <glyph glyph-name="Igrave.ss01" horiz-adv-x="1249" 
d="M74 0v225h426v1205h-426v225h1102v-225h-426v-1205h426v-225h-1102zM119 1927l20 80l989 -152l-20 -79z" />
    <glyph glyph-name="Imacron.ss01" horiz-adv-x="1249" 
d="M74 0v225h426v1205h-426v225h1102v-225h-426v-1205h426v-225h-1102zM119 1851v82h1009v-82h-1009z" />
    <glyph glyph-name="Iogonek.ss01" horiz-adv-x="1249" 
d="M74 0v225h426v1205h-426v225h1102v-225h-426v-1205h426v-225q-108 -34 -160.5 -80t-52.5 -110q0 -62 53.5 -89.5t181.5 -27.5h21l-82 -103h-19q-126 0 -201 47.5t-75 137.5q0 156 237 225h-1005z" />
    <glyph glyph-name="J.ss01" horiz-adv-x="1486" 
d="M702 -20q-345 0 -502 162t-157 499v31h254v-47q0 -222 91.5 -323t313.5 -101q216 0 311 98.5t95 308.5v1047h252v-1032q0 -323 -158 -483t-500 -160z" />
    <glyph glyph-name="K.ss01" horiz-adv-x="1538" 
d="M1217 0l-713 715h-115v-715h-248v1655h248v-715h115l713 715h325l-844 -828l844 -827h-325z" />
    <glyph glyph-name="uni0136.ss01" horiz-adv-x="1538" 
d="M1217 0l-713 715h-115v-715h-248v1655h248v-715h115l713 715h325l-844 -828l844 -827h-325zM694 -176q0 46 30 75t77 29t74.5 -32.5t27.5 -92.5q0 -71 -46 -135.5t-134 -105.5v88q102 32 127 114q-28 -36 -70 -36q-36 0 -61 26t-25 70z" />
    <glyph glyph-name="L.ss01" horiz-adv-x="1359" 
d="M141 0v1655h248v-1434h940v-221h-1188z" />
    <glyph glyph-name="Lacute.ss01" horiz-adv-x="1359" 
d="M141 0v1655h248v-1434h940v-221h-1188zM162 1855l989 152l20 -80l-989 -151z" />
    <glyph glyph-name="Lcaron.ss01" horiz-adv-x="1368" 
d="M141 0v1655h248v-1434h940v-221h-1188zM676 1186l51 469h141l-96 -469h-96z" />
    <glyph glyph-name="uni013B.ss01" horiz-adv-x="1359" 
d="M141 0v1655h248v-1434h940v-221h-1188zM592 -176q0 46 29.5 75t76.5 29t75 -32.5t28 -92.5q0 -71 -46 -135.5t-134 -105.5v88q102 32 127 114q-28 -36 -70 -36q-36 0 -61 26t-25 70z" />
    <glyph glyph-name="Lslash.ss01" horiz-adv-x="1507" 
d="M289 0v680l-250 -86v145l250 86v830h248v-744l512 179v-146l-512 -178v-545h940v-221h-1188z" />
    <glyph glyph-name="M.ss01" horiz-adv-x="1976" 
d="M141 0v1655h279l567 -1249l567 1249h281v-1655h-238v1196l-544 -1196h-129l-545 1196v-1196h-238z" />
    <glyph glyph-name="N.ss01" horiz-adv-x="1695" 
d="M141 0v1655h244l928 -1264v1264h241v-1655h-243l-928 1264v-1264h-242z" />
    <glyph glyph-name="Nacute.ss01" horiz-adv-x="1695" 
d="M141 0v1655h244l928 -1264v1264h241v-1655h-243l-928 1264v-1264h-242zM342 1855l989 152l21 -80l-990 -151z" />
    <glyph glyph-name="Ncaron.ss01" horiz-adv-x="1695" 
d="M141 0v1655h244l928 -1264v1264h241v-1655h-243l-928 1264v-1264h-242zM403 2040h177l270 -197l262 197h176l-366 -262h-144z" />
    <glyph glyph-name="uni0145.ss01" horiz-adv-x="1695" 
d="M141 0v1655h244l928 -1264v1264h241v-1655h-243l-928 1264v-1264h-242zM743 -176q0 46 30 75t77 29t74.5 -32.5t27.5 -92.5q0 -71 -46 -135.5t-134 -105.5v88q102 32 127 114q-28 -36 -70 -36q-36 0 -61 26t-25 70z" />
    <glyph glyph-name="Ntilde.ss01" horiz-adv-x="1695" 
d="M141 0v1655h244l928 -1264v1264h241v-1655h-243l-928 1264v-1264h-242zM399 1786q0 105 64.5 167t183.5 62q58 0 103.5 -16t76 -38.5t59 -45.5t67 -39t85.5 -16q76 0 115 37t39 102h102q0 -108 -66.5 -169t-189.5 -61q-61 0 -109.5 16t-79.5 39t-59 46t-64 39t-79 16
q-71 0 -108 -39t-37 -100h-103z" />
    <glyph glyph-name="O.ss01" horiz-adv-x="1746" 
d="M874 -20q-151 0 -279 39.5t-221.5 110t-159 166.5t-98 210.5t-32.5 241.5v163q0 158 52 296t149.5 242.5t249 165t339.5 60.5q187 0 338.5 -60.5t249 -165t149.5 -242.5t52 -296v-163q0 -127 -32.5 -241.5t-98.5 -210.5t-159 -166.5t-221 -110t-278 -39.5zM340 733
q0 -89 20 -167t62.5 -145t104.5 -115.5t150.5 -75.5t196.5 -27q132 0 235.5 41.5t167.5 114.5t97 168t33 206v193q0 110 -33 204t-97 167t-167.5 115t-235.5 42q-134 0 -238 -42t-167.5 -115t-96 -167t-32.5 -204v-193z" />
    <glyph glyph-name="Oacute.ss01" horiz-adv-x="1746" 
d="M874 -20q-151 0 -279 39.5t-221.5 110t-159 166.5t-98 210.5t-32.5 241.5v163q0 158 52 296t149.5 242.5t249 165t339.5 60.5q187 0 338.5 -60.5t249 -165t149.5 -242.5t52 -296v-163q0 -127 -32.5 -241.5t-98.5 -210.5t-159 -166.5t-221 -110t-278 -39.5zM340 733
q0 -89 20 -167t62.5 -145t104.5 -115.5t150.5 -75.5t196.5 -27q132 0 235.5 41.5t167.5 114.5t97 168t33 206v193q0 110 -33 204t-97 167t-167.5 115t-235.5 42q-134 0 -238 -42t-167.5 -115t-96 -167t-32.5 -204v-193zM369 1855l989 152l20 -80l-989 -151z" />
    <glyph glyph-name="Ocircumflex.ss01" horiz-adv-x="1746" 
d="M874 -20q-151 0 -279 39.5t-221.5 110t-159 166.5t-98 210.5t-32.5 241.5v163q0 158 52 296t149.5 242.5t249 165t339.5 60.5q187 0 338.5 -60.5t249 -165t149.5 -242.5t52 -296v-163q0 -127 -32.5 -241.5t-98.5 -210.5t-159 -166.5t-221 -110t-278 -39.5zM340 733
q0 -89 20 -167t62.5 -145t104.5 -115.5t150.5 -75.5t196.5 -27q132 0 235.5 41.5t167.5 114.5t97 168t33 206v193q0 110 -33 204t-97 167t-167.5 115t-235.5 42q-134 0 -238 -42t-167.5 -115t-96 -167t-32.5 -204v-193zM430 1745l375 262h143l367 -262h-176l-262 197
l-271 -197h-176z" />
    <glyph glyph-name="Odieresis.ss01" horiz-adv-x="1746" 
d="M874 -20q-151 0 -279 39.5t-221.5 110t-159 166.5t-98 210.5t-32.5 241.5v163q0 158 52 296t149.5 242.5t249 165t339.5 60.5q187 0 338.5 -60.5t249 -165t149.5 -242.5t52 -296v-163q0 -127 -32.5 -241.5t-98.5 -210.5t-159 -166.5t-221 -110t-278 -39.5zM340 733
q0 -89 20 -167t62.5 -145t104.5 -115.5t150.5 -75.5t196.5 -27q132 0 235.5 41.5t167.5 114.5t97 168t33 206v193q0 110 -33 204t-97 167t-167.5 115t-235.5 42q-134 0 -238 -42t-167.5 -115t-96 -167t-32.5 -204v-193zM453 1874q0 46 29.5 74t72.5 28q40 0 70 -28.5
t30 -73.5q0 -43 -30 -70.5t-70 -27.5q-42 0 -72 27.5t-30 70.5zM1090 1874q0 46 29.5 74t70.5 28q40 0 70 -28.5t30 -73.5q0 -43 -30 -70.5t-70 -27.5q-41 0 -70.5 27.5t-29.5 70.5z" />
    <glyph glyph-name="Ograve.ss01" horiz-adv-x="1746" 
d="M874 -20q-151 0 -279 39.5t-221.5 110t-159 166.5t-98 210.5t-32.5 241.5v163q0 158 52 296t149.5 242.5t249 165t339.5 60.5q187 0 338.5 -60.5t249 -165t149.5 -242.5t52 -296v-163q0 -127 -32.5 -241.5t-98.5 -210.5t-159 -166.5t-221 -110t-278 -39.5zM340 733
q0 -89 20 -167t62.5 -145t104.5 -115.5t150.5 -75.5t196.5 -27q132 0 235.5 41.5t167.5 114.5t97 168t33 206v193q0 110 -33 204t-97 167t-167.5 115t-235.5 42q-134 0 -238 -42t-167.5 -115t-96 -167t-32.5 -204v-193zM369 1927l20 80l989 -152l-20 -79z" />
    <glyph glyph-name="Ohungarumlaut.ss01" horiz-adv-x="1746" 
d="M874 -20q-151 0 -279 39.5t-221.5 110t-159 166.5t-98 210.5t-32.5 241.5v163q0 158 52 296t149.5 242.5t249 165t339.5 60.5q187 0 338.5 -60.5t249 -165t149.5 -242.5t52 -296v-163q0 -127 -32.5 -241.5t-98.5 -210.5t-159 -166.5t-221 -110t-278 -39.5zM340 733
q0 -89 20 -167t62.5 -145t104.5 -115.5t150.5 -75.5t196.5 -27q132 0 235.5 41.5t167.5 114.5t97 168t33 206v193q0 110 -33 204t-97 167t-167.5 115t-235.5 42q-134 0 -238 -42t-167.5 -115t-96 -167t-32.5 -204v-193zM686 1778l242 229h121l-222 -229h-141zM928 1778
l241 229h121l-221 -229h-141z" />
    <glyph glyph-name="Omacron.ss01" horiz-adv-x="1746" 
d="M874 -20q-151 0 -279 39.5t-221.5 110t-159 166.5t-98 210.5t-32.5 241.5v163q0 158 52 296t149.5 242.5t249 165t339.5 60.5q187 0 338.5 -60.5t249 -165t149.5 -242.5t52 -296v-163q0 -127 -32.5 -241.5t-98.5 -210.5t-159 -166.5t-221 -110t-278 -39.5zM340 733
q0 -89 20 -167t62.5 -145t104.5 -115.5t150.5 -75.5t196.5 -27q132 0 235.5 41.5t167.5 114.5t97 168t33 206v193q0 110 -33 204t-97 167t-167.5 115t-235.5 42q-134 0 -238 -42t-167.5 -115t-96 -167t-32.5 -204v-193zM369 1851v82h1009v-82h-1009z" />
    <glyph glyph-name="Oslash.ss01" horiz-adv-x="1746" 
d="M170 12l133 178q-107 104 -163 248.5t-56 309.5v163q0 158 52 296t149.5 242.5t249 165t339.5 60.5q266 0 455 -119l66 89h182l-133 -179q107 -104 163 -247.5t56 -307.5v-163q0 -127 -32.5 -241.5t-98.5 -210.5t-159 -166.5t-221 -110t-278 -39.5q-265 0 -456 120
l-66 -88h-182zM340 733q0 -212 109 -350l741 987q-130 84 -316 84q-134 0 -238 -42t-167.5 -115t-96 -167t-32.5 -204v-193zM557 285q132 -82 317 -82q132 0 235.5 41.5t167.5 114.5t97 168t33 206v193q0 210 -109 346z" />
    <glyph glyph-name="Otilde.ss01" horiz-adv-x="1746" 
d="M874 -20q-151 0 -279 39.5t-221.5 110t-159 166.5t-98 210.5t-32.5 241.5v163q0 158 52 296t149.5 242.5t249 165t339.5 60.5q187 0 338.5 -60.5t249 -165t149.5 -242.5t52 -296v-163q0 -127 -32.5 -241.5t-98.5 -210.5t-159 -166.5t-221 -110t-278 -39.5zM340 733
q0 -89 20 -167t62.5 -145t104.5 -115.5t150.5 -75.5t196.5 -27q132 0 235.5 41.5t167.5 114.5t97 168t33 206v193q0 110 -33 204t-97 167t-167.5 115t-235.5 42q-134 0 -238 -42t-167.5 -115t-96 -167t-32.5 -204v-193zM426 1786q0 105 64.5 167t183.5 62q58 0 103.5 -16
t76 -38.5t59 -45.5t67 -39t85.5 -16q76 0 115 37t39 102h102q0 -108 -66.5 -169t-189.5 -61q-61 0 -109.5 16t-79.5 39t-59 46t-64 39t-79 16q-72 0 -109 -39t-37 -100h-102z" />
    <glyph glyph-name="P.ss01" horiz-adv-x="1609" 
d="M141 0v1655h822q593 0 593 -543v-18q0 -547 -593 -547h-574v-547h-248zM389 764h565q182 0 264 75t82 238v56q0 159 -82 233t-264 74h-565v-676z" />
    <glyph glyph-name="Q.ss01" horiz-adv-x="1746" 
d="M1468 -342q-228 88 -401.5 125.5t-398.5 46.5l2 170q-187 39 -321 149t-199.5 263.5t-65.5 335.5v163q0 158 52 296t149.5 242.5t249 165t339.5 60.5q187 0 338.5 -60.5t249 -165t149.5 -242.5t52 -296v-163q0 -146 -44 -275.5t-127 -232t-212 -169.5t-289 -85
q243 -27 477 -117v-211zM340 733q0 -89 20 -167t62.5 -145t104.5 -115.5t150.5 -75.5t196.5 -27q132 0 235.5 41.5t167.5 114.5t97 168t33 206v193q0 110 -33 204t-97 167t-167.5 115t-235.5 42q-134 0 -238 -42t-167.5 -115t-96 -167t-32.5 -204v-193z" />
    <glyph glyph-name="R.ss01" horiz-adv-x="1636" 
d="M1298 0q-24 26 -24 150v241q0 74 -24.5 126t-70 80t-100.5 40t-125 12h-565v-649h-248v1655h820q284 0 425.5 -119.5t141.5 -364.5v-10q0 -332 -271 -401q129 -32 199 -129.5t70 -239.5v-241q0 -122 24 -150h-252zM389 866h565q169 0 242.5 66t73.5 207v41q0 144 -81 202
t-251 58h-549v-574z" />
    <glyph glyph-name="Racute.ss01" horiz-adv-x="1636" 
d="M1298 0q-24 26 -24 150v241q0 74 -24.5 126t-70 80t-100.5 40t-125 12h-565v-649h-248v1655h820q284 0 425.5 -119.5t141.5 -364.5v-10q0 -332 -271 -401q129 -32 199 -129.5t70 -239.5v-241q0 -122 24 -150h-252zM317 1855l990 152l20 -80l-989 -151zM389 866h565
q169 0 242.5 66t73.5 207v41q0 144 -81 202t-251 58h-549v-574z" />
    <glyph glyph-name="Rcaron.ss01" horiz-adv-x="1636" 
d="M1298 0q-24 26 -24 150v241q0 74 -24.5 126t-70 80t-100.5 40t-125 12h-565v-649h-248v1655h820q284 0 425.5 -119.5t141.5 -364.5v-10q0 -332 -271 -401q129 -32 199 -129.5t70 -239.5v-241q0 -122 24 -150h-252zM379 2040h176l270 -197l262 197h177l-367 -262h-143z
M389 866h565q169 0 242.5 66t73.5 207v41q0 144 -81 202t-251 58h-549v-574z" />
    <glyph glyph-name="uni0156.ss01" horiz-adv-x="1636" 
d="M1298 0q-24 26 -24 150v241q0 74 -24.5 126t-70 80t-100.5 40t-125 12h-565v-649h-248v1655h820q284 0 425.5 -119.5t141.5 -364.5v-10q0 -332 -271 -401q129 -32 199 -129.5t70 -239.5v-241q0 -122 24 -150h-252zM389 866h565q169 0 242.5 66t73.5 207v41q0 144 -81 202
t-251 58h-549v-574zM717 -176q0 46 29.5 75t76.5 29t75 -32.5t28 -92.5q0 -71 -46.5 -135t-134.5 -106v88q102 32 127 114q-28 -36 -69 -36q-36 0 -61 26t-25 70z" />
    <glyph glyph-name="S.ss01" horiz-adv-x="1550" 
d="M803 -20q-742 0 -742 575v45h256v-61q0 -179 118 -260.5t374 -81.5q213 0 312.5 59t99.5 188v15q0 60 -19.5 102t-65 71.5t-103 48.5t-148.5 38l-340 80q-76 18 -137 41.5t-116.5 59.5t-93 81t-59.5 107t-22 137q0 218 167.5 334t479.5 116q330 0 502 -130t172 -374v-45
h-256v50q0 148 -99.5 216t-318.5 68q-391 0 -391 -221v-10q0 -94 80.5 -147.5t230.5 -86.5l348 -80q83 -18 147 -41t121.5 -59.5t95 -83.5t59.5 -114.5t22 -151.5q0 -250 -162.5 -367.5t-511.5 -117.5z" />
    <glyph glyph-name="Sacute.ss01" horiz-adv-x="1550" 
d="M803 -20q-742 0 -742 575v45h256v-61q0 -179 118 -260.5t374 -81.5q213 0 312.5 59t99.5 188v15q0 60 -19.5 102t-65 71.5t-103 48.5t-148.5 38l-340 80q-76 18 -137 41.5t-116.5 59.5t-93 81t-59.5 107t-22 137q0 218 167.5 334t479.5 116q330 0 502 -130t172 -374v-45
h-256v50q0 148 -99.5 216t-318.5 68q-391 0 -391 -221v-10q0 -94 80.5 -147.5t230.5 -86.5l348 -80q83 -18 147 -41t121.5 -59.5t95 -83.5t59.5 -114.5t22 -151.5q0 -250 -162.5 -367.5t-511.5 -117.5zM268 1855l989 152l21 -80l-989 -151z" />
    <glyph glyph-name="Scaron.ss01" horiz-adv-x="1550" 
d="M803 -20q-742 0 -742 575v45h256v-61q0 -179 118 -260.5t374 -81.5q213 0 312.5 59t99.5 188v15q0 60 -19.5 102t-65 71.5t-103 48.5t-148.5 38l-340 80q-76 18 -137 41.5t-116.5 59.5t-93 81t-59.5 107t-22 137q0 218 167.5 334t479.5 116q330 0 502 -130t172 -374v-45
h-256v50q0 148 -99.5 216t-318.5 68q-391 0 -391 -221v-10q0 -94 80.5 -147.5t230.5 -86.5l348 -80q83 -18 147 -41t121.5 -59.5t95 -83.5t59.5 -114.5t22 -151.5q0 -250 -162.5 -367.5t-511.5 -117.5zM330 2040h176l270 -197l262 197h176l-366 -262h-143z" />
    <glyph glyph-name="Scedilla.ss01" horiz-adv-x="1550" 
d="M635 -334q143 0 199.5 13.5t56.5 60.5q0 26 -13 40t-43.5 18t-67 1.5t-95.5 -10.5l47 193q-658 34 -658 573v45h256v-61q0 -179 118 -260.5t374 -81.5q213 0 312.5 59t99.5 188v15q0 60 -19.5 102t-65 71.5t-103 48.5t-148.5 38l-340 80q-76 18 -137 41.5t-116.5 59.5
t-93 81t-59.5 107t-22 137q0 218 167.5 334t479.5 116q330 0 502 -130t172 -374v-45h-256v50q0 148 -99.5 216t-318.5 68q-391 0 -391 -221v-10q0 -94 80.5 -147.5t230.5 -86.5l348 -80q83 -18 147 -41t121.5 -59.5t95 -83.5t59.5 -114.5t22 -151.5q0 -247 -159.5 -365.5
t-500.5 -119.5l-26 -107q221 27 221 -129q0 -90 -85 -129t-292 -39v90z" />
    <glyph glyph-name="uni0218.ss01" horiz-adv-x="1550" 
d="M803 -20q-742 0 -742 575v45h256v-61q0 -179 118 -260.5t374 -81.5q213 0 312.5 59t99.5 188v15q0 60 -19.5 102t-65 71.5t-103 48.5t-148.5 38l-340 80q-76 18 -137 41.5t-116.5 59.5t-93 81t-59.5 107t-22 137q0 218 167.5 334t479.5 116q330 0 502 -130t172 -374v-45
h-256v50q0 148 -99.5 216t-318.5 68q-391 0 -391 -221v-10q0 -94 80.5 -147.5t230.5 -86.5l348 -80q83 -18 147 -41t121.5 -59.5t95 -83.5t59.5 -114.5t22 -151.5q0 -250 -162.5 -367.5t-511.5 -117.5zM668 -176q0 46 29.5 75t76.5 29t75 -32.5t28 -92.5q0 -71 -46.5 -135
t-134.5 -106v88q102 32 127 114q-28 -36 -69 -36q-36 0 -61 26t-25 70z" />
    <glyph glyph-name="uni1E9E.ss01" horiz-adv-x="1482" 
d="M131 1202q0 232 148 342.5t460 110.5h639q-51 -365 -113.5 -513.5t-195.5 -191.5q322 -58 322 -413v-56q0 -128 -38 -221.5t-109.5 -150t-166 -83t-215.5 -26.5h-354v203h260q210 0 295.5 62.5t85.5 230.5v63q0 51 -9.5 90t-35.5 75.5t-69.5 60t-113.5 37.5t-165 14h-248
v202h225q69 0 118 7t88.5 28t65.5 48.5t48.5 78t39 107t35.5 145.5h-389q-195 0 -281.5 -58t-86.5 -192v-1202h-240v1202z" />
    <glyph glyph-name="T.ss01" horiz-adv-x="1482" 
d="M616 0v1434h-581v221h1413v-221h-582v-1434h-250z" />
    <glyph glyph-name="Tbar.ss01" horiz-adv-x="1499" 
d="M625 0v764h-410v129h410v541h-582v221h1413v-221h-582v-541h416v-129h-416v-764h-249z" />
    <glyph glyph-name="Tcaron.ss01" horiz-adv-x="1482" 
d="M616 0v1434h-581v221h1413v-221h-582v-1434h-250zM299 2040h176l270 -197l263 197h176l-367 -262h-143z" />
    <glyph glyph-name="uni0162.ss01" horiz-adv-x="1482" 
d="M616 0v1434h-581v221h1413v-221h-582v-1434h-75l-31 -127q221 27 221 -129q0 -90 -85 -129t-292 -39v90q143 0 199.5 13.5t56.5 60.5q0 26 -13 40t-43.5 18t-67 1.5t-95.5 -10.5l51 211h-76z" />
    <glyph glyph-name="uni021A.ss01" horiz-adv-x="1482" 
d="M616 0v1434h-581v221h1413v-221h-582v-1434h-250zM637 -176q0 46 29.5 75t76.5 29t75 -32.5t28 -92.5q0 -71 -46 -135.5t-134 -105.5v88q102 32 127 114q-28 -36 -70 -36q-36 0 -61 26t-25 70z" />
    <glyph glyph-name="U.ss01" horiz-adv-x="1658" 
d="M829 -20q-375 0 -538.5 153t-163.5 496v1026h250v-1039q0 -121 28 -202t87 -128t139.5 -66t197.5 -19t197.5 19t140 66t87.5 128t28 202v1039h250v-1026q0 -346 -165 -497.5t-538 -151.5z" />
    <glyph glyph-name="Uacute.ss01" horiz-adv-x="1658" 
d="M829 -20q-375 0 -538.5 153t-163.5 496v1026h250v-1039q0 -121 28 -202t87 -128t139.5 -66t197.5 -19t197.5 19t140 66t87.5 128t28 202v1039h250v-1026q0 -346 -165 -497.5t-538 -151.5zM324 1855l989 152l20 -80l-989 -151z" />
    <glyph glyph-name="Ucircumflex.ss01" horiz-adv-x="1658" 
d="M829 -20q-375 0 -538.5 153t-163.5 496v1026h250v-1039q0 -121 28 -202t87 -128t139.5 -66t197.5 -19t197.5 19t140 66t87.5 128t28 202v1039h250v-1026q0 -346 -165 -497.5t-538 -151.5zM387 1745l375 262h143l367 -262h-176l-262 197l-271 -197h-176z" />
    <glyph glyph-name="Udieresis.ss01" horiz-adv-x="1658" 
d="M829 -20q-375 0 -538.5 153t-163.5 496v1026h250v-1039q0 -121 28 -202t87 -128t139.5 -66t197.5 -19t197.5 19t140 66t87.5 128t28 202v1039h250v-1026q0 -346 -165 -497.5t-538 -151.5zM410 1874q0 46 29.5 74t72.5 28q40 0 70 -28.5t30 -73.5q0 -43 -30 -70.5
t-70 -27.5q-42 0 -72 27.5t-30 70.5zM1047 1874q0 46 29.5 74t70.5 28q40 0 70 -28.5t30 -73.5q0 -43 -30 -70.5t-70 -27.5q-41 0 -70.5 27.5t-29.5 70.5z" />
    <glyph glyph-name="Ugrave.ss01" horiz-adv-x="1658" 
d="M829 -20q-375 0 -538.5 153t-163.5 496v1026h250v-1039q0 -121 28 -202t87 -128t139.5 -66t197.5 -19t197.5 19t140 66t87.5 128t28 202v1039h250v-1026q0 -346 -165 -497.5t-538 -151.5zM324 1927l20 80l989 -152l-20 -79z" />
    <glyph glyph-name="Uhungarumlaut.ss01" horiz-adv-x="1658" 
d="M829 -20q-375 0 -538.5 153t-163.5 496v1026h250v-1039q0 -121 28 -202t87 -128t139.5 -66t197.5 -19t197.5 19t140 66t87.5 128t28 202v1039h250v-1026q0 -346 -165 -497.5t-538 -151.5zM641 1778l242 229h121l-222 -229h-141zM883 1778l241 229h121l-221 -229h-141z
" />
    <glyph glyph-name="Umacron.ss01" horiz-adv-x="1658" 
d="M829 -20q-375 0 -538.5 153t-163.5 496v1026h250v-1039q0 -121 28 -202t87 -128t139.5 -66t197.5 -19t197.5 19t140 66t87.5 128t28 202v1039h250v-1026q0 -346 -165 -497.5t-538 -151.5zM324 1851v82h1009v-82h-1009z" />
    <glyph glyph-name="Uogonek.ss01" horiz-adv-x="1658" 
d="M829 -20q-375 0 -538.5 153t-163.5 496v1026h250v-1039q0 -121 28 -202t87 -128t139.5 -66t197.5 -19t197.5 19t140 66t87.5 128t28 202v1039h250v-1026q0 -287 -111.5 -438.5t-355.5 -192.5q-104 -34 -154.5 -80t-50.5 -108t54 -89.5t182 -27.5h20l-82 -103h-18
q-126 0 -201.5 47.5t-75.5 137.5q0 139 183 207q-29 -2 -93 -2z" />
    <glyph glyph-name="Uring.ss01" horiz-adv-x="1658" 
d="M829 -20q-375 0 -538.5 153t-163.5 496v1026h250v-1039q0 -121 28 -202t87 -128t139.5 -66t197.5 -19t197.5 19t140 66t87.5 128t28 202v1039h250v-1026q0 -346 -165 -497.5t-538 -151.5zM664 1913q0 71 49 118.5t116 47.5t116.5 -47.5t49.5 -118.5t-49.5 -118.5
t-116.5 -47.5t-116 47.5t-49 118.5zM752 1913q0 -34 21 -56t56 -22t56.5 22t21.5 56t-21.5 56t-56.5 22t-56 -22t-21 -56z" />
    <glyph glyph-name="V.ss01" horiz-adv-x="1609" 
d="M643 0l-620 1655h264l506 -1391l14 -39l14 39l504 1391h264l-618 -1655h-328z" />
    <glyph glyph-name="W.ss01" horiz-adv-x="2480" 
d="M516 0l-485 1655h258l391 -1374l401 1374h320l401 -1370l2 -9l2 9l385 1370h258l-483 -1655h-324l-397 1358l-4 14l-4 -14l-399 -1358h-322z" />
    <glyph glyph-name="Wacute.ss01" horiz-adv-x="2480" 
d="M516 0l-485 1655h258l391 -1374l401 1374h320l401 -1370l2 -9l2 9l385 1370h258l-483 -1655h-324l-397 1358l-4 14l-4 -14l-399 -1358h-322zM735 1855l989 152l21 -80l-989 -151z" />
    <glyph glyph-name="Wcircumflex.ss01" horiz-adv-x="2480" 
d="M516 0l-485 1655h258l391 -1374l401 1374h320l401 -1370l2 -9l2 9l385 1370h258l-483 -1655h-324l-397 1358l-4 14l-4 -14l-399 -1358h-322zM797 1745l374 262h144l366 -262h-176l-262 197l-270 -197h-176z" />
    <glyph glyph-name="Wdieresis.ss01" horiz-adv-x="2480" 
d="M516 0l-485 1655h258l391 -1374l401 1374h320l401 -1370l2 -9l2 9l385 1370h258l-483 -1655h-324l-397 1358l-4 14l-4 -14l-399 -1358h-322zM821 1874q0 46 30 74t73 28q40 0 70 -28.5t30 -73.5q0 -43 -30 -70.5t-70 -27.5q-43 0 -73 27.5t-30 70.5zM1458 1874
q0 46 30 74t71 28q40 0 70 -28.5t30 -73.5q0 -43 -30 -70.5t-70 -27.5q-41 0 -71 27.5t-30 70.5z" />
    <glyph glyph-name="Wgrave.ss01" horiz-adv-x="2480" 
d="M516 0l-485 1655h258l391 -1374l401 1374h320l401 -1370l2 -9l2 9l385 1370h258l-483 -1655h-324l-397 1358l-4 14l-4 -14l-399 -1358h-322zM735 1927l21 80l989 -152l-21 -79z" />
    <glyph glyph-name="X.ss01" horiz-adv-x="1550" 
d="M4 0l627 831l-613 824h301l459 -649l457 649h301l-616 -824l624 -831h-303l-469 657l-469 -657h-299z" />
    <glyph glyph-name="Y.ss01" horiz-adv-x="1613" 
d="M684 0v586l-666 1069h289l500 -824l502 824h284l-661 -1069v-586h-248z" />
    <glyph glyph-name="Yacute.ss01" horiz-adv-x="1613" 
d="M684 0v586l-666 1069h289l500 -824l502 824h284l-661 -1069v-586h-248zM301 1855l989 152l21 -80l-989 -151z" />
    <glyph glyph-name="Ycircumflex.ss01" horiz-adv-x="1613" 
d="M684 0v586l-666 1069h289l500 -824l502 824h284l-661 -1069v-586h-248zM362 1745l375 262h144l366 -262h-176l-262 197l-270 -197h-177z" />
    <glyph glyph-name="Ydieresis.ss01" horiz-adv-x="1613" 
d="M684 0v586l-666 1069h289l500 -824l502 824h284l-661 -1069v-586h-248zM387 1874q0 46 29.5 74t72.5 28q40 0 70.5 -28.5t30.5 -73.5q0 -43 -30.5 -70.5t-70.5 -27.5q-42 0 -72 27.5t-30 70.5zM1024 1874q0 46 29.5 74t70.5 28q40 0 70.5 -28.5t30.5 -73.5
q0 -43 -30.5 -70.5t-70.5 -27.5q-41 0 -70.5 27.5t-29.5 70.5z" />
    <glyph glyph-name="Ygrave.ss01" horiz-adv-x="1613" 
d="M684 0v586l-666 1069h289l500 -824l502 824h284l-661 -1069v-586h-248zM301 1927l21 80l989 -152l-21 -79z" />
    <glyph glyph-name="Z.ss01" horiz-adv-x="1445" 
d="M66 0v219l1001 1219h-1001v217h1314v-219l-1001 -1219h1001v-217h-1314z" />
    <glyph glyph-name="Zacute.ss01" horiz-adv-x="1445" 
d="M66 0v219l1001 1219h-1001v217h1314v-219l-1001 -1219h1001v-217h-1314zM217 1855l989 152l21 -80l-989 -151z" />
    <glyph glyph-name="Zcaron.ss01" horiz-adv-x="1445" 
d="M66 0v219l1001 1219h-1001v217h1314v-219l-1001 -1219h1001v-217h-1314zM279 2040h176l270 -197l262 197h176l-366 -262h-144z" />
    <glyph glyph-name="Zdotaccent.ss01" horiz-adv-x="1445" 
d="M66 0v219l1001 1219h-1001v217h1314v-219l-1001 -1219h1001v-217h-1314zM586 1878q0 55 36 89t101 34t101 -34t36 -89q0 -50 -36 -83.5t-101 -33.5t-101 33.5t-36 83.5z" />
    <glyph glyph-name="W.ss02" horiz-adv-x="1546" 
d="M86 0v1655h225v-1358l305 1358h377v-1366l310 1366h231l-389 -1655h-377v1389l-301 -1389h-381z" />
    <glyph glyph-name="W.ss03" horiz-adv-x="3121" 
d="M514 0h-354v1655h239v-1401l1076 1401h323v-1403l1065 1403h299l-1247 -1655h-354v1360z" />
    <glyph glyph-name="i.loclTRK" horiz-adv-x="432" 
d="M96 1331h240v-1331h-240v1331zM63 1554q0 56 39.5 88.5t114.5 32.5q74 0 113 -32.5t39 -88.5q0 -52 -39 -84t-113 -32t-114 32t-40 84z" />
    <glyph glyph-name="uni006A0301" horiz-adv-x="432" 
d="M96 0v1331h240v-1343q0 -228 -76 -321t-278 -93h-166v205h108q98 0 135 46.5t37 174.5zM-53 1530l512 153l26 -77l-514 -152z" />
    <glyph glyph-name="w.ss02" horiz-adv-x="1671" 
d="M96 0v1331h228v-1106l370 1106h379v-1106l359 1106h237l-444 -1331h-379v1149l-367 -1149h-383z" />
    <glyph glyph-name="zero.ss01" horiz-adv-x="1619" 
d="M815 -20q-357 0 -541 200t-184 570v161q0 366 184.5 565t540.5 199q351 0 533 -199.5t182 -566.5v-159q0 -369 -182.5 -569.5t-532.5 -200.5zM344 733q0 -178 49 -297l735 924q-110 98 -313 98q-242 0 -356.5 -133.5t-114.5 -400.5v-191zM500 291q115 -92 315 -92
q236 0 349.5 133t113.5 403v191q0 171 -45 284z" />
    <glyph glyph-name="one.ss01" horiz-adv-x="1214" 
d="M86 217h436v1172q-85 -70 -203 -107t-247 -37v228q146 0 257.5 41t202.5 141h238v-1438h438v-217h-1122v217z" />
    <glyph glyph-name="two.ss01" horiz-adv-x="1564" 
d="M88 231q0 96 13.5 172t49.5 150.5t95.5 129.5t156 99t226.5 68l237 49q90 18 151 38t112 53.5t75.5 84.5t24.5 121v8q0 131 -104.5 192.5t-315.5 61.5q-242 0 -346.5 -83.5t-104.5 -268.5v-31h-254v25q0 283 171 429t532 146q329 0 502.5 -122.5t173.5 -364.5
q0 -394 -488 -488l-252 -57q-92 -17 -158 -39t-110.5 -51.5t-71.5 -60.5t-40.5 -77.5t-18 -89.5t-4.5 -108h1141v-217h-1393v231z" />
    <glyph glyph-name="three.ss01" horiz-adv-x="1540" 
d="M760 -20q-357 0 -526 127t-175 403v22h252v-28q4 -171 111 -238t336 -67q234 0 336 61t102 195v34q0 139 -102 192.5t-322 53.5h-248v217h248q205 0 304.5 52t99.5 176v32q0 129 -105.5 187.5t-310.5 58.5q-76 0 -135.5 -7.5t-112.5 -27t-88.5 -52t-56.5 -83.5t-23 -119
v-26h-252v18q6 265 171.5 389.5t496.5 124.5q342 0 504.5 -123.5t162.5 -339.5v-14q3 -134 -64.5 -228t-199.5 -124q144 -34 214.5 -132.5t70.5 -244.5v-16q0 -473 -688 -473z" />
    <glyph glyph-name="four.ss01" horiz-adv-x="1525" 
d="M1253 1655v-1114h224v-217h-224v-324h-245v324h-971v223l971 1108h245zM293 541h715v794z" />
    <glyph glyph-name="five.ss01" horiz-adv-x="1546" 
d="M838 1108q298 0 467.5 -135t169.5 -406v-39q0 -273 -177.5 -410.5t-515.5 -137.5q-334 0 -514 132t-180 392v14h254v-26q0 -81 34 -139.5t96.5 -92t139.5 -48.5t174 -15q435 0 435 311v67q0 164 -102.5 239t-321.5 75q-173 0 -275.5 -49.5t-175.5 -149.5h-242l64 965
h1231v-217h-1006l-41 -496q173 166 486 166z" />
    <glyph glyph-name="six.ss01" horiz-adv-x="1576" 
d="M799 -20q-361 0 -529 150.5t-168 473.5v352q0 371 170 545t541 174q319 0 475 -123t156 -354v-8h-254v8q0 131 -94 192.5t-279 61.5q-236 0 -349.5 -94t-113.5 -303v-113q152 182 496 182q305 0 475 -143.5t170 -413.5v-30q0 -275 -168.5 -416t-527.5 -141zM354 524
q0 -171 105.5 -248t339.5 -77q231 0 336.5 75t105.5 242v68q0 167 -102 243t-326 76q-459 0 -459 -309v-70z" />
    <glyph glyph-name="seven.ss01" horiz-adv-x="1372" 
d="M12 1438v217h1319v-217q-132 -84 -237.5 -182t-177 -193.5t-123.5 -207.5t-81 -209.5t-46 -215.5t-22 -210t-5 -206v-14h-250v14q0 85 2.5 156t11 161.5t22.5 168t39 168t58.5 168.5t83 162.5t111 158t144 146.5t179.5 135h-1028z" />
    <glyph glyph-name="eight.ss01" horiz-adv-x="1564" 
d="M782 -20q-349 0 -522.5 122t-173.5 353v22q0 165 81 270.5t224 141.5q-121 33 -192.5 121.5t-71.5 222.5v20q0 203 169 312.5t490 109.5q320 0 486 -109.5t166 -314.5v-20q0 -132 -71.5 -220.5t-192.5 -121.5q144 -34 225.5 -140.5t81.5 -273.5v-22q0 -230 -174 -351.5
t-525 -121.5zM338 463q0 -146 104.5 -211.5t339.5 -65.5t340 65.5t105 211.5v45q0 146 -107.5 207t-337.5 61q-229 0 -336.5 -61t-107.5 -207v-45zM381 1206q0 -114 101.5 -166.5t299.5 -52.5t300 52.5t102 168.5v37q0 116 -97.5 170.5t-304.5 54.5q-206 0 -303.5 -55
t-97.5 -172v-37z" />
    <glyph glyph-name="nine.ss01" horiz-adv-x="1576" 
d="M764 -20q-319 0 -475 123.5t-156 355.5v8h252v-8q0 -132 94.5 -193t280.5 -61q235 0 349 93.5t114 303.5v113q-153 -183 -496 -183q-306 0 -475.5 143t-169.5 412v31q0 275 168 416t526 141q361 0 530 -150.5t169 -471.5v-355q0 -371 -170 -544.5t-541 -173.5zM336 1071
q0 -166 101 -242.5t325 -76.5q461 0 461 309v69q0 171 -106 249.5t-341 78.5q-229 0 -334.5 -76t-105.5 -243v-68z" />
    <glyph glyph-name="zero.tf" 
d="M565 -20q-235 0 -354 140.5t-119 405.5v607q0 264 119 403t354 139q234 0 351.5 -139.5t117.5 -405.5v-606q0 -264 -118 -404t-351 -140zM346 537l422 772q-36 161 -203 161q-110 0 -164.5 -66.5t-54.5 -211.5v-655zM362 326q45 -142 203 -142q108 0 161.5 67t53.5 214
v627z" />
    <glyph glyph-name="one.tf" 
d="M186 207h277v1157q-91 -113 -281 -113v224q207 0 305 180h224v-1448h276v-207h-801v207z" />
    <glyph glyph-name="two.tf" 
d="M102 229q0 209 72 335t242 227l159 112q69 42 109.5 80.5t67 102t26.5 151.5v33q0 111 -49.5 155.5t-150.5 44.5q-108 0 -159.5 -51t-51.5 -176v-121h-254v92q0 225 117 343t348 118q221 0 337.5 -114.5t116.5 -337.5q0 -76 -17 -144t-44.5 -119.5t-66 -96t-77.5 -75
t-84 -55.5l-168 -119q-93 -55 -139 -107.5t-63 -119.5t-17 -180h670v-207h-924v229z" />
    <glyph glyph-name="three.tf" 
d="M561 -20q-235 0 -350.5 109.5t-116.5 340.5v82h250v-111q1 -123 53 -170t158 -47q112 0 162.5 48t50.5 159v144q0 63 -16 106t-45.5 65t-64 30.5t-79.5 8.5h-170v207h168q201 0 201 191v127q0 111 -52.5 155.5t-152.5 44.5q-48 0 -83 -9t-63.5 -32t-43 -65t-15.5 -104
v-97h-250v70q1 223 115 332.5t342 109.5q105 0 187 -27.5t131 -70t80.5 -100.5t43 -112.5t11.5 -111.5v-51q0 -132 -54.5 -219t-156.5 -123q217 -77 217 -375v-57q0 -448 -457 -448z" />
    <glyph glyph-name="four.tf" 
d="M905 1655v-1131h129v-207h-129v-317h-248v317h-571v230l584 1108h235zM274 524h383v727z" />
    <glyph glyph-name="five.tf" 
d="M659 1108q170 0 271.5 -107t101.5 -329v-178q0 -514 -465 -514q-223 0 -343 120t-120 351v59h254v-104q0 -222 211 -222q103 0 156 54t53 172v256q0 231 -194 231q-167 0 -219 -195h-248l47 953h797v-207h-570l-33 -506q96 166 301 166z" />
    <glyph glyph-name="six.tf" 
d="M573 -20q-236 0 -351.5 126.5t-115.5 387.5v608q0 288 115 430.5t361 142.5q219 0 321.5 -113.5t102.5 -316.5v-35h-250v33q-2 104 -45 153.5t-136 49.5q-108 0 -161.5 -58.5t-53.5 -183.5v-235q103 143 299 143q181 0 279 -115.5t98 -334.5v-197q0 -237 -118.5 -361
t-344.5 -124zM360 414q0 -124 52.5 -177t158.5 -53q108 0 159.5 55.5t51.5 174.5v258q0 113 -49.5 169t-152.5 56q-106 0 -163 -57.5t-57 -163.5v-262z" />
    <glyph glyph-name="seven.tf" 
d="M125 1446v209h864v-209q-103 -130 -177.5 -270t-118 -269.5t-69 -280t-34 -281.5t-8.5 -294v-51h-248v49q0 200 17.5 367.5t62 347t131.5 351t215 331.5h-635z" />
    <glyph glyph-name="eight.tf" 
d="M563 -20q-234 0 -349.5 105t-115.5 318v86q0 170 68.5 265.5t177.5 122.5q-102 25 -164.5 106.5t-62.5 226.5v74q0 186 113.5 288.5t334.5 102.5q219 0 332 -102.5t113 -288.5v-74q0 -144 -62.5 -226t-163.5 -107q109 -27 176.5 -122t67.5 -266v-88q0 -212 -115 -316.5
t-350 -104.5zM352 385q0 -115 51.5 -160t159.5 -45t159.5 45t51.5 160v176q0 112 -52 157.5t-159 45.5q-106 0 -158.5 -45.5t-52.5 -157.5v-176zM369 1153q0 -95 48.5 -137.5t145.5 -42.5q195 0 195 180v139q0 95 -48.5 139t-146.5 44t-146 -44t-48 -139v-139z" />
    <glyph glyph-name="nine.tf" 
d="M555 1675q236 0 351.5 -126.5t115.5 -387.5v-608q0 -288 -114.5 -430.5t-360.5 -142.5q-219 0 -321.5 113.5t-102.5 316.5v34h250v-32q2 -104 44.5 -153.5t135.5 -49.5q108 0 161.5 58.5t53.5 183.5v235q-103 -143 -299 -143q-181 0 -279 115.5t-98 334.5v197
q0 237 118.5 361t344.5 124zM346 983q0 -113 49.5 -169t153.5 -56q106 0 162.5 57.5t56.5 163.5v262q0 124 -52.5 176.5t-158.5 52.5q-108 0 -159.5 -55t-51.5 -174v-258z" />
    <glyph glyph-name="zero.dnom" horiz-adv-x="587" 
d="M293 -10q-119 0 -180.5 71t-61.5 205v295q0 134 61.5 205.5t180.5 71.5t181.5 -71.5t62.5 -205.5v-295q0 -134 -62 -205t-182 -71zM197 315l188 328q-14 76 -92 76q-96 0 -96 -121v-283zM203 176q17 -67 90 -67q50 0 73 29t23 93v267z" />
    <glyph glyph-name="one.dnom" horiz-adv-x="473" 
d="M43 121h135v543q-50 -50 -139 -50v129q107 0 154 84h126v-706h136v-121h-412v121z" />
    <glyph glyph-name="two.dnom" horiz-adv-x="563" 
d="M45 133q0 101 38 170t126 115l70 39q52 27 74 62t22 95v21q0 46 -21 65t-67 19q-47 0 -68.5 -21.5t-21.5 -74.5v-64h-148v45q0 114 59.5 174t178.5 60q114 0 174.5 -59t60.5 -173q0 -180 -149 -254l-86 -49q-60 -32 -77 -68.5t-17 -113.5h327v-121h-475v133z" />
    <glyph glyph-name="three.dnom" horiz-adv-x="561" 
d="M279 -10q-121 0 -180 55t-60 174v39h145v-57q0 -53 22.5 -74t69.5 -21q50 0 71.5 22t21.5 69v77q0 50 -24 70.5t-66 20.5h-84v118h84q86 0 86 82v70q0 46 -22 66t-67 20t-66.5 -20t-21.5 -70v-51h-145v34q3 224 236 224q55 0 98 -14.5t67 -36.5t40 -51.5t21 -55t5 -51.5
v-25q0 -135 -104 -176q108 -37 108 -184v-25q0 -229 -235 -229z" />
    <glyph glyph-name="four.dnom" horiz-adv-x="544" 
d="M451 827v-555h59v-120h-59v-152h-144v152h-280v133l286 542h138zM133 272h174v332z" />
    <glyph glyph-name="five.dnom" horiz-adv-x="563" 
d="M336 555q85 0 135.5 -53t50.5 -168v-84q-3 -260 -241 -260q-116 0 -176 61t-60 180v27h145v-55q0 -94 95 -94q46 0 68 22.5t22 71.5v129q0 100 -88 100q-73 0 -94 -84h-142l25 479h409v-120h-280l-15 -232q47 80 146 80z" />
    <glyph glyph-name="six.dnom" horiz-adv-x="577" 
d="M289 -10q-119 0 -177.5 65t-58.5 201v285q0 154 58 225.5t182 71.5q114 0 169.5 -57t55.5 -160v-17h-145v14q0 87 -80 87q-49 0 -71.5 -24.5t-22.5 -76.5v-110q51 63 141 63q92 0 141 -57.5t49 -169.5v-94q0 -121 -61 -183.5t-180 -62.5zM199 205q0 -52 23 -74t71 -22
t70 22.5t22 71.5v135q0 96 -90 96q-96 0 -96 -96v-133z" />
    <glyph glyph-name="seven.dnom" horiz-adv-x="487" 
d="M20 707v120h441v-120q-65 -83 -107 -170.5t-60.5 -178.5t-24 -162t-5.5 -167v-29h-143v29q0 92 7 167.5t27.5 165.5t64 177t108.5 168h-308z" />
    <glyph glyph-name="eight.dnom" horiz-adv-x="569" 
d="M285 -10q-238 0 -238 215v39q0 88 32.5 136.5t86.5 59.5q-50 11 -81.5 53t-31.5 115v33q0 94 59.5 145.5t174.5 51.5q113 0 171 -51.5t58 -145.5v-33q0 -74 -30 -115.5t-80 -52.5q52 -12 85 -60t33 -136v-39q0 -215 -239 -215zM193 195q0 -51 21.5 -70t70.5 -19
q51 0 71.5 19t20.5 70v94q0 47 -21.5 67.5t-70.5 20.5q-48 0 -70 -20t-22 -68v-94zM199 573q0 -41 20.5 -58t65.5 -17q44 0 65 17.5t21 57.5v72q0 40 -20 58t-66 18q-45 0 -65.5 -17.5t-20.5 -58.5v-72z" />
    <glyph glyph-name="nine.dnom" horiz-adv-x="577" 
d="M287 838q237 0 237 -265v-286q0 -153 -57.5 -225t-181.5 -72q-115 0 -170.5 57t-55.5 160v18h146v-16q0 -86 80 -86q47 0 69.5 25t22.5 77v107q-50 -62 -139 -62q-93 0 -143 59t-50 169v94q0 122 62 184t180 62zM193 492q0 -49 21 -73t69 -24q94 0 94 94v136
q0 51 -22.5 72.5t-69.5 21.5q-48 0 -70 -22.5t-22 -71.5v-133z" />
    <glyph glyph-name="zero.numr" horiz-adv-x="587" 
d="M293 817q-119 0 -180.5 71.5t-61.5 205.5v295q0 134 61.5 205t180.5 71q120 0 182 -71t62 -205v-295q0 -134 -62.5 -205.5t-181.5 -71.5zM197 1143l188 327q-14 76 -92 76q-96 0 -96 -121v-282zM203 1004q17 -68 90 -68q50 0 73 29.5t23 93.5v266z" />
    <glyph glyph-name="one.numr" horiz-adv-x="473" 
d="M43 948h135v543q-49 -49 -139 -49v129q107 0 154 84h126v-707h136v-121h-412v121z" />
    <glyph glyph-name="two.numr" horiz-adv-x="563" 
d="M45 961q0 101 38 169.5t126 114.5l70 39q52 27 74 62t22 96v20q0 46 -21 65t-67 19q-47 0 -68.5 -21.5t-21.5 -74.5v-64h-148v46q0 114 59.5 173.5t178.5 59.5q114 0 174.5 -58.5t60.5 -172.5q0 -180 -149 -254l-86 -50q-60 -32 -77 -68.5t-17 -113.5h327v-121h-475v134z
" />
    <glyph glyph-name="three.numr" horiz-adv-x="561" 
d="M279 817q-121 0 -180 55.5t-60 174.5v38h145v-57q0 -53 22.5 -73.5t69.5 -20.5q50 0 71.5 21.5t21.5 68.5v78q0 50 -23.5 70t-66.5 20h-84v119h84q86 0 86 82v69q0 46 -22 66t-67 20t-66.5 -20t-21.5 -70v-51h-145v35q3 223 236 223q55 0 98 -14.5t67 -36.5t40 -51.5
t21 -55t5 -51.5v-24q0 -136 -104 -177q108 -37 108 -184v-24q0 -230 -235 -230z" />
    <glyph glyph-name="four.numr" horiz-adv-x="544" 
d="M451 1655v-555h59v-121h-59v-152h-144v152h-280v133l286 543h138zM133 1100h174v332z" />
    <glyph glyph-name="five.numr" horiz-adv-x="563" 
d="M336 1382q85 0 135.5 -53t50.5 -168v-84q-3 -260 -241 -260q-116 0 -176 61t-60 181v26h145v-55q0 -94 95 -94q46 0 68 22.5t22 71.5v129q0 101 -88 101q-73 0 -94 -84h-142l25 479h409v-121h-280l-15 -231q46 79 146 79z" />
    <glyph glyph-name="six.numr" horiz-adv-x="577" 
d="M289 817q-119 0 -177.5 65t-58.5 201v285q0 154 58 225.5t182 71.5q114 0 169.5 -57t55.5 -160v-16h-145v14q0 86 -80 86q-49 0 -71.5 -24.5t-22.5 -75.5v-111q51 63 141 63q92 0 141 -57.5t49 -169.5v-94q0 -121 -61 -183.5t-180 -62.5zM199 1032q0 -52 23 -74t71 -22
t70 22.5t22 71.5v135q0 97 -90 97q-48 0 -72 -25.5t-24 -71.5v-133z" />
    <glyph glyph-name="seven.numr" horiz-adv-x="487" 
d="M20 1534v121h441v-121q-65 -83 -107 -170.5t-60.5 -178.5t-24 -162t-5.5 -167v-29h-143v29q0 92 7 167.5t27.5 165.5t64 177t108.5 168h-308z" />
    <glyph glyph-name="eight.numr" horiz-adv-x="569" 
d="M285 817q-238 0 -238 215v39q0 88 32.5 137t86.5 60q-50 11 -81.5 53t-31.5 115v32q0 94 59.5 145.5t174.5 51.5q113 0 171 -51.5t58 -145.5v-32q0 -74 -30 -115.5t-80 -52.5q52 -12 85 -60.5t33 -136.5v-39q0 -215 -239 -215zM193 1022q0 -51 21.5 -69.5t70.5 -18.5
q51 0 71.5 18.5t20.5 69.5v94q0 47 -21.5 67.5t-70.5 20.5q-48 0 -70 -20t-22 -68v-94zM199 1401q0 -41 20.5 -58.5t65.5 -17.5q44 0 65 18t21 58v72q0 40 -20 57.5t-66 17.5q-45 0 -65.5 -17t-20.5 -58v-72z" />
    <glyph glyph-name="nine.numr" horiz-adv-x="577" 
d="M287 1665q237 0 237 -264v-287q0 -153 -57.5 -225t-181.5 -72q-115 0 -170.5 57t-55.5 160v19h146v-17q0 -86 80 -86q92 0 92 103v106q-50 -61 -139 -61q-93 0 -143 58.5t-50 168.5v94q0 122 62 184t180 62zM193 1319q0 -49 21 -72.5t69 -23.5q94 0 94 94v135
q0 51 -22.5 72.5t-69.5 21.5q-48 0 -70 -22.5t-22 -71.5v-133z" />
    <glyph glyph-name="exclamdown.case" horiz-adv-x="458" 
d="M348 0h-239l16 1143h211zM78 1526q0 66 43.5 107.5t107.5 41.5t108 -41.5t44 -107.5q0 -69 -43.5 -111.5t-108.5 -42.5q-64 0 -107.5 42.5t-43.5 111.5z" />
    <glyph glyph-name="questiondown.case" horiz-adv-x="931" 
d="M463 -20q-212 0 -318 108t-106 285q0 72 18.5 134t48 107t65.5 87t72 85t65.5 90t48 112t18.5 142v27h215v-35q0 -88 -16.5 -162.5t-43 -126t-58.5 -97t-64.5 -85t-59 -79.5t-43 -92.5t-16.5 -112.5q0 -97 43.5 -142t132.5 -45q96 0 139 54.5t43 164.5v103h250v-62
q0 -215 -107.5 -337.5t-326.5 -122.5zM330 1526q0 66 43.5 107.5t107.5 41.5t108 -41.5t44 -107.5q0 -69 -43.5 -111.5t-108.5 -42.5q-64 0 -107.5 42.5t-43.5 111.5z" />
    <glyph glyph-name="hyphen.case" horiz-adv-x="1112" 
d="M53 842h1008v-86h-1008v86z" />
    <glyph glyph-name="endash.case" horiz-adv-x="1411" 
d="M53 848h1307v-96h-1307v96z" />
    <glyph glyph-name="emdash.case" horiz-adv-x="2357" 
d="M53 848h2253v-96h-2253v96z" />
    <glyph glyph-name="parenleft.case" horiz-adv-x="530" 
d="M418 -180q-187 250 -272 491.5t-85 524.5q0 285 84.5 522.5t272.5 490.5h112q-197 -272 -281.5 -500.5t-84.5 -512.5q0 -285 83.5 -513t282.5 -503h-112z" />
    <glyph glyph-name="parenright.case" horiz-adv-x="530" 
d="M113 1843q187 -250 271.5 -491.5t84.5 -524.5q0 -285 -84.5 -523t-271.5 -490h-113q197 272 282 500.5t85 512.5q0 285 -84 513t-283 503h113z" />
    <glyph glyph-name="braceleft.case" horiz-adv-x="505" 
d="M59 946q80 0 80 180v373q0 186 64 270t194 84h88v-92h-86q-84 0 -120.5 -64.5t-36.5 -189.5v-374q0 -109 -18.5 -162t-71.5 -86v-92q53 -33 71.5 -86t18.5 -162v-377q0 -124 36.5 -188t120.5 -64h86v-92h-88q-130 0 -194 84t-64 268v375q0 180 -80 180v215z" />
    <glyph glyph-name="braceright.case" horiz-adv-x="505" 
d="M446 721q-79 0 -79 -180v-373q0 -186 -64 -270t-194 -84h-89v92h86q84 0 121 65t37 189v375q0 109 18.5 161.5t71.5 85.5v92q-53 33 -71.5 86t-18.5 162v377q0 124 -37 188t-121 64h-86v92h89q130 0 194 -84t64 -268v-375q0 -180 79 -180v-215z" />
    <glyph glyph-name="bracketleft.case" horiz-adv-x="514" 
d="M496 1853v-86h-287v-1861h287v-86h-390v2033h390z" />
    <glyph glyph-name="bracketright.case" horiz-adv-x="514" 
d="M18 -190v86h287v1861h-287v86h390v-2033h-390z" />
    <glyph glyph-name="at.case" horiz-adv-x="1384" 
d="M778 59q-336 0 -524 201t-188 592q0 197 51.5 350.5t141.5 248t207 143t255 48.5q142 0 249.5 -42.5t187.5 -134.5t121.5 -246t41.5 -367q0 -244 -56 -368t-188 -124q-74 0 -124 39t-74 109q-73 -156 -232 -156q-147 0 -235 130t-88 358q0 227 88 358t233 131
q140 0 215 -129v115h162v-682q0 -98 17.5 -143.5t58.5 -45.5q121 0 121 410q0 195 -33 332t-98.5 217.5t-154 116.5t-208.5 36q-117 0 -215.5 -41.5t-176 -125t-121.5 -221t-44 -316.5t43.5 -315t124.5 -221t191.5 -127t250.5 -42q211 0 375 68v-86q-169 -70 -375 -70z
M485 840q0 -344 199 -344q98 0 137 83.5t39 260.5q0 176 -40 260t-138 84q-197 0 -197 -344z" />
    <glyph glyph-name="ampersand.ss01" horiz-adv-x="1566" 
d="M723 -20q-308 0 -468.5 120.5t-160.5 352.5v12q0 143 72.5 243t204.5 140q-127 40 -196 139.5t-69 243.5v12q0 200 162 316t455 116q616 0 616 -485v-21h-243v21q0 153 -89 219t-280 66q-188 0 -280.5 -61.5t-92.5 -194.5v-23q0 -140 93 -199t284 -59h365v119h243v-119
h160v-193h-160v-290q0 -475 -616 -475zM340 455q0 -143 93 -209t288 -66q192 0 283.5 65.5t91.5 211.5v288h-367q-191 0 -290 -63.5t-99 -202.5v-24z" />
    <glyph glyph-name="cent.tf" 
d="M512 -143v286q-197 15 -298 140t-101 352v385q0 227 100.5 351.5t298.5 139.5v287h109v-287q194 -13 294 -131.5t103 -330.5l2 -88h-227v118q-6 209 -172 230v-965q84 12 126.5 68t45.5 163v119h227l-2 -88q-5 -212 -104 -331t-293 -132v-286h-109zM340 604
q0 -121 42.5 -182.5t129.5 -75.5v963q-86 -14 -129 -76t-43 -182v-447z" />
    <glyph glyph-name="dollar.tf" 
d="M514 -143v125q-403 27 -403 448v133h229v-135q0 -114 44 -171t130 -69v568l-121 69q-67 37 -113.5 75.5t-83 91t-54 122t-17.5 158.5q0 189 98.5 289.5t290.5 111.5v125h107v-125q184 -14 283.5 -114.5t99.5 -282.5v-123h-230v94q0 104 -39 155t-114 64v-510l108 -63
q75 -41 121.5 -77t87.5 -90.5t59.5 -130.5t18.5 -179q0 -215 -95 -320t-300 -114v-125h-107zM354 1255q0 -47 10.5 -82.5t33.5 -63.5t49 -47.5t67 -43.5v450q-79 -8 -119.5 -50t-40.5 -132v-31zM621 186q86 8 125.5 56.5t39.5 150.5v39q0 74 -20 123t-52.5 77.5t-92.5 61.5
v-508z" />
    <glyph glyph-name="Euro.tf" 
d="M41 711v82h104v69h-104v82h104v186q0 260 118.5 402.5t354.5 142.5q227 0 343.5 -133t121.5 -375v-188h-254l-2 248q-3 241 -209 241q-219 0 -219 -278v-246h328v-82h-328v-69h328v-82h-328v-246q0 -142 54 -210.5t165 -68.5q103 0 155.5 59t53.5 183l2 250h254v-189
q-5 -242 -121.5 -375.5t-343.5 -133.5q-236 0 -354.5 143t-118.5 403v185h-104z" />
    <glyph glyph-name="sterling.tf" 
d="M90 166q96 72 140 155.5t44 202.5q0 55 -8 99h-176v106h154q-8 33 -30 107t-34.5 122t-23.5 124.5t-11 150.5q0 219 118.5 330.5t326.5 111.5q212 0 328 -118.5t116 -348.5v-125h-252v144q0 126 -45.5 187t-142.5 61q-98 0 -147.5 -59t-49.5 -185q0 -96 17.5 -182.5
t49 -183.5t40.5 -136h375v-106h-355q2 -16 2 -52q0 -115 -40 -203.5t-124 -168.5h672v-199h-944v166z" />
    <glyph glyph-name="yen.tf" 
d="M147 565v82h269l-359 1008h265l241 -770l2 -4v4l242 770h264l-358 -1008h268v-82h-293v-86h293v-82h-293v-397h-248v397h-293v82h293v86h-293z" />
    <glyph glyph-name="bouclecomb" horiz-adv-x="956" 
d="M582 -20q-57 0 -104.5 13.5t-83 38.5t-59.5 50.5t-48 58.5h-21v1026h21q93 185 295 185q160 0 246.5 -109t86.5 -309v-553q0 -185 -85.5 -293t-247.5 -108zM289 422q0 -104 49 -172t147 -68q185 0 185 238v491q0 238 -185 238q-97 0 -146.5 -68.5t-49.5 -171.5v-487z" />
    <glyph glyph-name="slashcomb" horiz-adv-x="1177" 
d="M145 -12l758 1679h125l-758 -1679h-125z" />
    </font>
</defs>
</svg>
