<?xml version="1.0" standalone="no"?>
<!DOCTYPE svg PUBLIC "-//W3C//DTD SVG 1.1//EN" "http://www.w3.org/Graphics/SVG/1.1/DTD/svg11.dtd" >
<svg xmlns="http://www.w3.org/2000/svg" xmlns:xlink="http://www.w3.org/1999/xlink" version="1.1">
<metadata>
Created by FontForge 20170731 at Thu Oct  5 16:22:23 2023
 By Aleksey,,,
Copyright (c) 2021 by Mathieu Desjardins. All rights reserved.
</metadata>
<defs>
<font id="PPFormula-SemiCondensedMedium" horiz-adv-x="1175" >
  <font-face 
    font-family="PP Formula Semi Cond Medium"
    font-weight="500"
    font-stretch="semi-condensed"
    units-per-em="2048"
    panose-1="0 0 0 0 0 0 0 0 0 0"
    ascent="1638"
    descent="-410"
    x-height="1331"
    cap-height="1671"
    bbox="-375 -451 3164 2095"
    underline-thickness="81"
    underline-position="-285"
    unicode-range="U+0020-FB02"
  />
<missing-glyph horiz-adv-x="1054" 
d="M864 1659v-2110h-667v2110h667zM352 -305h350v69h-215l148 99h67v69h-350v-69h148l-148 -99v-69zM352 -18h350v239h-350v-239zM352 346h350v240h-210v-119h71v49h70v-100h-211v170h-70v-240zM352 631h350v211h-69v-140h-281v-71zM352 752h211v147h139v70h-350v-70h140
v-78h-140v-69zM352 1026h350v72h-139v147h-211v-219zM352 1300h350v70h-139v78h139v70h-348v-70h138v-78h-140v-70zM422 51v101h211v-101h-211zM422 1098v76h70v-76h-70z" />
    <glyph glyph-name="fi" unicode="fi" horiz-adv-x="1318" 
d="M20 1331h263v58q0 54 6 95t25 82t51 67t88 42.5t133 16.5q129 0 248 -21v-158q-67 13 -164 13q-59 0 -96 -9t-55.5 -29.5t-25 -45t-6.5 -64.5v-94q27 22 80.5 33t104 12.5t162.5 1.5v-176h-347v-1155h-204v1155h-263v176zM948 1575q0 53 35.5 85t101.5 32t103 -32.5
t37 -84.5q0 -48 -37.5 -79.5t-102.5 -31.5t-101 31.5t-36 79.5zM983 0v1331h207v-1331h-207z" />
    <glyph glyph-name="fl" unicode="fl" horiz-adv-x="1325" 
d="M20 1331h263v58q0 54 6 95t25 82t51 67t88 42.5t133 16.5q129 0 248 -21v-158q-67 13 -164 13q-59 0 -96 -9t-55.5 -29.5t-25 -45t-6.5 -64.5v-94q27 22 80.5 33t104 12.5t162.5 1.5v-176h-347v-1155h-204v1155h-263v176zM991 0v1671h207v-1671h-207z" />
    <glyph glyph-name=".notdef" horiz-adv-x="1054" 
d="M864 1659v-2110h-667v2110h667zM352 -305h350v69h-215l148 99h67v69h-350v-69h148l-148 -99v-69zM352 -18h350v239h-350v-239zM352 346h350v240h-210v-119h71v49h70v-100h-211v170h-70v-240zM352 631h350v211h-69v-140h-281v-71zM352 752h211v147h139v70h-350v-70h140
v-78h-140v-69zM352 1026h350v72h-139v147h-211v-219zM352 1300h350v70h-139v78h139v70h-348v-70h138v-78h-140v-70zM422 51v101h211v-101h-211zM422 1098v76h70v-76h-70z" />
    <glyph glyph-name=".null" horiz-adv-x="0" 
 />
    <glyph glyph-name="nonmarkingreturn" horiz-adv-x="682" 
 />
    <glyph glyph-name="space" unicode=" " horiz-adv-x="520" 
 />
    <glyph glyph-name="exclam" unicode="!" horiz-adv-x="491" 
d="M143 1671h205l-10 -1159h-184zM102 119q0 65 41 104t103 39q59 0 100 -39.5t41 -103.5q0 -61 -41 -100t-100 -39q-61 0 -102.5 38.5t-41.5 100.5z" />
    <glyph glyph-name="quotedbl" unicode="&#x22;" horiz-adv-x="552" 
d="M102 1671h129v-512h-129v512zM322 1159v512h129v-512h-129z" />
    <glyph glyph-name="numbersign" unicode="#" horiz-adv-x="1816" 
d="M254 1130h479l287 541h108l-286 -541h432l287 541h108l-287 -541h371v-90h-418l-235 -442h454v-90h-501l-271 -508h-108l270 508h-432l-270 -508h-109l270 508h-348v90h396l235 442h-432v90zM559 598h432l236 442h-432z" />
    <glyph glyph-name="dollar" unicode="$" horiz-adv-x="1155" 
d="M532 -143v125q-227 15 -342.5 138.5t-115.5 352.5v105h205v-107q0 -147 64 -220t189 -87v620l-110 56q-77 36 -130 72.5t-99.5 88.5t-69.5 122.5t-23 160.5q0 189 112.5 294t319.5 114v123h105v-125q200 -15 310 -128t110 -313v-88h-205v72q0 129 -55.5 194.5
t-159.5 79.5v-555l106 -53q65 -32 108.5 -57.5t89.5 -66.5t73 -87t44 -113t17 -151q0 -215 -108 -325t-330 -119v-123h-105zM305 1276q0 -44 11.5 -80.5t29.5 -62t48.5 -49t58.5 -39t71 -35.5l8 -4v503q-110 -6 -168.5 -57.5t-58.5 -157.5v-18zM637 160q117 8 175 67.5
t58 182.5v22q0 52 -11 92.5t-27.5 68t-48 53t-60 42t-76.5 39.5l-10 6v-573z" />
    <glyph glyph-name="percent" unicode="%" horiz-adv-x="1538" 
d="M287 0l846 1671h116l-846 -1671h-116zM45 1337q0 68 19.5 130t57.5 113t101 81.5t142 30.5t142 -30.5t101 -81.5t58 -113t20 -130q0 -91 -33.5 -169t-108.5 -130.5t-179 -52.5q-64 0 -117.5 20t-90 54t-62.5 79t-38 95.5t-12 103.5zM207 1337q0 -93 41 -146.5t117 -53.5
q78 0 118.5 53.5t40.5 146.5q0 95 -40.5 149t-118.5 54q-77 0 -117.5 -54.5t-40.5 -148.5zM852 334q0 67 20 128.5t58.5 112.5t101.5 81t142 30q104 0 179 -52.5t108.5 -130.5t33.5 -169q0 -68 -20 -130t-58 -112.5t-101 -81t-142 -30.5t-142 30.5t-101.5 81t-58.5 112.5
t-20 130zM1016 334q0 -94 40.5 -148.5t117.5 -54.5q76 0 116.5 54.5t40.5 148.5q0 93 -40.5 147t-116.5 54t-117 -54t-41 -147z" />
    <glyph glyph-name="ampersand" unicode="&#x26;" horiz-adv-x="1275" 
d="M594 -20q-252 0 -374 122t-122 334v43q0 143 64 243t180 132q-110 31 -174 128t-64 241v37q0 62 14.5 120t50.5 116t90.5 100.5t142 69t198.5 26.5q479 0 479 -459v-49h-209v65q0 146 -65 208.5t-207 62.5q-145 0 -213 -62t-68 -192v-82q0 -138 73 -195t210 -57h270v125
h209v-125h127v-166h-127v-336q0 -450 -485 -450zM311 416q0 -136 68.5 -200t216.5 -64q141 0 207.5 62t66.5 202v350h-272q-138 0 -212.5 -58t-74.5 -194v-98z" />
    <glyph glyph-name="quotesingle" unicode="'" horiz-adv-x="333" 
d="M102 1671h129v-512h-129v512z" />
    <glyph glyph-name="parenleft" unicode="(" horiz-adv-x="571" 
d="M451 -307q-194 256 -282.5 499.5t-88.5 528.5q0 286 88.5 526t282.5 496h114q-204 -275 -293.5 -507t-89.5 -515q0 -285 88.5 -516t294.5 -512h-114z" />
    <glyph glyph-name="parenright" unicode=")" horiz-adv-x="571" 
d="M121 1747q194 -256 282.5 -499.5t88.5 -528.5q0 -286 -88.5 -526t-282.5 -496h-115q204 275 293.5 507t89.5 515q0 285 -88.5 516t-294.5 512h115z" />
    <glyph glyph-name="asterisk" unicode="*" horiz-adv-x="718" 
d="M319 1683h82v-239l191 100l41 -69l-187 -99l187 -98l-41 -70l-191 101v-240h-82v240l-190 -101l-41 70l186 98l-186 99l41 69l190 -100v239z" />
    <glyph glyph-name="plus" unicode="+" horiz-adv-x="1347" 
d="M86 786v93h539v473h96v-473h541v-93h-541v-477h-96v477h-539z" />
    <glyph glyph-name="comma" unicode="," horiz-adv-x="436" 
d="M106 -121q59 16 112.5 57t72.5 95q-38 -51 -98 -51q-49 0 -83 36.5t-34 102.5q0 65 38.5 103t104.5 38t104.5 -47t38.5 -123q0 -104 -70.5 -190t-185.5 -146v125z" />
    <glyph glyph-name="hyphen" unicode="-" horiz-adv-x="1323" 
d="M74 719h1175v-86h-1175v86z" />
    <glyph glyph-name="period" unicode="." horiz-adv-x="436" 
d="M219 -20q-61 0 -102 38.5t-41 100.5q0 65 41 104t102 39q59 0 100 -39.5t41 -103.5q0 -61 -41 -100t-100 -39z" />
    <glyph glyph-name="slash" unicode="/" horiz-adv-x="1056" 
d="M1026 1671l-887 -1671h-108l887 1671h108z" />
    <glyph glyph-name="zero" unicode="0" horiz-adv-x="1292" 
d="M647 -20q-269 0 -406 162t-137 460v471q0 296 137 457.5t406 161.5q266 0 402.5 -162t136.5 -457v-471q0 -298 -136.5 -460t-402.5 -162zM319 567q0 -89 15 -159l577 974q-82 131 -264 131q-163 0 -245.5 -99.5t-82.5 -307.5v-539zM391 272q81 -112 256 -112
q161 0 242.5 99t81.5 308v539q0 67 -10 135z" />
    <glyph glyph-name="one" unicode="1" horiz-adv-x="995" 
d="M86 180h340v1243q-118 -137 -344 -137v191q115 0 202.5 46t153.5 148h199v-1491h340v-180h-891v180z" />
    <glyph glyph-name="two" unicode="2" horiz-adv-x="1241" 
d="M94 195q0 114 17 198t60 159.5t120 135t194 109.5l189 102q67 30 110 57t81 67t55.5 93.5t17.5 124.5v21q0 136 -74.5 193.5t-220.5 57.5q-163 0 -241 -70.5t-78 -236.5v-86h-218v70q0 246 134.5 374t402.5 128q250 0 381 -115.5t131 -343.5q0 -346 -352 -488l-195 -108
q-78 -32 -129.5 -64t-86 -68t-52.5 -85.5t-24.5 -104t-6.5 -135.5h844v-180h-1059v195z" />
    <glyph glyph-name="three" unicode="3" horiz-adv-x="1241" 
d="M614 -20q-269 0 -399 116.5t-131 360.5v63h213v-80q3 -157 79.5 -219.5t235.5 -62.5q163 0 238.5 61.5t75.5 196.5v96q0 62 -16.5 108t-43 74t-67 45t-82.5 23t-94 6h-197v180h197q63 0 112 10t91 35t64.5 72t22.5 115v82q0 72 -21.5 122t-63 77.5t-93.5 39.5t-121 12
t-119.5 -12t-93 -41t-65 -84t-23.5 -135v-70h-213v54q1 236 128.5 351.5t387.5 115.5q111 0 199 -24t146 -64.5t96 -97.5t54.5 -119.5t16.5 -133.5v-39q2 -134 -60 -225.5t-177 -126.5q123 -35 185.5 -132.5t62.5 -248.5v-47q0 -218 -128.5 -336t-396.5 -118z" />
    <glyph glyph-name="four" unicode="4" horiz-adv-x="1200" 
d="M973 1671v-1155h168v-180h-168v-336h-211v336h-715v194l721 1141h205zM231 516h531v821z" />
    <glyph glyph-name="five" unicode="5" horiz-adv-x="1239" 
d="M702 1120q208 0 330.5 -119.5t122.5 -353.5v-143q0 -262 -134 -393t-392 -131q-252 0 -391.5 122.5t-139.5 360.5v49h217v-76q0 -78 25.5 -134t71 -86.5t99 -44t118.5 -13.5q309 0 309 297v188q0 147 -73 221t-214 74q-236 0 -327 -229h-211l51 962h917v-180h-723
l-36 -555q124 184 380 184z" />
    <glyph glyph-name="six" unicode="6" horiz-adv-x="1265" 
d="M643 -20q-271 0 -401.5 133t-130.5 405v565q0 609 542 609q125 0 218 -33t149 -94t83.5 -140t29.5 -178v-30h-213l-2 30q-3 127 -69 188.5t-198 61.5q-323 0 -323 -334v-215q120 176 383 176q219 0 339.5 -124.5t120.5 -356.5v-156q0 -249 -133 -378t-395 -129zM328 463
q0 -163 78 -234t235 -71q159 0 236 72.5t77 226.5v188q0 152 -74.5 223.5t-224.5 71.5q-153 0 -240 -74t-87 -213v-190z" />
    <glyph glyph-name="seven" unicode="7" horiz-adv-x="1071" 
d="M25 1491v180h1001v-180q-128 -124 -221.5 -264t-149.5 -275.5t-89 -295t-44.5 -303.5t-11.5 -320v-33h-211v31q0 172 11.5 316t45 304t89 297.5t147.5 278.5t217 264h-784z" />
    <glyph glyph-name="eight" unicode="8" horiz-adv-x="1253" 
d="M627 -20q-531 0 -531 440v69q0 170 73.5 267.5t199.5 128.5q-110 30 -177 116t-67 226v63q0 189 129 295.5t375 106.5q244 0 370.5 -106t126.5 -296v-65q0 -139 -66 -224.5t-175 -115.5q126 -31 199 -129t73 -267v-71q0 -438 -530 -438zM313 412q0 -141 77 -199.5
t237 -58.5t236.5 58.5t76.5 201.5v121q0 139 -78.5 196t-234.5 57t-235 -57t-79 -196v-123zM342 1190q0 -221 285 -221q284 0 284 221v100q0 118 -71 173t-213 55t-213.5 -55t-71.5 -173v-100z" />
    <glyph glyph-name="nine" unicode="9" horiz-adv-x="1265" 
d="M623 1692q271 0 401.5 -133.5t130.5 -405.5v-565q0 -608 -543 -608q-125 0 -218 33t-149 93.5t-83 139.5t-29 178v31h213l2 -31q3 -127 68.5 -188.5t197.5 -61.5q324 0 324 334v215q-120 -176 -383 -176q-220 0 -340.5 124.5t-120.5 356.5v156q0 249 133.5 378.5
t395.5 129.5zM311 1026q0 -152 74.5 -223.5t224.5 -71.5q153 0 240.5 74t87.5 213v190q0 163 -78 234t-235 71q-159 0 -236.5 -72.5t-77.5 -226.5v-188z" />
    <glyph glyph-name="colon" unicode=":" horiz-adv-x="499" 
d="M252 854q-61 0 -102 38.5t-41 100.5q0 65 41 104.5t102 39.5q59 0 100 -40t41 -104q0 -61 -41 -100t-100 -39zM109 119q0 65 41 104t102 39q59 0 100 -39.5t41 -103.5q0 -61 -41 -100t-100 -39q-61 0 -102 38.5t-41 100.5z" />
    <glyph glyph-name="semicolon" unicode=";" horiz-adv-x="497" 
d="M252 854q-61 0 -102 38.5t-41 100.5q0 65 41 104.5t102 39.5q59 0 100 -40t41 -104q0 -61 -41 -100t-100 -39zM104 119q0 65 39 103t105 38t104.5 -47t38.5 -123q0 -104 -70.5 -190t-185.5 -146v125q59 16 112 57t72 95q-38 -51 -98 -51q-49 0 -83 36.5t-34 102.5z" />
    <glyph glyph-name="less" unicode="&#x3c;" horiz-adv-x="1275" 
d="M72 872l1085 326v-100l-928 -267l928 -266v-100l-1085 326v81z" />
    <glyph glyph-name="equal" unicode="=" horiz-adv-x="1374" 
d="M98 1001h1176v-86h-1176v86zM98 662v86h1176v-86h-1176z" />
    <glyph glyph-name="greater" unicode="&#x3e;" horiz-adv-x="1275" 
d="M1204 791l-1085 -326v100l928 266l-928 267v100l1085 -326v-81z" />
    <glyph glyph-name="question" unicode="?" horiz-adv-x="1032" 
d="M520 1692q122 0 213.5 -32t144.5 -89.5t79 -129.5t26 -159q0 -78 -22 -143.5t-57 -111.5t-77.5 -88.5t-84.5 -85t-77 -89.5t-57 -113.5t-22 -146.5v-27h-191v33q0 94 20.5 171t54 129.5t73.5 97.5t79.5 84.5t73 80.5t54 95.5t20.5 119.5q0 232 -252 232
q-141 0 -200.5 -75t-59.5 -216v-80h-215v55q0 105 25.5 190t80 153.5t149 106.5t222.5 38zM348 119q0 65 41 104t103 39q59 0 100 -39.5t41 -103.5q0 -61 -41 -100t-100 -39q-61 0 -102.5 38.5t-41.5 100.5z" />
    <glyph glyph-name="at" unicode="@" horiz-adv-x="1554" 
d="M850 -133q-176 0 -317.5 52.5t-242.5 153.5t-155.5 255t-54.5 350q0 199 55 356t152 257t226 152t282 52q322 0 496.5 -195.5t174.5 -609.5q0 -247 -63 -375.5t-201 -128.5q-79 0 -132 42.5t-75 119.5q-84 -170 -266 -170q-162 0 -261 132t-99 362q0 229 99 361t261 132
q168 0 252 -147v133h145v-692q0 -187 95 -187q143 0 143 418q0 376 -144.5 545.5t-422.5 169.5q-132 0 -242.5 -45t-194.5 -132.5t-131 -228t-47 -321.5q0 -178 48 -316t136.5 -227t210 -134.5t271.5 -45.5q113 0 228.5 21t191.5 53v-90q-183 -72 -418 -72zM516 672
q0 -177 62 -269t182 -92q115 0 168 89t53 272q0 181 -54.5 270.5t-168.5 89.5q-119 0 -180.5 -91.5t-61.5 -268.5z" />
    <glyph glyph-name="A" unicode="A" horiz-adv-x="1206" 
d="M27 0l432 1671h286l435 -1671h-222l-79 330h-551l-80 -330h-221zM371 512h465l-226 930l-8 24l-6 -22z" />
    <glyph glyph-name="B" unicode="B" horiz-adv-x="1292" 
d="M141 0v1671h590q222 0 329 -96t107 -307v-39q0 -260 -202 -342q113 -36 179 -133t66 -258v-39q0 -238 -111.5 -347.5t-353.5 -109.5h-604zM354 182h369q150 0 209 55.5t59 202.5v82q0 139 -65.5 198.5t-204.5 59.5h-367v-598zM354 965h346q55 0 95 9t77 32.5t56.5 72.5
t19.5 121v70q0 72 -15 116.5t-49 66.5t-74 29t-105 7h-351v-524z" />
    <glyph glyph-name="C" unicode="C" horiz-adv-x="1323" 
d="M674 -20q-144 0 -255.5 45.5t-182.5 128t-107.5 196t-36.5 252.5v471q0 184 63 321.5t195.5 217.5t323.5 80q267 0 411.5 -148.5t153.5 -398.5l2 -160h-221l-2 193q-4 160 -93.5 245.5t-248.5 85.5q-179 0 -272 -105t-93 -298v-539q0 -195 92.5 -300t270.5 -105
q163 0 251.5 85.5t92.5 248.5l2 192h221l-2 -158q-9 -253 -153.5 -401.5t-411.5 -148.5z" />
    <glyph glyph-name="D" unicode="D" horiz-adv-x="1329" 
d="M141 0v1671h510q144 0 248.5 -31t180.5 -100t113.5 -187t37.5 -286v-463q0 -168 -37.5 -285.5t-114 -187t-181 -100.5t-247.5 -31h-510zM354 176h297q195 0 278 92t83 316v503q0 224 -83 316t-280 92h-295v-1319z" />
    <glyph glyph-name="E" unicode="E" horiz-adv-x="1120" 
d="M141 0v1671h891v-182h-678v-561h643v-185h-643v-561h678v-182h-891z" />
    <glyph glyph-name="F" unicode="F" horiz-adv-x="1097" 
d="M141 0v1671h901v-182h-688v-639h656v-182h-656v-668h-213z" />
    <glyph glyph-name="G" unicode="G" horiz-adv-x="1347" 
d="M645 -20q-263 0 -407 169t-144 447v477q0 137 36 249.5t106 195.5t182 128.5t256 45.5q261 0 407.5 -146.5t155.5 -390.5l2 -125h-221l-2 160q-6 159 -95.5 239t-244.5 80q-182 0 -272.5 -104t-90.5 -299v-539q0 -195 87.5 -300t265.5 -105q163 0 253 89t97 261v170h-412
v172h635v-854h-127l-25 213q-141 -233 -442 -233z" />
    <glyph glyph-name="H" unicode="H" horiz-adv-x="1337" 
d="M983 0v743h-629v-743h-213v1671h213v-743h629v743h213v-1671h-213z" />
    <glyph glyph-name="I" unicode="I" horiz-adv-x="829" 
d="M92 0v193h215v1286h-215v192h643v-192h-213v-1286h213v-193h-643z" />
    <glyph glyph-name="J" unicode="J" horiz-adv-x="1193" 
d="M557 -20q-263 0 -385.5 140.5t-122.5 420.5v84h219v-119q0 -187 69 -265.5t220 -78.5q146 0 217.5 77t71.5 259v1173h217v-1141q0 -273 -122.5 -411.5t-383.5 -138.5z" />
    <glyph glyph-name="K" unicode="K" horiz-adv-x="1222" 
d="M958 0l-520 739h-84v-739h-213v1671h213v-739h84l520 739h254l-604 -835l604 -836h-254z" />
    <glyph glyph-name="L" unicode="L" horiz-adv-x="1062" 
d="M141 0v1671h213v-1489h676v-182h-889z" />
    <glyph glyph-name="M" unicode="M" horiz-adv-x="1579" 
d="M141 0v1671h250l397 -1268l398 1268h252v-1671h-199v1221l-387 -1221h-125l-387 1221v-1221h-199z" />
    <glyph glyph-name="N" unicode="N" horiz-adv-x="1359" 
d="M141 0v1671h203l674 -1243v1243h201v-1671h-203l-674 1243v-1243h-201z" />
    <glyph glyph-name="O" unicode="O" horiz-adv-x="1345" 
d="M674 -20q-143 0 -254.5 46t-183 128.5t-108 195.5t-36.5 250v473q0 136 36.5 248.5t108 195.5t183 129t254.5 46q189 0 321 -80.5t195 -218t63 -320.5v-473q0 -137 -36.5 -250t-107.5 -195.5t-182 -128.5t-253 -46zM311 567q0 -193 92.5 -298t270.5 -105q176 0 268 105
t92 298v537q0 192 -92 297.5t-268 105.5q-178 0 -270.5 -105.5t-92.5 -297.5v-537z" />
    <glyph glyph-name="P" unicode="P" horiz-adv-x="1273" 
d="M141 0v1671h566q266 0 388 -125t122 -399v-41q0 -274 -122 -403.5t-388 -129.5h-353v-573h-213zM354 750h359q152 0 218 73.5t66 241.5v125q0 165 -65.5 235t-218.5 70h-359v-745z" />
    <glyph glyph-name="Q" unicode="Q" horiz-adv-x="1345" 
d="M674 164q176 0 268 105t92 298v537q0 192 -92 297.5t-268 105.5q-178 0 -270.5 -105.5t-92.5 -297.5v-537q0 -193 92.5 -298t270.5 -105zM92 600v473q0 136 36.5 248.5t108 195.5t183 129t254.5 46q189 0 321 -80.5t195 -218t63 -320.5v-473q0 -258 -126 -423.5
t-367 -192.5q181 -26 338 -109v-178q-164 85 -296.5 121.5t-303.5 40.5v141q-198 50 -302 209t-104 391z" />
    <glyph glyph-name="R" unicode="R" horiz-adv-x="1306" 
d="M1001 0q-22 30 -22 150v299q0 62 -16.5 108t-42.5 72.5t-64 43t-74.5 22t-81.5 5.5h-346v-700h-213v1671h561q265 0 380.5 -102t115.5 -348v-21q0 -171 -58.5 -267.5t-189.5 -139.5q246 -72 246 -359v-284q0 -114 23 -150h-218zM354 874h348q143 0 210 63t67 210v90
q0 80 -16.5 131t-54 79t-87.5 38t-129 10h-338v-621z" />
    <glyph glyph-name="S" unicode="S" horiz-adv-x="1224" 
d="M629 -20q-557 0 -557 516v88h217v-121q0 -163 83 -233t261 -70q155 0 224 56.5t69 184.5v33q0 65 -14.5 112t-47.5 80.5t-73 56t-103 46.5l-262 113q-74 33 -128 69t-100.5 86.5t-70 118t-23.5 152.5q0 202 128.5 313t373.5 111q254 0 386 -118t132 -345v-72h-219v84
q0 147 -72 208.5t-227 61.5q-142 0 -212 -52t-70 -165v-22q0 -54 16 -96t48 -72.5t68 -51.5t89 -42l266 -113q63 -28 108.5 -54t90.5 -65t73 -85t45 -111t17 -146q0 -230 -125 -343t-391 -113z" />
    <glyph glyph-name="T" unicode="T" horiz-adv-x="1122" 
d="M455 0v1489h-420v182h1052v-182h-419v-1489h-213z" />
    <glyph glyph-name="U" unicode="U" horiz-adv-x="1331" 
d="M666 -20q-283 0 -409 132t-126 418v1141h215v-1171q0 -100 20.5 -166.5t63.5 -104t99 -52.5t137 -15t137 15t98.5 52.5t63 104t20.5 166.5v1171h215v-1141q0 -287 -126.5 -418.5t-407.5 -131.5z" />
    <glyph glyph-name="V" unicode="V" horiz-adv-x="1206" 
d="M461 0l-434 1671h221l348 -1442l8 -24l6 22l348 1444h222l-432 -1671h-287z" />
    <glyph glyph-name="W" unicode="W" horiz-adv-x="1964" 
d="M401 0l-366 1671h217l289 -1411l2 -4v4l303 1411h272l301 -1405l4 -12l2 12l287 1405h217l-366 -1671h-281l-295 1378l-4 21l-6 -21l-295 -1378h-281z" />
    <glyph glyph-name="X" unicode="X" horiz-adv-x="1204" 
d="M16 0l465 850l-452 821h235l340 -643l340 643h234l-455 -821l461 -850h-234l-352 672l-350 -672h-232z" />
    <glyph glyph-name="Y" unicode="Y" horiz-adv-x="1193" 
d="M489 0v586l-481 1085h234l356 -837l354 837h232l-482 -1085v-586h-213z" />
    <glyph glyph-name="Z" unicode="Z" horiz-adv-x="1112" 
d="M66 0v184l741 1305h-741v182h983v-184l-744 -1305h744v-182h-983z" />
    <glyph glyph-name="bracketleft" unicode="[" horiz-adv-x="577" 
d="M547 1747v-88h-307v-1878h307v-88h-410v2054h410z" />
    <glyph glyph-name="backslash" unicode="\" horiz-adv-x="1056" 
d="M31 1671h108l887 -1671h-108z" />
    <glyph glyph-name="bracketright" unicode="]" horiz-adv-x="577" 
d="M31 -307v88h307v1878h-307v88h409v-2054h-409z" />
    <glyph glyph-name="asciicircum" unicode="^" horiz-adv-x="905" 
d="M731 1057l-278 542l-279 -542h-111l316 614h147l316 -614h-111z" />
    <glyph glyph-name="underscore" unicode="_" horiz-adv-x="1425" 
d="M0 -154h1425v-92h-1425v92z" />
    <glyph glyph-name="grave" unicode="`" horiz-adv-x="1206" 
d="M1001 1532l-20 -78l-776 150l20 79z" />
    <glyph glyph-name="a" unicode="a" horiz-adv-x="1142" 
d="M823 0v209q-55 -117 -160 -173t-241 -56q-162 0 -257 83.5t-95 255.5q0 280 342 400l123 41q42 16 61.5 23.5t56.5 23t55 27t43.5 30t37.5 36t21 41t9 50.5v15q0 76 -55.5 124t-177.5 48q-134 0 -204.5 -61.5t-70.5 -180.5v-70h-207v49q0 198 118 317.5t362 119.5
q440 0 440 -391v-961h-201zM279 342q0 -184 204 -184q146 0 241 104.5t95 286.5v215q-9 -25 -29.5 -46.5t-52.5 -39.5t-62.5 -32t-73.5 -31q-9 -3 -13 -5l-107 -41q-100 -38 -151 -91t-51 -136z" />
    <glyph glyph-name="b" unicode="b" horiz-adv-x="1187" 
d="M127 0v1671h207v-520q20 38 47.5 70t69 63.5t101.5 49.5t132 18q197 0 308.5 -131.5t111.5 -358.5v-403q0 -221 -111 -350t-309 -129q-230 0 -350 186v-166h-207zM334 481q0 -143 73.5 -234t213.5 -91q137 0 204.5 87.5t67.5 237.5v369q0 149 -67.5 237.5t-204.5 88.5
q-139 0 -213 -92t-74 -236v-367z" />
    <glyph glyph-name="c" unicode="c" horiz-adv-x="1128" 
d="M844 899q-9 279 -266 279q-142 0 -213.5 -83.5t-71.5 -256.5v-346q0 -338 285 -338q129 0 194.5 69.5t71.5 208.5l2 109h211l-4 -86q-9 -223 -129 -349t-349 -126q-245 0 -369 138.5t-124 397.5v301q0 257 124 396t369 139q229 0 350.5 -126t129.5 -349l2 -89h-211z" />
    <glyph glyph-name="d" unicode="d" horiz-adv-x="1187" 
d="M854 1671h205v-1671h-205v180q-20 -38 -47.5 -70t-69 -63t-101.5 -49t-132 -18q-197 0 -308.5 131t-111.5 358v403q0 221 111.5 350.5t308.5 129.5q229 0 350 -187v506zM295 481q0 -148 67.5 -236.5t204.5 -88.5q139 0 213 91.5t74 235.5v367q0 143 -73.5 234.5
t-213.5 91.5q-137 0 -204.5 -88t-67.5 -238v-369z" />
    <glyph glyph-name="e" unicode="e" horiz-adv-x="1138" 
d="M82 514v303q0 257 125 396t371 139q234 0 356.5 -133.5t122.5 -393.5v-200h-764v-133q0 -338 285 -338q122 0 184 59.5t69 183.5l3 47h215v-24q-12 -210 -130 -325t-341 -115q-247 0 -371.5 138t-124.5 396zM293 778h551v109q-4 153 -73 222t-196 69q-282 0 -282 -338
v-62z" />
    <glyph glyph-name="f" unicode="f" horiz-adv-x="854" 
d="M20 1331h263v58q0 54 6 95t25 82t51 67t88 42.5t133 16.5q129 0 248 -21v-158q-67 13 -164 13q-59 0 -96 -9t-55.5 -29.5t-25 -45t-6.5 -64.5v-94q27 22 80.5 33t104 12.5t162.5 1.5v-176h-347v-1155h-204v1155h-263v176z" />
    <glyph glyph-name="g" unicode="g" horiz-adv-x="1185" 
d="M854 29v151q-20 -38 -47.5 -70t-69 -63t-101.5 -49t-132 -18q-197 0 -308.5 131t-111.5 358v403q0 221 111.5 350.5t308.5 129.5q229 0 350 -187v166h205v-1319q0 -121 -18.5 -203t-63.5 -140t-122 -84.5t-193 -26.5h-515v176h482q131 0 178 64t47 231zM295 481
q0 -148 67.5 -236.5t204.5 -88.5q139 0 213 91.5t74 235.5v367q0 143 -73.5 234.5t-213.5 91.5q-137 0 -204.5 -88t-67.5 -238v-369z" />
    <glyph glyph-name="h" unicode="h" 
d="M334 1671v-532q22 42 51.5 77t72 67t102 50.5t130.5 18.5q182 0 275.5 -117t93.5 -332v-903h-205v887q0 291 -240 291q-65 0 -116 -21t-81 -53t-49.5 -75.5t-26.5 -82.5t-7 -80v-866h-207v1671h207z" />
    <glyph glyph-name="i" unicode="i" horiz-adv-x="460" 
d="M127 1331h207v-1331h-207v1331zM92 1575q0 53 35.5 85t101.5 32t103 -32.5t37 -84.5q0 -48 -37.5 -79.5t-102.5 -31.5t-101 31.5t-36 79.5z" />
    <glyph glyph-name="j" unicode="j" horiz-adv-x="460" 
d="M127 -8v1339h207v-1360q0 -228 -81.5 -320.5t-287.5 -92.5h-172v176h129q122 0 163.5 52.5t41.5 205.5zM92 1575q0 53 35.5 85t101.5 32t103 -32.5t37 -84.5q0 -48 -37.5 -79.5t-102.5 -31.5t-101 31.5t-36 79.5z" />
    <glyph glyph-name="k" unicode="k" horiz-adv-x="1099" 
d="M127 1671h207v-915h69l443 575h246l-533 -665l533 -666h-246l-447 582h-65v-582h-207v1671z" />
    <glyph glyph-name="l" unicode="l" horiz-adv-x="460" 
d="M127 1671h207v-1671h-207v1671z" />
    <glyph glyph-name="m" unicode="m" horiz-adv-x="1759" 
d="M1438 901q0 45 -4 80.5t-16.5 74t-34 64t-60 42t-90.5 16.5q-57 0 -101.5 -19.5t-71 -49t-44 -69.5t-23.5 -77.5t-6 -75.5v-887h-205v901q0 44 -3.5 79t-16 74t-34 64.5t-60 42.5t-90.5 17q-57 0 -101 -19.5t-70.5 -49t-43.5 -69.5t-23 -77.5t-6 -75.5v-887h-207v1331
h207v-166q92 187 315 187q128 0 205 -57t107 -154q106 211 339 211q342 0 342 -428v-924h-204v901z" />
    <glyph glyph-name="n" unicode="n" 
d="M334 1331v-188q47 89 134 149t220 60q182 0 275.5 -117t93.5 -332v-903h-205v887q0 291 -240 291q-72 0 -126.5 -24.5t-85 -66t-46 -85.5t-20.5 -93v-909h-207v1331h207z" />
    <glyph glyph-name="o" unicode="o" horiz-adv-x="1142" 
d="M571 -20q-243 0 -365 138.5t-122 397.5v299q0 258 122.5 397.5t364.5 139.5t365 -139.5t123 -397.5v-299q0 -259 -122.5 -397.5t-365.5 -138.5zM293 494q0 -174 69 -257t209 -83q279 0 279 340v344q0 340 -279 340q-140 0 -209 -83t-69 -257v-344z" />
    <glyph glyph-name="p" unicode="p" horiz-adv-x="1187" 
d="M334 1331v-180q20 38 47.5 70t69 63.5t101.5 49.5t132 18q197 0 308.5 -131.5t111.5 -358.5v-403q0 -221 -111 -350t-309 -129q-230 0 -350 186v-608h-207v1773h207zM334 481q0 -143 73.5 -234t213.5 -91q137 0 204.5 87.5t67.5 237.5v369q0 149 -67.5 237.5t-204.5 88.5
q-139 0 -213 -92t-74 -236v-367z" />
    <glyph glyph-name="q" unicode="q" horiz-adv-x="1185" 
d="M854 -442v622q-20 -38 -47.5 -70t-69 -63t-101.5 -49t-132 -18q-197 0 -308.5 131t-111.5 358v403q0 221 111.5 350.5t308.5 129.5q229 0 350 -187v166h205v-1773h-205zM295 481q0 -148 67.5 -236.5t204.5 -88.5q139 0 213 91.5t74 235.5v367q0 143 -73.5 234.5
t-213.5 91.5q-137 0 -204.5 -88t-67.5 -238v-369z" />
    <glyph glyph-name="r" unicode="r" horiz-adv-x="1024" 
d="M334 1331v-190q41 90 126 150.5t204 60.5q319 0 319 -394v-131h-207v101q0 126 -42 188t-144 62q-57 0 -103 -21t-73.5 -54t-46.5 -75.5t-26 -81.5t-7 -76v-870h-207v1331h207z" />
    <glyph glyph-name="s" unicode="s" horiz-adv-x="1087" 
d="M739 715q151 -61 215 -144t64 -213q0 -81 -23.5 -147t-75 -119t-143 -82.5t-217.5 -29.5q-496 0 -496 417v68h211v-66q0 -131 68 -188t217 -57q130 0 189 47.5t59 144.5q0 75 -42 123.5t-151 97.5l-247 107q-140 50 -206.5 129t-66.5 201q0 71 24 131.5t73.5 110
t137.5 78t206 28.5q464 0 464 -398v-53h-208v51q0 122 -63.5 174t-192.5 52q-107 0 -169.5 -41t-62.5 -123q0 -63 37 -103t127 -77z" />
    <glyph glyph-name="t" unicode="t" horiz-adv-x="839" 
d="M780 1331v-176h-319v-758q0 -135 26.5 -178t114.5 -43h178v-176h-241q-88 0 -145 22.5t-87 71.5t-40.5 109.5t-10.5 154.5v797h-238v176h60q76 10 125 57t69 118t19 165h205q0 -132 -44 -225.5t-112 -114.5h440z" />
    <glyph glyph-name="u" unicode="u" 
d="M842 0v193q-30 -57 -72 -101.5t-117 -78t-168 -33.5q-182 0 -275 116.5t-93 331.5v903h205v-887q0 -145 58 -217.5t181 -72.5q65 0 116 21t81.5 53t50 75t26.5 82.5t7 79.5v866h207v-1331h-207z" />
    <glyph glyph-name="v" unicode="v" horiz-adv-x="1050" 
d="M23 1331h213l290 -1145l291 1145h211l-364 -1331h-277z" />
    <glyph glyph-name="w" unicode="w" horiz-adv-x="1679" 
d="M33 1331h207l233 -1136l240 1136h254l241 -1136l234 1136h205l-301 -1331h-256l-250 1159l-254 -1159h-252z" />
    <glyph glyph-name="x" unicode="x" horiz-adv-x="1067" 
d="M0 0l412 686l-379 645h237l271 -475l270 475h223l-379 -645l412 -686h-238l-301 516l-303 -516h-225z" />
    <glyph glyph-name="y" unicode="y" horiz-adv-x="1173" 
d="M842 16v177q-30 -57 -72 -101.5t-117 -78t-168 -33.5q-182 0 -275 116.5t-93 331.5v903h205v-887q0 -145 58 -217.5t181 -72.5q65 0 116 21t81.5 53t50 75t26.5 82.5t7 79.5v866h205v-1319q0 -240 -87.5 -347t-302.5 -107h-505v176h471q124 0 171.5 61t47.5 221z" />
    <glyph glyph-name="z" unicode="z" horiz-adv-x="1009" 
d="M63 1331h883v-176l-653 -979h657v-176h-891v176l654 979h-650v176z" />
    <glyph glyph-name="braceleft" unicode="{" horiz-adv-x="557" 
d="M78 831q80 0 80 181v379q0 185 68 270.5t202 85.5h96v-94h-94q-170 0 -170 -254v-381q0 -109 -18.5 -162t-71.5 -88v-92q53 -33 71.5 -86t18.5 -164v-381q0 -254 170 -254h94v-94h-96q-134 0 -202 85.5t-68 270.5v379q0 90 -21 136t-59 46v217z" />
    <glyph glyph-name="bar" unicode="|" horiz-adv-x="393" 
d="M145 -20v1703h103v-1703h-103z" />
    <glyph glyph-name="braceright" unicode="}" horiz-adv-x="557" 
d="M479 612q-80 0 -80 -180v-379q0 -185 -68 -270.5t-202 -85.5h-96v94h94q170 0 170 254v381q0 109 18.5 162t71.5 88v92q-53 33 -71.5 86t-18.5 164v381q0 254 -170 254h-94v94h96q134 0 202 -85.5t68 -270.5v-379q0 -90 21 -136.5t59 -46.5v-217z" />
    <glyph glyph-name="asciitilde" unicode="~" horiz-adv-x="1382" 
d="M98 715q0 64 18 113.5t47 79.5t68.5 48.5t78 25.5t81.5 7q73 0 142.5 -22.5t124.5 -54.5t107.5 -63.5t112.5 -54t119 -22.5q86 0 137.5 44t51.5 128h104q0 -79 -27 -136t-72.5 -85.5t-93 -40.5t-102.5 -12q-73 0 -142.5 22.5t-124.5 54t-107.5 63.5t-112.5 54.5
t-119 22.5q-86 0 -137 -44t-51 -128h-103z" />
    <glyph glyph-name="uni00A0" unicode="&#xa0;" horiz-adv-x="520" 
 />
    <glyph glyph-name="exclamdown" unicode="&#xa1;" horiz-adv-x="475" 
d="M340 -340h-205l10 1159h185zM96 1212q0 61 41.5 100.5t100.5 39.5q61 0 102 -39t41 -101q0 -65 -41 -104t-102 -39q-59 0 -100.5 39.5t-41.5 103.5z" />
    <glyph glyph-name="cent" unicode="&#xa2;" horiz-adv-x="1185" 
d="M543 -143v295q-220 17 -332.5 154.5t-112.5 379.5v301q0 240 112.5 378t332.5 155v295h104v-295q212 -12 324.5 -137t120.5 -336l2 -89h-201l-2 105q-12 262 -244 283v-1020q232 21 244 282l2 103h201l-4 -86q-9 -211 -120 -336t-323 -137v-295h-104zM299 666
q0 -308 244 -338v1015q-244 -31 -244 -339v-338z" />
    <glyph glyph-name="sterling" unicode="&#xa3;" horiz-adv-x="1212" 
d="M84 147q97 77 144.5 168.5t47.5 212.5q0 39 -8 105h-184v100h162q-9 32 -33 106.5t-37 121t-25 122t-12 150.5q0 225 131.5 342t364.5 117q239 0 367 -125t128 -365v-98h-215v108q0 156 -67 232t-211 76q-283 0 -283 -293q0 -94 17 -175.5t51.5 -182.5t44.5 -136h479
v-100h-459q5 -63 5 -78q0 -116 -42.5 -207.5t-130.5 -175.5h811v-172h-1046v147z" />
    <glyph glyph-name="currency" unicode="&#xa4;" horiz-adv-x="956" 
d="M479 418q-113 0 -192 55l-123 -156l-72 66l125 158q-82 108 -82 278q0 173 82 281l-125 155l72 66l123 -156q80 56 192 56t191 -54l125 154l71 -66l-125 -157q82 -108 82 -279q0 -170 -82 -278l125 -158l-71 -66l-125 156q-76 -55 -191 -55zM238 819q0 -146 61 -228.5
t180 -82.5t180.5 82.5t61.5 228.5q0 145 -61.5 228t-180.5 83t-180 -83t-61 -228z" />
    <glyph glyph-name="yen" unicode="&#xa5;" horiz-adv-x="1245" 
d="M147 565v82h342l-454 1024h233l357 -837l354 837h231l-454 -1024h340v-82h-367v-90h367v-82h-367v-393h-213v393h-369v82h369v90h-369z" />
    <glyph glyph-name="brokenbar" unicode="&#xa6;" horiz-adv-x="393" 
d="M145 1018v665h103v-665h-103zM145 -20v663h103v-663h-103z" />
    <glyph glyph-name="section" unicode="&#xa7;" horiz-adv-x="1136" 
d="M598 -20q-131 0 -223.5 27.5t-146 81.5t-78 124.5t-27.5 167.5h102q6 -165 89.5 -242.5t283.5 -77.5q334 0 334 218q0 61 -31 107t-90 60l-530 119q-109 30 -151 86.5t-42 132.5q0 75 34.5 124.5t100.5 68.5q-121 70 -121 215q0 152 113.5 226.5t327.5 74.5
q107 0 187 -18.5t133 -51t86 -83.5t47.5 -110.5t17.5 -137.5h-105q-2 83 -20.5 139.5t-59.5 98.5t-112 61.5t-176 19.5q-336 0 -336 -215q0 -64 30 -109t91 -59l530 -121q193 -49 193 -217q0 -153 -131 -194q116 -67 116 -213q0 -303 -436 -303zM193 788q0 -57 28 -90.5
t90 -50.5l434 -92q45 -8 77.5 -9t55 11.5t35.5 25.5t20 33.5t9 34.5t2 29q0 59 -28.5 94.5t-92.5 50.5l-434 95q-101 25 -148.5 -17t-47.5 -115z" />
    <glyph glyph-name="dieresis" unicode="&#xa8;" horiz-adv-x="1009" 
d="M715 1454q-49 0 -83 29t-34 78q0 53 33.5 82.5t83.5 29.5q49 0 82.5 -29.5t33.5 -82.5q0 -49 -34 -78t-82 -29zM178 1561q0 53 33.5 82.5t83.5 29.5q48 0 82.5 -29.5t34.5 -82.5q0 -49 -35 -78t-82 -29q-49 0 -83 29t-34 78z" />
    <glyph glyph-name="copyright" unicode="&#xa9;" horiz-adv-x="1720" 
d="M860 -20q-160 0 -289.5 45.5t-217 124t-146 188t-85 233.5t-26.5 265q0 140 26.5 264t85 233.5t146 188.5t217 124.5t289.5 45.5t289.5 -45.5t217 -124.5t146 -188.5t85 -233.5t26.5 -264q0 -141 -26 -265t-84.5 -233.5t-146 -188t-217 -124t-290.5 -45.5zM203 836
q0 -130 21.5 -240t71 -206t124.5 -163t187 -105t253 -38q138 0 249 38t186.5 105.5t126 162.5t73.5 206t23 240q0 128 -23 238.5t-73.5 206t-126 163t-186.5 105.5t-249 38t-249 -38t-186.5 -105.5t-126 -163t-73 -206t-22.5 -238.5zM383 838q0 98 16.5 182.5t54 158
t93.5 126t139.5 82.5t187.5 30q95 0 171 -25.5t126.5 -69t85.5 -105t52 -128t22 -143.5h-151q-5 60 -14 104t-30 90.5t-52 75.5t-83 47.5t-122 18.5q-98 0 -167.5 -33t-107.5 -95.5t-55 -139t-17 -176.5q0 -101 16.5 -179t54 -140.5t106 -96t165.5 -33.5q71 0 124 19.5
t84 49t52 76.5t30 90t14 101h151q-6 -75 -22 -139t-49.5 -127t-83 -107t-126.5 -71t-174 -27q-130 0 -226.5 45t-153 126t-84 184t-27.5 229z" />
    <glyph glyph-name="ordfeminine" unicode="&#xaa;" horiz-adv-x="774" 
d="M526 881v118q-67 -131 -237 -131q-96 0 -152.5 51.5t-56.5 153.5q0 168 207 242l71 24q35 13 52 20t43 20t38 24.5t21.5 29t9.5 37.5v11q0 41 -31 66.5t-98 25.5q-151 0 -151 -131v-43h-142v26q0 124 72 195.5t219 71.5q273 0 273 -244v-567h-138zM221 1092
q0 -103 113 -103q74 0 126 51.5t62 141.5v137q-7 -17 -30 -33t-40.5 -23.5t-58.5 -23.5l-61 -25q-56 -21 -83.5 -49.5t-27.5 -72.5z" />
    <glyph glyph-name="guillemotleft" unicode="&#xab;" horiz-adv-x="929" 
d="M479 285l-403 348v86l403 348v-145l-291 -246l291 -246v-145zM406 633v86l403 348v-145l-291 -246l291 -246v-145z" />
    <glyph glyph-name="logicalnot" unicode="&#xac;" horiz-adv-x="1404" 
d="M1180 643v285h-1078v92h1180v-377h-102z" />
    <glyph glyph-name="registered" unicode="&#xae;" horiz-adv-x="1077" 
d="M539 766q-78 0 -138.5 26.5t-97.5 68.5t-60.5 98t-32.5 109t-9 108t9 108t32.5 109t60.5 97.5t97.5 68t138.5 26.5t138.5 -26.5t97.5 -68t60.5 -97.5t32.5 -109t9 -108t-9 -108t-32.5 -109t-60.5 -98t-97.5 -68.5t-138.5 -26.5zM86 1176q0 -71 13.5 -140.5t47 -138.5
t84 -121t130 -84.5t178.5 -32.5t178.5 32.5t129.5 84.5t83.5 121t47 138.5t13.5 140.5t-13.5 140t-47 138.5t-83.5 121t-129.5 84t-178.5 32.5t-178.5 -32.5t-130 -84t-84 -121t-47 -138.5t-13.5 -140zM346 899v563h186q48 0 84 -6.5t66.5 -23t46.5 -48.5t16 -79
q0 -109 -106 -150q53 -15 78.5 -49.5t25.5 -95.5v-52q0 -48 9 -59h-131q-11 14 -11 59v52q0 49 -18 67.5t-64 18.5h-49v-197h-133zM479 1217h53q47 0 63.5 14.5t16.5 48.5q0 37 -19 49t-61 12h-53v-124z" />
    <glyph glyph-name="macron" unicode="&#xaf;" horiz-adv-x="1206" 
d="M205 1528v82h796v-82h-796z" />
    <glyph glyph-name="degree" unicode="&#xb0;" horiz-adv-x="720" 
d="M360 1169q-89 0 -130.5 58t-41.5 157t41.5 157t130.5 58t130.5 -58t41.5 -157t-41.5 -157t-130.5 -58zM86 1384q0 -61 15.5 -114t46.5 -97.5t85.5 -70t126.5 -25.5t126.5 25.5t86 70t47 97.5t15.5 114t-15.5 114.5t-47 97.5t-86 70t-126.5 26t-126.5 -26t-85.5 -70
t-46.5 -97.5t-15.5 -114.5z" />
    <glyph glyph-name="plusminus" unicode="&#xb1;" horiz-adv-x="1347" 
d="M725 1251v-372h537v-93h-537v-286h537v-90h-1176v90h537v286h-537v93h537v372h102z" />
    <glyph glyph-name="uni00B2" unicode="&#xb2;" horiz-adv-x="657" 
d="M55 827q0 109 44 181.5t155 115.5l90 37q66 26 95.5 61.5t29.5 96.5v14q0 57 -32 81t-99 24q-74 0 -107.5 -29.5t-33.5 -99.5v-45h-136v32q0 254 275 254q131 0 199.5 -59.5t68.5 -177.5q0 -185 -180 -252l-102 -45q-84 -31 -108 -71.5t-24 -127.5h412v-112h-547v122z
" />
    <glyph glyph-name="uni00B3" unicode="&#xb3;" horiz-adv-x="653" 
d="M324 694q-139 0 -206.5 58.5t-68.5 185.5v31h133v-43q1 -67 35.5 -94t104.5 -27q74 0 106.5 26t32.5 84v54q0 63 -34.5 85.5t-100.5 22.5h-97v111h97q62 0 95.5 22t33.5 78v47q0 57 -33 81t-100 24q-65 0 -98 -26t-34 -89v-39h-133v27q3 122 69 179.5t198 57.5
q73 0 126.5 -19t82 -51.5t42 -69t13.5 -77.5v-18q0 -67 -30.5 -114t-86.5 -64q59 -17 91 -66t32 -123v-22q0 -232 -270 -232z" />
    <glyph glyph-name="acute" unicode="&#xb4;" horiz-adv-x="1157" 
d="M225 1470l-20 78l727 152l20 -80z" />
    <glyph glyph-name="paragraph" unicode="&#xb6;" horiz-adv-x="884" 
d="M637 1671h102v-1671h-102v1671zM45 1307q0 111 20 182.5t66.5 111.5t108.5 55t159 15h103v-1671h-103v944q-97 0 -159.5 15t-108.5 55t-66 111t-20 182z" />
    <glyph glyph-name="periodcentered" unicode="&#xb7;" horiz-adv-x="462" 
d="M233 551q-61 0 -102 38.5t-41 100.5q0 65 41 104.5t102 39.5q59 0 100.5 -40t41.5 -104q0 -61 -41.5 -100t-100.5 -39z" />
    <glyph glyph-name="cedilla" unicode="&#xb8;" horiz-adv-x="784" 
d="M207 -336q142 0 200 14.5t58 61.5q0 49 -57 58.5t-164 -7.5l49 209h96l-33 -129q224 27 224 -127q0 -93 -88.5 -130.5t-286.5 -37.5z" />
    <glyph glyph-name="uni00B9" unicode="&#xb9;" horiz-adv-x="536" 
d="M53 817h166v574q-63 -60 -168 -60v121q120 0 178 88h121v-723h166v-112h-463v112z" />
    <glyph glyph-name="ordmasculine" unicode="&#xba;" horiz-adv-x="759" 
d="M381 868q-149 0 -224 84t-75 240v176q0 156 75 240t224 84q147 0 222 -84t75 -240v-176q0 -156 -75 -240t-222 -84zM225 1176q0 -189 156 -189q154 0 154 189v208q0 189 -154 189q-156 0 -156 -189v-208z" />
    <glyph glyph-name="guillemotright" unicode="&#xbb;" horiz-adv-x="925" 
d="M446 285v145l293 246l-293 246v145l404 -348v-86zM119 285v145l293 246l-293 246v145l403 -348v-86z" />
    <glyph glyph-name="onequarter" unicode="&#xbc;" horiz-adv-x="1583" 
d="M70 948h166v574q-63 -60 -168 -60v121q120 0 178 88h121v-723h165v-112h-462v112zM305 0l825 1671h103l-827 -1671h-101zM981 158v123l352 555h129v-564h78v-114h-78v-158h-133v158h-348zM1092 272h237v363z" />
    <glyph glyph-name="onehalf" unicode="&#xbd;" horiz-adv-x="1658" 
d="M72 948h166v574q-63 -60 -168 -60v121q120 0 178 88h121v-723h166v-112h-463v112zM305 0l828 1671h100l-825 -1671h-103zM1047 0v123q0 109 43.5 181.5t154.5 115.5l90 37q66 26 95.5 61t29.5 96v15q0 57 -32 80.5t-99 23.5q-74 0 -107.5 -29.5t-33.5 -99.5v-45h-135v33
q0 254 274 254q131 0 199.5 -60t68.5 -178q0 -185 -180 -252l-102 -45q-83 -31 -107 -71t-24 -127h411v-113h-546z" />
    <glyph glyph-name="threequarters" unicode="&#xbe;" horiz-adv-x="1683" 
d="M336 825q-139 0 -206.5 58.5t-68.5 185.5v31h134v-43q1 -68 35 -94.5t104 -26.5q74 0 106.5 26.5t32.5 84.5v53q0 63 -34.5 85.5t-100.5 22.5h-96v111h96q62 0 95.5 22t33.5 78v47q0 57 -33 81t-100 24q-65 0 -97.5 -26t-33.5 -89v-39h-133v27q3 122 68.5 179.5
t197.5 57.5q73 0 126.5 -19t82 -51.5t42 -69t13.5 -77.5v-18q0 -67 -30.5 -114t-86.5 -64q59 -17 91 -66t32 -123v-22q0 -232 -270 -232zM403 0l826 1671h100l-825 -1671h-101zM1079 158v123l353 555h129v-564h77v-114h-77v-158h-134v158h-348zM1190 272h237v363z" />
    <glyph glyph-name="questiondown" unicode="&#xbf;" horiz-adv-x="1026" 
d="M508 -360q-122 0 -213.5 32t-145 89.5t-79 129t-25.5 158.5q0 78 22 143.5t57 111.5t77 88.5t84.5 85t77.5 89.5t57 113.5t22 146.5v27h191v-33q0 -94 -20.5 -171t-54 -129.5t-73.5 -97.5t-79.5 -84.5t-73 -80.5t-54 -95.5t-20.5 -119.5q0 -231 252 -231
q141 0 200.5 74.5t59.5 215.5v80h215v-55q0 -83 -15.5 -154t-51.5 -133t-90 -106t-135.5 -69t-184.5 -25zM395 1212q0 61 41.5 100.5t100.5 39.5q61 0 102 -39t41 -101q0 -65 -41 -104t-102 -39q-59 0 -100.5 39.5t-41.5 103.5z" />
    <glyph glyph-name="Agrave" unicode="&#xc0;" horiz-adv-x="1206" 
d="M27 0l432 1671h286l435 -1671h-222l-79 330h-551l-80 -330h-221zM205 1944l20 79l776 -151l-20 -78zM371 512h465l-226 930l-8 24l-6 -22z" />
    <glyph glyph-name="Aacute" unicode="&#xc1;" horiz-adv-x="1206" 
d="M27 0l432 1671h286l435 -1671h-222l-79 330h-551l-80 -330h-221zM229 1888l727 152l21 -80l-727 -150zM371 512h465l-226 930l-8 24l-6 -22z" />
    <glyph glyph-name="Acircumflex" unicode="&#xc2;" horiz-adv-x="1206" 
d="M27 0l432 1671h286l435 -1671h-222l-79 330h-551l-80 -330h-221zM268 1802l267 246h143l260 -246h-147l-185 178l-192 -178h-146zM371 512h465l-226 930l-8 24l-6 -22z" />
    <glyph glyph-name="Atilde" unicode="&#xc3;" horiz-adv-x="1206" 
d="M27 0l432 1671h286l435 -1671h-222l-79 330h-551l-80 -330h-221zM233 1810q0 111 55.5 164.5t149.5 53.5q51 0 91 -15.5t65 -38t48 -45t52.5 -38t65.5 -15.5q110 0 110 131h103q0 -112 -57 -164.5t-152 -52.5q-53 0 -94 15.5t-66.5 38t-48 45t-51 38t-62.5 15.5
q-53 0 -79.5 -35.5t-26.5 -96.5h-103zM371 512h465l-226 930l-8 24l-6 -22z" />
    <glyph glyph-name="Adieresis" unicode="&#xc4;" horiz-adv-x="1206" 
d="M27 0l432 1671h286l435 -1671h-222l-79 330h-551l-80 -330h-221zM276 1901q0 53 33.5 82.5t83.5 29.5q48 0 82.5 -29.5t34.5 -82.5q0 -49 -35 -78t-82 -29q-49 0 -83 29t-34 78zM371 512h465l-226 930l-8 24l-6 -22zM696 1901q0 53 33.5 82.5t83.5 29.5q49 0 83 -29.5
t34 -82.5q0 -49 -34.5 -78t-82.5 -29q-49 0 -83 29t-34 78z" />
    <glyph glyph-name="Aring" unicode="&#xc5;" horiz-adv-x="1206" 
d="M27 0l432 1671h286l435 -1671h-222l-79 330h-551l-80 -330h-221zM371 512h465l-226 930l-8 24l-6 -22zM438 1929q0 71 49.5 118.5t116.5 47.5t116.5 -47.5t49.5 -118.5t-49.5 -118.5t-116.5 -47.5t-116.5 47.5t-49.5 118.5zM524 1929q0 -37 21 -58.5t59 -21.5t59 21.5
t21 58.5t-21 58.5t-59 21.5t-59 -21.5t-21 -58.5z" />
    <glyph glyph-name="AE" unicode="&#xc6;" horiz-adv-x="1615" 
d="M6 0l524 1671h996v-182h-541v-561h510v-185h-510v-561h541v-182h-754v348h-440l-107 -348h-219zM387 530h385v959h-90z" />
    <glyph glyph-name="Ccedilla" unicode="&#xc7;" horiz-adv-x="1323" 
d="M535 -336q142 0 200 14.5t58 61.5q0 49 -57.5 58.5t-164.5 -7.5l45 191q-257 18 -390.5 184.5t-133.5 435.5v471q0 184 63 321.5t195.5 217.5t323.5 80q267 0 411.5 -148.5t153.5 -398.5l2 -160h-221l-2 193q-4 160 -93.5 245.5t-248.5 85.5q-179 0 -272 -105t-93 -298
v-539q0 -195 92.5 -300t270.5 -105q163 0 251.5 85.5t92.5 248.5l2 192h221l-2 -158q-9 -242 -143.5 -390t-382.5 -160l-29 -109q223 27 223 -127q0 -93 -88.5 -130.5t-286.5 -37.5z" />
    <glyph glyph-name="Egrave" unicode="&#xc8;" horiz-adv-x="1120" 
d="M141 0v1671h891v-182h-678v-561h643v-185h-643v-561h678v-182h-891zM188 1944l21 79l776 -151l-20 -78z" />
    <glyph glyph-name="Eacute" unicode="&#xc9;" horiz-adv-x="1120" 
d="M141 0v1671h891v-182h-678v-561h643v-185h-643v-561h678v-182h-891zM213 1888l727 152l21 -80l-728 -150z" />
    <glyph glyph-name="Ecircumflex" unicode="&#xca;" horiz-adv-x="1120" 
d="M141 0v1671h891v-182h-678v-561h643v-185h-643v-561h678v-182h-891zM252 1802l266 246h144l260 -246h-148l-184 178l-193 -178h-145z" />
    <glyph glyph-name="Edieresis" unicode="&#xcb;" horiz-adv-x="1120" 
d="M141 0v1671h891v-182h-678v-561h643v-185h-643v-561h678v-182h-891zM260 1901q0 53 33.5 82.5t83.5 29.5q48 0 82.5 -29.5t34.5 -82.5q0 -49 -35 -78t-82 -29q-49 0 -83 29t-34 78zM680 1901q0 53 33.5 82.5t83.5 29.5q49 0 82.5 -29.5t33.5 -82.5q0 -49 -34 -78t-82 -29
q-49 0 -83 29t-34 78z" />
    <glyph glyph-name="Igrave" unicode="&#xcc;" horiz-adv-x="829" 
d="M92 0v193h215v1286h-215v192h643v-192h-213v-1286h213v-193h-643zM14 1944l21 79l776 -151l-20 -78z" />
    <glyph glyph-name="Iacute" unicode="&#xcd;" horiz-adv-x="829" 
d="M92 0v193h215v1286h-215v192h643v-192h-213v-1286h213v-193h-643zM39 1888l727 152l20 -80l-727 -150z" />
    <glyph glyph-name="Icircumflex" unicode="&#xce;" horiz-adv-x="829" 
d="M92 0v193h215v1286h-215v192h643v-192h-213v-1286h213v-193h-643zM80 1802l266 246h143l261 -246h-148l-184 178l-193 -178h-145z" />
    <glyph glyph-name="Idieresis" unicode="&#xcf;" horiz-adv-x="829" 
d="M92 0v193h215v1286h-215v192h643v-192h-213v-1286h213v-193h-643zM86 1901q0 53 33.5 82.5t83.5 29.5q48 0 82 -29.5t34 -82.5q0 -49 -34.5 -78t-81.5 -29q-49 0 -83 29t-34 78zM506 1901q0 53 33.5 82.5t83.5 29.5q49 0 82.5 -29.5t33.5 -82.5q0 -49 -34 -78t-82 -29
q-49 0 -83 29t-34 78z" />
    <glyph glyph-name="Eth" unicode="&#xd0;" horiz-adv-x="1404" 
d="M219 0v784h-190v117h190v770h510q144 0 248.5 -31t180.5 -100t113.5 -187t37.5 -286v-463q0 -168 -37.5 -285.5t-114 -187t-181 -100.5t-247.5 -31h-510zM432 176h297q195 0 278 92t83 316v503q0 224 -83 316t-280 92h-295v-594h389v-117h-389v-608z" />
    <glyph glyph-name="Ntilde" unicode="&#xd1;" horiz-adv-x="1359" 
d="M141 0v1671h203l674 -1243v1243h201v-1671h-203l-674 1243v-1243h-201zM309 1810q0 111 55.5 164.5t149.5 53.5q51 0 91 -15.5t65 -38t48 -45t52.5 -38t65.5 -15.5q110 0 110 131h103q0 -112 -57 -164.5t-152 -52.5q-53 0 -94 15.5t-66.5 38t-48 45t-51 38t-62.5 15.5
q-53 0 -79.5 -35.5t-26.5 -96.5h-103z" />
    <glyph glyph-name="Ograve" unicode="&#xd2;" horiz-adv-x="1345" 
d="M674 -20q-143 0 -254.5 46t-183 128.5t-108 195.5t-36.5 250v473q0 136 36.5 248.5t108 195.5t183 129t254.5 46q189 0 321 -80.5t195 -218t63 -320.5v-473q0 -137 -36.5 -250t-107.5 -195.5t-182 -128.5t-253 -46zM274 1944l21 79l776 -151l-20 -78zM311 567
q0 -193 92.5 -298t270.5 -105q176 0 268 105t92 298v537q0 192 -92 297.5t-268 105.5q-178 0 -270.5 -105.5t-92.5 -297.5v-537z" />
    <glyph glyph-name="Oacute" unicode="&#xd3;" horiz-adv-x="1345" 
d="M674 -20q-143 0 -254.5 46t-183 128.5t-108 195.5t-36.5 250v473q0 136 36.5 248.5t108 195.5t183 129t254.5 46q189 0 321 -80.5t195 -218t63 -320.5v-473q0 -137 -36.5 -250t-107.5 -195.5t-182 -128.5t-253 -46zM299 1888l727 152l21 -80l-728 -150zM311 567
q0 -193 92.5 -298t270.5 -105q176 0 268 105t92 298v537q0 192 -92 297.5t-268 105.5q-178 0 -270.5 -105.5t-92.5 -297.5v-537z" />
    <glyph glyph-name="Ocircumflex" unicode="&#xd4;" horiz-adv-x="1345" 
d="M674 -20q-143 0 -254.5 46t-183 128.5t-108 195.5t-36.5 250v473q0 136 36.5 248.5t108 195.5t183 129t254.5 46q189 0 321 -80.5t195 -218t63 -320.5v-473q0 -137 -36.5 -250t-107.5 -195.5t-182 -128.5t-253 -46zM311 567q0 -193 92.5 -298t270.5 -105q176 0 268 105
t92 298v537q0 192 -92 297.5t-268 105.5q-178 0 -270.5 -105.5t-92.5 -297.5v-537zM338 1802l266 246h144l260 -246h-148l-184 178l-193 -178h-145z" />
    <glyph glyph-name="Otilde" unicode="&#xd5;" horiz-adv-x="1345" 
d="M674 -20q-143 0 -254.5 46t-183 128.5t-108 195.5t-36.5 250v473q0 136 36.5 248.5t108 195.5t183 129t254.5 46q189 0 321 -80.5t195 -218t63 -320.5v-473q0 -137 -36.5 -250t-107.5 -195.5t-182 -128.5t-253 -46zM303 1810q0 111 55.5 164.5t149.5 53.5
q51 0 90.5 -15.5t65 -38t48 -45t52 -38t65.5 -15.5q111 0 111 131h102q0 -112 -56.5 -164.5t-151.5 -52.5q-53 0 -94 15.5t-66.5 38t-48 45t-51 38t-62.5 15.5q-53 0 -79.5 -35.5t-26.5 -96.5h-103zM311 567q0 -193 92.5 -298t270.5 -105q176 0 268 105t92 298v537
q0 192 -92 297.5t-268 105.5q-178 0 -270.5 -105.5t-92.5 -297.5v-537z" />
    <glyph glyph-name="Odieresis" unicode="&#xd6;" horiz-adv-x="1345" 
d="M674 -20q-143 0 -254.5 46t-183 128.5t-108 195.5t-36.5 250v473q0 136 36.5 248.5t108 195.5t183 129t254.5 46q189 0 321 -80.5t195 -218t63 -320.5v-473q0 -137 -36.5 -250t-107.5 -195.5t-182 -128.5t-253 -46zM311 567q0 -193 92.5 -298t270.5 -105q176 0 268 105
t92 298v537q0 192 -92 297.5t-268 105.5q-178 0 -270.5 -105.5t-92.5 -297.5v-537zM346 1901q0 53 33.5 82.5t83.5 29.5q48 0 82.5 -29.5t34.5 -82.5q0 -49 -35 -78t-82 -29q-49 0 -83 29t-34 78zM766 1901q0 53 33.5 82.5t83.5 29.5q49 0 82.5 -29.5t33.5 -82.5
q0 -49 -34 -78t-82 -29q-49 0 -83 29t-34 78z" />
    <glyph glyph-name="multiply" unicode="&#xd7;" horiz-adv-x="1040" 
d="M135 1276l383 -383l387 387l62 -63l-385 -386l385 -385l-62 -63l-385 387l-385 -385l-61 64l383 382l-383 383z" />
    <glyph glyph-name="Oslash" unicode="&#xd8;" horiz-adv-x="1345" 
d="M674 -20q-208 0 -344 94l-43 -78h-140l89 160q-144 167 -144 444v473q0 136 36.5 248.5t108 195.5t183 129t254.5 46q204 0 344 -95l41 78h139l-86 -159q141 -167 141 -443v-473q0 -137 -36.5 -250t-107.5 -195.5t-182 -128.5t-253 -46zM311 567q0 -118 35 -205l576 1059
q-92 86 -248 86q-178 0 -270.5 -105.5t-92.5 -297.5v-537zM424 248q90 -84 250 -84q176 0 268 105t92 298v537q0 118 -35 205z" />
    <glyph glyph-name="Ugrave" unicode="&#xd9;" horiz-adv-x="1331" 
d="M666 -20q-283 0 -409 132t-126 418v1141h215v-1171q0 -100 20.5 -166.5t63.5 -104t99 -52.5t137 -15t137 15t98.5 52.5t63 104t20.5 166.5v1171h215v-1141q0 -287 -126.5 -418.5t-407.5 -131.5zM266 1944l21 79l776 -151l-21 -78z" />
    <glyph glyph-name="Uacute" unicode="&#xda;" horiz-adv-x="1331" 
d="M666 -20q-283 0 -409 132t-126 418v1141h215v-1171q0 -100 20.5 -166.5t63.5 -104t99 -52.5t137 -15t137 15t98.5 52.5t63 104t20.5 166.5v1171h215v-1141q0 -287 -126.5 -418.5t-407.5 -131.5zM291 1888l727 152l20 -80l-727 -150z" />
    <glyph glyph-name="Ucircumflex" unicode="&#xdb;" horiz-adv-x="1331" 
d="M666 -20q-283 0 -409 132t-126 418v1141h215v-1171q0 -100 20.5 -166.5t63.5 -104t99 -52.5t137 -15t137 15t98.5 52.5t63 104t20.5 166.5v1171h215v-1141q0 -287 -126.5 -418.5t-407.5 -131.5zM330 1802l266 246h143l260 -246h-147l-184 178l-193 -178h-145z" />
    <glyph glyph-name="Udieresis" unicode="&#xdc;" horiz-adv-x="1331" 
d="M666 -20q-283 0 -409 132t-126 418v1141h215v-1171q0 -100 20.5 -166.5t63.5 -104t99 -52.5t137 -15t137 15t98.5 52.5t63 104t20.5 166.5v1171h215v-1141q0 -287 -126.5 -418.5t-407.5 -131.5zM338 1901q0 53 33.5 82.5t83.5 29.5q48 0 82 -29.5t34 -82.5
q0 -49 -34.5 -78t-81.5 -29q-49 0 -83 29t-34 78zM758 1901q0 53 33 82.5t83 29.5q49 0 83 -29.5t34 -82.5q0 -49 -34.5 -78t-82.5 -29q-49 0 -82.5 29t-33.5 78z" />
    <glyph glyph-name="Yacute" unicode="&#xdd;" horiz-adv-x="1193" 
d="M489 0v586l-481 1085h234l356 -837l354 837h232l-482 -1085v-586h-213zM221 1888l727 152l21 -80l-727 -150z" />
    <glyph glyph-name="Thorn" unicode="&#xde;" horiz-adv-x="1296" 
d="M141 0v1671h209v-287h355q267 0 389.5 -125t122.5 -399v-41q0 -273 -122.5 -401.5t-389.5 -128.5h-355v-289h-209zM350 471h363q150 0 217 74.5t67 240.5v111q0 164 -66.5 234.5t-217.5 70.5h-363v-731z" />
    <glyph glyph-name="germandbls" unicode="&#xdf;" horiz-adv-x="1193" 
d="M127 0v1251q0 218 116 329.5t363 111.5q241 0 358 -104.5t117 -299.5v-55q0 -281 -223 -356q260 -69 260 -392v-45q0 -440 -444 -440h-238v174h189q153 0 218.5 59.5t65.5 210.5v72q0 59 -12.5 103t-44.5 82.5t-93 58.5t-151 20l-172 2v174h162q156 0 218.5 59t62.5 187
v82q0 126 -67 181t-206 55q-142 0 -207 -60t-65 -207v-1253h-207z" />
    <glyph glyph-name="agrave" unicode="&#xe0;" horiz-adv-x="1142" 
d="M823 0v209q-55 -117 -160 -173t-241 -56q-162 0 -257 83.5t-95 255.5q0 280 342 400l123 41q42 16 61.5 23.5t56.5 23t55 27t43.5 30t37.5 36t21 41t9 50.5v15q0 76 -55.5 124t-177.5 48q-134 0 -204.5 -61.5t-70.5 -180.5v-70h-207v49q0 198 118 317.5t362 119.5
q440 0 440 -391v-961h-201zM172 1604l21 79l776 -151l-21 -78zM279 342q0 -184 204 -184q146 0 241 104.5t95 286.5v215q-9 -25 -29.5 -46.5t-52.5 -39.5t-62.5 -32t-73.5 -31q-9 -3 -13 -5l-107 -41q-100 -38 -151 -91t-51 -136z" />
    <glyph glyph-name="aacute" unicode="&#xe1;" horiz-adv-x="1142" 
d="M823 0v209q-55 -117 -160 -173t-241 -56q-162 0 -257 83.5t-95 255.5q0 280 342 400l123 41q42 16 61.5 23.5t56.5 23t55 27t43.5 30t37.5 36t21 41t9 50.5v15q0 76 -55.5 124t-177.5 48q-134 0 -204.5 -61.5t-70.5 -180.5v-70h-207v49q0 198 118 317.5t362 119.5
q440 0 440 -391v-961h-201zM197 1548l727 152l20 -80l-727 -150zM279 342q0 -184 204 -184q146 0 241 104.5t95 286.5v215q-9 -25 -29.5 -46.5t-52.5 -39.5t-62.5 -32t-73.5 -31q-9 -3 -13 -5l-107 -41q-100 -38 -151 -91t-51 -136z" />
    <glyph glyph-name="acircumflex" unicode="&#xe2;" horiz-adv-x="1142" 
d="M823 0v209q-55 -117 -160 -173t-241 -56q-162 0 -257 83.5t-95 255.5q0 280 342 400l123 41q42 16 61.5 23.5t56.5 23t55 27t43.5 30t37.5 36t21 41t9 50.5v15q0 76 -55.5 124t-177.5 48q-134 0 -204.5 -61.5t-70.5 -180.5v-70h-207v49q0 198 118 317.5t362 119.5
q440 0 440 -391v-961h-201zM238 1462l266 246h143l260 -246h-147l-185 178l-192 -178h-145zM279 342q0 -184 204 -184q146 0 241 104.5t95 286.5v215q-9 -25 -29.5 -46.5t-52.5 -39.5t-62.5 -32t-73.5 -31q-9 -3 -13 -5l-107 -41q-100 -38 -151 -91t-51 -136z" />
    <glyph glyph-name="atilde" unicode="&#xe3;" horiz-adv-x="1142" 
d="M823 0v209q-55 -117 -160 -173t-241 -56q-162 0 -257 83.5t-95 255.5q0 280 342 400l123 41q42 16 61.5 23.5t56.5 23t55 27t43.5 30t37.5 36t21 41t9 50.5v15q0 76 -55.5 124t-177.5 48q-134 0 -204.5 -61.5t-70.5 -180.5v-70h-207v49q0 198 118 317.5t362 119.5
q440 0 440 -391v-961h-201zM201 1470q0 111 55.5 164.5t149.5 53.5q51 0 90.5 -15.5t65 -38t48 -45t52 -38t65.5 -15.5q111 0 111 131h102q0 -112 -57 -164.5t-152 -52.5q-53 0 -93.5 15.5t-66 38t-48 45t-51 38t-62.5 15.5q-54 0 -80.5 -35.5t-26.5 -96.5h-102zM279 342
q0 -184 204 -184q146 0 241 104.5t95 286.5v215q-9 -25 -29.5 -46.5t-52.5 -39.5t-62.5 -32t-73.5 -31q-9 -3 -13 -5l-107 -41q-100 -38 -151 -91t-51 -136z" />
    <glyph glyph-name="adieresis" unicode="&#xe4;" horiz-adv-x="1142" 
d="M823 0v209q-55 -117 -160 -173t-241 -56q-162 0 -257 83.5t-95 255.5q0 280 342 400l123 41q42 16 61.5 23.5t56.5 23t55 27t43.5 30t37.5 36t21 41t9 50.5v15q0 76 -55.5 124t-177.5 48q-134 0 -204.5 -61.5t-70.5 -180.5v-70h-207v49q0 198 118 317.5t362 119.5
q440 0 440 -391v-961h-201zM244 1561q0 53 33 82.5t83 29.5q48 0 82.5 -29.5t34.5 -82.5q0 -49 -35 -78t-82 -29q-49 0 -82.5 29t-33.5 78zM279 342q0 -184 204 -184q146 0 241 104.5t95 286.5v215q-9 -25 -29.5 -46.5t-52.5 -39.5t-62.5 -32t-73.5 -31q-9 -3 -13 -5
l-107 -41q-100 -38 -151 -91t-51 -136zM664 1561q0 53 33 82.5t83 29.5q49 0 83 -29.5t34 -82.5q0 -49 -34.5 -78t-82.5 -29q-49 0 -82.5 29t-33.5 78z" />
    <glyph glyph-name="aring" unicode="&#xe5;" horiz-adv-x="1142" 
d="M823 0v209q-55 -117 -160 -173t-241 -56q-162 0 -257 83.5t-95 255.5q0 280 342 400l123 41q42 16 61.5 23.5t56.5 23t55 27t43.5 30t37.5 36t21 41t9 50.5v15q0 76 -55.5 124t-177.5 48q-134 0 -204.5 -61.5t-70.5 -180.5v-70h-207v49q0 198 118 317.5t362 119.5
q440 0 440 -391v-961h-201zM279 342q0 -184 204 -184q146 0 241 104.5t95 286.5v215q-9 -25 -29.5 -46.5t-52.5 -39.5t-62.5 -32t-73.5 -31q-9 -3 -13 -5l-107 -41q-100 -38 -151 -91t-51 -136zM406 1589q0 71 49 118.5t116 47.5t116.5 -47.5t49.5 -118.5t-49.5 -118.5
t-116.5 -47.5t-116 47.5t-49 118.5zM492 1589q0 -37 20.5 -58.5t58.5 -21.5t59 21.5t21 58.5t-21 58.5t-59 21.5t-58.5 -21.5t-20.5 -58.5z" />
    <glyph glyph-name="ae" unicode="&#xe6;" horiz-adv-x="1779" 
d="M446 -20q-176 0 -280.5 87t-104.5 261q0 83 24.5 147.5t74.5 112t111 82t149 67.5l131 33q53 17 87.5 32.5t68 40.5t49.5 61t16 85q0 86 -57.5 138.5t-163.5 52.5q-121 0 -182.5 -70t-61.5 -203v-35h-205v29q0 63 12.5 123t44.5 120.5t80.5 105.5t126.5 73.5t177 28.5
q246 0 346 -172q117 172 354 172q217 0 336 -133.5t119 -387.5v-206h-731v-117q0 -178 68.5 -266t197.5 -88q220 0 244 260v24h215v-24q-18 -203 -134 -318.5t-319 -115.5q-140 0 -231.5 55t-147.5 162q-126 -217 -414 -217zM268 334q0 -84 56 -136.5t157 -52.5
q122 0 200.5 61.5t90.5 172.5v344q-37 -57 -190 -113l-138 -41q-176 -73 -176 -235zM967 780h520v90q-11 308 -256 308q-264 0 -264 -351v-47z" />
    <glyph glyph-name="ccedilla" unicode="&#xe7;" horiz-adv-x="1128" 
d="M844 899q-9 279 -266 279q-142 0 -213.5 -83.5t-71.5 -256.5v-346q0 -338 285 -338q129 0 194.5 69.5t71.5 208.5l2 109h211l-4 -86q-9 -211 -116.5 -336t-313.5 -137l-29 -111q223 27 223 -127q0 -93 -88.5 -130.5t-286.5 -37.5l2 88q142 0 200 14.5t58 61.5
q0 49 -57 58.5t-164 -7.5l45 191q-221 13 -332.5 150.5t-111.5 383.5v301q0 257 124 396t369 139q229 0 350.5 -126t129.5 -349l2 -89h-211z" />
    <glyph glyph-name="egrave" unicode="&#xe8;" horiz-adv-x="1138" 
d="M969 1532l-21 -78l-776 150l21 79zM82 514v303q0 257 125 396t371 139q234 0 356.5 -133.5t122.5 -393.5v-200h-764v-133q0 -338 285 -338q122 0 184 59.5t69 183.5l3 47h215v-24q-12 -210 -130 -325t-341 -115q-247 0 -371.5 138t-124.5 396zM293 778h551v109
q-4 153 -73 222t-196 69q-282 0 -282 -338v-62z" />
    <glyph glyph-name="eacute" unicode="&#xe9;" horiz-adv-x="1138" 
d="M217 1470l-20 78l727 152l20 -80zM82 514v303q0 257 125 396t371 139q234 0 356.5 -133.5t122.5 -393.5v-200h-764v-133q0 -338 285 -338q122 0 184 59.5t69 183.5l3 47h215v-24q-12 -210 -130 -325t-341 -115q-247 0 -371.5 138t-124.5 396zM293 778h551v109
q-4 153 -73 222t-196 69q-282 0 -282 -338v-62z" />
    <glyph glyph-name="ecircumflex" unicode="&#xea;" horiz-adv-x="1138" 
d="M238 1462l266 246h143l260 -246h-147l-185 178l-192 -178h-145zM82 514v303q0 257 125 396t371 139q234 0 356.5 -133.5t122.5 -393.5v-200h-764v-133q0 -338 285 -338q122 0 184 59.5t69 183.5l3 47h215v-24q-12 -210 -130 -325t-341 -115q-247 0 -371.5 138t-124.5 396
zM293 778h551v109q-4 153 -73 222t-196 69q-282 0 -282 -338v-62z" />
    <glyph glyph-name="edieresis" unicode="&#xeb;" horiz-adv-x="1138" 
d="M780 1454q-49 0 -82.5 29t-33.5 78q0 53 33 82.5t83 29.5q49 0 83 -29.5t34 -82.5q0 -49 -34.5 -78t-82.5 -29zM82 514v303q0 257 125 396t371 139q234 0 356.5 -133.5t122.5 -393.5v-200h-764v-133q0 -338 285 -338q122 0 184 59.5t69 183.5l3 47h215v-24
q-12 -210 -130 -325t-341 -115q-247 0 -371.5 138t-124.5 396zM244 1561q0 53 33 82.5t83 29.5q48 0 82.5 -29.5t34.5 -82.5q0 -49 -35 -78t-82 -29q-49 0 -82.5 29t-33.5 78zM293 778h551v109q-4 153 -73 222t-196 69q-282 0 -282 -338v-62z" />
    <glyph glyph-name="igrave" unicode="&#xec;" horiz-adv-x="460" 
d="M127 1331h207v-1331h-207v1331zM-51 1606l26 77l537 -153l-25 -76z" />
    <glyph glyph-name="iacute" unicode="&#xed;" horiz-adv-x="460" 
d="M127 1331h207v-1331h-207v1331zM-51 1530l536 153l27 -77l-539 -152z" />
    <glyph glyph-name="icircumflex" unicode="&#xee;" horiz-adv-x="460" 
d="M127 1331h207v-1331h-207v1331zM-8 1454l174 229h131l172 -229h-117l-121 158l-122 -158h-117z" />
    <glyph glyph-name="idieresis" unicode="&#xef;" horiz-adv-x="460" 
d="M127 1331h207v-1331h-207v1331zM-39 1556q0 44 28 71.5t68 27.5t69.5 -27.5t29.5 -71.5q0 -41 -29.5 -68.5t-69.5 -27.5q-39 0 -67.5 27t-28.5 69zM317 1556q0 44 29 71.5t70 27.5q39 0 67.5 -27.5t28.5 -71.5q0 -41 -29 -68.5t-67 -27.5q-41 0 -70 27t-29 69z" />
    <glyph glyph-name="eth" unicode="&#xf0;" horiz-adv-x="1118" 
d="M561 -20q-238 0 -362.5 120.5t-124.5 356.5v131q0 201 110.5 327.5t323.5 126.5q210 0 307 -137q-53 259 -254 420l-409 -192v129l299 141q-123 73 -293 137l61 154q254 -83 422 -203l350 166v-129l-250 -119q153 -142 224 -332.5t71 -439.5v-119q0 -283 -118 -410.5
t-357 -127.5zM283 449q0 -154 66.5 -224.5t205.5 -70.5q145 0 208.5 71.5t63.5 225.5v124q0 86 -20 145t-57.5 90.5t-82.5 44.5t-104 13q-143 0 -211.5 -69t-68.5 -215v-135z" />
    <glyph glyph-name="ntilde" unicode="&#xf1;" 
d="M334 1331v-188q47 89 134 149t220 60q182 0 275.5 -117t93.5 -332v-903h-205v887q0 291 -240 291q-72 0 -126.5 -24.5t-85 -66t-46 -85.5t-20.5 -93v-909h-207v1331h207zM229 1470q0 111 55.5 164.5t149.5 53.5q51 0 91 -15.5t65 -38t48 -45t52.5 -38t65.5 -15.5
q110 0 110 131h103q0 -112 -57 -164.5t-152 -52.5q-53 0 -94 15.5t-66.5 38t-48 45t-51 38t-62.5 15.5q-53 0 -79.5 -35.5t-26.5 -96.5h-103z" />
    <glyph glyph-name="ograve" unicode="&#xf2;" horiz-adv-x="1142" 
d="M571 -20q-243 0 -365 138.5t-122 397.5v299q0 258 122.5 397.5t364.5 139.5t365 -139.5t123 -397.5v-299q0 -259 -122.5 -397.5t-365.5 -138.5zM172 1604l21 79l776 -151l-21 -78zM293 494q0 -174 69 -257t209 -83q279 0 279 340v344q0 340 -279 340q-140 0 -209 -83
t-69 -257v-344z" />
    <glyph glyph-name="oacute" unicode="&#xf3;" horiz-adv-x="1142" 
d="M571 -20q-243 0 -365 138.5t-122 397.5v299q0 258 122.5 397.5t364.5 139.5t365 -139.5t123 -397.5v-299q0 -259 -122.5 -397.5t-365.5 -138.5zM197 1548l727 152l20 -80l-727 -150zM293 494q0 -174 69 -257t209 -83q279 0 279 340v344q0 340 -279 340q-140 0 -209 -83
t-69 -257v-344z" />
    <glyph glyph-name="ocircumflex" unicode="&#xf4;" horiz-adv-x="1142" 
d="M571 -20q-243 0 -365 138.5t-122 397.5v299q0 258 122.5 397.5t364.5 139.5t365 -139.5t123 -397.5v-299q0 -259 -122.5 -397.5t-365.5 -138.5zM236 1462l266 246h143l260 -246h-147l-185 178l-192 -178h-145zM293 494q0 -174 69 -257t209 -83q279 0 279 340v344
q0 340 -279 340q-140 0 -209 -83t-69 -257v-344z" />
    <glyph glyph-name="otilde" unicode="&#xf5;" horiz-adv-x="1142" 
d="M571 -20q-243 0 -365 138.5t-122 397.5v299q0 258 122.5 397.5t364.5 139.5t365 -139.5t123 -397.5v-299q0 -259 -122.5 -397.5t-365.5 -138.5zM201 1470q0 111 55.5 164.5t149.5 53.5q51 0 90.5 -15.5t65 -38t48 -45t52 -38t65.5 -15.5q111 0 111 131h102
q0 -112 -57 -164.5t-152 -52.5q-53 0 -93.5 15.5t-66 38t-48 45t-51 38t-62.5 15.5q-54 0 -80.5 -35.5t-26.5 -96.5h-102zM293 494q0 -174 69 -257t209 -83q279 0 279 340v344q0 340 -279 340q-140 0 -209 -83t-69 -257v-344z" />
    <glyph glyph-name="odieresis" unicode="&#xf6;" horiz-adv-x="1142" 
d="M571 -20q-243 0 -365 138.5t-122 397.5v299q0 258 122.5 397.5t364.5 139.5t365 -139.5t123 -397.5v-299q0 -259 -122.5 -397.5t-365.5 -138.5zM244 1561q0 53 33 82.5t83 29.5q48 0 82.5 -29.5t34.5 -82.5q0 -49 -35 -78t-82 -29q-49 0 -82.5 29t-33.5 78zM293 494
q0 -174 69 -257t209 -83q279 0 279 340v344q0 340 -279 340q-140 0 -209 -83t-69 -257v-344zM664 1561q0 53 33 82.5t83 29.5q49 0 83 -29.5t34 -82.5q0 -49 -34.5 -78t-82.5 -29q-49 0 -82.5 29t-33.5 78z" />
    <glyph glyph-name="divide" unicode="&#xf7;" horiz-adv-x="1347" 
d="M674 1030q-26 0 -44 18t-18 44q0 25 18 43t44 18q25 0 43 -18t18 -43q0 -26 -18 -44t-43 -18zM86 788v86h1176v-86h-1176zM612 571q0 25 18 43.5t44 18.5q25 0 43 -18.5t18 -43.5q0 -26 -18 -43.5t-43 -17.5q-26 0 -44 17.5t-18 43.5z" />
    <glyph glyph-name="oslash" unicode="&#xf8;" horiz-adv-x="1142" 
d="M571 -20q-146 0 -252 53l-100 -207h-121l131 268q-145 139 -145 422v299q0 258 122.5 397.5t364.5 139.5q144 0 252 -54l101 207h120l-131 -268q146 -140 146 -422v-299q0 -259 -122.5 -397.5t-365.5 -138.5zM293 494q0 -123 35 -201l411 840q-62 45 -168 45
q-140 0 -209 -83t-69 -257v-344zM401 199q65 -45 170 -45q279 0 279 340v344q0 122 -35 200z" />
    <glyph glyph-name="ugrave" unicode="&#xf9;" 
d="M842 0v193q-30 -57 -72 -101.5t-117 -78t-168 -33.5q-182 0 -275 116.5t-93 331.5v903h205v-887q0 -145 58 -217.5t181 -72.5q65 0 116 21t81.5 53t50 75t26.5 82.5t7 79.5v866h207v-1331h-207zM172 1604l21 79l776 -151l-21 -78z" />
    <glyph glyph-name="uacute" unicode="&#xfa;" 
d="M842 0v193q-30 -57 -72 -101.5t-117 -78t-168 -33.5q-182 0 -275 116.5t-93 331.5v903h205v-887q0 -145 58 -217.5t181 -72.5q65 0 116 21t81.5 53t50 75t26.5 82.5t7 79.5v866h207v-1331h-207zM197 1548l727 152l20 -80l-727 -150z" />
    <glyph glyph-name="ucircumflex" unicode="&#xfb;" 
d="M842 0v193q-30 -57 -72 -101.5t-117 -78t-168 -33.5q-182 0 -275 116.5t-93 331.5v903h205v-887q0 -145 58 -217.5t181 -72.5q65 0 116 21t81.5 53t50 75t26.5 82.5t7 79.5v866h207v-1331h-207zM238 1462l266 246h143l260 -246h-147l-185 178l-192 -178h-145z" />
    <glyph glyph-name="udieresis" unicode="&#xfc;" 
d="M842 0v193q-30 -57 -72 -101.5t-117 -78t-168 -33.5q-182 0 -275 116.5t-93 331.5v903h205v-887q0 -145 58 -217.5t181 -72.5q65 0 116 21t81.5 53t50 75t26.5 82.5t7 79.5v866h207v-1331h-207zM244 1561q0 53 33 82.5t83 29.5q48 0 82.5 -29.5t34.5 -82.5q0 -49 -35 -78
t-82 -29q-49 0 -82.5 29t-33.5 78zM664 1561q0 53 33 82.5t83 29.5q49 0 83 -29.5t34 -82.5q0 -49 -34.5 -78t-82.5 -29q-49 0 -82.5 29t-33.5 78z" />
    <glyph glyph-name="yacute" unicode="&#xfd;" horiz-adv-x="1173" 
d="M842 16v177q-30 -57 -72 -101.5t-117 -78t-168 -33.5q-182 0 -275 116.5t-93 331.5v903h205v-887q0 -145 58 -217.5t181 -72.5q65 0 116 21t81.5 53t50 75t26.5 82.5t7 79.5v866h205v-1319q0 -240 -87.5 -347t-302.5 -107h-505v176h471q124 0 171.5 61t47.5 221z
M207 1548l727 152l20 -80l-727 -150z" />
    <glyph glyph-name="thorn" unicode="&#xfe;" horiz-adv-x="1189" 
d="M334 -442h-207v2113h207v-526q19 38 46.5 71t69.5 65t103 50.5t133 18.5q197 0 308.5 -131.5t111.5 -358.5v-403q0 -221 -111.5 -350.5t-308.5 -129.5q-231 0 -352 191v-610zM336 479q0 -143 73.5 -234t213.5 -91q137 0 204.5 87.5t67.5 237.5v369q0 149 -67.5 237.5
t-204.5 88.5q-139 0 -213 -92t-74 -236v-367z" />
    <glyph glyph-name="ydieresis" unicode="&#xff;" horiz-adv-x="1173" 
d="M842 16v177q-30 -57 -72 -101.5t-117 -78t-168 -33.5q-182 0 -275 116.5t-93 331.5v903h205v-887q0 -145 58 -217.5t181 -72.5q65 0 116 21t81.5 53t50 75t26.5 82.5t7 79.5v866h205v-1319q0 -240 -87.5 -347t-302.5 -107h-505v176h471q124 0 171.5 61t47.5 221z
M254 1561q0 53 33.5 82.5t83.5 29.5q48 0 82 -29.5t34 -82.5q0 -49 -34.5 -78t-81.5 -29q-49 0 -83 29t-34 78zM674 1561q0 53 33.5 82.5t83.5 29.5q49 0 82.5 -29.5t33.5 -82.5q0 -49 -34 -78t-82 -29q-49 0 -83 29t-34 78z" />
    <glyph glyph-name="Amacron" unicode="&#x100;" horiz-adv-x="1206" 
d="M27 0l432 1671h286l435 -1671h-222l-79 330h-551l-80 -330h-221zM205 1868v82h796v-82h-796zM371 512h465l-226 930l-8 24l-6 -22z" />
    <glyph glyph-name="amacron" unicode="&#x101;" horiz-adv-x="1142" 
d="M823 0v209q-55 -117 -160 -173t-241 -56q-162 0 -257 83.5t-95 255.5q0 280 342 400l123 41q42 16 61.5 23.5t56.5 23t55 27t43.5 30t37.5 36t21 41t9 50.5v15q0 76 -55.5 124t-177.5 48q-134 0 -204.5 -61.5t-70.5 -180.5v-70h-207v49q0 198 118 317.5t362 119.5
q440 0 440 -391v-961h-201zM172 1528v82h797v-82h-797zM279 342q0 -184 204 -184q146 0 241 104.5t95 286.5v215q-9 -25 -29.5 -46.5t-52.5 -39.5t-62.5 -32t-73.5 -31q-9 -3 -13 -5l-107 -41q-100 -38 -151 -91t-51 -136z" />
    <glyph glyph-name="Abreve" unicode="&#x102;" horiz-adv-x="1206" 
d="M27 0l432 1671h286l435 -1671h-222l-79 330h-551l-80 -330h-221zM229 2028h103q0 -148 274 -148q268 0 268 148h103q0 -66 -28 -113t-80 -72.5t-116 -37t-147 -11.5q-377 0 -377 234zM371 512h465l-226 930l-8 24l-6 -22z" />
    <glyph glyph-name="abreve" unicode="&#x103;" horiz-adv-x="1142" 
d="M823 0v209q-55 -117 -160 -173t-241 -56q-162 0 -257 83.5t-95 255.5q0 280 342 400l123 41q42 16 61.5 23.5t56.5 23t55 27t43.5 30t37.5 36t21 41t9 50.5v15q0 76 -55.5 124t-177.5 48q-134 0 -204.5 -61.5t-70.5 -180.5v-70h-207v49q0 198 118 317.5t362 119.5
q440 0 440 -391v-961h-201zM197 1688h102q0 -148 274 -148q269 0 269 148h102q0 -66 -28 -113t-80 -72.5t-116 -37t-147 -11.5q-376 0 -376 234zM279 342q0 -184 204 -184q146 0 241 104.5t95 286.5v215q-9 -25 -29.5 -46.5t-52.5 -39.5t-62.5 -32t-73.5 -31q-9 -3 -13 -5
l-107 -41q-100 -38 -151 -91t-51 -136z" />
    <glyph glyph-name="Aogonek" unicode="&#x104;" horiz-adv-x="1206" 
d="M27 0l432 1671h286l435 -1671h2q-111 -36 -164 -82t-53 -111q0 -63 55 -90.5t186 -27.5h21l-82 -99h-19q-126 0 -201 47t-75 136q0 90 65.5 142.5t171.5 84.5h-129l-79 330h-551l-80 -330h-221zM371 512h465l-226 930l-8 24l-6 -22z" />
    <glyph glyph-name="aogonek" unicode="&#x105;" horiz-adv-x="1142" 
d="M823 0v209q-55 -117 -160 -173t-241 -56q-162 0 -257 83.5t-95 255.5q0 280 342 400l123 41q42 16 61.5 23.5t56.5 23t55 27t43.5 30t37.5 36t21 41t9 50.5v15q0 76 -55.5 124t-177.5 48q-134 0 -204.5 -61.5t-70.5 -180.5v-70h-207v49q0 198 118 317.5t362 119.5
q440 0 440 -391v-961q-111 -36 -164 -82t-53 -111q0 -63 55.5 -90.5t186.5 -27.5h20l-82 -99h-18q-126 0 -201.5 47t-75.5 136q0 48 20 86t56 64.5t74.5 44t87.5 32.5h-107zM279 342q0 -184 204 -184q146 0 241 104.5t95 286.5v215q-9 -25 -29.5 -46.5t-52.5 -39.5
t-62.5 -32t-73.5 -31q-9 -3 -13 -5l-107 -41q-100 -38 -151 -91t-51 -136z" />
    <glyph glyph-name="Cacute" unicode="&#x106;" horiz-adv-x="1323" 
d="M674 -20q-144 0 -255.5 45.5t-182.5 128t-107.5 196t-36.5 252.5v471q0 184 63 321.5t195.5 217.5t323.5 80q267 0 411.5 -148.5t153.5 -398.5l2 -160h-221l-2 193q-4 160 -93.5 245.5t-248.5 85.5q-179 0 -272 -105t-93 -298v-539q0 -195 92.5 -300t270.5 -105
q163 0 251.5 85.5t92.5 248.5l2 192h221l-2 -158q-9 -253 -153.5 -401.5t-411.5 -148.5zM293 1888l727 152l20 -80l-727 -150z" />
    <glyph glyph-name="cacute" unicode="&#x107;" horiz-adv-x="1128" 
d="M844 899q-9 279 -266 279q-142 0 -213.5 -83.5t-71.5 -256.5v-346q0 -338 285 -338q129 0 194.5 69.5t71.5 208.5l2 109h211l-4 -86q-9 -223 -129 -349t-349 -126q-245 0 -369 138.5t-124 397.5v301q0 257 124 396t369 139q229 0 350.5 -126t129.5 -349l2 -89h-211z
M203 1548l727 152l20 -80l-727 -150z" />
    <glyph glyph-name="Ccircumflex" unicode="&#x108;" horiz-adv-x="1323" 
d="M674 -20q-144 0 -255.5 45.5t-182.5 128t-107.5 196t-36.5 252.5v471q0 184 63 321.5t195.5 217.5t323.5 80q267 0 411.5 -148.5t153.5 -398.5l2 -160h-221l-2 193q-4 160 -93.5 245.5t-248.5 85.5q-179 0 -272 -105t-93 -298v-539q0 -195 92.5 -300t270.5 -105
q163 0 251.5 85.5t92.5 248.5l2 192h221l-2 -158q-9 -253 -153.5 -401.5t-411.5 -148.5zM332 1802l266 246h143l260 -246h-147l-184 178l-193 -178h-145z" />
    <glyph glyph-name="ccircumflex" unicode="&#x109;" horiz-adv-x="1128" 
d="M844 899q-9 279 -266 279q-142 0 -213.5 -83.5t-71.5 -256.5v-346q0 -338 285 -338q129 0 194.5 69.5t71.5 208.5l2 109h211l-4 -86q-9 -223 -129 -349t-349 -126q-245 0 -369 138.5t-124 397.5v301q0 257 124 396t369 139q229 0 350.5 -126t129.5 -349l2 -89h-211z
M242 1462l266 246h143l260 -246h-147l-184 178l-193 -178h-145z" />
    <glyph glyph-name="Cdotaccent" unicode="&#x10a;" horiz-adv-x="1323" 
d="M674 -20q-144 0 -255.5 45.5t-182.5 128t-107.5 196t-36.5 252.5v471q0 184 63 321.5t195.5 217.5t323.5 80q267 0 411.5 -148.5t153.5 -398.5l2 -160h-221l-2 193q-4 160 -93.5 245.5t-248.5 85.5q-179 0 -272 -105t-93 -298v-539q0 -195 92.5 -300t270.5 -105
q163 0 251.5 85.5t92.5 248.5l2 192h221l-2 -158q-9 -253 -153.5 -401.5t-411.5 -148.5zM545 1903q0 49 32.5 81.5t90.5 32.5t91.5 -32.5t33.5 -81.5q0 -45 -33.5 -77t-91.5 -32q-57 0 -90 32t-33 77z" />
    <glyph glyph-name="cdotaccent" unicode="&#x10b;" horiz-adv-x="1128" 
d="M844 899q-9 279 -266 279q-142 0 -213.5 -83.5t-71.5 -256.5v-346q0 -338 285 -338q129 0 194.5 69.5t71.5 208.5l2 109h211l-4 -86q-9 -223 -129 -349t-349 -126q-245 0 -369 138.5t-124 397.5v301q0 257 124 396t369 139q229 0 350.5 -126t129.5 -349l2 -89h-211z
M440 1575q0 53 36 85t102 32t102.5 -32.5t36.5 -84.5q0 -48 -37 -79.5t-102 -31.5t-101.5 31.5t-36.5 79.5z" />
    <glyph glyph-name="Ccaron" unicode="&#x10c;" horiz-adv-x="1323" 
d="M674 -20q-144 0 -255.5 45.5t-182.5 128t-107.5 196t-36.5 252.5v471q0 184 63 321.5t195.5 217.5t323.5 80q267 0 411.5 -148.5t153.5 -398.5l2 -160h-221l-2 193q-4 160 -93.5 245.5t-248.5 85.5q-179 0 -272 -105t-93 -298v-539q0 -195 92.5 -300t270.5 -105
q163 0 251.5 85.5t92.5 248.5l2 192h221l-2 -158q-9 -253 -153.5 -401.5t-411.5 -148.5zM299 2040h154l217 -182l209 182h155l-293 -246h-143z" />
    <glyph glyph-name="ccaron" unicode="&#x10d;" horiz-adv-x="1128" 
d="M844 899q-9 279 -266 279q-142 0 -213.5 -83.5t-71.5 -256.5v-346q0 -338 285 -338q129 0 194.5 69.5t71.5 208.5l2 109h211l-4 -86q-9 -223 -129 -349t-349 -126q-245 0 -369 138.5t-124 397.5v301q0 257 124 396t369 139q229 0 350.5 -126t129.5 -349l2 -89h-211z
M209 1700h153l218 -182l208 182h156l-293 -246h-143z" />
    <glyph glyph-name="Dcaron" unicode="&#x10e;" horiz-adv-x="1329" 
d="M141 0v1671h510q144 0 248.5 -31t180.5 -100t113.5 -187t37.5 -286v-463q0 -168 -37.5 -285.5t-114 -187t-181 -100.5t-247.5 -31h-510zM270 2040h154l217 -182l209 182h156l-293 -246h-144zM354 176h297q195 0 278 92t83 316v503q0 224 -83 316t-280 92h-295v-1319z" />
    <glyph glyph-name="dcaron" unicode="&#x10f;" horiz-adv-x="1275" 
d="M854 1671h205v-1671h-205v180q-20 -38 -47.5 -70t-69 -63t-101.5 -49t-132 -18q-197 0 -308.5 131t-111.5 358v403q0 221 111.5 350.5t308.5 129.5q229 0 350 -187v506zM295 481q0 -148 67.5 -236.5t204.5 -88.5q139 0 213 91.5t74 235.5v367q0 143 -73.5 234.5
t-213.5 91.5q-137 0 -204.5 -88t-67.5 -238v-369zM1120 1190l64 481h137l-104 -481h-97z" />
    <glyph glyph-name="Dcroat" unicode="&#x110;" horiz-adv-x="1404" 
d="M219 0v784h-190v117h190v770h510q144 0 248.5 -31t180.5 -100t113.5 -187t37.5 -286v-463q0 -168 -37.5 -285.5t-114 -187t-181 -100.5t-247.5 -31h-510zM432 176h297q195 0 278 92t83 316v503q0 224 -83 316t-280 92h-295v-594h389v-117h-389v-608z" />
    <glyph glyph-name="dcroat" unicode="&#x111;" horiz-adv-x="1187" 
d="M854 1671h205v-117h180v-112h-180v-1442h-205v180q-20 -38 -47.5 -70t-69 -63t-101.5 -49t-132 -18q-197 0 -308.5 131t-111.5 358v403q0 221 111.5 350.5t308.5 129.5q229 0 350 -187v277h-401v112h401v117zM295 481q0 -148 67.5 -236.5t204.5 -88.5q139 0 213 91.5
t74 235.5v367q0 143 -73.5 234.5t-213.5 91.5q-137 0 -204.5 -88t-67.5 -238v-369z" />
    <glyph glyph-name="Emacron" unicode="&#x112;" horiz-adv-x="1120" 
d="M141 0v1671h891v-182h-678v-561h643v-185h-643v-561h678v-182h-891zM188 1868v82h797v-82h-797z" />
    <glyph glyph-name="emacron" unicode="&#x113;" horiz-adv-x="1138" 
d="M172 1528v82h797v-82h-797zM82 514v303q0 257 125 396t371 139q234 0 356.5 -133.5t122.5 -393.5v-200h-764v-133q0 -338 285 -338q122 0 184 59.5t69 183.5l3 47h215v-24q-12 -210 -130 -325t-341 -115q-247 0 -371.5 138t-124.5 396zM293 778h551v109q-4 153 -73 222
t-196 69q-282 0 -282 -338v-62z" />
    <glyph glyph-name="Edotaccent" unicode="&#x116;" horiz-adv-x="1120" 
d="M141 0v1671h891v-182h-678v-561h643v-185h-643v-561h678v-182h-891zM465 1903q0 49 32.5 81.5t90.5 32.5t91.5 -32.5t33.5 -81.5q0 -45 -33.5 -77t-91.5 -32q-57 0 -90 32t-33 77z" />
    <glyph glyph-name="edotaccent" unicode="&#x117;" horiz-adv-x="1138" 
d="M571 1464q-65 0 -101 31.5t-36 79.5q0 53 35.5 85t101.5 32t103 -32.5t37 -84.5q0 -48 -37.5 -79.5t-102.5 -31.5zM82 514v303q0 257 125 396t371 139q234 0 356.5 -133.5t122.5 -393.5v-200h-764v-133q0 -338 285 -338q122 0 184 59.5t69 183.5l3 47h215v-24
q-12 -210 -130 -325t-341 -115q-247 0 -371.5 138t-124.5 396zM293 778h551v109q-4 153 -73 222t-196 69q-282 0 -282 -338v-62z" />
    <glyph glyph-name="Eogonek" unicode="&#x118;" horiz-adv-x="1120" 
d="M141 0v1671h891v-182h-678v-561h643v-185h-643v-561h678v-182h2q-111 -36 -164 -82t-53 -111q0 -63 55.5 -90.5t186.5 -27.5h20l-82 -99h-18q-126 0 -201.5 47t-75.5 136q0 48 20 86t56 64.5t74.5 44t87.5 32.5h-799z" />
    <glyph glyph-name="eogonek" unicode="&#x119;" horiz-adv-x="1138" 
d="M686 -410q-126 0 -201 47t-75 136q0 138 178 207h-10q-247 0 -371.5 138t-124.5 396v303q0 257 125 396t371 139q234 0 356.5 -133.5t122.5 -393.5v-200h-764v-133q0 -338 285 -338q122 0 184 59.5t69 183.5l3 47h215v-24q-11 -171 -91 -280t-229 -144q-105 -36 -155 -81
t-50 -108t55.5 -90.5t186.5 -27.5h20l-81 -99h-19zM293 778h551v109q-4 153 -73 222t-196 69q-282 0 -282 -338v-62z" />
    <glyph glyph-name="Ecaron" unicode="&#x11a;" horiz-adv-x="1120" 
d="M141 0v1671h891v-182h-678v-561h643v-185h-643v-561h678v-182h-891zM219 2040h154l217 -182l209 182h155l-292 -246h-144z" />
    <glyph glyph-name="ecaron" unicode="&#x11b;" horiz-adv-x="1138" 
d="M504 1454l-299 246h153l217 -182l209 182h156l-293 -246h-143zM82 514v303q0 257 125 396t371 139q234 0 356.5 -133.5t122.5 -393.5v-200h-764v-133q0 -338 285 -338q122 0 184 59.5t69 183.5l3 47h215v-24q-12 -210 -130 -325t-341 -115q-247 0 -371.5 138t-124.5 396z
M293 778h551v109q-4 153 -73 222t-196 69q-282 0 -282 -338v-62z" />
    <glyph glyph-name="Gcircumflex" unicode="&#x11c;" horiz-adv-x="1347" 
d="M645 -20q-263 0 -407 169t-144 447v477q0 137 36 249.5t106 195.5t182 128.5t256 45.5q261 0 407.5 -146.5t155.5 -390.5l2 -125h-221l-2 160q-6 159 -95.5 239t-244.5 80q-182 0 -272.5 -104t-90.5 -299v-539q0 -195 87.5 -300t265.5 -105q163 0 253 89t97 261v170h-412
v172h635v-854h-127l-25 213q-141 -233 -442 -233zM338 1802l266 246h144l260 -246h-148l-184 178l-193 -178h-145z" />
    <glyph glyph-name="gcircumflex" unicode="&#x11d;" horiz-adv-x="1185" 
d="M854 29v151q-20 -38 -47.5 -70t-69 -63t-101.5 -49t-132 -18q-197 0 -308.5 131t-111.5 358v403q0 221 111.5 350.5t308.5 129.5q229 0 350 -187v166h205v-1319q0 -121 -18.5 -203t-63.5 -140t-122 -84.5t-193 -26.5h-515v176h482q131 0 178 64t47 231zM229 1462l267 246
h143l260 -246h-147l-185 178l-192 -178h-146zM295 481q0 -148 67.5 -236.5t204.5 -88.5q139 0 213 91.5t74 235.5v367q0 143 -73.5 234.5t-213.5 91.5q-137 0 -204.5 -88t-67.5 -238v-369z" />
    <glyph glyph-name="Gbreve" unicode="&#x11e;" horiz-adv-x="1347" 
d="M645 -20q-263 0 -407 169t-144 447v477q0 137 36 249.5t106 195.5t182 128.5t256 45.5q261 0 407.5 -146.5t155.5 -390.5l2 -125h-221l-2 160q-6 159 -95.5 239t-244.5 80q-182 0 -272.5 -104t-90.5 -299v-539q0 -195 87.5 -300t265.5 -105q163 0 253 89t97 261v170h-412
v172h635v-854h-127l-25 213q-141 -233 -442 -233zM299 2028h102q0 -148 275 -148q268 0 268 148h103q0 -66 -28 -113t-80 -72.5t-116 -37t-147 -11.5q-377 0 -377 234z" />
    <glyph glyph-name="gbreve" unicode="&#x11f;" horiz-adv-x="1185" 
d="M854 29v151q-20 -38 -47.5 -70t-69 -63t-101.5 -49t-132 -18q-197 0 -308.5 131t-111.5 358v403q0 221 111.5 350.5t308.5 129.5q229 0 350 -187v166h205v-1319q0 -121 -18.5 -203t-63.5 -140t-122 -84.5t-193 -26.5h-515v176h482q131 0 178 64t47 231zM190 1688h103
q0 -148 274 -148q269 0 269 148h102q0 -66 -28 -113t-80 -72.5t-116 -37t-147 -11.5q-377 0 -377 234zM295 481q0 -148 67.5 -236.5t204.5 -88.5q139 0 213 91.5t74 235.5v367q0 143 -73.5 234.5t-213.5 91.5q-137 0 -204.5 -88t-67.5 -238v-369z" />
    <glyph glyph-name="Gdotaccent" unicode="&#x120;" horiz-adv-x="1347" 
d="M645 -20q-263 0 -407 169t-144 447v477q0 137 36 249.5t106 195.5t182 128.5t256 45.5q261 0 407.5 -146.5t155.5 -390.5l2 -125h-221l-2 160q-6 159 -95.5 239t-244.5 80q-182 0 -272.5 -104t-90.5 -299v-539q0 -195 87.5 -300t265.5 -105q163 0 253 89t97 261v170h-412
v172h635v-854h-127l-25 213q-141 -233 -442 -233zM551 1903q0 49 32.5 81.5t90.5 32.5t91.5 -32.5t33.5 -81.5q0 -45 -33.5 -77t-91.5 -32q-57 0 -90 32t-33 77z" />
    <glyph glyph-name="gdotaccent" unicode="&#x121;" horiz-adv-x="1185" 
d="M854 29v151q-20 -38 -47.5 -70t-69 -63t-101.5 -49t-132 -18q-197 0 -308.5 131t-111.5 358v403q0 221 111.5 350.5t308.5 129.5q229 0 350 -187v166h205v-1319q0 -121 -18.5 -203t-63.5 -140t-122 -84.5t-193 -26.5h-515v176h482q131 0 178 64t47 231zM295 481
q0 -148 67.5 -236.5t204.5 -88.5q139 0 213 91.5t74 235.5v367q0 143 -73.5 234.5t-213.5 91.5q-137 0 -204.5 -88t-67.5 -238v-369zM428 1575q0 53 35.5 85t101.5 32t103 -32.5t37 -84.5q0 -48 -37.5 -79.5t-102.5 -31.5t-101 31.5t-36 79.5z" />
    <glyph glyph-name="uni0122" unicode="&#x122;" horiz-adv-x="1347" 
d="M645 -20q-263 0 -407 169t-144 447v477q0 137 36 249.5t106 195.5t182 128.5t256 45.5q261 0 407.5 -146.5t155.5 -390.5l2 -125h-221l-2 160q-6 159 -95.5 239t-244.5 80q-182 0 -272.5 -104t-90.5 -299v-539q0 -195 87.5 -300t265.5 -105q163 0 253 89t97 261v170h-412
v172h635v-854h-127l-25 213q-141 -233 -442 -233zM563 -172q0 42 29 71t74 29q47 0 74.5 -30.5t27.5 -90.5q0 -71 -45 -134.5t-133 -106.5v84q102 39 125 119q-26 -33 -66 -33q-35 0 -60.5 25.5t-25.5 66.5z" />
    <glyph glyph-name="uni0123" unicode="&#x123;" horiz-adv-x="1185" 
d="M854 29v151q-20 -38 -47.5 -70t-69 -63t-101.5 -49t-132 -18q-197 0 -308.5 131t-111.5 358v403q0 221 111.5 350.5t308.5 129.5q229 0 350 -187v166h205v-1319q0 -121 -18.5 -203t-63.5 -140t-122 -84.5t-193 -26.5h-515v176h482q131 0 178 64t47 231zM295 481
q0 -148 67.5 -236.5t204.5 -88.5q139 0 213 91.5t74 235.5v367q0 143 -73.5 234.5t-213.5 91.5q-137 0 -204.5 -88t-67.5 -238v-369zM463 1554q0 72 44.5 135.5t131.5 104.5v-84q-102 -40 -123 -119q27 35 66 35q35 0 60.5 -25.5t25.5 -66.5q0 -44 -29 -73t-76 -29
q-46 0 -73 31t-27 91z" />
    <glyph glyph-name="Hcircumflex" unicode="&#x124;" horiz-adv-x="1337" 
d="M983 0v743h-629v-743h-213v1671h213v-743h629v743h213v-1671h-213zM332 1802l266 246h143l260 -246h-147l-184 178l-193 -178h-145z" />
    <glyph glyph-name="hcircumflex" unicode="&#x125;" 
d="M334 1671v-532q22 42 51.5 77t72 67t102 50.5t130.5 18.5q182 0 275.5 -117t93.5 -332v-903h-205v887q0 291 -240 291q-65 0 -116 -21t-81 -53t-49.5 -75.5t-26.5 -82.5t-7 -80v-866h-207v1671h207zM-109 1802l267 246h143l260 -246h-147l-185 178l-192 -178h-146z" />
    <glyph glyph-name="Hbar" unicode="&#x126;" horiz-adv-x="1458" 
d="M1044 0v743h-628v-743h-213v1270h-172v119h172v282h213v-282h628v282h213v-282h168v-119h-168v-1270h-213zM416 928h628v342h-628v-342z" />
    <glyph glyph-name="hbar" unicode="&#x127;" 
d="M334 1671v-129h377v-112h-377v-291q22 42 51.5 77t72 67t102 50.5t130.5 18.5q182 0 275.5 -117t93.5 -332v-903h-205v887q0 291 -240 291q-65 0 -116 -21t-81 -53t-49.5 -75.5t-26.5 -82.5t-7 -80v-866h-207v1430h-203v112h203v129h207z" />
    <glyph glyph-name="Itilde" unicode="&#x128;" horiz-adv-x="829" 
d="M92 0v193h215v1286h-215v192h643v-192h-213v-1286h213v-193h-643zM43 1810q0 111 55.5 164.5t149.5 53.5q51 0 90.5 -15.5t65 -38t48 -45t52 -38t65.5 -15.5q111 0 111 131h102q0 -112 -57 -164.5t-152 -52.5q-53 0 -93.5 15.5t-66 38t-48 45t-51 38t-62.5 15.5
q-54 0 -80.5 -35.5t-26.5 -96.5h-102z" />
    <glyph glyph-name="itilde" unicode="&#x129;" horiz-adv-x="460" 
d="M127 1331h207v-1331h-207v1331zM-139 1470q0 111 55.5 164.5t149.5 53.5q51 0 90.5 -15.5t65 -38t48 -45t52 -38t65.5 -15.5q111 0 111 131h102q0 -112 -57 -164.5t-152 -52.5q-53 0 -93.5 15.5t-66 38t-48 45t-51 38t-62.5 15.5q-54 0 -80.5 -35.5t-26.5 -96.5h-102z
" />
    <glyph glyph-name="Imacron" unicode="&#x12a;" horiz-adv-x="829" 
d="M92 0v193h215v1286h-215v192h643v-192h-213v-1286h213v-193h-643zM14 1868v82h797v-82h-797z" />
    <glyph glyph-name="imacron" unicode="&#x12b;" horiz-adv-x="460" 
d="M127 1331h207v-1331h-207v1331zM-51 1528v82h563v-82h-563z" />
    <glyph glyph-name="Iogonek" unicode="&#x12e;" horiz-adv-x="829" 
d="M92 0v193h215v1286h-215v192h643v-192h-213v-1286h213v-193h2q-111 -36 -164 -82t-53 -111q0 -63 55.5 -90.5t186.5 -27.5h20l-82 -99h-18q-126 0 -201 47t-75 136q0 90 65.5 142.5t171.5 84.5h-551z" />
    <glyph glyph-name="iogonek" unicode="&#x12f;" horiz-adv-x="460" 
d="M127 1331h207v-1331q-111 -36 -164 -82t-53 -111q0 -63 55 -90.5t186 -27.5h21l-82 -99h-18q-126 0 -201.5 47t-75.5 136q0 48 20 86t56 64.5t74.5 44t87.5 32.5h-113v1331zM92 1575q0 53 35.5 85t101.5 32t103 -32.5t37 -84.5q0 -48 -37.5 -79.5t-102.5 -31.5t-101 31.5
t-36 79.5z" />
    <glyph glyph-name="Idotaccent" unicode="&#x130;" horiz-adv-x="829" 
d="M92 0v193h215v1286h-215v192h643v-192h-213v-1286h213v-193h-643zM291 1903q0 49 32.5 81.5t90.5 32.5t91.5 -32.5t33.5 -81.5q0 -45 -33.5 -77t-91.5 -32q-57 0 -90 32t-33 77z" />
    <glyph glyph-name="dotlessi" unicode="&#x131;" horiz-adv-x="460" 
d="M127 1331h207v-1331h-207v1331z" />
    <glyph glyph-name="IJ" unicode="&#x132;" horiz-adv-x="2013" 
d="M92 0v193h215v1286h-215v192h643v-192h-213v-1286h213v-193h-643zM868 541v84h219v-119q0 -187 69 -265.5t220 -78.5q146 0 217.5 77t71.5 259v1173h217v-1141q0 -273 -122.5 -411.5t-383.5 -138.5q-263 0 -385.5 140.5t-122.5 420.5z" />
    <glyph glyph-name="ij" unicode="&#x133;" horiz-adv-x="854" 
d="M127 1331h207v-1331h-207v1331zM92 1575q0 53 35.5 85t101.5 32t103 -32.5t37 -84.5q0 -48 -37.5 -79.5t-102.5 -31.5t-101 31.5t-36 79.5zM186 -442v176h129q122 0 163.5 52.5t41.5 205.5v1339h207v-1360q0 -228 -81.5 -320.5t-287.5 -92.5h-172zM485 1575q0 53 36 85
t102 32t102.5 -32.5t36.5 -84.5q0 -48 -37 -79.5t-102 -31.5t-101.5 31.5t-36.5 79.5z" />
    <glyph glyph-name="Jcircumflex" unicode="&#x134;" horiz-adv-x="1193" 
d="M557 -20q-263 0 -385.5 140.5t-122.5 420.5v84h219v-119q0 -187 69 -265.5t220 -78.5q146 0 217.5 77t71.5 259v1173h217v-1141q0 -273 -122.5 -411.5t-383.5 -138.5zM616 1802l267 246h143l260 -246h-147l-185 178l-192 -178h-146z" />
    <glyph glyph-name="jcircumflex" unicode="&#x135;" horiz-adv-x="460" 
d="M127 -8v1339h207v-1360q0 -228 -81.5 -320.5t-287.5 -92.5h-172v176h129q122 0 163.5 52.5t41.5 205.5zM-104 1462l266 246h143l260 -246h-147l-185 178l-192 -178h-145z" />
    <glyph glyph-name="uni0136" unicode="&#x136;" horiz-adv-x="1222" 
d="M958 0l-520 739h-84v-739h-213v1671h213v-739h84l520 739h254l-604 -835l604 -836h-254zM532 -172q0 42 29 71t74 29q47 0 74.5 -30.5t27.5 -90.5q0 -71 -45 -134.5t-133 -106.5v84q102 39 125 119q-26 -33 -66 -33q-35 0 -60.5 25.5t-25.5 66.5z" />
    <glyph glyph-name="uni0137" unicode="&#x137;" horiz-adv-x="1099" 
d="M127 1671h207v-915h69l443 575h246l-533 -665l533 -666h-246l-447 582h-65v-582h-207v1671zM487 -172q0 42 29 71t74 29q47 0 74.5 -30.5t27.5 -90.5q0 -71 -45 -134.5t-133 -106.5v84q102 39 125 119q-26 -33 -66 -33q-35 0 -60.5 25.5t-25.5 66.5z" />
    <glyph glyph-name="Lacute" unicode="&#x139;" horiz-adv-x="1062" 
d="M141 0v1671h213v-1489h676v-182h-889zM184 1888l727 152l21 -80l-727 -150z" />
    <glyph glyph-name="lacute" unicode="&#x13a;" horiz-adv-x="460" 
d="M127 1671h207v-1671h-207v1671zM-143 1888l727 152l20 -80l-727 -150z" />
    <glyph glyph-name="uni013B" unicode="&#x13b;" horiz-adv-x="1062" 
d="M141 0v1671h213v-1489h676v-182h-889zM461 -172q0 42 28.5 71t73.5 29q47 0 75 -30.5t28 -90.5q0 -71 -45.5 -134.5t-133.5 -106.5v84q102 39 125 119q-26 -33 -65 -33q-35 0 -60.5 25.5t-25.5 66.5z" />
    <glyph glyph-name="uni013C" unicode="&#x13c;" horiz-adv-x="460" 
d="M127 1671h207v-1671h-207v1671zM129 -172q0 42 28.5 71t73.5 29q47 0 75 -30.5t28 -90.5q0 -71 -45 -134.5t-133 -106.5v84q102 39 125 119q-26 -33 -66 -33q-35 0 -60.5 25.5t-25.5 66.5z" />
    <glyph glyph-name="Lcaron" unicode="&#x13d;" horiz-adv-x="1064" 
d="M141 0v1671h213v-1489h676v-182h-889zM616 1190l64 481h137l-104 -481h-97z" />
    <glyph glyph-name="lcaron" unicode="&#x13e;" horiz-adv-x="550" 
d="M127 1671h207v-1671h-207v1671zM406 1190l63 481h137l-104 -481h-96z" />
    <glyph glyph-name="Lslash" unicode="&#x141;" horiz-adv-x="1163" 
d="M242 0v674l-201 -94v133l201 96v862h213v-762l342 164v-135l-342 -162v-594h675v-182h-888z" />
    <glyph glyph-name="lslash" unicode="&#x142;" horiz-adv-x="802" 
d="M305 1671h207v-727l262 135v-133l-262 -135v-811h-207v705l-264 -138v133l264 138v833z" />
    <glyph glyph-name="Nacute" unicode="&#x143;" horiz-adv-x="1359" 
d="M141 0v1671h203l674 -1243v1243h201v-1671h-203l-674 1243v-1243h-201zM305 1888l727 152l21 -80l-727 -150z" />
    <glyph glyph-name="nacute" unicode="&#x144;" 
d="M334 1331v-188q47 89 134 149t220 60q182 0 275.5 -117t93.5 -332v-903h-205v887q0 291 -240 291q-72 0 -126.5 -24.5t-85 -66t-46 -85.5t-20.5 -93v-909h-207v1331h207zM225 1548l727 152l21 -80l-727 -150z" />
    <glyph glyph-name="uni0145" unicode="&#x145;" horiz-adv-x="1359" 
d="M141 0v1671h203l674 -1243v1243h201v-1671h-203l-674 1243v-1243h-201zM578 -172q0 42 28.5 71t73.5 29q47 0 74.5 -30.5t27.5 -90.5q0 -71 -45 -134.5t-133 -106.5v84q102 39 125 119q-26 -33 -65 -33q-35 0 -60.5 25.5t-25.5 66.5z" />
    <glyph glyph-name="uni0146" unicode="&#x146;" 
d="M334 1331v-188q47 89 134 149t220 60q182 0 275.5 -117t93.5 -332v-903h-205v887q0 291 -240 291q-72 0 -126.5 -24.5t-85 -66t-46 -85.5t-20.5 -93v-909h-207v1331h207zM496 -172q0 42 28.5 71t73.5 29q47 0 74.5 -30.5t27.5 -90.5q0 -71 -45 -134.5t-133 -106.5v84
q102 39 125 119q-26 -33 -65 -33q-35 0 -60.5 25.5t-25.5 66.5z" />
    <glyph glyph-name="Ncaron" unicode="&#x147;" horiz-adv-x="1359" 
d="M141 0v1671h203l674 -1243v1243h201v-1671h-203l-674 1243v-1243h-201zM311 2040h154l217 -182l209 182h156l-293 -246h-144z" />
    <glyph glyph-name="ncaron" unicode="&#x148;" 
d="M334 1331v-188q47 89 134 149t220 60q182 0 275.5 -117t93.5 -332v-903h-205v887q0 291 -240 291q-72 0 -126.5 -24.5t-85 -66t-46 -85.5t-20.5 -93v-909h-207v1331h207zM233 1700h154l217 -182l209 182h156l-293 -246h-144z" />
    <glyph glyph-name="Eng" unicode="&#x14a;" horiz-adv-x="1359" 
d="M141 0v1671h203l674 -1243v1243h201v-1671q-1 -94 -9.5 -157.5t-30 -114.5t-60.5 -79.5t-98 -43.5t-144 -15h-121v193h125q88 0 115.5 46.5t21.5 170.5h-2l-674 1243v-1243h-201z" />
    <glyph glyph-name="eng" unicode="&#x14b;" 
d="M334 1331v-188q47 89 134 149t220 60q182 0 275.5 -117t93.5 -332v-903h2q0 -112 -14.5 -185t-53 -126t-106 -76t-172.5 -23h-142v174h99q102 0 142 52.5t40 183.5v887q0 291 -240 291q-72 0 -126.5 -24.5t-85 -66t-46 -85.5t-20.5 -93v-909h-207v1331h207z" />
    <glyph glyph-name="Omacron" unicode="&#x14c;" horiz-adv-x="1345" 
d="M674 -20q-143 0 -254.5 46t-183 128.5t-108 195.5t-36.5 250v473q0 136 36.5 248.5t108 195.5t183 129t254.5 46q189 0 321 -80.5t195 -218t63 -320.5v-473q0 -137 -36.5 -250t-107.5 -195.5t-182 -128.5t-253 -46zM274 1868v82h797v-82h-797zM311 567q0 -193 92.5 -298
t270.5 -105q176 0 268 105t92 298v537q0 192 -92 297.5t-268 105.5q-178 0 -270.5 -105.5t-92.5 -297.5v-537z" />
    <glyph glyph-name="omacron" unicode="&#x14d;" horiz-adv-x="1142" 
d="M571 -20q-243 0 -365 138.5t-122 397.5v299q0 258 122.5 397.5t364.5 139.5t365 -139.5t123 -397.5v-299q0 -259 -122.5 -397.5t-365.5 -138.5zM172 1528v82h797v-82h-797zM293 494q0 -174 69 -257t209 -83q279 0 279 340v344q0 340 -279 340q-140 0 -209 -83t-69 -257
v-344z" />
    <glyph glyph-name="Ohungarumlaut" unicode="&#x150;" horiz-adv-x="1345" 
d="M674 -20q-143 0 -254.5 46t-183 128.5t-108 195.5t-36.5 250v473q0 136 36.5 248.5t108 195.5t183 129t254.5 46q189 0 321 -80.5t195 -218t63 -320.5v-473q0 -137 -36.5 -250t-107.5 -195.5t-182 -128.5t-253 -46zM311 567q0 -193 92.5 -298t270.5 -105q176 0 268 105
t92 298v537q0 192 -92 297.5t-268 105.5q-178 0 -270.5 -105.5t-92.5 -297.5v-537zM483 1794l244 229h123l-225 -229h-142zM731 1794l246 229h121l-226 -229h-141z" />
    <glyph glyph-name="ohungarumlaut" unicode="&#x151;" horiz-adv-x="1142" 
d="M571 -20q-243 0 -365 138.5t-122 397.5v299q0 258 122.5 397.5t364.5 139.5t365 -139.5t123 -397.5v-299q0 -259 -122.5 -397.5t-365.5 -138.5zM293 494q0 -174 69 -257t209 -83q279 0 279 340v344q0 340 -279 340q-140 0 -209 -83t-69 -257v-344zM381 1454l244 229h123
l-226 -229h-141zM629 1454l245 229h121l-225 -229h-141z" />
    <glyph glyph-name="OE" unicode="&#x152;" horiz-adv-x="1757" 
d="M575 -20q-232 0 -355.5 164.5t-123.5 443.5v499q0 277 123 441t354 164q242 0 355 -197v176h735v-182h-549v-561h526v-185h-526v-561h549v-182h-735v174q-111 -194 -353 -194zM315 561q0 -191 73 -295t216 -104q141 0 217 100.5t76 269.5v609q0 167 -76 267.5t-217 100.5
q-142 0 -215.5 -105t-73.5 -294v-549z" />
    <glyph glyph-name="oe" unicode="&#x153;" horiz-adv-x="1832" 
d="M549 -20q-220 0 -342.5 138.5t-122.5 387.5v319q0 249 122.5 388t342.5 139q262 0 377 -213q113 213 374 213q215 0 333 -131.5t118 -386.5v-209h-729l-2 -142q3 -166 72 -247.5t194 -81.5q219 0 242 243v43h215v-28q-18 -203 -132.5 -317.5t-314.5 -114.5
q-259 0 -372 210q-112 -210 -375 -210zM293 492q0 -168 68.5 -253t197.5 -85q128 0 196 84.5t68 253.5v348q0 169 -68 253.5t-196 84.5q-129 0 -197.5 -85t-68.5 -253v-348zM1024 780h516v107q-8 291 -252 291q-256 0 -264 -308v-90z" />
    <glyph glyph-name="Racute" unicode="&#x154;" horiz-adv-x="1306" 
d="M1001 0q-22 30 -22 150v299q0 62 -16.5 108t-42.5 72.5t-64 43t-74.5 22t-81.5 5.5h-346v-700h-213v1671h561q265 0 380.5 -102t115.5 -348v-21q0 -171 -58.5 -267.5t-189.5 -139.5q246 -72 246 -359v-284q0 -114 23 -150h-218zM246 1888l727 152l20 -80l-727 -150z
M354 874h348q143 0 210 63t67 210v90q0 80 -16.5 131t-54 79t-87.5 38t-129 10h-338v-621z" />
    <glyph glyph-name="racute" unicode="&#x155;" horiz-adv-x="1024" 
d="M334 1331v-190q41 90 126 150.5t204 60.5q319 0 319 -394v-131h-207v101q0 126 -42 188t-144 62q-57 0 -103 -21t-73.5 -54t-46.5 -75.5t-26 -81.5t-7 -76v-870h-207v1331h207zM195 1548l727 152l20 -80l-727 -150z" />
    <glyph glyph-name="uni0156" unicode="&#x156;" horiz-adv-x="1306" 
d="M1001 0q-22 30 -22 150v299q0 62 -16.5 108t-42.5 72.5t-64 43t-74.5 22t-81.5 5.5h-346v-700h-213v1671h561q265 0 380.5 -102t115.5 -348v-21q0 -171 -58.5 -267.5t-189.5 -139.5q246 -72 246 -359v-284q0 -114 23 -150h-218zM354 874h348q143 0 210 63t67 210v90
q0 80 -16.5 131t-54 79t-87.5 38t-129 10h-338v-621zM565 -172q0 42 29 71t74 29q47 0 74.5 -30.5t27.5 -90.5q0 -71 -45 -134.5t-133 -106.5v84q102 39 125 119q-26 -33 -66 -33q-35 0 -60.5 25.5t-25.5 66.5z" />
    <glyph glyph-name="uni0157" unicode="&#x157;" horiz-adv-x="1024" 
d="M334 1331v-190q41 90 126 150.5t204 60.5q319 0 319 -394v-131h-207v101q0 126 -42 188t-144 62q-57 0 -103 -21t-73.5 -54t-46.5 -75.5t-26 -81.5t-7 -76v-870h-207v1331h207zM129 -172q0 42 28.5 71t73.5 29q47 0 75 -30.5t28 -90.5q0 -71 -45 -134.5t-133 -106.5v84
q102 39 125 119q-26 -33 -66 -33q-35 0 -60.5 25.5t-25.5 66.5z" />
    <glyph glyph-name="Rcaron" unicode="&#x158;" horiz-adv-x="1306" 
d="M1001 0q-22 30 -22 150v299q0 62 -16.5 108t-42.5 72.5t-64 43t-74.5 22t-81.5 5.5h-346v-700h-213v1671h561q265 0 380.5 -102t115.5 -348v-21q0 -171 -58.5 -267.5t-189.5 -139.5q246 -72 246 -359v-284q0 -114 23 -150h-218zM252 2040h154l217 -182l208 182h156
l-293 -246h-143zM354 874h348q143 0 210 63t67 210v90q0 80 -16.5 131t-54 79t-87.5 38t-129 10h-338v-621z" />
    <glyph glyph-name="rcaron" unicode="&#x159;" horiz-adv-x="1024" 
d="M334 1331v-190q41 90 126 150.5t204 60.5q319 0 319 -394v-131h-207v101q0 126 -42 188t-144 62q-57 0 -103 -21t-73.5 -54t-46.5 -75.5t-26 -81.5t-7 -76v-870h-207v1331h207zM203 1700h153l217 -182l209 182h156l-293 -246h-143z" />
    <glyph glyph-name="Sacute" unicode="&#x15a;" horiz-adv-x="1224" 
d="M629 -20q-557 0 -557 516v88h217v-121q0 -163 83 -233t261 -70q155 0 224 56.5t69 184.5v33q0 65 -14.5 112t-47.5 80.5t-73 56t-103 46.5l-262 113q-74 33 -128 69t-100.5 86.5t-70 118t-23.5 152.5q0 202 128.5 313t373.5 111q254 0 386 -118t132 -345v-72h-219v84
q0 147 -72 208.5t-227 61.5q-142 0 -212 -52t-70 -165v-22q0 -54 16 -96t48 -72.5t68 -51.5t89 -42l266 -113q63 -28 108.5 -54t90.5 -65t73 -85t45 -111t17 -146q0 -230 -125 -343t-391 -113zM231 1888l727 152l21 -80l-727 -150z" />
    <glyph glyph-name="sacute" unicode="&#x15b;" horiz-adv-x="1087" 
d="M739 715q151 -61 215 -144t64 -213q0 -81 -23.5 -147t-75 -119t-143 -82.5t-217.5 -29.5q-496 0 -496 417v68h211v-66q0 -131 68 -188t217 -57q130 0 189 47.5t59 144.5q0 75 -42 123.5t-151 97.5l-247 107q-140 50 -206.5 129t-66.5 201q0 71 24 131.5t73.5 110
t137.5 78t206 28.5q464 0 464 -398v-53h-208v51q0 122 -63.5 174t-192.5 52q-107 0 -169.5 -41t-62.5 -123q0 -63 37 -103t127 -77zM166 1548l727 152l20 -80l-727 -150z" />
    <glyph glyph-name="Scircumflex" unicode="&#x15c;" horiz-adv-x="1224" 
d="M629 -20q-557 0 -557 516v88h217v-121q0 -163 83 -233t261 -70q155 0 224 56.5t69 184.5v33q0 65 -14.5 112t-47.5 80.5t-73 56t-103 46.5l-262 113q-74 33 -128 69t-100.5 86.5t-70 118t-23.5 152.5q0 202 128.5 313t373.5 111q254 0 386 -118t132 -345v-72h-219v84
q0 147 -72 208.5t-227 61.5q-142 0 -212 -52t-70 -165v-22q0 -54 16 -96t48 -72.5t68 -51.5t89 -42l266 -113q63 -28 108.5 -54t90.5 -65t73 -85t45 -111t17 -146q0 -230 -125 -343t-391 -113zM270 1802l267 246h143l260 -246h-147l-185 178l-192 -178h-146z" />
    <glyph glyph-name="scircumflex" unicode="&#x15d;" horiz-adv-x="1087" 
d="M739 715q151 -61 215 -144t64 -213q0 -81 -23.5 -147t-75 -119t-143 -82.5t-217.5 -29.5q-496 0 -496 417v68h211v-66q0 -131 68 -188t217 -57q130 0 189 47.5t59 144.5q0 75 -42 123.5t-151 97.5l-247 107q-140 50 -206.5 129t-66.5 201q0 71 24 131.5t73.5 110
t137.5 78t206 28.5q464 0 464 -398v-53h-208v51q0 122 -63.5 174t-192.5 52q-107 0 -169.5 -41t-62.5 -123q0 -63 37 -103t127 -77zM205 1462l266 246h143l260 -246h-147l-184 178l-193 -178h-145z" />
    <glyph glyph-name="Scedilla" unicode="&#x15e;" horiz-adv-x="1224" 
d="M494 -336q142 0 200 14.5t58 61.5q0 49 -57.5 58.5t-164.5 -7.5l45 191q-503 21 -503 514v88h217v-121q0 -163 83 -233t261 -70q155 0 224 56.5t69 184.5v33q0 65 -14.5 112t-47.5 80.5t-73 56t-103 46.5l-262 113q-74 33 -128 69t-100.5 86.5t-70 118t-23.5 152.5
q0 202 128.5 313t373.5 111q254 0 386 -118t132 -345v-72h-219v84q0 147 -72 208.5t-227 61.5q-142 0 -212 -52t-70 -165v-22q0 -54 16 -96t48 -72.5t68 -51.5t89 -42l266 -113q63 -28 108.5 -54t90.5 -65t73 -85t45 -111t17 -146q0 -221 -115 -334t-358 -122l-29 -109
q223 27 223 -127q0 -93 -88.5 -130.5t-285.5 -37.5z" />
    <glyph glyph-name="scedilla" unicode="&#x15f;" horiz-adv-x="1087" 
d="M739 715q151 -61 215 -144t64 -213q0 -78 -21.5 -142t-69 -116.5t-131 -84t-198.5 -35.5l-29 -109q224 27 224 -127q0 -93 -88.5 -130.5t-286.5 -37.5l2 88q142 0 200 14.5t58 61.5q0 49 -57 58.5t-164 -7.5l45 191q-227 12 -333 117.5t-106 297.5v68h211v-66
q0 -131 68 -188t217 -57q130 0 189 47.5t59 144.5q0 75 -42 123.5t-151 97.5l-247 107q-140 50 -206.5 129t-66.5 201q0 71 24 131.5t73.5 110t137.5 78t206 28.5q464 0 464 -398v-53h-208v51q0 122 -63.5 174t-192.5 52q-107 0 -169.5 -41t-62.5 -123q0 -63 37 -103
t127 -77z" />
    <glyph glyph-name="Scaron" unicode="&#x160;" horiz-adv-x="1224" 
d="M629 -20q-557 0 -557 516v88h217v-121q0 -163 83 -233t261 -70q155 0 224 56.5t69 184.5v33q0 65 -14.5 112t-47.5 80.5t-73 56t-103 46.5l-262 113q-74 33 -128 69t-100.5 86.5t-70 118t-23.5 152.5q0 202 128.5 313t373.5 111q254 0 386 -118t132 -345v-72h-219v84
q0 147 -72 208.5t-227 61.5q-142 0 -212 -52t-70 -165v-22q0 -54 16 -96t48 -72.5t68 -51.5t89 -42l266 -113q63 -28 108.5 -54t90.5 -65t73 -85t45 -111t17 -146q0 -230 -125 -343t-391 -113zM238 2040h153l217 -182l209 182h156l-293 -246h-143z" />
    <glyph glyph-name="scaron" unicode="&#x161;" horiz-adv-x="1087" 
d="M739 715q151 -61 215 -144t64 -213q0 -81 -23.5 -147t-75 -119t-143 -82.5t-217.5 -29.5q-496 0 -496 417v68h211v-66q0 -131 68 -188t217 -57q130 0 189 47.5t59 144.5q0 75 -42 123.5t-151 97.5l-247 107q-140 50 -206.5 129t-66.5 201q0 71 24 131.5t73.5 110
t137.5 78t206 28.5q464 0 464 -398v-53h-208v51q0 122 -63.5 174t-192.5 52q-107 0 -169.5 -41t-62.5 -123q0 -63 37 -103t127 -77zM172 1700h154l217 -182l209 182h155l-293 -246h-143z" />
    <glyph glyph-name="uni0162" unicode="&#x162;" horiz-adv-x="1122" 
d="M455 0v1489h-420v182h1052v-182h-419v-1489h-60l-33 -129q224 27 224 -127q0 -93 -88.5 -130.5t-286.5 -37.5l2 88q142 0 200 14.5t58 61.5q0 49 -57 58.5t-164 -7.5l49 209h-57z" />
    <glyph glyph-name="uni0163" unicode="&#x163;" horiz-adv-x="839" 
d="M780 1331v-176h-319v-758q0 -135 26.5 -178t114.5 -43h178v-176h-198l-27 -109q223 27 223 -127q0 -93 -88.5 -130t-286.5 -37l3 88q142 0 200 14t58 61q0 49 -57.5 59t-164.5 -7l45 190q-58 5 -99 24t-66.5 47.5t-40 73t-20 94t-5.5 117.5v797h-238v176h60q76 10 125 57
t69 118t19 165h205q0 -132 -44 -225.5t-112 -114.5h440z" />
    <glyph glyph-name="Tcaron" unicode="&#x164;" horiz-adv-x="1122" 
d="M455 0v1489h-420v182h1052v-182h-419v-1489h-213zM193 2040h153l217 -182l209 182h156l-293 -246h-143z" />
    <glyph glyph-name="tcaron" unicode="&#x165;" horiz-adv-x="839" 
d="M780 1331v-176h-319v-758q0 -135 26.5 -178t114.5 -43h178v-176h-241q-88 0 -145 22.5t-87 71.5t-40.5 109.5t-10.5 154.5v797h-238v176h60q76 10 125 57t69 118t19 165h205q0 -132 -44 -225.5t-112 -114.5h440zM586 1454l96 406h137l-137 -406h-96z" />
    <glyph glyph-name="Tbar" unicode="&#x166;" horiz-adv-x="1155" 
d="M471 0v727h-311v117h311v645h-420v182h1053v-182h-420v-645h311v-117h-311v-727h-213z" />
    <glyph glyph-name="tbar" unicode="&#x167;" horiz-adv-x="858" 
d="M797 1331v-176h-320v-362h314v-117h-314v-279q0 -135 26.5 -178t114.5 -43h179v-176h-242q-88 0 -145 22.5t-87 71.5t-40.5 109.5t-10.5 154.5v318h-229v117h229v362h-237v176h59q76 10 125 57t69 118t19 165h205q0 -132 -44 -225.5t-112 -114.5h441z" />
    <glyph glyph-name="Utilde" unicode="&#x168;" horiz-adv-x="1331" 
d="M666 -20q-283 0 -409 132t-126 418v1141h215v-1171q0 -100 20.5 -166.5t63.5 -104t99 -52.5t137 -15t137 15t98.5 52.5t63 104t20.5 166.5v1171h215v-1141q0 -287 -126.5 -418.5t-407.5 -131.5zM295 1810q0 111 55.5 164.5t149.5 53.5q51 0 90.5 -15.5t65 -38t48 -45
t52 -38t65.5 -15.5q111 0 111 131h102q0 -112 -57 -164.5t-152 -52.5q-53 0 -93.5 15.5t-66 38t-48 45t-51 38t-62.5 15.5q-54 0 -80.5 -35.5t-26.5 -96.5h-102z" />
    <glyph glyph-name="utilde" unicode="&#x169;" 
d="M842 0v193q-30 -57 -72 -101.5t-117 -78t-168 -33.5q-182 0 -275 116.5t-93 331.5v903h205v-887q0 -145 58 -217.5t181 -72.5q65 0 116 21t81.5 53t50 75t26.5 82.5t7 79.5v866h207v-1331h-207zM201 1470q0 111 55.5 164.5t149.5 53.5q51 0 90.5 -15.5t65 -38t48 -45
t52 -38t65.5 -15.5q111 0 111 131h102q0 -112 -57 -164.5t-152 -52.5q-53 0 -93.5 15.5t-66 38t-48 45t-51 38t-62.5 15.5q-54 0 -80.5 -35.5t-26.5 -96.5h-102z" />
    <glyph glyph-name="Umacron" unicode="&#x16a;" horiz-adv-x="1331" 
d="M666 -20q-283 0 -409 132t-126 418v1141h215v-1171q0 -100 20.5 -166.5t63.5 -104t99 -52.5t137 -15t137 15t98.5 52.5t63 104t20.5 166.5v1171h215v-1141q0 -287 -126.5 -418.5t-407.5 -131.5zM266 1868v82h797v-82h-797z" />
    <glyph glyph-name="umacron" unicode="&#x16b;" 
d="M842 0v193q-30 -57 -72 -101.5t-117 -78t-168 -33.5q-182 0 -275 116.5t-93 331.5v903h205v-887q0 -145 58 -217.5t181 -72.5q65 0 116 21t81.5 53t50 75t26.5 82.5t7 79.5v866h207v-1331h-207zM172 1528v82h797v-82h-797z" />
    <glyph glyph-name="Ubreve" unicode="&#x16c;" horiz-adv-x="1331" 
d="M666 -20q-283 0 -409 132t-126 418v1141h215v-1171q0 -100 20.5 -166.5t63.5 -104t99 -52.5t137 -15t137 15t98.5 52.5t63 104t20.5 166.5v1171h215v-1141q0 -287 -126.5 -418.5t-407.5 -131.5zM291 2028h102q0 -148 275 -148q268 0 268 148h102q0 -66 -27.5 -113
t-79.5 -72.5t-116 -37t-147 -11.5q-377 0 -377 234z" />
    <glyph glyph-name="ubreve" unicode="&#x16d;" 
d="M842 0v193q-30 -57 -72 -101.5t-117 -78t-168 -33.5q-182 0 -275 116.5t-93 331.5v903h205v-887q0 -145 58 -217.5t181 -72.5q65 0 116 21t81.5 53t50 75t26.5 82.5t7 79.5v866h207v-1331h-207zM197 1688h102q0 -148 274 -148q269 0 269 148h102q0 -66 -28 -113
t-80 -72.5t-116 -37t-147 -11.5q-376 0 -376 234z" />
    <glyph glyph-name="Uring" unicode="&#x16e;" horiz-adv-x="1331" 
d="M666 -20q-283 0 -409 132t-126 418v1141h215v-1171q0 -100 20.5 -166.5t63.5 -104t99 -52.5t137 -15t137 15t98.5 52.5t63 104t20.5 166.5v1171h215v-1141q0 -287 -126.5 -418.5t-407.5 -131.5zM500 1929q0 71 49.5 118.5t116.5 47.5t116 -47.5t49 -118.5t-49 -118.5
t-116 -47.5t-116.5 47.5t-49.5 118.5zM586 1929q0 -37 21 -58.5t59 -21.5t58.5 21.5t20.5 58.5t-20.5 58.5t-58.5 21.5t-59 -21.5t-21 -58.5z" />
    <glyph glyph-name="uring" unicode="&#x16f;" 
d="M842 0v193q-30 -57 -72 -101.5t-117 -78t-168 -33.5q-182 0 -275 116.5t-93 331.5v903h205v-887q0 -145 58 -217.5t181 -72.5q65 0 116 21t81.5 53t50 75t26.5 82.5t7 79.5v866h207v-1331h-207zM406 1589q0 71 49 118.5t116 47.5t116.5 -47.5t49.5 -118.5t-49.5 -118.5
t-116.5 -47.5t-116 47.5t-49 118.5zM492 1589q0 -37 20.5 -58.5t58.5 -21.5t59 21.5t21 58.5t-21 58.5t-59 21.5t-58.5 -21.5t-20.5 -58.5z" />
    <glyph glyph-name="Uhungarumlaut" unicode="&#x170;" horiz-adv-x="1331" 
d="M666 -20q-283 0 -409 132t-126 418v1141h215v-1171q0 -100 20.5 -166.5t63.5 -104t99 -52.5t137 -15t137 15t98.5 52.5t63 104t20.5 166.5v1171h215v-1141q0 -287 -126.5 -418.5t-407.5 -131.5zM475 1794l244 229h123l-226 -229h-141zM723 1794l246 229h121l-226 -229
h-141z" />
    <glyph glyph-name="uhungarumlaut" unicode="&#x171;" 
d="M842 0v193q-30 -57 -72 -101.5t-117 -78t-168 -33.5q-182 0 -275 116.5t-93 331.5v903h205v-887q0 -145 58 -217.5t181 -72.5q65 0 116 21t81.5 53t50 75t26.5 82.5t7 79.5v866h207v-1331h-207zM383 1454l244 229h123l-226 -229h-141zM631 1454l246 229h120l-225 -229
h-141z" />
    <glyph glyph-name="Uogonek" unicode="&#x172;" horiz-adv-x="1331" 
d="M666 -20q-283 0 -409 132t-126 418v1141h215v-1171q0 -100 20.5 -166.5t63.5 -104t99 -52.5t137 -15t137 15t98.5 52.5t63 104t20.5 166.5v1171h215v-1141q0 -235 -83.5 -365t-266.5 -169q-106 -34 -156.5 -79.5t-50.5 -109.5q0 -63 55.5 -90.5t186.5 -27.5h20l-82 -99
h-18q-126 0 -201.5 47t-75.5 136q0 137 181 207h-43z" />
    <glyph glyph-name="uogonek" unicode="&#x173;" 
d="M842 0v193q-30 -57 -72 -101.5t-117 -78t-168 -33.5q-182 0 -275 116.5t-93 331.5v903h205v-887q0 -145 58 -217.5t181 -72.5q65 0 116 21t81.5 53t50 75t26.5 82.5t7 79.5v866h207v-1331q-111 -36 -164.5 -82t-53.5 -111q0 -63 55.5 -90.5t186.5 -27.5h21l-82 -99h-19
q-126 0 -201 47t-75 136q0 90 65.5 142.5t171.5 84.5h-112z" />
    <glyph glyph-name="Wcircumflex" unicode="&#x174;" horiz-adv-x="1964" 
d="M401 0l-366 1671h217l289 -1411l2 -4v4l303 1411h272l301 -1405l4 -12l2 12l287 1405h217l-366 -1671h-281l-295 1378l-4 21l-6 -21l-295 -1378h-281zM647 1802l266 246h144l260 -246h-148l-184 178l-192 -178h-146z" />
    <glyph glyph-name="wcircumflex" unicode="&#x175;" horiz-adv-x="1679" 
d="M504 1462l266 246h143l261 -246h-148l-184 178l-193 -178h-145zM33 1331h207l233 -1136l240 1136h254l241 -1136l234 1136h205l-301 -1331h-256l-250 1159l-254 -1159h-252z" />
    <glyph glyph-name="Ycircumflex" unicode="&#x176;" horiz-adv-x="1193" 
d="M489 0v586l-481 1085h234l356 -837l354 837h232l-482 -1085v-586h-213zM262 1802l266 246h144l260 -246h-148l-184 178l-192 -178h-146z" />
    <glyph glyph-name="ycircumflex" unicode="&#x177;" horiz-adv-x="1173" 
d="M842 16v177q-30 -57 -72 -101.5t-117 -78t-168 -33.5q-182 0 -275 116.5t-93 331.5v903h205v-887q0 -145 58 -217.5t181 -72.5q65 0 116 21t81.5 53t50 75t26.5 82.5t7 79.5v866h205v-1319q0 -240 -87.5 -347t-302.5 -107h-505v176h471q124 0 171.5 61t47.5 221z
M246 1462l266 246h143l260 -246h-147l-184 178l-193 -178h-145z" />
    <glyph glyph-name="Ydieresis" unicode="&#x178;" horiz-adv-x="1193" 
d="M489 0v586l-481 1085h234l356 -837l354 837h232l-482 -1085v-586h-213zM268 1901q0 53 33.5 82.5t83.5 29.5q48 0 82.5 -29.5t34.5 -82.5q0 -49 -35 -78t-82 -29q-49 0 -83 29t-34 78zM688 1901q0 53 33.5 82.5t83.5 29.5q49 0 83 -29.5t34 -82.5q0 -49 -34.5 -78
t-82.5 -29q-49 0 -83 29t-34 78z" />
    <glyph glyph-name="Zacute" unicode="&#x179;" horiz-adv-x="1112" 
d="M66 0v184l741 1305h-741v182h983v-184l-744 -1305h744v-182h-983zM182 1888l727 152l21 -80l-727 -150z" />
    <glyph glyph-name="zacute" unicode="&#x17a;" horiz-adv-x="1009" 
d="M63 1331h883v-176l-653 -979h657v-176h-891v176l654 979h-650v176zM131 1548l727 152l21 -80l-727 -150z" />
    <glyph glyph-name="Zdotaccent" unicode="&#x17b;" horiz-adv-x="1112" 
d="M66 0v184l741 1305h-741v182h983v-184l-744 -1305h744v-182h-983zM434 1903q0 49 32.5 81.5t90.5 32.5t91.5 -32.5t33.5 -81.5q0 -45 -33.5 -77t-91.5 -32q-57 0 -90 32t-33 77z" />
    <glyph glyph-name="zdotaccent" unicode="&#x17c;" horiz-adv-x="1009" 
d="M63 1331h883v-176l-653 -979h657v-176h-891v176l654 979h-650v176zM369 1575q0 53 35.5 85t101.5 32t102.5 -32.5t36.5 -84.5q0 -48 -37 -79.5t-102 -31.5t-101 31.5t-36 79.5z" />
    <glyph glyph-name="Zcaron" unicode="&#x17d;" horiz-adv-x="1112" 
d="M66 0v184l741 1305h-741v182h983v-184l-744 -1305h744v-182h-983zM188 2040h154l217 -182l209 182h156l-293 -246h-144z" />
    <glyph glyph-name="zcaron" unicode="&#x17e;" horiz-adv-x="1009" 
d="M63 1331h883v-176l-653 -979h657v-176h-891v176l654 979h-650v176zM137 1700h154l217 -182l209 182h155l-292 -246h-144z" />
    <glyph glyph-name="uni0218" unicode="&#x218;" horiz-adv-x="1224" 
d="M629 -20q-557 0 -557 516v88h217v-121q0 -163 83 -233t261 -70q155 0 224 56.5t69 184.5v33q0 65 -14.5 112t-47.5 80.5t-73 56t-103 46.5l-262 113q-74 33 -128 69t-100.5 86.5t-70 118t-23.5 152.5q0 202 128.5 313t373.5 111q254 0 386 -118t132 -345v-72h-219v84
q0 147 -72 208.5t-227 61.5q-142 0 -212 -52t-70 -165v-22q0 -54 16 -96t48 -72.5t68 -51.5t89 -42l266 -113q63 -28 108.5 -54t90.5 -65t73 -85t45 -111t17 -146q0 -230 -125 -343t-391 -113zM526 -172q0 42 29 71t74 29q47 0 74.5 -30.5t27.5 -90.5q0 -71 -45 -134.5
t-133 -106.5v84q102 39 125 119q-26 -33 -66 -33q-35 0 -60.5 25.5t-25.5 66.5z" />
    <glyph glyph-name="uni0219" unicode="&#x219;" horiz-adv-x="1087" 
d="M739 715q151 -61 215 -144t64 -213q0 -81 -23.5 -147t-75 -119t-143 -82.5t-217.5 -29.5q-496 0 -496 417v68h211v-66q0 -131 68 -188t217 -57q130 0 189 47.5t59 144.5q0 75 -42 123.5t-151 97.5l-247 107q-140 50 -206.5 129t-66.5 201q0 71 24 131.5t73.5 110
t137.5 78t206 28.5q464 0 464 -398v-53h-208v51q0 122 -63.5 174t-192.5 52q-107 0 -169.5 -41t-62.5 -123q0 -63 37 -103t127 -77zM453 -172q0 42 28.5 71t73.5 29q47 0 74.5 -30.5t27.5 -90.5q0 -71 -45 -134.5t-133 -106.5v84q102 39 125 119q-26 -33 -65 -33
q-35 0 -60.5 25.5t-25.5 66.5z" />
    <glyph glyph-name="uni021A" unicode="&#x21a;" horiz-adv-x="1122" 
d="M455 0v1489h-420v182h1052v-182h-419v-1489h-213zM459 -172q0 42 28.5 71t73.5 29q47 0 75 -30.5t28 -90.5q0 -71 -45.5 -134.5t-133.5 -106.5v84q102 39 125 119q-26 -33 -65 -33q-35 0 -60.5 25.5t-25.5 66.5z" />
    <glyph glyph-name="uni021B" unicode="&#x21b;" horiz-adv-x="839" 
d="M780 1331v-176h-319v-758q0 -135 26.5 -178t114.5 -43h178v-176h-241q-88 0 -145 22.5t-87 71.5t-40.5 109.5t-10.5 154.5v797h-238v176h60q76 10 125 57t69 118t19 165h205q0 -132 -44 -225.5t-112 -114.5h440zM438 -152q0 42 29 71.5t74 29.5q47 0 74.5 -30.5
t27.5 -90.5q0 -72 -45 -135.5t-133 -106.5v84q102 39 125 119q-26 -33 -66 -33q-35 0 -60.5 25.5t-25.5 66.5z" />
    <glyph glyph-name="uni0237" unicode="&#x237;" horiz-adv-x="460" 
d="M127 -8v1339h207v-1360q0 -228 -81.5 -320.5t-287.5 -92.5h-172v176h129q122 0 163.5 52.5t41.5 205.5z" />
    <glyph glyph-name="circumflex" unicode="&#x2c6;" horiz-adv-x="1079" 
d="M205 1462l266 246h143l260 -246h-147l-184 178l-193 -178h-145z" />
    <glyph glyph-name="caron" unicode="&#x2c7;" horiz-adv-x="1144" 
d="M504 1454l-299 246h153l217 -182l209 182h156l-293 -246h-143z" />
    <glyph glyph-name="breve" unicode="&#x2d8;" horiz-adv-x="1157" 
d="M582 1454q-377 0 -377 234h102q0 -148 275 -148q268 0 268 148h102q0 -66 -27.5 -113t-79.5 -72.5t-116 -37t-147 -11.5z" />
    <glyph glyph-name="dotaccent" unicode="&#x2d9;" horiz-adv-x="686" 
d="M342 1464q-65 0 -101 31.5t-36 79.5q0 53 35.5 85t101.5 32t102.5 -32.5t36.5 -84.5q0 -48 -37 -79.5t-102 -31.5z" />
    <glyph glyph-name="ring" unicode="&#x2da;" horiz-adv-x="741" 
d="M371 1423q-67 0 -116.5 47.5t-49.5 118.5t49.5 118.5t116.5 47.5t116.5 -47.5t49.5 -118.5t-49.5 -118.5t-116.5 -47.5zM291 1589q0 -37 21 -58.5t59 -21.5t59 21.5t21 58.5t-21 58.5t-59 21.5t-59 -21.5t-21 -58.5z" />
    <glyph glyph-name="ogonek" unicode="&#x2db;" horiz-adv-x="776" 
d="M485 -410q-126 0 -201 47t-75 136q0 90 65.5 142.5t171.5 84.5h95q-111 -36 -164 -82t-53 -111q0 -63 55 -90.5t186 -27.5h21l-82 -99h-19z" />
    <glyph glyph-name="tilde" unicode="&#x2dc;" horiz-adv-x="1148" 
d="M205 1470q0 111 55.5 164.5t149.5 53.5q51 0 90.5 -15.5t65 -38t48 -45t52 -38t65.5 -15.5q111 0 111 131h102q0 -112 -57 -164.5t-152 -52.5q-53 0 -93.5 15.5t-66 38t-48 45t-51 38t-62.5 15.5q-54 0 -80.5 -35.5t-26.5 -96.5h-102z" />
    <glyph glyph-name="hungarumlaut" unicode="&#x2dd;" horiz-adv-x="1024" 
d="M594 1454h-141l245 229h121zM205 1454l244 229h122l-225 -229h-141z" />
    <glyph glyph-name="uni1E20" unicode="&#x1e20;" horiz-adv-x="1347" 
d="M645 -20q-263 0 -407 169t-144 447v477q0 137 36 249.5t106 195.5t182 128.5t256 45.5q261 0 407.5 -146.5t155.5 -390.5l2 -125h-221l-2 160q-6 159 -95.5 239t-244.5 80q-182 0 -272.5 -104t-90.5 -299v-539q0 -195 87.5 -300t265.5 -105q163 0 253 89t97 261v170h-412
v172h635v-854h-127l-25 213q-141 -233 -442 -233zM274 1868v82h797v-82h-797z" />
    <glyph glyph-name="uni1E21" unicode="&#x1e21;" horiz-adv-x="1185" 
d="M854 29v151q-20 -38 -47.5 -70t-69 -63t-101.5 -49t-132 -18q-197 0 -308.5 131t-111.5 358v403q0 221 111.5 350.5t308.5 129.5q229 0 350 -187v166h205v-1319q0 -121 -18.5 -203t-63.5 -140t-122 -84.5t-193 -26.5h-515v176h482q131 0 178 64t47 231zM166 1528v82h797
v-82h-797zM295 481q0 -148 67.5 -236.5t204.5 -88.5q139 0 213 91.5t74 235.5v367q0 143 -73.5 234.5t-213.5 91.5q-137 0 -204.5 -88t-67.5 -238v-369z" />
    <glyph glyph-name="Wgrave" unicode="&#x1e80;" horiz-adv-x="1964" 
d="M401 0l-366 1671h217l289 -1411l2 -4v4l303 1411h272l301 -1405l4 -12l2 12l287 1405h217l-366 -1671h-281l-295 1378l-4 21l-6 -21l-295 -1378h-281zM584 1944l20 79l776 -151l-20 -78z" />
    <glyph glyph-name="wgrave" unicode="&#x1e81;" horiz-adv-x="1679" 
d="M1237 1532l-20 -78l-777 150l21 79zM33 1331h207l233 -1136l240 1136h254l241 -1136l234 1136h205l-301 -1331h-256l-250 1159l-254 -1159h-252z" />
    <glyph glyph-name="Wacute" unicode="&#x1e82;" horiz-adv-x="1964" 
d="M401 0l-366 1671h217l289 -1411l2 -4v4l303 1411h272l301 -1405l4 -12l2 12l287 1405h217l-366 -1671h-281l-295 1378l-4 21l-6 -21l-295 -1378h-281zM608 1888l727 152l21 -80l-727 -150z" />
    <glyph glyph-name="wacute" unicode="&#x1e83;" horiz-adv-x="1679" 
d="M485 1470l-20 78l727 152l20 -80zM33 1331h207l233 -1136l240 1136h254l241 -1136l234 1136h205l-301 -1331h-256l-250 1159l-254 -1159h-252z" />
    <glyph glyph-name="Wdieresis" unicode="&#x1e84;" horiz-adv-x="1964" 
d="M401 0l-366 1671h217l289 -1411l2 -4v4l303 1411h272l301 -1405l4 -12l2 12l287 1405h217l-366 -1671h-281l-295 1378l-4 21l-6 -21l-295 -1378h-281zM655 1901q0 53 33.5 82.5t83.5 29.5q48 0 82.5 -29.5t34.5 -82.5q0 -49 -35 -78t-82 -29q-49 0 -83 29t-34 78z
M1075 1901q0 53 33.5 82.5t83.5 29.5q49 0 83 -29.5t34 -82.5q0 -49 -34.5 -78t-82.5 -29q-49 0 -83 29t-34 78z" />
    <glyph glyph-name="wdieresis" unicode="&#x1e85;" horiz-adv-x="1679" 
d="M1049 1454q-49 0 -83 29t-34 78q0 53 33.5 82.5t83.5 29.5q49 0 82.5 -29.5t33.5 -82.5q0 -49 -34 -78t-82 -29zM33 1331h207l233 -1136l240 1136h254l241 -1136l234 1136h205l-301 -1331h-256l-250 1159l-254 -1159h-252zM512 1561q0 53 33.5 82.5t83.5 29.5
q48 0 82 -29.5t34 -82.5q0 -49 -34.5 -78t-81.5 -29q-49 0 -83 29t-34 78z" />
    <glyph glyph-name="uni1E9E" unicode="&#x1e9e;" horiz-adv-x="1216" 
d="M133 1286q0 199 111 292t352 93h524q-25 -193 -49 -313.5t-56.5 -202t-71.5 -121t-97 -59.5q141 -36 209.5 -140.5t68.5 -293.5v-82q0 -242 -115.5 -350.5t-328.5 -108.5h-238v174h189q153 0 218.5 63t65.5 226v110q0 74 -12.5 126t-45 94.5t-94 63.5t-153.5 22h-168v174
h158q41 0 70.5 3.5t56 14.5t44.5 24t35.5 41t29.5 56.5t25.5 79t24 99.5t25.5 126h-315q-137 0 -196.5 -47.5t-59.5 -161.5v-1288h-207v1286z" />
    <glyph glyph-name="uni1EBC" unicode="&#x1ebc;" horiz-adv-x="1120" 
d="M141 0v1671h891v-182h-678v-561h643v-185h-643v-561h678v-182h-891zM217 1810q0 111 55.5 164.5t149.5 53.5q51 0 90.5 -15.5t65 -38t48 -45t52 -38t65.5 -15.5q111 0 111 131h102q0 -112 -56.5 -164.5t-151.5 -52.5q-53 0 -94 15.5t-66.5 38t-48 45t-51 38t-62.5 15.5
q-54 0 -80.5 -35.5t-26.5 -96.5h-102z" />
    <glyph glyph-name="uni1EBD" unicode="&#x1ebd;" horiz-adv-x="1138" 
d="M201 1470q0 111 55.5 164.5t149.5 53.5q51 0 90.5 -15.5t65 -38t48 -45t52 -38t65.5 -15.5q111 0 111 131h102q0 -112 -57 -164.5t-152 -52.5q-53 0 -93.5 15.5t-66 38t-48 45t-51 38t-62.5 15.5q-54 0 -80.5 -35.5t-26.5 -96.5h-102zM82 514v303q0 257 125 396t371 139
q234 0 356.5 -133.5t122.5 -393.5v-200h-764v-133q0 -338 285 -338q122 0 184 59.5t69 183.5l3 47h215v-24q-12 -210 -130 -325t-341 -115q-247 0 -371.5 138t-124.5 396zM293 778h551v109q-4 153 -73 222t-196 69q-282 0 -282 -338v-62z" />
    <glyph glyph-name="Ygrave" unicode="&#x1ef2;" horiz-adv-x="1193" 
d="M489 0v586l-481 1085h234l356 -837l354 837h232l-482 -1085v-586h-213zM197 1944l20 79l776 -151l-20 -78z" />
    <glyph glyph-name="ygrave" unicode="&#x1ef3;" horiz-adv-x="1173" 
d="M842 16v177q-30 -57 -72 -101.5t-117 -78t-168 -33.5q-182 0 -275 116.5t-93 331.5v903h205v-887q0 -145 58 -217.5t181 -72.5q65 0 116 21t81.5 53t50 75t26.5 82.5t7 79.5v866h205v-1319q0 -240 -87.5 -347t-302.5 -107h-505v176h471q124 0 171.5 61t47.5 221z
M182 1604l21 79l776 -151l-21 -78z" />
    <glyph glyph-name="uni1EF8" unicode="&#x1ef8;" horiz-adv-x="1193" 
d="M489 0v586l-481 1085h234l356 -837l354 837h232l-482 -1085v-586h-213zM225 1810q0 111 55.5 164.5t149.5 53.5q51 0 91 -15.5t65 -38t48 -45t52.5 -38t65.5 -15.5q110 0 110 131h103q0 -112 -57 -164.5t-152 -52.5q-53 0 -94 15.5t-66.5 38t-48 45t-51 38t-62.5 15.5
q-53 0 -79.5 -35.5t-26.5 -96.5h-103z" />
    <glyph glyph-name="uni1EF9" unicode="&#x1ef9;" horiz-adv-x="1173" 
d="M842 16v177q-30 -57 -72 -101.5t-117 -78t-168 -33.5q-182 0 -275 116.5t-93 331.5v903h205v-887q0 -145 58 -217.5t181 -72.5q65 0 116 21t81.5 53t50 75t26.5 82.5t7 79.5v866h205v-1319q0 -240 -87.5 -347t-302.5 -107h-505v176h471q124 0 171.5 61t47.5 221z
M211 1470q0 111 55.5 164.5t149.5 53.5q51 0 90.5 -15.5t65 -38t48 -45t52 -38t65.5 -15.5q111 0 111 131h102q0 -112 -57 -164.5t-152 -52.5q-53 0 -93.5 15.5t-66 38t-48 45t-51 38t-62.5 15.5q-54 0 -80.5 -35.5t-26.5 -96.5h-102z" />
    <glyph glyph-name="uni2000" unicode="&#x2000;" horiz-adv-x="1024" 
 />
    <glyph glyph-name="uni2001" unicode="&#x2001;" horiz-adv-x="2048" 
 />
    <glyph glyph-name="uni2002" unicode="&#x2002;" horiz-adv-x="1024" 
 />
    <glyph glyph-name="uni2003" unicode="&#x2003;" horiz-adv-x="2048" 
 />
    <glyph glyph-name="uni2004" unicode="&#x2004;" horiz-adv-x="681" 
 />
    <glyph glyph-name="uni2005" unicode="&#x2005;" horiz-adv-x="512" 
 />
    <glyph glyph-name="uni2006" unicode="&#x2006;" horiz-adv-x="342" 
 />
    <glyph glyph-name="uni2007" unicode="&#x2007;" horiz-adv-x="1335" 
 />
    <glyph glyph-name="uni2008" unicode="&#x2008;" horiz-adv-x="436" 
 />
    <glyph glyph-name="uni2009" unicode="&#x2009;" horiz-adv-x="256" 
 />
    <glyph glyph-name="uni200A" unicode="&#x200a;" horiz-adv-x="86" 
 />
    <glyph glyph-name="uni200B" unicode="&#x200b;" horiz-adv-x="0" 
 />
    <glyph glyph-name="endash" unicode="&#x2013;" horiz-adv-x="1572" 
d="M74 723h1425v-92h-1425v92z" />
    <glyph glyph-name="emdash" unicode="&#x2014;" horiz-adv-x="2605" 
d="M74 723h2457v-92h-2457v92z" />
    <glyph glyph-name="quoteleft" unicode="&#x2018;" horiz-adv-x="344" 
d="M197 1180h-129l106 512h109z" />
    <glyph glyph-name="quoteright" unicode="&#x2019;" horiz-adv-x="339" 
d="M160 1692h129l-107 -512h-108z" />
    <glyph glyph-name="quotesinglbase" unicode="&#x201a;" horiz-adv-x="335" 
d="M123 268h129l-107 -512h-108z" />
    <glyph glyph-name="quotedblleft" unicode="&#x201c;" horiz-adv-x="555" 
d="M410 1180h-129l106 512h109zM68 1180l106 512h109l-86 -512h-129z" />
    <glyph glyph-name="quotedblright" unicode="&#x201d;" horiz-adv-x="552" 
d="M160 1692h129l-107 -512h-108zM287 1180l86 512h129l-107 -512h-108z" />
    <glyph glyph-name="quotedblbase" unicode="&#x201e;" horiz-adv-x="546" 
d="M123 268h129l-107 -512h-108zM250 -246l86 512h129l-107 -512h-108z" />
    <glyph glyph-name="dagger" unicode="&#x2020;" horiz-adv-x="509" 
d="M203 647v617h-117v94h117v313h102v-313h117v-94h-117v-617h-102z" />
    <glyph glyph-name="daggerdbl" unicode="&#x2021;" horiz-adv-x="544" 
d="M221 647v293h-117v94h117v230h-117v94h117v313h103v-313h116v-94h-116v-230h116v-94h-116v-293h-103z" />
    <glyph glyph-name="bullet" unicode="&#x2022;" horiz-adv-x="770" 
d="M387 467q-105 0 -175.5 66.5t-70.5 171.5q0 111 70 178t176 67q101 0 171.5 -67.5t70.5 -177.5q0 -105 -71 -171.5t-171 -66.5z" />
    <glyph glyph-name="ellipsis" unicode="&#x2026;" horiz-adv-x="1189" 
d="M219 -20q-61 0 -102 38.5t-41 100.5q0 65 41 104t102 39q59 0 100 -39.5t41 -103.5q0 -61 -41 -100t-100 -39zM455 119q0 65 41 104t102 39q59 0 100 -39.5t41 -103.5q0 -61 -41 -100t-100 -39q-61 0 -102 38.5t-41 100.5zM829 119q0 65 41 104t103 39q59 0 100 -39.5
t41 -103.5q0 -61 -41 -100t-100 -39q-61 0 -102.5 38.5t-41.5 100.5z" />
    <glyph glyph-name="uni202F" unicode="&#x202f;" horiz-adv-x="389" 
 />
    <glyph glyph-name="perthousand" unicode="&#x2030;" horiz-adv-x="2260" 
d="M1905 -20q-79 0 -142 30.5t-101.5 81t-58.5 112.5t-20 130q0 67 20 128.5t58.5 112.5t101.5 81t142 30t141.5 -30t100.5 -81t57.5 -112.5t19.5 -128.5q0 -68 -19.5 -130t-57.5 -113t-100.5 -81t-141.5 -30zM45 1337q0 68 19.5 130t57.5 113t101 81.5t142 30.5t142 -30.5
t101 -81.5t58 -113t20 -130q0 -91 -33.5 -169t-108.5 -130.5t-179 -52.5q-64 0 -117.5 20t-90 54t-62.5 79t-38 95.5t-12 103.5zM207 1337q0 -93 41 -146.5t117 -53.5q78 0 118.5 53.5t40.5 146.5q0 95 -40.5 149t-118.5 54q-77 0 -117.5 -54.5t-40.5 -148.5zM287 0
l846 1671h116l-846 -1671h-116zM852 334q0 67 20 128.5t58.5 112.5t101.5 81t142 30q104 0 179 -52.5t108.5 -130.5t33.5 -169q0 -68 -20 -130t-58 -112.5t-101 -81t-142 -30.5t-142 30.5t-101.5 81t-58.5 112.5t-20 130zM1016 334q0 -94 40.5 -148.5t117.5 -54.5
q76 0 116.5 54.5t40.5 148.5q0 93 -40.5 147t-116.5 54t-117 -54t-41 -147zM1745 334q0 -94 41.5 -148.5t118.5 -54.5q76 0 116.5 54.5t40.5 148.5q0 93 -40.5 147t-116.5 54q-77 0 -118.5 -54t-41.5 -147z" />
    <glyph glyph-name="second" unicode="&#x2033;" horiz-adv-x="552" 
d="M102 1671h129v-512h-129v512zM322 1159v512h129v-512h-129z" />
    <glyph glyph-name="guilsinglleft" unicode="&#x2039;" horiz-adv-x="598" 
d="M479 285l-403 348v86l403 348v-145l-291 -246l291 -246v-145z" />
    <glyph glyph-name="guilsinglright" unicode="&#x203a;" horiz-adv-x="598" 
d="M119 285v145l293 246l-293 246v145l403 -348v-86z" />
    <glyph glyph-name="fraction" unicode="&#x2044;" horiz-adv-x="196" 
d="M553 1671l-827 -1671h-101l826 1671h102z" />
    <glyph glyph-name="uni205F" unicode="&#x205f;" horiz-adv-x="454" 
 />
    <glyph glyph-name="uni2070" unicode="&#x2070;" horiz-adv-x="681" 
d="M342 694q-137 0 -209 82.5t-72 233.5v227q0 149 72 231t209 82t209 -82t72 -231v-227q0 -151 -72 -233.5t-209 -82.5zM197 987v-24l264 417q-37 58 -119 58q-145 0 -145 -178v-273zM227 858q36 -51 115 -51q145 0 145 180v287z" />
    <glyph glyph-name="uni2074" unicode="&#x2074;" horiz-adv-x="632" 
d="M514 1540v-563h78v-115h-78v-157h-133v157h-348v123l352 555h129zM143 977h238v362z" />
    <glyph glyph-name="uni2075" unicode="&#x2075;" horiz-adv-x="653" 
d="M375 1266q106 0 167.5 -59.5t61.5 -180.5v-68q-3 -264 -274 -264q-133 0 -204 63.5t-71 186.5v21h135v-39q0 -119 142 -119q135 0 135 123v96q0 125 -131 125q-55 0 -88 -24.5t-55 -71.5h-130l27 485h477v-113h-356l-18 -251q63 90 182 90z" />
    <glyph glyph-name="uni2076" unicode="&#x2076;" horiz-adv-x="669" 
d="M338 694q-275 0 -275 281v260q0 161 67 238t212 77q128 0 191 -59.5t63 -165.5v-12h-135v10q0 107 -117 107q-73 0 -108 -34.5t-35 -107.5v-92q59 74 176 74q113 0 175 -64t62 -182v-74q0 -126 -70 -191t-206 -65zM201 932q0 -67 34 -96t105 -29q70 0 104.5 29.5
t34.5 93.5v98q0 125 -135 125q-143 0 -143 -123v-98z" />
    <glyph glyph-name="uni2077" unicode="&#x2077;" horiz-adv-x="569" 
d="M25 1427v113h512v-113q-66 -65 -113 -137.5t-73 -138t-41 -144.5t-19 -140.5t-4 -141.5v-20h-133v18q0 100 8.5 180t32.5 175t76.5 183.5t131.5 165.5h-378z" />
    <glyph glyph-name="uni2078" unicode="&#x2078;" horiz-adv-x="661" 
d="M332 694q-277 0 -277 224v32q0 85 35 136t96 65q-54 13 -85 55.5t-31 114.5v27q0 97 66.5 149.5t195.5 52.5t195.5 -52.5t66.5 -149.5v-29q0 -70 -32 -112.5t-85 -55.5q59 -14 94 -64t35 -137v-32q0 -224 -274 -224zM193 915q0 -63 32 -87.5t107 -24.5q74 0 106.5 24.5
t32.5 87.5v66q0 60 -33 84.5t-106 24.5q-74 0 -106.5 -24.5t-32.5 -84.5v-66zM205 1296q0 -50 30.5 -72t96.5 -22q63 0 94.5 22t32.5 72v52q-2 50 -31.5 72t-95.5 22q-67 0 -97 -22t-30 -72v-52z" />
    <glyph glyph-name="uni2079" unicode="&#x2079;" horiz-adv-x="669" 
d="M332 1550q138 0 205 -69t67 -211v-260q0 -161 -66 -238.5t-210 -77.5q-128 0 -191 60t-63 166v14h135v-12q0 -107 119 -107q71 0 106 34t35 107v93q-59 -74 -176 -74q-113 0 -175.5 64t-62.5 182v73q0 126 70.5 191t206.5 65zM190 1217q0 -125 136 -125q69 0 106 31
t37 91v99q0 67 -34 96t-105 29t-105.5 -29.5t-34.5 -93.5v-98z" />
    <glyph glyph-name="uni2080" unicode="&#x2080;" horiz-adv-x="681" 
d="M342 -266q-137 0 -209 82t-72 233v227q0 149 72 231.5t209 82.5t209 -82.5t72 -231.5v-227q0 -151 -72 -233t-209 -82zM197 27v-25l264 418q-37 57 -119 57q-145 0 -145 -178v-272zM227 -102q37 -52 115 -52q145 0 145 181v286z" />
    <glyph glyph-name="uni2081" unicode="&#x2081;" horiz-adv-x="538" 
d="M53 -143h166v573q-62 -59 -168 -59v121q120 0 178 88h121v-723h166v-113h-463v113z" />
    <glyph glyph-name="uni2082" unicode="&#x2082;" horiz-adv-x="657" 
d="M55 -133q0 109 44 181.5t155 115.5l90 37q66 26 95.5 61t29.5 96v15q0 57 -32 80.5t-99 23.5q-74 0 -107.5 -29.5t-33.5 -99.5v-45h-136v33q0 254 275 254q131 0 199.5 -60t68.5 -178q0 -185 -180 -252l-102 -45q-84 -31 -108 -71t-24 -127h412v-113h-547v123z" />
    <glyph glyph-name="uni2083" unicode="&#x2083;" horiz-adv-x="653" 
d="M324 -266q-139 0 -206.5 58.5t-68.5 184.5v31h133v-43q1 -67 35.5 -94t104.5 -27q74 0 106.5 26.5t32.5 84.5v53q0 63 -34.5 86t-100.5 23h-97v110h97q61 0 95 22.5t34 78.5v47q0 57 -33 80.5t-100 23.5q-65 0 -98 -25.5t-34 -88.5v-39h-133v26q3 122 69 180t198 58
q73 0 126.5 -19t82 -51.5t42 -69t13.5 -77.5v-19q0 -67 -30.5 -114t-86.5 -64q59 -17 91 -65.5t32 -122.5v-23q0 -231 -270 -231z" />
    <glyph glyph-name="uni2084" unicode="&#x2084;" horiz-adv-x="634" 
d="M516 580v-564h78v-114h-78v-158h-133v158h-348v123l352 555h129zM145 16h238v363z" />
    <glyph glyph-name="uni2085" unicode="&#x2085;" horiz-adv-x="653" 
d="M375 305q106 0 167.5 -59t61.5 -180v-68q-3 -264 -274 -264q-133 0 -204 63.5t-71 186.5v20h135v-39q0 -119 142 -119q135 0 135 123v97q0 124 -131 124q-55 0 -88 -24.5t-55 -71.5h-130l27 486h477v-113h-356l-18 -252q63 90 182 90z" />
    <glyph glyph-name="uni2086" unicode="&#x2086;" horiz-adv-x="669" 
d="M338 -266q-138 0 -206.5 69t-68.5 211v260q0 161 67 238.5t212 77.5q128 0 191 -59.5t63 -165.5v-13h-135v10q0 107 -117 107q-73 0 -108 -34t-35 -107v-92q58 73 176 73q113 0 175 -64t62 -182v-73q0 -126 -70 -191t-206 -65zM201 -29q0 -67 34 -96t105 -29
q70 0 104.5 29.5t34.5 93.5v99q0 125 -135 125q-143 0 -143 -123v-99z" />
    <glyph glyph-name="uni2087" unicode="&#x2087;" horiz-adv-x="567" 
d="M23 467v113h512v-113q-66 -65 -113 -138t-73 -138.5t-41 -144.5t-19 -140.5t-4 -141.5v-20h-133v18q0 100 8.5 180t32.5 175.5t76.5 184t131.5 165.5h-378z" />
    <glyph glyph-name="uni2088" unicode="&#x2088;" horiz-adv-x="661" 
d="M332 -266q-277 0 -277 223v33q0 85 35 135.5t96 64.5q-54 13 -85 55.5t-31 114.5v27q0 97 66.5 150t195.5 53t195.5 -53t66.5 -150v-29q0 -70 -32 -112.5t-85 -55.5q59 -14 94 -64t35 -136v-33q0 -223 -274 -223zM193 -45q0 -63 32 -88t107 -25q74 0 106.5 25t32.5 88v65
q0 60 -33 84.5t-106 24.5q-74 0 -106.5 -24.5t-32.5 -84.5v-65zM205 336q0 -50 30.5 -72t96.5 -22q63 0 94.5 22t32.5 72v51q-2 50 -31.5 72t-95.5 22q-67 0 -97 -22t-30 -72v-51z" />
    <glyph glyph-name="uni2089" unicode="&#x2089;" horiz-adv-x="669" 
d="M332 590q138 0 205 -69t67 -212v-260q0 -160 -66 -237.5t-210 -77.5q-128 0 -191 59.5t-63 165.5v14h135v-12q0 -106 119 -106q71 0 106 34t35 107v92q-59 -74 -176 -74q-113 0 -175.5 64t-62.5 182v74q0 126 70.5 191t206.5 65zM190 256q0 -125 136 -125q69 0 106 31.5
t37 91.5v98q0 67 -34 96t-105 29t-105.5 -29.5t-34.5 -93.5v-98z" />
    <glyph glyph-name="Euro" unicode="&#x20ac;" horiz-adv-x="1413" 
d="M92 711v82h141v86h-141v82h141v112q0 138 33.5 250t100 195t172 128.5t243.5 45.5q170 0 289.5 -70.5t178.5 -191.5t65 -285v-160h-219l-2 193q-6 162 -85 246.5t-225 84.5q-167 0 -249 -104t-82 -299v-145h446v-82h-446v-86h446v-82h-446v-144q0 -197 81.5 -301
t247.5 -104q148 0 227 85t85 249l2 192h219v-158q-9 -254 -144 -402t-389 -148q-138 0 -243.5 45.5t-172 128.5t-100 196t-33.5 252v109h-141z" />
    <glyph glyph-name="trademark" unicode="&#x2122;" horiz-adv-x="1374" 
d="M582 854v817h163l173 -600l174 600h159v-817h-135v532l-147 -532h-103l-149 528v-528h-135zM49 1534v137h486v-137h-175v-680h-137v680h-174z" />
    <glyph glyph-name="oneeighth" unicode="&#x215b;" horiz-adv-x="1650" 
d="M70 948h166v574q-63 -60 -168 -60v121q120 0 178 88h121v-723h165v-112h-462v112zM305 0l825 1671h103l-827 -1671h-101zM1044 213v33q0 85 35.5 135.5t96.5 64.5q-54 13 -85.5 55.5t-31.5 114.5v27q0 97 66.5 150t195.5 53t195.5 -53t66.5 -150v-29q0 -70 -32 -112.5
t-85 -55.5q59 -14 94 -64t35 -136v-33q0 -223 -274 -223q-277 0 -277 223zM1182 211q0 -63 32 -88t107 -25q74 0 106.5 25t32.5 88v65q0 60 -33 84.5t-106 24.5q-74 0 -106.5 -24.5t-32.5 -84.5v-65zM1194 592q0 -50 30.5 -72t96.5 -22q63 0 94.5 22t32.5 72v51
q-2 50 -31.5 72t-95.5 22q-67 0 -97 -22t-30 -72v-51z" />
    <glyph glyph-name="threeeighths" unicode="&#x215c;" horiz-adv-x="1751" 
d="M336 825q-139 0 -206.5 58.5t-68.5 185.5v31h134v-43q1 -68 35 -94.5t104 -26.5q74 0 106.5 26.5t32.5 84.5v53q0 63 -34.5 85.5t-100.5 22.5h-96v111h96q62 0 95.5 22t33.5 78v47q0 57 -33 81t-100 24q-65 0 -97.5 -26t-33.5 -89v-39h-133v27q3 122 68.5 179.5
t197.5 57.5q73 0 126.5 -19t82 -51.5t42 -69t13.5 -77.5v-18q0 -67 -30.5 -114t-86.5 -64q59 -17 91 -66t32 -123v-22q0 -232 -270 -232zM403 0l826 1671h100l-825 -1671h-101zM1141 213v33q0 85 35 135.5t96 64.5q-54 13 -85.5 55.5t-31.5 114.5v27q0 97 66.5 150t195.5 53
t195.5 -53t66.5 -150v-29q0 -70 -32 -112.5t-84 -55.5q59 -14 94 -64t35 -136v-33q0 -223 -275 -223q-276 0 -276 223zM1278 211q0 -63 32 -88t107 -25q74 0 106.5 25t32.5 88v65q0 60 -33 84.5t-106 24.5q-74 0 -106.5 -24.5t-32.5 -84.5v-65zM1290 592q0 -50 30.5 -72
t96.5 -22q63 0 94.5 22t32.5 72v51q-2 50 -31.5 72t-95.5 22q-67 0 -97 -22t-30 -72v-51z" />
    <glyph glyph-name="fiveeighths" unicode="&#x215d;" horiz-adv-x="1740" 
d="M377 1397q106 0 167.5 -59.5t61.5 -180.5v-67q-3 -265 -274 -265q-133 0 -204 63.5t-71 186.5v21h136v-39q0 -119 141 -119q135 0 135 123v96q0 125 -131 125q-55 0 -88 -24.5t-55 -71.5h-129l26 485h477v-112h-356l-18 -252q63 90 182 90zM395 0l826 1671h100
l-825 -1671h-101zM1133 213v33q0 85 35 135.5t96 64.5q-54 13 -85.5 55.5t-31.5 114.5v27q0 97 66.5 150t195.5 53t195.5 -53t66.5 -150v-29q0 -70 -32 -112.5t-85 -55.5q59 -14 94 -64t35 -136v-33q0 -223 -274 -223q-276 0 -276 223zM1270 211q0 -63 32 -88t107 -25
q74 0 106.5 25t32.5 88v65q0 60 -33 84.5t-106 24.5q-74 0 -106.5 -24.5t-32.5 -84.5v-65zM1282 592q0 -50 30.5 -72t96.5 -22q63 0 94.5 22t32.5 72v51q-2 50 -31.5 72t-95.5 22q-67 0 -97 -22t-30 -72v-51z" />
    <glyph glyph-name="seveneighths" unicode="&#x215e;" horiz-adv-x="1667" 
d="M33 1559v112h512v-112q-66 -65 -113 -138t-73 -138.5t-41 -144.5t-19 -140.5t-4 -141.5v-20h-133v18q0 100 8.5 180.5t33 175.5t77 183.5t131.5 165.5h-379zM317 0l826 1671h102l-827 -1671h-101zM1057 213v33q0 85 35 135.5t96 64.5q-54 13 -85.5 55.5t-31.5 114.5v27
q0 97 66.5 150t195.5 53t195.5 -53t66.5 -150v-29q0 -70 -32 -112.5t-84 -55.5q59 -14 94 -64t35 -136v-33q0 -223 -275 -223q-276 0 -276 223zM1194 211q0 -63 32 -88t107 -25q74 0 107 25t33 88v65q0 60 -33.5 84.5t-106.5 24.5q-74 0 -106.5 -24.5t-32.5 -84.5v-65z
M1206 592q0 -50 30.5 -72t96.5 -22q63 0 94.5 22t32.5 72v51q-2 50 -31.5 72t-95.5 22q-67 0 -97 -22t-30 -72v-51z" />
    <glyph glyph-name="arrowleft" unicode="&#x2190;" horiz-adv-x="1161" 
d="M240 633q107 -43 185.5 -138.5t100.5 -234.5h-106q-9 66 -43.5 128t-83.5 109t-104.5 81.5t-112.5 54.5v86q57 20 112.5 54.5t104.5 81.5t83.5 109t43.5 128h106q-22 -139 -100.5 -234.5t-185.5 -138.5h843v-86h-843z" />
    <glyph glyph-name="arrowup" unicode="&#x2191;" horiz-adv-x="966" 
d="M526 135h-86v844q-43 -107 -138 -186t-234 -101v107q87 12 166 68t129 127t77 149h86q20 -57 54.5 -112.5t81.5 -104.5t109 -83.5t128 -43.5v-107q-139 22 -234.5 101t-138.5 186v-844z" />
    <glyph glyph-name="arrowright" unicode="&#x2192;" horiz-adv-x="1161" 
d="M78 633v86h844q-107 43 -186 138.5t-101 234.5h106q9 -66 43.5 -128t83.5 -109t104.5 -81.5t112.5 -54.5v-86q-57 -20 -112.5 -54.5t-104.5 -81.5t-83.5 -109t-43.5 -128h-106q22 139 101 234.5t186 138.5h-844z" />
    <glyph glyph-name="arrowdown" unicode="&#x2193;" horiz-adv-x="970" 
d="M442 1219h86v-844q43 107 138.5 186t234.5 101v-107q-66 -9 -128 -43.5t-109 -83.5t-81.5 -104.5t-54.5 -112.5h-86q-27 78 -77 149t-129 127t-166 68v107q139 -22 234 -101t138 -186v844z" />
    <glyph glyph-name="arrowboth" unicode="&#x2194;" horiz-adv-x="1484" 
d="M76 731q122 37 224 137.5t120 229.5h106q-24 -140 -102.5 -234.5t-183.5 -132.5h1007q-106 38 -186 132.5t-103 234.5h109q18 -129 120 -229.5t224 -137.5v-98q-122 -37 -224 -137.5t-120 -229.5h-109q23 140 103 234.5t186 132.5h-1007q105 -38 183.5 -132.5
t102.5 -234.5h-106q-18 129 -120 229.5t-224 137.5v98z" />
    <glyph glyph-name="arrowupdn" unicode="&#x2195;" horiz-adv-x="983" 
d="M541 1327q37 -122 137 -224t229 -120v-106q-140 23 -234 102t-132 184v-1007q38 106 132 185.5t234 102.5v-108q-129 -18 -229 -120t-137 -224h-99q-37 122 -137 224t-229 120v108q140 -23 234 -102.5t132 -185.5v1007q-38 -105 -132 -184t-234 -102v106q129 18 229 120
t137 224h99z" />
    <glyph glyph-name="uni2196" unicode="&#x2196;" horiz-adv-x="937" 
d="M881 352l-62 -61l-596 598q29 -69 36 -143t-16.5 -160t-80.5 -164l-74 76q54 70 70 165t0.5 181.5t-52.5 159.5l62 61q75 -36 161.5 -51t181.5 1t165 70l74 -75q-77 -56 -163 -79t-160 -17t-142 34z" />
    <glyph glyph-name="uni2197" unicode="&#x2197;" horiz-adv-x="940" 
d="M119 293l-60 59l596 598q-69 -29 -143 -35.5t-160 16.5t-164 79l76 75q70 -54 165 -70t181.5 -1t159.5 51l61 -59q-36 -74 -50.5 -161t1.5 -182t70 -165l-76 -76q-56 78 -79 164t-16 160t36 143z" />
    <glyph glyph-name="uni2198" unicode="&#x2198;" horiz-adv-x="937" 
d="M57 1047l60 59l598 -596q-29 69 -36 143t16 160t79 164l76 -76q-54 -70 -70 -165t-1.5 -181.5t50.5 -159.5l-59 -61q-74 36 -161 50.5t-182 -1.5t-165 -70l-76 76q78 56 164 79t160 16.5t143 -35.5z" />
    <glyph glyph-name="uni2199" unicode="&#x2199;" horiz-adv-x="940" 
d="M821 1108l60 -61l-596 -596q69 29 143 35t160 -17.5t164 -79.5l-76 -76q-70 54 -165 70t-182 1.5t-161 -50.5l-59 61q36 73 50.5 159.5t-1.5 181.5t-70 165l76 76q56 -77 79 -163t16 -160.5t-36 -143.5z" />
    <glyph glyph-name="uni21E7" unicode="&#x21e7;" horiz-adv-x="1724" 
d="M494 -14v604h-426l794 883l795 -883h-426v-604h-737zM297 692h299v-604h532v604h299l-565 629z" />
    <glyph glyph-name="partialdiff" unicode="&#x2202;" horiz-adv-x="1280" 
d="M627 -246q-282 0 -431 142.5t-149 390.5q0 62 10.5 119t34 116t67 107t103.5 86t149.5 59t200.5 21q167 0 283 -51.5t178 -139.5q-55 272 -250.5 450.5t-572.5 282.5l37 93q467 -125 691 -388t224 -714q0 -276 -141 -425t-434 -149zM150 287q0 -209 121.5 -326
t355.5 -117q247 0 360 124t113 341q0 107 -38 185t-106.5 122.5t-153 65t-188.5 20.5q-464 0 -464 -415z" />
    <glyph glyph-name="emptyset" unicode="&#x2205;" horiz-adv-x="1533" 
d="M766 279q-120 0 -227 22l-160 -301h-109l174 328q-120 43 -201 121.5t-117 174.5t-36 210q0 91 24 171.5t77 150.5t130.5 120t191.5 79t253 29q120 0 227 -22l164 309h109l-179 -336q178 -64 266.5 -196.5t88.5 -304.5q0 -92 -24 -173.5t-77 -152t-130.5 -121t-191 -79.5
t-253.5 -29zM195 834q0 -95 27 -173.5t95 -145.5t172 -103l457 864q-93 14 -180 14q-126 0 -225 -25t-163 -67t-106 -101t-59.5 -124t-17.5 -139zM586 387q93 -14 180 -14q126 0 225 25t163 67.5t106 102t59.5 125t17.5 141.5q0 69 -16 130t-49.5 116.5t-92 99.5t-137.5 71z
" />
    <glyph glyph-name="product" unicode="&#x220f;" horiz-adv-x="1230" 
d="M850 -225v1554h-469v-1554h-102v1554h-250v86h1175v-86h-252v-1554h-102z" />
    <glyph glyph-name="summation" unicode="&#x2211;" horiz-adv-x="1189" 
d="M51 -236v86l561 742l-561 745v86h1086v-86h-965l561 -743l-561 -744h965v-86h-1086z" />
    <glyph glyph-name="minus" unicode="&#x2212;" horiz-adv-x="1347" 
d="M86 874h1176v-86h-1176v86z" />
    <glyph glyph-name="radical" unicode="&#x221a;" horiz-adv-x="1378" 
d="M440 -225l-372 733h112l318 -633l460 1538h373v-86h-295l-469 -1552h-127z" />
    <glyph glyph-name="infinity" unicode="&#x221e;" horiz-adv-x="1499" 
d="M1130 401q-57 0 -110 16.5t-102 50t-84.5 64t-83.5 78.5q-48 -48 -83.5 -79t-85 -64t-102.5 -49.5t-110 -16.5q-54 0 -101.5 15.5t-88 47t-64 86t-23.5 126.5q0 73 24.5 128t65.5 85.5t88 45.5t99 15q57 0 110 -16.5t102.5 -49.5t85 -64t83.5 -79q48 48 83.5 78.5
t84.5 64t102 50t110 16.5q52 0 99 -15t88 -45.5t65.5 -85.5t24.5 -128q0 -72 -23.5 -126.5t-63.5 -86t-88 -47t-102 -15.5zM195 676q0 -87 46 -131.5t132 -44.5q84 0 154.5 45t156.5 131q-86 86 -156.5 131t-154.5 45q-90 0 -134 -46t-44 -130zM815 676q85 -85 157 -130.5
t156 -45.5q85 0 131 45t46 131q0 82 -44.5 129t-134.5 47q-84 0 -154.5 -45t-156.5 -131z" />
    <glyph glyph-name="integral" unicode="&#x222b;" horiz-adv-x="813" 
d="M29 -246v84h53q85 0 138.5 16t83.5 54t41 90t11 133v916q0 96 17.5 163.5t58.5 118.5t113.5 76t179.5 25h61v-87h-53q-85 0 -138.5 -16t-83.5 -53.5t-41 -89t-11 -133.5v-916q0 -96 -17 -163t-58 -118t-114 -75.5t-180 -24.5h-61z" />
    <glyph glyph-name="approxequal" unicode="&#x2248;" horiz-adv-x="1404" 
d="M111 899q0 64 18 114t46.5 79.5t68.5 48.5t78 26t81 7q73 0 143 -22.5t124.5 -54.5t107 -64t113 -54.5t119.5 -22.5q86 0 137 44t51 128h105q0 -79 -27 -136t-72.5 -85.5t-93 -40.5t-102.5 -12q-73 0 -143 22.5t-124.5 54t-107 63.5t-113 54.5t-119.5 22.5
q-86 0 -137 -44t-51 -128h-102zM111 530q0 64 18 114t46.5 79.5t68.5 48.5t78 26t81 7q73 0 143 -22.5t124.5 -54.5t107 -63.5t113 -54t119.5 -22.5q86 0 137 44t51 128h105q0 -64 -18.5 -114t-47.5 -79.5t-69 -48.5t-78.5 -26t-81.5 -7q-73 0 -143 22.5t-124.5 54.5
t-107 63.5t-113 54t-119.5 22.5q-86 0 -137 -44t-51 -128h-102z" />
    <glyph glyph-name="notequal" unicode="&#x2260;" horiz-adv-x="1374" 
d="M393 315l174 347h-469v86h512l84 167h-596v86h639l172 347h107l-172 -347h430v-86h-473l-84 -167h557v-86h-600l-174 -347h-107z" />
    <glyph glyph-name="lessequal" unicode="&#x2264;" horiz-adv-x="1394" 
d="M106 901l1176 326v-103l-989 -264l989 -264v-158h-1176v86h1065l-1065 295v82z" />
    <glyph glyph-name="greaterequal" unicode="&#x2265;" horiz-adv-x="1394" 
d="M113 596l991 264l-991 264v103l1175 -326v-82l-1065 -295h1065v-86h-1175v158z" />
    <glyph glyph-name="uni2317" unicode="&#x2317;" horiz-adv-x="1503" 
d="M86 887v102h393v393h103v-393h340v393h102v-393h393v-102h-393v-340h393v-103h-393v-393h-102v393h-340v-393h-103v393h-393v103h393v340h-393zM582 547h340v340h-340v-340z" />
    <glyph glyph-name="uni2318" unicode="&#x2318;" horiz-adv-x="1599" 
d="M369 14q-125 0 -199 74t-74 199q0 134 92 208t271 74h90v295h-90q-179 0 -271 74.5t-92 208.5q0 124 74 198t199 74q134 0 208 -91.5t74 -270.5v-90h295v90q0 178 74.5 270t208.5 92q125 0 198.5 -73.5t73.5 -198.5q0 -134 -92 -208.5t-270 -74.5h-90v-295h90
q179 0 270.5 -74t91.5 -208q0 -125 -74 -199t-198 -74q-134 0 -208.5 92t-74.5 271v90h-295v-90q0 -179 -74 -271t-208 -92zM199 287q0 -88 41 -129t129 -41q95 0 137.5 59t42.5 201v90h-90q-142 0 -201 -42.5t-59 -137.5zM199 1147q0 -95 59 -137.5t201 -42.5h90v90
q0 142 -42.5 201t-137.5 59q-88 0 -129 -41t-41 -129zM651 569h295v295h-295v-295zM1049 377q0 -142 42.5 -201t137.5 -59q88 0 129 41t41 129q0 95 -59 137.5t-201 42.5h-90v-90zM1049 967h90q142 0 201 42.5t59 137.5q0 88 -41 129t-129 41q-95 0 -137.5 -59t-42.5 -201
v-90z" />
    <glyph glyph-name="uni2325" unicode="&#x2325;" horiz-adv-x="1579" 
d="M852 115l-490 1102h-333v102h399l492 -1102h540v-102h-608zM764 1217v102h696v-102h-696z" />
    <glyph glyph-name="filledbox" unicode="&#x25a0;" horiz-adv-x="1392" 
d="M137 158v1118h1118v-1118h-1118z" />
    <glyph glyph-name="uni25A1" unicode="&#x25a1;" horiz-adv-x="1392" 
d="M137 158v1118h1118v-1118h-1118zM240 260h913v914h-913v-914z" />
    <glyph glyph-name="triagup" unicode="&#x25b2;" horiz-adv-x="1431" 
d="M35 31l682 1179l680 -1179h-1362z" />
    <glyph glyph-name="uni25B3" unicode="&#x25b3;" horiz-adv-x="1495" 
d="M37 31l711 1231l710 -1231h-1421zM213 133h1067l-532 924z" />
    <glyph glyph-name="uni25B6" unicode="&#x25b6;" horiz-adv-x="1396" 
d="M147 1393l1180 -680l-1180 -682v1362z" />
    <glyph glyph-name="uni25B7" unicode="&#x25b7;" horiz-adv-x="1449" 
d="M147 -6v1421l1231 -710zM250 170l924 535l-924 532v-1067z" />
    <glyph glyph-name="triagdn" unicode="&#x25bc;" horiz-adv-x="1454" 
d="M1407 1210l-682 -1179l-680 1179h1362z" />
    <glyph glyph-name="uni25BD" unicode="&#x25bd;" horiz-adv-x="1511" 
d="M756 -20l-711 1230h1421zM223 1108l533 -924l534 924h-1067z" />
    <glyph glyph-name="uni25C0" unicode="&#x25c0;" horiz-adv-x="1396" 
d="M1249 31l-1179 682l1179 680v-1362z" />
    <glyph glyph-name="uni25C1" unicode="&#x25c1;" horiz-adv-x="1449" 
d="M1303 -6l-1231 711l1231 710v-1421zM276 705l924 -535v1067z" />
    <glyph glyph-name="uni25C6" unicode="&#x25c6;" horiz-adv-x="1488" 
d="M745 51l-667 666l667 667l666 -667z" />
    <glyph glyph-name="uni25C7" unicode="&#x25c7;" horiz-adv-x="1529" 
d="M764 29l-686 688l688 688l686 -688zM221 717l545 -543l543 543l-545 543z" />
    <glyph glyph-name="lozenge" unicode="&#x25ca;" horiz-adv-x="937" 
d="M395 1280h148l315 -614l-315 -615h-148l-315 615zM190 666l279 -543l279 543l-279 542z" />
    <glyph glyph-name="circle" unicode="&#x25cb;" horiz-adv-x="1427" 
d="M715 92q-170 0 -314 84t-227.5 228t-83.5 313q0 127 49.5 242.5t133 199t199.5 133t243 49.5t242 -49.5t198.5 -133t132.5 -199t49 -242.5q0 -169 -83 -313t-226.5 -228t-312.5 -84zM193 717q0 -221 150.5 -370.5t371.5 -149.5q144 0 263.5 68t188 187.5t68.5 264.5
t-68.5 264.5t-188 187.5t-263.5 68q-221 0 -371.5 -149.5t-150.5 -370.5z" />
    <glyph glyph-name="uni25CF" unicode="&#x25cf;" horiz-adv-x="1429" 
d="M715 94q-170 0 -314 83.5t-227.5 227t-83.5 312.5q0 127 49.5 242.5t133 199t199.5 133t243 49.5t242 -49.5t198.5 -133t132.5 -199t49 -242.5q0 -169 -83 -312.5t-226.5 -227t-312.5 -83.5z" />
    <glyph glyph-name="uni2B1B" unicode="&#x2b1b;" horiz-adv-x="2119" 
d="M199 -143v1720h1720v-1720h-1720z" />
    <glyph glyph-name="uni2B1C" unicode="&#x2b1c;" horiz-adv-x="2119" 
d="M199 -143v1720h1720v-1720h-1720zM301 -41h1516v1516h-1516v-1516z" />
    <glyph glyph-name="uni2B98" unicode="&#x2b98;" horiz-adv-x="1458" 
d="M1372 -39l-1288 744l1288 743l-321 -743zM289 705h649l217 499z" />
    <glyph glyph-name="uni2B99" unicode="&#x2b99;" horiz-adv-x="1529" 
d="M20 -27l744 1289l743 -1289l-743 322zM764 408l500 -218l-500 867v-649z" />
    <glyph glyph-name="uni2B9A" unicode="&#x2b9a;" horiz-adv-x="1458" 
d="M86 -39l322 744l-322 743l1288 -743zM303 1204l217 -499h649z" />
    <glyph glyph-name="uni2B9B" unicode="&#x2b9b;" horiz-adv-x="1531" 
d="M766 -20l-743 1288l743 -322l743 322zM266 1051l500 -867v650z" />
    <glyph glyph-name="uni2B9C" unicode="&#x2b9c;" horiz-adv-x="1355" 
d="M1262 31l-1180 682l1180 680l-295 -680z" />
    <glyph glyph-name="uni2B9D" unicode="&#x2b9d;" horiz-adv-x="1415" 
d="M27 31l682 1179l680 -1179l-680 295z" />
    <glyph glyph-name="uni2B9E" unicode="&#x2b9e;" horiz-adv-x="1355" 
d="M94 31l295 682l-295 680l1180 -680z" />
    <glyph glyph-name="uni2B9F" unicode="&#x2b9f;" horiz-adv-x="1417" 
d="M707 31l-680 1179l680 -295l682 295z" />
    <glyph glyph-name="uni3000" unicode="&#x3000;" horiz-adv-x="2048" 
 />
    <glyph glyph-name="uni004A0301" horiz-adv-x="1193" 
d="M557 -20q-263 0 -385.5 140.5t-122.5 420.5v84h219v-119q0 -187 69 -265.5t220 -78.5q146 0 217.5 77t71.5 259v1173h217v-1141q0 -273 -122.5 -411.5t-383.5 -138.5zM575 1888l728 152l20 -80l-727 -150z" />
    <glyph glyph-name="I.bracket" horiz-adv-x="577" 
d="M182 0v1671h213v-1671h-213z" />
    <glyph glyph-name="A.ss01" horiz-adv-x="1406" 
d="M33 0l530 1671h281l530 -1671h-225l-100 334h-693l-100 -334h-223zM414 520h577l-278 924l-11 29l-10 -29z" />
    <glyph glyph-name="Aacute.ss01" horiz-adv-x="1406" 
d="M33 0l530 1671h281l530 -1671h-225l-100 334h-693l-100 -334h-223zM252 1872l883 151l20 -79l-883 -152zM414 520h577l-278 924l-11 29l-10 -29z" />
    <glyph glyph-name="Abreve.ss01" horiz-adv-x="1406" 
d="M33 0l530 1671h281l530 -1671h-225l-100 334h-693l-100 -334h-223zM289 2030h102q0 -150 316 -150q145 0 227 33.5t82 116.5h102q0 -67 -29.5 -114t-86 -73t-128 -37.5t-167.5 -11.5t-168.5 11.5t-130.5 37.5t-88.5 73t-30.5 114zM414 520h577l-278 924l-11 29l-10 -29z
" />
    <glyph glyph-name="Acircumflex.ss01" horiz-adv-x="1406" 
d="M33 0l530 1671h281l530 -1671h-225l-100 334h-693l-100 -334h-223zM299 1769l336 254h143l330 -254h-164l-237 189l-242 -189h-166zM414 520h577l-278 924l-11 29l-10 -29z" />
    <glyph glyph-name="Adieresis.ss01" horiz-adv-x="1406" 
d="M33 0l530 1671h281l530 -1671h-225l-100 334h-693l-100 -334h-223zM332 1896q0 44 28 71.5t68 27.5q38 0 66 -27.5t28 -71.5q0 -40 -28 -66t-66 -26q-39 0 -67.5 26t-28.5 66zM414 520h577l-278 924l-11 29l-10 -29zM885 1896q0 44 28 71.5t68 27.5q38 0 66 -27.5
t28 -71.5q0 -40 -28 -66t-66 -26q-39 0 -67.5 26t-28.5 66z" />
    <glyph glyph-name="Agrave.ss01" horiz-adv-x="1406" 
d="M33 0l530 1671h281l530 -1671h-225l-100 334h-693l-100 -334h-223zM252 1944l20 79l883 -151l-20 -80zM414 520h577l-278 924l-11 29l-10 -29z" />
    <glyph glyph-name="Amacron.ss01" horiz-adv-x="1406" 
d="M33 0l530 1671h281l530 -1671h-225l-100 334h-693l-100 -334h-223zM252 1868v82h903v-82h-903zM414 520h577l-278 924l-11 29l-10 -29z" />
    <glyph glyph-name="Aogonek.ss01" horiz-adv-x="1406" 
d="M33 0l530 1671h281l530 -1671q-111 -36 -164 -82t-53 -111q0 -63 55.5 -90.5t186.5 -27.5h20l-82 -99h-18q-126 0 -201.5 47t-75.5 136q0 48 20 86t56 64.5t74.5 44t87.5 32.5h-131l-100 334h-693l-100 -334h-223zM414 520h577l-278 924l-11 29l-10 -29z" />
    <glyph glyph-name="Aring.ss01" horiz-adv-x="1406" 
d="M33 0l530 1671h281l530 -1671h-225l-100 334h-693l-100 -334h-223zM414 520h577l-278 924l-11 29l-10 -29zM539 1929q0 71 49.5 118.5t116.5 47.5t116 -47.5t49 -118.5t-49 -118.5t-116 -47.5t-116.5 47.5t-49.5 118.5zM625 1929q0 -37 21 -58.5t59 -21.5t58.5 21.5
t20.5 58.5t-20.5 58.5t-58.5 21.5t-59 -21.5t-21 -58.5z" />
    <glyph glyph-name="Atilde.ss01" horiz-adv-x="1406" 
d="M33 0l530 1671h281l530 -1671h-225l-100 334h-693l-100 -334h-223zM295 1806q0 107 60.5 165.5t166.5 58.5q54 0 96.5 -16t70.5 -38.5t54 -45t60 -38.5t76 -16q65 0 98 35.5t33 99.5h102q0 -111 -61.5 -167t-171.5 -56q-57 0 -101.5 16t-73 38.5t-53.5 45t-57 38.5
t-70 16q-63 0 -95 -37t-32 -99h-102zM414 520h577l-278 924l-11 29l-10 -29z" />
    <glyph glyph-name="B.ss01" horiz-adv-x="1460" 
d="M143 0v1671h719q227 0 343 -98t116 -311v-37q0 -141 -54 -222t-155 -118q117 -34 188.5 -134t71.5 -257v-37q0 -232 -121.5 -344.5t-367.5 -112.5h-740zM356 186h504q154 0 223.5 61t69.5 204v65q0 140 -74 200t-223 60h-500v-590zM356 963h471q138 0 205.5 54.5
t67.5 182.5v55q0 60 -13 102t-34 67t-57 38.5t-72.5 18t-89.5 4.5h-478v-522z" />
    <glyph glyph-name="C.ss01" horiz-adv-x="1523" 
d="M778 -20q-166 0 -298 53t-215.5 146.5t-127 217.5t-43.5 271v340q0 146 43.5 269.5t127 216.5t215.5 145.5t298 52.5q153 0 275.5 -43.5t204 -121t127 -182t51.5 -229.5l2 -131h-221l-3 152q-11 175 -122.5 271.5t-311.5 96.5q-230 0 -347.5 -126.5t-117.5 -348.5v-387
q0 -225 116.5 -351t346.5 -126q203 0 314 96.5t122 272.5l3 153h221l-2 -131q-5 -124 -50.5 -228.5t-126.5 -182.5t-204.5 -122t-276.5 -44z" />
    <glyph glyph-name="Cacute.ss01" horiz-adv-x="1523" 
d="M778 -20q-166 0 -298 53t-215.5 146.5t-127 217.5t-43.5 271v340q0 146 43.5 269.5t127 216.5t215.5 145.5t298 52.5q153 0 275.5 -43.5t204 -121t127 -182t51.5 -229.5l2 -131h-221l-3 152q-11 175 -122.5 271.5t-311.5 96.5q-230 0 -347.5 -126.5t-117.5 -348.5v-387
q0 -225 116.5 -351t346.5 -126q203 0 314 96.5t122 272.5l3 153h221l-2 -131q-5 -124 -50.5 -228.5t-126.5 -182.5t-204.5 -122t-276.5 -44zM313 1872l883 151l21 -79l-883 -152z" />
    <glyph glyph-name="Ccaron.ss01" horiz-adv-x="1523" 
d="M778 -20q-166 0 -298 53t-215.5 146.5t-127 217.5t-43.5 271v340q0 146 43.5 269.5t127 216.5t215.5 145.5t298 52.5q153 0 275.5 -43.5t204 -121t127 -182t51.5 -229.5l2 -131h-221l-3 152q-11 175 -122.5 271.5t-311.5 96.5q-230 0 -347.5 -126.5t-117.5 -348.5v-387
q0 -225 116.5 -351t346.5 -126q203 0 314 96.5t122 272.5l3 153h221l-2 -131q-5 -124 -50.5 -228.5t-126.5 -182.5t-204.5 -122t-276.5 -44zM360 2048h166l242 -188l238 188h163l-329 -254h-144z" />
    <glyph glyph-name="Ccedilla.ss01" horiz-adv-x="1523" 
d="M633 -336q142 0 200 14.5t58 61.5q0 49 -57 58.5t-164 -7.5l45 191q-151 10 -270 66.5t-195.5 148.5t-116 211.5t-39.5 259.5v340q0 146 43.5 269.5t127 216.5t215.5 145.5t298 52.5q153 0 275.5 -43.5t204 -121t127 -182t51.5 -229.5l2 -131h-221l-3 152
q-11 175 -122.5 271.5t-311.5 96.5q-230 0 -347.5 -126.5t-117.5 -348.5v-387q0 -225 116.5 -351t346.5 -126q203 0 314 96.5t122 272.5l3 153h221l-2 -131q-11 -249 -174 -408.5t-451 -168.5l-29 -109q224 27 224 -127q0 -93 -88.5 -130.5t-286.5 -37.5z" />
    <glyph glyph-name="Cdotaccent.ss01" horiz-adv-x="1523" 
d="M778 -20q-166 0 -298 53t-215.5 146.5t-127 217.5t-43.5 271v340q0 146 43.5 269.5t127 216.5t215.5 145.5t298 52.5q153 0 275.5 -43.5t204 -121t127 -182t51.5 -229.5l2 -131h-221l-3 152q-11 175 -122.5 271.5t-311.5 96.5q-230 0 -347.5 -126.5t-117.5 -348.5v-387
q0 -225 116.5 -351t346.5 -126q203 0 314 96.5t122 272.5l3 153h221l-2 -131q-5 -124 -50.5 -228.5t-126.5 -182.5t-204.5 -122t-276.5 -44zM641 1890q0 49 33.5 82t91.5 33t91.5 -33t33.5 -82q0 -46 -33.5 -78t-91.5 -32t-91.5 32t-33.5 78z" />
    <glyph glyph-name="D.ss01" horiz-adv-x="1501" 
d="M143 0v1671h607q318 0 484.5 -159.5t166.5 -510.5v-331q0 -178 -44 -307.5t-129 -208.5t-203.5 -116.5t-274.5 -37.5h-607zM356 182h394q228 0 330 112.5t102 360.5v361q0 248 -102.5 360.5t-331.5 112.5h-392v-1307z" />
    <glyph glyph-name="Eth.ss01" horiz-adv-x="1622" 
d="M264 0v791h-223v116h223v764h606q318 0 485 -159.5t167 -510.5v-331q0 -178 -44 -307.5t-129.5 -208.5t-204 -116.5t-274.5 -37.5h-606zM477 182h393q228 0 330.5 112.5t102.5 360.5v361q0 248 -102.5 360.5t-332.5 112.5h-391v-582h486v-116h-486v-609z" />
    <glyph glyph-name="Dcaron.ss01" horiz-adv-x="1501" 
d="M143 0v1671h607q318 0 484.5 -159.5t166.5 -510.5v-331q0 -178 -44 -307.5t-129 -208.5t-203.5 -116.5t-274.5 -37.5h-607zM344 2048h166l242 -188l237 188h164l-330 -254h-143zM356 182h394q228 0 330 112.5t102 360.5v361q0 248 -102.5 360.5t-331.5 112.5h-392v-1307z
" />
    <glyph glyph-name="Dcroat.ss01" horiz-adv-x="1622" 
d="M264 0v791h-223v116h223v764h606q318 0 485 -159.5t167 -510.5v-331q0 -178 -44 -307.5t-129.5 -208.5t-204 -116.5t-274.5 -37.5h-606zM477 182h393q228 0 330.5 112.5t102.5 360.5v361q0 248 -102.5 360.5t-332.5 112.5h-391v-582h486v-116h-486v-609z" />
    <glyph glyph-name="E.ss01" horiz-adv-x="1267" 
d="M143 0v1671h1035v-186h-822v-557h781v-185h-781v-557h822v-186h-1035z" />
    <glyph glyph-name="Eacute.ss01" horiz-adv-x="1267" 
d="M143 0v1671h1035v-186h-822v-557h781v-185h-781v-557h822v-186h-1035zM182 1872l883 151l20 -79l-882 -152z" />
    <glyph glyph-name="Ecaron.ss01" horiz-adv-x="1267" 
d="M143 0v1671h1035v-186h-822v-557h781v-185h-781v-557h822v-186h-1035zM229 2048h166l242 -188l237 188h164l-329 -254h-144z" />
    <glyph glyph-name="Ecircumflex.ss01" horiz-adv-x="1267" 
d="M143 0v1671h1035v-186h-822v-557h781v-185h-781v-557h822v-186h-1035zM229 1769l336 254h144l329 -254h-164l-237 189l-242 -189h-166z" />
    <glyph glyph-name="Edieresis.ss01" horiz-adv-x="1267" 
d="M143 0v1671h1035v-186h-822v-557h781v-185h-781v-557h822v-186h-1035zM262 1896q0 44 28 71.5t68 27.5q38 0 66.5 -27.5t28.5 -71.5q0 -40 -28.5 -66t-66.5 -26q-39 0 -67.5 26t-28.5 66zM815 1896q0 44 28 71.5t68 27.5q38 0 66.5 -27.5t28.5 -71.5q0 -40 -28.5 -66
t-66.5 -26q-39 0 -67.5 26t-28.5 66z" />
    <glyph glyph-name="Edotaccent.ss01" horiz-adv-x="1267" 
d="M143 0v1671h1035v-186h-822v-557h781v-185h-781v-557h822v-186h-1035zM510 1890q0 49 33.5 82t91.5 33t91.5 -33t33.5 -82q0 -46 -33.5 -78t-91.5 -32t-91.5 32t-33.5 78z" />
    <glyph glyph-name="Egrave.ss01" horiz-adv-x="1267" 
d="M143 0v1671h1035v-186h-822v-557h781v-185h-781v-557h822v-186h-1035zM182 1944l21 79l882 -151l-20 -80z" />
    <glyph glyph-name="Emacron.ss01" horiz-adv-x="1267" 
d="M143 0v1671h1035v-186h-822v-557h781v-185h-781v-557h822v-186h-1035zM182 1868v82h903v-82h-903z" />
    <glyph glyph-name="Eogonek.ss01" horiz-adv-x="1267" 
d="M143 0v1671h1035v-186h-822v-557h781v-185h-781v-557h822v-186h2q-111 -36 -164 -82t-53 -111q0 -63 55 -90.5t186 -27.5h21l-82 -99h-19q-126 0 -201 47t-75 136q0 90 65.5 142.5t171.5 84.5h-942z" />
    <glyph glyph-name="F.ss01" horiz-adv-x="1247" 
d="M143 0v1671h1051v-186h-838v-631h793v-184h-793v-670h-213z" />
    <glyph glyph-name="G.ss01" horiz-adv-x="1550" 
d="M750 -20q-156 0 -281.5 53t-206 145.5t-123.5 216.5t-43 269v344q0 146 42.5 269.5t125 216.5t214 145.5t298.5 52.5q149 0 271 -43.5t204 -120t129 -178.5t54 -220l2 -92h-224l-2 115q-10 166 -126 259t-306 93q-230 0 -346.5 -129t-116.5 -346v-385
q0 -220 113.5 -349.5t335.5 -129.5q199 0 316.5 102t129.5 289v123h-536v174h762v-854h-138l-24 256q-74 -129 -206 -202.5t-318 -73.5z" />
    <glyph glyph-name="Gbreve.ss01" horiz-adv-x="1550" 
d="M750 -20q-156 0 -281.5 53t-206 145.5t-123.5 216.5t-43 269v344q0 146 42.5 269.5t125 216.5t214 145.5t298.5 52.5q149 0 271 -43.5t204 -120t129 -178.5t54 -220l2 -92h-224l-2 115q-10 166 -126 259t-306 93q-230 0 -346.5 -129t-116.5 -346v-385
q0 -220 113.5 -349.5t335.5 -129.5q199 0 316.5 102t129.5 289v123h-536v174h762v-854h-138l-24 256q-74 -129 -206 -202.5t-318 -73.5zM360 2030h103q0 -150 315 -150q145 0 227 33.5t82 116.5h103q0 -67 -29.5 -114t-86.5 -73t-128.5 -37.5t-167.5 -11.5t-168.5 11.5
t-130.5 37.5t-88.5 73t-30.5 114z" />
    <glyph glyph-name="uni0122.ss01" horiz-adv-x="1550" 
d="M750 -20q-156 0 -281.5 53t-206 145.5t-123.5 216.5t-43 269v344q0 146 42.5 269.5t125 216.5t214 145.5t298.5 52.5q149 0 271 -43.5t204 -120t129 -178.5t54 -220l2 -92h-224l-2 115q-10 166 -126 259t-306 93q-230 0 -346.5 -129t-116.5 -346v-385
q0 -220 113.5 -349.5t335.5 -129.5q199 0 316.5 102t129.5 289v123h-536v174h762v-854h-138l-24 256q-74 -129 -206 -202.5t-318 -73.5zM674 -172q0 42 28.5 71t73.5 29q47 0 75 -30.5t28 -90.5q0 -71 -45.5 -134.5t-133.5 -106.5v84q102 39 125 119q-26 -33 -65 -33
q-35 0 -60.5 25.5t-25.5 66.5z" />
    <glyph glyph-name="Gdotaccent.ss01" horiz-adv-x="1550" 
d="M750 -20q-156 0 -281.5 53t-206 145.5t-123.5 216.5t-43 269v344q0 146 42.5 269.5t125 216.5t214 145.5t298.5 52.5q149 0 271 -43.5t204 -120t129 -178.5t54 -220l2 -92h-224l-2 115q-10 166 -126 259t-306 93q-230 0 -346.5 -129t-116.5 -346v-385
q0 -220 113.5 -349.5t335.5 -129.5q199 0 316.5 102t129.5 289v123h-536v174h762v-854h-138l-24 256q-74 -129 -206 -202.5t-318 -73.5zM651 1890q0 49 33.5 82t91.5 33t91.5 -33t33.5 -82q0 -46 -33.5 -78t-91.5 -32t-91.5 32t-33.5 78z" />
    <glyph glyph-name="H.ss01" horiz-adv-x="1495" 
d="M1139 0v743h-783v-743h-213v1671h213v-743h783v743h215v-1671h-215z" />
    <glyph glyph-name="Hbar.ss01" horiz-adv-x="1699" 
d="M1241 0v743h-782v-743h-213v1184h-193v121h193v366h213v-366h782v366h215v-366h189v-121h-189v-1184h-215zM459 928h782v256h-782v-256z" />
    <glyph glyph-name="I.ss01" horiz-adv-x="1030" 
d="M86 0v193h324v1286h-324v192h858v-192h-321v-1286h321v-193h-858z" />
    <glyph glyph-name="Iacute.ss01" horiz-adv-x="1030" 
d="M86 0v193h324v1286h-324v192h858v-192h-321v-1286h321v-193h-858zM63 1872l883 151l21 -79l-883 -152z" />
    <glyph glyph-name="Icircumflex.ss01" horiz-adv-x="1030" 
d="M86 0v193h324v1286h-324v192h858v-192h-321v-1286h321v-193h-858zM111 1769l335 254h144l330 -254h-164l-238 189l-242 -189h-165z" />
    <glyph glyph-name="Idieresis.ss01" horiz-adv-x="1030" 
d="M86 0v193h324v1286h-324v192h858v-192h-321v-1286h321v-193h-858zM143 1896q0 44 28.5 71.5t68.5 27.5q38 0 66 -27.5t28 -71.5q0 -40 -28 -66t-66 -26q-39 0 -68 26t-29 66zM696 1896q0 44 28.5 71.5t68.5 27.5q38 0 66 -27.5t28 -71.5q0 -40 -28 -66t-66 -26
q-39 0 -68 26t-29 66z" />
    <glyph glyph-name="Idotaccent.ss01" horiz-adv-x="1030" 
d="M86 0v193h324v1286h-324v192h858v-192h-321v-1286h321v-193h-858zM391 1890q0 49 33.5 82t91.5 33t91.5 -33t33.5 -82q0 -46 -33.5 -78t-91.5 -32t-91.5 32t-33.5 78z" />
    <glyph glyph-name="Igrave.ss01" horiz-adv-x="1030" 
d="M86 0v193h324v1286h-324v192h858v-192h-321v-1286h321v-193h-858zM63 1944l21 79l883 -151l-21 -80z" />
    <glyph glyph-name="Imacron.ss01" horiz-adv-x="1030" 
d="M86 0v193h324v1286h-324v192h858v-192h-321v-1286h321v-193h-858zM63 1868v82h904v-82h-904z" />
    <glyph glyph-name="Iogonek.ss01" horiz-adv-x="1030" 
d="M86 0v193h324v1286h-324v192h858v-192h-321v-1286h321v-193h2q-111 -36 -164 -82t-53 -111q0 -63 55.5 -90.5t186.5 -27.5h20l-82 -99h-18q-126 0 -201.5 47t-75.5 136q0 48 20 86t56 64.5t74.5 44t87.5 32.5h-766z" />
    <glyph glyph-name="J.ss01" horiz-adv-x="1341" 
d="M633 -20q-301 0 -439.5 152t-138.5 458v67h219v-90q0 -216 84 -308.5t275 -92.5q185 0 272.5 90t87.5 297v1118h215v-1093q0 -298 -139 -448t-436 -150z" />
    <glyph glyph-name="K.ss01" horiz-adv-x="1382" 
d="M1102 0l-637 739h-109v-739h-213v1671h213v-739h109l637 739h268l-735 -835l735 -836h-268z" />
    <glyph glyph-name="uni0136.ss01" horiz-adv-x="1382" 
d="M1102 0l-637 739h-109v-739h-213v1671h213v-739h109l637 739h268l-735 -835l735 -836h-268zM618 -172q0 42 29 71t74 29q47 0 74.5 -30.5t27.5 -90.5q0 -71 -45 -134.5t-133 -106.5v84q102 39 125 119q-26 -33 -65 -33q-35 0 -61 25.5t-26 66.5z" />
    <glyph glyph-name="L.ss01" horiz-adv-x="1212" 
d="M143 0v1671h213v-1485h818v-186h-1031z" />
    <glyph glyph-name="Lacute.ss01" horiz-adv-x="1212" 
d="M143 0v1671h213v-1485h818v-186h-1031zM166 1872l883 151l20 -79l-883 -152z" />
    <glyph glyph-name="Lcaron.ss01" horiz-adv-x="1230" 
d="M143 0v1671h213v-1485h818v-186h-1031zM643 1190l64 481h137l-105 -481h-96z" />
    <glyph glyph-name="uni013B.ss01" horiz-adv-x="1212" 
d="M143 0v1671h213v-1485h818v-186h-1031zM524 -172q0 42 29 71t74 29q47 0 74.5 -30.5t27.5 -90.5q0 -71 -45 -134.5t-133 -106.5v84q102 39 125 119q-26 -33 -66 -33q-35 0 -60.5 25.5t-25.5 66.5z" />
    <glyph glyph-name="Lslash.ss01" horiz-adv-x="1339" 
d="M270 0v680l-223 -90v135l223 90v856h213v-770l430 174v-135l-430 -174v-580h817v-186h-1030z" />
    <glyph glyph-name="M.ss01" horiz-adv-x="1775" 
d="M143 0v1671h246l498 -1300l499 1300h246v-1671h-202v1247l-482 -1247h-123l-479 1247v-1247h-203z" />
    <glyph glyph-name="N.ss01" horiz-adv-x="1523" 
d="M143 0v1671h207l828 -1288v1288h204v-1671h-206l-828 1288v-1288h-205z" />
    <glyph glyph-name="Nacute.ss01" horiz-adv-x="1523" 
d="M143 0v1671h207l828 -1288v1288h204v-1671h-206l-828 1288v-1288h-205zM309 1872l883 151l20 -79l-882 -152z" />
    <glyph glyph-name="Ncaron.ss01" horiz-adv-x="1523" 
d="M143 0v1671h207l828 -1288v1288h204v-1671h-206l-828 1288v-1288h-205zM356 2048h166l242 -188l237 188h164l-329 -254h-144z" />
    <glyph glyph-name="uni0145.ss01" horiz-adv-x="1523" 
d="M143 0v1671h207l828 -1288v1288h204v-1671h-206l-828 1288v-1288h-205zM659 -172q0 42 29 71t74 29q47 0 74.5 -30.5t27.5 -90.5q0 -71 -45 -134.5t-133 -106.5v84q102 39 125 119q-26 -33 -66 -33q-35 0 -60.5 25.5t-25.5 66.5z" />
    <glyph glyph-name="Ntilde.ss01" horiz-adv-x="1523" 
d="M143 0v1671h207l828 -1288v1288h204v-1671h-206l-828 1288v-1288h-205zM352 1806q0 107 61 165.5t167 58.5q54 0 96.5 -16t70 -38.5t53.5 -45t60 -38.5t76 -16q65 0 98 35.5t33 99.5h102q0 -111 -61.5 -167t-171.5 -56q-57 0 -101.5 16t-72.5 38.5t-53.5 45t-57 38.5
t-69.5 16q-63 0 -95 -37t-32 -99h-103z" />
    <glyph glyph-name="O.ss01" horiz-adv-x="1552" 
d="M776 -20q-165 0 -296 53t-214.5 146.5t-127.5 217.5t-44 269v342q0 144 44 267.5t127.5 217t214.5 146.5t296 53t296 -53t214 -146.5t126.5 -217t43.5 -267.5v-342q0 -145 -43.5 -269t-126.5 -217.5t-214 -146.5t-296 -53zM315 645q0 -217 118 -347t343 -130
q224 0 342.5 130.5t118.5 346.5v383q0 215 -119 345t-342 130q-151 0 -256 -62t-155 -167.5t-50 -245.5v-383z" />
    <glyph glyph-name="Oacute.ss01" horiz-adv-x="1552" 
d="M776 -20q-165 0 -296 53t-214.5 146.5t-127.5 217.5t-44 269v342q0 144 44 267.5t127.5 217t214.5 146.5t296 53t296 -53t214 -146.5t126.5 -217t43.5 -267.5v-342q0 -145 -43.5 -269t-126.5 -217.5t-214 -146.5t-296 -53zM315 645q0 -217 118 -347t343 -130
q224 0 342.5 130.5t118.5 346.5v383q0 215 -119 345t-342 130q-151 0 -256 -62t-155 -167.5t-50 -245.5v-383zM324 1872l882 151l21 -79l-883 -152z" />
    <glyph glyph-name="Ocircumflex.ss01" horiz-adv-x="1552" 
d="M776 -20q-165 0 -296 53t-214.5 146.5t-127.5 217.5t-44 269v342q0 144 44 267.5t127.5 217t214.5 146.5t296 53t296 -53t214 -146.5t126.5 -217t43.5 -267.5v-342q0 -145 -43.5 -269t-126.5 -217.5t-214 -146.5t-296 -53zM315 645q0 -217 118 -347t343 -130
q224 0 342.5 130.5t118.5 346.5v383q0 215 -119 345t-342 130q-151 0 -256 -62t-155 -167.5t-50 -245.5v-383zM371 1769l336 254h143l330 -254h-164l-238 189l-241 -189h-166z" />
    <glyph glyph-name="Odieresis.ss01" horiz-adv-x="1552" 
d="M776 -20q-165 0 -296 53t-214.5 146.5t-127.5 217.5t-44 269v342q0 144 44 267.5t127.5 217t214.5 146.5t296 53t296 -53t214 -146.5t126.5 -217t43.5 -267.5v-342q0 -145 -43.5 -269t-126.5 -217.5t-214 -146.5t-296 -53zM315 645q0 -217 118 -347t343 -130
q224 0 342.5 130.5t118.5 346.5v383q0 215 -119 345t-342 130q-151 0 -256 -62t-155 -167.5t-50 -245.5v-383zM403 1896q0 44 28.5 71.5t68.5 27.5q38 0 66 -27.5t28 -71.5q0 -40 -28 -66t-66 -26q-39 0 -68 26t-29 66zM956 1896q0 44 28.5 71.5t68.5 27.5q38 0 66 -27.5
t28 -71.5q0 -40 -28 -66t-66 -26q-39 0 -68 26t-29 66z" />
    <glyph glyph-name="Ograve.ss01" horiz-adv-x="1552" 
d="M776 -20q-165 0 -296 53t-214.5 146.5t-127.5 217.5t-44 269v342q0 144 44 267.5t127.5 217t214.5 146.5t296 53t296 -53t214 -146.5t126.5 -217t43.5 -267.5v-342q0 -145 -43.5 -269t-126.5 -217.5t-214 -146.5t-296 -53zM315 645q0 -217 118 -347t343 -130
q224 0 342.5 130.5t118.5 346.5v383q0 215 -119 345t-342 130q-151 0 -256 -62t-155 -167.5t-50 -245.5v-383zM324 1944l20 79l883 -151l-21 -80z" />
    <glyph glyph-name="Ohungarumlaut.ss01" horiz-adv-x="1552" 
d="M776 -20q-165 0 -296 53t-214.5 146.5t-127.5 217.5t-44 269v342q0 144 44 267.5t127.5 217t214.5 146.5t296 53t296 -53t214 -146.5t126.5 -217t43.5 -267.5v-342q0 -145 -43.5 -269t-126.5 -217.5t-214 -146.5t-296 -53zM315 645q0 -217 118 -347t343 -130
q224 0 342.5 130.5t118.5 346.5v383q0 215 -119 345t-342 130q-151 0 -256 -62t-155 -167.5t-50 -245.5v-383zM586 1794l243 229h123l-225 -229h-141zM834 1794l245 229h121l-225 -229h-141z" />
    <glyph glyph-name="Omacron.ss01" horiz-adv-x="1552" 
d="M776 -20q-165 0 -296 53t-214.5 146.5t-127.5 217.5t-44 269v342q0 144 44 267.5t127.5 217t214.5 146.5t296 53t296 -53t214 -146.5t126.5 -217t43.5 -267.5v-342q0 -145 -43.5 -269t-126.5 -217.5t-214 -146.5t-296 -53zM315 645q0 -217 118 -347t343 -130
q224 0 342.5 130.5t118.5 346.5v383q0 215 -119 345t-342 130q-151 0 -256 -62t-155 -167.5t-50 -245.5v-383zM324 1868v82h903v-82h-903z" />
    <glyph glyph-name="Oslash.ss01" horiz-adv-x="1552" 
d="M166 4l106 168q-178 184 -178 494v342q0 144 44 267.5t127.5 217t214.5 146.5t296 53q237 0 404 -109l55 86h149l-108 -168q180 -186 180 -493v-342q0 -145 -43.5 -269t-126.5 -217.5t-214 -146.5t-296 -53q-240 0 -403 110l-56 -86h-151zM315 645q0 -175 76 -291
l680 1061q-118 88 -295 88q-151 0 -256 -62t-155 -167.5t-50 -245.5v-383zM479 256q118 -88 297 -88q224 0 342.5 130.5t118.5 346.5v383q0 175 -76 291z" />
    <glyph glyph-name="Otilde.ss01" horiz-adv-x="1552" 
d="M776 -20q-165 0 -296 53t-214.5 146.5t-127.5 217.5t-44 269v342q0 144 44 267.5t127.5 217t214.5 146.5t296 53t296 -53t214 -146.5t126.5 -217t43.5 -267.5v-342q0 -145 -43.5 -269t-126.5 -217.5t-214 -146.5t-296 -53zM315 645q0 -217 118 -347t343 -130
q224 0 342.5 130.5t118.5 346.5v383q0 215 -119 345t-342 130q-151 0 -256 -62t-155 -167.5t-50 -245.5v-383zM367 1806q0 107 60.5 165.5t166.5 58.5q54 0 96.5 -16t70 -38.5t53.5 -45t60 -38.5t76 -16q65 0 98 35.5t33 99.5h103q0 -111 -62 -167t-172 -56q-57 0 -101.5 16
t-72.5 38.5t-53.5 45t-57 38.5t-69.5 16q-63 0 -95 -37t-32 -99h-102z" />
    <glyph glyph-name="P.ss01" horiz-adv-x="1441" 
d="M143 0v1671h688q278 0 412.5 -130.5t134.5 -399.5v-37q0 -272 -134 -405.5t-413 -133.5h-475v-565h-213zM356 745h473q172 0 250 79.5t78 250.5v94q0 169 -77.5 245.5t-250.5 76.5h-473v-746z" />
    <glyph glyph-name="Q.ss01" horiz-adv-x="1552" 
d="M1280 -315q-194 90 -345.5 127t-348.5 43v145q-238 54 -365 234t-127 432v342q0 144 44 267.5t127.5 217t214.5 146.5t296 53t296 -53t214 -146.5t126.5 -217t43.5 -267.5v-342q0 -276 -150 -463t-429 -217q213 -30 403 -117v-184zM315 645q0 -217 118 -347t343 -130
q224 0 342.5 130.5t118.5 346.5v383q0 215 -119 345t-342 130q-151 0 -256 -62t-155 -167.5t-50 -245.5v-383z" />
    <glyph glyph-name="R.ss01" horiz-adv-x="1466" 
d="M1161 0q-12 12 -17.5 41.5t-6 48.5t-0.5 60v272q0 80 -26 135t-73 82t-98 38t-117 11h-467v-688h-213v1671h684q273 0 401 -109.5t128 -351.5v-24q0 -169 -62.5 -266.5t-195.5 -137.5q126 -35 191 -129t65 -235v-268q0 -39 0.5 -58t6 -48.5t17.5 -43.5h-217zM356 870h469
q169 0 240.5 70t71.5 211v70q0 80 -20 133.5t-63.5 83t-101 41.5t-143.5 12h-453v-621z" />
    <glyph glyph-name="Racute.ss01" horiz-adv-x="1466" 
d="M1161 0q-12 12 -17.5 41.5t-6 48.5t-0.5 60v272q0 80 -26 135t-73 82t-98 38t-117 11h-467v-688h-213v1671h684q273 0 401 -109.5t128 -351.5v-24q0 -169 -62.5 -266.5t-195.5 -137.5q126 -35 191 -129t65 -235v-268q0 -39 0.5 -58t6 -48.5t17.5 -43.5h-217zM289 1872
l882 151l21 -79l-883 -152zM356 870h469q169 0 240.5 70t71.5 211v70q0 80 -20 133.5t-63.5 83t-101 41.5t-143.5 12h-453v-621z" />
    <glyph glyph-name="Rcaron.ss01" horiz-adv-x="1466" 
d="M1161 0q-12 12 -17.5 41.5t-6 48.5t-0.5 60v272q0 80 -26 135t-73 82t-98 38t-117 11h-467v-688h-213v1671h684q273 0 401 -109.5t128 -351.5v-24q0 -169 -62.5 -266.5t-195.5 -137.5q126 -35 191 -129t65 -235v-268q0 -39 0.5 -58t6 -48.5t17.5 -43.5h-217zM334 2048
h166l241 -188l238 188h164l-330 -254h-143zM356 870h469q169 0 240.5 70t71.5 211v70q0 80 -20 133.5t-63.5 83t-101 41.5t-143.5 12h-453v-621z" />
    <glyph glyph-name="uni0156.ss01" horiz-adv-x="1466" 
d="M1161 0q-12 12 -17.5 41.5t-6 48.5t-0.5 60v272q0 80 -26 135t-73 82t-98 38t-117 11h-467v-688h-213v1671h684q273 0 401 -109.5t128 -351.5v-24q0 -169 -62.5 -266.5t-195.5 -137.5q126 -35 191 -129t65 -235v-268q0 -39 0.5 -58t6 -48.5t17.5 -43.5h-217zM356 870h469
q169 0 240.5 70t71.5 211v70q0 80 -20 133.5t-63.5 83t-101 41.5t-143.5 12h-453v-621zM639 -172q0 42 28.5 71t73.5 29q47 0 75 -30.5t28 -90.5q0 -71 -45 -134.5t-133 -106.5v84q102 39 125 119q-26 -33 -66 -33q-35 0 -60.5 25.5t-25.5 66.5z" />
    <glyph glyph-name="S.ss01" horiz-adv-x="1384" 
d="M717 -20q-645 0 -645 546v76h219v-100q0 -178 104 -258t328 -80q189 0 275.5 61t86.5 197v22q0 65 -18 111.5t-58 79.5t-88.5 54.5t-123.5 43.5l-305 98q-84 29 -147 63.5t-117 84.5t-82.5 120t-28.5 158q0 208 147 321.5t422 113.5q288 0 439 -124.5t151 -361.5v-65
h-219v71q0 155 -90.5 225t-282.5 70q-348 0 -348 -231v-16q0 -53 20.5 -94.5t59.5 -72t84.5 -52t107.5 -40.5l310 -98q90 -30 153.5 -63t120 -85.5t85 -130t28.5 -180.5q0 -235 -143 -349.5t-445 -114.5z" />
    <glyph glyph-name="Sacute.ss01" horiz-adv-x="1384" 
d="M717 -20q-645 0 -645 546v76h219v-100q0 -178 104 -258t328 -80q189 0 275.5 61t86.5 197v22q0 65 -18 111.5t-58 79.5t-88.5 54.5t-123.5 43.5l-305 98q-84 29 -147 63.5t-117 84.5t-82.5 120t-28.5 158q0 208 147 321.5t422 113.5q288 0 439 -124.5t151 -361.5v-65
h-219v71q0 155 -90.5 225t-282.5 70q-348 0 -348 -231v-16q0 -53 20.5 -94.5t59.5 -72t84.5 -52t107.5 -40.5l310 -98q90 -30 153.5 -63t120 -85.5t85 -130t28.5 -180.5q0 -235 -143 -349.5t-445 -114.5zM238 1872l882 151l21 -79l-883 -152z" />
    <glyph glyph-name="Scaron.ss01" horiz-adv-x="1384" 
d="M717 -20q-645 0 -645 546v76h219v-100q0 -178 104 -258t328 -80q189 0 275.5 61t86.5 197v22q0 65 -18 111.5t-58 79.5t-88.5 54.5t-123.5 43.5l-305 98q-84 29 -147 63.5t-117 84.5t-82.5 120t-28.5 158q0 208 147 321.5t422 113.5q288 0 439 -124.5t151 -361.5v-65
h-219v71q0 155 -90.5 225t-282.5 70q-348 0 -348 -231v-16q0 -53 20.5 -94.5t59.5 -72t84.5 -52t107.5 -40.5l310 -98q90 -30 153.5 -63t120 -85.5t85 -130t28.5 -180.5q0 -235 -143 -349.5t-445 -114.5zM285 2048h166l241 -188l238 188h164l-330 -254h-143z" />
    <glyph glyph-name="Scedilla.ss01" horiz-adv-x="1384" 
d="M557 -336q142 0 200 14.5t58 61.5q0 49 -57 58.5t-164 -7.5l45 191q-567 34 -567 544v76h219v-100q0 -178 104 -258t328 -80q189 0 275.5 61t86.5 197v22q0 65 -18 111.5t-58 79.5t-88.5 54.5t-123.5 43.5l-305 98q-84 29 -147 63.5t-117 84.5t-82.5 120t-28.5 158
q0 208 147 321.5t422 113.5q288 0 439 -124.5t151 -361.5v-65h-219v71q0 155 -90.5 225t-282.5 70q-348 0 -348 -231v-16q0 -53 20.5 -94.5t59.5 -72t84.5 -52t107.5 -40.5l310 -98q90 -30 153.5 -63t120 -85.5t85 -130t28.5 -180.5q0 -232 -139 -346.5t-433 -117.5
l-26 -109q223 27 223 -127q0 -93 -88.5 -130.5t-286.5 -37.5z" />
    <glyph glyph-name="uni0218.ss01" horiz-adv-x="1384" 
d="M717 -20q-645 0 -645 546v76h219v-100q0 -178 104 -258t328 -80q189 0 275.5 61t86.5 197v22q0 65 -18 111.5t-58 79.5t-88.5 54.5t-123.5 43.5l-305 98q-84 29 -147 63.5t-117 84.5t-82.5 120t-28.5 158q0 208 147 321.5t422 113.5q288 0 439 -124.5t151 -361.5v-65
h-219v71q0 155 -90.5 225t-282.5 70q-348 0 -348 -231v-16q0 -53 20.5 -94.5t59.5 -72t84.5 -52t107.5 -40.5l310 -98q90 -30 153.5 -63t120 -85.5t85 -130t28.5 -180.5q0 -235 -143 -349.5t-445 -114.5zM588 -172q0 42 28.5 71t73.5 29q47 0 75 -30.5t28 -90.5
q0 -71 -45.5 -134.5t-133.5 -106.5v84q102 39 125 119q-26 -33 -65 -33q-35 0 -60.5 25.5t-25.5 66.5z" />
    <glyph glyph-name="uni1E9E.ss01" horiz-adv-x="1349" 
d="M135 1260q0 213 128.5 312t402.5 99h579q-52 -359 -112 -501.5t-185 -182.5q155 -30 229 -135.5t74 -288.5v-96q0 -246 -127.5 -356.5t-365.5 -110.5h-295v174h233q189 0 267.5 63.5t78.5 233.5v113q0 57 -8 99t-31.5 82.5t-63 66t-106 41t-157.5 16.5h-213v174h201
q49 0 86.5 4.5t69 16.5t54.5 26.5t43 43t34 57t29 76.5t26 94t26 116h-366q-173 0 -248.5 -54t-75.5 -181v-1262h-207v1260z" />
    <glyph glyph-name="T.ss01" horiz-adv-x="1310" 
d="M547 0v1485h-504v186h1223v-186h-504v-1485h-215z" />
    <glyph glyph-name="Tbar.ss01" horiz-adv-x="1325" 
d="M555 0v778h-358v117h358v590h-504v186h1223v-186h-504v-590h365v-117h-365v-778h-215z" />
    <glyph glyph-name="Tcaron.ss01" horiz-adv-x="1310" 
d="M547 0v1485h-504v186h1223v-186h-504v-1485h-215zM250 2048h166l241 -188l238 188h164l-330 -254h-143z" />
    <glyph glyph-name="uni0162.ss01" horiz-adv-x="1310" 
d="M547 0v1485h-504v186h1223v-186h-504v-1485h-60l-32 -129q223 27 223 -127q0 -93 -88.5 -130.5t-286.5 -37.5l2 88q142 0 200 14.5t58 61.5q0 49 -57 58.5t-164 -7.5l49 209h-59z" />
    <glyph glyph-name="uni021A.ss01" horiz-adv-x="1310" 
d="M547 0v1485h-504v186h1223v-186h-504v-1485h-215zM553 -172q0 42 28.5 71t73.5 29q47 0 75 -30.5t28 -90.5q0 -71 -45 -134.5t-133 -106.5v84q102 39 125 119q-26 -33 -66 -33q-35 0 -60.5 25.5t-25.5 66.5z" />
    <glyph glyph-name="U.ss01" horiz-adv-x="1490" 
d="M745 -20q-327 0 -469.5 142t-142.5 456v1093h215v-1112q0 -116 25 -194t77.5 -121t122.5 -60.5t172 -17.5t172 17.5t123 60.5t78 121t25 194v1112h215v-1093q0 -316 -144 -457t-469 -141z" />
    <glyph glyph-name="Uacute.ss01" horiz-adv-x="1490" 
d="M745 -20q-327 0 -469.5 142t-142.5 456v1093h215v-1112q0 -116 25 -194t77.5 -121t122.5 -60.5t172 -17.5t172 17.5t123 60.5t78 121t25 194v1112h215v-1093q0 -316 -144 -457t-469 -141zM293 1872l883 151l20 -79l-883 -152z" />
    <glyph glyph-name="Ucircumflex.ss01" horiz-adv-x="1490" 
d="M745 -20q-327 0 -469.5 142t-142.5 456v1093h215v-1112q0 -116 25 -194t77.5 -121t122.5 -60.5t172 -17.5t172 17.5t123 60.5t78 121t25 194v1112h215v-1093q0 -316 -144 -457t-469 -141zM340 1769l336 254h143l330 -254h-164l-237 189l-242 -189h-166z" />
    <glyph glyph-name="Udieresis.ss01" horiz-adv-x="1490" 
d="M745 -20q-327 0 -469.5 142t-142.5 456v1093h215v-1112q0 -116 25 -194t77.5 -121t122.5 -60.5t172 -17.5t172 17.5t123 60.5t78 121t25 194v1112h215v-1093q0 -316 -144 -457t-469 -141zM373 1896q0 44 28 71.5t68 27.5q38 0 66 -27.5t28 -71.5q0 -40 -28 -66t-66 -26
q-39 0 -67.5 26t-28.5 66zM926 1896q0 44 28 71.5t68 27.5q38 0 66 -27.5t28 -71.5q0 -40 -28 -66t-66 -26q-39 0 -67.5 26t-28.5 66z" />
    <glyph glyph-name="Ugrave.ss01" horiz-adv-x="1490" 
d="M745 -20q-327 0 -469.5 142t-142.5 456v1093h215v-1112q0 -116 25 -194t77.5 -121t122.5 -60.5t172 -17.5t172 17.5t123 60.5t78 121t25 194v1112h215v-1093q0 -316 -144 -457t-469 -141zM293 1944l20 79l883 -151l-20 -80z" />
    <glyph glyph-name="Uhungarumlaut.ss01" horiz-adv-x="1490" 
d="M745 -20q-327 0 -469.5 142t-142.5 456v1093h215v-1112q0 -116 25 -194t77.5 -121t122.5 -60.5t172 -17.5t172 17.5t123 60.5t78 121t25 194v1112h215v-1093q0 -316 -144 -457t-469 -141zM555 1794l244 229h123l-226 -229h-141zM803 1794l246 229h120l-225 -229h-141z
" />
    <glyph glyph-name="Umacron.ss01" horiz-adv-x="1490" 
d="M745 -20q-327 0 -469.5 142t-142.5 456v1093h215v-1112q0 -116 25 -194t77.5 -121t122.5 -60.5t172 -17.5t172 17.5t123 60.5t78 121t25 194v1112h215v-1093q0 -316 -144 -457t-469 -141zM293 1868v82h903v-82h-903z" />
    <glyph glyph-name="Uogonek.ss01" horiz-adv-x="1490" 
d="M745 -20q-327 0 -469.5 142t-142.5 456v1093h215v-1112q0 -116 25 -194t77.5 -121t122.5 -60.5t172 -17.5t172 17.5t123 60.5t78 121t25 194v1112h215v-1093q0 -260 -95.5 -400.5t-306.5 -179.5q-106 -36 -157 -82t-51 -109t55 -90.5t186 -27.5h21l-82 -99h-19
q-126 0 -201 47t-75 136q0 139 182 209q-23 -2 -70 -2z" />
    <glyph glyph-name="Uring.ss01" horiz-adv-x="1490" 
d="M745 -20q-327 0 -469.5 142t-142.5 456v1093h215v-1112q0 -116 25 -194t77.5 -121t122.5 -60.5t172 -17.5t172 17.5t123 60.5t78 121t25 194v1112h215v-1093q0 -316 -144 -457t-469 -141zM580 1929q0 71 49 118.5t116 47.5t116.5 -47.5t49.5 -118.5t-49.5 -118.5
t-116.5 -47.5t-116 47.5t-49 118.5zM666 1929q0 -37 20.5 -58.5t58.5 -21.5t59 21.5t21 58.5t-21 58.5t-59 21.5t-58.5 -21.5t-20.5 -58.5z" />
    <glyph glyph-name="V.ss01" horiz-adv-x="1415" 
d="M567 0l-530 1671h225l436 -1440l11 -28l10 28l434 1440h225l-530 -1671h-281z" />
    <glyph glyph-name="W.ss01" horiz-adv-x="2217" 
d="M473 0l-430 1671h219l350 -1419l361 1419h272l361 -1411l2 -12l4 12l344 1411h219l-428 -1671h-277l-360 1409l-360 -1409h-277z" />
    <glyph glyph-name="Wacute.ss01" horiz-adv-x="2217" 
d="M473 0l-430 1671h219l350 -1419l361 1419h272l361 -1411l2 -12l4 12l344 1411h219l-428 -1671h-277l-360 1409l-360 -1409h-277zM657 1872l883 151l21 -79l-883 -152z" />
    <glyph glyph-name="Wcircumflex.ss01" horiz-adv-x="2217" 
d="M473 0l-430 1671h219l350 -1419l361 1419h272l361 -1411l2 -12l4 12l344 1411h219l-428 -1671h-277l-360 1409l-360 -1409h-277zM705 1769l335 254h144l329 -254h-163l-238 189l-242 -189h-165z" />
    <glyph glyph-name="Wdieresis.ss01" horiz-adv-x="2217" 
d="M473 0l-430 1671h219l350 -1419l361 1419h272l361 -1411l2 -12l4 12l344 1411h219l-428 -1671h-277l-360 1409l-360 -1409h-277zM737 1896q0 44 28.5 71.5t68.5 27.5q38 0 66 -27.5t28 -71.5q0 -40 -28 -66t-66 -26q-39 0 -68 26t-29 66zM1290 1896q0 44 28 71.5t68 27.5
q38 0 66.5 -27.5t28.5 -71.5q0 -40 -28.5 -66t-66.5 -26q-39 0 -67.5 26t-28.5 66z" />
    <glyph glyph-name="Wgrave.ss01" horiz-adv-x="2217" 
d="M473 0l-430 1671h219l350 -1419l361 1419h272l361 -1411l2 -12l4 12l344 1411h219l-428 -1671h-277l-360 1409l-360 -1409h-277zM657 1944l21 79l883 -151l-21 -80z" />
    <glyph glyph-name="X.ss01" horiz-adv-x="1382" 
d="M16 0l553 846l-538 825h245l418 -661l414 661h248l-543 -825l549 -846h-248l-426 682l-426 -682h-246z" />
    <glyph glyph-name="Y.ss01" horiz-adv-x="1427" 
d="M606 0v588l-575 1083h239l445 -854l442 854h240l-576 -1083v-588h-215z" />
    <glyph glyph-name="Yacute.ss01" horiz-adv-x="1427" 
d="M606 0v588l-575 1083h239l445 -854l442 854h240l-576 -1083v-588h-215zM260 1872l883 151l20 -79l-882 -152z" />
    <glyph glyph-name="Ycircumflex.ss01" horiz-adv-x="1427" 
d="M606 0v588l-575 1083h239l445 -854l442 854h240l-576 -1083v-588h-215zM307 1769l336 254h143l330 -254h-164l-237 189l-242 -189h-166z" />
    <glyph glyph-name="Ydieresis.ss01" horiz-adv-x="1427" 
d="M606 0v588l-575 1083h239l445 -854l442 854h240l-576 -1083v-588h-215zM340 1896q0 44 28 71.5t68 27.5q38 0 66 -27.5t28 -71.5q0 -40 -28 -66t-66 -26q-39 0 -67.5 26t-28.5 66zM893 1896q0 44 28 71.5t68 27.5q38 0 66 -27.5t28 -71.5q0 -40 -28 -66t-66 -26
q-39 0 -67.5 26t-28.5 66z" />
    <glyph glyph-name="Ygrave.ss01" horiz-adv-x="1427" 
d="M606 0v588l-575 1083h239l445 -854l442 854h240l-576 -1083v-588h-215zM260 1944l21 79l882 -151l-20 -80z" />
    <glyph glyph-name="Z.ss01" horiz-adv-x="1275" 
d="M68 0v186l886 1301h-886v184h1140v-186l-886 -1301h886v-184h-1140z" />
    <glyph glyph-name="Zacute.ss01" horiz-adv-x="1275" 
d="M68 0v186l886 1301h-886v184h1140v-186l-886 -1301h886v-184h-1140zM186 1872l883 151l21 -79l-883 -152z" />
    <glyph glyph-name="Zcaron.ss01" horiz-adv-x="1275" 
d="M68 0v186l886 1301h-886v184h1140v-186l-886 -1301h886v-184h-1140zM233 2048h166l242 -188l238 188h163l-329 -254h-144z" />
    <glyph glyph-name="Zdotaccent.ss01" horiz-adv-x="1275" 
d="M68 0v186l886 1301h-886v184h1140v-186l-886 -1301h886v-184h-1140zM514 1890q0 49 33.5 82t91.5 33t91.5 -33t33.5 -82q0 -46 -33.5 -78t-91.5 -32t-91.5 32t-33.5 78z" />
    <glyph glyph-name="W.ss02" horiz-adv-x="1556" 
d="M102 0v1671h195v-1378l362 1378h310v-1378l364 1378h201l-451 -1671h-309v1409l-358 -1409h-314z" />
    <glyph glyph-name="W.ss03" horiz-adv-x="3121" 
d="M481 0h-299v1671h205v-1448l1131 1448h276v-1448l1112 1448h258l-1276 -1671h-299v1417z" />
    <glyph glyph-name="i.loclTRK" horiz-adv-x="460" 
d="M127 1331h207v-1331h-207v1331zM92 1575q0 53 35.5 85t101.5 32t103 -32.5t37 -84.5q0 -48 -37.5 -79.5t-102.5 -31.5t-101 31.5t-36 79.5z" />
    <glyph glyph-name="uni006A0301" horiz-adv-x="460" 
d="M127 -8v1339h207v-1360q0 -228 -81.5 -320.5t-287.5 -92.5h-172v176h129q122 0 163.5 52.5t41.5 205.5zM-51 1530l536 153l27 -77l-539 -152z" />
    <glyph glyph-name="w.ss02" horiz-adv-x="1789" 
d="M127 0v1331h201v-1118l477 1118h313v-1118l459 1118h211l-555 -1331h-313v1149l-478 -1149h-315z" />
    <glyph glyph-name="zero.ss01" horiz-adv-x="1449" 
d="M729 -20q-312 0 -470.5 180t-158.5 512v332q0 330 158.5 509t470.5 179q306 0 462.5 -179.5t156.5 -508.5v-332q0 -332 -156.5 -512t-462.5 -180zM317 649q0 -147 35 -250l670 1002q-96 108 -293 108q-210 0 -311 -119t-101 -366v-375zM436 264q100 -100 293 -100
q203 0 303.5 119t100.5 366v377q0 133 -31 231z" />
    <glyph glyph-name="one.ss01" horiz-adv-x="1095" 
d="M84 184h391v1250q-70 -73 -174.5 -112.5t-226.5 -39.5v193q132 0 230.5 46t178.5 150h203v-1487h391v-184h-993v184z" />
    <glyph glyph-name="two.ss01" horiz-adv-x="1392" 
d="M90 197q0 94 11.5 168t43 146.5t84 128t137.5 103t201 80.5l203 74q78 23 132 48.5t99 64t67 93.5t22 128v12q0 143 -92.5 204.5t-278.5 61.5q-209 0 -302 -80t-93 -266v-55h-218v45q0 267 149.5 403t461.5 136q287 0 438.5 -117.5t151.5 -351.5q0 -374 -422 -490
l-215 -84q-81 -22 -139.5 -46.5t-98.5 -56.5t-65 -65.5t-38 -82t-17.5 -96.5t-4.5 -118h998v-184h-1215v197z" />
    <glyph glyph-name="three.ss01" horiz-adv-x="1380" 
d="M680 -20q-309 0 -457 121.5t-151 379.5v45h215v-55q3 -171 97 -239t294 -68q203 0 296 64.5t93 205.5v64q0 64 -19 111.5t-51 77t-81.5 47t-102.5 24t-121 6.5h-223v184h223q82 0 143.5 11t112 37t77 75t26.5 119v55q0 74 -26.5 126t-76.5 81.5t-115 43t-151 13.5
q-67 0 -119 -7.5t-100 -27.5t-80 -52.5t-51.5 -85t-20.5 -122.5v-49h-215v39q3 248 149 368t439 120q152 0 266.5 -34.5t182 -96.5t100.5 -142t33 -178v-27q2 -134 -65 -228t-193 -126q136 -36 204 -135.5t68 -249.5v-33q0 -224 -148.5 -343t-451.5 -119z" />
    <glyph glyph-name="four.ss01" horiz-adv-x="1349" 
d="M1100 1671v-1149h196v-184h-196v-338h-211v338h-848v192l852 1141h207zM246 522h643v838z" />
    <glyph glyph-name="five.ss01" horiz-adv-x="1382" 
d="M756 1120q258 0 402.5 -128.5t144.5 -389.5v-92q0 -261 -155.5 -395.5t-449.5 -134.5q-287 0 -445.5 127.5t-158.5 377.5v29h217v-47q0 -69 21.5 -123t57.5 -87.5t87 -55.5t106 -30.5t119 -8.5q383 0 383 319v131q0 165 -91.5 243.5t-278.5 78.5q-154 0 -244.5 -58
t-151.5 -171h-208l55 966h1061v-184h-867l-38 -541q150 174 434 174z" />
    <glyph glyph-name="six.ss01" horiz-adv-x="1411" 
d="M717 -20q-313 0 -460.5 141.5t-147.5 439.5v469q0 336 146 499t468 163q283 0 418 -123t135 -342v-15h-215v15q0 142 -84.5 207t-251.5 65q-203 0 -301 -90.5t-98 -296.5v-160q140 176 440 176q264 0 409.5 -136.5t145.5 -397.5v-78q0 -265 -147.5 -400.5t-456.5 -135.5z
M326 496q0 -179 94 -255.5t299 -76.5q200 0 292.5 75.5t92.5 245.5v133q0 166 -91.5 244t-281.5 78q-194 0 -299.5 -78t-105.5 -231v-135z" />
    <glyph glyph-name="seven.ss01" horiz-adv-x="1220" 
d="M20 1487v184h1151v-184q-111 -86 -200.5 -183.5t-152 -193.5t-108.5 -206.5t-73.5 -212t-44 -220.5t-22 -222t-5.5 -226v-23h-213v23q0 119 5.5 220.5t21 220.5t42 221.5t71 214t104.5 209t146.5 195.5t193.5 183h-916z" />
    <glyph glyph-name="eight.ss01" horiz-adv-x="1398" 
d="M700 -20q-606 0 -606 456v51q0 166 76.5 267.5t212.5 136.5q-115 32 -183.5 120t-68.5 224v45q0 197 146 304.5t425 107.5q278 0 423 -107.5t145 -304.5v-45q0 -136 -68.5 -224t-185.5 -120q137 -35 214 -136.5t77 -267.5v-51q0 -456 -607 -456zM309 436
q0 -151 94.5 -215.5t296.5 -64.5t296 64.5t94 215.5v84q0 149 -97 211t-293 62t-293.5 -61.5t-97.5 -211.5v-84zM346 1206q0 -231 354 -231q353 0 353 233v70q0 122 -87.5 180t-265.5 58q-180 0 -267 -58t-87 -180v-72z" />
    <glyph glyph-name="nine.ss01" horiz-adv-x="1411" 
d="M688 -20q-283 0 -418 122.5t-135 341.5v17h215v-15q0 -143 84 -208.5t252 -65.5q203 0 301 91t98 298v162q-137 -178 -440 -178q-264 0 -409.5 136t-145.5 396v78q0 266 147 401.5t457 135.5q313 0 461 -142t148 -440v-471q0 -334 -146.5 -496.5t-468.5 -162.5zM307 1053
q0 -166 91.5 -244t281.5 -78q193 0 299 77.5t106 231.5v136q0 179 -94.5 256t-298.5 77q-199 0 -292 -76.5t-93 -246.5v-133z" />
    <glyph glyph-name="zero.tf" horiz-adv-x="1335" 
d="M670 -20q-269 0 -406 162t-137 460v471q0 296 137 457.5t406 161.5q266 0 402 -162t136 -457v-471q0 -298 -136 -460t-402 -162zM342 567q0 -92 14 -155l576 972q-78 129 -262 129q-163 0 -245.5 -99.5t-82.5 -307.5v-539zM412 274q80 -114 258 -114q161 0 242 99t81 308
v539q0 69 -10 137z" />
    <glyph glyph-name="one.tf" horiz-adv-x="1335" 
d="M254 180h340v1243q-118 -137 -344 -137v191q115 0 202.5 46t153.5 148h199v-1491h340v-180h-891v180z" />
    <glyph glyph-name="two.tf" horiz-adv-x="1335" 
d="M139 195q0 114 17 198t60 159.5t120 135t194 109.5l189 102q67 30 110 57t81 67t55.5 93.5t17.5 124.5v21q0 136 -74.5 193.5t-220.5 57.5q-163 0 -241 -70.5t-78 -236.5v-86h-217v70q0 247 134 374.5t402 127.5q250 0 381 -115.5t131 -343.5q0 -346 -352 -488l-195 -108
q-78 -32 -129.5 -64t-86 -68t-52.5 -85.5t-24.5 -104t-6.5 -135.5h844v-180h-1059v195z" />
    <glyph glyph-name="three.tf" horiz-adv-x="1335" 
d="M662 -20q-269 0 -399.5 116.5t-131.5 360.5v63h213v-80q3 -157 79.5 -219.5t235.5 -62.5q163 0 238.5 61.5t75.5 196.5v96q0 62 -16.5 108t-43 74t-67 45t-82.5 23t-94 6h-197v180h197q63 0 112 10t91.5 35t65 72t22.5 115v82q0 72 -21.5 122t-63 77.5t-93.5 39.5
t-121 12t-120 -12t-93.5 -41t-65 -84t-23.5 -135v-70h-213v54q1 236 129 351.5t388 115.5q111 0 199 -24t146 -64.5t96 -97.5t54.5 -119.5t16.5 -133.5v-39q1 -133 -60.5 -225t-177.5 -127q123 -35 185.5 -132.5t62.5 -248.5v-47q0 -218 -128 -336t-396 -118z" />
    <glyph glyph-name="four.tf" horiz-adv-x="1335" 
d="M1040 1671v-1155h168v-180h-168v-336h-211v336h-714v194l721 1141h204zM299 516h530v821z" />
    <glyph glyph-name="five.tf" horiz-adv-x="1335" 
d="M750 1120q207 0 329.5 -119.5t122.5 -353.5v-143q0 -262 -134 -393t-392 -131q-252 0 -391.5 122.5t-139.5 360.5v49h217v-76q0 -78 25.5 -134t71 -86.5t99 -44t118.5 -13.5q309 0 309 297v188q0 147 -73 221t-214 74q-236 0 -327 -229h-211l51 962h917v-180h-722
l-37 -555q124 184 381 184z" />
    <glyph glyph-name="six.tf" horiz-adv-x="1335" 
d="M678 -20q-271 0 -402 133t-131 405v565q0 609 543 609q125 0 218 -33t149 -94t83 -140t29 -178v-30h-213l-2 30q-3 127 -68.5 188.5t-197.5 61.5q-324 0 -324 -334v-215q120 176 383 176q220 0 340.5 -124.5t120.5 -356.5v-156q0 -249 -133 -378t-395 -129zM362 463
q0 -163 78.5 -234t235.5 -71q159 0 236 72.5t77 226.5v188q0 152 -74.5 223.5t-224.5 71.5q-153 0 -240.5 -74t-87.5 -213v-190z" />
    <glyph glyph-name="seven.tf" horiz-adv-x="1335" 
d="M156 1491v180h1001v-180q-128 -124 -221.5 -264t-149.5 -275.5t-89 -295t-44.5 -303.5t-11.5 -320v-33h-211v31q0 172 11.5 316t45 304t89 297.5t147.5 278.5t217 264h-784z" />
    <glyph glyph-name="eight.tf" horiz-adv-x="1335" 
d="M668 -20q-531 0 -531 440v69q0 170 73.5 267.5t199.5 128.5q-110 30 -177 116t-67 226v63q0 189 129 295.5t375 106.5q244 0 370.5 -106t126.5 -296v-65q0 -139 -66 -224.5t-175 -115.5q126 -31 199 -129t73 -267v-71q0 -438 -530 -438zM354 412q0 -141 77 -199.5
t237 -58.5t236.5 58.5t76.5 201.5v121q0 139 -78.5 196t-234.5 57t-235 -57t-79 -196v-123zM383 1190q0 -221 285 -221q284 0 284 221v100q0 118 -71 173t-213 55t-213.5 -55t-71.5 -173v-100z" />
    <glyph glyph-name="nine.tf" horiz-adv-x="1335" 
d="M657 1692q271 0 402 -133.5t131 -405.5v-565q0 -608 -543 -608q-125 0 -218 33t-149 93.5t-83 139.5t-29 178v31h213l2 -31q3 -127 68.5 -188.5t197.5 -61.5q324 0 324 334v215q-120 -176 -383 -176q-220 0 -340.5 124.5t-120.5 356.5v156q0 249 133 378.5t395 129.5z
M346 1026q0 -152 74.5 -223.5t224.5 -71.5q153 0 240.5 74t87.5 213v190q0 163 -78.5 234t-235.5 71q-159 0 -236 -72.5t-77 -226.5v-188z" />
    <glyph glyph-name="zero.dnom" horiz-adv-x="681" 
d="M342 -10q-137 0 -209 82t-72 233v227q0 149 72 231.5t209 82.5t209 -82.5t72 -231.5v-227q0 -151 -72 -233t-209 -82zM197 283v-25l264 418q-37 57 -119 57q-145 0 -145 -178v-272zM227 154q37 -52 115 -52q145 0 145 181v286z" />
    <glyph glyph-name="one.dnom" horiz-adv-x="536" 
d="M53 113h166v573q-62 -59 -168 -59v121q120 0 178 88h121v-723h166v-113h-463v113z" />
    <glyph glyph-name="two.dnom" horiz-adv-x="657" 
d="M55 123q0 109 44 181.5t155 115.5l90 37q66 26 95.5 61t29.5 96v15q0 57 -32 80.5t-99 23.5q-74 0 -107.5 -29.5t-33.5 -99.5v-45h-136v33q0 254 275 254q131 0 199.5 -60t68.5 -178q0 -185 -180 -252l-102 -45q-84 -31 -108 -71t-24 -127h412v-113h-547v123z" />
    <glyph glyph-name="three.dnom" horiz-adv-x="653" 
d="M324 -10q-139 0 -206.5 58.5t-68.5 184.5v31h133v-43q1 -67 35.5 -94t104.5 -27q74 0 106.5 26.5t32.5 84.5v53q0 63 -34.5 86t-100.5 23h-97v110h97q61 0 95 22.5t34 78.5v47q0 57 -33 80.5t-100 23.5q-65 0 -98 -25.5t-34 -88.5v-39h-133v26q3 122 69 180t198 58
q73 0 126.5 -19t82 -51.5t42 -69t13.5 -77.5v-19q0 -67 -30.5 -114t-86.5 -64q59 -17 91 -65.5t32 -122.5v-23q0 -231 -270 -231z" />
    <glyph glyph-name="four.dnom" horiz-adv-x="632" 
d="M514 836v-564h78v-114h-78v-158h-133v158h-348v123l352 555h129zM143 272h238v363z" />
    <glyph glyph-name="five.dnom" horiz-adv-x="653" 
d="M375 561q106 0 167.5 -59t61.5 -180v-68q-3 -264 -274 -264q-133 0 -204 63.5t-71 186.5v20h135v-39q0 -119 142 -119q135 0 135 123v97q0 124 -131 124q-55 0 -88 -24.5t-55 -71.5h-130l27 486h477v-113h-356l-18 -252q63 90 182 90z" />
    <glyph glyph-name="six.dnom" horiz-adv-x="669" 
d="M338 -10q-138 0 -206.5 69t-68.5 211v260q0 161 67 238.5t212 77.5q128 0 191 -59.5t63 -165.5v-13h-135v10q0 107 -117 107q-73 0 -108 -34t-35 -107v-92q58 73 176 73q113 0 175 -64t62 -182v-73q0 -126 -70 -191t-206 -65zM201 227q0 -67 34 -96t105 -29
q70 0 104.5 29.5t34.5 93.5v99q0 125 -135 125q-143 0 -143 -123v-99z" />
    <glyph glyph-name="seven.dnom" horiz-adv-x="569" 
d="M25 723v113h512v-113q-66 -65 -113 -138t-73 -138.5t-41 -144.5t-19 -140.5t-4 -141.5v-20h-133v18q0 100 8.5 180t32.5 175.5t76.5 184t131.5 165.5h-378z" />
    <glyph glyph-name="eight.dnom" horiz-adv-x="661" 
d="M332 -10q-277 0 -277 223v33q0 85 35 135.5t96 64.5q-54 13 -85 55.5t-31 114.5v27q0 97 66.5 150t195.5 53t195.5 -53t66.5 -150v-29q0 -70 -32 -112.5t-85 -55.5q59 -14 94 -64t35 -136v-33q0 -223 -274 -223zM193 211q0 -63 32 -88t107 -25q74 0 106.5 25t32.5 88v65
q0 60 -33 84.5t-106 24.5q-74 0 -106.5 -24.5t-32.5 -84.5v-65zM205 592q0 -50 30.5 -72t96.5 -22q63 0 94.5 22t32.5 72v51q-2 50 -31.5 72t-95.5 22q-67 0 -97 -22t-30 -72v-51z" />
    <glyph glyph-name="nine.dnom" horiz-adv-x="669" 
d="M332 846q138 0 205 -69t67 -212v-260q0 -160 -66 -237.5t-210 -77.5q-128 0 -191 59.5t-63 165.5v14h135v-12q0 -106 119 -106q71 0 106 34t35 107v92q-59 -74 -176 -74q-113 0 -175.5 64t-62.5 182v74q0 126 70.5 191t206.5 65zM190 512q0 -125 136 -125q69 0 106 31.5
t37 91.5v98q0 67 -34 96t-105 29t-105.5 -29.5t-34.5 -93.5v-98z" />
    <glyph glyph-name="zero.numr" horiz-adv-x="681" 
d="M342 825q-137 0 -209 82.5t-72 233.5v227q0 149 72 231t209 82t209 -82t72 -231v-227q0 -151 -72 -233.5t-209 -82.5zM197 1118v-24l264 417q-37 58 -119 58q-145 0 -145 -178v-273zM227 989q36 -51 115 -51q145 0 145 180v287z" />
    <glyph glyph-name="one.numr" horiz-adv-x="536" 
d="M53 948h166v574q-63 -60 -168 -60v121q120 0 178 88h121v-723h166v-112h-463v112z" />
    <glyph glyph-name="two.numr" horiz-adv-x="657" 
d="M55 958q0 109 44 181.5t155 115.5l90 37q66 26 95.5 61.5t29.5 96.5v14q0 57 -32 81t-99 24q-74 0 -107.5 -29.5t-33.5 -99.5v-45h-136v32q0 254 275 254q131 0 199.5 -59.5t68.5 -177.5q0 -185 -180 -252l-102 -45q-84 -31 -108 -71.5t-24 -127.5h412v-112h-547v122z
" />
    <glyph glyph-name="three.numr" horiz-adv-x="653" 
d="M324 825q-139 0 -206.5 58.5t-68.5 185.5v31h133v-43q1 -67 35.5 -94t104.5 -27q74 0 106.5 26.5t32.5 84.5v53q0 63 -34.5 85.5t-100.5 22.5h-97v111h97q62 0 95.5 22t33.5 78v47q0 57 -33 81t-100 24q-65 0 -98 -26t-34 -89v-39h-133v27q3 122 69 179.5t198 57.5
q73 0 126.5 -19t82 -51.5t42 -69t13.5 -77.5v-18q0 -67 -30.5 -114t-86.5 -64q59 -17 91 -66t32 -123v-22q0 -232 -270 -232z" />
    <glyph glyph-name="four.numr" horiz-adv-x="632" 
d="M514 1671v-563h78v-115h-78v-157h-133v157h-348v123l352 555h129zM143 1108h238v362z" />
    <glyph glyph-name="five.numr" horiz-adv-x="653" 
d="M375 1397q106 0 167.5 -59.5t61.5 -180.5v-67q-3 -265 -274 -265q-133 0 -204 63.5t-71 186.5v21h135v-39q0 -119 142 -119q135 0 135 123v96q0 125 -131 125q-55 0 -88 -24.5t-55 -71.5h-130l27 485h477v-112h-356l-18 -252q63 90 182 90z" />
    <glyph glyph-name="six.numr" horiz-adv-x="669" 
d="M338 825q-275 0 -275 281v260q0 161 67 238t212 77q128 0 191 -59.5t63 -165.5v-12h-135v10q0 107 -117 107q-73 0 -108 -34.5t-35 -107.5v-92q59 74 176 74q113 0 175 -64t62 -182v-74q0 -126 -70 -191t-206 -65zM201 1063q0 -67 34 -96t105 -29q70 0 104.5 29.5
t34.5 93.5v98q0 125 -135 125q-143 0 -143 -123v-98z" />
    <glyph glyph-name="seven.numr" horiz-adv-x="569" 
d="M25 1559v112h512v-112q-66 -65 -113 -138t-73 -138.5t-41 -144.5t-19 -140.5t-4 -141.5v-20h-133v18q0 100 8.5 180t32.5 175.5t76.5 184t131.5 165.5h-378z" />
    <glyph glyph-name="eight.numr" horiz-adv-x="661" 
d="M332 825q-277 0 -277 224v32q0 85 35 136t96 65q-54 13 -85 55.5t-31 114.5v27q0 97 66.5 149.5t195.5 52.5t195.5 -52.5t66.5 -149.5v-29q0 -70 -32 -112.5t-85 -55.5q59 -14 94 -64t35 -137v-32q0 -224 -274 -224zM193 1047q0 -63 32 -88t107 -25q74 0 106.5 25
t32.5 88v65q0 60 -33 84.5t-106 24.5q-74 0 -106.5 -24.5t-32.5 -84.5v-65zM205 1427q0 -50 30.5 -72t96.5 -22q63 0 94.5 22t32.5 72v52q-2 50 -31.5 72t-95.5 22q-67 0 -97 -22t-30 -72v-52z" />
    <glyph glyph-name="nine.numr" horiz-adv-x="669" 
d="M332 1681q138 0 205 -69t67 -211v-260q0 -161 -66 -238.5t-210 -77.5q-128 0 -191 60t-63 166v14h135v-12q0 -107 119 -107q71 0 106 34t35 107v93q-59 -74 -176 -74q-113 0 -175.5 64t-62.5 182v73q0 126 70.5 191t206.5 65zM190 1348q0 -125 136 -125q69 0 106 31.5
t37 91.5v98q0 67 -34 96t-105 29t-105.5 -29.5t-34.5 -93.5v-98z" />
    <glyph glyph-name="exclamdown.case" horiz-adv-x="491" 
d="M348 0h-205l11 1159h184zM104 1552q0 61 41.5 100.5t100.5 39.5q61 0 102 -39t41 -101q0 -65 -41 -104t-102 -39q-59 0 -100.5 39.5t-41.5 103.5z" />
    <glyph glyph-name="questiondown.case" horiz-adv-x="1032" 
d="M512 -20q-122 0 -213.5 32t-145 89.5t-79 129t-25.5 158.5q0 78 22 143.5t57 111.5t77 88.5t84.5 85t77.5 89.5t57 113.5t22 146.5v27h191v-33q0 -94 -20.5 -171t-54 -129.5t-73.5 -97.5t-79.5 -84.5t-73 -80.5t-54 -95.5t-20.5 -119.5q0 -231 252 -231q141 0 200.5 74.5
t59.5 215.5v80h215v-55q0 -83 -15.5 -154t-51.5 -133t-90 -106t-135.5 -69t-184.5 -25zM399 1552q0 61 41.5 100.5t100.5 39.5q61 0 102 -39t41 -101q0 -65 -41 -104t-102 -39q-59 0 -100.5 39.5t-41.5 103.5z" />
    <glyph glyph-name="hyphen.case" horiz-adv-x="1323" 
d="M74 842h1175v-86h-1175v86z" />
    <glyph glyph-name="endash.case" horiz-adv-x="1572" 
d="M74 846h1425v-92h-1425v92z" />
    <glyph glyph-name="emdash.case" horiz-adv-x="2605" 
d="M74 846h2457v-92h-2457v92z" />
    <glyph glyph-name="parenleft.case" horiz-adv-x="571" 
d="M451 -184q-194 256 -282.5 499.5t-88.5 528.5q0 286 88.5 526t282.5 496h114q-204 -275 -293.5 -507t-89.5 -515q0 -285 88.5 -516t294.5 -512h-114z" />
    <glyph glyph-name="parenright.case" horiz-adv-x="571" 
d="M121 1864q194 -256 282.5 -499.5t88.5 -528.5q0 -286 -88.5 -526t-282.5 -496h-115q204 275 293.5 507t89.5 515q0 285 -88.5 516t-294.5 512h115z" />
    <glyph glyph-name="braceleft.case" horiz-adv-x="557" 
d="M78 954q80 0 80 181v378q0 185 68 271t202 86h96v-94h-94q-170 0 -170 -254v-381q0 -109 -18.5 -162t-71.5 -88v-92q53 -33 71.5 -86t18.5 -164v-381q0 -254 170 -254h94v-94h-96q-134 0 -202 85.5t-68 270.5v379q0 90 -21 136t-59 46v217z" />
    <glyph glyph-name="braceright.case" horiz-adv-x="557" 
d="M479 729q-80 0 -80 -180v-379q0 -185 -68 -270.5t-202 -85.5h-96v94h94q170 0 170 254v381q0 109 18.5 162t71.5 88v92q-53 33 -71.5 86t-18.5 164v381q0 253 -170 253h-94v95h96q134 0 202 -86t68 -271v-379q0 -90 21 -136t59 -46v-217z" />
    <glyph glyph-name="bracketleft.case" horiz-adv-x="577" 
d="M547 1870v-88h-307v-1878h307v-88h-410v2054h410z" />
    <glyph glyph-name="bracketright.case" horiz-adv-x="575" 
d="M29 -190v88h307v1878h-307v88h409v-2054h-409z" />
    <glyph glyph-name="at.case" horiz-adv-x="1550" 
d="M850 39q-176 0 -317.5 52.5t-242.5 153.5t-155.5 255t-54.5 350q0 199 55 356t152 257t226 152t282 52q322 0 496.5 -195.5t174.5 -609.5q0 -247 -63 -375.5t-201 -128.5q-79 0 -132 42.5t-75 119.5q-84 -170 -266 -170q-162 0 -261 132t-99 362q0 229 99 361t261 132
q168 0 252 -147v133h145v-692q0 -187 95 -187q143 0 143 418q0 376 -144.5 545.5t-422.5 169.5q-132 0 -242.5 -45t-194.5 -132.5t-131 -228t-47 -321.5q0 -178 48 -316t136.5 -227t210 -134.5t271.5 -45.5q113 0 228.5 21t191.5 53v-90q-183 -72 -418 -72zM516 844
q0 -177 62 -269t182 -92q115 0 168 89t53 272q0 181 -54.5 270.5t-168.5 89.5q-119 0 -180.5 -91.5t-61.5 -268.5z" />
    <glyph glyph-name="ampersand.ss01" horiz-adv-x="1421" 
d="M657 -20q-277 0 -417 121.5t-140 342.5v31q0 141 67.5 241t190.5 140q-117 39 -182 137.5t-65 241.5v27q0 89 32.5 165t97 136t172 94.5t246.5 34.5q543 0 543 -469v-39h-209v39q0 162 -79 229.5t-252 67.5t-256.5 -65.5t-83.5 -209.5v-39q0 -152 87 -213t259 -61h325
v127h209v-127h144v-166h-144v-326q0 -460 -545 -460zM311 444q0 -154 83 -223t263 -69q174 0 255 67.5t81 224.5v322h-327q-173 0 -264 -64.5t-91 -216.5v-41z" />
    <glyph glyph-name="cent.tf" horiz-adv-x="1335" 
d="M616 -143v295q-220 17 -332 154.5t-112 379.5v301q0 240 112 378t332 155v295h105v-295q212 -12 324 -137t118 -336l2 -89h-198l-2 105q-12 262 -244 283v-1020q232 21 244 282l2 103h198l-2 -86q-9 -211 -119.5 -336t-322.5 -137v-295h-105zM373 666q0 -308 243 -338
v1015q-243 -30 -243 -339v-338z" />
    <glyph glyph-name="dollar.tf" horiz-adv-x="1335" 
d="M623 -143v125q-227 15 -343 138.5t-116 352.5v105h205v-107q0 -146 64 -219.5t190 -87.5v620l-111 56q-77 36 -130 72.5t-99.5 88.5t-69.5 122.5t-23 160.5q0 189 113 294t320 114v123h104v-125q200 -15 310 -128t110 -313v-88h-205v72q0 129 -55.5 194.5t-159.5 79.5
v-553l109 -55q65 -31 108 -57.5t88.5 -66.5t72 -86.5t43.5 -113.5t17 -151q0 -215 -108 -325t-330 -119v-123h-104zM395 1276q0 -55 16 -97t50 -73t67.5 -51t87.5 -45l7 -4v503q-228 -13 -228 -215v-18zM727 160q117 8 175.5 67.5t58.5 182.5v22q0 52 -11 92.5t-27.5 68
t-48 53t-60.5 42t-77 39.5l-10 6v-573z" />
    <glyph glyph-name="Euro.tf" horiz-adv-x="1335" 
d="M63 711v82h125v86h-125v82h125v112q0 138 33.5 250t100 195t172 128.5t243.5 45.5q253 0 388 -148t143 -399l2 -160h-221v193q-6 161 -86 246t-226 85q-166 0 -247.5 -104t-81.5 -299v-145h446v-82h-446v-86h446v-82h-446v-144q0 -197 81.5 -301t247.5 -104q148 0 227 85
t85 249v192h221l-2 -158q-8 -253 -143 -401.5t-390 -148.5q-138 0 -243.5 45.5t-171.5 128.5t-99 195.5t-33 252.5v109h-125z" />
    <glyph glyph-name="sterling.tf" horiz-adv-x="1335" 
d="M145 147q97 78 145 169t48 212q0 39 -8 105h-185v100h162q-9 31 -33 106.5t-36.5 121t-24.5 121.5t-12 151q0 225 131 342t364 117q239 0 367.5 -125t128.5 -365v-98h-215v108q0 155 -68 231.5t-211 76.5q-284 0 -284 -293q0 -94 16.5 -175t51.5 -183t44 -136h482v-100
h-461q4 -50 4 -78q0 -116 -41.5 -207.5t-128.5 -175.5h811v-172h-1047v147z" />
    <glyph glyph-name="yen.tf" horiz-adv-x="1335" 
d="M193 565v82h342l-455 1024h233l357 -837l354 837h231l-454 -1024h342v-82h-369v-90h369v-82h-369v-393h-213v393h-368v82h368v90h-368z" />
    <glyph glyph-name="bouclecomb" horiz-adv-x="1107" 
d="M618 -20q-232 0 -352 190h-20v977h20q19 38 46.5 71t69.5 65t103 50.5t133 18.5q197 0 308.5 -131.5t111.5 -358.5v-403q0 -221 -111 -350t-309 -129zM268 481q0 -143 73.5 -234t213.5 -91q137 0 204.5 87.5t67.5 237.5v369q0 149 -67.5 237.5t-204.5 88.5
q-139 0 -213 -92t-74 -236v-367z" />
    <glyph glyph-name="slashcomb" horiz-adv-x="1417" 
d="M180 -4l912 1679h139l-912 -1679h-139z" />
    </font>
</defs>
</svg>
