<?xml version="1.0" standalone="no"?>
<!DOCTYPE svg PUBLIC "-//W3C//DTD SVG 1.1//EN" "http://www.w3.org/Graphics/SVG/1.1/DTD/svg11.dtd" >
<svg xmlns="http://www.w3.org/2000/svg" xmlns:xlink="http://www.w3.org/1999/xlink" version="1.1">
<metadata>
Created by FontForge 20201107 at Sun May 19 11:54:59 2024
 By 
Copyright (c) 2020 Fontwerk GmbH. All rights reserved.
</metadata>
<defs>
<font id="TurbineTrial-RegularWeb" horiz-adv-x="0" >
  <font-face 
    font-family="."
    font-weight="400"
    font-stretch="normal"
    units-per-em="2048"
    panose-1="2 0 5 4 0 0 0 0 0 0"
    ascent="1638"
    descent="-410"
    x-height="991"
    cap-height="1434"
    bbox="-811 -434 2296 1993"
    underline-thickness="141"
    underline-position="-79"
    unicode-range="U+0020-FEFF"
  />
<missing-glyph horiz-adv-x="962" 
d="M0 0v1434h963v-1434h-963zM86 82h791v1270h-791v-1270zM418 455v182q124 55 179.5 128.5t55.5 168.5q0 93 -53 144.5t-151 51.5q-58 0 -129 -17t-119 -38v92q136 54 250 54q154 0 228.5 -75.5t74.5 -211.5q0 -221 -254 -344v-135h-82zM406 188v129h104v-129h-104z" />
    <glyph glyph-name=".notdef" horiz-adv-x="962" 
d="M0 0v1434h963v-1434h-963zM86 82h791v1270h-791v-1270zM418 455v182q124 55 179.5 128.5t55.5 168.5q0 93 -53 144.5t-151 51.5q-58 0 -129 -17t-119 -38v92q136 54 250 54q154 0 228.5 -75.5t74.5 -211.5q0 -221 -254 -344v-135h-82zM406 188v129h104v-129h-104z" />
    <glyph glyph-name=".null" 
 />
    <glyph glyph-name="nonmarkingreturn" horiz-adv-x="682" 
 />
    <glyph glyph-name="space" unicode=" " horiz-adv-x="460" 
 />
    <glyph glyph-name="comma" unicode="," horiz-adv-x="456" 
d="M125 211h203v-215l-109 -277h-98l74 281h-70v211z" />
    <glyph glyph-name="period" unicode="." horiz-adv-x="456" 
d="M129 211h199v-211h-199v211z" />
    <glyph glyph-name="zero" unicode="0" horiz-adv-x="1495" 
d="M748 -31q-217 0 -353.5 72t-206 235.5t-69.5 430.5t69.5 430t206 235t353.5 72q162 0 277.5 -39.5t195 -127.5t117.5 -228.5t38 -341.5q0 -267 -70 -430.5t-206 -235.5t-352 -72zM748 117q157 0 251 52.5t142.5 183t48.5 354.5t-48.5 354t-142.5 182.5t-251 52.5
q-118 0 -198.5 -28.5t-137.5 -96t-83 -181.5t-26 -283t26 -283t82.5 -182t137.5 -96.5t199 -28.5z" />
    <glyph glyph-name="one" unicode="1" horiz-adv-x="899" 
d="M504 1413h147v-1413h-184v1227l-397 -125v145z" />
    <glyph glyph-name="two" unicode="2" horiz-adv-x="1275" 
d="M274 147h912v-147h-1127v164q224 160 365.5 267.5t251.5 201t166 162t83 129t27 123.5q0 120 -85.5 182.5t-288.5 62.5q-109 0 -239.5 -24t-229.5 -54v160q88 27 222 48.5t253 21.5q549 0 549 -381q0 -69 -16 -129t-58 -126t-102.5 -130.5t-161.5 -148t-223 -172.5
t-298 -210z" />
    <glyph glyph-name="three" unicode="3" horiz-adv-x="1320" 
d="M383 651v144h203q152 0 240.5 29.5t121.5 82t33 137.5t-32.5 137t-121 81.5t-241.5 29.5q-116 0 -251.5 -24t-230.5 -54v160q83 27 216.5 48.5t263.5 21.5q161 0 274 -26t178.5 -77t95 -119.5t29.5 -160.5q0 -150 -69 -223.5t-226 -108.5q178 -35 261 -116t83 -238
q0 -406 -626 -406q-146 0 -288 19.5t-216 40.5v161q91 -27 232.5 -48t271.5 -21q125 0 212 18.5t137 54t71.5 82t21.5 109.5q0 86 -38 142.5t-137.5 90t-264.5 33.5h-203z" />
    <glyph glyph-name="four" unicode="4" horiz-adv-x="1372" 
d="M1294 453v-150h-231v-303h-184v303h-822v154l752 956h254v-960h231zM244 453h635v811z" />
    <glyph glyph-name="five" unicode="5" horiz-adv-x="1372" 
d="M739 858q266 0 390 -110.5t124 -327.5q0 -214 -146.5 -332.5t-457.5 -118.5q-151 0 -294.5 21.5t-225.5 48.5v156q91 -29 235.5 -52.5t282.5 -23.5q226 0 324 76t98 223q0 146 -91 219.5t-302 73.5q-242 0 -516 -70v772h1022v-147h-842v-461q200 53 399 53z" />
    <glyph glyph-name="six" unicode="6" horiz-adv-x="1433" 
d="M289 709v-107q4 39 19 74.5t50 71.5t87 61.5t136 42t191 16.5q565 0 565 -440q0 -459 -604 -459q-172 0 -290.5 38t-193 122t-107.5 211t-33 311q0 418 169 605.5t523 187.5q114 0 239.5 -20.5t216.5 -49.5v-160q-242 78 -444 78q-273 0 -398.5 -137t-125.5 -446z
M1153 424q0 152 -99.5 227.5t-322.5 75.5q-420 0 -420 -281q0 -159 100.5 -242t319.5 -83q223 0 322.5 75.5t99.5 227.5z" />
    <glyph glyph-name="seven" unicode="7" horiz-adv-x="1290" 
d="M61 1413h1127v-147l-666 -1266h-200l675 1266h-936v147z" />
    <glyph glyph-name="eight" unicode="8" horiz-adv-x="1472" 
d="M737 -31q-173 0 -296.5 28.5t-195 83.5t-104 127t-32.5 167q0 145 80 232.5t272 121.5q-165 34 -233 115.5t-68 216.5q0 90 29.5 158t95.5 119.5t179.5 78.5t272.5 27t272 -27t178.5 -78.5t95.5 -119.5t30 -158q0 -135 -68 -216.5t-231 -115.5q191 -34 270.5 -121.5
t79.5 -232.5q0 -95 -32.5 -167t-104.5 -127t-195 -83.5t-295 -28.5zM737 795q115 0 193 16t122 49.5t62.5 78t18.5 108.5q0 85 -33.5 137.5t-122 82t-240.5 29.5t-241 -29.5t-122.5 -82t-33.5 -137.5t33.5 -138t122.5 -83.5t241 -30.5zM737 117q166 0 266 33t138.5 89.5
t38.5 143.5q0 88 -38.5 145t-138 90t-266.5 33q-102 0 -178.5 -12t-126.5 -33.5t-81 -55.5t-43.5 -74.5t-12.5 -92.5q0 -65 21 -112t70.5 -83t136.5 -53.5t214 -17.5z" />
    <glyph glyph-name="nine" unicode="9" horiz-adv-x="1433" 
d="M1147 705v106q-4 -39 -19 -74.5t-50.5 -71.5t-87.5 -61.5t-136.5 -42t-191.5 -16.5q-566 0 -566 440q0 459 604 459q340 0 482.5 -159t142.5 -523q0 -418 -168.5 -605.5t-523.5 -187.5q-113 0 -238.5 20t-218.5 48v160q252 -76 445 -76q273 0 399.5 137.5t126.5 446.5z
M283 989q0 -152 98 -227.5t321 -75.5q222 0 322 72t100 207q0 160 -100.5 242.5t-321.5 82.5q-223 0 -321 -74.5t-98 -226.5z" />
    <glyph glyph-name="A" unicode="A" horiz-adv-x="1409" 
d="M1208 0l-157 383h-699l-157 -383h-191l598 1434h209l594 -1434h-197zM410 535h585l-225 546q-7 18 -65 189l-68 -189z" />
    <glyph glyph-name="B" unicode="B" horiz-adv-x="1343" 
d="M961 758q163 -31 236 -119t73 -229q0 -73 -15 -132.5t-51.5 -112t-93.5 -88.5t-146.5 -56.5t-205.5 -20.5h-627v1434h614q121 0 210 -29.5t139.5 -81.5t74 -114.5t23.5 -135.5q0 -236 -231 -315zM719 1284h-404v-479h359q96 0 162.5 17.5t103 51.5t51.5 76t15 97
q0 118 -63 177.5t-224 59.5zM754 150q97 0 163 18t102 54t51 81t15 107q0 61 -16.5 105t-57.5 80.5t-118.5 54.5t-192.5 18h-385v-518h439z" />
    <glyph glyph-name="C" unicode="C" horiz-adv-x="1308" 
d="M1251 43q-93 -33 -223.5 -53.5t-249.5 -20.5q-366 0 -533 178.5t-167 569.5q0 387 170 567t534 180q102 0 222 -18.5t213 -46.5v-160q-231 76 -437 76q-277 0 -396.5 -139.5t-119.5 -460.5q0 -318 122 -457t400 -139q192 0 465 84v-160z" />
    <glyph glyph-name="D" unicode="D" horiz-adv-x="1458" 
d="M672 1434q199 0 331.5 -37.5t218 -123.5t122 -220.5t36.5 -335.5t-37 -335.5t-122.5 -220.5t-218 -123.5t-330.5 -37.5h-541v1434h541zM672 150q154 0 251.5 26.5t160 94t87.5 173.5t25 273q0 166 -25 272t-88 173.5t-160.5 94.5t-250.5 27h-357v-1134h357z" />
    <glyph glyph-name="E" unicode="E" horiz-adv-x="1208" 
d="M315 154h863v-154h-1047v1434h999v-154h-815v-469h670v-152h-670v-505z" />
    <glyph glyph-name="F" unicode="F" horiz-adv-x="1167" 
d="M1133 1280h-818v-524h672v-152h-672v-604h-184v1434h1002v-154z" />
    <glyph glyph-name="G" unicode="G" horiz-adv-x="1441" 
d="M797 -31q-381 0 -550 176t-169 572q0 390 172.5 568.5t548.5 178.5q249 0 495 -61v-158q-280 70 -489 70q-298 0 -420.5 -135.5t-122.5 -462.5t124 -462.5t425 -135.5q36 0 74.5 2t80 7t67 8.5t69.5 10t55 7.5v421h-326v146h500v-692q-118 -26 -267 -43t-267 -17z" />
    <glyph glyph-name="H" unicode="H" horiz-adv-x="1484" 
d="M1169 1434h185v-1434h-185v657h-854v-657h-184v1434h184v-623h854v623z" />
    <glyph glyph-name="I" unicode="I" horiz-adv-x="446" 
d="M131 1434h184v-1434h-184v1434z" />
    <glyph glyph-name="J" unicode="J" horiz-adv-x="727" 
d="M45 152q93 -13 154 -13q138 0 182.5 51t44.5 193v1051h184v-1055q0 -106 -17 -177t-60 -121t-116.5 -72.5t-185.5 -22.5q-103 0 -186 16v150z" />
    <glyph glyph-name="K" unicode="K" horiz-adv-x="1329" 
d="M315 860q0 -90 -14 -272q38 46 102.5 119.5t115.5 130.5t134 148t113 124l303 324h215l-573 -625l665 -809h-227l-555 682l-279 -289v-393h-184v1434h184v-574z" />
    <glyph glyph-name="L" unicode="L" horiz-adv-x="1150" 
d="M315 158h803v-158h-987v1434h184v-1276z" />
    <glyph glyph-name="M" unicode="M" horiz-adv-x="1734" 
d="M1430 985q0 109 4 305q-3 -10 -41 -123.5t-58 -165.5l-387 -1001h-164l-385 1001q-43 119 -98 289q4 -208 4 -305v-985h-174v1434h279l350 -899q61 -157 108 -299q30 100 107 296l352 902h277v-1434h-174v985z" />
    <glyph glyph-name="N" unicode="N" horiz-adv-x="1480" 
d="M131 0v1434h217l686 -1000q49 -71 144 -225q-4 160 -4 258v967h176v-1434h-215l-695 1010q-47 69 -135 215q2 -82 2 -260v-965h-176z" />
    <glyph glyph-name="O" unicode="O" horiz-adv-x="1533" 
d="M766 -31q-187 0 -318.5 48t-211 145t-115 232.5t-35.5 322.5q0 186 35.5 321.5t115 232.5t211 145t318.5 48q151 0 265.5 -31.5t193.5 -91.5t128.5 -152t72 -207.5t22.5 -264.5q0 -186 -36 -321.5t-115.5 -233t-211.5 -145.5t-319 -48zM766 117q274 0 386 140.5
t112 459.5q0 318 -113 459t-385 141q-273 0 -384.5 -140t-111.5 -460q0 -318 112 -459t384 -141z" />
    <glyph glyph-name="P" unicode="P" horiz-adv-x="1269" 
d="M696 1434q148 0 251 -30t162 -88.5t84.5 -135.5t25.5 -181q0 -103 -25.5 -180t-84 -136t-162 -89.5t-251.5 -30.5h-381v-563h-184v1434h565zM692 713q100 0 168 19t105.5 57.5t53 88.5t15.5 121t-15.5 121t-53 88.5t-105.5 57t-168 18.5h-377v-571h377z" />
    <glyph glyph-name="Q" unicode="Q" horiz-adv-x="1533" 
d="M836 -29q4 -135 55 -181t188 -46q83 0 226 20v-147q-131 -16 -232 -16q-210 0 -295.5 66t-85.5 206q0 53 10 98q-169 7 -288 58.5t-191 148.5t-104.5 228.5t-32.5 310.5q0 186 35.5 321.5t115 232.5t211 145t318.5 48q151 0 265.5 -31.5t193.5 -91.5t128.5 -152
t72 -207.5t22.5 -264.5q0 -177 -32.5 -308t-104 -227.5t-190 -149t-285.5 -61.5zM270 717q0 -318 112 -459t384 -141q274 0 386 140.5t112 459.5q0 318 -113 459t-385 141q-273 0 -384.5 -140t-111.5 -460z" />
    <glyph glyph-name="R" unicode="R" horiz-adv-x="1335" 
d="M131 1434h545q148 0 251 -29.5t161.5 -87t84 -132.5t25.5 -175q0 -86 -22.5 -153t-62 -111.5t-98.5 -74.5t-127 -44.5t-153 -18.5q82 -24 150.5 -82.5t169.5 -175.5l297 -350h-224l-342 408q-82 99 -148 137.5t-165 38.5h-158v-584h-184v1434zM315 1284v-555h306
q97 0 167 13t113.5 35.5t68.5 58.5t34.5 76.5t9.5 95.5q0 68 -15.5 116.5t-53 85.5t-105 55.5t-166.5 18.5h-359z" />
    <glyph glyph-name="S" unicode="S" horiz-adv-x="1251" 
d="M1100 1245q-256 70 -475 70q-104 0 -177 -16t-113 -46.5t-57.5 -67.5t-17.5 -85q0 -37 6.5 -63.5t29 -57.5t64 -56t115 -52.5t178.5 -53.5q159 -38 263 -82t163 -101.5t82 -122t23 -153.5q0 -90 -30.5 -159.5t-96.5 -122t-178.5 -80t-268.5 -27.5q-126 0 -274.5 22
t-249.5 56v156q277 -86 524 -86q112 0 189.5 16.5t120.5 49t61 73.5t18 96q0 56 -13.5 93.5t-56 75.5t-125 69.5t-216.5 64.5q-123 30 -213.5 66t-147.5 75t-91 87.5t-47 98.5t-13 112q0 368 555 368q253 0 469 -59v-158z" />
    <glyph glyph-name="T" unicode="T" horiz-adv-x="1251" 
d="M1219 1434v-154h-502v-1280h-182v1280h-502v154h1186z" />
    <glyph glyph-name="U" unicode="U" horiz-adv-x="1454" 
d="M1337 1434v-869q0 -140 -32 -246.5t-102 -186.5t-189.5 -121.5t-286.5 -41.5q-168 0 -287.5 41t-189.5 121t-101.5 186t-31.5 248v869h184v-867q0 -225 97.5 -335.5t328.5 -110.5t328.5 110.5t97.5 335.5v867h184z" />
    <glyph glyph-name="V" unicode="V" horiz-adv-x="1339" 
d="M1143 1434h190l-567 -1434h-197l-565 1434h197l409 -1057q22 -58 62 -187q28 104 59 187z" />
    <glyph glyph-name="W" unicode="W" horiz-adv-x="1982" 
d="M4 1434h195l309 -1051q28 -101 39 -174q13 68 43 174l311 1051h186l312 -1051q29 -103 39 -172q5 25 41 172l311 1051h188l-442 -1434h-193l-311 1051q-25 87 -41 180q-6 -46 -39 -180l-313 -1051h-195z" />
    <glyph glyph-name="X" unicode="X" horiz-adv-x="1329" 
d="M-16 0l559 739l-523 695h220l305 -414q83 -114 119 -170q51 80 116 170l307 414h216l-523 -693l566 -741h-220l-348 461q-25 35 -114 166q-113 -158 -119 -166l-346 -461h-215z" />
    <glyph glyph-name="Y" unicode="Y" horiz-adv-x="1320" 
d="M565 0v575l-559 859h211l377 -586q41 -64 65 -125q35 73 68 125l381 586h207l-567 -861v-573h-183z" />
    <glyph glyph-name="Z" unicode="Z" horiz-adv-x="1284" 
d="M94 1434h1100v-158l-762 -942q-81 -101 -162 -182q114 4 244 4h709v-156h-1162v160l764 940q70 84 162 182q-114 -4 -242 -4h-651v156z" />
    <glyph glyph-name="grave" unicode="`" horiz-adv-x="481" 
d="M41 1518h168l231 -322h-133z" />
    <glyph glyph-name="a" unicode="a" horiz-adv-x="1105" 
d="M152 983q185 37 366 37q115 0 197 -16.5t135 -47.5t84 -82t43 -112t12 -146v-616h-123l-12 221q-14 -47 -39.5 -87.5t-70 -79t-119 -61t-170.5 -22.5q-207 0 -299.5 76t-92.5 229q0 77 22 131.5t74 94t141 58t220 18.5q84 0 293 -19v70q0 70 -12 113t-45 75.5t-94 46
t-158 13.5q-143 0 -352 -41v147zM549 453q-124 0 -194 -20.5t-94.5 -56t-24.5 -95.5q0 -89 57 -133t196 -44q330 0 330 330q-121 19 -270 19z" />
    <glyph glyph-name="b" unicode="b" horiz-adv-x="1202" 
d="M659 -31q-83 0 -149.5 15.5t-108 39t-72.5 58.5t-46.5 66t-26.5 69l-12 -217h-123v1434h178v-359q0 -88 -14 -289q28 101 122.5 168.5t258.5 67.5q245 0 350.5 -129t105.5 -397q0 -266 -108 -396.5t-355 -130.5zM618 113q181 0 252.5 88.5t71.5 294.5q0 204 -72 293.5
t-252 89.5q-179 0 -252 -90t-73 -293t72.5 -293t252.5 -90z" />
    <glyph glyph-name="c" unicode="c" horiz-adv-x="1009" 
d="M920 838q-173 45 -322 45q-190 0 -264 -85t-74 -302q0 -216 74 -301.5t264 -85.5q169 0 346 61v-143q-60 -25 -157.5 -41.5t-198.5 -16.5q-274 0 -391 125.5t-117 401.5q0 275 117 400.5t391 125.5q172 0 332 -39v-145z" />
    <glyph glyph-name="d" unicode="d" horiz-adv-x="1202" 
d="M541 -31q-246 0 -353.5 129t-107.5 398q0 266 108.5 396t350.5 130q165 0 259 -67.5t120 -168.5q-15 215 -15 289v359h178v-1434h-123l-12 221q-10 -40 -26 -72.5t-47 -67t-73.5 -58.5t-109 -39t-149.5 -15zM584 113q176 0 250.5 88.5t74.5 294.5q0 205 -75.5 294
t-249.5 89q-178 0 -251 -87.5t-73 -295.5q0 -206 74 -294.5t250 -88.5z" />
    <glyph glyph-name="e" unicode="e" horiz-adv-x="1126" 
d="M1004 25q-70 -23 -178 -39.5t-212 -16.5q-155 0 -259.5 32t-164.5 101t-85 163t-25 231q0 131 25 225t81.5 163.5t154 103.5t237.5 34q131 0 223 -32.5t145.5 -97.5t77 -151t23.5 -202q0 -49 -3 -107h-786q3 -116 35.5 -184t110.5 -103.5t212 -35.5q204 0 388 63v-147z
M575 889q-173 0 -243.5 -79t-73.5 -245h614q0 165 -67 244.5t-230 79.5z" />
    <glyph glyph-name="f" unicode="f" horiz-adv-x="712" 
d="M561 1323q-113 0 -149.5 -39.5t-36.5 -144.5v-148h311v-143h-311v-848h-178v848h-148v143h148v142q0 169 72.5 249t256.5 80q69 0 162 -12v-137q-73 10 -127 10z" />
    <glyph glyph-name="g" unicode="g" horiz-adv-x="1202" 
d="M559 -399q-101 0 -214.5 18t-190.5 45v146q217 -68 391 -68q192 0 277 81t85 253q0 103 11 186q-81 -219 -379 -219q-125 0 -214.5 33.5t-142.5 98.5t-77.5 153t-24.5 204q0 490 463 490q85 0 152.5 -16.5t108.5 -40.5t72 -59.5t45 -64.5t25 -65l12 215h123v-915
q0 -110 -26.5 -193.5t-85.5 -148.5t-162 -99t-248 -34zM584 186q177 0 251 87.5t74 258.5q0 170 -74.5 258.5t-250.5 88.5q-177 0 -250.5 -88t-73.5 -259q0 -173 72.5 -259.5t251.5 -86.5z" />
    <glyph glyph-name="h" unicode="h" horiz-adv-x="1153" 
d="M121 1434h178v-353q0 -90 -14 -272q25 96 116 154.5t248 58.5q114 0 192.5 -26t123 -78.5t63.5 -122t19 -166.5v-629h-179v618q0 71 -12 117t-42.5 79.5t-83.5 48t-136 14.5q-163 0 -229 -70.5t-66 -202.5v-604h-178v1434z" />
    <glyph glyph-name="i" unicode="i" horiz-adv-x="421" 
d="M123 1434h178v-256h-178v256zM123 991h178v-991h-178v991z" />
    <glyph glyph-name="j" unicode="j" horiz-adv-x="419" 
d="M121 1434h178v-256h-178v256zM299 -72q0 -165 -71 -246t-242 -81q-102 0 -144 10v137q81 -6 107 -6q101 0 136.5 39t35.5 139v1071h178v-1063z" />
    <glyph glyph-name="k" unicode="k" horiz-adv-x="1064" 
d="M121 1434h178v-758q0 -92 -14 -279q53 75 203 246.5t315 347.5h207l-418 -444l510 -547h-230l-395 430l-178 -180v-250h-178v1434z" />
    <glyph glyph-name="l" unicode="l" horiz-adv-x="444" 
d="M133 1434h178v-1434h-178v1434z" />
    <glyph glyph-name="m" unicode="m" horiz-adv-x="1812" 
d="M1004 0h-179v621q0 141 -52.5 198.5t-199.5 57.5q-144 0 -203 -69.5t-59 -205.5v-602h-178v991h123l12 -209q5 34 18.5 65.5t40.5 64t64.5 56.5t95 39t127.5 15q304 0 351 -219q10 40 33.5 76t63.5 69.5t103.5 53.5t143.5 20q214 0 300.5 -96.5t86.5 -298.5v-627h-178
v621q0 140 -53 198t-201 58q-142 0 -201 -68t-59 -201v-608z" />
    <glyph glyph-name="n" unicode="n" horiz-adv-x="1175" 
d="M133 991h123l12 -211q8 45 31 84.5t65.5 76.5t115.5 59t169 22q117 0 197.5 -25t126.5 -77t66 -122t20 -169v-629h-178v614q0 71 -11.5 117.5t-42 81t-84 49.5t-135.5 15q-86 0 -145.5 -21t-92 -62t-46 -91t-13.5 -117v-586h-178v991z" />
    <glyph glyph-name="o" unicode="o" horiz-adv-x="1208" 
d="M604 -31q-148 0 -250.5 34.5t-161.5 104t-84.5 163.5t-25.5 225t25.5 225t84.5 163.5t161.5 103.5t250.5 34q147 0 249.5 -34t162.5 -103.5t86 -163.5t26 -225t-26 -225t-86 -163.5t-162.5 -104t-249.5 -34.5zM604 111q100 0 166.5 22t106 71t55.5 119t16 173
q0 205 -75 295t-269 90q-100 0 -166.5 -22t-106 -71t-55.5 -119t-16 -173q0 -206 75 -295.5t269 -89.5z" />
    <glyph glyph-name="p" unicode="p" horiz-adv-x="1202" 
d="M121 -369v1360h123l12 -221q11 39 27 71t47 67t73.5 59t109 39.5t149.5 15.5q246 0 353 -128.5t107 -397.5q0 -267 -107.5 -397t-348.5 -130q-167 0 -261 68.5t-120 169.5q14 -201 14 -289v-287h-178zM618 109q178 0 251 88t73 299q0 210 -73.5 298.5t-250.5 88.5
q-176 0 -250.5 -89.5t-74.5 -297.5q0 -209 75 -298t250 -89z" />
    <glyph glyph-name="q" unicode="q" horiz-adv-x="1200" 
d="M901 -369v283q0 93 14 289q-13 -46 -40.5 -85.5t-72 -74t-113 -54.5t-154.5 -20q-243 0 -350 129.5t-107 397.5q0 266 109 396t354 130q102 0 178 -22t120 -61t67.5 -78t37.5 -89l12 219h123v-1360h-178zM580 113q177 0 252 88.5t75 294.5q0 205 -74.5 294t-250.5 89
q-178 0 -251 -87.5t-73 -295.5q0 -207 73 -295t249 -88z" />
    <glyph glyph-name="r" unicode="r" horiz-adv-x="743" 
d="M133 991h123l14 -293q30 316 355 316q11 0 86 -6v-166q-46 6 -86 6q-175 0 -244.5 -84.5t-69.5 -300.5v-463h-178v991z" />
    <glyph glyph-name="s" unicode="s" horiz-adv-x="1005" 
d="M512 -29q-233 0 -414 58v147q231 -63 416 -63q143 0 199.5 36t56.5 111q0 19 -4 35t-8.5 28.5t-17 23.5t-21.5 18.5t-31 15.5t-35.5 12.5t-45.5 11.5t-51 11t-60 12q-65 13 -107.5 23t-90 24.5t-77 29.5t-58 37.5t-43.5 49.5t-24.5 63.5t-9.5 81.5q0 69 21 119.5t69 88
t130.5 56.5t201.5 19q152 0 366 -33v-147q-205 39 -362 39q-99 0 -156 -16.5t-77.5 -43.5t-20.5 -71q0 -22 6 -39.5t14 -30.5t28 -24.5t36 -18.5t51 -16t60 -14l75 -15q54 -11 86.5 -17.5t75 -17t67 -20t55.5 -23.5t47.5 -29t35 -36t27 -46t14.5 -56t6 -69
q0 -157 -97.5 -231t-332.5 -74z" />
    <glyph glyph-name="t" unicode="t" horiz-adv-x="759" 
d="M705 848h-340v-535q0 -103 36.5 -142.5t147.5 -39.5q63 0 131 14v-139q-72 -14 -164 -14q-183 0 -256.5 81t-73.5 249v526h-137v143h148l47 240h121v-240h340v-143z" />
    <glyph glyph-name="u" unicode="u" horiz-adv-x="1159" 
d="M1038 0h-123l-10 211q-8 -42 -32 -81.5t-67 -77t-117 -60.5t-169 -23q-226 0 -318.5 98.5t-92.5 294.5v629h178v-618q0 -137 59 -197.5t217 -60.5q84 0 143.5 20.5t92 59t47 86.5t14.5 110v600h178v-991z" />
    <glyph glyph-name="v" unicode="v" horiz-adv-x="1038" 
d="M836 991h186l-399 -991h-209l-400 991h193l258 -672q28 -75 55 -184q36 125 58 184z" />
    <glyph glyph-name="w" unicode="w" horiz-adv-x="1630" 
d="M14 991h191l213 -665q28 -104 47 -201q30 135 51 201l207 665h188l209 -665q15 -47 49 -201q19 85 50 201l213 665h184l-342 -991h-201l-258 829l-256 -829h-203z" />
    <glyph glyph-name="x" unicode="x" horiz-adv-x="1024" 
d="M0 0l406 508l-383 483h210l117 -157q101 -129 162 -222q92 133 160 222l119 157h208l-381 -479l408 -512h-211l-156 207q-64 80 -149 203q-91 -132 -148 -203l-155 -207h-207z" />
    <glyph glyph-name="y" unicode="y" horiz-adv-x="1040" 
d="M14 991h193l254 -608q45 -112 63 -195q20 76 64 195l250 608h188l-590 -1360h-184l190 400z" />
    <glyph glyph-name="z" unicode="z" horiz-adv-x="993" 
d="M80 164l506 565q22 24 63 65l56 56q-26 0 -88 -1t-91 -1h-428v143h793v-164l-508 -567q-18 -21 -117 -119h178h469v-141h-833v164z" />
    <glyph glyph-name="uni00A0" unicode="&#xa0;" horiz-adv-x="460" 
 />
    <glyph glyph-name="dieresis" unicode="&#xa8;" horiz-adv-x="622" 
d="M41 1456h156v-260h-156v260zM426 1456h156v-260h-156v260z" />
    <glyph glyph-name="macron" unicode="&#xaf;" horiz-adv-x="690" 
d="M41 1378h608v-118h-608v118z" />
    <glyph glyph-name="acute" unicode="&#xb4;" horiz-adv-x="481" 
d="M440 1518l-266 -322h-133l231 322h168z" />
    <glyph glyph-name="periodcentered" unicode="&#xb7;" horiz-adv-x="456" 
d="M129 719h199v-211h-199v211z" />
    <glyph glyph-name="cedilla" unicode="&#xb8;" horiz-adv-x="475" 
d="M293 0l-74 -117q18 2 64 2q71 0 111 -35t40 -96q0 -157 -207 -157q-96 0 -186 34v84q82 -26 152 -26q116 0 116 63q0 64 -96 64q-57 0 -84 -6l-31 45l90 145h105z" />
    <glyph glyph-name="Agrave" unicode="&#xc0;" horiz-adv-x="1409" 
d="M389 1903h168l231 -322h-133zM1208 0l-157 383h-699l-157 -383h-191l598 1434h209l594 -1434h-197zM410 535h585l-225 546q-7 18 -65 189l-68 -189z" />
    <glyph glyph-name="Aacute" unicode="&#xc1;" horiz-adv-x="1409" 
d="M1014 1903l-266 -322h-134l232 322h168zM1208 0l-157 383h-699l-157 -383h-191l598 1434h209l594 -1434h-197zM410 535h585l-225 546q-7 18 -65 189l-68 -189z" />
    <glyph glyph-name="Acircumflex" unicode="&#xc2;" horiz-adv-x="1409" 
d="M379 1581l242 322h170l241 -322h-133l-192 229l-195 -229h-133zM1208 0l-157 383h-699l-157 -383h-191l598 1434h209l594 -1434h-197zM410 535h585l-225 546q-7 18 -65 189l-68 -189z" />
    <glyph glyph-name="Atilde" unicode="&#xc3;" horiz-adv-x="1409" 
d="M379 1593q1 136 44.5 198t137.5 62q42 0 83 -20t101 -64q51 -39 77 -53t50 -14q42 0 59 29t23 110h101q-1 -137 -45 -198.5t-138 -61.5q-73 0 -184 84q-48 37 -75 51.5t-50 14.5q-43 0 -60.5 -29t-23.5 -109h-100zM1208 0l-157 383h-699l-157 -383h-191l598 1434h209
l594 -1434h-197zM410 535h585l-225 546q-7 18 -65 189l-68 -189z" />
    <glyph glyph-name="Adieresis" unicode="&#xc4;" horiz-adv-x="1409" 
d="M434 1841h156v-260h-156v260zM819 1841h156v-260h-156v260zM1208 0l-157 383h-699l-157 -383h-191l598 1434h209l594 -1434h-197zM410 535h585l-225 546q-7 18 -65 189l-68 -189z" />
    <glyph glyph-name="Aring" unicode="&#xc5;" horiz-adv-x="1409" 
d="M713 1579q-114 0 -173 52t-59 153q0 103 59 156t173 53q112 0 169.5 -53t57.5 -156q0 -205 -227 -205zM713 1671q64 0 90 26t26 87q0 62 -26 88t-90 26q-66 0 -93.5 -26t-27.5 -88q0 -60 27.5 -86.5t93.5 -26.5zM1208 0l-157 383h-699l-157 -383h-191l598 1434h209
l594 -1434h-197zM410 535h585l-225 546q-7 18 -65 189l-68 -189z" />
    <glyph glyph-name="AE" unicode="&#xc6;" horiz-adv-x="2103" 
d="M1231 154h842v-154h-1024v383h-598l-263 -383h-202l956 1434h1083v-154h-794v-469h649v-152h-649v-505zM541 535h508v763q-57 -100 -146 -239z" />
    <glyph glyph-name="Ccedilla" unicode="&#xc7;" horiz-adv-x="1308" 
d="M1251 43q-93 -33 -223.5 -53.5t-247.5 -20.5l-55 -86q18 2 63 2q71 0 111.5 -35t40.5 -96q0 -157 -207 -157q-96 0 -186 34v84q82 -26 151 -26q117 0 117 63q0 64 -96 64q-57 0 -84 -6l-31 45l74 118q-312 23 -456 201.5t-144 542.5q0 387 170 567t534 180
q102 0 222 -18.5t213 -46.5v-160q-231 76 -437 76q-277 0 -396.5 -139.5t-119.5 -460.5q0 -318 122 -457t400 -139q192 0 465 84v-160z" />
    <glyph glyph-name="Egrave" unicode="&#xc8;" horiz-adv-x="1208" 
d="M315 1903h168l232 -322h-133zM315 154h863v-154h-1047v1434h999v-154h-815v-469h670v-152h-670v-505z" />
    <glyph glyph-name="Eacute" unicode="&#xc9;" horiz-adv-x="1208" 
d="M940 1903l-266 -322h-133l231 322h168zM315 154h863v-154h-1047v1434h999v-154h-815v-469h670v-152h-670v-505z" />
    <glyph glyph-name="Ecircumflex" unicode="&#xca;" horiz-adv-x="1208" 
d="M305 1581l242 322h170l241 -322h-133l-192 229l-195 -229h-133zM315 154h863v-154h-1047v1434h999v-154h-815v-469h670v-152h-670v-505z" />
    <glyph glyph-name="Edieresis" unicode="&#xcb;" horiz-adv-x="1208" 
d="M360 1841h156v-260h-156v260zM745 1841h156v-260h-156v260zM315 154h863v-154h-1047v1434h999v-154h-815v-469h670v-152h-670v-505z" />
    <glyph glyph-name="Igrave" unicode="&#xcc;" horiz-adv-x="446" 
d="M-92 1903h168l231 -322h-133zM131 1434h184v-1434h-184v1434z" />
    <glyph glyph-name="Iacute" unicode="&#xcd;" horiz-adv-x="446" 
d="M532 1903l-266 -322h-133l232 322h167zM131 1434h184v-1434h-184v1434z" />
    <glyph glyph-name="Icircumflex" unicode="&#xce;" horiz-adv-x="446" 
d="M-104 1581l241 322h170l242 -322h-133l-193 229l-194 -229h-133zM131 1434h184v-1434h-184v1434z" />
    <glyph glyph-name="Idieresis" unicode="&#xcf;" horiz-adv-x="446" 
d="M-47 1841h156v-260h-156v260zM338 1841h156v-260h-156v260zM131 1434h184v-1434h-184v1434z" />
    <glyph glyph-name="Eth" unicode="&#xd0;" horiz-adv-x="1458" 
d="M672 1434q199 0 331.5 -37.5t218 -123.5t122 -220.5t36.5 -335.5t-37 -335.5t-122.5 -220.5t-218 -123.5t-330.5 -37.5h-541v678h-131v119h131v637h541zM672 150q154 0 251.5 26.5t160 94t87.5 173.5t25 273q0 166 -25 272t-88 173.5t-160.5 94.5t-250.5 27h-357v-487
h318v-119h-318v-528h357z" />
    <glyph glyph-name="Ntilde" unicode="&#xd1;" horiz-adv-x="1480" 
d="M416 1593q1 136 44.5 198t137.5 62q42 0 83 -20t101 -64q51 -39 77 -53t50 -14q42 0 59 29t23 110h101q-1 -137 -45 -198.5t-138 -61.5q-73 0 -184 84q-48 37 -75 51.5t-50 14.5q-43 0 -60.5 -29t-23.5 -109h-100zM131 0v1434h217l686 -1000q49 -71 144 -225
q-4 160 -4 258v967h176v-1434h-215l-695 1010q-47 69 -135 215q2 -82 2 -260v-965h-176z" />
    <glyph glyph-name="Ograve" unicode="&#xd2;" horiz-adv-x="1533" 
d="M451 1903h167l232 -322h-133zM766 -31q-187 0 -318.5 48t-211 145t-115 232.5t-35.5 322.5q0 186 35.5 321.5t115 232.5t211 145t318.5 48q151 0 265.5 -31.5t193.5 -91.5t128.5 -152t72 -207.5t22.5 -264.5q0 -186 -36 -321.5t-115.5 -233t-211.5 -145.5t-319 -48z
M766 117q274 0 386 140.5t112 459.5q0 318 -113 459t-385 141q-273 0 -384.5 -140t-111.5 -460q0 -318 112 -459t384 -141z" />
    <glyph glyph-name="Oacute" unicode="&#xd3;" horiz-adv-x="1533" 
d="M1077 1903l-266 -322h-133l231 322h168zM766 -31q-187 0 -318.5 48t-211 145t-115 232.5t-35.5 322.5q0 186 35.5 321.5t115 232.5t211 145t318.5 48q151 0 265.5 -31.5t193.5 -91.5t128.5 -152t72 -207.5t22.5 -264.5q0 -186 -36 -321.5t-115.5 -233t-211.5 -145.5
t-319 -48zM766 117q274 0 386 140.5t112 459.5q0 318 -113 459t-385 141q-273 0 -384.5 -140t-111.5 -460q0 -318 112 -459t384 -141z" />
    <glyph glyph-name="Ocircumflex" unicode="&#xd4;" horiz-adv-x="1533" 
d="M440 1581l242 322h170l242 -322h-133l-193 229l-195 -229h-133zM766 -31q-187 0 -318.5 48t-211 145t-115 232.5t-35.5 322.5q0 186 35.5 321.5t115 232.5t211 145t318.5 48q151 0 265.5 -31.5t193.5 -91.5t128.5 -152t72 -207.5t22.5 -264.5q0 -186 -36 -321.5
t-115.5 -233t-211.5 -145.5t-319 -48zM766 117q274 0 386 140.5t112 459.5q0 318 -113 459t-385 141q-273 0 -384.5 -140t-111.5 -460q0 -318 112 -459t384 -141z" />
    <glyph glyph-name="Otilde" unicode="&#xd5;" horiz-adv-x="1533" 
d="M442 1593q1 136 45 198t138 62q42 0 83 -20t101 -64q51 -39 77 -53t50 -14q42 0 59 29t23 110h100q-1 -137 -44.5 -198.5t-137.5 -61.5q-73 0 -184 84q-48 37 -75 51.5t-50 14.5q-43 0 -60.5 -29t-23.5 -109h-101zM766 -31q-187 0 -318.5 48t-211 145t-115 232.5
t-35.5 322.5q0 186 35.5 321.5t115 232.5t211 145t318.5 48q151 0 265.5 -31.5t193.5 -91.5t128.5 -152t72 -207.5t22.5 -264.5q0 -186 -36 -321.5t-115.5 -233t-211.5 -145.5t-319 -48zM766 117q274 0 386 140.5t112 459.5q0 318 -113 459t-385 141q-273 0 -384.5 -140
t-111.5 -460q0 -318 112 -459t384 -141z" />
    <glyph glyph-name="Odieresis" unicode="&#xd6;" horiz-adv-x="1533" 
d="M498 1841h155v-260h-155v260zM883 1841h155v-260h-155v260zM766 -31q-187 0 -318.5 48t-211 145t-115 232.5t-35.5 322.5q0 186 35.5 321.5t115 232.5t211 145t318.5 48q151 0 265.5 -31.5t193.5 -91.5t128.5 -152t72 -207.5t22.5 -264.5q0 -186 -36 -321.5t-115.5 -233
t-211.5 -145.5t-319 -48zM766 117q274 0 386 140.5t112 459.5q0 318 -113 459t-385 141q-273 0 -384.5 -140t-111.5 -460q0 -318 112 -459t384 -141z" />
    <glyph glyph-name="Oslash" unicode="&#xd8;" horiz-adv-x="1533" 
d="M1237 1331q111 -90 161 -242t50 -372q0 -186 -36 -321.5t-115.5 -233t-211.5 -145.5t-319 -48q-231 0 -383 76l-94 -141h-129l133 200q-207 176 -207 613q0 186 35.5 321.5t115 232.5t211 145t318.5 48q237 0 381 -75l98 147h127zM270 717q0 -331 119 -467l670 1003
q-110 64 -293 64q-273 0 -384.5 -140t-111.5 -460zM766 117q274 0 386 140.5t112 459.5q0 334 -123 471l-668 -1008q108 -63 293 -63z" />
    <glyph glyph-name="Ugrave" unicode="&#xd9;" horiz-adv-x="1454" 
d="M412 1903h168l231 -322h-133zM1337 1434v-869q0 -140 -32 -246.5t-102 -186.5t-189.5 -121.5t-286.5 -41.5q-168 0 -287.5 41t-189.5 121t-101.5 186t-31.5 248v869h184v-867q0 -225 97.5 -335.5t328.5 -110.5t328.5 110.5t97.5 335.5v867h184z" />
    <glyph glyph-name="Uacute" unicode="&#xda;" horiz-adv-x="1454" 
d="M1036 1903l-266 -322h-133l231 322h168zM1337 1434v-869q0 -140 -32 -246.5t-102 -186.5t-189.5 -121.5t-286.5 -41.5q-168 0 -287.5 41t-189.5 121t-101.5 186t-31.5 248v869h184v-867q0 -225 97.5 -335.5t328.5 -110.5t328.5 110.5t97.5 335.5v867h184z" />
    <glyph glyph-name="Ucircumflex" unicode="&#xdb;" horiz-adv-x="1454" 
d="M401 1581l242 322h170l242 -322h-133l-193 229l-194 -229h-134zM1337 1434v-869q0 -140 -32 -246.5t-102 -186.5t-189.5 -121.5t-286.5 -41.5q-168 0 -287.5 41t-189.5 121t-101.5 186t-31.5 248v869h184v-867q0 -225 97.5 -335.5t328.5 -110.5t328.5 110.5t97.5 335.5
v867h184z" />
    <glyph glyph-name="Udieresis" unicode="&#xdc;" horiz-adv-x="1454" 
d="M457 1841h155v-260h-155v260zM842 1841h155v-260h-155v260zM1337 1434v-869q0 -140 -32 -246.5t-102 -186.5t-189.5 -121.5t-286.5 -41.5q-168 0 -287.5 41t-189.5 121t-101.5 186t-31.5 248v869h184v-867q0 -225 97.5 -335.5t328.5 -110.5t328.5 110.5t97.5 335.5v867
h184z" />
    <glyph glyph-name="Yacute" unicode="&#xdd;" horiz-adv-x="1320" 
d="M971 1903l-266 -322h-134l232 322h168zM565 0v575l-559 859h211l377 -586q41 -64 65 -125q35 73 68 125l381 586h207l-567 -861v-573h-183z" />
    <glyph glyph-name="Thorn" unicode="&#xde;" horiz-adv-x="1269" 
d="M711 1169q142 0 242 -30t157.5 -88t83 -133.5t25.5 -176.5q0 -100 -25.5 -175t-83 -133t-157.5 -88t-242 -30h-396v-315h-184v1434h184v-265h396zM707 465q183 0 255 69t72 207q0 139 -72.5 209t-254.5 70h-392v-555h392z" />
    <glyph glyph-name="germandbls" unicode="&#xdf;" horiz-adv-x="1167" 
d="M805 -23q-149 0 -281 48v143q151 -51 254 -51q176 0 176 127q0 57 -35.5 90t-138.5 92q-50 28 -78.5 48t-58.5 49.5t-43.5 65.5t-13.5 83q0 54 20.5 102t50.5 80t66 67.5t66 65t50.5 71.5t20.5 89q0 88 -63 131t-211 43q-59 0 -105.5 -7.5t-76 -17.5t-50.5 -29t-31 -33.5
t-15.5 -39.5t-6 -39t-0.5 -39v-1116h-178v1110q0 53 3 85.5t27.5 89t70 89.5t139.5 59.5t227 26.5q237 0 342.5 -76t105.5 -219q0 -76 -28 -138t-67.5 -102t-79 -75t-67.5 -73.5t-28 -80.5q0 -56 37 -90t131 -84q51 -27 82 -48t60 -53t42 -73.5t13 -97.5q0 -273 -328 -273z
" />
    <glyph glyph-name="agrave" unicode="&#xe0;" horiz-adv-x="1105" 
d="M221 1518h168l232 -322h-134zM152 983q185 37 366 37q115 0 197 -16.5t135 -47.5t84 -82t43 -112t12 -146v-616h-123l-12 221q-14 -47 -39.5 -87.5t-70 -79t-119 -61t-170.5 -22.5q-207 0 -299.5 76t-92.5 229q0 77 22 131.5t74 94t141 58t220 18.5q84 0 293 -19v70
q0 70 -12 113t-45 75.5t-94 46t-158 13.5q-143 0 -352 -41v147zM549 453q-124 0 -194 -20.5t-94.5 -56t-24.5 -95.5q0 -89 57 -133t196 -44q330 0 330 330q-121 19 -270 19z" />
    <glyph glyph-name="aacute" unicode="&#xe1;" horiz-adv-x="1105" 
d="M858 1518l-266 -322h-133l231 322h168zM152 983q185 37 366 37q115 0 197 -16.5t135 -47.5t84 -82t43 -112t12 -146v-616h-123l-12 221q-14 -47 -39.5 -87.5t-70 -79t-119 -61t-170.5 -22.5q-207 0 -299.5 76t-92.5 229q0 77 22 131.5t74 94t141 58t220 18.5
q84 0 293 -19v70q0 70 -12 113t-45 75.5t-94 46t-158 13.5q-143 0 -352 -41v147zM549 453q-124 0 -194 -20.5t-94.5 -56t-24.5 -95.5q0 -89 57 -133t196 -44q330 0 330 330q-121 19 -270 19z" />
    <glyph glyph-name="acircumflex" unicode="&#xe2;" horiz-adv-x="1105" 
d="M223 1196l242 322h170l242 -322h-134l-192 231l-195 -231h-133zM152 983q185 37 366 37q115 0 197 -16.5t135 -47.5t84 -82t43 -112t12 -146v-616h-123l-12 221q-14 -47 -39.5 -87.5t-70 -79t-119 -61t-170.5 -22.5q-207 0 -299.5 76t-92.5 229q0 77 22 131.5t74 94
t141 58t220 18.5q84 0 293 -19v70q0 70 -12 113t-45 75.5t-94 46t-158 13.5q-143 0 -352 -41v147zM549 453q-124 0 -194 -20.5t-94.5 -56t-24.5 -95.5q0 -89 57 -133t196 -44q330 0 330 330q-121 19 -270 19z" />
    <glyph glyph-name="atilde" unicode="&#xe3;" horiz-adv-x="1105" 
d="M211 1208q1 137 44.5 198.5t137.5 61.5q43 0 85.5 -20.5t99.5 -63.5q51 -38 77 -51.5t50 -13.5q41 0 58 28.5t23 108.5h101q-1 -136 -44.5 -198t-137.5 -62q-74 0 -185 84q-49 38 -76 53t-49 15q-43 0 -60.5 -29t-23.5 -111h-100zM152 983q185 37 366 37q115 0 197 -16.5
t135 -47.5t84 -82t43 -112t12 -146v-616h-123l-12 221q-14 -47 -39.5 -87.5t-70 -79t-119 -61t-170.5 -22.5q-207 0 -299.5 76t-92.5 229q0 77 22 131.5t74 94t141 58t220 18.5q84 0 293 -19v70q0 70 -12 113t-45 75.5t-94 46t-158 13.5q-143 0 -352 -41v147zM549 453
q-124 0 -194 -20.5t-94.5 -56t-24.5 -95.5q0 -89 57 -133t196 -44q330 0 330 330q-121 19 -270 19z" />
    <glyph glyph-name="adieresis" unicode="&#xe4;" horiz-adv-x="1105" 
d="M279 1456h155v-260h-155v260zM664 1456h155v-260h-155v260zM152 983q185 37 366 37q115 0 197 -16.5t135 -47.5t84 -82t43 -112t12 -146v-616h-123l-12 221q-14 -47 -39.5 -87.5t-70 -79t-119 -61t-170.5 -22.5q-207 0 -299.5 76t-92.5 229q0 77 22 131.5t74 94t141 58
t220 18.5q84 0 293 -19v70q0 70 -12 113t-45 75.5t-94 46t-158 13.5q-143 0 -352 -41v147zM549 453q-124 0 -194 -20.5t-94.5 -56t-24.5 -95.5q0 -89 57 -133t196 -44q330 0 330 330q-121 19 -270 19z" />
    <glyph glyph-name="aring" unicode="&#xe5;" horiz-adv-x="1105" 
d="M551 1194q-114 0 -173 52t-59 153q0 103 59 156t173 53q112 0 169.5 -53t57.5 -156q0 -205 -227 -205zM551 1286q64 0 90.5 26t26.5 87q0 62 -26.5 88t-90.5 26q-66 0 -93.5 -26t-27.5 -88q0 -60 27.5 -86.5t93.5 -26.5zM152 983q185 37 366 37q115 0 197 -16.5
t135 -47.5t84 -82t43 -112t12 -146v-616h-123l-12 221q-14 -47 -39.5 -87.5t-70 -79t-119 -61t-170.5 -22.5q-207 0 -299.5 76t-92.5 229q0 77 22 131.5t74 94t141 58t220 18.5q84 0 293 -19v70q0 70 -12 113t-45 75.5t-94 46t-158 13.5q-143 0 -352 -41v147zM549 453
q-124 0 -194 -20.5t-94.5 -56t-24.5 -95.5q0 -89 57 -133t196 -44q330 0 330 330q-121 19 -270 19z" />
    <glyph glyph-name="ae" unicode="&#xe6;" horiz-adv-x="1855" 
d="M1337 -31q-190 0 -296.5 57.5t-153.5 176.5q-42 -105 -147 -168.5t-267 -63.5q-216 0 -313 76t-97 229q0 149 100 222t329 73h321v58q0 70 -12 113t-45 75.5t-94 46t-158 13.5q-143 0 -352 -41v147q185 37 366 37q172 0 263.5 -44.5t127.5 -139.5q100 186 389 186
q127 0 217 -32.5t142.5 -97t76 -149.5t23.5 -200q0 -64 -2 -105h-766q3 -176 80 -252.5t270 -76.5q191 0 375 63v-147q-70 -23 -176 -39.5t-201 -16.5zM987 569h600q0 163 -65 241.5t-224 78.5q-168 0 -238 -78.5t-73 -241.5zM489 104q170 0 250 85t80 257h-297
q-162 0 -224 -39.5t-62 -125.5q0 -89 57 -133t196 -44z" />
    <glyph glyph-name="ccedilla" unicode="&#xe7;" horiz-adv-x="1009" 
d="M944 27q-60 -25 -156 -41.5t-196 -16.5l-55 -86q18 2 63 2q71 0 111.5 -35t40.5 -96q0 -157 -207 -157q-97 0 -187 34v84q82 -26 152 -26q117 0 117 63q0 64 -97 64q-57 0 -84 -6l-30 45l73 118q-219 21 -314 147t-95 376q0 275 117 400.5t391 125.5q172 0 332 -39v-145
q-173 45 -322 45q-190 0 -264 -85t-74 -302q0 -216 74 -301.5t264 -85.5q169 0 346 61v-143z" />
    <glyph glyph-name="egrave" unicode="&#xe8;" horiz-adv-x="1126" 
d="M248 1518h168l231 -322h-133zM1004 25q-70 -23 -178 -39.5t-212 -16.5q-155 0 -259.5 32t-164.5 101t-85 163t-25 231q0 131 25 225t81.5 163.5t154 103.5t237.5 34q131 0 223 -32.5t145.5 -97.5t77 -151t23.5 -202q0 -49 -3 -107h-786q3 -116 35.5 -184t110.5 -103.5
t212 -35.5q204 0 388 63v-147zM575 889q-173 0 -243.5 -79t-73.5 -245h614q0 165 -67 244.5t-230 79.5z" />
    <glyph glyph-name="eacute" unicode="&#xe9;" horiz-adv-x="1126" 
d="M885 1518l-267 -322h-133l232 322h168zM1004 25q-70 -23 -178 -39.5t-212 -16.5q-155 0 -259.5 32t-164.5 101t-85 163t-25 231q0 131 25 225t81.5 163.5t154 103.5t237.5 34q131 0 223 -32.5t145.5 -97.5t77 -151t23.5 -202q0 -49 -3 -107h-786q3 -116 35.5 -184
t110.5 -103.5t212 -35.5q204 0 388 63v-147zM575 889q-173 0 -243.5 -79t-73.5 -245h614q0 165 -67 244.5t-230 79.5z" />
    <glyph glyph-name="ecircumflex" unicode="&#xea;" horiz-adv-x="1126" 
d="M250 1196l242 322h170l241 -322h-133l-192 231l-195 -231h-133zM1004 25q-70 -23 -178 -39.5t-212 -16.5q-155 0 -259.5 32t-164.5 101t-85 163t-25 231q0 131 25 225t81.5 163.5t154 103.5t237.5 34q131 0 223 -32.5t145.5 -97.5t77 -151t23.5 -202q0 -49 -3 -107h-786
q3 -116 35.5 -184t110.5 -103.5t212 -35.5q204 0 388 63v-147zM575 889q-173 0 -243.5 -79t-73.5 -245h614q0 165 -67 244.5t-230 79.5z" />
    <glyph glyph-name="edieresis" unicode="&#xeb;" horiz-adv-x="1126" 
d="M305 1456h156v-260h-156v260zM690 1456h156v-260h-156v260zM1004 25q-70 -23 -178 -39.5t-212 -16.5q-155 0 -259.5 32t-164.5 101t-85 163t-25 231q0 131 25 225t81.5 163.5t154 103.5t237.5 34q131 0 223 -32.5t145.5 -97.5t77 -151t23.5 -202q0 -49 -3 -107h-786
q3 -116 35.5 -184t110.5 -103.5t212 -35.5q204 0 388 63v-147zM575 889q-173 0 -243.5 -79t-73.5 -245h614q0 165 -67 244.5t-230 79.5z" />
    <glyph glyph-name="igrave" unicode="&#xec;" horiz-adv-x="419" 
d="M-117 1518h168l232 -322h-133zM121 991h178v-991h-178v991z" />
    <glyph glyph-name="iacute" unicode="&#xed;" horiz-adv-x="419" 
d="M520 1518l-266 -322h-133l231 322h168zM121 991h178v-991h-178v991z" />
    <glyph glyph-name="icircumflex" unicode="&#xee;" horiz-adv-x="419" 
d="M-117 1196l242 322h170l242 -322h-134l-192 231l-195 -231h-133zM121 991h178v-991h-178v991z" />
    <glyph glyph-name="idieresis" unicode="&#xef;" horiz-adv-x="419" 
d="M-59 1456h155v-260h-155v260zM326 1456h155v-260h-155v260zM121 991h178v-991h-178v991z" />
    <glyph glyph-name="eth" unicode="&#xf0;" horiz-adv-x="1208" 
d="M733 1294q187 -148 290 -348.5t103 -425.5q0 -147 -25.5 -247t-86 -170t-161.5 -102t-251 -32q-146 0 -249 33.5t-162 99.5t-85 152t-26 201q0 483 477 483q137 0 229 -42.5t146 -137.5q-102 277 -316 461l-254 -168l-49 73l230 152q-92 68 -224 139l70 74
q142 -55 266 -137l228 149l49 -76zM602 111q194 0 270 83t76 261q0 88 -16.5 149.5t-55.5 106.5t-107 66.5t-167 21.5t-166 -21t-105.5 -66.5t-54.5 -106.5t-16 -150q0 -88 16 -149.5t55 -106.5t105.5 -66.5t165.5 -21.5z" />
    <glyph glyph-name="ntilde" unicode="&#xf1;" horiz-adv-x="1175" 
d="M250 1208q1 137 44.5 198.5t137.5 61.5q43 0 85 -20.5t99 -63.5q51 -38 77 -51.5t50 -13.5q41 0 58.5 29t23.5 108h101q-1 -136 -45 -198t-138 -62q-73 0 -184 84q-49 38 -76 53t-49 15q-43 0 -60.5 -29t-23.5 -111h-100zM133 991h123l12 -211q8 45 31 84.5t65.5 76.5
t115.5 59t169 22q117 0 197.5 -25t126.5 -77t66 -122t20 -169v-629h-178v614q0 71 -11.5 117.5t-42 81t-84 49.5t-135.5 15q-86 0 -145.5 -21t-92 -62t-46 -91t-13.5 -117v-586h-178v991z" />
    <glyph glyph-name="ograve" unicode="&#xf2;" horiz-adv-x="1208" 
d="M279 1518h167l232 -322h-133zM604 -31q-148 0 -250.5 34.5t-161.5 104t-84.5 163.5t-25.5 225t25.5 225t84.5 163.5t161.5 103.5t250.5 34q147 0 249.5 -34t162.5 -103.5t86 -163.5t26 -225t-26 -225t-86 -163.5t-162.5 -104t-249.5 -34.5zM604 111q100 0 166.5 22
t106 71t55.5 119t16 173q0 205 -75 295t-269 90q-100 0 -166.5 -22t-106 -71t-55.5 -119t-16 -173q0 -206 75 -295.5t269 -89.5z" />
    <glyph glyph-name="oacute" unicode="&#xf3;" horiz-adv-x="1208" 
d="M913 1518l-266 -322h-133l231 322h168zM604 -31q-148 0 -250.5 34.5t-161.5 104t-84.5 163.5t-25.5 225t25.5 225t84.5 163.5t161.5 103.5t250.5 34q147 0 249.5 -34t162.5 -103.5t86 -163.5t26 -225t-26 -225t-86 -163.5t-162.5 -104t-249.5 -34.5zM604 111
q100 0 166.5 22t106 71t55.5 119t16 173q0 205 -75 295t-269 90q-100 0 -166.5 -22t-106 -71t-55.5 -119t-16 -173q0 -206 75 -295.5t269 -89.5z" />
    <glyph glyph-name="ocircumflex" unicode="&#xf4;" horiz-adv-x="1208" 
d="M279 1196l241 322h170l242 -322h-133l-193 231l-194 -231h-133zM604 -31q-148 0 -250.5 34.5t-161.5 104t-84.5 163.5t-25.5 225t25.5 225t84.5 163.5t161.5 103.5t250.5 34q147 0 249.5 -34t162.5 -103.5t86 -163.5t26 -225t-26 -225t-86 -163.5t-162.5 -104
t-249.5 -34.5zM604 111q100 0 166.5 22t106 71t55.5 119t16 173q0 205 -75 295t-269 90q-100 0 -166.5 -22t-106 -71t-55.5 -119t-16 -173q0 -206 75 -295.5t269 -89.5z" />
    <glyph glyph-name="otilde" unicode="&#xf5;" horiz-adv-x="1208" 
d="M266 1208q1 137 45 198.5t138 61.5q43 0 85 -20.5t99 -63.5q51 -38 77 -51.5t50 -13.5q41 0 58.5 29t23.5 108h100q-1 -136 -44.5 -198t-137.5 -62q-74 0 -185 84q-50 39 -76 53.5t-48 14.5q-43 0 -60.5 -29t-23.5 -111h-101zM604 -31q-148 0 -250.5 34.5t-161.5 104
t-84.5 163.5t-25.5 225t25.5 225t84.5 163.5t161.5 103.5t250.5 34q147 0 249.5 -34t162.5 -103.5t86 -163.5t26 -225t-26 -225t-86 -163.5t-162.5 -104t-249.5 -34.5zM604 111q100 0 166.5 22t106 71t55.5 119t16 173q0 205 -75 295t-269 90q-100 0 -166.5 -22t-106 -71
t-55.5 -119t-16 -173q0 -206 75 -295.5t269 -89.5z" />
    <glyph glyph-name="odieresis" unicode="&#xf6;" horiz-adv-x="1208" 
d="M334 1456h155v-260h-155v260zM719 1456h155v-260h-155v260zM604 -31q-148 0 -250.5 34.5t-161.5 104t-84.5 163.5t-25.5 225t25.5 225t84.5 163.5t161.5 103.5t250.5 34q147 0 249.5 -34t162.5 -103.5t86 -163.5t26 -225t-26 -225t-86 -163.5t-162.5 -104t-249.5 -34.5z
M604 111q100 0 166.5 22t106 71t55.5 119t16 173q0 205 -75 295t-269 90q-100 0 -166.5 -22t-106 -71t-55.5 -119t-16 -173q0 -206 75 -295.5t269 -89.5z" />
    <glyph glyph-name="oslash" unicode="&#xf8;" horiz-adv-x="1208" 
d="M973 926q155 -121 155 -430q0 -131 -26 -225t-86 -163.5t-162.5 -104t-249.5 -34.5q-177 0 -287 49l-84 -114h-114l117 162q-154 120 -154 430q0 131 25.5 225t84.5 163.5t161.5 103.5t250.5 34q177 0 287 -49l82 114h117zM260 496q0 -207 74 -295l465 645
q-75 35 -195 35q-100 0 -166.5 -22t-106 -71t-55.5 -119t-16 -173zM604 111q100 0 166.5 22t106 71t55.5 119t16 173q0 207 -74 295l-466 -646q75 -34 196 -34z" />
    <glyph glyph-name="ugrave" unicode="&#xf9;" horiz-adv-x="1159" 
d="M250 1518h168l231 -322h-133zM1038 0h-123l-10 211q-8 -42 -32 -81.5t-67 -77t-117 -60.5t-169 -23q-226 0 -318.5 98.5t-92.5 294.5v629h178v-618q0 -137 59 -197.5t217 -60.5q84 0 143.5 20.5t92 59t47 86.5t14.5 110v600h178v-991z" />
    <glyph glyph-name="uacute" unicode="&#xfa;" horiz-adv-x="1159" 
d="M885 1518l-267 -322h-133l232 322h168zM1038 0h-123l-10 211q-8 -42 -32 -81.5t-67 -77t-117 -60.5t-169 -23q-226 0 -318.5 98.5t-92.5 294.5v629h178v-618q0 -137 59 -197.5t217 -60.5q84 0 143.5 20.5t92 59t47 86.5t14.5 110v600h178v-991z" />
    <glyph glyph-name="ucircumflex" unicode="&#xfb;" horiz-adv-x="1159" 
d="M250 1196l242 322h170l241 -322h-133l-192 231l-195 -231h-133zM1038 0h-123l-10 211q-8 -42 -32 -81.5t-67 -77t-117 -60.5t-169 -23q-226 0 -318.5 98.5t-92.5 294.5v629h178v-618q0 -137 59 -197.5t217 -60.5q84 0 143.5 20.5t92 59t47 86.5t14.5 110v600h178v-991z
" />
    <glyph glyph-name="udieresis" unicode="&#xfc;" horiz-adv-x="1159" 
d="M305 1456h156v-260h-156v260zM690 1456h156v-260h-156v260zM1038 0h-123l-10 211q-8 -42 -32 -81.5t-67 -77t-117 -60.5t-169 -23q-226 0 -318.5 98.5t-92.5 294.5v629h178v-618q0 -137 59 -197.5t217 -60.5q84 0 143.5 20.5t92 59t47 86.5t14.5 110v600h178v-991z" />
    <glyph glyph-name="yacute" unicode="&#xfd;" horiz-adv-x="1040" 
d="M829 1518l-266 -322h-133l232 322h167zM14 991h193l254 -608q45 -112 63 -195q20 76 64 195l250 608h188l-590 -1360h-184l190 400z" />
    <glyph glyph-name="thorn" unicode="&#xfe;" horiz-adv-x="1200" 
d="M121 -369v1803h178v-359q0 -88 -14 -289q28 101 122.5 168.5t258.5 67.5q245 0 350.5 -129t105.5 -397q0 -267 -107.5 -397t-348.5 -130q-167 0 -261 68.5t-120 169.5q14 -201 14 -289v-287h-178zM618 109q181 0 252.5 90t71.5 297q0 206 -72 296.5t-252 90.5
q-179 0 -252 -90.5t-73 -296.5t73 -296.5t252 -90.5z" />
    <glyph glyph-name="ydieresis" unicode="&#xff;" horiz-adv-x="1040" 
d="M250 1456h156v-260h-156v260zM635 1456h156v-260h-156v260zM14 991h193l254 -608q45 -112 63 -195q20 76 64 195l250 608h188l-590 -1360h-184l190 400z" />
    <glyph glyph-name="Amacron" unicode="&#x100;" horiz-adv-x="1409" 
d="M401 1759h609v-119h-609v119zM1208 0l-157 383h-699l-157 -383h-191l598 1434h209l594 -1434h-197zM410 535h585l-225 546q-7 18 -65 189l-68 -189z" />
    <glyph glyph-name="amacron" unicode="&#x101;" horiz-adv-x="1105" 
d="M246 1378h608v-118h-608v118zM152 983q185 37 366 37q115 0 197 -16.5t135 -47.5t84 -82t43 -112t12 -146v-616h-123l-12 221q-14 -47 -39.5 -87.5t-70 -79t-119 -61t-170.5 -22.5q-207 0 -299.5 76t-92.5 229q0 77 22 131.5t74 94t141 58t220 18.5q84 0 293 -19v70
q0 70 -12 113t-45 75.5t-94 46t-158 13.5q-143 0 -352 -41v147zM549 453q-124 0 -194 -20.5t-94.5 -56t-24.5 -95.5q0 -89 57 -133t196 -44q330 0 330 330q-121 19 -270 19z" />
    <glyph glyph-name="Abreve" unicode="&#x102;" horiz-adv-x="1409" 
d="M418 1907h104q6 -108 48 -155.5t137 -47.5q94 0 135 47t47 156h104q0 -167 -70 -247.5t-216 -80.5q-148 0 -218.5 80.5t-70.5 247.5zM1208 0l-157 383h-699l-157 -383h-191l598 1434h209l594 -1434h-197zM410 535h585l-225 546q-7 18 -65 189l-68 -189z" />
    <glyph glyph-name="abreve" unicode="&#x103;" horiz-adv-x="1105" 
d="M260 1522h105q6 -108 47.5 -155.5t136.5 -47.5q94 0 135 47t47 156h105q0 -167 -70.5 -247.5t-216.5 -80.5q-148 0 -218.5 80.5t-70.5 247.5zM152 983q185 37 366 37q115 0 197 -16.5t135 -47.5t84 -82t43 -112t12 -146v-616h-123l-12 221q-14 -47 -39.5 -87.5t-70 -79
t-119 -61t-170.5 -22.5q-207 0 -299.5 76t-92.5 229q0 77 22 131.5t74 94t141 58t220 18.5q84 0 293 -19v70q0 70 -12 113t-45 75.5t-94 46t-158 13.5q-143 0 -352 -41v147zM549 453q-124 0 -194 -20.5t-94.5 -56t-24.5 -95.5q0 -89 57 -133t196 -44q330 0 330 330
q-121 19 -270 19z" />
    <glyph glyph-name="Aogonek" unicode="&#x104;" horiz-adv-x="1409" 
d="M1331 0q-166 -141 -166 -240q0 -35 20 -53t54 -18q50 0 90 16v-115q-68 -24 -123 -24q-81 0 -125.5 41t-44.5 114q0 75 45.5 147t126.5 132l-157 383h-699l-157 -383h-191l598 1434h209l594 -1434h-74zM410 535h585l-225 546q-7 18 -65 189l-68 -189z" />
    <glyph glyph-name="aogonek" unicode="&#x105;" horiz-adv-x="1105" 
d="M989 0q-166 -141 -166 -240q0 -35 20 -53t54 -18q50 0 90 16v-115q-67 -24 -123 -24q-81 0 -125.5 41t-44.5 114q0 75 45.5 147t126.5 132l-12 221q-14 -47 -39.5 -87.5t-70 -79t-119 -61t-170.5 -22.5q-207 0 -299.5 76t-92.5 229q0 77 22 131.5t74 94t141 58t220 18.5
q84 0 293 -19v70q0 70 -12 113t-45 75.5t-94 46t-158 13.5q-143 0 -352 -41v147q185 37 366 37q115 0 197 -16.5t135 -47.5t84 -82t43 -112t12 -146v-616zM489 104q330 0 330 330q-121 19 -270 19q-124 0 -194 -20.5t-94.5 -56t-24.5 -95.5q0 -89 57 -133t196 -44z" />
    <glyph glyph-name="Cacute" unicode="&#x106;" horiz-adv-x="1308" 
d="M1081 1903l-266 -322h-133l231 322h168zM1251 43q-93 -33 -223.5 -53.5t-249.5 -20.5q-366 0 -533 178.5t-167 569.5q0 387 170 567t534 180q102 0 222 -18.5t213 -46.5v-160q-231 76 -437 76q-277 0 -396.5 -139.5t-119.5 -460.5q0 -318 122 -457t400 -139q192 0 465 84
v-160z" />
    <glyph glyph-name="cacute" unicode="&#x107;" horiz-adv-x="1009" 
d="M872 1518l-266 -322h-133l232 322h167zM920 838q-173 45 -322 45q-190 0 -264 -85t-74 -302q0 -216 74 -301.5t264 -85.5q169 0 346 61v-143q-60 -25 -157.5 -41.5t-198.5 -16.5q-274 0 -391 125.5t-117 401.5q0 275 117 400.5t391 125.5q172 0 332 -39v-145z" />
    <glyph glyph-name="Ccircumflex" unicode="&#x108;" horiz-adv-x="1308" 
d="M446 1581l242 322h170l242 -322h-133l-193 229l-194 -229h-134zM1251 43q-93 -33 -223.5 -53.5t-249.5 -20.5q-366 0 -533 178.5t-167 569.5q0 387 170 567t534 180q102 0 222 -18.5t213 -46.5v-160q-231 76 -437 76q-277 0 -396.5 -139.5t-119.5 -460.5q0 -318 122 -457
t400 -139q192 0 465 84v-160z" />
    <glyph glyph-name="ccircumflex" unicode="&#x109;" horiz-adv-x="1009" 
d="M236 1196l241 322h170l242 -322h-133l-193 231l-194 -231h-133zM920 838q-173 45 -322 45q-190 0 -264 -85t-74 -302q0 -216 74 -301.5t264 -85.5q169 0 346 61v-143q-60 -25 -157.5 -41.5t-198.5 -16.5q-274 0 -391 125.5t-117 401.5q0 275 117 400.5t391 125.5
q172 0 332 -39v-145z" />
    <glyph glyph-name="Cdotaccent" unicode="&#x10a;" horiz-adv-x="1308" 
d="M696 1841h154v-260h-154v260zM1251 43q-93 -33 -223.5 -53.5t-249.5 -20.5q-366 0 -533 178.5t-167 569.5q0 387 170 567t534 180q102 0 222 -18.5t213 -46.5v-160q-231 76 -437 76q-277 0 -396.5 -139.5t-119.5 -460.5q0 -318 122 -457t400 -139q192 0 465 84v-160z" />
    <glyph glyph-name="cdotaccent" unicode="&#x10b;" horiz-adv-x="1009" 
d="M485 1456h154v-260h-154v260zM920 838q-173 45 -322 45q-190 0 -264 -85t-74 -302q0 -216 74 -301.5t264 -85.5q169 0 346 61v-143q-60 -25 -157.5 -41.5t-198.5 -16.5q-274 0 -391 125.5t-117 401.5q0 275 117 400.5t391 125.5q172 0 332 -39v-145z" />
    <glyph glyph-name="Ccaron" unicode="&#x10c;" horiz-adv-x="1308" 
d="M446 1903h134l194 -230l193 230h133l-242 -322h-170zM1251 43q-93 -33 -223.5 -53.5t-249.5 -20.5q-366 0 -533 178.5t-167 569.5q0 387 170 567t534 180q102 0 222 -18.5t213 -46.5v-160q-231 76 -437 76q-277 0 -396.5 -139.5t-119.5 -460.5q0 -318 122 -457t400 -139
q192 0 465 84v-160z" />
    <glyph glyph-name="ccaron" unicode="&#x10d;" horiz-adv-x="1009" 
d="M236 1518h133l194 -230l193 230h133l-242 -322h-170zM920 838q-173 45 -322 45q-190 0 -264 -85t-74 -302q0 -216 74 -301.5t264 -85.5q169 0 346 61v-143q-60 -25 -157.5 -41.5t-198.5 -16.5q-274 0 -391 125.5t-117 401.5q0 275 117 400.5t391 125.5q172 0 332 -39
v-145z" />
    <glyph glyph-name="Dcaron" unicode="&#x10e;" horiz-adv-x="1458" 
d="M283 1903h133l194 -230l193 230h133l-242 -322h-170zM672 1434q199 0 331.5 -37.5t218 -123.5t122 -220.5t36.5 -335.5t-37 -335.5t-122.5 -220.5t-218 -123.5t-330.5 -37.5h-541v1434h541zM672 150q154 0 251.5 26.5t160 94t87.5 173.5t25 273q0 166 -25 272t-88 173.5
t-160.5 94.5t-250.5 27h-357v-1134h357z" />
    <glyph glyph-name="dcaron" unicode="&#x10f;" horiz-adv-x="1345" 
d="M541 -31q-246 0 -353.5 129t-107.5 398q0 266 108.5 396t350.5 130q165 0 259 -67.5t120 -168.5q-15 215 -15 289v359h178v-1434h-123l-12 221q-10 -40 -26 -72.5t-47 -67t-73.5 -58.5t-109 -39t-149.5 -15zM1217 1434h143v-197l-60 -154h-83v351zM584 113
q176 0 250.5 88.5t74.5 294.5q0 205 -75.5 294t-249.5 89q-178 0 -251 -87.5t-73 -295.5q0 -206 74 -294.5t250 -88.5z" />
    <glyph glyph-name="Dcroat" unicode="&#x110;" horiz-adv-x="1458" 
d="M672 1434q199 0 331.5 -37.5t218 -123.5t122 -220.5t36.5 -335.5t-37 -335.5t-122.5 -220.5t-218 -123.5t-330.5 -37.5h-541v678h-131v119h131v637h541zM672 150q154 0 251.5 26.5t160 94t87.5 173.5t25 273q0 166 -25 272t-88 173.5t-160.5 94.5t-250.5 27h-357v-487
h318v-119h-318v-528h357z" />
    <glyph glyph-name="dcroat" unicode="&#x111;" horiz-adv-x="1202" 
d="M1202 1251v-118h-121v-1133h-123l-12 221q-10 -40 -26 -72.5t-47 -67t-73.5 -58.5t-109 -39t-149.5 -15q-246 0 -353.5 129t-107.5 398q0 266 108.5 396t350.5 130q165 0 259 -67.5t120 -168.5q-15 215 -15 289v58h-309v118h309v183h178v-183h121zM584 113
q176 0 250.5 88.5t74.5 294.5q0 205 -75.5 294t-249.5 89q-178 0 -251 -87.5t-73 -295.5q0 -206 74 -294.5t250 -88.5z" />
    <glyph glyph-name="Emacron" unicode="&#x112;" horiz-adv-x="1208" 
d="M328 1759h608v-119h-608v119zM315 154h863v-154h-1047v1434h999v-154h-815v-469h670v-152h-670v-505z" />
    <glyph glyph-name="emacron" unicode="&#x113;" horiz-adv-x="1126" 
d="M272 1378h609v-118h-609v118zM1004 25q-70 -23 -178 -39.5t-212 -16.5q-155 0 -259.5 32t-164.5 101t-85 163t-25 231q0 131 25 225t81.5 163.5t154 103.5t237.5 34q131 0 223 -32.5t145.5 -97.5t77 -151t23.5 -202q0 -49 -3 -107h-786q3 -116 35.5 -184t110.5 -103.5
t212 -35.5q204 0 388 63v-147zM575 889q-173 0 -243.5 -79t-73.5 -245h614q0 165 -67 244.5t-230 79.5z" />
    <glyph glyph-name="Ebreve" unicode="&#x114;" horiz-adv-x="1208" 
d="M344 1907h105q6 -108 47.5 -155.5t136.5 -47.5q94 0 135 47t47 156h105q0 -167 -70.5 -247.5t-216.5 -80.5q-148 0 -218.5 80.5t-70.5 247.5zM315 154h863v-154h-1047v1434h999v-154h-815v-469h670v-152h-670v-505z" />
    <glyph glyph-name="ebreve" unicode="&#x115;" horiz-adv-x="1126" 
d="M287 1522h104q6 -108 47.5 -155.5t136.5 -47.5q94 0 135.5 47t47.5 156h104q0 -167 -70.5 -247.5t-216.5 -80.5q-148 0 -218 80t-70 248zM1004 25q-70 -23 -178 -39.5t-212 -16.5q-155 0 -259.5 32t-164.5 101t-85 163t-25 231q0 131 25 225t81.5 163.5t154 103.5
t237.5 34q131 0 223 -32.5t145.5 -97.5t77 -151t23.5 -202q0 -49 -3 -107h-786q3 -116 35.5 -184t110.5 -103.5t212 -35.5q204 0 388 63v-147zM575 889q-173 0 -243.5 -79t-73.5 -245h614q0 165 -67 244.5t-230 79.5z" />
    <glyph glyph-name="Edotaccent" unicode="&#x116;" horiz-adv-x="1208" 
d="M555 1841h154v-260h-154v260zM315 154h863v-154h-1047v1434h999v-154h-815v-469h670v-152h-670v-505z" />
    <glyph glyph-name="edotaccent" unicode="&#x117;" horiz-adv-x="1126" 
d="M500 1456h153v-260h-153v260zM1004 25q-70 -23 -178 -39.5t-212 -16.5q-155 0 -259.5 32t-164.5 101t-85 163t-25 231q0 131 25 225t81.5 163.5t154 103.5t237.5 34q131 0 223 -32.5t145.5 -97.5t77 -151t23.5 -202q0 -49 -3 -107h-786q3 -116 35.5 -184t110.5 -103.5
t212 -35.5q204 0 388 63v-147zM575 889q-173 0 -243.5 -79t-73.5 -245h614q0 165 -67 244.5t-230 79.5z" />
    <glyph glyph-name="Eogonek" unicode="&#x118;" horiz-adv-x="1208" 
d="M1178 0q-166 -141 -166 -240q0 -35 19.5 -53t53.5 -18q51 0 91 16v-115q-68 -24 -123 -24q-81 0 -125.5 41t-44.5 114q0 75 45.5 147t126.5 132h-924v1434h999v-154h-815v-469h670v-152h-670v-505h863v-154z" />
    <glyph glyph-name="eogonek" unicode="&#x119;" horiz-adv-x="1126" 
d="M1047 539q0 -49 -3 -107h-786q3 -116 35.5 -184t110.5 -103.5t212 -35.5q204 0 388 63v-147q-166 -141 -166 -240q0 -35 19.5 -53.5t53.5 -18.5q47 0 90 17v-115q-70 -25 -122 -25q-81 0 -125.5 41.5t-44.5 114.5q0 127 125 242q-111 -19 -220 -19q-155 0 -259.5 32
t-164.5 101t-85 163t-25 231q0 131 25 225t81.5 163.5t154 103.5t237.5 34q131 0 223 -32.5t145.5 -97.5t77 -151t23.5 -202zM258 565h614q0 165 -67 244.5t-230 79.5q-173 0 -243.5 -79t-73.5 -245z" />
    <glyph glyph-name="Ecaron" unicode="&#x11a;" horiz-adv-x="1208" 
d="M305 1903h133l195 -230l192 230h133l-241 -322h-170zM315 154h863v-154h-1047v1434h999v-154h-815v-469h670v-152h-670v-505z" />
    <glyph glyph-name="ecaron" unicode="&#x11b;" horiz-adv-x="1126" 
d="M250 1518h133l195 -230l192 230h133l-241 -322h-170zM1004 25q-70 -23 -178 -39.5t-212 -16.5q-155 0 -259.5 32t-164.5 101t-85 163t-25 231q0 131 25 225t81.5 163.5t154 103.5t237.5 34q131 0 223 -32.5t145.5 -97.5t77 -151t23.5 -202q0 -49 -3 -107h-786
q3 -116 35.5 -184t110.5 -103.5t212 -35.5q204 0 388 63v-147zM575 889q-173 0 -243.5 -79t-73.5 -245h614q0 165 -67 244.5t-230 79.5z" />
    <glyph glyph-name="Gcircumflex" unicode="&#x11c;" horiz-adv-x="1441" 
d="M463 1581l242 322h169l242 -322h-133l-192 229l-195 -229h-133zM797 -31q-381 0 -550 176t-169 572q0 390 172.5 568.5t548.5 178.5q249 0 495 -61v-158q-280 70 -489 70q-298 0 -420.5 -135.5t-122.5 -462.5t124 -462.5t425 -135.5q36 0 74.5 2t80 7t67 8.5t69.5 10
t55 7.5v421h-326v146h500v-692q-118 -26 -267 -43t-267 -17z" />
    <glyph glyph-name="gcircumflex" unicode="&#x11d;" horiz-adv-x="1202" 
d="M285 1196l241 322h170l242 -322h-133l-193 231l-194 -231h-133zM559 -399q-101 0 -214.5 18t-190.5 45v146q217 -68 391 -68q192 0 277 81t85 253q0 103 11 186q-81 -219 -379 -219q-125 0 -214.5 33.5t-142.5 98.5t-77.5 153t-24.5 204q0 490 463 490q85 0 152.5 -16.5
t108.5 -40.5t72 -59.5t45 -64.5t25 -65l12 215h123v-915q0 -110 -26.5 -193.5t-85.5 -148.5t-162 -99t-248 -34zM584 186q177 0 251 87.5t74 258.5q0 170 -74.5 258.5t-250.5 88.5q-177 0 -250.5 -88t-73.5 -259q0 -173 72.5 -259.5t251.5 -86.5z" />
    <glyph glyph-name="Gbreve" unicode="&#x11e;" horiz-adv-x="1441" 
d="M502 1907h104q6 -108 48 -155.5t137 -47.5q94 0 135 47t47 156h104q0 -167 -70 -247.5t-216 -80.5q-148 0 -218.5 80.5t-70.5 247.5zM797 -31q-381 0 -550 176t-169 572q0 390 172.5 568.5t548.5 178.5q249 0 495 -61v-158q-280 70 -489 70q-298 0 -420.5 -135.5
t-122.5 -462.5t124 -462.5t425 -135.5q36 0 74.5 2t80 7t67 8.5t69.5 10t55 7.5v421h-326v146h500v-692q-118 -26 -267 -43t-267 -17z" />
    <glyph glyph-name="gbreve" unicode="&#x11f;" horiz-adv-x="1202" 
d="M324 1522h104q6 -108 47.5 -155.5t136.5 -47.5q94 0 135.5 47t47.5 156h104q0 -167 -70.5 -247.5t-216.5 -80.5q-148 0 -218 80t-70 248zM559 -399q-101 0 -214.5 18t-190.5 45v146q217 -68 391 -68q192 0 277 81t85 253q0 103 11 186q-81 -219 -379 -219
q-125 0 -214.5 33.5t-142.5 98.5t-77.5 153t-24.5 204q0 490 463 490q85 0 152.5 -16.5t108.5 -40.5t72 -59.5t45 -64.5t25 -65l12 215h123v-915q0 -110 -26.5 -193.5t-85.5 -148.5t-162 -99t-248 -34zM584 186q177 0 251 87.5t74 258.5q0 170 -74.5 258.5t-250.5 88.5
q-177 0 -250.5 -88t-73.5 -259q0 -173 72.5 -259.5t251.5 -86.5z" />
    <glyph glyph-name="Gdotaccent" unicode="&#x120;" horiz-adv-x="1441" 
d="M713 1841h153v-260h-153v260zM797 -31q-381 0 -550 176t-169 572q0 390 172.5 568.5t548.5 178.5q249 0 495 -61v-158q-280 70 -489 70q-298 0 -420.5 -135.5t-122.5 -462.5t124 -462.5t425 -135.5q36 0 74.5 2t80 7t67 8.5t69.5 10t55 7.5v421h-326v146h500v-692
q-118 -26 -267 -43t-267 -17z" />
    <glyph glyph-name="gdotaccent" unicode="&#x121;" horiz-adv-x="1202" 
d="M535 1456h153v-260h-153v260zM559 -399q-101 0 -214.5 18t-190.5 45v146q217 -68 391 -68q192 0 277 81t85 253q0 103 11 186q-81 -219 -379 -219q-125 0 -214.5 33.5t-142.5 98.5t-77.5 153t-24.5 204q0 490 463 490q85 0 152.5 -16.5t108.5 -40.5t72 -59.5t45 -64.5
t25 -65l12 215h123v-915q0 -110 -26.5 -193.5t-85.5 -148.5t-162 -99t-248 -34zM584 186q177 0 251 87.5t74 258.5q0 170 -74.5 258.5t-250.5 88.5q-177 0 -250.5 -88t-73.5 -259q0 -173 72.5 -259.5t251.5 -86.5z" />
    <glyph glyph-name="uni0122" unicode="&#x122;" horiz-adv-x="1441" 
d="M797 -31q-381 0 -550 176t-169 572q0 390 172.5 568.5t548.5 178.5q249 0 495 -61v-158q-280 70 -489 70q-298 0 -420.5 -135.5t-122.5 -462.5t124 -462.5t425 -135.5q36 0 74.5 2t80 7t67 8.5t69.5 10t55 7.5v421h-326v146h500v-692q-118 -26 -267 -43t-267 -17z
M731 -143h160v-152l-66 -139h-88l49 141h-55v150z" />
    <glyph glyph-name="uni0123" unicode="&#x123;" horiz-adv-x="1202" 
d="M686 1196h-149v180l65 148h88l-49 -150h45v-178zM559 -399q-101 0 -214.5 18t-190.5 45v146q217 -68 391 -68q192 0 277 81t85 253q0 103 11 186q-81 -219 -379 -219q-125 0 -214.5 33.5t-142.5 98.5t-77.5 153t-24.5 204q0 490 463 490q85 0 152.5 -16.5t108.5 -40.5
t72 -59.5t45 -64.5t25 -65l12 215h123v-915q0 -110 -26.5 -193.5t-85.5 -148.5t-162 -99t-248 -34zM584 186q177 0 251 87.5t74 258.5q0 170 -74.5 258.5t-250.5 88.5q-177 0 -250.5 -88t-73.5 -259q0 -173 72.5 -259.5t251.5 -86.5z" />
    <glyph glyph-name="Hcircumflex" unicode="&#x124;" horiz-adv-x="1484" 
d="M743 1810l-194 -229h-133l241 322h170l242 -322h-133zM1169 1434h185v-1434h-185v657h-854v-657h-184v1434h184v-623h854v623z" />
    <glyph glyph-name="hcircumflex" unicode="&#x125;" horiz-adv-x="1153" 
d="M266 1581l242 322h170l242 -322h-134l-192 229l-195 -229h-133zM121 1434h178v-353q0 -90 -14 -272q25 96 116 154.5t248 58.5q114 0 192.5 -26t123 -78.5t63.5 -122t19 -166.5v-629h-179v618q0 71 -12 117t-42.5 79.5t-83.5 48t-136 14.5q-163 0 -229 -70.5t-66 -202.5
v-604h-178v1434z" />
    <glyph glyph-name="Hbar" unicode="&#x126;" horiz-adv-x="1501" 
d="M1464 1171v-118h-102v-1053h-184v657h-854v-657h-185v1053h-102v118h102v263h185v-263h854v263h184v-263h102zM1178 811v242h-854v-242h854z" />
    <glyph glyph-name="hbar" unicode="&#x127;" horiz-adv-x="1153" 
d="M649 1022q114 0 192.5 -26t123 -78.5t63.5 -122t19 -166.5v-629h-179v618q0 71 -12 117t-42.5 79.5t-83.5 48t-136 14.5q-163 0 -229 -70.5t-66 -202.5v-604h-178v1133h-121v118h121v183h178v-183h309v-118h-309v-52q0 -90 -14 -272q25 96 116 154.5t248 58.5z" />
    <glyph glyph-name="Itilde" unicode="&#x128;" horiz-adv-x="446" 
d="M-102 1593q1 136 44.5 198t137.5 62q42 0 83 -20t101 -64q51 -39 77 -53t50 -14q42 0 59 29t23 110h100q-1 -137 -44.5 -198.5t-137.5 -61.5q-73 0 -184 84q-48 37 -75 51.5t-50 14.5q-43 0 -60.5 -29t-23.5 -109h-100zM131 1434h184v-1434h-184v1434z" />
    <glyph glyph-name="itilde" unicode="&#x129;" horiz-adv-x="419" 
d="M-127 1208q1 137 44.5 198.5t137.5 61.5q43 0 85.5 -20.5t99.5 -63.5q51 -38 77 -51.5t50 -13.5q41 0 58.5 29t23.5 108h100q-1 -136 -44.5 -198t-137.5 -62q-74 0 -185 84q-49 38 -76 53t-49 15q-43 0 -60.5 -29t-23.5 -111h-100zM121 991h178v-991h-178v991z" />
    <glyph glyph-name="Imacron" unicode="&#x12a;" horiz-adv-x="446" 
d="M-80 1759h608v-119h-608v119zM131 1434h184v-1434h-184v1434z" />
    <glyph glyph-name="imacron" unicode="&#x12b;" horiz-adv-x="419" 
d="M-94 1378h608v-118h-608v118zM121 991h178v-991h-178v991z" />
    <glyph glyph-name="Ibreve" unicode="&#x12c;" horiz-adv-x="446" 
d="M-66 1907h105q6 -108 47.5 -155.5t136.5 -47.5q94 0 135.5 47t47.5 156h104q0 -167 -70.5 -247.5t-216.5 -80.5q-148 0 -218.5 80.5t-70.5 247.5zM131 1434h184v-1434h-184v1434z" />
    <glyph glyph-name="ibreve" unicode="&#x12d;" horiz-adv-x="419" 
d="M-78 1522h105q6 -108 47.5 -155.5t136.5 -47.5q94 0 135 47t47 156h105q0 -167 -70.5 -247.5t-216.5 -80.5q-148 0 -218.5 80.5t-70.5 247.5zM121 991h178v-991h-178v991z" />
    <glyph glyph-name="Iogonek" unicode="&#x12e;" horiz-adv-x="446" 
d="M131 1434h184v-1434h-61q-166 -141 -166 -240q0 -35 20 -53t54 -18q50 0 90 16v-115q-67 -24 -123 -24q-81 0 -125.5 41t-44.5 114q0 75 45.5 147t126.5 132v1434z" />
    <glyph glyph-name="iogonek" unicode="&#x12f;" horiz-adv-x="421" 
d="M123 1434h178v-256h-178v256zM123 0v991h178v-991h-55q-166 -141 -166 -240q0 -35 20 -53t54 -18q50 0 90 16v-115q-67 -24 -123 -24q-81 0 -125.5 41t-44.5 114q0 75 45.5 147t126.5 132z" />
    <glyph glyph-name="Idotaccent" unicode="&#x130;" horiz-adv-x="446" 
d="M147 1841h154v-260h-154v260zM131 1434h184v-1434h-184v1434z" />
    <glyph glyph-name="dotlessi" unicode="&#x131;" horiz-adv-x="419" 
d="M121 991h178v-991h-178v991z" />
    <glyph glyph-name="Jcircumflex" unicode="&#x134;" horiz-adv-x="727" 
d="M190 1581l242 322h170l242 -322h-133l-193 229l-194 -229h-134zM45 152q93 -13 154 -13q138 0 182.5 51t44.5 193v1051h184v-1055q0 -106 -17 -177t-60 -121t-116.5 -72.5t-185.5 -22.5q-103 0 -186 16v150z" />
    <glyph glyph-name="jcircumflex" unicode="&#x135;" horiz-adv-x="419" 
d="M-117 1196l242 322h170l242 -322h-134l-192 231l-195 -231h-133zM299 -72q0 -165 -71 -246t-242 -81q-102 0 -144 10v137q81 -6 107 -6q101 0 136.5 39t35.5 139v1071h178v-1063z" />
    <glyph glyph-name="uni0136" unicode="&#x136;" horiz-adv-x="1329" 
d="M315 860q0 -90 -14 -272q38 46 102.5 119.5t115.5 130.5t134 148t113 124l303 324h215l-573 -625l665 -809h-227l-555 682l-279 -289v-393h-184v1434h184v-574zM590 -143h160v-152l-66 -139h-88l49 141h-55v150z" />
    <glyph glyph-name="uni0137" unicode="&#x137;" horiz-adv-x="1064" 
d="M121 1434h178v-758q0 -92 -14 -279q53 75 203 246.5t315 347.5h207l-418 -444l510 -547h-230l-395 430l-178 -180v-250h-178v1434zM457 -143h159v-152l-65 -139h-88l49 141h-55v150z" />
    <glyph glyph-name="Lacute" unicode="&#x139;" horiz-adv-x="1150" 
d="M532 1903l-266 -322h-133l232 322h167zM315 158h803v-158h-987v1434h184v-1276z" />
    <glyph glyph-name="lacute" unicode="&#x13a;" horiz-adv-x="444" 
d="M532 1960l-266 -322h-133l232 322h167zM133 1434h178v-1434h-178v1434z" />
    <glyph glyph-name="uni013B" unicode="&#x13b;" horiz-adv-x="1150" 
d="M315 158h803v-158h-987v1434h184v-1276zM500 -143h159v-152l-65 -139h-88l49 141h-55v150z" />
    <glyph glyph-name="uni013C" unicode="&#x13c;" horiz-adv-x="444" 
d="M133 1434h178v-1434h-178v1434zM147 -143h160v-152l-65 -139h-88l49 141h-56v150z" />
    <glyph glyph-name="Lcaron" unicode="&#x13d;" horiz-adv-x="1150" 
d="M315 158h803v-158h-987v1434h184v-1276zM514 1434h143v-197l-59 -154h-84v351z" />
    <glyph glyph-name="lcaron" unicode="&#x13e;" horiz-adv-x="585" 
d="M133 1434h178v-1434h-178v1434zM451 1434h143v-197l-59 -154h-84v351z" />
    <glyph glyph-name="Ldot" unicode="&#x13f;" horiz-adv-x="1150" 
d="M315 158h803v-158h-987v1434h184v-1276zM698 901h199v-211h-199v211z" />
    <glyph glyph-name="ldot" unicode="&#x140;" horiz-adv-x="636" 
d="M133 1434h178v-1434h-178v1434zM438 821h199v-209h-199v209z" />
    <glyph glyph-name="Lslash" unicode="&#x141;" horiz-adv-x="1150" 
d="M315 158h803v-158h-987v545l-131 -76v137l131 76v752h184v-646l447 259v-138l-447 -258v-493z" />
    <glyph glyph-name="lslash" unicode="&#x142;" horiz-adv-x="444" 
d="M444 963v-134l-133 -96v-733h-178v602l-133 -96v133l133 96v699h178v-568z" />
    <glyph glyph-name="Nacute" unicode="&#x143;" horiz-adv-x="1480" 
d="M1051 1903l-267 -322h-133l232 322h168zM131 0v1434h217l686 -1000q49 -71 144 -225q-4 160 -4 258v967h176v-1434h-215l-695 1010q-47 69 -135 215q2 -82 2 -260v-965h-176z" />
    <glyph glyph-name="nacute" unicode="&#x144;" horiz-adv-x="1175" 
d="M897 1518l-266 -322h-133l231 322h168zM133 991h123l12 -211q8 45 31 84.5t65.5 76.5t115.5 59t169 22q117 0 197.5 -25t126.5 -77t66 -122t20 -169v-629h-178v614q0 71 -11.5 117.5t-42 81t-84 49.5t-135.5 15q-86 0 -145.5 -21t-92 -62t-46 -91t-13.5 -117v-586h-178
v991z" />
    <glyph glyph-name="uni0145" unicode="&#x145;" horiz-adv-x="1480" 
d="M131 0v1434h217l686 -1000q49 -71 144 -225q-4 160 -4 258v967h176v-1434h-215l-695 1010q-47 69 -135 215q2 -82 2 -260v-965h-176zM666 -143h159v-152l-65 -139h-88l49 141h-55v150z" />
    <glyph glyph-name="uni0146" unicode="&#x146;" horiz-adv-x="1175" 
d="M133 991h123l12 -211q8 45 31 84.5t65.5 76.5t115.5 59t169 22q117 0 197.5 -25t126.5 -77t66 -122t20 -169v-629h-178v614q0 71 -11.5 117.5t-42 81t-84 49.5t-135.5 15q-86 0 -145.5 -21t-92 -62t-46 -91t-13.5 -117v-586h-178v991zM512 -143h160v-152l-66 -139h-88
l49 141h-55v150z" />
    <glyph glyph-name="Ncaron" unicode="&#x147;" horiz-adv-x="1480" 
d="M416 1903h133l194 -230l193 230h133l-242 -322h-170zM131 0v1434h217l686 -1000q49 -71 144 -225q-4 160 -4 258v967h176v-1434h-215l-695 1010q-47 69 -135 215q2 -82 2 -260v-965h-176z" />
    <glyph glyph-name="ncaron" unicode="&#x148;" horiz-adv-x="1175" 
d="M262 1518h133l195 -230l192 230h133l-241 -322h-170zM133 991h123l12 -211q8 45 31 84.5t65.5 76.5t115.5 59t169 22q117 0 197.5 -25t126.5 -77t66 -122t20 -169v-629h-178v614q0 71 -11.5 117.5t-42 81t-84 49.5t-135.5 15q-86 0 -145.5 -21t-92 -62t-46 -91
t-13.5 -117v-586h-178v991z" />
    <glyph glyph-name="Eng" unicode="&#x14a;" horiz-adv-x="1492" 
d="M137 0v1434h217l680 -947q112 -165 150 -225q-4 160 -4 258v914h176v-1457q0 -91 -17.5 -155.5t-58.5 -113t-113.5 -72t-179.5 -23.5q-109 0 -186 16v152q100 -14 153 -14q135 0 180.5 50t45.5 181l-725 1012q-83 114 -144 215q2 -82 2 -260v-965h-176z" />
    <glyph glyph-name="eng" unicode="&#x14b;" horiz-adv-x="1175" 
d="M133 0v991h123l12 -211q8 45 31 84.5t65.5 76.5t115.5 59t169 22q117 0 197.5 -25t126.5 -77t66 -122t20 -169v-701q0 -165 -71.5 -246t-242.5 -81q-101 0 -143 10v137q87 -6 109 -6q100 0 135 38.5t35 139.5v694q0 71 -11.5 117.5t-42 81t-84 49.5t-135.5 15
q-86 0 -145.5 -21t-92 -62t-46 -91t-13.5 -117v-586h-178z" />
    <glyph glyph-name="Omacron" unicode="&#x14c;" horiz-adv-x="1533" 
d="M463 1759h608v-119h-608v119zM766 -31q-187 0 -318.5 48t-211 145t-115 232.5t-35.5 322.5q0 186 35.5 321.5t115 232.5t211 145t318.5 48q151 0 265.5 -31.5t193.5 -91.5t128.5 -152t72 -207.5t22.5 -264.5q0 -186 -36 -321.5t-115.5 -233t-211.5 -145.5t-319 -48z
M766 117q274 0 386 140.5t112 459.5q0 318 -113 459t-385 141q-273 0 -384.5 -140t-111.5 -460q0 -318 112 -459t384 -141z" />
    <glyph glyph-name="omacron" unicode="&#x14d;" horiz-adv-x="1208" 
d="M301 1378h608v-118h-608v118zM604 -31q-148 0 -250.5 34.5t-161.5 104t-84.5 163.5t-25.5 225t25.5 225t84.5 163.5t161.5 103.5t250.5 34q147 0 249.5 -34t162.5 -103.5t86 -163.5t26 -225t-26 -225t-86 -163.5t-162.5 -104t-249.5 -34.5zM604 111q100 0 166.5 22
t106 71t55.5 119t16 173q0 205 -75 295t-269 90q-100 0 -166.5 -22t-106 -71t-55.5 -119t-16 -173q0 -206 75 -295.5t269 -89.5z" />
    <glyph glyph-name="Obreve" unicode="&#x14e;" horiz-adv-x="1533" 
d="M479 1907h105q6 -108 47.5 -155.5t136.5 -47.5q94 0 135 47t47 156h105q0 -167 -70.5 -247.5t-216.5 -80.5q-148 0 -218.5 80.5t-70.5 247.5zM766 -31q-187 0 -318.5 48t-211 145t-115 232.5t-35.5 322.5q0 186 35.5 321.5t115 232.5t211 145t318.5 48q151 0 265.5 -31.5
t193.5 -91.5t128.5 -152t72 -207.5t22.5 -264.5q0 -186 -36 -321.5t-115.5 -233t-211.5 -145.5t-319 -48zM766 117q274 0 386 140.5t112 459.5q0 318 -113 459t-385 141q-273 0 -384.5 -140t-111.5 -460q0 -318 112 -459t384 -141z" />
    <glyph glyph-name="obreve" unicode="&#x14f;" horiz-adv-x="1208" 
d="M317 1522h105q6 -108 47.5 -155.5t136.5 -47.5q94 0 135 47t47 156h105q0 -167 -70.5 -247.5t-216.5 -80.5q-148 0 -218.5 80.5t-70.5 247.5zM604 -31q-148 0 -250.5 34.5t-161.5 104t-84.5 163.5t-25.5 225t25.5 225t84.5 163.5t161.5 103.5t250.5 34q147 0 249.5 -34
t162.5 -103.5t86 -163.5t26 -225t-26 -225t-86 -163.5t-162.5 -104t-249.5 -34.5zM604 111q100 0 166.5 22t106 71t55.5 119t16 173q0 205 -75 295t-269 90q-100 0 -166.5 -22t-106 -71t-55.5 -119t-16 -173q0 -206 75 -295.5t269 -89.5z" />
    <glyph glyph-name="Ohungarumlaut" unicode="&#x150;" horiz-adv-x="1533" 
d="M868 1903l-266 -322h-133l231 322h168zM1239 1903l-266 -322h-133l231 322h168zM766 -31q-187 0 -318.5 48t-211 145t-115 232.5t-35.5 322.5q0 186 35.5 321.5t115 232.5t211 145t318.5 48q151 0 265.5 -31.5t193.5 -91.5t128.5 -152t72 -207.5t22.5 -264.5
q0 -186 -36 -321.5t-115.5 -233t-211.5 -145.5t-319 -48zM766 117q274 0 386 140.5t112 459.5q0 318 -113 459t-385 141q-273 0 -384.5 -140t-111.5 -460q0 -318 112 -459t384 -141z" />
    <glyph glyph-name="ohungarumlaut" unicode="&#x151;" horiz-adv-x="1208" 
d="M657 1518l-266 -322h-133l231 322h168zM1028 1518l-266 -322h-133l231 322h168zM604 -31q-148 0 -250.5 34.5t-161.5 104t-84.5 163.5t-25.5 225t25.5 225t84.5 163.5t161.5 103.5t250.5 34q147 0 249.5 -34t162.5 -103.5t86 -163.5t26 -225t-26 -225t-86 -163.5
t-162.5 -104t-249.5 -34.5zM604 111q100 0 166.5 22t106 71t55.5 119t16 173q0 205 -75 295t-269 90q-100 0 -166.5 -22t-106 -71t-55.5 -119t-16 -173q0 -206 75 -295.5t269 -89.5z" />
    <glyph glyph-name="OE" unicode="&#x152;" horiz-adv-x="2326" 
d="M750 -31q-180 0 -308.5 49.5t-206.5 147.5t-113.5 233t-35.5 318q0 373 157 560t507 187q193 0 317.5 -60.5t194.5 -184.5v215h987v-154h-815v-469h669v-152h-669v-505h862v-154h-1034v215q-70 -123 -195 -184.5t-317 -61.5zM766 117q274 0 386 140.5t112 459.5
q0 318 -113 459t-385 141q-273 0 -384.5 -140t-111.5 -460q0 -318 112 -459t384 -141z" />
    <glyph glyph-name="oe" unicode="&#x153;" horiz-adv-x="1992" 
d="M80 496q0 131 26 225t85 163.5t161.5 103.5t249.5 34q173 0 277.5 -52.5t156.5 -156.5q94 209 408 209q132 0 224.5 -32.5t146 -97.5t77 -151t23.5 -202q0 -25 -4 -107h-785q3 -172 82 -247.5t277 -75.5q201 0 385 63v-147q-71 -23 -177.5 -39.5t-211.5 -16.5
q-180 0 -287.5 51.5t-157.5 157.5q-51 -105 -155.5 -157t-278.5 -52q-147 0 -249.5 34.5t-161.5 104t-85 163.5t-26 225zM1124 565h615q0 166 -66 245t-229 79q-173 0 -245 -79t-75 -245zM260 496q0 -103 16 -173t55 -119t105.5 -71t165.5 -22q196 0 271 89t75 296
q0 103 -16.5 173t-56 119t-106.5 71t-167 22t-166.5 -22t-105 -71t-54.5 -118.5t-16 -173.5z" />
    <glyph glyph-name="Racute" unicode="&#x154;" horiz-adv-x="1335" 
d="M915 1903l-266 -322h-133l232 322h167zM131 1434h545q148 0 251 -29.5t161.5 -87t84 -132.5t25.5 -175q0 -86 -22.5 -153t-62 -111.5t-98.5 -74.5t-127 -44.5t-153 -18.5q82 -24 150.5 -82.5t169.5 -175.5l297 -350h-224l-342 408q-82 99 -148 137.5t-165 38.5h-158v-584
h-184v1434zM315 1284v-555h306q97 0 167 13t113.5 35.5t68.5 58.5t34.5 76.5t9.5 95.5q0 68 -15.5 116.5t-53 85.5t-105 55.5t-166.5 18.5h-359z" />
    <glyph glyph-name="racute" unicode="&#x155;" horiz-adv-x="743" 
d="M719 1518l-266 -322h-134l232 322h168zM133 991h123l14 -293q30 316 355 316q11 0 86 -6v-166q-46 6 -86 6q-175 0 -244.5 -84.5t-69.5 -300.5v-463h-178v991z" />
    <glyph glyph-name="uni0156" unicode="&#x156;" horiz-adv-x="1335" 
d="M131 1434h545q148 0 251 -29.5t161.5 -87t84 -132.5t25.5 -175q0 -86 -22.5 -153t-62 -111.5t-98.5 -74.5t-127 -44.5t-153 -18.5q82 -24 150.5 -82.5t169.5 -175.5l297 -350h-224l-342 408q-82 99 -148 137.5t-165 38.5h-158v-584h-184v1434zM315 1284v-555h306
q97 0 167 13t113.5 35.5t68.5 58.5t34.5 76.5t9.5 95.5q0 68 -15.5 116.5t-53 85.5t-105 55.5t-166.5 18.5h-359zM592 -143h160v-152l-66 -139h-88l49 141h-55v150z" />
    <glyph glyph-name="uni0157" unicode="&#x157;" horiz-adv-x="743" 
d="M133 991h123l14 -293q30 316 355 316q11 0 86 -6v-166q-46 6 -86 6q-175 0 -244.5 -84.5t-69.5 -300.5v-463h-178v991zM145 -143h160v-152l-65 -139h-88l49 141h-56v150z" />
    <glyph glyph-name="Rcaron" unicode="&#x158;" horiz-adv-x="1335" 
d="M279 1903h133l194 -230l193 230h133l-242 -322h-170zM131 1434h545q148 0 251 -29.5t161.5 -87t84 -132.5t25.5 -175q0 -86 -22.5 -153t-62 -111.5t-98.5 -74.5t-127 -44.5t-153 -18.5q82 -24 150.5 -82.5t169.5 -175.5l297 -350h-224l-342 408q-82 99 -148 137.5
t-165 38.5h-158v-584h-184v1434zM315 1284v-555h306q97 0 167 13t113.5 35.5t68.5 58.5t34.5 76.5t9.5 95.5q0 68 -15.5 116.5t-53 85.5t-105 55.5t-166.5 18.5h-359z" />
    <glyph glyph-name="rcaron" unicode="&#x159;" horiz-adv-x="743" 
d="M84 1518h133l195 -230l192 230h133l-241 -322h-170zM133 991h123l14 -293q30 316 355 316q11 0 86 -6v-166q-46 6 -86 6q-175 0 -244.5 -84.5t-69.5 -300.5v-463h-178v991z" />
    <glyph glyph-name="Sacute" unicode="&#x15a;" horiz-adv-x="1251" 
d="M936 1903l-266 -322h-133l231 322h168zM1100 1245q-256 70 -475 70q-104 0 -177 -16t-113 -46.5t-57.5 -67.5t-17.5 -85q0 -37 6.5 -63.5t29 -57.5t64 -56t115 -52.5t178.5 -53.5q159 -38 263 -82t163 -101.5t82 -122t23 -153.5q0 -90 -30.5 -159.5t-96.5 -122
t-178.5 -80t-268.5 -27.5q-126 0 -274.5 22t-249.5 56v156q277 -86 524 -86q112 0 189.5 16.5t120.5 49t61 73.5t18 96q0 56 -13.5 93.5t-56 75.5t-125 69.5t-216.5 64.5q-123 30 -213.5 66t-147.5 75t-91 87.5t-47 98.5t-13 112q0 368 555 368q253 0 469 -59v-158z" />
    <glyph glyph-name="sacute" unicode="&#x15b;" horiz-adv-x="1005" 
d="M813 1518l-266 -322h-133l231 322h168zM512 -29q-233 0 -414 58v147q231 -63 416 -63q143 0 199.5 36t56.5 111q0 19 -4 35t-8.5 28.5t-17 23.5t-21.5 18.5t-31 15.5t-35.5 12.5t-45.5 11.5t-51 11t-60 12q-65 13 -107.5 23t-90 24.5t-77 29.5t-58 37.5t-43.5 49.5
t-24.5 63.5t-9.5 81.5q0 69 21 119.5t69 88t130.5 56.5t201.5 19q152 0 366 -33v-147q-205 39 -362 39q-99 0 -156 -16.5t-77.5 -43.5t-20.5 -71q0 -22 6 -39.5t14 -30.5t28 -24.5t36 -18.5t51 -16t60 -14l75 -15q54 -11 86.5 -17.5t75 -17t67 -20t55.5 -23.5t47.5 -29
t35 -36t27 -46t14.5 -56t6 -69q0 -157 -97.5 -231t-332.5 -74z" />
    <glyph glyph-name="Scircumflex" unicode="&#x15c;" horiz-adv-x="1251" 
d="M299 1581l242 322h170l241 -322h-133l-192 229l-195 -229h-133zM1100 1245q-256 70 -475 70q-104 0 -177 -16t-113 -46.5t-57.5 -67.5t-17.5 -85q0 -37 6.5 -63.5t29 -57.5t64 -56t115 -52.5t178.5 -53.5q159 -38 263 -82t163 -101.5t82 -122t23 -153.5
q0 -90 -30.5 -159.5t-96.5 -122t-178.5 -80t-268.5 -27.5q-126 0 -274.5 22t-249.5 56v156q277 -86 524 -86q112 0 189.5 16.5t120.5 49t61 73.5t18 96q0 56 -13.5 93.5t-56 75.5t-125 69.5t-216.5 64.5q-123 30 -213.5 66t-147.5 75t-91 87.5t-47 98.5t-13 112
q0 368 555 368q253 0 469 -59v-158z" />
    <glyph glyph-name="scircumflex" unicode="&#x15d;" horiz-adv-x="1005" 
d="M178 1196l242 322h170l241 -322h-133l-192 231l-195 -231h-133zM512 -29q-233 0 -414 58v147q231 -63 416 -63q143 0 199.5 36t56.5 111q0 19 -4 35t-8.5 28.5t-17 23.5t-21.5 18.5t-31 15.5t-35.5 12.5t-45.5 11.5t-51 11t-60 12q-65 13 -107.5 23t-90 24.5t-77 29.5
t-58 37.5t-43.5 49.5t-24.5 63.5t-9.5 81.5q0 69 21 119.5t69 88t130.5 56.5t201.5 19q152 0 366 -33v-147q-205 39 -362 39q-99 0 -156 -16.5t-77.5 -43.5t-20.5 -71q0 -22 6 -39.5t14 -30.5t28 -24.5t36 -18.5t51 -16t60 -14l75 -15q54 -11 86.5 -17.5t75 -17t67 -20
t55.5 -23.5t47.5 -29t35 -36t27 -46t14.5 -56t6 -69q0 -157 -97.5 -231t-332.5 -74z" />
    <glyph glyph-name="Scedilla" unicode="&#x15e;" horiz-adv-x="1251" 
d="M1184 358q0 -178 -122.5 -279t-399.5 -110l-56 -86q18 2 64 2q71 0 111 -35t40 -96q0 -157 -207 -157q-96 0 -186 34v84q82 -26 152 -26q116 0 116 63q0 64 -96 64q-57 0 -84 -6l-31 45l72 114q-121 5 -251 26t-220 52v156q277 -86 524 -86q112 0 189.5 16.5t120.5 49
t61 73.5t18 96q0 56 -13.5 93.5t-56 75.5t-125 69.5t-216.5 64.5q-123 30 -213.5 66t-147.5 75t-91 87.5t-47 98.5t-13 112q0 368 555 368q253 0 469 -59v-158q-256 70 -475 70q-104 0 -177 -16t-113 -46.5t-57.5 -67.5t-17.5 -85q0 -37 6.5 -63.5t29 -57.5t64 -56
t115 -52.5t178.5 -53.5q159 -38 263 -82t163 -101.5t82 -122t23 -153.5z" />
    <glyph glyph-name="scedilla" unicode="&#x15f;" horiz-adv-x="1005" 
d="M942 276q0 -152 -91 -226.5t-310 -78.5l-56 -88q18 2 64 2q71 0 111 -35t40 -96q0 -157 -206 -157q-97 0 -187 34v84q82 -26 152 -26q116 0 116 63q0 64 -96 64q-57 0 -84 -6l-30 45l73 118q-173 7 -340 56v147q231 -63 416 -63q143 0 199.5 36t56.5 111q0 19 -4 35
t-8.5 28.5t-17 23.5t-21.5 18.5t-31 15.5t-35.5 12.5t-45.5 11.5t-51 11t-60 12q-65 13 -107.5 23t-90 24.5t-77 29.5t-58 37.5t-43.5 49.5t-24.5 63.5t-9.5 81.5q0 69 21 119.5t69 88t130.5 56.5t201.5 19q152 0 366 -33v-147q-205 39 -362 39q-99 0 -156 -16.5
t-77.5 -43.5t-20.5 -71q0 -22 6 -39.5t14 -30.5t28 -24.5t36 -18.5t51 -16t60 -14l75 -15q54 -11 86.5 -17.5t75 -17t67 -20t55.5 -23.5t47.5 -29t35 -36t27 -46t14.5 -56t6 -69z" />
    <glyph glyph-name="Scaron" unicode="&#x160;" horiz-adv-x="1251" 
d="M299 1903h133l195 -230l192 230h133l-241 -322h-170zM1100 1245q-256 70 -475 70q-104 0 -177 -16t-113 -46.5t-57.5 -67.5t-17.5 -85q0 -37 6.5 -63.5t29 -57.5t64 -56t115 -52.5t178.5 -53.5q159 -38 263 -82t163 -101.5t82 -122t23 -153.5q0 -90 -30.5 -159.5
t-96.5 -122t-178.5 -80t-268.5 -27.5q-126 0 -274.5 22t-249.5 56v156q277 -86 524 -86q112 0 189.5 16.5t120.5 49t61 73.5t18 96q0 56 -13.5 93.5t-56 75.5t-125 69.5t-216.5 64.5q-123 30 -213.5 66t-147.5 75t-91 87.5t-47 98.5t-13 112q0 368 555 368q253 0 469 -59
v-158z" />
    <glyph glyph-name="scaron" unicode="&#x161;" horiz-adv-x="1005" 
d="M178 1518h133l195 -230l192 230h133l-241 -322h-170zM512 -29q-233 0 -414 58v147q231 -63 416 -63q143 0 199.5 36t56.5 111q0 19 -4 35t-8.5 28.5t-17 23.5t-21.5 18.5t-31 15.5t-35.5 12.5t-45.5 11.5t-51 11t-60 12q-65 13 -107.5 23t-90 24.5t-77 29.5t-58 37.5
t-43.5 49.5t-24.5 63.5t-9.5 81.5q0 69 21 119.5t69 88t130.5 56.5t201.5 19q152 0 366 -33v-147q-205 39 -362 39q-99 0 -156 -16.5t-77.5 -43.5t-20.5 -71q0 -22 6 -39.5t14 -30.5t28 -24.5t36 -18.5t51 -16t60 -14l75 -15q54 -11 86.5 -17.5t75 -17t67 -20t55.5 -23.5
t47.5 -29t35 -36t27 -46t14.5 -56t6 -69q0 -157 -97.5 -231t-332.5 -74z" />
    <glyph glyph-name="uni0162" unicode="&#x162;" horiz-adv-x="1251" 
d="M717 0h-35l-74 -117q18 2 64 2q71 0 111 -35t40 -96q0 -157 -207 -157q-96 0 -186 34v84q82 -26 152 -26q116 0 116 63q0 64 -96 64q-57 0 -84 -6l-31 45l91 145h-43v1280h-502v154h1186v-154h-502v-1280z" />
    <glyph glyph-name="uni0163" unicode="&#x163;" horiz-adv-x="759" 
d="M705 848h-340v-535q0 -103 36.5 -142.5t147.5 -39.5q63 0 131 14v-139q-72 -14 -164 -14h-8l-68 -109q18 2 64 2q71 0 111 -35t40 -96q0 -157 -206 -157q-97 0 -187 34v84q82 -26 152 -26q116 0 116 63q0 64 -96 64q-57 0 -84 -6l-31 45l91 145h2q-123 22 -174.5 101.5
t-51.5 220.5v526h-137v143h148l47 240h121v-240h340v-143z" />
    <glyph glyph-name="Tcaron" unicode="&#x164;" horiz-adv-x="1251" 
d="M711 1581h-170l-242 322h133l195 -230l192 230h133zM1219 1434v-154h-502v-1280h-182v1280h-502v154h1186z" />
    <glyph glyph-name="tcaron" unicode="&#x165;" horiz-adv-x="772" 
d="M672 1288l-60 -153h-86v350h146v-197zM705 848h-340v-535q0 -103 36.5 -142.5t147.5 -39.5q63 0 131 14v-139q-72 -14 -164 -14q-183 0 -256.5 81t-73.5 249v526h-137v143h148l47 240h121v-240h340v-143z" />
    <glyph glyph-name="Tbar" unicode="&#x166;" horiz-adv-x="1251" 
d="M1219 1280h-502v-524h237v-119h-237v-637h-182v637h-238v119h238v524h-502v154h1186v-154z" />
    <glyph glyph-name="tbar" unicode="&#x167;" horiz-adv-x="759" 
d="M705 848h-340v-221h323v-119h-323v-195q0 -103 36.5 -142.5t147.5 -39.5q63 0 131 14v-139q-72 -14 -164 -14q-183 0 -256.5 81t-73.5 249v186h-135v119h135v221h-137v143h148l47 240h121v-240h340v-143z" />
    <glyph glyph-name="Utilde" unicode="&#x168;" horiz-adv-x="1454" 
d="M401 1593q1 136 45 198t138 62q42 0 83 -20t101 -64q51 -39 77 -53t50 -14q42 0 59 29t23 110h100q-1 -137 -44.5 -198.5t-137.5 -61.5q-73 0 -184 84q-48 37 -75 51.5t-50 14.5q-43 0 -60.5 -29t-23.5 -109h-101zM1337 1434v-869q0 -140 -32 -246.5t-102 -186.5
t-189.5 -121.5t-286.5 -41.5q-168 0 -287.5 41t-189.5 121t-101.5 186t-31.5 248v869h184v-867q0 -225 97.5 -335.5t328.5 -110.5t328.5 110.5t97.5 335.5v867h184z" />
    <glyph glyph-name="utilde" unicode="&#x169;" horiz-adv-x="1159" 
d="M238 1208q1 137 44.5 198.5t137.5 61.5q43 0 85 -20.5t99 -63.5q51 -38 77 -51.5t50 -13.5q41 0 58.5 29t23.5 108h100q-1 -136 -44.5 -198t-137.5 -62q-73 0 -184 84q-49 38 -76 53t-49 15q-43 0 -60.5 -29t-23.5 -111h-100zM1038 0h-123l-10 211q-8 -42 -32 -81.5
t-67 -77t-117 -60.5t-169 -23q-226 0 -318.5 98.5t-92.5 294.5v629h178v-618q0 -137 59 -197.5t217 -60.5q84 0 143.5 20.5t92 59t47 86.5t14.5 110v600h178v-991z" />
    <glyph glyph-name="Umacron" unicode="&#x16a;" horiz-adv-x="1454" 
d="M424 1759h608v-119h-608v119zM1337 1434v-869q0 -140 -32 -246.5t-102 -186.5t-189.5 -121.5t-286.5 -41.5q-168 0 -287.5 41t-189.5 121t-101.5 186t-31.5 248v869h184v-867q0 -225 97.5 -335.5t328.5 -110.5t328.5 110.5t97.5 335.5v867h184z" />
    <glyph glyph-name="umacron" unicode="&#x16b;" horiz-adv-x="1159" 
d="M272 1378h609v-118h-609v118zM1038 0h-123l-10 211q-8 -42 -32 -81.5t-67 -77t-117 -60.5t-169 -23q-226 0 -318.5 98.5t-92.5 294.5v629h178v-618q0 -137 59 -197.5t217 -60.5q84 0 143.5 20.5t92 59t47 86.5t14.5 110v600h178v-991z" />
    <glyph glyph-name="Ubreve" unicode="&#x16c;" horiz-adv-x="1454" 
d="M440 1907h105q6 -108 47.5 -155.5t136.5 -47.5q94 0 135 47t47 156h105q0 -167 -70.5 -247.5t-216.5 -80.5q-148 0 -218.5 80.5t-70.5 247.5zM1337 1434v-869q0 -140 -32 -246.5t-102 -186.5t-189.5 -121.5t-286.5 -41.5q-168 0 -287.5 41t-189.5 121t-101.5 186
t-31.5 248v869h184v-867q0 -225 97.5 -335.5t328.5 -110.5t328.5 110.5t97.5 335.5v867h184z" />
    <glyph glyph-name="ubreve" unicode="&#x16d;" horiz-adv-x="1159" 
d="M289 1522h104q6 -108 48 -155.5t137 -47.5q94 0 135 47t47 156h104q0 -167 -70 -247.5t-216 -80.5q-148 0 -218.5 80.5t-70.5 247.5zM1038 0h-123l-10 211q-8 -42 -32 -81.5t-67 -77t-117 -60.5t-169 -23q-226 0 -318.5 98.5t-92.5 294.5v629h178v-618q0 -137 59 -197.5
t217 -60.5q84 0 143.5 20.5t92 59t47 86.5t14.5 110v600h178v-991z" />
    <glyph glyph-name="Uring" unicode="&#x16e;" horiz-adv-x="1454" 
d="M735 1579q-114 0 -172.5 52t-58.5 153q0 103 58.5 156t172.5 53q112 0 170 -53t58 -156q0 -205 -228 -205zM735 1671q64 0 90.5 26t26.5 87q0 62 -26.5 88t-90.5 26q-66 0 -93.5 -26t-27.5 -88q0 -60 27.5 -86.5t93.5 -26.5zM1337 1434v-869q0 -140 -32 -246.5
t-102 -186.5t-189.5 -121.5t-286.5 -41.5q-168 0 -287.5 41t-189.5 121t-101.5 186t-31.5 248v869h184v-867q0 -225 97.5 -335.5t328.5 -110.5t328.5 110.5t97.5 335.5v867h184z" />
    <glyph glyph-name="uring" unicode="&#x16f;" horiz-adv-x="1159" 
d="M578 1194q-114 0 -173 52t-59 153q0 103 59 156t173 53q112 0 169.5 -53t57.5 -156q0 -205 -227 -205zM578 1286q64 0 90 26t26 87q0 62 -26 88t-90 26q-66 0 -93.5 -26t-27.5 -88q0 -60 27.5 -86.5t93.5 -26.5zM1038 0h-123l-10 211q-8 -42 -32 -81.5t-67 -77
t-117 -60.5t-169 -23q-226 0 -318.5 98.5t-92.5 294.5v629h178v-618q0 -137 59 -197.5t217 -60.5q84 0 143.5 20.5t92 59t47 86.5t14.5 110v600h178v-991z" />
    <glyph glyph-name="Uhungarumlaut" unicode="&#x170;" horiz-adv-x="1454" 
d="M829 1903l-266 -322h-133l232 322h167zM1200 1903l-266 -322h-133l231 322h168zM1337 1434v-869q0 -140 -32 -246.5t-102 -186.5t-189.5 -121.5t-286.5 -41.5q-168 0 -287.5 41t-189.5 121t-101.5 186t-31.5 248v869h184v-867q0 -225 97.5 -335.5t328.5 -110.5
t328.5 110.5t97.5 335.5v867h184z" />
    <glyph glyph-name="uhungarumlaut" unicode="&#x171;" horiz-adv-x="1159" 
d="M629 1518l-267 -322h-133l232 322h168zM999 1518l-266 -322h-133l231 322h168zM1038 0h-123l-10 211q-8 -42 -32 -81.5t-67 -77t-117 -60.5t-169 -23q-226 0 -318.5 98.5t-92.5 294.5v629h178v-618q0 -137 59 -197.5t217 -60.5q84 0 143.5 20.5t92 59t47 86.5t14.5 110
v600h178v-991z" />
    <glyph glyph-name="Uogonek" unicode="&#x172;" horiz-adv-x="1454" 
d="M1153 1434h184v-869q0 -129 -27 -229.5t-86 -179t-158.5 -125t-238.5 -58.5q-135 -123 -135 -213q0 -35 20 -53t54 -18q50 0 90 16v-115q-67 -24 -123 -24q-81 0 -125.5 41t-44.5 114q0 134 133 248q-159 4 -272.5 46.5t-179.5 122.5t-96.5 184.5t-30.5 242.5v869h184
v-867q0 -225 97.5 -335.5t328.5 -110.5t328.5 110.5t97.5 335.5v867z" />
    <glyph glyph-name="uogonek" unicode="&#x173;" horiz-adv-x="1159" 
d="M1038 0q-166 -141 -166 -240q0 -35 20 -53t54 -18q50 0 90 16v-115q-67 -24 -123 -24q-81 0 -125.5 41t-44.5 114q0 75 45.5 147t126.5 132l-10 211q-8 -42 -32 -81.5t-67 -77t-117 -60.5t-169 -23q-226 0 -318.5 98.5t-92.5 294.5v629h178v-618q0 -137 59 -197.5
t217 -60.5q84 0 143.5 20.5t92 59t47 86.5t14.5 110v600h178v-991z" />
    <glyph glyph-name="Wcircumflex" unicode="&#x174;" horiz-adv-x="1982" 
d="M666 1581l241 322h170l242 -322h-133l-193 229l-194 -229h-133zM4 1434h195l309 -1051q28 -101 39 -174q13 68 43 174l311 1051h186l312 -1051q29 -103 39 -172q5 25 41 172l311 1051h188l-442 -1434h-193l-311 1051q-25 87 -41 180q-6 -46 -39 -180l-313 -1051h-195z
" />
    <glyph glyph-name="wcircumflex" unicode="&#x175;" horiz-adv-x="1630" 
d="M489 1196l242 322h170l242 -322h-133l-193 231l-194 -231h-134zM14 991h191l213 -665q28 -104 47 -201q30 135 51 201l207 665h188l209 -665q15 -47 49 -201q19 85 50 201l213 665h184l-342 -991h-201l-258 829l-256 -829h-203z" />
    <glyph glyph-name="Ycircumflex" unicode="&#x176;" horiz-adv-x="1320" 
d="M334 1581l241 322h170l242 -322h-133l-192 229l-195 -229h-133zM565 0v575l-559 859h211l377 -586q41 -64 65 -125q35 73 68 125l381 586h207l-567 -861v-573h-183z" />
    <glyph glyph-name="ycircumflex" unicode="&#x177;" horiz-adv-x="1040" 
d="M195 1196l241 322h170l242 -322h-133l-193 231l-194 -231h-133zM14 991h193l254 -608q45 -112 63 -195q20 76 64 195l250 608h188l-590 -1360h-184l190 400z" />
    <glyph glyph-name="Ydieresis" unicode="&#x178;" horiz-adv-x="1320" 
d="M391 1841h156v-260h-156v260zM776 1841h156v-260h-156v260zM565 0v575l-559 859h211l377 -586q41 -64 65 -125q35 73 68 125l381 586h207l-567 -861v-573h-183z" />
    <glyph glyph-name="Zacute" unicode="&#x179;" horiz-adv-x="1284" 
d="M950 1903l-266 -322h-133l231 322h168zM94 1434h1100v-158l-762 -942q-81 -101 -162 -182q114 4 244 4h709v-156h-1162v160l764 940q70 84 162 182q-114 -4 -242 -4h-651v156z" />
    <glyph glyph-name="zacute" unicode="&#x17a;" horiz-adv-x="993" 
d="M807 1518l-266 -322h-133l231 322h168zM80 164l506 565q22 24 63 65l56 56q-26 0 -88 -1t-91 -1h-428v143h793v-164l-508 -567q-18 -21 -117 -119h178h469v-141h-833v164z" />
    <glyph glyph-name="Zdotaccent" unicode="&#x17b;" horiz-adv-x="1284" 
d="M565 1841h154v-260h-154v260zM94 1434h1100v-158l-762 -942q-81 -101 -162 -182q114 4 244 4h709v-156h-1162v160l764 940q70 84 162 182q-114 -4 -242 -4h-651v156z" />
    <glyph glyph-name="zdotaccent" unicode="&#x17c;" horiz-adv-x="993" 
d="M422 1456h153v-260h-153v260zM80 164l506 565q22 24 63 65l56 56q-26 0 -88 -1t-91 -1h-428v143h793v-164l-508 -567q-18 -21 -117 -119h178h469v-141h-833v164z" />
    <glyph glyph-name="Zcaron" unicode="&#x17d;" horiz-adv-x="1284" 
d="M315 1903h134l194 -230l193 230h133l-242 -322h-170zM94 1434h1100v-158l-762 -942q-81 -101 -162 -182q114 4 244 4h709v-156h-1162v160l764 940q70 84 162 182q-114 -4 -242 -4h-651v156z" />
    <glyph glyph-name="zcaron" unicode="&#x17e;" horiz-adv-x="993" 
d="M172 1518h133l195 -230l192 230h133l-241 -322h-170zM80 164l506 565q22 24 63 65l56 56q-26 0 -88 -1t-91 -1h-428v143h793v-164l-508 -567q-18 -21 -117 -119h178h469v-141h-833v164z" />
    <glyph glyph-name="uni018F" unicode="&#x18f;" horiz-adv-x="1470" 
d="M90 700q0 41 4 111h1104q-15 271 -138.5 387.5t-391.5 116.5q-193 0 -473 -70v158q246 61 477 61q375 0 543.5 -179t168.5 -568q0 -185 -35.5 -321t-113 -233.5t-205 -145.5t-307.5 -48q-144 0 -252 31.5t-180.5 90t-117.5 150t-64 203t-19 256.5zM270 657
q2 -144 25.5 -242.5t76 -167.5t138.5 -100.5t213 -31.5q250 0 359.5 129t115.5 413h-928z" />
    <glyph glyph-name="uni0218" unicode="&#x218;" horiz-adv-x="1251" 
d="M1100 1245q-256 70 -475 70q-104 0 -177 -16t-113 -46.5t-57.5 -67.5t-17.5 -85q0 -37 6.5 -63.5t29 -57.5t64 -56t115 -52.5t178.5 -53.5q159 -38 263 -82t163 -101.5t82 -122t23 -153.5q0 -90 -30.5 -159.5t-96.5 -122t-178.5 -80t-268.5 -27.5q-126 0 -274.5 22
t-249.5 56v156q277 -86 524 -86q112 0 189.5 16.5t120.5 49t61 73.5t18 96q0 56 -13.5 93.5t-56 75.5t-125 69.5t-216.5 64.5q-123 30 -213.5 66t-147.5 75t-91 87.5t-47 98.5t-13 112q0 368 555 368q253 0 469 -59v-158zM547 -143h160v-152l-66 -139h-88l49 141h-55v150z
" />
    <glyph glyph-name="uni0219" unicode="&#x219;" horiz-adv-x="1005" 
d="M512 -29q-233 0 -414 58v147q231 -63 416 -63q143 0 199.5 36t56.5 111q0 19 -4 35t-8.5 28.5t-17 23.5t-21.5 18.5t-31 15.5t-35.5 12.5t-45.5 11.5t-51 11t-60 12q-65 13 -107.5 23t-90 24.5t-77 29.5t-58 37.5t-43.5 49.5t-24.5 63.5t-9.5 81.5q0 69 21 119.5t69 88
t130.5 56.5t201.5 19q152 0 366 -33v-147q-205 39 -362 39q-99 0 -156 -16.5t-77.5 -43.5t-20.5 -71q0 -22 6 -39.5t14 -30.5t28 -24.5t36 -18.5t51 -16t60 -14l75 -15q54 -11 86.5 -17.5t75 -17t67 -20t55.5 -23.5t47.5 -29t35 -36t27 -46t14.5 -56t6 -69
q0 -157 -97.5 -231t-332.5 -74zM428 -143h160v-152l-66 -139h-88l49 141h-55v150z" />
    <glyph glyph-name="uni021A" unicode="&#x21a;" horiz-adv-x="1251" 
d="M1219 1434v-154h-502v-1280h-182v1280h-502v154h1186zM551 -293v150h160v-152l-66 -139h-88l49 141h-55z" />
    <glyph glyph-name="uni021B" unicode="&#x21b;" horiz-adv-x="759" 
d="M705 848h-340v-535q0 -103 36.5 -142.5t147.5 -39.5q63 0 131 14v-139q-72 -14 -164 -14q-183 0 -256.5 81t-73.5 249v526h-137v143h148l47 240h121v-240h340v-143zM383 -293v150h160v-152l-66 -139h-88l49 141h-55z" />
    <glyph glyph-name="uni0237" unicode="&#x237;" horiz-adv-x="419" 
d="M299 -72q0 -165 -71 -246t-242 -81q-102 0 -144 10v137q81 -6 107 -6q101 0 136.5 39t35.5 139v1071h178v-1063z" />
    <glyph glyph-name="uni0259" unicode="&#x259;" horiz-adv-x="1122" 
d="M123 965q69 24 176 40.5t213 16.5q154 0 258 -32.5t164 -101t85 -162.5t25 -230q0 -131 -24.5 -225t-80.5 -163.5t-153 -104t-237 -34.5q-131 0 -223.5 33t-146 97.5t-77.5 150t-24 201.5q0 28 4 106h784q-3 173 -81.5 248.5t-276.5 75.5q-193 0 -385 -62v146zM549 102
q173 0 244.5 79t74.5 245h-614q0 -166 66 -245t229 -79z" />
    <glyph glyph-name="circumflex" unicode="&#x2c6;" horiz-adv-x="735" 
d="M41 1196l242 322h170l241 -322h-133l-192 231l-195 -231h-133z" />
    <glyph glyph-name="caron" unicode="&#x2c7;" horiz-adv-x="735" 
d="M41 1518h133l195 -230l192 230h133l-241 -322h-170z" />
    <glyph glyph-name="breve" unicode="&#x2d8;" horiz-adv-x="657" 
d="M41 1522h104q6 -108 48 -155.5t137 -47.5q94 0 135 47t47 156h104q0 -167 -70 -247.5t-216 -80.5q-148 0 -218.5 80.5t-70.5 247.5z" />
    <glyph glyph-name="dotaccent" unicode="&#x2d9;" horiz-adv-x="235" 
d="M41 1456h154v-260h-154v260z" />
    <glyph glyph-name="ring" unicode="&#x2da;" horiz-adv-x="540" 
d="M272 1194q-114 0 -172.5 52t-58.5 153q0 103 58.5 156t172.5 53q112 0 170 -53t58 -156q0 -205 -228 -205zM272 1286q64 0 90.5 26t26.5 87q0 62 -26.5 88t-90.5 26q-66 0 -93 -26t-27 -88q0 -61 27.5 -87t92.5 -26z" />
    <glyph glyph-name="ogonek" unicode="&#x2db;" horiz-adv-x="376" 
d="M334 -410q-67 -24 -123 -24q-81 0 -125.5 41t-44.5 114q0 75 45.5 147t126.5 132h123q-166 -141 -166 -240q0 -35 20 -53t54 -18q50 0 90 16v-115z" />
    <glyph glyph-name="tilde" unicode="&#x2dc;" horiz-adv-x="757" 
d="M41 1208q1 137 44.5 198.5t137.5 61.5q43 0 85.5 -20.5t99.5 -63.5q51 -38 77 -51.5t50 -13.5q41 0 58 28.5t23 108.5h101q-1 -136 -44.5 -198t-137.5 -62q-74 0 -185 84q-49 38 -76 53t-49 15q-43 0 -60.5 -29t-23.5 -111h-100z" />
    <glyph glyph-name="hungarumlaut" unicode="&#x2dd;" horiz-adv-x="851" 
d="M440 1518l-266 -322h-133l231 322h168zM811 1518l-266 -322h-133l231 322h168z" />
    <glyph glyph-name="gravecomb" unicode="&#x300;" 
d="M-440 1518h168l231 -322h-133z" />
    <glyph glyph-name="acutecomb" unicode="&#x301;" 
d="M-41 1518l-266 -322h-133l231 322h168z" />
    <glyph glyph-name="uni0302" unicode="&#x302;" 
d="M-694 1196l241 322h170l242 -322h-133l-193 231l-194 -231h-133z" />
    <glyph glyph-name="tildecomb" unicode="&#x303;" 
d="M-717 1208q1 137 44.5 198.5t137.5 61.5q43 0 85.5 -20.5t99.5 -63.5q51 -38 77 -51.5t50 -13.5q41 0 58.5 29t23.5 108h100q-1 -136 -44.5 -198t-137.5 -62q-74 0 -185 84q-50 39 -76 53.5t-48 14.5q-43 0 -60.5 -29t-23.5 -111h-101z" />
    <glyph glyph-name="uni0304" unicode="&#x304;" 
d="M-649 1378h608v-118h-608v118z" />
    <glyph glyph-name="uni0306" unicode="&#x306;" 
d="M-616 1522h104q6 -108 47.5 -155.5t136.5 -47.5q94 0 135.5 47t47.5 156h104q0 -167 -70.5 -247.5t-216.5 -80.5q-148 0 -218 80t-70 248z" />
    <glyph glyph-name="uni0307" unicode="&#x307;" 
d="M-195 1456h154v-260h-154v260z" />
    <glyph glyph-name="uni0308" unicode="&#x308;" 
d="M-582 1456h156v-260h-156v260zM-197 1456h156v-260h-156v260z" />
    <glyph glyph-name="uni030A" unicode="&#x30a;" 
d="M-268 1194q-114 0 -173 52t-59 153q0 103 59 156t173 53q112 0 169.5 -53t57.5 -156q0 -205 -227 -205zM-268 1286q64 0 90 26t26 87q0 62 -26 88t-90 26q-66 0 -93.5 -26t-27.5 -88q0 -60 27.5 -86.5t93.5 -26.5z" />
    <glyph glyph-name="uni030B" unicode="&#x30b;" 
d="M-412 1518l-266 -322h-133l231 322h168zM-41 1518l-266 -322h-133l231 322h168z" />
    <glyph glyph-name="uni030C" unicode="&#x30c;" 
d="M-694 1518h133l194 -230l193 230h133l-242 -322h-170z" />
    <glyph glyph-name="uni0312" unicode="&#x312;" 
d="M-45 1196h-150v180l66 148h88l-49 -150h45v-178z" />
    <glyph glyph-name="uni0326" unicode="&#x326;" 
d="M-201 -143h160v-152l-65 -139h-89l50 141h-56v150z" />
    <glyph glyph-name="uni0327" unicode="&#x327;" 
d="M-182 0l-74 -117q18 2 63 2q71 0 111.5 -35t40.5 -96q0 -157 -207 -157q-96 0 -186 34v84q82 -26 151 -26q117 0 117 63q0 64 -96 64q-57 0 -84 -6l-31 45l90 145h105z" />
    <glyph glyph-name="uni0328" unicode="&#x328;" 
d="M-43 -410q-67 -24 -123 -24q-81 0 -125.5 41t-44.5 114q0 75 45.5 147t126.5 132h123q-166 -141 -166 -240q0 -35 20 -53t54 -18q50 0 90 16v-115z" />
    <glyph glyph-name="Wgrave" unicode="&#x1e80;" horiz-adv-x="1982" 
d="M676 1903h168l231 -322h-133zM4 1434h195l309 -1051q28 -101 39 -174q13 68 43 174l311 1051h186l312 -1051q29 -103 39 -172q5 25 41 172l311 1051h188l-442 -1434h-193l-311 1051q-25 87 -41 180q-6 -46 -39 -180l-313 -1051h-195z" />
    <glyph glyph-name="wgrave" unicode="&#x1e81;" horiz-adv-x="1630" 
d="M489 1518h168l232 -322h-133zM14 991h191l213 -665q28 -104 47 -201q30 135 51 201l207 665h188l209 -665q15 -47 49 -201q19 85 50 201l213 665h184l-342 -991h-201l-258 829l-256 -829h-203z" />
    <glyph glyph-name="Wacute" unicode="&#x1e82;" horiz-adv-x="1982" 
d="M1300 1903l-266 -322h-133l232 322h167zM4 1434h195l309 -1051q28 -101 39 -174q13 68 43 174l311 1051h186l312 -1051q29 -103 39 -172q5 25 41 172l311 1051h188l-442 -1434h-193l-311 1051q-25 87 -41 180q-6 -46 -39 -180l-313 -1051h-195z" />
    <glyph glyph-name="wacute" unicode="&#x1e83;" horiz-adv-x="1630" 
d="M1124 1518l-266 -322h-133l231 322h168zM14 991h191l213 -665q28 -104 47 -201q30 135 51 201l207 665h188l209 -665q15 -47 49 -201q19 85 50 201l213 665h184l-342 -991h-201l-258 829l-256 -829h-203z" />
    <glyph glyph-name="Wdieresis" unicode="&#x1e84;" horiz-adv-x="1982" 
d="M721 1841h156v-260h-156v260zM1106 1841h156v-260h-156v260zM4 1434h195l309 -1051q28 -101 39 -174q13 68 43 174l311 1051h186l312 -1051q29 -103 39 -172q5 25 41 172l311 1051h188l-442 -1434h-193l-311 1051q-25 87 -41 180q-6 -46 -39 -180l-313 -1051h-195z" />
    <glyph glyph-name="wdieresis" unicode="&#x1e85;" horiz-adv-x="1630" 
d="M545 1456h155v-260h-155v260zM930 1456h155v-260h-155v260zM14 991h191l213 -665q28 -104 47 -201q30 135 51 201l207 665h188l209 -665q15 -47 49 -201q19 85 50 201l213 665h184l-342 -991h-201l-258 829l-256 -829h-203z" />
    <glyph glyph-name="uni1E9E" unicode="&#x1e9e;" horiz-adv-x="1460" 
d="M131 0v905q0 284 142 420.5t427 136.5q284 0 517 -80v-139l-302 -457q451 -65 451 -419q0 -192 -133.5 -295t-384.5 -103q-187 0 -342 58v155q183 -65 352 -65q158 0 241 61.5t83 183.5q0 132 -104 201.5t-349 100.5v124l313 480q-155 47 -342 47q-194 0 -289.5 -99.5
t-95.5 -310.5v-905h-184z" />
    <glyph glyph-name="Ygrave" unicode="&#x1ef2;" horiz-adv-x="1320" 
d="M346 1903h168l231 -322h-133zM565 0v575l-559 859h211l377 -586q41 -64 65 -125q35 73 68 125l381 586h207l-567 -861v-573h-183z" />
    <glyph glyph-name="ygrave" unicode="&#x1ef3;" horiz-adv-x="1040" 
d="M195 1518h167l232 -322h-133zM14 991h193l254 -608q45 -112 63 -195q20 76 64 195l250 608h188l-590 -1360h-184l190 400z" />
    <glyph glyph-name="uni2008" unicode="&#x2008;" horiz-adv-x="456" 
 />
    <glyph glyph-name="uni2009" unicode="&#x2009;" horiz-adv-x="114" 
 />
    <glyph glyph-name="uni200B" unicode="&#x200b;" 
 />
    <glyph glyph-name="uni2060" unicode="&#x2060;" 
 />
    <glyph glyph-name="uniFEFF" unicode="&#xfeff;" 
 />
    <glyph glyph-name="NULL" 
 />
    <glyph glyph-name="CR" horiz-adv-x="460" 
 />
    <glyph glyph-name="uni0308.case" 
d="M-582 1841h156v-260h-156v260zM-197 1841h156v-260h-156v260z" />
    <glyph glyph-name="uni0307.case" 
d="M-195 1841h154v-260h-154v260z" />
    <glyph glyph-name="gravecomb.case" 
d="M-440 1903h168l231 -322h-133z" />
    <glyph glyph-name="acutecomb.case" 
d="M-41 1903l-266 -322h-133l231 322h168z" />
    <glyph glyph-name="uni030B.case" 
d="M-412 1903l-266 -322h-133l231 322h168zM-41 1903l-266 -322h-133l231 322h168z" />
    <glyph glyph-name="uni0302.case" 
d="M-694 1581l241 322h170l242 -322h-133l-193 229l-194 -229h-133z" />
    <glyph glyph-name="uni030C.case" 
d="M-694 1903h133l194 -230l193 230h133l-242 -322h-170z" />
    <glyph glyph-name="uni0306.case" 
d="M-616 1907h104q6 -108 47.5 -155.5t136.5 -47.5q94 0 135.5 47t47.5 156h104q0 -167 -70.5 -247.5t-216.5 -80.5q-148 0 -218 80t-70 248z" />
    <glyph glyph-name="uni030A.case" 
d="M-268 1579q-114 0 -173 52t-59 153q0 103 59 156t173 53q112 0 169.5 -53t57.5 -156q0 -205 -227 -205zM-268 1671q64 0 90 26t26 87q0 62 -26 88t-90 26q-66 0 -93.5 -26t-27.5 -88q0 -60 27.5 -86.5t93.5 -26.5z" />
    <glyph glyph-name="tildecomb.case" 
d="M-717 1593q1 136 44.5 198t137.5 62q42 0 84 -20.5t101 -63.5q51 -39 77 -53t50 -14q42 0 59 29t23 110h100q-1 -137 -44.5 -198.5t-137.5 -61.5q-74 0 -185 84q-48 37 -74.5 51.5t-49.5 14.5q-43 0 -60.5 -29t-23.5 -109h-101z" />
    <glyph glyph-name="uni0304.case" 
d="M-649 1759h608v-119h-608v119z" />
    </font>
</defs>
</svg>
