<svg width="61" height="62" viewBox="0 0 61 62" fill="none" xmlns="http://www.w3.org/2000/svg">
<path d="M24.6091 20.399C23.4057 20.399 22.4175 21.3797 22.4175 22.5906C22.4175 23.8016 23.3982 24.7819 24.6091 24.7819C25.82 24.7819 26.8004 23.8016 26.8004 22.5906C26.8004 21.3797 25.82 20.399 24.6091 20.399ZM24.6091 23.8015C23.9405 23.8015 23.3907 23.2516 23.3907 22.583C23.3907 21.9144 23.9405 21.365 24.6091 21.365C25.2777 21.365 25.8272 21.9144 25.8272 22.583C25.8272 23.2516 25.2777 23.8015 24.6091 23.8015Z" fill="white"/>
<path d="M36.3466 20.3769C35.1431 20.3769 34.1549 21.3573 34.1549 22.5682C34.1549 23.7791 35.1357 24.7598 36.3466 24.7598C37.5575 24.7598 38.5382 23.7791 38.5382 22.5682C38.5382 21.3573 37.5575 20.3769 36.3466 20.3769ZM36.3466 23.7793C35.678 23.7793 35.1281 23.2295 35.1281 22.5609C35.1281 21.8923 35.678 21.3425 36.3466 21.3425C37.0152 21.3425 37.565 21.8923 37.565 22.5609C37.565 23.2295 37.0152 23.7793 36.3466 23.7793Z" fill="white"/>
<path d="M21.2363 19.4929C20.486 20.3101 20.0251 21.3945 20.0251 22.5831C20.0251 25.1163 22.083 27.1743 24.6163 27.1743C25.3666 27.1743 26.0724 26.9884 26.7038 26.669C26.897 27.4044 27.38 28.7713 28.5389 29.9822C29.0366 30.5022 29.7495 30.8071 30.485 30.8071C31.2204 30.8071 31.9337 30.5097 32.4314 29.9822C33.5903 28.7713 34.0808 27.397 34.2665 26.669C34.8906 26.9884 35.6038 27.1743 36.3541 27.1743C38.8873 27.1743 40.9449 25.1163 40.9449 22.5831C40.9449 21.3945 40.4918 20.3176 39.7489 19.5078C40.6701 18.8541 43.0249 16.8778 43.8867 13.3416C44.0501 12.673 43.82 11.9748 43.2925 11.529C42.7502 11.0684 42.0147 10.9571 41.361 11.2319C39.5706 11.9823 34.9275 13.7356 30.4999 13.7356C26.0723 13.7356 21.4295 11.9823 19.6391 11.2319C18.9854 10.9571 18.2499 11.0759 17.7076 11.529C17.1801 11.9748 16.957 12.673 17.113 13.3416C17.9674 16.8481 20.2926 18.8243 21.2287 19.4929H21.2363ZM20.9911 22.5831C20.9911 20.5847 22.6106 18.9655 24.609 18.9655C26.6074 18.9655 28.2266 20.5922 28.2266 22.5831C28.2266 24.574 26.5999 26.201 24.609 26.201C22.6181 26.201 20.9911 24.5815 20.9911 22.5831ZM36.3465 26.201C34.3481 26.201 32.7285 24.5815 32.7285 22.5831C32.7285 20.5847 34.3481 18.9655 36.3465 18.9655C38.3448 18.9655 39.9644 20.5922 39.9644 22.5831C39.9644 24.574 38.3448 26.201 36.3465 26.201ZM18.3391 12.2647C18.5991 12.0418 18.9481 11.9898 19.2601 12.1236C21.1024 12.8962 25.8865 14.7012 30.4999 14.7012C35.1132 14.7012 39.8902 12.8962 41.74 12.1236C42.0595 11.9898 42.401 12.0418 42.661 12.2647C42.9136 12.4801 43.0177 12.7919 42.936 13.1113C42.0816 16.6177 39.5558 18.4677 38.9912 18.8465C38.2409 18.3191 37.3345 17.9995 36.3465 17.9995C33.8132 17.9995 31.7553 20.0575 31.7553 22.5907C31.7553 23.9948 32.3942 25.2575 33.397 26.0969C33.3228 26.4758 32.9662 28.0136 31.7256 29.3137C31.4061 29.648 30.9606 29.8411 30.4777 29.8411C29.9949 29.8411 29.5564 29.6554 29.2296 29.3137C27.9889 28.0136 27.6249 26.4684 27.5581 26.0969C28.561 25.2575 29.1998 23.9946 29.1998 22.5831C29.1998 20.0499 27.1422 17.9923 24.609 17.9923C23.6284 17.9923 22.722 18.304 21.9792 18.824C21.3774 18.4155 18.896 16.5585 18.0565 13.104C17.9822 12.7846 18.0863 12.4725 18.3315 12.257L18.3391 12.2647Z" fill="white"/>
<path d="M46.071 24.7671C42.572 24.2248 40.0536 28.0507 39.9422 28.2142C39.7936 28.437 39.8604 28.7416 40.0833 28.8827C40.3062 29.0313 40.6111 28.9645 40.7522 28.7416C40.7745 28.7045 43.0401 25.2797 45.915 25.7254C46.4425 25.8071 46.8957 26.1641 47.2597 26.7955C48.6118 29.1579 48.3962 34.6103 46.7842 38.6962C44.7338 43.8964 41.4948 48.0641 39.1993 49.9287C35.7672 46.0137 35.0244 41.8832 36.5622 35.3681C36.6217 35.1081 36.458 34.8484 36.198 34.7815C35.938 34.7221 35.6782 34.8854 35.6187 35.1454C34.3855 40.3753 34.601 44.2605 36.4211 47.6555C34.2073 50.4859 31.0946 50.5751 30.4632 50.5603C29.8466 50.5751 26.7411 50.4784 24.5273 47.6555C26.3548 44.253 26.5629 40.3753 25.3297 35.1454C25.2703 34.8854 25.0104 34.7221 24.7504 34.7815C24.4904 34.841 24.3268 35.1006 24.3862 35.3681C25.9166 41.8906 25.1812 46.0137 21.7491 49.9287C19.4536 48.0641 16.2146 43.8964 14.1643 38.6962C12.5522 34.6029 12.3292 29.1505 13.6887 26.7955C14.0527 26.1641 14.4985 25.8071 15.0334 25.7254C17.9084 25.2797 20.1743 28.7045 20.1966 28.7416C20.3452 28.9645 20.6422 29.0313 20.8651 28.8827C21.088 28.7341 21.1548 28.437 21.0062 28.2142C20.9022 28.0507 18.3838 24.2322 14.8774 24.7671C14.0528 24.8934 13.3469 25.4283 12.8417 26.3123C11.3337 28.9347 11.5194 34.6552 13.2578 39.0531C15.4864 44.6991 19.0968 49.1934 21.5111 50.9763C21.6003 51.0432 21.697 51.0728 21.801 51.0728C21.9347 51.0728 22.061 51.0208 22.1575 50.9168C22.8707 50.1442 23.48 49.3568 23.9926 48.5471C26.2956 51.266 29.2818 51.5335 30.3293 51.5335C30.3739 51.5335 30.4111 51.5335 30.4483 51.5335C31.3917 51.5558 34.5265 51.3775 36.926 48.5471C37.4386 49.3568 38.048 50.1442 38.7611 50.9168C38.8577 51.0208 38.984 51.0728 39.1177 51.0728C39.2217 51.0728 39.3184 51.0432 39.4075 50.9763C41.8219 49.1934 45.4397 44.6991 47.6609 39.0531C49.3993 34.6478 49.585 28.9347 48.077 26.3123C47.5718 25.4283 46.8659 24.8934 46.0413 24.7671H46.071Z" fill="white"/>
<path d="M53.7526 8.99561C49.1318 3.95141 41.5244 1.5 30.5 1.5C19.4756 1.5 11.8685 3.95141 7.24779 8.99561C2.98362 13.6461 1 20.6367 1 31C1 41.3633 2.98362 48.3539 7.24779 53.0044C11.8685 58.0486 19.4756 60.5 30.5 60.5C41.5244 60.5 49.1318 58.0486 53.7526 53.0044C58.0167 48.3539 60 41.3633 60 31C60 20.6367 58.0167 13.6461 53.7526 8.99561ZM30.5 59.5268C9.97404 59.5268 1.97323 51.526 1.97323 31C1.97323 10.474 9.97404 2.47323 30.5 2.47323C51.026 2.47323 59.0268 10.474 59.0268 31C59.0268 51.526 51.026 59.5268 30.5 59.5268Z" fill="white"/>
</svg>
