<svg width="140" height="73" viewBox="0 0 140 73" fill="none" xmlns="http://www.w3.org/2000/svg">
<path d="M102.511 13C92.3466 13 83.9731 21.2206 83.9731 31.5382C83.9731 41.8559 92.1935 50.0761 102.511 50.0761C112.829 50.0761 121.049 41.8559 121.049 31.5382C121.049 21.2206 112.676 13 102.511 13ZM116.87 21.2281C115.975 21.8251 114.926 22.4224 113.877 23.0194C113.28 21.8254 112.53 20.6235 111.635 19.5825C112.385 19.131 113.127 18.5342 113.724 18.0902C115.071 18.8403 116.12 20.0341 116.862 21.2281M109.094 15.0974C110.586 15.6944 111.933 16.4444 113.28 17.493C112.683 18.09 111.933 18.5418 111.191 18.9857C110.295 17.9371 109.247 17.0416 108.198 16.1461C108.497 15.6945 108.795 15.3959 109.094 15.0974ZM110.586 19.2839C109.538 19.881 108.497 20.1797 107.448 20.6312C106.996 19.5826 106.552 18.5416 105.955 17.6384C106.552 17.3399 107.15 17.0413 107.601 16.5897C108.65 17.3398 109.691 18.2353 110.594 19.2839M108.344 14.7988C108.045 15.0973 107.747 15.3957 107.593 15.6942C106.545 15.0972 105.649 14.5003 104.455 14.0487C105.802 14.0487 107.15 14.3472 108.344 14.7988ZM106.996 16.1461C106.545 16.4446 106.101 16.7431 105.649 16.8962C105.052 16.0006 104.455 15.2503 103.858 14.3548C104.907 14.8064 105.948 15.4036 106.996 16.1461ZM102.81 14.5002C103.56 15.2503 104.157 16.1458 104.754 17.1944C104.157 17.3475 103.56 17.493 102.81 17.493V14.5002ZM102.81 18.2356C103.56 18.2356 104.455 18.0823 105.205 17.7838C105.802 18.6793 106.254 19.728 106.698 20.7766C105.504 21.0751 104.157 21.228 102.81 21.3735V18.2356ZM102.067 14.5002V17.493C101.47 17.493 100.873 17.3398 100.123 17.1944C100.873 16.2989 101.47 15.4033 102.067 14.5002ZM99.5184 16.8883C99.0668 16.7352 98.4699 16.4367 98.1714 16.1382C99.22 15.5412 100.261 14.9443 101.31 14.4927C100.559 15.2428 99.9623 15.9851 99.5184 16.8883ZM100.567 13.9033C99.5185 14.3549 98.4775 14.9518 97.4289 15.5489C97.1304 15.2503 96.8319 14.9519 96.6788 14.6534C97.8728 14.3549 99.22 14.0564 100.567 13.9033ZM113.28 45.5988C110.885 44.2517 110.739 42.3075 110.885 41.7105C111.038 40.9604 111.482 41.259 111.78 41.259C113.426 41.259 115.071 40.8074 117.161 38.5648C119.557 36.1691 120.299 30.788 116.564 27.3513C112.676 23.6162 108.489 24.2133 105.795 27.6499C105.198 28.4 103.851 28.844 102.802 28.844C101.011 28.844 102.205 30.191 102.205 30.4896C102.205 30.7881 101.907 30.941 101.753 30.941C101.156 30.7879 101.455 31.6914 101.455 31.8369C101.455 31.9823 101.156 32.2883 101.156 32.2883C100.406 32.2883 100.559 32.8853 100.705 33.1838C100.705 33.3369 100.705 33.6356 100.406 33.781C100.108 33.9264 99.9547 34.5308 99.9547 34.9747C99.9547 35.7248 100.705 36.322 101.899 37.2175C103.093 38.113 103.246 39.0084 103.246 39.6131C103.246 40.2178 103.399 41.2589 103.544 41.8559C103.843 42.606 103.843 44.0986 102.197 44.0986C100.108 44.2517 96.5181 45.7441 96.2196 45.8896C95.0255 46.3412 93.5254 46.4867 92.3313 46.1882C91.7343 45.7366 91.1373 45.2925 90.5402 44.6955C90.2417 43.9454 90.6933 43.0497 91.1373 42.4527C91.8874 43.2028 92.7829 43.05 93.3799 43.05C93.977 43.05 96.6712 42.5982 97.1151 42.4527C97.5591 42.3073 97.7121 42.2997 97.8652 42.4527C98.9138 42.9043 100.406 42.9045 101.003 40.9604C101.6 38.8709 100.253 39.4677 99.9547 39.6131C99.8017 39.7662 99.5031 39.6133 99.6562 39.4603C99.9547 39.0087 99.5031 39.0084 99.3577 39.0084C98.7607 39.0084 98.0106 39.6054 97.8652 39.7585C97.5667 39.9116 97.4136 39.9117 97.2682 39.9117C96.5181 39.4601 94.2754 40.0647 93.533 38.863C93.533 38.5645 92.9359 33.6278 92.6374 32.7323C92.6374 32.5792 92.4844 32.2808 92.7906 31.9822C93.3876 31.0867 94.8802 31.9822 95.7833 31.9822C96.8319 31.9822 96.9773 31.5307 97.2758 31.2322C97.5743 30.9337 97.7274 31.079 97.8729 30.9335C98.0183 30.7881 97.8729 30.6352 97.8729 30.4821C97.8729 30.329 98.026 30.4819 98.1714 30.3289C98.3168 30.1758 98.1714 29.8774 98.1714 29.732C98.4699 29.2804 99.0668 29.5788 98.7683 28.6833C98.6152 28.0863 98.9215 27.4891 99.22 27.1906C99.6716 26.5936 101.616 23.8996 98.3244 21.0599C95.1863 18.3657 91.895 18.664 89.8055 20.9067C87.7159 23.1493 88.7568 26.4405 88.9099 27.336C89.063 28.2315 88.4584 28.9817 87.7159 29.2802C87.1189 29.5787 85.7718 30.4742 84.8763 31.2243C85.0294 24.0448 89.3616 17.7686 95.944 15.2274C96.2425 15.526 96.541 15.9776 96.8395 16.2761C96.0894 16.8732 94.4439 18.2203 94.4439 18.2203C94.4439 18.2203 94.5969 18.2201 94.8954 18.3732C95.0485 18.3732 95.347 18.5264 95.347 18.5264C95.347 18.5264 96.6941 17.3324 97.4365 16.8808C97.8881 17.3324 98.4852 17.6306 99.0822 17.9292C98.7837 18.5262 97.8882 20.0191 97.8882 20.0191C97.8882 20.0191 98.0412 20.1719 98.1866 20.1719C98.3397 20.325 98.4851 20.3252 98.4851 20.3252C98.4851 20.3252 99.3807 18.6794 99.6792 18.0824C100.429 18.3809 101.172 18.5339 101.922 18.5339V21.5267C101.47 21.5267 100.429 21.5266 99.9777 21.3735H99.6792L99.8323 21.6721C99.9853 21.8252 99.9853 21.9708 100.131 22.1239H101.922V27.6578H102.672V26.3105C103.866 26.3105 104.761 26.1573 105.81 26.0119L106.859 25.1164H106.262C105.068 25.2695 104.019 25.415 103.124 25.415H102.672V21.9782C104.019 21.9782 105.512 21.8253 106.859 21.3813L107.907 24.5196L108.657 24.2209L107.609 21.0827C108.803 20.7842 109.851 20.1874 110.9 19.7358C111.796 20.7844 112.546 21.9782 113.143 23.1722C112.546 23.4708 111.65 23.7695 111.65 23.7695C112.4 23.9226 112.997 24.0677 112.997 24.0677C112.997 24.0677 113.296 23.9149 113.449 23.9149C113.449 24.0679 113.602 24.3663 113.602 24.3663L114.65 24.8178L114.497 24.5196C114.497 24.5196 114.199 23.7695 114.046 23.6241C115.094 23.1725 116.135 22.5752 117.184 21.8328C119.128 24.6724 120.024 28.1093 120.024 31.5536C120.322 37.2329 117.482 42.3227 113.296 45.6063M82.3275 17.937L82.0289 18.2356C80.9803 19.1311 78.4392 21.6721 78.8908 24.5117V24.6649L79.0439 25.2618L79.3424 24.9635C80.8349 23.6164 82.0367 21.2281 82.4806 18.5339L82.6336 17.7838L82.3351 17.937H82.3275ZM77.2452 22.7208L77.0921 23.0194C76.939 23.471 76.6405 24.5119 76.4951 25.7136C76.1966 27.5047 76.342 30.1988 77.8422 32.1429L77.9953 32.4416L78.1484 32.7398L78.4469 31.5457C78.7454 29.4562 78.2938 25.1164 77.5514 23.1722L77.2528 22.5754V22.7283L77.2452 22.7208ZM75.4465 30.1988V30.4974C75.2934 32.2885 75.4465 36.9266 79.1817 39.4677L79.6332 39.7663V39.1691C79.6332 37.3781 77.5437 32.1429 76.0435 30.3442L75.592 29.7473L75.4388 30.1988H75.4465ZM76.0435 38.419V38.7176C76.6405 41.4119 79.0363 45.5988 82.9245 46.9383L83.5215 47.0911L83.3684 46.4943C82.6183 44.5501 78.8831 39.9116 76.4874 38.419L76.0359 38.1208V38.419H76.0435ZM83.9731 21.9707L83.5215 22.1239C80.6819 23.915 79.3347 26.0119 79.3347 28.7061V29.3033L79.7864 29.0047C81.2789 27.6576 83.3761 24.3664 83.8201 22.5754L83.9731 21.8253V21.9782V21.9707ZM82.1744 27.6578L82.0213 27.956C81.2712 28.7061 78.8832 31.2472 79.0286 34.3853C79.0286 34.8369 79.1817 35.4341 79.3271 35.878L79.4802 36.3295L79.7787 35.878C80.9727 34.2324 82.4729 30.0455 82.3198 28.1014V27.5046L82.1668 27.6578H82.1744ZM82.3275 33.1916L82.1744 33.4899C80.9804 35.2809 80.3833 37.0798 80.3833 38.8709C80.3833 40.0649 80.8349 41.2665 81.5774 42.4606L81.8759 42.912L82.0289 42.4606C82.4805 41.412 82.9245 38.2738 82.9245 35.7326C82.9245 34.8371 82.7714 34.087 82.626 33.6431L82.4729 33.0459L82.3198 33.1991L82.3275 33.1916ZM83.6746 39.0163L83.5215 39.3149C83.223 40.5089 82.9245 41.5573 83.0699 42.7513C83.0699 45.1471 84.264 47.0911 86.3612 48.4306L86.6597 48.5838L86.8127 48.1323V47.6805C86.8127 45.7364 85.3202 40.6542 84.1185 39.1616L83.8201 38.7102L83.6669 39.0084L83.6746 39.0163ZM79.6332 46.7929L79.7864 47.0911C81.2789 49.6323 83.9731 53.069 88.9099 52.1735H89.3616L89.0631 51.8749C88.1675 50.5278 82.1821 47.0914 80.0925 46.7929L79.4955 46.6397L79.6486 46.7929H79.6332ZM86.9659 53.3751L86.2158 53.5283L86.9659 53.8269C90.104 55.174 93.9922 55.4725 96.3879 54.7224C97.2835 54.4239 97.7351 53.9721 98.3321 53.3751C102.366 53.8266 106.109 57.1105 108.351 59.8048L108.504 59.9576H108.657C108.956 59.8045 109.254 59.5062 109.407 59.3608L109.561 59.2075L109.407 59.0547C107.165 56.0619 103.575 54.2707 103.43 54.1177C100.138 52.6251 94.4592 51.4235 86.9812 53.3676" fill="#645D75"/>
<path d="M87.1115 45.0015V45.3001C87.563 48.2929 88.7571 52.181 93.8394 51.7295H94.1379L93.9848 51.4308C93.6862 50.0837 89.0479 46.1957 87.4023 45.1548L86.9507 44.8561L87.1038 45.0094L87.1115 45.0015ZM122.397 17.6383L122.55 18.3884C123.001 21.0826 124.195 23.4706 125.688 24.8177L125.986 25.1163L126.139 24.5195V24.3663C126.591 21.5266 124.05 18.9857 123.001 18.0902L122.703 17.7916L122.404 17.6383H122.397ZM127.632 22.4221L127.333 23.0193C126.583 24.9635 126.285 29.2956 126.438 31.3928L126.736 32.5869L126.889 32.4337L127.043 32.135C128.688 30.1909 128.688 27.6498 128.39 25.7057C128.237 24.3586 127.938 23.4631 127.793 23.0115L127.64 22.7129V22.4146L127.632 22.4221ZM129.576 29.9001L129.124 30.4973C127.632 32.4415 125.535 37.5236 125.535 39.3223V39.9195L125.986 39.6209C129.722 37.2252 129.875 32.5943 129.722 30.6502V30.352L129.568 29.9001H129.576ZM128.979 38.1207L128.382 38.419C125.986 39.9115 122.251 44.5501 121.501 46.4942L121.348 47.0911L121.945 46.9382C125.833 45.7442 128.374 41.4042 128.826 38.7176V38.419L128.979 38.1207ZM121.049 21.672L121.203 22.4221C121.8 24.3662 123.598 27.6575 125.236 29.0047L125.688 29.3033V28.706C125.841 26.0118 124.494 23.9226 121.654 22.1239L121.356 21.9706L121.057 21.672H121.049ZM122.695 27.5045V28.1013C122.542 30.0455 124.188 34.3778 125.236 35.878L125.535 36.3294L125.688 35.878C125.841 35.281 125.986 34.8292 125.986 34.3853C126.139 31.2471 123.744 28.7061 122.994 27.956L122.841 27.8031L122.687 27.5045H122.695ZM122.55 32.8851L122.397 33.4823C122.243 33.9339 122.098 34.6764 122.098 35.5719C122.098 38.113 122.397 41.2512 122.994 42.2998L123.147 42.7513L123.445 42.2998C124.195 41.2512 124.639 40.0572 124.639 38.7101C124.639 37.0645 124.042 35.1202 122.848 33.3291L122.695 33.0309L122.542 32.8776L122.55 32.8851ZM121.203 38.7176L120.904 39.1691C119.71 40.6616 118.21 45.7518 118.21 47.6883V48.1398L118.363 48.5912L118.661 48.4384C120.751 47.0913 121.8 45.1472 121.953 42.7591C121.953 41.7105 121.8 40.5163 121.501 39.3223L121.348 39.0237L121.195 38.7254L121.203 38.7176ZM125.542 46.4942L124.945 46.6471C122.856 46.9456 116.87 50.3823 115.975 51.7295L115.676 52.0281H116.128C121.065 52.9236 123.751 49.4868 125.252 46.9457L125.405 46.6471L125.558 46.4942H125.542ZM101.761 54.1176C101.608 54.1176 98.0262 56.0619 95.7835 59.0546L95.6304 59.2075L95.7835 59.3607C95.9366 59.5138 96.3805 59.8121 96.5336 59.9576H96.6867L96.8397 59.8047C99.0823 57.1105 102.818 53.6735 106.859 53.375C107.456 53.972 108.053 54.4238 108.803 54.7223C111.046 55.4724 115.079 55.174 118.225 53.8268L118.975 53.5282L118.225 53.375C110.602 51.4309 104.915 52.6249 101.777 54.1251M117.911 44.7033L117.46 45.0015C115.814 46.0501 111.329 49.9385 110.877 51.278L110.724 51.5766H111.023C115.96 52.0282 117.154 48.1396 117.751 45.1469V44.8487L117.904 44.6954L117.911 44.7033ZM-8.28086 14.7987H-2.00449V20.478H-8.28086V14.7987ZM-7.68382 27.0605H-2.44849V54.8677H-7.68382V27.0605ZM-47.3088 27.0605H-42.0735V54.8677H-47.1557V50.834H-47.3088C-49.3984 54.2707 -52.9881 55.771 -56.8764 55.771C-62.7087 55.771 -66 51.2855 -66 45.7516V27.0605H-60.7646V43.5092C-60.7646 48.293 -59.716 51.8827 -54.6337 51.8827C-52.5441 51.8827 -49.5514 50.8341 -48.5028 47.849C-47.4542 45.3079 -47.4542 42.0165 -47.4542 41.2664V27.0605H-47.3011H-47.3088ZM-31.6104 31.0942C-29.6662 27.6575 -25.9311 26.1572 -23.0914 26.1572C-21.1473 26.1572 -12.6283 26.6088 -12.6283 35.5794V54.7145H-17.8637V37.2174C-17.8637 32.5791 -19.8078 30.1909 -24.2931 30.1909C-24.2931 30.1909 -27.1327 30.0378 -29.3753 32.2804C-30.1254 33.0305 -31.618 34.2246 -31.618 39.7584V54.8598H-36.8534V27.053H-31.618V31.0867L-31.6104 31.0942ZM19.5263 35.878C19.2278 32.4413 17.5822 30.0455 13.847 30.0455C8.91014 30.0455 6.96602 34.3856 6.96602 40.815C6.96602 47.2444 8.91014 51.5841 13.847 51.5841C17.2837 51.5841 19.3809 49.3413 19.6794 45.3076H24.9147C24.4631 51.5839 19.8324 55.327 13.7015 55.327C4.87641 55.327 1.29435 49.0507 1.29435 40.9757C1.29435 32.9007 5.32807 26.1725 14.1532 26.1725C19.9856 26.1725 24.3177 29.9078 24.6162 35.8933H19.5339L19.5263 35.878ZM32.6836 41.8633C32.232 46.6471 34.3292 51.7295 39.5646 51.7295C43.5982 51.7295 45.6955 50.0839 46.2925 46.0502H51.8263C50.9308 52.3265 46.147 55.4724 39.5646 55.4724C30.7394 55.4724 27.1574 49.1961 27.1574 41.1211C27.1574 33.046 31.191 26.3183 40.0161 26.3183C48.2365 26.4713 52.1249 31.6991 52.1249 39.3301V41.8711H32.6836V41.8633ZM46.744 38.2736C46.8971 33.6352 44.8 30.0534 39.7177 30.0534C35.3778 30.0534 32.8366 33.7883 32.8366 38.2736H46.744ZM58.1026 54.5691V30.6427H53.3188V27.053H58.1026V21.0752C58.2557 15.0974 62.8864 13.4518 66.7747 13.4518C67.9687 13.4518 69.3158 13.7501 70.5099 14.0486V18.3884C69.6143 18.3884 68.7188 18.2356 67.8156 18.2356C64.8229 18.2356 63.1773 18.9856 63.3304 21.9706V27.053H69.7598V30.6427H63.3304V54.5691H58.095H58.1026Z" fill="#645D75"/>
</svg>
