<svg width="182" height="84" viewBox="0 0 182 84" fill="none" xmlns="http://www.w3.org/2000/svg">
<path d="M80.2456 22.8066C78.1171 22.8066 76.3892 24.5345 76.3892 26.663C76.3892 28.7914 78.1171 30.5193 80.2456 30.5193C82.374 30.5193 84.1019 28.7914 84.1019 26.663C84.1019 24.5345 82.374 22.8066 80.2456 22.8066ZM80.2456 28.9563C78.9811 28.9563 77.96 27.9275 77.96 26.6708C77.96 25.4142 78.9889 24.3853 80.2456 24.3853C81.5022 24.3853 82.5311 25.4142 82.5311 26.6708C82.5311 27.9275 81.5022 28.9563 80.2456 28.9563Z" fill="#B3ADA5"/>
<path d="M101.406 22.7676C99.2773 22.7676 97.5493 24.4954 97.5493 26.6239C97.5493 28.7524 99.2773 30.4804 101.406 30.4804C103.534 30.4804 105.262 28.7524 105.262 26.6239C105.262 24.4954 103.534 22.7676 101.406 22.7676ZM101.406 28.9096C100.141 28.9096 99.1201 27.8806 99.1201 26.6239C99.1201 25.3672 100.149 24.3384 101.406 24.3384C102.662 24.3384 103.691 25.3672 103.691 26.6239C103.691 27.8806 102.662 28.9096 101.406 28.9096Z" fill="#B3ADA5"/>
<path d="M74.284 21.0708C72.9095 22.5395 72.0613 24.5029 72.0613 26.6628C72.0613 31.179 75.7371 34.8468 80.2454 34.8468C81.6277 34.8468 82.9236 34.5012 84.0625 33.8965C84.3845 35.1767 85.2406 37.7057 87.3769 39.9441C88.2644 40.8709 89.5211 41.4051 90.8249 41.4051C92.1287 41.4051 93.3854 40.8709 94.2729 39.9441C96.4092 37.7057 97.2731 35.1767 97.5873 33.8965C98.7262 34.5012 100.03 34.8468 101.404 34.8468C105.921 34.8468 109.588 31.1711 109.588 26.6628C109.588 24.5108 108.748 22.555 107.389 21.0942C108.968 19.9867 113.327 16.4367 114.898 9.9649C115.181 8.79463 114.788 7.56935 113.861 6.78393C112.919 5.97495 111.615 5.77866 110.476 6.25776C107.24 7.61653 98.8596 10.7739 90.8563 10.7739C82.8529 10.7739 74.4647 7.61653 71.2366 6.25776C70.0899 5.77866 68.794 5.98281 67.8515 6.78393C66.9247 7.56935 66.532 8.79463 66.8147 9.9649C68.3777 16.3817 72.6661 19.9241 74.284 21.0629V21.0708ZM73.6322 26.6707C73.6322 23.0264 76.6011 20.0576 80.2454 20.0576C83.8897 20.0576 86.8585 23.0264 86.8585 26.6707C86.8585 30.315 83.8897 33.2838 80.2454 33.2838C76.6011 33.2838 73.6322 30.315 73.6322 26.6707ZM101.412 33.2838C97.768 33.2838 94.7991 30.315 94.7991 26.6707C94.7991 23.0264 97.768 20.0576 101.412 20.0576C105.057 20.0576 108.026 23.0264 108.026 26.6707C108.026 30.315 105.057 33.2838 101.412 33.2838ZM68.8725 7.98564C69.3752 7.56151 70.027 7.45953 70.6318 7.71086C73.9541 9.1089 82.5701 12.3526 90.8641 12.3526C99.1581 12.3526 107.774 9.1089 111.096 7.71086C111.701 7.45953 112.353 7.56151 112.856 7.98564C113.335 8.39405 113.531 8.99887 113.382 9.60364C111.811 16.0755 107.083 19.437 106.18 20.0261C104.837 19.06 103.195 18.4789 101.412 18.4789C96.8961 18.4789 93.2282 22.1545 93.2282 26.6628C93.2282 29.1919 94.3828 31.4539 96.1893 32.9619C96.0871 33.5352 95.4824 36.4098 93.1418 38.8603C92.5449 39.4887 91.7203 39.8342 90.8328 39.8342C89.9452 39.8342 89.1205 39.4887 88.5236 38.8603C86.1988 36.4256 85.5783 33.5352 85.4762 32.9619C87.2826 31.4617 88.4372 29.1919 88.4372 26.6628C88.4372 22.1467 84.7614 18.4789 80.2532 18.4789C78.486 18.4789 76.8524 19.0443 75.5172 20.0025C74.5354 19.3506 69.9093 15.9891 68.3542 9.59578C68.205 8.99101 68.4013 8.38619 68.8804 7.97778L68.8725 7.98564Z" fill="#B3ADA5"/>
<path d="M122.541 33.434C121.63 31.8396 120.412 30.9207 118.928 30.6929C112.676 29.7268 108.16 36.5755 107.971 36.8662L109.291 37.7223C109.33 37.6595 113.446 31.439 118.692 32.248C119.674 32.3972 120.514 33.0648 121.174 34.2194C123.632 38.4999 123.24 48.3647 120.318 55.7633C116.595 65.204 110.705 72.7674 106.55 76.1133C100.282 69.0132 98.9311 61.5283 101.711 49.7078L100.18 49.3465C97.965 58.7872 98.3499 65.7774 101.656 71.8957C97.643 77.0795 91.9645 77.2444 90.8099 77.2209C89.6946 77.2444 84.0082 77.0795 79.9948 71.8957C83.3013 65.7695 83.6862 58.7872 81.4713 49.3465L79.9398 49.7078C82.7202 61.5361 81.3692 69.0132 75.1016 76.1133C70.9468 72.7674 65.0562 65.2118 61.3333 55.7633C58.4115 48.3647 58.0189 38.4921 60.4772 34.2194C61.1448 33.0648 61.9774 32.3972 62.967 32.248C68.2136 31.439 72.3291 37.6595 72.3684 37.7223L73.6878 36.8662C73.4993 36.5755 68.9833 29.7268 62.7313 30.6929C61.2548 30.9207 60.0374 31.8396 59.1263 33.434C56.4638 38.0679 56.8093 48.5532 59.8803 56.3366C63.8938 66.4999 70.397 74.5897 74.7404 77.8021L75.3058 78.2184L75.7849 77.6999C77.0966 76.2783 78.2198 74.8331 79.1544 73.3408C83.4663 78.5009 89.1449 78.8153 90.8178 78.7838C90.8885 78.7838 90.9592 78.7838 91.0377 78.7838C92.9699 78.7838 98.3656 78.2889 102.513 73.3408C103.455 74.8331 104.57 76.2783 105.882 77.6999L106.361 78.2184L106.927 77.8021C111.27 74.5897 117.773 66.4999 121.787 56.3366C124.858 48.5532 125.203 38.0679 122.541 33.434Z" fill="#B3ADA5"/>
</svg>
