<svg width="182" height="84" viewBox="0 0 182 84" fill="none" xmlns="http://www.w3.org/2000/svg">
<path d="M127.282 73.8874C128.702 72.6735 130.496 69.8411 129.244 67.4286L118.029 45.7691C116.67 43.1428 114.036 42.097 112.074 41.6847C111.051 41.4709 110.012 41.2877 108.982 41.0968C106.798 40.7075 104.729 40.3334 102.981 39.7455C103.744 39.2874 104.653 38.5392 105.76 37.478L105.897 37.3481C109.356 34.3248 109.921 27.9653 109.951 24.4457C110.013 17.5745 108.127 8.85577 104.416 5.49654C99.7974 1.31277 87.4216 0.992106 83.1386 3.95433C82.0545 4.70253 81.5125 5.63398 81.5354 6.65702C77.5425 6.87079 74.8093 9.9705 73.771 15.498C72.1143 24.3236 75.1071 37.5314 79.1229 40.1196C77.6647 40.5089 76.0461 40.7991 74.3588 41.0968C73.3282 41.2801 72.2899 41.4709 71.2592 41.6847C69.2971 42.097 66.6632 43.1428 65.3042 45.7691L54.089 67.4286C52.8369 69.8411 54.631 72.6659 56.0511 73.8874L64.785 81.3541H55.3945V82.881H127.939V81.3541H118.548L127.282 73.8874ZM104.684 36.3938C102.195 38.7911 101.469 38.7759 101.393 38.7606C101.393 38.7606 101.416 38.7606 101.439 38.7835L101.286 39.043C99.2629 37.9894 97.9803 36.3786 97.9803 33.5996H96.9878C98.8659 32.2788 100.431 30.622 101.088 29.3241C102.447 26.6367 102.714 23.5905 102.775 20.5367C105.065 24.5907 105.775 30.3624 104.684 36.3938ZM91.2008 34.3172C88.1546 34.3172 83.4669 30.9427 82.7111 28.7363C80.5429 22.4072 82.1691 16.0705 84.1159 11.5813C86.5513 13.4594 90.445 14.2229 94.247 14.6963C97.0871 15.0475 99.4462 16.2843 101.263 18.3839C101.263 21.9569 101.24 25.6367 99.7287 28.6371C98.6217 30.8282 94.2699 34.3172 91.2008 34.3172ZM84.0013 5.21416C87.5133 2.78635 99.0263 2.687 103.386 6.63409C106.317 9.29094 108.478 16.9485 108.417 24.4381C108.386 28.3775 107.73 31.6756 106.562 33.9508C107.157 27.8278 105.943 22.1324 103.149 18.3074C101.027 15.3987 98.0109 13.6198 94.4303 13.177C89.6128 12.5815 84.635 11.5203 83.4517 8.24508H83.6196L83.1845 7.14574C83.0013 6.68766 82.8943 5.98525 84.009 5.21416H84.0013ZM75.2674 15.7803C75.9163 12.3142 77.5883 8.27555 81.8331 8.1763C82.0393 9.04664 82.421 9.79481 82.9478 10.4438C80.7872 15.2078 78.848 22.1935 81.2682 29.2326C81.7568 30.6603 83.383 32.378 85.3603 33.7064C85.3222 37.2565 83.1463 38.8751 80.0085 39.8676L80.2833 39.005C77.2829 38.043 73.5114 25.1633 75.2674 15.7803ZM66.0066 81.3541L66.4876 80.7968L57.0512 72.727C55.9365 71.7726 54.6616 69.6578 55.4479 68.1309L66.6632 46.4714C67.7473 44.3719 69.9308 43.5246 71.5722 43.1811C72.58 42.9673 73.6107 42.7841 74.6261 42.6008C80.352 41.5778 86.2536 40.5166 86.8338 34.5845C88.292 35.3479 89.8342 35.8365 91.1932 35.8365C92.8728 35.8365 94.7662 35.0501 96.461 33.9508C96.6748 40.4402 102.79 41.5396 108.715 42.6008C109.73 42.7841 110.761 42.9673 111.768 43.1811C113.41 43.5246 115.593 44.3719 116.678 46.4714L127.893 68.1309C128.679 69.6578 127.404 71.7726 126.289 72.727L116.853 80.7968L117.334 81.3541H66.0066Z" fill="#B3ADA5"/>
<path d="M88.5362 19.041H87.0093V20.2168H88.5362V19.041Z" fill="#B3ADA5"/>
<path d="M96.1168 19.041H94.5898V20.2168H96.1168V19.041Z" fill="#B3ADA5"/>
<path d="M112.845 49.9375H70.5038C68.8013 49.9375 67.4194 51.3194 67.4194 53.0219V80.6974H68.9464V53.0219C68.9464 52.1668 69.6487 51.4644 70.5038 51.4644H112.845C113.7 51.4644 114.403 52.1668 114.403 53.0219V80.6974H115.93V53.0219C115.93 51.3194 114.548 49.9375 112.845 49.9375Z" fill="#B3ADA5"/>
<path d="M90.0336 26.874L88.98 27.981C89.6366 28.607 90.5451 28.92 91.4842 28.92C92.4232 28.92 93.3394 28.6223 94.0952 28.0268L93.1485 26.8281C92.2247 27.5534 90.7665 27.5764 90.0336 26.874Z" fill="#B3ADA5"/>
</svg>
