<svg width="64" height="63" viewBox="0 0 64 63" fill="none" xmlns="http://www.w3.org/2000/svg">
<path d="M26.2842 21.0261C25.0722 21.0261 24.0771 22.0137 24.0771 23.2332C24.0771 24.4527 25.0647 25.4404 26.2842 25.4404C27.5037 25.4404 28.4913 24.4527 28.4913 23.2332C28.4913 22.0137 27.5037 21.0261 26.2842 21.0261ZM26.2842 24.4602C25.6109 24.4602 25.0571 23.9066 25.0571 23.2332C25.0571 22.5598 25.6109 22.0062 26.2842 22.0062C26.9576 22.0062 27.5111 22.5598 27.5111 23.2332C27.5111 23.9066 26.9576 24.4602 26.2842 24.4602Z" fill="#F3F0EC"/>
<path d="M38.0981 21.0037C36.8861 21.0037 35.8909 21.9912 35.8909 23.2107C35.8909 24.4303 36.8786 25.4179 38.0981 25.4179C39.3177 25.4179 40.3052 24.4303 40.3052 23.2107C40.3052 21.9912 39.3177 21.0037 38.0981 21.0037ZM38.0981 24.4378C37.4248 24.4378 36.871 23.8841 36.871 23.2107C36.871 22.5374 37.4248 21.9838 38.0981 21.9838C38.7715 21.9838 39.3251 22.5374 39.3251 23.2107C39.3251 23.8841 38.7715 24.4378 38.0981 24.4378Z" fill="#F3F0EC"/>
<path d="M22.8801 20.1134C22.1244 20.9364 21.6604 22.0287 21.6604 23.2257C21.6604 25.777 23.733 27.8495 26.2843 27.8495C27.0399 27.8495 27.7506 27.6624 28.3865 27.3407C28.581 28.0814 29.0675 29.4581 30.2347 30.6776C30.7359 31.2013 31.4541 31.5081 32.1948 31.5081C32.9355 31.5081 33.6538 31.2088 34.1551 30.6776C35.3222 29.4581 35.816 28.0739 36.0031 27.3407C36.6315 27.6624 37.3498 27.8495 38.1055 27.8495C40.6567 27.8495 42.7291 25.777 42.7291 23.2257C42.7291 22.0287 42.2727 20.9438 41.5245 20.1283C42.4522 19.4699 44.824 17.4798 45.6919 13.9185C45.8565 13.2451 45.6245 12.5418 45.0933 12.0929C44.5471 11.629 43.8065 11.5168 43.1482 11.7936C41.3451 12.5493 36.6689 14.3151 32.2098 14.3151C27.7506 14.3151 23.0747 12.5493 21.2716 11.7936C20.6132 11.5168 19.8724 11.6365 19.3262 12.0929C18.795 12.5418 18.5705 13.2451 18.7277 13.9185C19.5881 17.4499 21.9299 19.44 22.8726 20.1134H22.8801ZM22.6406 23.2332C22.6406 21.2206 24.2717 19.5896 26.2843 19.5896C28.2969 19.5896 29.9278 21.2281 29.9278 23.2332C29.9278 25.2383 28.2894 26.8768 26.2843 26.8768C24.2792 26.8768 22.6406 25.2458 22.6406 23.2332ZM38.1055 26.8768C36.0929 26.8768 34.4618 25.2458 34.4618 23.2332C34.4618 21.2206 36.0929 19.5896 38.1055 19.5896C40.1181 19.5896 41.749 21.2281 41.749 23.2332C41.749 25.2383 40.1181 26.8768 38.1055 26.8768ZM19.9623 12.8411C20.2241 12.6166 20.5757 12.5643 20.89 12.699C22.7455 13.4771 27.5636 15.2951 32.2098 15.2951C36.8559 15.2951 41.6668 13.4771 43.5297 12.699C43.8514 12.5643 44.1956 12.6166 44.4575 12.8411C44.7118 13.058 44.8165 13.3723 44.7342 13.694C43.8738 17.2254 41.33 19.0883 40.7613 19.4699C40.0057 18.9387 39.0931 18.6171 38.098 18.6171C35.5467 18.6171 33.4741 20.6894 33.4741 23.2407C33.4741 24.6548 34.1175 25.9266 35.1276 26.7721C35.0528 27.1536 34.6936 28.7024 33.4442 30.0117C33.1225 30.3484 32.6736 30.5429 32.1873 30.5429C31.701 30.5429 31.2596 30.3559 30.9304 30.0117C29.681 28.7024 29.3144 27.1462 29.247 26.7721C30.2571 25.9266 30.9005 24.6548 30.9005 23.2332C30.9005 20.682 28.8281 18.6096 26.2768 18.6096C25.2892 18.6096 24.3764 18.9238 23.6282 19.4475C23.0222 19.036 20.5233 17.1655 19.6779 13.6865C19.603 13.3648 19.7079 13.0506 19.9548 12.8336L19.9623 12.8411Z" fill="#F3F0EC"/>
<path d="M47.8918 25.4329C44.3679 24.8867 41.8316 28.7398 41.7194 28.9044C41.5697 29.1288 41.637 29.4355 41.8615 29.5777C42.0859 29.7273 42.3928 29.66 42.5349 29.4356C42.5574 29.3982 44.8393 25.949 47.7347 26.3979C48.2659 26.4802 48.7224 26.8394 49.089 27.4754C50.4506 29.8546 50.2336 35.3462 48.61 39.4611C46.5451 44.6983 43.2831 48.8956 40.9712 50.7735C37.5146 46.8306 36.7664 42.6707 38.3151 36.1092C38.375 35.8474 38.2104 35.5856 37.9485 35.5182C37.6867 35.4584 37.4248 35.623 37.365 35.8848C36.123 41.152 36.34 45.0649 38.173 48.484C35.9435 51.3346 32.8086 51.4244 32.1727 51.4094C31.5517 51.4244 28.4243 51.3271 26.1948 48.484C28.0353 45.0574 28.2448 41.152 27.0029 35.8848C26.943 35.623 26.6811 35.4584 26.4193 35.5182C26.1574 35.5781 25.9928 35.8399 26.0527 36.1092C27.5939 42.6782 26.8532 46.8306 23.3966 50.7735C21.0847 48.8956 17.8227 44.6983 15.7578 39.4611C14.1342 35.3387 13.9099 29.8471 15.279 27.4754C15.6456 26.8394 16.0944 26.4802 16.6331 26.3979C19.5285 25.949 21.8106 29.3982 21.833 29.4356C21.9827 29.66 22.2819 29.7273 22.5063 29.5777C22.7308 29.428 22.7981 29.1288 22.6484 28.9044C22.5437 28.7398 20.0074 24.8942 16.476 25.4329C15.6455 25.56 14.9348 26.0987 14.426 26.989C12.9072 29.6301 13.0943 35.391 14.845 39.8202C17.0895 45.5063 20.7256 50.0327 23.1571 51.8284C23.2469 51.8957 23.3443 51.9256 23.449 51.9256C23.5837 51.9256 23.7109 51.8733 23.8081 51.7685C24.5264 50.9904 25.1399 50.1974 25.6561 49.3819C27.9754 52.1202 30.9831 52.3895 32.038 52.3895C32.0829 52.3895 32.1203 52.3895 32.1577 52.3895C33.1079 52.4119 36.2651 52.2325 38.6817 49.3819C39.198 50.1974 39.8116 50.9904 40.5299 51.7685C40.6272 51.8733 40.7543 51.9256 40.889 51.9256C40.9937 51.9256 41.0909 51.8957 41.1807 51.8284C43.6123 50.0327 47.256 45.5063 49.493 39.8202C51.2437 35.3836 51.4306 29.6301 49.9118 26.989C49.4031 26.0987 48.6923 25.56 47.8619 25.4329H47.8918Z" fill="#F3F0EC"/>
<path d="M55.6278 9.54905C50.9742 4.46895 43.3129 2 32.21 2C21.1071 2 13.4457 4.46895 8.79208 9.54905C4.49756 14.2326 2.5 21.273 2.5 31.71C2.5 42.1471 4.49756 49.1874 8.79208 53.8709C13.4457 58.951 21.1071 61.42 32.21 61.42C43.3129 61.42 50.9742 58.951 55.6278 53.8709C59.9224 49.1874 61.9199 42.1471 61.9199 31.71C61.9199 21.273 59.9224 14.2326 55.6278 9.54905ZM32.21 60.4398C11.5379 60.4398 3.48015 52.3821 3.48015 31.71C3.48015 11.038 11.5379 2.98015 32.21 2.98015C52.882 2.98015 60.9398 11.038 60.9398 31.71C60.9398 52.3821 52.882 60.4398 32.21 60.4398Z" fill="#F3F0EC"/>
</svg>
