<svg width="190" height="73" viewBox="0 0 190 73" fill="none" xmlns="http://www.w3.org/2000/svg">
<path d="M9.76629 21.3226H22.2288C24.6044 21.3226 26.3803 21.9089 27.6992 22.888C29.153 24.06 29.9399 25.7586 29.9399 27.8504C29.9399 30.2685 28.9507 31.7667 26.9723 32.6791V32.8127C29.6102 33.6583 31.124 36.0098 31.124 38.8211C31.124 41.6324 30.0674 43.583 28.3513 44.8885C26.8975 45.9344 25.054 46.3869 22.551 46.3869H9.75879V21.3226H9.76629ZM20.9772 31.1141C22.2961 31.1141 23.2854 30.3944 23.2854 28.896C23.2854 27.3977 22.2962 26.745 20.9099 26.745H16.6234V31.0547H20.9772V31.1213V31.1141ZM21.5692 40.8385C23.083 40.8385 24.2071 39.926 24.2071 38.2941C24.2071 36.5287 23.0231 35.7501 21.5692 35.7501H16.6907V40.9051H21.5692V40.8385ZM32.2481 21.3226H38.7753V46.4535H32.2481V21.3226ZM40.0942 37.5082C40.0942 31.8262 43.7888 28.0431 49.5217 28.0431C55.2545 28.0431 58.8816 31.893 58.8816 37.5082C58.8816 43.1233 55.2545 46.9729 49.5217 46.9729C43.7888 46.9729 40.0942 43.1901 40.0942 37.5082ZM52.3619 37.5082C52.3619 34.3779 51.3727 32.4194 49.3943 32.4194C47.4159 32.4194 46.4941 34.3779 46.4941 37.5082C46.4941 40.6384 47.4159 42.6632 49.3943 42.6632C51.3727 42.5964 52.3619 40.6384 52.3619 37.5082ZM59.616 37.5082C59.616 31.8262 63.3105 28.0431 69.0434 28.0431C74.7763 28.0431 78.3433 31.8262 78.3433 37.5082C78.3433 43.1901 74.7162 46.9729 68.9834 46.9729C63.2505 46.9729 59.6235 43.1901 59.6235 37.5082H59.616ZM71.8836 37.5082C71.8836 34.3779 70.8943 32.4194 68.9159 32.4194C66.9375 32.4194 66.0158 34.3779 66.0158 37.5082C66.0158 40.6384 66.9375 42.6632 68.9159 42.6632C70.8943 42.5964 71.8836 40.6384 71.8836 37.5082ZM79.6622 28.503H85.7324V31.1807H85.8672C87.0513 29.0889 88.7 27.9837 91.3378 27.9837C93.646 27.9837 95.3621 29.0964 96.2164 31.0547H96.3512C97.8051 28.7033 99.716 27.9837 101.957 27.9837C106.176 27.9837 107.959 31.0547 107.959 35.1641V46.3869H101.627V36.2691C101.627 34.4444 101.035 33.2651 99.4537 33.2651C97.8724 33.2651 97.0781 34.7042 97.0781 36.6624V46.3869H90.7458V36.2691C90.7458 34.4444 90.1538 33.2651 88.5726 33.2651C86.9914 33.2651 86.1969 34.7042 86.1969 36.6624V46.3869H79.6697V28.503H79.6622ZM115.925 44.0355H115.858V46.3869H109.788V21.3226H116.12V30.3277H116.255C117.439 28.7626 119.088 27.9094 121.396 27.9094C125.945 27.9094 128.583 31.9596 128.583 37.3745C128.583 43.4421 125.75 46.9656 120.999 46.9656C119.02 46.9656 116.975 46.0533 115.918 44.0283L115.925 44.0355ZM122.063 37.3151C122.063 34.4445 121.006 32.553 119.095 32.553C117.184 32.553 115.933 34.4445 115.933 37.3151C115.933 40.1857 117.184 42.0772 119.095 42.0772C121.006 42.0772 122.063 40.2525 122.063 37.3151ZM129.31 37.4488C129.31 31.8336 133.072 27.9837 138.475 27.9837C141.18 27.9837 143.226 28.8292 144.807 30.335C146.92 32.36 147.842 35.4905 147.775 39.1474H135.642C135.904 41.3653 136.961 42.5448 138.872 42.5448C139.996 42.5448 140.985 42.0255 141.375 40.8461H147.505C146.448 44.9555 143.218 46.9805 138.669 46.9805C133.064 46.9137 129.31 43.1307 129.31 37.4488ZM135.642 35.5498H141.442C141.307 33.3987 140.123 32.2861 138.609 32.2861C136.826 32.2193 135.837 33.458 135.642 35.5498ZM154.961 31.574H155.096C156.415 29.0966 158.131 28.1173 160.305 28.1173C160.829 28.1173 161.159 28.1839 161.361 28.31V33.7917H161.226C157.464 33.139 155.291 34.9045 155.291 38.9471V46.4535H148.899V28.503H154.969V31.574H154.961ZM162.021 46.4535H168.151C168.413 47.2398 169.207 47.9519 170.721 47.9519C172.767 47.9519 173.494 46.7133 173.494 44.8218V43.5162H173.359C172.37 44.6881 170.983 45.5412 169.005 45.5412C165.116 45.5412 161.683 42.6706 161.683 37.0554C161.683 31.9002 164.456 27.917 168.675 27.917C171.118 27.917 172.565 28.896 173.554 30.3944H173.689V28.4364H179.759V43.9689C179.759 46.8395 178.77 49.0571 177.256 50.3626C175.675 51.7349 173.434 52.321 170.863 52.321C165.985 52.3877 162.62 50.4295 162.028 46.4463L162.021 46.4535ZM173.756 36.7961C173.756 34.5782 172.699 32.7457 170.856 32.7457C169.012 32.7457 167.956 34.3112 167.956 36.7961C167.956 39.281 169.08 40.9051 170.856 40.9051C172.632 40.9051 173.756 39.1401 173.756 36.7961Z" fill="#645D75"/>
</svg>
