<svg width="24" height="24" viewBox="0 0 24 24" fill="none" xmlns="http://www.w3.org/2000/svg">
<g clip-path="url(#clip0_245_111)">
<path d="M23.5 12C23.5 18.3513 18.3513 23.5 12 23.5C5.64872 23.5 0.5 18.3513 0.5 12C0.5 5.64872 5.64872 0.5 12 0.5C18.3513 0.5 23.5 5.64872 23.5 12Z" stroke="#CC7510" stroke-miterlimit="10"/>
<path d="M19.0293 18.183L13.8577 11.3188L18.1542 6.27612H16.0166L12.8534 9.99173L10.0561 6.27612H6.03215L10.716 12.4948L5.86719 18.183H8.00465L11.7201 13.8219L14.9981 18.183H19.0221H19.0293ZM9.48946 7.43819L16.5617 16.8346H15.4716L8.39919 7.43819H9.48946Z" fill="#F3F0EC"/>
</g>
<defs>
<clipPath id="clip0_245_111">
<rect width="24" height="24" fill="white"/>
</clipPath>
</defs>
</svg>
