<svg width="63" height="63" viewBox="0 0 63 63" fill="none" xmlns="http://www.w3.org/2000/svg">
<path d="M55.1278 9.54905C50.4742 4.46895 42.8129 2 31.71 2C20.6071 2 12.9457 4.46895 8.29208 9.54905C3.99756 14.2326 2 21.273 2 31.71C2 42.1471 3.99756 49.1874 8.29208 53.8709C12.9457 58.951 20.6071 61.42 31.71 61.42C42.8129 61.42 50.4742 58.951 55.1278 53.8709C59.4224 49.1874 61.4199 42.1471 61.4199 31.71C61.4199 21.273 59.4224 14.2326 55.1278 9.54905ZM31.71 60.4398C11.0379 60.4398 2.98015 52.3821 2.98015 31.71C2.98015 11.038 11.0379 2.98015 31.71 2.98015C52.382 2.98015 60.4399 11.038 60.4399 31.71C60.4399 52.3821 52.382 60.4398 31.71 60.4398Z" fill="#F3F0EC"/>
<path d="M55.0006 33.5804C54.5592 30.0939 52.4642 27.5725 49.262 26.6672C45.9177 25.717 41.9897 26.7196 38.9521 29.1287C39.4833 27.7671 39.8576 26.1361 39.8576 24.0337C39.8576 15.9534 32.8022 9.16751 32.503 8.88321C32.3159 8.70364 32.0166 8.70364 31.8295 8.88321C31.5302 9.16751 24.4751 15.9534 24.4751 24.0337C24.4751 26.1361 24.8566 27.7745 25.3803 29.1287C22.3353 26.7271 18.4148 25.7245 15.0705 26.6672C11.8683 27.5725 9.78095 30.0939 9.33205 33.5804C9.05522 35.7427 9.52648 37.5457 10.731 38.9523C13.1327 41.7504 17.5545 41.9075 17.7415 41.915H17.7565C17.9585 41.915 18.1454 41.7879 18.2128 41.5933C18.2876 41.3988 18.2203 41.1744 18.0632 41.0472C17.2177 40.3664 16.7764 38.9223 16.9859 37.5232C17.128 36.5805 17.704 34.8598 19.9111 34.0069C21.6694 33.3185 23.45 33.3784 24.7893 34.1714C25.8292 34.7849 26.5475 35.8024 26.8467 37.0669H25.9415C24.9913 37.0669 24.2131 37.845 24.2131 38.7952C24.2131 39.7454 24.9913 40.5234 25.9415 40.5234H26.368C25.2457 42.4462 22.7767 44.3391 20.1806 45.192C18.0483 45.8953 16.118 45.8206 14.7413 44.9901C14.5169 44.8554 14.2175 44.9227 14.0754 45.1472C13.9332 45.3716 13.9932 45.6634 14.2102 45.8131C16.6941 47.5039 18.9011 48.0426 20.6893 48.0426C21.7367 48.0426 22.6421 47.863 23.3828 47.6161C25.3205 46.9876 26.8242 45.7682 27.9241 44.4065C27.7071 46.6286 28.3506 49.4491 31.7473 54.4544C31.8371 54.5891 31.9868 54.6714 32.1514 54.6714C32.316 54.6714 32.4656 54.5891 32.5554 54.4544C35.9446 49.4566 36.588 46.6286 36.3785 44.414C37.4708 45.7757 38.9822 46.9876 40.9199 47.6236C41.6606 47.863 42.5658 48.0501 43.6132 48.0501C45.4089 48.0501 47.6086 47.5114 50.0925 45.8205C50.3095 45.6709 50.3693 45.3791 50.2272 45.1547C50.085 44.9302 49.7933 44.8628 49.5614 44.9975C48.1847 45.828 46.2544 45.9028 44.1221 45.1995C41.526 44.3391 39.057 42.4537 37.9347 40.5309H38.4509C39.4011 40.5309 40.1792 39.7529 40.1792 38.8027C40.1792 37.8525 39.4011 37.0743 38.4509 37.0743H37.4633C37.7625 35.8099 38.4808 34.7924 39.5208 34.1789C40.86 33.3859 42.6407 33.326 44.3989 34.0143C46.606 34.8747 47.1747 36.588 47.3243 37.5307C47.5413 38.9223 47.0998 40.3738 46.2468 41.0547C46.0822 41.1894 46.0224 41.4063 46.0972 41.6008C46.1646 41.7954 46.3517 41.9225 46.5537 41.9225H46.5687C46.7557 41.9225 51.1848 41.7579 53.579 38.9598C54.7835 37.5607 55.2475 35.7501 54.9781 33.5878L55.0006 33.5804ZM32.1663 9.93058C33.5729 11.3895 38.8774 17.3525 38.8774 24.0337C38.8774 27.4529 37.7925 29.5702 36.7675 31.2835C36.0044 32.2337 35.3984 33.2961 34.9795 34.3959C34.9795 34.4034 34.972 34.4183 34.9645 34.4258C34.553 35.3236 34.3136 36.1765 34.2088 37.0669H30.1089C30.0041 36.1616 29.7572 35.3011 29.3532 34.4258C29.3532 34.4183 29.3457 34.4034 29.3382 34.3959C28.9043 33.2737 28.3056 32.2262 27.5575 31.2835C26.5325 29.5702 25.4477 27.4604 25.4477 24.0337C25.4477 17.36 30.7523 11.397 32.1588 9.93058H32.1663ZM25.2905 33.326C23.6894 32.3833 21.602 32.301 19.5595 33.0941C17.6143 33.8498 16.3274 35.4134 16.0282 37.3736C15.8411 38.6081 16.0656 39.8575 16.6193 40.8077C15.2277 40.5833 12.8933 39.9698 11.4792 38.3089C10.4692 37.1267 10.0728 35.578 10.3122 33.7001C10.7087 30.5727 12.4968 28.4105 15.3399 27.6024C19.178 26.5176 23.8691 28.2534 26.757 31.8296C26.9067 32.0765 27.0562 32.3234 27.2058 32.5703C27.6697 33.326 28.1038 34.0368 28.4404 34.7625C28.7173 35.4882 28.9116 36.2588 29.0388 37.0594H27.8419C27.5127 35.4283 26.6222 34.1116 25.283 33.326H25.2905ZM23.0984 46.6884C21.4898 47.2121 19.769 47.1897 18.0182 46.6211C18.8113 46.5687 19.6418 46.3966 20.5022 46.1123C23.5697 45.1023 26.3829 42.8278 27.4902 40.5159H28.8967C28.8593 40.673 28.8145 40.8302 28.7696 40.9948C28.0513 42.9999 26.1435 45.6933 23.1059 46.6884H23.0984ZM32.1663 53.3023C27.9915 46.9428 28.7247 44.5337 29.4953 41.9899C29.5626 41.758 29.63 41.5335 29.6898 41.3315C29.6898 41.324 29.6898 41.3165 29.6973 41.3015C29.7871 41.0397 29.862 40.7853 29.9293 40.5234H34.4109C34.4782 40.7853 34.5529 41.0546 34.6426 41.3015C34.71 41.5335 34.7773 41.7654 34.8447 41.9899C35.6153 44.5337 36.3411 46.9503 32.1738 53.3023H32.1663ZM43.8377 46.1197C44.6981 46.404 45.5287 46.5687 46.3217 46.6285C44.5635 47.1897 42.8502 47.2196 41.2416 46.6959C38.204 45.7008 36.2886 43.0074 35.5854 41.0322C35.533 40.8527 35.4881 40.6805 35.4507 40.5234H36.8574C37.9647 42.8353 40.7777 45.1097 43.8452 46.1197H43.8377ZM39.2216 38.7952C39.2216 39.2067 38.8849 39.5434 38.4734 39.5434H25.9565C25.545 39.5434 25.2083 39.2067 25.2083 38.7952C25.2083 38.3837 25.545 38.047 25.9565 38.047H38.4734C38.8849 38.047 39.2216 38.3837 39.2216 38.7952ZM52.8608 38.3089C51.4467 39.9623 49.1125 40.5833 47.7209 40.8077C48.2671 39.8575 48.4988 38.6081 48.3118 37.3736C48.0125 35.4059 46.7182 33.8498 44.7804 33.0941C42.7379 32.301 40.6506 32.3833 39.0495 33.326C37.7103 34.1116 36.82 35.4358 36.4908 37.0594H35.2936C35.4134 36.2663 35.6079 35.5032 35.8772 34.7999C36.2289 34.0442 36.6628 33.3335 37.1266 32.5778C37.2763 32.3384 37.426 32.0915 37.5756 31.8371C40.471 28.2609 45.1621 26.5251 48.9928 27.6099C51.8433 28.418 53.6314 30.5802 54.0205 33.7076C54.2599 35.578 53.8633 37.1342 52.8533 38.3163L52.8608 38.3089Z" fill="#F3F0EC"/>
</svg>
