<svg width="24" height="24" viewBox="0 0 24 24" fill="none" xmlns="http://www.w3.org/2000/svg">
<g clip-path="url(#clip0_245_123)">
<path fill-rule="evenodd" clip-rule="evenodd" d="M12.0002 0.96C5.90293 0.96 0.96 5.90278 0.96 12C0.96 18.0972 5.90293 23.04 12.0002 23.04C18.0974 23.04 23.0402 18.0972 23.0402 12C23.0402 5.90277 18.0974 0.96 12.0002 0.96ZM0 12C0 5.37257 5.37275 0 12.0002 0C18.6276 0 24.0002 5.37258 24.0002 12C24.0002 18.6274 18.6276 24 12.0002 24C5.37275 24 0 18.6274 0 12Z" fill="#CC7510"/>
<path fill-rule="evenodd" clip-rule="evenodd" d="M18.5075 8.72917C18.3491 8.14387 17.8947 7.68269 17.3094 7.53121C16.249 7.24889 12.0073 7.24878 12.0073 7.24878C12.0073 7.24878 7.76549 7.24889 6.70507 7.53121C6.11978 7.68958 5.65843 8.14387 5.50694 8.72917C5.22463 9.78959 5.22469 11.9999 5.22469 11.9999C5.22469 11.9999 5.22463 14.2103 5.50694 15.2707C5.66532 15.856 6.11978 16.3175 6.70507 16.469C7.76549 16.7513 12.0073 16.7511 12.0073 16.7511C12.0073 16.7511 16.2558 16.7513 17.3094 16.469C17.8947 16.3106 18.356 15.856 18.5075 15.2707C18.7898 14.2103 18.7898 11.9999 18.7898 11.9999C18.7898 11.9999 18.7898 9.78959 18.5075 8.72917ZM10.6438 14.0381L14.1694 11.9999L10.6438 9.96176V14.0381Z" fill="#F3F0EC"/>
</g>
<defs>
<clipPath id="clip0_245_123">
<rect width="24" height="24" fill="white"/>
</clipPath>
</defs>
</svg>
