<svg width="61" height="62" viewBox="0 0 61 62" fill="none" xmlns="http://www.w3.org/2000/svg">
<path d="M53.7534 8.99601C49.1296 3.95652 41.5274 1.5 30.5002 1.5C19.4731 1.5 11.8709 3.94908 7.24711 8.99601C2.98812 13.6484 1 20.6382 1 31.0001C1 41.3619 2.98812 48.3518 7.24711 53.0042C11.8709 58.0437 19.4731 60.5 30.5002 60.5C41.5274 60.5 49.1296 58.0511 53.7534 53.0042C58.0124 48.3518 60.0005 41.3619 60.0005 31.0001C60.0005 20.6382 58.0124 13.6484 53.7534 8.99601ZM30.5002 59.5175C9.97225 59.5175 1.96817 51.5228 1.96817 30.9926C1.96817 10.4625 9.9648 2.46774 30.5002 2.46774C51.0357 2.46774 59.0323 10.4625 59.0323 30.9926C59.0323 51.5228 51.0357 59.5175 30.5002 59.5175Z" fill="white"/>
<path d="M31.0514 12.9258C29.4059 12.9258 28.0654 14.2657 28.0654 15.9182C28.0654 17.5708 29.4059 18.9107 31.0514 18.9107C32.6969 18.9107 34.0442 17.5708 34.0442 15.9182C34.0442 14.2657 32.7043 12.9258 31.0514 12.9258ZM31.0514 17.9355C29.9345 17.9355 29.0332 17.0274 29.0332 15.9182C29.0332 14.8091 29.942 13.901 31.0514 13.901C32.1608 13.901 33.0692 14.8091 33.0692 15.9182C33.0692 17.0274 32.1608 17.9355 31.0514 17.9355Z" fill="white"/>
<path d="M51.0955 43.5723V42.2696C51.0955 41.4806 50.4476 40.833 49.6583 40.833H48.251V25.2158C49.2413 25.0446 49.9935 24.1886 49.9935 23.1613V22.8858H50.3956C50.6637 22.8858 50.8795 22.67 50.8795 22.402V19.3353C50.8795 19.1566 50.7752 18.9853 50.6189 18.9035L31.2002 8.90641C31.0588 8.83198 30.8949 8.83198 30.7534 8.90641L11.3348 18.9035C11.171 18.9853 11.0745 19.1566 11.0745 19.3353V22.402C11.0745 22.67 11.2903 22.8858 11.5584 22.8858H11.9605V23.1613C11.9605 24.196 12.7124 25.0521 13.7027 25.2158V40.833H12.4516C11.6624 40.833 11.0148 41.4806 11.0148 42.2696V43.5723C9.71927 43.6095 8.67676 44.6665 8.67676 45.9692V47.458C8.67676 47.726 8.89261 47.9419 9.16066 47.9419H52.942C53.2101 47.9419 53.4259 47.726 53.4259 47.458V45.9692C53.4259 44.6665 52.3834 43.6095 51.0879 43.5723H51.0955ZM42.4881 40.8405V25.2605H47.2755V40.8405H42.4881ZM20.4337 25.2233C21.424 25.0521 22.1759 24.196 22.1759 23.1688V22.8933H25.8689V23.1688C25.8689 24.2035 26.6212 25.0595 27.6115 25.2233V40.8405H20.4337V25.2233ZM33.9851 24.2854H27.9612C27.3432 24.2854 26.8371 23.7792 26.8371 23.1613V22.8858H35.1093V23.1613C35.1093 23.7792 34.6031 24.2854 33.9851 24.2854ZM28.5793 25.2531H33.3671V40.833H28.5793V25.2531ZM34.3425 25.2233C35.3328 25.0521 36.0847 24.196 36.0847 23.1688V22.8933H39.7778V23.1688C39.7778 24.2035 40.5297 25.0595 41.52 25.2233V40.8405H34.3425V25.2233ZM49.0181 23.1613C49.0181 23.7792 48.5116 24.2854 47.8936 24.2854H41.8701C41.2521 24.2854 40.7456 23.7792 40.7456 23.1613V22.8858H49.0181V23.1613ZM12.0423 19.6329L30.977 9.88142L49.9114 19.6329V21.9183H12.0423V19.6329ZM12.9283 23.1613V22.8858H21.2004V23.1613C21.2004 23.7792 20.6943 24.2854 20.0763 24.2854H14.0528C13.4348 24.2854 12.9283 23.7792 12.9283 23.1613ZM14.6708 25.2531H19.4582V40.833H14.6708V25.2531ZM12.4516 41.8082H49.6583C49.9189 41.8082 50.1273 42.0166 50.1273 42.2771V43.5723H11.9903V42.2771C11.9903 42.0166 12.1987 41.8082 12.4593 41.8082H12.4516ZM52.4581 46.9817H9.64493V45.9767C9.64493 45.1876 10.2852 44.5475 11.0745 44.5475H11.3275C11.3796 44.5698 11.4319 44.5773 11.4915 44.5773C11.551 44.5773 11.6029 44.5624 11.6551 44.5475H50.4327C50.4848 44.5698 50.5371 44.5773 50.5967 44.5773C50.6563 44.5773 50.7082 44.5624 50.7603 44.5475H51.0133C51.8026 44.5475 52.4432 45.1876 52.4432 45.9767V46.9817H52.4581Z" fill="white"/>
</svg>
