<svg width="195" height="73" viewBox="0 0 195 73" fill="none" xmlns="http://www.w3.org/2000/svg">
<path d="M72.6418 13H90.1855L90.0759 13.1411L50.1951 60.5327L32.9646 60.564L72.6418 13ZM114.167 51.1265V41.8065L124.568 41.8222L134.969 41.8378L135.384 41.9786C136.285 42.2762 136.99 42.8639 137.389 43.6314C137.82 44.4538 137.789 43.8896 137.789 52.5989V60.4466H133.082V53.8131C133.082 46.6781 133.089 46.9443 132.784 46.5057C132.714 46.4117 132.533 46.255 132.385 46.1688L132.103 46.0044L130.152 45.9887L128.202 45.973V60.4466H123.621L123.605 53.7033L123.589 46.952L123.409 46.6621C123.292 46.4742 123.127 46.31 122.939 46.1925L122.649 46.0124L120.754 45.9967L118.859 45.981V60.4546H114.152V51.1342L114.167 51.1265ZM73.3466 59.9766C71.9603 59.6163 70.9109 58.5981 70.488 57.204C70.3862 56.8673 70.3783 56.4992 70.3783 50.9541V45.0567L70.5428 44.5791C70.7777 43.9133 71.0676 43.4588 71.5766 42.9576C71.8977 42.6443 72.1483 42.4643 72.5008 42.2841C73.4876 41.8064 72.7436 41.8378 81.6643 41.8222L89.6294 41.8065V45.9183H82.6824C75.7511 45.9183 75.7354 45.9181 75.477 46.0434C75.2968 46.1295 75.1715 46.255 75.054 46.443L74.8896 46.7172V51.0638C74.8896 55.3558 74.8895 55.4107 75.0148 55.6457C75.0853 55.7788 75.2499 55.9666 75.3908 56.0606L75.6414 56.2407L82.6355 56.2564L89.6294 56.2721V60.0787H81.6956C74.1455 60.0787 73.7383 60.0627 73.3388 59.9609L73.3466 59.9766ZM94.36 59.9766C93.804 59.8278 93.1931 59.5147 92.7858 59.1701C92.261 58.7236 92.0026 58.379 91.7128 57.7524C91.3604 56.9927 91.3603 57.0788 91.3603 50.9854C91.3603 44.8921 91.3447 44.9707 91.8146 44.023C92.1749 43.279 92.7702 42.6756 93.5064 42.3075C94.501 41.814 93.7178 41.8455 103.296 41.8455H111.81L111.825 43.8819L111.841 45.9183L104.228 45.934L96.6157 45.9497L96.4042 46.0984C96.2632 46.2002 96.1458 46.3332 96.0518 46.482L95.9108 46.7172V51.0638C95.9108 55.3558 95.9108 55.4107 96.0361 55.6457C96.1066 55.7788 96.271 55.9666 96.412 56.0606L96.6626 56.2407L104.252 56.2564L111.841 56.2721V60.0787H103.312C95.1823 60.0787 94.7673 60.0627 94.36 59.9609V59.9766ZM143.161 60.0003C142.59 59.875 141.877 59.4989 141.415 59.076C140.828 58.5513 140.412 57.8699 140.201 57.118C140.099 56.7577 140.091 56.3817 140.091 50.9854C140.091 44.571 140.068 44.9707 140.514 44.023C140.812 43.3965 141.626 42.5898 142.261 42.2765C143.216 41.8144 142.417 41.8533 151.98 41.8298L160.541 41.8065V45.9183H153.006C145.73 45.9183 145.464 45.918 145.253 46.0277C144.979 46.1687 144.853 46.3022 144.736 46.5841C144.657 46.7721 144.642 47.3671 144.642 51.0952C144.642 54.5648 144.657 55.4265 144.72 55.5753C144.83 55.8259 145.174 56.131 145.456 56.2093C145.605 56.2485 148.111 56.2721 153.108 56.2721H160.533V60.0864H152.035C145.002 60.0785 143.467 60.0628 143.154 59.9923L143.161 60.0003ZM162.624 57.8465V55.6613L162.773 55.3481C163.055 54.7451 163.282 54.5725 166.25 52.7163C167.793 51.7529 169.054 50.9464 169.054 50.9307C169.054 50.8994 165.342 48.5107 164.026 47.6962C163.243 47.2106 163.031 47.0147 162.836 46.6231L162.687 46.3256V41.8222H167.269V43.2085V44.5947L170.495 46.6151C172.265 47.7272 173.761 48.6358 173.808 48.6358C173.855 48.6358 175.367 47.7119 177.16 46.5841L180.419 44.532V43.1771V41.8222H185V43.9603C185 46.0045 185 46.1141 184.875 46.443C184.656 47.0382 184.319 47.2967 181.311 49.1685C179.823 50.0927 178.602 50.8761 178.609 50.9074C178.609 50.9544 183.035 53.8206 183.873 54.3141C184.342 54.596 184.664 54.9173 184.82 55.2697C184.938 55.5204 184.938 55.6535 184.946 57.7838V60.0317H183.771C183.121 60.0317 182.095 60.0158 181.476 59.9923L180.356 59.9533V57.2511L177.121 55.2227C175.343 54.1027 173.847 53.1943 173.808 53.1943C173.769 53.1943 172.265 54.1261 170.464 55.2617L167.198 57.3295V60.0393H162.609V57.8542L162.624 57.8465ZM100.234 51.1032V49.2546H111.841V52.9434H100.234V51.0952V51.1032ZM148.934 51.1032V49.2546H160.541V52.9434H148.934V51.0952V51.1032Z" fill="#645D75"/>
<path d="M10.0008 60.525L49.5996 13.0627H67.1669L67.018 13.2272L27.1216 60.6348H18.522C10.3375 60.6348 9.92237 60.6345 10.0085 60.5327L10.0008 60.525Z" fill="#645D75"/>
</svg>
