<svg width="88" height="88" viewBox="0 0 88 88" fill="none" xmlns="http://www.w3.org/2000/svg">
<path d="M44.1378 46.0234H47.8852L46.0076 41.5503L44.1378 46.0234Z" fill="#F3F0EC"/>
<path d="M57.7548 36.3673H63.2694L66.1252 40.1462L82.44 18.5453C76.744 6.93247 65.0838 1 44.0039 1C10.8536 1 1 15.6658 1 44.0038C1 68.3734 8.28175 82.6291 31.4049 86.1477L63.3798 43.7988L57.7706 36.3673H57.7548ZM32.9749 51.6406H28.3597V43.7672L23.6578 50.181L18.9558 43.7672V51.6406H14.3406V36.3118H18.3799L23.6578 43.5226L28.9356 36.3118H32.9749V51.6406ZM50.2601 51.6957L49.3923 49.629H42.6154L41.7477 51.6957H36.7696L43.8699 36.3673H48.13L55.2302 51.6957H50.2522H50.2601Z" fill="#F3F0EC"/>
<path d="M83.466 20.8728L71.7664 36.375H74.8353L69.0525 44.0353L74.8431 51.7115H69.3286L66.2913 47.6879L63.254 51.7115H60.1851L33.9219 86.4952C37.0145 86.8502 40.3595 87.0237 43.9964 87.0237C77.1468 87.0237 87.0004 72.3575 87.0004 44.0195C87.0004 34.8681 85.9748 27.1445 83.466 20.8805V20.8728Z" fill="#F3F0EC"/>
</svg>
