<svg width="182" height="84" viewBox="0 0 182 84" fill="none" xmlns="http://www.w3.org/2000/svg">
<path d="M179.949 22.6885C174.725 21.3899 167.601 22.0501 161.313 22.6298C159.346 22.8132 157.483 22.9818 155.722 23.0992C141.386 18.7117 136.558 19.8711 130.974 21.2211C129.896 21.4779 128.781 21.7492 127.563 21.984C120.688 23.2973 88.5154 31.5369 84.3114 32.6154C84.2967 32.5714 84.2893 32.5273 84.2747 32.4906C84.1866 32.1678 83.8858 31.9477 83.563 31.9477C74.8173 32.0284 66.1964 34.6918 61.0532 36.6287C61.0312 36.6141 61.0165 36.5847 60.9871 36.5773C60.8918 36.526 51.5812 31.4268 43.4445 27.0687C30.1205 19.9298 25.4836 25.8213 25.2928 26.0781C25.1167 26.3129 25.0947 26.6211 25.2415 26.8779L38.0078 49.6665C38.0078 49.6665 38.0078 49.6665 38.0151 49.6739C38.0151 49.6739 38.0151 49.6737 38.0151 49.681C38.0518 49.7471 38.1032 49.7986 38.1545 49.8426C38.1692 49.8573 38.1839 49.8645 38.1912 49.8718C38.2352 49.9085 38.2866 49.9379 38.3453 49.9673C38.3526 49.9673 38.36 49.982 38.3746 49.982C44.1562 52.2858 51.317 53.2028 59.0575 53.2028C87.7817 53.2028 124.386 40.5906 126.998 39.6735C143.345 37.267 167.659 29.0276 180.037 24.0751C180.33 23.9577 180.521 23.6642 180.499 23.3414C180.477 23.0259 180.249 22.7545 179.941 22.6812L179.949 22.6885ZM153.492 23.9651C147.453 26.5184 143.968 27.3694 140.645 26.0487C137.871 24.9482 135.626 22.9159 134.628 21.9181C138.752 21.1624 143.631 21.1184 153.492 23.9651ZM84.3921 39.3874C81.6921 40.4146 69.9823 44.6774 59.5051 45.6239C59.5344 42.7404 58.4486 40.6347 57.7369 39.5709C60.7597 38.2209 71.7211 33.6645 83.0127 33.4224C83.4823 35.2493 84.1132 38.1328 84.3921 39.3874ZM29.9445 25.2124C32.2703 24.7648 36.379 24.9409 42.7621 28.36C49.3361 31.8817 56.6803 35.8877 59.2996 37.3184C57.4214 38.0741 56.3208 38.6097 56.2842 38.6317C56.0787 38.7344 55.932 38.9252 55.888 39.1526C55.8439 39.3801 55.91 39.6147 56.0714 39.7835C56.0787 39.7982 56.5189 40.2825 56.9738 41.1556C47.8613 43.5474 41.0159 47.1352 38.9396 48.2944L26.8042 26.6284C27.2665 26.2175 28.2569 25.5352 29.9518 25.205L29.9445 25.2124ZM67.6051 51.3759C70.8407 48.9914 79.3149 44.0903 94.6565 43.8482C101.509 43.7381 109.617 42.6963 116 41.6765C108.384 43.9509 97.5546 46.849 85.698 48.9841C79.1535 50.1653 73.1151 50.9577 67.6051 51.3759ZM126.726 38.2355C126.726 38.2355 126.704 38.2355 126.697 38.2428C126.697 38.2428 126.69 38.2428 126.682 38.2428C126.499 38.2795 108.09 42.1607 94.6344 42.3735C74.7513 42.6889 66.189 50.4661 65.1032 51.53C54.9488 52.1022 46.6947 51.3099 40.4216 49.1528C43.085 47.7221 49.4094 44.626 57.5535 42.5203C57.8983 43.5548 58.1404 44.8535 58.0083 46.3576C57.9863 46.5703 58.067 46.7829 58.2138 46.937C58.3532 47.0764 58.5366 47.1572 58.7347 47.1572C58.7494 47.1572 58.7714 47.1572 58.7861 47.1572C71.0828 46.2474 85.3679 40.5832 85.5073 40.5245C85.8374 40.3925 86.0282 40.0404 85.9548 39.6882C85.9181 39.5268 85.2578 36.4159 84.6782 34.0314C88.8529 32.9602 121.003 24.7208 127.842 23.4149C129.089 23.1801 130.226 22.9012 131.319 22.6371C131.862 22.505 132.405 22.373 132.948 22.2556C132.948 22.2629 132.948 22.2703 132.963 22.2776C133.087 22.417 136.015 25.77 140.102 27.3988C141.342 27.8904 142.582 28.1325 143.91 28.1325C146.984 28.1325 150.564 26.8558 155.817 24.5519C157.6 24.4346 159.471 24.2659 161.452 24.0825C166.654 23.5982 172.436 23.0626 177.109 23.6495C164.24 28.6313 141.958 36.005 126.726 38.2281V38.2355Z" fill="#F3F0EC"/>
<path d="M98.4931 33.3707C97.0771 33.6422 96.0279 34.7428 95.9399 36.0488C95.8445 37.3842 96.7616 38.5066 98.3904 39.0569C99.1094 39.299 99.8285 39.409 100.518 39.409C102.206 39.409 103.688 38.7562 104.392 37.8757C104.957 37.1714 105.03 36.3496 104.59 35.6159C103.394 33.6349 100.555 32.9819 98.4858 33.3707H98.4931ZM103.255 36.9513C102.69 37.6556 100.797 38.3159 98.86 37.6629C97.8915 37.3328 97.3559 36.7824 97.3999 36.1441C97.444 35.5131 98.0162 34.9483 98.7646 34.8089C100.371 34.5081 102.514 35.0069 103.336 36.3643C103.394 36.4596 103.497 36.6358 103.247 36.9513H103.255Z" fill="#F3F0EC"/>
<path d="M107.965 31.1266C106.549 31.3907 105.5 32.4912 105.412 33.8045C105.317 35.1399 106.234 36.2625 107.863 36.8127C108.582 37.0549 109.301 37.1649 109.99 37.1649C111.678 37.1649 113.16 36.5119 113.864 35.6314C114.429 34.9271 114.503 34.1053 114.062 33.3716C112.866 31.3906 110.027 30.7377 107.958 31.1266H107.965ZM112.727 34.7143C112.162 35.4186 110.269 36.079 108.332 35.426C107.364 35.0958 106.828 34.5455 106.872 33.9072C106.916 33.2762 107.488 32.7114 108.237 32.572C109.844 32.2711 111.986 32.77 112.808 34.1273C112.866 34.2227 112.969 34.3988 112.72 34.7143H112.727Z" fill="#F3F0EC"/>
<path d="M117.555 28.9176C116.139 29.1818 115.09 30.2896 115.002 31.5955C114.907 32.9309 115.824 34.0535 117.452 34.6038C118.171 34.8459 118.89 34.9559 119.58 34.9559C121.268 34.9559 122.75 34.3029 123.454 33.4224C124.019 32.7181 124.092 31.8963 123.652 31.1626C122.456 29.1816 119.617 28.5288 117.548 28.9176H117.555ZM122.317 32.498C121.752 33.2023 119.859 33.8626 117.922 33.2096C116.954 32.8795 116.418 32.3293 116.462 31.691C116.506 31.06 117.078 30.495 117.827 30.3556C119.433 30.0548 121.576 30.5536 122.398 31.911C122.456 32.0064 122.559 32.1825 122.31 32.498H122.317Z" fill="#F3F0EC"/>
<path d="M126.91 26.4586C125.494 26.7228 124.444 27.8232 124.356 29.1365C124.261 30.4719 125.178 31.5945 126.807 32.1448C127.526 32.3869 128.245 32.4969 128.935 32.4969C130.622 32.4969 132.104 31.8441 132.809 30.9636C133.374 30.2593 133.447 29.4375 133.007 28.7038C131.811 26.7228 128.971 26.0698 126.902 26.4586H126.91ZM131.671 30.0465C131.106 30.7508 129.213 31.4111 127.276 30.7582C126.308 30.428 125.772 29.8777 125.816 29.2394C125.86 28.6084 126.433 28.0434 127.181 27.904C128.788 27.6032 130.93 28.1022 131.752 29.4595C131.811 29.5549 131.913 29.731 131.664 30.0465H131.671Z" fill="#F3F0EC"/>
<path d="M27.2071 41.7568C27.097 41.3679 26.6935 41.1403 26.3046 41.2504L2.03398 48.0152C1.64513 48.1253 1.41768 48.5288 1.52773 48.9176C1.61578 49.2405 1.90925 49.4532 2.23207 49.4532C2.29811 49.4532 2.36415 49.4459 2.43019 49.4239L26.7008 42.6592C27.0897 42.5491 27.3172 42.1456 27.2071 41.7568Z" fill="#F3F0EC"/>
<path d="M23.8831 47.5824L14.0075 50.5832C13.6187 50.7006 13.3986 51.1115 13.5159 51.5004C13.6113 51.8159 13.9048 52.0213 14.2203 52.0213C14.2937 52.0213 14.3597 52.0139 14.4331 51.9919L24.3086 48.991C24.6975 48.8736 24.9176 48.4627 24.8002 48.0739C24.6828 47.685 24.2719 47.465 23.8831 47.5824Z" fill="#F3F0EC"/>
<path d="M34.4711 50.6859L10.2005 57.4506C9.81163 57.5606 9.58418 57.9642 9.69424 58.353C9.78228 58.6759 10.0831 58.8886 10.3986 58.8886C10.4646 58.8886 10.5307 58.8812 10.5967 58.8592L34.8673 52.0946C35.2562 51.9845 35.4837 51.581 35.3736 51.1921C35.2635 50.8033 34.86 50.5759 34.4711 50.6859Z" fill="#F3F0EC"/>
<path d="M34.3232 57.0979L19.1063 61.7643C18.7174 61.8817 18.5047 62.2926 18.6221 62.6814C18.7175 62.9969 19.0109 63.2023 19.3264 63.2023C19.3998 63.2023 19.4732 63.195 19.5392 63.173L34.756 58.5066C35.1449 58.3892 35.3577 57.9783 35.2403 57.5895C35.1229 57.2006 34.712 56.9805 34.3232 57.1053V57.0979Z" fill="#F3F0EC"/>
<path d="M54.1416 57.1501L37.8536 61.8824C37.4647 61.9924 37.2373 62.4033 37.3547 62.7922C37.4501 63.115 37.7435 63.3204 38.059 63.3204C38.1251 63.3204 38.1984 63.313 38.2645 63.291L54.5525 58.5587C54.9414 58.4487 55.1688 58.0378 55.0514 57.649C54.9414 57.2601 54.5305 57.0327 54.1416 57.1501Z" fill="#F3F0EC"/>
</svg>
