<svg width="61" height="62" viewBox="0 0 61 62" fill="none" xmlns="http://www.w3.org/2000/svg">
<path d="M53.7529 8.99581C49.1292 3.95633 41.5271 1.5 30.5 1.5C19.4729 1.5 11.8708 3.94889 7.24705 8.99581C2.98811 13.6482 1 20.638 1 30.9998C1 41.3616 2.98811 48.3514 7.24705 53.0038C11.8708 58.0433 19.4729 60.5 30.5 60.5C41.5271 60.5 49.1292 58.0507 53.7529 53.0038C58.0119 48.3514 60 41.3616 60 30.9998C60 20.638 58.0119 13.6482 53.7529 8.99581ZM30.5 59.5248C9.97217 59.5248 1.96816 51.5299 1.96816 30.9998C1.96816 10.4697 9.96473 2.47519 30.5 2.47519C51.0353 2.47519 59.0318 10.4697 59.0318 30.9998C59.0318 51.5299 51.0353 59.5248 30.5 59.5248Z" fill="white"/>
<path d="M53.6185 32.8531C53.1793 29.3918 51.102 26.8905 47.9227 25.9898C44.5944 25.0519 40.6929 26.0494 37.6699 28.4388C38.1985 27.084 38.5857 25.4687 38.5857 23.3695C38.5857 15.3451 31.5792 8.61607 31.2814 8.33321C31.0953 8.15456 30.7975 8.15456 30.6114 8.33321C30.3135 8.61607 23.3071 15.3525 23.3071 23.3695C23.3071 25.4687 23.6942 27.084 24.2229 28.4388C21.1999 26.0494 17.2984 25.0444 13.9701 25.9898C10.7908 26.8905 8.71353 29.3918 8.27423 32.8531C7.99874 34.997 8.46772 36.7911 9.65903 38.183C12.0417 40.9596 16.4347 41.1157 16.6208 41.1231H16.6358C16.8368 41.1231 17.0228 40.9968 17.0898 40.8033C17.1643 40.6098 17.0975 40.3861 16.9411 40.2595C16.0998 39.5822 15.6604 38.1457 15.8763 36.7612C16.0177 35.8232 16.591 34.1186 18.78 33.27C20.5298 32.5927 22.2946 32.652 23.6274 33.4336C24.6623 34.044 25.3771 35.0492 25.6749 36.3072H24.7813C23.8357 36.3072 23.0613 37.0736 23.0613 38.0264C23.0613 38.9792 23.8283 39.746 24.7813 39.746H25.206C24.0965 41.6516 21.6395 43.5274 19.0632 44.3835C16.9487 45.0832 15.0351 45.0087 13.6651 44.1825C13.4417 44.0485 13.1512 44.1158 13.0023 44.3391C12.8609 44.5624 12.9206 44.8525 13.1365 45.0014C15.6085 46.6837 17.7898 47.2123 19.5693 47.2123C20.6043 47.2123 21.5055 47.0334 22.2426 46.7878C24.171 46.1551 25.6673 44.9419 26.7544 43.5722C26.531 45.7756 27.1641 48.5895 30.5445 53.5694C30.6338 53.7034 30.7828 53.7853 30.9466 53.7853C31.1104 53.7853 31.2593 53.7034 31.3487 53.5694C34.729 48.5895 35.3543 45.783 35.1384 43.5722C36.2255 44.927 37.7147 46.1478 39.6506 46.7805C40.3877 47.0187 41.2885 47.2047 42.3235 47.2047C44.103 47.2047 46.2921 46.6689 48.7567 44.9941C48.9726 44.8452 49.0323 44.5548 48.8908 44.3315C48.7493 44.1082 48.4589 44.0412 48.228 44.1752C46.858 45.0015 44.9445 45.0685 42.8299 44.3762C40.2462 43.5276 37.7966 41.6443 36.6872 39.7387H37.1933C38.1389 39.7387 38.9133 38.9719 38.9133 38.0191C38.9133 37.0663 38.1463 36.2996 37.1933 36.2996H36.2106C36.5084 35.0415 37.2232 34.0367 38.2581 33.4263C39.5909 32.6447 41.3557 32.585 43.1055 33.2624C45.2945 34.111 45.8603 35.8156 46.0092 36.7535C46.2252 38.1381 45.7857 39.5749 44.9444 40.2523C44.7806 40.3863 44.7212 40.6021 44.7957 40.7957C44.8627 40.9892 45.0487 41.1159 45.2498 41.1159H45.2647C45.4508 41.1159 49.8513 40.952 52.2265 38.1754C53.4178 36.7834 53.8868 34.9893 53.6113 32.8455L53.6185 32.8531ZM30.9466 9.37527C32.3389 10.8268 37.6103 16.7447 37.6103 23.3772C37.6103 26.7716 36.5306 28.8707 35.518 30.5753C34.7585 31.5207 34.1629 32.5702 33.746 33.6644C33.746 33.6719 33.7385 33.6868 33.7311 33.6942C33.3216 34.58 33.0835 35.4286 32.9792 36.3145H28.9139C28.8097 35.4138 28.5638 34.5653 28.1617 33.6869C28.1617 33.6795 28.1542 33.6646 28.1468 33.6571C27.7224 32.548 27.1268 31.5059 26.3748 30.568C25.3622 28.8708 24.2825 26.7714 24.2825 23.3695C24.2825 16.7445 29.5542 10.8192 30.9466 9.36764V9.37527ZM24.1189 32.6002C22.533 31.6623 20.4555 31.5803 18.4303 32.3694C16.5018 33.1212 15.2212 34.6695 14.9234 36.6198C14.7372 37.848 14.9606 39.0912 15.5116 40.0291C14.1267 39.8058 11.8108 39.1953 10.4036 37.5502C9.39843 36.3741 9.01158 34.8333 9.24239 32.9724C9.63702 29.8683 11.4091 27.7167 14.2384 26.9203C18.0506 25.8409 22.7042 27.568 25.5782 31.1187C25.7272 31.3643 25.8758 31.61 26.0247 31.8482C26.4863 32.5925 26.9185 33.2996 27.2535 34.0217C27.529 34.7437 27.7226 35.5105 27.8418 36.2996H26.6504C26.3228 34.6842 25.4441 33.3741 24.1113 32.5925L24.1189 32.6002ZM21.9445 45.8722C20.3511 46.3933 18.6387 46.3638 16.8964 45.813C17.6857 45.7609 18.5122 45.5895 19.361 45.3067C22.4063 44.3017 25.1983 42.0461 26.3003 39.746H27.7C27.6628 39.9023 27.6181 40.0513 27.5735 40.2225C26.8661 42.21 24.9674 44.8896 21.9445 45.8722ZM30.9466 52.4379C26.7993 46.1255 27.5288 43.7358 28.2882 41.2049C28.3552 40.9742 28.4224 40.7509 28.482 40.55C28.482 40.5425 28.4818 40.5276 28.4893 40.5201C28.5786 40.2671 28.6531 40.0067 28.7201 39.7536H33.1654C33.2324 40.0141 33.3069 40.2821 33.3962 40.5278C33.4633 40.7585 33.5303 40.9892 33.5973 41.2126C34.3642 43.7435 35.0862 46.1328 30.9389 52.4452L30.9466 52.4379ZM42.5394 45.3067C43.3882 45.5895 44.2147 45.7534 45.004 45.813C43.2617 46.3713 41.5493 46.3933 39.956 45.8722C36.9404 44.8896 35.0341 42.21 34.3342 40.2523C34.2821 40.0736 34.2373 39.9097 34.2001 39.746H35.6001C36.6947 42.0461 39.4941 44.3017 42.5394 45.3067ZM37.9527 38.0264C37.9527 38.4358 37.6177 38.7708 37.2082 38.7708H24.7813C24.3718 38.7708 24.0367 38.4358 24.0367 38.0264C24.0367 37.617 24.3718 37.282 24.7813 37.282H37.2082C37.6177 37.282 37.9527 37.617 37.9527 38.0264ZM51.4968 37.5502C50.0896 39.1953 47.7737 39.8058 46.3888 40.0291C46.9323 39.0912 47.1632 37.848 46.977 36.6198C46.6792 34.6695 45.3986 33.1212 43.4701 32.3694C41.4449 31.5803 39.3674 31.6623 37.7815 32.6002C36.4562 33.3818 35.5704 34.6919 35.2428 36.3072H34.0514C34.1705 35.5181 34.3639 34.7589 34.632 34.0591C34.9819 33.3073 35.4137 32.6002 35.8754 31.8558C36.0243 31.6176 36.1733 31.372 36.3222 31.1263C39.1962 27.5756 43.8572 25.8485 47.662 26.9279C50.4914 27.7244 52.2634 29.8756 52.658 32.9796C52.8963 34.8406 52.502 36.3814 51.4968 37.5575V37.5502Z" fill="white"/>
</svg>
