<svg width="120" height="73" viewBox="0 0 120 73" fill="none" xmlns="http://www.w3.org/2000/svg">
<path d="M14.3067 49.776V23.8765C14.3067 18.8023 14.4781 17.9379 22.1079 15.792C36.466 11.761 49.1476 10.964 59.3033 10.9565V7H10V66.6451H59.3033V63.039C49.1476 63.0241 36.466 61.8841 22.1079 57.8531C14.4781 55.7072 14.3067 54.8428 14.3067 49.7687M105.693 49.776V23.8765C105.693 18.8023 105.522 17.9379 97.8921 15.792C83.534 11.761 70.8524 10.964 60.6967 10.9565V7H110V66.6451H60.6967V63.039C70.8449 63.0241 83.534 61.8841 97.8921 57.8531C105.522 55.7072 105.693 54.8428 105.693 49.7687" fill="#645D75"/>
<path d="M33.903 26.0222V34.0917H24.6861V26.0222H19.0904V47.5705H24.6861V39.4788H33.903V47.5705H39.4987V26.0222H33.903ZM58.9533 31.4169V26.0222H45.5116C42.6653 26.0222 41.7116 26.6557 41.7116 30.4259V43.1672C41.7116 46.9374 42.6653 47.5705 45.5116 47.5705H58.9533V42.1685H47.1956V39.4788H58.9533V34.0917H47.1956V31.4169H58.9533ZM76.2396 34.0917H66.5309V31.4169H79.6V26.0222H64.9141C61.889 26.0222 61.047 26.7226 61.047 30.4481V35.2465C61.047 39.5681 61.8815 39.4788 64.9141 39.4788H74.6227V42.1685H61.0395V47.5705H76.2396C79.2647 47.5705 80.1067 46.8701 80.1067 43.1446V38.4579C80.1067 34.1363 79.2721 34.0917 76.2396 34.0917ZM97.0428 34.0917H87.3341V31.4169H100.403V26.0222H85.7172C82.6921 26.0222 81.8502 26.7226 81.8502 30.4481V35.2465C81.8502 39.5681 82.6847 39.4788 85.7172 39.4788H95.4259V42.1685H81.8427V47.5705H97.0428C97.0428 47.5705 100.91 46.8701 100.91 43.1446V38.4579C100.91 34.1363 100.068 34.0917 97.0428 34.0917Z" fill="#645D75"/>
</svg>
