<svg width="181" height="84" viewBox="0 0 181 84" fill="none" xmlns="http://www.w3.org/2000/svg">
<path d="M119.29 66.9677C117.771 66.0534 116.461 65.2615 115.691 64.7144C112.717 62.5906 113.524 56.8886 114.056 53.1089C114.157 52.3818 114.251 51.7267 114.308 51.1579C114.539 48.9045 117.318 45.0097 122.141 40.1861C124.848 37.4791 122.019 28.8615 114.575 17.1337C105.806 3.33253 100.874 1 90.5 1C80.1258 1 75.1941 3.33253 66.4253 17.1337C58.9812 28.8615 56.1518 37.4791 58.8588 40.1861C65.3598 46.6871 66.5549 49.8476 66.6917 51.1579C66.7493 51.7195 66.8429 52.3818 66.9437 53.1089C67.4764 56.8814 68.2756 62.5906 65.3095 64.7144C64.5391 65.2687 63.2289 66.0534 61.7098 66.9677C55.0576 70.9706 45 77.0253 45 82.8712C45 83.2671 45.324 83.5911 45.7199 83.5911C46.1159 83.5911 46.4399 83.2671 46.4399 82.8712C46.4399 77.8388 56.8573 71.5682 62.4513 68.1989C64.0567 67.2342 65.331 66.4637 66.1445 65.8806C69.8306 63.2528 68.9523 57.0255 68.3692 52.9075C68.2684 52.202 68.182 51.5611 68.1244 51.014C67.786 47.7023 63.452 42.7491 59.8739 39.1711C58.5708 37.868 58.7364 31.9213 67.6421 17.9113C74.6254 6.91787 78.6427 2.44708 90.5 2.44708C99.7656 2.44708 104.424 3.84374 113.358 17.9113C122.256 31.9213 122.429 37.868 121.126 39.1711C117.548 42.7491 113.221 47.7023 112.876 51.014C112.818 51.5611 112.732 52.202 112.631 52.9075C112.048 57.0255 111.177 63.2528 114.855 65.8806C115.676 66.4637 116.943 67.227 118.549 68.1989C124.143 71.5682 134.56 77.8388 134.56 82.8712C134.56 83.2671 134.884 83.5911 135.28 83.5911C135.676 83.5911 136 83.2671 136 82.8712C136 77.0253 125.943 70.9705 119.29 66.9605V66.9677Z" fill="#B3ADA5"/>
<path d="M109.953 24.6071C108.729 23.9951 107.642 23.4048 106.591 22.8361C101.796 20.2515 98.3335 18.3867 90.5006 18.3867C82.6677 18.3867 79.2048 20.2515 74.41 22.8361C73.3589 23.4048 72.2718 23.9879 71.0479 24.6071C70.1552 25.0534 69.5648 25.9173 69.4712 26.918C68.996 32.0296 67.6785 58.156 88.3623 70.5893C89.0247 70.9853 89.7663 71.1869 90.5078 71.1869C91.2493 71.1869 91.9909 70.9853 92.6532 70.5893C113.337 58.156 112.019 32.0296 111.544 26.918C111.451 25.9245 110.86 25.0606 109.968 24.6071H109.953ZM91.8972 69.3583C91.0333 69.8766 89.9606 69.8766 89.0967 69.3583C69.1544 57.3713 70.436 32.0151 70.8967 27.0548C70.9399 26.558 71.2351 26.1262 71.6887 25.8958C72.9341 25.2694 74.0284 24.6791 75.0939 24.1104C79.7015 21.6266 83.0277 19.8338 90.5006 19.8338C97.9735 19.8338 101.3 21.6266 105.907 24.1104C106.966 24.6791 108.067 25.2766 109.313 25.8958C109.759 26.119 110.054 26.5508 110.104 27.0548C110.565 32.0151 111.854 57.3713 91.9044 69.3583H91.8972Z" fill="#B3ADA5"/>
<path d="M77.599 29.8052C84.2296 29.4452 87.8149 31.2235 88.578 35.2336C89.4492 39.8411 88.2036 41.5905 87.2965 42.8648C87.0445 43.2247 86.7998 43.5559 86.6342 43.9231C86.1447 44.9598 86.1014 45.8598 86.5046 46.5942C87.2893 48.0196 89.4204 48.286 91.141 48.5019C91.4434 48.5379 91.7313 48.5739 91.9761 48.6171C92.0121 48.6171 92.0553 48.6243 92.0913 48.6243C92.4369 48.6243 92.7465 48.3724 92.8041 48.0196C92.8689 47.6309 92.6025 47.2564 92.2065 47.1916C91.9474 47.1484 91.645 47.1125 91.321 47.0693C90.0755 46.9181 88.2037 46.6806 87.7717 45.8959C87.5989 45.5863 87.6565 45.1326 87.9373 44.5351C88.0525 44.2903 88.2469 44.0168 88.4772 43.7C89.4779 42.2961 90.9898 40.1722 90.0035 34.9671C89.0964 30.1867 84.8992 27.9694 77.5342 28.3653C76.0872 28.4445 75.0001 28.898 74.3017 29.7043C73.4594 30.6906 73.5386 31.8138 73.553 31.9362C73.589 32.325 73.9345 32.613 74.3305 32.577C74.7192 32.541 75.0144 32.1954 74.9856 31.7994C74.9856 31.7706 74.9424 31.1514 75.4104 30.6186C75.8423 30.1291 76.5839 29.8484 77.6134 29.798L77.599 29.8052Z" fill="#B3ADA5"/>
<path d="M84.9999 39.2223C85.3311 39.4382 85.7775 39.3374 85.9934 39.0062C86.2094 38.6751 86.1086 38.2286 85.7774 38.0126C82.2713 35.7664 78.1965 36.6809 75.8927 38.4951C75.5831 38.7399 75.5255 39.1934 75.7703 39.503C75.9143 39.6829 76.1231 39.7766 76.3391 39.7766C76.4975 39.7766 76.6486 39.7261 76.7854 39.6253C78.3837 38.3726 81.8898 37.228 84.9999 39.2223Z" fill="#B3ADA5"/>
<path d="M101.969 52.0002C101.58 52.101 101.349 52.4898 101.45 52.8785C101.616 53.5337 101.702 54.4191 101.155 54.9014C100.572 55.4126 99.3695 55.4055 98.0808 54.88C97.2241 54.5344 96.3962 54.1095 95.5971 53.7064C93.8549 52.8209 92.2134 51.9786 90.428 51.9786C88.6426 51.9786 86.9939 52.8137 85.2588 53.7064C84.4597 54.1095 83.639 54.5344 82.7751 54.88C81.4936 55.3983 80.2841 55.4054 79.7009 54.9014C79.1466 54.4191 79.2329 53.5337 79.4057 52.8785C79.5065 52.4898 79.269 52.101 78.8874 52.0002C78.5058 51.8994 78.1099 52.137 78.0091 52.5186C77.4979 54.52 78.261 55.5494 78.7578 55.9813C79.7729 56.8668 81.4792 56.9533 83.315 56.2117C84.2293 55.8374 85.0861 55.4054 85.9068 54.9879C87.4906 54.1816 88.9809 53.4185 90.4208 53.4185C91.8607 53.4185 93.3581 54.1816 94.9347 54.9879C95.7627 55.4054 96.6122 55.8446 97.5266 56.2117C98.3545 56.5501 99.1608 56.7157 99.8807 56.7157C100.759 56.7157 101.529 56.4709 102.084 55.9813C102.58 55.5494 103.344 54.52 102.832 52.5186C102.732 52.1298 102.343 51.8994 101.954 52.0002H101.969Z" fill="#B3ADA5"/>
<path d="M94.4742 38.2856C94.143 38.5016 94.0422 38.9478 94.2582 39.279C94.4741 39.6102 94.9205 39.711 95.2517 39.495C98.2034 37.6016 101.45 38.2279 103.221 39.6174C103.351 39.7182 103.509 39.7687 103.668 39.7687C103.884 39.7687 104.092 39.675 104.236 39.495C104.481 39.1855 104.431 38.732 104.114 38.4872C101.889 36.7377 98.045 35.9962 94.4813 38.2856H94.4742Z" fill="#B3ADA5"/>
<path d="M103.631 28.4729C98.073 27.2994 93.2134 28.833 91.8096 32.2023C91.6584 32.5695 91.8312 32.9941 92.1984 33.1453C92.5655 33.2965 92.9902 33.1239 93.1414 32.7567C94.2573 30.0785 98.541 28.8689 103.336 29.884C106.165 30.4815 106.381 33.2533 106.395 33.3685C106.417 33.7501 106.734 34.0452 107.115 34.0452C107.13 34.0452 107.144 34.0452 107.159 34.0452C107.555 34.0236 107.857 33.6854 107.835 33.2822C107.756 31.9072 106.777 29.1425 103.638 28.4729H103.631Z" fill="#B3ADA5"/>
<path d="M90.6511 57.4219C90.2551 57.4219 89.9312 57.7458 89.9312 58.1418V65.37C89.9312 65.766 90.2551 66.0899 90.6511 66.0899C91.0471 66.0899 91.371 65.766 91.371 65.37V58.1418C91.371 57.7458 91.0471 57.4219 90.6511 57.4219Z" fill="#B3ADA5"/>
</svg>
