<svg width="63" height="63" viewBox="0 0 63 63" fill="none" xmlns="http://www.w3.org/2000/svg">
<path d="M55.1279 9.54905C50.4742 4.46895 42.813 2 31.7101 2C20.6072 2 12.9458 4.46895 8.29217 9.54905C3.99765 14.2326 2 21.273 2 31.7101C2 42.1471 3.99765 49.1874 8.29217 53.871C12.9458 58.9511 20.6072 61.42 31.7101 61.42C42.813 61.42 50.4742 58.9511 55.1279 53.871C59.4224 49.1874 61.42 42.1471 61.42 31.7101C61.42 21.273 59.4224 14.2326 55.1279 9.54905ZM31.7101 60.4399C11.038 60.4399 2.98015 52.3821 2.98015 31.7101C2.98015 11.038 11.038 2.98015 31.7101 2.98015C52.3821 2.98015 60.4399 11.038 60.4399 31.7101C60.4399 52.3821 52.3821 60.4399 31.7101 60.4399Z" fill="#F3F0EC"/>
<path d="M32.2715 13.5144C30.6105 13.5144 29.2638 14.8686 29.2638 16.5221C29.2638 18.1755 30.6105 19.5298 32.2715 19.5298C33.9324 19.5298 35.2791 18.1755 35.2791 16.5221C35.2791 14.8686 33.9324 13.5144 32.2715 13.5144ZM32.2715 18.5571C31.1492 18.5571 30.2364 17.6443 30.2364 16.5221C30.2364 15.3998 31.1492 14.4871 32.2715 14.4871C33.3937 14.4871 34.3065 15.3998 34.3065 16.5221C34.3065 17.6443 33.3937 18.5571 32.2715 18.5571Z" fill="#F3F0EC"/>
<path d="M52.4493 44.3766V43.0673C52.4493 42.2668 51.7983 41.6159 50.9978 41.6159H49.5763V25.8893C50.5714 25.7172 51.3345 24.8568 51.3345 23.8168V23.54H51.7459C52.0153 23.54 52.2323 23.323 52.2323 23.0537V19.9637C52.2323 19.7841 52.1275 19.6121 51.9704 19.5298L32.4131 9.45931C32.271 9.38449 32.1064 9.38449 31.9643 9.45931L12.407 19.5298C12.2424 19.6121 12.1451 19.7841 12.1451 19.9637V23.0537C12.1451 23.323 12.3621 23.54 12.6315 23.54H13.0429V23.8168C13.0429 24.8568 13.806 25.7172 14.7936 25.8893V41.6159H13.5367C12.7362 41.6159 12.0852 42.2668 12.0852 43.0673V44.3766C10.7834 44.4141 9.73602 45.4839 9.73602 46.7932V48.2971C9.73602 48.5664 9.95292 48.7834 10.2223 48.7834H54.3047C54.5741 48.7834 54.7911 48.5664 54.7911 48.2971V46.7932C54.7911 45.4839 53.7436 44.4141 52.4418 44.3766H52.4493ZM43.7854 41.6234V25.9266H48.6036V41.6234H43.7854ZM21.5721 25.8968C22.5672 25.7247 23.3303 24.8643 23.3303 23.8243V23.5475H27.0487V23.8243C27.0487 24.8643 27.8119 25.7247 28.7995 25.8968V41.6234H21.5721V25.8968ZM35.2263 24.9541H29.1586C28.5376 24.9541 28.0289 24.4453 28.0289 23.8243V23.5475H36.356V23.8243C36.356 24.4453 35.8473 24.9541 35.2263 24.9541ZM29.7796 25.9266H34.5978V41.6234H29.7796V25.9266ZM35.5779 25.8968C36.573 25.7247 37.3361 24.8643 37.3361 23.8243V23.5475H41.0546V23.8243C41.0546 24.8643 41.8177 25.7247 42.8128 25.8968V41.6234H35.5854V25.8968H35.5779ZM50.3618 23.8243C50.3618 24.4453 49.8531 24.9541 49.2321 24.9541H43.1644C42.5434 24.9541 42.0347 24.4453 42.0347 23.8243V23.5475H50.3618V23.8243ZM13.1252 20.263L32.1887 10.447L51.2522 20.263V22.5673H13.1177V20.263H13.1252ZM14.023 23.8243V23.5475H22.3502V23.8243C22.3502 24.4453 21.8415 24.9541 21.2205 24.9541H15.1528C14.5318 24.9541 14.023 24.4453 14.023 23.8243ZM15.7738 25.9266H20.5919V41.6234H15.7738V25.9266ZM13.5442 42.6035H51.0053C51.2671 42.6035 51.4766 42.813 51.4766 43.0748V44.3766H13.0729V43.0748C13.0729 42.813 13.2823 42.6035 13.5442 42.6035ZM53.8259 47.8107H10.7161V46.7932C10.7161 46.0002 11.3596 45.3493 12.1601 45.3493H52.382C53.175 45.3493 53.8259 45.9927 53.8259 46.7932V47.8107Z" fill="#F3F0EC"/>
</svg>
