<svg width="24" height="73" viewBox="0 0 24 73" fill="none" xmlns="http://www.w3.org/2000/svg">
<path d="M87.7498 52.4227H84.6893C84.0676 52.4227 83.5894 52.0861 83.5484 51.4609L83.5006 50.2587C81.3008 52.038 78.6706 53 75.9038 53C70.5547 53 68.3551 49.5924 68.3551 44.3987V30.1846C68.3551 29.3671 68.8332 29.0783 69.5915 29.0783H72.939C73.7042 29.0783 74.1346 29.319 74.1346 30.1846V43.3886C74.1346 46.0336 74.804 47.8542 77.6733 47.8542C79.4836 47.8542 81.7791 46.8444 83.2137 45.5459V30.1846C83.2137 29.3671 83.6441 29.0783 84.4092 29.0783H87.8045C88.5696 29.0783 89 29.319 89 30.1846V51.0762C89 52.0861 88.713 52.4227 87.7566 52.4227H87.7498ZM10 30.0404C10 29.4633 10.2869 29.0783 10.8608 29.0783H14.905C15.4788 29.0783 15.8136 29.4152 15.8136 30.0404V51.2204C15.8136 52.0861 15.4311 52.4227 14.6181 52.4227H11.2434C10.3894 52.4227 10 52.0861 10 51.2204V30.0404ZM41.4182 52.4227H37.982C37.1212 52.4227 36.8343 51.99 36.8343 51.1725V38.1056C36.8343 35.4675 36.1169 33.5921 33.1999 33.5921C31.3349 33.5921 29.0463 34.6019 27.5639 35.9004V51.2275C27.5639 52.045 27.2292 52.4297 26.4162 52.4297H22.9254C22.2081 52.4297 21.7776 52.0449 21.7776 51.2754V30.2943C21.7776 29.5249 22.1123 29.0921 22.9731 29.0921H26.0746C26.7441 29.0921 27.1745 29.2845 27.2223 30.0058L27.2701 31.2906C29.4699 29.5113 32.2436 28.5084 35.0103 28.5084C40.3594 28.5084 42.5592 31.8675 42.5592 37.1093V51.1862C42.5592 52.0037 42.2722 52.4364 41.4114 52.4364L41.4182 52.4227ZM58.4425 22.5243C58.4425 20.58 56.878 19 54.9379 19C52.9977 19 51.4334 20.58 51.4334 22.5243C51.4334 24.4685 53.0046 26.0488 54.9379 26.0488C56.8712 26.0488 58.4425 24.4753 58.4425 22.5243ZM63.4294 29.0853C64.0033 29.0853 64.3381 29.2777 64.3381 29.9028V33.2828C64.3381 33.8599 63.9556 34.1966 63.3817 34.1966H57.8413V51.2204C57.8413 52.0861 57.4587 52.4227 56.5979 52.4227H53.271C52.4102 52.4227 52.0276 52.0861 52.0276 51.2204V34.1966H46.4874C45.9135 34.1966 45.5308 33.8599 45.5308 33.2828V29.9028C45.5308 29.2777 45.8656 29.0853 46.4395 29.0853H63.4158H63.4294Z" fill="#645D75"/>
</svg>
