<svg width="24" height="24" viewBox="0 0 24 24" fill="none" xmlns="http://www.w3.org/2000/svg">
<g clip-path="url(#clip0_245_115)">
<path fill-rule="evenodd" clip-rule="evenodd" d="M12 0.96C5.90277 0.96 0.96 5.90277 0.96 12C0.96 18.0972 5.90277 23.04 12 23.04C18.0972 23.04 23.04 18.0972 23.04 12C23.04 5.90277 18.0972 0.96 12 0.96ZM0 12C0 5.37258 5.37258 0 12 0C18.6274 0 24 5.37258 24 12C24 18.6274 18.6274 24 12 24C5.37258 24 0 18.6274 0 12Z" fill="#CC7510"/>
<path d="M9.27988 17.316H6.73215V9.09439H9.27988V17.316ZM7.99921 8.0131C7.16602 8.0131 6.49125 7.3316 6.49125 6.49842C6.49125 5.66523 7.16602 4.9834 7.99921 4.9834C8.8324 4.9834 9.50717 5.66523 9.50717 6.49842C9.50717 7.33849 8.8324 8.0131 7.99921 8.0131ZM18.8237 17.316H16.2898V12.9986C16.2898 11.8142 15.8422 11.1531 14.9057 11.1531C13.8866 11.1531 13.3564 11.8418 13.3564 12.9986V17.316H10.9119V9.09439H13.3564V10.2029C13.3564 10.2029 14.0931 8.84626 15.8352 8.84626C17.5773 8.84626 18.8306 9.91357 18.8306 12.117V17.3228L18.8237 17.316Z" fill="#F3F0EC"/>
</g>
<defs>
<clipPath id="clip0_245_115">
<rect width="24" height="24" fill="white"/>
</clipPath>
</defs>
</svg>
