<svg width="175" height="73" viewBox="0 0 175 73" fill="none" xmlns="http://www.w3.org/2000/svg">
<path d="M156.647 47.2138C156.647 44.9405 158.49 43.1049 160.756 43.1049C163.021 43.1049 164.865 44.9481 164.865 47.2138C164.865 49.4794 163.021 51.3226 160.756 51.3226C158.49 51.3226 156.647 49.4794 156.647 47.2138Z" fill="#645D75"/>
<path d="M25.5413 36.3233C25.5413 33.7198 25.0344 31.7844 24.0283 30.5325C23.0223 29.273 21.494 28.6512 19.4434 28.6512H17.2622V44.5719H18.9289C21.2099 44.5719 22.8765 43.8961 23.944 42.5367C25.0038 41.185 25.5413 39.1112 25.5413 36.3233ZM33.3213 36.0544C33.3213 40.8007 32.0464 44.4566 29.4966 47.0217C26.9469 49.5869 23.3603 50.8693 18.7369 50.8693H9.75879V22.4456H19.3665C23.8209 22.4456 27.2617 23.613 29.6886 25.9478C32.1155 28.2825 33.3213 31.654 33.3213 36.0623M58.1968 50.8693H65.3393V22.3226H58.1968V50.8693ZM75.3848 40.2248C75.3848 42.045 75.6228 43.435 76.099 44.3874C76.5752 45.3397 77.3738 45.8161 78.4951 45.8161C79.6164 45.8161 80.3844 45.3397 80.8452 44.3874C81.2983 43.435 81.5288 42.045 81.5288 40.2248C81.5288 38.4047 81.2983 37.0454 80.8375 36.1238C80.3767 35.2022 79.5858 34.7337 78.4645 34.7337C77.3432 34.7337 76.5829 35.1945 76.1067 36.1084C75.6305 37.0224 75.3925 38.3972 75.3925 40.2173M88.7941 40.2248C88.7941 43.6885 87.8878 46.3996 86.06 48.335C84.2398 50.278 81.6901 51.2458 78.4107 51.2458C75.1313 51.2458 72.7659 50.2551 70.9073 48.266C69.0487 46.2845 68.1194 43.6042 68.1194 40.2173C68.1194 36.8304 69.0333 34.0731 70.8535 32.1608C72.6737 30.2485 75.2311 29.2887 78.5181 29.2887C80.5534 29.2887 82.3505 29.7341 83.9095 30.6173C85.4686 31.5005 86.6743 32.7754 87.5191 34.4266C88.3639 36.0778 88.7864 38.0132 88.7864 40.2173M91.628 50.8693H98.7782V29.6648H91.628V50.8693ZM91.628 27.0998H98.7782V22.3226H91.628V27.0998ZM113.255 45.4625C114.223 45.4625 115.367 45.2169 116.711 44.7331V50.0705C115.751 50.4929 114.829 50.8002 113.962 50.9769C113.094 51.1612 112.072 51.2458 110.897 51.2458C108.501 51.2458 106.765 50.639 105.706 49.4409C104.646 48.2351 104.116 46.3921 104.116 43.8961V35.1559H101.612V29.6727H104.116V24.258L111.32 23.0063V29.6727H115.882V35.1559H111.32V43.412C111.32 44.7867 111.965 45.4704 113.255 45.4704M129.798 45.4625C130.765 45.4625 131.91 45.2169 133.254 44.7331V50.0705C132.294 50.4929 131.372 50.8002 130.504 50.9769C129.629 51.1612 128.615 51.2458 127.44 51.2458C125.044 51.2458 123.308 50.639 122.248 49.4409C121.189 48.2351 120.659 46.3921 120.659 43.8961V35.1559H118.155V29.6727H120.659V24.1736L127.855 23.0063V29.6727H132.417V35.1559H127.855V43.412C127.855 44.7867 128.5 45.4704 129.79 45.4704M142.27 37.6366C142.37 36.4769 142.7 35.6243 143.269 35.0791C143.837 34.5338 144.536 34.2653 145.381 34.2653C146.294 34.2653 147.024 34.5723 147.562 35.1867C148.107 35.7934 148.391 36.6151 148.414 37.6366H142.278H142.27ZM152.346 31.7922C150.649 30.1256 148.237 29.2962 145.119 29.2962C141.84 29.2962 139.321 30.2563 137.555 32.1687C135.788 34.081 134.905 36.8304 134.905 40.4093C134.905 43.9882 135.857 46.5533 137.762 48.4272C139.667 50.3012 142.347 51.2458 145.795 51.2458C147.454 51.2458 148.875 51.1306 150.073 50.9079C151.264 50.6852 152.408 50.2856 153.521 49.7019L152.423 44.9251C151.617 45.2553 150.841 45.5088 150.111 45.6777C149.059 45.9235 147.907 46.0464 146.648 46.0464C145.273 46.0464 144.182 45.7084 143.384 45.0402C142.585 44.3644 142.163 43.4352 142.117 42.2525H154.889V38.996C154.889 35.8625 154.036 33.4666 152.339 31.8M42.806 37.6366C42.9058 36.4769 43.2361 35.6243 43.8044 35.0791C44.3728 34.5338 45.0716 34.2653 45.9164 34.2653C46.8304 34.2653 47.56 34.5723 48.0976 35.1867C48.6429 35.7934 48.9193 36.6151 48.95 37.6366H42.806ZM52.89 31.7922C51.1927 30.1256 48.781 29.2962 45.6629 29.2962C42.3836 29.2962 39.8646 30.2563 38.0982 32.1687C36.3318 34.081 35.4486 36.8304 35.4486 40.4093C35.4486 43.9882 36.401 46.5533 38.3133 48.4272C40.2179 50.3012 42.8982 51.2458 46.3466 51.2458C48.0055 51.2458 49.4263 51.1306 50.6244 50.9079C51.8148 50.6852 52.9591 50.2856 54.0727 49.7019L52.9743 44.9251C52.1679 45.2553 51.3923 45.5088 50.6703 45.6777C49.6182 45.9235 48.4662 46.0464 47.2066 46.0464C45.8319 46.0464 44.7413 45.7084 43.9426 45.0402C43.1439 44.3644 42.7216 43.4352 42.6755 42.2525H55.4473V38.996C55.4473 35.8625 54.5949 33.4666 52.8977 31.8" fill="#645D75"/>
</svg>
