<svg width="61" height="62" viewBox="0 0 61 62" fill="none" xmlns="http://www.w3.org/2000/svg">
<path d="M30.4998 60.5C19.4727 60.5 11.8705 58.0511 7.24673 53.0041C2.98776 48.3517 1 41.3619 1 31C1 20.6381 2.98776 13.6483 7.24673 8.99585C11.8705 3.95635 19.4727 1.5 30.4998 1.5C41.527 1.5 49.1291 3.9489 53.7529 8.99585C58.0119 13.6483 60 20.6381 60 31C60 41.3619 58.0119 48.3517 53.7529 53.0041C49.1291 58.0436 41.527 60.5 30.4998 60.5ZM30.4998 2.48246C9.97186 2.48246 1.9678 10.4774 1.9678 31.0076C1.9678 51.5378 9.96442 59.5324 30.4998 59.5324C51.0352 59.5324 59.0322 51.5378 59.0322 31.0076C59.0322 10.4774 51.0352 2.48246 30.4998 2.48246Z" fill="white"/>
<path d="M36.4788 52.178C36.3895 52.178 36.3002 52.1556 36.2258 52.1035C36.0843 52.0141 35.9949 51.8576 35.9949 51.6938V34.2232C35.9949 33.9925 36.1587 33.7914 36.3821 33.7467L40.5889 32.9057V29.3102L33.2845 30.9331V43.4165C33.2845 43.5579 33.2174 43.6994 33.1057 43.7887L30.805 45.6867C30.6264 45.8356 30.3657 45.8356 30.187 45.6867L27.8864 43.7887C27.7747 43.6994 27.7075 43.5579 27.7075 43.4165V30.9331L20.4035 29.3102V32.9057L24.6103 33.7467C24.8337 33.7914 24.9975 33.9925 24.9975 34.2232V51.6938C24.9975 51.865 24.9081 52.0141 24.7666 52.1035C24.6252 52.1928 24.4466 52.2001 24.2976 52.1256C17.5443 48.7908 15.8391 42.8805 15.7721 42.6274C15.7572 42.5828 15.7572 42.5381 15.7572 42.5009V24.1144C15.7572 19.7225 17.3283 16.0452 20.2992 13.4771C23.0094 11.1323 26.7919 9.83691 30.9541 9.83691C39.7624 9.83691 45.2348 15.3083 45.2348 24.1144V42.5009C45.2348 42.5456 45.2348 42.5902 45.2199 42.6274C45.1529 42.8805 43.4406 48.7908 36.6948 52.1256C36.6277 52.1628 36.5533 52.178 36.4788 52.178ZM36.9627 34.6252V50.8975C42.4056 47.8901 44.0809 43.0218 44.267 42.4337V24.122C44.267 15.9114 39.1666 10.8197 30.9614 10.8197C23.8805 10.8197 16.7326 14.9363 16.7326 24.122V42.4337C16.9188 43.0218 18.5941 47.8901 24.037 50.8975V34.6252L19.8302 33.7842C19.6068 33.7395 19.443 33.5384 19.443 33.3077V28.7072C19.443 28.5583 19.5098 28.4245 19.6215 28.3278C19.7332 28.2384 19.8898 28.2013 20.0312 28.2311L28.3106 30.0695C28.534 30.1216 28.6906 30.3153 28.6906 30.546V43.1857L30.5073 44.6818L32.324 43.1857V30.546C32.324 30.3153 32.4806 30.1216 32.7039 30.0695L40.9833 28.2311C41.1248 28.2013 41.2814 28.231 41.3931 28.3278C41.5048 28.4171 41.5716 28.5583 41.5716 28.7072V33.3077C41.5716 33.5384 41.4078 33.7395 41.1844 33.7842L36.9776 34.6252H36.9627Z" fill="white"/>
</svg>
