<svg width="63" height="63" viewBox="0 0 63 63" fill="none" xmlns="http://www.w3.org/2000/svg">
<path d="M55.1278 9.54905C50.4742 4.46895 42.8129 2 31.71 2C20.6071 2 12.9457 4.46895 8.29208 9.54905C3.99756 14.2326 2 21.273 2 31.71C2 42.1471 3.99756 49.1874 8.29208 53.8709C12.9457 58.951 20.6071 61.42 31.71 61.42C42.8129 61.42 50.4742 58.951 55.1278 53.8709C59.4224 49.1874 61.4199 42.1471 61.4199 31.71C61.4199 21.273 59.4224 14.2326 55.1278 9.54905ZM31.71 60.4398C11.0379 60.4398 2.98015 52.3821 2.98015 31.71C2.98015 11.038 11.0379 2.98015 31.71 2.98015C52.382 2.98015 60.4399 11.038 60.4399 31.71C60.4399 52.3821 52.382 60.4398 31.71 60.4398Z" fill="#F3F0EC"/>
<path d="M55.0007 33.5804C54.5593 30.0939 52.4643 27.5725 49.2621 26.6672C45.9178 25.717 41.9898 26.7196 38.9523 29.1287C39.4835 27.7671 39.8577 26.1361 39.8577 24.0337C39.8577 15.9534 32.8024 9.16751 32.5031 8.88321C32.316 8.70364 32.0167 8.70364 31.8296 8.88321C31.5304 9.16751 24.4752 15.9534 24.4752 24.0337C24.4752 26.1361 24.8567 27.7745 25.3805 29.1287C22.3354 26.7271 18.4149 25.7245 15.0706 26.6672C11.8684 27.5725 9.78107 30.0939 9.33216 33.5804C9.05534 35.7427 9.52659 37.5457 10.7312 38.9523C13.1328 41.7504 17.5546 41.9075 17.7416 41.915H17.7566C17.9586 41.915 18.1456 41.7879 18.2129 41.5933C18.2877 41.3988 18.2204 41.1744 18.0633 41.0472C17.2179 40.3664 16.7765 38.9223 16.986 37.5232C17.1281 36.5805 17.7041 34.8598 19.9113 34.0069C21.6695 33.3185 23.4501 33.3784 24.7894 34.1714C25.8293 34.7849 26.5476 35.8024 26.8468 37.0669H25.9416C24.9914 37.0669 24.2133 37.845 24.2133 38.7952C24.2133 39.7454 24.9914 40.5234 25.9416 40.5234H26.3681C25.2458 42.4462 22.7768 44.3391 20.1807 45.192C18.0484 45.8953 16.1181 45.8206 14.7414 44.9901C14.517 44.8554 14.2176 44.9227 14.0755 45.1472C13.9333 45.3716 13.9933 45.6634 14.2103 45.8131C16.6942 47.5039 18.9013 48.0426 20.6894 48.0426C21.7368 48.0426 22.6422 47.863 23.3829 47.6161C25.3207 46.9876 26.8244 45.7682 27.9242 44.4065C27.7072 46.6286 28.3507 49.4491 31.7474 54.4544C31.8372 54.5891 31.9869 54.6714 32.1515 54.6714C32.3161 54.6714 32.4657 54.5891 32.5555 54.4544C35.9447 49.4566 36.5881 46.6286 36.3786 44.414C37.4709 45.7757 38.9823 46.9876 40.92 47.6236C41.6607 47.863 42.5659 48.0501 43.6134 48.0501C45.409 48.0501 47.6087 47.5114 50.0927 45.8205C50.3096 45.6709 50.3694 45.3791 50.2273 45.1547C50.0851 44.9302 49.7934 44.8628 49.5615 44.9975C48.1848 45.828 46.2545 45.9028 44.1222 45.1995C41.5261 44.3391 39.0571 42.4537 37.9348 40.5309H38.451C39.4012 40.5309 40.1794 39.7529 40.1794 38.8027C40.1794 37.8525 39.4012 37.0743 38.451 37.0743H37.4634C37.7627 35.8099 38.4809 34.7924 39.5209 34.1789C40.8601 33.3859 42.6408 33.326 44.399 34.0143C46.6061 34.8747 47.1748 36.588 47.3245 37.5307C47.5414 38.9223 47.0999 40.3738 46.2469 41.0547C46.0823 41.1894 46.0225 41.4063 46.0973 41.6008C46.1647 41.7954 46.3518 41.9225 46.5538 41.9225H46.5688C46.7558 41.9225 51.1849 41.7579 53.5791 38.9598C54.7836 37.5607 55.2476 35.7501 54.9783 33.5878L55.0007 33.5804ZM32.1664 9.93058C33.573 11.3895 38.8775 17.3525 38.8775 24.0337C38.8775 27.4529 37.7926 29.5702 36.7676 31.2835C36.0045 32.2337 35.3986 33.2961 34.9796 34.3959C34.9796 34.4034 34.9721 34.4183 34.9646 34.4258C34.5531 35.3236 34.3137 36.1765 34.2089 37.0669H30.109C30.0042 36.1616 29.7573 35.3011 29.3533 34.4258C29.3533 34.4183 29.3458 34.4034 29.3383 34.3959C28.9044 33.2737 28.3058 32.2262 27.5576 31.2835C26.5326 29.5702 25.4479 27.4604 25.4479 24.0337C25.4479 17.36 30.7524 11.397 32.159 9.93058H32.1664ZM25.2906 33.326C23.6895 32.3833 21.6022 32.301 19.5596 33.0941C17.6144 33.8498 16.3276 35.4134 16.0283 37.3736C15.8412 38.6081 16.0657 39.8575 16.6194 40.8077C15.2278 40.5833 12.8934 39.9698 11.4793 38.3089C10.4693 37.1267 10.0729 35.578 10.3123 33.7001C10.7088 30.5727 12.497 28.4105 15.34 27.6024C19.1782 26.5176 23.8692 28.2534 26.7572 31.8296C26.9068 32.0765 27.0563 32.3234 27.206 32.5703C27.6698 33.326 28.1039 34.0368 28.4406 34.7625C28.7174 35.4882 28.9118 36.2588 29.0389 37.0594H27.842C27.5128 35.4283 26.6223 34.1116 25.2831 33.326H25.2906ZM23.0985 46.6884C21.4899 47.2121 19.7691 47.1897 18.0184 46.6211C18.8114 46.5687 19.6419 46.3966 20.5023 46.1123C23.5699 45.1023 26.3831 42.8278 27.4904 40.5159H28.8968C28.8594 40.673 28.8146 40.8302 28.7697 40.9948C28.0515 42.9999 26.1436 45.6933 23.106 46.6884H23.0985ZM32.1664 53.3023C27.9916 46.9428 28.7248 44.5337 29.4954 41.9899C29.5627 41.758 29.6301 41.5335 29.6899 41.3315C29.6899 41.324 29.69 41.3165 29.6974 41.3015C29.7872 41.0397 29.8621 40.7853 29.9294 40.5234H34.411C34.4783 40.7853 34.553 41.0546 34.6428 41.3015C34.7101 41.5335 34.7774 41.7654 34.8448 41.9899C35.6154 44.5337 36.3413 46.9503 32.1739 53.3023H32.1664ZM43.8378 46.1197C44.6982 46.404 45.5288 46.5687 46.3218 46.6285C44.5636 47.1897 42.8503 47.2196 41.2417 46.6959C38.2041 45.7008 36.2888 43.0074 35.5855 41.0322C35.5331 40.8527 35.4883 40.6805 35.4508 40.5234H36.8575C37.9648 42.8353 40.7778 45.1097 43.8453 46.1197H43.8378ZM39.2217 38.7952C39.2217 39.2067 38.885 39.5434 38.4735 39.5434H25.9566C25.5451 39.5434 25.2084 39.2067 25.2084 38.7952C25.2084 38.3837 25.5451 38.047 25.9566 38.047H38.4735C38.885 38.047 39.2217 38.3837 39.2217 38.7952ZM52.8609 38.3089C51.4468 39.9623 49.1126 40.5833 47.721 40.8077C48.2672 39.8575 48.499 38.6081 48.3119 37.3736C48.0126 35.4059 46.7183 33.8498 44.7806 33.0941C42.738 32.301 40.6507 32.3833 39.0496 33.326C37.7104 34.1116 36.8201 35.4358 36.4909 37.0594H35.2938C35.4135 36.2663 35.608 35.5032 35.8774 34.7999C36.229 34.0442 36.6629 33.3335 37.1268 32.5778C37.2764 32.3384 37.4261 32.0915 37.5757 31.8371C40.4712 28.2609 45.1622 26.5251 48.9929 27.6099C51.8434 28.418 53.6315 30.5802 54.0206 33.7076C54.26 35.578 53.8634 37.1342 52.8534 38.3163L52.8609 38.3089Z" fill="#F3F0EC"/>
</svg>
