<svg width="196" height="73" viewBox="0 0 196 73" fill="none" xmlns="http://www.w3.org/2000/svg">
<path d="M84.9568 22.8018H84.9263L82.5303 35.3377H79.2289L76.11 20.0484H78.7497L80.9099 31.8311H80.9404L83.2529 20.0484H86.6683L88.9503 31.8311H88.9808L91.2323 20.0484H93.7807L90.6314 35.3377H87.2769L84.9644 22.8018H84.9568ZM97.7285 23.8518C100.041 23.8518 102.673 25.0536 102.673 29.6404C102.673 34.2273 100.033 35.4595 97.7285 35.4595C95.4237 35.4595 92.7537 34.349 92.7537 29.6404C92.7841 25.0536 95.4541 23.8518 97.7285 23.8518ZM97.7285 33.5656C99.4704 33.5656 99.8887 31.5573 99.8887 29.6709C99.8887 27.7844 99.5009 25.8066 97.7285 25.8066C95.9561 25.8066 95.5681 27.7844 95.5681 29.6709C95.5681 31.5573 95.9866 33.5656 97.7285 33.5656ZM104.027 25.8902C104.027 25.2588 103.996 24.6579 103.936 24.0342H106.392C106.423 24.7264 106.484 25.4111 106.484 26.1034H106.514C106.841 25.2362 107.686 23.8823 109.389 23.8823C109.542 23.8823 109.686 23.9124 109.838 23.9428V26.4911C109.595 26.4303 109.329 26.3697 109.085 26.3697C107.975 26.3697 106.75 27.0618 106.75 29.1613V35.3377H104.05L104.019 25.8902H104.027ZM111.01 18.9074H113.741V35.3076H111.01V18.9074ZM124.801 18.9074V33.3907C124.801 34.022 124.831 34.6762 124.892 35.3076H122.344C122.283 34.7371 122.253 34.1361 122.253 33.5656H122.192C121.743 34.5241 120.929 35.4825 119.195 35.4825C116.403 35.4825 115.239 32.8123 115.239 29.6935C115.239 26.0043 116.707 23.8745 119.134 23.8745C120.396 23.8136 121.53 24.5361 122.04 25.6695H122.07V18.8922H124.801V18.9074ZM119.917 33.4742C121.507 33.4742 122.047 31.7321 122.047 29.6326C122.047 27.5332 121.446 25.8523 119.948 25.8523C118.449 25.8523 117.909 27.3205 117.909 29.5721C117.94 32.1812 118.358 33.4664 119.917 33.4664V33.4742ZM132.872 20.0484H135.694V26.2553H140.22V20.0484H143.011V35.3377H140.22V28.5603H135.694V35.3076H132.872V20.0484ZM152.931 34.7672C151.881 35.2464 150.709 35.49 149.576 35.49C145.948 35.49 144.358 32.8807 144.358 29.8532C144.358 26.4987 146.13 23.8897 149.005 23.8897C151.432 23.8897 153.501 25.2969 153.501 29.9142V30.4542H146.997C146.997 32.3711 147.773 33.5426 149.873 33.5426C151.523 33.5426 152.33 33.0328 152.839 32.6753L152.931 34.775V34.7672ZM150.861 28.7122C150.861 26.7345 150.2 25.7152 148.975 25.7152C147.537 25.7152 146.967 27.2137 146.967 28.7122H150.861ZM155.235 24.696C156.346 24.156 157.571 23.8592 158.803 23.8592C162.31 23.8592 163.124 25.5709 163.124 28.3854V33.2993C163.124 33.9611 163.184 34.6153 163.276 35.2771H160.819C160.697 34.7675 160.636 34.2576 160.667 33.748H160.636C159.944 34.676 159.107 35.4595 157.487 35.4595C155.745 35.4595 154.132 34.2577 154.132 32.1583C154.132 29.1004 156.62 28.3167 160.066 28.3167H160.606V27.8984C160.606 26.7879 160.066 25.7383 158.506 25.7383C157.396 25.7687 156.315 26.1566 155.418 26.8488L155.235 24.6882V24.696ZM160.575 29.7927H160.332C158.02 29.7927 156.643 30.2718 156.643 31.9224C156.582 32.82 157.274 33.6036 158.172 33.6644H158.385C160.005 33.6644 160.606 32.4624 160.606 30.4542V29.7927H160.575ZM165.611 18.9074H168.311V35.3076H165.611V18.9074ZM171.43 21.7217L174.13 20.8849V24.0342H176.382V26.012H174.13V31.892C174.13 33.0938 174.579 33.4512 175.363 33.4512C175.72 33.4512 176.085 33.3601 176.382 33.2079V35.1248C175.812 35.3683 175.18 35.4825 174.557 35.4825C172.548 35.4825 171.407 34.5542 171.407 32.1809V26.0346H169.612V24.0572H171.407V21.7217H171.438H171.43ZM177.242 18.9074H179.942V25.5024H180.003C180.482 24.8102 181.113 23.8823 182.794 23.8823C185.343 23.8823 186.126 25.7687 186.126 28.0507V35.3076H183.426V28.5603C183.426 26.8184 182.977 26.1034 181.866 26.1034C180.459 26.1034 179.95 27.305 179.95 28.7427V35.3076H177.249V18.9074H177.242ZM82.3173 39.3847C85.4969 39.3847 88.4026 41.7504 88.4026 47.2425C88.4026 52.7346 85.4969 55.1003 82.3173 55.1003C79.1376 55.1003 76.2319 52.7346 76.2319 47.2425C76.2319 41.7504 79.1376 39.3847 82.3173 39.3847ZM82.3173 52.9702C84.0896 52.9702 85.5273 51.4718 85.5273 47.2425C85.5273 43.0132 84.0896 41.5449 82.3173 41.5449C80.5449 41.5449 79.1072 43.0436 79.1072 47.2425C79.1072 51.4414 80.5449 52.9702 82.3173 52.9702ZM89.5436 45.4701C89.5436 44.8387 89.5131 44.2378 89.4523 43.6141H91.9092C91.9397 44.3063 92.0006 44.9907 92.0006 45.6829H92.0311C92.3582 44.8157 93.233 43.4618 94.9064 43.4618C95.0586 43.4618 95.203 43.4923 95.3551 43.5227V46.071C95.1117 46.0102 94.8454 45.9492 94.5792 45.9492C93.4686 45.9492 92.2441 46.6414 92.2441 48.7408V54.9176H89.5436V45.4701ZM96.6787 56.6517C97.698 57.2527 98.8391 57.58 100.011 57.6104C102.559 57.6104 102.977 55.8381 102.977 54.0733V52.9932H102.947C102.498 53.8604 101.745 54.9101 99.9801 54.9101C98.4207 54.9101 96.0551 53.8603 96.0551 49.3039C96.0551 46.1851 97.1655 43.4544 100.132 43.4544C101.783 43.4544 102.528 44.3824 103.099 45.3713H103.19C103.19 44.7703 103.251 44.1998 103.281 43.6293H105.738C105.708 44.2302 105.647 44.8008 105.647 45.4017V53.7082C105.647 57.2454 104.567 59.7327 100.429 59.7327C99.113 59.7327 97.7893 59.4892 96.5647 59.0404L96.6863 56.6443L96.6787 56.6517ZM100.604 52.9093C102.315 52.9093 103 51.6772 103 49.129C103 46.7633 102.102 45.5006 100.809 45.531C99.3716 45.5614 98.8314 46.8774 98.8314 49.1594C98.8314 51.7989 99.6682 52.9093 100.604 52.9093ZM108.043 44.2682C109.154 43.6976 110.379 43.4313 111.611 43.4313C115.117 43.4313 115.931 45.143 115.931 47.9575V52.8714C115.931 53.5332 115.992 54.1874 116.083 54.8492H113.626C113.505 54.3396 113.444 53.8297 113.474 53.3201H113.444C112.752 54.2481 111.915 55.0316 110.295 55.0316C108.553 55.0316 106.94 53.8299 106.94 51.7304C106.94 48.6725 109.428 47.8888 112.873 47.8888H113.413V47.4706C113.413 46.36 112.873 45.3104 111.314 45.3104C110.203 45.3408 109.123 45.7287 108.226 46.4209L108.043 44.2607V44.2682ZM113.383 49.3722H113.14C110.827 49.3722 109.45 49.8513 109.45 51.502C109.39 52.3996 110.082 53.1831 110.979 53.2439H111.192C112.813 53.2439 113.413 52.0423 113.413 50.0341L113.383 49.3722ZM118.115 45.4701C118.115 44.8387 118.084 44.2378 118.023 43.6141H120.572C120.602 44.1846 120.663 44.7855 120.663 45.356H120.693C121.081 44.6638 121.865 43.4696 123.69 43.4696C126.238 43.4696 127.022 45.356 127.022 47.6381V54.8949H124.291V48.1172C124.291 46.3753 123.842 45.6602 122.732 45.6602C121.324 45.6602 120.815 46.8619 120.815 48.2996V54.8645H118.115V45.4775V45.4701ZM129.091 38.8142H131.913V41.484H129.091V38.8142ZM129.152 43.6141H131.852V54.8871H129.152V43.6141ZM133.982 52.5442L138.812 45.6755H134.134V43.6063H141.513V45.9188L136.774 52.8183H141.657V54.8871H133.952V52.552H133.982V52.5442ZM143.726 44.2682C144.837 43.6976 146.062 43.4313 147.294 43.4313C150.801 43.4313 151.614 45.143 151.614 47.9575V52.8714C151.614 53.5332 151.675 54.1874 151.767 54.8492H149.31C149.188 54.3396 149.127 53.8297 149.158 53.3201H149.127C148.435 54.2481 147.598 55.0316 145.978 55.0316C144.236 55.0316 142.623 53.8299 142.623 51.7304C142.623 48.6725 145.111 47.8888 148.557 47.8888H149.097V47.4706C149.097 46.36 148.557 45.3104 146.997 45.3104C145.887 45.3408 144.807 45.7287 143.909 46.4209L143.726 44.2607V44.2682ZM149.059 49.3722H148.815C146.503 49.3722 145.126 49.8513 145.126 51.502C145.065 52.3996 145.757 53.1831 146.655 53.2439H146.868C148.488 53.2439 149.089 52.0423 149.089 50.0341V49.3722H149.059ZM154.551 41.3016L157.251 40.4648V43.6141H159.503V45.5919H157.251V51.4414C157.251 52.6433 157.7 53.0007 158.483 53.0007C158.841 53.0007 159.206 52.9399 159.503 52.7574V54.6743C158.932 54.9405 158.301 55.062 157.677 55.0316C155.669 55.0316 154.528 54.1037 154.528 51.7609V45.5841H152.733V43.6063H154.528L154.558 41.2938L154.551 41.3016ZM161.146 38.8142H163.938V41.484H161.146V38.8142ZM161.207 43.6141H163.938V54.8871H161.237L161.207 43.6141ZM170.38 43.4313C172.693 43.4313 175.325 44.6331 175.325 49.22C175.325 53.8068 172.685 55.0394 170.38 55.0394C168.076 55.0394 165.406 53.959 165.406 49.22C165.436 44.6635 168.106 43.4313 170.38 43.4313ZM170.38 53.1451C172.122 53.1451 172.541 51.1369 172.541 49.2504C172.541 47.3639 172.153 45.3865 170.38 45.3865C168.608 45.3865 168.22 47.3639 168.22 49.2504C168.22 51.1369 168.638 53.1451 170.38 53.1451ZM177.485 45.4701C177.485 44.8387 177.455 44.2378 177.394 43.6141H179.942C179.972 44.1846 180.033 44.7855 180.033 45.356H180.064C180.452 44.6638 181.235 43.4696 183.061 43.4696C185.609 43.4696 186.393 45.356 186.393 47.6381V54.8949H183.692V48.1172C183.692 46.3753 183.243 45.6602 182.133 45.6602C180.726 45.6602 180.216 46.8619 180.216 48.2996V54.8645H177.515L177.485 45.4775V45.4701ZM59.7405 19.8961C60.912 21.3034 62.9504 22.1173 64.1447 23.5246C63.2775 19.3865 60.098 16.0015 56.3175 15.1876C58.1735 16.5644 58.5691 18.4889 59.7329 19.8961M14.4043 30.3859C17.0134 24.7188 20.8776 25.9206 22.5283 20.5502C21.5698 22.1705 17.3406 22.8629 15.3932 27.0847C16.4125 24.5668 15.9028 20.7253 17.5839 18.6259C12.5178 22.4064 14.6782 28.4615 14.4043 30.3784M19.0824 43.9409C19.5616 46.1317 18.1849 49.3342 20.3681 52.3692C18.1165 49.8514 13.3242 49.1898 11.3769 45.356C13.8034 54.7428 20.1627 52.8182 23.0076 54.8645C20.6723 51.4795 22.5891 49.2278 19.0824 43.9487M18.3598 49.8514C16.9525 44.6027 19.4399 42.7772 17.5534 37.7415C17.3709 40.5864 15.4541 41.9708 16.7473 47.1586C14.4957 42.7543 11.0193 41.1037 10 38.1066C10.0609 46.3523 16.6863 47.5848 18.3674 49.8592M28.5301 58.6296C26.5828 55.9292 27.8987 54.4002 22.4447 49.5167C23.6161 51.3119 22.4141 53.5636 26.1034 57.0399C22.5054 54.91 17.5002 55.8077 15.0965 52.9628C19.2345 60.8814 26.4915 57.6407 28.5301 58.6296ZM55.0623 57.0473C58.7515 53.5406 57.5497 51.2893 58.7212 49.5245C53.2367 54.408 54.5831 55.9446 52.6053 58.6374C54.6743 57.6485 61.9311 60.8888 66.0387 52.9702C63.673 55.8456 58.6603 54.9174 55.0623 57.0473ZM60.7902 52.3692C62.9809 49.3418 61.5964 46.1621 62.0528 43.9409C58.5461 49.22 60.4631 51.4641 58.1278 54.8567C61.0032 52.8181 67.332 54.735 69.7585 45.3482C67.8112 49.1896 63.0418 49.844 60.7902 52.3618M52.0348 59.0251C50.0875 58.5155 48.0794 58.1886 46.0408 58.1278C44.1847 58.0974 42.321 58.3938 40.5866 59.0556C38.8447 58.3938 36.9887 58.0974 35.1327 58.1278C33.0941 58.1886 31.0858 58.5155 29.1385 59.0251C25.8371 59.8923 22.9923 60.5846 20.5049 59.3219C22.8706 61.4214 25.6624 62.1972 29.6787 61.7484C33.0105 61.3909 35.7031 59.7097 38.8523 59.7401H38.9741C36.9964 60.729 35.2239 62.1061 33.7863 63.7871L35.3152 64C35.3152 64 36.905 60.7901 40.5943 59.9533C44.2835 60.7901 45.8733 64 45.8733 64L47.4022 63.7871C45.9646 62.1061 44.1923 60.729 42.2146 59.7401H42.3362C45.4854 59.7097 48.1858 61.3909 51.51 61.7484C55.5263 62.1668 58.2876 61.4214 60.6838 59.3219C58.1964 60.5846 55.3438 59.8923 52.05 59.0251M17.7969 32.0365C16.4505 34.6456 14.3206 35.2465 14.5564 40.6093C13.4154 35.8398 10.6922 34.0448 10.715 31.0173C8.82852 38.9891 13.8643 39.9249 15.1802 43.2794C14.9672 38.4796 18.0251 37.5209 17.7893 32.0365M19.6834 25.8902C19.2041 26.552 18.8771 26.8487 17.6143 27.868C15.7279 29.3665 14.4043 31.4963 13.9555 33.862C14.0772 30.9258 12.2745 26.727 13.4763 23.6691C8.82862 30.2337 13.7424 34.1665 13.925 36.5626C15.0964 31.9758 17.8806 31.9451 19.6834 25.8902ZM67.2026 33.8698C66.7234 31.5041 65.4304 29.3743 63.5439 27.8758C62.2812 26.8261 61.9539 26.5598 61.4747 25.898C63.2699 31.9529 66.0616 31.9832 67.2635 36.57C67.4461 34.2044 72.3601 30.2719 67.7124 23.6769C68.9142 26.7348 67.1113 30.9336 67.2026 33.8698ZM71.1657 38.0914C70.1464 41.1189 66.6702 42.739 64.4186 47.1433C65.7041 41.9555 63.7872 40.5788 63.6122 37.7263C61.7258 42.7619 64.2131 44.5951 62.8059 49.8361C64.487 47.5541 71.1124 46.3297 71.1733 38.084M63.3688 32.0365C63.1025 37.5209 66.191 38.4796 65.978 43.2794C67.2635 39.9477 72.3371 38.9891 70.4431 31.0173C70.4735 34.0752 67.7426 35.8475 66.6016 40.6397C66.845 35.2161 64.7458 34.6456 63.3613 32.0365M21.4253 19.8961C22.5968 18.4889 22.9847 16.5644 24.8407 15.1876C21.0298 15.9939 17.8577 19.3561 16.9829 23.4941C18.1848 22.0869 20.2539 21.273 21.4177 19.8961M58.6602 20.4971C60.3109 25.8903 64.1753 24.6962 66.7844 30.3327C66.5181 28.4463 68.6707 22.3608 63.6046 18.6411C65.3161 20.7101 64.8066 24.5745 65.7955 27.0999C63.8177 22.8705 59.5883 22.1856 58.6602 20.5045M45.4703 23.5855C44.4814 23.1671 43.4316 22.8932 42.3819 22.7487V23.441C43.3708 23.5931 44.3292 23.8594 45.2268 24.2169C45.3485 24.0039 45.4399 23.7985 45.4703 23.5855ZM44.6868 16.8991L44.8998 16.7164L44.5118 16.534L43.462 16.5036L43.1959 16.6863L42.5949 16.6254V16.7773C42.9829 16.8077 43.3708 16.8383 43.675 16.8991L44.1846 16.8687L44.6944 16.8991H44.6868ZM42.709 39.2629C42.709 39.0803 42.4655 38.9054 42.1384 38.7533H42.0775C42.0775 38.9054 42.0473 39.5901 42.0473 39.9552C42.4352 39.7422 42.709 39.5671 42.709 39.2629ZM30.6903 26.1034C30.7207 25.9817 30.7512 25.8369 30.7816 25.7152C30.6295 25.7457 30.5154 25.7761 30.3632 25.7457L30.6903 26.1034ZM25.8601 21.273L28.3171 23.73C25.3504 26.8183 23.6694 30.9565 23.6085 35.2467H20.1322C20.1931 29.998 22.2317 25.0231 25.8601 21.273ZM24.3616 40.4039L24.1486 40.3734L23.9356 40.1606L22.9467 40.0692L23.2433 40.4874L22.3457 40.3051L22.5892 40.0919L22.3762 39.879L21.7145 40.1454L21.471 40.5636L21.5622 41.5527L22.3153 43.3478L22.6727 43.9183L22.8858 43.9792L22.3153 42.8991L22.1936 42.359L22.3153 42.2372L22.2241 41.9404L22.5511 42.0014L23.0912 42.7773L23.213 42.8382V42.2677L23.426 42.3891L23.4867 42.6859L24.0268 42.8382L24.2702 42.6554L24.3616 42.7163V43.1346L24.6049 43.4313L24.9017 43.4922L25.5633 44.5723L25.9513 44.6942L26.0731 44.1846C26.7653 45.2952 27.5411 46.3449 28.4692 47.273L26.0122 49.7299C22.361 46.0407 20.2539 41.096 20.1322 35.9082H23.6085C23.639 37.4067 23.9052 38.9357 24.3616 40.3734M27.777 35.9082C27.777 36.2353 27.8074 36.5702 27.8682 36.9277L27.4498 37.0191L27.3586 37.4373L26.4611 38.5783L26.4913 40.1376L25.5938 40.4343H25.0842C24.605 38.9662 24.3616 37.4676 24.3083 35.9082H27.7846H27.777ZM28.5605 45.7134L29.3363 46.1624L29.4885 46.2839L28.918 46.8544C28.6518 46.5881 28.4084 46.3142 28.165 46.0175L28.5529 45.7212L28.5605 45.7134ZM31.7325 27.153L34.1894 29.61C33.6798 30.1805 33.231 30.8118 32.904 31.4964H32.7214L32.3639 31.5878H32.2421L31.8846 31.9146L32.3639 31.8541L32.7821 31.7627L32.6909 31.8846L32.3334 32.1278H32.1509L31.6107 32.5461L31.1011 32.4851L30.348 33.8925L30.5001 34.1588L30.0819 34.6379L30.021 35.2389H28.4616C28.492 32.2114 29.6635 29.3287 31.7325 27.1456M34.258 37.3155L34.4405 37.2245L34.8892 37.5513L34.6762 37.7036L35.186 38.0305L35.1555 37.6732L35.4216 37.2245L35.7184 37.5209L36.015 37.9395L35.4749 38.0914L35.7184 38.5705L36.0759 38.3577L36.015 38.2054L36.2813 38.0231L36.4334 37.2698C36.6464 37.7186 36.9127 38.1371 37.2398 38.5022L34.7828 40.9591C33.5809 39.6964 32.8354 38.0839 32.6224 36.342L33.132 36.882H33.6113L34.2427 37.3003L34.258 37.3155ZM30.7131 34.7066L30.774 34.0143L31.1924 33.771L31.9455 33.8925L32.0671 34.0143C32.0063 34.4022 31.9759 34.8207 31.9455 35.2162H31.1087L30.7207 34.7066H30.7131ZM29.5797 37.1027L29.2527 37.6123H28.6822L28.6517 37.5818C28.5604 37.0417 28.4996 36.4713 28.4692 35.9312H29.5188L29.2755 36.768L29.5721 37.0949L29.5797 37.1027ZM31.8846 43.8804C31.6412 43.6141 31.375 43.3403 31.162 43.074L31.2836 42.2068L30.9261 41.3699L30.8349 40.054L30.4165 39.2476L30.5077 38.738L29.9981 37.7798L29.5797 37.5666L29.7623 37.057L29.5797 36.6688L29.7623 36.2202H30.2416L30.4242 35.9539H31.2303L31.3521 36.1975L31.1696 37.0039L31.0782 37.1558L31.375 37.8177L31.162 37.9395L31.0099 37.7567L30.949 37.8177L31.1011 38.2054L31.3445 38.6545H31.4662L31.5271 38.2359L31.4054 38.084V37.8177L31.375 37.2472L31.5575 36.228L31.375 35.9617H31.9455C32.0672 38.0307 32.9039 39.978 34.3415 41.4765L31.8846 43.903V43.8804ZM52.8107 47.2425C55.7773 44.1846 57.4889 40.1375 57.5801 35.9082H61.0565C60.9348 41.0655 58.8656 46.0102 55.2372 49.6995L52.8107 47.2425ZM51.8523 46.2839L52.1186 45.9871L51.8523 44.6411L51.6697 44.5801L51.7913 44.3365L51.2208 44.1541L51.0992 44.6333L51.0383 45.2342L50.9166 45.356L49.8668 44.306C52.0576 42.024 53.3128 39.0574 53.4345 35.9082H56.9107C56.789 39.9854 55.1689 43.8572 52.324 46.763L51.8446 46.2839H51.8523ZM48.7943 49.5472L49.1214 48.8548L48.9997 48.5584L49.4791 48.1399V47.8966L49.0606 47.6303L49.3877 46.9379L49.8973 46.2764L49.3877 45.7364H48.9997L48.7563 45.3482C48.9693 45.1657 49.1747 44.9908 49.3572 44.8082L51.8142 47.2652C50.9166 48.1323 49.8973 48.9158 48.7867 49.5472M48.3152 42.7695L47.988 42.4426L48.2314 42.1154L48.5585 41.4535L48.4368 41.2711L48.6499 40.792L48.6194 40.343L48.4978 39.8943L48.201 39.8029L48.0793 40.0466L47.8968 39.9856C48.163 39.5977 48.4064 39.1488 48.6194 38.7228L48.916 38.601L49.0987 38.3577L49.1899 38.4491L49.4029 38.2054L49.2204 37.9926L49.3725 37.9621L49.6388 38.084H50.1788L50.5058 37.9012L51.3427 37.6579L51.1906 37.3916L51.1297 37.0644L51.5783 37.2776L51.7611 37.1862L51.6697 36.8289L51.0992 37.0418L50.4982 36.9199L50.0191 35.9617H52.6891C52.5674 38.9283 51.373 41.7505 49.3344 43.8804L48.9769 43.5227L49.129 43.0436L48.8629 41.9635L48.3228 42.7695H48.3152ZM47.06 29.7013L49.5169 27.2444C50.0874 27.8757 50.5971 28.5601 51.0459 29.2827L50.7493 29.3741L50.7798 29.9142L51.6773 30.4847C51.9207 30.9943 52.0957 31.5042 52.2478 32.0443L52.0957 32.2875L51.7685 32.5308L51.6773 33.0408L51.4338 33.1622L51.2513 33.4059L51.0687 33.3145H50.7417L50.9243 33.0482L51.0764 32.3559L51.3198 32.204L50.6579 31.5726L50.1788 31.7549L50.057 32.2344L49.7604 32.5613L49.4334 32.295L49.3115 31.9986L49.4941 31.8768L49.5855 32.0595L49.7376 31.9986L49.6766 31.7018H49.4638V31.8236L49.3115 31.8541L48.5585 30.9564L48.2924 30.7435L48.3835 30.6522L48.627 30.5608L48.3835 30.4694C48.3835 30.4694 48.1174 30.5303 48.087 30.5303L48.2391 30.7435H47.8511C47.6077 30.3556 47.3719 30.0207 47.0752 29.724M47.4479 43.1045L46.6949 42.8913L46.4514 42.9827L46.0332 42.6554L45.6452 42.5035C45.8582 42.3514 46.0332 42.2066 46.2157 42.0545L46.847 42.5035L47.3263 42.7468L47.5698 42.9901L47.4479 43.1119V43.1045ZM46.1244 31.5573L46.4211 31.4964V31.4355L46.1244 31.2227L46.2157 30.5608L46.5732 30.173C46.8166 30.4393 47.0219 30.7128 47.2349 31.0095L47.1133 31.3976L46.7862 31.154L46.5199 31.2149L46.6416 31.4585H46.7634L46.6113 31.8158L46.5199 31.6639L46.132 31.5421L46.1244 31.5573ZM50.2928 33.9534L50.9243 33.6262L51.5557 33.5352L51.7078 33.2384L52.0653 33.0256L52.2174 32.7288L52.339 32.2192C52.3999 32.4018 52.4304 32.5767 52.4913 32.7593L52.1641 33.748V34.0752L52.5825 33.3829C52.6738 33.9838 52.7346 34.6151 52.765 35.2084H49.7071L49.6464 34.9425L50.0039 34.6762L50.0646 34.4934L50.2169 34.372L50.6351 34.3111L50.6656 34.1283L50.3081 33.9459L50.2928 33.9534ZM50.9852 25.7992L51.8218 25.8293L52.0348 26.0729L51.9436 26.4302L53.1149 27.153L53.3584 27.1225L54.8264 28.8341L55.4274 28.6212C56.3858 30.6903 56.8955 32.9723 56.9259 35.2467H53.4497C53.4497 34.3491 53.3279 33.4741 53.1225 32.607L53.2748 32.3941L53.4876 31.2836L53.3355 30.1121L52.9171 28.7657L51.9587 27.3584L52.2021 27.4802L52.324 27.3584L51.5481 26.8184L51.4871 27.0007L52.2631 28.1113L52.7119 29.009L53.0085 29.9067L53.0997 30.5077L53.252 31.5269L52.9552 31.5573C52.9552 31.5573 52.6282 30.9258 52.5065 30.6596L52.6586 30.4163L52.3618 29.9981V29.61L52.1488 29.3437L51.8827 29.3741C51.7914 29.1915 51.7 29.0167 51.5859 28.8645L51.7685 28.9559L51.8294 28.895L51.7382 28.6818L51.9815 28.5603L51.8903 28.4385L51.5633 28.5603L51.6849 28.0203L51.4719 27.8984L51.2894 28.3167C50.9014 27.7462 50.4831 27.2062 50.0267 26.6965L51.0154 25.7992H50.9852ZM55.4198 21.3339C59.0178 25.084 61.0259 30.0589 61.0867 35.2467H57.6106C57.5802 32.668 56.9792 30.1195 55.8153 27.8071L55.8458 27.7462L56.0893 27.868L56.15 27.6856L55.5188 26.6052L54.7657 25.586L53.8984 24.8636C53.6018 24.506 53.2975 24.1406 52.9704 23.7831L55.4274 21.3261L55.4198 21.3339ZM40.6095 56.5912C52.301 56.5912 61.779 47.0827 61.7486 35.3912C61.7486 24.5363 53.5334 15.454 42.7394 14.3434L42.709 14.4648C42.6785 14.6778 42.6177 14.8528 42.5873 15.0353C47.235 15.4841 51.586 17.523 54.9102 20.7939L52.5749 23.129L52.6662 22.7108L52.3695 22.5585L51.9815 22.589L52.0729 22.3227L51.8066 21.3644L51.2361 20.733L49.4105 19.7743L49.2584 19.9571L48.9312 20.0484C49.5626 20.946 49.8897 22.0262 49.8897 23.1064V23.5246L50.7874 24.6656L50.369 24.757L50.6351 25.1752L49.8289 25.9815L49.5017 25.3806C49.3496 25.7989 49.1443 26.2174 48.9009 26.5825L49.0835 26.7348L46.5961 29.1917C46.4439 29.0396 46.2993 28.9253 46.1472 28.7731C45.9038 28.8949 45.668 28.9862 45.4246 29.0699L45.6376 29.2222L45.5158 29.3437L45.2192 29.4959L45.0976 29.7927L44.915 29.61L44.4052 29.7927L44.5573 30.036L44.915 29.9446L45.1583 29.9751L45.1888 29.8532L45.3713 29.7622L45.4322 29.6709L45.7593 29.5795H46.0027L46.1548 29.7013L45.1964 30.6901L45.1355 30.5987L44.1163 30.7814L43.8728 31.0247L43.6598 31.0552L44.2912 30.4542L44.0477 30.3327L43.4468 31.1087L43.6293 31.0782V31.3746L43.8423 31.466L43.8728 31.7627L43.5153 31.7018L43.1578 31.7627L42.2601 31.314C42.2601 31.314 42.1994 33.7102 42.1994 34.912C44.2988 35.6347 46.5504 36.6536 46.5504 39.3464C46.5808 40.4874 45.9799 41.5678 45.0214 42.1915L44.9605 42.222L44.8998 42.2829C44.063 42.8534 42.9524 43.1501 41.994 43.4544L41.9635 45.3408C43.4925 46.0939 45.318 47.1969 45.1431 50.3157C45.1126 51.0915 44.816 51.3044 44.5726 51.3653C43.675 51.5783 42.7471 51.7227 41.8419 51.7835V52.4758C45.7974 52.2096 49.517 50.5591 52.3923 47.8282L54.8493 50.2852C46.9611 57.8995 34.4633 57.8996 26.5446 50.3461L29.0016 47.8888C31.8465 50.5587 35.5358 52.1792 39.438 52.4758V51.7835C35.7183 51.4869 32.242 49.9579 29.5417 47.3792L30.1731 46.7177L31.0706 46.8087L31.5499 46.2991L32.8126 46.36L32.9951 45.9113L32.9344 45.7286C34.7905 47.1358 37.0116 48.0411 39.3544 48.2769V47.5846C36.7758 47.2879 34.3796 46.208 32.4551 44.4357L34.912 41.9787C35.513 42.5188 36.1749 42.9672 36.9203 43.3247C36.9812 43.0813 37.0419 42.8762 37.1636 42.6632C36.5323 42.3361 35.9313 41.9406 35.4216 41.4918L37.8788 39.0348C38.2667 39.3315 38.7155 39.6051 39.1643 39.7572V39.0044C38.8676 38.8826 38.5937 38.7078 38.3579 38.5252L39.0501 37.8329C38.8067 37.772 38.5709 37.6809 38.3275 37.5896L37.8483 38.0687C37.6049 37.8025 37.3995 37.4981 37.2474 37.2015C36.829 37.0189 36.4105 36.8134 36.015 36.5396C34.5773 35.6724 33.7025 34.0826 33.733 32.3711C33.7025 31.2301 34.0297 30.0893 34.7219 29.1917L32.2649 26.7348C34.0601 24.9928 36.3727 23.8897 38.8296 23.4941V22.8018C36.1901 23.1897 33.7027 24.3918 31.7858 26.2478L31.3674 25.8293C31.2761 25.9814 31.1543 26.1868 31.0402 26.4607L31.3065 26.727C29.1157 29.0394 27.891 32.0973 27.8301 35.2693H24.3235C24.3844 31.1617 25.9741 27.2368 28.819 24.2321L29.9296 25.3427H30.0819C30.2949 25.3123 30.5306 25.2512 30.7131 25.1599L29.306 23.7526C30.059 23.03 30.8653 22.3761 31.7325 21.8056C31.7933 21.6231 31.8238 21.4478 31.915 21.2957C32.0672 21.0523 32.2421 20.8167 32.4551 20.5733C31.1391 21.2959 29.9373 22.1933 28.8571 23.243L26.4002 20.7861C29.7015 17.576 33.9841 15.5681 38.6014 15.0888C38.6014 14.9975 38.5709 14.9365 38.5709 14.9365C38.5405 14.754 38.51 14.6095 38.4796 14.3965C26.8184 15.5984 18.3903 25.9966 19.6226 37.6349C20.7636 48.3984 29.8156 56.5834 40.6399 56.5529M51.0154 19.9875L50.8026 19.6603L50.3538 19.417L49.9963 19.6833L50.4449 19.9266L50.9547 20.2843L51.0154 19.9875ZM48.916 29.8228L48.9464 30.0891L49.5474 29.9067L49.7299 29.549L49.3115 29.009L49.5246 28.6818L50.0951 29.0699L50.1864 28.9785L50.0646 28.8872L49.943 28.6439L50.1864 28.5221L49.943 28.2257L49.4029 28.4916L49.2204 28.8188L49.0987 29.1156L49.342 29.5034L49.2508 29.6861L48.9236 29.8079L48.916 29.8228ZM23.7911 45.4092L23.8214 45.2569L23.5248 44.5649L23.1673 44.4126L23.7987 45.4017L23.7911 45.4092ZM37.97 32.3407C37.97 32.9416 38.3275 33.3295 38.9589 33.6871V33.4211L38.5709 33.0025L38.7839 32.6148L38.9665 32.5539C38.9361 31.8616 38.936 31.116 38.936 30.9943H38.9056C38.3047 31.3518 38.008 31.7702 37.9776 32.3407" fill="#645D75"/>
<path d="M41.8723 47.4175C42.9525 47.9576 43.9716 48.7334 44.39 50.1787C44.5726 47.7826 43.2186 46.7633 41.9026 46.0407L41.8723 47.4175ZM49.129 23.1064C49.129 20.9157 47.5392 18.5193 43.675 17.6826C43.2871 17.6217 42.8991 17.5611 42.5036 17.5306C42.5036 17.8577 42.4731 18.6107 42.4731 18.6107C42.4731 18.8542 42.4428 19.7213 42.4428 19.8962C42.6862 19.9267 42.9525 19.9572 43.1959 19.9876C45.4475 20.5277 46.2536 21.8133 46.2536 23.076C46.2536 25.145 44.4813 25.9207 42.3286 26.5217L41.606 26.7044C40.9442 26.8565 40.2595 27.0314 39.5977 27.214C39.3543 27.2748 39.1185 27.3355 38.8751 27.4268C36.479 28.1495 34.4101 29.3134 34.4101 32.2876C34.4101 35.2619 36.7757 36.3344 39.0881 37.0571C39.0881 36.2203 39.0577 35.3455 39.0272 34.5087C37.9775 34.0295 37.2854 33.3983 37.2854 32.3485C37.2854 31.2988 37.9472 30.6977 38.936 30.2489C39.149 30.1576 39.3848 30.0666 39.6586 29.983C40.2291 29.77 40.8909 29.6251 41.5451 29.4425L42.2677 29.2602C45.5082 28.4843 49.167 27.4649 49.1366 23.1139M37.4604 43.8805C37.4604 45.0823 38.3276 45.7059 39.2023 46.2156C39.2023 46.0026 39.1719 44.1768 39.1719 44.1464C39.2023 43.7889 39.5293 43.5457 39.8336 43.424C40.2824 43.211 40.7617 43.0361 41.2409 42.8839C41.5071 42.7927 41.7201 42.7011 41.9635 42.6403C43.7359 42.1002 45.7745 41.4387 45.7745 39.286C45.7745 37.1333 44.0325 36.2584 42.1156 35.5966C42.0852 36.2888 42.0853 37.2776 42.0549 37.9622C42.8612 38.2589 43.4011 38.6544 43.4011 39.2782C43.4011 40.0541 42.5949 40.4801 41.994 40.7159C41.7505 40.8072 41.3931 40.9288 41.2714 40.9592C40.7921 41.1114 40.3128 41.2558 39.8336 41.4384C39.5902 41.5296 39.3544 41.621 39.111 41.7351C38.3351 42.1535 37.4604 42.7851 37.4604 43.8652M38.6621 17.8575C37.9395 18.1009 37.2246 18.3672 36.5324 18.7248C35.7793 18.9682 34.7067 19.0216 33.5961 20.2235C33.2386 20.6418 32.9038 21.0906 32.5767 21.5394C32.2496 22.0186 32.2194 22.8021 31.976 23.19C31.6184 23.7909 31.7096 24.1483 31.7096 24.1483C31.6488 24.4145 31.4966 24.6885 31.3217 24.9015C30.9642 25.3199 30.4242 25.5328 29.8841 25.4416C30.3938 25.685 31.0858 25.3502 31.0858 25.3502C30.9641 25.6773 30.873 26.0122 30.8197 26.3393C31.3902 25.0538 31.8998 24.5974 32.0824 24.4528C32.3258 24.5137 32.8354 24.483 33.7634 23.9429C34.8132 23.3419 36.403 22.3531 36.8518 21.7218C37.331 21.0904 37.9623 20.5807 38.7078 20.3145C38.7078 19.4169 38.6773 18.5725 38.6773 17.8575M34.2275 21.8436L33.6875 21.9654L34.3492 20.885L35.1022 20.9154L34.2351 21.8436H34.2275Z" fill="#645D75"/>
<path d="M40.853 43.7281C40.7617 43.7586 40.4955 43.8801 40.313 43.941C40.1304 44.0018 39.925 44.0933 39.925 44.1542C39.925 44.1542 40.1076 53.3886 40.1076 53.5712C40.1076 55.4577 41.066 55.4881 41.066 53.5712C41.066 53.4495 41.279 43.5836 41.279 43.5836C41.279 43.5836 41.0128 43.6747 40.8606 43.7356M39.8336 40.6702C40.1303 40.5789 40.4347 40.4571 40.7009 40.4039C40.9139 40.343 41.0889 40.2824 41.3019 40.2215C41.3019 39.651 41.4843 31.6182 41.5147 30.1805C40.8833 30.3326 40.252 30.5076 39.6587 30.7205C39.6891 31.8007 39.8413 39.8029 39.8413 40.6776M40.64 10C37.9396 10 39.0806 14.0164 39.2936 15.3399C39.2936 15.4008 39.5067 24.4221 39.5599 26.4912C39.9783 26.3694 40.3661 26.2784 40.7921 26.1948L41.5985 25.9816C41.6289 23.9734 41.8419 15.3703 41.8419 15.3095C42.0245 13.9327 43.4317 10 40.64 10Z" fill="#645D75"/>
</svg>
