<svg width="24" height="24" viewBox="0 0 24 24" fill="none" xmlns="http://www.w3.org/2000/svg">
<g clip-path="url(#clip0_245_119)">
<path fill-rule="evenodd" clip-rule="evenodd" d="M12 0.96C5.90277 0.96 0.96 5.90277 0.96 12C0.96 18.0972 5.90277 23.04 12 23.04C18.0972 23.04 23.04 18.0972 23.04 12C23.04 5.90277 18.0972 0.96 12 0.96ZM0 12C0 5.37258 5.37258 0 12 0C18.6274 0 24 5.37258 24 12C24 18.6274 18.6274 24 12 24C5.37258 24 0 18.6274 0 12Z" fill="#CC7510"/>
<path fill-rule="evenodd" clip-rule="evenodd" d="M14.8099 12.0001H12.985V18.7484H9.94153V12.0001H8.75719V9.72786H9.94153V8.28177C9.94153 6.38128 10.7333 5.25879 12.9643 5.25879H15.2298V7.52426H13.9147C13.0402 7.52426 12.985 7.84796 12.985 8.45391V9.72786H15.0577L14.8099 12.0001Z" fill="#F3F0EC"/>
</g>
<defs>
<clipPath id="clip0_245_119">
<rect width="24" height="24" fill="white"/>
</clipPath>
</defs>
</svg>
