<svg width="176" height="73" viewBox="0 0 176 73" fill="none" xmlns="http://www.w3.org/2000/svg">
<path fill-rule="evenodd" clip-rule="evenodd" d="M38.9498 18.7649C37.8355 19.3259 37.4926 20.8923 36.3782 20.2222C35.0379 19.552 32.0145 18.6556 30.9001 18.4296C29.2247 18.0946 27.2064 17.9854 25.4219 18.2036C20.3879 18.7647 16.25 21.6715 13.4525 25.3574C10.0939 29.8303 9.75879 33.859 9.75879 38.332C9.75879 47.5039 17.4735 55.6628 25.6401 55.5537C32.2404 55.4446 38.6148 54.3225 41.5214 43.4752L40.5162 42.9139C38.1706 51.6338 32.5755 54.5407 27.4324 53.6523C15.8058 51.6418 16.3591 42.5789 16.3591 35.4253C16.3591 28.9419 20.0527 19.6533 27.2063 19.6533C31.7884 19.6533 34.695 20.0972 39.2849 31.0614L40.0641 31.2874L38.9498 18.7649ZM72.606 37.4435C73.5022 35.3161 74.0632 33.3059 77.9751 33.1968C82.5572 33.0877 83.2351 37.8955 83.2351 40.5761V48.4079C83.126 51.3146 83.5702 53.3251 80.2116 53.6679L80.3207 54.4472H91.7291V53.7768C88.4874 52.7715 88.0354 51.4315 88.1523 48.4079V39.6881C88.1523 37.6776 87.7081 35.8853 86.4769 33.8748C85.1366 31.9734 82.339 31.529 80.6636 31.529C77.983 31.529 74.1802 32.5343 72.3879 34.4357C72.3879 34.4357 72.1619 32.7603 70.9307 31.529C70.9307 31.3031 63.8862 32.7603 63.8862 32.7603V33.5396C66.9097 33.5396 67.463 36.4462 67.6889 38.7996V48.4155C67.6889 50.9871 67.5798 52.9978 64.5563 53.8939V54.4548H76.1829L76.292 53.7847C73.6113 53.1146 72.5982 52.5534 72.5982 48.4155V37.4591L72.606 37.4435Z" fill="#645D75"/>
<path fill-rule="evenodd" clip-rule="evenodd" d="M54.3795 50.1923C54.2704 51.7586 53.7093 53.099 50.4676 53.5509C48.3402 53.886 45.9946 52.0935 45.9946 49.8571C45.9946 46.0543 51.2546 43.1476 54.7145 42.5865L54.3795 50.1923ZM53.8183 41.0204C50.7948 43.927 41.4048 41.4643 41.1788 49.5218C41.1788 52.7636 44.3114 54.8911 47.7791 54.8911C50.6857 54.8911 52.6963 54.3299 54.9327 52.6545C55.0418 54.4468 58.9615 55.3432 60.972 55.2263C63.0994 55.0003 63.5435 54.3299 65.0007 52.8805L64.3306 51.8752C63.7695 52.5454 62.8734 53.7769 60.9798 53.3249C59.5226 53.0989 59.5226 50.3091 59.5226 49.187V38.5658C59.5226 36.6644 59.5225 34.7628 57.7302 33.3134C56.0548 32.0822 53.5924 31.7473 51.5819 31.7473C48.3402 31.7473 42.184 32.1912 42.184 35.994C42.184 37.3343 42.8542 38.2306 44.1945 38.2306C45.8699 38.2306 46.431 37.116 46.8752 35.6588C47.4363 33.6483 48.4415 32.8614 50.9039 32.8614C53.8106 32.8614 54.2548 36.1033 54.2548 38.3398C54.2548 39.2359 54.4807 39.2357 53.8105 41.028L53.8183 41.0204ZM132.882 47.3945C132.103 52.6467 129.414 53.6598 127.404 53.6598C121.7 53.6598 119.907 46.7245 119.907 42.9217C119.907 39.1189 121.918 32.8538 126.726 32.8538C128.736 32.8538 132.095 33.8589 132.874 39.5631V47.3945H132.882ZM132.773 33.8666C130.762 32.1912 128.3 31.4041 125.503 31.4041C122.035 31.4041 114.655 33.9759 114.546 43.3738C114.437 49.639 119.354 54.8911 125.954 54.8911C128.526 54.8911 131.207 54.2208 133.108 52.4285L133.669 54.8911L141.501 53.8858L141.166 53.3249C137.815 52.8807 137.924 49.857 137.815 48.0725V18.2114L128.534 18.4374V19.1075C132.001 19.3335 132.781 21.3441 132.781 25.708V33.8746L132.773 33.8666Z" fill="#645D75"/>
<path fill-rule="evenodd" clip-rule="evenodd" d="M158.722 18.7646H163.421V29.6119H158.722V18.7646ZM140.487 18.7646H145.186V29.6119H140.487V18.7646Z" fill="#645D75"/>
<path fill-rule="evenodd" clip-rule="evenodd" d="M105.374 50.1923C105.265 51.7586 104.704 53.099 101.462 53.551C99.4515 53.8861 96.989 52.0936 96.989 49.8571C96.989 46.0543 102.241 43.1476 105.709 42.5866L105.374 50.1923ZM104.813 41.0204C101.797 43.9271 92.3992 41.4643 92.2901 49.5219C92.181 52.7636 95.3136 54.8911 98.7736 54.8911C101.68 54.8911 103.691 54.3299 105.927 52.6545C106.153 54.4468 109.956 55.3432 111.966 55.2263C114.094 55.0003 114.538 54.33 115.995 52.8806L115.325 51.8753C114.764 52.5454 113.868 53.7769 111.966 53.325C110.509 53.099 110.509 50.3092 110.509 49.1871V38.5658C110.509 36.6644 110.509 34.7629 108.717 33.3134C107.042 32.0822 104.579 31.7473 102.569 31.7473C99.3268 31.7473 93.2875 32.1913 93.2875 35.9941C93.2875 37.3344 93.8487 38.2306 95.189 38.2306C96.9813 38.2306 97.5345 37.116 97.8774 35.6588C98.4385 33.6483 99.4437 32.8614 101.906 32.8614C104.813 32.8614 105.265 36.1033 105.265 38.3398C105.265 39.236 105.491 39.2357 104.813 41.028V41.0204ZM155.137 50.1923C155.028 51.7586 154.358 53.099 151.226 53.551C149.098 53.8861 146.753 52.0936 146.753 49.8571C146.753 46.0543 152.005 43.1476 155.473 42.5866L155.137 50.1923ZM154.584 41.0204C151.561 43.9271 142.17 41.4643 141.944 49.5219C141.944 52.7636 145.077 54.8911 148.428 54.8911C151.444 54.8911 153.345 54.3299 155.582 52.6545C155.808 54.4468 159.72 55.3432 161.73 55.2263C163.74 55.0003 164.301 54.33 165.759 52.8806L165.088 51.8753C164.527 52.5454 163.631 53.7769 161.738 53.325C160.281 53.099 160.171 50.3092 160.171 49.1871V38.5658C160.171 36.6644 160.171 34.7629 158.496 33.3134C156.821 32.0822 154.358 31.7473 152.231 31.7473C149.098 31.7473 142.95 32.1913 142.95 35.9941C142.95 37.3344 143.511 38.2306 144.851 38.2306C146.643 38.2306 147.197 37.116 147.649 35.6588C148.21 33.6483 149.215 32.8614 151.561 32.8614C154.467 32.8614 155.028 36.1033 155.028 38.3398C155.028 39.236 155.254 39.2357 154.584 41.028V41.0204Z" fill="#645D75"/>
<path fill-rule="evenodd" clip-rule="evenodd" d="M151.678 30.1731L151.787 27.5937L151.693 27.5001L148.654 28.0458L148.763 26.8145V26.5884L146.418 24.4611L147.197 24.0167H147.306V23.9078L146.862 22.2321L148.537 22.6765H148.646V22.5673L149.091 21.7881L150.213 23.3546C150.322 23.4637 150.213 23.4634 150.322 23.4634V23.3546L149.761 20.222L150.883 21.0012H150.992V20.892L151.771 18.7646L152.551 20.892C152.66 21.0011 152.55 21.0012 152.66 21.0012H152.769L153.891 20.222L153.221 23.3546C153.221 23.4273 153.257 23.4634 153.33 23.4634H153.439L154.561 21.7881L154.896 22.5673C154.896 22.6401 154.932 22.6765 155.005 22.6765L156.681 22.2321L156.345 23.9078V24.1339L157.125 24.4687L154.888 26.5961C154.888 26.6688 154.852 26.7053 154.779 26.7053V26.8145L154.888 28.0458L151.865 27.4845V30.1651H151.639L151.678 30.1731Z" fill="#645D75"/>
</svg>
