<svg width="64" height="63" viewBox="0 0 64 63" fill="none" xmlns="http://www.w3.org/2000/svg">
<path d="M55.6277 9.54905C50.9741 4.46895 43.3129 2 32.21 2C21.1071 2 13.4457 4.46895 8.79208 9.54905C4.49756 14.2326 2.5 21.273 2.5 31.71C2.5 42.1471 4.49756 49.1874 8.79208 53.8709C13.4457 58.951 21.1071 61.42 32.21 61.42C43.3129 61.42 50.9741 58.951 55.6277 53.8709C59.9223 49.1874 61.9199 42.1471 61.9199 31.71C61.9199 21.273 59.9223 14.2326 55.6277 9.54905ZM32.21 60.4398C11.5379 60.4398 3.48006 52.3821 3.48006 31.71C3.48006 11.038 11.5379 2.98015 32.21 2.98015C52.882 2.98015 60.9399 11.038 60.9399 31.71C60.9399 52.3821 52.882 60.4398 32.21 60.4398Z" fill="#F3F0EC"/>
<path d="M32.6737 10.3871C28.4839 10.3871 24.6757 11.6888 21.9449 14.0531C18.9522 16.6417 17.3735 20.3453 17.3735 24.767V43.2843C17.3735 43.3292 17.3735 43.374 17.3884 43.4114C17.4558 43.6658 19.1766 49.6213 25.9775 52.9806C26.1272 53.0554 26.3066 53.0479 26.4488 52.9581C26.5909 52.8683 26.6808 52.7113 26.6808 52.5467V34.9496C26.6808 34.7177 26.5162 34.5156 26.2917 34.4708L22.057 33.6253V30.0042L29.4116 31.6351V44.2045C29.4116 44.3467 29.479 44.4888 29.5912 44.5786L31.903 46.4865C32.0826 46.6361 32.3445 46.6361 32.5241 46.4865L34.8359 44.5786C34.9481 44.4888 35.0154 44.3467 35.0154 44.2045V31.6351L42.37 30.0042V33.6253L38.1354 34.4708C37.9034 34.5156 37.7463 34.7177 37.7463 34.9496V52.5467C37.7463 52.7187 37.836 52.8758 37.9782 52.9581C38.0605 53.0105 38.1428 53.033 38.2325 53.033C38.3074 53.033 38.3822 53.018 38.4495 52.9806C45.2504 49.6213 46.9712 43.6658 47.0386 43.4114C47.0535 43.3665 47.0535 43.3217 47.0535 43.2843V24.767C47.0535 15.9011 41.547 10.3871 32.6737 10.3871ZM46.0735 43.2095C45.8864 43.8005 44.2105 48.6935 38.7189 51.7311V35.3462L42.9536 34.5007C43.1855 34.4558 43.3426 34.2538 43.3426 34.0219V29.3906C43.3426 29.241 43.2753 29.0988 43.1631 29.0091C43.0508 28.9193 42.8937 28.8819 42.7515 28.9118L34.4169 30.7673C34.1924 30.8197 34.0353 31.0142 34.0353 31.2461V43.98L32.2098 45.4839L30.3842 43.98V31.2461C30.3842 31.0142 30.2271 30.8197 30.0026 30.7673L21.668 28.9118C21.5259 28.8819 21.3687 28.9118 21.2565 29.0091C21.1443 29.0988 21.077 29.241 21.077 29.3906V34.0219C21.077 34.2538 21.2416 34.4558 21.466 34.5007L25.7006 35.3462V51.7311C20.224 48.701 18.5331 43.8005 18.3461 43.2095V24.7595C18.3461 15.5046 25.5436 11.3597 32.6737 11.3597C40.941 11.3597 46.0735 16.4922 46.0735 24.7595V43.2095Z" fill="#F3F0EC"/>
</svg>
