<svg width="114" height="114" viewBox="0 0 114 114" fill="none" xmlns="http://www.w3.org/2000/svg">
<g clip-path="url(#clip0_202_7593)">
<path d="M101.931 14.4817C93.0019 4.73652 78.307 0 57 0C35.693 0 21.0054 4.73652 12.0693 14.4817C3.8319 23.4693 0 36.9801 0 57C0 77.0199 3.8319 90.5381 12.0693 99.5183C20.9981 109.263 35.7004 114 57 114C78.2996 114 92.9946 109.263 101.931 99.5183C110.168 90.5307 114 77.0199 114 57C114 36.9801 110.161 23.4693 101.931 14.4817ZM57 112.132C17.328 112.132 1.87552 96.6794 1.87552 57.0074C1.87552 17.3354 17.328 1.88284 57 1.88284C96.672 1.88284 112.124 17.3354 112.124 57.0074C112.124 96.6794 96.672 112.132 57 112.132Z" fill="white"/>
<path d="M101.681 60.5966C100.835 53.9037 96.8192 49.0716 90.6779 47.3285C84.2498 45.5118 76.7111 47.4388 70.864 52.065C71.8863 49.454 72.6291 46.3209 72.6291 42.2683C72.6291 26.7643 59.0962 13.7463 58.5225 13.202C58.1621 12.8563 57.5958 12.8563 57.2354 13.202C56.6618 13.7463 43.1289 26.7643 43.1289 42.2683C43.1289 46.3209 43.8718 49.454 44.8941 52.065C39.0543 47.4388 31.5156 45.5118 25.0801 47.3285C18.9388 49.0642 14.9231 53.9037 14.0773 60.5966C13.5551 64.7374 14.4524 68.2089 16.7618 70.9007C21.366 76.2771 29.8607 76.5713 30.2211 76.586H30.2506C30.6404 76.586 30.9934 76.3433 31.1331 75.9755C31.2729 75.6004 31.1553 75.1739 30.839 74.9238C29.2136 73.6146 28.3677 70.8419 28.7796 68.1721C29.0591 66.3554 30.1623 63.0605 34.3913 61.4203C37.7672 60.1038 41.1798 60.2215 43.7467 61.7366C45.7472 62.9134 47.1226 64.8624 47.7036 67.2895H45.9752C44.1439 67.2895 42.6582 68.7752 42.6582 70.6065C42.6582 72.4379 44.1439 73.9236 45.9752 73.9236H46.799C44.6513 77.6083 39.9148 81.2416 34.9282 82.8817C30.8463 84.2277 27.1395 84.0953 24.4991 82.4993C24.0652 82.2346 23.4988 82.3669 23.2267 82.7935C22.9545 83.2201 23.0649 83.7864 23.4842 84.0732C28.2574 87.3241 32.4791 88.3537 35.9211 88.3537C37.929 88.3537 39.6647 88.0007 41.0842 87.5374C44.8131 86.3165 47.6962 83.9629 49.7997 81.3299C49.3731 85.5957 50.5867 91.0235 57.1252 100.658C57.3017 100.916 57.5885 101.07 57.8974 101.07C58.2063 101.07 58.5005 100.916 58.6697 100.658C65.2008 91.0309 66.4143 85.6031 65.9951 81.3372C68.0986 83.9629 70.9816 86.3165 74.7105 87.5374C76.13 88.0007 77.8731 88.3537 79.8736 88.3537C83.3157 88.3537 87.5374 87.3241 92.3107 84.0732C92.7299 83.7864 92.8476 83.2201 92.5755 82.7935C92.3033 82.3669 91.737 82.2346 91.3031 82.4993C88.6627 84.0953 84.9558 84.2277 80.8739 82.8817C75.8873 81.2343 71.1508 77.6083 69.0032 73.9236H69.9888C71.8201 73.9236 73.3058 72.4379 73.3058 70.6065C73.3058 68.7752 71.8201 67.2895 69.9888 67.2895H68.0912C68.6649 64.8624 70.0476 62.9134 72.0481 61.7366C74.6149 60.2215 78.0276 60.1038 81.4035 61.4203C85.6325 63.0678 86.7358 66.3554 87.0153 68.1721C87.4271 70.8419 86.5813 73.622 84.9485 74.9238C84.6322 75.1739 84.5145 75.6004 84.6543 75.9755C84.7867 76.3433 85.1398 76.586 85.5369 76.586H85.5663C85.9267 76.5786 94.4215 76.2771 99.0257 70.9007C101.328 68.2089 102.232 64.7447 101.71 60.5966H101.681ZM57.8753 15.2172C60.5672 18.0194 70.7536 29.4636 70.7536 42.2683C70.7536 48.8362 68.6722 52.8887 66.7085 56.1763C65.2449 58.0077 64.0829 60.0303 63.2812 62.1411C63.2738 62.1632 63.2664 62.1779 63.2591 62.1999C62.4721 63.921 62.0088 65.5538 61.8028 67.2674H53.9405C53.7345 65.5317 53.2712 63.8842 52.4842 62.1926C52.4842 62.1779 52.4695 62.1558 52.4621 62.1411C51.6384 59.9935 50.4838 57.9856 49.0349 56.1763C47.0711 52.8961 44.9971 48.8362 44.9971 42.2683C44.9971 29.4562 55.1834 18.0121 57.8753 15.2172ZM44.6808 60.1112C41.6138 58.3019 37.6054 58.1401 33.6927 59.6625C29.9638 61.1114 27.4925 64.1049 26.9114 67.8779C26.5437 70.2462 26.9924 72.6512 28.0441 74.4678C25.367 74.0339 20.8952 72.8571 18.1813 69.6798C16.2396 67.4072 15.4821 64.4358 15.9381 60.8393C16.6956 54.8451 20.1303 50.6896 25.595 49.1451C32.9572 47.0637 41.9521 50.4028 47.505 57.2575C47.7918 57.7356 48.0861 58.2063 48.3729 58.677C49.2628 60.1185 50.1013 61.4865 50.7485 62.8766C50.7485 62.8766 50.7485 62.8766 50.7485 62.8839C51.278 64.2814 51.6605 65.7597 51.8885 67.2895H49.5938C48.9687 64.1637 47.255 61.6336 44.6881 60.1185L44.6808 60.1112ZM40.4738 85.7502C37.3921 86.7578 34.0898 86.7063 30.7213 85.6251C32.2364 85.5148 33.8397 85.1912 35.4799 84.6543C41.3637 82.7126 46.7621 78.3512 48.8803 73.9162H51.587C51.5134 74.2104 51.4325 74.5119 51.3443 74.8355C49.9763 78.6821 46.2988 83.8526 40.4665 85.7575L40.4738 85.7502ZM57.8753 98.4372C49.8659 86.2429 51.2633 81.6167 52.7416 76.7257C52.874 76.2845 53.0064 75.8505 53.1167 75.4607C53.1167 75.4387 53.1315 75.424 53.1315 75.4019C53.308 74.9091 53.4477 74.409 53.5727 73.9162H62.1632C62.2883 74.4237 62.4353 74.9312 62.6045 75.4019C62.7295 75.8505 62.8619 76.2918 62.9943 76.7257C64.4726 81.6167 65.8701 86.2356 57.8607 98.4372H57.8753ZM80.2635 84.6543C81.911 85.1985 83.5069 85.5222 85.022 85.6251C81.6535 86.6989 78.3512 86.7504 75.2695 85.7502C69.4371 83.8452 65.7671 78.6748 64.4138 74.887C64.3108 74.5414 64.2299 74.2177 64.1564 73.9162H66.863C68.9812 78.3585 74.3796 82.7126 80.2635 84.6543ZM71.4009 70.5992C71.4009 71.3935 70.7537 72.0407 69.9593 72.0407H45.9458C45.1514 72.0407 44.5043 71.3935 44.5043 70.5992C44.5043 69.8048 45.1514 69.1576 45.9458 69.1576H69.9593C70.7537 69.1576 71.4009 69.8048 71.4009 70.5992ZM97.5768 69.6725C94.8629 72.8498 90.3837 74.0265 87.7139 74.4604C88.7657 72.6438 89.207 70.2388 88.8466 67.8705C88.2656 64.0975 85.7943 61.1041 82.0654 59.6552C78.1452 58.1327 74.1443 58.2945 71.0773 60.1038C68.5104 61.6189 66.7967 64.149 66.1716 67.2748H63.8769C64.1122 65.7523 64.48 64.2814 64.9948 62.9354C64.9948 62.9354 64.9948 62.9354 64.9948 62.9281C65.6641 61.4792 66.5026 60.1112 67.3925 58.6696C67.6793 58.2063 67.9662 57.7356 68.2604 57.2501C73.8133 50.3881 82.8156 47.0563 90.1704 49.1377C95.6351 50.6823 99.0624 54.8378 99.8273 60.832C100.283 64.4285 99.5332 67.3998 97.5842 69.6725H97.5768Z" fill="white"/>
</g>
<defs>
<clipPath id="clip0_202_7593">
<rect width="114" height="114" fill="white"/>
</clipPath>
</defs>
</svg>
