<svg width="66" height="65" viewBox="0 0 66 65" fill="none" xmlns="http://www.w3.org/2000/svg">
<path d="M26.9168 21.5396C25.6725 21.5396 24.651 22.5532 24.651 23.8051C24.651 25.0571 25.6648 26.0711 26.9168 26.0711C28.1687 26.0711 29.1825 25.0571 29.1825 23.8051C29.1825 22.5532 28.1687 21.5396 26.9168 21.5396ZM26.9168 25.0574C26.2255 25.0574 25.657 24.4889 25.657 23.7976C25.657 23.1064 26.2255 22.5379 26.9168 22.5379C27.608 22.5379 28.1763 23.1064 28.1763 23.7976C28.1763 24.4889 27.608 25.0574 26.9168 25.0574Z" fill="#F3F0EC"/>
<path d="M39.0446 21.5164C37.8003 21.5164 36.7788 22.5304 36.7788 23.7823C36.7788 25.0343 37.7927 26.0483 39.0446 26.0483C40.2966 26.0483 41.3104 25.0343 41.3104 23.7823C41.3104 22.5304 40.2966 21.5164 39.0446 21.5164ZM39.0446 25.0342C38.3533 25.0342 37.7849 24.4657 37.7849 23.7744C37.7849 23.0832 38.3533 22.5151 39.0446 22.5151C39.7359 22.5151 40.3042 23.0832 40.3042 23.7744C40.3042 24.4657 39.7359 25.0342 39.0446 25.0342Z" fill="#F3F0EC"/>
<path d="M23.4221 20.6023C22.6463 21.4472 22.1702 22.5687 22.1702 23.7976C22.1702 26.4167 24.2977 28.5444 26.9168 28.5444C27.6926 28.5444 28.4223 28.3523 29.0752 28.022C29.2749 28.7824 29.7741 30.1956 30.9723 31.4475C31.4869 31.9852 32.2241 32.3 32.9845 32.3C33.7449 32.3 34.4823 31.9929 34.9969 31.4475C36.1951 30.1956 36.702 28.7747 36.8941 28.022C37.5392 28.3523 38.2766 28.5444 39.0524 28.5444C41.6715 28.5444 43.799 26.4167 43.799 23.7976C43.799 22.5687 43.3304 21.4549 42.5623 20.6177C43.5147 19.9418 45.9495 17.8989 46.8405 14.2429C47.0095 13.5516 46.7713 12.8297 46.226 12.3688C45.6653 11.8926 44.905 11.7771 44.2291 12.0613C42.3781 12.8371 37.5776 14.6498 32.9999 14.6498C28.4222 14.6498 23.6219 12.8371 21.7708 12.0613C21.0949 11.7771 20.3344 11.9003 19.7738 12.3688C19.2284 12.8297 18.998 13.5516 19.1593 14.2429C20.0425 17.8682 22.4466 19.9111 23.4144 20.6023H23.4221ZM23.1763 23.7976C23.1763 21.7315 24.8507 20.057 26.9168 20.057C28.9829 20.057 30.6572 21.7392 30.6572 23.7976C30.6572 25.856 28.9753 27.5382 26.9168 27.5382C24.8584 27.5382 23.1763 25.8637 23.1763 23.7976ZM39.0524 27.5382C36.9863 27.5382 35.3118 25.8637 35.3118 23.7976C35.3118 21.7315 36.9863 20.057 39.0524 20.057C41.1185 20.057 42.7928 21.7392 42.7928 23.7976C42.7928 25.856 41.1185 27.5382 39.0524 27.5382ZM20.4267 13.129C20.6955 12.8986 21.0565 12.8449 21.3791 12.9831C23.2839 13.7819 28.2302 15.6485 32.9999 15.6485C37.7696 15.6485 42.7084 13.7819 44.6209 12.9831C44.9511 12.8449 45.3044 12.8986 45.5733 13.129C45.8344 13.3518 45.9418 13.6745 45.8574 14.0047C44.9741 17.63 42.3626 19.5423 41.7789 19.934C41.0031 19.3887 40.0662 19.0587 39.0447 19.0587C36.4256 19.0587 34.2979 21.186 34.2979 23.8051C34.2979 25.2568 34.9586 26.5626 35.9955 27.4306C35.9187 27.8223 35.55 29.4122 34.2673 30.7564C33.937 31.102 33.4761 31.3017 32.9768 31.3017C32.4776 31.3017 32.0245 31.1097 31.6865 30.7564C30.4038 29.4122 30.0275 27.8146 29.9584 27.4306C30.9953 26.5626 31.6558 25.2569 31.6558 23.7976C31.6558 21.1785 29.5283 19.0508 26.9091 19.0508C25.8953 19.0508 24.9582 19.3735 24.1902 19.9111C23.568 19.4887 21.0026 17.5684 20.1347 13.9969C20.0579 13.6666 20.1655 13.3443 20.419 13.1215L20.4267 13.129Z" fill="#F3F0EC"/>
<path d="M49.0989 26.0558C45.4813 25.4952 42.8775 29.4508 42.7623 29.6198C42.6087 29.8502 42.678 30.165 42.9084 30.311C43.1388 30.4646 43.4537 30.3955 43.5996 30.1651C43.6226 30.1267 45.9652 26.5858 48.9376 27.0467C49.483 27.1312 49.9515 27.4998 50.3279 28.1527C51.7258 30.5951 51.5031 36.2328 49.8364 40.4571C47.7165 45.8336 44.3676 50.1426 41.9943 52.0704C38.4458 48.0227 37.6779 43.7522 39.2678 37.0162C39.3292 36.7474 39.1602 36.4785 38.8914 36.4094C38.6226 36.348 38.3537 36.5171 38.2923 36.7859C37.0173 42.1931 37.2399 46.21 39.1217 49.7201C36.8328 52.6465 33.6146 52.7387 32.9618 52.7234C32.3243 52.7387 29.1137 52.6388 26.8249 49.7201C28.7143 46.2024 28.9295 42.1931 27.6545 36.7859C27.593 36.5171 27.3242 36.348 27.0553 36.4094C26.7865 36.4709 26.6176 36.7397 26.679 37.0162C28.2612 43.7599 27.5008 48.0227 23.9523 52.0704C21.579 50.1426 18.2302 45.8336 16.1104 40.4571C14.4436 36.2251 14.2133 30.5874 15.6189 28.1527C15.9952 27.4998 16.4559 27.1312 17.0089 27.0467C19.9814 26.5858 22.3241 30.1267 22.3472 30.1651C22.5008 30.3955 22.8079 30.4646 23.0384 30.311C23.2688 30.1574 23.3379 29.8502 23.1842 29.6198C23.0767 29.4508 20.473 25.5028 16.8477 26.0558C15.9951 26.1864 15.2655 26.7395 14.7432 27.6535C13.184 30.3648 13.3761 36.2788 15.1733 40.8258C17.4775 46.6631 21.2104 51.3098 23.7067 53.1532C23.7988 53.2223 23.8986 53.2533 24.0061 53.2533C24.1444 53.2533 24.2749 53.1996 24.3748 53.092C25.1121 52.2932 25.7419 51.4788 26.2719 50.6416C28.6529 53.4527 31.7406 53.7292 32.8236 53.7292C32.8696 53.7292 32.908 53.7292 32.9464 53.7292C33.9218 53.7523 37.1632 53.5679 39.6441 50.6416C40.1741 51.4788 40.8039 52.2932 41.5412 53.092C41.6411 53.1996 41.7716 53.2533 41.9099 53.2533C42.0174 53.2533 42.1172 53.2223 42.2093 53.1532C44.7056 51.3098 48.4461 46.6631 50.7427 40.8258C52.5399 36.2712 52.732 30.3648 51.1728 27.6535C50.6505 26.7395 49.9209 26.1864 49.0683 26.0558H49.0989Z" fill="#F3F0EC"/>
<path d="M57.0406 9.7497C52.2632 4.53451 44.3981 2 33 2C21.6019 2 13.7368 4.53451 8.95939 9.7497C4.55068 14.5578 2.5 21.7854 2.5 32.5C2.5 43.2146 4.55068 50.4418 8.95939 55.2499C13.7368 60.4651 21.6019 63 33 63C44.3981 63 52.2632 60.4651 57.0406 55.2499C61.4493 50.4418 63.5 43.2146 63.5 32.5C63.5 21.7854 61.4493 14.5578 57.0406 9.7497ZM33 61.9938C11.7782 61.9938 3.50622 53.7218 3.50622 32.5C3.50622 11.2782 11.7782 3.00622 33 3.00622C54.2218 3.00622 62.494 11.2782 62.494 32.5C62.494 53.7218 54.2218 61.9938 33 61.9938Z" fill="#F3F0EC"/>
</svg>
