<svg width="114" height="114" viewBox="0 0 114 114" fill="none" xmlns="http://www.w3.org/2000/svg">
<g clip-path="url(#clip0_524_16361)">
<path d="M101.931 14.481C93.0003 4.73586 78.3059 0 57 0C35.694 0 20.9997 4.73586 12.0694 14.481C3.83354 23.4661 0 36.9792 0 57C0 77.0208 3.83354 90.5339 12.0694 99.5189C20.9997 109.264 35.6995 114 57 114C78.3005 114 92.9948 109.264 101.931 99.5189C110.166 90.5339 114 77.0208 114 57C114 36.9792 110.166 23.4661 101.931 14.481ZM57.0055 112.124C17.3357 112.124 1.88123 96.6697 1.88123 57C1.88123 17.3302 17.3357 1.87575 57.0055 1.87575C96.6752 1.87575 112.13 17.3302 112.13 57C112.13 96.6697 96.6752 112.124 57.0055 112.124Z" fill="#F3F0EC"/>
<path d="M101.68 60.5933C100.832 53.8996 96.8179 49.0653 90.6766 47.3263C84.2454 45.5052 76.7041 47.4357 70.8635 52.0622C71.8862 49.4481 72.6299 46.3146 72.6299 42.2677C72.6299 26.764 59.1004 13.7486 58.5208 13.2018C58.1598 12.8572 57.5911 12.8572 57.2301 13.2018C56.6559 13.7486 43.121 26.764 43.121 42.2677C43.121 46.32 43.8647 49.4536 44.8819 52.0622C39.0413 47.4411 31.5055 45.5107 25.0689 47.3263C18.9221 49.0653 14.9135 53.8996 14.0659 60.5933C13.5409 64.7385 14.4432 68.2057 16.7455 70.8963C21.3447 76.272 29.843 76.5673 30.2039 76.5782H30.2313C30.625 76.5782 30.975 76.3321 31.1117 75.9657C31.2485 75.5884 31.1336 75.1618 30.8164 74.9103C29.1923 73.6033 28.3446 70.8252 28.7547 68.1565C29.0336 66.3409 30.1329 63.0487 34.3656 61.4027C37.7453 60.0902 41.1522 60.205 43.7225 61.7198C45.7186 62.9011 47.1022 64.8479 47.6764 67.276H45.9428C44.1163 67.276 42.6233 68.7635 42.6233 70.5955C42.6233 72.4275 44.1108 73.915 45.9428 73.915H46.7631C44.6139 77.6008 39.878 81.2321 34.8906 82.8781C30.8055 84.2234 27.1032 84.0922 24.4618 82.4953C24.0298 82.2328 23.4611 82.3641 23.1876 82.7906C22.9142 83.2172 23.0291 83.7859 23.4501 84.0703C28.2243 87.3187 32.4461 88.3468 35.8859 88.3468C37.8929 88.3468 39.632 87.9968 41.0538 87.532C44.7834 86.3125 47.6709 83.9555 49.7709 81.325C49.3443 85.5906 50.5584 91.021 57.0934 100.651C57.2684 100.908 57.5583 101.061 57.87 101.061C58.1817 101.061 58.4715 100.908 58.6465 100.651C65.1816 91.0265 66.3956 85.5961 65.9691 81.336C68.0691 83.9609 70.951 86.3179 74.6861 87.5375C76.108 88.0023 77.847 88.3523 79.8541 88.3523C83.2939 88.3523 87.5211 87.3242 92.2898 84.0758C92.7109 83.7914 92.8257 83.2227 92.5523 82.7961C92.2789 82.3696 91.7156 82.2383 91.2781 82.5008C88.6367 84.0976 84.9344 84.2344 80.8493 82.8836C75.8619 81.2375 71.126 77.6063 68.9769 73.9204H69.9612C71.7877 73.9204 73.2807 72.433 73.2807 70.6009C73.2807 68.7689 71.7932 67.2815 69.9612 67.2815H68.0691C68.6433 64.8534 70.0268 62.9065 72.0229 61.7253C74.5932 60.2105 78.0056 60.0956 81.3798 61.4081C85.6071 63.0542 86.7118 66.3463 86.9907 68.1619C87.4008 70.8307 86.5532 73.6087 84.929 74.9157C84.6173 75.1673 84.497 75.5938 84.6391 75.9712C84.7759 76.3431 85.1258 76.5837 85.5196 76.5837H85.5469C85.9079 76.5727 94.4007 76.272 99.0053 70.9017C101.308 68.2112 102.21 64.744 101.685 60.5988L101.68 60.5933ZM57.8754 15.2087C60.566 18.0087 70.7542 29.4547 70.7542 42.2623C70.7542 48.8302 68.6761 52.8879 66.7128 56.1691C65.2527 57.9957 64.0878 60.0245 63.2894 62.1354C63.2785 62.1519 63.273 62.1737 63.2676 62.1902C62.4801 63.9073 62.0207 65.5479 61.8129 67.2596H53.9489C53.7411 65.526 53.2763 63.8745 52.4943 62.1847C52.4888 62.1683 52.4779 62.1464 52.4724 62.13C51.6466 59.9808 50.4982 57.9738 49.049 56.1637C47.0858 52.8825 45.0076 48.8247 45.0076 42.2568C45.0076 29.4492 55.1903 18.0032 57.8864 15.2033L57.8754 15.2087ZM44.6795 60.1066C41.6116 58.2964 37.6031 58.1324 33.6875 59.6582C29.9579 61.1074 27.486 64.1042 26.9063 67.8721C26.5399 70.24 26.9829 72.6462 28.0384 74.4618C25.3587 74.0298 20.8908 72.8486 18.1729 69.6713C16.2315 67.4018 15.4768 64.4268 15.9307 60.8284C16.6909 54.8293 20.1197 50.6786 25.5829 49.131C32.9438 47.0474 41.9452 50.3833 47.4959 57.2465C47.7857 57.7277 48.0756 58.198 48.3599 58.6629C49.2513 60.1066 50.088 61.4737 50.7333 62.8628C50.7333 62.8628 50.7333 62.8628 50.7333 62.8683C51.2638 64.2682 51.6466 65.7448 51.8763 67.2705H49.5795C48.956 64.1479 47.2443 61.6159 44.6741 60.1011L44.6795 60.1066ZM40.4796 85.7492C37.3953 86.7554 34.0977 86.7062 30.7289 85.6289C32.2492 85.5195 33.8461 85.1968 35.4922 84.6554C41.3765 82.7141 46.7795 78.3555 48.8959 73.915H51.6029C51.5263 74.2103 51.4497 74.5111 51.3622 74.8283C49.9896 78.6782 46.3201 83.8461 40.4851 85.7492H40.4796ZM57.8754 98.431C49.8693 86.2359 51.2638 81.6094 52.7458 76.7204C52.8771 76.2829 53.0138 75.84 53.1232 75.4517C53.1286 75.4353 53.1341 75.4134 53.1396 75.397C53.3146 74.8993 53.4567 74.4072 53.5825 73.9095H62.1738C62.2996 74.4181 62.4473 74.9212 62.6168 75.397C62.7426 75.8454 62.8793 76.2829 63.0105 76.7204C64.4871 81.6094 65.887 86.2304 57.8809 98.431H57.8754ZM80.2642 84.65C81.9103 85.1914 83.5071 85.514 85.0274 85.6234C81.6587 86.7007 78.3611 86.7499 75.2768 85.7437C69.4417 83.8406 65.7722 78.6727 64.4214 74.8829C64.323 74.5329 64.2355 74.2158 64.159 73.9095H66.8605C68.9769 78.3501 74.3799 82.7086 80.2642 84.65ZM71.4049 70.59C71.4049 71.3885 70.7596 72.0338 69.9612 72.0338H45.9483C45.1553 72.0338 44.5045 71.3885 44.5045 70.59C44.5045 69.7916 45.1498 69.1463 45.9483 69.1463H69.9612C70.7542 69.1463 71.4049 69.7916 71.4049 70.59ZM97.578 69.6713C94.8601 72.8486 90.3867 74.0298 87.7125 74.4618C88.7625 72.6462 89.211 70.2455 88.8446 67.8721C88.2649 64.1042 85.793 61.1074 82.0634 59.6582C78.1478 58.1324 74.1393 58.2964 71.0714 60.1066C68.5065 61.6214 66.7894 64.1534 66.1659 67.276H63.8691C64.0988 65.7557 64.4761 64.2846 64.9847 62.9339C64.9847 62.9339 64.9847 62.9284 64.9847 62.9229C65.6574 61.4737 66.4941 60.1066 67.3855 58.6629C67.6698 58.198 67.9597 57.7277 68.2495 57.2465C73.8002 50.3833 82.8017 47.0474 90.1625 49.131C95.6257 50.6786 99.0546 54.8293 99.8147 60.8284C100.269 64.4213 99.5194 67.3963 97.5725 69.6713H97.578Z" fill="#F3F0EC"/>
</g>
<defs>
<clipPath id="clip0_524_16361">
<rect width="114" height="114" fill="white"/>
</clipPath>
</defs>
</svg>
