<svg width="114" height="114" viewBox="0 0 114 114" fill="none" xmlns="http://www.w3.org/2000/svg">
<g clip-path="url(#clip0_524_16020)">
<path d="M102.661 15.2115C93.7308 5.46633 79.031 0.730469 57.7305 0.730469C36.43 0.730469 21.7302 5.46633 12.7998 15.2115C4.564 24.1965 0.730469 37.7096 0.730469 57.7305C0.730469 77.7513 4.564 91.2644 12.7998 100.249C21.7302 109.995 36.43 114.73 57.7305 114.73C79.031 114.73 93.7308 109.995 102.661 100.249C110.897 91.2644 114.73 77.7513 114.73 57.7305C114.73 37.7096 110.897 24.1965 102.661 15.2115ZM57.7305 112.86C18.0607 112.86 2.60622 97.4057 2.60622 57.7359C2.60622 18.0662 18.0607 2.61169 57.7305 2.61169C97.4002 2.61169 112.855 18.0662 112.855 57.7359C112.855 97.4057 97.4002 112.86 57.7305 112.86Z" fill="#F3F0EC"/>
<path d="M91.5277 49.1C90.3465 47.0984 88.7223 45.95 86.8247 45.7859C83.7239 45.518 80.0107 47.9023 75.7889 52.8679C75.4553 53.2616 75.5045 53.8522 75.8982 54.1913C76.292 54.5249 76.8826 54.4812 77.2217 54.0819C81.9575 48.5039 84.9708 47.5086 86.6661 47.6562C87.9512 47.7656 89.0449 48.575 89.9145 50.0515C90.4887 51.025 90.8605 52.1351 91.0137 53.3546C94.0214 76.6019 77.7685 91.9142 74.3506 94.8509C63.3148 83.7769 69.396 67.1575 69.4616 66.988C69.6421 66.5013 69.4015 65.9599 68.9147 65.7794C68.4335 65.5935 67.8921 65.8396 67.7062 66.3263C67.646 66.4794 62.9648 79.2378 68.7835 90.3939C68.078 91.6736 65.2015 95.8736 57.7696 95.8736C50.3377 95.8736 47.4557 91.6681 46.7557 90.3939C52.5743 79.2378 47.8877 66.4794 47.833 66.3263C47.6471 65.8396 47.1111 65.5989 46.6244 65.7794C46.1377 65.9599 45.8971 66.5068 46.0775 66.988C46.1432 67.1575 52.2462 83.755 41.1886 94.8509C37.7706 91.9142 21.5177 76.6019 24.5255 53.3546C24.6841 52.1351 25.056 51.025 25.6247 50.0515C26.4942 48.575 27.588 47.7656 28.8731 47.6562C30.5629 47.5086 33.5816 48.5039 38.3175 54.0819C38.6511 54.4757 39.2417 54.5249 39.6409 54.1913C40.0347 53.8577 40.0839 53.2616 39.7503 52.8679C35.5285 47.9023 31.8152 45.518 28.7145 45.7859C26.8169 45.95 25.1927 47.093 24.0114 49.1C23.3114 50.2921 22.8576 51.6429 22.6661 53.114C19.1881 80.0253 40.4503 96.6884 40.669 96.8524C40.8386 96.9837 41.0409 97.0439 41.2378 97.0439C41.4675 97.0439 41.6971 96.9564 41.8776 96.7923C43.4252 95.3486 44.683 93.8064 45.7002 92.215C47.1494 94.2658 50.6494 97.7438 57.7641 97.7438C64.8789 97.7438 68.3843 94.2658 69.828 92.215C70.8506 93.8064 72.103 95.3486 73.6506 96.7923C73.8311 96.9618 74.0608 97.0439 74.2904 97.0439C74.4928 97.0439 74.6897 96.9782 74.8592 96.8524C75.0725 96.6884 96.3401 80.0253 92.8621 53.114C92.6707 51.6429 92.2222 50.2921 91.5168 49.1H91.5277Z" fill="#F3F0EC"/>
<path d="M46.4112 37.748C44.087 37.748 42.1948 39.6402 42.1948 41.9644C42.1948 44.2886 44.087 46.1807 46.4112 46.1807C48.7354 46.1807 50.6275 44.2886 50.6275 41.9644C50.6275 39.6402 48.7354 37.748 46.4112 37.748ZM46.4112 44.3105C45.1151 44.3105 44.0651 43.255 44.0651 41.9644C44.0651 40.6738 45.1206 39.6183 46.4112 39.6183C47.7018 39.6183 48.7572 40.6738 48.7572 41.9644C48.7572 43.255 47.7018 44.3105 46.4112 44.3105Z" fill="#F3F0EC"/>
<path d="M69.0182 37.7031C66.6941 37.7031 64.8019 39.5953 64.8019 41.9195C64.8019 44.2436 66.6941 46.1358 69.0182 46.1358C71.3424 46.1358 73.2346 44.2436 73.2346 41.9195C73.2346 39.5953 71.3424 37.7031 69.0182 37.7031ZM69.0182 44.2655C67.7222 44.2655 66.6722 43.2101 66.6722 41.9195C66.6722 40.6288 67.7276 39.5734 69.0182 39.5734C70.3088 39.5734 71.3643 40.6288 71.3643 41.9195C71.3643 43.2101 70.3088 44.2655 69.0182 44.2655Z" fill="#F3F0EC"/>
<path d="M39.8986 36.0027C38.4549 37.5777 37.5689 39.6667 37.5689 41.9635C37.5689 46.8416 41.5337 50.8064 46.4118 50.8064C47.861 50.8064 49.2227 50.4509 50.4312 49.8329C50.7977 51.2439 51.7328 53.8798 53.9695 56.2204C54.932 57.2266 56.2991 57.8063 57.721 57.8063C59.1429 57.8063 60.51 57.2266 61.4725 56.2204C63.7092 53.8798 64.6443 51.2439 65.0107 49.8329C66.2193 50.4509 67.581 50.8064 69.0302 50.8064C73.9083 50.8064 77.8731 46.8416 77.8731 41.9635C77.8731 39.6776 76.9981 37.605 75.5708 36.03C77.3426 34.7667 81.8871 30.9605 83.5441 24.1466C83.8558 22.8559 83.4238 21.5161 82.4066 20.6521C81.3675 19.7662 79.9402 19.5474 78.6879 20.0724C75.2372 21.5216 66.2959 24.8958 57.7593 24.8958C49.2227 24.8958 40.2814 21.5216 36.8307 20.0724C35.5729 19.5474 34.151 19.7662 33.112 20.6521C32.0948 21.5161 31.6573 22.8559 31.9745 24.1466C33.6205 30.9058 38.0994 34.7066 39.904 36.0027H39.8986ZM39.4392 41.9635C39.4392 38.119 42.5673 34.9909 46.4118 34.9909C50.2563 34.9909 53.3843 38.119 53.3843 41.9635C53.3843 45.808 50.2563 48.9361 46.4118 48.9361C42.5673 48.9361 39.4392 45.808 39.4392 41.9635ZM69.0302 48.9361C65.1857 48.9361 62.0577 45.808 62.0577 41.9635C62.0577 38.119 65.1857 34.9909 69.0302 34.9909C72.8747 34.9909 76.0028 38.119 76.0028 41.9635C76.0028 45.808 72.8747 48.9361 69.0302 48.9361ZM34.3205 22.0794C34.8291 21.6474 35.4908 21.5435 36.1033 21.8005C39.658 23.2935 48.8782 26.7661 57.7538 26.7661C66.6295 26.7661 75.8497 23.2935 79.4043 21.8005C80.0168 21.5435 80.6785 21.6474 81.1871 22.0794C81.6683 22.4896 81.8707 23.102 81.723 23.7091C80.0824 30.4629 75.2044 34.0339 74.127 34.7558C72.6833 33.7332 70.9278 33.1261 69.0302 33.1261C64.1522 33.1261 60.1874 37.0909 60.1874 41.969C60.1874 44.6814 61.4178 47.1095 63.3483 48.7337C63.2116 49.4611 62.517 52.4306 60.1272 54.9352C59.5038 55.586 58.6507 55.9469 57.7265 55.9469C56.8023 55.9469 55.9492 55.586 55.3257 54.9352C52.9304 52.4306 52.2414 49.4556 52.1047 48.7337C54.0351 47.1095 55.2601 44.6814 55.2601 41.969C55.2601 37.0909 51.2953 33.1261 46.4172 33.1261C44.5306 33.1261 42.7861 33.7222 41.3533 34.7339C40.1884 33.9464 35.4143 30.3754 33.7955 23.7145C33.6479 23.1075 33.8448 22.495 34.3315 22.0849L34.3205 22.0794Z" fill="#F3F0EC"/>
<path d="M87.7602 46.1687C81.0119 45.1296 76.1611 52.496 75.9588 52.8077C75.6799 53.2397 75.8002 53.8194 76.2377 54.0983C76.6697 54.3772 77.2494 54.2569 77.5283 53.8248C77.5721 53.7592 81.9306 47.164 87.4758 48.0171C88.4985 48.1757 89.368 48.8648 90.0625 50.0788C92.6765 54.6288 92.25 65.1341 89.1438 73.0144C85.1899 83.0331 78.9556 91.0665 74.5315 94.6594C67.9144 87.1181 66.4925 79.1612 69.4456 66.5942C69.5659 66.0911 69.2542 65.588 68.7511 65.4677C68.248 65.3474 67.7449 65.6591 67.63 66.1622C65.2621 76.2464 65.6668 83.7221 69.1831 90.2681C64.923 95.7204 58.9184 95.8954 57.7098 95.8735C56.5286 95.9008 50.5295 95.7204 46.2748 90.2681C49.7912 83.7166 50.1959 76.2409 47.8279 66.1622C47.7076 65.6591 47.2045 65.3474 46.7068 65.4677C46.2037 65.588 45.892 66.0911 46.0123 66.5942C48.9654 79.1558 47.5436 87.1127 40.9265 94.6594C36.5023 91.0665 30.268 83.0331 26.3142 73.0144C23.2025 65.1286 22.7814 54.6233 25.3954 50.0788C26.0899 48.8702 26.9595 48.1757 27.9821 48.0171C33.5219 47.164 37.8859 53.7592 37.9296 53.8248C38.214 54.2569 38.7882 54.3826 39.2202 54.0983C39.6523 53.8194 39.778 53.2397 39.4991 52.8077C39.2968 52.496 34.4461 45.1296 27.6977 46.1687C26.1064 46.4148 24.7501 47.4429 23.7712 49.1491C20.8674 54.2077 21.2283 65.2216 24.5751 73.7035C28.868 84.5807 35.8297 93.2431 40.4835 96.6829C40.6476 96.8086 40.8444 96.8688 41.0413 96.8688C41.2929 96.8688 41.5444 96.7649 41.7304 96.568C43.103 95.0751 44.2733 93.5657 45.2686 92.0071C49.7091 97.2407 55.4567 97.7602 57.4856 97.7602C57.5676 97.7602 57.6497 97.7602 57.7208 97.7602C59.5364 97.7985 65.5847 97.4594 70.2112 92.0071C71.2011 93.5657 72.3768 95.0805 73.7495 96.5735C73.9354 96.7703 74.187 96.8743 74.4385 96.8743C74.6299 96.8743 74.8268 96.8141 74.9963 96.6883C79.6502 93.2485 86.6118 84.5861 90.9047 73.7089C94.2515 65.227 94.6124 54.2131 91.7086 49.1546C90.7297 47.4484 89.3735 46.4203 87.7821 46.1742L87.7602 46.1687Z" fill="#F3F0EC"/>
</g>
<defs>
<clipPath id="clip0_524_16020">
<rect width="114" height="114" fill="white"/>
</clipPath>
</defs>
</svg>
