<svg width="114" height="114" viewBox="0 0 114 114" fill="none" xmlns="http://www.w3.org/2000/svg">
<path d="M57 114C35.6995 114 20.9997 109.264 12.0694 99.519C3.83353 90.5339 0 77.0208 0 57C0 36.9792 3.83353 23.4661 12.0694 14.481C20.9997 4.73586 35.6995 0 57 0C78.3005 0 93.0003 4.73586 101.931 14.481C110.166 23.4661 114 36.9792 114 57C114 77.0208 110.166 90.5339 101.931 99.519C93.0003 109.264 78.3005 114 57 114ZM57 1.87575C17.3302 1.87575 1.87575 17.3302 1.87575 57C1.87575 96.6698 17.3302 112.124 57 112.124C96.6698 112.124 112.124 96.6698 112.124 57C112.124 17.3302 96.6698 1.87575 57 1.87575Z" fill="#F3F0EC"/>
<path d="M68.5493 97.9109C68.3797 97.9109 68.2047 97.8617 68.0571 97.7687C67.7836 97.5992 67.6141 97.2984 67.6141 96.9703V63.2122C67.6141 62.7637 67.9313 62.3809 68.3688 62.2934L76.5007 60.6692V53.724L62.3861 56.863V80.9854C62.3861 81.2643 62.2603 81.5322 62.047 81.7072L57.6064 85.3712C57.2619 85.6556 56.7588 85.6556 56.4143 85.3712L51.9737 81.7072C51.7604 81.5268 51.6347 81.2643 51.6347 80.9854V56.863L37.52 53.724V60.6692L45.6519 62.2934C46.0894 62.3809 46.4066 62.7637 46.4066 63.2122V96.9703C46.4066 97.293 46.2371 97.5937 45.9636 97.7687C45.6902 97.9383 45.3457 97.9547 45.0558 97.8125C32.013 91.3704 28.71 79.9408 28.5787 79.4541C28.5568 79.3721 28.5459 79.2901 28.5459 79.2026V43.6671C28.5459 35.1852 31.581 28.0759 37.3231 23.1049C42.5621 18.5714 49.8737 16.0776 57.9127 16.0776C74.9312 16.0776 85.5022 26.6486 85.5022 43.6671V79.2026C85.5022 79.2846 85.4912 79.3721 85.4694 79.4541C85.3326 79.9354 82.035 91.3649 68.9922 97.8125C68.861 97.8781 68.7188 97.9109 68.5766 97.9109H68.5493ZM69.4844 63.9833V95.4227C80.0007 89.604 83.2381 80.2033 83.599 79.0658V43.6726C83.599 27.8134 73.7445 17.9589 57.8854 17.9589C44.2027 17.9589 30.3943 25.9103 30.3943 43.6726V79.0658C30.7552 80.2033 33.9927 89.604 44.509 95.4227V63.9833L36.377 62.359C35.9396 62.2715 35.6224 61.8887 35.6224 61.4403V52.5592C35.6224 52.2748 35.7536 52.0068 35.9724 51.8264C36.1966 51.6459 36.4864 51.5803 36.7599 51.6405L52.7503 55.1951C53.1768 55.2881 53.4831 55.6709 53.4831 56.1084V80.5424L56.9885 83.4353L60.4939 80.5424V56.1084C60.4939 55.6709 60.8002 55.2881 61.2267 55.1951L77.2171 51.6405C77.496 51.5803 77.7859 51.6459 78.0046 51.8264C78.2288 52.0068 78.3546 52.2748 78.3546 52.5592V61.4403C78.3546 61.8887 78.0374 62.2715 77.5999 62.359L69.468 63.9833H69.4844Z" fill="#F3F0EC"/>
</svg>
