<svg width="186" height="46" viewBox="0 0 186 46" fill="none" xmlns="http://www.w3.org/2000/svg">
<path d="M23.0727 24.0734H25.0814L24.0771 21.6814L23.0727 24.0734Z" fill="#F3F0EC"/>
<path d="M30.355 18.9137H33.3062L34.8316 20.9377L43.5549 9.38401C40.5117 3.174 34.272 0 22.9962 0C5.26613 0 0 7.84302 0 23C0 36.0334 3.89409 43.6618 16.2584 45.5401L33.3522 22.8927L30.355 18.9214V18.9137ZM17.1016 27.0787H14.6333V22.8697L12.119 26.3044L9.60477 22.8697V27.0787H7.13654V18.883H9.29814L12.119 22.7394L14.9399 18.883H17.1016V27.0787ZM26.346 27.1094L25.8861 26.0054H22.2604L21.8005 27.1094H19.1405L22.9426 18.9137H25.2192L29.0212 27.1094H26.3613H26.346Z" fill="#F3F0EC"/>
<path d="M44.1071 10.626L37.8521 18.9137H39.4925L36.4033 23.0077L39.5002 27.1093H36.549L34.924 24.955L33.2989 27.1093H31.6585L17.6154 45.7164C19.2635 45.9081 21.0572 46.0001 23.0042 46.0001C40.7343 46.0001 46.0004 38.157 46.0004 23C46.0004 18.1087 45.4486 13.9763 44.1148 10.626H44.1071Z" fill="#F3F0EC"/>
<path d="M56.7739 27.2055C56.7739 27.2865 56.693 27.3601 56.6194 27.3601H55.155C55.074 27.3601 55.0005 27.2791 55.0005 27.2055V19.6626C55.0005 19.5817 55.0814 19.5081 55.155 19.5081H56.6194C56.7004 19.5081 56.7739 19.589 56.7739 19.6626V27.2055Z" fill="#F3F0EC"/>
<path d="M57.8851 21.0019C57.8042 21.0019 57.7012 20.8989 57.7012 20.818V19.692C57.7012 19.6111 57.8042 19.5081 57.8851 19.5081H65.325C65.406 19.5081 65.509 19.6111 65.509 19.692V20.818C65.509 20.8989 65.406 21.0019 65.325 21.0019H62.4992V27.2129C62.4992 27.2939 62.4183 27.3674 62.3447 27.3674H60.8803C60.7993 27.3674 60.7257 27.2865 60.7257 27.2129V21.0019H57.8999H57.8851Z" fill="#F3F0EC"/>
<path d="M67.172 18.5C67.6945 18.5 68.1508 18.8533 68.1508 19.6259C68.1508 20.4354 67.8344 21.2007 67.1132 21.6791C66.9955 21.76 66.9072 21.7968 66.8409 21.7968C66.76 21.7968 66.7084 21.7674 66.6422 21.7085L66.3773 21.4215C66.2964 21.3406 66.289 21.3038 66.289 21.2376C66.289 21.186 66.3184 21.1345 66.3552 21.1051C66.6716 20.8843 66.9734 20.6341 66.9954 20.2147V20.1779C66.6054 20.1264 66.3037 19.7878 66.3037 19.3684C66.3037 18.8974 66.6863 18.5074 67.1647 18.5074L67.172 18.5Z" fill="#F3F0EC"/>
<path d="M70.072 24.7183C70.2265 24.7183 70.3075 24.7846 70.3369 24.9171C70.4694 25.5867 71.0286 26.0062 72.2723 26.0062C73.516 26.0062 74.0899 25.5352 74.0899 24.9686C74.0899 24.6006 73.825 24.2768 73.0449 24.2106L70.9992 24.0413C69.4023 23.9089 68.5486 23.1803 68.5486 21.9955C68.5486 20.6341 69.7408 19.3757 72.0589 19.3757C74.3769 19.3757 75.5029 20.487 75.5029 21.7453C75.5029 21.8631 75.4145 21.9661 75.2526 21.9661H73.9575C73.8251 21.9661 73.7514 21.9293 73.722 21.7674C73.6411 21.3111 73.1995 20.8623 72.0441 20.8623C70.8888 20.8623 70.3295 21.3112 70.3295 21.8852C70.3295 22.2384 70.5651 22.5033 71.2862 22.5548L73.3172 22.7241C75.1496 22.8786 75.8709 23.7985 75.8709 24.8876C75.8709 26.1165 74.8111 27.4927 72.2649 27.4927C69.8659 27.4927 68.5413 26.3521 68.5413 25.0569V24.9538C68.5413 24.8214 68.6443 24.7183 68.7915 24.7183H70.0646H70.072Z" fill="#F3F0EC"/>
<path d="M85.3414 26.0062H81.5147L80.9481 27.1984C80.8672 27.3529 80.8303 27.3676 80.6757 27.3676H79.1156C79.0347 27.3676 79.0127 27.3161 79.0127 27.2793C79.0127 27.2425 79.0421 27.1763 79.0642 27.1248L82.7584 19.5156H84.1198L87.814 27.1248C87.8434 27.1763 87.8655 27.2425 87.8655 27.2793C87.8655 27.3161 87.836 27.3676 87.7624 27.3676H86.2023C86.0478 27.3676 86.0036 27.3529 85.9301 27.1984L85.3414 26.0062ZM82.1475 24.6154H84.7379L84.0315 23.1583C83.7592 22.5917 83.4795 21.7601 83.4795 21.7601H83.3986C83.3986 21.7601 83.1263 22.599 82.8467 23.1583L82.1403 24.6154H82.1475Z" fill="#F3F0EC"/>
<path d="M90.5441 21.0019C90.4632 21.0019 90.3602 20.8989 90.3602 20.818V19.692C90.3602 19.6111 90.4632 19.5081 90.5441 19.5081H97.984C98.065 19.5081 98.168 19.6111 98.168 19.692V20.818C98.168 20.8989 98.065 21.0019 97.984 21.0019H95.1582V27.2129C95.1582 27.2939 95.0773 27.3674 95.0037 27.3674H93.5393C93.4583 27.3674 93.3847 27.2865 93.3847 27.2129V21.0019H90.5589H90.5441Z" fill="#F3F0EC"/>
<path d="M106.969 23.4379C106.969 25.9031 104.99 27.5 102.635 27.5C100.28 27.5 98.3005 25.9031 98.3005 23.4379C98.3005 20.9726 100.28 19.3757 102.635 19.3757C104.99 19.3757 106.969 21.0168 106.969 23.4379ZM100.081 23.4379C100.081 25.0201 101.244 26.0062 102.635 26.0062C104.026 26.0062 105.189 25.0274 105.189 23.4379C105.189 21.8484 104.026 20.8696 102.635 20.8696C101.244 20.8696 100.081 21.8484 100.081 23.4379Z" fill="#F3F0EC"/>
<path d="M114.174 19.6626C114.174 19.5817 114.255 19.5081 114.328 19.5081H115.793C115.874 19.5081 115.947 19.589 115.947 19.6626V23.607C115.947 26.1458 114.351 27.4999 111.937 27.4999C109.523 27.4999 107.926 26.1532 107.926 23.607V19.6626C107.926 19.5817 108.007 19.5081 108.081 19.5081H109.545C109.626 19.5081 109.7 19.589 109.7 19.6626V23.5923C109.7 25.2186 110.502 26.006 111.929 26.006C113.357 26.006 114.159 25.2186 114.159 23.5923V19.6626H114.174Z" fill="#F3F0EC"/>
<path d="M125.404 23.8278C125.404 25.8442 123.976 27.4926 121.261 27.4926C118.891 27.4926 116.926 25.9178 116.926 23.4304C116.926 20.9431 118.81 19.3683 121.261 19.3683C123.969 19.3683 125.11 21.0314 125.139 22.1941C125.139 22.2751 125.088 22.3634 124.933 22.3634H123.586C123.505 22.3634 123.417 22.334 123.388 22.2309C123.24 21.6054 122.63 20.8548 121.268 20.8548C119.907 20.8548 118.715 21.9145 118.715 23.4231C118.715 25.0862 119.922 25.9914 121.268 25.9914C122.615 25.9914 123.535 25.2849 123.586 24.5269H120.694C120.613 24.5269 120.51 24.4239 120.51 24.343V23.3495C120.51 23.2686 120.613 23.1655 120.694 23.1655H125.411V23.8205L125.404 23.8278Z" fill="#F3F0EC"/>
<path d="M134.543 27.2055C134.543 27.2865 134.463 27.3601 134.389 27.3601H132.924C132.843 27.3601 132.77 27.2791 132.77 27.2055V24.4165H128.251V27.2055C128.251 27.2865 128.171 27.3601 128.097 27.3601H126.633C126.552 27.3601 126.478 27.2791 126.478 27.2055V19.6626C126.478 19.5817 126.559 19.5081 126.633 19.5081H128.097C128.178 19.5081 128.251 19.589 128.251 19.6626V22.9226H132.77V19.6626C132.77 19.5817 132.851 19.5081 132.924 19.5081H134.389C134.47 19.5081 134.543 19.589 134.543 19.6626V27.2055Z" fill="#F3F0EC"/>
<path d="M148.511 27.3674H147.422L145.611 23.0698C145.523 22.849 145.413 22.5179 145.413 22.5179H145.383C145.383 22.5179 145.295 22.849 145.199 23.0698L143.382 27.3674H142.292L138.797 19.7435C138.767 19.692 138.745 19.6258 138.745 19.589C138.745 19.5522 138.775 19.5081 138.848 19.5081H140.423C140.578 19.5081 140.607 19.5081 140.688 19.6773L142.454 23.4378C142.653 23.8425 142.874 24.5784 142.874 24.5784H142.925C142.925 24.5784 143.058 24.078 143.242 23.6585L144.986 19.5081H145.825L147.569 23.6585C147.753 24.0927 147.885 24.5784 147.885 24.5784H147.937C147.937 24.5784 148.158 23.8425 148.356 23.4378L150.122 19.6773C150.203 19.5228 150.225 19.5081 150.387 19.5081H151.962C152.043 19.5081 152.065 19.5448 152.065 19.589C152.065 19.6331 152.036 19.692 152.014 19.7435L148.518 27.3674H148.511Z" fill="#F3F0EC"/>
<path d="M160.469 23.4379C160.469 25.9031 158.49 27.5 156.135 27.5C153.78 27.5 151.8 25.9031 151.8 23.4379C151.8 20.9726 153.78 19.3757 156.135 19.3757C158.49 19.3757 160.469 21.0168 160.469 23.4379ZM153.581 23.4379C153.581 25.0201 154.744 26.0062 156.135 26.0062C157.526 26.0062 158.688 25.0274 158.688 23.4379C158.688 21.8484 157.526 20.8696 156.135 20.8696C154.744 20.8696 153.581 21.8484 153.581 23.4379Z" fill="#F3F0EC"/>
<path d="M161.396 19.6626C161.396 19.5817 161.477 19.5081 161.551 19.5081H165.194C167.107 19.5081 168.468 20.5457 168.468 22.2603C168.468 23.4525 167.747 24.2546 166.702 24.6152V24.6446C166.702 24.6446 166.938 24.8948 167.122 25.1671L168.446 27.1025C168.513 27.1908 168.527 27.2497 168.527 27.2718C168.527 27.3233 168.498 27.3601 168.424 27.3601H166.68C166.614 27.3601 166.526 27.3086 166.474 27.2276L164.877 24.8948H163.185V27.1982C163.185 27.2791 163.104 27.3527 163.03 27.3527H161.566C161.485 27.3527 161.411 27.2718 161.411 27.1982V19.6552L161.396 19.6626ZM163.177 21.0019V23.4893H165.076C166.055 23.4893 166.688 23.033 166.688 22.2603C166.688 21.4876 166.062 21.0019 165.076 21.0019H163.177Z" fill="#F3F0EC"/>
<path d="M171.331 25.8738H175.209C175.29 25.8738 175.393 25.9768 175.393 26.0578V27.1837C175.393 27.2646 175.29 27.3676 175.209 27.3676H169.705C169.624 27.3676 169.55 27.2867 169.55 27.2131V19.6702C169.55 19.5892 169.631 19.5156 169.705 19.5156H171.169C171.25 19.5156 171.324 19.5966 171.324 19.6702V25.8811L171.331 25.8738Z" fill="#F3F0EC"/>
<path d="M176.342 27.3676C176.261 27.3676 176.188 27.2867 176.188 27.2131V19.6702C176.188 19.5892 176.269 19.5156 176.342 19.5156H179.654C182.141 19.5156 184.003 21.0463 184.003 23.4453C184.003 25.8444 182.428 27.375 179.683 27.375H176.342V27.3676ZM177.969 21.0022V25.8738H179.683C181.346 25.8738 182.222 24.9318 182.222 23.438C182.222 21.9441 181.148 21.0022 179.654 21.0022H177.961H177.969Z" fill="#F3F0EC"/>
<path d="M184.783 25.7632C185.269 25.7632 185.644 26.1459 185.644 26.6242C185.644 27.1025 185.261 27.4852 184.783 27.4852C184.305 27.4852 183.922 27.1025 183.922 26.6242C183.922 26.1459 184.305 25.7632 184.783 25.7632Z" fill="#F3F0EC"/>
</svg>
