<?xml version="1.0" encoding="UTF-8"?>
<svg xmlns="http://www.w3.org/2000/svg" width="13" height="14" viewBox="0 0 13 14" fill="none">
  <path d="M3.27984 13.317H0.732115V5.09537H3.27984V13.317ZM1.99917 4.01408C1.16598 4.01408 0.491211 3.33258 0.491211 2.49939C0.491211 1.66621 1.16598 0.984375 1.99917 0.984375C2.83236 0.984375 3.50713 1.66621 3.50713 2.49939C3.50713 3.33947 2.83236 4.01408 1.99917 4.01408ZM12.8237 13.317H10.2898V8.99959C10.2898 7.81522 9.84216 7.15406 8.90569 7.15406C7.88659 7.15406 7.35637 7.84277 7.35637 8.99959V13.317H4.91187V5.09537H7.35637V6.2039C7.35637 6.2039 8.09306 4.84724 9.83518 4.84724C11.5773 4.84724 12.8306 5.91454 12.8306 8.11801V13.3237L12.8237 13.317Z" fill="#F3F0EC"></path>
</svg>
