<?xml version="1.0" encoding="UTF-8"?>
<svg xmlns="http://www.w3.org/2000/svg" width="14" height="10" viewBox="0 0 14 10" fill="none">
  <path fill-rule="evenodd" clip-rule="evenodd" d="M13.5074 1.73039C13.349 1.14509 12.8946 0.683916 12.3093 0.532427C11.2489 0.250108 7.00723 0.25 7.00723 0.25C7.00723 0.25 2.76542 0.250108 1.705 0.532427C1.1197 0.690801 0.658357 1.14509 0.506868 1.73039C0.224549 2.79081 0.224609 5.00116 0.224609 5.00116C0.224609 5.00116 0.224549 7.21152 0.506868 8.27194C0.665243 8.85723 1.1197 9.31875 1.705 9.47024C2.76542 9.75255 7.00723 9.75233 7.00723 9.75233C7.00723 9.75233 11.2558 9.75255 12.3093 9.47024C12.8946 9.31186 13.3559 8.85723 13.5074 8.27194C13.7897 7.21152 13.7897 5.00116 13.7897 5.00116C13.7897 5.00116 13.7897 2.79081 13.5074 1.73039ZM5.64368 7.03935L9.16931 5.00116L5.64368 2.96298V7.03935Z" fill="#F3F0EC"></path>
</svg>
